<svg width="240" height="240" viewBox="0 0 240 240" fill="none" xmlns="http://www.w3.org/2000/svg">
<circle cx="120" cy="120" r="120" fill="#F8D6D5"/>
<g clip-path="url(#clip0_8122_9376)">
<path d="M44.64 56H199.44C205.44 56.73 205.78 60.82 206.14 65.97L206.89 87.72L207.86 92.59C207.19 95.78 206.8 98.89 207.15 102.34C208.57 124.9 209.9 148.08 210.12 170.31C210.36 172.28 209.8 173.68 208.43 174.52L206.6 178.08C205.05 180.3 203.56 180.83 200.94 180.66L196.23 183.46L193.87 183.83H48.1C46.91 183.78 46.01 183.41 44.94 182.95C41.69 181.55 36.87 179.08 33.98 177.11C32.52 176.12 30.49 174.6 30 172.9V170.74C30.1 169.59 30.18 168.47 30.24 167.38C30.3 159.2 30.72 151.01 31.5 142.79L32.57 112.69C33.99 96.21 34.93 79.17 35.21 63.17C35.7 59.06 37.35 55.9 42 56H44.64Z" fill="#0B0402"/>
<path d="M30 170.72V167.36H30.24C30.24 168.42 30.45 169.76 30 170.72Z" fill="#605C5B"/>
<path d="M205.2 163.52C205.44 166.43 205.22 169.96 204.96 172.88L204.48 173.45C198.63 173.89 192.77 173.95 186.88 173.61C136.39 173.38 85.8199 173.11 35.2999 172.83C34.7199 172.83 34.6899 171.59 34.7499 171.12C35.2099 168.96 35.3399 166.77 35.1399 164.56C34.9499 162.97 35.2399 161.61 35.9999 160.48C76.8399 159.79 117.68 159.69 158.53 160.18C173.91 159.63 189.26 159.56 204.58 159.99C205.38 160.08 206.14 163.19 205.2 163.53V163.52Z" fill="#C3B9AF"/>
<path d="M68.6401 174.08C70.8001 173.95 72.9601 173.84 75.1301 173.76C77.3001 173.68 79.4501 173.6 81.6201 173.6C122.74 173.65 163.87 173.8 204.98 174.09C205.01 174.39 204.95 174.67 204.89 174.95C204.77 175.5 201.97 178.13 201.13 177.68C198.95 179.33 196.99 180.63 194.41 181.64C145.2 181.58 95.6301 182.36 46.4801 181.25C43.4501 179.79 40.7701 177.57 37.8501 175.94C36.9401 175.43 34.8901 175.64 34.8101 174.09C46.0901 174.08 57.3701 174.1 68.6501 174.09L68.6401 174.08Z" fill="#8C5E42"/>
<path d="M34.3199 169.52L34.2499 165.91C36.3499 132.15 38.5999 95.71 39.8099 63.54C40.3599 59.36 41.0899 59.12 45.2699 59.01C69.2099 59.73 93.7699 59.89 118.96 59.49C135.91 59.18 152.86 58.93 169.82 58.82C178.59 58.76 187.87 58.94 195.94 59.38C197.06 59.44 198.39 59.52 199.47 59.71C202.24 60.2 202.4 60.42 202.77 63.34C204.12 96.23 205.58 129.45 207.15 162.99L207.07 168.84L206.64 169.52L205.44 170.24C205.35 168.31 205.49 166.4 205.58 164.47C205.6 164.03 205.82 163.73 205.2 163.52C205.13 162.66 205.11 160.55 204.36 160.4C189.07 159.55 173.8 160.63 158.53 160.65C117.75 160.72 76.8499 159.75 36.1299 160.89C35.1499 161.63 35.8099 166.48 35.7599 167.71C35.7399 168.35 34.6799 172.08 35.4099 172.4C85.7999 172.39 136.19 173.06 186.58 173.13C191.65 173.13 200.3 173.75 204.95 172.88C205.67 172.75 205.52 171.26 206.79 172.76C206.73 174.23 205.49 174.71 204.89 175.58C204.65 175.93 204.83 176.66 204.65 176.91C204.07 177.68 201.86 179.26 201.11 177.69C202.4 176.72 203.91 175.69 204.83 174.33C159.43 174.53 114.03 174.04 68.6299 174.09H34.4099C34.1599 173.66 31.0399 172.15 32.6399 171.69C33.1799 171.36 33.7699 171.79 33.8399 172.41C34.1799 171.64 34.3399 170.68 34.3199 169.53V169.52Z" fill="#070100"/>
<path d="M32.6401 171.68C31.5901 170.33 32.0601 164.44 32.1501 162.43C33.0001 144.54 35.3401 126.51 34.9901 108.67C34.9301 105.5 35.1801 105.65 35.5001 102.89C36.6401 93.1 36.5701 83.26 37.2101 73.4C37.4701 69.44 36.0101 59.74 40.5601 58.27C92.9401 57.43 145.46 58.16 197.89 57.9C203.31 58.41 203.45 60.74 203.75 65.48C204.13 71.4 204.02 77.67 204.29 83.66C204.32 84.24 204.96 84.77 204.98 85.4C205.39 98.51 205.55 111.95 206.15 125.24C206.74 138.43 209.35 157.78 208.09 170.6C207.73 174.31 206.8 171.17 206.64 169.51C206.43 167.35 206.77 164.86 206.66 162.66C204.99 131.07 203.81 98.88 202.57 67.15C202.52 65.76 202.36 61.37 201.45 60.59C200.88 60.11 193.09 59.63 191.66 59.58C161.37 58.67 129.74 60.15 99.2401 60.08C83.8101 60.05 68.3601 59.91 52.9201 59.84C50.3801 59.83 43.2801 58.82 41.2901 60.2C39.6501 61.34 39.9701 73.71 39.8501 76.28C38.4801 106.96 36.4501 138.46 34.3201 169.51L34.1001 172.28L33.8401 172.39C33.3601 172.24 32.9601 172.08 32.6401 171.67V171.68Z" fill="#C0BAB1"/>
<path d="M131.28 169.28V164.84C131.28 164.61 132.08 164.13 132.38 164.02C134.13 163.34 149.48 163.41 151.78 163.79C152.26 163.87 153.38 164.16 153.56 164.65C153.88 165.5 153.83 168.94 152.88 169.41C152.16 169.77 147.96 169.96 146.76 170.01C145.56 170.06 131.27 170.06 131.27 169.28H131.28Z" fill="#0E0201"/>
<path d="M188.64 169.76L188.67 162.59C190.81 161.86 192.89 162.81 195.01 163.04C196.58 163.21 200.18 162.48 201.07 164.18C201.55 165.09 201.7 168.12 200.58 168.63L188.64 169.77V169.76Z" fill="#1A0705"/>
<path d="M67.2 164.84C67.24 164.5 67.84 162.39 68.08 162.31C69.72 162.36 79.94 161.82 80.61 162.58C81.28 163.34 81.07 168.42 80.25 169.53L67.2 169.04C67.32 167.7 67.04 166.14 67.2 164.84Z" fill="#080301"/>
<path d="M184.97 168.49C181.31 171.48 176.3 166.48 180.02 163.42C183.48 160.58 187.89 166.1 184.97 168.49Z" fill="#0E0502"/>
<path d="M102 162.32C102.37 161.94 103.62 162.79 103.44 163.39C103.07 164.6 101.27 163.06 102 162.32Z" fill="#2A231C"/>
<path d="M109.68 162.56C110.09 163.19 108.56 164.27 108.26 163.37C107.84 162.1 109.47 162.24 109.68 162.56Z" fill="#28211B"/>
<path d="M99.12 162.32C99.32 162.49 98.7 164.37 97.79 163.29C96.88 162.21 98.82 162.06 99.12 162.32Z" fill="#1E1612"/>
<path d="M118.73 162.39C119.31 162.98 118.92 163.84 118.08 163.4C117.05 162.87 117.86 161.49 118.73 162.39Z" fill="#2F2820"/>
<path d="M99.84 163.76C99.35 163.32 100.91 161.86 101.28 162.92C101.58 163.8 100.06 163.95 99.84 163.76Z" fill="#251F19"/>
<path d="M95.83 163.21C94.73 162.17 96.84 161.84 96.96 162.45C97.05 162.89 96.47 163.82 95.83 163.21Z" fill="#251E18"/>
<path d="M105.36 162.32C105.74 162.67 104.89 163.67 104.19 163.25C103.09 162.59 104.87 161.86 105.36 162.32Z" fill="#2F2824"/>
<path d="M107.52 162.32C107.58 162.38 107.48 163.05 107.52 163.28C104.69 163.06 106.86 161.63 107.52 162.32Z" fill="#221A16"/>
<path d="M111.84 162.32C112.22 162.68 111.16 164 110.88 163.76C110.21 163.16 111.17 161.68 111.84 162.32Z" fill="#1E1915"/>
<path d="M114 162.08V163.16L113.4 163.52L113.26 162.22L114 162.08Z" fill="#312925"/>
<path d="M116.4 163.28C116.34 163.33 114.83 163.31 114.96 162.69C115.53 161.71 116.9 162.78 116.4 163.28Z" fill="#2B2420"/>
<path d="M120.95 162.32C121.61 162.89 120.86 164.21 120 163.52C119.92 163.46 120.31 161.77 120.95 162.32Z" fill="#0F0704"/>
<path d="M182.4 181.28H163.68V181.52H182.4V181.28Z" fill="#4A3022"/>
<path d="M200.87 61.29L204.68 158.93L36 159.2C37.38 147.68 36.36 135.98 38.39 124.52C38.43 115.09 39.86 105.66 40.32 96.21C40.9 84.41 40.28 72.61 41.55 60.84L200.87 61.29Z" fill="#C3B9AF"/>
<path d="M34.3201 169.52C34.2501 170.55 34.3701 171.61 34.3201 172.64C33.8901 172.78 33.8801 172.41 33.8401 172.4L34.3201 169.52Z" fill="#0B0402"/>
<path d="M138.96 164.72C139.18 164.5 144.98 164.98 145.2 165.2C145.31 165.31 145.35 168.32 145.2 168.32H138.96C139.05 167.78 138.83 164.85 138.96 164.72Z" fill="#B24D11"/>
<path d="M146.64 168.32C146.51 168.18 146.71 165.72 146.93 165.37C147.17 164.98 152.21 165 152.4 165.2C152.51 165.31 152.55 168.32 152.4 168.32C151.6 168.32 146.84 168.52 146.64 168.32Z" fill="#A95222"/>
<path d="M135.36 168.32C134.2 167.84 133.32 167.84 132.72 168.32C130.43 163.94 138.25 163.11 137.54 167.25C137.31 168.59 136.35 168.22 135.36 168.32Z" fill="#BE4D0D"/>
<path d="M135.36 168.32C134.5 168.4 133.59 168.26 132.72 168.32C132.21 167.06 135.01 167.75 135.36 168.32Z" fill="#BA683A"/>
<path d="M189.84 164.12C189.86 164.03 190.08 163.55 190.22 163.52C191 164.03 193.38 164.02 193.92 164.36C194.25 164.57 194.76 167.26 194.64 167.36C194.45 167.52 190.43 168.38 189.84 168.32C190.02 167.11 189.59 165.23 189.84 164.12Z" fill="#BA3417"/>
<path d="M79.44 163.52V168.08H68.76C68.03 168.08 68.48 163.63 69.27 163.32C71.03 162.63 77.17 164.12 79.44 163.53V163.52Z" fill="#484440"/>
<path d="M181.37 164.05C184.71 163.03 186.08 168.17 182.3 168.06C179.63 167.98 179.73 164.55 181.37 164.05Z" fill="#EFB4B0"/>
<path d="M160.56 65.84L162.48 155.84L50.4 156.08L54.48 65.84H160.56Z" fill="#090100"/>
<path d="M169.92 126.32C170.27 124.65 169.91 116.91 170.19 116.51H178.05C178.11 117.67 178.44 118.82 178.55 119.97C179.32 127.71 180.45 143.79 179.76 151.17C179.3 156.15 175.41 154.12 171.85 153.91C171.61 147.57 171.07 141.27 170.64 134.96L170.29 134.44C170.08 131.71 169.96 129 169.92 126.32Z" fill="#080301"/>
<path d="M187.44 128.24C187.41 127.2 186.99 126.52 186.96 125.72C186.83 122.65 186.93 119.55 186.72 116.48C188.01 116.39 193.1 115.49 193.87 116.52C194.56 117.44 194.87 131.52 195.12 133.87C195.46 137.11 196.45 139.16 196.32 142.52C196.21 145.32 196.35 148.6 196.08 151.4C195.83 154.02 195.54 154.44 192.84 154.64C188.58 154.96 188.02 154.01 187.67 150.07C186.77 148.12 186.83 145.54 186.9 143.35C187.31 138.33 187.49 133.29 187.43 128.23L187.44 128.24Z" fill="#060402"/>
<path d="M50.56 89.44C51.07 90.47 50.93 93.51 50.89 94.77C50.73 100.26 49.85 106.27 49.45 111.81C49.2 115.17 49.48 124.81 48.3 127.22C47.28 129.3 43.67 129.94 42.66 127.96C40.42 123.59 42.53 106.33 42.97 100.76C43.2 97.83 42.03 88.81 45.79 87.98C47.19 87.67 49.86 87.99 50.57 89.44H50.56Z" fill="#060201"/>
<path d="M193.4 94.2C193.49 94.25 193.86 95.24 193.56 95.37C191.75 94.28 174.36 95.79 174.24 94.76C174.1 93.58 179.01 93.47 179.87 93.43C182.87 93.29 187.48 93.36 190.45 93.67C190.82 93.71 193.28 94.12 193.41 94.19L193.4 94.2Z" fill="#0B0604"/>
<path d="M192.96 99.68C192.98 100.06 193.01 100.46 192.74 100.78C192.14 101.52 175.97 100.62 173.76 101.12V99.68H192.96Z" fill="#0B0403"/>
<path d="M48 146C45.68 146.04 43.3 146.69 41.07 145.73C40.83 142.15 39.87 139.24 44.53 139.27C50.39 139.3 47.63 141.79 48 146Z" fill="#0B0603"/>
<path d="M172.56 73.28V72.08C174.45 72.28 176.33 71.9 178.19 71.83C181.42 71.7 188.15 71.59 191.17 72.07C192.01 72.2 193.3 73.28 192.36 73.28H172.56Z" fill="#0B0402"/>
<path d="M174.36 98C173.75 97.75 173.84 97.02 174.6 96.8C176.03 96.39 185.04 96.48 187.09 96.55C187.98 96.58 193.21 96.58 193.44 96.8C193.57 96.92 193.39 98 193.08 98H174.36Z" fill="#1B1312"/>
<path d="M191.95 74.53C192.04 74.55 193.27 75.89 192.96 76.16L172.57 75.56C173.14 74.83 174.24 74.8 175.08 74.71C179.45 74.28 184.8 74.87 189.26 74.97C190.07 74.99 191.5 74.43 191.96 74.53H191.95Z" fill="#0C0503"/>
<path d="M192.48 79.28C191.79 79.98 175.21 78.42 172.92 79.04L172.08 77.84H191.88C192.53 77.69 192.63 79.13 192.48 79.28Z" fill="#0D0604"/>
<path d="M191.76 102.56C191.82 102.63 191.72 103.5 191.76 103.76C187.8 103.65 183.83 104.23 179.87 104.01C179.21 103.97 176.06 103.9 175.92 103.15C175.88 102.91 176.19 102.55 176.28 102.55C178.23 102.55 191.22 101.99 191.76 102.55V102.56Z" fill="#0F0A09"/>
<path d="M174.72 69.44C175.24 68.92 187.77 69.55 189.49 69.43C192.61 70.75 185.69 70.91 184.92 70.9C183.09 70.88 176.88 70.88 175.55 70.65C174.86 70.53 174.31 69.85 174.72 69.44Z" fill="#100805"/>
<path d="M191.76 91.28C191.85 91.36 191.61 92.16 191.35 92.25C190.76 92.45 183.17 92.76 182.04 92.74C180.04 92.71 176.21 92.77 174.96 91.28H191.76Z" fill="#0C0705"/>
<path d="M187.68 150.08C187.32 149.9 185.61 149.93 185.51 149.7C184.54 147.48 186.95 142.19 187.19 139.63C187.55 135.9 186.73 131.96 187.43 128.23C187.65 135.39 187.04 142.95 187.67 150.07L187.68 150.08Z" fill="#875E42"/>
<path d="M190.8 80.72C190.09 83.23 184.77 81.74 182.77 81.67C180.18 81.58 177.78 82.03 175.2 81.44C175.13 80.78 175.21 81.06 175.56 80.97C180.58 79.67 185.76 81.48 190.8 80.72Z" fill="#0E0605"/>
<path d="M46.0199 67.1C51.5299 65.89 51.1799 73.9 46.2599 72.75C44.3199 72.3 43.3099 67.7 46.0199 67.1Z" fill="#0F0704"/>
<path d="M170.64 134.96C165.81 134.19 169.4 128.79 169.92 126.32C170.47 126.49 170.39 126.95 170.41 127.39C170.58 129.87 170.46 132.45 170.64 134.96Z" fill="#865C3F"/>
<path d="M189.36 106.4C189.03 106.73 180.93 106.37 180.12 106.16C179.68 106.04 179.34 105.83 179.52 105.32C179.9 104.26 187.67 105.64 188.98 104.99C189.45 105.09 189.44 106.32 189.36 106.4Z" fill="#120B09"/>
<path d="M187.2 67.28C187.26 67.34 187.23 68.31 187.09 68.49C186.58 69.19 184.92 68.28 184.2 68.24C183.21 68.18 177.76 68.76 178.08 67.16C178.17 66.71 186.88 66.95 187.2 67.28Z" fill="#150E0B"/>
<path d="M187.68 83.36C187.68 83.36 187.71 84.06 187.68 84.08C187.31 84.36 179.05 84.3 178.47 84.05C177.93 83.81 178.07 83.33 178.07 82.89C179.5 83.27 187.07 82.89 187.67 83.37L187.68 83.36Z" fill="#130C09"/>
<path d="M187.68 88.64C187.65 88.84 187.73 89.29 187.68 89.35C187.41 89.65 179.81 89.88 179.52 89.59C179.49 89.56 179.49 88.67 179.52 88.63C180 88.15 186.56 88.62 187.68 88.63V88.64Z" fill="#100806"/>
<path d="M41.8801 134.48C39.0201 133.3 47.3401 132.9 47.7601 133.04C47.8801 133.14 47.3601 134.48 47.1601 134.48C46.2901 134.48 42.2701 134.64 41.8801 134.48Z" fill="#150D0B"/>
<path d="M47.9999 130.88C48.4799 132.74 42.2299 132.08 41.9999 131.84C41.9699 131.81 41.9499 130.88 41.9999 130.88H47.9999Z" fill="#0F0806"/>
<path d="M198.74 63.9C198.35 63.63 198.43 60.95 200.06 62.22C201.18 63.09 199.54 64.46 198.74 63.9Z" fill="#120C0A"/>
<path d="M203.52 156.56C203.62 156.65 203.54 157.2 203.29 157.4C202.1 158.35 202.46 155.6 203.52 156.56Z" fill="#0C0401"/>
<path d="M55.92 73.28C56.08 73.14 56.24 73 56.42 72.9C57.14 72.48 65.54 72.16 66.13 73.15C66.25 73.35 66.15 73.58 65.99 73.76L65.96 74.54C64.4 76.5 63.67 78.91 63.48 81.37L63.11 94.05C61.69 110.05 60.9 125.72 61.36 141.76C61.47 145.52 62.34 147.1 64.93 149.72L64.78 150.32C65.51 150.15 65.87 150.63 65.5 151.28C66.21 151.95 66.45 152.51 66.22 152.96C66.66 153.28 67.14 153.6 67.66 153.92C68.13 153.31 69.03 154.2 68.64 154.75L66.7 154.88C63.49 154.86 55.99 155.46 53.37 154.89C52.94 154.8 52.58 154.9 52.54 154.28C52.93 146.21 52.89 138.1 53.25 130.03C54.1 111.16 54.99 92.17 55.9 73.28H55.92Z" fill="#C4BAB0"/>
<path d="M146.4 73.52C146.42 73.33 146.48 73.04 146.61 73.04C150.32 72.8 154.22 72.84 157.9 72.97L158.16 73.5L159.59 154.57L159.12 154.88C152.85 155.17 145.99 154.95 139.68 154.88C139.05 154.85 138.65 154.69 138.48 154.4C145.07 154.28 150.38 149.6 151.7 143.24C151.33 130.77 151.59 118.26 151.21 105.79C150.94 96.92 151.92 80.15 146.4 73.52Z" fill="#C3B9AE"/>
<path d="M159.36 71.6C160.41 76 159.49 80.83 159.59 85.41C160.12 108.52 161 131.62 161.04 154.74C160.92 155.02 159.52 154.86 159.12 154.88L157.68 73.28L146.4 73.52C146.22 73.3 145.15 72.48 144.72 72.08C143.07 70.86 141.76 70.08 139.71 69.71C138.98 69.73 136.43 69.45 137.54 68.48L157.54 68.37C158.15 68.35 158.66 68.48 159.07 68.74L159.37 71.6H159.36Z" fill="#8B5B3A"/>
<path d="M65.28 139.76L65.84 140.37C66.94 148.02 73.75 150.45 80.66 150.34C85.37 149.95 90.11 149.8 94.84 149.84C108.32 150.29 121.76 150.69 135.21 150.24C138.48 150.13 140.98 148.73 143.59 147.04L144 147.44L144.34 147.89C143.8 149.61 142.96 151.14 141.84 152.48C137.57 153.58 130.96 153.4 126.37 153.45C108.1 153.67 89.78 152.64 71.52 152.72L70.88 152.9L66.85 151.07C65.94 150.75 65.49 150.26 65.51 149.6C64.98 150.12 63.04 147.46 62.84 146.95L63.11 146.48C63.11 144.77 63.18 143.06 63.33 141.35L63.83 140.96C64.2 139.29 64.68 138.89 65.27 139.76H65.28Z" fill="#895B3D"/>
<path d="M143.52 73.28C151.77 79.17 149.22 93.35 149.51 102.67C149.77 110.8 151.91 141.53 148.99 147.04C147.5 149.85 144.85 151.71 141.83 152.48C140.66 152.43 143.09 149.94 143.32 149.53C143.73 148.8 143.76 147.88 143.99 147.44L143.75 146.89C145.85 144.38 146.38 141.57 146.69 138.33C147.21 132.9 147.11 127.42 147 121.96C146.32 110.23 146.08 98.53 146.27 86.88C146.23 85.19 146.14 83.5 145.96 81.83C145.56 78.29 144.89 76.65 142.21 74.35L142.31 74.01C142.1 73.94 142.1 73.86 142.31 73.77C142.08 72.98 142.94 72.88 143.51 73.29L143.52 73.28Z" fill="#C2BAB1"/>
<path d="M82.8 69.2C84.07 68.88 85.36 68.71 86.67 68.67C104.29 68.1 122.17 68.9 139.7 69.7C140.38 69.73 141.92 70.05 141.84 70.88L141.6 71.84L140.92 72.08C138.8 71.31 136.52 71.09 134.27 70.96C115.93 70.7 97.37 70.73 78.6 71.07C75.13 71.1 71.93 71.56 68.88 73.27C68.91 73.95 67.91 74.2 67.44 73.75C66.91 74.23 66.64 73.81 66.96 73.27C67.23 71.75 69.51 70.53 70.91 69.87C73.29 68.75 79.29 68.31 81.86 68.73C82.24 68.79 82.49 68.95 82.79 69.19L82.8 69.2Z" fill="#100302"/>
<path d="M159.6 67.28C159.15 67.9 158.09 66.99 158.4 68.24C132.96 68.71 107.52 68.71 82.08 68.24C82.08 68.43 82.03 68.72 81.91 68.72C73.52 68.88 64.84 68.88 56.45 68.72L56.16 68.24C56.16 67.84 56.28 67.97 56.16 67.28C56.19 67.15 56.21 67.04 56.24 67.04C90.23 66.96 125.44 66.95 159.44 67.03C159.5 67.03 159.55 67.14 159.61 67.28H159.6Z" fill="#150201"/>
<path d="M56.16 67.28C56.16 67.28 55.79 67.22 55.92 66.8H159.24C159.64 66.65 159.73 67.09 159.6 67.28H56.16Z" fill="#74584B"/>
<path d="M158.4 68.24H159.36V71.6C159.24 71.1 158.84 69.07 158.77 68.95C158.63 68.72 157.83 68.52 157.53 68.49L137.76 68.72C137.22 69.39 140.71 69.36 141.53 69.63C143.17 70.18 143.91 71.32 144.72 72.08C143.75 71.68 142.82 71.27 141.84 70.88C141 70.55 140.21 70.08 139.29 69.95C120.63 69.35 101.54 68.64 82.8 69.2C81.92 69.05 81.68 68.73 82.08 68.24H158.4Z" fill="#7E5D51"/>
<path d="M68.88 73.28C70.86 70.85 75.55 70.71 78.59 70.63C92.56 70.27 106.4 71.05 120.39 70.9C125.93 70.84 136.39 69.56 141.6 71.84C142.91 72.41 142.76 72.74 143.52 73.28C143.25 73.28 142.38 73.77 142.32 73.76C141.96 74.12 141.39 73.97 140.61 73.32C139.16 72.16 136.61 72.01 134.75 71.91C126.58 71.49 118.32 71.24 110.07 71.23C99.88 71.22 89.06 71.25 79.09 71.97C76.97 72.12 74.35 72.32 72.78 73.83L72.24 73.76C72.17 73.97 72.09 73.97 72 73.76L69.22 73.73L68.88 73.28Z" fill="#785A4B"/>
<path d="M82.08 68.24L82.8 69.2C75.75 69.41 72.16 68.25 66.96 73.28C67.25 73.76 66.36 74.26 66 73.76C65.95 73.1 63.49 73.05 63.01 73.03C60.67 72.93 58.24 72.99 55.92 73.28C56 71.59 56.14 69.95 56.16 68.24H82.08Z" fill="#855B42"/>
<path d="M76.08 154.4C86.87 154.15 102.3 153.36 112.69 154.39C113.11 154.43 113.62 154.34 113.76 154.88C98.72 154.83 83.68 154.96 68.64 154.88C69.51 154.32 70.53 154.07 71.7 154.14L76.08 154.4Z" fill="#5A4944"/>
<path d="M71.52 152.72C70.96 153.03 71.32 153.52 71.76 153.68C71.29 154.31 69.79 153.91 69.04 153.69C67.63 153.28 66.24 152.62 65.52 151.28C65.3 150.95 65.04 150.64 64.8 150.32C64.38 149.75 64.92 149.24 65.52 149.6C67.27 151.13 69.61 151.52 71.52 152.72Z" fill="#1A0A06"/>
<path d="M71.76 153.68C73.2 153.94 74.6 154.27 76.08 154.4C73.65 154.46 71.07 154.65 68.64 154.88C68 154.88 67.36 154.88 66.72 154.88L68.4 154.64C68.37 154.27 67.83 154.12 67.68 153.92C67.14 153.75 66.66 153.43 66.24 152.96C65.95 152.47 65.73 151.59 65.52 151.28C67.53 153.23 69.29 153.24 71.76 153.68Z" fill="#7D6044"/>
<path d="M138.48 154.4C138.69 154.42 139.44 154.73 139.68 154.88C137.28 154.85 134.86 155.04 132.48 154.64C134.34 154.35 136.61 154.2 138.48 154.4Z" fill="#554742"/>
<path d="M120.72 154.4L117.84 154.87C118.37 153.97 119.85 154.54 120.72 154.4Z" fill="#3E3934"/>
<path d="M175.4 130.2C176.24 130.72 175.91 147.71 176.36 149.93L175.19 150.19C175.23 147.91 173.03 130.86 173.75 130.17C173.81 130.11 175.26 130.13 175.4 130.21V130.2Z" fill="#615F5E"/>
<path d="M173.28 144.32C173.93 147.62 172.13 152.58 177.36 151.76V129.68L178.32 152.96H174.36C174.13 152.96 172.97 152.63 172.83 152.33C172.63 151.88 172.79 147.43 172.8 146.48C172.63 144.14 172.75 140.93 173.28 144.32Z" fill="#BAB4B0"/>
<path d="M177.24 123.92C177.9 124.21 177.5 126.19 177.6 126.8C174.18 126.19 171.3 128.92 171.6 123.92C172.75 124.18 176.44 123.57 177.24 123.92Z" fill="#AD4E55"/>
<path d="M172.8 146.48L172.08 130.88L173.28 144.32C173.22 144.03 173.04 143 172.8 142.88C172.79 144.08 172.8 145.28 172.8 146.48Z" fill="#A5A19C"/>
<path d="M171.36 117.68C175.15 117.31 177.15 116.18 177.37 121.16C176.15 122.75 177.01 118.66 175.81 118.38C175.5 118.31 172.26 118.32 172.11 118.43C171.83 118.62 171.85 121.42 171.6 122C170.83 121.77 171.36 121.35 171.36 121.16V117.68Z" fill="#AAA8A1"/>
<path d="M176.64 128C177.13 130.88 172.44 130.34 172.8 128H176.64Z" fill="#9F5350"/>
<path d="M175.44 121.52C174.9 121.44 173.47 121.74 173.14 121.29C171.49 119.04 176.27 117.67 175.44 121.52Z" fill="#5C5955"/>
<path d="M172.8 122.72C172.94 121.8 176.02 121.89 176.16 122C176.19 122.02 176.19 122.72 176.16 122.72H172.8Z" fill="#734B46"/>
<path d="M192.24 136.64C192.18 136.7 190.84 136.79 190.56 136.88C190.46 132.38 189.85 127.84 189.83 123.33C189.83 122.68 189.69 119.52 190.44 119.36L191.51 120.69L192.25 136.63L192.24 136.64Z" fill="#615F5F"/>
<path d="M189.6 150.56C190.28 152.86 193.92 152.35 193.92 150.92V146C193.92 146 194.62 145.97 194.64 146C194.85 146.28 194.96 152.66 194.55 152.99C193.97 153.45 190.47 153.43 189.77 153.16C189.16 152.92 188.68 151.38 188.64 150.81C188.71 150.11 189.24 149.95 189.6 150.57V150.56Z" fill="#B4ADAA"/>
<path d="M194.88 139.28C195.03 139.37 195.73 142.64 195 142.64H189.12C188.95 142.64 189.07 139.68 188.88 139.28C189.81 139.48 194.46 139.02 194.88 139.28Z" fill="#6B9645"/>
<path d="M187.92 117.44C191.42 117.35 193.97 115.91 192.84 120.8C192.55 117.95 191.32 118.34 188.88 118.4V121.88C188.88 121.94 188.65 123.03 188.4 122.96C188.63 122.4 187.92 121.41 187.92 121.16V117.44Z" fill="#AFAAA6"/>
<path d="M190.8 146.12C190.95 145.71 192.03 145.43 192.48 145.52C192.52 146.27 192.96 150.57 192.72 150.8C192.63 150.89 191.15 150.74 190.8 150.8C190.8 149.95 190.63 146.58 190.8 146.12Z" fill="#645F5C"/>
<path d="M193.44 125.6C193.77 129.26 194.02 132.75 193.92 136.4C193.44 136.48 193.3 136.21 193.2 135.8C192.73 133.84 192.91 128.11 192.96 125.84C193.07 125.43 193.15 125.19 193.44 125.6Z" fill="#A7A4A1"/>
<path d="M193.92 143.6C195.54 145.23 188.94 146.02 190.44 143.6C190.96 143.69 193.8 143.48 193.92 143.6Z" fill="#688949"/>
<path d="M188.64 130.88C188.61 131.44 189.75 137.14 189 137.11C187.8 135.18 188.9 132.96 188.64 130.88Z" fill="#A49F9D"/>
<path d="M189.6 150.56L188.64 150.8C188.55 149.55 189.19 147.43 188.88 146C189.51 147.35 189.19 149.2 189.6 150.56Z" fill="#4E4845"/>
<path d="M190.32 138.08C190.18 137.01 193.66 137.06 193.68 138.08H190.32Z" fill="#606D53"/>
<path d="M193.44 125.6L192.96 125.84C192.98 124.96 192.94 124.08 192.96 123.2C193.79 123.61 193.34 124.86 193.44 125.6Z" fill="#85827F"/>
<path d="M188.88 130.64C188.32 130.07 188.79 128.74 188.65 128C189.21 128.55 188.74 129.9 188.88 130.64Z" fill="#A9A6A3"/>
<path d="M46.25 89.18C51.73 87.52 49.09 97.15 48.97 99.57C48.75 103.82 48.55 124.73 46.81 126.93C42.25 132.66 42.92 118.82 42.96 117.32C43.14 109.96 43.62 100.87 44.41 93.58C44.54 92.36 44.83 89.62 46.26 89.19L46.25 89.18Z" fill="#363634"/>
<path d="M42.0401 144.76C41.6601 144.15 42.5401 141.61 42.2401 140.72C45.1701 140.58 47.9201 139.39 47.0301 143.7C46.6001 145.77 42.2601 145.1 42.0401 144.76Z" fill="#47433E"/>
<path d="M46.7401 67.81C49.1801 67.6 49.9701 71.51 47.3801 71.83C44.4601 72.2 44.3701 68.01 46.7401 67.81Z" fill="#F9F6EF"/>
<path d="M67.44 73.76C67.52 74.2 67.31 74.61 66.81 75.01C65.09 78.46 64.25 82.25 64.27 86.38C64.21 98.5 63.77 110.75 62.96 123.12C62.38 131.07 62.43 138.86 63.11 146.49C63.28 146.84 65.25 149.39 65.51 149.61L64.79 150.33C62.28 146.94 61.36 147.73 60.94 142.54C59.68 126.98 61.95 106.1 62.88 90.22C63.22 84.43 61.78 78.56 65.99 73.77C66.14 73.6 66.76 73.47 66.95 73.29L67.43 73.77L67.44 73.76Z" fill="#080201"/>
<path d="M66.24 152.96C67.31 152.72 67.2 153.3 67.68 153.92C66.04 154.17 66.56 153.51 66.24 152.96Z" fill="#937E70"/>
<path d="M72 73.76H72.24C72.77 73.99 72.69 74.31 72 74.72L72.06 75.57C69.53 81.56 68.41 87.94 68.69 94.71C68.82 106.79 68.4 118.92 67.45 131.13C67.05 134.82 67.26 138.27 68.09 141.49C69.14 142.85 69.75 144.28 69.9 145.79C70.11 146.22 75.65 148.15 76.27 148.16C96.01 148.34 116.36 148.43 135.64 148.01C140.97 147.34 144.14 144.92 144.9 139.32C144.44 126.37 144.47 113.42 145 100.45C145.1 94.45 144.91 88.35 144.33 82.47C144.1 80.15 142.75 77.07 141.67 75.03L141.84 74.48C141.32 74.03 141.74 73.65 142.32 74C143.13 74.77 144.45 75.76 145.06 76.66C147.67 80.54 146.52 95.56 146.63 100.77C146.82 110.18 148.99 136.53 146.04 144.07C145.5 145.46 144.57 146.32 144.01 147.44C142.49 147.67 141.88 148.95 140.48 149.55C139.46 149.98 135.87 150.7 134.79 150.77C117.51 151.95 98.49 149.26 81.01 150.81C73.36 151.08 66.14 148.2 65.3 139.76L64.93 139.21C64.54 135.13 64.53 131.01 64.9 126.85C65.97 116.34 66.31 105.77 66.19 95.11C66.02 91.38 66.36 87.78 67.23 84.31L66.8 83.8C66.69 82.21 67.35 78.58 68.05 77.13C68.75 75.68 70.38 73.41 72.04 73.75L72 73.76Z" fill="#0B0301"/>
<path d="M68.88 73.28C69.55 73.18 72.31 73.03 72 73.76C67.52 76.08 67.63 79.99 67.2 84.32C65.68 90.88 65.03 97.84 65.25 105.21C65.2 116.66 64.87 128.08 64.25 139.49L63.84 140.96C63.73 142.71 63.78 144.96 63.12 146.48C61.91 143.98 62.15 138.24 62.15 135.31C62.15 124.45 63.18 113.11 63.61 102.21C63.83 96.63 62.51 76.78 67.44 73.76C67.8 73.54 68.46 73.34 68.88 73.28Z" fill="#C3B7AC"/>
<path d="M65.28 139.76C64.33 139.6 64.36 140.44 63.84 140.96C64.83 125.14 64.28 109.12 65.27 93.31C65.42 90.88 65.83 87.5 66.5 85.18C66.63 84.72 66.74 84.5 67.2 84.32C66.3 93.32 66.79 102.33 66.49 111.33C66.19 120.29 64.41 130.98 65.28 139.76Z" fill="#825D43"/>
<path d="M142.32 73.76V74L141.84 74.48C141.47 74.71 140.97 74.61 140.35 74.19C139.55 74.06 139.01 73.75 138.72 73.28L136.9 72.88L118.97 73.18C106.92 72.66 94.91 72.45 82.86 72.55C79.85 72.58 76.25 72.8 73.68 74C73.76 74.71 72.49 75.34 72 74.72C72.13 74.5 72.11 73.97 72.24 73.76C73.74 71.36 80.02 71.46 82.69 71.34C98.12 70.68 118.24 70.43 133.57 71.34C135.39 71.45 138.37 71.69 140.04 72.31C140.63 72.53 141.32 73.68 142.32 73.75V73.76Z" fill="#130101"/>
<path d="M71.52 68.96C71.32 70.01 69.42 69.79 68.51 70.39C66.82 71.52 68.02 72.43 64.67 72.79C61.78 73.1 54.94 73.86 57.02 69.18L71.52 68.96Z" fill="#905A36"/>
<path d="M194.4 140C194.34 140.36 194.49 141.84 194.4 141.92C194.14 142.18 188.79 142.53 190.08 140H194.4Z" fill="#67AA25"/>
<path d="M138.72 73.28C139.53 73.32 141.34 73.95 141.84 74.48C143.12 75.85 144.8 81.5 144.97 83.47C146.48 101.42 144.12 121.21 145.38 139.33C143.75 150.51 133.7 148.46 124.93 148.64C108.71 148.97 92.43 148.37 76.2101 148.62C75.0501 148.15 69.9601 147 69.4801 145.99C69.2301 145.48 69.5001 144.77 69.2401 144.31C67.2601 140.96 67.0801 141.5 66.9601 136.99C66.7201 128.12 67.8601 118.62 68.1801 109.87C68.5401 99.76 66.86 83.06 72.01 74.7C72.57 74.57 73.18 74.12 73.69 73.98C76.42 72.96 79.3401 72.48 82.4501 72.55C94.7101 72.37 106.96 72.58 119.19 73.16L136.55 72.87L138.73 73.26L138.72 73.28Z" fill="#D17C4A"/>
<path d="M138.72 73.28C131.98 72.94 124.54 73.63 117.71 73.53C106.49 73.37 83.5701 71.19 73.6801 74C74.7701 72.71 77.6601 72.65 79.3101 72.55C98.1401 71.35 118 73.69 136.93 72.55L138.72 73.28Z" fill="#BB8268"/>
<path d="M88.0801 90.56C88.1301 89.74 90.8201 89.2 91.3701 89.2C92.2601 89.2 92.1401 90.06 93.0101 90.07C94.0301 90.07 94.5701 89.47 96.0601 89.67C98.4501 89.99 99.2301 91.65 100.02 93.63C101.56 97.48 100.54 97.44 100.31 101.01C100.25 101.96 101.3 106 99.7301 105.7C99.5201 105.66 99.4101 104.85 99.1201 104.97C98.2901 105.31 96.9801 109.08 95.4101 109.3C94.7301 109.4 87.9801 108.94 87.2501 108.79C85.1101 108.36 85.8001 105.87 85.2701 104.29C84.9701 103.38 83.9201 102.51 83.7701 101.72C83.5901 100.81 84.0201 99.68 83.9201 99.12C83.7501 98.13 82.8001 97.76 83.0201 95.97C83.1201 95.13 86.9201 90.73 87.5901 90.57L88.0501 90.92L87.7601 94C89.7401 94.54 88.3301 96.54 87.3501 95.12C88.0401 95.24 87.9801 98.31 87.8301 98.86L87.3501 99.2C87.6601 98.42 90.4501 98.46 90.8301 99.2L90.5701 98.82C90.7801 97.78 90.8001 96.69 90.7801 95.63C89.4901 95.61 89.4001 94.29 90.6901 94.17C91.1501 93.89 91.0001 91.18 90.8201 91.07C89.6601 91.21 88.7401 91.05 88.0801 90.57V90.56Z" fill="#C5904A"/>
<path d="M85.2 119.6C90.6 117.86 88.36 121.83 89.39 122.73C90.23 123.46 91.25 122.34 92.38 123.1C93.6 123.92 94.16 125.71 94.48 127.05L120 126.8C120.08 125.59 119.53 124.11 121.2 123.92L121.7 124.12L121.63 127.5L124.12 127.69L124.32 128.24C123.4 129.13 122.05 129.27 121.7 129.82C120.59 131.6 123.33 133.33 119.34 133.94C114.49 134.68 100.34 134.6 95.4 134C90.74 133.43 92.72 129.88 91.93 129.31C91.52 129.01 88.42 129.07 87.82 128.14C86.9 126.73 88.75 123.76 84.96 123.92C85 123.72 85.11 123.49 85.29 123.48C86.18 123.4 87.09 123.37 87.99 123.35C88.09 123.19 87.93 120.37 87.76 120.28C87.36 120.32 85.39 120.45 85.29 120.21C85.2 120.01 85.13 119.83 85.21 119.6H85.2Z" fill="#C3904B"/>
<path d="M120.72 107.84C118.87 108.08 117.95 110.82 115.22 108.66C114.01 107.71 114.82 105.76 114.37 104.95C113.83 103.99 112.01 105.33 112.07 101.24C112.09 99.8 112.78 98.89 112.79 98.09C112.8 97.17 111.71 96.36 112.12 95.28C112.36 94.63 114.29 94.35 114.6 93.68C115.47 91.78 113.14 89.62 117.96 89.82C119.5 89.89 119.07 90.77 120.48 90.8L120.96 91.01L121.17 102.34C121.37 102.98 123.46 102.82 124.06 102.77L123.83 91.1L124.3 90.81C126.2 91.5 124.9 94.12 124.91 95.48C124.93 97.92 125.77 106.72 124.78 108.38C124.33 109.15 121.11 109.84 120.7 107.84C121.013 107.387 121.013 107.387 120.7 107.84H120.72Z" fill="#C2934C"/>
<path d="M124.32 90.8L124.56 103.28C123.58 103.19 121.04 103.66 120.72 102.44L120.48 90.8C121.77 90.83 122.69 90.21 124.32 90.8Z" fill="#C2A658"/>
<path d="M88.08 90.56C89.12 90.43 90.37 90.65 91.44 90.56C91.23 91.76 92.13 95.03 90.24 94.64C90.06 95.54 91.04 94.94 91.2 95.12C91.34 95.27 91.3 99.2 90.84 99.2H87.36V95.12C87.36 95.12 88.16 95.16 88.32 95.12C88.5 94.22 87.52 94.82 87.36 94.64C87.11 94.37 87.59 91.22 87.6 90.56C87.74 90.53 87.92 90.58 88.08 90.56Z" fill="#C2A659"/>
<path d="M121.2 123.92C122.4 123.78 123.81 124.02 125.04 123.92C124.81 126.1 125.92 126.71 124.32 128.24C123.78 127.98 121.31 128.11 121.2 128C121.05 127.86 121.31 124.52 121.2 123.92Z" fill="#C5A75B"/>
<path d="M85.2 119.6C85.67 120.17 88.12 119.64 88.32 119.84C88.46 119.99 88.37 123.32 88.56 123.92C87.54 123.62 85.81 124.09 84.96 123.92C84.82 123.89 84.63 123.95 84.48 123.92V119.74C84.55 119.43 85 119.67 85.2 119.6Z" fill="#C4A75D"/>
<path d="M125.52 123.92C125.68 123.42 125.59 120.06 125.76 119.95C125.92 119.85 129.29 119.78 129.5 120.06C129.71 120.34 129.72 123.33 129.38 123.57C129.19 123.71 125.66 124.05 125.52 123.92Z" fill="#C6A65D"/>
<path d="M96.7201 90.56C96.8501 90.69 96.7001 93.72 96.7201 94.27C96.7201 94.64 96.2501 94.96 96.2501 95C96.2501 95.21 96.7601 94.98 96.7501 95.46C96.7201 99.59 96.3201 103.71 96.4901 107.84H92.6501V104.36C92.6501 103.21 95.2601 104.08 96.0101 103.64L92.6801 102.89C92.8901 101.92 92.2701 90.56 92.8901 90.56C93.4301 90.56 96.5901 90.42 96.7301 90.56H96.7201Z" fill="#C2A658"/>
<path d="M90.92 103.56C91.85 107.33 91.27 109.14 87.11 107.73C87.29 103.83 86.52 103.53 90.92 103.56Z" fill="#C2A659"/>
<path d="M91.2 99.44V103.28H87.36C87.17 103.28 87.03 99.94 87.36 99.44H91.2Z" fill="#C2A659"/>
<path d="M112.08 129.44C112.42 127.43 115.92 128.25 115.92 128.48V132.08C117.52 131.95 115.94 128.83 116.88 128.36C117.29 128.07 120.72 128.28 120.72 128.48V132.32C120.72 132.73 114.33 132.44 113.76 132.08L113.97 131.57C116.72 130.86 114.39 128.79 112.54 129.76L112.08 129.45V129.44Z" fill="#C2A65A"/>
<path d="M103.2 132.32C100.15 132.43 96.78 133.34 97.92 129.08C98.25 127.84 100.93 128.13 101.9 128.45L102.36 132.07C103.01 132.13 102.69 130.8 102.72 130.39C103.76 129.69 104.16 132.04 103.2 132.31V132.32Z" fill="#C3A75A"/>
<path d="M96.96 128.24V132.2C93.61 133.6 92.32 131.79 92.88 128.48L96.96 128.24Z" fill="#C2A75A"/>
<path d="M111.6 128.48V132.08C111.6 132.29 107.98 132.43 107.52 132.56V128.48C107.52 128.23 111.08 128.09 111.6 128.48Z" fill="#C2A859"/>
<path d="M92.64 128C92.5 128.13 89.3 128.26 88.8 128V124.52C88.8 123.76 92.64 123.68 92.64 124.04C92.53 124.62 92.78 127.86 92.64 128Z" fill="#C4A55A"/>
<path d="M102.72 130.4C102.74 130.12 102.62 128.48 102.72 128.48H106.8V132.08C106.8 132.37 103.61 132.31 103.2 132.32C103.16 131.66 103.46 130.69 102.72 130.4Z" fill="#C6A75B"/>
<path d="M112.08 129.44C115.44 127.77 117.4 131.7 113.76 132.08C111.86 132.28 111.78 131.22 112.08 129.44Z" fill="#C1A85A"/>
<path d="M114.96 107.84C115.75 107.13 114.97 104.17 115.46 103.78C115.8 103.5 118 104.18 118.56 103.4C118.04 103.04 115.97 103.48 115.7 103.27C115.43 103.06 115.21 96.88 115.19 95.95C115.18 95.16 115.69 94.83 115.69 94.76C115.69 94.55 115.18 94.78 115.19 94.3C115.19 93.92 115.03 90.56 115.21 90.56H118.69C119.03 91.8 119.55 107.84 118.69 107.84H114.97H114.96Z" fill="#C2A658"/>
<path d="M120.72 107.84C120.08 104.71 120.54 102.97 124.1 103.86C124.97 109.06 124.16 107.39 120.72 107.84Z" fill="#C3A75A"/>
</g>
<defs>
<clipPath id="clip0_8122_9376">
<rect width="180.18" height="127.81" fill="white" transform="translate(30 56)"/>
</clipPath>
</defs>
</svg>
