<svg width="32" height="32" viewBox="0 0 32 32" fill="none" xmlns="http://www.w3.org/2000/svg">
<path fill-rule="evenodd" clip-rule="evenodd" d="M32 15.9999C32 13.9059 31.5834 11.8118 30.7821 9.87706C29.9805 7.94234 28.7942 6.16698 27.3136 4.68634C25.833 3.20538 24.0576 2.01946 22.1229 1.21786C20.1882 0.416579 18.0941 -6.10352e-05 16 -6.10352e-05C13.9059 -6.10352e-05 11.8115 0.416579 9.8768 1.21786C7.94208 2.01946 6.16704 3.20538 4.68608 4.68634C3.20544 6.16698 2.0192 7.94234 1.21792 9.87706C0.41632 11.8118 0 13.9059 0 15.9999C0 18.094 0.41632 20.1881 1.21792 22.1228C2.0192 24.0575 3.20544 25.8329 4.68608 27.3139C6.16704 28.7945 7.94208 29.9807 9.8768 30.782C11.8115 31.5833 13.9059 31.9999 16 31.9999C18.0941 31.9999 20.1882 31.5833 22.1229 30.782C24.0576 29.9807 25.833 28.7945 27.3136 27.3139C28.7942 25.8329 29.9805 24.0575 30.7821 22.1228C31.5834 20.1881 32 18.094 32 15.9999Z" fill="white"/>
<path fill-rule="evenodd" clip-rule="evenodd" d="M11.8547 3.38361C13.3453 2.89369 14.9382 2.66969 16.5161 2.73017C18.0944 2.79065 19.6579 3.13593 21.1129 3.74393C22.5683 4.35193 23.9152 5.22297 25.0675 6.29753C26.5917 7.71929 27.775 9.49753 28.4848 11.4867C29.1949 13.4761 29.4314 15.6764 29.1574 17.7711C28.8838 19.8659 28.0998 21.8553 26.9139 23.566C25.728 25.2767 24.1398 26.7084 22.2745 27.7004C20.4093 28.6921 18.2662 29.2438 16.1539 29.2758C14.0416 29.3078 11.9597 28.8204 10.095 27.895C8.23071 26.9695 6.58335 25.6063 5.33247 23.9036C4.08159 22.2009 3.22719 20.1587 2.88799 18.0748C2.54879 15.9907 2.72479 13.8646 3.37471 11.8812C3.86591 10.3817 4.62815 8.96409 5.60479 7.73561H4.12031V5.28185H9.93695V10.7135H7.48319V9.22937C6.68319 10.2355 6.05855 11.3967 5.65631 12.6255C5.12415 14.2511 4.98079 15.9951 5.25631 17.6969C5.59871 19.8137 6.58879 21.8649 8.06655 23.4457C9.83423 25.3363 12.2995 26.5542 14.8659 26.8207C17.432 27.0873 20.0992 26.4028 22.2173 24.9286C24.3354 23.4543 25.905 21.1903 26.5421 18.6899C27.1792 16.1894 26.8838 13.4524 25.735 11.142C24.5862 8.83161 22.5837 6.94841 20.1891 5.95897C17.7945 4.96921 15.0077 4.87385 12.6038 5.66361L11.8547 3.38361Z" fill="#0657F9"/>
<path fill-rule="evenodd" clip-rule="evenodd" d="M14.1041 22.9537C14.1041 23.203 13.9307 23.286 13.6791 23.286C10.5297 22.278 8.32001 19.4146 8.32001 16.047C8.32001 12.6795 10.5297 9.81608 13.6791 8.80807C13.9315 8.72725 14.1041 8.89111 14.1041 9.14609C14.1041 9.34167 14.1041 9.53746 14.1041 9.73304C14.1041 9.90478 14.0147 10.0709 13.8468 10.1539C11.3798 11.0789 9.67931 13.3554 9.67931 16.047C9.67931 18.7444 11.4639 21.0982 13.8468 21.9402C14.0147 22.0232 14.1041 22.195 14.1041 22.361C14.1041 22.5587 14.1041 22.7563 14.1041 22.9537Z" fill="black"/>
<path fill-rule="evenodd" clip-rule="evenodd" d="M16.655 20.8491C16.655 21.0152 16.4815 21.1813 16.3138 21.1813C16.0862 21.1813 15.8589 21.1813 15.6314 21.1813C15.4636 21.1813 15.2902 21.0152 15.2902 20.8491C15.2902 20.5113 15.2902 20.1733 15.2902 19.8355C13.9307 19.6694 13.254 18.9105 12.9966 17.814C12.9966 17.6477 13.0805 17.4816 13.254 17.4816C13.5074 17.4816 13.7611 17.4816 14.0147 17.4816C14.1882 17.4816 14.2721 17.5646 14.3559 17.7307C14.5294 18.3235 14.8649 18.8274 15.9726 18.8274C16.8229 18.8274 17.4157 18.4066 17.4157 17.7307C17.4157 17.0607 17.0803 16.8059 15.8887 16.6397C14.1033 16.3907 13.254 15.881 13.254 14.4464C13.254 13.3554 14.1041 12.5134 15.2902 12.3417C15.2902 12.0057 15.2902 11.6697 15.2902 11.3337C15.2902 11.1676 15.4636 10.9958 15.6314 10.9958C15.8589 10.9958 16.0862 10.9958 16.3138 10.9958C16.4815 10.9958 16.655 11.1676 16.655 11.3337C16.655 11.6697 16.655 12.0057 16.655 12.3417C17.6731 12.5134 18.3557 13.1006 18.5234 14.0256C18.5234 14.1973 18.4396 14.3634 18.2661 14.3634C18.0404 14.3634 17.8149 14.3634 17.5892 14.3634C17.4157 14.3634 17.3319 14.2803 17.248 14.1141C17.0803 13.5215 16.655 13.2723 15.8887 13.2723C15.0383 13.2723 14.6133 13.6932 14.6133 14.2803C14.6133 14.8673 14.8649 15.2051 16.1403 15.3769C17.9316 15.6181 18.7808 16.1301 18.7808 17.5646C18.7808 18.6557 17.9304 19.5863 16.655 19.8355V20.8491Z" fill="black"/>
<path fill-rule="evenodd" clip-rule="evenodd" d="M18.2661 23.286C18.0145 23.3747 17.841 23.203 17.841 22.9536C17.841 22.7562 17.841 22.5586 17.841 22.361C17.841 22.195 17.9304 22.0232 18.0984 21.9402C20.5653 21.0152 22.2659 18.7444 22.2659 16.047C22.2659 13.3554 20.4813 10.9958 18.0984 10.1539C17.9304 10.0709 17.841 9.90478 17.841 9.73304C17.841 9.53745 17.841 9.34167 17.841 9.14609C17.841 8.8911 18.0145 8.80806 18.2661 8.80806C21.3316 9.81608 23.6252 12.6795 23.6252 16.047C23.6252 19.4146 21.4155 22.278 18.2661 23.286Z" fill="black"/>
</svg>
