<svg width="32" height="32" viewBox="0 0 32 32" fill="none" xmlns="http://www.w3.org/2000/svg">
<path fill-rule="evenodd" clip-rule="evenodd" d="M32 15.9999C32 13.9058 31.5834 11.8117 30.7821 9.877C29.9805 7.94228 28.7942 6.16692 27.3136 4.68628C25.833 3.20532 24.0576 2.0194 22.1229 1.2178C20.1882 0.416518 18.0941 -0.00012207 16 -0.00012207C13.9059 -0.00012207 11.8115 0.416518 9.8768 1.2178C7.94208 2.0194 6.16704 3.20532 4.68608 4.68628C3.20544 6.16692 2.0192 7.94228 1.21792 9.877C0.41632 11.8117 0 13.9058 0 15.9999C0 18.094 0.41632 20.188 1.21792 22.1228C2.0192 24.0575 3.20544 25.8328 4.68608 27.3138C6.16704 28.7944 7.94208 29.9807 9.8768 30.782C11.8115 31.5832 13.9059 31.9999 16 31.9999C18.0941 31.9999 20.1882 31.5832 22.1229 30.782C24.0576 29.9807 25.833 28.7944 27.3136 27.3138C28.7942 25.8328 29.9805 24.0575 30.7821 22.1228C31.5834 20.188 32 18.094 32 15.9999Z" fill="white"/>
<path fill-rule="evenodd" clip-rule="evenodd" d="M11.8547 3.38356C13.3453 2.89364 14.9382 2.66964 16.5161 2.73012C18.0944 2.7906 19.6579 3.13588 21.1129 3.74388C22.5683 4.35188 23.9152 5.22292 25.0675 6.29748C26.5917 7.71924 27.775 9.49748 28.4848 11.4866C29.1949 13.476 29.4314 15.6764 29.1574 17.7711C28.8838 19.8658 28.0998 21.8552 26.9139 23.566C25.728 25.2767 24.1398 26.7084 22.2745 27.7004C20.4093 28.692 18.2662 29.2437 16.1539 29.2757C14.0416 29.3077 11.9597 28.8204 10.095 27.8949C8.23071 26.9695 6.58335 25.6063 5.33247 23.9036C4.08159 22.2008 3.22719 20.1586 2.88799 18.0748C2.54879 15.9906 2.72479 13.8645 3.37471 11.8812C3.86591 10.3816 4.62815 8.96404 5.60479 7.73556H4.12031V5.2818H9.93695V10.7135H7.48319V9.22932C6.68319 10.2354 6.05855 11.3967 5.65631 12.6255C5.12415 14.2511 4.98079 15.9951 5.25631 17.6968C5.59871 19.8136 6.58879 21.8648 8.06655 23.4456C9.83423 25.3362 12.2995 26.5541 14.8659 26.8207C17.432 27.0872 20.0992 26.4028 22.2173 24.9285C24.3353 23.4543 25.905 21.1903 26.5421 18.6898C27.1792 16.1893 26.8838 13.4524 25.735 11.142C24.5862 8.83156 22.5837 6.94836 20.1891 5.95892C17.7945 4.96916 15.0077 4.8738 12.6038 5.66356L11.8547 3.38356Z" fill="url(#paint0_linear_715_12295)"/>
<path fill-rule="evenodd" clip-rule="evenodd" d="M24 16C24 11.5858 20.4142 8 16 8C11.5858 8 8 11.5858 8 16C8 20.4142 11.5858 24 16 24C20.4142 24 24 20.4142 24 16Z" fill="black"/>
<path fill-rule="evenodd" clip-rule="evenodd" d="M17.7607 8.19617C18.8231 8.43585 19.8253 8.89009 20.706 9.53073C19.2306 9.71809 18.3181 10.0278 17.4754 10.4782C16.4884 11.0058 15.597 11.7264 15.0473 12.707C15.0007 12.7901 14.9565 12.875 14.9149 12.9616H22.2522L21.4284 14.841H14.3954C14.349 15.2587 14.3413 15.6822 14.3698 16.0966C14.3903 16.3947 14.4295 16.6878 14.4873 16.9739H20.4933L19.6695 18.8533H15.2106C15.2897 18.9822 15.374 19.1072 15.4637 19.2277C16.1082 20.0933 17.0284 20.7275 18.0789 21.1405C18.9642 21.4885 19.9421 21.6792 21.5029 21.8067C20.8012 22.4717 19.9847 23.004 19.093 23.3778C17.1879 23.1013 15.9929 22.5955 15.0146 21.8952C13.9285 21.1173 13.1097 20.0992 12.6212 18.8533H9.90918L10.733 16.9739H12.1522C12.062 16.2702 12.0529 15.5446 12.1213 14.841H9.90918L10.733 12.9616H12.5154C12.8506 11.9752 13.394 11.0738 14.2162 10.2515C15.0105 9.45745 16.0649 8.73713 17.7607 8.19617Z" fill="white"/>
<defs>
<linearGradient id="paint0_linear_715_12295" x1="2.04341" y1="13.297" x2="15.2222" y2="29.5763" gradientUnits="userSpaceOnUse">
<stop stop-color="#004CFF"/>
<stop offset="0.252131" stop-color="#00E0FB"/>
<stop offset="0.505709" stop-color="#87FF70"/>
<stop offset="0.755054" stop-color="#F8F500"/>
<stop offset="1" stop-color="#FF1A00"/>
</linearGradient>
</defs>
</svg>
