<svg width="32" height="32" viewBox="0 0 32 32" fill="none" xmlns="http://www.w3.org/2000/svg">
<path d="M0 16C0 7.16344 7.16344 0 16 0V0C24.8366 0 32 7.16344 32 16V16C32 24.8366 24.8366 32 16 32V32C7.16344 32 0 24.8366 0 16V16Z" fill="white"/>
<path d="M28 16C28 22.6274 22.6274 28 16 28C9.37258 28 4 22.6274 4 16C4 9.37258 9.37258 4 16 4C22.6274 4 28 9.37258 28 16Z" fill="white"/>
<path fill-rule="evenodd" clip-rule="evenodd" d="M10.9951 8.71201L10.0509 9.67404L12.3548 12.021L14.6588 14.3681V16.5528V18.7375H16.0013H17.3439V16.5528V14.3681L19.6423 12.0267L21.9406 9.68542L20.9905 8.7184L20.0405 7.75139L18.0333 9.79056C16.9294 10.9121 16.0152 11.8297 16.0019 11.8297C15.9885 11.8297 15.073 10.9118 13.9676 9.78987C12.8621 8.66794 11.9535 7.75 11.9484 7.75C11.9434 7.75 11.5144 8.18292 10.9951 8.71201ZM9.93066 14.3506C9.63018 14.9969 9.45614 15.5538 9.34407 16.2277C9.02365 18.1545 9.53012 20.1387 10.7361 21.6814C10.9351 21.9359 11.5206 22.5321 11.7688 22.7329C12.8859 23.6367 14.1577 24.1375 15.5843 24.2351C16.4377 24.2936 17.2909 24.1796 18.129 23.8953C20.5515 23.0734 22.3005 20.952 22.6787 18.3769C22.8243 17.386 22.7457 16.326 22.4543 15.3485C22.3384 14.9598 22.1036 14.3775 21.9809 14.1744L21.934 14.0967L20.9125 15.1364C20.0885 15.975 19.8935 16.185 19.9039 16.2224C19.9882 16.523 20.0329 16.8355 20.0449 17.2076C20.0682 17.9285 19.9562 18.5113 19.6775 19.1199C19.1357 20.3032 18.0787 21.1476 16.7864 21.4297C16.562 21.4787 16.4796 21.4842 15.99 21.4835C15.5095 21.4828 15.4151 21.4764 15.2049 21.4301C13.9236 21.1481 12.9159 20.3497 12.3474 19.1663C12.0905 18.6314 11.9742 18.1365 11.9566 17.5032C11.9439 17.0453 11.9687 16.7683 12.0547 16.4079L12.11 16.1761L11.0919 15.1388C10.5319 14.5682 10.0676 14.1014 10.0601 14.1014C10.0526 14.1014 9.99438 14.2135 9.93066 14.3506Z" fill="black"/>
<path fill-rule="evenodd" clip-rule="evenodd" d="M11.8545 3.38356C13.345 2.89364 14.938 2.66964 16.5159 2.73012C18.0941 2.7906 19.6577 3.13588 21.1127 3.74388C22.5681 4.35188 23.9149 5.22292 25.0673 6.29748C26.5914 7.71924 27.7748 9.49748 28.4845 11.4866C29.1946 13.476 29.4311 15.6764 29.1572 17.7711C28.8836 19.8658 28.0996 21.8552 26.9137 23.566C25.7277 25.2767 24.1396 26.7084 22.2743 27.7004C20.409 28.692 18.266 29.2437 16.1537 29.2757C14.0413 29.3077 11.9594 28.8204 10.0948 27.8949C8.23047 26.9695 6.58311 25.6063 5.33223 23.9036C4.08135 22.2008 3.22695 20.1586 2.88775 18.0748C2.54855 15.9906 2.72455 13.8645 3.37447 11.8812C3.86567 10.3816 4.62791 8.96404 5.60455 7.73556H4.12007V5.2818H9.93671V10.7135H7.48295V9.22932C6.68295 10.2354 6.05831 11.3967 5.65607 12.6255C5.12391 14.2511 4.98055 15.9951 5.25607 17.6968C5.59847 19.8136 6.58855 21.8648 8.06631 23.4456C9.83399 25.3362 12.2993 26.5541 14.8657 26.8207C17.4317 27.0872 20.0989 26.4028 22.217 24.9285C24.3351 23.4543 25.9047 21.1903 26.5418 18.6898C27.1789 16.1893 26.8836 13.4524 25.7348 11.142C24.586 8.83156 22.5834 6.94836 20.1889 5.95892C17.7943 4.96916 15.0074 4.8738 12.6036 5.66356L11.8545 3.38356Z" fill="url(#paint0_linear_650_248485)"/>
<defs>
<linearGradient id="paint0_linear_650_248485" x1="2.04317" y1="13.297" x2="15.2219" y2="29.5763" gradientUnits="userSpaceOnUse">
<stop stop-color="#004CFF"/>
<stop offset="0.252131" stop-color="#00E0FB"/>
<stop offset="0.505709" stop-color="#87FF70"/>
<stop offset="0.755054" stop-color="#F8F500"/>
<stop offset="1" stop-color="#FF1A00"/>
</linearGradient>
</defs>
</svg>
