<svg width="32" height="31" viewBox="0 0 32 31" fill="none" xmlns="http://www.w3.org/2000/svg">
<path fill-rule="evenodd" clip-rule="evenodd" d="M24.3996 3.20191L9.12474 8.94911C6.99002 7.95199 5.8089 6.18463 6.01882 4.17215L7.97082 2.09119C11.1881 0.302392 13.8047 -0.114249 16.3465 0.0246314C18.8886 0.163511 21.3555 0.857911 24.3996 3.20191Z" fill="#0E3CA5"/>
<path fill-rule="evenodd" clip-rule="evenodd" d="M1.54303 7.92127C3.23391 4.58239 5.14751 3.07167 6.45311 2.22303C7.75871 1.37439 8.45599 1.18751 9.08479 1.14879C9.71359 1.11007 10.2742 1.21951 10.5952 1.47679C10.9165 1.73439 10.9987 2.13983 10.96 2.54335C10.9213 2.94655 10.7616 3.34751 10.4016 3.79871C10.0416 4.24959 9.48127 4.75103 8.77503 5.23391C8.06847 5.71711 7.21631 6.18175 6.07263 6.72191C4.92895 7.26175 3.49343 7.87711 1.54303 7.92127Z" fill="#5493F7"/>
<path fill-rule="evenodd" clip-rule="evenodd" d="M10.6646 28.9987L7.82877 19.1546C5.62365 14.9235 3.01437 11.6019 0.940768 9.27455C-0.683232 13.9933 0.0111676 17.5712 1.39293 20.615C2.77437 23.6589 4.84381 26.1686 10.6646 28.9987Z" fill="#5493F7"/>
<path fill-rule="evenodd" clip-rule="evenodd" d="M29.806 14.3014L11.7273 15.151C9.62045 13.9213 8.98653 13.2406 8.53661 12.407C8.08669 11.5737 7.82045 10.5875 8.08957 9.58271C8.35869 8.57791 9.16253 7.55423 10.2035 6.66975C11.2441 5.78559 12.5219 5.04063 13.9037 4.44159C15.2851 3.84223 16.7712 3.38911 18.0925 3.06815C19.4137 2.74751 20.5702 2.55935 21.5046 2.52159C22.439 2.48415 23.1507 2.59679 23.7273 2.83167C24.3037 3.06655 24.7449 3.42335 25.3385 4.05247C25.9321 4.68191 26.6784 5.58303 27.4838 6.85887C28.2889 8.13439 29.1532 9.78399 29.806 14.3014Z" fill="#5493F7"/>
<path fill-rule="evenodd" clip-rule="evenodd" d="M31.3229 11.1827C31.4086 11.2003 31.4969 11.2246 31.5881 11.2557C31.7693 11.3171 31.871 11.4425 31.8937 11.6323C31.9049 11.7267 31.9107 11.8169 31.9107 11.903C31.9107 16.2006 31.9107 19.3917 31.9107 21.8912C31.9107 24.4643 31.9107 26.3049 31.9107 27.3091C31.9107 28.3136 31.9107 28.4813 31.8998 28.6275C31.8893 28.7734 31.8678 28.8973 31.7507 29.0249C31.6336 29.1523 31.4208 29.2832 31.0707 29.4416C30.7209 29.6003 30.2339 29.7862 29.6265 29.9373C29.0192 30.088 28.2915 30.2032 27.4646 30.3091C26.6377 30.415 25.7113 30.511 24.5526 30.6009C23.3939 30.6905 22.0025 30.7737 20.416 30.8333C18.8294 30.8925 17.047 30.9277 15.1926 30.9453C13.3385 30.9629 11.4121 30.9629 10.1878 30.9622C8.96351 30.9613 8.44159 30.9597 8.09951 30.9584C7.75743 30.9571 7.59519 30.9568 7.43167 30.9328C7.26847 30.9085 7.10399 30.8611 6.96223 30.7574C6.82015 30.6541 6.70015 30.495 6.63775 30.3369C6.57503 30.1789 6.56959 30.0217 6.56703 29.0336C6.56415 28.0457 6.56415 26.2265 6.56415 23.9043C6.56415 21.5817 6.56415 18.7561 6.56415 17.1427C6.56415 15.5296 6.56415 15.1289 6.58399 14.855C6.60383 14.5808 6.64351 14.4333 6.71871 14.3043C6.79391 14.175 6.90463 14.0643 7.03039 13.9965C7.15615 13.9283 7.29663 13.903 7.72607 13.8873C8.15551 13.8713 8.87359 13.8649 9.91359 13.8153C10.9539 13.7657 12.3161 13.6726 13.8099 13.5251C15.3033 13.3779 16.9286 13.176 18.5875 12.9369C20.2461 12.6982 21.9385 12.4227 23.5622 12.1469C25.1856 11.8713 26.7401 11.5955 27.8685 11.424C28.9968 11.2525 29.6989 11.1853 30.3536 11.1513C30.7037 11.1334 31.0403 11.1248 31.3229 11.1827Z" fill="#800000"/>
<path fill-rule="evenodd" clip-rule="evenodd" d="M6.56927 29.5248L6.56543 28.2195C10.4192 28.1334 12.2262 28.0086 13.9795 27.8358C15.7328 27.6634 17.4326 27.4426 19.2435 27.1699C21.0541 26.8973 22.9757 26.5728 24.6134 26.2915C26.2512 26.0102 27.6054 25.7725 28.5494 25.6349C29.4937 25.497 30.0278 25.4592 30.4317 25.4483C30.8352 25.4374 31.1081 25.4531 31.3091 25.4906C31.5101 25.5277 31.6393 25.5859 31.7305 25.6515C31.8217 25.7171 31.8752 25.7898 31.9107 25.9923V27.2976C31.8752 27.095 31.8217 27.0224 31.7305 26.9568C31.6393 26.8912 31.5101 26.833 31.3091 26.7958C31.1081 26.7584 30.8352 26.7427 30.4317 26.7536C30.0278 26.7645 29.4937 26.8022 28.5494 26.9402C27.6054 27.0778 26.2512 27.3155 24.6134 27.5968C22.9757 27.8781 21.0541 28.2026 19.2435 28.4752C17.4326 28.7478 15.7328 28.9686 13.9795 29.1411C12.2262 29.3139 10.4192 29.4387 6.56927 29.5248Z" fill="url(#paint0_linear)"/>
<path fill-rule="evenodd" clip-rule="evenodd" d="M6.56541 28.2195L6.56445 26.9142C10.4192 26.8282 12.2262 26.7034 13.9795 26.5306C15.7328 26.3578 17.4326 26.1373 19.2435 25.8646C21.0541 25.592 22.9757 25.2675 24.6134 24.9862C26.2512 24.705 27.6054 24.4672 28.5494 24.3296C29.4937 24.1917 30.0278 24.1539 30.4317 24.143C30.8352 24.1322 31.1081 24.1478 31.3091 24.1853C31.5101 24.2224 31.6393 24.2806 31.7305 24.3462C31.8217 24.4118 31.8752 24.4845 31.9107 24.687V25.9923C31.8752 25.7898 31.8217 25.7171 31.7305 25.6515C31.6393 25.5859 31.5101 25.5277 31.3091 25.4906C31.1081 25.4531 30.8352 25.4374 30.4317 25.4483C30.0278 25.4592 29.4937 25.497 28.5494 25.6349C27.6054 25.7725 26.2512 26.0102 24.6134 26.2915C22.9757 26.5728 21.0541 26.8973 19.2435 27.1699C17.4326 27.4426 15.7328 27.6634 13.9795 27.8358C12.2262 28.0086 10.4192 28.1334 6.56541 28.2195Z" fill="url(#paint1_linear)"/>
<path fill-rule="evenodd" clip-rule="evenodd" d="M6.56447 26.9142L6.56415 25.609C10.4192 25.5229 12.2262 25.3981 13.9795 25.2253C15.7328 25.0525 17.4326 24.832 19.2435 24.5594C21.0541 24.2867 22.9757 23.9622 24.6134 23.681C26.2512 23.3997 27.6054 23.1619 28.5494 23.0243C29.4937 22.8864 30.0278 22.8486 30.4317 22.8378C30.8352 22.8269 31.1081 22.8426 31.3091 22.88C31.5101 22.9171 31.6393 22.9754 31.7305 23.041C31.8217 23.1066 31.8752 23.1792 31.9107 23.3818V24.687C31.8752 24.4845 31.8217 24.4118 31.7305 24.3462C31.6393 24.2806 31.5101 24.2224 31.3091 24.1853C31.1081 24.1478 30.8352 24.1322 30.4317 24.143C30.0278 24.1539 29.4937 24.1917 28.5494 24.3296C27.6054 24.4672 26.2512 24.705 24.6134 24.9862C22.9757 25.2675 21.0541 25.592 19.2435 25.8646C17.4326 26.1373 15.7328 26.3578 13.9795 26.5306C12.2262 26.7034 10.4192 26.8282 6.56447 26.9142Z" fill="url(#paint2_linear)"/>
<path fill-rule="evenodd" clip-rule="evenodd" d="M6.56415 25.6089V24.3037C10.4192 24.2176 12.2262 24.0928 13.9795 23.92C15.7328 23.7472 17.4326 23.5267 19.2435 23.2541C21.0541 22.9814 22.9757 22.6569 24.6134 22.3757C26.2512 22.0944 27.6054 21.8566 28.5494 21.719C29.4937 21.5811 30.0278 21.5433 30.4317 21.5325C30.8352 21.5216 31.1081 21.5373 31.3091 21.5747C31.5101 21.6118 31.6393 21.6701 31.7305 21.7357C31.8217 21.8013 31.8752 21.8739 31.9107 22.0765V23.3817C31.8752 23.1792 31.8217 23.1065 31.7305 23.0409C31.6393 22.9753 31.5101 22.9171 31.3091 22.88C31.1081 22.8425 30.8352 22.8269 30.4317 22.8377C30.0278 22.8486 29.4937 22.8864 28.5494 23.0243C27.6054 23.1619 26.2512 23.3997 24.6134 23.6809C22.9757 23.9622 21.0541 24.2867 19.2435 24.5593C17.4326 24.832 15.7328 25.0525 13.9795 25.2253C12.2262 25.3981 10.4192 25.5229 6.56415 25.6089Z" fill="url(#paint3_linear)"/>
<path fill-rule="evenodd" clip-rule="evenodd" d="M6.56415 24.3037V22.9984C10.4192 22.9123 12.2262 22.7875 13.9795 22.6147C15.7328 22.4419 17.4326 22.2214 19.2435 21.9488C21.0541 21.6761 22.9757 21.3517 24.6134 21.0704C26.2512 20.7891 27.6054 20.5513 28.5494 20.4137C29.4937 20.2758 30.0278 20.2381 30.4317 20.2272C30.8352 20.2163 31.1081 20.232 31.3091 20.2691C31.5101 20.3065 31.6393 20.3648 31.7305 20.4304C31.8217 20.496 31.8752 20.5686 31.9107 20.7712V22.0765C31.8752 21.8739 31.8217 21.8013 31.7305 21.7357C31.6393 21.6701 31.5101 21.6118 31.3091 21.5747C31.1081 21.5373 30.8352 21.5216 30.4317 21.5325C30.0278 21.5433 29.4937 21.5811 28.5494 21.719C27.6054 21.8566 26.2512 22.0944 24.6134 22.3757C22.9757 22.6569 21.0541 22.9814 19.2435 23.2541C17.4326 23.5267 15.7328 23.7472 13.9795 23.92C12.2262 24.0928 10.4192 24.2176 6.56415 24.3037Z" fill="url(#paint4_linear)"/>
<path fill-rule="evenodd" clip-rule="evenodd" d="M31.9107 19.4659V20.7712C31.8752 20.5686 31.8217 20.496 31.7305 20.4304C31.6393 20.3648 31.51 20.3065 31.3091 20.2691C31.1081 20.232 30.8352 20.2163 30.4316 20.2272C30.0278 20.2381 29.4937 20.2758 28.5494 20.4137C27.6054 20.5513 26.2512 20.7891 24.6134 21.0704C22.9756 21.3517 21.054 21.6761 19.2435 21.9488C19.1136 21.9683 18.9846 21.9875 18.856 22.0064V20.7011C18.9846 20.6822 19.1136 20.663 19.2435 20.6435C21.054 20.3709 22.9756 20.0464 24.6134 19.7651C26.2512 19.4838 27.6054 19.2461 28.5494 19.1085C29.4937 18.9705 30.0278 18.9328 30.4316 18.9219C30.8352 18.911 31.1081 18.9267 31.3091 18.9638C31.51 19.0013 31.6393 19.0595 31.7305 19.1251C31.8217 19.1907 31.8752 19.2633 31.9107 19.4659Z" fill="url(#paint5_linear)"/>
<path fill-rule="evenodd" clip-rule="evenodd" d="M31.9107 18.1606V19.4659C31.8752 19.2634 31.8217 19.1907 31.7305 19.1251C31.6393 19.0595 31.51 19.0013 31.3091 18.9638C31.1081 18.9267 30.8352 18.911 30.4316 18.9219C30.0278 18.9328 29.4937 18.9706 28.5494 19.1085C27.6054 19.2461 26.2512 19.4838 24.6134 19.7651C22.9756 20.0464 21.054 20.3709 19.2435 20.6435C19.1136 20.663 18.9846 20.6822 18.856 20.7011V19.3958C18.9846 19.377 19.1136 19.3578 19.2435 19.3382C21.054 19.0656 22.9756 18.7411 24.6134 18.4598C26.2512 18.1786 27.6054 17.9408 28.5494 17.8032C29.4937 17.6653 30.0278 17.6275 30.4316 17.6166C30.8352 17.6058 31.1081 17.6214 31.3091 17.6586C31.51 17.696 31.6393 17.7542 31.7305 17.8198C31.8217 17.8854 31.8752 17.9581 31.9107 18.1606Z" fill="url(#paint6_linear)"/>
<path fill-rule="evenodd" clip-rule="evenodd" d="M31.9107 16.8554V18.1606C31.8752 17.9581 31.8217 17.8854 31.7305 17.8198C31.6393 17.7542 31.51 17.696 31.3091 17.6586C31.1081 17.6214 30.8352 17.6058 30.4316 17.6166C30.0278 17.6275 29.4937 17.6653 28.5494 17.8032C27.6054 17.9408 26.2512 18.1786 24.6134 18.4598C22.9756 18.7411 21.054 19.0656 19.2435 19.3382C19.1136 19.3578 18.9846 19.377 18.856 19.3958V18.0906C18.9846 18.0717 19.1136 18.0525 19.2435 18.033C21.054 17.7603 22.9756 17.4358 24.6134 17.1546C26.2512 16.8733 27.6054 16.6355 28.5494 16.4979C29.4937 16.36 30.0278 16.3222 30.4316 16.3114C30.8352 16.3005 31.1081 16.3162 31.3091 16.3533C31.51 16.3907 31.6393 16.449 31.7305 16.5146C31.8217 16.5802 31.8752 16.6528 31.9107 16.8554Z" fill="url(#paint7_linear)"/>
<path fill-rule="evenodd" clip-rule="evenodd" d="M31.9107 15.5501V16.8554C31.8752 16.6528 31.8217 16.5802 31.7305 16.5146C31.6393 16.449 31.51 16.3907 31.3091 16.3533C31.1081 16.3162 30.8352 16.3005 30.4316 16.3114C30.0278 16.3222 29.4937 16.36 28.5494 16.4979C27.6054 16.6355 26.2512 16.8733 24.6134 17.1546C22.9756 17.4358 21.054 17.7603 19.2435 18.033C19.1136 18.0525 18.9846 18.0717 18.856 18.0906V16.7853C18.9846 16.7664 19.1136 16.7472 19.2435 16.7277C21.054 16.455 22.9756 16.1306 24.6134 15.8493C26.2512 15.568 27.6054 15.3302 28.5494 15.1926C29.4937 15.0547 30.0278 15.017 30.4316 15.0061C30.8352 14.9952 31.1081 15.0109 31.3091 15.048C31.51 15.0854 31.6393 15.1437 31.7305 15.2093C31.8217 15.2749 31.8752 15.3475 31.9107 15.5501Z" fill="url(#paint8_linear)"/>
<path fill-rule="evenodd" clip-rule="evenodd" d="M31.9107 14.2448V15.5501C31.8752 15.3475 31.8217 15.2749 31.7305 15.2093C31.6393 15.1437 31.51 15.0854 31.3091 15.048C31.1081 15.0109 30.8352 14.9952 30.4316 15.0061C30.0278 15.017 29.4937 15.0547 28.5494 15.1926C27.6054 15.3302 26.2512 15.568 24.6134 15.8493C22.9756 16.1306 21.054 16.455 19.2435 16.7277C19.1136 16.7472 18.9846 16.7664 18.856 16.7853V15.48C18.9846 15.4611 19.1136 15.4419 19.2435 15.4224C21.054 15.1498 22.9756 14.8253 24.6134 14.544C26.2512 14.2627 27.6054 14.025 28.5494 13.8874C29.4937 13.7494 30.0278 13.7117 30.4316 13.7008C30.8352 13.6899 31.1081 13.7056 31.3091 13.7427C31.51 13.7802 31.6393 13.8384 31.7305 13.904C31.8217 13.9696 31.8752 14.0422 31.9107 14.2448Z" fill="url(#paint9_linear)"/>
<path fill-rule="evenodd" clip-rule="evenodd" d="M18.856 14.1747C18.9846 14.1558 19.1136 14.1366 19.2435 14.1171C21.054 13.8445 22.9756 13.52 24.6134 13.2387C26.2512 12.9574 27.6054 12.7197 28.5494 12.5821C29.4937 12.4441 30.0278 12.4064 30.4316 12.3955C30.8352 12.3846 31.1081 12.4003 31.3091 12.4374C31.51 12.4749 31.6393 12.5331 31.7305 12.5987C31.8217 12.6643 31.8752 12.7369 31.9107 12.9395V14.2448C31.8752 14.0422 31.8217 13.9696 31.7305 13.904C31.6393 13.8384 31.51 13.7801 31.3091 13.7427C31.1081 13.7056 30.8352 13.6899 30.4316 13.7008C30.0278 13.7117 29.4937 13.7494 28.5494 13.8873C27.6054 14.0249 26.2512 14.2627 24.6134 14.544C22.9756 14.8253 21.054 15.1497 19.2435 15.4224C19.1136 15.4419 18.9846 15.4611 18.856 15.48V14.1747Z" fill="url(#paint10_linear)"/>
<path fill-rule="evenodd" clip-rule="evenodd" d="M18.856 12.8982C20.4284 12.6685 22.0262 12.4077 23.5622 12.1469C25.1856 11.8713 26.7401 11.5955 27.8684 11.424C28.9968 11.2525 29.6988 11.1853 30.3536 11.1513C30.7036 11.1334 31.0403 11.1248 31.3228 11.1827C31.4086 11.2003 31.4969 11.2246 31.5881 11.2557C31.7692 11.3171 31.871 11.4425 31.8937 11.6323C31.9049 11.7267 31.9107 11.8169 31.9107 11.903C31.9107 12.256 31.9107 12.6013 31.9107 12.9395C31.8752 12.7369 31.8217 12.6643 31.7305 12.5987C31.6393 12.5331 31.51 12.4749 31.3091 12.4374C31.1081 12.4003 30.8352 12.3846 30.4316 12.3955C30.0278 12.4064 29.4937 12.4441 28.5494 12.5821C27.6054 12.7197 26.2512 12.9574 24.6134 13.2387C22.9756 13.52 21.054 13.8445 19.2435 14.1171C19.1136 14.1366 18.9846 14.1558 18.856 14.1747V12.8982Z" fill="url(#paint11_linear)"/>
<path fill-rule="evenodd" clip-rule="evenodd" d="M31.903 28.576C31.8678 28.4029 31.8157 28.3357 31.7306 28.2746C31.6394 28.209 31.5101 28.1507 31.3091 28.1136C31.1082 28.0762 30.8352 28.0605 30.4317 28.0714C30.0278 28.0822 29.4938 28.12 28.5494 28.2579C27.6054 28.3955 26.2512 28.6333 24.6134 28.9146C22.9757 29.1958 21.0541 29.5203 19.2435 29.793C17.4326 30.0656 15.7328 30.2861 13.9795 30.4589C12.3059 30.624 10.5837 30.745 7.08319 30.8304C7.04127 30.8099 7.00095 30.7859 6.96223 30.7574C6.82015 30.6541 6.70015 30.495 6.63775 30.337C6.58719 30.2096 6.57375 30.0832 6.56927 29.5248C10.4192 29.4387 12.2262 29.3139 13.9795 29.1411C15.7328 28.9686 17.4326 28.7478 19.2435 28.4752C21.0541 28.2026 22.9757 27.8781 24.6134 27.5968C26.2512 27.3155 27.6054 27.0778 28.5494 26.9402C29.4938 26.8022 30.0278 26.7645 30.4317 26.7536C30.8352 26.7427 31.1082 26.7584 31.3091 26.7958C31.5101 26.833 31.6394 26.8912 31.7306 26.9568C31.8218 27.0224 31.8752 27.095 31.9107 27.2976C31.9107 27.3014 31.9107 27.3053 31.9107 27.3091C31.9107 28.2 31.9107 28.4326 31.903 28.576Z" fill="url(#paint12_linear)"/>
<path fill-rule="evenodd" clip-rule="evenodd" d="M18.856 12.8982C18.7664 12.9113 18.6768 12.9241 18.5875 12.9369C16.9286 13.176 15.3033 13.3779 13.8099 13.5251C12.3161 13.6726 10.9539 13.7657 9.91359 13.8153C8.87359 13.8649 8.15551 13.8713 7.72607 13.8873C7.29663 13.903 7.15615 13.9283 7.03039 13.9965C6.90463 14.0643 6.79391 14.175 6.71871 14.3043C6.64351 14.4333 6.60383 14.5808 6.58399 14.855C6.56415 15.1289 6.56415 15.5296 6.56415 17.1427C6.56415 18.551 6.56415 20.8835 6.56415 22.9984C10.4192 22.9123 12.2262 22.7875 13.9795 22.6147C15.6073 22.4544 17.1888 22.2528 18.856 22.0064V12.8982Z" fill="#1B3BBA"/>
<defs>
<linearGradient id="paint0_linear" x1="6.56543" y1="25.9594" x2="31.9107" y2="25.9594" gradientUnits="userSpaceOnUse">
<stop stop-color="white"/>
<stop offset="0.834355" stop-color="white"/>
<stop offset="0.945732" stop-color="#C8C8C8"/>
<stop offset="1" stop-color="white"/>
</linearGradient>
<linearGradient id="paint1_linear" x1="6.56445" y1="28.2195" x2="31.9107" y2="28.2195" gradientUnits="userSpaceOnUse">
<stop stop-color="#E84040"/>
<stop offset="0.768524" stop-color="#E84040"/>
<stop offset="0.95305" stop-color="#A30303"/>
<stop offset="1" stop-color="#CD1E1E"/>
</linearGradient>
<linearGradient id="paint2_linear" x1="6.56415" y1="23.3489" x2="31.9107" y2="23.3489" gradientUnits="userSpaceOnUse">
<stop stop-color="white"/>
<stop offset="0.834355" stop-color="white"/>
<stop offset="0.945732" stop-color="#C8C8C8"/>
<stop offset="1" stop-color="white"/>
</linearGradient>
<linearGradient id="paint3_linear" x1="6.56415" y1="25.6089" x2="31.9107" y2="25.6089" gradientUnits="userSpaceOnUse">
<stop stop-color="#E84040"/>
<stop offset="0.768524" stop-color="#E84040"/>
<stop offset="0.95305" stop-color="#A30303"/>
<stop offset="1" stop-color="#CD1E1E"/>
</linearGradient>
<linearGradient id="paint4_linear" x1="6.56415" y1="20.7383" x2="31.9107" y2="20.7383" gradientUnits="userSpaceOnUse">
<stop stop-color="white"/>
<stop offset="0.834355" stop-color="white"/>
<stop offset="0.945732" stop-color="#C8C8C8"/>
<stop offset="1" stop-color="white"/>
</linearGradient>
<linearGradient id="paint5_linear" x1="6.58609" y1="23.4575" x2="31.9107" y2="23.4575" gradientUnits="userSpaceOnUse">
<stop stop-color="#E84040"/>
<stop offset="0.768524" stop-color="#E84040"/>
<stop offset="0.95305" stop-color="#A30303"/>
<stop offset="1" stop-color="#CD1E1E"/>
</linearGradient>
<linearGradient id="paint6_linear" x1="6.70946" y1="19.4392" x2="31.9107" y2="19.4392" gradientUnits="userSpaceOnUse">
<stop stop-color="white"/>
<stop offset="0.834355" stop-color="white"/>
<stop offset="0.945732" stop-color="#C8C8C8"/>
<stop offset="1" stop-color="white"/>
</linearGradient>
<linearGradient id="paint7_linear" x1="6.58609" y1="20.8469" x2="31.9107" y2="20.8469" gradientUnits="userSpaceOnUse">
<stop stop-color="#E84040"/>
<stop offset="0.768524" stop-color="#E84040"/>
<stop offset="0.95305" stop-color="#A30303"/>
<stop offset="1" stop-color="#CD1E1E"/>
</linearGradient>
<linearGradient id="paint8_linear" x1="6.70946" y1="16.8286" x2="31.9107" y2="16.8286" gradientUnits="userSpaceOnUse">
<stop stop-color="white"/>
<stop offset="0.834355" stop-color="white"/>
<stop offset="0.945732" stop-color="#C8C8C8"/>
<stop offset="1" stop-color="white"/>
</linearGradient>
<linearGradient id="paint9_linear" x1="6.58609" y1="18.2364" x2="31.9107" y2="18.2364" gradientUnits="userSpaceOnUse">
<stop stop-color="#E84040"/>
<stop offset="0.768524" stop-color="#E84040"/>
<stop offset="0.95305" stop-color="#A30303"/>
<stop offset="1" stop-color="#CD1E1E"/>
</linearGradient>
<linearGradient id="paint10_linear" x1="6.70946" y1="14.2181" x2="31.9107" y2="14.2181" gradientUnits="userSpaceOnUse">
<stop stop-color="white"/>
<stop offset="0.834355" stop-color="white"/>
<stop offset="0.945732" stop-color="#C8C8C8"/>
<stop offset="1" stop-color="white"/>
</linearGradient>
<linearGradient id="paint11_linear" x1="6.58609" y1="15.6018" x2="31.9107" y2="15.6018" gradientUnits="userSpaceOnUse">
<stop stop-color="#E84040"/>
<stop offset="0.768524" stop-color="#E84040"/>
<stop offset="0.95305" stop-color="#A30303"/>
<stop offset="1" stop-color="#CD1E1E"/>
</linearGradient>
<linearGradient id="paint12_linear" x1="6.56927" y1="30.8304" x2="31.9107" y2="30.8304" gradientUnits="userSpaceOnUse">
<stop stop-color="#E84040"/>
<stop offset="0.768524" stop-color="#E84040"/>
<stop offset="0.95305" stop-color="#A30303"/>
<stop offset="1" stop-color="#CD1E1E"/>
</linearGradient>
</defs>
</svg>
