<svg xmlns="http://www.w3.org/2000/svg" viewBox="0 0 716 716">
<path d="M360.19,3.09c36.3,60.22,72.59,120.43,108.97,180.78,41.63-25.1,83.12-50.12,124.82-75.26,14.04,23.25,28.03,46.43,42.12,69.76-41.61,25.09-83.15,50.14-124.88,75.31,21.8,36.17,43.5,72.16,65.44,108.57-.87-.21-1.29-.25-1.65-.41-19.54-8.9-39.07-17.84-58.62-26.73-26.53-12.07-53.07-24.12-79.61-36.17-25.13-11.41-50.26-22.81-75.41-34.18-1.25-.57-1.82-1.24-1.82-2.74,.04-85.7,.04-171.39,.04-257.09,0-.54,.06-1.09,.09-1.63,.17-.06,.34-.13,.51-.19ZM140.37,361.83c.47-.15,.96-.26,1.4-.46,10.08-4.61,20.15-9.25,30.24-13.84,15.31-6.97,30.63-13.9,45.94-20.86,22.59-10.26,45.18-20.54,67.77-30.8,23.12-10.51,46.23-21.02,69.37-31.48,1.34-.6,1.75-1.32,1.75-2.75-.03-85.57-.03-171.14-.03-256.72,0-.55-.06-1.1-.09-1.65-.19-.08-.39-.17-.58-.25-36.34,60.29-72.68,120.58-109.09,180.98-41.74-25.17-83.34-50.25-125.03-75.39-14.08,23.31-28.07,46.49-42.12,69.76,41.79,25.2,83.39,50.29,125.09,75.44-21.71,36.02-43.31,71.86-64.91,107.7,.1,.11,.19,.22,.29,.32Zm434.15,47.29c-.71,.34-1.45,.64-2.13,1.04-23.28,13.75-46.56,27.5-69.84,41.26-22.66,13.4-45.31,26.84-67.98,40.24-24.55,14.51-49.12,29.01-73.7,43.48-1.27,.75-1.75,1.57-1.74,3.06,.06,17.32,.04,34.64,.04,51.96,0,39.62,0,79.24,0,118.86,0,1.24,0,2.49,0,3.73,.15,.07,.3,.14,.45,.21,34.62-48.78,69.25-97.56,103.9-146.37,31.18,22.1,62.13,44.04,93.14,66.02,12.33-17.29,24.5-34.38,36.79-51.61-31.1-22.05-62.11-44.04-93.23-66.11,24.95-35.18,49.83-70.26,74.71-105.33-.13-.15-.26-.3-.39-.44Zm-218.53,303.87c.21-.1,.42-.19,.63-.29-.06-1.25-.18-2.51-.18-3.76,0-39.75,0-79.49,0-119.24,0-17.19-.02-34.38,.03-51.57,0-1.38-.32-2.26-1.6-2.94-2.28-1.21-4.45-2.62-6.67-3.93-25.39-14.98-50.79-29.96-76.18-44.95-20.56-12.14-41.1-24.31-61.65-36.46-22.27-13.17-44.54-26.34-66.82-39.5-.79-.47-1.63-.84-2.45-1.25l-.41,.47c24.91,35.12,49.82,70.24,74.84,105.52-31.07,22.03-62.01,43.97-92.97,65.92,12.35,17.32,24.52,34.4,36.79,51.61,31.01-21.98,61.91-43.89,92.87-65.83,34.68,48.86,69.23,97.53,103.78,146.21Zm-.91-446.3c-13.63,6.18-27.25,12.36-40.87,18.55-28.82,13.11-57.64,26.25-86.47,39.36-28.77,13.08-57.55,26.14-86.32,39.22-.49,.22-.88,.64-1.32,.97,.4,.37,.74,.82,1.2,1.09,23.71,14.05,47.42,28.1,71.14,42.12,25.06,14.82,50.13,29.61,75.19,44.42,22.5,13.3,45,26.61,67.52,39.89,.51,.3,1.14,.39,1.82,.61v-226.99c-.86,.34-1.38,.52-1.89,.75Zm4.25,226.53c72.45-42.82,144.6-85.48,217.25-128.42-72.75-33.06-144.91-65.86-217.25-98.74v227.16Z"/>
</svg>
