<svg width="32" height="32" viewBox="0 0 32 32" fill="none" xmlns="http://www.w3.org/2000/svg">
<circle cx="16" cy="16" r="16" fill="white"/>
<path fill-rule="evenodd" clip-rule="evenodd" d="M11.8547 3.38356C13.3453 2.89364 14.9382 2.66964 16.5161 2.73012C18.0944 2.7906 19.6579 3.13588 21.1129 3.74388C22.5683 4.35188 23.9152 5.22292 25.0675 6.29748C26.5917 7.71924 27.775 9.49748 28.4848 11.4866C29.1949 13.476 29.4314 15.6764 29.1574 17.7711C28.8838 19.8658 28.0998 21.8552 26.9139 23.566C25.728 25.2767 24.1398 26.7084 22.2745 27.7004C20.4093 28.692 18.2662 29.2437 16.1539 29.2757C14.0416 29.3077 11.9597 28.8204 10.095 27.8949C8.23071 26.9695 6.58335 25.6063 5.33247 23.9036C4.08159 22.2008 3.22719 20.1586 2.88799 18.0748C2.54879 15.9906 2.72479 13.8645 3.37471 11.8812C3.86591 10.3816 4.62815 8.96404 5.60479 7.73556H4.12031V5.2818H9.93695V10.7135H7.48319V9.22932C6.68319 10.2354 6.05855 11.3967 5.65631 12.6255C5.12415 14.2511 4.98079 15.9951 5.25631 17.6968C5.59871 19.8136 6.58879 21.8648 8.06655 23.4456C9.83423 25.3362 12.2995 26.5541 14.8659 26.8207C17.432 27.0872 20.0992 26.4028 22.2173 24.9285C24.3353 23.4543 25.905 21.1903 26.5421 18.6898C27.1792 16.1893 26.8838 13.4524 25.735 11.142C24.5862 8.83156 22.5837 6.94836 20.1891 5.95892C17.7945 4.96916 15.0077 4.8738 12.6038 5.66356L11.8547 3.38356Z" fill="#0657F9"/>
<path fill-rule="evenodd" clip-rule="evenodd" d="M11.5512 9.81625L10.7119 10.6325L12.7599 12.6239L14.8078 14.6153V16.469V18.3227H16.0012H17.1946V16.469V14.6153L19.2376 12.6288L21.2805 10.6422L20.436 9.82168L19.5915 9.00118L17.8074 10.7314C16.8261 11.683 16.0136 12.4616 16.0017 12.4616C15.9897 12.4616 15.176 11.6827 14.1934 10.7308C13.2107 9.77886 12.4031 9 12.3986 9C12.3941 9 12.0128 9.36732 11.5512 9.81625ZM10.605 14.6005C10.3379 15.1489 10.1832 15.6214 10.0836 16.1932C9.7988 17.828 10.249 19.5117 11.321 20.8206C11.4979 21.0366 12.0183 21.5424 12.2389 21.7128C13.2319 22.4797 14.3624 22.9045 15.6305 22.9874C16.389 23.037 17.1474 22.9403 17.8924 22.699C20.0458 22.0016 21.6004 20.2017 21.9366 18.0168C22.066 17.176 21.9962 16.2766 21.7371 15.4472C21.6341 15.1174 21.4254 14.6233 21.3164 14.451L21.2746 14.3851L20.3666 15.2672C19.6342 15.9788 19.4609 16.157 19.4702 16.1887C19.5451 16.4438 19.5848 16.7089 19.5955 17.0246C19.6162 17.6363 19.5166 18.1308 19.2689 18.6472C18.7873 19.6512 17.8478 20.3677 16.699 20.607C16.4996 20.6486 16.4263 20.6533 15.9911 20.6527C15.564 20.6521 15.4801 20.6467 15.2932 20.6074C14.1543 20.3681 13.2586 19.6907 12.7533 18.6866C12.5249 18.2327 12.4215 17.8127 12.4059 17.2755C12.3946 16.8869 12.4167 16.6519 12.4931 16.3461L12.5422 16.1494L11.6372 15.2693C11.1395 14.7851 10.7267 14.3891 10.7201 14.3891C10.7135 14.3891 10.6617 14.4842 10.605 14.6005Z" fill="#0C0C0C"/>
</svg>
