<?xml version="1.0" standalone="no"?>
<!DOCTYPE svg PUBLIC "-//W3C//DTD SVG 20010904//EN"
 "http://www.w3.org/TR/2001/REC-SVG-20010904/DTD/svg10.dtd">
<svg version="1.0" xmlns="http://www.w3.org/2000/svg"
 width="1280.000000pt" height="1255.000000pt" viewBox="0 0 1280.000000 1255.000000"
 preserveAspectRatio="xMidYMid meet">

<g transform="translate(0.000000,1255.000000) scale(0.100000,-0.100000)"
fill="#000000" stroke="none">
<path d="M9737 10771 l-55 -29 -53 19 c-30 10 -65 18 -78 19 -40 0 -100 -41
-131 -91 -27 -45 -51 -59 -547 -342 -684 -389 -833 -473 -864 -487 -23 -10
-45 -5 -175 40 -82 29 -178 61 -214 72 l-65 20 -420 -51 c-231 -28 -548 -66
-705 -85 -157 -20 -357 -42 -445 -51 -404 -38 -666 -67 -855 -95 -113 -16
-266 -37 -340 -45 -74 -8 -292 -35 -485 -60 -589 -75 -823 -103 -990 -120
-276 -27 -334 -44 -355 -101 -18 -45 -29 -1573 -35 -4447 -4 -2115 -2 -2768 7
-2798 21 -73 74 -111 322 -237 127 -64 285 -139 351 -168 66 -28 193 -85 282
-127 151 -71 558 -240 773 -320 112 -42 270 -83 355 -92 33 -3 101 -1 151 4
120 14 466 82 674 133 166 40 518 113 1235 257 550 110 823 161 1270 236 448
76 619 110 795 161 162 47 214 75 239 128 18 40 19 89 25 1441 8 2097 27 5239
32 5244 2 2 39 -7 83 -19 91 -27 87 -18 49 -129 -22 -66 -23 -93 -2 -136 53
-113 208 -180 301 -132 25 13 35 29 52 79 21 63 163 542 282 951 44 151 68
219 79 222 30 10 83 70 107 123 27 58 33 155 14 206 -12 30 -13 27 35 93 21
29 20 109 -1 159 -8 21 -34 61 -56 90 -39 51 -40 52 -33 116 5 53 3 73 -13
109 -35 78 -132 136 -260 154 -43 5 -57 14 -94 52 -50 52 -73 63 -139 63 -34
0 -64 -9 -103 -29z m182 -75 l25 -26 -25 -27 c-64 -69 -144 -216 -137 -251 3
-11 13 2 31 40 31 62 85 121 155 168 50 33 67 33 172 2 66 -20 150 -94 150
-133 0 -60 -6 -64 -83 -66 -77 -1 -148 -20 -155 -40 -3 -10 24 -13 112 -13 92
0 116 -3 116 -14 0 -7 19 -38 43 -69 86 -110 92 -141 44 -202 l-24 -29 -31 26
c-50 42 -151 58 -227 36 l-40 -11 71 -13 c78 -13 166 -47 186 -72 23 -27 37
-122 26 -169 l-10 -43 -22 33 c-26 39 -118 87 -168 87 -72 0 -118 -34 -60 -45
55 -11 162 -48 168 -57 4 -5 20 -18 36 -28 l30 -18 -44 -49 c-49 -53 -23 22
-283 -818 -133 -429 -145 -465 -164 -465 -32 0 -117 48 -148 84 -48 54 -50 75
-14 174 18 48 83 256 146 462 126 414 194 626 219 682 16 37 16 38 -10 61 -34
32 -43 94 -18 132 18 28 18 28 -11 51 -26 20 -30 32 -35 89 -6 66 -5 66 38
121 48 61 49 78 4 45 -33 -23 -62 -63 -62 -86 0 -11 -11 -15 -40 -15 -33 0
-46 7 -83 45 -25 25 -54 45 -65 45 -23 0 -29 12 -38 79 -8 62 -20 82 -35 61
-10 -15 -7 -100 6 -131 7 -19 -39 -54 -60 -45 -20 7 -60 90 -80 166 -24 89
-39 101 -30 25 9 -83 23 -133 49 -181 l23 -41 -181 -101 c-100 -55 -365 -202
-591 -327 -225 -125 -463 -259 -528 -297 l-118 -71 -64 7 c-138 14 -255 71
-298 144 l-17 30 77 43 c43 23 373 211 733 418 360 206 709 406 775 443 93 53
124 76 134 99 9 20 27 37 50 46 33 14 39 14 71 -3 34 -19 34 -20 35 -86 1
-105 33 -113 50 -13 12 74 25 93 79 120 61 31 107 28 145 -9z m-168 -475 c12
-16 38 -37 59 -46 32 -15 38 -22 43 -57 3 -24 16 -51 32 -68 24 -25 26 -31 16
-66 -12 -44 -6 -78 21 -116 l19 -28 -39 -122 c-22 -68 -73 -228 -113 -357 -47
-150 -76 -229 -81 -220 -111 189 -135 220 -194 255 -54 32 -282 109 -499 169
-88 24 -199 55 -248 70 -48 14 -91 25 -94 25 -16 0 79 57 417 250 195 111 391
224 435 250 172 103 191 108 226 61z m-2054 -603 c-3 -8 -6 -5 -6 6 -1 11 2
17 5 13 3 -3 4 -12 1 -19z m-100 -4 c-3 -3 -12 -4 -19 -1 -8 3 -5 6 6 6 11 1
17 -2 13 -5z m-62 -14 c-11 -5 -29 -8 -40 -8 -16 0 -15 2 5 8 34 11 60 11 35
0z m-180 -40 c-3 -5 -13 -10 -21 -10 -8 0 -14 5 -14 10 0 6 9 10 21 10 11 0
17 -4 14 -10z m-318 -6 c-3 -3 -12 -4 -19 -1 -8 3 -5 6 6 6 11 1 17 -2 13 -5z
m160 0 c-3 -3 -12 -4 -19 -1 -8 3 -5 6 6 6 11 1 17 -2 13 -5z m-73 -13 c4 -5
-3 -7 -14 -4 -23 6 -26 13 -6 13 8 0 17 -4 20 -9z m-217 -7 c-3 -3 -12 -4 -19
-1 -8 3 -5 6 6 6 11 1 17 -2 13 -5z m819 -13 c0 -11 -5 -17 -13 -14 -10 4 -11
9 -2 19 15 18 15 18 15 -5z m-32 -47 c3 -8 2 -12 -4 -9 -6 3 -10 10 -10 16 0
14 7 11 14 -7z m-1297 0 c-3 -3 -12 -4 -19 -1 -8 3 -5 6 6 6 11 1 17 -2 13 -5z
m1393 2 c0 -3 -4 -8 -10 -11 -5 -3 -10 -1 -10 4 0 6 5 11 10 11 6 0 10 -2 10
-4z m-1262 -13 c-15 -2 -42 -2 -60 0 -18 2 -6 4 27 4 33 0 48 -2 33 -4z m1292
2 c0 -2 -10 -9 -22 -15 -22 -11 -22 -10 -4 4 21 17 26 19 26 11z m1305 -5 c3
-6 -1 -7 -9 -4 -18 7 -21 14 -7 14 6 0 13 -4 16 -10z m-2808 -6 c-3 -3 -12 -4
-19 -1 -8 3 -5 6 6 6 11 1 17 -2 13 -5z m80 0 c-3 -3 -12 -4 -19 -1 -8 3 -5 6
6 6 11 1 17 -2 13 -5z m-142 -14 c-11 -5 -27 -9 -35 -9 -9 0 -8 4 5 9 11 5 27
9 35 9 9 0 8 -4 -5 -9z m2723 -37 c-10 -2 -26 -2 -35 0 -10 3 -2 5 17 5 19 0
27 -2 18 -5z m225 0 c-7 -2 -19 -2 -25 0 -7 3 -2 5 12 5 14 0 19 -2 13 -5z
m-290 -10 c-7 -2 -19 -2 -25 0 -7 3 -2 5 12 5 14 0 19 -2 13 -5z m204 1 c-3
-3 -12 -4 -19 -1 -8 3 -5 6 6 6 11 1 17 -2 13 -5z m-3422 -14 c-27 -12 -43
-12 -25 0 8 5 22 9 30 9 10 0 8 -3 -5 -9z m158 1 c11 -4 -5 -7 -38 -7 -35 -1
-52 2 -43 7 16 10 56 10 81 0z m1977 -21 c0 -5 -2 -10 -4 -10 -3 0 -8 5 -11
10 -3 6 -1 10 4 10 6 0 11 -4 11 -10z m437 -36 c-3 -3 -12 -4 -19 -1 -8 3 -5
6 6 6 11 1 17 -2 13 -5z m-194 -11 c-7 -2 -21 -2 -30 0 -10 3 -4 5 12 5 17 0
24 -2 18 -5z m54 1 c-3 -3 -12 -4 -19 -1 -8 3 -5 6 6 6 11 1 17 -2 13 -5z
m-2974 -21 c-7 -2 -19 -2 -25 0 -7 3 -2 5 12 5 14 0 19 -2 13 -5z m3964 1 c-3
-3 -12 -4 -19 -1 -8 3 -5 6 6 6 11 1 17 -2 13 -5z m-4179 -21 c-10 -2 -28 -2
-40 0 -13 2 -5 4 17 4 22 1 32 -1 23 -4z m4179 1 c-3 -3 -12 -4 -19 -1 -8 3
-5 6 6 6 11 1 17 -2 13 -5z m-1507 -14 c11 -8 7 -9 -15 -4 -37 8 -45 14 -19
14 10 0 26 -5 34 -10z m1737 -22 c-3 -7 -5 -2 -5 12 0 14 2 19 5 13 2 -7 2
-19 0 -25z m-1939 -5 c-10 -2 -26 -2 -35 0 -10 3 -2 5 17 5 19 0 27 -2 18 -5z
m1149 1 c-3 -3 -12 -4 -19 -1 -8 3 -5 6 6 6 11 1 17 -2 13 -5z m750 -16 c-3
-8 -6 -5 -6 6 -1 11 2 17 5 13 3 -3 4 -12 1 -19z m-1794 5 c-7 -2 -19 -2 -25
0 -7 3 -2 5 12 5 14 0 19 -2 13 -5z m1171 -5 c-3 -4 -14 -8 -25 -8 -11 0 -18
4 -14 9 3 6 14 9 25 8 10 -1 16 -5 14 -9z m-4321 -5 c-7 -2 -21 -2 -30 0 -10
3 -4 5 12 5 17 0 24 -2 18 -5z m3075 0 c-16 -2 -40 -2 -55 0 -16 2 -3 4 27 4
30 0 43 -2 28 -4z m966 -2 c4 -5 -3 -7 -14 -4 -23 6 -26 13 -6 13 8 0 17 -4
20 -9z m171 -1 c13 -5 14 -9 5 -9 -8 0 -24 4 -35 9 -13 5 -14 9 -5 9 8 0 24
-4 35 -9z m772 -42 c-3 -8 -6 -5 -6 6 -1 11 2 17 5 13 3 -3 4 -12 1 -19z
m-5300 -4 c-3 -3 -12 -4 -19 -1 -8 3 -5 6 6 6 11 1 17 -2 13 -5z m90 0 c-3 -3
-12 -4 -19 -1 -8 3 -5 6 6 6 11 1 17 -2 13 -5z m100 0 c-3 -3 -12 -4 -19 -1
-8 3 -5 6 6 6 11 1 17 -2 13 -5z m2440 0 c-3 -3 -12 -4 -19 -1 -8 3 -5 6 6 6
11 1 17 -2 13 -5z m150 -10 c-3 -3 -12 -4 -19 -1 -8 3 -5 6 6 6 11 1 17 -2 13
-5z m1166 -1 c-7 -2 -21 -2 -30 0 -10 3 -4 5 12 5 17 0 24 -2 18 -5z m-236 -9
c-3 -3 -12 -4 -19 -1 -8 3 -5 6 6 6 11 1 17 -2 13 -5z m116 -11 c-13 -2 -33
-2 -45 0 -13 2 -3 4 22 4 25 0 35 -2 23 -4z m-196 -9 c-3 -3 -12 -4 -19 -1 -8
3 -5 6 6 6 11 1 17 -2 13 -5z m-3314 -21 c-7 -2 -21 -2 -30 0 -10 3 -4 5 12 5
17 0 24 -2 18 -5z m1647 -13 c8 -5 11 -10 5 -10 -5 0 -17 5 -25 10 -8 5 -10
10 -5 10 6 0 17 -5 25 -10z m-177 -7 c-7 -2 -19 -2 -25 0 -7 3 -2 5 12 5 14 0
19 -2 13 -5z m100 0 c-13 -2 -33 -2 -45 0 -13 2 -3 4 22 4 25 0 35 -2 23 -4z
m144 -9 c-3 -3 -12 -4 -19 -1 -8 3 -5 6 6 6 11 1 17 -2 13 -5z m-284 -11 c-7
-2 -19 -2 -25 0 -7 3 -2 5 12 5 14 0 19 -2 13 -5z m1164 1 c-3 -3 -12 -4 -19
-1 -8 3 -5 6 6 6 11 1 17 -2 13 -5z m240 0 c-3 -3 -12 -4 -19 -1 -8 3 -5 6 6
6 11 1 17 -2 13 -5z m-294 -11 c-7 -2 -21 -2 -30 0 -10 3 -4 5 12 5 17 0 24
-2 18 -5z m54 -9 c-3 -3 -12 -4 -19 -1 -8 3 -5 6 6 6 11 1 17 -2 13 -5z m-240
-10 c-3 -3 -12 -4 -19 -1 -8 3 -5 6 6 6 11 1 17 -2 13 -5z m-2030 -20 c-3 -3
-12 -4 -19 -1 -8 3 -5 6 6 6 11 1 17 -2 13 -5z m117 -2 c3 -5 -8 -6 -25 -4
-16 2 -29 6 -29 8 0 8 49 4 54 -4z m492 1 c-15 -4 -16 -7 -5 -15 11 -8 10 -9
-4 -4 -10 3 -26 6 -35 7 -20 1 25 17 48 17 8 0 6 -3 -4 -5z m237 0 c-7 -2 -19
-2 -25 0 -7 3 -2 5 12 5 14 0 19 -2 13 -5z m624 -39 c-3 -3 -12 -4 -19 -1 -8
3 -5 6 6 6 11 1 17 -2 13 -5z m261 -1 c-16 -2 -40 -2 -55 0 -16 2 -3 4 27 4
30 0 43 -2 28 -4z m-181 -9 c-3 -3 -12 -4 -19 -1 -8 3 -5 6 6 6 11 1 17 -2 13
-5z m-325 -46 c-9 -9 -15 -9 -24 0 -9 9 -7 12 12 12 19 0 21 -3 12 -12z m3405
-35 c-3 -10 -5 -4 -5 12 0 17 2 24 5 18 2 -7 2 -21 0 -30z m20 -115 c-3 -8 -6
-5 -6 6 -1 11 2 17 5 13 3 -3 4 -12 1 -19z m-10 -335 c-3 -10 -5 -4 -5 12 0
17 2 24 5 18 2 -7 2 -21 0 -30z m0 -265 c-2 -13 -4 -3 -4 22 0 25 2 35 4 23 2
-13 2 -33 0 -45z m-200 -284 c-3 -3 -12 -4 -19 -1 -8 3 -5 6 6 6 11 1 17 -2
13 -5z m-162 -64 c-3 -5 -12 -10 -18 -10 -7 0 -6 4 3 10 19 12 23 12 15 0z
m354 -1232 c-1 -684 -4 -1382 -8 -1552 l-6 -309 -145 -59 c-148 -60 -239 -95
-769 -294 -276 -105 -725 -281 -941 -370 -376 -156 -785 -306 -1175 -434 -182
-60 -492 -177 -718 -272 -214 -89 -372 -152 -494 -196 -69 -25 -83 -28 -87
-15 -8 20 -7 2068 1 2664 l6 486 48 22 c26 13 53 20 60 15 7 -4 10 -3 6 3 -4
6 20 20 56 32 34 12 71 26 82 31 30 14 138 54 365 135 113 40 275 100 360 133
85 33 193 72 240 87 47 15 155 56 240 90 85 35 243 94 350 133 107 39 353 127
545 197 649 234 989 357 1305 472 173 63 378 138 455 165 77 28 156 56 175 63
19 8 38 14 43 14 4 1 6 -558 6 -1241z m-836 1075 c-7 -2 -21 -2 -30 0 -10 3
-4 5 12 5 17 0 24 -2 18 -5z m-293 -103 c8 -5 11 -10 5 -10 -5 0 -17 5 -25 10
-8 5 -10 10 -5 10 6 0 17 -5 25 -10z m-143 -76 c-3 -3 -12 -4 -19 -1 -8 3 -5
6 6 6 11 1 17 -2 13 -5z m-202 -64 c-3 -5 -12 -10 -18 -10 -7 0 -6 4 3 10 19
12 23 12 15 0z m-135 -34 c0 -3 -4 -8 -10 -11 -5 -3 -10 -1 -10 4 0 6 5 11 10
11 6 0 10 -2 10 -4z m-358 -148 c-9 -9 -15 -9 -24 0 -9 9 -7 12 12 12 19 0 21
-3 12 -12z m-271 -86 c-7 -2 -18 1 -23 6 -8 8 -4 9 13 5 13 -4 18 -8 10 -11z
m6 -28 c-3 -3 -12 -4 -19 -1 -8 3 -5 6 6 6 11 1 17 -2 13 -5z m-337 -48 c0
-11 -19 -15 -25 -6 -3 5 1 10 9 10 9 0 16 -2 16 -4z m137 -22 c-3 -3 -12 -4
-19 -1 -8 3 -5 6 6 6 11 1 17 -2 13 -5z m-210 -30 c-3 -3 -12 -4 -19 -1 -8 3
-5 6 6 6 11 1 17 -2 13 -5z m-187 -104 c11 -8 7 -9 -15 -4 -37 8 -45 14 -19
14 10 0 26 -5 34 -10z m-270 -60 c0 -5 -8 -10 -17 -10 -15 0 -16 2 -3 10 19
12 20 12 20 0z m-200 -94 c0 -3 -4 -8 -10 -11 -5 -3 -10 -1 -10 4 0 6 5 11 10
11 6 0 10 -2 10 -4z m-233 -82 c-3 -3 -12 -4 -19 -1 -8 3 -5 6 6 6 11 1 17 -2
13 -5z m-20 -30 c-3 -3 -12 -4 -19 -1 -8 3 -5 6 6 6 11 1 17 -2 13 -5z m3450
-2100 c-3 -3 -12 -4 -19 -1 -8 3 -5 6 6 6 11 1 17 -2 13 -5z m-140 -69 c0 -9
-10 -15 -25 -15 -21 0 -22 2 -12 15 7 8 18 15 25 15 6 0 12 -7 12 -15z m-190
-42 c-4 -3 1 -12 11 -19 16 -13 16 -13 0 -14 -10 0 -18 2 -18 4 0 2 -3 11 -6
20 -4 10 -1 16 7 16 7 0 9 -3 6 -7z m-37 -43 c8 -5 11 -10 5 -10 -5 0 -17 5
-25 10 -8 5 -10 10 -5 10 6 0 17 -5 25 -10z m-160 -74 c0 -2 -9 -6 -20 -9 -11
-3 -18 -1 -14 4 5 9 34 13 34 5z m-180 -68 c0 -7 -5 -6 -13 1 -8 6 -17 8 -21
4 -4 -4 -4 0 0 10 5 14 9 15 20 6 8 -6 14 -16 14 -21z m-195 -68 c3 -6 -1 -7
-9 -4 -18 7 -21 14 -7 14 6 0 13 -4 16 -10z m992 -32 c-3 -8 -6 -5 -6 6 -1 11
2 17 5 13 3 -3 4 -12 1 -19z m-1262 -38 c-3 -5 -12 -10 -18 -10 -7 0 -6 4 3
10 19 12 23 12 15 0z m-75 -30 c-8 -5 -19 -10 -25 -10 -5 0 -3 5 5 10 8 5 20
10 25 10 6 0 3 -5 -5 -10z m87 4 c-3 -3 -12 -4 -19 -1 -8 3 -5 6 6 6 11 1 17
-2 13 -5z m-200 -50 c-3 -3 -12 -4 -19 -1 -8 3 -5 6 6 6 11 1 17 -2 13 -5z
m-40 -30 c-3 -3 -12 -4 -19 -1 -8 3 -5 6 6 6 11 1 17 -2 13 -5z m-148 -53 c9
-6 10 -11 2 -15 -6 -4 -18 0 -27 8 -12 12 -12 16 -2 16 7 0 19 -4 27 -9z m-43
-29 c-10 -2 -22 0 -28 6 -6 6 0 7 19 4 21 -5 23 -7 9 -10z m-189 -98 c-5 -5
-57 13 -57 20 0 3 14 0 31 -6 16 -6 28 -12 26 -14z m-62 -2 c-3 -3 -11 0 -18
7 -9 10 -8 11 6 5 10 -3 15 -9 12 -12z m-345 -132 c-8 -5 -19 -10 -25 -10 -5
0 -3 5 5 10 8 5 20 10 25 10 6 0 3 -5 -5 -10z m-215 -88 c-3 -3 -11 0 -18 7
-9 10 -8 11 6 5 10 -3 15 -9 12 -12z m-435 -177 c0 -1 -13 -2 -28 -1 -16 1
-29 6 -29 12 0 9 8 9 29 2 15 -6 28 -11 28 -13z m-140 -15 c0 -5 -5 -10 -11
-10 -5 0 -7 5 -4 10 3 6 8 10 11 10 2 0 4 -4 4 -10z m-70 -52 c-12 -5 -25 -6
-28 -3 -3 3 0 5 7 5 7 0 10 4 7 9 -4 5 4 7 16 3 l22 -5 -24 -9z m-200 -68 c-8
-5 -19 -10 -25 -10 -5 0 -3 5 5 10 8 5 20 10 25 10 6 0 3 -5 -5 -10z m-370
-154 c0 -2 -13 -9 -30 -15 -35 -12 -41 -5 -7 9 25 10 37 12 37 6z m3697 -658
c-2 -13 -4 -3 -4 22 0 25 2 35 4 23 2 -13 2 -33 0 -45z"/>
<path d="M8912 6758 c-30 -15 -94 -123 -127 -213 -14 -38 -34 -82 -45 -97 -11
-15 -31 -53 -46 -85 l-26 -58 -31 39 c-18 22 -80 88 -139 148 -94 95 -111 108
-140 108 -45 -1 -67 -15 -153 -99 -81 -79 -125 -154 -146 -247 l-13 -56 -25
73 c-14 39 -34 77 -44 83 -14 9 -48 1 -160 -38 -119 -42 -155 -50 -224 -52
-45 -2 -91 -7 -101 -13 -42 -23 -62 -74 -72 -187 -9 -105 -12 -112 -79 -253
-63 -134 -79 -182 -96 -282 -5 -31 -39 -80 -48 -68 -127 165 -223 342 -233
431 -13 112 -58 127 -214 73 -139 -49 -191 -63 -275 -75 -138 -21 -186 -47
-209 -114 -12 -35 -14 -37 -20 -18 -20 63 -104 81 -158 33 -66 -58 -235 -150
-320 -175 -46 -13 -96 -29 -112 -36 -21 -8 -43 -8 -78 0 -110 23 -149 3 -169
-86 -13 -60 -8 -109 29 -243 21 -79 41 -92 105 -67 23 9 49 16 57 16 8 0 39
11 67 25 29 13 55 20 58 15 3 -5 12 -100 20 -212 8 -112 19 -232 25 -268 14
-96 12 -340 -3 -370 -12 -23 -18 -25 -90 -25 -103 0 -114 10 -96 91 17 82 15
95 -24 131 -29 26 -46 32 -102 38 -90 10 -139 -6 -176 -59 -16 -21 -29 -47
-29 -56 0 -9 -11 -38 -25 -64 -21 -40 -25 -60 -25 -139 0 -111 2 -137 11 -131
4 2 11 -9 17 -24 5 -15 30 -60 55 -99 39 -61 51 -73 79 -77 18 -3 73 -13 123
-21 185 -33 286 -21 398 48 27 16 74 38 105 47 98 31 168 67 187 96 10 15 21
59 26 100 4 40 12 81 17 91 20 37 24 108 9 168 -20 82 -32 281 -27 455 7 200
6 281 -4 381 -11 108 -5 131 34 146 20 7 34 22 41 43 11 30 12 31 26 11 18
-27 67 -27 148 -2 54 17 62 18 77 4 31 -28 41 -81 35 -182 -7 -119 -67 -354
-98 -387 -35 -37 -73 -48 -123 -35 -55 13 -91 2 -108 -34 -8 -19 -8 -48 0
-119 7 -52 12 -123 12 -158 0 -40 7 -78 20 -105 17 -38 23 -43 52 -43 18 0 48
4 66 9 24 7 44 6 77 -7 69 -25 91 -12 142 83 89 163 92 173 130 400 l37 216
23 -43 c12 -24 30 -68 38 -98 9 -30 32 -96 51 -146 31 -80 42 -97 86 -133 39
-31 59 -41 87 -41 103 0 156 43 172 141 6 35 17 91 25 124 26 104 194 464 234
500 18 16 19 16 24 -17 30 -195 7 -288 -79 -316 -51 -16 -85 -54 -85 -94 0
-27 60 -141 82 -154 12 -8 68 11 178 59 84 36 105 41 178 43 78 1 88 4 185 53
56 29 112 63 125 77 46 52 19 137 -73 234 -47 50 -53 62 -63 120 -23 139 -35
334 -23 388 6 29 11 65 11 80 0 29 46 128 84 179 l23 32 19 -26 c20 -27 45
-31 110 -19 37 7 44 4 83 -28 23 -19 49 -37 59 -40 19 -7 75 -92 93 -144 9
-27 8 -37 -11 -70 -38 -65 -114 -160 -142 -176 -37 -23 -55 -20 -86 13 -40 43
-72 48 -120 17 -50 -32 -60 -71 -44 -169 18 -101 44 -166 100 -249 53 -79 65
-88 113 -88 75 0 119 48 201 216 66 134 170 294 191 293 15 0 88 -92 115 -144
43 -84 106 -111 202 -85 56 15 98 59 205 212 43 62 94 130 112 151 58 65 43
116 -65 228 -49 50 -63 59 -92 59 -47 0 -58 -9 -73 -60 -19 -66 -37 -71 -90
-27 -25 20 -55 53 -68 73 -20 32 -21 40 -9 77 16 55 68 135 114 175 34 29 42
32 106 32 87 0 114 20 135 100 19 69 19 104 1 138 -22 41 -96 109 -138 127
-43 17 -122 19 -156 3z m133 -93 c56 -32 75 -64 75 -124 0 -47 -2 -50 -32 -60
-18 -6 -52 -13 -75 -17 -52 -8 -58 -15 -139 -139 -67 -104 -107 -206 -97 -246
8 -32 45 -89 74 -116 34 -31 97 -56 125 -49 36 9 92 63 99 96 4 17 10 30 14
30 18 0 49 -33 66 -70 16 -36 17 -47 6 -87 -15 -57 -108 -216 -151 -260 -18
-18 -56 -40 -92 -52 -74 -25 -79 -23 -164 75 -127 146 -120 140 -147 129 -14
-6 -41 -31 -59 -58 -58 -83 -123 -180 -181 -267 -66 -101 -102 -138 -144 -146
-27 -5 -34 -1 -57 29 -47 62 -86 191 -71 237 7 24 39 26 75 5 27 -15 68 -19
94 -9 9 4 49 50 89 103 39 53 86 113 104 135 38 45 49 86 32 117 -28 54 -106
149 -164 202 -66 60 -116 87 -160 87 -21 0 -25 4 -25 31 0 43 25 91 78 150 53
59 88 79 137 79 60 0 99 -26 185 -126 93 -108 120 -129 154 -120 25 6 47 48
81 156 28 88 104 224 163 293 21 24 58 21 107 -8z m-1085 -394 c21 -39 11 -70
-34 -115 -41 -39 -45 -47 -53 -112 -12 -103 -8 -447 6 -539 18 -111 33 -142
101 -205 79 -74 80 -97 8 -132 -52 -26 -122 -50 -243 -83 -33 -9 -109 -37
-169 -62 -103 -42 -111 -44 -123 -27 -7 10 -13 30 -13 46 0 22 8 32 39 47 43
22 93 93 110 156 21 77 7 262 -27 354 -31 84 -90 60 -135 -54 -8 -22 -60 -132
-115 -245 -54 -113 -114 -250 -132 -305 -45 -137 -64 -173 -97 -181 -23 -6
-32 -1 -59 30 -30 34 -175 309 -204 386 -32 85 -42 101 -64 98 -16 -2 -23 -13
-28 -43 -4 -22 -29 -146 -54 -275 -53 -266 -86 -349 -167 -428 -43 -42 -46
-43 -90 -37 -25 4 -53 12 -61 19 -19 14 -38 133 -34 212 l3 59 47 5 c57 7 111
47 150 111 29 46 88 266 109 399 18 120 -6 211 -68 260 -25 20 -37 22 -120 18
-103 -4 -103 -5 -103 77 0 55 8 63 68 75 29 5 64 16 79 24 74 38 344 103 376
90 18 -6 122 -190 203 -356 40 -81 72 -132 88 -143 25 -16 27 -16 70 9 58 34
82 65 101 134 9 31 31 95 50 142 40 98 96 261 130 373 31 105 41 117 111 138
32 10 115 36 184 58 69 22 130 40 137 41 7 0 17 -9 23 -19z m-1771 -572 c24
-69 13 -115 -42 -179 l-30 -34 9 -136 c4 -74 9 -196 9 -270 1 -193 14 -498 26
-614 10 -90 9 -104 -11 -165 -24 -71 -48 -105 -120 -162 -78 -62 -134 -88
-212 -99 -40 -6 -91 -15 -113 -21 -81 -22 -276 10 -322 53 -39 36 -70 97 -87
171 -22 93 -20 119 10 180 33 66 50 84 96 108 85 43 114 15 102 -100 -5 -58
-3 -69 15 -93 28 -35 76 -48 183 -48 99 0 135 12 146 49 11 42 5 264 -12 423
-9 81 -16 198 -16 260 0 123 -27 274 -51 289 -25 16 -79 9 -127 -16 -26 -13
-61 -27 -79 -31 -28 -5 -33 -3 -48 26 -33 63 -45 122 -34 162 12 45 31 57 80
51 79 -11 318 78 489 181 92 56 124 59 139 15z"/>
</g>
</svg>
