<svg width="32" height="32" viewBox="0 0 32 32" fill="none" xmlns="http://www.w3.org/2000/svg">
<g clip-path="url(#clip0_144_566112)">
<path d="M32 16C32 24.8366 24.8366 32 16 32C7.16344 32 0 24.8366 0 16C0 7.16344 7.16344 0 16 0C24.8366 0 32 7.16344 32 16Z" fill="#718C97"/>
<path fill-rule="evenodd" clip-rule="evenodd" d="M14.4219 6.86359C11.6152 7.38719 9.22597 9.20786 7.99326 11.7625C7.29632 13.207 7.10897 14.0518 7.1108 15.7415C7.11213 16.9907 7.14613 17.2823 7.38235 18.0665C7.88126 19.7235 8.90484 21.401 9.98096 22.3253L10.4509 22.729L8.74549 22.7297L7.04004 22.7303V24.0057V25.281H10.5019H13.9637L13.9575 23.5211L13.9514 21.7611L13.1175 21.3621C11.9487 20.8027 10.9041 19.7535 10.3051 18.5373C9.39173 16.683 9.39173 14.698 10.3051 12.8438C11.0773 11.276 12.5788 10.0278 14.32 9.50628C15.1525 9.25683 16.8479 9.25652 17.6739 9.50557C18.8288 9.85379 19.6628 10.3583 20.5417 11.2403C21.5167 12.2187 21.9992 13.1189 22.2685 14.4617C22.561 15.9204 22.3015 17.5584 21.5741 18.8431C20.9278 19.9846 19.5098 21.2307 18.4182 21.6162L18.0364 21.7511V23.5161V25.281H21.4982H24.96V24.0057V22.7303H23.2943H21.6287L22.3549 21.9907C24.9693 19.3279 25.6838 15.3498 24.1546 11.9702C22.4919 8.29564 18.3616 6.12859 14.4219 6.86359Z" fill="white"/>
<path fill-rule="evenodd" clip-rule="evenodd" d="M25.2238 11.2769C25.9446 11.0075 26.6934 10.8117 27.443 10.6344C28.0423 10.4926 28.6422 10.3627 29.24 10.2085C29.6132 10.1122 29.9854 10.0066 30.3336 9.84092C30.612 9.70845 30.8746 9.53795 31.0907 9.32116C31.3065 9.10438 31.4758 8.84169 31.6024 8.56289C31.7609 8.21439 31.8528 7.84059 31.9164 7.46154C31.9928 7.00699 32.0285 6.54494 31.9731 6.09245C31.9176 5.63996 31.771 5.19684 31.5718 4.78107C31.3727 4.36511 31.121 3.9767 30.8217 3.62932C30.4224 3.16577 29.9386 2.7753 29.4269 2.43242C28.7866 2.00316 28.1028 1.64829 27.4016 1.33257C26.7002 1.01686 25.9813 0.740493 25.2476 0.506471C24.6603 0.319291 24.0637 0.159279 23.4534 0.07028C22.9965 0.00357722 22.5319 -0.0232163 22.071 0.0234382C21.6108 0.0700926 21.1545 0.190008 20.7422 0.396112C20.3299 0.602216 19.9616 0.894321 19.6478 1.23139C19.3334 1.56884 19.0734 1.95145 18.8571 2.35635C18.6405 2.76162 18.4678 3.18938 18.3363 3.62876C18.2048 4.06832 18.1145 4.51969 18.0607 4.97518C17.989 5.58225 17.9822 6.19644 18.0329 6.80482C18.0964 7.56497 18.2496 8.31631 18.4249 9.06241C18.6005 9.80832 18.7981 10.5494 19.0987 11.2529C19.3391 11.8154 19.6452 12.3543 20.0491 12.8176C20.3012 13.1069 20.5916 13.3668 20.9183 13.5705C21.1796 13.7335 21.4641 13.8603 21.763 13.9319C21.9875 13.9857 22.2201 14.008 22.4514 13.9975C22.6825 13.987 22.9124 13.9435 23.1301 13.8673C23.4197 13.7657 23.6882 13.6059 23.9236 13.4088C24.2184 13.162 24.4616 12.8566 24.6626 12.5293C24.9041 12.1365 25.0847 11.7123 25.2238 11.2769Z" fill="white"/>
<path d="M24.0667 4.46106L23.9619 4.60578L24.0509 5.33761L24.1332 5.16718L24.0667 4.46106Z" fill="#FBF100"/>
<path d="M22.71 0.972244L22.1514 1.00647L22.4271 1.10499L22.9169 1.07076L22.71 0.972244Z" fill="#A40000"/>
<path d="M23.9688 3.7756L23.8311 3.89579L23.962 4.60569L24.0667 4.46097L23.9688 3.7756Z" fill="#FFAE00"/>
<path d="M22.9165 1.07079L22.4268 1.10501L22.7029 1.32282L23.1235 1.28408L22.9165 1.07079Z" fill="#A80000"/>
<path d="M23.8424 3.13033L23.6621 3.2279L23.8316 3.89595L23.9693 3.77576L23.8424 3.13033Z" fill="#FF7300"/>
<path d="M23.1237 1.28404L22.7031 1.32279L22.972 1.65445L23.3253 1.60677L23.1237 1.28404Z" fill="#B60000"/>
<path d="M23.6894 2.54283L23.458 2.62038L23.6616 3.22772L23.8419 3.13015L23.6894 2.54283Z" fill="#FF3F00"/>
<path d="M23.3249 1.60684L22.9717 1.65451L23.2257 2.0911L23.5153 2.03036L23.3249 1.60684Z" fill="#D60000"/>
<path d="M23.5152 2.03018L23.2256 2.09092L23.4576 2.62036L23.689 2.54281L23.5152 2.03018Z" fill="#FF1300"/>
<path d="M25.1918 6.75554L24.7072 6.85735L24.6836 7.40351L25.1867 7.27194L25.1918 6.75554Z" fill="#16FFE1"/>
<path d="M25.1959 6.19579L24.7201 6.26392L24.707 6.85736L25.1916 6.75556L25.1959 6.19579Z" fill="#4DFFAA"/>
<path d="M25.1999 5.60715L24.7227 5.6386L24.7207 6.26394L25.1965 6.1958L25.1999 5.60715Z" fill="#80FF77"/>
<path d="M25.2016 5.0052L24.7129 4.99794L24.7222 5.63866L25.1994 5.60721L25.2016 5.0052Z" fill="#B7FF40"/>
<path d="M25.2026 4.40616L24.6924 4.35928L24.7127 4.99807L25.2015 5.00532L25.2026 4.40616Z" fill="#EBFF0C"/>
<path d="M25.1736 1.48143L24.2471 1.21487L24.3163 1.30251L25.1802 1.55926L25.1736 1.48143Z" fill="#ED0400"/>
<path d="M25.2032 3.82618L24.6621 3.73993L24.6931 4.35926L25.2033 4.40614L25.2032 3.82618Z" fill="#FFCC00"/>
<path d="M25.1802 1.55945L24.3164 1.3027L24.3854 1.49403L25.1863 1.7347L25.1802 1.55945Z" fill="#F10800"/>
<path d="M25.2018 3.28147L24.6211 3.15726L24.6619 3.73992L25.203 3.82617L25.2018 3.28147Z" fill="#FF9800"/>
<path d="M25.1857 1.73457L24.3848 1.4939L24.4515 1.78412L25.191 2.00282L25.1857 1.73457Z" fill="#FF1300"/>
<path d="M25.1991 2.78702L24.5713 2.6274L24.6208 3.15715L25.2015 3.28136L25.1991 2.78702Z" fill="#FF6C00"/>
<path d="M25.1916 2.00275L24.4521 1.78404L24.5149 2.16538L25.1961 2.35681L25.1916 2.00275Z" fill="#FF2900"/>
<path d="M25.1959 2.35702L24.5146 2.16559L24.5715 2.62757L25.1994 2.7872L25.1959 2.35702Z" fill="#FF4700"/>
<path d="M24.7077 6.85754L24.3506 7.01278L24.3066 7.58706L24.684 7.40371L24.7077 6.85754Z" fill="#13FCE4"/>
<path d="M24.7207 6.26398L24.3734 6.38779L24.3506 7.01265L24.7076 6.85742L24.7207 6.26398Z" fill="#49FFAD"/>
<path d="M24.7227 5.63864L24.3506 5.72862L24.3735 6.3878L24.7207 6.26399L24.7227 5.63864Z" fill="#80FF77"/>
<path d="M24.713 4.99797L24.3525 5.05243L24.3739 5.72861L24.7223 5.63869L24.713 4.99797Z" fill="#BAFF3C"/>
<path d="M24.6929 4.35933L24.3096 4.37778L24.3528 5.05257L24.7133 4.99811L24.6929 4.35933Z" fill="#F1FC06"/>
<path d="M24.2472 1.21498L23.415 1.04279L23.552 1.13752L24.3165 1.30262L24.2472 1.21498Z" fill="#D10000"/>
<path d="M24.6616 3.73978L24.2451 3.72272L24.3092 4.37754L24.6926 4.35909L24.6616 3.73978Z" fill="#FFC100"/>
<path d="M24.3163 1.30254L23.5518 1.13744L23.6887 1.34169L24.3852 1.49387L24.3163 1.30254Z" fill="#D60000"/>
<path d="M24.6211 3.1572L24.1621 3.10619L24.2454 3.7228L24.6619 3.73987L24.6211 3.1572Z" fill="#FF8900"/>
<path d="M24.3851 1.49385L23.6885 1.34167L23.8216 1.65033L24.4518 1.78405L24.3851 1.49385Z" fill="#E40000"/>
<path d="M24.5723 2.6275L24.0625 2.54512L24.1628 3.10623L24.6218 3.15724L24.5723 2.6275Z" fill="#FF5D00"/>
<path d="M24.4525 1.78427L23.8223 1.65056L23.9478 2.05539L24.5152 2.16561L24.4525 1.78427Z" fill="#FF1300"/>
<path d="M24.5147 2.16543L23.9473 2.05521L24.0618 2.54502L24.5715 2.62741L24.5147 2.16543Z" fill="#FF3400"/>
<path d="M25.7778 6.70844L25.1926 6.75578L25.1875 7.27218L25.7887 7.19393L25.7778 6.70844Z" fill="#1CFFDB"/>
<path d="M25.7743 6.18365L25.1967 6.19578L25.1924 6.75556L25.7775 6.70821L25.7743 6.18365Z" fill="#50FFA7"/>
<path d="M25.7797 5.63373L25.2006 5.60725L25.1973 6.19593L25.7749 6.1838L25.7797 5.63373Z" fill="#80FF77"/>
<path d="M25.792 5.07253L25.2025 5.00513L25.2002 5.60712L25.7793 5.6336L25.792 5.07253Z" fill="#B4FF43"/>
<path d="M25.812 4.51568L25.2033 4.40619L25.2021 5.00535L25.7917 5.07275L25.812 4.51568Z" fill="#E4FF13"/>
<path d="M25.8393 3.97759L25.2031 3.82607L25.2032 4.40601L25.8119 4.51551L25.8393 3.97759Z" fill="#FFD700"/>
<path d="M26.151 1.83138L25.1738 1.48163L25.1804 1.55946L26.1021 1.89739L26.151 1.83138Z" fill="#FF1E00"/>
<path d="M25.8734 3.47364L25.2021 3.28137L25.2034 3.82609L25.8396 3.97762L25.8734 3.47364Z" fill="#FFA700"/>
<path d="M26.1024 1.89727L25.1807 1.55934L25.1867 1.73459L26.0528 2.05414L26.1024 1.89727Z" fill="#FF1E00"/>
<path d="M25.9122 3.01762L25.1992 2.78712L25.2016 3.28145L25.8729 3.47371L25.9122 3.01762Z" fill="#FF7E00"/>
<path d="M26.0526 2.05418L25.1865 1.73463L25.1919 2.00288L26.0036 2.29795L26.0526 2.05418Z" fill="#FF2900"/>
<path d="M25.9565 2.62201L25.1963 2.35692L25.1998 2.78709L25.9127 3.01758L25.9565 2.62201Z" fill="#FF5900"/>
<path d="M26.0041 2.29779L25.1924 2.00272L25.1968 2.35677L25.9571 2.62187L26.0041 2.29779Z" fill="#FF3B00"/>
<path d="M24.3723 10.5932L25.1586 10.2959L25.0018 10.3792L24.2041 10.6827L24.3723 10.5932Z" fill="#00CCFF"/>
<path d="M24.5258 10.4573L25.3019 10.1697L25.1584 10.296L24.3721 10.5932L24.5258 10.4573Z" fill="#00DCFE"/>
<path d="M24.6607 10.2782L25.428 10.0033L25.3015 10.1695L24.5254 10.4572L24.6607 10.2782Z" fill="#09F0EE"/>
<path d="M24.7734 10.0606L25.5336 9.80133L25.4275 10.0035L24.6602 10.2784L24.7734 10.0606Z" fill="#1CFFDB"/>
<path d="M24.8626 9.80943L25.6175 9.56836L25.5346 9.80133L24.7744 10.0606L24.8626 9.80943Z" fill="#33FFC4"/>
<path d="M24.923 9.53115L25.6747 9.3103L25.6172 9.56823L24.8623 9.80931L24.923 9.53115Z" fill="#4DFFAA"/>
<path d="M24.9544 9.23322L25.7049 9.03415L25.6745 9.31045L24.9229 9.5313L24.9544 9.23322Z" fill="#63FF94"/>
<path d="M24.9555 8.92286L25.7071 8.74657L25.7046 9.0341L24.9541 9.23316L24.9555 8.92286Z" fill="#7DFF7A"/>
<path d="M24.9268 8.60844L25.6816 8.45532L25.7073 8.74658L24.9557 8.92288L24.9268 8.60844Z" fill="#97FF60"/>
<path d="M24.8682 8.29809L25.6283 8.16792L25.6817 8.45526L24.9269 8.60838L24.8682 8.29809Z" fill="#B1FF46"/>
<path d="M24.7812 8.00016L25.5487 7.89209L25.6284 8.16787L24.8682 8.29804L24.7812 8.00016Z" fill="#C7FF30"/>
<path d="M24.668 7.72273L25.4445 7.63531L25.5485 7.89219L24.781 8.00025L24.668 7.72273Z" fill="#DEFF19"/>
<path d="M23.6465 6.84136L24.4992 6.81981L24.6744 6.84816L23.8353 6.87202L23.6465 6.84136Z" fill="#FFCC00"/>
<path d="M24.5322 7.47307L25.3195 7.40427L25.445 7.63534L24.6684 7.72276L24.5322 7.47307Z" fill="#F1FC06"/>
<path d="M23.835 6.87199L24.6741 6.84813L24.8483 6.92328L24.0228 6.95323L23.835 6.87199Z" fill="#FFCC00"/>
<path d="M24.376 7.25778L25.1751 7.20505L25.3189 7.40411L24.5317 7.47291L24.376 7.25778Z" fill="#FFEA00"/>
<path d="M24.0234 6.9532L24.8489 6.92325L25.0174 7.04327L24.2054 7.08293L24.0234 6.9532Z" fill="#FFD000"/>
<path d="M24.2051 7.08295L25.0171 7.04329L25.1754 7.20499L24.3762 7.25773L24.2051 7.08295Z" fill="#FFDB00"/>
<path d="M24.3535 5.05231L24.1338 5.16701L24.1673 5.87442L24.3749 5.72847L24.3535 5.05231Z" fill="#BEFF39"/>
<path d="M24.3104 4.37755L24.0674 4.46091L24.1339 5.16705L24.3536 5.05235L24.3104 4.37755Z" fill="#F8F500"/>
<path d="M23.4153 1.04276L22.71 0.972229L22.9168 1.07075L23.5522 1.13749L23.4153 1.04276Z" fill="#BB0000"/>
<path d="M24.2456 3.72272L23.9688 3.77555L24.0667 4.46092L24.3097 4.37756L24.2456 3.72272Z" fill="#FFB900"/>
<path d="M23.5524 1.13755L22.917 1.0708L23.1241 1.28409L23.6893 1.3418L23.5524 1.13755Z" fill="#BF0000"/>
<path d="M24.1623 3.10605L23.8418 3.13009L23.9687 3.77552L24.2456 3.72268L24.1623 3.10605Z" fill="#FF7E00"/>
<path d="M23.6893 1.34185L23.124 1.28413L23.3256 1.60686L23.8224 1.65051L23.6893 1.34185Z" fill="#CD0000"/>
<path d="M24.0621 2.54515L23.6895 2.543L23.8419 3.13032L24.1624 3.10628L24.0621 2.54515Z" fill="#FF4E00"/>
<path d="M23.822 1.65048L23.3252 1.60683L23.5156 2.03035L23.9476 2.0553L23.822 1.65048Z" fill="#E80000"/>
<path d="M23.9476 2.05533L23.5156 2.03038L23.6895 2.543L24.0621 2.54515L23.9476 2.05533Z" fill="#FF2200"/>
<path d="M23.8864 10.7628L24.5259 10.4572L24.3722 10.5931L23.7197 10.9105L23.8864 10.7628Z" fill="#00D0FF"/>
<path d="M24.0332 10.568L24.6615 10.2782L24.5263 10.4573L23.8867 10.7628L24.0332 10.568Z" fill="#00E4F8"/>
<path d="M24.1556 10.3307L24.7748 10.0603L24.6616 10.2781L24.0332 10.5679L24.1556 10.3307Z" fill="#16FFE1"/>
<path d="M24.2503 10.0574L24.8627 9.80942L24.7745 10.0605L24.1553 10.331L24.2503 10.0574Z" fill="#2CFFCA"/>
<path d="M24.3151 9.75425L24.9231 9.53131L24.8624 9.80946L24.25 10.0574L24.3151 9.75425Z" fill="#46FFB1"/>
<path d="M24.3487 9.42914L24.955 9.23315L24.9234 9.53123L24.3154 9.75417L24.3487 9.42914Z" fill="#63FF94"/>
<path d="M24.349 9.09047L24.9563 8.92268L24.9549 9.23299L24.3486 9.42897L24.349 9.09047Z" fill="#7DFF7A"/>
<path d="M24.3164 8.74745L24.9273 8.60837L24.9563 8.9228L24.3491 9.09058L24.3164 8.74745Z" fill="#9AFF5D"/>
<path d="M24.251 8.40877L24.8682 8.29813L24.9269 8.6084L24.316 8.74748L24.251 8.40877Z" fill="#B7FF40"/>
<path d="M24.1553 8.08338L24.7814 8.00014L24.8683 8.29801L24.2511 8.40866L24.1553 8.08338Z" fill="#D1FF26"/>
<path d="M24.0312 7.78024L24.6684 7.7226L24.7815 8.00011L24.1554 8.08335L24.0312 7.78024Z" fill="#E7FF0F"/>
<path d="M23.8818 7.50746L24.5321 7.47289L24.6683 7.72257L24.0311 7.78022L23.8818 7.50746Z" fill="#FBF100"/>
<path d="M23.7119 7.27251L24.3769 7.25786L24.5326 7.47299L23.8823 7.50756L23.7119 7.27251Z" fill="#FFDB00"/>
<path d="M19.4912 9.33927L19.5997 9.69246L19.4171 8.99802L19.3047 8.63013L19.4912 9.33927Z" fill="#00B4FF"/>
<path d="M19.2069 8.23203L19.3074 8.64312L19.4171 8.99802L19.2975 8.27846L19.1279 7.67731L19.2069 8.23203Z" fill="#16FFE1"/>
<path d="M19.1824 7.89497L19.2976 8.27833L19.2446 7.55129L19.1279 7.15207L19.1824 7.89497Z" fill="#56FFA0"/>
<path d="M19.1279 7.15202L19.2446 7.55124L19.2603 6.8349L19.1435 6.41982L19.1279 7.15202Z" fill="#97FF60"/>
<path d="M19.1436 6.41974L19.2604 6.83483L19.3452 6.14752L19.2295 5.71695L19.1436 6.41974Z" fill="#D4FF23"/>
<path d="M19.2295 5.71695L19.3451 6.14753L19.4977 5.50736L19.3846 5.06207L19.2295 5.71695Z" fill="#FFD700"/>
<path d="M19.3848 5.06214L19.4978 5.50742L19.715 4.93166L19.6058 4.47289L19.3848 5.06214Z" fill="#FF9400"/>
<path d="M19.6055 4.47291L19.7146 4.93168L19.9915 4.43632L19.8875 3.96564L19.6055 4.47291Z" fill="#FF5900"/>
<path d="M19.8877 3.96576L19.9917 4.43645L20.3216 4.03572L20.2239 3.55507L19.8877 3.96576Z" fill="#FF2500"/>
<path d="M24.5762 7.30893L24.5872 7.71535L24.6569 8.46177L24.6473 8.07197L24.5762 7.30893Z" fill="#C1FF36"/>
<path d="M20.2236 3.55513L20.3213 4.03578L20.696 3.74158L20.6055 3.25327L20.2236 3.55513Z" fill="#DF0000"/>
<path d="M24.4326 6.55325L24.4466 6.97611L24.587 7.71529L24.5759 7.30887L24.4326 6.55325Z" fill="#FFEA00"/>
<path d="M20.6064 3.25314L20.6969 3.74145L21.1064 3.56286L21.0241 3.06943L20.6064 3.25314Z" fill="#BB0000"/>
<path d="M24.2207 5.8259L24.239 6.26451L24.4469 6.97614L24.4329 6.55328L24.2207 5.8259Z" fill="#FFA700"/>
<path d="M21.0234 3.06935L21.1057 3.56278L21.5393 3.50573L21.4657 3.00993L21.0234 3.06935Z" fill="#9F0000"/>
<path d="M23.9453 5.14709L23.9692 5.60033L24.2394 6.26457L24.2211 5.82596L23.9453 5.14709Z" fill="#FF6C00"/>
<path d="M21.4658 3.00983L21.5394 3.50562L21.9851 3.57258L21.9205 3.07721L21.4658 3.00983Z" fill="#920000"/>
<path d="M23.6133 4.53592L23.6439 5.00215L23.9693 5.60022L23.9455 5.14699L23.6133 4.53592Z" fill="#FF3400"/>
<path d="M21.9199 3.07745L21.9845 3.57282L22.43 3.76258L22.3745 3.27054L21.9199 3.07745Z" fill="#960000"/>
<path d="M23.2334 4.00998L23.2716 4.48725L23.6436 5.00218L23.613 4.53594L23.2334 4.00998Z" fill="#F10800"/>
<path d="M22.375 3.27048L22.4305 3.76252L22.8634 4.07022L22.8167 3.58428L22.375 3.27048Z" fill="#A40000"/>
<path d="M22.8164 3.5843L22.8631 4.07025L23.2711 4.48741L23.2329 4.01014L22.8164 3.5843Z" fill="#C40000"/>
<path d="M19.0828 7.4878L19.1824 7.89506L19.1279 7.15216L19.0273 6.73537L19.0828 7.4878Z" fill="#53FFA4"/>
<path d="M19.0273 6.7353L19.1279 7.15209L19.1434 6.41989L19.0426 5.9935L19.0273 6.7353Z" fill="#97FF60"/>
<path d="M19.043 5.99351L19.1438 6.41989L19.2297 5.7171L19.1294 5.2813L19.043 5.99351Z" fill="#D7FF1F"/>
<path d="M19.1289 5.28117L19.2292 5.71698L19.3843 5.0621L19.2853 4.61731L19.1289 5.28117Z" fill="#FFD300"/>
<path d="M19.2852 4.61739L19.3842 5.06218L19.6053 4.4729L19.5082 4.01976L19.2852 4.61739Z" fill="#FF9100"/>
<path d="M19.5088 4.01979L19.6059 4.47294L19.8879 3.96567L19.7935 3.5051L19.5088 4.01979Z" fill="#FF5200"/>
<path d="M19.793 3.50513L19.8874 3.9657L20.2236 3.55504L20.1325 3.08817L19.793 3.50513Z" fill="#FF1E00"/>
<path d="M20.1328 3.08813L20.2239 3.555L20.6058 3.25311L20.5186 2.78127L20.1328 3.08813Z" fill="#D60000"/>
<path d="M20.5186 2.78124L20.6057 3.25308L21.0234 3.06936L20.9406 2.59406L20.5186 2.78124Z" fill="#AD0000"/>
<path d="M24.1729 5.38058L24.2204 5.82584L24.4326 6.55322L24.3875 6.11724L24.1729 5.38058Z" fill="#FFA300"/>
<path d="M20.9404 2.59399L21.0233 3.06929L21.4655 3.00986L21.3873 2.5327L20.9404 2.59399Z" fill="#920000"/>
<path d="M23.8945 4.69339L23.9452 5.1472L24.221 5.82603L24.1735 5.38078L23.8945 4.69339Z" fill="#FF6400"/>
<path d="M21.3877 2.53271L21.4658 3.00987L21.9205 3.07728L21.8473 2.59998L21.3877 2.53271Z" fill="#840000"/>
<path d="M23.5586 4.07469L23.6131 4.53601L23.9453 5.14711L23.8946 4.6933L23.5586 4.07469Z" fill="#FF2D00"/>
<path d="M21.8467 2.60005L21.9199 3.07735L22.3745 3.27043L22.3062 2.79472L21.8467 2.60005Z" fill="#890000"/>
<path d="M23.1748 3.5424L23.2335 4.01003L23.6131 4.53599L23.5587 4.07467L23.1748 3.5424Z" fill="#E40000"/>
<path d="M22.3066 2.79482L22.3749 3.27053L22.8166 3.5843L22.7532 3.11185L22.3066 2.79482Z" fill="#9B0000"/>
<path d="M22.7529 3.11183L22.8163 3.58428L23.2328 4.01014L23.1741 3.54252L22.7529 3.11183Z" fill="#BB0000"/>
<path d="M19.1527 7.82128L19.207 8.23203L19.083 7.4878L19.0283 7.07416L19.1527 7.82128Z" fill="#13FCE4"/>
<path d="M19.4174 8.99799L19.5219 9.32032L19.406 8.62218L19.2979 8.27844L19.4174 8.99799Z" fill="#19FFDE"/>
<path d="M19.2981 8.27844L19.4063 8.62218L19.3552 7.91702L19.2451 7.55138L19.2981 8.27844Z" fill="#56FFA0"/>
<path d="M19.2451 7.55137L19.3552 7.91701L19.3709 7.22251L19.2608 6.83505L19.2451 7.55137Z" fill="#94FF63"/>
<path d="M19.2607 6.83501L19.3708 7.22246L19.4536 6.5564L19.3455 6.14771L19.2607 6.83501Z" fill="#D1FF26"/>
<path d="M19.3457 6.14752L19.4538 6.55622L19.6024 5.93614L19.4982 5.50735L19.3457 6.14752Z" fill="#FFDB00"/>
<path d="M19.498 5.50746L19.6022 5.93624L19.8135 5.37883L19.7152 4.93167L19.498 5.50746Z" fill="#FF9C00"/>
<path d="M19.7158 4.93181L19.8141 5.37897L20.0833 4.89974L19.9927 4.43648L19.7158 4.93181Z" fill="#FF6000"/>
<path d="M19.9922 4.43651L20.0828 4.89976L20.4035 4.51239L20.3221 4.03578L19.9922 4.43651Z" fill="#FF3000"/>
<path d="M24.5876 7.71552L24.5449 8.08558L24.6128 8.80903L24.6573 8.46194L24.5876 7.71552Z" fill="#C1FF36"/>
<path d="M20.3223 4.03569L20.4036 4.5123L20.7676 4.22824L20.6969 3.74149L20.3223 4.03569Z" fill="#F10800"/>
<path d="M24.4479 6.97632L24.4092 7.36912L24.5456 8.08555L24.5883 7.71549L24.4479 6.97632Z" fill="#FBF100"/>
<path d="M20.6963 3.74151L20.767 4.22826L21.1648 4.05628L21.1059 3.56291L20.6963 3.74151Z" fill="#C80000"/>
<path d="M24.2398 6.26456L24.207 6.67927L24.4089 7.369L24.4477 6.97619L24.2398 6.26456Z" fill="#FFAE00"/>
<path d="M21.1064 3.56293L21.1654 4.0563L21.5864 4.00208L21.54 3.50587L21.1064 3.56293Z" fill="#AD0000"/>
<path d="M23.9692 5.60049L23.9443 6.03558L24.2067 6.67942L24.2395 6.26471L23.9692 5.60049Z" fill="#FF7300"/>
<path d="M21.54 3.50571L21.5864 4.00191L22.0191 4.06777L21.9857 3.57266L21.54 3.50571Z" fill="#A40000"/>
<path d="M23.6443 5.00232L23.6289 5.45564L23.9449 6.03547L23.9698 5.60038L23.6443 5.00232Z" fill="#FF3F00"/>
<path d="M21.9854 3.57275L22.0187 4.06786L22.4511 4.25259L22.4308 3.76252L21.9854 3.57275Z" fill="#A40000"/>
<path d="M23.272 4.48737L23.2676 4.95623L23.6286 5.45561L23.644 5.00229L23.272 4.48737Z" fill="#FF1300"/>
<path d="M22.4316 3.7626L22.4519 4.25268L22.872 4.55154L22.8645 4.07028L22.4316 3.7626Z" fill="#B60000"/>
<path d="M22.8643 4.07008L22.8718 4.55134L23.2679 4.95614L23.2723 4.48728L22.8643 4.07008Z" fill="#D10000"/>
<path d="M19.6005 9.69241L19.6996 9.9943L19.5224 9.32029L19.418 8.99797L19.6005 9.69241Z" fill="#00BCFF"/>
<path d="M19.6986 9.99408L19.7756 10.2329L19.6052 9.58465L19.5215 9.32008L19.6986 9.99408Z" fill="#00C4FF"/>
<path d="M19.5221 9.3202L19.6058 9.58477L19.4946 8.9135L19.4062 8.62207L19.5221 9.3202Z" fill="#1CFFDB"/>
<path d="M19.4056 8.62203L19.4939 8.91346L19.445 8.23573L19.3545 7.91687L19.4056 8.62203Z" fill="#56FFA0"/>
<path d="M19.3545 7.91692L19.445 8.23578L19.4604 7.56856L19.3702 7.22243L19.3545 7.91692Z" fill="#94FF63"/>
<path d="M19.3701 7.22252L19.4604 7.56865L19.5404 6.92906L19.4529 6.55646L19.3701 7.22252Z" fill="#CEFF29"/>
<path d="M24.4025 10.8313L24.3032 11.0429L24.1123 11.5878L24.2038 11.3983L24.4025 10.8313Z" fill="#00B0FF"/>
<path d="M19.4531 6.55643L19.5406 6.92903L19.684 6.33388L19.6017 5.93634L19.4531 6.55643Z" fill="#FFE200"/>
<path d="M24.5399 10.1998L24.435 10.4363L24.3037 11.0429L24.4031 10.8312L24.5399 10.1998Z" fill="#0CF4EB"/>
<path d="M19.6016 5.93628L19.6838 6.33383L19.8874 5.79916L19.8129 5.37888L19.6016 5.93628Z" fill="#FFA300"/>
<path d="M24.6102 9.51988L24.5022 9.78312L24.4346 10.4362L24.5395 10.1998L24.6102 9.51988Z" fill="#46FFB1"/>
<path d="M19.8135 5.37885L19.888 5.79914L20.1472 5.33975L20.0827 4.89958L19.8135 5.37885Z" fill="#FF6C00"/>
<path d="M24.6128 8.80899L24.5043 9.10037L24.5029 9.78325L24.6109 9.52001L24.6128 8.80899Z" fill="#80FF77"/>
<path d="M20.082 4.89973L20.1466 5.3399L20.4551 4.96891L20.4027 4.51236L20.082 4.89973Z" fill="#FF3B00"/>
<path d="M24.5447 8.0854L24.4385 8.4055L24.5041 9.10023L24.6126 8.80886L24.5447 8.0854Z" fill="#BEFF39"/>
<path d="M20.4023 4.5122L20.4548 4.96876L20.805 4.69706L20.7663 4.22813L20.4023 4.5122Z" fill="#FF1300"/>
<path d="M24.408 7.36903L24.3066 7.71765L24.4381 8.40556L24.5444 8.08546L24.408 7.36903Z" fill="#F8F500"/>
<path d="M20.7666 4.22815L20.8053 4.69707L21.1878 4.53301L21.1644 4.05617L20.7666 4.22815Z" fill="#DA0000"/>
<path d="M24.2061 6.67924L24.1123 7.05535L24.3067 7.71759L24.408 7.36897L24.2061 6.67924Z" fill="#FFB600"/>
<path d="M21.165 4.05621L21.1885 4.53304L21.5932 4.48199L21.586 4.002L21.165 4.05621Z" fill="#C40000"/>
<path d="M23.9442 6.0354L23.8604 6.43716L24.1128 7.05537L24.2066 6.67927L23.9442 6.0354Z" fill="#FF7E00"/>
<path d="M21.5859 4.00188L21.5932 4.48187L22.0091 4.54599L22.0186 4.06773L21.5859 4.00188Z" fill="#B60000"/>
<path d="M23.6284 5.45572L23.5566 5.88051L23.8605 6.43731L23.9444 6.03555L23.6284 5.45572Z" fill="#FF4A00"/>
<path d="M22.0183 4.06776L22.0088 4.54602L22.4245 4.72412L22.4507 4.25251L22.0183 4.06776Z" fill="#BB0000"/>
<path d="M23.2668 4.95636L23.209 5.40083L23.5561 5.88053L23.6278 5.45574L23.2668 4.95636Z" fill="#FF1E00"/>
<path d="M22.451 4.25241L22.4248 4.72402L22.8286 5.01152L22.8712 4.55126L22.451 4.25241Z" fill="#C80000"/>
<path d="M22.8706 4.55151L22.8281 5.01177L23.2089 5.40079L23.2667 4.95631L22.8706 4.55151Z" fill="#E40000"/>
<path d="M23.4749 10.5533L24.3239 10.2601L24.1634 10.1215L23.3018 10.4037L23.4749 10.5533Z" fill="#00C4FF"/>
<path d="M23.3013 10.4039L24.1629 10.1217L24.0142 9.94493L23.1406 10.2132L23.3013 10.4039Z" fill="#00D0FF"/>
<path d="M23.1412 10.2131L24.0148 9.94484L23.8816 9.73442L22.9971 9.9862L23.1412 10.2131Z" fill="#00E0FB"/>
<path d="M22.997 9.98629L23.8815 9.73451L23.7674 9.49564L22.873 9.72869L22.997 9.98629Z" fill="#0FF8E7"/>
<path d="M22.7444 10.8656L23.475 10.5533L23.3018 10.4038L22.5557 10.7025L22.7444 10.8656Z" fill="#00B4FF"/>
<path d="M22.5552 10.7027L23.3014 10.4039L23.1408 10.2133L22.3799 10.4948L22.5552 10.7027Z" fill="#00C0FF"/>
<path d="M22.9416 10.9801L23.6561 10.6582L23.4747 10.5534L22.7441 10.8657L22.9416 10.9801Z" fill="#00A8FF"/>
<path d="M22.873 9.72852L23.7673 9.49546L23.675 9.2341L22.7725 9.44667L22.873 9.72852Z" fill="#23FFD4"/>
<path d="M22.3802 10.4949L23.1411 10.2133L22.997 9.98636L22.2227 10.2476L22.3802 10.4949Z" fill="#00D4FF"/>
<path d="M23.1437 11.0428L23.8418 10.7155L23.6568 10.6582L22.9424 10.9801L23.1437 11.0428Z" fill="#00A8FF"/>
<path d="M22.2227 10.2475L22.9971 9.98631L22.8732 9.72871L22.0869 9.96682L22.2227 10.2475Z" fill="#06ECF1"/>
<path d="M22.7728 9.44677L23.6754 9.2342L23.6073 8.95689L22.6982 9.14772L22.7728 9.44677Z" fill="#39FFBE"/>
<path d="M23.3436 11.052L24.0257 10.7237L23.8417 10.7154L23.1436 11.0427L23.3436 11.052Z" fill="#00A8FF"/>
<path d="M22.0871 9.96664L22.8734 9.72853L22.7728 9.44669L21.9766 9.65951L22.0871 9.96664Z" fill="#1CFFDB"/>
<path d="M22.698 9.14767L23.6071 8.95684L23.5651 8.67058L22.6514 8.83892L22.698 9.14767Z" fill="#53FFA4"/>
<path d="M21.976 9.65974L22.7722 9.44692L22.6976 9.14786L21.8936 9.33381L21.976 9.65974Z" fill="#36FFC1"/>
<path d="M22.6511 8.83906L23.5649 8.67072L23.5501 8.38275L22.6338 8.52844L22.6511 8.83906Z" fill="#6DFF8A"/>
<path d="M21.8939 9.33378L22.698 9.14782L22.6514 8.83908L21.8418 8.99725L21.8939 9.33378Z" fill="#50FFA7"/>
<path d="M22.6338 8.5284L23.5501 8.38272L23.5631 8.10042L22.6463 8.22384L22.6338 8.5284Z" fill="#87FF70"/>
<path d="M21.8416 8.99713L22.6512 8.83896L22.6339 8.52834L21.8213 8.65848L21.8416 8.99713Z" fill="#6AFF8D"/>
<path d="M22.6465 8.22382L23.5633 8.10041L23.6039 7.83105L22.6886 7.93317L22.6465 8.22382Z" fill="#A0FF56"/>
<path d="M21.8213 8.65844L22.6339 8.52829L22.6464 8.22371L21.8334 8.3263L21.8213 8.65844Z" fill="#87FF70"/>
<path d="M22.6885 7.9331L23.6037 7.83098L23.6709 7.5816L22.7594 7.66395L22.6885 7.9331Z" fill="#B7FF40"/>
<path d="M21.834 8.32641L22.6469 8.22382L22.6891 7.93317L21.8784 8.00938L21.834 8.32641Z" fill="#A4FF53"/>
<path d="M22.7598 7.66407L23.6713 7.58173L23.7635 7.3589L22.8577 7.42352L22.7598 7.66407Z" fill="#D1FF26"/>
<path d="M21.8779 8.0094L22.6886 7.93318L22.7595 7.66403L21.9537 7.71574L21.8779 8.0094Z" fill="#BEFF39"/>
<path d="M22.8574 7.42336L23.7632 7.35874L23.8781 7.16841L22.98 7.21786L22.8574 7.42336Z" fill="#E4FF13"/>
<path d="M21.9541 7.71581L22.7599 7.6641L22.8579 7.42355L22.0595 7.45328L21.9541 7.71581Z" fill="#D7FF1F"/>
<path d="M22.0586 7.45313L22.8569 7.4234L22.9795 7.2179L22.191 7.22878L22.0586 7.45313Z" fill="#EEFF09"/>
<path d="M22.1914 7.22888L22.98 7.218L23.1241 7.05311L22.3475 7.04881L22.1914 7.22888Z" fill="#FFEA00"/>
<path d="M22.3477 7.04884L23.1243 7.05314L23.2863 6.93339L22.5234 6.91805L22.3477 7.04884Z" fill="#FFD700"/>
<path d="M21.2961 12.683L21.257 12.6534L20.9189 12.3609L20.9385 12.3737L21.2961 12.683Z" fill="#0000FF"/>
<path d="M20.9381 12.3738L20.9185 12.361L20.6035 11.9894L20.605 11.9808L20.9381 12.3738Z" fill="#0010FF"/>
<path d="M21.6693 12.9012L21.6098 12.8596L21.2568 12.6535L21.2959 12.6831L21.6693 12.9012Z" fill="#0000F1"/>
<path d="M20.6054 11.9808L20.6039 11.9894L20.3197 11.5476L20.3047 11.5134L20.6054 11.9808Z" fill="#0038FF"/>
<path d="M22.049 13.0226L21.9687 12.9743L21.6094 12.8596L21.6688 12.9012L22.049 13.0226Z" fill="#0000E8"/>
<path d="M20.3047 11.5132L20.3197 11.5474L20.0732 11.0458L20.0439 10.9826L20.3047 11.5132Z" fill="#0064FF"/>
<path d="M22.4267 13.044L22.3256 12.9945L21.9688 12.9744L22.049 13.0226L22.4267 13.044Z" fill="#0000ED"/>
<path d="M20.0434 10.9827L20.0727 11.0459L19.8701 10.4965L19.8291 10.4014L20.0434 10.9827Z" fill="#0098FF"/>
<path d="M22.7932 12.9642L22.6719 12.919L22.3262 12.9945L22.4272 13.0439L22.7932 12.9642Z" fill="#0000FF"/>
<path d="M19.8293 10.4016L19.8704 10.4967L19.717 9.91289L19.667 9.78362L19.8293 10.4016Z" fill="#00D4FF"/>
<path d="M23.1384 12.7844L22.9978 12.749L22.6719 12.9188L22.7932 12.964L23.1384 12.7844Z" fill="#0008FF"/>
<path d="M19.6665 9.78343L19.7165 9.9127L19.6166 9.30866L19.5605 9.14381L19.6665 9.78343Z" fill="#26FFD1"/>
<path d="M23.4544 12.5088L23.296 12.4884L22.998 12.749L23.1387 12.7845L23.4544 12.5088Z" fill="#002CFF"/>
<path d="M19.561 9.14393L19.617 9.30878L19.5734 8.69941L19.5146 8.49841L19.561 9.14393Z" fill="#5AFF9D"/>
<path d="M23.7324 12.1429L23.5581 12.1427L23.2959 12.4884L23.4543 12.5088L23.7324 12.1429Z" fill="#0054FF"/>
<path d="M19.5146 8.49836L19.5734 8.69936L19.5877 8.10002L19.5296 7.86316L19.5146 8.49836Z" fill="#90FF66"/>
<path d="M23.9649 11.6953L23.777 11.7199L23.5576 12.1428L23.7319 12.143L23.9649 11.6953Z" fill="#0088FF"/>
<path d="M19.5293 7.86319L19.5874 8.10005L19.6599 7.52612L19.6058 7.25459L19.5293 7.86319Z" fill="#C7FF30"/>
<path d="M24.1465 11.1763L23.948 11.2299L23.7773 11.7198L23.9652 11.6952L24.1465 11.1763Z" fill="#00C4FF"/>
<path d="M19.6064 7.2546L19.6605 7.52613L19.7899 6.99267L19.7433 6.68861L19.6064 7.2546Z" fill="#FBF100"/>
<path d="M24.2714 10.5986L24.0651 10.6847L23.9482 11.2298L24.1468 11.1762L24.2714 10.5986Z" fill="#16FFE1"/>
<path d="M19.7432 6.68849L19.7898 6.99255L19.9733 6.51392L19.9374 6.18033L19.7432 6.68849Z" fill="#FFB900"/>
<path d="M24.3345 9.97705L24.124 10.0982L24.0645 10.6848L24.2707 10.5988L24.3345 9.97705Z" fill="#4DFFAA"/>
<path d="M19.9375 6.18047L19.9734 6.51406L20.2068 6.1034L20.1847 5.74417L19.9375 6.18047Z" fill="#FF8600"/>
<path d="M24.3353 9.32713L24.124 9.48527L24.124 10.0982L24.3346 9.97703L24.3353 9.32713Z" fill="#80FF77"/>
<path d="M20.1846 5.74412L20.2067 6.10334L20.4843 5.77227L20.4787 5.39206L20.1846 5.74412Z" fill="#FF5D00"/>
<path d="M24.2728 8.66626L24.0645 8.86217L24.1246 9.4854L24.3359 9.32727L24.2728 8.66626Z" fill="#B7FF40"/>
<path d="M20.4785 5.39215L20.4842 5.77235L20.7989 5.5305L20.8121 5.13466L20.4785 5.39215Z" fill="#FF3800"/>
<path d="M24.1471 8.01172L23.9453 8.24518L24.0645 8.86203L24.2728 8.66612L24.1471 8.01172Z" fill="#EBFF0C"/>
<path d="M20.812 5.13468L20.7988 5.53052L21.1425 5.38519L21.1764 4.97958L20.812 5.13468Z" fill="#FF1A00"/>
<path d="M23.9613 7.38174L23.7695 7.65146L23.945 8.2451L24.1468 8.01164L23.9613 7.38174Z" fill="#FFC800"/>
<path d="M21.1764 4.97948L21.1426 5.38509L21.506 5.34096L21.5618 4.93182L21.1764 4.97948Z" fill="#F10800"/>
<path d="M23.7205 6.79398L23.542 7.09757L23.7693 7.65166L23.9611 7.38194L23.7205 6.79398Z" fill="#FF9400"/>
<path d="M21.5617 4.93181L21.5059 5.34094L21.8793 5.39982L21.9577 4.99358L21.5617 4.93181Z" fill="#E80000"/>
<path d="M23.4308 6.26428L23.2686 6.59843L23.5418 7.09755L23.7203 6.79395L23.4308 6.26428Z" fill="#FF6800"/>
<path d="M21.9583 4.99365L21.8799 5.39989L22.253 5.56064L22.354 5.1637L21.9583 4.99365Z" fill="#ED0400"/>
<path d="M23.1006 5.80769L22.957 6.16805L23.2689 6.59819L23.4311 6.26405L23.1006 5.80769Z" fill="#FF4300"/>
<path d="M22.3539 5.16357L22.2529 5.56051L22.6154 5.81897L22.7384 5.43747L22.3539 5.16357Z" fill="#FA0F00"/>
<path d="M22.7382 5.43752L22.6152 5.81902L22.9571 6.16816L23.1007 5.80781L22.7382 5.43752Z" fill="#FF2200"/>
<path d="M19.7758 10.2331L19.8295 10.4014L19.6672 9.78349L19.6055 9.58479L19.7758 10.2331Z" fill="#00CCFF"/>
<path d="M19.6054 9.5849L19.6671 9.7836L19.5612 9.14398L19.4941 8.91364L19.6054 9.5849Z" fill="#1FFFD7"/>
<path d="M23.5764 12.4417L23.4544 12.5089L23.1387 12.7847L23.2449 12.731L23.5764 12.4417Z" fill="#0018FF"/>
<path d="M19.4942 8.91361L19.5612 9.14396L19.5148 8.49844L19.4453 8.23587L19.4942 8.91361Z" fill="#5AFF9D"/>
<path d="M23.8681 12.0577L23.7321 12.143L23.4541 12.5088L23.5761 12.4416L23.8681 12.0577Z" fill="#0044FF"/>
<path d="M19.4453 8.23568L19.5148 8.49825L19.5298 7.86305L19.4607 7.56847L19.4453 8.23568Z" fill="#94FF63"/>
<path d="M24.1132 11.5878L23.9654 11.6953L23.7324 12.143L23.8684 12.0577L24.1132 11.5878Z" fill="#007CFF"/>
<path d="M19.4609 7.56842L19.53 7.86301L19.6065 7.25442L19.541 6.92883L19.4609 7.56842Z" fill="#CAFF2C"/>
<path d="M24.3036 11.0428L24.1462 11.1762L23.9648 11.6952L24.1127 11.5876L24.3036 11.0428Z" fill="#00B8FF"/>
<path d="M19.541 6.92892L19.6066 7.25451L19.7434 6.68852L19.6843 6.33377L19.541 6.92892Z" fill="#FFEA00"/>
<path d="M24.4351 10.4362L24.271 10.5987L24.1465 11.1762L24.3038 11.0428L24.4351 10.4362Z" fill="#0FF8E7"/>
<path d="M19.6846 6.33392L19.7437 6.68867L19.9379 6.1805L19.8882 5.79926L19.6846 6.33392Z" fill="#FFAE00"/>
<path d="M24.5032 9.78314L24.3353 9.97698L24.2715 10.5987L24.4356 10.4362L24.5032 9.78314Z" fill="#49FFAD"/>
<path d="M19.8877 5.79903L19.9374 6.18028L20.1846 5.74398L20.147 5.33965L19.8877 5.79903Z" fill="#FF7A00"/>
<path d="M24.5042 9.1003L24.3357 9.32713L24.335 9.97701L24.5029 9.78318L24.5042 9.1003Z" fill="#80FF77"/>
<path d="M20.1475 5.33984L20.1851 5.74418L20.4792 5.39212L20.4561 4.96886L20.1475 5.33984Z" fill="#FF4A00"/>
<path d="M24.4384 8.40559L24.2725 8.66616L24.3355 9.32716L24.504 9.10032L24.4384 8.40559Z" fill="#BAFF3C"/>
<path d="M20.4551 4.96879L20.4782 5.39206L20.8118 5.13456L20.8052 4.69708L20.4551 4.96879Z" fill="#FF2500"/>
<path d="M24.3067 7.71754L24.1465 8.01161L24.2722 8.66599L24.4382 8.40543L24.3067 7.71754Z" fill="#F1FC06"/>
<path d="M20.8057 4.69716L20.8122 5.13464L21.1766 4.97955L21.1882 4.53308L20.8057 4.69716Z" fill="#F10800"/>
<path d="M24.1132 7.0555L23.9619 7.38189L24.1474 8.01181L24.3076 7.71774L24.1132 7.0555Z" fill="#FFC100"/>
<path d="M21.1885 4.53302L21.1768 4.97949L21.5621 4.93183L21.5932 4.48198L21.1885 4.53302Z" fill="#DA0000"/>
<path d="M23.8602 6.43709L23.7207 6.79371L23.9614 7.38169L24.1127 7.0553L23.8602 6.43709Z" fill="#FF8900"/>
<path d="M21.5936 4.48187L21.5625 4.93172L21.9585 4.9935L22.0095 4.54599L21.5936 4.48187Z" fill="#CD0000"/>
<path d="M23.5568 5.88052L23.4316 6.26431L23.7211 6.79395L23.8607 6.43732L23.5568 5.88052Z" fill="#FF5900"/>
<path d="M22.009 4.54602L21.958 4.99353L22.3537 5.16355L22.4247 4.72414L22.009 4.54602Z" fill="#D10000"/>
<path d="M23.2092 5.40082L23.1006 5.80793L23.4311 6.26431L23.5563 5.88052L23.2092 5.40082Z" fill="#FF3000"/>
<path d="M22.4245 4.72432L22.3535 5.16374L22.738 5.43763L22.8284 5.0118L22.4245 4.72432Z" fill="#DF0000"/>
<path d="M22.8287 5.01157L22.7383 5.4374L23.1008 5.8077L23.2094 5.40059L22.8287 5.01157Z" fill="#FA0F00"/>
<path d="M21.8833 1.02917L21.415 1.1745L21.7454 1.1442L22.1511 1.00653L21.8833 1.02917Z" fill="#9F0000"/>
<path d="M22.1508 1.00635L21.7451 1.14401L22.0854 1.23842L22.4265 1.10486L22.1508 1.00635Z" fill="#960000"/>
<path d="M23.8313 3.89581L23.8174 4.07769L23.9786 4.80527L23.9622 4.60571L23.8313 3.89581Z" fill="#FFAB00"/>
<path d="M22.4271 1.10489L22.0859 1.23845L22.4267 1.45583L22.7033 1.3227L22.4271 1.10489Z" fill="#960000"/>
<path d="M23.6617 3.22771L23.6084 3.39397L23.8172 4.07763L23.8312 3.89576L23.6617 3.22771Z" fill="#FF6C00"/>
<path d="M22.7034 1.32277L22.4268 1.4559L22.7584 1.79079L22.9723 1.65443L22.7034 1.32277Z" fill="#A80000"/>
<path d="M23.458 2.62057L23.3574 2.77379L23.6083 3.39417L23.6616 3.2279L23.458 2.62057Z" fill="#FF3400"/>
<path d="M22.9717 1.65453L22.7578 1.79089L23.0711 2.23427L23.2257 2.09113L22.9717 1.65453Z" fill="#C80000"/>
<path d="M23.2259 2.09116L23.0713 2.23429L23.3574 2.77378L23.4579 2.62057L23.2259 2.09116Z" fill="#F10800"/>
<path d="M19.0284 7.074L19.0831 7.48764L19.0277 6.7352L18.9727 6.3185L19.0284 7.074Z" fill="#53FFA4"/>
<path d="M18.9727 6.31861L19.0277 6.73531L19.043 5.99351L18.9877 5.57362L18.9727 6.31861Z" fill="#97FF60"/>
<path d="M18.9883 5.57363L19.0435 5.99352L19.13 5.28131L19.0747 4.85822L18.9883 5.57363Z" fill="#D7FF1F"/>
<path d="M19.0742 4.85811L19.1295 5.2812L19.2858 4.61731L19.2306 4.19104L19.0742 4.85811Z" fill="#FFD000"/>
<path d="M19.2305 4.19117L19.2857 4.61744L19.5087 4.01983L19.4537 3.59053L19.2305 4.19117Z" fill="#FF8D00"/>
<path d="M19.4541 3.59039L19.5091 4.01969L19.7938 3.505L19.7392 3.07286L19.4541 3.59039Z" fill="#FF4E00"/>
<path d="M19.7393 3.07312L19.7939 3.50525L20.1335 3.08826L20.0793 2.65361L19.7393 3.07312Z" fill="#FF1A00"/>
<path d="M20.0791 2.65352L20.1333 3.08816L20.5191 2.7813L20.4655 2.34451L20.0791 2.65352Z" fill="#D10000"/>
<path d="M24.3428 5.6869L24.4335 6.5643L24.5768 7.32449L24.4882 6.45526L24.3428 5.6869Z" fill="#FFE600"/>
<path d="M20.4648 2.34459L20.5184 2.78138L20.9405 2.59419L20.8876 2.1557L20.4648 2.34459Z" fill="#A80000"/>
<path d="M24.127 4.94742L24.1733 5.38071L24.388 6.1174L24.3422 5.68685L24.127 4.94742Z" fill="#FF9F00"/>
<path d="M20.8877 2.15561L20.9406 2.59411L21.3875 2.53283L21.3354 2.09309L20.8877 2.15561Z" fill="#8D0000"/>
<path d="M23.8477 4.25763L23.8947 4.69329L24.1737 5.38068L24.1273 4.94739L23.8477 4.25763Z" fill="#FF6000"/>
<path d="M21.3359 2.0932L21.3881 2.53294L21.8477 2.6002L21.7964 2.1598L21.3359 2.0932Z" fill="#800000"/>
<path d="M23.5107 3.63719L23.5586 4.07482L23.8946 4.69343L23.8475 4.25777L23.5107 3.63719Z" fill="#FF2900"/>
<path d="M21.7959 2.15965L21.8472 2.60005L22.3067 2.7947L22.2563 2.35416L21.7959 2.15965Z" fill="#800000"/>
<path d="M23.126 3.10345L23.1746 3.54258L23.5585 4.07482L23.5107 3.63719L23.126 3.10345Z" fill="#DF0000"/>
<path d="M22.2568 2.35414L22.3072 2.79469L22.7538 3.11172L22.7043 2.67161L22.2568 2.35414Z" fill="#920000"/>
<path d="M22.7041 2.67172L22.7536 3.11183L23.1748 3.54255L23.1261 3.10342L22.7041 2.67172Z" fill="#B20000"/>
<path d="M24.2451 5.3306L24.3427 5.68696L24.4881 6.45532L24.3853 6.09849L24.2451 5.3306Z" fill="#FFE600"/>
<path d="M21.1035 1.32741L20.7373 1.5867L21.1008 1.4205L21.415 1.1743L21.1035 1.32741Z" fill="#B20000"/>
<path d="M21.4148 1.17453L21.1006 1.42074L21.486 1.37959L21.7452 1.14423L21.4148 1.17453Z" fill="#960000"/>
<path d="M21.7455 1.1442L21.4863 1.37956L21.8831 1.46566L22.0858 1.23861L21.7455 1.1442Z" fill="#890000"/>
<path d="M22.0855 1.2384L21.8828 1.46545L22.2799 1.67723L22.4262 1.45578L22.0855 1.2384Z" fill="#890000"/>
<path d="M23.3574 2.77373L23.3642 2.99531L23.656 3.62121L23.6083 3.3941L23.3574 2.77373Z" fill="#FF2D00"/>
<path d="M22.4266 1.45599L22.2803 1.67744L22.6667 2.00956L22.7582 1.79089L22.4266 1.45599Z" fill="#9B0000"/>
<path d="M23.0713 2.23422L23.0312 2.45295L23.3642 2.99531L23.3574 2.77372L23.0713 2.23422Z" fill="#E80000"/>
<path d="M22.7576 1.79092L22.666 2.00959L23.0308 2.45302L23.0709 2.23429L22.7576 1.79092Z" fill="#BB0000"/>
<path d="M23.6084 3.39417L23.6561 3.62127L23.8987 4.3129L23.8172 4.07782L23.6084 3.39417Z" fill="#FF6400"/>
<path d="M20.4057 1.87241L20.1504 2.23987L20.5209 1.93876L20.7377 1.58693L20.4057 1.87241Z" fill="#D10000"/>
<path d="M20.7373 1.58689L20.5205 1.93872L20.9259 1.75763L21.1009 1.42068L20.7373 1.58689Z" fill="#A80000"/>
<path d="M21.1007 1.42074L20.9258 1.75768L21.3553 1.70273L21.4861 1.37959L21.1007 1.42074Z" fill="#8D0000"/>
<path d="M21.4862 1.37941L21.3555 1.70254L21.7974 1.77623L21.883 1.46552L21.4862 1.37941Z" fill="#800000"/>
<path d="M21.8834 1.46553L21.7979 1.77624L22.2399 1.97728L22.2805 1.67729L21.8834 1.46553Z" fill="#840000"/>
<path d="M23.3643 2.99536L23.4447 3.27515L23.7686 3.89876L23.6561 3.62127L23.3643 2.99536Z" fill="#FF2900"/>
<path d="M22.2799 1.67734L22.2393 1.97732L22.6691 2.3006L22.6662 2.00946L22.2799 1.67734Z" fill="#920000"/>
<path d="M23.0312 2.45296L23.0748 2.73733L23.4447 3.27511L23.3642 2.99532L23.0312 2.45296Z" fill="#DF0000"/>
<path d="M22.666 2.00938L22.6689 2.30053L23.0744 2.7372L23.0308 2.45283L22.666 2.00938Z" fill="#B20000"/>
<path d="M20.1135 2.26801L19.8242 2.65142L20.1501 2.23972L20.4054 1.87225L20.1135 2.26801Z" fill="#FF1A00"/>
<path d="M19.337 3.75508L19.2305 4.19103L19.4537 3.59039L19.5509 3.16144L19.337 3.75508Z" fill="#FF8D00"/>
<path d="M19.5512 3.16153L19.4541 3.59049L19.7392 3.07299L19.8243 2.65149L19.5512 3.16153Z" fill="#FF4E00"/>
<path d="M19.8244 2.65148L19.7393 3.07298L20.0793 2.65347L20.1503 2.23978L19.8244 2.65148Z" fill="#FF1600"/>
<path d="M20.1502 2.23968L20.0791 2.65338L20.4655 2.34438L20.5206 1.93857L20.1502 2.23968Z" fill="#D10000"/>
<path d="M20.52 1.93857L20.4648 2.34438L20.8875 2.15548L20.9254 1.75748L20.52 1.93857Z" fill="#A40000"/>
<path d="M20.9255 1.75768L20.8877 2.15569L21.3354 2.09319L21.3551 1.70273L20.9255 1.75768Z" fill="#890000"/>
<path d="M23.7686 3.8987L23.8476 4.25772L24.1273 4.94748L24.0377 4.59036L23.7686 3.8987Z" fill="#FF6000"/>
<path d="M21.3556 1.70248L21.3359 2.09295L21.7964 2.15953L21.7976 1.77617L21.3556 1.70248Z" fill="#800000"/>
<path d="M23.4443 3.27509L23.5105 3.63712L23.8473 4.25772L23.7682 3.8987L23.4443 3.27509Z" fill="#FF2900"/>
<path d="M21.7971 1.77617L21.7959 2.15952L22.2563 2.35404L22.2392 1.97722L21.7971 1.77617Z" fill="#800000"/>
<path d="M23.0752 2.7373L23.1265 3.10335L23.5112 3.63709L23.445 3.27506L23.0752 2.7373Z" fill="#DF0000"/>
<path d="M22.2393 1.97731L22.2564 2.35414L22.7039 2.67161L22.6691 2.30059L22.2393 1.97731Z" fill="#920000"/>
<path d="M22.6689 2.30066L22.7038 2.67168L23.1258 3.10338L23.0745 2.73733L22.6689 2.30066Z" fill="#B20000"/>
<path d="M26.4231 6.71362L25.7773 6.70825L25.7883 7.19373L26.4475 7.16759L26.4231 6.71362Z" fill="#23FFD4"/>
<path d="M26.4141 6.22526L25.7744 6.18387L25.7776 6.70842L26.4233 6.71378L26.4141 6.22526Z" fill="#53FFA4"/>
<path d="M26.4203 5.71463L25.7792 5.63364L25.7744 6.1837L26.4141 6.2251L26.4203 5.71463Z" fill="#80FF77"/>
<path d="M26.4419 5.19563L25.792 5.07254L25.7793 5.63362L26.4204 5.71461L26.4419 5.19563Z" fill="#ADFF49"/>
<path d="M26.4785 4.68212L25.8123 4.51562L25.792 5.07269L26.4419 5.19578L26.4785 4.68212Z" fill="#DBFF1C"/>
<path d="M26.5292 4.18768L25.8399 3.97774L25.8125 4.51564L26.4787 4.68213L26.5292 4.18768Z" fill="#FFE200"/>
<path d="M27.1273 2.24981L26.1514 1.83125L26.1025 1.89727L27.0318 2.3027L27.1273 2.24981Z" fill="#FF3800"/>
<path d="M26.5924 3.7259L25.8737 3.47372L25.8398 3.9777L26.5291 4.18764L26.5924 3.7259Z" fill="#FFB600"/>
<path d="M27.0316 2.30268L26.1023 1.89725L26.0527 2.05412L26.9351 2.43976L27.0316 2.30268Z" fill="#FF3800"/>
<path d="M26.6662 3.30949L25.9124 3.01753L25.873 3.47362L26.5918 3.7258L26.6662 3.30949Z" fill="#FF9100"/>
<path d="M26.9353 2.43966L26.0529 2.05402L26.0039 2.29776L26.8407 2.65742L26.9353 2.43966Z" fill="#FF4300"/>
<path d="M26.7504 2.94999L25.9569 2.62186L25.9131 3.01744L26.6669 3.30939L26.7504 2.94999Z" fill="#FF6F00"/>
<path d="M26.8408 2.65754L26.0041 2.29788L25.957 2.62197L26.7505 2.9501L26.8408 2.65754Z" fill="#FF5500"/>
<path d="M27.0796 6.76767L26.4229 6.71382L26.4472 7.1678L27.1145 7.19013L27.0796 6.76767Z" fill="#2CFFCA"/>
<path d="M27.0661 6.31514L26.4141 6.22522L26.4233 6.71373L27.0801 6.76759L27.0661 6.31514Z" fill="#56FFA0"/>
<path d="M27.0734 5.8444L26.4202 5.71481L26.4141 6.22526L27.0661 6.31518L27.0734 5.8444Z" fill="#80FF77"/>
<path d="M27.1027 5.36758L26.4425 5.1958L26.4209 5.71477L27.0741 5.84436L27.1027 5.36758Z" fill="#AAFF4D"/>
<path d="M27.1519 4.89742L26.4789 4.68211L26.4424 5.19577L27.1026 5.36755L27.1519 4.89742Z" fill="#D4FF23"/>
<path d="M27.2204 4.44662L26.5291 4.18768L26.4785 4.68215L27.1516 4.89746L27.2204 4.44662Z" fill="#FBF100"/>
<path d="M28.1731 2.75929L27.219 2.28219L27.127 2.24983L28.045 2.72023L28.1731 2.75929Z" fill="#FF5500"/>
<path d="M27.3072 4.02731L26.5926 3.72591L26.5293 4.18766L27.2206 4.4466L27.3072 4.02731Z" fill="#FFC400"/>
<path d="M28.0449 2.72027L27.1268 2.24988L27.0312 2.30279L27.9123 2.75951L28.0449 2.72027Z" fill="#FF4E00"/>
<path d="M27.4085 3.65107L26.6662 3.30959L26.5918 3.72591L27.3064 4.02732L27.4085 3.65107Z" fill="#FFA300"/>
<path d="M27.913 2.75958L27.0319 2.30286L26.9355 2.43994L27.7795 2.87635L27.913 2.75958Z" fill="#FF5200"/>
<path d="M27.5241 3.32828L26.7505 2.95027L26.667 3.30967L27.4093 3.65116L27.5241 3.32828Z" fill="#FF8200"/>
<path d="M27.7794 2.87632L26.9355 2.43991L26.8408 2.65766L27.6487 3.0676L27.7794 2.87632Z" fill="#FF5900"/>
<path d="M27.6481 3.06763L26.8403 2.65768L26.75 2.95027L27.5236 3.32828L27.6481 3.06763Z" fill="#FF6C00"/>
<path d="M27.6919 6.86362L27.0791 6.76753L27.1139 7.18999L27.7344 7.25517L27.6919 6.86362Z" fill="#33FFC4"/>
<path d="M27.6747 6.44662L27.0654 6.31523L27.0795 6.76768L27.6922 6.86377L27.6747 6.44662Z" fill="#5AFF9D"/>
<path d="M27.6828 6.01461L27.0728 5.84442L27.0654 6.31522L27.6747 6.44661L27.6828 6.01461Z" fill="#80FF77"/>
<path d="M27.717 5.57882L27.1019 5.36742L27.0732 5.8442L27.6833 6.01438L27.717 5.57882Z" fill="#A7FF50"/>
<path d="M27.7753 5.15143L27.1509 4.89751L27.1016 5.36764L27.7167 5.57905L27.7753 5.15143Z" fill="#CEFF29"/>
<path d="M27.8569 4.7431L27.2192 4.44658L27.1504 4.89741L27.7748 5.15133L27.8569 4.7431Z" fill="#F1FC06"/>
<path d="M27.961 4.36512L27.3063 4.02713L27.2197 4.44641L27.8574 4.74292L27.961 4.36512Z" fill="#FFD700"/>
<path d="M29.0031 3.26962L28.173 2.75917L28.0449 2.72009L28.8484 3.22378L29.0031 3.26962Z" fill="#FF6F00"/>
<path d="M28.0835 4.02817L27.4087 3.65103L27.3066 4.02728L27.9613 4.36527L28.0835 4.02817Z" fill="#FFB600"/>
<path d="M28.8482 3.22396L28.0447 2.72028L27.9121 2.75952L28.6883 3.24969L28.8482 3.22396Z" fill="#FF6800"/>
<path d="M28.2207 3.74094L27.523 3.32808L27.4082 3.65095L28.083 4.0281L28.2207 3.74094Z" fill="#FF9800"/>
<path d="M28.688 3.24968L27.9118 2.75952L27.7783 2.87629L28.5274 3.34642L28.688 3.24968Z" fill="#FF6C00"/>
<path d="M28.3705 3.51178L27.6479 3.06763L27.5234 3.32826L28.2211 3.74112L28.3705 3.51178Z" fill="#FF8200"/>
<path d="M28.5273 3.34649L27.7782 2.87636L27.6475 3.06763L28.3701 3.51179L28.5273 3.34649Z" fill="#FF7300"/>
<path d="M28.2057 6.99422L27.6924 6.86359L27.735 7.25515L28.2534 7.35618L28.2057 6.99422Z" fill="#39FFBE"/>
<path d="M28.1857 6.61075L27.6748 6.4464L27.6923 6.86353L28.2056 6.99416L28.1857 6.61075Z" fill="#5AFF9D"/>
<path d="M28.1942 6.21572L27.6829 6.01439L27.6748 6.44638L28.1857 6.61074L28.1942 6.21572Z" fill="#80FF77"/>
<path d="M28.2308 5.81954L27.7164 5.57898L27.6826 6.01455L28.1939 6.21589L28.2308 5.81954Z" fill="#A4FF53"/>
<path d="M28.2958 5.43231L27.7754 5.15135L27.7168 5.57898L28.2312 5.81954L28.2958 5.43231Z" fill="#C7FF30"/>
<path d="M28.3863 5.06444L27.8575 4.74304L27.7754 5.15128L28.2957 5.43224L28.3863 5.06444Z" fill="#E7FF0F"/>
<path d="M28.5006 4.72605L27.9609 4.3653L27.8574 4.7431L28.3862 5.0645L28.5006 4.72605Z" fill="#FFE600"/>
<path d="M28.6358 4.42609L28.0832 4.0282L27.9609 4.36529L28.5006 4.72605L28.6358 4.42609Z" fill="#FFC400"/>
<path d="M29.6574 3.79411L29.0033 3.26979L28.8486 3.22394L29.4852 3.74181L29.6574 3.79411Z" fill="#FF8600"/>
<path d="M28.7882 4.17267L28.2207 3.74091L28.083 4.02806L28.6357 4.42595L28.7882 4.17267Z" fill="#FFAB00"/>
<path d="M29.4849 3.7418L28.8483 3.22392L28.6885 3.24964L29.3072 3.75468L29.4849 3.7418Z" fill="#FF8200"/>
<path d="M28.9538 3.97298L28.3702 3.51157L28.2207 3.74092L28.7882 4.17268L28.9538 3.97298Z" fill="#FF9800"/>
<path d="M29.3067 3.75451L28.688 3.24947L28.5273 3.34623L29.1283 3.83229L29.3067 3.75451Z" fill="#FF8200"/>
<path d="M29.1282 3.83254L28.5273 3.34648L28.3701 3.51176L28.9538 3.97317L29.1282 3.83254Z" fill="#FF8900"/>
<path d="M28.5694 7.15086L28.2061 6.99414L28.2538 7.35611L28.6201 7.48526L28.5694 7.15086Z" fill="#3CFFBA"/>
<path d="M28.5484 6.79888L28.1865 6.61084L28.2065 6.99425L28.5699 7.15098L28.5484 6.79888Z" fill="#5DFF9A"/>
<path d="M28.5569 6.43824L28.195 6.21596L28.1865 6.61099L28.5484 6.79903L28.5569 6.43824Z" fill="#80FF77"/>
<path d="M28.5955 6.07789L28.2322 5.81935L28.1953 6.21568L28.5572 6.43797L28.5955 6.07789Z" fill="#A0FF56"/>
<path d="M28.6621 5.72794L28.296 5.43214L28.2314 5.81937L28.5947 6.07791L28.6621 5.72794Z" fill="#C1FF36"/>
<path d="M28.7569 5.39763L28.3865 5.06456L28.2959 5.43234L28.662 5.72814L28.7569 5.39763Z" fill="#DEFF19"/>
<path d="M28.877 5.09537L28.5011 4.72609L28.3867 5.06454L28.7571 5.39761L28.877 5.09537Z" fill="#FBF100"/>
<path d="M29.0187 4.82951L28.6362 4.42607L28.501 4.72603L28.8769 5.09531L29.0187 4.82951Z" fill="#FFD700"/>
<path d="M30.2647 4.42899L29.8193 3.90985L29.6572 3.79401L30.0934 4.31335L30.2647 4.42899Z" fill="#FFA700"/>
<path d="M29.1793 4.60729L28.7892 4.17273L28.6367 4.42601L29.0192 4.82945L29.1793 4.60729Z" fill="#FFC100"/>
<path d="M30.0937 4.31341L29.6576 3.79406L29.4854 3.74179L29.912 4.25533L30.0937 4.31341Z" fill="#FF9C00"/>
<path d="M29.3533 4.43476L28.9547 3.97298L28.7891 4.17266L29.1792 4.60722L29.3533 4.43476Z" fill="#FFAE00"/>
<path d="M29.912 4.25532L29.4853 3.74178L29.3076 3.75465L29.7247 4.25645L29.912 4.25532Z" fill="#FF9800"/>
<path d="M29.5371 4.31687L29.1295 3.83246L28.9551 3.97309L29.3537 4.43488L29.5371 4.31687Z" fill="#FF9F00"/>
<path d="M29.7245 4.25648L29.3074 3.75467L29.1289 3.83245L29.5365 4.31686L29.7245 4.25648Z" fill="#FF9800"/>
<path d="M28.7425 7.32539L28.5693 7.15109L28.62 7.48547L28.7944 7.63496L28.7425 7.32539Z" fill="#43FFB4"/>
<path d="M28.7202 7.00115L28.5479 6.79877L28.5693 7.15086L28.7425 7.32515L28.7202 7.00115Z" fill="#60FF97"/>
<path d="M28.7283 6.67114L28.5563 6.43813L28.5479 6.79891L28.7202 7.00129L28.7283 6.67114Z" fill="#7DFF7A"/>
<path d="M28.7669 6.34345L28.595 6.07805L28.5566 6.43814L28.7286 6.67116L28.7669 6.34345Z" fill="#9DFF5A"/>
<path d="M28.8344 6.02673L28.6621 5.72807L28.5947 6.07802L28.7667 6.34343L28.8344 6.02673Z" fill="#BAFF3C"/>
<path d="M28.93 5.72937L28.757 5.39751L28.6621 5.72804L28.8344 6.0267L28.93 5.72937Z" fill="#D4FF23"/>
<path d="M29.0508 5.45946L28.8767 5.09538L28.7568 5.39762L28.9298 5.72948L29.0508 5.45946Z" fill="#EEFF09"/>
<path d="M30.7565 5.29938L30.558 4.8185L30.4209 4.59895L30.6166 5.0905L30.7565 5.29938Z" fill="#FFDE00"/>
<path d="M29.1943 5.22395L29.0188 4.82947L28.877 5.09528L29.0511 5.45936L29.1943 5.22395Z" fill="#FFE600"/>
<path d="M30.6166 5.09045L30.4209 4.5989L30.2646 4.42896L30.4575 4.92608L30.6166 5.09045Z" fill="#FFCC00"/>
<path d="M29.3559 5.02947L29.1786 4.60733L29.0186 4.82949L29.1941 5.22397L29.3559 5.02947Z" fill="#FFD000"/>
<path d="M30.4578 4.92602L30.265 4.4289L30.0938 4.31326L30.2837 4.81065L30.4578 4.92602Z" fill="#FFB900"/>
<path d="M29.5322 4.88123L29.3528 4.43488L29.1787 4.60732L29.356 5.02946L29.5322 4.88123Z" fill="#FFC100"/>
<path d="M30.2828 4.8107L30.0928 4.31332L29.9111 4.25523L30.0982 4.7475L30.2828 4.8107Z" fill="#FFB200"/>
<path d="M29.7177 4.78327L29.536 4.31683L29.3525 4.43486L29.5319 4.88121L29.7177 4.78327Z" fill="#FFB200"/>
<path d="M30.099 4.74743L29.9119 4.25516L29.7246 4.25629L29.9089 4.73816L30.099 4.74743Z" fill="#FFAB00"/>
<path d="M29.9083 4.73819L29.724 4.25632L29.5361 4.3167L29.7178 4.78314L29.9083 4.73819Z" fill="#FFAE00"/>
<path d="M28.8818 6.0481L28.9301 5.72925L28.8345 6.02658L28.7881 6.31703L28.8818 6.0481Z" fill="#CEFF29"/>
<path d="M30.9121 7.72563L30.9809 7.42989L31.0375 7.11011L30.9673 7.43315L30.9121 7.72563Z" fill="#50FFA7"/>
<path d="M30.9668 7.43318L31.037 7.11013L31.0642 6.78148L30.9928 7.131L30.9668 7.43318Z" fill="#6AFF8D"/>
<path d="M30.9932 7.1309L31.0646 6.78139L31.0615 6.4523L30.9893 6.82681L30.9932 7.1309Z" fill="#87FF70"/>
<path d="M30.9891 6.8269L31.0613 6.45239L31.0279 6.13142L30.9551 6.52877L30.9891 6.8269Z" fill="#A0FF56"/>
<path d="M30.9549 6.52868L31.0277 6.13134L30.9646 5.8269L30.8916 6.24439L30.9549 6.52868Z" fill="#BEFF39"/>
<path d="M30.8918 6.24433L30.9648 5.82685L30.8736 5.54704L30.8008 5.98137L30.8918 6.24433Z" fill="#D4FF23"/>
<path d="M29.0006 5.80594L29.0511 5.45946L28.9301 5.72947L28.8818 6.04833L29.0006 5.80594Z" fill="#E4FF13"/>
<path d="M30.801 5.98135L30.8738 5.54702L30.7568 5.29933L30.6846 5.74678L30.801 5.98135Z" fill="#EBFF0C"/>
<path d="M29.1408 5.59644L29.1938 5.22395L29.0505 5.45939L29 5.80587L29.1408 5.59644Z" fill="#F8F500"/>
<path d="M30.6848 5.747L30.757 5.29955L30.6171 5.09067L30.5459 5.54714L30.6848 5.747Z" fill="#FEED00"/>
<path d="M29.3008 5.42566L29.3564 5.02942L29.1946 5.22391L29.1416 5.5964L29.3008 5.42566Z" fill="#FFDE00"/>
<path d="M30.5454 5.54703L30.6166 5.09056L30.4575 4.92618L30.3877 5.3873L30.5454 5.54703Z" fill="#FFDB00"/>
<path d="M29.4743 5.29822L29.5325 4.8812L29.3564 5.02943L29.3008 5.42568L29.4743 5.29822Z" fill="#FFD000"/>
<path d="M30.3872 5.38723L30.457 4.92611L30.2828 4.81073L30.2148 5.27191L30.3872 5.38723Z" fill="#FFCC00"/>
<path d="M29.6577 5.2176L29.7187 4.78329L29.5329 4.88123L29.4746 5.29825L29.6577 5.2176Z" fill="#FFC400"/>
<path d="M30.2157 5.27192L30.2837 4.81074L30.0991 4.74754L30.0332 5.20421L30.2157 5.27192Z" fill="#FFC400"/>
<path d="M29.8451 5.18609L29.9087 4.73843L29.7182 4.78338L29.6572 5.21769L29.8451 5.18609Z" fill="#FFC100"/>
<path d="M30.0324 5.2043L30.0983 4.74763L29.9082 4.73837L29.8447 5.18603L30.0324 5.2043Z" fill="#FFBD00"/>
<path d="M29.9639 8.98152L30.2755 8.80163L30.4406 8.65741L30.1237 8.85522L29.9639 8.98152Z" fill="#00D4FF"/>
<path d="M30.124 8.85522L30.4408 8.65742L30.5907 8.4727L30.269 8.6903L30.124 8.85522Z" fill="#00E4F8"/>
<path d="M30.2686 8.69022L30.5903 8.47262L30.721 8.25197L30.3948 8.49075L30.2686 8.69022Z" fill="#0FF8E7"/>
<path d="M30.3945 8.49084L30.7207 8.25205L30.8289 8.00095L30.4989 8.26179L30.3945 8.49084Z" fill="#26FFD1"/>
<path d="M30.499 8.26168L30.829 8.00084L30.9118 7.72557L30.5786 8.0088L30.499 8.26168Z" fill="#3CFFBA"/>
<path d="M30.5791 8.00882L30.9123 7.72559L30.9675 7.43312L30.6318 7.73851L30.5791 8.00882Z" fill="#53FFA4"/>
<path d="M30.6318 7.73863L30.9675 7.43324L30.9935 7.13106L30.6562 7.45786L30.6318 7.73863Z" fill="#6DFF8A"/>
<path d="M30.6561 7.45775L30.9935 7.13095L30.9895 6.82683L30.6514 7.17374L30.6561 7.45775Z" fill="#87FF70"/>
<path d="M30.6511 7.17368L30.9892 6.82676L30.9553 6.52863L30.6172 6.89381L30.6511 7.17368Z" fill="#A0FF56"/>
<path d="M30.617 6.89395L30.955 6.52877L30.8918 6.24446L30.5547 6.62562L30.617 6.89395Z" fill="#B7FF40"/>
<path d="M30.5549 6.62549L30.892 6.24433L30.801 5.98138L30.4658 6.37584L30.5549 6.62549Z" fill="#CEFF29"/>
<path d="M30.4662 6.37581L30.8014 5.98136L30.685 5.7468L30.3525 6.15142L30.4662 6.37581Z" fill="#E4FF13"/>
<path d="M29.0102 5.78485L29.3009 5.4256L29.1416 5.59635L28.8564 5.93607L29.0102 5.78485Z" fill="#FEED00"/>
<path d="M30.3521 6.15158L30.6846 5.74695L30.5457 5.54709L30.2168 5.9585L30.3521 6.15158Z" fill="#F4F802"/>
<path d="M29.1784 5.67476L29.4749 5.29831L29.3014 5.42576L29.0107 5.78501L29.1784 5.67476Z" fill="#FFDE00"/>
<path d="M30.2169 5.95853L30.5458 5.54711L30.3881 5.38736L30.0635 5.80201L30.2169 5.95853Z" fill="#FFE600"/>
<path d="M29.3549 5.60858L29.6574 5.21768L29.4743 5.29833L29.1777 5.67478L29.3549 5.60858Z" fill="#FFD300"/>
<path d="M30.0639 5.80191L30.3885 5.38726L30.2161 5.27196L29.8965 5.68615L30.0639 5.80191Z" fill="#FFDB00"/>
<path d="M29.5365 5.58807L29.8449 5.1859L29.657 5.21752L29.3545 5.60842L29.5365 5.58807Z" fill="#FFD000"/>
<path d="M29.8958 5.68604L30.2155 5.27185L30.033 5.20413L29.7188 5.6141L29.8958 5.68604Z" fill="#FFD000"/>
<path d="M29.719 5.61435L30.0333 5.20438L29.8456 5.1861L29.5371 5.58826L29.719 5.61435Z" fill="#FFCC00"/>
<path d="M29.2598 9.24362L29.7928 9.06592L29.9635 8.98132L29.4232 9.17158L29.2598 9.24362Z" fill="#00D0FF"/>
<path d="M29.4229 9.17167L29.9631 8.98142L30.123 8.85512L29.5757 9.05954L29.4229 9.17167Z" fill="#00DCFE"/>
<path d="M29.5752 9.05953L30.1225 8.8551L30.2674 8.69019L29.7137 8.91005L29.5752 9.05953Z" fill="#06ECF1"/>
<path d="M29.7139 8.91014L30.2676 8.69028L30.3939 8.49081L29.8344 8.72699L29.7139 8.91014Z" fill="#19FFDE"/>
<path d="M29.835 8.72693L30.3944 8.49075L30.4988 8.2617L29.9343 8.51466L29.835 8.72693Z" fill="#29FFCE"/>
<path d="M29.9346 8.51453L30.499 8.26158L30.5787 8.0087L30.0101 8.2785L29.9346 8.51453Z" fill="#40FFB7"/>
<path d="M30.0098 8.27873L30.5783 8.00892L30.631 7.73863L30.0595 8.02493L30.0098 8.27873Z" fill="#56FFA0"/>
<path d="M30.0596 8.02472L30.6311 7.73842L30.6555 7.45764L30.082 7.75965L30.0596 8.02472Z" fill="#6DFF8A"/>
<path d="M30.0817 7.75973L30.6551 7.45772L30.6504 7.17371L30.0762 7.49028L30.0817 7.75973Z" fill="#87FF70"/>
<path d="M30.0764 7.49041L30.6506 7.17383L30.6167 6.89398L30.043 7.22359L30.0764 7.49041Z" fill="#9DFF5A"/>
<path d="M30.043 7.22338L30.6168 6.89378L30.5545 6.62546L29.9824 6.96622L30.043 7.22338Z" fill="#B4FF43"/>
<path d="M29.9827 6.9662L30.5548 6.62544L30.4657 6.37576L29.8965 6.72554L29.9827 6.9662Z" fill="#CAFF2C"/>
<path d="M29.8959 6.72578L30.4651 6.376L30.3514 6.15163L29.7861 6.50799L29.8959 6.72578Z" fill="#DEFF19"/>
<path d="M29.7866 6.50788L30.3518 6.15152L30.2165 5.95847L29.6562 6.31879L29.7866 6.50788Z" fill="#EEFF09"/>
<path d="M28.8295 5.94784L29.3544 5.60841L29.1772 5.67464L28.6602 6.00236L28.8295 5.94784Z" fill="#FFDE00"/>
<path d="M29.6553 6.31889L30.2155 5.95856L30.0621 5.80203L29.5078 6.16363L29.6553 6.31889Z" fill="#FBF100"/>
<path d="M29.0042 5.93686L29.5369 5.58801L29.355 5.60837L28.8301 5.9478L29.0042 5.93686Z" fill="#FFDB00"/>
<path d="M29.5084 6.16341L30.0627 5.80182L29.8953 5.68604L29.3477 6.04613L29.5084 6.16341Z" fill="#FFE600"/>
<path d="M29.1782 5.9701L29.7186 5.61428L29.5366 5.58817L29.0039 5.93702L29.1782 5.9701Z" fill="#FFD700"/>
<path d="M29.3475 6.04609L29.8952 5.686L29.7181 5.61409L29.1777 5.96991L29.3475 6.04609Z" fill="#FFDB00"/>
<path d="M28.5381 9.43695L29.2599 9.24364L29.4233 9.1716L28.6934 9.37466L28.5381 9.43695Z" fill="#00D8FF"/>
<path d="M28.6934 9.37481L29.4233 9.17176L29.5762 9.05963L28.8386 9.27324L28.6934 9.37481Z" fill="#00E4F8"/>
<path d="M28.8379 9.27308L29.5755 9.05948L29.714 8.90999L28.9693 9.13468L28.8379 9.27308Z" fill="#0CF4EB"/>
<path d="M28.9697 9.13467L29.7145 8.90998L29.835 8.72682L29.0839 8.96287L28.9697 9.13467Z" fill="#1CFFDB"/>
<path d="M29.084 8.96302L29.8351 8.72697L29.9344 8.51471L29.1779 8.76207L29.084 8.96302Z" fill="#2CFFCA"/>
<path d="M29.1777 8.7619L29.9343 8.51453L30.0099 8.2785L29.2489 8.53688L29.1777 8.7619Z" fill="#43FFB4"/>
<path d="M29.249 8.53708L30.01 8.2787L30.0597 8.0249L29.2955 8.2937L29.249 8.53708Z" fill="#56FFA0"/>
<path d="M29.2959 8.29375L30.0601 8.02495L30.0826 7.75989L29.3164 8.03828L29.2959 8.29375Z" fill="#6DFF8A"/>
<path d="M29.3158 8.038L30.0819 7.75961L30.0764 7.49016L29.3096 7.77705L29.3158 8.038Z" fill="#83FF73"/>
<path d="M29.3101 7.77707L30.077 7.49018L30.0435 7.22336L29.2773 7.51748L29.3101 7.77707Z" fill="#9AFF5D"/>
<path d="M29.2764 7.51756L30.0426 7.22344L29.982 6.96628L29.2178 7.26612L29.2764 7.51756Z" fill="#B1FF46"/>
<path d="M29.2177 7.26616L29.9819 6.96631L29.8957 6.72563L29.1348 7.02958L29.2177 7.26616Z" fill="#C4FF33"/>
<path d="M29.1355 7.02949L29.8964 6.72554L29.7867 6.50775L29.0303 6.81407L29.1355 7.02949Z" fill="#D7FF1F"/>
<path d="M28.1179 6.23133L28.8296 5.94804L28.6602 6.00257L27.957 6.27665L28.1179 6.23133Z" fill="#FFE600"/>
<path d="M29.03 6.81418L29.7864 6.50787L29.656 6.3188L28.9053 6.62567L29.03 6.81418Z" fill="#E7FF0F"/>
<path d="M28.2837 6.22815L29.004 5.93692L28.8299 5.94784L28.1182 6.23113L28.2837 6.22815Z" fill="#FFE200"/>
<path d="M28.9056 6.62578L29.6563 6.31892L29.5088 6.16365L28.7646 6.46924L28.9056 6.62578Z" fill="#F4F802"/>
<path d="M28.4491 6.26774L29.1778 5.97006L29.0035 5.93701L28.2832 6.22824L28.4491 6.26774Z" fill="#FFE200"/>
<path d="M28.7647 6.46915L29.5089 6.16356L29.3481 6.04626L28.6113 6.34879L28.7647 6.46915Z" fill="#FEED00"/>
<path d="M28.611 6.34865L29.3477 6.04613L29.178 5.96994L28.4492 6.26761L28.611 6.34865Z" fill="#FFE200"/>
<path d="M27.6777 9.64934L28.5385 9.437L28.6938 9.37471L27.8246 9.59429L27.6777 9.64934Z" fill="#00DCFE"/>
<path d="M27.8242 9.59444L28.6933 9.37486L28.8386 9.27328L27.9615 9.50002L27.8242 9.59444Z" fill="#02E8F4"/>
<path d="M27.9619 9.49994L28.839 9.27321L28.9704 9.13481L28.0859 9.36843L27.9619 9.49994Z" fill="#0FF8E7"/>
<path d="M28.0859 9.36846L28.9704 9.13484L29.0845 8.96303L28.1935 9.20307L28.0859 9.36846Z" fill="#1FFFD7"/>
<path d="M28.1934 9.20286L29.0844 8.96282L29.1783 8.76187L28.2817 9.00773L28.1934 9.20286Z" fill="#30FFC7"/>
<path d="M28.2812 9.00782L29.1779 8.76196L29.249 8.53694L28.3479 8.78784L28.2812 9.00782Z" fill="#43FFB4"/>
<path d="M28.3477 8.7879L29.2488 8.537L29.2953 8.29362L28.3909 8.54868L28.3477 8.7879Z" fill="#5AFF9D"/>
<path d="M28.3916 8.54864L29.296 8.29359L29.3165 8.03812L28.4101 8.29632L28.3916 8.54864Z" fill="#6DFF8A"/>
<path d="M28.4101 8.29635L29.3165 8.03814L29.3103 7.77719L28.4033 8.03749L28.4101 8.29635Z" fill="#83FF73"/>
<path d="M28.4031 8.03742L29.3101 7.77712L29.2773 7.51752L28.3711 7.77879L28.4031 8.03742Z" fill="#9AFF5D"/>
<path d="M28.3709 7.7788L29.2772 7.51752L29.2186 7.2661L28.3145 7.52722L28.3709 7.7788Z" fill="#B1FF46"/>
<path d="M28.3148 7.52739L29.219 7.26627L29.136 7.02969L28.2354 7.28954L28.3148 7.52739Z" fill="#C4FF33"/>
<path d="M28.2352 7.28957L29.1359 7.02972L29.0307 6.8143L28.1348 7.07178L28.2352 7.28957Z" fill="#D7FF1F"/>
<path d="M27.4253 6.46049L28.2839 6.22813L28.1184 6.23112L27.2686 6.45665L27.4253 6.46049Z" fill="#FFE600"/>
<path d="M28.1345 7.07167L29.0304 6.81419L28.9057 6.62569L28.0156 6.87978L28.1345 7.07167Z" fill="#E4FF13"/>
<path d="M27.582 6.50643L28.4493 6.26767L28.2835 6.22815L27.4248 6.4605L27.582 6.50643Z" fill="#FFE600"/>
<path d="M28.0159 6.8798L28.906 6.6257L28.7651 6.46916L27.8818 6.71893L28.0159 6.8798Z" fill="#F1FC06"/>
<path d="M27.7355 6.59341L28.6111 6.34879L28.4494 6.26778L27.582 6.50654L27.7355 6.59341Z" fill="#FFE600"/>
<path d="M27.8821 6.71883L28.7653 6.46906L28.6119 6.34868L27.7363 6.5933L27.8821 6.71883Z" fill="#FEED00"/>
<path d="M26.9719 9.77534L27.8937 9.55203L27.7512 9.62699L26.8281 9.85126L26.9719 9.77534Z" fill="#00E4F8"/>
<path d="M27.1037 9.66032L28.0245 9.43855L27.8935 9.55186L26.9717 9.77517L27.1037 9.66032Z" fill="#0CF4EB"/>
<path d="M27.2203 9.50947L28.1406 9.28979L28.0244 9.4387L27.1035 9.66047L27.2203 9.50947Z" fill="#19FFDE"/>
<path d="M27.3192 9.32597L28.2392 9.10889L28.1409 9.28971L27.2207 9.50939L27.3192 9.32597Z" fill="#29FFCE"/>
<path d="M27.3969 9.11473L28.3171 8.90068L28.2393 9.1089L27.3193 9.32598L27.3969 9.11473Z" fill="#3CFFBA"/>
<path d="M27.4511 8.88095L28.3717 8.6703L28.3166 8.90064L27.3965 9.11469L27.4511 8.88095Z" fill="#53FFA4"/>
<path d="M27.4812 8.63071L28.4027 8.42374L28.3718 8.6703L27.4512 8.88095L27.4812 8.63071Z" fill="#66FF90"/>
<path d="M27.4861 8.37034L28.4088 8.16724L28.4029 8.42366L27.4814 8.63063L27.4861 8.37034Z" fill="#7DFF7A"/>
<path d="M27.4648 8.10679L28.389 7.90764L28.4085 8.16724L27.4858 8.37034L27.4648 8.10679Z" fill="#94FF63"/>
<path d="M27.4189 7.84701L28.3449 7.65178L28.3893 7.90773L27.4651 8.10689L27.4189 7.84701Z" fill="#AAFF4D"/>
<path d="M27.3486 7.59761L28.2766 7.40619L28.3448 7.65172L27.4188 7.84695L27.3486 7.59761Z" fill="#BEFF39"/>
<path d="M27.2559 7.36557L28.186 7.17772L28.2763 7.4063L27.3483 7.59773L27.2559 7.36557Z" fill="#D1FF26"/>
<path d="M26.4023 6.62925L27.3459 6.45323L27.5034 6.47819L26.5618 6.65472L26.4023 6.62925Z" fill="#FFE200"/>
<path d="M27.1436 7.15663L28.076 6.97202L28.186 7.17754L27.2559 7.3654L27.1436 7.15663Z" fill="#E1FF16"/>
<path d="M26.5615 6.65498L27.5031 6.47844L27.659 6.54505L26.7196 6.72275L26.5615 6.65498Z" fill="#FFE600"/>
<path d="M27.0146 6.97689L27.9494 6.7951L28.0763 6.97208L27.1439 7.15669L27.0146 6.97689Z" fill="#EEFF09"/>
<path d="M26.7197 6.72259L27.6592 6.54489L27.8093 6.65145L26.8721 6.83091L26.7197 6.72259Z" fill="#FFEA00"/>
<path d="M26.8721 6.83097L27.8092 6.6515L27.9496 6.79518L27.0148 6.97697L26.8721 6.83097Z" fill="#FBF100"/>
<path d="M26.0412 10.023L26.9721 9.77534L26.8283 9.85126L25.8926 10.1017L26.0412 10.023Z" fill="#00E0FB"/>
<path d="M26.1772 9.90363L27.1039 9.66037L26.9719 9.77522L26.041 10.0229L26.1772 9.90363Z" fill="#09F0EE"/>
<path d="M26.298 9.74672L27.2212 9.50929L27.1045 9.66029L26.1777 9.90355L26.298 9.74672Z" fill="#16FFE1"/>
<path d="M26.399 9.55629L27.3196 9.32602L27.2211 9.50944L26.2979 9.74687L26.399 9.55629Z" fill="#29FFCE"/>
<path d="M26.4778 9.33667L27.3967 9.11472L27.3191 9.32596L26.3984 9.55623L26.4778 9.33667Z" fill="#3CFFBA"/>
<path d="M26.5339 9.09363L27.452 8.88094L27.3974 9.11467L26.4785 9.33663L26.5339 9.09363Z" fill="#50FFA7"/>
<path d="M26.5641 8.83356L27.4823 8.63084L27.4522 8.88109L26.5342 9.09378L26.5641 8.83356Z" fill="#66FF90"/>
<path d="M26.567 8.56279L27.4864 8.37051L27.4817 8.6308L26.5635 8.83352L26.567 8.56279Z" fill="#7DFF7A"/>
<path d="M26.5439 8.28854L27.4654 8.10689L27.4864 8.37044L26.567 8.56271L26.5439 8.28854Z" fill="#94FF63"/>
<path d="M26.4951 8.01807L27.4196 7.84695L27.4657 8.10684L26.5443 8.28848L26.4951 8.01807Z" fill="#AAFF4D"/>
<path d="M26.4209 7.75857L27.3492 7.5976L27.4194 7.84693L26.495 8.01805L26.4209 7.75857Z" fill="#C1FF36"/>
<path d="M26.3242 7.51698L27.2571 7.36549L27.3496 7.59765L26.4212 7.75862L26.3242 7.51698Z" fill="#D4FF23"/>
<path d="M25.4346 6.75032L26.4026 6.62936L26.562 6.65484L25.6 6.77693L25.4346 6.75032Z" fill="#FFDE00"/>
<path d="M26.2061 7.29967L27.1441 7.15675L27.2565 7.36552L26.3236 7.51701L26.2061 7.29967Z" fill="#E4FF13"/>
<path d="M25.5996 6.77691L26.5617 6.65482L26.7197 6.72259L25.7638 6.84755L25.5996 6.77691Z" fill="#FFDE00"/>
<path d="M26.0713 7.11241L27.0151 6.9769L27.1443 7.15669L26.2062 7.29961L26.0713 7.11241Z" fill="#F1FC06"/>
<path d="M25.7646 6.84771L26.7205 6.72275L26.873 6.83107L25.9232 6.96054L25.7646 6.84771Z" fill="#FFE600"/>
<path d="M25.9229 6.9604L26.8726 6.83093L27.0153 6.97694L26.0716 7.11245L25.9229 6.9604Z" fill="#FEED00"/>
<path d="M25.002 10.3793L25.8933 10.1017L25.7361 10.138L24.8359 10.4176L25.002 10.3793Z" fill="#00CCFF"/>
<path d="M25.1587 10.2958L26.0418 10.0227L25.8933 10.1015L25.002 10.3791L25.1587 10.2958Z" fill="#00D8FF"/>
<path d="M25.3027 10.1695L26.1785 9.90353L26.0423 10.0228L25.1592 10.2958L25.3027 10.1695Z" fill="#02E8F4"/>
<path d="M25.4282 10.0033L26.2978 9.7468L26.1776 9.90363L25.3018 10.1696L25.4282 10.0033Z" fill="#13FCE4"/>
<path d="M25.5348 9.80135L26.3995 9.55637L26.2983 9.74694L25.4287 10.0035L25.5348 9.80135Z" fill="#23FFD4"/>
<path d="M25.6181 9.56814L26.4792 9.33656L26.3998 9.55613L25.5352 9.80111L25.6181 9.56814Z" fill="#39FFBE"/>
<path d="M25.6756 9.31037L26.5347 9.09372L26.4792 9.33672L25.6182 9.5683L25.6756 9.31037Z" fill="#50FFA7"/>
<path d="M25.7052 9.03411L26.5638 8.83353L26.5338 9.09375L25.6748 9.3104L25.7052 9.03411Z" fill="#66FF90"/>
<path d="M25.7085 8.74659L26.5681 8.56281L26.5646 8.83354L25.7061 9.03412L25.7085 8.74659Z" fill="#7DFF7A"/>
<path d="M25.6826 8.4553L26.5449 8.2886L26.568 8.56278L25.7084 8.74656L25.6826 8.4553Z" fill="#97FF60"/>
<path d="M25.6289 8.16777L26.4954 8.01801L26.5446 8.28841L25.6823 8.4551L25.6289 8.16777Z" fill="#ADFF49"/>
<path d="M25.5488 7.89209L26.421 7.75862L26.495 8.01811L25.6285 8.16787L25.5488 7.89209Z" fill="#C4FF33"/>
<path d="M25.4453 7.63519L26.3244 7.51695L26.4214 7.75859L25.5492 7.89206L25.4453 7.63519Z" fill="#D7FF1F"/>
<path d="M24.5 6.81998L25.4353 6.75044L25.6007 6.77705L24.6753 6.84832L24.5 6.81998Z" fill="#FFD700"/>
<path d="M25.3203 7.40429L26.2074 7.29979L26.3249 7.51713L25.4459 7.63536L25.3203 7.40429Z" fill="#EBFF0C"/>
<path d="M24.6748 6.8483L25.6002 6.77702L25.7644 6.84766L24.849 6.92345L24.6748 6.8483Z" fill="#FFD700"/>
<path d="M25.1758 7.20519L26.0717 7.11255L26.2066 7.29975L25.3196 7.40425L25.1758 7.20519Z" fill="#F8F500"/>
<path d="M24.8496 6.92344L25.765 6.84764L25.9236 6.96047L25.0181 7.04346L24.8496 6.92344Z" fill="#FFDB00"/>
<path d="M25.0176 7.04336L25.9231 6.96037L26.0718 7.11242L25.1758 7.20506L25.0176 7.04336Z" fill="#FFE600"/>
<path d="M22.1572 11.1899L22.7447 10.8658L22.556 10.7027L21.9502 11.011L22.1572 11.1899Z" fill="#00A0FF"/>
<path d="M21.9503 11.011L22.556 10.7027L22.3807 10.4949L21.7578 10.7832L21.9503 11.011Z" fill="#00B0FF"/>
<path d="M22.3735 11.3153L22.9423 10.98L22.7448 10.8657L22.1572 11.1897L22.3735 11.3153Z" fill="#0094FF"/>
<path d="M21.7581 10.783L22.381 10.4946L22.2234 10.2473L21.585 10.512L21.7581 10.783Z" fill="#00C4FF"/>
<path d="M22.5933 11.3844L23.1431 11.0428L22.9418 10.9801L22.373 11.3154L22.5933 11.3844Z" fill="#0094FF"/>
<path d="M21.585 10.5122L22.2235 10.2476L22.0877 9.96686L21.4355 10.2046L21.585 10.5122Z" fill="#00E0FB"/>
<path d="M22.8125 11.3951L23.3435 11.0522L23.1435 11.0429L22.5938 11.3845L22.8125 11.3951Z" fill="#0094FF"/>
<path d="M21.4355 10.2045L22.0877 9.96669L21.9771 9.65956L21.3135 9.86792L21.4355 10.2045Z" fill="#13FCE4"/>
<path d="M23.0242 11.3468L23.5372 11.0078L23.3435 11.0522L22.8125 11.395L23.0242 11.3468Z" fill="#009CFF"/>
<path d="M21.3131 9.8681L21.9768 9.65974L21.8943 9.33383L21.2217 9.51091L21.3131 9.8681Z" fill="#30FFC7"/>
<path d="M23.2238 11.2407L23.7199 10.9106L23.5374 11.0078L23.0244 11.3468L23.2238 11.2407Z" fill="#00ACFF"/>
<path d="M21.2214 9.51063L21.8941 9.33355L21.842 8.99701L21.1631 9.14173L21.2214 9.51063Z" fill="#49FFAD"/>
<path d="M21.1633 9.14191L21.8421 8.99719L21.8218 8.65854L21.1396 8.77059L21.1633 9.14191Z" fill="#6AFF8D"/>
<path d="M21.1396 8.77056L21.8218 8.65851L21.8339 8.32639L21.1515 8.4063L21.1396 8.77056Z" fill="#87FF70"/>
<path d="M21.1514 8.40617L21.8337 8.32625L21.8782 8.00922L21.1987 8.05834L21.1514 8.40617Z" fill="#A7FF50"/>
<path d="M21.1992 8.05854L21.8787 8.00942L21.9545 7.71576L21.281 7.73624L21.1992 8.05854Z" fill="#C4FF33"/>
<path d="M21.2812 7.73604L21.9548 7.71555L22.0601 7.45302L21.3955 7.4478L21.2812 7.73604Z" fill="#DEFF19"/>
<path d="M21.3945 7.44792L22.0591 7.45315L22.1915 7.22879L21.5386 7.20151L21.3945 7.44792Z" fill="#F8F500"/>
<path d="M21.5391 7.20142L22.192 7.22871L22.3481 7.04864L21.7092 7.00357L21.5391 7.20142Z" fill="#FFDB00"/>
<path d="M21.709 7.00377L22.3478 7.04884L22.5236 6.91804L21.901 6.85999L21.709 7.00377Z" fill="#FFC800"/>
<path d="M21.9014 6.85985L22.524 6.9179L22.7148 6.84007L22.1101 6.77425L21.9014 6.85985Z" fill="#FFB900"/>
<path d="M22.1104 6.77432L22.715 6.84015L22.9159 6.81758L22.3304 6.74944L22.1104 6.77432Z" fill="#FFAE00"/>
<path d="M21.7214 11.5153L22.1567 11.1899L21.9497 11.011L21.4941 11.3188L21.7214 11.5153Z" fill="#008CFF"/>
<path d="M21.4947 11.3188L21.9502 11.0109L21.7578 10.7832L21.2832 11.0688L21.4947 11.3188Z" fill="#009CFF"/>
<path d="M21.959 11.6531L22.3733 11.3153L22.157 11.1897L21.7217 11.5151L21.959 11.6531Z" fill="#0080FF"/>
<path d="M21.2832 11.0688L21.7578 10.7832L21.5846 10.5122L21.0928 10.7714L21.2832 11.0688Z" fill="#00B4FF"/>
<path d="M22.2005 11.7291L22.5936 11.3842L22.3733 11.3152L21.959 11.653L22.2005 11.7291Z" fill="#007CFF"/>
<path d="M21.0924 10.7714L21.5843 10.5122L21.4348 10.2046L20.9277 10.4339L21.0924 10.7714Z" fill="#00D0FF"/>
<path d="M22.44 11.7412L22.812 11.3949L22.5932 11.3843L22.2002 11.7292L22.44 11.7412Z" fill="#007CFF"/>
<path d="M20.9277 10.4339L21.4347 10.2046L21.3127 9.86804L20.793 10.0646L20.9277 10.4339Z" fill="#09F0EE"/>
<path d="M22.6725 11.6886L23.0242 11.3466L22.8124 11.3948L22.4404 11.7411L22.6725 11.6886Z" fill="#0088FF"/>
<path d="M20.7927 10.0646L21.3124 9.86807L21.221 9.51089L20.6914 9.67257L20.7927 10.0646Z" fill="#26FFD1"/>
<path d="M22.8913 11.5728L23.224 11.2406L23.0246 11.3466L22.6729 11.6887L22.8913 11.5728Z" fill="#0098FF"/>
<path d="M20.692 9.67246L21.2216 9.51078L21.1633 9.14188L20.627 9.26747L20.692 9.67246Z" fill="#46FFB1"/>
<path d="M23.0899 11.3959L23.4052 11.079L23.2233 11.2405L22.8906 11.5727L23.0899 11.3959Z" fill="#00ACFF"/>
<path d="M20.6267 9.2676L21.163 9.14201L21.1394 8.77071L20.5996 8.85986L20.6267 9.2676Z" fill="#66FF90"/>
<path d="M20.5996 8.85985L21.1394 8.7707L21.1513 8.40645L20.6115 8.45971L20.5996 8.85985Z" fill="#8AFF6D"/>
<path d="M20.6113 8.45962L21.1511 8.40636L21.1985 8.05852L20.6621 8.07737L20.6113 8.45962Z" fill="#AAFF4D"/>
<path d="M20.6621 8.07729L21.1985 8.05845L21.2803 7.73615L20.7507 7.72296L20.6621 8.07729Z" fill="#CAFF2C"/>
<path d="M20.751 7.72303L21.2805 7.73622L21.3948 7.44798L20.8755 7.40601L20.751 7.72303Z" fill="#E7FF0F"/>
<path d="M20.875 7.40601L21.3943 7.44798L21.5384 7.20157L21.0323 7.13486L20.875 7.40601Z" fill="#FFE600"/>
<path d="M21.0322 7.13466L21.5383 7.20137L21.7085 7.00351L21.2184 6.91684L21.0322 7.13466Z" fill="#FFCC00"/>
<path d="M21.2188 6.91706L21.7089 7.00374L21.9008 6.85996L21.4291 6.75868L21.2188 6.91706Z" fill="#FFB600"/>
<path d="M21.4287 6.7587L21.9005 6.85997L22.1092 6.77437L21.6577 6.66432L21.4287 6.7587Z" fill="#FFA300"/>
<path d="M21.6582 6.66421L22.1098 6.77426L22.3298 6.74937L21.8998 6.63667L21.6582 6.66421Z" fill="#FF9800"/>
<path d="M21.8994 6.63676L22.3294 6.74946L22.5549 6.78619L22.1472 6.67708L21.8994 6.63676Z" fill="#FF9400"/>
<path d="M22.1475 6.67693L22.5552 6.78604L22.78 6.88355L22.3947 6.7842L22.1475 6.67693Z" fill="#FF9400"/>
<path d="M21.4326 11.8285L21.7211 11.5152L21.4939 11.3187L21.1836 11.6132L21.4326 11.8285Z" fill="#0074FF"/>
<path d="M21.184 11.6132L21.4943 11.3187L21.2828 11.0687L20.9521 11.3394L21.184 11.6132Z" fill="#0084FF"/>
<path d="M21.6926 11.9799L21.9585 11.6532L21.7212 11.5152L21.4326 11.8286L21.6926 11.9799Z" fill="#0068FF"/>
<path d="M20.9521 11.3393L21.2828 11.0686L21.0923 10.7712L20.7432 11.0135L20.9521 11.3393Z" fill="#00A0FF"/>
<path d="M21.9569 12.0635L22.1999 11.7291L21.9583 11.6531L21.6924 11.9798L21.9569 12.0635Z" fill="#0064FF"/>
<path d="M20.7434 11.0136L21.0926 10.7713L20.9279 10.4337L20.5625 10.6439L20.7434 11.0136Z" fill="#00C0FF"/>
<path d="M22.2196 12.077L22.4398 11.7411L22.2 11.7291L21.957 12.0634L22.2196 12.077Z" fill="#0064FF"/>
<path d="M20.5623 10.644L20.9277 10.4338L20.793 10.0645L20.4141 10.2395L20.5623 10.644Z" fill="#00E4F8"/>
<path d="M22.4737 12.0201L22.672 11.6887L22.44 11.7412L22.2197 12.0771L22.4737 12.0201Z" fill="#0070FF"/>
<path d="M20.4144 10.2394L20.7933 10.0645L20.6921 9.67242L20.3027 9.80994L20.4144 10.2394Z" fill="#1FFFD7"/>
<path d="M22.7127 11.8938L22.8903 11.573L22.6719 11.6889L22.4736 12.0203L22.7127 11.8938Z" fill="#0080FF"/>
<path d="M20.3027 9.81001L20.692 9.67249L20.6269 9.26752L20.2305 9.36622L20.3027 9.81001Z" fill="#40FFB7"/>
<path d="M22.931 11.7005L23.0897 11.396L22.8905 11.5728L22.7129 11.8937L22.931 11.7005Z" fill="#0098FF"/>
<path d="M20.2298 9.36616L20.6263 9.26746L20.5992 8.85971L20.1992 8.91918L20.2298 9.36616Z" fill="#66FF90"/>
<path d="M23.1221 11.445L23.2643 11.1625L23.0894 11.396L22.9307 11.7005L23.1221 11.445Z" fill="#00B4FF"/>
<path d="M20.1992 8.9191L20.5992 8.85963L20.6111 8.45949L20.2113 8.48029L20.1992 8.9191Z" fill="#8AFF6D"/>
<path d="M20.2119 8.48043L20.6117 8.45964L20.6625 8.0774L20.2666 8.06108L20.2119 8.48043Z" fill="#ADFF49"/>
<path d="M20.2656 8.06113L20.6615 8.07746L20.7502 7.72311L20.3619 7.6722L20.2656 8.06113Z" fill="#D1FF26"/>
<path d="M20.3623 7.67217L20.7506 7.72308L20.875 7.40605L20.4979 7.32401L20.3623 7.67217Z" fill="#F4F802"/>
<path d="M20.498 7.32394L20.8751 7.40599L21.0324 7.13484L20.6698 7.02602L20.498 7.32394Z" fill="#FFD700"/>
<path d="M20.6699 7.02603L21.0325 7.13485L21.2187 6.91703L20.8735 6.78656L20.6699 7.02603Z" fill="#FFB900"/>
<path d="M20.873 6.78645L21.2182 6.91692L21.4285 6.75854L21.1033 6.61221L20.873 6.78645Z" fill="#FF9F00"/>
<path d="M21.1035 6.61221L21.4287 6.75853L21.6577 6.66415L21.3545 6.50826L21.1035 6.61221Z" fill="#FF8D00"/>
<path d="M21.3545 6.50845L21.6577 6.66435L21.8993 6.63681L21.6195 6.47797L21.3545 6.50845Z" fill="#FF8200"/>
<path d="M21.6191 6.47783L21.8989 6.63668L22.1467 6.67699L21.8911 6.52195L21.6191 6.47783Z" fill="#FF7A00"/>
<path d="M21.8916 6.52203L22.1472 6.67707L22.3945 6.78435L22.1631 6.63981L21.8916 6.52203Z" fill="#FF7E00"/>
<path d="M23.2647 11.1624L23.565 10.8659L23.4052 11.0791L23.0898 11.396L23.2647 11.1624Z" fill="#00C8FF"/>
<path d="M21.2192 12.5414L21.2129 12.3574L20.9184 12.1027L20.9023 12.2674L21.2192 12.5414Z" fill="#0028FF"/>
<path d="M20.9026 12.2675L20.9187 12.1028L20.6444 11.7791L20.6074 11.9192L20.9026 12.2675Z" fill="#0040FF"/>
<path d="M21.5499 12.7348L21.5202 12.5369L21.2129 12.3576L21.2192 12.5416L21.5499 12.7348Z" fill="#0018FF"/>
<path d="M20.6072 11.9193L20.6441 11.7791L20.3966 11.3942L20.3408 11.5051L20.6072 11.9193Z" fill="#0060FF"/>
<path d="M21.8868 12.842L21.8332 12.6363L21.5205 12.5368L21.5502 12.7347L21.8868 12.842Z" fill="#0010FF"/>
<path d="M20.3413 11.5052L20.3971 11.3942L20.1826 10.9573L20.1104 11.0351L20.3413 11.5052Z" fill="#0088FF"/>
<path d="M22.2208 12.8607L22.1435 12.6535L21.833 12.6365L21.8866 12.8421L22.2208 12.8607Z" fill="#0014FF"/>
<path d="M20.1096 11.035L20.1819 10.9572L20.0058 10.4789L19.9199 10.5204L20.1096 11.035Z" fill="#00B4FF"/>
<path d="M22.5445 12.7897L22.4441 12.5871L22.1436 12.6534L22.2209 12.8606L22.5445 12.7897Z" fill="#0020FF"/>
<path d="M19.9199 10.5203L20.0057 10.4789L19.8726 9.97092L19.7764 9.97353L19.9199 10.5203Z" fill="#02E8F4"/>
<path d="M22.8498 12.6301L22.7274 12.4384L22.4443 12.5869L22.5448 12.7895L22.8498 12.6301Z" fill="#0038FF"/>
<path d="M19.7771 9.97358L19.8733 9.97096L19.7867 9.44572L19.6836 9.40802L19.7771 9.97358Z" fill="#30FFC7"/>
<path d="M23.1285 12.386L22.9859 12.2112L22.7275 12.4386L22.85 12.6304L23.1285 12.386Z" fill="#0054FF"/>
<path d="M19.6832 9.40806L19.7864 9.44576L19.7489 8.91633L19.6426 8.83775L19.6832 9.40806Z" fill="#60FF97"/>
<path d="M23.3729 12.0617L23.2124 11.9097L22.9854 12.211L23.128 12.3857L23.3729 12.0617Z" fill="#007CFF"/>
<path d="M19.6426 8.83762L19.7489 8.91619L19.7619 8.39598L19.6562 8.27698L19.6426 8.83762Z" fill="#8DFF6A"/>
<path d="M23.5782 11.6658L23.4025 11.5417L23.2129 11.9099L23.3734 12.0619L23.5782 11.6658Z" fill="#00A8FF"/>
<path d="M19.6562 8.27701L19.7619 8.39601L19.8254 7.89837L19.7243 7.74042L19.6562 8.27701Z" fill="#BEFF39"/>
<path d="M23.7371 11.2069L23.5494 11.1155L23.4023 11.5415L23.5781 11.6656L23.7371 11.2069Z" fill="#00D8FF"/>
<path d="M19.7246 7.74066L19.8257 7.89861L19.9385 7.4366L19.8459 7.2422L19.7246 7.74066Z" fill="#EBFF0C"/>
<path d="M23.8462 10.6969L23.65 10.642L23.5498 11.1155L23.7375 11.207L23.8462 10.6969Z" fill="#23FFD4"/>
<path d="M19.8457 7.24218L19.9383 7.43657L20.0981 7.02256L20.0176 6.79523L19.8457 7.24218Z" fill="#FFD300"/>
<path d="M23.9005 10.1481L23.6998 10.1328L23.6494 10.6419L23.8455 10.6968L23.9005 10.1481Z" fill="#50FFA7"/>
<path d="M20.0176 6.79513L20.0981 7.02246L20.3009 6.66772L20.236 6.41191L20.0176 6.79513Z" fill="#FFA700"/>
<path d="M23.9004 9.57509L23.6992 9.60136L23.7004 10.1329L23.9011 10.1482L23.9004 9.57509Z" fill="#80FF77"/>
<path d="M20.2363 6.41196L20.3012 6.66776L20.5421 6.38224L20.496 6.10327L20.2363 6.41196Z" fill="#FF8200"/>
<path d="M23.8431 8.9928L23.6455 9.06157L23.6988 9.60158L23.9 9.57531L23.8431 8.9928Z" fill="#B1FF46"/>
<path d="M20.4961 6.10332L20.5423 6.38229L20.8152 6.17417L20.7904 5.87808L20.4961 6.10332Z" fill="#FF6000"/>
<path d="M23.7309 8.41629L23.541 8.5273L23.6453 9.06142L23.8429 8.99265L23.7309 8.41629Z" fill="#DEFF19"/>
<path d="M20.79 5.87792L20.8148 6.17401L21.1126 6.04946L21.1113 5.74286L20.79 5.87792Z" fill="#FF4A00"/>
<path d="M23.5669 7.86174L23.3887 8.01354L23.5415 8.52731L23.7314 8.4163L23.5669 7.86174Z" fill="#FFE200"/>
<path d="M21.1113 5.74297L21.1127 6.04957L21.4275 6.01251L21.451 5.70241L21.1113 5.74297Z" fill="#FF3800"/>
<path d="M23.3534 7.34418L23.1904 7.53414L23.388 8.0135L23.5662 7.86169L23.3534 7.34418Z" fill="#FFB200"/>
<path d="M21.4512 5.70222L21.4277 6.01233L21.751 6.0642L21.8001 5.75777L21.4512 5.70222Z" fill="#FF3000"/>
<path d="M23.0985 6.87807L22.9541 7.10245L23.1912 7.53418L23.3541 7.34421L23.0985 6.87807Z" fill="#FF8D00"/>
<path d="M21.7991 5.758L21.75 6.06443L22.073 6.20418L22.1477 5.90853L21.7991 5.758Z" fill="#FF3400"/>
<path d="M22.8067 6.47639L22.6836 6.73041L22.9538 7.10256L23.0982 6.87818L22.8067 6.47639Z" fill="#FF6800"/>
<path d="M22.148 5.90855L22.0732 6.2042L22.3871 6.42823L22.4867 6.15022L22.148 5.90855Z" fill="#FF3B00"/>
<path d="M22.4873 6.15013L22.3877 6.42814L22.6838 6.73038L22.8068 6.47636L22.4873 6.15013Z" fill="#FF4E00"/>
<path d="M21.2134 12.3576L21.2735 12.1148L21.0019 11.8799L20.9189 12.103L21.2134 12.3576Z" fill="#0040FF"/>
<path d="M20.9189 12.1027L21.0018 11.8797L20.7488 11.581L20.6445 11.779L20.9189 12.1027Z" fill="#0058FF"/>
<path d="M21.5202 12.5368L21.5565 12.2799L21.273 12.1146L21.2129 12.3574L21.5202 12.5368Z" fill="#0034FF"/>
<path d="M20.644 11.7791L20.7483 11.5811L20.5201 11.2259L20.3965 11.3941L20.644 11.7791Z" fill="#0074FF"/>
<path d="M21.8333 12.6365L21.8452 12.3716L21.5568 12.2801L21.5205 12.537L21.8333 12.6365Z" fill="#002CFF"/>
<path d="M20.3971 11.3942L20.5207 11.2259L20.3231 10.8228L20.1826 10.9573L20.3971 11.3942Z" fill="#009CFF"/>
<path d="M22.1435 12.6532L22.1313 12.3867L21.845 12.3714L21.833 12.6363L22.1435 12.6532Z" fill="#0030FF"/>
<path d="M20.182 10.9572L20.3224 10.8228L20.1603 10.3816L20.0059 10.479L20.182 10.9572Z" fill="#00C4FF"/>
<path d="M22.4445 12.5871L22.4089 12.3252L22.1318 12.3868L22.144 12.6534L22.4445 12.5871Z" fill="#003CFF"/>
<path d="M20.0062 10.479L20.1606 10.3816L20.0381 9.91309L19.873 9.971L20.0062 10.479Z" fill="#0CF4EB"/>
<path d="M22.7269 12.4385L22.6691 12.1877L22.4082 12.3252L22.4438 12.587L22.7269 12.4385Z" fill="#0050FF"/>
<path d="M19.8727 9.97097L20.0378 9.91306L19.9584 9.42879L19.7861 9.44572L19.8727 9.97097Z" fill="#36FFC1"/>
<path d="M22.9861 12.2111L22.9079 11.9775L22.6699 12.1878L22.7278 12.4386L22.9861 12.2111Z" fill="#006CFF"/>
<path d="M19.7865 9.4456L19.9587 9.42867L19.9246 8.94077L19.749 8.9162L19.7865 9.4456Z" fill="#60FF97"/>
<path d="M23.2125 11.9097L23.1162 11.6992L22.9072 11.9775L22.9854 12.211L23.2125 11.9097Z" fill="#0090FF"/>
<path d="M19.749 8.9162L19.9246 8.94077L19.9371 8.46156L19.762 8.396L19.749 8.9162Z" fill="#8DFF6A"/>
<path d="M23.4021 11.5416L23.2906 11.3595L23.1162 11.6992L23.2125 11.9097L23.4021 11.5416Z" fill="#00B8FF"/>
<path d="M19.7617 8.39605L19.9368 8.46162L19.9958 8.00342L19.8252 7.89841L19.7617 8.39605Z" fill="#B7FF40"/>
<path d="M23.5495 11.1156L23.4261 10.9666L23.291 11.3596L23.4025 11.5417L23.5495 11.1156Z" fill="#02E8F4"/>
<path d="M19.8252 7.89844L19.9958 8.00345L20.1002 7.57831L19.9381 7.43645L19.8252 7.89844Z" fill="#E1FF16"/>
<path d="M23.6494 10.642L23.5177 10.5301L23.4258 10.9666L23.5491 11.1155L23.6494 10.642Z" fill="#29FFCE"/>
<path d="M19.9385 7.43636L20.1006 7.57822L20.2481 7.19743L20.0982 7.02232L19.9385 7.43636Z" fill="#FFDE00"/>
<path d="M23.6996 10.1328L23.5636 10.061L23.5176 10.53L23.6492 10.6419L23.6996 10.1328Z" fill="#53FFA4"/>
<path d="M20.0977 7.02255L20.2475 7.19766L20.4347 6.8716L20.3005 6.6678L20.0977 7.02255Z" fill="#FFB600"/>
<path d="M23.6988 9.60137L23.5625 9.57175L23.564 10.0611L23.7 10.1329L23.6988 9.60137Z" fill="#80FF77"/>
<path d="M20.3008 6.66768L20.4349 6.87148L20.657 6.60925L20.5417 6.38216L20.3008 6.66768Z" fill="#FF9400"/>
<path d="M23.6451 9.06155L23.5127 9.07496L23.562 9.57194L23.6983 9.60157L23.6451 9.06155Z" fill="#ADFF49"/>
<path d="M20.542 6.38217L20.6573 6.60926L20.9086 6.4183L20.8149 6.17406L20.542 6.38217Z" fill="#FF7700"/>
<path d="M23.5413 8.52725L23.417 8.58342L23.5132 9.07477L23.6456 9.06136L23.5413 8.52725Z" fill="#D7FF1F"/>
<path d="M20.8145 6.1741L20.9082 6.41835L21.1823 6.30426L21.1123 6.04956L20.8145 6.1741Z" fill="#FF6000"/>
<path d="M23.3887 8.01344L23.2764 8.11089L23.4172 8.58337L23.5415 8.5272L23.3887 8.01344Z" fill="#FEED00"/>
<path d="M21.1123 6.04956L21.1824 6.30426L21.472 6.27058L21.4271 6.0125L21.1123 6.04956Z" fill="#FF5200"/>
<path d="M23.1904 7.53432L23.0938 7.67038L23.2756 8.11113L23.3879 8.01368L23.1904 7.53432Z" fill="#FFC400"/>
<path d="M21.4277 6.01257L21.4727 6.27065L21.77 6.31868L21.751 6.06445L21.4277 6.01257Z" fill="#FF4A00"/>
<path d="M22.9536 7.10258L22.876 7.27348L23.0941 7.67039L23.1907 7.53433L22.9536 7.10258Z" fill="#FF9F00"/>
<path d="M21.751 6.0643L21.77 6.31853L22.067 6.44724L22.074 6.20405L21.751 6.0643Z" fill="#FF4A00"/>
<path d="M22.6839 6.73039L22.6279 6.93131L22.8765 7.27343L22.9542 7.10254L22.6839 6.73039Z" fill="#FF7E00"/>
<path d="M22.0733 6.20416L22.0664 6.44735L22.355 6.65344L22.3872 6.42819L22.0733 6.20416Z" fill="#FF5500"/>
<path d="M22.3877 6.42812L22.3555 6.65337L22.6278 6.93128L22.6837 6.73035L22.3877 6.42812Z" fill="#FF6800"/>
<path d="M21.2726 12.1146L21.4328 11.8285L21.1839 11.6132L21.001 11.8797L21.2726 12.1146Z" fill="#005CFF"/>
<path d="M21.0011 11.8797L21.1839 11.6131L20.9521 11.3393L20.748 11.581L21.0011 11.8797Z" fill="#0070FF"/>
<path d="M21.556 12.2799L21.6926 11.9798L21.4327 11.8285L21.2725 12.1146L21.556 12.2799Z" fill="#004CFF"/>
<path d="M20.7477 11.5812L20.9518 11.3395L20.7428 11.0137L20.5195 11.226L20.7477 11.5812Z" fill="#008CFF"/>
<path d="M21.8441 12.3715L21.9568 12.0635L21.6923 11.9799L21.5557 12.28L21.8441 12.3715Z" fill="#0048FF"/>
<path d="M20.5199 11.226L20.7432 11.0138L20.5623 10.6441L20.3223 10.8229L20.5199 11.226Z" fill="#00ACFF"/>
<path d="M22.131 12.3868L22.22 12.0772L21.9574 12.0636L21.8447 12.3715L22.131 12.3868Z" fill="#004CFF"/>
<path d="M20.3223 10.8229L20.5623 10.6441L20.4141 10.2396L20.1602 10.3817L20.3223 10.8229Z" fill="#00D4FF"/>
<path d="M22.4079 12.3253L22.4738 12.0203L22.2198 12.0773L22.1309 12.3869L22.4079 12.3253Z" fill="#0054FF"/>
<path d="M20.1595 10.3816L20.4135 10.2395L20.3018 9.81001L20.0371 9.91312L20.1595 10.3816Z" fill="#16FFE1"/>
<path d="M22.6691 12.1877L22.7132 11.8937L22.4741 12.0202L22.4082 12.3251L22.6691 12.1877Z" fill="#0068FF"/>
<path d="M20.0374 9.91319L20.3021 9.81008L20.2299 9.3663L19.958 9.42894L20.0374 9.91319Z" fill="#3CFFBA"/>
<path d="M22.907 11.9776L22.9311 11.7007L22.713 11.8938L22.6689 12.1879L22.907 11.9776Z" fill="#0080FF"/>
<path d="M19.9579 9.42886L20.2298 9.36622L20.1992 8.91924L19.9238 8.94093L19.9579 9.42886Z" fill="#63FF94"/>
<path d="M23.1152 11.6993L23.1219 11.4452L22.9304 11.7006L22.9062 11.9776L23.1152 11.6993Z" fill="#00A0FF"/>
<path d="M19.9238 8.94077L20.1992 8.91908L20.2112 8.48027L19.9362 8.46156L19.9238 8.94077Z" fill="#8DFF6A"/>
<path d="M23.2897 11.3595L23.2815 11.1334L23.1218 11.445L23.1152 11.6992L23.2897 11.3595Z" fill="#00C8FF"/>
<path d="M19.9365 8.46167L20.2115 8.48037L20.2662 8.06101L19.9955 8.00348L19.9365 8.46167Z" fill="#B4FF43"/>
<path d="M23.4254 10.9665L23.4059 10.7731L23.2822 11.1333L23.2903 11.3594L23.4254 10.9665Z" fill="#0CF4EB"/>
<path d="M19.9951 8.00334L20.2658 8.06087L20.3621 7.67194L20.0995 7.57819L19.9951 8.00334Z" fill="#DBFF1C"/>
<path d="M23.5168 10.5301L23.4894 10.3733L23.4053 10.7732L23.4248 10.9666L23.5168 10.5301Z" fill="#30FFC7"/>
<path d="M20.0996 7.57826L20.3622 7.67201L20.4978 7.32385L20.2471 7.19746L20.0996 7.57826Z" fill="#FEED00"/>
<path d="M23.5637 10.0611L23.5323 9.94382L23.4902 10.3732L23.5177 10.5301L23.5637 10.0611Z" fill="#56FFA0"/>
<path d="M20.2471 7.19768L20.4978 7.32406L20.6695 7.02613L20.4342 6.87163L20.2471 7.19768Z" fill="#FFC800"/>
<path d="M23.5674 9.5719L23.5303 9.49606L23.532 9.94395L23.5692 10.0613L23.5674 9.5719Z" fill="#80FF77"/>
<path d="M20.4346 6.87141L20.6699 7.02591L20.8735 6.78644L20.6566 6.60918L20.4346 6.87141Z" fill="#FFA700"/>
<path d="M23.5126 9.07486L23.4854 9.04137L23.5305 9.49599L23.5619 9.57183L23.5126 9.07486Z" fill="#A7FF50"/>
<path d="M20.6562 6.60932L20.8732 6.78658L21.1035 6.61234L20.9076 6.41835L20.6562 6.60932Z" fill="#FF8D00"/>
<path d="M23.4165 8.5836L23.3975 8.59215L23.4855 9.04145L23.5127 9.07495L23.4165 8.5836Z" fill="#CEFF29"/>
<path d="M20.9082 6.4183L21.104 6.6123L21.355 6.50834L21.1823 6.30421L20.9082 6.4183Z" fill="#FF7700"/>
<path d="M23.2755 8.11113L23.2686 8.16026L23.3973 8.59216L23.4163 8.58361L23.2755 8.11113Z" fill="#F4F802"/>
<path d="M21.1816 6.30416L21.3543 6.50829L21.6193 6.4778L21.4713 6.27048L21.1816 6.30416Z" fill="#FF6C00"/>
<path d="M23.0938 7.67015L23.1024 7.75723L23.2686 8.16001L23.2756 8.11088L23.0938 7.67015Z" fill="#FFD300"/>
<path d="M21.4717 6.27065L21.6197 6.47797L21.8917 6.52209L21.769 6.31867L21.4717 6.27065Z" fill="#FF6400"/>
<path d="M22.876 7.27339L22.9034 7.39471L23.1027 7.75738L23.0941 7.6703L22.876 7.27339Z" fill="#FFB200"/>
<path d="M21.7686 6.31862L21.8912 6.52204L22.1627 6.63982L22.0656 6.44733L21.7686 6.31862Z" fill="#FF6400"/>
<path d="M22.627 6.93124L22.6758 7.08209L22.9029 7.39468L22.8755 7.27336L22.627 6.93124Z" fill="#FF9400"/>
<path d="M22.0654 6.4472L22.1626 6.63969L22.4263 6.82809L22.354 6.65329L22.0654 6.4472Z" fill="#FF6C00"/>
<path d="M22.3545 6.65324L22.4268 6.82804L22.6756 7.08199L22.6268 6.93115L22.3545 6.65324Z" fill="#FF7E00"/>
<path d="M21.2563 12.6535L21.2182 12.5417L20.9014 12.2676L20.9182 12.3611L21.2563 12.6535Z" fill="#000CFF"/>
<path d="M20.9185 12.3611L20.9016 12.2676L20.6064 11.9193L20.6035 11.9895L20.9185 12.3611Z" fill="#0028FF"/>
<path d="M21.6098 12.8596L21.5495 12.7347L21.2188 12.5416L21.2569 12.6534L21.6098 12.8596Z" fill="#0000FF"/>
<path d="M20.6036 11.9895L20.6065 11.9193L20.3402 11.5052L20.3193 11.5476L20.6036 11.9895Z" fill="#004CFF"/>
<path d="M21.9685 12.9743L21.8854 12.842L21.5488 12.7347L21.6092 12.8596L21.9685 12.9743Z" fill="#0000FF"/>
<path d="M20.3198 11.5473L20.3406 11.5049L20.1096 11.0349L20.0732 11.0457L20.3198 11.5473Z" fill="#0074FF"/>
<path d="M22.3257 12.9942L22.22 12.8605L21.8857 12.8419L21.9688 12.9742L22.3257 12.9942Z" fill="#0000FF"/>
<path d="M20.0727 11.046L20.109 11.0351L19.9194 10.5205L19.8701 10.4967L20.0727 11.046Z" fill="#00A8FF"/>
<path d="M22.6711 12.9188L22.5434 12.7896L22.2197 12.8606L22.3254 12.9943L22.6711 12.9188Z" fill="#0008FF"/>
<path d="M19.8701 10.4966L19.9194 10.5204L19.7759 9.97364L19.7168 9.91281L19.8701 10.4966Z" fill="#00E0FB"/>
<path d="M22.9977 12.7489L22.849 12.6301L22.5439 12.7895L22.6717 12.9187L22.9977 12.7489Z" fill="#0020FF"/>
<path d="M19.7171 9.91289L19.7762 9.97371L19.6827 9.40815L19.6172 9.30884L19.7171 9.91289Z" fill="#2CFFCA"/>
<path d="M23.2953 12.4885L23.1272 12.386L22.8486 12.6304L22.9973 12.7492L23.2953 12.4885Z" fill="#0040FF"/>
<path d="M19.6169 9.30863L19.6824 9.40795L19.6418 8.83766L19.5732 8.69926L19.6169 9.30863Z" fill="#5DFF9A"/>
<path d="M23.5572 12.1426L23.3719 12.0618L23.127 12.3858L23.295 12.4883L23.5572 12.1426Z" fill="#0068FF"/>
<path d="M19.5732 8.69947L19.6418 8.83786L19.6554 8.27722L19.5876 8.10013L19.5732 8.69947Z" fill="#90FF66"/>
<path d="M23.7767 11.7199L23.5769 11.6658L23.3721 12.0619L23.5573 12.1427L23.7767 11.7199Z" fill="#0098FF"/>
<path d="M19.5879 8.10014L19.6557 8.27723L19.7238 7.74066L19.6604 7.52623L19.5879 8.10014Z" fill="#C1FF36"/>
<path d="M23.9476 11.2298L23.7362 11.2069L23.5771 11.6656L23.777 11.7197L23.9476 11.2298Z" fill="#00CCFF"/>
<path d="M19.6602 7.52594L19.7236 7.74037L19.8449 7.24192L19.7896 6.99249L19.6602 7.52594Z" fill="#F4F802"/>
<path d="M24.0647 10.6847L23.845 10.6969L23.7363 11.207L23.9478 11.2298L24.0647 10.6847Z" fill="#1CFFDB"/>
<path d="M19.7891 6.99248L19.8444 7.24191L20.0163 6.79495L19.9726 6.51384L19.7891 6.99248Z" fill="#FFC400"/>
<path d="M24.1239 10.0981L23.8997 10.1482L23.8447 10.6968L24.0644 10.6847L24.1239 10.0981Z" fill="#4DFFAA"/>
<path d="M19.9727 6.51394L20.0163 6.79505L20.2348 6.41184L20.2061 6.10327L19.9727 6.51394Z" fill="#FF9800"/>
<path d="M24.1244 9.4852L23.8994 9.57511L23.9001 10.1482L24.1244 10.0981L24.1244 9.4852Z" fill="#80FF77"/>
<path d="M20.2061 6.1033L20.2347 6.41187L20.4944 6.10318L20.4836 5.77225L20.2061 6.1033Z" fill="#FF6F00"/>
<path d="M24.0645 8.86188L23.8428 8.99252L23.8996 9.57501L24.1246 9.48509L24.0645 8.86188Z" fill="#B4FF43"/>
<path d="M20.4844 5.77213L20.4951 6.10307L20.7894 5.87783L20.7991 5.53027L20.4844 5.77213Z" fill="#FF4A00"/>
<path d="M23.945 8.24521L23.7305 8.41634L23.8424 8.99267L24.0641 8.86203L23.945 8.24521Z" fill="#E4FF13"/>
<path d="M20.7987 5.53027L20.7891 5.87782L21.1103 5.74277L21.1424 5.38493L20.7987 5.53027Z" fill="#FF3000"/>
<path d="M23.7689 7.65164L23.5654 7.86187L23.7299 8.41642L23.9444 8.24529L23.7689 7.65164Z" fill="#FFD300"/>
<path d="M21.1425 5.38519L21.1104 5.74303L21.45 5.70246L21.5059 5.34106L21.1425 5.38519Z" fill="#FF2200"/>
<path d="M23.5425 7.09738L23.3535 7.34419L23.5664 7.86172L23.7699 7.65149L23.5425 7.09738Z" fill="#FFA300"/>
<path d="M21.5061 5.34099L21.4502 5.70238L21.7991 5.75793L21.8795 5.39986L21.5061 5.34099Z" fill="#FF1A00"/>
<path d="M23.269 6.59833L23.0977 6.8781L23.3533 7.34425L23.5423 7.09744L23.269 6.59833Z" fill="#FF7A00"/>
<path d="M21.8792 5.39993L21.7988 5.758L22.1474 5.90855L22.2523 5.56068L21.8792 5.39993Z" fill="#FF1A00"/>
<path d="M22.9567 6.16805L22.8057 6.47618L23.0972 6.87797L23.2686 6.5982L22.9567 6.16805Z" fill="#FF5500"/>
<path d="M22.2524 5.56061L22.1475 5.90848L22.4862 6.15014L22.6149 5.81909L22.2524 5.56061Z" fill="#FF2500"/>
<path d="M22.615 5.81895L22.4863 6.15001L22.8059 6.47623L22.9569 6.1681L22.615 5.81895Z" fill="#FF3800"/>
<path d="M16 20.25C19.1726 20.25 21.75 22.8274 21.75 26C21.75 29.1726 19.1726 31.75 16 31.75C12.8274 31.75 10.25 29.1726 10.25 26C10.25 22.8274 12.8274 20.25 16 20.25Z" fill="white" stroke="white" stroke-width="0.5"/>
<path fill-rule="evenodd" clip-rule="evenodd" d="M13.194 29.75L14.2819 28.6621C15.3278 29.3372 16.6722 29.3372 17.7181 28.6621L18.806 29.75L19.75 28.806L18.6621 27.7181C19.3372 26.6722 19.3372 25.3278 18.6621 24.2819L19.75 23.194L18.806 22.25L17.7181 23.3379C16.6722 22.6628 15.3278 22.6628 14.2819 23.3379L13.194 22.25L12.25 23.194L13.3379 24.2819C12.6628 25.3278 12.6628 26.6722 13.3379 27.7181L12.25 28.806L13.194 29.75ZM16 24.0839C17.0572 24.0839 17.9161 24.9428 17.9161 26C17.9161 27.0572 17.0572 27.9161 16 27.9161C14.9428 27.9161 14.0839 27.0572 14.0839 26C14.0839 24.9428 14.9428 24.0839 16 24.0839Z" fill="black"/>
<path d="M30.0658 21.9342L30.0658 21.9342C30.598 22.4662 31.0244 23.1044 31.3123 23.7996C31.6002 24.4948 31.75 25.2476 31.75 26C31.75 26.7524 31.6002 27.5052 31.3123 28.2004C31.0244 28.8956 30.598 29.5338 30.0658 30.0658L30.0658 30.0658C29.5338 30.598 28.8956 31.0244 28.2004 31.3123C27.5052 31.6002 26.7524 31.75 26 31.75C25.2476 31.75 24.4948 31.6002 23.7996 31.3123C23.1044 31.0244 22.4662 30.598 21.9342 30.0658L21.9342 30.0658C21.402 29.5338 20.9756 28.8956 20.6877 28.2004C20.3998 27.5052 20.25 26.7524 20.25 26C20.25 25.2476 20.3998 24.4948 20.6877 23.7996C20.9756 23.1044 21.402 22.4662 21.9342 21.9342L21.9342 21.9342C22.4662 21.402 23.1044 20.9756 23.7996 20.6877C24.4948 20.3998 25.2476 20.25 26 20.25C26.7524 20.25 27.5052 20.3998 28.2004 20.6877C28.8956 20.9756 29.5338 21.402 30.0658 21.9342Z" fill="#2775CA" stroke="white" stroke-width="0.5"/>
<path fill-rule="evenodd" clip-rule="evenodd" d="M24.9013 30.1565C24.9013 30.3031 24.7993 30.352 24.6513 30.352C22.7994 29.7592 21.5 28.0754 21.5 26.0952C21.5 24.1149 22.7994 22.4311 24.6513 21.8384C24.7998 21.7908 24.9013 21.8872 24.9013 22.0371V22.3823C24.9013 22.4833 24.8487 22.5809 24.75 22.6298C23.2993 23.1737 22.2993 24.5124 22.2993 26.0952C22.2993 27.6813 23.3487 29.0655 24.75 29.5606C24.8487 29.6094 24.9013 29.7104 24.9013 29.808V30.1565ZM26.4013 28.9189C26.4013 29.0166 26.2993 29.1143 26.2007 29.1143H25.7994C25.7007 29.1143 25.5987 29.0166 25.5987 28.9189V28.3229C24.7993 28.2252 24.4014 27.7789 24.2501 27.1341C24.2501 27.0364 24.2994 26.9387 24.4014 26.9387H24.8487C24.9507 26.9387 25.0001 26.9875 25.0494 27.0852C25.1514 27.4338 25.3487 27.7301 26 27.7301C26.5001 27.7301 26.8487 27.4826 26.8487 27.0852C26.8487 26.6912 26.6514 26.5414 25.9507 26.4436C24.9008 26.2972 24.4014 25.9975 24.4014 25.1539C24.4014 24.5123 24.9013 24.0172 25.5987 23.9162V23.3235C25.5987 23.2258 25.7007 23.1248 25.7994 23.1248H26.2007C26.2993 23.1248 26.4013 23.2258 26.4013 23.3235V23.9162C27 24.0172 27.4014 24.3625 27.5 24.9064C27.5 25.0074 27.4507 25.1051 27.3487 25.1051H26.9507C26.8487 25.1051 26.7993 25.0562 26.75 24.9585C26.6514 24.61 26.4013 24.4635 25.9507 24.4635C25.4507 24.4635 25.2007 24.711 25.2007 25.0562C25.2007 25.4014 25.3487 25.6 26.0987 25.701C27.152 25.8429 27.6513 26.144 27.6513 26.9875C27.6513 27.6291 27.1513 28.1764 26.4013 28.3229V28.9189ZM27.0987 30.1565C27.0987 30.3031 27.2007 30.4041 27.3487 30.3519C29.2006 29.7592 30.5 28.0754 30.5 26.0951C30.5 24.1149 29.1513 22.4311 27.3487 21.8383C27.2007 21.8383 27.0987 21.8872 27.0987 22.0371V22.3823C27.0987 22.4832 27.1513 22.5809 27.25 22.6297C28.6513 23.1248 29.7007 24.5123 29.7007 26.0951C29.7007 27.6813 28.7007 29.0166 27.25 29.5605C27.1513 29.6093 27.0987 29.7103 27.0987 29.808V30.1565Z" fill="white"/>
</g>
<defs>
<clipPath id="clip0_144_566112">
<rect width="32" height="32" fill="white"/>
</clipPath>
</defs>
</svg>
