<svg width="32" height="32" viewBox="0 0 32 32" fill="none" xmlns="http://www.w3.org/2000/svg">
<circle cx="16" cy="16" r="16" fill="white"/>
<path fill-rule="evenodd" clip-rule="evenodd" d="M11.8547 3.38356C13.3453 2.89364 14.9382 2.66964 16.5162 2.73012C18.0944 2.7906 19.6579 3.13588 21.113 3.74388C22.5683 4.35188 23.9152 5.22292 25.0675 6.29748C26.5917 7.71924 27.775 9.49748 28.4848 11.4866C29.1949 13.476 29.4314 15.6764 29.1574 17.7711C28.8838 19.8658 28.0998 21.8552 26.9139 23.566C25.728 25.2767 24.1398 26.7084 22.2746 27.7004C20.4093 28.692 18.2662 29.2437 16.1539 29.2757C14.0416 29.3077 11.9597 28.8204 10.095 27.8949C8.23073 26.9695 6.58337 25.6063 5.33249 23.9036C4.08161 22.2008 3.22721 20.1586 2.88801 18.0748C2.54881 15.9906 2.72481 13.8645 3.37473 11.8812C3.86593 10.3816 4.62817 8.96404 5.6048 7.73556H4.12033V5.2818H9.93696V10.7135H7.48321V9.22932C6.68321 10.2354 6.05857 11.3967 5.65633 12.6255C5.12417 14.2511 4.98081 15.9951 5.25633 17.6968C5.59873 19.8136 6.58881 21.8648 8.06657 23.4456C9.83425 25.3362 12.2995 26.5541 14.8659 26.8207C17.432 27.0872 20.0992 26.4028 22.2173 24.9285C24.3354 23.4543 25.905 21.1903 26.5421 18.6898C27.1792 16.1893 26.8838 13.4524 25.735 11.142C24.5862 8.83156 22.5837 6.94836 20.1891 5.95892C17.7946 4.96916 15.0077 4.8738 12.6038 5.66356L11.8547 3.38356Z" fill="url(#paint0_linear_621_9746)"/>
<circle cx="16" cy="16" r="8" fill="black"/>
<path fill-rule="evenodd" clip-rule="evenodd" d="M16.7668 10.5H15.1917V12.4442H14.114V12.4458C12.9391 12.4892 12 13.4535 12 14.6367C12 15.8476 12.9836 16.8291 14.1969 16.8291H15.1917V18.7734H12.2487V20.0144H15.1917V22H16.7668V20.0144H17.8216C17.8244 20.0145 17.8271 20.0145 17.8298 20.0145H17.8333L17.8446 20.0144C19.0387 19.9923 20 19.019 20 17.8219C20 16.6111 19.0164 15.6295 17.8031 15.6295H16.7668V13.6853H19.7098V12.4442H16.7668V10.5ZM16.7668 16.8291V15.6295H15.2332V13.6439H14.487V13.6459C13.978 13.6786 13.5751 14.1097 13.5751 14.6367C13.5751 15.1637 13.978 15.5948 14.487 15.6275V15.6295H15.2332V16.8291H16.7668ZM16.7668 16.8291V18.8147H17.513V18.8127C18.022 18.78 18.4249 18.349 18.4249 17.8219C18.4249 17.2949 18.022 16.8639 17.513 16.8312V16.8291H16.7668Z" fill="white"/>
<defs>
<linearGradient id="paint0_linear_621_9746" x1="2.04343" y1="13.297" x2="15.2222" y2="29.5763" gradientUnits="userSpaceOnUse">
<stop stop-color="#004CFF"/>
<stop offset="0.252131" stop-color="#00E0FB"/>
<stop offset="0.505709" stop-color="#87FF70"/>
<stop offset="0.755054" stop-color="#F8F500"/>
<stop offset="1" stop-color="#FF1A00"/>
</linearGradient>
</defs>
</svg>
