<svg width="32" height="32" viewBox="0 0 32 32" fill="none" xmlns="http://www.w3.org/2000/svg">
<g clip-path="url(#clip0_11_45770)">
<path d="M32 16C32 24.8366 24.8366 32 16 32C7.16344 32 0 24.8366 0 16C0 7.16344 7.16344 0 16 0C24.8366 0 32 7.16344 32 16Z" fill="url(#paint0_linear_11_45770)"/>
<path fill-rule="evenodd" clip-rule="evenodd" d="M16 31C24.2843 31 31 24.2843 31 16C31 7.71573 24.2843 1 16 1C7.71573 1 1 7.71573 1 16C1 24.2843 7.71573 31 16 31ZM16 32C24.8366 32 32 24.8366 32 16C32 7.16344 24.8366 0 16 0C7.16344 0 0 7.16344 0 16C0 24.8366 7.16344 32 16 32Z" fill="url(#paint1_linear_11_45770)"/>
<path fill-rule="evenodd" clip-rule="evenodd" d="M3 16C3 10.4967 6.53183 5.80503 11.4868 4V5.26189C7.20568 7.00603 4.19387 11.157 4.19387 16C4.19387 20.8431 7.20568 24.9939 11.4868 26.738V28C6.53183 26.1949 3 21.5033 3 16ZM20.5135 4.00014V5.26205C24.7944 7.00629 27.8061 11.157 27.8061 16C27.8061 20.8429 24.7944 24.9937 20.5135 26.7379V27.9998C25.4684 26.1946 29 21.5032 29 16C29 10.4968 25.4684 5.80529 20.5135 4.00014ZM16.6816 6.41237L16.0008 5.2612L15.3197 6.4123L11.1511 13.4583H8.5217V14.6331H23.4849V13.4583H20.8494L16.6816 6.41237ZM19.026 13.4583L16.0006 8.34358L12.9746 13.4583H19.026ZM23.4849 18.4706H20.8568L16.6816 25.5291L16.0008 26.6803L15.3197 25.5291L11.1437 18.4706H8.5217V17.2959H23.4849V18.4706ZM12.9672 18.4706H19.0334L16.0006 23.5978L12.9672 18.4706Z" fill="white"/>
</g>
<defs>
<linearGradient id="paint0_linear_11_45770" x1="16" y1="0" x2="16" y2="32" gradientUnits="userSpaceOnUse">
<stop stop-color="#2C2C2C"/>
<stop offset="0.78" stop-color="#070707"/>
<stop offset="1" stop-color="#1E1E1E"/>
</linearGradient>
<linearGradient id="paint1_linear_11_45770" x1="16" y1="0" x2="16" y2="32" gradientUnits="userSpaceOnUse">
<stop stop-color="#D9D9D9"/>
<stop offset="1"/>
</linearGradient>
<clipPath id="clip0_11_45770">
<rect width="32" height="32" fill="white"/>
</clipPath>
</defs>
</svg>
