<svg width="40" height="40" viewBox="0 0 40 40" fill="none" xmlns="http://www.w3.org/2000/svg">
    <rect width="40" height="40" rx="8" fill="#008AFF"/>
    <path d="M20.8287 6.1594C20.1942 5.94687 19.8058 5.94687 19.1713 6.1594C17.6232 6.67787 17.6903 9.95895 18.1687 13.1962C16.9575 10.1562 15.3687 7.2847 13.7695 7.61334C13.114 7.74805 12.7781 7.94297 12.3359 8.44532C11.2725 9.65342 12.9145 12.3957 14.9144 14.9256C12.3801 12.9312 9.63428 11.2953 8.42851 12.3613C7.92714 12.8046 7.73296 13.1409 7.59968 13.7967C7.27677 15.3857 10.1106 16.9576 13.1301 18.159C9.91442 17.6895 6.67434 17.6337 6.1594 19.1713C5.94687 19.8058 5.94687 20.1942 6.1594 20.8287C6.67434 22.3663 9.91442 22.3105 13.1301 21.841C10.1105 23.0424 7.27676 24.6143 7.59967 26.2033C7.73295 26.8591 7.92712 27.1954 8.4285 27.6387C9.63425 28.7047 12.3801 27.0689 14.9143 25.0745C12.9144 27.6044 11.2725 30.3466 12.3359 31.5547C12.7781 32.057 13.1139 32.2519 13.7694 32.3867C15.3686 32.7153 16.9575 29.8437 18.1687 26.8037C17.6903 30.0409 17.6231 33.3221 19.1713 33.8406C19.8058 34.0531 20.1942 34.0531 20.8287 33.8406C22.3769 33.3221 22.3097 30.0408 21.8312 26.8035C23.0424 29.8436 24.6314 32.7153 26.2306 32.3867C26.8861 32.2519 27.222 32.057 27.6642 31.5547C28.7275 30.3466 27.0856 27.6044 25.0857 25.0745C27.62 27.0689 30.3658 28.7047 31.5715 27.6387C32.0729 27.1954 32.2671 26.8591 32.4004 26.2033C32.7233 24.6143 29.8895 23.0424 26.87 21.841C30.0856 22.3105 33.3257 22.3663 33.8406 20.8287C34.0531 20.1942 34.0531 19.8058 33.8406 19.1713C33.3257 17.6337 30.0856 17.6895 26.87 18.159C29.8895 16.9576 32.7233 15.3857 32.4004 13.7967C32.2671 13.1409 32.0729 12.8046 31.5715 12.3613C30.3658 11.2953 27.6199 12.9312 25.0856 14.9256C27.0856 12.3957 28.7275 9.65342 27.6641 8.44532C27.2219 7.94297 26.8861 7.74805 26.2306 7.61334C24.6314 7.28469 23.0425 10.1563 21.8313 13.1963C22.3097 9.95907 22.3769 6.67788 20.8287 6.1594Z" fill="white"/>
</svg>
