<svg width="240" height="240" viewBox="0 0 240 240" fill="none" xmlns="http://www.w3.org/2000/svg">
<g clip-path="url(#clip0_3965_20963)">
<path d="M120 240C186.5 240 240 186.5 240 120C240 53.4996 186.5 0 120 0C53.4996 0 0 53.4996 0 120C0 186.5 53.4996 240 120 240Z" fill="#326BFF"/>
<path fill-rule="evenodd" clip-rule="evenodd" d="M160.245 172.124C108.02 137.509 92.755 86.338 92.2942 60.9953L147.034 60C147.21 69.6714 155.119 103.043 190.492 126.488L160.245 172.124Z" fill="#D6E1FF"/>
<path fill-rule="evenodd" clip-rule="evenodd" d="M79.2469 172.124C131.472 137.509 146.737 86.338 147.198 60.9953L92.4575 60C92.2817 69.6714 84.3733 103.043 49 126.488L79.2469 172.124Z" fill="#7097FF"/>
<path fill-rule="evenodd" clip-rule="evenodd" d="M92.3242 62.1314C92.9142 79.2087 99.9845 107.081 119.746 133.868C139.507 107.081 146.578 79.2087 147.168 62.1314C147.128 61.7295 147.097 61.3496 147.075 60.993L119.746 60.4961L92.4165 60.993C92.3946 61.3496 92.364 61.7295 92.3242 62.1314Z" fill="#F1F5FF"/>
</g>
<defs>
<clipPath id="clip0_3965_20963">
<rect width="240" height="240" fill="white"/>
</clipPath>
</defs>
</svg>
