<svg width="32" height="32" viewBox="0 0 32 32" fill="none" xmlns="http://www.w3.org/2000/svg">
<circle cx="16" cy="16" r="16" fill="#F42B70"/>
<circle cx="16" cy="16" r="14" fill="#0C73BE"/>
<circle cx="16" cy="16" r="12" fill="#FEC618"/>
<circle cx="16" cy="16" r="10" fill="#2B2B37"/>
<circle cx="16" cy="16" r="8" fill="#2B2B37"/>
<circle cx="16" cy="16" r="6" fill="#2B2B37"/>
<circle cx="16" cy="16" r="4" fill="#2B2B37"/>
<path fill-rule="evenodd" clip-rule="evenodd" d="M12.2927 10.6996L11.5933 11.3993L13.2999 13.1062L15.0065 14.8131V16.402V17.9909H16.001H16.9955V16.402V14.8131L18.698 13.1104L20.4005 11.4076L19.6967 10.7043L18.9929 10.001L17.5062 11.484C16.6885 12.2997 16.0113 12.9671 16.0014 12.9671C15.9915 12.9671 15.3134 12.2995 14.4945 11.4835C13.6756 10.6676 13.0026 10 12.9988 10C12.9951 10 12.6773 10.3148 12.2927 10.6996ZM11.5042 14.8004C11.2816 15.2705 11.1527 15.6755 11.0697 16.1656C10.8323 17.5669 11.2075 19.01 12.1008 20.1319C12.2482 20.317 12.6819 20.7506 12.8658 20.8967C13.6933 21.554 14.6354 21.9182 15.6921 21.9892C16.3242 22.0317 16.9562 21.9488 17.577 21.742C19.3715 21.1443 20.667 19.6015 20.9472 17.7287C21.055 17.008 20.9968 16.2371 20.7809 15.5262C20.6951 15.2435 20.5212 14.82 20.4303 14.6723L20.3955 14.6158L19.6389 15.3719C19.0285 15.9818 18.8841 16.1346 18.8918 16.1617C18.9542 16.3804 18.9874 16.6077 18.9962 16.8782C19.0135 17.4026 18.9305 17.8264 18.7241 18.2691C18.3228 19.1296 17.5398 19.7437 16.5825 19.9489C16.4163 19.9845 16.3552 19.9885 15.9926 19.988C15.6367 19.9875 15.5668 19.9828 15.411 19.9492C14.4619 19.744 13.7155 19.1634 13.2944 18.3028C13.104 17.9138 13.0179 17.5538 13.0049 17.0932C12.9955 16.7602 13.0139 16.5588 13.0776 16.2967L13.1185 16.1281L12.3644 15.3737C11.9495 14.9587 11.6056 14.6192 11.6001 14.6192C11.5945 14.6192 11.5514 14.7007 11.5042 14.8004Z" fill="white"/>
<path fill-rule="evenodd" clip-rule="evenodd" d="M32 25C32 24.0838 31.8177 23.1677 31.4672 22.3212C31.1166 21.4748 30.5976 20.6981 29.9497 20.0503C29.3019 19.4024 28.5252 18.8834 27.6788 18.5328C26.8323 18.1823 25.9162 18 25 18C24.0838 18 23.1677 18.1823 22.3212 18.5328C21.4748 18.8834 20.6981 19.4024 20.0503 20.0503C19.4024 20.6981 18.8834 21.4748 18.5328 22.3212C18.1823 23.1677 18 24.0838 18 25C18 25.9162 18.1823 26.8323 18.5328 27.6788C18.8834 28.5252 19.4024 29.3019 20.0503 29.9497C20.6981 30.5976 21.4748 31.1166 22.3212 31.4672C23.1677 31.8177 24.0838 32 25 32C25.9162 32 26.8323 31.8177 27.6788 31.4672C28.5252 31.1166 29.3019 30.5976 29.9497 29.9497C30.5976 29.3019 31.1166 28.5252 31.4672 27.6788C31.8177 26.8323 32 25.9162 32 25Z" fill="white"/>
<path fill-rule="evenodd" clip-rule="evenodd" d="M22.8761 25.4121C21.4208 25.6721 20.4308 26.1845 20.4308 26.7741C20.4308 27.6266 22.501 28.3177 25.0547 28.3177C27.6083 28.3177 29.6785 27.6266 29.6785 26.7741C29.6785 26.1845 28.6885 25.6721 27.2333 25.4121C26.6008 25.5709 25.8543 25.6626 25.0547 25.6626C24.2551 25.6626 23.5085 25.5709 22.8761 25.4121Z" fill="black"/>
<path fill-rule="evenodd" clip-rule="evenodd" d="M23.4377 22.8838C22.2051 23.0841 21.3556 23.5063 21.3556 23.9948C21.3556 24.6769 23.0117 25.2298 25.0547 25.2298C27.0976 25.2298 28.7537 24.6769 28.7537 23.9948C28.7537 23.5063 27.9043 23.0841 26.6716 22.8838C26.198 23.0012 25.6452 23.0686 25.0547 23.0686C24.4641 23.0686 23.9113 23.0012 23.4377 22.8838Z" fill="black"/>
<ellipse cx="25.0547" cy="21.7416" rx="2.7743" ry="0.926214" fill="black"/>
<path fill-rule="evenodd" clip-rule="evenodd" d="M31.4672 22.3212C31.8177 23.1677 32 24.0838 32 25C32 25.9162 31.8177 26.8323 31.4672 27.6788C31.1166 28.5252 30.5976 29.3019 29.9497 29.9497C29.3019 30.5976 28.5252 31.1166 27.6788 31.4672C26.8323 31.8177 25.9162 32 25 32C24.0838 32 23.1677 31.8177 22.3212 31.4672C21.4748 31.1166 20.6981 30.5976 20.0503 29.9497C19.4024 29.3019 18.8834 28.5252 18.5328 27.6788C18.1823 26.8323 18 25.9162 18 25C18 24.0838 18.1823 23.1677 18.5328 22.3212C18.8834 21.4748 19.4024 20.6981 20.0503 20.0503C20.6981 19.4024 21.4748 18.8834 22.3212 18.5328C23.1677 18.1823 24.0838 18 25 18C25.9162 18 26.8323 18.1823 27.6788 18.5328C28.5252 18.8834 29.3019 19.4024 29.9497 20.0503C30.5976 20.6981 31.1166 21.4748 31.4672 22.3212ZM30.8205 22.5891C31.1359 23.3509 31.3 24.1754 31.3 25C31.3 25.8246 31.1359 26.6491 30.8205 27.4109C30.5049 28.1727 30.0378 28.8717 29.4548 29.4548C28.8717 30.0378 28.1727 30.5049 27.4109 30.8205C26.6491 31.1359 25.8246 31.3 25 31.3C24.1754 31.3 23.3509 31.1359 22.5891 30.8205C21.8273 30.5049 21.1283 30.0378 20.5452 29.4548C19.9622 28.8717 19.4951 28.1727 19.1795 27.4109C18.8641 26.6491 18.7 25.8246 18.7 25C18.7 24.1754 18.8641 23.3509 19.1795 22.5891C19.4951 21.8273 19.9622 21.1283 20.5452 20.5452C21.1283 19.9622 21.8273 19.4951 22.5891 19.1795C23.3509 18.8641 24.1754 18.7 25 18.7C25.8246 18.7 26.6491 18.8641 27.4109 19.1795C28.1727 19.4951 28.8717 19.9622 29.4548 20.5452C30.0378 21.1283 30.5049 21.8273 30.8205 22.5891Z" fill="black"/>
</svg>
