<svg width="240" height="240" viewBox="0 0 240 240" fill="none" xmlns="http://www.w3.org/2000/svg">
<g clip-path="url(#clip0_6308_3738)">
<circle cx="120" cy="120" r="120" fill="white"/>
<path d="M120.002 35.6597L193.043 77.8299V162.17L120.002 204.341L46.9609 162.17V77.8299L120.002 35.6597Z" fill="#010101"/>
<path d="M120.026 166.822V121.122L134.416 144.942C152.796 133.782 153.416 106.172 134.226 95.4822C109.056 81.4622 81.0059 108.412 95.4059 134.332C98.1559 139.272 101.806 141.332 105.186 145.422L95.7159 160.732C73.1859 147.182 66.3959 117.882 79.9059 95.3622C94.2059 71.5322 127.566 65.8922 149.276 83.3822C184.026 111.372 164.256 167.552 120.016 166.802L120.026 166.822Z" fill="white"/>
</g>
<defs>
<clipPath id="clip0_6308_3738">
<rect width="240" height="240" fill="white"/>
</clipPath>
</defs>
</svg>
