<svg xmlns="http://www.w3.org/2000/svg" width="40" height="40"><g fill="none" fill-rule="nonzero"><rect width="40" height="40" fill="#F5F6F2" rx="12"/><path fill="#1D1D1F" d="m20 11.87.08.02c.1 0 .2.03.27.09.1.06.16.16.2.27.05.15.08.33.1.53v.37l.04.58.02.93.02 1.16.01 1.63.01 1.8h1.8l1 .01 1.22.02 1.14.03.8.02.24.02.25.01c.2.02.4.04.54.09.1.04.2.1.27.2.06.1.1.21.1.35a.6.6 0 0 1-.1.36.55.55 0 0 1-.28.2c-.14.05-.32.07-.53.09l-.25.01-.54.02-.5.02-.59.01-.85.02-1.25.02H20.75v1.8l-.02 1.33-.02 1.46-.02.93-.03.59-.01.24c-.02.25-.03.48-.1.66-.04.1-.1.2-.2.26a.54.54 0 0 1-.27.1h-.16a.55.55 0 0 1-.27-.09.56.56 0 0 1-.2-.27 1.64 1.64 0 0 1-.08-.42l-.02-.24v-.13h.13-.14l-.01-.39-.03-.65-.01-.59-.02-.85-.01-1.26-.01-1.73v-.74H17.8l-1.35-.02-1.22-.01-1.14-.03-.8-.03h-.24l-.13-.01c-.22 0-.45-.04-.66-.1a.58.58 0 0 1-.27-.2.6.6 0 0 1-.1-.28v-.16c.02-.1.05-.19.1-.27.07-.1.16-.16.27-.2.15-.05.33-.07.53-.09l.26-.01.53-.03.5-.01.6-.02.84-.02 1.26-.01 1.73-.01h.73l.01-1.8.02-1.33.02-1.46.02-.93.03-.58.01-.24.02-.25c.01-.16.04-.3.08-.41.04-.11.1-.2.2-.27a.5.5 0 0 1 .27-.1H20Zm-2.07 2.57h.17c.24.01.41.07.53.18.13.1.19.23.21.35l.01.05v.08c0 .13-.03.26-.1.37l-.05.06-.05.06a.85.85 0 0 1-.54.21h-.13l-.69.03-.65.03-.64.04-.6.05-.59.05-.57.06-.55.06-.53.07-.26.03-.5.08-.48.07-.23.05-.46.08-.44.1-.2.04-.42.1-.2.04-.38.1-.37.1-.35.11-.34.1-.32.11-.3.12-.15.05-.28.12-.27.1-.26.12-.24.12-.23.11-.1.06-.22.12-.2.1-.18.13-.17.1-.16.12-.08.05c-.56.5-.77.89-.83 1.16a.87.87 0 0 0 0 .46l.04.1.04.08c.2.44.74.9 1.55 1.33.85.44 1.96.85 3.24 1.2a34.2 34.2 0 0 0 7.86 1.13h.71c.2 0 .44.04.63.2l.06.06c.1.13.17.29.17.45v.09l-.02.07a.6.6 0 0 1-.33.42c-.14.07-.29.09-.41.1h-.22v-.01l-.17-.01-.41-.01a39.36 39.36 0 0 1-8.37-1.15l-.36-.1-.3-.09a11.92 11.92 0 0 1-3.73-1.7c-.88-.66-1.39-1.42-1.5-2.27l-.02-.2v-.04c.07-.88.54-1.66 1.4-2.34l.15-.12c.89-.66 2.16-1.25 3.8-1.72l.3-.09.34-.1c2.78-.69 5.62-1.08 8.48-1.16l.46-.01v-.01Zm3.72.04c.15-.04.31-.04.42-.04l.24.02h.41c3.04.1 6.27.56 8.73 1.26 1.75.49 3.1 1.08 4.03 1.79.88.65 1.39 1.41 1.5 2.27l.02.2v.04a3.33 3.33 0 0 1-1.4 2.34l-.15.12c-.89.66-2.16 1.24-3.8 1.72l-.3.09-.34.1c-2.78.69-5.62 1.08-8.48 1.16l-.43.01h-.24a.83.83 0 0 1-.5-.18.61.61 0 0 1-.2-.33l-.01-.07v-.07c0-.14.03-.26.1-.37l.05-.06.05-.07c.17-.15.39-.19.54-.2l.14-.01 1.33-.05.64-.05.6-.04.59-.05.57-.05.28-.04.54-.07.52-.06.25-.04.5-.08.46-.08.46-.09.22-.04.43-.09.4-.1.4-.1.37-.1.37-.1.34-.1.33-.12.16-.05.3-.1.3-.12.13-.05.27-.12.26-.11.24-.12.23-.12.1-.05.22-.12.1-.06.19-.11.18-.11.17-.12.15-.1c.55-.5.77-.89.83-1.17a.85.85 0 0 0 0-.45l-.04-.1-.04-.08c-.2-.45-.74-.9-1.55-1.33-.85-.45-1.96-.86-3.24-1.2a34.2 34.2 0 0 0-7.86-1.13h-.71a1 1 0 0 1-.63-.2l-.07-.06-.05-.07a.67.67 0 0 1-.12-.38v-.08l.03-.1a.55.55 0 0 1 .16-.28c.08-.1.2-.15.3-.18Z"/></g></svg>