<svg width="32" height="32" viewBox="0 0 32 32" fill="none" xmlns="http://www.w3.org/2000/svg">
<path d="M0 16C0 7.16344 7.16344 0 16 0C24.8366 0 32 7.16344 32 16C32 24.8366 24.8366 32 16 32C7.16344 32 0 24.8366 0 16Z" fill="white"/>
<path fill-rule="evenodd" clip-rule="evenodd" d="M20.6552 14.4464C20.816 13.9612 20.9032 13.4424 20.9032 12.9032C20.9032 10.1952 18.7082 8 16 8C13.2918 8 11.0968 10.1952 11.0968 12.9032C11.0968 13.4424 11.184 13.9612 11.3448 14.4464C9.40071 15.0977 8 16.9336 8 19.0968C8 21.8048 10.1951 24 12.9032 24C14.0776 24 15.1557 23.5871 16 22.8986C16.8443 23.5871 17.9224 24 19.0968 24C21.8049 24 24 21.8048 24 19.0968C24 16.9336 22.5993 15.0977 20.6552 14.4464ZM22.6731 17.6154C22.8669 18.0835 22.9677 18.5901 22.9677 19.0968C22.9677 19.6034 22.8669 20.11 22.6731 20.5781C22.4792 21.0462 22.1922 21.4757 21.8339 21.8339C21.4757 22.1922 21.0462 22.4792 20.5781 22.6731C20.11 22.8669 19.6034 22.9677 19.0968 22.9677C18.5901 22.9677 18.0835 22.8669 17.6154 22.6731C17.1474 22.4792 16.7178 22.1922 16.3596 21.8339C16.2301 21.7044 16.1099 21.5656 16 21.419C15.8901 21.5656 15.7699 21.7044 15.6404 21.8339C15.2822 22.1922 14.8526 22.4792 14.3846 22.6731C13.9165 22.8669 13.4099 22.9677 12.9032 22.9677C12.3966 22.9677 11.89 22.8669 11.4219 22.6731C10.9538 22.4792 10.5243 22.1922 10.1661 21.8339C9.80777 21.4757 9.52077 21.0462 9.32692 20.5781C9.13306 20.11 9.03226 19.6034 9.03226 19.0968C9.03226 18.5901 9.13306 18.0835 9.32692 17.6154C9.52077 17.1474 9.80777 16.7178 10.1661 16.3596C10.5243 16.0013 10.9538 15.7143 11.4219 15.5205C11.8899 15.3266 12.3964 15.2258 12.9029 15.2258C12.4169 14.5788 12.129 13.7745 12.129 12.903C12.1292 10.7653 13.8621 9.03239 15.9998 9.03226C18.1375 9.03213 19.8706 10.7648 19.871 12.9025C19.8711 13.7452 19.5965 14.5595 19.0968 15.2258C19.6034 15.2258 20.11 15.3266 20.5781 15.5205C21.0462 15.7143 21.4757 16.0013 21.8339 16.3596C22.1922 16.7178 22.4792 17.1474 22.6731 17.6154ZM13.3159 15.248C12.7678 14.6211 12.4355 13.8006 12.4351 12.9025C12.4344 10.9331 14.0299 9.33568 15.9993 9.33411C16.9461 9.33336 17.8543 9.70903 18.5239 10.3784C19.1935 11.0477 19.5695 11.9558 19.5691 12.9025C19.5688 13.8004 19.2367 14.6207 18.6888 15.2475C18.4157 15.2766 18.1458 15.3347 17.885 15.4205C17.9691 15.3573 18.0508 15.2893 18.1296 15.2165L17.9235 15.015C16.8337 16.0119 15.1636 16.0119 14.0739 15.015L13.8724 15.2165C13.9517 15.2897 14.034 15.3581 14.1186 15.4217C13.8582 15.3357 13.5886 15.2774 13.3159 15.248ZM15.7356 16.4583C15.7045 16.4248 15.6727 16.3919 15.6404 16.3596C15.4795 16.1987 15.3042 16.0522 15.1176 15.922C15.6925 16.0902 16.3059 16.0905 16.881 15.923C16.6949 16.0529 16.5201 16.1991 16.3596 16.3596C16.3272 16.392 16.2953 16.425 16.2641 16.4586C16.1776 16.4649 16.0902 16.4681 16.0021 16.4681C15.9125 16.4681 15.8236 16.4648 15.7356 16.4583ZM17.9261 10.7915C16.8364 9.79456 15.1663 9.79456 14.0765 10.7915L13.8704 10.5899C15.0729 9.48078 16.9251 9.48078 18.1276 10.5899L17.9261 10.7915ZM18.1122 10.9756L18.3137 10.774V10.7693C19.4223 11.9724 19.4223 13.8253 18.3137 15.0284L18.1122 14.8268C19.1087 13.7366 19.1087 12.0658 18.1122 10.9756ZM13.8878 14.8289C12.8925 13.7389 12.8925 12.0695 13.8878 10.9796L13.6863 10.778C12.5777 11.9811 12.5777 13.8341 13.6863 15.0371L13.8878 14.8289ZM16.3886 11.1755C16.9474 11.2269 17.3892 11.3954 17.4383 11.8976C17.4735 12.2651 17.318 12.4898 17.0669 12.611C17.48 12.708 17.7386 12.9487 17.687 13.4879C17.6232 14.1579 17.1143 14.3344 16.3845 14.3778V15.0774H15.9517V14.3834H15.6065V15.0806H15.1745V14.373H14.3065L14.3883 13.8667C14.3883 13.8667 14.7082 13.8715 14.7024 13.8667C14.7431 13.8697 14.7833 13.8564 14.8137 13.8298C14.8447 13.8036 14.8636 13.7663 14.8661 13.7262V11.8198C14.8487 11.7031 14.7402 11.6208 14.6206 11.6337C14.6255 11.628 14.3065 11.6337 14.3065 11.6337V11.1803H15.1827V10.4839H15.6114V11.1627H15.9567V10.4839H16.3886V11.1755ZM15.7042 13.8715C16.0579 13.8766 16.8329 13.8877 16.8329 13.4045C16.8329 12.9112 16.092 12.9272 15.7284 12.9351C15.687 12.936 15.6503 12.9368 15.6204 12.9367V13.8707C15.6444 13.8707 15.6726 13.8711 15.7042 13.8715ZM16.6324 12.0886C16.6324 12.5287 15.9911 12.5175 15.6948 12.5124C15.6669 12.5119 15.6421 12.5115 15.6212 12.5115V11.6626C15.6456 11.6626 15.6753 11.6618 15.709 11.6609C16.0111 11.6532 16.6324 11.6374 16.6324 12.0886ZM11.2097 19.0274L12.9026 16.1935L14.5958 19.0274L12.9026 20.037L11.2097 19.0274ZM12.9026 21.7581L11.2097 19.3514L12.9026 20.3605L14.5968 19.3514L12.9026 21.7581ZM18.2267 21.9045C18.3221 21.9045 18.3879 21.873 18.3879 21.7784V21.5536C18.3879 21.4906 18.354 21.4254 18.2903 21.3939C17.3863 21.0745 16.7092 20.1815 16.7092 19.1582C16.7092 18.137 17.3544 17.2734 18.2903 16.9224C18.354 16.8909 18.3879 16.8279 18.3879 16.7628V16.5401C18.3879 16.4434 18.3224 16.3812 18.2267 16.4119C17.0318 16.7943 16.1935 17.8806 16.1935 19.1582C16.1935 20.4358 17.0318 21.5221 18.2267 21.9045ZM19.2262 21.106C19.2899 21.106 19.3557 21.043 19.3557 20.98V20.5954C19.8395 20.5009 20.1622 20.1478 20.1622 19.7339C20.1622 19.1897 19.84 18.9954 19.1604 18.9039C18.6766 18.8387 18.5811 18.7106 18.5811 18.4879C18.5811 18.2652 18.7424 18.1055 19.065 18.1055C19.3557 18.1055 19.517 18.2 19.5807 18.4248C19.6125 18.4879 19.6443 18.5194 19.7101 18.5194H19.9669C20.0327 18.5194 20.0645 18.4564 20.0645 18.3912C20.0009 18.0403 19.7419 17.8176 19.3557 17.7524V17.37C19.3557 17.307 19.2899 17.2418 19.2262 17.2418H18.9673C18.9037 17.2418 18.8379 17.307 18.8379 17.37V17.7524C18.3879 17.8176 18.0654 18.137 18.0654 18.5509C18.0654 19.0951 18.3876 19.2885 19.065 19.383C19.517 19.4461 19.6443 19.5427 19.6443 19.7969C19.6443 20.0533 19.4194 20.213 19.0968 20.213C18.6766 20.213 18.5493 20.0218 18.4835 19.7969C18.4517 19.7339 18.4198 19.7024 18.354 19.7024H18.0654C17.9996 19.7024 17.9678 19.7654 17.9678 19.8285C18.0654 20.2445 18.3221 20.5324 18.8379 20.5954V20.98C18.8379 21.043 18.9037 21.106 18.9673 21.106H19.2262ZM19.9669 21.9045C19.8714 21.9381 19.8056 21.873 19.8056 21.7784V21.5536C19.8056 21.4905 19.8395 21.4254 19.9033 21.3939C20.8392 21.043 21.4843 20.1815 21.4843 19.1582C21.4843 18.137 20.8073 17.2418 19.9033 16.9224C19.8395 16.8909 19.8056 16.8279 19.8056 16.7628V16.5401C19.8056 16.4433 19.8714 16.4118 19.9669 16.4118C21.1299 16.7943 22 17.8806 22 19.1582C22 20.4357 21.1617 21.522 19.9669 21.9045Z" fill="black"/>
<path fill-rule="evenodd" clip-rule="evenodd" d="M11.855 3.38363C13.3455 2.89371 14.9385 2.66971 16.5164 2.73019C18.0946 2.79067 19.6582 3.13595 21.1132 3.74395C22.5686 4.35195 23.9154 5.22299 25.0678 6.29755C26.5919 7.71931 27.7753 9.49755 28.485 11.4867C29.1951 13.4761 29.4316 15.6764 29.1577 17.7711C28.8841 19.8659 28.1001 21.8553 26.9142 23.566C25.7282 25.2767 24.1401 26.7084 22.2748 27.7004C20.4095 28.6921 18.2665 29.2438 16.1542 29.2758C14.0418 29.3078 11.9599 28.8204 10.0953 27.895C8.23095 26.9695 6.58359 25.6063 5.33271 23.9036C4.08183 22.2009 3.22743 20.1587 2.88823 18.0748C2.54903 15.9907 2.72503 13.8646 3.37495 11.8812C3.86615 10.3817 4.62839 8.96411 5.60503 7.73563H4.12055V5.28187H9.93719V10.7135H7.48343V9.22939C6.68343 10.2355 6.05879 11.3967 5.65655 12.6255C5.12439 14.2511 4.98103 15.9951 5.25655 17.6969C5.59895 19.8137 6.58903 21.8649 8.06679 23.4457C9.83447 25.3363 12.2998 26.5542 14.8662 26.8207C17.4322 27.0873 20.0994 26.4028 22.2175 24.9286C24.3356 23.4543 25.9052 21.1903 26.5423 18.6899C27.1794 16.1894 26.8841 13.4524 25.7353 11.142C24.5865 8.83163 22.5839 6.94843 20.1894 5.95899C17.7948 4.96923 15.0079 4.87387 12.6041 5.66363L11.855 3.38363Z" fill="url(#paint0_linear_427_253620)"/>
<defs>
<linearGradient id="paint0_linear_427_253620" x1="2.04365" y1="13.2971" x2="15.2224" y2="29.5764" gradientUnits="userSpaceOnUse">
<stop stop-color="#004CFF"/>
<stop offset="0.252131" stop-color="#00E0FB"/>
<stop offset="0.505709" stop-color="#87FF70"/>
<stop offset="0.755054" stop-color="#F8F500"/>
<stop offset="1" stop-color="#FF1A00"/>
</linearGradient>
</defs>
</svg>
