<svg width="500" height="500" viewBox="0 0 500 500" fill="none" xmlns="http://www.w3.org/2000/svg">
<rect width="500" height="500" fill="#0A0A0A"/>
<path fill-rule="evenodd" clip-rule="evenodd" d="M100 146.078L131.196 146.136L131.196 146.144C158.614 146.147 184.908 157.088 204.296 176.562C211.259 183.556 217.127 191.446 221.788 199.961V146.144H228.184C255.606 146.144 281.904 157.085 301.295 176.562C308.251 183.55 314.114 191.43 318.773 199.936V146.144H325.169C346.704 146.144 365.566 158.58 378.786 177.401C392.018 196.239 400 221.926 400 249.998C400 278.07 392.018 303.757 378.786 322.595C365.566 341.416 346.704 353.852 325.169 353.852H318.773V300.059C314.082 308.623 308.202 316.496 301.295 323.434C291.693 333.078 280.295 340.727 267.751 345.947C255.207 351.166 241.762 353.852 228.184 353.852H221.788V300.034C217.095 308.608 211.21 316.489 204.296 323.434C194.694 333.078 183.297 340.727 170.752 345.947C158.208 351.166 144.763 353.852 131.185 353.852V353.845L100.114 353.922L100 146.078ZM131.185 347.475V341.004C143.083 341.004 154.864 338.65 165.857 334.076C176.849 329.503 186.837 322.799 195.25 314.349C203.664 305.898 210.338 295.865 214.891 284.824C219.444 273.783 221.788 261.949 221.788 249.998C221.788 225.862 212.242 202.714 195.25 185.647C178.259 168.58 155.214 158.992 131.185 158.992V152.486L131.173 158.984L112.799 158.95L112.898 341.041L131.169 340.996L131.185 347.475ZM318.773 248.421V251.574C318.576 262.988 316.243 274.269 311.89 284.824C307.337 295.865 300.663 305.898 292.249 314.349C283.836 322.799 273.848 329.503 262.856 334.076C253.838 337.828 244.288 340.086 234.579 340.777V159.219C256.271 160.76 276.772 170.101 292.249 185.647C308.87 202.342 318.367 224.855 318.773 248.421ZM331.565 251.681V340.517C345.424 338.401 358.312 329.456 368.334 315.188C379.871 298.763 387.208 275.735 387.208 249.998C387.208 224.261 379.871 201.233 368.334 184.808C358.312 170.54 345.424 161.595 331.565 159.479V248.313C331.574 248.874 331.578 249.436 331.578 249.998C331.578 250.559 331.574 251.12 331.565 251.681Z" fill="white"/>
</svg>
