<svg width="32" height="32" viewBox="0 0 32 32" fill="none" xmlns="http://www.w3.org/2000/svg">
<circle cx="16" cy="16" r="16" fill="white"/>
<path fill-rule="evenodd" clip-rule="evenodd" d="M15.2304 16.25L13.4435 23.5H11.7281L10.2348 16.25H8V14.8H9.9361L8.74148 9H10.6326L11.7253 14.8H14.0268L15.407 9H16.9881L18.327 14.8H20.6043L21.6799 9H23.571L22.3723 14.8H24.3125V16.25H22.0726L20.5741 23.5H18.869L17.1459 16.25H15.2304ZM12.6994 20.5522L12.5031 18.9289L11.9984 16.25H13.6817L12.9992 19.1181L12.6994 20.5522ZM16.8013 14.8H15.5877L16.0477 12.9337L16.2028 12.0773L16.3578 12.9337L16.8013 14.8ZM18.6616 16.25L19.3237 19.1181L19.6234 20.592L19.8404 18.919L20.3353 16.25H18.6616Z" fill="black"/>
<path fill-rule="evenodd" clip-rule="evenodd" d="M11.8547 3.38356C13.3453 2.89364 14.9382 2.66964 16.5162 2.73012C18.0944 2.7906 19.6579 3.13588 21.113 3.74388C22.5683 4.35188 23.9152 5.22292 25.0675 6.29748C26.5917 7.71924 27.775 9.49748 28.4848 11.4866C29.1949 13.476 29.4314 15.6764 29.1574 17.7711C28.8838 19.8658 28.0998 21.8552 26.9139 23.566C25.728 25.2767 24.1398 26.7084 22.2746 27.7004C20.4093 28.692 18.2662 29.2437 16.1539 29.2757C14.0416 29.3077 11.9597 28.8204 10.095 27.8949C8.23073 26.9695 6.58337 25.6063 5.33249 23.9036C4.08161 22.2008 3.22721 20.1586 2.88801 18.0748C2.54881 15.9906 2.72481 13.8645 3.37473 11.8812C3.86593 10.3816 4.62817 8.96404 5.6048 7.73556H4.12033V5.2818H9.93696V10.7135H7.48321V9.22932C6.68321 10.2354 6.05857 11.3967 5.65633 12.6255C5.12417 14.2511 4.9808 15.9951 5.25633 17.6968C5.59873 19.8136 6.58881 21.8648 8.06657 23.4456C9.83425 25.3362 12.2995 26.5541 14.8659 26.8207C17.432 27.0872 20.0992 26.4028 22.2173 24.9285C24.3354 23.4543 25.905 21.1903 26.5421 18.6898C27.1792 16.1893 26.8838 13.4524 25.735 11.142C24.5862 8.83156 22.5837 6.94836 20.1891 5.95892C17.7946 4.96916 15.0077 4.87381 12.6038 5.66356L11.8547 3.38356Z" fill="url(#paint0_linear)"/>
<circle cx="25" cy="25" r="7" fill="white"/>
<path d="M22.5924 29H21V21H22.5924V29Z" fill="black"/>
<path d="M23.9303 29V21H26.3676C27.1909 21 27.8156 21.1868 28.2417 21.5604C28.6714 21.9304 28.8863 22.4744 28.8863 23.1923C28.8863 23.5989 28.7978 23.9487 28.6209 24.2418C28.4439 24.5348 28.202 24.7491 27.8951 24.8846C28.2489 24.9872 28.5216 25.1941 28.7129 25.5055C28.9043 25.8132 29 26.1941 29 26.6484C29 27.4249 28.7888 28.011 28.3663 28.4066C27.9474 28.8022 27.339 29 26.541 29H23.9303ZM25.5227 25.522V27.6593H26.541C26.8262 27.6593 27.0429 27.5696 27.1909 27.3901C27.339 27.2106 27.413 26.956 27.413 26.6264C27.413 25.9084 27.1566 25.5403 26.6439 25.522H25.5227ZM25.5227 24.3462H26.3514C26.9761 24.3462 27.2884 24.0183 27.2884 23.3626C27.2884 23 27.2162 22.7399 27.0718 22.5824C26.9273 22.4249 26.6926 22.3462 26.3676 22.3462H25.5227V24.3462Z" fill="black"/>
<defs>
<linearGradient id="paint0_linear" x1="2.04343" y1="13.297" x2="15.2222" y2="29.5763" gradientUnits="userSpaceOnUse">
<stop stop-color="#004CFF"/>
<stop offset="0.252131" stop-color="#00E0FB"/>
<stop offset="0.505709" stop-color="#87FF70"/>
<stop offset="0.755054" stop-color="#F8F500"/>
<stop offset="1" stop-color="#FF1A00"/>
</linearGradient>
</defs>
</svg>
