<?xml version="1.0" encoding="UTF-8"?><svg id="a" xmlns="http://www.w3.org/2000/svg" viewBox="0 0 325 325"><defs><style>.b{fill:#fff;}.c{fill:#800010;}.d{fill:#ff596e;}</style></defs><circle class="b" cx="162.5" cy="162.5" r="162.5"/><polygon class="d" points="102.6 124.9 165 95.9 165 16.8 102.6 124.9"/><polygon class="d" points="165 95.9 165 159 227.4 124.9 165 95.9"/><polygon class="c" points="165 95.9 165 159 102.6 124.9 165 95.9"/><polygon class="c" points="227.4 124.9 165 95.9 165 16.8 227.4 124.9"/><polygon class="d" points="165 183.3 165 250.5 101.4 148.6 165 183.3"/><polygon class="c" points="165 183.3 165 250.5 228.6 148.6 165 183.3"/><polygon class="c" points="239.1 163.9 253.5 204.4 285.1 151.7 239.1 163.9"/><polygon class="d" points="253.5 204.4 285.1 195 285.1 151.7 253.5 204.4"/><polygon class="c" points="285.1 195 239.1 271.8 204.2 286.8 253.5 204.4 285.1 195"/><polygon class="d" points="44.9 195 90.9 271.8 125.8 286.8 76.5 204.4 44.9 195"/><polygon class="c" points="165 286.8 90.9 163.9 76.5 204.4 125.8 286.8 165 286.8"/><polygon class="d" points="90.9 163.9 76.5 204.4 44.9 151.7 90.9 163.9"/><polygon class="c" points="76.5 204.4 44.9 195 44.9 151.7 76.5 204.4"/><polygon class="d" points="165 286.8 239.1 163.9 253.5 204.4 204.2 286.8 165 286.8"/></svg>