<svg width="240" height="240" viewBox="0 0 240 240" fill="none" xmlns="http://www.w3.org/2000/svg">
<g clip-path="url(#clip0_6304_28029)">
<g clip-path="url(#clip1_6304_28029)">
<path d="M120 240C186.5 240 240 186.5 240 120C240 53.4996 186.5 0 120 0C53.4996 0 0 53.4996 0 120C0 186.5 53.4996 240 120 240Z" fill="#2775CA"/>
<path d="M153 139C153 121.5 142.5 115.5 121.5 113C106.5 111 103.5 107 103.5 99.9995C103.5 92.9987 108.5 88.4999 118.5 88.4999C127.5 88.4999 132.5 91.4999 135 98.9999C135.5 100.5 137 101.5 138.5 101.5H146.5C148.5 101.5 150 99.9995 150 98.0003V97.4999C148 86.4995 139 77.9999 127.5 77.0003V65.0003C127.5 62.9999 126 61.4999 123.5 60.9995H116C114 60.9995 112.5 62.4995 112 65.0003V76.4999C96.9996 78.5003 87.5004 88.4999 87.5004 101C87.5004 117.5 97.5 124 118.5 126.5C132.5 129 137 132 137 140C137 148.001 130 153.5 120.5 153.5C107.5 153.5 103 148 101.5 140.5C101 138.5 99.5004 137.5 98.0004 137.5H89.4996C87.5004 137.5 86.0004 139 86.0004 141V141.5C87.9996 154 96 163 112.5 165.5V177.5C112.5 179.5 114 181 116.5 181.5H124C126 181.5 127.5 180 128 177.5V165.5C143 163 153 152.5 153 139Z" fill="white"/>
<path d="M94.5 191.5C55.5 177.5 35.4996 134 50.0004 95.4997C57.5004 74.4997 74.0004 58.5001 94.5 51.0001C96.5004 50.0005 97.5 48.5005 97.5 45.9997V39.0001C97.5 36.9997 96.5004 35.4997 94.5 35.0005C93.9996 35.0005 93 35.0005 92.4996 35.4997C45 50.4997 18.9996 101 33.9996 148.5C42.9996 176.5 64.5 198 92.4996 207C94.5 208 96.5004 207 96.9996 205C97.5 204.5 97.5 204 97.5 203V196C97.5 194.5 96 192.5 94.5 191.5ZM147.5 35.4997C145.5 34.5001 143.5 35.4997 143 37.5001C142.5 38.0005 142.5 38.4997 142.5 39.5005V46.5001C142.5 48.5005 144 50.4997 145.5 51.5005C184.5 65.4997 204.5 109 190 147.5C182.5 168.5 166 184.5 145.5 192C143.5 193 142.5 194.5 142.5 197V204C142.5 206 143.5 207.5 145.5 208C146 208 147 208 147.5 207.5C195 192.5 221 142 206 94.5001C197 66.0001 175 44.4997 147.5 35.4997Z" fill="white"/>
</g>
</g>
<defs>
<clipPath id="clip0_6304_28029">
<rect width="240" height="240" fill="white"/>
</clipPath>
<clipPath id="clip1_6304_28029">
<rect width="240" height="240" fill="white"/>
</clipPath>
</defs>
</svg>
