<svg width="240" height="240" viewBox="0 0 240 240" fill="none" xmlns="http://www.w3.org/2000/svg">
<g clip-path="url(#clip0_5_757)">
<g clip-path="url(#clip1_5_757)">
<path d="M120 240C186.5 240 240 186.5 240 120C240 53.4996 186.5 0 120 0C53.4996 0 0 53.4996 0 120C0 186.5 53.4996 240 120 240Z" fill="#1D2229"/>
<path d="M187.686 93.4333C186.212 79.9772 174.596 75.5828 159.991 74.4496L159.731 63.7661L148.431 63.8857L148.684 74.0768C145.714 74.1084 142.678 74.1992 139.662 74.2914L139.409 63.9799L128.115 64.098L128.37 74.7762C125.925 74.8521 123.523 74.923 121.18 74.9491L121.178 74.8912L105.592 75.0492L105.764 87.1954C105.764 87.1954 114.106 86.9478 113.97 87.1039C118.547 87.0574 120.074 89.716 120.539 92.0192L120.836 113.304C121.152 113.302 121.564 113.311 122.031 113.37C121.655 113.375 121.252 113.376 120.838 113.384L121.249 143.202C121.068 144.654 120.254 146.974 117.056 147.013C117.202 147.141 108.841 147.097 108.841 147.097L106.785 160.702L121.491 160.548C124.227 160.522 126.921 160.541 129.564 160.53L129.832 175.426L141.12 175.309L140.859 160.613C143.96 160.645 146.96 160.638 149.888 160.605L150.141 175.215L161.442 175.096L161.183 160.233C180.166 158.937 193.396 153.981 194.797 136.009C195.929 121.538 189.082 115.157 178.262 112.664C184.767 109.238 188.781 103.279 187.686 93.4333ZM172.438 134.004C172.64 148.125 148.592 146.77 140.934 146.858L140.589 121.822C148.249 121.743 172.234 119.275 172.438 134.004ZM166.691 98.7358C166.866 111.583 146.808 110.294 140.429 110.362L140.114 87.6547C146.493 87.5873 166.504 85.3357 166.691 98.7358Z" fill="white"/>
<rect x="80.543" y="108.499" width="17.1631" height="17.1631" fill="white"/>
<rect x="45.2783" y="108.499" width="17.1631" height="17.1631" fill="white"/>
<rect x="80.0737" y="126.132" width="17.1631" height="17.1631" transform="rotate(90 80.0737 126.132)" fill="white"/>
<rect x="80.0742" y="90.8667" width="17.1631" height="17.1631" transform="rotate(90 80.0742 90.8667)" fill="white"/>
</g>
</g>
<defs>
<clipPath id="clip0_5_757">
<rect width="240" height="240" fill="white"/>
</clipPath>
<clipPath id="clip1_5_757">
<rect width="240" height="240" fill="white"/>
</clipPath>
</defs>
</svg>
