<svg width="100" height="100" viewBox="0 0 100 100" fill="none" xmlns="http://www.w3.org/2000/svg">
<g clip-path="url(#clip0_4547_356)">
<path d="M50 100C77.6142 100 100 77.6142 100 50C100 22.3858 77.6142 0 50 0C22.3858 0 0 22.3858 0 50C0 77.6142 22.3858 100 50 100Z" fill="#F1F1F1"/>
<path d="M73.8424 84.6774C71.1734 84.6774 69 82.5057 69 79.8387C69 77.1717 71.1734 75 73.8424 75C76.5114 75 78.6848 77.1717 78.6848 79.8387C78.6848 82.5057 76.5114 84.6774 73.8424 84.6774Z" fill="#F96D30"/>
<path d="M66.1538 58.0044C65.3761 55.8056 64.0925 53.8461 62.2649 52.1161C60.4373 50.3861 58.3807 48.7614 56.0569 47.2322C55.5635 46.9436 55.1179 46.6263 54.6625 46.3473L57.7885 34.0295C57.7885 34.0295 57.8646 34.0488 57.8548 34.0872C58.7355 34.9233 59.3392 35.8935 59.7042 37.0072C59.9101 37.6313 60.0302 38.2744 59.9885 38.9173C59.9741 39.7714 60.5885 40.54 61.4251 40.7524L68.574 42.5666C69.7148 42.8561 70.8903 42.0517 70.9924 40.8522C71.1955 38.6164 70.9599 36.5144 70.2476 34.5365C69.2914 31.9248 67.6762 29.6769 65.3924 27.8311C63.876 26.6294 62.1013 25.648 60.078 24.8486L62.0549 17.0588C62.2789 16.1762 61.7414 15.2638 60.8668 15.0418L57.9388 14.2988C57.0642 14.0768 56.1567 14.6225 55.9327 15.5051L53.985 23.1798C51.683 22.8407 49.4933 22.8568 47.3778 23.2185C44.4618 23.7038 41.9799 24.8711 39.9798 26.6917C37.9417 28.5026 36.5473 30.967 35.7584 34.0752C34.9696 37.1835 35.1199 40.8976 36.6562 43.6157C38.1828 46.3721 40.7867 48.8709 44.4483 51.1889C45.1407 51.6505 45.8427 52.0738 46.4971 52.5258L42.9328 66.5704C42.6578 66.3781 42.4208 66.1954 42.1936 65.9744C41.1521 64.9748 40.3971 63.803 40.0048 62.4781C39.7335 61.6332 39.6338 60.7501 39.6677 59.8193C39.7015 58.8884 39.1066 58.0431 38.232 57.8211L31.3112 56.0648C30.1704 55.7753 29.0426 56.551 28.9026 57.7408C28.6021 60.3603 28.8358 62.7886 29.6798 65.045C30.7394 67.8872 32.5155 70.2985 35.0841 72.2982C36.7712 73.6249 38.698 74.6449 40.8256 75.5116L39.0921 82.3421C38.8681 83.2247 39.4056 84.1371 40.2802 84.3591L43.2082 85.1021C44.0828 85.3241 44.9903 84.7784 45.2143 83.8958L46.9088 77.2188C49.7812 77.7027 52.3804 77.668 54.7542 77.0859C57.7764 76.3416 60.2592 75.0112 62.2125 73.0562C64.1657 71.1012 65.4832 68.7806 66.1746 66.0561C66.866 63.3316 66.988 60.2992 66.2103 58.1004L66.1538 58.0044ZM48.6516 41.9628C47.7329 41.1169 47.1097 40.2236 46.7438 39.273C46.3779 38.3224 46.3269 37.2475 46.6385 36.0195C46.9502 34.7916 47.5076 33.8711 48.2825 33.21C49.0574 32.5489 50.0117 32.1376 51.0978 32.0048C51.3454 31.9859 51.6028 31.9287 51.8787 31.9579L49.2201 42.4338C49.0592 42.2704 48.8505 42.1358 48.6896 41.9724L48.6516 41.9628ZM53.5268 66.9308C52.6944 67.659 51.6542 68.0894 50.4629 68.318C50.0339 68.4134 49.5484 68.4127 49.0629 68.412L52.111 56.4012C52.3763 56.6319 52.6415 56.8625 52.8687 57.0836C53.9103 58.0831 54.6564 59.1302 55.0974 60.2633C55.5384 61.3963 55.5885 62.6344 55.2477 63.9774C54.9068 65.3205 54.3494 66.241 53.4887 66.9212L53.5268 66.9308Z" fill="#1D1D1F"/>
</g>
<defs>
<clipPath id="clip0_4547_356">
<rect width="100" height="100" fill="white"/>
</clipPath>
</defs>
</svg>
