<svg xmlns="http://www.w3.org/2000/svg" height="600" viewBox="0 0 600 600" fill="none">
    <path d="M300 600C465.685 600 600 465.685 600 300C600 134.315 465.685 0 300 0C134.315 0 0 134.315 0 300C0 465.685 134.315 600 300 600Z" fill="white"/>
    <path d="M300 600C465.685 600 600 465.685 600 300C600 134.315 465.685 0 300 0C134.315 0 0 134.315 0 300C0 465.685 134.315 600 300 600Z" fill="url(#paint0_radial_440_36)"/>
    <path fill="white" d="M428.34,182.27l5.94-5.52c-17.05-18.34-37.24-32.78-60.02-42.92-23.59-10.5-48.74-15.82-74.76-15.82-101.46,0-184,82.54-184,184,0,51.05,21.48,100.25,58.94,134.97l10.24-11.05,243.65-243.65h0ZM412.07,177.32l-104.74,104.74v-147.87c38.79,1.83,75.95,17.19,104.74,43.13ZM174.82,414.57c-26.35-29.24-41.78-67.11-43.2-106.57h149.77l-106.57,106.57ZM292.33,281.89l-104.92-104.92c28.09-25.21,64.7-41.11,104.92-42.81v147.73ZM176.7,187.48l105.52,105.52h-150.48c2.16-40.67,18.85-77.54,44.96-105.52Z"/>
    <defs>
        <radialGradient id="paint0_radial_440_36" cx="0" cy="0" r="1" gradientUnits="userSpaceOnUse" gradientTransform="translate(196 143.5) rotate(54.1675) scale(497.082)">
            <stop stop-color="#db373744"/>
            <stop stop-color="#db3737" offset="1"/>
        </radialGradient>
    </defs>
</svg>