<svg width="64" height="64" viewBox="0 0 64 64" fill="none" xmlns="http://www.w3.org/2000/svg">
<g clip-path="url(#clip0_1664_1154)">
<g clip-path="url(#clip1_1664_1154)">
<circle cx="32" cy="32" r="32" fill="#131313"/>
<path d="M43.4118 45.3154H20.5884M38.0615 26.4945L33.1093 19.2691C32.5752 18.4897 31.425 18.4897 30.8908 19.2691L25.9386 26.4945C25.509 27.1213 24.6456 27.2679 24.0332 26.818L19.6411 23.5915C18.6438 22.8589 17.2699 23.7485 17.5303 24.9583L20.3598 38.1058C20.4932 38.7253 21.0409 39.1676 21.6745 39.1676H42.3256C42.9593 39.1676 43.507 38.7253 43.6403 38.1058L46.4699 24.9583C46.7302 23.7485 45.3563 22.8589 44.359 23.5915L39.967 26.818C39.3545 27.2679 38.4911 27.1213 38.0615 26.4945Z" stroke="#FFC100" stroke-width="2.99596" stroke-linecap="round"/>
</g>
</g>
<defs>
<clipPath id="clip0_1664_1154">
<rect width="64" height="64" fill="white"/>
</clipPath>
<clipPath id="clip1_1664_1154">
<rect width="64" height="64" fill="white"/>
</clipPath>
</defs>
</svg>
