<svg width="1080" height="1080" viewBox="0 0 1080 1080" fill="none" xmlns="http://www.w3.org/2000/svg">
<rect width="1080" height="1080" fill="#182610"/>
<path d="M247.809 832.418C240.603 824.889 235.077 815.971 231.522 806.18C227.968 796.389 226.481 785.984 227.16 775.612C227.839 765.239 230.682 755.093 235.497 745.883C240.312 736.642 246.969 728.531 255.08 722.036C278.896 704.846 296.637 704.038 317.028 699.159C351.669 690.789 381.463 664.648 376.067 626.325C367.18 563.476 288.72 588.874 288.72 540.178C288.72 491.482 367.051 516.88 376.067 454.095C381.463 416.063 351.669 389.857 317.028 381.261C296.637 376.382 278.896 375.51 255.145 358.319C247.034 351.824 240.344 343.681 235.529 334.472C230.715 325.198 227.871 315.084 227.192 304.679C226.514 294.307 228 283.87 231.555 274.079C235.109 264.288 240.668 255.369 247.874 247.84C255.403 240.634 264.322 235.077 274.081 231.522C283.84 227.968 294.278 226.481 304.651 227.16C315.024 227.838 325.139 230.682 334.381 235.497C343.59 240.311 351.734 247 358.229 255.111C375.42 278.926 376.293 296.698 381.172 317.087C389.542 351.76 415.685 381.552 453.978 376.156C516.733 367.27 491.398 288.749 540.032 288.749C588.666 288.749 563.331 367.173 626.151 376.156C664.154 381.552 690.296 351.76 698.957 317.087C703.836 296.698 704.644 278.926 721.803 255.111C728.299 247 736.442 240.311 745.652 235.497C754.861 230.682 765.008 227.838 775.381 227.16C785.754 226.481 796.16 227.968 805.951 231.522C815.71 235.077 824.662 240.634 832.159 247.84C839.365 255.337 844.923 264.288 848.478 274.079C852.032 283.87 853.519 294.274 852.84 304.679C852.161 315.052 849.318 325.198 844.503 334.44C839.688 343.681 832.999 351.792 824.888 358.287C801.072 375.477 783.331 376.35 763.005 381.229C728.266 389.534 698.504 415.74 703.901 454.063C712.788 516.848 791.248 491.417 791.248 540.145C791.248 588.874 712.852 563.443 703.901 626.292C698.504 664.325 728.299 690.466 763.005 698.771C783.299 703.715 801.072 704.523 824.888 721.713C832.999 728.208 839.688 736.351 844.503 745.56C849.318 754.802 852.161 764.916 852.84 775.321C853.519 785.693 852.032 796.13 848.478 805.921C844.923 815.712 839.365 824.631 832.159 832.16C824.662 839.366 815.71 844.923 805.951 848.478C796.16 852.032 785.754 853.519 775.381 852.84C765.008 852.162 754.861 849.318 745.652 844.503C736.442 839.689 728.299 833 721.803 824.857C704.612 801.042 703.836 783.27 698.957 762.88C690.587 728.208 664.444 698.415 626.151 703.812C563.331 712.698 588.731 791.219 540.032 791.219C491.334 791.219 516.733 712.795 453.978 703.812C415.976 698.415 389.833 728.208 381.172 762.945C376.293 783.27 375.42 801.042 358.229 824.857C351.734 833 343.623 839.689 334.381 844.503C325.171 849.318 315.024 852.162 304.651 852.84C294.278 853.519 283.872 852.032 274.081 848.478C264.29 844.923 255.371 839.366 247.874 832.16" fill="#D7F9C0"/>
</svg>
