<?xml version="1.0" encoding="UTF-8"?>
<svg id="Capa_1" data-name="Capa 1" xmlns="http://www.w3.org/2000/svg" viewBox="0 0 961.53 923.21">
  <defs>
    <style>
      .cls-1 {
        fill: #544d27;
      }

      .cls-1, .cls-2, .cls-3, .cls-4, .cls-5, .cls-6, .cls-7, .cls-8, .cls-9, .cls-10, .cls-11, .cls-12, .cls-13, .cls-14, .cls-15, .cls-16, .cls-17, .cls-18, .cls-19, .cls-20, .cls-21, .cls-22, .cls-23, .cls-24, .cls-25, .cls-26, .cls-27, .cls-28, .cls-29, .cls-30, .cls-31, .cls-32, .cls-33, .cls-34, .cls-35, .cls-36, .cls-37, .cls-38, .cls-39, .cls-40, .cls-41, .cls-42, .cls-43, .cls-44, .cls-45, .cls-46 {
        stroke-width: 0px;
      }

      .cls-2 {
        fill: #363215;
      }

      .cls-3 {
        fill: #887b3f;
      }

      .cls-4 {
        fill: #fefefe;
      }

      .cls-5 {
        fill: #b66734;
      }

      .cls-6 {
        fill: #b5677b;
      }

      .cls-7 {
        fill: #f6e172;
      }

      .cls-8 {
        fill: #deede4;
      }

      .cls-9 {
        fill: #020201;
      }

      .cls-10 {
        fill: #b3172a;
      }

      .cls-11 {
        fill: #010101;
      }

      .cls-12 {
        fill: #060603;
      }

      .cls-14 {
        fill: #c2b05a;
      }

      .cls-15 {
        fill: #490a11;
      }

      .cls-16 {
        fill: #796e38;
      }

      .cls-17 {
        fill: #b3a353;
      }

      .cls-18 {
        fill: #4f7f2a;
      }

      .cls-19 {
        fill: #6fb43c;
      }

      .cls-20 {
        fill: #ed5d6d;
      }

      .cls-21 {
        fill: #39351b;
      }

      .cls-22 {
        fill: #6b716e;
      }

      .cls-23 {
        fill: #c4b35b;
      }

      .cls-24 {
        fill: #bc192c;
      }

      .cls-25 {
        fill: #c1192e;
      }

      .cls-26 {
        fill: #897c85;
      }

      .cls-27 {
        fill: #d11c32;
      }

      .cls-28 {
        fill: #010100;
      }

      .cls-29 {
        fill: #b1b1b1;
      }

      .cls-30 {
        fill: #70b43c;
      }

      .cls-31 {
        fill: #f3203a;
      }

      .cls-32 {
        fill: #030201;
      }

      .cls-33 {
        fill: #090804;
      }

      .cls-34 {
        fill: #416a23;
      }

      .cls-35 {
        fill: #bd182d;
      }

      .cls-36 {
        fill: #f02039;
      }

      .cls-37 {
        fill: #f6e072;
      }

      .cls-38 {
        fill: #d5c263;
      }

      .cls-39 {
        fill: #599130;
      }

      .cls-40 {
        fill: #fdfdfd;
      }

      .cls-41 {
        fill: #3e4340;
      }

      .cls-42 {
        fill: #f7e172;
      }

      .cls-43 {
        fill: #abb7b0;
      }

      .cls-44 {
        fill: #020101;
      }

      .cls-45 {
        fill: #030302;
      }

      .cls-46 {
        fill: #51832b;
      }
    </style>
  </defs>
  <path class="cls-40" d="m211.65,403.09c-1.28-2.69-1.42-5.58-1.53-8.45.68-13.82,5.93-25.96,13.39-37.3.74-1.13,1.77-2.03,1.1-3.71-.46-1.13.3-1.67,1.49-1.04.52.28,1.12.5,1.5.91,3.61,4,7.34,7.93,9.78,12.81s2.75,10.39,1.43,15.78c-1.92,7.79-5.62,14.69-11.04,20.64-1.55,1.71-3.27,3.22-5.39,4.22-4.46,2.09-8.62.6-10.73-3.87h0Z"/>
  <path class="cls-40" d="m474.97,106.36c-5.98-6.74-8.86-14.83-9.39-23.94.3-7.7,3.66-14.38,8.43-20.23,3.93-4.84,8.94-3.7,11.45,2.06,1.26,2.88,2.06,5.93,1.93,9.04-.42,9.78-1.12,19.56-2.77,29.23-.11.6-.28,1.18-.47,1.74-1.69,4.83-5.81,5.92-9.18,2.1Z"/>
  <path class="cls-40" d="m648.14,237.45c-.85-5.44-1.4-10.92-.29-16.42,1.07-5.27,8.4-12.45,13.66-13.37,3.24-.56,5.95.84,6.63,4.13,2.1,10.07,4.47,20.11,5.13,30.41.06,3.45-.28,6.8-1.66,9.99-1.67,3.88-4.43,6.5-8.73,6.84s-7.44-1.82-9.66-5.41c-3.07-4.96-4.22-10.56-5.09-16.19v.02Z"/>
  <path class="cls-40" d="m799.85,410.73c-2.27-7.59-3.72-15.36-3.49-23.33.12-3.91,1.99-7.31,4.4-10.31,2.71-3.36,5.01-6.94,6.81-10.86,1.05-2.28,2.38-4.43,4.42-5.98,2.78-2.1,5.88-1.13,6.38,2.2,1.45,9.98,2.7,20.01,3.78,28.11.12,11.4-6.68,20.53-15.89,23.28-3.13.94-5.48.02-6.4-3.11h-.01Z"/>
  <path class="cls-40" d="m855.17,471.1c-.14.48-.13,1-.31,1.47-12.58,33.11-21.03,67.41-29.25,101.79-13.16,54.99-31.45,108.15-57.49,158.48-7.37,14.24-16.13,27.62-24.98,40.96-10.7,16.14-10.5,16.19-10.56,35.6-.04,14.02.91,28.02.08,42.02-.09,1.5-1.23,3.31,1.32,4.4-5.49,1.41-10.67,1.55-15.84,1.58-43.45.19-86.87-1.23-130.29-1.64-64.46-.61-128.92-.45-193.34,1.71-35.51,1.19-70.98,3.05-106.39,5.98-34.91,2.89-69.67,6.96-104.29,12.24-6.42.98-12.86,1.95-19.38,2.19-1.59.07-3.37-.24-3.63,2.6-.37-2.25-1.43-2.84-3.13-2.85-1.32-.01-2.93-.48-3.03-1.92-.1-1.49,1.6-1.45,2.71-1.64,1.25-.21,1.91-.63,1.9-2.1-.09-10.34,1.26-20.57,2.09-30.84.18-2.1-.07-3.33-2.6-3.37-1.87-.03-3.72-.65-5.48-1.43-3.97-1.77-5.62-4.29-4.94-8.53.32-1.94-.24-2.36-1.92-2.63-2.68-.43-5.24-1.27-7.64-2.6-4.75-2.63-5.83-6.16-3.36-11.04.32-.62.67-1.2,1.18-2.1-2.89-.29-5.89.41-7.91-1.99-1-1.19-1.26-2.7-1.32-4.23-.26-5.87.84-7.69,5.31-8.94-9.26-21.88-10.59-45.38-13.85-68.47-1.51-10.72-1.93-21.52-.32-32.31,1.48-9.82,5.65-18.48,11.16-26.58,1.06-1.56,1.17-2.84.64-4.67-3.77-12.94-7.04-26-9.13-39.35-.17-1.07-.61-2.09-.91-3.15-.24-.84-.9-1.9-.12-2.51.88-.72,1.9.13,2.69.65,1.16.76,2.27,1.64,3.31,2.57,5.58,4.97,11.44,9.59,17.68,14.02.11-.44.24-.71.23-.95-1.92-32.86,5.09-64.18,16.38-94.75,8.18-22.14,17.74-43.68,28.78-64.56.55-1.06,1.05-2.15,1.5-3.26.46-1.16.95-2.34,2.44-2.24,1.53.1,1.76,1.45,2.04,2.6.42,1.75.75,3.51,1.1,5.28,3,14.91,8.31,28.96,15.64,43.09,1.19-5.31,2.15-9.95,3.27-14.54,11.14-45.35,29.85-87.44,54.68-126.89,17.6-27.94,37.91-53.77,60.94-77.45.35-.36.73-.69,1.02-1.09.74-.99,1.06-2.7,2.71-2.31,1.8.41,1.93,2.25,2.08,3.66,1.12,9.64,2.08,19.29,3.16,28.95.96,8.65,2.03,17.29,3.6,25.85.32-.45.63-.9.95-1.37.02-.2.1-.35.3-.43,7.72-29.4,21.99-55.43,40.71-79.19,9.35-11.88,19.29-23.26,29.18-34.69,13.75-15.91,27.19-32.04,37.79-50.33,13.17-22.73,19.92-47.02,18.46-73.39-.09-1.5-.07-3-.1-4.51-.01-1.02.03-2.08,1.2-2.48,1.04-.36,1.92.02,2.71.77,85.77,80.94,148.26,176.67,183.89,289.45.78,2.48,1.47,4.98,2.37,8.07,29.87-40.99,51.69-86.12,74.73-131.04,4.73,7.51,7.27,15.26,9.64,23.05,11.13,36.49,19.39,73.61,24.16,111.5,3.24,25.64,4.86,51.38,4.86,77.23,0,2.32,1.18,1.55,2.24,1.21,8.48-2.69,16.94-5.48,25.43-8.13,14.9-4.66,29.78-9.4,45.11-12.51,2.06-.41,4.13-.74,6.26-.52,1.6.17,2.38.88,1.88,2.58v-.03Z"/>
  <path class="cls-13" d="m855.17,471.1c-.14.48-.13,1-.31,1.47-12.58,33.11-21.03,67.41-29.25,101.79-13.16,54.99-31.45,108.15-57.49,158.48-7.37,14.24-16.13,27.62-24.98,40.96-10.7,16.14-10.5,16.19-10.56,35.6-.04,14.02.91,28.02.08,42.02-.09,1.5-1.23,3.31,1.32,4.4-5.49,1.41-10.67,1.55-15.84,1.58-43.45.19-86.87-1.23-130.29-1.64-64.46-.61-128.92-.45-193.34,1.71-35.51,1.19-70.98,3.05-106.39,5.98-34.91,2.89-69.67,6.96-104.29,12.24-6.42.98-12.86,1.95-19.38,2.19-1.59.07-3.37-.24-3.63,2.6-.37-2.25-1.43-2.84-3.13-2.85-1.32-.01-2.93-.48-3.03-1.92-.1-1.49,1.6-1.45,2.71-1.64,1.25-.21,1.91-.63,1.9-2.1-.09-10.34,1.26-20.57,2.09-30.84.18-2.1-.07-3.33-2.6-3.37-1.87-.03-3.72-.65-5.48-1.43-3.97-1.77-5.62-4.29-4.94-8.53.32-1.94-.24-2.36-1.92-2.63-2.68-.43-5.24-1.27-7.64-2.6-4.75-2.63-5.83-6.16-3.36-11.04.32-.62.67-1.2,1.18-2.1-2.89-.29-5.89.41-7.91-1.99-1-1.19-1.26-2.7-1.32-4.23-.26-5.87.84-7.69,5.31-8.94-9.26-21.88-10.59-45.38-13.85-68.47-1.51-10.72-1.93-21.52-.32-32.31,1.48-9.82,5.65-18.48,11.16-26.58,1.06-1.56,1.17-2.84.64-4.67-3.77-12.94-7.04-26-9.13-39.35-.17-1.07-.61-2.09-.91-3.15-.24-.84-.9-1.9-.12-2.51.88-.72,1.9.13,2.69.65,1.16.76,2.27,1.64,3.31,2.57,5.58,4.97,11.44,9.59,17.68,14.02.11-.44.24-.71.23-.95-1.92-32.86,5.09-64.18,16.38-94.75,8.18-22.14,17.74-43.68,28.78-64.56.55-1.06,1.05-2.15,1.5-3.26.46-1.16.95-2.34,2.44-2.24,1.53.1,1.76,1.45,2.04,2.6.42,1.75.75,3.51,1.1,5.28,3,14.91,8.31,28.96,15.64,43.09,1.19-5.31,2.15-9.95,3.27-14.54,11.14-45.35,29.85-87.44,54.68-126.89,17.6-27.94,37.91-53.77,60.94-77.45.35-.36.73-.69,1.02-1.09.74-.99,1.06-2.7,2.71-2.31,1.8.41,1.93,2.25,2.08,3.66,1.12,9.64,2.08,19.29,3.16,28.95.96,8.65,2.03,17.29,3.6,25.85,1.29.22.86-.75.95-1.37.02-.2.1-.35.3-.43,7.72-29.4,21.99-55.43,40.71-79.19,9.35-11.88,19.29-23.26,29.18-34.69,13.75-15.91,27.19-32.04,37.79-50.33,13.17-22.73,19.92-47.02,18.46-73.39-.09-1.5-.07-3-.1-4.51-.01-1.02.03-2.08,1.2-2.48,1.04-.36,1.92.02,2.71.77,85.77,80.94,148.26,176.67,183.89,289.45.78,2.48,1.47,4.98,2.37,8.07,29.87-40.99,51.69-86.12,74.73-131.04,4.73,7.51,7.27,15.26,9.64,23.05,11.13,36.49,19.39,73.61,24.16,111.5,3.24,25.64,4.86,51.38,4.86,77.23,0,2.32,1.18,1.55,2.24,1.21,8.48-2.69,16.94-5.48,25.43-8.13,14.9-4.66,29.78-9.4,45.11-12.51,2.06-.41,4.13-.74,6.26-.52,1.6.17,2.38.88,1.88,2.58v-.03Z"/>
  <path class="cls-13" d="m238.81,382.1c-1.92,7.79-5.62,14.69-11.04,20.64-1.55,1.71-3.27,3.22-5.39,4.22-4.46,2.09-8.62.6-10.73-3.87-1.28-2.69-1.42-5.58-1.53-8.45.68-13.82,5.93-25.96,13.39-37.3.74-1.13,1.77-2.03,1.1-3.71-.46-1.13.3-1.67,1.49-1.04.52.28,1.12.5,1.5.91,3.61,4,7.34,7.93,9.78,12.81s2.75,10.39,1.43,15.78h0Z"/>
  <path class="cls-13" d="m671.62,252.21c-1.67,3.88-4.43,6.5-8.73,6.84s-7.44-1.82-9.66-5.41c-3.07-4.96-4.22-10.56-5.09-16.19-.85-5.44-1.4-10.92-.29-16.42,1.07-5.27,8.4-12.45,13.66-13.37,3.24-.56,5.95.84,6.63,4.13,2.1,10.07,4.47,20.11,5.13,30.41.06,3.45-.28,6.8-1.66,9.99v.02Z"/>
  <path class="cls-13" d="m487.39,73.28c-.42,9.78-1.12,19.56-2.77,29.23-.11.6-.28,1.18-.47,1.74-1.69,4.83-5.81,5.92-9.18,2.1-5.98-6.74-8.86-14.83-9.39-23.94.3-7.7,3.66-14.38,8.43-20.23,3.93-4.84,8.94-3.7,11.45,2.06,1.26,2.88,2.06,5.93,1.93,9.04Z"/>
  <path class="cls-13" d="m822.14,390.55c.12,11.4-6.68,20.53-15.89,23.28-3.13.94-5.48.02-6.4-3.11-2.27-7.59-3.72-15.36-3.49-23.33.12-3.91,1.99-7.31,4.4-10.31,2.71-3.36,5.01-6.94,6.81-10.86,1.05-2.28,2.38-4.43,4.42-5.98,2.78-2.1,5.88-1.13,6.38,2.2,1.45,9.98,2.7,20.01,3.78,28.11h-.01Z"/>
  <path class="cls-29" d="m344.22,356.49c-.2.37-.52.57-.8.14-.13-.19,0-.53,0-.8.32-.45.63-.9.95-1.37.1-.14.2-.29.3-.43.15.87-.03,1.69-.44,2.46h0Z"/>
  <path class="cls-42" d="m713.93,744.34c2.09-8.1,4.19-16.19,6.27-24.29.47-1.83.97-3.7.64-5.6-.24-1.36.77-1.99,1.42-2.81,5.53-6.98,11.04-13.97,15.66-21.61.56-.93,2.03-2.16.93-3.08-1.02-.85-2.09.64-2.94,1.41-3.05,2.76-5.63,5.97-8.19,9.17-8.35,10.48-17.49,20.34-24.76,31.66-.2.31-.55.52-1.39,1.27,1.09-6.39,2.09-12.14,3.05-17.9.56-3.35,1.48-6.71,1.45-10.06-.05-4.98,1.36-9.34,3.67-13.65,2.85-5.31,5.1-10.91,6.8-17.03-1.47.36-1.71,1.36-2.11,2.18-4.98,10.15-11.05,19.65-17.06,29.21-4.04,6.43-7.82,13.02-11.66,19.57-2.39,4.07-5.62,7.16-9.69,9.58-11.7,6.96-23.08,14.41-34.02,22.52-4.98,3.69-5.61,3.59-10.31-.43-3.35-2.86-6.58-5.86-9.97-8.67-3.38-2.81-6.88-5.46-10.6-8.4,3.3-.9,6.61-1.34,9.6-2.81,1.31-.64,2.29-1.43,3.03-2.73,6.52-11.51,10.05-24.11,13.26-36.8,2.57-10.19,4.46-20.5,5.06-31.04.83-14.49-3.72-26.99-13.45-37.62-4.93-5.38-10.04-10.6-15.14-15.82-11.14-11.43-19.66-24.79-27.3-38.6-5.46-9.87-13.46-14.39-23.96-16.26-12.25-2.18-24.58-3.39-36.98-4-46.09-2.25-92.2-3.43-138.33-1.28-6.59.31-13.16.91-19.71,1.74-8.02,1.02-14.03,4.99-19.11,11.13-8.9,10.77-15.87,22.79-23.11,34.63-10,16.37-19.85,32.83-26.81,50.81-.56,1.45-.71,3.11-2.28,4.72-1-6.17-1.97-11.95-2.87-17.73-3.58-22.94-5.63-46.07-8.38-69.11-.42-3.54-1.37-7.01-1.38-10.63,0-1.58-1.44-1.99-2.99-2.03-7.43-.21-14.78.74-22.15,1.38-5.68.49-11.34,1.15-17.02,1.68-2.5.23-4.53.91-6.71,2.57-29.87,22.71-55.48,49.84-80.78,77.3-.8.86-1.57,1.75-2.64,2.95,0-7.71,0-14.94,0-22.17.08-36.56,10.8-70.48,25.66-103.38,4.52-10.01,9-20.04,13.5-30.06.47-.27.93-.27,1.36.09,1.72,11.07,3.84,22.04,7.2,32.75,2.31,7.36,4.9,14.6,8.36,21.5.87,1.73,1.71,4.33,3.72,4.27,2.18-.06,2.39-2.88,3.11-4.65,2.68-6.63,3.29-13.77,4.99-20.65,10.16-41.03,26.35-79.63,46.9-116.48,17.06-30.59,37.75-58.68,59.34-86.15,1.91-2.43,3.75-4.9,6.03-7.87.26,5.49.55,10.39.7,15.3.56,18.51,1.97,36.95,4.41,55.3.51,3.86,1.14,7.71,1.83,11.54.33,1.83.47,4.03,3.11,4.05,2.55.02,2.99-2.09,3.35-3.92,2.06-10.59,4.19-21.17,7.06-31.58,8.47-30.7,23.84-57.71,43.75-82.33,13.53-16.74,28.24-32.47,41.88-49.11,14.02-17.11,26.47-35.19,33.99-56.22,5.31-14.87,8.72-30.12,8.72-46,.47-.26.75.04,1.01.34,21.65,25.07,44.01,49.5,64.74,75.37,45.47,56.76,78.6,120.15,101.65,188.93,3.99,11.92,8.23,23.82,10.39,36.3.39,2.26,1.07,4.62,2.95,6.14,2.94-4.01,6.29-7.57,8.93-11.69,6.87-10.7,13.22-21.7,19.39-32.81,15.22-27.36,30.3-54.8,42.66-83.62,1.36-3.18,2.54-6.45,3.98-10.13.64,1.58,1.31,2.81,1.64,4.12,7.38,29.36,14.89,58.69,20.18,88.53,4.05,22.86,7.04,45.84,8.79,68.99.99,13.18,1.25,26.37,1.49,39.58.04,1.97.48,3.97,1.01,5.88.46,1.66,2,1.89,3.45,1.61,2.45-.47,4.91-.98,7.29-1.71,22.82-7.07,45.7-13.98,67.66-23.52,1.15-.04,1.11.59.78,1.39-11.4,25.04-18.28,51.55-24.57,78.16-12.22,51.67-28.69,101.85-50.54,150.26-11.34,25.11-25.02,48.9-40.21,71.85-.05.07-.15.1-.64.39-.13-1.47-.29-2.77-.34-4.07-.5-12.5-1.56-24.95-3.28-37.34-.31-2.23.09-3.98,1.39-5.85,5.94-8.53,11.15-17.52,16.42-26.47.57-.97,1.51-1.89,1.11-3.83-12.44,14.33-22.51,29.85-32.83,45.17-1.3-.26-.68-1.06-.48-1.74l-.03.05Z"/>
  <path class="cls-30" d="m388.47,785.21c12.54-1.95,25.08-3.87,37.49-6.57,16.03-3.49,31.83-7.76,47.43-12.89,15.02-4.95,22.13-15.48,23.79-30.59.74-6.77,1.31-13.55,1.04-20.35-.09-2.25.51-3.21,2.84-3.45,5.39-.55,10.52-2.22,15.42-4.4.78.47.47,1.13.45,1.65-.27,8.91.72,17.79.73,26.7,0,3.51,1.81,5.63,5.12,6.92,15.01,5.9,30.27,6.59,45.94,3.1,11.21-2.5,22.53-4.48,33.79-6.71,1.34-.27,2.33-.29,3.39.98,6.72,8.04,14.9,14.47,23.31,20.63,4.79,3.51,9.48,3.51,14.29-.22,9.88-7.67,19.8-15.45,30.84-21.29,11.11-5.88,17.73-15.21,23.38-25.72.61-1.14,1.27-2.27,1.91-3.4,1.45.2.64,1.11.57,1.79-.73,6.02-1.51,12.04-2.15,18.07-.27,2.48-1.37,5.58,1.66,6.94,2.93,1.32,4.81-1.24,6.45-3.19,2.88-3.43,5.54-7.04,8.3-10.58,1.18-.04,1.02.68.81,1.42-2.3,8.67-4.66,17.33-6.88,26.02-.57,2.23-1.8,5.01,1.03,6.44s4.42-1.18,5.81-2.99c2.85-3.71,5.42-7.62,8.51-12.03.36,2.93.71,5.31.93,7.7,1.62,17.54,2.41,35.12,2.68,52.73.08,5.01-.58,9.98-.63,14.94-.12,11.49.57,22.98,2.14,34.39.2,1.44.74,2.66-1.76,2.23-10.17-1.72-20.47-2.23-30.75-2.77-29.88-1.57-59.78-2.24-89.69-2.73-39.63-.65-79.26-.58-118.88-.14-25.21.28-50.42.92-75.62,1.75-22.09.73-44.18,1.76-66.25,2.98-25.76,1.42-51.48,3.36-77.15,5.97-31.13,3.17-62.13,7.32-93.01,12.33-3.55.58-7.11,1.08-10.66,1.68-1.08.18-1.8.19-1.58-1.24,1.57-10.31,1.08-20.76,2.11-31.11.17-1.68.78-2.17,2.41-2.17,25.04-.01,49.23-4.98,73.09-12.19,16.47-4.98,33.25-8.8,50.43-10.34,12.45-1.11,24.95-1.47,37.47-1.19,18.69.41,37.41,1.94,56.09.14,18.74-1.8,37.18-5.4,55.49-9.71,24.35-5.73,48.86-10.52,73.85-12.47,1.49-.12,2.98-.54,4.46-.48,3.03.11,4.52-1.81,5.08-4.2,2.31-9.94,4.2-19.97,3.84-30.26-.05-1.41-.21-2.83-1.7-3.6-1.5-.78-2.18.62-3.08,1.23-12.9,8.74-27.29,14.18-42.03,18.74-18.5,5.73-37.46,9.03-56.79,10.37-9.47.66-18.92,1.64-28.43,1.75-2.14.44-4.3.13-6.44.19-.56.02-.94-.21-.87-.86l-.02.06Z"/>
  <path class="cls-30" d="m598.83,606.16c-10.36.11-20.5,1.03-30.65,1.82-11.16.87-22.34,1.65-33.5,2.57-6.66.55-8.78,2.61-8.79,9.21,0,9.72-4.55,15.99-13.4,19.61-9.31,3.81-19.34,4.99-28.82,8.12-1.33.44-1.48-.58-1.8-1.39-1.03-2.6-2.3-5.14-3.06-7.82-2.71-9.59-9.38-13.28-18.87-13.36-10.33-.09-20.59.79-30.83,1.88-22.58,2.41-44.92,6.27-66.93,11.9-14.23,3.64-28.18,8.01-41.87,13.47-13.55,5.41-19.03,15.35-20.19,29.05-1.1,12.99-1.37,25.96-.53,38.96.09,1.41.25,2.69-1.62,3.33-16.9,5.83-33.92,8.48-51.35,2.27-11.08-3.94-21.26-9.67-31.36-15.58-11.15-6.52-21.33-14.52-32.34-21.25-8.37-5.11-17.47-8.87-25.77-14.1-2.79-1.76-5.4-.63-7.88.88-5.47,3.33-10.91,6.7-16.38,10.02-.72.44-1.37,1.15-2.64.95,2.28-5.65,5.31-10.79,8.44-15.86,8.28-13.44,18.5-25.36,29.1-36.97,20.04-21.97,41.51-42.53,62.31-63.74,4.34-4.42,8.72-7.1,15.01-7.73,10.81-1.09,21.54-3.04,32.3-4.71,1.94-.3,2.32.34,2.38,2.17.67,21.42,3.51,42.62,6.37,63.82,1.71,12.68,4.04,25.24,6.84,37.72.38,1.67.33,4.28,2.18,4.54,2.16.3,2.79-2.28,3.51-3.95,3.9-8.98,7.64-18.03,11.53-27.01,6.84-15.76,16.59-29.88,25.36-44.55,4.1-6.87,8.01-13.86,13.1-20.08,2.29-2.8,4.85-5.31,7.55-7.71,4.88-4.35,10.66-5.99,17.08-6.22,10.8-.38,21.59-.44,32.4-.25,16.11.29,32.23-.09,48.33.32,28.69.74,57.36,2.13,85.94,4.87,10.36.99,20.53,3.21,30.56,6.03,3.83,1.08,6.66,3.06,8.62,6.76,5.82,10.95,13.79,20.6,19.66,32.03v-.02Z"/>
  <path class="cls-43" d="m521.83,717.3c-.48-3.57-1.88-7.04-2.21-10.5-.44-4.7-2.84-3.33-5.34-2.78-4.49.98-9,1.86-13.44,3.02-2.21.57-2.96.41-3.14-2.21-.99-14.41-2.83-28.68-8.81-42.05-1.75-3.91-3.76-7.71-5.71-11.69,12.41,1.72,23.59-1.84,34.28-7.42,9.73-5.08,14.5-13.08,13.91-24.18-.23-4.28-.11-4.38,4.26-5.06,6.84-1.05,13.76-1.04,20.66-1.25,15.6-.48,31.17-1.5,46.74-2.43,1.88-.11,3.53.33,4.69,1.52,6.03,6.26,13.23,11.27,18.8,18.05,8.66,10.55,12.51,22.3,10.68,35.95-2.7,20.17-6.98,39.93-14.57,58.88-.3.74-.76,1.42-.98,2.18-.69,2.44-2.29,3.07-4.75,3.53-21.21,3.98-42.47,7.73-63.56,12.33-.2.04-.41.06-.58.15-5.3,2.84-10.26,1.33-15.31-.92-3.63-1.62-7.33-3.16-11.23-4.13-3.66-1.18-4.14-1.78-4.11-5.52.01-1.89-.21-3.79.16-5.64.25-.1.53-.22.62-.12,3.9,3.87,9.13,4.71,14.07,6.22,2.38.72,4.79,1.42,6.82,3.39,1.73-8.71,3.46-17.22,4.13-25.9.76-9.86,1.94-19.69,2.7-29.55.74-9.54,2.16-19.06.94-28.68-.58-4.6-1.33-5.43-5.87-6.68-4.94-1.37-10-1.93-15.06-2.56-2.25-.28-3.19.41-3.35,2.87-.23,3.5-.64,6.98-.22,10.47.3,2.43-.85,3.53-3.06,3.91-4.05.69-7.99,1.85-11.89,3.1-3.9,1.25-4.38,2.04-4.46,6.02-.14,7.51.52,14.97,1.17,22.43.23,2.57,1.5,3.63,3.84,4.17,3.05.69,5.94.15,8.88-.55,3.38-.8,4.02-.21,3.7,3.15-.5,5.27-.77,10.57-1.62,15.8-.52.94-.17,2.47-1.78,2.69h0Z"/>
  <path class="cls-20" d="m430.85,768.45c5.1-20.56.83-38.36-14.47-52.63-11.43-10.65-25.79-14.37-41.2-14.33-8.21.02-16.08,1.67-23.62,4.95-18.07,7.85-26.82,23.49-24.14,43.03.76,5.54,1.95,10.96,4.2,16.71-6.39-2.3-11.81-5.35-17.17-8.5-.53-.31-.81-1.11-1.09-1.74-4.41-9.82-6.98-20.18-8.86-30.73-.32-1.81.6-3.6-.57-5.57-.87-1.45.62-3.16,1.67-4.53,5.59-7.21,12.57-12.54,21.13-15.77,4.49-1.7,8.94-3.51,13.44-5.17,8.02-2.95,15.84-6.39,22.62-11.59,6.88-5.28,14.31-5.71,22.43-4.61,25.26,3.42,50.57,4.89,75.94.92,7.71-1.21,15.39-2.62,22.67-5.56,1.7-.69,2.44-.54,2.91,1.36,4.76,19.52,6.23,39.27,4.36,59.27-.2,2.1-1.56,3.43-2.9,4.74-11.16,10.95-24.13,19.02-38.87,24.26-6.01,2.14-12.12,3.92-18.47,5.48h-.01Z"/>
  <path class="cls-8" d="m300.1,727.28c1.18,10.22,2.4,20.24,5.98,29.79,1.84,4.92,1.79,4.95-2.67,7.59-23.04,13.67-47.91,21.39-74.66,22.97-3.99.24-7.99.48-11.98.7-.16,0-.33-.16-.71-.36,4.57-8.86,8.43-18.05,12.46-27.17,1.49-3.38,3.01-6.77,4.21-10.26,1.7-4.95.76-7.93-3.83-10.35-12.36-6.52-24.67-13.19-37.58-18.61-9.58-4.02-17.95-2.27-25.64,4.88-12.7,11.82-20.06,25.93-20.46,43.48-.17,7.4-.72,14.8-.11,22.19.13,1.59-.31,2.02-1.86,2.16-5.98.54-6.17.64-7.28-5.33-4.37-23.49-9.5-46.85-11.4-70.74-.59-7.44.18-14.78,2.09-22,.3-1.14.51-2.29,1.92-2.79,8.23-2.87,15.23-7.93,22.19-12.97,2.69-1.95,4.55-2.02,7.63-.32,17.43,9.64,33.32,21.66,50.21,32.1,13.34,8.24,27.25,15.51,42.55,19.52,16.36,4.29,32.3,2.75,47.73-4.14.27-.12.56-.17,1.22-.37v.03Z"/>
  <path class="cls-31" d="m303.12,709.37c-.83-8.65-.15-17.02.36-25.38.14-2.29.7-4.55.83-6.84.37-6.49,3.79-11.17,8.59-15.14,8.94-7.38,19.56-11.29,30.51-14.11,28.45-7.34,57.11-13.73,86.39-16.9,12.98-1.41,25.93-1.46,38.87.51,2.62.4,3.96,2.49,4.27,4.5,1.11,7.06,4.78,13.09,7.23,19.6,1.41,3.74,2.81,7.49,4.31,11.2.66,1.62.5,2.29-1.44,2.83-24.97,6.92-50.35,8.86-76.11,6.43-8.86-.83-17.72-1.64-26.59-2.36-5.69-.46-11.17.24-16.02,3.65-9.92,6.98-21.27,10.95-32.43,15.31-7.92,3.1-15.84,6.24-22.67,11.48-2.04,1.56-3.91,3.33-6.09,5.21h0Z"/>
  <path class="cls-5" d="m522.92,760.45c-.77,9.51-2.82,18.07-3.97,26.77-.17,1.3-.75,1.59-1.95,1.57-28.16-.47-55.3,6.32-82.68,11.54-20.27,3.86-40.39,8.75-61.09,9.9-12.21.68-24.4-.07-36.59-.65-19.63-.94-39.18-.49-58.67,2.3-17.52,2.51-34.13,8.4-51,13.3-16.99,4.94-34.32,7.6-52,8.19-5.5.18-10.97.51-16.38-.73-.96-.22-1.92-.57-2.79-1.05-1.56-.86-1.6-2.42-1.51-3.95.08-1.28.8-1.93,2.09-2.12,11.3-1.63,22.25-4.88,33.29-7.64,25.85-6.47,51.96-11.3,78.53-13.26,22.46-1.66,44.96-2.05,67.48-.96,17.5.85,34.96.57,52.41-1.46,13.29-1.54,26.7-2.13,39.92-4.39,7.98-1.36,15.91-2.89,23.67-5.26,12.57-3.84,25.63-5.2,38.54-7.3,5.46-.89,10.66-2.64,15.8-4.59,1.25-.47,2.73-1.17,2.33-2.64-.34-1.25-1.94-.63-2.93-.55-13.19,1.11-26.1,3.82-38.85,7.25-21.68,5.82-43.83,8.84-66.08,11.36-22.08,2.49-44.18,4.4-66.43,3.66-9.59-.32-19.15-1.36-28.76-1.58-13.92-.32-27.82.09-41.64,1.61-22.06,2.42-43.96,5.9-65.65,10.68-12.18,2.68-24.13,6.41-36.53,8.1-6.42.87-12.86,1.65-19.26-.27-3.42-1.03-3.9-2.26-1.62-5.06,1.7-2.1,3.28-3.95,6.65-4.29,14.11-1.43,28.29-2.27,42.33-4.41,14.02-2.14,27.99-4.66,42.07-6.25,22.31-2.52,44.53-6.13,67.15-5.42,28.41.89,56.81-.84,85.2-1.89,19.57-.72,39.15-1.78,58.63-3.99,20.33-2.31,39.69-8.15,58.55-15.89,7.28-2.99,14.97-5.07,21.74-10.62h0Z"/>
  <path class="cls-13" d="m522.89,714.91c.59-6.24,1.17-12.49,1.77-18.94-4.26.63-8.19,2.23-12.47,1.11-2.55-.67-4.06-1.67-4.26-4.42-.59-7.97-1.34-15.94-1.2-23.95.05-3.03.98-4.92,4.24-5.71,4.45-1.07,8.71-2.91,13.32-3.42,1.61-.18,2.46-.75,1.99-2.73-1.04-4.43.5-8.91.01-13.4-.13-1.18,1.08-1.21,2-1.17,7.18.39,14.28,1.39,21.12,3.66,2.53.84,2.7,3.44,3.01,5.72,1.02,7.6.28,15.19-.33,22.75-1.12,13.93-2.42,27.85-3.9,41.74-.81,7.58-2.31,15.08-4.24,23.46-1.03-3.42-3.09-4.27-5.37-4.91-3.26-.92-6.49-1.94-9.72-2.95-2.42-.76-4.65-1.83-5.97-4.27-1.26,6.48-.56,8.72,3.33,10.78-3.43-.31-4.38-1.26-4.42-4.61-.04-3.28.01-6.56.02-9.84.57-1.2.14-2.47.28-3.7.28-1.74.55-3.49.8-5.23v.03Z"/>
  <path class="cls-19" d="m316.56,777.9c-1.8,1.69.07,2.73.87,3.63,1.81,2.05,4.3,3.21,7.39,4.63-1.27.11-1.95.23-2.63.21-29.95-1.06-59.45,3.05-88.93,7.54-20.03,3.05-39.99,6.63-60.3,7.67-10.27.53-20.51,1.85-30.76,2.74-2.19.19-4.4.02-6.6.15-1.81.11-2.42-.52-2.39-2.39.02-1.9.52-2.51,2.52-2.59,12.5-.47,24.88-2.26,37.35-3.2,11.57-.87,23.12-2.01,34.7-2.62,23.59-1.24,47.07-2.94,69.41-11.56,10.75-4.15,21.33-8.68,30.62-15.66,1.38-1.04,1.75-.58,2.29.7,1.19,2.85,2.22,5.79,3.97,8.38.47.44,1.11.32,1.67.48.75.42,1.26.94.83,1.88h0Z"/>
  <path class="cls-31" d="m396.26,778.65c-9.52,1.9-19.16,2.93-28.78,4.1-4.27.52-8.58.68-12.83,1.29-12.52,1.8-22.02-4-30.61-12.03-2.7-2.52-4.84-5.55-7.1-9.23,4.22,1.99,7.78,4.12,11.59,5.74,17.2,7.33,35.19,10.16,53.79,9.65,3.2-.09,6.4-.17,9.6-.25,1.2-.54,2.54.11,3.74-.44.95-.06,1.89-.12,2.84-.18.71-.2,1.44-.44,1.43.75h0c-1.14.67-2.55-.28-3.66.6h0Z"/>
  <path class="cls-37" d="m127.3,630.83c5.04,5.4,10.26,10.6,16.34,14.83,1.27.88,1.13,1.46.25,2.53-3.66,4.46-7.24,8.99-11.16,13.89-1.26-10.35-3.83-20.09-6.17-29.88-.26-.73-.42-1.41.74-1.37h0Z"/>
  <path class="cls-36" d="m445.58,767.3c15.98-4.78,30.41-12.41,43.1-23.65.1,4.43-2.86,9.27-7.26,12.04-4.85,3.05-10.23,4.94-15.62,6.75-6.05,2.03-12.12,4.01-18.35,5.44-.71.09-1.58.73-1.86-.57h-.01Z"/>
  <path class="cls-36" d="m316.56,777.9l-1.26-1.86c-.79-.33-.13-1.21-.63-1.65.07-3.6-1.98-6.67-2.54-10.12-.23-.67-.51-1.36.67-1.3,7.31,10.95,9.03,12.57,22.63,21.2-4.46.44-11.02-1.39-15.55-4.3-1.08-.7-2.22-1.32-3.33-1.97h0Z"/>
  <path class="cls-24" d="m445.58,767.3c.48.65,1.24.38,1.86.57-4.48,1.66-9.13,2.7-13.82,3.57-.6.22-1.26.57-1.28-.55,4.41-1.2,8.83-2.39,13.24-3.59h0Z"/>
  <path class="cls-10" d="m432.33,770.89c.43.18.86.37,1.28.55-5.16,1.54-10.43,2.62-15.74,3.47-.2-.14-.27-.29-.22-.45.06-.16.11-.24.18-.24,4.83-1.11,9.67-2.22,14.5-3.34h0Z"/>
  <path class="cls-27" d="m399.93,778.05c-.31-.56-.89-.61-1.43-.75,4.2-.94,8.47-1.45,12.75-1.88.15.15.2.31.16.47s-.09.24-.14.24c-3.74.89-7.49,1.72-11.35,1.92h.01Z"/>
  <path class="cls-39" d="m388.47,785.21c2.34,1.29,4.91.13,7.32.66-4.61.95-9.28.49-13.93.51-.21-.12-.27-.24-.2-.35.07-.11.14-.16.22-.16,2.2-.2,4.34-.94,6.59-.66h0Z"/>
  <path class="cls-25" d="m411.27,776.13c0-.24-.02-.47-.02-.71,2.13-.75,4.35-1.01,6.58-1.2.01.23.03.46.04.69-2.2.41-4.4.81-6.6,1.22h0Z"/>
  <path class="cls-22" d="m522.89,714.91c.28,1.85-.08,3.65-.52,5.43-.2.3-.36.26-.48-.06l-.06-2.98c.36-.8.71-1.59,1.07-2.39h-.01Z"/>
  <path class="cls-15" d="m310.16,759.4c-.35-1.34-.58-2.26-.82-3.19.94.73,2.01,1.43.82,3.19Z"/>
  <path class="cls-46" d="m715.26,724.07c-.14-.55-.2-1.14-.81-1.42.19-.93.84-1.51,1.8-2.5-.21,1.68-.28,2.87-.98,3.92h-.01Z"/>
  <path class="cls-14" d="m191.49,484.33c-.45-.03-.91-.06-1.36-.09.02-.92.37-1.68,1.07-2.39.48.83.4,1.65.29,2.48Z"/>
  <path class="cls-18" d="m700.19,711.4c-.17-.6.09-1.35-.57-1.79.09-.57.23-1.11,1.02-1.45.16,1.18.31,2.25-.45,3.24Z"/>
  <path class="cls-17" d="m713.93,744.34c.17.58-.14,1.28.48,1.74-.16.56-.33,1.1-1.29,1.3.06-1.13.03-2.15.81-3.03h0Z"/>
  <path class="cls-41" d="m521.89,720.28c.16.01.32.03.48.06-.06,1.19.41,2.46-.56,3.5.03-1.19.05-2.38.08-3.56Z"/>
  <path class="cls-35" d="m312.8,762.98c-.54.27-.55.81-.67,1.3-.62-.72-.96-1.6-.11-2.22.43-.31.71.43.78.92Z"/>
  <path class="cls-23" d="m847.91,477.8c-.07-.57-.2-1.1-.78-1.39.55-.36,1.1-.71,1.81-1.17.27,1.27-.38,1.91-1.02,2.56h0Z"/>
  <path class="cls-38" d="m127.3,630.83c-.57.29-.6.86-.74,1.37-.46-.77-1.28-1.68-.63-2.42.39-.45,1.14.34,1.37,1.05Z"/>
  <path class="cls-27" d="m395.66,777.48c-1.16.91-2.47.47-3.74.44,1.19-.6,2.46-.56,3.74-.44Z"/>
  <path class="cls-27" d="m396.26,778.65c1.06-1.16,2.41-.56,3.66-.62-1.13.75-2.41.59-3.66.62Z"/>
  <path class="cls-2" d="m314.67,774.39c.21.55.42,1.1.63,1.65-.78.72-1.08.27-1.24-.51.2-.38.41-.76.61-1.14Z"/>
  <path class="cls-34" d="m381.88,785.87c0,.17-.02.34-.02.51-.84.08-1.69.29-2.51-.26.83-.49,1.69-.33,2.53-.25Z"/>
  <path class="cls-7" d="m226.79,359.62c5.34,8.05,8.18,16.03,3.8,25.17-2.31,4.81-5.04,9.29-8.85,13.05-.84.82-1.81,2.16-2.93,1.79-1.31-.43-1.22-2.17-1.36-3.4-.58-5.02.14-9.93,1.43-14.8,1.96-7.4,5.63-14.16,7.92-21.82h-.01Z"/>
  <path class="cls-42" d="m652.78,228.26c.03-2.94.31-5.4,1.03-7.82,1.14-3.86,4-5.47,7.66-6.2,1.06-.21,1.46.15,1.59,1.13,1.36,10.17,4.07,20.22,2.89,30.63-.06.5-.1,1.01-.26,1.48-.7,2.11-1.42,4.43-4.01,4.73-2.5.28-3.68-1.83-4.59-3.68-3.2-6.51-3.89-13.58-4.32-20.26h.01Z"/>
  <path class="cls-37" d="m478.52,100.82c-5.46-7.03-8.37-14.75-6.57-23.46.81-3.95,3.77-6.95,6.49-9.87,1.03-1.1,1.25,0,1.54.71.96,2.37,1.14,4.85.92,7.36-.76,8.43-1.58,16.85-2.38,25.27h0Z"/>
  <path class="cls-42" d="m814.11,368.08c.79,7.03,1.37,13.69,2.33,20.29,1.43,9.93-3.75,16.26-11.18,21.52-1.6,1.13-2.37.51-2.66-1.14-1.25-7.3-2.26-14.64-1.39-22.04.45-3.86,3.01-6.91,5.36-9.87,2.29-2.89,4.8-5.6,7.54-8.76h0Z"/>
  <path class="cls-28" d="m621.43,386.47c-2.68-4.25-3.33-9.16-4.38-13.9-6.25-28.01-16.58-54.68-26.51-81.49-1.58-4.27-3.04-8.58-4.79-13.54,2.69,2.2,4.07,4.5,5.39,6.79,7.33,12.7,12.45,26.37,17.4,40.11,6.69,18.53,10.39,37.75,13.46,57.13.12.78.09,1.6.12,2.39.1.93.98,2.08-.7,2.51h.01Z"/>
  <path class="cls-28" d="m378.17,363.26c-1.62-2.09-1.21-4.23-1.11-6.28.74-15.01,2.15-29.93,6.62-44.39,1.39-4.5,3.13-8.87,5.68-12.86,1.52-2.39,3.4-4.39,6.69-6.17-7.67,23.27-13.68,46.25-17.88,69.69h0Z"/>
  <path class="cls-28" d="m252.24,474.67c.24-9.2,3.19-17.86,5.37-26.66,3.15-12.73,6.88-25.28,13.86-36.57,1.77-2.86,3.32-5.93,6.36-8.06.39,1.72-.37,3.05-.87,4.36-7.73,20.15-14.72,40.55-21.09,61.16-.67,2.17-1.74,4.22-2.62,6.33-.67.41-.78-.17-1-.56h-.01Z"/>
  <path class="cls-11" d="m740.45,450.07c-1.26-4.11-.84-8.33-.67-12.51.61-15.09,1.03-30.18,1.24-45.27.05-3.51.2-7.07,1.78-10.95,1.75,4.24,1.86,8.21,2.34,12.08,1.49,12,.46,23.96-.86,35.9-.76,6.94-1.07,13.94-2.79,20.75-.35.39-.7.39-1.05,0h0Z"/>
  <path class="cls-44" d="m390.54,364.23c-4.04-7.8.01-33.68,7.06-45.94,1.25,3.88-4.41,41.19-7.06,45.94Z"/>
  <path class="cls-9" d="m597.01,338.58c4.97,9.15,11.62,50.17,9.47,58.75-1.57-2.52-2.37-5.11-2.77-7.83-2.21-15.2-4.64-30.38-6.3-45.66-.18-1.67-.91-3.28-.4-5.25h0Z"/>
  <path class="cls-9" d="m730.25,450.63c-1.83-15.86-.77-31.53,2.27-47.08.34,0,.68-.02,1.01-.03.28,1.67.66,3.33.8,5.01.14,1.79.06,3.6.04,5.4s-.01,3.61-.14,5.4c-.67,9.68-1.02,19.38-2.28,29.01-.13.98-.43,1.93-.66,2.9-.71.41-.82-.2-1.06-.61h.02Z"/>
  <path class="cls-32" d="m265.56,474.12c-2.02-7.68,7.49-32.9,14.81-39.89-4.75,13.36-8.59,27.07-14.81,39.89h0Z"/>
  <path class="cls-45" d="m587.08,365.91c3.53,11.29,3,22.91,2.75,34.96-4.2-4.04-5.79-24.97-2.75-34.96Z"/>
  <path class="cls-32" d="m174.95,549.61c-.27-.86-.83-1.78-.8-2.67.23-7.59.75-15.15,3.06-22.45.44-1.4,1.53-2.51,3.14-2.26,1.53.24,1.67,1.67,1.47,2.85-1.33,7.87-3.02,15.65-5.62,23.22-.16.46-.24,1.22-1.26,1.32h0Z"/>
  <path class="cls-45" d="m718.48,454.44c-1.91-3.91-.59-7.59-.28-11.19.35-4.06,1.11-8.08,1.73-12.11.1-.68.32-1.35.56-2.01.39-1.09,1.01-2.14,2.32-1.88,1.37.27.96,1.58.9,2.47-.42,5.77-1.77,11.39-2.87,17.05-.48,2.48-.6,5.1-2.35,7.66h-.01Z"/>
  <path class="cls-12" d="m399.54,358.88c.36-6.89,1.73-13.51,5.39-19.48-.78,6.77-2.69,13.23-5.39,19.48Z"/>
  <path class="cls-33" d="m281.62,460.47c-1.6,4.64-4.37,8.67-6.7,12.95,1.91-4.72,3.94-9.38,6.64-13.73.26.24.28.5.06.78Z"/>
  <path class="cls-21" d="m621.43,386.47c.99-.63.32-1.72.7-2.51.77,1.35.6,2.78.39,4.26-1.06-.18-1.05-.97-1.09-1.74h0Z"/>
  <path class="cls-1" d="m740.45,450.07h1.05c.04.63.33,1.61-.55,1.6-.88,0-.56-.98-.5-1.61h0Z"/>
  <path class="cls-3" d="m730.25,450.63c.35.2.7.41,1.06.61.15.49-.02,1.38-.17,1.32-.77-.34-1.05-1.07-.88-1.93h-.01Z"/>
  <path class="cls-13" d="m281.62,460.47c-.02-.26-.04-.52-.06-.78.25-.59.51-1.18.76-1.77.51,1.12.07,1.89-.7,2.55Z"/>
  <path class="cls-16" d="m252.24,474.67c.33.19.67.37,1,.56.08.66-.35,1.45-.79,1.26-.63-.27-.36-1.16-.21-1.82Z"/>
  <path class="cls-4" d="m423.75,670.93c-3.91,2-6.01-2.14-9.14-3.18-.91-.3-1.27-2.92-1.46-4.53-.24-1.99-.43-4.12.03-6.02.66-2.72.43-5.49,1.01-8.22.89-4.21,3.75-6.84,7.13-8.19,2.92-1.17,6.27-1.95,9.74-1.57,4.31.47,7.19,3.37,7.94,7.53.85,4.69.01,9.25-.15,13.85-.1,2.76-1.85,5.47-3.84,6.54-3.39,1.83-6.55,5.09-11.26,3.8h0Z"/>
  <path class="cls-4" d="m468.93,641.41c-.29,7.75-2.49,9.97-9.98,12.29-1.77.55-3.46,1.22-5.39,1.26-2.01.04-2.35,2.22-1.98,3.29.92,2.7-1.11,5.06-.39,7.6.03.09.05.19.08.28-2.39.41-4.77.92-7.17,1.17-.53.05-.47-1.04-.33-1.57,1.44-5.29,0-10.71.85-16.13.54-3.39.84-7.23.25-10.82-.5-3.08,1.94-2.78,3.44-3.04,4.5-.77,9.06-1.25,13.6-1.79,3.47-.41,7.04,3.4,7.03,7.45h0Z"/>
  <path class="cls-26" d="m526.64,720.47c1.54-10.66,1.6-22.68,2.58-34.62.63-7.79.24-15.58-.7-23.34-.65-5.41.88-10.75.5-16.15-.07-1.02.68-.99,1.45-.91,5.16.56,10.31,1.16,15.48,1.59,1.61.13,1.75.85,1.58,2.12-2.35,17.28-1.9,34.72-2.91,52.07-.52,8.88-1.23,17.74-1.96,26.6-.29,3.59-.4,3.54-3.88,2.33-2.54-.88-5.13-1.64-7.7-2.44-4.46-1.4-4.54-1.49-4.44-7.24h0Z"/>
  <path class="cls-6" d="m510.27,693.75c.72-8.77,2.2-17.27.42-25.82-.3-1.46.14-1.7,1.4-1.74,4-.14,7.97-.58,11.77-1.92,1.52-.54,1.73.06,1.64,1.34-.57,8.17-.95,16.34-.77,24.53.04,1.67-.86,1.93-2.24,2.04-4.07.31-8.15.62-12.22,1.57h0Z"/>
  <path class="cls-31" d="m420.23,660.59c-.15-3.4.36-6.94,1.29-10.3.27-2.89,5.49-5.82,8-4.46,1.87,1.02,2.75,3.25,2.64,5.03-.24,3.75.02,7.63-1.87,11.21-1.12,2.14-3.06,2.35-4.87,2.74-.68.14-1.37.21-2.07.16-1.07-.08-1.66-.34-2.5-1.26-.2-.22-.62-1.88-.64-3.12h.02Z"/>
  <path class="cls-31" d="m451.78,640.64c2.41-.62,4.9.31,7.34-.59,1.23-.45,2.8,3.61,1.72,5.1-1.16,1.6-2.19,3.81-4.92,3.14-.28-.07-.61.05-.89-.02-1.27-.3-2.74,2-2.9,1-.24-1.48-.63-3.23-.18-4.87.34-1.26.25-2.52-.17-3.76h0Z"/>
</svg>