<svg viewBox="0 0 32 32" fill="none" xmlns="http://www.w3.org/2000/svg">
    <circle cx="15.46" cy="15.46" r="15.46" fill="url(#paint0_linear_1078_236)" transform="translate(0.54 0.54)" stroke-width="1.08" stroke="#025DCA" />
    <path d="m 15.33 14.05 c -0.53 0 -0.92 -0.13 -1.15 -0.4 c -0.24 -0.28 -0.36 -0.65 -0.36 -1.1 c 0 -1 0.75 -1.5 2.24 -1.5 c 1.4 0 2.78 0.45 3.65 0.88 l -0.55 0.54 c -0.43 -0.33 -1.88 -0.67 -3.1 -0.67 c -0.6 0 -1 0.07 -1.21 0.2 c -0.2 0.13 -0.3 0.32 -0.3 0.55 c 0 0.24 0.06 0.42 0.17 0.56 c 0.11 0.13 0.31 0.19 0.61 0.19 h 1.29 c 0.94 0 1.78 0.16 2.53 0.48 c 0.76 0.32 1.38 0.76 1.87 1.31 c 0.48 0.55 0.86 1.19 1.11 1.91 c 0.26 0.72 0.39 1.48 0.39 2.3 c 0 0.67 -0.1 1.3 -0.28 1.9 c -0.19 0.59 -0.48 1.14 -0.86 1.64 c -0.37 0.5 -0.83 0.94 -1.36 1.31 c -0.53 0.36 -1.16 0.64 -1.9 0.84 c -0.73 0.21 -1.52 0.31 -2.37 0.31 c -1.34 0 -2.6 -0.2 -3.77 -0.61 c -1.17 -0.41 -2.14 -1.06 -2.92 -1.79 l 0.43 -0.43 c 0.71 0.63 1.77 1.21 2.83 1.56 c 1.07 0.35 2.21 0.52 3.43 0.52 c 0.95 0 1.81 -0.13 2.57 -0.4 c 0.77 -0.28 1.4 -0.66 1.9 -1.14 c 0.5 -0.48 0.88 -1.03 1.14 -1.67 c 0.27 -0.63 0.41 -1.31 0.41 -2.04 c 0 -0.96 -0.2 -1.83 -0.58 -2.61 c -0.39 -0.79 -0.99 -1.42 -1.79 -1.91 c -0.79 -0.48 -1.72 -0.73 -2.81 -0.73 h -1.26 z m 1.19 0.75 c 1.41 0 2.51 0.43 3.3 1.29 c 0.8 0.87 1.2 1.93 1.2 3.21 c 0 1.3 -0.46 2.38 -1.39 3.23 c -0.92 0.85 -2.22 1.27 -3.88 1.27 c -1.11 0 -2.15 -0.15 -3.12 -0.46 c -0.96 -0.3 -1.96 -0.86 -2.6 -1.41 l 0.55 -0.54 c 0.56 0.46 1.52 1.02 2.38 1.28 c 0.86 0.25 1.8 0.38 2.79 0.38 c 1.46 0 2.58 -0.35 3.35 -1.05 c 0.78 -0.7 1.17 -1.6 1.17 -2.7 c 0 -1.08 -0.33 -1.98 -0.98 -2.68 c -0.65 -0.71 -1.57 -1.07 -2.78 -1.07 h -1.18 c -1.01 0 -1.77 -0.28 -2.28 -0.83 c -0.51 -0.56 -0.76 -1.28 -0.76 -2.17 c 0 -0.89 0.31 -1.61 0.94 -2.16 c 0.63 -0.56 1.57 -0.84 2.83 -0.84 c 0.88 0 1.7 0.11 2.46 0.32 c 0.76 0.2 1.72 0.65 2.22 1.03 l -0.54 0.54 c -0.87 -0.6 -2.51 -1.14 -4.14 -1.14 c -1.05 0 -1.82 0.21 -2.3 0.63 c -0.48 0.41 -0.72 0.95 -0.72 1.62 c 0 0.68 0.18 1.23 0.53 1.64 c 0.36 0.41 0.95 0.61 1.76 0.61 h 1.19 z m -0.04 1.5 c 1.01 0 1.77 0.28 2.28 0.85 c 0.51 0.56 0.76 1.28 0.76 2.15 c 0 0.89 -0.32 1.61 -0.95 2.17 c -0.62 0.55 -1.57 0.83 -2.82 0.83 c -0.88 0 -1.71 -0.1 -2.47 -0.3 c -0.76 -0.21 -1.78 -0.67 -2.27 -1.05 l 0.54 -0.54 c 0.87 0.6 2.57 1.14 4.2 1.14 c 1.05 0 1.81 -0.2 2.29 -0.61 c 0.49 -0.42 0.73 -0.96 0.73 -1.64 c 0 -0.67 -0.18 -1.21 -0.54 -1.62 c -0.36 -0.42 -0.95 -0.63 -1.76 -0.63 h -1.14 c -1.42 0 -2.54 -0.42 -3.34 -1.27 c -0.8 -0.85 -1.2 -1.93 -1.2 -3.23 c 0 -1.3 0.46 -2.37 1.39 -3.22 c 0.92 -0.85 2.21 -1.28 3.88 -1.28 c 1.11 0 2.15 0.16 3.1 0.46 c 0.97 0.31 2.02 0.75 2.66 1.31 l -0.54 0.54 c -0.57 -0.47 -1.58 -0.91 -2.44 -1.17 c -0.86 -0.26 -1.79 -0.39 -2.78 -0.39 c -1.46 0 -2.59 0.35 -3.36 1.06 c -0.77 0.7 -1.16 1.6 -1.16 2.69 c 0 1.09 0.33 1.99 0.98 2.7 c 0.65 0.7 1.59 1.05 2.81 1.05 h 1.15 z m 0 1.5 c 0.53 0 0.92 0.14 1.15 0.42 c 0.24 0.28 0.36 0.64 0.36 1.08 c 0 1 -0.75 1.5 -2.24 1.5 c -1.41 0 -3.06 -0.4 -3.77 -0.82 l 0.54 -0.54 c 0.49 0.22 2 0.61 3.23 0.61 c 0.6 0 0.99 -0.06 1.2 -0.2 c 0.2 -0.13 0.31 -0.31 0.31 -0.55 c 0 -0.23 -0.06 -0.41 -0.18 -0.54 c -0.11 -0.14 -0.32 -0.21 -0.62 -0.21 h -1.13 c -0.96 0 -1.82 -0.15 -2.6 -0.47 c -0.77 -0.31 -1.41 -0.74 -1.91 -1.29 c -0.49 -0.55 -0.87 -1.18 -1.13 -1.9 c -0.27 -0.73 -0.4 -1.5 -0.4 -2.34 c 0 -0.66 0.09 -1.3 0.28 -1.89 c 0.19 -0.6 0.47 -1.15 0.85 -1.65 c 0.38 -0.5 0.83 -0.93 1.36 -1.29 c 0.53 -0.37 1.17 -0.65 1.9 -0.85 c 0.73 -0.21 1.53 -0.32 2.38 -0.32 c 1.34 0 2.59 0.21 3.76 0.62 c 1.17 0.4 2.19 0.95 2.97 1.67 l -0.54 0.55 c -0.71 -0.64 -1.71 -1.21 -2.77 -1.56 c -1.07 -0.35 -2.2 -0.53 -3.42 -0.53 c -0.95 0 -1.81 0.14 -2.58 0.42 c -0.77 0.27 -1.4 0.65 -1.9 1.13 c -0.49 0.47 -0.87 1.03 -1.14 1.66 c -0.27 0.63 -0.4 1.31 -0.4 2.04 c 0 0.98 0.2 1.86 0.59 2.65 c 0.4 0.78 1 1.42 1.82 1.89 c 0.81 0.48 1.77 0.71 2.88 0.71 h 1.15 z m 0.78 7.38 l -0.37 0.05 l -0.38 0.04 v 2.39 h 0.75 v -2.48 z m -3 2.48 h 0.75 v -2.38 l -0.37 -0.03 l -0.38 -0.04 v 2.45 z m 3 -23.36 h -0.75 v 2.26 l 0.34 0.01 l 0.41 0.04 v -2.31 z m -3 2.43 l 0.34 -0.07 l 0.41 -0.05 v -2.31 h -0.75 v 2.43 z" fill="#025DCA"/>
    <defs>
        <linearGradient id="paint0_linear_1078_236" x1="16.5" y1="-32.5" x2="16.5" y2="32.5" gradientUnits="userSpaceOnUse">
            <stop stop-color="white"/>
            <stop offset="1" stop-color="#FFF8F0"/>
        </linearGradient>
    </defs>
</svg>