<svg width="240" height="240" viewBox="0 0 240 240" fill="none" xmlns="http://www.w3.org/2000/svg">
<g clip-path="url(#clip0_7589_52136)">
<path d="M120 240C186.5 240 240 186.5 240 120C240 53.4996 186.5 0 120 0C53.4996 0 0 53.4996 0 120C0 186.5 53.4996 240 120 240Z" fill="black"/>
<mask id="mask0_7589_52136" style="mask-type:alpha" maskUnits="userSpaceOnUse" x="0" y="0" width="240" height="240">
<path d="M120 240C186.5 240 240 186.5 240 120C240 53.4996 186.5 0 120 0C53.4996 0 0 53.4996 0 120C0 186.5 53.4996 240 120 240Z" fill="black"/>
</mask>
<g mask="url(#mask0_7589_52136)">
<path d="M5.6294 83.4764C13.5638 82.1443 13.5059 91.5845 6.15064 95.2622L9.01745 98.9977C11.1748 91.0923 14.3602 86.8789 18.5735 86.3577C22.005 88.4426 22.005 89.876 18.5735 90.6724C20.3399 94.7265 18.6459 102.864 14.2588 103.616C16.2279 108.033 19.0947 109.48 22.8882 107.931C22.6276 102.4 26.9278 90.7158 34.3989 90.6724C41.3922 86.2129 40.2628 97.5643 32.9655 97.8684C35.4993 101.778 34.2251 102.777 30.0842 103.616C33.1103 106.541 29.1141 109.509 25.7695 109.365V110.798C26.8554 117.661 21.9036 126.45 15.7067 129.49C16.8505 131.792 16.503 132.256 14.2733 130.924L11.0879 130.562C10.5812 127.043 8.77131 125.248 5.64388 125.161C0.735545 120.195 0.735545 120.673 5.64388 126.594C6.90354 127.072 6.90354 127.55 5.64388 128.028C6.88906 133.255 8.10528 144.751 7.59852 149.804C7.55509 150.282 6.71531 150.673 5.64388 151.035L6.99041 154.625C5.36878 158.998 5.57148 171.855 8.46726 168.018C11.5078 169.293 14.4036 169.394 17.1401 168.294C22.1643 163.443 29.867 176.242 28.6508 181.238C28.839 183.974 22.5117 184.626 20.0503 183.467C18.4721 188.332 11.754 186.653 8.10528 185.523L7.07729 187C0.923771 190.475 0.445968 192.879 5.64388 194.196C9.62556 195.34 9.56765 198.786 5.64388 199.944C9.22016 202.42 12.5648 204.809 15.7067 207.14C15.8225 208.125 14.8669 209.095 12.8254 210.022C12.4779 212.454 10.364 214.061 6.46917 214.858C7.93154 217.956 7.65644 220.186 5.6294 221.532C6.32439 224.891 4.8765 228.468 1.30022 232.247C1.74907 236.257 1.27126 239.399 -0.118707 241.672C1.87938 243.555 -1.07431 244.235 -3 243.106V96.4205C0.199828 93.4523 5.36878 87.5015 5.6294 83.4764Z" fill="#171928"/>
<path d="M97.6862 107.931C101.639 103.79 109.675 103.587 113.512 107.931C120.114 106.83 125.862 107.308 130.77 109.364C142.18 106.425 154.125 105.18 166.461 105.049L172.05 107.25C180.288 105.976 183.778 107.163 182.547 110.798C180.476 114.128 176.784 118.124 173.917 120.86C170.24 122.902 166.895 125.305 163.855 128.056C163.435 128.216 162.841 127.897 162.421 128.056C159.974 130.981 147.508 136.44 146.596 130.938C146.364 134.514 133.565 127.405 133.652 126.637C133.739 125.841 147.349 133.747 146.596 135.252C150.983 132.892 156.268 130.981 162.421 129.504C167.764 133.66 169.545 140.363 172.484 145.33L174.019 151.237C173.222 153.843 162.059 159.49 159.887 159.939C146.654 162.69 128.251 160.721 114.945 158.259C112.976 162.415 107.575 161.155 106.316 156.826L89.0568 151.078L85.2923 152.381C80.717 148.153 56.1609 138.293 62.5026 151.657C61.0113 152.772 61.0258 153.945 61.7208 155.378C64.3993 155.407 70.2343 160.199 67.4689 162.574L69.0326 165.238C84.9304 174.519 102.537 180.267 121.88 182.482L123.56 185.581C129.583 184.495 135.331 184.495 140.819 185.581C144.931 185.668 144.743 188.925 140.819 189.896C138.748 193.342 127.542 197.12 123.56 194.21C117.349 197.396 108.893 196.932 101.986 195.644C101.639 196.889 101.147 196.86 100.553 195.644C86.5809 187.174 72.7681 178.211 59.1001 168.727C45.6058 159.171 41.2766 140.986 41.6675 125.363C46.6917 118.08 52.9031 111.782 60.2729 106.468C72.7971 104.934 85.2923 105.455 97.6718 107.902L97.6862 107.931Z" fill="#967BB8"/>
<path d="M73.2311 44.6439C77.3575 42.197 86.3344 37.6506 90.8084 37.028C95.6588 36.3475 100.495 38.7799 105.577 36L104.867 38.8813L112.092 37.4624L111.383 40.3437C120.331 37.9691 129.757 42.53 137.966 46.0773C141.441 49.5233 138.169 51.6082 133.897 51.2173C129.597 60.31 130.987 64.0021 138.067 62.2647C139.124 64.9288 141.484 66.2463 145.162 66.2174C151.026 69.2 156.6 71.5166 162.421 74.8468C167.228 79.147 163.637 85.1992 156.745 83.4038C143.729 80.508 130.466 80.175 117.203 80.6238L116.393 79.1615C110.427 80.4211 104.809 80.0447 100.625 75.2087C96.1801 77.6557 88.5497 76.8593 90.5044 70.5321C92.1839 64.2772 84.9155 60.5851 79.3701 61.1498C77.5747 59.9336 76.6336 58.0368 76.5612 55.4596C68.2069 62.9452 66.7301 51.8254 73.5206 47.1632L73.2455 44.6439H73.2311Z" fill="#36314B"/>
<path d="M176.784 152.511C177.581 154.017 178.927 155.305 179.666 156.826C177.624 161.966 173.802 166.715 168.198 171.087C162.971 176.951 176.9 194.891 182.634 189.852C184.342 188.346 186.644 183.901 183.98 184.147C182.301 178.457 182.793 174.142 185.414 171.203C189.627 171.145 194.014 166.425 198.358 172.637C200.182 175.778 202.586 178.66 205.554 181.266C206.669 183.785 209.637 191.459 209.897 193.703C210.245 196.686 208.406 198.279 208.421 198.525C209.029 203.781 204.004 205.677 201.225 201.406C196.533 200.349 193.42 202.593 191.857 208.153C184.907 206.821 177.769 208.428 170.471 212.989C162.508 209.558 159.496 214.857 158.758 222.328C157.31 223.139 155.558 223.79 154.125 223.037C151.591 212.091 148.637 208.761 140.63 201.58C139.878 200.899 140.225 199.611 140.804 198.51C141.065 198.192 143.048 195.137 143.686 194.196C143.222 192.487 142.267 191.054 140.804 189.881V185.566C142.325 184.929 144.236 184.451 146.552 184.133C146.842 182.844 147.32 182.902 147.986 184.133C149.448 183.351 149.115 180.296 147.392 179.355L149.434 178.37C148.826 174.504 149.535 169.697 153.748 168.307C152.981 164.369 154.776 162.748 158.063 165.426C160.597 161.589 163.956 158.389 168.155 155.783C172.209 150.614 175.076 149.499 176.77 152.482L176.784 152.511Z" fill="#967BB8"/>
<path d="M73.2309 44.6436C80.398 44.6436 70.0021 53.8376 71.812 56.1398C73.9404 56.5886 72.6518 54.4747 74.3748 53.3888C75.3448 52.7662 81.368 49.9139 81.8603 50.4061C81.5418 54.1996 78.1972 54.7788 80.4414 59.0211C82.8159 59.6581 81.2667 56.4873 82.5698 56.1108C87.8835 54.605 85.2339 58.6736 86.508 60.1215C86.9714 60.6427 88.8102 60.3676 89.8961 61.0481C90.982 61.7286 90.678 65.247 94.8768 62.6842C98.0911 60.7151 97.1645 54.1562 102 54.7208C103.275 64.6678 101.653 61.5838 97.2369 64.9719C95.2388 66.5066 92.2706 69.5906 90.5042 70.5318C90.9386 74.9768 88.5351 75.8165 86.1895 71.9652C82.9897 75.5414 79.7464 75.5559 76.619 71.8493C66.4548 72.6457 52.6275 75.165 60.2868 88.529C57.5648 92.8726 57.7096 96.5937 60.7502 99.6777L58.8679 102.168C57.7675 106.28 48.9933 112.419 44.4904 113.679C42.6081 112.752 41.3919 113.186 40.972 115.315C33.3851 115.431 32.3861 111.883 37.9894 104.658C37.0627 102.356 35.3977 100.083 32.9797 97.8534C33.8919 96.42 33.1534 93.3215 37.2944 93.5097C37.9604 92.6699 35.3108 91.1352 34.4131 90.6718C30.8513 92.7423 16.5462 91.6998 20.0356 84.9237C15.663 82.3465 18.5877 79.248 22.9169 80.609C28.1872 82.1583 30.7934 82.8533 36.1216 81.7239C42.7819 88.6014 44.0126 76.555 34.7027 77.7133C34.0511 74.2528 18.8483 74.0356 16.6186 74.5569C15.33 77.3079 13.5925 78.3648 11.4062 77.7277C9.53843 77.2644 9.53843 75.3532 11.4062 71.9796C12.7962 69.8078 13.9834 68.1427 15.7209 66.2315C18.8483 65.1167 22.0916 64.1176 25.4217 63.2344L27.2171 66.2315C28.5781 63.5529 29.1283 63.4226 31.4884 64.552C36.5125 56.5162 66.2376 49.1175 54.5532 63.3647C49.4422 80.609 49.92 81.0868 55.9866 64.7981C55.5667 57.3126 57.4779 53.9535 61.7347 54.7353C65.5861 49.4795 67.8014 47.9013 73.2454 44.6725L73.2309 44.6436Z" fill="#3E3A5E"/>
<path d="M137.952 204.302C137.141 206.025 133.956 207.82 135.766 210.122C137.474 212.309 144.337 211.281 135.085 216.522C140.385 219.157 139.139 224.37 134.057 225.687C129.96 226.759 125.515 219.041 122.127 227.294L126.441 230.176C124.574 230.567 118.478 229.64 117.812 230.176C117.421 230.494 118.739 232.724 118.536 233.752C118.217 235.359 116.422 236.46 116.422 236.648C116.422 239.804 127.31 236.923 126.456 243.12C121.244 242.83 115.857 243.134 110.631 243.12C108.328 243.569 109.27 236.604 109.298 236.952C109.487 238.95 109.545 242.483 107.749 243.12C95.3119 243.091 82.8022 243.12 70.3504 243.12C66.0646 241.86 62.4449 240.47 59.8387 236.561C55.1186 238.544 49.2112 238.617 53.0916 233.057C47.7344 226.788 61.8513 220.359 66.6872 225.875C67.6573 233.071 70.2345 238.617 78.4006 237.01C76.2433 234.49 75.9537 232.217 77.5464 230.176C77.6767 226.107 84.1342 225.919 84.7424 230.176L86.3785 230.045C86.4364 227.28 90.6787 211.57 91.6343 211.759C95.9056 212.598 98.3959 212.801 102.986 212.309C103.449 212.265 103.811 211.368 104.159 210.224C109.023 211.469 114.54 210.933 120.708 208.602C125.283 207.328 134.072 203.39 137.967 204.287L137.952 204.302Z" fill="#353047"/>
<path d="M48.7761 41.7624C59.5339 34.3782 69.4809 38.3164 81.8458 37.4622L66.7589 46.0771C65.7454 47.9159 58.0137 51.97 61.7202 54.7065C59.6353 57.5588 57.3331 61.555 55.9721 64.7693C54.7993 66.4633 54.3215 65.9855 54.5387 63.3359C54.7993 62.4092 56.2762 61.1496 55.9287 59.861C54.7849 55.7055 49.2539 56.6611 53.1053 63.3214C47.0821 63.8716 53.6266 58.109 46.7057 59.0936C38.583 60.2374 34.1235 66.8832 32.1399 67.4479C30.7644 67.8388 28.6071 66.2317 27.2171 66.2027C24.8136 65.7394 25.7692 63.8282 30.0984 60.4546C31.0106 59.9189 32.0965 59.5859 32.9797 59.0212C38.8147 53.8088 44.0995 48.0607 48.8051 41.7624H48.7761Z" fill="#342F45"/>
<path d="M140.833 198.54C147.812 205.185 154.718 210.948 155.225 221.546C157.961 220.634 157.556 216.233 159.496 213.627C164.231 207.299 166.533 211.831 170.153 211.18C171.543 210.933 183.618 205.041 186.47 204.476C189.323 203.911 192.378 205.982 192.58 205.764C193.464 204.794 192.537 195.571 201.224 201.435L200.761 203.231C196.417 203.375 193.695 206.126 192.595 211.498C192.189 212.758 191.712 212.729 191.161 211.498C188.888 214.003 186.326 213.38 185.413 210.065C183.242 212.917 179.405 213.873 173.903 212.946C172.107 218.477 170.196 218.955 168.155 214.379C166.475 215.581 165.201 215.958 163.84 214.379C161.509 219.997 161.089 226.122 162.58 232.71L158.092 234.505C156.702 234.722 153.806 237.271 150.91 235.953C151.605 224.688 150.852 204.186 136.533 202.854C137.112 200.914 139.168 200.639 140.833 198.554V198.54Z" fill="#8260A6"/>
<path d="M163.84 94.9866C168.879 96.3332 171.905 98.0272 172.078 103.631C177.798 102.588 181.287 103.544 182.547 106.483C184.458 104.745 184.443 105.469 183.98 107.916C183.531 109.19 183.213 109.697 182.547 110.798C183.343 106.454 180.346 108.018 177.58 107.916C161.871 107.395 146.451 109.466 130.77 109.35C126.89 108.915 127.281 108.047 130.77 106.468C133.29 103.833 136.692 102.936 140.992 103.775C140.862 100.112 141.673 98.1286 145.162 96.4056C142.831 88.558 162.146 87.3708 163.854 94.9722L163.84 94.9866Z" fill="#F3F0F3"/>
<path d="M160.973 61.9027C163.42 67.8535 151.301 63.5533 151.49 62.9162C152.04 61.0629 153.328 62.9596 150.91 64.7695C147.971 63.3795 142.759 62.3226 139.414 61.9027C139.718 63.3071 143.888 65.5514 145.162 66.2029C136.2 71.4443 140.92 66.2174 137.083 64.8853C134.028 63.8284 130.886 65.9712 127.918 66.1884C127.049 65.2183 131.06 48.9586 132.305 47.5397C132.493 47.3225 137.083 50.4933 137.981 46.0483C149.506 51.0146 152.025 53.78 160.988 61.8737L160.973 61.9027Z" fill="#302F35"/>
<path d="M162.406 74.8462C167.213 77.5827 171.818 79.074 176.668 82.882C181.171 86.4148 189.467 93.6108 189.714 99.301C186.369 98.6494 183.719 89.9187 181.099 96.4197C180.693 97.6794 180.215 97.6504 179.665 96.4197C174.858 92.9158 169.154 90.4978 163.362 88.2536L162.406 84.909C160.09 85.9515 158.179 85.9515 156.658 84.909L145.973 83.7507C135.939 85.7198 127.035 85.1407 119.259 82.0277C115.987 84.6049 111.195 85.0827 104.882 83.4611C104.433 86.1687 103.304 85.9949 102.001 83.4611C100.741 83.0557 100.77 82.5779 102.001 82.0277C102.464 78.2198 105.707 77.3945 111.73 79.5953L116.378 79.1609C121.156 78.6541 132.638 81.5789 132.218 76.2941H133.608C133.492 77.3221 133.333 78.8134 134.592 79.1609C136.634 79.7256 158.845 82.3173 160.119 82.1291C161.567 81.9264 161.509 76.3954 162.392 74.8462H162.406Z" fill="#2A2831"/>
<path d="M31.5174 201.42C34.8765 200.769 37.0918 201.116 39.4663 203.563C42.116 201.174 53.4529 204.548 54.5243 208.602C60.6055 209.094 66.6287 209.065 72.6084 208.544C82.0487 201.087 89.0854 201.087 93.7331 208.587C95.4706 208.906 97.3238 208.949 99.0613 208.443C94.0082 203.375 93.5449 200.552 97.6858 199.987C98.0912 198.727 98.569 198.756 99.1192 199.987L103.057 201.015C105.852 207.603 110.601 208.964 117.305 205.069L120.693 207.183V208.616C117.377 209.543 113.859 211.614 109.53 212.555C105.866 213.351 94.4715 213.206 92.2128 214.64C88.2311 217.173 88.2167 232.304 87.6085 233.042C84.7562 236.561 84.9444 230.306 84.7417 230.175C80.8614 229.987 81.7446 227.511 82.8595 224.5C90.4319 210.339 86.4213 206.054 75.4608 218.433L71.7976 217.231C58.9838 215.031 46.2714 212.062 33.6458 208.327L31.5319 204.287C28.3755 205.793 20.6583 203.143 24.3359 199.973C26.7684 197.974 31.3726 196.57 31.5319 201.406L31.5174 201.42Z" fill="#12121A"/>
<path d="M11.3773 77.7277L11.6524 79.1467C13.636 75.3677 24.8716 74.7017 22.8735 80.5946C20.1226 81.0434 20.6872 83.8668 19.9922 84.9093C19.8185 85.9083 19.6737 86.5164 18.5588 86.3427C14.6496 92.5396 14.0414 95.1313 11.5076 101.618C8.97384 108.104 5.61474 95.7539 1.30004 96.3765C0.967028 95.9132 8.30781 88.9199 9.91496 89.195L5.61474 83.4614C5.74505 78.2924 9.04623 75.5849 11.3628 71.9507C11.276 73.8619 11.4932 75.8021 11.3628 77.6988L11.3773 77.7277Z" fill="#2C2D52"/>
<path d="M179.665 156.826C181.562 160.72 181.055 160.214 178.232 164.022C179.825 167.699 178.391 169.133 173.917 168.336C175.814 171.377 174.077 172.666 171.659 174.446C173.903 178.935 174.656 182.656 173.917 185.595C178.551 188.781 181.055 189.432 183.98 184.162L185.428 176.98C187.803 176.575 187.035 180.557 186.919 182.062C185.109 205.055 159.192 181.15 166.881 169.22L179.665 156.84V156.826Z" fill="#7B609A"/>
<path d="M122.126 199.987C123.531 202.984 122.879 204.852 120.693 207.183C116.132 207.994 110.572 211.295 105.837 210.137C103.941 209.674 102.927 201.03 99.1192 200.002C98.7717 196.585 104.129 197.207 104.867 200.002C107.72 201.16 119.143 201.247 112.063 200.002C111.18 196.802 122.271 196.961 122.126 200.002V199.987Z" fill="#1A263D"/>
<path d="M160.973 61.9028C165.983 66.4347 171.441 70.6481 175.351 76.2659C166.113 77.0043 158.005 68.1143 150.896 64.7697L149.462 61.9173C154.269 58.9636 157.223 64.0312 160.959 61.9028H160.973Z" fill="#2E2E45"/>
<path d="M168.154 214.364C168.748 215.725 169.848 216.131 171.354 215.74C172.455 221.285 173.251 230.335 171.036 234.505C169.602 234.447 168.154 234.707 165.288 234.505C159.728 233.013 161.407 219.374 163.854 214.364C167.373 211.483 166.591 213.872 168.169 214.364H168.154Z" fill="#977DB8"/>
<path d="M202.673 225.876C201.413 225.47 201.442 224.993 202.673 224.442L201.485 221.72C202.948 215.509 204.251 205.287 195.477 207.184C196.722 211.556 196.722 214.901 195.477 217.246C193.551 217.753 191.741 213.337 192.595 211.498C191.958 204.172 196.143 203.448 201.225 201.435C203.194 200.654 206.437 201.218 208.421 198.554C208.565 201.754 210.173 204.751 209.869 207.777C209.637 210.094 207.769 211.904 207.32 213.989C206.307 218.651 208.609 223.574 202.687 225.876H202.673Z" fill="#D9D2DC"/>
<path d="M176.784 152.511C168.951 154.162 165.563 161.126 158.092 165.456L155.211 163.819C142.122 165.05 129.322 164.428 116.798 161.952L114.945 158.26C130.249 159.954 171.282 166.628 172.484 145.315C173.932 147.762 175.438 149.92 176.799 152.511H176.784Z" fill="#CDD5E1"/>
<path d="M145.148 227.309C145.148 227.555 143.931 228.438 143.816 229.596C143.323 234.577 144.916 239.225 140.833 243.134C139.863 243.105 124.993 244.191 129.322 240.267C129.568 240.05 133.536 239.905 135.62 238.66C141.977 234.823 142.947 225.441 142.281 218.694C145.177 219.143 145.249 225.122 145.148 227.323V227.309Z" fill="#151724"/>
<path d="M173.917 212.931L176.306 214.741L176.466 230.552C178.985 230.045 181.49 229.915 183.98 230.19C186.384 230.581 187.701 231.421 185.414 233.071C176.668 236.126 179.492 234.867 171.036 234.505C170.471 227.511 173.541 219.649 166.75 215.089L168.169 214.379C172.889 215.87 170.993 213.843 173.917 212.946V212.931Z" fill="#D3C8DC"/>
<path d="M100.553 195.673C101.031 195.731 101.523 195.6 101.987 195.673C109.11 196.759 116.292 196.759 123.56 195.673C128.15 193.023 130.959 195.774 124.993 198.554C124.617 198.626 123.777 199.929 122.112 199.987C120.36 200.06 114.323 196.049 112.049 199.987C109.791 201.276 107.155 200.986 104.853 199.987H97.6573C93.8204 201.508 92.6332 198.974 94.776 195.673C94.9643 193.095 96.8755 193.095 100.524 195.673H100.553Z" fill="#AC9DBC"/>
<path d="M15.6922 66.2169C19.1961 62.3511 25.9432 53.0122 25.7695 63.3501C26.1025 63.741 29.0562 61.0625 30.0697 60.4688L27.1884 66.2169C25.6826 66.2025 23.7859 65.826 22.4394 66.2314C21.0928 66.6368 21.2955 72.5442 15.6777 66.2169H15.6922Z" fill="#1C1E33"/>
<path d="M185.413 210.05L186.572 213.207C185.963 220.214 187.469 227.092 194.043 228.742C191.045 230.219 190.119 231.406 185.413 233.057C185.095 232.116 184.139 231.044 183.98 230.176L180.823 228.511C180.519 221.373 179.911 216.87 173.917 212.917C177.435 211.831 181.765 210.238 185.428 210.036L185.413 210.05Z" fill="#D9CEE3"/>
<path d="M32.9512 59.0215C35.2967 52.2164 42.9561 45.7589 48.7766 41.7627C47.8789 44.6874 45.6057 51.4635 43.709 53.3458C41.8122 55.228 39.7562 53.505 38.6703 54.1421C36.7881 55.2425 35.2823 57.5012 32.9512 59.0215Z" fill="#2D2B35"/>
<path d="M162.407 128.071V129.504C163.044 134.441 152.604 132.979 148.652 136.715C147.16 136.787 146.943 135.441 146.581 135.267C143.483 132.878 143.483 131.444 146.581 130.952C155.5 131.951 155.138 128.896 157.6 128.187C158.381 127.955 159.887 129.041 162.407 128.085V128.071Z" fill="#8060A2"/>
<path d="M143.7 194.224C138.27 191.734 131.726 197.12 125.008 198.539C126.861 195.585 127.397 195.397 123.574 195.658C122.315 195.252 122.344 194.774 123.574 194.224C131.494 193.109 133.536 192.327 140.833 189.909C142.426 189.374 144.713 189.881 146.567 188.476C147.291 191.314 144.916 192.4 143.7 194.224Z" fill="#DDD7DF"/>
<path d="M165.288 234.505C161.987 234.273 161.828 233.926 158.092 234.505C164.028 229.09 157.831 219.288 163.84 214.365L162.349 223.631L165.288 234.505Z" fill="#DFD7E3"/>
<path d="M185.413 171.218C182.764 175.171 184.602 180.123 183.98 184.162C182.735 192.14 178.217 190.301 173.917 185.596C179.766 185.161 181.678 181.064 179.636 173.289L182.546 171.218C181.301 170.813 181.316 170.335 182.546 169.785C183.241 170.19 184.95 171.233 185.428 171.218H185.413Z" fill="#D9CFE1"/>
<path d="M195.49 217.247C197.778 217.276 198.502 220.07 196.924 221.561C199.646 221.199 201.571 222.155 202.672 224.443V225.876C199.979 226.919 198.169 226.73 194.042 228.757C193.159 228.193 192.58 227.44 192.232 226.47C191.031 223.067 187.744 212.671 191.161 211.499H192.594C192.768 213.569 194.896 215.683 195.476 217.247H195.49Z" fill="#E6DEEB"/>
<path d="M198.357 172.651C201.528 177.198 202.918 175.33 205.553 181.281L199.11 176.952L194.057 182.714L198.357 172.651Z" fill="#D4CDD8"/>
<path d="M181.099 96.4204C187.976 98.4475 185.862 102.516 183.98 107.931C184.009 107.019 182.532 106.599 182.547 106.498C177.609 102.617 176.654 99.7361 179.665 97.8683C178.391 97.5208 178.42 97.0285 179.665 96.4349H181.099V96.4204Z" fill="#D7D2D8"/>
<path d="M182.547 169.77V171.203C180.665 175.127 173.483 172.521 173.918 168.322C175.206 166.874 177.711 164.717 178.232 164.007C178.174 166.556 180.505 168.554 182.547 169.755V169.77Z" fill="#DAD5DB"/>
<path d="M173.917 120.875C170.254 124.378 169.269 126.058 163.854 128.071C163.159 124.292 170.659 122.482 173.917 120.875Z" fill="#B0ABB3"/>
<path d="M38.7137 215.798C41.1317 215.914 42.4493 217.521 42.6375 220.62C50.0072 221.387 48.8489 230.566 47.2563 236.604C47.1549 236.995 46.4454 229.987 47.8354 229.148C52.4252 226.353 54.4667 228.033 53.0912 233.057C53.8876 233.955 54.6839 236.141 55.2486 235.924L59.5633 230.176C61.9668 236.619 66.3683 238.269 70.3645 243.12C46.7205 243.12 23.2358 242.425 -0.118572 241.686C-5.05586 231.377 0.431624 228.887 5.62954 221.546C9.8284 219.259 14.6209 219.736 20.007 222.98L20.8179 217.926C16.4308 207.545 36.2089 209.905 38.7137 215.784V215.798Z" fill="#32303F"/>
<path d="M34.3985 129.505C38.163 129.823 37.8444 130.996 34.3985 132.386C31.8502 145.822 40.5809 157.565 49.5578 166.542L48.776 168.337C51.0781 180.383 43.7953 181.44 36.773 177.401C34.1958 182.309 31.4737 183.612 28.6359 181.281C24.0895 177.618 22.5113 169.35 17.1252 168.337C13.6647 167.092 13.9978 165.644 17.1252 164.022L14.6638 162.183C14.9389 152.96 13.8385 142.724 12.0142 133.356L14.2584 130.952C14.5914 130.402 15.4891 129.968 15.6918 129.519C19.1957 125.364 21.7729 127.883 24.8714 131.068C27.4631 125.537 33.0809 120.716 34.3985 129.519V129.505Z" fill="#313138"/>
<path d="M31.5177 204.302C45.012 210.441 56.6241 211.73 71.1029 212.931C75.3308 213.279 71.4504 214.857 71.7979 217.261C72.9707 221.17 71.6966 221.706 68.9166 218.694C68.4099 219.635 67.7293 220.721 66.7303 220.808C64.6888 220.996 42.594 219.273 40.1761 218.781L38.7137 215.813C35.8903 215.61 23.3372 212.671 21.4549 214.379C21.1074 214.698 23.9887 218.014 20.007 222.994L16.9809 221.72C17.4877 216.088 16.0833 212.193 12.811 210.05C13.173 208.414 14.896 207.994 15.6923 207.169C15.3448 199.075 23.12 201.435 28.1297 204.722L31.5032 204.288L31.5177 204.302Z" fill="#252A45"/>
<path d="M54.5385 169.77C57.579 171.03 62.2991 174.027 63.1679 176.966C66.9034 180.238 64.1524 181.643 54.9149 181.179C54.2489 188.94 43.9544 185.364 38.6986 182.902C37.8878 186.87 34.5142 188.013 28.5923 186.305L22.8877 187.029C31.0537 191.155 20.0208 194.095 17.1396 188.462C15.6772 189.563 13.2737 189.563 9.94356 188.462C8.71286 189.78 7.88756 188.636 7.06227 187.029C7.06227 186.638 4.65878 183.699 5.62886 182.729C7.13466 181.223 11.1453 187.854 15.7061 184.9C17.0961 184.003 17.878 180.18 19.3693 179.833C21.5556 179.341 21.4687 183.872 28.6503 181.266C33.1097 179.659 35.2092 175.866 38.0036 175.446C41.0297 174.997 39.466 179.558 42.2893 178.371C42.8251 178.153 47.1108 173.853 47.328 173.332L44.4756 169.77C45.967 170.06 47.8203 168.351 48.7759 168.308C49.3695 165.18 52.9603 167.888 54.524 169.741L54.5385 169.77Z" fill="#312F48"/>
<path d="M25.7694 110.812C33.863 110.682 35.6295 111.334 35.3399 119.977C37.7434 117.921 39.8138 117.748 41.5947 119.442C47.0388 121.092 38.9017 131.488 34.3988 129.505C27.2317 124.379 29.3456 131.083 28.39 132.024C23.9595 136.324 21.8311 132.024 20.1226 130.388C18.7471 129.07 16.3581 131.72 15.7065 129.519C18.7905 123.004 22.2655 117.082 25.7694 110.827V110.812Z" fill="#333040"/>
<path d="M14.2586 130.938C17.1254 138.698 17.3281 155.132 17.1399 164.022C13.5346 173.824 2.21217 168.554 11.4497 159.287C10.0742 158.607 10.0597 157.304 11.3918 155.393C6.65718 149.92 5.28168 142.666 7.27977 133.645L5.64366 128.057C5.6147 127.579 5.70157 127.086 5.64366 126.623C4.99211 126.247 5.03554 125.754 5.64366 125.19C10.7547 119.746 12.3039 125.581 14.2731 130.938H14.2586Z" fill="#1E2338"/>
<path d="M32.951 97.8682C39.7127 99.678 41.9135 101.343 38.6268 108.307C37.7435 110.19 32.285 108.452 40.1326 113.694C39.51 106.773 43.0862 108.076 44.4617 113.694C44.8816 115.503 43.926 117.415 41.5804 119.442C33.4578 125.508 31.9375 124.669 32.2705 113.679L25.755 110.812C25.9578 110.45 25.5523 109.741 25.755 109.379C30.6344 107.945 32.0678 106.034 30.0697 103.631C30.9819 102.082 31.4018 100.315 32.951 97.8826V97.8682Z" fill="#3B324B"/>
<path d="M12.8251 210.05C14.7508 209.602 16.5751 208.718 18.5732 208.603L20.0211 222.995C19.0076 224.254 18.7614 226.31 16.4158 225.905C15.605 220.852 8.75652 225.152 5.62909 221.547C5.38295 221.257 3.10977 214.901 3.38487 214.322C4.93411 210.977 9.91483 210.716 12.8251 210.05Z" fill="#373357"/>
<path d="M5.62925 151.078C7.19297 149.862 9.11865 151.31 11.3774 155.393C11.5656 156.03 13.8677 157.159 13.8388 158.94C13.7808 161.778 9.35032 163.646 9.95843 166.889L17.1399 164.022C17.111 165.397 18.1245 165.137 17.1399 168.337C16.1554 171.537 14.8957 174.78 12.1013 176.966L10.6968 169.799L1.34351 178.414C4.29719 169.625 5.09353 160.373 5.64373 151.092L5.62925 151.078Z" fill="#2A2D4E"/>
<path d="M20.0069 84.9243C19.0658 90.1222 26.0012 87.0961 29.1141 87.8346C30.0987 88.0662 30.0987 90.1222 30.3883 90.2091C31.4597 90.5566 31.8072 89.2969 34.3844 90.6724C29.3023 95.436 27.4491 102.473 22.8737 107.931L17.2415 102.386C18.8197 98.1869 19.1527 95.103 18.559 90.6724C18.8631 89.5286 18.3418 87.6898 18.559 86.3577C18.9065 85.8075 19.6594 85.4311 19.9924 84.9243H20.0069Z" fill="#363149"/>
<path d="M24.3214 199.987C25.2336 203.477 29.2153 203.259 31.5174 204.302C27.333 210.325 23.4382 199.147 15.692 207.183L7.06263 208.617C9.39373 204.881 5.81745 202.014 5.61475 200.002C8.40917 197.077 13.2017 196.599 19.9923 198.568C21.527 197.859 23.279 198.641 24.307 200.002L24.3214 199.987Z" fill="#2C3053"/>
<path d="M11.3774 155.392L5.6438 164.022C5.88994 159.722 12.1593 154.321 5.6438 151.078C6.04921 144.142 6.1216 134.963 5.6438 128.071C11.8408 134.253 6.70076 138.785 7.06273 143.085C7.12064 143.737 10.5956 152.786 11.3919 155.407L11.3774 155.392Z" fill="#403F72"/>
<path d="M20.0066 198.539C15.9815 201.754 10.2334 200.205 5.62912 199.973C5.45538 198.134 5.61464 196.093 5.62912 194.225C1.76327 191.836 2.50169 188.187 7.06253 188.477C11.2759 190.953 17.1398 194.572 20.0066 198.539Z" fill="#3A3C6C"/>
<path d="M18.5732 90.6719C24.9295 97.5349 19.6736 98.4325 19.9343 102.878C19.9487 103.196 25.5665 105.107 22.8879 107.931C18.6891 112.187 15.634 108.047 14.2585 103.616C14.997 97.6941 17.386 94.9866 18.5732 90.6719Z" fill="#3C385F"/>
<path d="M2.73374 143.882C1.87949 146.836 5.87565 159.49 0.590869 159.693C-3.21707 159.838 0.286813 146.56 -1.552 143.896H2.73374V143.882Z" fill="#2D2C4E"/>
<path d="M7.06281 187.029C7.7578 187.391 7.69988 187.883 7.06281 188.462C7.03385 188.983 5.64388 191.083 5.6294 194.21L-1.55211 197.077C-3.60811 190.228 2.66124 190.228 1.32918 184.133C3.02321 185.653 5.26743 186.058 7.06281 187.014V187.029Z" fill="#2E2E52"/>
<path d="M22.888 107.93C20.3108 111.014 17.9507 113.36 14.2731 115.126C15.5038 110.812 13.7519 107.641 14.2731 103.616C16.5463 103.92 21.6284 109.277 22.9025 107.93H22.888Z" fill="#342F47"/>
<path d="M30.084 103.616H35.8321C37.8157 105.541 29.1573 113.244 25.7693 109.364C27.0145 107.12 29.0415 105.382 30.084 103.616Z" fill="#333040"/>
<path d="M5.62946 125.189C5.73081 125.609 5.57155 126.13 5.62946 126.623C-9.44303 118.891 2.76265 112.911 5.62946 125.189Z" fill="#3B3C68"/>
<path d="M107.749 243.134V233.072C112.99 231.812 109.877 239.558 110.63 243.134C109.675 243.134 108.719 243.134 107.749 243.134Z" fill="#15141F"/>
<path d="M89.0566 151.077L106.315 156.826C109.414 157.361 111.368 157.868 114.945 158.259C129.206 163.833 145.886 160.025 160.959 161.155L158.092 165.455C156.745 166.237 154.993 167.931 153.777 168.336C151.258 170.841 149.347 173.722 148.029 176.966C141.948 177.472 135.707 177.95 129.337 178.399C128.729 179.731 127.585 179.413 126.455 178.399C115.886 178.804 104.679 176.401 94.8191 172.651C90.9533 172.767 83.4967 171.695 81.8751 168.336C74.1578 165.18 68.1491 160.141 62.4299 154.48C62.3575 154.408 64.0081 154.205 61.735 155.392C59.1288 151.874 55.1326 147.849 60.9097 143.78C69.1916 137.945 81.1945 147.356 89.0566 151.077Z" fill="#55C1EE"/>
<path d="M60.287 105.05C61.5466 105.455 61.5177 105.933 60.287 106.483C57.8401 111.406 45.3303 121.556 44.4905 125.943C43.2888 132.198 47.3718 148.631 50.3979 154.495C60.1132 173.361 86.7978 180.311 100.567 195.659C98.6994 195.427 96.7013 195.818 94.8191 195.659C91.7206 198.482 87.8258 195.224 89.071 191.344C77.3576 184.93 64.761 177.502 54.5534 168.337C42.1015 163.515 32.0387 146.068 34.4133 132.386C34.4277 131.488 34.2106 130.127 34.4133 129.505C34.9779 127.782 39.5822 124.307 40.8129 122.236C41.421 121.223 41.3197 119.847 41.5948 119.442C46.4307 113.448 52.9752 106.831 60.287 105.064V105.05Z" fill="#815FA7"/>
<path d="M73.2313 165.456C80.2101 169.148 87.3916 172.014 94.8048 174.085C105.374 175.793 115.929 177.705 126.441 179.833C129.221 179.167 147.435 178.458 148.333 179.239C149.115 179.92 149.072 183.467 148.015 184.162C147.595 184.061 147.073 184.206 146.581 184.162C138.98 184.64 131.306 185.118 123.574 185.596C111.875 184.495 75.3307 174.201 67.4252 166.093C65.0652 163.675 67.5411 162.806 67.4831 162.574C69.3654 160.069 73.3616 162.734 73.2313 165.456Z" fill="#8260A7"/>
<path d="M103.434 93.5531L112.831 97.0425C113.497 101.603 115.64 104.76 119.245 106.497C119.318 108.408 115.495 108.264 113.497 107.931C108.241 107.8 102.928 108.119 97.6718 107.931C96.3252 106.743 92.9951 106.295 87.6669 106.584L87.609 105.049C80.9197 100.387 90.8812 94.7549 96.2384 93.5386C97.3098 90.9759 102.073 91.251 103.434 93.5386V93.5531Z" fill="#F4F2F4"/>
<path d="M76.1126 116.561C79.573 119.268 83.4099 121.179 87.6233 122.309C88.5934 122.511 89.4332 123.511 91.938 123.742C97.5558 122.83 103.825 122.309 109.197 123.742C113.989 121.527 118.145 122.729 112.078 126.623C110.225 128.679 106.533 130.576 104.882 128.057C93.9071 126.551 80.9341 126.508 73.2458 117.256C73.1734 116.054 75.2004 116.401 76.1126 116.546V116.561Z" fill="#7F60A2"/>
<path d="M76.1122 103.616C81.9616 100.503 85.7985 100.981 87.6229 105.049C87.8835 105.064 88.7088 106.381 89.8816 106.439C93.733 106.613 98.6413 102.298 97.6857 107.931C85.2049 107.482 72.7531 106.845 60.2868 106.497V105.064C59.8814 103.703 60.3592 103.225 61.7202 103.63C66.0928 104.166 70.4944 103.732 74.896 102.298L76.0977 103.63L76.1122 103.616Z" fill="#EDE9EE"/>
<path d="M109.182 122.308C111.991 122.076 122.981 120.643 124.675 119.832C128.063 118.196 127.136 116.14 128.613 113.664C132.088 113.027 130.843 116.314 130.162 118.138C128.743 121.946 126.977 121.381 123.574 122.308C119.795 125.103 115.958 126.536 112.063 126.623C112.44 125.754 113.873 124.06 113.497 123.756C112.063 123.669 110.616 123.814 109.182 123.756C107.923 123.351 107.952 122.873 109.182 122.323V122.308Z" fill="#C2B7CC"/>
<path d="M81.8607 168.337C79.2255 169.206 76.3442 168.235 73.2313 165.456C71.2621 164.659 69.4378 163.428 67.4832 162.574C67.0343 160.967 63.2408 157.405 61.735 155.378C61.4744 150.499 62.4445 152.859 64.6019 154.669C70.2776 159.418 76.0402 163.79 81.8607 168.322V168.337Z" fill="#3CA7DA"/>
<path d="M130.756 106.497C130.567 107.337 130.886 108.452 130.756 109.379C124.675 109.335 118.145 108.061 113.497 107.945C115.799 109.075 118.318 106.628 119.245 106.512C119.925 101.893 129.438 102.27 130.756 106.512V106.497Z" fill="#C0BAC4"/>
<path d="M123.574 194.225V195.658C119.737 197.975 111.759 197.468 106.866 197.207C104.115 197.048 102.754 195.774 102.001 195.658C109.284 196.194 116.407 195.224 123.574 194.225Z" fill="#B8ABC2"/>
<path d="M112.064 126.623C113.034 127.463 112.556 128.418 110.63 129.504C106.431 131.271 102.551 133.993 97.7007 133.805C98.4246 132.473 104.086 128.389 104.882 128.071C107.17 127.144 110.355 127.304 112.078 126.638L112.064 126.623Z" fill="#CFC4D5"/>
<path d="M146.581 184.162C145.582 186.319 142.715 185.552 140.833 185.595C135.447 185.726 128.786 186.088 123.574 185.595C129.597 183.38 139.863 183.597 146.581 184.162Z" fill="#6C5289"/>
<path d="M106.316 156.826C97.9179 155.378 96.3542 154.524 89.0569 151.078L106.316 156.826Z" fill="#C7D4E2"/>
<path d="M146.581 130.937V135.252C142.599 133.24 136.648 129.924 133.637 126.637C138.661 127.694 140.977 130.315 146.581 130.937Z" fill="#E2DDE5"/>
<path d="M123.574 122.308C120.186 126.449 115.176 127.578 110.63 129.504C111.064 128.534 111.643 127.607 112.063 126.623C117.363 124.552 117.971 123.828 123.574 122.308Z" fill="#8164A1"/>
<path d="M76.1123 116.56C80.2533 117.212 84.1046 121.497 89.0564 120.889L87.623 122.308C83.0477 121.338 78.6606 122.323 76.1123 116.56Z" fill="#DAD3E0"/>
<path d="M109.182 122.308V123.741C103.55 123.48 97.4106 124.262 91.9231 123.741C96.3247 120.758 103.637 122.757 109.182 122.308Z" fill="#F0EDF1"/>
<path d="M116.378 79.1611C112.483 79.5665 105.982 81.4633 102.001 82.0424C96.8462 83.3021 92.0537 84.2577 87.6232 84.9237C91.3443 89.2529 74.1434 97.9547 70.3644 94.9865H68.931C66.7302 93.7558 66.7736 91.613 69.0323 88.5579C54.1915 89.6004 68.2215 68.9246 76.6337 71.8204C80.7457 74.0935 83.9311 74.137 86.1898 71.9651C87.768 72.0375 89.1724 71.2412 90.5045 70.5317C95.4418 76.6997 99.38 71.8348 101.103 72.0955C102.609 72.3126 110.442 81.9411 116.393 79.1611H116.378Z" fill="#312F3E"/>
<path d="M153.777 168.337C151.909 170.827 150.042 175.504 149.462 178.4C149.057 179.659 148.579 179.63 148.029 178.4C146.769 177.994 146.798 177.517 148.029 176.966L149.462 171.218C144.931 171.073 140.326 171.392 135.794 171.218C134.057 171.146 130.452 172.304 130.785 169.799C138.502 169.495 146.335 170.798 153.792 168.351L153.777 168.337Z" fill="#C4DFEF"/>
<path d="M129.322 178.4C135.447 177.314 142.02 177.111 148.014 178.4H149.448C149.028 180.485 149.766 183.337 149.433 185.596C148.246 185.958 148.116 184.177 148.014 184.162C148.188 179.138 148.898 180.195 144.481 179.848C138.56 179.384 132.334 180.326 126.426 179.848C125.167 179.442 125.196 178.965 126.426 178.414C127.382 178.487 128.352 178.356 129.308 178.414L129.322 178.4Z" fill="#F7F7FA"/>
<path d="M86.1753 71.9655L87.6232 75.5996C82.6859 73.6016 83.4533 78.0176 79.0083 79.147C77.7197 65.421 71.3779 74.7599 67.3383 80.8699C66.513 82.1296 61.6047 82.9694 66.0352 85.6625C67.9175 86.8063 71.4503 83.4906 73.2457 87.0814L68.931 94.9579C65.6877 99.0699 62.3431 101.459 58.8682 102.154C59.7224 98.5342 53.1925 96.898 53.1346 95.6818C53.1201 95.2619 57.2176 91.9608 57.4203 88.37C57.6954 83.8092 52.4975 81.2319 55.8566 76.8738C56.8122 75.6286 66.8316 69.3737 68.598 69.3158C71.5951 69.2145 72.7389 71.1691 73.9262 71.227C77.8789 71.4442 82.4108 71.7627 86.1753 71.9365V71.9655Z" fill="#35314A"/>
<path d="M11.3776 77.7279L14.896 70.8794C19.9491 73.6449 29.0418 71.0966 33.3855 71.9798C34.4859 72.197 35.065 76.1931 38.0043 75.7588C39.4811 75.5416 40.596 72.6893 43.0139 73.4132C43.2746 78.1767 43.318 81.4924 45.9097 85.6189L41.595 84.9239L43.0139 90.672L33.6461 83.476C32.676 83.2299 33.0814 86.5166 32.2996 86.3718C31.6046 86.2415 23.4675 83.5339 23.1055 83.2009C22.454 82.5928 23.1055 81.058 22.8883 80.6092C21.1074 77.0908 13.4481 81.7096 9.92974 79.1468C9.72704 78.1333 11.3631 77.8727 11.3776 77.7424V77.7279Z" fill="#454374"/>
<path d="M70.3499 94.9865C72.348 98.7075 67.8306 99.8948 64.6018 100.735C64.6018 101.705 64.1385 102.182 63.1684 102.168C63.5738 103.529 63.096 104.007 61.735 103.601C61.1993 104.007 60.8083 104.644 60.3016 105.035C54.3653 109.625 47.8642 114.75 41.6094 119.412C42.4926 118.124 42.6808 115.72 44.4907 113.664C47.1837 110.58 55.596 104.731 58.8682 102.154C62.1404 99.5763 64.9638 96.4633 68.931 94.9575H70.3644L70.3499 94.9865Z" fill="#1B1725"/>
<path d="M55.9723 64.7835C53.5544 70.4737 52.2223 77.8 49.8478 83.8377C49.2542 85.358 49.4279 88.1234 47.3574 87.7904C48.342 79.4216 52.2947 71.5162 54.5389 63.3501L55.9723 64.7835Z" fill="#211F34"/>
<path d="M68.9164 218.68L72.0438 218.347C73.7233 222.618 75.5477 226.556 77.5458 230.19C78.6027 231.479 83.7427 239.877 83.2939 240.253C73.7089 238.791 70.9868 243.105 65.3401 232.999C64.3555 231.233 64.8623 227.758 64.5148 227.41C61.952 224.819 53.5398 228.308 53.0765 233.086C51.8892 231.74 51.368 228.467 49.4857 231.667C47.2849 235.446 49.9925 239.761 45.895 241.716C45.2434 236.402 48.6025 230.118 41.5658 231.638C42.5504 228.757 46.59 227.816 45.8805 224.486C38.8727 223.718 39.8138 221.3 38.699 215.842C43.7521 216.204 66.8893 216.624 68.9019 218.723L68.9164 218.68Z" fill="#38354E"/>
<path d="M84.7417 230.19C83.9308 229.669 79.2107 230.552 77.5457 230.19C77.3864 230.002 74.7657 229.915 73.1875 228.134C71.4211 226.136 69.9443 219.765 68.9163 218.679C70.147 218.737 71.0012 217.594 71.7976 217.246C77.9655 214.553 78.3854 207.56 85.3642 208.573C96.1655 210.137 83.8584 223.848 84.7417 230.19Z" fill="#312E3F"/>
<path d="M191.176 211.483C191.567 216.044 197.865 224.919 194.057 228.742C193.449 229.35 185.877 230.638 185.428 230.19C187.223 223.052 179.81 215.667 185.428 210.05C187.585 209.934 189.54 209.731 191.176 211.483Z" fill="#967BB8"/>
<path d="M162.406 84.9243C163.42 84.9243 178.883 91.6425 179.419 92.3954C180.215 93.4813 179.477 95.2477 179.665 96.435C179.738 96.8983 179.593 97.4051 179.665 97.8684C174.337 100.663 169.067 99.7072 163.84 94.9871C156.253 93.5103 157.035 91.1937 147.957 94.2777C146.465 94.7844 145.64 96.2178 145.133 96.4205C143.642 99.6059 142.194 100.098 140.818 97.8539C128.396 101.256 128.844 90.6579 141.427 89.8326L146.567 87.7911C145.35 87.4436 145.379 86.9658 146.567 86.3577C151.808 85.9089 157.078 85.4311 162.392 84.9243H162.406Z" fill="#8C74A5"/>
<path d="M179.666 97.8681C180.332 102.646 183.184 100.851 183.908 103.023C184.357 104.398 182.663 105.774 182.547 106.498C180.143 106.078 170.37 107.149 169.661 106.44C169.183 105.962 169.328 96.3189 163.855 94.9868C169.067 96.0003 174.453 96.8835 179.68 97.8681H179.666Z" fill="#1F2020"/>
<path d="M145.147 96.4204C143.714 98.3316 144.047 106.107 143.699 106.483C143.251 106.947 133.202 106.396 130.77 106.483C127.367 104.384 128.236 103.211 132.203 103.602C130.9 98.7515 133.767 96.8403 140.833 97.8538C142.367 97.043 143.801 96.9561 145.147 96.4204Z" fill="#101111"/>
<path d="M102 83.4762C102.956 83.4762 103.941 83.4038 104.882 83.4762L117.811 84.5911C129.119 91.0052 131.045 94.4657 123.574 94.9725C127.295 95.7109 127.179 96.6086 123.574 97.8537L120.548 99.7215C114.742 97.9551 109.037 95.8991 103.434 93.539C101.19 90.9328 95.6008 91.9753 90.4898 93.539C90.8228 96.5796 84.872 102.719 81.8604 99.2872C80.4125 99.5333 78.6171 99.6346 77.5457 97.8537C73.9983 100.634 68.7136 102.806 64.6016 100.735C66.701 99.1279 69.1479 95.8412 70.3497 94.9869C72.7676 93.2495 87.3913 86.5602 87.6085 84.9241C91.8218 83.6789 97.4831 82.9695 101.986 83.4907L102 83.4762Z" fill="#876CA5"/>
<path d="M156.644 84.9237C153.908 86.14 149.405 85.9083 146.581 84.9237C145.8 85.8938 145.785 86.8494 146.581 87.805C143.642 92.2211 137.257 91.4537 133.637 95.725L140.819 97.8823C137.764 99.504 134.463 100.517 132.189 103.63C128.237 105.455 123.647 102.052 123.56 97.8823C123.748 97.0425 123.285 95.4933 123.56 95.001C129.323 94.2337 130.249 92.7134 126.325 90.4402C119.173 87.2983 116.813 84.5039 119.245 82.0569C131.321 81.5791 145.22 81.0145 156.644 84.9382V84.9237Z" fill="#8260A6"/>
<path d="M119.259 82.0425C119.462 87.3273 139.313 94.668 123.574 94.9866C124.501 93.3649 126.311 93.5677 127.889 93.5387C130.669 90.9759 106.938 83.6496 104.867 83.4904C109.718 82.8823 114.322 82.2452 119.245 82.057L119.259 82.0425Z" fill="#D1C6DA"/>
<path d="M102.001 82.0425V83.4759C97.5847 83.4759 92.5171 85.9952 87.6233 84.9093C87.6233 84.8079 86.2622 84.2288 86.1609 83.5048C91.214 82.7809 97.0924 82.7375 102.001 82.0425Z" fill="#18161E"/>
<path d="M156.644 84.9239H162.392C162.204 84.9239 160.756 86.3573 158.903 86.4007C154.791 86.5021 150.664 86.2704 146.567 86.3573C145.307 85.9519 145.336 85.4741 146.567 84.9239C149.651 84.5909 153.415 84.9239 156.63 84.9239H156.644Z" fill="#DFD8E0"/>
<path d="M34.399 192.791C36.0351 190.576 38.3083 190.504 41.2186 192.545C43.4194 185.943 49.0951 185.943 54.8866 187.593C52.3094 185.726 54.626 179.442 55.5382 179.21C56.6965 178.906 65.8906 180.745 66.4263 183.597C70.1329 183.872 73.8395 184.538 77.546 185.595C81.0499 187.724 84.8868 189.635 89.0567 191.343C90.6784 192.646 93.5162 194.254 94.8048 195.658C95.8618 196.802 96.745 198.626 97.6861 199.973C97.7296 200.031 96.6871 200.697 97.107 201.392C98.0626 202.941 104.983 210.137 103.434 211.483C100.148 211.15 95.8908 212.251 92.8357 211.252C90.939 210.644 90.8087 207.936 89.4911 207.111C82.0634 202.347 78.1397 210.948 72.3771 211.498C67.1647 211.99 59.3751 209.514 54.5247 208.617L54.9445 206.083C47.763 204.664 42.3479 201.667 38.6993 197.106C34.9927 201.421 25.2194 193.052 25.6683 190.967C26.1606 188.708 35.5429 188.824 34.3846 192.791H34.399Z" fill="#312E3E"/>
<path d="M38.7136 197.106C40.6682 197.874 66.846 207.024 64.6018 208.603H54.539C44.2445 206.72 40.5234 204.635 31.5321 201.421C30.0407 196.904 35.2097 196.585 38.1923 198.627C41.508 200.885 33.2261 201.407 38.7136 197.106Z" fill="#3C3757"/>
<path d="M22.8881 187.029C26.5078 185.828 36.8746 185.524 38.0619 188.39C39.3505 191.503 37.7434 193.299 34.3988 192.777C32.9943 192.387 27.1883 189.766 27.2172 192.763C31.17 193.834 34.92 195.586 38.7135 197.092L40.1324 202.84H38.7279C39.4229 198.164 34.5435 199.771 31.5175 201.407C29.2732 200.61 25.8128 200.596 24.3215 199.973C23.1342 199.611 23.1632 199.134 24.3215 198.54C24.1477 196.122 22.2365 194.689 18.5734 194.225C17.3427 196.267 15.4314 194.993 15.6921 192.792C12.8832 189.824 12.7529 188.535 17.1255 188.477C19.5145 188.955 21.9035 189.52 24.307 189.896C24.9296 189.505 22.917 187.652 22.8736 187.029H22.8881Z" fill="#3F3C66"/>
<path d="M182.547 171.218C182.127 179.384 185.804 190.62 173.917 185.596C170.254 181.6 169.472 178.573 168.386 173.289C170.384 171.913 172.31 170.147 173.917 168.337L182.547 171.218Z" fill="#967BB8"/>
<path d="M112.063 199.988C114.452 200.06 116.87 199.915 119.245 200.002C119.477 202.522 114.481 201.45 112.758 201.45C110.34 201.45 106.359 202.362 104.867 199.988C107.256 199.988 109.674 199.915 112.063 199.988Z" fill="#030303"/>
<path d="M195.49 207.169C195.809 205.822 196.518 204.997 197.85 204.519C206.016 201.609 207.435 219.577 202.672 224.427C195.852 225.007 198.125 224.674 196.924 221.546C197.17 217.304 196.678 212.497 195.49 207.169Z" fill="#977CB8"/>
<path d="M195.491 207.168C196.171 211.179 202.802 226.671 196.924 221.546C196.374 220.098 196.012 218.65 195.491 217.231C195.94 214.22 194.854 209.847 195.491 207.168Z" fill="#8260A6"/>
<path d="M183.98 230.191C183.575 233.97 174.511 233.666 173.903 233.072C173.179 232.362 172.672 213.772 173.903 212.932C183.994 211.223 182.648 223.125 183.965 230.191H183.98Z" fill="#987DB9"/>
<path d="M54.5392 168.337V169.77C53.7284 169.336 49.6743 168.308 48.7911 168.337C40.9291 158.694 29.4184 145.779 34.4136 132.386C34.0806 148.356 42.8258 159.447 54.5537 168.337H54.5392Z" fill="#1B1621"/>
<path d="M22.8883 187.029C22.6277 182.873 33.6896 185.798 34.1963 185.465C34.6162 185.19 37.0487 179.717 37.2948 178.399C42.5651 182.395 54.9156 186.942 54.5391 176.966C57.9706 179.239 60.6637 182.337 63.154 176.966C68.323 178.008 74.129 181.541 77.5315 185.595C75.6927 186.725 67.5701 186.782 65.9195 186.421C62.3577 185.624 62.126 179.196 55.9725 181.295C55.292 186.131 59.9542 186.913 61.7062 189.895C56.5951 193.501 47.5313 185.841 44.4618 192.082C42.9126 195.253 47.9947 193.182 47.3142 195.644C41.9425 197.352 38.0332 193.805 34.3701 192.777C39.4811 185.349 27.7532 189.07 22.8594 187.029H22.8883Z" fill="#3B3657"/>
<path d="M89.0564 191.358C84.6114 194.254 80.5284 187.579 77.5457 185.61C72.8691 182.526 67.9028 179.934 63.1682 176.98C60.7068 175.446 56.2039 170.682 54.5388 169.784V168.351C65.4993 176.662 78.2552 182.714 89.0564 191.358Z" fill="#1F1829"/>
<path d="M9.94404 188.477C12.7819 187.492 16.4595 189.621 15.6921 192.792C16.7491 193.516 17.9508 193.805 18.5734 194.225C21.5995 193.125 24.8283 195.238 24.3215 198.54C24.2202 198.713 24.2492 199.712 24.3215 199.973C23.0908 199.452 21.5561 199.235 20.0068 198.54C16.0252 196.759 9.6255 191.981 7.06274 188.477C7.0917 187.999 7.06274 187.521 7.06274 187.043C8.00387 187.536 9.01739 187.941 9.94404 188.477Z" fill="#11101F"/>
<path d="M17.1403 188.477L15.7068 192.791C13.8246 191.488 11.5659 189.432 9.95874 188.477C11.6383 185.161 15.1132 188.071 17.1547 188.477H17.1403Z" fill="#48457B"/>
<path d="M126.441 178.399V179.833C114.887 178.921 105.736 176.821 94.8048 174.085C93.5451 173.679 93.5741 173.202 94.8048 172.651C105.114 175.315 115.828 177.632 126.441 178.399Z" fill="#C4CBE3"/>
<path d="M133.637 166.917L118.651 169.813C117.565 164.369 112.179 168.973 110.645 165.484L133.637 166.917Z" fill="#39A4D8"/>
<path d="M81.8604 168.336C86.8121 170.161 89.4183 171.261 94.8045 172.651V174.084C87.5795 172.275 78.2841 172.115 73.231 165.455C75.9819 166.57 79.0659 167.308 81.8604 168.336Z" fill="#C9CFE5"/>
<path d="M148.014 176.966V178.4C141.818 178.168 135.505 178.733 129.322 178.4C134.187 175.214 142.093 177.705 148.014 176.966Z" fill="#3AA5D8"/>
<path d="M123.574 97.8684C127.542 99.5769 128.99 100.996 132.204 103.617C131.784 104.196 130.901 105.875 130.77 106.498C127.078 106.643 122.735 106.034 119.26 106.498C108.444 108.395 113.975 103.095 109.921 97.8539C108.053 95.4215 105.23 95.5373 103.434 93.5537C111.354 94.1908 116.074 94.6251 123.574 97.8684Z" fill="#0C0D0C"/>
<path d="M96.2382 93.5529C92.8646 96.9554 87.0296 99.2865 87.6088 105.064C83.9746 104.803 78.212 103.674 76.0981 103.63C75.8954 101.053 79.2689 97.7083 81.8462 99.3155C84.4669 97.5201 87.8259 95.0732 90.4756 93.5674C93.4293 92.1195 95.3405 92.1195 96.2237 93.5674L96.2382 93.5529Z" fill="#1F2020"/>
<path d="M90.49 93.5532C94.5875 91.2222 95.5286 89.8611 101.349 90.5706C105.128 91.0339 102.884 92.9451 103.434 93.5532C100.249 93.2926 99.3221 93.3071 96.2381 93.5532C94.3414 93.698 92.3867 93.4519 90.49 93.5532Z" fill="#B8B2BA"/>
<path d="M81.8605 99.301C79.8769 100.662 78.1394 102.327 76.1124 103.616C73.1587 103.543 65.2677 107.8 61.7349 103.616C62.2561 103.21 62.647 102.588 63.1683 102.182C68.6702 102.124 73.4627 100.676 77.5458 97.8676C79.5294 97.3753 80.4705 95.4641 81.8605 99.301Z" fill="#8B6EAA"/>
<path d="M77.546 97.8682C74.7515 103.196 68.1926 102.255 63.1685 102.183C63.6897 101.777 64.0806 101.155 64.6019 100.749C69.4957 101.705 73.1154 98.9686 77.546 97.8682Z" fill="#E1DCE5"/>
<path d="M146.581 84.9237V86.3571C146.465 86.8349 146.769 87.5154 146.581 87.7905L135.07 89.2094C136.446 86.0964 143.468 85.2422 146.581 84.9092V84.9237Z" fill="#B6A8C0"/>
<path d="M104.867 87.8048C104.737 90.9757 90.6925 89.4988 94.819 86.3569L104.867 87.8048Z" fill="#A295AC"/>
<path d="M18.5732 194.224C20.6582 190.619 31.4594 194.152 28.6361 197.091C28.4768 197.251 25.3928 196.686 24.3214 198.539C21.4256 198.25 20.0501 195.267 18.5732 194.224Z" fill="#49467D"/>
</g>
</g>
<defs>
<clipPath id="clip0_7589_52136">
<rect width="240" height="240" fill="white"/>
</clipPath>
</defs>
</svg>
