<svg width="200" height="200" viewBox="0 0 200 200" fill="none" xmlns="http://www.w3.org/2000/svg">
<rect width="200" height="200" rx="100" fill="black"/>
<path d="M108.451 103.428C114.508 98.8303 123.178 98.1216 130.095 101.046C135.574 103.36 139.979 107.952 142.231 113.435C143.305 116.052 143.826 118.825 143.826 121.593H143.832C143.831 125.377 142.841 129.145 140.933 132.486C138.681 136.427 135.272 139.7 131.206 141.722C128.239 143.198 124.944 144 121.624 144H76.9019C71.715 143.63 66.6322 141.461 62.6704 137.495C58.297 133.122 56.108 127.388 56.1079 121.655V112.174C56.5874 112.726 57.0877 113.269 57.6089 113.79C66.3614 122.541 80.5716 125.063 91.5552 119.179C95.0739 117.292 97.9728 114.832 100.569 111.814C103.071 108.906 105.37 105.768 108.451 103.428ZM64.3804 61.1072C63.4161 61.8946 63.7967 66.4762 63.8696 67.6854C64.0208 70.0673 64.5317 72.4233 65.3813 74.6541C67.013 78.9542 69.8908 82.7276 73.644 85.3963C80.9682 90.5982 91.0079 91.1298 98.8013 86.6473C102.871 84.3064 108.31 78.8534 112.694 76.6277C116.869 74.5065 120.935 73.4313 125.564 74.1453C130.193 74.8594 134.74 76.8615 138.086 80.2078C142.46 84.581 144.024 91.1149 144.024 96.8484L144.029 96.8426V102.671C138.128 95.4934 129.284 90.8106 120.093 91.4412C116.126 91.7123 112.212 92.9011 108.683 94.741C99.4899 98.9082 93.4741 111.677 77.8257 111.678C70.4132 111.678 60.4231 107.086 57.0513 95.7068C55.4405 90.2705 56.1079 84.1147 56.1079 78.4959C56.1079 78.4959 56.3159 74.951 56.7329 73.2205C57.8745 68.493 60.6115 64.1773 64.3804 61.1072ZM115.269 56.0018C120.581 55.9861 126.066 56.0018 130.945 58.0867C135.058 59.8381 138.513 63.0181 140.792 66.8699C142.731 70.1433 143.878 73.9591 143.982 77.7693C142.163 75.9346 140.369 74.1207 138.19 72.6561C127.842 65.6924 115.269 66.8475 103.167 75.1922C95.3603 80.5745 86.2143 77.2507 82.7476 74.3475C79.4113 71.5537 77.4297 67.4985 76.8667 63.2244C76.6425 61.5252 75.9814 56.1509 78.812 56.1404C91.4063 56.0935 102.675 56.0487 115.269 56.0018Z" fill="url(#paint0_radial_15824_22317)"/>
<path d="M108.451 103.428C114.508 98.8303 123.178 98.1216 130.095 101.046C135.574 103.36 139.979 107.952 142.231 113.435C143.305 116.052 143.826 118.825 143.826 121.593H143.832C143.831 125.377 142.841 129.145 140.933 132.486C138.681 136.427 135.272 139.7 131.206 141.722C128.239 143.198 124.944 144 121.624 144H76.9019C71.715 143.63 66.6322 141.461 62.6704 137.495C58.297 133.122 56.108 127.388 56.1079 121.655V112.174C56.5874 112.726 57.0877 113.269 57.6089 113.79C66.3614 122.541 80.5716 125.063 91.5552 119.179C95.0739 117.292 97.9728 114.832 100.569 111.814C103.071 108.906 105.37 105.768 108.451 103.428ZM64.3804 61.1072C63.4161 61.8946 63.7967 66.4762 63.8696 67.6854C64.0208 70.0673 64.5317 72.4233 65.3813 74.6541C67.013 78.9542 69.8908 82.7276 73.644 85.3963C80.9682 90.5982 91.0079 91.1298 98.8013 86.6473C102.871 84.3064 108.31 78.8534 112.694 76.6277C116.869 74.5065 120.935 73.4313 125.564 74.1453C130.193 74.8594 134.74 76.8615 138.086 80.2078C142.46 84.581 144.024 91.1149 144.024 96.8484L144.029 96.8426V102.671C138.128 95.4934 129.284 90.8106 120.093 91.4412C116.126 91.7123 112.212 92.9011 108.683 94.741C99.4899 98.9082 93.4741 111.677 77.8257 111.678C70.4132 111.678 60.4231 107.086 57.0513 95.7068C55.4405 90.2705 56.1079 84.1147 56.1079 78.4959C56.1079 78.4959 56.3159 74.951 56.7329 73.2205C57.8745 68.493 60.6115 64.1773 64.3804 61.1072ZM115.269 56.0018C120.581 55.9861 126.066 56.0018 130.945 58.0867C135.058 59.8381 138.513 63.0181 140.792 66.8699C142.731 70.1433 143.878 73.9591 143.982 77.7693C142.163 75.9346 140.369 74.1207 138.19 72.6561C127.842 65.6924 115.269 66.8475 103.167 75.1922C95.3603 80.5745 86.2143 77.2507 82.7476 74.3475C79.4113 71.5537 77.4297 67.4985 76.8667 63.2244C76.6425 61.5252 75.9814 56.1509 78.812 56.1404C91.4063 56.0935 102.675 56.0487 115.269 56.0018Z" fill="url(#paint1_radial_15824_22317)"/>
<defs>
<radialGradient id="paint0_radial_15824_22317" cx="0" cy="0" r="1" gradientUnits="userSpaceOnUse" gradientTransform="translate(135.073 62.4113) rotate(131.783) scale(105.729 96.4417)">
<stop stop-color="#00AEFF"/>
<stop offset="1" stop-color="#0032BC"/>
</radialGradient>
<radialGradient id="paint1_radial_15824_22317" cx="0" cy="0" r="1" gradientUnits="userSpaceOnUse" gradientTransform="translate(122.243 55.9998) rotate(124.053) scale(102.896 93.8575)">
<stop stop-color="#32EEFF"/>
<stop offset="1" stop-color="#1D58FF"/>
</radialGradient>
</defs>
</svg>
