<?xml version="1.0" encoding="UTF-8" standalone="no"?>
<!DOCTYPE svg PUBLIC "-//W3C//DTD SVG 1.1//EN" "http://www.w3.org/Graphics/SVG/1.1/DTD/svg11.dtd">
<svg xmlns="http://www.w3.org/2000/svg" version="1.1" viewBox="0.00 0.00 1448.00 1448.00">
<g stroke-width="2.00" fill="none" stroke-linecap="butt">
<path stroke="#072f82" vector-effect="non-scaling-stroke" d="
  M 410.41 1101.91
  Q 408.51 1100.54 407.86 1099.58
  Q 403.87 1093.71 396.06 1085.20
  Q 377.02 1064.46 354.64 1050.03
  C 349.81 1046.91 339.76 1041.87 334.26 1043.24
  Q 331.16 1044.02 329.52 1047.53
  C 325.49 1056.16 324.81 1064.30 324.78 1074.59
  Q 324.75 1085.00 326.62 1094.69
  Q 330.28 1113.56 334.84 1129.45
  C 343.06 1158.03 359.19 1184.24 379.48 1205.78
  C 383.09 1209.61 392.91 1219.68 398.33 1216.10
  Q 402.85 1213.11 408.14 1208.39
  C 423.22 1194.95 434.02 1184.12 453.28 1164.77
  Q 466.73 1151.26 533.43 1079.93
  Q 536.44 1076.71 538.13 1075.19
  A 1.31 1.31 0.0 0 1 539.57 1074.99
  Q 555.06 1082.64 561.92 1085.88
  Q 578.61 1093.74 597.52 1099.94
  Q 636.37 1112.67 681.17 1121.09
  Q 682.45 1121.33 685.01 1122.11
  A 1.45 1.44 22.5 0 1 685.87 1124.18
  C 683.21 1129.09 672.57 1148.40 666.12 1147.37
  Q 658.49 1146.15 649.00 1143.25
  Q 636.94 1139.56 624.27 1139.41
  C 615.61 1139.31 610.29 1138.99 603.91 1143.65
  C 596.30 1149.20 596.73 1157.37 597.50 1166.26
  Q 598.45 1177.37 601.82 1192.61
  C 605.26 1208.19 610.88 1222.24 618.55 1236.12
  Q 632.77 1261.83 650.88 1283.08
  Q 655.83 1288.89 662.49 1295.16
  C 665.30 1297.81 670.99 1302.76 675.02 1303.01
  Q 679.59 1303.29 685.14 1303.20
  C 689.76 1303.11 693.71 1299.53 696.72 1296.22
  C 708.30 1283.42 719.34 1270.41 727.46 1255.61
  C 734.04 1243.61 739.43 1231.44 743.99 1221.59
  Q 746.14 1216.94 747.85 1212.79
  C 750.90 1205.36 754.39 1198.18 757.47 1190.77
  Q 768.48 1164.21 778.98 1141.48
  Q 780.89 1137.34 783.09 1134.00
  A 2.93 2.93 0.0 0 1 786.27 1132.77
  Q 805.40 1137.70 813.12 1139.65
  Q 829.50 1143.77 850.29 1147.19
  C 868.65 1150.21 885.29 1150.73 901.36 1143.58
  C 909.18 1140.11 917.93 1136.27 927.31 1132.81
  C 938.79 1128.56 950.42 1121.15 960.86 1113.53
  Q 971.54 1105.74 974.91 1103.14
  Q 995.30 1087.45 1019.20 1066.69
  C 1030.35 1057.01 1037.51 1050.47 1044.10 1039.85
  A 2.15 2.14 18.9 0 1 1046.16 1038.85
  C 1053.22 1039.67 1061.24 1041.75 1071.99 1043.60
  C 1082.73 1045.44 1094.64 1045.99 1104.28 1046.20
  Q 1120.88 1046.57 1135.92 1041.14
  Q 1151.89 1035.38 1158.10 1019.45
  Q 1164.70 1002.48 1160.88 985.85
  C 1158.19 974.17 1149.12 963.86 1139.55 957.28
  A 0.94 0.93 -47.1 0 1 1139.50 955.78
  Q 1141.06 954.53 1142.06 954.06
  C 1156.52 947.37 1200.44 925.40 1181.81 904.29
  Q 1179.35 901.51 1172.60 897.28
  Q 1165.59 892.88 1162.45 891.34
  C 1147.91 884.18 1136.39 878.33 1125.49 870.67
  A 1.77 1.76 -51.1 0 1 1125.21 868.02
  Q 1126.65 866.48 1127.75 865.01
  Q 1131.65 859.80 1140.01 847.54
  Q 1157.62 821.73 1187.49 776.76
  Q 1199.65 758.46 1210.26 741.78
  C 1219.01 728.02 1227.13 713.71 1228.66 697.65
  Q 1229.73 686.44 1228.44 679.39
  C 1224.79 659.41 1201.02 648.60 1183.63 643.91
  C 1169.31 640.05 1154.87 643.34 1141.51 651.38
  Q 1131.82 657.20 1125.66 662.92
  Q 1115.78 672.10 1112.64 675.39
  C 1104.05 684.40 1092.22 696.72 1083.21 706.83
  Q 1045.12 749.55 1010.20 789.20
  Q 1007.86 791.86 1002.08 797.44
  A 1.17 1.17 0.0 0 1 1000.38 797.36
  Q 980.61 774.53 951.84 764.04
  Q 929.36 755.85 905.56 754.93
  Q 877.48 753.85 850.27 759.19
  Q 828.55 763.46 817.71 766.71
  Q 804.26 770.74 801.05 771.67
  A 0.98 0.98 0.0 0 1 799.80 770.66
  Q 800.28 763.44 801.43 756.01
  Q 808.46 710.72 823.97 667.45
  C 831.86 645.45 840.17 629.05 851.87 604.96
  C 862.81 582.41 871.34 558.75 877.98 534.75
  Q 900.55 453.14 905.36 365.48
  C 906.35 347.49 906.27 329.39 905.73 313.26
  Q 905.34 301.75 902.78 282.99
  Q 901.39 272.84 898.30 263.26
  Q 895.16 253.51 891.77 249.22
  Q 886.80 242.93 878.21 235.75
  Q 856.19 217.34 839.16 205.94
  C 815.40 190.04 787.07 178.43 758.05 178.10
  Q 739.54 177.89 734.28 178.50
  Q 711.03 181.19 689.87 189.96
  Q 679.75 194.15 669.92 198.97
  Q 601.35 232.58 568.10 249.90
  Q 563.41 252.35 561.02 252.30
  C 543.39 251.94 525.10 251.42 508.45 258.62
  Q 502.60 261.16 500.58 262.31
  C 477.69 275.42 466.96 299.45 466.44 325.05
  Q 466.36 329.19 466.51 338.01
  C 466.71 348.71 468.00 356.33 469.84 369.27
  C 470.37 373.02 470.65 376.95 469.78 380.35
  Q 468.41 385.64 465.38 391.97
  Q 455.51 412.60 440.22 435.89
  Q 435.81 442.62 432.91 448.47
  Q 426.99 460.43 417.51 480.98
  Q 380.34 561.52 366.20 593.16
  Q 364.53 596.90 364.45 601.00
  Q 362.54 693.29 363.54 779.25
  Q 363.69 791.61 364.29 799.23
  Q 364.29 799.26 365.65 820.99
  Q 367.48 850.24 375.27 878.50
  Q 378.96 891.90 386.18 922.50
  Q 389.19 935.25 391.72 941.70
  C 404.57 974.46 430.08 1000.06 457.74 1021.46
  Q 460.34 1023.48 463.64 1026.77
  Q 464.59 1027.72 464.00 1028.94
  Q 462.63 1031.76 459.75 1036.51
  Q 442.16 1065.44 426.06 1086.80
  C 422.03 1092.14 416.64 1098.94 411.08 1101.95
  Q 410.73 1102.14 410.41 1101.91"
/>
<path stroke="#838383" vector-effect="non-scaling-stroke" d="
  M 794.13 823.31
  Q 784.13 823.51 773.85 821.72
  Q 770.71 821.17 768.68 819.82
  C 765.39 817.63 765.29 810.93 765.18 807.01
  Q 764.28 776.29 764.60 754.00
  Q 764.72 745.62 765.87 740.44
  Q 767.52 733.01 773.78 713.07
  Q 779.89 693.60 797.21 643.47
  Q 806.53 616.51 824.89 558.17
  Q 844.14 496.97 858.91 438.21
  Q 864.17 417.31 867.63 400.23
  Q 872.87 374.42 872.11 347.40
  Q 871.39 321.55 859.05 296.74
  Q 847.46 273.42 833.32 251.98
  Q 826.40 241.49 821.25 236.10
  C 809.31 223.62 794.57 215.08 777.66 210.26
  C 765.06 206.68 753.49 207.12 739.51 207.69
  Q 722.99 208.38 705.57 215.32
  Q 680.74 225.22 650.15 238.67
  C 634.61 245.50 622.62 252.47 606.76 260.57
  A 1.42 1.24 62.7 0 0 606.31 262.40
  Q 606.42 262.61 616.59 282.27
  Q 620.23 289.31 624.43 300.28
  Q 632.30 320.84 629.17 342.47
  A 0.61 0.61 0.0 0 0 629.86 343.16
  Q 631.09 342.98 632.23 342.50
  Q 640.04 339.15 651.06 334.78
  C 652.96 334.03 654.22 333.78 655.91 335.11
  Q 658.02 336.76 660.67 340.07
  C 665.24 345.77 663.27 351.87 659.27 357.38
  C 656.64 361.00 649.49 364.04 645.72 365.73
  Q 630.11 372.68 611.39 382.61
  Q 602.29 387.45 593.87 393.35
  C 590.43 395.75 583.90 401.57 589.83 405.42
  Q 592.21 406.97 594.25 407.07
  Q 599.22 407.31 613.75 407.12
  Q 617.52 407.07 621.08 405.86
  A 1.85 1.85 0.0 0 0 622.30 403.75
  C 621.59 400.18 620.89 395.40 621.56 391.39
  Q 621.64 390.87 622.05 390.55
  C 627.98 385.97 637.02 393.91 641.57 397.99
  C 646.18 402.13 655.62 411.56 650.76 417.75
  Q 648.37 420.79 645.94 421.95
  C 635.68 426.84 624.96 427.98 613.28 428.14
  C 595.95 428.36 579.60 428.28 563.34 425.24
  Q 554.25 423.54 547.62 417.73
  C 538.69 409.92 546.14 396.06 550.51 387.92
  A 0.69 0.69 0.0 0 0 549.89 386.90
  Q 531.95 387.05 514.56 382.92
  Q 507.58 381.27 500.32 379.82
  A 1.85 1.85 0.0 0 0 498.33 380.75
  Q 497.80 381.72 497.19 383.44
  Q 489.31 405.41 483.42 424.86
  Q 482.91 426.54 484.65 426.78
  Q 502.06 429.25 529.55 435.02
  Q 630.38 456.21 718.99 480.79
  Q 734.44 485.08 752.62 491.00
  Q 759.87 493.36 766.99 496.30
  Q 770.25 497.65 772.79 499.45
  A 1.67 1.67 0.0 0 1 772.90 502.09
  Q 769.46 505.01 764.83 505.32
  Q 755.32 505.95 746.07 505.29
  C 711.65 502.83 683.26 497.46 642.22 490.09
  Q 605.94 483.58 471.63 458.10
  Q 469.35 457.67 467.19 457.64
  A 2.29 2.26 13.8 0 0 465.15 458.86
  Q 461.36 466.10 455.62 479.16
  Q 436.76 522.06 402.49 601.08
  C 401.70 602.90 401.28 605.03 401.00 606.75
  Q 388.71 681.61 390.60 758.28
  C 391.98 814.14 400.08 870.89 422.73 922.30
  Q 431.92 943.15 444.54 961.53
  Q 463.62 989.29 491.26 1009.28
  C 525.88 1034.31 563.46 1055.54 603.84 1067.52
  C 630.21 1075.35 661.46 1082.12 680.74 1086.50
  C 694.62 1089.65 708.22 1093.03 720.38 1099.46
  C 728.95 1103.99 732.40 1111.33 727.12 1120.14
  Q 724.41 1124.68 722.85 1126.86
  Q 712.94 1140.76 706.21 1152.95
  Q 698.34 1167.21 692.10 1176.08
  C 686.16 1184.54 676.97 1192.41 666.13 1188.86
  Q 660.09 1186.88 656.05 1184.70
  Q 648.36 1180.57 631.03 1171.03
  A 0.58 0.58 0.0 0 0 630.17 1171.47
  Q 630.09 1172.24 630.30 1173.03
  Q 636.81 1197.54 648.12 1224.38
  Q 652.18 1234.01 658.90 1245.73
  C 663.70 1254.10 670.72 1263.96 679.08 1267.92
  C 689.57 1272.89 698.28 1259.46 703.31 1252.05
  Q 707.44 1245.97 714.05 1232.84
  Q 724.90 1211.29 735.76 1182.80
  Q 748.11 1150.40 757.74 1119.29
  Q 758.81 1115.83 759.52 1112.03
  C 761.03 1103.97 807.44 1110.13 815.04 1111.20
  Q 840.24 1114.75 850.94 1116.40
  C 865.16 1118.60 881.95 1119.83 895.75 1116.45
  Q 906.31 1113.86 915.75 1108.99
  C 933.86 1099.65 950.09 1087.93 966.07 1075.55
  Q 984.26 1061.47 1002.62 1046.12
  Q 1004.69 1044.40 1010.92 1038.63
  Q 1013.08 1036.63 1014.34 1033.83
  C 1018.13 1025.35 1020.92 1020.24 1022.43 1013.90
  Q 1023.70 1008.60 1024.08 1003.50
  Q 1026.62 968.72 1012.07 937.44
  Q 1007.14 926.83 997.87 915.24
  Q 978.35 890.82 949.45 881.06
  Q 929.71 874.38 908.30 872.45
  C 884.59 870.32 866.74 871.24 842.01 872.00
  Q 835.83 872.20 831.46 871.30
  C 825.31 870.04 816.22 864.75 813.78 857.94
  A 1.87 1.87 0.0 0 1 814.50 855.76
  Q 817.05 854.05 819.21 853.22
  Q 845.06 843.26 872.35 838.58
  Q 881.78 836.96 892.22 836.54
  Q 911.90 835.76 928.43 837.13
  C 937.57 837.89 945.34 839.69 954.22 842.21
  Q 957.89 843.25 961.09 840.39
  Q 970.08 832.34 980.25 821.40
  A 0.90 0.89 41.6 0 0 980.17 820.10
  Q 975.06 815.79 968.48 811.48
  C 946.19 796.86 918.90 786.39 892.11 785.06
  C 876.72 784.29 859.90 784.51 844.20 787.34
  C 828.70 790.14 813.46 793.80 799.23 799.88
  Q 795.93 801.29 795.74 805.23
  Q 795.37 812.71 794.65 822.81
  Q 794.62 823.30 794.13 823.31"
/>
<path stroke="#838383" vector-effect="non-scaling-stroke" d="
  M 585.61 309.90
  C 580.93 324.18 570.32 335.56 557.40 343.11
  Q 552.03 346.25 543.22 350.73
  A 0.69 0.69 0.0 0 0 543.31 351.99
  Q 552.10 355.08 563.17 357.32
  C 569.65 358.63 578.87 358.79 584.26 357.80
  Q 597.57 355.37 603.22 344.54
  Q 605.66 339.87 606.13 332.55
  Q 606.76 322.91 605.36 315.38
  Q 602.52 300.00 594.68 285.93
  Q 592.82 282.59 589.99 280.35
  A 1.36 1.35 26.8 0 0 587.84 281.05
  Q 587.62 281.84 587.62 282.53
  Q 587.60 293.06 587.19 302.04
  Q 587.02 305.60 585.61 309.90"
/>
<path stroke="#838383" vector-effect="non-scaling-stroke" d="
  M 1070.57 868.67
  Q 1070.78 868.18 1071.33 867.59
  Q 1105.70 831.21 1140.37 795.12
  Q 1145.12 790.18 1160.33 773.72
  Q 1169.30 764.00 1173.48 758.67
  C 1187.29 741.02 1204.07 714.63 1200.74 691.28
  C 1198.42 674.96 1185.21 662.07 1168.51 661.09
  Q 1159.43 660.55 1154.73 668.22
  C 1141.70 689.48 1125.60 709.17 1108.72 727.22
  Q 1058.24 781.19 1000.22 831.97
  C 990.06 840.87 984.48 845.72 979.89 850.49
  A 0.88 0.87 -53.5 0 0 980.09 851.86
  Q 988.88 856.68 994.90 860.69
  C 1024.79 880.60 1049.34 911.09 1058.77 946.26
  C 1061.93 958.02 1061.76 971.00 1061.34 983.59
  Q 1061.11 990.61 1060.36 994.87
  C 1059.68 998.72 1058.24 1003.48 1057.56 1008.47
  C 1057.32 1010.25 1058.27 1011.18 1059.63 1012.04
  Q 1063.69 1014.59 1068.16 1016.10
  C 1084.48 1021.64 1102.13 1024.31 1119.01 1020.98
  C 1132.00 1018.41 1141.13 1010.53 1139.70 996.31
  Q 1139.26 991.83 1137.46 987.63
  Q 1131.48 973.68 1120.53 962.02
  Q 1104.24 944.69 1095.38 935.60
  Q 1092.40 932.54 1090.57 930.18
  A 0.95 0.95 0.0 0 1 1091.46 928.66
  Q 1091.99 928.74 1092.96 929.06
  Q 1098.16 930.80 1106.94 933.31
  C 1120.01 937.05 1138.80 940.13 1150.40 933.20
  C 1159.12 927.98 1159.61 918.10 1154.56 910.17
  Q 1150.10 903.16 1141.88 899.55
  C 1138.87 898.23 1134.77 897.97 1132.34 897.70
  C 1122.79 896.64 1112.90 893.28 1104.65 889.59
  Q 1087.72 882.01 1071.02 870.24
  A 1.30 1.29 -61.1 0 1 1070.57 868.67"
/>
<path stroke="#838383" vector-effect="non-scaling-stroke" d="
  M 414.39 1131.55
  Q 412.23 1130.62 410.27 1128.79
  Q 405.42 1124.28 399.01 1117.50
  Q 370.72 1087.54 365.57 1081.90
  C 361.72 1077.69 347.70 1062.85 342.21 1064.23
  Q 341.71 1064.36 341.44 1064.81
  Q 340.35 1066.62 340.48 1068.31
  C 341.31 1078.77 343.29 1087.22 346.07 1098.90
  Q 351.22 1120.56 359.22 1142.02
  C 362.71 1151.38 377.65 1188.39 389.71 1184.66
  C 396.93 1182.43 403.64 1177.60 409.47 1172.94
  Q 422.99 1162.13 432.46 1153.20
  Q 475.42 1112.74 519.32 1064.36
  Q 520.49 1063.07 519.04 1062.11
  C 509.09 1055.53 499.98 1049.57 491.31 1045.38
  Q 490.43 1044.95 489.83 1045.72
  C 469.06 1072.31 452.14 1094.69 432.17 1116.67
  Q 424.80 1124.78 419.88 1128.86
  Q 417.44 1130.88 415.99 1131.54
  A 1.99 1.95 44.0 0 1 414.39 1131.55"
/>
<path stroke="#838383" vector-effect="non-scaling-stroke" d="
  M 833.94 440.68
  C 841.96 430.07 850.30 417.72 853.87 404.13
  C 855.55 397.70 855.43 391.39 854.89 384.54
  C 853.48 366.83 838.41 351.73 823.88 343.47
  Q 812.80 337.18 801.37 333.26
  C 787.54 328.52 770.98 324.66 756.56 324.44
  C 705.17 323.65 684.30 376.77 677.90 417.94
  Q 677.33 421.59 678.55 423.53
  Q 685.18 434.07 689.76 441.84
  Q 694.17 449.32 702.05 452.47
  Q 712.08 456.48 729.37 461.63
  Q 747.25 466.97 765.96 469.68
  Q 770.88 470.40 776.08 470.44
  C 788.24 470.52 800.34 469.25 811.00 463.19
  C 820.06 458.05 826.74 450.19 833.94 440.68"
/>
<path stroke="#838383" vector-effect="non-scaling-stroke" d="
  M 663.36 913.60
  C 667.81 917.55 680.00 931.35 686.53 929.08
  C 691.85 927.22 695.02 923.00 698.05 918.29
  Q 701.94 912.24 710.78 897.79
  Q 711.42 896.75 711.39 895.78
  Q 711.07 884.90 705.05 875.86
  C 697.72 864.85 690.64 856.27 681.78 844.61
  Q 679.40 841.48 679.34 839.43
  Q 679.24 836.48 681.08 831.31
  Q 685.43 819.10 692.21 802.95
  C 713.56 752.05 723.43 729.41 738.67 690.69
  Q 745.08 674.42 749.13 660.38
  C 751.33 652.77 753.30 638.54 748.82 631.28
  Q 743.69 622.98 732.17 624.10
  C 726.65 624.63 725.18 626.94 723.56 632.21
  Q 713.42 665.26 702.99 698.22
  C 698.68 711.85 695.55 726.09 689.58 739.01
  C 678.23 763.56 666.13 788.75 660.98 815.23
  C 657.86 831.24 659.85 847.91 670.85 860.36
  C 678.41 868.92 683.27 873.93 687.95 882.26
  C 693.22 891.65 691.93 902.25 682.37 908.33
  A 1.23 1.22 -36.5 0 1 680.78 908.10
  Q 678.48 905.43 677.56 904.00
  C 672.54 896.24 660.06 876.68 649.77 880.70
  C 647.05 881.75 643.98 888.29 643.35 890.38
  Q 640.72 899.02 637.88 907.59
  Q 636.12 912.89 632.95 917.45
  C 627.45 925.38 622.08 919.79 620.82 913.12
  Q 619.96 908.58 618.59 899.42
  Q 617.66 893.20 612.02 892.73
  Q 608.94 892.48 595.91 893.39
  C 590.42 893.77 583.65 893.27 579.88 888.48
  C 575.89 883.41 588.11 876.56 591.63 874.62
  Q 607.42 865.90 623.63 860.69
  C 625.83 859.98 627.10 859.19 627.84 857.07
  Q 630.90 848.32 634.89 835.92
  Q 660.20 757.36 681.74 683.25
  Q 686.58 666.59 692.05 645.28
  Q 695.68 631.10 697.18 618.00
  C 697.99 611.02 696.07 599.82 685.80 604.84
  Q 677.46 608.92 670.99 616.00
  Q 669.26 617.91 668.66 620.72
  C 658.06 671.03 647.57 724.02 636.28 772.79
  Q 630.99 795.61 625.31 814.11
  Q 621.72 825.80 617.59 834.14
  Q 615.69 837.98 613.34 840.60
  Q 605.17 849.71 596.07 857.82
  Q 582.06 870.32 575.15 876.16
  Q 569.22 881.15 567.88 883.40
  Q 561.91 893.40 567.54 901.65
  C 573.73 910.70 587.11 912.78 597.36 914.20
  A 1.46 1.45 -8.1 0 1 598.49 915.04
  C 603.20 925.43 611.81 942.81 623.87 945.64
  C 640.90 949.65 655.44 926.27 662.57 913.74
  Q 662.89 913.19 663.36 913.60"
/>
<path stroke="#838383" vector-effect="non-scaling-stroke" d="
  M 852.72 805.54
  C 855.81 816.30 864.18 837.70 878.27 833.98
  C 885.32 832.11 894.22 825.48 891.07 817.11
  C 888.12 809.30 878.34 803.52 870.86 800.65
  Q 869.65 800.19 868.57 800.14
  Q 861.28 799.85 855.25 800.23
  C 851.81 800.44 851.96 802.92 852.72 805.54"
/>
<path stroke="#838383" vector-effect="non-scaling-stroke" d="
  M 891.74 912.31
  C 884.17 913.36 874.80 926.08 870.96 931.98
  C 861.72 946.18 893.40 947.90 899.81 947.75
  A 1.65 1.64 -89.1 0 0 901.42 946.19
  C 901.75 939.94 903.31 910.72 891.74 912.31"
/>
<path stroke="#838383" vector-effect="non-scaling-stroke" d="
  M 844.48 1002.99
  Q 851.81 996.68 851.45 987.13
  C 851.07 976.92 845.59 969.40 834.44 974.95
  Q 825.19 979.56 820.87 987.57
  Q 819.52 990.06 819.50 991.25
  Q 819.35 1000.01 822.21 1007.54
  C 823.69 1011.45 825.85 1013.64 830.16 1012.14
  C 835.31 1010.34 840.54 1006.39 844.48 1002.99"
/>
<path stroke="#838383" vector-effect="non-scaling-stroke" d="
  M 830.19 1047.58
  C 835.83 1052.50 842.73 1052.41 849.59 1050.07
  C 853.89 1048.60 858.65 1044.43 856.37 1039.36
  C 853.44 1032.81 842.98 1027.85 836.54 1026.27
  C 833.52 1025.53 829.46 1025.34 827.78 1028.09
  C 824.42 1033.58 825.39 1043.40 830.19 1047.58"
/>
<path stroke="#838383" vector-effect="non-scaling-stroke" d="
  M 871.08 1078.35
  C 865.98 1071.96 856.68 1073.94 853.94 1081.45
  Q 853.17 1083.55 854.15 1085.86
  C 857.04 1092.65 860.30 1099.53 866.60 1103.33
  C 872.16 1106.67 875.58 1100.42 876.01 1096.03
  Q 877.02 1085.78 871.08 1078.35"
/>
<path stroke="#838383" vector-effect="non-scaling-stroke" d="
  M 801.19 387.08
  C 800.75 406.25 787.95 419.59 770.91 425.89
  Q 759.98 429.93 751.25 430.69
  Q 739.87 431.69 735.89 432.49
  Q 734.97 432.67 735.43 433.73
  A 1.62 1.59 -1.2 0 0 736.34 434.59
  Q 758.99 443.01 779.87 446.17
  C 801.37 449.43 826.59 444.49 827.07 417.24
  Q 827.23 408.28 826.54 404.49
  C 823.45 387.61 816.78 371.94 807.31 357.59
  C 806.03 355.66 802.37 350.23 798.78 349.08
  A 1.97 1.96 -75.6 0 0 796.25 350.58
  C 795.53 354.42 797.89 362.14 800.21 373.51
  Q 801.37 379.17 801.19 387.08"
/>
</g>
<path fill="#0858fe" d="
  M 1448.00 0.00
  L 1448.00 1448.00
  L 0.00 1448.00
  L 0.00 0.00
  L 1448.00 0.00
  Z
  M 410.41 1101.91
  Q 408.51 1100.54 407.86 1099.58
  Q 403.87 1093.71 396.06 1085.20
  Q 377.02 1064.46 354.64 1050.03
  C 349.81 1046.91 339.76 1041.87 334.26 1043.24
  Q 331.16 1044.02 329.52 1047.53
  C 325.49 1056.16 324.81 1064.30 324.78 1074.59
  Q 324.75 1085.00 326.62 1094.69
  Q 330.28 1113.56 334.84 1129.45
  C 343.06 1158.03 359.19 1184.24 379.48 1205.78
  C 383.09 1209.61 392.91 1219.68 398.33 1216.10
  Q 402.85 1213.11 408.14 1208.39
  C 423.22 1194.95 434.02 1184.12 453.28 1164.77
  Q 466.73 1151.26 533.43 1079.93
  Q 536.44 1076.71 538.13 1075.19
  A 1.31 1.31 0.0 0 1 539.57 1074.99
  Q 555.06 1082.64 561.92 1085.88
  Q 578.61 1093.74 597.52 1099.94
  Q 636.37 1112.67 681.17 1121.09
  Q 682.45 1121.33 685.01 1122.11
  A 1.45 1.44 22.5 0 1 685.87 1124.18
  C 683.21 1129.09 672.57 1148.40 666.12 1147.37
  Q 658.49 1146.15 649.00 1143.25
  Q 636.94 1139.56 624.27 1139.41
  C 615.61 1139.31 610.29 1138.99 603.91 1143.65
  C 596.30 1149.20 596.73 1157.37 597.50 1166.26
  Q 598.45 1177.37 601.82 1192.61
  C 605.26 1208.19 610.88 1222.24 618.55 1236.12
  Q 632.77 1261.83 650.88 1283.08
  Q 655.83 1288.89 662.49 1295.16
  C 665.30 1297.81 670.99 1302.76 675.02 1303.01
  Q 679.59 1303.29 685.14 1303.20
  C 689.76 1303.11 693.71 1299.53 696.72 1296.22
  C 708.30 1283.42 719.34 1270.41 727.46 1255.61
  C 734.04 1243.61 739.43 1231.44 743.99 1221.59
  Q 746.14 1216.94 747.85 1212.79
  C 750.90 1205.36 754.39 1198.18 757.47 1190.77
  Q 768.48 1164.21 778.98 1141.48
  Q 780.89 1137.34 783.09 1134.00
  A 2.93 2.93 0.0 0 1 786.27 1132.77
  Q 805.40 1137.70 813.12 1139.65
  Q 829.50 1143.77 850.29 1147.19
  C 868.65 1150.21 885.29 1150.73 901.36 1143.58
  C 909.18 1140.11 917.93 1136.27 927.31 1132.81
  C 938.79 1128.56 950.42 1121.15 960.86 1113.53
  Q 971.54 1105.74 974.91 1103.14
  Q 995.30 1087.45 1019.20 1066.69
  C 1030.35 1057.01 1037.51 1050.47 1044.10 1039.85
  A 2.15 2.14 18.9 0 1 1046.16 1038.85
  C 1053.22 1039.67 1061.24 1041.75 1071.99 1043.60
  C 1082.73 1045.44 1094.64 1045.99 1104.28 1046.20
  Q 1120.88 1046.57 1135.92 1041.14
  Q 1151.89 1035.38 1158.10 1019.45
  Q 1164.70 1002.48 1160.88 985.85
  C 1158.19 974.17 1149.12 963.86 1139.55 957.28
  A 0.94 0.93 -47.1 0 1 1139.50 955.78
  Q 1141.06 954.53 1142.06 954.06
  C 1156.52 947.37 1200.44 925.40 1181.81 904.29
  Q 1179.35 901.51 1172.60 897.28
  Q 1165.59 892.88 1162.45 891.34
  C 1147.91 884.18 1136.39 878.33 1125.49 870.67
  A 1.77 1.76 -51.1 0 1 1125.21 868.02
  Q 1126.65 866.48 1127.75 865.01
  Q 1131.65 859.80 1140.01 847.54
  Q 1157.62 821.73 1187.49 776.76
  Q 1199.65 758.46 1210.26 741.78
  C 1219.01 728.02 1227.13 713.71 1228.66 697.65
  Q 1229.73 686.44 1228.44 679.39
  C 1224.79 659.41 1201.02 648.60 1183.63 643.91
  C 1169.31 640.05 1154.87 643.34 1141.51 651.38
  Q 1131.82 657.20 1125.66 662.92
  Q 1115.78 672.10 1112.64 675.39
  C 1104.05 684.40 1092.22 696.72 1083.21 706.83
  Q 1045.12 749.55 1010.20 789.20
  Q 1007.86 791.86 1002.08 797.44
  A 1.17 1.17 0.0 0 1 1000.38 797.36
  Q 980.61 774.53 951.84 764.04
  Q 929.36 755.85 905.56 754.93
  Q 877.48 753.85 850.27 759.19
  Q 828.55 763.46 817.71 766.71
  Q 804.26 770.74 801.05 771.67
  A 0.98 0.98 0.0 0 1 799.80 770.66
  Q 800.28 763.44 801.43 756.01
  Q 808.46 710.72 823.97 667.45
  C 831.86 645.45 840.17 629.05 851.87 604.96
  C 862.81 582.41 871.34 558.75 877.98 534.75
  Q 900.55 453.14 905.36 365.48
  C 906.35 347.49 906.27 329.39 905.73 313.26
  Q 905.34 301.75 902.78 282.99
  Q 901.39 272.84 898.30 263.26
  Q 895.16 253.51 891.77 249.22
  Q 886.80 242.93 878.21 235.75
  Q 856.19 217.34 839.16 205.94
  C 815.40 190.04 787.07 178.43 758.05 178.10
  Q 739.54 177.89 734.28 178.50
  Q 711.03 181.19 689.87 189.96
  Q 679.75 194.15 669.92 198.97
  Q 601.35 232.58 568.10 249.90
  Q 563.41 252.35 561.02 252.30
  C 543.39 251.94 525.10 251.42 508.45 258.62
  Q 502.60 261.16 500.58 262.31
  C 477.69 275.42 466.96 299.45 466.44 325.05
  Q 466.36 329.19 466.51 338.01
  C 466.71 348.71 468.00 356.33 469.84 369.27
  C 470.37 373.02 470.65 376.95 469.78 380.35
  Q 468.41 385.64 465.38 391.97
  Q 455.51 412.60 440.22 435.89
  Q 435.81 442.62 432.91 448.47
  Q 426.99 460.43 417.51 480.98
  Q 380.34 561.52 366.20 593.16
  Q 364.53 596.90 364.45 601.00
  Q 362.54 693.29 363.54 779.25
  Q 363.69 791.61 364.29 799.23
  Q 364.29 799.26 365.65 820.99
  Q 367.48 850.24 375.27 878.50
  Q 378.96 891.90 386.18 922.50
  Q 389.19 935.25 391.72 941.70
  C 404.57 974.46 430.08 1000.06 457.74 1021.46
  Q 460.34 1023.48 463.64 1026.77
  Q 464.59 1027.72 464.00 1028.94
  Q 462.63 1031.76 459.75 1036.51
  Q 442.16 1065.44 426.06 1086.80
  C 422.03 1092.14 416.64 1098.94 411.08 1101.95
  Q 410.73 1102.14 410.41 1101.91
  Z"
/>
<path fill="#060606" d="
  M 411.08 1101.95
  C 416.64 1098.94 422.03 1092.14 426.06 1086.80
  Q 442.16 1065.44 459.75 1036.51
  Q 462.63 1031.76 464.00 1028.94
  Q 464.59 1027.72 463.64 1026.77
  Q 460.34 1023.48 457.74 1021.46
  C 430.08 1000.06 404.57 974.46 391.72 941.70
  Q 389.19 935.25 386.18 922.50
  Q 378.96 891.90 375.27 878.50
  Q 367.48 850.24 365.65 820.99
  Q 364.29 799.26 364.29 799.23
  Q 363.69 791.61 363.54 779.25
  Q 362.54 693.29 364.45 601.00
  Q 364.53 596.90 366.20 593.16
  Q 380.34 561.52 417.51 480.98
  Q 426.99 460.43 432.91 448.47
  Q 435.81 442.62 440.22 435.89
  Q 455.51 412.60 465.38 391.97
  Q 468.41 385.64 469.78 380.35
  C 470.65 376.95 470.37 373.02 469.84 369.27
  C 468.00 356.33 466.71 348.71 466.51 338.01
  Q 466.36 329.19 466.44 325.05
  C 466.96 299.45 477.69 275.42 500.58 262.31
  Q 502.60 261.16 508.45 258.62
  C 525.10 251.42 543.39 251.94 561.02 252.30
  Q 563.41 252.35 568.10 249.90
  Q 601.35 232.58 669.92 198.97
  Q 679.75 194.15 689.87 189.96
  Q 711.03 181.19 734.28 178.50
  Q 739.54 177.89 758.05 178.10
  C 787.07 178.43 815.40 190.04 839.16 205.94
  Q 856.19 217.34 878.21 235.75
  Q 886.80 242.93 891.77 249.22
  Q 895.16 253.51 898.30 263.26
  Q 901.39 272.84 902.78 282.99
  Q 905.34 301.75 905.73 313.26
  C 906.27 329.39 906.35 347.49 905.36 365.48
  Q 900.55 453.14 877.98 534.75
  C 871.34 558.75 862.81 582.41 851.87 604.96
  C 840.17 629.05 831.86 645.45 823.97 667.45
  Q 808.46 710.72 801.43 756.01
  Q 800.28 763.44 799.80 770.66
  A 0.98 0.98 0.0 0 0 801.05 771.67
  Q 804.26 770.74 817.71 766.71
  Q 828.55 763.46 850.27 759.19
  Q 877.48 753.85 905.56 754.93
  Q 929.36 755.85 951.84 764.04
  Q 980.61 774.53 1000.38 797.36
  A 1.17 1.17 0.0 0 0 1002.08 797.44
  Q 1007.86 791.86 1010.20 789.20
  Q 1045.12 749.55 1083.21 706.83
  C 1092.22 696.72 1104.05 684.40 1112.64 675.39
  Q 1115.78 672.10 1125.66 662.92
  Q 1131.82 657.20 1141.51 651.38
  C 1154.87 643.34 1169.31 640.05 1183.63 643.91
  C 1201.02 648.60 1224.79 659.41 1228.44 679.39
  Q 1229.73 686.44 1228.66 697.65
  C 1227.13 713.71 1219.01 728.02 1210.26 741.78
  Q 1199.65 758.46 1187.49 776.76
  Q 1157.62 821.73 1140.01 847.54
  Q 1131.65 859.80 1127.75 865.01
  Q 1126.65 866.48 1125.21 868.02
  A 1.77 1.76 -51.1 0 0 1125.49 870.67
  C 1136.39 878.33 1147.91 884.18 1162.45 891.34
  Q 1165.59 892.88 1172.60 897.28
  Q 1179.35 901.51 1181.81 904.29
  C 1200.44 925.40 1156.52 947.37 1142.06 954.06
  Q 1141.06 954.53 1139.50 955.78
  A 0.94 0.93 -47.1 0 0 1139.55 957.28
  C 1149.12 963.86 1158.19 974.17 1160.88 985.85
  Q 1164.70 1002.48 1158.10 1019.45
  Q 1151.89 1035.38 1135.92 1041.14
  Q 1120.88 1046.57 1104.28 1046.20
  C 1094.64 1045.99 1082.73 1045.44 1071.99 1043.60
  C 1061.24 1041.75 1053.22 1039.67 1046.16 1038.85
  A 2.15 2.14 18.9 0 0 1044.10 1039.85
  C 1037.51 1050.47 1030.35 1057.01 1019.20 1066.69
  Q 995.30 1087.45 974.91 1103.14
  Q 971.54 1105.74 960.86 1113.53
  C 950.42 1121.15 938.79 1128.56 927.31 1132.81
  C 917.93 1136.27 909.18 1140.11 901.36 1143.58
  C 885.29 1150.73 868.65 1150.21 850.29 1147.19
  Q 829.50 1143.77 813.12 1139.65
  Q 805.40 1137.70 786.27 1132.77
  A 2.93 2.93 0.0 0 0 783.09 1134.00
  Q 780.89 1137.34 778.98 1141.48
  Q 768.48 1164.21 757.47 1190.77
  C 754.39 1198.18 750.90 1205.36 747.85 1212.79
  Q 746.14 1216.94 743.99 1221.59
  C 739.43 1231.44 734.04 1243.61 727.46 1255.61
  C 719.34 1270.41 708.30 1283.42 696.72 1296.22
  C 693.71 1299.53 689.76 1303.11 685.14 1303.20
  Q 679.59 1303.29 675.02 1303.01
  C 670.99 1302.76 665.30 1297.81 662.49 1295.16
  Q 655.83 1288.89 650.88 1283.08
  Q 632.77 1261.83 618.55 1236.12
  C 610.88 1222.24 605.26 1208.19 601.82 1192.61
  Q 598.45 1177.37 597.50 1166.26
  C 596.73 1157.37 596.30 1149.20 603.91 1143.65
  C 610.29 1138.99 615.61 1139.31 624.27 1139.41
  Q 636.94 1139.56 649.00 1143.25
  Q 658.49 1146.15 666.12 1147.37
  C 672.57 1148.40 683.21 1129.09 685.87 1124.18
  A 1.45 1.44 22.5 0 0 685.01 1122.11
  Q 682.45 1121.33 681.17 1121.09
  Q 636.37 1112.67 597.52 1099.94
  Q 578.61 1093.74 561.92 1085.88
  Q 555.06 1082.64 539.57 1074.99
  A 1.31 1.31 0.0 0 0 538.13 1075.19
  Q 536.44 1076.71 533.43 1079.93
  Q 466.73 1151.26 453.28 1164.77
  C 434.02 1184.12 423.22 1194.95 408.14 1208.39
  Q 402.85 1213.11 398.33 1216.10
  C 392.91 1219.68 383.09 1209.61 379.48 1205.78
  C 359.19 1184.24 343.06 1158.03 334.84 1129.45
  Q 330.28 1113.56 326.62 1094.69
  Q 324.75 1085.00 324.78 1074.59
  C 324.81 1064.30 325.49 1056.16 329.52 1047.53
  Q 331.16 1044.02 334.26 1043.24
  C 339.76 1041.87 349.81 1046.91 354.64 1050.03
  Q 377.02 1064.46 396.06 1085.20
  Q 403.87 1093.71 407.86 1099.58
  Q 408.51 1100.54 410.41 1101.91
  Q 410.73 1102.14 411.08 1101.95
  Z
  M 794.13 823.31
  Q 784.13 823.51 773.85 821.72
  Q 770.71 821.17 768.68 819.82
  C 765.39 817.63 765.29 810.93 765.18 807.01
  Q 764.28 776.29 764.60 754.00
  Q 764.72 745.62 765.87 740.44
  Q 767.52 733.01 773.78 713.07
  Q 779.89 693.60 797.21 643.47
  Q 806.53 616.51 824.89 558.17
  Q 844.14 496.97 858.91 438.21
  Q 864.17 417.31 867.63 400.23
  Q 872.87 374.42 872.11 347.40
  Q 871.39 321.55 859.05 296.74
  Q 847.46 273.42 833.32 251.98
  Q 826.40 241.49 821.25 236.10
  C 809.31 223.62 794.57 215.08 777.66 210.26
  C 765.06 206.68 753.49 207.12 739.51 207.69
  Q 722.99 208.38 705.57 215.32
  Q 680.74 225.22 650.15 238.67
  C 634.61 245.50 622.62 252.47 606.76 260.57
  A 1.42 1.24 62.7 0 0 606.31 262.40
  Q 606.42 262.61 616.59 282.27
  Q 620.23 289.31 624.43 300.28
  Q 632.30 320.84 629.17 342.47
  A 0.61 0.61 0.0 0 0 629.86 343.16
  Q 631.09 342.98 632.23 342.50
  Q 640.04 339.15 651.06 334.78
  C 652.96 334.03 654.22 333.78 655.91 335.11
  Q 658.02 336.76 660.67 340.07
  C 665.24 345.77 663.27 351.87 659.27 357.38
  C 656.64 361.00 649.49 364.04 645.72 365.73
  Q 630.11 372.68 611.39 382.61
  Q 602.29 387.45 593.87 393.35
  C 590.43 395.75 583.90 401.57 589.83 405.42
  Q 592.21 406.97 594.25 407.07
  Q 599.22 407.31 613.75 407.12
  Q 617.52 407.07 621.08 405.86
  A 1.85 1.85 0.0 0 0 622.30 403.75
  C 621.59 400.18 620.89 395.40 621.56 391.39
  Q 621.64 390.87 622.05 390.55
  C 627.98 385.97 637.02 393.91 641.57 397.99
  C 646.18 402.13 655.62 411.56 650.76 417.75
  Q 648.37 420.79 645.94 421.95
  C 635.68 426.84 624.96 427.98 613.28 428.14
  C 595.95 428.36 579.60 428.28 563.34 425.24
  Q 554.25 423.54 547.62 417.73
  C 538.69 409.92 546.14 396.06 550.51 387.92
  A 0.69 0.69 0.0 0 0 549.89 386.90
  Q 531.95 387.05 514.56 382.92
  Q 507.58 381.27 500.32 379.82
  A 1.85 1.85 0.0 0 0 498.33 380.75
  Q 497.80 381.72 497.19 383.44
  Q 489.31 405.41 483.42 424.86
  Q 482.91 426.54 484.65 426.78
  Q 502.06 429.25 529.55 435.02
  Q 630.38 456.21 718.99 480.79
  Q 734.44 485.08 752.62 491.00
  Q 759.87 493.36 766.99 496.30
  Q 770.25 497.65 772.79 499.45
  A 1.67 1.67 0.0 0 1 772.90 502.09
  Q 769.46 505.01 764.83 505.32
  Q 755.32 505.95 746.07 505.29
  C 711.65 502.83 683.26 497.46 642.22 490.09
  Q 605.94 483.58 471.63 458.10
  Q 469.35 457.67 467.19 457.64
  A 2.29 2.26 13.8 0 0 465.15 458.86
  Q 461.36 466.10 455.62 479.16
  Q 436.76 522.06 402.49 601.08
  C 401.70 602.90 401.28 605.03 401.00 606.75
  Q 388.71 681.61 390.60 758.28
  C 391.98 814.14 400.08 870.89 422.73 922.30
  Q 431.92 943.15 444.54 961.53
  Q 463.62 989.29 491.26 1009.28
  C 525.88 1034.31 563.46 1055.54 603.84 1067.52
  C 630.21 1075.35 661.46 1082.12 680.74 1086.50
  C 694.62 1089.65 708.22 1093.03 720.38 1099.46
  C 728.95 1103.99 732.40 1111.33 727.12 1120.14
  Q 724.41 1124.68 722.85 1126.86
  Q 712.94 1140.76 706.21 1152.95
  Q 698.34 1167.21 692.10 1176.08
  C 686.16 1184.54 676.97 1192.41 666.13 1188.86
  Q 660.09 1186.88 656.05 1184.70
  Q 648.36 1180.57 631.03 1171.03
  A 0.58 0.58 0.0 0 0 630.17 1171.47
  Q 630.09 1172.24 630.30 1173.03
  Q 636.81 1197.54 648.12 1224.38
  Q 652.18 1234.01 658.90 1245.73
  C 663.70 1254.10 670.72 1263.96 679.08 1267.92
  C 689.57 1272.89 698.28 1259.46 703.31 1252.05
  Q 707.44 1245.97 714.05 1232.84
  Q 724.90 1211.29 735.76 1182.80
  Q 748.11 1150.40 757.74 1119.29
  Q 758.81 1115.83 759.52 1112.03
  C 761.03 1103.97 807.44 1110.13 815.04 1111.20
  Q 840.24 1114.75 850.94 1116.40
  C 865.16 1118.60 881.95 1119.83 895.75 1116.45
  Q 906.31 1113.86 915.75 1108.99
  C 933.86 1099.65 950.09 1087.93 966.07 1075.55
  Q 984.26 1061.47 1002.62 1046.12
  Q 1004.69 1044.40 1010.92 1038.63
  Q 1013.08 1036.63 1014.34 1033.83
  C 1018.13 1025.35 1020.92 1020.24 1022.43 1013.90
  Q 1023.70 1008.60 1024.08 1003.50
  Q 1026.62 968.72 1012.07 937.44
  Q 1007.14 926.83 997.87 915.24
  Q 978.35 890.82 949.45 881.06
  Q 929.71 874.38 908.30 872.45
  C 884.59 870.32 866.74 871.24 842.01 872.00
  Q 835.83 872.20 831.46 871.30
  C 825.31 870.04 816.22 864.75 813.78 857.94
  A 1.87 1.87 0.0 0 1 814.50 855.76
  Q 817.05 854.05 819.21 853.22
  Q 845.06 843.26 872.35 838.58
  Q 881.78 836.96 892.22 836.54
  Q 911.90 835.76 928.43 837.13
  C 937.57 837.89 945.34 839.69 954.22 842.21
  Q 957.89 843.25 961.09 840.39
  Q 970.08 832.34 980.25 821.40
  A 0.90 0.89 41.6 0 0 980.17 820.10
  Q 975.06 815.79 968.48 811.48
  C 946.19 796.86 918.90 786.39 892.11 785.06
  C 876.72 784.29 859.90 784.51 844.20 787.34
  C 828.70 790.14 813.46 793.80 799.23 799.88
  Q 795.93 801.29 795.74 805.23
  Q 795.37 812.71 794.65 822.81
  Q 794.62 823.30 794.13 823.31
  Z
  M 585.61 309.90
  C 580.93 324.18 570.32 335.56 557.40 343.11
  Q 552.03 346.25 543.22 350.73
  A 0.69 0.69 0.0 0 0 543.31 351.99
  Q 552.10 355.08 563.17 357.32
  C 569.65 358.63 578.87 358.79 584.26 357.80
  Q 597.57 355.37 603.22 344.54
  Q 605.66 339.87 606.13 332.55
  Q 606.76 322.91 605.36 315.38
  Q 602.52 300.00 594.68 285.93
  Q 592.82 282.59 589.99 280.35
  A 1.36 1.35 26.8 0 0 587.84 281.05
  Q 587.62 281.84 587.62 282.53
  Q 587.60 293.06 587.19 302.04
  Q 587.02 305.60 585.61 309.90
  Z
  M 1070.57 868.67
  Q 1070.78 868.18 1071.33 867.59
  Q 1105.70 831.21 1140.37 795.12
  Q 1145.12 790.18 1160.33 773.72
  Q 1169.30 764.00 1173.48 758.67
  C 1187.29 741.02 1204.07 714.63 1200.74 691.28
  C 1198.42 674.96 1185.21 662.07 1168.51 661.09
  Q 1159.43 660.55 1154.73 668.22
  C 1141.70 689.48 1125.60 709.17 1108.72 727.22
  Q 1058.24 781.19 1000.22 831.97
  C 990.06 840.87 984.48 845.72 979.89 850.49
  A 0.88 0.87 -53.5 0 0 980.09 851.86
  Q 988.88 856.68 994.90 860.69
  C 1024.79 880.60 1049.34 911.09 1058.77 946.26
  C 1061.93 958.02 1061.76 971.00 1061.34 983.59
  Q 1061.11 990.61 1060.36 994.87
  C 1059.68 998.72 1058.24 1003.48 1057.56 1008.47
  C 1057.32 1010.25 1058.27 1011.18 1059.63 1012.04
  Q 1063.69 1014.59 1068.16 1016.10
  C 1084.48 1021.64 1102.13 1024.31 1119.01 1020.98
  C 1132.00 1018.41 1141.13 1010.53 1139.70 996.31
  Q 1139.26 991.83 1137.46 987.63
  Q 1131.48 973.68 1120.53 962.02
  Q 1104.24 944.69 1095.38 935.60
  Q 1092.40 932.54 1090.57 930.18
  A 0.95 0.95 0.0 0 1 1091.46 928.66
  Q 1091.99 928.74 1092.96 929.06
  Q 1098.16 930.80 1106.94 933.31
  C 1120.01 937.05 1138.80 940.13 1150.40 933.20
  C 1159.12 927.98 1159.61 918.10 1154.56 910.17
  Q 1150.10 903.16 1141.88 899.55
  C 1138.87 898.23 1134.77 897.97 1132.34 897.70
  C 1122.79 896.64 1112.90 893.28 1104.65 889.59
  Q 1087.72 882.01 1071.02 870.24
  A 1.30 1.29 -61.1 0 1 1070.57 868.67
  Z
  M 414.39 1131.55
  Q 412.23 1130.62 410.27 1128.79
  Q 405.42 1124.28 399.01 1117.50
  Q 370.72 1087.54 365.57 1081.90
  C 361.72 1077.69 347.70 1062.85 342.21 1064.23
  Q 341.71 1064.36 341.44 1064.81
  Q 340.35 1066.62 340.48 1068.31
  C 341.31 1078.77 343.29 1087.22 346.07 1098.90
  Q 351.22 1120.56 359.22 1142.02
  C 362.71 1151.38 377.65 1188.39 389.71 1184.66
  C 396.93 1182.43 403.64 1177.60 409.47 1172.94
  Q 422.99 1162.13 432.46 1153.20
  Q 475.42 1112.74 519.32 1064.36
  Q 520.49 1063.07 519.04 1062.11
  C 509.09 1055.53 499.98 1049.57 491.31 1045.38
  Q 490.43 1044.95 489.83 1045.72
  C 469.06 1072.31 452.14 1094.69 432.17 1116.67
  Q 424.80 1124.78 419.88 1128.86
  Q 417.44 1130.88 415.99 1131.54
  A 1.99 1.95 44.0 0 1 414.39 1131.55
  Z"
/>
<path fill="#ffffff" d="
  M 794.65 822.81
  Q 795.37 812.71 795.74 805.23
  Q 795.93 801.29 799.23 799.88
  C 813.46 793.80 828.70 790.14 844.20 787.34
  C 859.90 784.51 876.72 784.29 892.11 785.06
  C 918.90 786.39 946.19 796.86 968.48 811.48
  Q 975.06 815.79 980.17 820.10
  A 0.90 0.89 41.6 0 1 980.25 821.40
  Q 970.08 832.34 961.09 840.39
  Q 957.89 843.25 954.22 842.21
  C 945.34 839.69 937.57 837.89 928.43 837.13
  Q 911.90 835.76 892.22 836.54
  Q 881.78 836.96 872.35 838.58
  Q 845.06 843.26 819.21 853.22
  Q 817.05 854.05 814.50 855.76
  A 1.87 1.87 0.0 0 0 813.78 857.94
  C 816.22 864.75 825.31 870.04 831.46 871.30
  Q 835.83 872.20 842.01 872.00
  C 866.74 871.24 884.59 870.32 908.30 872.45
  Q 929.71 874.38 949.45 881.06
  Q 978.35 890.82 997.87 915.24
  Q 1007.14 926.83 1012.07 937.44
  Q 1026.62 968.72 1024.08 1003.50
  Q 1023.70 1008.60 1022.43 1013.90
  C 1020.92 1020.24 1018.13 1025.35 1014.34 1033.83
  Q 1013.08 1036.63 1010.92 1038.63
  Q 1004.69 1044.40 1002.62 1046.12
  Q 984.26 1061.47 966.07 1075.55
  C 950.09 1087.93 933.86 1099.65 915.75 1108.99
  Q 906.31 1113.86 895.75 1116.45
  C 881.95 1119.83 865.16 1118.60 850.94 1116.40
  Q 840.24 1114.75 815.04 1111.20
  C 807.44 1110.13 761.03 1103.97 759.52 1112.03
  Q 758.81 1115.83 757.74 1119.29
  Q 748.11 1150.40 735.76 1182.80
  Q 724.90 1211.29 714.05 1232.84
  Q 707.44 1245.97 703.31 1252.05
  C 698.28 1259.46 689.57 1272.89 679.08 1267.92
  C 670.72 1263.96 663.70 1254.10 658.90 1245.73
  Q 652.18 1234.01 648.12 1224.38
  Q 636.81 1197.54 630.30 1173.03
  Q 630.09 1172.24 630.17 1171.47
  A 0.58 0.58 0.0 0 1 631.03 1171.03
  Q 648.36 1180.57 656.05 1184.70
  Q 660.09 1186.88 666.13 1188.86
  C 676.97 1192.41 686.16 1184.54 692.10 1176.08
  Q 698.34 1167.21 706.21 1152.95
  Q 712.94 1140.76 722.85 1126.86
  Q 724.41 1124.68 727.12 1120.14
  C 732.40 1111.33 728.95 1103.99 720.38 1099.46
  C 708.22 1093.03 694.62 1089.65 680.74 1086.50
  C 661.46 1082.12 630.21 1075.35 603.84 1067.52
  C 563.46 1055.54 525.88 1034.31 491.26 1009.28
  Q 463.62 989.29 444.54 961.53
  Q 431.92 943.15 422.73 922.30
  C 400.08 870.89 391.98 814.14 390.60 758.28
  Q 388.71 681.61 401.00 606.75
  C 401.28 605.03 401.70 602.90 402.49 601.08
  Q 436.76 522.06 455.62 479.16
  Q 461.36 466.10 465.15 458.86
  A 2.29 2.26 13.8 0 1 467.19 457.64
  Q 469.35 457.67 471.63 458.10
  Q 605.94 483.58 642.22 490.09
  C 683.26 497.46 711.65 502.83 746.07 505.29
  Q 755.32 505.95 764.83 505.32
  Q 769.46 505.01 772.90 502.09
  A 1.67 1.67 0.0 0 0 772.79 499.45
  Q 770.25 497.65 766.99 496.30
  Q 759.87 493.36 752.62 491.00
  Q 734.44 485.08 718.99 480.79
  Q 630.38 456.21 529.55 435.02
  Q 502.06 429.25 484.65 426.78
  Q 482.91 426.54 483.42 424.86
  Q 489.31 405.41 497.19 383.44
  Q 497.80 381.72 498.33 380.75
  A 1.85 1.85 0.0 0 1 500.32 379.82
  Q 507.58 381.27 514.56 382.92
  Q 531.95 387.05 549.89 386.90
  A 0.69 0.69 0.0 0 1 550.51 387.92
  C 546.14 396.06 538.69 409.92 547.62 417.73
  Q 554.25 423.54 563.34 425.24
  C 579.60 428.28 595.95 428.36 613.28 428.14
  C 624.96 427.98 635.68 426.84 645.94 421.95
  Q 648.37 420.79 650.76 417.75
  C 655.62 411.56 646.18 402.13 641.57 397.99
  C 637.02 393.91 627.98 385.97 622.05 390.55
  Q 621.64 390.87 621.56 391.39
  C 620.89 395.40 621.59 400.18 622.30 403.75
  A 1.85 1.85 0.0 0 1 621.08 405.86
  Q 617.52 407.07 613.75 407.12
  Q 599.22 407.31 594.25 407.07
  Q 592.21 406.97 589.83 405.42
  C 583.90 401.57 590.43 395.75 593.87 393.35
  Q 602.29 387.45 611.39 382.61
  Q 630.11 372.68 645.72 365.73
  C 649.49 364.04 656.64 361.00 659.27 357.38
  C 663.27 351.87 665.24 345.77 660.67 340.07
  Q 658.02 336.76 655.91 335.11
  C 654.22 333.78 652.96 334.03 651.06 334.78
  Q 640.04 339.15 632.23 342.50
  Q 631.09 342.98 629.86 343.16
  A 0.61 0.61 0.0 0 1 629.17 342.47
  Q 632.30 320.84 624.43 300.28
  Q 620.23 289.31 616.59 282.27
  Q 606.42 262.61 606.31 262.40
  A 1.42 1.24 62.7 0 1 606.76 260.57
  C 622.62 252.47 634.61 245.50 650.15 238.67
  Q 680.74 225.22 705.57 215.32
  Q 722.99 208.38 739.51 207.69
  C 753.49 207.12 765.06 206.68 777.66 210.26
  C 794.57 215.08 809.31 223.62 821.25 236.10
  Q 826.40 241.49 833.32 251.98
  Q 847.46 273.42 859.05 296.74
  Q 871.39 321.55 872.11 347.40
  Q 872.87 374.42 867.63 400.23
  Q 864.17 417.31 858.91 438.21
  Q 844.14 496.97 824.89 558.17
  Q 806.53 616.51 797.21 643.47
  Q 779.89 693.60 773.78 713.07
  Q 767.52 733.01 765.87 740.44
  Q 764.72 745.62 764.60 754.00
  Q 764.28 776.29 765.18 807.01
  C 765.29 810.93 765.39 817.63 768.68 819.82
  Q 770.71 821.17 773.85 821.72
  Q 784.13 823.51 794.13 823.31
  Q 794.62 823.30 794.65 822.81
  Z
  M 833.94 440.68
  C 841.96 430.07 850.30 417.72 853.87 404.13
  C 855.55 397.70 855.43 391.39 854.89 384.54
  C 853.48 366.83 838.41 351.73 823.88 343.47
  Q 812.80 337.18 801.37 333.26
  C 787.54 328.52 770.98 324.66 756.56 324.44
  C 705.17 323.65 684.30 376.77 677.90 417.94
  Q 677.33 421.59 678.55 423.53
  Q 685.18 434.07 689.76 441.84
  Q 694.17 449.32 702.05 452.47
  Q 712.08 456.48 729.37 461.63
  Q 747.25 466.97 765.96 469.68
  Q 770.88 470.40 776.08 470.44
  C 788.24 470.52 800.34 469.25 811.00 463.19
  C 820.06 458.05 826.74 450.19 833.94 440.68
  Z
  M 663.36 913.60
  C 667.81 917.55 680.00 931.35 686.53 929.08
  C 691.85 927.22 695.02 923.00 698.05 918.29
  Q 701.94 912.24 710.78 897.79
  Q 711.42 896.75 711.39 895.78
  Q 711.07 884.90 705.05 875.86
  C 697.72 864.85 690.64 856.27 681.78 844.61
  Q 679.40 841.48 679.34 839.43
  Q 679.24 836.48 681.08 831.31
  Q 685.43 819.10 692.21 802.95
  C 713.56 752.05 723.43 729.41 738.67 690.69
  Q 745.08 674.42 749.13 660.38
  C 751.33 652.77 753.30 638.54 748.82 631.28
  Q 743.69 622.98 732.17 624.10
  C 726.65 624.63 725.18 626.94 723.56 632.21
  Q 713.42 665.26 702.99 698.22
  C 698.68 711.85 695.55 726.09 689.58 739.01
  C 678.23 763.56 666.13 788.75 660.98 815.23
  C 657.86 831.24 659.85 847.91 670.85 860.36
  C 678.41 868.92 683.27 873.93 687.95 882.26
  C 693.22 891.65 691.93 902.25 682.37 908.33
  A 1.23 1.22 -36.5 0 1 680.78 908.10
  Q 678.48 905.43 677.56 904.00
  C 672.54 896.24 660.06 876.68 649.77 880.70
  C 647.05 881.75 643.98 888.29 643.35 890.38
  Q 640.72 899.02 637.88 907.59
  Q 636.12 912.89 632.95 917.45
  C 627.45 925.38 622.08 919.79 620.82 913.12
  Q 619.96 908.58 618.59 899.42
  Q 617.66 893.20 612.02 892.73
  Q 608.94 892.48 595.91 893.39
  C 590.42 893.77 583.65 893.27 579.88 888.48
  C 575.89 883.41 588.11 876.56 591.63 874.62
  Q 607.42 865.90 623.63 860.69
  C 625.83 859.98 627.10 859.19 627.84 857.07
  Q 630.90 848.32 634.89 835.92
  Q 660.20 757.36 681.74 683.25
  Q 686.58 666.59 692.05 645.28
  Q 695.68 631.10 697.18 618.00
  C 697.99 611.02 696.07 599.82 685.80 604.84
  Q 677.46 608.92 670.99 616.00
  Q 669.26 617.91 668.66 620.72
  C 658.06 671.03 647.57 724.02 636.28 772.79
  Q 630.99 795.61 625.31 814.11
  Q 621.72 825.80 617.59 834.14
  Q 615.69 837.98 613.34 840.60
  Q 605.17 849.71 596.07 857.82
  Q 582.06 870.32 575.15 876.16
  Q 569.22 881.15 567.88 883.40
  Q 561.91 893.40 567.54 901.65
  C 573.73 910.70 587.11 912.78 597.36 914.20
  A 1.46 1.45 -8.1 0 1 598.49 915.04
  C 603.20 925.43 611.81 942.81 623.87 945.64
  C 640.90 949.65 655.44 926.27 662.57 913.74
  Q 662.89 913.19 663.36 913.60
  Z
  M 852.72 805.54
  C 855.81 816.30 864.18 837.70 878.27 833.98
  C 885.32 832.11 894.22 825.48 891.07 817.11
  C 888.12 809.30 878.34 803.52 870.86 800.65
  Q 869.65 800.19 868.57 800.14
  Q 861.28 799.85 855.25 800.23
  C 851.81 800.44 851.96 802.92 852.72 805.54
  Z
  M 891.74 912.31
  C 884.17 913.36 874.80 926.08 870.96 931.98
  C 861.72 946.18 893.40 947.90 899.81 947.75
  A 1.65 1.64 -89.1 0 0 901.42 946.19
  C 901.75 939.94 903.31 910.72 891.74 912.31
  Z
  M 844.48 1002.99
  Q 851.81 996.68 851.45 987.13
  C 851.07 976.92 845.59 969.40 834.44 974.95
  Q 825.19 979.56 820.87 987.57
  Q 819.52 990.06 819.50 991.25
  Q 819.35 1000.01 822.21 1007.54
  C 823.69 1011.45 825.85 1013.64 830.16 1012.14
  C 835.31 1010.34 840.54 1006.39 844.48 1002.99
  Z
  M 830.19 1047.58
  C 835.83 1052.50 842.73 1052.41 849.59 1050.07
  C 853.89 1048.60 858.65 1044.43 856.37 1039.36
  C 853.44 1032.81 842.98 1027.85 836.54 1026.27
  C 833.52 1025.53 829.46 1025.34 827.78 1028.09
  C 824.42 1033.58 825.39 1043.40 830.19 1047.58
  Z
  M 871.08 1078.35
  C 865.98 1071.96 856.68 1073.94 853.94 1081.45
  Q 853.17 1083.55 854.15 1085.86
  C 857.04 1092.65 860.30 1099.53 866.60 1103.33
  C 872.16 1106.67 875.58 1100.42 876.01 1096.03
  Q 877.02 1085.78 871.08 1078.35
  Z"
/>
<path fill="#ffffff" d="
  M 557.40 343.11
  C 570.32 335.56 580.93 324.18 585.61 309.90
  Q 587.02 305.60 587.19 302.04
  Q 587.60 293.06 587.62 282.53
  Q 587.62 281.84 587.84 281.05
  A 1.36 1.35 26.8 0 1 589.99 280.35
  Q 592.82 282.59 594.68 285.93
  Q 602.52 300.00 605.36 315.38
  Q 606.76 322.91 606.13 332.55
  Q 605.66 339.87 603.22 344.54
  Q 597.57 355.37 584.26 357.80
  C 578.87 358.79 569.65 358.63 563.17 357.32
  Q 552.10 355.08 543.31 351.99
  A 0.69 0.69 0.0 0 1 543.22 350.73
  Q 552.03 346.25 557.40 343.11
  Z"
/>
<path fill="#060606" d="
  M 833.94 440.68
  C 826.74 450.19 820.06 458.05 811.00 463.19
  C 800.34 469.25 788.24 470.52 776.08 470.44
  Q 770.88 470.40 765.96 469.68
  Q 747.25 466.97 729.37 461.63
  Q 712.08 456.48 702.05 452.47
  Q 694.17 449.32 689.76 441.84
  Q 685.18 434.07 678.55 423.53
  Q 677.33 421.59 677.90 417.94
  C 684.30 376.77 705.17 323.65 756.56 324.44
  C 770.98 324.66 787.54 328.52 801.37 333.26
  Q 812.80 337.18 823.88 343.47
  C 838.41 351.73 853.48 366.83 854.89 384.54
  C 855.43 391.39 855.55 397.70 853.87 404.13
  C 850.30 417.72 841.96 430.07 833.94 440.68
  Z
  M 801.19 387.08
  C 800.75 406.25 787.95 419.59 770.91 425.89
  Q 759.98 429.93 751.25 430.69
  Q 739.87 431.69 735.89 432.49
  Q 734.97 432.67 735.43 433.73
  A 1.62 1.59 -1.2 0 0 736.34 434.59
  Q 758.99 443.01 779.87 446.17
  C 801.37 449.43 826.59 444.49 827.07 417.24
  Q 827.23 408.28 826.54 404.49
  C 823.45 387.61 816.78 371.94 807.31 357.59
  C 806.03 355.66 802.37 350.23 798.78 349.08
  A 1.97 1.96 -75.6 0 0 796.25 350.58
  C 795.53 354.42 797.89 362.14 800.21 373.51
  Q 801.37 379.17 801.19 387.08
  Z"
/>
<path fill="#ffffff" d="
  M 770.91 425.89
  C 787.95 419.59 800.75 406.25 801.19 387.08
  Q 801.37 379.17 800.21 373.51
  C 797.89 362.14 795.53 354.42 796.25 350.58
  A 1.97 1.96 -75.6 0 1 798.78 349.08
  C 802.37 350.23 806.03 355.66 807.31 357.59
  C 816.78 371.94 823.45 387.61 826.54 404.49
  Q 827.23 408.28 827.07 417.24
  C 826.59 444.49 801.37 449.43 779.87 446.17
  Q 758.99 443.01 736.34 434.59
  A 1.62 1.59 -1.2 0 1 735.43 433.73
  Q 734.97 432.67 735.89 432.49
  Q 739.87 431.69 751.25 430.69
  Q 759.98 429.93 770.91 425.89
  Z"
/>
<path fill="#060606" d="
  M 662.57 913.74
  C 655.44 926.27 640.90 949.65 623.87 945.64
  C 611.81 942.81 603.20 925.43 598.49 915.04
  A 1.46 1.45 -8.1 0 0 597.36 914.20
  C 587.11 912.78 573.73 910.70 567.54 901.65
  Q 561.91 893.40 567.88 883.40
  Q 569.22 881.15 575.15 876.16
  Q 582.06 870.32 596.07 857.82
  Q 605.17 849.71 613.34 840.60
  Q 615.69 837.98 617.59 834.14
  Q 621.72 825.80 625.31 814.11
  Q 630.99 795.61 636.28 772.79
  C 647.57 724.02 658.06 671.03 668.66 620.72
  Q 669.26 617.91 670.99 616.00
  Q 677.46 608.92 685.80 604.84
  C 696.07 599.82 697.99 611.02 697.18 618.00
  Q 695.68 631.10 692.05 645.28
  Q 686.58 666.59 681.74 683.25
  Q 660.20 757.36 634.89 835.92
  Q 630.90 848.32 627.84 857.07
  C 627.10 859.19 625.83 859.98 623.63 860.69
  Q 607.42 865.90 591.63 874.62
  C 588.11 876.56 575.89 883.41 579.88 888.48
  C 583.65 893.27 590.42 893.77 595.91 893.39
  Q 608.94 892.48 612.02 892.73
  Q 617.66 893.20 618.59 899.42
  Q 619.96 908.58 620.82 913.12
  C 622.08 919.79 627.45 925.38 632.95 917.45
  Q 636.12 912.89 637.88 907.59
  Q 640.72 899.02 643.35 890.38
  C 643.98 888.29 647.05 881.75 649.77 880.70
  C 660.06 876.68 672.54 896.24 677.56 904.00
  Q 678.48 905.43 680.78 908.10
  A 1.23 1.22 -36.5 0 0 682.37 908.33
  C 691.93 902.25 693.22 891.65 687.95 882.26
  C 683.27 873.93 678.41 868.92 670.85 860.36
  C 659.85 847.91 657.86 831.24 660.98 815.23
  C 666.13 788.75 678.23 763.56 689.58 739.01
  C 695.55 726.09 698.68 711.85 702.99 698.22
  Q 713.42 665.26 723.56 632.21
  C 725.18 626.94 726.65 624.63 732.17 624.10
  Q 743.69 622.98 748.82 631.28
  C 753.30 638.54 751.33 652.77 749.13 660.38
  Q 745.08 674.42 738.67 690.69
  C 723.43 729.41 713.56 752.05 692.21 802.95
  Q 685.43 819.10 681.08 831.31
  Q 679.24 836.48 679.34 839.43
  Q 679.40 841.48 681.78 844.61
  C 690.64 856.27 697.72 864.85 705.05 875.86
  Q 711.07 884.90 711.39 895.78
  Q 711.42 896.75 710.78 897.79
  Q 701.94 912.24 698.05 918.29
  C 695.02 923.00 691.85 927.22 686.53 929.08
  C 680.00 931.35 667.81 917.55 663.36 913.60
  Q 662.89 913.19 662.57 913.74
  Z"
/>
<path fill="#ffffff" d="
  M 1070.57 868.67
  A 1.30 1.29 -61.1 0 0 1071.02 870.24
  Q 1087.72 882.01 1104.65 889.59
  C 1112.90 893.28 1122.79 896.64 1132.34 897.70
  C 1134.77 897.97 1138.87 898.23 1141.88 899.55
  Q 1150.10 903.16 1154.56 910.17
  C 1159.61 918.10 1159.12 927.98 1150.40 933.20
  C 1138.80 940.13 1120.01 937.05 1106.94 933.31
  Q 1098.16 930.80 1092.96 929.06
  Q 1091.99 928.74 1091.46 928.66
  A 0.95 0.95 0.0 0 0 1090.57 930.18
  Q 1092.40 932.54 1095.38 935.60
  Q 1104.24 944.69 1120.53 962.02
  Q 1131.48 973.68 1137.46 987.63
  Q 1139.26 991.83 1139.70 996.31
  C 1141.13 1010.53 1132.00 1018.41 1119.01 1020.98
  C 1102.13 1024.31 1084.48 1021.64 1068.16 1016.10
  Q 1063.69 1014.59 1059.63 1012.04
  C 1058.27 1011.18 1057.32 1010.25 1057.56 1008.47
  C 1058.24 1003.48 1059.68 998.72 1060.36 994.87
  Q 1061.11 990.61 1061.34 983.59
  C 1061.76 971.00 1061.93 958.02 1058.77 946.26
  C 1049.34 911.09 1024.79 880.60 994.90 860.69
  Q 988.88 856.68 980.09 851.86
  A 0.88 0.87 -53.5 0 1 979.89 850.49
  C 984.48 845.72 990.06 840.87 1000.22 831.97
  Q 1058.24 781.19 1108.72 727.22
  C 1125.60 709.17 1141.70 689.48 1154.73 668.22
  Q 1159.43 660.55 1168.51 661.09
  C 1185.21 662.07 1198.42 674.96 1200.74 691.28
  C 1204.07 714.63 1187.29 741.02 1173.48 758.67
  Q 1169.30 764.00 1160.33 773.72
  Q 1145.12 790.18 1140.37 795.12
  Q 1105.70 831.21 1071.33 867.59
  Q 1070.78 868.18 1070.57 868.67
  Z"
/>
<path fill="#060606" d="
  M 878.27 833.98
  C 864.18 837.70 855.81 816.30 852.72 805.54
  C 851.96 802.92 851.81 800.44 855.25 800.23
  Q 861.28 799.85 868.57 800.14
  Q 869.65 800.19 870.86 800.65
  C 878.34 803.52 888.12 809.30 891.07 817.11
  C 894.22 825.48 885.32 832.11 878.27 833.98
  Z"
/>
<path fill="#060606" d="
  M 870.96 931.98
  C 874.80 926.08 884.17 913.36 891.74 912.31
  C 903.31 910.72 901.75 939.94 901.42 946.19
  A 1.65 1.64 -89.1 0 1 899.81 947.75
  C 893.40 947.90 861.72 946.18 870.96 931.98
  Z"
/>
<path fill="#060606" d="
  M 844.48 1002.99
  C 840.54 1006.39 835.31 1010.34 830.16 1012.14
  C 825.85 1013.64 823.69 1011.45 822.21 1007.54
  Q 819.35 1000.01 819.50 991.25
  Q 819.52 990.06 820.87 987.57
  Q 825.19 979.56 834.44 974.95
  C 845.59 969.40 851.07 976.92 851.45 987.13
  Q 851.81 996.68 844.48 1002.99
  Z"
/>
<path fill="#060606" d="
  M 830.19 1047.58
  C 825.39 1043.40 824.42 1033.58 827.78 1028.09
  C 829.46 1025.34 833.52 1025.53 836.54 1026.27
  C 842.98 1027.85 853.44 1032.81 856.37 1039.36
  C 858.65 1044.43 853.89 1048.60 849.59 1050.07
  C 842.73 1052.41 835.83 1052.50 830.19 1047.58
  Z"
/>
<path fill="#ffffff" d="
  M 414.39 1131.55
  A 1.99 1.95 44.0 0 0 415.99 1131.54
  Q 417.44 1130.88 419.88 1128.86
  Q 424.80 1124.78 432.17 1116.67
  C 452.14 1094.69 469.06 1072.31 489.83 1045.72
  Q 490.43 1044.95 491.31 1045.38
  C 499.98 1049.57 509.09 1055.53 519.04 1062.11
  Q 520.49 1063.07 519.32 1064.36
  Q 475.42 1112.74 432.46 1153.20
  Q 422.99 1162.13 409.47 1172.94
  C 403.64 1177.60 396.93 1182.43 389.71 1184.66
  C 377.65 1188.39 362.71 1151.38 359.22 1142.02
  Q 351.22 1120.56 346.07 1098.90
  C 343.29 1087.22 341.31 1078.77 340.48 1068.31
  Q 340.35 1066.62 341.44 1064.81
  Q 341.71 1064.36 342.21 1064.23
  C 347.70 1062.85 361.72 1077.69 365.57 1081.90
  Q 370.72 1087.54 399.01 1117.50
  Q 405.42 1124.28 410.27 1128.79
  Q 412.23 1130.62 414.39 1131.55
  Z"
/>
<path fill="#060606" d="
  M 871.08 1078.35
  Q 877.02 1085.78 876.01 1096.03
  C 875.58 1100.42 872.16 1106.67 866.60 1103.33
  C 860.30 1099.53 857.04 1092.65 854.15 1085.86
  Q 853.17 1083.55 853.94 1081.45
  C 856.68 1073.94 865.98 1071.96 871.08 1078.35
  Z"
/>
</svg>
