<svg version="1.1" id="Layer_1" xmlns="http://www.w3.org/2000/svg" xmlns:xlink="http://www.w3.org/1999/xlink" x="0px" y="0px"
	 width="100%" viewBox="0 0 800 800" enable-background="new 0 0 800 800" xml:space="preserve">
<path fill="#FFFFFF" opacity="1.000000" stroke="none" 
	d="
M418.000000,801.000000 
	C278.666656,801.000000 139.833328,801.000000 1.000000,801.000000 
	C1.000000,534.333313 1.000000,267.666656 1.000000,1.000000 
	C267.666656,1.000000 534.333313,1.000000 801.000000,1.000000 
	C801.000000,267.666656 801.000000,534.333313 801.000000,801.000000 
	C673.500000,801.000000 546.000000,801.000000 418.000000,801.000000 
M262.420502,768.067444 
	C267.556091,770.027710 272.560364,772.501038 277.851105,773.854980 
	C295.881012,778.468872 313.888428,783.325378 332.142303,786.860962 
	C347.337158,789.804077 362.819763,791.997498 378.260498,792.737488 
	C395.296997,793.553894 412.435211,792.474976 429.521454,791.964722 
	C448.350067,791.402405 466.785004,788.078064 485.187805,784.140015 
	C513.670593,778.045044 540.986328,768.715942 567.269165,756.284607 
	C597.411255,742.027832 625.252625,724.253479 650.898926,702.830505 
	C668.309509,688.287109 684.639893,672.663879 698.906738,655.191406 
	C711.420654,639.865845 722.504639,623.314453 733.513550,606.832520 
	C747.804626,585.436768 758.209412,562.019592 767.024048,537.908508 
	C775.219666,515.490662 781.966064,492.645172 784.986816,468.903900 
	C787.320129,450.565369 789.888855,432.185638 790.726868,413.750305 
	C791.406860,398.792297 789.985840,383.701508 788.901978,368.712616 
	C788.065613,357.146942 786.941833,345.529999 784.826904,334.143707 
	C780.328186,309.923676 773.853882,286.183594 764.957031,263.169342 
	C755.872986,239.671005 744.708130,217.154282 731.231445,195.897659 
	C719.959229,178.118088 707.932922,160.755920 693.085266,145.697647 
	C678.346008,130.749344 664.041992,115.150436 647.841614,101.926147 
	C631.432373,88.531380 613.133301,77.388908 595.298218,65.820801 
	C576.161194,53.408298 555.149658,44.733147 533.784973,36.962746 
	C508.719910,27.846472 483.081299,20.957676 456.505280,18.007328 
	C443.154022,16.525127 429.794708,14.647771 416.396332,14.185185 
	C402.166138,13.693881 387.871063,14.380270 373.631378,15.092761 
	C362.833649,15.633032 351.953491,16.317438 341.334229,18.201450 
	C326.516022,20.830420 311.841736,24.374557 297.221222,27.993246 
	C263.131348,36.430763 231.390427,50.683445 201.270065,68.456406 
	C179.484528,81.311302 158.761719,95.981056 140.453674,113.419334 
	C124.303596,128.802200 108.687363,144.994812 94.723862,162.349335 
	C82.372459,177.700241 72.369797,194.984695 61.795040,211.709442 
	C50.578552,229.449142 42.319183,248.719238 35.134846,268.349518 
	C26.887873,290.883301 20.070328,313.908020 17.018599,337.815338 
	C14.740576,355.661469 12.499850,373.539032 11.191331,391.471802 
	C10.460534,401.487091 11.344094,411.667084 12.076660,421.730896 
	C13.099769,435.786011 13.841032,449.941528 16.199366,463.799408 
	C19.185968,481.349121 22.825653,498.885406 27.706089,515.993164 
	C35.950077,544.891602 47.957127,572.335754 63.047344,598.386597 
	C80.011345,627.672302 100.585892,654.220276 124.109566,678.472290 
	C130.638824,685.203735 137.737930,691.445557 145.011536,697.377441 
	C156.635590,706.857300 168.329849,716.301514 180.520294,725.026001 
	C205.590393,742.968201 233.017960,756.615601 262.420502,768.067444 
z"/>
<path fill="#0345FD" opacity="1.000000" stroke="none" 
	d="
M262.026581,768.004639 
	C233.017960,756.615601 205.590393,742.968201 180.520294,725.026001 
	C168.329849,716.301514 156.635590,706.857300 145.011536,697.377441 
	C137.737930,691.445557 130.638824,685.203735 124.109566,678.472290 
	C100.585892,654.220276 80.011345,627.672302 63.047344,598.386597 
	C47.957127,572.335754 35.950077,544.891602 27.706089,515.993164 
	C22.825653,498.885406 19.185968,481.349121 16.199366,463.799408 
	C13.841032,449.941528 13.099769,435.786011 12.076660,421.730896 
	C11.344094,411.667084 10.460534,401.487091 11.191331,391.471802 
	C12.499850,373.539032 14.740576,355.661469 17.018599,337.815338 
	C20.070328,313.908020 26.887873,290.883301 35.134846,268.349518 
	C42.319183,248.719238 50.578552,229.449142 61.795040,211.709442 
	C72.369797,194.984695 82.372459,177.700241 94.723862,162.349335 
	C108.687363,144.994812 124.303596,128.802200 140.453674,113.419334 
	C158.761719,95.981056 179.484528,81.311302 201.270065,68.456406 
	C231.390427,50.683445 263.131348,36.430763 297.221222,27.993246 
	C311.841736,24.374557 326.516022,20.830420 341.334229,18.201450 
	C351.953491,16.317438 362.833649,15.633032 373.631378,15.092761 
	C387.871063,14.380270 402.166138,13.693881 416.396332,14.185185 
	C429.794708,14.647771 443.154022,16.525127 456.505280,18.007328 
	C483.081299,20.957676 508.719910,27.846472 533.784973,36.962746 
	C555.149658,44.733147 576.161194,53.408298 595.298218,65.820801 
	C613.133301,77.388908 631.432373,88.531380 647.841614,101.926147 
	C664.041992,115.150436 678.346008,130.749344 693.085266,145.697647 
	C707.932922,160.755920 719.959229,178.118088 731.231445,195.897659 
	C744.708130,217.154282 755.872986,239.671005 764.957031,263.169342 
	C773.853882,286.183594 780.328186,309.923676 784.826904,334.143707 
	C786.941833,345.529999 788.065613,357.146942 788.901978,368.712616 
	C789.985840,383.701508 791.406860,398.792297 790.726868,413.750305 
	C789.888855,432.185638 787.320129,450.565369 784.986816,468.903900 
	C781.966064,492.645172 775.219666,515.490662 767.024048,537.908508 
	C758.209412,562.019592 747.804626,585.436768 733.513550,606.832520 
	C722.504639,623.314453 711.420654,639.865845 698.906738,655.191406 
	C684.639893,672.663879 668.309509,688.287109 650.898926,702.830505 
	C625.252625,724.253479 597.411255,742.027832 567.269165,756.284607 
	C540.986328,768.715942 513.670593,778.045044 485.187805,784.140015 
	C466.785004,788.078064 448.350067,791.402405 429.521454,791.964722 
	C412.435211,792.474976 395.296997,793.553894 378.260498,792.737488 
	C362.819763,791.997498 347.337158,789.804077 332.142303,786.860962 
	C313.888428,783.325378 295.881012,778.468872 277.851105,773.854980 
	C272.560364,772.501038 267.556091,770.027710 262.026581,768.004639 
M431.789520,244.646042 
	C378.737549,201.071976 318.422913,185.841171 251.360611,200.109131 
	C138.652908,224.088486 66.503494,339.411255 93.786522,451.321411 
	C108.375313,511.162048 142.938141,556.268860 196.522385,586.388916 
	C227.563553,603.837341 261.177307,612.487061 297.905182,611.973572 
	C310.477875,610.823853 323.290833,610.847534 335.583496,608.330261 
	C405.344849,594.044983 455.531372,554.326111 486.408783,490.219910 
	C487.822418,487.285004 489.443146,486.177887 492.725433,485.910797 
	C515.655579,484.044861 537.644958,478.437225 558.303223,468.180817 
	C605.857544,444.571167 633.136475,405.238495 645.875916,354.728180 
	C646.091492,353.873474 645.902954,352.916870 645.902954,351.676056 
	C608.097839,358.788971 570.740234,361.513550 533.693604,352.046844 
	C549.394836,347.357056 565.392944,343.360931 580.834229,337.814545 
	C621.324646,323.270660 656.127380,300.440826 682.022705,265.377228 
	C697.554565,244.346298 707.922729,220.966751 713.721375,195.260056 
	C712.277222,195.159500 711.130920,195.010269 709.984619,195.009918 
	C670.499573,194.997955 631.013550,194.830750 591.529846,195.058853 
	C564.563354,195.214645 537.609741,196.042068 510.981140,201.017624 
	C481.106079,206.599762 455.148285,219.242889 435.250946,242.885254 
	C434.441437,243.847107 433.222107,244.464035 431.789520,244.646042 
z"/>
<path fill="#AD6544" opacity="1.000000" stroke="none" 
	d="
M432.193665,245.241669 
	C433.222107,244.464035 434.441437,243.847107 435.250946,242.885254 
	C455.148285,219.242889 481.106079,206.599762 510.981140,201.017624 
	C537.609741,196.042068 564.563354,195.214645 591.529846,195.058853 
	C631.013550,194.830750 670.499573,194.997955 709.984619,195.009918 
	C711.130920,195.010269 712.277222,195.159500 713.721375,195.260056 
	C707.922729,220.966751 697.554565,244.346298 682.022705,265.377228 
	C656.127380,300.440826 621.324646,323.270660 580.834229,337.814545 
	C565.392944,343.360931 549.394836,347.357056 533.693604,352.046844 
	C570.740234,361.513550 608.097839,358.788971 645.902954,351.676056 
	C645.902954,352.916870 646.091492,353.873474 645.875916,354.728180 
	C633.136475,405.238495 605.857544,444.571167 558.303223,468.180817 
	C537.644958,478.437225 515.655579,484.044861 492.725433,485.910797 
	C489.443146,486.177887 487.822418,487.285004 486.408783,490.219910 
	C455.531372,554.326111 405.344849,594.044983 335.583496,608.330261 
	C323.290833,610.847534 310.477875,610.823853 297.455994,611.527283 
	C312.828125,560.736633 328.680817,510.402130 344.440399,460.038452 
	C347.104675,451.524078 349.367767,442.884125 351.882141,433.988770 
	C354.343872,426.461456 356.739685,419.247589 359.381866,411.775299 
	C368.169067,386.550293 376.309540,361.437408 385.364990,336.658905 
	C394.147186,312.628235 404.157928,289.070984 417.840973,267.296356 
	C422.507263,259.870667 427.402863,252.589081 432.193665,245.241669 
z"/>
<path fill="#69984D" opacity="1.000000" stroke="none" 
	d="
M431.991577,244.943848 
	C427.402863,252.589081 422.507263,259.870667 417.840973,267.296356 
	C404.157928,289.070984 394.147186,312.628235 385.364990,336.658905 
	C376.309540,361.437408 368.169067,386.550293 359.333862,411.347107 
	C359.228088,408.523407 359.607697,405.867279 359.576691,403.215942 
	C359.120941,364.256012 324.566406,335.365295 286.226440,341.840759 
	C251.328964,347.734833 228.250366,381.271576 235.250153,415.917084 
	C242.248901,450.557495 276.666595,472.779236 310.897552,464.719971 
	C328.904633,460.480408 342.184235,449.832672 351.816223,434.302216 
	C349.367767,442.884125 347.104675,451.524078 344.440399,460.038452 
	C328.680817,510.402130 312.828125,560.736633 296.990723,611.461060 
	C261.177307,612.487061 227.563553,603.837341 196.522385,586.388916 
	C142.938141,556.268860 108.375313,511.162048 93.786522,451.321411 
	C66.503494,339.411255 138.652908,224.088486 251.360611,200.109131 
	C318.422913,185.841171 378.737549,201.071976 431.991577,244.943848 
z"/>
<path fill="#FDFDFC" opacity="1.000000" stroke="none" 
	d="
M351.882141,433.988770 
	C342.184235,449.832672 328.904633,460.480408 310.897552,464.719971 
	C276.666595,472.779236 242.248901,450.557495 235.250153,415.917084 
	C228.250366,381.271576 251.328964,347.734833 286.226440,341.840759 
	C324.566406,335.365295 359.120941,364.256012 359.576691,403.215942 
	C359.607697,405.867279 359.228088,408.523407 359.087463,411.605530 
	C356.739685,419.247589 354.343872,426.461456 351.882141,433.988770 
M274.549530,439.020355 
	C293.815491,450.492523 317.844025,445.878479 330.636688,428.250305 
	C343.372528,410.700470 340.537781,386.060638 324.144836,371.822327 
	C309.313110,358.940063 284.612091,358.381012 271.638428,370.633911 
	C282.156128,375.200562 284.073517,385.537292 279.919922,392.808258 
	C275.204376,401.062836 266.241364,402.458832 256.112762,396.556152 
	C251.510880,409.959015 259.192627,428.131378 274.549530,439.020355 
z"/>
<path fill="#020202" opacity="1.000000" stroke="none" 
	d="
M274.231842,438.844208 
	C259.192627,428.131378 251.510880,409.959015 256.112762,396.556152 
	C266.241364,402.458832 275.204376,401.062836 279.919922,392.808258 
	C284.073517,385.537292 282.156128,375.200562 271.638428,370.633911 
	C284.612091,358.381012 309.313110,358.940063 324.144836,371.822327 
	C340.537781,386.060638 343.372528,410.700470 330.636688,428.250305 
	C317.844025,445.878479 293.815491,450.492523 274.231842,438.844208 
M294.343964,408.250183 
	C299.322113,409.143555 302.364502,407.675629 303.276306,403.730927 
	C304.187256,399.790009 302.800598,396.778900 298.906616,395.430237 
	C295.195618,394.144958 292.267273,395.705139 290.669464,399.062927 
	C288.912964,402.754211 290.236572,405.800720 294.343964,408.250183 
M276.231842,411.921448 
	C270.475922,412.183868 266.834442,415.677155 268.654907,419.971100 
	C269.592346,422.182251 272.460083,424.293762 274.875916,424.988190 
	C278.356171,425.988586 280.938538,423.588715 281.732697,420.149841 
	C282.644897,416.199829 280.773560,413.476379 276.231842,411.921448 
z"/>
<path fill="#F3F3F3" opacity="1.000000" stroke="none" 
	d="
M293.987000,408.112366 
	C290.236572,405.800720 288.912964,402.754211 290.669464,399.062927 
	C292.267273,395.705139 295.195618,394.144958 298.906616,395.430237 
	C302.800598,396.778900 304.187256,399.790009 303.276306,403.730927 
	C302.364502,407.675629 299.322113,409.143555 293.987000,408.112366 
z"/>
<path fill="#F6F6F6" opacity="1.000000" stroke="none" 
	d="
M276.627899,411.977051 
	C280.773560,413.476379 282.644897,416.199829 281.732697,420.149841 
	C280.938538,423.588715 278.356171,425.988586 274.875916,424.988190 
	C272.460083,424.293762 269.592346,422.182251 268.654907,419.971100 
	C266.834442,415.677155 270.475922,412.183868 276.627899,411.977051 
z"/>
</svg>