<?xml version="1.0" encoding="UTF-8"?>
<!DOCTYPE svg PUBLIC "-//W3C//DTD SVG 1.1//EN" "http://www.w3.org/Graphics/SVG/1.1/DTD/svg11.dtd">
<svg xmlns="http://www.w3.org/2000/svg" version="1.1" width="128px" height="128px" style="shape-rendering:geometricPrecision; text-rendering:geometricPrecision; image-rendering:optimizeQuality; fill-rule:evenodd; clip-rule:evenodd" xmlns:xlink="http://www.w3.org/1999/xlink">
<g><path style="opacity:0.99" fill="#10181a" d="M 91.5,-0.5 C 96.5,-0.5 101.5,-0.5 106.5,-0.5C 116.5,3.5 123.5,10.5 127.5,20.5C 127.5,25.5 127.5,30.5 127.5,35.5C 126.323,37.6794 125.323,40.0128 124.5,42.5C 116.259,54.2769 104.926,58.9436 90.5,56.5C 86.7128,54.7721 83.0461,52.7721 79.5,50.5C 78.1363,48.8089 76.803,47.1423 75.5,45.5C 73.2597,42.1204 71.5931,38.4537 70.5,34.5C 69.7386,27.4707 70.7386,20.8041 73.5,14.5C 76.4863,9.84831 80.1529,5.84831 84.5,2.5C 86.8546,1.34143 89.1879,0.341426 91.5,-0.5 Z"/></g>
<g><path style="opacity:0.996" fill="#fad86a" d="M 52.5,-0.5 C 59.8333,-0.5 67.1667,-0.5 74.5,-0.5C 77.7263,0.488727 81.0596,1.48873 84.5,2.5C 80.1529,5.84831 76.4863,9.84831 73.5,14.5C 67.2134,15.1202 61.0467,15.4535 55,15.5C 50.8858,13.5747 46.8858,13.5747 43,15.5C 42.6667,14.8333 42.3333,14.1667 42,13.5C 41.196,14.8045 40.0293,15.4712 38.5,15.5C 34.9465,14.2786 31.4465,14.2786 28,15.5C 27.6667,14.8333 27.3333,14.1667 27,13.5C 24.8063,15.1778 22.3063,16.1778 19.5,16.5C 28.9893,7.9219 39.9893,2.25524 52.5,-0.5 Z"/></g>
<g><path style="opacity:1" fill="#e4e5e5" d="M 93.5,11.5 C 110.41,11.0135 117.243,19.0135 114,35.5C 104.72,47.876 94.7204,48.5427 84,37.5C 82.9914,35.9751 82.4914,34.3084 82.5,32.5C 85.595,32.6263 87.4283,34.293 88,37.5C 90.3974,39.7823 93.2307,41.1156 96.5,41.5C 96.762,40.0222 96.4287,38.6888 95.5,37.5C 89.8574,34.5 88.0241,29.8334 90,23.5C 95.5065,16.9021 101.007,16.9021 106.5,23.5C 105.833,23.8333 105.167,24.1667 104.5,24.5C 96.3127,20.1668 92.4794,22.5001 93,31.5C 96.4242,35.0756 100.258,35.4089 104.5,32.5C 105.167,32.8333 105.833,33.1667 106.5,33.5C 105.055,35.0627 103.389,36.396 101.5,37.5C 100.571,38.6888 100.238,40.0222 100.5,41.5C 110.242,38.6862 113.742,32.3528 111,22.5C 105.818,14.5509 98.9847,12.7176 90.5,17C 88.2589,18.7391 86.5922,20.9058 85.5,23.5C 84.675,24.3857 83.675,24.719 82.5,24.5C 82.8406,21.4842 84.0073,18.8175 86,16.5C 88.4795,14.6859 90.9795,13.0192 93.5,11.5 Z"/></g>
<g><path style="opacity:0.997" fill="#f5cc62" d="M 73.5,14.5 C 70.7386,20.8041 69.7386,27.4707 70.5,34.5C 68.2856,34.7093 66.619,33.876 65.5,32C 67.1703,29.0408 67.5036,26.0408 66.5,23C 60.3417,21.5027 57.675,24.0027 58.5,30.5C 54.1429,29.8215 49.8096,29.3215 45.5,29C 43.8446,30.4443 43.178,32.2776 43.5,34.5C 42.2505,33.2225 40.7505,32.2225 39,31.5C 33.2261,32.3226 27.0595,32.3226 20.5,31.5C 18.287,34.0801 16.1203,34.0801 14,31.5C 12.6012,31.5012 11.1012,31.8346 9.5,32.5C 8.70245,32.0431 8.36912,31.3764 8.5,30.5C 11.4347,25.235 15.1014,20.5683 19.5,16.5C 22.3063,16.1778 24.8063,15.1778 27,13.5C 27.3333,14.1667 27.6667,14.8333 28,15.5C 31.4465,14.2786 34.9465,14.2786 38.5,15.5C 40.0293,15.4712 41.196,14.8045 42,13.5C 42.3333,14.1667 42.6667,14.8333 43,15.5C 46.8858,13.5747 50.8858,13.5747 55,15.5C 61.0467,15.4535 67.2134,15.1202 73.5,14.5 Z"/></g>
<g><path style="opacity:1" fill="#fefcfa" d="M 70.5,34.5 C 71.5931,38.4537 73.2597,42.1204 75.5,45.5C 69.5317,46.9921 63.5317,48.4921 57.5,50C 55.5561,52.1529 55.0561,54.6529 56,57.5C 57.2991,58.9797 58.9658,59.6464 61,59.5C 66.5482,58.2556 72.0482,56.7556 77.5,55C 79.0368,53.8904 79.7035,52.3904 79.5,50.5C 83.0461,52.7721 86.7128,54.7721 90.5,56.5C 90.16,58.679 89.16,60.5123 87.5,62C 84.8742,64.1457 81.8742,65.479 78.5,66C 83.0837,68.3542 86.4171,71.8542 88.5,76.5C 89.2959,83.7883 86.9626,89.7883 81.5,94.5C 76.9687,96.5957 72.302,96.9291 67.5,95.5C 66.0512,98.3713 64.3846,101.205 62.5,104C 60.735,104.64 59.0683,104.473 57.5,103.5C 56.4259,100.258 56.7592,97.0912 58.5,94C 56.3502,92.4101 54.0168,91.7434 51.5,92C 50.7289,94.577 49.7289,97.077 48.5,99.5C 46.9017,100.485 45.235,100.651 43.5,100C 42.461,96.5146 42.2943,93.0146 43,89.5C 38.8464,88.1034 34.6797,86.7701 30.5,85.5C 29.0515,82.9486 29.3848,80.6152 31.5,78.5C 34.0963,77.7871 36.7629,77.7871 39.5,78.5C 39.8511,75.0968 40.5178,71.7635 41.5,68.5C 43.163,62.5163 44.8297,56.5163 46.5,50.5C 47.8083,46.2238 48.8083,41.8905 49.5,37.5C 46.6874,37.9754 44.6874,36.9754 43.5,34.5C 43.178,32.2776 43.8446,30.4443 45.5,29C 49.8096,29.3215 54.1429,29.8215 58.5,30.5C 57.675,24.0027 60.3417,21.5027 66.5,23C 67.5036,26.0408 67.1703,29.0408 65.5,32C 66.619,33.876 68.2856,34.7093 70.5,34.5 Z"/></g>
<g><path style="opacity:1" fill="#e86a07" d="M 96.5,24.5 C 101.328,24.3852 102.661,26.5519 100.5,31C 95.5705,31.427 94.2372,29.2604 96.5,24.5 Z"/></g>
<g><path style="opacity:0.992" fill="#f1c057" d="M 8.5,30.5 C 8.36912,31.3764 8.70245,32.0431 9.5,32.5C 11.1012,31.8346 12.6012,31.5012 14,31.5C 16.1203,34.0801 18.287,34.0801 20.5,31.5C 27.0595,32.3226 33.2261,32.3226 39,31.5C 40.7505,32.2225 42.2505,33.2225 43.5,34.5C 44.6874,36.9754 46.6874,37.9754 49.5,37.5C 48.8083,41.8905 47.8083,46.2238 46.5,50.5C 41.53,49.8409 36.3633,49.5075 31,49.5C 29.6841,52.028 28.5174,52.028 27.5,49.5C 25.259,50.6399 23.0923,50.6399 21,49.5C 20.6924,50.3081 20.1924,50.9747 19.5,51.5C 17.5,50.8333 15.5,50.1667 13.5,49.5C 9.62992,50.4339 5.96326,50.4339 2.5,49.5C 1.81815,50.2427 1.15149,50.9094 0.5,51.5C 1.60943,43.8288 4.2761,36.8288 8.5,30.5 Z"/></g>
<g><path style="opacity:1" fill="#eeba56" d="M 75.5,45.5 C 76.803,47.1423 78.1363,48.8089 79.5,50.5C 79.7035,52.3904 79.0368,53.8904 77.5,55C 72.0482,56.7556 66.5482,58.2556 61,59.5C 58.9658,59.6464 57.2991,58.9797 56,57.5C 55.0561,54.6529 55.5561,52.1529 57.5,50C 63.5317,48.4921 69.5317,46.9921 75.5,45.5 Z"/></g>
<g><path style="opacity:0.999" fill="#ebb44d" d="M 46.5,50.5 C 44.8297,56.5163 43.163,62.5163 41.5,68.5C 27.0406,68.4701 13.0406,68.1368 -0.5,67.5C -0.5,62.5 -0.5,57.5 -0.5,52.5C 0.166667,52.5 0.5,52.1667 0.5,51.5C 1.15149,50.9094 1.81815,50.2427 2.5,49.5C 5.96326,50.4339 9.62992,50.4339 13.5,49.5C 15.5,50.1667 17.5,50.8333 19.5,51.5C 20.1924,50.9747 20.6924,50.3081 21,49.5C 23.0923,50.6399 25.259,50.6399 27.5,49.5C 28.5174,52.028 29.6841,52.028 31,49.5C 36.3633,49.5075 41.53,49.8409 46.5,50.5 Z"/></g>
<g><path style="opacity:0.992" fill="#e7a945" d="M -0.5,67.5 C 13.0406,68.1368 27.0406,68.4701 41.5,68.5C 40.5178,71.7635 39.8511,75.0968 39.5,78.5C 36.7629,77.7871 34.0963,77.7871 31.5,78.5C 29.3848,80.6152 29.0515,82.9486 30.5,85.5C 21.704,85.0987 12.704,85.0987 3.5,85.5C 1.76477,81.9594 0.431442,78.2927 -0.5,74.5C -0.5,72.1667 -0.5,69.8333 -0.5,67.5 Z"/></g>
<g><path style="opacity:0.997" fill="#e8ae49" d="M 124.5,42.5 C 125.511,45.9404 126.511,49.2737 127.5,52.5C 127.5,59.8333 127.5,67.1667 127.5,74.5C 126.596,75.209 126.263,76.209 126.5,77.5C 113.511,76.6979 100.844,76.3645 88.5,76.5C 86.4171,71.8542 83.0837,68.3542 78.5,66C 81.8742,65.479 84.8742,64.1457 87.5,62C 89.16,60.5123 90.16,58.679 90.5,56.5C 104.926,58.9436 116.259,54.2769 124.5,42.5 Z"/></g>
<g><path style="opacity:1" fill="#e7aa49" d="M 66.5,68.5 C 72.8607,69.3905 74.5274,72.5571 71.5,78C 67.1203,79.1783 62.7869,80.5117 58.5,82C 55.5706,82.7772 52.7372,82.6105 50,81.5C 47.7091,78.1653 48.2091,75.332 51.5,73C 56.6641,71.6774 61.6641,70.1774 66.5,68.5 Z"/></g>
<g><path style="opacity:0.998" fill="#e19d3c" d="M 30.5,85.5 C 34.6797,86.7701 38.8464,88.1034 43,89.5C 42.2943,93.0146 42.461,96.5146 43.5,100C 45.235,100.651 46.9017,100.485 48.5,99.5C 49.7289,97.077 50.7289,94.577 51.5,92C 54.0168,91.7434 56.3502,92.4101 58.5,94C 56.7592,97.0912 56.4259,100.258 57.5,103.5C 42.8649,104.135 28.1983,104.135 13.5,103.5C 8.62968,98.4326 5.29635,92.4326 3.5,85.5C 12.704,85.0987 21.704,85.0987 30.5,85.5 Z"/></g>
<g><path style="opacity:0.991" fill="#e3a13f" d="M 88.5,76.5 C 100.844,76.3645 113.511,76.6979 126.5,77.5C 125.088,83.0708 123.088,88.4042 120.5,93.5C 117.193,94.1184 113.693,94.1184 110,93.5C 109.125,95.5127 107.791,95.5127 106,93.5C 102.329,94.3887 98.8287,94.3887 95.5,93.5C 93.9411,94.0736 92.4411,94.7402 91,95.5C 90.6924,94.6919 90.1924,94.0253 89.5,93.5C 87.1536,94.0147 84.487,94.348 81.5,94.5C 86.9626,89.7883 89.2959,83.7883 88.5,76.5 Z"/></g>
<g><path style="opacity:0.995" fill="#de9434" d="M 120.5,93.5 C 117.889,97.9507 115.056,102.284 112,106.5C 109.584,109.423 106.75,111.757 103.5,113.5C 102.279,112.972 101.113,112.305 100,111.5C 99.6667,112.167 99.3333,112.833 99,113.5C 89.0649,112.296 79.0649,112.296 69,113.5C 68.3333,110.833 67.6667,110.833 67,113.5C 52.9177,112.236 38.4177,112.236 23.5,113.5C 19.1667,111.167 15.8333,107.833 13.5,103.5C 28.1983,104.135 42.8649,104.135 57.5,103.5C 59.0683,104.473 60.735,104.64 62.5,104C 64.3846,101.205 66.0512,98.3713 67.5,95.5C 72.302,96.9291 76.9687,96.5957 81.5,94.5C 84.487,94.348 87.1536,94.0147 89.5,93.5C 90.1924,94.0253 90.6924,94.6919 91,95.5C 92.4411,94.7402 93.9411,94.0736 95.5,93.5C 98.8287,94.3887 102.329,94.3887 106,93.5C 107.791,95.5127 109.125,95.5127 110,93.5C 113.693,94.1184 117.193,94.1184 120.5,93.5 Z"/></g>
<g><path style="opacity:0.938" fill="#da892b" d="M 103.5,113.5 C 99.2413,117.641 94.2413,120.808 88.5,123C 83.746,124.642 79.0793,126.142 74.5,127.5C 67.1667,127.5 59.8333,127.5 52.5,127.5C 41.6671,125.25 32.0004,120.584 23.5,113.5C 38.4177,112.236 52.9177,112.236 67,113.5C 67.6667,110.833 68.3333,110.833 69,113.5C 79.0649,112.296 89.0649,112.296 99,113.5C 99.3333,112.833 99.6667,112.167 100,111.5C 101.113,112.305 102.279,112.972 103.5,113.5 Z"/></g>
</svg>
