<svg width="32" height="32" viewBox="0 0 32 32" fill="none" xmlns="http://www.w3.org/2000/svg">
<g clip-path="url(#clip0_387_443081)">
<path d="M25.4791 19.7204C24.8058 22.0421 23.4975 24.1296 21.7017 25.7478C19.9059 27.366 17.6939 28.4506 15.315 28.8795V25.1802C16.1923 24.8461 16.9817 24.3161 17.6233 23.6308C17.9797 23.2484 18.2844 22.8209 18.5294 22.3592C18.9959 21.4797 19.2374 20.4983 19.2322 19.5027C19.2322 16.2324 16.8713 14.9248 14.6579 13.9551L13.537 13.4597C12.3386 12.9222 11.4219 12.4441 11.4219 11.6257C11.4219 10.4945 12.4091 9.88654 13.3402 9.88654C14.331 9.88654 14.8931 10.2522 15.4868 11.2814L15.9471 12.0789L18.9089 10.1782L18.5229 9.4616C17.8437 8.16649 16.6967 7.1787 15.3152 6.6991V3.3061C15.6032 3.35526 15.8878 3.41843 16.176 3.49236C16.204 3.49947 16.2357 3.50638 16.2674 3.51268C16.2995 3.51879 16.3312 3.527 16.3623 3.53726C16.3719 3.53837 16.3813 3.54076 16.3903 3.54436C16.4677 3.56468 16.5483 3.58296 16.6292 3.60754C18.2683 4.08436 19.7975 4.87938 21.1293 5.9472C22.4612 7.01502 23.5697 8.33474 24.3915 9.83097C25.2133 11.3272 25.7323 12.9707 25.9189 14.6675C26.1056 16.3644 25.9561 18.0813 25.4791 19.7204V19.7204Z" fill="#745DDF"/>
<path d="M15.5957 19.682C15.5957 21.1717 14.25 22.0921 13.0063 22.0921C11.5131 22.0921 10.6594 20.8589 10.4943 19.7135L10.3537 18.7192L6.77016 19.7283L6.93266 20.5294C7.44555 23.0555 9.17069 24.872 11.5141 25.4201V29.0001C10.8784 28.9257 10.249 28.8047 9.63097 28.6382C9.54322 28.6179 9.45872 28.5925 9.37097 28.5679C6.66982 27.7814 4.29649 26.1403 2.60693 23.8908C0.917364 21.6413 0.00265801 18.9047 0 16.0913L0 3.60119C0.00016127 3.46521 0.0542496 3.33485 0.1504 3.2387C0.246551 3.14254 0.376913 3.08846 0.512891 3.08829H11.5133V6.66492C10.2261 7.03764 9.12926 7.88692 8.44614 9.03986C8.00803 9.80664 7.78016 10.6755 7.78558 11.5586V11.6289C7.82031 14.5454 9.96389 15.7645 11.9876 16.6814L13 17.1206L13.0843 17.1592C14.6894 17.8937 15.5957 18.3749 15.5957 19.682Z" fill="#2EB6EA"/>
<path d="M19.2323 19.5026C19.2374 20.4982 18.9961 21.4795 18.5297 22.359C18.2845 22.8208 17.9797 23.2484 17.6231 23.6308C16.9815 24.316 16.192 24.8457 15.3148 25.1798L15.3164 28.897L14.2774 28.9888C14.2774 28.9888 12.0494 29.0556 11.5188 28.9888L11.5133 25.4193C9.17006 24.871 7.44492 23.0547 6.93203 20.5282L6.76953 19.7271L10.3531 18.7188L10.4936 19.7131C10.6596 20.8589 11.5133 22.0923 13.0065 22.0923C14.2502 22.0923 15.5959 21.1717 15.5959 19.6822C15.5959 18.3753 14.6894 17.8947 13.0839 17.1596L12.9996 17.121L11.9878 16.6818C9.96408 15.7645 7.82091 14.5454 7.78577 11.6293V11.559C7.78035 10.6759 8.00822 9.80707 8.44633 9.04029C9.12932 7.88723 10.2261 7.03781 11.5133 6.66494V3.08466C13.8566 3.06476 14.0359 3.07857 15.3148 3.30323V6.70009C16.6963 7.17969 17.8433 8.16748 18.5225 9.46259L18.9085 10.1792L15.9473 12.0782L15.487 11.2808C14.8933 10.2513 14.3311 9.8859 13.3404 9.8859C12.4093 9.8859 11.4221 10.4936 11.4221 11.6251C11.4221 12.4436 12.339 12.9214 13.5372 13.4591L14.6577 13.9551C16.8717 14.9248 19.2323 16.2317 19.2323 19.5026Z" fill="white"/>
</g>
<path fill-rule="evenodd" clip-rule="evenodd" d="M23.6706 0.0287335C23.3202 0.0918451 23.0513 0.186592 22.6659 0.382688C22.1903 0.624738 21.8076 0.915071 21.3019 1.41776C19.7221 2.988 18.5461 5.35062 18.0715 7.90751C18.007 8.25496 18.0004 8.38272 18 9.29476C17.9996 10.2241 18.0047 10.3197 18.0676 10.5714C18.2567 11.3286 18.4762 11.7514 18.9137 12.2009C19.2617 12.5584 19.237 12.5449 20.9548 13.3216C22.466 14.0048 22.4372 13.9954 23.0081 13.995C23.428 13.9947 23.5029 13.9858 23.7548 13.907C24.1313 13.7891 24.5317 13.5897 24.8969 13.3384L25.1989 13.1305L25.7991 13.1089C28.1821 13.0231 29.8917 12.7109 30.8948 12.1785C31.3718 11.9254 31.8241 11.4595 31.9219 11.1208C31.9706 10.9521 32.0019 7.7957 31.958 7.47999C31.9128 7.15483 31.7822 6.89715 31.5346 6.64455C31.1098 6.21128 30.3489 5.86118 29.3397 5.63476L29.0757 5.57554L29.0738 4.73241C29.0722 3.98636 29.064 3.85188 29.0031 3.56439C28.8335 2.76278 28.5641 2.21133 28.1287 1.77472C27.9524 1.59785 27.854 1.53432 27.4259 1.32082C26.5671 0.89246 24.8565 0.144018 24.5553 0.064738C24.2867 -0.00593168 23.9411 -0.0199955 23.6706 0.0287335ZM24.7504 1.10724C25.1909 1.28829 26.187 1.73093 26.9281 2.07506C27.2783 2.23767 27.3601 2.29067 27.538 2.47016C27.7821 2.71657 27.9516 3.04757 28.0851 3.53849C28.1703 3.85204 28.1717 3.87188 28.1704 4.71845C28.1694 5.3789 28.1568 5.65185 28.1164 5.89008C28.0387 6.34822 28.0272 6.31716 28.2892 6.3604C29.5493 6.56839 30.4586 6.87709 30.8492 7.22945C31.0946 7.4509 31.0815 7.34027 31.0813 9.18952C31.0812 11.073 31.1023 10.9261 30.7969 11.1676C30.0328 11.7719 27.8413 12.196 25.4797 12.1966L24.9335 12.1968L24.6086 12.4359C24.2345 12.7111 23.7515 12.9672 23.4592 13.045C23.1815 13.1191 22.8037 13.1187 22.5881 13.0441C22.3997 12.9789 20.5184 12.1365 20.0036 11.8868C19.728 11.753 19.6501 11.6974 19.4855 11.5162C19.252 11.2593 19.0753 10.9045 18.9569 10.4547C18.8769 10.1507 18.8741 10.1113 18.8757 9.3107C18.877 8.60464 18.8872 8.42472 18.9446 8.09886C19.3567 5.75585 20.4858 3.47171 21.94 2.03922C22.6874 1.30296 23.475 0.890515 24.0815 0.917781C24.2787 0.926647 24.3822 0.955986 24.7504 1.10724ZM24.6578 3.38041C24.1664 3.77904 23.7567 4.37584 23.3044 5.07061C23.0695 5.43152 22.7748 6.21989 22.7748 6.27787C22.7748 6.29078 22.7993 6.29372 22.8292 6.28441C22.9291 6.25338 23.53 6.20286 24.1868 6.17033C24.553 6.15219 24.9152 6.15812 24.9378 6.13895C24.9816 6.10167 25.0779 5.42805 25.1552 4.97357C25.2135 4.63107 25.3479 3.6747 25.3111 3.43144C25.2967 3.3364 25.206 3.02027 25.1867 3.01367C25.1674 3.0071 24.7925 3.27115 24.6578 3.38041Z" fill="white"/>
<path fill-rule="evenodd" clip-rule="evenodd" d="M30.0787 10.3364C30.0709 10.3424 30.0631 10.3489 30.055 10.3545C30.0472 10.3606 30.039 10.3663 30.0308 10.3724C30.0156 10.3834 30 10.394 29.9841 10.4042C29.9822 10.4054 29.9804 10.4065 29.9785 10.408C29.9655 10.4163 29.9526 10.4247 29.9392 10.4327C29.9195 10.4448 29.9002 10.4562 29.8802 10.4675C29.7444 10.5449 29.6015 10.6071 29.4557 10.662C29.318 10.7136 29.1785 10.7587 29.0378 10.7989C28.8363 10.8565 28.6322 10.9043 28.4263 10.946C28.2263 10.9869 28.0255 11.0214 27.824 11.0514C27.6225 11.0813 27.4203 11.1064 27.2177 11.128C27.1512 11.1352 27.0848 11.1416 27.0184 11.1481C26.8852 11.1606 26.7519 11.1712 26.6187 11.1803C26.5519 11.1849 26.4851 11.189 26.4187 11.1928C26.2692 11.2015 26.1196 11.208 25.9701 11.2129C25.943 11.2137 25.9159 11.2148 25.8884 11.2156C25.8636 11.2163 25.8387 11.2171 25.8135 11.2178C25.8747 11.1405 25.9359 11.0635 25.992 10.982C26.0001 10.9718 26.0083 10.9615 26.0161 10.9509C26.1426 10.7773 26.2636 10.5998 26.3794 10.419C26.3913 10.4182 26.4031 10.4179 26.4146 10.4171C26.4881 10.4129 26.5616 10.408 26.6351 10.4031C26.6907 10.3993 26.7464 10.3951 26.802 10.3906C27.1913 10.3599 27.5791 10.3159 27.965 10.2541C28.0775 10.2363 28.1892 10.2165 28.3005 10.1957C28.561 10.1464 28.8193 10.0873 29.0738 10.0129C29.1299 9.99665 29.1855 9.97959 29.2412 9.96177C29.269 9.95267 29.2968 9.94357 29.3247 9.93409C29.3666 9.94167 29.4048 9.95949 29.4442 9.97428C29.4787 9.98717 29.5132 10.0008 29.5477 10.0148C29.6453 10.0543 29.741 10.0979 29.8338 10.1483C29.8705 10.168 29.9065 10.1889 29.9422 10.2109C29.9893 10.2401 30.0353 10.2708 30.0783 10.306C30.091 10.3163 30.0947 10.3204 30.0899 10.3265C30.0876 10.3295 30.0839 10.3326 30.078 10.3371L30.0787 10.3364Z" fill="#F1ECE2"/>
<path fill-rule="evenodd" clip-rule="evenodd" d="M29.3262 9.93371C29.2983 9.94319 29.2709 9.95229 29.2427 9.96139C29.187 9.97921 29.1313 9.99627 29.0753 10.0126C28.8204 10.0869 28.5625 10.146 28.302 10.1953C28.1906 10.2165 28.0786 10.2359 27.9665 10.2537C27.5806 10.3155 27.1928 10.3595 26.8035 10.3902C26.7479 10.3947 26.6922 10.3989 26.6365 10.4027C26.5631 10.4076 26.4896 10.4126 26.4161 10.4167C26.4042 10.4175 26.3927 10.4179 26.3809 10.4186C26.4606 10.2939 26.5382 10.1676 26.6132 10.0395C26.7215 9.85447 26.825 9.6668 26.9234 9.47648C27.1112 9.49316 27.2986 9.5125 27.4859 9.536C27.4997 9.53752 27.5134 9.54055 27.5275 9.54283C27.6114 9.54889 27.6945 9.56178 27.7772 9.5743C27.8838 9.59022 27.9903 9.60766 28.0964 9.62586C28.2396 9.6505 28.3829 9.6778 28.525 9.70927C28.6018 9.72633 28.6782 9.74377 28.7551 9.76083C28.7673 9.76765 28.7803 9.77031 28.794 9.77182C28.958 9.81467 29.1217 9.85978 29.2824 9.914C29.2972 9.91893 29.3143 9.92044 29.3258 9.93333L29.3262 9.93371Z" fill="#FDBF41"/>
<path fill-rule="evenodd" clip-rule="evenodd" d="M22.8519 12.0561C22.8374 12.0584 22.8229 12.0607 22.8088 12.0629C22.7532 12.0705 22.6975 12.0751 22.6415 12.0766C22.6229 12.077 22.604 12.0773 22.5854 12.077C22.5665 12.077 22.548 12.0762 22.529 12.0754C22.5209 12.0751 22.5131 12.0739 22.5049 12.0732C22.4971 12.0724 22.489 12.0713 22.4808 12.0705C22.4704 12.0698 22.4626 12.0652 22.4548 12.0584C22.4326 12.0379 22.4114 12.0167 22.3906 11.9947C22.5443 12.0174 22.6979 12.0379 22.8519 12.0565V12.0561Z" fill="#F1ECE2"/>
<path fill-rule="evenodd" clip-rule="evenodd" d="M25.2684 9.40558C25.1578 9.40558 25.0473 9.4071 24.9367 9.40899C24.7526 9.70054 24.5541 9.98186 24.3374 10.2492C24.2917 10.3053 24.2457 10.3606 24.1986 10.4152C24.0798 10.5536 23.9559 10.6871 23.826 10.8144C23.7121 10.9259 23.5945 11.0324 23.4716 11.1325C23.3759 11.211 23.2768 11.2857 23.174 11.3551C22.9848 11.4832 22.7862 11.5936 22.5725 11.6739C22.4641 11.7145 22.3536 11.7475 22.2393 11.7668C22.2329 11.768 22.227 11.7706 22.2207 11.7725C22.2211 11.7744 22.2218 11.7767 22.2222 11.7786C22.2226 11.7797 22.2229 11.7809 22.2237 11.782C22.2318 11.7949 22.24 11.8074 22.2485 11.8195C22.2656 11.8445 22.2834 11.8688 22.3016 11.8923C22.3291 11.9276 22.3584 11.9617 22.3892 11.9943C22.5428 12.0171 22.6964 12.0375 22.8504 12.0561C22.8916 12.0497 22.9324 12.0413 22.9729 12.0315C23.0668 12.0087 23.1581 11.9788 23.2475 11.9435C23.292 11.9257 23.3362 11.9067 23.3796 11.8862C23.423 11.8658 23.4661 11.8442 23.5087 11.821C23.5273 11.8112 23.5455 11.8009 23.564 11.7907C23.6917 11.7191 23.8141 11.6387 23.9314 11.5522C24.049 11.4654 24.1618 11.3721 24.2713 11.2743C24.2869 11.2603 24.3025 11.2463 24.3181 11.2319C24.3296 11.2212 24.3407 11.2106 24.3526 11.1996C24.4227 11.134 24.4917 11.0666 24.5589 10.9976C24.5849 10.9706 24.6105 10.9437 24.6361 10.916C24.7203 10.8258 24.8023 10.7337 24.8821 10.6393C24.93 10.5828 24.9767 10.5252 25.0228 10.4672C25.0283 10.4603 25.0339 10.4531 25.0395 10.4459C25.071 10.4057 25.1022 10.3652 25.1333 10.3242C25.2309 10.1953 25.3248 10.0638 25.4154 9.92954C25.4644 9.85675 25.5122 9.78357 25.5593 9.70964C25.5857 9.66794 25.6117 9.62623 25.6373 9.58453C25.6725 9.52728 25.707 9.46927 25.7412 9.41127C25.5835 9.40747 25.4261 9.40558 25.2684 9.40558Z" fill="#F1ECE2"/>
<path fill-rule="evenodd" clip-rule="evenodd" d="M24.3316 9.42871C24.2526 9.4325 24.1735 9.43705 24.0949 9.44198C24.0084 9.5671 23.919 9.69031 23.8255 9.8105C23.7338 9.92879 23.6399 10.0448 23.5412 10.1574C23.4852 10.2211 23.4288 10.2844 23.3709 10.3466C23.3301 10.3906 23.2885 10.4342 23.2458 10.4766C23.0762 10.6461 22.8985 10.8061 22.7074 10.9506C22.6755 10.9744 22.6436 10.9979 22.6109 11.0211C22.5037 11.0973 22.3927 11.1678 22.2773 11.2311C22.1938 11.2774 22.1077 11.3183 22.0205 11.3558C22.0212 11.36 22.0205 11.3646 22.0224 11.3687C22.0346 11.4032 22.0476 11.437 22.0617 11.4707C22.0754 11.5045 22.0903 11.5375 22.1059 11.5701C22.137 11.6353 22.1719 11.699 22.2098 11.7611L22.2105 11.7619C22.2131 11.7657 22.2176 11.7691 22.2209 11.7725C22.2272 11.7706 22.2331 11.768 22.2394 11.7668C22.3534 11.7475 22.464 11.7145 22.5727 11.6739C22.7864 11.5939 22.985 11.4832 23.1742 11.3551C23.277 11.2857 23.3761 11.211 23.4718 11.1325C23.5946 11.0321 23.7123 10.9255 23.8262 10.8144C23.9565 10.6871 24.08 10.5536 24.1988 10.4152C24.2459 10.3606 24.2919 10.3053 24.3376 10.2492C24.5543 9.98187 24.7528 9.70055 24.9369 9.409C24.735 9.41279 24.5327 9.41885 24.3312 9.42909L24.3316 9.42871Z" fill="#FDBF41"/>
<path fill-rule="evenodd" clip-rule="evenodd" d="M22.543 10.2332C22.5511 10.2347 22.5589 10.2359 22.5667 10.2374C22.412 10.3902 22.2494 10.5335 22.0761 10.6647C22.0131 10.7125 21.95 10.7602 21.8817 10.8008C21.8691 10.7451 21.8635 10.6882 21.8572 10.6313C21.8357 10.4501 21.8275 10.2681 21.8271 10.0861C21.8702 10.0967 21.9132 10.107 21.9567 10.1172C22.0832 10.1468 22.2101 10.1729 22.3374 10.1968C22.406 10.2097 22.4747 10.2219 22.5433 10.2336L22.543 10.2332Z" fill="#F1ECE2"/>
<path fill-rule="evenodd" clip-rule="evenodd" d="M23.2515 9.51591C23.2333 9.51818 23.2148 9.5197 23.1962 9.5216C23.0136 9.75893 22.8188 9.98528 22.6073 10.1972C22.5939 10.2109 22.5802 10.2241 22.5669 10.2374C22.5732 10.2385 22.5795 10.2397 22.5854 10.2408C22.5791 10.2397 22.5732 10.2385 22.5669 10.2378C22.4121 10.3906 22.2496 10.5339 22.0763 10.6651C22.0132 10.7128 21.9501 10.7606 21.8818 10.8012C21.8826 10.8088 21.8829 10.8167 21.8837 10.8243C21.8837 10.8266 21.8837 10.8285 21.8844 10.8307C21.8859 10.8395 21.8878 10.8482 21.8893 10.8569C21.8904 10.8641 21.8915 10.8709 21.893 10.8781C21.8963 10.8956 21.8996 10.9134 21.903 10.9312C21.9227 11.0313 21.946 11.1303 21.9753 11.2277C21.9887 11.2713 21.9995 11.316 22.021 11.357C22.1082 11.3194 22.1943 11.2785 22.2778 11.2322C22.3932 11.1686 22.5041 11.098 22.6114 11.0222C22.644 10.9995 22.676 10.976 22.7079 10.9517C22.899 10.8076 23.0767 10.6472 23.2463 10.4778C23.289 10.4353 23.3302 10.3917 23.3714 10.3477C23.4293 10.2855 23.4857 10.2222 23.5417 10.1585C23.64 10.0459 23.7343 9.92992 23.8259 9.81163C23.9191 9.69107 24.0089 9.56823 24.0954 9.44312C23.8141 9.46056 23.5332 9.48482 23.2526 9.51667L23.2515 9.51591Z" fill="#FF1100"/>
<path fill-rule="evenodd" clip-rule="evenodd" d="M22.3369 10.1965C22.4056 10.2093 22.4742 10.2215 22.5429 10.2332C22.4742 10.2215 22.4052 10.2093 22.3369 10.1965Z" fill="#FF1100"/>
<path fill-rule="evenodd" clip-rule="evenodd" d="M23.0758 9.53904C23.1156 9.53032 23.156 9.52577 23.1964 9.5216C23.0139 9.75894 22.8191 9.98528 22.6075 10.1972C22.5942 10.2109 22.5804 10.2241 22.5671 10.2374L22.5433 10.2336C22.4747 10.2219 22.406 10.2097 22.3374 10.1968C22.2101 10.173 22.0828 10.1468 21.9567 10.1172C21.9136 10.107 21.8702 10.0967 21.8271 10.0861C21.8271 10.0175 21.8279 9.9485 21.8297 9.8795C21.8309 9.83855 21.8327 9.79799 21.8349 9.75742C21.9815 9.72178 22.1292 9.69031 22.2773 9.6615C22.5304 9.61259 22.7849 9.57278 23.0402 9.54056C23.0443 9.54018 23.0484 9.53942 23.0525 9.53904C23.0573 9.53828 23.0621 9.5379 23.0669 9.53828C23.0699 9.53828 23.0729 9.53904 23.0758 9.5398V9.53904Z" fill="#FDBF41"/>
<path fill-rule="evenodd" clip-rule="evenodd" d="M27.5898 6.22541C27.7375 6.24399 27.8856 6.26219 28.0333 6.28076C28.0325 6.28228 28.0314 6.2838 28.0299 6.28531C27.9383 6.27394 27.8463 6.26294 27.7546 6.25081C27.7279 6.2474 27.7012 6.24512 27.6745 6.24209C27.6477 6.23906 27.621 6.23603 27.5947 6.23072C27.5932 6.22882 27.5917 6.22731 27.5898 6.22579V6.22541Z" fill="#007FFF"/>
<path fill-rule="evenodd" clip-rule="evenodd" d="M31.1116 9.72709V9.10417C31.0986 9.04616 31.0808 8.98967 31.0493 8.93887C30.9984 8.85697 30.938 8.7838 30.8623 8.7239C30.7832 8.66134 30.7023 8.60258 30.6151 8.55253C30.4953 8.48391 30.3706 8.4259 30.2455 8.36865C30.2232 8.35841 30.2002 8.35349 30.178 8.34439C29.8952 8.2314 29.6043 8.14648 29.3096 8.07331C29.1211 8.02629 28.9311 7.9861 28.7404 7.94971C28.5263 7.90876 28.311 7.8735 28.0954 7.84317C27.9466 7.82232 27.7978 7.80336 27.6487 7.7863C27.5822 7.77872 27.5158 7.77151 27.4494 7.76469C27.2616 7.74611 27.0735 7.72867 26.8853 7.71502C26.7744 7.70668 26.6631 7.69948 26.5521 7.69303C26.4579 7.68773 26.3632 7.6828 26.2686 7.67825C26.1198 7.67142 25.9714 7.66612 25.8226 7.6627C25.8118 7.6627 25.801 7.66195 25.7903 7.66195C25.5554 7.65664 25.3201 7.65512 25.0852 7.6574H25.0737C24.8318 7.65967 24.5898 7.66536 24.3482 7.67559C24.3338 7.67597 24.3193 7.67711 24.3048 7.67749C24.0187 7.69 23.7334 7.7082 23.448 7.73284C23.029 7.76886 22.6116 7.81777 22.1963 7.8845C22.1863 7.88601 22.1767 7.88791 22.1666 7.88943C22.1507 7.94705 22.1362 8.00544 22.1162 8.06193C22.1021 8.11956 22.088 8.17719 22.0735 8.23444C22.0353 8.38723 22.0008 8.54078 21.9707 8.69546C21.9919 8.69167 22.013 8.68826 22.0342 8.68447C22.062 8.67954 22.0898 8.67499 22.1173 8.67006L22.2409 8.64959C22.3897 8.62608 22.5392 8.60485 22.6884 8.58551C22.8379 8.56618 22.9875 8.54912 23.1374 8.53395C23.2372 8.52372 23.3374 8.51424 23.4376 8.50552C23.589 8.49263 23.7408 8.48163 23.8925 8.47177C24.0354 8.46268 24.1783 8.45547 24.3212 8.44941C24.3579 8.44789 24.3946 8.44599 24.4314 8.44448C24.4859 8.4422 24.5408 8.44069 24.5954 8.43879C24.6306 8.43765 24.6659 8.43689 24.7015 8.43614C24.8303 8.43272 24.959 8.43083 25.0878 8.42969C25.1364 8.42969 25.1847 8.42893 25.2333 8.42893C25.3164 8.42893 25.3995 8.42893 25.4823 8.42969C25.5123 8.42969 25.5424 8.43007 25.5724 8.43083L25.6693 8.43197C25.7572 8.43348 25.8448 8.43576 25.9328 8.43841C26.0207 8.44106 26.1083 8.44448 26.1962 8.44789C26.2107 8.44827 26.2252 8.44941 26.2397 8.44979C26.3339 8.45396 26.4282 8.45888 26.5221 8.46381C26.5944 8.46798 26.6668 8.47253 26.7391 8.47708C26.8475 8.48429 26.9562 8.49225 27.0646 8.50135C27.1644 8.50969 27.2642 8.51917 27.3644 8.5294C27.3678 8.5294 27.3715 8.53016 27.3748 8.53054C27.4464 8.53774 27.518 8.54495 27.5897 8.55253C27.7043 8.56428 27.819 8.57831 27.9337 8.59386C28.048 8.6094 28.1622 8.62608 28.2765 8.64352C28.324 8.65073 28.3715 8.65831 28.4187 8.66589C28.5608 8.6894 28.7025 8.71518 28.8436 8.74361C28.9267 8.7603 29.0094 8.77774 29.0922 8.79593C29.1749 8.81413 29.2573 8.83385 29.3397 8.85432C29.4648 8.88579 29.5891 8.91953 29.7119 8.95631C29.8759 9.00559 30.0384 9.06095 30.1976 9.12578C30.2377 9.1417 30.2771 9.15876 30.3168 9.17583C30.3769 9.20236 30.4359 9.23156 30.4945 9.26113C30.509 9.26833 30.5235 9.27554 30.5379 9.28312C30.5491 9.28881 30.5606 9.29449 30.5717 9.30018C30.5865 9.30776 30.6014 9.31535 30.6159 9.32369C30.6344 9.33392 30.6526 9.34492 30.6697 9.35705C30.7357 9.40368 30.8036 9.44766 30.8649 9.50074C30.879 9.51325 30.8927 9.52577 30.906 9.53904C30.922 9.55268 30.9372 9.56747 30.9517 9.58226C30.9758 9.6069 30.9981 9.63344 31.0177 9.66112C31.0274 9.67477 31.0363 9.68879 31.0448 9.7032C31.0523 9.71571 31.0589 9.72822 31.0652 9.74111C31.0715 9.754 31.0775 9.76727 31.0827 9.7813C31.0882 9.79495 31.0931 9.80898 31.0975 9.82301C31.1005 9.83286 31.1038 9.8431 31.1068 9.85296C31.1098 9.86282 31.1068 9.85372 31.1072 9.8541V9.85296C31.115 9.81087 31.1101 9.76841 31.1105 9.72595L31.1116 9.72709Z" fill="#F1ECE2"/>
<path fill-rule="evenodd" clip-rule="evenodd" d="M31.1143 9.02228C31.1147 8.86494 31.1147 8.70798 31.1143 8.55064C31.1143 8.47823 31.1136 8.40543 31.1132 8.33302C31.101 8.29207 31.0925 8.24999 31.0743 8.21094C31.0279 8.11274 30.9585 8.03388 30.8783 7.96336C30.7908 7.88602 30.6939 7.82195 30.5922 7.76545C30.4449 7.6828 30.292 7.61228 30.1343 7.55276C29.9517 7.48376 29.7666 7.42272 29.5788 7.3704C29.4352 7.33059 29.2908 7.29381 29.1461 7.26007C28.981 7.22178 28.8151 7.18803 28.6485 7.15808C28.4756 7.12737 28.3019 7.0978 28.1279 7.07316C28.0455 7.0614 27.9627 7.05041 27.88 7.03979C27.6952 7.01553 27.51 6.9943 27.3245 6.97761C27.2899 6.9742 27.2558 6.96927 27.2213 6.96662C27.081 6.95562 26.9408 6.94501 26.8009 6.93477C26.7808 6.93326 26.7608 6.93174 26.7407 6.93022C26.6472 6.9234 26.5537 6.91657 26.4602 6.91165C26.3385 6.90558 26.2168 6.90103 26.0951 6.89648H26.0917C25.9644 6.89193 25.8375 6.887 25.7102 6.88473C25.5982 6.88283 25.4861 6.88169 25.3737 6.88131C25.3243 6.88131 25.275 6.88094 25.2252 6.88094C25.0286 6.88094 24.8323 6.88397 24.636 6.88966H24.6274C24.397 6.89648 24.1662 6.90596 23.9361 6.92112C23.7591 6.9325 23.5821 6.94273 23.4054 6.9579C23.3338 6.96397 23.2626 6.97306 23.1913 6.98027C22.9423 7.00567 22.6941 7.03524 22.4466 7.07088C22.4436 7.07126 22.441 7.07164 22.438 7.07202C22.3389 7.334 22.2499 7.59939 22.1716 7.86896C22.1697 7.87578 22.1679 7.88223 22.166 7.88905C22.1757 7.88753 22.1857 7.88564 22.1957 7.88412C22.6109 7.8174 23.0284 7.76811 23.4474 7.73247C23.7327 7.70821 24.0181 7.68963 24.3042 7.67712C24.3187 7.67636 24.3331 7.6756 24.3476 7.67522C24.5892 7.66498 24.8311 7.6593 25.0731 7.65702H25.0846C25.3199 7.65513 25.5548 7.65664 25.7897 7.66157C25.8004 7.66157 25.8112 7.66233 25.8219 7.66233C25.9707 7.66574 26.1192 7.67105 26.268 7.67787C26.3626 7.68242 26.4569 7.68735 26.5515 7.69266C26.6624 7.69911 26.7738 7.70631 26.8847 7.71465C27.0729 7.72868 27.261 7.74574 27.4488 7.76432C27.5152 7.77114 27.5816 7.77834 27.648 7.78593C27.7972 7.80299 27.946 7.82194 28.0948 7.8428C28.3104 7.87313 28.5257 7.90839 28.7398 7.94933C28.9305 7.98573 29.1205 8.02592 29.309 8.07293C29.6037 8.1461 29.8946 8.23103 30.1774 8.34401C30.1996 8.35311 30.2226 8.35804 30.2449 8.36828C30.3699 8.4259 30.4946 8.48353 30.6145 8.55216C30.7017 8.6022 30.7826 8.66097 30.8616 8.72352C30.9373 8.78343 30.9978 8.8566 31.0487 8.93849C31.0802 8.9893 31.0976 9.04579 31.111 9.1038C31.1162 9.0765 31.1132 9.04882 31.1132 9.02152L31.1143 9.02228Z" fill="#FDBF41"/>
<path fill-rule="evenodd" clip-rule="evenodd" d="M26.7516 3.07823C26.854 3.24163 26.9282 3.41831 26.9843 3.60333C27.0017 3.66057 27.0173 3.7182 27.0314 3.77621C27.0548 3.87289 27.073 3.97108 27.0874 4.06966C27.0915 4.09847 27.0956 4.12729 27.0993 4.15648C27.1064 4.21449 27.1127 4.2725 27.1179 4.3305C27.1201 4.3597 27.1223 4.38851 27.1245 4.4177C27.1349 4.57618 27.1394 4.73466 27.1353 4.89352C27.1309 5.05958 27.1212 5.22564 27.1049 5.39132C27.0885 5.55586 27.0663 5.71965 27.0396 5.8823C27.0236 5.98011 27.0058 6.07755 26.9865 6.17423C26.8329 6.16172 26.6792 6.1511 26.5252 6.14352C26.4514 6.14011 26.3772 6.13594 26.303 6.13215C26.3531 5.91225 26.3954 5.69083 26.4284 5.46715C26.4648 5.21957 26.4907 4.97124 26.5004 4.72139C26.5082 4.50908 26.5071 4.29638 26.4904 4.08407C26.4763 3.90701 26.4529 3.73185 26.4158 3.55821C26.3738 3.36295 26.3148 3.17339 26.2302 2.99254C26.1968 2.92089 26.1575 2.85226 26.1182 2.78402C26.1504 2.7734 26.1842 2.77226 26.2172 2.76885C26.2347 2.76696 26.2521 2.76544 26.2692 2.7643C26.284 2.76354 26.2989 2.76279 26.3137 2.76241C26.3378 2.76203 26.362 2.76203 26.3861 2.76241C26.4028 2.76279 26.4199 2.76354 26.4366 2.7643C26.4495 2.76506 26.4625 2.76582 26.4755 2.76696C26.4777 2.76696 26.48 2.76734 26.4818 2.76772C26.4859 2.76847 26.4896 2.76961 26.4933 2.77113C26.497 2.77264 26.5004 2.77454 26.5037 2.77681C26.5085 2.77985 26.5134 2.78402 26.5178 2.78819C26.5293 2.7988 26.5405 2.8098 26.5512 2.82079C26.5731 2.84278 26.5943 2.86591 26.6143 2.88942C26.6651 2.94818 26.7108 3.01074 26.7527 3.07747L26.7516 3.07823Z" fill="#F1ECE2"/>
<path fill-rule="evenodd" clip-rule="evenodd" d="M26.4148 3.55821C26.4519 3.73147 26.4753 3.90701 26.4894 4.08406C26.5065 4.29638 26.5076 4.50907 26.4994 4.72139C26.4901 4.97124 26.4642 5.21957 26.4274 5.46714C26.3944 5.69083 26.3521 5.91262 26.302 6.13214C26.246 6.12949 26.1896 6.12646 26.1335 6.12418C26.0051 6.11925 25.8771 6.11622 25.7487 6.11357C25.7008 6.11243 25.653 6.11167 25.6055 6.11091C25.6522 5.93082 25.6934 5.74922 25.7287 5.56648C25.7554 5.42961 25.7784 5.29198 25.7988 5.15398C25.8122 5.06147 25.824 4.96896 25.8344 4.87607C25.8452 4.77902 25.8537 4.68158 25.8597 4.58376C25.866 4.4795 25.8701 4.37486 25.8723 4.2706C25.8749 4.1307 25.8704 3.99118 25.8604 3.85165C25.8537 3.75953 25.8452 3.66778 25.8337 3.57602C25.8181 3.45053 25.7958 3.32655 25.7665 3.20372C25.7431 3.10552 25.7164 3.0077 25.6808 2.91292C25.7053 2.897 25.7335 2.88903 25.7606 2.8788C25.8155 2.85795 25.8708 2.83975 25.9272 2.82382C25.9836 2.80828 26.0404 2.79501 26.0983 2.78515C26.1024 2.78439 26.1061 2.78326 26.1101 2.78326C26.1127 2.78326 26.115 2.78326 26.1172 2.78401C26.1565 2.85226 26.1959 2.9205 26.2293 2.99254C26.3139 3.17338 26.3729 3.36295 26.4148 3.55821Z" fill="#FDBF41"/>
<path fill-rule="evenodd" clip-rule="evenodd" d="M31.1108 10.6017C31.1111 10.5919 31.1119 10.582 31.1119 10.5722C31.1119 10.4099 31.1122 10.2473 31.1122 10.085C31.1122 10.0148 31.1111 9.94471 31.1108 9.87457C31.1108 9.8704 31.1126 9.86585 31.1122 9.86168C31.1111 9.85902 31.1096 9.85713 31.1085 9.85485V9.85561C31.1085 9.85523 31.1085 9.85485 31.1082 9.85447C31.1052 9.84424 31.1019 9.83438 31.0989 9.82414C31.0944 9.80974 31.0892 9.79571 31.084 9.78244C31.0788 9.76879 31.0729 9.75552 31.0666 9.74225C31.0603 9.72936 31.0532 9.71647 31.0462 9.70434C31.0377 9.68993 31.0287 9.6759 31.0191 9.66225C30.9994 9.6342 30.9775 9.60804 30.953 9.58339C30.9386 9.56861 30.9234 9.5542 30.9074 9.54017C30.894 9.52652 30.8803 9.51401 30.8662 9.50188C30.805 9.4488 30.7371 9.40482 30.671 9.35819C30.6536 9.34605 30.6354 9.33506 30.6172 9.32482C30.6027 9.31686 30.5879 9.3089 30.5731 9.30132C30.5619 9.29563 30.5504 9.28994 30.5393 9.28426C30.5248 9.27667 30.5103 9.26947 30.4959 9.26227C30.4372 9.23269 30.3782 9.2035 30.3181 9.17696C30.2784 9.1599 30.2391 9.14284 30.199 9.12692C30.0394 9.06246 29.8773 9.00673 29.7133 8.95744C29.5901 8.92029 29.4657 8.88655 29.3411 8.85546C29.2587 8.83498 29.1763 8.81527 29.0935 8.79707C29.0108 8.77887 28.928 8.76143 28.8449 8.74475C28.7035 8.71631 28.5618 8.69015 28.42 8.66703C28.3725 8.65944 28.3254 8.65186 28.2779 8.64466C28.1636 8.62722 28.0497 8.61054 27.935 8.59499C27.8207 8.57945 27.7061 8.56542 27.591 8.55367C27.5194 8.54646 27.4478 8.53888 27.3762 8.53168C27.3728 8.53168 27.3691 8.53092 27.3658 8.53054C27.266 8.5203 27.1661 8.51082 27.0659 8.50248C26.9576 8.49338 26.8489 8.4858 26.7405 8.47822C26.6681 8.47329 26.5958 8.46874 26.5234 8.46495C26.4292 8.45964 26.3349 8.45471 26.241 8.45092C26.2265 8.45016 26.2121 8.4494 26.1976 8.44903C26.1097 8.44523 26.0221 8.4422 25.9341 8.43955C25.8462 8.43689 25.7586 8.43462 25.6707 8.4331L25.5738 8.43196L25.4836 8.43083C25.4005 8.43007 25.3174 8.42969 25.2346 8.43007C25.186 8.43007 25.1374 8.43045 25.0892 8.43083C24.9604 8.43196 24.8316 8.43386 24.7029 8.43727C24.6676 8.43803 24.6324 8.43917 24.5967 8.43993C24.5422 8.44144 24.4873 8.44334 24.4327 8.44561C24.396 8.44713 24.3593 8.44902 24.3225 8.45054C24.1796 8.45661 24.0368 8.46419 23.8939 8.47291C23.7421 8.48277 23.5904 8.49338 23.439 8.50665C23.3388 8.51537 23.2386 8.52485 23.1388 8.53509C22.9888 8.55025 22.8393 8.56732 22.6897 8.58665C22.5402 8.60599 22.391 8.62722 22.2422 8.65072C22.201 8.65717 22.1598 8.66399 22.1186 8.6712C22.0908 8.67575 22.0634 8.68068 22.0355 8.6856C22.0144 8.6894 21.9932 8.69281 21.9721 8.6966C22.0021 8.54191 22.0366 8.38836 22.0749 8.23557C22.0893 8.17794 22.1034 8.1207 22.1175 8.06307C22.1376 8.00658 22.152 7.94819 22.168 7.89056C22.1699 7.88374 22.1717 7.87729 22.1736 7.87047C22.2519 7.6009 22.3409 7.33513 22.44 7.07353C22.5027 6.90747 22.5695 6.74292 22.6404 6.5799C22.6879 6.47071 22.7372 6.36189 22.7881 6.2546C22.9562 5.89935 23.1428 5.55396 23.3499 5.21994C23.5432 4.90678 23.7536 4.60651 23.9841 4.32064C23.9889 4.31495 23.9926 4.30813 23.9971 4.30206C24.0665 4.22093 24.1347 4.13903 24.2056 4.05904C24.4364 3.79781 24.6851 3.55593 24.9604 3.34399C25.0283 3.29167 25.0985 3.24238 25.1678 3.19196C25.1742 3.18741 25.1819 3.18665 25.1894 3.18627C25.1927 3.17604 25.202 3.17149 25.2098 3.16656C25.3519 3.07367 25.4996 2.99102 25.6551 2.92429C25.6606 2.92202 25.6658 2.91898 25.6718 2.91709C25.6733 2.91671 25.6751 2.91633 25.677 2.91595C25.6788 2.91595 25.6807 2.91519 25.6825 2.91519C25.707 2.89927 25.7352 2.89131 25.7623 2.88107C25.8172 2.86022 25.8725 2.84202 25.9289 2.8261C25.9853 2.81055 26.0421 2.79728 26.1 2.78742C26.1041 2.78667 26.1078 2.78553 26.1119 2.78553C26.1145 2.78553 26.1167 2.78553 26.1189 2.78629C26.1512 2.77567 26.185 2.77453 26.218 2.77112C26.2355 2.76923 26.2529 2.76771 26.27 2.76657C26.2848 2.76581 26.2997 2.76505 26.3145 2.76468C26.3386 2.7643 26.3627 2.7643 26.3869 2.76468C26.4036 2.76505 26.4206 2.76581 26.4373 2.76657C26.4503 2.76733 26.4633 2.76809 26.4763 2.76923C26.4785 2.76923 26.4807 2.7696 26.4826 2.76998C26.4867 2.77074 26.4904 2.77188 26.4941 2.7734C26.4978 2.77491 26.5011 2.77681 26.5045 2.77908C26.5093 2.78212 26.5141 2.78629 26.5186 2.79046C26.5301 2.80107 26.5412 2.81207 26.552 2.82306C26.5739 2.84505 26.595 2.86818 26.6151 2.89169C26.6659 2.95045 26.7116 3.01301 26.7535 3.07974C26.8559 3.24314 26.9301 3.41982 26.9862 3.60484C27.0036 3.66209 27.0192 3.71971 27.0333 3.77772C27.0567 3.8744 27.0748 3.9726 27.0893 4.07117C27.0934 4.09998 27.0975 4.1288 27.1012 4.15799C27.1082 4.216 27.1146 4.27401 27.1197 4.33201C27.122 4.36121 27.1242 4.39002 27.1264 4.41921C27.1368 4.57769 27.1413 4.73617 27.1372 4.89503C27.1327 5.06109 27.1231 5.22715 27.1068 5.39283C27.0904 5.55737 27.0682 5.72116 27.0414 5.88381C27.0255 5.98162 27.0077 6.07906 26.9884 6.17574C27.0132 6.17764 27.0381 6.17953 27.063 6.18181C27.2415 6.19697 27.4196 6.21517 27.5977 6.23185C27.5962 6.22996 27.5947 6.22844 27.5929 6.22692C27.7406 6.2455 27.8886 6.2637 28.0363 6.28228C28.0356 6.28379 28.0345 6.28531 28.033 6.28683C28.0419 6.28796 28.0508 6.28948 28.0597 6.29062C28.0894 6.14124 28.1161 5.99186 28.1387 5.84134C28.1588 5.70637 28.1766 5.57102 28.1903 5.43529C28.2033 5.30828 28.2148 5.18127 28.2208 5.0535C28.2237 4.99209 28.2271 4.93029 28.2308 4.86887C28.2311 4.86091 28.2271 4.85029 28.2393 4.84688C28.2393 4.73238 28.2386 4.6175 28.2382 4.503C28.2323 4.50035 28.2319 4.49504 28.2311 4.48935C28.2297 4.46623 28.2271 4.44348 28.2263 4.42035C28.2219 4.25391 28.207 4.08861 28.1851 3.92407C28.161 3.7417 28.1254 3.56199 28.076 3.38494C28.0638 3.34058 28.0534 3.29584 28.0341 3.25376L28.03 3.23859C28.03 3.23859 28.0285 3.23746 28.0285 3.2367V3.23518C28.0274 3.22987 28.0267 3.22456 28.0248 3.21926C27.9532 3.00808 27.8597 2.8079 27.7309 2.62591C27.607 2.45037 27.4574 2.30365 27.273 2.19446C27.204 2.15351 27.129 2.1247 27.0581 2.08792C27.0518 2.08451 27.0437 2.08527 27.0363 2.08375C27.0299 2.07541 27.0199 2.07314 27.0114 2.06897C26.844 1.99314 26.677 1.91731 26.5093 1.84224C26.4878 1.83239 26.4681 1.81798 26.444 1.81495C26.4399 1.81343 26.4358 1.81229 26.4318 1.81078C26.4032 1.8013 26.3739 1.79447 26.3464 1.7812C26.3438 1.78045 26.3416 1.77969 26.339 1.77855C26.3379 1.77817 26.3364 1.77779 26.3353 1.77741H26.3345C26.3316 1.77931 26.3297 1.77779 26.3279 1.77514C26.274 1.76111 26.2202 1.75049 26.1657 1.74291C26.1264 1.73722 26.087 1.73305 26.0473 1.73078C26.034 1.73002 26.021 1.72964 26.0076 1.72926C25.9679 1.72812 25.9286 1.7285 25.8892 1.7304C25.8369 1.73267 25.785 1.7376 25.733 1.74481C25.6425 1.7577 25.5527 1.77703 25.4636 1.80206C25.451 1.80585 25.438 1.80926 25.4254 1.81343C25.258 1.86423 25.0985 1.93286 24.9445 2.01399C24.8932 2.04091 24.8424 2.06934 24.7919 2.0993C24.7459 2.12622 24.7006 2.15389 24.6557 2.18308C24.6409 2.19256 24.6261 2.20242 24.6112 2.21228C24.5964 2.22214 24.5815 2.23199 24.5671 2.24223C24.5377 2.26232 24.5088 2.2828 24.4802 2.30403C24.4661 2.31464 24.4517 2.32526 24.4375 2.33588V2.33891C24.4375 2.33967 24.4368 2.34043 24.4364 2.34118C24.4353 2.34232 24.4338 2.3427 24.4316 2.3427H24.4312V2.3446C24.4312 2.34611 24.4305 2.34687 24.4298 2.34725C24.429 2.34763 24.4283 2.34763 24.4268 2.34725C24.4264 2.34725 24.4257 2.34725 24.4253 2.34649C24.3622 2.39161 24.301 2.43862 24.2412 2.48753C24.2145 2.50914 24.1882 2.53151 24.1622 2.55388C24.1581 2.55729 24.154 2.56108 24.15 2.56449C24.1232 2.58762 24.0965 2.61113 24.0702 2.63501V2.63691C24.0702 2.6388 24.0694 2.63994 24.0683 2.64108C24.0683 2.64108 24.0676 2.64146 24.0672 2.64184C24.0665 2.64222 24.0654 2.64259 24.0642 2.64259C24.0635 2.64411 24.0624 2.64563 24.0613 2.64677C24.0598 2.64828 24.0587 2.6498 24.0568 2.65094C24.0546 2.65245 24.052 2.65397 24.049 2.65435C24.049 2.65776 24.0483 2.65966 24.0468 2.66041C24.0446 2.66193 24.0405 2.66079 24.0375 2.66117C24.0275 2.67179 24.0171 2.6824 24.0071 2.69264C24.0063 2.6934 24.006 2.69416 24.0052 2.69454V2.69605C24.0052 2.69757 24.0045 2.69833 24.0038 2.69946H24.0034C24.0034 2.69946 24.0012 2.7006 23.9989 2.7006C23.99 2.70818 23.9804 2.71501 23.9718 2.72297C23.9711 2.72373 23.9704 2.72411 23.9696 2.72487C23.937 2.75633 23.9039 2.7878 23.8716 2.82003C23.8694 2.8223 23.8672 2.8242 23.8653 2.8261C23.8553 2.83633 23.8449 2.84581 23.8345 2.85567C23.8086 2.88031 23.7818 2.9042 23.757 2.92998C23.7436 2.94401 23.7299 2.95803 23.7165 2.97168C23.6393 3.05168 23.5629 3.13244 23.4891 3.21584C23.3948 3.32238 23.3031 3.43081 23.2141 3.54152C23.2015 3.55744 23.1885 3.57299 23.1759 3.58891C23.174 3.59119 23.1718 3.59384 23.1703 3.59649C23.1677 3.60029 23.1651 3.60408 23.1625 3.60825C23.1592 3.61356 23.1558 3.61886 23.1525 3.62379C23.1499 3.62758 23.1473 3.631 23.1443 3.63479C23.1432 3.63592 23.1425 3.63706 23.1417 3.63782C23.1376 3.64237 23.1336 3.64654 23.1287 3.64995C23.1287 3.65109 23.1284 3.65147 23.128 3.65223C23.128 3.65299 23.128 3.65374 23.1273 3.6545C23.1273 3.65488 23.1265 3.65526 23.1261 3.65564C23.1254 3.65602 23.1243 3.6564 23.1235 3.65678C23.1213 3.66739 23.1128 3.6727 23.1057 3.67952C23.1054 3.67952 23.105 3.68028 23.1046 3.68066C23.1024 3.68256 23.1009 3.68483 23.0994 3.68711C23.0987 3.68825 23.0979 3.68938 23.0976 3.6909C23.0972 3.69242 23.0965 3.69355 23.0961 3.69507V3.69697C23.0961 3.69886 23.0953 3.7 23.0939 3.70114C23.0939 3.70114 23.0931 3.70114 23.0931 3.70151H23.0916H23.0901C23.0738 3.72237 23.0571 3.74322 23.0408 3.76407C23.04 3.76521 23.0389 3.76635 23.0382 3.76748C23.0386 3.77014 23.0386 3.77241 23.0382 3.77469C23.0382 3.77658 23.0371 3.77772 23.0363 3.77924C23.0363 3.77962 23.0356 3.78037 23.0356 3.78075C23.0345 3.78189 23.033 3.78341 23.0315 3.78417C23.0297 3.7853 23.0274 3.78606 23.0252 3.78682C23.0226 3.78985 23.02 3.79251 23.0174 3.79554C23.0163 3.79668 23.0156 3.79781 23.0148 3.79857C23.0126 3.80085 23.0107 3.8035 23.0089 3.80578C22.9669 3.8634 22.925 3.92141 22.8831 3.97904C22.8831 3.98094 22.8823 3.98207 22.8812 3.98321C22.8812 3.98321 22.8809 3.98359 22.8805 3.98397C22.8797 3.98473 22.8786 3.98511 22.8775 3.98511C22.8486 4.02681 22.8189 4.06814 22.7903 4.11022C22.7847 4.11856 22.7792 4.1269 22.7736 4.13524C22.7309 4.19932 22.6909 4.26529 22.6478 4.32898C22.6263 4.36083 22.6059 4.39343 22.5855 4.42566C22.5647 4.45789 22.5439 4.49011 22.5213 4.52158C22.4853 4.57201 22.4545 4.62698 22.4229 4.68044C22.4092 4.70356 22.3955 4.72669 22.3821 4.74982C22.2296 5.00839 22.0815 5.26961 21.9554 5.54297C21.9479 5.55889 21.9394 5.57368 21.9309 5.58884C21.9223 5.60363 21.9134 5.61879 21.906 5.63396C21.863 5.7223 21.821 5.81101 21.7802 5.90049C21.765 5.93385 21.7502 5.96722 21.7349 6.00096C21.7153 6.04456 21.696 6.08854 21.6771 6.13252C21.6529 6.18825 21.6288 6.24436 21.6051 6.30085C21.595 6.32436 21.5854 6.34825 21.5757 6.37213C21.5635 6.4017 21.5513 6.43128 21.5394 6.46123C21.4971 6.56625 21.4563 6.67241 21.4166 6.77856C21.405 6.80965 21.3935 6.84074 21.3824 6.87221C21.3553 6.94804 21.329 7.02386 21.3026 7.10007C21.2963 7.11827 21.29 7.13646 21.2837 7.15466C21.2789 7.16869 21.2741 7.1831 21.2696 7.19751C21.2574 7.23352 21.2459 7.26992 21.2347 7.30632C21.221 7.35068 21.2076 7.39503 21.1943 7.43939C21.1846 7.47124 21.175 7.50271 21.165 7.53455C21.1423 7.60545 21.116 7.67559 21.1071 7.75028C21.1067 7.75407 21.1022 7.75749 21.1 7.7609C21.0889 7.79199 21.0822 7.82383 21.0748 7.85568C21.0711 7.87085 21.0666 7.88601 21.0622 7.90118C21.0577 7.91634 21.0533 7.93151 21.0492 7.94667C21.0321 8.01188 21.0154 8.07747 20.9998 8.14306C20.9854 8.20221 20.9716 8.26211 20.9583 8.32164C20.9434 8.38874 20.9293 8.45585 20.9156 8.52296C20.9037 8.58172 20.8922 8.64087 20.8814 8.70001C20.8729 8.74702 20.8644 8.79366 20.8566 8.84067C20.8495 8.882 20.8432 8.92332 20.8365 8.96465C20.8284 9.01735 20.8206 9.06967 20.8135 9.12237C20.8072 9.16976 20.8013 9.21677 20.7954 9.26416C20.7798 9.39421 20.7672 9.52425 20.7571 9.65505C20.7545 9.69258 20.7519 9.72974 20.7501 9.76727C20.7479 9.80481 20.746 9.84196 20.7445 9.8795C20.7415 9.95418 20.7393 10.0293 20.7371 10.1039C20.7367 10.121 20.7367 10.1381 20.7364 10.1551V10.1707C20.736 10.2666 20.7397 10.3621 20.7427 10.4573C20.7427 10.4615 20.7434 10.466 20.7434 10.4702C20.7441 10.4872 20.7449 10.5043 20.746 10.5214C20.7493 10.5904 20.7549 10.6594 20.762 10.7284C20.7668 10.775 20.772 10.822 20.7779 10.8687C20.7787 10.8755 20.7798 10.8819 20.7805 10.8887C20.7931 10.9835 20.8076 11.0779 20.8258 11.1716C20.8596 11.3467 20.9045 11.5189 20.9661 11.6861C20.9672 11.6887 20.9683 11.6918 20.9694 11.6948C21.0154 11.8184 21.0688 11.9386 21.1345 12.0531C21.2425 12.2415 21.3742 12.4083 21.5423 12.5414C21.5624 12.5573 21.5828 12.5725 21.6036 12.5876C21.6236 12.6017 21.6451 12.6146 21.6659 12.6275C21.6696 12.6301 21.6741 12.632 21.6782 12.6339C21.6811 12.6354 21.6841 12.6366 21.6871 12.6381C21.6923 12.6407 21.6971 12.6441 21.7004 12.6491C21.7015 12.6506 21.7027 12.6529 21.7038 12.6551V12.6544C21.7093 12.6536 21.7142 12.6548 21.7168 12.6608H21.7171C21.7223 12.6608 21.7271 12.6623 21.7297 12.6673C21.7312 12.6673 21.7323 12.6673 21.7335 12.6676H21.7338C21.7372 12.6684 21.7401 12.6699 21.7424 12.6733V12.6737H21.7435H21.7457C21.7464 12.6737 21.7468 12.6741 21.7479 12.6741C21.7483 12.6741 21.749 12.6741 21.7494 12.6745C21.7502 12.6745 21.7509 12.6752 21.7516 12.6756C21.7516 12.6756 21.7524 12.6756 21.7528 12.676C21.7535 12.6767 21.7542 12.6775 21.755 12.6783H21.7554C21.7624 12.6858 21.7721 12.6877 21.781 12.6919C21.9661 12.7757 22.1517 12.8595 22.3368 12.9433C22.4285 12.9846 22.5194 13.0282 22.6163 13.0555C22.7131 13.0828 22.8115 13.1014 22.912 13.1055H22.9621H23.1124C23.161 13.104 23.2093 13.0976 23.2571 13.09C23.4519 13.06 23.639 13.0013 23.8197 12.922C24.1507 12.7768 24.4494 12.5785 24.7296 12.3492C24.7912 12.2987 24.8513 12.2468 24.9111 12.1941C25.1192 12.1979 25.327 12.199 25.5352 12.1968C25.7334 12.1945 25.9319 12.1911 26.1301 12.1831C26.1397 12.1774 26.1501 12.1774 26.1605 12.1816H26.1694C26.1813 12.1759 26.1935 12.1763 26.2058 12.1801H26.2147C26.2217 12.1755 26.2291 12.1748 26.2366 12.1763H26.2373H26.2377C26.2403 12.177 26.2425 12.1778 26.2447 12.1786H26.2536C26.2585 12.1755 26.2633 12.1744 26.2681 12.174C26.2733 12.174 26.2785 12.1751 26.2841 12.1767H26.293C26.2963 12.1748 26.2997 12.1736 26.303 12.1729C26.3097 12.1714 26.3167 12.1721 26.3238 12.1748H26.3323C26.3323 12.1748 26.333 12.1748 26.3334 12.1744C26.3431 12.1695 26.3531 12.1695 26.3627 12.1733H26.3713C26.3813 12.1668 26.3913 12.1676 26.4021 12.1714H26.4106C26.4206 12.1653 26.431 12.166 26.4414 12.1695H26.4499C26.4522 12.1679 26.454 12.1672 26.4559 12.1664C26.4592 12.1653 26.4622 12.1653 26.4655 12.1653C26.4685 12.1653 26.4718 12.166 26.4748 12.1676C26.5201 12.1653 26.565 12.1638 26.6102 12.1611C26.9568 12.1403 27.3023 12.1122 27.6474 12.0732C28.1714 12.0136 28.692 11.9336 29.2064 11.8138C29.5567 11.7323 29.9021 11.6345 30.2361 11.4969C30.4153 11.4229 30.5894 11.3384 30.7504 11.2277C30.8473 11.161 30.9371 11.0859 31.0091 10.99C31.0544 10.9289 31.0911 10.8633 31.1052 10.7868C31.1108 10.7807 31.113 10.7735 31.1134 10.7659C31.1167 10.7109 31.1186 10.6563 31.1137 10.6014L31.1108 10.6017ZM26.4592 9.44198C26.3627 9.43591 26.2666 9.4306 26.1701 9.42643C26.2666 9.43098 26.3627 9.43629 26.4592 9.44198ZM24.3192 11.2319C24.3036 11.2459 24.288 11.2603 24.2724 11.2743C24.1629 11.3725 24.0501 11.4654 23.9325 11.5522C23.8149 11.6387 23.6928 11.7191 23.5651 11.7907C23.5469 11.8009 23.5284 11.8112 23.5098 11.821C23.4672 11.8438 23.4241 11.8654 23.3807 11.8862C23.3373 11.9067 23.2931 11.9257 23.2486 11.9435C23.1595 11.9791 23.0682 12.0087 22.974 12.0315C22.9332 12.0413 22.8924 12.0497 22.8515 12.0561C22.8371 12.0584 22.8226 12.0607 22.8085 12.0629C22.7528 12.0705 22.6972 12.0751 22.6411 12.0766C22.6226 12.077 22.6037 12.0773 22.5851 12.077C22.5662 12.077 22.5476 12.0762 22.5287 12.0754C22.5205 12.0751 22.5127 12.0739 22.5046 12.0732C22.4968 12.0724 22.4886 12.0713 22.4805 12.0705C22.4701 12.0698 22.4623 12.0652 22.4545 12.0584C22.4322 12.0379 22.4111 12.0167 22.3903 11.9947C22.3595 11.9621 22.3302 11.928 22.3027 11.8927C22.2845 11.8692 22.2667 11.8449 22.2496 11.8199C22.2411 11.8074 22.2329 11.7949 22.2248 11.7824C22.224 11.7812 22.2237 11.7801 22.2233 11.779C22.2229 11.7771 22.2222 11.7748 22.2218 11.7729C22.2185 11.7695 22.214 11.7661 22.2114 11.7623L22.2107 11.7615C22.1725 11.6997 22.1379 11.636 22.1068 11.5704C22.0912 11.5374 22.0763 11.5048 22.0626 11.4711C22.0485 11.4377 22.0355 11.4036 22.0233 11.3691C22.0218 11.3649 22.0222 11.3608 22.0214 11.3562C21.9999 11.3153 21.9891 11.2705 21.9758 11.2269C21.9461 11.1295 21.9227 11.0305 21.9034 10.9305C21.9001 10.9126 21.8967 10.8952 21.8934 10.8774C21.8919 10.8702 21.8912 10.8633 21.8897 10.8561C21.8882 10.8474 21.8863 10.8387 21.8849 10.83C21.8849 10.8277 21.8849 10.8258 21.8841 10.8235C21.8834 10.816 21.883 10.808 21.8823 10.8004C21.8696 10.7447 21.8641 10.6878 21.8578 10.6309C21.8362 10.4497 21.8281 10.2677 21.8277 10.0857C21.8277 10.0171 21.8285 9.94812 21.8303 9.87912C21.8314 9.83817 21.8333 9.7976 21.8355 9.75704C21.9821 9.7214 22.1298 9.68993 22.2778 9.66112C22.5309 9.61221 22.7855 9.5724 23.0408 9.54017C23.0449 9.53979 23.049 9.53903 23.053 9.53865C23.0579 9.5379 23.0627 9.53752 23.0675 9.5379C23.0705 9.5379 23.0734 9.53865 23.0764 9.53941C23.1161 9.53069 23.1566 9.52614 23.197 9.52197C23.2156 9.52008 23.2341 9.51818 23.2523 9.51629C23.5328 9.48444 23.8138 9.46017 24.095 9.44273C24.1741 9.43781 24.2531 9.43326 24.3318 9.42946C24.5337 9.41961 24.7355 9.41316 24.9374 9.40937C25.048 9.4071 25.1586 9.40596 25.2691 9.40596C25.4269 9.40596 25.5846 9.40785 25.7419 9.41164C25.7078 9.46965 25.6733 9.52766 25.638 9.58491C25.6124 9.62699 25.5864 9.6687 25.5601 9.71002C25.513 9.78395 25.4651 9.85713 25.4161 9.92992C25.3256 10.0641 25.2317 10.1957 25.1341 10.3246C25.1033 10.3655 25.0721 10.4061 25.0402 10.4463C25.0346 10.4535 25.0291 10.4607 25.0235 10.4675C24.9775 10.5259 24.9307 10.5832 24.8829 10.6397C24.8031 10.7341 24.7211 10.8262 24.6368 10.9164C24.6112 10.9437 24.5856 10.971 24.5596 10.9979C24.4928 11.0669 24.4238 11.1344 24.3533 11.2C24.3418 11.2106 24.3303 11.2216 24.3188 11.2322L24.3192 11.2319ZM24.6947 11.2137C24.7763 11.2163 24.8584 11.2186 24.94 11.2201C24.858 11.2186 24.7763 11.2163 24.6947 11.2137ZM30.091 10.3257C30.0888 10.3288 30.0851 10.3318 30.0791 10.3364C30.0714 10.3424 30.0636 10.3489 30.0554 10.3546C30.0476 10.3606 30.0394 10.3663 30.0313 10.3724C30.0161 10.3834 30.0005 10.394 29.9845 10.4042C29.9827 10.4054 29.9808 10.4065 29.979 10.408C29.966 10.4163 29.953 10.4247 29.9396 10.4327C29.9199 10.4448 29.9007 10.4562 29.8806 10.4675C29.7448 10.5449 29.6019 10.6071 29.4561 10.662C29.3184 10.7136 29.1789 10.7587 29.0383 10.7989C28.8368 10.8565 28.6327 10.9043 28.4267 10.946C28.2267 10.9869 28.0259 11.0214 27.8244 11.0514C27.6229 11.0813 27.4207 11.1064 27.2181 11.128C27.1517 11.1352 27.0852 11.1416 27.0188 11.1481C26.8856 11.1606 26.7524 11.1712 26.6192 11.1803C26.5524 11.1849 26.4856 11.189 26.4191 11.1928C26.2696 11.2015 26.12 11.208 25.9705 11.2129C25.9434 11.2137 25.9163 11.2148 25.8889 11.2156C25.864 11.2163 25.8391 11.2171 25.8139 11.2178C25.8751 11.1405 25.9364 11.0635 25.9924 10.982C26.0006 10.9718 26.0087 10.9615 26.0165 10.9509C26.1364 10.786 26.2514 10.618 26.362 10.4471C26.3679 10.4376 26.3987 10.3898 26.408 10.375C26.4781 10.2647 26.5461 10.1532 26.6125 10.0402C26.7208 9.85523 26.8244 9.66756 26.9227 9.47723C27.1105 9.49392 27.2979 9.51325 27.4853 9.53676C27.499 9.53828 27.5127 9.54131 27.5268 9.54358C27.6107 9.54965 27.6938 9.56254 27.7766 9.57505C27.8831 9.59098 27.9896 9.60842 28.0957 9.62661C28.2389 9.65126 28.3822 9.67856 28.5243 9.71002C28.6011 9.72708 28.6776 9.74452 28.7544 9.76159C28.7551 9.76159 28.7562 9.76159 28.757 9.76196C28.7577 9.76196 28.7585 9.76196 28.7596 9.76234C28.7644 9.7631 28.77 9.7631 28.7752 9.76386C28.7818 9.76462 28.7885 9.76651 28.7937 9.7722C28.9577 9.81504 29.1214 9.86016 29.2821 9.91438C29.2969 9.9193 29.314 9.92082 29.3255 9.93371C29.3674 9.94129 29.4056 9.95911 29.445 9.9739C29.4795 9.98679 29.514 10.0004 29.5481 10.0145C29.6457 10.0539 29.7415 10.0975 29.8342 10.1479C29.871 10.1676 29.907 10.1885 29.9426 10.2105C29.9897 10.2397 30.0357 10.2704 30.0788 10.3056C30.0914 10.3159 30.0951 10.32 30.0903 10.3261L30.091 10.3257Z" fill="#007FFF"/>
<path fill-rule="evenodd" clip-rule="evenodd" d="M31.1143 7.59295C31.1098 7.50233 31.0761 7.42234 31.0245 7.34954C30.9518 7.24604 30.8579 7.16528 30.7562 7.09401C30.5829 6.97268 30.3933 6.88359 30.1992 6.80397C30.0912 6.75961 29.9817 6.72018 29.8712 6.68379C29.7027 6.62843 29.5316 6.58104 29.3598 6.53782C29.1449 6.48398 28.929 6.43735 28.7115 6.39678C28.579 6.37214 28.4462 6.34825 28.313 6.32854C28.3089 6.32854 28.3048 6.32816 28.3007 6.32778C28.2985 6.32778 28.2959 6.3274 28.2937 6.32702C28.2889 6.32664 28.2837 6.32588 28.2788 6.3255C28.2677 6.32399 28.2562 6.32171 28.2454 6.31906C28.2057 6.31261 28.1664 6.30617 28.1267 6.29934C28.1037 6.29593 28.0807 6.29252 28.0577 6.28949C28.0488 6.28797 28.0399 6.28683 28.031 6.2857C27.9393 6.27432 27.8473 6.26333 27.7556 6.25119C27.7289 6.24778 27.7022 6.24551 27.6755 6.24247C27.6487 6.23982 27.622 6.23641 27.5957 6.2311C27.4175 6.21404 27.2394 6.19584 27.0609 6.18105C27.0361 6.17916 27.0112 6.17688 26.9863 6.17499C26.8327 6.16248 26.6791 6.15186 26.5251 6.14428C26.4512 6.14087 26.377 6.1367 26.3028 6.1329C26.2468 6.13025 26.1904 6.12722 26.1343 6.12494C26.0059 6.12001 25.8779 6.11698 25.7495 6.11433C25.7017 6.11319 25.6538 6.11243 25.6063 6.11167C25.6063 6.11167 25.6942 5.74998 25.7295 5.56724C25.7562 5.43037 25.7792 5.29274 25.7996 5.15474C25.813 5.06223 25.8249 4.96972 25.8352 4.87683C25.846 4.77978 25.8545 4.68234 25.8605 4.58452C25.8668 4.48026 25.8709 4.37562 25.8731 4.27136C25.8757 4.13146 25.8712 3.99194 25.8612 3.85242C25.8545 3.76029 25.846 3.66854 25.8345 3.57679C25.8189 3.45129 25.7967 3.32732 25.7673 3.20448C25.744 3.10628 25.7172 3.00846 25.6816 2.91368C25.6798 2.91368 25.6779 2.91368 25.6761 2.91444C25.6742 2.91444 25.6723 2.9152 25.6709 2.91558C25.6649 2.91747 25.6597 2.92051 25.6542 2.92278C25.4983 2.98951 25.351 3.07254 25.2089 3.16505C25.2007 3.17035 25.1918 3.17452 25.1884 3.18476C25.2226 3.40504 25.2385 3.62645 25.2404 3.84938C25.2434 4.16823 25.2204 4.48519 25.1777 4.80101C25.1454 5.03872 25.1027 5.27455 25.0508 5.50885C25.0059 5.71207 24.9539 5.91339 24.896 6.11281C24.7561 6.11433 24.6159 6.11888 24.476 6.12343C24.2897 6.12987 24.1034 6.13859 23.9175 6.15072C23.7535 6.16134 23.5891 6.17233 23.4251 6.18674C23.2121 6.2057 22.9994 6.22693 22.7875 6.25347C22.7367 6.36114 22.6873 6.46957 22.6398 6.57877C22.569 6.74179 22.5022 6.90634 22.4395 7.0724C22.4424 7.07202 22.445 7.07164 22.448 7.07126C22.6955 7.03562 22.9441 7.00605 23.1928 6.98065C23.264 6.97344 23.3353 6.96472 23.4069 6.95828C23.5835 6.94311 23.7605 6.93288 23.9375 6.9215C24.1676 6.90634 24.398 6.89686 24.6289 6.89003H24.6374C24.8337 6.88435 25.03 6.88169 25.2267 6.88131C25.276 6.88131 25.3254 6.88131 25.3751 6.88169C25.4872 6.88207 25.5996 6.88321 25.7117 6.88511C25.839 6.88738 25.9659 6.89231 26.0931 6.89686H26.0965C26.2182 6.90141 26.3399 6.90596 26.4616 6.91202C26.5551 6.91657 26.6487 6.9234 26.7422 6.9306C26.7622 6.93212 26.7823 6.93363 26.8023 6.93515C26.9426 6.94539 27.0825 6.956 27.2227 6.967C27.2572 6.96965 27.2914 6.97458 27.3259 6.97799C27.5114 6.99467 27.6966 7.01591 27.8814 7.04017C27.9642 7.05079 28.0465 7.06216 28.1293 7.07353C28.3033 7.09818 28.477 7.12775 28.6499 7.15846C28.8165 7.18841 28.9828 7.22215 29.1475 7.26045C29.2926 7.29419 29.437 7.33097 29.5802 7.37078C29.7684 7.4231 29.9532 7.48414 30.1357 7.55314C30.2935 7.61304 30.446 7.68356 30.5937 7.76583C30.6953 7.8227 30.7918 7.8864 30.8798 7.96374C30.9595 8.03388 31.0293 8.11274 31.0757 8.21131C31.0943 8.25036 31.1028 8.29245 31.1147 8.3334C31.115 8.25188 31.1158 8.17037 31.1161 8.08885V7.72564C31.1161 7.68166 31.1176 7.63731 31.1154 7.59371L31.1143 7.59295Z" fill="#FF1100"/>
<path fill-rule="evenodd" clip-rule="evenodd" d="M26.3427 1.76642C26.1594 1.68301 25.9757 1.59998 25.7924 1.5162C25.7849 1.51278 25.7775 1.51544 25.7708 1.51127C25.7645 1.51278 25.7578 1.5143 25.7552 1.50596C25.7478 1.50937 25.7408 1.50596 25.7337 1.50331C25.573 1.45402 25.4087 1.43885 25.2413 1.44757C25.0198 1.45933 24.8075 1.51468 24.6012 1.59619C24.5362 1.62159 24.4724 1.64965 24.4101 1.6796C24.3945 1.68719 24.3789 1.69477 24.3633 1.70273C24.3451 1.71183 24.3269 1.72093 24.3091 1.73079C24.285 1.7433 24.2613 1.75619 24.2371 1.76946C24.1121 1.83922 23.9907 1.91694 23.8731 2.00035C23.8486 2.01779 23.8241 2.03523 23.8 2.05305L23.7855 2.06366C23.7276 2.10689 23.6709 2.15087 23.6152 2.19636C23.4757 2.30972 23.3417 2.43029 23.2122 2.55654C22.8526 2.90724 22.5331 3.29433 22.2407 3.70455C22.2333 3.71517 22.2259 3.72617 22.2184 3.73678C22.211 3.7474 22.2177 3.73943 22.217 3.74019C22.2162 3.74095 22.2151 3.74133 22.2136 3.74171C22.1873 3.78 22.1613 3.81792 22.1349 3.85621C22.0912 3.9199 22.0481 3.9836 22.0058 4.04843C21.9657 4.10985 21.926 4.17203 21.8871 4.2342C21.8559 4.28349 21.8255 4.33316 21.7954 4.3832C21.7687 4.42794 21.742 4.4723 21.7156 4.51704C21.6785 4.58035 21.6418 4.64405 21.6054 4.7085C21.5872 4.74073 21.5694 4.77257 21.5516 4.80518C21.5497 4.80897 21.5471 4.81238 21.5449 4.81617C21.5449 4.82034 21.5434 4.82376 21.542 4.82717C21.5405 4.82944 21.539 4.8321 21.5379 4.83437C21.5212 4.8647 21.5048 4.89541 21.4885 4.92612C21.4269 5.041 21.3668 5.15702 21.3089 5.27379C21.2844 5.32308 21.2603 5.37274 21.2366 5.42241C21.1082 5.69084 20.989 5.96343 20.8796 6.23982C20.8213 6.38655 20.766 6.53441 20.7133 6.68303C20.6855 6.76189 20.658 6.84113 20.6317 6.92074C20.5831 7.06785 20.5385 7.21609 20.4951 7.36471C20.4773 7.42575 20.4599 7.48717 20.4432 7.54859C20.4428 7.55011 20.4424 7.55162 20.4421 7.55314C20.4157 7.64944 20.3912 7.74612 20.3682 7.84318C20.3471 7.93038 20.3267 8.01796 20.3077 8.10592C20.2914 8.18098 20.2766 8.25643 20.2617 8.33188C20.2584 8.3497 20.255 8.36752 20.2517 8.38572C20.2502 8.39292 20.2491 8.40012 20.2476 8.40733C20.2472 8.40998 20.2465 8.41264 20.2461 8.41567C20.2435 8.43008 20.2406 8.4441 20.238 8.45851C20.2168 8.57642 20.1979 8.69471 20.1816 8.81376C20.1656 8.92864 20.1515 9.04313 20.1396 9.15839C20.137 9.18417 20.1348 9.20995 20.1322 9.23573C20.1322 9.23763 20.1318 9.23953 20.1318 9.24142C20.13 9.26114 20.1289 9.27516 20.1274 9.28919C20.1222 9.35327 20.1177 9.41772 20.114 9.48179C20.1103 9.54624 20.1073 9.6107 20.1055 9.67515C20.1055 9.68349 20.1055 9.69183 20.1047 9.70017C20.101 9.82415 20.1003 9.94775 20.104 10.0713C20.1077 10.1881 20.114 10.3045 20.1248 10.4209C20.1352 10.5369 20.1496 10.6526 20.1693 10.7682C20.179 10.8247 20.1894 10.8808 20.2012 10.9365C20.2406 11.1246 20.2936 11.3088 20.3664 11.487C20.3716 11.4995 20.3764 11.5117 20.3819 11.5242C20.3871 11.5363 20.3927 11.5488 20.3979 11.561C20.4105 11.5898 20.4239 11.6182 20.4376 11.6463C20.4606 11.6933 20.4851 11.7392 20.5111 11.7839C20.5823 11.9067 20.6662 12.0209 20.7656 12.124C20.7916 12.1513 20.8187 12.1771 20.8465 12.2017C20.8989 12.2483 20.9545 12.2912 21.0139 12.3295C21.025 12.3367 21.038 12.3408 21.0462 12.3518C21.0473 12.3533 21.0484 12.3552 21.0492 12.3571C21.0547 12.356 21.0588 12.3571 21.0603 12.3632C21.0833 12.3689 21.1018 12.3848 21.123 12.3943C21.2358 12.4455 21.3482 12.4967 21.4611 12.5478C21.5253 12.577 21.5898 12.6055 21.6544 12.6343L21.6626 12.6267C21.6418 12.6134 21.6203 12.6009 21.6002 12.5869C21.5791 12.5721 21.559 12.5566 21.539 12.5406C21.3709 12.4072 21.2391 12.2407 21.1312 12.0523C21.0655 11.9378 21.012 11.8176 20.966 11.694C20.9649 11.691 20.9638 11.6883 20.9627 11.6853C20.9011 11.5181 20.8562 11.346 20.8224 11.1708C20.8042 11.0772 20.7898 10.9828 20.7771 10.888C20.7764 10.8812 20.7753 10.8747 20.7746 10.8679C20.7686 10.8213 20.7634 10.7743 20.7586 10.7276C20.7515 10.6586 20.7463 10.59 20.7426 10.5206C20.7419 10.5036 20.7408 10.4865 20.74 10.4694C20.74 10.4653 20.7397 10.4607 20.7393 10.4565C20.736 10.361 20.7326 10.2655 20.733 10.1699V10.1544C20.733 10.1373 20.733 10.1203 20.7337 10.1032C20.736 10.0281 20.7382 9.95343 20.7412 9.87875C20.7426 9.84121 20.7445 9.80406 20.7467 9.76652C20.7489 9.72899 20.7512 9.69183 20.7538 9.6543C20.7634 9.5235 20.7764 9.39345 20.792 9.26341C20.7976 9.21602 20.8035 9.16901 20.8102 9.12162C20.8172 9.06892 20.825 9.01622 20.8332 8.9639C20.8395 8.92257 20.8462 8.88124 20.8532 8.83992C20.861 8.79291 20.8695 8.74627 20.8781 8.69926C20.8888 8.64012 20.9003 8.58135 20.9122 8.52221C20.926 8.4551 20.9401 8.38761 20.9549 8.32089C20.9683 8.26136 20.982 8.20184 20.9965 8.14231C21.0124 8.07672 21.0287 8.01113 21.0458 7.94592C21.0499 7.93076 21.0543 7.91559 21.0588 7.90043C21.0633 7.88526 21.0677 7.8701 21.0714 7.85493C21.0792 7.82308 21.0855 7.79124 21.0967 7.76015C21.0993 7.75673 21.1033 7.75332 21.1037 7.74953C21.1126 7.67446 21.139 7.60432 21.1616 7.5338C21.1716 7.50234 21.1813 7.47049 21.1909 7.43864C21.2043 7.39428 21.2176 7.34992 21.2314 7.30557C21.2425 7.26917 21.254 7.23277 21.2662 7.19675C21.2711 7.18273 21.2755 7.16832 21.2803 7.15391C21.2866 7.13571 21.293 7.11752 21.2993 7.09932C21.326 7.02349 21.352 6.94728 21.379 6.87146C21.3902 6.84037 21.4017 6.8089 21.4132 6.77781C21.4529 6.67128 21.4937 6.5655 21.536 6.46048C21.5479 6.43053 21.5601 6.40095 21.5724 6.37138C21.5824 6.3475 21.5921 6.32399 21.6017 6.3001C21.6254 6.24399 21.6496 6.18788 21.6737 6.13177C21.6926 6.08779 21.7119 6.04419 21.7316 6.00021C21.7464 5.96647 21.7616 5.93348 21.7769 5.89974C21.8177 5.81026 21.8592 5.72155 21.9026 5.63321C21.9101 5.61766 21.919 5.60288 21.9275 5.58809C21.936 5.5733 21.9446 5.55814 21.952 5.54221C22.0782 5.26886 22.2262 5.00764 22.3787 4.74907C22.3925 4.72594 22.4058 4.70281 22.4196 4.67969C22.4515 4.62585 22.4819 4.57125 22.5179 4.52083C22.5405 4.48936 22.5613 4.45751 22.5821 4.42491C22.6029 4.39268 22.6233 4.36008 22.6444 4.32823C22.6875 4.26453 22.7276 4.19857 22.7702 4.13449C22.7758 4.12615 22.7814 4.11781 22.7869 4.10947C22.8155 4.06739 22.8452 4.02606 22.8741 3.98436V3.98322V3.98208C22.8741 3.98208 22.8764 3.97981 22.8775 3.97905C22.8782 3.97905 22.879 3.97829 22.8797 3.97829C22.9216 3.92066 22.9636 3.86265 23.0055 3.80503C23.0074 3.80237 23.0096 3.8001 23.0114 3.79782C23.0126 3.79668 23.0133 3.79555 23.014 3.79479C23.0166 3.79176 23.0192 3.7891 23.0218 3.78607V3.78228C23.0218 3.78114 23.0218 3.78 23.0222 3.77924C23.023 3.77697 23.0237 3.77545 23.0248 3.77394C23.0259 3.77242 23.0278 3.77128 23.0293 3.76977C23.0311 3.76863 23.033 3.76749 23.0348 3.76635C23.0359 3.76522 23.0367 3.76408 23.0374 3.76294C23.0538 3.74209 23.0705 3.72124 23.0868 3.70038C23.0886 3.69811 23.0905 3.69546 23.0923 3.69318C23.0923 3.69166 23.0931 3.69053 23.0938 3.68901C23.0942 3.68787 23.0949 3.68636 23.0957 3.68522C23.0972 3.68294 23.099 3.68067 23.1009 3.67877C23.1009 3.67839 23.1016 3.67802 23.102 3.67764C23.109 3.67081 23.1179 3.66512 23.1198 3.65489V3.65299C23.1198 3.6511 23.1213 3.64958 23.1228 3.64882C23.1235 3.64882 23.1243 3.64844 23.125 3.64806C23.1298 3.64427 23.1343 3.64048 23.138 3.63593C23.1391 3.63479 23.1398 3.63366 23.1406 3.6329C23.1436 3.62949 23.1462 3.62569 23.1487 3.6219C23.1521 3.61697 23.1554 3.61167 23.1588 3.60636C23.1614 3.60257 23.164 3.5984 23.1666 3.59461C23.1684 3.59195 23.1703 3.5893 23.1721 3.58702C23.1847 3.5711 23.1977 3.55518 23.2103 3.53963C23.2994 3.42855 23.3911 3.32011 23.4853 3.21396C23.5592 3.13055 23.6356 3.04979 23.7128 2.96979C23.7262 2.95577 23.7399 2.94174 23.7532 2.92809C23.7785 2.90231 23.8048 2.87842 23.8308 2.85378C23.8412 2.84392 23.8516 2.83444 23.8616 2.82421C23.8638 2.82231 23.8657 2.82004 23.8679 2.81814C23.9002 2.78629 23.9332 2.75445 23.9659 2.72298C23.9666 2.72222 23.9674 2.72184 23.9681 2.72108C23.9766 2.71312 23.9863 2.70592 23.9952 2.69871C23.9974 2.69682 23.9993 2.69492 24.0015 2.69265C24.0022 2.69189 24.0026 2.69151 24.0034 2.69075C24.0134 2.68014 24.0238 2.6699 24.0338 2.65928C24.0353 2.65701 24.0368 2.65549 24.0386 2.65435C24.0405 2.65322 24.0427 2.65246 24.0453 2.65246C24.0483 2.65208 24.0509 2.65056 24.0531 2.64905C24.0546 2.64791 24.0561 2.64639 24.0575 2.64488C24.0586 2.64374 24.0594 2.64222 24.0605 2.64071C24.0624 2.63843 24.0646 2.63578 24.0664 2.6335C24.0928 2.60962 24.1191 2.58611 24.1462 2.56298C24.1503 2.55957 24.1544 2.55616 24.1585 2.55237C24.1844 2.53 24.2108 2.50801 24.2375 2.48602C24.2973 2.43711 24.3589 2.38972 24.4216 2.34498C24.4238 2.34384 24.4257 2.34271 24.4279 2.34157H24.4282C24.4301 2.33892 24.4323 2.33664 24.4346 2.33475C24.4487 2.32413 24.4631 2.31313 24.4772 2.3029C24.5058 2.28167 24.5351 2.26119 24.5641 2.2411C24.5785 2.23124 24.5934 2.22101 24.6082 2.21153C24.6231 2.20167 24.6379 2.19181 24.6528 2.18233C24.6977 2.15352 24.7429 2.12546 24.7889 2.09854C24.839 2.06897 24.8902 2.04054 24.9415 2.01324C25.0958 1.93211 25.2554 1.86348 25.4224 1.81268C25.435 1.80889 25.448 1.8051 25.4606 1.8013C25.5497 1.7759 25.6391 1.75657 25.73 1.74406C25.7816 1.73685 25.8339 1.73192 25.8862 1.72965C25.9256 1.72775 25.9649 1.72737 26.0046 1.72851C26.018 1.72889 26.031 1.72927 26.0443 1.73003C26.084 1.7323 26.1234 1.73647 26.1627 1.74216C26.2172 1.74974 26.2711 1.76036 26.3249 1.77439C26.3263 1.77401 26.3275 1.77363 26.3289 1.77439C26.3304 1.77439 26.3315 1.77552 26.3323 1.77666C26.3334 1.77704 26.3349 1.77742 26.336 1.7778C26.3386 1.77856 26.3408 1.77931 26.3434 1.78045C26.3434 1.77666 26.3438 1.77287 26.3442 1.76908C26.3434 1.76832 26.3427 1.76756 26.3416 1.76718L26.3427 1.76642Z" fill="#F1ECE2"/>
<path fill-rule="evenodd" clip-rule="evenodd" d="M25.7564 1.50557C25.7538 1.49382 25.7427 1.49268 25.7345 1.48889C25.5764 1.41723 25.4183 1.3452 25.2595 1.2743C25.2172 1.25534 25.1764 1.23335 25.1326 1.21819C25.1278 1.22122 25.1226 1.22084 25.1174 1.21895C25.0087 1.18255 24.8959 1.16435 24.7823 1.15715C24.678 1.1507 24.5734 1.15715 24.4699 1.17118C24.3845 1.18293 24.3006 1.20113 24.2175 1.22387C24.0561 1.26823 23.901 1.32852 23.7514 1.40396C23.6939 1.43316 23.6383 1.46614 23.5815 1.49685C23.5626 1.50709 23.5429 1.51619 23.5247 1.52718C23.3622 1.62614 23.2045 1.73267 23.0549 1.85134C23.0174 1.88091 22.9792 1.90973 22.9443 1.94195C22.9217 1.96281 22.8998 1.98404 22.8753 2.00224C22.8709 2.00565 22.866 2.00906 22.8605 2.01247C22.8564 2.01626 22.8523 2.01968 22.8482 2.02309V2.02385C22.8464 2.02878 22.8445 2.03332 22.8415 2.03598C22.8397 2.0375 22.8378 2.03825 22.8356 2.03863H22.8319H22.8311C22.8311 2.03863 22.8289 2.03787 22.8274 2.0375C22.8263 2.03825 22.8252 2.03901 22.8245 2.03977C22.8115 2.04925 22.8044 2.06555 22.7926 2.07503C22.7907 2.07655 22.7888 2.07768 22.787 2.07882C22.7558 2.0955 22.7369 2.12545 22.7091 2.14593C22.6823 2.16564 22.6601 2.1918 22.6356 2.21493C22.5142 2.32905 22.3996 2.44999 22.286 2.57207C22.2511 2.60961 22.22 2.6498 22.1866 2.68885C22.1673 2.71122 22.1458 2.73093 22.1268 2.75292C22.0752 2.8132 22.0252 2.875 21.9743 2.93566C21.9365 2.98078 21.9008 3.02741 21.8671 3.07556C21.8404 3.11386 21.8084 3.14798 21.7799 3.18475C21.6934 3.29811 21.6114 3.41489 21.5294 3.53128C21.4485 3.64616 21.3743 3.76559 21.2975 3.8835C21.2284 3.98927 21.165 4.09884 21.0993 4.20728C21.0752 4.24746 21.0537 4.28917 21.0292 4.32936C20.9872 4.39836 20.9483 4.46926 20.9115 4.54129C20.8885 4.56935 20.8748 4.60347 20.8573 4.63494C20.821 4.70091 20.7861 4.76764 20.7546 4.83626C20.7445 4.85825 20.7301 4.87683 20.7197 4.89882C20.6904 4.95986 20.6607 5.0209 20.6299 5.08156C20.5531 5.23397 20.4855 5.39055 20.4154 5.54638C20.3393 5.71471 20.2718 5.88722 20.205 6.05972C20.1597 6.17687 20.1141 6.29403 20.0781 6.41459C20.0721 6.43431 20.061 6.45213 20.0543 6.47146C20.0194 6.57534 19.9846 6.67885 19.9515 6.78311C19.9207 6.87903 19.8918 6.97571 19.864 7.07239C19.8372 7.16566 19.8116 7.25892 19.7871 7.35257C19.7393 7.53417 19.6955 7.71692 19.658 7.90079C19.6484 7.9497 19.6387 7.99861 19.6294 8.04752C19.5975 8.21396 19.5693 8.38154 19.5463 8.54987C19.5248 8.70987 19.507 8.87024 19.4929 9.03099C19.4918 9.04578 19.4906 9.06056 19.4895 9.07535C19.4829 9.16331 19.4777 9.25165 19.4743 9.34036C19.4702 9.44159 19.4695 9.54282 19.4688 9.64405C19.4688 9.6922 19.4736 9.74073 19.4732 9.78926C19.4725 9.86319 19.4788 9.93674 19.4829 10.0103C19.4843 10.0372 19.4854 10.0645 19.488 10.0918C19.4884 10.0964 19.4892 10.1013 19.4895 10.1058C19.4981 10.1767 19.5036 10.248 19.5133 10.3185C19.5226 10.3872 19.5318 10.4558 19.5441 10.5236C19.5619 10.6184 19.5786 10.7132 19.6072 10.8053C19.6161 10.8342 19.6209 10.8645 19.6291 10.8941C19.6461 10.9585 19.6665 11.0222 19.6888 11.0848C19.7211 11.1746 19.7582 11.2626 19.7983 11.349C19.8602 11.4817 19.9371 11.6053 20.0272 11.7198C20.1126 11.8286 20.2102 11.9245 20.3219 12.0049C20.3263 12.0083 20.3311 12.0114 20.336 12.0144C20.3441 12.0197 20.3523 12.025 20.3605 12.0303C20.3649 12.0334 20.3697 12.0364 20.3746 12.0394C20.3902 12.0493 20.4054 12.0595 20.4202 12.0705C20.4202 12.0705 20.4206 12.0705 20.421 12.0709C20.4254 12.0743 20.4299 12.0777 20.4343 12.0815C20.4343 12.0823 20.4351 12.083 20.4354 12.0838C20.438 12.0876 20.4432 12.0879 20.4473 12.0898C20.6403 12.177 20.8329 12.2642 21.0258 12.3514C21.0336 12.3549 21.041 12.3602 21.0503 12.3579C21.0492 12.356 21.0485 12.3545 21.0473 12.3526C21.0392 12.3416 21.0262 12.3374 21.0151 12.3302C20.9561 12.2919 20.9 12.2491 20.8477 12.2024C20.8199 12.1778 20.7928 12.1516 20.7668 12.1247C20.6674 12.0216 20.5835 11.9071 20.5122 11.7846C20.4863 11.7399 20.4618 11.694 20.4388 11.647C20.425 11.619 20.4117 11.5905 20.3991 11.5617C20.3935 11.5492 20.3883 11.5371 20.3831 11.5246C20.3779 11.512 20.3727 11.4999 20.3675 11.4874C20.2948 11.3092 20.2421 11.1249 20.2024 10.9369C20.1905 10.8812 20.1801 10.8251 20.1705 10.7686C20.1512 10.6533 20.1367 10.5377 20.1259 10.4213C20.1152 10.3053 20.1089 10.1885 20.1052 10.0717C20.1014 9.94812 20.1022 9.82414 20.1059 9.70054C20.1063 9.6922 20.1063 9.68386 20.1066 9.67552C20.1089 9.61107 20.1118 9.54661 20.1152 9.48216C20.1189 9.41809 20.1233 9.35363 20.1285 9.28956C20.1297 9.27553 20.1311 9.26151 20.133 9.24179C20.133 9.23989 20.1334 9.238 20.1334 9.2361C20.1356 9.21032 20.1378 9.18454 20.1408 9.15876C20.1523 9.0435 20.1668 8.92863 20.1827 8.81413C20.1994 8.69508 20.2183 8.57679 20.2391 8.45888C20.2417 8.44447 20.2447 8.43044 20.2473 8.41604C20.2477 8.41338 20.2484 8.41073 20.2488 8.4077C20.2503 8.40049 20.2514 8.39329 20.2529 8.38609C20.2562 8.36789 20.2595 8.35007 20.2629 8.33225C20.2773 8.2568 20.2926 8.18135 20.3089 8.10629C20.3278 8.01833 20.3482 7.93075 20.3694 7.84355C20.3928 7.74649 20.4172 7.64981 20.4432 7.55351C20.4432 7.55199 20.444 7.55048 20.4443 7.54896C20.461 7.48754 20.4785 7.42612 20.4963 7.36508C20.5397 7.21646 20.5846 7.06822 20.6328 6.92111C20.6592 6.8415 20.6866 6.76226 20.7145 6.6834C20.7672 6.5344 20.8225 6.38654 20.8807 6.24019C20.9902 5.9638 21.1089 5.69121 21.2377 5.42278C21.2615 5.37311 21.2856 5.32345 21.3101 5.27416C21.368 5.15739 21.4281 5.04137 21.4897 4.92649C21.506 4.89578 21.5227 4.86507 21.539 4.83474C21.5405 4.83247 21.542 4.82981 21.5431 4.82754C21.545 4.82413 21.5465 4.82071 21.5461 4.81654C21.5483 4.81275 21.5509 4.80896 21.5528 4.80555C21.5706 4.77332 21.5884 4.7411 21.6066 4.70887C21.6429 4.6448 21.6793 4.5811 21.7168 4.51741C21.7431 4.47267 21.7698 4.42793 21.7966 4.38357C21.8266 4.33353 21.857 4.28386 21.8882 4.23457C21.9272 4.1724 21.9669 4.11022 22.007 4.0488C22.0493 3.98397 22.0923 3.92027 22.1361 3.85658C22.1621 3.81829 22.1884 3.78037 22.2148 3.74208V3.7398C22.2148 3.73943 22.2151 3.73867 22.2155 3.73829C22.2163 3.73715 22.2177 3.73677 22.2192 3.73677C22.2266 3.72616 22.2337 3.71516 22.2415 3.70455C22.5339 3.29432 22.8534 2.90761 23.213 2.55653C23.3425 2.43028 23.4761 2.30971 23.616 2.19635C23.6717 2.15086 23.7284 2.10688 23.7863 2.06366L23.8008 2.05304C23.8249 2.03522 23.8494 2.01778 23.8739 2.00034C23.9919 1.91693 24.1129 1.83921 24.2379 1.76945C24.2617 1.75618 24.2858 1.74329 24.3099 1.73078C24.3281 1.7213 24.3459 1.71182 24.3641 1.70272C24.3797 1.69476 24.3953 1.68718 24.4109 1.67959C24.4736 1.64964 24.537 1.62159 24.602 1.59618C24.8083 1.51505 25.0205 1.4597 25.2421 1.44756C25.4091 1.43846 25.5735 1.45363 25.7345 1.5033C25.7416 1.50557 25.7486 1.50898 25.756 1.50595C25.756 1.50557 25.7635 1.50292 25.756 1.50595L25.7564 1.50557Z" fill="#FDBF41"/>
<path fill-rule="evenodd" clip-rule="evenodd" d="M25.097 1.20265C24.9534 1.13706 24.8094 1.07336 24.6665 1.00701C24.5029 0.930809 24.3329 0.883796 24.1529 0.875076C24.1077 0.875076 24.062 0.875076 24.0167 0.875455H23.9637C23.8731 0.880384 23.7837 0.894033 23.695 0.913369C23.4334 0.970239 23.19 1.07488 22.9565 1.20606C22.7217 1.338 22.5035 1.49572 22.296 1.6686C22.2697 1.69059 22.2411 1.71069 22.2181 1.73723C22.2162 1.73798 22.2144 1.7395 22.2133 1.7414V1.74367H22.2122H22.211C22.2051 1.7486 22.1992 1.75315 22.1932 1.75808C21.9635 1.95902 21.7502 2.17702 21.5483 2.40716C21.3086 2.68089 21.0874 2.96979 20.8807 3.27006C20.5727 3.71744 20.3 4.18681 20.0569 4.67399C19.8929 5.00232 19.7437 5.33786 19.6094 5.68021C19.4695 6.03736 19.3411 6.39905 19.2379 6.76947C19.2264 6.81041 19.2123 6.85098 19.2008 6.89193C19.1162 7.19713 19.0431 7.50499 18.9856 7.81663C18.9366 8.08089 18.8976 8.34628 18.872 8.61395C18.8531 8.80807 18.8401 9.00256 18.8409 9.19782C18.8409 9.28653 18.8412 9.37525 18.8416 9.46397C18.8427 9.4761 18.8431 9.48823 18.8434 9.50036C18.8438 9.51932 18.8434 9.5379 18.8427 9.55686C18.8434 9.66491 18.8524 9.7722 18.8624 9.87988C18.8791 10.0554 18.905 10.2291 18.9433 10.4008C18.9908 10.6162 19.0557 10.8251 19.1481 11.0249C19.2472 11.2387 19.373 11.4332 19.5429 11.5958C19.642 11.6906 19.7511 11.7706 19.8739 11.8294C19.983 11.8817 20.0936 11.9306 20.2042 11.9803C20.2799 12.0144 20.3549 12.0512 20.4321 12.0815C20.4276 12.0781 20.4232 12.0743 20.4187 12.0709C20.4187 12.0709 20.4183 12.0709 20.418 12.0705C20.4031 12.0595 20.3879 12.0493 20.3723 12.0394C20.3675 12.0364 20.363 12.0334 20.3582 12.0303C20.3501 12.025 20.3419 12.0201 20.3337 12.0144C20.3289 12.0114 20.3244 12.008 20.3196 12.0049C20.2079 11.9242 20.1107 11.8286 20.025 11.7198C19.9348 11.6053 19.858 11.4817 19.796 11.349C19.7556 11.2626 19.7185 11.1746 19.6866 11.0848C19.6643 11.0222 19.6439 10.9585 19.6268 10.8941C19.619 10.8649 19.6138 10.8345 19.6049 10.8053C19.5763 10.7132 19.5593 10.6184 19.5418 10.5236C19.5292 10.4558 19.5203 10.3872 19.511 10.3185C19.5014 10.248 19.4954 10.1767 19.4873 10.1058C19.4869 10.1013 19.4862 10.0964 19.4858 10.0918C19.4832 10.0649 19.4821 10.0376 19.4806 10.0103C19.4769 9.93675 19.4706 9.8632 19.471 9.78926C19.471 9.74111 19.4661 9.69259 19.4665 9.64406C19.4672 9.54283 19.4684 9.4416 19.4721 9.34037C19.4754 9.25203 19.4806 9.16369 19.4873 9.07536C19.4884 9.06057 19.4895 9.04578 19.4906 9.031C19.5047 8.87024 19.5225 8.70987 19.5441 8.54988C19.5671 8.38154 19.5953 8.21396 19.6272 8.04753C19.6365 7.99862 19.6461 7.94971 19.6558 7.9008C19.6929 7.71654 19.737 7.53418 19.7849 7.35257C19.8094 7.25893 19.835 7.16528 19.8617 7.07239C19.8895 6.97534 19.9185 6.87904 19.9493 6.78311C19.9827 6.67885 20.0176 6.57497 20.0521 6.47147C20.0584 6.45175 20.0699 6.43393 20.0758 6.4146C20.1122 6.29403 20.1575 6.17688 20.2027 6.05973C20.2695 5.88722 20.3371 5.7151 20.4131 5.54638C20.4833 5.39094 20.5508 5.23397 20.6276 5.08156C20.6581 5.0209 20.6881 4.95986 20.7174 4.89882C20.7278 4.87721 20.7427 4.85825 20.7523 4.83626C20.7838 4.76764 20.8187 4.70091 20.8551 4.63494C20.8725 4.60348 20.8863 4.56935 20.9093 4.5413C20.946 4.46926 20.985 4.39836 21.0269 4.32936C21.0514 4.28955 21.0729 4.24747 21.097 4.20728C21.1624 4.09885 21.2258 3.98966 21.2952 3.8835C21.372 3.76559 21.4462 3.64616 21.5271 3.53129C21.6091 3.41489 21.6911 3.29812 21.7776 3.18476C21.8058 3.1476 21.8377 3.11386 21.8648 3.07557C21.8986 3.02742 21.9342 2.98078 21.9721 2.93567C22.0229 2.87463 22.073 2.81283 22.1246 2.75292C22.1435 2.73094 22.165 2.71122 22.1843 2.68885C22.2177 2.65018 22.2489 2.60961 22.2838 2.57208C22.3973 2.45 22.512 2.32905 22.6333 2.21493C22.6578 2.19181 22.6801 2.16565 22.7068 2.14593C22.7346 2.12546 22.7532 2.09551 22.7847 2.07883C22.7866 2.07769 22.7888 2.07655 22.7903 2.07503C22.8022 2.06556 22.8092 2.04925 22.8222 2.03977C22.8233 2.03902 22.8244 2.03826 22.8252 2.0375C22.8259 2.03295 22.8274 2.02916 22.8296 2.02688C22.8319 2.02423 22.8345 2.02271 22.8382 2.02233C22.8404 2.02233 22.8434 2.02233 22.8463 2.02309C22.8504 2.01968 22.8545 2.01589 22.8586 2.01248C22.8641 2.00869 22.8686 2.00565 22.8734 2.00224C22.8979 1.98404 22.9198 1.96319 22.9424 1.94196C22.9773 1.90935 23.0159 1.88092 23.053 1.85135C23.2026 1.73268 23.3603 1.62614 23.5228 1.52719C23.5414 1.51619 23.5607 1.50709 23.5796 1.49686C23.6364 1.46577 23.692 1.43278 23.7496 1.40397C23.8991 1.32852 24.0546 1.26824 24.2156 1.22388C24.2988 1.20113 24.3826 1.18331 24.468 1.17118C24.5715 1.15677 24.6762 1.15071 24.7804 1.15715C24.8943 1.16436 25.0068 1.18255 25.1155 1.21895C25.1211 1.22085 25.1259 1.22123 25.1307 1.21819C25.1215 1.20796 25.1074 1.20796 25.0958 1.20265H25.097Z" fill="#FF1100"/>
<path opacity="0.48" fill-rule="evenodd" clip-rule="evenodd" d="M30.0855 10.3307C30.104 10.3159 30.104 10.3144 30.0855 10.2996C30.0424 10.2643 29.9964 10.2336 29.9493 10.2044C29.7919 10.107 29.6238 10.0327 29.4517 9.96821C29.4123 9.95343 29.3741 9.93561 29.3322 9.92802C29.3207 9.91476 29.3036 9.91362 29.2888 9.90869C29.1281 9.85409 28.9644 9.80936 28.8004 9.76651C28.7867 9.76538 28.7733 9.76234 28.7614 9.75552C28.6846 9.73846 28.6078 9.72102 28.5314 9.70396C28.3892 9.67249 28.2464 9.64519 28.1031 9.62055C27.997 9.60235 27.8905 9.58529 27.784 9.56899C27.7009 9.55647 27.6178 9.54358 27.5339 9.53752C27.5202 9.53524 27.5064 9.53259 27.4923 9.53069C27.1988 9.49392 26.9049 9.46624 26.6099 9.44539C26.4173 9.43212 26.2247 9.4215 26.0317 9.41392C25.7798 9.40406 25.5274 9.39951 25.2751 9.39951C24.9623 9.39951 24.6498 9.40747 24.3377 9.42302C23.9771 9.44084 23.6171 9.46889 23.2583 9.50984C23.1996 9.51667 23.1403 9.52046 23.0824 9.53335C23.0705 9.52994 23.059 9.53335 23.0471 9.53448C22.7914 9.56671 22.5369 9.60652 22.2838 9.65543C22.1342 9.68424 21.9854 9.71609 21.8378 9.75211L21.8348 9.75704C21.8348 9.75704 21.7966 10.3189 21.8812 10.8675C22.027 10.9028 22.1736 10.9342 22.3205 10.9623C22.4519 10.9873 22.5836 11.0112 22.7161 11.0305C22.9017 11.0578 23.0876 11.0855 23.2742 11.1052C23.4557 11.1246 23.6368 11.1447 23.8186 11.1583C23.9262 11.1663 24.0335 11.1758 24.1411 11.1822C24.3003 11.1917 24.4598 11.1996 24.619 11.2053C24.7645 11.2106 24.91 11.2148 25.0554 11.2167C25.2881 11.2197 25.5211 11.2186 25.7538 11.2137C25.9779 11.2087 26.2021 11.2 26.4258 11.1871C26.6926 11.172 26.9591 11.1504 27.2252 11.1223C27.6307 11.0795 28.0341 11.0218 28.4338 10.9403C28.783 10.869 29.1281 10.7818 29.4628 10.656C29.6086 10.6014 29.7515 10.5388 29.8873 10.4615C29.9563 10.4224 30.0231 10.38 30.0855 10.3303V10.3307Z" fill="url(#paint0_linear_387_443081)"/>
<path fill-rule="evenodd" clip-rule="evenodd" d="M32 25C32 24.0838 31.8177 23.1677 31.4672 22.3212C31.1166 21.4748 30.5976 20.6981 29.9497 20.0503C29.3019 19.4024 28.5252 18.8834 27.6788 18.5328C26.8323 18.1823 25.9162 18 25 18C24.0838 18 23.1677 18.1823 22.3212 18.5328C21.4748 18.8834 20.6981 19.4024 20.0503 20.0503C19.4024 20.6981 18.8834 21.4748 18.5328 22.3212C18.1823 23.1677 18 24.0838 18 25C18 25.9162 18.1823 26.8323 18.5328 27.6788C18.8834 28.5252 19.4024 29.3019 20.0503 29.9497C20.6981 30.5976 21.4748 31.1166 22.3212 31.4672C23.1677 31.8177 24.0838 32 25 32C25.9162 32 26.8323 31.8177 27.6788 31.4672C28.5252 31.1166 29.3019 30.5976 29.9497 29.9497C30.5976 29.3019 31.1166 28.5252 31.4672 27.6788C31.8177 26.8323 32 25.9162 32 25Z" fill="#2775CA"/>
<path fill-rule="evenodd" clip-rule="evenodd" d="M23.7182 29.8494C23.7182 30.0205 23.5992 30.0774 23.4265 30.0774C21.2659 29.3859 19.75 27.4215 19.75 25.1112C19.75 22.8009 21.2659 20.8365 23.4265 20.1449C23.5997 20.0895 23.7182 20.2019 23.7182 20.3768C23.7182 20.511 23.7182 20.6453 23.7182 20.7795C23.7182 20.8973 23.6568 21.0113 23.5416 21.0682C21.8492 21.7028 20.6825 23.2646 20.6825 25.1112C20.6825 26.9617 21.9068 28.5765 23.5416 29.1541C23.6568 29.2111 23.7182 29.3289 23.7182 29.4429C23.7182 29.5784 23.7182 29.714 23.7182 29.8494Z" fill="white"/>
<path fill-rule="evenodd" clip-rule="evenodd" d="M25.4678 28.4054C25.4678 28.5194 25.3488 28.6333 25.2337 28.6333C25.0776 28.6333 24.9216 28.6333 24.7655 28.6333C24.6505 28.6333 24.5315 28.5194 24.5315 28.4054C24.5315 28.1737 24.5315 27.9418 24.5315 27.71C23.5988 27.5961 23.1345 27.0754 22.958 26.3232C22.958 26.2091 23.0155 26.0952 23.1345 26.0952C23.3084 26.0952 23.4824 26.0952 23.6565 26.0952C23.7755 26.0952 23.833 26.1521 23.8905 26.2661C24.0095 26.6728 24.2397 27.0185 24.9996 27.0185C25.583 27.0185 25.9897 26.7297 25.9897 26.2661C25.9897 25.8064 25.7595 25.6316 24.9421 25.5176C23.7172 25.3468 23.1345 24.9971 23.1345 24.0129C23.1345 23.2644 23.7178 22.6868 24.5315 22.569C24.5315 22.3384 24.5315 22.1079 24.5315 21.8774C24.5315 21.7635 24.6505 21.6457 24.7655 21.6457C24.9216 21.6457 25.0776 21.6457 25.2337 21.6457C25.3488 21.6457 25.4678 21.7635 25.4678 21.8774C25.4678 22.1079 25.4678 22.3384 25.4678 22.569C26.1662 22.6868 26.6345 23.0896 26.7496 23.7242C26.7496 23.842 26.6921 23.9559 26.5731 23.9559C26.4182 23.9559 26.2635 23.9559 26.1087 23.9559C25.9897 23.9559 25.9322 23.899 25.8746 23.7849C25.7595 23.3783 25.4678 23.2074 24.9421 23.2074C24.3587 23.2074 24.0671 23.4961 24.0671 23.899C24.0671 24.3016 24.2397 24.5334 25.1147 24.6512C26.3436 24.8167 26.9262 25.168 26.9262 26.1521C26.9262 26.9006 26.3428 27.5391 25.4678 27.71V28.4054Z" fill="white"/>
<path fill-rule="evenodd" clip-rule="evenodd" d="M26.5738 30.0773C26.4012 30.1381 26.2822 30.0203 26.2822 29.8492C26.2822 29.7138 26.2822 29.5782 26.2822 29.4427C26.2822 29.3287 26.3435 29.2109 26.4588 29.154C28.1512 28.5194 29.3178 26.9615 29.3178 25.111C29.3178 23.2644 28.0935 21.6457 26.4588 21.0681C26.3435 21.0111 26.2822 20.8971 26.2822 20.7793C26.2822 20.6451 26.2822 20.5108 26.2822 20.3766C26.2822 20.2017 26.4012 20.1447 26.5738 20.1447C28.6769 20.8363 30.2504 22.8007 30.2504 25.111C30.2504 27.4213 28.7345 29.3857 26.5738 30.0773Z" fill="white"/>
<defs>
<linearGradient id="paint0_linear_387_443081" x1="437.35" y1="30.3274" x2="437.102" y2="166.37" gradientUnits="userSpaceOnUse">
<stop offset="0.16" stop-color="#191919"/>
<stop offset="0.97" stop-color="#191919" stop-opacity="0"/>
</linearGradient>
<clipPath id="clip0_387_443081">
<rect width="26" height="26" fill="white" transform="translate(0 3)"/>
</clipPath>
</defs>
</svg>
