<svg width="32" height="32" viewBox="0 0 32 32" fill="none" xmlns="http://www.w3.org/2000/svg">
<path fill-rule="evenodd" clip-rule="evenodd" d="M32 16C32 13.9059 31.5834 11.8118 30.7821 9.87712C29.9808 7.9424 28.7946 6.16704 27.3136 4.6864C25.833 3.20544 24.0576 2.0192 22.1229 1.21792C20.1882 0.41664 18.0941 0 16 0C13.9059 0 11.8118 0.41664 9.87712 1.21792C7.9424 2.0192 6.16704 3.20544 4.6864 4.6864C3.20544 6.16704 2.0192 7.9424 1.21792 9.87712C0.41664 11.8118 0 13.9059 0 16C0 18.0941 0.41664 20.1882 1.21792 22.1229C2.0192 24.0576 3.20544 25.833 4.6864 27.3136C6.16704 28.7946 7.9424 29.9808 9.87712 30.7821C11.8118 31.5834 13.9059 32 16 32C18.0941 32 20.1882 31.5834 22.1229 30.7821C24.0576 29.9808 25.833 28.7946 27.3136 27.3136C28.7946 25.833 29.9808 24.0576 30.7821 22.1229C31.5834 20.1882 32 18.0941 32 16Z" fill="url(#paint0_linear_10_31365)"/>
<path fill-rule="evenodd" clip-rule="evenodd" d="M8.38021 19.4412V24.916L8.37733 24.9179V24.9281C10.6909 24.8964 13.0045 24.8964 15.3175 24.9281C16.1031 24.9388 16.8881 24.8888 17.6577 24.7399C18.4705 24.5824 19.2666 24.3429 20.018 23.9978C20.343 23.8487 20.655 23.6686 20.9697 23.4869C21.0522 23.4393 21.1348 23.3915 21.218 23.3442C21.5911 23.0812 21.9489 22.797 22.2881 22.4932C23.2183 21.6602 23.9383 20.6217 24.3882 19.4633C24.4186 19.3334 24.5469 19.2498 24.6785 19.2751H26.5684C26.7188 19.2751 26.7687 19.2251 26.7687 19.0568V17.8586C26.7789 17.7436 26.7789 17.6276 26.7687 17.5126C26.7687 17.4825 26.7765 17.4526 26.7842 17.4227C26.7997 17.3631 26.8151 17.3038 26.7687 17.2446H25.1895C24.9988 17.2446 24.9988 17.2249 24.9988 17.0567C25.0535 16.4534 25.0314 15.8496 24.9988 15.245C24.9889 15.067 25.0292 15.067 25.169 15.067H26.5489C26.7095 15.067 26.7623 15.0267 26.7697 14.8686C26.7946 14.3265 26.7946 13.7854 26.7697 13.2446C26.7646 13.1375 26.7621 13.083 26.7335 13.0553C26.704 13.0266 26.6465 13.0266 26.5297 13.0266H24.7396C24.6 13.05 24.4663 12.9569 24.4407 12.8184C24.2356 12.2874 23.9789 11.7761 23.6596 11.3033C23.3428 10.8344 22.9933 10.3864 22.5898 9.9869C22.0634 9.46635 21.4746 9.01043 20.8301 8.64005C19.8615 8.08369 18.8026 7.69336 17.6999 7.49185C17.1652 7.39395 16.625 7.31348 16.0801 7.31348H8.58053C8.38021 7.31348 8.38021 7.3534 8.38021 7.51181V12.8485C8.38021 13.0367 8.33989 13.0367 8.19013 13.0367H6.04037C5.88037 13.0367 5.88037 13.0656 5.88037 13.1749V14.9171C5.88037 15.0755 5.92997 15.0755 6.05029 15.0755H8.22053C8.38021 15.0755 8.38021 15.1047 8.38021 15.2235V17.0849C8.38021 17.2534 8.32965 17.2534 8.20037 17.2534H5.88037V19.1345C5.88037 19.2929 5.92997 19.2929 6.05029 19.2929H8.22053C8.38021 19.2929 8.38021 19.3119 8.38021 19.4412ZM22.6695 17.2427H16.5901H10.6295C10.5078 17.2427 10.448 17.2427 10.4186 17.2128C10.3901 17.1838 10.3901 17.127 10.3901 17.0152V15.253C10.3901 15.1139 10.4301 15.0648 10.5796 15.0648H22.6797C22.8103 15.0648 22.8698 15.1139 22.8698 15.2327C22.9194 15.8458 22.9041 16.4607 22.8698 17.0744C22.8605 17.2427 22.7994 17.2427 22.6695 17.2427ZM22.1908 13.005C22.2081 12.9601 22.2081 12.9113 22.1908 12.8669C22.0893 12.648 21.969 12.4392 21.8295 12.2431C21.6193 11.9079 21.3713 11.5993 21.0893 11.322C20.9562 11.1544 20.802 11.0042 20.6292 10.8766C19.7636 10.1472 18.7345 9.6311 17.6289 9.37162C17.0721 9.24108 16.5009 9.18849 15.9287 9.19324C14.1389 9.20845 12.3492 9.20845 10.5591 9.19324C10.409 9.19197 10.3892 9.25249 10.3892 9.38144V12.8961C10.3892 13.0443 10.3892 13.0842 10.5793 13.0842H22.1188L22.1188 13.0842C22.124 13.0832 22.2187 13.0645 22.2391 13.005H22.1908ZM21.6794 19.3024C21.8493 19.2837 22.0209 19.2837 22.1908 19.3024V19.3033C22.269 19.3424 22.2038 19.483 22.1995 19.4923L22.1994 19.4925C21.5847 20.6841 20.6097 21.6555 19.4093 22.2733H19.3396C19.1085 22.4096 18.8609 22.5151 18.6103 22.6098C17.9133 22.8731 17.1825 23.0328 16.4391 23.0854C16.1994 23.1357 15.9546 23.1528 15.7098 23.1348H10.5898C10.3901 23.1348 10.3901 23.0945 10.3901 22.9364V19.5001C10.3901 19.3024 10.4404 19.3024 10.5898 19.3024H21.6794Z" fill="white"/>
<defs>
<linearGradient id="paint0_linear_10_31365" x1="0" y1="0" x2="32" y2="32" gradientUnits="userSpaceOnUse">
<stop stop-color="#80C04B"/>
<stop offset="1" stop-color="#5CB44F"/>
</linearGradient>
</defs>
</svg>
