<svg version="1.1" id="Layer_1" xmlns="http://www.w3.org/2000/svg" xmlns:xlink="http://www.w3.org/1999/xlink" x="0px" y="0px"
	 width="100%" viewBox="0 0 480 480" enable-background="new 0 0 480 480" xml:space="preserve">
<path fill="#FFFFFF" opacity="1.000000" stroke="none" 
	d="
M1.000000,366.000000 
	C1.000000,244.456055 1.000000,122.912117 1.000000,1.000000 
	C23.686234,1.000000 46.374458,1.000000 69.413345,1.456761 
	C69.824631,9.279667 69.885254,16.645811 69.883759,24.476673 
	C69.816811,136.466843 69.811424,247.992310 69.814972,359.517761 
	C69.815010,360.678619 69.932617,361.839508 69.893196,363.312439 
	C69.715393,364.055511 69.639740,364.486450 69.434204,365.010986 
	C69.076118,365.207611 68.978340,365.383362 68.542969,365.662659 
	C64.760689,365.693604 61.446365,365.679260 58.132202,365.696167 
	C39.088116,365.793365 20.044064,365.897949 1.000000,366.000000 
z"/>
<path fill="#00FFF0" opacity="1.000000" stroke="none" 
	d="
M140.000000,0.999999 
	C161.687561,1.000000 183.375122,1.000000 205.573792,1.230467 
	C206.187759,1.765157 206.364792,2.017298 206.632385,2.666583 
	C206.755005,7.412942 206.861237,11.710076 206.911713,16.472847 
	C206.846786,18.603165 206.829788,20.267839 206.829544,21.932520 
	C206.812607,135.638443 206.797012,249.344376 206.484528,363.016052 
	C205.787979,362.986603 205.388214,362.991394 204.776169,363.099121 
	C204.297501,363.388458 204.108780,363.634460 203.529449,363.952881 
	C182.045105,363.950409 161.029099,363.935120 139.995590,363.642639 
	C139.729446,362.885803 139.480789,362.406128 139.020309,361.845581 
	C138.808487,361.764709 138.357132,361.808411 138.311249,361.354919 
	C138.253784,246.262131 138.240707,131.622803 138.249191,16.983465 
	C138.249283,15.673154 138.529297,14.362863 138.995361,12.889902 
	C139.101105,9.801365 138.890167,6.875486 138.529358,3.645114 
	C138.480484,2.911873 138.581467,2.483125 138.905731,2.016517 
	C139.419327,1.652438 139.709671,1.326218 140.000000,0.999999 
z"/>
<path fill="#FFF728" opacity="1.000000" stroke="none" 
	d="
M138.678650,13.052563 
	C138.529297,14.362863 138.249283,15.673154 138.249191,16.983465 
	C138.240707,131.622803 138.253784,246.262131 138.058899,361.620087 
	C137.733688,362.551636 137.614944,362.764587 137.116211,363.062012 
	C134.800934,363.432251 132.866547,363.959076 130.930267,363.966034 
	C113.219254,364.029480 95.507729,364.043274 77.796898,363.957489 
	C75.194893,363.944885 72.595795,363.334290 69.995346,363.000366 
	C69.932617,361.839508 69.815010,360.678619 69.814972,359.517761 
	C69.811424,247.992310 69.816811,136.466843 70.196167,24.192921 
	C70.713806,15.962966 70.856903,8.481483 71.000000,1.000000 
	C93.020897,1.000000 115.041786,1.000000 137.651031,1.296552 
	C138.387054,1.746862 138.534744,1.900619 138.682449,2.054377 
	C138.581467,2.483125 138.480484,2.911873 138.316849,4.060035 
	C138.395691,7.537153 138.537170,10.294858 138.678650,13.052563 
z"/>
<path fill="#FF1F0B" opacity="1.000000" stroke="none" 
	d="
M344.000000,1.000000 
	C366.020905,1.000000 388.041779,1.000000 410.525146,1.468626 
	C410.987061,118.745796 410.981628,235.554337 411.029205,352.362854 
	C411.029968,354.246796 411.678894,356.130432 412.109131,358.259216 
	C412.183136,358.676514 412.173370,358.848816 411.803406,359.142548 
	C411.314667,360.504639 411.186127,361.745361 410.668488,363.148804 
	C409.160858,363.539337 408.042297,363.965515 406.923737,363.965515 
	C385.910278,363.965210 364.896820,363.914398 343.847504,363.414429 
	C343.813354,243.799179 343.814392,124.643677 343.824402,5.488173 
	C343.824524,3.992111 343.938934,2.496058 344.000000,1.000000 
z"/>
<path fill="#01FF13" opacity="1.000000" stroke="none" 
	d="
M206.781281,363.050293 
	C206.797012,249.344376 206.812607,135.638443 206.829544,21.932520 
	C206.829788,20.267839 206.846786,18.603165 207.229691,16.197229 
	C207.735611,10.637315 207.867798,5.818657 208.000000,1.000000 
	C229.354233,1.000000 250.708450,1.000000 272.620789,1.208119 
	C273.341156,1.681126 273.562805,1.879707 273.878662,2.478498 
	C273.920135,117.997017 273.940338,233.049011 273.887177,348.100983 
	C273.884888,353.042419 273.204926,357.983490 272.541687,362.971191 
	C271.510834,363.353851 270.778870,363.690125 269.574036,364.015381 
	C251.354782,364.000122 233.608261,364.036926 215.862381,363.946320 
	C213.256195,363.933014 210.653107,363.314301 207.838730,362.952271 
	C207.628876,362.928833 207.208344,362.890198 207.095276,362.913452 
	C206.982224,362.936676 206.781281,363.050293 206.781281,363.050293 
z"/>
<path fill="#0100F4" opacity="1.000000" stroke="none" 
	d="
M414.000000,1.000000 
	C436.310547,1.000000 458.621063,1.000000 481.000000,1.000000 
	C481.000000,121.354218 481.000000,241.708450 480.531342,362.531982 
	C474.743103,363.001434 469.420929,362.895111 464.104492,363.024414 
	C453.838318,363.274109 443.576599,363.847107 433.310608,363.914825 
	C426.895020,363.957153 420.474915,363.320831 414.045105,362.521240 
	C414.022247,241.702286 414.011108,121.351143 414.000000,1.000000 
z"/>
<path fill="#FE1AF2" opacity="1.000000" stroke="none" 
	d="
M343.750000,1.000000 
	C343.938934,2.496058 343.824524,3.992111 343.824402,5.488173 
	C343.814392,124.643677 343.813354,243.799179 343.847260,363.367737 
	C343.882874,363.780792 343.788666,363.781250 343.546387,363.800323 
	C343.304077,363.819397 342.838867,363.967926 342.403809,363.977356 
	C338.973969,364.249023 335.979126,364.511292 332.528992,364.807617 
	C328.724762,364.814270 325.375824,364.786835 321.816223,364.557983 
	C320.728058,364.494263 319.850616,364.631958 318.507996,364.806274 
	C305.343170,364.789215 292.643524,364.735504 279.832886,364.507996 
	C279.515411,364.144440 279.281067,363.999939 279.013550,363.438232 
	C279.005463,242.317215 279.002716,121.658607 279.000000,1.000000 
	C299.687561,1.000000 320.375122,1.000000 341.621338,1.170128 
	C342.453339,1.226838 342.726654,1.113421 343.000000,1.000002 
	C343.000000,1.000000 343.500000,1.000000 343.750000,1.000000 
z"/>
<path fill="#000000" opacity="1.000000" stroke="none" 
	d="
M481.000000,377.000000 
	C481.000000,411.585815 481.000000,446.171631 481.000000,481.000000 
	C453.312897,481.000000 425.625122,481.000000 397.365204,480.540863 
	C396.781036,447.873138 396.796661,415.664429 396.682465,383.456207 
	C396.676178,381.679718 395.591797,379.907013 394.549377,378.068237 
	C390.061005,378.057404 386.032562,378.110931 381.777527,378.090088 
	C381.550934,378.015656 381.075256,378.050598 380.606079,378.024078 
	C375.738373,378.009399 371.339874,378.021240 366.699463,378.011749 
	C366.457550,377.990387 365.994415,378.136749 365.535278,378.075806 
	C361.059509,378.068420 357.042816,378.121918 352.589569,378.099487 
	C349.462555,377.684906 346.772156,377.346283 344.459717,376.914764 
	C345.228302,374.211334 345.618927,371.600769 346.477600,368.992493 
	C366.687866,368.996460 386.430115,369.013824 406.172241,368.977539 
	C408.310944,368.973602 411.215851,369.875977 411.270538,365.898590 
	C411.730255,365.881195 411.913666,365.926178 412.051727,366.437469 
	C412.006348,370.341705 412.006348,373.779633 412.006348,377.363129 
	C424.089752,377.363129 435.671204,377.410370 447.252106,377.349670 
	C458.501678,377.290680 469.750732,377.121033 481.000000,377.000000 
z"/>
<path fill="#21529E" opacity="1.000000" stroke="none" 
	d="
M84.000000,481.000000 
	C56.398205,481.000000 28.796412,481.000000 1.000000,481.000000 
	C1.000000,446.646027 1.000000,412.291656 1.442864,377.502625 
	C4.248394,377.018677 6.611061,376.969391 9.437311,376.961945 
	C13.943673,376.972412 17.986450,376.941071 22.477097,376.965820 
	C25.941376,376.988464 28.957787,376.955017 32.440346,376.964752 
	C37.611008,376.985382 42.315521,376.962830 47.459190,376.992249 
	C50.256458,377.002258 52.614567,376.960266 55.433701,376.959167 
	C59.599392,376.967682 63.304062,376.935272 67.254761,376.930969 
	C67.500793,376.959045 67.982674,376.844727 68.312569,376.883240 
	C69.084999,376.917999 69.527542,376.914246 70.356438,377.092651 
	C75.186516,377.554901 79.630241,377.834991 84.039505,378.318237 
	C84.005058,378.521362 84.021072,378.933136 84.013214,379.405945 
	C84.003578,413.585815 84.001785,447.292908 84.000000,481.000000 
z"/>
<path fill="#1E54D6" opacity="1.000000" stroke="none" 
	d="
M253.000000,481.000000 
	C225.979111,481.000000 198.958206,481.000000 171.467499,480.531342 
	C170.997940,448.308594 171.012558,416.554474 170.962906,384.800476 
	C170.959915,382.884552 170.444870,380.969452 170.109833,378.829926 
	C170.051605,378.605896 169.980484,378.148407 170.203735,377.898743 
	C171.284348,377.414246 172.141724,377.179382 173.463470,377.014801 
	C184.663406,377.010406 195.398987,376.935730 206.360886,376.894409 
	C206.587219,376.927734 207.016647,377.085693 207.137573,377.306915 
	C207.840988,377.483887 208.423492,377.439667 209.470825,377.346130 
	C222.679092,377.266785 235.422607,377.202637 248.165726,377.249908 
	C249.751678,377.255798 251.335419,377.852142 252.937912,378.632202 
	C252.970428,413.059692 252.985214,447.029846 253.000000,481.000000 
z"/>
<path fill="#999999" opacity="1.000000" stroke="none" 
	d="
M338.000000,481.000000 
	C310.979095,481.000000 283.958221,481.000000 256.363525,480.781738 
	C255.597092,480.289490 255.342178,480.098602 255.021088,479.522766 
	C255.015884,448.004578 254.991364,416.954437 255.055527,385.904480 
	C255.060928,383.292572 255.661667,380.681946 256.305298,377.808105 
	C262.723572,377.671143 268.822418,377.796722 275.182617,377.971100 
	C275.618256,378.053162 275.792511,378.086426 276.285828,378.389099 
	C278.086182,378.772369 279.567444,378.983978 281.048859,378.985352 
	C300.016876,379.002930 318.984924,378.990417 337.969788,379.454773 
	C337.991058,413.616058 337.995544,447.308014 338.000000,481.000000 
z"/>
<path fill="#FFFFFF" opacity="1.000000" stroke="none" 
	d="
M167.000000,481.000000 
	C141.979111,481.000000 116.958214,481.000000 91.468842,480.531342 
	C91.000443,460.985626 90.646759,441.899933 91.113167,422.834290 
	C91.482605,407.732635 88.901459,392.480682 93.466980,377.464447 
	C108.609711,377.289886 123.288933,377.183899 138.202347,377.163177 
	C138.436539,377.248474 138.928467,377.326752 139.278625,377.548370 
	C149.409409,377.831116 159.190033,377.892242 169.015472,377.971252 
	C169.060287,377.989136 169.119675,378.065247 169.053604,378.298767 
	C168.987534,378.532288 168.837173,378.993774 168.454163,379.103333 
	C167.713913,381.070801 167.048859,382.928131 167.045181,384.786774 
	C166.981750,416.857758 166.999802,448.928894 167.000000,481.000000 
z"/>
<path fill="#B2B2B2" opacity="1.000000" stroke="none" 
	d="
M338.466125,481.000000 
	C337.995544,447.308014 337.991058,413.616058 337.991150,379.245056 
	C337.995667,378.566071 338.032562,378.145966 338.322021,378.078613 
	C339.073181,377.707001 339.534912,377.402771 340.341797,377.061768 
	C341.564697,376.788239 342.442474,376.551483 343.389099,376.330872 
	C343.457916,376.347046 343.593262,376.388000 343.703064,376.552612 
	C343.812836,376.717255 344.081726,377.007660 344.081726,377.007660 
	C346.772156,377.346283 349.462555,377.684906 352.584991,378.556763 
	C353.011322,413.060028 353.005676,447.029999 353.000000,481.000000 
	C348.310760,481.000000 343.621490,481.000000 338.466125,481.000000 
z"/>
<path fill="#262626" opacity="1.000000" stroke="none" 
	d="
M366.941376,378.033112 
	C371.339874,378.021240 375.738373,378.009399 380.577820,378.269043 
	C381.018799,378.540558 381.187256,379.004120 381.152527,379.471130 
	C381.153259,413.291687 381.188751,446.645264 381.138458,480.242432 
	C381.035126,480.657379 381.017548,480.828705 381.000000,481.000000 
	C376.643097,481.000000 372.286194,481.000000 367.471313,480.740051 
	C366.952301,480.317841 366.891266,480.155609 366.891724,479.528809 
	C366.923370,445.712891 366.893494,412.361511 366.957764,378.771851 
	C367.015076,378.366730 366.978210,378.199921 366.941376,378.033112 
z"/>
<path fill="#CBCBCB" opacity="1.000000" stroke="none" 
	d="
M366.863617,379.010162 
	C366.893494,412.361511 366.923370,445.712891 366.702087,479.648651 
	C366.233307,480.449127 366.083008,480.704773 366.000000,481.000000 
	C361.975464,481.000000 357.950897,481.000000 353.463196,481.000000 
	C353.005676,447.029999 353.011322,413.060028 353.021576,378.632751 
	C357.042816,378.121918 361.059509,378.068420 365.641296,378.257629 
	C366.373901,378.736755 366.592987,378.906708 366.863617,379.010162 
z"/>
<path fill="#9A9A9A" opacity="1.000000" stroke="none" 
	d="
M381.224243,479.998810 
	C381.188751,446.645264 381.153259,413.291687 381.325439,379.370911 
	C381.745514,378.631439 381.902496,378.418396 382.004089,378.164490 
	C386.032562,378.110931 390.061005,378.057404 394.544678,378.528046 
	C394.999939,413.034821 394.999969,447.017395 395.000000,481.000000 
	C390.975464,481.000000 386.950897,481.000000 382.384521,480.797058 
	C381.700317,480.329376 381.494171,480.130951 381.224243,479.998810 
z"/>
<path fill="#F71EF1" opacity="1.000000" stroke="none" 
	d="
M278.625000,1.000000 
	C279.002716,121.658607 279.005463,242.317215 278.686707,363.463379 
	C277.928741,363.947510 277.492279,363.944153 276.881592,363.916687 
	C276.707336,363.892578 276.359009,363.851562 276.301697,363.525330 
	C276.020935,362.364624 275.797485,361.530151 275.592041,360.330078 
	C275.603119,358.744598 275.596191,357.524719 275.791199,355.949036 
	C275.850067,352.627014 275.707001,349.660828 275.586273,346.329041 
	C275.596832,344.743561 275.585083,343.523621 275.777405,341.941956 
	C275.844360,338.284882 275.707214,334.989532 275.592621,331.355591 
	C275.601135,330.112732 275.587158,329.208496 275.772400,327.966125 
	C275.836945,325.316650 275.702209,323.005249 275.589050,320.328339 
	C275.598267,318.743103 275.585876,317.523346 275.776062,315.948181 
	C275.841614,312.626587 275.704620,309.660431 275.591034,306.395996 
	C275.600800,305.499817 275.587158,304.901947 275.776550,303.948792 
	C275.841736,300.627167 275.703888,297.660828 275.588379,294.328979 
	C275.598541,292.743805 275.586395,291.524139 275.773865,289.966492 
	C275.837585,287.317017 275.701691,285.005463 275.587463,282.328430 
	C275.597137,280.743164 275.585236,279.523407 275.777405,277.941956 
	C275.844330,274.284882 275.707214,270.989532 275.592590,267.355591 
	C275.601135,266.112732 275.587158,265.208496 275.772400,263.966125 
	C275.836945,261.316650 275.702209,259.005249 275.589050,256.328369 
	C275.598236,254.743149 275.585876,253.523422 275.776062,251.948242 
	C275.841614,248.626602 275.704620,245.660416 275.591003,242.395935 
	C275.600800,241.499756 275.587158,240.901871 275.776550,239.948700 
	C275.841736,236.627121 275.703888,233.660812 275.588348,230.329041 
	C275.598541,228.743896 275.586395,227.524216 275.773834,225.966583 
	C275.837555,223.317032 275.701691,221.005432 275.587402,218.328339 
	C275.597137,216.743118 275.585205,215.523392 275.777405,213.941956 
	C275.844360,210.284912 275.707214,206.989563 275.592621,203.355621 
	C275.601166,202.112778 275.587158,201.208542 275.772400,199.966217 
	C275.836914,197.316666 275.702179,195.005203 275.589050,192.328247 
	C275.598267,190.743088 275.585876,189.523392 275.776062,187.948242 
	C275.841644,184.626602 275.704620,181.660416 275.591034,178.395935 
	C275.600800,177.499756 275.587158,176.901871 275.776550,175.948700 
	C275.841736,172.627121 275.703888,169.660812 275.588379,166.329041 
	C275.598541,164.743896 275.586395,163.524216 275.773865,161.966583 
	C275.837555,159.317032 275.701691,157.005432 275.587463,154.328339 
	C275.597168,152.743118 275.585236,151.523392 275.777405,149.941956 
	C275.844360,146.284912 275.707245,142.989563 275.592621,139.355621 
	C275.601135,138.112778 275.587158,137.208542 275.772400,135.966217 
	C275.836914,133.316666 275.702179,131.005203 275.589050,128.328247 
	C275.598267,126.743080 275.585907,125.523399 275.776123,123.948257 
	C275.841675,120.626625 275.704651,117.660446 275.591003,114.395950 
	C275.600800,113.499756 275.587158,112.901878 275.776581,111.948708 
	C275.841766,108.627113 275.703918,105.660820 275.588379,102.329041 
	C275.598511,100.743881 275.586365,99.524185 275.773865,97.966537 
	C275.837555,95.317017 275.701691,93.005440 275.587463,90.328369 
	C275.597168,88.743149 275.585236,87.523430 275.777405,85.941994 
	C275.844360,82.284927 275.707214,78.989571 275.592621,75.355621 
	C275.601135,74.112778 275.587158,73.208542 275.772430,71.966217 
	C275.836945,69.316689 275.702179,67.005241 275.589050,64.328293 
	C275.598267,62.743103 275.585907,61.523411 275.776062,59.948254 
	C275.841644,56.626606 275.704651,53.660427 275.591034,50.395935 
	C275.600800,49.499756 275.587158,48.901886 275.776581,47.948723 
	C275.841766,44.627125 275.703888,41.660820 275.588348,38.329048 
	C275.598541,36.743889 275.586395,35.524204 275.773865,33.966560 
	C275.837585,31.317022 275.701691,29.005440 275.587463,26.328350 
	C275.597076,24.743080 275.585083,23.523317 275.780914,21.925892 
	C275.992462,14.698821 275.996216,7.849411 276.000000,1.000000 
	C276.750000,1.000000 277.500000,1.000000 278.625000,1.000000 
z"/>
<path fill="#FDFEFE" opacity="1.000000" stroke="none" 
	d="
M481.000000,376.541931 
	C469.750732,377.121033 458.501678,377.290680 447.252106,377.349670 
	C435.671204,377.410370 424.089752,377.363129 412.006348,377.363129 
	C412.006348,373.779633 412.006348,370.341705 412.018982,366.439026 
	C412.031647,365.974335 412.042358,366.038513 412.282593,366.005432 
	C412.522827,365.972382 412.988251,365.836121 413.274414,365.891174 
	C413.732849,365.856506 413.905151,365.766724 414.537231,365.705078 
	C436.997986,365.822174 458.998993,365.911072 481.000000,366.000000 
	C481.000000,369.361298 481.000000,372.722565 481.000000,376.541931 
z"/>
<path fill="#1600C5" opacity="1.000000" stroke="none" 
	d="
M414.077454,365.676941 
	C413.905151,365.766724 413.732849,365.856506 413.196899,365.662964 
	C412.623169,365.107574 412.346802,364.957703 412.012573,364.697357 
	C412.021027,364.464600 412.149292,364.016785 412.398956,363.776886 
	C412.486969,362.031708 412.325287,360.526428 412.163605,359.021149 
	C412.173370,358.848816 412.183136,358.676514 412.215271,357.798645 
	C412.255920,239.384109 412.274811,121.675117 412.280243,3.966122 
	C412.280304,2.977419 412.097473,1.988708 412.000000,1.000000 
	C412.444458,1.000000 412.888885,1.000000 413.666687,1.000000 
	C414.011108,121.351143 414.022247,241.702286 414.030396,362.857544 
	C414.044098,364.333405 414.060760,365.005157 414.077454,365.676941 
z"/>
<path fill="#0301F4" opacity="1.000000" stroke="none" 
	d="
M67.008736,376.902893 
	C63.304062,376.935272 59.599392,376.967682 55.162865,376.690063 
	C51.960686,376.566803 49.490360,376.753540 47.020035,376.940277 
	C42.315521,376.962830 37.611008,376.985382 32.156349,376.689362 
	C28.280542,376.550446 25.154886,376.730072 22.029228,376.909729 
	C17.986450,376.941071 13.943673,376.972412 9.156481,376.687683 
	C5.941377,376.247681 3.470689,376.123840 1.000000,376.000000 
	C1.000000,373.299988 1.000000,370.599976 1.468623,367.456482 
	C24.226439,367.015015 46.515633,367.016998 69.012192,367.382751 
	C69.469734,370.801208 69.719902,373.855835 69.970078,376.910492 
	C69.527542,376.914246 69.084999,376.917999 68.216103,376.742126 
	C67.529404,376.675964 67.269066,376.789429 67.008736,376.902893 
z"/>
<path fill="#FAFEFC" opacity="1.000000" stroke="none" 
	d="
M93.003471,377.533020 
	C88.901459,392.480682 91.482605,407.732635 91.113167,422.834290 
	C90.646759,441.899933 91.000443,460.985626 91.000183,480.531342 
	C89.611107,481.000000 88.222221,481.000000 86.417053,480.531342 
	C85.999825,448.259552 86.015709,416.456390 85.955627,384.653381 
	C85.952065,382.767395 85.338272,380.882629 85.004410,378.998657 
	C85.000381,379.000000 85.003006,378.995605 85.010773,378.759583 
	C85.018547,378.523560 85.021347,378.050842 85.274567,377.735535 
	C88.019684,377.457825 90.511581,377.495422 93.003471,377.533020 
z"/>
<path fill="#4FC95A" opacity="1.000000" stroke="none" 
	d="
M275.573303,278.303680 
	C275.585236,279.523407 275.597137,280.743164 275.391418,282.777222 
	C275.307281,285.829193 275.440765,288.066833 275.574280,290.304443 
	C275.586395,291.524139 275.598541,292.743805 275.392822,294.781494 
	C275.307800,298.501007 275.440643,301.402557 275.573517,304.304077 
	C275.587158,304.901947 275.600800,305.499817 275.395203,306.848389 
	C275.308472,310.500610 275.440979,313.402130 275.573486,316.303619 
	C275.585876,317.523346 275.598267,318.743103 275.392578,320.777008 
	C275.307404,323.828857 275.440277,326.066559 275.573181,328.304230 
	C275.587158,329.208496 275.601135,330.112732 275.396667,331.809082 
	C275.309906,335.835327 275.441620,339.069489 275.573334,342.303680 
	C275.585083,343.523621 275.596832,344.743561 275.390930,346.781769 
	C275.311951,350.501648 275.450623,353.403229 275.589294,356.304840 
	C275.596191,357.524719 275.603119,358.744598 275.393921,360.666351 
	C274.769043,362.258545 274.360321,363.148865 273.713165,363.914307 
	C273.263367,363.501190 273.052002,363.212952 272.840637,362.924744 
	C273.204926,357.983490 273.884888,353.042419 273.887177,348.100983 
	C273.940338,233.049011 273.920135,117.997017 273.939514,2.228811 
	C273.977020,1.341738 273.988495,1.170869 274.000000,1.000000 
	C274.000000,1.000000 274.500000,1.000000 274.755005,1.468557 
	C275.197723,8.725928 275.385437,15.514741 275.573120,22.303555 
	C275.585083,23.523317 275.597076,24.743080 275.391418,26.777184 
	C275.307251,29.829187 275.440765,32.066853 275.574249,34.304520 
	C275.586395,35.524204 275.598541,36.743889 275.392761,38.781525 
	C275.307770,42.500992 275.440643,45.402504 275.573547,48.304016 
	C275.587158,48.901886 275.600800,49.499756 275.395203,50.848347 
	C275.308472,54.500618 275.441010,57.402168 275.573517,60.303719 
	C275.585907,61.523411 275.598267,62.743103 275.392578,64.776962 
	C275.307404,67.828857 275.440277,70.066574 275.573151,72.304298 
	C275.587158,73.208542 275.601135,74.112778 275.396667,75.809105 
	C275.309906,79.835358 275.441620,83.069534 275.573334,86.303703 
	C275.585236,87.523430 275.597168,88.743149 275.391418,90.777206 
	C275.307251,93.829185 275.440765,96.066841 275.574249,98.304497 
	C275.586365,99.524185 275.598511,100.743881 275.392792,102.781525 
	C275.307800,106.500992 275.440643,109.402496 275.573517,112.304001 
	C275.587158,112.901878 275.600800,113.499756 275.395172,114.848366 
	C275.308472,118.500641 275.441010,121.402176 275.573517,124.303719 
	C275.585907,125.523399 275.598267,126.743080 275.392578,128.776932 
	C275.307404,131.828827 275.440277,134.066559 275.573151,136.304291 
	C275.587158,137.208542 275.601135,138.112778 275.396667,139.809113 
	C275.309906,143.835342 275.441620,147.069504 275.573334,150.303665 
	C275.585236,151.523392 275.597168,152.743118 275.391418,154.777191 
	C275.307281,157.829193 275.440765,160.066864 275.574280,162.304535 
	C275.586395,163.524216 275.598541,164.743896 275.392792,166.781525 
	C275.307770,170.500992 275.440643,173.402496 275.573517,176.304001 
	C275.587158,176.901871 275.600800,177.499756 275.395203,178.848328 
	C275.308472,182.500595 275.441010,185.402161 275.573517,188.303711 
	C275.585876,189.523392 275.598267,190.743088 275.392578,192.776932 
	C275.307373,195.828827 275.440277,198.066559 275.573151,200.304291 
	C275.587158,201.208542 275.601166,202.112778 275.396667,203.809113 
	C275.309906,207.835342 275.441620,211.069504 275.573303,214.303665 
	C275.585205,215.523392 275.597137,216.743118 275.391418,218.777191 
	C275.307281,221.829193 275.440765,224.066864 275.574249,226.304535 
	C275.586395,227.524216 275.598541,228.743896 275.392761,230.781525 
	C275.307770,234.500992 275.440643,237.402496 275.573517,240.304001 
	C275.587158,240.901871 275.600800,241.499756 275.395203,242.848328 
	C275.308472,246.500595 275.441010,249.402161 275.573517,252.303711 
	C275.585876,253.523422 275.598236,254.743149 275.392578,256.777039 
	C275.307373,259.828857 275.440277,262.066559 275.573151,264.304230 
	C275.587158,265.208496 275.601135,266.112732 275.396667,267.809082 
	C275.309906,271.835327 275.441620,275.069489 275.573303,278.303680 
z"/>
<path fill="#E72B46" opacity="1.000000" stroke="none" 
	d="
M411.750000,1.000000 
	C412.097473,1.988708 412.280304,2.977419 412.280243,3.966122 
	C412.274811,121.675117 412.255920,239.384109 412.131531,357.553650 
	C411.678894,356.130432 411.029968,354.246796 411.029205,352.362854 
	C410.981628,235.554337 410.987061,118.745796 410.993835,1.468626 
	C411.000000,1.000000 411.500000,1.000000 411.750000,1.000000 
z"/>
<path fill="#9F9FA6" opacity="1.000000" stroke="none" 
	d="
M395.333313,481.000000 
	C394.999969,447.017395 394.999939,413.034821 395.004578,378.592407 
	C395.591797,379.907013 396.676178,381.679718 396.682465,383.456207 
	C396.796661,415.664429 396.781036,447.873138 396.896545,480.540863 
	C396.555542,481.000000 396.111115,481.000000 395.333313,481.000000 
z"/>
<path fill="#FAFEFC" opacity="1.000000" stroke="none" 
	d="
M167.333328,481.000000 
	C166.999802,448.928894 166.981750,416.857758 167.045181,384.786774 
	C167.048859,382.928131 167.713913,381.070801 168.513000,379.569580 
	C168.969894,413.617523 168.984940,447.308746 169.000000,481.000000 
	C168.555557,481.000000 168.111099,481.000000 167.333328,481.000000 
z"/>
<path fill="#0A00E5" opacity="1.000000" stroke="none" 
	d="
M414.537231,365.705078 
	C414.060760,365.005157 414.044098,364.333405 414.042114,363.325317 
	C420.474915,363.320831 426.895020,363.957153 433.310608,363.914825 
	C443.576599,363.847107 453.838318,363.274109 464.104492,363.024414 
	C469.420929,362.895111 474.743103,363.001434 480.531342,363.000671 
	C481.000000,363.750000 481.000000,364.500000 481.000000,365.625000 
	C458.998993,365.911072 436.997986,365.822174 414.537231,365.705078 
z"/>
<path fill="#949BBB" opacity="1.000000" stroke="none" 
	d="
M255.985809,378.070709 
	C255.661667,380.681946 255.060928,383.292572 255.055527,385.904480 
	C254.991364,416.954437 255.015884,448.004578 255.011917,479.775024 
	C255.004440,480.663574 255.002213,480.831787 255.000000,481.000000 
	C255.000000,481.000000 254.500000,481.000000 254.251190,480.531342 
	C254.005035,446.091614 254.007690,412.120575 254.336761,378.087585 
	C255.104050,378.040710 255.544937,378.055695 255.985809,378.070709 
z"/>
<path fill="#91B4ED" opacity="1.000000" stroke="none" 
	d="
M169.250000,481.000000 
	C168.984940,447.308746 168.969894,413.617523 168.896011,379.460022 
	C168.837173,378.993774 168.987534,378.532288 169.270844,378.294922 
	C169.554138,378.057526 169.980484,378.148407 169.980484,378.148407 
	C169.980484,378.148407 170.051605,378.605896 170.044708,379.291260 
	C170.025208,413.651062 170.012604,447.325531 170.000000,481.000000 
	C170.000000,481.000000 169.500000,481.000000 169.250000,481.000000 
z"/>
<path fill="#3C60B2" opacity="1.000000" stroke="none" 
	d="
M254.010345,378.149506 
	C254.007690,412.120575 254.005035,446.091614 254.001190,480.531342 
	C254.000000,481.000000 253.500000,481.000000 253.250000,481.000000 
	C252.985214,447.029846 252.970428,413.059692 253.209564,378.570251 
	C253.645767,378.083832 253.828049,378.116669 254.010345,378.149506 
z"/>
<path fill="#244B86" opacity="1.000000" stroke="none" 
	d="
M84.250000,481.000000 
	C84.001785,447.292908 84.003578,413.585815 84.257210,379.441345 
	C84.509056,379.003937 85.003006,378.995605 85.003006,378.995605 
	C85.003006,378.995605 85.000381,379.000000 85.002518,379.467438 
	C85.003105,413.623260 85.001556,447.311615 85.000000,481.000000 
	C85.000000,481.000000 84.500000,481.000000 84.250000,481.000000 
z"/>
<path fill="#B9D1EF" opacity="1.000000" stroke="none" 
	d="
M85.250000,481.000000 
	C85.001556,447.311615 85.003105,413.623260 85.006546,379.466064 
	C85.338272,380.882629 85.952065,382.767395 85.955627,384.653381 
	C86.015709,416.456390 85.999825,448.259552 86.000381,480.531342 
	C86.000000,481.000000 85.500000,481.000000 85.250000,481.000000 
z"/>
<path fill="#1542AA" opacity="1.000000" stroke="none" 
	d="
M170.250000,481.000000 
	C170.012604,447.325531 170.025208,413.651062 170.102936,379.515259 
	C170.444870,380.969452 170.959915,382.884552 170.962906,384.800476 
	C171.012558,416.554474 170.997940,448.308594 170.998840,480.531342 
	C171.000000,481.000000 170.500000,481.000000 170.250000,481.000000 
z"/>
<path fill="#1600C5" opacity="1.000000" stroke="none" 
	d="
M68.804825,367.018982 
	C46.515633,367.016998 24.226439,367.015015 1.468623,367.006531 
	C1.000000,367.000000 1.000000,366.500000 1.000000,366.250000 
	C20.044064,365.897949 39.088116,365.793365 58.132202,365.696167 
	C61.446365,365.679260 64.760689,365.693604 68.497902,365.788269 
	C68.920868,365.883057 68.955635,366.147888 68.943817,366.370117 
	C68.932007,366.592316 68.804825,367.018982 68.804825,367.018982 
z"/>
<path fill="#F9F54B" opacity="1.000000" stroke="none" 
	d="
M70.750000,1.000000 
	C70.856903,8.481483 70.713806,15.962966 70.258293,23.728203 
	C69.885254,16.645811 69.824631,9.279667 69.882004,1.456761 
	C70.000000,1.000000 70.500000,1.000000 70.750000,1.000000 
z"/>
<path fill="#91758A" opacity="1.000000" stroke="none" 
	d="
M275.780914,21.925892 
	C275.385437,15.514741 275.197723,8.725928 275.005005,1.468557 
	C275.000000,1.000000 275.500000,1.000000 275.750000,1.000000 
	C275.996216,7.849411 275.992462,14.698821 275.780914,21.925892 
z"/>
<path fill="#00F348" opacity="1.000000" stroke="none" 
	d="
M207.750000,1.000000 
	C207.867798,5.818657 207.735611,10.637315 207.285461,15.731590 
	C206.861237,11.710076 206.755005,7.412942 206.766510,2.373376 
	C206.922836,1.420629 206.961411,1.210315 207.000000,1.000000 
	C207.000000,1.000000 207.500000,1.000000 207.750000,1.000000 
z"/>
<path fill="#0A00E5" opacity="1.000000" stroke="none" 
	d="
M1.000000,376.250000 
	C3.470689,376.123840 5.941377,376.247681 8.692896,376.645813 
	C6.611061,376.969391 4.248394,377.018677 1.442864,377.033997 
	C1.000000,377.000000 1.000000,376.500000 1.000000,376.250000 
z"/>
<path fill="#11F8D4" opacity="1.000000" stroke="none" 
	d="
M138.905731,2.016517 
	C138.534744,1.900619 138.387054,1.746862 138.119690,1.296552 
	C138.444443,1.000000 138.888901,1.000000 139.666672,0.999999 
	C139.709671,1.326218 139.419327,1.652438 138.905731,2.016517 
z"/>
<path fill="#878787" opacity="1.000000" stroke="none" 
	d="
M381.138458,480.242432 
	C381.494171,480.130951 381.700317,480.329376 381.921326,480.797058 
	C382.000000,481.000000 381.500000,481.000000 381.250000,481.000000 
	C381.017548,480.828705 381.035126,480.657379 381.138458,480.242432 
z"/>
<path fill="#B2B2B2" opacity="1.000000" stroke="none" 
	d="
M366.250000,481.000000 
	C366.083008,480.704773 366.233307,480.449127 366.640564,480.113220 
	C366.891266,480.155609 366.952301,480.317841 367.006653,480.740051 
	C367.000000,481.000000 366.500000,481.000000 366.250000,481.000000 
z"/>
<path fill="#9F9FA6" opacity="1.000000" stroke="none" 
	d="
M255.250000,481.000000 
	C255.002213,480.831787 255.004440,480.663574 255.015839,480.243103 
	C255.342178,480.098602 255.597092,480.289490 255.894867,480.781738 
	C256.000000,481.000000 255.500000,481.000000 255.250000,481.000000 
z"/>
<path fill="#0AFB8E" opacity="1.000000" stroke="none" 
	d="
M206.750000,1.000000 
	C206.961411,1.210315 206.922836,1.420629 206.750122,1.924150 
	C206.364792,2.017298 206.187759,1.765157 206.042450,1.230467 
	C206.000000,1.000000 206.500000,1.000000 206.750000,1.000000 
z"/>
<path fill="#10F428" opacity="1.000000" stroke="none" 
	d="
M273.750000,1.000000 
	C273.988495,1.170869 273.977020,1.341738 273.904694,1.762293 
	C273.562805,1.879707 273.341156,1.681126 273.089478,1.208119 
	C273.000000,1.000000 273.500000,1.000000 273.750000,1.000000 
z"/>
<path fill="#FF18DD" opacity="1.000000" stroke="none" 
	d="
M342.750000,1.000002 
	C342.726654,1.113421 342.453339,1.226838 342.089996,1.170128 
	C342.000000,1.000000 342.500000,1.000000 342.750000,1.000002 
z"/>
<path fill="#F9F54B" opacity="1.000000" stroke="none" 
	d="
M69.893196,363.312439 
	C72.595795,363.334290 75.194893,363.944885 77.796898,363.957489 
	C95.507729,364.043274 113.219254,364.029480 130.930267,363.966034 
	C132.866547,363.959076 134.800934,363.432251 137.265869,363.329712 
	C137.878616,363.699463 137.961716,363.886047 137.970108,364.290741 
	C137.895416,364.508881 137.767120,364.951782 137.476440,365.121582 
	C136.773361,365.524109 136.360229,365.961700 135.948624,365.960266 
	C113.985733,365.884369 92.022972,365.771454 69.972061,365.452240 
	C69.883926,365.242126 69.564087,364.917419 69.564087,364.917419 
	C69.639740,364.486450 69.715393,364.055511 69.893196,363.312439 
z"/>
<path fill="#91B4ED" opacity="1.000000" stroke="none" 
	d="
M69.434204,365.010986 
	C69.564087,364.917419 69.883926,365.242126 69.708382,365.602051 
	C69.340439,366.023956 69.148041,366.085907 68.955635,366.147888 
	C68.955635,366.147888 68.920868,365.883057 68.965935,365.757446 
	C68.978340,365.383362 69.076118,365.207611 69.434204,365.010986 
z"/>
<path fill="#31E8FD" opacity="1.000000" stroke="none" 
	d="
M137.767120,364.951782 
	C137.767120,364.951782 137.895416,364.508881 138.206177,364.261353 
	C138.516922,364.013855 138.986252,363.938141 139.243164,363.945007 
	C139.671097,363.941193 139.842102,363.930511 140.013092,363.919830 
	C161.029099,363.935120 182.045105,363.950409 203.781448,363.972198 
	C204.670319,363.978912 204.838837,363.979156 205.017883,364.294556 
	C205.020493,364.819794 205.012558,365.029877 204.588882,365.366577 
	C184.407028,365.573334 164.640686,365.624878 144.875244,365.785522 
	C143.213593,365.799011 141.557877,366.544952 139.662994,366.965302 
	C139.426590,366.979980 138.959885,366.898499 138.751831,366.697083 
	C138.284882,365.981018 138.026001,365.466400 137.767120,364.951782 
z"/>
<path fill="#11F8D4" opacity="1.000000" stroke="none" 
	d="
M138.995361,12.889902 
	C138.537170,10.294858 138.395691,7.537153 138.466721,4.364529 
	C138.890167,6.875486 139.101105,9.801365 138.995361,12.889902 
z"/>
<path fill="#08FFCD" opacity="1.000000" stroke="none" 
	d="
M205.004639,365.239929 
	C205.012558,365.029877 205.020493,364.819794 205.018005,364.048767 
	C205.007584,363.487823 204.988434,362.996155 204.988434,362.996155 
	C205.388214,362.991394 205.787979,362.986603 206.484528,363.016052 
	C206.781281,363.050293 206.982224,362.936676 207.032211,363.246094 
	C207.108414,364.004120 207.134628,364.452698 207.030167,365.124146 
	C206.813828,365.496429 206.728165,365.645844 206.369141,365.702209 
	C205.732071,365.486053 205.368362,365.363007 205.004639,365.239929 
z"/>
<path fill="#11F8D4" opacity="1.000000" stroke="none" 
	d="
M139.995590,363.642639 
	C139.842102,363.930511 139.671097,363.941193 139.259476,363.607391 
	C139.089966,362.817413 139.161041,362.371948 139.232132,361.926483 
	C139.480789,362.406128 139.729446,362.885803 139.995590,363.642639 
z"/>
<path fill="#66F492" opacity="1.000000" stroke="none" 
	d="
M139.020309,361.845581 
	C139.161041,362.371948 139.089966,362.817413 139.002563,363.600525 
	C138.986252,363.938141 138.516922,364.013855 138.280853,364.043213 
	C137.961716,363.886047 137.878616,363.699463 137.645874,363.245209 
	C137.614944,362.764587 137.733688,362.551636 138.104767,362.073547 
	C138.357132,361.808411 138.808487,361.764709 139.020309,361.845581 
z"/>
<path fill="#0BF9F1" opacity="1.000000" stroke="none" 
	d="
M204.776169,363.099121 
	C204.988434,362.996155 205.007584,363.487823 205.007477,363.733612 
	C204.838837,363.979156 204.670319,363.978912 204.249786,363.959351 
	C204.108780,363.634460 204.297501,363.388458 204.776169,363.099121 
z"/>
<path fill="#F81E15" opacity="1.000000" stroke="none" 
	d="
M412.149292,364.016785 
	C412.149292,364.016785 412.021027,364.464600 411.970306,364.976654 
	C411.960541,365.671967 412.001465,365.855255 412.042358,366.038513 
	C412.042358,366.038513 412.031647,365.974335 412.064392,365.972778 
	C411.913666,365.926178 411.730255,365.881195 410.809753,365.806335 
	C388.088684,365.736969 366.104706,365.697449 344.056335,365.492279 
	C343.991943,365.326660 343.921417,364.978363 343.925293,364.675262 
	C343.882324,364.175201 343.835510,363.978241 343.788666,363.781250 
	C343.788666,363.781250 343.882874,363.780792 343.883118,363.827454 
	C364.896820,363.914398 385.910278,363.965210 406.923737,363.965515 
	C408.042297,363.965515 409.160858,363.539337 410.915375,363.238342 
	C411.750641,363.449036 411.949951,363.732910 412.149292,364.016785 
z"/>
<path fill="#6B1193" opacity="1.000000" stroke="none" 
	d="
M412.398956,363.776886 
	C411.949951,363.732910 411.750641,363.449036 411.304443,363.075592 
	C411.186127,361.745361 411.314667,360.504639 411.803406,359.142548 
	C412.325287,360.526428 412.486969,362.031708 412.398956,363.776886 
z"/>
<path fill="#16A323" opacity="1.000000" stroke="none" 
	d="
M272.541687,362.971191 
	C273.052002,363.212952 273.263367,363.501190 273.745972,364.166138 
	C274.060547,364.706909 274.103851,364.870880 273.866180,365.366516 
	C252.275909,365.790771 230.966599,365.889984 209.657166,365.939880 
	C209.096207,365.941193 208.534012,365.405853 207.933075,365.005798 
	C207.893768,364.890839 207.977966,364.662872 208.435822,364.773102 
	C228.216110,364.923218 247.538559,364.978668 266.860931,364.961090 
	C267.923187,364.960114 268.984955,364.351898 270.046936,364.026367 
	C270.778870,363.690125 271.510834,363.353851 272.541687,362.971191 
z"/>
<path fill="#10F428" opacity="1.000000" stroke="none" 
	d="
M269.574036,364.015381 
	C268.984955,364.351898 267.923187,364.960114 266.860931,364.961090 
	C247.538559,364.978668 228.216110,364.923218 208.444870,364.493408 
	C208.013550,363.727539 208.031067,363.351593 208.048584,362.975708 
	C210.653107,363.314301 213.256195,363.933014 215.862381,363.946320 
	C233.608261,364.036926 251.354782,364.000122 269.574036,364.015381 
z"/>
<path fill="#00F348" opacity="1.000000" stroke="none" 
	d="
M207.838730,362.952271 
	C208.031067,363.351593 208.013550,363.727539 207.987000,364.383179 
	C207.977966,364.662872 207.893768,364.890839 207.731720,364.945862 
	C207.569672,365.000916 207.160843,364.901306 207.160843,364.901306 
	C207.134628,364.452698 207.108414,364.004120 207.145264,363.222839 
	C207.208344,362.890198 207.628876,362.928833 207.838730,362.952271 
z"/>
<path fill="#8770EB" opacity="1.000000" stroke="none" 
	d="
M343.921417,364.978363 
	C343.921417,364.978363 343.991943,365.326660 343.822449,365.643250 
	C343.420715,366.235779 343.188477,366.511688 342.914612,366.863647 
	C342.872986,366.939697 342.854492,367.110901 342.652954,367.073212 
	C342.451416,367.035522 342.049225,366.955750 341.770203,366.634888 
	C332.710297,366.212128 323.929474,366.106812 315.148560,366.009125 
	C303.385559,365.878265 291.622498,365.753174 279.872803,365.388977 
	C279.886139,365.152313 279.943909,364.681824 279.943909,364.681824 
	C292.643524,364.735504 305.343170,364.789215 318.885773,364.888916 
	C320.494812,364.876373 321.260864,364.817902 322.026917,364.759399 
	C325.375824,364.786835 328.724762,364.814270 332.977112,364.890076 
	C336.914368,364.925415 339.948181,364.912415 343.215088,364.940002 
	C343.448212,364.980591 343.921417,364.978363 343.921417,364.978363 
z"/>
<path fill="#D12BEC" opacity="1.000000" stroke="none" 
	d="
M342.981995,364.899414 
	C339.948181,364.912415 336.914368,364.925415 333.432434,364.856018 
	C335.979126,364.511292 338.973969,364.249023 342.452728,364.208191 
	C342.936676,364.429596 342.981995,364.899384 342.981995,364.899414 
z"/>
<path fill="#D12BEC" opacity="1.000000" stroke="none" 
	d="
M279.832886,364.507996 
	C279.943909,364.681824 279.886139,365.152313 279.539490,365.419067 
	C278.524506,365.653046 277.856232,365.620300 277.169922,365.388397 
	C277.151947,365.189240 277.043701,364.804230 277.039246,364.588257 
	C277.034821,364.372284 277.055817,363.940796 277.055817,363.940796 
	C277.492279,363.944153 277.928741,363.947510 278.692017,363.925781 
	C279.281067,363.999939 279.515411,364.144440 279.832886,364.507996 
z"/>
<path fill="#D12BEC" opacity="1.000000" stroke="none" 
	d="
M321.816223,364.557983 
	C321.260864,364.817902 320.494812,364.876373 319.350952,364.852264 
	C319.850616,364.631958 320.728058,364.494263 321.816223,364.557983 
z"/>
<path fill="#FD223D" opacity="1.000000" stroke="none" 
	d="
M343.215088,364.940002 
	C342.981995,364.899384 342.936676,364.429596 342.887756,364.198761 
	C342.838867,363.967926 343.304077,363.819397 343.546387,363.800323 
	C343.835510,363.978241 343.882324,364.175201 343.925293,364.675262 
	C343.921417,364.978363 343.448212,364.980591 343.215088,364.940002 
z"/>
<path fill="#0F0001" opacity="1.000000" stroke="none" 
	d="
M342.956207,366.787628 
	C343.188477,366.511688 343.420715,366.235779 343.886841,365.808868 
	C366.104706,365.697449 388.088684,365.736969 410.533447,365.868744 
	C411.215851,369.875977 408.310944,368.973602 406.172241,368.977539 
	C386.430115,369.013824 366.687866,368.996460 346.426514,368.660339 
	C345.216461,367.903717 344.525574,367.481445 343.605530,367.022156 
	C343.376434,366.985168 342.956207,366.787628 342.956207,366.787628 
z"/>
<path fill="#010301" opacity="1.000000" stroke="none" 
	d="
M343.834656,367.059174 
	C344.525574,367.481445 345.216461,367.903717 345.958466,368.658112 
	C345.618927,371.600769 345.228302,374.211334 344.459717,376.914764 
	C344.081726,377.007660 343.812836,376.717255 343.847839,376.084473 
	C343.866791,372.654175 343.850739,369.856689 343.834656,367.059174 
z"/>
<path fill="#878787" opacity="1.000000" stroke="none" 
	d="
M381.777527,378.090088 
	C381.902496,378.418396 381.745514,378.631439 381.360168,378.903900 
	C381.187256,379.004120 381.018799,378.540558 381.047028,378.295593 
	C381.075256,378.050598 381.550934,378.015656 381.777527,378.090088 
z"/>
<path fill="#B2B2B2" opacity="1.000000" stroke="none" 
	d="
M366.957764,378.771851 
	C366.592987,378.906708 366.373901,378.736755 366.100403,378.318542 
	C365.994415,378.136749 366.457550,377.990387 366.699463,378.011749 
	C366.978210,378.199921 367.015076,378.366730 366.957764,378.771851 
z"/>
<path fill="#010102" opacity="1.000000" stroke="none" 
	d="
M137.476440,365.121582 
	C138.026001,365.466400 138.284882,365.981018 138.757660,367.118042 
	C138.703232,370.488892 138.434906,373.237335 138.092346,376.254242 
	C138.001465,376.707733 137.984802,376.892792 137.968155,377.077881 
	C123.288933,377.183899 108.609711,377.289886 93.466980,377.464417 
	C90.511581,377.495422 88.019684,377.457825 85.034698,377.708435 
	C84.541611,377.996674 84.073959,378.115112 84.073959,378.115112 
	C79.630241,377.834991 75.186516,377.554901 70.356438,377.092651 
	C69.719902,373.855835 69.469734,370.801208 69.012192,367.382751 
	C68.804825,367.018982 68.932007,366.592316 68.943817,366.370117 
	C69.148041,366.085907 69.340439,366.023956 69.796524,365.812195 
	C92.022972,365.771454 113.985733,365.884369 135.948624,365.960266 
	C136.360229,365.961700 136.773361,365.524109 137.476440,365.121582 
z"/>
<path fill="#0A00E5" opacity="1.000000" stroke="none" 
	d="
M22.477097,376.965820 
	C25.154886,376.730072 28.280542,376.550446 31.690199,376.646210 
	C28.957787,376.955017 25.941376,376.988464 22.477097,376.965820 
z"/>
<path fill="#0A00E5" opacity="1.000000" stroke="none" 
	d="
M47.459190,376.992249 
	C49.490360,376.753540 51.960686,376.566803 54.701847,376.649200 
	C52.614567,376.960266 50.256458,377.002258 47.459190,376.992249 
z"/>
<path fill="#0A00E5" opacity="1.000000" stroke="none" 
	d="
M67.254761,376.930969 
	C67.269066,376.789429 67.529404,376.675964 67.886208,376.703613 
	C67.982674,376.844727 67.500793,376.959045 67.254761,376.930969 
z"/>
<path fill="#B9D1EF" opacity="1.000000" stroke="none" 
	d="
M84.039505,378.318237 
	C84.073959,378.115112 84.541611,377.996674 84.781479,378.023743 
	C85.021347,378.050842 85.018547,378.523560 85.010773,378.759583 
	C85.003006,378.995605 84.509056,379.003937 84.265060,378.968536 
	C84.021072,378.933136 84.005058,378.521362 84.039505,378.318237 
z"/>
<path fill="#010301" opacity="1.000000" stroke="none" 
	d="
M207.030167,365.124146 
	C207.160843,364.901306 207.569672,365.000916 207.771027,365.060852 
	C208.534012,365.405853 209.096207,365.941193 209.657166,365.939880 
	C230.966599,365.889984 252.275909,365.790771 274.114410,365.444275 
	C275.064697,365.491241 275.485809,365.792114 275.955872,366.341248 
	C276.059509,366.749512 276.114136,366.909546 276.094086,367.497375 
	C276.070953,369.949219 276.122528,371.973267 276.098450,374.309265 
	C276.002106,375.048615 275.981415,375.476013 275.718079,375.982239 
	C275.370178,376.351593 275.264923,376.642151 275.076599,377.174469 
	C274.969421,377.584961 274.945312,377.753662 274.921234,377.922363 
	C268.822418,377.796722 262.723572,377.671143 256.305298,377.808105 
	C255.544937,378.055695 255.104050,378.040710 254.336761,378.087585 
	C253.828049,378.116669 253.645767,378.083832 253.191833,378.112915 
	C251.335419,377.852142 249.751678,377.255798 248.165726,377.249908 
	C235.422607,377.202637 222.679092,377.266785 209.233307,377.151978 
	C208.355423,376.902191 208.179886,376.797333 207.988937,376.453400 
	C207.747467,375.810547 207.521423,375.406769 207.207809,374.557190 
	C206.956985,371.440582 206.793747,368.769775 206.649765,366.023682 
	C206.669022,365.948395 206.642502,365.795288 206.642502,365.795288 
	C206.728165,365.645844 206.813828,365.496429 207.030167,365.124146 
z"/>
<path fill="#FB1CF1" opacity="1.000000" stroke="none" 
	d="
M138.166595,375.985779 
	C138.434906,373.237335 138.703232,370.488892 138.965714,367.319458 
	C138.959885,366.898499 139.426590,366.979980 140.138031,366.988586 
	C162.510590,367.012604 184.171738,367.027985 205.930267,367.486115 
	C206.068542,370.673676 206.109406,373.418457 206.098083,376.336609 
	C206.045898,376.509979 206.134552,376.861053 206.134552,376.861053 
	C195.398987,376.935730 184.663406,377.010406 173.228500,376.741943 
	C171.335007,376.300751 170.140854,376.202728 168.483948,376.076050 
	C158.069672,376.026825 148.118134,376.006317 138.166595,375.985779 
z"/>
<path fill="#D12BEC" opacity="1.000000" stroke="none" 
	d="
M168.946701,376.104736 
	C170.140854,376.202728 171.335007,376.300751 172.764130,376.671631 
	C172.141724,377.179382 171.284348,377.414246 170.203735,377.898743 
	C169.980484,378.148407 169.554138,378.057526 169.336914,378.061401 
	C169.119675,378.065247 169.060287,377.989136 169.029144,377.743530 
	C168.998016,377.497925 168.942215,377.044189 168.948532,376.809357 
	C168.954849,376.574524 168.946701,376.104736 168.946701,376.104736 
z"/>
<path fill="#010102" opacity="1.000000" stroke="none" 
	d="
M206.360886,376.894409 
	C206.134552,376.861053 206.045898,376.509979 206.360718,376.225189 
	C206.882156,375.627930 207.088776,375.315460 207.295410,375.002991 
	C207.521423,375.406769 207.747467,375.810547 207.746002,376.562378 
	C207.351227,376.968872 207.183929,377.027283 207.016647,377.085693 
	C207.016647,377.085693 206.587219,376.927734 206.360886,376.894409 
z"/>
<path fill="#244B86" opacity="1.000000" stroke="none" 
	d="
M207.137573,377.306915 
	C207.183929,377.027283 207.351227,376.968872 207.761444,376.801453 
	C208.179886,376.797333 208.355423,376.902191 208.768463,377.201263 
	C208.423492,377.439667 207.840988,377.483887 207.137573,377.306915 
z"/>
<path fill="#7B9EA3" opacity="1.000000" stroke="none" 
	d="
M338.032562,378.145966 
	C338.032562,378.145966 337.995667,378.566071 337.974304,378.775787 
	C318.984924,378.990417 300.016876,379.002930 281.048859,378.985352 
	C279.567444,378.983978 278.086182,378.772369 276.508545,378.269470 
	C276.642761,377.643341 276.873291,377.406158 277.324249,377.111725 
	C277.544678,377.054474 277.984802,376.937195 278.419708,377.010834 
	C280.906494,377.034637 282.958405,376.984802 285.338776,376.976807 
	C286.107178,376.992981 286.547119,376.967316 287.360779,377.015259 
	C288.491974,377.048065 289.249390,377.007202 290.379028,377.010681 
	C291.499207,377.026398 292.247101,376.997742 293.429596,377.036530 
	C295.911896,377.053162 297.959625,377.002319 300.433167,376.997498 
	C302.570984,377.018250 304.282990,376.992981 306.445679,377.035614 
	C309.932526,377.057678 312.968628,377.011810 316.418945,377.010620 
	C318.219849,377.023621 319.606537,376.991913 321.434174,377.029053 
	C324.251648,377.054382 326.628143,377.010925 329.401825,377.011719 
	C330.862610,377.024658 331.926239,376.993317 333.324951,377.026062 
	C334.110504,377.044708 334.561035,376.999329 335.330017,377.002991 
	C336.076569,377.088745 336.504639,377.125458 337.049286,377.388367 
	C337.454773,377.791748 337.743683,377.968872 338.032562,378.145966 
z"/>
<path fill="#60C2C8" opacity="1.000000" stroke="none" 
	d="
M277.103821,377.168976 
	C276.873291,377.406158 276.642761,377.643341 276.189514,378.000122 
	C275.792511,378.086426 275.618256,378.053162 275.182617,377.971130 
	C274.945312,377.753662 274.969421,377.584961 275.313232,377.159119 
	C275.632935,376.902039 276.087769,376.767700 276.350830,376.845093 
	C276.777191,377.004639 276.940491,377.086792 277.103821,377.168976 
z"/>
<path fill="#CF37CB" opacity="1.000000" stroke="none" 
	d="
M168.483948,376.076050 
	C168.946701,376.104736 168.954849,376.574524 168.485779,376.802979 
	C158.320633,377.129883 148.624542,377.228333 138.928467,377.326752 
	C138.928467,377.326752 138.436539,377.248474 138.202347,377.163177 
	C137.984802,376.892792 138.001465,376.707733 138.092346,376.254211 
	C148.118134,376.006317 158.069672,376.026825 168.483948,376.076050 
z"/>
<path fill="#FDAFFC" opacity="1.000000" stroke="none" 
	d="
M139.278625,377.548370 
	C148.624542,377.228333 158.320633,377.129883 168.479462,377.037811 
	C168.942215,377.044189 168.998016,377.497925 168.984329,377.725647 
	C159.190033,377.892242 149.409409,377.831116 139.278625,377.548370 
z"/>
<path fill="#0BF9F1" opacity="1.000000" stroke="none" 
	d="
M277.324249,377.111725 
	C276.940491,377.086792 276.777191,377.004639 276.314819,376.630432 
	C276.015717,376.338440 275.960724,375.903442 275.960724,375.903442 
	C275.981415,375.476013 276.002106,375.048615 276.555878,374.309937 
	C299.021606,374.002441 320.954254,374.006226 342.950623,374.394745 
	C343.116333,375.291199 343.218292,375.802948 343.320251,376.314697 
	C342.442474,376.551483 341.564697,376.788239 340.166077,376.787811 
	C338.741058,376.754425 337.836884,376.958282 336.932678,377.162140 
	C336.504639,377.125458 336.076569,377.088745 335.179474,376.784973 
	C334.136902,376.665924 333.563385,376.813934 332.989868,376.961975 
	C331.926239,376.993317 330.862610,377.024658 329.129608,376.736176 
	C325.971222,376.597656 323.482239,376.778931 320.993225,376.960236 
	C319.606537,376.991913 318.219849,377.023621 316.133179,376.729675 
	C312.287109,376.591919 309.141052,376.779816 305.994965,376.967682 
	C304.282990,376.992981 302.570984,377.018250 300.168518,376.728638 
	C297.317017,376.598877 295.156006,376.783966 292.995026,376.969055 
	C292.247101,376.997742 291.499207,377.026398 290.192688,376.768311 
	C288.751709,376.634918 287.869385,376.788269 286.987030,376.941620 
	C286.547119,376.967316 286.107178,376.992981 285.072021,376.710815 
	C282.312805,376.581055 280.148804,376.759125 277.984802,376.937195 
	C277.984802,376.937195 277.544678,377.054474 277.324249,377.111725 
z"/>
<path fill="#60C2C8" opacity="1.000000" stroke="none" 
	d="
M343.389099,376.330872 
	C343.218292,375.802948 343.116333,375.291199 343.004608,373.964020 
	C342.948059,371.136017 342.901276,369.123474 342.854492,367.110901 
	C342.854492,367.110901 342.872986,366.939697 342.914612,366.863647 
	C342.956207,366.787628 343.376434,366.985168 343.605530,367.022156 
	C343.850739,369.856689 343.866791,372.654175 343.738068,375.919861 
	C343.593262,376.388000 343.457916,376.347046 343.389099,376.330872 
z"/>
<path fill="#31E8FD" opacity="1.000000" stroke="none" 
	d="
M337.049286,377.388367 
	C337.836884,376.958282 338.741058,376.754425 339.820953,376.824585 
	C339.534912,377.402771 339.073181,377.707001 338.322021,378.078613 
	C337.743683,377.968872 337.454773,377.791748 337.049286,377.388367 
z"/>
<path fill="#91758A" opacity="1.000000" stroke="none" 
	d="
M275.777405,213.941956 
	C275.441620,211.069504 275.309906,207.835342 275.374146,204.147705 
	C275.707214,206.989563 275.844360,210.284912 275.777405,213.941956 
z"/>
<path fill="#91758A" opacity="1.000000" stroke="none" 
	d="
M275.777405,149.941956 
	C275.441620,147.069504 275.309906,143.835342 275.374146,140.147705 
	C275.707245,142.989563 275.844360,146.284912 275.777405,149.941956 
z"/>
<path fill="#91758A" opacity="1.000000" stroke="none" 
	d="
M275.777405,277.941956 
	C275.441620,275.069489 275.309906,271.835327 275.374146,268.147644 
	C275.707214,270.989532 275.844330,274.284882 275.777405,277.941956 
z"/>
<path fill="#91758A" opacity="1.000000" stroke="none" 
	d="
M275.777405,85.941994 
	C275.441620,83.069534 275.309906,79.835358 275.374146,76.147705 
	C275.707214,78.989571 275.844360,82.284927 275.777405,85.941994 
z"/>
<path fill="#91758A" opacity="1.000000" stroke="none" 
	d="
M275.777405,341.941956 
	C275.441620,339.069489 275.309906,335.835327 275.374146,332.147644 
	C275.707214,334.989532 275.844360,338.284882 275.777405,341.941956 
z"/>
<path fill="#91758A" opacity="1.000000" stroke="none" 
	d="
M275.776062,251.948242 
	C275.441010,249.402161 275.308472,246.500595 275.371765,243.146637 
	C275.704620,245.660416 275.841614,248.626602 275.776062,251.948242 
z"/>
<path fill="#91758A" opacity="1.000000" stroke="none" 
	d="
M275.776550,239.948700 
	C275.440643,237.402496 275.307770,234.500992 275.370483,231.147003 
	C275.703888,233.660812 275.841736,236.627121 275.776550,239.948700 
z"/>
<path fill="#91758A" opacity="1.000000" stroke="none" 
	d="
M275.776550,303.948792 
	C275.440643,301.402557 275.307800,298.501007 275.370483,295.146973 
	C275.703888,297.660828 275.841736,300.627167 275.776550,303.948792 
z"/>
<path fill="#91758A" opacity="1.000000" stroke="none" 
	d="
M275.776062,315.948181 
	C275.440979,313.402130 275.308472,310.500610 275.371765,307.146729 
	C275.704620,309.660431 275.841614,312.626587 275.776062,315.948181 
z"/>
<path fill="#91758A" opacity="1.000000" stroke="none" 
	d="
M275.776550,175.948700 
	C275.440643,173.402496 275.307770,170.500992 275.370483,167.147003 
	C275.703888,169.660812 275.841736,172.627121 275.776550,175.948700 
z"/>
<path fill="#91758A" opacity="1.000000" stroke="none" 
	d="
M275.791199,355.949036 
	C275.450623,353.403229 275.311951,350.501648 275.368622,347.147339 
	C275.707001,349.660828 275.850067,352.627014 275.791199,355.949036 
z"/>
<path fill="#91758A" opacity="1.000000" stroke="none" 
	d="
M275.776062,187.948242 
	C275.441010,185.402161 275.308472,182.500595 275.371765,179.146637 
	C275.704620,181.660416 275.841644,184.626602 275.776062,187.948242 
z"/>
<path fill="#91758A" opacity="1.000000" stroke="none" 
	d="
M275.776123,123.948257 
	C275.441010,121.402176 275.308472,118.500641 275.371765,115.146683 
	C275.704651,117.660446 275.841675,120.626625 275.776123,123.948257 
z"/>
<path fill="#91758A" opacity="1.000000" stroke="none" 
	d="
M275.776581,111.948708 
	C275.440643,109.402496 275.307800,106.500992 275.370483,103.147003 
	C275.703918,105.660820 275.841766,108.627113 275.776581,111.948708 
z"/>
<path fill="#91758A" opacity="1.000000" stroke="none" 
	d="
M275.776062,59.948254 
	C275.441010,57.402168 275.308472,54.500618 275.371765,51.146656 
	C275.704651,53.660427 275.841644,56.626606 275.776062,59.948254 
z"/>
<path fill="#91758A" opacity="1.000000" stroke="none" 
	d="
M275.776550,47.948723 
	C275.440643,45.402504 275.307770,42.500992 275.370483,39.146999 
	C275.703888,41.660820 275.841766,44.627125 275.776550,47.948723 
z"/>
<path fill="#91758A" opacity="1.000000" stroke="none" 
	d="
M275.773865,289.966492 
	C275.440765,288.066833 275.307281,285.829193 275.369812,283.142761 
	C275.701691,285.005463 275.837585,287.317017 275.773865,289.966492 
z"/>
<path fill="#91758A" opacity="1.000000" stroke="none" 
	d="
M275.773834,225.966583 
	C275.440765,224.066864 275.307281,221.829193 275.369812,219.142670 
	C275.701691,221.005432 275.837555,223.317032 275.773834,225.966583 
z"/>
<path fill="#91758A" opacity="1.000000" stroke="none" 
	d="
M275.773865,161.966583 
	C275.440765,160.066864 275.307281,157.829193 275.369812,155.142670 
	C275.701691,157.005432 275.837555,159.317032 275.773865,161.966583 
z"/>
<path fill="#91758A" opacity="1.000000" stroke="none" 
	d="
M275.772400,199.966217 
	C275.440277,198.066559 275.307373,195.828827 275.370972,193.142426 
	C275.702179,195.005203 275.836914,197.316666 275.772400,199.966217 
z"/>
<path fill="#91758A" opacity="1.000000" stroke="none" 
	d="
M275.772400,263.966125 
	C275.440277,262.066559 275.307373,259.828857 275.370972,257.142517 
	C275.702209,259.005249 275.836945,261.316650 275.772400,263.966125 
z"/>
<path fill="#91758A" opacity="1.000000" stroke="none" 
	d="
M275.772430,327.966125 
	C275.440277,326.066559 275.307404,323.828857 275.370972,321.142517 
	C275.702209,323.005249 275.836945,325.316650 275.772430,327.966125 
z"/>
<path fill="#91758A" opacity="1.000000" stroke="none" 
	d="
M275.772400,135.966217 
	C275.440277,134.066559 275.307404,131.828827 275.370972,129.142426 
	C275.702179,131.005203 275.836914,133.316666 275.772400,135.966217 
z"/>
<path fill="#91758A" opacity="1.000000" stroke="none" 
	d="
M275.773865,97.966537 
	C275.440765,96.066841 275.307251,93.829185 275.369812,91.142700 
	C275.701691,93.005440 275.837555,95.317017 275.773865,97.966537 
z"/>
<path fill="#91758A" opacity="1.000000" stroke="none" 
	d="
M275.772430,71.966217 
	C275.440277,70.066574 275.307404,67.828857 275.370972,65.142456 
	C275.702179,67.005241 275.836945,69.316689 275.772430,71.966217 
z"/>
<path fill="#91758A" opacity="1.000000" stroke="none" 
	d="
M275.773865,33.966560 
	C275.440765,32.066853 275.307251,29.829187 275.369812,27.142689 
	C275.701691,29.005440 275.837585,31.317022 275.773865,33.966560 
z"/>
<path fill="#91758A" opacity="1.000000" stroke="none" 
	d="
M275.906921,366.093018 
	C275.485809,365.792114 275.064697,365.491241 274.395355,365.112579 
	C274.103851,364.870880 274.060547,364.706909 273.984406,364.291046 
	C274.360321,363.148865 274.769043,362.258545 275.375916,361.031952 
	C275.797485,361.530151 276.020935,362.364624 276.186462,363.762390 
	C276.112366,364.499756 276.096130,364.673828 276.076416,365.141785 
	C276.134644,365.620911 276.196411,365.806152 276.187286,366.075378 
	C276.116394,366.159302 275.906921,366.093018 275.906921,366.093018 
z"/>
<path fill="#CF37CB" opacity="1.000000" stroke="none" 
	d="
M276.079926,364.847931 
	C276.096130,364.673828 276.112366,364.499756 276.243774,364.088623 
	C276.359009,363.851562 276.707336,363.892578 276.881592,363.916687 
	C277.055817,363.940796 277.034821,364.372284 276.799561,364.631714 
	C276.564331,364.891113 276.079926,364.847931 276.079926,364.847931 
z"/>
<path fill="#982015" opacity="1.000000" stroke="none" 
	d="
M412.282593,366.005432 
	C412.001465,365.855255 411.960541,365.671967 411.961853,365.209412 
	C412.346802,364.957703 412.623169,365.107574 412.910736,365.607910 
	C412.988251,365.836121 412.522827,365.972382 412.282593,366.005432 
z"/>
<path fill="#D12BEC" opacity="1.000000" stroke="none" 
	d="
M205.832870,367.043365 
	C184.171738,367.027985 162.510590,367.012604 140.374435,366.973907 
	C141.557877,366.544952 143.213593,365.799011 144.875244,365.785522 
	C164.640686,365.624878 184.407028,365.573334 204.588882,365.366577 
	C205.368362,365.363007 205.732071,365.486053 206.369141,365.702209 
	C206.642502,365.795288 206.669022,365.948395 206.440659,366.093079 
	C206.064438,366.496216 205.937958,366.764740 205.832870,367.043365 
z"/>
<path fill="#00FFF0" opacity="1.000000" stroke="none" 
	d="
M342.652954,367.073212 
	C342.901276,369.123474 342.948059,371.136017 342.940857,373.579315 
	C320.954254,374.006226 299.021606,374.002441 276.631531,373.997986 
	C276.122528,371.973267 276.070953,369.949219 276.551697,367.481171 
	C298.739075,367.010071 320.394135,366.982910 342.049225,366.955750 
	C342.049225,366.955750 342.451416,367.035522 342.652954,367.073212 
z"/>
<path fill="#31E8FD" opacity="1.000000" stroke="none" 
	d="
M341.770203,366.634888 
	C320.394135,366.982910 298.739075,367.010071 276.626404,367.053406 
	C276.114136,366.909546 276.059509,366.749512 275.955872,366.341248 
	C275.906921,366.093018 276.116394,366.159302 276.440491,366.023224 
	C276.905731,365.787262 277.046844,365.687408 277.187927,365.587555 
	C277.856232,365.620300 278.524506,365.653046 279.526123,365.655701 
	C291.622498,365.753174 303.385559,365.878265 315.148560,366.009125 
	C323.929474,366.106812 332.710297,366.212128 341.770203,366.634888 
z"/>
<path fill="#8770EB" opacity="1.000000" stroke="none" 
	d="
M277.169922,365.388397 
	C277.046844,365.687408 276.905731,365.787262 276.511414,365.939270 
	C276.196411,365.806152 276.134644,365.620911 276.076416,365.141785 
	C276.079926,364.847931 276.564331,364.891113 276.804016,364.847656 
	C277.043701,364.804230 277.151947,365.189240 277.169922,365.388397 
z"/>
<path fill="#6B1193" opacity="1.000000" stroke="none" 
	d="
M205.930267,367.486115 
	C205.937958,366.764740 206.064438,366.496216 206.421402,366.168335 
	C206.793747,368.769775 206.956985,371.440582 207.207825,374.557190 
	C207.088776,375.315460 206.882156,375.627930 206.412903,376.051819 
	C206.109406,373.418457 206.068542,370.673676 205.930267,367.486115 
z"/>
<path fill="#31E8FD" opacity="1.000000" stroke="none" 
	d="
M275.718079,375.982239 
	C275.960724,375.903442 276.015717,376.338440 276.051758,376.553070 
	C276.087769,376.767700 275.632935,376.902039 275.396301,376.917358 
	C275.264923,376.642151 275.370178,376.351593 275.718079,375.982239 
z"/>
<path fill="#31E8FD" opacity="1.000000" stroke="none" 
	d="
M306.445679,377.035614 
	C309.141052,376.779816 312.287109,376.591919 315.718994,376.684967 
	C312.968628,377.011810 309.932526,377.057678 306.445679,377.035614 
z"/>
<path fill="#31E8FD" opacity="1.000000" stroke="none" 
	d="
M321.434174,377.029053 
	C323.482239,376.778931 325.971222,376.597656 328.732452,376.691895 
	C326.628143,377.010925 324.251648,377.054382 321.434174,377.029053 
z"/>
<path fill="#31E8FD" opacity="1.000000" stroke="none" 
	d="
M278.419708,377.010834 
	C280.148804,376.759125 282.312805,376.581055 284.743530,376.668976 
	C282.958405,376.984802 280.906494,377.034637 278.419708,377.010834 
z"/>
<path fill="#31E8FD" opacity="1.000000" stroke="none" 
	d="
M293.429596,377.036530 
	C295.156006,376.783966 297.317017,376.598877 299.742676,376.682617 
	C297.959625,377.002319 295.911896,377.053162 293.429596,377.036530 
z"/>
<path fill="#31E8FD" opacity="1.000000" stroke="none" 
	d="
M287.360779,377.015259 
	C287.869385,376.788269 288.751709,376.634918 289.820435,376.723938 
	C289.249390,377.007202 288.491974,377.048065 287.360779,377.015259 
z"/>
<path fill="#31E8FD" opacity="1.000000" stroke="none" 
	d="
M333.324951,377.026062 
	C333.563385,376.813934 334.136902,376.665924 334.860962,376.735901 
	C334.561035,376.999329 334.110504,377.044708 333.324951,377.026062 
z"/>
</svg>