<svg viewBox="0 0 256 256" xmlns="http://www.w3.org/2000/svg"><desc>Symbol: SAMP | Address: 0x182FA643E5f29d5EcA75e7b9CF9336A3fe4620b2</desc><path fill="#1D1D1D" d="M0 0h256v256H0z"/><path fill="#FEFEFE" d="M62.6473 105.1023c2.3137-.197 6.4494-.0885 8.8357-.0868l16.3225.0162c11.1245.0115 22.3153-.0635 33.4418.0028 2.489.0148 2.8214.33 4.4322 2.0688.9507 6.0084-.6028 13.3774.8252 19.1544.3888 1.5718 15.069.3373 17.1456.8145 2.3997.5516 2.1057-.045 4.0017 1.9775.0895.413.1588.83.207 1.2498.2405 2.029.1382 6.0915.14 8.2918l.0085 14.9152-.0007 23.248c-.0018 4.4795.0502 8.9545-.0923 13.4317-.1072 3.3693-.3692 3.412-3.5805 3.7165-2.6688.227-7.4395.0945-10.1947.093l-18.7853-.0154-19.283.0274c-2.0145.0045-12.45.428-13.6175-.8974-2.8868-3.2783-.775-15.0643-1.4845-19.01-1.0515-5.8493-21.187 2.1782-21.825-5.5815-.1765-2.2643-.1547-5.6553-.1492-7.9905l.0392-13.9633-.0258-24.3415c-.0017-3.3165-.4532-12.9537.7218-16.5035.1588-.4797 2.2143-.5705 2.9173-.6178"/><path fill="#1D1D1D" d="M83.506 127.0853c5.6843-.4086 11.5982-.1116 17.307-.1178 5.0655-.0058 18.0205-.624 22.3312.577 1.0143.2828 2.0448.7218 2.5373 1.7205.6458 1.3093.6843 37.2-.088 39.7018-.4163 1.3484-1.1278 2.1814-2.374 2.8217-2.2995.4613-36.8347.5585-39.5242.0317-.7363-.1442-1.5463-.886-1.9545-1.5054-.5455-.8283-.6003-1.8928-.6728-2.8535-.4638-6.156-.0948-12.6038-.0982-18.788-.0025-4.699-.546-14.019.379-18.2878.2955-1.3642.9785-2.539 2.1572-3.3003"/><path fill="#FEFEFE" d="M175.078 60.072c4.4613-.0805 13.0987-.8388 16.6585 1.3435 1.8732 3.3605 1.248 14.6635 1.2477 19.0612l-.011 27.4706.015 37.385c.0015 6.9725.1165 14.0912-.1762 21.0534-.1065 2.533-.5163 3.1435-1.6865 5.3213-3.1287.4648-15.2687.6728-18.7935-.332-1.1327-.323-1.6677-1.8518-2.0443-2.8938-.4715-3.439-.2594-12.7107-.2594-16.6587l.0082-31.9587c.0035-3.0933.2893-11.3895-.5392-13.9853-1.4438-1.7302-15.4288-.5243-19.342-1.197-.675-.509-1.2486-1.1947-1.821-1.8227-.729-3.6393-.6365-15.9018.8-19.608 4.4172-.7343 11.9852.215 16.6652-.2553 2.2115-.222 2.8452-.8075 4.1243-2.4723.341-4.3987-1.0373-15.4672 1.4147-18.7245.9727-1.2922 2.218-1.5062 3.7395-1.7267"/></svg>