<svg width="32" height="32" viewBox="0 0 32 32" fill="none" xmlns="http://www.w3.org/2000/svg">
<path d="M0 16C0 7.16344 7.16344 0 16 0C24.8366 0 32 7.16344 32 16C32 24.8366 24.8366 32 16 32C7.16344 32 0 24.8366 0 16Z" fill="white"/>
<path d="M25 16C25 20.9706 20.9706 25 16 25C11.0294 25 7 20.9706 7 16C7 11.0294 11.0294 7 16 7C20.9706 7 25 11.0294 25 16Z" fill="white"/>
<path d="M19.7217 18.4174L21.625 10.8088L19.9837 10.375L18.1127 17.8544C18.6691 17.9952 19.2069 18.1844 19.7217 18.4174Z" fill="black"/>
<path d="M12.0446 18.2946L10.375 10.786L12.0271 10.3978L13.6694 17.7838C13.1087 17.9067 12.5656 18.0785 12.0446 18.2946Z" fill="black"/>
<path d="M19.4433 19.5304C18.5374 19.094 17.5484 18.813 16.5096 18.7196L17.6997 21.625H18.9193L19.4433 19.5304Z" fill="black"/>
<path d="M15.3474 18.6942L13.9969 21.625H12.7851L12.2933 19.4133C13.239 18.995 14.269 18.7436 15.3474 18.6942Z" fill="black"/>
<path d="M16.0365 17.5646L15.9572 17.3709L15.8696 17.561C15.827 17.5605 15.7843 17.5602 15.7415 17.5602C15.1175 17.5602 14.507 17.6196 13.915 17.7333L15.6003 14.076H16.4464L17.9807 17.822C17.3534 17.6726 16.7033 17.5847 16.0365 17.5646Z" fill="black"/>
<path fill-rule="evenodd" clip-rule="evenodd" d="M11.8545 3.38369C13.345 2.89377 14.938 2.66977 16.5159 2.73025C18.0941 2.79073 19.6577 3.13601 21.1127 3.74401C22.5681 4.35201 23.9149 5.22305 25.0673 6.29761C26.5914 7.71937 27.7748 9.49761 28.4845 11.4867C29.1946 13.4762 29.4311 15.6765 29.1572 17.7712C28.8836 19.8659 28.0996 21.8554 26.9137 23.5661C25.7277 25.2768 24.1396 26.7085 22.2743 27.7005C20.409 28.6922 18.266 29.2438 16.1537 29.2758C14.0413 29.3078 11.9594 28.8205 10.0948 27.895C8.23047 26.9696 6.58311 25.6064 5.33223 23.9037C4.08135 22.201 3.22695 20.1587 2.88775 18.0749C2.54855 15.9907 2.72455 13.8646 3.37447 11.8813C3.86567 10.3818 4.62791 8.96417 5.60455 7.73569H4.12007V5.28193H9.93671V10.7136H7.48295V9.22945C6.68295 10.2355 6.05831 11.3968 5.65607 12.6256C5.12391 14.2512 4.98055 15.9952 5.25607 17.697C5.59847 19.8138 6.58855 21.865 8.06631 23.4458C9.83399 25.3363 12.2993 26.5542 14.8657 26.8208C17.4317 27.0874 20.0989 26.4029 22.217 24.9286C24.3351 23.4544 25.9047 21.1904 26.5418 18.6899C27.1789 16.1894 26.8836 13.4525 25.7348 11.1421C24.586 8.83169 22.5834 6.94849 20.1889 5.95905C17.7943 4.96929 15.0074 4.87393 12.6036 5.66369L11.8545 3.38369Z" fill="url(#paint0_linear_411_487913)"/>
<defs>
<linearGradient id="paint0_linear_411_487913" x1="3.99976" y1="8.00012" x2="27.5039" y2="23.4938" gradientUnits="userSpaceOnUse">
<stop stop-color="#FEC618"/>
<stop offset="0.494792" stop-color="#F42B70"/>
<stop offset="1" stop-color="#0C73BE"/>
</linearGradient>
</defs>
</svg>
