<svg fill="none" viewBox="0 0 600 600" xmlns="http://www.w3.org/2000/svg">
    <radialGradient id="a" cx="0" cy="0" gradientTransform="rotate(54.17 -42.31 263.4) scale(497.082)" gradientUnits="userSpaceOnUse" r="1">
        <stop offset="0" stop-color="#fffac8"/>
        <stop offset="1" stop-color="#f9a806"/>
    </radialGradient>
    <linearGradient id="stroke-gradient" x1="200" x2="400" y1="400" y2="200" gradientUnits="userSpaceOnUse">
        <stop offset="0" stop-color="#2FB9C6"/>
        <stop offset="1" stop-color="#B4519F"/>
    </linearGradient>
    <path d="M300 600a298.1 298.1 0 01-116.74-23.58A298.32 298.32 0 0187.9 512.1a300.3 300.3 0 01-64.32-95.36C7.96 379.8 0 340.52 0 300s7.96-79.8 23.58-116.74A298.3 298.3 0 0187.9 87.9a300.3 300.3 0 0195.36-64.32A298.63 298.63 0 01300 0c40.52 0 79.8 7.96 116.74 23.58A298.3 298.3 0 01512.1 87.9a300.32 300.32 0 0164.32 95.36A298.64 298.64 0 01600 300c0 40.52-7.96 79.8-23.58 116.74-15.12 35.7-36.73 67.83-64.32 95.36s-59.65 49.2-95.36 64.32A298.1 298.1 0 01300 600z" fill="#fef9c2"/>
    <path d="M300 600c165.69 0 300-134.31 300-300S465.69 0 300 0 0 134.31 0 300s134.31 300 300 300z" fill="url(#a)" fill-opacity=".35"/>
    <circle stroke="url(#stroke-gradient)" stroke-width="20" fill="none" cx="300" cy="300" r="290" />
    <path d="M464.42 254.28H431.5c-18.06-50.3-66.82-84.8-131.02-84.8h-105.7v84.73h-36.72v30.43h36.73v31.9h-36.73v30.43h36.73v83.76h105.63c63.5 0 111.85-34.17 130.45-83.76h33.55v-30.44h-26.14c.62-5.4 1.03-10.93 1.03-16.46v-.76c0-4.98-.27-9.9-.76-14.67h26.01v-30.43zm-240.02-57.7h76.08c47.18 0 82.18 23.18 98.37 57.63H224.4zm76.08 206.76H224.4V346.9h174.24c-16.26 33.82-51.19 56.44-98.16 56.44zm108.26-102.58c0 5.4-.35 10.65-1.1 15.7H224.4v-31.89h183.3c.62 4.98 1.04 10.17 1.04 15.43z" fill="#fa0"/>
</svg>