<svg width="32" height="32" viewBox="0 0 32 32" fill="none" xmlns="http://www.w3.org/2000/svg">
<path d="M0 16C0 7.16344 7.16344 0 16 0C24.8366 0 32 7.16344 32 16C32 24.8366 24.8366 32 16 32C7.16344 32 0 24.8366 0 16Z" fill="white"/>
<g clip-path="url(#clip0_327_466947)">
<path d="M16 25C20.9706 25 25 20.9706 25 16C25 11.0294 20.9706 7 16 7C11.0294 7 7 11.0294 7 16C7 20.9706 11.0294 25 16 25Z" fill="#99999E"/>
<path fill-rule="evenodd" clip-rule="evenodd" d="M22.2311 16C22.2311 19.4412 19.4415 22.2308 16.0003 22.2308C12.5591 22.2308 9.76953 19.4412 9.76953 16C9.76953 12.5588 12.5591 9.76923 16.0003 9.76923C19.4415 9.76923 22.2311 12.5588 22.2311 16ZM16.5245 20.3588H15.6574V19.3735C15.0584 19.3026 14.3884 19.0346 13.9234 18.6089L14.4909 17.7419C14.9717 18.1203 15.4367 18.341 15.9412 18.341C16.556 18.341 16.8397 18.0651 16.8397 17.5685C16.8397 17.0422 16.3102 16.7705 15.7226 16.469C14.9903 16.0932 14.1677 15.6711 14.1677 14.6522C14.1677 13.6984 14.7352 13.0363 15.6574 12.8629V11.8461H16.5245V12.8472C17.155 12.9339 17.6043 13.2492 17.9826 13.6433L17.3363 14.3842C16.9737 14.0531 16.6585 13.864 16.2092 13.864C15.689 13.864 15.4052 14.1083 15.4052 14.5891C15.4052 15.0533 15.8918 15.2892 16.4498 15.5598C17.1992 15.9231 18.0772 16.3489 18.0772 17.4739C18.0693 18.4355 17.5334 19.1528 16.5245 19.342L16.5245 20.3588Z" fill="white"/>
<path fill-rule="evenodd" clip-rule="evenodd" d="M16.0002 23.6154C20.206 23.6154 23.6155 20.2059 23.6155 16C23.6155 11.7941 20.206 8.38461 16.0002 8.38461C11.7943 8.38461 8.38477 11.7941 8.38477 16C8.38477 20.2059 11.7943 23.6154 16.0002 23.6154ZM16.0001 22.2308C19.4413 22.2308 22.2309 19.4412 22.2309 16C22.2309 12.5588 19.4413 9.76923 16.0001 9.76923C12.559 9.76923 9.76938 12.5588 9.76938 16C9.76938 19.4412 12.559 22.2308 16.0001 22.2308ZM15.6573 20.3588H16.5243L16.5243 19.342C17.5332 19.1528 18.0692 18.4355 18.0771 17.4739C18.0771 16.3489 17.199 15.9231 16.4496 15.5598C15.8917 15.2892 15.4051 15.0533 15.4051 14.5891C15.4051 14.1083 15.6888 13.864 16.209 13.864C16.6583 13.864 16.9736 14.0531 17.3362 14.3842L17.9825 13.6433C17.6041 13.2492 17.1549 12.9339 16.5243 12.8472V11.8462H15.6573V12.8629C14.7351 13.0363 14.1676 13.6984 14.1676 14.6522C14.1676 15.6711 14.9901 16.0932 15.7225 16.469C16.3101 16.7705 16.8396 17.0422 16.8396 17.5685C16.8396 18.0651 16.5558 18.341 15.941 18.341C15.4366 18.341 14.9715 18.1203 14.4907 17.7419L13.9232 18.6089C14.3883 19.0346 15.0582 19.3026 15.6573 19.3735V20.3588Z" fill="black"/>
</g>
<path fill-rule="evenodd" clip-rule="evenodd" d="M11.8545 3.38369C13.345 2.89377 14.938 2.66977 16.5159 2.73025C18.0941 2.79073 19.6577 3.13601 21.1127 3.74401C22.5681 4.35201 23.9149 5.22305 25.0673 6.29761C26.5914 7.71937 27.7748 9.49761 28.4845 11.4867C29.1946 13.4762 29.4311 15.6765 29.1572 17.7712C28.8836 19.8659 28.0996 21.8554 26.9137 23.5661C25.7277 25.2768 24.1396 26.7085 22.2743 27.7005C20.409 28.6922 18.266 29.2438 16.1537 29.2758C14.0413 29.3078 11.9594 28.8205 10.0948 27.895C8.23047 26.9696 6.58311 25.6064 5.33223 23.9037C4.08135 22.201 3.22695 20.1587 2.88775 18.0749C2.54855 15.9907 2.72455 13.8646 3.37447 11.8813C3.86567 10.3818 4.62791 8.96417 5.60455 7.73569H4.12007V5.28193H9.93671V10.7136H7.48295V9.22945C6.68295 10.2355 6.05831 11.3968 5.65607 12.6256C5.12391 14.2512 4.98055 15.9952 5.25607 17.697C5.59847 19.8138 6.58855 21.865 8.06631 23.4458C9.83399 25.3363 12.2993 26.5542 14.8657 26.8208C17.4317 27.0874 20.0989 26.4029 22.217 24.9286C24.3351 23.4544 25.9047 21.1904 26.5418 18.6899C27.1789 16.1894 26.8836 13.4525 25.7348 11.1421C24.586 8.83169 22.5834 6.94849 20.1889 5.95905C17.7943 4.96929 15.0074 4.87393 12.6036 5.66369L11.8545 3.38369Z" fill="url(#paint0_linear_327_466947)"/>
<defs>
<linearGradient id="paint0_linear_327_466947" x1="2.04317" y1="13.2971" x2="15.2219" y2="29.5764" gradientUnits="userSpaceOnUse">
<stop stop-color="#FF1100"/>
<stop offset="0.34375" stop-color="#FDBF41"/>
<stop offset="0.692708" stop-color="#F1ECE2"/>
<stop offset="1" stop-color="#007FFF"/>
</linearGradient>
<clipPath id="clip0_327_466947">
<rect width="18" height="18" fill="white" transform="translate(7 7)"/>
</clipPath>
</defs>
</svg>
