<svg xmlns="http://www.w3.org/2000/svg" width="240" height="222" fill="none" viewBox="0 0 240 222"><path fill="#9FF7EC" d="m119.971 82.446 58.465-21.033L119.971 3v79.446Z"/><path fill="#BADEFF" d="M119.97 216.571 45.6 152.672V77.231"/><path fill="#C5C5FF" d="M119.971 82.446 61.514 61.361l21.153-21.357L119.97 3v79.446Z"/><path fill="#9077ED" d="M119.971 216.571v-64.257s53.497-53.574 74.438-75.083l-74.438 139.34Z"/><path fill="#5E9EFC" d="m45.6 77.23 74.37 75.084v64.257L45.6 77.231Z"/><path fill="#A181F7" d="m178.436 61.414-58.465 58.924V82.447l58.465-21.033Z"/><path fill="#61A9FF" d="m61.514 61.363 58.457 58.975v-37.89L61.514 61.362Z"/><path fill="#BCCFFF" d="m194.4 77.23-74.429 139.341 74.429-64.137V77.231Z"/></svg>