<svg width="32" height="32" viewBox="0 0 32 32" fill="none" xmlns="http://www.w3.org/2000/svg">
<rect width="29" height="29" rx="14.5" fill="white"/>
<path fill-rule="evenodd" clip-rule="evenodd" d="M14.5 20.125C17.6066 20.125 20.125 17.6066 20.125 14.5C20.125 11.3934 17.6066 8.875 14.5 8.875C11.3934 8.875 8.875 11.3934 8.875 14.5C8.875 17.6066 11.3934 20.125 14.5 20.125ZM14.5 22C18.6421 22 22 18.6421 22 14.5C22 10.3579 18.6421 7 14.5 7C10.3579 7 7 10.3579 7 14.5C7 18.6421 10.3579 22 14.5 22Z" fill="#99999E"/>
<path d="M20.125 14.5C20.125 17.6066 17.6066 20.125 14.5 20.125C11.3934 20.125 8.875 17.6066 8.875 14.5C8.875 11.3934 11.3934 8.875 14.5 8.875C17.6066 8.875 20.125 11.3934 20.125 14.5Z" fill="black"/>
<path d="M14.2087 15.2185L14.2352 15.837C14.2352 16.2018 14.144 16.4925 13.9615 16.709H16.8438V17.7812H12.1695V16.709H12.5756C12.7874 16.6556 12.8934 16.3901 12.8934 15.9126L12.8713 15.2185H12.1562V14.1685H12.836L12.8051 13.1586C12.8051 12.5594 12.9861 12.0863 13.348 11.7393C13.7129 11.3923 14.1999 11.2188 14.809 11.2188C15.4328 11.2188 15.9227 11.3863 16.2788 11.7215C16.6348 12.0537 16.8129 12.5046 16.8129 13.074H15.5461C15.5461 12.8219 15.4813 12.6291 15.3519 12.4957C15.2253 12.3622 15.0429 12.2954 14.8046 12.2954C14.6103 12.2954 14.4485 12.3681 14.319 12.5135C14.1925 12.6588 14.1292 12.8738 14.1292 13.1586L14.169 14.1685H15.5328V15.2185H14.2087Z" fill="white"/>
<path fill-rule="evenodd" clip-rule="evenodd" d="M10.7434 3.06639C12.0942 2.6224 13.5378 2.4194 14.9678 2.47421C16.3981 2.52902 17.815 2.84193 19.1336 3.39293C20.4526 3.94393 21.6732 4.73331 22.7175 5.70713C24.0987 6.9956 25.1711 8.60713 25.8144 10.4098C26.4579 12.2127 26.6722 14.2067 26.4239 16.1051C26.176 18.0034 25.4655 19.8064 24.3908 21.3567C23.316 22.907 21.8767 24.2045 20.1863 25.1035C18.4959 26.0022 16.5538 26.5022 14.6395 26.5312C12.7252 26.5602 10.8385 26.1185 9.14864 25.2798C7.4591 24.4411 5.96618 23.2057 4.83257 21.6626C3.69896 20.1196 2.92466 18.2688 2.61726 16.3803C2.30986 14.4915 2.46936 12.5648 3.05835 10.7673C3.5035 9.4084 4.19428 8.1237 5.07936 7.01039H3.73405V4.78667H9.00538V9.70913H6.78166V8.36411C6.05666 9.27587 5.49058 10.3283 5.12605 11.4419C4.64378 12.9151 4.51386 14.4956 4.76355 16.0378C5.07385 17.9562 5.97111 19.8151 7.31033 21.2477C8.91229 22.961 11.1465 24.0647 13.4723 24.3063C15.7978 24.5479 18.2149 23.9275 20.1344 22.5915C22.0539 21.2555 23.4764 19.2037 24.0538 16.9377C24.6312 14.6716 24.3635 12.1912 23.3224 10.0974C22.2813 8.00364 20.4665 6.29699 18.2964 5.40031C16.1263 4.50334 13.6007 4.41692 11.4222 5.13264L10.7434 3.06639Z" fill="url(#paint0_linear_28_164950)"/>
<circle cx="25.5" cy="25.5" r="6.5" fill="white"/>
<path d="M23.2644 29.2143H21.7857V21.7857H23.2644V29.2143Z" fill="black"/>
<path d="M24.5067 29.2143V21.7857H26.7699C27.5344 21.7857 28.1145 21.9592 28.5101 22.3061C28.9092 22.6497 29.1087 23.1548 29.1087 23.8214C29.1087 24.199 29.0265 24.5238 28.8622 24.7959C28.6979 25.068 28.4733 25.267 28.1883 25.3929C28.5169 25.4881 28.77 25.6803 28.9477 25.9694C29.1254 26.2551 29.2143 26.6089 29.2143 27.0306C29.2143 27.7517 29.0181 28.2959 28.6258 28.6633C28.2369 29.0306 27.6719 29.2143 26.9309 29.2143H24.5067ZM25.9853 25.9847V27.9694H26.9309C27.1958 27.9694 27.397 27.8861 27.5344 27.7194C27.6719 27.5527 27.7406 27.3163 27.7406 27.0102C27.7406 26.3435 27.5026 26.0017 27.0264 25.9847H25.9853ZM25.9853 24.8929H26.7549C27.3349 24.8929 27.625 24.5884 27.625 23.9796C27.625 23.6429 27.5579 23.4014 27.4238 23.2551C27.2897 23.1089 27.0717 23.0357 26.7699 23.0357H25.9853V24.8929Z" fill="black"/>
<defs>
<linearGradient id="paint0_linear_28_164950" x1="1.85186" y1="12.0504" x2="13.7951" y2="26.8036" gradientUnits="userSpaceOnUse">
<stop stop-color="#004CFF"/>
<stop offset="0.252131" stop-color="#00E0FB"/>
<stop offset="0.505709" stop-color="#87FF70"/>
<stop offset="0.755054" stop-color="#F8F500"/>
<stop offset="1" stop-color="#FF1A00"/>
</linearGradient>
</defs>
</svg>
