<svg width="240" height="240" viewBox="0 0 240 240" fill="none" xmlns="http://www.w3.org/2000/svg">
<g clip-path="url(#clip0_6308_3853)">
<circle cx="120" cy="120" r="120" fill="#262626"/>
<circle cx="120" cy="120" r="93" fill="black"/>
<path d="M188.039 114.119H135.539C132.989 114.119 130.359 106.019 125.539 106.009C121.519 106.009 116.679 114.119 115.539 114.119H52.0392C51.3992 111.769 54.4992 97.3686 55.6492 97.0586H122.479C128.179 96.1686 128.549 90.8486 131.029 89.6086C136.799 86.7186 138.969 94.1586 142.489 96.1786C148.499 99.6186 174.919 95.4386 183.409 97.2586C186.259 98.2186 187.319 110.969 188.049 114.119H188.039Z" fill="white"/>
<path d="M187.037 132.119L181.877 148.949L110.537 149.129C107.597 148.569 105.217 141.429 101.497 141.069C97.4273 140.669 94.5073 148.339 90.5273 149.099C86.9373 149.789 63.1673 149.799 59.5473 149.119C55.7973 148.419 53.0073 135.979 53.0473 132.119H99.5473C102.597 132.119 105.647 124.329 108.597 124.059C112.307 123.719 117.387 132.119 118.547 132.119H187.047H187.037Z" fill="#FEFEFE"/>
<path d="M66.0387 79.1187C65.3087 78.4987 71.2387 71.3287 71.9987 70.5787C100.189 42.7987 151.659 45.8087 174.039 79.1087C169.879 78.7187 164.739 79.8087 160.749 78.9087C155.709 77.7787 153.679 69.9487 149.689 70.3287C146.489 70.6387 140.409 79.1187 139.539 79.1187H66.0387Z" fill="white"/>
<path d="M169.039 166.119C170.709 167.599 161.959 173.749 160.929 174.509C132.909 195.189 93.0891 192.679 70.0391 166.129C76.8391 167.209 78.7291 155.469 85.0391 158.579C86.3491 159.219 90.1591 166.119 91.5391 166.119H169.039Z" fill="#FEFEFE"/>
<g filter="url(#filter0_d_6308_3853)">
<circle cx="167" cy="175" r="40" fill="white"/>
<circle cx="167" cy="175" r="35.8569" fill="black"/>
<circle cx="149.104" cy="161.133" r="3.11201" fill="#D9D9D9"/>
<circle cx="157.433" cy="161.133" r="3.11201" fill="#D9D9D9"/>
<circle cx="149.104" cy="168.578" r="3.11201" fill="#D9D9D9"/>
<circle cx="157.433" cy="169.047" r="3.11201" fill="#D9D9D9"/>
<circle cx="149.104" cy="175.867" r="3.11201" fill="#D9D9D9"/>
<circle cx="150.564" cy="183.185" r="3.11201" fill="#D9D9D9"/>
<circle cx="157.696" cy="176.961" r="3.11201" fill="#D9D9D9"/>
<circle cx="160.811" cy="183.882" r="3.11201" fill="#D9D9D9"/>
<circle cx="154.589" cy="189.409" r="3.11201" fill="#D9D9D9"/>
<circle cx="3.11201" cy="3.11201" r="3.11201" transform="matrix(-1 0 0 1 190.074 158.021)" fill="#D9D9D9"/>
<circle cx="3.11201" cy="3.11201" r="3.11201" transform="matrix(-1 0 0 1 181.745 158.021)" fill="#D9D9D9"/>
<circle cx="3.11201" cy="3.11201" r="3.11201" transform="matrix(-1 0 0 1 190.074 165.466)" fill="#D9D9D9"/>
<circle cx="3.11201" cy="3.11201" r="3.11201" transform="matrix(-1 0 0 1 181.745 165.935)" fill="#D9D9D9"/>
<circle cx="3.11201" cy="3.11201" r="3.11201" transform="matrix(-1 0 0 1 190.074 172.755)" fill="#D9D9D9"/>
<circle cx="3.11201" cy="3.11201" r="3.11201" transform="matrix(-1 0 0 1 188.615 180.073)" fill="#D9D9D9"/>
<circle cx="3.11201" cy="3.11201" r="3.11201" transform="matrix(-1 0 0 1 181.482 173.849)" fill="#D9D9D9"/>
<circle cx="3.11201" cy="3.11201" r="3.11201" transform="matrix(-1 0 0 1 178.375 180.77)" fill="#D9D9D9"/>
<circle cx="3.11201" cy="3.11201" r="3.11201" transform="matrix(-1 0 0 1 184.597 186.297)" fill="#D9D9D9"/>
<circle cx="3.11201" cy="3.11201" r="3.11201" transform="matrix(-1 0 0 1 178.375 190.341)" fill="#D9D9D9"/>
<circle cx="3.11201" cy="3.11201" r="3.11201" transform="matrix(-1 0 0 1 163.927 190.341)" fill="#D9D9D9"/>
<circle cx="167.876" cy="194.747" r="3.11201" fill="#D9D9D9"/>
<circle cx="167.876" cy="186.713" r="3.11201" fill="#D9D9D9"/>
</g>
</g>
<defs>
<filter id="filter0_d_6308_3853" x="115" y="135" width="104" height="104" filterUnits="userSpaceOnUse" color-interpolation-filters="sRGB">
<feFlood flood-opacity="0" result="BackgroundImageFix"/>
<feColorMatrix in="SourceAlpha" type="matrix" values="0 0 0 0 0 0 0 0 0 0 0 0 0 0 0 0 0 0 127 0" result="hardAlpha"/>
<feOffset dy="12"/>
<feGaussianBlur stdDeviation="6"/>
<feComposite in2="hardAlpha" operator="out"/>
<feColorMatrix type="matrix" values="0 0 0 0 0 0 0 0 0 0 0 0 0 0 0 0 0 0 0.15 0"/>
<feBlend mode="normal" in2="BackgroundImageFix" result="effect1_dropShadow_6308_3853"/>
<feBlend mode="normal" in="SourceGraphic" in2="effect1_dropShadow_6308_3853" result="shape"/>
</filter>
<clipPath id="clip0_6308_3853">
<rect width="240" height="240" fill="white"/>
</clipPath>
</defs>
</svg>
