<svg xmlns="http://www.w3.org/2000/svg" width="691" height="691" viewBox="0 0 691 691" version="1.1">
	<path d="M 337.898 115.275 C 336.029 116.527, 333.228 119.564, 331.673 122.025 C 327.985 127.864, 187.574 374.051, 184.416 380.217 C 183.087 382.811, 182.002 386.186, 182.004 387.717 C 182.008 391.105, 185.082 396.372, 188.202 398.341 C 190.951 400.074, 334.133 441, 337.450 441 C 338.718 441, 340.250 440.404, 340.854 439.676 C 341.459 438.947, 344.466 428.485, 347.537 416.426 C 351.240 401.890, 354.035 392.995, 355.832 390.035 C 361.273 381.071, 373.209 375.054, 382.721 376.481 C 385.211 376.854, 393.380 379.427, 400.874 382.198 C 408.368 384.970, 417.425 388.109, 421 389.175 C 427.882 391.227, 448.689 392.879, 446 391.161 C 445.175 390.633, 436.625 387.208, 427 383.549 C 417.375 379.891, 406.252 375.335, 402.283 373.427 C 384.034 364.652, 363.711 347.632, 355.725 334.434 C 346.853 319.773, 342.868 305.282, 342.892 287.763 C 342.942 252.084, 358.725 224.793, 390.962 204.646 C 401.575 198.014, 401.523 195.369, 390.397 175.704 C 381.605 160.165, 374.270 147.094, 365.872 132 C 358.853 119.385, 356.290 116.019, 352.494 114.433 C 347.418 112.312, 341.842 112.634, 337.898 115.275 M 449.500 184.408 C 445.265 186.285, 441.145 190.408, 439.449 194.467 C 438.499 196.743, 438 201.517, 438 208.345 C 438 220.028, 437.832 220.352, 430.959 221.907 C 405.524 227.661, 384.671 243.771, 376.197 264.211 C 371.903 274.570, 370.646 282.231, 371.268 294.254 C 372.350 315.187, 381.279 329.946, 400.913 343.255 C 410.249 349.584, 418.019 353.169, 442.738 362.553 C 453.596 366.674, 464.821 371.465, 467.681 373.199 C 482.957 382.457, 488.373 394.586, 482.548 406.491 C 479.247 413.238, 475.314 416.365, 465.795 419.808 C 459.012 422.262, 457.377 422.442, 442.500 422.377 C 424.035 422.296, 417.282 420.874, 394 412.161 C 386.575 409.383, 380.236 407.422, 379.914 407.805 C 378.714 409.229, 368.832 449.918, 369.445 450.911 C 370.900 453.265, 388.450 459.745, 402 462.932 C 408.948 464.566, 431.344 468, 435.051 468 C 435.592 468, 436 472.741, 436 479.032 C 436 491.176, 436.991 494.787, 441.571 499.325 C 445.669 503.385, 450.312 505.001, 457.872 504.996 C 465.128 504.992, 469.812 502.965, 472.186 498.804 C 473.050 497.289, 473.671 491.049, 474 480.596 L 474.500 464.691 483.353 462.344 C 500.900 457.691, 511.331 452.264, 522.147 442.160 C 539.695 425.767, 547.309 401.445, 542.594 376.838 C 540.019 363.397, 535.267 354.397, 525.685 344.815 C 514.618 333.748, 504.158 328.035, 472.926 315.999 C 446.004 305.623, 435.894 299.345, 431.866 290.500 C 424.945 275.304, 437.418 262.463, 461.093 260.411 C 475.316 259.178, 496.814 262.895, 511.432 269.116 C 520.371 272.920, 522.172 272.675, 523.321 267.500 C 523.809 265.300, 525.286 259.694, 526.604 255.043 C 529.466 244.941, 529.590 239.868, 527.104 234.500 C 524.352 228.556, 520.347 225.424, 512.500 223.082 C 504.258 220.622, 487.691 218.014, 480.250 218.006 L 475 218 475 206.838 C 475 196.626, 474.779 195.299, 472.404 191.246 C 468.178 184.035, 457.521 180.853, 449.500 184.408 M 163.821 428.402 C 161.797 429.124, 159.380 430.477, 158.450 431.407 C 155.056 434.801, 127 488.409, 127.004 491.492 C 127.008 495.225, 130.024 500.315, 133.633 502.679 C 137.882 505.463, 145.007 504.837, 173 499.221 C 194.349 494.938, 255.507 482.918, 263.982 481.339 C 271.615 479.917, 276.967 472.162, 275.066 465.277 C 273.459 459.456, 270.485 457.232, 260.061 454.056 C 193.506 433.775, 170.759 427.007, 169.272 427.044 C 168.297 427.068, 165.844 427.679, 163.821 428.402 M 539 462.324 C 537.625 463.045, 534.025 465.533, 531 467.851 C 525.575 472.009, 511.593 479.564, 505.237 481.772 C 501.426 483.095, 500.127 485.555, 502.163 487.591 C 502.953 488.381, 513.027 491.746, 524.550 495.067 C 547.342 501.638, 553.108 502.213, 558.287 498.433 C 562.009 495.715, 564.339 490.478, 563.667 486.338 C 562.949 481.912, 553.617 465.630, 550.304 463.024 C 547.357 460.707, 542.640 460.414, 539 462.324" stroke="none" fill="black" fill-rule="evenodd"/>
</svg>