<?xml version="1.0" encoding="UTF-8"?>
<svg version="1.1" xmlns="http://www.w3.org/2000/svg" width="512" height="512">
<path d="M0 0 C168.96 0 337.92 0 512 0 C512 168.96 512 337.92 512 512 C343.04 512 174.08 512 0 512 C0 343.04 0 174.08 0 0 Z " fill="#FEFEFE" transform="translate(0,0)"/>
<path d="M0 0 C43.13903765 -3.88811445 43.13903765 -3.88811445 53.91796875 4.7578125 C59.51477748 9.70334663 66.75738598 16.85047476 68.53027344 24.19750977 C69.24447804 26.93814002 71.26364306 27.71358972 73.57617188 29.11132812 C74.19041016 29.46646484 74.80464844 29.82160156 75.4375 30.1875 C86.6865488 36.70669291 95.63102635 46.39820474 104.7956543 55.50048828 C105.97088354 56.66418771 107.15056832 57.8234051 108.3347168 58.97802734 C118.40737122 68.80126897 127.0668268 79.03382607 133.25 91.8125 C133.57371582 92.47064697 133.89743164 93.12879395 134.23095703 93.80688477 C137.63242242 100.95809713 139.93810339 108.37014777 142 116 C142.36931641 117.36511719 142.36931641 117.36511719 142.74609375 118.7578125 C143.85867672 123.28487423 144.19660615 127.3797554 144 132 C137.82918169 132.09824188 131.93218245 131.73600576 125.8125 131 C114.87028385 129.77931266 103.9961607 129.79496545 93 130 C93.65411865 130.44190674 94.3082373 130.88381348 94.98217773 131.33911133 C102.18136547 136.36728706 108.37766726 141.90965614 114.53442383 148.14331055 C116.05430914 149.67922277 117.58951317 151.19847992 119.12695312 152.71679688 C127.95915203 161.52829324 136.60398291 171.01638403 142 182.375 C142.804375 184.02628906 142.804375 184.02628906 143.625 185.7109375 C149.59404689 199.98916898 149.62702452 220.21552625 144.3828125 234.79296875 C143.92648437 235.85128906 143.47015625 236.90960938 143 238 C142.73155273 238.65436035 142.46310547 239.3087207 142.18652344 239.98291016 C131.02791872 266.94027027 110.77600372 288.72090065 83.8828125 300.34765625 C78.333607 302.49201682 74.1370766 303.23286543 68 304 C68 314.56 68 325.12 68 336 C58.78884456 336.65793967 49.77044222 337.18206117 40.5625 337.1875 C39.44423828 337.19974609 38.32597656 337.21199219 37.17382812 337.22460938 C24.74686881 337.24670829 19.01060321 334.15594783 10.125 325.5 C9.64323303 325.0347995 9.16146606 324.569599 8.6651001 324.09030151 C3.18127273 318.70193841 -1.0783752 314.32203071 -1.25805664 306.39208984 C-1.17020312 304.85392786 -1.0706572 303.31638372 -0.95874023 301.77978516 C-0.76892464 299.38854669 -0.76892464 299.38854669 -1 296 C-3.39455509 293.50660774 -5.39621087 292.55724699 -8.65234375 291.4609375 C-19.87210773 286.56456442 -28.7198356 275.61983951 -37.21362305 267.10205078 C-39.55196492 264.76054932 -41.90333122 262.43270619 -44.25585938 260.10546875 C-67.67847176 236.78545709 -79.313006 212.79484137 -83 180 C-63.99076963 179.78261363 -44.99830501 180.43360588 -26 181 C-26 180.34 -26 179.68 -26 179 C-26.89702888 178.58947388 -26.89702888 178.58947388 -27.81217957 178.1706543 C-29.92608334 177.03955117 -31.31244056 175.94614367 -33.00512695 174.26953125 C-33.56283279 173.72135742 -34.12053864 173.17318359 -34.69514465 172.60839844 C-35.28687973 172.01575195 -35.87861481 171.42310547 -36.48828125 170.8125 C-37.10970505 170.19536133 -37.73112885 169.57822266 -38.37138367 168.94238281 C-39.68592833 167.63357654 -40.99786616 166.32214751 -42.30737305 165.00830078 C-44.28637841 163.02616294 -46.27823786 161.05764667 -48.27148438 159.08984375 C-56.50604405 150.89804788 -64.51011407 142.83451343 -68.8125 131.8125 C-69.19019531 130.87019531 -69.56789062 129.92789063 -69.95703125 128.95703125 C-70.30121094 127.98121094 -70.64539063 127.00539063 -71 126 C-71.36996094 124.95585937 -71.73992187 123.91171875 -72.12109375 122.8359375 C-73.27958684 117.77975879 -73.29958055 112.98232267 -73.25 107.8125 C-73.23767334 106.26949219 -73.23767334 106.26949219 -73.22509766 104.6953125 C-72.90425445 82.91937337 -64.96544775 64.67334503 -51 48 C-50.41863281 47.27296875 -49.83726562 46.5459375 -49.23828125 45.796875 C-37.19763818 31.35820029 -18.92165542 19.91958823 0 18 C0 12.06 0 6.12 0 0 Z " fill="#230E45" transform="translate(224,88)"/>
<path d="M0 0 C22.73667361 10.99171706 22.73667361 10.99171706 30 19 C30.61617187 19.62390625 31.23234375 20.2478125 31.8671875 20.890625 C43.62670503 33.22702452 46.53046682 46.07071786 46.23828125 62.515625 C45.39371515 87.06212744 30.48271593 107.21353338 13.3125 123.625 C-0.18643653 135.43396148 -15.23847873 140.63372913 -33 142 C-33 152.56 -33 163.12 -33 174 C-38.4140625 174.0309375 -38.4140625 174.0309375 -43.9375 174.0625 C-45.07695068 174.071604 -46.21640137 174.08070801 -47.39038086 174.09008789 C-48.28120361 174.09258545 -49.17202637 174.09508301 -50.08984375 174.09765625 C-51.00628662 174.10289307 -51.92272949 174.10812988 -52.86694336 174.11352539 C-55 174 -55 174 -56 173 C-56.08790975 170.70848583 -56.10694038 168.41427476 -56.09765625 166.12109375 C-56.0962413 165.4344313 -56.09482635 164.74776886 -56.09336853 164.04029846 C-56.08775479 161.83932199 -56.07520007 159.63844591 -56.0625 157.4375 C-56.05748676 155.94856917 -56.05292355 154.45963676 -56.04882812 152.97070312 C-56.03778093 149.31376925 -56.02050713 145.65689442 -56 142 C-57.61829712 142.02622437 -57.61829712 142.02622437 -59.26928711 142.05297852 C-63.32085453 141.99544366 -66.74841263 141.17986758 -70.5625 139.9375 C-71.60132324 139.60250488 -71.60132324 139.60250488 -72.66113281 139.26074219 C-96.00226735 131.43064913 -115.59182305 115.09040599 -127.04296875 93.2265625 C-131.78847021 83.6591782 -136 73.77304147 -136 63 C-107.29 62.505 -107.29 62.505 -78 62 C-76.68 67.28 -75.36 72.56 -74 78 C-69.57900008 88.55335465 -65.09675237 91.94194858 -55 98 C-55 84.14 -55 70.28 -55 56 C-54.67 56 -54.34 56 -54 56 C-54 71.18 -54 86.36 -54 102 C-44.1 102 -34.2 102 -24 102 C-24 100.35 -24 98.7 -24 97 C-21.953125 95.0078125 -21.953125 95.0078125 -19.25 93.125 C-13.61813072 88.90308951 -10.42794639 85.03492853 -9 78 C-8.44867142 71.67032377 -8.79213743 66.64141348 -12 61 C-14.73587346 57.91337353 -17.6306029 55.37105722 -21 53 C-20.38437582 47.87598145 -18.7976583 43.62709739 -16.796875 38.92578125 C-16.47720764 38.16130173 -16.15754028 37.3968222 -15.82818604 36.60917664 C-14.80809063 34.17439576 -13.77900368 31.74352723 -12.75 29.3125 C-12.073668 27.69879843 -11.39788172 26.08486802 -10.72265625 24.47070312 C-7.27616874 16.25421886 -3.76399922 8.07738121 0 0 Z " fill="#FDFDFD" transform="translate(291,217)"/>
<path d="M0 0 C7.26 0 14.52 0 22 0 C22 5.28 22 10.56 22 16 C24.0625 16.4125 26.125 16.825 28.25 17.25 C50.9802492 22.18937005 69.69067525 33.62860404 82.625 53.3125 C95 73.51369863 95 73.51369863 95 85 C82.13 84.505 82.13 84.505 69 84 C69.99 81.03 70.98 78.06 72 75 C67.47895877 75.09344448 62.95845887 75.1995163 58.43798828 75.31738281 C56.89965979 75.35570301 55.36124075 75.39055056 53.82275391 75.421875 C51.61327724 75.46746059 49.40442552 75.5254634 47.1953125 75.5859375 C46.50567413 75.59748871 45.81603577 75.60903992 45.10549927 75.62094116 C41.1079846 75.64951022 41.1079846 75.64951022 38 78 C37.63648438 77.22076172 37.63648438 77.22076172 37.265625 76.42578125 C33.55531597 68.70548439 30.24547976 65.17534269 23 60 C23 75.18 23 90.36 23 106 C24.98 106.495 24.98 106.495 27 107 C26.39983288 111.24265606 25.40522383 115.03361377 23.93359375 119.0546875 C23.3293457 120.71757812 23.3293457 120.71757812 22.71289062 122.4140625 C22.29201172 123.55617188 21.87113281 124.69828125 21.4375 125.875 C20.80038086 127.62296875 20.80038086 127.62296875 20.15039062 129.40625 C19.1048911 132.27256331 18.05462612 135.13703486 17 138 C11.77391528 131.83643824 9.24602956 123.37904804 6.3125 115.9375 C5.96484589 115.05682861 5.61719177 114.17615723 5.25900269 113.26879883 C-1.79791276 94.98022136 -2.78785313 78.36382467 -1 59 C-2.6174678 59.77657262 -4.23138154 60.56055076 -5.84375 61.34765625 C-6.74287109 61.78343994 -7.64199219 62.21922363 -8.56835938 62.66821289 C-14.05249167 65.67182149 -15.04810597 69.1443179 -17 75 C-24.59 75 -32.18 75 -40 75 C-39.04222656 77.26746094 -38.08445313 79.53492188 -37.09765625 81.87109375 C-33.11961072 91.29455073 -29.15408666 100.72325509 -25.19464111 110.15454102 C-24.39325048 112.06333535 -23.59161171 113.97202552 -22.78973389 115.88061523 C-20.40023577 121.56897124 -18.01680124 127.25980292 -15.64157104 132.95413208 C-14.8808435 134.7756116 -14.11825068 136.59631322 -13.35379028 138.41622925 C-12.28289084 140.96681719 -11.21874083 143.52011886 -10.15625 146.07421875 C-9.83514755 146.83502747 -9.5140451 147.59583618 -9.18321228 148.37969971 C-7.93168158 151.40522894 -7 153.691963 -7 157 C-28.52928451 153.08558464 -52.88949505 143.24430268 -66 125 C-74.39892495 110.15755392 -76.45743706 93.8753308 -72.4375 77.3125 C-65.94412332 55.90924447 -52.24710652 36.62620061 -32.49975586 25.72094727 C-22.14704452 20.31590019 -11.7907092 16.3275197 0 16 C0 10.72 0 5.44 0 0 Z " fill="#FDFCFD" transform="translate(236,99)"/>
</svg>
