<svg version="1.1" xmlns="http://www.w3.org/2000/svg" xmlns:xlink="http://www.w3.org/1999/xlink" x="0px" y="0px"
	 viewBox="0 0 8 8" style="enable-background:new 0 0 8 8;" xml:space="preserve">
<g>
	<polygon style="fill:#E5B839;" points="7,2 7,1 6,1 6,0 5,0 4,0 3,0 2,0 2,1 1,1 1,2 0,2 0,3 0,4 0,5 0,6 1,6 1,7 2,7 2,8 3,8 4,8 
		5,8 6,8 6,7 7,7 7,6 8,6 8,5 8,4 8,3 8,2 	"/>
	<g>
		<polygon style="fill:#CEA236;" points="7,2 7,3 7,4 7,5 7,6 8,6 8,5 8,4 8,3 8,2 		"/>
		<rect x="6" y="6" style="fill:#CEA236;" width="1" height="1"/>
		<polygon style="fill:#CEA236;" points="4,7 3,7 2,7 2,8 3,8 4,8 5,8 6,8 6,7 5,7 		"/>
	</g>
	<g>
		<polygon style="fill:#F2C041;" points="5,0 4,0 3,0 2,0 2,1 3,1 4,1 5,1 6,1 6,0 		"/>
		<polygon style="fill:#F2C041;" points="0,3 0,4 0,5 0,6 1,6 1,5 1,4 1,3 1,2 0,2 		"/>
		<rect x="1" y="1" style="fill:#F2C041;" width="1" height="1"/>
	</g>
</g>
<g>
	<rect x="2" y="5" style="fill:#CEA236;" width="1" height="1"/>
	<rect x="3" y="4" style="fill:#CEA236;" width="1" height="1"/>
	<polygon style="fill:#CEA236;" points="5,2 4,2 3,2 3,3 4,3 4,4 5,4 5,5 6,5 6,4 6,3 6,2 	"/>
</g>
</svg>
