<?xml version="1.0" encoding="UTF-8"?>
<!DOCTYPE svg PUBLIC "-//W3C//DTD SVG 1.1//EN" "http://www.w3.org/Graphics/SVG/1.1/DTD/svg11.dtd">
<svg xmlns="http://www.w3.org/2000/svg" version="1.1" width="300px" height="300px" style="shape-rendering:geometricPrecision; text-rendering:geometricPrecision; image-rendering:optimizeQuality; fill-rule:evenodd; clip-rule:evenodd" xmlns:xlink="http://www.w3.org/1999/xlink">
<g><path style="opacity:0.998" fill="#fefefe" d="M 139.5,1.5 C 204.254,0.513853 252.088,28.1805 283,84.5C 307.662,142.224 300.996,195.89 263,245.5C 227.922,284.426 184.089,301.592 131.5,297C 77.3735,288.871 38.2068,260.371 14,211.5C -9.0522,155.026 -2.0522,102.692 35,54.5C 62.5337,22.6493 97.367,4.98258 139.5,1.5 Z"/></g>
<g><path style="opacity:1" fill="#bababa" d="M 150.5,124.5 C 149.833,124.5 149.167,124.5 148.5,124.5C 125.618,122.785 111.452,110.785 106,88.5C 105.333,82.8333 105.333,77.1667 106,71.5C 106.376,68.9899 107.21,66.6565 108.5,64.5C 124.42,91.6285 146.42,98.1285 174.5,84C 181.286,78.6008 186.786,72.1008 191,64.5C 198.19,89.2741 190.69,108.107 168.5,121C 162.797,123.735 156.797,124.902 150.5,124.5 Z"/></g>
<g><path style="opacity:1" fill="#eebc51" d="M 148.5,124.5 C 149.167,124.5 149.833,124.5 150.5,124.5C 170.195,158.568 189.862,192.568 209.5,226.5C 169.67,227.499 129.67,227.832 89.5,227.5C 109.42,193.33 129.086,158.996 148.5,124.5 Z"/></g>
<g><path style="opacity:1" fill="#f3d39d" d="M 209.5,226.5 C 210.043,226.56 210.376,226.893 210.5,227.5C 190.167,227.833 169.833,228.167 149.5,228.5C 128.761,228.506 108.761,228.172 89.5,227.5C 129.67,227.832 169.67,227.499 209.5,226.5 Z"/></g>
</svg>
