<svg width="32" height="32" viewBox="0 0 32 32" fill="none" xmlns="http://www.w3.org/2000/svg">
<path d="M0 16C0 7.16344 7.16344 0 16 0V0C24.8366 0 32 7.16344 32 16V16C32 24.8366 24.8366 32 16 32V32C7.16344 32 0 24.8366 0 16V16Z" fill="white"/>
<g clip-path="url(#clip0_144_569630)">
<path d="M25 16C25 20.9706 20.9706 25 16 25C11.0294 25 7 20.9706 7 16C7 11.0294 11.0294 7 16 7C20.9706 7 25 11.0294 25 16Z" fill="#99999E"/>
<path fill-rule="evenodd" clip-rule="evenodd" d="M16.8893 13.596C16.716 13.0836 16.561 12.625 16 12.625C15.439 12.625 15.284 13.0836 15.1107 13.596C14.9922 13.9466 14.8652 14.3224 14.5938 14.5938C14.3224 14.8651 13.9466 14.9922 13.596 15.1107C13.0836 15.284 12.625 15.439 12.625 16C12.625 16.561 13.0836 16.716 13.596 16.8893C13.9466 17.0078 14.3224 17.1349 14.5938 17.4062C14.8652 17.6776 14.9922 18.0534 15.1107 18.404C15.284 18.9164 15.439 19.375 16 19.375C16.561 19.375 16.716 18.9164 16.8893 18.404C17.0078 18.0534 17.1349 17.6776 17.4062 17.4062C17.6776 17.1349 18.0534 17.0078 18.404 16.8893C18.9164 16.716 19.375 16.561 19.375 16C19.375 15.439 18.9164 15.284 18.404 15.1107C18.0534 14.9922 17.6777 14.8651 17.4063 14.5938C17.1349 14.3224 17.0078 13.9466 16.8893 13.596Z" fill="white"/>
<path fill-rule="evenodd" clip-rule="evenodd" d="M15.9999 7.00151C11.0245 7.00146 6.98989 11.0437 7.00004 16.0191C7.01018 20.9844 11.0347 25 15.9999 25C20.9651 24.9999 24.9895 20.9843 24.9997 16.0191C25.0098 11.0438 20.9753 7.00156 15.9999 7.00151ZM14.8749 9.81248C14.8749 9.81248 14.8749 11.5 13.1874 13.1875C11.4999 14.875 9.81244 14.875 9.81244 14.875C9.81244 14.875 9.81244 13.1875 11.4999 11.5C13.1874 9.81248 14.8749 9.81248 14.8749 9.81248ZM17.1249 9.81248C17.1249 9.81248 19.0119 9.81248 20.4999 11.5C22.1874 13.4137 22.1874 14.875 22.1874 14.875C22.1874 14.875 20.8374 14.875 18.8124 13.1875C17.1249 11.7812 17.1249 9.81248 17.1249 9.81248ZM15.9999 12.625C16.9448 12.625 16.7381 13.9256 17.4062 14.5937C18.0743 15.2618 19.3749 15.0551 19.3749 16C19.3749 16.9448 18.0743 16.7381 17.4062 17.4062C16.7381 18.0743 16.9448 19.375 15.9999 19.375C15.0551 19.375 15.2618 18.0743 14.5937 17.4062C13.9256 16.7381 12.6249 16.9448 12.6249 16C12.6249 15.0551 13.9256 15.2618 14.5937 14.5937C15.2618 13.9256 15.0551 12.625 15.9999 12.625ZM9.81244 17.125C9.81244 17.125 11.4999 17.125 13.1874 18.8125C14.8749 20.5 14.8749 22.1875 14.8749 22.1875C14.8749 22.1875 13.1874 22.1875 11.4999 20.5C9.81244 18.8125 9.81244 17.125 9.81244 17.125ZM22.1874 17.125C22.1874 17.125 22.1874 18.8125 20.4999 20.5C18.8124 22.1875 17.1249 22.1875 17.1249 22.1875C17.1249 22.1875 17.1249 20.5 18.8124 18.8125C20.4999 17.125 22.1874 17.125 22.1874 17.125Z" fill="black"/>
</g>
<path fill-rule="evenodd" clip-rule="evenodd" d="M11.855 3.38361C13.3455 2.89369 14.9385 2.66969 16.5164 2.73017C18.0946 2.79065 19.6582 3.13593 21.1132 3.74393C22.5686 4.35193 23.9154 5.22297 25.0678 6.29753C26.5919 7.71929 27.7753 9.49753 28.485 11.4867C29.1951 13.4761 29.4316 15.6764 29.1577 17.7711C28.8841 19.8659 28.1001 21.8553 26.9142 23.566C25.7282 25.2767 24.1401 26.7084 22.2748 27.7004C20.4095 28.6921 18.2665 29.2438 16.1542 29.2758C14.0418 29.3078 11.9599 28.8204 10.0953 27.895C8.23095 26.9695 6.58359 25.6063 5.33271 23.9036C4.08183 22.2009 3.22743 20.1587 2.88823 18.0748C2.54903 15.9907 2.72503 13.8646 3.37495 11.8812C3.86615 10.3817 4.62839 8.96409 5.60503 7.73561H4.12055V5.28185H9.93719V10.7135H7.48343V9.22937C6.68343 10.2355 6.05879 11.3967 5.65655 12.6255C5.12439 14.2511 4.98103 15.9951 5.25655 17.6969C5.59895 19.8137 6.58903 21.8649 8.06679 23.4457C9.83447 25.3363 12.2998 26.5542 14.8662 26.8207C17.4322 27.0873 20.0994 26.4028 22.2175 24.9286C24.3356 23.4543 25.9052 21.1903 26.5423 18.6899C27.1794 16.1894 26.8841 13.4524 25.7353 11.142C24.5865 8.83161 22.5839 6.94841 20.1894 5.95897C17.7948 4.96921 15.0079 4.87385 12.6041 5.66361L11.855 3.38361Z" fill="url(#paint0_linear_144_569630)"/>
<path d="M16 20.25C19.1726 20.25 21.75 22.8274 21.75 26C21.75 29.1726 19.1726 31.75 16 31.75C12.8274 31.75 10.25 29.1726 10.25 26C10.25 22.8274 12.8274 20.25 16 20.25Z" fill="white" stroke="#BDBDBF" stroke-width="0.5"/>
<path fill-rule="evenodd" clip-rule="evenodd" d="M13.194 29.75L14.2819 28.6621C15.3278 29.3372 16.6722 29.3372 17.7181 28.6621L18.806 29.75L19.75 28.806L18.6621 27.7181C19.3372 26.6722 19.3372 25.3278 18.6621 24.2819L19.75 23.194L18.806 22.25L17.7181 23.3379C16.6722 22.6628 15.3278 22.6628 14.2819 23.3379L13.194 22.25L12.25 23.194L13.3379 24.2819C12.6628 25.3278 12.6628 26.6722 13.3379 27.7181L12.25 28.806L13.194 29.75ZM16 24.0839C17.0572 24.0839 17.9161 24.9428 17.9161 26C17.9161 27.0572 17.0572 27.9161 16 27.9161C14.9428 27.9161 14.0839 27.0572 14.0839 26C14.0839 24.9428 14.9428 24.0839 16 24.0839Z" fill="black"/>
<circle cx="26" cy="26" r="5.75" fill="white" stroke="#99999E" stroke-width="0.5"/>
<path d="M25.1151 30.0446C25.1151 30.1912 25.0131 30.2401 24.8652 30.2401C23.0132 29.6473 21.7139 27.9635 21.7139 25.9833C21.7139 24.003 23.0132 22.3192 24.8652 21.7265C25.0136 21.679 25.1151 21.7753 25.1151 21.9253V22.2704C25.1151 22.3714 25.0626 22.4691 24.9638 22.5179C23.5131 23.0618 22.5132 24.4005 22.5132 25.9833C22.5132 27.5694 23.5626 28.9536 24.9638 29.4487C25.0626 29.4975 25.1151 29.5985 25.1151 29.6961V30.0446Z" fill="black"/>
<path d="M26.6151 28.8075C26.6151 28.9051 26.5131 29.0028 26.4145 29.0028H26.0132C25.9146 29.0028 25.8126 28.9051 25.8126 28.8075V28.2114C25.0131 28.1137 24.6152 27.6675 24.4639 27.0227C24.4639 26.9249 24.5132 26.8272 24.6152 26.8272H25.0626C25.1646 26.8272 25.2139 26.8761 25.2632 26.9737C25.3652 27.3223 25.5625 27.6186 26.2139 27.6186C26.7139 27.6186 27.0625 27.3712 27.0625 26.9737C27.0625 26.5797 26.8652 26.4299 26.1645 26.3321C25.1147 26.1858 24.6152 25.886 24.6152 25.0424C24.6152 24.4009 25.1151 23.9058 25.8126 23.8048V23.212C25.8126 23.1144 25.9146 23.0134 26.0132 23.0134H26.4145C26.5131 23.0134 26.6151 23.1144 26.6151 23.212V23.8048C27.2138 23.9058 27.6152 24.251 27.7139 24.795C27.7139 24.8959 27.6645 24.9936 27.5625 24.9936H27.1645C27.0625 24.9936 27.0132 24.9448 26.9639 24.847C26.8652 24.4985 26.6151 24.352 26.1645 24.352C25.6645 24.352 25.4145 24.5995 25.4145 24.9448C25.4145 25.2899 25.5625 25.4886 26.3125 25.5896C27.3659 25.7314 27.8652 26.0325 27.8652 26.8761C27.8652 27.5176 27.3651 28.0649 26.6151 28.2114V28.8075Z" fill="black"/>
<path d="M27.3126 30.0441C27.3126 30.1907 27.4146 30.2917 27.5626 30.2396C29.4145 29.6468 30.7139 27.963 30.7139 25.9828C30.7139 24.0025 29.3652 22.3187 27.5626 21.726C27.4146 21.726 27.3126 21.7748 27.3126 21.9248V22.2699C27.3126 22.3709 27.3652 22.4686 27.4639 22.5174C28.8652 23.0125 29.9146 24.4 29.9146 25.9828C29.9146 27.5689 28.9146 28.9042 27.4639 29.4482C27.3652 29.497 27.3126 29.598 27.3126 29.6956V30.0441Z" fill="black"/>
<defs>
<linearGradient id="paint0_linear_144_569630" x1="2.04365" y1="13.297" x2="15.2224" y2="29.5764" gradientUnits="userSpaceOnUse">
<stop stop-color="#004CFF"/>
<stop offset="0.252131" stop-color="#00E0FB"/>
<stop offset="0.505709" stop-color="#87FF70"/>
<stop offset="0.755054" stop-color="#F8F500"/>
<stop offset="1" stop-color="#FF1A00"/>
</linearGradient>
<clipPath id="clip0_144_569630">
<rect width="18" height="18" fill="white" transform="translate(7 7)"/>
</clipPath>
</defs>
</svg>
