<svg width="128" height="128" viewBox="0 0 128 128" fill="none" xmlns="http://www.w3.org/2000/svg">
<rect width="128" height="128" fill="#121314"/>
<path d="M45.2222 31.9915C43.3 31.9915 41.4444 32.7582 40.0889 34.1139L33.4444 40.759C32.0778 42.1258 31.3222 43.9704 31.3222 45.8928V83.4629C31.3222 85.3853 32.0889 87.241 33.4444 88.5967L40.0889 95.2418C41.4556 96.6086 43.3 97.3642 45.2222 97.3642H82.7889C84.7111 97.3642 86.5667 96.5975 87.9222 95.2418L94.5667 88.5967C95.9333 87.2299 96.6889 85.3853 96.6889 83.4629V45.8928C96.6889 43.9704 95.9222 42.1146 94.5667 40.759L87.9222 34.1139C86.5555 32.7471 84.7111 31.9915 82.7889 31.9915H45.2222ZM85.7889 84.063C85.7889 85.3964 84.7 86.4854 83.3667 86.4854H44.6222C43.2889 86.4854 42.2 85.3964 42.2 84.063V45.3149C42.2 43.9815 43.2889 42.8925 44.6222 42.8925H83.3667C84.7 42.8925 85.7889 43.9815 85.7889 45.3149V84.063Z" fill="#F5F5EF"/>
<path d="M22.1556 113.11H23.3667C24.7 113.11 25.7889 112.021 25.7889 110.688V104.632C25.7889 103.298 24.7 102.209 23.3667 102.209H17.3111C15.9778 102.209 14.8889 103.298 14.8889 104.632V105.843C14.8889 109.854 18.1444 113.11 22.1556 113.11Z" fill="#F5F5EF"/>
<path d="M85.7889 110.688C85.7889 112.021 84.7 113.11 83.3667 113.11H44.6222C43.2889 113.11 42.2 112.021 42.2 110.688V104.632C42.2 103.298 41.1111 102.209 39.7778 102.209H33.7222C32.3889 102.209 31.3 103.298 31.3 104.632V110.099C31.3 112.021 32.0667 113.877 33.4222 115.233L40.0667 121.878C41.4333 123.244 43.2778 124 45.2 124H82.7667C84.6889 124 86.5445 123.233 87.9 121.878L94.5445 115.233C95.9111 113.866 96.6667 112.021 96.6667 110.099V104.632C96.6667 103.298 95.5778 102.209 94.2445 102.209H88.1889C86.8556 102.209 85.7667 103.298 85.7667 104.632V110.688H85.7889Z" fill="#F5F5EF"/>
<path d="M104.633 113.11H105.844C109.856 113.11 113.111 109.854 113.111 105.843V104.632C113.111 103.298 112.022 102.209 110.689 102.209H104.633C103.3 102.209 102.211 103.298 102.211 104.632V110.688C102.211 112.021 103.3 113.11 104.633 113.11Z" fill="#F5F5EF"/>
<path d="M105.844 14.901H104.633C103.3 14.901 102.211 15.99 102.211 17.3235V23.3796C102.211 24.713 103.3 25.802 104.633 25.802H110.689C112.022 25.802 113.111 24.713 113.111 23.3796V22.1683C113.111 18.1569 109.856 14.901 105.844 14.901Z" fill="#F5F5EF"/>
<path d="M17.3222 25.7909H23.3778C24.7111 25.7909 25.8 24.7019 25.8 23.3685V17.3123C25.8 15.9789 24.7111 14.8899 23.3778 14.8899H22.1667C18.1556 14.8899 14.9 18.1458 14.9 22.1572V23.3685C14.9 24.7019 15.9889 25.7909 17.3222 25.7909Z" fill="#F5F5EF"/>
<path d="M45.2222 4C43.3 4 41.4444 4.76674 40.0889 6.12242L33.4444 12.7675C32.0778 14.1343 31.3222 15.9789 31.3222 17.9013V23.3685C31.3222 24.7019 32.4111 25.7909 33.7444 25.7909H39.8C41.1333 25.7909 42.2222 24.7019 42.2222 23.3685V17.3123C42.2222 15.9789 43.3111 14.8899 44.6444 14.8899H83.3889C84.7222 14.8899 85.8111 15.9789 85.8111 17.3123V23.3685C85.8111 24.7019 86.9 25.7909 88.2333 25.7909H94.2889C95.6222 25.7909 96.7111 24.7019 96.7111 23.3685V17.9013C96.7111 15.9789 95.9444 14.1232 94.5889 12.7675L87.9444 6.12242C86.5778 4.75563 84.7333 4 82.8111 4H45.2222Z" fill="#F5F5EF"/>
<path d="M6.12222 40.0811C4.75556 41.4479 4 43.2925 4 45.2149V82.7851C4 84.7075 4.76667 86.5632 6.12222 87.9189L12.7667 94.5639C14.1333 95.9307 15.9778 96.6864 17.9 96.6864H23.3667C24.7 96.6864 25.7889 95.5974 25.7889 94.2639V88.2078C25.7889 86.8743 24.7 85.7854 23.3667 85.7854H17.3111C15.9778 85.7854 14.8889 84.6964 14.8889 83.3629V44.6149C14.8889 43.2814 15.9778 42.1924 17.3111 42.1924H23.3667C24.7 42.1924 25.7889 41.1034 25.7889 39.77V33.7139C25.7889 32.3804 24.7 31.2914 23.3667 31.2914H17.9C15.9778 31.2914 14.1222 32.0582 12.7667 33.4138L6.12222 40.0589V40.0811Z" fill="#F5F5EF"/>
<path d="M110.1 31.3136H104.633C103.3 31.3136 102.211 32.4026 102.211 33.7361V39.7922C102.211 41.1257 103.3 42.2147 104.633 42.2147H110.689C112.022 42.2147 113.111 43.3036 113.111 44.6371V83.3851C113.111 84.7186 112.022 85.8076 110.689 85.8076H104.633C103.3 85.8076 102.211 86.8966 102.211 88.23V94.2861C102.211 95.6196 103.3 96.7086 104.633 96.7086H110.1C112.022 96.7086 113.878 95.9418 115.233 94.5862L121.878 87.9411C123.244 86.5743 124 84.7297 124 82.8073V45.2372C124 43.3148 123.233 41.459 121.878 40.1033L115.233 33.4583C113.867 32.0915 112.022 31.3359 110.1 31.3359V31.3136Z" fill="#F5F5EF"/>
</svg>
