<svg width="32" height="32" viewBox="0 0 32 32" fill="none" xmlns="http://www.w3.org/2000/svg">
<rect width="32" height="32" rx="16" fill="white"/>
<path d="M25 16C25 20.9706 20.9706 25 16 25C11.0294 25 7 20.9706 7 16C7 11.0294 11.0294 7 16 7C20.9706 7 25 11.0294 25 16Z" fill="white"/>
<path fill-rule="evenodd" clip-rule="evenodd" d="M13.1113 13.2415L12.2494 13.2441L12.0352 13.7094L11.8211 14.1746L11.816 14.1872L11.8108 14.1998L12.6438 14.1984L13.4768 14.197L14.1416 14.1908L14.8065 14.1847L15.0204 13.7219L15.2343 13.2591L15.235 13.2465L15.2356 13.2339L14.6045 13.2364L13.9733 13.2388L13.1113 13.2415ZM15.4337 13.2666L15.4287 13.2993L14.1701 16.03L12.9114 18.7607L12.9158 18.7649L12.9203 18.7692L13.2567 18.7573L13.593 18.7455L13.6803 18.7265L13.7676 18.7076L13.8444 18.6714L13.9211 18.6353L13.9893 18.5829L14.0574 18.5305L14.1078 18.471L14.1581 18.4115L14.2092 18.3104L14.2603 18.2093L15.1255 16.3293L15.9907 14.4494L16.0031 14.478L16.0155 14.5067L16.9023 16.4157L17.7892 18.3246L17.8249 18.3812L17.8606 18.4377L17.9229 18.5027L17.9852 18.5676L18.0479 18.6082L18.1106 18.6488L18.1661 18.673L18.2217 18.6972L18.3016 18.7167L18.3815 18.7361L18.7262 18.7481L19.071 18.7601L19.077 18.7544L19.083 18.7487L17.8122 16.014L16.5413 13.2792L16.5423 13.2566L16.5432 13.2339H15.9909H15.4386L15.4337 13.2666ZM16.7356 13.2374V13.2408L16.9551 13.7128L17.1746 14.1847L18.6632 14.1873L20.1518 14.1898L20.1589 14.1822L20.166 14.1746L19.9482 13.7046L19.7304 13.2345L18.233 13.2342L16.7356 13.2339V13.2374ZM19.98 13.2801L20.0029 13.3295L20.8836 15.2258L21.7644 17.1222L21.7722 17.1296L21.78 17.137L21.8583 16.9689L21.9366 16.8007L22.0257 16.6046L22.1149 16.4086L22.1606 16.2776L22.2062 16.1467L22.2184 16.0612L22.2306 15.9756L22.2235 15.9057L22.2164 15.8358L22.191 15.7429L22.1657 15.6501L22.1137 15.5261L22.0616 15.4021L21.9171 15.0902L21.7725 14.7783L21.5505 14.3006L21.3284 13.8228L21.2754 13.722L21.2223 13.6213L21.1709 13.5449L21.1195 13.4685L21.0582 13.4127L20.9968 13.357L20.9426 13.3308L20.8883 13.3046L20.8111 13.2848L20.7339 13.265L20.6335 13.2543L20.5332 13.2437L20.2452 13.2372L19.9572 13.2307L19.98 13.2801ZM11.549 13.2546L11.3852 13.2621L11.296 13.2739L11.2068 13.2857L11.1297 13.309L11.0526 13.3324L11 13.3645L10.9474 13.3966L10.8914 13.4543L10.8354 13.5119L10.7921 13.5817L10.7487 13.6515L10.7048 13.7349L10.661 13.8183L10.5968 13.9562L10.5326 14.0942L10.2185 14.7783L9.90439 15.4625L9.86111 15.5684L9.81782 15.6743L9.79343 15.7545L9.76904 15.8348L9.76977 15.9857L9.7705 16.1366L9.79882 16.2248L9.82714 16.313L9.86975 16.416L9.91237 16.5189L10.0619 16.839L10.2114 17.1591L10.2242 17.1358L10.237 17.1126L11.1254 15.1832L12.0138 13.2538V13.2489V13.244L11.8632 13.2455L11.7127 13.2471L11.549 13.2546ZM21.0936 16.2526L21.0764 16.2875L20.7293 17.0421L20.3821 17.7967L19.6194 17.7993L18.8567 17.8019L18.8637 17.8194L18.8708 17.837L19.078 18.2847L19.2853 18.7324L19.2952 18.745L19.3051 18.7576L19.6128 18.7576L19.9205 18.7575L20.2532 18.7475L20.586 18.7375L20.6547 18.727L20.7233 18.7166L20.7887 18.6962L20.8541 18.6759L20.9181 18.6365L20.982 18.5971L21.0314 18.5541L21.0807 18.5111L21.1409 18.4341L21.2011 18.357L21.2593 18.2479L21.3175 18.1388L21.4878 17.7703L21.6582 17.4018V17.3954V17.3891L21.3931 16.8182L21.128 16.2473L21.1194 16.2325L21.1107 16.2177L21.0936 16.2526ZM10.8598 16.2624L10.8439 16.2976L10.589 16.8503L10.3342 17.403V17.4142V17.4254L10.5198 17.8224L10.7054 18.2193L10.7432 18.2847L10.7811 18.3501L10.8334 18.4228L10.8858 18.4955L10.9612 18.5637L11.0367 18.6318L11.1127 18.6698L11.1888 18.7079L11.2712 18.7281L11.3536 18.7483L11.6599 18.7577L11.9662 18.7671L12.3311 18.7674L12.696 18.7677L12.9121 18.2987L13.1282 17.8298L13.1317 17.8209L13.1352 17.812L12.3722 17.8094L11.6092 17.8068L11.2518 17.0371L10.8945 16.2674L10.8851 16.2473L10.8757 16.2272L10.8598 16.2624Z" fill="black"/>
<path fill-rule="evenodd" clip-rule="evenodd" d="M11.8545 3.38381C13.345 2.89389 14.938 2.66989 16.5159 2.73037C18.0941 2.79085 19.6577 3.13613 21.1127 3.74413C22.5681 4.35213 23.9149 5.22317 25.0673 6.29773C26.5914 7.71949 27.7748 9.49773 28.4845 11.4868C29.1946 13.4763 29.4311 15.6766 29.1572 17.7713C28.8836 19.866 28.0996 21.8555 26.9137 23.5662C25.7277 25.2769 24.1396 26.7086 22.2743 27.7006C20.409 28.6923 18.266 29.244 16.1537 29.276C14.0413 29.308 11.9594 28.8206 10.0948 27.8952C8.23047 26.9697 6.58311 25.6065 5.33223 23.9038C4.08135 22.2011 3.22695 20.1588 2.88775 18.075C2.54855 15.9908 2.72455 13.8648 3.37447 11.8814C3.86567 10.3819 4.62791 8.96429 5.60455 7.73581H4.12007V5.28205H9.93671V10.7137H7.48295V9.22957C6.68295 10.2356 6.05831 11.3969 5.65607 12.6257C5.12391 14.2513 4.98055 15.9953 5.25607 17.6971C5.59847 19.8139 6.58855 21.8651 8.06631 23.4459C9.83399 25.3364 12.2993 26.5544 14.8657 26.8209C17.4317 27.0875 20.0989 26.403 22.217 24.9288C24.3351 23.4545 25.9047 21.1905 26.5418 18.69C27.1789 16.1896 26.8836 13.4526 25.7348 11.1422C24.586 8.83181 22.5834 6.94861 20.1889 5.95917C17.7943 4.96941 15.0074 4.87405 12.6036 5.66381L11.8545 3.38381Z" fill="url(#paint0_linear_327_466938)"/>
<defs>
<linearGradient id="paint0_linear_327_466938" x1="2.04317" y1="13.2972" x2="15.2219" y2="29.5766" gradientUnits="userSpaceOnUse">
<stop stop-color="#FF1100"/>
<stop offset="0.34375" stop-color="#FDBF41"/>
<stop offset="0.692708" stop-color="#F1ECE2"/>
<stop offset="1" stop-color="#007FFF"/>
</linearGradient>
</defs>
</svg>
