<svg width="32" height="32" viewBox="0 0 32 32" fill="none" xmlns="http://www.w3.org/2000/svg">
<path d="M0 16C0 7.16344 7.16344 0 16 0C24.8366 0 32 7.16344 32 16C32 24.8366 24.8366 32 16 32C7.16344 32 0 24.8366 0 16Z" fill="white"/>
<g clip-path="url(#clip0_10_179071)">
<path d="M14.8309 7.31357C15.5544 6.89548 16.4457 6.89548 17.1691 7.31357L22.9309 10.6433C23.6543 11.0614 24.1 11.8341 24.1 12.6703V19.3297C24.1 20.1659 23.6543 20.9386 22.9309 21.3567L17.1691 24.6864C16.4457 25.1045 15.5544 25.1045 14.8309 24.6864L9.06916 21.3567C8.3457 20.9386 7.90002 20.1659 7.90002 19.3297V12.6703C7.90002 11.8341 8.3457 11.0614 9.06916 10.6433L14.8309 7.31357Z" fill="black"/>
<path opacity="0.6" d="M15.9982 17.8792L18.9565 16.091L15.9982 14.718L13.0435 16.091L15.9982 17.8792Z" fill="white"/>
<path opacity="0.8" fill-rule="evenodd" clip-rule="evenodd" d="M18.9566 16.0911L15.9983 17.8792V14.718V11.0725L18.9566 16.0911ZM15.9983 18.451L18.9566 16.6665L15.9983 20.9275V18.451Z" fill="white"/>
<path opacity="0.45" fill-rule="evenodd" clip-rule="evenodd" d="M15.9982 11.0725V14.718V17.8792L13.0435 16.0911L15.9982 11.0725ZM13.0435 16.6665L15.9982 18.451V20.9275L13.0435 16.6665Z" fill="white"/>
</g>
<path fill-rule="evenodd" clip-rule="evenodd" d="M11.8547 3.38361C13.3453 2.89369 14.9382 2.66969 16.5161 2.73017C18.0944 2.79065 19.6579 3.13593 21.1129 3.74393C22.5683 4.35193 23.9152 5.22297 25.0675 6.29753C26.5917 7.71929 27.775 9.49753 28.4848 11.4867C29.1949 13.4761 29.4314 15.6764 29.1574 17.7711C28.8838 19.8659 28.0998 21.8553 26.9139 23.566C25.728 25.2767 24.1398 26.7084 22.2745 27.7004C20.4093 28.6921 18.2662 29.2438 16.1539 29.2758C14.0416 29.3078 11.9597 28.8204 10.095 27.895C8.23071 26.9695 6.58335 25.6063 5.33247 23.9036C4.08159 22.2009 3.22719 20.1587 2.88799 18.0748C2.54879 15.9907 2.72479 13.8646 3.37471 11.8812C3.86591 10.3817 4.62815 8.96409 5.60479 7.73561H4.12031V5.28185H9.93695V10.7135H7.48319V9.22937C6.68319 10.2355 6.05855 11.3967 5.65631 12.6255C5.12415 14.2511 4.98079 15.9951 5.25631 17.6969C5.59871 19.8137 6.58879 21.8649 8.06655 23.4457C9.83423 25.3363 12.2995 26.5542 14.8659 26.8207C17.432 27.0873 20.0992 26.4028 22.2173 24.9286C24.3354 23.4543 25.905 21.1903 26.5421 18.6899C27.1792 16.1894 26.8838 13.4524 25.735 11.142C24.5862 8.83161 22.5837 6.94841 20.1891 5.95897C17.7945 4.96921 15.0077 4.87385 12.6038 5.66361L11.8547 3.38361Z" fill="url(#paint0_linear_10_179071)"/>
<defs>
<linearGradient id="paint0_linear_10_179071" x1="2.04341" y1="13.297" x2="15.2222" y2="29.5764" gradientUnits="userSpaceOnUse">
<stop stop-color="#004CFF"/>
<stop offset="0.252131" stop-color="#00E0FB"/>
<stop offset="0.505709" stop-color="#87FF70"/>
<stop offset="0.755054" stop-color="#F8F500"/>
<stop offset="1" stop-color="#FF1A00"/>
</linearGradient>
<clipPath id="clip0_10_179071">
<rect width="18" height="18" fill="white" transform="translate(7 7)"/>
</clipPath>
</defs>
</svg>
