<svg id="svg" version="1.1" xmlns="http://www.w3.org/2000/svg" style="display: block;" viewBox="0 0 256 256"><path d="M0 0 C84.48 0 168.96 0 256 0 C256 84.48 256 168.96 256 256 C171.52 256 87.04 256 0 256 C0 171.52 0 87.04 0 0 Z " transform="translate(0,0)" style="fill: #010101;"/><path d="M0 0 C84.48 0 168.96 0 256 0 C256 84.48 256 168.96 256 256 C171.52 256 87.04 256 0 256 C0 171.52 0 87.04 0 0 Z M39 55 C17.67193407 81.24529569 10.97634608 112.81262585 14.30029297 145.99804688 C15.07457899 151.14680234 16.37597576 156.05948181 18 161 C18.20898926 161.66805664 18.41797852 162.33611328 18.63330078 163.02441406 C23.49025392 178.26833442 31.15308967 192.19951513 42 204 C42.4635791 204.51127441 42.9271582 205.02254883 43.40478516 205.54931641 C62.00803406 225.85984479 88.36321179 240.84500845 116.30688477 242.1550293 C133.08909175 242.6819517 148.98224592 242.68824826 165 237 C166.10472656 236.61585938 167.20945313 236.23171875 168.34765625 235.8359375 C171.31434032 234.68678715 174.14183373 233.39638541 177 232 C178.15371094 231.45988281 179.30742187 230.91976562 180.49609375 230.36328125 C206.03567572 217.93090685 223.40936847 196.42656866 235 171 C235.38929688 170.14664063 235.77859375 169.29328125 236.1796875 168.4140625 C247.4554371 140.70543751 244.9283812 109.22970423 234 82 C221.63840599 53.6598547 197.85059973 31.79563068 169.4375 20.25 C122.42302373 2.25506441 71.57507517 17.57721393 39 55 Z " transform="translate(0,0)" style="fill: #010101;"/><path d="M0 0 C9.69375 -0.0825 19.3875 -0.165 29.375 -0.25 C32.41638184 -0.28641602 35.45776367 -0.32283203 38.59130859 -0.36035156 C41.02701107 -0.3720442 43.46272141 -0.38223466 45.8984375 -0.390625 C47.76495972 -0.4213208 47.76495972 -0.4213208 49.66918945 -0.45263672 C58.53734363 -0.45615932 65.12353317 1.11845142 72.75 5.625 C78.36783497 11.55493691 81.38427115 16.81539675 81.625 25.125 C81.27101809 32.70679853 79.49817019 37.25810589 74.4375 42.8125 C73.633125 43.534375 72.82875 44.25625 72 45 C70.99526074 45.99523818 69.9942198 46.99425302 69 48 C70.175625 48.495 71.35125 48.99 72.5625 49.5 C78.1946527 52.31107444 82.29596562 56.68311702 85.16796875 62.2734375 C87.44894403 69.74818278 87.26171347 79.42406984 84 86.5625 C79.38669187 94.27294476 72.56197508 99.39845873 64 102 C59.03927792 102.53159662 54.10271002 102.46895266 49.12109375 102.390625 C47.87203247 102.38659668 46.62297119 102.38256836 45.33605957 102.37841797 C40.70305537 102.35760622 36.07026179 102.30176142 31.4375 102.25 C21.063125 102.1675 10.68875 102.085 0 102 C0 68.34 0 34.68 0 0 Z " transform="translate(87,63)" style="fill: #FAFAFA;"/><path d="M0 0 C22.069143 19.39381741 38.26281247 46.23500863 40.55419922 76.00830078 C42.61368863 108.71118216 34.01004237 139.38178736 12.20458984 164.26342773 C-5.26836986 183.61027491 -27.08125723 195.30996508 -52.3125 201.125 C-53.4722937 201.39896606 -53.4722937 201.39896606 -54.65551758 201.6784668 C-83.94803526 206.60137545 -115.27794937 199.67458503 -139.6484375 182.8828125 C-160.73279554 167.65856781 -175.36829251 147.38149552 -183.6875 122.8125 C-183.92621826 122.10843018 -184.16493652 121.40436035 -184.41088867 120.67895508 C-187.92515413 109.72181856 -188.71909966 98.94626492 -188.6875 87.5 C-188.68728851 86.79289886 -188.68707703 86.08579773 -188.68685913 85.35726929 C-188.65438316 74.47689668 -187.86870555 64.46714531 -184.3125 54.125 C-183.95027344 53.01253906 -183.58804688 51.90007812 -183.21484375 50.75390625 C-172.73236083 21.15421718 -150.9633648 -2.63782236 -122.8125 -16.25 C-82.28048812 -35.15676662 -34.20558831 -28.99918066 0 0 Z M-102.3125 -14.875 C-103.27929688 -14.60816406 -104.24609375 -14.34132813 -105.2421875 -14.06640625 C-118.97386129 -9.96875824 -131.33765296 -3.02835918 -142.3125 6.125 C-143.24707031 6.89585938 -144.18164062 7.66671875 -145.14453125 8.4609375 C-164.62736014 25.30064135 -177.40924914 49.51417989 -180.3125 75.125 C-181.88788711 106.78539592 -174.79409713 135.76754122 -153.31738281 159.88989258 C-134.88675744 179.85285016 -109.34528867 193.33573769 -81.94921875 194.47265625 C-50.55305149 195.16887779 -23.67671237 186.421011 -0.3125 165.125 C0.34105469 164.55394531 0.99460938 163.98289063 1.66796875 163.39453125 C19.64705211 146.78202905 30.71891292 121.22349854 31.82910156 97.04052734 C32.94606008 64.02454751 24.76505767 38.38125759 2.34765625 13.53125 C-11.85238806 -1.38224872 -30.47174201 -10.91240498 -50.3125 -15.875 C-51.04404297 -16.06118896 -51.77558594 -16.24737793 -52.52929688 -16.43920898 C-59.70094722 -18.07967294 -66.72741466 -18.22109279 -74.0625 -18.1875 C-75.92648438 -18.18121582 -75.92648438 -18.18121582 -77.828125 -18.17480469 C-86.40115628 -18.06899259 -94.09739185 -17.4604087 -102.3125 -14.875 Z " transform="translate(202.3125,39.875)" style="fill: #F5F5F5;"/><path d="M0 0 C28.38 0 56.76 0 86 0 C86 5.61 86 11.22 86 17 C57.62 17 29.24 17 0 17 C0 11.39 0 5.78 0 0 Z " transform="translate(88,177)" style="fill: #EC1A23;"/><path d="M0 0 C4.69720516 -0.11537895 9.38941583 -0.21471667 14.08691406 -0.2746582 C15.68148536 -0.29966413 17.27594365 -0.33368099 18.87011719 -0.37719727 C34.81319327 -0.80121525 34.81319327 -0.80121525 40.66992188 3.52661133 C43.83410953 7.03172743 44.39018409 10.26772787 44.25 14.97265625 C43.85561554 18.17086771 42.79124293 20.3440191 41 23 C38.4375 24.8125 38.4375 24.8125 36 26 C35.01 26.495 35.01 26.495 34 27 C31.44637396 27.08658569 28.9204558 27.11562516 26.3671875 27.09765625 C25.23943405 27.09553383 25.23943405 27.09553383 24.08889771 27.09336853 C21.6842249 27.08776465 19.27964473 27.07521157 16.875 27.0625 C15.24609509 27.0574855 13.61718873 27.0529225 11.98828125 27.04882812 C7.99212298 27.03864424 3.99616535 27.01906972 0 27 C0 18.09 0 9.18 0 0 Z " transform="translate(108,121)" style="fill: #040303;"/><path d="M0 0 C4.30562412 -0.06911525 8.60930087 -0.12876967 12.91503906 -0.16479492 C14.37767075 -0.17982196 15.84025782 -0.20024955 17.30273438 -0.22631836 C19.4128728 -0.26297267 21.52241226 -0.27978676 23.6328125 -0.29296875 C24.90012207 -0.3086792 26.16743164 -0.32438965 27.47314453 -0.34057617 C32.08739913 0.10500635 35.37900317 1.59513608 38.875 4.625 C40.65052846 8.37333785 40.65320181 11.9356332 40 16 C37.63686021 20.11361371 35.4504628 21.60094062 31 23 C27.58666992 23.22705078 27.58666992 23.22705078 23.73046875 23.1953125 C23.04946609 23.1924826 22.36846344 23.18965271 21.66682434 23.18673706 C19.50686545 23.17560525 17.34733206 23.15051457 15.1875 23.125 C13.71680289 23.11496111 12.24609924 23.10583685 10.77539062 23.09765625 C7.18330075 23.0773963 3.59212268 23.03823667 0 23 C0 15.41 0 7.82 0 0 Z " transform="translate(108,80)" style="fill: #020202;"/></svg>