<?xml version="1.0" encoding="UTF-8" standalone="no"?>
<!-- Created with Inkscape (http://www.inkscape.org/) -->

<svg
   version="1.1"
   id="svg1"
   width="128"
   height="128"
   viewBox="0 0 128 128"
   sodipodi:docname="logo-128.png"
   xmlns:inkscape="http://www.inkscape.org/namespaces/inkscape"
   xmlns:sodipodi="http://sodipodi.sourceforge.net/DTD/sodipodi-0.dtd"
   xmlns:xlink="http://www.w3.org/1999/xlink"
   xmlns="http://www.w3.org/2000/svg"
   xmlns:svg="http://www.w3.org/2000/svg">
  <defs
     id="defs1" />
  <sodipodi:namedview
     id="namedview1"
     pagecolor="#ffffff"
     bordercolor="#000000"
     borderopacity="0.25"
     inkscape:showpageshadow="2"
     inkscape:pageopacity="0.0"
     inkscape:pagecheckerboard="0"
     inkscape:deskcolor="#d1d1d1" />
  <g
     inkscape:groupmode="layer"
     inkscape:label="Image"
     id="g1">
    
    <g
       id="g2">
      <path
         style="fill:#f8f8f6"
         d="M 0,64 V 0 h 64 64 v 64 64 H 64 0 Z"
         id="path9" />
      <path
         style="fill:#fbb541"
         d="M 50,126.44497 C 46.425,125.67715 39.675,123.1679 35,120.86885 L 26.5,116.68878 18.905612,109.09439 11.311225,101.5 7.1586793,93 3.0061338,84.5 1.5030669,77.184624 C -5.5323083,42.943689 14.696359,10.645515 48.609481,1.9719995 L 56.319925,0 63.409963,0.01736362 C 73.627705,0.04238705 83.280301,2.3650869 93,7.1376008 l 8.5,4.1736242 7.54402,7.594387 7.54401,7.594388 3.73399,7.199518 c 2.05369,3.959736 4.62138,10.669219 5.70598,14.909963 l 1.972,7.710444 -0.0174,7.090038 c -0.01,3.89952 -0.6729,10.240037 -1.47411,14.090037 l -1.45675,7 -4.08637,8.120859 c -2.24751,4.466472 -5.43263,9.410641 -7.07803,10.987041 l -2.99165,2.86618 0.69183,-6.98704 0.69184,-6.98704 2.36863,-4.733199 c 7.46522,-14.917616 7.15456,-33.311546 -0.83999,-49.735531 L 110.65931,31.562541 103.57966,24.519116 96.5,17.47569 89.965476,14.281261 C 72.772147,5.8762318 55.205343,5.8330182 38.108997,14.153697 l -6.391002,3.110458 -6.726851,6.617923 -6.726851,6.617922 -3.64809,7.256697 c -2.00645,3.991183 -4.363818,10.291183 -5.238596,14 L 7.7871022,58.5 8.3156617,67 l 0.5285594,8.5 2.4064309,6.61957 c 6.289691,17.30158 17.305749,28.31999 34.629778,34.63716 l 6.61957,2.41382 9,0.49156 9,0.49157 7,-1.82684 7,-1.82684 6.25,0.33882 c 3.4375,0.18635 6.25,0.7725 6.25,1.30254 0,1.62885 -12.092059,6.71043 -19.815376,8.32723 C 68.316915,128.32497 58.714508,128.31662 50,126.44497 Z m -0.729838,-16.53122 c -3.426411,-1.08565 -9.051411,-3.89654 -12.5,-6.24641 L 30.5,99.394845 25.849621,93.27165 C 23.291912,89.903892 20.186252,84.527552 18.948154,81.324227 L 16.697066,75.5 l -0.465059,-9.187038 -0.465058,-9.187037 2.133262,-7.023299 2.133261,-7.0233 4.285841,-6.289663 L 28.605155,30.5 34.72835,25.849621 c 3.367758,-2.557709 8.744098,-5.663369 11.947423,-6.901467 L 52.5,16.697066 l 9.187038,-0.465059 9.187037,-0.465058 7.023299,2.133262 7.0233,2.133261 6.289663,4.285841 6.289663,4.285842 4.65038,6.123195 c 2.55771,3.367758 5.66079,8.744098 6.89574,11.947423 l 2.24536,5.824227 0.4805,8.831951 0.48049,8.831952 -1.75963,6.500623 c -2.10984,7.794369 -2.80932,8.174341 -8.99417,4.885821 L 96.702121,79 H 92.41616 C 82.637,79 75.404791,85.211586 73.606046,95.155596 l -0.661252,3.655596 1.51305,4.344408 c 0.832177,2.38942 1.519598,5.07942 1.527603,5.97777 L 76,110.76674 l -2.25,0.60297 c -1.2375,0.33164 -5.85,0.58385 -10.25,0.56047 l -8,-0.0425 z M 59.697451,81.081918 C 65.754205,75.68362 74.160475,70.843391 82.261679,68.089707 L 87.5,66.309147 V 64 61.690853 l -5.238321,-1.78056 C 74.108899,57.139078 65.742799,52.306214 59.561877,46.797247 56.45243,44.025842 53.591461,42.081686 53.204169,42.4769 c -0.387293,0.395214 2.365128,3.492792 6.116492,6.883508 3.751363,3.390715 6.512899,6.472699 6.136746,6.848852 -0.899185,0.899185 -7.741838,-1.843175 -13.757486,-5.513648 -2.640043,-1.610833 -5.066291,-2.662575 -5.391662,-2.337204 -1.071612,1.071611 4.060391,4.49827 12.441741,8.307399 L 67,60.415241 V 61.70762 63 H 53.5 40 v 1 1 H 53.5 67 v 1.29238 1.292379 l -8.25,3.73694 c -8.933451,4.046517 -13.627226,7.134408 -12.523082,8.238553 0.383371,0.38337 2.870859,-0.697901 5.527752,-2.402824 5.64975,-3.625435 12.97044,-6.411226 13.708717,-5.21667 0.283401,0.458554 -2.404924,3.397526 -5.974056,6.53105 C 53.717665,83.539049 51.789102,86 53.589743,86 c 0.324358,0 3.072827,-2.213137 6.107708,-4.918082 z M 86.472927,110.9562 c -0.354809,-0.5741 -0.118181,-1.67872 0.52584,-2.45471 2.083704,-2.51071 16.890863,-10.669393 18.723353,-10.316488 L 107.5,98.52739 v 1.86457 1.86457 l -8.5,4.86665 c -8.561256,4.90172 -11.340929,5.75224 -12.527073,3.83302 z m -6.775161,-4.59177 C 77.357075,104.02374 88.485089,95.031731 93.75,95.0095 L 96,95 v 1.951059 1.951059 l -6.25,3.489432 c -7.648074,4.26999 -9.158264,4.86685 -10.052234,3.97288 z M 78,95.124296 v -1.875705 l 9.038587,-5.216477 9.038587,-5.216477 1.53532,0.589157 1.535319,0.589158 -0.329896,1.713014 -0.329897,1.713015 -7.99401,4.754101 C 86.097305,94.788838 81.4875,96.944342 80.25,96.964092 L 78,97 Z"
         id="path8" />
      <path
         style="fill:#40e7bf"
         d="m 57.004015,127.25826 c -1.922792,-0.23192 -3.947792,-0.78294 -4.5,-1.22449 C 51.951807,125.59222 49.925,124.91398 48,124.52658 c -1.925,-0.3874 -7.223175,-2.48239 -11.773723,-4.65553 l -8.273723,-3.95117 -6.828185,-6.44137 c -3.755502,-3.54275 -7.191973,-6.11222 -7.636602,-5.70994 -0.44463,0.40229 -0.514793,0.2176 -0.155919,-0.41041 0.358874,-0.62802 -0.900962,-3.721623 -2.799635,-6.874682 C 8.6335403,93.330419 6.1296193,87.769249 4.9679443,84.125322 3.8062693,80.481395 2.3386572,76.443491 1.7065841,75.152201 L 0.55736021,72.804403 0.5286801,62.865763 0.5,52.927122 1.5927519,52.213561 c 0.6010135,-0.392459 1.3885061,-2.232274 1.7499835,-4.088479 0.3614774,-1.856204 1.8436927,-6.018704 3.2938117,-9.25 L 9.2731272,33 h 1.3948208 c 2.444096,0 2.614915,2.870893 0.491567,8.261594 -3.3694028,8.554155 -4.3040238,13.499858 -4.2728556,22.61053 L 6.916176,72.5 8.4864812,78.407799 c 0.8636679,3.249289 3.2223118,9.051573 5.2414308,12.893963 l 3.671125,6.986164 6.156519,6.156514 6.156518,6.15652 6.893963,3.57815 C 46.604853,119.36876 63,123.49169 63,120.81646 c 0,-0.44905 1.9125,-0.8424 4.25,-0.87411 2.3375,-0.0317 7.175,-0.8192 10.75,-1.75 l 6.5,-1.69235 6.25,0.33882 c 3.4375,0.18635 6.25,0.7725 6.25,1.30254 0,1.62885 -12.092059,6.71043 -19.815376,8.32723 -7.026423,1.47092 -12.693828,1.69269 -20.180609,0.78967 z M 56,119.5 c 0,-0.275 0.225,-0.5 0.5,-0.5 0.275,0 0.5,0.225 0.5,0.5 0,0.275 -0.225,0.5 -0.5,0.5 -0.275,0 -0.5,-0.225 -0.5,-0.5 z m -9,-2 c 0,-0.275 0.225,-0.5 0.5,-0.5 0.275,0 0.5,0.225 0.5,0.5 0,0.275 -0.225,0.5 -0.5,0.5 -0.275,0 -0.5,-0.225 -0.5,-0.5 z m -3,-1 c 0,-0.275 0.225,-0.5 0.5,-0.5 0.275,0 0.5,0.225 0.5,0.5 0,0.275 -0.225,0.5 -0.5,0.5 -0.275,0 -0.5,-0.225 -0.5,-0.5 z m 5.270162,-6.58625 c -3.426411,-1.08565 -9.051411,-3.89654 -12.5,-6.24641 L 30.5,99.394845 25.849621,93.27165 C 23.291912,89.903892 20.186252,84.527552 18.948154,81.324227 L 16.697066,75.5 l -0.465059,-9.187038 -0.465058,-9.187037 2.133262,-7.023299 2.133261,-7.0233 4.285841,-6.289663 L 28.605155,30.5 34.72835,25.849621 c 3.367758,-2.557709 8.744098,-5.663369 11.947423,-6.901467 L 52.5,16.697066 l 9.187038,-0.465059 9.187037,-0.465058 7.023299,2.133262 7.0233,2.133261 6.289663,4.285841 6.289663,4.285842 4.65038,6.123195 c 2.55771,3.367758 5.66079,8.744098 6.89574,11.947423 l 2.24536,5.824227 0.4805,8.831951 0.48049,8.831952 -1.75963,6.500623 c -2.10984,7.794369 -2.80932,8.174341 -8.99417,4.885821 L 96.702121,79 H 92.41616 C 82.637,79 75.404791,85.211586 73.606046,95.155596 l -0.661252,3.655596 1.51305,4.344408 c 0.832177,2.38942 1.519598,5.07942 1.527603,5.97777 L 76,110.76674 l -2.25,0.60297 c -1.2375,0.33164 -5.85,0.58385 -10.25,0.56047 l -8,-0.0425 z M 59.697451,81.081918 C 65.754205,75.68362 74.160475,70.843391 82.261679,68.089707 L 87.5,66.309147 V 64 61.690853 l -5.238321,-1.78056 C 74.108899,57.139078 65.742799,52.306214 59.561877,46.797247 56.45243,44.025842 53.591461,42.081686 53.204169,42.4769 c -0.387293,0.395214 2.365128,3.492792 6.116492,6.883508 3.751363,3.390715 6.512899,6.472699 6.136746,6.848852 -0.899185,0.899185 -7.741838,-1.843175 -13.757486,-5.513648 -2.640043,-1.610833 -5.066291,-2.662575 -5.391662,-2.337204 -1.071612,1.071611 4.060391,4.49827 12.441741,8.307399 L 67,60.415241 V 61.70762 63 H 53.5 40 v 1 1 H 53.5 67 v 1.29238 1.292379 l -8.25,3.73694 c -8.933451,4.046517 -13.627226,7.134408 -12.523082,8.238553 0.383371,0.38337 2.870859,-0.697901 5.527752,-2.402824 5.64975,-3.625435 12.97044,-6.411226 13.708717,-5.21667 0.283401,0.458554 -2.404924,3.397526 -5.974056,6.53105 C 53.717665,83.539049 51.789102,86 53.589743,86 c 0.324358,0 3.072827,-2.213137 6.107708,-4.918082 z m 28.547395,28.683542 c 0.226332,-0.679 2.851332,-2.7136 5.833334,-4.52135 2.982001,-1.80774 5.341463,-3.63077 5.243249,-4.05117 -0.09821,-0.4204 0.576785,-0.79575 1.500001,-0.8341 0.92321,-0.0384 2.46607,-0.40793 3.42857,-0.821277 L 106,98.786022 v 1.499998 c 0,0.825 -0.70352,1.76997 -1.56338,2.09993 l -1.56338,0.59992 0.71789,1.16158 0.71789,1.16157 -1.14595,-0.70824 -1.14595,-0.70823 -6.354661,3.55372 c -6.881841,3.84855 -8.049044,4.21348 -7.417613,2.31919 z M 111.61021,99.48704 112.32469,92.5 l 2.80517,-5.935009 c 1.54284,-3.264255 3.32513,-8.439255 3.96064,-11.5 L 120.24599,69.5 l -0.50731,-9 -0.5073,-9 -2.47547,-6.5 c -1.36151,-3.575 -2.77578,-7.193848 -3.14282,-8.041885 l -0.66735,-1.541885 3.00384,-2.220833 3.00384,-2.220833 2.58872,5.108604 c 1.4238,2.809733 3.45928,8.512439 4.5233,12.672681 L 128,56.319925 l -0.0174,7.090038 c -0.01,3.89952 -0.6729,10.240037 -1.47411,14.090037 l -1.45675,7 -4.08637,8.120859 c -2.24751,4.466472 -5.43263,9.410641 -7.07803,10.987041 l -2.99165,2.86618 z M 78,95.124296 v -1.875705 l 9.038587,-5.216477 9.038587,-5.216477 1.53532,0.589157 1.535319,0.589158 -0.329896,1.713014 -0.329897,1.713015 -7.99401,4.754101 C 86.097305,94.788838 81.4875,96.944342 80.25,96.964092 L 78,97 Z M 2,45.5 C 2,45.225 2.225,45 2.5,45 2.775,45 3,45.225 3,45.5 3,45.775 2.775,46 2.5,46 2.225,46 2,45.775 2,45.5 Z m 11,-6 C 13,39.225 13.225,39 13.5,39 13.775,39 14,39.225 14,39.5 14,39.775 13.775,40 13.5,40 13.225,40 13,39.775 13,39.5 Z"
         id="path7" />
      <path
         style="fill:#a59e9e"
         d="m 57.004015,127.25826 c -1.922792,-0.23192 -3.947792,-0.78294 -4.5,-1.22449 C 51.951807,125.59222 49.925,124.91398 48,124.52658 c -1.925,-0.3874 -7.223175,-2.48239 -11.773723,-4.65553 l -8.273723,-3.95117 -6.828185,-6.44137 c -3.755502,-3.54275 -7.191973,-6.11222 -7.636602,-5.70994 -0.44463,0.40229 -0.514793,0.2176 -0.155919,-0.41041 0.358874,-0.62802 -0.900962,-3.721623 -2.799635,-6.874682 C 8.6335403,93.330419 6.1296193,87.769249 4.9679443,84.125322 3.8062693,80.481395 2.3386572,76.443491 1.7065841,75.152201 L 0.55736021,72.804403 0.5286801,62.865763 0.5,52.927122 1.5927519,52.213561 c 0.6010135,-0.392459 1.3885061,-2.232274 1.7499835,-4.088479 0.3614774,-1.856204 1.8436927,-6.018704 3.2938117,-9.25 L 9.2731272,33 h 1.3948208 c 2.444096,0 2.614915,2.870893 0.491567,8.261594 -3.3694028,8.554155 -4.3040238,13.499858 -4.2728556,22.61053 L 6.916176,72.5 8.4864812,78.407799 c 0.8636679,3.249289 3.2223118,9.051573 5.2414308,12.893963 l 3.671125,6.986164 6.156519,6.156514 6.156518,6.15652 6.893963,3.57815 C 46.604853,119.36876 63,123.49169 63,120.81646 63,120.36741 63.45,120 64,120 c 1.103813,0 1.344925,3.93757 0.393011,6.41821 -0.333844,0.86999 -1.346344,1.50977 -2.25,1.42175 -0.903656,-0.088 -3.216204,-0.34978 -5.138996,-0.5817 z M 56,119.5 c 0,-0.275 0.225,-0.5 0.5,-0.5 0.275,0 0.5,0.225 0.5,0.5 0,0.275 -0.225,0.5 -0.5,0.5 -0.275,0 -0.5,-0.225 -0.5,-0.5 z m -9,-2 c 0,-0.275 0.225,-0.5 0.5,-0.5 0.275,0 0.5,0.225 0.5,0.5 0,0.275 -0.225,0.5 -0.5,0.5 -0.275,0 -0.5,-0.225 -0.5,-0.5 z m -3,-1 c 0,-0.275 0.225,-0.5 0.5,-0.5 0.275,0 0.5,0.225 0.5,0.5 0,0.275 -0.225,0.5 -0.5,0.5 -0.275,0 -0.5,-0.225 -0.5,-0.5 z m 5.270162,-6.58625 c -3.426411,-1.08565 -9.051411,-3.89654 -12.5,-6.24641 L 30.5,99.394845 25.849621,93.27165 C 23.291912,89.903892 20.186252,84.527552 18.948154,81.324227 L 16.697066,75.5 l -0.465059,-9.187038 -0.465058,-9.187037 2.133262,-7.023299 2.133261,-7.0233 4.285841,-6.289663 L 28.605155,30.5 34.72835,25.849621 c 3.367758,-2.557709 8.744098,-5.663369 11.947423,-6.901467 L 52.5,16.697066 l 9.187038,-0.465059 9.187037,-0.465058 7.023299,2.133262 7.0233,2.133261 6.289663,4.285841 6.289663,4.285842 4.65038,6.123195 c 2.55771,3.367758 5.66079,8.744098 6.89574,11.947423 l 2.24536,5.824227 0.4805,8.831951 0.48049,8.831952 -1.75963,6.500623 c -2.10984,7.794369 -2.80932,8.174341 -8.99417,4.885821 L 96.702121,79 H 92.41616 C 82.637,79 75.404791,85.211586 73.606046,95.155596 l -0.661252,3.655596 1.51305,4.344408 c 0.832177,2.38942 1.519598,5.07942 1.527603,5.97777 L 76,110.76674 l -2.25,0.60297 c -1.2375,0.33164 -5.85,0.58385 -10.25,0.56047 l -8,-0.0425 z M 59.697451,81.081918 C 65.754205,75.68362 74.160475,70.843391 82.261679,68.089707 L 87.5,66.309147 V 64 61.690853 l -5.238321,-1.78056 C 74.108899,57.139078 65.742799,52.306214 59.561877,46.797247 56.45243,44.025842 53.591461,42.081686 53.204169,42.4769 c -0.387293,0.395214 2.365128,3.492792 6.116492,6.883508 3.751363,3.390715 6.512899,6.472699 6.136746,6.848852 -0.899185,0.899185 -7.741838,-1.843175 -13.757486,-5.513648 -2.640043,-1.610833 -5.066291,-2.662575 -5.391662,-2.337204 -1.071612,1.071611 4.060391,4.49827 12.441741,8.307399 L 67,60.415241 V 61.70762 63 H 53.5 40 v 1 1 H 53.5 67 v 1.29238 1.292379 l -8.25,3.73694 c -8.933451,4.046517 -13.627226,7.134408 -12.523082,8.238553 0.383371,0.38337 2.870859,-0.697901 5.527752,-2.402824 5.64975,-3.625435 12.97044,-6.411226 13.708717,-5.21667 0.283401,0.458554 -2.404924,3.397526 -5.974056,6.53105 C 53.717665,83.539049 51.789102,86 53.589743,86 c 0.324358,0 3.072827,-2.213137 6.107708,-4.918082 z m 28.547395,28.683542 c 0.226332,-0.679 2.851332,-2.7136 5.833334,-4.52135 2.982001,-1.80774 5.341463,-3.63077 5.243249,-4.05117 -0.09821,-0.4204 0.576785,-0.79575 1.500001,-0.8341 0.92321,-0.0384 2.46607,-0.40793 3.42857,-0.821277 L 106,98.786022 v 1.499998 c 0,0.825 -0.70352,1.76997 -1.56338,2.09993 l -1.56338,0.59992 0.71789,1.16158 0.71789,1.16157 -1.14595,-0.70824 -1.14595,-0.70823 -6.354661,3.55372 c -6.881841,3.84855 -8.049044,4.21348 -7.417613,2.31919 z M 2,45.5 C 2,45.225 2.225,45 2.5,45 2.775,45 3,45.225 3,45.5 3,45.775 2.775,46 2.5,46 2.225,46 2,45.775 2,45.5 Z m 11,-6 C 13,39.225 13.225,39 13.5,39 13.775,39 14,39.225 14,39.5 14,39.775 13.775,40 13.5,40 13.225,40 13,39.775 13,39.5 Z m 100,-3.240513 c 0,-0.485853 1.32606,-1.863766 2.94679,-3.062028 l 2.9468,-2.178658 0.56772,0.918603 c 0.31225,0.505232 -0.33614,1.205481 -1.44087,1.556108 -1.10473,0.350628 -2.68626,1.31517 -3.51452,2.143425 C 113.67766,36.465193 113,36.745341 113,36.259487 Z"
         id="path6" />
      <path
         style="fill:#fd792a"
         d="m 57.004015,127.25826 c -1.922792,-0.23192 -3.947792,-0.78294 -4.5,-1.22449 C 51.951807,125.59222 49.925,124.91398 48,124.52658 c -1.925,-0.3874 -7.223175,-2.48239 -11.773723,-4.65553 l -8.273723,-3.95117 -6.726277,-6.3462 L 14.5,103.22748 10.763503,96.909321 C 8.7084302,93.434331 6.088487,87.645647 4.9414074,84.045578 3.7943277,80.44551 2.3280873,76.423741 1.6830953,75.108312 L 0.51038272,72.716625 0.56668927,62.78383 0.62299582,52.851035 1.6542498,52.175518 c 0.5671897,-0.371535 1.3270082,-2.194231 1.6884856,-4.050436 0.3614774,-1.856204 1.8436927,-6.018704 3.2938117,-9.25 L 9.2731272,33 h 1.3948208 c 2.444096,0 2.614915,2.870893 0.491567,8.261594 -3.3694028,8.554155 -4.3040238,13.499858 -4.2728556,22.61053 L 6.916176,72.5 8.4864812,78.407799 c 0.8636679,3.249289 3.2223118,9.051573 5.2414308,12.893963 l 3.671125,6.986164 6.156519,6.156514 6.156518,6.15652 6.893963,3.60317 C 44.675838,118.42186 52.838507,121 58.122484,121 c 4.080069,0 4.281352,0.16269 5.25831,4.25 l 0.65731,2.75 -1.769052,-0.16004 c -0.972979,-0.088 -3.342245,-0.34978 -5.265037,-0.5817 z M 55.5,110.02322 C 38.134632,106.19288 25.68894,95.428108 19.755224,79.106151 L 17.717153,73.5 V 64 54.5 l 2.038071,-5.606151 C 24.84382,34.896575 34.896575,24.84382 48.893849,19.755224 L 54.5,17.717153 h 9.5 9.5 l 5.606151,2.038071 c 14.011926,5.093923 24.107039,15.197568 29.114029,29.138625 l 2.01347,5.606151 0.13317,8.5 0.13318,8.5 -1.38717,4.775761 c -1.76357,6.071621 -2.1563,6.262748 -7.32853,3.56654 L 97.5,77.608961 91.894622,77.571147 86.289245,77.533333 81.472262,80.516667 76.655278,83.5 74.327639,87.907284 72,92.314567 v 4.874835 c 0,2.68116 0.647931,6.425558 1.439848,8.320878 l 1.439847,3.44604 -0.938285,0.57989 C 72.239605,110.58798 59.576534,110.9224 55.5,110.02322 Z m 1.575686,-24.631489 c 1.333373,-1.434547 5.303206,-4.671423 8.821851,-7.193057 L 72.295073,73.613885 80.897537,70.377986 89.5,67.142087 V 64 60.857913 L 81,57.655512 C 72.076119,54.293413 65.264391,50.113279 58.371597,43.7692 l -4.128404,-3.799752 -1.621596,0.622265 c -2.585942,0.992318 -1.929386,2.689799 2.857438,7.387711 5.822682,5.71453 5.012489,6.225469 -2.509537,1.582611 l -6.060838,-3.740962 -1.45433,0.558079 c -3.984528,1.529006 1.554965,6.904885 12.247463,11.885722 L 62.5,60.5 52.5,60.748076 C 47,60.884517 41.4875,61.230591 40.25,61.517128 L 38,62.038104 V 64 65.961896 l 2.25,0.520976 c 1.2375,0.286537 6.75,0.632611 12.25,0.769052 L 62.5,67.5 57.783336,69.679023 c -10.765665,4.973566 -16.308552,10.41473 -12.21115,11.987051 l 1.572186,0.603304 2.677814,-1.979758 c 3.434018,-2.538833 9.249272,-5.551495 9.749779,-5.050988 0.212357,0.212357 -1.629461,2.364232 -4.09293,4.781944 -4.584569,4.499414 -5.435182,6.426943 -3.229035,7.317143 2.090692,0.843613 2.318044,0.751932 4.825686,-1.945988 z M 88.246708,109.75987 C 88.647479,108.55756 103.74018,99.009542 105.25,99.003167 c 2.94835,-0.01245 -0.56564,3.377463 -7.585766,7.317913 -8.845496,4.96504 -10.076051,5.41437 -9.417526,3.43879 z"
         id="path5" />
      <path
         style="fill:#ed0101"
         d="M 55.5,110.02322 C 38.134632,106.19288 25.68894,95.428108 19.755224,79.106151 L 17.717153,73.5 V 64 54.5 l 2.038071,-5.606151 C 24.84382,34.896575 34.896575,24.84382 48.893849,19.755224 L 54.5,17.717153 h 9.5 9.5 l 5.606151,2.038071 c 14.011926,5.093923 24.107039,15.197568 29.114029,29.138625 l 2.01347,5.606151 0.13317,8.5 0.13318,8.5 -1.38717,4.775761 c -1.75014,6.025356 -2.16845,6.246674 -7.07533,3.743368 -2.217108,-1.131082 -6.044197,-2.332438 -8.504646,-2.66968 l -4.473544,-0.613168 -5.580649,2.730358 -5.58065,2.730357 -2.641737,3.991934 -2.641737,3.991934 -0.411703,5.691739 -0.411703,5.691737 1.544282,3.69599 1.544282,3.69599 -0.938285,0.57989 C 72.239605,110.58798 59.576534,110.9224 55.5,110.02322 Z m 1.575686,-24.631489 c 1.333373,-1.434547 5.303206,-4.671423 8.821851,-7.193057 L 72.295073,73.613885 80.897537,70.377986 89.5,67.142087 V 64 60.857913 L 81,57.655512 C 72.076119,54.293413 65.264391,50.113279 58.371597,43.7692 l -4.128404,-3.799752 -1.621596,0.622265 c -2.567547,0.98526 -1.951624,2.504523 3.090811,7.623938 5.580315,5.665506 4.719576,6.074214 -2.758746,1.309945 -2.999514,-1.910922 -6.241162,-3.485922 -7.203662,-3.5 L 44,46 v 1.951959 1.95196 l 4.451793,3.062914 c 2.448487,1.684603 6.610987,4.068721 9.25,5.298041 L 62.5,60.5 52.5,60.748076 C 47,60.884517 41.4875,61.230591 40.25,61.517128 L 38,62.038104 V 64 65.961896 l 2.25,0.520976 c 1.2375,0.286537 6.75,0.632611 12.25,0.769052 L 62.5,67.5 57.783336,69.679023 c -10.765665,4.973566 -16.308552,10.41473 -12.21115,11.987051 l 1.572186,0.603304 2.677814,-1.979758 c 3.434018,-2.538833 9.249272,-5.551495 9.749779,-5.050988 0.212357,0.212357 -1.629461,2.364232 -4.09293,4.781944 -4.584569,4.499414 -5.435182,6.426943 -3.229035,7.317143 2.090692,0.843613 2.318044,0.751932 4.825686,-1.945988 z"
         id="path4" />
      <path
         style="fill:#631414"
         d="M 55.5,110.02322 C 38.134632,106.19288 25.68894,95.428108 19.755224,79.106151 L 17.717153,73.5 V 64 54.5 l 2.038071,-5.606151 C 24.84382,34.896575 34.896575,24.84382 48.893849,19.755224 L 54.5,17.717153 h 9.5 9.5 l 5.606151,2.038071 c 14.011926,5.093923 24.107039,15.197568 29.114029,29.138625 l 2.01347,5.606151 0.13317,8.5 0.13318,8.5 -1.38717,4.775761 c -1.75014,6.025356 -2.16845,6.246674 -7.07533,3.743368 -2.217108,-1.131082 -6.044197,-2.332438 -8.504646,-2.66968 l -4.473544,-0.613168 -5.580649,2.730358 -5.58065,2.730357 -2.641737,3.991934 -2.641737,3.991934 -0.411703,5.691739 -0.411703,5.691737 1.544282,3.69599 1.544282,3.69599 -0.938285,0.57989 C 72.239605,110.58798 59.576534,110.9224 55.5,110.02322 Z M 46.195281,95.312909 C 49.795502,91.863678 49.719767,90.999411 45.569657,88.17351 43.690485,86.89394 41.10606,84.309515 39.82649,82.430343 36.978859,78.248321 36.14485,78.195597 32.529646,81.969056 l -2.844536,2.969056 2.707395,3.906772 C 34.681157,92.14741 41.419635,98 42.933401,98 c 0.251439,0 1.719285,-1.209191 3.26188,-2.687091 z m 10.880405,-9.921178 c 1.333373,-1.434547 5.303206,-4.671423 8.821851,-7.193057 L 72.295073,73.613885 80.897537,70.377986 89.5,67.142087 V 64 60.857913 L 81,57.655512 C 72.076119,54.293413 65.264391,50.113279 58.371597,43.7692 l -4.128404,-3.799752 -1.621596,0.622265 c -2.567547,0.98526 -1.951624,2.504523 3.090811,7.623938 5.580315,5.665506 4.719576,6.074214 -2.758746,1.309945 -2.999514,-1.910922 -6.241162,-3.485922 -7.203662,-3.5 L 44,46 v 1.951959 1.95196 l 4.451793,3.062914 c 2.448487,1.684603 6.610987,4.068721 9.25,5.298041 L 62.5,60.5 52.5,60.748076 C 47,60.884517 41.4875,61.230591 40.25,61.517128 L 38,62.038104 V 64 65.961896 l 2.25,0.520976 c 1.2375,0.286537 6.75,0.632611 12.25,0.769052 L 62.5,67.5 57.783336,69.679023 c -10.765665,4.973566 -16.308552,10.41473 -12.21115,11.987051 l 1.572186,0.603304 2.677814,-1.979758 c 3.434018,-2.538833 9.249272,-5.551495 9.749779,-5.050988 0.212357,0.212357 -1.629461,2.364232 -4.09293,4.781944 -4.584569,4.499414 -5.435182,6.426943 -3.229035,7.317143 2.090692,0.843613 2.318044,0.751932 4.825686,-1.945988 z M 39.82649,45.569657 c 1.27957,-1.879172 3.863995,-4.463597 5.743167,-5.743167 4.182022,-2.847631 4.234746,-3.68164 0.461287,-7.296844 l -2.969056,-2.844536 -3.950613,2.737776 c -2.172837,1.505777 -5.182612,4.515552 -6.688389,6.688389 l -2.737776,3.950613 2.844536,2.969056 c 3.615204,3.773459 4.449213,3.720735 7.296844,-0.461287 z m 55.643864,0.461287 2.844536,-2.969056 -2.737776,-3.950613 c -1.505777,-2.172837 -4.515552,-5.182612 -6.688389,-6.688389 l -3.950613,-2.737776 -2.969056,2.844536 c -3.773459,3.615204 -3.720735,4.449213 0.461287,7.296844 1.879172,1.27957 4.463597,3.863995 5.743167,5.743167 2.847631,4.182022 3.68164,4.234746 7.296844,0.461287 z"
         id="path3" />
      <path
         style="fill:#1d1b1b"
         d="M 49.76195,108.05814 C 35.411692,103.47072 23.816431,91.563011 19.585463,77.068499 L 18,71.636998 v -7.729405 -7.729404 l 1.89456,-6.087233 C 24.43849,35.49128 36.265928,23.866364 50.931501,19.585463 L 56.363002,18 64,18 l 7.636998,0 5.431501,1.585463 C 91.734072,23.866364 103.56151,35.49128 108.10544,50.090956 L 110,56.178189 v 7.729404 7.729405 l -1.53874,5.181501 c -0.84631,2.849825 -1.63381,5.179618 -1.75,5.177316 -0.11619,-0.0023 -2.42503,-1.127302 -5.13074,-2.5 C 98.874809,78.123117 95.627967,77 94.365318,77 92.262866,77 85,71.675012 85,70.133536 c 0,-0.362603 1.0125,-1.103487 2.25,-1.646408 L 89.5,67.5 v -3.391014 -3.391013 l -2,-1.108987 c -1.1,-0.609942 -2.214538,-1.248524 -2.47675,-1.41907 -0.262213,-0.170546 3.106493,-3.593103 7.486013,-7.605682 l 7.962767,-7.2956 -2.957438,-4.267577 C 94.769174,35.059416 86.711348,28 84.934834,28 c -0.427658,0 -4.74022,4.3875 -9.583471,9.75 l -8.80591,9.75 H 64.737721 62.92999 l -9.935972,-9.906114 -9.935972,-9.906114 -4.152283,2.877534 C 35.051854,33.236067 28,41.308763 28,43.049813 c 0,0.419214 3.825,4.234806 8.5,8.479094 9.522943,8.645585 9.832946,9.215856 5.25,9.657735 L 38.5,61.5 v 2.5 2.5 l 3.25,0.313358 c 4.582946,0.441879 4.272943,1.01215 -5.25,9.657735 -4.675,4.244288 -8.5,8.05988 -8.5,8.479094 0,1.742212 7.053092,9.814604 10.911661,12.488594 L 43.069842,100.3204 53.230043,90.160201 C 64.690348,78.699896 65.22612,78.50198 69.818506,84.032369 l 3.318507,3.996317 -1.134518,5.235657 -1.134518,5.235657 1.519521,4.92071 c 2.005529,6.49457 1.888286,6.58791 -8.196515,6.52551 L 55.5,109.89245 Z"
         id="path2" />
    </g>
  </g>
</svg>
