<?xml version="1.0" standalone="no"?>
<!DOCTYPE svg PUBLIC "-//W3C//DTD SVG 20010904//EN"
 "http://www.w3.org/TR/2001/REC-SVG-20010904/DTD/svg10.dtd">
<svg version="1.0" xmlns="http://www.w3.org/2000/svg"
 width="256.000000pt" height="256.000000pt" viewBox="0 0 256.000000 256.000000"
 preserveAspectRatio="xMidYMid meet">

<g transform="translate(0.000000,256.000000) scale(0.100000,-0.100000)"
fill="#000000" stroke="none">
<path d="M1125 2549 c-560 -76 -992 -483 -1102 -1037 -23 -118 -23 -346 0
-464 53 -266 166 -478 356 -669 251 -250 549 -374 901 -373 161 1 228 10 375
56 453 138 798 529 880 996 8 48 15 93 15 100 0 9 -27 12 -103 12 l-104 0 -13
-72 c-38 -216 -132 -397 -290 -561 -287 -300 -723 -404 -1116 -266 -354 123
-619 426 -695 794 -24 113 -25 301 -3 415 79 417 405 751 829 848 48 11 119
16 225 16 130 0 169 -4 244 -23 209 -54 347 -132 497 -281 58 -58 123 -132
144 -165 81 -123 139 -267 165 -407 l12 -68 104 0 c57 0 104 3 104 8 0 32 -35
196 -56 259 -143 445 -516 776 -979 869 -91 18 -301 25 -390 13z"/>
<path d="M1358 2055 c-26 -7 -62 -22 -82 -34 l-35 -22 -60 21 c-33 11 -77 20
-98 20 -83 0 -195 -83 -225 -166 l-11 -32 -60 39 c-81 52 -97 51 -131 -11 -46
-85 -47 -186 -2 -253 l24 -35 -72 -73 c-204 -210 -191 -465 35 -692 92 -92
152 -119 281 -125 l98 -5 -40 -43 c-22 -24 -40 -48 -40 -53 0 -14 27 -21 84
-21 40 0 57 -5 71 -20 37 -40 95 -53 227 -48 102 4 134 9 188 30 36 14 89 28
118 32 29 3 57 8 62 11 16 10 11 40 -10 68 -16 20 -18 31 -11 50 17 43 150
141 296 217 144 74 195 111 195 141 0 25 -70 145 -117 201 -24 27 -43 58 -43
69 0 11 -6 35 -14 53 -30 73 36 229 142 331 34 33 62 65 62 72 0 6 -23 19 -51
28 -41 14 -76 16 -170 13 l-119 -4 0 33 c0 22 7 37 20 45 32 20 23 36 -27 50
-43 12 -49 18 -63 57 -24 71 -49 63 -64 -20 -6 -33 -11 -38 -42 -44 -31 -5
-39 -3 -52 17 -28 40 -65 70 -117 94 -56 27 -79 28 -147 9z m412 -77 c14 -39
19 -43 59 -51 l44 -9 -43 -27 c-33 -20 -46 -37 -55 -66 l-11 -40 -21 41 c-15
28 -34 46 -62 59 -43 19 -46 35 -6 35 42 0 54 11 61 56 3 24 9 44 13 44 4 0
13 -19 21 -42z m-389 -224 c-128 -63 -235 -114 -237 -114 -2 0 -4 4 -4 9 0 5
17 16 38 24 20 9 123 56 227 106 105 49 195 90 200 90 6 0 -95 -52 -224 -115z
m-549 56 c59 -41 77 -60 95 -100 24 -54 24 -54 -49 -65 l-45 -7 -18 44 c-25
62 -64 178 -60 178 2 0 36 -23 77 -50z m69 -17 c13 -16 12 -17 -3 -4 -10 7
-18 15 -18 17 0 8 8 3 21 -13z m680 -83 c12 -30 35 -81 51 -112 15 -32 28 -65
28 -73 0 -20 -74 -54 -115 -55 -29 0 -33 5 -82 114 -76 166 -76 155 -1 193
l63 31 17 -21 c10 -12 27 -47 39 -77z m-526 -14 c39 -25 64 -46 56 -46 -7 0
-43 21 -80 47 -117 82 -104 81 24 -1z m101 -90 c30 -14 54 -27 54 -29 0 -3
-34 6 -75 19 -55 17 -101 24 -168 25 -71 1 -84 3 -57 10 64 14 187 2 246 -25z
m755 -339 c43 -29 49 -73 19 -162 -44 -132 -173 -286 -306 -368 -70 -42 -186
-83 -265 -92 -65 -8 -155 8 -212 37 -49 25 -43 34 8 12 49 -20 151 -12 215 19
24 11 73 49 107 84 54 53 67 62 83 53 41 -22 43 -16 38 113 -5 109 -3 126 15
162 70 140 205 204 298 142z m-333 -377 l-3 -30 -30 24 -30 24 30 32 30 32 3
-26 c2 -14 2 -39 0 -56z m-68 -30 c-5 -9 -34 -40 -64 -67 -61 -56 -135 -83
-227 -83 -68 0 -96 15 -48 25 49 11 226 90 278 124 47 31 78 32 61 1z m-432
-239 c-3 -22 -9 -26 -42 -29 -67 -6 -72 4 -26 43 34 29 45 33 57 24 8 -7 13
-24 11 -38z m576 10 l27 -29 -49 -12 c-57 -13 -92 -2 -92 28 0 50 71 58 114
13z m-299 -43 c14 -13 -22 -38 -56 -38 -64 0 -81 33 -26 49 33 9 65 5 82 -11z"/>
<path d="M1425 820 c-16 -11 -36 -20 -44 -20 -7 0 -27 -12 -44 -26 -19 -16
-38 -24 -50 -20 -23 6 -57 -9 -57 -25 0 -6 8 -6 21 2 12 6 30 9 40 6 12 -3 31
4 48 19 16 13 36 24 45 24 9 0 30 13 48 30 38 34 36 38 -7 10z"/>
</g>
</svg>
