<?xml version="1.0" encoding="UTF-8"?>
<svg version="1.1" xmlns="http://www.w3.org/2000/svg" width="1000" height="1000">
<path d="M0 0 C0.68354553 0.09430298 1.36709106 0.18860596 2.0713501 0.2857666 C71.7410511 9.91971632 142.73790778 35.31720582 201.22900391 74.80810547 C202.83409841 75.88834691 204.45340751 76.9473927 206.07421875 78.00390625 C220.42548895 87.38215785 234.07979369 97.62286542 247.26464844 108.56884766 C248.80160365 109.83638163 250.35658166 111.08199207 251.9140625 112.32421875 C264.26712637 122.18116204 275.44070708 133.34010102 286.63986206 144.46463013 C287.78021168 145.59691705 288.92203559 146.72772147 290.06546021 147.85690308 C296.44184825 154.16222737 302.47995197 160.52138983 308.04174805 167.56811523 C310.08073556 170.10026268 312.22955276 172.48956914 314.4375 174.875 C375.64558619 242.3201796 412.71030293 335.4150019 425.6875 424.5 C425.79032288 425.19456299 425.89314575 425.88912598 425.99908447 426.60473633 C429.36038399 449.5329947 430.37906996 472.34094774 430.3125 495.5 C430.30976578 497.47957703 430.30976578 497.47957703 430.30697632 499.49914551 C430.26925779 519.17639617 429.74737079 538.49500757 427 558 C426.82839355 559.28471191 426.65678711 560.56942383 426.47998047 561.89306641 C414.89486498 648.06453352 381.33686368 731.15714793 328 800 C327.58572754 800.53898926 327.17145508 801.07797852 326.74462891 801.63330078 C321.64735941 808.25918497 316.43072217 814.76885931 311 821.125 C310.34390747 821.89432861 310.34390747 821.89432861 309.67456055 822.67919922 C300.92665755 832.81792315 291.70484671 842.4817889 282.23876953 851.9465332 C280.49611683 853.69138808 278.76166837 855.44413743 277.02734375 857.19726562 C271.06929635 863.18446797 265.04962217 868.83393934 258.40771484 874.06591797 C255.88180004 876.09494829 253.50217712 878.23698435 251.125 880.4375 C179.29000562 945.62944631 78.81024237 983.58303161 -101.20831299 995.85614014 C-125.78689586 994.54318061 -149.97347224 991.32400316 -174 986 C-175.11842285 985.75491699 -176.2368457 985.50983398 -177.38916016 985.25732422 C-234.86691168 972.49113219 -292.24752705 950.26227131 -341.22900391 917.19189453 C-342.83409841 916.11165309 -344.45340751 915.0526073 -346.07421875 913.99609375 C-361.05126412 904.2089113 -375.2996766 893.49595835 -389 882 C-389.61359375 881.48550293 -390.2271875 880.97100586 -390.859375 880.44091797 C-392.66110279 878.92456 -394.45719664 877.40189597 -396.25 875.875 C-397.00845215 875.23002563 -397.00845215 875.23002563 -397.78222656 874.57202148 C-407.89680864 865.87111679 -417.51667704 856.66995366 -426.9465332 847.23876953 C-428.69138808 845.49611683 -430.44413743 843.76166837 -432.19726562 842.02734375 C-438.20051758 836.05332284 -443.86286492 830.01379752 -449.11474609 823.35888672 C-450.97578862 821.03029401 -452.92457216 818.82273429 -454.9375 816.625 C-513.41520952 751.35558799 -550.28878531 662.86643159 -570.203125 512.6328125 C-570.21013931 511.40708527 -570.21715363 510.18135803 -570.22438049 508.91848755 C-570.24177482 504.98730795 -570.24881449 501.05620988 -570.25 497.125 C-570.25044186 496.45450119 -570.25088371 495.78400238 -570.25133896 495.09318542 C-570.25843099 474.56218162 -569.87149226 454.36098119 -567 434 C-566.82839355 432.72060547 -566.65678711 431.44121094 -566.47998047 430.12304688 C-554.83266021 343.90506363 -521.38938306 260.91063979 -468 192 C-467.58572754 191.46101074 -467.17145508 190.92202148 -466.74462891 190.36669922 C-461.66559984 183.76452556 -456.46957088 177.27448345 -451.0625 170.9375 C-450.63348389 170.43299316 -450.20446777 169.92848633 -449.76245117 169.40869141 C-440.66826082 158.85818279 -431.00980449 148.82310529 -421.16333008 138.97802734 C-419.42955057 137.24204044 -417.70398462 135.4981489 -415.97851562 133.75390625 C-410.02144042 127.76757264 -403.99673401 122.12506161 -397.36108398 116.88745117 C-395.0319183 115.0255155 -392.8234869 113.07609479 -390.625 111.0625 C-324.47228799 51.79340353 -234.3880663 14.69360375 0 0 Z " fill="#FEFEFE" transform="translate(570,4)"/>
<path d="M0 0 C18.81 0 37.62 0 57 0 C57 5.94 57 11.88 57 18 C62.94 18 68.88 18 75 18 C75 24.6 75 31.2 75 38 C81.27 38 87.54 38 94 38 C94 50.21 94 62.42 94 75 C100.27 75 106.54 75 113 75 C113 81.27 113 87.54 113 94 C149.96 94 186.92 94 225 94 C225 87.73 225 81.46 225 75 C231.27 75 237.54 75 244 75 C244 62.46 244 49.92 244 37 C249.94 37 255.88 37 262 37 C261.96042231 31.12116997 261.96042231 31.12116997 261.90991211 25.24243164 C261.90616577 24.14983032 261.90616577 24.14983032 261.90234375 23.03515625 C261.89448853 21.91185913 261.89448853 21.91185913 261.88647461 20.76586914 C262 19 262 19 263 18 C264.34267413 17.91368126 265.68974322 17.89293527 267.03515625 17.90234375 C267.76355713 17.90484131 268.49195801 17.90733887 269.24243164 17.90991211 C270.1730542 17.91901611 271.10367676 17.92812012 272.0625 17.9375 C276.4865625 17.9684375 276.4865625 17.9684375 281 18 C281 12.06 281 6.12 281 0 C299.81 0 318.62 0 338 0 C338 5.94 338 11.88 338 18 C343.94 18 349.88 18 356 18 C356 24.27 356 30.54 356 37 C362.27 37 368.54 37 375 37 C375 49.54 375 62.08 375 75 C381.27 75 387.54 75 394 75 C394 87.21 394 99.42 394 112 C400.27 112 406.54 112 413 112 C413 124.54 413 137.08 413 150 C419.27 150 425.54 150 432 150 C432 162.21 432 174.42 432 187 C437.94 187 443.88 187 450 187 C450 267.52 450 348.04 450 431 C295.23 431 140.46 431 -19 431 C-19 424.73 -19 418.46 -19 412 C-31.21 412 -43.42 412 -56 412 C-56 406.06 -56 400.12 -56 394 C-62.27 394 -68.54 394 -75 394 C-75 388.06 -75 382.12 -75 376 C-81.27 376 -87.54 376 -94 376 C-94 369.73 -94 363.46 -94 357 C-99.87883003 357.03957769 -99.87883003 357.03957769 -105.75756836 357.09008789 C-106.48596924 357.09258545 -107.21437012 357.09508301 -107.96484375 357.09765625 C-109.08814087 357.10551147 -109.08814087 357.10551147 -110.23413086 357.11352539 C-112 357 -112 357 -113 356 C-113.09619441 354.30441297 -113.12187659 352.6047916 -113.12025452 350.90647888 C-113.12162918 349.80285004 -113.12300385 348.69922119 -113.12442017 347.56214905 C-113.12082489 346.34079758 -113.11722961 345.11944611 -113.11352539 343.86108398 C-113.11367142 342.58322021 -113.11381744 341.30535645 -113.1139679 339.98876953 C-113.11425585 336.47446409 -113.1083594 332.9601925 -113.10139394 329.44589496 C-113.09516012 325.77700644 -113.09455658 322.10811723 -113.09336853 318.43922424 C-113.0902553 311.48709565 -113.08204202 304.5349827 -113.07201904 297.58286101 C-113.06085766 289.6700522 -113.05534739 281.75724266 -113.05032361 273.84442794 C-113.0398594 257.56294253 -113.02205965 241.28147388 -113 225 C-106.73 225 -100.46 225 -94 225 C-94 212.79 -94 200.58 -94 188 C-87.73 188 -81.46 188 -75 188 C-75 162.92 -75 137.84 -75 112 C-68.73 112 -62.46 112 -56 112 C-56 99.79 -56 87.58 -56 75 C-49.73 75 -43.46 75 -37 75 C-37 62.46 -37 49.92 -37 37 C-30.73 37 -24.46 37 -18 37 C-18 30.73 -18 24.46 -18 18 C-12.06 18 -6.12 18 0 18 C0 12.06 0 6.12 0 0 Z " fill="#FF007A" transform="translate(331,275)"/>
<path d="M0 0 C0.68354553 0.09430298 1.36709106 0.18860596 2.0713501 0.2857666 C71.7410511 9.91971632 142.73790778 35.31720582 201.22900391 74.80810547 C202.83409841 75.88834691 204.45340751 76.9473927 206.07421875 78.00390625 C220.42548895 87.38215785 234.07979369 97.62286542 247.26464844 108.56884766 C248.80160365 109.83638163 250.35658166 111.08199207 251.9140625 112.32421875 C264.26712637 122.18116204 275.44070708 133.34010102 286.63986206 144.46463013 C287.78021168 145.59691705 288.92203559 146.72772147 290.06546021 147.85690308 C296.44184825 154.16222737 302.47995197 160.52138983 308.04174805 167.56811523 C310.08073556 170.10026268 312.22955276 172.48956914 314.4375 174.875 C375.64558619 242.3201796 412.71030293 335.4150019 425.6875 424.5 C425.79032288 425.19456299 425.89314575 425.88912598 425.99908447 426.60473633 C429.36038399 449.5329947 430.37906996 472.34094774 430.3125 495.5 C430.30976578 497.47957703 430.30976578 497.47957703 430.30697632 499.49914551 C430.26925779 519.17639617 429.74737079 538.49500757 427 558 C426.82839355 559.28471191 426.65678711 560.56942383 426.47998047 561.89306641 C414.89486498 648.06453352 381.33686368 731.15714793 328 800 C327.58572754 800.53898926 327.17145508 801.07797852 326.74462891 801.63330078 C321.64735941 808.25918497 316.43072217 814.76885931 311 821.125 C310.34390747 821.89432861 310.34390747 821.89432861 309.67456055 822.67919922 C300.92665755 832.81792315 291.70484671 842.4817889 282.23876953 851.9465332 C280.49611683 853.69138808 278.76166837 855.44413743 277.02734375 857.19726562 C271.06929635 863.18446797 265.04962217 868.83393934 258.40771484 874.06591797 C255.88180004 876.09494829 253.50217712 878.23698435 251.125 880.4375 C179.29000562 945.62944631 78.81024237 983.58303161 -101.20831299 995.85614014 C-125.78689586 994.54318061 -149.97347224 991.32400316 -174 986 C-175.11842285 985.75491699 -176.2368457 985.50983398 -177.38916016 985.25732422 C-234.86691168 972.49113219 -292.24752705 950.26227131 -341.22900391 917.19189453 C-342.83409841 916.11165309 -344.45340751 915.0526073 -346.07421875 913.99609375 C-361.05126412 904.2089113 -375.2996766 893.49595835 -389 882 C-389.61359375 881.48550293 -390.2271875 880.97100586 -390.859375 880.44091797 C-392.66110279 878.92456 -394.45719664 877.40189597 -396.25 875.875 C-397.00845215 875.23002563 -397.00845215 875.23002563 -397.78222656 874.57202148 C-407.89680864 865.87111679 -417.51667704 856.66995366 -426.9465332 847.23876953 C-428.69138808 845.49611683 -430.44413743 843.76166837 -432.19726562 842.02734375 C-438.20051758 836.05332284 -443.86286492 830.01379752 -449.11474609 823.35888672 C-450.97578862 821.03029401 -452.92457216 818.82273429 -454.9375 816.625 C-513.41520952 751.35558799 -550.28878531 662.86643159 -570.203125 512.6328125 C-570.21013931 511.40708527 -570.21715363 510.18135803 -570.22438049 508.91848755 C-570.24177482 504.98730795 -570.24881449 501.05620988 -570.25 497.125 C-570.25044186 496.45450119 -570.25088371 495.78400238 -570.25133896 495.09318542 C-570.25843099 474.56218162 -569.87149226 454.36098119 -567 434 C-566.82839355 432.72060547 -566.65678711 431.44121094 -566.47998047 430.12304688 C-554.83266021 343.90506363 -521.38938306 260.91063979 -468 192 C-467.58572754 191.46101074 -467.17145508 190.92202148 -466.74462891 190.36669922 C-461.66559984 183.76452556 -456.46957088 177.27448345 -451.0625 170.9375 C-450.63348389 170.43299316 -450.20446777 169.92848633 -449.76245117 169.40869141 C-440.66826082 158.85818279 -431.00980449 148.82310529 -421.16333008 138.97802734 C-419.42955057 137.24204044 -417.70398462 135.4981489 -415.97851562 133.75390625 C-410.02144042 127.76757264 -403.99673401 122.12506161 -397.36108398 116.88745117 C-395.0319183 115.0255155 -392.8234869 113.07609479 -390.625 111.0625 C-324.47228799 51.79340353 -234.3880663 14.69360375 0 0 Z M-129 19 C-130.18303711 19.14453613 -131.36607422 19.28907227 -132.58496094 19.43798828 C-149.92850488 21.62225888 -166.98111475 25.03724827 -184 29 C-184.73009277 29.16967285 -185.46018555 29.3393457 -186.21240234 29.51416016 C-190.51672647 30.53803164 -194.75969222 31.7421271 -199 33 C-200.47629883 33.43022461 -200.47629883 33.43022461 -201.98242188 33.86914062 C-253.90145758 49.09351952 -305.58849625 72.28325082 -349 105 C-350.00417969 105.74378906 -351.00835937 106.48757812 -352.04296875 107.25390625 C-355.04236012 109.48501885 -358.02296944 111.73916015 -361 114 C-362.09500237 114.82298281 -363.19005571 115.64589782 -364.28515625 116.46875 C-370.23392631 120.96358883 -375.94181897 125.61463295 -381.41699219 130.68505859 C-383.80991305 132.82964041 -386.26693532 134.80605842 -388.796875 136.78515625 C-395.98630178 142.64153596 -402.4754319 149.17529532 -409.00732422 155.74658203 C-411.1211762 157.8711568 -413.24551542 159.98482061 -415.37109375 162.09765625 C-422.71190036 169.43121674 -429.58223772 176.83882309 -436 185 C-437.97447842 187.33500506 -439.98934638 189.63365525 -442 191.9375 C-447.29735621 198.08687271 -452.27615331 204.39662986 -457 211 C-457.84256348 212.16885742 -457.84256348 212.16885742 -458.70214844 213.36132812 C-478.82524926 241.3813638 -496.13156199 271.38707335 -510 303 C-510.29358398 303.65887207 -510.58716797 304.31774414 -510.88964844 304.99658203 C-523.35952812 333.09563496 -532.16801791 362.09517637 -539 392 C-539.3407959 393.47581543 -539.3407959 393.47581543 -539.68847656 394.98144531 C-543.5429371 411.84683893 -546.06298794 428.81337801 -548 446 C-548.18006592 447.58723877 -548.18006592 447.58723877 -548.36376953 449.20654297 C-551.74626842 480.58665565 -550.65245383 512.60610457 -548 544 C-547.87731679 545.64450984 -547.75488684 547.2890386 -547.6328125 548.93359375 C-542.00830481 617.11579072 -516.5848194 686.86426246 -481 745 C-480.51289551 745.79728516 -480.02579102 746.59457031 -479.52392578 747.41601562 C-470.19013888 762.61152864 -459.991665 776.96924882 -449 791 C-448.34515625 791.83917969 -447.6903125 792.67835938 -447.015625 793.54296875 C-443.13801844 798.45406961 -439.12827677 803.24459653 -435.0625 808 C-434.59666504 808.54519287 -434.13083008 809.09038574 -433.65087891 809.65209961 C-432.11015112 811.44329442 -430.55747719 813.22334739 -429 815 C-428.37448242 815.71599365 -427.74896484 816.4319873 -427.10449219 817.16967773 C-420.96650976 824.09862998 -414.50588287 830.68029256 -407.96240234 837.22290039 C-406.12957731 839.05791722 -404.3049299 840.9008125 -402.48046875 842.74414062 C-395.62413198 849.63296694 -388.625046 855.962855 -381 862 C-378.66556117 863.97513875 -376.36634078 865.98934984 -374.0625 868 C-367.91312729 873.29735621 -361.60337014 878.27615331 -355 883 C-354.22076172 883.56170898 -353.44152344 884.12341797 -352.63867188 884.70214844 C-337.88910663 895.29481834 -322.69585592 904.8778852 -307 914 C-305.55849917 914.85010006 -304.11708174 915.70034157 -302.67578125 916.55078125 C-283.05569456 927.99459411 -262.10392973 936.71691076 -241 945 C-240.16082031 945.33483398 -239.32164062 945.66966797 -238.45703125 946.01464844 C-217.00800681 954.54509661 -194.32106632 960.73846316 -171.73828125 965.43066406 C-168.80156239 966.0412586 -165.86986616 966.67354295 -162.9375 967.3046875 C-148.70233549 970.3142056 -134.4727572 972.51978655 -120 974 C-119.25810425 974.08084839 -118.5162085 974.16169678 -117.75183105 974.24499512 C-102.52881888 975.88993553 -87.43142313 976.40079665 -72.125 976.375 C-70.37184982 976.37468277 -70.37184982 976.37468277 -68.58328247 976.37435913 C-36.91690078 976.31763584 -6.06502641 973.06517302 25 967 C26.7187089 966.67946706 28.4374557 966.35913719 30.15625 966.0390625 C96.54092211 953.27383186 162.09816099 922.35960295 216 882 C216.60134766 881.55172852 217.20269531 881.10345703 217.82226562 880.64160156 C224.92613836 875.32777603 231.79645949 869.76244992 238.52001953 863.9777832 C240.71582662 862.09287797 242.92346017 860.22433218 245.14746094 858.37280273 C253.78754873 851.13942643 261.8658721 843.44537862 269.80639648 835.4543457 C271.82117835 833.42877518 273.84653275 831.41421616 275.87304688 829.40039062 C283.04448376 822.23634782 289.73492116 814.97780987 296 807 C296.97045831 805.84011702 297.94730586 804.68551531 298.93359375 803.5390625 C316.38624287 783.2275551 331.75767087 761.27686103 345 738 C345.48388184 737.15179687 345.96776367 736.30359375 346.46630859 735.4296875 C355.03497809 720.30684638 362.68805301 704.76440565 370 689 C370.57161865 687.77893555 370.57161865 687.77893555 371.15478516 686.53320312 C378.42474116 670.83204515 383.43210929 654.18648926 388.77001953 637.75683594 C389.69794532 634.92259178 390.65472484 632.10458766 391.63671875 629.2890625 C393.63803064 623.2988493 395.03203888 617.13762353 396.5 611 C396.65440552 610.3579361 396.80881104 609.71587219 396.96789551 609.05435181 C399.06569671 600.31092861 400.97464585 591.58566302 402.390625 582.70703125 C402.98893604 579.06730576 403.74021493 575.48397908 404.5 571.875 C406.99853653 558.7511081 407.85211405 545.29839829 409 532 C409.12597816 530.64416557 409.12597816 530.64416557 409.25450134 529.26094055 C409.86608946 522.43895717 410.18382536 515.67225584 410.23828125 508.82421875 C410.24798447 507.79232422 410.25768768 506.76042969 410.26768494 505.69726562 C410.29254114 502.36063686 410.3052148 499.02421212 410.3125 495.6875 C410.31642761 493.96848984 410.31642761 493.96848984 410.32043457 492.2147522 C410.32750846 463.15395312 407.81615948 434.4996698 402 406 C401.78617676 404.91783203 401.57235352 403.83566406 401.35205078 402.72070312 C398.07424933 386.20447 394.05547271 370.06054511 389 354 C388.72575195 353.11828125 388.45150391 352.2365625 388.16894531 351.328125 C373.01558718 302.95324694 349.99111 254.31363902 319 214 C318.19247373 212.93767829 317.38519752 211.87516647 316.578125 210.8125 C309.62579062 201.69037946 302.51624096 192.71802551 295.0625 184 C294.59666504 183.45480713 294.13083008 182.90961426 293.65087891 182.34790039 C292.11014846 180.55670248 290.55760602 178.77654572 289 177 C288.05302246 175.91730835 288.05302246 175.91730835 287.08691406 174.81274414 C281.08527433 168.04266887 274.78520274 161.59901223 268.38964844 155.2043457 C266.62924948 153.44175477 264.87703618 151.67128961 263.125 149.90039062 C257.13508689 143.88138571 251.08825599 138.19373123 244.40942383 132.93579102 C241.8600527 130.88756286 239.46060046 128.7225248 237.0625 126.5 C232.17132281 122.05487356 226.99983477 118.10589068 221.66113281 114.21533203 C219.90949143 112.93378136 218.16902767 111.63803336 216.4296875 110.33984375 C174.3345395 79.01399617 127.64176175 55.69450951 78 39 C77.06687988 38.68305176 76.13375977 38.36610352 75.17236328 38.03955078 C41.76911741 26.76230334 6.11616961 19.95788087 -29 17 C-30.58228394 16.86078125 -30.58228394 16.86078125 -32.1965332 16.71875 C-44.22282151 15.78096243 -56.25564941 15.75752005 -68.3125 15.75 C-69.43672363 15.74899292 -70.56094727 15.74798584 -71.71923828 15.74694824 C-90.97941761 15.75856393 -109.88683088 16.61784524 -129 19 Z " fill="#F1D2DB" transform="translate(570,4)"/>
<path d="M0 0 C6.27 0 12.54 0 19 0 C19 5.94 19 11.88 19 18 C24.87883003 17.96042231 24.87883003 17.96042231 30.75756836 17.90991211 C31.48596924 17.90741455 32.21437012 17.90491699 32.96484375 17.90234375 C33.7137085 17.89710693 34.46257324 17.89187012 35.23413086 17.88647461 C37 18 37 18 38 19 C38.09492722 21.34253782 38.12559791 23.65546104 38.11352539 25.99829102 C38.11367142 26.72995483 38.11381744 27.46161865 38.1139679 28.2154541 C38.11326867 30.64496784 38.10547585 33.07440583 38.09765625 35.50390625 C38.0957921 37.18399514 38.09436819 38.86408457 38.09336853 40.54417419 C38.08954307 44.97473643 38.07971256 49.4052661 38.06866455 53.83581543 C38.05845103 58.35342976 38.05387104 62.87104934 38.04882812 67.38867188 C38.03809031 76.25913123 38.02049329 85.12955781 38 94 C31.73 94 25.46 94 19 94 C19 100.27 19 106.54 19 113 C12.73 113 6.46 113 0 113 C0 106.73 0 100.46 0 94 C-6.27 94 -12.54 94 -19 94 C-19 69.25 -19 44.5 -19 19 C-12.73 19 -6.46 19 0 19 C0 12.73 0 6.46 0 0 Z " fill="#FFF8FB" transform="translate(575,500)"/>
<path d="M0 0 C5.94 0 11.88 0 18 0 C18 6.27 18 12.54 18 19 C24.27 19 30.54 19 37 19 C37 43.42 37 67.84 37 93 C31.06 93.33 25.12 93.66 19 94 C18.67 99.94 18.34 105.88 18 112 C11.73 112 5.46 112 -1 112 C-1 106.06 -1 100.12 -1 94 C-6.94 94 -12.88 94 -19 94 C-19 69.25 -19 44.5 -19 19 C-12.73 19 -6.46 19 0 19 C0 12.73 0 6.46 0 0 Z " fill="#FFFCFD" transform="translate(369,500)"/>
<path d="M0 0 C0.33 0 0.66 0 1 0 C1 12.54 1 25.08 1 38 C-4.94 38 -10.88 38 -17 38 C-17 80.57 -17 123.14 -17 167 C-11.06 167 -5.12 167 1 167 C1 173.6 1 180.2 1 187 C7.27 187 13.54 187 20 187 C20 192.94 20 198.88 20 205 C25.94 205 31.88 205 38 205 C38 205.33 38 205.66 38 206 C31.73 206 25.46 206 19 206 C19 200.06 19 194.12 19 188 C12.73 188 6.46 188 0 188 C0 181.73 0 175.46 0 169 C-5.87883003 169.03957769 -5.87883003 169.03957769 -11.75756836 169.09008789 C-12.48596924 169.09258545 -13.21437012 169.09508301 -13.96484375 169.09765625 C-14.7137085 169.10289307 -15.46257324 169.10812988 -16.23413086 169.11352539 C-18 169 -18 169 -19 168 C-19.09619441 166.30441297 -19.12187659 164.6047916 -19.12025452 162.90647888 C-19.12162918 161.80285004 -19.12300385 160.69922119 -19.12442017 159.56214905 C-19.12082489 158.34079758 -19.11722961 157.11944611 -19.11352539 155.86108398 C-19.11367142 154.58322021 -19.11381744 153.30535645 -19.1139679 151.98876953 C-19.11425585 148.47446409 -19.1083594 144.9601925 -19.10139394 141.44589496 C-19.09516012 137.77700644 -19.09455658 134.10811723 -19.09336853 130.43922424 C-19.0902553 123.48709565 -19.08204202 116.5349827 -19.07201904 109.58286101 C-19.06085766 101.6700522 -19.05534739 93.75724266 -19.05032361 85.84442794 C-19.0398594 69.56294253 -19.02205965 53.28147388 -19 37 C-12.73 37 -6.46 37 0 37 C0 24.79 0 12.58 0 0 Z " fill="#FF65AE" transform="translate(237,463)"/>
</svg>
