<svg version="1.1" viewBox="0 0 200 200" xmlns="http://www.w3.org/2000/svg"><defs><style>.cls-1 {
        fill: #f17c19;
      }

      .cls-2 {
        fill: #fafafa;
      }</style></defs><path class="cls-1" transform="scale(.14641)" d="m683 0c377.2 0 683 305.8 683 683s-305.8 683-683 683-683-305.8-683-683 305.8-683 683-683z"/><path class="cls-2" transform="scale(.14641)" d="m479.39 292.7 150.3 260.39c11.185 19.174 31.049 30.677 53.213 30.708h0.09338c22.258-0.03571 42.117-11.538 53.199-30.708l150.3-260.39h-407.11zm-32.496 18.796-203.54 352.51h300.55c22.3 0 42.193-11.408 53.293-30.708s11.1-42.197 0-61.497l-150.3-260.3zm-203.54 352.51h-0.05336v0.09338l0.05336-0.09338zm675.74-352.4-150.3 260.3c-11.1 19.3-11.1 42.297 0 61.497 11.2 19.2 31.093 30.695 53.293 30.695v0.10672h300.6l-203.59-352.6zm-675.8 390.1v0.09338h0.05336l-0.05336-0.09338zm0.05336 0.09338 203.54 352.51 150.3-260.3c11.1-19.3 11.1-42.197 0-61.497-11.2-19.2-31.093-30.708-53.293-30.708h-300.55zm578.84 0.10672c-22.3 0-42.206 11.495-53.306 30.695-11.1 19.3-11.1 42.297 0 61.497v0.10672l150.3 260.3 203.61-352.6h-300.6zm-139.2 80.293c-22.3 0-42.206 11.408-53.306 30.708l-150.3 260.39h0.10672 407.11l-150.3-260.39c-11.2-19.2-31.006-30.708-53.306-30.708z"/></svg>
