<svg width="1200" height="1201" viewBox="0 0 1200 1201" fill="none" xmlns="http://www.w3.org/2000/svg">
<path d="M593.402 728.859L495.609 898.319C494.873 899.594 494.485 901.04 494.484 902.511C494.484 903.983 494.871 905.43 495.606 906.705C496.341 907.98 497.399 909.039 498.673 909.777C499.947 910.514 501.392 910.903 502.864 910.905H692.429C694.486 910.906 696.507 910.366 698.288 909.338C700.07 908.31 701.55 906.832 702.578 905.051C703.607 903.27 704.149 901.249 704.149 899.192C704.15 897.136 703.608 895.115 702.58 893.334L607.699 728.859C606.98 727.597 605.94 726.547 604.685 725.818C603.429 725.088 602.003 724.703 600.55 724.703C599.098 724.703 597.672 725.088 596.416 725.818C595.16 726.547 594.12 727.597 593.402 728.859Z" fill="#0395E8"/>
<path d="M630.14 910.839H698.467C699.911 910.839 701.329 910.459 702.58 909.737C703.83 909.015 704.869 907.976 705.591 906.726C706.313 905.475 706.693 904.057 706.693 902.613C706.693 901.169 706.313 899.75 705.591 898.5L607.699 728.859C606.977 727.608 605.938 726.57 604.688 725.848C603.437 725.126 602.019 724.746 600.575 724.746C599.131 724.746 597.712 725.126 596.462 725.848C595.211 726.57 594.173 727.608 593.451 728.859L580.289 751.777L630.14 910.839Z" fill="#0384CC"/>
<path d="M581.622 209.254L373.154 556.712C370.998 560.297 369.859 564.4 369.859 568.583C369.859 572.765 370.998 576.869 373.154 580.453L486.675 768.801C488.742 772.235 491.669 775.07 495.167 777.026C498.665 778.983 502.613 779.992 506.62 779.956C510.628 779.919 514.557 778.838 518.019 776.818C521.48 774.798 524.355 771.91 526.359 768.439L730.007 415.88C731.929 412.561 732.923 408.786 732.886 404.951C732.848 401.115 731.78 397.361 729.793 394.08L618.361 209.221C616.461 206.042 613.769 203.411 610.547 201.585C607.326 199.76 603.685 198.801 599.982 198.805C596.279 198.808 592.641 199.773 589.422 201.604C586.204 203.436 583.516 206.072 581.622 209.254Z" fill="#0395E8"/>
<path d="M147.032 1001.33H378.6C382.642 1001.33 386.613 1000.26 390.113 998.239C393.613 996.218 396.52 993.311 398.541 989.81L482.201 844.93C484.261 841.365 485.328 837.313 485.291 833.195C485.253 829.078 484.112 825.045 481.987 821.518L367.577 631.74C365.53 628.333 362.635 625.513 359.176 623.556C355.716 621.599 351.809 620.57 347.834 620.57C343.859 620.57 339.952 621.599 336.492 623.556C333.033 625.513 330.139 628.333 328.091 631.74L127.289 966.431C125.19 969.926 124.055 973.916 124.002 977.993C123.949 982.069 124.978 986.087 126.986 989.636C128.994 993.184 131.907 996.136 135.429 998.19C138.951 1000.24 142.955 1001.33 147.032 1001.33Z" fill="#0395E8"/>
<path d="M560.264 709.758L600.655 639.835L463.82 405.75L560.264 709.758Z" fill="#0384CC"/>
<path d="M463.688 403.28L580.286 209.849C582.333 206.442 585.227 203.623 588.687 201.666C592.147 199.708 596.054 198.68 600.029 198.68C604.004 198.68 607.911 199.708 611.37 201.666C614.83 203.623 617.724 206.442 619.772 209.849L1072.71 964.736C1074.81 968.231 1075.94 972.22 1075.99 976.297C1076.05 980.374 1075.02 984.392 1073.01 987.94C1071 991.489 1068.09 994.441 1064.57 996.495C1061.05 998.549 1057.04 999.631 1052.96 999.631H821.429C817.387 999.63 813.417 998.565 809.916 996.544C806.416 994.522 803.51 991.615 801.489 988.115L463.688 403.28Z" fill="url(#paint0_linear_1405_6497)"/>
<defs>
<linearGradient id="paint0_linear_1405_6497" x1="493" y1="862.18" x2="729.5" y2="362.68" gradientUnits="userSpaceOnUse">
<stop stop-color="#0284FE"/>
<stop offset="1" stop-color="#02C2FE"/>
</linearGradient>
</defs>
</svg>
