<svg width="32" height="32" viewBox="0 0 32 32" fill="none" xmlns="http://www.w3.org/2000/svg">
<path d="M0 16C0 7.16344 7.16344 0 16 0V0C24.8366 0 32 7.16344 32 16V16C32 24.8366 24.8366 32 16 32V32C7.16344 32 0 24.8366 0 16V16Z" fill="white"/>
<g clip-path="url(#clip0_144_596767)">
<g clip-path="url(#clip1_144_596767)">
<path d="M25 16C25 20.9706 20.9706 25 16 25C11.0294 25 7 20.9706 7 16C7 11.0294 11.0294 7 16 7C20.9706 7 25 11.0294 25 16Z" fill="url(#paint0_linear_144_596767)"/>
<path fill-rule="evenodd" clip-rule="evenodd" d="M13.1875 9.8125L13.1875 22.1875C13.1875 22.1875 14.6366 22.0593 15.0268 21.9795C18.0789 21.3549 19.7734 18.9652 19.9234 15.0742L19.9375 14.3665L15.7872 13.129V14.5645L18.6063 15.422C18.6063 15.422 18.4696 16.5803 18.3629 17.0105C18.1263 17.965 17.7875 18.662 17.2756 19.247C16.8957 19.6812 16.5622 19.9389 16.03 20.2095C15.6591 20.3982 14.9754 20.6173 14.647 20.6529L14.4873 20.6701L14.4417 10.1863L13.1875 9.8125ZM15.7872 12.0895L18.8885 12.9805V11.545L15.7872 10.654V12.0895Z" fill="black"/>
</g>
</g>
<path fill-rule="evenodd" clip-rule="evenodd" d="M11.855 3.38363C13.3455 2.89371 14.9385 2.66971 16.5164 2.73019C18.0946 2.79067 19.6582 3.13595 21.1132 3.74395C22.5686 4.35195 23.9154 5.22299 25.0678 6.29755C26.5919 7.71931 27.7753 9.49755 28.485 11.4867C29.1951 13.4761 29.4316 15.6764 29.1577 17.7711C28.8841 19.8659 28.1001 21.8553 26.9142 23.566C25.7282 25.2767 24.1401 26.7084 22.2748 27.7004C20.4095 28.6921 18.2665 29.2438 16.1542 29.2758C14.0418 29.3078 11.9599 28.8204 10.0953 27.895C8.23095 26.9695 6.58359 25.6063 5.33271 23.9036C4.08183 22.2009 3.22743 20.1587 2.88823 18.0748C2.54903 15.9907 2.72503 13.8646 3.37495 11.8812C3.86615 10.3817 4.62839 8.96411 5.60503 7.73563H4.12055V5.28187H9.93719V10.7135H7.48343V9.22939C6.68343 10.2355 6.05879 11.3967 5.65655 12.6255C5.12439 14.2511 4.98103 15.9951 5.25655 17.6969C5.59895 19.8137 6.58903 21.8649 8.06679 23.4457C9.83447 25.3363 12.2998 26.5542 14.8662 26.8207C17.4322 27.0873 20.0994 26.4028 22.2175 24.9286C24.3356 23.4543 25.9052 21.1903 26.5423 18.6899C27.1794 16.1894 26.8841 13.4524 25.7353 11.142C24.5865 8.83163 22.5839 6.94843 20.1894 5.95899C17.7948 4.96923 15.0079 4.87387 12.6041 5.66363L11.855 3.38363Z" fill="url(#paint1_linear_144_596767)"/>
<path d="M22.3587 23.6413L22.3587 23.6413C22.7983 24.0808 23.1506 24.608 23.3884 25.1823C23.6263 25.7565 23.75 26.3784 23.75 27C23.75 27.6216 23.6263 28.2435 23.3884 28.8177C23.1506 29.392 22.7983 29.9192 22.3587 30.3587L22.3587 30.3587C21.9192 30.7983 21.392 31.1506 20.8177 31.3884C20.2435 31.6263 19.6216 31.75 19 31.75C18.3784 31.75 17.7565 31.6263 17.1823 31.3884C16.608 31.1506 16.0808 30.7983 15.6413 30.3587L15.6413 30.3587C15.2017 29.9192 14.8494 29.392 14.6116 28.8177C14.3737 28.2435 14.25 27.6216 14.25 27C14.25 26.3784 14.3737 25.7565 14.6116 25.1823C14.8494 24.608 15.2017 24.0808 15.6413 23.6413L15.6413 23.6413C16.0808 23.2017 16.608 22.8494 17.1823 22.6116C17.7565 22.3737 18.3784 22.25 19 22.25C19.6216 22.25 20.2435 22.3737 20.8177 22.6116C21.392 22.8494 21.9192 23.2017 22.3587 23.6413Z" fill="#99999E" stroke="white" stroke-width="0.5"/>
<path fill-rule="evenodd" clip-rule="evenodd" d="M16.6186 28.0752V29.7861L16.6177 29.7867V29.7898C17.3407 29.7799 18.0637 29.7799 18.7865 29.7898C19.032 29.7932 19.2773 29.7776 19.5178 29.731C19.7718 29.6818 20.0206 29.607 20.2554 29.4991C20.357 29.4525 20.4545 29.3962 20.5528 29.3395C20.5786 29.3246 20.6044 29.3097 20.6304 29.2949C20.747 29.2127 20.8588 29.1239 20.9648 29.0289C21.2555 28.7686 21.4805 28.4441 21.6211 28.0821C21.6306 28.0415 21.6707 28.0154 21.7118 28.0233H22.3024C22.3494 28.0233 22.365 28.0077 22.365 27.9551V27.5806C22.3682 27.5447 22.3682 27.5084 22.365 27.4725C22.365 27.4631 22.3674 27.4537 22.3699 27.4444C22.3747 27.4258 22.3795 27.4073 22.365 27.3887H21.8715C21.8119 27.3887 21.8119 27.3826 21.8119 27.33C21.829 27.1415 21.8221 26.9528 21.8119 26.7639C21.8088 26.7082 21.8214 26.7082 21.8651 26.7082H22.2963C22.3465 26.7082 22.363 26.6957 22.3653 26.6463C22.3731 26.4769 22.3731 26.3078 22.3653 26.1387C22.3637 26.1053 22.3629 26.0883 22.354 26.0796C22.3448 26.0706 22.3268 26.0706 22.2903 26.0706H21.7309C21.6873 26.078 21.6455 26.0488 21.6375 26.0056C21.5734 25.8396 21.4932 25.6798 21.3934 25.5321C21.2944 25.3856 21.1852 25.2456 21.0591 25.1207C20.8946 24.9581 20.7106 24.8156 20.5092 24.6998C20.2065 24.526 19.8756 24.404 19.531 24.341C19.3639 24.3104 19.1951 24.2853 19.0248 24.2853H16.6812C16.6186 24.2853 16.6186 24.2978 16.6186 24.3473V26.015C16.6186 26.0738 16.606 26.0738 16.5592 26.0738H15.8874C15.8374 26.0738 15.8374 26.0828 15.8374 26.117V26.6614C15.8374 26.7109 15.8529 26.7109 15.8905 26.7109H16.5687C16.6186 26.7109 16.6186 26.72 16.6186 26.7572V27.3388C16.6186 27.3915 16.6028 27.3915 16.5624 27.3915H15.8374V27.9793C15.8374 28.0288 15.8529 28.0288 15.8905 28.0288H16.5687C16.6186 28.0288 16.6186 28.0348 16.6186 28.0752ZM21.084 27.3881H19.1842H17.3215C17.2835 27.3881 17.2648 27.3881 17.2556 27.3788C17.2467 27.3698 17.2467 27.352 17.2467 27.3171V26.7664C17.2467 26.7229 17.2592 26.7076 17.3059 26.7076H21.0872C21.128 26.7076 21.1466 26.7229 21.1466 26.76C21.1621 26.9516 21.1573 27.1438 21.1466 27.3356C21.1437 27.3881 21.1246 27.3881 21.084 27.3881ZM20.9344 26.0639C20.9398 26.0498 20.9398 26.0346 20.9344 26.0207C20.9027 25.9523 20.8651 25.8871 20.8215 25.8258C20.7558 25.721 20.6783 25.6246 20.5902 25.538C20.5486 25.4856 20.5004 25.4386 20.4464 25.3987C20.1759 25.1708 19.8543 25.0095 19.5088 24.9284C19.3348 24.8877 19.1563 24.8712 18.9775 24.8727C18.4182 24.8775 17.8589 24.8775 17.2995 24.8727C17.2526 24.8723 17.2464 24.8912 17.2464 24.9315V26.0298C17.2464 26.0762 17.2464 26.0886 17.3058 26.0886H20.9119L20.9119 26.0886C20.9135 26.0883 20.9431 26.0825 20.9495 26.0639H20.9344ZM20.7746 28.0318C20.8277 28.026 20.8813 28.026 20.9344 28.0318V28.0321C20.9588 28.0443 20.9385 28.0883 20.9371 28.0912L20.9371 28.0912C20.745 28.4636 20.4403 28.7672 20.0652 28.9602H20.0434C19.9712 29.0028 19.8938 29.0358 19.8155 29.0654C19.5977 29.1477 19.3693 29.1976 19.137 29.214C19.0621 29.2297 18.9856 29.2351 18.9091 29.2294H17.3091C17.2467 29.2294 17.2467 29.2169 17.2467 29.1675V28.0936C17.2467 28.0318 17.2624 28.0318 17.3091 28.0318H20.7746Z" fill="white"/>
<path d="M26.3587 16.6413L26.3587 16.6413C26.7983 17.0808 27.1506 17.608 27.3884 18.1823C27.6263 18.7565 27.75 19.3784 27.75 20C27.75 20.6216 27.6263 21.2435 27.3884 21.8177C27.1506 22.392 26.7983 22.9192 26.3587 23.3587L26.3587 23.3587C25.9192 23.7983 25.392 24.1506 24.8177 24.3884C24.2435 24.6263 23.6216 24.75 23 24.75C22.3784 24.75 21.7565 24.6263 21.1823 24.3884C20.608 24.1506 20.0808 23.7983 19.6413 23.3587L19.6413 23.3587C19.2017 22.9192 18.8494 22.392 18.6116 21.8177C18.3737 21.2435 18.25 20.6216 18.25 20C18.25 19.3784 18.3737 18.7565 18.6116 18.1823C18.8494 17.608 19.2017 17.0808 19.6413 16.6413L19.6413 16.6413C20.0808 16.2017 20.608 15.8494 21.1823 15.6116C21.7565 15.3737 22.3784 15.25 23 15.25C23.6216 15.25 24.2435 15.3737 24.8177 15.6116C25.392 15.8494 25.9192 16.2017 26.3587 16.6413Z" fill="#68686D" stroke="white" stroke-width="0.5"/>
<path fill-rule="evenodd" clip-rule="evenodd" d="M20.8186 17.5H23.125H25.4314V18.6151H23.7374V19.2436L23.7426 19.2438C24.4355 19.2753 25.0427 19.3585 25.4843 19.477C25.7052 19.5363 25.8846 19.6036 26.0171 19.6838C26.0833 19.7238 26.1384 19.7671 26.1801 19.8188C26.2218 19.8705 26.25 19.9338 26.25 20.0014C26.25 20.069 26.2218 20.1322 26.1801 20.184C26.1384 20.2356 26.0833 20.2789 26.0171 20.319C25.8846 20.3992 25.7052 20.4665 25.4844 20.5257C25.0427 20.6442 24.4355 20.7274 23.7426 20.759L23.7378 20.7592V23H23.125H22.5122V20.7592L22.5074 20.759C21.8145 20.7274 21.2073 20.6442 20.7656 20.5257C20.5448 20.4665 20.3654 20.3992 20.2329 20.319C20.1667 20.2789 20.1116 20.2356 20.0699 20.184C20.0282 20.1322 20 20.069 20 20.0014C20 19.9338 20.0282 19.8705 20.0699 19.8188C20.1116 19.7671 20.1667 19.7238 20.2329 19.6838C20.3654 19.6036 20.5448 19.5363 20.7657 19.477C21.2073 19.3585 21.8145 19.2753 22.5074 19.2438L22.5126 19.2436V18.6151H20.8186V17.5ZM22.5146 20.3987L23.125 20.4121L23.7354 20.3987C24.3394 20.3721 24.8669 20.3064 25.2392 20.2175C25.4255 20.1731 25.5732 20.1224 25.6694 20.0709C25.7176 20.0453 25.7525 20.0192 25.7731 19.9967C25.7936 19.9742 25.7992 19.958 25.7992 19.9441C25.7992 19.9302 25.7936 19.914 25.7731 19.8915C25.7525 19.869 25.7176 19.843 25.6695 19.8173C25.5733 19.7658 25.4256 19.7152 25.2394 19.6707C24.8676 19.582 24.3411 19.5164 23.738 19.4897V20.1174L23.7259 20.1185C23.7103 20.1198 23.6548 20.1246 23.5548 20.1288C23.5048 20.1308 23.4437 20.1329 23.371 20.1344C23.3346 20.1351 23.2954 20.1357 23.2531 20.1361C23.232 20.1363 23.2102 20.1365 23.1874 20.1366H23.125H23.0626C23.0398 20.1365 23.018 20.1363 22.9969 20.1361C22.9546 20.1357 22.9154 20.1351 22.879 20.1344C22.8063 20.1329 22.7452 20.1308 22.6952 20.1288C22.5952 20.1246 22.5397 20.1198 22.5241 20.1185L22.512 20.1174V19.4897C21.9089 19.5164 21.3824 19.582 21.0106 19.6707C20.8244 19.7152 20.6767 19.7658 20.5805 19.8173C20.5324 19.843 20.4975 19.869 20.4769 19.8915C20.4564 19.914 20.4508 19.9302 20.4508 19.9441C20.4508 19.958 20.4564 19.9742 20.4769 19.9967C20.4975 20.0192 20.5324 20.0453 20.5806 20.0709C20.6768 20.1224 20.8245 20.1731 21.0108 20.2175C21.3831 20.3064 21.9106 20.3721 22.5146 20.3987Z" fill="white"/>
<path d="M30.3587 23.6413L30.3587 23.6413C30.7983 24.0808 31.1506 24.608 31.3884 25.1823C31.6263 25.7565 31.75 26.3784 31.75 27C31.75 27.6216 31.6263 28.2435 31.3884 28.8177C31.1506 29.392 30.7983 29.9192 30.3587 30.3587L30.3587 30.3587C29.9192 30.7983 29.392 31.1506 28.8177 31.3884C28.2435 31.6263 27.6216 31.75 27 31.75C26.3784 31.75 25.7565 31.6263 25.1823 31.3884C24.608 31.1506 24.0808 30.7983 23.6413 30.3587L23.6413 30.3587C23.2017 29.9192 22.8494 29.392 22.6116 28.8177C22.3737 28.2435 22.25 27.6216 22.25 27C22.25 26.3784 22.3737 25.7565 22.6116 25.1823C22.8494 24.608 23.2017 24.0808 23.6413 23.6413L23.6413 23.6413C24.0808 23.2017 24.608 22.8494 25.1823 22.6116C25.7565 22.3737 26.3784 22.25 27 22.25C27.6216 22.25 28.2435 22.3737 28.8177 22.6116C29.392 22.8494 29.9192 23.2017 30.3587 23.6413Z" fill="black" stroke="white" stroke-width="0.5"/>
<path fill-rule="evenodd" clip-rule="evenodd" d="M26.0844 30.4638C26.0844 30.586 25.9994 30.6267 25.8761 30.6267C24.3328 30.1327 23.25 28.7296 23.25 27.0794C23.25 25.4292 24.3328 24.026 25.8761 23.532C25.9998 23.4924 26.0844 23.5727 26.0844 23.6977V23.9853C26.0844 24.0695 26.0406 24.1508 25.9583 24.1915C24.7494 24.6448 23.9161 25.7603 23.9161 27.0794C23.9161 28.4011 24.7906 29.5546 25.9583 29.9672C26.0406 30.0079 26.0844 30.092 26.0844 30.1734V30.4638ZM27.3344 29.4325C27.3344 29.5139 27.2494 29.5953 27.1672 29.5953H26.8328C26.7506 29.5953 26.6656 29.5139 26.6656 29.4325V28.9358C25.9994 28.8544 25.6678 28.4825 25.5417 27.9452C25.5417 27.8637 25.5828 27.7823 25.6678 27.7823H26.0406C26.1256 27.7823 26.1667 27.823 26.2078 27.9044C26.2928 28.1949 26.4572 28.4418 27 28.4418C27.4167 28.4418 27.7072 28.2356 27.7072 27.9044C27.7072 27.5761 27.5428 27.4512 26.9589 27.3697C26.084 27.2477 25.6678 26.9979 25.6678 26.295C25.6678 25.7603 26.0844 25.3477 26.6656 25.2636V24.7696C26.6656 24.6882 26.7506 24.6041 26.8328 24.6041H27.1672C27.2494 24.6041 27.3344 24.6882 27.3344 24.7696V25.2636C27.8333 25.3477 28.1678 25.6355 28.25 26.0887C28.25 26.1729 28.2089 26.2543 28.1239 26.2543H27.7922C27.7072 26.2543 27.6661 26.2136 27.625 26.1321C27.5428 25.8417 27.3344 25.7196 26.9589 25.7196C26.5422 25.7196 26.3339 25.9259 26.3339 26.2136C26.3339 26.5012 26.4572 26.6668 27.0822 26.7509C27.96 26.8691 28.3761 27.12 28.3761 27.823C28.3761 28.3576 27.9594 28.8137 27.3344 28.9358V29.4325ZM27.9156 30.4638C27.9156 30.586 28.0006 30.6701 28.1239 30.6267C29.6672 30.1327 30.75 28.7295 30.75 27.0793C30.75 25.4291 29.6261 24.026 28.1239 23.532C28.0006 23.532 27.9156 23.5727 27.9156 23.6976V23.9853C27.9156 24.0694 27.9594 24.1508 28.0417 24.1915C29.2094 24.6041 30.0839 25.7603 30.0839 27.0793C30.0839 28.4011 29.2506 29.5139 28.0417 29.9671C27.9594 30.0078 27.9156 30.092 27.9156 30.1734V30.4638Z" fill="white"/>
<defs>
<linearGradient id="paint0_linear_144_596767" x1="8.96875" y1="9.25" x2="24.1563" y2="24.1562" gradientUnits="userSpaceOnUse">
<stop stop-color="#E3E3E3"/>
<stop offset="0.552083" stop-color="#BEBEBE"/>
<stop offset="1" stop-color="#484848"/>
</linearGradient>
<linearGradient id="paint1_linear_144_596767" x1="2.04365" y1="13.2971" x2="15.2224" y2="29.5764" gradientUnits="userSpaceOnUse">
<stop stop-color="#004CFF"/>
<stop offset="0.252131" stop-color="#00E0FB"/>
<stop offset="0.505709" stop-color="#87FF70"/>
<stop offset="0.755054" stop-color="#F8F500"/>
<stop offset="1" stop-color="#FF1A00"/>
</linearGradient>
<clipPath id="clip0_144_596767">
<rect width="18" height="18" fill="white" transform="translate(7 7)"/>
</clipPath>
<clipPath id="clip1_144_596767">
<rect width="18" height="18" fill="white" transform="translate(7 7)"/>
</clipPath>
</defs>
</svg>
