<svg width="48" height="48" viewBox="0 0 48 48" fill="none" xmlns="http://www.w3.org/2000/svg">
<g clip-path="url(#clip0_3211_3459)">
<mask id="mask0_3211_3459" style="mask-type:alpha" maskUnits="userSpaceOnUse" x="4" y="4" width="40" height="40">
<path fill-rule="evenodd" clip-rule="evenodd" d="M24 4.80002C13.3962 4.80002 4.80005 13.3961 4.80005 24C4.80005 34.6039 13.3962 43.2 24 43.2C25.0443 43.2 26.0691 43.1166 27.0682 42.9562C26.3821 41.4454 26.0001 39.7673 26.0001 38C26.0001 31.3726 31.3726 26 38.0001 26C39.7674 26 41.4455 26.3821 42.9562 27.0681C43.1167 26.0691 43.2001 25.0443 43.2001 24C43.2001 13.3961 34.6039 4.80002 24 4.80002Z" fill="#D9D9D9" style="fill:#D9D9D9;fill:color(display-p3 0.8510 0.8510 0.8510);fill-opacity:1;"/>
</mask>
<g mask="url(#mask0_3211_3459)">
<rect width="38.4" height="38.4" transform="translate(4.80005 4.79999)" fill="#2A5ADA" style="fill:#2A5ADA;fill:color(display-p3 0.1647 0.3529 0.8549);fill-opacity:1;"/>
<path d="M24.0001 10.8L21.578 12.1926L14.978 16.0073L12.556 17.4V30.6L14.978 31.9926L21.6386 35.8073L24.0606 37.2L26.4826 35.8073L33.0221 31.9926L35.4441 30.6V17.4L33.0221 16.0073L26.4221 12.1926L24.0001 10.8ZM17.4001 27.8147V20.1853L24.0001 16.3706L30.6001 20.1853V27.8147L24.0001 31.6293L17.4001 27.8147Z" fill="white" style="fill:white;fill-opacity:1;"/>
</g>
<rect x="28" y="28" width="20" height="20" rx="10" fill="#1C1917" style="fill:#1C1917;fill:color(display-p3 0.1098 0.0980 0.0902);fill-opacity:1;"/>
<path d="M44.3527 34.0447C44.3527 34.5451 43.9515 34.9499 43.4575 34.9499C42.9636 34.9499 42.5624 34.5451 42.5624 34.0447C42.5624 33.5443 42.9636 33.1395 43.4575 33.1395C43.9515 33.1395 44.3527 33.5443 44.3527 34.0447ZM33.4375 34.1251C33.4375 34.6255 33.0363 35.0303 32.5424 35.0303C32.0485 35.0303 31.6473 34.6255 31.6473 34.1251C31.6473 33.6247 32.0485 33.2199 32.5424 33.2199C33.0363 33.2199 33.4375 33.6247 33.4375 34.1251ZM33.4375 36.2935C33.4375 36.7939 33.0363 37.1987 32.5424 37.1987C32.0485 37.1987 31.6473 36.7939 31.6473 36.2935C31.6473 35.7931 32.0485 35.3883 32.5424 35.3883C33.0363 35.3883 33.4375 35.7931 33.4375 36.2935ZM33.4394 38.4619C33.4394 38.9623 33.0382 39.3671 32.5443 39.3671C32.0504 39.3671 31.6492 38.9623 31.6492 38.4619C31.6492 37.9615 32.0504 37.5566 32.5443 37.5566C33.0382 37.5566 33.4394 37.9615 33.4394 38.4619ZM33.8621 40.5765C33.8621 41.0769 33.4609 41.4817 32.967 41.4817C32.4731 41.4817 32.0719 41.0769 32.0719 40.5765C32.0719 40.0761 32.4731 39.6713 32.967 39.6713C33.4609 39.6713 33.8621 40.0761 33.8621 40.5765ZM35.0583 42.3623C35.0583 42.8627 34.6571 43.2675 34.1632 43.2675C33.6693 43.2675 33.2681 42.8627 33.2681 42.3623C33.2681 41.8619 33.6693 41.4571 34.1632 41.4571C34.6571 41.4571 35.0583 41.8619 35.0583 42.3623ZM36.84 43.5476C36.84 44.048 36.4388 44.4528 35.9449 44.4528C35.451 44.4528 35.0498 44.048 35.0498 43.5476C35.0498 43.0472 35.451 42.6424 35.9449 42.6424C36.4388 42.6424 36.84 43.0472 36.84 43.5476ZM38.9346 43.9553C38.9346 44.4557 38.5334 44.8605 38.0395 44.8605C37.5456 44.8605 37.1444 44.4557 37.1444 43.9553C37.1444 43.4549 37.5456 43.0501 38.0395 43.0501C38.5334 43.0501 38.9346 43.4549 38.9346 43.9553ZM41.0257 43.5226C41.0257 44.023 40.6245 44.4278 40.1305 44.4278C39.6366 44.4278 39.2354 44.023 39.2354 43.5226C39.2354 43.0222 39.6366 42.6174 40.1305 42.6174C40.6245 42.6174 41.0257 43.0222 41.0257 43.5226ZM42.7862 42.3043C42.7862 42.8047 42.385 43.2095 41.8911 43.2095C41.3972 43.2095 40.996 42.8047 40.996 42.3043C40.996 41.8039 41.3972 41.3991 41.8911 41.3991C42.385 41.3991 42.7862 41.8039 42.7862 42.3043ZM43.9516 40.4997C43.9516 41.0001 43.5504 41.4049 43.0565 41.4049C42.5626 41.4049 42.1613 41.0001 42.1613 40.4997C42.1613 39.9993 42.5626 39.5945 43.0565 39.5945C43.5504 39.5945 43.9516 39.9993 43.9516 40.4997ZM44.3527 38.3815C44.3527 38.8819 43.9515 39.2867 43.4575 39.2867C42.9636 39.2867 42.5624 38.8819 42.5624 38.3815C42.5624 37.8811 42.9636 37.4763 43.4575 37.4763C43.9515 37.4763 44.3527 37.8811 44.3527 38.3815ZM44.3527 36.2131C44.3527 36.7135 43.9515 37.1183 43.4575 37.1183C42.9636 37.1183 42.5624 36.7135 42.5624 36.2131C42.5624 35.7127 42.9636 35.3079 43.4575 35.3079C43.9515 35.3079 44.3527 35.7127 44.3527 36.2131ZM35.913 34.1619C35.913 34.6623 35.5117 35.0672 35.0178 35.0672C34.5239 35.0672 34.1227 34.6623 34.1227 34.1619C34.1227 33.6616 34.5239 33.2567 35.0178 33.2567C35.5117 33.2567 35.913 33.6616 35.913 34.1619ZM35.913 36.4635C35.913 36.9639 35.5117 37.3687 35.0178 37.3687C34.5239 37.3687 34.1227 36.9639 34.1227 36.4635C34.1227 35.9631 34.5239 35.5583 35.0178 35.5583C35.5117 35.5583 35.913 35.9631 35.913 36.4635ZM35.9393 38.7633C35.9393 39.2637 35.5381 39.6685 35.0442 39.6685C34.5503 39.6685 34.1491 39.2637 34.1491 38.7633C34.1491 38.2629 34.5503 37.8581 35.0442 37.8581C35.5381 37.8581 35.9393 38.2629 35.9393 38.7633ZM36.892 40.7857C36.892 41.2861 36.4908 41.6909 35.9969 41.6909C35.503 41.6909 35.1018 41.2861 35.1018 40.7857C35.1018 40.2853 35.503 39.8805 35.9969 39.8805C36.4908 39.8805 36.892 40.2853 36.892 40.7857ZM38.9671 41.5858C38.9671 42.0862 38.5659 42.491 38.072 42.491C37.5781 42.491 37.1768 42.0862 37.1768 41.5858C37.1768 41.0854 37.5781 40.6806 38.072 40.6806C38.5659 40.6806 38.9671 41.0854 38.9671 41.5858ZM41.0191 40.7139C41.0191 41.2143 40.6179 41.6191 40.124 41.6191C39.6301 41.6191 39.2288 41.2143 39.2288 40.7139C39.2288 40.2135 39.6301 39.8087 40.124 39.8087C40.6179 39.8087 41.0191 40.2135 41.0191 40.7139ZM41.8954 38.6471C41.8954 39.1475 41.4941 39.5523 41.0002 39.5523C40.5063 39.5523 40.1051 39.1475 40.1051 38.6471C40.1051 38.1467 40.5063 37.7419 41.0002 37.7419C41.4941 37.7419 41.8954 38.1467 41.8954 38.6471ZM41.9062 36.3463C41.9062 36.8467 41.505 37.2515 41.0111 37.2515C40.5171 37.2515 40.1159 36.8467 40.1159 36.3463C40.1159 35.8459 40.5171 35.4411 41.0111 35.4411C41.505 35.4411 41.9062 35.8459 41.9062 36.3463ZM41.9062 34.0447C41.9062 34.5451 41.505 34.9499 41.0111 34.9499C40.5171 34.9499 40.1159 34.5451 40.1159 34.0447C40.1159 33.5443 40.5171 33.1395 41.0111 33.1395C41.505 33.1395 41.9062 33.5443 41.9062 34.0447Z" fill="url(#paint0_linear_3211_3459)" stroke="#E7E5E4" style="stroke:#E7E5E4;stroke:color(display-p3 0.9059 0.8980 0.8941);stroke-opacity:1;" stroke-width="0.0916667"/>
</g>
<defs>
<linearGradient id="paint0_linear_3211_3459" x1="38" y1="33.0937" x2="38" y2="44.9064" gradientUnits="userSpaceOnUse">
<stop stop-color="#D6D3D1" style="stop-color:#D6D3D1;stop-color:color(display-p3 0.8392 0.8275 0.8196);stop-opacity:1;"/>
<stop offset="1" stop-color="#A8A29E" style="stop-color:#A8A29E;stop-color:color(display-p3 0.6588 0.6353 0.6196);stop-opacity:1;"/>
</linearGradient>
<clipPath id="clip0_3211_3459">
<rect width="48" height="48" fill="white" style="fill:white;fill-opacity:1;"/>
</clipPath>
</defs>
</svg>
