<svg width="727" height="726" viewBox="0 0 727 726" fill="none" xmlns="http://www.w3.org/2000/svg">
<circle cx="363.973" cy="363" r="363" fill="#FFEADB"/>
<path d="M358.996 342.441L305.792 428.467L366.402 434.776L419.144 353.9C430.06 343.515 451.03 318.346 447.584 300.741C444.139 283.137 420.873 277.909 409.671 277.495L348.125 315.128L358.996 342.441Z" fill="#E49A67"/>
<path d="M286.653 452.885L306.824 427.461L366.884 433.488C379.059 444.464 406.208 425.099 410.51 432.55C417.333 444.368 360.105 469.608 337.58 478.065C328.006 477.644 306.478 471.224 295.187 467.666C283.896 464.108 284.646 457.892 286.653 452.885Z" fill="#FF1100"/>
<path d="M360.596 262.793C335.618 264.618 334.027 235.562 336.355 220.806L276.356 268.392C276.117 287.774 287.891 324.853 336.901 318.11C385.911 311.367 427.738 277.678 442.525 261.676C441.834 258.459 443.491 252.441 455.645 254.101C470.839 256.175 450.573 271.375 467.449 263.031C484.325 254.687 453.416 225.998 424.495 230.449C395.575 234.9 391.818 260.511 360.596 262.793Z" fill="#F4A56F"/>
<path d="M237.905 394.508L321.264 317.691C288.862 313.445 341.775 258.476 340.058 244.189C341.822 154.158 177.541 211.264 208.051 349.465C212.468 369.474 228.555 388.01 237.905 394.508Z" fill="#FF1100"/>
<path d="M311.048 538.77C314.98 545.582 312.646 554.292 305.835 558.225C299.023 562.157 290.313 559.823 286.38 553.012C282.448 546.2 284.782 537.49 291.593 533.557C298.405 529.625 307.115 531.959 311.048 538.77Z" fill="black"/>
<path d="M451.178 457.866C459.462 472.214 454.546 490.56 440.198 498.844C425.85 507.128 407.503 502.212 399.22 487.864C390.936 473.516 395.852 455.169 410.2 446.886C424.548 438.602 442.894 443.518 451.178 457.866Z" fill="black"/>
<path fill-rule="evenodd" clip-rule="evenodd" d="M572.33 471.961C607.141 451.863 619.068 407.35 598.97 372.538C578.872 337.727 534.359 325.8 499.547 345.898C464.736 365.996 452.809 410.509 472.907 445.321C493.005 480.132 537.518 492.059 572.33 471.961ZM580.33 485.818C622.794 461.301 637.343 407.002 612.827 364.538C588.31 322.074 534.011 307.525 491.547 332.042C449.083 356.558 434.534 410.857 459.051 453.321C483.567 495.785 537.866 510.334 580.33 485.818Z" fill="black"/>
<path d="M548.272 401.809C552.205 408.62 549.871 417.33 543.059 421.263C536.248 425.196 527.537 422.862 523.605 416.05C519.672 409.239 522.006 400.529 528.818 396.596C535.629 392.663 544.339 394.997 548.272 401.809Z" fill="black"/>
<path fill-rule="evenodd" clip-rule="evenodd" d="M292.282 536.994L410.871 448.231L416.863 456.237L298.274 544.999L292.282 536.994Z" fill="black"/>
<path fill-rule="evenodd" clip-rule="evenodd" d="M301.92 547.089L435.979 488.205L440 497.361L305.942 556.245L301.92 547.089Z" fill="black"/>
<path d="M560.705 377.44C561.983 373.202 566.454 370.803 570.692 372.081C574.93 373.359 577.329 377.831 576.051 382.068L564.231 421.262C562.952 425.5 558.481 427.899 554.243 426.621C550.006 425.343 547.606 420.872 548.884 416.634L560.705 377.44Z" fill="black"/>
<path d="M375.839 460.135C379.791 458.141 384.611 459.729 386.605 463.68C388.598 467.632 387.011 472.452 383.059 474.446L346.51 492.886C342.559 494.88 337.739 493.293 335.745 489.341C333.751 485.389 335.338 480.569 339.29 478.576L375.839 460.135Z" fill="black"/>
<path d="M463.663 255.261C466.721 260.557 464.906 267.329 459.61 270.387C454.313 273.445 447.541 271.63 444.483 266.334C441.425 261.038 443.24 254.265 448.536 251.207C453.833 248.15 460.605 249.964 463.663 255.261Z" fill="black"/>
<path d="M321.714 315.13L327.524 318.719C309.089 342.541 268.551 394.38 257.965 400.771C247.38 407.162 240.368 398.308 237.617 393.948L321.714 315.13Z" fill="#FDBF41"/>
<path d="M354.888 314.722L323.787 319.033C301.528 350.778 249.414 396.262 250.869 402.419C252.034 407.345 260.15 404.758 264.063 402.849L366.056 348.456L354.888 314.722Z" fill="#007FFF"/>
<path fill-rule="evenodd" clip-rule="evenodd" d="M335.105 608.923C369.917 588.824 381.844 544.311 361.746 509.5C341.647 474.688 297.134 462.761 262.323 482.859C227.512 502.958 215.584 547.471 235.683 582.282C255.781 617.094 300.294 629.021 335.105 608.923ZM343.105 622.779C385.57 598.262 400.119 543.964 375.602 501.5C351.086 459.036 296.787 444.486 254.323 469.003C211.859 493.52 197.31 547.818 221.826 590.282C246.343 632.746 300.641 647.296 343.105 622.779Z" fill="black"/>
<path d="M498.898 437.322L259.866 404.424L360.272 346.454L520.701 386.281L498.898 437.322Z" fill="#F4A56F"/>
<path d="M511.622 383.781C513.229 406.926 499.745 428.659 492.802 436.633C503.649 441.684 526.651 451.87 531.884 452.207C537.118 452.545 540.2 446.006 541.088 442.695C550.656 416.644 574.827 357.367 571.422 342.258C568.017 327.149 550.706 351.186 543.709 358.258C536.712 365.33 524.714 383.357 524.714 383.357L511.622 383.781Z" fill="#FF1100"/>
<circle cx="321.5" cy="192.482" r="59.25" fill="#E49A67"/>
<path d="M275.438 229.037L257.938 211.412L341.045 135.62C367.883 122.41 286.372 219.691 275.438 229.037Z" fill="black"/>
<path d="M358.108 131.99L332.699 119.287C268.995 195.887 252.283 192.969 240.988 191.976C213.063 189.522 176.453 219.036 204.732 228.053C252.404 243.254 326.298 171.86 358.108 131.99Z" fill="#FF1100"/>
<circle cx="328.25" cy="189.47" r="6.75" fill="black"/>
<circle cx="369.668" cy="138.407" r="6.75" fill="black"/>
<path d="M260.867 210.544C251.195 199.502 245.967 185.263 246.196 170.587C246.424 155.91 252.094 141.841 262.105 131.106C272.116 120.371 285.756 113.736 300.382 112.485C315.007 111.235 329.575 115.458 341.264 124.338L305.429 171.51L260.867 210.544Z" fill="#FF1100"/>
</svg>
