<svg width="32" height="32" viewBox="0 0 32 32" fill="none" xmlns="http://www.w3.org/2000/svg">
<rect width="32" height="32" rx="16" fill="white"/>
<g clip-path="url(#clip0_327_466935)">
<path d="M25 16C25 20.9706 20.9706 25 16 25C11.0294 25 7 20.9706 7 16C7 11.0294 11.0294 7 16 7C20.9706 7 25 11.0294 25 16Z" fill="white"/>
<path fill-rule="evenodd" clip-rule="evenodd" d="M15.4375 24.419V22.9036L9.8125 18.8127V13.1877L15.4375 9.09676V7.58095C11.0399 7.87041 7.5625 11.5291 7.5625 16C7.5625 20.4709 11.0399 24.1296 15.4375 24.419ZM24.4375 16C24.4375 20.4709 20.9601 24.1296 16.5625 24.419V22.9036L22.1875 18.8127V13.1877L16.5625 9.09676V7.58095C20.9601 7.87041 24.4375 11.5291 24.4375 16ZM25 16C25 20.9706 20.9706 25 16 25C11.0294 25 7 20.9706 7 16C7 11.0294 11.0294 7 16 7C20.9706 7 25 11.0294 25 16ZM17.6702 11.8203C19.3285 12.4836 20.5 14.105 20.5 16.0002C20.5 17.8953 19.3285 19.5167 17.6702 20.18C17.5527 20.9971 16.8497 21.6252 16 21.6252C15.1503 21.6252 14.4473 20.9971 14.3298 20.18C12.6715 19.5167 11.5 17.8953 11.5 16.0002C11.5 14.105 12.6715 12.4836 14.3298 11.8203C14.4473 11.0032 15.1503 10.3752 16 10.3752C16.8497 10.3752 17.5527 11.0032 17.6702 11.8203ZM16.5962 19.6808C16.5962 19.8092 16.4612 19.9377 16.3307 19.9377H15.7998C15.6693 19.9377 15.5343 19.8092 15.5343 19.6808V18.8971C14.4767 18.7687 13.9502 18.1819 13.75 17.3342C13.75 17.2056 13.8153 17.0772 13.9502 17.0772H14.5421C14.677 17.0772 14.7423 17.1414 14.8075 17.2698C14.9425 17.7281 15.2035 18.1177 16.0653 18.1177C16.7268 18.1177 17.188 17.7923 17.188 17.2698C17.188 16.7518 16.927 16.5548 16 16.4262C14.611 16.2338 13.9502 15.8396 13.9502 14.7305C13.9502 13.8869 14.6116 13.236 15.5343 13.1032V12.3238C15.5343 12.1954 15.6693 12.0627 15.7998 12.0627H16.3307C16.4612 12.0627 16.5962 12.1954 16.5962 12.3238V13.1032C17.3882 13.236 17.9193 13.69 18.0498 14.4051C18.0498 14.5379 17.9845 14.6663 17.8496 14.6663H17.323C17.188 14.6663 17.1228 14.6021 17.0575 14.4735C16.927 14.0154 16.5962 13.8227 16 13.8227C15.3384 13.8227 15.0077 14.1481 15.0077 14.6021C15.0077 15.0559 15.2035 15.3171 16.1958 15.4499C17.5894 15.6364 18.25 16.0323 18.25 17.1414C18.25 17.985 17.5884 18.7045 16.5962 18.8971V19.6808Z" fill="black"/>
</g>
<path fill-rule="evenodd" clip-rule="evenodd" d="M11.8545 3.38381C13.345 2.89389 14.938 2.66989 16.5159 2.73037C18.0941 2.79085 19.6577 3.13613 21.1127 3.74413C22.5681 4.35213 23.9149 5.22317 25.0673 6.29773C26.5914 7.71949 27.7748 9.49773 28.4845 11.4868C29.1946 13.4763 29.4311 15.6766 29.1572 17.7713C28.8836 19.866 28.0996 21.8555 26.9137 23.5662C25.7277 25.2769 24.1396 26.7086 22.2743 27.7006C20.409 28.6923 18.266 29.244 16.1537 29.276C14.0413 29.308 11.9594 28.8206 10.0948 27.8952C8.23047 26.9697 6.58311 25.6065 5.33223 23.9038C4.08135 22.2011 3.22695 20.1588 2.88775 18.075C2.54855 15.9908 2.72455 13.8648 3.37447 11.8814C3.86567 10.3819 4.62791 8.96429 5.60455 7.73581H4.12007V5.28205H9.93671V10.7137H7.48295V9.22957C6.68295 10.2356 6.05831 11.3969 5.65607 12.6257C5.12391 14.2513 4.98055 15.9953 5.25607 17.6971C5.59847 19.8139 6.58855 21.8651 8.06631 23.4459C9.83399 25.3364 12.2993 26.5544 14.8657 26.8209C17.4317 27.0875 20.0989 26.403 22.217 24.9288C24.3351 23.4545 25.9047 21.1905 26.5418 18.69C27.1789 16.1896 26.8836 13.4526 25.7348 11.1422C24.586 8.83181 22.5834 6.94861 20.1889 5.95917C17.7943 4.96941 15.0074 4.87405 12.6036 5.66381L11.8545 3.38381Z" fill="url(#paint0_linear_327_466935)"/>
<defs>
<linearGradient id="paint0_linear_327_466935" x1="2.04317" y1="13.2972" x2="15.2219" y2="29.5766" gradientUnits="userSpaceOnUse">
<stop stop-color="#FF1100"/>
<stop offset="0.34375" stop-color="#FDBF41"/>
<stop offset="0.692708" stop-color="#F1ECE2"/>
<stop offset="1" stop-color="#007FFF"/>
</linearGradient>
<clipPath id="clip0_327_466935">
<rect width="18" height="18" fill="white" transform="translate(7 7)"/>
</clipPath>
</defs>
</svg>
