<svg width="32" height="32" viewBox="0 0 32 32" fill="none" xmlns="http://www.w3.org/2000/svg">
<g id="REN token">
<circle id="Oval" cx="16" cy="16" r="16" fill="white"/>
<g id="REN logo">
<path id="Path" d="M8.93031 9.35526L10.6353 8.37632L10.8646 8.77056L17.151 5.1456L16.6912 4.8814L16.2294 4.61209L16 4.48L5.76001 10.3956V10.6598L8.69991 8.95897L8.93031 9.35526V9.35526Z" fill="black"/>
<path id="Path_2" d="M8.93031 13.0795L13.8568 10.2328L14.0872 10.6332L20.3725 7.0062L19.9127 6.73791L19.4519 6.47372L19.2215 6.34367L5.76001 14.1158V14.38L8.69991 12.6792L8.93031 13.0795V13.0795Z" fill="black"/>
<path id="Path_3" d="M8.93031 14.9412L15.4675 11.1667L15.699 11.563L21.9822 7.9319L21.5235 7.67181L21.0637 7.4025L20.8323 7.2704L5.76001 15.9724V16.2406L8.69991 14.5428L8.93031 14.9412V14.9412Z" fill="black"/>
<path id="Path_4" d="M8.93031 16.7997L17.1244 12.0699L17.3568 12.4662L23.594 8.8658L23.1352 8.59648L22.6734 8.33229L22.444 8.2002L5.76001 17.836V18.1002L8.69991 16.3994L8.93031 16.7997V16.7997Z" fill="black"/>
<path id="Path_5" d="M8.93031 18.6573L18.7361 12.9976L18.9665 13.398L25.2047 9.7925L24.745 9.53036L24.2852 9.26207L24.0538 9.12997L5.76001 19.6925V19.9567L8.69991 18.26L8.93031 18.6573V18.6573Z" fill="black"/>
<path id="Path_6" d="M25.8959 10.1939L25.6655 10.0598L5.76001 21.5562V21.8204L8.69991 20.1236L8.93031 20.5199L18.7361 14.8613L18.9665 15.2576L26.24 11.0602V10.5277V10.3956L25.8959 10.1939V10.1939Z" fill="black"/>
<path id="Path_7" d="M7.02057 22.9489L8.67023 21.9976L8.89961 22.3949L18.689 16.7434L18.9184 17.1448L26.24 12.9167V12.3843V11.8508V11.5866L6.79529 22.8168L7.02057 22.9489V22.9489Z" fill="black"/>
<path id="Path_8" d="M18.689 18.6071L18.9184 19.0085L26.24 14.7804V14.2479V13.7144V13.4502L8.40604 23.7466L8.63746 23.8787L10.3107 22.91L10.5421 23.3114" fill="black"/>
<path id="Path_9" d="M10.2472 24.8105L11.9224 23.8397L12.1518 24.2401L18.689 20.4636L18.9184 20.865L26.24 16.6379V16.1044V15.5761V15.3088L10.0137 24.6743L10.2472 24.8105V24.8105Z" fill="black"/>
<path id="Path_10" d="M11.8569 25.7403L13.5322 24.7736L13.7636 25.1699L18.689 22.3273L18.9184 22.7236L26.24 18.4965V17.9681V17.4346V17.1704L11.6275 25.6082L11.8569 25.7403V25.7403Z" fill="black"/>
<path id="Path_11" d="M13.2393 26.537L13.4697 26.6691L15.1481 25.7014L15.3744 26.1018L18.689 24.1848L18.9184 24.5852L26.24 20.3581V19.8246V19.2922V19.0269L13.2393 26.537V26.537Z" fill="black"/>
<path id="Path_12" d="M15.0794 27.6029L16.7537 26.6301L16.9841 27.0316L18.689 26.0434L18.9184 26.4438L26.24 22.2208V21.6883V21.1548V20.8906L14.849 27.4708L15.0794 27.6029V27.6029Z" fill="black"/>
<path id="Path_13" d="M18.7628 6.07437L18.3009 5.81017V5.81017L17.8422 5.54598L17.6118 5.40979L5.76001 12.2522V12.5164L8.69991 10.8216L8.93031 11.2159L12.245 9.30304L12.4815 9.70445L18.7628 6.07437V6.07437Z" fill="black"/>
</g>
</g>
</svg>
