<svg width="516" height="516" viewBox="0 0 516 516" fill="none" xmlns="http://www.w3.org/2000/svg">
<g clip-path="url(#clip0_230_2)">
<rect x="2" y="2" width="512" height="512" fill="#E6E6E6"/>
<mask id="mask0_230_2" style="mask-type:alpha" maskUnits="userSpaceOnUse" x="41" y="22" width="510" height="670">
<path d="M551 29.8206C551 25.5014 547.499 22 543.179 22H48.8211C44.5019 22 41.0005 25.5014 41.0005 29.8206V683.398C41.0005 687.717 44.5019 691.219 48.8211 691.219H543.179C547.499 691.219 551 687.717 551 683.398V29.8206Z" fill="#9659E2"/>
</mask>
<g mask="url(#mask0_230_2)">
<path fill-rule="evenodd" clip-rule="evenodd" d="M186.125 66.4155C179.118 78.4712 176.701 88.0638 176.891 95.5951C177.08 103.13 179.88 108.783 183.635 112.977C187.421 117.206 192.215 119.987 196.351 121.614C198.414 122.426 200.271 122.934 201.702 123.193C202.419 123.323 202.997 123.385 203.42 123.398C203.766 123.409 203.91 123.384 203.918 123.386C205.734 122.764 207.382 123.436 208.558 124.301C209.73 125.163 210.744 126.419 211.583 127.685C213.278 130.244 214.655 133.453 215.415 135.62L216.121 137.632L214.144 138.431C188.764 148.685 173.795 168.415 165.383 189.082C156.956 209.787 155.178 231.291 156.123 244.69L156.28 246.912L154.059 247.076C121.615 249.469 107.074 272.97 103.877 284.205L103.873 284.217L103.869 284.229C98.2309 303.226 100.239 319.812 107.182 334.224C114.152 348.692 126.161 361.096 140.705 371.513C169.816 392.364 208.6 404.905 235.462 410.036L238.834 410.68L236.88 413.502C225.753 429.572 223.694 450.312 225.821 469.991C227.944 489.638 234.206 507.884 239.307 518.625L242.027 524.353L236.316 521.595C231.351 519.197 224.178 517.199 218.458 518.414C215.684 519.004 213.316 520.33 211.607 522.706C209.873 525.115 208.651 528.833 208.651 534.494C208.651 556.425 226.335 567.763 235.896 570.92C240.733 569.43 250.022 566.373 258.95 563.399C260.034 562.992 261.077 562.646 262.08 562.355C266.624 560.837 270.907 559.397 274.254 558.268L271.937 516.726L276.39 516.373L281.609 567.067L277.456 568.422C276.734 567.185 272.894 563.9 263.408 566.623C262.43 566.95 261.44 567.28 260.445 567.611C259.205 568.08 257.89 568.642 256.497 569.31C252.188 571.379 249.688 573.937 248.424 576.668C247.158 579.404 247.005 582.585 247.901 586.131C249.72 593.326 255.75 601.532 264.028 608.862C271.646 615.607 283.019 616.129 293.852 613.937C299.205 612.853 304.273 611.134 308.422 609.326C312.615 607.498 315.718 605.645 317.23 604.36C317.465 604.16 317.832 603.652 318.165 602.56C318.488 601.503 318.717 600.106 318.838 598.393C319.081 594.972 318.876 590.609 318.384 585.866C317.403 576.398 315.319 565.761 313.696 558.862L312.832 555.189L351.176 565.817L350.21 568.151C344.225 582.603 346.241 591.217 350.354 596.264C354.583 601.454 361.567 603.567 366.893 603.825C396.133 602.057 415.439 580.752 427.736 554.024C440.033 527.292 445.023 495.693 445.824 474.768L445.849 474.109L446.228 473.57C450.618 467.311 455.42 455.309 459.668 442.574C463.877 429.958 467.447 416.926 469.449 408.769C471.064 400.418 472.64 387.813 472.172 377.065C471.936 371.661 471.19 366.905 469.785 363.426C468.379 359.947 466.514 358.177 464.227 357.772C463.221 357.594 462.012 357.822 460.529 358.694C459.032 359.574 457.392 361.035 455.648 363.059C452.161 367.108 448.562 373.052 445.093 379.914C438.172 393.608 432.008 410.481 428.453 421.844L427.291 425.559L424.669 422.681C407.56 403.903 382.256 389.594 371.778 384.816L368.926 383.516L371.086 381.244C405.863 344.658 412.169 302.603 405.894 264.743C399.77 227.787 381.658 194.911 366.388 175.365C359.302 179.911 352.225 186.994 347.197 197.749L343.042 196.129C344.084 192.833 346.447 187.715 350.205 182.778C353.934 177.881 359.139 173.027 365.939 170.402C374.684 165.303 383.299 163.571 388.645 163.571H389.323L389.887 163.948C408.015 176.066 421.58 175.808 425.606 174.537C440.617 169.175 446.886 160.545 448.93 152.179C450.993 143.731 448.841 135.162 446.158 129.805C437.206 118.204 426.826 111.895 415.917 109.243C404.915 106.568 393.214 107.576 381.689 110.881C358.592 117.503 336.654 133.219 323.529 145.726L322.147 147.042L320.631 145.884C318.921 144.578 316.01 143.282 312.185 142.073C308.414 140.882 303.959 139.835 299.321 138.94C290.046 137.151 280.203 135.998 273.985 135.486L272.362 135.353L271.992 133.768C267.475 114.445 253.071 93.2956 246.376 85.1054C230.967 67.4121 217.559 60.9772 207.294 59.8082C197.176 58.656 189.823 62.5768 186.125 66.4155ZM370.291 173.104C385.842 193.171 404.084 226.485 410.303 264.012C416.629 302.183 410.514 344.797 376.42 382.076C387.77 387.664 409.267 400.363 425.349 416.887C429.048 405.606 434.744 390.484 441.105 377.898C444.632 370.919 448.424 364.599 452.262 360.143C454.181 357.915 456.188 356.063 458.264 354.842C460.353 353.614 462.644 352.953 465.006 353.372C469.455 354.16 472.244 357.583 473.928 361.752C475.613 365.921 476.392 371.266 476.636 376.871C477.126 388.117 475.482 401.127 473.826 409.673L473.816 409.727L473.803 409.781C471.779 418.029 468.17 431.21 463.908 443.988C459.786 456.343 454.96 468.615 450.264 475.587C449.371 496.908 444.281 528.752 431.795 555.892C419.197 583.277 398.773 606.432 367.04 608.293L366.926 608.299L366.811 608.295C360.752 608.03 352.249 605.664 346.889 599.087C341.668 592.679 339.9 582.887 345.158 568.786L318.873 561.501C320.352 568.312 321.984 577.252 322.829 585.405C323.332 590.254 323.565 594.911 323.296 598.709C323.162 600.606 322.897 602.368 322.44 603.866C321.993 605.329 321.293 606.772 320.124 607.765C318.128 609.462 314.566 611.522 310.208 613.422C305.806 615.341 300.437 617.163 294.739 618.317C283.471 620.597 270.287 620.373 261.066 612.208C252.505 604.628 245.708 595.688 243.569 587.227C242.486 582.945 242.572 578.672 244.369 574.791C244.737 573.995 245.172 573.226 245.675 572.487C241.909 573.714 238.681 574.746 236.534 575.398L235.885 575.595L235.236 575.398C224.978 572.284 204.182 559.777 204.182 534.494C204.182 528.226 205.533 523.495 207.979 520.095C210.45 516.662 213.871 514.82 217.529 514.043C222.608 512.964 228.255 513.903 233.008 515.461C228.277 504.163 223.258 487.866 221.377 470.471C219.313 451.369 221.004 430.636 231.365 413.779C204.307 408.212 166.751 395.665 138.102 375.146C123.181 364.459 110.556 351.523 103.156 336.163C95.7306 320.751 93.6322 303.024 99.5818 282.97C103.078 270.703 118.282 246.253 151.537 242.813C150.884 228.772 152.966 207.735 161.244 187.397C169.756 166.482 184.886 146.174 210.44 135.135C209.752 133.492 208.851 131.653 207.857 130.154C207.139 129.069 206.468 128.311 205.91 127.901C205.643 127.704 205.471 127.64 205.395 127.621C205.378 127.617 205.367 127.616 205.361 127.615C204.684 127.856 203.912 127.885 203.279 127.865C202.58 127.843 201.776 127.748 200.905 127.591C199.16 127.275 197.022 126.681 194.714 125.773C190.111 123.962 184.671 120.834 180.305 115.958C175.909 111.046 172.641 104.398 172.423 95.7073C172.206 87.0599 175.011 76.5761 182.396 63.9387L182.522 63.7227L182.693 63.54C187.264 58.6514 196.07 54.0322 207.799 55.368C219.531 56.704 233.889 63.9536 249.77 82.1971L249.792 82.2228L249.814 82.2493C256.477 90.3936 270.824 111.3 275.955 131.171C282.303 131.747 291.464 132.873 300.167 134.552C304.9 135.465 309.538 136.55 313.531 137.812C316.66 138.801 319.527 139.939 321.75 141.263C335.317 128.665 357.197 113.254 380.458 106.585C392.492 103.134 405.01 101.992 416.972 104.9C428.976 107.819 440.262 114.778 449.83 127.249L449.955 127.412L450.048 127.594C453.119 133.617 455.676 143.392 453.271 153.24C450.824 163.259 443.334 172.961 427.071 178.759L427.038 178.771L427.004 178.782C421.388 180.584 406.631 180.316 387.987 168.05C383.794 168.176 377.231 169.496 370.291 173.104ZM276.441 562.246C276.504 562.271 276.566 562.297 276.628 562.323L276.614 562.188C276.557 562.207 276.499 562.227 276.441 562.246Z" fill="black"/>
<path d="M235.033 412.228C180.934 401.895 78.5323 361.703 101.718 283.591C105.099 271.709 120.266 247.325 153.884 244.845C151.952 217.464 161.13 157.434 213.297 136.356C211.848 132.223 208.08 124.267 204.602 125.507C200.255 127.057 155.333 114.658 184.315 65.0632C192.527 56.2808 216.774 47.705 248.075 83.6613C254.837 91.9271 269.521 113.418 274.158 133.256C286.717 134.289 313.863 137.906 321.977 144.105C348.544 118.791 410.951 80.2516 448.047 128.607C453.844 139.972 457.611 165.493 426.311 176.652C421.481 178.202 407.183 178.202 388.635 165.803C383.663 165.803 375.364 167.445 366.899 172.42C398.296 211.544 443.41 308.388 372.695 382.78C383.322 387.626 408.922 402.089 426.311 421.174C433.463 398.311 451.135 353.183 464.607 355.569C478.078 357.955 474.897 392.347 471.623 409.246C467.6 425.647 457.252 461.729 448.047 474.85C446.43 517.096 427.936 602.481 366.899 606.059C355.499 605.562 335.787 597.113 348.136 567.293L315.861 558.347C319.135 572.263 324.28 601.288 318.667 606.059C311.651 612.023 279.376 625.443 262.537 610.532C245.698 595.622 236.883 576.239 255.521 567.293C256.983 566.591 258.371 565.998 259.687 565.503C250.329 568.62 240.528 571.845 235.875 573.257C226.052 570.275 206.407 558.347 206.407 534.491C206.407 510.634 226.988 514.611 237.278 519.581C226.894 497.712 211.907 445.626 235.033 412.228Z" fill="#F7C645"/>
<path d="M251.954 211.368C273.415 220.312 261.969 260.554 251.954 272.478C254.815 262.045 257.963 239.986 247.662 235.217C237.361 230.447 230.97 245.153 229.062 253.102C232.496 214.945 245.754 209.381 251.954 211.368Z" fill="black"/>
<path d="M192.626 204.383C206.283 209.352 198.999 231.709 192.626 238.334C194.447 232.538 196.45 220.283 189.895 217.633C183.339 214.983 179.273 223.153 178.059 227.569C180.244 206.371 188.681 203.279 192.626 204.383Z" fill="black"/>
<path d="M163.573 283.257C147.563 272.551 139.113 275.823 136.889 278.797C131.553 283.257 130.219 311.51 148.897 315.97C163.84 319.539 173.802 311.51 176.915 307.049C179.139 303.579 179.583 293.963 163.573 283.257Z" fill="black"/>
<path fill-rule="evenodd" clip-rule="evenodd" d="M246.414 328.804C247.362 329.595 247.489 331.004 246.698 331.952C233.623 347.619 218.683 353.003 205.283 353.233C191.988 353.461 180.336 348.618 173.599 344.027C172.58 343.332 172.316 341.942 173.011 340.922C173.706 339.902 175.096 339.639 176.116 340.334C182.212 344.488 192.973 348.974 205.207 348.765C217.336 348.557 231.042 343.738 243.267 329.088C244.058 328.141 245.467 328.014 246.414 328.804Z" fill="black"/>
<path d="M366.899 172.42C375.364 167.445 383.663 165.803 388.635 165.803C407.183 178.202 421.481 178.202 426.311 176.652C457.611 165.493 453.844 139.972 448.047 128.607C410.951 80.2516 348.544 118.791 321.978 144.105C313.863 137.906 286.717 134.289 274.158 133.256C269.521 113.418 254.837 91.9271 248.075 83.6613C216.774 47.705 192.527 56.2808 184.315 65.0632C155.334 114.658 200.255 127.057 204.602 125.507C208.08 124.267 211.848 132.223 213.297 136.356C161.13 157.434 151.952 217.464 153.884 244.845C120.266 247.325 105.099 271.709 101.718 283.591C78.5323 361.703 180.934 401.895 235.033 412.228C211.907 445.626 226.894 497.712 237.278 519.581C226.988 514.611 206.407 510.634 206.407 534.491C206.407 558.347 226.052 570.275 235.875 573.257C240.528 571.845 250.329 568.62 259.687 565.502M366.899 172.42C358.917 177.111 350.789 184.765 345.163 196.8C347.095 190.686 354.147 177.251 366.899 172.42ZM366.899 172.42C398.296 211.543 443.41 308.388 372.695 382.78C383.322 387.626 408.922 402.089 426.311 421.174C433.463 398.311 451.135 353.183 464.607 355.569C478.078 357.955 474.897 392.347 471.623 409.246C467.6 425.647 457.252 461.729 448.047 474.85C446.43 517.096 427.936 602.481 366.899 606.059C355.499 605.562 335.787 597.113 348.136 567.293L315.861 558.347C319.135 572.263 324.28 601.288 318.667 606.059C311.651 612.023 279.376 625.443 262.537 610.532C245.698 595.622 236.883 576.239 255.521 567.293C256.983 566.591 258.371 565.998 259.687 565.502M259.687 565.502C260.75 565.102 261.765 564.766 262.735 564.486M259.687 565.502C260.711 565.162 261.729 564.822 262.735 564.486M262.735 564.486C272.813 561.578 277.945 564.839 279.376 567.293L274.158 516.599L276.57 559.838C273.038 561.032 268.064 562.706 262.735 564.486Z" stroke="black" stroke-width="8"/>
</g>
</g>
<rect x="2" y="2" width="512" height="512" rx="256" stroke="#9F9F9F" stroke-width="3" stroke-dasharray="22 2"/>
<defs>
<clipPath id="clip0_230_2">
<rect x="2" y="2" width="512" height="512" rx="256" fill="white"/>
</clipPath>
</defs>
</svg>
