<svg width="240" height="240" viewBox="0 0 240 240" fill="none" xmlns="http://www.w3.org/2000/svg">
<g clip-path="url(#clip0_6308_3745)">
<g clip-path="url(#clip1_6308_3745)">
<rect x="0.231934" y="-0.5" width="240" height="240" rx="120" fill="white"/>
<path d="M76.2176 112.376L75.0227 114.209C61.5452 134.884 64.5554 161.961 82.2597 179.307C92.6749 189.513 106.325 194.616 119.976 194.617C119.976 194.617 119.976 194.617 76.2176 112.376Z" fill="#00A3FF"/>
<path opacity="0.6" d="M119.964 137.371L76.2051 112.376C119.964 194.617 119.964 194.617 119.964 194.617C119.964 176.706 119.964 156.181 119.964 137.371Z" fill="#00A3FF"/>
<path opacity="0.6" d="M163.782 112.376L164.977 114.209C178.455 134.884 175.444 161.961 157.74 179.307C147.325 189.513 133.674 194.616 120.023 194.617C120.023 194.617 120.023 194.617 163.782 112.376Z" fill="#00A3FF"/>
<path opacity="0.2" d="M120.019 137.371L163.777 112.376C120.019 194.617 120.019 194.617 120.019 194.617C120.019 176.706 120.019 156.181 120.019 137.371Z" fill="#00A3FF"/>
<path opacity="0.2" d="M120.035 81.5322V124.642L157.728 103.101L120.035 81.5322Z" fill="#00A3FF"/>
<path opacity="0.6" d="M120.024 81.5322L82.3032 103.101L120.024 124.642V81.5322Z" fill="#00A3FF"/>
<path d="M120.024 45.2778L82.3032 103.115L120.024 81.4865V45.2778Z" fill="#00A3FF"/>
<path opacity="0.6" d="M120.035 81.4794L157.757 103.109L120.035 45.2427V81.4794Z" fill="#00A3FF"/>
</g>
</g>
<defs>
<clipPath id="clip0_6308_3745">
<rect width="240" height="240" fill="white"/>
</clipPath>
<clipPath id="clip1_6308_3745">
<rect width="240" height="240" fill="white"/>
</clipPath>
</defs>
</svg>
