<svg width="32" height="32" viewBox="0 0 32 32" fill="none" xmlns="http://www.w3.org/2000/svg">
<circle cx="16" cy="16" r="16" fill="#3B6FEF"/>
<path d="M13.8168 25.4887C12.5366 25.4886 11.287 25.4904 10.0374 25.488C9.07045 25.4862 8.52763 24.832 8.67701 23.8749C9.0938 21.2042 9.50422 18.5325 9.91653 15.8611C9.92101 15.832 9.91709 15.8017 9.91709 15.7451C9.42197 15.7451 8.93403 15.7467 8.4461 15.7447C7.83598 15.7423 7.43933 15.3852 7.43751 14.8403C7.43568 14.294 7.83272 13.9297 8.43714 13.9271C8.94739 13.9249 9.45781 13.9194 9.96783 13.9304C10.1576 13.9344 10.2416 13.8889 10.2671 13.6816C10.333 13.1469 10.4286 12.6158 10.5196 12.0371C10.0701 12.0371 9.6463 12.0404 9.22256 12.0354C9.05687 12.0335 8.88796 12.0299 8.72648 11.9975C8.3106 11.9139 8.01683 11.5475 8.01115 11.1294C8.00524 10.6949 8.29568 10.2921 8.73216 10.2415C9.19475 10.188 9.6662 10.2096 10.1338 10.2014C10.3503 10.1976 10.567 10.2007 10.8067 10.2007C10.9379 9.3689 11.0669 8.56042 11.1928 7.75145C11.3094 7.00222 11.7985 6.57158 12.5612 6.57005C14.4148 6.56634 16.2685 6.55384 18.1219 6.57247C21.2383 6.60379 23.8269 8.72092 24.4753 11.743C25.196 15.1021 22.8766 18.5996 19.4917 19.2354C19.0245 19.3231 18.5425 19.349 18.0661 19.3659C17.454 19.3876 16.8405 19.3712 16.2014 19.3712C16.0724 20.1679 15.9465 20.9453 15.8207 21.7228C15.6747 22.6259 15.5359 23.5302 15.3807 24.4317C15.2595 25.1353 14.7357 25.488 13.8168 25.4887ZM14.1043 20.8685C14.2175 20.1706 14.3362 19.4735 14.4423 18.7746C14.5662 17.9593 15.0312 17.5593 15.8614 17.549C16.8394 17.537 17.8231 17.5742 18.7938 17.4812C20.8611 17.2832 22.6496 15.368 22.7567 13.3219C22.9012 10.5628 20.8718 8.41896 18.1049 8.4128C16.4905 8.40921 14.8761 8.41294 13.2617 8.41337C13.1606 8.41339 13.0595 8.41337 12.943 8.41337C12.8489 9.02895 12.7603 9.60858 12.6662 10.2242C12.8346 10.2242 12.9474 10.224 13.0602 10.2242C14.7058 10.2279 16.3515 10.2263 17.997 10.2406C18.2845 10.2431 18.5826 10.2757 18.8565 10.3582C20.1437 10.746 20.9864 12.0362 20.8061 13.3066C20.6037 14.7325 19.4713 15.7391 18.0476 15.7432C16.0791 15.7489 14.1106 15.7448 12.1421 15.7449C12.0304 15.745 11.9187 15.7449 11.7906 15.7449C11.3796 18.3914 10.9735 21.0073 10.5687 23.6138C10.6113 23.6375 10.6291 23.6561 10.6469 23.6561C11.5946 23.6595 12.5423 23.665 13.4899 23.6553C13.5566 23.6546 13.6688 23.5484 13.6809 23.4777C13.8262 22.6271 13.9566 21.7739 14.1043 20.8685ZM17.1027 12.0532C15.5331 12.0532 13.9635 12.0532 12.3717 12.0532C12.2737 12.6835 12.179 13.2927 12.0804 13.9268C12.9811 13.9268 13.8441 13.9268 14.7072 13.9268C15.8211 13.9267 16.9351 13.9329 18.049 13.9235C18.579 13.919 18.9923 13.5023 18.9993 13C19.0065 12.4861 18.5823 12.0661 18.0396 12.0558C17.7482 12.0503 17.4567 12.0539 17.1027 12.0532Z" fill="#FDFEFF"/>
</svg>
