<svg width="200" height="200" viewBox="0 0 200 200" fill="none" xmlns="http://www.w3.org/2000/svg"><path style="fill:#b5ffa5;stroke-width:3.125" d="M200 100a100 100 0 0 1-100 100A100 100 0 0 1 0 100 100 100 0 0 1 100 0a100 100 0 0 1 100 100Z"/><path d="M40.125 26.007v26.288h.006l31.146 36.462V52.094h57.843v.2h-.293L97.394 89.088h31.048l31.427-36.792h.006V26.007Zm31.152 85.236L40.13 147.705h-.006v26.288h119.75v-26.288h-.006l-30.944-36.224H97.882l30.768 36.023H71.277Z" style="fill:#020212;fill-opacity:1;stroke-width:3.125"/></svg>