<?xml version="1.0" encoding="UTF-8"?>
<svg id="Calque_1" data-name="Calque 1" xmlns="http://www.w3.org/2000/svg" xmlns:xlink="http://www.w3.org/1999/xlink" viewBox="0 0 1003.63 1003.63">
  <defs>
    <style>
      .cls-1 {
        fill: url(#Dégradé_sans_nom_2);
      }

      .cls-2 {
        fill: url(#Dégradé_sans_nom_4-3);
      }

      .cls-3 {
        clip-path: url(#clippath);
      }

      .cls-4 {
        fill: none;
      }

      .cls-5 {
        fill: url(#Dégradé_sans_nom_4);
      }

      .cls-6 {
        fill: url(#Dégradé_sans_nom_4-2);
      }

      .cls-7 {
        fill: #205081;
        stroke: #fff;
        stroke-miterlimit: 10;
        stroke-width: 10px;
      }
    </style>
    <clipPath id="clippath">
      <path class="cls-4" d="m325.79,644.52c5.34.53,10.93-1.17,24.65,0,37.14,3.18,59.81,21.15,71.7,26.88,60.56,29.22,141.77-112.09,241.98-100.84,48.74,5.48,85.67,45.66,120.02,67.74,33.53,21.54,48.53,14.29,56.98,10.68,39.47-16.77,35.69-108.06,33.74-146.9-7.96-157.69-16.94-335.32-144.39-402.74-162.5-85.99-420.57,58.47-474.93,238.12-40.04,132.32,24.76,302.5,70.25,307.06Z"/>
    </clipPath>
    <linearGradient id="Dégradé_sans_nom_2" data-name="Dégradé sans nom 2" x1="591.58" y1="845.15" x2="591.58" y2="1356.97" gradientTransform="translate(-381.26 1084.69) rotate(23.23) scale(1 -1)" gradientUnits="userSpaceOnUse">
      <stop offset="0" stop-color="#11a9df"/>
      <stop offset=".98" stop-color="#fff"/>
    </linearGradient>
    <linearGradient id="Dégradé_sans_nom_4" data-name="Dégradé sans nom 4" x1="325.76" y1="383.43" x2="847.63" y2="383.43" gradientTransform="translate(0 1005.63) scale(1 -1)" gradientUnits="userSpaceOnUse">
      <stop offset="0" stop-color="#11a9df"/>
      <stop offset=".98" stop-color="#11a9df"/>
    </linearGradient>
    <linearGradient id="Dégradé_sans_nom_4-2" data-name="Dégradé sans nom 4" x1="115.19" y1="326.01" x2="881.97" y2="326.01" xlink:href="#Dégradé_sans_nom_4"/>
    <linearGradient id="Dégradé_sans_nom_4-3" data-name="Dégradé sans nom 4" x1="460.49" y1="298.72" x2="912" y2="298.72" xlink:href="#Dégradé_sans_nom_4"/>
  </defs>
  <circle class="cls-7" cx="501.81" cy="501.81" r="496.81"/>
  <g id="Layer_1-2" data-name="Layer 1-2">
    <g>
      <g class="cls-3">
        <path class="cls-1" d="m732.67,509.34c-29.96,20.13-59.88,40.29-89.84,60.41,4.07-1.03,13.26-2.69,23.59,1.03,4.99,1.8,8.74,4.32,11.32,6.37-.5.96-1.17,2.26-2.05,3.82-.28.46-.53.96-.85,1.41-1.17,1.91-2.44,3.78-3.82,5.59-.35.5-.74.96-1.13,1.45-2.12,2.72-4.49,5.31-7.04,7.82-1.03.99-2.09,1.95-3.15,2.87-6.19,5.48-13.3,10.29-20.98,14.29-.74.42-1.49.81-2.26,1.17-2.37,1.2-4.81,2.3-7.25,3.32-.81.35-1.59.67-2.41.99-63.24,25.22-150.54,2.79-107.42-97.66l78.67-183.3,83.51,35.83-8.88,20.69,23.42,10.05,27.84-64.84-23.42-10.05-8.88,20.69-83.51-35.83,14.82-34.56c23.77,3.61,47.93-9.09,57.83-32.19,11.81-27.52-.92-59.35-28.44-71.17-27.52-11.81-59.35.92-71.17,28.44-10.19,23.77-2.09,50.83,18.11,65.3l-14.64,34.13-83.44-35.8,8.88-20.69-23.42-10.05-27.84,64.84,23.42,10.05,8.88-20.69,83.44,35.8-78.67,183.3c-8.98,20.9-19.38,35.41-30.49,44.67-1.87,1.52-3.71,2.94-5.62,4.21-.92.6-1.87,1.2-2.83,1.77-1.91,1.13-3.78,2.12-5.69,2.97-19.38,8.6-39.76,3.86-57.58-8.52-2.51-1.77-4.95-3.64-7.36-5.69-3.18-2.69-6.23-5.62-9.13-8.7-1.7-1.84-3.4-3.75-5.02-5.69,0-.04-.07-.11-.11-.11-1.06-1.27-2.09-2.58-3.08-3.89-2.58-3.4-5.06-7-7.32-10.68-1.84-2.94-3.54-5.98-5.13-9.06-.81-1.56-1.56-3.15-2.3-4.7-.04-.07-.04-.14-.11-.18-2.55-5.45-4.74-11.04-6.47-16.73-.25-.85-.5-1.63-.74-2.48-.5-1.63-.88-3.29-1.27-4.92-.6-2.48-1.1-4.99-1.52-7.46-.14-.81-.28-1.63-.39-2.48-.25-1.63-.42-3.29-.6-4.92-.21-2.41-.35-4.81-.39-7.18v-.5c0-1.52,0-3.04.07-4.53.11-2.41.28-4.81.57-7.18.11-.78.21-1.56.35-2.33.21-1.38.5-2.72.78-4.07.64-2.87,1.45-5.73,2.44-8.45,3.15.11,6.76.6,10.61,1.8,14.89,4.67,22.81,16.73,25.5,21.36-8.35-37.1-16.7-74.21-25.04-111.35-22.99,32.93-45.95,65.83-68.94,98.76,4.35-4.35,15.32-14.04,31.23-15.21,3.71-.28,7.11,0,10.08.46v.11c-.6,3.29-1.17,6.51-1.66,9.76-.78,5.48-1.38,11-1.73,16.45-.21,3.61-.32,7.22-.28,10.79-.25,39.26,11.07,77.61,32.05,110.22,3.25,4.81,6.51,9.66,10.08,14.22l.11.25c7,8.91,14.79,17.37,23.24,25.18,22.39,25.4,46.83,58.89,35.3,85.74,11.5-26.81,52.63-32.22,86.48-33.46,11.5.74,22.99.53,34.27-.53l.21-.11c5.77-.57,11.64-1.45,17.23-2.48,38.13-7.22,73.71-25.43,102.12-52.63,2.58-2.48,5.06-5.02,7.57-7.68,5.98-6.44,11.6-13.34,16.73-20.69,2.19,1.03,4.49,2.41,6.72,4.28,10.72,9.06,11.64,23.13,11.74,27.13,7.36-36.11,14.68-72.23,22.04-108.34l.07-.04Zm-113.01-255.63c-14.57-6.26-21.29-23.1-15.03-37.67s23.1-21.29,37.67-15.03c14.57,6.26,21.29,23.1,15.03,37.67-6.26,14.57-23.1,21.29-37.67,15.03Z"/>
      </g>
      <path class="cls-5" d="m325.79,644.52c24.12-3.04,49.17,1.2,71.45,11.5,5.59,2.55,10.97,5.48,16.27,8.45,5.34,2.97,10.4,6.12,15.99,7.43,5.55,1.49,11.43,1.56,17.16.6,5.73-.92,11.35-2.87,16.77-5.2,10.82-4.85,20.94-11.39,30.81-18.25,9.87-6.9,19.49-14.29,29.15-21.61,19.35-14.64,39.01-29.32,60.66-41.1,10.82-5.84,22.21-10.86,34.13-14.4,11.88-3.54,24.41-5.52,36.93-5.16,12.52.32,24.97,3.04,36.5,7.78,11.57,4.67,22.21,11.18,32.08,18.46,19.84,14.54,36.75,32.15,55.99,46.66,4.85,3.61,9.73,7.15,14.96,9.97,5.2,2.83,10.82,5.02,16.7,5.73,5.87.74,11.88.07,17.65-1.66,5.77-1.7,11.21-4.32,16.48-7.29l.39.64c-5.13,3.25-10.61,6.12-16.45,8.06-5.8,1.95-12.06,2.94-18.29,2.33-6.23-.53-12.24-2.62-17.72-5.41-5.52-2.79-10.65-6.19-15.67-9.69-10.01-7.07-19.28-15-28.58-22.78-9.3-7.78-18.64-15.49-28.47-22.32-9.87-6.83-20.2-12.88-31.23-17.23-11-4.35-22.67-6.72-34.45-6.86-11.78-.21-23.56,1.63-34.91,5.06-11.35,3.4-22.28,8.31-32.82,14.01-21.12,11.35-40.57,25.79-60.03,40.25-9.76,7.22-19.53,14.5-29.64,21.4-10.12,6.86-20.62,13.37-32.15,18.15-5.77,2.33-11.78,4.28-18.07,5.13-6.26.88-12.8.64-18.96-1.17-3.08-.88-6.05-2.12-8.81-3.64-2.72-1.49-5.34-3.08-7.96-4.63-5.2-3.11-10.43-6.08-15.81-8.77-10.72-5.41-22.11-9.55-33.96-11.92-11.81-2.33-23.98-3.25-36.11-2.48l.04-.04Z"/>
      <path class="cls-6" d="m872.14,656.06c-6.19,6.15-13.12,11.6-20.66,16.31-7.57,4.63-15.88,8.31-24.65,10.79-4.39,1.17-8.88,2.23-13.48,2.65-4.56.57-9.23.74-13.9.57-4.7-.14-9.37-.88-14.01-1.84-4.6-1.1-9.13-2.51-13.51-4.24-8.74-3.54-16.77-8.28-24.26-13.26-7.5-4.99-14.5-10.33-21.44-15.28-6.93-4.99-13.79-9.66-20.76-13.69-7-3.96-14.15-7.32-21.51-9.76-14.57-5.09-28.62-4.99-42.48-.14-13.87,4.78-27.34,13.87-40.71,23.95-13.37,10.15-26.95,21.19-41.46,31.73-7.25,5.27-14.89,10.26-22.71,15.03-7.96,4.67-16.09,9.13-24.72,12.91-17.16,7.6-35.87,12.59-54.76,14.57-18.96,1.59-37.92.57-56.45-3.68-18.5-4.14-35.9-11.78-51.39-19.28-7.78-3.68-15.21-7.11-22.39-9.55-3.57-1.2-7.15-2.19-10.65-2.83-3.5-.6-7.04-.92-10.58-.88-7.04.21-14.36,1.49-21.61,4.14-7.29,2.51-14.22,6.08-21.19,10.36-6.97,4.28-13.94,9.34-21.22,14.25-7.29,4.92-14.86,9.8-22.71,14.15-7.85,4.35-16.02,8.14-24.3,11.5-4.17,1.56-8.35,3.15-12.56,4.53-4.24,1.31-8.45,2.72-12.73,3.82-8.52,2.26-17.16,4.14-25.82,5.55-8.67,1.31-17.37,2.3-26.1,2.62,33.71-8.45,66-21.58,93.27-41.07,6.83-4.88,13.41-10.08,19.95-15.6,6.58-5.48,13.19-11.21,20.55-16.77,7.32-5.52,15.53-10.61,24.37-14.47,8.77-3.96,18.53-6.76,28.79-7.64,5.13-.35,10.29-.25,15.39.28,5.06.57,9.97,1.63,14.71,2.87,9.41,2.62,17.9,6.15,26,9.44,16.09,6.69,30.88,12.63,46.44,15.49,15.42,3.04,31.48,3.64,47.04,1.98,15.56-1.8,30.77-5.94,45.28-12.45,7.29-3.15,14.4-6.97,21.44-11,7-4.21,13.9-8.7,20.76-13.48,13.79-9.51,27.27-20.23,41.92-30.53,7.36-5.13,14.96-10.19,23.17-14.79,8.17-4.63,17.12-8.63,26.74-11.42,9.59-2.79,19.98-4.21,30.24-3.54,2.55.25,5.13.42,7.64.81l7.46,1.52c4.81,1.38,9.69,2.83,14.04,4.67,8.91,3.57,17.19,8.38,24.9,13.58,7.64,5.23,14.75,10.97,21.4,16.77,13.37,11.5,25.43,23.17,39.47,30.74,3.5,1.87,7.11,3.5,10.82,4.85,3.75,1.24,7.57,2.3,11.53,2.97,7.89,1.41,16.16,1.38,24.37.46,8.21-1.03,16.38-3.25,24.23-6.54,7.92-3.11,15.49-7.36,22.81-12.1l-.04-.04Z"/>
      <path class="cls-2" d="m904.08,672.22c-12.66,15.99-28.44,29.96-46.97,40.11-18.53,10.12-39.9,15.95-61.9,15.49-5.48-.07-10.97-.74-16.41-1.56-5.38-1.03-10.75-2.26-15.95-3.93-10.43-3.18-20.16-7.75-29.5-12.42-18.5-9.44-35.34-19.91-52.74-24.44-8.63-2.26-17.37-3.18-26.14-2.23-1.1.11-2.19.18-3.29.32l-3.29.53c-2.19.28-4.35.92-6.54,1.38-4.32,1.17-8.52,2.69-12.66,4.42-8.28,3.64-16.13,8.67-23.95,14.43-7.78,5.77-15.53,12.24-23.8,18.53-4.1,3.15-8.35,6.26-12.8,9.16-4.42,2.9-8.98,5.73-13.79,8.14-9.51,4.99-19.77,8.6-30.21,10.72-10.47,2.05-21.01,2.65-31.37,2.09-5.2-.32-10.33-.92-15.42-1.77-5.06-.96-10.08-2.09-14.96-3.61,5.09.25,10.15.42,15.21.25,5.02-.11,10.05-.42,14.96-1.06,9.87-1.27,19.56-3.29,28.69-6.51,4.56-1.63,9.02-3.43,13.26-5.62,4.28-2.12,8.42-4.53,12.38-7.18,7.99-5.27,15.39-11.5,22.74-18.15,7.36-6.61,14.68-13.72,22.81-20.52,8.06-6.83,17.12-13.19,27.2-18.18,5.06-2.44,10.36-4.46,15.81-6.08,2.76-.71,5.45-1.52,8.28-2.02l4.17-.78c1.41-.25,2.83-.35,4.24-.53,11.39-1.34,23.17-.25,34.13,2.58,10.93,3.01,21.01,7.5,30.31,12.42,9.34,4.95,18.04,10.15,26.63,15,17.16,9.66,34.35,17.3,52.95,19.1,18.5,1.98,37.99-.99,56.21-7.92,9.16-3.43,18.04-7.85,26.63-12.91,8.6-5.13,16.84-11,24.9-17.23l.18-.04Z"/>
    </g>
  </g>
</svg>