<svg width="120" height="120" viewBox="0 0 120 120" fill="none" xmlns="http://www.w3.org/2000/svg">
<path d="M120 60C120 26.8629 93.1371 0 60 0C26.8629 0 0 26.8629 0 60C0 93.1371 26.8629 120 60 120C93.1371 120 120 93.1371 120 60Z" fill="black"/>
<path d="M66.3511 53.6492V24H49.4127C37.7173 24 28.2373 33.48 28.2373 45.1754C28.2373 56.8708 37.7173 66.3508 49.4127 66.3508H53.6496V53.6446H66.3558L66.3511 53.6492Z" fill="white"/>
<path d="M70.5876 53.6494H66.3507V66.3556H53.6445V96.0048H70.583C82.2784 96.0048 91.7584 86.5248 91.7584 74.8294C91.7584 63.134 82.2784 53.654 70.583 53.654L70.5876 53.6494Z" fill="white"/>
</svg>
