<svg width="240" height="240" viewBox="0 0 240 240" fill="none" xmlns="http://www.w3.org/2000/svg">
<g clip-path="url(#clip0_91_11871)">
<path d="M120 240C186.275 240 240 186.275 240 120C240 53.7258 186.275 0 120 0C53.7258 0 0 53.7258 0 120C0 186.275 53.7258 240 120 240Z" fill="#8237E1"/>
<path d="M173.096 51.585C181.942 52.514 189.375 59.4542 190.034 68.4707C190.513 75.0255 190.543 85.9471 190.034 92.4805C189.439 100.076 183.86 106.725 176.415 108.403C174.005 108.947 167.21 108.356 166.554 110.53L166.486 157.558C165.839 165.726 156.853 175.398 151.279 181.311C147.422 185.404 144.39 188.13 138.443 188.597C125.565 187.728 111.304 189.701 98.5964 188.597C92.1487 188.036 86.2401 183.523 84.0652 177.439C81.1456 169.284 85.6495 159.086 79.1208 151.987C74.1331 146.559 70.4635 148.472 64.5681 146.845C58.6728 145.218 51.0011 136.819 50.4314 130.585C49.8192 123.897 49.8534 110.723 50.4314 104.006C50.6326 101.673 51.3989 99.9554 52.5164 97.9561C63.0142 85.6943 72.0521 69.7935 82.7683 57.9941C86.3389 54.0639 90.5132 52.3901 95.7449 51.7051H95.7361L173.096 51.585ZM97.2996 63.9707C94.3926 64.1933 91.7892 66.4026 91.5193 69.3223C91.1126 73.7492 91.01 84.3078 91.5281 88.6191C91.667 89.7635 92.1374 90.791 92.8376 91.6104C93.7356 92.6633 95.0131 93.3735 96.4558 93.5469C101.674 94.1793 114.174 91.9966 117.855 95.2295C117.86 95.2339 117.866 95.2377 117.871 95.2422C119.112 96.3468 119.66 98.1277 119.81 99.7246C121.163 114.084 118.775 130.551 119.785 145.133C120.139 147.042 121.21 148.761 122.787 149.72C123.477 150.141 124.265 150.417 125.133 150.497C129.573 150.904 139.634 150.972 143.992 150.476C146.937 150.137 149.151 147.684 149.365 144.718L149.545 98.2305C150.058 97.3357 150.349 96.2437 151.086 95.4902C154.618 91.8683 167.419 94.1756 172.685 93.542C174.997 93.2637 176.59 91.8 177.374 89.668C178.5 86.594 178.307 75.6121 178.046 71.8916C178.021 71.5505 177.989 71.1988 177.952 70.8418C177.94 70.7299 177.928 70.6176 177.915 70.5049C177.742 69.0598 177.407 67.5651 176.607 66.4092C176.508 66.2665 176.403 66.1286 176.29 65.9971L176.162 65.8545L176.067 65.7598C176.057 65.7505 176.047 65.7417 176.037 65.7324C175.507 65.2455 174.58 64.7777 173.987 64.3906L97.2996 63.9707Z" fill="#FDFDFE"/>
</g>
<defs>
<clipPath id="clip0_91_11871">
<rect width="240" height="240" fill="white"/>
</clipPath>
</defs>
</svg>
