<svg xmlns="http://www.w3.org/2000/svg" width="32" height="32" viewBox="0 0 32 32">
  <g fill="none" fill-rule="evenodd" transform="translate(0 -1)">
    <path fill="#0657F9" d="M32,17 C32,14.90592 31.58336,12.81184 30.78208,10.87712 C29.9808,8.9424 28.79456,7.16704 27.3136,5.6864 C25.83296,4.20544 24.0576,3.0192 22.12288,2.21792 C20.18816,1.41664 18.09408,1 16,1 C13.90592,1 11.81184,1.41664 9.87712,2.21792 C7.9424,3.0192 6.16704,4.20544 4.6864,5.6864 C3.20544,7.16704 2.0192,8.9424 1.21792,10.87712 C0.41664,12.81184 0,14.90592 0,17 C0,19.09408 0.41664,21.18816 1.21792,23.12288 C2.0192,25.0576 3.20544,26.83296 4.6864,28.3136 C6.16704,29.79456 7.9424,30.9808 9.87712,31.78208 C11.81184,32.58336 13.90592,33 16,33 C18.09408,33 20.18816,32.58336 22.12288,31.78208 C24.0576,30.9808 25.83296,29.79456 27.3136,28.3136 C28.79456,26.83296 29.9808,25.0576 30.78208,23.12288 C31.58336,21.18816 32,19.09408 32,17 Z"/>
    <polygon fill="#FFF" points="15.173 9.776 16.827 9.776 16.827 24.225 15.173 24.225"/>
    <path fill="#FFF" d="M14.23456 16.5728L14.23456 14.84608C12.90816 14.1936 11.99488 12.82848 11.99488 11.25024 11.99488 9.03904 13.78816 7.24576 16 7.24576 18.48352 7.24576 20.2768 9.03904 20.2768 11.25024 20.2768 11.80768 20.16224 12.33856 19.88736 12.96928L19.18112 10.67328 17.76544 11.11584 19.0208 15.89408 23.8944 14.10112 23.30208 12.70368 21.48448 13.32576C21.81344 12.61248 21.87808 12.088 21.87808 11.25024 21.87808 8.15392 19.368 5.64384 16 5.64384 12.90368 5.64384 10.3936 8.15392 10.3936 11.25024 10.3936 13.7296 12.00352 15.83296 14.23456 16.5728zM17.76544 17.42784L17.76544 19.15456C19.09184 19.80736 20.00512 21.17216 20.00512 22.7504 20.00512 24.9616 18.21184 26.75488 16 26.75488 13.51648 26.75488 11.7232 24.9616 11.7232 22.7504 11.7232 22.19296 11.83776 21.66208 12.11264 21.03136L12.81888 23.32736 14.23456 22.8848 12.9792 18.10656 8.1056 19.89984 8.69792 21.29696 10.51552 20.67488C10.18656 21.38816 10.12192 21.91264 10.12192 22.7504 10.12192 25.84672 12.632 28.3568 16 28.3568 19.09632 28.3568 21.6064 25.84672 21.6064 22.7504 21.6064 20.27104 19.99648 18.16768 17.76544 17.42784z"/>
  </g>
</svg>
