<svg width="240" height="240" viewBox="0 0 240 240" fill="none" xmlns="http://www.w3.org/2000/svg">
<g clip-path="url(#clip0_6308_3726)">
<circle cx="120" cy="120" r="120" fill="white"/>
<path d="M195.698 50.3664L189.113 56.9509C204.836 74.1474 213.555 96.6049 213.555 119.906C213.555 143.206 204.836 165.664 189.113 182.86L195.698 189.445C213.176 170.478 222.879 145.63 222.879 119.837C222.879 94.0453 213.176 69.197 195.698 50.23V50.3664Z" fill="#5A5564"/>
<path d="M57.1102 50.9407C74.3057 35.2159 96.7636 26.4956 120.065 26.4956C143.366 26.4956 165.824 35.2159 183.02 50.9407L189.604 44.3562C170.636 26.8689 145.782 17.1602 119.983 17.1602C94.1836 17.1602 69.3292 26.8689 50.3611 44.3562L57.1102 50.9407Z" fill="#5A5564"/>
<path d="M50.9399 182.955C35.2327 165.764 26.5232 143.32 26.5232 120.033C26.5232 96.7469 35.2327 74.3026 50.9399 57.1113L44.3554 50.5269C26.8681 69.495 17.1594 94.3493 17.1594 120.148C17.1594 145.948 26.8681 170.802 44.3554 189.77L50.9399 182.955Z" fill="#5A5564"/>
<path d="M182.954 189.017C165.759 204.742 143.301 213.462 120 213.462C96.6981 213.462 74.2403 204.742 57.0448 189.017L50.4603 195.602C69.4284 213.089 94.2827 222.798 120.082 222.798C145.881 222.798 170.735 213.089 189.703 195.602L182.954 189.017Z" fill="#5A5564"/>
<path d="M161.601 98.0103C160.284 84.2628 148.432 79.6678 133.42 78.2568V59.3076H121.812V77.89H112.552V59.3076H101.043V78.3744H77.5268V90.7721C77.5268 90.7721 86.0913 90.6169 85.9597 90.7721C87.5031 90.6035 89.0517 91.0402 90.2797 91.9902C91.5078 92.9401 92.3195 94.3294 92.5441 95.8657V148.071C92.4717 149.164 91.9682 150.183 91.1444 150.905C90.3206 151.626 89.244 151.991 88.1513 151.918C88.3065 152.05 79.7185 151.918 79.7185 151.918L77.5221 165.779H100.826V185.151H112.406V166.061H121.676V185.062H133.297V165.911C152.891 164.721 166.554 159.89 168.266 141.548C169.649 126.789 162.707 120.195 151.616 117.562C158.375 114.222 162.547 108.07 161.601 98.0103ZM145.328 139.262C145.328 153.673 120.641 152.027 112.777 152.027V126.46C120.66 126.479 145.328 124.217 145.328 139.262ZM139.967 103.24C139.967 116.409 119.362 114.815 112.815 114.815V91.5763C119.362 91.5763 139.967 89.5116 139.967 103.24Z" fill="#F09242"/>
<path d="M119.979 240C53.7059 239.986 0 186.247 0 119.979C0 53.7106 53.7483 0 120.021 0C186.294 0 239.986 53.72 240 119.979C240.014 186.238 186.294 239.986 120.021 240H119.979ZM119.979 9.35938C58.9077 9.40642 9.45345 58.95 9.49107 120.021C9.5287 181.092 59.0817 230.547 120.153 230.509C181.224 230.471 230.617 180.994 230.641 119.984C230.664 58.9735 181.177 9.40642 120.111 9.35938H119.979Z" fill="#282138"/>
</g>
<defs>
<clipPath id="clip0_6308_3726">
<rect width="240" height="240" fill="white"/>
</clipPath>
</defs>
</svg>
