<svg width="240" height="240" viewBox="0 0 240 240" fill="none" xmlns="http://www.w3.org/2000/svg">
<g clip-path="url(#clip0_5_777)">
<circle cx="120" cy="120" r="120" fill="url(#paint0_linear_5_777)"/>
<path d="M140.654 85.3411C145.029 91.4054 146.059 95.0715 147.153 102.367C147.258 103.058 147.963 104.088 147.963 104.298V114.12C152.448 112.962 156.929 111.557 161.204 109.772C164.696 108.317 171.19 103.987 173.886 103.264C176.056 102.683 177.561 103.603 176.509 105.891C176.17 106.628 170.097 111.164 168.925 112.01C165.529 114.477 160.989 117.448 157.432 119.269C155.661 120.176 147.18 123.315 146.585 123.933C146.173 124.359 143.432 133.371 142.695 135.114C139.825 141.92 135.28 149.317 130.786 155.179C125.893 161.564 120.534 169.212 111.421 165.047C105.764 162.461 102.409 150.301 99.0864 144.721C100.13 144.785 100.267 144.035 100.743 143.408C103.077 140.318 104.949 136.021 107.306 133.069C107.792 132.46 108.304 131.966 109.137 131.934C111.833 135.302 114.446 138.721 116.698 142.415L117.806 142.895L126.493 127.37C122.259 127.682 118.135 126.931 114.158 125.54L120.094 114.578C121.55 115.182 129.797 117.127 130.575 116.377C130.699 114.336 131.395 112.29 131.532 110.253C131.619 108.93 131.372 99.0808 131.056 98.5865C134.836 94.7099 136.69 89.0209 140.649 85.3411H140.654Z" fill="#3CA1A4"/>
<path d="M140.653 85.3411C136.694 89.0255 134.841 94.7099 131.06 98.5866C130.621 97.8909 130.525 98.0328 129.792 96.4354C126.406 89.0575 119.856 86.3205 113.027 91.7441C104.125 98.82 111.554 111.017 120.099 114.574L114.162 125.535C108.624 123.595 103.041 119.471 99.6309 114.715C80.2387 87.6845 121.408 58.658 140.658 85.3365L140.653 85.3411Z" fill="#3CA1A4"/>
<path d="M109.135 131.934C108.302 131.97 107.789 132.46 107.304 133.069C104.947 136.021 103.075 140.323 100.741 143.408C100.269 144.035 100.127 144.785 99.0838 144.721C96.4795 140.35 91.8752 134.309 88.5661 130.345C78.1171 117.837 64.9358 107.814 50.4134 100.436C48.1158 96.1379 53.1458 97.3233 55.782 97.8039C76.1491 101.534 96.4246 116.029 109.135 131.929V131.934Z" fill="#3CA1A4"/>
<path d="M186.233 94.1287C192.554 93.346 193.213 100.481 188.599 103.36C181.967 107.498 177.445 95.2134 186.233 94.1287Z" fill="#3CA1A4"/>
</g>
<defs>
<linearGradient id="paint0_linear_5_777" x1="120" y1="0" x2="120" y2="240" gradientUnits="userSpaceOnUse">
<stop stop-color="#CCF3EE"/>
<stop offset="1" stop-color="#E6FBDC"/>
</linearGradient>
<clipPath id="clip0_5_777">
<rect width="240" height="240" fill="white"/>
</clipPath>
</defs>
</svg>
