<svg id="svg" version="1.1" xmlns="http://www.w3.org/2000/svg" style="display: block;" viewBox="0 0 250 250"><path d="M0 0 C82.5 0 165 0 250 0 C250 82.5 250 165 250 250 C167.5 250 85 250 0 250 C0 167.5 0 85 0 0 Z " transform="translate(0,0)" style="fill: #F6F6F6;"/><path d="M0 0 C82.5 0 165 0 250 0 C250 82.5 250 165 250 250 C167.5 250 85 250 0 250 C0 167.5 0 85 0 0 Z M33.375 46.6875 C20.88933811 60.98267811 12.50931422 78.6913492 8 97 C7.7009375 98.03769531 7.401875 99.07539062 7.09375 100.14453125 C-0.21594604 128.13119157 6.63614556 161.02164612 20.9765625 185.71484375 C38.39720013 213.99815696 64.72183864 234.03190531 97 242 C98.01449219 242.2990625 99.02898437 242.598125 100.07421875 242.90625 C128.37507125 250.42529568 160.52988499 243.31929787 185.57421875 229.05859375 C216.08230347 210.72591342 234.17687543 182.96389133 243 149 C250.20122526 120.09222431 243.09435315 89.5478171 228.8359375 64.05078125 C210.14605739 32.99376771 181.32058499 15.05057876 146.80859375 6.1796875 C103.42598912 -2.20171367 62.94972288 15.70693642 33.375 46.6875 Z " transform="translate(0,0)" style="fill: #010101;"/><path d="M0 0 C11.60032593 7.20694698 17.81610843 16.84158085 21.9140625 29.703125 C22.65566508 33.05386952 22.9818617 36.29752406 23.16015625 39.72265625 C23.73407197 50.29910313 26.68750954 59.45131835 34.11328125 67.25 C42.42902799 74.35089485 52.41730563 74.63669251 62.87011719 74.09765625 C70.94452231 73.24345562 78.68256668 68.94318391 84.01171875 62.87109375 C90.33887657 54.53311318 93.09135414 46.35255397 92.01171875 35.87109375 C90.25365285 26.91960821 85.10857276 18.84560365 78.0078125 13.15234375 C68.77691213 7.22722571 57.8293987 5.25074017 47.109375 7.47265625 C43.28804194 8.58370463 40.34404701 9.64954157 37.01171875 11.87109375 C34.32421875 11.49609375 34.32421875 11.49609375 32.01171875 10.87109375 C32.01171875 8.62109375 32.01171875 8.62109375 33.01171875 5.87109375 C35.50365902 4.11662506 38.17907387 2.97241069 41.01171875 1.87109375 C41.9140625 1.51273437 42.81640625 1.154375 43.74609375 0.78515625 C55.14665706 -2.40591051 67.7117444 -0.74061641 78.01171875 4.87109375 C88.37885585 11.26918908 95.95172204 21.0220316 99.01171875 32.87109375 C100.90001808 45.96694822 98.22638548 57.60408166 90.26171875 68.30859375 C82.29759411 77.51058795 71.07178854 83.17328534 58.91796875 84.109375 C46.89096168 84.37143135 35.95866538 82.3637804 27.01171875 73.87109375 C26.08939453 73.00871094 26.08939453 73.00871094 25.1484375 72.12890625 C16.74564855 63.45622044 13.24983242 51.48649181 12.69921875 39.68359375 C11.98263002 29.37665913 8.58369015 20.22554913 1.32421875 12.74609375 C-4.10414362 8.34471885 -10.98004899 5.30016919 -17.98828125 4.87109375 C-18.8596875 4.80921875 -19.73109375 4.74734375 -20.62890625 4.68359375 C-31.28274481 4.24651319 -39.77451451 7.02412762 -47.984375 13.8828125 C-54.68201665 20.52823083 -59.30701789 28.87848716 -59.45727539 38.37890625 C-59.44688232 39.13945313 -59.43648926 39.9 -59.42578125 40.68359375 C-59.41603271 41.47894531 -59.40628418 42.27429688 -59.39624023 43.09375 C-59.0837676 53.46572293 -55.72848614 60.07189242 -48.56640625 67.6015625 C-40.21556977 74.95282916 -32.22805041 77.17079973 -21.390625 77.09765625 C-15.86951293 76.7300047 -10.79484325 75.32904804 -5.8828125 72.77734375 C-3.49122596 71.63332709 -1.60558083 71.72568822 1.01171875 71.87109375 C1.01171875 73.52109375 1.01171875 75.17109375 1.01171875 76.87109375 C-0.52726686 77.66795981 -2.06961909 78.45832516 -3.61328125 79.24609375 C-4.90105469 79.90738281 -4.90105469 79.90738281 -6.21484375 80.58203125 C-15.66120411 84.97259311 -26.44557196 85.54264119 -36.55078125 82.9609375 C-48.01346816 78.41387675 -57.98738789 70.39569847 -63.14453125 58.9921875 C-67.9636584 46.87743731 -68.62764661 34.6693851 -64.0234375 22.2734375 C-58.90650535 11.12645063 -50.32505057 2.80723882 -38.99438477 -1.96948242 C-26.62733101 -6.54124759 -11.73267804 -6.01212969 0 0 Z " transform="translate(126.98828125,85.12890625)" style="fill: #28292A;"/><path d="M0 0 C11.60032593 7.20694698 17.81610843 16.84158085 21.9140625 29.703125 C22.65566508 33.05386952 22.9818617 36.29752406 23.16015625 39.72265625 C23.73407197 50.29910313 26.68750954 59.45131835 34.11328125 67.25 C42.42902799 74.35089485 52.41730563 74.63669251 62.87011719 74.09765625 C70.94452231 73.24345562 78.68256668 68.94318391 84.01171875 62.87109375 C87.76682446 57.92258459 90.02499255 52.7267078 92.01171875 46.87109375 C93.55649079 51.31231337 92.16431978 54.04625211 90.3671875 58.2109375 C84.87760765 68.9844357 76.33442792 75.39650607 64.96484375 79.17578125 C53.92941423 81.77407021 44.53482473 79.38353543 34.76171875 74.12109375 C22.63207592 64.19684052 19.99191585 52.29397906 18.09570312 37.40844727 C16.601884 26.0428359 12.97748252 16.51767747 3.8046875 9.08203125 C-7.27279278 1.42026465 -18.6097935 -0.28819752 -31.98828125 0.87109375 C-44.04001144 3.83093498 -53.41505368 10.36996191 -59.98828125 20.87109375 C-62.41643941 25.07367518 -64.37890545 28.99608736 -64.98828125 33.87109375 C-65.31828125 33.87109375 -65.64828125 33.87109375 -65.98828125 33.87109375 C-65.43009522 22.33524916 -60.47960303 13.64159025 -51.98828125 5.87109375 C-37.04038099 -5.49990867 -17.12770149 -8.77668017 0 0 Z " transform="translate(126.98828125,85.12890625)" style="fill: #1AA0E3;"/><path d="M0 0 C0 28.38 0 56.76 0 86 C-1.65 85.67 -3.3 85.34 -5 85 C-5.02312297 74.06503529 -5.04091485 63.13007634 -5.05181217 52.1950922 C-5.0570411 47.11808982 -5.06413892 42.04110411 -5.07543945 36.96411133 C-5.08626799 32.06879448 -5.09227676 27.17349371 -5.09487724 22.27816582 C-5.09673155 20.40617049 -5.10035228 18.53417609 -5.10573006 16.66218758 C-5.11294004 14.04959301 -5.11399096 11.43706573 -5.11352539 8.82446289 C-5.11712067 8.04259613 -5.12071594 7.26072937 -5.12442017 6.45516968 C-5.1118896 0 -5.1118896 0 0 0 Z " transform="translate(38,83)" style="fill: #212121;"/><path d="M0 0 C1.37095624 3.69037278 0.60010967 5.70883835 -0.9375 9.25 C-1.31777344 10.14203125 -1.69804687 11.0340625 -2.08984375 11.953125 C-2.39019531 12.62859375 -2.69054687 13.3040625 -3 14 C-3.66 13.67 -4.32 13.34 -5 13 C-4.731875 12.34 -4.46375 11.68 -4.1875 11 C-2.74294953 7.35060933 -1.37128822 3.67754567 0 0 Z " transform="translate(219,132)" style="fill: #309FD6;"/></svg>