<svg width="32" height="32" viewBox="0 0 32 32" fill="none" xmlns="http://www.w3.org/2000/svg">
<g clip-path="url(#clip0_1182_300348)">
<g clip-path="url(#clip1_1182_300348)">
<path d="M13 29C20.1797 29 26 23.1797 26 16C26 8.8203 20.1797 3 13 3C5.8203 3 0 8.8203 0 16C0 23.1797 5.8203 29 13 29Z" fill="#FF0000"/>
<path fill-rule="evenodd" clip-rule="evenodd" d="M19.4055 10.043C19.5315 9.91707 19.5315 9.72034 19.4055 9.59443C19.2795 9.46852 19.0827 9.46852 18.9567 9.59443L13.311 15.2367V9.86985C13.311 9.69673 13.1693 9.55508 12.9961 9.55508C12.8228 9.55508 12.6811 9.69673 12.6811 9.86985V15.2839L8.97244 11.5775C8.84646 11.4516 8.64961 11.4516 8.52362 11.5775C8.39764 11.7034 8.39764 11.9001 8.52362 12.026L12.2323 15.7324H6.82283C6.64961 15.7324 6.50787 15.8741 6.50787 16.0472C6.50787 16.2203 6.64961 16.362 6.82283 16.362H12.1929L6.59449 21.957C6.4685 22.0829 6.4685 22.2797 6.59449 22.4056C6.72047 22.5315 6.91732 22.5315 7.04331 22.4056L12.689 16.7633V22.1301C12.689 22.3033 12.8307 22.4449 13.0039 22.4449C13.1772 22.4449 13.3189 22.3033 13.3189 22.1301V16.8027L17.0276 20.5091C17.1535 20.635 17.3504 20.635 17.4764 20.5091C17.6024 20.3832 17.6024 20.1864 17.4764 20.0605L13.7677 16.3541H19.185C19.3583 16.3541 19.5 16.2125 19.5 16.0393C19.5 15.8662 19.3583 15.7246 19.185 15.7246H13.7205L19.4055 10.043Z" fill="white"/>
</g>
<path fill-rule="evenodd" clip-rule="evenodd" d="M32 25C32 24.0838 31.8177 23.1677 31.4672 22.3212C31.1166 21.4748 30.5976 20.6981 29.9497 20.0503C29.3019 19.4024 28.5252 18.8834 27.6788 18.5328C26.8323 18.1823 25.9162 18 25 18C24.0838 18 23.1677 18.1823 22.3212 18.5328C21.4748 18.8834 20.6981 19.4024 20.0503 20.0503C19.4024 20.6981 18.8834 21.4748 18.5328 22.3212C18.1823 23.1677 18 24.0838 18 25C18 25.9162 18.1823 26.8323 18.5328 27.6788C18.8834 28.5252 19.4024 29.3019 20.0503 29.9497C20.6981 30.5976 21.4748 31.1166 22.3212 31.4672C23.1677 31.8177 24.0838 32 25 32C25.9162 32 26.8323 31.8177 27.6788 31.4672C28.5252 31.1166 29.3019 30.5976 29.9497 29.9497C30.5976 29.3019 31.1166 28.5252 31.4672 27.6788C31.8177 26.8323 32 25.9162 32 25Z" fill="#2775CA"/>
<path fill-rule="evenodd" clip-rule="evenodd" d="M23.7182 29.8493C23.7182 30.0203 23.5992 30.0773 23.4265 30.0773C21.2659 29.3857 19.75 27.4213 19.75 25.111C19.75 22.8008 21.2659 20.8363 23.4265 20.1448C23.5997 20.0893 23.7182 20.2017 23.7182 20.3767V20.7793C23.7182 20.8972 23.6568 21.0111 23.5416 21.0681C21.8492 21.7027 20.6825 23.2644 20.6825 25.111C20.6825 26.9615 21.9068 28.5764 23.5416 29.154C23.6568 29.211 23.7182 29.3288 23.7182 29.4427V29.8493ZM25.4682 28.4054C25.4682 28.5194 25.3492 28.6333 25.2341 28.6333H24.7659C24.6509 28.6333 24.5319 28.5194 24.5319 28.4054V27.71C23.5992 27.5961 23.1349 27.0754 22.9584 26.3232C22.9584 26.2091 23.0159 26.0951 23.1349 26.0951H23.6569C23.7759 26.0951 23.8334 26.1521 23.8909 26.2661C24.0099 26.6728 24.2401 27.0185 25 27.0185C25.5834 27.0185 25.9901 26.7297 25.9901 26.2661C25.9901 25.8064 25.7599 25.6316 24.9425 25.5175C23.7176 25.3468 23.1349 24.9971 23.1349 24.0129C23.1349 23.2644 23.7182 22.6868 24.5319 22.569V21.8774C24.5319 21.7635 24.6509 21.6456 24.7659 21.6456H25.2341C25.3492 21.6456 25.4682 21.7635 25.4682 21.8774V22.569C26.1666 22.6868 26.6349 23.0896 26.75 23.7242C26.75 23.842 26.6925 23.9559 26.5735 23.9559H26.1091C25.9901 23.9559 25.9326 23.899 25.875 23.7849C25.7599 23.3783 25.4682 23.2074 24.9425 23.2074C24.3591 23.2074 24.0675 23.4961 24.0675 23.899C24.0675 24.3016 24.2401 24.5334 25.1151 24.6512C26.344 24.8167 26.9266 25.168 26.9266 26.1521C26.9266 26.9006 26.3432 27.5391 25.4682 27.71V28.4054ZM26.2818 29.8492C26.2818 30.0203 26.4008 30.1381 26.5735 30.0772C28.7341 29.3857 30.25 27.4213 30.25 25.111C30.25 22.8007 28.6765 20.8363 26.5735 20.1447C26.4008 20.1447 26.2818 20.2017 26.2818 20.3766V20.7793C26.2818 20.8971 26.3432 21.0111 26.4584 21.068C28.0932 21.6456 29.3175 23.2644 29.3175 25.111C29.3175 26.9615 28.1508 28.5194 26.4584 29.1539C26.3432 29.2109 26.2818 29.3287 26.2818 29.4427V29.8492Z" fill="white"/>
<g clip-path="url(#clip2_1182_300348)">
<path d="M25 14C28.866 14 32 10.866 32 7C32 3.13401 28.866 0 25 0C21.134 0 18 3.13401 18 7C18 10.866 21.134 14 25 14Z" fill="white"/>
<path fill-rule="evenodd" clip-rule="evenodd" d="M25.1455 6.91L20.333 4.2851V9.53489L21.9372 10.4099V6.91L25.1455 8.65992V6.91ZM26.7496 9.53489V4.2851L28.3538 5.16007V10.4099L26.7496 9.53489Z" fill="#2891F9"/>
<path fill-rule="evenodd" clip-rule="evenodd" d="M28.3538 5.16007L29.958 4.2851V9.53489L28.3538 10.4099V5.16007ZM25.1455 6.91L26.7496 6.03477V7.78469L25.1455 8.65992V6.91ZM21.9372 10.4099V6.91L23.5412 7.78456V9.53449L21.9372 10.4099Z" fill="#2BBDF7"/>
<path fill-rule="evenodd" clip-rule="evenodd" d="M21.9372 3.40985L20.333 4.2851L25.1455 6.91L26.7496 6.03477L21.9372 3.40985ZM29.958 4.2851L28.3538 3.40985L26.7496 4.2851L28.3538 5.16007L29.958 4.2851Z" fill="#2B6DEF"/>
</g>
</g>
<defs>
<clipPath id="clip0_1182_300348">
<rect width="32" height="32" fill="white"/>
</clipPath>
<clipPath id="clip1_1182_300348">
<rect width="26" height="26" fill="white" transform="translate(0 3)"/>
</clipPath>
<clipPath id="clip2_1182_300348">
<rect width="14" height="14" fill="white" transform="translate(18)"/>
</clipPath>
</defs>
</svg>
