<svg width="257" height="256" viewBox="0 0 257 256" fill="none" xmlns="http://www.w3.org/2000/svg">
<circle cx="128.075" cy="128" r="128" fill="#003861"/>
<path d="M110.895 96.6192C110.811 95.9949 110.76 95.3549 110.76 94.6904C110.76 90.263 112.09 86.8683 114.752 84.511C117.41 82.1537 120.911 80.975 125.252 80.975C130.295 80.975 134.423 82.3666 137.645 85.1523C140.865 87.9402 142.613 91.7634 142.897 96.6192H181.752C181.048 82.4732 175.729 71.4369 165.789 63.5082C155.845 55.5772 142.756 51.6128 126.514 51.6128C110.551 51.6128 97.5981 55.5772 87.6573 63.5082C77.7139 71.4369 72.7456 82.4037 72.7456 96.4037C72.7456 96.4772 72.7516 96.5458 72.752 96.6192H110.895Z" fill="#82AFFF"/>
<path d="M145.698 158.142C145.898 159.09 146.025 160.075 146.025 161.126C146.025 165.531 144.474 168.978 141.381 171.463C138.283 173.949 134.061 175.19 128.714 175.19C123.504 175.19 119.281 173.735 116.047 170.822C112.807 167.912 110.907 163.682 110.346 158.142H71.9209C72.2013 167.944 74.9102 176.33 80.0499 183.288C85.1856 190.251 92.0476 195.508 100.635 199.059C109.217 202.612 118.931 204.387 129.768 204.387C140.886 204.387 150.529 202.329 158.693 198.207C166.855 194.088 173.082 188.548 177.378 181.585C181.669 174.624 183.818 166.881 183.818 158.356C183.818 158.283 183.811 158.215 183.811 158.142H145.698Z" fill="#82AFFF"/>
<rect x="121.882" y="37.1614" width="13.2129" height="43.7677" fill="#82AFFF"/>
<rect x="121.882" y="175.484" width="13.2129" height="43.3548" fill="#82AFFF"/>
<path d="M161.834 123.784C155.872 120.844 148.123 117.768 138.588 114.546C129.048 111.467 122.038 108.597 117.551 105.935C113.649 103.626 111.449 100.518 110.938 96.6194H72.7456C72.7671 105.798 74.9347 113.244 79.263 118.954C83.6077 124.696 88.7982 129.034 94.8311 131.975C100.859 134.913 108.643 137.853 118.183 140.793C124.772 142.756 129.857 144.503 133.435 146.044C137.01 147.584 140.025 149.545 142.479 151.922C144.267 153.659 145.388 155.738 145.873 158.142H183.817C183.803 149.358 181.63 142.176 177.298 136.594C172.947 130.997 167.794 126.725 161.834 123.784Z" fill="white"/>
</svg>
