<svg width="32" height="32" viewBox="0 0 32 32" fill="none" xmlns="http://www.w3.org/2000/svg">
<path fill-rule="evenodd" clip-rule="evenodd" d="M32 16C32 13.9059 31.5834 11.8118 30.7821 9.87712C29.9805 7.9424 28.7942 6.16704 27.3136 4.6864C25.833 3.20544 24.0576 2.01952 22.1229 1.21792C20.1882 0.41664 18.0941 0 16 0C13.9059 0 11.8115 0.41664 9.8768 1.21792C7.94208 2.01952 6.16704 3.20544 4.68608 4.6864C3.20544 6.16704 2.0192 7.9424 1.21792 9.87712C0.41632 11.8118 0 13.9059 0 16C0 18.0941 0.41632 20.1882 1.21792 22.1229C2.0192 24.0576 3.20544 25.833 4.68608 27.3139C6.16704 28.7946 7.94208 29.9808 9.8768 30.7821C11.8115 31.5834 13.9059 32 16 32C18.0941 32 20.1882 31.5834 22.1229 30.7821C24.0576 29.9808 25.833 28.7946 27.3136 27.3139C28.7942 25.833 29.9805 24.0576 30.7821 22.1229C31.5834 20.1882 32 18.0941 32 16Z" fill="white"/>
<path fill-rule="evenodd" clip-rule="evenodd" d="M11.8547 3.38381C13.3453 2.89389 14.9382 2.66989 16.5161 2.73037C18.0944 2.79085 19.6579 3.13613 21.1129 3.74413C22.5683 4.35213 23.9152 5.22317 25.0675 6.29773C26.5917 7.71949 27.775 9.49773 28.4848 11.4868C29.1949 13.4763 29.4314 15.6766 29.1574 17.7713C28.8838 19.866 28.0998 21.8555 26.9139 23.5662C25.728 25.2769 24.1398 26.7086 22.2745 27.7006C20.4093 28.6923 18.2662 29.244 16.1539 29.276C14.0416 29.308 11.9597 28.8206 10.095 27.8952C8.23071 26.9697 6.58335 25.6065 5.33247 23.9038C4.08159 22.2011 3.22719 20.1588 2.88799 18.075C2.54879 15.9908 2.72479 13.8648 3.37471 11.8814C3.86591 10.3819 4.62815 8.96429 5.60479 7.73581H4.12031V5.28205H9.93695V10.7137H7.48319V9.22957C6.68319 10.2356 6.05855 11.3969 5.65631 12.6257C5.12415 14.2513 4.98079 15.9953 5.25631 17.6971C5.59871 19.8139 6.58879 21.8651 8.06655 23.4459C9.83423 25.3364 12.2995 26.5544 14.8659 26.8209C17.432 27.0875 20.0992 26.403 22.2173 24.9288C24.3353 23.4545 25.905 21.1905 26.5421 18.69C27.1792 16.1896 26.8838 13.4526 25.735 11.1422C24.5862 8.83181 22.5837 6.94861 20.1891 5.95917C17.7945 4.96941 15.0077 4.87405 12.6038 5.66381L11.8547 3.38381Z" fill="#0657F9"/>
<path fill-rule="evenodd" clip-rule="evenodd" d="M16.6231 15.5617C16.3602 15.5743 16.0969 15.5834 15.8336 15.5903C15.8525 15.7103 15.8699 15.8305 15.8862 15.9509C15.9214 16.2131 15.951 16.4757 15.9761 16.739C15.9931 16.9155 16.0084 17.092 16.0211 17.269C16.0333 17.4434 16.0421 17.618 16.0474 17.7928C16.0584 18.1711 16.0522 18.5499 16.0362 18.928C16.0216 19.2736 15.9989 19.6188 15.9711 19.9637C17.0951 19.4633 17.9518 19.274 18.5911 19.1328L18.6003 19.1307C19.6323 18.9025 20.0941 18.7973 20.499 18.6957C20.9037 18.594 21.2512 18.496 21.5401 18.3782C21.829 18.2606 22.0594 18.123 22.2404 17.9534C22.4215 17.7838 22.5535 17.582 22.6702 17.2946C22.7867 17.0071 22.8878 16.6341 22.9457 16.2217C23.0036 15.8093 23.0184 15.3575 22.9744 14.999C22.9304 14.6407 22.8278 14.3759 22.7125 14.109C22.5975 13.8421 22.47 13.5731 22.2784 13.2849C22.0871 12.9968 21.8319 12.6898 21.4712 12.3585C21.1106 12.0272 20.6442 11.6718 20.0934 11.3333C19.5428 10.9946 18.9079 10.6728 18.1203 10.3344C17.3329 9.99565 16.3928 9.64024 15.5767 9.39909C14.7607 9.1577 14.0685 9.03057 13.4622 9.00481C12.8557 8.97928 12.335 9.05537 11.8837 9.23379C11.4327 9.41221 11.0505 9.69296 10.7185 10.0152C10.3863 10.3372 10.1041 10.7007 9.86875 11.1015C9.63341 11.5022 9.44495 11.9401 9.30408 12.4327C9.16321 12.9252 9.07017 13.4722 9.02425 14.385C8.97809 15.2981 8.97905 16.5768 9.19813 17.7916C9.4172 19.0065 9.85416 20.1571 10.3 20.9505C10.7455 21.744 11.1997 22.1801 11.5776 22.4644C11.9553 22.7487 12.2566 22.8813 12.5584 22.9491C12.8603 23.0166 13.1623 23.0197 13.4417 22.9421C13.721 22.8646 13.9777 22.7067 14.1998 22.5025C14.422 22.2986 14.6095 22.0484 14.7784 21.7574C14.947 21.4664 15.0965 21.1344 15.2161 20.7952C15.2799 20.6137 15.3352 20.4302 15.3825 20.2432C15.4201 20.0941 15.4521 19.9436 15.4794 19.7924C15.5107 19.6169 15.5351 19.4399 15.553 19.2624C15.5707 19.0873 15.5822 18.9118 15.5899 18.7362C15.5975 18.5595 15.6014 18.3827 15.6026 18.2057C15.6057 17.7916 15.5968 17.3771 15.5753 16.9635C15.5657 16.7781 15.553 16.5928 15.5368 16.408C15.5131 16.1372 15.4808 15.8672 15.4406 15.5984C15.406 15.3673 15.366 15.1366 15.3208 14.9071C15.2405 14.4993 15.1436 14.0933 15.0159 13.6978C14.9793 13.5848 14.9401 13.4729 14.8999 13.3613C14.8657 13.2663 14.831 13.1714 14.7963 13.0765C14.7725 13.0115 14.7487 12.9464 14.725 12.8813C14.704 12.8196 14.6844 12.7571 14.6686 12.6939C14.6538 12.6337 14.6416 12.5724 14.6394 12.5104C14.6389 12.4937 14.6392 12.477 14.6406 12.4603C14.6418 12.4436 14.6445 12.4269 14.6488 12.4107C14.6528 12.3945 14.6588 12.3788 14.6665 12.364C14.6741 12.3497 14.6837 12.3361 14.6947 12.3239C14.7184 12.2977 14.7485 12.2769 14.7793 12.259C14.8241 12.233 14.8731 12.2142 14.9233 12.2008C15.0314 12.1724 15.1457 12.1681 15.2577 12.172C15.373 12.176 15.488 12.1891 15.6021 12.2056C15.7752 12.2304 15.9474 12.2636 16.1187 12.2998C16.293 12.3365 16.4669 12.3771 16.6398 12.42C16.9036 12.4856 17.1658 12.5572 17.4257 12.6364C17.8323 12.7606 18.2329 12.9073 18.6223 13.0779C18.889 13.1945 19.1516 13.3217 19.407 13.4612C19.5792 13.5554 19.7485 13.6551 19.9116 13.7641C20.0217 13.8376 20.1293 13.9151 20.2304 14.0003C20.2984 14.0575 20.3637 14.1186 20.4206 14.1866C20.4366 14.2056 20.4517 14.2254 20.466 14.2457C20.4801 14.2662 20.4933 14.2875 20.5048 14.3094C20.5163 14.3316 20.5263 14.3547 20.5335 14.3786C20.5406 14.4022 20.5452 14.427 20.5459 14.4516C20.5466 14.4756 20.5438 14.5002 20.5375 14.5236C20.5311 14.5465 20.5215 14.5684 20.5096 14.589C20.4832 14.6336 20.4459 14.672 20.4065 14.7056C20.3467 14.7566 20.2795 14.7989 20.2111 14.8373C20.146 14.8738 20.0788 14.9071 20.0102 14.9362C19.9418 14.9651 19.8722 14.9906 19.8021 15.015C19.7301 15.0398 19.6579 15.0634 19.5857 15.0863C19.4771 15.1206 19.368 15.1538 19.2587 15.1865C19.1494 15.2189 19.0396 15.2513 18.9291 15.28C18.7658 15.3222 18.6003 15.3568 18.4341 15.3859C18.2645 15.4152 18.0942 15.4393 17.9232 15.4596C17.75 15.4801 17.5764 15.497 17.4028 15.5116C17.1433 15.533 16.8833 15.549 16.6231 15.5617ZM12.1906 16.1213C12.3116 16.0801 12.4441 16.0754 12.5638 16.0955C12.6836 16.1154 12.7902 16.1604 12.9123 16.2366C13.0344 16.313 13.1721 16.4205 13.3264 16.6279C13.4808 16.8353 13.652 17.1428 13.7774 17.4603C13.9031 17.778 13.9832 18.1058 14.0249 18.4628C14.0669 18.8198 14.0705 19.2058 14.0376 19.5253C14.005 19.8446 13.9357 20.0976 13.8526 20.2912C13.7695 20.4848 13.6725 20.6192 13.5506 20.7262C13.4286 20.8333 13.2819 20.9133 13.1102 20.9361C12.9384 20.9592 12.7419 20.9253 12.5743 20.8612C12.4065 20.797 12.2678 20.7025 12.1285 20.5572C11.9892 20.412 11.8493 20.2158 11.7239 19.9784C11.5982 19.7408 11.4868 19.462 11.4158 19.1784C11.3447 18.8948 11.3139 18.6065 11.2984 18.3369C11.283 18.0676 11.283 17.8171 11.321 17.5537C11.3588 17.29 11.4348 17.0135 11.5296 16.8055C11.6243 16.5975 11.7381 16.4582 11.8493 16.3495C11.9607 16.2407 12.0697 16.1628 12.1906 16.1213Z" fill="black"/>
<path fill-rule="evenodd" clip-rule="evenodd" d="M11.8547 3.38381C13.3453 2.89389 14.9382 2.66989 16.5161 2.73037C18.0944 2.79085 19.6579 3.13613 21.1129 3.74413C22.5683 4.35213 23.9152 5.22317 25.0675 6.29773C26.5917 7.71949 27.775 9.49773 28.4848 11.4868C29.1949 13.4763 29.4314 15.6766 29.1574 17.7713C28.8838 19.866 28.0998 21.8555 26.9139 23.5662C25.728 25.2769 24.1398 26.7086 22.2745 27.7006C20.4093 28.6923 18.2662 29.244 16.1539 29.276C14.0416 29.308 11.9597 28.8206 10.095 27.8952C8.23071 26.9697 6.58335 25.6065 5.33247 23.9038C4.08159 22.2011 3.22719 20.1588 2.88799 18.075C2.54879 15.9908 2.72479 13.8648 3.37471 11.8814C3.86591 10.3819 4.62815 8.96429 5.60479 7.73581H4.12031V5.28205H9.93695V10.7137H7.48319V9.22957C6.68319 10.2356 6.05855 11.3969 5.65631 12.6257C5.12415 14.2513 4.98079 15.9953 5.25631 17.6971C5.59871 19.8139 6.58879 21.8651 8.06655 23.4459C9.83423 25.3364 12.2995 26.5544 14.8659 26.8209C17.432 27.0875 20.0992 26.403 22.2173 24.9288C24.3353 23.4545 25.905 21.1905 26.5421 18.69C27.1792 16.1896 26.8838 13.4526 25.735 11.1422C24.5862 8.83181 22.5837 6.94861 20.1891 5.95917C17.7945 4.96941 15.0077 4.87405 12.6038 5.66381L11.8547 3.38381Z" fill="url(#paint0_linear_1974_12428)"/>
<circle cx="25" cy="25" r="7" fill="black"/>
<path fill-rule="evenodd" clip-rule="evenodd" d="M25.4451 24.6869C25.2573 24.6959 25.0692 24.7024 24.8811 24.7073C24.8946 24.793 24.9071 24.8789 24.9187 24.965C24.9438 25.1522 24.965 25.3398 24.983 25.5279C24.9951 25.654 25.006 25.78 25.0151 25.9065C25.0238 26.031 25.0301 26.1557 25.0339 26.2806C25.0417 26.5508 25.0373 26.8214 25.0258 27.0914C25.0154 27.3383 24.9992 27.5848 24.9794 27.8312C25.7822 27.4738 26.3941 27.3386 26.8508 27.2377L26.8573 27.2362C27.5945 27.0732 27.9244 26.9981 28.2136 26.9255C28.5026 26.8529 28.7509 26.7829 28.9572 26.6987C29.1636 26.6147 29.3281 26.5164 29.4574 26.3953C29.5868 26.2741 29.6811 26.13 29.7644 25.9247C29.8476 25.7194 29.9199 25.4529 29.9612 25.1583C30.0026 24.8638 30.0132 24.5411 29.9817 24.285C29.9503 24.0291 29.877 23.84 29.7947 23.6493C29.7125 23.4587 29.6214 23.2665 29.4846 23.0607C29.3479 22.8548 29.1657 22.6356 28.908 22.3989C28.6504 22.1623 28.3173 21.9084 27.9239 21.6666C27.5306 21.4247 27.077 21.1949 26.5145 20.9531C25.9521 20.7112 25.2805 20.4573 24.6977 20.2851C24.1148 20.1126 23.6204 20.0218 23.1873 20.0034C22.7541 19.9852 22.3822 20.0396 22.0598 20.167C21.7376 20.2944 21.4646 20.495 21.2275 20.7251C20.9902 20.9552 20.7886 21.2148 20.6205 21.501C20.4524 21.7873 20.3178 22.1001 20.2172 22.4519C20.1166 22.8037 20.0501 23.1944 20.0173 23.8464C19.9844 24.4986 19.985 25.412 20.1415 26.2797C20.298 27.1475 20.6101 27.9694 20.9286 28.536C21.2468 29.1029 21.5712 29.4143 21.8411 29.6174C22.1109 29.8205 22.3261 29.9152 22.5417 29.9636C22.7573 30.0118 22.9731 30.0141 23.1726 29.9587C23.3722 29.9033 23.5555 29.7905 23.7142 29.6447C23.8729 29.499 24.0068 29.3203 24.1274 29.1124C24.2479 28.9046 24.3546 28.6674 24.44 28.4251C24.4857 28.2955 24.5251 28.1644 24.5589 28.0309C24.5858 27.9244 24.6087 27.8169 24.6281 27.7089C24.6505 27.5835 24.6679 27.457 24.6807 27.3303C24.6934 27.2052 24.7016 27.0798 24.7071 26.9544C24.7125 26.8282 24.7153 26.7019 24.7161 26.5755C24.7183 26.2797 24.712 25.9836 24.6966 25.6882C24.6898 25.5558 24.6807 25.4234 24.6691 25.2914C24.6522 25.098 24.6292 24.9052 24.6005 24.7131C24.5757 24.548 24.5472 24.3833 24.5149 24.2194C24.4575 23.928 24.3883 23.6381 24.2971 23.3556C24.2709 23.2748 24.2429 23.1949 24.2142 23.1152C24.1898 23.0474 24.165 22.9796 24.1402 22.9119C24.1232 22.8654 24.1062 22.8189 24.0893 22.7724C24.0743 22.7283 24.0603 22.6836 24.049 22.6385C24.0384 22.5955 24.0297 22.5517 24.0282 22.5075C24.0278 22.4955 24.028 22.4836 24.029 22.4717C24.0299 22.4597 24.0318 22.4478 24.0348 22.4362C24.0377 22.4246 24.042 22.4134 24.0475 22.4028C24.0529 22.3926 24.0598 22.3829 24.0676 22.3742C24.0845 22.3555 24.1061 22.3407 24.1281 22.3279C24.16 22.3093 24.1951 22.2958 24.2309 22.2863C24.3082 22.266 24.3898 22.263 24.4698 22.2657C24.5521 22.2686 24.6343 22.278 24.7158 22.2897C24.8395 22.3074 24.9625 22.3311 25.0848 22.357C25.2093 22.3832 25.3335 22.4122 25.457 22.4429C25.6454 22.4897 25.8327 22.5408 26.0184 22.5974C26.3088 22.6862 26.5949 22.791 26.8731 22.9128C27.0635 22.9961 27.2511 23.0869 27.4336 23.1866C27.5566 23.2539 27.6775 23.3251 27.794 23.4029C27.8726 23.4554 27.9495 23.5108 28.0217 23.5716C28.0703 23.6125 28.1169 23.6561 28.1576 23.7047C28.169 23.7183 28.1798 23.7325 28.19 23.7469C28.2001 23.7616 28.2095 23.7768 28.2177 23.7924C28.2259 23.8083 28.2331 23.8248 28.2382 23.8418C28.2433 23.8587 28.2466 23.8764 28.2471 23.894C28.2476 23.9112 28.2455 23.9287 28.2411 23.9454C28.2365 23.9618 28.2297 23.9775 28.2211 23.9921C28.2023 24.024 28.1757 24.0514 28.1475 24.0754C28.1048 24.1119 28.0568 24.142 28.0079 24.1695C27.9614 24.1955 27.9134 24.2194 27.8644 24.2402C27.8156 24.2608 27.7658 24.279 27.7158 24.2964C27.6644 24.3141 27.6128 24.331 27.5612 24.3473C27.4836 24.3719 27.4057 24.3956 27.3277 24.4189C27.2496 24.4421 27.1712 24.4652 27.0922 24.4857C26.9756 24.5158 26.8573 24.5405 26.7386 24.5613C26.6175 24.5823 26.4959 24.5995 26.3737 24.614C26.25 24.6286 26.126 24.6407 26.002 24.6511C25.8166 24.6665 25.6309 24.6779 25.4451 24.6869ZM22.279 25.0869C22.3654 25.0575 22.4601 25.0541 22.5456 25.0685C22.6311 25.0827 22.7073 25.1148 22.7945 25.1693C22.8817 25.2238 22.9801 25.3006 23.0903 25.4488C23.2006 25.5969 23.3228 25.8165 23.4124 26.0433C23.5022 26.2703 23.5594 26.5044 23.5892 26.7594C23.6192 27.0144 23.6218 27.2901 23.5983 27.5183C23.575 27.7464 23.5255 27.9271 23.4661 28.0654C23.4068 28.2037 23.3375 28.2997 23.2505 28.3761C23.1633 28.4526 23.0585 28.5097 22.9358 28.5261C22.8132 28.5426 22.6728 28.5183 22.5531 28.4725C22.4332 28.4267 22.3342 28.3592 22.2347 28.2554C22.1352 28.1517 22.0352 28.0116 21.9456 27.842C21.8559 27.6723 21.7763 27.4731 21.7256 27.2705C21.6748 27.068 21.6528 26.862 21.6417 26.6695C21.6307 26.4771 21.6307 26.2982 21.6579 26.11C21.6848 25.9217 21.7391 25.7242 21.8068 25.5756C21.8745 25.4271 21.9558 25.3275 22.0352 25.2499C22.1148 25.1722 22.1927 25.1165 22.279 25.0869Z" fill="white"/>
<circle cx="26" cy="6" r="6" fill="#0C0C0C"/>
<path d="M22 6.11511V6.09651C22.0084 6.0706 22.0151 6.04371 22.0198 6.01667L22.2419 3.93853C22.2456 3.8959 22.2596 3.85502 22.2826 3.82002C22.5364 3.47396 22.7922 3.12971 23.0499 2.78723C23.0737 2.75787 23.1063 2.73842 23.1422 2.73233C23.4262 2.69598 23.7106 2.66282 23.9955 2.6328C24.1016 2.62305 24.2048 2.58917 24.2979 2.53368C24.4691 2.43064 24.6419 2.33038 24.8146 2.23012C24.9342 2.16076 25.0537 2.0914 25.1727 2.02111C25.1925 2.00734 25.2155 2 25.239 2C25.2605 2 25.2816 2.00615 25.3002 2.01772C25.5946 2.17342 25.8896 2.3277 26.1846 2.48202L26.5771 2.68751C26.5932 2.69603 26.609 2.7053 26.6294 2.71734C26.6438 2.72582 26.6605 2.73568 26.6814 2.74761L26.334 3.10892C26.3427 3.11141 26.3503 3.11378 26.3571 3.11594C26.3697 3.11989 26.38 3.12311 26.3905 3.12491C26.5111 3.14551 26.6318 3.16563 26.7526 3.18574C27.0288 3.23176 27.305 3.27779 27.5802 3.32956C27.6392 3.3406 27.6985 3.35104 27.7577 3.36149C28.1291 3.42695 28.5015 3.4926 28.833 3.70521C28.9889 3.80524 29.142 3.91025 29.2951 4.01525C29.4194 4.10047 29.5436 4.18567 29.6693 4.26818C29.8018 4.35507 29.8519 4.48215 29.843 4.63639C29.8286 4.90189 29.8102 5.16755 29.7829 5.43212C29.7581 5.67118 29.7016 5.90114 29.5571 6.09594C29.5441 6.1136 29.5441 6.14858 29.5482 6.17371C29.6839 6.99444 29.8201 7.81492 29.9567 8.63515C29.9704 8.71815 29.9791 8.80214 29.9878 8.88612C29.9917 8.92411 29.9956 8.9621 30 9H28.9584C28.975 8.97954 28.9912 8.95856 29.0073 8.93761C29.0417 8.89285 29.0761 8.84821 29.1147 8.80893C29.1625 8.76113 29.17 8.72408 29.1403 8.65861C28.8456 8.00978 28.5536 7.35973 28.2644 6.70845C28.2297 6.63178 28.1925 6.61673 28.118 6.62846C27.875 6.6667 27.6315 6.70086 27.388 6.73502C27.3022 6.74706 27.2162 6.75912 27.1304 6.77134L25.6786 6.97822C25.624 6.98584 25.5858 7.00482 25.558 7.0638C25.2533 7.70889 24.9465 8.35393 24.6377 8.9989H23.5792C23.5876 8.96697 23.5988 8.93563 23.6124 8.90583C23.6608 8.81944 23.7101 8.73356 23.7593 8.64774C23.8025 8.57261 23.8456 8.49747 23.8881 8.42209C23.9093 8.38539 23.9264 8.34577 23.9385 8.30452C24.1662 7.47215 24.3925 6.63934 24.6174 5.8061C24.6189 5.79756 24.6197 5.78888 24.6197 5.78015C24.6197 5.74894 24.6097 5.71864 24.5913 5.69445C24.4649 5.55399 24.3343 5.41763 24.2011 5.28516C24.1785 5.26571 24.1504 5.2551 24.1215 5.2551C24.1154 5.2551 24.1093 5.25557 24.1033 5.25648C23.9448 5.29155 23.7867 5.32825 23.6285 5.36496C23.4704 5.40166 23.3122 5.43836 23.1538 5.47343C23.0994 5.48535 23.0843 5.51361 23.0777 5.56515C23.0632 5.68894 23.0483 5.81263 23.0334 5.9363C23.0138 6.09849 22.9942 6.26068 22.9757 6.42303C22.9726 6.45094 22.9757 6.48962 22.9917 6.5086C23.0768 6.61175 23.1649 6.7125 23.2562 6.81699L23.3083 6.87662L23.6839 6.49056L23.8044 7.365L23.6959 7.38718C23.53 7.42114 23.3675 7.45437 23.2048 7.48649L23.2025 7.48652C23.186 7.48652 23.1695 7.4832 23.1541 7.47683C23.1218 7.46842 23.0894 7.46035 23.0571 7.45228C22.9711 7.43087 22.8852 7.40945 22.8012 7.38175C22.7562 7.36625 22.717 7.33545 22.6897 7.2941C22.6089 7.15939 22.531 7.0228 22.453 6.88619C22.4057 6.80337 22.3584 6.72052 22.3105 6.63809C22.2102 6.46585 22.1077 6.29471 22.0052 6.12355L22 6.11511Z" fill="white"/>
<path d="M27.4774 8.91508C27.5137 8.84762 27.5501 8.78019 27.5919 8.71702C27.6346 8.65341 27.6577 8.57686 27.6577 8.49847L27.6574 8.48426C27.6558 8.26128 27.6558 8.03823 27.6559 7.81517C27.6559 7.60467 27.656 7.39391 27.6546 7.1834C27.6546 7.11979 27.672 7.08051 27.7227 7.04776C27.7949 7.00058 27.8653 6.95043 27.9385 6.8982L28.011 6.84666L28.0224 6.86499C28.0366 6.88797 28.0488 6.90778 28.0609 6.92853L28.1597 7.10639C28.2982 7.35565 28.4367 7.60499 28.5724 7.85598C28.5904 7.89133 28.5999 7.93108 28.5999 7.97142C28.5999 7.97894 28.5996 7.98657 28.5989 7.99403C28.5737 8.24468 28.5458 8.49534 28.5178 8.74637L28.4897 8.99962H27.4313C27.4469 8.97165 27.4622 8.94335 27.4774 8.91508Z" fill="white"/>
<path d="M25.4277 8.96846C25.4131 8.97898 25.3985 8.98949 25.3837 8.99947L26.5464 8.99953C26.5461 8.97189 26.544 8.94413 26.5405 8.91672C26.4401 8.37332 26.3393 7.82998 26.2379 7.28673C26.2287 7.23722 26.2179 7.18779 26.2068 7.13706C26.2021 7.11535 26.1973 7.0934 26.1926 7.0711C26.1515 7.08221 26.1114 7.09266 26.0721 7.10292C25.973 7.12875 25.8788 7.1533 25.7863 7.18366C25.7451 7.1994 25.7105 7.23058 25.6889 7.27146C25.5866 7.47959 25.4885 7.68995 25.3947 7.90253C25.3843 7.92923 25.3789 7.95793 25.3789 7.98688C25.3789 8.00517 25.3811 8.02343 25.3853 8.04115C25.4459 8.28947 25.5109 8.53659 25.5804 8.78255C25.5987 8.84749 25.584 8.8765 25.5293 8.90329C25.4936 8.92083 25.4606 8.94465 25.4277 8.96846Z" fill="white"/>
<defs>
<linearGradient id="paint0_linear_1974_12428" x1="2.04341" y1="13.2972" x2="15.2222" y2="29.5766" gradientUnits="userSpaceOnUse">
<stop stop-color="#004CFF"/>
<stop offset="0.252131" stop-color="#00E0FB"/>
<stop offset="0.505709" stop-color="#87FF70"/>
<stop offset="0.755054" stop-color="#F8F500"/>
<stop offset="1" stop-color="#FF1A00"/>
</linearGradient>
</defs>
</svg>
