<svg width="128" height="128" viewBox="0 0 128 128" fill="none" xmlns="http://www.w3.org/2000/svg">
<circle cx="64" cy="64" r="64" fill="#FFF533"/>
<path d="M74.3905 44.3716L73.8927 45.7364L70.9607 53.7952L65.5672 68.6123L61.7176 79.1887C61.7176 79.1887 61.7122 79.1859 61.7094 79.1859C61.6479 79.3719 61.5836 79.5579 61.5152 79.7425C60.4445 82.6649 58.69 85.2577 56.4445 87.3254C56.4445 87.3254 56.4445 87.3268 56.4431 87.3268C52.997 90.5008 48.3966 92.4359 43.345 92.4359C41.2759 92.4359 39.2807 92.1118 37.4113 91.51C35.4626 90.8824 33.6493 89.9552 32.0247 88.7805C31.3997 88.3292 30.8021 87.8424 30.2373 87.3213C30.2387 87.3213 30.2387 87.32 30.2387 87.32H30.24C30.5067 87.3405 30.7788 87.35 31.051 87.35C31.5706 87.35 32.0807 87.3145 32.5812 87.2461C36.7426 86.68 40.1792 83.8341 41.5959 80.0051C41.6082 79.975 41.6192 79.9436 41.6301 79.9121L50.3358 55.9928C50.4383 55.7179 50.5464 55.4444 50.6612 55.1764C50.8705 54.6868 51.1016 54.2095 51.3532 53.7446C54.3604 48.1651 60.2585 44.3716 67.0428 44.3716H74.3877H74.3905Z" fill="black"/>
<path d="M104 35L103.497 36.3812L100.589 44.3716L91.3259 69.828L87.7977 79.5183L87.717 79.7412C85.0052 87.1491 77.8927 92.4359 69.5468 92.4359C67.449 92.4359 65.4291 92.1022 63.5379 91.4855C61.6179 90.8591 59.8319 89.9402 58.2278 88.7805H58.2264C57.6042 88.332 57.0107 87.8479 56.4473 87.3282C56.6852 87.3432 56.9245 87.3515 57.1666 87.3515C57.7177 87.3515 58.2592 87.3118 58.7885 87.2338H58.7898C62.917 86.6376 66.318 83.7959 67.7197 79.9846C67.7211 79.986 67.7225 79.9846 67.7225 79.9846L76.7659 55.1368L79.0045 48.9843L79.7703 46.8824L79.9194 46.4721C80.1943 45.7487 80.5156 45.0472 80.8794 44.3716C83.7909 38.9644 89.4141 35.2325 95.9262 35H104Z" fill="black"/>
<path d="M44.759 53.7945L39.3928 68.5391L34.0732 83.1511C33.3976 84.9972 32.0096 86.4988 30.2414 87.3193H30.2386C26.5874 83.9565 24.2338 79.2017 24.0164 73.8971C24.0055 73.6304 24 73.3596 24 73.0902C24 70.7805 24.4048 68.5651 25.1474 66.5124C27.84 59.0663 34.9716 53.7439 43.3463 53.7439C43.8222 53.7439 44.2926 53.7617 44.759 53.7945Z" fill="black"/>
</svg>
