<svg width="240" height="240" viewBox="0 0 240 240" fill="none" xmlns="http://www.w3.org/2000/svg">
<g clip-path="url(#clip0_5_747)">
<path d="M120 240C186.5 240 240 186.5 240 120C240 53.4996 186.5 0 120 0C53.4996 0 0 53.4996 0 120C0 186.5 53.4996 240 120 240Z" fill="#F4F6FA"/>
<path fill-rule="evenodd" clip-rule="evenodd" d="M160.245 172.124C108.02 137.509 92.7552 86.338 92.2944 60.9953L147.035 60C147.21 69.6714 155.119 103.043 190.492 126.488L160.245 172.124Z" fill="#333333"/>
<path fill-rule="evenodd" clip-rule="evenodd" d="M79.2469 172.124C131.472 137.509 146.737 86.338 147.198 60.9953L92.4575 60C92.2817 69.6714 84.3733 103.043 49 126.488L79.2469 172.124Z" fill="#B2B2B2"/>
<path d="M147.075 60.9922C147.097 61.346 147.128 61.7227 147.167 62.1211C146.579 79.1972 139.511 107.074 119.746 133.866C99.9819 107.075 92.912 79.1983 92.3242 62.1221C92.3636 61.7233 92.3942 61.3463 92.416 60.9922L119.745 60.4961L147.075 60.9922Z" fill="#111111"/>
</g>
<defs>
<clipPath id="clip0_5_747">
<rect width="240" height="240" fill="white"/>
</clipPath>
</defs>
</svg>
