<?xml version="1.0" encoding="UTF-8"?>
<svg id="Camada_1" xmlns="http://www.w3.org/2000/svg" version="1.1" viewBox="0 0 707.4 313.1">
  <!-- Generator: Adobe Illustrator 29.0.1, SVG Export Plug-In . SVG Version: 2.1.0 Build 192)  -->
  <defs>
    <style>
      .st0 {
        fill: #ff7a00;
      }

      .st1 {
        fill: #fff;
      }
    </style>
  </defs>
  <path class="st1" d="M332.7,96h-27.1l-32.4-56.3h115.8v233.6h-56.3V96Z"/>
  <path class="st0" d="M604.7,272.7l-54.3-70.2-54.3,70.2h-72.8l90.7-116.5c-30.4-39.1-60.9-78.1-90.7-116.5h72.8l182,233.6h-73.5v-.7ZM570.3,84.7l35.1-45h72.8l-71.5,91.3-36.4-47h0v.7Z"/>
  <path class="st1" d="M189.7,39.7H30.2v233.6h56.3v-88.7h103.3c39.7,0,72.1-32.4,72.1-72.1s-32.4-72.1-72.1-72.1h0v-.7ZM189.7,128.4h-103.9v-32.4h103.9c21.2,0,21.2,32.4,0,32.4Z"/>
</svg>