<svg width="320" height="329" viewBox="0 0 320 329" fill="none" xmlns="http://www.w3.org/2000/svg">
<g clip-path="url(#clip0_1103_2)">
<rect width="320" height="329" rx="160" fill="url(#paint0_linear_1103_2)"/>
<g filter="url(#filter0_f_1103_2)">
<ellipse cx="140.826" cy="252.448" rx="183.479" ry="278.97" transform="rotate(4.63087 140.826 252.448)" fill="url(#paint1_linear_1103_2)"/>
</g>
<mask id="mask0_1103_2" style="mask-type:alpha" maskUnits="userSpaceOnUse" x="-57" y="-288" width="560" height="972">
<path d="M-56.9622 683.972L461.953 563.151L502.014 77.0179L482.552 -88.2302L220.209 -287.882L-4.80653 -221.818L-45.4392 279.818L-56.9622 683.972Z" fill="url(#paint2_linear_1103_2)"/>
</mask>
<g mask="url(#mask0_1103_2)">
</g>
<mask id="mask1_1103_2" style="mask-type:alpha" maskUnits="userSpaceOnUse" x="-83" y="-272" width="620" height="915">
<path d="M-12.4121 -271.542C223.776 -252.027 525.07 -227.085 536.908 -227.046L466.443 642.89L-82.8773 598.394L-12.4121 -271.542Z" fill="url(#paint3_linear_1103_2)"/>
</mask>
<g mask="url(#mask1_1103_2)">
<path d="M432.208 132.469C424.26 230.586 332.978 306.228 257.133 300.084C181.288 293.941 84.9716 246.16 93.4986 140.889C97.7242 88.7217 52.1542 21.2742 94.9438 -37.6454C138.502 -97.6236 240.784 -74.8983 279.044 -71.7992C354.889 -65.6557 440.155 34.3513 432.208 132.469Z" fill="url(#paint4_linear_1103_2)"/>
<g filter="url(#filter1_f_1103_2)">
<path d="M425.806 130.763C417.283 235.991 338.464 305.41 273.27 300.13C208.075 294.849 125.736 248.217 134.259 142.988C138.483 90.8423 98.3355 23.8601 135.819 -35.4638C173.976 -95.8536 261.731 -74.3109 294.618 -71.647C359.813 -66.3662 434.33 25.534 425.806 130.763Z" fill="url(#paint5_linear_1103_2)"/>
</g>
<g filter="url(#filter2_f_1103_2)">
<path d="M425.55 133.951C415.997 251.892 319.506 329.037 239.13 322.527C158.753 316.016 56.8782 262.974 66.4314 145.033C71.1655 86.5878 13.6061 10.4962 59.2563 -55.6997C105.727 -123.085 220.847 -97.5818 261.393 -94.2976C341.769 -87.7871 435.103 16.0102 425.55 133.951Z" fill="url(#paint6_linear_1103_2)"/>
</g>
<g filter="url(#filter3_f_1103_2)">
<path d="M414.927 146.794C383.417 290.812 269.399 402.984 175.328 395.364C81.2583 387.744 -14.4501 305.6 -2.99285 164.153C2.68476 94.0598 -92.5427 -4.35117 -38.9524 -83.8338C15.6008 -164.744 142.339 -135.076 189.793 -131.232C283.863 -123.612 451.43 -20.0415 414.927 146.794Z" fill="url(#paint7_linear_1103_2)"/>
</g>
<g filter="url(#filter4_f_1103_2)">
<path d="M372.883 192.77C360.546 345.071 228.726 466.368 136.753 458.918C44.7796 451.468 -48.2023 363.836 -35.8658 211.535C-29.7525 136.063 -57.4302 41.5819 -4.36648 -44.3759C49.6505 -131.878 173.409 -100.962 219.805 -97.2038C311.778 -89.754 385.219 40.4691 372.883 192.77Z" fill="url(#paint8_linear_1103_2)"/>
</g>
<g filter="url(#filter5_f_1103_2)">
<path d="M331.37 249.073C318.621 406.462 183.682 531.916 89.612 524.296C-4.45814 516.676 -99.4918 426.202 -86.7432 268.813C-80.4257 190.819 -108.656 93.212 -54.305 4.34318C1.02204 -86.1221 127.585 -54.281 175.038 -50.4372C269.109 -42.8175 344.118 91.6843 331.37 249.073Z" fill="url(#paint9_linear_1103_2)"/>
</g>
<g filter="url(#filter6_f_1103_2)">
<path d="M355.918 131.909C344.763 269.624 211.195 378.141 117.125 370.521C23.0552 362.901 -72.8111 282.707 -61.6561 144.991C-56.1282 76.7465 -74.4395 -8.14205 -21.027 -85.428C33.345 -164.102 160.125 -134.942 207.579 -131.098C301.649 -123.479 367.073 -5.80663 355.918 131.909Z" fill="url(#paint10_linear_1103_2)"/>
</g>
</g>
<g filter="url(#filter7_f_1103_2)">
<path d="M49.65 7.33316C79.3758 -1.87326 146.246 19.9398 216.41 48.1684L309.605 55.7172C390.675 62.2839 358.257 189.464 302.595 292.9C246.933 396.335 249.426 393.804 170.849 384.707C92.2722 375.609 127.437 431.063 88.1196 492.781C48.8018 554.5 120.837 424.522 66.1069 346.987C11.3765 269.453 -4.3738 316.541 54.5934 209.958C113.561 103.374 86.6713 105.759 58.1573 100.034C29.6433 94.3081 26.9997 126.887 0.756371 121.345C-25.487 115.804 -12.2098 102.532 5.81434 58.9017C23.8385 15.2711 19.9241 16.5396 49.65 7.33316Z" fill="#CF0E0E"/>
</g>
<mask id="mask2_1103_2" style="mask-type:alpha" maskUnits="userSpaceOnUse" x="-295" y="-162" width="838" height="569">
<path d="M542.979 336.427L375.052 -161.204L-24.4633 -135.485L-158.069 -94.0014L-294.377 192.576L-210.292 406.525L208.425 379.338L542.979 336.427Z" fill="url(#paint11_linear_1103_2)"/>
</mask>
<g mask="url(#mask2_1103_2)">
<mask id="mask3_1103_2" style="mask-type:alpha" maskUnits="userSpaceOnUse" x="-282" y="-153" width="782" height="552">
<path d="M-248.496 398.987C-263.533 162.471 -279.848 -95.6851 -281.376 -107.414L466.519 -152.798L499.398 353.602L-248.496 398.987Z" fill="url(#paint12_linear_1103_2)"/>
</mask>
<g mask="url(#mask3_1103_2)">
<path d="M24.0832 -73.8598C105.982 -79.1773 180.34 1.05023 185.27 76.984C190.2 152.918 163.517 254.72 75.6468 260.425C32.1027 263.252 -17.4723 317.445 -71.6615 282.991C-126.824 247.917 -121.574 143.575 -124.061 105.27C-128.991 29.3366 -57.8158 -68.5423 24.0832 -73.8598Z" fill="#FE8A02"/>
<g filter="url(#filter8_f_1103_2)">
<path d="M23.5214 -67.2954C111.356 -72.9984 178.487 -11.3228 182.314 47.6297C186.142 106.582 158.026 186.098 70.191 191.801C26.6647 194.628 -23.5262 239 -77.1453 213.001C-131.728 186.534 -124.978 105.353 -126.909 75.6145C-130.737 16.662 -64.3133 -61.5925 23.5214 -67.2954Z" fill="#FE8A02"/>
</g>
<g filter="url(#filter9_f_1103_2)">
<path d="M26.1817 -67.4702C124.627 -73.8621 200.354 2.75932 205.081 75.5531C209.807 148.347 178.867 246.287 80.421 252.679C31.6364 255.847 -23.8745 317.028 -84.1883 284.541C-145.586 251.471 -139.016 145.161 -141.4 108.44C-146.126 35.6464 -72.2639 -61.0783 26.1817 -67.4702Z" fill="#FE8A02"/>
</g>
<g filter="url(#filter10_f_1103_2)">
<path d="M39.1256 -44.4348C161.952 -32.5878 269.407 65.2452 275.522 159.425C281.637 253.605 226.557 359.424 108.491 367.09C49.9838 370.889 -18.5637 478.418 -91.1205 436.031C-164.981 392.884 -169.139 220.417 -172.223 172.908C-178.338 78.7284 -103.162 -58.159 39.1256 -44.4348Z" fill="#FE8A02"/>
</g>
<g filter="url(#filter11_f_1103_2)">
<path d="M72.5102 -22.6249C199.636 -30.8789 326.036 82.7675 332.015 174.848C337.993 266.928 278.032 370.785 150.906 379.039C87.9086 383.129 13.7 423.237 -64.1232 382.242C-143.344 340.512 -192.894 151.996 -195.91 105.546C-201.888 13.4652 -54.6159 -14.3708 72.5102 -22.6249Z" fill="#FE8A02"/>
</g>
<g filter="url(#filter12_f_1103_2)">
<path d="M133.457 10.3257C264.83 1.79593 385.986 118.561 392.101 212.741C398.215 306.921 336.182 413.191 204.809 421.721C139.708 425.948 34.23 304.847 -46.1614 262.97C-127.997 220.34 -118.434 90.7275 -121.518 43.2183C-127.633 -50.9616 2.08344 18.8555 133.457 10.3257Z" fill="#FE8A02"/>
</g>
<g filter="url(#filter13_f_1103_2)">
<path d="M33.6724 1.76616C148.624 -5.6974 255.643 111.986 261.758 206.166C267.872 300.346 214.42 406.059 99.4684 413.523C42.5043 417.221 -25.034 446.764 -95.7572 404.259C-167.751 360.99 -160.425 231.523 -163.51 184.014C-169.625 89.8338 -81.2791 9.22973 33.6724 1.76616Z" fill="#FE8A02"/>
</g>
</g>
</g>
<mask id="mask4_1103_2" style="mask-type:alpha" maskUnits="userSpaceOnUse" x="-319" y="-284" width="958" height="1108">
<path d="M638.779 618.128C413.502 684.66 -39.7852 818.794 -50.7168 823.076L-318.843 -78.972L370.653 -283.919L638.779 618.128Z" fill="url(#paint13_linear_1103_2)"/>
</mask>
<g mask="url(#mask4_1103_2)">
<path d="M-133.306 435.038C-140.61 334.648 -108.334 223.79 -36.0394 202.301C36.255 180.812 143.37 193.796 175.816 302.954C191.895 357.047 239.712 340.966 222.814 415.934C205.612 492.249 102.589 506.681 66.1204 517.521C-6.17398 539.01 -126.001 535.429 -133.306 435.038Z" fill="#FF7B43"/>
<g filter="url(#filter14_f_1103_2)">
<path d="M-132.565 421.985C-127.077 253.077 -113.077 226.611 -50.9356 208.14C11.2063 189.669 104.993 206.596 137.426 315.709C153.498 369.78 195.751 353.914 183.901 427.353C171.838 502.111 80.8973 512.958 49.5497 522.276C-12.5922 540.747 -139.423 506.642 -132.565 421.985Z" fill="#FF7B43"/>
</g>
<g filter="url(#filter15_f_1103_2)">
<path d="M-127.73 431.108C-144.895 236.219 -63.1512 128.798 13.4621 106.025C90.0755 83.2524 162.842 166.6 199.193 288.894C217.207 349.497 265.522 291.091 248.772 374.433C231.721 459.272 110.298 491.362 71.6507 502.849C-4.96262 525.622 -91.3793 553.402 -127.73 431.108Z" fill="#FF7B43"/>
</g>
<g filter="url(#filter16_f_1103_2)">
<path d="M-122.854 414.297C-140.631 242.723 -81.1519 50.1588 8.51404 23.5063C98.18 -3.14619 212.295 97.6346 255.891 244.302C277.495 316.983 369.092 267.315 350.107 366.939C330.782 468.352 202.547 484.715 157.315 498.16C67.6491 524.812 -105.077 585.871 -122.854 414.297Z" fill="#FF7B43"/>
</g>
<g filter="url(#filter17_f_1103_2)">
<path d="M-113.286 285.311C-92.03 22.8884 -86.193 18.1991 1.47408 -7.85923C89.1411 -33.9175 221.123 26.6509 268.064 184.574C291.326 262.832 281.36 286.669 265.341 392.623C249.034 500.481 99.3364 516.42 55.1127 529.565C-32.5544 555.624 -125.613 437.495 -113.286 285.311Z" fill="#FF7B43"/>
</g>
<g filter="url(#filter18_f_1103_2)">
<path d="M-76.8312 322.887C-125.341 159.688 -48.9418 -15.93 40.7242 -42.5825C130.39 -69.235 252.67 -12.7752 301.18 150.423C325.219 231.296 369.307 367.347 353.215 476.703C336.835 588.024 124.782 504.733 79.5503 518.177C-10.1157 544.83 -28.3218 486.085 -76.8312 322.887Z" fill="#FF7B43"/>
</g>
<g filter="url(#filter19_f_1103_2)">
<path d="M-27.4687 404.222C-69.9144 261.424 11.7045 103.367 101.371 76.7149C191.036 50.0624 310.148 95.8632 352.594 238.662C373.628 309.426 382.954 253.468 363.292 350.813C343.277 449.908 215.2 466.798 169.968 480.243C80.3017 506.895 14.9771 547.021 -27.4687 404.222Z" fill="#FF7B43"/>
</g>
</g>
<g opacity="0.6" filter="url(#filter20_f_1103_2)">
<path d="M326.85 139.451C374.557 250.835 329.144 422.41 272.489 446.675C215.835 470.941 122.302 608.94 117.522 285.072C69.8161 173.687 -96.6456 88.7441 99.7291 43.3173C156.384 19.0519 143.773 161.898 326.85 139.451Z" fill="url(#paint14_linear_1103_2)"/>
</g>
<g filter="url(#filter21_f_1103_2)">
<ellipse cx="237.659" cy="270.811" rx="132.939" ry="202.127" transform="rotate(4.63087 237.659 270.811)" fill="url(#paint15_linear_1103_2)"/>
</g>
<mask id="mask5_1103_2" style="mask-type:alpha" maskUnits="userSpaceOnUse" x="94" y="-121" width="406" height="705">
<path d="M94.3527 583.465L470.331 495.924L499.358 143.698L485.257 23.9676L295.176 -120.69L132.142 -72.8229L102.702 290.636L94.3527 583.465Z" fill="url(#paint16_linear_1103_2)"/>
</mask>
<g mask="url(#mask5_1103_2)">
</g>
<mask id="mask6_1103_2" style="mask-type:alpha" maskUnits="userSpaceOnUse" x="75" y="-109" width="450" height="663">
<path d="M126.631 -108.846C297.76 -94.7067 516.062 -76.6352 524.639 -76.6073L473.584 553.703L75.5755 521.464L126.631 -108.846Z" fill="url(#paint17_linear_1103_2)"/>
</mask>
<g mask="url(#mask6_1103_2)">
<path d="M448.777 183.882C443.019 254.973 376.881 309.779 321.928 305.328C266.974 300.876 197.188 266.257 203.367 189.983C206.428 152.185 173.411 103.317 204.414 60.6265C235.974 17.1695 310.082 33.635 337.803 35.8804C392.757 40.3317 454.536 112.792 448.777 183.882Z" fill="url(#paint18_linear_1103_2)"/>
<g filter="url(#filter22_f_1103_2)">
<path d="M444.141 182.648C437.965 258.892 380.857 309.189 333.621 305.363C286.384 301.537 226.725 267.75 232.901 191.507C235.961 153.724 206.873 105.193 234.031 62.2095C261.678 18.4543 325.26 34.063 349.089 35.9931C396.325 39.8193 450.316 106.405 444.141 182.648Z" fill="url(#paint19_linear_1103_2)"/>
</g>
<g filter="url(#filter23_f_1103_2)">
<path d="M443.954 184.959C437.032 270.413 367.12 326.308 308.884 321.591C250.647 316.874 176.834 278.442 183.756 192.988C187.186 150.642 145.481 95.5101 178.557 47.548C212.227 -1.27578 295.637 17.2024 325.014 19.582C383.251 24.2992 450.876 99.5052 443.954 184.959Z" fill="url(#paint20_linear_1103_2)"/>
</g>
<g filter="url(#filter24_f_1103_2)">
<path d="M436.257 194.262C413.426 298.61 330.814 379.884 262.656 374.363C194.498 368.842 125.152 309.325 133.454 206.84C137.567 156.054 68.5705 84.7503 107.399 27.1614C146.926 -31.4622 238.754 -9.96592 273.136 -7.18092C341.295 -1.66008 462.705 73.3819 436.257 194.262Z" fill="url(#paint21_linear_1103_2)"/>
</g>
<g filter="url(#filter25_f_1103_2)">
<path d="M405.79 227.573C396.852 337.923 301.342 425.808 234.703 420.41C168.064 415.013 100.694 351.519 109.633 241.17C114.062 186.486 94.0082 118.03 132.455 55.7499C171.593 -7.64947 261.262 14.7507 294.878 17.4736C361.517 22.8714 414.729 117.224 405.79 227.573Z" fill="url(#paint22_linear_1103_2)"/>
</g>
<g filter="url(#filter26_f_1103_2)">
<path d="M375.714 268.368C366.477 382.404 268.707 473.301 200.549 467.78C132.391 462.259 63.5346 396.706 72.7715 282.67C77.3489 226.16 56.8949 155.439 96.2745 91.0496C136.362 25.5032 228.062 48.5736 262.445 51.3586C330.603 56.8795 384.951 154.332 375.714 268.368Z" fill="url(#paint23_linear_1103_2)"/>
</g>
<g filter="url(#filter27_f_1103_2)">
<path d="M393.498 183.477C385.416 283.258 288.64 361.884 220.482 356.363C152.323 350.842 82.8638 292.737 90.9461 192.956C94.9513 143.509 81.684 82.0035 120.384 26.0062C159.779 -30.9971 251.637 -9.86923 286.019 -7.08424C354.178 -1.56339 401.58 83.6956 393.498 183.477Z" fill="url(#paint24_linear_1103_2)"/>
</g>
</g>
<g filter="url(#filter28_f_1103_2)">
<path d="M171.596 93.2133C193.134 86.5428 241.585 102.347 292.422 122.8L359.946 128.27C418.685 133.028 395.196 225.176 354.867 300.12C314.537 375.064 316.344 373.23 259.411 366.638C202.478 360.047 227.957 400.226 199.469 444.944C170.982 489.661 223.175 395.486 183.52 339.309C143.865 283.131 132.453 317.249 175.178 240.024C217.903 162.8 198.42 164.528 177.76 160.379C157.1 156.231 155.185 179.836 136.17 175.821C117.156 171.805 126.776 162.19 139.835 130.577C152.895 98.9647 150.058 99.8838 171.596 93.2133Z" fill="#CF0E0E"/>
</g>
<mask id="mask7_1103_2" style="mask-type:alpha" maskUnits="userSpaceOnUse" x="-78" y="-29" width="608" height="412">
<path d="M529.044 331.658L407.372 -28.8999L117.904 -10.2649L21.1008 19.7918L-77.6612 227.431L-16.7374 382.447L286.643 362.749L529.044 331.658Z" fill="url(#paint25_linear_1103_2)"/>
</mask>
<g mask="url(#mask7_1103_2)">
<mask id="mask8_1103_2" style="mask-type:alpha" maskUnits="userSpaceOnUse" x="-69" y="-23" width="567" height="400">
<path d="M-44.4202 376.983C-55.3153 205.617 -67.1358 18.5703 -68.243 10.0725L473.642 -22.8107L497.465 344.1L-44.4202 376.983Z" fill="url(#paint26_linear_1103_2)"/>
</mask>
<g mask="url(#mask8_1103_2)">
<path d="M153.073 34.3833C212.413 30.5305 266.288 88.6591 269.86 143.677C273.433 198.694 254.1 272.455 190.433 276.589C158.883 278.637 122.964 317.902 83.7013 292.938C43.7333 267.526 47.5376 191.925 45.7356 164.172C42.1635 109.154 93.7332 38.2361 153.073 34.3833Z" fill="#FEA802"/>
<g filter="url(#filter29_f_1103_2)">
<path d="M152.668 39.1402C216.308 35.0082 264.947 79.6951 267.721 122.409C270.494 165.123 250.122 222.736 186.482 226.868C154.945 228.916 118.579 261.066 79.7298 242.228C40.1823 223.052 45.0727 164.232 43.6737 142.685C40.9004 99.9713 89.0272 43.2723 152.668 39.1402Z" fill="#FEA802"/>
</g>
<g filter="url(#filter30_f_1103_2)">
<path d="M154.593 39.0158C225.921 34.3846 280.789 89.9005 284.213 142.643C287.638 195.386 265.22 266.348 193.892 270.979C158.545 273.274 118.325 317.603 74.6244 294.065C30.1391 270.104 34.8995 193.077 33.172 166.471C29.7476 113.729 83.2642 43.6471 154.593 39.0158Z" fill="#FEA802"/>
</g>
<g filter="url(#filter31_f_1103_2)">
<path d="M163.973 55.7063C252.966 64.29 330.823 135.175 335.253 203.412C339.684 271.65 299.776 348.321 214.231 353.875C171.84 356.628 122.174 434.538 69.6032 403.827C16.0879 372.564 13.0752 247.604 10.8402 213.182C6.4097 144.944 60.8787 45.7625 163.973 55.7063Z" fill="#FEA802"/>
</g>
<g filter="url(#filter32_f_1103_2)">
<path d="M188.163 71.5048C280.272 65.5243 371.855 147.867 376.186 214.583C380.518 281.3 337.073 356.549 244.964 362.529C199.32 365.493 145.552 394.553 89.1657 364.85C31.7662 334.614 -4.13485 198.026 -6.32002 164.37C-10.6518 97.6537 96.0542 77.4852 188.163 71.5048Z" fill="#FEA802"/>
</g>
<g filter="url(#filter33_f_1103_2)">
<path d="M232.316 95.3805C327.502 89.2002 415.286 173.802 419.716 242.04C424.147 310.278 379.201 387.276 284.015 393.456C236.846 396.519 160.422 308.775 102.175 278.433C42.8809 247.546 49.81 153.635 47.575 119.213C43.1445 50.9749 137.13 101.561 232.316 95.3805Z" fill="#FEA802"/>
</g>
<g filter="url(#filter34_f_1103_2)">
<path d="M160.02 89.1765C243.307 83.7688 320.848 169.036 325.278 237.274C329.709 305.511 290.98 382.106 207.692 387.514C166.419 390.193 117.484 411.599 66.2417 380.801C14.0789 349.451 19.3865 255.646 17.1515 221.223C12.721 152.986 76.7318 94.5842 160.02 89.1765Z" fill="#FEA802"/>
</g>
</g>
</g>
<mask id="mask9_1103_2" style="mask-type:alpha" maskUnits="userSpaceOnUse" x="-59" y="-131" width="695" height="803">
<path d="M635.236 523.352C472.012 571.557 143.584 668.743 135.664 671.845L-58.6066 18.2692L440.966 -130.225L635.236 523.352Z" fill="url(#paint27_linear_1103_2)"/>
</mask>
<g mask="url(#mask9_1103_2)">
<path d="M75.823 390.692C70.5307 317.954 93.9163 237.632 146.297 222.063C198.678 206.493 276.288 215.9 299.796 294.99C311.446 334.183 346.092 322.532 333.848 376.85C321.385 432.143 246.74 442.6 220.317 450.454C167.936 466.024 81.1153 463.429 75.823 390.692Z" fill="#FFB443"/>
<g filter="url(#filter35_f_1103_2)">
<path d="M76.3612 381.235C80.3377 258.853 90.4811 239.677 135.506 226.294C180.531 212.911 248.484 225.175 271.983 304.233C283.628 343.41 314.242 331.914 305.656 385.124C296.916 439.289 231.025 447.149 208.312 453.9C163.288 467.284 71.3928 442.572 76.3612 381.235Z" fill="#FFB443"/>
</g>
<g filter="url(#filter36_f_1103_2)">
<path d="M79.8631 387.847C67.4263 246.641 126.654 168.809 182.164 152.309C237.674 135.809 290.397 196.199 316.735 284.807C329.787 328.716 364.793 286.399 352.657 346.783C340.302 408.253 252.326 431.504 224.324 439.827C168.814 456.327 106.201 476.455 79.8631 387.847Z" fill="#FFB443"/>
</g>
<g filter="url(#filter37_f_1103_2)">
<path d="M83.3983 375.665C70.5183 251.352 113.613 111.83 178.581 92.519C243.548 73.2081 326.23 146.228 357.817 252.496C373.47 305.157 439.837 269.17 426.081 341.352C412.079 414.831 319.167 426.686 286.394 436.428C221.427 455.739 96.2784 499.979 83.3983 375.665Z" fill="#FFB443"/>
</g>
<g filter="url(#filter38_f_1103_2)">
<path d="M90.3281 282.21C105.729 92.0721 109.959 88.6745 173.477 69.794C236.996 50.9135 332.623 94.7982 366.635 209.221C383.489 265.923 376.268 283.194 364.661 359.963C352.846 438.11 244.383 449.659 212.341 459.183C148.822 478.064 81.3966 392.474 90.3281 282.21Z" fill="#FFB443"/>
</g>
<g filter="url(#filter39_f_1103_2)">
<path d="M110.853 278.922C75.7059 160.677 131.06 33.4332 196.028 14.1222C260.995 -5.1888 349.593 35.719 384.74 153.964C402.157 212.56 434.101 311.135 422.442 390.369C410.574 471.026 256.932 410.678 224.159 420.419C159.192 439.73 146.001 397.167 110.853 278.922Z" fill="#FFB443"/>
</g>
<g filter="url(#filter40_f_1103_2)">
<path d="M126.962 370.929C96.2077 267.464 155.344 152.945 220.312 133.634C285.279 114.323 371.581 147.508 402.335 250.972C417.575 302.244 424.332 261.7 410.086 332.231C395.585 404.03 302.786 416.268 270.014 426.009C205.046 445.32 157.716 474.393 126.962 370.929Z" fill="#FFB443"/>
</g>
</g>
<g opacity="0.6" filter="url(#filter41_f_1103_2)">
<path d="M340.834 264.16C333.746 351.667 246.635 446.262 202.125 442.657C157.615 439.052 51.0191 495.861 157.457 286.703C164.546 199.195 86.5927 88.4805 227.793 125.765C272.303 129.37 215.925 216.646 340.834 264.16Z" fill="url(#paint28_linear_1103_2)"/>
</g>
<g filter="url(#filter42_f_1103_2)">
<path d="M204.793 190.747L232.244 143.801L251.076 143.006C244.71 151.847 238.61 160.864 232.775 170.059L233.04 170.324C235.339 167.407 237.903 164.268 240.732 160.909C243.561 157.549 246.523 154.455 249.617 151.626C252.8 148.708 256.027 146.277 259.298 144.332C262.657 142.387 265.973 141.414 269.244 141.414C272.604 141.414 275.389 142.298 277.599 144.066C279.897 145.746 281.047 148.354 281.047 151.891C281.047 154.808 280.118 157.814 278.262 160.909C276.494 164.003 274.504 167.053 272.294 170.059C270.084 172.977 268.05 175.806 266.194 178.546C264.426 181.199 263.542 183.542 263.542 185.575C263.542 186.459 263.763 187.255 264.205 187.962C264.735 188.581 265.531 188.89 266.592 188.89C268.537 188.89 270.747 188.006 273.222 186.238C275.698 184.382 278.262 182.127 280.914 179.475C282.948 177.441 284.981 175.275 287.014 172.977C289.048 170.59 290.949 168.335 292.717 166.213C294.485 164.003 296.077 162.014 297.491 160.246C298.906 158.389 300.011 156.93 300.806 155.869L302 156.532C298.994 160.511 295.767 164.622 292.319 168.866C288.96 173.109 285.556 176.999 282.108 180.536C278.483 184.249 274.946 187.166 271.498 189.288C268.139 191.322 264.691 192.338 261.154 192.338C257.176 192.338 254.17 191.189 252.137 188.89C250.192 186.503 249.219 183.453 249.219 179.74C249.219 176.557 250.059 173.551 251.739 170.722C253.507 167.805 255.452 165.108 257.574 162.633C259.696 160.069 261.597 157.726 263.276 155.604C265.045 153.482 265.929 151.493 265.929 149.636C265.929 147.161 264.735 145.923 262.348 145.923C260.757 145.923 258.812 146.763 256.513 148.443C254.214 150.034 251.739 152.156 249.086 154.808C246.434 157.461 243.738 160.422 240.997 163.694C238.256 166.965 235.648 170.236 233.173 173.507C230.786 176.778 228.664 179.873 226.807 182.79C225.039 185.708 223.713 188.095 222.829 189.951L204.793 190.747Z" fill="white"/>
<path d="M141.919 178.414C141.919 173.817 143.068 169.308 145.367 164.887C147.754 160.467 150.804 156.532 154.518 153.084C158.319 149.548 162.563 146.719 167.249 144.597C171.934 142.475 176.664 141.414 181.438 141.414C184.268 141.414 186.743 141.945 188.865 143.006C191.075 143.978 192.932 146.056 194.435 149.238L197.618 143.006L216.051 142.21C211.454 150.078 206.856 157.814 202.259 165.418C197.75 172.932 193.241 180.536 188.732 188.227C192.799 186.813 196.689 184.956 200.402 182.658C204.204 180.27 207.785 177.662 211.144 174.833C214.504 171.916 217.687 168.821 220.693 165.55C223.787 162.279 226.66 159.008 229.313 155.737L230.241 156.665C227.589 160.025 224.627 163.428 221.356 166.876C218.085 170.324 214.637 173.551 211.012 176.557C207.387 179.563 203.585 182.26 199.607 184.647C195.717 187.034 191.694 188.846 187.539 190.084C184.179 196.892 180.201 202.992 175.603 208.385C171.006 213.778 166.011 218.331 160.618 222.044C155.313 225.846 149.743 228.719 143.908 230.664C138.073 232.698 132.194 233.714 126.27 233.714C122.646 233.714 119.065 233.361 115.529 232.654C111.992 231.946 108.854 230.797 106.113 229.206C103.284 227.703 101.029 225.713 99.3496 223.238C97.5814 220.851 96.6973 217.889 96.6973 214.353C96.6973 212.054 97.1835 209.888 98.156 207.854C99.0401 205.909 100.455 204.185 102.4 202.682C104.345 201.18 106.864 199.986 109.959 199.102C113.053 198.306 116.766 197.908 121.098 197.908H129.586V199.5H126.668C122.425 199.5 119.021 200.737 116.457 203.213C113.893 205.688 112.611 209.534 112.611 214.75C112.611 217.138 112.965 219.392 113.672 221.514C114.379 223.636 115.44 225.448 116.855 226.951C118.181 228.542 119.817 229.78 121.762 230.664C123.618 231.637 125.74 232.123 128.127 232.123C133.52 232.123 138.692 230.134 143.643 226.155C148.506 222.177 153.103 217.005 157.435 210.639L177.725 181.066L177.46 180.801C174.366 184.426 170.785 187.255 166.718 189.288C162.74 191.322 158.629 192.338 154.385 192.338C150.406 192.338 147.312 191.057 145.102 188.493C142.98 185.84 141.919 182.481 141.919 178.414ZM159.159 180.403C159.159 182.083 159.424 183.63 159.955 185.045C160.574 186.371 161.9 187.034 163.933 187.034C165.79 187.034 167.735 186.415 169.768 185.177C171.802 183.851 173.791 182.171 175.736 180.138C177.681 178.016 179.538 175.629 181.306 172.977C183.074 170.324 184.577 167.628 185.815 164.887C187.141 162.058 188.202 159.361 188.998 156.798C189.793 154.145 190.191 151.802 190.191 149.769C190.191 147.647 189.616 146.012 188.467 144.862C187.406 143.624 185.992 143.006 184.223 143.006C182.367 143.006 180.466 143.624 178.521 144.862C176.576 146.1 174.675 147.736 172.818 149.769C170.962 151.714 169.194 154.013 167.514 156.665C165.834 159.229 164.375 161.925 163.138 164.754C161.9 167.495 160.927 170.236 160.22 172.977C159.513 175.629 159.159 178.104 159.159 180.403Z" fill="white"/>
<path d="M143.34 143.01C140.51 147.519 137.725 151.896 134.985 156.139C132.244 160.383 129.813 164.361 127.691 168.075C125.569 171.7 123.845 174.926 122.519 177.756C121.281 180.585 120.662 182.839 120.662 184.519C120.662 185.757 120.883 186.818 121.325 187.702C121.767 188.497 122.563 188.895 123.712 188.895C125.481 188.895 127.381 188.276 129.415 187.039C131.537 185.713 133.703 184.077 135.913 182.132C138.123 180.098 140.334 177.844 142.544 175.369C144.754 172.805 146.832 170.329 148.777 167.942C150.722 165.467 152.446 163.168 153.949 161.046C155.54 158.836 156.822 157.068 157.795 155.741L158.856 156.139C156.734 159.145 154.081 162.814 150.899 167.146C147.716 171.39 144.135 175.545 140.157 179.612C136.09 183.768 132.332 186.95 128.884 189.161C125.436 191.282 121.591 192.343 117.347 192.343C113.722 192.343 110.981 191.327 109.125 189.293C107.268 187.171 106.34 184.254 106.34 180.541C106.34 176.562 108.02 171.611 111.379 165.688C114.827 159.676 119.159 152.293 124.376 143.541L143.34 143.01ZM136.576 122.322C136.576 119.758 137.46 117.592 139.228 115.824C141.085 113.968 143.295 113.039 145.859 113.039C148.423 113.039 150.589 113.968 152.357 115.824C154.214 117.592 155.142 119.758 155.142 122.322C155.142 124.886 154.214 127.097 152.357 128.953C150.589 130.721 148.423 131.605 145.859 131.605C143.295 131.605 141.085 130.721 139.228 128.953C137.46 127.097 136.576 124.886 136.576 122.322Z" fill="white"/>
<path d="M123.96 109.19C123.96 105.83 123.12 103.001 121.44 100.702C119.849 98.3154 117.24 97.1218 113.616 97.1218C110.256 97.1218 107.515 98.4038 105.394 100.968C103.272 103.443 101.592 106.847 100.354 111.179C99.1164 115.511 98.2323 120.595 97.7018 126.43C97.2598 132.177 97.0388 138.365 97.0388 144.996C97.0388 152.511 95.9778 159.23 93.856 165.154C91.8225 171.077 88.7724 176.116 84.7055 180.272C80.7271 184.339 75.7761 187.477 69.8526 189.687C64.0175 191.809 57.2983 192.87 49.6951 192.87C45.5398 192.87 41.5613 192.34 37.7597 191.279C33.958 190.218 30.5985 188.671 27.6809 186.637C24.7634 184.604 22.4205 182.084 20.6523 179.078C18.8841 176.072 18 172.58 18 168.602C18 166.922 18.1768 165.198 18.5305 163.43C18.9725 161.661 19.6356 160.07 20.5197 158.655C21.4038 157.152 22.5531 155.959 23.9677 155.075C25.3823 154.102 27.062 153.616 29.0071 153.616C31.4826 153.616 33.516 154.412 35.1074 156.003C36.7872 157.506 37.6271 159.451 37.6271 161.838C37.6271 164.225 36.964 166.259 35.6378 167.938C34.3117 169.53 32.4109 170.414 29.9354 170.591C29.6702 171.563 29.4933 172.403 29.4049 173.11C29.4049 173.818 29.4049 174.569 29.4049 175.365C29.4049 177.045 29.8028 178.857 30.5985 180.802C31.4826 182.659 32.7203 184.383 34.3117 185.974C35.9915 187.566 38.0691 188.892 40.5446 189.953C43.0201 190.925 45.8934 191.367 49.1646 191.279C53.7619 191.19 57.6962 190.395 60.9674 188.892C64.2385 187.389 66.9793 185.399 69.1895 182.924C71.4882 180.36 73.3006 177.443 74.6268 174.171C76.0413 170.812 77.1022 167.32 77.8095 163.695C78.6052 159.982 79.1357 156.224 79.4009 152.422C79.6661 148.532 79.7987 144.819 79.7987 141.283C79.7987 135.006 80.506 129.082 81.9206 123.512C83.4236 117.854 85.7222 112.947 88.8166 108.792C91.9994 104.548 96.022 101.189 100.885 98.7132C105.836 96.2377 111.803 95 118.788 95C121.175 95 123.562 95.2652 125.949 95.7957C128.424 96.3262 130.635 97.2103 132.58 98.448C134.613 99.5973 136.249 101.145 137.486 103.09C138.724 104.946 139.343 107.245 139.343 109.986C139.343 112.815 138.592 115.113 137.089 116.882C135.674 118.561 133.862 119.887 131.651 120.86C129.441 121.744 127.054 122.363 124.49 122.717C121.926 122.982 119.539 123.114 117.329 123.114C119.451 121.258 121.086 119.18 122.236 116.882C123.385 114.583 123.96 112.019 123.96 109.19Z" fill="white"/>
</g>
<path d="M204.793 190.747L232.244 143.801L251.076 143.006C244.71 151.847 238.61 160.864 232.775 170.059L233.04 170.324C235.339 167.407 237.903 164.268 240.732 160.909C243.561 157.549 246.523 154.455 249.617 151.626C252.8 148.708 256.027 146.277 259.298 144.332C262.657 142.387 265.973 141.414 269.244 141.414C272.604 141.414 275.389 142.298 277.599 144.066C279.897 145.746 281.047 148.354 281.047 151.891C281.047 154.808 280.118 157.814 278.262 160.909C276.494 164.003 274.504 167.053 272.294 170.059C270.084 172.977 268.05 175.806 266.194 178.546C264.426 181.199 263.542 183.542 263.542 185.575C263.542 186.459 263.763 187.255 264.205 187.962C264.735 188.581 265.531 188.89 266.592 188.89C268.537 188.89 270.747 188.006 273.222 186.238C275.698 184.382 278.262 182.127 280.914 179.475C282.948 177.441 284.981 175.275 287.014 172.977C289.048 170.59 290.949 168.335 292.717 166.213C294.485 164.003 296.077 162.014 297.491 160.246C298.906 158.389 300.011 156.93 300.806 155.869L302 156.532C298.994 160.511 295.767 164.622 292.319 168.866C288.96 173.109 285.556 176.999 282.108 180.536C278.483 184.249 274.946 187.166 271.498 189.288C268.139 191.322 264.691 192.338 261.154 192.338C257.176 192.338 254.17 191.189 252.137 188.89C250.192 186.503 249.219 183.453 249.219 179.74C249.219 176.557 250.059 173.551 251.739 170.722C253.507 167.805 255.452 165.108 257.574 162.633C259.696 160.069 261.597 157.726 263.276 155.604C265.045 153.482 265.929 151.493 265.929 149.636C265.929 147.161 264.735 145.923 262.348 145.923C260.757 145.923 258.812 146.763 256.513 148.443C254.214 150.034 251.739 152.156 249.086 154.808C246.434 157.461 243.738 160.422 240.997 163.694C238.256 166.965 235.648 170.236 233.173 173.507C230.786 176.778 228.664 179.873 226.807 182.79C225.039 185.708 223.713 188.095 222.829 189.951L204.793 190.747Z" fill="white"/>
<path d="M141.919 178.414C141.919 173.817 143.068 169.308 145.367 164.887C147.754 160.467 150.804 156.532 154.518 153.084C158.319 149.548 162.563 146.719 167.249 144.597C171.934 142.475 176.664 141.414 181.438 141.414C184.268 141.414 186.743 141.945 188.865 143.006C191.075 143.978 192.932 146.056 194.435 149.238L197.618 143.006L216.051 142.21C211.454 150.078 206.856 157.814 202.259 165.418C197.75 172.932 193.241 180.536 188.732 188.227C192.799 186.813 196.689 184.956 200.402 182.658C204.204 180.27 207.785 177.662 211.144 174.833C214.504 171.916 217.687 168.821 220.693 165.55C223.787 162.279 226.66 159.008 229.313 155.737L230.241 156.665C227.589 160.025 224.627 163.428 221.356 166.876C218.085 170.324 214.637 173.551 211.012 176.557C207.387 179.563 203.585 182.26 199.607 184.647C195.717 187.034 191.694 188.846 187.539 190.084C184.179 196.892 180.201 202.992 175.603 208.385C171.006 213.778 166.011 218.331 160.618 222.044C155.313 225.846 149.743 228.719 143.908 230.664C138.073 232.698 132.194 233.714 126.27 233.714C122.646 233.714 119.065 233.361 115.529 232.654C111.992 231.946 108.854 230.797 106.113 229.206C103.284 227.703 101.029 225.713 99.3496 223.238C97.5814 220.851 96.6973 217.889 96.6973 214.353C96.6973 212.054 97.1835 209.888 98.156 207.854C99.0401 205.909 100.455 204.185 102.4 202.682C104.345 201.18 106.864 199.986 109.959 199.102C113.053 198.306 116.766 197.908 121.098 197.908H129.586V199.5H126.668C122.425 199.5 119.021 200.737 116.457 203.213C113.893 205.688 112.611 209.534 112.611 214.75C112.611 217.138 112.965 219.392 113.672 221.514C114.379 223.636 115.44 225.448 116.855 226.951C118.181 228.542 119.817 229.78 121.762 230.664C123.618 231.637 125.74 232.123 128.127 232.123C133.52 232.123 138.692 230.134 143.643 226.155C148.506 222.177 153.103 217.005 157.435 210.639L177.725 181.066L177.46 180.801C174.366 184.426 170.785 187.255 166.718 189.288C162.74 191.322 158.629 192.338 154.385 192.338C150.406 192.338 147.312 191.057 145.102 188.493C142.98 185.84 141.919 182.481 141.919 178.414ZM159.159 180.403C159.159 182.083 159.424 183.63 159.955 185.045C160.574 186.371 161.9 187.034 163.933 187.034C165.79 187.034 167.735 186.415 169.768 185.177C171.802 183.851 173.791 182.171 175.736 180.138C177.681 178.016 179.538 175.629 181.306 172.977C183.074 170.324 184.577 167.628 185.815 164.887C187.141 162.058 188.202 159.361 188.998 156.798C189.793 154.145 190.191 151.802 190.191 149.769C190.191 147.647 189.616 146.012 188.467 144.862C187.406 143.624 185.992 143.006 184.223 143.006C182.367 143.006 180.466 143.624 178.521 144.862C176.576 146.1 174.675 147.736 172.818 149.769C170.962 151.714 169.194 154.013 167.514 156.665C165.834 159.229 164.375 161.925 163.138 164.754C161.9 167.495 160.927 170.236 160.22 172.977C159.513 175.629 159.159 178.104 159.159 180.403Z" fill="white"/>
<path d="M143.34 143.01C140.51 147.519 137.725 151.896 134.985 156.139C132.244 160.383 129.813 164.361 127.691 168.075C125.569 171.7 123.845 174.926 122.519 177.756C121.281 180.585 120.662 182.839 120.662 184.519C120.662 185.757 120.883 186.818 121.325 187.702C121.767 188.497 122.563 188.895 123.712 188.895C125.481 188.895 127.381 188.276 129.415 187.039C131.537 185.713 133.703 184.077 135.913 182.132C138.123 180.098 140.334 177.844 142.544 175.369C144.754 172.805 146.832 170.329 148.777 167.942C150.722 165.467 152.446 163.168 153.949 161.046C155.54 158.836 156.822 157.068 157.795 155.741L158.856 156.139C156.734 159.145 154.081 162.814 150.899 167.146C147.716 171.39 144.135 175.545 140.157 179.612C136.09 183.768 132.332 186.95 128.884 189.161C125.436 191.282 121.591 192.343 117.347 192.343C113.722 192.343 110.981 191.327 109.125 189.293C107.268 187.171 106.34 184.254 106.34 180.541C106.34 176.562 108.02 171.611 111.379 165.688C114.827 159.676 119.159 152.293 124.376 143.541L143.34 143.01ZM136.576 122.322C136.576 119.758 137.46 117.592 139.228 115.824C141.085 113.968 143.295 113.039 145.859 113.039C148.423 113.039 150.589 113.968 152.357 115.824C154.214 117.592 155.142 119.758 155.142 122.322C155.142 124.886 154.214 127.097 152.357 128.953C150.589 130.721 148.423 131.605 145.859 131.605C143.295 131.605 141.085 130.721 139.228 128.953C137.46 127.097 136.576 124.886 136.576 122.322Z" fill="white"/>
<path d="M123.96 109.19C123.96 105.83 123.12 103.001 121.44 100.702C119.849 98.3154 117.24 97.1218 113.616 97.1218C110.256 97.1218 107.515 98.4038 105.394 100.968C103.272 103.443 101.592 106.847 100.354 111.179C99.1164 115.511 98.2323 120.595 97.7018 126.43C97.2598 132.177 97.0388 138.365 97.0388 144.996C97.0388 152.511 95.9778 159.23 93.856 165.154C91.8225 171.077 88.7724 176.116 84.7055 180.272C80.7271 184.339 75.7761 187.477 69.8526 189.687C64.0175 191.809 57.2983 192.87 49.6951 192.87C45.5398 192.87 41.5613 192.34 37.7597 191.279C33.958 190.218 30.5985 188.671 27.6809 186.637C24.7634 184.604 22.4205 182.084 20.6523 179.078C18.8841 176.072 18 172.58 18 168.602C18 166.922 18.1768 165.198 18.5305 163.43C18.9725 161.661 19.6356 160.07 20.5197 158.655C21.4038 157.152 22.5531 155.959 23.9677 155.075C25.3823 154.102 27.062 153.616 29.0071 153.616C31.4826 153.616 33.516 154.412 35.1074 156.003C36.7872 157.506 37.6271 159.451 37.6271 161.838C37.6271 164.225 36.964 166.259 35.6378 167.938C34.3117 169.53 32.4109 170.414 29.9354 170.591C29.6702 171.563 29.4933 172.403 29.4049 173.11C29.4049 173.818 29.4049 174.569 29.4049 175.365C29.4049 177.045 29.8028 178.857 30.5985 180.802C31.4826 182.659 32.7203 184.383 34.3117 185.974C35.9915 187.566 38.0691 188.892 40.5446 189.953C43.0201 190.925 45.8934 191.367 49.1646 191.279C53.7619 191.19 57.6962 190.395 60.9674 188.892C64.2385 187.389 66.9793 185.399 69.1895 182.924C71.4882 180.36 73.3006 177.443 74.6268 174.171C76.0413 170.812 77.1022 167.32 77.8095 163.695C78.6052 159.982 79.1357 156.224 79.4009 152.422C79.6661 148.532 79.7987 144.819 79.7987 141.283C79.7987 135.006 80.506 129.082 81.9206 123.512C83.4236 117.854 85.7222 112.947 88.8166 108.792C91.9994 104.548 96.022 101.189 100.885 98.7132C105.836 96.2377 111.803 95 118.788 95C121.175 95 123.562 95.2652 125.949 95.7957C128.424 96.3262 130.635 97.2103 132.58 98.448C134.613 99.5973 136.249 101.145 137.486 103.09C138.724 104.946 139.343 107.245 139.343 109.986C139.343 112.815 138.592 115.113 137.089 116.882C135.674 118.561 133.862 119.887 131.651 120.86C129.441 121.744 127.054 122.363 124.49 122.717C121.926 122.982 119.539 123.114 117.329 123.114C119.451 121.258 121.086 119.18 122.236 116.882C123.385 114.583 123.96 112.019 123.96 109.19Z" fill="white"/>
</g>
<defs>
<filter id="filter0_f_1103_2" x="-93.3695" y="-75.927" width="468.391" height="656.75" filterUnits="userSpaceOnUse" color-interpolation-filters="sRGB">
<feFlood flood-opacity="0" result="BackgroundImageFix"/>
<feBlend mode="normal" in="SourceGraphic" in2="BackgroundImageFix" result="shape"/>
<feGaussianBlur stdDeviation="24.9572" result="effect1_foregroundBlur_1103_2"/>
</filter>
<filter id="filter1_f_1103_2" x="117.687" y="-79.5389" width="310.786" height="381.947" filterUnits="userSpaceOnUse" color-interpolation-filters="sRGB">
<feFlood flood-opacity="0" result="BackgroundImageFix"/>
<feBlend mode="normal" in="SourceGraphic" in2="BackgroundImageFix" result="shape"/>
<feGaussianBlur stdDeviation="0.998288" result="effect1_foregroundBlur_1103_2"/>
</filter>
<filter id="filter2_f_1103_2" x="34.555" y="-108.728" width="398.66" height="438.625" filterUnits="userSpaceOnUse" color-interpolation-filters="sRGB">
<feFlood flood-opacity="0" result="BackgroundImageFix"/>
<feBlend mode="normal" in="SourceGraphic" in2="BackgroundImageFix" result="shape"/>
<feGaussianBlur stdDeviation="3.49401" result="effect1_foregroundBlur_1103_2"/>
</filter>
<filter id="filter3_f_1103_2" x="-65.3559" y="-149.669" width="495.382" height="555.382" filterUnits="userSpaceOnUse" color-interpolation-filters="sRGB">
<feFlood flood-opacity="0" result="BackgroundImageFix"/>
<feBlend mode="normal" in="SourceGraphic" in2="BackgroundImageFix" result="shape"/>
<feGaussianBlur stdDeviation="4.99144" result="effect1_foregroundBlur_1103_2"/>
</filter>
<filter id="filter4_f_1103_2" x="-64.7057" y="-132.496" width="465.9" height="618.694" filterUnits="userSpaceOnUse" color-interpolation-filters="sRGB">
<feFlood flood-opacity="0" result="BackgroundImageFix"/>
<feBlend mode="normal" in="SourceGraphic" in2="BackgroundImageFix" result="shape"/>
<feGaussianBlur stdDeviation="13.4769" result="effect1_foregroundBlur_1103_2"/>
</filter>
<filter id="filter5_f_1103_2" x="-155.458" y="-125.861" width="555.13" height="717.372" filterUnits="userSpaceOnUse" color-interpolation-filters="sRGB">
<feFlood flood-opacity="0" result="BackgroundImageFix"/>
<feBlend mode="normal" in="SourceGraphic" in2="BackgroundImageFix" result="shape"/>
<feGaussianBlur stdDeviation="33.4426" result="effect1_foregroundBlur_1103_2"/>
</filter>
<filter id="filter6_f_1103_2" x="-93.4918" y="-170.483" width="481.595" height="572.329" filterUnits="userSpaceOnUse" color-interpolation-filters="sRGB">
<feFlood flood-opacity="0" result="BackgroundImageFix"/>
<feBlend mode="normal" in="SourceGraphic" in2="BackgroundImageFix" result="shape"/>
<feGaussianBlur stdDeviation="15.4735" result="effect1_foregroundBlur_1103_2"/>
</filter>
<filter id="filter7_f_1103_2" x="-47.934" y="-28.7464" width="440.284" height="571.59" filterUnits="userSpaceOnUse" color-interpolation-filters="sRGB">
<feFlood flood-opacity="0" result="BackgroundImageFix"/>
<feBlend mode="normal" in="SourceGraphic" in2="BackgroundImageFix" result="shape"/>
<feGaussianBlur stdDeviation="16.9709" result="effect1_foregroundBlur_1103_2"/>
</filter>
<filter id="filter8_f_1103_2" x="-129.063" y="-69.6595" width="313.712" height="292.794" filterUnits="userSpaceOnUse" color-interpolation-filters="sRGB">
<feFlood flood-opacity="0" result="BackgroundImageFix"/>
<feBlend mode="normal" in="SourceGraphic" in2="BackgroundImageFix" result="shape"/>
<feGaussianBlur stdDeviation="0.998288" result="effect1_foregroundBlur_1103_2"/>
</filter>
<filter id="filter9_f_1103_2" x="-148.603" y="-74.8325" width="361.132" height="375.841" filterUnits="userSpaceOnUse" color-interpolation-filters="sRGB">
<feFlood flood-opacity="0" result="BackgroundImageFix"/>
<feBlend mode="normal" in="SourceGraphic" in2="BackgroundImageFix" result="shape"/>
<feGaussianBlur stdDeviation="3.49401" result="effect1_foregroundBlur_1103_2"/>
</filter>
<filter id="filter10_f_1103_2" x="-182.551" y="-55.3747" width="468.515" height="511.266" filterUnits="userSpaceOnUse" color-interpolation-filters="sRGB">
<feFlood flood-opacity="0" result="BackgroundImageFix"/>
<feBlend mode="normal" in="SourceGraphic" in2="BackgroundImageFix" result="shape"/>
<feGaussianBlur stdDeviation="4.99144" result="effect1_foregroundBlur_1103_2"/>
</filter>
<filter id="filter11_f_1103_2" x="-223.04" y="-50.0036" width="582.415" height="477.498" filterUnits="userSpaceOnUse" color-interpolation-filters="sRGB">
<feFlood flood-opacity="0" result="BackgroundImageFix"/>
<feBlend mode="normal" in="SourceGraphic" in2="BackgroundImageFix" result="shape"/>
<feGaussianBlur stdDeviation="13.4769" result="effect1_foregroundBlur_1103_2"/>
</filter>
<filter id="filter12_f_1103_2" x="-188.612" y="-73.5094" width="648.009" height="562.224" filterUnits="userSpaceOnUse" color-interpolation-filters="sRGB">
<feFlood flood-opacity="0" result="BackgroundImageFix"/>
<feBlend mode="normal" in="SourceGraphic" in2="BackgroundImageFix" result="shape"/>
<feGaussianBlur stdDeviation="33.4426" result="effect1_foregroundBlur_1103_2"/>
</filter>
<filter id="filter13_f_1103_2" x="-194.756" y="-29.5187" width="487.931" height="487.419" filterUnits="userSpaceOnUse" color-interpolation-filters="sRGB">
<feFlood flood-opacity="0" result="BackgroundImageFix"/>
<feBlend mode="normal" in="SourceGraphic" in2="BackgroundImageFix" result="shape"/>
<feGaussianBlur stdDeviation="15.4735" result="effect1_foregroundBlur_1103_2"/>
</filter>
<filter id="filter14_f_1103_2" x="-134.829" y="199.697" width="322.794" height="329.454" filterUnits="userSpaceOnUse" color-interpolation-filters="sRGB">
<feFlood flood-opacity="0" result="BackgroundImageFix"/>
<feBlend mode="normal" in="SourceGraphic" in2="BackgroundImageFix" result="shape"/>
<feGaussianBlur stdDeviation="0.998288" result="effect1_foregroundBlur_1103_2"/>
</filter>
<filter id="filter15_f_1103_2" x="-137.025" y="95.2844" width="396.257" height="434.409" filterUnits="userSpaceOnUse" color-interpolation-filters="sRGB">
<feFlood flood-opacity="0" result="BackgroundImageFix"/>
<feBlend mode="normal" in="SourceGraphic" in2="BackgroundImageFix" result="shape"/>
<feGaussianBlur stdDeviation="3.49401" result="effect1_foregroundBlur_1103_2"/>
</filter>
<filter id="filter16_f_1103_2" x="-135.981" y="9.24442" width="498.643" height="531.554" filterUnits="userSpaceOnUse" color-interpolation-filters="sRGB">
<feFlood flood-opacity="0" result="BackgroundImageFix"/>
<feBlend mode="normal" in="SourceGraphic" in2="BackgroundImageFix" result="shape"/>
<feGaussianBlur stdDeviation="4.99144" result="effect1_foregroundBlur_1103_2"/>
</filter>
<filter id="filter17_f_1103_2" x="-141.344" y="-40.6559" width="450.103" height="600.793" filterUnits="userSpaceOnUse" color-interpolation-filters="sRGB">
<feFlood flood-opacity="0" result="BackgroundImageFix"/>
<feBlend mode="normal" in="SourceGraphic" in2="BackgroundImageFix" result="shape"/>
<feGaussianBlur stdDeviation="13.4769" result="effect1_foregroundBlur_1103_2"/>
</filter>
<filter id="filter18_f_1103_2" x="-158.794" y="-115.784" width="582.345" height="718.239" filterUnits="userSpaceOnUse" color-interpolation-filters="sRGB">
<feFlood flood-opacity="0" result="BackgroundImageFix"/>
<feBlend mode="normal" in="SourceGraphic" in2="BackgroundImageFix" result="shape"/>
<feGaussianBlur stdDeviation="33.4426" result="effect1_foregroundBlur_1103_2"/>
</filter>
<filter id="filter19_f_1103_2" x="-69.9704" y="38.5608" width="475.015" height="498.908" filterUnits="userSpaceOnUse" color-interpolation-filters="sRGB">
<feFlood flood-opacity="0" result="BackgroundImageFix"/>
<feBlend mode="normal" in="SourceGraphic" in2="BackgroundImageFix" result="shape"/>
<feGaussianBlur stdDeviation="15.4735" result="effect1_foregroundBlur_1103_2"/>
</filter>
<filter id="filter20_f_1103_2" x="-35.7054" y="-1.39672" width="424.495" height="539.901" filterUnits="userSpaceOnUse" color-interpolation-filters="sRGB">
<feFlood flood-opacity="0" result="BackgroundImageFix"/>
<feBlend mode="normal" in="SourceGraphic" in2="BackgroundImageFix" result="shape"/>
<feGaussianBlur stdDeviation="20.964" result="effect1_foregroundBlur_1103_2"/>
</filter>
<filter id="filter21_f_1103_2" x="-2.03391" y="-37.1197" width="479.386" height="615.861" filterUnits="userSpaceOnUse" color-interpolation-filters="sRGB">
<feFlood flood-opacity="0" result="BackgroundImageFix"/>
<feBlend mode="normal" in="SourceGraphic" in2="BackgroundImageFix" result="shape"/>
<feGaussianBlur stdDeviation="53.0863" result="effect1_foregroundBlur_1103_2"/>
</filter>
<filter id="filter22_f_1103_2" x="218.093" y="27.4748" width="230.779" height="282.339" filterUnits="userSpaceOnUse" color-interpolation-filters="sRGB">
<feFlood flood-opacity="0" result="BackgroundImageFix"/>
<feBlend mode="normal" in="SourceGraphic" in2="BackgroundImageFix" result="shape"/>
<feGaussianBlur stdDeviation="2.12345" result="effect1_foregroundBlur_1103_2"/>
</filter>
<filter id="filter23_f_1103_2" x="150.858" y="-0.674708" width="308.451" height="337.407" filterUnits="userSpaceOnUse" color-interpolation-filters="sRGB">
<feFlood flood-opacity="0" result="BackgroundImageFix"/>
<feBlend mode="normal" in="SourceGraphic" in2="BackgroundImageFix" result="shape"/>
<feGaussianBlur stdDeviation="7.43208" result="effect1_foregroundBlur_1103_2"/>
</filter>
<filter id="filter24_f_1103_2" x="74.2674" y="-34.5407" width="386.93" height="430.404" filterUnits="userSpaceOnUse" color-interpolation-filters="sRGB">
<feFlood flood-opacity="0" result="BackgroundImageFix"/>
<feBlend mode="normal" in="SourceGraphic" in2="BackgroundImageFix" result="shape"/>
<feGaussianBlur stdDeviation="10.6173" result="effect1_foregroundBlur_1103_2"/>
</filter>
<filter id="filter25_f_1103_2" x="50.9324" y="-45.9016" width="413.174" height="523.881" filterUnits="userSpaceOnUse" color-interpolation-filters="sRGB">
<feFlood flood-opacity="0" result="BackgroundImageFix"/>
<feBlend mode="normal" in="SourceGraphic" in2="BackgroundImageFix" result="shape"/>
<feGaussianBlur stdDeviation="28.6666" result="effect1_foregroundBlur_1103_2"/>
</filter>
<filter id="filter26_f_1103_2" x="-70.8259" y="-97.0994" width="589.837" height="707.389" filterUnits="userSpaceOnUse" color-interpolation-filters="sRGB">
<feFlood flood-opacity="0" result="BackgroundImageFix"/>
<feBlend mode="normal" in="SourceGraphic" in2="BackgroundImageFix" result="shape"/>
<feGaussianBlur stdDeviation="71.1356" result="effect1_foregroundBlur_1103_2"/>
</filter>
<filter id="filter27_f_1103_2" x="24.4757" y="-79.0249" width="435.746" height="501.489" filterUnits="userSpaceOnUse" color-interpolation-filters="sRGB">
<feFlood flood-opacity="0" result="BackgroundImageFix"/>
<feBlend mode="normal" in="SourceGraphic" in2="BackgroundImageFix" result="shape"/>
<feGaussianBlur stdDeviation="32.9135" result="effect1_foregroundBlur_1103_2"/>
</filter>
<filter id="filter28_f_1103_2" x="53.287" y="19.4669" width="414.217" height="509.354" filterUnits="userSpaceOnUse" color-interpolation-filters="sRGB">
<feFlood flood-opacity="0" result="BackgroundImageFix"/>
<feBlend mode="normal" in="SourceGraphic" in2="BackgroundImageFix" result="shape"/>
<feGaussianBlur stdDeviation="36.0987" result="effect1_foregroundBlur_1103_2"/>
</filter>
<filter id="filter29_f_1103_2" x="39.3136" y="34.627" width="232.898" height="217.743" filterUnits="userSpaceOnUse" color-interpolation-filters="sRGB">
<feFlood flood-opacity="0" result="BackgroundImageFix"/>
<feBlend mode="normal" in="SourceGraphic" in2="BackgroundImageFix" result="shape"/>
<feGaussianBlur stdDeviation="2.12345" result="effect1_foregroundBlur_1103_2"/>
</filter>
<filter id="filter30_f_1103_2" x="18.1515" y="23.8806" width="281.26" height="291.917" filterUnits="userSpaceOnUse" color-interpolation-filters="sRGB">
<feFlood flood-opacity="0" result="BackgroundImageFix"/>
<feBlend mode="normal" in="SourceGraphic" in2="BackgroundImageFix" result="shape"/>
<feGaussianBlur stdDeviation="7.43208" result="effect1_foregroundBlur_1103_2"/>
</filter>
<filter id="filter31_f_1103_2" x="-10.6447" y="33.7783" width="367.465" height="398.439" filterUnits="userSpaceOnUse" color-interpolation-filters="sRGB">
<feFlood flood-opacity="0" result="BackgroundImageFix"/>
<feBlend mode="normal" in="SourceGraphic" in2="BackgroundImageFix" result="shape"/>
<feGaussianBlur stdDeviation="10.6173" result="effect1_foregroundBlur_1103_2"/>
</filter>
<filter id="filter32_f_1103_2" x="-63.7805" y="13.8637" width="497.594" height="421.578" filterUnits="userSpaceOnUse" color-interpolation-filters="sRGB">
<feFlood flood-opacity="0" result="BackgroundImageFix"/>
<feBlend mode="normal" in="SourceGraphic" in2="BackgroundImageFix" result="shape"/>
<feGaussianBlur stdDeviation="28.6666" result="effect1_foregroundBlur_1103_2"/>
</filter>
<filter id="filter33_f_1103_2" x="-94.8474" y="-59.1718" width="657.132" height="594.977" filterUnits="userSpaceOnUse" color-interpolation-filters="sRGB">
<feFlood flood-opacity="0" result="BackgroundImageFix"/>
<feBlend mode="normal" in="SourceGraphic" in2="BackgroundImageFix" result="shape"/>
<feGaussianBlur stdDeviation="71.1356" result="effect1_foregroundBlur_1103_2"/>
</filter>
<filter id="filter34_f_1103_2" x="-48.8915" y="23.1048" width="440.338" height="439.967" filterUnits="userSpaceOnUse" color-interpolation-filters="sRGB">
<feFlood flood-opacity="0" result="BackgroundImageFix"/>
<feBlend mode="normal" in="SourceGraphic" in2="BackgroundImageFix" result="shape"/>
<feGaussianBlur stdDeviation="32.9135" result="effect1_foregroundBlur_1103_2"/>
</filter>
<filter id="filter35_f_1103_2" x="71.9211" y="217.376" width="239.48" height="244.306" filterUnits="userSpaceOnUse" color-interpolation-filters="sRGB">
<feFlood flood-opacity="0" result="BackgroundImageFix"/>
<feBlend mode="normal" in="SourceGraphic" in2="BackgroundImageFix" result="shape"/>
<feGaussianBlur stdDeviation="2.12345" result="effect1_foregroundBlur_1103_2"/>
</filter>
<filter id="filter36_f_1103_2" x="63.3272" y="134.726" width="306.711" height="334.352" filterUnits="userSpaceOnUse" color-interpolation-filters="sRGB">
<feFlood flood-opacity="0" result="BackgroundImageFix"/>
<feBlend mode="normal" in="SourceGraphic" in2="BackgroundImageFix" result="shape"/>
<feGaussianBlur stdDeviation="7.43208" result="effect1_foregroundBlur_1103_2"/>
</filter>
<filter id="filter37_f_1103_2" x="59.8866" y="68.1842" width="389.293" height="413.139" filterUnits="userSpaceOnUse" color-interpolation-filters="sRGB">
<feFlood flood-opacity="0" result="BackgroundImageFix"/>
<feBlend mode="normal" in="SourceGraphic" in2="BackgroundImageFix" result="shape"/>
<feGaussianBlur stdDeviation="10.6173" result="effect1_foregroundBlur_1103_2"/>
</filter>
<filter id="filter38_f_1103_2" x="32.1941" y="8.22723" width="401.729" height="510.911" filterUnits="userSpaceOnUse" color-interpolation-filters="sRGB">
<feFlood flood-opacity="0" result="BackgroundImageFix"/>
<feBlend mode="normal" in="SourceGraphic" in2="BackgroundImageFix" result="shape"/>
<feGaussianBlur stdDeviation="28.6666" result="effect1_foregroundBlur_1103_2"/>
</filter>
<filter id="filter39_f_1103_2" x="-42.3416" y="-132.725" width="609.554" height="708.017" filterUnits="userSpaceOnUse" color-interpolation-filters="sRGB">
<feFlood flood-opacity="0" result="BackgroundImageFix"/>
<feBlend mode="normal" in="SourceGraphic" in2="BackgroundImageFix" result="shape"/>
<feGaussianBlur stdDeviation="71.1356" result="effect1_foregroundBlur_1103_2"/>
</filter>
<filter id="filter40_f_1103_2" x="52.7628" y="62.5852" width="430.98" height="448.291" filterUnits="userSpaceOnUse" color-interpolation-filters="sRGB">
<feFlood flood-opacity="0" result="BackgroundImageFix"/>
<feBlend mode="normal" in="SourceGraphic" in2="BackgroundImageFix" result="shape"/>
<feGaussianBlur stdDeviation="32.9135" result="effect1_foregroundBlur_1103_2"/>
</filter>
<filter id="filter41_f_1103_2" x="22.5025" y="29.1494" width="407.516" height="507.14" filterUnits="userSpaceOnUse" color-interpolation-filters="sRGB">
<feFlood flood-opacity="0" result="BackgroundImageFix"/>
<feBlend mode="normal" in="SourceGraphic" in2="BackgroundImageFix" result="shape"/>
<feGaussianBlur stdDeviation="44.5925" result="effect1_foregroundBlur_1103_2"/>
</filter>
<filter id="filter42_f_1103_2" x="-2.90812" y="74.0919" width="325.816" height="180.531" filterUnits="userSpaceOnUse" color-interpolation-filters="sRGB">
<feFlood flood-opacity="0" result="BackgroundImageFix"/>
<feBlend mode="normal" in="SourceGraphic" in2="BackgroundImageFix" result="shape"/>
<feGaussianBlur stdDeviation="10.4541" result="effect1_foregroundBlur_1103_2"/>
</filter>
<linearGradient id="paint0_linear_1103_2" x1="95.4217" y1="132.789" x2="322.813" y2="149.952" gradientUnits="userSpaceOnUse">
<stop stop-color="#E14603"/>
<stop offset="1" stop-color="#EB8E2E"/>
</linearGradient>
<linearGradient id="paint1_linear_1103_2" x1="140.826" y1="-26.5219" x2="140.826" y2="531.418" gradientUnits="userSpaceOnUse">
<stop stop-color="#FE7B02"/>
<stop offset="1" stop-color="#FE6C02"/>
</linearGradient>
<linearGradient id="paint2_linear_1103_2" x1="232.81" y1="114.134" x2="74.9019" y2="-113.76" gradientUnits="userSpaceOnUse">
<stop stop-color="#C4C4C4"/>
<stop offset="1" stop-color="#C4C4C4" stop-opacity="0"/>
</linearGradient>
<linearGradient id="paint3_linear_1103_2" x1="420.425" y1="129.628" x2="30.3376" y2="110.503" gradientUnits="userSpaceOnUse">
<stop stop-color="#C4C4C4"/>
<stop offset="1" stop-color="#C4C4C4" stop-opacity="0"/>
</linearGradient>
<linearGradient id="paint4_linear_1103_2" x1="266.391" y1="-74.2353" x2="236.208" y2="298.389" gradientUnits="userSpaceOnUse">
<stop stop-color="#FE7B02"/>
<stop offset="1" stop-color="#FE6C02"/>
</linearGradient>
<linearGradient id="paint5_linear_1103_2" x1="284.756" y1="-73.8564" x2="254.585" y2="298.616" gradientUnits="userSpaceOnUse">
<stop stop-color="#FE7B02"/>
<stop offset="1" stop-color="#FE6C02"/>
</linearGradient>
<linearGradient id="paint6_linear_1103_2" x1="246.758" y1="-97.064" x2="212.943" y2="320.405" gradientUnits="userSpaceOnUse">
<stop stop-color="#FE7B02"/>
<stop offset="1" stop-color="#FE6C02"/>
</linearGradient>
<linearGradient id="paint7_linear_1103_2" x1="196.135" y1="-132.614" x2="153.512" y2="393.597" gradientUnits="userSpaceOnUse">
<stop stop-color="#FE7B02"/>
<stop offset="1" stop-color="#FE6C02"/>
</linearGradient>
<linearGradient id="paint8_linear_1103_2" x1="186.67" y1="-101.929" x2="141.211" y2="459.28" gradientUnits="userSpaceOnUse">
<stop stop-color="#FE7B02"/>
<stop offset="1" stop-color="#FE6C02"/>
</linearGradient>
<linearGradient id="paint9_linear_1103_2" x1="141.149" y1="-55.2921" x2="94.1725" y2="524.665" gradientUnits="userSpaceOnUse">
<stop stop-color="#FE7B02"/>
<stop offset="1" stop-color="#FE6C02"/>
</linearGradient>
<linearGradient id="paint10_linear_1103_2" x1="166.027" y1="-136.31" x2="124.922" y2="371.153" gradientUnits="userSpaceOnUse">
<stop stop-color="#FE7B02"/>
<stop offset="1" stop-color="#FE6C02"/>
</linearGradient>
<linearGradient id="paint11_linear_1103_2" x1="164.232" y1="39.4681" x2="-102.732" y2="78.9436" gradientUnits="userSpaceOnUse">
<stop stop-color="#C4C4C4"/>
<stop offset="0.943414" stop-color="#C4C4C4" stop-opacity="0"/>
</linearGradient>
<linearGradient id="paint12_linear_1103_2" x1="28.6879" y1="14.8052" x2="16.2576" y2="327.433" gradientUnits="userSpaceOnUse">
<stop stop-color="#C4C4C4"/>
<stop offset="1" stop-color="#C4C4C4" stop-opacity="0"/>
</linearGradient>
<linearGradient id="paint13_linear_1103_2" x1="-121.348" y1="433.599" x2="275.077" y2="63.3434" gradientUnits="userSpaceOnUse">
<stop stop-color="#C4C4C4"/>
<stop offset="1" stop-color="#C4C4C4" stop-opacity="0"/>
</linearGradient>
<linearGradient id="paint14_linear_1103_2" x1="99.7225" y1="43.3207" x2="272.483" y2="446.678" gradientUnits="userSpaceOnUse">
<stop offset="0.213542" stop-color="#FB1E00"/>
<stop offset="0.567708" stop-color="#E9FF65"/>
<stop offset="0.9375" stop-color="#FFD058"/>
</linearGradient>
<linearGradient id="paint15_linear_1103_2" x1="237.659" y1="68.6839" x2="237.659" y2="472.938" gradientUnits="userSpaceOnUse">
<stop stop-color="#FE7B02"/>
<stop offset="1" stop-color="#FE6C02"/>
</linearGradient>
<linearGradient id="paint16_linear_1103_2" x1="304.306" y1="170.59" x2="189.895" y2="5.47008" gradientUnits="userSpaceOnUse">
<stop stop-color="#C4C4C4"/>
<stop offset="1" stop-color="#C4C4C4" stop-opacity="0"/>
</linearGradient>
<linearGradient id="paint17_linear_1103_2" x1="440.242" y1="181.82" x2="157.605" y2="167.963" gradientUnits="userSpaceOnUse">
<stop stop-color="#C4C4C4"/>
<stop offset="1" stop-color="#C4C4C4" stop-opacity="0"/>
</linearGradient>
<linearGradient id="paint18_linear_1103_2" x1="328.636" y1="34.1154" x2="306.767" y2="304.1" gradientUnits="userSpaceOnUse">
<stop stop-color="#FE7B02"/>
<stop offset="1" stop-color="#FE6C02"/>
</linearGradient>
<linearGradient id="paint19_linear_1103_2" x1="341.943" y1="34.3923" x2="320.083" y2="304.266" gradientUnits="userSpaceOnUse">
<stop stop-color="#FE7B02"/>
<stop offset="1" stop-color="#FE6C02"/>
</linearGradient>
<linearGradient id="paint20_linear_1103_2" x1="314.411" y1="17.5776" x2="289.91" y2="320.054" gradientUnits="userSpaceOnUse">
<stop stop-color="#FE7B02"/>
<stop offset="1" stop-color="#FE6C02"/>
</linearGradient>
<linearGradient id="paint21_linear_1103_2" x1="277.731" y1="-8.18251" x2="246.849" y2="373.083" gradientUnits="userSpaceOnUse">
<stop stop-color="#FE7B02"/>
<stop offset="1" stop-color="#FE6C02"/>
</linearGradient>
<linearGradient id="paint22_linear_1103_2" x1="270.87" y1="14.0497" x2="237.933" y2="420.672" gradientUnits="userSpaceOnUse">
<stop stop-color="#FE7B02"/>
<stop offset="1" stop-color="#FE6C02"/>
</linearGradient>
<linearGradient id="paint23_linear_1103_2" x1="237.89" y1="47.8411" x2="203.854" y2="468.048" gradientUnits="userSpaceOnUse">
<stop stop-color="#FE7B02"/>
<stop offset="1" stop-color="#FE6C02"/>
</linearGradient>
<linearGradient id="paint24_linear_1103_2" x1="255.913" y1="-10.8604" x2="226.131" y2="356.82" gradientUnits="userSpaceOnUse">
<stop stop-color="#FE7B02"/>
<stop offset="1" stop-color="#FE6C02"/>
</linearGradient>
<linearGradient id="paint25_linear_1103_2" x1="254.623" y1="116.497" x2="61.1951" y2="145.099" gradientUnits="userSpaceOnUse">
<stop stop-color="#C4C4C4"/>
<stop offset="0.943414" stop-color="#C4C4C4" stop-opacity="0"/>
</linearGradient>
<linearGradient id="paint26_linear_1103_2" x1="156.413" y1="98.6257" x2="147.406" y2="325.14" gradientUnits="userSpaceOnUse">
<stop stop-color="#C4C4C4"/>
<stop offset="1" stop-color="#C4C4C4" stop-opacity="0"/>
</linearGradient>
<linearGradient id="paint27_linear_1103_2" x1="84.4881" y1="389.651" x2="371.717" y2="121.383" gradientUnits="userSpaceOnUse">
<stop stop-color="#C4C4C4"/>
<stop offset="1" stop-color="#C4C4C4" stop-opacity="0"/>
</linearGradient>
<linearGradient id="paint28_linear_1103_2" x1="227.788" y1="125.765" x2="202.119" y2="442.657" gradientUnits="userSpaceOnUse">
<stop offset="0.213542" stop-color="#FB1E00"/>
<stop offset="0.567708" stop-color="#E9FF65"/>
<stop offset="0.9375" stop-color="#FFD058"/>
</linearGradient>
<clipPath id="clip0_1103_2">
<rect width="320" height="329" rx="160" fill="white"/>
</clipPath>
</defs>
</svg>
