<svg width="91" height="91" viewBox="0 0 91 91" fill="none" xmlns="http://www.w3.org/2000/svg">
<rect width="91" height="91" rx="45.5" fill="black"/>
<path d="M59.3218 45.5541C59.3218 53.2292 53.1328 59.451 45.4983 59.451C37.8638 59.451 31.6748 53.2292 31.6748 45.5541M59.3218 45.5541C59.3218 37.879 53.1328 31.6571 45.4983 31.6571C37.8638 31.6571 31.6748 37.879 31.6748 45.5541M59.3218 45.5541L59.3219 68.9998M31.6748 45.5541L31.6748 22.345" stroke="white" stroke-width="5.31319" stroke-linecap="round"/>
<path d="M44.8088 69L43.2528 69C31.5152 69 22 59.4848 22 47.7472L22 28.9114" stroke="white" stroke-width="5.31319" stroke-linecap="round"/>
<path d="M46.1912 22L47.7472 22C59.4848 22 69 31.5152 69 43.2528L69 61.3975" stroke="white" stroke-width="5.31319" stroke-linecap="round"/>
</svg>
