<svg width="32" height="32" viewBox="0 0 32 32" fill="none" xmlns="http://www.w3.org/2000/svg">
<path d="M0 16C0 7.16344 7.16344 0 16 0C24.8366 0 32 7.16344 32 16C32 24.8366 24.8366 32 16 32C7.16344 32 0 24.8366 0 16Z" fill="white"/>
<path d="M16 25C20.9706 25 25 20.9706 25 16C25 11.0294 20.9706 7 16 7C11.0294 7 7 11.0294 7 16C7 20.9706 11.0294 25 16 25Z" fill="black"/>
<path d="M20.6773 20.8443C16.5356 21.66 12.4894 19.0429 11.6477 15.0284C11.2266 13.0832 11.659 11.1403 12.6878 9.57143C9.56857 10.9691 7.72389 14.3144 8.43928 17.7494C9.281 21.764 13.3272 24.381 17.4689 23.5653C19.6037 23.1576 21.3142 21.9215 22.4285 20.27C21.8731 20.5167 21.3177 20.722 20.6773 20.8443Z" fill="url(#paint0_linear_609_330360)" fill-opacity="0.5"/>
<path fill-rule="evenodd" clip-rule="evenodd" d="M23.0048 19.3335L23.4898 19.6788C23.599 19.7566 23.5877 19.923 23.4688 19.9851L21.8983 20.8056C21.7737 20.8709 21.6262 20.7736 21.6366 20.633L21.775 18.7917C21.7853 18.6523 21.9439 18.5776 22.0575 18.6586L22.4925 18.9687C23.6031 16.4369 23.1925 13.3776 21.2053 11.2149C18.5491 8.32455 14.0739 8.12051 11.1682 10.7415C11.1314 10.7748 11.0743 10.7729 11.041 10.7365L10.7447 10.4138C10.7111 10.3774 10.7136 10.3203 10.7507 10.287C13.9066 7.43497 18.7716 7.65469 21.6582 10.7962C23.8483 13.1786 24.2745 16.5624 23.0048 19.3335ZM8.99506 12.6663L8.51009 12.3211C8.40086 12.2432 8.41216 12.0768 8.53112 12.0147L10.1015 11.1942C10.2262 11.1289 10.3737 11.2262 10.3633 11.3668L10.2249 13.2081C10.2145 13.3475 10.056 13.4222 9.94239 13.3412L9.50734 13.0311C8.39678 15.563 8.80735 18.6222 10.7946 20.7849C13.4508 23.6753 17.926 23.8793 20.8317 21.2583C20.8685 21.225 20.9256 21.2269 20.9589 21.2633L21.2552 21.586C21.2888 21.6224 21.2862 21.6795 21.2492 21.7128C18.0933 24.5649 13.2282 24.3451 10.3417 21.2037C8.15162 18.8212 7.72535 15.4374 8.99506 12.6663ZM11.4428 17.9285H11.0388H10.5714H10.2142V14.0713H10.5551H11.0388H11.451C11.6032 14.0713 11.7479 14.0858 11.8854 14.1147C11.9896 14.136 12.0894 14.1655 12.1849 14.2038C12.4084 14.2904 12.6017 14.4147 12.7649 14.5773C12.9279 14.7399 13.0534 14.9339 13.1413 15.1599C13.2311 15.3847 13.2763 15.6345 13.2763 15.9101V16.0928C13.2763 16.3665 13.2311 16.6164 13.1413 16.8424C13.0534 17.0684 12.9279 17.2624 12.7649 17.425C12.6036 17.5857 12.4102 17.7106 12.1849 17.7985C11.9614 17.8852 11.714 17.9285 11.4428 17.9285ZM11.4428 17.3089H11.0388V14.6941H11.451C11.6104 14.6941 11.7517 14.7205 11.8744 14.7732C11.9221 14.7933 11.9667 14.8172 12.0088 14.8448C12.0747 14.8881 12.1334 14.9408 12.1849 15.0036C12.2219 15.0488 12.2545 15.0984 12.2834 15.1524C12.3205 15.2214 12.3509 15.298 12.3745 15.3828C12.4187 15.5328 12.4407 15.7067 12.4407 15.9045V16.0928C12.4407 16.3502 12.4021 16.5706 12.3252 16.752C12.2702 16.8857 12.1952 16.9956 12.1004 17.0828C12.0662 17.1142 12.0295 17.1431 11.9899 17.1682C11.8415 17.2618 11.6591 17.3089 11.4428 17.3089ZM15.5545 14.0713H15.3455H14.9911H14.7877L13.3008 17.9285H14.1775L14.4543 17.1155H15.8926L16.1701 17.9285H17.0496L15.5545 14.0713ZM15.6801 16.4927H14.6662L15.1725 15.0049L15.6801 16.4927ZM18.4737 17.9285V14.0713H17.652V17.9285H18.4737ZM21.7857 15.7802V16.445H20.7906V17.5418H20.0404V16.445H19.0425V15.7802H20.0404V14.7337H20.7906V15.7802H21.7857Z" fill="white"/>
<path fill-rule="evenodd" clip-rule="evenodd" d="M11.8545 3.38369C13.345 2.89377 14.938 2.66977 16.5159 2.73025C18.0941 2.79073 19.6577 3.13601 21.1127 3.74401C22.5681 4.35201 23.9149 5.22305 25.0673 6.29761C26.5914 7.71937 27.7748 9.49761 28.4845 11.4867C29.1946 13.4762 29.4311 15.6765 29.1572 17.7712C28.8836 19.8659 28.0996 21.8554 26.9137 23.5661C25.7277 25.2768 24.1396 26.7085 22.2743 27.7005C20.409 28.6922 18.266 29.2438 16.1537 29.2758C14.0413 29.3078 11.9594 28.8205 10.0948 27.895C8.23047 26.9696 6.58311 25.6064 5.33223 23.9037C4.08135 22.201 3.22695 20.1587 2.88775 18.0749C2.54855 15.9907 2.72455 13.8646 3.37447 11.8813C3.86567 10.3818 4.62791 8.96417 5.60455 7.73569H4.12007V5.28193H9.93671V10.7136H7.48295V9.22945C6.68295 10.2355 6.05831 11.3968 5.65607 12.6256C5.12391 14.2512 4.98055 15.9952 5.25607 17.697C5.59847 19.8138 6.58855 21.865 8.06631 23.4458C9.83399 25.3363 12.2993 26.5542 14.8657 26.8208C17.4317 27.0874 20.0989 26.4029 22.217 24.9286C24.3351 23.4544 25.9047 21.1904 26.5418 18.6899C27.1789 16.1894 26.8836 13.4525 25.7348 11.1421C24.586 8.83169 22.5834 6.94849 20.1889 5.95905C17.7943 4.96929 15.0074 4.87393 12.6036 5.66369L11.8545 3.38369Z" fill="url(#paint1_linear_609_330360)"/>
<defs>
<linearGradient id="paint0_linear_609_330360" x1="5.71422" y1="26.2857" x2="16.3783" y2="15.7327" gradientUnits="userSpaceOnUse">
<stop offset="0.0729167" stop-color="white" stop-opacity="0"/>
<stop offset="0.546875" stop-color="white"/>
<stop offset="1" stop-color="white" stop-opacity="0"/>
</linearGradient>
<linearGradient id="paint1_linear_609_330360" x1="3.99976" y1="8.00012" x2="27.5039" y2="23.4938" gradientUnits="userSpaceOnUse">
<stop stop-color="#0C0D1D"/>
<stop offset="0.260417" stop-color="#0433FF"/>
<stop offset="0.494792" stop-color="#9CADFF"/>
<stop offset="0.755208" stop-color="#7C5098"/>
<stop offset="0.755308" stop-color="#7C5098"/>
<stop offset="1" stop-color="#FF1100"/>
</linearGradient>
</defs>
</svg>
