<svg width="241" height="240" viewBox="0 0 241 240" fill="none" xmlns="http://www.w3.org/2000/svg">
<circle cx="120.417" cy="119.751" r="119.751" fill="#FCFDFE"/>
<mask id="mask0_52_1106" style="mask-type:alpha" maskUnits="userSpaceOnUse" x="1" y="0" width="240" height="240">
<circle cx="120.916" cy="120.249" r="119.751" fill="#D9D9D9"/>
</mask>
<g mask="url(#mask0_52_1106)">
<path d="M12.7817 132.42C11.3586 132.95 5.40421 138.626 2.60493 141.398C7.7017 147.025 15.9811 154.224 19.4836 157.12C19.1858 155.531 10.0928 145.811 5.5835 141.15C7.96636 138.966 11.3752 134.42 12.7817 132.42Z" fill="#4AB1C0"/>
<path d="M-8.71124 129.237C-8.18171 130.66 -2.50583 136.615 0.265918 139.414C5.89215 134.317 13.0905 126.037 15.9863 122.535C14.3977 122.833 4.67867 131.926 0.017712 136.436C-2.1666 134.053 -6.71172 130.644 -8.71124 129.237Z" fill="#4AB1C0"/>
<path d="M9.11871 152.955C8.58918 151.532 2.9133 145.577 0.141553 142.778C-5.48468 147.875 -12.683 156.155 -15.5789 159.658C-13.9903 159.36 -4.2712 150.266 0.389759 145.757C2.57407 148.14 7.11919 151.549 9.11871 152.955Z" fill="#4AB1C0"/>
<path d="M35.78 54.3027C37.2032 53.7731 43.1576 48.0968 45.9568 45.3249C40.8601 39.6983 32.5807 32.4996 29.0781 29.6035C29.376 31.1922 38.469 40.9119 42.9783 45.5731C40.5954 47.7576 37.1866 52.303 35.78 54.3027Z" fill="#BD0002"/>
<path d="M60.936 36.4713C59.5129 37.0008 53.5585 42.6771 50.7592 45.449C55.856 51.0756 64.1354 58.2744 67.6379 61.1704C67.3401 59.5817 58.2471 49.862 53.7378 45.2008C56.1207 43.0163 59.5295 38.4709 60.936 36.4713Z" fill="#CC2238"/>
<path d="M39.4428 33.2878C39.9723 34.711 45.6482 40.6658 48.42 43.4652C54.0462 38.3681 61.2445 30.0883 64.1404 26.5854C62.5518 26.8833 52.8327 35.9769 48.1718 40.4865C45.9875 38.1035 41.4423 34.6944 39.4428 33.2878Z" fill="#CA0C10"/>
<path d="M57.273 57.0062C56.7435 55.5829 51.0676 49.6282 48.2958 46.8287C42.6696 51.9258 35.4713 60.2057 32.5754 63.7085C34.164 63.4106 43.8831 54.317 48.5441 49.8075C50.7284 52.1905 55.2735 55.5995 57.273 57.0062Z" fill="#C10005"/>
<path d="M35.78 150.252C37.2032 149.722 43.1576 144.046 45.9568 141.274C40.8601 135.648 32.5807 128.449 29.0781 125.553C29.376 127.141 38.469 136.861 42.9783 141.522C40.5954 143.707 37.1866 148.252 35.78 150.252Z" fill="#BD0002"/>
<path d="M60.936 132.42C59.5129 132.95 53.5585 138.626 50.7592 141.398C55.856 147.025 64.1354 154.224 67.6379 157.12C67.3401 155.531 58.2471 145.811 53.7378 141.15C56.1207 138.966 59.5295 134.42 60.936 132.42Z" fill="#CC2238"/>
<path d="M39.4428 129.237C39.9723 130.66 45.6482 136.615 48.42 139.414C54.0462 134.317 61.2445 126.037 64.1404 122.535C62.5518 122.833 52.8327 131.926 48.1718 136.436C45.9875 134.053 41.4423 130.644 39.4428 129.237Z" fill="#CA0C10"/>
<path d="M57.273 152.955C56.7435 151.532 51.0676 145.577 48.2958 142.778C42.6696 147.875 35.4713 156.155 32.5754 159.658C34.164 159.36 43.8831 150.266 48.5441 145.757C50.7284 148.14 55.2735 151.549 57.273 152.955Z" fill="#C10005"/>
<path d="M35.78 246.201C37.2032 245.672 43.1576 239.995 45.9568 237.223C40.8601 231.597 32.5807 224.398 29.0781 221.502C29.376 223.091 38.469 232.81 42.9783 237.472C40.5954 239.656 37.1866 244.201 35.78 246.201Z" fill="#BD0002"/>
<path d="M60.936 228.37C59.5129 228.899 53.5585 234.576 50.7592 237.347C55.856 242.974 64.1354 250.173 67.6379 253.069C67.3401 251.48 58.2471 241.76 53.7378 237.099C56.1207 234.915 59.5295 230.369 60.936 228.37Z" fill="#CC2238"/>
<path d="M39.4428 225.186C39.9723 226.609 45.6482 232.564 48.42 235.364C54.0462 230.267 61.2445 221.987 64.1404 218.484C62.5518 218.782 52.8327 227.875 48.1718 232.385C45.9875 230.002 41.4423 226.593 39.4428 225.186Z" fill="#CA0C10"/>
<path d="M57.273 248.905C56.7435 247.481 51.0676 241.527 48.2958 238.727C42.6696 243.824 35.4713 252.104 32.5754 255.607C34.164 255.309 43.8831 246.215 48.5441 241.706C50.7284 244.089 55.2735 247.498 57.273 248.905Z" fill="#C10005"/>
<path d="M10.355 198.226C11.7781 197.697 17.7325 192.021 20.5318 189.249C15.435 183.622 7.15566 176.423 3.65308 173.527C3.95094 175.116 13.0439 184.836 17.5532 189.497C15.1704 191.681 11.7615 196.227 10.355 198.226Z" fill="#BD0002"/>
<path d="M35.511 180.395C34.0878 180.925 28.1335 186.601 25.3342 189.373C30.431 194.999 38.7103 202.198 42.2129 205.094C41.915 203.506 32.822 193.786 28.3127 189.125C30.6956 186.94 34.1044 182.395 35.511 180.395Z" fill="#CC2238"/>
<path d="M14.0178 177.212C14.5473 178.635 20.2232 184.59 22.9949 187.389C28.6212 182.292 35.8195 174.012 38.7153 170.509C37.1267 170.807 27.4077 179.901 22.7467 184.41C20.5624 182.027 16.0173 178.618 14.0178 177.212Z" fill="#CA0C10"/>
<path d="M31.8482 200.93C31.3187 199.507 25.6428 193.552 22.871 190.753C17.2448 195.85 10.0465 204.13 7.15063 207.632C8.73922 207.334 18.4583 198.241 23.1193 193.731C25.3036 196.114 29.8487 199.523 31.8482 200.93Z" fill="#C10005"/>
<path d="M83.9338 54.3027C85.357 53.7731 91.3114 48.0968 94.1106 45.3249C89.0139 39.6983 80.7345 32.4996 77.2319 29.6035C77.5298 31.1922 86.6228 40.9119 91.1321 45.5731C88.7492 47.7576 85.3404 52.303 83.9338 54.3027Z" fill="#4AB1C0"/>
<path d="M109.09 36.4713C107.667 37.0008 101.712 42.6771 98.913 45.449C104.01 51.0756 112.289 58.2744 115.792 61.1704C115.494 59.5817 106.401 49.862 101.892 45.2008C104.274 43.0163 107.683 38.4709 109.09 36.4713Z" fill="#4AB1C0"/>
<path d="M87.5969 33.2878C88.1264 34.711 93.8023 40.6658 96.574 43.4652C102.2 38.3681 109.399 30.0883 112.294 26.5854C110.706 26.8833 100.987 35.9769 96.3258 40.4865C94.1415 38.1035 89.5964 34.6944 87.5969 33.2878Z" fill="#4AB1C0"/>
<path d="M105.427 57.0062C104.897 55.5829 99.2214 49.6282 96.4497 46.8287C90.8234 51.9258 83.6251 60.2057 80.7292 63.7085C82.3178 63.4106 92.0369 54.317 96.6979 49.8075C98.8822 52.1905 103.427 55.5995 105.427 57.0062Z" fill="#4AB1C0"/>
<path d="M83.9338 150.252C85.357 149.722 91.3114 144.046 94.1106 141.274C89.0139 135.648 80.7345 128.449 77.2319 125.553C77.5298 127.141 86.6228 136.861 91.1321 141.522C88.7492 143.707 85.3404 148.252 83.9338 150.252Z" fill="#4AB1C0"/>
<path d="M109.09 132.42C107.667 132.95 101.712 138.626 98.913 141.398C104.01 147.025 112.289 154.224 115.792 157.12C115.494 155.531 106.401 145.811 101.892 141.15C104.274 138.966 107.683 134.42 109.09 132.42Z" fill="#4AB1C0"/>
<path d="M87.5969 129.237C88.1264 130.66 93.8023 136.615 96.574 139.414C102.2 134.317 109.399 126.037 112.294 122.535C110.706 122.833 100.987 131.926 96.3258 136.436C94.1415 134.053 89.5964 130.644 87.5969 129.237Z" fill="#4AB1C0"/>
<path d="M105.427 152.955C104.897 151.532 99.2214 145.577 96.4497 142.778C90.8234 147.875 83.6251 156.155 80.7292 159.658C82.3178 159.36 92.0369 150.266 96.6979 145.757C98.8822 148.14 103.427 151.549 105.427 152.955Z" fill="#4AB1C0"/>
<path d="M83.9338 246.201C85.357 245.672 91.3114 239.995 94.1106 237.223C89.0139 231.597 80.7345 224.398 77.2319 221.502C77.5298 223.091 86.6228 232.81 91.1321 237.472C88.7492 239.656 85.3404 244.201 83.9338 246.201Z" fill="#4AB1C0"/>
<path d="M109.09 228.37C107.667 228.899 101.712 234.576 98.913 237.347C104.01 242.974 112.289 250.173 115.792 253.069C115.494 251.48 106.401 241.76 101.892 237.099C104.274 234.915 107.683 230.369 109.09 228.37Z" fill="#4AB1C0"/>
<path d="M87.5969 225.186C88.1264 226.609 93.8023 232.564 96.574 235.364C102.2 230.267 109.399 221.987 112.294 218.484C110.706 218.782 100.987 227.875 96.3258 232.385C94.1415 230.002 89.5964 226.593 87.5969 225.186Z" fill="#4AB1C0"/>
<path d="M105.427 248.905C104.897 247.481 99.2214 241.527 96.4497 238.727C90.8234 243.824 83.6251 252.104 80.7292 255.607C82.3178 255.309 92.0369 246.215 96.6979 241.706C98.8822 244.089 103.427 247.498 105.427 248.905Z" fill="#4AB1C0"/>
<path d="M58.509 198.226C59.9322 197.697 65.8866 192.021 68.6858 189.249C63.5891 183.622 55.3097 176.423 51.8071 173.527C52.105 175.116 61.198 184.836 65.7073 189.497C63.3244 191.681 59.9156 196.227 58.509 198.226Z" fill="#4AB1C0"/>
<path d="M83.665 180.395C82.2419 180.925 76.2875 186.601 73.4882 189.373C78.585 194.999 86.8644 202.198 90.3669 205.094C90.0691 203.506 80.9761 193.786 76.4668 189.125C78.8497 186.94 82.2585 182.395 83.665 180.395Z" fill="#4AB1C0"/>
<path d="M62.1716 177.212C62.7011 178.635 68.377 184.59 71.1487 187.389C76.775 182.292 83.9733 174.012 86.8691 170.509C85.2806 170.807 75.5615 179.901 70.9005 184.41C68.7162 182.027 64.1711 178.618 62.1716 177.212Z" fill="#4AB1C0"/>
<path d="M80.002 200.93C79.4725 199.507 73.7966 193.552 71.0249 190.753C65.3986 195.85 58.2003 204.13 55.3044 207.632C56.893 207.334 66.6121 198.241 71.2731 193.731C73.4574 196.114 78.0025 199.523 80.002 200.93Z" fill="#4AB1C0"/>
<path d="M180.242 54.3027C181.666 53.7731 187.62 48.0968 190.419 45.3249C185.322 39.6983 177.043 32.4996 173.541 29.6035C173.838 31.1922 182.931 40.9119 187.441 45.5731C185.058 47.7576 181.649 52.303 180.242 54.3027Z" fill="#4AB1C0"/>
<path d="M205.398 36.4713C203.975 37.0008 198.021 42.6771 195.221 45.449C200.318 51.0756 208.598 58.2744 212.1 61.1704C211.802 59.5817 202.709 49.862 198.2 45.2008C200.583 43.0163 203.992 38.4709 205.398 36.4713Z" fill="#4AB1C0"/>
<path d="M183.905 33.2878C184.435 34.711 190.11 40.6658 192.882 43.4652C198.508 38.3681 205.707 30.0883 208.603 26.5854C207.014 26.8833 197.295 35.9769 192.634 40.4865C190.45 38.1035 185.904 34.6944 183.905 33.2878Z" fill="#4AB1C0"/>
<path d="M201.735 57.0062C201.206 55.5829 195.53 49.6282 192.758 46.8287C187.132 51.9258 179.933 60.2057 177.038 63.7085C178.626 63.4106 188.345 54.317 193.006 49.8075C195.191 52.1905 199.736 55.5995 201.735 57.0062Z" fill="#4AB1C0"/>
<path d="M180.242 150.252C181.666 149.722 187.62 144.046 190.419 141.274C185.322 135.648 177.043 128.449 173.541 125.553C173.838 127.141 182.931 136.861 187.441 141.522C185.058 143.707 181.649 148.252 180.242 150.252Z" fill="#4AB1C0"/>
<path d="M205.398 132.42C203.975 132.95 198.021 138.626 195.221 141.398C200.318 147.025 208.598 154.224 212.1 157.12C211.802 155.531 202.709 145.811 198.2 141.15C200.583 138.966 203.992 134.42 205.398 132.42Z" fill="#4AB1C0"/>
<path d="M183.905 129.237C184.435 130.66 190.11 136.615 192.882 139.414C198.508 134.317 205.707 126.037 208.603 122.535C207.014 122.833 197.295 131.926 192.634 136.436C190.45 134.053 185.904 130.644 183.905 129.237Z" fill="#4AB1C0"/>
<path d="M201.735 152.955C201.206 151.532 195.53 145.577 192.758 142.778C187.132 147.875 179.933 156.155 177.038 159.658C178.626 159.36 188.345 150.266 193.006 145.757C195.191 148.14 199.736 151.549 201.735 152.955Z" fill="#4AB1C0"/>
<path d="M180.242 246.201C181.666 245.672 187.62 239.995 190.419 237.223C185.322 231.597 177.043 224.398 173.541 221.502C173.838 223.091 182.931 232.81 187.441 237.472C185.058 239.656 181.649 244.201 180.242 246.201Z" fill="#4AB1C0"/>
<path d="M205.398 228.37C203.975 228.899 198.021 234.576 195.221 237.347C200.318 242.974 208.598 250.173 212.1 253.069C211.802 251.48 202.709 241.76 198.2 237.099C200.583 234.915 203.992 230.369 205.398 228.37Z" fill="#4AB1C0"/>
<path d="M183.905 225.186C184.435 226.609 190.11 232.564 192.882 235.364C198.508 230.267 205.707 221.987 208.603 218.484C207.014 218.782 197.295 227.875 192.634 232.385C190.45 230.002 185.904 226.593 183.905 225.186Z" fill="#4AB1C0"/>
<path d="M201.735 248.905C201.206 247.481 195.53 241.527 192.758 238.727C187.132 243.824 179.933 252.104 177.038 255.607C178.626 255.309 188.345 246.215 193.006 241.706C195.191 244.089 199.736 247.498 201.735 248.905Z" fill="#4AB1C0"/>
<path d="M154.817 198.226C156.24 197.697 162.195 192.021 164.994 189.249C159.897 183.622 151.618 176.423 148.115 173.527C148.413 175.116 157.506 184.836 162.015 189.497C159.633 191.681 156.224 196.227 154.817 198.226Z" fill="#4AB1C0"/>
<path d="M179.973 180.395C178.55 180.925 172.595 186.601 169.796 189.373C174.893 194.999 183.172 202.198 186.675 205.094C186.377 203.506 177.284 193.786 172.775 189.125C175.158 186.94 178.566 182.395 179.973 180.395Z" fill="#4AB1C0"/>
<path d="M158.48 177.212C159.009 178.635 164.685 184.59 167.457 187.389C173.083 182.292 180.282 174.012 183.177 170.509C181.589 170.807 171.87 179.901 167.209 184.41C165.025 182.027 160.479 178.618 158.48 177.212Z" fill="#4AB1C0"/>
<path d="M176.31 200.93C175.78 199.507 170.104 193.552 167.333 190.753C161.706 195.85 154.508 204.13 151.612 207.632C153.201 207.334 162.92 198.241 167.581 193.731C169.765 196.114 174.31 199.523 176.31 200.93Z" fill="#4AB1C0"/>
<path d="M132.203 54.3027C133.626 53.7731 139.58 48.0968 142.38 45.3249C137.283 39.6983 129.004 32.4996 125.501 29.6035C125.799 31.1922 134.892 40.9119 139.401 45.5731C137.018 47.7576 133.609 52.303 132.203 54.3027Z" fill="#BD0002"/>
<path d="M157.359 36.4713C155.936 37.0008 149.981 42.6771 147.182 45.449C152.279 51.0756 160.558 58.2744 164.061 61.1704C163.763 59.5817 154.67 49.862 150.161 45.2008C152.544 43.0163 155.952 38.4709 157.359 36.4713Z" fill="#CC2238"/>
<path d="M135.866 33.2878C136.395 34.711 142.071 40.6658 144.843 43.4652C150.469 38.3681 157.667 30.0883 160.563 26.5854C158.975 26.8833 149.256 35.9769 144.595 40.4865C142.41 38.1035 137.865 34.6944 135.866 33.2878Z" fill="#CA0C10"/>
<path d="M153.696 57.0062C153.166 55.5829 147.49 49.6282 144.718 46.8287C139.092 51.9258 131.894 60.2057 128.998 63.7085C130.587 63.4106 140.306 54.317 144.967 49.8075C147.151 52.1905 151.696 55.5995 153.696 57.0062Z" fill="#C10005"/>
<path d="M132.203 150.252C133.626 149.722 139.58 144.046 142.38 141.274C137.283 135.648 129.004 128.449 125.501 125.553C125.799 127.141 134.892 136.861 139.401 141.522C137.018 143.707 133.609 148.252 132.203 150.252Z" fill="#BD0002"/>
<path d="M157.359 132.42C155.936 132.95 149.981 138.626 147.182 141.398C152.279 147.025 160.558 154.224 164.061 157.12C163.763 155.531 154.67 145.811 150.161 141.15C152.544 138.966 155.952 134.42 157.359 132.42Z" fill="#CC2238"/>
<path d="M135.866 129.237C136.395 130.66 142.071 136.615 144.843 139.414C150.469 134.317 157.667 126.037 160.563 122.535C158.975 122.833 149.256 131.926 144.595 136.436C142.41 134.053 137.865 130.644 135.866 129.237Z" fill="#CA0C10"/>
<path d="M153.696 152.955C153.166 151.532 147.49 145.577 144.718 142.778C139.092 147.875 131.894 156.155 128.998 159.658C130.587 159.36 140.306 150.266 144.967 145.757C147.151 148.14 151.696 151.549 153.696 152.955Z" fill="#C10005"/>
<path d="M132.203 246.201C133.626 245.672 139.58 239.995 142.38 237.223C137.283 231.597 129.004 224.398 125.501 221.502C125.799 223.091 134.892 232.81 139.401 237.472C137.018 239.656 133.609 244.201 132.203 246.201Z" fill="#BD0002"/>
<path d="M157.359 228.37C155.936 228.899 149.981 234.576 147.182 237.347C152.279 242.974 160.558 250.173 164.061 253.069C163.763 251.48 154.67 241.76 150.161 237.099C152.544 234.915 155.952 230.369 157.359 228.37Z" fill="#CC2238"/>
<path d="M135.866 225.186C136.395 226.609 142.071 232.564 144.843 235.364C150.469 230.267 157.667 221.987 160.563 218.484C158.975 218.782 149.256 227.875 144.595 232.385C142.41 230.002 137.865 226.593 135.866 225.186Z" fill="#CA0C10"/>
<path d="M153.696 248.905C153.166 247.481 147.49 241.527 144.718 238.727C139.092 243.824 131.894 252.104 128.998 255.607C130.587 255.309 140.306 246.215 144.967 241.706C147.151 244.089 151.696 247.498 153.696 248.905Z" fill="#C10005"/>
<path d="M106.778 198.226C108.201 197.697 114.155 192.021 116.955 189.249C111.858 183.622 103.579 176.423 100.076 173.527C100.374 175.116 109.467 184.836 113.976 189.497C111.593 191.681 108.184 196.227 106.778 198.226Z" fill="#BD0002"/>
<path d="M131.934 180.395C130.511 180.925 124.556 186.601 121.757 189.373C126.854 194.999 135.133 202.198 138.636 205.094C138.338 203.506 129.245 193.786 124.736 189.125C127.118 186.94 130.527 182.395 131.934 180.395Z" fill="#CC2238"/>
<path d="M110.441 177.212C110.97 178.635 116.646 184.59 119.418 187.389C125.044 182.292 132.243 174.012 135.138 170.509C133.55 170.807 123.831 179.901 119.17 184.41C116.986 182.027 112.44 178.618 110.441 177.212Z" fill="#CA0C10"/>
<path d="M128.271 200.93C127.741 199.507 122.065 193.552 119.294 190.753C113.667 195.85 106.469 204.13 103.573 207.632C105.162 207.334 114.881 198.241 119.542 193.731C121.726 196.114 126.271 199.523 128.271 200.93Z" fill="#C10005"/>
<path d="M228.626 150.252C230.049 149.722 236.003 144.046 238.803 141.274C233.706 135.648 225.426 128.449 221.924 125.553C222.222 127.141 231.315 136.861 235.824 141.522C233.441 143.707 230.032 148.252 228.626 150.252Z" fill="#BD0002"/>
<path d="M232.289 129.237C232.819 130.66 238.494 136.615 241.266 139.414C246.892 134.317 254.091 126.037 256.987 122.535C255.398 122.833 245.679 131.926 241.018 136.436C238.834 134.053 234.289 130.644 232.289 129.237Z" fill="#CA0C10"/>
<path d="M250.119 152.955C249.589 151.532 243.914 145.577 241.142 142.778C235.516 147.875 228.317 156.155 225.421 159.658C227.01 159.36 236.729 150.266 241.39 145.757C243.574 148.14 248.119 151.549 250.119 152.955Z" fill="#C10005"/>
<path d="M203.201 198.226C204.624 197.697 210.578 192.021 213.377 189.249C208.281 183.622 200.001 176.423 196.499 173.527C196.797 175.116 205.89 184.836 210.399 189.497C208.016 191.681 204.607 196.227 203.201 198.226Z" fill="#BD0002"/>
<path d="M228.357 180.395C226.934 180.925 220.979 186.601 218.18 189.373C223.277 194.999 231.556 202.198 235.059 205.094C234.761 203.506 225.668 193.786 221.159 189.125C223.542 186.94 226.95 182.395 228.357 180.395Z" fill="#CC2238"/>
<path d="M206.864 177.212C207.393 178.635 213.069 184.59 215.841 187.389C221.467 182.292 228.665 174.012 231.561 170.509C229.973 170.807 220.254 179.901 215.593 184.41C213.408 182.027 208.863 178.618 206.864 177.212Z" fill="#CA0C10"/>
<path d="M224.694 200.93C224.164 199.507 218.488 193.552 215.717 190.753C210.09 195.85 202.892 204.13 199.996 207.632C201.585 207.334 211.304 198.241 215.965 193.731C218.149 196.114 222.694 199.523 224.694 200.93Z" fill="#C10005"/>
<path d="M10.355 102.277C11.7781 101.748 17.7325 96.0715 20.5318 93.2995C15.435 87.6729 7.15566 80.4742 3.65308 77.5781C3.95094 79.1668 13.0439 88.8865 17.5532 93.5478C15.1704 95.7322 11.7615 100.278 10.355 102.277Z" fill="#BD0002"/>
<path d="M35.511 84.4459C34.0878 84.9754 28.1335 90.6517 25.3342 93.4236C30.431 99.0502 38.7103 106.249 42.2129 109.145C41.915 107.556 32.822 97.8366 28.3127 93.1754C30.6956 90.9909 34.1044 86.4455 35.511 84.4459Z" fill="#CC2238"/>
<path d="M14.0178 81.2624C14.5473 82.6856 20.2232 88.6404 22.9949 91.4398C28.6212 86.3427 35.8195 78.0629 38.7153 74.5601C37.1267 74.8579 27.4077 83.9515 22.7467 88.4611C20.5624 86.0781 16.0173 82.669 14.0178 81.2624Z" fill="#CA0C10"/>
<path d="M31.8482 104.981C31.3187 103.558 25.6428 97.6028 22.871 94.8033C17.2448 99.9004 10.0465 108.18 7.15063 111.683C8.73922 111.385 18.4583 102.292 23.1193 97.7821C25.3036 100.165 29.8487 103.574 31.8482 104.981Z" fill="#C10005"/>
<path d="M58.509 102.277C59.9322 101.748 65.8866 96.0715 68.6858 93.2995C63.5891 87.6729 55.3097 80.4742 51.8071 77.5781C52.105 79.1668 61.198 88.8865 65.7073 93.5478C63.3244 95.7322 59.9156 100.278 58.509 102.277Z" fill="#4AB1C0"/>
<path d="M83.665 84.4459C82.2419 84.9754 76.2875 90.6517 73.4882 93.4236C78.585 99.0502 86.8644 106.249 90.3669 109.145C90.0691 107.556 80.9761 97.8366 76.4668 93.1754C78.8497 90.9909 82.2585 86.4455 83.665 84.4459Z" fill="#4AB1C0"/>
<path d="M62.1716 81.2624C62.7011 82.6856 68.377 88.6404 71.1487 91.4398C76.775 86.3427 83.9733 78.0629 86.8691 74.5601C85.2806 74.8579 75.5615 83.9515 70.9005 88.4611C68.7162 86.0781 64.1711 82.669 62.1716 81.2624Z" fill="#4AB1C0"/>
<path d="M80.002 104.981C79.4725 103.558 73.7966 97.6028 71.0249 94.8033C65.3986 99.9004 58.2003 108.18 55.3044 111.683C56.893 111.385 66.6121 102.292 71.2731 97.7821C73.4574 100.165 78.0025 103.574 80.002 104.981Z" fill="#4AB1C0"/>
<path d="M58.509 6.32804C59.9322 5.79848 65.8866 0.122236 68.6858 -2.64969C63.5891 -8.27628 55.3097 -15.475 51.8071 -18.3711C52.105 -16.7824 61.198 -7.06272 65.7073 -2.40146C63.3244 -0.217018 59.9156 4.32839 58.509 6.32804Z" fill="#4AB1C0"/>
<path d="M83.665 -11.5033C82.2419 -10.9738 76.2875 -5.29753 73.4882 -2.52561C78.585 3.10099 86.8644 10.2997 90.3669 13.1958C90.0691 11.6071 80.9761 1.88743 76.4668 -2.77383C78.8497 -4.95827 82.2585 -9.50369 83.665 -11.5033Z" fill="#4AB1C0"/>
<path d="M80.002 9.03155C79.4725 7.60831 73.7966 1.65356 71.0249 -1.1459C65.3986 3.9512 58.2003 12.2311 55.3044 15.7339C56.893 15.436 66.6121 6.34242 71.2731 1.83286C73.4574 4.21587 78.0025 7.62491 80.002 9.03155Z" fill="#4AB1C0"/>
<path d="M154.817 102.277C156.24 101.748 162.195 96.0715 164.994 93.2995C159.897 87.6729 151.618 80.4742 148.115 77.5781C148.413 79.1668 157.506 88.8865 162.015 93.5478C159.633 95.7322 156.224 100.278 154.817 102.277Z" fill="#4AB1C0"/>
<path d="M179.973 84.4459C178.55 84.9754 172.595 90.6517 169.796 93.4236C174.893 99.0502 183.172 106.249 186.675 109.145C186.377 107.556 177.284 97.8366 172.775 93.1754C175.158 90.9909 178.566 86.4455 179.973 84.4459Z" fill="#4AB1C0"/>
<path d="M158.48 81.2624C159.009 82.6856 164.685 88.6404 167.457 91.4398C173.083 86.3427 180.282 78.0629 183.177 74.5601C181.589 74.8579 171.87 83.9515 167.209 88.4611C165.025 86.0781 160.479 82.669 158.48 81.2624Z" fill="#4AB1C0"/>
<path d="M176.31 104.981C175.78 103.558 170.104 97.6028 167.333 94.8033C161.706 99.9004 154.508 108.18 151.612 111.683C153.201 111.385 162.92 102.292 167.581 97.7821C169.765 100.165 174.31 103.574 176.31 104.981Z" fill="#4AB1C0"/>
<path d="M154.817 6.32804C156.24 5.79848 162.195 0.122236 164.994 -2.64969C159.897 -8.27628 151.618 -15.475 148.115 -18.3711C148.413 -16.7824 157.506 -7.06272 162.015 -2.40146C159.633 -0.217018 156.224 4.32839 154.817 6.32804Z" fill="#4AB1C0"/>
<path d="M179.973 -11.5033C178.55 -10.9738 172.595 -5.29753 169.796 -2.52561C174.893 3.10099 183.172 10.2997 186.675 13.1958C186.377 11.6071 177.284 1.88743 172.775 -2.77383C175.158 -4.95827 178.566 -9.50369 179.973 -11.5033Z" fill="#4AB1C0"/>
<path d="M176.31 9.03155C175.78 7.60831 170.104 1.65356 167.333 -1.1459C161.706 3.9512 154.508 12.2311 151.612 15.7339C153.201 15.436 162.92 6.34242 167.581 1.83286C169.765 4.21587 174.31 7.62491 176.31 9.03155Z" fill="#4AB1C0"/>
<path d="M106.778 102.277C108.201 101.748 114.155 96.0715 116.955 93.2995C111.858 87.6729 103.579 80.4742 100.076 77.5781C100.374 79.1668 109.467 88.8865 113.976 93.5478C111.593 95.7322 108.184 100.278 106.778 102.277Z" fill="#BD0002"/>
<path d="M131.934 84.4459C130.511 84.9754 124.556 90.6517 121.757 93.4236C126.854 99.0502 135.133 106.249 138.636 109.145C138.338 107.556 129.245 97.8366 124.736 93.1754C127.118 90.9909 130.527 86.4455 131.934 84.4459Z" fill="#CC2238"/>
<path d="M110.441 81.2624C110.97 82.6856 116.646 88.6404 119.418 91.4398C125.044 86.3427 132.243 78.0629 135.138 74.5601C133.55 74.8579 123.831 83.9515 119.17 88.4611C116.986 86.0781 112.44 82.669 110.441 81.2624Z" fill="#CA0C10"/>
<path d="M128.271 104.981C127.741 103.558 122.065 97.6028 119.294 94.8033C113.667 99.9004 106.469 108.18 103.573 111.683C105.162 111.385 114.881 102.292 119.542 97.7821C121.726 100.165 126.271 103.574 128.271 104.981Z" fill="#C10005"/>
<path d="M106.778 6.32804C108.201 5.79848 114.155 0.122236 116.955 -2.64969C111.858 -8.27628 103.579 -15.475 100.076 -18.3711C100.374 -16.7824 109.467 -7.06272 113.976 -2.40146C111.593 -0.217018 108.184 4.32839 106.778 6.32804Z" fill="#BD0002"/>
<path d="M131.934 -11.5033C130.511 -10.9738 124.556 -5.29753 121.757 -2.52561C126.854 3.10099 135.133 10.2997 138.636 13.1958C138.338 11.6071 129.245 1.88743 124.736 -2.77383C127.118 -4.95827 130.527 -9.50369 131.934 -11.5033Z" fill="#CC2238"/>
<path d="M128.271 9.03155C127.741 7.60831 122.065 1.65356 119.294 -1.1459C113.667 3.9512 106.469 12.2311 103.573 15.7339C105.162 15.436 114.881 6.34242 119.542 1.83286C121.726 4.21587 126.271 7.62491 128.271 9.03155Z" fill="#C10005"/>
<path d="M203.201 102.277C204.624 101.748 210.578 96.0715 213.377 93.2995C208.281 87.6729 200.001 80.4742 196.499 77.5781C196.797 79.1668 205.89 88.8865 210.399 93.5478C208.016 95.7322 204.607 100.278 203.201 102.277Z" fill="#BD0002"/>
<path d="M228.357 84.4459C226.934 84.9754 220.979 90.6517 218.18 93.4236C223.277 99.0502 231.556 106.249 235.059 109.145C234.761 107.556 225.668 97.8366 221.159 93.1754C223.542 90.9909 226.95 86.4455 228.357 84.4459Z" fill="#CC2238"/>
<path d="M206.864 81.2624C207.393 82.6856 213.069 88.6404 215.841 91.4398C221.467 86.3427 228.665 78.0629 231.561 74.5601C229.973 74.8579 220.254 83.9515 215.593 88.4611C213.408 86.0781 208.863 82.669 206.864 81.2624Z" fill="#CA0C10"/>
<path d="M224.694 104.981C224.164 103.558 218.488 97.6028 215.717 94.8033C210.09 99.9004 202.892 108.18 199.996 111.683C201.585 111.385 211.304 102.292 215.965 97.7821C218.149 100.165 222.694 103.574 224.694 104.981Z" fill="#C10005"/>
<path d="M126.989 148.28C107.38 148.53 92.1195 145.816 80.7947 142.144C78.5742 141.39 73.7282 139.183 72.1079 136.39C71.2112 134.845 71.2006 130.878 71.5121 126.795C71.6 127.079 71.7024 127.326 71.8207 127.53C73.4378 130.324 78.3136 132.524 80.5493 133.274C91.9531 136.927 107.334 139.612 127.122 139.32C149.125 138.995 162.631 136.402 170.563 133.328C170.558 133.399 170.554 133.47 170.549 133.541C170.22 138.618 169.9 143.545 156.893 145.859C149.367 147.197 139.586 148.12 126.989 148.28Z" fill="#FF1100"/>
<path d="M126.989 155.437C107.38 155.686 92.1195 152.972 80.7947 149.301C78.5742 148.547 73.7282 146.34 72.1079 143.547C71.2112 142.002 71.2006 138.035 71.5121 133.952C71.6 134.236 71.7024 134.483 71.8207 134.687C73.4378 137.481 78.3136 139.68 80.5493 140.431C91.9531 144.084 107.334 146.769 127.122 146.477C149.125 146.152 162.631 143.558 170.563 140.485C170.558 140.556 170.554 140.627 170.549 140.698C170.22 145.775 169.9 150.702 156.893 153.015C149.367 154.354 139.586 155.276 126.989 155.437Z" fill="#FDBF41"/>
<path d="M175.231 148.137C175.414 152.729 165.091 162.049 122.34 162.593C102.73 162.843 87.4702 160.129 76.1454 156.458C73.9249 155.704 69.0789 153.497 67.4585 150.704C66.5619 149.158 66.5513 145.191 66.8628 141.109C66.9507 141.393 67.0531 141.639 67.1714 141.844C68.7885 144.637 73.6643 146.837 75.9 147.588C87.3038 151.24 102.685 153.925 122.473 153.633C156.544 153.13 170.241 147.188 174.418 142.447L175.231 148.137Z" fill="#F1ECE2"/>
<path d="M123.848 64.3209C131.735 67.1427 143.412 82.7433 127.017 122.571C119.497 140.84 108.696 153.163 97.8602 161.229C95.6769 162.788 89.9583 165.826 84.5495 165.503C82.4323 165.377 78.433 164.052 73.8596 162.245C74.92 162.525 75.8228 162.698 76.5208 162.74C81.9296 163.066 87.6483 159.997 89.8315 158.421C100.667 150.27 111.468 137.817 118.988 119.356C132.525 86.1258 126.926 69.5849 120.122 63.2217L123.848 64.3209Z" fill="#FF1100"/>
<path d="M130.61 64.7742C138.498 67.6773 150.175 83.7273 133.779 124.702C126.259 143.497 115.458 156.175 104.623 164.474C102.439 166.078 96.7207 169.203 91.3119 168.871C89.1946 168.741 85.1952 167.378 80.6216 165.519C81.6822 165.807 82.585 165.985 83.2832 166.029C88.692 166.364 94.4107 163.206 96.5939 161.585C107.429 153.199 118.23 140.387 125.751 121.394C139.287 87.2073 133.688 70.1899 126.885 63.6433L130.61 64.7742Z" fill="#FDBF41"/>
<path d="M136.529 68.5635C144.417 71.4666 156.094 87.5166 139.698 128.492C132.178 147.287 121.377 159.965 110.542 168.263C108.359 169.867 102.64 172.992 97.2311 172.66C95.1138 172.53 91.1144 171.168 86.5408 169.308C87.6014 169.596 88.5042 169.775 89.2024 169.818C94.6112 170.153 100.33 166.995 102.513 165.374C113.349 156.988 124.149 144.176 131.67 125.183C145.206 90.9966 139.607 73.9792 132.804 67.4326L136.529 68.5635Z" fill="#F1ECE2"/>
<path d="M145.115 130.331C161.511 87.8389 149.834 71.1946 141.946 68.184L138.221 67.0113C138.292 67.0825 138.364 67.155 138.435 67.2286C132.714 66.2919 124.875 70.1769 117.481 77.6146C116.425 78.6671 121.055 76.9338 122.552 75.4421C126.144 72.495 131.517 71.02 136.568 73.1386C147.963 77.9189 148.2 103.095 137.096 129.371C125.992 155.647 109.02 172.652 97.6244 167.871C96.101 167.232 94.5078 166.037 93.1842 165.117C90.126 162.386 88.7473 158.74 88.7473 149.329L88.7473 160.939C87.945 159.746 87.2682 158.409 86.7409 156.908C86.6344 154.381 84.9442 150.171 84.4236 154.592C84.8166 164.237 88.9992 169.843 94.6453 173.189L94.6194 173.188C94.4077 173.174 94.2446 173.169 94.1036 173.165C93.5643 173.15 93.346 173.144 91.9596 172.684C96.3869 174.626 98.8107 175.529 101.467 175.631C107.689 175.87 114.919 172.242 117.102 170.579C127.937 161.973 137.595 149.822 145.115 130.331Z" fill="#007FFF"/>
<path d="M122.569 108.799C142.178 108.549 157.438 111.263 168.763 114.934C170.984 115.689 175.83 117.895 177.45 120.688C178.347 122.234 178.357 126.201 178.046 130.283C177.958 130 177.855 129.753 177.737 129.548C176.12 126.755 171.244 124.555 169.009 123.804C157.605 120.152 142.224 117.467 122.436 117.759C100.433 118.084 86.927 120.677 78.9949 123.75C78.9995 123.679 79.0041 123.608 79.0087 123.538C79.3381 118.461 79.6577 113.534 92.6645 111.22C100.191 109.881 109.972 108.959 122.569 108.799Z" fill="#FF1100"/>
<path d="M122.569 116.872C142.178 116.622 157.438 119.336 168.763 123.007C170.984 123.762 175.83 125.968 177.45 128.761C178.347 130.307 178.357 134.274 178.046 138.356C177.958 138.073 177.855 137.826 177.737 137.621C176.12 134.828 171.244 132.628 169.009 131.877C157.605 128.225 142.224 125.54 122.436 125.832C100.433 126.157 86.927 128.75 78.9949 131.823C78.9995 131.752 79.0041 131.681 79.0087 131.611C79.3381 126.534 79.6577 121.607 92.6645 119.293C100.191 117.954 109.972 117.032 122.569 116.872Z" fill="#FDBF41"/>
<path opacity="0.48" d="M175.136 150.808C175.329 150.654 175.329 150.638 175.136 150.484C174.69 150.117 174.213 149.797 173.724 149.493C172.093 148.478 170.35 147.704 168.565 147.032C168.157 146.878 167.761 146.693 167.326 146.614C167.207 146.475 167.03 146.464 166.876 146.412C165.21 145.844 163.513 145.378 161.812 144.931C161.67 144.92 161.531 144.888 161.408 144.817C160.612 144.639 159.815 144.457 159.023 144.28C157.549 143.952 156.068 143.668 154.583 143.411C153.482 143.221 152.378 143.044 151.274 142.874C150.412 142.744 149.55 142.609 148.681 142.546C148.538 142.522 148.396 142.495 148.25 142.475C145.206 142.092 142.159 141.804 139.1 141.586C137.103 141.448 135.106 141.338 133.106 141.259C130.493 141.156 127.877 141.109 125.261 141.109C122.017 141.109 118.777 141.192 115.542 141.353C111.802 141.539 108.07 141.831 104.349 142.258C103.741 142.329 103.126 142.368 102.525 142.503C102.402 142.467 102.283 142.503 102.16 142.515C99.5089 142.85 96.8695 143.265 94.2455 143.774C92.695 144.074 91.1521 144.406 89.6208 144.781L89.59 144.833C89.59 144.833 89.1937 150.685 90.071 156.4C91.583 156.767 93.1028 157.095 94.6265 157.387C95.9885 157.647 97.3543 157.896 98.7279 158.098C100.652 158.382 102.579 158.67 104.515 158.876C106.396 159.077 108.274 159.286 110.159 159.428C111.275 159.511 112.387 159.61 113.502 159.677C115.153 159.776 116.807 159.859 118.458 159.918C119.966 159.973 121.475 160.017 122.983 160.037C125.395 160.068 127.811 160.056 130.224 160.005C132.548 159.954 134.872 159.863 137.192 159.729C139.958 159.571 142.721 159.346 145.479 159.053C149.685 158.607 153.867 158.007 158.011 157.158C161.631 156.415 165.21 155.507 168.68 154.196C170.192 153.627 171.674 152.976 173.082 152.17C173.797 151.763 174.49 151.321 175.136 150.804V150.808Z" fill="url(#paint0_linear_52_1106)"/>
<path d="M69.682 138.906C69.4997 134.314 79.8227 124.993 122.574 124.449C142.183 124.199 157.443 126.913 168.768 130.585C170.988 131.339 175.834 133.546 177.455 136.339C178.351 137.884 178.362 141.851 178.051 145.934C177.963 145.65 177.86 145.403 177.742 145.199C176.125 142.405 171.249 140.205 169.013 139.455C157.61 135.802 142.229 133.117 122.441 133.409C88.3691 133.912 74.6723 139.854 70.4956 144.596L69.682 138.906Z" fill="#F1ECE2"/>
<path d="M69.682 147.326C69.4997 142.734 79.8227 133.414 122.574 132.87C142.183 132.62 157.443 135.334 168.768 139.005C170.988 139.76 175.834 141.966 177.455 144.759C178.263 146.152 178.351 149.509 178.133 153.147C176.4 150.447 171.204 148.61 169.014 147.875C157.611 144.223 142.23 141.537 122.442 141.83C88.3677 142.333 74.6714 148.276 70.4957 153.017L69.682 147.326Z" fill="#007FFF"/>
<path d="M73.4825 164.372C65.5947 161.446 53.9179 145.27 70.3133 103.973C77.8336 85.0307 88.6345 72.253 99.47 63.8895C101.653 62.2729 107.372 59.1234 112.781 59.4578C115.838 59.6468 122.822 62.4275 129.791 65.5644C129.074 65.6388 128.382 65.7151 127.722 65.7879C125.325 66.0518 123.342 66.2703 122.077 66.1935C116.668 65.8651 110.95 68.9577 108.766 70.545C97.9309 78.7572 87.13 91.3036 79.6096 109.903C65.9894 143.589 71.7424 160.252 78.6024 166.575L73.4825 164.372Z" fill="#FF1100"/>
<path d="M80.2445 167.616C72.3567 164.659 60.6799 148.307 77.0753 106.562C84.5956 87.4141 95.3965 74.4977 106.232 66.0433C108.415 64.4092 114.134 61.2255 119.543 61.5635C121.904 61.7111 126.605 63.4205 131.833 65.6516C129.881 64.9969 128.257 64.5805 127.149 64.5107C121.74 64.1703 116.021 67.3768 113.838 69.0226C103.003 77.5376 92.2017 90.5464 84.6814 109.832C68.286 151.876 80.3418 167.812 88.2296 170.79L94.9905 173.106L80.2445 167.616Z" fill="#FDBF41"/>
<path d="M86.5797 170.439C78.6919 167.45 67.0151 150.922 83.4105 108.729C90.9308 89.3751 101.732 76.32 112.567 67.7748C114.75 66.1231 120.469 62.9052 125.878 63.2469C128.322 63.4012 133.273 65.2469 138.72 67.6178C136.878 67.0299 135.345 66.6582 134.285 66.5898C128.877 66.2409 123.202 69.1319 121.018 70.8186C110.183 79.5455 99.382 92.878 91.8617 112.643C77.8623 149.436 87.5644 167.475 94.5648 173.526L86.5797 170.439Z" fill="#F1ECE2"/>
<path d="M90.1722 111.059C73.7768 153.552 85.4536 170.196 93.3414 173.206L97.0666 174.379C96.9952 174.308 96.924 174.235 96.8529 174.162C102.574 175.099 110.412 171.213 117.806 163.776C118.863 162.723 114.233 164.457 112.735 165.948C109.144 168.895 103.77 170.37 98.7199 168.252C87.3244 163.471 87.088 138.295 98.192 112.019C109.296 85.7433 126.268 68.7386 137.663 73.5189C139.187 74.1579 140.78 75.3535 142.103 76.2733C145.162 79.004 146.54 82.6508 146.54 92.0611V80.451C147.343 81.6442 148.019 82.9817 148.547 84.4829C148.653 87.0089 150.343 91.219 150.864 86.7984C150.471 77.1537 146.288 71.5476 140.642 68.201L140.668 68.2026C140.88 68.2162 141.043 68.2209 141.184 68.225C141.723 68.2405 141.942 68.2468 143.328 68.7063C138.901 66.7645 136.477 65.8611 133.82 65.7593C127.598 65.5208 120.369 69.1479 118.186 70.8113C107.35 79.417 97.6925 91.5682 90.1722 111.059Z" fill="#007FFF"/>
<path d="M125.982 159.782C159.05 158.834 172.844 153.027 177.382 148.298L177.814 152.261L178.02 152.055C178.156 152.505 178.205 153.523 177.998 154.461C177.421 158.498 165.405 168.966 118.862 168.966C117.162 168.966 115.543 168.946 114.002 168.908C117.47 165.82 120.428 162.784 122.963 159.845C123.958 159.832 124.964 159.811 125.982 159.782Z" fill="#007FFF"/>
</g>
<defs>
<linearGradient id="paint0_linear_52_1106" x1="135.56" y1="139.004" x2="136.358" y2="156.688" gradientUnits="userSpaceOnUse">
<stop offset="0.16" stop-color="#191919"/>
<stop offset="0.97" stop-color="#191919" stop-opacity="0"/>
</linearGradient>
</defs>
</svg>
