<svg width="32" height="32" viewBox="0 0 32 32" fill="none" xmlns="http://www.w3.org/2000/svg">
<g clip-path="url(#clip0_406_420900)">
<path d="M26 16C26 23.1797 20.1797 29 13 29C5.8203 29 0 23.1797 0 16C0 8.8203 5.8203 3 13 3C20.1797 3 26 8.8203 26 16Z" fill="#292732"/>
<path fill-rule="evenodd" clip-rule="evenodd" d="M12.1875 28.1608V25.9718L4.0625 20.0627V11.9377L12.1875 6.02865V3.83915C5.83535 4.25725 0.8125 9.54205 0.8125 16C0.8125 22.4579 5.83535 27.7427 12.1875 28.1608ZM25.1875 16C25.1875 22.4579 20.1646 27.7427 13.8125 28.1608V25.9718L21.9375 20.0627V11.9377L13.8125 6.02865V3.83915C20.1646 4.25725 25.1875 9.54205 25.1875 16ZM26 16C26 23.1797 20.1797 29 13 29C5.8203 29 0 23.1797 0 16C0 8.8203 5.8203 3 13 3C20.1797 3 26 8.8203 26 16ZM15.4125 9.96271C17.8079 10.9207 19.5 13.2628 19.5 16.0002C19.5 18.7376 17.8079 21.0797 15.4125 22.0377C15.2428 23.2181 14.2273 24.1252 13 24.1252C11.7727 24.1252 10.7572 23.2181 10.5875 22.0377C8.19215 21.0797 6.5 18.7376 6.5 16.0002C6.5 13.2628 8.19215 10.9207 10.5875 9.96271C10.7572 8.78234 11.7727 7.87522 13 7.87522C14.2273 7.87522 15.2428 8.78234 15.4125 9.96271ZM13.8611 21.3168C13.8611 21.5022 13.6662 21.6877 13.4777 21.6877H12.7108C12.5223 21.6877 12.3274 21.5022 12.3274 21.3168V20.1847C10.7996 19.9992 10.0392 19.1517 9.75 17.9271C9.75 17.7414 9.84425 17.5559 10.0392 17.5559H10.8941C11.089 17.5559 11.1833 17.6487 11.2775 17.8342C11.4725 18.4962 11.8495 19.059 13.0943 19.059C14.0499 19.059 14.716 18.5889 14.716 17.8342C14.716 17.0859 14.339 16.8014 13 16.6157C10.9936 16.3377 10.0392 15.7684 10.0392 14.1663C10.0392 12.9478 10.9945 12.0075 12.3274 11.8157V10.69C12.3274 10.5045 12.5223 10.3127 12.7108 10.3127H13.4777C13.6662 10.3127 13.8611 10.5045 13.8611 10.69V11.8157C15.0052 12.0075 15.7723 12.6633 15.9608 13.6963C15.9608 13.8881 15.8666 14.0736 15.6716 14.0736H14.911C14.716 14.0736 14.6218 13.9808 14.5275 13.7951C14.339 13.1333 13.8611 12.8551 13 12.8551C12.0444 12.8551 11.5667 13.3251 11.5667 13.9808C11.5667 14.6363 11.8495 15.0136 13.2828 15.2054C15.2958 15.4748 16.25 16.0466 16.25 17.6487C16.25 18.8672 15.2944 19.9065 13.8611 20.1847V21.3168Z" fill="#F4BD9E"/>
</g>
<path d="M25 18.25C28.7244 18.25 31.75 21.2756 31.75 25C31.75 28.7244 28.7244 31.75 25 31.75C21.2756 31.75 18.25 28.7244 18.25 25C18.25 21.2756 21.2756 18.25 25 18.25Z" fill="white" stroke="white" stroke-width="0.5"/>
<path fill-rule="evenodd" clip-rule="evenodd" d="M21.7264 29.375L22.9955 28.1058C24.2157 28.8934 25.7843 28.8934 27.0045 28.1058L28.2737 29.375L29.375 28.2737L28.1058 27.0045C28.8934 25.7843 28.8934 24.2157 28.1058 22.9955L29.375 21.7264L28.2737 20.625L27.0045 21.8942C25.7843 21.1066 24.2157 21.1066 22.9955 21.8942L21.7264 20.625L20.625 21.7264L21.8942 22.9955C21.1066 24.2157 21.1066 25.7843 21.8942 27.0045L20.625 28.2737L21.7264 29.375ZM25 22.7646C26.2334 22.7646 27.2354 23.7666 27.2354 25C27.2354 26.2334 26.2334 27.2354 25 27.2354C23.7666 27.2354 22.7646 26.2334 22.7646 25C22.7646 23.7666 23.7666 22.7646 25 22.7646Z" fill="black"/>
<path fill-rule="evenodd" clip-rule="evenodd" d="M25.2238 11.2769C25.9446 11.0075 26.6934 10.8117 27.443 10.6344C28.0423 10.4926 28.6422 10.3627 29.24 10.2085C29.6132 10.1122 29.9854 10.0066 30.3336 9.84092C30.612 9.70845 30.8746 9.53795 31.0907 9.32116C31.3065 9.10438 31.4758 8.84169 31.6024 8.56289C31.7609 8.21439 31.8528 7.84059 31.9164 7.46154C31.9928 7.00699 32.0285 6.54494 31.9731 6.09245C31.9176 5.63996 31.771 5.19684 31.5718 4.78107C31.3727 4.36511 31.121 3.9767 30.8217 3.62932C30.4224 3.16577 29.9386 2.7753 29.4269 2.43242C28.7866 2.00316 28.1028 1.64829 27.4016 1.33257C26.7002 1.01686 25.9813 0.740493 25.2476 0.506471C24.6603 0.319291 24.0637 0.159279 23.4534 0.07028C22.9965 0.00357722 22.5319 -0.0232163 22.071 0.0234382C21.6108 0.0700926 21.1545 0.190008 20.7422 0.396112C20.3299 0.602216 19.9616 0.894321 19.6478 1.23139C19.3334 1.56884 19.0734 1.95145 18.8571 2.35635C18.6405 2.76162 18.4678 3.18938 18.3363 3.62876C18.2048 4.06832 18.1145 4.51969 18.0607 4.97518C17.989 5.58225 17.9822 6.19644 18.0329 6.80482C18.0964 7.56497 18.2496 8.31631 18.4249 9.06241C18.6005 9.80832 18.7981 10.5494 19.0987 11.2529C19.3391 11.8154 19.6452 12.3543 20.0491 12.8176C20.3012 13.1069 20.5916 13.3668 20.9183 13.5705C21.1796 13.7335 21.4641 13.8603 21.763 13.9319C21.9875 13.9857 22.2201 14.008 22.4514 13.9975C22.6825 13.987 22.9124 13.9435 23.1301 13.8673C23.4197 13.7657 23.6882 13.6059 23.9236 13.4088C24.2184 13.162 24.4616 12.8566 24.6626 12.5293C24.9041 12.1365 25.0847 11.7123 25.2238 11.2769Z" fill="white"/>
<path d="M24.0667 4.46106L23.9619 4.60578L24.0509 5.33761L24.1332 5.16718L24.0667 4.46106Z" fill="#FBF100"/>
<path d="M22.7095 0.972244L22.1509 1.00647L22.4266 1.10499L22.9164 1.07076L22.7095 0.972244Z" fill="#A40000"/>
<path d="M23.9683 3.7756L23.8306 3.89579L23.9615 4.60569L24.0662 4.46097L23.9683 3.7756Z" fill="#FFAE00"/>
<path d="M22.9165 1.07079L22.4268 1.10501L22.7029 1.32282L23.1235 1.28408L22.9165 1.07079Z" fill="#A80000"/>
<path d="M23.8414 3.13033L23.6611 3.2279L23.8306 3.89595L23.9684 3.77576L23.8414 3.13033Z" fill="#FF7300"/>
<path d="M23.1232 1.28404L22.7026 1.32279L22.9715 1.65445L23.3248 1.60677L23.1232 1.28404Z" fill="#B60000"/>
<path d="M23.6889 2.54283L23.4575 2.62038L23.6611 3.22772L23.8414 3.13015L23.6889 2.54283Z" fill="#FF3F00"/>
<path d="M23.3249 1.60684L22.9717 1.65451L23.2257 2.0911L23.5153 2.03036L23.3249 1.60684Z" fill="#D60000"/>
<path d="M23.5152 2.03018L23.2256 2.09092L23.4576 2.62036L23.689 2.54281L23.5152 2.03018Z" fill="#FF1300"/>
<path d="M25.1913 6.75554L24.7068 6.85735L24.6831 7.40351L25.1862 7.27194L25.1913 6.75554Z" fill="#16FFE1"/>
<path d="M25.1959 6.19579L24.7201 6.26392L24.707 6.85736L25.1916 6.75556L25.1959 6.19579Z" fill="#4DFFAA"/>
<path d="M25.1994 5.60715L24.7222 5.6386L24.7202 6.26394L25.196 6.1958L25.1994 5.60715Z" fill="#80FF77"/>
<path d="M25.2011 5.0052L24.7124 4.99794L24.7217 5.63866L25.1989 5.60721L25.2011 5.0052Z" fill="#B7FF40"/>
<path d="M25.2026 4.40616L24.6924 4.35928L24.7127 4.99807L25.2015 5.00532L25.2026 4.40616Z" fill="#EBFF0C"/>
<path d="M25.1731 1.48143L24.2466 1.21487L24.3158 1.30251L25.1797 1.55926L25.1731 1.48143Z" fill="#ED0400"/>
<path d="M25.2028 3.82618L24.6616 3.73993L24.6926 4.35926L25.2028 4.40614L25.2028 3.82618Z" fill="#FFCC00"/>
<path d="M25.1792 1.55945L24.3154 1.3027L24.3844 1.49403L25.1853 1.7347L25.1792 1.55945Z" fill="#F10800"/>
<path d="M25.2013 3.28147L24.6206 3.15726L24.6614 3.73992L25.2025 3.82617L25.2013 3.28147Z" fill="#FF9800"/>
<path d="M25.1857 1.73457L24.3848 1.4939L24.4515 1.78412L25.191 2.00282L25.1857 1.73457Z" fill="#FF1300"/>
<path d="M25.1991 2.78702L24.5713 2.6274L24.6208 3.15715L25.2015 3.28136L25.1991 2.78702Z" fill="#FF6C00"/>
<path d="M25.1906 2.00275L24.4512 1.78404L24.5139 2.16538L25.1951 2.35681L25.1906 2.00275Z" fill="#FF2900"/>
<path d="M25.1954 2.35702L24.5142 2.16559L24.5711 2.62757L25.1989 2.7872L25.1954 2.35702Z" fill="#FF4700"/>
<path d="M24.7072 6.85754L24.3501 7.01278L24.3062 7.58706L24.6835 7.40371L24.7072 6.85754Z" fill="#13FCE4"/>
<path d="M24.7202 6.26398L24.373 6.38779L24.3501 7.01265L24.7072 6.85742L24.7202 6.26398Z" fill="#49FFAD"/>
<path d="M24.7222 5.63864L24.3501 5.72862L24.373 6.3878L24.7202 6.26399L24.7222 5.63864Z" fill="#80FF77"/>
<path d="M24.713 4.99797L24.3525 5.05243L24.3739 5.72861L24.7223 5.63869L24.713 4.99797Z" fill="#BAFF3C"/>
<path d="M24.6924 4.35933L24.3091 4.37778L24.3523 5.05257L24.7128 4.99811L24.6924 4.35933Z" fill="#F1FC06"/>
<path d="M24.2467 1.21498L23.4146 1.04279L23.5515 1.13752L24.316 1.30262L24.2467 1.21498Z" fill="#D10000"/>
<path d="M24.6616 3.73978L24.2451 3.72272L24.3092 4.37754L24.6926 4.35909L24.6616 3.73978Z" fill="#FFC100"/>
<path d="M24.3163 1.30254L23.5518 1.13744L23.6887 1.34169L24.3852 1.49387L24.3163 1.30254Z" fill="#D60000"/>
<path d="M24.6211 3.1572L24.1621 3.10619L24.2454 3.7228L24.6619 3.73987L24.6211 3.1572Z" fill="#FF8900"/>
<path d="M24.3851 1.49385L23.6885 1.34167L23.8216 1.65033L24.4518 1.78405L24.3851 1.49385Z" fill="#E40000"/>
<path d="M24.5713 2.6275L24.0615 2.54512L24.1618 3.10623L24.6208 3.15724L24.5713 2.6275Z" fill="#FF5D00"/>
<path d="M24.452 1.78427L23.8218 1.65056L23.9473 2.05539L24.5147 2.16561L24.452 1.78427Z" fill="#FF1300"/>
<path d="M24.5147 2.16543L23.9473 2.05521L24.0618 2.54502L24.5715 2.62741L24.5147 2.16543Z" fill="#FF3400"/>
<path d="M25.7773 6.70844L25.1922 6.75578L25.187 7.27218L25.7882 7.19393L25.7773 6.70844Z" fill="#1CFFDB"/>
<path d="M25.7739 6.18365L25.1962 6.19578L25.1919 6.75556L25.777 6.70821L25.7739 6.18365Z" fill="#50FFA7"/>
<path d="M25.7788 5.63373L25.1996 5.60725L25.1963 6.19593L25.7739 6.1838L25.7788 5.63373Z" fill="#80FF77"/>
<path d="M25.7915 5.07253L25.202 5.00513L25.1997 5.60712L25.7789 5.6336L25.7915 5.07253Z" fill="#B4FF43"/>
<path d="M25.812 4.51568L25.2033 4.40619L25.2021 5.00535L25.7917 5.07275L25.812 4.51568Z" fill="#E4FF13"/>
<path d="M25.8393 3.97759L25.2031 3.82607L25.2032 4.40601L25.8119 4.51551L25.8393 3.97759Z" fill="#FFD700"/>
<path d="M26.1505 1.83138L25.1733 1.48163L25.18 1.55946L26.1017 1.89739L26.1505 1.83138Z" fill="#FF1E00"/>
<path d="M25.8729 3.47364L25.2017 3.28137L25.2029 3.82609L25.8391 3.97762L25.8729 3.47364Z" fill="#FFA700"/>
<path d="M26.1019 1.89727L25.1802 1.55934L25.1862 1.73459L26.0523 2.05414L26.1019 1.89727Z" fill="#FF1E00"/>
<path d="M25.9122 3.01762L25.1992 2.78712L25.2016 3.28145L25.8729 3.47371L25.9122 3.01762Z" fill="#FF7E00"/>
<path d="M26.0521 2.05418L25.186 1.73463L25.1914 2.00288L26.0031 2.29795L26.0521 2.05418Z" fill="#FF2900"/>
<path d="M25.956 2.62201L25.1958 2.35692L25.1993 2.78709L25.9123 3.01758L25.956 2.62201Z" fill="#FF5900"/>
<path d="M26.0031 2.29779L25.1914 2.00272L25.1959 2.35677L25.9561 2.62187L26.0031 2.29779Z" fill="#FF3B00"/>
<path d="M24.3713 10.5932L25.1576 10.2959L25.0009 10.3792L24.2031 10.6827L24.3713 10.5932Z" fill="#00CCFF"/>
<path d="M24.5253 10.4573L25.3014 10.1697L25.1579 10.296L24.3716 10.5932L24.5253 10.4573Z" fill="#00DCFE"/>
<path d="M24.6602 10.2782L25.4275 10.0033L25.301 10.1695L24.5249 10.4572L24.6602 10.2782Z" fill="#09F0EE"/>
<path d="M24.7734 10.0606L25.5336 9.80133L25.4275 10.0035L24.6602 10.2784L24.7734 10.0606Z" fill="#1CFFDB"/>
<path d="M24.8616 9.80943L25.6165 9.56836L25.5336 9.80133L24.7734 10.0606L24.8616 9.80943Z" fill="#33FFC4"/>
<path d="M24.9225 9.53115L25.6742 9.3103L25.6167 9.56823L24.8618 9.80931L24.9225 9.53115Z" fill="#4DFFAA"/>
<path d="M24.9539 9.23322L25.7045 9.03415L25.674 9.31045L24.9224 9.5313L24.9539 9.23322Z" fill="#63FF94"/>
<path d="M24.9555 8.92286L25.7071 8.74657L25.7046 9.0341L24.9541 9.23316L24.9555 8.92286Z" fill="#7DFF7A"/>
<path d="M24.9263 8.60844L25.6811 8.45532L25.7068 8.74658L24.9552 8.92288L24.9263 8.60844Z" fill="#97FF60"/>
<path d="M24.8677 8.29809L25.6278 8.16792L25.6812 8.45526L24.9264 8.60838L24.8677 8.29809Z" fill="#B1FF46"/>
<path d="M24.7808 8.00016L25.5482 7.89209L25.6279 8.16787L24.8677 8.29804L24.7808 8.00016Z" fill="#C7FF30"/>
<path d="M24.6675 7.72273L25.444 7.63531L25.548 7.89219L24.7805 8.00025L24.6675 7.72273Z" fill="#DEFF19"/>
<path d="M23.646 6.84136L24.4987 6.81981L24.6739 6.84816L23.8348 6.87202L23.646 6.84136Z" fill="#FFCC00"/>
<path d="M24.5312 7.47307L25.3185 7.40427L25.444 7.63534L24.6675 7.72276L24.5312 7.47307Z" fill="#F1FC06"/>
<path d="M23.835 6.87199L24.6741 6.84813L24.8483 6.92328L24.0228 6.95323L23.835 6.87199Z" fill="#FFCC00"/>
<path d="M24.3755 7.25778L25.1747 7.20505L25.3184 7.40411L24.5312 7.47291L24.3755 7.25778Z" fill="#FFEA00"/>
<path d="M24.0225 6.9532L24.8479 6.92325L25.0164 7.04327L24.2044 7.08293L24.0225 6.9532Z" fill="#FFD000"/>
<path d="M24.2046 7.08295L25.0166 7.04329L25.1749 7.20499L24.3757 7.25773L24.2046 7.08295Z" fill="#FFDB00"/>
<path d="M24.353 5.05231L24.1333 5.16701L24.1668 5.87442L24.3744 5.72847L24.353 5.05231Z" fill="#BEFF39"/>
<path d="M24.3094 4.37755L24.0664 4.46091L24.1329 5.16705L24.3526 5.05235L24.3094 4.37755Z" fill="#F8F500"/>
<path d="M23.4148 1.04276L22.7095 0.972229L22.9163 1.07075L23.5517 1.13749L23.4148 1.04276Z" fill="#BB0000"/>
<path d="M24.2456 3.72272L23.9688 3.77555L24.0667 4.46092L24.3097 4.37756L24.2456 3.72272Z" fill="#FFB900"/>
<path d="M23.5514 1.13755L22.916 1.0708L23.1231 1.28409L23.6883 1.3418L23.5514 1.13755Z" fill="#BF0000"/>
<path d="M24.1618 3.10605L23.8413 3.13009L23.9682 3.77552L24.2451 3.72268L24.1618 3.10605Z" fill="#FF7E00"/>
<path d="M23.6888 1.34185L23.1235 1.28413L23.3251 1.60686L23.8219 1.65051L23.6888 1.34185Z" fill="#CD0000"/>
<path d="M24.0621 2.54515L23.6895 2.543L23.8419 3.13032L24.1624 3.10628L24.0621 2.54515Z" fill="#FF4E00"/>
<path d="M23.822 1.65048L23.3252 1.60683L23.5156 2.03035L23.9476 2.0553L23.822 1.65048Z" fill="#E80000"/>
<path d="M23.9471 2.05533L23.5151 2.03038L23.689 2.543L24.0616 2.54515L23.9471 2.05533Z" fill="#FF2200"/>
<path d="M23.8859 10.7628L24.5254 10.4572L24.3717 10.5931L23.7192 10.9105L23.8859 10.7628Z" fill="#00D0FF"/>
<path d="M24.0317 10.568L24.6601 10.2782L24.5248 10.4573L23.8853 10.7628L24.0317 10.568Z" fill="#00E4F8"/>
<path d="M24.1546 10.3307L24.7738 10.0603L24.6606 10.2781L24.0322 10.5679L24.1546 10.3307Z" fill="#16FFE1"/>
<path d="M24.2493 10.0574L24.8617 9.80942L24.7735 10.0605L24.1543 10.331L24.2493 10.0574Z" fill="#2CFFCA"/>
<path d="M24.3146 9.75425L24.9226 9.53131L24.8619 9.80946L24.2495 10.0574L24.3146 9.75425Z" fill="#46FFB1"/>
<path d="M24.3478 9.42914L24.954 9.23315L24.9225 9.53123L24.3145 9.75417L24.3478 9.42914Z" fill="#63FF94"/>
<path d="M24.348 9.09047L24.9553 8.92268L24.9539 9.23299L24.3477 9.42897L24.348 9.09047Z" fill="#7DFF7A"/>
<path d="M24.3154 8.74745L24.9263 8.60837L24.9553 8.9228L24.3481 9.09058L24.3154 8.74745Z" fill="#9AFF5D"/>
<path d="M24.2505 8.40877L24.8677 8.29813L24.9264 8.6084L24.3155 8.74748L24.2505 8.40877Z" fill="#B7FF40"/>
<path d="M24.1548 8.08338L24.7809 8.00014L24.8679 8.29801L24.2506 8.40866L24.1548 8.08338Z" fill="#D1FF26"/>
<path d="M24.0308 7.78024L24.6679 7.7226L24.781 8.00011L24.1549 8.08335L24.0308 7.78024Z" fill="#E7FF0F"/>
<path d="M23.8813 7.50746L24.5316 7.47289L24.6678 7.72257L24.0306 7.78022L23.8813 7.50746Z" fill="#FBF100"/>
<path d="M23.7109 7.27251L24.3759 7.25786L24.5316 7.47299L23.8814 7.50756L23.7109 7.27251Z" fill="#FFDB00"/>
<path d="M19.4912 9.33927L19.5997 9.69246L19.4171 8.99802L19.3047 8.63013L19.4912 9.33927Z" fill="#00B4FF"/>
<path d="M19.2069 8.23203L19.3074 8.64312L19.4171 8.99802L19.2975 8.27846L19.1279 7.67731L19.2069 8.23203Z" fill="#16FFE1"/>
<path d="M19.1824 7.89497L19.2976 8.27833L19.2446 7.55129L19.1279 7.15207L19.1824 7.89497Z" fill="#56FFA0"/>
<path d="M19.1279 7.15202L19.2446 7.55124L19.2603 6.8349L19.1435 6.41982L19.1279 7.15202Z" fill="#97FF60"/>
<path d="M19.1436 6.41974L19.2604 6.83483L19.3452 6.14752L19.2295 5.71695L19.1436 6.41974Z" fill="#D4FF23"/>
<path d="M19.2295 5.71695L19.3451 6.14753L19.4977 5.50736L19.3846 5.06207L19.2295 5.71695Z" fill="#FFD700"/>
<path d="M19.3848 5.06214L19.4978 5.50742L19.715 4.93166L19.6058 4.47289L19.3848 5.06214Z" fill="#FF9400"/>
<path d="M19.606 4.47291L19.7151 4.93168L19.992 4.43632L19.888 3.96564L19.606 4.47291Z" fill="#FF5900"/>
<path d="M19.8877 3.96576L19.9917 4.43645L20.3216 4.03572L20.2239 3.55507L19.8877 3.96576Z" fill="#FF2500"/>
<path d="M24.5762 7.30893L24.5872 7.71535L24.6569 8.46177L24.6473 8.07197L24.5762 7.30893Z" fill="#C1FF36"/>
<path d="M20.2241 3.55513L20.3218 4.03578L20.6964 3.74158L20.606 3.25327L20.2241 3.55513Z" fill="#DF0000"/>
<path d="M24.4331 6.55325L24.4471 6.97611L24.5875 7.71529L24.5764 7.30887L24.4331 6.55325Z" fill="#FFEA00"/>
<path d="M20.606 3.25314L20.6964 3.74145L21.1059 3.56286L21.0236 3.06943L20.606 3.25314Z" fill="#BB0000"/>
<path d="M24.2207 5.8259L24.239 6.26451L24.4469 6.97614L24.4329 6.55328L24.2207 5.8259Z" fill="#FFA700"/>
<path d="M21.0234 3.06935L21.1057 3.56278L21.5393 3.50573L21.4657 3.00993L21.0234 3.06935Z" fill="#9F0000"/>
<path d="M23.9453 5.14709L23.9692 5.60033L24.2394 6.26457L24.2211 5.82596L23.9453 5.14709Z" fill="#FF6C00"/>
<path d="M21.4658 3.00983L21.5394 3.50562L21.9851 3.57258L21.9205 3.07721L21.4658 3.00983Z" fill="#920000"/>
<path d="M23.6128 4.53592L23.6434 5.00215L23.9689 5.60022L23.945 5.14699L23.6128 4.53592Z" fill="#FF3400"/>
<path d="M21.9204 3.07745L21.985 3.57282L22.4305 3.76258L22.375 3.27054L21.9204 3.07745Z" fill="#960000"/>
<path d="M23.2334 4.00998L23.2716 4.48725L23.6436 5.00218L23.613 4.53594L23.2334 4.00998Z" fill="#F10800"/>
<path d="M22.375 3.27048L22.4305 3.76252L22.8634 4.07022L22.8167 3.58428L22.375 3.27048Z" fill="#A40000"/>
<path d="M22.8169 3.5843L22.8635 4.07025L23.2716 4.48741L23.2334 4.01014L22.8169 3.5843Z" fill="#C40000"/>
<path d="M19.0828 7.4878L19.1824 7.89506L19.1279 7.15216L19.0273 6.73537L19.0828 7.4878Z" fill="#53FFA4"/>
<path d="M19.0273 6.7353L19.1279 7.15209L19.1434 6.41989L19.0426 5.9935L19.0273 6.7353Z" fill="#97FF60"/>
<path d="M19.0425 5.99351L19.1433 6.41989L19.2293 5.7171L19.129 5.2813L19.0425 5.99351Z" fill="#D7FF1F"/>
<path d="M19.1289 5.28117L19.2292 5.71698L19.3843 5.0621L19.2853 4.61731L19.1289 5.28117Z" fill="#FFD300"/>
<path d="M19.2852 4.61739L19.3842 5.06218L19.6053 4.4729L19.5082 4.01976L19.2852 4.61739Z" fill="#FF9100"/>
<path d="M19.5083 4.01979L19.6054 4.47294L19.8874 3.96567L19.793 3.5051L19.5083 4.01979Z" fill="#FF5200"/>
<path d="M19.7935 3.50513L19.8879 3.9657L20.2241 3.55504L20.133 3.08817L19.7935 3.50513Z" fill="#FF1E00"/>
<path d="M20.1323 3.08813L20.2234 3.555L20.6053 3.25311L20.5181 2.78127L20.1323 3.08813Z" fill="#D60000"/>
<path d="M20.5186 2.78124L20.6057 3.25308L21.0234 3.06936L20.9406 2.59406L20.5186 2.78124Z" fill="#AD0000"/>
<path d="M24.1733 5.38058L24.2209 5.82584L24.4331 6.55322L24.388 6.11724L24.1733 5.38058Z" fill="#FFA300"/>
<path d="M20.9404 2.59399L21.0233 3.06929L21.4655 3.00986L21.3873 2.5327L20.9404 2.59399Z" fill="#920000"/>
<path d="M23.894 4.69339L23.9447 5.1472L24.2206 5.82603L24.173 5.38078L23.894 4.69339Z" fill="#FF6400"/>
<path d="M21.3872 2.53271L21.4653 3.00987L21.92 3.07728L21.8468 2.59998L21.3872 2.53271Z" fill="#840000"/>
<path d="M23.5581 4.07469L23.6126 4.53601L23.9448 5.14711L23.8941 4.6933L23.5581 4.07469Z" fill="#FF2D00"/>
<path d="M21.8472 2.60005L21.9204 3.07735L22.375 3.27043L22.3067 2.79472L21.8472 2.60005Z" fill="#890000"/>
<path d="M23.1743 3.5424L23.233 4.01003L23.6126 4.53599L23.5582 4.07467L23.1743 3.5424Z" fill="#E40000"/>
<path d="M22.3066 2.79482L22.3749 3.27053L22.8166 3.5843L22.7532 3.11185L22.3066 2.79482Z" fill="#9B0000"/>
<path d="M22.7529 3.11183L22.8163 3.58428L23.2328 4.01014L23.1741 3.54252L22.7529 3.11183Z" fill="#BB0000"/>
<path d="M19.1527 7.82128L19.207 8.23203L19.083 7.4878L19.0283 7.07416L19.1527 7.82128Z" fill="#13FCE4"/>
<path d="M19.4174 8.99799L19.5219 9.32032L19.406 8.62218L19.2979 8.27844L19.4174 8.99799Z" fill="#19FFDE"/>
<path d="M19.2976 8.27844L19.4058 8.62218L19.3547 7.91702L19.2446 7.55138L19.2976 8.27844Z" fill="#56FFA0"/>
<path d="M19.2446 7.55137L19.3547 7.91701L19.3704 7.22251L19.2603 6.83505L19.2446 7.55137Z" fill="#94FF63"/>
<path d="M19.2603 6.83501L19.3703 7.22246L19.4531 6.5564L19.345 6.14771L19.2603 6.83501Z" fill="#D1FF26"/>
<path d="M19.3452 6.14752L19.4533 6.55622L19.6019 5.93614L19.4978 5.50735L19.3452 6.14752Z" fill="#FFDB00"/>
<path d="M19.4976 5.50746L19.6017 5.93624L19.813 5.37883L19.7147 4.93167L19.4976 5.50746Z" fill="#FF9C00"/>
<path d="M19.7148 4.93181L19.8131 5.37897L20.0824 4.89974L19.9917 4.43648L19.7148 4.93181Z" fill="#FF6000"/>
<path d="M19.9917 4.43651L20.0823 4.89976L20.403 4.51239L20.3216 4.03578L19.9917 4.43651Z" fill="#FF3000"/>
<path d="M24.5872 7.71552L24.5444 8.08558L24.6123 8.80903L24.6569 8.46194L24.5872 7.71552Z" fill="#C1FF36"/>
<path d="M20.3213 4.03569L20.4027 4.5123L20.7666 4.22824L20.6959 3.74149L20.3213 4.03569Z" fill="#F10800"/>
<path d="M24.447 6.97632L24.4082 7.36912L24.5446 8.08555L24.5873 7.71549L24.447 6.97632Z" fill="#FBF100"/>
<path d="M20.6963 3.74151L20.767 4.22826L21.1648 4.05628L21.1059 3.56291L20.6963 3.74151Z" fill="#C80000"/>
<path d="M24.2393 6.26456L24.2065 6.67927L24.4085 7.369L24.4472 6.97619L24.2393 6.26456Z" fill="#FFAE00"/>
<path d="M21.106 3.56293L21.1649 4.0563L21.5859 4.00208L21.5395 3.50587L21.106 3.56293Z" fill="#AD0000"/>
<path d="M23.9688 5.60049L23.9438 6.03558L24.2062 6.67942L24.239 6.26471L23.9688 5.60049Z" fill="#FF7300"/>
<path d="M21.5396 3.50571L21.5859 4.00191L22.0186 4.06777L21.9852 3.57266L21.5396 3.50571Z" fill="#A40000"/>
<path d="M23.6433 5.00232L23.6279 5.45564L23.9439 6.03547L23.9688 5.60038L23.6433 5.00232Z" fill="#FF3F00"/>
<path d="M21.9854 3.57275L22.0187 4.06786L22.4511 4.25259L22.4308 3.76252L21.9854 3.57275Z" fill="#A40000"/>
<path d="M23.2715 4.48737L23.2671 4.95623L23.6281 5.45561L23.6435 5.00229L23.2715 4.48737Z" fill="#FF1300"/>
<path d="M22.4307 3.7626L22.4509 4.25268L22.8711 4.55154L22.8635 4.07028L22.4307 3.7626Z" fill="#B60000"/>
<path d="M22.8633 4.07008L22.8708 4.55134L23.2669 4.95614L23.2714 4.48728L22.8633 4.07008Z" fill="#D10000"/>
<path d="M19.5996 9.69241L19.6986 9.9943L19.5214 9.32029L19.417 8.99797L19.5996 9.69241Z" fill="#00BCFF"/>
<path d="M19.6986 9.99408L19.7756 10.2329L19.6052 9.58465L19.5215 9.32008L19.6986 9.99408Z" fill="#00C4FF"/>
<path d="M19.5216 9.3202L19.6053 9.58477L19.4941 8.9135L19.4058 8.62207L19.5216 9.3202Z" fill="#1CFFDB"/>
<path d="M19.4056 8.62203L19.4939 8.91346L19.445 8.23573L19.3545 7.91687L19.4056 8.62203Z" fill="#56FFA0"/>
<path d="M19.3545 7.91692L19.445 8.23578L19.4604 7.56856L19.3702 7.22243L19.3545 7.91692Z" fill="#94FF63"/>
<path d="M19.3701 7.22252L19.4604 7.56865L19.5404 6.92906L19.4529 6.55646L19.3701 7.22252Z" fill="#CEFF29"/>
<path d="M24.403 10.8313L24.3037 11.0429L24.1128 11.5878L24.2043 11.3983L24.403 10.8313Z" fill="#00B0FF"/>
<path d="M19.4531 6.55643L19.5406 6.92903L19.684 6.33388L19.6017 5.93634L19.4531 6.55643Z" fill="#FFE200"/>
<path d="M24.5399 10.1998L24.435 10.4363L24.3037 11.0429L24.4031 10.8312L24.5399 10.1998Z" fill="#0CF4EB"/>
<path d="M19.6016 5.93628L19.6838 6.33383L19.8874 5.79916L19.8129 5.37888L19.6016 5.93628Z" fill="#FFA300"/>
<path d="M24.6107 9.51988L24.5027 9.78312L24.4351 10.4362L24.54 10.1998L24.6107 9.51988Z" fill="#46FFB1"/>
<path d="M19.813 5.37885L19.8875 5.79914L20.1468 5.33975L20.0822 4.89958L19.813 5.37885Z" fill="#FF6C00"/>
<path d="M24.6123 8.80899L24.5038 9.10037L24.5024 9.78325L24.6105 9.52001L24.6123 8.80899Z" fill="#80FF77"/>
<path d="M20.082 4.89973L20.1466 5.3399L20.4551 4.96891L20.4027 4.51236L20.082 4.89973Z" fill="#FF3B00"/>
<path d="M24.5447 8.0854L24.4385 8.4055L24.5041 9.10023L24.6126 8.80886L24.5447 8.0854Z" fill="#BEFF39"/>
<path d="M20.4028 4.5122L20.4553 4.96876L20.8054 4.69706L20.7668 4.22813L20.4028 4.5122Z" fill="#FF1300"/>
<path d="M24.408 7.36903L24.3066 7.71765L24.4381 8.40556L24.5444 8.08546L24.408 7.36903Z" fill="#F8F500"/>
<path d="M20.7671 4.22815L20.8057 4.69707L21.1883 4.53301L21.1649 4.05617L20.7671 4.22815Z" fill="#DA0000"/>
<path d="M24.2061 6.67924L24.1123 7.05535L24.3067 7.71759L24.408 7.36897L24.2061 6.67924Z" fill="#FFB600"/>
<path d="M21.1646 4.05621L21.188 4.53304L21.5927 4.48199L21.5855 4.002L21.1646 4.05621Z" fill="#C40000"/>
<path d="M23.9437 6.0354L23.8599 6.43716L24.1123 7.05537L24.2061 6.67927L23.9437 6.0354Z" fill="#FF7E00"/>
<path d="M21.5854 4.00188L21.5927 4.48187L22.0087 4.54599L22.0181 4.06773L21.5854 4.00188Z" fill="#B60000"/>
<path d="M23.6279 5.45572L23.5562 5.88051L23.86 6.43731L23.9439 6.03555L23.6279 5.45572Z" fill="#FF4A00"/>
<path d="M22.0183 4.06776L22.0088 4.54602L22.4245 4.72412L22.4507 4.25251L22.0183 4.06776Z" fill="#BB0000"/>
<path d="M23.2668 4.95636L23.209 5.40083L23.5561 5.88053L23.6278 5.45574L23.2668 4.95636Z" fill="#FF1E00"/>
<path d="M22.4506 4.25241L22.4243 4.72402L22.8281 5.01152L22.8707 4.55126L22.4506 4.25241Z" fill="#C80000"/>
<path d="M22.8706 4.55151L22.8281 5.01177L23.2089 5.40079L23.2667 4.95631L22.8706 4.55151Z" fill="#E40000"/>
<path d="M23.4745 10.5533L24.3234 10.2601L24.1629 10.1215L23.3013 10.4037L23.4745 10.5533Z" fill="#00C4FF"/>
<path d="M23.3013 10.4039L24.1629 10.1217L24.0142 9.94493L23.1406 10.2132L23.3013 10.4039Z" fill="#00D0FF"/>
<path d="M23.1407 10.2131L24.0143 9.94484L23.8811 9.73442L22.9966 9.9862L23.1407 10.2131Z" fill="#00E0FB"/>
<path d="M22.9965 9.98629L23.881 9.73451L23.7669 9.49564L22.8726 9.72869L22.9965 9.98629Z" fill="#0FF8E7"/>
<path d="M22.744 10.8656L23.4745 10.5533L23.3014 10.4038L22.5552 10.7025L22.744 10.8656Z" fill="#00B4FF"/>
<path d="M22.5552 10.7027L23.3014 10.4039L23.1408 10.2133L22.3799 10.4948L22.5552 10.7027Z" fill="#00C0FF"/>
<path d="M22.9416 10.9801L23.6561 10.6582L23.4747 10.5534L22.7441 10.8657L22.9416 10.9801Z" fill="#00A8FF"/>
<path d="M22.8725 9.72852L23.7668 9.49546L23.6745 9.2341L22.772 9.44667L22.8725 9.72852Z" fill="#23FFD4"/>
<path d="M22.3798 10.4949L23.1406 10.2133L22.9965 9.98636L22.2222 10.2476L22.3798 10.4949Z" fill="#00D4FF"/>
<path d="M23.1427 11.0428L23.8408 10.7155L23.6558 10.6582L22.9414 10.9801L23.1427 11.0428Z" fill="#00A8FF"/>
<path d="M22.2222 10.2475L22.9966 9.98631L22.8727 9.72871L22.0864 9.96682L22.2222 10.2475Z" fill="#06ECF1"/>
<path d="M22.7718 9.44677L23.6744 9.2342L23.6063 8.95689L22.6973 9.14772L22.7718 9.44677Z" fill="#39FFBE"/>
<path d="M23.3426 11.052L24.0247 10.7237L23.8407 10.7154L23.1426 11.0427L23.3426 11.052Z" fill="#00A8FF"/>
<path d="M22.0861 9.96664L22.8724 9.72853L22.7718 9.44669L21.9756 9.65951L22.0861 9.96664Z" fill="#1CFFDB"/>
<path d="M22.6975 9.14767L23.6066 8.95684L23.5646 8.67058L22.6509 8.83892L22.6975 9.14767Z" fill="#53FFA4"/>
<path d="M21.9755 9.65974L22.7717 9.44692L22.6972 9.14786L21.8931 9.33381L21.9755 9.65974Z" fill="#36FFC1"/>
<path d="M22.6507 8.83906L23.5644 8.67072L23.5496 8.38275L22.6333 8.52844L22.6507 8.83906Z" fill="#6DFF8A"/>
<path d="M21.8934 9.33378L22.6975 9.14782L22.6509 8.83908L21.8413 8.99725L21.8934 9.33378Z" fill="#50FFA7"/>
<path d="M22.6333 8.5284L23.5496 8.38272L23.5627 8.10042L22.6458 8.22384L22.6333 8.5284Z" fill="#87FF70"/>
<path d="M21.8411 8.99713L22.6507 8.83896L22.6334 8.52834L21.8208 8.65848L21.8411 8.99713Z" fill="#6AFF8D"/>
<path d="M22.646 8.22382L23.5629 8.10041L23.6034 7.83105L22.6882 7.93317L22.646 8.22382Z" fill="#A0FF56"/>
<path d="M21.8208 8.65844L22.6334 8.52829L22.6459 8.22371L21.8329 8.3263L21.8208 8.65844Z" fill="#87FF70"/>
<path d="M22.688 7.9331L23.6032 7.83098L23.6704 7.5816L22.7589 7.66395L22.688 7.9331Z" fill="#B7FF40"/>
<path d="M21.833 8.32641L22.646 8.22382L22.6881 7.93317L21.8774 8.00938L21.833 8.32641Z" fill="#A4FF53"/>
<path d="M22.7593 7.66407L23.6708 7.58173L23.763 7.3589L22.8572 7.42352L22.7593 7.66407Z" fill="#D1FF26"/>
<path d="M21.8774 8.0094L22.6881 7.93318L22.759 7.66403L21.9533 7.71574L21.8774 8.0094Z" fill="#BEFF39"/>
<path d="M22.8569 7.42336L23.7627 7.35874L23.8776 7.16841L22.9795 7.21786L22.8569 7.42336Z" fill="#E4FF13"/>
<path d="M21.9531 7.71581L22.7589 7.6641L22.8569 7.42355L22.0585 7.45328L21.9531 7.71581Z" fill="#D7FF1F"/>
<path d="M22.0586 7.45313L22.8569 7.4234L22.9795 7.2179L22.191 7.22878L22.0586 7.45313Z" fill="#EEFF09"/>
<path d="M22.1909 7.22888L22.9795 7.218L23.1236 7.05311L22.347 7.04881L22.1909 7.22888Z" fill="#FFEA00"/>
<path d="M22.3472 7.04884L23.1238 7.05314L23.2858 6.93339L22.5229 6.91805L22.3472 7.04884Z" fill="#FFD700"/>
<path d="M21.2956 12.683L21.2566 12.6534L20.9185 12.3609L20.938 12.3737L21.2956 12.683Z" fill="#0000FF"/>
<path d="M20.9381 12.3738L20.9185 12.361L20.6035 11.9894L20.605 11.9808L20.9381 12.3738Z" fill="#0010FF"/>
<path d="M21.6693 12.9012L21.6098 12.8596L21.2568 12.6535L21.2959 12.6831L21.6693 12.9012Z" fill="#0000F1"/>
<path d="M20.6049 11.9808L20.6034 11.9894L20.3192 11.5476L20.3042 11.5134L20.6049 11.9808Z" fill="#0038FF"/>
<path d="M22.049 13.0226L21.9687 12.9743L21.6094 12.8596L21.6688 12.9012L22.049 13.0226Z" fill="#0000E8"/>
<path d="M20.3042 11.5132L20.3192 11.5474L20.0727 11.0458L20.0435 10.9826L20.3042 11.5132Z" fill="#0064FF"/>
<path d="M22.4272 13.044L22.3261 12.9945L21.9692 12.9744L22.0495 13.0226L22.4272 13.044Z" fill="#0000ED"/>
<path d="M20.0434 10.9827L20.0727 11.0459L19.8701 10.4965L19.8291 10.4014L20.0434 10.9827Z" fill="#0098FF"/>
<path d="M22.7928 12.9642L22.6714 12.919L22.3257 12.9945L22.4267 13.0439L22.7928 12.9642Z" fill="#0000FF"/>
<path d="M19.8293 10.4016L19.8704 10.4967L19.717 9.91289L19.667 9.78362L19.8293 10.4016Z" fill="#00D4FF"/>
<path d="M23.1384 12.7844L22.9978 12.749L22.6719 12.9188L22.7932 12.964L23.1384 12.7844Z" fill="#0008FF"/>
<path d="M19.667 9.78343L19.717 9.9127L19.617 9.30866L19.561 9.14381L19.667 9.78343Z" fill="#26FFD1"/>
<path d="M23.4539 12.5088L23.2955 12.4884L22.9976 12.749L23.1382 12.7845L23.4539 12.5088Z" fill="#002CFF"/>
<path d="M19.561 9.14393L19.617 9.30878L19.5734 8.69941L19.5146 8.49841L19.561 9.14393Z" fill="#5AFF9D"/>
<path d="M23.7319 12.1429L23.5576 12.1427L23.2954 12.4884L23.4538 12.5088L23.7319 12.1429Z" fill="#0054FF"/>
<path d="M19.5146 8.49836L19.5734 8.69936L19.5877 8.10002L19.5296 7.86316L19.5146 8.49836Z" fill="#90FF66"/>
<path d="M23.9649 11.6953L23.777 11.7199L23.5576 12.1428L23.7319 12.143L23.9649 11.6953Z" fill="#0088FF"/>
<path d="M19.5293 7.86319L19.5874 8.10005L19.6599 7.52612L19.6058 7.25459L19.5293 7.86319Z" fill="#C7FF30"/>
<path d="M24.1465 11.1763L23.948 11.2299L23.7773 11.7198L23.9652 11.6952L24.1465 11.1763Z" fill="#00C4FF"/>
<path d="M19.6064 7.2546L19.6605 7.52613L19.7899 6.99267L19.7433 6.68861L19.6064 7.2546Z" fill="#FBF100"/>
<path d="M24.2709 10.5986L24.0646 10.6847L23.9478 11.2298L24.1463 11.1762L24.2709 10.5986Z" fill="#16FFE1"/>
<path d="M19.7432 6.68849L19.7898 6.99255L19.9733 6.51392L19.9374 6.18033L19.7432 6.68849Z" fill="#FFB900"/>
<path d="M24.3345 9.97705L24.124 10.0982L24.0645 10.6848L24.2707 10.5988L24.3345 9.97705Z" fill="#4DFFAA"/>
<path d="M19.937 6.18047L19.9729 6.51406L20.2063 6.1034L20.1842 5.74417L19.937 6.18047Z" fill="#FF8600"/>
<path d="M24.3353 9.32713L24.124 9.48527L24.124 10.0982L24.3346 9.97703L24.3353 9.32713Z" fill="#80FF77"/>
<path d="M20.1846 5.74412L20.2067 6.10334L20.4843 5.77227L20.4787 5.39206L20.1846 5.74412Z" fill="#FF5D00"/>
<path d="M24.2723 8.66626L24.064 8.86217L24.1241 9.4854L24.3354 9.32727L24.2723 8.66626Z" fill="#B7FF40"/>
<path d="M20.4785 5.39215L20.4842 5.77235L20.7989 5.5305L20.8121 5.13466L20.4785 5.39215Z" fill="#FF3800"/>
<path d="M24.1467 8.01172L23.9448 8.24518L24.064 8.86203L24.2724 8.66612L24.1467 8.01172Z" fill="#EBFF0C"/>
<path d="M20.812 5.13468L20.7988 5.53052L21.1425 5.38519L21.1764 4.97958L20.812 5.13468Z" fill="#FF1A00"/>
<path d="M23.9613 7.38174L23.7695 7.65146L23.945 8.2451L24.1468 8.01164L23.9613 7.38174Z" fill="#FFC800"/>
<path d="M21.1764 4.97948L21.1426 5.38509L21.506 5.34096L21.5618 4.93182L21.1764 4.97948Z" fill="#F10800"/>
<path d="M23.7205 6.79398L23.542 7.09757L23.7693 7.65166L23.9611 7.38194L23.7205 6.79398Z" fill="#FF9400"/>
<path d="M21.5617 4.93181L21.5059 5.34094L21.8793 5.39982L21.9577 4.99358L21.5617 4.93181Z" fill="#E80000"/>
<path d="M23.4308 6.26428L23.2686 6.59843L23.5418 7.09755L23.7203 6.79395L23.4308 6.26428Z" fill="#FF6800"/>
<path d="M21.9578 4.99365L21.8794 5.39989L22.2525 5.56064L22.3535 5.1637L21.9578 4.99365Z" fill="#ED0400"/>
<path d="M23.1006 5.80769L22.957 6.16805L23.2689 6.59819L23.4311 6.26405L23.1006 5.80769Z" fill="#FF4300"/>
<path d="M22.3534 5.16357L22.2524 5.56051L22.615 5.81897L22.7379 5.43747L22.3534 5.16357Z" fill="#FA0F00"/>
<path d="M22.7382 5.43752L22.6152 5.81902L22.9571 6.16816L23.1007 5.80781L22.7382 5.43752Z" fill="#FF2200"/>
<path d="M19.7753 10.2331L19.829 10.4014L19.6667 9.78349L19.605 9.58479L19.7753 10.2331Z" fill="#00CCFF"/>
<path d="M19.6049 9.5849L19.6666 9.7836L19.5607 9.14398L19.4937 8.91364L19.6049 9.5849Z" fill="#1FFFD7"/>
<path d="M23.5759 12.4417L23.4539 12.5089L23.1382 12.7847L23.2445 12.731L23.5759 12.4417Z" fill="#0018FF"/>
<path d="M19.4937 8.91361L19.5607 9.14396L19.5143 8.49844L19.4448 8.23587L19.4937 8.91361Z" fill="#5AFF9D"/>
<path d="M23.8676 12.0577L23.7317 12.143L23.4536 12.5088L23.5756 12.4416L23.8676 12.0577Z" fill="#0044FF"/>
<path d="M19.4448 8.23568L19.5143 8.49825L19.5293 7.86305L19.4602 7.56847L19.4448 8.23568Z" fill="#94FF63"/>
<path d="M24.1127 11.5878L23.9649 11.6953L23.7319 12.143L23.8679 12.0577L24.1127 11.5878Z" fill="#007CFF"/>
<path d="M19.4604 7.56842L19.5295 7.86301L19.606 7.25442L19.5405 6.92883L19.4604 7.56842Z" fill="#CAFF2C"/>
<path d="M24.3036 11.0428L24.1462 11.1762L23.9648 11.6952L24.1127 11.5876L24.3036 11.0428Z" fill="#00B8FF"/>
<path d="M19.5405 6.92892L19.6061 7.25451L19.7429 6.68852L19.6838 6.33377L19.5405 6.92892Z" fill="#FFEA00"/>
<path d="M24.4346 10.4362L24.2705 10.5987L24.146 11.1762L24.3033 11.0428L24.4346 10.4362Z" fill="#0FF8E7"/>
<path d="M19.6836 6.33392L19.7427 6.68867L19.9369 6.1805L19.8872 5.79926L19.6836 6.33392Z" fill="#FFAE00"/>
<path d="M24.5022 9.78314L24.3343 9.97698L24.2705 10.5987L24.4346 10.4362L24.5022 9.78314Z" fill="#49FFAD"/>
<path d="M19.8872 5.79903L19.9369 6.18028L20.1841 5.74398L20.1465 5.33965L19.8872 5.79903Z" fill="#FF7A00"/>
<path d="M24.5038 9.1003L24.3352 9.32713L24.3345 9.97701L24.5024 9.78318L24.5038 9.1003Z" fill="#80FF77"/>
<path d="M20.1465 5.33984L20.1841 5.74418L20.4782 5.39212L20.4551 4.96886L20.1465 5.33984Z" fill="#FF4A00"/>
<path d="M24.438 8.40559L24.272 8.66616L24.335 9.32716L24.5036 9.10032L24.438 8.40559Z" fill="#BAFF3C"/>
<path d="M20.4551 4.96879L20.4782 5.39206L20.8118 5.13456L20.8052 4.69708L20.4551 4.96879Z" fill="#FF2500"/>
<path d="M24.3067 7.71754L24.1465 8.01161L24.2722 8.66599L24.4382 8.40543L24.3067 7.71754Z" fill="#F1FC06"/>
<path d="M20.8052 4.69716L20.8117 5.13464L21.1761 4.97955L21.1878 4.53308L20.8052 4.69716Z" fill="#F10800"/>
<path d="M24.1123 7.0555L23.9609 7.38189L24.1464 8.01181L24.3066 7.71774L24.1123 7.0555Z" fill="#FFC100"/>
<path d="M21.188 4.53302L21.1763 4.97949L21.5617 4.93183L21.5927 4.48198L21.188 4.53302Z" fill="#DA0000"/>
<path d="M23.8598 6.43709L23.7202 6.79371L23.9609 7.38169L24.1122 7.0553L23.8598 6.43709Z" fill="#FF8900"/>
<path d="M21.5926 4.48187L21.5615 4.93172L21.9575 4.9935L22.0086 4.54599L21.5926 4.48187Z" fill="#CD0000"/>
<path d="M23.5558 5.88052L23.4307 6.26431L23.7202 6.79395L23.8597 6.43732L23.5558 5.88052Z" fill="#FF5900"/>
<path d="M22.0086 4.54602L21.9575 4.99353L22.3532 5.16355L22.4242 4.72414L22.0086 4.54602Z" fill="#D10000"/>
<path d="M23.2087 5.40082L23.1001 5.80793L23.4306 6.26431L23.5558 5.88052L23.2087 5.40082Z" fill="#FF3000"/>
<path d="M22.424 4.72432L22.353 5.16374L22.7375 5.43763L22.8279 5.0118L22.424 4.72432Z" fill="#DF0000"/>
<path d="M22.8277 5.01157L22.7373 5.4374L23.0998 5.8077L23.2085 5.40059L22.8277 5.01157Z" fill="#FA0F00"/>
<path d="M21.8828 1.02917L21.4146 1.1745L21.7449 1.1442L22.1506 1.00653L21.8828 1.02917Z" fill="#9F0000"/>
<path d="M22.1508 1.00635L21.7451 1.14401L22.0854 1.23842L22.4265 1.10486L22.1508 1.00635Z" fill="#960000"/>
<path d="M23.8308 3.89581L23.8169 4.07769L23.9781 4.80527L23.9617 4.60571L23.8308 3.89581Z" fill="#FFAB00"/>
<path d="M22.4266 1.10489L22.0854 1.23845L22.4262 1.45583L22.7028 1.3227L22.4266 1.10489Z" fill="#960000"/>
<path d="M23.6612 3.22771L23.6079 3.39397L23.8167 4.07763L23.8307 3.89576L23.6612 3.22771Z" fill="#FF6C00"/>
<path d="M22.7029 1.32277L22.4263 1.4559L22.7579 1.79079L22.9718 1.65443L22.7029 1.32277Z" fill="#A80000"/>
<path d="M23.4575 2.62057L23.3569 2.77379L23.6078 3.39417L23.6611 3.2279L23.4575 2.62057Z" fill="#FF3400"/>
<path d="M22.9712 1.65453L22.7573 1.79089L23.0706 2.23427L23.2252 2.09113L22.9712 1.65453Z" fill="#C80000"/>
<path d="M23.2254 2.09116L23.0708 2.23429L23.3569 2.77378L23.4575 2.62057L23.2254 2.09116Z" fill="#F10800"/>
<path d="M19.0279 7.074L19.0826 7.48764L19.0272 6.7352L18.9722 6.3185L19.0279 7.074Z" fill="#53FFA4"/>
<path d="M18.9722 6.31861L19.0272 6.73531L19.0425 5.99351L18.9873 5.57362L18.9722 6.31861Z" fill="#97FF60"/>
<path d="M18.9873 5.57363L19.0425 5.99352L19.129 5.28131L19.0737 4.85822L18.9873 5.57363Z" fill="#D7FF1F"/>
<path d="M19.0737 4.85811L19.129 5.2812L19.2854 4.61731L19.2301 4.19104L19.0737 4.85811Z" fill="#FFD000"/>
<path d="M19.23 4.19117L19.2852 4.61744L19.5082 4.01983L19.4532 3.59053L19.23 4.19117Z" fill="#FF8D00"/>
<path d="M19.4531 3.59039L19.5081 4.01969L19.7928 3.505L19.7382 3.07286L19.4531 3.59039Z" fill="#FF4E00"/>
<path d="M19.7383 3.07312L19.7929 3.50525L20.1325 3.08826L20.0783 2.65361L19.7383 3.07312Z" fill="#FF1A00"/>
<path d="M20.0786 2.65352L20.1328 3.08816L20.5186 2.7813L20.465 2.34451L20.0786 2.65352Z" fill="#D10000"/>
<path d="M24.3423 5.6869L24.433 6.5643L24.5763 7.32449L24.4877 6.45526L24.3423 5.6869Z" fill="#FFE600"/>
<path d="M20.4648 2.34459L20.5184 2.78138L20.9405 2.59419L20.8876 2.1557L20.4648 2.34459Z" fill="#A80000"/>
<path d="M24.127 4.94742L24.1733 5.38071L24.388 6.1174L24.3422 5.68685L24.127 4.94742Z" fill="#FF9F00"/>
<path d="M20.8877 2.15561L20.9406 2.59411L21.3875 2.53283L21.3354 2.09309L20.8877 2.15561Z" fill="#8D0000"/>
<path d="M23.8472 4.25763L23.8942 4.69329L24.1732 5.38068L24.1268 4.94739L23.8472 4.25763Z" fill="#FF6000"/>
<path d="M21.335 2.0932L21.3871 2.53294L21.8467 2.6002L21.7954 2.1598L21.335 2.0932Z" fill="#800000"/>
<path d="M23.5103 3.63719L23.5581 4.07482L23.8941 4.69343L23.847 4.25777L23.5103 3.63719Z" fill="#FF2900"/>
<path d="M21.7959 2.15965L21.8472 2.60005L22.3067 2.7947L22.2563 2.35416L21.7959 2.15965Z" fill="#800000"/>
<path d="M23.1255 3.10345L23.1741 3.54258L23.558 4.07482L23.5102 3.63719L23.1255 3.10345Z" fill="#DF0000"/>
<path d="M22.2563 2.35414L22.3068 2.79469L22.7534 3.11172L22.7038 2.67161L22.2563 2.35414Z" fill="#920000"/>
<path d="M22.7036 2.67172L22.7531 3.11183L23.1743 3.54255L23.1256 3.10342L22.7036 2.67172Z" fill="#B20000"/>
<path d="M24.2441 5.3306L24.3417 5.68696L24.4872 6.45532L24.3843 6.09849L24.2441 5.3306Z" fill="#FFE600"/>
<path d="M21.103 1.32741L20.7368 1.5867L21.1004 1.4205L21.4145 1.1743L21.103 1.32741Z" fill="#B20000"/>
<path d="M21.4148 1.17453L21.1006 1.42074L21.486 1.37959L21.7452 1.14423L21.4148 1.17453Z" fill="#960000"/>
<path d="M21.745 1.1442L21.4858 1.37956L21.8826 1.46566L22.0853 1.23861L21.745 1.1442Z" fill="#890000"/>
<path d="M22.0855 1.2384L21.8828 1.46545L22.2799 1.67723L22.4262 1.45578L22.0855 1.2384Z" fill="#890000"/>
<path d="M23.3569 2.77373L23.3637 2.99531L23.6555 3.62121L23.6078 3.3941L23.3569 2.77373Z" fill="#FF2D00"/>
<path d="M22.4261 1.45599L22.2798 1.67744L22.6662 2.00956L22.7577 1.79089L22.4261 1.45599Z" fill="#9B0000"/>
<path d="M23.0708 2.23422L23.0308 2.45295L23.3637 2.99531L23.3569 2.77372L23.0708 2.23422Z" fill="#E80000"/>
<path d="M22.7576 1.79092L22.666 2.00959L23.0308 2.45302L23.0709 2.23429L22.7576 1.79092Z" fill="#BB0000"/>
<path d="M23.6079 3.39417L23.6556 3.62127L23.8982 4.3129L23.8167 4.07782L23.6079 3.39417Z" fill="#FF6400"/>
<path d="M20.4047 1.87241L20.1494 2.23987L20.5199 1.93876L20.7367 1.58693L20.4047 1.87241Z" fill="#D10000"/>
<path d="M20.7368 1.58689L20.52 1.93872L20.9255 1.75763L21.1004 1.42068L20.7368 1.58689Z" fill="#A80000"/>
<path d="M21.1002 1.42074L20.9253 1.75768L21.3549 1.70273L21.4856 1.37959L21.1002 1.42074Z" fill="#8D0000"/>
<path d="M21.4857 1.37941L21.355 1.70254L21.7969 1.77623L21.8825 1.46552L21.4857 1.37941Z" fill="#800000"/>
<path d="M21.8824 1.46553L21.7969 1.77624L22.239 1.97728L22.2796 1.67729L21.8824 1.46553Z" fill="#840000"/>
<path d="M23.3638 2.99536L23.4443 3.27515L23.7681 3.89876L23.6556 3.62127L23.3638 2.99536Z" fill="#FF2900"/>
<path d="M22.2799 1.67734L22.2393 1.97732L22.6691 2.3006L22.6662 2.00946L22.2799 1.67734Z" fill="#920000"/>
<path d="M23.0308 2.45296L23.0743 2.73733L23.4442 3.27511L23.3637 2.99532L23.0308 2.45296Z" fill="#DF0000"/>
<path d="M22.666 2.00938L22.6689 2.30053L23.0744 2.7372L23.0308 2.45283L22.666 2.00938Z" fill="#B20000"/>
<path d="M20.113 2.26801L19.8237 2.65142L20.1496 2.23972L20.4049 1.87225L20.113 2.26801Z" fill="#FF1A00"/>
<path d="M19.3365 3.75508L19.23 4.19103L19.4532 3.59039L19.5504 3.16144L19.3365 3.75508Z" fill="#FF8D00"/>
<path d="M19.5502 3.16153L19.4531 3.59049L19.7382 3.07299L19.8234 2.65149L19.5502 3.16153Z" fill="#FF4E00"/>
<path d="M19.8235 2.65148L19.7383 3.07298L20.0783 2.65347L20.1494 2.23978L19.8235 2.65148Z" fill="#FF1600"/>
<path d="M20.1492 2.23968L20.0781 2.65338L20.4645 2.34438L20.5197 1.93857L20.1492 2.23968Z" fill="#D10000"/>
<path d="M20.52 1.93857L20.4648 2.34438L20.8875 2.15548L20.9254 1.75748L20.52 1.93857Z" fill="#A40000"/>
<path d="M20.9255 1.75768L20.8877 2.15569L21.3354 2.09319L21.3551 1.70273L20.9255 1.75768Z" fill="#890000"/>
<path d="M23.7681 3.8987L23.8471 4.25772L24.1268 4.94748L24.0372 4.59036L23.7681 3.8987Z" fill="#FF6000"/>
<path d="M21.3551 1.70248L21.3354 2.09295L21.7959 2.15953L21.7971 1.77617L21.3551 1.70248Z" fill="#800000"/>
<path d="M23.4443 3.27509L23.5105 3.63712L23.8473 4.25772L23.7682 3.8987L23.4443 3.27509Z" fill="#FF2900"/>
<path d="M21.7971 1.77617L21.7959 2.15952L22.2563 2.35404L22.2392 1.97722L21.7971 1.77617Z" fill="#800000"/>
<path d="M23.0742 2.7373L23.1255 3.10335L23.5102 3.63709L23.444 3.27506L23.0742 2.7373Z" fill="#DF0000"/>
<path d="M22.2388 1.97731L22.2559 2.35414L22.7034 2.67161L22.6686 2.30059L22.2388 1.97731Z" fill="#920000"/>
<path d="M22.6689 2.30066L22.7038 2.67168L23.1258 3.10338L23.0745 2.73733L22.6689 2.30066Z" fill="#B20000"/>
<path d="M26.4226 6.71362L25.7769 6.70825L25.7878 7.19373L26.447 7.16759L26.4226 6.71362Z" fill="#23FFD4"/>
<path d="M26.4136 6.22526L25.7739 6.18387L25.7771 6.70842L26.4228 6.71378L26.4136 6.22526Z" fill="#53FFA4"/>
<path d="M26.4198 5.71463L25.7787 5.63364L25.7739 6.1837L26.4136 6.2251L26.4198 5.71463Z" fill="#80FF77"/>
<path d="M26.4414 5.19563L25.7915 5.07254L25.7788 5.63362L26.4199 5.71461L26.4414 5.19563Z" fill="#ADFF49"/>
<path d="M26.478 4.68212L25.8118 4.51562L25.7915 5.07269L26.4414 5.19578L26.478 4.68212Z" fill="#DBFF1C"/>
<path d="M26.5282 4.18768L25.8389 3.97774L25.8115 4.51564L26.4777 4.68213L26.5282 4.18768Z" fill="#FFE200"/>
<path d="M27.1263 2.24981L26.1504 1.83125L26.1016 1.89727L27.0308 2.3027L27.1263 2.24981Z" fill="#FF3800"/>
<path d="M26.5915 3.7259L25.8727 3.47372L25.8389 3.9777L26.5282 4.18764L26.5915 3.7259Z" fill="#FFB600"/>
<path d="M27.0306 2.30268L26.1013 1.89725L26.0518 2.05412L26.9342 2.43976L27.0306 2.30268Z" fill="#FF3800"/>
<path d="M26.6662 3.30949L25.9124 3.01753L25.873 3.47362L26.5918 3.7258L26.6662 3.30949Z" fill="#FF9100"/>
<path d="M26.9343 2.43966L26.0519 2.05402L26.0029 2.29776L26.8397 2.65742L26.9343 2.43966Z" fill="#FF4300"/>
<path d="M26.7494 2.94999L25.9559 2.62186L25.9121 3.01744L26.6659 3.30939L26.7494 2.94999Z" fill="#FF6F00"/>
<path d="M26.8399 2.65754L26.0031 2.29788L25.9561 2.62197L26.7496 2.9501L26.8399 2.65754Z" fill="#FF5500"/>
<path d="M27.0791 6.76767L26.4224 6.71382L26.4467 7.1678L27.114 7.19013L27.0791 6.76767Z" fill="#2CFFCA"/>
<path d="M27.0651 6.31514L26.4131 6.22522L26.4223 6.71373L27.0791 6.76759L27.0651 6.31514Z" fill="#56FFA0"/>
<path d="M27.0724 5.8444L26.4193 5.71481L26.4131 6.22526L27.0651 6.31518L27.0724 5.8444Z" fill="#80FF77"/>
<path d="M27.1012 5.36758L26.441 5.1958L26.4194 5.71477L27.0726 5.84436L27.1012 5.36758Z" fill="#AAFF4D"/>
<path d="M27.1505 4.89742L26.4774 4.68211L26.4409 5.19577L27.1011 5.36755L27.1505 4.89742Z" fill="#D4FF23"/>
<path d="M27.2194 4.44662L26.5281 4.18768L26.4775 4.68215L27.1506 4.89746L27.2194 4.44662Z" fill="#FBF100"/>
<path d="M28.1722 2.75929L27.218 2.28219L27.126 2.24983L28.0441 2.72023L28.1722 2.75929Z" fill="#FF5500"/>
<path d="M27.3058 4.02731L26.5911 3.72591L26.5278 4.18766L27.2192 4.4466L27.3058 4.02731Z" fill="#FFC400"/>
<path d="M28.0444 2.72027L27.1263 2.24988L27.0308 2.30279L27.9118 2.75951L28.0444 2.72027Z" fill="#FF4E00"/>
<path d="M27.408 3.65107L26.6657 3.30959L26.5913 3.72591L27.3059 4.02732L27.408 3.65107Z" fill="#FFA300"/>
<path d="M27.9115 2.75958L27.0305 2.30286L26.9341 2.43994L27.778 2.87635L27.9115 2.75958Z" fill="#FF5200"/>
<path d="M27.5231 3.32828L26.7495 2.95027L26.666 3.30967L27.4083 3.65115L27.5231 3.32828Z" fill="#FF8200"/>
<path d="M27.7784 2.87632L26.9345 2.43991L26.8398 2.65766L27.6477 3.0676L27.7784 2.87632Z" fill="#FF5900"/>
<path d="M27.6471 3.06763L26.8393 2.65768L26.749 2.95027L27.5227 3.32828L27.6471 3.06763Z" fill="#FF6C00"/>
<path d="M27.6923 6.86362L27.0796 6.76753L27.1144 7.18999L27.7349 7.25517L27.6923 6.86362Z" fill="#33FFC4"/>
<path d="M27.6747 6.44662L27.0654 6.31523L27.0795 6.76768L27.6922 6.86377L27.6747 6.44662Z" fill="#5AFF9D"/>
<path d="M27.6828 6.01461L27.0728 5.84442L27.0654 6.31522L27.6747 6.44661L27.6828 6.01461Z" fill="#80FF77"/>
<path d="M27.7165 5.57882L27.1014 5.36742L27.0728 5.8442L27.6828 6.01438L27.7165 5.57882Z" fill="#A7FF50"/>
<path d="M27.7753 5.15143L27.1509 4.89751L27.1016 5.36764L27.7167 5.57905L27.7753 5.15143Z" fill="#CEFF29"/>
<path d="M27.8574 4.7431L27.2197 4.44658L27.1509 4.89741L27.7753 5.15133L27.8574 4.7431Z" fill="#F1FC06"/>
<path d="M27.961 4.36512L27.3063 4.02713L27.2197 4.44641L27.8574 4.74292L27.961 4.36512Z" fill="#FFD700"/>
<path d="M29.0026 3.26962L28.1725 2.75917L28.0444 2.72009L28.8479 3.22378L29.0026 3.26962Z" fill="#FF6F00"/>
<path d="M28.083 4.02817L27.4082 3.65103L27.3062 4.02728L27.9608 4.36527L28.083 4.02817Z" fill="#FFB600"/>
<path d="M28.8477 3.22396L28.0442 2.72028L27.9116 2.75952L28.6879 3.24969L28.8477 3.22396Z" fill="#FF6800"/>
<path d="M28.2207 3.74094L27.523 3.32808L27.4082 3.65095L28.083 4.0281L28.2207 3.74094Z" fill="#FF9800"/>
<path d="M28.688 3.24968L27.9118 2.75952L27.7783 2.87629L28.5274 3.34642L28.688 3.24968Z" fill="#FF6C00"/>
<path d="M28.37 3.51178L27.6474 3.06763L27.5229 3.32826L28.2206 3.74112L28.37 3.51178Z" fill="#FF8200"/>
<path d="M28.5273 3.34649L27.7782 2.87636L27.6475 3.06763L28.3701 3.51179L28.5273 3.34649Z" fill="#FF7300"/>
<path d="M28.2052 6.99422L27.6919 6.86359L27.7345 7.25515L28.2529 7.35618L28.2052 6.99422Z" fill="#39FFBE"/>
<path d="M28.1852 6.61075L27.6743 6.4464L27.6919 6.86353L28.2052 6.99416L28.1852 6.61075Z" fill="#5AFF9D"/>
<path d="M28.1937 6.21572L27.6824 6.01439L27.6743 6.44638L28.1852 6.61074L28.1937 6.21572Z" fill="#80FF77"/>
<path d="M28.2308 5.81954L27.7164 5.57898L27.6826 6.01455L28.1939 6.21589L28.2308 5.81954Z" fill="#A4FF53"/>
<path d="M28.2953 5.43231L27.775 5.15135L27.7163 5.57898L28.2307 5.81954L28.2953 5.43231Z" fill="#C7FF30"/>
<path d="M28.3858 5.06444L27.857 4.74304L27.7749 5.15128L28.2952 5.43224L28.3858 5.06444Z" fill="#E7FF0F"/>
<path d="M28.5001 4.72605L27.9605 4.3653L27.8569 4.7431L28.3858 5.0645L28.5001 4.72605Z" fill="#FFE600"/>
<path d="M28.6354 4.42609L28.0827 4.0282L27.9604 4.36529L28.5002 4.72605L28.6354 4.42609Z" fill="#FFC400"/>
<path d="M29.6564 3.79411L29.0023 3.26979L28.8477 3.22394L29.4843 3.74181L29.6564 3.79411Z" fill="#FF8600"/>
<path d="M28.7882 4.17267L28.2207 3.74091L28.083 4.02806L28.6357 4.42595L28.7882 4.17267Z" fill="#FFAB00"/>
<path d="M29.4839 3.7418L28.8473 3.22392L28.6875 3.24964L29.3062 3.75468L29.4839 3.7418Z" fill="#FF8200"/>
<path d="M28.9538 3.97298L28.3702 3.51157L28.2207 3.74092L28.7882 4.17268L28.9538 3.97298Z" fill="#FF9800"/>
<path d="M29.3067 3.75451L28.688 3.24947L28.5273 3.34623L29.1283 3.83229L29.3067 3.75451Z" fill="#FF8200"/>
<path d="M29.1277 3.83254L28.5268 3.34648L28.3696 3.51176L28.9533 3.97317L29.1277 3.83254Z" fill="#FF8900"/>
<path d="M28.569 7.15086L28.2056 6.99414L28.2533 7.35611L28.6196 7.48526L28.569 7.15086Z" fill="#3CFFBA"/>
<path d="M28.5474 6.79888L28.1855 6.61084L28.2055 6.99425L28.5689 7.15098L28.5474 6.79888Z" fill="#5DFF9A"/>
<path d="M28.5559 6.43824L28.194 6.21596L28.1855 6.61099L28.5474 6.79903L28.5559 6.43824Z" fill="#80FF77"/>
<path d="M28.5941 6.07789L28.2308 5.81935L28.1938 6.21568L28.5557 6.43797L28.5941 6.07789Z" fill="#A0FF56"/>
<path d="M28.6616 5.72794L28.2955 5.43214L28.231 5.81937L28.5942 6.07791L28.6616 5.72794Z" fill="#C1FF36"/>
<path d="M28.7564 5.39763L28.386 5.06456L28.2954 5.43234L28.6615 5.72814L28.7564 5.39763Z" fill="#DEFF19"/>
<path d="M28.876 5.09537L28.5001 4.72609L28.3857 5.06454L28.7561 5.39761L28.876 5.09537Z" fill="#FBF100"/>
<path d="M29.0182 4.82951L28.6357 4.42607L28.5005 4.72603L28.8764 5.09531L29.0182 4.82951Z" fill="#FFD700"/>
<path d="M30.2637 4.42899L29.8183 3.90985L29.6562 3.79401L30.0924 4.31335L30.2637 4.42899Z" fill="#FFA700"/>
<path d="M29.1783 4.60729L28.7882 4.17273L28.6357 4.42601L29.0182 4.82945L29.1783 4.60729Z" fill="#FFC100"/>
<path d="M30.0927 4.31341L29.6566 3.79406L29.4844 3.74179L29.911 4.25533L30.0927 4.31341Z" fill="#FF9C00"/>
<path d="M29.3523 4.43476L28.9537 3.97298L28.7881 4.17266L29.1782 4.60722L29.3523 4.43476Z" fill="#FFAE00"/>
<path d="M29.911 4.25532L29.4844 3.74178L29.3066 3.75465L29.7237 4.25645L29.911 4.25532Z" fill="#FF9800"/>
<path d="M29.5361 4.31687L29.1285 3.83246L28.9541 3.97309L29.3527 4.43488L29.5361 4.31687Z" fill="#FF9F00"/>
<path d="M29.724 4.25648L29.3069 3.75467L29.1284 3.83245L29.536 4.31686L29.724 4.25648Z" fill="#FF9800"/>
<path d="M28.742 7.32539L28.5688 7.15109L28.6196 7.48547L28.7939 7.63496L28.742 7.32539Z" fill="#43FFB4"/>
<path d="M28.7197 7.00115L28.5474 6.79877L28.5688 7.15086L28.742 7.32515L28.7197 7.00115Z" fill="#60FF97"/>
<path d="M28.7278 6.67114L28.5558 6.43813L28.5474 6.79891L28.7197 7.00129L28.7278 6.67114Z" fill="#7DFF7A"/>
<path d="M28.766 6.34345L28.594 6.07805L28.5557 6.43814L28.7276 6.67116L28.766 6.34345Z" fill="#9DFF5A"/>
<path d="M28.8339 6.02673L28.6617 5.72807L28.5942 6.07802L28.7662 6.34343L28.8339 6.02673Z" fill="#BAFF3C"/>
<path d="M28.9295 5.72937L28.7565 5.39751L28.6616 5.72804L28.8339 6.0267L28.9295 5.72937Z" fill="#D4FF23"/>
<path d="M29.0508 5.45946L28.8767 5.09538L28.7568 5.39762L28.9298 5.72948L29.0508 5.45946Z" fill="#EEFF09"/>
<path d="M30.756 5.29938L30.5576 4.8185L30.4204 4.59895L30.6161 5.0905L30.756 5.29938Z" fill="#FFDE00"/>
<path d="M29.1938 5.22395L29.0183 4.82947L28.8765 5.09528L29.0506 5.45936L29.1938 5.22395Z" fill="#FFE600"/>
<path d="M30.6161 5.09045L30.4204 4.5989L30.2642 4.42896L30.457 4.92608L30.6161 5.09045Z" fill="#FFCC00"/>
<path d="M29.3559 5.02947L29.1786 4.60733L29.0186 4.82949L29.1941 5.22397L29.3559 5.02947Z" fill="#FFD000"/>
<path d="M30.4569 4.92602L30.264 4.4289L30.0928 4.31326L30.2827 4.81065L30.4569 4.92602Z" fill="#FFB900"/>
<path d="M29.5322 4.88123L29.3528 4.43488L29.1787 4.60732L29.356 5.02946L29.5322 4.88123Z" fill="#FFC100"/>
<path d="M30.2828 4.8107L30.0928 4.31332L29.9111 4.25523L30.0982 4.7475L30.2828 4.8107Z" fill="#FFB200"/>
<path d="M29.7177 4.78327L29.536 4.31683L29.3525 4.43486L29.5319 4.88121L29.7177 4.78327Z" fill="#FFB200"/>
<path d="M30.0985 4.74743L29.9114 4.25516L29.7241 4.25629L29.9084 4.73816L30.0985 4.74743Z" fill="#FFAB00"/>
<path d="M29.9078 4.73819L29.7236 4.25632L29.5356 4.3167L29.7174 4.78314L29.9078 4.73819Z" fill="#FFAE00"/>
<path d="M28.8813 6.0481L28.9296 5.72925L28.834 6.02658L28.7876 6.31703L28.8813 6.0481Z" fill="#CEFF29"/>
<path d="M30.9111 7.72563L30.9799 7.42989L31.0366 7.11011L30.9663 7.43315L30.9111 7.72563Z" fill="#50FFA7"/>
<path d="M30.9663 7.43318L31.0365 7.11013L31.0637 6.78148L30.9923 7.131L30.9663 7.43318Z" fill="#6AFF8D"/>
<path d="M30.9927 7.1309L31.0641 6.78139L31.0611 6.4523L30.9888 6.82681L30.9927 7.1309Z" fill="#87FF70"/>
<path d="M30.9886 6.8269L31.0609 6.45239L31.0274 6.13142L30.9546 6.52877L30.9886 6.8269Z" fill="#A0FF56"/>
<path d="M30.9549 6.52868L31.0277 6.13134L30.9646 5.8269L30.8916 6.24439L30.9549 6.52868Z" fill="#BEFF39"/>
<path d="M30.8913 6.24433L30.9643 5.82685L30.8731 5.54704L30.8003 5.98137L30.8913 6.24433Z" fill="#D4FF23"/>
<path d="M29.0001 5.80594L29.0506 5.45946L28.9297 5.72947L28.8813 6.04833L29.0001 5.80594Z" fill="#E4FF13"/>
<path d="M30.8005 5.98135L30.8734 5.54702L30.7563 5.29933L30.6841 5.74678L30.8005 5.98135Z" fill="#EBFF0C"/>
<path d="M29.1408 5.59644L29.1938 5.22395L29.0505 5.45939L29 5.80587L29.1408 5.59644Z" fill="#F8F500"/>
<path d="M30.6838 5.747L30.756 5.29955L30.6161 5.09067L30.5449 5.54714L30.6838 5.747Z" fill="#FEED00"/>
<path d="M29.2999 5.42566L29.3555 5.02942L29.1936 5.22391L29.1406 5.5964L29.2999 5.42566Z" fill="#FFDE00"/>
<path d="M30.5449 5.54703L30.6161 5.09056L30.457 4.92618L30.3872 5.3873L30.5449 5.54703Z" fill="#FFDB00"/>
<path d="M29.4738 5.29822L29.532 4.8812L29.3559 5.02943L29.3003 5.42568L29.4738 5.29822Z" fill="#FFD000"/>
<path d="M30.3872 5.38723L30.457 4.92611L30.2828 4.81073L30.2148 5.27191L30.3872 5.38723Z" fill="#FFCC00"/>
<path d="M29.6568 5.2176L29.7177 4.78329L29.5319 4.88123L29.4736 5.29825L29.6568 5.2176Z" fill="#FFC400"/>
<path d="M30.2147 5.27192L30.2827 4.81074L30.0981 4.74754L30.0322 5.20421L30.2147 5.27192Z" fill="#FFC400"/>
<path d="M29.8447 5.18609L29.9082 4.73843L29.7177 4.78338L29.6567 5.21769L29.8447 5.18609Z" fill="#FFC100"/>
<path d="M30.0324 5.2043L30.0983 4.74763L29.9082 4.73837L29.8447 5.18603L30.0324 5.2043Z" fill="#FFBD00"/>
<path d="M29.9629 8.98152L30.2745 8.80163L30.4396 8.65741L30.1228 8.85522L29.9629 8.98152Z" fill="#00D4FF"/>
<path d="M30.1226 8.85522L30.4394 8.65742L30.5892 8.4727L30.2675 8.6903L30.1226 8.85522Z" fill="#00E4F8"/>
<path d="M30.2676 8.69022L30.5893 8.47262L30.72 8.25197L30.3938 8.49075L30.2676 8.69022Z" fill="#0FF8E7"/>
<path d="M30.394 8.49084L30.7202 8.25205L30.8284 8.00095L30.4984 8.26179L30.394 8.49084Z" fill="#26FFD1"/>
<path d="M30.498 8.26168L30.828 8.00084L30.9109 7.72557L30.5777 8.0088L30.498 8.26168Z" fill="#3CFFBA"/>
<path d="M30.5776 8.00882L30.9108 7.72559L30.966 7.43312L30.6304 7.73851L30.5776 8.00882Z" fill="#53FFA4"/>
<path d="M30.6304 7.73863L30.966 7.43324L30.9921 7.13106L30.6547 7.45786L30.6304 7.73863Z" fill="#6DFF8A"/>
<path d="M30.6547 7.45775L30.992 7.13095L30.9881 6.82683L30.6499 7.17374L30.6547 7.45775Z" fill="#87FF70"/>
<path d="M30.6501 7.17368L30.9883 6.82676L30.9543 6.52863L30.6162 6.89381L30.6501 7.17368Z" fill="#A0FF56"/>
<path d="M30.616 6.89395L30.9541 6.52877L30.8908 6.24446L30.5537 6.62562L30.616 6.89395Z" fill="#B7FF40"/>
<path d="M30.5539 6.62549L30.891 6.24433L30.8 5.98138L30.4648 6.37584L30.5539 6.62549Z" fill="#CEFF29"/>
<path d="M30.4648 6.37581L30.8 5.98136L30.6835 5.7468L30.3511 6.15142L30.4648 6.37581Z" fill="#E4FF13"/>
<path d="M29.0092 5.78485L29.2999 5.4256L29.1407 5.59635L28.8555 5.93607L29.0092 5.78485Z" fill="#FEED00"/>
<path d="M30.3511 6.15158L30.6836 5.74695L30.5447 5.54709L30.2158 5.9585L30.3511 6.15158Z" fill="#F4F802"/>
<path d="M29.1769 5.67476L29.4734 5.29831L29.3 5.42576L29.0093 5.78501L29.1769 5.67476Z" fill="#FFDE00"/>
<path d="M30.2159 5.95853L30.5448 5.54711L30.3871 5.38736L30.0625 5.80201L30.2159 5.95853Z" fill="#FFE600"/>
<path d="M29.3539 5.60858L29.6564 5.21768L29.4733 5.29833L29.1768 5.67478L29.3539 5.60858Z" fill="#FFD300"/>
<path d="M30.0625 5.80191L30.3871 5.38726L30.2147 5.27196L29.895 5.68615L30.0625 5.80191Z" fill="#FFDB00"/>
<path d="M29.536 5.58807L29.8444 5.1859L29.6565 5.21752L29.354 5.60842L29.536 5.58807Z" fill="#FFD000"/>
<path d="M29.8948 5.68604L30.2145 5.27185L30.032 5.20413L29.7178 5.6141L29.8948 5.68604Z" fill="#FFD000"/>
<path d="M29.7181 5.61435L30.0323 5.20438L29.8446 5.1861L29.5361 5.58826L29.7181 5.61435Z" fill="#FFCC00"/>
<path d="M29.2593 9.24362L29.7923 9.06592L29.963 8.98132L29.4227 9.17158L29.2593 9.24362Z" fill="#00D0FF"/>
<path d="M29.4229 9.17167L29.9631 8.98142L30.123 8.85512L29.5757 9.05954L29.4229 9.17167Z" fill="#00DCFE"/>
<path d="M29.5757 9.05953L30.1229 8.8551L30.2679 8.69019L29.7142 8.91005L29.5757 9.05953Z" fill="#06ECF1"/>
<path d="M29.7144 8.91014L30.2681 8.69028L30.3943 8.49081L29.8349 8.72699L29.7144 8.91014Z" fill="#19FFDE"/>
<path d="M29.8345 8.72693L30.394 8.49075L30.4983 8.2617L29.9338 8.51466L29.8345 8.72693Z" fill="#29FFCE"/>
<path d="M29.9341 8.51453L30.4986 8.26158L30.5782 8.0087L30.0096 8.2785L29.9341 8.51453Z" fill="#40FFB7"/>
<path d="M30.0098 8.27873L30.5783 8.00892L30.631 7.73863L30.0595 8.02493L30.0098 8.27873Z" fill="#56FFA0"/>
<path d="M30.0591 8.02472L30.6306 7.73842L30.655 7.45764L30.0815 7.75965L30.0591 8.02472Z" fill="#6DFF8A"/>
<path d="M30.0817 7.75973L30.6551 7.45772L30.6504 7.17371L30.0762 7.49028L30.0817 7.75973Z" fill="#87FF70"/>
<path d="M30.0764 7.49041L30.6506 7.17383L30.6167 6.89398L30.043 7.22359L30.0764 7.49041Z" fill="#9DFF5A"/>
<path d="M30.0425 7.22338L30.6163 6.89378L30.554 6.62546L29.9819 6.96622L30.0425 7.22338Z" fill="#B4FF43"/>
<path d="M29.9822 6.9662L30.5543 6.62544L30.4652 6.37576L29.896 6.72554L29.9822 6.9662Z" fill="#CAFF2C"/>
<path d="M29.8959 6.72578L30.4651 6.376L30.3514 6.15163L29.7861 6.50799L29.8959 6.72578Z" fill="#DEFF19"/>
<path d="M29.7861 6.50788L30.3513 6.15152L30.216 5.95847L29.6558 6.31879L29.7861 6.50788Z" fill="#EEFF09"/>
<path d="M28.8295 5.94784L29.3544 5.60841L29.1772 5.67464L28.6602 6.00236L28.8295 5.94784Z" fill="#FFDE00"/>
<path d="M29.6558 6.31889L30.216 5.95856L30.0626 5.80203L29.5083 6.16363L29.6558 6.31889Z" fill="#FBF100"/>
<path d="M29.0037 5.93686L29.5364 5.58801L29.3545 5.60837L28.8296 5.9478L29.0037 5.93686Z" fill="#FFDB00"/>
<path d="M29.5084 6.16341L30.0627 5.80182L29.8953 5.68604L29.3477 6.04613L29.5084 6.16341Z" fill="#FFE600"/>
<path d="M29.1777 5.9701L29.7181 5.61428L29.5361 5.58817L29.0034 5.93702L29.1777 5.9701Z" fill="#FFD700"/>
<path d="M29.3475 6.04609L29.8952 5.686L29.7181 5.61409L29.1777 5.96991L29.3475 6.04609Z" fill="#FFDB00"/>
<path d="M28.5371 9.43695L29.259 9.24364L29.4224 9.1716L28.6924 9.37466L28.5371 9.43695Z" fill="#00D8FF"/>
<path d="M28.6929 9.37481L29.4228 9.17176L29.5757 9.05963L28.8381 9.27324L28.6929 9.37481Z" fill="#00E4F8"/>
<path d="M28.8379 9.27308L29.5755 9.05948L29.714 8.90999L28.9693 9.13468L28.8379 9.27308Z" fill="#0CF4EB"/>
<path d="M28.9692 9.13467L29.714 8.90998L29.8345 8.72682L29.0834 8.96287L28.9692 9.13467Z" fill="#1CFFDB"/>
<path d="M29.0835 8.96302L29.8346 8.72697L29.934 8.51471L29.1774 8.76207L29.0835 8.96302Z" fill="#2CFFCA"/>
<path d="M29.1772 8.7619L29.9338 8.51453L30.0094 8.2785L29.2484 8.53688L29.1772 8.7619Z" fill="#43FFB4"/>
<path d="M29.248 8.53708L30.009 8.2787L30.0587 8.0249L29.2945 8.2937L29.248 8.53708Z" fill="#56FFA0"/>
<path d="M29.2949 8.29375L30.0591 8.02495L30.0816 7.75989L29.3154 8.03828L29.2949 8.29375Z" fill="#6DFF8A"/>
<path d="M29.3153 8.038L30.0815 7.75961L30.0759 7.49016L29.3091 7.77705L29.3153 8.038Z" fill="#83FF73"/>
<path d="M29.3091 7.77707L30.076 7.49018L30.0426 7.22336L29.2764 7.51748L29.3091 7.77707Z" fill="#9AFF5D"/>
<path d="M29.2764 7.51756L30.0426 7.22344L29.982 6.96628L29.2178 7.26612L29.2764 7.51756Z" fill="#B1FF46"/>
<path d="M29.2177 7.26616L29.9819 6.96631L29.8957 6.72563L29.1348 7.02958L29.2177 7.26616Z" fill="#C4FF33"/>
<path d="M29.135 7.02949L29.8959 6.72554L29.7862 6.50775L29.0298 6.81407L29.135 7.02949Z" fill="#D7FF1F"/>
<path d="M28.1174 6.23133L28.8291 5.94804L28.6597 6.00257L27.9565 6.27665L28.1174 6.23133Z" fill="#FFE600"/>
<path d="M29.03 6.81418L29.7864 6.50787L29.656 6.3188L28.9053 6.62567L29.03 6.81418Z" fill="#E7FF0F"/>
<path d="M28.2832 6.22815L29.0035 5.93692L28.8294 5.94784L28.1177 6.23113L28.2832 6.22815Z" fill="#FFE200"/>
<path d="M28.9051 6.62578L29.6558 6.31892L29.5083 6.16365L28.7642 6.46924L28.9051 6.62578Z" fill="#F4F802"/>
<path d="M28.4486 6.26774L29.1773 5.97006L29.003 5.93701L28.2827 6.22824L28.4486 6.26774Z" fill="#FFE200"/>
<path d="M28.7637 6.46915L29.5079 6.16356L29.3471 6.04626L28.6104 6.34879L28.7637 6.46915Z" fill="#FEED00"/>
<path d="M28.611 6.34865L29.3477 6.04613L29.178 5.96994L28.4492 6.26761L28.611 6.34865Z" fill="#FFE200"/>
<path d="M27.6768 9.64934L28.5375 9.437L28.6928 9.37471L27.8237 9.59429L27.6768 9.64934Z" fill="#00DCFE"/>
<path d="M27.8237 9.59444L28.6929 9.37486L28.8381 9.27328L27.961 9.50002L27.8237 9.59444Z" fill="#02E8F4"/>
<path d="M27.9609 9.49994L28.838 9.27321L28.9694 9.13481L28.085 9.36843L27.9609 9.49994Z" fill="#0FF8E7"/>
<path d="M28.085 9.36846L28.9694 9.13484L29.0835 8.96303L28.1925 9.20307L28.085 9.36846Z" fill="#1FFFD7"/>
<path d="M28.1929 9.20286L29.0839 8.96282L29.1778 8.76187L28.2812 9.00773L28.1929 9.20286Z" fill="#30FFC7"/>
<path d="M28.2808 9.00782L29.1774 8.76196L29.2485 8.53694L28.3474 8.78784L28.2808 9.00782Z" fill="#43FFB4"/>
<path d="M28.3477 8.7879L29.2488 8.537L29.2953 8.29362L28.3909 8.54868L28.3477 8.7879Z" fill="#5AFF9D"/>
<path d="M28.3906 8.54864L29.295 8.29359L29.3155 8.03812L28.4091 8.29632L28.3906 8.54864Z" fill="#6DFF8A"/>
<path d="M28.4091 8.29635L29.3155 8.03814L29.3093 7.77719L28.4023 8.03749L28.4091 8.29635Z" fill="#83FF73"/>
<path d="M28.4026 8.03742L29.3096 7.77712L29.2768 7.51752L28.3706 7.77879L28.4026 8.03742Z" fill="#9AFF5D"/>
<path d="M28.3704 7.7788L29.2767 7.51752L29.2181 7.2661L28.314 7.52722L28.3704 7.7788Z" fill="#B1FF46"/>
<path d="M28.3139 7.52739L29.218 7.26627L29.135 7.02969L28.2344 7.28954L28.3139 7.52739Z" fill="#C4FF33"/>
<path d="M28.2343 7.28957L29.1349 7.02972L29.0297 6.8143L28.1338 7.07178L28.2343 7.28957Z" fill="#D7FF1F"/>
<path d="M27.4248 6.46049L28.2834 6.22813L28.1179 6.23112L27.2681 6.45665L27.4248 6.46049Z" fill="#FFE600"/>
<path d="M28.134 7.07167L29.0299 6.81419L28.9052 6.62569L28.0151 6.87978L28.134 7.07167Z" fill="#E4FF13"/>
<path d="M27.5815 6.50643L28.4489 6.26767L28.283 6.22815L27.4243 6.4605L27.5815 6.50643Z" fill="#FFE600"/>
<path d="M28.0149 6.8798L28.905 6.6257L28.7641 6.46916L27.8809 6.71893L28.0149 6.8798Z" fill="#F1FC06"/>
<path d="M27.7351 6.59341L28.6107 6.34879L28.4489 6.26778L27.5815 6.50654L27.7351 6.59341Z" fill="#FFE600"/>
<path d="M27.8811 6.71883L28.7643 6.46906L28.611 6.34868L27.7354 6.5933L27.8811 6.71883Z" fill="#FEED00"/>
<path d="M26.9719 9.77534L27.8937 9.55203L27.7512 9.62699L26.8281 9.85126L26.9719 9.77534Z" fill="#00E4F8"/>
<path d="M27.1042 9.66032L28.025 9.43855L27.894 9.55186L26.9722 9.77517L27.1042 9.66032Z" fill="#0CF4EB"/>
<path d="M27.2208 9.50947L28.141 9.28979L28.0249 9.4387L27.104 9.66047L27.2208 9.50947Z" fill="#19FFDE"/>
<path d="M27.3192 9.32597L28.2392 9.10889L28.1409 9.28971L27.2207 9.50939L27.3192 9.32597Z" fill="#29FFCE"/>
<path d="M27.3969 9.11473L28.3171 8.90068L28.2393 9.1089L27.3193 9.32598L27.3969 9.11473Z" fill="#3CFFBA"/>
<path d="M27.4516 8.88095L28.3722 8.6703L28.3171 8.90064L27.397 9.11469L27.4516 8.88095Z" fill="#53FFA4"/>
<path d="M27.4817 8.63071L28.4032 8.42374L28.3723 8.6703L27.4517 8.88095L27.4817 8.63071Z" fill="#66FF90"/>
<path d="M27.4861 8.37034L28.4088 8.16724L28.4029 8.42366L27.4814 8.63063L27.4861 8.37034Z" fill="#7DFF7A"/>
<path d="M27.4653 8.10679L28.3895 7.90764L28.4089 8.16724L27.4863 8.37034L27.4653 8.10679Z" fill="#94FF63"/>
<path d="M27.4189 7.84701L28.3449 7.65178L28.3893 7.90773L27.4651 8.10689L27.4189 7.84701Z" fill="#AAFF4D"/>
<path d="M27.3486 7.59761L28.2766 7.40619L28.3448 7.65172L27.4188 7.84695L27.3486 7.59761Z" fill="#BEFF39"/>
<path d="M27.2563 7.36557L28.1865 7.17772L28.2767 7.4063L27.3488 7.59773L27.2563 7.36557Z" fill="#D1FF26"/>
<path d="M26.4023 6.62925L27.3459 6.45323L27.5034 6.47819L26.5618 6.65472L26.4023 6.62925Z" fill="#FFE200"/>
<path d="M27.144 7.15663L28.0765 6.97202L28.1865 7.17754L27.2564 7.3654L27.144 7.15663Z" fill="#E1FF16"/>
<path d="M26.5615 6.65498L27.5031 6.47844L27.659 6.54505L26.7196 6.72275L26.5615 6.65498Z" fill="#FFE600"/>
<path d="M27.0151 6.97689L27.9499 6.7951L28.0768 6.97208L27.1444 7.15669L27.0151 6.97689Z" fill="#EEFF09"/>
<path d="M26.7197 6.72259L27.6592 6.54489L27.8093 6.65145L26.8721 6.83091L26.7197 6.72259Z" fill="#FFEA00"/>
<path d="M26.8721 6.83097L27.8092 6.6515L27.9496 6.79518L27.0148 6.97697L26.8721 6.83097Z" fill="#FBF100"/>
<path d="M26.0412 10.023L26.9721 9.77534L26.8283 9.85126L25.8926 10.1017L26.0412 10.023Z" fill="#00E0FB"/>
<path d="M26.1767 9.90363L27.1034 9.66037L26.9714 9.77522L26.0405 10.0229L26.1767 9.90363Z" fill="#09F0EE"/>
<path d="M26.2975 9.74672L27.2208 9.50929L27.104 9.66029L26.1772 9.90355L26.2975 9.74672Z" fill="#16FFE1"/>
<path d="M26.3985 9.55629L27.3192 9.32602L27.2206 9.50944L26.2974 9.74687L26.3985 9.55629Z" fill="#29FFCE"/>
<path d="M26.4778 9.33667L27.3967 9.11472L27.3191 9.32596L26.3984 9.55623L26.4778 9.33667Z" fill="#3CFFBA"/>
<path d="M26.533 9.09363L27.451 8.88094L27.3964 9.11467L26.4775 9.33663L26.533 9.09363Z" fill="#50FFA7"/>
<path d="M26.5631 8.83356L27.4814 8.63084L27.4513 8.88109L26.5332 9.09378L26.5631 8.83356Z" fill="#66FF90"/>
<path d="M26.5665 8.56279L27.4859 8.37051L27.4812 8.6308L26.563 8.83352L26.5665 8.56279Z" fill="#7DFF7A"/>
<path d="M26.5435 8.28854L27.4649 8.10689L27.4859 8.37044L26.5665 8.56271L26.5435 8.28854Z" fill="#94FF63"/>
<path d="M26.4941 8.01807L27.4186 7.84695L27.4648 8.10684L26.5433 8.28848L26.4941 8.01807Z" fill="#AAFF4D"/>
<path d="M26.4204 7.75857L27.3487 7.5976L27.4189 7.84693L26.4945 8.01805L26.4204 7.75857Z" fill="#C1FF36"/>
<path d="M26.3232 7.51698L27.2561 7.36549L27.3486 7.59765L26.4203 7.75862L26.3232 7.51698Z" fill="#D4FF23"/>
<path d="M25.4341 6.75032L26.4021 6.62936L26.5615 6.65484L25.5995 6.77693L25.4341 6.75032Z" fill="#FFDE00"/>
<path d="M26.2056 7.29967L27.1436 7.15675L27.256 7.36552L26.3231 7.51701L26.2056 7.29967Z" fill="#E4FF13"/>
<path d="M25.5996 6.77691L26.5617 6.65482L26.7197 6.72259L25.7638 6.84755L25.5996 6.77691Z" fill="#FFDE00"/>
<path d="M26.0708 7.11241L27.0146 6.9769L27.1438 7.15669L26.2057 7.29961L26.0708 7.11241Z" fill="#F1FC06"/>
<path d="M25.7637 6.84771L26.7196 6.72275L26.872 6.83107L25.9222 6.96054L25.7637 6.84771Z" fill="#FFE600"/>
<path d="M25.9224 6.9604L26.8721 6.83093L27.0148 6.97694L26.0711 7.11245L25.9224 6.9604Z" fill="#FEED00"/>
<path d="M25.0011 10.3793L25.8924 10.1017L25.7352 10.138L24.835 10.4176L25.0011 10.3793Z" fill="#00CCFF"/>
<path d="M25.1578 10.2958L26.0409 10.0227L25.8923 10.1015L25.001 10.3791L25.1578 10.2958Z" fill="#00D8FF"/>
<path d="M25.3012 10.1695L26.177 9.90353L26.0408 10.0228L25.1577 10.2958L25.3012 10.1695Z" fill="#02E8F4"/>
<path d="M25.4277 10.0033L26.2973 9.7468L26.1771 9.90363L25.3013 10.1696L25.4277 10.0033Z" fill="#13FCE4"/>
<path d="M25.5338 9.80135L26.3985 9.55637L26.2973 9.74694L25.4277 10.0035L25.5338 9.80135Z" fill="#23FFD4"/>
<path d="M25.6166 9.56814L26.4777 9.33656L26.3983 9.55613L25.5337 9.80111L25.6166 9.56814Z" fill="#39FFBE"/>
<path d="M25.6742 9.31037L26.5332 9.09372L26.4778 9.33672L25.6167 9.5683L25.6742 9.31037Z" fill="#50FFA7"/>
<path d="M25.7047 9.03411L26.5633 8.83353L26.5334 9.09375L25.6743 9.3104L25.7047 9.03411Z" fill="#66FF90"/>
<path d="M25.707 8.74659L26.5667 8.56281L26.5631 8.83354L25.7046 9.03412L25.707 8.74659Z" fill="#7DFF7A"/>
<path d="M25.6812 8.4553L26.5435 8.2886L26.5665 8.56278L25.7069 8.74656L25.6812 8.4553Z" fill="#97FF60"/>
<path d="M25.6279 8.16777L26.4945 8.01801L26.5436 8.28841L25.6813 8.4551L25.6279 8.16777Z" fill="#ADFF49"/>
<path d="M25.5483 7.89209L26.4205 7.75862L26.4945 8.01811L25.628 8.16787L25.5483 7.89209Z" fill="#C4FF33"/>
<path d="M25.4443 7.63519L26.3234 7.51695L26.4204 7.75859L25.5483 7.89206L25.4443 7.63519Z" fill="#D7FF1F"/>
<path d="M24.499 6.81998L25.4343 6.75044L25.5997 6.77705L24.6743 6.84832L24.499 6.81998Z" fill="#FFD700"/>
<path d="M25.3188 7.40429L26.2059 7.29979L26.3234 7.51713L25.4444 7.63536L25.3188 7.40429Z" fill="#EBFF0C"/>
<path d="M24.6743 6.8483L25.5997 6.77702L25.7639 6.84766L24.8485 6.92345L24.6743 6.8483Z" fill="#FFD700"/>
<path d="M25.1748 7.20519L26.0707 7.11255L26.2057 7.29975L25.3186 7.40425L25.1748 7.20519Z" fill="#F8F500"/>
<path d="M24.8481 6.92344L25.7635 6.84764L25.9221 6.96047L25.0166 7.04346L24.8481 6.92344Z" fill="#FFDB00"/>
<path d="M25.0171 7.04336L25.9226 6.96037L26.0713 7.11242L25.1753 7.20506L25.0171 7.04336Z" fill="#FFE600"/>
<path d="M22.1562 11.1899L22.7438 10.8658L22.555 10.7027L21.9492 11.011L22.1562 11.1899Z" fill="#00A0FF"/>
<path d="M21.9493 11.011L22.5551 10.7027L22.3797 10.4949L21.7568 10.7832L21.9493 11.011Z" fill="#00B0FF"/>
<path d="M22.3726 11.3153L22.9413 10.98L22.7438 10.8657L22.1562 11.1897L22.3726 11.3153Z" fill="#0094FF"/>
<path d="M21.7567 10.783L22.3795 10.4946L22.222 10.2473L21.5835 10.512L21.7567 10.783Z" fill="#00C4FF"/>
<path d="M22.5928 11.3844L23.1426 11.0428L22.9413 10.9801L22.3726 11.3154L22.5928 11.3844Z" fill="#0094FF"/>
<path d="M21.5836 10.5122L22.222 10.2476L22.0863 9.96686L21.4341 10.2046L21.5836 10.5122Z" fill="#00E0FB"/>
<path d="M22.8115 11.3951L23.3425 11.0522L23.1425 11.0429L22.5928 11.3845L22.8115 11.3951Z" fill="#0094FF"/>
<path d="M21.4341 10.2045L22.0862 9.96669L21.9757 9.65956L21.312 9.86792L21.4341 10.2045Z" fill="#13FCE4"/>
<path d="M23.0233 11.3468L23.5362 11.0078L23.3425 11.0522L22.8115 11.395L23.0233 11.3468Z" fill="#009CFF"/>
<path d="M21.3121 9.8681L21.9758 9.65974L21.8934 9.33383L21.2207 9.51091L21.3121 9.8681Z" fill="#30FFC7"/>
<path d="M23.2228 11.2407L23.7189 10.9106L23.5364 11.0078L23.0234 11.3468L23.2228 11.2407Z" fill="#00ACFF"/>
<path d="M21.2204 9.51063L21.8931 9.33355L21.841 8.99701L21.1621 9.14173L21.2204 9.51063Z" fill="#49FFAD"/>
<path d="M21.1623 9.14191L21.8412 8.99719L21.8208 8.65854L21.1387 8.77059L21.1623 9.14191Z" fill="#6AFF8D"/>
<path d="M21.1387 8.77056L21.8208 8.65851L21.8329 8.32639L21.1506 8.4063L21.1387 8.77056Z" fill="#87FF70"/>
<path d="M21.1504 8.40617L21.8328 8.32625L21.8772 8.00922L21.1978 8.05834L21.1504 8.40617Z" fill="#A7FF50"/>
<path d="M21.1978 8.05854L21.8772 8.00942L21.953 7.71576L21.2795 7.73624L21.1978 8.05854Z" fill="#C4FF33"/>
<path d="M21.2798 7.73604L21.9533 7.71555L22.0587 7.45302L21.3941 7.4478L21.2798 7.73604Z" fill="#DEFF19"/>
<path d="M21.394 7.44792L22.0586 7.45315L22.191 7.22879L21.5381 7.20151L21.394 7.44792Z" fill="#F8F500"/>
<path d="M21.5381 7.20142L22.191 7.22871L22.3471 7.04864L21.7083 7.00357L21.5381 7.20142Z" fill="#FFDB00"/>
<path d="M21.708 7.00377L22.3468 7.04884L22.5226 6.91804L21.9 6.85999L21.708 7.00377Z" fill="#FFC800"/>
<path d="M21.9004 6.85985L22.523 6.9179L22.7138 6.84007L22.1091 6.77425L21.9004 6.85985Z" fill="#FFB900"/>
<path d="M22.1089 6.77432L22.7136 6.84015L22.9145 6.81758L22.3289 6.74944L22.1089 6.77432Z" fill="#FFAE00"/>
<path d="M21.7214 11.5153L22.1567 11.1899L21.9497 11.011L21.4941 11.3188L21.7214 11.5153Z" fill="#008CFF"/>
<path d="M21.4942 11.3188L21.9497 11.0109L21.7573 10.7832L21.2827 11.0688L21.4942 11.3188Z" fill="#009CFF"/>
<path d="M21.9585 11.6531L22.3728 11.3153L22.1565 11.1897L21.7212 11.5151L21.9585 11.6531Z" fill="#0080FF"/>
<path d="M21.2823 11.0688L21.7568 10.7832L21.5836 10.5122L21.0918 10.7714L21.2823 11.0688Z" fill="#00B4FF"/>
<path d="M22.2 11.7291L22.5931 11.3842L22.3728 11.3152L21.9585 11.653L22.2 11.7291Z" fill="#007CFF"/>
<path d="M21.0919 10.7714L21.5838 10.5122L21.4343 10.2046L20.9272 10.4339L21.0919 10.7714Z" fill="#00D0FF"/>
<path d="M22.44 11.7412L22.812 11.3949L22.5932 11.3843L22.2002 11.7292L22.44 11.7412Z" fill="#007CFF"/>
<path d="M20.9272 10.4339L21.4342 10.2046L21.3122 9.86804L20.7925 10.0646L20.9272 10.4339Z" fill="#09F0EE"/>
<path d="M22.672 11.6886L23.0237 11.3466L22.8119 11.3948L22.4399 11.7411L22.672 11.6886Z" fill="#0088FF"/>
<path d="M20.7927 10.0646L21.3124 9.86807L21.221 9.51089L20.6914 9.67257L20.7927 10.0646Z" fill="#26FFD1"/>
<path d="M22.8903 11.5728L23.223 11.2406L23.0236 11.3466L22.6719 11.6887L22.8903 11.5728Z" fill="#0098FF"/>
<path d="M20.6915 9.67246L21.2211 9.51078L21.1628 9.14188L20.6265 9.26747L20.6915 9.67246Z" fill="#46FFB1"/>
<path d="M23.0894 11.3959L23.4047 11.079L23.2228 11.2405L22.8901 11.5727L23.0894 11.3959Z" fill="#00ACFF"/>
<path d="M20.6262 9.2676L21.1625 9.14201L21.1389 8.77071L20.5991 8.85986L20.6262 9.2676Z" fill="#66FF90"/>
<path d="M20.5991 8.85985L21.1389 8.7707L21.1508 8.40645L20.611 8.45971L20.5991 8.85985Z" fill="#8AFF6D"/>
<path d="M20.6108 8.45962L21.1507 8.40636L21.198 8.05852L20.6616 8.07737L20.6108 8.45962Z" fill="#AAFF4D"/>
<path d="M20.6616 8.07729L21.198 8.05845L21.2798 7.73615L20.7502 7.72296L20.6616 8.07729Z" fill="#CAFF2C"/>
<path d="M20.7505 7.72303L21.28 7.73622L21.3943 7.44798L20.875 7.40601L20.7505 7.72303Z" fill="#E7FF0F"/>
<path d="M20.875 7.40601L21.3943 7.44798L21.5384 7.20157L21.0323 7.13486L20.875 7.40601Z" fill="#FFE600"/>
<path d="M21.0322 7.13466L21.5383 7.20137L21.7085 7.00351L21.2184 6.91684L21.0322 7.13466Z" fill="#FFCC00"/>
<path d="M21.2188 6.91706L21.7089 7.00374L21.9008 6.85996L21.4291 6.75868L21.2188 6.91706Z" fill="#FFB600"/>
<path d="M21.4287 6.7587L21.9005 6.85997L22.1092 6.77437L21.6577 6.66432L21.4287 6.7587Z" fill="#FFA300"/>
<path d="M21.6577 6.66421L22.1093 6.77426L22.3293 6.74937L21.8993 6.63667L21.6577 6.66421Z" fill="#FF9800"/>
<path d="M21.8994 6.63676L22.3294 6.74946L22.5549 6.78619L22.1472 6.67708L21.8994 6.63676Z" fill="#FF9400"/>
<path d="M22.147 6.67693L22.5547 6.78604L22.7795 6.88355L22.3942 6.7842L22.147 6.67693Z" fill="#FF9400"/>
<path d="M21.4326 11.8285L21.7211 11.5152L21.4939 11.3187L21.1836 11.6132L21.4326 11.8285Z" fill="#0074FF"/>
<path d="M21.184 11.6132L21.4943 11.3187L21.2828 11.0687L20.9521 11.3394L21.184 11.6132Z" fill="#0084FF"/>
<path d="M21.6926 11.9799L21.9585 11.6532L21.7212 11.5152L21.4326 11.8286L21.6926 11.9799Z" fill="#0068FF"/>
<path d="M20.9521 11.3393L21.2828 11.0686L21.0923 10.7712L20.7432 11.0135L20.9521 11.3393Z" fill="#00A0FF"/>
<path d="M21.9569 12.0635L22.1999 11.7291L21.9583 11.6531L21.6924 11.9798L21.9569 12.0635Z" fill="#0064FF"/>
<path d="M20.7429 11.0136L21.0921 10.7713L20.9274 10.4337L20.562 10.6439L20.7429 11.0136Z" fill="#00C0FF"/>
<path d="M22.2196 12.077L22.4398 11.7411L22.2 11.7291L21.957 12.0634L22.2196 12.077Z" fill="#0064FF"/>
<path d="M20.5623 10.644L20.9277 10.4338L20.793 10.0645L20.4141 10.2395L20.5623 10.644Z" fill="#00E4F8"/>
<path d="M22.4737 12.0201L22.672 11.6887L22.44 11.7412L22.2197 12.0771L22.4737 12.0201Z" fill="#0070FF"/>
<path d="M20.4139 10.2394L20.7928 10.0645L20.6916 9.67242L20.3022 9.80994L20.4139 10.2394Z" fill="#1FFFD7"/>
<path d="M22.7127 11.8938L22.8903 11.573L22.6719 11.6889L22.4736 12.0203L22.7127 11.8938Z" fill="#0080FF"/>
<path d="M20.3022 9.81001L20.6915 9.67249L20.6264 9.26752L20.23 9.36622L20.3022 9.81001Z" fill="#40FFB7"/>
<path d="M22.931 11.7005L23.0897 11.396L22.8905 11.5728L22.7129 11.8937L22.931 11.7005Z" fill="#0098FF"/>
<path d="M20.2298 9.36616L20.6263 9.26746L20.5992 8.85971L20.1992 8.91918L20.2298 9.36616Z" fill="#66FF90"/>
<path d="M23.1226 11.445L23.2648 11.1625L23.0899 11.396L22.9312 11.7005L23.1226 11.445Z" fill="#00B4FF"/>
<path d="M20.1992 8.9191L20.5992 8.85963L20.6111 8.45949L20.2113 8.48029L20.1992 8.9191Z" fill="#8AFF6D"/>
<path d="M20.2114 8.48043L20.6112 8.45964L20.662 8.0774L20.2661 8.06108L20.2114 8.48043Z" fill="#ADFF49"/>
<path d="M20.2661 8.06113L20.662 8.07746L20.7506 7.72311L20.3624 7.6722L20.2661 8.06113Z" fill="#D1FF26"/>
<path d="M20.3623 7.67217L20.7506 7.72308L20.875 7.40605L20.4979 7.32401L20.3623 7.67217Z" fill="#F4F802"/>
<path d="M20.498 7.32394L20.8751 7.40599L21.0324 7.13484L20.6698 7.02602L20.498 7.32394Z" fill="#FFD700"/>
<path d="M20.6699 7.02603L21.0325 7.13485L21.2187 6.91703L20.8735 6.78656L20.6699 7.02603Z" fill="#FFB900"/>
<path d="M20.8735 6.78645L21.2187 6.91692L21.429 6.75854L21.1038 6.61221L20.8735 6.78645Z" fill="#FF9F00"/>
<path d="M21.1035 6.61221L21.4287 6.75853L21.6577 6.66415L21.3545 6.50826L21.1035 6.61221Z" fill="#FF8D00"/>
<path d="M21.3545 6.50845L21.6577 6.66435L21.8993 6.63681L21.6195 6.47797L21.3545 6.50845Z" fill="#FF8200"/>
<path d="M21.6196 6.47783L21.8994 6.63668L22.1472 6.67699L21.8916 6.52195L21.6196 6.47783Z" fill="#FF7A00"/>
<path d="M21.8916 6.52203L22.1472 6.67707L22.3945 6.78435L22.1631 6.63981L21.8916 6.52203Z" fill="#FF7E00"/>
<path d="M23.2647 11.1624L23.565 10.8659L23.4052 11.0791L23.0898 11.396L23.2647 11.1624Z" fill="#00C8FF"/>
<path d="M21.2182 12.5414L21.2119 12.3574L20.9174 12.1027L20.9014 12.2674L21.2182 12.5414Z" fill="#0028FF"/>
<path d="M20.9017 12.2675L20.9177 12.1028L20.6434 11.7791L20.6064 11.9192L20.9017 12.2675Z" fill="#0040FF"/>
<path d="M21.549 12.7348L21.5193 12.5369L21.2119 12.3576L21.2182 12.5416L21.549 12.7348Z" fill="#0018FF"/>
<path d="M20.6062 11.9193L20.6432 11.7791L20.3957 11.3942L20.3398 11.5051L20.6062 11.9193Z" fill="#0060FF"/>
<path d="M21.8858 12.842L21.8323 12.6363L21.5195 12.5368L21.5492 12.7347L21.8858 12.842Z" fill="#0010FF"/>
<path d="M20.3403 11.5052L20.3961 11.3942L20.1816 10.9573L20.1094 11.0351L20.3403 11.5052Z" fill="#0088FF"/>
<path d="M22.2199 12.8607L22.1425 12.6535L21.832 12.6365L21.8856 12.8421L22.2199 12.8607Z" fill="#0014FF"/>
<path d="M20.1091 11.035L20.1814 10.9572L20.0053 10.4789L19.9194 10.5204L20.1091 11.035Z" fill="#00B4FF"/>
<path d="M22.5436 12.7897L22.4431 12.5871L22.1426 12.6534L22.2199 12.8606L22.5436 12.7897Z" fill="#0020FF"/>
<path d="M19.9194 10.5203L20.0052 10.4789L19.8721 9.97092L19.7759 9.97353L19.9194 10.5203Z" fill="#02E8F4"/>
<path d="M22.8488 12.6301L22.7264 12.4384L22.4434 12.5869L22.5438 12.7895L22.8488 12.6301Z" fill="#0038FF"/>
<path d="M19.7756 9.97358L19.8718 9.97096L19.7853 9.44572L19.6821 9.40802L19.7756 9.97358Z" fill="#30FFC7"/>
<path d="M23.1271 12.386L22.9845 12.2112L22.7261 12.4386L22.8485 12.6304L23.1271 12.386Z" fill="#0054FF"/>
<path d="M19.6823 9.40806L19.7854 9.44576L19.7479 8.91633L19.6416 8.83775L19.6823 9.40806Z" fill="#60FF97"/>
<path d="M23.3719 12.0617L23.2114 11.9097L22.9844 12.211L23.127 12.3857L23.3719 12.0617Z" fill="#007CFF"/>
<path d="M19.6416 8.83762L19.7479 8.91619L19.7609 8.39598L19.6552 8.27698L19.6416 8.83762Z" fill="#8DFF6A"/>
<path d="M23.5768 11.6658L23.401 11.5417L23.2114 11.9099L23.372 12.0619L23.5768 11.6658Z" fill="#00A8FF"/>
<path d="M19.6553 8.27701L19.7609 8.39601L19.8244 7.89837L19.7233 7.74042L19.6553 8.27701Z" fill="#BEFF39"/>
<path d="M23.7361 11.2069L23.5484 11.1155L23.4014 11.5415L23.5771 11.6656L23.7361 11.2069Z" fill="#00D8FF"/>
<path d="M19.7231 7.74066L19.8242 7.89861L19.9371 7.4366L19.8444 7.2422L19.7231 7.74066Z" fill="#EBFF0C"/>
<path d="M23.8447 10.6969L23.6486 10.642L23.5483 11.1155L23.736 11.207L23.8447 10.6969Z" fill="#23FFD4"/>
<path d="M19.8447 7.24218L19.9374 7.43657L20.0971 7.02256L20.0166 6.79523L19.8447 7.24218Z" fill="#FFD300"/>
<path d="M23.8995 10.1481L23.6988 10.1328L23.6484 10.6419L23.8446 10.6968L23.8995 10.1481Z" fill="#50FFA7"/>
<path d="M20.0166 6.79513L20.0971 7.02246L20.2999 6.66772L20.2351 6.41191L20.0166 6.79513Z" fill="#FFA700"/>
<path d="M23.899 9.57509L23.6978 9.60136L23.699 10.1329L23.8997 10.1482L23.899 9.57509Z" fill="#80FF77"/>
<path d="M20.2349 6.41196L20.2997 6.66776L20.5407 6.38224L20.4945 6.10327L20.2349 6.41196Z" fill="#FF8200"/>
<path d="M23.8421 8.9928L23.6445 9.06157L23.6978 9.60158L23.899 9.57531L23.8421 8.9928Z" fill="#B1FF46"/>
<path d="M20.4946 6.10332L20.5408 6.38229L20.8137 6.17417L20.7889 5.87808L20.4946 6.10332Z" fill="#FF6000"/>
<path d="M23.7299 8.41629L23.54 8.5273L23.6443 9.06142L23.8419 8.99265L23.7299 8.41629Z" fill="#DEFF19"/>
<path d="M20.7886 5.87792L20.8134 6.17401L21.1112 6.04946L21.1098 5.74286L20.7886 5.87792Z" fill="#FF4A00"/>
<path d="M23.5655 7.86174L23.3872 8.01354L23.54 8.52731L23.7299 8.4163L23.5655 7.86174Z" fill="#FFE200"/>
<path d="M21.1099 5.74297L21.1112 6.04957L21.426 6.01251L21.4495 5.70241L21.1099 5.74297Z" fill="#FF3800"/>
<path d="M23.3529 7.34418L23.1899 7.53414L23.3875 8.0135L23.5657 7.86169L23.3529 7.34418Z" fill="#FFB200"/>
<path d="M21.4498 5.70222L21.4263 6.01233L21.7495 6.0642L21.7987 5.75777L21.4498 5.70222Z" fill="#FF3000"/>
<path d="M23.097 6.87807L22.9526 7.10245L23.1897 7.53418L23.3526 7.34421L23.097 6.87807Z" fill="#FF8D00"/>
<path d="M21.7986 5.758L21.7495 6.06443L22.0725 6.20418L22.1472 5.90853L21.7986 5.758Z" fill="#FF3400"/>
<path d="M22.8057 6.47639L22.6826 6.73041L22.9529 7.10256L23.0972 6.87818L22.8057 6.47639Z" fill="#FF6800"/>
<path d="M22.1475 5.90855L22.0728 6.2042L22.3866 6.42823L22.4862 6.15022L22.1475 5.90855Z" fill="#FF3B00"/>
<path d="M22.4859 6.15013L22.3862 6.42814L22.6823 6.73038L22.8054 6.47636L22.4859 6.15013Z" fill="#FF4E00"/>
<path d="M21.2124 12.3576L21.2725 12.1148L21.0009 11.8799L20.918 12.103L21.2124 12.3576Z" fill="#0040FF"/>
<path d="M20.9174 12.1027L21.0004 11.8797L20.7474 11.581L20.6431 11.779L20.9174 12.1027Z" fill="#0058FF"/>
<path d="M21.5193 12.5368L21.5555 12.2799L21.272 12.1146L21.2119 12.3574L21.5193 12.5368Z" fill="#0034FF"/>
<path d="M20.6435 11.7791L20.7478 11.5811L20.5196 11.2259L20.396 11.3941L20.6435 11.7791Z" fill="#0074FF"/>
<path d="M21.8323 12.6365L21.8443 12.3716L21.5558 12.2801L21.5195 12.537L21.8323 12.6365Z" fill="#002CFF"/>
<path d="M20.3957 11.3942L20.5193 11.2259L20.3216 10.8228L20.1812 10.9573L20.3957 11.3942Z" fill="#009CFF"/>
<path d="M22.1425 12.6532L22.1303 12.3867L21.844 12.3714L21.832 12.6363L22.1425 12.6532Z" fill="#0030FF"/>
<path d="M20.1815 10.9572L20.3219 10.8228L20.1598 10.3816L20.0054 10.479L20.1815 10.9572Z" fill="#00C4FF"/>
<path d="M22.4431 12.5871L22.4074 12.3252L22.1304 12.3868L22.1426 12.6534L22.4431 12.5871Z" fill="#003CFF"/>
<path d="M20.0052 10.479L20.1596 10.3816L20.0372 9.91309L19.8721 9.971L20.0052 10.479Z" fill="#0CF4EB"/>
<path d="M22.7264 12.4385L22.6686 12.1877L22.4077 12.3252L22.4434 12.587L22.7264 12.4385Z" fill="#0050FF"/>
<path d="M19.8722 9.97097L20.0373 9.91306L19.9579 9.42879L19.7856 9.44572L19.8722 9.97097Z" fill="#36FFC1"/>
<path d="M22.9847 12.2111L22.9065 11.9775L22.6685 12.1878L22.7263 12.4386L22.9847 12.2111Z" fill="#006CFF"/>
<path d="M19.7855 9.4456L19.9578 9.42867L19.9237 8.94077L19.748 8.9162L19.7855 9.4456Z" fill="#60FF97"/>
<path d="M23.2115 11.9097L23.1152 11.6992L22.9062 11.9775L22.9845 12.211L23.2115 11.9097Z" fill="#0090FF"/>
<path d="M19.748 8.9162L19.9237 8.94077L19.9361 8.46156L19.761 8.396L19.748 8.9162Z" fill="#8DFF6A"/>
<path d="M23.4011 11.5416L23.2897 11.3595L23.1152 11.6992L23.2115 11.9097L23.4011 11.5416Z" fill="#00B8FF"/>
<path d="M19.7612 8.39605L19.9363 8.46162L19.9953 8.00342L19.8247 7.89841L19.7612 8.39605Z" fill="#B7FF40"/>
<path d="M23.5485 11.1156L23.4251 10.9666L23.29 11.3596L23.4015 11.5417L23.5485 11.1156Z" fill="#02E8F4"/>
<path d="M19.8247 7.89844L19.9953 8.00345L20.0997 7.57831L19.9376 7.43645L19.8247 7.89844Z" fill="#E1FF16"/>
<path d="M23.6484 10.642L23.5167 10.5301L23.4248 10.9666L23.5482 11.1155L23.6484 10.642Z" fill="#29FFCE"/>
<path d="M19.937 7.43636L20.0991 7.57822L20.2466 7.19743L20.0967 7.02232L19.937 7.43636Z" fill="#FFDE00"/>
<path d="M23.6991 10.1328L23.5631 10.061L23.5171 10.53L23.6487 10.6419L23.6991 10.1328Z" fill="#53FFA4"/>
<path d="M20.0972 7.02255L20.2471 7.19766L20.4342 6.8716L20.3 6.6678L20.0972 7.02255Z" fill="#FFB600"/>
<path d="M23.6978 9.60137L23.5615 9.57175L23.563 10.0611L23.699 10.1329L23.6978 9.60137Z" fill="#80FF77"/>
<path d="M20.2998 6.66768L20.434 6.87148L20.656 6.60925L20.5408 6.38216L20.2998 6.66768Z" fill="#FF9400"/>
<path d="M23.6446 9.06155L23.5122 9.07496L23.5615 9.57194L23.6978 9.60157L23.6446 9.06155Z" fill="#ADFF49"/>
<path d="M20.541 6.38217L20.6563 6.60926L20.9077 6.4183L20.8139 6.17406L20.541 6.38217Z" fill="#FF7700"/>
<path d="M23.5403 8.52725L23.416 8.58342L23.5122 9.07477L23.6446 9.06136L23.5403 8.52725Z" fill="#D7FF1F"/>
<path d="M20.8135 6.1741L20.9072 6.41835L21.1813 6.30426L21.1113 6.04956L20.8135 6.1741Z" fill="#FF6000"/>
<path d="M23.3872 8.01344L23.2749 8.11089L23.4157 8.58337L23.54 8.5272L23.3872 8.01344Z" fill="#FEED00"/>
<path d="M21.1118 6.04956L21.1819 6.30426L21.4715 6.27058L21.4266 6.0125L21.1118 6.04956Z" fill="#FF5200"/>
<path d="M23.1899 7.53432L23.0933 7.67038L23.2751 8.11113L23.3874 8.01368L23.1899 7.53432Z" fill="#FFC400"/>
<path d="M21.4263 6.01257L21.4712 6.27065L21.7685 6.31868L21.7495 6.06445L21.4263 6.01257Z" fill="#FF4A00"/>
<path d="M22.9527 7.10258L22.875 7.27348L23.0931 7.67039L23.1897 7.53433L22.9527 7.10258Z" fill="#FF9F00"/>
<path d="M21.7495 6.0643L21.7685 6.31853L22.0656 6.44724L22.0725 6.20405L21.7495 6.0643Z" fill="#FF4A00"/>
<path d="M22.6829 6.73039L22.627 6.93131L22.8755 7.27343L22.9532 7.10254L22.6829 6.73039Z" fill="#FF7E00"/>
<path d="M22.0729 6.20416L22.0659 6.44735L22.3545 6.65344L22.3867 6.42819L22.0729 6.20416Z" fill="#FF5500"/>
<path d="M22.3867 6.42812L22.3545 6.65337L22.6268 6.93128L22.6828 6.73035L22.3867 6.42812Z" fill="#FF6800"/>
<path d="M21.2726 12.1146L21.4328 11.8285L21.1839 11.6132L21.001 11.8797L21.2726 12.1146Z" fill="#005CFF"/>
<path d="M21.0011 11.8797L21.1839 11.6131L20.9521 11.3393L20.748 11.581L21.0011 11.8797Z" fill="#0070FF"/>
<path d="M21.556 12.2799L21.6926 11.9798L21.4327 11.8285L21.2725 12.1146L21.556 12.2799Z" fill="#004CFF"/>
<path d="M20.7482 11.5812L20.9522 11.3395L20.7433 11.0137L20.52 11.226L20.7482 11.5812Z" fill="#008CFF"/>
<path d="M21.8446 12.3715L21.9573 12.0635L21.6928 11.9799L21.5562 12.28L21.8446 12.3715Z" fill="#0048FF"/>
<path d="M20.5194 11.226L20.7427 11.0138L20.5618 10.6441L20.3218 10.8229L20.5194 11.226Z" fill="#00ACFF"/>
<path d="M22.1306 12.3868L22.2195 12.0772L21.9569 12.0636L21.8442 12.3715L22.1306 12.3868Z" fill="#004CFF"/>
<path d="M20.3218 10.8229L20.5618 10.6441L20.4136 10.2396L20.1597 10.3817L20.3218 10.8229Z" fill="#00D4FF"/>
<path d="M22.4079 12.3253L22.4738 12.0203L22.2198 12.0773L22.1309 12.3869L22.4079 12.3253Z" fill="#0054FF"/>
<path d="M20.16 10.3816L20.414 10.2395L20.3022 9.81001L20.0376 9.91312L20.16 10.3816Z" fill="#16FFE1"/>
<path d="M22.6686 12.1877L22.7127 11.8937L22.4736 12.0202L22.4077 12.3251L22.6686 12.1877Z" fill="#0068FF"/>
<path d="M20.0374 9.91319L20.3021 9.81008L20.2299 9.3663L19.958 9.42894L20.0374 9.91319Z" fill="#3CFFBA"/>
<path d="M22.907 11.9776L22.9311 11.7007L22.713 11.8938L22.6689 12.1879L22.907 11.9776Z" fill="#0080FF"/>
<path d="M19.9579 9.42886L20.2298 9.36622L20.1992 8.91924L19.9238 8.94093L19.9579 9.42886Z" fill="#63FF94"/>
<path d="M23.1157 11.6993L23.1223 11.4452L22.9309 11.7006L22.9067 11.9776L23.1157 11.6993Z" fill="#00A0FF"/>
<path d="M19.9243 8.94077L20.1997 8.91908L20.2117 8.48027L19.9367 8.46156L19.9243 8.94077Z" fill="#8DFF6A"/>
<path d="M23.2901 11.3595L23.282 11.1334L23.1223 11.445L23.1157 11.6992L23.2901 11.3595Z" fill="#00C8FF"/>
<path d="M19.9365 8.46167L20.2115 8.48037L20.2662 8.06101L19.9955 8.00348L19.9365 8.46167Z" fill="#B4FF43"/>
<path d="M23.4254 10.9665L23.4059 10.7731L23.2822 11.1333L23.2903 11.3594L23.4254 10.9665Z" fill="#0CF4EB"/>
<path d="M19.9951 8.00334L20.2658 8.06087L20.3621 7.67194L20.0995 7.57819L19.9951 8.00334Z" fill="#DBFF1C"/>
<path d="M23.5173 10.5301L23.4898 10.3733L23.4058 10.7732L23.4253 10.9666L23.5173 10.5301Z" fill="#30FFC7"/>
<path d="M20.0996 7.57826L20.3622 7.67201L20.4978 7.32385L20.2471 7.19746L20.0996 7.57826Z" fill="#FEED00"/>
<path d="M23.5632 10.0611L23.5318 9.94382L23.4897 10.3732L23.5172 10.5301L23.5632 10.0611Z" fill="#56FFA0"/>
<path d="M20.2476 7.19768L20.4982 7.32406L20.67 7.02613L20.4347 6.87163L20.2476 7.19768Z" fill="#FFC800"/>
<path d="M23.5674 9.5719L23.5303 9.49606L23.532 9.94395L23.5692 10.0613L23.5674 9.5719Z" fill="#80FF77"/>
<path d="M20.4346 6.87141L20.6699 7.02591L20.8735 6.78644L20.6566 6.60918L20.4346 6.87141Z" fill="#FFA700"/>
<path d="M23.5126 9.07486L23.4854 9.04137L23.5305 9.49599L23.5619 9.57183L23.5126 9.07486Z" fill="#A7FF50"/>
<path d="M20.6562 6.60932L20.8732 6.78658L21.1035 6.61234L20.9076 6.41835L20.6562 6.60932Z" fill="#FF8D00"/>
<path d="M23.416 8.5836L23.397 8.59215L23.485 9.04145L23.5122 9.07495L23.416 8.5836Z" fill="#CEFF29"/>
<path d="M20.9077 6.4183L21.1035 6.6123L21.3545 6.50834L21.1819 6.30421L20.9077 6.4183Z" fill="#FF7700"/>
<path d="M23.275 8.11113L23.2681 8.16026L23.3968 8.59216L23.4158 8.58361L23.275 8.11113Z" fill="#F4F802"/>
<path d="M21.1816 6.30416L21.3543 6.50829L21.6193 6.4778L21.4713 6.27048L21.1816 6.30416Z" fill="#FF6C00"/>
<path d="M23.0933 7.67015L23.1019 7.75723L23.2681 8.16001L23.2751 8.11088L23.0933 7.67015Z" fill="#FFD300"/>
<path d="M21.4717 6.27065L21.6197 6.47797L21.8917 6.52209L21.769 6.31867L21.4717 6.27065Z" fill="#FF6400"/>
<path d="M22.8755 7.27339L22.9029 7.39471L23.1023 7.75738L23.0936 7.6703L22.8755 7.27339Z" fill="#FFB200"/>
<path d="M21.769 6.31862L21.8917 6.52204L22.1632 6.63982L22.0661 6.44733L21.769 6.31862Z" fill="#FF6400"/>
<path d="M22.627 6.93124L22.6758 7.08209L22.9029 7.39468L22.8755 7.27336L22.627 6.93124Z" fill="#FF9400"/>
<path d="M22.0659 6.4472L22.163 6.63969L22.4268 6.82809L22.3545 6.65329L22.0659 6.4472Z" fill="#FF6C00"/>
<path d="M22.3545 6.65324L22.4268 6.82804L22.6756 7.08199L22.6268 6.93115L22.3545 6.65324Z" fill="#FF7E00"/>
<path d="M21.2568 12.6535L21.2187 12.5417L20.9019 12.2676L20.9187 12.3611L21.2568 12.6535Z" fill="#000CFF"/>
<path d="M20.9185 12.3611L20.9016 12.2676L20.6064 11.9193L20.6035 11.9895L20.9185 12.3611Z" fill="#0028FF"/>
<path d="M21.6098 12.8596L21.5495 12.7347L21.2188 12.5416L21.2569 12.6534L21.6098 12.8596Z" fill="#0000FF"/>
<path d="M20.6036 11.9895L20.6065 11.9193L20.3402 11.5052L20.3193 11.5476L20.6036 11.9895Z" fill="#004CFF"/>
<path d="M21.969 12.9743L21.8859 12.842L21.5493 12.7347L21.6097 12.8596L21.969 12.9743Z" fill="#0000FF"/>
<path d="M20.3193 11.5473L20.3401 11.5049L20.1091 11.0349L20.0728 11.0457L20.3193 11.5473Z" fill="#0074FF"/>
<path d="M22.3257 12.9942L22.22 12.8605L21.8857 12.8419L21.9688 12.9742L22.3257 12.9942Z" fill="#0000FF"/>
<path d="M20.0727 11.046L20.109 11.0351L19.9194 10.5205L19.8701 10.4967L20.0727 11.046Z" fill="#00A8FF"/>
<path d="M22.6716 12.9188L22.5439 12.7896L22.2202 12.8606L22.3259 12.9943L22.6716 12.9188Z" fill="#0008FF"/>
<path d="M19.8701 10.4966L19.9194 10.5204L19.7759 9.97364L19.7168 9.91281L19.8701 10.4966Z" fill="#00E0FB"/>
<path d="M22.9977 12.7489L22.849 12.6301L22.5439 12.7895L22.6717 12.9187L22.9977 12.7489Z" fill="#0020FF"/>
<path d="M19.7167 9.91289L19.7757 9.97371L19.6823 9.40815L19.6167 9.30884L19.7167 9.91289Z" fill="#2CFFCA"/>
<path d="M23.2957 12.4885L23.1277 12.386L22.8491 12.6304L22.9978 12.7492L23.2957 12.4885Z" fill="#0040FF"/>
<path d="M19.6169 9.30863L19.6824 9.40795L19.6418 8.83766L19.5732 8.69926L19.6169 9.30863Z" fill="#5DFF9A"/>
<path d="M23.5576 12.1426L23.3724 12.0618L23.1274 12.3858L23.2955 12.4883L23.5576 12.1426Z" fill="#0068FF"/>
<path d="M19.5732 8.69947L19.6418 8.83786L19.6554 8.27722L19.5876 8.10013L19.5732 8.69947Z" fill="#90FF66"/>
<path d="M23.7767 11.7199L23.5769 11.6658L23.3721 12.0619L23.5573 12.1427L23.7767 11.7199Z" fill="#0098FF"/>
<path d="M19.5874 8.10014L19.6552 8.27723L19.7233 7.74066L19.6599 7.52623L19.5874 8.10014Z" fill="#C1FF36"/>
<path d="M23.9476 11.2298L23.7362 11.2069L23.5771 11.6656L23.777 11.7197L23.9476 11.2298Z" fill="#00CCFF"/>
<path d="M19.6602 7.52594L19.7236 7.74037L19.8449 7.24192L19.7896 6.99249L19.6602 7.52594Z" fill="#F4F802"/>
<path d="M24.0647 10.6847L23.845 10.6969L23.7363 11.207L23.9478 11.2298L24.0647 10.6847Z" fill="#1CFFDB"/>
<path d="M19.7896 6.99248L19.8449 7.24191L20.0167 6.79495L19.9731 6.51384L19.7896 6.99248Z" fill="#FFC400"/>
<path d="M24.1239 10.0981L23.8997 10.1482L23.8447 10.6968L24.0644 10.6847L24.1239 10.0981Z" fill="#4DFFAA"/>
<path d="M19.9731 6.51394L20.0168 6.79505L20.2353 6.41184L20.2066 6.10327L19.9731 6.51394Z" fill="#FF9800"/>
<path d="M24.1244 9.4852L23.8994 9.57511L23.9001 10.1482L24.1244 10.0981L24.1244 9.4852Z" fill="#80FF77"/>
<path d="M20.2065 6.1033L20.2352 6.41187L20.4949 6.10318L20.4841 5.77225L20.2065 6.1033Z" fill="#FF6F00"/>
<path d="M24.064 8.86188L23.8423 8.99252L23.8991 9.57501L24.1241 9.48509L24.064 8.86188Z" fill="#B4FF43"/>
<path d="M20.4839 5.77213L20.4947 6.10307L20.7889 5.87783L20.7986 5.53027L20.4839 5.77213Z" fill="#FF4A00"/>
<path d="M23.9445 8.24521L23.73 8.41634L23.842 8.99267L24.0636 8.86203L23.9445 8.24521Z" fill="#E4FF13"/>
<path d="M20.7987 5.53027L20.7891 5.87782L21.1103 5.74277L21.1424 5.38493L20.7987 5.53027Z" fill="#FF3000"/>
<path d="M23.7694 7.65164L23.5659 7.86187L23.7304 8.41642L23.9449 8.24529L23.7694 7.65164Z" fill="#FFD300"/>
<path d="M21.1425 5.38519L21.1104 5.74303L21.45 5.70246L21.5059 5.34106L21.1425 5.38519Z" fill="#FF2200"/>
<path d="M23.542 7.09738L23.353 7.34419L23.5659 7.86172L23.7694 7.65149L23.542 7.09738Z" fill="#FFA300"/>
<path d="M21.5061 5.34099L21.4502 5.70238L21.7991 5.75793L21.8795 5.39986L21.5061 5.34099Z" fill="#FF1A00"/>
<path d="M23.2685 6.59833L23.0972 6.8781L23.3528 7.34425L23.5418 7.09744L23.2685 6.59833Z" fill="#FF7A00"/>
<path d="M21.8792 5.39993L21.7988 5.758L22.1474 5.90855L22.2523 5.56068L21.8792 5.39993Z" fill="#FF1A00"/>
<path d="M22.9567 6.16805L22.8057 6.47618L23.0972 6.87797L23.2686 6.5982L22.9567 6.16805Z" fill="#FF5500"/>
<path d="M22.2524 5.56061L22.1475 5.90848L22.4862 6.15014L22.6149 5.81909L22.2524 5.56061Z" fill="#FF2500"/>
<path d="M22.615 5.81895L22.4863 6.15001L22.8059 6.47623L22.9569 6.1681L22.615 5.81895Z" fill="#FF3800"/>
<defs>
<clipPath id="clip0_406_420900">
<rect width="26" height="26" fill="white" transform="translate(0 3)"/>
</clipPath>
</defs>
</svg>
