<svg width="45" height="45" viewBox="0 0 45 45" fill="none" xmlns="http://www.w3.org/2000/svg">
<g filter="url(#filter0_d_470_5427)">
<path d="M22.0841 0.847999C10.9344 0.614729 0.898438 10.0171 0.898438 21.5886C0.898438 33.16 10.333 42.5317 21.9701 42.5317C33.6073 42.5317 43.0419 33.1497 43.0419 21.5886C43.0419 10.0274 33.7192 1.09457 22.0841 0.847999ZM22.1417 34.3038C15.1774 34.3038 9.5319 28.6112 9.5319 21.5886C9.5319 14.5659 15.1795 8.8733 22.1417 8.8733C29.1039 8.8733 34.7514 14.569 34.7514 21.5886C34.7514 28.6081 29.106 34.3069 22.1417 34.3069V34.3038Z" fill="#141514"/>
<path d="M33.9337 31.2764C33.9337 31.2764 32.4308 36.5035 26.3273 38.5906C21.9065 40.1069 13.9047 40.2879 6.73438 34.9913C6.73438 34.9913 13.0241 38.7338 20.185 37.503C27.3459 36.2722 33.9337 31.2764 33.9337 31.2764Z" fill="#A2CD3A"/>
<path d="M12.6406 9.5444C12.6406 9.5444 21.5784 -1.49908 35.9442 7.38052C35.9442 7.38052 31.2651 4.94346 24.9084 5.64123C18.5517 6.33899 12.6406 9.5444 12.6406 9.5444Z" fill="#A5CE39"/>
<path d="M40.3926 10.7538C40.3926 10.7538 36.045 2.54533 24.9078 0.753861C13.7706 -1.03761 5.99156 6.72373 4.38932 12.2455C4.38932 12.2455 0.347129 22.0213 8.43257 29.7069C8.43257 29.7069 13.3899 35.2318 21.7044 34.4081C21.7044 34.4081 9.04229 30.154 8.96595 17.6189C8.96595 17.6189 8.96595 9.18636 19.7978 4.93226C19.7978 4.93328 29.7134 0.903236 40.3926 10.7538Z" fill="#00422F"/>
<path d="M33.6875 18.1261C33.6875 18.1261 35.1245 24.4009 32.0988 28.5711C29.0732 32.7413 19.0885 37.3156 10.0231 30.1436C3.0243 24.6065 3.12889 15.379 5.95267 9.54116C6.75588 7.88372 7.89376 6.28357 9.05465 5.35254C9.05465 5.35254 -1.55859 12.4867 1.46913 23.5732C4.49685 34.6596 15.0651 37.1222 17.7163 37.4527C17.7163 37.4527 25.4912 38.7899 30.1556 35.4965C30.4661 35.2751 30.7555 35.0269 31.0206 34.7548C32.1177 33.6293 35.1161 30.1814 35.342 25.737C35.592 20.8916 33.6875 18.1261 33.6875 18.1261Z" fill="#A5CE39"/>
<path d="M22.6043 8.99816C22.6043 8.99816 35.8008 13.5745 35.2663 25.368C35.2663 25.368 34.8093 38.5753 19.7878 39.2465C19.7878 39.2465 10.4557 39.9934 3.03125 31.3869C3.03125 31.3869 5.75045 37.5461 13.7846 41.0298C17.0916 42.4712 20.7397 42.9963 24.331 42.5481C27.8722 42.1 32.4886 40.7863 35.9325 37.2074C35.9325 37.2074 39.1621 34.4706 40.3638 29.9004C40.3638 29.9004 43.1541 21.0893 37.0003 14.8708C35.6469 13.385 34.0693 12.1102 32.3223 11.0904C29.419 9.39615 24.7911 8.57459 22.6043 8.99816Z" fill="#00422F"/>
<path d="M10.7791 25.0671C10.7791 25.0671 9.07537 19.9434 11.6691 15.5655C14.2628 11.1875 23.7465 5.75789 33.4844 11.9436C41.003 16.7195 41.826 25.7833 39.5869 31.7818C38.9531 33.4832 37.9794 35.1581 36.9168 36.1812C36.9168 36.1812 46.1726 28.4209 42.053 17.8245C37.9334 7.2281 27.7134 5.73947 25.0434 5.66478C25.0434 5.66478 17.1106 5.21666 12.9115 9.32139C12.9115 9.32139 8.679 13.201 8.94569 18.5744C9.18623 23.3534 10.7791 25.0671 10.7791 25.0671Z" fill="#A5CE39"/>
</g>
</svg>
