<svg width="512" height="512" viewBox="0 0 512 512" fill="none" xmlns="http://www.w3.org/2000/svg">
<rect width="512" height="512" rx="256" fill="#DC2626"/>
<g clip-path="url(#clip0_2023_3074)">
<path d="M425.626 261.998C425.626 284.145 416.444 304.307 401.712 315.674C402.115 314.114 402.458 312.533 402.801 310.912V310.872C402.963 310.082 403.104 309.271 403.245 308.46C403.387 307.63 403.528 306.799 403.649 305.968C403.77 305.137 403.891 304.286 403.992 303.435C404.093 302.746 404.174 302.078 404.234 301.369C404.335 300.517 404.416 299.666 404.476 298.775C404.577 297.721 404.638 296.647 404.698 295.553C404.759 294.317 404.82 293.162 404.86 292.048C404.9 290.953 404.92 289.9 404.92 288.907V287.205C404.961 283.476 405.001 277.621 404.678 270.306C404.638 269.617 404.618 268.908 404.577 268.178C404.537 267.449 404.497 266.719 404.456 265.969C404.376 264.673 404.295 263.335 404.174 261.978C404.133 261.471 404.093 260.965 404.053 260.438C403.952 259.262 403.851 258.047 403.73 256.811C403.467 254.136 403.165 251.38 402.781 248.564C402.539 246.801 402.277 245.018 401.994 243.194C401.57 240.418 401.066 237.601 400.481 234.724C400.279 233.772 400.077 232.799 399.875 231.827C399.653 230.793 399.431 229.74 399.189 228.706C398.987 227.896 398.785 227.065 398.584 226.234C398.341 225.16 398.059 224.086 397.756 223.012C397.494 222.019 397.232 221.027 396.949 220.034C396.606 218.757 396.222 217.46 395.799 216.163C395.597 215.454 395.375 214.745 395.133 214.036C394.81 213.023 394.487 212.03 394.144 211.017C393.801 210.024 393.437 209.011 393.074 207.998C392.388 206.052 391.641 204.107 390.834 202.162C390.814 202.101 390.794 202.04 390.753 201.979C411.298 210.226 425.626 234.319 425.626 261.998Z" fill="white"/>
<path d="M123.496 201.027C122.992 202.122 122.487 203.216 122.003 204.31C121.014 206.498 120.086 208.687 119.258 210.875C118.875 211.827 118.512 212.78 118.148 213.732C118.027 214.016 117.926 214.32 117.826 214.603C117.482 215.535 117.139 216.488 116.816 217.42C116.433 218.514 116.07 219.608 115.706 220.703C114.617 223.965 113.648 227.187 112.8 230.388C112.498 231.442 112.215 232.516 111.953 233.569C111.69 234.623 111.428 235.677 111.186 236.71C110.924 237.764 110.681 238.797 110.459 239.831C110.137 241.208 109.854 242.586 109.592 243.944C109.511 244.248 109.45 244.552 109.41 244.856C109.127 246.213 108.885 247.571 108.643 248.908C108.3 250.874 107.977 252.819 107.695 254.703C106.686 261.329 106.06 267.449 105.677 272.839C105.555 274.217 105.475 275.554 105.414 276.851C105.394 276.993 105.394 277.134 105.394 277.276C105.354 277.864 105.333 278.431 105.313 278.978C105.273 279.89 105.233 280.761 105.212 281.592C105.172 282.95 105.132 284.226 105.132 285.402C105.091 286.617 105.091 287.732 105.091 288.745C105.091 289.758 105.091 290.832 105.152 291.967C105.172 292.514 105.192 293.101 105.212 293.689C105.212 294.297 105.273 294.905 105.293 295.553C105.374 297.073 105.495 298.572 105.636 300.052C105.677 300.497 105.717 300.943 105.777 301.389C105.858 302.26 105.959 303.111 106.08 303.942C106.322 305.867 106.605 307.772 106.968 309.616C107.109 310.365 107.251 311.095 107.412 311.824C107.553 312.554 107.715 313.283 107.896 313.992C94.3751 302.341 86 282.869 86 261.998C86 233.144 101.741 208.18 123.496 201.027Z" fill="white"/>
<path d="M115.144 288.708C115.104 279.243 115.838 260.288 120.989 238.745L120.988 238.744C121.508 236.634 122.042 234.519 122.629 232.396L122.63 232.392C124.112 227.016 125.868 221.569 127.956 216.108C128.808 213.902 129.692 211.711 130.631 209.55C131.597 207.352 132.606 205.184 133.663 202.981C134.229 201.864 134.74 200.844 135.295 199.787L135.298 199.781C158.777 154.886 200.099 131.957 259.074 131.957C288.654 131.957 313.392 137.779 333.295 149.12C353.161 160.44 368.441 177.39 378.95 200.058L378.953 200.064C382.655 208.01 385.49 216.181 387.703 224.216V224.217C395.179 251.598 394.97 277.087 394.89 287.112V288.845C394.87 290.692 394.811 292.673 394.674 294.973V294.983L394.673 294.995C394.575 296.802 394.439 298.583 394.264 300.299C393.721 305.452 392.834 310.223 391.573 314.779C391.532 314.913 391.493 315.046 391.459 315.161C391.418 315.302 391.383 315.419 391.35 315.527L391.307 315.669L391.274 315.813C391.222 316.044 391.14 316.311 391.03 316.601L390.981 316.729L390.942 316.86C390.773 317.418 390.562 318.022 390.336 318.626C390.306 318.708 390.28 318.78 390.261 318.835C390.252 318.862 390.243 318.888 390.237 318.907C390.229 318.929 390.225 318.942 390.22 318.955L390.224 318.946L390.206 318.991C389.926 319.696 389.947 319.697 389.769 320.121L389.752 320.159L389.738 320.198C387.345 326.26 383.719 332.016 378.828 337.385L378.769 337.449L378.713 337.517C360.814 358.999 330.529 369.774 303.918 375.078C290.711 377.711 278.619 378.956 269.775 379.538C260.869 380.124 255.421 380.029 255.454 380.032L255.317 380.022H254.717L254.578 380.032C254.503 380.03 249.074 380.117 240.252 379.534C231.403 378.949 219.303 377.699 206.086 375.059C179.456 369.739 149.139 358.94 131.199 337.415L131.144 337.349L131.085 337.285L130.617 336.765C125.821 331.375 122.22 325.459 119.88 319.176L119.875 319.164L119.87 319.151L119.48 318.083C119.228 317.367 118.992 316.643 118.77 315.911L118.448 314.807C117.524 311.485 116.802 308.046 116.259 304.418L116.037 302.85C115.71 300.35 115.475 297.735 115.319 295.002C115.201 292.588 115.144 290.618 115.144 288.725V288.708Z" stroke="white" stroke-width="7.91503"/>
<path d="M112.114 303.374C112.679 307.751 113.507 311.885 114.617 315.877H114.637C113.527 311.885 112.7 307.751 112.114 303.374ZM111.973 270.062C112.013 269.657 112.054 269.272 112.094 268.847C112.135 268.32 112.195 267.773 112.235 267.246C112.135 268.218 112.054 269.151 111.973 270.062ZM111.226 283.882C111.287 280.984 111.428 277.58 111.691 273.791C111.388 277.843 111.267 281.45 111.206 284.489V284.996C111.166 286.354 111.166 287.61 111.166 288.724C111.166 290.71 111.226 292.757 111.368 295.229C111.247 292.757 111.186 290.71 111.186 288.724C111.186 287.813 111.186 286.84 111.206 285.766C111.206 285.158 111.226 284.53 111.226 283.882ZM111.206 284.489V285.766C111.206 285.158 111.226 284.53 111.226 283.882C111.226 284.084 111.226 284.287 111.206 284.489Z" fill="white"/>
<path d="M190.931 249.07C180.033 250.144 168.147 250.023 155.19 248.949H155.11C150.811 248.361 146.795 251.218 145.887 255.493C142.557 271.278 139.187 287.103 139.227 302.361C139.227 304.084 139.288 305.786 139.389 307.488C139.712 313.04 140.519 318.511 142.053 323.86C144.232 331.418 148.167 337.862 153.334 343.353C183.545 378.509 252.241 378.164 255.692 377.982C259.143 378.164 327.839 378.509 358.05 343.353C363.196 337.862 367.152 331.418 369.331 323.86C370.865 318.511 371.672 313.02 371.995 307.468C372.096 305.806 372.157 304.144 372.157 302.483C372.217 287.205 368.847 271.339 365.497 255.514C364.589 251.259 360.593 248.402 356.274 248.969H356.194C343.237 250.043 331.351 250.164 320.453 249.09C309.333 247.449 295.671 240.398 283.744 232.921C266.529 222.161 244.814 222.161 227.6 232.921C215.673 240.377 202.01 247.429 190.891 249.07H190.931Z" fill="white"/>
<path d="M191.164 310.081C199.963 310.081 207.107 302.929 207.107 294.074C207.107 285.219 199.963 278.066 191.164 278.066C182.365 278.066 175.221 285.219 175.221 294.074C175.221 302.929 182.365 310.081 191.164 310.081Z" fill="#DC2626"/>
<path d="M319.434 310.081C328.233 310.081 335.377 302.929 335.377 294.074C335.377 285.219 328.233 278.066 319.434 278.066C310.635 278.066 303.491 285.219 303.491 294.074C303.491 302.929 310.635 310.081 319.434 310.081Z" fill="#DC2626"/>
<path d="M234.149 327.163L275.621 327.062C275.621 327.062 278.648 353.687 253.382 352.998C230.941 352.37 234.169 327.163 234.169 327.163H234.149Z" fill="#DC2626"/>
<ellipse cx="254.27" cy="184.025" rx="28.764" ry="28.764" fill="white"/>
<ellipse cx="254.27" cy="184.024" rx="20.1348" ry="20.1348" fill="#DC2626"/>
<circle cx="254.27" cy="184.024" r="11.5056" fill="white"/>
</g>
<defs>
<clipPath id="clip0_2023_3074">
<rect width="339.627" height="256" fill="white" transform="translate(86 128)"/>
</clipPath>
</defs>
</svg>
