<svg width="23" height="19" viewBox="0 0 23 19" fill="none" xmlns="http://www.w3.org/2000/svg">
<path d="M0 4.84352V1.71867C0 0.769474 0.953227 0 2.12909 0H6.00018C7.17605 0 8.12928 0.769472 8.12928 1.71867V4.2421C8.12928 4.6772 8.34339 5.09448 8.72453 5.40214C9.5182 6.04282 10.805 6.04282 11.5987 5.40214L17.6673 0.503386C18.0666 0.181073 18.6081 0 19.1728 0H20.2264C21.4023 0 22.3555 0.769473 22.3555 1.71867V2.5692C22.3555 3.02502 22.1312 3.46217 21.7319 3.78448L15.6633 8.68324C14.8696 9.32391 14.8696 10.3626 15.6633 11.0033C16.0444 11.311 16.5614 11.4838 17.1004 11.4838H20.2264C21.4023 11.4838 22.3555 12.2533 22.3555 13.2025V16.3273C22.3555 17.2765 21.4023 18.046 20.2264 18.046H16.3553C15.1795 18.046 14.2262 17.2765 14.2262 16.3273V13.8039C14.2262 13.3688 14.0121 12.9515 13.631 12.6439C12.8373 12.0032 11.5505 12.0032 10.7568 12.6439L4.68824 17.5426C4.28895 17.8649 3.74741 18.046 3.18274 18.046H2.1291C0.953229 18.046 0 17.2765 0 16.3273V15.4768C0 15.021 0.224316 14.5838 0.623599 14.2615L6.69221 9.36277C7.48588 8.7221 7.48588 7.68336 6.69221 7.04269C6.31108 6.73503 5.79415 6.56219 5.25514 6.56219H2.1291C0.953229 6.56219 0 5.79271 0 4.84352Z" fill="#B16EFF"/>
</svg>
