<?xml version="1.0" encoding="UTF-8"?>
<svg version="1.1" xmlns="http://www.w3.org/2000/svg" width="880" height="880">
<path d="M0 0 C1.7823278 -0.01052147 1.7823278 -0.01052147 3.60066223 -0.02125549 C7.41219928 -0.03865594 11.22358095 -0.04510744 15.03515625 -0.046875 C16.33755249 -0.04754974 17.63994873 -0.04822449 18.98181152 -0.04891968 C37.89138174 -0.03333695 56.37482607 0.36633255 75.09765625 3.203125 C76.29986816 3.37473145 77.50208008 3.54633789 78.74072266 3.72314453 C143.34329303 13.05453426 204.82644826 36.28572208 259.16015625 72.390625 C260.00063507 72.94904083 260.00063507 72.94904083 260.85809326 73.51873779 C268.808017 78.82073915 276.50937399 84.39696568 284.09765625 90.203125 C284.78770752 90.7293042 285.47775879 91.2554834 286.1887207 91.79760742 C292.97956962 97.00617651 299.56519798 102.35800842 305.8671875 108.15625 C307.93061899 110.04983687 310.03340206 111.88138664 312.16015625 113.703125 C316.69390246 117.64950328 320.88385743 121.92123967 325.09765625 126.203125 C327.89697069 129.01660124 330.71471331 131.80962089 333.55078125 134.5859375 C340.03887095 140.96345409 346.30567689 147.32796092 351.94140625 154.48828125 C353.89113301 156.94310027 355.91332703 159.31512297 357.97192383 161.67871094 C417.11194598 229.89701511 454.72458667 327.37780544 456.30078125 424.10546875 C456.30779556 425.29368729 456.31480988 426.48190582 456.32203674 427.70613098 C456.33943719 431.51766803 456.34588869 435.3290497 456.34765625 439.140625 C456.34866837 441.09421936 456.34866837 441.09421936 456.34970093 443.08728027 C456.3341182 461.99685049 455.9344487 480.48029482 453.09765625 499.203125 C452.9260498 500.40533691 452.75444336 501.60754883 452.57763672 502.84619141 C443.24624699 567.44876178 420.01505917 628.93191701 383.91015625 683.265625 C383.53787903 683.82594421 383.16560181 684.38626343 382.78204346 684.96356201 C377.4800421 692.91348575 371.90381557 700.61484274 366.09765625 708.203125 C365.57147705 708.89317627 365.04529785 709.58322754 364.50317383 710.29418945 C359.29460474 717.08503837 353.94277283 723.67066673 348.14453125 729.97265625 C346.25094438 732.03608774 344.41939461 734.13887081 342.59765625 736.265625 C338.65127797 740.79937121 334.37954158 744.98932618 330.09765625 749.203125 C327.28418001 752.00243944 324.49116036 754.82018206 321.71484375 757.65625 C315.33732716 764.1443397 308.97282033 770.41114564 301.8125 776.046875 C299.35768098 777.99660176 296.98565828 780.01879578 294.62207031 782.07739258 C226.40376614 841.21741473 128.92297581 878.83005542 32.1953125 880.40625 C31.00709396 880.41326431 29.81887543 880.42027863 28.59465027 880.42750549 C24.78311322 880.44490594 20.97173155 880.45135744 17.16015625 880.453125 C15.85776001 880.45379974 14.55536377 880.45447449 13.21350098 880.45516968 C-5.69606924 880.43958695 -24.17951357 880.03991745 -42.90234375 877.203125 C-44.10455566 877.03151855 -45.30676758 876.85991211 -46.54541016 876.68310547 C-111.14798053 867.35171574 -172.63113576 844.12052792 -226.96484375 808.015625 C-227.52516296 807.64334778 -228.08548218 807.27107056 -228.66278076 806.88751221 C-236.6127045 801.58551085 -244.31406149 796.00928432 -251.90234375 790.203125 C-252.59239502 789.6769458 -253.28244629 789.1507666 -253.9934082 788.60864258 C-260.78425712 783.40007349 -267.36988548 778.04824158 -273.671875 772.25 C-275.73530649 770.35641313 -277.83808956 768.52486336 -279.96484375 766.703125 C-284.49858996 762.75674672 -288.68854493 758.48501033 -292.90234375 754.203125 C-295.70165819 751.38964876 -298.51940081 748.59662911 -301.35546875 745.8203125 C-307.84355845 739.44279591 -314.11036439 733.07828908 -319.74609375 725.91796875 C-321.69582051 723.46314973 -323.71801453 721.09112703 -325.77661133 718.72753906 C-384.91663348 650.50923489 -422.52927417 553.02844456 -424.10546875 456.30078125 C-424.11248306 455.11256271 -424.11949738 453.92434418 -424.12672424 452.70011902 C-424.14412469 448.88858197 -424.15057619 445.0772003 -424.15234375 441.265625 C-424.15301849 439.96322876 -424.15369324 438.66083252 -424.15438843 437.31896973 C-424.1388057 418.40939951 -423.7391362 399.92595518 -420.90234375 381.203125 C-420.7307373 380.00091309 -420.55913086 378.79870117 -420.38232422 377.56005859 C-411.05093449 312.95748822 -387.81974667 251.47433299 -351.71484375 197.140625 C-351.34256653 196.58030579 -350.97028931 196.01998657 -350.58673096 195.44268799 C-345.2847296 187.49276425 -339.70850307 179.79140726 -333.90234375 172.203125 C-333.37616455 171.51307373 -332.84998535 170.82302246 -332.30786133 170.11206055 C-327.09929224 163.32121163 -321.74746033 156.73558327 -315.94921875 150.43359375 C-314.05563188 148.37016226 -312.22408211 146.26737919 -310.40234375 144.140625 C-306.45596547 139.60687879 -302.18422908 135.41692382 -297.90234375 131.203125 C-295.08886751 128.40381056 -292.29584786 125.58606794 -289.51953125 122.75 C-283.14201466 116.2619103 -276.77750783 109.99510436 -269.6171875 104.359375 C-267.16236848 102.40964824 -264.79034578 100.38745422 -262.42675781 98.32885742 C-194.20845364 39.18883527 -96.72766331 1.57619458 0 0 Z " fill="#7835C6" transform="translate(423.90234375,-0.203125)"/>
<path d="M0 0 C-1.94931203 7.78392926 -4.43047864 15.18865289 -7.4375 22.625 C-7.87288086 23.70185059 -8.30826172 24.77870117 -8.75683594 25.88818359 C-27.03507405 70.41955988 -53.47401709 107.46810514 -87.25 141.375 C-87.72194794 141.84971741 -88.19389587 142.32443481 -88.68014526 142.8135376 C-93.71719256 147.87215988 -98.80276012 152.7922075 -104.22167969 157.43994141 C-106.94751088 159.83121836 -109.47016641 162.40485821 -112 165 C-115.82718404 168.87980782 -119.72076623 172.5626513 -123.875 176.09375 C-126.69393956 178.62250461 -129.33938576 181.30646246 -132 184 C-135.22398087 187.26382615 -138.43517847 190.46830141 -141.9375 193.4375 C-145.65957668 196.6000996 -149.0686634 200.02970414 -152.5 203.5 C-156.50912858 207.55464806 -160.55864499 211.43978149 -164.91015625 215.12890625 C-168.27496075 218.14150691 -171.40545188 221.38572042 -174.57836914 224.59790039 C-177.88599763 227.93059062 -181.29656607 231.05208116 -184.875 234.09375 C-187.69393932 236.62250439 -190.33938837 239.30646001 -193 242 C-196.82988013 245.87727963 -200.72051302 249.56243606 -204.875 253.09375 C-207.69393956 255.62250461 -210.33938576 258.30646246 -213 261 C-216.22398087 264.26382615 -219.43517847 267.46830141 -222.9375 270.4375 C-226.65957668 273.6000996 -230.0686634 277.02970414 -233.5 280.5 C-237.50912858 284.55464806 -241.55864499 288.43978149 -245.91015625 292.12890625 C-249.27496075 295.14150691 -252.40545188 298.38572042 -255.57836914 301.59790039 C-258.88599763 304.93059062 -262.29656607 308.05208116 -265.875 311.09375 C-268.69393932 313.62250439 -271.33938837 316.30646001 -274 319 C-277.82988013 322.87727963 -281.72051302 326.56243606 -285.875 330.09375 C-288.69393956 332.62250461 -291.33938576 335.30646246 -294 338 C-297.80015968 341.84712596 -301.65394258 345.50637322 -305.78515625 349 C-309.55816038 352.40701607 -313.0794034 356.07718811 -316.60913086 359.73413086 C-318.03662372 361.19235461 -319.51457257 362.60083677 -321 364 C-321.66 364 -322.32 364 -323 364 C-323 364.66 -323 365.32 -323 366 C-322.43337646 366.23702637 -321.86675293 366.47405273 -321.28295898 366.71826172 C-318.48874616 368.28703697 -316.67797235 370.18230633 -314.47265625 372.5078125 C-313.16941406 373.85975708 -313.16941406 373.85975708 -311.83984375 375.23901367 C-311.38593262 375.71164642 -310.93202148 376.18427917 -310.46435547 376.67123413 C-300.04118316 387.48037422 -289.52157366 397.83419902 -274 400 C-278.38802743 410.33987315 -290.14901712 415.9866366 -300 420 C-313.22313205 424.40771068 -327.11468351 422.52328118 -339.578125 416.8203125 C-344.66069009 414.04949476 -348.85628054 410.45366661 -353.06494141 406.51611328 C-353.91535728 405.72526683 -353.91535728 405.72526683 -354.78295326 404.91844368 C-360.61655309 399.46804192 -366.30565524 393.87654921 -371.9609375 388.2421875 C-372.75739119 387.44997488 -372.75739119 387.44997488 -373.56993484 386.64175797 C-376.36875824 383.85771872 -379.16485978 381.07098215 -381.95849609 378.28173828 C-384.81250228 375.43325163 -387.67571196 372.59420295 -390.54106712 369.75713921 C-392.77684554 367.54010389 -395.00577173 365.3162723 -397.23295975 363.0906105 C-398.28525794 362.04130234 -399.34001191 360.99445005 -400.39744186 359.95031357 C-408.27168088 352.16822547 -415.73780728 344.19284508 -419.875 333.75 C-420.26429688 332.79609375 -420.65359375 331.8421875 -421.0546875 330.859375 C-425.34152744 317.89256988 -423.36369035 304.33072265 -418 292.0625 C-414.195427 284.79179761 -407.81786471 277.54524314 -401 273 C-400.79246094 273.81082031 -400.58492188 274.62164062 -400.37109375 275.45703125 C-399.90896484 277.11798828 -399.90896484 277.11798828 -399.4375 278.8125 C-399.14746094 279.89144531 -398.85742188 280.97039062 -398.55859375 282.08203125 C-394.60844605 293.21131009 -386.37009506 301.10602032 -378.0625 309.0625 C-376.46500972 310.60463051 -374.87067039 312.14973292 -373.28184509 313.70079041 C-371.8611999 315.0860089 -370.43097899 316.46138681 -369.00024414 317.83618164 C-367 320 -367 320 -367 322 C-361.52490808 317.38355291 -356.52013975 312.53039232 -351.6875 307.25 C-347.20800626 302.40802974 -342.6935234 297.63525897 -338 293 C-335.08936436 290.12350672 -332.27616872 287.24173982 -329.625 284.125 C-326.43870567 280.38456753 -322.99119746 276.95196502 -319.5 273.5 C-316.07154618 270.10994409 -312.67739237 266.74805967 -309.5625 263.0625 C-306.25427342 259.15730021 -302.63486259 255.59719074 -299 252 C-293.58505132 246.65534806 -293.58505132 246.65534806 -288.5 241 C-284.64811224 236.44062265 -280.35187792 232.32753136 -276.11328125 228.1328125 C-273.13199023 225.17059157 -270.21436684 222.21292402 -267.5 219 C-263.64811224 214.44062265 -259.35187792 210.32753136 -255.11328125 206.1328125 C-252.13199023 203.17059157 -249.21436684 200.21292402 -246.5 197 C-242.64877784 192.44141051 -238.35336869 188.32897829 -234.11547852 184.13500977 C-230.54301767 180.58542182 -227.15395599 176.96842121 -223.90234375 173.12109375 C-220.67429841 169.52185634 -217.1922629 166.17331789 -213.75537109 162.77490234 C-210.913276 159.9524361 -208.15009878 157.12416268 -205.5625 154.0625 C-202.25427342 150.15730021 -198.63486259 146.59719074 -195 143 C-189.58505132 137.65534806 -189.58505132 137.65534806 -184.5 132 C-180.64877784 127.44141051 -176.35336869 123.32897829 -172.11547852 119.13500977 C-168.54301767 115.58542182 -165.15395599 111.96842121 -161.90234375 108.12109375 C-158.67705739 104.52493257 -155.19821266 101.17910478 -151.76416016 97.78369141 C-148.25582631 94.2996858 -144.94245976 90.72487853 -141.734375 86.9609375 C-136.27354227 80.78675275 -130.28498672 75.08986073 -124.015625 69.74609375 C-122.64577617 68.55942238 -121.30241472 67.34162009 -119.984375 66.09765625 C-101.41148656 48.66122077 -79.42909958 34.8843781 -57 23 C-56.33677734 22.6484082 -55.67355469 22.29681641 -54.99023438 21.93457031 C-13.22009569 0 -13.22009569 0 0 0 Z " fill="#FEFDFE" transform="translate(685,192)"/>
<path d="M0 0 C57.57551784 13.53674906 113.96935365 52.88863551 151.99609375 97.77734375 C154.87718888 100.97294439 157.94241785 103.97410675 161 107 C165.18844516 111.1450809 169.2267072 115.30916362 173.03125 119.8125 C175.89838676 122.99820751 178.95431879 125.98584758 182 129 C186.18844192 133.14508331 190.22670717 137.30916359 194.03125 141.8125 C197.48559665 145.65066294 201.20856889 149.22720052 204.87792969 152.85839844 C208.50979554 156.46694573 211.97956856 160.13278302 215.265625 164.0625 C218.33829381 167.49503092 221.77362308 170.57916955 225.15625 173.703125 C227 176 227 176 226.80224609 177.92456055 C225.87638604 180.31979375 224.77861333 181.6492851 223.0078125 183.50390625 C222.39035156 184.15681641 221.77289063 184.80972656 221.13671875 185.48242188 C220.47285156 186.16884766 219.80898438 186.85527344 219.125 187.5625 C218.44824219 188.27341797 217.77148438 188.98433594 217.07421875 189.71679688 C212.24265855 194.77212498 207.3095766 199.71751521 202.3359375 204.6328125 C200.33952276 206.65593513 198.46535037 208.71146615 196.625 210.875 C191.46603093 216.93393665 185.66073493 222.41587652 180 228 C175.9010653 226.38970422 173.23796843 223.42180725 170.25 220.3125 C166.92738766 216.91765696 163.62879364 213.57227697 160 210.5 C156.47922306 207.5073396 153.2445247 204.2846735 150 201 C146.77601913 197.73617385 143.56482153 194.53169859 140.0625 191.5625 C136.34042307 188.39990018 132.93133928 184.97029304 129.5 181.5 C126.08929676 178.05062117 122.70378516 174.63880098 119 171.5 C114.72433627 167.87655616 110.83181832 163.88651529 106.91796875 159.88085938 C104.18237213 157.10114023 101.40132195 154.45323014 98.43359375 151.921875 C92.81610781 147.06350878 87.60384085 141.78986208 82.35522461 136.54052734 C80.57489748 134.76238228 78.78671623 132.99240439 76.99804688 131.22265625 C70.20116389 124.45956953 63.90136889 117.57017704 58 110 C57.43933838 109.29858887 56.87867676 108.59717773 56.30102539 107.87451172 C30.88117219 76.00165231 11.2197417 39.25564303 0 0 Z " fill="#FEFDFE" transform="translate(195,192)"/>
<path d="M0 0 C3.24900717 1.08300239 3.74706612 1.63159369 5.8125 4.1875 C9.33274004 8.35324248 13.12241135 12.1722283 17 16 C21.21065894 20.1658647 25.27246231 24.35291342 29.09765625 28.87890625 C32.31979018 32.4715525 35.79405839 35.81552133 39.22705078 39.20532227 C42.78434152 42.73423311 46.16918109 46.33270106 49.33984375 50.21875 C50.85356393 51.84288271 52.39412461 53.20130786 54.10375977 54.61132812 C55.05951904 55.39958984 56.01527832 56.18785156 57 57 C60.28851285 53.83716526 63.55862304 50.6566742 66.81445312 47.46020508 C67.91920281 46.38025786 69.02843799 45.30487593 70.14257812 44.23461914 C80.71162589 34.07097257 89.14668367 23.83130048 92 9 C102.6323028 17.67943086 112.43221529 28.74062477 114 43 C115.0332292 58.12271831 112.56323429 72.25295277 102.43922424 83.96159363 C101.46762119 85.01165544 100.49097158 86.05706441 99.51000977 87.09838867 C98.98298997 87.66314754 98.45597017 88.2279064 97.91298008 88.80977917 C92.46982088 94.61601716 86.89412639 100.28808077 81.27734375 105.92578125 C80.75045015 106.45550222 80.22355656 106.9852232 79.68069649 107.53099632 C76.90198947 110.32448988 74.12058293 113.1152593 71.33666992 115.90356445 C68.49724619 118.74850103 65.66725743 121.60263656 62.83927059 124.45893574 C60.62649788 126.69047945 58.40690173 128.9151438 56.18548775 131.1380825 C55.13979461 132.18676056 54.09655062 133.23788782 53.05604362 134.29171181 C39.3158921 148.19539001 26.26514855 157.7072899 6.25 158.25 C-9.77368344 158.08043721 -21.42006235 151.14229662 -32.76171875 140.390625 C-35 138 -35 138 -35 136 C-33.9275 135.79375 -32.855 135.5875 -31.75 135.375 C-17.85186011 131.77812225 -8.75982149 122.80882471 1.01953125 112.953125 C1.70104248 112.26726318 2.38255371 111.58140137 3.0847168 110.87475586 C4.43006292 109.51492115 5.76894822 108.14865965 7.10083008 106.77563477 C7.70950928 106.15487061 8.31818848 105.53410645 8.9453125 104.89453125 C9.48687988 104.33612549 10.02844727 103.77771973 10.58642578 103.20239258 C12 102 12 102 14 102 C14 101.34 14 100.68 14 100 C13.41444336 99.74114014 12.82888672 99.48228027 12.22558594 99.21557617 C9.8311604 97.90778276 8.28906671 96.50263899 6.390625 94.55078125 C5.71773438 93.86693359 5.04484375 93.18308594 4.3515625 92.47851562 C3.65804687 91.76373047 2.96453125 91.04894531 2.25 90.3125 C-2.39335794 85.54996842 -7.08982544 80.97914143 -12.13378906 76.64135742 C-14.88714816 74.21974136 -17.44173403 71.62431938 -20 69 C-23.83864741 65.10849685 -27.74301614 61.4088161 -31.91015625 57.8671875 C-36.4726012 53.79083482 -40.71084962 49.36011058 -45 45 C-43.51556158 41.53891463 -41.55369767 39.31486374 -38.875 36.6875 C-38.15054687 35.96949219 -37.42609375 35.25148438 -36.6796875 34.51171875 C-34.55428925 32.51954517 -32.40065439 30.60772322 -30.1953125 28.70703125 C-25.927306 24.99613401 -21.95861765 21.0359344 -18 17 C-13.37360329 12.28324398 -8.68366427 7.74497138 -3.6640625 3.4453125 C-2.39833536 2.34597202 -1.1854566 1.1854566 0 0 Z " fill="#FDFDFE" transform="translate(504,456)"/>
<path d="M0 0 C4.90473901 4.11329871 9.5219528 8.38542461 14.02734375 12.9296875 C14.97801476 13.88248093 14.97801476 13.88248093 15.94789124 14.85452271 C17.94681406 16.85898716 19.94220784 18.86692214 21.9375 20.875 C23.30250133 22.24502389 24.6677336 23.61481774 26.03320312 24.984375 C29.35814211 28.32026543 32.67992353 31.65927036 36 35 C31.29212934 40.71550637 26.18028084 45.91471283 20.90593338 51.10810089 C19.37940301 52.61227694 17.85715067 54.12066549 16.33602905 55.63031006 C12.01512407 59.91794419 7.69012792 64.2013794 3.35449219 68.47412109 C0.6889946 71.10155253 -1.96878042 73.73659805 -4.62205887 76.37636566 C-5.62298727 77.36934679 -6.62666131 78.35956958 -7.63334274 79.34671783 C-17.9096764 89.42711254 -29.77175041 101.85158836 -31 117 C-37.03263 112.00112452 -42.55833762 106.58685492 -48.08984375 101.04296875 C-49.04376401 100.08972335 -49.99783256 99.13662634 -50.95204163 98.18367004 C-52.93620686 96.20096891 -54.91857727 94.21649566 -56.8996582 92.23071289 C-59.44403856 89.68058901 -61.99294573 87.1350441 -64.54317379 84.59076977 C-66.50685401 82.63069028 -68.46816228 80.66825138 -70.42874336 78.7050724 C-71.82565067 77.30717193 -73.22457543 75.91128843 -74.6235199 74.51542664 C-75.46181839 73.67397598 -76.30011688 72.83252533 -77.16381836 71.96557617 C-77.90659531 71.22200363 -78.64937225 70.47843109 -79.41465759 69.71232605 C-81 68 -81 68 -81 67 C-80.33355469 66.85304688 -79.66710937 66.70609375 -78.98046875 66.5546875 C-68.83650066 64.08608548 -61.04665408 60.11741359 -53.36816406 52.9909668 C-52.84986652 52.51005679 -52.33156898 52.02914679 -51.79756546 51.53366375 C-46.25723925 46.36184824 -40.89094808 41.01775465 -35.546875 35.64453125 C-34.51049615 34.60627972 -33.47389066 33.56825437 -32.43707275 32.53044128 C-29.75200741 29.84161754 -27.06996227 27.14980205 -24.38861084 24.45727539 C-21.63464798 21.69295196 -18.87773443 18.93157447 -16.12109375 16.16992188 C-10.74456093 10.78277006 -5.37122644 5.39244309 0 0 Z " fill="#FEFDFE" transform="translate(269,571)"/>
<path d="M0 0 C5.77121307 4.7459389 11.00007432 9.91864213 16.23216629 15.24869728 C17.76170384 16.80529428 19.29592954 18.357127 20.83163452 19.90763855 C25.19380385 24.31212066 29.55333305 28.71909574 33.89599609 33.14282227 C36.56652116 35.8625029 39.24725379 38.57177351 41.93442917 41.27499962 C42.94342196 42.29374013 43.94879331 43.31608344 44.9500618 44.34241676 C55.33403891 54.98039213 66.73097655 65.09137207 82 67 C77.00112452 73.03263 71.58685492 78.55833762 66.04296875 84.08984375 C65.08972335 85.04376401 64.13662634 85.99783256 63.18367004 86.95204163 C61.20096891 88.93620686 59.21649566 90.91857727 57.23071289 92.8996582 C54.68058901 95.44403856 52.1350441 97.99294573 49.59076977 100.54317379 C47.63069028 102.50685401 45.66825138 104.46816228 43.7050724 106.42874336 C42.30717193 107.82565067 40.91128843 109.22457543 39.51542664 110.6235199 C38.67397598 111.46181839 37.83252533 112.30011688 36.96557617 113.16381836 C36.22200363 113.90659531 35.47843109 114.64937225 34.71232605 115.41465759 C33 117 33 117 32 117 C31.773125 115.72125 31.54625 114.4425 31.3125 113.125 C27.66610462 97.14080106 15.19948941 85.89346446 3.96484375 74.76953125 C2.83383332 73.64226254 1.70327218 72.51454288 0.57313538 71.38639832 C-2.36668609 68.45412219 -5.31246717 65.52790859 -8.25964355 62.60302734 C-11.28032079 59.60300746 -14.29516708 56.5971396 -17.31054688 53.59179688 C-23.20142292 47.72220964 -29.09862434 41.85903059 -35 36 C-30.88670129 31.09526099 -26.61457539 26.4780472 -22.0703125 21.97265625 C-21.43511688 21.33887558 -20.79992126 20.70509491 -20.14547729 20.05210876 C-18.14101284 18.05318594 -16.13307786 16.05779216 -14.125 14.0625 C-12.75497611 12.69749867 -11.38518226 11.3322664 -10.015625 9.96679688 C-6.67973457 6.64185789 -3.34072964 3.32007647 0 0 Z " fill="#FEFDFE" transform="translate(610,571)"/>
</svg>
