<?xml version="1.0" encoding="UTF-8"?>
<!DOCTYPE svg PUBLIC "-//W3C//DTD SVG 1.1//EN" "http://www.w3.org/Graphics/SVG/1.1/DTD/svg11.dtd">
<svg xmlns="http://www.w3.org/2000/svg" version="1.1" width="400px" height="400px" style="shape-rendering:geometricPrecision; text-rendering:geometricPrecision; image-rendering:optimizeQuality; fill-rule:evenodd; clip-rule:evenodd" xmlns:xlink="http://www.w3.org/1999/xlink">
<g><path style="opacity:1" fill="#fdfdfd" d="M -0.5,-0.5 C 132.833,-0.5 266.167,-0.5 399.5,-0.5C 399.5,89.1667 399.5,178.833 399.5,268.5C 377.284,256.474 356.118,242.808 336,227.5C 327.354,216.542 320.521,204.542 315.5,191.5C 317.931,190.64 319.264,188.973 319.5,186.5C 322.173,183.659 324.673,180.659 327,177.5C 327.703,175.071 327.537,172.738 326.5,170.5C 329.125,169.534 329.125,168.534 326.5,167.5C 329.131,165.995 328.797,165.329 325.5,165.5C 325.48,163.857 326.147,162.524 327.5,161.5C 326.624,160.749 325.624,160.249 324.5,160C 325.883,158.539 325.549,157.706 323.5,157.5C 319.929,150.7 316.929,143.533 314.5,136C 314.759,134.739 315.426,133.739 316.5,133C 315.451,132.508 314.451,132.674 313.5,133.5C 307.766,121.699 301.766,110.033 295.5,98.5C 295.519,96.9397 295.852,95.4397 296.5,94C 296.167,93.5 295.833,93 295.5,92.5C 294.571,93.6888 294.238,95.0222 294.5,96.5C 290.681,93.3333 288.014,89.3333 286.5,84.5C 285.914,84.7093 285.414,85.0426 285,85.5C 281.006,81.3393 276.506,77.8393 271.5,75C 270.773,73.6012 270.273,72.1012 270,70.5C 269.692,71.3081 269.192,71.9747 268.5,72.5C 265.099,71.5585 262.599,69.5585 261,66.5C 260.282,67.4506 259.449,67.6172 258.5,67C 255.61,64.5994 252.61,62.4327 249.5,60.5C 248.719,59.2713 248.219,57.938 248,56.5C 246.919,58.7671 245.419,58.9338 243.5,57C 241.301,55.3029 238.968,53.8029 236.5,52.5C 235.289,51.7261 235.289,50.8928 236.5,50C 232.095,50.8689 229.262,49.0355 228,44.5C 227.692,45.3081 227.192,45.9747 226.5,46.5C 221.559,43.1966 216.226,40.6966 210.5,39C 209.874,38.2496 209.374,37.4162 209,36.5C 204.667,37.8333 200.333,37.8333 196,36.5C 192.861,37.0789 189.861,38.0789 187,39.5C 185.957,35.7741 185.457,36.1074 185.5,40.5C 180.046,40.6725 174.712,40.6725 169.5,40.5C 165.815,42.2008 161.982,43.5341 158,44.5C 157.059,42.9386 155.892,41.6053 154.5,40.5C 154.167,40.8333 153.833,41.1667 153.5,41.5C 154.167,42.5 154.833,43.5 155.5,44.5C 152.324,45.9971 149.658,45.3304 147.5,42.5C 147.167,42.8333 146.833,43.1667 146.5,43.5C 147.5,44.3333 148.5,45.1667 149.5,46C 142.103,47.3647 140.77,50.8647 145.5,56.5C 141.348,61.5466 141.682,62.2133 146.5,58.5C 148.217,59.6685 148.884,61.3352 148.5,63.5C 149.675,63.281 150.675,63.6143 151.5,64.5C 152.248,66.3325 153.248,67.9991 154.5,69.5C 152.838,70.3267 151.505,71.4933 150.5,73C 151.777,73.1274 152.943,72.6274 154,71.5C 154.772,71.6448 155.439,71.9781 156,72.5C 156.333,74.5 156.667,76.5 157,78.5C 157.333,77.8333 157.667,77.1667 158,76.5C 161.147,79.3276 161.647,82.3276 159.5,85.5C 160.689,86.4287 162.022,86.762 163.5,86.5C 163.62,88.1986 163.954,89.8653 164.5,91.5C 164.081,92.6721 163.415,93.6721 162.5,94.5C 167.395,99.8467 169.728,106.18 169.5,113.5C 145.278,118.555 129.445,132.888 122,156.5C 109.304,169.575 104.971,184.908 109,202.5C 112.244,212.987 116.578,222.987 122,232.5C 127.461,240.733 135.127,245.4 145,246.5C 146.5,246.167 148,245.833 149.5,245.5C 146.112,241.124 142.778,236.791 139.5,232.5C 138.708,231.033 138.708,229.7 139.5,228.5C 141.475,230.321 143.809,231.321 146.5,231.5C 159.321,231.797 171.988,233.297 184.5,236C 192.451,240.474 200.784,244.141 209.5,247C 212.419,249.047 214.752,251.547 216.5,254.5C 214.7,255.895 214.366,257.561 215.5,259.5C 222.121,257.126 228.621,254.46 235,251.5C 238.12,252.593 238.287,254.093 235.5,256C 217.543,267.814 198.543,277.814 178.5,286C 174.131,288.857 170.131,292.19 166.5,296C 164.618,296.198 162.952,296.698 161.5,297.5C 150.312,301.681 140.479,308.014 132,316.5C 128.23,305.084 122.397,294.917 114.5,286C 108.167,282.333 101.833,278.667 95.5,275C 90.9996,273.208 86.3329,272.375 81.5,272.5C 82.0844,262.081 77.0844,256.748 66.5,256.5C 66.8254,248.648 66.492,240.982 65.5,233.5C 62.2414,205.599 61.0747,177.599 62,149.5C 63.6196,147.759 65.1196,145.925 66.5,144C 67.448,143.517 68.448,143.351 69.5,143.5C 66.609,130.044 62.2757,117.044 56.5,104.5C 55.914,104.709 55.414,105.043 55,105.5C 51.242,115.631 48.242,125.964 46,136.5C 44.8568,140.61 45.5234,144.276 48,147.5C 48.0522,179.27 49.2188,210.936 51.5,242.5C 51.8306,249.863 51.4973,257.197 50.5,264.5C 46.4746,268.02 44.1413,272.52 43.5,278C 43.5699,278.765 43.9033,279.265 44.5,279.5C 45.347,286.205 46.5137,292.872 48,299.5C 49.6667,300.167 51.3333,300.833 53,301.5C 53.9203,304.101 54.587,306.768 55,309.5C 56.6571,339.527 58.4905,369.527 60.5,399.5C 40.1667,399.5 19.8333,399.5 -0.5,399.5C -0.5,266.167 -0.5,132.833 -0.5,-0.5 Z"/></g>
<g><path style="opacity:1" fill="#6a6366" d="M 295.5,98.5 C 294.662,98.1583 294.328,97.4916 294.5,96.5C 294.238,95.0222 294.571,93.6888 295.5,92.5C 295.833,93 296.167,93.5 296.5,94C 295.852,95.4397 295.519,96.9397 295.5,98.5 Z"/></g>
<g><path style="opacity:1" fill="#adb1b1" d="M 323.5,157.5 C 325.549,157.706 325.883,158.539 324.5,160C 325.624,160.249 326.624,160.749 327.5,161.5C 326.147,162.524 325.48,163.857 325.5,165.5C 324.232,163.095 323.565,160.428 323.5,157.5 Z"/></g>
<g><path style="opacity:1" fill="#fcf9e0" d="M 351.5,160.5 C 356.726,160.473 362.059,160.473 367.5,160.5C 365.363,161.738 364.029,163.571 363.5,166C 360.833,166.667 358.167,166.667 355.5,166C 354.74,164.559 354.074,163.059 353.5,161.5C 353.043,160.702 352.376,160.369 351.5,160.5 Z"/></g>
<g><path style="opacity:1" fill="#171514" d="M 65.5,233.5 C 65.6664,241.84 65.4997,250.173 65,258.5C 64.7216,257.584 64.2216,256.918 63.5,256.5C 63.8556,240.026 62.8556,223.693 60.5,207.5C 59.7804,189.179 59.2804,170.846 59,152.5C 58.2828,153.044 57.7828,153.711 57.5,154.5C 55.5,154.5 53.5,154.5 51.5,154.5C 51.5,156.167 51.5,157.833 51.5,159.5C 51.5668,180.838 51.9001,202.172 52.5,223.5C 52.8235,230.022 52.4902,236.355 51.5,242.5C 49.2188,210.936 48.0522,179.27 48,147.5C 45.5234,144.276 44.8568,140.61 46,136.5C 48.242,125.964 51.242,115.631 55,105.5C 55.414,105.043 55.914,104.709 56.5,104.5C 62.2757,117.044 66.609,130.044 69.5,143.5C 68.448,143.351 67.448,143.517 66.5,144C 65.1196,145.925 63.6196,147.759 62,149.5C 61.0747,177.599 62.2414,205.599 65.5,233.5 Z"/></g>
<g><path style="opacity:1" fill="#5e4b37" d="M 60.5,207.5 C 58.8376,190.024 57.8376,172.357 57.5,154.5C 57.7828,153.711 58.2828,153.044 59,152.5C 59.2804,170.846 59.7804,189.179 60.5,207.5 Z"/></g>
<g><path style="opacity:1" fill="#8a8a8a" d="M 57.5,114.5 C 61.6156,123.017 64.449,132.017 66,141.5C 62.6725,145.159 59.0058,148.492 55,151.5C 52.316,149.31 50.1494,146.643 48.5,143.5C 49.3764,143.631 50.0431,143.298 50.5,142.5C 53.6859,133.389 56.0192,124.056 57.5,114.5 Z"/></g>
<g><path style="opacity:1" fill="#bebebe" d="M 57.5,114.5 C 56.0192,124.056 53.6859,133.389 50.5,142.5C 50.0431,143.298 49.3764,143.631 48.5,143.5C 49.3014,133.484 51.6347,123.484 55.5,113.5C 56.6939,112.33 57.3605,112.663 57.5,114.5 Z"/></g>
<g><path style="opacity:1" fill="#9d8060" d="M 57.5,263.5 C 56.5,263.5 55.5,263.5 54.5,263.5C 54.5548,249.976 53.8882,236.643 52.5,223.5C 51.9001,202.172 51.5668,180.838 51.5,159.5C 52.29,158.391 52.79,157.058 53,155.5C 53.1155,191.619 54.6155,227.619 57.5,263.5 Z"/></g>
<g><path style="opacity:1" fill="#716f70" d="M 325.5,165.5 C 328.797,165.329 329.131,165.995 326.5,167.5C 329.125,168.534 329.125,169.534 326.5,170.5C 325.699,168.958 325.366,167.292 325.5,165.5 Z"/></g>
<g><path style="opacity:1" fill="#16100e" d="M 294.5,96.5 C 294.328,97.4916 294.662,98.1583 295.5,98.5C 301.766,110.033 307.766,121.699 313.5,133.5C 314.451,132.674 315.451,132.508 316.5,133C 315.426,133.739 314.759,134.739 314.5,136C 316.929,143.533 319.929,150.7 323.5,157.5C 323.565,160.428 324.232,163.095 325.5,165.5C 325.366,167.292 325.699,168.958 326.5,170.5C 327.537,172.738 327.703,175.071 327,177.5C 324.673,180.659 322.173,183.659 319.5,186.5C 318.766,185.292 318.433,183.959 318.5,182.5C 319.11,181.609 319.443,180.609 319.5,179.5C 321.672,178.339 323.006,176.505 323.5,174C 321.15,161.842 316.816,150.675 310.5,140.5C 310.5,140.167 310.5,139.833 310.5,139.5C 307.005,129.506 302.672,119.839 297.5,110.5C 297.068,109.29 296.401,108.29 295.5,107.5C 291.084,98.5264 285.084,90.6931 277.5,84C 276.552,83.5172 275.552,83.3505 274.5,83.5C 273.404,81.233 271.737,79.3996 269.5,78C 257.259,70.2397 244.925,62.7397 232.5,55.5C 226.14,50.6503 219.14,46.817 211.5,44C 201.133,43.2397 190.799,43.4063 180.5,44.5C 176.486,44.3345 172.486,44.5012 168.5,45C 167.263,45.2321 166.263,45.7321 165.5,46.5C 159.453,47.6271 153.453,48.9604 147.5,50.5C 147.468,52.6188 148.468,53.9522 150.5,54.5C 154.021,58.8923 156.521,63.8923 158,69.5C 160.837,72.8018 163.337,76.1351 165.5,79.5C 166.063,85.2636 167.729,90.5969 170.5,95.5C 171.159,98.4552 171.492,101.455 171.5,104.5C 172.034,109.764 172.034,115.097 171.5,120.5C 170.596,119.791 170.263,118.791 170.5,117.5C 167.161,117.89 163.827,118.39 160.5,119C 159.944,119.383 159.611,119.883 159.5,120.5C 147.92,124.914 138.92,132.414 132.5,143C 133.101,144.605 134.101,145.938 135.5,147C 141.11,150.069 147.11,151.569 153.5,151.5C 154.5,151.5 155.5,151.5 156.5,151.5C 159.623,155.203 161.456,159.536 162,164.5C 162.752,173.855 162.586,183.188 161.5,192.5C 162.421,195.126 164.087,197.126 166.5,198.5C 166.811,199.478 167.478,200.145 168.5,200.5C 172.156,197.337 176.156,194.671 180.5,192.5C 181.662,185.878 182.496,179.212 183,172.5C 183.717,171.956 184.217,171.289 184.5,170.5C 186.296,169.207 187.963,167.707 189.5,166C 196.5,165.667 203.5,165.333 210.5,165C 213.942,163.816 217.275,162.65 220.5,161.5C 234.188,157.748 247.521,153.081 260.5,147.5C 263.785,147.269 266.285,148.603 268,151.5C 270.37,154.608 272.37,157.941 274,161.5C 274.22,170.672 271.72,179.005 266.5,186.5C 262.682,189.93 259.016,193.597 255.5,197.5C 245.611,202.361 235.777,207.361 226,212.5C 225.83,222.009 225.33,231.342 224.5,240.5C 224.666,231.161 224.5,221.827 224,212.5C 223.292,211.619 222.458,210.953 221.5,210.5C 222.306,209.272 223.306,208.272 224.5,207.5C 232.373,204.566 240.039,201.066 247.5,197C 252.311,194.015 256.644,190.515 260.5,186.5C 266.067,180.865 269.4,174.032 270.5,166C 269.159,160.155 266.159,155.321 261.5,151.5C 247.164,157.497 232.497,162.663 217.5,167C 208.615,168.935 199.615,169.935 190.5,170C 189.213,171.41 188.046,172.91 187,174.5C 186.213,181.155 185.547,187.821 185,194.5C 182.021,196.067 179.188,197.734 176.5,199.5C 173.457,202.752 169.791,204.252 165.5,204C 164.833,203 164.167,202 163.5,201C 161.167,200.667 158.833,200.333 156.5,200C 155.663,198.989 155.33,197.822 155.5,196.5C 157.011,194.524 157.844,192.191 158,189.5C 159.106,178.693 158.439,168.026 156,157.5C 155.5,157 155,156.5 154.5,156C 145.732,155.974 137.732,153.474 130.5,148.5C 129.893,148.624 129.56,148.957 129.5,149.5C 128.326,150.514 127.66,151.847 127.5,153.5C 126.711,154.915 126.044,156.415 125.5,158C 127.348,161.347 130.015,163.847 133.5,165.5C 135.393,170.836 134.393,175.503 130.5,179.5C 124.776,181.514 119.109,183.681 113.5,186C 118.922,192.94 125.589,198.107 133.5,201.5C 134.451,202.919 134.784,204.585 134.5,206.5C 133.252,207.334 132.585,208.667 132.5,210.5C 133.201,214.808 133.534,219.141 133.5,223.5C 132.745,220.947 132.078,218.28 131.5,215.5C 131.608,211.753 131.108,208.086 130,204.5C 128.67,203.418 127.17,202.751 125.5,202.5C 122.238,200.58 119.238,198.246 116.5,195.5C 115.712,192.379 113.712,190.712 110.5,190.5C 113.631,208.594 120.964,224.76 132.5,239C 135.402,241.036 138.402,241.869 141.5,241.5C 141.145,240.478 140.478,239.811 139.5,239.5C 138.833,237.833 138.167,236.167 137.5,234.5C 138.833,234.5 139.5,233.833 139.5,232.5C 142.778,236.791 146.112,241.124 149.5,245.5C 148,245.833 146.5,246.167 145,246.5C 135.127,245.4 127.461,240.733 122,232.5C 116.578,222.987 112.244,212.987 109,202.5C 104.971,184.908 109.304,169.575 122,156.5C 129.445,132.888 145.278,118.555 169.5,113.5C 169.728,106.18 167.395,99.8467 162.5,94.5C 163.415,93.6721 164.081,92.6721 164.5,91.5C 163.954,89.8653 163.62,88.1986 163.5,86.5C 162.022,86.762 160.689,86.4287 159.5,85.5C 161.647,82.3276 161.147,79.3276 158,76.5C 157.667,77.1667 157.333,77.8333 157,78.5C 156.667,76.5 156.333,74.5 156,72.5C 155.439,71.9781 154.772,71.6448 154,71.5C 152.943,72.6274 151.777,73.1274 150.5,73C 151.505,71.4933 152.838,70.3267 154.5,69.5C 153.248,67.9991 152.248,66.3325 151.5,64.5C 150.675,63.6143 149.675,63.281 148.5,63.5C 148.884,61.3352 148.217,59.6685 146.5,58.5C 141.682,62.2133 141.348,61.5466 145.5,56.5C 140.77,50.8647 142.103,47.3647 149.5,46C 148.5,45.1667 147.5,44.3333 146.5,43.5C 146.833,43.1667 147.167,42.8333 147.5,42.5C 149.658,45.3304 152.324,45.9971 155.5,44.5C 154.833,43.5 154.167,42.5 153.5,41.5C 153.833,41.1667 154.167,40.8333 154.5,40.5C 155.892,41.6053 157.059,42.9386 158,44.5C 161.982,43.5341 165.815,42.2008 169.5,40.5C 174.712,40.6725 180.046,40.6725 185.5,40.5C 185.457,36.1074 185.957,35.7741 187,39.5C 189.861,38.0789 192.861,37.0789 196,36.5C 200.333,37.8333 204.667,37.8333 209,36.5C 209.374,37.4162 209.874,38.2496 210.5,39C 216.226,40.6966 221.559,43.1966 226.5,46.5C 227.192,45.9747 227.692,45.3081 228,44.5C 229.262,49.0355 232.095,50.8689 236.5,50C 235.289,50.8928 235.289,51.7261 236.5,52.5C 238.968,53.8029 241.301,55.3029 243.5,57C 245.419,58.9338 246.919,58.7671 248,56.5C 248.219,57.938 248.719,59.2713 249.5,60.5C 252.61,62.4327 255.61,64.5994 258.5,67C 259.449,67.6172 260.282,67.4506 261,66.5C 262.599,69.5585 265.099,71.5585 268.5,72.5C 269.192,71.9747 269.692,71.3081 270,70.5C 270.273,72.1012 270.773,73.6012 271.5,75C 276.506,77.8393 281.006,81.3393 285,85.5C 285.414,85.0426 285.914,84.7093 286.5,84.5C 288.014,89.3333 290.681,93.3333 294.5,96.5 Z"/></g>
<g><path style="opacity:1" fill="#e3aa82" d="M 129.5,149.5 C 136.568,154.63 144.568,156.963 153.5,156.5C 153.729,158.433 154.562,160.1 156,161.5C 156.666,173.183 156.499,184.85 155.5,196.5C 155.33,197.822 155.663,198.989 156.5,200C 158.833,200.333 161.167,200.667 163.5,201C 164.167,202 164.833,203 165.5,204C 169.791,204.252 173.457,202.752 176.5,199.5C 180.974,199.566 184.64,197.899 187.5,194.5C 189.38,188.011 189.714,181.511 188.5,175C 189.167,174.333 189.833,173.667 190.5,173C 197.203,172.287 203.87,172.454 210.5,173.5C 209.745,180.097 211.078,186.097 214.5,191.5C 217.377,199.934 223.044,202.434 231.5,199C 240.5,195.509 247.5,189.676 252.5,181.5C 254.386,180.639 256.22,179.639 258,178.5C 258.901,175.929 260.234,173.596 262,171.5C 264.081,173.324 263.915,174.991 261.5,176.5C 263.401,177.935 263.734,179.602 262.5,181.5C 261.749,180.624 261.249,179.624 261,178.5C 260.503,181.146 260.336,183.813 260.5,186.5C 256.644,190.515 252.311,194.015 247.5,197C 240.039,201.066 232.373,204.566 224.5,207.5C 222.833,207.5 221.167,207.5 219.5,207.5C 219.657,208.873 219.49,210.207 219,211.5C 217.16,210.167 216.66,210.334 217.5,212C 214.532,214.135 212.032,213.635 210,210.5C 208.155,211.756 206.155,212.756 204,213.5C 196.261,208.932 188.094,207.599 179.5,209.5C 175.588,209.624 171.921,210.624 168.5,212.5C 168.291,211.078 167.791,209.745 167,208.5C 165.388,208.952 164.388,210.285 164,212.5C 162.667,211.833 161.333,211.167 160,210.5C 158.406,211.573 156.906,212.573 155.5,213.5C 154.106,209.084 151.106,207.418 146.5,208.5C 146.5,207.167 146.5,205.833 146.5,204.5C 143.359,204.41 140.692,205.41 138.5,207.5C 137.167,207.167 135.833,206.833 134.5,206.5C 134.784,204.585 134.451,202.919 133.5,201.5C 133.67,200.178 133.337,199.011 132.5,198C 130.285,196.956 127.952,196.29 125.5,196C 124.167,195.333 124.167,194.667 125.5,194C 121.233,193.013 120.9,192.179 124.5,191.5C 124.5,190.5 124.5,189.5 124.5,188.5C 122.284,188.725 120.617,187.892 119.5,186C 124.474,184.91 129.141,183.077 133.5,180.5C 137.199,174.181 138.366,167.514 137,160.5C 136.586,160.957 136.086,161.291 135.5,161.5C 133.49,160.498 131.49,159.498 129.5,158.5C 131.184,157.146 131.684,155.479 131,153.5C 129.855,152.316 128.688,152.316 127.5,153.5C 127.66,151.847 128.326,150.514 129.5,149.5 Z"/></g>
<g><path style="opacity:1" fill="#ededeb" d="M 122.5,161.5 C 124.74,162.568 126.574,164.234 128,166.5C 128.498,169.482 128.665,172.482 128.5,175.5C 125.561,175.918 123.228,177.418 121.5,180C 119.866,180.494 118.199,180.66 116.5,180.5C 116.753,178.173 116.086,176.173 114.5,174.5C 123.337,175.484 125.67,171.984 121.5,164C 121.743,163.098 122.077,162.265 122.5,161.5 Z"/></g>
<g><path style="opacity:1" fill="#c4b152" d="M 220.5,161.5 C 217.275,162.65 213.942,163.816 210.5,165C 203.5,165.333 196.5,165.667 189.5,166C 187.963,167.707 186.296,169.207 184.5,170.5C 184.5,168.833 184.5,167.167 184.5,165.5C 186.277,165.214 187.944,164.547 189.5,163.5C 195.468,164.581 201.468,164.748 207.5,164C 211.754,162.686 216.087,161.853 220.5,161.5 Z"/></g>
<g><path style="opacity:1" fill="#daa887" d="M 260.5,186.5 C 260.336,183.813 260.503,181.146 261,178.5C 261.249,179.624 261.749,180.624 262.5,181.5C 263.734,179.602 263.401,177.935 261.5,176.5C 263.915,174.991 264.081,173.324 262,171.5C 260.234,173.596 258.901,175.929 258,178.5C 256.22,179.639 254.386,180.639 252.5,181.5C 254.317,179.988 255.317,177.988 255.5,175.5C 257.959,172.913 259.626,169.913 260.5,166.5C 249.814,166.254 239.481,168.087 229.5,172C 223.801,172.312 218.134,172.812 212.5,173.5C 212.119,178.802 213.119,183.802 215.5,188.5C 214.596,189.209 214.263,190.209 214.5,191.5C 211.078,186.097 209.745,180.097 210.5,173.5C 203.87,172.454 197.203,172.287 190.5,173C 189.833,173.667 189.167,174.333 188.5,175C 189.714,181.511 189.38,188.011 187.5,194.5C 184.64,197.899 180.974,199.566 176.5,199.5C 179.188,197.734 182.021,196.067 185,194.5C 185.547,187.821 186.213,181.155 187,174.5C 188.046,172.91 189.213,171.41 190.5,170C 199.615,169.935 208.615,168.935 217.5,167C 232.497,162.663 247.164,157.497 261.5,151.5C 266.159,155.321 269.159,160.155 270.5,166C 269.4,174.032 266.067,180.865 260.5,186.5 Z"/></g>
<g><path style="opacity:1" fill="#d3aa8f" d="M 133.5,201.5 C 125.589,198.107 118.922,192.94 113.5,186C 119.109,183.681 124.776,181.514 130.5,179.5C 134.393,175.503 135.393,170.836 133.5,165.5C 130.015,163.847 127.348,161.347 125.5,158C 126.044,156.415 126.711,154.915 127.5,153.5C 128.688,152.316 129.855,152.316 131,153.5C 131.684,155.479 131.184,157.146 129.5,158.5C 131.49,159.498 133.49,160.498 135.5,161.5C 136.086,161.291 136.586,160.957 137,160.5C 138.366,167.514 137.199,174.181 133.5,180.5C 129.141,183.077 124.474,184.91 119.5,186C 120.617,187.892 122.284,188.725 124.5,188.5C 124.5,189.5 124.5,190.5 124.5,191.5C 120.9,192.179 121.233,193.013 125.5,194C 124.167,194.667 124.167,195.333 125.5,196C 127.952,196.29 130.285,196.956 132.5,198C 133.337,199.011 133.67,200.178 133.5,201.5 Z"/></g>
<g><path style="opacity:1" fill="#d46f70" d="M 310.5,140.5 C 316.816,150.675 321.15,161.842 323.5,174C 323.006,176.505 321.672,178.339 319.5,179.5C 317.256,167.432 313.589,155.765 308.5,144.5C 309.63,143.378 310.297,142.044 310.5,140.5 Z"/></g>
<g><path style="opacity:1" fill="#eee5ac" d="M 159.5,120.5 C 155.535,126.15 150.201,129.817 143.5,131.5C 142.971,134.888 141.638,137.888 139.5,140.5C 143.795,144.647 148.462,148.313 153.5,151.5C 147.11,151.569 141.11,150.069 135.5,147C 134.101,145.938 133.101,144.605 132.5,143C 138.92,132.414 147.92,124.914 159.5,120.5 Z"/></g>
<g><path style="opacity:1" fill="#c22929" d="M 292.5,107.5 C 293.458,107.953 294.292,108.619 295,109.5C 295.464,108.906 295.631,108.239 295.5,107.5C 296.401,108.29 297.068,109.29 297.5,110.5C 296.903,110.735 296.57,111.235 296.5,112C 300.205,121.45 303.705,130.95 307,140.5C 307.333,141.167 307.667,141.833 308,142.5C 308.852,141.429 309.685,140.429 310.5,139.5C 310.5,139.833 310.5,140.167 310.5,140.5C 310.297,142.044 309.63,143.378 308.5,144.5C 313.589,155.765 317.256,167.432 319.5,179.5C 319.443,180.609 319.11,181.609 318.5,182.5C 317.622,184.873 315.955,185.706 313.5,185C 308.097,178.594 302.097,172.928 295.5,168C 293.833,167.667 292.167,167.333 290.5,167C 289.219,164.573 288.219,162.073 287.5,159.5C 290.5,159.5 293.5,159.5 296.5,159.5C 296.5,160.5 296.5,161.5 296.5,162.5C 294.833,162.5 293.167,162.5 291.5,162.5C 291.5,163.833 291.5,165.167 291.5,166.5C 293.199,166.66 294.866,166.494 296.5,166C 299.266,163.305 302.266,161.138 305.5,159.5C 305.5,156.833 305.5,154.167 305.5,151.5C 302.518,151.037 299.518,150.704 296.5,150.5C 295.935,144.224 296.102,137.89 297,131.5C 297.554,129.39 298.388,127.39 299.5,125.5C 299.167,124.833 298.833,124.167 298.5,123.5C 296.677,124.491 295.177,125.824 294,127.5C 290.112,122.761 291.278,119.761 297.5,118.5C 295.678,116.99 293.678,115.657 291.5,114.5C 290.403,116.229 289.237,117.896 288,119.5C 287.333,115.5 287.333,111.5 288,107.5C 288.941,109.061 290.108,110.395 291.5,111.5C 292.429,110.311 292.762,108.978 292.5,107.5 Z"/></g>
<g><path style="opacity:1" fill="#d1bb50" d="M 255.5,124.5 C 262.408,126.083 268.908,128.75 275,132.5C 278.348,141.239 280.848,150.239 282.5,159.5C 281.844,160.278 281.011,160.944 280,161.5C 279.5,161.167 279,160.833 278.5,160.5C 280.888,157.518 280.388,154.851 277,152.5C 276.667,152.833 276.333,153.167 276,153.5C 275.501,158.489 275.334,163.489 275.5,168.5C 276.552,168.351 277.552,168.517 278.5,169C 274.585,171.322 272.585,174.822 272.5,179.5C 270.843,182.226 268.843,184.559 266.5,186.5C 271.72,179.005 274.22,170.672 274,161.5C 272.37,157.941 270.37,154.608 268,151.5C 266.285,148.603 263.785,147.269 260.5,147.5C 261.946,146.387 263.613,146.22 265.5,147C 267.733,149.233 269.9,151.4 272,153.5C 273.221,152.728 274.221,151.728 275,150.5C 275.905,146.181 276.238,141.848 276,137.5C 272.353,134.612 268.353,132.279 264,130.5C 262.706,131.854 262.54,133.188 263.5,134.5C 263.167,135.5 262.5,136.167 261.5,136.5C 260.024,134.429 258.024,133.429 255.5,133.5C 255.5,132.167 255.5,130.833 255.5,129.5C 257.924,129.808 260.257,129.474 262.5,128.5C 259.573,127.889 257.24,126.556 255.5,124.5 Z"/></g>
<g><path style="opacity:1" fill="#ddc242" d="M 171.5,120.5 C 171.833,122.5 172.167,124.5 172.5,126.5C 173.5,126.5 174.5,126.5 175.5,126.5C 182.798,126.016 189.465,123.85 195.5,120C 210.162,118.433 224.829,118.266 239.5,119.5C 245.168,120.391 250.502,122.058 255.5,124.5C 257.24,126.556 259.573,127.889 262.5,128.5C 260.257,129.474 257.924,129.808 255.5,129.5C 255.5,130.833 255.5,132.167 255.5,133.5C 258.024,133.429 260.024,134.429 261.5,136.5C 262.5,136.167 263.167,135.5 263.5,134.5C 262.54,133.188 262.706,131.854 264,130.5C 268.353,132.279 272.353,134.612 276,137.5C 276.238,141.848 275.905,146.181 275,150.5C 274.221,151.728 273.221,152.728 272,153.5C 269.9,151.4 267.733,149.233 265.5,147C 263.613,146.22 261.946,146.387 260.5,147.5C 247.521,153.081 234.188,157.748 220.5,161.5C 216.087,161.853 211.754,162.686 207.5,164C 201.468,164.748 195.468,164.581 189.5,163.5C 187.944,164.547 186.277,165.214 184.5,165.5C 184.5,167.167 184.5,168.833 184.5,170.5C 184.217,171.289 183.717,171.956 183,172.5C 182.496,179.212 181.662,185.878 180.5,192.5C 176.156,194.671 172.156,197.337 168.5,200.5C 167.478,200.145 166.811,199.478 166.5,198.5C 168.058,183.735 167.225,169.068 164,154.5C 162.152,151.959 159.652,150.959 156.5,151.5C 155.5,151.5 154.5,151.5 153.5,151.5C 148.462,148.313 143.795,144.647 139.5,140.5C 141.638,137.888 142.971,134.888 143.5,131.5C 150.201,129.817 155.535,126.15 159.5,120.5C 159.611,119.883 159.944,119.383 160.5,119C 163.827,118.39 167.161,117.89 170.5,117.5C 170.263,118.791 170.596,119.791 171.5,120.5 Z"/></g>
<g><path style="opacity:1" fill="#dd7271" d="M 297.5,110.5 C 302.672,119.839 307.005,129.506 310.5,139.5C 309.685,140.429 308.852,141.429 308,142.5C 307.667,141.833 307.333,141.167 307,140.5C 303.705,130.95 300.205,121.45 296.5,112C 296.57,111.235 296.903,110.735 297.5,110.5 Z"/></g>
<g><path style="opacity:1" fill="#a0292d" d="M 262.5,121.5 C 266.633,122.898 270.966,123.731 275.5,124C 277.342,125.346 278.342,127.179 278.5,129.5C 272.935,127.111 267.601,124.444 262.5,121.5 Z"/></g>
<g><path style="opacity:1" fill="#a13036" d="M 170.5,95.5 C 172.478,100.455 173.812,105.789 174.5,111.5C 173.651,109.112 172.651,106.779 171.5,104.5C 171.492,101.455 171.159,98.4552 170.5,95.5 Z"/></g>
<g><path style="opacity:1" fill="#c12928" d="M 283.5,140.5 C 282.136,136.806 280.469,133.14 278.5,129.5C 278.342,127.179 277.342,125.346 275.5,124C 270.966,123.731 266.633,122.898 262.5,121.5C 254.556,120.025 246.889,117.692 239.5,114.5C 236.914,113.52 234.247,113.187 231.5,113.5C 222.507,112.588 213.34,111.922 204,111.5C 201.5,111.833 199,112.167 196.5,112.5C 195.757,113.182 195.091,113.849 194.5,114.5C 188.225,116.957 181.892,119.29 175.5,121.5C 175.5,118.833 175.5,116.167 175.5,113.5C 181.682,111.913 188.015,111.079 194.5,111C 200.36,104.285 207.36,102.785 215.5,106.5C 223.452,105.172 231.452,104.506 239.5,104.5C 239.5,106.833 239.5,109.167 239.5,111.5C 246.894,111.009 253.894,112.342 260.5,115.5C 262.318,114.364 264.318,113.697 266.5,113.5C 268.044,113.79 269.377,114.456 270.5,115.5C 271.623,114.456 272.956,113.79 274.5,113.5C 277.14,114.095 279.807,114.428 282.5,114.5C 281.425,118.938 283.092,120.938 287.5,120.5C 287.649,121.552 287.483,122.552 287,123.5C 279.632,120.063 277.465,121.896 280.5,129C 282.085,130.289 283.419,131.789 284.5,133.5C 283.777,135.782 283.443,138.116 283.5,140.5 Z"/></g>
<g><path style="opacity:1" fill="#6a1618" d="M 231.5,113.5 C 222.473,113.749 213.473,113.416 204.5,112.5C 201.154,113.17 197.821,113.837 194.5,114.5C 195.091,113.849 195.757,113.182 196.5,112.5C 199,112.167 201.5,111.833 204,111.5C 213.34,111.922 222.507,112.588 231.5,113.5 Z"/></g>
<g><path style="opacity:1" fill="#e17274" d="M 274.5,83.5 C 275.552,83.3505 276.552,83.5172 277.5,84C 285.084,90.6931 291.084,98.5264 295.5,107.5C 295.631,108.239 295.464,108.906 295,109.5C 294.292,108.619 293.458,107.953 292.5,107.5C 287.016,98.8496 280.016,91.683 271.5,86C 272.942,85.6232 273.942,84.7899 274.5,83.5 Z"/></g>
<g><path style="opacity:1" fill="#be2a2c" d="M 175.5,48.5 C 170.05,50.2527 164.383,51.9194 158.5,53.5C 157.264,52.7542 155.93,52.4208 154.5,52.5C 156.567,55.7891 157.901,59.4557 158.5,63.5C 161.568,61.5434 164.901,61.0434 168.5,62C 169.973,62.7096 170.64,63.8762 170.5,65.5C 172.143,65.5198 173.476,64.8532 174.5,63.5C 174.833,64 175.167,64.5 175.5,65C 174.158,67.694 173.158,70.5274 172.5,73.5C 170.265,70.7089 168.265,67.7089 166.5,64.5C 164.353,63.1647 162.353,63.3314 160.5,65C 163.748,69.3202 165.414,74.1535 165.5,79.5C 163.337,76.1351 160.837,72.8018 158,69.5C 156.521,63.8923 154.021,58.8923 150.5,54.5C 152.221,52.3057 154.555,51.139 157.5,51C 163.448,49.7454 169.448,48.9121 175.5,48.5 Z"/></g>
<g><path style="opacity:1" fill="#e87476" d="M 185.5,45.5 C 196.595,43.5909 207.595,44.4243 218.5,48C 223.03,50.7649 227.697,53.2649 232.5,55.5C 244.925,62.7397 257.259,70.2397 269.5,78C 271.737,79.3996 273.404,81.233 274.5,83.5C 272.011,83.7022 269.677,83.2022 267.5,82C 260.437,77.475 253.771,72.475 247.5,67C 236.603,61.7696 225.936,56.1029 215.5,50C 205.719,47.0922 195.719,45.5922 185.5,45.5 Z"/></g>
<g><path style="opacity:1" fill="#c82627" d="M 185.5,45.5 C 195.719,45.5922 205.719,47.0922 215.5,50C 225.936,56.1029 236.603,61.7696 247.5,67C 253.771,72.475 260.437,77.475 267.5,82C 269.677,83.2022 272.011,83.7022 274.5,83.5C 273.942,84.7899 272.942,85.6232 271.5,86C 280.016,91.683 287.016,98.8496 292.5,107.5C 292.762,108.978 292.429,110.311 291.5,111.5C 290.108,110.395 288.941,109.061 288,107.5C 287.333,111.5 287.333,115.5 288,119.5C 289.237,117.896 290.403,116.229 291.5,114.5C 293.678,115.657 295.678,116.99 297.5,118.5C 291.278,119.761 290.112,122.761 294,127.5C 295.177,125.824 296.677,124.491 298.5,123.5C 298.833,124.167 299.167,124.833 299.5,125.5C 298.388,127.39 297.554,129.39 297,131.5C 296.102,137.89 295.935,144.224 296.5,150.5C 299.518,150.704 302.518,151.037 305.5,151.5C 305.5,154.167 305.5,156.833 305.5,159.5C 302.266,161.138 299.266,163.305 296.5,166C 294.866,166.494 293.199,166.66 291.5,166.5C 291.5,165.167 291.5,163.833 291.5,162.5C 293.167,162.5 294.833,162.5 296.5,162.5C 296.5,161.5 296.5,160.5 296.5,159.5C 293.5,159.5 290.5,159.5 287.5,159.5C 284.55,153.615 283.217,147.281 283.5,140.5C 283.443,138.116 283.777,135.782 284.5,133.5C 283.419,131.789 282.085,130.289 280.5,129C 277.465,121.896 279.632,120.063 287,123.5C 287.483,122.552 287.649,121.552 287.5,120.5C 283.092,120.938 281.425,118.938 282.5,114.5C 279.807,114.428 277.14,114.095 274.5,113.5C 272.956,113.79 271.623,114.456 270.5,115.5C 269.377,114.456 268.044,113.79 266.5,113.5C 264.318,113.697 262.318,114.364 260.5,115.5C 253.894,112.342 246.894,111.009 239.5,111.5C 239.5,109.167 239.5,106.833 239.5,104.5C 231.452,104.506 223.452,105.172 215.5,106.5C 207.36,102.785 200.36,104.285 194.5,111C 188.015,111.079 181.682,111.913 175.5,113.5C 175.672,112.508 175.338,111.842 174.5,111.5C 173.812,105.789 172.478,100.455 170.5,95.5C 167.729,90.5969 166.063,85.2636 165.5,79.5C 165.414,74.1535 163.748,69.3202 160.5,65C 162.353,63.3314 164.353,63.1647 166.5,64.5C 168.265,67.7089 170.265,70.7089 172.5,73.5C 173.158,70.5274 174.158,67.694 175.5,65C 175.167,64.5 174.833,64 174.5,63.5C 173.476,64.8532 172.143,65.5198 170.5,65.5C 170.64,63.8762 169.973,62.7096 168.5,62C 164.901,61.0434 161.568,61.5434 158.5,63.5C 157.901,59.4557 156.567,55.7891 154.5,52.5C 155.93,52.4208 157.264,52.7542 158.5,53.5C 164.383,51.9194 170.05,50.2527 175.5,48.5C 178.688,47.0181 182.021,46.0181 185.5,45.5 Z"/></g>
<g><path style="opacity:1" fill="#5c2628" d="M 180.5,44.5 C 175.668,45.3996 170.668,46.0662 165.5,46.5C 166.263,45.7321 167.263,45.2321 168.5,45C 172.486,44.5012 176.486,44.3345 180.5,44.5 Z"/></g>
<g><path style="opacity:1" fill="#d8777b" d="M 232.5,55.5 C 227.697,53.2649 223.03,50.7649 218.5,48C 207.595,44.4243 196.595,43.5909 185.5,45.5C 182.021,46.0181 178.688,47.0181 175.5,48.5C 169.448,48.9121 163.448,49.7454 157.5,51C 154.555,51.139 152.221,52.3057 150.5,54.5C 148.468,53.9522 147.468,52.6188 147.5,50.5C 153.453,48.9604 159.453,47.6271 165.5,46.5C 170.668,46.0662 175.668,45.3996 180.5,44.5C 190.799,43.4063 201.133,43.2397 211.5,44C 219.14,46.817 226.14,50.6503 232.5,55.5 Z"/></g>
<g><path style="opacity:1" fill="#120c0c" d="M 255.5,175.5 C 251.105,178.775 247.772,182.942 245.5,188C 241.759,190.732 237.759,193.066 233.5,195C 225.891,197.019 219.891,194.853 215.5,188.5C 213.119,183.802 212.119,178.802 212.5,173.5C 218.134,172.812 223.801,172.312 229.5,172C 239.481,168.087 249.814,166.254 260.5,166.5C 259.626,169.913 257.959,172.913 255.5,175.5 Z"/></g>
<g><path style="opacity:1" fill="#ececed" d="M 243.5,170.5 C 245.948,170.085 247.281,171.085 247.5,173.5C 244.83,184.504 237.83,189.671 226.5,189C 225.069,188.535 223.903,187.701 223,186.5C 222.502,183.518 222.335,180.518 222.5,177.5C 229.615,175.439 236.615,173.105 243.5,170.5 Z"/></g>
<g><path style="opacity:1" fill="#979696" d="M 239.5,179.5 C 240.833,180.833 240.833,182.167 239.5,183.5C 238.282,182.839 236.949,182.172 235.5,181.5C 236.638,179.64 237.971,178.973 239.5,179.5 Z"/></g>
<g><path style="opacity:1" fill="#151515" d="M 239.5,179.5 C 237.971,178.973 236.638,179.64 235.5,181.5C 236.949,182.172 238.282,182.839 239.5,183.5C 236.601,187.65 234.267,187.316 232.5,182.5C 233.108,179.674 234.108,177.008 235.5,174.5C 237.611,175.605 238.945,177.271 239.5,179.5 Z"/></g>
<g><path style="opacity:1" fill="#f5eab0" d="M 156.5,151.5 C 159.652,150.959 162.152,151.959 164,154.5C 167.225,169.068 168.058,183.735 166.5,198.5C 164.087,197.126 162.421,195.126 161.5,192.5C 162.586,183.188 162.752,173.855 162,164.5C 161.456,159.536 159.623,155.203 156.5,151.5 Z"/></g>
<g><path style="opacity:1" fill="#e4c0a9" d="M 255.5,175.5 C 255.317,177.988 254.317,179.988 252.5,181.5C 247.5,189.676 240.5,195.509 231.5,199C 223.044,202.434 217.377,199.934 214.5,191.5C 214.263,190.209 214.596,189.209 215.5,188.5C 219.891,194.853 225.891,197.019 233.5,195C 237.759,193.066 241.759,190.732 245.5,188C 247.772,182.942 251.105,178.775 255.5,175.5 Z"/></g>
<g><path style="opacity:1" fill="#cba48a" d="M 155.5,196.5 C 156.499,184.85 156.666,173.183 156,161.5C 154.562,160.1 153.729,158.433 153.5,156.5C 144.568,156.963 136.568,154.63 129.5,149.5C 129.56,148.957 129.893,148.624 130.5,148.5C 137.732,153.474 145.732,155.974 154.5,156C 155,156.5 155.5,157 156,157.5C 158.439,168.026 159.106,178.693 158,189.5C 157.844,192.191 157.011,194.524 155.5,196.5 Z"/></g>
<g><path style="opacity:1" fill="#fbed9a" d="M 116.5,196.5 C 118.825,204.641 121.491,212.641 124.5,220.5C 119.506,214.324 116.506,207.158 115.5,199C 115.528,197.93 115.861,197.097 116.5,196.5 Z"/></g>
<g><path style="opacity:1" fill="#dcc242" d="M 282.5,159.5 C 283.434,160.568 283.768,161.901 283.5,163.5C 285.146,169.244 282.813,171.91 276.5,171.5C 275.01,183.893 275.343,196.227 277.5,208.5C 277.154,209.696 276.654,209.696 276,208.5C 275.667,209.5 275.333,210.5 275,211.5C 274.667,211.167 274.333,210.833 274,210.5C 273.51,211.793 273.343,213.127 273.5,214.5C 270.004,216.313 267.004,218.98 264.5,222.5C 263.675,223.386 262.675,223.719 261.5,223.5C 261.5,224.833 261.5,226.167 261.5,227.5C 250.937,237.055 239.27,245.055 226.5,251.5C 225.788,248.258 225.788,244.925 226.5,241.5C 228.076,238.648 229.576,235.648 231,232.5C 231.5,225.842 231.666,219.175 231.5,212.5C 234.442,211.696 237.109,210.362 239.5,208.5C 244.812,204.863 250.146,201.196 255.5,197.5C 259.016,193.597 262.682,189.93 266.5,186.5C 268.843,184.559 270.843,182.226 272.5,179.5C 272.585,174.822 274.585,171.322 278.5,169C 277.552,168.517 276.552,168.351 275.5,168.5C 275.334,163.489 275.501,158.489 276,153.5C 276.333,153.167 276.667,152.833 277,152.5C 280.388,154.851 280.888,157.518 278.5,160.5C 279,160.833 279.5,161.167 280,161.5C 281.011,160.944 281.844,160.278 282.5,159.5 Z"/></g>
<g><path style="opacity:1" fill="#928442" d="M 125.5,202.5 C 127.17,202.751 128.67,203.418 130,204.5C 131.108,208.086 131.608,211.753 131.5,215.5C 130.571,212.325 129.738,208.991 129,205.5C 127.271,205.026 126.105,204.026 125.5,202.5 Z"/></g>
<g><path style="opacity:1" fill="#bc9174" d="M 168.5,212.5 C 167.737,213.268 166.737,213.768 165.5,214C 157.87,215.087 150.537,214.087 143.5,211C 141.654,209.97 139.987,208.804 138.5,207.5C 140.692,205.41 143.359,204.41 146.5,204.5C 146.5,205.833 146.5,207.167 146.5,208.5C 151.106,207.418 154.106,209.084 155.5,213.5C 156.906,212.573 158.406,211.573 160,210.5C 161.333,211.167 162.667,211.833 164,212.5C 164.388,210.285 165.388,208.952 167,208.5C 167.791,209.745 168.291,211.078 168.5,212.5 Z"/></g>
<g><path style="opacity:1" fill="#e8e0aa" d="M 255.5,197.5 C 250.146,201.196 244.812,204.863 239.5,208.5C 233.791,209.444 229.624,212.444 227,217.5C 226.5,225.493 226.334,233.493 226.5,241.5C 225.788,244.925 225.788,248.258 226.5,251.5C 224.614,252.361 222.78,253.361 221,254.5C 220.601,254.272 220.435,253.938 220.5,253.5C 222.585,249.417 223.918,245.083 224.5,240.5C 225.33,231.342 225.83,222.009 226,212.5C 235.777,207.361 245.611,202.361 255.5,197.5 Z"/></g>
<g><path style="opacity:1" fill="#7d5f3f" d="M 57.5,154.5 C 57.8376,172.357 58.8376,190.024 60.5,207.5C 62.8556,223.693 63.8556,240.026 63.5,256.5C 63.0825,260.074 61.0825,262.407 57.5,263.5C 54.6155,227.619 53.1155,191.619 53,155.5C 52.79,157.058 52.29,158.391 51.5,159.5C 51.5,157.833 51.5,156.167 51.5,154.5C 53.5,154.5 55.5,154.5 57.5,154.5 Z"/></g>
<g><path style="opacity:1" fill="#c3987f" d="M 224.5,207.5 C 223.306,208.272 222.306,209.272 221.5,210.5C 221.714,212.144 221.38,213.644 220.5,215C 213.491,216.946 206.491,216.946 199.5,215C 198.023,212.852 196.023,211.518 193.5,211C 188.898,209.878 184.232,209.378 179.5,209.5C 188.094,207.599 196.261,208.932 204,213.5C 206.155,212.756 208.155,211.756 210,210.5C 212.032,213.635 214.532,214.135 217.5,212C 216.66,210.334 217.16,210.167 219,211.5C 219.49,210.207 219.657,208.873 219.5,207.5C 221.167,207.5 222.833,207.5 224.5,207.5 Z"/></g>
<g><path style="opacity:1" fill="#d8c04b" d="M 116.5,195.5 C 119.238,198.246 122.238,200.58 125.5,202.5C 126.105,204.026 127.271,205.026 129,205.5C 129.738,208.991 130.571,212.325 131.5,215.5C 132.078,218.28 132.745,220.947 133.5,223.5C 134.025,227.533 135.358,231.2 137.5,234.5C 138.167,236.167 138.833,237.833 139.5,239.5C 137.61,239.703 136.11,239.037 135,237.5C 133.4,233.903 131.067,230.903 128,228.5C 126.544,225.924 125.377,223.258 124.5,220.5C 121.491,212.641 118.825,204.641 116.5,196.5C 116.5,196.167 116.5,195.833 116.5,195.5 Z"/></g>
<g><path style="opacity:1" fill="#070405" d="M 134.5,206.5 C 135.833,206.833 137.167,207.167 138.5,207.5C 139.987,208.804 141.654,209.97 143.5,211C 150.537,214.087 157.87,215.087 165.5,214C 166.737,213.768 167.737,213.268 168.5,212.5C 171.921,210.624 175.588,209.624 179.5,209.5C 184.232,209.378 188.898,209.878 193.5,211C 196.023,211.518 198.023,212.852 199.5,215C 206.491,216.946 213.491,216.946 220.5,215C 221.38,213.644 221.714,212.144 221.5,210.5C 222.458,210.953 223.292,211.619 224,212.5C 224.5,221.827 224.666,231.161 224.5,240.5C 223.918,245.083 222.585,249.417 220.5,253.5C 219.295,255.138 217.962,255.471 216.5,254.5C 214.752,251.547 212.419,249.047 209.5,247C 200.784,244.141 192.451,240.474 184.5,236C 171.988,233.297 159.321,231.797 146.5,231.5C 143.809,231.321 141.475,230.321 139.5,228.5C 138.708,229.7 138.708,231.033 139.5,232.5C 139.5,233.833 138.833,234.5 137.5,234.5C 135.358,231.2 134.025,227.533 133.5,223.5C 133.534,219.141 133.201,214.808 132.5,210.5C 132.585,208.667 133.252,207.334 134.5,206.5 Z"/></g>
<g><path style="opacity:1" fill="#704e2f" d="M 180.5,216.5 C 182.369,217.165 184.369,217.831 186.5,218.5C 184.027,219.797 181.693,219.797 179.5,218.5C 179.328,217.508 179.662,216.842 180.5,216.5 Z"/></g>
<g><path style="opacity:1" fill="#cea690" d="M 179.5,218.5 C 181.693,219.797 184.027,219.797 186.5,218.5C 184.369,217.831 182.369,217.165 180.5,216.5C 183.723,215.075 186.89,215.408 190,217.5C 190.667,218.5 190.667,219.5 190,220.5C 185.263,221.469 180.43,221.803 175.5,221.5C 175.5,220.5 175.5,219.5 175.5,218.5C 176.833,218.5 178.167,218.5 179.5,218.5 Z"/></g>
<g><path style="opacity:1" fill="#c9b759" d="M 283.5,163.5 C 288.197,168.177 287.197,171.344 280.5,173C 278.951,174.214 277.785,175.714 277,177.5C 276.496,188.575 276.83,199.575 278,210.5C 272.996,216.67 267.496,222.337 261.5,227.5C 261.5,226.167 261.5,224.833 261.5,223.5C 262.675,223.719 263.675,223.386 264.5,222.5C 267.004,218.98 270.004,216.313 273.5,214.5C 273.343,213.127 273.51,211.793 274,210.5C 274.333,210.833 274.667,211.167 275,211.5C 275.333,210.5 275.667,209.5 276,208.5C 276.654,209.696 277.154,209.696 277.5,208.5C 275.343,196.227 275.01,183.893 276.5,171.5C 282.813,171.91 285.146,169.244 283.5,163.5 Z"/></g>
<g><path style="opacity:1" fill="#ede5af" d="M 116.5,195.5 C 116.5,195.833 116.5,196.167 116.5,196.5C 115.861,197.097 115.528,197.93 115.5,199C 116.506,207.158 119.506,214.324 124.5,220.5C 125.377,223.258 126.544,225.924 128,228.5C 131.067,230.903 133.4,233.903 135,237.5C 136.11,239.037 137.61,239.703 139.5,239.5C 140.478,239.811 141.145,240.478 141.5,241.5C 138.402,241.869 135.402,241.036 132.5,239C 120.964,224.76 113.631,208.594 110.5,190.5C 113.712,190.712 115.712,192.379 116.5,195.5 Z"/></g>
<g><path style="opacity:1" fill="#fcf1a7" d="M 239.5,208.5 C 237.109,210.362 234.442,211.696 231.5,212.5C 231.666,219.175 231.5,225.842 231,232.5C 229.576,235.648 228.076,238.648 226.5,241.5C 226.334,233.493 226.5,225.493 227,217.5C 229.624,212.444 233.791,209.444 239.5,208.5 Z"/></g>
<g><path style="opacity:1" fill="#e07375" d="M 367.5,255.5 C 354.833,252.915 342.166,253.082 329.5,256C 318.679,260.275 308.012,264.942 297.5,270C 289.936,275.744 282.27,281.244 274.5,286.5C 277.404,280.593 281.737,275.926 287.5,272.5C 297.76,266.203 308.427,260.703 319.5,256C 333.914,251.953 348.581,250.619 363.5,252C 365.319,252.74 366.652,253.907 367.5,255.5 Z"/></g>
<g><path style="opacity:1" fill="#211917" d="M 52.5,223.5 C 53.8882,236.643 54.5548,249.976 54.5,263.5C 55.5,263.5 56.5,263.5 57.5,263.5C 61.0825,262.407 63.0825,260.074 63.5,256.5C 64.2216,256.918 64.7216,257.584 65,258.5C 65.4997,250.173 65.6664,241.84 65.5,233.5C 66.492,240.982 66.8254,248.648 66.5,256.5C 77.0844,256.748 82.0844,262.081 81.5,272.5C 86.3329,272.375 90.9996,273.208 95.5,275C 101.833,278.667 108.167,282.333 114.5,286C 122.397,294.917 128.23,305.084 132,316.5C 140.479,308.014 150.312,301.681 161.5,297.5C 161.577,298.75 162.244,299.583 163.5,300C 163.272,300.399 162.938,300.565 162.5,300.5C 153.327,303.42 144.994,307.92 137.5,314C 134.836,316.669 133.002,319.836 132,323.5C 128.725,315.012 125.058,306.679 121,298.5C 119.052,294.387 116.219,291.054 112.5,288.5C 112.158,287.662 111.492,287.328 110.5,287.5C 105.232,283.524 99.5657,280.024 93.5,277C 88.9342,275.691 84.2675,275.191 79.5,275.5C 77.1515,279.694 73.4848,281.694 68.5,281.5C 68.44,280.957 68.1067,280.624 67.5,280.5C 66.8333,281.167 66.1667,281.833 65.5,282.5C 64.7201,279.19 64.7201,276.19 65.5,273.5C 63.6948,271.803 61.3615,270.97 58.5,271C 53.4904,264.585 50.1571,265.419 48.5,273.5C 53.0323,273.182 57.3656,273.515 61.5,274.5C 58.4816,274.335 55.4816,274.502 52.5,275C 55.8168,275.498 59.1501,275.665 62.5,275.5C 62.7947,277.735 62.4614,279.735 61.5,281.5C 61.5,279.833 61.5,278.167 61.5,276.5C 56.3752,276.235 51.3752,276.235 46.5,276.5C 45.8333,277.5 45.1667,278.5 44.5,279.5C 43.9033,279.265 43.5699,278.765 43.5,278C 44.1413,272.52 46.4746,268.02 50.5,264.5C 51.4973,257.197 51.8306,249.863 51.5,242.5C 52.4902,236.355 52.8235,230.022 52.5,223.5 Z"/></g>
<g><path style="opacity:1" fill="#c82627" d="M 367.5,255.5 C 370.929,258.75 374.596,261.917 378.5,265C 385.584,268.542 392.584,272.042 399.5,275.5C 399.5,316.833 399.5,358.167 399.5,399.5C 395.833,399.5 392.167,399.5 388.5,399.5C 381.287,382.936 371.953,367.603 360.5,353.5C 360.762,352.022 360.429,350.689 359.5,349.5C 355.135,346.986 350.801,344.486 346.5,342C 347.337,340.989 347.67,339.822 347.5,338.5C 345.143,338.663 342.81,338.497 340.5,338C 339.347,336.117 337.681,335.284 335.5,335.5C 329.554,333.529 324.221,330.529 319.5,326.5C 317.497,323.502 314.83,321.169 311.5,319.5C 310.962,314.624 308.295,312.29 303.5,312.5C 303.5,311.167 303.5,309.833 303.5,308.5C 302.5,308.5 301.5,308.5 300.5,308.5C 300.5,309.5 300.5,310.5 300.5,311.5C 297.962,310.957 295.628,309.957 293.5,308.5C 292.522,305.675 290.522,304.342 287.5,304.5C 285.492,302.732 283.326,301.066 281,299.5C 279.928,295.02 277.594,291.353 274,288.5C 273.308,287.563 273.475,286.897 274.5,286.5C 282.27,281.244 289.936,275.744 297.5,270C 308.012,264.942 318.679,260.275 329.5,256C 342.166,253.082 354.833,252.915 367.5,255.5 Z"/></g>
<g><path style="opacity:1" fill="#d9b096" d="M 74.5,276.5 C 73.0101,278.28 71.0101,278.946 68.5,278.5C 68.2161,275.223 68.5495,272.057 69.5,269C 65.8484,268.501 62.1817,268.335 58.5,268.5C 58.2865,266.856 58.6198,265.356 59.5,264C 63.2317,263.634 66.2317,261.968 68.5,259C 75.8038,259.975 78.9704,264.142 78,271.5C 77.3028,273.584 76.1361,275.251 74.5,276.5 Z"/></g>
<g><path style="opacity:1" fill="#e5aa80" d="M 74.5,276.5 C 73.1667,276.5 71.8333,276.5 70.5,276.5C 71.1143,272.865 71.4476,269.198 71.5,265.5C 70.448,265.649 69.448,265.483 68.5,265C 71.1678,260.319 73.6678,260.485 76,265.5C 76.5746,269.376 76.0746,273.042 74.5,276.5 Z"/></g>
<g><path style="opacity:1" fill="#db7477" d="M 367.5,255.5 C 378.447,260.974 389.114,266.974 399.5,273.5C 399.5,274.167 399.5,274.833 399.5,275.5C 392.584,272.042 385.584,268.542 378.5,265C 374.596,261.917 370.929,258.75 367.5,255.5 Z"/></g>
<g><path style="opacity:1" fill="#d4a88c" d="M 65.5,273.5 C 64.2921,274.234 62.9587,274.567 61.5,274.5C 57.3656,273.515 53.0323,273.182 48.5,273.5C 50.1571,265.419 53.4904,264.585 58.5,271C 61.3615,270.97 63.6948,271.803 65.5,273.5 Z"/></g>
<g><path style="opacity:1" fill="#dcb197" d="M 61.5,281.5 C 57.6888,282.645 53.6888,282.812 49.5,282C 47.393,280.736 46.393,278.903 46.5,276.5C 51.3752,276.235 56.3752,276.235 61.5,276.5C 61.5,278.167 61.5,279.833 61.5,281.5 Z"/></g>
<g><path style="opacity:1" fill="#180e0b" d="M 171.5,104.5 C 172.651,106.779 173.651,109.112 174.5,111.5C 175.338,111.842 175.672,112.508 175.5,113.5C 175.5,116.167 175.5,118.833 175.5,121.5C 181.892,119.29 188.225,116.957 194.5,114.5C 197.821,113.837 201.154,113.17 204.5,112.5C 213.473,113.416 222.473,113.749 231.5,113.5C 234.247,113.187 236.914,113.52 239.5,114.5C 246.889,117.692 254.556,120.025 262.5,121.5C 267.601,124.444 272.935,127.111 278.5,129.5C 280.469,133.14 282.136,136.806 283.5,140.5C 283.217,147.281 284.55,153.615 287.5,159.5C 288.219,162.073 289.219,164.573 290.5,167C 292.167,167.333 293.833,167.667 295.5,168C 302.097,172.928 308.097,178.594 313.5,185C 315.955,185.706 317.622,184.873 318.5,182.5C 318.433,183.959 318.766,185.292 319.5,186.5C 319.264,188.973 317.931,190.64 315.5,191.5C 320.521,204.542 327.354,216.542 336,227.5C 356.118,242.808 377.284,256.474 399.5,268.5C 399.5,270.167 399.5,271.833 399.5,273.5C 389.114,266.974 378.447,260.974 367.5,255.5C 366.652,253.907 365.319,252.74 363.5,252C 348.581,250.619 333.914,251.953 319.5,256C 308.427,260.703 297.76,266.203 287.5,272.5C 281.737,275.926 277.404,280.593 274.5,286.5C 273.475,286.897 273.308,287.563 274,288.5C 277.594,291.353 279.928,295.02 281,299.5C 283.326,301.066 285.492,302.732 287.5,304.5C 289.223,306.218 291.223,307.551 293.5,308.5C 301.159,315.993 309.826,321.993 319.5,326.5C 324.221,330.529 329.554,333.529 335.5,335.5C 344.347,340.783 352.68,346.783 360.5,353.5C 371.953,367.603 381.287,382.936 388.5,399.5C 387.167,399.5 385.833,399.5 384.5,399.5C 377.673,384.181 369.006,370.014 358.5,357C 353.373,351.939 347.707,347.606 341.5,344C 321.118,334.151 302.452,321.817 285.5,307C 284.552,306.517 283.552,306.351 282.5,306.5C 282.509,308.308 282.009,309.975 281,311.5C 271.681,322.162 260.181,325.995 246.5,323C 240.383,318.841 237.383,313.008 237.5,305.5C 237.5,304.5 237.5,303.5 237.5,302.5C 232.833,302.5 228.167,302.5 223.5,302.5C 211.954,300.715 200.287,299.715 188.5,299.5C 179.7,303.302 174.7,309.969 173.5,319.5C 172.883,319.611 172.383,319.944 172,320.5C 166.088,338.388 163.421,356.722 164,375.5C 164.098,378.522 164.932,381.189 166.5,383.5C 170.56,392.24 177.227,397.573 186.5,399.5C 182.5,399.5 178.5,399.5 174.5,399.5C 163.849,390.148 156.849,378.481 153.5,364.5C 146.622,371.61 138.289,374.776 128.5,374C 120.728,373.787 115.394,370.121 112.5,363C 105.961,361.45 100.794,357.95 97,352.5C 90.5849,340.01 85.5849,327.01 82,313.5C 79.5971,311.695 77.9305,309.362 77,306.5C 75.6218,304.787 73.9552,303.453 72,302.5C 72.7267,308.763 73.3933,315.097 74,321.5C 74.4123,347.504 74.9123,373.504 75.5,399.5C 74.5,399.5 73.5,399.5 72.5,399.5C 72.0063,372.835 71.5063,346.168 71,319.5C 70.491,312.782 69.6577,306.115 68.5,299.5C 66.4471,299.402 64.7804,300.069 63.5,301.5C 60.7531,301.187 58.0865,301.52 55.5,302.5C 56.9239,312.503 58.4239,322.503 60,332.5C 60.3744,354.855 61.2078,377.189 62.5,399.5C 61.8333,399.5 61.1667,399.5 60.5,399.5C 58.4905,369.527 56.6571,339.527 55,309.5C 54.587,306.768 53.9203,304.101 53,301.5C 51.3333,300.833 49.6667,300.167 48,299.5C 46.5137,292.872 45.347,286.205 44.5,279.5C 45.1667,278.5 45.8333,277.5 46.5,276.5C 46.393,278.903 47.393,280.736 49.5,282C 53.6888,282.812 57.6888,282.645 61.5,281.5C 62.4614,279.735 62.7947,277.735 62.5,275.5C 59.1501,275.665 55.8168,275.498 52.5,275C 55.4816,274.502 58.4816,274.335 61.5,274.5C 62.9587,274.567 64.2921,274.234 65.5,273.5C 64.7201,276.19 64.7201,279.19 65.5,282.5C 66.1667,281.833 66.8333,281.167 67.5,280.5C 68.1067,280.624 68.44,280.957 68.5,281.5C 68.9981,286.152 69.3314,290.819 69.5,295.5C 72.1569,295.838 74.4902,295.171 76.5,293.5C 76.8333,293.833 77.1667,294.167 77.5,294.5C 76.5,296.167 75.1667,297.5 73.5,298.5C 77.1863,302.352 80.6863,306.352 84,310.5C 88.1228,320.65 91.7895,330.983 95,341.5C 96.4442,345.411 98.6109,348.744 101.5,351.5C 101.414,352.496 101.748,353.329 102.5,354C 105.554,356.194 108.888,357.861 112.5,359C 115.5,363.333 119.167,367 123.5,370C 128.5,370.667 133.5,370.667 138.5,370C 140.066,369.392 141.4,368.558 142.5,367.5C 146.515,366.409 150.015,364.409 153,361.5C 152.55,349.519 152.05,337.519 151.5,325.5C 153.553,321.137 155.053,316.47 156,311.5C 158.178,307.806 160.345,304.139 162.5,300.5C 162.938,300.565 163.272,300.399 163.5,300C 162.244,299.583 161.577,298.75 161.5,297.5C 162.952,296.698 164.618,296.198 166.5,296C 170.131,292.19 174.131,288.857 178.5,286C 198.543,277.814 217.543,267.814 235.5,256C 238.287,254.093 238.12,252.593 235,251.5C 228.621,254.46 222.121,257.126 215.5,259.5C 214.366,257.561 214.7,255.895 216.5,254.5C 217.962,255.471 219.295,255.138 220.5,253.5C 220.435,253.938 220.601,254.272 221,254.5C 222.78,253.361 224.614,252.361 226.5,251.5C 239.27,245.055 250.937,237.055 261.5,227.5C 267.496,222.337 272.996,216.67 278,210.5C 276.83,199.575 276.496,188.575 277,177.5C 277.785,175.714 278.951,174.214 280.5,173C 287.197,171.344 288.197,168.177 283.5,163.5C 283.768,161.901 283.434,160.568 282.5,159.5C 280.848,150.239 278.348,141.239 275,132.5C 268.908,128.75 262.408,126.083 255.5,124.5C 250.502,122.058 245.168,120.391 239.5,119.5C 227.809,116.59 215.809,115.423 203.5,116C 193.704,118.602 184.371,122.102 175.5,126.5C 174.5,126.5 173.5,126.5 172.5,126.5C 172.167,124.5 171.833,122.5 171.5,120.5C 172.034,115.097 172.034,109.764 171.5,104.5 Z"/></g>
<g><path style="opacity:1" fill="#c9a48a" d="M 49.5,293.5 C 54.8408,294.74 60.1741,294.74 65.5,293.5C 65.0749,297.585 62.7415,299.585 58.5,299.5C 55.7737,299.318 53.1071,298.818 50.5,298C 49.6198,296.644 49.2865,295.144 49.5,293.5 Z"/></g>
<g><path style="opacity:1" fill="#8c272f" d="M 199.5,295.5 C 207.944,294.786 215.944,295.786 223.5,298.5C 215.381,297.395 207.381,296.395 199.5,295.5 Z"/></g>
<g><path style="opacity:1" fill="#621613" d="M 175.5,293.5 C 176.568,294.434 177.901,294.768 179.5,294.5C 183.702,294.183 187.702,294.517 191.5,295.5C 185.491,295.666 179.491,295.499 173.5,295C 174.044,294.283 174.711,293.783 175.5,293.5 Z"/></g>
<g><path style="opacity:1" fill="#bead56" d="M 266.5,289.5 C 276.253,292.113 280.086,298.446 278,308.5C 277.617,309.056 277.117,309.389 276.5,309.5C 277.041,304.551 276.208,299.884 274,295.5C 273,294.167 272,294.167 271,295.5C 270.804,293.714 269.971,292.381 268.5,291.5C 267.503,298.468 267.17,305.468 267.5,312.5C 263.988,313.055 260.988,312.388 258.5,310.5C 261.127,311.092 263.794,311.425 266.5,311.5C 266.666,305.824 266.499,300.157 266,294.5C 265.764,292.881 264.931,291.881 263.5,291.5C 261.896,292.287 261.229,293.62 261.5,295.5C 260.978,293.781 259.978,292.448 258.5,291.5C 261.167,290.833 263.833,290.167 266.5,289.5 Z"/></g>
<g><path style="opacity:1" fill="#ad2d2f" d="M 255.5,283.5 C 256.5,283.833 257.167,284.5 257.5,285.5C 254.546,286.428 251.546,287.261 248.5,288C 245.631,291.038 242.631,293.871 239.5,296.5C 239.888,294.315 240.888,292.482 242.5,291C 242.355,290.228 242.022,289.561 241.5,289C 243.167,288.667 244.833,288.333 246.5,288C 245.692,287.692 245.025,287.192 244.5,286.5C 248.277,285.601 251.944,284.601 255.5,283.5 Z"/></g>
<g><path style="opacity:1" fill="#daaa8b" d="M 47.5,284.5 C 52.8182,285.533 58.1516,285.7 63.5,285C 64.5914,287.064 64.7581,289.231 64,291.5C 59.5394,292.49 55.0394,292.324 50.5,291C 48.0807,289.491 47.0807,287.325 47.5,284.5 Z"/></g>
<g><path style="opacity:1" fill="#d9b49a" d="M 79.5,275.5 C 84.2675,275.191 88.9342,275.691 93.5,277C 99.5657,280.024 105.232,283.524 110.5,287.5C 108.712,287.785 107.045,287.452 105.5,286.5C 101.757,283.567 97.5899,281.234 93,279.5C 88.3161,278.376 83.8161,277.043 79.5,275.5 Z"/></g>
<g><path style="opacity:1" fill="#e2a982" d="M 79.5,275.5 C 83.8161,277.043 88.3161,278.376 93,279.5C 97.5899,281.234 101.757,283.567 105.5,286.5C 107.045,287.452 108.712,287.785 110.5,287.5C 111.492,287.328 112.158,287.662 112.5,288.5C 111.475,288.897 111.308,289.563 112,290.5C 117.415,295.329 120.748,301.329 122,308.5C 123.953,310.904 125.786,313.404 127.5,316C 128.22,320.554 129.554,324.887 131.5,329C 133.112,329.72 134.612,329.554 136,328.5C 136.333,324.833 136.667,321.167 137,317.5C 142.932,311.564 149.432,307.564 156.5,305.5C 153.309,311.787 151.643,318.454 151.5,325.5C 152.05,337.519 152.55,349.519 153,361.5C 150.015,364.409 146.515,366.409 142.5,367.5C 135.823,368.669 129.157,368.669 122.5,367.5C 122.649,366.448 122.483,365.448 122,364.5C 119.65,362.317 117.483,359.984 115.5,357.5C 110.873,355.191 106.206,353.191 101.5,351.5C 98.6109,348.744 96.4442,345.411 95,341.5C 91.7895,330.983 88.1228,320.65 84,310.5C 80.6863,306.352 77.1863,302.352 73.5,298.5C 75.1667,297.5 76.5,296.167 77.5,294.5C 77.1667,294.167 76.8333,293.833 76.5,293.5C 74.4902,295.171 72.1569,295.838 69.5,295.5C 69.3314,290.819 68.9981,286.152 68.5,281.5C 73.4848,281.694 77.1515,279.694 79.5,275.5 Z"/></g>
<g><path style="opacity:1" fill="#d17172" d="M 257.5,285.5 C 257.167,284.5 256.5,283.833 255.5,283.5C 254.68,277.351 251.346,273.351 245.5,271.5C 243.594,264.547 239.261,262.38 232.5,265C 217.098,274.369 201.098,282.702 184.5,290C 182.76,291.517 181.094,293.017 179.5,294.5C 177.901,294.768 176.568,294.434 175.5,293.5C 186.3,286.267 197.966,280.433 210.5,276C 217.167,271.667 223.833,267.333 230.5,263C 233.05,261.558 235.716,260.392 238.5,259.5C 244.617,266.819 251.117,273.819 258,280.5C 258.78,282.387 258.613,284.054 257.5,285.5 Z"/></g>
<g><path style="opacity:1" fill="#c72728" d="M 255.5,283.5 C 251.944,284.601 248.277,285.601 244.5,286.5C 245.025,287.192 245.692,287.692 246.5,288C 244.833,288.333 243.167,288.667 241.5,289C 242.022,289.561 242.355,290.228 242.5,291C 240.888,292.482 239.888,294.315 239.5,296.5C 234.604,298.446 229.271,299.113 223.5,298.5C 215.944,295.786 207.944,294.786 199.5,295.5C 196.833,295.5 194.167,295.5 191.5,295.5C 187.702,294.517 183.702,294.183 179.5,294.5C 181.094,293.017 182.76,291.517 184.5,290C 201.098,282.702 217.098,274.369 232.5,265C 239.261,262.38 243.594,264.547 245.5,271.5C 251.346,273.351 254.68,277.351 255.5,283.5 Z"/></g>
<g><path style="opacity:1" fill="#e8bfa7" d="M 343.5,247.5 C 332.214,248.649 321.214,251.149 310.5,255C 299.51,260.158 289.176,266.325 279.5,273.5C 278.535,272.279 278.702,270.946 280,269.5C 286.575,262.363 294.409,257.697 303.5,255.5C 303.5,254.5 303.5,253.5 303.5,252.5C 309.82,250.667 316.153,248.834 322.5,247C 329.834,246.167 337.167,245.333 344.5,244.5C 346.965,244.478 349.298,244.978 351.5,246C 348.635,246.183 345.969,246.683 343.5,247.5 Z"/></g>
<g><path style="opacity:1" fill="#e3a982" d="M 344.5,239.5 C 348.563,241.368 352.563,243.535 356.5,246C 352.365,247.431 348.032,247.931 343.5,247.5C 345.969,246.683 348.635,246.183 351.5,246C 349.298,244.978 346.965,244.478 344.5,244.5C 337.167,245.333 329.834,246.167 322.5,247C 316.153,248.834 309.82,250.667 303.5,252.5C 303.5,253.5 303.5,254.5 303.5,255.5C 294.409,257.697 286.575,262.363 280,269.5C 278.702,270.946 278.535,272.279 279.5,273.5C 275.45,276.226 272.45,279.892 270.5,284.5C 268.579,285.641 266.579,285.808 264.5,285C 257.179,272.508 248.512,261.008 238.5,250.5C 247.781,243.889 256.781,236.889 265.5,229.5C 269.152,227.524 272.819,225.524 276.5,223.5C 276.351,222.448 276.517,221.448 277,220.5C 278.713,219.122 280.047,217.455 281,215.5C 282.356,214.62 283.856,214.286 285.5,214.5C 285.56,206.781 286.227,199.115 287.5,191.5C 289.787,190.078 292.287,189.411 295,189.5C 297.887,190.104 300.72,190.771 303.5,191.5C 303.596,195.311 304.262,195.311 305.5,191.5C 306.5,190.167 307.5,190.167 308.5,191.5C 309.324,194.785 309.824,198.118 310,201.5C 311.011,202.337 312.178,202.67 313.5,202.5C 313.265,207.516 315.265,211.182 319.5,213.5C 320.609,216.847 322.276,219.847 324.5,222.5C 323.624,223.251 322.624,223.751 321.5,224C 322.394,226.068 323.06,228.235 323.5,230.5C 322.414,233.42 321.748,236.42 321.5,239.5C 323.5,239.5 325.5,239.5 327.5,239.5C 327.661,236.472 326.994,233.639 325.5,231C 325.667,229.5 326.5,228.667 328,228.5C 330.749,230.5 332.916,233 334.5,236C 337.962,237.004 341.296,238.17 344.5,239.5 Z"/></g>
<g><path style="opacity:1" fill="#dda885" d="M 344.5,239.5 C 341.296,238.17 337.962,237.004 334.5,236C 332.916,233 330.749,230.5 328,228.5C 326.5,228.667 325.667,229.5 325.5,231C 326.994,233.639 327.661,236.472 327.5,239.5C 325.5,239.5 323.5,239.5 321.5,239.5C 321.748,236.42 322.414,233.42 323.5,230.5C 323.06,228.235 322.394,226.068 321.5,224C 322.624,223.751 323.624,223.251 324.5,222.5C 322.276,219.847 320.609,216.847 319.5,213.5C 315.265,211.182 313.265,207.516 313.5,202.5C 312.178,202.67 311.011,202.337 310,201.5C 309.824,198.118 309.324,194.785 308.5,191.5C 307.5,190.167 306.5,190.167 305.5,191.5C 304.262,195.311 303.596,195.311 303.5,191.5C 300.72,190.771 297.887,190.104 295,189.5C 292.287,189.411 289.787,190.078 287.5,191.5C 286.227,199.115 285.56,206.781 285.5,214.5C 283.856,214.286 282.356,214.62 281,215.5C 280.047,217.455 278.713,219.122 277,220.5C 276.517,221.448 276.351,222.448 276.5,223.5C 272.819,225.524 269.152,227.524 265.5,229.5C 272.175,223.99 278.008,217.656 283,210.5C 282.517,206.209 281.851,201.876 281,197.5C 280.333,191.5 280.333,185.5 281,179.5C 283.55,175.808 287.05,174.142 291.5,174.5C 291.565,171.002 292.899,170.502 295.5,173C 299.762,176.717 303.928,180.55 308,184.5C 315.625,205.938 327.791,224.271 344.5,239.5 Z"/></g>
<g><path style="opacity:1" fill="#c7ac4f" d="M 239.5,119.5 C 224.829,118.266 210.162,118.433 195.5,120C 189.465,123.85 182.798,126.016 175.5,126.5C 184.371,122.102 193.704,118.602 203.5,116C 215.809,115.423 227.809,116.59 239.5,119.5 Z"/></g>
<g><path style="opacity:1" fill="#674c49" d="M 223.5,302.5 C 228.167,302.5 232.833,302.5 237.5,302.5C 237.5,303.5 237.5,304.5 237.5,305.5C 232.946,303.953 228.279,302.953 223.5,302.5 Z"/></g>
<g><path style="opacity:1" fill="#752123" d="M 287.5,304.5 C 290.522,304.342 292.522,305.675 293.5,308.5C 291.223,307.551 289.223,306.218 287.5,304.5 Z"/></g>
<g><path style="opacity:1" fill="#eee5aa" d="M 266.5,289.5 C 263.833,290.167 261.167,290.833 258.5,291.5C 253.96,292.005 250.294,294.005 247.5,297.5C 248.09,298.799 249.09,299.632 250.5,300C 254.203,301.192 257.87,302.359 261.5,303.5C 261.5,300.833 261.5,298.167 261.5,295.5C 261.229,293.62 261.896,292.287 263.5,291.5C 263.5,296.5 263.5,301.5 263.5,306.5C 257.712,304.769 252.046,302.769 246.5,300.5C 245.373,301.122 244.373,301.955 243.5,303C 243.258,309.868 246.258,314.535 252.5,317C 256.688,317.176 260.688,317.676 264.5,318.5C 250.42,324.553 242.753,320.053 241.5,305C 242.609,298.794 245.943,294.127 251.5,291C 256.448,289.95 261.448,289.45 266.5,289.5 Z"/></g>
<g><path style="opacity:1" fill="#dcc249" d="M 258.5,291.5 C 259.978,292.448 260.978,293.781 261.5,295.5C 261.5,298.167 261.5,300.833 261.5,303.5C 257.87,302.359 254.203,301.192 250.5,300C 249.09,299.632 248.09,298.799 247.5,297.5C 250.294,294.005 253.96,292.005 258.5,291.5 Z"/></g>
<g><path style="opacity:1" fill="#1a160f" d="M 263.5,291.5 C 264.931,291.881 265.764,292.881 266,294.5C 266.499,300.157 266.666,305.824 266.5,311.5C 263.794,311.425 261.127,311.092 258.5,310.5C 255.692,308.561 252.692,306.728 249.5,305C 247.859,303.871 246.859,302.371 246.5,300.5C 252.046,302.769 257.712,304.769 263.5,306.5C 263.5,301.5 263.5,296.5 263.5,291.5 Z"/></g>
<g><path style="opacity:1" fill="#fbfbfb" d="M 174.5,399.5 C 141.5,399.5 108.5,399.5 75.5,399.5C 74.9123,373.504 74.4123,347.504 74,321.5C 73.3933,315.097 72.7267,308.763 72,302.5C 73.9552,303.453 75.6218,304.787 77,306.5C 77.9305,309.362 79.5971,311.695 82,313.5C 85.5849,327.01 90.5849,340.01 97,352.5C 100.794,357.95 105.961,361.45 112.5,363C 115.394,370.121 120.728,373.787 128.5,374C 138.289,374.776 146.622,371.61 153.5,364.5C 156.849,378.481 163.849,390.148 174.5,399.5 Z"/></g>
<g><path style="opacity:1" fill="#e1bfa8" d="M 188.5,299.5 C 185.794,304.386 182.461,308.886 178.5,313C 177.552,313.483 176.552,313.649 175.5,313.5C 175.975,316.082 175.308,318.082 173.5,319.5C 174.7,309.969 179.7,303.302 188.5,299.5 Z"/></g>
<g><path style="opacity:1" fill="#b4292e" d="M 293.5,308.5 C 295.628,309.957 297.962,310.957 300.5,311.5C 300.5,310.5 300.5,309.5 300.5,308.5C 301.5,308.5 302.5,308.5 303.5,308.5C 303.5,309.833 303.5,311.167 303.5,312.5C 308.295,312.29 310.962,314.624 311.5,319.5C 314.83,321.169 317.497,323.502 319.5,326.5C 309.826,321.993 301.159,315.993 293.5,308.5 Z"/></g>
<g><path style="opacity:1" fill="#d9c14b" d="M 276.5,309.5 C 273.373,313.622 269.373,316.622 264.5,318.5C 260.688,317.676 256.688,317.176 252.5,317C 246.258,314.535 243.258,309.868 243.5,303C 244.373,301.955 245.373,301.122 246.5,300.5C 246.859,302.371 247.859,303.871 249.5,305C 252.692,306.728 255.692,308.561 258.5,310.5C 260.988,312.388 263.988,313.055 267.5,312.5C 267.17,305.468 267.503,298.468 268.5,291.5C 269.971,292.381 270.804,293.714 271,295.5C 272,294.167 273,294.167 274,295.5C 276.208,299.884 277.041,304.551 276.5,309.5 Z"/></g>
<g><path style="opacity:1" fill="#795e41" d="M 176.5,298.5 C 178.604,298.201 180.604,298.534 182.5,299.5C 179.134,302.368 176.3,305.701 174,309.5C 165.177,331.284 160.843,353.951 161,377.5C 160.164,375.158 158.83,373.158 157,371.5C 154.869,356.562 154.202,341.562 155,326.5C 156.206,319.551 158.206,312.885 161,306.5C 163.581,305.167 165.748,303.334 167.5,301C 170.678,300.34 173.678,299.507 176.5,298.5 Z"/></g>
<g><path style="opacity:1" fill="#7c603f" d="M 72.5,399.5 C 70.1667,399.5 67.8333,399.5 65.5,399.5C 63.3762,373.544 61.8762,347.544 61,321.5C 60.1648,315.157 59.3314,308.824 58.5,302.5C 60.4147,302.784 62.0813,302.451 63.5,301.5C 64.7804,300.069 66.4471,299.402 68.5,299.5C 69.6577,306.115 70.491,312.782 71,319.5C 71.5063,346.168 72.0063,372.835 72.5,399.5 Z"/></g>
<g><path style="opacity:1" fill="#e3a982" d="M 188.5,299.5 C 200.287,299.715 211.954,300.715 223.5,302.5C 228.279,302.953 232.946,303.953 237.5,305.5C 237.383,313.008 240.383,318.841 246.5,323C 260.181,325.995 271.681,322.162 281,311.5C 282.009,309.975 282.509,308.308 282.5,306.5C 283.552,306.351 284.552,306.517 285.5,307C 302.452,321.817 321.118,334.151 341.5,344C 347.707,347.606 353.373,351.939 358.5,357C 369.006,370.014 377.673,384.181 384.5,399.5C 345.5,399.5 306.5,399.5 267.5,399.5C 265.035,395.844 263.201,391.844 262,387.5C 261.333,379.167 261.333,370.833 262,362.5C 265.031,353.648 266.531,344.648 266.5,335.5C 258.533,349.914 254.533,365.414 254.5,382C 255.67,387.342 257.336,392.508 259.5,397.5C 259.137,398.183 258.804,398.85 258.5,399.5C 258.167,399.5 257.833,399.5 257.5,399.5C 253.491,392.798 251.658,385.465 252,377.5C 251.037,384.974 251.537,392.307 253.5,399.5C 248.167,399.5 242.833,399.5 237.5,399.5C 239.127,397.37 240.96,395.37 243,393.5C 244.059,390.382 245.392,387.382 247,384.5C 247.667,382.833 247.667,381.167 247,379.5C 243,388.327 236.833,394.994 228.5,399.5C 214.5,399.5 200.5,399.5 186.5,399.5C 177.227,397.573 170.56,392.24 166.5,383.5C 164.419,367.27 165.586,351.27 170,335.5C 173.059,330.645 174.226,325.311 173.5,319.5C 175.308,318.082 175.975,316.082 175.5,313.5C 176.552,313.649 177.552,313.483 178.5,313C 182.461,308.886 185.794,304.386 188.5,299.5 Z"/></g>
<g><path style="opacity:1" fill="#d8ae92" d="M 112.5,288.5 C 116.219,291.054 119.052,294.387 121,298.5C 125.058,306.679 128.725,315.012 132,323.5C 133.002,319.836 134.836,316.669 137.5,314C 144.994,307.92 153.327,303.42 162.5,300.5C 160.345,304.139 158.178,307.806 156,311.5C 155.053,316.47 153.553,321.137 151.5,325.5C 151.643,318.454 153.309,311.787 156.5,305.5C 149.432,307.564 142.932,311.564 137,317.5C 136.667,321.167 136.333,324.833 136,328.5C 134.612,329.554 133.112,329.72 131.5,329C 129.554,324.887 128.22,320.554 127.5,316C 125.786,313.404 123.953,310.904 122,308.5C 120.748,301.329 117.415,295.329 112,290.5C 111.308,289.563 111.475,288.897 112.5,288.5 Z"/></g>
<g><path style="opacity:1" fill="#9b2a29" d="M 335.5,335.5 C 337.681,335.284 339.347,336.117 340.5,338C 342.81,338.497 345.143,338.663 347.5,338.5C 347.67,339.822 347.337,340.989 346.5,342C 350.801,344.486 355.135,346.986 359.5,349.5C 360.429,350.689 360.762,352.022 360.5,353.5C 352.68,346.783 344.347,340.783 335.5,335.5 Z"/></g>
<g><path style="opacity:1" fill="#cfa48a" d="M 101.5,351.5 C 106.206,353.191 110.873,355.191 115.5,357.5C 117.483,359.984 119.65,362.317 122,364.5C 122.483,365.448 122.649,366.448 122.5,367.5C 129.157,368.669 135.823,368.669 142.5,367.5C 141.4,368.558 140.066,369.392 138.5,370C 133.5,370.667 128.5,370.667 123.5,370C 119.167,367 115.5,363.333 112.5,359C 108.888,357.861 105.554,356.194 102.5,354C 101.748,353.329 101.414,352.496 101.5,351.5 Z"/></g>
<g><path style="opacity:1" fill="#f1c5a6" d="M 267.5,399.5 C 264.5,399.5 261.5,399.5 258.5,399.5C 258.804,398.85 259.137,398.183 259.5,397.5C 257.336,392.508 255.67,387.342 254.5,382C 254.533,365.414 258.533,349.914 266.5,335.5C 266.531,344.648 265.031,353.648 262,362.5C 261.333,370.833 261.333,379.167 262,387.5C 263.201,391.844 265.035,395.844 267.5,399.5 Z"/></g>
<g><path style="opacity:1" fill="#d0aa93" d="M 173.5,319.5 C 174.226,325.311 173.059,330.645 170,335.5C 165.586,351.27 164.419,367.27 166.5,383.5C 164.932,381.189 164.098,378.522 164,375.5C 163.421,356.722 166.088,338.388 172,320.5C 172.383,319.944 172.883,319.611 173.5,319.5 Z"/></g>
<g><path style="opacity:1" fill="#957d60" d="M 63.5,301.5 C 62.0813,302.451 60.4147,302.784 58.5,302.5C 59.3314,308.824 60.1648,315.157 61,321.5C 61.8762,347.544 63.3762,373.544 65.5,399.5C 64.5,399.5 63.5,399.5 62.5,399.5C 61.2078,377.189 60.3744,354.855 60,332.5C 58.4239,322.503 56.9239,312.503 55.5,302.5C 58.0865,301.52 60.7531,301.187 63.5,301.5 Z"/></g>
<g><path style="opacity:1" fill="#190f0a" d="M 237.5,399.5 C 234.5,399.5 231.5,399.5 228.5,399.5C 236.833,394.994 243,388.327 247,379.5C 247.667,381.167 247.667,382.833 247,384.5C 245.392,387.382 244.059,390.382 243,393.5C 240.96,395.37 239.127,397.37 237.5,399.5 Z"/></g>
<g><path style="opacity:1" fill="#24140e" d="M 257.5,399.5 C 256.167,399.5 254.833,399.5 253.5,399.5C 251.537,392.307 251.037,384.974 252,377.5C 251.658,385.465 253.491,392.798 257.5,399.5 Z"/></g>
</svg>
