<svg xmlns="http://www.w3.org/2000/svg" width="600" height="600" viewBox="0 0 600 600" fill="none">
    <path d="M300 600C465.685 600 600 465.685 600 300C600 134.315 465.685 0 300 0C134.315 0 0 134.315 0 300C0 465.685 134.315 600 300 600Z" fill="url(#paint0_radial_440_36)"/>
    <g transform="matrix(20.69,0,0,20.69,30,10)">
        <g xmlns="http://www.w3.org/2000/svg" clip-path="url(#clip0_4015_4135)">
            <path fill-rule="evenodd" clip-rule="evenodd" d="M11.8868 5.17236C11.3966 5.17236 10.9993 5.56971 10.9993 6.05986V6.94986H7.25272C6.60075 6.94986 6.07227 7.47909 6.07227 8.13198C6.07227 8.78487 6.60075 9.3141 7.25272 9.3141H8.43318H10.9993V11.6559H7.37159C6.65399 11.6559 6.07227 12.2385 6.07227 12.9571V14.0187V19.8687C6.07227 20.5873 6.65399 21.1699 7.37159 21.1699H10.9993V22.0599C10.9993 22.55 11.3966 22.9474 11.8868 22.9474C12.3769 22.9474 12.7743 22.55 12.7743 22.0599V21.1699H14.9473C18.8686 21.1699 22.0473 17.9867 22.0473 14.0599C22.0473 10.133 18.8686 6.94986 14.9473 6.94986H12.7743V6.05986C12.7743 5.56971 12.3769 5.17236 11.8868 5.17236ZM12.7743 9.3141V11.6559H15.72C16.3715 11.6559 16.8998 12.1849 16.8998 12.8373C16.8998 13.4897 16.3715 14.0187 15.72 14.0187H12.7743V18.8056H14.9813C17.58 18.8056 19.6866 16.696 19.6866 14.0937V14.026C19.6866 11.4237 17.58 9.3141 14.9813 9.3141H14.7285H12.7743ZM10.9993 18.8056V14.0187H8.97041C8.6736 14.0187 8.43318 14.2597 8.43318 14.5567V18.2676C8.43318 18.5649 8.67384 18.8056 8.97041 18.8056H10.9993Z" fill="url(#paint0_linear_4015_4135)"/>
        </g>    
    </g>
    <defs>
        <radialGradient id="paint0_radial_440_36" cx="0" cy="0" r="1" gradientUnits="userSpaceOnUse" gradientTransform="translate(196 143.5) rotate(54.1675) scale(497.082)">
            <stop stop-color="#444444"/>
            <stop offset="1" stop-color="#202020"/>
        </radialGradient>
        <clipPath id="clip0_4015_4135">
            <rect width="18" height="18" fill="white" transform="translate(5.05957 5.05981)"/>
        </clipPath>
        <linearGradient id="paint0_linear_4015_4135" x1="14.0598" y1="5.17236" x2="14.0598" y2="22.9474" gradientUnits="userSpaceOnUse"><stop stop-color="#67FFF7"/>
            <stop offset="0.485" stop-color="#7CE4AF"/>
            <stop offset="1" stop-color="#678DFF"/>
        </linearGradient>
    </defs>
</svg>