<svg xmlns="http://www.w3.org/2000/svg" width="32" height="32" viewBox="0 0 32 32"><path d="M 20 18 L 20 19 L 21 19 L 22 20 L 22 21 L 22 20 Z" fill="none" stroke="black" stroke-width="1"/><path d="M 8 0 L 8 1 L 7 2 L 6 2 L 6 3 L 4 5 L 4 12 L 5 13 L 5 14 L 6 14 L 5 13 L 6 12 L 7 12 L 8 13 L 8 14 L 8 13 L 9 12 L 11 12 L 9 12 L 8 13 L 7 12 L 7 11 L 8 10 L 8 9 L 8 10 L 7 11 L 6 10 L 5 10 L 4 9 L 5 8 L 6 8 L 7 7 L 7 5 L 8 4 L 9 4 L 10 5 L 9 6 L 10 7 L 10 10 L 10 7 L 9 6 L 10 5 L 11 5 L 13 7 L 13 8 L 12 9 L 12 10 L 12 9 L 13 8 L 14 9 L 14 11 L 13 12 L 13 13 L 12 14 L 10 14 L 12 14 L 13 13 L 13 12 L 14 11 L 15 12 L 17 12 L 18 11 L 18 8 L 17 7 L 15 7 L 15 8 L 14 9 L 13 8 L 13 7 L 12 6 L 12 5 L 10 5 L 9 4 L 10 3 L 11 3 L 12 2 L 20 2 L 21 3 L 22 3 L 23 4 L 23 5 L 24 6 L 23 7 L 21 7 L 21 11 L 22 11 L 23 10 L 24 11 L 24 12 L 23 13 L 22 13 L 21 14 L 15 14 L 16 14 L 17 15 L 16 16 L 14 16 L 14 17 L 15 18 L 15 20 L 16 21 L 16 23 L 16 22 L 17 21 L 20 21 L 16 21 L 15 20 L 15 18 L 14 17 L 15 16 L 22 16 L 23 17 L 23 18 L 25 20 L 25 21 L 24 22 L 24 23 L 23 24 L 22 23 L 23 24 L 23 27 L 24 28 L 23 29 L 22 29 L 21 28 L 21 27 L 20 26 L 19 27 L 18 26 L 18 25 L 19 24 L 19 23 L 19 24 L 18 25 L 11 25 L 10 26 L 8 26 L 7 25 L 10 22 L 11 22 L 11 20 L 10 19 L 9 20 L 7 18 L 9 16 L 11 16 L 12 17 L 12 16 L 8 16 L 8 17 L 6 19 L 6 20 L 5 21 L 5 23 L 6 23 L 7 24 L 7 26 L 11 26 L 13 28 L 11 30 L 10 29 L 10 28 L 10 30 L 11 30 L 12 29 L 13 30 L 15 30 L 16 29 L 15 28 L 15 26 L 16 25 L 17 25 L 18 26 L 18 29 L 24 29 L 24 27 L 23 26 L 23 25 L 24 24 L 24 23 L 25 22 L 25 19 L 24 19 L 23 18 L 23 16 L 22 15 L 22 14 L 23 13 L 25 13 L 26 12 L 27 13 L 27 10 L 26 10 L 25 9 L 26 8 L 27 8 L 27 5 L 23 1 L 23 0 Z" fill="none" stroke="black" stroke-width="1"/></svg>