<?xml version="1.0" standalone="no"?> <!DOCTYPE svg PUBLIC "-//W3C//DTD SVG 20010904//EN" "http://www.w3.org/TR/2001/REC-SVG-20010904/DTD/svg10.dtd"> <svg version="1.0" xmlns="http://www.w3.org/2000/svg" width="600.000000pt" height="600.000000pt" viewBox="0 0 600.000000 600.000000" preserveAspectRatio="xMidYMid meet"> <g transform="translate(0.000000,600.000000) scale(0.100000,-0.100000)" fill="#642c9b" stroke="none"> <path d="M2790 5530 c-561 -58 -1046 -280 -1443 -660 -211 -201 -374 -424 -503 -685 -306 -622 -330 -1362 -64 -1995 128 -305 330 -597 567 -820 832 -782 2049 -900 2989 -288 346 225 630 550 824 943 129 260 197 479 236 751 23 158 26 511 5 649 -72 490 -267 917 -585 1281 -261 300 -599 535 -976 679 -125 48 -366 109 -510 130 -135 20 -419 27 -540 15z m434 -381 c213 -77 399 -224 509 -401 47 -74 97 -193 97 -228 0 -13 25 -34 85 -69 127 -75 228 -154 340 -266 259 -258 421 -562 502 -945 25 -115 27 -144 27 -360 1 -218 -1 -244 -26 -361 -111 -516 -422 -915 -888 -1136 -189 -90 -346 -138 -549 -169 -119 -18 -450 -21 -535 -5 -28 5 -72 13 -99 16 -26 3 -45 10 -42 15 3 4 -9 6 -26 3 -17 -2 -29 -1 -26 4 3 4 -13 9 -35 10 -112 4 -451 149 -630 270 -373 250 -629 624 -735 1068 -27 115 -28 130 -28 370 0 239 2 255 29 369 84 357 248 650 503 900 54 52 130 119 168 149 228 176 519 294 805 328 119 13 352 6 467 -15 50 -9 75 -10 83 -2 15 15 12 121 -6 196 -18 80 -70 189 -119 254 l-38 48 44 -7 c24 -4 79 -20 123 -36z"/> <path d="M2430 3869 c-91 -13 -213 -56 -276 -98 -61 -40 -121 -97 -112 -106 3 -3 36 8 74 26 326 146 655 121 942 -74 36 -24 48 -28 67 -19 29 13 39 55 23 90 -33 69 -235 153 -433 182 -81 11 -206 11 -285 -1z"/> <path d="M3865 3639 c-125 -14 -207 -39 -224 -70 -19 -33 -8 -77 23 -89 17 -6 48 -1 116 21 233 73 405 62 623 -38 54 -25 100 -43 103 -40 11 10 -17 57 -53 86 -120 100 -368 155 -588 130z"/> <path d="M1855 3143 c-20 -53 11 -208 60 -302 88 -167 253 -292 472 -357 75 -23 107 -26 218 -27 113 0 140 4 210 26 207 68 364 228 410 418 9 35 21 81 27 102 8 25 8 41 1 48 -11 11 -289 50 -528 74 -88 9 -275 18 -415 21 -140 2 -299 6 -352 8 -77 2 -98 0 -103 -11z m547 -109 l67 -7 11 -50 c36 -169 212 -257 365 -182 60 29 97 67 129 133 l21 44 78 -5 c43 -4 82 -9 86 -12 14 -8 -7 -97 -39 -160 -55 -113 -164 -202 -307 -252 -68 -23 -93 -27 -198 -26 -100 0 -135 5 -208 27 -246 74 -402 216 -453 416 -13 52 -14 64 -2 71 15 10 352 12 450 3z m521 -52 c37 -7 37 -8 22 -29 -19 -28 -70 -31 -97 -6 -42 38 -14 51 75 35z"/> <path d="M3481 3022 c-13 -27 10 -176 39 -260 55 -155 179 -280 345 -347 57 -23 90 -29 176 -33 123 -5 188 6 274 49 133 65 227 180 271 329 13 47 29 98 34 115 7 21 6 33 -3 41 -13 13 -227 54 -407 79 -126 17 -336 33 -557 43 l-162 7 -10 -23z m274 -104 c2 -7 9 -32 15 -55 22 -88 108 -165 197 -179 101 -15 219 53 260 151 21 53 16 52 173 25 63 -11 118 -20 123 -20 26 0 -21 -153 -69 -221 -96 -140 -276 -207 -463 -175 -218 38 -379 181 -426 377 -27 114 -31 109 85 109 72 0 102 -4 105 -12z m415 -26 l45 -7 -22 -22 c-29 -29 -76 -30 -103 -3 -39 39 -20 47 80 32z"/> <path d="M2584 2356 c-41 -18 -64 -52 -64 -93 0 -37 9 -40 46 -16 24 15 27 15 52 -5 265 -212 759 -278 999 -133 24 14 43 29 43 32 0 4 -26 0 -57 -9 -45 -13 -101 -17 -243 -17 -194 0 -280 12 -420 57 -89 28 -241 101 -264 127 -19 21 -19 21 35 45 l54 25 -75 0 c-42 0 -89 -6 -106 -13z"/> <path d="M700 4360 c-6 -11 -8 -20 -6 -20 3 0 10 9 16 20 6 11 8 20 6 20 -3 0 -10 -9 -16 -20z"/> <path d="M607 4183 c-129 -263 -209 -519 -253 -813 -22 -143 -26 -548 -6 -685 45 -319 132 -594 271 -860 231 -442 552 -784 981 -1050 1126 -695 2562 -464 3395 545 177 214 326 462 429 713 24 60 9 43 -29 -32 -204 -407 -580 -835 -945 -1079 -333 -222 -726 -368 -1120 -417 -144 -17 -434 -20 -565 -4 -554 65 -1051 284 -1465 648 -433 382 -723 864 -844 1401 -119 532 -60 1132 159 1622 29 65 51 118 49 118 -3 0 -28 -48 -57 -107z"/> <path d="M5440 2090 c0 -7 3 -10 7 -7 3 4 3 10 0 14 -4 3 -7 0 -7 -7z"/> </g> </svg>
