<?xml version="1.0" encoding="UTF-8"?>
<svg id="Layer_1" data-name="Layer 1" xmlns="http://www.w3.org/2000/svg" viewBox="0 0 220 220">
  <defs>
    <style>
      .cls-1 {
        fill: #0b0b0b;
      }
    </style>
  </defs>
  <path class="cls-1" d="M194.36,130.8l-26.98-15.47c-5.33-3.06-5.35-10.74-.04-13.83l26.96-15.67c3.81-2.21,5.1-7.1,2.89-10.91l-14.68-25.26c-2.21-3.81-7.1-5.11-10.91-2.89l-26.82,15.58c-5.31,3.09-11.97-.73-11.99-6.88l-.09-31.01c-.01-4.41-3.6-7.97-8-7.96l-29.23.08c-4.41.01-7.97,3.6-7.96,8.01l.09,31.18c.02,6.14-6.62,10-11.95,6.95l-26.98-15.47c-3.82-2.19-8.7-.87-10.9,2.95l-14.54,25.35c-2.19,3.82-.87,8.7,2.95,10.9l26.84,15.39c5.33,3.06,5.35,10.74.04,13.83l-26.67,15.5c-3.81,2.22-5.11,7.1-2.89,10.91l14.69,25.27c2.22,3.81,7.1,5.11,10.91,2.89l26.81-15.59c5.31-3.09,11.98.73,11.99,6.88l.09,31.02c.01,4.41,3.6,7.97,8.01,7.96l29.22-.09c4.41-.01,7.97-3.6,7.96-8l-.09-30.85c-.02-6.14,6.62-10,11.95-6.95l26.84,15.39c3.82,2.19,8.7.87,10.9-2.95l14.54-25.35c2.19-3.82.87-8.7-2.95-10.9ZM143.25,109.79c-.16.03-.32.06-.47.09-2.15.41-4.23.99-6.24,1.73-1.2.45-2.37.95-3.51,1.5-7.9,3.84-14.31,10.24-18.14,18.14-.56,1.14-1.06,2.31-1.5,3.51-.74,2.01-1.32,4.09-1.74,6.24-.03.16-.06.32-.09.48-.26,1.44-2.32,1.44-2.57,0-.03-.16-.06-.32-.09-.48-.41-2.15-.99-4.23-1.73-6.24-.45-1.2-.95-2.37-1.5-3.51-3.84-7.9-10.24-14.31-18.14-18.14-1.14-.55-2.31-1.05-3.51-1.5-2.01-.74-4.09-1.32-6.24-1.73-.16-.03-.32-.06-.48-.09-1.44-.26-1.44-2.32,0-2.57.16-.03.32-.06.48-.09,2.15-.41,4.23-1,6.24-1.74,1.2-.44,2.37-.95,3.51-1.5,7.9-3.84,14.31-10.24,18.14-18.14.55-1.14,1.05-2.32,1.5-3.51.74-2.01,1.32-4.09,1.73-6.24.03-.16.06-.32.09-.47.26-1.44,2.32-1.44,2.57,0,.03.16.06.32.09.47.41,2.15,1,4.23,1.74,6.24.44,1.2.94,2.37,1.5,3.51,3.84,7.9,10.24,14.31,18.14,18.14,1.14.55,2.32,1.06,3.51,1.5,2.01.74,4.09,1.32,6.24,1.74.16.03.32.06.47.09,1.44.26,1.44,2.32,0,2.57Z"/>
</svg>