<svg xmlns="http://www.w3.org/2000/svg" viewBox="0 0 600 600" fill="none">
    <path d="M300 600C465.685 600 600 465.685 600 300C600 134.315 465.685 0 300 0C134.315 0 0 134.315 0 300C0 465.685 134.315 600 300 600Z" fill="white"/>
    <path d="M300 600C465.685 600 600 465.685 600 300C600 134.315 465.685 0 300 0C134.315 0 0 134.315 0 300C0 465.685 134.315 600 300 600Z" fill="url(#paint0_radial_440_36)"/>
    <g transform="matrix(15,0,0,15,55,40)">
        <path fill-rule="evenodd" clip-rule="evenodd" d="M11.3583 6.81274L13.9247 7.49906V26.4598C18.8694 25.7891 21.4622 22.778 21.9687 17.1387L21.9834 16.967L16.4568 15.4562V12.8232L24.5943 15.0475L24.5952 16.3413L24.5943 16.3811C24.5828 16.8195 24.5383 17.2438 24.4942 17.6533C23.8386 23.7419 20.9251 26.7363 17.5627 28.1073C15.415 28.8663 13.3468 29.2253 11.3583 29.1842V6.81274ZM16.4539 8.16834L22.4598 9.77288V12.4335L16.4539 10.7398V8.16834Z" fill="white"/>
    </g>
    <defs>
        <radialGradient id="paint0_radial_440_36" cx="0" cy="0" r="1" gradientUnits="userSpaceOnUse" gradientTransform="translate(196 143.5) rotate(54.1675) scale(497.082)">
            <stop stop-color="#4846AC88"/>
            <stop offset="1" stop-color="#4846AC"/>
        </radialGradient>
    </defs>
</svg>