<svg width="300" height="300" viewBox="-50 -58.5 300 300" fill="none" xmlns="http://www.w3.org/2000/svg">
<path d="M80.171 104.034L31.8569 72.327L52.3904 63.3897L200 0L199.924 160.269L200 182.738L151.686 151.006L158.606 140.512L187.343 159.391L187.318 151.985L187.494 19.1299L64.947 71.6492L58.178 74.5865L87.091 93.5657L80.171 104.034Z" fill="#00CC33"/>
<path d="M119.829 78.6786L168.168 110.411L147.61 119.323L0 182.738L0.0754908 22.4688L0 5.89019e-06L48.3141 31.7325L41.4193 42.2263L12.6573 23.3475L12.6824 30.7283L12.5315 163.608L135.053 111.089L141.822 108.152L112.909 89.1724L119.829 78.6786Z" fill="#00CC33"/>
</svg>
