<svg width="800" height="800" viewBox="0 0 800 800" fill="none" xmlns="http://www.w3.org/2000/svg">
<path d="M665.716 400.072C652.127 400.227 639.146 405.734 629.592 415.398C620.037 425.063 614.678 438.105 614.678 451.695C614.678 465.285 620.037 478.328 629.592 487.992C639.146 497.656 652.127 503.163 665.716 503.318C673.93 503.318 681.807 506.581 687.615 512.389C693.424 518.198 696.687 526.075 696.687 534.289C696.687 542.503 693.424 550.38 687.615 556.188C681.807 561.996 673.93 565.26 665.716 565.26C665.045 565.26 664.374 565.259 663.703 565.313C663.032 565.367 662.361 565.26 661.689 565.26H268.434C177.348 565.26 103.24 491.158 103.24 400.072C103.24 308.986 177.327 234.884 268.434 234.884C359.54 234.884 433.601 308.986 433.601 400.072C433.669 424.4 428.314 448.437 417.925 470.435C415.033 476.566 413.377 483.207 413.051 489.978C412.726 496.749 413.737 503.518 416.027 509.898C418.318 516.278 421.843 522.145 426.4 527.163C430.958 532.181 436.459 536.252 442.59 539.144C454.973 544.985 469.168 545.667 482.053 541.041C488.434 538.751 494.3 535.226 499.318 530.669C504.336 526.111 508.407 520.61 511.299 514.478C538.27 457.296 544.192 392.429 528.021 331.308C511.85 270.187 474.624 216.736 422.904 180.373C371.183 144.011 308.288 127.071 245.301 132.538C182.314 138.006 123.278 165.531 78.5974 210.262C27.897 260.963 0 328.373 0 400.072C0 471.771 27.9171 539.181 78.6176 589.882C103.487 614.887 133.068 634.711 165.65 648.207C198.232 661.703 233.167 668.602 268.434 668.506H661.757C662.428 668.506 663.099 668.506 663.77 668.452C664.441 668.399 665.112 668.506 665.783 668.506C739.79 668.506 800 608.296 800 534.289C800 460.282 739.743 400.072 665.716 400.072Z" fill="url(#paint0_linear_401_2)"/>
<path d="M791.081 334.413C791.081 336.171 791.081 337.922 791.081 339.654V342.231L790.927 344.801L790.538 349.848C789.021 362.665 776.66 366.712 773.264 358.203C772.546 356.384 771.747 354.632 770.882 352.948L768.869 349.391L767.848 347.66L766.681 345.996L764.345 342.795L761.809 339.781L760.554 338.312L756.527 334.285L753.669 331.842L752.326 330.655C751.85 330.265 751.353 329.916 750.877 329.527C743.796 324.169 735.98 319.859 727.671 316.73C723.991 315.308 720.214 314.15 716.37 313.267C712.686 312.482 708.94 312.019 705.176 311.884C701.585 311.766 697.991 311.975 694.439 312.508C691.05 312.996 687.711 313.78 684.46 314.851C678.296 316.923 672.501 319.963 667.293 323.856C662.394 327.587 657.986 331.92 654.173 336.755L653.717 337.318C650.139 341.726 645.728 345.385 640.735 348.087C635.742 350.789 630.266 352.481 624.619 353.067C618.972 353.652 613.266 353.119 607.825 351.498C602.384 349.877 597.316 347.2 592.91 343.62C589.43 340.808 586.419 337.46 583.991 333.701C579.137 326.255 576.692 317.496 576.986 308.612C577.28 299.728 580.3 291.15 585.636 284.041C596.096 270.274 609.461 258.98 624.78 250.963C626.686 250.01 628.612 249.078 630.545 248.145C632.477 247.212 634.437 246.44 636.41 245.615C640.389 244.051 644.416 242.669 648.489 241.501C672.766 234.573 698.608 235.465 722.349 244.051C729.943 246.78 737.228 250.3 744.085 254.554C750.867 258.669 757.157 263.544 762.835 269.083C771.325 277.413 778.137 287.296 782.901 298.194C784.286 301.343 785.494 304.567 786.518 307.851C786.8 308.737 787.102 309.583 787.337 310.495C787.572 311.408 787.793 312.267 788.008 313.18L789.243 318.508C789.545 320.306 789.826 322.078 790.088 323.877L790.477 326.514L790.692 329.198L791.081 334.413Z" fill="#ACD32A"/>
<defs>
<linearGradient id="paint0_linear_401_2" x1="399.966" y1="668.506" x2="399.966" y2="131.638" gradientUnits="userSpaceOnUse">
<stop stop-color="#ACD32A"/>
<stop offset="0.77" stop-color="#94C83F"/>
</linearGradient>
</defs>
</svg>
