<svg width="240" height="240" viewBox="0 0 240 240" fill="none" xmlns="http://www.w3.org/2000/svg">
<g clip-path="url(#clip0_7589_53327)">
<circle cx="120" cy="120" r="120" fill="white"/>
<path d="M74.4846 110.815C79.8423 112.676 85.7272 115.846 90.4499 118.984C91.9202 119.96 93.5019 122.292 95.6479 122.325C95.867 122.923 96.3571 124.865 96.7432 125.129C97.664 125.76 98.4028 124.932 98.6182 124.924C98.8632 124.921 99.112 124.921 99.3607 124.924C99.8397 124.932 99.9845 125.258 100.103 125.296C100.059 125.522 100.17 125.875 100.103 126.038C99.9808 126.331 99.6541 126.651 99.4721 127.078C99.3236 127.43 99.435 128.143 99.3385 128.24C99.1417 128.433 97.5229 127.928 97.1367 128.827C96.9437 130.219 98.1021 129.454 98.2729 131.028C98.4585 132.744 98.5216 138.758 98.232 140.318C98.0427 141.346 96.3979 142.939 96.3979 143.674C96.3979 144.242 97.3372 145.13 97.4449 146.002C97.5526 146.875 97.0885 147.461 97.107 148.096C97.1108 148.26 98.6739 148.467 97.5043 149.062C96.9994 148.664 95.9226 148.289 95.2766 147.948C95.1801 147.896 94.9981 148 94.9053 147.948C94.7902 146.24 93.1083 146.295 92.1727 145.668C90.5873 144.602 88.7866 143.359 87.4573 142.234L84.5131 141.265C84.2829 141.138 84.0118 141.016 83.7705 140.893C83.0725 139.085 81.8472 139.724 80.8002 139.408C78.8844 138.833 76.9537 137.956 74.9525 137.645C65.3882 136.156 59.7743 140.455 60.3832 150.357C60.5095 152.392 61.2372 154.464 61.3115 156.487C55.5862 147.413 50.2175 134.975 51.0863 123.989C51.2942 121.382 52.991 117.992 52.9575 116.021C54.6692 114.989 55.3969 113.091 57.0677 111.777C62.533 107.463 68.351 108.692 74.4921 110.823L74.4846 110.815Z" fill="#EF718C"/>
<path d="M101.964 166.508C104.091 168.573 105.851 170.347 107.905 172.078C116.504 179.325 128.648 186.784 140.385 185.808C143.013 185.589 145.464 184.501 148.003 183.959C140.021 191.566 116.708 191.154 106.486 188.904C100.668 187.623 86.8007 182.693 82.5272 178.783C82.1819 178.467 82.3676 177.858 82.2191 177.732C82.0223 177.569 81.0421 177.584 80.3626 177.157C75.974 174.409 69.6176 168.19 67.8874 163.271C65.4147 156.235 68.8305 150.335 76.5421 150.524C86.2215 150.758 95.4665 160.215 101.964 166.512V166.508Z" fill="#F49250"/>
<path d="M136.49 53.2659C136.791 53.3439 137.263 53.2065 137.604 53.2659C137.675 53.4218 137.812 53.5926 137.975 53.6372C148.865 56.5035 169.104 67.126 172.401 78.8029C173.704 83.4068 172.531 88.59 167.6 90.1345C156.837 93.5058 145.223 81.6952 137.972 75.1717C137.207 73.1928 136.074 73.2559 134.63 72.5727C134.433 72.3314 134.352 71.5517 133.888 71.0876C132.993 69.2609 134.263 69.1606 134.281 69.0344C134.396 68.2213 133.405 67.6829 133.501 66.8438C133.565 66.2794 134.259 65.845 134.263 65.3289C134.263 64.85 133.542 64.3265 133.487 63.4762C133.379 61.954 134.467 59.6074 134.548 58.1817C134.604 57.2349 133.966 55.8538 134.237 54.9664C134.352 54.5877 135.072 54.7733 135.369 54.5543C135.922 54.1458 135.395 52.9911 136.49 53.2585V53.2659ZM137.6 71.4626C136.954 70.8165 135.707 72.0566 137.051 72.5727C137.838 72.8735 137.708 71.574 137.6 71.4626Z" fill="#3EBAE9"/>
<path d="M97.5079 70.3453C103.315 70.5347 109.103 71.875 114.468 73.9913C121.983 76.9579 127.812 81.1349 134.265 85.568C132.657 85.1596 133.404 86.4257 132.936 86.719C132.539 86.964 131.466 86.9343 131.336 87.094C131.176 87.287 130.846 91.0445 130.537 92.0506C130.192 93.1793 129.524 93.9108 129.175 95.1434C128.759 96.6174 128.959 98.9343 128.651 99.8216C128.417 100.497 127.523 100.23 127.177 100.661C126.026 102.112 126.973 104.351 126.839 104.5C126.739 104.608 125.15 104.336 125.351 105.617C120.943 102.729 112.059 97.2412 107.158 96.3353C105.739 96.0717 104.919 95.964 103.445 95.964L104.555 95.2251C100.642 94.0816 96.6911 92.6521 92.6775 91.8798C92.024 89.5296 93.7468 90.287 94.1032 89.4071C94.9943 87.2016 95.1354 83.1361 95.8186 80.7264C96.279 79.1002 97.1106 76.8317 97.6713 75.1534C98.0314 74.0767 99.5388 73.5346 99.3755 72.4059C99.3495 72.2129 98.7294 72.2723 98.6255 71.9233C98.5215 71.5743 98.6775 70.7166 98.6181 70.7166H92.6775V70.349C94.2814 70.3787 95.904 70.2933 97.5042 70.3453H97.5079Z" fill="#BE7CB4"/>
<path d="M102.335 126.781C102.695 126.914 103.163 127.022 103.449 127.152C103.4 128.125 104.017 128.125 104.51 128.514C108.513 131.678 114.116 135.212 118.671 137.548C119.176 137.808 119.882 137.923 120.528 138.29C120.498 139.033 120.892 139.415 121.642 139.404C121.686 139.441 122.488 139.672 122.755 139.775C122.767 140.938 123.724 141.016 124.612 141.261C124.823 141.32 125.161 141.198 125.354 141.261C125.659 143.091 126.706 142.839 127.953 143.117C128.072 143.143 128.21 143.087 128.325 143.117L129.067 144.973C125.874 145.189 129.524 146.648 129.639 146.815C130.486 148.029 129.357 161.867 129.799 164.455C129.62 165.643 128.637 165.847 127.582 165.765L128.696 167.247C126.836 167.254 127.69 167.132 126.164 166.619C122.804 165.494 119.629 164.091 116.444 162.42C112.549 160.378 108.546 157.942 104.934 155.366C104.882 154.441 103.163 153.688 102.335 153.138C102.197 153.045 101.882 152.949 101.592 152.767L100.85 152.024C100.709 151.935 100.601 151.716 100.478 151.653C100.304 151.126 99.9065 150.925 99.3645 150.91C99.331 150.881 98.9078 150.747 98.6219 150.539C98.2803 150.171 97.8385 149.314 97.508 149.054C98.6776 148.46 97.1145 148.256 97.1108 148.089C97.0885 147.454 97.5563 146.878 97.4486 145.995C97.341 145.111 96.4053 144.235 96.4016 143.667C96.4016 142.931 98.0464 141.339 98.2358 140.31C98.5254 138.751 98.466 132.736 98.2766 131.021C98.1058 129.45 96.9474 130.211 97.1405 128.819C97.5266 127.92 99.1417 128.429 99.3422 128.232C99.4387 128.136 99.3273 127.423 99.4759 127.07C99.6578 126.639 99.9845 126.324 100.107 126.031C100.935 126.008 101.592 126.498 102.335 126.773V126.781Z" fill="#F48E80"/>
<path d="M171.393 103.761C180.281 101.236 180.991 93.0752 178.076 85.3747L178.815 84.8252C180.036 87.4242 181.852 89.637 183.081 92.2583C186.872 100.341 190.481 111.992 188.297 120.851C187.915 122.396 186.693 123.962 186.987 125.295L183.612 128.789C179.851 131.674 175.239 132.313 170.65 131.607C167.494 131.121 162.89 129.175 159.883 127.894L158.769 126.413C159.374 125.945 162.267 127.92 161.736 126.602L159.679 125.303L158.03 123.443C158.661 123.409 159.649 123.662 160.08 123.079C160.228 122.878 161.557 118.842 161.654 118.341C162.055 116.243 161.665 114.951 162.664 112.668C162.983 111.94 163.618 111.517 163.882 110.915C165.066 108.198 165.46 105.573 168.051 103.761C168.541 103.783 169.043 103.761 169.536 103.761C170.082 104.696 170.929 103.894 171.393 103.761Z" fill="#3EBAE9"/>
<path d="M97.5065 70.345C95.9063 70.293 94.2837 70.3784 92.6835 70.3487V70.7163H98.6204C98.6798 70.7163 98.5238 71.5776 98.6278 71.9229C98.7317 72.2682 99.3518 72.2125 99.3778 72.4056C99.5374 73.5343 98.0337 74.0727 97.6736 75.1531C97.1129 76.8313 96.2813 79.0962 95.8209 80.7261C95.1377 83.1358 94.9966 87.2013 94.1055 89.4068C93.7491 90.2867 92.0301 89.5293 92.6798 91.8795C80.7133 89.5738 64.3582 91.1926 56.1045 101.158C52.0761 106.018 52.0464 108.428 52.581 114.528C49.0724 107.15 51.7827 97.8646 55.7666 91.1667C64.0686 77.2063 79.4361 69.7732 95.4719 69.9663C96.0993 69.9737 97.1204 69.7286 97.5102 70.345H97.5065Z" fill="#DB529D"/>
<path d="M139.089 146.83C140.147 147.171 141.231 147.895 142.802 148.315C142.713 149.106 142.757 149.147 143.545 149.057C143.738 149.199 145.891 148.961 146.515 149.057C146.392 149.923 146.637 150.082 147.257 149.429C148.123 149.562 148.988 149.677 149.856 149.8C149.708 151.267 150.428 150.182 150.599 150.171C151.928 150.078 153.339 150.179 154.683 150.171L156.172 151.653C155.485 151.63 154.709 151.578 154.312 152.225C154.316 153.097 154.943 153.502 155.073 154.419C155.233 155.536 155.17 163.664 154.873 164.288C154.512 165.041 153.291 164.663 153.569 165.762C154.42 166.044 157.171 165.038 156.911 166.504C156.54 166.281 152.63 167.232 153.569 167.989C154.059 168.387 158.567 167.054 158.021 169.478C152.34 170.863 146.429 171.349 140.571 170.963C140.192 170.128 137.908 169.879 137.021 169.835C136.134 169.79 136.163 170.228 136.115 170.221C135.874 170.198 135.618 170.224 135.373 170.221L134.63 169.849C134.396 169.816 134.114 169.894 133.887 169.849C134.081 168.981 131.519 168.323 130.546 167.993C130.72 167.009 130.308 167.221 129.432 167.25C129.187 167.258 128.938 167.25 128.689 167.25L127.576 165.769C128.63 165.847 129.61 165.646 129.792 164.458C129.354 161.871 130.479 148.033 129.633 146.819C129.517 146.652 125.868 145.192 129.061 144.977L128.318 143.121C131.404 143.934 134.749 145.939 137.983 147.034C138.558 147.231 139.033 146.815 139.085 146.833L139.089 146.83Z" fill="#FAB375"/>
<path d="M92.6804 91.8796C96.694 92.6519 100.644 94.0813 104.558 95.2249L103.448 95.9637C92.9069 95.9674 80.1495 101.704 74.4874 110.815C68.3427 108.684 62.5283 107.455 57.063 111.769C55.396 113.087 54.6645 114.981 52.9529 116.013C52.9529 115.839 52.6299 115.096 52.5816 114.528C52.047 108.424 52.0767 106.018 56.1051 101.158C64.3588 91.1927 80.7139 89.5739 92.6804 91.8796Z" fill="#EFEFEE"/>
<path d="M134.262 85.5677C140.641 89.9451 146.964 94.9724 153.569 98.934C152.333 98.7186 152.982 99.58 152.845 100.237C152.173 103.453 151.082 105.127 150.124 107.93C148.928 111.417 148.353 115.62 147.235 119.188C146.905 121.631 150.636 121.237 150.97 123.442C150.729 123.309 150.465 123.209 150.228 123.071C148.056 121.809 145.98 120.413 143.916 118.987C143.808 118.913 143.567 118.527 143.173 118.245C143.028 118.144 142.72 118.081 142.431 117.873C142.119 117.647 141.844 117.606 141.688 117.502C141.506 117.379 141.164 117.383 140.945 117.131C140.667 116.811 141.584 116.681 140.203 116.388C140.08 116.362 139.939 116.421 139.832 116.388C140.006 115.616 139.397 115.586 138.94 115.259C134.511 112.096 129.885 108.591 125.351 105.621C125.151 104.34 126.74 104.611 126.84 104.503C126.974 104.358 126.027 102.116 127.178 100.664C127.523 100.23 128.418 100.501 128.652 99.825C128.96 98.9377 128.756 96.6209 129.176 95.1469C129.525 93.9142 130.193 93.1828 130.538 92.054C130.846 91.0479 131.177 87.2942 131.337 87.0974C131.467 86.9377 132.54 86.9674 132.937 86.7224C133.405 86.4328 132.658 85.163 134.266 85.5714L134.262 85.5677Z" fill="#9895C6"/>
<path d="M186.986 125.295C187.108 125.849 187.524 126.569 187.728 127.152L188.1 127.523C188.141 127.712 188.118 128.047 188.1 128.266C187.327 138.209 181.164 145.022 171.763 148.315C166.001 150.335 160.662 150.134 154.684 150.172C153.34 150.179 151.929 150.079 150.6 150.172C150.507 149.797 150.166 149.845 149.857 149.8C148.989 149.678 148.123 149.563 147.258 149.429C147.218 149.422 147.147 149.154 146.516 149.058C145.885 148.961 143.739 149.199 143.546 149.058C143.256 148.842 144.225 148.698 142.803 148.315C141.232 147.896 140.148 147.172 139.09 146.83C140.093 145.92 141.173 144.621 142.432 144.231C143.505 143.901 144.8 144.008 145.859 143.759C152.616 142.159 158.092 140.384 164.081 136.735C166.376 135.335 168.875 133.634 170.649 131.607C175.238 132.313 179.85 131.674 183.611 128.789L186.986 125.295Z" fill="#EFEFEE"/>
<path d="M106.788 169.85C111.184 170.956 115.421 172.014 119.973 172.445C127.105 173.124 140.063 172.074 146.137 174.131C151.614 175.983 152.029 180.123 148.005 183.958C145.465 184.504 143.015 185.592 140.386 185.807C128.646 186.78 116.505 179.325 107.906 172.077C107.646 171.275 107.163 170.611 106.792 169.85H106.788Z" fill="#EFEFEE"/>
<path d="M121.641 61.4342C125.179 63.5802 130.971 68.147 133.893 71.0876C134.357 71.5517 134.439 72.3314 134.636 72.5727C122.811 66.9737 109.244 69.0195 96.5829 67.7423C90.1783 67.0963 86.4877 62.4775 91.9382 57.35C93.234 57.3834 94.177 56.4367 95.354 56.1248C103.136 54.053 114.846 57.3129 121.641 61.4342Z" fill="#EFEFEE"/>
<path d="M153.571 98.9338C158.51 101.897 162.018 103.482 168.052 103.761C165.46 105.572 165.066 108.197 163.882 110.915C163.618 111.517 162.984 111.936 162.664 112.668C161.662 114.947 162.055 116.243 161.654 118.341C161.558 118.842 160.229 122.878 160.08 123.078C159.649 123.661 158.662 123.409 158.031 123.442L159.679 125.302L161.736 126.602C162.271 127.92 159.378 125.945 158.769 126.413L159.883 127.894C156.802 126.583 153.883 125.08 150.972 123.439C150.638 121.233 146.907 121.627 147.237 119.184C148.355 115.616 148.934 111.413 150.126 107.926C151.084 105.127 152.175 103.452 152.847 100.233C152.985 99.5798 152.335 98.7147 153.571 98.9301V98.9338Z" fill="#66AADC"/>
<path d="M171.765 148.315L173.247 149.247C173.47 149.993 172.723 149.674 172.53 150.075C171.394 152.418 173.239 152.269 173.273 152.614C173.306 152.934 172.504 154.746 172.478 155.923C172.434 158.121 173.963 160.694 172.152 162.528C171.68 163.007 170.648 163.066 170.147 163.515C169.798 163.827 169.939 164.254 169.909 164.28C166.527 166.875 162.138 168.476 158.028 169.478C158.574 167.057 154.066 168.387 153.576 167.989C152.637 167.232 156.547 166.281 156.918 166.504C157.178 165.041 154.426 166.044 153.576 165.762C153.294 164.663 154.519 165.041 154.879 164.288C155.176 163.664 155.24 155.536 155.08 154.419C154.95 153.502 154.323 153.097 154.319 152.225C154.716 151.579 155.492 151.631 156.179 151.653L154.69 150.171C160.668 150.134 166.007 150.335 171.769 148.315H171.765Z" fill="#F1CE74"/>
<path d="M188.102 128.266C189.528 132.301 188.997 137.522 187.917 141.632C186.116 148.475 179.652 157.586 173.964 161.837C172.69 162.788 171.268 163.478 169.909 164.28C169.943 164.254 169.798 163.827 170.147 163.515C170.648 163.066 171.68 163.007 172.152 162.528C173.964 160.694 172.434 158.117 172.478 155.923C172.501 154.746 173.303 152.934 173.273 152.614C173.24 152.269 171.394 152.418 172.53 150.075C172.727 149.674 173.47 149.993 173.247 149.247L171.766 148.315C181.167 145.022 187.33 138.209 188.102 128.266Z" fill="#D1D884"/>
<path d="M136.491 53.266C135.392 52.9986 135.923 54.1533 135.37 54.5617C135.073 54.7808 134.356 54.5952 134.237 54.9739C133.966 55.8575 134.601 57.2387 134.549 58.1892C134.468 59.6149 133.38 61.9614 133.487 63.4837C133.547 64.334 134.267 64.8538 134.263 65.3364C134.263 65.8488 133.569 66.2869 133.502 66.8513C133.406 67.6904 134.397 68.225 134.282 69.0419C134.263 69.1681 132.997 69.2646 133.888 71.0951C130.966 68.1545 125.174 63.5877 121.636 61.4417C120.533 59.3365 122.082 59.6743 122.327 58.9875C122.653 58.0555 122.271 55.8761 122.423 54.6174C122.575 53.3588 123.136 52.5605 123.492 51.4207C118.833 51.61 114.028 51.1571 109.387 51.4207C109.773 50.8043 110.798 51.0494 111.426 51.042C121.016 50.9417 127.172 50.834 136.491 53.2771V53.266Z" fill="#66AADC"/>
<path d="M109.386 51.4095C114.027 51.1459 118.836 51.6026 123.491 51.4095C123.135 52.5493 122.574 53.329 122.422 54.6063C122.27 55.8835 122.652 58.0481 122.326 58.9763C122.084 59.6632 120.536 59.329 121.635 61.4305C114.841 57.3092 103.13 54.0493 95.3481 56.1211C94.1711 56.433 93.228 57.3798 91.9323 57.3463C95.9978 53.5221 103.869 51.7177 109.383 51.4058L109.386 51.4095Z" fill="#9895C6"/>
<path d="M116.44 162.424C119.626 164.095 122.804 165.502 126.161 166.623C127.683 167.132 126.829 167.258 128.693 167.251C128.942 167.251 129.19 167.258 129.435 167.251C129.202 168.476 129.97 167.796 130.549 167.993C131.522 168.324 134.084 168.981 133.891 169.85C128.433 168.81 122.31 166.085 117.417 163.471C116.897 163.192 116.244 163.322 116.44 162.424Z" fill="#D5947D"/>
<path d="M101.962 166.508C103.105 166.961 104.148 168.015 105.207 168.65C106.372 169.348 106.109 168.461 106.788 169.849C107.16 170.611 107.642 171.275 107.902 172.077C105.849 170.347 104.089 168.572 101.962 166.508Z" fill="#D5947D"/>
<path d="M84.5102 141.261L87.4545 142.23C88.7837 143.355 90.5845 144.602 92.1699 145.664C93.1055 146.292 94.7874 146.236 94.9025 147.944C91.3419 145.943 88.108 143.21 84.5065 141.261H84.5102Z" fill="#D5947D"/>
<path d="M140.575 170.963C139.127 170.867 137.583 170.351 136.12 170.221C136.168 170.225 136.161 169.79 137.026 169.835C137.891 169.879 140.197 170.132 140.575 170.963Z" fill="#D5947D"/>
<path d="M97.5062 149.058C97.8366 149.318 98.2784 150.175 98.62 150.543C97.4765 149.711 95.5086 149.414 95.2784 147.944C95.9245 148.285 97.0012 148.66 97.5062 149.058Z" fill="#D5947D"/>
<path d="M83.7686 140.889C82.7847 140.392 81.5892 140.284 80.7983 139.404C81.8454 139.72 83.0706 139.081 83.7686 140.889Z" fill="#D5947D"/>
<path d="M137.976 75.1717C137.078 74.3623 135.069 73.1111 134.635 72.5728C136.079 73.2559 137.211 73.1928 137.976 75.1717Z" fill="#66AADC"/>
<path d="M171.392 103.761C170.928 103.894 170.081 104.696 169.535 103.761C170.156 103.761 170.772 103.761 171.392 103.761Z" fill="#66AADC"/>
<path d="M100.475 151.657C100.263 151.549 99.5023 151.775 99.3612 151.657C99.2721 151.582 99.4429 150.988 99.3612 150.914C99.9033 150.929 100.301 151.129 100.475 151.657Z" fill="#D5947D"/>
<path d="M102.333 153.142C103.161 153.691 104.88 154.445 104.932 155.369C104.019 154.72 103.113 153.958 102.333 153.142Z" fill="#D5947D"/>
<path d="M135.377 170.221C134.731 170.206 134.676 169.857 134.635 169.85L135.377 170.221Z" fill="#D5947D"/>
<path d="M101.59 152.77C101.174 152.511 100.963 152.102 100.848 152.028L101.59 152.77Z" fill="#D5947D"/>
<path d="M188.1 127.523L187.728 127.152C187.736 127.178 188.037 127.215 188.1 127.523Z" fill="#D1D884"/>
<path d="M137.976 53.6374C137.813 53.5928 137.676 53.4221 137.605 53.2661C137.779 53.2958 137.932 53.4592 137.976 53.6374Z" fill="#66AADC"/>
<path d="M107.159 97.0776C108.882 96.9291 113.998 99.9254 115.776 100.898C118.984 102.654 122.033 105.057 124.609 106.731C124.03 107.091 122.025 108.766 122.396 109.311C122.422 109.352 123.005 109.408 123.284 109.712C124.502 111.06 123.124 111.58 123.124 111.743V136.619C123.124 136.709 122.835 136.942 122.842 137.299C122.861 137.9 123.878 138.751 123.124 139.775C123.017 139.735 122.861 139.816 122.753 139.775C122.486 139.671 121.684 139.441 121.639 139.404C121.461 139.252 121.847 139.037 120.525 138.29C119.879 137.923 119.174 137.808 118.669 137.548L117.262 136.085C112.728 133.482 108.147 129.257 103.446 127.152C103.16 127.022 102.692 126.914 102.332 126.78C102.533 125.886 100.765 125.499 100.105 125.295C99.9857 125.258 99.8409 124.931 99.3619 124.924C99.529 123.955 98.8199 124.308 98.6194 124.181C97.732 123.624 96.8521 122.964 96.0204 122.325C95.987 122.299 96.1169 121.839 95.7679 121.568C94.6095 120.669 91.7803 119.733 91.565 118.241C91.138 115.271 95.1182 107.759 96.9783 105.276C98.1701 103.683 100.621 101.236 102.147 100.044C103.03 99.3536 106.253 97.1556 107.159 97.0776Z" fill="#FDBE23"/>
<path d="M91.5656 118.241C91.781 119.733 94.6102 120.669 95.7686 121.567C96.1176 121.838 95.9876 122.303 96.0211 122.325H95.6498C93.5037 122.291 91.9221 119.96 90.4518 118.983C91.0681 119.113 91.2797 118.705 91.5656 118.241Z" fill="#F49250"/>
<path d="M98.62 124.182V124.924C98.4047 124.928 97.6658 125.756 96.745 125.128C96.3589 124.865 95.8688 122.927 95.6497 122.325H96.021C96.8527 122.964 97.7326 123.625 98.62 124.182Z" fill="#F48E80"/>
<path d="M100.107 125.295C100.768 125.5 102.535 125.886 102.334 126.781C101.592 126.506 100.935 126.016 100.107 126.038C100.174 125.875 100.062 125.522 100.107 125.295Z" fill="#F49250"/>
<path d="M98.62 124.182C98.8205 124.308 99.5296 123.955 99.3626 124.924C99.1138 124.92 98.865 124.92 98.62 124.924V124.182Z" fill="#F49250"/>
<path d="M137.602 71.4626C137.71 71.5703 137.84 72.8735 137.053 72.5728C135.709 72.0604 136.956 70.8203 137.602 71.4626Z" fill="#66AADC"/>
<path d="M125.353 105.617C129.882 108.587 134.512 112.089 138.942 115.256C139.402 115.582 140.011 115.612 139.833 116.384C137.33 115.649 127.599 108.673 124.61 106.731C122.033 105.056 118.985 102.654 115.777 100.898C113.999 99.9253 108.882 96.929 107.16 97.0775V96.335C112.061 97.2409 120.945 102.728 125.353 105.617Z" fill="#EF718C"/>
<path d="M139.831 116.384C139.938 116.418 140.08 116.358 140.202 116.384C140.072 117.064 140.273 117.242 140.945 117.127C141.164 117.379 141.505 117.376 141.687 117.498L142.43 117.87C142.719 118.077 143.028 118.141 143.172 118.241L143.915 118.983C145.979 120.409 148.055 121.805 150.227 123.068C150.52 128.507 148.931 133.876 146.206 138.539C144.999 140.607 143.403 142.118 142.43 144.231C141.171 144.621 140.091 145.92 139.088 146.83C139.036 146.811 138.561 147.227 137.986 147.03C134.752 145.931 131.406 143.93 128.321 143.117C128.206 143.087 128.068 143.143 127.95 143.117C128.057 142.066 126.257 141.565 125.351 141.26C125.158 141.197 124.82 141.32 124.608 141.26C124.545 140.076 123.929 140.095 123.123 139.775C123.877 138.751 122.859 137.9 122.841 137.299C122.83 136.942 123.123 136.709 123.123 136.619V111.743C123.123 111.58 124.5 111.06 123.283 109.712C123.008 109.408 122.425 109.352 122.395 109.311C122.024 108.766 124.033 107.091 124.608 106.731C127.597 108.673 137.328 115.649 139.831 116.384Z" fill="#F26C23"/>
<path d="M103.449 127.152C108.153 129.257 112.735 133.482 117.265 136.085L118.672 137.548C114.112 135.212 108.513 131.678 104.511 128.514C104.017 128.125 103.404 128.125 103.449 127.152Z" fill="#F49250"/>
<path d="M125.353 141.261C126.258 141.565 128.059 142.066 127.952 143.117C126.704 142.839 125.657 143.091 125.353 141.261Z" fill="#FAB375"/>
<path d="M124.61 141.261C123.723 141.016 122.765 140.938 122.754 139.775C122.861 139.816 123.017 139.735 123.125 139.775C123.931 140.095 124.547 140.076 124.61 141.261Z" fill="#F49250"/>
<path d="M121.641 139.404C120.891 139.416 120.498 139.033 120.527 138.291C121.849 139.037 121.463 139.252 121.641 139.404Z" fill="#F49250"/>
<path d="M129.438 167.25C130.314 167.221 130.726 167.009 130.552 167.993C129.973 167.796 129.204 168.476 129.438 167.25Z" fill="#F48E80"/>
<path d="M142.803 148.315C144.225 148.697 143.256 148.842 143.546 149.058C142.759 149.147 142.714 149.106 142.803 148.315Z" fill="#F1CE74"/>
<path d="M147.257 149.429C146.636 150.082 146.391 149.923 146.514 149.058C147.145 149.154 147.216 149.421 147.257 149.429Z" fill="#F1CE74"/>
<path d="M150.601 150.172C150.431 150.183 149.71 151.267 149.859 149.8C150.167 149.845 150.509 149.797 150.601 150.172Z" fill="#F1CE74"/>
<path d="M140.204 116.384C141.585 116.678 140.668 116.808 140.947 117.127C140.275 117.242 140.074 117.064 140.204 116.384Z" fill="#EF718C"/>
<path d="M142.432 117.87L141.689 117.499C141.845 117.602 142.12 117.643 142.432 117.87Z" fill="#EF718C"/>
<path d="M143.917 118.983L143.174 118.241C143.568 118.523 143.809 118.909 143.917 118.983Z" fill="#EF718C"/>
</g>
<defs>
<clipPath id="clip0_7589_53327">
<rect width="240" height="240" fill="white"/>
</clipPath>
</defs>
</svg>
