<svg width="240" height="240" viewBox="0 0 240 240" fill="none" xmlns="http://www.w3.org/2000/svg">
<g clip-path="url(#clip0_7589_52593)">
<path d="M120 240C186.5 240 240 186.5 240 120C240 53.4996 186.5 0 120 0C53.4996 0 0 53.4996 0 120C0 186.5 53.4996 240 120 240Z" fill="#ED176C"/>
<path d="M168.538 55.2357C170.259 72.8927 164.094 89.9636 154.714 104.576C157.17 105.098 158.094 104.015 159.803 102.754C168.816 96.1168 177.627 82.7403 186.78 75.4916C188.248 90.3968 176.741 102.359 168.538 113.443C170.095 114.882 190.096 99.4673 193.084 98.2825C194.958 97.5309 195.059 98.601 194.983 100.181C194.476 109.557 184.754 120.258 177.944 126.093C176.032 127.724 167.841 132.157 167.538 132.692C166.765 134.081 167.424 138.616 166.715 141.38C154.562 188.618 85.1009 189.459 71.9986 140.387C71.353 137.979 72.3277 134.272 71.4542 132.705C70.9732 131.851 58.2 124.526 55.377 121.685C50.8957 117.201 44.3635 106.589 44.0217 100.193C43.9331 98.6138 44.0344 97.5564 45.9206 98.2953C47.8954 99.0724 65.9095 113.188 66.6817 112.207C66.6817 107.226 61.7952 104.525 59.1241 100.219C54.5415 92.8682 50.7691 84.3455 50.364 75.517C52.7312 74.9692 53.3389 76.8674 54.7567 78.0395C64.3144 85.938 71.834 97.0213 81.7841 104.614C76.7458 88.3585 64.479 71.7844 71.0998 54L99.3805 100.219C101.634 101.646 115.66 98.7284 119.939 98.7539C124.686 98.7921 137.51 102.092 140.295 99.5565C148.954 87.0845 155.967 69.0454 165.018 57.376C166.107 55.9746 166.272 54.7516 168.563 55.2612L168.538 55.2357Z" fill="#121633"/>
<path d="M153.95 136C154.668 147.155 147.563 155.225 136.123 154.995C134.918 143.547 142.69 136.242 153.95 136Z" fill="#E5E55A"/>
<path d="M103.33 154.534C95.0242 158.006 80.041 141.069 86.6284 136.671C92.5313 132.731 107.308 147.11 103.33 154.534Z" fill="#E5E55A"/>
</g>
<defs>
<clipPath id="clip0_7589_52593">
<rect width="240" height="240" fill="white"/>
</clipPath>
</defs>
</svg>
