<svg xmlns="http://www.w3.org/2000/svg" width="16" height="16" viewBox="0 0 16 16" fill="none"><path d="M16 0.963855C16 0.431533 15.5685 0 15.0361 0H12.9639C12.4315 0 12 0.431534 12 0.963856V2.68511C12 2.94074 11.8985 3.1859 11.7177 3.36666L10.4028 4.68154C10.2221 4.8623 9.9769 4.96385 9.72127 4.96385H6.98795C6.45563 4.96385 6.0241 4.53232 6.0241 3.99999V0.963857C6.0241 0.431534 5.59256 1.62533e-06 5.06024 1.62533e-06H0.963855C0.431533 1.62533e-06 0 0.431536 0 0.963858V5.06024C0 5.59257 0.431533 6.0241 0.963856 6.0241H4C4.53232 6.0241 4.96386 6.45563 4.96386 6.98795V9.01205C4.96386 9.54437 4.53232 9.9759 4 9.9759H0.963862C0.431539 9.9759 6.58206e-06 10.4074 6.58206e-06 10.9398V15.0361C6.58206e-06 15.5685 0.431538 16 0.963861 16H5.06025C5.59257 16 6.0241 15.5685 6.0241 15.0361V11.9518C6.0241 11.4195 6.45564 10.9879 6.98796 10.9879H9.64951C9.90514 10.9879 10.1503 11.0895 10.3311 11.2703L11.7177 12.6569C11.8985 12.8377 12 13.0828 12 13.3384V15.0361C12 15.5685 12.4315 16 12.9639 16H15.0361C15.5685 16 16 15.5685 16 15.0361V12.9638C16 12.4315 15.5685 12 15.0361 12H13.3684C13.1127 12 12.8676 11.8984 12.6868 11.7177L11.2703 10.3011C11.0895 10.1204 10.988 9.8752 10.988 9.61957V6.40398C10.988 6.14835 11.0895 5.90319 11.2703 5.72243L12.7104 4.28231C12.8911 4.10155 13.1363 4 13.3919 4H15.0361C15.5685 4 16 3.56847 16 3.03615V0.963855Z" fill="#32FFDC"></path></svg>
