<svg width="698" height="359" viewBox="0 0 698 359" fill="none" xmlns="http://www.w3.org/2000/svg">
<path fill-rule="evenodd" clip-rule="evenodd" d="M654.01 287.469C650.219 287.485 646.428 287.5 642.633 287.483C618.21 287.376 595.555 267.106 595.839 245.652C596.122 223.381 618.123 203.864 642.786 203.972C646.112 203.991 649.442 204.067 652.771 204.143C660.651 204.323 668.529 204.504 676.354 203.929C691.566 202.788 696.324 196.075 697.023 175.589C697.568 159.494 689.755 152.63 674.739 152.07C671.05 151.934 667.346 151.855 663.638 151.776C652.121 151.531 640.574 151.286 629.363 149.316C611.204 146.153 596.319 127.432 595.904 110.799C595.511 95.0473 609.48 77.2304 627.595 72.5394C636.042 70.3446 645.274 70.2155 654.113 70.3876C655.796 70.4172 657.422 70.4518 658.993 70.4853C689.483 71.1348 699.252 71.3429 697.197 25.1567C696.368 6.3929 689.471 0.09273 670.374 0.0496938C627.355 -0.0363784 584.336 0.00665772 541.318 0.0496938C540.661 0.0496938 540.024 0.0570522 539.404 0.0496938C538.212 0.0355494 537.083 0.00723046 535.992 0.0496938H462.92C450.064 0.09273 442.862 6.43594 442.535 18.8734C442.229 31.1647 442.298 43.4559 442.366 55.7472C442.396 61.0147 442.425 66.2821 442.425 71.5496L440.985 115.253C440.527 131.026 434.874 137.761 419.094 139.676C400.324 141.957 387.403 136.749 385.962 117.534C385.89 116.567 385.691 115.609 385.491 114.652C385.27 113.586 385.048 112.521 385.002 111.444C384.326 97.8779 383.668 84.3118 383.01 70.7475C382.179 53.6313 381.348 36.5179 380.484 19.4113C379.873 7.18908 372.561 0.157284 360.273 0.0496938C353.005 -0.0148603 345.737 0.00665772 338.448 0.0496938C324.937 0.114248 318.455 5.7904 317.386 19.1531C316.637 28.5695 316.201 38.0047 315.766 47.4401C315.542 52.2999 315.317 57.1597 315.05 62.0171C314.786 66.9171 314.544 71.8186 314.302 76.72C313.644 90.0282 312.986 103.336 311.886 116.608C310.62 131.951 304.268 138.772 289.23 139.891C268.19 141.462 256.754 135.48 256.579 112.671C256.453 97.2197 256.164 81.7688 255.876 66.3178C255.715 57.7331 255.555 49.1483 255.422 40.5636C255.375 37.6411 255.405 34.7185 255.435 31.796C255.461 29.3605 255.486 26.9251 255.466 24.4896C255.466 24.3497 255.477 24.2152 255.488 24.0808C255.499 23.9463 255.51 23.8118 255.51 23.6719C255.51 22.8757 255.466 22.0796 255.379 21.3049C255.379 20.5518 255.357 19.7987 255.313 19.0455C254.811 8.22194 248.22 0.286393 238.355 0.0496938C237.766 0.0389513 237.178 0.0443226 236.587 0.0496938C235.994 0.0550816 234.797 0.0496938 234.797 0.0496938C235.171 0.0496938 235.152 0.0496938 234.797 0.0496938H24.004C23.6305 0.0496938 23.2921 0.049746 22.956 0.0496938C22.2903 0.0495906 21.6335 0.0493841 20.7301 0.0496938C20.129 0.0604714 19.5333 0.0550826 18.9404 0.0496938C18.3493 0.0443216 17.7609 0.0389493 17.1725 0.0496938C7.30729 0.286437 0.56312 8.20187 0.061128 19.0275C0.01748 19.7808 0.01748 30.2204 0.01748 30.2204L0 330.189L0.017244 334.56C0.017244 335.313 0.017244 338.39 0.060893 339.143C0.56288 349.969 7.30706 357.933 17.1723 358.169C17.7609 358.18 18.551 358.175 19.344 358.17C20.139 358.165 20.9369 358.159 21.5379 358.17L67.876 358.171C81.1877 358.127 88.2146 351.199 88.7602 338.095C88.8239 336.555 88.8754 335.014 88.927 333.472C89.1053 328.145 89.2835 322.819 89.9606 317.546C92.1214 300.977 100.842 292.351 117.473 290.436C124.658 289.68 131.989 289.642 139.043 290.453C155.674 292.368 163.335 300.975 165.496 317.544C166.173 322.818 166.351 328.144 166.529 333.471C166.581 335.012 166.632 336.553 166.696 338.094C167.242 351.198 174.27 358.063 187.583 358.106C205.175 358.17 219.606 358.213 237.198 358.106H243.658C243.658 358.106 277.161 358.192 293.901 358.106C305.36 358.041 313.413 350.467 314.221 339.536C315.065 327.969 315.761 316.392 316.457 304.815C317.201 292.442 317.945 280.07 318.87 267.708C318.955 266.581 319.038 265.452 319.122 264.322C319.937 253.268 320.76 242.125 323.235 231.407C327.229 214.214 342.835 206.102 358.615 211.783C369.549 215.721 374.504 224.801 376.119 235.151C378.131 248.015 379.161 261.04 380.188 274.03C380.287 275.273 380.385 276.515 380.484 277.757C381.234 287.152 381.862 296.555 382.49 305.96C383.213 316.804 383.937 327.649 384.849 338.481C385.919 351.134 393.187 358.063 406.26 358.106C413.071 358.134 419.891 358.125 426.708 358.115C430.115 358.11 433.521 358.106 436.925 358.106H569.757C581.164 358.106 592.572 358.118 603.98 358.13C626.795 358.153 649.61 358.177 672.425 358.106C688.401 358.063 693.793 353.393 696.15 338.244C697.699 328.346 697.961 317.91 696.695 307.969C694.797 292.906 687.812 287.763 672.207 287.505V287.526C666.136 287.42 660.074 287.445 654.01 287.469ZM118.552 204.015C108.098 201.132 101.375 194.482 98.7345 184.24C95.7443 172.556 95.788 160.785 102.27 150.177C108.905 139.332 121.913 135.2 136.078 138.428C147.1 140.945 154.892 149.811 156.704 162.055C157.009 164.089 157.159 166.151 157.309 168.211C157.385 169.245 157.46 170.279 157.555 171.307C158.646 199.389 136.122 208.878 118.552 204.036V204.015Z" fill="black"/>
</svg>
