<svg width="32" height="32" viewBox="0 0 32 32" fill="none" xmlns="http://www.w3.org/2000/svg">
<circle cx="16" cy="16" r="16" fill="white"/>
<path fill-rule="evenodd" clip-rule="evenodd" d="M11.8547 3.38381C13.3453 2.89389 14.9382 2.66989 16.5161 2.73037C18.0944 2.79085 19.6579 3.13613 21.1129 3.74413C22.5683 4.35213 23.9152 5.22317 25.0675 6.29773C26.5917 7.71949 27.775 9.49773 28.4848 11.4868C29.1949 13.4763 29.4314 15.6766 29.1574 17.7713C28.8838 19.866 28.0998 21.8555 26.9139 23.5662C25.728 25.2769 24.1398 26.7086 22.2745 27.7006C20.4093 28.6923 18.2662 29.244 16.1539 29.276C14.0416 29.308 11.9597 28.8206 10.095 27.8952C8.23071 26.9697 6.58335 25.6065 5.33247 23.9038C4.08159 22.2011 3.22719 20.1588 2.88799 18.075C2.54879 15.9908 2.72479 13.8648 3.37471 11.8814C3.86591 10.3819 4.62815 8.96429 5.60479 7.73581H4.12031V5.28205H9.93695V10.7137H7.48319V9.22957C6.68319 10.2356 6.05855 11.3969 5.65631 12.6257C5.12415 14.2513 4.98079 15.9953 5.25631 17.6971C5.59871 19.8139 6.58879 21.8651 8.06655 23.4459C9.83423 25.3364 12.2995 26.5544 14.8659 26.8209C17.432 27.0875 20.0992 26.403 22.2173 24.9288C24.3353 23.4545 25.905 21.1905 26.5421 18.69C27.1792 16.1896 26.8838 13.4526 25.735 11.1422C24.5862 8.83181 22.5837 6.94861 20.1891 5.95917C17.7945 4.96941 15.0077 4.87405 12.6038 5.66381L11.8547 3.38381Z" fill="url(#paint0_linear_787_7900)"/>
<path fill-rule="evenodd" clip-rule="evenodd" d="M15.3933 11.0151H16.5417V21.0486H15.3933V11.0151Z" fill="black"/>
<path fill-rule="evenodd" clip-rule="evenodd" d="M14.7416 15.7348V14.5357C13.8205 14.0826 13.1863 13.1347 13.1863 12.0387C13.1863 10.5032 14.4316 9.25792 15.9675 9.25792C17.6921 9.25792 18.9374 10.5032 18.9374 12.0387C18.9374 12.4258 18.8579 12.7945 18.667 13.2325L18.1766 11.6381L17.1935 11.9454L18.0652 15.2635L21.4496 14.0184L21.0383 13.048L19.7761 13.48C20.0045 12.9847 20.0494 12.6205 20.0494 12.0387C20.0494 9.88856 18.3063 8.14551 15.9675 8.14551C13.8174 8.14551 12.0743 9.88856 12.0743 12.0387C12.0743 13.7604 13.1923 15.2211 14.7416 15.7348Z" fill="black"/>
<path fill-rule="evenodd" clip-rule="evenodd" d="M17.1935 16.3286V17.5277C18.1146 17.981 18.7488 18.9287 18.7488 20.0247C18.7488 21.5602 17.5035 22.8055 15.9675 22.8055C14.2429 22.8055 12.9976 21.5602 12.9976 20.0247C12.9976 19.6376 13.0772 19.269 13.2681 18.831L13.7585 20.4254L14.7416 20.118L13.8698 16.7999L10.4855 18.0452L10.8968 19.0154L12.159 18.5834C11.9306 19.0787 11.8857 19.443 11.8857 20.0247C11.8857 22.1749 13.6287 23.9179 15.9675 23.9179C18.1177 23.9179 19.8607 22.1749 19.8607 20.0247C19.8607 18.303 18.7428 16.8424 17.1935 16.3286Z" fill="black"/>
<path fill-rule="evenodd" clip-rule="evenodd" d="M25 21C25 20.4765 24.8958 19.953 24.6955 19.4693C24.4952 18.9856 24.1986 18.5418 23.8284 18.1716C23.4582 17.8014 23.0144 17.5048 22.5307 17.3045C22.047 17.1042 21.5235 17 21 17C20.4765 17 19.953 17.1042 19.4693 17.3045C18.9856 17.5048 18.5418 17.8014 18.1716 18.1716C17.8014 18.5418 17.5048 18.9856 17.3045 19.4693C17.1042 19.953 17 20.4765 17 21C17 21.5235 17.1042 22.047 17.3045 22.5307C17.5048 23.0144 17.8014 23.4582 18.1716 23.8284C18.5418 24.1986 18.9856 24.4952 19.4693 24.6955C19.953 24.8958 20.4765 25 21 25C21.5235 25 22.047 24.8958 22.5307 24.6955C23.0144 24.4952 23.4582 24.1986 23.8284 23.8284C24.1986 23.4582 24.4952 23.0144 24.6955 22.5307C24.8958 22.047 25 21.5235 25 21Z" fill="black" stroke="white" stroke-width="0.54"/>
<path fill-rule="evenodd" clip-rule="evenodd" d="M21.0469 18.1665L19.3333 20.982L21.0469 21.9851L22.7608 20.982L21.0469 18.1665Z" fill="white"/>
<path fill-rule="evenodd" clip-rule="evenodd" d="M19.3333 21.3042L21.0469 23.6953L22.7618 21.3042L21.0469 22.3067L19.3333 21.3042Z" fill="white"/>
<defs>
<linearGradient id="paint0_linear_787_7900" x1="2.04341" y1="13.2972" x2="15.2222" y2="29.5766" gradientUnits="userSpaceOnUse">
<stop stop-color="#004CFF"/>
<stop offset="0.252131" stop-color="#00E0FB"/>
<stop offset="0.505709" stop-color="#87FF70"/>
<stop offset="0.755054" stop-color="#F8F500"/>
<stop offset="1" stop-color="#FF1A00"/>
</linearGradient>
</defs>
</svg>
