<svg width="401" height="401" viewBox="0 0 401 401" fill="none" xmlns="http://www.w3.org/2000/svg">
<path d="M394.424 249.343C367.708 356.486 259.178 421.692 152.01 394.973C44.8865 368.261 -20.3267 259.737 6.40117 152.601C33.104 45.4455 141.634 -19.7664 248.771 6.94585C355.932 33.6581 421.139 142.194 394.424 249.343Z" fill="url(#paint0_linear_13089_23)"/>
<path d="M288.573 172.439C292.554 145.824 272.29 131.516 244.58 121.971L253.569 85.9173L231.623 80.4479L222.872 115.552C217.103 114.114 211.177 112.758 205.289 111.414L214.102 76.0787L192.169 70.6094L183.174 106.651C178.398 105.563 173.71 104.488 169.16 103.357L169.185 103.244L138.919 95.6871L133.081 119.127C133.081 119.127 149.364 122.859 149.02 123.09C157.909 125.309 159.515 131.191 159.246 135.854L149.008 176.927C149.62 177.083 150.414 177.308 151.289 177.658C150.558 177.477 149.777 177.277 148.97 177.083L134.619 234.621C133.531 237.321 130.775 241.371 124.561 239.834C124.78 240.152 108.61 235.852 108.61 235.852L97.7148 260.973L126.274 268.093C131.587 269.424 136.794 270.818 141.919 272.131L132.837 308.597L154.758 314.067L163.753 277.988C169.741 279.613 175.554 281.113 181.242 282.526L172.279 318.436L194.225 323.905L203.307 287.507C240.73 294.589 268.871 291.733 280.716 257.886C290.26 230.633 280.241 214.912 260.551 204.661C274.89 201.355 285.691 191.922 288.573 172.439ZM238.43 242.753C231.648 270.006 185.762 255.273 170.885 251.579L182.936 203.267C197.813 206.98 245.518 214.331 238.43 242.753ZM245.218 172.045C239.03 196.835 200.838 184.24 188.449 181.152L199.376 137.335C211.764 140.423 251.662 146.186 245.218 172.045Z" fill="white"/>
<defs>
<linearGradient id="paint0_linear_13089_23" x1="40.2213" y1="79.7155" x2="365.17" y2="330.506" gradientUnits="userSpaceOnUse">
<stop stop-color="#B751FF"/>
<stop offset="1" stop-color="#9803FF"/>
</linearGradient>
</defs>
</svg>
