<svg fill="none" viewBox="0 0 600 600" xmlns="http://www.w3.org/2000/svg">
    <radialGradient id="a" cx="0" cy="0" gradientTransform="rotate(54.2 -42.3 263.4) scale(497.082)" gradientUnits="userSpaceOnUse" r="1">
        <stop offset="0" stop-color="#ddf0ff"/>
        <stop offset="1" stop-color="#007bf6"/>
    </radialGradient>
    <path d="M300 600a300 300 0 100-600 300 300 0 000 600z" fill="#0454fc"/>
    <path d="M300 600a300 300 0 100-600 300 300 0 000 600z" fill="url(#a)" fill-opacity=".3"/>
    <g transform="matrix(15,0,0,15,60,60)">
        <path d="M9.3268 6.28268L8.06787 7.56538L11.1398 10.6947L14.2117 13.8241V16.737V19.65H16.0018H17.7919V16.737V13.8241L20.8563 10.7023L23.9208 7.58056L22.654 6.29121L21.3873 5.00185L18.7111 7.72075C17.2392 9.21616 16.0203 10.4396 16.0025 10.4396C15.9846 10.4396 14.764 9.21573 13.2901 7.71982C11.8161 6.22392 10.6046 5 10.5979 5C10.5912 5 10.0192 5.57722 9.3268 6.28268ZM7.90755 13.8008C7.5069 14.6625 7.27486 15.4051 7.12543 16.3036C6.6982 18.8726 7.37349 21.5183 8.98149 23.5752C9.24682 23.9146 10.0275 24.7095 10.3584 24.9773C11.8479 26.1823 13.5436 26.85 15.4457 26.9802C16.5835 27.0581 17.7212 26.9061 18.8387 26.527C22.0686 25.4312 24.4006 22.6027 24.905 19.1692C25.099 17.848 24.9943 16.4347 24.6057 15.1313C24.4512 14.613 24.1382 13.8366 23.9746 13.5658L23.912 13.4623L22.55 14.8485C21.4514 15.9666 21.1913 16.2467 21.2053 16.2965C21.3176 16.6973 21.3772 17.114 21.3932 17.6101C21.4242 18.5714 21.2749 19.3484 20.9033 20.1599C20.181 21.7375 18.7717 22.8635 17.0486 23.2396C16.7494 23.3049 16.6394 23.3123 15.9866 23.3114C15.346 23.3104 15.2202 23.3019 14.9399 23.2402C13.2315 22.8641 11.8879 21.7996 11.1299 20.2217C10.7873 19.5086 10.6322 18.8486 10.6088 18.0043C10.5919 17.3937 10.625 17.0245 10.7396 16.5439L10.8134 16.2348L9.45584 14.8517C8.70918 14.0909 8.09011 13.4685 8.08016 13.4685C8.07018 13.4685 7.9925 13.618 7.90755 13.8008Z" fill="#ddf0ff"  />
    </g>
    <g transform="matrix(0.75,0,0,0.75,40,40)">
        <path fill="#492fb9" d="m623 462.76q10.84 13.27 26.98 31.52 16.12 18.24 26.92 39.85c43.77 87.68-28.71 185.94-123.16 181.77-41.43-1.83-76.36-21.17-101-54.22q-7.38-9.9-12.45-21.34-1.82-4.1-3.36-7.91-11.74-31.78-6.64-64.39c4.69-29.93 22.11-56.14 41.95-78.37 15.43-17.28 29.37-33.39 42.01-52.07 7.45-11.02 13.67-24.11 20.24-36.33q1.92-3.55 3.41-7.3 13.07-32.74 20.44-66.71a0.66 0.66 0 0 1 1.29 0c5.14 23.1 11.8 45.91 21.62 67.38 3.25 7.11 5.86 14.79 9.45 21.26q13.73 24.74 32.3 46.86z" />
        <g transform="matrix(1.95918367347,0,0,1.95918367347,495,525)">
            <path d="M13.3734 34.4709L14.3282 41.1736L9.55243 42.131L5.73146 41.1736L0 31.5987L1.91049 14.3628L8.59676 5.7453L17.1935 4.78789L25.7903 0L37.2541 5.7453L34.3879 8.61751C42.6664 9.89405 48.0796 10.8523 50.6266 11.4906C54.4476 12.448 61.1347 17.2359 62.0895 18.1933C63.0452 19.1507 62.5894 23.552 62.0895 26.8108C61.7557 28.9834 61.1191 30.579 60.179 31.5987L64 53.6216H55.4032L57.3137 51.7068L49.6718 35.4283L28.6564 38.3014L21.0162 53.6216H12.4195L15.2848 48.8337L21.0162 28.7256L17.1952 24.896L8.59676 26.8108L7.64108 34.4709L10.5064 37.344L13.3725 34.4709H13.3734ZM26.8108 45.7799L29.6649 39.8988L33.4703 38.9189L36.3243 53.6216H26.8108L28.7135 52.6417L26.8108 45.7799ZM45.1459 39.1222L48 37.1892L52.7568 45.4054L51.8054 53.6216H43.2432L45.1459 50.7217V39.1222V39.1222Z" fill="#ffffff" />
        </g>
    </g>
</svg>