<svg width="691" height="691" viewBox="0 0 691 691" fill="none" xmlns="http://www.w3.org/2000/svg" xmlns:xlink="http://www.w3.org/1999/xlink">
<g filter="url(#filter0_ii_518_1415)">
<g clip-path="url(#clip0_518_1415)">
<rect width="691" height="691" rx="345.5" fill="#F1F6FA"/>
<g filter="url(#filter1_ii_518_1415)">
<path fill-rule="evenodd" clip-rule="evenodd" d="M179.595 381.413L328.499 120.32C334.084 110.526 349.766 110.569 355.284 120.393L400.252 201.937C403.042 206.996 400.962 213.336 395.897 216.115C390.645 218.997 385.533 222.162 380.585 225.602C358.211 241.161 340.031 261.777 327.492 285.634C326.782 286.985 325.888 287.873 325.217 288.325C324.904 288.535 324.694 288.616 324.61 288.643C324.57 288.656 324.528 288.659 324.486 288.659H318.174C288.872 288.659 266.291 314.491 270.208 343.53L270.492 345.634C271.305 351.658 273.261 357.279 276.124 362.288C277.88 365.361 278.335 369.043 277.424 372.463C276.009 377.77 275.593 383.454 276.379 389.284L277.204 395.4C278.06 401.748 264.431 421.076 258.252 419.385L188.4 400.265C179.585 397.75 175.395 388.778 179.595 381.413ZM325.18 437.341C324.981 437.341 324.939 437.638 325.13 437.69L325.986 437.925C326.082 437.951 326.165 437.851 326.12 437.761C325.98 437.485 325.68 437.341 325.37 437.341H325.18ZM124.52 485.617L151.873 434.888C155.165 428.783 163.039 425.833 170.221 428.013L261.399 455.683C275.798 460.053 274.624 478.58 259.765 481.471L141.234 504.529C129.017 506.906 119.095 495.679 124.52 485.617Z" fill="url(#paint0_linear_518_1415)"/>
</g>
<g filter="url(#filter2_ii_518_1415)">
<path d="M478.117 506C448.729 505.965 420.068 496.963 396.042 480.221C372.016 463.479 353.794 439.813 343.861 412.449H325.615C314.825 412.449 305.699 404.468 304.26 393.775C302.521 380.849 312.573 369.354 325.615 369.354H335.545C335.545 366.531 335.545 363.653 335.545 360.628H318.632C307.847 360.628 298.725 352.651 297.286 341.963C295.547 329.042 305.595 317.551 318.632 317.551H343.898C353.824 290.183 372.044 266.512 396.072 249.769C420.1 233.026 448.765 224.027 478.154 224C509.667 224 537.17 233.224 564.749 253.056L569 256.1L548.004 301.87L541.515 296.668C519.959 279.4 501.593 272.334 478.117 272.334C461.956 272.51 446.106 276.747 432.054 284.647C418.003 292.547 406.211 303.85 397.787 317.496H530.961L540.769 317.717L531.297 338.416L530.812 339.689L517.051 369.483L516.584 370.59L497.453 412.394H397.806L398.365 413.316C399.409 414.995 400.528 416.655 401.684 418.297C402.84 419.939 404.145 421.636 405.413 423.094C406.103 423.942 406.831 424.791 407.558 425.621C408.994 427.263 410.523 428.868 412.089 430.418C413.003 431.321 413.954 432.262 415.296 433.425L416.098 434.144C417.385 435.269 418.447 436.155 419.454 436.967C420.461 437.778 421.319 438.387 422.345 439.18L423.296 439.863C423.967 440.343 424.638 440.822 425.328 441.284L426.242 441.892L425.943 442.778L426.447 442.021L428.405 443.294L429.579 444.014L431.668 445.231L432.749 445.84C433.607 446.301 434.465 446.763 435.378 447.224L435.994 447.556C437.038 448.072 438.138 448.589 439.257 449.106L440.189 449.511L442.632 450.563L443.863 451.043C444.59 451.338 445.336 451.615 446.082 451.873L447.387 452.353L449.643 453.09L450.93 453.496L453.503 454.234L454.473 454.492C455.685 454.806 456.897 455.101 458.034 455.36L458.761 455.507L461.708 456.079L462.975 456.282L465.418 456.651L466.817 456.835L469.203 457.094L470.602 457.223L473.194 457.389H474.387C475.767 457.389 477.016 457.481 478.117 457.481C484.121 457.513 490.114 456.981 496.017 455.895C497.136 455.673 498.311 455.433 499.747 455.101L500.828 454.825L503.495 454.124L504.557 453.828C505.881 453.422 507.037 453.053 508.063 452.703C509.089 452.352 510.711 451.744 512.147 451.153L513.47 450.581L516.174 449.401L517.722 448.644C518.542 448.257 519.344 447.851 520.165 447.427L521.768 446.56C522.57 446.135 523.353 445.693 524.118 445.25L525.759 444.272C526.542 443.811 527.306 443.331 528.089 442.833L529.693 441.8L532.117 440.158L533.627 439.125L536.294 437.17L537.562 436.229C538.942 435.196 540.247 434.181 541.534 433.148L548.023 427.945L568.888 473.826L564.637 476.889C537.189 496.776 509.629 506 478.117 506ZM468.066 369.354L472.317 360.628H384.678C384.678 362.085 384.585 363.543 384.585 365C384.585 366.457 384.585 367.896 384.678 369.354H468.066Z" fill="url(#paint1_linear_518_1415)"/>
</g>
<g style="mix-blend-mode:plus-darker" opacity="0.1">
<g filter="url(#filter3_ii_518_1415)">
<path fill-rule="evenodd" clip-rule="evenodd" d="M179.595 381.413L328.499 120.32C334.084 110.526 349.766 110.569 355.284 120.393L400.252 201.937C403.042 206.996 400.962 213.336 395.897 216.115C390.645 218.997 385.533 222.162 380.585 225.602C358.211 241.161 340.031 261.777 327.492 285.634C326.782 286.985 325.888 287.873 325.217 288.325C324.904 288.535 324.694 288.616 324.61 288.643C324.57 288.656 324.528 288.659 324.486 288.659H318.174C288.872 288.659 266.291 314.491 270.208 343.53L270.492 345.634C271.305 351.658 273.261 357.279 276.124 362.288C277.88 365.361 278.335 369.043 277.424 372.463C276.009 377.77 275.593 383.454 276.379 389.284L277.204 395.4C278.06 401.748 264.431 421.076 258.252 419.385L188.4 400.265C179.585 397.75 175.395 388.778 179.595 381.413ZM325.18 437.341C324.981 437.341 324.939 437.638 325.13 437.69L325.986 437.925C326.082 437.951 326.165 437.851 326.12 437.761C325.98 437.485 325.68 437.341 325.37 437.341H325.18ZM124.52 485.617L151.873 434.888C155.165 428.783 163.039 425.833 170.221 428.013L261.399 455.683C275.798 460.053 274.624 478.58 259.765 481.471L141.234 504.529C129.017 506.906 119.095 495.679 124.52 485.617Z" fill="url(#paint2_linear_518_1415)"/>
</g>
<g filter="url(#filter4_ii_518_1415)">
<path d="M478.117 506C448.729 505.965 420.068 496.963 396.042 480.221C372.016 463.479 353.794 439.813 343.861 412.449H325.615C314.825 412.449 305.699 404.468 304.26 393.775C302.521 380.849 312.573 369.354 325.615 369.354H335.545C335.545 366.531 335.545 363.653 335.545 360.628H318.632C307.847 360.628 298.725 352.651 297.286 341.963C295.547 329.042 305.595 317.551 318.632 317.551H343.898C353.824 290.183 372.044 266.512 396.072 249.769C420.1 233.026 448.765 224.027 478.154 224C509.667 224 537.17 233.224 564.749 253.056L569 256.1L548.004 301.87L541.515 296.668C519.959 279.4 501.593 272.334 478.117 272.334C461.956 272.51 446.106 276.747 432.054 284.647C418.003 292.547 406.211 303.85 397.787 317.496H530.961L540.769 317.717L531.297 338.416L530.812 339.689L517.051 369.483L516.584 370.59L497.453 412.394H397.806L398.365 413.316C399.409 414.995 400.528 416.655 401.684 418.297C402.84 419.939 404.145 421.636 405.413 423.094C406.103 423.942 406.831 424.791 407.558 425.621C408.994 427.263 410.523 428.868 412.089 430.418C413.003 431.321 413.954 432.262 415.296 433.425L416.098 434.144C417.385 435.269 418.447 436.155 419.454 436.967C420.461 437.778 421.319 438.387 422.345 439.18L423.296 439.863C423.967 440.343 424.638 440.822 425.328 441.284L426.242 441.892L425.943 442.778L426.447 442.021L428.405 443.294L429.579 444.014L431.668 445.231L432.749 445.84C433.607 446.301 434.465 446.763 435.378 447.224L435.994 447.556C437.038 448.072 438.138 448.589 439.257 449.106L440.189 449.511L442.632 450.563L443.863 451.043C444.59 451.338 445.336 451.615 446.082 451.873L447.387 452.353L449.643 453.09L450.93 453.496L453.503 454.234L454.473 454.492C455.685 454.806 456.897 455.101 458.034 455.36L458.761 455.507L461.708 456.079L462.975 456.282L465.418 456.651L466.817 456.835L469.203 457.094L470.602 457.223L473.194 457.389H474.387C475.767 457.389 477.016 457.481 478.117 457.481C484.121 457.513 490.114 456.981 496.017 455.895C497.136 455.673 498.311 455.433 499.747 455.101L500.828 454.825L503.495 454.124L504.557 453.828C505.881 453.422 507.037 453.053 508.063 452.703C509.089 452.352 510.711 451.744 512.147 451.153L513.47 450.581L516.174 449.401L517.722 448.644C518.542 448.257 519.344 447.851 520.165 447.427L521.768 446.56C522.57 446.135 523.353 445.693 524.118 445.25L525.759 444.272C526.542 443.811 527.306 443.331 528.089 442.833L529.693 441.8L532.117 440.158L533.627 439.125L536.294 437.17L537.562 436.229C538.942 435.196 540.247 434.181 541.534 433.148L548.023 427.945L568.888 473.826L564.637 476.889C537.189 496.776 509.629 506 478.117 506ZM468.066 369.354L472.317 360.628H384.678C384.678 362.085 384.585 363.543 384.585 365C384.585 366.457 384.585 367.896 384.678 369.354H468.066Z" fill="url(#paint3_linear_518_1415)"/>
</g>
</g>
<rect width="691" height="691" fill="url(#pattern0_518_1415)" style="mix-blend-mode:overlay"/>
</g>
</g>
<defs>
<filter id="filter0_ii_518_1415" x="0" y="0" width="701" height="709" filterUnits="userSpaceOnUse" color-interpolation-filters="sRGB">
<feFlood flood-opacity="0" result="BackgroundImageFix"/>
<feBlend mode="normal" in="SourceGraphic" in2="BackgroundImageFix" result="shape"/>
<feColorMatrix in="SourceAlpha" type="matrix" values="0 0 0 0 0 0 0 0 0 0 0 0 0 0 0 0 0 0 127 0" result="hardAlpha"/>
<feOffset dx="10" dy="18"/>
<feGaussianBlur stdDeviation="10"/>
<feComposite in2="hardAlpha" operator="arithmetic" k2="-1" k3="1"/>
<feColorMatrix type="matrix" values="0 0 0 0 0 0 0 0 0 0 0 0 0 0 0 0 0 0 0.08 0"/>
<feBlend mode="color-burn" in2="shape" result="effect1_innerShadow_518_1415"/>
<feColorMatrix in="SourceAlpha" type="matrix" values="0 0 0 0 0 0 0 0 0 0 0 0 0 0 0 0 0 0 127 0" result="hardAlpha"/>
<feOffset dx="40" dy="18"/>
<feComposite in2="hardAlpha" operator="arithmetic" k2="-1" k3="1"/>
<feColorMatrix type="matrix" values="0 0 0 0 0 0 0 0 0 0 0 0 0 0 0 0 0 0 0.1 0"/>
<feBlend mode="color-burn" in2="effect1_innerShadow_518_1415" result="effect2_innerShadow_518_1415"/>
</filter>
<filter id="filter1_ii_518_1415" x="123" y="113" width="288.5" height="409.852" filterUnits="userSpaceOnUse" color-interpolation-filters="sRGB">
<feFlood flood-opacity="0" result="BackgroundImageFix"/>
<feBlend mode="normal" in="SourceGraphic" in2="BackgroundImageFix" result="shape"/>
<feColorMatrix in="SourceAlpha" type="matrix" values="0 0 0 0 0 0 0 0 0 0 0 0 0 0 0 0 0 0 127 0" result="hardAlpha"/>
<feOffset dx="10" dy="18"/>
<feGaussianBlur stdDeviation="10"/>
<feComposite in2="hardAlpha" operator="arithmetic" k2="-1" k3="1"/>
<feColorMatrix type="matrix" values="0 0 0 0 0 0 0 0 0 0 0 0 0 0 0 0 0 0 0.08 0"/>
<feBlend mode="color-burn" in2="shape" result="effect1_innerShadow_518_1415"/>
<feColorMatrix in="SourceAlpha" type="matrix" values="0 0 0 0 0 0 0 0 0 0 0 0 0 0 0 0 0 0 127 0" result="hardAlpha"/>
<feOffset dx="40" dy="18"/>
<feComposite in2="hardAlpha" operator="arithmetic" k2="-1" k3="1"/>
<feColorMatrix type="matrix" values="0 0 0 0 0 0 0 0 0 0 0 0 0 0 0 0 0 0 0.1 0"/>
<feBlend mode="color-burn" in2="effect1_innerShadow_518_1415" result="effect2_innerShadow_518_1415"/>
</filter>
<filter id="filter2_ii_518_1415" x="297.09" y="224" width="281.91" height="300" filterUnits="userSpaceOnUse" color-interpolation-filters="sRGB">
<feFlood flood-opacity="0" result="BackgroundImageFix"/>
<feBlend mode="normal" in="SourceGraphic" in2="BackgroundImageFix" result="shape"/>
<feColorMatrix in="SourceAlpha" type="matrix" values="0 0 0 0 0 0 0 0 0 0 0 0 0 0 0 0 0 0 127 0" result="hardAlpha"/>
<feOffset dx="10" dy="18"/>
<feGaussianBlur stdDeviation="10"/>
<feComposite in2="hardAlpha" operator="arithmetic" k2="-1" k3="1"/>
<feColorMatrix type="matrix" values="0 0 0 0 0 0 0 0 0 0 0 0 0 0 0 0 0 0 0.08 0"/>
<feBlend mode="color-burn" in2="shape" result="effect1_innerShadow_518_1415"/>
<feColorMatrix in="SourceAlpha" type="matrix" values="0 0 0 0 0 0 0 0 0 0 0 0 0 0 0 0 0 0 127 0" result="hardAlpha"/>
<feOffset dx="10" dy="10"/>
<feComposite in2="hardAlpha" operator="arithmetic" k2="-1" k3="1"/>
<feColorMatrix type="matrix" values="0 0 0 0 0 0 0 0 0 0 0 0 0 0 0 0 0 0 0.1 0"/>
<feBlend mode="color-burn" in2="effect1_innerShadow_518_1415" result="effect2_innerShadow_518_1415"/>
</filter>
<filter id="filter3_ii_518_1415" x="123" y="113" width="288.5" height="409.852" filterUnits="userSpaceOnUse" color-interpolation-filters="sRGB">
<feFlood flood-opacity="0" result="BackgroundImageFix"/>
<feBlend mode="normal" in="SourceGraphic" in2="BackgroundImageFix" result="shape"/>
<feColorMatrix in="SourceAlpha" type="matrix" values="0 0 0 0 0 0 0 0 0 0 0 0 0 0 0 0 0 0 127 0" result="hardAlpha"/>
<feOffset dx="10" dy="18"/>
<feGaussianBlur stdDeviation="10"/>
<feComposite in2="hardAlpha" operator="arithmetic" k2="-1" k3="1"/>
<feColorMatrix type="matrix" values="0 0 0 0 0 0 0 0 0 0 0 0 0 0 0 0 0 0 0.08 0"/>
<feBlend mode="color-burn" in2="shape" result="effect1_innerShadow_518_1415"/>
<feColorMatrix in="SourceAlpha" type="matrix" values="0 0 0 0 0 0 0 0 0 0 0 0 0 0 0 0 0 0 127 0" result="hardAlpha"/>
<feOffset dx="40" dy="18"/>
<feComposite in2="hardAlpha" operator="arithmetic" k2="-1" k3="1"/>
<feColorMatrix type="matrix" values="0 0 0 0 0 0 0 0 0 0 0 0 0 0 0 0 0 0 0.1 0"/>
<feBlend mode="color-burn" in2="effect1_innerShadow_518_1415" result="effect2_innerShadow_518_1415"/>
</filter>
<filter id="filter4_ii_518_1415" x="297.09" y="224" width="281.91" height="300" filterUnits="userSpaceOnUse" color-interpolation-filters="sRGB">
<feFlood flood-opacity="0" result="BackgroundImageFix"/>
<feBlend mode="normal" in="SourceGraphic" in2="BackgroundImageFix" result="shape"/>
<feColorMatrix in="SourceAlpha" type="matrix" values="0 0 0 0 0 0 0 0 0 0 0 0 0 0 0 0 0 0 127 0" result="hardAlpha"/>
<feOffset dx="10" dy="18"/>
<feGaussianBlur stdDeviation="10"/>
<feComposite in2="hardAlpha" operator="arithmetic" k2="-1" k3="1"/>
<feColorMatrix type="matrix" values="0 0 0 0 0 0 0 0 0 0 0 0 0 0 0 0 0 0 0.08 0"/>
<feBlend mode="color-burn" in2="shape" result="effect1_innerShadow_518_1415"/>
<feColorMatrix in="SourceAlpha" type="matrix" values="0 0 0 0 0 0 0 0 0 0 0 0 0 0 0 0 0 0 127 0" result="hardAlpha"/>
<feOffset dx="10" dy="10"/>
<feComposite in2="hardAlpha" operator="arithmetic" k2="-1" k3="1"/>
<feColorMatrix type="matrix" values="0 0 0 0 0 0 0 0 0 0 0 0 0 0 0 0 0 0 0.1 0"/>
<feBlend mode="color-burn" in2="effect1_innerShadow_518_1415" result="effect2_innerShadow_518_1415"/>
</filter>
<pattern id="pattern0_518_1415" patternContentUnits="objectBoundingBox" width="1" height="1">
<use xlink:href="#image0_518_1415" transform="scale(0.000976562)"/>
</pattern>
<linearGradient id="paint0_linear_518_1415" x1="434.407" y1="139.176" x2="217.58" y2="495.203" gradientUnits="userSpaceOnUse">
<stop stop-color="#116A86"/>
<stop offset="1" stop-color="#024C63"/>
</linearGradient>
<linearGradient id="paint1_linear_518_1415" x1="507.588" y1="242.838" x2="349.202" y2="494.346" gradientUnits="userSpaceOnUse">
<stop stop-color="#1988AB"/>
<stop offset="1" stop-color="#024C63"/>
</linearGradient>
<linearGradient id="paint2_linear_518_1415" x1="434.407" y1="139.176" x2="217.58" y2="495.203" gradientUnits="userSpaceOnUse">
<stop stop-color="#116A86"/>
<stop offset="1" stop-color="#024C63"/>
</linearGradient>
<linearGradient id="paint3_linear_518_1415" x1="507.588" y1="242.838" x2="349.202" y2="494.346" gradientUnits="userSpaceOnUse">
<stop stop-color="#1988AB"/>
<stop offset="1" stop-color="#024C63"/>
</linearGradient>
<clipPath id="clip0_518_1415">
<rect width="691" height="691" rx="345.5" fill="white"/>
</clipPath>
</defs>
</svg>
