<?xml version="1.0" encoding="UTF-8"?>
<svg version="1.1" xmlns="http://www.w3.org/2000/svg" width="1024" height="1024">
<path d="M0 0 C337.92 0 675.84 0 1024 0 C1024 337.92 1024 675.84 1024 1024 C686.08 1024 348.16 1024 0 1024 C0 686.08 0 348.16 0 0 Z " fill="#2579AF" transform="translate(0,0)"/>
<path d="M0 0 C8.62953204 15.75827591 5.39878477 41.02495394 1 58 C0.66935547 59.38445312 0.66935547 59.38445312 0.33203125 60.796875 C-2.43449816 70.06545068 -8.54436641 78.10891522 -13.84838867 86.08984375 C-15.15456611 88.09869719 -15.15456611 88.09869719 -16 91 C-15.04222656 91.64324219 -14.08445312 92.28648437 -13.09765625 92.94921875 C-2.77074035 99.93700233 7.16738198 107.33612992 17 115 C18.19525212 115.92585921 19.39056172 116.85164421 20.5859375 117.77734375 C26.96689459 122.73759045 33.25513971 127.80711998 39.5 132.9375 C40.21986084 133.52877686 40.93972168 134.12005371 41.68139648 134.72924805 C45.04354708 137.50575087 48.37269191 140.30672662 51.62890625 143.20703125 C68.35879894 158.0864392 84.86703541 166.83247828 107.39453125 168.7421875 C110.14196366 169.01404738 112.86140941 169.38612298 115.59375 169.78125 C148.11455242 174.36183063 179.27483629 172.16124249 211.456604 166.44970703 C214.88252243 165.84395802 218.31116791 165.25445076 221.73977661 164.66415405 C229.3388973 163.35451779 236.93415063 162.0232286 244.52734375 160.6796875 C245.72896652 160.46727921 245.72896652 160.46727921 246.9548645 160.25057983 C250.77331783 159.57472368 254.59085354 158.8943188 258.40673828 158.20410156 C292.22849207 152.10547771 318.17921129 151.78706099 347.48046875 171.16015625 C351.97770975 174.44418805 356.03268783 178.09892009 360 182 C360.69996094 182.68707031 361.39992188 183.37414062 362.12109375 184.08203125 C381.94543181 204.9111116 385.02958517 233.9659504 387.70629883 261.23876953 C389.48459173 279.09825286 393.17949741 295.25893078 400.23046875 311.76953125 C408.34805161 330.95048649 411.79532178 350.17435187 411 371 C397.1152511 366.44762331 387.01007253 350.20286586 380.66333008 337.82104492 C373.12815022 322.33787144 370.96890117 306.3469133 370.71875 289.27734375 C370.70034058 288.29182022 370.68193115 287.30629669 370.66296387 286.29090881 C370.58518463 282.12168977 370.51680781 277.95233022 370.44775391 273.78295898 C370.39562372 270.71851679 370.33854718 267.65419301 370.28125 264.58984375 C370.26088684 263.19728615 370.26088684 263.19728615 370.2401123 261.77659607 C370.13367639 256.1229575 369.70530092 250.61135411 369 245 C367.58424051 247.75049167 366.607738 250.18245257 365.95703125 253.2109375 C365.77374268 254.03303711 365.5904541 254.85513672 365.40161133 255.70214844 C365.11000122 257.02520996 365.11000122 257.02520996 364.8125 258.375 C362.79441546 267.23063784 360.28563531 275.83647444 357.41137695 284.45068359 C352.1534125 300.31258261 349.49961703 318.39831317 357 334 C357.48597656 335.01707031 357.97195313 336.03414062 358.47265625 337.08203125 C361.97733906 343.93397613 366.0573047 350.31246526 370.44775391 356.62426758 C376.56169912 365.49425892 379.35932841 371.8652912 377.53173828 382.80224609 C376.92547059 385.77742081 376.2528783 388.73077148 375.5625 391.6875 C373.55174935 400.88408623 372.09190431 409.5665331 372 419 C371.98630371 419.96728027 371.97260742 420.93456055 371.95849609 421.93115234 C371.81904439 433.17633577 371.81941049 444.34153219 372.76171875 455.55078125 C373.07435529 460.07632333 373.23065552 464.5898782 373.3125 469.125 C373.34214844 469.94411865 373.37179687 470.7632373 373.40234375 471.60717773 C373.45988611 477.34762762 373.45988611 477.34762762 371.2734375 480.44921875 C368.94808006 482.03541618 367.01146637 482.91572945 364.3125 483.6875 C361.39364603 484.38796676 361.39364603 484.38796676 359 486 C358.94964579 487.35844456 358.96425399 488.71944556 359.0078125 490.078125 C359.02457031 490.90957031 359.04132813 491.74101563 359.05859375 492.59765625 C359.102479 494.35048486 359.15441836 496.10313236 359.21484375 497.85546875 C359.29692463 502.69824043 359.31575004 506.1444767 356 510 C352.358067 511.21397767 348.98518246 511.18126468 345.19140625 511.203125 C344.42827621 511.20882507 343.66514618 511.21452515 342.87889099 511.22039795 C341.26587303 511.22983641 339.65283589 511.23637735 338.03979492 511.24023438 C335.57501618 511.24995066 333.11106785 511.28098799 330.64648438 511.3125 C329.07812994 511.31902943 327.50976956 511.32428014 325.94140625 511.328125 C324.83811729 511.3466452 324.83811729 511.3466452 323.71253967 511.36553955 C319.52115159 511.34732901 317.03778083 510.98895143 314 508 C314.43569021 499.50404093 320.15452908 493.67873677 326 488.0625 C338.58766843 475.81503883 342.87379815 459.75973544 343.30078125 442.57421875 C343.31520398 439.94534916 343.31896557 437.3164012 343.3125 434.6875 C343.32861328 433.38876953 343.34472656 432.09003906 343.36132812 430.75195312 C343.37328959 406.69745602 335.37260102 387.8839657 321.25488281 368.81494141 C307.10436455 349.65458249 295.14483781 328.95021422 282.82397461 308.59301758 C279.25744075 302.70199412 275.66986785 296.82734876 272 291 C268.18350069 292.32340957 265.68993643 293.94787196 262.6875 296.625 C256.746029 301.47589262 250.27518235 304.68531268 243.37207031 307.89648438 C240.81109238 309.0878821 238.26164356 310.30240573 235.7109375 311.515625 C219.55240347 319.11570398 203.66696004 325.10346258 186 328 C184.90558594 328.20496094 183.81117188 328.40992188 182.68359375 328.62109375 C159.53522164 332.43965343 136.13295854 329.82068474 113.3125 325.3125 C104.1724373 323.32216038 104.1724373 323.32216038 95 324 C79.91358237 339.41557584 78.64826837 371.57365126 75.06991577 391.98764038 C72.32747495 407.56473192 69.06381378 423.04724165 65.61108398 438.48095703 C64.07216626 445.41523577 62.9759387 452.03705444 62.859375 459.16015625 C62.84003906 460.28357422 62.82070313 461.40699219 62.80078125 462.56445312 C62.76687292 464.90021564 62.74869365 467.23625844 62.74609375 469.57226562 C62.53796032 479.10806325 62.53796032 479.10806325 59.828125 482.62109375 C57.00350116 484.99705497 54.39820945 486.57749372 51 488 C50.98018066 488.59014893 50.96036133 489.18029785 50.93994141 489.78833008 C50.84465341 492.46350096 50.73499061 495.13789498 50.625 497.8125 C50.5940625 498.74126953 50.563125 499.67003906 50.53125 500.62695312 C50.49257813 501.51962891 50.45390625 502.41230469 50.4140625 503.33203125 C50.3826416 504.15421143 50.3512207 504.9763916 50.31884766 505.82348633 C50 508 50 508 48 511 C42.94213466 512.68595511 37.63663751 512.18592636 32.34082031 512.18530273 C30.27127153 512.18747765 28.20226621 512.20561224 26.1328125 512.22460938 C24.81539062 512.22654297 23.49796875 512.22847656 22.140625 512.23046875 C20.93954102 512.23457764 19.73845703 512.23868652 18.50097656 512.24291992 C9.6272012 511.6272012 9.6272012 511.6272012 7 509 C6.85003684 500.90198946 10.89018048 495.99885906 16 490 C17.48059806 488.52197243 18.98035882 487.06285493 20.5 485.625 C36.6232972 469.9750984 38.86737904 449.09188625 39.19091797 427.78515625 C39.28948766 419.73502632 39.28262922 411.68460234 39.26074219 403.6340332 C39.24943154 399.43586447 39.25606415 395.23795172 39.26762581 391.03979206 C41.49804254 344.91832959 41.49804254 344.91832959 24.05078125 304.671875 C15.51626732 294.71361644 10.54052925 283.39144772 9.0625 270.4375 C7.00808 252.77442356 1.0536471 238.75178969 -7 223 C-7.46873535 222.07493652 -7.9374707 221.14987305 -8.42041016 220.19677734 C-9.74836107 217.58362173 -11.08851089 214.97735044 -12.4375 212.375 C-12.83791504 211.59987061 -13.23833008 210.82474121 -13.65087891 210.02612305 C-15.77704819 206.00379816 -17.99969492 202.45821041 -21 199 C-26.22731182 199.44982802 -28.85799521 201.06749216 -32.875 204.375 C-34.01948212 205.29108511 -35.16674227 206.20370774 -36.31640625 207.11328125 C-36.91598145 207.58846191 -37.51555664 208.06364258 -38.13330078 208.55322266 C-47.156492 215.54660889 -56.69192115 221.7309783 -66.8605957 226.92016602 C-70.90767612 229.06042405 -73.23364936 230.736395 -75 235 C-75.52090472 237.64035302 -75.94722129 240.21606767 -76.3125 242.875 C-77.21785406 248.33175982 -78.07294732 252.81278969 -82.1875 256.7421875 C-91.09455541 262.92337681 -100.39950125 263.78855995 -111 263 C-118.64652365 261.3912257 -124.96674585 258.03762232 -130 252 C-135.50682628 243.08745573 -137.58050433 234.31016667 -135.25 223.94921875 C-134.85499674 222.52247037 -134.43665897 221.10205557 -134 219.6875 C-133.63152954 218.46957764 -133.63152954 218.46957764 -133.25561523 217.22705078 C-129.65859048 206.0894787 -124.74633404 195.41052381 -120.00195312 184.7253418 C-113.45237407 169.97043204 -107.21332976 155.35040203 -103.375 139.625 C-99.12144485 122.33703576 -92.93289744 109.24302475 -79.8828125 96.875 C-77.81985564 94.94445066 -77.81985564 94.94445066 -76 92 C-76.28929935 88.37652569 -77.97437237 86.7830048 -80.5 84.3125 C-95.97234894 67.34282697 -101.05795554 44.22715712 -102 22 C-102.03319336 21.22301758 -102.06638672 20.44603516 -102.10058594 19.64550781 C-102.54035624 7.41337819 -102.54035624 7.41337819 -100 2 C-97.9375 1.5625 -97.9375 1.5625 -95 2 C-87.75194629 7.02212859 -82.91903521 15.82056855 -78 23 C-77.57783203 23.6094043 -77.15566406 24.21880859 -76.72070312 24.84667969 C-64.91086203 41.92454697 -55.87108725 58.70002708 -51 79 C-49.02 79 -47.04 79 -45 79 C-44.82984375 77.98421875 -44.6596875 76.9684375 -44.484375 75.921875 C-39.97777641 49.90492248 -26.76018419 21.00382294 -8 2 C-4.77208445 -0.1519437 -3.71599191 -0.20086443 0 0 Z " fill="#FCF9EB" transform="translate(359,243)"/>
<path d="M0 0 C2.94900873 2.74526048 4.96306197 5.35929888 6.8828125 8.89453125 C7.40528564 9.84303955 7.92775879 10.79154785 8.46606445 11.76879883 C9.01351318 12.77322021 9.56096191 13.7776416 10.125 14.8125 C18.20281105 29.35528772 26.96868112 42.71975679 37.87109375 55.32421875 C38.36810791 55.90220215 38.86512207 56.48018555 39.37719727 57.07568359 C40.3515089 58.20547217 41.33216409 59.32983149 42.32006836 60.44775391 C46.92319007 65.76915767 48.81622502 70.52456767 48.703125 77.52734375 C47.22491106 84.82807817 42.97723861 91.19605512 39.33398438 97.61621094 C29.61532002 114.98316533 20.7967903 133.66516126 17.4375 153.375 C16.08760006 161.22563506 14.67741915 168.84707053 7.921875 173.87890625 C4.52283355 175.86168043 0.92421478 177.38227539 -2.70703125 178.88671875 C-5.14526569 179.78279797 -5.14526569 179.78279797 -6 182 C-6.19877987 185.3829389 -6.34582361 188.75898237 -6.4296875 192.14648438 C-6.66355622 197.46212548 -6.66355622 197.46212548 -8.20703125 199.9296875 C-15.43461361 204.244192 -26.48014588 203.20021077 -34.625 203.25 C-35.59735596 203.25926514 -36.56971191 203.26853027 -37.5715332 203.27807617 C-38.48894287 203.27396729 -39.40635254 203.2698584 -40.3515625 203.265625 C-41.17479004 203.26336914 -41.99801758 203.26111328 -42.84619141 203.25878906 C-45 203 -45 203 -48 201 C-47.70081953 187.53687902 -34.89117229 176.92087554 -26 168 C-25.41089844 167.47599609 -24.82179688 166.95199219 -24.21484375 166.41210938 C-18.74145767 161.43794422 -15.97839868 155.70139704 -13 149 C-12.53722656 147.96391602 -12.07445312 146.92783203 -11.59765625 145.86035156 C-5.08255037 130.90606108 0.38093972 115.91409343 4 100 C4.26425781 98.845 4.52851562 97.69 4.80078125 96.5 C9.85929262 70.62244526 -0.83319559 50.75572406 -13.19335938 28.9375 C-21 15.09479704 -21 15.09479704 -21 11 C-19.35451172 10.18595703 -19.35451172 10.18595703 -17.67578125 9.35546875 C-16.22130061 8.6329203 -14.7668765 7.91025804 -13.3125 7.1875 C-12.59126953 6.83107422 -11.87003906 6.47464844 -11.12695312 6.10742188 C-7.31859523 4.21193781 -3.61126143 2.25792874 0 0 Z " fill="#FBF8EB" transform="translate(627,550)"/>
<path d="M0 0 C4.75 0.75 4.75 0.75 7 3 C7.40191725 5.49650282 7.69725434 7.92831697 7.9296875 10.44140625 C8.93864979 20.01455929 10.4572048 29.45932786 12.125 38.9375 C12.35076218 40.22667831 12.35076218 40.22667831 12.58108521 41.54190063 C16.89171779 65.99374258 22.67978239 90.01867908 29.47436523 113.89331055 C29.79091064 115.00617432 30.10745605 116.11903809 30.43359375 117.265625 C30.71259521 118.23274414 30.99159668 119.19986328 31.27905273 120.19628906 C33.13893691 127.42924196 34.50440134 135.67484614 32 142.875 C30.00048931 144.99948011 28.34087098 145.97880222 25.8125 147.375 C23.68985948 148.54816777 23.68985948 148.54816777 22 150 C21.25576742 154.01885591 21.8838546 156.59349109 23 160.5 C24.06716384 164.23507343 24.3714419 167.13700422 24 171 C22.7177887 172.67985535 22.7177887 172.67985535 21 174 C18.08188703 174.2861263 15.38173552 174.39646919 12.46484375 174.36328125 C11.21315147 174.36402901 11.21315147 174.36402901 9.93617249 174.36479187 C8.17348853 174.3624526 6.41080116 174.3527327 4.64819336 174.33618164 C1.94419646 174.3125585 -0.75881657 174.31562533 -3.46289062 174.32226562 C-5.17448507 174.31668988 -6.88607535 174.30958065 -8.59765625 174.30078125 C-9.40912613 174.30169266 -10.22059601 174.30260406 -11.05665588 174.30354309 C-16.76896437 174.23103563 -16.76896437 174.23103563 -19 172 C-18.78072658 166.87631103 -16.85831125 163.8829501 -13.875 159.8125 C-13.05589506 158.66896784 -12.23820679 157.52441972 -11.421875 156.37890625 C-11.01388672 155.81187988 -10.60589844 155.24485352 -10.18554688 154.66064453 C-0.78100098 141.48730821 3.14431357 130.57079369 0.57519531 114.31152344 C-1.36432166 103.99922829 -4.15316921 93.99477086 -7.84765625 84.1796875 C-8.0958461 83.5192746 -8.34403595 82.85886169 -8.5997467 82.17843628 C-9.82375634 78.94823598 -11.08115131 75.73652541 -12.3918457 72.54052734 C-17.89513055 58.56691968 -16.23290468 47.68969128 -11.875 33.6875 C-11.46198406 32.31643487 -11.04988061 30.94509455 -10.63867188 29.57348633 C-4.27602598 8.55205197 -4.27602598 8.55205197 0 0 Z " fill="#FBF8EB" transform="translate(460,578)"/>
<path d="M0 0 C4.1982333 3.64635286 6.61948898 8.12669681 9.375 12.875 C13.95960297 20.64359532 18.66131984 28.32438822 23.5 35.9375 C24.08700684 36.8661084 24.67401367 37.7947168 25.27880859 38.75146484 C27.9973201 43.01578122 30.7133119 47.14136373 34 51 C33.505 51.99 33.505 51.99 33 53 C32.01 52.01 31.02 51.02 30 50 C30 50.66 30 51.32 30 52 C29.34 52 28.68 52 28 52 C28 53.32 28 54.64 28 56 C28.99 56 29.98 56 31 56 C32 59 32 59 31.0625 61.1875 C30.711875 61.785625 30.36125 62.38375 30 63 C29.4534375 62.14019531 28.906875 61.28039062 28.34375 60.39453125 C26.00740288 56.89103529 23.29870756 53.82429106 20.5 50.6875 C15.78811349 45.29722557 11.45458367 39.71425722 7.3125 33.875 C6.79558594 33.15272217 6.27867187 32.43044434 5.74609375 31.6862793 C5.26914062 31.003479 4.7921875 30.32067871 4.30078125 29.6171875 C3.87966064 29.01503418 3.45854004 28.41288086 3.0246582 27.79248047 C1.89022085 25.80795842 1.26810277 24.27448539 1 22 C3 19 3 19 5 17 C5.09846917 14.88249633 5.09846917 14.88249633 4.75 12.5625 C4.66234375 11.78003906 4.5746875 10.99757813 4.484375 10.19140625 C4.07779114 7.72446565 4.07779114 7.72446565 2 5 C-0.05003955 3.80767387 -0.05003955 3.80767387 -2 3 C-1.34 2.67 -0.68 2.34 0 2 C0 1.34 0 0.68 0 0 Z " fill="#1C6FAB" transform="translate(644,556)"/>
<path d="M0 0 C2.41640554 0.53489365 3.39356452 1.27196539 5.07421875 3.0703125 C7.01171875 6.4453125 7.01171875 6.4453125 7.07421875 9.5078125 C5.79568589 13.04257982 4.86269568 14.95070769 2.01171875 17.4453125 C-1.042713 18.41105195 -3.79656003 18.73280209 -6.98828125 18.4453125 C-10.42559936 16.38292163 -10.87414103 14.86382663 -11.92578125 11.0078125 C-11.99582279 7.01544463 -11.45293379 5.52612817 -8.98828125 2.4453125 C-5.81122798 0.32727698 -3.79609284 -0.0982353 0 0 Z " fill="#1C6FAE" transform="translate(293.98828125,377.5546875)"/>
<path d="M0 0 C4.23897632 7.73303777 3.19680591 17.75751197 3.31640625 26.34765625 C3.33718735 27.60009628 3.35796844 28.85253632 3.37937927 30.14292908 C3.43336946 33.44225383 3.48371174 36.74160671 3.53222656 40.04101562 C3.58282929 43.41997198 3.63831111 46.79884803 3.69335938 50.17773438 C3.80002762 56.78509191 3.90188012 63.39251029 4 70 C3.67 70 3.34 70 3 70 C1.69593631 61.40715176 0.91056062 52.93143883 0.97265625 44.23046875 C0.97735931 43.5587262 0.98206238 42.88698364 0.98690796 42.19488525 C1.01836046 38.8025733 1.07735331 35.41237579 1.16210938 32.02099609 C1.18208984 30.76754395 1.20207031 29.5140918 1.22265625 28.22265625 C1.25109619 27.09609619 1.27953613 25.96953613 1.30883789 24.80883789 C1.25573747 21.6301488 1.25573747 21.6301488 -2 19 C-3.98 25.93 -3.98 25.93 -6 33 C-7.04347893 28.82608429 -6.83330143 27.33320573 -5.8203125 23.28125 C-5.41619141 21.63576172 -5.41619141 21.63576172 -5.00390625 19.95703125 C-4.71386719 18.81621094 -4.42382812 17.67539062 -4.125 16.5 C-3.84269531 15.35917969 -3.56039062 14.21835937 -3.26953125 13.04296875 C-2.52159324 10.02640361 -1.76305241 7.01276973 -1 4 C-0.6661469 2.66679672 -0.3325871 1.33351967 0 0 Z " fill="#0C54A1" transform="translate(727,484)"/>
<path d="M0 0 C0.33 0 0.66 0 1 0 C1.14849962 4.76874164 1.25728023 9.53613415 1.32958984 14.30664062 C1.35973462 15.9286239 1.40065941 17.55044452 1.45263672 19.171875 C1.52556613 21.50561611 1.55947489 23.83720111 1.5859375 26.171875 C1.61690521 26.89493835 1.64787292 27.61800171 1.67977905 28.36297607 C1.68115234 30.42480469 1.68115234 30.42480469 1 34 C-1.92724609 36.32519531 -1.92724609 36.32519531 -5 38 C-6.75322937 40.53188648 -6.75322937 40.53188648 -8 43 C-8.66 43.66 -9.32 44.32 -10 45 C-10.33 45.99 -10.66 46.98 -11 48 C-11.66 47.67 -12.32 47.34 -13 47 C-13.56835493 43.84247262 -13.773043 41.13312793 -13 38 C-10.86863229 35.98488871 -8.73733402 34.68598133 -6.1640625 33.2890625 C-3.71659902 32.04178098 -3.71659902 32.04178098 -2 29 C-1.64785004 26.24031609 -1.64785004 26.24031609 -1.62109375 23.125 C-1.58693359 21.97515625 -1.55277344 20.8253125 -1.51757812 19.640625 C-1.49115234 18.43921875 -1.46472656 17.2378125 -1.4375 16 C-1.37761277 13.62489806 -1.31398569 11.24988661 -1.24609375 8.875 C-1.21020142 7.29332031 -1.21020142 7.29332031 -1.17358398 5.6796875 C-1 3 -1 3 0 0 Z " fill="#1264A8" transform="translate(422,693)"/>
<path d="M0 0 C2.625 0.25 2.625 0.25 4.4375 1.375 C6.15349028 4.08445834 5.958728 6.11295684 5.625 9.25 C4.965 9.91 4.305 10.57 3.625 11.25 C0.625 11.0625 0.625 11.0625 -2.375 10.25 C-4.375 7.25 -4.375 7.25 -4.0625 4.125 C-3.15551643 0.33215962 -3.15551643 0.33215962 0 0 Z " fill="#1B63A8" transform="translate(244.375,472.75)"/>
<path d="M0 0 C1.1212213 3.36366391 1.42295887 5.47534272 1 9 C-1.24592708 11.80740885 -2.89467213 13.61164156 -6.3125 14.8125 C-6.869375 14.874375 -7.42625 14.93625 -8 15 C-8 15.66 -8 16.32 -8 17 C-8.66 17 -9.32 17 -10 17 C-9.67 17.99 -9.34 18.98 -9 20 C-9.375 21.9375 -9.375 21.9375 -10 24 C-10.185625 24.7425 -10.37125 25.485 -10.5625 26.25 C-10.7790625 27.11625 -10.7790625 27.11625 -11 28 C-12.75932496 23.4917298 -13.94392617 19.80544231 -13 15 C-10.86393911 13.33217793 -8.6132127 12.04572799 -6.26953125 10.6875 C-2.58292016 7.94633651 -1.35807066 4.27364892 0 0 Z " fill="#0A56A2" transform="translate(494,713)"/>
<path d="M0 0 C3.80427705 3.41073115 6.22774561 7.27961581 8.8125 11.625 C9.23208984 12.305625 9.65167969 12.98625 10.08398438 13.6875 C11.12304523 15.41983869 12.069825 17.20684097 13 19 C12.67 19.66 12.34 20.32 12 21 C11.236875 20.67 10.47375 20.34 9.6875 20 C7.00930865 18.82563314 7.00930865 18.82563314 4 19 C4.226875 17.989375 4.45375 16.97875 4.6875 15.9375 C5.05421383 11.31690576 4.27582363 9.00231053 2 5 C-0.0351761 3.5181036 -0.0351761 3.5181036 -2 3 C-1.34 2.67 -0.68 2.34 0 2 C0 1.34 0 0.68 0 0 Z M2 19 C3.485 19.99 3.485 19.99 5 21 C4.34 21.66 3.68 22.32 3 23 C2.67 21.68 2.34 20.36 2 19 Z " fill="#1A6AAA" transform="translate(644,556)"/>
<path d="M0 0 C0.33 0.66 0.66 1.32 1 2 C1.66 2.33 2.32 2.66 3 3 C2.01 3.99 1.02 4.98 0 6 C10.23 6 20.46 6 31 6 C31 6.33 31 6.66 31 7 C24.53635285 7.95842929 18.21730135 8.18315549 11.6875 8.1875 C10.69943359 8.19974609 9.71136719 8.21199219 8.69335938 8.22460938 C7.74654297 8.22654297 6.79972656 8.22847656 5.82421875 8.23046875 C4.54164185 8.23663208 4.54164185 8.23663208 3.2331543 8.24291992 C1 8 1 8 -2 6 C-1.125 1.125 -1.125 1.125 0 0 Z " fill="#E4EFEF" transform="translate(581,745)"/>
<path d="M0 0 C0.66 0.33 1.32 0.66 2 1 C1.54625 1.556875 1.0925 2.11375 0.625 2.6875 C-2.790193 7.54758235 -3.28463915 11.88040512 -3.55859375 17.6953125 C-4.08168927 20.42651921 -5.001696 21.15974458 -7 23 C-6.93994146 20.08115472 -6.85291384 17.16738361 -6.75 14.25 C-6.73582031 13.425 -6.72164062 12.6 -6.70703125 11.75 C-6.45908428 5.6009152 -6.45908428 5.6009152 -4.078125 2.484375 C-2 1 -2 1 0 0 Z " fill="#1060A7" transform="translate(626,727)"/>
<path d="M0 0 C-4.71469675 4.98410799 -9.21485007 6.04478276 -15.87890625 7.32421875 C-18.98187524 7.89101136 -18.98187524 7.89101136 -21.65234375 9.14453125 C-24.33984424 10.12383675 -25.3346211 9.7959971 -28 9 C-23.9020339 7.29715151 -19.79574223 5.61538789 -15.6875 3.9375 C-13.93663086 3.20950195 -13.93663086 3.20950195 -12.15039062 2.46679688 C-11.03212891 2.01240234 -9.91386719 1.55800781 -8.76171875 1.08984375 C-7.73006592 0.66566162 -6.69841309 0.24147949 -5.63549805 -0.19555664 C-3 -1 -3 -1 0 0 Z " fill="#145AA4" transform="translate(590,558)"/>
<path d="M0 0 C1.65 0 3.3 0 5 0 C5 0.99 5 1.98 5 3 C3.68 3 2.36 3 1 3 C0.67 11.25 0.34 19.5 0 28 C-0.33 28 -0.66 28 -1 28 C-2.44979376 19.1200132 -4.00948685 8.28838586 0 0 Z " fill="#ECF4F2" transform="translate(259,245)"/>
<path d="M0 0 C0.33 0 0.66 0 1 0 C1.33 4.29 1.66 8.58 2 13 C2.33 13 2.66 13 3 13 C3.18451025 29.70842825 3.18451025 29.70842825 2 38 C1.67 38 1.34 38 1 38 C0.20651375 33.12651177 -0.11813526 28.47059816 -0.09765625 23.53515625 C-0.0962413 22.85698349 -0.09482635 22.17881073 -0.09336853 21.48008728 C-0.08782745 19.34084422 -0.07528653 17.20171075 -0.0625 15.0625 C-0.05747736 13.60091298 -0.0529158 12.13932431 -0.04882812 10.67773438 C-0.03787745 7.11845474 -0.02065445 3.55923809 0 0 Z " fill="#3285B6" transform="translate(396,623)"/>
<path d="M0 0 C4.95340252 7.43010378 3.09604365 19.30271389 3 28 C-0.65316671 26.75023244 -1.78065836 26.32901247 -4 23 C-2.35 23.33 -0.7 23.66 1 24 C0.67 16.08 0.34 8.16 0 0 Z " fill="#F6F9F7" transform="translate(767,586)"/>
<path d="M0 0 C0.70125 -0.02578125 1.4025 -0.0515625 2.125 -0.078125 C2.74375 0.03015625 3.3625 0.1384375 4 0.25 C4.66 1.24 5.32 2.23 6 3.25 C5.01 3.25 4.02 3.25 3 3.25 C3 4.24 3 5.23 3 6.25 C2.4225 6.064375 1.845 5.87875 1.25 5.6875 C-1.23698179 5.20392021 -2.58585878 5.62699581 -5 6.25 C-5.99 5.92 -6.98 5.59 -8 5.25 C-6.05788937 0.94961217 -4.68173734 0.10327362 0 0 Z " fill="#135FA7" transform="translate(292,377.75)"/>
<path d="M0 0 C0.09765625 6.15234375 0.09765625 6.15234375 0 8 C-1 9 -1 9 -4.0625 9.0625 C-5.031875 9.041875 -6.00125 9.02125 -7 9 C-7.33 7.35 -7.66 5.7 -8 4 C-2.95652174 0 -2.95652174 0 0 0 Z " fill="#1564A7" transform="translate(315,314)"/>
<path d="M0 0 C0.33 0.66 0.66 1.32 1 2 C-0.0149911 4.69569695 -1.09135855 7.3043268 -2.25 9.9375 C-5.06537607 16.51925147 -7.4125346 23.0000335 -9 30 C-9.66 29.34 -10.32 28.68 -11 28 C-11 26.68 -11 25.36 -11 24 C-10.34 24 -9.68 24 -9 24 C-8.87882812 23.40832031 -8.75765625 22.81664062 -8.6328125 22.20703125 C-7.90248234 18.76324363 -7.2109835 15.51573745 -5.875 12.25 C-4.88213942 9.69692993 -4.8448191 7.71566581 -5 5 C-4.01 5 -3.02 5 -2 5 C-1.34 3.35 -0.68 1.7 0 0 Z " fill="#07449A" transform="translate(325,283)"/>
<path d="M0 0 C3.03666484 2.88145752 5.46630412 5.89292573 7.875 9.3125 C11.05482656 13.75472961 14.37197483 17.91847168 18 22 C15.04196519 20.6512925 12.79203633 19.10431451 10.375 16.9375 C8.5818742 15.33621517 7.15343684 14.07671842 5 13 C3.96484375 11.07421875 3.96484375 11.07421875 2.9375 8.6875 C2.59589844 7.90761719 2.25429688 7.12773438 1.90234375 6.32421875 C1.08711691 4.22439203 0.48741918 2.19589876 0 0 Z " fill="#0F52A1" transform="translate(743,587)"/>
<path d="M0 0 C0.66 0.33 1.32 0.66 2 1 C0.9171875 1.8353125 0.9171875 1.8353125 -0.1875 2.6875 C-3.04118626 4.88524311 -3.04118626 4.88524311 -5.125 7.5625 C-9.26060014 11.06876969 -13.77683554 11.87487 -19 13 C-16.42157528 10.07362177 -13.44200355 8.40488704 -10.0625 6.5 C-6.53149952 4.50478783 -3.18426751 2.51672227 0 0 Z " fill="#1155A2" transform="translate(310,458)"/>
<path d="M0 0 C0.66 0.33 1.32 0.66 2 1 C-0.31360621 7.24673676 -2.39475245 11.2631683 -8 15 C-10.375 15.8125 -10.375 15.8125 -12 16 C-12 15.34 -12 14.68 -12 14 C-11.01 13.67 -10.02 13.34 -9 13 C-8.34 12.01 -7.68 11.02 -7 10 C-6.01 9.67 -5.02 9.34 -4 9 C-2.76049958 6.90861544 -2.76049958 6.90861544 -1.8125 4.4375 C-1.46832031 3.61121094 -1.12414062 2.78492188 -0.76953125 1.93359375 C-0.51558594 1.29550781 -0.26164063 0.65742187 0 0 Z " fill="#F0F6F4" transform="translate(641,710)"/>
<path d="M0 0 C2.75820977 4.13731465 4.55751277 8.62276643 6.5625 13.1640625 C7.69453014 16.09542982 7.69453014 16.09542982 10 17 C10.625 20.0625 10.625 20.0625 11 23 C7.14175045 19.65390747 5.31279994 16.05940759 3.25 11.5 C2.93417969 10.83613281 2.61835937 10.17226563 2.29296875 9.48828125 C0.69662723 6.02608601 0 3.87683782 0 0 Z " fill="#12509D" transform="translate(713,568)"/>
<path d="M0 0 C2.4375 0.875 2.4375 0.875 3.75 2.9375 C4.0903125 3.8965625 4.0903125 3.8965625 4.4375 4.875 C2.4575 3.555 0.4775 2.235 -1.5625 0.875 C-2.2225 2.525 -2.8825 4.175 -3.5625 5.875 C-5.8725 6.205 -8.1825 6.535 -10.5625 6.875 C-3.69301471 -0.18014706 -3.69301471 -0.18014706 0 0 Z " fill="#0E53A0" transform="translate(336.5625,441.125)"/>
<path d="M0 0 C2.625 -0.1875 2.625 -0.1875 5 0 C3.43358249 4.30764815 1.31663844 8.06171464 -1 12 C-2.084894 8.74531799 -2.21314985 6.4103976 -2 3 C-1.34 2.01 -0.68 1.02 0 0 Z " fill="#1362AA" transform="translate(442,736)"/>
<path d="M0 0 C3.81684226 1.55500981 6.19195732 4.03595495 9 7 C8.67 7.66 8.34 8.32 8 9 C7.34 8.01 6.68 7.02 6 6 C2.91634129 5.7497843 2.91634129 5.7497843 0 6 C-1.125 2.25 -1.125 2.25 0 0 Z " fill="#116EAE" transform="translate(335,442)"/>
<path d="M0 0 C0.99 0.33 1.98 0.66 3 1 C3.05379226 3.95857409 3.09357093 6.91617721 3.125 9.875 C3.15013672 11.13763672 3.15013672 11.13763672 3.17578125 12.42578125 C3.18222656 13.23144531 3.18867188 14.03710938 3.1953125 14.8671875 C3.21102295 15.98262939 3.21102295 15.98262939 3.22705078 17.12060547 C3 19 3 19 1 21 C0.67 14.07 0.34 7.14 0 0 Z " fill="#1D7CB7" transform="translate(364,259)"/>
<path d="M0 0 C1.72945653 0.14235457 3.45855654 0.28904382 5.1875 0.4375 C6.63189453 0.55931641 6.63189453 0.55931641 8.10546875 0.68359375 C10.78649602 0.97666151 13.3662986 1.42703754 16 2 C16 2.33 16 2.66 16 3 C12.04 3 8.08 3 4 3 C3.67 3.66 3.34 4.32 3 5 C3 3.68 3 2.36 3 1 C2.01 0.67 1.02 0.34 0 0 Z " fill="#0E58A6" transform="translate(475,569)"/>
<path d="M0 0 C4.95 0 9.9 0 15 0 C8.95181775 3.02409113 3.62266675 3.11418391 -3 3 C-2.01 2.67 -1.02 2.34 0 2 C0 1.34 0 0.68 0 0 Z " fill="#0F53A2" transform="translate(542,411)"/>
<path d="M0 0 C1 3 1 3 -0.21484375 5.91796875 C-0.78332031 6.99691406 -1.35179687 8.07585937 -1.9375 9.1875 C-2.50339844 10.27417969 -3.06929687 11.36085938 -3.65234375 12.48046875 C-4.09707031 13.31191406 -4.54179687 14.14335937 -5 15 C-6.53445094 11.93109813 -5.54984289 9.29905734 -5 6 C-4.34 6 -3.68 6 -3 6 C-2.01 4.02 -1.02 2.04 0 0 Z " fill="#0F55A5" transform="translate(240,423)"/>
<path d="M0 0 C1.1054086 3.31622581 1.35457365 5.52517825 1 9 C-1 11.375 -1 11.375 -3 13 C-3.66 12.67 -4.32 12.34 -5 12 C-4.34 11.34 -3.68 10.68 -3 10 C-2.35987856 7.83552102 -2.35987856 7.83552102 -1.9375 5.4375 C-1.09722222 1.09722222 -1.09722222 1.09722222 0 0 Z " fill="#1367AB" transform="translate(494,713)"/>
<path d="M0 0 C0.66 0.33 1.32 0.66 2 1 C1.0625 9.03571429 1.0625 9.03571429 0 13 C-2.21538462 5.73846154 -2.21538462 5.73846154 -1.125 2 C-0.75375 1.34 -0.3825 0.68 0 0 Z " fill="#1267AA" transform="translate(483,728)"/>
<path d="M0 0 C1.31534494 3.65857532 0.65468309 6.08026481 -0.4375 9.75 C-0.86869141 11.22726562 -0.86869141 11.22726562 -1.30859375 12.734375 C-1.53675781 13.48203125 -1.76492188 14.2296875 -2 15 C-2.33 15 -2.66 15 -3 15 C-3.35050464 9.158256 -3.16727335 5.1468192 0 0 Z " fill="#FAFCF8" transform="translate(723,497)"/>
<path d="M0 0 C3.37083355 2.24722237 3.82061 3.3305212 5.25 7 C5.78367187 8.3303125 5.78367187 8.3303125 6.328125 9.6875 C7 12 7 12 6 14 C4.9923048 12.2335343 3.99408286 10.46166177 3 8.6875 C2.443125 7.70136719 1.88625 6.71523438 1.3125 5.69921875 C0 3 0 3 0 0 Z " fill="#F2F9F5" transform="translate(265,302)"/>
<path d="M0 0 C3.25094199 1.04494564 4.56873286 2.59135491 6.25 5.4375 C8 9 8 9 8 12 C6.66081194 10.37982158 5.3288031 8.75370657 4 7.125 C3.2575 6.22007812 2.515 5.31515625 1.75 4.3828125 C0 2 0 2 0 0 Z " fill="#F3F8F6" transform="translate(385,548)"/>
<path d="M0 0 C0.33 0.66 0.66 1.32 1 2 C-0.98 4.64 -2.96 7.28 -5 10 C-6.33332095 7.3333581 -5.67102033 5.83319697 -5 3 C-4.01 3 -3.02 3 -2 3 C-1.34 2.01 -0.68 1.02 0 0 Z " fill="#1258A4" transform="translate(453,726)"/>
<path d="M0 0 C-1.2065625 0.185625 -1.2065625 0.185625 -2.4375 0.375 C-3.283125 0.58125 -4.12875 0.7875 -5 1 C-5.33 1.66 -5.66 2.32 -6 3 C-7.98 3 -9.96 3 -12 3 C-12 2.34 -12 1.68 -12 1 C-3.96428571 -1.27678571 -3.96428571 -1.27678571 0 0 Z " fill="#1D7DB5" transform="translate(562,570)"/>
<path d="M0 0 C2.94721162 2.74395564 5.19168608 5.38337216 7 9 C6.67 9.66 6.34 10.32 6 11 C5.4225 10.05125 4.845 9.1025 4.25 8.125 C2.17183449 5.23865902 1.24531925 4.15904259 -2 3 C-1.34 2.67 -0.68 2.34 0 2 C0 1.34 0 0.68 0 0 Z " fill="#11519E" transform="translate(644,556)"/>
<path d="M0 0 C1.99390001 3.98780002 2.22686963 5.47147572 2.125 9.75 C2.10695313 10.73484375 2.08890625 11.7196875 2.0703125 12.734375 C2.04710937 13.48203125 2.02390625 14.2296875 2 15 C1.67 15 1.34 15 1 15 C0.67 13.02 0.34 11.04 0 9 C-0.33 9 -0.66 9 -1 9 C-0.67 6.03 -0.34 3.06 0 0 Z " fill="#144B97" transform="translate(727,484)"/>
<path d="M0 0 C1.32 0.33 2.64 0.66 4 1 C2.68 3.31 1.36 5.62 0 8 C-0.66 8 -1.32 8 -2 8 C-1.34 5.36 -0.68 2.72 0 0 Z " fill="#1D7DB5" transform="translate(330,267)"/>
<path d="M0 0 C0.66 0.33 1.32 0.66 2 1 C1.21625 1.2475 0.4325 1.495 -0.375 1.75 C-3.32317108 3.15389099 -3.9024777 4.00675737 -5 7 C-5.66 5.68 -6.32 4.36 -7 3 C-4.69631264 1.93347808 -2.35981813 0.93578995 0 0 Z " fill="#F3F6F4" transform="translate(613,558)"/>
<path d="M0 0 C0.99 0.33 1.98 0.66 3 1 C3 3.97 3 6.94 3 10 C2.01 9.34 1.02 8.68 0 8 C-0.40843923 5.28796348 -0.13336867 2.7562858 0 0 Z " fill="#3583B7" transform="translate(409,740)"/>
<path d="M0 0 C2 2 2 2 2 6 C3.4166747 7.7511573 3.4166747 7.7511573 5 9 C4.67 9.66 4.34 10.32 4 11 C0.46413986 7.82679218 -1.58578031 5.83256305 -2 1 C-1.34 0.67 -0.68 0.34 0 0 Z " fill="#185DA3" transform="translate(664,599)"/>
<path d="M0 0 C2 3 2 3 2 7 C2.66 7.33 3.32 7.66 4 8 C2.02 8.99 2.02 8.99 0 10 C-0.95024979 6.30458414 -0.95024979 3.69541586 0 0 Z " fill="#1268AB" transform="translate(283,481)"/>
<path d="M0 0 C0.99 0.33 1.98 0.66 3 1 C2.34 1 1.68 1 1 1 C1 1.66 1 2.32 1 3 C-1.3125 5.1875 -1.3125 5.1875 -4 7 C-4.99 6.67 -5.98 6.34 -7 6 C-5.90716423 4.96704564 -4.80029421 3.94892165 -3.6875 2.9375 C-3.07261719 2.36902344 -2.45773437 1.80054688 -1.82421875 1.21484375 C-0.92123047 0.61349609 -0.92123047 0.61349609 0 0 Z " fill="#1B7FB7" transform="translate(628,535)"/>
<path d="M0 0 C2.475 0.495 2.475 0.495 5 1 C6 4 6 4 5.0625 6.1875 C4.5365625 7.0846875 4.5365625 7.0846875 4 8 C0 2.25 0 2.25 0 0 Z " fill="#0F56A0" transform="translate(670,611)"/>
<path d="M0 0 C0.33 0 0.66 0 1 0 C1 2.97 1 5.94 1 9 C0.34 9 -0.32 9 -1 9 C-1.625 5.625 -1.625 5.625 -2 2 C-1.34 1.34 -0.68 0.68 0 0 Z " fill="#257DB3" transform="translate(727,490)"/>
<path d="M0 0 C-1.62366466 3.24732932 -4.75387839 3.70155136 -8 5 C-7.25 2.5625 -7.25 2.5625 -6 0 C-3.40713222 -1.13437965 -2.55267344 -1.27633672 0 0 Z " fill="#1762A7" transform="translate(352,326)"/>
<path d="M0 0 C1.32 0.33 2.64 0.66 4 1 C4.33 3.64 4.66 6.28 5 9 C4.34 9 3.68 9 3 9 C0 3.375 0 3.375 0 0 Z " fill="#14579F" transform="translate(298,293)"/>
<path d="M0 0 C1.65 0 3.3 0 5 0 C5 0.99 5 1.98 5 3 C3.02 3.33 1.04 3.66 -1 4 C-0.67 2.68 -0.34 1.36 0 0 Z " fill="#F5F8F6" transform="translate(259,245)"/>
<path d="M0 0 C0.66 0.33 1.32 0.66 2 1 C1.67 2.32 1.34 3.64 1 5 C-0.98 5 -2.96 5 -5 5 C-3.35 3.35 -1.7 1.7 0 0 Z " fill="#1056A2" transform="translate(621,539)"/>
<path d="M0 0 C0.66 0.66 1.32 1.32 2 2 C1.34 4.31 0.68 6.62 0 9 C-0.66 8.34 -1.32 7.68 -2 7 C-2 5.68 -2 4.36 -2 3 C-1.34 3 -0.68 3 0 3 C0 2.01 0 1.02 0 0 Z " fill="#165FA5" transform="translate(316,304)"/>
<path d="M0 0 C0.33 0.66 0.66 1.32 1 2 C0.06421005 4.35981813 -0.93347808 6.69631264 -2 9 C-2.99 8.34 -3.98 7.68 -5 7 C-5 6.34 -5 5.68 -5 5 C-4.01 5 -3.02 5 -2 5 C-1.34 3.35 -0.68 1.7 0 0 Z " fill="#1159A6" transform="translate(325,283)"/>
    <text x="50%" y="120" text-anchor="middle" font-family="Arial, Helvetica, sans-serif" font-size="96" fill="#FFFFFF" font-weight="700">Skywalk</text>
	<text x="50%" y="920" text-anchor="middle" font-family="Arial, Helvetica, sans-serif" font-size="96" fill="#FFFFFF" font-weight="700">DEM SENATE WIN</text>
</svg>