<?xml version="1.0" encoding="UTF-8"?>
<svg xmlns="http://www.w3.org/2000/svg" xmlns:xlink="http://www.w3.org/1999/xlink" width="32px" height="32px" viewBox="0 0 32 32" version="1.1">
<defs>
<linearGradient id="linear0" gradientUnits="userSpaceOnUse" x1="56.195" y1="700.570007" x2="56.195" y2="798" gradientTransform="matrix(0.161471,0,0,0.144014,-2.531991,-88.71863)">
<stop offset="0" style="stop-color:rgb(96.470588%,91.37255%,23.921569%);stop-opacity:1;"/>
<stop offset="0.13" style="stop-color:rgb(97.254902%,89.019608%,18.82353%);stop-opacity:1;"/>
<stop offset="0.35" style="stop-color:rgb(96.862745%,78.039217%,18.82353%);stop-opacity:1;"/>
<stop offset="0.64" style="stop-color:rgb(96.078432%,61.176473%,18.039216%);stop-opacity:1;"/>
<stop offset="0.98" style="stop-color:rgb(92.156863%,36.862746%,17.254902%);stop-opacity:1;"/>
<stop offset="1" style="stop-color:rgb(92.156863%,36.078432%,17.254902%);stop-opacity:1;"/>
</linearGradient>
<linearGradient id="linear1" gradientUnits="userSpaceOnUse" x1="94.485001" y1="757.280029" x2="94.485001" y2="838.22998" gradientTransform="matrix(0.161471,0,0,0.144014,-2.531991,-88.71863)">
<stop offset="0" style="stop-color:rgb(96.470588%,91.37255%,23.921569%);stop-opacity:1;"/>
<stop offset="0.13" style="stop-color:rgb(97.254902%,89.019608%,18.82353%);stop-opacity:1;"/>
<stop offset="0.35" style="stop-color:rgb(96.862745%,78.039217%,18.82353%);stop-opacity:1;"/>
<stop offset="0.64" style="stop-color:rgb(96.078432%,61.176473%,18.039216%);stop-opacity:1;"/>
<stop offset="0.98" style="stop-color:rgb(92.156863%,36.862746%,17.254902%);stop-opacity:1;"/>
<stop offset="1" style="stop-color:rgb(92.156863%,36.078432%,17.254902%);stop-opacity:1;"/>
</linearGradient>
<linearGradient id="linear2" gradientUnits="userSpaceOnUse" x1="139.615005" y1="733.630005" x2="139.615005" y2="824.070007" gradientTransform="matrix(0.161471,0,0,0.144014,-2.531991,-88.71863)">
<stop offset="0" style="stop-color:rgb(96.470588%,91.37255%,23.921569%);stop-opacity:1;"/>
<stop offset="0.13" style="stop-color:rgb(97.254902%,89.019608%,18.82353%);stop-opacity:1;"/>
<stop offset="0.35" style="stop-color:rgb(96.862745%,78.039217%,18.82353%);stop-opacity:1;"/>
<stop offset="0.64" style="stop-color:rgb(96.078432%,61.176473%,18.039216%);stop-opacity:1;"/>
<stop offset="0.98" style="stop-color:rgb(92.156863%,36.862746%,17.254902%);stop-opacity:1;"/>
<stop offset="1" style="stop-color:rgb(92.156863%,36.078432%,17.254902%);stop-opacity:1;"/>
</linearGradient>
<linearGradient id="linear3" gradientUnits="userSpaceOnUse" x1="66.614998" y1="633.969971" x2="66.614998" y2="704.349976" gradientTransform="matrix(0.161471,0,0,0.144014,-2.531991,-88.71863)">
<stop offset="0" style="stop-color:rgb(96.470588%,91.37255%,23.921569%);stop-opacity:1;"/>
<stop offset="0.13" style="stop-color:rgb(97.254902%,89.019608%,18.82353%);stop-opacity:1;"/>
<stop offset="0.35" style="stop-color:rgb(96.862745%,78.039217%,18.82353%);stop-opacity:1;"/>
<stop offset="0.64" style="stop-color:rgb(96.078432%,61.176473%,18.039216%);stop-opacity:1;"/>
<stop offset="0.98" style="stop-color:rgb(92.156863%,36.862746%,17.254902%);stop-opacity:1;"/>
<stop offset="1" style="stop-color:rgb(92.156863%,36.078432%,17.254902%);stop-opacity:1;"/>
</linearGradient>
<linearGradient id="linear4" gradientUnits="userSpaceOnUse" x1="187.259995" y1="657.820007" x2="187.259995" y2="764.75" gradientTransform="matrix(0.161471,0,0,0.144014,-2.531991,-88.71863)">
<stop offset="0" style="stop-color:rgb(96.470588%,91.37255%,23.921569%);stop-opacity:1;"/>
<stop offset="0.13" style="stop-color:rgb(97.254902%,89.019608%,18.82353%);stop-opacity:1;"/>
<stop offset="0.35" style="stop-color:rgb(96.862745%,78.039217%,18.82353%);stop-opacity:1;"/>
<stop offset="0.64" style="stop-color:rgb(96.078432%,61.176473%,18.039216%);stop-opacity:1;"/>
<stop offset="0.98" style="stop-color:rgb(92.156863%,36.862746%,17.254902%);stop-opacity:1;"/>
<stop offset="1" style="stop-color:rgb(92.156863%,36.078432%,17.254902%);stop-opacity:1;"/>
</linearGradient>
<linearGradient id="linear5" gradientUnits="userSpaceOnUse" x1="128.460007" y1="616.039978" x2="128.460007" y2="726.070007" gradientTransform="matrix(0.161471,0,0,0.144014,-2.531991,-88.71863)">
<stop offset="0" style="stop-color:rgb(96.470588%,91.37255%,23.921569%);stop-opacity:1;"/>
<stop offset="0.13" style="stop-color:rgb(97.254902%,89.019608%,18.82353%);stop-opacity:1;"/>
<stop offset="0.35" style="stop-color:rgb(96.862745%,78.039217%,18.82353%);stop-opacity:1;"/>
<stop offset="0.64" style="stop-color:rgb(96.078432%,61.176473%,18.039216%);stop-opacity:1;"/>
<stop offset="0.98" style="stop-color:rgb(92.156863%,36.862746%,17.254902%);stop-opacity:1;"/>
<stop offset="1" style="stop-color:rgb(92.156863%,36.078432%,17.254902%);stop-opacity:1;"/>
</linearGradient>
<linearGradient id="linear6" gradientUnits="userSpaceOnUse" x1="150.080002" y1="700.409973" x2="150.080002" y2="726.099976" gradientTransform="matrix(0.161471,0,0,0.144014,-2.531991,-88.71863)">
<stop offset="0" style="stop-color:rgb(96.470588%,91.37255%,23.921569%);stop-opacity:1;"/>
<stop offset="0.13" style="stop-color:rgb(97.254902%,89.019608%,18.82353%);stop-opacity:1;"/>
<stop offset="0.35" style="stop-color:rgb(96.862745%,78.039217%,18.82353%);stop-opacity:1;"/>
<stop offset="0.64" style="stop-color:rgb(96.078432%,61.176473%,18.039216%);stop-opacity:1;"/>
<stop offset="0.98" style="stop-color:rgb(92.156863%,36.862746%,17.254902%);stop-opacity:1;"/>
<stop offset="1" style="stop-color:rgb(92.156863%,36.078432%,17.254902%);stop-opacity:1;"/>
</linearGradient>
<linearGradient id="linear7" gradientUnits="userSpaceOnUse" x1="78.902802" y1="719.687378" x2="87.062798" y2="697.267395" gradientTransform="matrix(0.161471,0,0,0.144014,-2.531991,-88.71863)">
<stop offset="0" style="stop-color:rgb(96.470588%,91.37255%,23.921569%);stop-opacity:1;"/>
<stop offset="0.13" style="stop-color:rgb(97.254902%,89.019608%,18.82353%);stop-opacity:1;"/>
<stop offset="0.35" style="stop-color:rgb(96.862745%,78.039217%,18.82353%);stop-opacity:1;"/>
<stop offset="0.64" style="stop-color:rgb(96.078432%,61.176473%,18.039216%);stop-opacity:1;"/>
<stop offset="0.98" style="stop-color:rgb(92.156863%,36.862746%,17.254902%);stop-opacity:1;"/>
<stop offset="1" style="stop-color:rgb(92.156863%,36.078432%,17.254902%);stop-opacity:1;"/>
</linearGradient>
</defs>
<g id="surface1">
<path style=" stroke:none;fill-rule:nonzero;fill:url(#linear0);" d="M 7.464844 13.710938 L 7.480469 13.710938 L 7.757812 13.796875 L 8.015625 13.882812 L 8.289062 13.953125 L 8.546875 14.054688 L 8.824219 14.140625 L 9.082031 14.230469 L 9.355469 14.316406 L 10.128906 14.574219 L 10.40625 14.660156 L 10.664062 14.761719 L 10.9375 14.832031 L 11.195312 14.917969 L 11.472656 15.007812 L 11.730469 15.105469 L 12.003906 15.195312 L 12.261719 15.265625 L 12.519531 15.351562 L 12.792969 15.453125 L 13.070312 15.539062 L 13.070312 12.167969 L 7.109375 12.167969 L 6.851562 12.285156 L 6.238281 12.574219 L 5.609375 12.875 L 4.980469 13.148438 L 4.382812 13.4375 L 3.753906 13.738281 L 3.121094 14.011719 L 2.507812 14.316406 L 1.878906 14.601562 L 1.265625 14.875 L 0.652344 15.179688 L 0.0859375 15.4375 L 0.0234375 23.691406 L 0.652344 24.078125 L 1.265625 24.46875 L 1.878906 24.84375 L 2.507812 25.246094 L 3.121094 25.632812 L 3.753906 26.023438 L 4.027344 26.210938 L 4.382812 25.808594 L 4.980469 25.085938 L 5.042969 25.015625 L 4.980469 24.972656 L 4.382812 24.582031 L 3.753906 24.195312 L 3.121094 23.804688 L 2.507812 23.417969 L 1.878906 23.011719 L 1.71875 22.925781 L 1.765625 16.246094 L 1.878906 16.1875 L 2.507812 15.914062 L 3.121094 15.640625 L 3.753906 15.367188 L 4.382812 15.09375 L 4.980469 14.804688 L 5.609375 14.53125 L 6.238281 14.273438 L 6.851562 13.984375 Z M 7.464844 13.710938 "/>
<path style=" stroke:none;fill-rule:nonzero;fill:url(#linear1);" d="M 18.15625 29.449219 L 17.640625 29.636719 L 17.058594 29.855469 L 16.476562 30.054688 L 15.894531 30.273438 L 15.636719 30.359375 L 15.328125 30.230469 L 14.75 29.953125 L 14.167969 29.710938 L 13.601562 29.4375 L 13.019531 29.175781 L 12.441406 28.933594 L 11.859375 28.660156 L 11.277344 28.398438 L 10.113281 27.882812 L 9.53125 27.609375 L 8.984375 27.363281 L 8.402344 27.101562 L 8.339844 27.074219 L 8.339844 20.335938 L 6.660156 20.335938 L 6.660156 27.996094 L 7.238281 28.242188 L 7.820312 28.5 L 8.402344 28.773438 L 8.984375 29.019531 L 9.53125 29.292969 L 10.113281 29.550781 L 10.695312 29.8125 L 11.859375 30.328125 L 12.441406 30.589844 L 13.019531 30.847656 L 13.601562 31.121094 L 14.167969 31.367188 L 14.75 31.640625 L 15.328125 31.886719 L 15.554688 32 L 15.894531 31.855469 L 16.476562 31.667969 L 17.640625 31.238281 L 18.203125 31.035156 L 18.785156 30.832031 L 18.203125 29.539062 Z M 18.15625 29.449219 "/>
<path style=" stroke:none;fill-rule:nonzero;fill:url(#linear2);" d="M 28.472656 20.089844 L 28.507812 23.257812 L 28.359375 23.375 L 27.375 23.976562 L 26.390625 24.613281 L 25.40625 25.246094 L 24.421875 25.863281 L 23.4375 26.484375 L 22.46875 27.117188 L 21.480469 27.738281 L 20.902344 28.113281 L 20.496094 27.839844 L 19.527344 27.160156 L 18.542969 26.5 L 17.558594 25.820312 L 16.589844 25.160156 L 16.410156 25.042969 L 16.410156 21.632812 L 16.589844 21.488281 L 17.558594 20.566406 L 18.542969 19.65625 L 19.527344 18.734375 L 20.496094 17.828125 L 21.449219 16.9375 L 9.710938 16.9375 L 10.695312 17.859375 L 11.664062 18.765625 L 12.648438 19.671875 L 13.632812 20.59375 L 14.601562 21.5 L 14.75 21.632812 L 14.75 25.765625 L 15.589844 26.355469 L 16.589844 27.03125 L 17.558594 27.695312 L 18.542969 28.371094 L 19.527344 29.035156 L 20.496094 29.710938 L 20.851562 29.953125 L 21.480469 29.550781 L 22.46875 28.945312 L 23.4375 28.3125 L 24.421875 27.679688 L 25.40625 27.074219 L 27.375 25.808594 L 28.359375 25.203125 L 29.34375 24.570312 L 30.152344 24.035156 L 30.3125 20.148438 L 29.34375 20.117188 Z M 28.472656 20.089844 "/>
<path style=" stroke:none;fill-rule:nonzero;fill:url(#linear3);" d="M 1.621094 12.714844 L 1.734375 12.714844 L 1.75 8.484375 L 2.378906 8.121094 L 3.171875 7.703125 L 3.945312 7.289062 L 4.722656 6.855469 L 5.496094 6.4375 L 6.289062 6.003906 L 7.046875 5.585938 L 7.835938 5.171875 L 8.613281 4.738281 L 9.402344 4.304688 L 9.421875 4.304688 L 10.164062 4.695312 L 10.953125 5.082031 L 11.730469 5.488281 L 12.503906 5.875 L 13.277344 6.265625 L 14.054688 6.652344 L 14.828125 7.058594 L 15.589844 7.445312 L 15.621094 7.386719 L 16.394531 6.136719 L 15.621094 5.730469 L 14.828125 5.34375 L 14.054688 4.953125 L 13.277344 4.566406 L 12.503906 4.160156 L 11.730469 3.773438 L 10.953125 3.382812 L 10.164062 2.980469 L 9.402344 2.59375 L 9.371094 2.578125 L 8.613281 2.980469 L 7.835938 3.414062 L 7.046875 3.84375 L 6.289062 4.277344 L 5.496094 4.695312 L 4.722656 5.113281 L 3.945312 5.542969 L 3.171875 5.960938 L 2.378906 6.394531 L 1.621094 6.8125 L 0.828125 7.230469 L 0.0859375 7.648438 L 0.0546875 12.703125 L 0.828125 12.703125 Z M 1.621094 12.714844 "/>
<path style=" stroke:none;fill-rule:nonzero;fill:url(#linear4);" d="M 31.976562 8.84375 L 31.171875 8.265625 L 30.765625 7.964844 L 29.960938 7.386719 L 29.539062 7.101562 L 29.136719 6.8125 L 28.730469 6.523438 L 28.3125 6.222656 L 28.003906 6.019531 L 27.890625 6.136719 L 27.488281 6.582031 L 27.085938 7.042969 L 26.972656 7.15625 L 27.085938 7.257812 L 27.488281 7.5625 L 27.890625 7.863281 L 28.3125 8.164062 L 28.730469 8.46875 L 29.136719 8.785156 L 29.539062 9.085938 L 29.960938 9.390625 L 30.152344 9.535156 L 30.167969 16.34375 L 29.960938 16.476562 L 29.539062 16.707031 L 29.136719 16.9375 L 28.730469 17.167969 L 28.3125 17.398438 L 27.890625 17.628906 L 27.085938 18.089844 L 26.679688 18.320312 L 25.875 18.78125 L 25.453125 19.011719 L 24.648438 19.472656 L 24.242188 19.699219 L 23.824219 19.929688 L 23.417969 20.160156 L 23.824219 20.738281 L 24.242188 21.3125 L 24.308594 21.414062 L 24.648438 21.226562 L 25.050781 21.011719 L 25.453125 20.78125 L 25.875 20.566406 L 26.277344 20.320312 L 26.679688 20.105469 L 27.085938 19.875 L 27.488281 19.65625 L 27.890625 19.425781 L 28.3125 19.210938 L 28.730469 18.964844 L 29.136719 18.75 L 29.539062 18.519531 L 29.960938 18.304688 L 30.363281 18.074219 L 30.765625 17.859375 L 31.171875 17.613281 L 31.574219 17.398438 L 31.976562 17.167969 Z M 31.976562 8.84375 "/>
<path style=" stroke:none;fill-rule:nonzero;fill:url(#linear5);" d="M 18.65625 12.902344 L 18.65625 15.839844 L 18.785156 15.796875 L 19.335938 15.609375 L 19.882812 15.410156 L 20.417969 15.222656 L 20.964844 15.019531 L 21.515625 14.820312 L 22.046875 14.632812 L 22.597656 14.429688 L 23.144531 14.242188 L 23.679688 14.042969 L 24.226562 13.855469 L 24.761719 13.652344 L 24.761719 4.738281 L 24.144531 4.390625 L 22.886719 3.757812 L 22.273438 3.414062 L 21.644531 3.097656 L 21.011719 2.78125 L 20.398438 2.449219 L 19.769531 2.117188 L 19.15625 1.785156 L 18.527344 1.46875 L 17.898438 1.136719 L 17.285156 0.804688 L 16.671875 0.488281 L 16.039062 0.171875 L 15.703125 0 L 15.410156 0.144531 L 14.78125 0.445312 L 14.152344 0.734375 L 13.554688 1.050781 L 12.925781 1.355469 L 12.292969 1.640625 L 11.664062 1.957031 L 12.292969 2.277344 L 12.925781 2.59375 L 13.3125 2.808594 L 13.554688 2.691406 L 14.152344 2.40625 L 14.78125 2.101562 L 15.410156 1.816406 L 15.652344 1.699219 L 16.039062 1.902344 L 16.671875 2.21875 L 17.285156 2.535156 L 17.898438 2.867188 L 18.527344 3.195312 L 19.15625 3.515625 L 19.769531 3.84375 L 20.398438 4.175781 L 21.011719 4.492188 L 21.644531 4.808594 L 22.273438 5.15625 L 22.886719 5.472656 L 23.097656 5.574219 L 23.097656 12.140625 L 18.6875 12.140625 "/>
<path style=" stroke:none;fill-rule:nonzero;fill:url(#linear6);" d="M 18.65625 15.839844 L 24.761719 13.652344 L 18.65625 12.140625 "/>
<path style=" stroke:none;fill-rule:nonzero;fill:url(#linear7);" d="M 13.070312 15.839844 L 13.070312 12.199219 L 7.480469 13.679688 L 13.070312 15.828125 "/>
</g>
</svg>
