<svg width="32" height="32" viewBox="0 0 32 32" fill="none" xmlns="http://www.w3.org/2000/svg">
<g clip-path="url(#clip0_5514_78913)">
<path d="M0 16C0 19.1645 0.938384 22.2579 2.69649 24.8891C4.45459 27.5203 6.95345 29.5711 9.87707 30.7821C12.8007 31.9931 16.0177 32.3099 19.1214 31.6926C22.2251 31.0752 25.0761 29.5514 27.3137 27.3137C29.5514 25.0761 31.0752 22.2251 31.6926 19.1214C32.3099 16.0177 31.9931 12.8007 30.7821 9.87707C29.5711 6.95345 27.5203 4.45459 24.8891 2.69649C22.2579 0.938384 19.1645 0 16 0C11.7565 0 7.68687 1.68571 4.68629 4.68629C1.68571 7.68687 0 11.7565 0 16H0Z" fill="#121122"/>
<path d="M4.85333 19.6445C4.85333 14.4312 9.89511 10.2054 16.1138 10.2054C22.3324 10.2054 27.3778 14.4267 27.3778 19.6445C27.3778 24.8623 22.3324 29.0783 16.1138 29.0783C9.89511 29.0783 4.85333 24.8525 4.85333 19.6445ZM11.384 19.392C10.064 18.8098 7.808 18.9574 7.808 18.9574C7.808 18.9574 7.91378 21.0809 9.20889 21.8018C10.7449 22.656 13.6009 22.2329 13.6009 22.2329C13.6009 22.2329 13.3582 20.2578 11.384 19.3876V19.392ZM18.7182 22.2365C18.7182 22.2365 21.5742 22.6596 23.1102 21.8054C24.4053 21.0845 24.5111 18.9609 24.5111 18.9609C24.5111 18.9609 22.2551 18.8134 20.9351 19.3956C18.9609 20.2578 18.7182 22.2285 18.7182 22.2285V22.2365ZM15.5502 23.7334C15.5502 23.8898 15.8409 24.0169 16.1991 24.0169C16.5573 24.0169 16.848 23.8898 16.848 23.7334C16.848 23.5769 16.5573 23.4507 16.1991 23.4507C15.8409 23.4507 15.5502 23.5725 15.5502 23.7334Z" fill="#F2F4F8"/>
<path d="M27.0267 15.744C27.2658 14.4996 27.4951 13.2045 27.2995 11.9458C27.1164 10.2569 26.5369 9.74135 24.7964 10.1742C23.648 10.4409 22.0258 11.2409 21.1324 12.0836C20.1547 12.992 21.0835 14.0614 21.9475 14.8062C22.7191 15.5698 23.8498 16.0222 24.9618 16.24C25.5342 16.352 26.7547 16.3289 27.0267 15.744V15.744Z" fill="#F2F4F8"/>
<path d="M5.10133 15.744C4.86222 14.4996 4.632 13.2045 4.82755 11.9458C5.01155 10.2569 5.59022 9.74135 7.33156 10.1742C8.47912 10.4409 10.1022 11.2409 10.9947 12.0836C11.9725 12.992 11.0445 14.0614 10.1805 14.8062C9.40801 15.5689 8.27734 16.0222 7.16534 16.24C6.59378 16.352 5.37244 16.3289 5.10133 15.744V15.744Z" fill="#F2F4F8"/>
<path d="M6.65688 21.3689C5.48668 21.3728 4.32698 21.59 3.23466 22.0098C3.1788 22.0267 3.13159 22.0645 3.1028 22.1153C3.07401 22.1661 3.06585 22.226 3.08 22.2827C3.09599 22.3392 3.13356 22.3872 3.18461 22.4163C3.23565 22.4454 3.29609 22.4533 3.35288 22.4382C4.407 22.0309 5.5268 21.82 6.65688 21.816C6.94221 21.816 6.9431 21.3716 6.65688 21.3716V21.3689Z" fill="#F2F4F8"/>
<path d="M7.18933 23C6.61578 23.0141 6.04713 23.1095 5.50044 23.2836C4.97777 23.4409 4.41155 23.6507 4 24.0311C3.78933 24.2258 4.104 24.5396 4.31377 24.3449C4.65244 24.0311 5.18311 23.8391 5.64711 23.7031C6.14594 23.5452 6.66449 23.4581 7.18755 23.4444C7.47377 23.4444 7.47377 23 7.18755 23H7.18933Z" fill="#F2F4F8"/>
<path d="M7.696 24.1102C7.25025 24.301 6.82171 24.5297 6.41511 24.7938C6.00439 25.047 5.64299 25.3725 5.34844 25.7547C5.31888 25.8055 5.31061 25.866 5.32543 25.9229C5.34025 25.9799 5.37695 26.0287 5.42755 26.0587C5.47881 26.0871 5.53906 26.0948 5.59581 26.0801C5.65256 26.0653 5.70148 26.0293 5.73244 25.9795C5.98222 25.6347 6.34044 25.3671 6.69511 25.1387C7.0844 24.8917 7.49281 24.6762 7.91644 24.4942C7.96702 24.4642 8.00375 24.4155 8.01872 24.3586C8.03369 24.3017 8.02569 24.2412 7.99644 24.1902C7.96564 24.1405 7.91695 24.1045 7.86039 24.0896C7.80383 24.0747 7.74372 24.0821 7.69244 24.1102H7.696Z" fill="#F2F4F8"/>
<path d="M25.6436 21.8036C26.7733 21.808 27.8927 22.0189 28.9467 22.4258C29.0036 22.4411 29.0642 22.4334 29.1155 22.4042C29.1667 22.3751 29.2045 22.327 29.2204 22.2702C29.2341 22.2141 29.2258 22.1548 29.1972 22.1046C29.1686 22.0544 29.1219 22.017 29.0667 22C27.9747 21.5801 26.8153 21.363 25.6453 21.3591C25.3591 21.3591 25.3591 21.8036 25.6453 21.8036H25.6436Z" fill="#F2F4F8"/>
<path d="M25.1111 23.4355C25.6342 23.4485 26.1528 23.5353 26.6516 23.6933C26.9093 23.7665 27.161 23.8596 27.4044 23.9715C27.6145 24.0634 27.8095 24.1862 27.9831 24.336C28.1929 24.5298 28.5075 24.2169 28.2978 24.0213C27.8889 23.6418 27.3262 23.4311 26.8 23.2738C26.2533 23.0997 25.6847 23.0046 25.1111 22.9911C24.8249 22.9911 24.824 23.4355 25.1111 23.4355V23.4355Z" fill="#F2F4F8"/>
<path d="M24.3991 24.5031C24.8153 24.6796 25.2173 24.8876 25.6018 25.1253C25.9662 25.3573 26.328 25.6311 26.584 25.984C26.6146 26.0339 26.6633 26.07 26.72 26.0849C26.7766 26.0998 26.8368 26.0923 26.888 26.064C26.9384 26.0338 26.975 25.985 26.9898 25.9282C27.0046 25.8713 26.9964 25.8109 26.9671 25.76C26.4009 24.9786 25.4898 24.4933 24.624 24.1155C24.5726 24.0875 24.5125 24.0801 24.4559 24.0948C24.3993 24.1095 24.3504 24.1452 24.3191 24.1946C24.2901 24.2457 24.2822 24.3061 24.2972 24.3629C24.3121 24.4198 24.3487 24.4685 24.3991 24.4986V24.5031Z" fill="#F2F4F8"/>
<path d="M1.54579 16.8764C1.75112 16.5564 3.55556 15.5938 5.78845 15.0222C6.27039 13.6536 6.86502 12.3272 7.56623 11.0569C7.55734 11.0569 9.35201 7.83555 9.34401 7.83377C8.82936 7.59957 8.3352 7.32275 7.86667 7.00622C7.78735 6.94519 7.71545 6.87509 7.65245 6.79733C7.6049 6.71885 7.58027 6.62863 7.58134 6.53688C7.58134 6.46222 7.68712 6.32888 7.73423 6.27022C7.85444 6.12882 7.98712 5.99852 8.13067 5.88088C8.47285 5.6007 8.83238 5.34241 9.20712 5.10755C9.3849 4.99022 9.56978 4.87555 9.75201 4.75999C11.032 3.94488 11.7333 3.33155 12.9058 2.65777C14.0258 2.01599 14.5698 1.62044 15.8685 1.6871C17.5005 1.6871 21.5573 6.8551 23.3867 9.51822C24.4836 11.1182 25.9556 13.9991 26.4978 15.0827C26.6276 15.1155 26.7449 15.1467 26.8533 15.1787C28.5173 15.6782 30.1493 16.4107 30.5485 16.8764C30.904 17.2907 29.3502 17.4755 27.8187 17.7422C26.2871 18.0089 21.0916 18.1413 16.0987 18.1751C11.1058 18.2089 5.27823 18.0418 4.00979 17.8418C2.74134 17.6418 1.29067 17.2755 1.54579 16.8764Z" fill="#6665DD"/>
<path d="M25.1058 12.4124C25.1058 12.4124 21.8169 11.5884 16.0222 11.5884C9.80001 11.5884 6.80356 12.5484 6.80356 12.5484C6.80356 12.5484 6.44801 13.224 6.29334 13.6151C6.13867 14.0062 5.78845 15.0222 5.78845 15.0222C5.78845 15.0222 10.3156 14.2116 16.1093 14.2116C19.5981 14.226 23.0801 14.5203 26.5218 15.0916C26.5218 15.0916 25.9965 13.8622 25.6818 13.3378C25.3671 12.8133 25.1058 12.4124 25.1058 12.4124Z" fill="#FF99A5"/>
<path d="M5.53155 5.46047C5.90844 5.40536 6.42044 6.55914 6.42044 6.55914C6.42044 6.55914 7.60622 6.24003 7.79111 6.55914C7.97599 6.87825 6.95733 7.64447 6.95733 7.64447C6.95733 7.64447 7.57244 8.72625 7.37777 8.95114C7.1831 9.17603 6.08621 8.49337 6.08621 8.49337C6.08621 8.49337 5.24977 9.43559 4.97688 9.29337C4.70399 9.15114 5.01332 7.92359 5.01332 7.92359C5.01332 7.92359 3.83021 7.42047 3.9111 7.12181C3.99199 6.82314 5.22488 6.73247 5.22488 6.73247C5.22488 6.73247 5.15555 5.51558 5.53155 5.46047Z" fill="#FFE600"/>
</g>
<defs>
<clipPath id="clip0_5514_78913">
<rect width="32" height="32" fill="white"/>
</clipPath>
</defs>
</svg>
