<svg width="32" height="32" viewBox="0 0 32 32" fill="none" xmlns="http://www.w3.org/2000/svg">
<g clip-path="url(#clip0_411_487434)">
<path fill-rule="evenodd" clip-rule="evenodd" d="M13.5 25.3125C20.0239 25.3125 25.3125 20.0239 25.3125 13.5C25.3125 6.97614 20.0239 1.6875 13.5 1.6875C6.97614 1.6875 1.6875 6.97614 1.6875 13.5C1.6875 20.0239 6.97614 25.3125 13.5 25.3125ZM13.5 27C20.9558 27 27 20.9558 27 13.5C27 6.04416 20.9558 0 13.5 0C6.04416 0 0 6.04416 0 13.5C0 20.9558 6.04416 27 13.5 27Z" fill="#FFD48A"/>
<path fill-rule="evenodd" clip-rule="evenodd" d="M13.5 24.4688C19.2084 24.4688 24.4688 19.2084 24.4688 13.5C24.4688 7.79162 19.2084 2.53125 13.5 2.53125C7.79162 2.53125 2.53125 7.79162 2.53125 13.5C2.53125 19.2084 7.79162 24.4688 13.5 24.4688ZM13.5 25.3125C20.0239 25.3125 25.3125 20.0239 25.3125 13.5C25.3125 6.97614 20.0239 1.6875 13.5 1.6875C6.97614 1.6875 1.6875 6.97614 1.6875 13.5C1.6875 20.0239 6.97614 25.3125 13.5 25.3125Z" fill="#F4694D"/>
<circle cx="13.5" cy="13.5" r="10.9688" fill="url(#paint0_linear_411_487434)"/>
<path fill-rule="evenodd" clip-rule="evenodd" d="M18.491 13.6431L13.4996 16.6353L8.50896 13.6425L8.4375 13.7631L13.4996 16.7986L18.5625 13.7636L18.491 13.6431ZM8.63129 14.8833L13.4996 21.9377L18.3687 14.8833L18.5625 14.7658L13.4996 22.1011L8.4375 14.7658L8.63129 14.8833Z" fill="#D7492D"/>
<path fill-rule="evenodd" clip-rule="evenodd" d="M13.4996 5.0625L18.5625 13.6001L13.4996 16.6351L8.4375 13.5995L13.4996 5.0625ZM13.4996 21.9375L8.4375 14.6023L13.4996 17.6701L18.5625 14.6023L13.4996 21.9375Z" fill="white"/>
</g>
<path fill-rule="evenodd" clip-rule="evenodd" d="M32 25C32 24.0838 31.8177 23.1677 31.4672 22.3212C31.1166 21.4748 30.5976 20.6981 29.9497 20.0503C29.3019 19.4024 28.5252 18.8834 27.6788 18.5328C26.8323 18.1823 25.9162 18 25 18C24.0838 18 23.1677 18.1823 22.3212 18.5328C21.4748 18.8834 20.6981 19.4024 20.0503 20.0503C19.4024 20.6981 18.8834 21.4748 18.5328 22.3212C18.1823 23.1677 18 24.0838 18 25C18 25.9162 18.1823 26.8323 18.5328 27.6788C18.8834 28.5252 19.4024 29.3019 20.0503 29.9497C20.6981 30.5976 21.4748 31.1166 22.3212 31.4672C23.1677 31.8177 24.0838 32 25 32C25.9162 32 26.8323 31.8177 27.6788 31.4672C28.5252 31.1166 29.3019 30.5976 29.9497 29.9497C30.5976 29.3019 31.1166 28.5252 31.4672 27.6788C31.8177 26.8323 32 25.9162 32 25Z" fill="white"/>
<path fill-rule="evenodd" clip-rule="evenodd" d="M31.4672 22.3212C31.8177 23.1677 32 24.0838 32 25C32 25.9162 31.8177 26.8323 31.4672 27.6788C31.1166 28.5252 30.5976 29.3019 29.9497 29.9497C29.3019 30.5976 28.5252 31.1166 27.6788 31.4672C26.8323 31.8177 25.9162 32 25 32C24.0838 32 23.1677 31.8177 22.3212 31.4672C21.4748 31.1166 20.6981 30.5976 20.0503 29.9497C19.4024 29.3019 18.8834 28.5252 18.5328 27.6788C18.1823 26.8323 18 25.9162 18 25C18 24.0838 18.1823 23.1677 18.5328 22.3212C18.8834 21.4748 19.4024 20.6981 20.0503 20.0503C20.6981 19.4024 21.4748 18.8834 22.3212 18.5328C23.1677 18.1823 24.0838 18 25 18C25.9162 18 26.8323 18.1823 27.6788 18.5328C28.5252 18.8834 29.3019 19.4024 29.9497 20.0503C30.5976 20.6981 31.1166 21.4748 31.4672 22.3212ZM30.8205 22.5891C31.1359 23.3509 31.3 24.1754 31.3 25C31.3 25.8246 31.1359 26.6491 30.8205 27.4109C30.5049 28.1727 30.0378 28.8717 29.4548 29.4548C28.8717 30.0378 28.1727 30.5049 27.4109 30.8205C26.6491 31.1359 25.8246 31.3 25 31.3C24.1754 31.3 23.3509 31.1359 22.5891 30.8205C21.8273 30.5049 21.1283 30.0378 20.5452 29.4548C19.9622 28.8717 19.4951 28.1727 19.1795 27.4109C18.8641 26.6491 18.7 25.8246 18.7 25C18.7 24.1754 18.8641 23.3509 19.1795 22.5891C19.4951 21.8273 19.9622 21.1283 20.5452 20.5452C21.1283 19.9622 21.8273 19.4951 22.5891 19.1795C23.3509 18.8641 24.1754 18.7 25 18.7C25.8246 18.7 26.6491 18.8641 27.4109 19.1795C28.1727 19.4951 28.8717 19.9622 29.4548 20.5452C30.0378 21.1283 30.5049 21.8273 30.8205 22.5891Z" fill="black"/>
<path fill-rule="evenodd" clip-rule="evenodd" d="M25.0545 22.6673C26.5867 22.6673 27.8288 22.2526 27.8288 21.7411C27.8288 21.2296 26.5867 20.8149 25.0545 20.8149C23.5223 20.8149 22.2802 21.2296 22.2802 21.7411C22.2802 22.2526 23.5223 22.6673 25.0545 22.6673ZM23.4375 22.8839C22.2049 23.0842 21.3554 23.5064 21.3554 23.9949C21.3554 24.6769 23.0116 25.2298 25.0545 25.2298C27.0974 25.2298 28.7536 24.6769 28.7536 23.9949C28.7536 23.5064 27.9041 23.0842 26.6715 22.8839C26.1979 23.0013 25.645 23.0687 25.0545 23.0687C24.464 23.0687 23.9111 23.0013 23.4375 22.8839ZM22.8759 25.4116C21.4206 25.6716 20.4307 26.184 20.4307 26.7735C20.4307 27.6261 22.5008 28.3172 25.0545 28.3172C27.6082 28.3172 29.6783 27.6261 29.6783 26.7735C29.6783 26.184 28.6883 25.6716 27.2331 25.4116C26.6007 25.5703 25.8541 25.6621 25.0545 25.6621C24.2549 25.6621 23.5083 25.5703 22.8759 25.4116Z" fill="black"/>
<defs>
<linearGradient id="paint0_linear_411_487434" x1="21.5156" y1="9.64725e-07" x2="3.79687" y2="26.5781" gradientUnits="userSpaceOnUse">
<stop stop-color="#F5755C"/>
<stop offset="1" stop-color="#F9BD7D"/>
</linearGradient>
<clipPath id="clip0_411_487434">
<rect width="27" height="27" fill="white"/>
</clipPath>
</defs>
</svg>
