<svg width="32" height="32" viewBox="0 0 32 32" fill="none" xmlns="http://www.w3.org/2000/svg">
<g clip-path="url(#clip0_801_302230)">
<mask id="mask0_801_302230" style="mask-type:luminance" maskUnits="userSpaceOnUse" x="0" y="3" width="26" height="26">
<path d="M26 3H0V29H26V3Z" fill="white"/>
</mask>
<g mask="url(#mask0_801_302230)">
<path d="M13 29C20.1797 29 26 23.1797 26 16C26 8.82031 20.1797 3 13 3C5.82031 3 0 8.82031 0 16C0 23.1797 5.82031 29 13 29Z" fill="#F1F1F1"/>
<path d="M19.1995 25.0161C18.5055 25.0161 17.9404 24.4515 17.9404 23.7581C17.9404 23.0646 18.5055 22.5 19.1995 22.5C19.8934 22.5 20.4585 23.0646 20.4585 23.7581C20.4585 24.4515 19.8934 25.0161 19.1995 25.0161Z" fill="#F96D30"/>
<path d="M17.2003 18.0812C16.9981 17.5095 16.6643 17 16.1892 16.5502C15.714 16.1004 15.1793 15.678 14.5751 15.2804C14.4468 15.2054 14.3309 15.1229 14.2125 15.0503L15.0253 11.8477C15.0253 11.8477 15.0451 11.8527 15.0425 11.8627C15.2715 12.0801 15.4285 12.3323 15.5234 12.6219C15.5769 12.7842 15.6081 12.9514 15.5973 13.1185C15.5935 13.3406 15.7533 13.5404 15.9708 13.5956L17.8295 14.0673C18.1261 14.1426 18.4318 13.9335 18.4583 13.6216C18.5111 13.0403 18.4499 12.4938 18.2647 11.9795C18.016 11.3005 17.5961 10.716 17.0023 10.2361C16.608 9.92367 16.1466 9.66851 15.6206 9.46066L16.1346 7.43531C16.1928 7.20584 16.053 6.96861 15.8256 6.91089L15.0644 6.71771C14.837 6.65999 14.601 6.80188 14.5428 7.03135L14.0364 9.02677C13.4379 8.93861 12.8685 8.94279 12.3185 9.03684C11.5603 9.16301 10.9151 9.46651 10.395 9.93987C9.86512 10.4107 9.50258 11.0514 9.29746 11.8596C9.09238 12.6677 9.13145 13.6334 9.53089 14.3401C9.92781 15.0568 10.6048 15.7065 11.5568 16.3091C11.7369 16.4292 11.9194 16.5392 12.0895 16.6567L11.1628 20.3083C11.0913 20.2583 11.0297 20.2108 10.9706 20.1534C10.6998 19.8935 10.5035 19.5888 10.4015 19.2443C10.331 19.0247 10.3051 18.7951 10.3139 18.553C10.3227 18.311 10.168 18.0912 9.9406 18.0335L8.14119 17.5769C7.84458 17.5016 7.55136 17.7033 7.51496 18.0126C7.43683 18.6937 7.49759 19.3251 7.71703 19.9117C7.99252 20.6507 8.45431 21.2776 9.12215 21.7976C9.56079 22.1425 10.0618 22.4077 10.6149 22.633L10.1642 24.409C10.106 24.6384 10.2457 24.8757 10.4731 24.9334L11.2344 25.1266C11.4618 25.1843 11.6978 25.0424 11.756 24.8129L12.1966 23.0769C12.9434 23.2027 13.6192 23.1937 14.2364 23.0424C15.0221 22.8488 15.6677 22.5029 16.1755 21.9946C16.6834 21.4863 17.0259 20.883 17.2057 20.1746C17.3854 19.4662 17.4172 18.6778 17.215 18.1061L17.2003 18.0812ZM12.6497 13.9104C12.4108 13.6904 12.2488 13.4582 12.1537 13.211C12.0585 12.9638 12.0453 12.6844 12.1263 12.3651C12.2073 12.0458 12.3523 11.8065 12.5537 11.6346C12.7552 11.4627 13.0033 11.3558 13.2857 11.3213C13.3501 11.3164 13.417 11.3015 13.4887 11.3091L12.7975 14.0328C12.7557 13.9903 12.7014 13.9553 12.6596 13.9128L12.6497 13.9104ZM13.9172 20.402C13.7008 20.5914 13.4304 20.7033 13.1206 20.7627C13.0091 20.7875 12.8829 20.7873 12.7566 20.7871L13.5491 17.6643C13.6181 17.7243 13.6871 17.7843 13.7461 17.8418C14.017 18.1016 14.2109 18.3739 14.3256 18.6685C14.4403 18.9631 14.4533 19.285 14.3647 19.6341C14.276 19.9834 14.1311 20.2227 13.9073 20.3995L13.9172 20.402Z" fill="#1D1D1F"/>
</g>
</g>
<g clip-path="url(#clip1_801_302230)">
<path d="M25 32C28.866 32 32 28.866 32 25C32 21.134 28.866 18 25 18C21.134 18 18 21.134 18 25C18 28.866 21.134 32 25 32Z" fill="#28D358"/>
<path d="M22.4258 24.0863C22.4258 24.7158 22.9358 25.2259 23.5654 25.2259C24.1949 25.2259 24.705 24.7158 24.705 24.0863C24.705 23.4567 24.1949 22.9467 23.5654 22.9467C22.9358 22.9467 22.4258 23.4567 22.4258 24.0863Z" fill="white"/>
<path d="M25.2979 24.0863C25.2979 24.7158 25.8079 25.2259 26.4375 25.2259C27.067 25.2259 27.5771 24.7158 27.5771 24.0863C27.5771 23.4567 27.067 22.9467 26.4375 22.9467C25.8079 22.9467 25.2979 23.4567 25.2979 24.0863Z" fill="white"/>
<path d="M30.401 29.4539V25.5698H28.9357C28.6394 27.5289 27.0233 28.9559 25.0003 28.9559C22.765 28.9559 20.979 27.2139 20.979 24.9361C20.979 22.6583 22.765 20.8835 25.0008 20.8835C26.9496 20.8835 28.5558 22.2327 28.9366 24.0872H30.402C30.0011 21.4505 27.7004 19.4313 25.0003 19.4313C22.0169 19.4313 19.5986 21.8962 19.5986 24.9356C19.5986 27.975 22.0169 30.4399 25.0003 30.4399C26.8777 30.4399 28.1867 29.5705 28.9898 28.2013C29.009 28.2069 29.0286 28.2111 29.0468 28.2167V30.7125C29.5522 30.3541 30.0076 29.9303 30.401 29.4534V29.4539Z" fill="white"/>
</g>
<path fill-rule="evenodd" clip-rule="evenodd" d="M32 7C32 6.08384 31.8177 5.16768 31.4672 4.32124C31.1166 3.4748 30.5976 2.69808 29.9497 2.0503C29.3019 1.40238 28.5252 0.8834 27.6788 0.53284C26.8323 0.18228 25.9162 0 25 0C24.0838 0 23.1677 0.18228 22.3212 0.53284C21.4748 0.8834 20.6981 1.40238 20.0503 2.0503C19.4024 2.69808 18.8834 3.4748 18.5328 4.32124C18.1823 5.16768 18 6.08384 18 7C18 7.91616 18.1823 8.83232 18.5328 9.67876C18.8834 10.5252 19.4024 11.3019 20.0503 11.9497C20.6981 12.5976 21.4748 13.1166 22.3212 13.4672C23.1677 13.8177 24.0838 14 25 14C25.9162 14 26.8323 13.8177 27.6788 13.4672C28.5252 13.1166 29.3019 12.5976 29.9497 11.9497C30.5976 11.3019 31.1166 10.5252 31.4672 9.67876C31.8177 8.83232 32 7.91616 32 7Z" fill="white"/>
<path fill-rule="evenodd" clip-rule="evenodd" d="M32 7C32 6.08384 31.8177 5.16768 31.4672 4.32124C31.1166 3.4748 30.5976 2.69808 29.9497 2.0503C29.3019 1.40238 28.5252 0.8834 27.6788 0.53284C26.8323 0.18228 25.9162 0 25 0C24.0838 0 23.1677 0.18228 22.3212 0.53284C21.4748 0.8834 20.6981 1.40238 20.0503 2.0503C19.4024 2.69808 18.8834 3.4748 18.5328 4.32124C18.1823 5.16768 18 6.08384 18 7C18 7.91616 18.1823 8.83232 18.5328 9.67876C18.8834 10.5252 19.4024 11.3019 20.0503 11.9497C20.6981 12.5976 21.4748 13.1166 22.3212 13.4672C23.1677 13.8177 24.0838 14 25 14C25.9162 14 26.8323 13.8177 27.6788 13.4672C28.5252 13.1166 29.3019 12.5976 29.9497 11.9497C30.5976 11.3019 31.1166 10.5252 31.4672 9.67876C31.8177 8.83232 32 7.91616 32 7ZM31.3 7C31.3 6.1754 31.1359 5.35094 30.8205 4.58906C30.5049 3.82732 30.0378 3.1283 29.4548 2.5452C28.8717 1.96224 28.1727 1.49506 27.4109 1.1795C26.6491 0.86408 25.8246 0.7 25 0.7C24.1754 0.7 23.3509 0.86408 22.5891 1.1795C21.8273 1.49506 21.1283 1.96224 20.5452 2.5452C19.9622 3.1283 19.4951 3.82732 19.1795 4.58906C18.8641 5.35094 18.7 6.1754 18.7 7C18.7 7.8246 18.8641 8.64906 19.1795 9.41094C19.4951 10.1727 19.9622 10.8717 20.5452 11.4548C21.1283 12.0378 21.8273 12.5049 22.5891 12.8205C23.3509 13.1359 24.1754 13.3 25 13.3C25.8246 13.3 26.6491 13.1359 27.4109 12.8205C28.1727 12.5049 28.8717 12.0378 29.4548 11.4548C30.0378 10.8717 30.5049 10.1727 30.8205 9.41094C31.1359 8.64906 31.3 7.8246 31.3 7ZM27.829 3.74107C27.829 4.2526 26.5869 4.66728 25.0547 4.66728C23.5225 4.66728 22.2804 4.2526 22.2804 3.74107C22.2804 3.22954 23.5225 2.81486 25.0547 2.81486C26.5869 2.81486 27.829 3.22954 27.829 3.74107ZM21.3556 5.99486C21.3556 5.50639 22.2051 5.08416 23.4377 4.88383C23.9113 5.00124 24.4642 5.06865 25.0547 5.06865C25.6452 5.06865 26.1981 5.00124 26.6717 4.88383C27.9043 5.08416 28.7538 5.50639 28.7538 5.99486C28.7538 6.6769 27.0976 7.22981 25.0547 7.22981C23.0118 7.22981 21.3556 6.6769 21.3556 5.99486ZM20.4309 8.77349C20.4309 8.18393 21.4208 7.67156 22.8761 7.41155C23.5085 7.57033 24.2551 7.66203 25.0547 7.66203C25.8543 7.66203 26.6009 7.57033 27.2333 7.41155C28.6886 7.67156 29.6785 8.18393 29.6785 8.77349C29.6785 9.62605 27.6084 10.3172 25.0547 10.3172C22.501 10.3172 20.4309 9.62605 20.4309 8.77349Z" fill="black"/>
<defs>
<clipPath id="clip0_801_302230">
<rect width="26" height="26" fill="white" transform="translate(0 3)"/>
</clipPath>
<clipPath id="clip1_801_302230">
<rect width="14" height="14" fill="white" transform="translate(18 18)"/>
</clipPath>
</defs>
</svg>
