<?xml version="1.0" encoding="UTF-8"?>
<svg id="Layer_2" data-name="Layer 2" xmlns="http://www.w3.org/2000/svg" xmlns:xlink="http://www.w3.org/1999/xlink" viewBox="0 0 64 64">
  <defs>
    <style>
      .cls-1 {
        fill: none;
      }

      .cls-2 {
        fill: #fff;
      }

      .cls-3 {
        fill: #3368ef;
      }

      .cls-4 {
        clip-path: url(#clippath);
      }
    </style>
    <clipPath id="clippath">
      <path class="cls-1" d="M32,0h0c17.67,0,32,14.33,32,32s-14.33,32-32,32S0,49.67,0,32,14.33,0,32,0Z"/>
    </clipPath>
  </defs>
  <g id="Layer_1-2" data-name="Layer 1">
    <g class="cls-4">
      <g>
        <path class="cls-2" d="M32,0h0c17.67,0,32,14.33,32,32h0c0,17.67-14.33,32-32,32h0C14.33,64,0,49.67,0,32h0C0,14.33,14.33,0,32,0Z"/>
        <rect class="cls-3" width="64" height="64"/>
        <path class="cls-2" d="M10.84,19.2h20.17c.36,0,.66.28.66.63v9.05c0,.57-.34,1.08-.88,1.31l-2.54,1.12c-.12.05-.2.17-.2.3s.08.25.2.3l2.56,1.17c.53.24.86.75.86,1.31v9.78c0,.35-.3.63-.66.63H10.84c-1.04,0-1.88-.81-1.88-1.8v-22c0-.99.84-1.8,1.88-1.8ZM21.78,36.27c.51,0,.88-.07,1.1-.2.24-.13.36-.38.36-.74v-.06c0-.38-.13-.65-.39-.8-.24-.15-.64-.23-1.22-.23h-3.76v2.02h3.91ZM21.6,29.35c.91,0,1.37-.31,1.37-.94v-.14c0-.36-.12-.61-.36-.74-.22-.15-.58-.23-1.1-.23h-3.64v2.05h3.73,0ZM33.38,34.16h8.31c0,.65.12,1.09.36,1.34.26.25.62.37,1.1.37.81,0,1.22-.45,1.22-1.34,0-.44-.14-.75-.42-.94-.26-.19-.65-.28-1.19-.28h-4.58v-3.3l7.04-1.68h-11.85c-.33,0-.6-.26-.6-.57v-8.08c0-.26.22-.48.5-.48h19.49c1.04,0,1.88.81,1.88,1.8v6.46c0,.73-.52,1.36-1.26,1.53l-7.71,1.76.36.06h7.36c.91,0,1.65.71,1.65,1.58v10.62c0,.99-.84,1.8-1.88,1.8h-19.88c-.28,0-.5-.21-.5-.48v-9.59c0-.32.27-.57.6-.57Z"/>
      </g>
    </g>
  </g>
</svg>