<svg xmlns="http://www.w3.org/2000/svg" viewBox="0 0 256 256"><desc>Symbol: SAMP | Address: 0xB695559b26BB2c9703ef1935c37AeaE9526bab07</desc><g transform="scale(.25)"><defs><linearGradient id="g" x1="817.9" x2="818.1" y1="543.1" y2="551.7" gradientUnits="userSpaceOnUse"><stop class="stop0" offset="0"/><stop class="stop1" offset="1" stop-color="#140003"/></linearGradient><linearGradient id="f" x1="325.9" x2="316.3" y1="674.7" y2="673" gradientUnits="userSpaceOnUse"><stop class="stop0" offset="0" stop-color="#15100a"/><stop class="stop1" offset="1" stop-color="#23080f"/></linearGradient><linearGradient id="e" x1="477.6" x2="482.1" y1="591.9" y2="541.8" gradientUnits="userSpaceOnUse"><stop class="stop0" offset="0" stop-color="#c83432"/><stop class="stop1" offset="1" stop-color="#d65b5a"/></linearGradient><linearGradient id="d" x1="583.5" x2="579.8" y1="831.3" y2="824.2" gradientUnits="userSpaceOnUse"><stop class="stop0" offset="0" stop-color="#52151c"/><stop class="stop1" offset="1" stop-color="#371a0e"/></linearGradient><linearGradient id="c" x1="741.9" x2="724.6" y1="331.3" y2="326.9" gradientUnits="userSpaceOnUse"><stop class="stop0" offset="0" stop-color="#e14845"/><stop class="stop1" offset="1" stop-color="#c82825"/></linearGradient><linearGradient id="b" x1="556.6" x2="557.5" y1="549" y2="554.4" gradientUnits="userSpaceOnUse"><stop class="stop0" offset="0" stop-color="#180100"/><stop class="stop1" offset="1" stop-color="#030001"/></linearGradient><linearGradient id="a" x1="442.4" x2="445.2" y1="560.3" y2="543.9" gradientUnits="userSpaceOnUse"><stop class="stop0" offset="0" stop-color="#040000"/><stop class="stop1" offset="1" stop-color="#230100"/></linearGradient></defs><path fill="#fb584a" d="M538 80c17 7 48 13 67 20q12 3 23 8c24-32 67-33 89 1-4-3-20-15-24-15l13 15c3 3 5 3 2 8 6 7 6 8 6 17 4 3 4 2 5 6l-2 4-1 8-6 10-4 5q1 5 6 7c-10 9-30 19-43 17-26-3-47-22-49-49l-3-9q-32-6-61-15l-9-2c-2 2-4 13-5 16q-11 41-24 78c3 4 28 6 34 8 30 7 66 17 91 37q12-8 27-11c23-3 49 1 64 20 28 26 31 79 5 107l-2 2-13 14c0 22 0 17-4 38-1 12-13 31-20 42a258 258 0 0 1-74 64l-16 8c7 8 12 13 15 23l3 6c-6 0-20-10-26-14l-2-2c-6-1-7 0-8-6l-8 3-6 2-40 9c-19 5-40 3-60 4h-18q-22-2-43-6l-25-6c-3 3-2 3-5 4-10-5-6-1-14 1-9-2-4-1-11 2l-7-4c3-5 4-6 4-12l-1-1v-1l-5-4q-17-6-32-18-9-4-16-12-13-8-24-21-4-7-10-13c-4-10-11-14-13-30-6-9-9-29-10-40l-1-10-7-10c-1-2-8-4-14-14q-11-14-15-29l-1-4c-9-33 10-70 40-85 19-11 53-11 71 3 14-7 29-17 43-22q34-12 69-19c6-2 47 1 48-2l40-113c4-12 6-13 17-18M383 413q34 8 54-23 5-6 8-14 4-13-1-26l-4-9q-7-15-24-22-9-4-17-3c-25-2-40 12-51 33q-7 18 1 36l2 1c9 13 16 20 32 27m181-27c13 24 38 37 64 23q12-6 20-19l2-1q19-38-13-65l-7-4q-22-8-45 1-11 8-21 18c-3 10-9 39 0 47"/><path fill="#d13f3b" d="M695 350c5-9-3-24 1-31 2 2 5 11 6 15l2-2q2 4 5 5l5 4c5 10 11 26 10 37l1 1h1l8-15 3 9-13 14c0 22 0 17-4 38-1 12-13 31-20 42a258 258 0 0 1-74 64l-16 8c7 8 12 13 15 23l3 6c-6 0-20-10-26-14l-2-2c-6-1-7 0-8-6l-8 3-6 2-40 9c-19 5-40 3-60 4h-18q-22-1-43-6l-25-6c-3 3-2 3-5 4-10-5-6-1-14 1-9-2-4-1-11 2l-7-4c3-5 4-6 4-12l-1-1v-1l-5-4q-17-6-32-18 7 5 13 2c-2-3-15-12-19-14 4-2 2-2 7-2 5 3 12 10 19 7 7 2 16 8 23 9q44 12 88 14 28 1 55-4a270 270 0 0 0 134-63l12-13c18-17 25-31 34-53 9-23 7-27 8-52"/><path fill="url(#a)" d="M359 534c58 24 108 27 170 21v3q3 3 9 2c-19 5-40 3-60 4h-18q-22-1-43-6l-25-6c-3 3-2 3-5 4-10-5-6-1-14 1-9-2-4-1-11 2l-7-4c3-5 4-6 4-12l-1-1v-1l-5-4z"/><path fill="#ea5b53" d="M359 543c4-2 27 7 33 9-3 3-2 3-5 4-10-5-6-1-14 1-9-2-4-1-11 2l-7-4c3-5 4-6 4-12"/><path fill="#21100b" d="M617 531q3 1 5-2l4 2-16 8c7 8 12 13 15 23l3 6c-6 0-20-10-26-14l-2-2c-6-1-7 0-8-6l-8 3-6 2q2-3 6-5v-1l-3-2z"/><path fill="#d77475" d="M592 546c3-1 11-5 14-4 2 4 1 3 4 5h1l3-1c4 6 7 14 11 16l3 6c-6 0-20-10-26-14l-2-2c-6-1-7 0-8-6"/><path fill="url(#b)" d="m581 543 3 2v1q-4 2-6 5l-40 9q-6 1-9-2v-3c14-2 39-7 52-12"/><path fill="#bd231d" d="M657 502q5 1 7 3c-7 7-29 22-38 26l-4-2q-2 3-5 2l10-6 9-8z"/><path fill="#691610" d="m734 364 3 9-13 14c0 22 0 17-4 38l-1-8-2-3 3-33h1l3-3 1 1h1z"/><path fill="#a21d13" d="m719 417 1 8c-1 12-13 31-20 42l-1-9 15-33z"/><path fill="#de655e" d="M627 525c-8-12 24-23 31-29l2-4v-1l4 2 4-3c-3 5-10 8-11 12l-21 15z"/><path fill="#5a1d1b" d="m709 337 5 4c5 10 11 26 10 37l-3 3h-1q-4-20-12-41z"/><path fill="#691610" d="M321 519q7 5 13 2l25 13-6 3q-17-6-32-18"/><path fill="#bd231d" d="m507 531 4 4c-7 2-49 1-58 1l-1-1q28 1 55-4"/><path fill="#030101" d="M538 80c17 7 48 13 67 20q12 3 23 8c24-32 67-33 89 1-4-3-20-15-24-15l13 15c3 3 5 3 2 8 6 7 6 8 6 17 4 3 4 2 5 6l-2 4-1 8-6 10-4 5q1 5 6 7c-10 9-30 19-43 17-26-3-47-22-49-49l-3-9q-32-6-61-15l-9-2c-2 2-4 13-5 16q-11 41-24 78c3 4 28 6 34 8 30 7 66 17 91 37q12-8 27-11c23-3 49 1 64 20-10-8-17-11-28-17l-12 2c-14 0-34 1-47 7l13 13q6 5 6 12l-25-21q-30-21-64-29l-24-7-50-7a275 275 0 0 0-179 45l-8-4v-1l2-1-1-1c-7-6-29-8-38-7l-12 3h-17c19-11 53-11 71 3 14-7 29-17 43-22q34-12 69-19c6-2 47 1 48-2l40-113c4-12 6-13 17-18"/><path fill="#fb584a" d="m624 132 3-8c11-29 37-40 66-30l13 15c3 3 5 3 2 8 6 7 6 8 6 17 4 3 4 2 5 6l-2 4-1 8-6 10-4 5q1 5 6 7c-10 9-30 19-43 17-26-3-47-22-49-49 1-7 1-4 4-10"/><path fill="#bd231d" d="M620 142c1-7 1-4 4-10q3 16 10 29c6 5 5 8 8 11l1-2 5-1c6 2 26 11 32 8 1 4 0 3 3 5 12-6 14-5 23-15q2 5 6 7c-10 9-30 19-43 17-26-3-47-22-49-49"/><path fill="#de655e" d="m643 170 5-1c6 2 26 11 32 8 1 4 0 3 3 5-3 4-16 3-21 3q-9-5-16-12l-4-1z"/><path fill="#e9b7b3" d="m624 132 3-8c11-29 37-40 66-30l13 15 2 7h-1l-3-2-6-9c-7-3-9-5-17-6-2 5-2 4-8 6q-14-4-26 6l-1 1h-4l-11 10c0 14-1 23 6 35l-3 4q-7-13-10-29"/><path fill="#a21d13" d="M642 112c15-14 20-13 39-13-2 5-2 4-8 6q-14-4-26 6l-1 1z"/><path fill="#f88574" d="M647 153c10 0 26-2 34 2l3 5-3 4 3 9-4 4c-6 3-26-6-32-8l-5 1-1 2c-3-3-2-6-8-11l3-4c6 1 5 1 10-4"/><path fill="#d13f3b" d="M643 170v-5c3-3 32-1 38-1l3 9-4 4c-6 3-26-6-32-8z"/><path fill="#bd231d" d="M714 134c4 3 4 2 5 6l-2 4-1 8-6 10-4 5c-9 10-11 9-23 15-3-2-2-1-3-5l4-4-3-9 3-4q14-3 19-17v-2l3-4z"/><path fill="#e44f49" d="M714 134c4 3 4 2 5 6l-2 4-1 8-6 10c-5-4-4-2-6-7l3-2-4-10v-2l3-4z"/><path fill="#e9b7b3" d="M707 153c4-3 4-6 10-9l-1 8-6 10c-5-4-4-2-6-7z"/><path fill="#e6817c" d="M704 155c2 5 1 3 6 7l-4 5c-9 10-11 9-23 15-3-2-2-1-3-5l4-4c8-3 19-8 20-18"/><path fill="#f2c2b5" d="M647 111q12-10 26-6c3 4 3 3 4 7l-3 4c-15 10-12 5-25 7z"/><path fill="#ea5b53" d="M706 109c3 3 5 3 2 8 6 7 6 8 6 17l-8 3-3 4-4-3q-2-14 5-24l3 2h1z"/><path fill="#fb584a" d="M708 117c6 7 6 8 6 17l-8 3q-4-12 2-20"/><path fill="#bd231d" d="M649 123c13-2 10 3 25-7l3 3c-1 6-23 10-28 6zm-137 20c4-11 15-50 22-55h10l25 8 56 14-7 18c-12-2-67-16-76-22q-6 31-17 61l-5 12c-1 6-5 31-7 33l-17-1-6 1-2-2 10-28z"/><path fill="#e9a298" d="m569 96 56 14-7 18c-12-2-67-16-76-22q-6 31-17 61l-5 12c0-6 0-4-5-9 5-15 17-54 25-66 4-6 65 17 75 16l1-2c-4-4-43-13-51-15q1-4 4-7"/><path fill="#eac5c0" d="m496 211-6 1-2-2 10-28 14-39 5 7-19 56z"/><path fill="#f8f6f8" d="M512 143c4-11 15-50 22-55h10q2 6-3 8-3 0-5 2c-9 15-11 37-19 52z"/><path fill="#e9b7b3" d="M515 170c5 5 5 3 5 9-1 6-5 31-7 33l-17-1 2-5c5 0 9-7 10-11z"/><path fill="#e9a298" d="M508 195h4c3 5-2 12 1 17l-17-1 2-5c5 0 9-7 10-11"/><path fill="#f2c2b5" d="m544 88 25 8q-3 3-4 7-12-2-24-7 4-2 3-8"/><path fill="#fb584a" d="M279 248c9-1 31 1 38 7l1 1-2 1v1l-19 17c-2 3-2 2-2 6l1 2c-12 8-32 38-39 52l-7 7q0-4-4-4-5 5-6 12-1 9-5 17 1 6 5 9l1 2v2c-5 0-11-8-15-11q-11-14-15-29l-1-4c-9-33 10-70 40-85h17z"/><path fill="#f88574" d="m267 251 12-3 16 4v1c-4 6-33 1-40 11l1 2-3 2-15 9c-9 6-14 19-17 29-2 6 2 11-1 15l-3-1v-1l-5-1c-4 3-1 12-2 18-9-33 10-70 40-85z"/><path fill="#a21d13" d="M250 251h17c-28 11-56 34-50 68l-5-1c-4 3-1 12-2 18-9-33 10-70 40-85"/><path fill="#bd231d" d="m217 320 3 1c3-4-1-9 1-15l2 29 1-4 5 9q6 4 11 10-1 8-5 17 1 6 5 9l1 2v2c-5 0-11-8-15-11q-10-14-15-29l-1-4c1-6-2-15 2-18z"/><path fill="#e44f49" d="m223 335 1-4 5 9q6 4 11 10-1 8-5 17l-4-3c4-6-6-20-8-29"/><path fill="#e6817c" d="m217 320 3 1c3-4-1-9 1-15l2 29c2 9 12 23 8 29-8-6-10-20-12-29z"/><path fill="#e9b7b3" d="M256 266q9-3 13 4c0 11-20 21-28 26q-1-5-4-9-2-6 1-10l15-9z"/><path fill="#eac5c0" d="m253 268 1 2-17 17q-2-6 1-10z"/><path fill="#f88574" d="M297 275c-2-12 7-22 19-18v1z"/><path fill="#eac5c0" d="M460 217c17-2 27-2 43 0l50 7c1 5 2 4 1 8l-2 1c-81-14-164-6-233 44-40 28-66 69-64 119v13c0 6 4 19 4 23-9-11-5-19-11-29l-1-10-7-10c-1-2-8-4-14-14 4 3 10 11 15 11v-2l-1-2q-4-3-5-9 4-9 5-17t6-12q4 0 4 4l7-7c7-14 27-44 39-52l-1-2c0-4 0-3 2-6l19-17 8 4c38-29 90-40 136-45"/><path fill="#21100b" d="m250 342 7-7c-5 22-10 35-10 58l-7-10c-1-2-8-4-14-14 4 3 10 11 15 11v-2l-1-2q-4-3-5-9 4-8 5-17 2-7 6-12 3 0 4 4"/><path fill="#f88574" d="M240 350q2-7 6-12 4 0 4 4-7 17-10 34-4-3-5-9 4-8 5-17"/><path fill="#46241e" d="m316 258 8 4-28 21-1-2c0-4 0-3 2-6z"/><path fill="#f8f6f8" d="M460 217c17-2 27-2 43 0l1 3c-10-1-9-2-17 3-5 0-4-4-8-5-6-1-13 2-19-1"/><path fill="url(#c)" d="m694 249 12-2c11 6 18 9 28 17 28 26 31 79 5 107l-2 2-3-9-8 15h-1l-1-1c1-11-5-27-10-37l5-1c15-11 14-40 13-57q5 2 9-1c-10-13-31-29-47-33"/><path fill="#bd231d" d="m694 249 12-2c11 6 18 9 28 17 28 26 31 79 5 107l-2 2-3-9 6-7 7-19c8-16 3-16 2-31v-1c-3-9-1-12-8-20v-4c-10-13-31-29-47-33"/><path fill="#e6817c" d="m714 341 5-1v1c5 7 6 19 9 22q5-3 6-10l6 4-6 7-8 15h-1l-1-1c1-11-5-27-10-37"/><path fill="#d77475" d="m743 305 6 1v1c1 15 6 15-2 31q-3 0-4-4c3-8 2-21 0-29"/><path fill="#f88574" d="M743 334q1 4 4 4l-7 19-6-4q2-10 9-19"/><path fill="#de655e" d="M741 286c7 8 5 11 8 20l-6-1c-3-3-6-11-6-15q1-3 4-4"/><path fill="#bd231d" d="M258 443c20 28 31 35 53 59l3-3 3 4q13 3 24 9c-7 3-14-4-19-7-5 0-3 0-7 2 4 2 17 11 19 14q-6 3-13-2-9-4-16-12-13-8-24-21-4-7-10-13c-4-10-11-14-13-30"/><path fill="#e9a298" d="M577 231q34 9 64 29l25 21 6 5v1c-6 2-18-9-23-12l-25-16q-21-11-43-19c1-7 1-5-4-9"/><path fill="#e6817c" d="M647 256c13-6 33-7 47-7 16 4 37 20 47 33q-4 3-9 1a61 61 0 0 0-59-26c-3 0-9 1-10 4l-2 7-1 1z"/><path fill="#e9a298" d="M255 396c4 23 4 32 14 53 8 17 43 39 45 50l-3 3c-22-24-33-31-53-59-6-9-9-29-10-40 6 10 2 18 11 29 0-4-4-17-4-23z"/><path fill="#e9b7b3" d="m553 224 24 7c5 4 5 2 4 9l-29-7 2-1c1-4 0-3-1-8"/><path fill="#bd231d" d="M681 301c13 8 17 17 23 31l-2 2c-1-4-4-13-6-15-4 7 4 22-1 31-1-25 0-28-14-49"/><path fill="#de655e" d="m628 478-1-3q4-9 14-7z"/><path fill="#5a1d1b" d="M348 349c11-21 26-35 51-33q9-1 17 3 16 7 24 22l4 9q5 13 1 26-3 8-8 14-20 31-54 23c-16-7-23-14-32-27l-2-1q-8-18-1-36m47 1c5 20 17 18 29 4q2-6 0-13l-13-10c-11 5-14 7-16 19m-16 32q-4-2-9-1c-5 6 1 10 5 12q4-2 6-5c0-4 0-2-2-6"/><path fill="#e6817c" d="M348 349c11-21 26-35 51-33q9-1 17 3-6 0-11 2-40-5-52 34-3-2-5-6"/><path fill="#f2c2b5" d="m432 389 5 1q-19 31-54 23l-3-4 6-1q28 3 46-19"/><path fill="#bd231d" d="M389 346h4l2 4c5 20 17 18 29 4h3l2 1v2c-12 24-39 16-40-11"/><path fill="#e28a68" d="m440 341 4 9q5 13 1 26-3 8-8 14l-5-1 5-10c3-10 3-16 1-26l-2-7z"/><path fill="#e9a298" d="m437 379 5-5 3 2q-3 8-8 14l-5-1zm-83-3c6 19 15 24 32 32l-6 1 3 4c-16-7-23-14-32-27-1-6-1-6 3-10"/><path fill="#f88574" d="m351 386-2-1q-8-18-1-36 2 4 5 6c-1 8-1 12 1 21-4 4-4 4-3 10"/><path fill="#e6817c" d="M416 319q16 7 24 22l-4 5-5-9q-7-8-15-12l-11-4q6-3 11-2"/><path fill="#a21d13" d="m404 328 8 2v1h-1c-11 5-14 7-16 19l-2-4h-4c-4-7 8-17 15-18"/><path fill="#691610" d="M416 325q8 4 15 12l-7 4-13-10h1v-1l-8-2c7 0 8 1 12-3"/><path fill="#a21d13" d="m379 382-3-8 1-1c13 4 13 17 4 23h-5l-1-3q4-2 6-5c0-4 0-2-2-6"/><path fill="#5a1d1b" d="M564 339q10-11 21-18 23-9 45-1l7 4q32 26 13 65l-2 1q-8 13-20 19c-26 14-51 1-64-23-9-8-3-37 0-47m45 21q7 6 15 4l6-1q5-8 7-16c-1-6-3-7-7-12l-10-4c-13 11-15 12-11 29m-31 26q2 5 8 6h1l4-2v-8l-3-3z"/><path fill="#e6817c" d="M564 339q10-11 21-18 23-9 45-1l7 4c-1 4 0 3-3 6l-5-3-5-3c-39-14-69 20-57 58l-3 4c-9-8-3-37 0-47"/><path fill="#f88574" d="M624 324q2-3 6-4l7 4c-1 4 0 3-3 6l-5-3z"/><path fill="#eac5c0" d="m564 386 3-4 5 9q12 15 29 16c13 6 35-7 43-18l4 1q-8 13-20 19c-26 14-51 1-64-23"/><path fill="#de655e" d="M637 324q32 27 13 65l-2 1-4-1q13-21 3-43l-13-16c3-3 2-2 3-6"/><path fill="#46241e" d="M577 386q2 5 8 6h1l-2 2c1 6 15 4 17 8l-3 3 4 2h-2q-17-1-29-16l4-3z"/><path fill="#691610" d="m629 327 5 3 13 16-4 1-1 3-4-5-1 2c-1-6-3-7-7-12-1-3-2-3-1-8"/><path fill="#bd231d" d="M609 360q7 6 15 4l6-1 7-1q-10 14-24 7l4-3q-5-1-9-4z"/><path fill="#691610" d="m577 386-3-1v-4c5-5 7-6 14-8q3 0 4 3l-4 3z"/><path fill="#a21d13" d="m637 347 1-2 4 5q1 8-5 12l-7 1q5-8 7-16"/><path fill="#bd231d" d="m588 379 4-3q10 5 6 14l-2 2c-3 0-1 0-4-2q2-4 0-7l-1-1z"/><path fill="#691610" d="M617 392q5-1 9 1v2l-2 2q-4 3-8 2-1-3 1-7"/><path fill="#e9a298" d="M345 295q-4-11 4-19c13-15 36-24 56-27 6 0 16 1 20 5 9 8-7 21-12 26l1 4c-11 12-53 23-68 13z"/><path fill="#d13f3b" d="m413 280 1 4c-11 12-53 23-68 13l-1-2c21 9 51-1 68-15"/><path fill="#ebb89b" d="M452 244q4 0 7 2c4 7-8 12-13 15q-4-2-7-8c0-9 6-8 13-9"/><path fill="#f88574" d="m578 551 6-2c2 9-4 3 3 11q-7 5-9 12 2 3 5 3c1 18 9 29 21 42q-2 3-6 5v1c-5 8-12 5-21 8l2 3 5-1v3c9 0 12 0 22 4q9 2 16 7l10 6 11 12 2 3c2 5 2 6 1 12l3 8q3 2 8 1l1 3v-1l-2-13 3 3q1-4 4-6c2 6-4 11 2 18 4 18 3 41-2 59l-12 29q1 2 3 2l9-2 9-1q15-1 29-6l2 5 2 1 19-9c-3 9-7 24-12 32l-4-1v1l8 5c-5 2-8-2-11-1l20 19 5 4 6-2q10 11 15 23c2 10-1 53-1 51 11 3 43 8 42 24-13 24-149 35-179 35q-19 0-38 3-74 2-149-3c-55-3-116-6-168-27-5-2-13-8-9-15 7-10 24-10 33-15q5-2 11-2l-1-17c-8-11-3-40 1-51 4-7 37-45 46-49-3 7-6 7-8 14l10-5 4 3h2q2 3 1 7l5 5 4-3 2 6c-12 15-34 34-39 49v33h34l1-1-2-5-8-30c-3-18 5-25 14-38 6-4 3-4 9-4 6-1 12 5 16 9l3 5 1 1v7l-5 8q-4 15-3 33 0 6 3 10l3 1q14-5 29-2v-2q-7-16-9-33c-2-5-1-13-5-16l-2-8-6-5 1-6-6-4-5-3-2 3c-14-12-19-18-29-33l-6-8q3 5 1 10l-4 1 1-3q-10-18-17-36a164 164 0 0 1-8-45c-4-7-3-37-1-45 3-12 1-18 5-33-6-4-6 2-13 3q-3 2-5 6l-2-1c0-4 3-12 5-16l-1-8-7 6q-2-9-9-17l-11-9q3 0 6-3h2l5-2 32-10h1q5-1 4-6l-3-2 17-6 1 2-5 12c4 1 4 1 8-2l7-14 7 4c7-3 2-4 11-2 8-2 4-6 14-1 3-1 2-1 5-4l25 6q22 5 43 6h18c20-1 41 1 60-4zM444 887c19-7 114-3 138-1 8 0 17 3 21-6 0-6-9-18-13-24-10 5-12 4-23 4l-11 1c-12 5-56 3-72 3l-35-8c-4 0-7-3-9 0v4c0 7 1 21 4 27m277-8-1-15c-4-8-18-20-24-26-5-4-6-5-12-7l-2 1c-1 7 10 16 12 24q2 1 2 3 2 14-1 26l-2 9 2 1c10-3 21 2 25-1zm-78-35c-8 8-16 1-10 13 3 6 4 7 3 14v15l13 2h10c2-2 2-14 2-17l-6-10q-5-9-12-17"/><path fill="#a21d13" d="m649 838 8 10v10q-2 1-2 3-5-9-12-17h-9q6-1 7-4z"/><path fill="#21100b" d="M623 842q4 3 11 2h9c-8 8-16 1-10 13q-4-2-7-1l-1-1-3-4-4-6z"/><path fill="#f8f6f8" d="m705 780 19-9c-3 9-7 24-12 32l-4-1v1l8 5c-5 2-8-2-11-1l20 19 5 4 6-2q10 11 15 23c2 10-1 53-1 51 11 3 43 8 42 24-13 24-149 35-179 35q-19 0-38 3-74 2-149-3c-55-3-116-6-168-27-5-2-13-8-9-15 7-10 24-10 33-15q5-2 11-2l-1-17c-8-11-3-40 1-51 4-7 37-45 46-49-3 7-6 7-8 14l10-5 4 3h2q2 3 1 7l5 5 4-3 2 6c-12 15-34 34-39 49v33h34l1-1-2-5-8-30c-3-18 5-25 14-38 6-4 3-4 9-4 6-1 12 5 16 9l3 5 1 1v7l-5 8q-4 15-3 33 0 6 3 10l3 1q14-5 29-2c3 10 6 22 16 27l3-3v-2c3-5 3-29 3-35 4-4-2-7 3-15 0 7 1 21 4 27 19-7 114-3 138-1l20 3q0 8 5 12l1-20c5-2 19-9 23-9l5-1v15l13 2h10c2-2 2-14 2-17l-6-10q0-2 2-3v-10l-8-10-8 2-7-12c-6-9-1-20 4-27l-4-1 12-12h21c15-2 24-3 38-8m-10 115c10-3 21 2 25-1l1-15-1-15c-4-8-18-20-24-26-5-4-6-5-12-7l-2 1c-1 7 10 16 12 24q3 1 2 3 2 14-1 26l-2 9z"/><path fill="#e9a298" d="m705 780 19-9c-3 9-7 24-12 32l-4-1v1l8 5c-5 2-8-2-11-1l20 19-4 2-3-1v1q1 5-4 8h-2l-4 2-17-13-1-1 1 8c-4-2-4-3-8-3-22-5-17-41-45-28l-4-1 12-12h21c15-2 24-3 38-8"/><path fill="#ea5b53" d="M684 800c9-7 13 2 21 7l20 19-4 2-3-1v1q1 5-4 8h-2l-4 2-17-13-1-1-9-17v-3z"/><path fill="#de655e" d="m684 800 7 5c2 4 8 14 8 17l-5 1-3 2-1-1-9-17v-3z"/><path fill="#5a1d1b" d="M673 803c3-6 4-6 10-10l-2 11v3l9 17 1 8c-4-2-4-3-8-3l-9-17z"/><path fill="#46241e" d="m696 790 12 12v1l8 5c-5 2-8-2-11-1-8-5-12-14-21-7l-3 4q-1-6 2-11z"/><path fill="#e6817c" d="M368 816c6-1 12 5 16 9l3 5 1 1v7l-5 8q-4 15-3 33l-5 6v1c-1 8 3 23-2 27-4-2-10-16-11-21l-9-4-8-30c-3-18 5-25 14-38 6-4 3-4 9-4m0 0c6-1 12 5 16 9l3 5 1 1v7l-5 8q-6 3-7 8l-7-1-9-2q-3-4-8-6l1-6 1-1c8-7 5-15 14-21z"/><path fill="#691610" d="m387 830 1 1v7l-5 8q-6 2-7 8l-7-1-9-2q-3-4-8-6l1-6c24 6 19 11 34-9"/><path fill="#e44f49" d="M368 816c6-1 12 5 16 9-6 6-8 17-20 14-5-6 9-14 10-19q-2-4-6-3z"/><path fill="#a21d13" d="M359 820c6-4 3-4 9-4v1c-9 6-6 14-14 21l-1 1-1 6c-3 6 7 40 10 47l-9-4-8-30c-3-18 5-25 14-38"/><path fill="#5a1d1b" d="M376 854q1-6 7-8-4 15-3 33l-5 6c1-11-7-16 1-31"/><path fill="#e44f49" d="m360 851 9 2-3 2c-4 5 8 26 1 32h-1c-5-9-6-26-6-36"/><path fill="#e9a298" d="m690 824 1 1 17 13 4-2h2q5-3 4-8v-1l3 1 4-2 5 4 6-2q10 11 15 23c-1 12 1 41-4 48l-4 2c-2 7-3 16-8 19l-2-1-2-8-1-4-2-11-1-2q-7-6-6-15l-1-15c-4-8-18-20-24-26q-2-4-5-6z"/><path fill="#f88574" d="m690 824 1 1 17 13 4-2h2q5-3 4-8v-1l3 1 4-2 5 4 10 12 3 6-5 8-9-3-4 3-2 2c-3 3-2 2-3 6-4-8-18-20-24-26q-2-5-5-6z"/><path fill="#bd231d" d="m690 824 1 1 17 13 4-2h2q8 5 12 10v2c-8-1-8-7-15-8 0 5 10 15 14 16l-2 2c-3 3-2 2-3 6-4-8-18-20-24-26q-2-5-5-6z"/><path fill="#691610" d="m740 842 3 6-5 8-9-3 7-7z"/><path fill="#fb584a" d="m729 853 9 3-6 5c3 2 2 1 7 1-1 13 2 42-8 49l-1-4-2-11-1-2q-7-6-6-15l-1-15c1-4 0-3 3-6l2-2z"/><path fill="#a21d13" d="M720 864c15 5 7 19 9 31l-1 1-1-2q-7-6-6-15z"/><path fill="#5a1d1b" d="m729 853 9 3-6 5q-5 2-9-3l2-2z"/><path fill="#a21d13" d="m730 830 6-2q10 11 15 23c-1 12 1 41-4 48l-4 2c2-13 5-41 0-53l-3-6z"/><path fill="#030101" d="M293 834c4-7 37-45 46-49-3 7-6 7-8 14l10-5 4 3h2q2 3 1 7l5 5 4-3 2 6c-12 15-34 34-39 49-1 6-3 20-6 23 0-9-1-7-6-14v-9q-3-3-7-3l3-9-7-7q0-5-4-8"/><path fill="#d13f3b" d="m353 809 4-3 2 6c-12 15-34 34-39 49-1 6-3 20-6 23 0-9-1-7-6-14v-9q-3-3-7-3l3-9 11 7 2-1q4-4 0-9c6-1 18-14 19-20l6-8zm-8-12h2q2 3 1 7l5 5-11 9-6 8-6-1q-1 4-4 7l-1-1-2-4h-5l-2-1 13-13z"/><path fill="#ea5b53" d="m348 804 5 5-11 9-4-4c7-3 3-6 10-10"/><path fill="#e6817c" d="m338 814 4 4-6 8-6-1-2-3z"/><path fill="#de655e" d="m330 825 6 1c-1 6-13 19-19 20-8-1-10-2-15-9 5 0 9-7 14-11l2 1h5l2 4 1 1z"/><path fill="#eac5c0" d="m341 794 4 3-16 16-13 13c-5 4-9 11-14 11l-1-1c-1-7 24-25 30-37z"/><path fill="#5a1d1b" d="M638 801c28-13 23 23 45 28 4 0 4 1 8 3q3 2 5 6c-5-4-6-5-12-7l-2 1c-1 7 10 16 12 24-2 6 5 9-1 12l-3-3-3 2c-7 0-12 8-19 6-2-3-2-2-2-6q-3-6-3-14l-6-5-8-10-8 2-7-12c-6-9-1-20 4-27"/><path fill="#de655e" d="M637 821q-3-11 9-18l4 15q0 11-4 15l3 5-8 2-7-12z"/><path fill="#46241e" d="m637 821 9 12 3 5-8 2-7-12z"/><path fill="#ea5b53" d="M650 818c7 3 9 12 15 17l4 5-1 2c-4 5-3 7-5 11l-6-5-8-10-3-5q4-4 4-15"/><path fill="#e9a298" d="M646 803q4-1 6 3c8 11 12 19 22 29v1l-5 5v-1l-4-5c-6-5-8-14-15-17z"/><path fill="#de655e" d="m668 842 6 5c1 5 1 15 4 18l-12 2q-3-6-3-14c2-4 1-6 5-11"/><path fill="#f88574" d="m674 847 5-4c4 9 9 11 7 17l-8 5c-3-3-3-13-4-18m0-11q4 3 5 7l-5 4-6-5 1-2v1z"/><path fill="#e9a298" d="m657 848 6 5q0 8 3 14c0 4 0 3 2 6 7 2 12-6 19-6l3-2 3 3c6-3-1-6 1-12q3 1 2 3 2 14-1 26l-2 9 2 1c-4 4-11 26-16 35-4 6-7 12-15 10-16-8 0-45-2-52h-3c2-2 2-14 2-17l-6-10q0-2 2-3z"/><path fill="#46241e" d="M661 871c14 17 6 25 4 44v11q0 5 2 7 4-1 6-6 1 3 6 3c-4 6-7 12-15 10-16-8 0-45-2-52h-3c2-2 2-14 2-17"/><path fill="#21100b" d="M694 856q3 1 2 3 2 14-1 26l-2 9 2 1c-4 4-11 26-16 35q-4 0-6-3 10-22 16-48l4-11c6-3-1-6 1-12"/><path fill="#a21d13" d="m657 848 6 5q0 8 3 14c0 4 0 3 2 6 7 2 12-6 19-6l-15 11c5 2 5 1 7 5q1 4-2 7l-4 3c-3 10-2 22-8 33v-11c2-19 10-27-4-44l-6-10q0-2 2-3z"/><path fill="#46241e" d="m631 872 5-1v15l13 2h-15c-3 14-13 55-29 59l-2-1 1-12 2-13 1-20 1-20c5-2 19-9 23-9"/><path fill="#e9a298" d="m607 901 1-20c5-2 19-9 23-9-1 10-6 26-10 35-10-4-12 7-15 14z"/><path fill="#e9b7b3" d="M606 921c3-7 5-18 15-14-2 8-7 25-13 30h-2q-2-1-2-3zm-313-87q4 3 4 8l7 7-3 9q4 0 7 3v9c5 7 6 5 6 14-3 10 0 19-4 26l-4 6c-3-2-5-11-7-15-5-4-4-9-7-15v-1c-8-11-3-40 1-51"/><path fill="#fb584a" d="M301 858q4 0 7 3v9c5 7 6 5 6 14-3 10 0 19-4 26-7-14-9-37-9-52"/><path fill="#691610" d="M293 834q4 3 4 8c-4 14 0 45 2 59-5-4-4-9-7-15v-1c-8-11-3-40 1-51"/><path fill="#3a1613" d="M751 851c2 10-1 53-1 51-3 7-6 32-18 28-7-8-8-23-9-34l-28-1c10-3 21 2 25-1l1-15q-1 9 6 15l1 2 2 11 1 4 2 8 2 1c5-3 6-12 8-19l4-2c5-7 3-36 4-48"/><path fill="#5a1d1b" d="m730 907 1 4 2 8-3 1q-3 0-3-4-1-4 3-9"/><path fill="#030101" d="M314 884c3-3 5-17 6-23v33h33l-7 1-29 1c-1 8 0 29-11 28q-10-8-11-21l-13 1q5-2 11-2l-1-17v1c3 6 2 11 7 15 2 4 4 13 7 15l4-6c4-7 1-16 4-26"/><path fill="#3a1613" d="m375 885 5-6q0 6 3 10l3 1-4 2-1 2v1c4 6 0 22-4 27-10 3-18-20-23-26l-8-1 7-1h1l1-1-2-5 9 4c1 5 7 19 11 21 5-4 1-19 2-27zm227 4q0 8 5 12l-1 20-2 13-1 12c-14-8-4-45-1-57m-165-14c4-4-2-7 3-15 0 7 1 21 4 27 0 9 1 34-13 28l3-3v-2c3-5 3-29 3-35"/><path fill="#c4c2cb" d="M489 893c20-1 77-3 94 2h-76l-33-1zm-215 37c2-1 14 2 16 3l33 6 26 4c-8 1-70-9-75-13m155 19 18 2q-9 1-18-2"/><path fill="#9da5ab" d="M389 917q3 4 2 9-3-4-2-9"/><path fill="#fb584a" d="m604 645 15 4 3-2 10 6 11 12 2 3c2 5 2 6 1 12l3 8q3 2 8 1l1 3v-1l-2-13 3 3q1-5 4-6c2 6-4 11 2 18 4 18 3 41-2 59l-12 29q1 2 3 2l9-2 9-1q15-1 29-6l2 5 2 1c-14 5-23 6-38 8h-21l-12 12 4 1c-5 7-10 18-4 27l7 12q-1 3-7 4-7 1-11-2l-5 3 4 6 3 4 1 1q3-1 7 1c3 6 4 7 3 14l-5 1c-4 0-18 7-23 9l-1 20q-5-4-5-12l-20-3c8 0 17 3 21-6 0-6-9-18-13-24-10 5-12 4-23 4l-11 1 7-5q-7 0-12-4l-25 5-1-2-4-2 3-7 1-5c-20-3-55-11-62-32l3-1 2 2q1-7 4-13l16-9 4-2c10-10 16-5 26-15l5 2 4-5 19-11 2-11-4-5c3-12 1-12 0-24l-2-23c8-6 2-8 4-16 2-12 1-17 11-25 6 6 6 3 13 2l6-2q13-4 26 0 3-3 2-8"/><path fill="#d13f3b" d="m658 692-2-13 3 3q1-4 4-6c2 6-4 11 2 18 4 18 3 41-2 59l-12 29q1 2 3 2l9-2 9-1q15-1 29-6l2 5 2 1c-14 5-23 6-38 8h-21l-12 12 4 1c-5 7-10 18-4 27l7 12q-1 4-7 4-7 1-11-2l-5 3 4 6 3 4 1 1q3-1 7 1c3 6 4 7 3 14l-5 1c-4 0-18 7-23 9l-1 20q-5-4-5-12l-20-3c8 0 17 3 21-6 0-6-9-18-13-24-10 5-12 4-23 4l-11 1 7-5q-7 0-12-4l-25 5-1-2-4-2 3-7 1-5c-20-3-55-11-62-32l3-1 2 2 1 2 13-5 4 2c29 22 66 7 94-8q51-30 61-87c2-10 2-25 5-34l3 8q3 2 8 1z"/><path fill="#5a1d1b" d="M603 824q5 4 6 10l9 11 4 6 3 4 1 1q3-1 7 1c3 6 4 7 3 14l-5 1c-4 0-18 7-23 9l-1 20q-5-4-5-12l-20-3c8 0 17 3 21-6 0-6-9-18-13-24-10 5-12 4-23 4l-11 1 7-5q-7 0-12-4l-25 5-1-2-4-2 3-7 1-5h22l11-1 21-5 2 1 5 2q-1-6 4-8z"/><path fill="#ea5b53" d="M603 824q5 4 6 10l9 11 4 6 3 4q-11 4-9 15-9 1-15-2c-11-8-2-22-15-30q-1-5 4-8z"/><path fill="#de655e" d="m622 851-5 1c-5-1-11-9-11-14l3-4 9 11z"/><path fill="#e9a298" d="m547 841 11-1 7 5-2 3-12 4-25 5-1-2-4-2 3-7 1-5z"/><path fill="#5a1d1b" d="m579 835 2 1c0 7 1 3 4 10-5 1-16 8-22 10q-8 0-12-4l12-4 2-3-7-5z"/><path fill="#c69597" d="M579 835c2 9-9 12-16 13l2-3-7-5z"/><path fill="#de655e" d="M563 856c6-2 17-9 22-10q3 3 1 7c-3 5-13 5-19 7l-11 1z"/><path fill="#e9a298" d="M616 870q-1-11 9-15l1 1c2 4 2 3 1 7q-4 6-11 7"/><path fill="#3a1613" d="m658 692-2-13 3 3q1-4 4-6c2 6-4 11 2 18 4 18 3 41-2 59l-12 29q1 2 3 2l9-2 9-1q15-1 29-6l2 5 2 1c-14 5-23 6-38 8h-21l-12 12 4 1c-5 7-10 18-4 27l7 12q-1 4-7 4-7 1-11-2l-5 3-9-11q-1-6-6-10l-1-6q35-19 50-56l5-12 1-7c4-18 4-29 1-47z"/><path fill="#e9a298" d="m634 800 4 1c-5 7-10 18-4 27l7 12q-1 4-7 4-7 1-11-2l-10-16q14-11 21-26"/><path fill="#2c0706" d="m654 783 9-2 3 2v2c-2 2-12 3-15 1q-1-3 3-3m-191 26 3-1 2 2 1 2q9 10 22 14 31 14 64 8l-8 7h-22c-20-3-55-11-62-32"/><path fill="#ea5b53" d="M502 823c16 9 35 1 51 7h-3q5 2 9 1l1 2-5 1q-33 6-64-8 3-6 11-3"/><path fill="url(#d)" d="M560 833c13 0 31-10 42-15l1 6-13 6q-5 3-4 8l-5-2-2-1-21 5-11 1 8-7z"/><path fill="#e44f49" d="m482 807 4 2q-5-1-7 1c1 3 7 7 10 9 7-1 8-1 13 4q-8-3-11 3-13-4-22-14z"/><path fill="#ea5b53" d="M659 696c3 18 3 29-1 47-2-4-2-31-5-40 3-4 3 0 6-7"/><path fill="#e44f49" d="M649 688q3 2 8 1l1 3 1 4c-3 7-3 3-6 7 0-4-3-12-4-15"/><path fill="#e9a298" d="M576 653q13-4 26 0l9 12c-11 9-18 12-32 11q-22-3-9-21z"/><path fill="#f88574" d="M542 694c8-6 2-8 4-16l1 15 2 15c2 14 4 23-1 38l-4-5c3-12 1-12 0-24z"/><path fill="#e9a298" d="M542 694c8-6 2-8 4-16l1 15c0 7 3 20-3 24z"/><path fill="#e6817c" d="m518 771 5 2c-4 10-23 17-31 13 10-10 16-5 26-15"/><path fill="#de655e" d="m622 647 10 6 11 12c-5 3-5 6-9 6q-3-4-3-10l-12-12zM488 788l1 3c-3 3-6 2-9 6 6 2 2-2 8-1l-11 8v2l5 1-13 5-1-2q0-7 4-13z"/><path fill="#fb584a" d="m578 551 6-2c2 9-4 3 3 11q-7 5-9 12 2 3 5 3c1 18 9 29 21 42q-2 3-6 5v1c-5 8-12 5-21 8l-20 4q-8 5-15 13l-7 2-11 4-4 2c-4-7-7 0-16 1q-5 2-8 6l-5-8c-4-9-33-33-44-37q-28-9-57 2c-26 11-35 32-46 57-7 18-3 35-1 54l-4 2v-5l-3-11-2 6h-2v2h1l-1 1-1-3-2-1-3-11c-5-5-1-7-7-11-4-7-3-37-1-45 3-12 1-18 5-33-6-4-6 2-13 3q-3 2-5 6l-2-1c0-4 3-12 5-16l-1-8-7 6q-1-9-9-17l-11-9q3 0 6-3h2l5-2 32-10h1q5-1 4-6l-3-2 17-6 1 2-5 12c4 1 4 1 8-2l7-14 7 4c7-3 2-4 11-2 8-2 4-6 14-1 3-1 2-1 5-4l25 6q22 5 43 6h18c20-1 41 1 60-4z"/><path fill="url(#e)" d="m578 551 6-2c2 9-4 3 3 11q-7 5-9 12h-1l-2-1q-4 1-7 5c-6-1-27 8-35 9-47 10-98 10-143-10l1-3c-1-3-14-12-18-15 8-2 4-6 14-1 3-1 2-1 5-4l25 6q22 5 43 6h18c20-1 41 1 60-4z"/><path fill="#de655e" d="m417 558 43 6c-10 7-32 3-43-1z"/><path fill="#e9b7b3" d="m355 555 7 4-4 8c-4 7-9 21-12 29a267 267 0 0 0-10 121l-2 6h-2v2h1l-1 1-1-3-2-1-3-11c-5-5-1-7-7-11-4-7-3-37-1-45 3-12 1-18 5-33-6-4-6 2-13 3q-3 2-5 6l-2-1c0-4 3-12 5-16l-1-8-7 6q-1-9-9-17l-11-9q3 0 6-3h2l5-2 32-10h1q5-1 4-6l-3-2 17-6 1 2-5 12c4 1 4 1 8-2z"/><path fill="#e44f49" d="m293 581 32-10c-1 9-4 31 2 38-2 5-13 11-17 16q-3 2-5 6l-2-1c0-4 3-12 5-16l-1-8-7 6q-1-9-9-17l-11-9q3 0 6-3h2z"/><path fill="#5a1d1b" d="M286 583h2c7 4 16 16 19 23l-7 6q-1-9-9-17l-11-9q3 0 6-3"/><path fill="#e9a298" d="m288 583 5-2q0 2 2 2c7 3 13 14 17 20q4 8-2 13l-2-2-1-8c-3-7-12-19-19-23"/><path fill="#de655e" d="m344 557 1 2-5 12c-5 8-11 26-12 36l-1 2c-6-7-3-29-2-38h1q5-1 4-6l-3-2z"/><path fill="url(#f)" d="M318 655c8-6 2-7 9-14-3 20-4 50-1 70-5-5-1-7-7-11-4-7-3-37-1-45"/><path fill="#21100b" d="m328 607 3-1 2 4-2 9q-3 10-4 22c-7 7-1 8-9 14 3-12 1-18 5-33-6-4-6 2-13 3 4-5 15-11 17-16z"/><path fill="#46241e" d="M340 571c4 1 4 1 8-2l-15 41-2-4-3 1c1-10 7-28 12-36"/><path fill="#e44f49" d="M363 566c-2 11-10 29-14 40q-15 45-15 91c1 7 7 26 5 31l-3-11v-1a267 267 0 0 1 22-149z"/><path fill="#5a1d1b" d="M577 572h1q2 3 5 3c1 18 9 29 21 42q-2 3-6 5l-12-16-8-16q-2-8-1-18"/><path fill="#bd231d" d="M362 559c7-3 2-4 11-2 4 3 17 12 18 15l-1 3c-6-3-22-15-26-14l-1 5-5 1z"/><path fill="#f88574" d="m532 645 3-1q4 0 7 4l-7 2-11 4-4 2c-4-7-7 0-16 1 13-8 14-8 28-12"/><path fill="#e6817c" d="m532 645 3-1q4 0 7 4l-7 2-11 4c3-5 5-4 8-9"/><path fill="#f88574" d="M568 576q3-4 7-5l2 1q-1 10 1 18l-5 1c-5-6-5-7-5-15"/><path fill="#de655e" d="m535 644 16-14c4 1 3 2 6 5q-8 5-15 13-3-4-7-4m38-53 5-1 8 16-3 2c-10-3-3-10-10-17"/><path fill="#3a1613" d="m557 635 20-4 2 3 5-1v3c9 0 12 0 22 4q9 2 16 7l-3 2-15-4q0 5-2 8-13-4-26 0l-6 2c-7 1-7 4-13-2-10 8-9 13-11 25-2 8 4 10-4 16l2 23c1 12 3 12 0 24l4 5-2 11-19 11-4 5-5-2c-10 10-16 5-26 15l-4 2-16 9q-3 6-4 13l-2-2-3 1q-1-3 1-9c6-11 22-14 29-25l14-4c5 0 7-12 10-13 8-5 26-10 21-25-10-12-23 7-29 12l-14-2-8 9-5-4-6 4q-4-4-4-11l2-7 4-14c3-11 6-13 12-23q10-11 21-19c7-5 21-11 25-16l1-7 2-3v-1l-4-1 7-2q7-8 15-13"/><path fill="#ea5b53" d="M536 662a183 183 0 0 0 1 51q-5 0-5 5-12 2-22 8l-10 1-2-2-5 2-15-7c3-11 6-13 12-23q10-11 21-19c7-5 21-11 25-16"/><path fill="#d13f3b" d="M498 725c9 0 19-17 31-13 3 3 2 2 3 6q-12 2-22 8l-10 1z"/><path fill="#eac5c0" d="M584 636c9 0 12 0 22 4q9 2 16 7l-3 2-15-4q0 5-2 8-13-4-26 0c-2-5-1-5-5-8l2-1h-9c2-4 3-3 6-7z"/><path fill="#de655e" d="M573 644q16-1 31 1 0 5-2 8-13-4-26 0c-2-5-1-5-5-8z"/><path fill="#e9b7b3" d="M542 694c-5-26-1-51 28-57-3 4-4 3-6 7h9l-2 1c4 3 3 3 5 8l-6 2c-7 1-7 4-13-2-10 8-9 13-11 25-2 8 4 10-4 16"/><path fill="#d13f3b" d="M557 653q5-5 14-8c4 3 3 3 5 8l-6 2c-7 1-7 4-13-2"/><path fill="#de655e" d="m478 720 15 7 5-2 2 2v15c-8-3-11-1-18 6l-6 4q-4-4-4-11l2-7z"/><path fill="#ea5b53" d="m493 727 5-2 2 2v10l-2 1q-6 0-9-7z"/><path fill="#d77475" d="m472 741 2-7 5 2 1 3q-2 3-8 2"/><path fill="#e28a68" d="M532 718q0-5 5-5l3 13c-10 0-14 0-24 4l-6-4q10-6 22-8"/><path fill="#f88574" d="m500 727 10-1 6 4c-6 6-8 11-16 12zm39 25c3 4 2 3 7 5l-19 11q2-5 0-10zm-21 19c3-9 1-8 9-13q2 5 0 10l-4 5z"/><path fill="#e6817c" d="m544 741 4 5-2 11c-5-2-4-1-7-5z"/><path fill="#5a1d1b" d="m399 829 19 9c30 15 74 26 108 19l25-5q5 4 12 4l-7 5c-12 5-56 3-72 3l-35-8c-4 0-7-3-9 0v4c-5 8 1 11-3 15 0 6 0 30-3 35v2l-3 3c-10-5-13-17-16-27v-2q-7-16-9-33c-2-5-1-13-5-16z"/><path fill="#ea5b53" d="M434 910c-7-9-32-57-21-65 5 0 18 7 23 9l1 21c0 6 0 30-3 35"/><path fill="#e9b7b3" d="m535 650 4 1v1l-2 3-1 7c-4 5-18 11-25 16q-11 8-21 19c-6 10-9 12-12 23l-4 14-2 7q1 7 4 11l-8 4v2l-3 2-4-8 1-20 6-20c2-4 6-15 9-18q9-16 24-27l-5-4q3-4 8-6c9-1 12-8 16-1l4-2z"/><path fill="#46241e" d="m535 650 4 1v1l-2 3c-24 10-29 14-46 32l-12 13 4-10v-1l-6 5q9-16 24-27l-5-4q3-4 8-6c9-1 12-8 16-1l4-2z"/><path fill="#e6817c" d="M504 657c9-1 12-8 16-1l-19 11-5-4q3-4 8-6"/><path fill="#21100b" d="m477 694 6-5v1l-4 10-7 19-4-7c2-4 6-15 9-18"/><path fill="#030101" d="m468 712 4 7-4 17-2 3-1 1-3-8z"/><path fill="#21100b" d="m461 752 1-20 3 8 1-1 2-3v22l-3 2z"/><path fill="#e6817c" d="m394 818 12 7c11 3 28 12 33 12 20 12 58 6 67 14-8 6-25-2-31-1l-1 1h7l1 2-3 2h46l1 2c-34 7-78-4-108-19l-19-9-6-5z"/><path fill="#f2c2b5" d="M319 700c6 4 2 6 7 11l3 11 2 1 1 3 1-1h-1v-2h2l2-6 3 11v5l5 15c3 6 6 16 10 22-3 7 4 12 8 19-5-3-4-6-10-8l-6-8q3 5 1 10l-4 1 1-3q-10-18-17-36a164 164 0 0 1-8-45"/><path fill="#030101" d="M319 700c6 4 2 6 7 11l3 11q3 23 14 44l3 7q3 5 1 10l-4 1 1-3q-10-18-17-36a164 164 0 0 1-8-45"/><path fill="#ea5b53" d="m404 817 32 6c4 1 27 2 30 4 7 5 22 12 30 16-6 3-17-5-20-9-8-8-10 0-16 0-15 1-31-7-46-9h-1c14 4 15 8 26 12-5 0-22-9-33-12-2-5-2-3-2-8"/><path fill="#e9a298" d="M489 667q-3-8 2-12l5 8 5 4q-15 11-24 27c-3 3-7 14-9 18l-6 20-1 20-1 2c-7-9 10-56 17-65l13-17-1-1c-4 2-17 22-20 27v-1c2-8 14-21 20-30M354 770l22 30 7 11-2 3c-14-12-19-18-29-33 6 2 5 5 10 8-4-7-11-12-8-19"/><path fill="#5a1d1b" d="m482 748 5 4q-8 14-22 8l3-2v-2l8-4z"/><path fill="#ea5b53" d="m388 814 1-2 15 5c0 5 0 3 2 8l-12-7z"/><path fill="#de655e" d="m339 733 4-2c1 4 3 13 1 17z"/><path fill="#fb584a" d="M257 632c10 4 27 12 26 25h1l2 14c0 17 0 25-4 41l2 3h2l1 1v1l4 5 3-3c5 8-1 6 2 12 4-4 4-4 8-4v12l4-1c-1 35-24 84-62 87l-6-3c-3-7 0-19 4-26l-9-17c3-6 7-15 4-21q-2-7-6-10c-15 6-10 22-10 33 0 2-5 8-6 10-4 11 7 14 1 25-3 6-2 23-2 31l-10 10c-17-1-23-5-35-16v-1q-6-3-4-10l-9-9q3-3 2-7l-9-11c-6-13-8-16-11-30h-7c-5-17-5-27-5-44v-1c0-7-3-6-3-16l2-11 3-8 4-12 5-10c5-3 6-4 11-5l4-5q13-15 30-25h1l8-1 2 1 1 4 14-6c7-2 20-1 28-1 9-1 12 3 19-1"/><path fill="#e44f49" d="m184 636 8-1 2 1 1 4-20 11c2 2 10-1 13-1l9-8c-5 9-14 11-14 14 5 1 8-1 11 5v1l4 8c-3 19-6 23-20 37l3 3c-8 4-14 13-18 14l-1 15q-4 2-9 1c-9 2-12-6-15-1v20l-2-1 3 15h-7c-5-17-5-27-5-44v-1c0-7-3-6-3-16l2-11 3-8 4-12 5-10c5-3 6-4 11-5l4-5q13-15 30-25"/><path fill="#eac5c0" d="m184 636 8-1 2 1 1 4-20 11c-21 15-41 59-39 84l2 1v23l-2-1 3 15h-7c-5-17-5-27-5-44v-1c0-7-3-6-3-16l2-11 3-8 4-12 5-10c5-3 6-4 11-5l4-5q13-15 30-25"/><path fill="#21100b" d="m134 681 5 6-4 15-1 3-7-4 3-8z"/><path fill="#2c0706" d="M130 693c4 4 2 3 5 9l-1 3-7-4z"/><path fill="#21100b" d="m125 712 2-11 7 4-6 24v-1c0-7-3-6-3-16"/><path fill="#030101" d="M139 671c5-3 6-4 11-5l-11 21-5-6z"/><path fill="#a21d13" d="m137 735 2 1v23l-2-1z"/><path fill="#e9a298" d="m182 660 13 1v1l4 8c-3 19-6 23-20 37-6 4-22 8-22-4 0-19 14-30 25-43"/><path fill="#e9b7b3" d="M154 740c-7-6-4-19 10-16l-1 15q-5 2-9 1"/><path fill="#d13f3b" d="M271 720c5-2 3-5 8-9l3 1 2 3h2l1 1v1l4 5 3-3c5 8-1 6 2 12 4-4 4-4 8-4v12l4-1c-1 35-24 84-62 87l-2-5 7-1c1-4-1-9 4-13l3-8c1-10 0-9 5-17-5-3-4-1-10-1l-3-2-7-2 5-5c-2-4-3-14-4-18l-4-8 1-2 11-3 1-2-5-4 27-10z"/><path fill="#a21d13" d="M296 731c4-4 4-4 8-5v13l4-1c-1 35-24 84-62 87l-2-5 7-1c1-4-1-9 4-13l1 2 2-1 7-9q10-5 16-15 4-7 10-12l6-20v-13l-1-1z"/><path fill="#de655e" d="M265 798q10-5 16-15 4-7 10-12l2 5q-5 6-7 14c-10 7-19 18-30 25l-5 4c1-4-1-9 4-13l1 2 2-1z"/><path fill="#d77475" d="M296 731c4-4 4-4 8-5v13l-3 8h-1l-2 2v-4l-1 6v-13l-1-1z"/><path fill="#e6817c" d="m297 751 1-6v4l2-2h1q0 16-8 29l-2-5z"/><path fill="#ea5b53" d="M271 720c5-2 3-5 8-9l3 1 2 3h2l1 1v1l4 5 3-3c5 8-1 6 2 12v6c-11-6-19-8-27 3-6 1-16 2-19 7q0 5 3 9l-3 1c-4 5 0 9-2 14-2-4-3-14-4-18l-4-8 1-2 11-3 1-2-5-4 27-10z"/><path fill="#3a1613" d="M271 720c5-2 3-5 8-9l3 1 2 3h2l1 1v1l4 5c-8 6-29 16-39 18l1-2-5-4 27-10z"/><path fill="#ea5b53" d="M271 720c5-2 3-5 8-9l3 1 2 3h2l1 1v1l-12 7zm-18 36 3-1q2-5 9-6 5 5 4 13-1 10-6 19c-5-3-4-1-10-1l-3-2-7-2 5-5c2-5-2-9 2-14z"/><path fill="#f88574" d="M248 771c2-5-2-9 2-14l3-1q6 12-3 22l-7-2z"/><path fill="#bd231d" d="M269 762c3-10-2-12-1-17q3-1 5 2c5 6 4 9 3 17 0 17-8 19-11 34l-7 9-2 1-1-2 3-8c1-10 0-9 5-17q5-9 6-19"/><path fill="#a21d13" d="m276 764-4-3q-2-7 1-14c5 6 4 9 3 17"/><path fill="#2c0706" d="M209 794c3-15 15-7 14-18l-6 1c-1-7-4-19 2-24h4l3-6c4-6 15-10 22-13l5 4-1 2-11 3-1 2 4 8c1 4 2 14 4 18l-5 5 7 2 3 2c6 0 5-2 10 1-5 8-4 7-5 17l-3 8c-5 4-3 9-4 13l-7 1 2 5-6-3c-3-7 0-19 4-26l-9-17c3-6 7-15 4-21q-2-6-6-10c-15 6-10 22-10 33 0 2-5 8-6 10-4 11 7 14 1 25-3 6-2 23-2 31l-10 10c-17-1-23-5-35-16v-1q-6-3-4-10c8 4 24 23 32 22l3-3c24-2 3-20 9-35l1-1 3-2z"/><path fill="#e9a298" d="m243 776 7 2 3 2c6 0 5-2 10 1-5 8-4 7-5 17l-3 8c-5 4-3 9-4 13l-7 1c-1-16 11-21 1-36l-1-7z"/><path fill="#f88574" d="M208 778q0-41 39-50c8-2 16-10 24-8l4 4-27 10c-7 3-18 7-22 13l-3 6h-4c-6 5-3 17-2 24l6-1c1 11-11 3-14 18-5-5-4-6-11-7z"/><path fill="#e9a298" d="m203 816 2-8h2l4 3 1 2-1 1c-6 15 15 33-9 35l-3 3c-8 1-24-18-32-22l-9-9 2-7c5 6 34 34 42 26 2-8-2-15 1-24"/><path fill="#bd231d" d="M279 711c5-11 0-47 4-54h1l2 14c0 17 0 25-4 41z"/><path fill="#d13f3b" d="M210 634c7-2 20-1 28-1-11 4-26 2-40 9l-9 8c-3 0-11 3-13 1l20-11z"/><path fill="#f88574" d="M198 787c7 1 6 2 11 7l6 17-3 2-1-2-4-3h-2l-2 8c0-14-1-16-5-29"/><path fill="#d13f3b" d="M195 662q6 1 8 8c-3 13-5 25-15 34l-6 6-3-3c14-14 17-18 20-37z"/><path fill="#3a1613" d="M802 551q11-9 26-11l9 3c21 6 31 12 33 35 29 8 29 14 39 40l-5 11-2 3c-15 26-39 33-68 43-8 3-20 2-22 11-1 5-4 13-7 16q1-5-4-6l-14 23-6 9-7-1 1-3q0-5-3-12c4-3 3-2 5-7l-7-14-13-16-6-5-16-9-8-4-5-3c7-5 11-10 20-12l2-2q0-7-3-13l-5-24c-2-24 5-54 35-55q10-2 19 4h1q6 1 11-1"/><path fill="#fb584a" d="M802 551q11-9 26-11l9 3-1 6 12 4c4 2 16 13 18 17 2 5-7 18-10 23l-5 8q-6 11-15 21l-3 2q-8-1-15 3v6c-7 9-12 3-17 5l-1 4c-9-4-11-5-20-7v-1q-2 0-3-2c-2-9 10-45 13-53 5-9 7-14 14-21l3-4z"/><path fill="#e9b7b3" d="m804 558 2 1 5-2c-1 5-3-1-4 7a160 160 0 0 0-23 66q-1 4-4 4-2 0-3-2c-2-9 10-45 13-53 5-9 7-14 14-21"/><path fill="#f8f6f8" d="M802 551q11-9 26-11l9 3-1 6 12 4q0 3-2 3c-16-1-26-3-38 7l-1 1c1-8 3-2 4-7l-5 2-2-1 3-4z"/><path fill="url(#g)" d="M802 551q11-9 26-11l9 3-1 6c-9-2-12-2-21 2l-8 3z"/><path fill="#ea5b53" d="M848 553c4 2 16 13 18 17 2 5-7 18-10 23l-5 8-4-13-1-2 3-4q2-7 8-9c-5-2-8-12-11-17q2 0 2-3"/><path fill="#d13f3b" d="M849 582q2-7 8-9-1 8-8 9"/><path fill="#e44f49" d="M817 624c13-5 25-34 30-36l4 13q-6 11-15 21l-3 2q-8-1-15 3zm-22-37c1 4-5 38-9 43h-2c0-11 7-33 11-43"/><path fill="#d13f3b" d="M801 638q-2 2-3-1v-1c4-4 13-9 19-12l1 3v6c-7 9-12 3-17 5"/><path fill="#f88574" d="M837 543c21 6 31 12 33 35 29 8 29 14 39 40l-5 11-2 3c-15 26-39 33-68 43-8 3-20 2-22 11-1 5-4 13-7 16q1-4-4-6l10-20c3-12-1-18 3-25l26-24 8-9 10-11 6-12v-1c-5 1-4 1-8-1 3-5 12-18 10-23-2-4-14-15-18-17l-12-4z"/><path fill="#ea5b53" d="M864 595c0 5-1 4 2 8h2c5-3 4-9 8-9q9 4 14 12c4 2 8 11 6 15h-4l-1-2-3 3h-1c4 7-3 16-9 17q-5 1-6 3l-9-1h-4c-7-2-16 1-18-3q3-3 3-6t-4-5l8-9 10-11z"/><path fill="#fb584a" d="M864 595c0 5-1 4 2 8h2c5-3 4-9 8-9q9 4 14 12h-1c-7 5-6 10-17 14h-1q-1-7-4-13h-9z"/><path fill="#bd231d" d="M887 622c4 7-3 16-9 17q-5 1-6 3l-9-1 15-7c5-5-1-6 9-12"/><path fill="#a21d13" d="M811 676q3 3 6 1c8-11 25-11 38-17 5-8 8-2 16-6 3-1 8-9 10-10q8-2 15-6l-1-1q-1-5 2-8c5 0 0 1 5 3-15 26-39 33-68 43-8 3-20 2-22 11-1 5-4 13-7 16q1-4-4-6z"/><path fill="#d13f3b" d="M840 627q4 2 4 5t-3 6c2 4 11 1 18 3-3 2-11 9-10 13l1 2-14 4q-6 3-14 4c-6-2-5-6-8-13z"/><path fill="#e6817c" d="M831 639q8 5 17 7l-11 5-6 2-1 1h-1c-3-4-1-12 2-15"/><path fill="#2c0706" d="M837 543c21 6 31 12 33 35 29 8 29 14 39 40l-5 11v-13c-7-10-20-35-34-32-2 1-5 7-6 10-5 1-4 1-8-1 3-5 12-18 10-23-2-4-14-15-18-17l-12-4z"/><path fill="#e44f49" d="M859 641h4l9 1c-12 15-8 7-22 14l-1-2c-1-4 7-11 10-13"/><path fill="#ea5b53" d="m742 642 2-2q0-7-3-13l-5-24c-2-24 5-54 35-55q10-2 19 4h1q6 1 11-1l5 3-3 4c-7 7-9 12-14 21l-6-3q-13 27-15 58l-8 2q-6 2-13 0 0 6-6 6"/><path fill="#030101" d="m742 642 2-2q0-7-3-13l-5-24c-2-24 5-54 35-55q10-2 19 4c-7 3-11 1-17 3-26 2-31 19-30 42l5 39q0 6-6 6"/><path fill="#e9b7b3" d="M743 597c-1-23 4-40 30-42l14 2v1l-8 2c-19 3-23 7-29 25l-2 13q-3 4-2 10c-2-5 0-7-3-11"/><path fill="#e44f49" d="M750 585c6-18 10-22 29-25-3 5-3 11-8 12-2 0-8 2-8 4l-4 18h-1c-5-7 5-18 3-25-4 2-9 13-8 17l-2 1z"/><path fill="#e9a298" d="M743 597c3 4 1 6 3 11q0-6 2-10c0 6 2 26 6 30 3 2 4 2 7 8q-7 2-13 0z"/><path fill="#030101" d="M791 552q6 1 11-1l5 3-3 4c-7 7-9 12-14 21l-6-3c4-8 11-13 11-20z"/><path fill="#ea5b53" d="M783 640c10 2 13 4 18 13l1 4-1 1h-2c-6 13-6 15-15 25l-11 3q0 3 2 4l-5 1-13-16-6-5-16-9 8-6c8-5 25-8 34-11q6 1 6-4"/><path fill="#f88574" d="M783 640c10 2 13 4 18 13-6 9-10-1-14-5l-10-4q6 1 6-4"/><path fill="#de655e" d="M802 657c3 2 4 9 4 13-7 20-13 30-26 48l-3-13-7-14 5-1q-2-1-2-4l11-3c9-10 9-12 15-25z"/><path fill="#d13f3b" d="M784 683c9-10 9-12 15-25h2c-2 10-10 31-18 37l-8-5q-2-1-2-4z"/><path fill="#eac5c0" d="M744 647c15-7 22-8 39-7q0 5-6 4c-9 3-26 6-34 11z"/><path fill="#d77475" d="m818 633 4 4-13 14-9-9 1-4c5-2 10 4 17-5"/><path fill="#c69597" d="m727 657 17-10-1 8-8 6z"/><path fill="#ea5b53" d="M818 627q7-4 15-3l-11 13-4-4z"/><path fill="#2c0706" d="M688 662c5-7 27-5 34-8l5 3 8 4 16 9 6 5 13 16 7 14c-2 5-1 4-5 7q3 7 3 12l-1 3 7 1v17q4-1 7-6l4 4q-19 27-43 50-11 11-25 17-3 2-2 4c2 4 11 13 14 14l-6 2-5-4-20-19c3-1 6 3 11 1l-8-5v-1l4 1c5-8 9-23 12-32l-19 9-2-1-2-5q-14 5-29 6l-9 1-9 2q-2 0-3-2l12-29c5-18 6-41 2-59l2-20q-1-7 4-10h-2l-1-2 2-3c10 3 11 7 18 4"/><path fill="#e44f49" d="M671 663q17 7 27 21 10 9 15 21c9 16 9 41 11 59-10 4-13 7-23 10l-29 6-9 1-9 2q-2 0-3-2l12-29c5-18 6-41 2-59l2-20q-1-6 4-10"/><path fill="#e9a298" d="M671 663q17 7 27 21l2 5-1 1-6-4c-6-2-12-12-26-13q-1-6 4-10"/><path fill="#f88574" d="M698 684q10 9 15 21l-4 2c-4-1-12-16-16-21l6 4 1-1z"/><path fill="#ea5b53" d="M688 662c5-7 27-5 34-8l5 3 8 4 16 9 6 5 13 16 7 14c-2 5-1 4-5 7q3 7 3 12l-1 3-7 5-22 20c-5-9-13-11-13-22q0-4-3-5l-3 4-4-17-10-21 3-3-3-9-7-7-4 4c-5-4-11-6-10-12q0-2-3-2"/><path fill="#030101" d="M688 662c5-7 27-5 34-8l5 3 8 4 16 9q-2 3-6 4l-10-6-9-3c-7 5-8 2-12 3l-9 4-4 4c-5-4-11-6-10-12q0-2-3-2"/><path fill="#eac5c0" d="M691 664q18-2 35 1c-7 5-8 2-12 3l-9 4-4 4c-5-4-11-6-10-12"/><path fill="#e9a298" d="m735 668 10 6q4-1 6-4l6 5q2 5 1 8l-2 1v3l-2 1-24-15q4-1 5-5"/><path fill="#21100b" d="m751 670 6 5q2 5 1 8l-2 1-11-10q4-1 6-4"/><path fill="#2c0706" d="m757 675 13 16 7 14c-2 5-1 4-5 7q-6-15-16-27v-1l2-1q1-3-1-8"/><path fill="#e44f49" d="M732 730q4 6 10 11c5-1 10-6 13-7 5-2 3 4 10-2h2l-22 20c-5-9-13-11-13-22"/><path fill="#de655e" d="M712 679c7 5 19 28 10 33l-10-21 3-3z"/><path fill="#c69597" d="m726 665 9 3q-1 4-5 5l-16-5c4-1 5 2 12-3"/><path fill="#f88574" d="m774 727 7 1v17q4-1 7-6l4 4q-19 27-43 50l-9-2 4-4v-4l-8 2-3 2c-4 3-2 5-8 0l2-15q1-6 6-7l7-3-3-6 8-4 22-20z"/><path fill="#a21d13" d="M781 745q4-1 7-6l4 4q-19 27-43 50l-9-2 4-4c6-3 22-23 26-31l3 2q5-5 8-12z"/><path fill="#5a1d1b" d="m774 727 7 1v18q-3 8-8 12l-3-2c2-4 6-14 5-18l-2-1q-5 2-9 8c-7 4-18 14-24 17l-3-6 8-4 22-20z"/><path fill="#e9a298" d="M764 745q4-5 9-8l2 1c1 4-3 14-5 18-4 8-20 28-26 31v-4l-8 2c6-5 21-18 24-23 5-7 4-9 4-17"/><path fill="#f88574" d="M764 745c0 8 1 10-4 17h-7l-14 8q-7-2-12 2 1-6 6-7l7-3c6-3 17-13 24-17"/><path fill="#e6817c" d="M733 765c9 0 10-5 20-3l-14 8q-7-2-12 2 1-6 6-7"/><path fill="#e9b7b3" d="M727 772q5-4 12-2-6 6-7 14l1 3c-4 3-2 5-8 0z"/><path fill="#de655e" d="m726 729 3-4q3 1 3 5c0 11 8 13 13 22l-8 4q-5 4-9 4z"/><path fill="#e9a298" d="m736 785 8-2v4l-4 4-9 7c-5-3-5 0-7-8l1-3c6 5 4 3 8 0z"/><path fill="#e28a68" d="m701 676 4-4 7 7 3 9-3 3z"/><path fill="#c69597" d="M724 790c2 8 2 5 7 8q-4 5-9 6l-2-1q1-7 4-13"/><path fill="#e9a298" d="m584 549 8-3c1 6 2 5 8 6l2 2c6 4 20 14 26 14l2 4c27 26 37 48 38 86l-6 3c-1 4-1 11-3 13q-3-2-4-6l-4-5q-7-10-18-18l-1 8-10-6q-7-5-16-7l3-4 5-1-5-2-3-1q-5-1-5-3l1-2-4-4v-1q4-2 6-5c-12-13-20-24-21-42q-3 0-5-3 2-8 9-12c-7-8-1-2-3-11"/><path fill="#e6817c" d="m584 549 8-3c1 6 2 5 8 6l2 2c6 4 20 14 26 14l2 4-4 3v1l-6 5 7 5-3 6 4 5q4 3 4 8l-1 2c-13 1-17 1-27 10-12-13-20-24-21-42q-3 0-5-3 2-7 9-12c-7-8-1-2-3-11"/><path fill="#ea5b53" d="M605 606c-15-14-18-23-8-40l9 6 13 5 1 4 7 5-3 6 4 5c-4 3-18 7-23 9"/><path fill="#e44f49" d="m606 572 13 5 1 4 7 5-3 6q-7-5-10-13-7-3-8-7"/><path fill="#3a1613" d="m584 549 8-3c1 6 2 5 8 6l2 2c6 4 20 14 26 14l2 4-4 3c-14-6-36-25-43 0q-3 0-5-3 2-7 9-12c-7-8-1-2-3-11"/><path fill="#de655e" d="m584 549 8-3c1 6 2 5 8 6l2 2q-9 1-15 6c-7-8-1-2-3-11"/><path fill="#a21d13" d="m626 575 4-3c27 26 37 48 38 86l-6 3c-4-15 2-31-13-43l2-2v-6l-12-4-8 1 1-2q0-5-4-8l-4-5 3-6-7-5 6-5z"/><path fill="#e6817c" d="M626 576c5 5 25 29 25 34l-12-4-8 1 1-2q0-5-4-8l-4-5 3-6-7-5z"/><path fill="#d13f3b" d="M627 586c8 8 8 10 12 20l-8 1 1-2q0-5-4-8l-4-5z"/><path fill="#f88574" d="M611 628c6-11 18-8 29-8v10l2 10-2 2-1-1c-4 3-2 3-6 4l-1 8-10-6q-7-5-16-7l3-4 5-1-5-2q2-2 2-5"/><path fill="#ea5b53" d="M611 628c6-11 18-8 29-8v10l2 10-2 2-1-1h-2q-7-4-9-12-7-2-15 1zm17 1 6-4 2-1 4 6 2 10-2 2-1-1h-2q-7-4-9-12"/><path fill="#5a1d1b" d="m614 635 19 10-1 8-10-6q-7-5-16-7l3-4z"/><path fill="#ea5b53" d="m640 620 10 5c7 7 7 34 5 43l-4-5q-8-10-18-18c4-1 2-1 6-4l1 1 2-2-2-10z"/><path fill="#d77475" d="m639 641 1 1c5 5 17 11 11 21q-7-10-18-18c4-1 2-1 6-4"/><path fill="#e44f49" d="m640 620 10 5-4 18h-2l-2-3-2-10z"/><path fill="#5a1d1b" d="m639 606 12 4v6l-2 2c-21-6-30-8-47 9l-4-4v-1q4-2 6-5c10-9 14-9 27-10z"/><path fill="#ea5b53" d="m273 584 7 2 11 9q8 8 9 17l7-6 1 8c-2 4-5 12-5 16l2 1c-1 10-4 14-10 21 20 25 12 54 13 86l-4 1v-12c-4 0-4 0-8 4-3-6 3-4-2-12l-3 3-4-5v-1l-1-1h-2l-2-3c4-16 4-24 4-41l-2-14h-1c1-13-16-21-26-25l-11-4 5-1v-4l-14-4q6-4 9-11l-2-8q14-10 29-16"/><path fill="#5a1d1b" d="m307 606 1 8c-2 4-5 12-5 16l2 1c-1 10-4 14-10 21 20 25 12 54 13 86l-4 1v-12c-4 0-4 0-8 4-3-6 3-4-2-12l-3 3-4-5v-1l-1-1h-2l-2-3c4-16 4-24 4-41l-2-14h-1c1-13-16-21-26-25l-11-4 5-1v-4q19 7 34 19 2 4 6 6l1-2c7-5 8-26 8-34z"/><path fill="#e44f49" d="m286 671 8 3c9 8-6 28-1 36l-6 6-1-1h-2l-2-3c4-16 4-24 4-41"/><path fill="#d77475" d="M294 674q-3-5 1-8 16 23-2 44c-5-8 10-28 1-36"/><path fill="#de655e" d="M294 719c5-9 7-8 9-18h1c2 6 1 19 0 26-4 0-4 0-8 4-3-6 3-4-2-12"/><path fill="#ea5b53" d="M284 657c4-3 3-3 7-3q9 4 4 12-4 3-1 8l-8-3z"/><path fill="#e9a298" d="M244 600q14-10 29-16l2 9c-18 5-15 8-29 15z"/><path fill="#de655e" d="M291 595q8 8 9 17c0 8-1 29-8 34l-2-2c0-7 6-6 2-12l-1-6c2-9 3-7 3-18h1l2 4c2-6-4-11-8-15z"/><path fill="#e28a68" d="m273 584 7 2 11 9-2 2-2 1 2 2c-7 0-7-7-14-7q1-4-2-9"/><path fill="#d13f3b" d="M292 632c-5-4-9-10-4-16l2 1q2 4 1 9z"/><path fill="#030101" d="M139 671q23-36 63-50c6-2 12 0 17-3s9-13 13-17q20-16 44-24c2 0 8-7 11-8 14-6 41-14 56-13l1 1-17 6 3 2q1 5-4 6h-1l-32 10-5 2h-2q-3 3-6 3l-7-2q-15 6-29 16l2 8q-3 7-9 11l14 4v4l-5 1 11 4c-7 4-10 0-19 1-8 0-21-1-28 1l-14 6-1-4-2-1-8 1h-1q-17 10-30 25l-4 5c-5 1-6 2-11 5"/><path fill="#eac5c0" d="M286 583q-5-2-6-5c5-3 41-13 47-15l3 2q1 5-4 6h-1l-32 10-5 2z"/><path fill="#e9a298" d="M205 627c18-5 23-3 41 1l11 4c-7 4-10 0-19 1-8 0-21-1-28 1l2-3q-1-3-7-4"/><path fill="#d77475" d="m244 600 2 8q-3 7-9 11-5 1-9-1c1-6 11-13 16-18"/><path fill="#f2c2b5" d="m184 636 21-9q6 1 7 4l-2 3-14 6-1-4-2-1z"/><path fill="#030101" d="M125 712c0 10 3 9 3 16v1c0 17 0 27 5 44h7c3 14 5 17 11 30l9 11q1 4-2 7l9 9q-2 6 4 10v1c-46-35-50-76-46-129"/><path fill="#f2c2b5" d="M140 773c3 14 5 17 11 30l-2 1h-2q-1-4-6-6l-8-25z"/><path fill="#e9a298" d="M141 798q5 2 6 6h2l2-1 9 11q1 4-2 7-11-10-17-23"/><path fill="#2c0706" d="m346 773 35 41 2-3 5 3 6 4-1 6 6 5 2 8q-4-4-9-4l-4 5v-7l-1-1-3-5c-4-4-10-10-16-9-6 0-3 0-9 4 2-4 8-7 7-12q-5 0-7 4l-2-6-4 3-5-5q1-4-1-7h-2l-4-3-10 5c2-7 5-7 8-14l4-1 4-1q2-5-1-10"/><path fill="#d77475" d="M341 794c0-4-1-3 2-6 8-1 14 11 14 18l-4 3-5-5q1-4-1-7h-2z"/><path fill="#ebb89b" d="m383 811 5 3 6 4-1 6-12-10z"/><path fill="#c69597" d="M812 686c0 14-10 47-20 57l-4-4q-3 4-7 6v-17l6-9 14-23q5 2 4 6c3-3 6-11 7-16"/><path fill="#2c0706" d="M812 686c0 14-10 47-20 57l-4-4 17-37c3-3 6-11 7-16"/><path fill="#5a1d1b" d="M633 645q11 8 18 18l4 5q0 4 4 6c2-2 2-9 3-13l6-3h2l-2 3 1 2h2q-5 3-4 10l-2 20c-6-7 0-12-2-18q-3 2-4 6l-3-3 2 13v1l-1-3q-5 1-8-1l-3-8c1-6 1-7-1-12l-2-3-11-12z"/><path fill="#de655e" d="M645 668c6 8 8 12 12 21q-5 1-8-1l-3-8c1-6 1-7-1-12"/><path fill="#d13f3b" d="M693 94c4 0 20 12 24 15q15 26 2 53v-3q0-5-3-7l1-8 2-4c-1-4-1-3-5-6 0-9 0-10-6-17 3-5 1-5-2-8z"/><path fill="#030101" d="m240 383 7 10 1 10c1 11 4 31 10 40 2 16 9 20 13 30-19-18-31-65-31-90"/><path fill="#46241e" d="m598 623 4 4-1 2q0 2 5 3l3 1 5 2-5 1-3 4c-10-4-13-4-22-4v-3l-5 1-2-3c9-3 16 0 21-8"/><path fill="#030101" d="m358 542 1 1c0 6-1 7-4 12l-7 14c-4 3-4 3-8 2l5-12-1-2-1-1q9-5 15-14"/><path fill="#bd231d" d="M716 152q3 2 3 7v3l-7 12q-4-2-6-7l4-5z"/></g></svg>