<?xml version="1.0" encoding="UTF-8" standalone="no"?>
<!DOCTYPE svg PUBLIC "-//W3C//DTD SVG 1.1//EN" "http://www.w3.org/Graphics/SVG/1.1/DTD/svg11.dtd">
<svg xmlns="http://www.w3.org/2000/svg" version="1.1" viewBox="0 0 256 256" width="256.0pt" height="256.0pt">
<path d="M 0.00 0.00 L 256.00 0.00 L 256.00 256.00 L 0.00 256.00 L 0.00 0.00 Z" fill="#000000" />
<path d="M 97.94 73.03 C 108.62 72.94 119.32 73.06 130.00 72.97 C 131.47 73.04 133.19 72.86 134.57 73.43 C 136.75 74.80 138.58 76.81 140.51 78.51 C 148.21 85.47 156.03 92.29 163.68 99.31 C 165.35 100.64 166.61 102.18 168.94 102.03 C 176.65 102.15 184.38 101.88 192.08 102.12 C 194.39 102.28 195.96 103.55 195.97 105.97 C 196.04 110.64 196.05 115.36 195.96 120.03 C 195.91 122.35 194.28 123.75 191.99 123.70 C 182.34 123.87 172.66 123.68 163.00 123.79 C 161.19 123.66 158.78 124.07 157.39 122.71 C 146.88 113.66 136.70 103.73 126.02 94.97 C 121.14 94.17 115.95 94.81 111.00 94.61 C 106.71 94.90 102.83 93.48 99.40 96.70 C 99.56 98.18 99.02 99.55 100.30 100.60 C 106.44 106.51 113.07 111.93 119.26 117.78 C 121.08 119.23 120.62 121.66 118.98 123.06 C 117.57 123.85 115.58 123.73 114.01 123.78 C 105.04 123.68 96.04 123.89 87.07 123.69 C 85.21 123.70 84.17 122.28 82.80 121.21 C 75.27 114.41 67.61 107.61 60.12 100.79 C 57.52 98.44 59.89 94.73 62.96 94.69 C 71.91 94.44 80.90 94.78 89.86 94.55 C 91.23 94.61 93.21 93.58 93.32 92.11 C 93.80 86.91 93.24 81.62 93.55 76.40 C 93.82 74.01 95.69 73.00 97.94 73.03 Z" fill="#ffffff" />
<path d="M 63.01 131.30 C 72.66 131.13 82.34 131.32 92.00 131.21 C 93.81 131.34 96.22 130.93 97.61 132.29 C 106.83 140.36 115.90 148.75 125.11 156.87 C 126.96 158.37 128.34 160.44 130.95 160.35 C 135.63 160.50 140.32 160.32 145.00 160.40 C 148.99 160.20 152.40 161.32 155.60 158.30 C 155.44 156.82 155.97 155.45 154.70 154.40 C 148.57 148.50 141.96 143.09 135.78 137.26 C 134.20 136.06 134.22 133.84 135.54 132.44 C 136.41 131.22 138.62 131.32 139.96 131.23 C 148.31 131.22 156.66 131.27 165.01 131.22 C 166.95 131.34 169.04 130.91 170.55 132.40 C 178.56 139.40 186.40 146.63 194.37 153.69 C 195.63 154.76 196.42 156.10 195.76 157.78 C 194.91 159.72 193.07 160.46 191.03 160.37 C 182.68 160.45 174.33 160.33 165.98 160.40 C 164.28 160.32 161.97 160.95 161.68 162.89 C 161.20 168.09 161.76 173.38 161.45 178.60 C 161.18 180.99 159.31 182.00 157.06 181.97 C 146.38 182.06 135.68 181.94 125.00 182.03 C 123.53 181.96 121.81 182.14 120.43 181.57 C 118.25 180.20 116.42 178.19 114.49 176.49 C 106.79 169.53 98.97 162.71 91.32 155.69 C 89.65 154.36 88.39 152.82 86.06 152.97 C 78.35 152.85 70.62 153.12 62.92 152.88 C 60.61 152.72 59.04 151.45 59.03 149.03 C 58.96 144.36 58.95 139.64 59.04 134.97 C 59.09 132.66 60.73 131.24 63.01 131.30 Z" fill="#ffffff" />
</svg>