<svg xmlns="http://www.w3.org/2000/svg" fill="none" viewBox="0 0 251 251"><path fill="#120B0B" d="m0 160 1-1c4-5 13 14 12 18 2-5 4-8 7-8-1-2 0-2 1-1l5 2c2-1 3-2 5-1 4-4 19-11 15-1-1 2 0 4 3 6l3 3c6-4 9 3 5 7 4 1 12 7 5 10-7-2-15 4-10 11 3-3 8 1 9 4h2c2-2 3-2 3 1l4 1 19 1c1 8-5 10-13 8 1 6 0 9-6 11-10-5-9-2 3 11 5-4 10-4 13 3 7 0 9 2 6 6H61c-1-1-2-1-1-2l-1-2c-2-1-4-4-4-8-5-6-9-13-12-21l-9 1-5-12c0 1-1 2-3 2 1 1 1 1-1 2 2 0 2 1 0 2l-1 1c-2 4-10 7-8 1l-1-1 7-22c0-2-2-2-5-1l-2 1c1 2-1 3-3 2-2 2-2 1-2-1-1 2-4 3-6 1-2 1-3 2-4 1v-35Z"/><path fill="#231615" d="M65 185c5 1 8 3 10 7 3-2 6-1 8 2 3 0 8 3 8 5 3 0 5 1 5 3 2-3 2-2 2 1 6 0 8 1 6 4v3c-3 1-7 2-6 7l3 2c3 0 7 1 2 3h-1c1 2-5 6-6 3-3 2-5-3-1-4-2-2-4-2-7 1l-2 1c6 0 9 2 3 6 1 1 0 2-2 1l-2 5 5 4c-1 2 1 3 4 5 3-1 4 0 3 3 0 2-2 3-4 4h-1c1-5-3-3-6-4-3-2-4-8-10-5s-1 4-4 4c0-4-15-15-10-19s7 2 8 2l4-3c1-4-2-9 5-8 1 0 3 2 5 1s2-5 4-6c-6-1-12 1-18-2 12-2 8-4-2-8l-1-2c-5-3-9-1-15 4-6-3-4-8 1-11 4-4 6-2 10-2-1-5-4-4-6-8 2-3 6-1 8 1Z"/><path fill="#442F32" d="M230 1c1 2 2 5 1 8 2 4 3 8 3 13 1 4-1 6-6 7l2 10-2 2h-1c-2 0-3-2-3-4-4 4-9 7-14 8l-2-1c-2-5-3-9-3-15-2-1-2-3-1-5v-1l3-6 4-8 3-8h16Z"/><path fill="#4F2826" d="M54 1c1 1 0 3-1 3-1 2-4 4-7 3l-1 3c5 4 2 8-3 11-1 2-3 14 1 15 1 6-2 18-7 23 3 4 2 15-4 16 0 2-1 2-2 0-2 1-8-4-7-7 4-3 5-9 2-15v-2c9-3 8-18 2-24l-1-2c1-8 2-17 6-24h22Z"/><path fill="#22191A" d="M211 179c3 1 3 2 2 4 5 3 21 24 19 29-2 4-8 4-12 4-2 2-4 1-4-2l-1-1c-1 3-3 2-3 0-2 0-2 8-2 9l7 14-1 2c3 3 4 6 4 9 3-2 5 2 2 4h-4c-2-1-3-4-1-5l-2-2-9-20 1-2c-4 0-8 7-9 11h-1v-12c-2-2 0-4 2-3-1-3 0-5 3-4l-1-2c5-7 7-14 7-21v-1c-1-2-1-4 3-4-2-2-2-3-1-4-6-4-1-10 1-3Z"/><path fill="#4A2C25" d="M250 101v6c-4 4-4 10 0 15v36c0 3-1 4-4 2l-8 2c-2 1-4 0-4-4-8 2-9-7-2-9-1-2-3-6-5-4-4 1-6-2-3-3 2-3 5-4 9-5 8-4 8-4 0 0-3 2-7 3-10 3l-1-1v-2l5-2c-2-1-2-2 0-2-3-5 6-7 5-1 13-2 13-9 10-17v-2l-1-2c-1-2 0-5 2-5-1-3 6-7 7-5Z"/><path fill="#2C1716" d="m29 1 1 2c0 6-4 17-6 22 0 4-1 9-3 13 0 6-2 15-6 20-5 1-11-9-8-13 0-3 1-9 3-11-2-1-3-2 0-3l4-14 5-16h10Z"/><path fill="#1F1413" d="M250 5v25c0 2-2 4-4 5 0 3-5 6-7 3l-4-16v-2c0-2 1-4 3-5-1-7 7-12 12-10Z"/><path fill="#542E2A" d="M15 58c2 4 0 11-3 15l1 1C11 88 3 90 0 75V63l2-4 3-10c-1-1-1-4 1-4h1c0 5 5 9 8 13Z"/><path fill="#251312" d="M158 239c3-2 7-1 6 3 3-1 9 4 10 7 3-2 4-1 2 2h-32c-1-5-1-15 6-13 2-3 4-4 5-1 1-1 3 0 3 2Z"/><path fill="#23232B" d="M4 141c3-1 2 3 1 5 4 8 9 17 15 23l-6 12c-2 4 0 12-8 11 0-4 4-3 5-6v-9c0-6-4-16-11-17v-16c1-3 1-4 4-3Z"/><path fill="#1F1111" d="M13 1c2 1 1 2-1 2L5 27 1 39H0V1h13Z"/><path fill="#70473F" d="M14 74c3 1 2 5 0 7l11 7-1 2c0 4-1 6-3 5l-1 2c-3-2-7-3-10-3 2 1 1 2-1 2-3 2-8-3-9-6V75c6 2 1 9 7 9l-2-4 4 2 3-9c2-3 2-2 2 1Z"/><path fill="#5F454D" d="M179 1h1v19c-7 1-13-1-14-9l-2-2-1-8h16Z"/><path fill="#979DAE" d="M195 222h1v13l-1 6c-1 6-3 9-8 10h-2c-1-2-3-7-2-9l-1-1c-2 0-3-1-1-2-2-4-1-6 1-6l3-2c-2-4 3-4 2-1-1 4-3-1 1-1l2-2 3-3c-3-2-2-4 1-2h1Z"/><path fill="#241716" d="M250 58c0 2-3 5-6 4l-5-16v-8c3 0 5-2 7-3l4-2v25Z"/><path fill="#BF998F" d="M0 115c4-2 12 1 13 5 2-3 5 0 4 3-2 2-4-1-4-1s4 0 2 2c2 2 1 3-2 3-1 0-1 0 0 0 3-2 4-1 2 2 2 1 2 2 0 3 1 1 1 2-1 1 1 2-1 3-3 2-3 2-5 2-7 2l-4-2v-20Z"/><path fill="#4A231D" d="M24 214c1 1 1 4-1 4 2 1 2 2 0 3 0 2-2 6-5 5-4 3-7 7-9 12H6c0 2-3 7-6 5v-10l11-14c2-3 4-4 5-4 0 4 5 0 8-1Z"/><path fill="#5A362D" d="M250 167v8c-1 2-6-1-5-2 2 0 3 5 1 7-2 1-2 2 0 2s3 1 3 5l1 3v5c-4 2-8 1-9-1-4 1-5-4-2-5 1-2 0-4-2-3l-2-2c4-4 3-6-1-9v-2c4-4 11-6 16-6Z"/><path fill="#251414" d="M17 1c1 5 0 10-3 16l-4 14v3l-4 9c-2 2-2 2-2-1-2 2-3 0-2-2 0-5 1-9 3-13l7-24 1-2h4Z"/><path fill="#352120" d="M231 1h19v4l-10 5c1 5-1 7-5 10l-3-12-1-7Z"/><path fill="#664540" d="M234 173c4 2 5 2 6 7s-3 0-3 5c4-3 5 2 4 5s-3 1-3 3c5-3 4 1 6 2l4-2c1 0 0 2 2 2v1l-1 1-13 4h-1l-2-1c2-5 4-10 1-15h-1l-1-1-2-7c-2 0-2-1-1-2 0-2 4-4 5-2Z"/><path fill="#381E21" d="M115 236c2-2 2-2 2 1 3 3 4 7 2 11 3 0 3 2 0 3h-5v-3l-2-6c-4-2-5 0-3 8l-1 1h-8l-3-4-3-3c0-3 2-4 4-2 2-3 3-3 5-2 0-2 1-3 3-1 0-2 2-3 5-4l4 1Z"/><path fill="#332425" d="M222 236c3 1 14 10 15 13l-2 2h-13l-2-4c0-3-1-6-4-9-1-4 4-6 6-2Z"/><path fill="#5F3B34" d="m217 246-3 5h-2c-2-1-2-1-1-2-2-2-4-8-3-10 0-3-1-5-4-7-3 1-5 0-4-2-1-3 5-10 7-8 3 7 8 16 10 24Z"/><path fill="#E8C2CA" d="M79 11v2c3 3 1 8-2 11 2 3 1 7 0 11l-3 6c2 3 1 6-2 11 1 12-1 25-6 36 2 4-3 3-1-1l-1-3c0-8 2-19 5-25 0-8 1-16 4-24-2-5-1-9 2-13-2-2-2-7 1-8-2-3 0-11 3-13h1c3 1 2 9-1 10Z"/><path fill="#6A4F52" d="M63 1c3 10-1 20-5 29-4 1-5 0-4-3 0-9 2-18 5-26h4Z"/><path fill="#EFD4BF" d="m33 235 2-1c4 5 6 9 7 15 2 0 2 1 0 2h-5l-2-1c-2-4-7-7-15-7v-1c-4 3-15-4-6-3 3-2 10 0 12 2 2 0 3 0 2-2-3-2-1-5 2-4-2-5 2-4 3 0Z"/><path fill="#DEB6BB" d="M72 1c2 3 1 11-2 14 3 5 0 11-3 15 2 4 1 7-2 11l2 3c-3 12-5 24-9 35-2 2-3 0-1-2-1-12 1-25 6-36 0-10 2-22 6-31-2-2-1-7 1-9h2Z"/><path fill="#8A5C65" d="M89 1c3 2 1 10-2 12-2 4-10 5-8-2l1-10h9Z"/><path fill="#543027" d="m250 166-15 5h-2c-3 1-3-4-1-5 1-1 2-2 3-1 3-3 7-4 11-5l4-2v8Z"/><path fill="#4F3C42" d="M199 1c0 3 0 6-2 10 2 2-1 8-4 8-1 3-6 0-5-3 0-2 0-4 2-7l4-8h5Z"/><path fill="#595A64" d="M212 213h1c0 6 4 10 8 13v2l19 16v3c3 1 3 3 2 4h-2a423 423 0 0 1-17-15c-3-3 0-1 0-2-2 4-12-9-12-11-1-2-1-10 1-10Z"/><path fill="#764433" d="M197 233h1c0-4 2-8 2-3h5c2 1 5 6 3 9l-2-1c-1-2-4-3-6-1l3 6-2 2c3 0 4 3 2 6h-3c-2-2-5-7-3-9-2-1-2-3-1-7 0-4 1-9-1-13 0-3 0-3 2-1v12Z"/><path fill="#BFA6A8" d="M67 1c2 1 2 8-1 8 2 5 1 11-3 15l-3 5-2 4c-2-1-2-2 0-3l5-29h4Z"/><path fill="#A99DAB" d="M133 1c0 14 1 14 1 0h7c3 1 2 10 0 12 0 2-2 3-6 1-2 1-7-1-3-3V1h1Z"/><path fill="#7B90A6" d="M12 194c3 2 0 7-3 7 2 0 2 2 0 4h5c2 0 1 1 0 2 1 1 1 2-1 2-3 2-7 5-8 0-3-1-4-3-5-4v-10l4-1c0 6 1 7 4 0l2-1 2 1Z"/><path fill="#413E48" d="M17 191c2-1 3-2 5-1v2c0 3-4 20-6 23l-9 12-7 6v-9l1-3c8-2 12-6 15-13-2 0-1-1 0-2l1-5c3-5 3-8 0-10Z"/><path fill="#7C565C" d="m79 1-3 13-5 3-1-2 2-14h7Z"/><path fill="#4D566A" d="M0 224v-15c1-3 3-3 4 0-2 11 8 5 11-2l1 1c-3 8-6 13-16 16Z"/><path fill="#5F4143" d="M135 242c2-1 2-4 1-9 0-8 4-3 5 2v3l-1 13h-6c-3-1-3-3 0-3-3-1-2-6 1-6Z"/><path fill="#7A442E" d="M18 226c4 0 3 4-1 4 2 2 0 4-3 4 0 3-1 5-3 4l-1 1c0 3-2 5-4 6l-5 6H0v-3l6-10 8-12c3-3 2-1 4 0Z"/><path fill="#43363A" d="M213 1c0 2 0 5-2 8l-4 8-4 6c-4 2-4-5 0-5-1-1-2-2 0-2l1-2 3-13h6Z"/><path fill="#805149" d="M9 96c4 2 3 14-3 9-1 2-1 1-2-1-2-1-3-3-4-6v-8l9 6Z"/><path fill="#BD9FAA" d="M98 1h1l-1 18 1 7c2 2 1 3-2 2s-4-4-4-8c-2-3-1-7 1-10-1-2-1-8 1-9h3Z"/><path fill="#C0A0AC" d="M92 1c2 1 3 3 0 4v2c1 3 2 9-2 8l-1 15-2 1v2c-1 1-1 1-2-2-2-3-2-8 1-10-3-1-1-7 1-8l2-12h3Z"/><path fill="#82626B" d="M158 1c3 0 3 5 0 6l-1 16c-2 1-3-1-4-3l-1-10V1h6Z"/><path fill="#BF9C8F" d="M37 251h-1l-14-2-2-4v-2c2-2 3-1 5-1 6 1 12 1 12 9Z"/><path fill="#8B8690" d="M125 1h1l1 9h2c-1-5-1-7 1-9h1l1 10c1 3 2 2 3 3 1-1 2 0 1 1v2l-7 2v-2l-1-1-7-3V2l2-1h2Z"/><path fill="#586B81" d="M0 205c4 2 6-3 5 4 1 4 4 4 8 0l1-2c1-2 1-3 2-1v2c-4 5-6 10-14 9-1-1 2-9-2-8v-4Z"/><path fill="#552E24" d="M250 200v23l-1-1c-4-2-6-4-3-6l-1-1-1-2c1-4 1-7-1-11 1-2 5-3 7-2Z"/><path fill="#775B63" d="M162 1c1 2 2 7 0 8 2 10-1 19-4 8-2-3-1-7 0-10V1h4Z"/><path fill="#545A6E" d="M185 251h-9l-2-2c-2-3-2-4 0-4l1-2c4 1 6 0 7-2 3 3 5 5 3 10Z"/><path fill="#5C4C50" d="M188 1h1l-5 15c2 1 0 3-2 3l-1-6c-1-4-2-9 0-12h7Z"/><path fill="#926F79" d="M106 1h1a163 163 0 0 0-1 20c-1 1-3 4-5 3h-1c-1-2-1-2 1-2l-1-1c2-6 2-13 2-19l1-1h3Z"/><path fill="#56332B" d="M250 228v13c-2 4-3 4-4 0-1 1-3-4-2-5-1-3-2-7 1-7 0-2 4-3 5-1Z"/><path fill="#7D5D63" d="M121 234c2-3 5 0 4 3v14h-1l-2-1c1-2 0-2-3-2-2-3 0-9-2-11l4-3Z"/><path fill="#7B5149" d="M7 113c3 0 7 2 8 5 3 2 1 3-2 2-2-2-11-7-11-2l-2-3v-7c3 0 6 2 7 5Z"/><path fill="#373E4B" d="M223 234c6 5 13 9 17 17h-5c-1-7-9-9-13-15-2-2-2-3 1-2Z"/><path fill="#E0CCD1" d="m59 1-5 26c2 4 1 6-2 7l-1-1c-1-2 0-6 1-7 1-9 2-17 5-25h2Z"/><path fill="#A59193" d="M190 1c1 2 1 4-1 7l1 1-2 7c2 3-3 11-6 11v-8l6-18h2Z"/><path fill="#AE9A9E" d="m32 1-6 24c2 2 2 2-1 2-1 1-1 0-1-2l5-24h3Z"/><path fill="#74565E" d="M128 232c3-1 4 3 4 5-1 4 0 8 2 11v3h-6l-1-10-1-1v-3c-2-2-2-4-1-4 1-1 2-2 3-1Z"/><path fill="#835448" d="M250 107v15l-3 1c2-3-1-2-1-3l-1-9c0-2 3-4 5-4Z"/><path fill="#B8A1A5" d="M51 25c0 5 0 10-3 14l-1-2c-1-11 1-24 6-33l1-3h1c1 8-1 16-4 24Z"/><path fill="#46261D" d="m246 180-2-7h4l2 2v15c-3 0-3-5-4-8-2-1-2-1 0-2Z"/><path fill="#482A25" d="M6 43v2l-1 4-3 10c0 1 1 3-2 4V48c2-1 2-3 2-5l2-1 2 1Z"/><path fill="#847A80" d="M197 242c0 3 0 6-2 9h-8c-1-3 2-2 3-3 3-3 4-10 6-13l1 7Z"/><path fill="#977A82" d="M115 1c2-1 2 12 2 12l-2 2c0 3-2 3-4 1-1-4 0-12 1-15h3Z"/><path fill="#A9725B" d="m200 237 1-1c2-1 9 10 10 13l1 2h-5c-2-1-3-2-3-5l-3-1c-1-5-2-3-1-8Z"/><path fill="#B18678" d="m16 245 1 3-6 3h-1c-1-1-2-2-2-5l-5 5H1c2-5 6-9 9-12 1 2 3 4 6 4v2Z"/><path fill="#5B3331" d="M109 251c-2-8-1-11 3-9h2c1 1 3 5 2 7l-2 2h-5Z"/><path fill="#311A13" d="M54 247c2-1 6 2 4 4h-9c-1 0-3-2-2-3v-1c-2-3-2-4-1-5 2-1 8 2 8 5Z"/><path fill="#A78076" d="m20 245 7 1-5 2 14 3H20c-2-1-2-3 0-6Z"/><path fill="#82606A" d="M150 1c1 5 2 21-4 10-2-1-1-8 0-10h4Z"/><path fill="#856870" d="m110 1 1 1-1 15c1 2 0 2-2 2h-1l-1-1 1-17h3Z"/><path fill="#EEDCE2" d="M101 1v21l-1 2c2 1 1 2-1 2-2 1-1-4-1-7 0-6 0-13 2-18h1Z"/><path fill="#D1BFC7" d="m118 1 1 12v1c0 2-2 3-4 1V1h3Z"/><path fill="#CAB1B8" d="M103 1c-1 7 0 14-2 21-4 0 0-4 0-5V1h2Z"/><path fill="#926A61" d="M20 243v8h-9c0-7 5-1 5-6l4-3v1Z"/><path fill="#6A5A5E" d="M57 1a2204 2204 0 0 1-6 24l4-24h2Z"/><path fill="#AB99A1" d="M146 1v10c2 2 2 4 0 4-1 1-5 1-5-2l2-12h3Z"/><path fill="#BD9F9A" d="M250 166v1l-16 6-5 2h-2c-3 1-4-3-1-4h7l17-5Z"/><path fill="#C4B4BE" d="M123 1c0 4 2 9-2 12-2 1-2-3-1-5-2-1-1-5-1-7h4Z"/><path fill="#B19099" d="M164 9c3 3 3 7 0 10 2 4 2 8 0 10 6 5-8 7-1-1-3-1-3-7 0-8l-1-11V1h1l1 8Z"/><path fill="#D1A292" d="M200 251h-5c-1-4-1-7 2-9 1 3 4 5 3 9Z"/><path fill="#D5B6BE" d="m108 1-1 18c2 1 1 2-1 1l-2-1 2-18h2Z"/><path fill="#9B6D5E" d="M3 251c2-7 9-10 7 0H3Z"/><path fill="#9C818B" d="M150 18c-2 2-2 1-2-1l-2-2v-4l4 3V1h1v17h-1Z"/><path fill="#40373B" d="M206 1c1 3 0 8-2 11-3 3-4-9-2-11h4Z"/><path fill="#534044" d="M192 1c1 2 0 4-2 8l-5 7 5-15h2Z"/><path fill="#BAABB5" d="M130 1v11c-3 0-3-2-3-2V1h3Z"/><path fill="#664C51" d="m119 248 2-2c1-3-1-3 3-3v8h-5v-3Z"/><path fill="#D8B6A5" d="M250 70c-1 3-4 4-4 0-1-2-2-6 1-7 0-2 2-3 3-2v9Z"/><path fill="#523537" d="M144 239h1l-2 12h-2v-13h1c1-5 6-2 2 1Z"/><path fill="#522E23" d="m42 242 5 6s3 1 2 3h-7v-2c-3-6-3-8 0-7Z"/><path fill="#683D3D" d="m2 40 2 2c-1 3 0 8-4 6v-9h1c1-1 1-1 1 1Z"/><path fill="#76666B" d="M202 1c1 3-2 12 2 11v2l-1 2c-2 1-3-5-3-7l-1-4 1-4h2Z"/><path fill="#DAC7CE" d="M181 1v12c1 2 1 6-1 7l-1-19h2Z"/><path fill="#68494F" d="m70 1-1 9c-1 3-3 2-3-1l1-8h3Z"/><path fill="#4E2B23" d="M250 224v2l-8 2c-1 3-2 1-3-1 0-3 1-4 3-5-1-2 0-3 1-1l6 2 1 1Z"/><path fill="#E0C9CE" d="m112 1-1 15c2 1 1 2-1 1-2-5 1-11 0-16h2Z"/><path fill="#5A362D" d="M250 196v3c-4 1-9 3-13 2h-1l14-5Z"/><path fill="#7F6876" d="m144 1-1 12h-2V1h3Z"/><path fill="#89685C" d="M250 88v10h-1c-7 4-8 2-2-6l1-1v-1c-3-2-4-9-2-12l1-1h2l1 11Z"/><path fill="#5F382C" d="m250 101-7 5c-3 4-8-4-1-3 0-2 3-4 7-5h1v3Z"/><path fill="#50667D" d="M248 251h-6l-2-4 2-2c1 2 3 1 4-1 4-4 4 5 2 7Z"/><path fill="#BB8670" d="M0 248v-5c3-1 5-3 6-5h1c-2 3-4 8-7 10Z"/><path fill="#43281E" d="m250 88-3-11c-1-2 2-4 3-3v14Z"/><path fill="#332425" d="M217 246c1 1 2 2 1 5h-4c-1-4-1-8 3-5Z"/><path fill="#8B757D" d="m100 1-2 18c-3-6 1-12 0-18h2Z"/><path fill="#683D37" d="M4 104c2 0 1 3-1 4l-3-2v-8c3 1 5 3 4 6Z"/><path fill="#D4A28A" d="M207 251h-4l-2-6c4-3 5 2 6 6Z"/><path fill="#4F4D55" d="m246 241 2 2c1-1 0-3 2-2v10h-2c0-3 1-6-2-7-2 0-1-3 0-3Z"/><path fill="#A58585" d="M150 236c3-4 6 0 0 2-7 2-6 6-6 13h-1c0-4-1-10 1-12-1-4 4-6 6-3Z"/><path fill="#908492" d="M97 247c1 0 4 0 3 4h-7c0-3 2-4 4-4Z"/><path fill="#6E4A3F" d="m249 222 1 1v1c-2-1-5 2-5 2-2 0-2-4-2-5 2-3 4-2 6 1Z"/><path fill="#A98C89" d="M250 226v2c-2-1-3 0-5 1l-3 4h-1c-3 0-4-4-3-6h1c3 2 8-1 11-1Z"/><path fill="#8E6963" d="M4 137c4 1-3 7-4 2v-4c2-4 4-2 4 2Z"/><path fill="#886B77" d="M95 1c1 3 0 6-1 9-2 3-3-3-2-5V1h3Z"/><path fill="#9B7D7F" d="M11 135c1 3-2 6-5 4 1 2 0 3-2 2l-4 3v-5c4 3 4-2 4-2l7-2Z"/><path fill="#7D6464" d="M19 1c0 6-3 11-5 16l3-16h2Z"/><path fill="#8B665C" d="M250 199v1l-7 2c-1 3-5 4-7 1-1-1 0-2 1-2l13-2Z"/><path fill="#CAB5BD" d="M152 10v10c-2 1-3 0-2-2 2-5 1-12 1-17h1v9Z"/><path fill="#6D4E49" d="m250 145-2 3-1-2-7 4-1-2 11-5v2Z"/><path fill="#9E736D" d="M3 108c2-2 3-2 2 1 2-2 5 0 3 3 2 1 1 2-1 1l-7-5v-2l2-1 1 3Z"/><path fill="#AF8E8E" d="M112 242h-4l1 9h-1l-1-10c2-1 4 0 5 1Z"/><path fill="#C0AFB8" d="M127 1v9l-2 1V1h2Z"/><path fill="#B79D8F" d="m250 61-3 2c-1 3-2 3-3 1h-1v-1l1-1 6-4v3Z"/><path fill="#B1A2A7" d="M204 14v-2l2-11h1c0 4-1 9-3 13Z"/><path fill="#B69287" d="M250 73v1c-2 0-2 2-3 3l-1 1c1 3-3 5-5 3-1-2-1-3 1-3l4-3c1-3 2-5 4-2Z"/><path fill="#A17261" d="M56 246c2-1 5 1 4 3l1 2h-3l-4-4c-1-3 0-2 2-1Z"/><path fill="#F6F0F5" d="m120 8-1 5c-2-3 0-8-1-12h1l1 7Z"/><path fill="#472B33" d="M126 240v11h-1v-14h1v3Z"/><path fill="#744F41" d="M250 70v3l-4 2c-2-1-2-2 0-5h4Z"/><path fill="#815F63" d="M141 251h-1c1-4-1-11 1-13v13Z"/><path fill="#A8959B" d="M194 1c0 3-3 6-4 8l2-8h2Z"/><path fill="#A59498" d="M199 5c1 2 0 6-2 6l2-10h1l-1 4Z"/><path fill="#B3A6AA" d="m211 9 2-8h1c1 3-1 5-3 8Z"/><path fill="#755960" d="M127 241v10h-1v-11l1 1Z"/><path fill="#7D717A" d="M134 1v11l-1-11h1Z"/><path fill="#786A74" d="M132 11c-2-3 0-7-1-10h1v10Z"/><path fill="#4B2E36" d="M128 251h-1v-10c2 2 1 6 1 10Z"/><path fill="#6C5854" d="M250 33c-1 2-4 2-4 2l4-5v3Z"/><path fill="#A29094" d="m232 8-1 1-1-8h1l1 7Z"/><path fill="#3E1B13" d="M26 209c1-2 1-6 4-4s5 12 5 13c1 0 7-4 9-2 3 2 7 19 11 23-2 0-5-1-8-5h-8c-5-8-10-16-13-25Z"/><path fill="#532418" d="m26 209 6 8c0 7 1 3 4 5l-3 1c3 2 5 8 7 9h7c2 1 4 5 8 7l4 1c1 1-3 0-2 2 1 4 6 3 3 7l-4-3-9-5-1 1 1 5c-2-1-4-3-5-6l-2-1c-7-9-12-19-15-29l1-2Z"/><path fill="#323848" d="m6 139 3 2 11 20 12-1-1 3-3 2c0 6-3 5-7 3l-1 1c-6 0-8-8-11-13-3-4-6-5-6-10s3-4 1-5l2-2Z"/><path fill="#23232B" d="m41 161 2-1c3-2 6-2 9 0 4 1 5 3 2 4l4 4c3-1 6 2 6 5-1 2-2 1-4-2-2 2-4 0-4-2-2 2-4 1-6-1 0 2-3 2-4 0 2 1 4 2 4 4 7 3 8 5 2 5l-9-8c0-2 2-1 3-1-2-7-5-3-8-2-6 3-9 4-13 9 0-9-3 0-7 3 0-4 5-7 3-10 4-4 4-5 4 1 2-2 3-6 6-6h1c2 1-4 5-1 3 3-3 6-6 10-5Z"/><path fill="#3D221C" d="M52 205v-4c3 1 4-1 6-2l-2-2 10 2c3 1 1 2 1 2v1c-4 0-6 2-6 7l-9-4Z"/><path fill="#262A33" d="M53 173c3-2 7 0 8 3 2 3 5 5 9 7 0 4-2 5-5 2l-8-1c-1-3 1-4-2-5l2-1-5-1 2-1c1-2-4-2-5-2l1-2c2-3 3-2 3 1Z"/><path fill="#BCC9D4" d="M15 192c6-3 6 3 2 6-1 5-9 11-8 3l3-7c2-3 2-2 3-2Z"/><path fill="#B4C2D0" d="m10 193-2 6c-1 2-4 5-5 3 1-3-3-7 1-8l6-1Z"/><path fill="#543125" d="M67 201h3l-1 2c5 1 9 3 14 6 2 2-11 2-13 2l-4-1c1-2 3-2 6 0 2-2-3-5-4-5-3-2-5 1-6 4h-1l-1-7 7-1Z"/><path fill="#85594A" d="M62 209c-1-9 12-5 14 1h-4c-3-2-6-2-9-1h-1Z"/><path fill="#748599" d="M17 191c2 0 5-2 4 1l-5 14-2 1v-4l3-5c1-4 3-7-2-6l2-1Z"/><path fill="#BA8D7B" d="M63 209c1-3 4-4 6-3l-1 2 4 2h-6l-3-1Z"/><path fill="#95614B" d="M25 211c3-1 2 1 3 3 3 14 6 16 14 27v8l-9-14c-3-3-3-4-2-5l-4-6-1-6c-2 0-1-4-1-5v-2Z"/><path fill="#B28376" d="M26 218h-1c0 2-1 2-2 0l1-4 1-1 1 5Z"/><path fill="#60616C" d="M91 190c2-3 9-2 10 1 6-1 7 4 1 5-2 2 6 4 9 3l1 2c5 0 5 7-1 6l-10-4h-3l-2-1-3-4c-5-1-12-8-3-8h1Z"/><path fill="#454651" d="M79 188h1c2-4 8 0 10 2l-3 2c4 5 9 3 9 10-2-1-9 1-7-4h-7l4-2h-6l2-2c-3 1-4-2-4-2h-3c0-5 0-5 4-4Z"/><path fill="#373A44" d="m67 178 8 4 4 6h-3v1c4 0 2 2-1 3l-5-1 1-2-7-1 3-1-2-2c1 0 4 0 3-1l-7-3c5-2-1-1-1-2l1-3c3-2 5-1 6 2Z"/><path fill="#AAB0BD" d="M103 225c2 1 3 2 3 4 3 0 2 2-2 5h-1c-1 2-3 3-4 0-3 0-4-1-3-3l-2 2c-6 1-8 0-7-3l2-1c0-3 7-5 7-3 0 1-2 1 0-1 3 0 4-3 6-3 3 0 4 1 1 3Z"/><path fill="#D8B2AE" d="M113 214c2 1 2 2-1 2 5 4 0 10-6 8 0 2-1 3-3 1l-1-3h1c2-2 1-3-4-3v-2l1-3c0-3 1-5 4-4 0 2 4 1 6 1 0-1 0-2 1-1 2-2 4 2 2 4Z"/><path fill="#3A3841" d="M85 235c1-3 3-3 6 1 2-1 3 0 4 1 6-2 8 1 3 5l-4 2h-7c1-5 1-5-2-9Z"/><path fill="#676C7A" d="M87 230c2 3 4-2 7 3 2-1 3 0 1 2 0 3-2 2-4 1l-4 1 1-2h-3v-2c-1-1-7 0-8-3h10Z"/><path fill="#673531" d="M104 209c5-1 7-1 6 2 0 0 2 2-2 2s-4-2-7-2c2 3 2 5-2 6h-1c0-1-3-3-2-5 2-2 8-4 8-3Z"/><path fill="#5C4446" d="M95 221s-1 2 1 4l1 2-8 2 1-5-4 1v-2c4-3 7-4 9-2Z"/><path fill="#A09292" d="m95 221-9 2c0-3 2-3 4-4s2-11 5 2Z"/><path fill="#563534" d="M98 203h11c2 0 0 4 2 4-1 2-5 2-7 1-4 1 0-4-1-4-2 1-3-1-5-1Z"/><path fill="#5E5E68" d="M67 231c3-1 10 2 9 5-1 4-10-4-9-5Z"/><path fill="#120B0B" d="M73 199c-3-5 9-3 8 0s-7 0-8 0Z"/><path fill="#5C4446" d="M99 217c2 3 7 2 10 3 0 2-4 1-6 2 3-5-5 1-7 0 1-2 3-3 2-5h1Z"/><path fill="#C2918A" d="M111 207c2-1 3 0 2 1 1 2 0 2-2 2l-1 1c-1-2-4 0-5 0-2-1-1-2-1-2v-1c2-2 5-2 7-1Z"/><path fill="#493A3C" d="M81 226c-1 1-5-3-5-3 2-1 7 1 5 3Z"/><path fill="#2C1A19" d="M227 41c1 3 3 10 1 13l-4 3 5-4 5 18c0 2 0 0-1 1v2l-17 11c-1 6-5-2-4-6-1-3-2-10-1-13l1-2h-2c-2-6-3-14-2-20 6-1 12-6 17-10l2 7Z"/><path fill="#241615" d="M239 43v1c-1 2-5 6-8 6 0 1-1 1-2-1l-1-8c0-2-3-12-2-13 0-2 8-1 8-6 3 7 4 14 5 21Z"/><path fill="#A79495" d="M203 18c0 2-2 4 0 5h1v1l-1 8c1 1 2 4 0 5l-1 2-1 8-2 1c-1 1-1 1-1-1l-1-1V36c-4 4-8 1-4-4l6-17c-2 0-2-1 0-2 2 1 3 2 4 5Z"/><path fill="#6A5352" d="m208 44 2 20c3-1 3 0 1 2l1 13-1 2c-4-17-6-35-7-53l-1 4c-2-3-2-7 1-8l4 20Z"/><path fill="#8A7777" d="M235 20v2h-1l-3-13 1-1 3 12Z"/><path fill="#6A5957" d="M229 49c3 3 4 8 5 13 2 3 2 6 1 9l-1 1h-1l-4-18-5 3 5-6-2-10h1l1 8Z"/><path fill="#AA9CA0" d="m207 17 4-8-1 5-3 3Z"/><path fill="#B3A3A5" d="M204 23h-1c0-3 3-4 4-6 0 1-1 5-3 6Z"/><path fill="#5F3738" d="m53 4-6 33c-1 9-3 19-6 28l-3 12c2 4-1 4-3 1-2 1-4-1-3-3 2-3 4-8 4-11l-2-7 3-2c1-2 5-15 4-17l-2-3c-1-1 1-13 1-14 1-3 7-3 5-8-1-6-4-2-3-4 4 0 1-2 2-3 0-2 3 0 4 0l5-2Z"/><path fill="#401F1C" d="M26 25c2 0 7 7 7 9 1 4 1 19-7 18 2 4 5 17-3 16h-1c-2 2-5-3-5-5-1-8 2-16 5-23 0-4 1-9 3-13l1-2Z"/><path fill="#80514C" d="M30 75h2l3 3 3 1c2 2 2 3 0 3 0 3-1 5-3 7-1 3-2 2-3 0l-2-1c-3 1-6 0-7-2-2-3-2-6 2-6 0-4 1-8 5-5Z"/><path fill="#6C403B" d="m23 68 7 7c-3 0-2 5-3 8l-4-1v4c-1 1-3 0-3-2-3-3-3-16 2-16h1Z"/><path fill="#352526" d="M165 203c2-2 2 1 1 2l3-1 30 11v3l-2 3-2 1h-9l-2 1-18-10-1-2-2-5c-2-3-2-4 2-3Z"/><path fill="#616775" d="m202 214-2 1c-3 0-23-7-24-9v-2l1-2c3 2 5 2 8 2 2-2 10-2 12 1 5-3 8-6 9-12l2-1v-1c3 6-3 17-6 23Z"/><path fill="#393139" d="M213 183c1-2 2-2 3-1l17 19h4l-1 2c3 2 2 12-2 14 2 2 1 4-2 3-2 2-5 1-6-1l-1-1c-2 2-5 1-5-2l4-1-3-2c16 3 6-9 2-16l-10-14Z"/><path fill="#9AA4B0" d="M207 189c1-2 1-2 1 1v2l-4 5c1 4-3 7-7 8l-12-1c-4 0-10-1-12-4-5-4-7-10 2-6l-3-2c7-5 14 6 3 2l10 2c2 4 2 4 3 0 5 0 7-1 10-4h1c1-2 2-4 5-4 1-2 2-1 3 1Z"/><path fill="#555055" d="m176 204 11 7 15 3-3 4c-3-4-5-3-8-3-3-1-1-2-2-2-6-3-18-5-23-8-1-3-1-6 2-7 4 0 9 4 8 6Z"/><path fill="#4F5260" d="M214 180c1-3 1-3 2 0l12 11c4 2 6 0 6-6l2 2 1 9c0 2-3 1-2 5l-2 2c-4 0-9-11-11-14l-9-6-2-4c1-2 2-1 3 1Z"/><path fill="#564243" d="M212 213c-2 2-1 7 0 9l9 11 2 1-1 2c-1 0-4-1-5 1 0 2 6 7 3 10-3-6-11-21-12-26s1-1 2 0v-9c1-1 2 1 2 1Z"/><path fill="#B1B0B5" d="m216 214 4 2 5 2c1 5 5 9 9 13l-2 2-5-2c-1 0-4-2-3-3-4-1-8-5-10-9-1-3-2-7 2-5Z"/><path fill="#696973" d="M194 170c-2-2-1-3 1-3l6 5c2-3 2 0 1-1s0-2 1-2 15 9 11 11l-3-1c-1-1-2-3-3-2l2 5c1 2 0 3-2 1-2-3-5-4-8-5-3 1-5-1-4-4-2-2-3-3-2-4Z"/><path fill="#3A3941" d="m200 178 2-3 2 4c1-4 2-1 3 1 2 2 3 4 3 2 1 1 5 7 4 8l-4-2c0 5-2-4-2 2l-1-1c-3-2-4-4-3-5l-4-5v-1Z"/><path fill="#46231E" d="m207 222-7 8c-2 0 0-2-1-1v8l-2-4c2-2 0-7 1-8l3-1c1-1 2-4 5-5l1 3Z"/><path fill="#8799A9" d="M216 214c-3-1-2 4-1 5l9 9h-3l-4-3c-2-3-5-8-5-12l4 1Z"/><path fill="#5C3B37" d="m224 142 1 3c5-7 10 5 9 6s-5 0-5 4c2 3 4 0 6 1 2 2 0 5 3 6l-3 2-8 2c-3 0-4 0-6-2-1 1-2 0-1-1l-3-4c0-5-2-9-7-4-11-6 0-14 8-11 1-2 5-4 6-2Z"/><path fill="#64413C" d="M233 114c3 1 1 3-6 6l-1 3 8-4 1 1c2 1 3 3 4 6l1-1c-3-2-2-2 0-3-6 0-1-9 2-7 2 2 0 1 0 1-1 0-2-1 0-1 3-1 2 2 3 4v10c-2 2-13 5-15 8v-7l-3 3c-1 1-5 2-6 1-6 1-2-3 0-6-5 2-7-6-3-8l14-7c1-2 1-2 1 1Z"/><path fill="#5A332B" d="M240 109c1-1 1 0 1 2h2l-1 2-1 2c-4 1-5 5-1 7l1 2 1-2c1 2-1 6-3 6-3-1-3-6-4-8l-9 3c-5-6 6-6 7-7v-2c-1-3 6-7 7-5Z"/><path fill="#805D53" d="M239 96v1c2 0 3 1 2 4l1 2c-3 2-3 2 1 3 0 1 1 3-2 3v2l-1-2c-2 0-2-1-1-2h-2c-5 4-9 6-10-2v-2c6-2 9-4 10-6v-1c-3-5-4-7-1-8-3-1-1-4 1-3s4 9 2 11Zm3 17v5c-2 0 0-2-1-2-1-1-5 4-1 6l-3 1-1-9c2-1 1 2 2 2 2-1 2-4 4-3Z"/><path fill="#72534C" d="m233 137-9 5-6 2-1-1c1-2 4-4 6-3l10-3Z"/><path fill="#70514A" d="M233 137c5-3 10-7 15-8-3 5-10 6-15 8Z"/><path fill="#B18D85" d="m246 160-11 5v-1l3-2 8-2Z"/><path fill="#7A5F5A" d="m22 40-5 23c3 2 0 10-3 11l-2-1 3-15 6-20c1-1 1 0 1 2Z"/><path fill="#8E7B7D" d="m25 27-3 13-1-2 3-13 1 2Z"/><path fill="#796665" d="m10 31 4-14c-1 4-1 10-4 14Z"/><path fill="#725E5A" d="M10 34 7 45H6v-2l2-9h2Z"/><path fill="#7C6F6E" d="M239 38v5l-5-21h1l4 16Z"/><path fill="#764F4A" d="M9 79c-5 0-1-9 0-11l1-3-1 14Z"/><path fill="#80615D" d="M2 59c0-3 1-7 3-10L2 59Z"/><path fill="#C5B8BD" d="M168 230c2-2 6 1 5 4 6 4-3 4-7 3l-4-4-1 1c-3-2-4-1-1 4 1 1 1 2-2 1l-3-2c-2 0-2-2-1-3-2-1-1-4 0-5-1-3 2-4 5-3l9 4Z"/><path fill="#9897A0" d="m166 237-1 2c2 1 1 2-1 3l-6-3 2-1c-2-2-1-6 2-5l4-1v5Z"/><path fill="#4B4D55" d="M166 239c3 0 8 3 8 6v4l-10-7 1-3h1Z"/><path fill="#5D3233" d="m154 234 1 3-5 1 2-2h-2c-3-1-2-4 1-3 2-3 3-2 3 1Z"/><path fill="#756362" d="M5 27c2-7 4-18 7-24-1 8-4 16-7 24Z"/><path fill="#716362" d="m2 40-1-1c0-5 3-8 4-12L2 40Z"/><path fill="#8F6057" d="M11 95c4 2 7 6 9 11 2-2 3-2 4 0 2 1 2 4 1 9 2 1 3 2 2 4 2 2 1 2-2 2-1 0-3 1-4 4 2 1 2 2 0 3h-1c-2 0-5-2-5-4l-3-1v-1h3v-1l-2-1 2-2v-2c-2-4-5-8-10-7l-2-1c-1-2 1-4 1-4l5 1v-9c0-3 1-2 1-2 2-2 2-1 1 1Z"/><path fill="#5C342E" d="M22 68c-2 4-1 11-2 16l-6-3v-7l3-11c2 0 5 5 5 5Z"/><path fill="#805149" d="m10 94 2-2 4 3-6-6c5-1 8 8 12 5l-5-5c3-4 3 4 7 1s5 2 3 5l1 2c1-1 6 2 7 3s0 3-2 3h-1l-7-4c-4 3-8 2-14-4l-1-1Z"/><path fill="#905D56" d="m20 84 3 2h8l1 3h3c2 3 1 6-1 10l-5-3 3-7c-2 2-3 5-3 7l-1 1h-1c-5-3-1-4-1-6l-2-1c-3-4-8-5-10-9l6 3Z"/><path fill="#8E5F56" d="M10 91c1 1-3 1-4 1-2-1-3-4-3-6l7 5Z"/><path fill="#714F55" d="M164 9c6-2 4 6 6 8 3 1 8 0 10 3 2 1 2 5 0 6h-1l-1-1c-10 3-14 1-14-6V9Z"/><path fill="#211415" d="M186 222c6-4 4 4 2 7l-1 3-1-2c-1-1-1 1-1 1l-3 1c0-3-1-7-4-4-2 0-1 1 3 2 2 2 2 3 0 3l-2 4c-3 2-5 0-6-3l-5-4-10-4c-5-4 4-14 6-6-3-6-3-9 1-9 10 2 14 8 21 11Z"/><path fill="#949EAF" d="M166 237c3-1 4 1 2-3 0-1 8 5 5 0l6 3c3-2 3-1 2 2l1 2c-3 4-8 3-16-2h-1l1-2Z"/><path fill="#4B4853" d="m194 222-1 2-3 3v3l-2-1v-7h-2c2-3 5-3 7-2 3 1 1 2 1 2Z"/><path fill="#7B747A" d="M178 228c0-2-1-4 2-3s2 6 2 7l3-1-3 2h-1v-3c-2 0-3-1-3-2Z"/><path fill="#353846" d="M181 233h1l-1 2h3l-3 4-2-2-1-4h3Z"/><path fill="#797E91" d="M193 224c0 2 0 6-2 7l-1-4 1-4 2 1Z"/><path fill="#6A5957" d="M239 44s2 0 2 2l3 16-1 1c-3-3-4-7-5-13-6 4-9 4-7 0 3-2 5-6 8-6Z"/><path fill="#485163" d="M14 133c2-1 3-1 3 1-6 6-3 10 2 15 3 8 7 10 14 8l1 1v1c1 2 1 4-2 4h-1c1-4 0-2-2-2-4 0-6 2-10 1-5-7-10-14-13-23l5-4 3-2Z"/><path fill="#566678" d="M18 132c5-2 6 0 1 5-2 3-1 5 3 7 3 9 6 12 15 10l1 1c3 2-2 5-4 3l-7 1c-8-1-6-5-9-9s-7-5-6-12 6-2 2-5l1-1c0-2 3-2 3 0Z"/><path fill="#926C61" d="M13 127c-2 2-4-2-5-1-2 2 7 2 4 5-2 2-7-4-8-4l1-5 8 5Z"/><path fill="#F8E4D4" d="M20 128c2 3-5 4-5 1l-2-2 2-3c2 1 4 1 5 4Z"/><path fill="#B19791" d="M21 128c3 0 3 2 0 3l-3 1h-3v-3c3 0 4 2 5-1h1Z"/><path fill="#E2B9A9" d="M25 218c2 1 3 4 1 5l5 7 2 5c-3-4-2-2-3 0l-12-3-1-2c2-3 1-4 1-4l5-8h2Z"/><path fill="#7D5A51" d="M246 180v2c-3 5-7-5 0-2Z"/><path fill="#ADB8C6" d="M228 175h1l1 2c4 9-2 12-8 5-4-2-10-5-11-9 0-2 0-3 2-2l9 5c3 2 5 2 6-1Z"/><path fill="#677587" d="M220 182c4 1 7 3 11 6 0-2 1-3 2-3h1c0 2 1 9-1 10l-7-3-10-12c1-2 4 0 4 2Z"/><path fill="#7F8EA4" d="M233 185c1 12-10-1-13-3h2c3 0 5 3 8 2v-7c2 3 3 4 3 8Z"/><path fill="#585A69" d="M99 234h4c3-1 3 0 1 2v1l-1 3-5 2 2-4c-4 1-6 2-9-2l4-1c0-4 2-3 4-1Z"/><path fill="#664446" d="M116 230c3-2 3 6 2 2h1c2-1 4 0 2 2-1 2 1 6-1 7l-3-4-2-1-1-1v-5h2Z"/><path fill="#C5BCBC" d="m112 231 2 4 1 1-9 3c-2 0-4 0-2-2v-2l7-3c-1-2 0-3 1-1Z"/><path fill="#8C8693" d="m104 237 2 2-3 1c-3 0-3-5 1-3Z"/><path fill="#8F5844" d="m208 239 3 10h-3l-1-6c-2-3-3-1-4-2s-1-4-3-4v-3c5 1 6 0 8 5Z"/><path fill="#D9ABB8" d="M84 41c3 4 0 22-4 14v4c-4 9-7 19-8 28l-2 2c-1 3-4 1-4-1l6-36c1-5 6-14 12-11Z"/><path fill="#B78490" d="m73 35-4 24-8 23-3 1v-1c-2-1-2-2 0-3 1-12 5-26 7-38 2-7 5-9 8-6Z"/><path fill="#BC9195" d="m69 59-4 28v1c3 3-1 6-3 2-2 0-6-5-4-7l7-21 4-3Z"/><path fill="#CA93A5" d="M85 33c2 1 1 5-1 6v2c-5 2-8 6-12 11l2-11 4-10c3-2 7-2 7 2Z"/><path fill="#B17C8B" d="m86 21-1 10v2c-7-3-5 0-7 3l-4 5c0-6 2-12 3-17h2c1-2 5-9 7-3Z"/><path fill="#A06F7B" d="m75 22-2 13c-3 0-5 4-8 6l2-11 2-3c1-3 3-11 6-5Z"/><path fill="#A06E7A" d="M79 11c-1 5 5 2 8 2 1 3 0 5-1 8-5-1-3 2-6 4-4 2-3 2-3-1l2-13Z"/><path fill="#90626C" d="m76 14-1 8c-5-2-3 8-8 8l3-15 1 1c1-3 3-4 5-2Z"/><path fill="#DCBDBD" d="M65 87v2l1-1 4 1c4 1 4 10 1 12 0 2-1 2-2 0l-5-2-2-9 2 1 1-4Z"/><path fill="#805659" d="M54 27c1 8 1-6 4 3v3l-3 25-1 14-1 1c-2 1-1-3-1-3 0 2 0 14-5 13l-2-2c-3 0-3-3-1-4l2-12c0-11 3-21 6-31l2-7Z"/><path fill="#C6998D" d="M30 235c-1 2-2 1-2 4h-2c-2-2-4-3-8-2-2 2-7 1-4-3l3-4c5 2 10 0 13 5Z"/><path fill="#BF988C" d="M14 239c-1 0-3-1-3 1 3 1 8 0 9 2l-2 6h-1l-1-3c-2-2-9 2-6-6l1-1c3-3 3-2 3 1Z"/><path fill="#9A6D5B" d="M14 234c0 4 2 2 4 3 3-1 6-1 8 2h1c4 1 3 3-1 2l-12-2c-4-1-1-2-3-1l3-4Z"/><path fill="#AD8777" d="M28 239c2 0 6 1 5 4l-7-2c3 0 3 0 1-2h1Z"/><path fill="#BC9195" d="M63 24c1 6 0 12-3 17l1 1c-3 11-4 23-4 35l1 2v3c1 4 0 5-3 5-3-4-6-11-2-14V54l5-21c0 3 1 1 2-4 0-2 2-4 0-6l3 1Z"/><path fill="#A17478" d="m63 41-6 36c-5-8 2-27 3-36 1-3 2-3 3 0Z"/><path fill="#7F5C60" d="m69 10-6 31h-3l3-17 3-15 3 1Z"/><path fill="#6D4D44" d="m232 166 1 5c-2 0-4 3-7 0-2 0-2-1-1-2 1-3 5-4 7-3Z"/><path fill="#B28F88" d="M235 164v1l-3 1c-2 1-5 1-7 3-2 1-3 0-2-2 1-1 2-2 4-1l8-2Z"/><path fill="#71585A" d="M200 9c1 3 0 4-1 4v2c-2 7-5 14-10 21 1 0 3 1 2 3 2 1 1 2-1 2l-6 5c-4 0-3-3-2-6l1-4 3-5c0-4 4-12 7-12l4-8 2-6c2 1 1 3 1 4Z"/><path fill="#614A4B" d="m193 19-7 12c-4 7-7 2-4-4l6-11 5 3Z"/><path fill="#697A8D" d="m224 228 3 3 15 10c-1-2 0-4 1-5h1l2 5v3c0 2 1 3-1 5l-5-2-11-12-8-7h3Z"/><path fill="#967779" d="m60 29-2 16-1-4 1-8 2-4Z"/><path fill="#BEC0C6" d="m141 13 5 2 2 2c-5 3-9 4-12-2l-1-1 6-1Z"/><path fill="#A2B9CA" d="m14 205-5 2c-4-2-1-5 0-6 3 5 6-1 8-3 0 2 0 4-3 7Z"/><path fill="#748599" d="M13 209c-2 2-5 8-8 3s0-3 0-3c4 2 5 1 8 0Z"/><path fill="#9A7378" d="M132 212c1 3 1 3 1 0h1c0 5 1 9 3 11 5 0 0 7-2 2-1 6-1 11 1 15 1 1 1 2-1 2l-1 6h-4v-11c0-3-2-5-2-5-1-3-2-8 0-10v-1c0-6 1-9 4-9Z"/><path fill="#835C5B" d="M140 216c2 5 2 12 1 19l-4-5c-1 3 1 7 1 11 0 3-1 2-3 1l1-2c-2-4-2-9-1-15 4 1 3-1 2-2l-1-1c-2-5 0-13 4-6Z"/><path fill="#401917" d="M142 216c3 2 3 5 0 8 3 4 3 9 0 14h-1v-3l-1-19c2-2 2-2 2 0Z"/><path fill="#4A3C3F" d="M203 16v2c-3 0-2-3-4-5l1-4 3 7Z"/><path fill="#261311" d="M108 19c7-2 13-3 16 5v2c4 1 2 6 0 7l1 3c3 0 3 1 0 3l-2 9-1 1-2 6 6 8c0 4 2 7 5 8v11l8 6c1-2 3-1 3 1l6 2c7 5 0 6-5 3-1 2-4 2-7-1-4-2-8-3-13-2l-1-2c-4-3-8-4-13-3-1 1-2 1-2-1-3-1-5-3-3-6l-3-3c-5 1-9-1-13-5-6-2-7-7-2-15 0-3 6-1 6 2 2-2 2-3 1-5 2-3 2-5-1-6h-1l-1-3c-4-3 4-9 5-3 1 3 3-3 1-5-3 1-3-1-2-4-1-3 0-5 3-4l2-2 1-2h1l2-1c4-2 7-2 9 1 2 5 2 5 0 0-1-2-3-3-6-3v-1l1-1h1Z"/><path fill="#D7B4C0" d="M90 15c3 1 2 5 0 7 1 2 2 1 3-1v-1l2 5 1-6 1 9-3 4c1 3-1 8-5 8h-1l-1-9 2-19c2 0 1 2 1 3Z"/><path fill="#A27E8B" d="m94 10-1 10v1c-2 3-3 4-3 1v-7c2-2 1-5 1-8l1-2c0 2 0 4 2 5Z"/><path fill="#E7BDC7" d="M89 40c0 2 0 7-2 9 1 2 1 6-1 7l-4 12v3l-4 28 4 1c2 3-3 4-6 3-1 3-5 0-5-2 1-3-2-2-2-3 0-2 2-1 2-2 1-1-1-6-1-7l2-13 6-19c1-5-2 0-2-2l5-4 1 7 2-17v-2l3-6v-2l2 9Z"/><path fill="#D7B4C0" d="m87 33-1 11-2-5 1-6v-2l2 2Z"/><path fill="#9B7A85" d="M158 7v10l5 11v5h1v-4h1c7 0 7 2 0 5-2 6-4 7-6 0-3 0-4-3-2-5-3-1-4-3-4-7-3 0-3 0-1-2V10c3 4-1 10 4 12V8c0-4-1-3 2-1Z"/><path fill="#E5E5E7" d="m136 15 4 3c2 0 3-3 8-1l2 1 2 2 1 2c1 3 2 6-2 5-2 2-3 2-5 0l-5 2 1 1c-4 2-11-4-8-8 2-2 2-3 2-5v-2Z"/><path fill="#82878D" d="m121 13 7 3 1 1 1 2c1 0 2 2 2 5 2-1 2 1 1 2-1 2-2 4-1 6 1-2 2-2 2 0v2c-4-1-6 0-8 1 1 1 1 2-1 1-9-2-3-3-1-5v-5l-1-1c3-5 1-8-3-9l-1-2v-1l1-5c0 2-1 3 1 5Z"/><path fill="#A9ABAF" d="M136 17c2 1 2 3 4 3v1l-6 1-2 2c-1-1-3 2-1-3l-3 1c0-1-1-5 1-5l2 1c0-5 2-3 5-1Z"/><path fill="#4A4A51" d="m128 16-7-3c4 0 5 0 7 3Z"/><path fill="#6E4A3F" d="M243 202c5 1 5 10 2 13 1 3-1 3-3 1l-1-4v9h-1c-2 2-4 1-4-2l-2-2c2-5 2-10 2-14l7-1Z"/><path fill="#865548" d="M245 215h3c2 2-3 3-2 4l3 3-2-2c-1 3-2 1-4 1-2-1-2-4-1-5l3-1Z"/><path fill="#815E68" d="M163 28c-7 0-5-6-5-11l4 4V9c2 6 1 13 1 19Z"/><path fill="#6D788A" d="M166 239c5-3 8 3 10 3 1 0-1-4 1-3-1 7 5 1 5 2 3 3-4 5-8 4-3-1-6-3-8-6Z"/><path fill="#C6AEAF" d="M182 19v15l4-3c0 2-2 3-3 5 0 2-5 7-4 3l-1-3c-1 1-1 1-1-1-2-2-1-3 1-4-2-2-1-3 2-5v-6l1-7c2 1 1 4 1 6Z"/><path fill="#3B272A" d="m106 21 6 1v2l-4-2c-3 0-3 5-7 2 2-1 3-3 5-3Z"/><path fill="#5E4646" d="m245 229-1 2h3c-2 2-4 2-3 5h-1c-3 0-2-1-1-3l-1-4h4Z"/><path fill="#9F7B83" d="M121 231h4c2 0 2 1 0 2l1 4h-1c0-2-3-3-4-3l-2-2v-1h2Z"/><path fill="#B88B82" d="M15 116v2l-8-5 1-1c3-2 6 1 7 4Z"/><path fill="#D6BABA" d="m52 34-6 31h-1c-2-1-1-6 0-8 1-8 3-17 6-24l1 1Z"/><path fill="#83696B" d="m52 26-1 7-6 24h-1l4-18 3-14 1 1Z"/><path fill="#89636C" d="M128 232c-1 2-1 2-3 1v-5c0 1-3 0-2-1-1-3 0-4 2-3-1-2 0-3 2-2h1v10Z"/><path fill="#A7888A" d="m48 39-4 18c1 4 0 7-2 9a3554 3554 0 0 0 5-29l1 2Z"/><path fill="#4A4A51" d="m119 14 7 3v6l-2 3c-4 0-3-6-4-6h-8l-4-1 2-2 1-1 4-1 4-1Z"/><path fill="#774A3B" d="M46 242c0-1-2-3 0-4l10 8-2 1-8-5Z"/><path fill="#B28373" d="M47 247v2c-2 0-4-5-5-7v-1l5 6Z"/><path fill="#D9D9DD" d="m220 163 1 1c2 1 3 2 2 3l2 2 1 2 1 4c2 2-1 4-3 2l-28-16c-11-3-3-6 4-5l3-1c3-3 12 2 15 5 2 0 3 0 2 3Z"/><path fill="#C6C7CD" d="M203 155c-1 1 1 2-1 2-3 0-10-2-10 3l6 1c8 3 16 10 23 14l6 2v-2h1c-2 11-11-5-17-2l-1 1a1041 1041 0 0 0-24-15c-5 1-3-4 2-3l8-1 4-1c1-3 3-2 3 1Z"/><path fill="#845D63" d="M164 19c3 8 5 5 12 5 6 0 4-1 3 2-2 5-9 5-14 3h-1V19Z"/><path fill="#9C7669" d="M246 70v5c-2 3-10 6-5 1-4-1-4-6 0-6 3 1 3 1 0-1h-1c0-2 2-3 4-5l3-1-1 7Z"/><path fill="#441F19" d="M165 211s-2 0-2 2c0 3 3 3 3 4l1 6c-5 0-4-2-6-5-2 3-5 4-1 7l8 5c-4-1-10-4-14-1 0 2-1 3-3 4l-1 3c-1 0-5 1-6 3 0-4 0-2-2-1v-14c2-5 3-6 4-2l1-1c-1-6 0-5 5-3 4 0 5-1 7-3-1-5 5-11 6-4Z"/><path fill="#562C22" d="m241 221-1-12c4-1 2 4 2 7l1 5-1 1c-1 1-2 0-1-1Z"/><path fill="#815C57" d="M242 222c0 3 1 3-3 5h-1c-1-1-2-2-1-3 0-2 1-3 3-3h1l1 1Z"/><path fill="#4D2E25" d="m248 90-9 6c0-4-3-7-2-11 0-2 2-3 4-4l5-3 2 12Z"/><path fill="#714E43" d="M248 91s2 1 1 3l-5 5c2 0 4-3 5-1-1 2-5 3-7 5-5 1-2-3-3-6l9-6Z"/><path fill="#C6A59A" d="M248 90v1l-9 6v-1l9-6Z"/><path fill="#B4C2CD" d="m226 219 3 1c0 3 8 10 5 5l1-2c1-2 3-1 2 1l1 3 3 6c3 8-8 5-9 0 0-6-10-9-7-15l1 1Z"/><path fill="#8799A9" d="M232 233c3 2 7 6 9 0h1l1 3 1 7c-3 4-15-10-17-12l5 2Z"/><path fill="#71443B" d="m5 109 1-4c6 5 9 3 9 11l-7-4-3-3Z"/><path fill="#251615" d="m231 50 1 2 8-6c0 6 2 11 3 17v1c-1 2-5 7-8 7-3-6-5-15-6-22l2 1Z"/><path fill="#D8BCB0" d="m244 64-4 5c-1 4-2 5-4 4 0 2-1 2-2 0v-1l1-1c3-2 5-6 8-7 3-2 1 0 1 0Z"/><path fill="#6B423A" d="m246 75-5 6-3 1c-1 0-2-2-1-3 0-4 1-8 4-3l1 2 4-3Z"/><path fill="#31343E" d="M50 157c1 1 1 1-1 1h12l1 2c3-2 10 4 10 8h-1l-1 1c2 1 3 3 3 5 2 5-5 3-6 0l-9-8c-1 0-4 0-4-2l1-1c-3 1-5-3-6-3-3-1-6 3-8 1 0-3 4-5 6-5h1c2-1 2-1 2 1Z"/><path fill="#413D48" d="m47 156-6 5-9 5c-3 1-1 2-1 2s-2 0-2-2l3-3c1-2 0-4 2-4l5-2 1 1c2-3 6-6 7-2Z"/><path fill="#495A68" d="M56 169c1 3 0 4-3 4l-3-1c-3-2-3-4 0-4l6 1Z"/><path fill="#48535B" d="m54 164 4 2v2c-1-1-11-3-10-4h6Z"/><path fill="#3A3E45" d="M50 168v4l-4-1v-3h4Z"/><path fill="#5F7383" d="M56 169c3 0 3 1 4 2 3 2 3 4 1 5l-8-3c3-2 0-5 3-4Z"/><path fill="#CFA18B" d="M31 230c-2-2-7-5-8-8s1-1 2-1c2 0 1-2 0-3h1l5 12Z"/><path fill="#91929C" d="M92 183c7 0 13 1 18 4v1c1 1 0 2-2 2 0 3 1 5 3 6h1c3-1 3 4 0 5l-9 1 2-2h-6l2-5c1-2 3-1 3-2h-7l3-2-9-1c-8-3-10-6-6-8 2-1 7-2 7 1Z"/><path fill="#D8ACB0" d="M122 201c3 0 3 1 2 4 2 3 2 3 0 6l-3 1h-1l-2-1c1-2 0-3-4-4l-1 1-2-1c5 0 1-6 1-6v-5c-2-9 3-8 6-1 3 2 4 4 4 6Z"/><path fill="#757986" d="m80 188-1-2c-6-4-8-8 2-7 9 0 12 2 4 3-1 4 4 4 6 8h-1l-10-2Z"/><path fill="#545963" d="m73 174 1-1 14 7c2-1 8-2 8 1h-2c3 0 4 0 4 2h-6l-7-1c1-1 3-1 2-2l-6 2-1-2-5 1c3 3 8 0 5 7h-1l-7-2 3-2c-4 0-4-5-9-4l1-2-1-3c-1-2-1-2 1-1 3 2 4 3 6 0Z"/><path fill="#83919D" d="M64 173c1-1 2 1 2 2 2 1 3 3 5 3v1l-4-1-6-2c0-2 0-3-2-5h1l4 2Z"/><path fill="#D7D3D3" d="M106 224c5-1 10 0 8 6v5h-2v-4l-6-2c-5-3-3 3-8-1l5-3 3-1Z"/><path fill="#615E61" d="m112 231-1 1c0 2-5 3-7 2l-1-3c4 1 3-2 3-2 3-3 6-2 6 2Z"/><path fill="#838287" d="M111 232v3l-7 1-1-2h1l3-2h4Z"/><path fill="#7E8E9E" d="M94 233c-1-5 5-4 5-3 2 1-5 2 0 4l-4 1-1-2Z"/><path fill="#5D3633" d="M115 217h2c1 0 1 12-1 13v1l-2-1c-1-5-5-5-8-6 2-1 4-1 5-3 2-2 1-4 1-5 2-2 4-2 3 1Z"/><path fill="#73413B" d="M111 215c1 5-3 3-7 3 0-6 4-3 7-3Z"/><path fill="#C2918A" d="M114 208c6-1 6 4 3 8 1 2 0 2-2 1l-3-1 1-2 1-6Z"/><path fill="#74433C" d="M114 208c1 1 2 4 1 5 0 2-2 0-2 1l-2-4 2-2 1-1v1Z"/><path fill="#5C433F" d="M224 57c-4 4-8 7-13 9l-1-2 14-7Z"/><path fill="#4A312F" d="m202 39 4 17c1 1 2 4 0 5v9c0 3 1 7-3 5 0 2-1 2-2 0-2 1-3-1-3-3-4 0-4-3-2-8v-7l3-9c1-5 3-10 2-15 2 0 1 4 1 6Z"/><path fill="#5B4446" d="m199 15-4 18c-3 7-3 3-1 4l5-6-1 16c1 1 0 2-1 3-4 1-4-2-1-8l-1-3c-1 1-2 1-2-1 0 2-1 2-2 1l-6-3c6-6 9-14 14-21Z"/><path fill="#3F2A28" d="M211 81c2 1 2 3 1 5-2 4-4 2-3-2l-3-23v-5c-2-6-3-13-3-19v-5l1-4 7 53Z"/><path fill="#C3A3A2" d="m199 48-3 9c1 4-3 11-7 11 2 2-3 5-5 6 0 2-1 2-2 0-1 1-2 0-1-2-2-2 0-7 3-6h2c1-2 2-4 4-3-1-4 4-12 7-13l1-3 1 1Z"/><path fill="#A38E8E" d="M206 56c-3 0-2-2-2-4l-2-13 1-2 3 19Z"/><path fill="#64453F" d="M233 75c4 9 4 12-6 15l-9 6c2 4 1 12-5 11-1-1-2-2-1-3l-2-15v-2h2v-1l-1-5 1-2c0 1 2 3 1 6h3l17-10Z"/><path fill="#A87975" d="M39 77c4 2 6 4 5 7l-1 1c-5 0-5 4-3 8 0 2-7 12-6 6l1-10c1-3 4-6 2-9l-2-1v-1c2 1 4 2 3-1h1Z"/><path fill="#9C7271" d="M42 66c2 3 1 10-3 11h-1l3-12 1 1Z"/><path fill="#6D2C23" d="M165 211c0-1-2-2-3-1 0 0 0 3-3 5-1 2-3 4-5 2l-6 1c0-7-1-8-1-3l-1 1c-4 7-4-9 0-8v1c2 1 5 2 7 1-2-1-2-2 0-3 2-2 2-1 1 1l6-3 2 2 1-1c3 1 4 2 2 5Z"/><path fill="#C28272" d="M161 192c2 0 3 2 4 4 2 4 0 5-2 1l-2 3 1 1c2-2 4-1 3 2-3-1-1 1-2 3l-1 1-2-1c-2 2-4 2-6 2l-1-1c0 2-5 1-6 0s-2-2 0-2c4-2 5-4 3-5v-1c0-3 1-3 3-2l3-3c0-2 0-4 3-3 1-1 2-1 2 1Z"/><path fill="#483A3C" d="M166 190c2 1 3 3 2 5l5 5 12 4-2 1-7-1c-2-1-4-4-7-4-2 0-2 4-1 4l-2 1-1-2c-2-2-3 0-6-1l2-2c0-2 1-3 2-3l2 1v-2c-2-1-3-4-1-5 0-2 1-2 2-1Z"/><path fill="#7D8C9D" d="m208 192-2 8-2 1-1 4h-6c1-3 4-5 5-6l-1-3c0-1 4-3 2-4h5Z"/><path fill="#D6DCE2" d="M232 220c2-3 5 0 3 3 5 8 0 9-6 2-6-6-2-5-3-6l6 1Z"/><path fill="#8A6968" d="M234 217c2-2 4 1 5 2l-2 2h3c1 2-1 1-3 3l-2-1-3-3 2-3Z"/><path fill="#B9C2CD" d="M186 187c1-2 6-4 6 0 2 3 3 4 6 5 0 5-4 6-9 6-1 4 7 0 8 3h-12c-4-1 0-3-1-3l-6-1-3-3h4c-1-3-4-2-7-2-2 2-6 3-5-2 4-2 8-2 13-1l-3-1 2-1h7Z"/><path fill="#CED6E0" d="M194 176c3-3 3 1 1 4v3c2 1 2 2 0 3 3 2 4 4 4 6h-1l-4 1-4-6-7 2c0-2 2-1 3-2v-1l-4-3c0-3 4-6 6-5l6-2Z"/><path fill="#B9C2CD" d="M196 183c5-5 8-1 8 5-1 4-2 3-5 4l-7-5 3-4h1Z"/><path fill="#8F94A1" d="M200 179c4 0 5 6 7 10l-3-1-6-1 5-2c-3-5-2-2-5-2h-2c-4-3 0-8 4-4Z"/><path fill="#7B676A" d="M167 190c-1 3 2 1 5 2l3 2h-6l3 1-2 2 6 1-3 2-5-3-2 1v-8h1Z"/><path fill="#92959C" d="M189 161c4-3 7 3 9 4 6 2 7 4 13 8l11 9h-2c-1-2-2-2-4-2h-2c0-4-5-5-8-7-2-1-1-3-3-2s0 2 0 2l-2-1-12-8v-3Z"/><path fill="#AFAEB6" d="M189 161c4 3 9 6 12 11h-3l-3-4-1 2-9-3c-4-1-8-6-2-6h1c0-2 1-3 2-2l3 2Z"/><path fill="#B9BCC7" d="m196 174 4 4v1h-4v4h-1c-6-3-1-4 0-7s-1 0-1 0c-4 2-6 2-5-1-2-2-2-3 0-4 2-3 6 1 7 3Z"/><path fill="#514A54" d="m194 170 2 4c-2-2-5-2-7-3l-7 3-2-1c-1 0-2-3 0-3 1-2 3-5 5-3 3-1 7 1 9 3Z"/><path fill="#76514E" d="M200 123c4 0 5 3 5 9-1 3 0 5 2 8l5-1c6-3 11-5 15-4l1 2-6 2-5 3v1l1 1c-4 1-13 2-10 7 2 5 5-3 7-2 1 4 6 4 3 10l6-1-4 5c-4-4-12-7-17-8l-3-1c-1 1-4 0-4-1l-3-6c-3 0-5 0-6-2h-3l-2-1c0-3 2-3 5-2 5-3 6-4 5-10s0-9 2-7c1-3 4-5 6-2Zm27 43-4 1-2-3 6 2Z"/><path fill="#785450" d="M218 120v7c10-4 7-1 3 5-1 1-3 2 0 2-2 3-9 6-14 6-2-2-2-2 0-3l2-13 2-1c-1-2 5-4 7-3Z"/><path fill="#B89088" d="M232 112v1l-14 7-7 3c-3 6-7-5-1-2 0-2 2-2 5-3l11-4c1-3 4-4 6-2Z"/><path fill="#B58B85" d="M227 133v2c-6 0-14 7-20 5 5-1 10-4 14-6s5 0 6-1Z"/><path fill="#A27D76" d="M226 123c1-1 8-6 9-5v2c-2 0-7 5-9 3Z"/><path fill="#B89185" d="m240 109-7 3v2l-1-1v-1c0-2 6-6 7-5l1 2Z"/><path fill="#5C3B34" d="m236 88 1 8c-1 2-3 1-4-1-1 3-4 5-8 6l-1 3c-1 2-7 6-10 5-1 0-2-1-1-2l4-4c-1-3-1-5 1-7l10-5c1-2 9-7 8-3Z"/><path fill="#643D35" d="M227 105c3 3 1 5 7 3s3-3 3-3c3-2 2 1 2 2l-7 5-22 9c-4-2-1-6 4-5 0-4 5-6 8-3l4-8h1Z"/><path fill="#4A2921" d="m224 104-3-3 10-5c1-2-2-4 1-5 2-1 3 5 5 5v1c-2 3-9 7-13 7Z"/><path fill="#D5B2AA" d="M237 97s2 1 1 2c-4 1-7 4-11 6s-1 0-1 0c1 3-12 8-12 7v-3l10-5 13-7Z"/><path fill="#9D7C73" d="M234 75h1c1 3 1 5 3 7l3-1-4 4-1 3c-2-2-6 1-8 3-1 0-2 0-1-1 2-1 8-4 8-6 0-1-1-7-4-5l2-4h1Z"/><path fill="#5C3B37" d="m223 140-6 3h-3c-1-1 7-4 8-4l1 1Z"/><path fill="#6E646D" d="m162 233-2 5c-5-2-4-4-3-8l5 3Z"/><path fill="#8D5C5E" d="m154 234-3-1 3-4v5Z"/><path fill="#A97D75" d="M28 102c1-1 2-1 4 1h1c2 1 4 3 7 3v2l2 1c4 3 8 5 1 8-2 1-8-2-9-4-3-2-4 0-5 6h-2c-1-2-5-1-5-1l2-12c-4-3 0-8 4-4Z"/><path fill="#A37169" d="m11 95 5 2c3 1 4-2 3 3l3-1-2-3c4-1 4 2 5 3 2 0 3 1 3 3-3-1-3 1-4 4-3 0-2 5-6 1s-2-6-3-8l-4-4Z"/><path fill="#90675F" d="M27 119c3-4 3-8 4-12 2 0 1 3 2 5l1 1-3 2c2 1 2 1 0 2 1 4 0 6-2 6v1c3 1 2 3-1 4 3 1 3 1 0 3h-2c-2-1-2-5 1-5-2-1-1-2 0-2l-2-3 2-2Z"/><path fill="#B39799" d="m27 124-1 7h-5v-6c1-3 5-4 6-1Z"/><path fill="#A97D75" d="m25 121 3 1c1 1-1 2-1 2-1-1-4 0-3 1 1 0 3-1 2 1l-5-1v-6l4 2Z"/><path fill="#986763" d="M34 99s1 2 1 0c-1-3 7-7 1-7l2-10c3-1 2 1 2 2h4c2 0 2 3 1 4l5 8-2 2c-4-2-6 1-6 7h-3c-1 1-5 0-6-2 0-1 1-2-1-4l-4-2c0-2 2-10 4-8s-2 5-2 7 3 2 4 3Z"/><path fill="#CE9A94" d="m32 103-4-1-3-3c3 0 6 1 7 4Z"/><path fill="#956B70" d="M179 26h1c0 3-1 4-2 5-2 3-4 4-8 2-1 2-4 3-5 1v-2c1-1 7 0 0-3 5 0 10-1 14-3Z"/><path fill="#B3ACB0" d="M178 228c3 1 3-2 3 2-4 4-12-5-7-6s2 3 4 4Z"/><path fill="#252731" d="M43 153v1l-3 4c-3 1-5 4-6 1v-1c4-1 3-2 4-3 0-1 1-2 3-2 0-2 2-2 2 0Z"/><path fill="#6E7D8F" d="M21 131h7v1h-1c0 1-1 2-3 2-1 10 5 21 16 17l1 2-3 2c-6-1-9 4-14-2-4-6-2-5-3-7-2-2-5-2-5-5-1-3 3-8 5-8 1-2-2-1-3-1 1-2 2-1 3-1Z"/><path fill="#501F20" d="M119 231v4h-1c1-2-1-4-2-5-1-4 1-10-1-13l2-1c-1-3 0-3 2-1 3 6 3 11 0 16Z"/><path fill="#D5AEAE" d="m58 83 4 7 2 7c1 0 5 0 5 4v1c-6 0-4-2 1 0s4 2 4 5c0 4-1 12-5 9-2 1-7-1-8-3l-2-1c2-6 2-10 0-12 3-4 0-9-5-8-3-1-2-5 1-5l3-5v1Z"/><path fill="#E3C1C1" d="M69 101h2l5 2v2l2 2a158 158 0 0 1-4 17c-1 1-2 2-3 0-4 1-4-1-2-6-2-1-2-1 0-2l2-2c2-8 3-11-7-13h5Z"/><path fill="#794E4C" d="m45 65-1 12 1 4c3 3 4 6 2 8 0 1-1 1-2-1l-1-4v-2c-1-1-6-1-5-5l3-11 2-9h1v8Z"/><path fill="#B48783" d="M47 83c3-1 7 1 8 4l-1 5c3 2 2 4-1 5-3 2-6-6-6-8l-2-8c0-2 0-4 1-3l1 5Z"/><path fill="#996A68" d="M53 73c1 1 2 2 1 3 0 1-2-3-2 0 1 3 4 10 3 11l-8-4c3-4 4-9 4-14l2 4Z"/><path fill="#BF9795" d="M46 65c0 4 0 9-2 12l1-12h1Z"/><path fill="#AD8777" d="M18 237c3-1 9-2 8 2l-8-2Z"/><path fill="#765857" d="M185 61c-4 1-4-10-2-12-1-1 1-2 2-2l5-6 1-2 2-1 1 1c-1 7-6 16-9 22Z"/><path fill="#917879" d="m182 40-1 1-4 7c1 3-7 9-8 5-1-3 7-13 8-13h1c0-1 0-2 1-1l1 1c0-2 2-3 3-4 2 2 0 3-1 4Z"/><path fill="#957A7B" d="M184 46c0 2-8 6-8 4l5-9 1-1 2 6Z"/><path fill="#BCA0A2" d="M185 47c-1 1-2 1-1-1l6-5-5 6Z"/><path fill="#C09596" d="m132 212-3 5c0 1 6 1-1 4l-1-1-2-8c-3-7 5-4 7 0Z"/><path fill="#8D6467" d="M125 212h2c-1 2 1 6 1 9v1h-1c-3 2-3-6-2-8v-2Z"/><path fill="#5B3B43" d="M132 224h-1v22h1v-22Z"/><path fill="#5F4143" d="M135 225v11l1 4c-3 0-2-2-2-4v-12c1-1 1 1 1 1Z"/><path fill="#633B3C" d="m135 213 2 1c-2 1-1 5-1 8l1 1c-5 1-2-7-3-11 2-2 2-1 1 1Z"/><path fill="#CEA4A6" d="M133 212v10l-1-10h1Z"/><path fill="#C89895" d="M136 209c3 0 3 5-1 4l-1-1h-1c-3-1-2-4 1-3 1-2 2-2 2 0Z"/><path fill="#9A7378" d="M143 207v1l-2 7-1 1-4-1v7l-1-9c0-3 2-3 1-4 1-4 9-8 7-2Z"/><path fill="#A46B67" d="M146 207v1c-3 2-5 9 0 8 3 0 1 5 0 6-2-1-2 1-2 3l-2-1v-8c-1-3-1-7 1-8v-1c0-1 0-2 1-1 2-3 3-2 2 1Z"/><path fill="#753E3A" d="M142 216h-2c0-1 3-2-1-3l2-2-2-1 4-2-1 8Z"/><path fill="#3E2935" d="M141 38c6 1 5 3 1 6 1 5-7 10-10 4-1 1-2 0-1-1-3-1-2-2 0-3-3-3-3-4-1-5-4 1-6 4-5 8l-2 1c2-3-2-6-2-7l3-2c2-2 1-3 1-3l1-1c4-3 13-2 15 3Z"/><path fill="#B67F78" d="m136 93 7 1c2 0 3 1 3 2 3 2 0 5-3 3-1 3-3 2-4 0 0 2-1 2-2 0-1-3-4-5-6-1 1 2 1 6-2 6-4 3-6-3-3-6l-1-2h-3c-4-1-3-2-1-5s13 0 15 2Z"/><path fill="#313133" d="M120 55c2-2 3 0 3 2 2-1 2-1 1 1 2-1 3 0 2 2l5 8 2 2c2 1 2 4-1 4 1 2 1 7-1 8-2-3 0-6-2-9-1-3-4-3-5-3 0-1 2-4 1-5l-6-7c-1-1 1-2 1-3Z"/><path fill="#85544D" d="m122 89 10 2c2 0 3 0 4 2-5-1-10-3-15 1l1 2-7 2c-2 0-5-2-4-4l4-5c2-3 5-2 7 0Z"/><path fill="#512F22" d="M88 71c6 0 5 3 8 4h7c2 1 1 3 1 4 1 5-3 4-5 0l-2-1c-1 2-2 2-2 0-6-2-8-4-7-7Z"/><path fill="#634A4F" d="m142 89 13 2v3c1 2 0 8-4 6-3 2-4-1-5-4l-3-2c1 0 7 2 6-1-1-2-6-2-7-4Z"/><path fill="#402A28" d="m109 86 1-4c2 2 5 2 8 2l4 5h-7c-1 2-5-1-6-3Z"/><path fill="#472323" d="M96 36c3 4 2 6-1 5v-1l-5 1v3c2 1-2 8-3 5 1-4 0-5 2-9l5-8 2 4Z"/><path fill="#A47791" d="M123 48c2-3 1-5 1-7 2-7 18-1 6 0l1 3c-3 0-5 1-5 3 2 1 1 2-1 2h-1c0 2-1 2-2 0l1-1Z"/><path fill="#484953" d="M132 74c4-2 5 1 4 8l3 6c-5-2-7 0-8-6s0-5 1-8Z"/><path fill="#8F6C60" d="m107 85 2 1 6 3 1 4-5 1c0 2-1 1-2 0-1 1-2 0-1-1l1-1 3-1-6-2c-1 2-4-1-4-3-1-5 3-3 5-1Z"/><path fill="#472323" d="m92 47 4-1 1 5c-5 0 0 6-5 7-1-1-3-2-3-4l3-7Z"/><path fill="#5D302B" d="M86 56v7c-1 2-4 3-3 5 2 2 3-1 5 3-1 2-2 2-4 0-2 2-4-1-2-3 0-3 0-12 4-12Z"/><path fill="#7A524E" d="M90 44c4-1 2 1 1 3l-2 7h3v4l-6-2 1-7c3 1 3-3 3-5Z"/><path fill="#714F3E" d="m99 79 3-1-1 3c2 0 2-1 3-2l3 6s-2 1-4-1l-1 2-1-2c-2-1-3-4-2-5Z"/><path fill="#74787D" d="m122 49 4 7-3 1-3-2-2-3c-1-1-3 1-3-1 4-1 3-2 7-2Z"/><path fill="#93939E" d="M137 81c5 4 10 7 16 7 2-1 3 0 3 3 2 0 1 2-1 3l-13-5-3-1c-2-1-3-6-3-6-1-2-1-2 1-1Z"/><path fill="#6A4D4A" d="m96 36 3 1c4 6-1 3-2 3 0 0 0 3-2 3v-2c0-1 2 0 1-2 0-1-5 0 0-3Z"/><path fill="#C08F88" d="M89 54c-2-2 1-5 2-7h1c1 3-1 5-3 7Z"/><path fill="#3E3E3B" d="M112 24c2 3 4 5 4 9-3-1-2-7-4-9Z"/><path fill="#BD9FAA" d="m93 21-1 10c-6-1-2-6-2-9l1 1c0-2 1-3 2-2Z"/><path fill="#F7DBE1" d="m82 68 2 3 12 8-1 6c2 6 1 11 0 17 1 2 0 3-1 3-1 1-1 2-3 2l-15-3v-1h6l-6-2 4-32c0-2-1-3 2-1Z"/><path fill="#C0BEC1" d="m134 22 1 6 2-5 3 2c0 1-5 1 0 4s1 0 1 0c3-2 5 0 3 3 3 1 8-1 9-3 2-2 3-2 4 0l2 5c2 3 5 8 1 11h-1c-2 2-3 1-3-2l-11-3-1-2c-4-1-8-3-10-6h-2c-2-2-1-4 1-6l-1-2v-3l2 1Z"/><path fill="#B19099" d="M170 33c5 1 0 4-3 5l1 7c7-3 7 0 2 7 1 4-7 5-9 2-2-2-2-7-1-9l-1-11c5 6 3 1 4 0h2l5-1Z"/><path fill="#E1E2E4" d="m157 29-3 1c2 7-2 2-4 2-3 1-2 4-6 0 2-3 4-4 7-5 1-2 3-3 2-5l4 7Z"/><path fill="#9B989A" d="m141 29 1-5c4-1 1 2 1 2 3 1 2-3 3-2s3 5 5 3c-2 4-2 4-7 5l-3-3Z"/><path fill="#A9ABAF" d="M134 32c3 0 6 3 8 3 3 1 3-2 2 3h-3c-5-1-9-4-15-3l1-2c2 1 6-1 7-1Zm-2 0c-1 0-5 0-5-2l6-4-1 6Z"/><path fill="#DFC7C7" d="M178 36v4l-8 13c3 2 9-11 11-12-4 8-7 12 3 5l1 1-2 2c0 3-5 6-8 4 0 3-2 4-4 3 1 3-2 6-5 5 0 3-3 4-5 2l-2-5c0-2 0-4 2-4l7-1 5-9c-3 2-3 1-5 1 0-2 2-3 5-5 1-3 2-5 4-5l1 1Z"/><path fill="#976F77" d="m178 31-1 4c-2 6-1 8-9 10h-3v-8c1-2 6 0 5-4l8-2Z"/><path fill="#7B6464" d="m179 39-1 1-1-1 1-3 3-5-2 8Z"/><path fill="#7F5358" d="M119 215c2-2 3-1 3 4l2 4c1-1 2-1 1 1l-2 3v1c-1 0-2 0-3 3h-1v-16Z"/><path fill="#7F5358" d="M125 231h-4c-1-2 0-3 4-3 2 2 0 2 0 3Z"/><path fill="#9A7378" d="m123 227 2 1c1 4-4-2-4 3h-1c-1-4 2-4 3-4Z"/><path fill="#C1979D" d="M125 214c0 3-1 9 2 8l-2 2-1-1c-1-1-2-2 0-2v-7h1Z"/><path fill="#8D858B" d="M182 154c1 2-3 1-2 1 3-1 6 0 8 1l-3 1 1 2v3l-2-1-9-5h-7v1c2 2 2 2-1 2-2 2-6-3-5-5l-1-2c2-4 18-1 21 2Z"/><path fill="#D9D9DD" d="m196 153 4 1c1 4-2 1-4 1-3 1-6 0-8-1-3-1-2-1 0-2 3-3 6-2 8 1Z"/><path fill="#1A1115" d="M188 154c2 0 5 2 8 1l-8 1h-9c0-2 2-1 3-2 1-2 5-2 6 0Z"/><path fill="#845B50" d="M241 69v1c-3 1-1 4 0 6-2-2-3 1-4 3-2-1-2-4-1-6l4-4h1Z"/><path fill="#C6A092" d="M241 69c4-3 6-3 2 1 5 0-1 6-2 0v-1Z"/><path fill="#DFA59E" d="M146 216c0-1 1-5 2-4-1 6 0 5 6 5 1 1-1 1-2 1-2-1-5-1-4 2s6 0 7 3c-3 0-5-2-6 2l-3-3v-6Z"/><path fill="#B76C64" d="M159 215c-1 4-1 4-5 4-5-1-2-1-2-1l2-1 5-2Z"/><path fill="#BFA49D" d="M234 73c2 0 2 1 0 2h-1c-5 3-11 8-17 10l16-11c5-4 1-2 1-2h1v1Z"/><path fill="#4A2920" d="m236 73 1 6 1 3-2 2-2-9v-2h2Z"/><path fill="#231E26" d="M64 150c4-3 14 1 16 6 2-2 2-1 1 1 3-1 5 2 5 5-4 1-9 0-10-5l-7-3c0 3-3 3-5 1H54c0 1-1 2-4 2l-2-1c-1-3 6-5 8-6 4-2 7-2 8 0Z"/><path fill="#969DA8" d="m71 168 17 11v1l-15-6-10-10c3-2 6 2 8 4Z"/><path fill="#898892" d="M64 150c-5 0-12 2-16 6h-1c-4-1-3 0-7 2 0-2 2-3 3-4 1-2 2-3 3-2l4-2c4-3 8-4 10-2 0-2 2-3 3-1 3 1 3 2 1 3Z"/><path fill="#262C35" d="M73 168c2-1 7 4 7 6l1-1 16 4v2h-9c-9-2-11-6-17-11h2Z"/><path fill="#89929D" d="M64 158c3 0 10 4 9 7v3h-1c-2-4-6-7-10-8-5-2-1-4 2-2Z"/><path fill="#6E717C" d="M64 157v1h-3l1 2-14-1 2-2h14Z"/><path fill="#798690" d="m67 174-1 1-2-2c-2-2-2-4-6-5l-1-2h1c5 2 6 5 9 8Z"/><path fill="#F3CBD7" d="M128 162c2 1 2 5 0 7l5 10c3-3 6 3 8 6h1l1 2c2 0 2 2 1 6l1 1-6 7c-2 2-5 4-7 2 0 5-8 0-10-2s-8-7-8-10c-1-1-2 4-2 5h-1l-3-6c2-4 2-2 2-2l4-5h1c-3-5 10-12 11-10 0 2-6 1-6 0-1-2 1-4 6-5v-5c-1-3 0-3 2-1Z"/><path fill="#D8ACB0" d="M112 175c3-1 4-1 3 2v6l-1 7-4-2v-1c-2-1-2-1 0-2-2-1-2-1 0-2l-2-6c-1-2 5-6 4-2Z"/><path fill="#CDC4CF" d="M98 183c3-2 10 0 12 2v2l-18-4h6Z"/><path fill="#5D4851" d="M108 190c4-1 1 3 3 6l-4 1 1-7Z"/><path fill="#F1CFCD" d="M132 203c3-2 6 5 2 6l-1 3h-1l-7-3v5h-1v-3c0-4-2-5-2-6s2-3 0-4h4c3 1 2 3 6 2Z"/><path fill="#A07273" d="M121 212c3-2 3 0 3 6v5c-3-2-4-4-4-8h-1c-2-2-2-4 1-3h1Z"/><path fill="#89534F" d="m120 212-1 3-2 1c-1-2-2-6 1-5 1-1-3-2-4-3v-1c3-2 6 2 6 5Z"/><path fill="#704543" d="M124 211v10c-3-2 0-6-1-9h-2l-1-2 4 1Z"/><path fill="#62413F" d="M196 57c3 5 1 9 0 14l8-2-4 3 1 3c-1 3-4 5-9 6 0 2-1 2-2 0-2 1-3 0-2-2-1-1 0-1 1-1 1-3 0-5-1-8l1-2 7-11Z"/><path fill="#7B5B5B" d="M203 75c3-3 5 3 1 3v1c4 2-2 7-4 3-2 2-2 2-2-1h-1c-4 2-6 2-5 0s7-6 9-6h2Z"/><path fill="#917875" d="M209 84c-3 0-4-4-2-6-2-1-2-4-1-8v-9l3 16v7Z"/><path fill="#62413F" d="M207 78c1 3-1 3-3 1-5 0-3-2 1-2v-1l-2-1c2-2 4-2 3-5l1 8Z"/><path fill="#5F4344" d="m197 50-7 13c-2 2-4-1-3-3l8-21 3 1c0 1-4 8-1 10Z"/><path fill="#C4A4A5" d="m195 39-8 21c1 1 1 2-1 1h-1c3-8 8-15 8-23l2 1Z"/><path fill="#B38C87" d="m209 84 1 3 2-1s2 0 1 2c-1-1-2 0-3 1h-1c-1 4-7 6-11 4-1 3-7 7-10 4 0 2-4 4-5 1l-1-1c-1-3 0-3 2-1 1-2 1-3 2-1 1-2 4-3 6-2l17-9Z"/><path fill="#916669" d="M185 61h1c2 2 1 5-2 5l-3 6c1 2-2 5-4 5h-1c-5 1-2-11-1-14-2-4-2-8 0-10l8-4c1 4 0 9 2 12Z"/><path fill="#DBBCC0" d="M182 74v1c1 3 0 4-3 5v1c6 0-3 6-7 4 1 3-4 5-6 3 0 2-2 2-5 2l-3 8c2 1 3 2 2 4s-3 3-6 3v1c3 1 2 7 0 10l1 2 11-4 2 2c2 1 2 3 0 3l-12 2-11 1c-2 1-2 0-3-2v-4c-1 1-1 1-1-1-2-1 2-6 3-7-2-3-1-5 1-5-1-4 4-4 6-3l4-6 1-3c-2-3-2-4 0-5-1-2 0-3 2-2l8-1 2 1c-1-3 2-4 4-2 0-3 2-6 5-5l4-5 1 2Z"/><path fill="#9A7576" d="m184 74 2 2c3-1 4-1 3 2l-1 1c0 1 0 2 2 2h2l1 1 5-2v1c0 3-5 6-8 4-3 2-4 4-2 6l-2 2c3 0 2 1 0 2l-2 1c-2-1-3-3-2-7l-1-1h-3c-4 3-9 1-6-3l8-3-1-1 3-6v-1h2Z"/><path fill="#785755" d="m189 68 2 2c-2 5 2 4 5 3-1 3-5 3-7 5v-1c-5 1-6 2-5-3s4-4 5-6Z"/><path fill="#765553" d="m190 63-5 7-1-4 2-5 1-1 3 3Z"/><path fill="#865E58" d="m213 107 1 2 1 2 11-6c3 5-1 5-1 5-2 2 2 1 2 3l-6 2c-2 0-1-2-1-2l-5 2v2c-2 2-5 1-5 1v3l-2 1 3 1c0 1 1 6-2 8l7-1c-1 2-5 2-7 3-1 1 2 5-2 4h-1l-4-18c-3 1-5 0-4-2 4-3 8-4 13-6l1-1c-3-1-3-4-1-5l1-1 1 3Z"/><path fill="#9C7A74" d="m212 104-1 1c-4-4-4-12-2-16h1c2 4 1 10 2 15Z"/><path fill="#997972" d="M228 91c-3 2-6 5-10 5l9-6 1 1Z"/><path fill="#DE9B8D" d="M154 208c3-2 8-9 8-1l-6 3-2-2Z"/><path fill="#632A20" d="M153 207v3c-1 1-5 0-7-1v-2h7Z"/><path fill="#B97D72" d="m153 210 1 1c-3 1-6 1-8-2l7 1Z"/><path fill="#E6AC98" d="M159 184c2 0 4 2 3 5 1 1-2 2-3 2-3 2 0 4-1 4-1 1-3 1-3 4l-2-2c-2 1-3 0-3-2l-5-2c-1-2-1-4 1-4 2-3 4-4 6-3 0-3 2-3 5-3 0-2 1-1 2 1Z"/><path fill="#9B6059" d="m150 195 3 2c0 2-2 1-3 2 0 3-1 5-3 6v2h-1l-2-1c-3-1 0-11 1-12 2-1 4 0 5 1Z"/><path fill="#433233" d="M177 188s4 1 3 2h-14l-2 1c0 2-1 2-3 1l-2-1 3-2c1-3 1-3 2 0 1-3 1-3 2-1 1-4 10-3 11 0Z"/><path fill="#8C534A" d="m150 199 4 1c0 3-4 6-7 5l1-6h2Z"/><path fill="#DB9F95" d="m164 191 1 5c-5-1-3-3-4-4l3-1Z"/><path fill="#EBB5A1" d="M163 197c1 4-1 2-2 3l-1-1c0-4 1-3 3-2Z"/><path fill="#DFDEDF" d="M171 182c3-1 8-2 10 1h1c3 0 3 1 4 3l-7 1-2 1h-11l-1-4c-5-3 2-4 6-2Z"/><path fill="#53575C" d="M186 186s2 0 0 1h-7l-3-1h10Z"/><path fill="#E8E6E9" d="M180 173c5 0 5-6 7-4 2 1-1 1 2 2v4c2 2 2 2-1 3-1 2-3 4-6 5h-1l-4-3c-1-2-4-2-8-1h-1c-4 3-7-1-4-4 1-4 13-5 13-1 1 4-1 0 1-1 1-2 2-2 2 0Z"/><path fill="#899098" d="M189 175c2 4 3-2 5 1-2 1-3 3-5 3l-1-1 1-3Z"/><path fill="#DFDFE6" d="M173 157c4-1 8 1 10 4l-1 3 5 1-2 2c-1 1-2 3-5 3-1-1-1 0-2 3 0 6-2 1-3 1l-11 1c-3 4-5-8-6-10v-1h1c3-1 5-3 5-5h3l1-2c0-2 4-1 5 0Z"/><path fill="#62616A" d="M184 161h-1c-3-1-7-4-10-4l2-1c3 1 7 2 9 5Z"/><path fill="#84787F" d="M180 170v3h-2l-2-5c1-1 4 0 4 2Z"/><path fill="#966D6A" d="m198 117 4 2v1c4 3 2 6-2 3l-6 2c-2-1-1-4 0-4l-1 3-1 11c-6 2-7 3-4 4 2 2 1 3-1 3l-5 2c-2 1-6 3-8 1v-9c-3-1-3-5 0-3 0-1 0-2-2-3s-3-2-1-4v-2c2-2 5-2 7-2 5-4 14-5 20-5Z"/><path fill="#8B5F5C" d="m194 125-1 1c1 2 3 1 3 3h-2v13h-7c3-2-2-1-3-1 0-1 1-3-1-5l9-3-8 1c-1-5 4-3 7-6h-3l3-1-3-3 4-1 2-2v4Z"/><path fill="#906B68" d="M187 145h5c1 0 4-7 3 4l3-1-2 5-8-1c-3 2-16 1-13-4l12-3c4 1-2 2 0 0Z"/><path fill="#69423F" d="m202 119 4 3 1 15v3l-6-4c4 0 2-12-1-13h2c2-2-5-4 0-4Z"/><path fill="#8C645D" d="M206 142c2 3-4 4-7 5-2 0-4 0-3-3 3-2 7-3 10-2Z"/><path fill="#8B5F5C" d="m182 144 2 1c-2 2-6 2-9 2-2 2-2 1-2-1-1-2-1-2 1-1h5c1-1-1-3 3-1Z"/><path fill="#D8ADA5" d="m187 145 1 1-13 2v-1l9-2h3Z"/><path fill="#C69E95" d="m206 142-10 2c1-2 8-4 10-3v1Z"/><path fill="#B58A88" d="M50 112c4 0 4 7 0 8 3 3 2 6-1 9 0 2-1 2-2 1l-8-2c-1 1-2 0-1-1l-9-4 2-6h2c2 3 6 7 6 3s1-2 1-2c3 0 4 0 3-1 4-8-2-5-3-9 3-1 8 2 10 4Z"/><path fill="#EAC4BF" d="M39 105c2-3 11 2 11 5 3 1 3 1 0 2l-10-4-7-3v-2l6 2Z"/><path fill="#D0A3A0" d="m34 113 9 4c3 1 5 1 6 4l-9-3c-1 2-7-1-9-3 1-2-1-3 3-2Z"/><path fill="#AA7C79" d="M40 118c4 8-5 5-8 2s0-2-1-3v-2c2-1 6 2 9 3Z"/><path fill="#B39799" d="m41 129 6 1 2-1c2 0 2 1 0 3v1h-1c-5-1-10-1-15 1l-2-2c-1 2-2 2-3 0v-4l1-2 12 3Z"/><path fill="#B48983" d="m38 127 1 1 2 1c-3 2-9-1-13-1l1-4 9 3Z"/><path fill="#E6B8B3" d="M38 127v1l-9-4v-1c4-1 6 2 9 4Z"/><path fill="#A77876" d="m47 89 6 8c3 3 3 14-3 13l-11-5c3-2 1-4 2-6 2-5 4-3 8-3l-4-8 2 1Z"/><path fill="#8A9BAD" d="m27 132 2 1c-2 10 4 19 15 16v2c2 0 1 1-1 2h-2c-3-1-6 1-9 1-6-2-11-13-10-19 1-7 3-3 5-3Z"/><path fill="#4F5058" d="M49 149c3 1-1 3-3 3l-3 2v-1l1-2c0-2 1-2 3-2 1-2 2-2 2 0Z"/><path fill="#A9B4C2" d="M31 132h1c-2 11 5 17 15 15v2l-3 2c-2-2-4 0-7-1-10-1-10-10-10-18h4Z"/><path fill="#BD9393" d="m54 92 3-4c2 2 7 7 6 10l-3 1 3 2-2 12c2 1 2 1 0 2 3 3 1 11-2 13h-2c-3-1-2-6 1-6-1-3 0-5 1-7-1-1-2-1-2 1 3 7-3 11-7 4v-10c5-5 2-7 3-13l1-5Z"/><path fill="#F5E1DD" d="M69 116v2c-1 4-9 1-8-3v-2c3 1 6 0 8 3Z"/><path fill="#F3DAD7" d="M76 105h1l16 2v5c0 2-1 2-2 2-2 3-9 9-13 7 0-1-1-1-2 1 1 2 0 3-2 1 2-6 2-12 2-18Z"/><path fill="#847479" d="m74 124 1 2c-4 3-3 5 1 8 7 5-8 3-11 1l-1 1c-2 2-4 1-4-2-3-1-4-1-5-4-2-2 0-4 2-2h2c2-4 9-6 12-4h3Z"/><path fill="#D7B3B2" d="m69 118 1 2c0 3-2 4 1 4l-12 4 2-13c2 2 5 3 8 3Z"/><path fill="#775149" d="m80 124-1 2-3 7v1c-9-3-3-7-2-10v-1l2-1c1-2 2-2 2-1 7-3 8-2 13-7 2 4-6 9-11 10Z"/><path fill="#CFB3AF" d="M94 105c2 1 3 4 0 5 2 1 1 2-1 1l-2-2-15-4v-1l18 1Z"/><path fill="#D9A4A8" d="M132 203c6-2 8-5 9-10l1 2 2-2h1c4-1 3 0 5 2h-4l-2 11-1 1v-2l-7 4h-2l-2-6Z"/><path fill="#53545B" d="M142 44c3-1 8 9 6 11-1 4-8 4-11 2h-1c-1 4-5 0-2-2-2-3-2-5-2-7 4 4 6-2 10-4Z"/><path fill="#7A767D" d="M144 38c5 1 8 2 12 5 0 2-2 2-4 2 1 1 2 2 0 4-1 7-6 0-7-4l-3-1c0-3 3-5-1-6h3Z"/><path fill="#A6A3B3" d="m131 47 1 1c1 2 1 4 4 4l-2 3-2 1c-1 1-4-2-4-3 1-1 0-3-3-4l1-2c2-2 4-2 5 0Z"/><path fill="#E8D1E0" d="M131 44v3c-1 0-3 2-5 0 0-1-2-3-1-4s5-1 6 1Z"/><path fill="#5C2721" d="M111 94c4 4 6 2 11 2h3c2 1 1 4-2 3l-1 1c-4-2-6 0-6 5 2 1 1 2-1 1-3 8-6 6-6-2-2-3-2-7 0-10h2Z"/><path fill="#643436" d="M143 99c3-1 5 2 2 4l-1 5h-1c-1 3-2 7-4 4-2 0-3 0-1-2-3-1-3-4-1-6l2-5h4Z"/><path fill="#B06E66" d="M139 99c2 2 0 4-2 5-2 2-2 3 0 4v2c1 2-5 2-6 0-2 0-3 0-1-2-2-1 0-5 2-5 1-3 3-7 5-4h2Z"/><path fill="#9D504D" d="M125 96h4l-3 6 3 2c3 2-7 8-6 3-1-1-2-3-1-6-2-1-1-2 1-2l2-3Z"/><path fill="#D8A79A" d="m131 98-3-4 11 1-2 4-5 4c-3-2-1-4 1-6 3-2-1 2-2 1Z"/><path fill="#836369" d="m146 96 3 1c1 1-1 3 2 3l-6 3-2-4 3-3Z"/><path fill="#D08B86" d="M131 98c7-4-1 3 1 5l-2 5-7 14c3 1 2 9-1 10 1 1 1 3-1 4h-1c-1-5-1-9 1-10-1-2-4-8-1-9-2-1-1-5 1-6 0-3 0-4 2-4l2 1 1-3c1 4 2 1 3-1l1-3c0-1-5 0 1-3Z"/><path fill="#252123" d="M137 57c1 0 3-5 3 0 3-2 5-2 8-2 0-3 1-3 2 0v1c3 3-3 8-5 9-3 1-1 0-1 1l2 3c2 1 8 5 3 5 0 1-1 2-4 1l1 2c3 1 4 5 0 4 0 3-8 3-9 0l-1 1h-3c1-3 2-7-1-8l1-4c2-4 4-8 4-13Z"/><path fill="#5D646B" d="M137 57c0 4 1 9-2 12-2 4-2 1-2 1-4 1-5-7-7-10h1c4-3 4 4 5 7v-1l1-3 1-1c0-3 0-5 2-5h1Z"/><path fill="#AFB3BD" d="M124 49c2 1 4 2 3 4 5 2 6 8 5 13v2h-1c0-3-1-7-4-8-1-2-1-2-3-2l-1-1c2-4-3-4-1-8h2Z"/><path fill="#74787D" d="M127 60h-1l-2-2c2-4 6-1 3 2Z"/><path fill="#734E3E" d="M88 71c4 5 1 5 9 7 2 1 3 4 2 6l-1 1 5 10-2 2c-3-1-4 1-3 5l-2 2-1-2c0-7-2-14-1-21 1-6 1-2 1-2l-9-5-2-3h4Z"/><path fill="#8F6C60" d="m99 79 2 5c1 2 1 3-1 2-2 1-2-1-1-2l-2-6 2 1Z"/><path fill="#D4D4E2" d="M125 49c4 0 6-1 7 4h-5s-3-2-3-4h1Z"/><path fill="#462319" d="m99 84 1 2h1a58 58 0 0 1 8 8c2 3 0 4 1 6l1 3v6c2 2 2-3 2-3h2c2 2 2 5-1 8l1 18c-1 6-1 2-2 2-1 1-1-2-1-2 2 2 0 7-4 1-5-3-4-11-2-16l-6-2c-3 2-5 2-7 1-2 0-1-3 0-4v-1l1-1 3-3c0-3-1-7 3-6-1-2 0-4 1-4-1-3-3-5-3-8-1-3-2-9 1-5Z"/><path fill="#D5B7A9" d="m102 86 4 3c2 0 4 0 6 2l1 2h-5c-4-3-5-2-8-7l1-2 1 2Z"/><path fill="#9E837A" d="M112 91c-3 1-4-1-6-2 3-2 5-1 6 2Z"/><path fill="#C4C7CA" d="M146 81c2-2 5-1 4 2 2-1 3 0 3 3 2 0 2 1 0 2-1 1-1 2-3 2-3-1-14-4-13-9h9Z"/><path fill="#A88376" d="m96 104 1 3v3h-3v-5l1-3 1 2Z"/><path fill="#A08D9E" d="m156 43 3 2c1 2 1 5-2 5h-1c-1 2-3 1-4-1l-3-6h7Z"/><path fill="#766875" d="m161 54-2 4c-3 1-4-2-2-8l2-5h1c1 3 3 3 1 9Z"/><path fill="#CFCED7" d="M159 58h4c-2 2-1 3-2 5 3 1 1 7-2 8 0 4-4 10-6 4l-7-6c0-1-2-1-2-3l2-3c6 1 6-3 4-7v-3c3 0 5-1 6-3h1c0 2 0 6 2 8Z"/><path fill="#C39AA5" d="m166 61 2 2v21c-3 1-8 4-10 0l-2-1 3-12 2-8 5-2Z"/><path fill="#AD7C84" d="M171 56c4 0 4 7 3 10-2 4-4 10 0 13l-2 3-4 2c-2-1-2-1-2-3V61l5-5Z"/><path fill="#9F6E75" d="m175 53 1 9c0 4-3 12 1 15l-5 5c1-3-2-3-2-5v-8l3-4-2-9 4-3Z"/><path fill="#BDB9BF" d="m173 146 2 1v1c4 6 8 3 13 4v2h-6c-5-1-14-3-18-2s-2 2-2 2c0 2-1 2-2 0-2 3-4 4-7 2-2 1-3-1-2-4l-8 1c-2 1-3-1-4-2v-1c9-3 20-5 28-4h3c2-2 2-2 3 0Z"/><path fill="#625359" d="m162 154 5 5c-2 2-4 4-8 5-3-1-2-4 1-5-3-1-4-4 0-5h2Z"/><path fill="#40373C" d="m175 156-2 1h-7c-3-4 7-2 9-1Z"/><path fill="#C2C0C6" d="M91 149c3-2 8 1 7 4 3-3 8 2 7 5 2 1 3 3 1 5v1c-2 1-1-2 2 0 2 3 0 1-1 2h-2c-4 0-13-2-15-6l-9-3-1-1v-1l2-3c-3-3 2-5 5-5 3-1 4-1 4 2Z"/><path fill="#B0B0BC" d="M70 148c4-1 14 3 10 7v1c-4-3-10-6-16-6l-1-3c1-2 6-1 7 1Z"/><path fill="#9499A3" d="M69 154c3 0 6 2 7 5v1c1 2 0 2-2 1l-1 1-9-5v-2l5-1Z"/><path fill="#3C3136" d="M81 157c5-3 6 2 8 2l1 1c2 2 1 3-2 2h-2c-3-1-4-5-5-5Z"/><path fill="#C2C0C6" d="M86 162h2v1c-2 4-14 2-12-3v-3c4 3 4 5 10 5Z"/><path fill="#73727E" d="M64 155v1H54v-1c6-2 7 0 10 0Z"/><path fill="#4D4E59" d="M54 155c3 2 7 0 10 1v1H50l4-2Z"/><path fill="#BEC2C9" d="M76 157v2l-7-5c5 0 4 0 7 3Z"/><path fill="#D6D5DA" d="M104 176c1-2 4-1 4 1l4 1c1 2-2 4-2 5-4 1-10-1-14-2-1-2-5-1-8-1v-1h9c0-2 3-2 2-1-1 2-3-3 1-2h4Z"/><path fill="#C1BEC7" d="M60 145c3 0 3 2 0 3-4 0-6 2-9 4-2 0-4 2-5 0l3-3c1-2 7-7 8-4h3Z"/><path fill="#98909B" d="M68 145c2 0 3 1 3 2 1 0 1 1-1 1l-7-1-3 1v-3c1-3 8-3 8 0Z"/><path fill="#C3C5CC" d="M82 173c1-2 4-1 4 1l1-1c3-1 11 1 13 3v3h-3c-6-2-11-2-17-5-1-3 0-3 2-1Z"/><path fill="#A6ACB6" d="M78 169c2 0 5 2 4 4l-2 1c-4-3-4-5-7-6l-1-3h1c2-1 5 2 5 4Z"/><path fill="#363D46" d="M74 161c4 2 6 4 5 7 2 1 1 2-1 1l-5-4c-2-2-5-7-9-7v-1c4 0 7 4 10 4Z"/><path fill="#E7B5C5" d="M122 183c10-3 16 3 13 13-1 0 0 2-2 2-8 0 2-9-3-11s-5 0-6 1c-1 2 2 6-3 5 1-5-3-6 1-10Z"/><path fill="#B87C83" d="M119 160c1-1 2 0 3 1 2 0 3 1 2 5l2 2c0 5-2 1-6 5 1 2-1 2-2 1l-6 1s-1-2-4 2l-4-1v-1c-1-1 0-2 1-1 1-2 3-2 2 0h2c-1-2 0-3 2-2l5-4c-2-1-1-2 1-2 0-4 0-6 2-6Z"/><path fill="#CC8FA2" d="M135 196c-2-4 0-9-4-12s-7 0-9-1c8-7 21 4 13 13Z"/><path fill="#E3B3BD" d="M130 166c2-4 4-1 3 2h2l-1 9c2 1 1 2-1 2h-2c-1-1-1-3-4-2l4-1c-3-3-3-3-3-7l2-3Z"/><path fill="#D59B9C" d="M148 179v3c2-1 3-1 4 1v1l-6 5-1 4h-1l-1-6-1-4c-2-3-2-4 1-3-2-4 3-6 5-3 2 0 2 1 0 2Z"/><path fill="#C0979B" d="M124 156c2-1 3 0 3 3v-1h1c2 1 2 3 0 4l-2 1-2 3-2-5-3-5v-2c1-4 3-3 4 1l1 1Z"/><path fill="#BA818B" d="m120 173 6-1v2c-5-1-9 5-11 9l-2-1c2-1 2-4 2-5-1-2 1-4 3-3l2-1Z"/><path fill="#D297A4" d="M136 176c4 2 6 5 6 9-2 4-3-2-4-3l-5-3 1-2c0-3 1-3 2-1Z"/><path fill="#A86872" d="M137 176h3c3-1 5 1 3 4l-1 1 1 6-1-2c-1-5-5-6-6-9h1Z"/><path fill="#A8757F" d="M130 157c4 1 3 7 0 9 0 2 1 3-2 3v-11c-1-1 0-4 1-3 2-2 3-2 1 2Z"/><path fill="#9F6874" d="M126 163v5c-3 0-1-1-2-2 0-4 1-3 2-3Z"/><path fill="#39343C" d="M96 181c6-1 9 0 14 2v2l-12-2c-1-2-4-1-6-1v-1h4Z"/><path fill="#935057" d="m118 174-3 3-3-2c2-1 4-4 6-1Z"/><path fill="#785755" d="m188 79 2 2-5 2c-1-4 1-3 3-4Z"/><path fill="#4F302C" d="M209 84c-1 6-11 7-17 9-1 0-1-1 1-2 0-2 3-2 4-2v-1c3-2 1 1 0-1-2-2 0-5 3-5 4 0 4-3 4-3l3-1 2 6Z"/><path fill="#6A4341" d="m200 82-3 5c8-2 7 1 0 2-5 2-13 3-7-4l8-4 2 1Z"/><path fill="#75524F" d="m211 105 1 5c-4 3-12 6-18 6-3 1-5 0-2-2v-5c-5-2 5-9 8-6l1-1c-6-1-8-6-3-9l11-4 2 16Z"/><path fill="#CEA4AA" d="M166 88c3 0 3 2 2 6 2-1 4-2 5 0l1 2c2-1 3-1 4 1 1-3 3-3 4 0l1 1c0 2-3 2-5 1l-10 7-1-1c0 2-2 3-5 3 4 7 3 8-5 9l-2 1h-4c4-4 2-8 3-12l7-4h-1c-4-3-5-3-3-9s3 0 1-5h8Z"/><path fill="#835C5C" d="m198 93-1 6c2 0 1-3 2-2v3c1 0 5-1 5 1s-3 5-3 5c-1 0-3-3-6-1l1 5-4-4v8h-1l-4-4c-3-6-3-10 1-13l10-4Z"/><path fill="#9A7171" d="M188 97c2 3-2 4-2 4l1 9c3 1 3 2 0 3 7 5-10 6-3-1v-8c-5 5-16 2-8-4l2-1 5-1 5-1Z"/><path fill="#8A615E" d="m181 88 3-1v9l-2 1h-4c-4 1-1-6 2-6-2-3-2-4 1-3Z"/><path fill="#6A4341" d="m193 91-1 2-6 2v-2c1-4 4-4 7-2Z"/><path fill="#B48C90" d="M172 85c1 5 3 2 7 2s2 1 2 1l-1 3c-2 0-3 1-4 3h-3l-5 3c-4-3 0-6-2-9l6-3Z"/><path fill="#93939E" d="m158 84-2 2c0 3-2 2-3 0-3 0-2-2-3-3l-1-5c1-2 1-2 2 0l2-3c5 3 2-2 6-4l1 2c-1 4-3 7-2 11Z"/><path fill="#EFD1D4" d="m160 102 6-2c-2 3-8 5-12 6l-8 1 2-3-2-1 5-1-1 2 10-2Z"/><path fill="#8B6A68" d="M182 75c1 4 3 5-2 5l-1 1-2-1 5-5Z"/><path fill="#726A73" d="M156 86v5l-3-3v-2h3Z"/><path fill="#815754" d="M190 85c3 3-1 2-1 2 2 4 4 1 7 1 2 0 1 1 1 1l-4 2-7 2c-2-9-1-6 4-8Z"/><path fill="#DDB7B4" d="M212 110s2 0 1 2l-15 5-17 4 3 3c-5-2-8-1-13 0 0 3-4 3-6 1l-1-1c0-1 1-2 4-1l10-2c-2-3 0-4 4-2 1-3 2-3 5-2 1-2 3-3 7-1l18-6Z"/><path fill="#C27F6B" d="M159 177c0-4 2-4 4-1 3 6 1 6-4 8-3 0-4 0-7 2-2 0-1-1 0-2v-2c0-4 5 0 4 0v-1c-1-1 2-4 3-4Z"/><path fill="#BD7F75" d="M159 184c5-4 8 0 5 5h-2c-2-2-3-2-3-5Z"/><path fill="#985F56" d="m152 186-6 3c2-3 3-4 6-5v2Z"/><path fill="#825048" d="M158 165c2 3 4 3 7 2l-4 3 2 2 1 3c1 1-1 4 4 4v1l3 1v1h-6l1 6-2 1v-5h-5c0-4 4-2 4-5s-3 1-1-3l-3 1c-1 1-2 0-1-1-5 0-2-7-1-10-1-2-1-2 1-1Z"/><path fill="#2D2325" d="M177 180c2 0 5 1 4 3l-10-1v-1l6-1Z"/><path fill="#474142" d="M168 179c3 0 6-2 9-1v2h-9v-1Z"/><path fill="#ECEAEE" d="M160 154c-3 4 4 3 3 6s-5 1-4 4h-1c-2 2-7-2-6-5-2-2-2-3 1-3l7-2Z"/><path fill="#D1C8C7" d="m152 159 6 5v1l-1 1c0 3-2 3-3 0-2 2-8-5-6-7l2-2c2-2 2-1 2 2Z"/><path fill="#81737B" d="M170 166s-5 2-4-2c2-3 5 0 4 2Z"/><path fill="#A17877" d="m174 133-1 1c2 0 4 1 5 3l-4 1c4 2 1 4 0 7l-1 1h-3c-2-2-1-5 1-5v-1c-5 0-6-4-4-8 0-1 1-2 2-1 1-2 7 0 5 2Z"/><path fill="#A88686" d="M171 124c2 1 6 0 5 4-2 0-4-1-4 2-3 0-8-1-10-3-9 1-4-4 3-2l6-1Z"/><path fill="#DAB5B4" d="M172 130c2 0 4 0 5 2l-3 1v-1l-5-1c-2 2-8 1-9-2 0 3-3 2-2-1l4-1 10 3Z"/><path fill="#CCA5A8" d="m57 128-2 2c0 3-4 3-6 2v-3l1-9 7 2v-6c0-3 0-3 2-1l-2 13Z"/><path fill="#E1B8BC" d="M47 130c-2 1-3 0-6-1l-2-1 8 2Z"/><path fill="#BDC1CB" d="M49 133c2-2 5-2 4 1 1 1 1 1-2 1h-2l-8-1-1 2c-12 2 5 12 11 7-5-3-6-5-4-7h1c5 0 11 2 13 6 1 1 0 2-4 3-2 0-5 4-8 4h-2l-2-1c-2 0-4 2-6 1-2 0-6-4-7-5-3-4-2-8-1-12 9-1 10-1 18 1Z"/><path fill="#594749" d="M55 130h4c-1 2-1 2 1 4l-5 1c-1 1-2 0-2-1l-4-1v-1c2-2 4-2 6-2Z"/><path fill="#F2D5D2" d="m57 116-5-5c3 0 7 1 7 4l-2 1Z"/><path fill="#522B22" d="M93 116c3 5-11 14-13 8 4-3 10-5 11-10l2-2v4Z"/><path fill="#E3C1C1" d="m78 121-2 1c2-5 0-10 3-14l-1 13Z"/><path fill="#584A50" d="m64 136-4-5c6-1 4 2 5 3 2 2 10 2 12 2l-1-2v-1c2-2 3-1 4 2l2-2 19 5 1 2v1c3 0 5 1 6 3 1-1 2 0 2 1 2 1 1 1-1 1s-3 1-5 3c-1 2-3 2-4 0-1 1-3 1-7-1l-2 1-4-2v-1c2-2 0-3-4-2-4 0-6-1-7-3v-1l-11-2c-1-2 0-3 1-2 1 2-1 2-2 0Z"/><path fill="#392C2E" d="m60 134 4 2h3l-1 2 11 1-1 1-12 2c0 2-2 2-3 0-8 0-3-1-5-3l-8-3c-1-1-1-1 1-1h2l6 1c1 1-3 0-2-1 1-2 4-2 5-1Z"/><path fill="#502923" d="m80 135-4-2c-1-1-3-2-3-4 7 1 3-2 4-4 2-2 3-1 3-1 3 2 3 9 0 11Z"/><path fill="#F7DED9" d="M93 106c1 4-5 0-7 1l7-1Z"/><path fill="#A26B6C" d="M145 196c0 4-4 10-9 11l9-11Z"/><path fill="#EBE4EA" d="m142 44 4-2 3 8 3-1 4 1c1 5-2 4-6 5h-2l-6-11Z"/><path fill="#BCC5CD" d="M134 55c1 1-1 2 2 2l-1 8h-1l-1-2c-1-2-3-6-1-7v-2l2 1Z"/><path fill="#31363D" d="m128 53 4 3 1 7-1 3-2-10-4-1 1-2h1Z"/><path fill="#692C24" d="M116 105c1-12 11-3 3 2v1c5-1 2 5-1 7 1 1 0 2-1 3 3 0 3 2 0 3 2 3 3 9-1 11 4 7-2 9-2 2h-1l-1-12c0-3-4-1-2-2 2-2 3 1 3 1-1-5 2-10 2-15l1-1Z"/><path fill="#7B3833" d="M123 99v8c-1 3-2 2-4 0l2-6-3-1-2 5c-2-5 2-9 7-6Z"/><path fill="#825857" d="m144 108-3 7-5 11v2l-4 6c1 4 1 7-1 9h-1v-6l-1-3c3-2 3-6 3-9-2-3 3-12 6-11-1-2-1-3 1-2l2-1 1-5h1l1 2Z"/><path fill="#8A423E" d="M137 104c2 2 1 4 1 6h-1c-2-2-4 0-4-3 0-5 4-3 4-3Z"/><path fill="#5D1C1E" d="M137 110h1l1 2-1 2c-2 2-5 1-6-1-3 1-3-2-1-3h6Z"/><path fill="#F3C4C3" d="m130 108 1 2 1 3c-2 1-3 3-4 6 2 3-3 7-5 3l-1-2c1-3 4-15 8-12Z"/><path fill="#2D2C31" d="M150 56c4-1 3 8 2 9h-4v2c-2 2-1-4-4-1 0-4 5-7 6-10Z"/><path fill="#616870" d="M153 75c0 3 1 3-2 3-2-1-4-2-2-4l1-1c-5 0-3-3-4-4 4-1 7 2 7 6Z"/><path fill="#AFAEB2" d="m149 74 2 4h-2c-1 2-2 1-3-1-2-1-5-1-5-4l8 1Z"/><path fill="#4B5054" d="M149 78c2 1 3 3 1 5l-4-2 1-1-1-3 3 1Z"/><path fill="#5F3428" d="M96 104c1-4-1-9 2-10l3 3c1 2 2 7-1 8l-2-3-1 5-1-3Z"/><path fill="#23100F" d="M108 133c7 4 0 9-6 7l-22-5v-11c1-1 3 1 7-1 4-3 4-5 6-7s7-3 7-3c3 0 4 5 7-1 2 4-1 9-1 12l2 9Z"/><path fill="#472A26" d="M113 134h1c2 3 2 6 2 10h-2c-1 1-2 1-1-1l-11-2v-1l7-3c1-2-1-3-1-4h2l1 2v-3h1l1 2Z"/><path fill="#E9E9ED" d="M147 130c3-1 6 1 8 7l3-1 6 6c4 0 5 1 5 4-1 5-4 2-7 2l-23 2c-3 4-5-3-1-1 1-3 5-5 7-2 0-2 2-2 2 0 2 0 3-1 4-3l-5-11c-1 1-2 0-1-1-2-3 0-4 2-2Z"/><path fill="#D3D1D6" d="M143 153c-1-3 4-3 6-3h11c-1 2-5 2-7 3v3l-1 3-2-2c-1 1-3 1-3-1l-4-3Z"/><path fill="#936460" d="M135 147c1-5 8 0 3 2l-1 1h2v1l5 5c3 0 4 1 2 3 2 3-1 2-3 1-4 2-10-4-8-8v-5Z"/><path fill="#785550" d="M139 151c3-1 3 1 4 2l4 3c0 2-1 2-3 0l-6-2 1-3Z"/><path fill="#B08586" d="m171 141-1 5h-1l-5-4c1-2 5-2 7-1Z"/><path fill="#D1C6CA" d="M104 149c2-4 10 2 9 6 3-1 3-1 2 2v1c-4 6-6 7-10 0l-7-5c-2-2 0-5 2-4h4Z"/><path fill="#A4A8AF" d="M87 146v1c1 3-4 2-5 5h-1l-10-5-3-2c5-4 15-2 19 1Z"/><path fill="#7B6966" d="M105 158c1 0 1-2 4 2 2 4 3-1 6-2 2 1 2 2 0 4 2 2 2 3-1 4 1 1-1 2-2 1l-6-4c0-2-2-3-1-5Z"/><path fill="#595A60" d="M105 166c2 0 4 1 2 3-4 1-13-2-16-5-1 2-2 1-3-1v-1l2-2 15 6Z"/><path fill="#2F1F26" d="m100 149-2 4-7-4c-1-7 6-1 9 0Z"/><path fill="#60646E" d="M82 152c0 1 3 1-2 3 1-5-6-6-10-7l1-1c4 1 8 2 11 5Z"/><path fill="#9A8C8D" d="M107 166c1-2 2-1 5 1 2 1-2 6-4 3-1 1-2 0-1-1l-2-3h2Z"/><path fill="#695C64" d="m96 154-1 3c-1 0-5-4-4-5 2-2 5 2 5 2Z"/><path fill="#D1C6CA" d="M106 163c3 0 4 2 6 4l-5-1-3-3h2Z"/><path fill="#BEC2C9" d="M76 160c1 5 8 2 12 3 4 0 3 1 3 1 3 3 1 5-6 7-1 2-5-1-6-3l-5-7s1-2 2-1Z"/><path fill="#2D272B" d="M91 170c2 0 3 1 4 3 2-1 8 0 9 2v1h-4l-14-2c-2-1-3-2 0-3 1-2 5-2 5-1Z"/><path fill="#26242B" d="m76 141 7 2c2 0 6-2 9 0-1 2-2 3-5 3l-19-1H57l4-3h3c3-2 9-2 12-1Z"/><path fill="#26282D" d="M85 171h1v3l-4-1-4-4 1-1 6 3Z"/><path fill="#5D2D2E" d="M119 156c2 1 2 3 0 4v6h-5c1-3-1-2-3-3 3-1 3-4 4-5v-1c-1-3 2-6 4-3v2Z"/><path fill="#E6C3C4" d="m117 166-1 2-5 4-2 2c-3 1-3-2-1-3v-1c4 0 4-3 4-3l2-1h3Z"/><path fill="#83474B" d="m116 168 1 1-5 4-1-1c2-2 2-4 5-4Z"/><path fill="#956668" d="M122 161c-2 1-1 1-3-1v-4c3 1 3 3 3 5Z"/><path fill="#BB8C93" d="M134 154c2 2 5 9 2 11h-1c2 2 0 5-2 3 0-1-2-3-3-2v-9c-1-4 3-8 4-3Z"/><path fill="#C07C85" d="m136 165 4 4c1 0 2 1 1 2 0 2-2 3-4 2v3h-1l-2 1-1-9 2-2c-4-1-2-3 1-1Z"/><path fill="#BF7B6B" d="m157 166 1 2c-1 3-3 3 0 8l-2 5s2 1 1 2l-5-1-4-3v-4l4-1h-1c-3-2 3-6 2-4l1-1c-2-1-2-2 0-3h3Z"/><path fill="#813A3F" d="M141 171c2-1 9 4 7 6-2 1-4 0-5 3 0-2-2-3-3-4-1 0-5-2-3-3l4-2Z"/><path fill="#97534A" d="M152 182v1c-2-1-6 4-7 3-2-2 3-2 2-3l-3-2 4-2 4-1v4Z"/><path fill="#472829" d="M126 141c2 5 2 11 1 17v2h-1l-2-4c-3-3-4-8-2-14l2-2c2-3 3-2 2 1Z"/><path fill="#D6B9B8" d="M129 136v17c2 0 2 1 0 2l-1 3h-1c1-6-1-12-1-17-1-2-1-7 2-6 1-1 1 0 1 1Z"/><path fill="#E8CBCC" d="M122 142c1 6-1 8 2 14v1c-3-2-1-5-5-3-2-1-2-2-1-5 0-2 1-3 2-1l1-7h1v1Z"/><path fill="#D297A4" d="m137 173 3 3c0 4-1 0-3 0-5-3-1-3 0-3Z"/><path fill="#D7C3C2" d="m136 134 1 1c-2 6-3 11-3 17v2c-3-1-3 1-4 3l-1-2v-19c1-1 1 0 1 1v6h1l1-9c1-2 1-1 1 1 0 1 1 1 2-2 1-2 2-1 1 1Z"/><path fill="#B9ADB3" d="m104 173 1 1-1 1-9-2c-5-5 7-2 9 0Z"/><path fill="#5C565A" d="M108 171c0 2-2 3 1 3l-1 1-3-1-1-1v-1c1-3 2-4 4-1Z"/><path fill="#8E6362" d="M184 104c2 0 2 7 2 8 0 2-5 2 1 5v-4c1-3 4-2 4 1h1s0 3 2 2l-12 3c-6 0-12-7-3-7-1-2 0-2 1-1l2-4c-1-2 0-3 2-3Z"/><path fill="#A67F7A" d="M205 94v3s-6 0-4-3c2-4 4 0 4 0Z"/><path fill="#AA8182" d="M178 99c-2 3 1 1 3 1s2 1 1 2l-8 1c2 3 7 0 10 1l-2 3c0 1 0 3-2 4l-1 1-3-1c-6 4-12 8-11-5l2-1c5-3 5-5 11-6Z"/><path fill="#C49A9C" d="m167 105 1 10 5-3c2-1 1-2 1-2 1-1 2 1 2 1 0 3-3 6-7 5h-1l-13 2c1-3 6-2 7-3v-3h-3l1-5 7-2Z"/><path fill="#A17979" d="M173 94c2-3 6-8 7-3-1 2-1 4-3 5l1 1-8 2c0-2 2-4 3-5Z"/><path fill="#75524F" d="m191 114-4-1v-3l4-1v5Z"/><path fill="#9A7171" d="M179 112c-2 1-3 1-3 3l5 2c1 1-2 2 1 2l-4 2h-7l-2-5 7-5c1 0 2-1 3 1Z"/><path fill="#C8ABAB" d="m168 123-4 1c-5 2-12 4-18 1-3-1-2-2 0-3l2-1 20 1c3 1 0 0 0 1Z"/><path fill="#EAD3D5" d="m164 124 1 1-7 1v1h4l-4 1c-1 3-4 3-5 0-1 3-5 2-6-1-3 6-7-5-1-2l18-1Z"/><path fill="#F6D8D8" d="M156 121c6-2 11-2 15 0h7l1 1c-4-1-7 0-11 1-6-3-15 0-22-1h-1c2-3 8-1 11-1Z"/><path fill="#97534A" d="m159 177-3 4-2-1 4-4 1 1Z"/><path fill="#E1D5D8" d="M168 180h9l-6 1h-6v-1h3Z"/><path fill="#704542" d="M146 159c0-2 2-2 2 0l6 7v3c-1 1-2 1-2-1-2 1-7-6-5-3h-1c-3 0-5-3-3-5 0-4 1-1 2-1h1Z"/><path fill="#5C4948" d="m147 156 3 1c0 2 0 2-2 2h-2l-2-3h3Z"/><path fill="#BB9697" d="m158 128 2 1 3 1c-2 6 0 8 5 8 0 1 1 2 3 2v1l-7 1-9-5c-5-5-5-8-2-9h5Z"/><path fill="#B08586" d="M169 131c-3 1 3 1 1 2h-2v6l3 1h-9l2-2c-7 1-1-5-4-9 4 0 5 0 9 2Z"/><path fill="#DDE0E8" d="M41 134c3-1 5 0 6 2l1 2c2 2 9 5 2 7-6 3-12 1-15-4s1-6 6-7Z"/><path fill="#5F585E" d="m49 135-1 1h-1l-6-2c5-1 4 0 8 1Z"/><path fill="#A68F93" d="M55 135c2 0 4 1 3 2-3 1-5-2-7-2l2-1 2 1Z"/><path fill="#C4BBC1" d="M109 146c6 1 13 6 4 9-3-3-5-5-9-6l-2-5c1-1 6 1 7 2Z"/><path fill="#DED4D4" d="m120 148-2 1c-3 0-6-2-8-4l-2-1c0-1 5-4 5-1l1 1 2-1c0-11 8-3 4 5Z"/><path fill="#9D827F" d="m118 149 2 1-1 4-4 3-2-2 3-5c-3 0-5-3-7-4l1-1 8 4Z"/><path fill="#8C7B81" d="m113 143-5 1-6-3 8 1c2-1 1-3 2-3l1 4Z"/><path fill="#6F6C72" d="M76 140v1c-4-1-8 0-12 1v-2h12Z"/><path fill="#9D827F" d="M120 136h1c3-1 3 4 1 5-2 2 0 4-2 7 2-9-6-11-3-2l-3-2 1-1c-1-3-2-6-1-9 0 0 0-2 1-1v4h1v-5c3-3 5-2 4 4Z"/><path fill="#974E46" d="M119 107h4l-3 10c0 3-1 3-3 1 0-2-6-6 2-5l-3-2h4c1-4-2-2-3-2-2-2 2-2 2-2Z"/><path fill="#8C3E2F" d="M117 121c2-1 3 1 4 5l-1 10-1-5-1 4-2-3c0-4 2-7 1-11Z"/><path fill="#B15F54" d="m120 117 1 9c-3 1-1-4-4-5v-3l3-1Z"/><path fill="#CDC7CC" d="M142 120c2-1 3 2 3 2h1v3l-2 2h3c3 1 3 2 0 3l-2 2 3 12-1 1c-2 0-2 1-2 2l-7 2c1-3 0-2-3-2 1-9 3-18 6-26l1-1Z"/><path fill="#51393D" d="M142 120c-1 9-6 18-7 27v5h-1c0-7 0-12 2-18 2-4 1-6-1-6l7-12 1-1-1 5Z"/><path fill="#A48585" d="M142 116c-1 3-6 8-6 11s2 1 2 1c1 3-1 4-2 6l-1-1c1-3 0-2-2 2l-1-1c2-8 6-13 9-19l1 1Z"/><path fill="#AF8B89" d="M169 116c4 0 3 2 2 5h-15c4-2 10 0 12-5h1Z"/><path fill="#945049" d="m138 114-6 11c0 3 0 9-4 10l-2 6-2-1-2-8 1-10c3 0 4-2 5-3 1-3 2-5 4-6l6 1Z"/><path fill="#B78B83" d="m130 137-1-1-1-1v-3c2-1 2 1 2 1l2-8c2 3-1 8-2 12Z"/><path fill="#D08B86" d="m132 113-4 6c1-5 0-6 4-6Z"/><path fill="#521F1D" d="M124 140c0 2 1 2-2 2v-1l-1-5 1-4c3 1 3 5 2 8Z"/><path fill="#A59EA4" d="m146 133 7 11c2 3 2 1 2 1 2 2-7 2-8 2v-1l1-2-4-10c0-1 1-2 2-1Z"/><path fill="#C5ACB2" d="M153 128c-1 3 1 6 2 9l-8-7v-3l6 1Z"/><path fill="#4A4148" d="M146 133c-2 1 0 3 0 4l3 7c1 3 0 1-2 2v-1c0-4-3-8-3-11-1-4 1-2 1-2l1 1Z"/><path fill="#554A52" d="M147 145v2h-2c-3-1-2-4-2-6l4 4Z"/><path fill="#5A2722" d="M135 152c0 5 6 5 8 8l3 5 6 3 2 1s2 1 1 2c-2 0-3 2-4 3-1 2-3 2-6-2l-5-3-4 1v-5l-2-11v-2h1Z"/><path fill="#DCDDE2" d="m107 169 1 1v1h-1c-2 3-1 1-3 1l-9-2c-1 2-3 2-4 0l-5 1h-1c1-5 4-2 4-2l2-5c6 1 11 2 16 5Z"/><path fill="#383336" d="M104 172v1l-9-2v2h-3l-1-3c6-2 8 0 13 2Z"/><path fill="#D18D89" d="M151 174c5 0-1 2-3 3-1-3-5-5-7-6l-1-2c5 0 7 7 11 5Z"/><path fill="#634D4B" d="M129 153c-2-5-2-12 0-16v16Z"/><path fill="#765D5B" d="m135 133-1 6h-1v-4l2-6h1l-1 4Z"/><path fill="#8D7D7C" d="M131 143v10l-1-10h1Z"/><path fill="#9A7171" d="m182 107 1 4h-3c-1-3 2-3 2-4Z"/><path fill="#B87976" d="M152 168v1c-3 0-4-2-6-4l1-2 5 5Z"/></svg>