<?xml version="1.0" standalone="no"?>
<!DOCTYPE svg PUBLIC "-//W3C//DTD SVG 20010904//EN"
 "http://www.w3.org/TR/2001/REC-SVG-20010904/DTD/svg10.dtd">
<svg version="1.0" xmlns="http://www.w3.org/2000/svg"
 width="128.000000pt" height="128.000000pt" viewBox="0 0 128.000000 128.000000"
 preserveAspectRatio="xMidYMid meet">
<metadata>
Created by potrace 1.16, written by Peter Selinger 2001-2019
</metadata>
<g transform="translate(0.000000,128.000000) scale(0.100000,-0.100000)"
fill="#000000" stroke="none">
<path d="M0 640 l0 -640 640 0 640 0 0 640 0 640 -640 0 -640 0 0 -640z m759
455 c135 -32 243 -120 308 -251 38 -77 38 -79 38 -198 0 -118 -1 -123 -36
-197 -170 -355 -661 -356 -836 -1 -38 75 -38 77 -38 197 0 120 0 122 38 199
101 202 309 302 526 251z"/>
<path d="M505 1014 c-137 -49 -245 -203 -248 -354 -1 -69 9 -140 21 -140 6 0
289 473 300 502 5 12 -27 8 -73 -8z"/>
<path d="M720 1027 c0 -4 288 -496 296 -506 8 -9 14 8 24 62 30 159 -65 344
-213 416 -43 21 -107 38 -107 28z"/>
<path d="M588 902 c-85 -146 -92 -132 62 -132 103 0 131 3 128 13 -4 18 -122
217 -128 217 -3 0 -31 -44 -62 -98z"/>
<path d="M602 704 c-82 -42 -79 -155 5 -190 105 -45 193 81 116 166 -35 37
-77 46 -121 24z"/>
<path d="M810 600 l0 -120 76 0 c41 0 73 3 71 8 -23 43 -139 232 -143 232 -2
0 -4 -54 -4 -120z"/>
<path d="M408 598 l-66 -113 65 -3 c36 -2 67 -1 70 1 2 2 2 55 1 116 l-3 112
-67 -113z"/>
<path d="M340 401 c0 -19 86 -85 148 -114 146 -68 318 -39 440 76 17 17 32 35
32 39 0 4 -139 8 -310 8 -173 0 -310 -4 -310 -9z"/>
</g>
</svg>
