<?xml version="1.0" encoding="UTF-8" standalone="no"?>
<!DOCTYPE svg PUBLIC "-//W3C//DTD SVG 1.1//EN" "http://www.w3.org/Graphics/SVG/1.1/DTD/svg11.dtd">
<svg xmlns="http://www.w3.org/2000/svg" version="1.1" viewBox="0 0 256 256" width="256.0pt" height="256.0pt">
<path d="M 0.00 0.00 L 256.00 0.00 L 256.00 256.00 L 0.00 256.00 L 0.00 0.00 Z" fill="#000000" />
<path d="M 168.45 55.68 C 185.63 65.05 199.03 80.99 205.36 99.51 C 212.92 121.66 210.30 146.96 197.85 166.85 C 186.62 185.21 167.56 198.77 146.40 202.91 C 125.23 207.40 102.43 202.79 84.78 190.26 C 68.52 178.93 56.86 161.46 52.70 142.08 C 50.75 132.08 50.39 121.85 52.15 111.80 C 55.60 89.47 69.87 68.89 89.23 57.33 C 112.75 42.79 144.33 42.19 168.45 55.68 Z" fill="#fefefe" />
<path d="M 119.63 58.50 C 101.96 88.46 84.29 118.46 66.42 148.30 C 62.82 136.82 61.33 124.89 63.76 113.00 C 68.20 86.47 89.96 64.14 116.37 59.06 C 117.46 58.86 118.54 58.68 119.63 58.50 Z" fill="#000000" />
<path d="M 141.01 58.50 C 142.21 58.70 143.40 58.92 144.60 59.14 C 162.93 62.78 179.50 75.05 188.81 91.21 C 194.24 100.28 197.03 110.51 197.91 121.01 C 198.59 130.33 196.90 139.35 194.09 148.20 C 176.75 119.35 159.77 90.23 142.52 61.33 C 142.01 60.39 141.50 59.45 141.01 58.50 Z" fill="#000000" />
<path d="M 130.08 63.40 C 138.19 76.42 145.70 89.82 153.72 102.89 C 138.09 103.40 122.38 102.90 106.73 103.14 C 114.24 90.79 121.39 78.22 128.91 65.87 C 129.31 65.06 129.70 64.23 130.08 63.40 Z" fill="#000000" />
<path d="M 101.43 111.94 C 101.88 125.82 101.51 139.75 101.62 153.64 C 93.40 153.58 85.16 153.80 76.93 153.51 C 85.11 139.67 93.47 125.91 101.43 111.94 Z" fill="#000000" />
<path d="M 158.51 111.12 C 166.89 125.27 175.20 139.46 183.66 153.57 C 175.24 153.74 166.81 153.61 158.39 153.63 C 158.44 139.46 158.22 125.28 158.51 111.12 Z" fill="#000000" />
<path d="M 124.57 113.82 C 127.60 112.96 130.96 113.05 134.05 113.49 C 142.50 115.52 148.61 123.26 148.22 132.03 C 148.05 141.57 139.57 149.89 130.00 149.55 C 121.21 149.86 113.02 142.71 112.01 133.98 C 110.54 125.09 116.20 116.68 124.57 113.82 Z" fill="#000000" />
<path d="M 75.82 165.54 C 112.12 165.37 148.44 165.41 184.74 165.52 C 177.42 175.22 167.77 183.00 156.53 187.68 C 143.50 193.13 128.58 194.50 114.84 191.14 C 99.24 187.67 85.36 178.30 75.82 165.54 Z" fill="#000000" />
</svg>