<svg width="241" height="241" viewBox="0 0 241 241" fill="none" xmlns="http://www.w3.org/2000/svg">
<circle cx="120.956" cy="120.412" r="120" fill="black"/>
<path d="M107.745 74.2055C107.356 72.4053 108.597 72.2796 109.266 72.4418H132.376C133.739 72.4418 133.349 73.2527 132.985 73.6582L130.673 77.7937H109.266C108.921 77.3477 108.135 76.0057 107.745 74.2055Z" fill="white"/>
<path d="M67.3021 156.917C68.1778 154.581 70.7484 155.944 71.9242 156.917L84.939 167.742C100.119 178.933 117.942 180.514 124.957 179.906C160.182 175.429 169.313 146.253 169.475 132.225H163.636C160.514 132.468 154.392 132.298 154.879 129.671C155.365 127.043 159.379 125.819 161.325 125.535L181.76 124.319C185.084 123.994 191.637 124.076 191.247 126.995C190.858 129.914 188.409 131.049 187.233 131.252L178.354 132.955C178.257 141.713 170.853 156.552 167.164 162.877C162.096 170.013 146.17 184.893 123.011 187.325C99.8514 189.758 78.4113 173.094 70.5862 164.458C69.1265 162.917 66.4263 159.252 67.3021 156.917Z" fill="white"/>
<path d="M66.025 73.9622C66.7061 73.2324 66.3088 71.8742 66.025 71.2863C56.9632 70.9213 29.109 73.5365 30.447 84.0579C31.5174 92.475 47.1919 96.2416 54.8954 97.0727C66.0655 98.4715 95.7767 101.379 125.261 101.816C154.745 102.254 182.023 99.9717 191.977 98.7756C197.329 97.8836 208.227 94.2508 209.006 86.8555C209.784 79.4601 198.545 75.8273 192.829 74.9353C188.896 74.5501 180.604 73.7798 178.901 73.7798C176.773 73.7798 177.928 77.7937 177.868 78.4627C177.819 78.9979 186.159 80.6724 190.335 81.4427C192.504 82.4766 195.626 85.5905 190.761 89.7747C185.895 93.9589 149.284 95.4915 131.586 95.7348C124.713 95.3901 107.964 94.7374 95.947 94.8833C83.9295 95.0293 64.464 93.3223 56.2334 92.4506C53.6386 91.7614 48.1934 89.9328 47.1717 88.1326C45.8946 85.8824 47.719 83.5713 50.5775 80.1656C52.8642 77.441 60.5717 76.3949 64.1397 76.2125C64.4843 75.7665 65.3438 74.692 66.025 73.9622Z" fill="white"/>
<path d="M107.986 93.2947C108.337 91.5946 108.523 89.8263 108.523 88.011C108.523 74.7436 98.6145 63.9883 86.392 63.9883C74.1695 63.9883 64.2612 74.7436 64.2612 88.011C64.2612 89.0836 64.326 90.1397 64.4514 91.175L65.9641 91.4776L107.986 93.2947Z" fill="white"/>
<path d="M102.098 104.936C101.855 103.981 101.222 102.79 99.9 102.79C98.3402 102.79 78.9944 101.78 67.8853 101.189C71.8409 107.721 78.6524 112.034 86.392 112.034C92.5323 112.034 98.0885 109.319 102.098 104.936Z" fill="white"/>
<path d="M177.39 91.211C177.523 90.1641 177.592 89.096 177.592 88.011C177.592 74.7436 167.28 63.9883 154.559 63.9883C141.837 63.9883 131.525 74.7436 131.525 88.011C131.525 89.7007 131.692 91.3496 132.01 92.9408C143.031 93.7689 164.707 92.3302 177.39 91.211Z" fill="white"/>
<path d="M172.436 103.16C162.617 102.749 146.988 103.078 136.895 103.43C141.12 108.689 147.465 112.034 154.559 112.034C161.773 112.034 168.213 108.574 172.436 103.16Z" fill="white"/>
</svg>
