<svg xmlns="http://www.w3.org/2000/svg" width="400" height="400" viewBox="0 0 400 400">
<g>
<path d="M 204.36 345.50 C203.54,347.65 197.97,347.33 195.15,344.97 C193.85,343.89 192.38,343.27 191.87,343.58 C191.36,343.90 189.65,342.77 188.07,341.08 C186.49,339.38 184.24,338.00 183.07,338.00 C181.90,338.00 180.68,337.33 180.36,336.50 C180.05,335.67 179.21,335.00 178.50,335.00 C177.79,335.00 175.48,333.64 173.36,331.98 C161.17,322.44 154.31,318.00 151.74,318.00 C149.56,318.00 148.61,317.26 147.30,314.50 C146.38,312.58 145.31,311.00 144.93,311.00 C144.54,311.00 141.63,308.52 138.46,305.50 C135.28,302.48 132.17,300.00 131.54,300.00 C129.13,300.00 124.00,293.45 124.00,290.39 C124.00,287.97 123.35,287.06 120.75,285.80 C118.96,284.94 115.36,282.49 112.73,280.37 C109.00,277.34 107.83,275.67 107.34,272.66 C107.00,270.55 106.12,268.60 105.39,268.32 C104.65,268.04 103.75,266.16 103.37,264.15 C103.00,262.14 102.11,260.05 101.41,259.50 C99.08,257.68 95.00,248.75 95.00,245.49 C95.00,243.72 94.16,241.20 93.13,239.88 C91.51,237.83 91.24,235.59 91.17,223.66 C91.12,216.05 90.83,209.03 90.52,208.06 C90.21,207.10 90.64,205.00 91.47,203.40 C92.31,201.81 92.99,199.51 92.99,198.30 C93.00,197.09 93.72,195.70 94.60,195.20 C96.54,194.12 96.08,190.54 93.99,190.40 C90.46,190.17 90.00,189.90 90.00,188.07 C90.00,187.01 90.68,185.47 91.50,184.64 C93.23,182.92 93.43,180.83 92.02,179.42 C90.64,178.04 90.58,108.66 91.95,106.09 C92.53,105.01 93.00,103.20 93.00,102.07 C93.00,100.93 93.42,100.00 93.93,100.00 C94.45,100.00 95.13,99.17 95.45,98.15 C96.18,95.86 100.10,94.00 104.20,94.00 C105.98,94.00 108.72,92.93 110.59,91.50 C112.39,90.12 114.83,89.00 116.01,89.00 C117.19,89.00 121.15,87.26 124.83,85.14 C128.50,83.01 134.43,80.31 138.00,79.12 C141.57,77.94 146.46,75.86 148.85,74.49 C151.25,73.12 153.99,72.00 154.95,72.00 C155.91,72.00 157.46,71.14 158.41,70.10 C159.36,69.05 161.79,67.91 163.82,67.56 C165.84,67.21 170.20,65.64 173.50,64.08 C176.80,62.52 181.41,60.66 183.75,59.96 C186.09,59.26 188.00,58.39 188.00,58.04 C188.00,56.68 194.92,55.00 200.57,55.00 C206.12,55.00 212.77,57.41 223.00,63.13 C227.74,65.78 231.98,67.20 235.59,67.35 C238.42,67.47 240.89,68.45 243.59,70.51 C247.57,73.56 254.32,77.00 256.34,77.00 C258.01,77.00 267.72,81.11 273.46,84.25 C276.23,85.76 280.08,87.69 282.00,88.54 C283.92,89.39 287.14,90.96 289.14,92.04 C291.14,93.12 294.34,94.00 296.25,94.00 C298.22,94.00 300.84,94.87 302.27,96.00 C303.67,97.10 305.52,98.00 306.38,98.00 C307.59,98.00 307.81,98.69 307.35,101.00 C307.00,102.77 307.26,104.61 307.99,105.49 C309.73,107.59 309.61,177.56 307.86,179.66 C306.94,180.78 307.02,181.82 308.25,184.39 C309.96,187.99 309.19,190.50 306.37,190.50 C304.06,190.51 303.58,192.44 305.43,194.28 C306.26,195.12 307.24,197.66 307.60,199.92 C307.97,202.19 308.67,204.29 309.16,204.60 C310.66,205.53 308.98,237.22 307.33,239.12 C306.56,240.01 305.40,243.61 304.77,247.12 C303.96,251.56 302.45,255.21 299.80,259.12 C297.71,262.21 296.00,265.65 296.00,266.76 C296.00,267.88 295.33,269.05 294.50,269.36 C293.67,269.68 293.00,270.99 293.00,272.27 C293.00,276.01 284.45,284.09 279.04,285.47 C274.59,286.61 274.52,286.69 274.84,290.39 C275.18,294.31 273.00,298.00 270.35,298.00 C269.61,298.00 266.66,300.30 263.78,303.12 C260.91,305.93 257.11,309.34 255.34,310.69 C253.57,312.04 251.98,314.13 251.81,315.32 C251.61,316.76 250.67,317.62 249.06,317.84 C246.27,318.24 228.39,329.82 225.76,332.94 C224.80,334.07 223.40,335.00 222.63,335.00 C221.87,335.00 220.71,335.65 220.05,336.44 C219.40,337.23 217.53,338.16 215.90,338.52 C214.27,338.88 212.22,340.26 211.35,341.59 C210.40,343.04 208.80,344.00 207.35,344.00 C206.02,344.00 204.68,344.67 204.36,345.50 ZM 188.50 337.85 L 200.50 344.83 L 206.00 341.72 C233.69,326.06 258.11,308.39 269.95,295.46 L 274.41 290.60 L 271.45 289.89 C269.83,289.50 264.53,288.87 259.67,288.49 L 250.85 287.81 L 248.86 283.15 C247.76,280.59 245.96,277.54 244.86,276.36 C242.37,273.70 234.97,271.54 231.40,272.43 C228.78,273.09 228.74,273.23 229.35,279.05 C230.01,285.37 229.76,285.90 227.32,283.46 C224.46,280.60 225.99,271.78 229.64,270.12 C234.63,267.84 237.82,268.73 244.41,274.25 C247.85,277.14 251.09,280.38 251.59,281.46 C252.24,282.87 254.40,283.83 259.18,284.84 C266.07,286.29 272.78,285.74 269.95,283.95 C268.68,283.15 268.68,283.03 269.95,283.02 C271.04,283.00 271.11,282.71 270.26,281.86 C268.75,280.35 272.48,273.01 277.55,267.50 C283.66,260.85 285.68,257.05 290.09,244.00 C294.24,231.72 294.31,231.28 294.10,219.14 C293.93,209.46 294.20,206.43 295.35,205.14 C297.23,203.04 297.50,201.34 296.64,197.00 C296.27,195.07 295.81,191.99 295.63,190.15 C295.45,188.31 294.73,186.45 294.02,186.01 C293.14,185.47 292.97,184.18 293.47,181.86 C293.87,180.01 294.14,164.55 294.07,147.50 C294.01,130.45 293.96,115.33 293.98,113.91 C294.01,110.50 290.07,106.00 287.07,106.00 C285.77,106.00 281.44,104.43 277.43,102.50 C273.43,100.57 269.67,99.00 269.07,99.00 C267.65,99.00 250.97,90.23 248.92,88.41 C248.05,87.63 246.65,87.00 245.81,87.00 C244.97,87.00 241.71,85.63 238.57,83.95 C234.98,82.04 232.14,81.14 230.90,81.53 C229.72,81.91 227.51,81.32 225.41,80.08 C223.47,78.94 221.01,78.00 219.94,78.00 C218.87,78.00 218.00,77.52 218.00,76.94 C218.00,76.34 216.58,76.01 214.78,76.19 C211.19,76.54 209.88,78.45 207.94,86.22 C207.11,89.52 206.12,91.16 204.63,91.66 C201.08,92.86 199.86,92.90 197.27,91.91 L 194.78 90.96 L 197.36 88.93 C199.38,87.34 200.37,87.13 201.91,87.95 C204.75,89.47 205.00,89.32 205.00,86.06 C205.00,84.44 205.45,82.84 206.00,82.50 C207.72,81.44 207.09,79.00 205.10,79.00 C203.88,79.00 202.82,77.92 202.15,76.00 C200.85,72.26 200.43,72.26 198.50,76.00 C197.57,77.80 196.16,79.00 194.97,79.00 C192.63,79.00 192.42,80.28 194.50,82.00 C196.25,83.45 196.48,86.58 194.91,87.55 C193.49,88.43 192.25,87.11 191.57,84.00 C191.27,82.62 190.74,80.26 190.39,78.75 C189.83,76.30 190.05,76.00 192.35,76.00 C195.25,76.00 197.55,72.95 195.90,71.30 C194.37,69.77 190.24,70.96 189.68,73.10 C189.37,74.32 188.30,75.00 186.72,75.00 C185.36,75.00 183.68,75.68 183.00,76.50 C182.32,77.32 180.46,78.00 178.88,78.00 C177.29,78.00 176.00,78.38 176.00,78.84 C176.00,80.20 170.93,82.11 168.97,81.49 C167.84,81.13 161.25,83.97 151.33,89.09 C142.62,93.58 135.05,97.60 134.50,98.01 C133.95,98.43 131.93,99.09 130.00,99.49 C128.07,99.89 124.47,101.28 122.00,102.58 C119.53,103.87 114.91,105.88 111.75,107.04 C106.17,109.08 106.00,109.25 106.01,112.82 C106.01,114.84 105.95,130.00 105.87,146.50 C105.79,163.00 106.08,178.26 106.51,180.41 C107.10,183.38 106.93,184.58 105.80,185.41 C103.76,186.91 102.49,202.18 104.15,205.27 C104.85,206.57 105.45,212.72 105.60,220.04 C105.80,229.87 106.30,233.77 107.93,238.04 C109.07,241.04 110.00,244.46 110.00,245.63 C110.00,246.80 110.72,248.35 111.60,249.09 C113.17,250.38 114.84,253.83 115.51,257.13 C116.21,260.57 120.11,267.00 121.49,267.00 C122.29,267.00 123.68,268.42 124.58,270.16 C125.48,271.90 127.30,274.49 128.62,275.91 C131.93,279.48 132.61,282.08 130.60,283.55 C129.10,284.65 129.14,284.80 130.95,285.28 C134.19,286.12 141.09,284.11 142.98,281.77 L 144.74 279.60 L 145.44 281.80 C145.86,283.12 146.95,284.00 148.18,284.00 C149.82,284.00 150.14,283.50 149.77,281.56 C149.18,278.47 149.29,278.34 156.66,273.25 C163.18,268.75 168.90,267.65 172.20,270.25 C174.60,272.14 175.12,281.19 172.99,284.02 C170.98,286.68 169.33,285.12 170.95,282.09 C171.53,281.01 172.00,278.54 172.00,276.58 C172.00,273.63 171.58,272.93 169.49,272.41 C162.60,270.68 155.58,274.90 152.17,282.83 L 150.07 287.71 L 139.03 288.69 C132.96,289.23 127.69,289.98 127.31,290.35 C126.47,291.20 132.37,297.40 141.10,304.86 C156.08,317.66 167.68,325.73 188.50,337.85 ZM 132.15 157.23 C130.63,160.65 128.00,163.10 128.00,161.09 C128.00,160.62 127.10,160.00 126.00,159.71 C124.90,159.42 124.00,158.35 124.00,157.33 C124.00,153.05 139.72,124.75 143.10,122.94 C144.20,122.36 145.51,120.78 146.02,119.44 C146.92,117.08 148.93,116.27 150.36,117.69 C150.74,118.07 151.94,118.52 153.02,118.69 C154.48,118.91 154.91,118.48 154.69,117.02 C154.52,115.94 154.09,114.76 153.73,114.39 C152.64,113.31 154.94,110.00 156.79,110.00 C157.73,109.99 159.97,109.09 161.77,108.00 C163.57,106.90 165.93,106.00 167.00,106.00 C168.08,106.00 169.68,104.89 170.56,103.54 C171.88,101.53 172.75,101.18 175.34,101.63 C177.08,101.93 179.18,102.43 180.00,102.74 C182.15,103.55 185.02,103.04 187.55,101.37 C191.46,98.81 195.76,98.01 197.07,99.58 C198.60,101.43 201.91,101.40 202.62,99.54 C203.43,97.43 208.64,98.67 213.39,102.10 C216.93,104.66 217.47,104.79 219.36,103.46 C222.07,101.56 227.41,101.59 229.00,103.50 C229.68,104.32 231.76,105.00 233.61,105.00 C235.62,105.00 237.98,105.86 239.43,107.13 C240.78,108.30 242.92,109.78 244.19,110.42 C245.82,111.24 246.50,112.45 246.50,114.54 C246.50,117.27 246.75,117.48 249.77,117.24 C252.37,117.04 253.23,117.45 253.93,119.24 C254.41,120.48 256.65,123.23 258.91,125.33 C261.16,127.44 263.00,129.79 263.00,130.54 C263.00,131.91 267.42,138.99 268.90,139.98 C269.32,140.27 270.16,142.30 270.76,144.50 C271.37,146.70 272.68,150.67 273.68,153.32 C275.47,158.05 275.46,158.17 273.52,159.60 C270.28,161.99 268.93,160.86 266.54,153.72 C265.28,149.99 263.53,146.13 262.63,145.14 C261.73,144.15 261.00,142.44 261.00,141.35 C261.00,140.25 259.83,138.26 258.40,136.92 C256.97,135.59 254.96,132.84 253.92,130.82 C251.44,125.99 250.78,125.68 246.02,127.11 C241.63,128.43 241.22,129.58 243.53,134.06 C245.26,137.41 244.96,146.18 243.08,146.81 C242.44,147.02 240.81,146.08 239.45,144.72 C238.09,143.36 235.72,141.99 234.19,141.69 C231.61,141.17 230.06,139.23 228.61,134.73 C227.79,132.14 225.22,131.52 221.29,132.94 C219.34,133.65 216.34,133.91 214.42,133.55 C211.70,133.04 211.00,132.44 211.00,130.59 C211.00,128.48 210.46,128.23 204.75,127.73 C195.05,126.87 189.17,128.00 187.67,131.00 C186.36,133.62 184.54,133.91 175.68,132.93 C172.03,132.52 171.80,132.67 170.54,136.26 C168.80,141.26 167.03,143.24 164.83,142.67 C163.84,142.41 161.86,143.11 160.44,144.23 C157.38,146.63 156.17,145.82 155.36,140.83 C154.96,138.37 155.41,136.11 156.87,133.26 C159.31,128.47 158.63,127.44 152.31,126.43 C148.34,125.80 148.20,125.87 147.08,129.24 C146.46,131.15 144.39,134.52 142.49,136.74 C140.60,138.95 137.86,143.63 136.42,147.13 C134.98,150.63 133.05,155.18 132.15,157.23 ZM 97.71 190.56 C99.75,193.00 101.78,195.00 102.21,195.00 C102.65,195.00 103.00,175.04 103.00,150.64 L 103.00 106.27 L 108.88 103.64 C112.11,102.18 116.55,100.36 118.75,99.59 C120.94,98.82 123.58,97.70 124.62,97.11 C125.65,96.52 132.12,93.75 139.00,90.96 C145.88,88.16 152.40,85.48 153.50,85.00 C160.56,81.90 175.13,76.06 178.50,74.99 C180.70,74.29 184.75,72.71 187.50,71.50 C196.21,67.63 198.04,67.00 200.47,67.00 C202.61,67.00 218.48,73.23 236.00,80.94 C244.00,84.46 291.62,104.52 295.32,105.93 L 298.00 106.95 L 298.00 150.48 C298.00,174.41 298.36,194.00 298.80,194.00 C299.25,194.00 301.05,192.51 302.81,190.69 L 306.02 187.38 L 305.76 144.00 L 305.50 100.62 L 268.00 84.79 C214.10,62.03 204.82,58.19 201.88,57.48 C199.92,57.01 194.51,58.86 180.38,64.84 C170.00,69.24 146.88,78.97 129.02,86.48 C111.16,93.99 95.97,100.61 95.27,101.19 C94.28,102.01 94.00,111.49 94.00,144.18 L 94.00 186.12 ZM 114.70 276.75 C119.13,282.72 119.52,283.00 123.61,283.00 C125.96,283.00 128.11,282.63 128.39,282.18 C128.66,281.73 126.26,277.85 123.05,273.56 C115.74,263.81 109.63,252.12 105.85,240.69 C103.21,232.70 102.94,230.59 102.90,217.97 L 102.87 204.06 L 99.86 201.53 C98.20,200.14 96.44,199.00 95.94,199.00 C94.22,199.00 93.79,204.06 94.20,219.74 C94.57,233.81 94.92,236.36 97.42,243.50 C101.03,253.81 108.82,268.81 114.70,276.75 ZM 273.42 281.64 C273.73,282.46 275.46,283.00 277.76,283.00 C281.16,283.00 281.99,282.47 285.14,278.25 C291.66,269.53 298.88,255.61 302.46,244.87 L 306.00 234.25 L 306.00 196.59 L 298.21 204.20 L 297.75 219.35 C297.36,232.37 296.93,235.52 294.72,241.72 C290.85,252.55 285.62,262.54 278.91,271.89 C275.60,276.50 273.13,280.89 273.42,281.64 ZM 180.33 123.50 C183.17,124.05 188.31,124.64 191.74,124.82 C196.74,125.07 197.88,124.85 197.46,123.74 C197.11,122.84 195.88,122.51 193.91,122.80 C190.71,123.27 190.68,123.10 192.65,115.79 C193.37,113.11 191.91,107.00 190.55,107.00 C188.55,107.00 180.93,116.66 181.59,118.36 C181.91,119.20 183.48,120.17 185.08,120.52 C186.69,120.87 188.00,121.53 188.00,121.98 C188.00,123.20 179.86,121.99 177.30,120.39 C175.82,119.47 174.89,119.36 174.45,120.08 C173.46,121.69 174.69,122.41 180.33,123.50 ZM 208.44 119.90 C209.01,120.83 210.54,121.00 213.87,120.50 C219.50,119.66 220.00,119.37 220.00,117.06 C220.00,115.02 217.67,112.66 216.66,113.68 C216.30,114.04 216.00,113.76 216.00,113.05 C216.00,111.13 209.85,106.12 208.25,106.73 C207.23,107.13 206.97,108.76 207.25,112.94 C207.47,116.05 208.00,119.19 208.44,119.90 ZM 203.70 124.36 C204.51,125.17 219.19,124.51 223.25,123.48 C224.76,123.10 226.00,122.16 226.00,121.39 C226.00,119.75 223.85,119.55 222.34,121.06 C221.75,121.65 217.16,122.21 212.14,122.31 C203.41,122.49 202.14,122.80 203.70,124.36 ZM 225.46 108.48 C227.63,110.56 229.58,111.75 229.79,111.13 C230.00,110.51 230.80,110.00 231.58,110.00 C234.36,110.00 232.93,108.14 228.51,106.00 C222.06,102.88 220.72,103.97 225.46,108.48 ZM 242.07 295.12 C243.00,296.86 242.85,297.59 241.24,299.21 C239.29,301.15 239.27,301.15 238.71,299.01 C238.40,297.82 237.20,296.60 236.05,296.30 C234.07,295.79 234.05,295.68 235.73,294.41 C238.33,292.44 240.77,292.71 242.07,295.12 ZM 152.57 193.25 C150.87,195.55 150.54,195.47 149.16,192.45 C146.74,187.14 148.15,185.39 151.75,189.25 C153.53,191.15 153.66,191.77 152.57,193.25 ZM 221.31 182.77 C219.43,186.66 216.00,187.16 216.00,183.55 C216.00,182.41 221.83,178.50 222.51,179.17 C222.71,179.38 222.17,181.00 221.31,182.77 ZM 204.06 74.11 C205.23,76.30 205.47,76.35 208.07,74.96 C210.63,73.59 210.51,72.13 207.75,71.08 C204.70,69.93 202.70,71.56 204.06,74.11 ZM 171.26 108.51 C173.09,110.59 174.57,110.30 176.38,107.54 C178.57,104.20 178.46,104.01 175.03,104.99 C170.52,106.28 169.85,106.91 171.26,108.51 ZM 238.47 116.08 C237.74,118.38 238.91,118.54 241.56,116.51 C243.46,115.06 243.45,114.98 241.00,113.03 C239.62,111.94 238.16,111.03 237.75,111.02 C236.63,110.99 236.84,112.78 238.04,113.53 C238.61,113.88 238.81,115.03 238.47,116.08 ZM 250.21 192.75 C248.40,194.17 247.63,194.29 246.65,193.32 C245.90,192.57 250.84,187.00 252.25,187.00 C253.57,187.00 252.03,191.31 250.21,192.75 ZM 211.50 253.00 C213.29,254.98 213.25,255.00 207.90,254.92 C204.93,254.88 203.17,254.58 203.98,254.26 C204.80,253.94 206.07,253.08 206.80,252.34 C208.60,250.54 209.37,250.65 211.50,253.00 ZM 230.64 131.49 C230.95,132.32 231.60,132.75 232.07,132.46 C232.94,131.92 231.16,126.99 230.09,127.01 C225.81,127.11 223.88,130.00 228.09,130.00 C229.18,130.00 230.32,130.67 230.64,131.49 ZM 210.66 218.67 C210.02,221.51 209.13,224.20 208.68,224.65 C207.60,225.74 209.01,214.76 210.11,213.57 C211.67,211.87 211.84,213.44 210.66,218.67 ZM 166.86 138.53 C167.61,139.27 169.89,134.26 169.95,131.75 C169.98,130.79 169.60,130.00 169.12,130.00 C168.03,130.00 166.00,137.67 166.86,138.53 ZM 215.39 299.42 C214.39,302.03 213.00,301.21 213.00,298.00 C216.07,295.00 216.42,296.74 215.39,299.42 ZM 229.74 125.40 C230.06,125.73 231.17,126.00 232.20,126.00 C233.76,126.00 233.89,125.67 233.00,124.00 C232.41,122.90 231.54,122.00 231.07,122.00 C229.97,122.00 228.95,124.61 229.74,125.40 ZM 212.22 274.91 C212.37,276.21 211.94,277.48 211.25,277.72 C210.39,278.03 210.00,276.98 210.00,274.38 C210.00,270.29 211.73,270.70 212.22,274.91 ZM 167.17 124.34 C166.92,125.68 167.32,126.08 168.66,125.83 C169.67,125.63 170.50,124.80 170.50,123.99 C170.50,121.84 167.59,122.15 167.17,124.34 ZM 215.00 130.00 C213.86,130.74 214.26,130.97 216.69,130.98 C218.45,130.99 220.16,130.55 220.50,130.00 C221.29,128.72 216.98,128.72 215.00,130.00 ZM 180.50 130.00 C180.84,130.55 182.55,130.99 184.31,130.98 C186.74,130.97 187.14,130.74 186.00,130.00 C184.02,128.72 179.71,128.72 180.50,130.00 ZM 163.97 201.96 C164.78,202.47 165.23,203.05 164.97,203.24 C164.05,203.91 160.00,202.85 160.00,201.93 C160.00,200.74 162.07,200.76 163.97,201.96 ZM 180.81 181.26 C181.27,183.65 179.76,183.45 178.18,180.91 C177.03,179.08 177.09,178.87 178.68,179.18 C179.67,179.37 180.63,180.31 180.81,181.26 ZM 246.28 201.00 C245.67,201.00 244.34,201.29 243.33,201.64 C241.59,202.25 241.58,202.20 243.24,200.43 C244.60,198.99 245.25,198.85 246.19,199.79 C247.03,200.63 247.06,201.00 246.28,201.00 ZM 241.00 142.94 C241.00,144.07 241.45,145.00 242.00,145.00 C242.55,145.00 243.00,144.35 243.00,143.56 C243.00,142.77 242.55,141.84 242.00,141.50 C241.45,141.16 241.00,141.81 241.00,142.94 ZM 103.50 90.00 C103.16,90.55 102.23,91.00 101.44,91.00 C100.65,91.00 100.00,90.55 100.00,90.00 C100.00,89.45 100.93,89.00 102.06,89.00 C103.19,89.00 103.84,89.45 103.50,90.00 ZM 237.00 331.00 C237.00,331.55 236.30,332.00 235.44,332.00 C234.58,332.00 234.16,331.55 234.50,331.00 C234.84,330.45 235.54,330.00 236.06,330.00 C236.58,330.00 237.00,330.45 237.00,331.00 ZM 166.00 331.00 C166.00,331.55 165.58,332.00 165.06,332.00 C164.54,332.00 163.84,331.55 163.50,331.00 C163.16,330.45 163.58,330.00 164.44,330.00 C165.30,330.00 166.00,330.45 166.00,331.00 ZM 299.00 90.00 C299.00,90.55 298.55,91.00 298.00,91.00 C297.45,91.00 297.00,90.55 297.00,90.00 C297.00,89.45 297.45,89.00 298.00,89.00 C298.55,89.00 299.00,89.45 299.00,90.00 Z" fill="rgb(4,39,25)"/>
<path d="M 0.00 0.00 L 400.00 0.00 L 400.00 400.00 L 0.00 400.00 ZM 204.36 345.50 C204.68,344.67 206.02,344.00 207.35,344.00 C208.80,344.00 210.40,343.04 211.35,341.59 C212.22,340.26 214.27,338.88 215.90,338.52 C217.53,338.16 219.40,337.23 220.05,336.44 C220.71,335.65 221.87,335.00 222.63,335.00 C223.40,335.00 224.80,334.07 225.76,332.94 C228.39,329.82 246.27,318.24 249.06,317.84 C250.67,317.62 251.61,316.76 251.81,315.32 C251.98,314.13 253.57,312.04 255.34,310.69 C257.11,309.34 260.91,305.93 263.78,303.12 C266.66,300.30 269.61,298.00 270.35,298.00 C273.00,298.00 275.18,294.31 274.84,290.39 C274.52,286.69 274.59,286.61 279.04,285.47 C284.45,284.09 293.00,276.01 293.00,272.27 C293.00,270.99 293.67,269.68 294.50,269.36 C295.33,269.05 296.00,267.88 296.00,266.76 C296.00,265.65 297.71,262.21 299.80,259.12 C302.45,255.21 303.96,251.56 304.77,247.12 C305.40,243.61 306.56,240.01 307.33,239.12 C308.98,237.22 310.66,205.53 309.16,204.60 C308.67,204.29 307.97,202.19 307.60,199.92 C307.24,197.66 306.26,195.12 305.43,194.28 C303.58,192.44 304.06,190.51 306.37,190.50 C309.19,190.50 309.96,187.99 308.25,184.39 C307.02,181.82 306.94,180.78 307.86,179.66 C309.61,177.56 309.73,107.59 307.99,105.49 C307.26,104.61 307.00,102.77 307.35,101.00 C307.81,98.69 307.59,98.00 306.38,98.00 C305.52,98.00 303.67,97.10 302.27,96.00 C300.84,94.87 298.22,94.00 296.25,94.00 C294.34,94.00 291.14,93.12 289.14,92.04 C287.14,90.96 283.92,89.39 282.00,88.54 C280.08,87.69 276.23,85.76 273.46,84.25 C267.72,81.11 258.01,77.00 256.34,77.00 C254.32,77.00 247.57,73.56 243.59,70.51 C240.89,68.45 238.42,67.47 235.59,67.35 C231.98,67.20 227.74,65.78 223.00,63.13 C212.77,57.41 206.12,55.00 200.57,55.00 C194.92,55.00 188.00,56.68 188.00,58.04 C188.00,58.39 186.09,59.26 183.75,59.96 C181.41,60.66 176.80,62.52 173.50,64.08 C170.20,65.64 165.84,67.21 163.82,67.56 C161.79,67.91 159.36,69.05 158.41,70.10 C157.46,71.14 155.91,72.00 154.95,72.00 C153.99,72.00 151.25,73.12 148.85,74.49 C146.46,75.86 141.57,77.94 138.00,79.12 C134.43,80.31 128.50,83.01 124.83,85.14 C121.15,87.26 117.19,89.00 116.01,89.00 C114.83,89.00 112.39,90.12 110.59,91.50 C108.72,92.93 105.98,94.00 104.20,94.00 C100.10,94.00 96.18,95.86 95.45,98.15 C95.13,99.17 94.45,100.00 93.93,100.00 C93.42,100.00 93.00,100.93 93.00,102.07 C93.00,103.20 92.53,105.01 91.95,106.09 C90.58,108.66 90.64,178.04 92.02,179.42 C93.43,180.83 93.23,182.92 91.50,184.64 C90.68,185.47 90.00,187.01 90.00,188.07 C90.00,189.90 90.46,190.17 93.99,190.40 C96.08,190.54 96.54,194.12 94.60,195.20 C93.72,195.70 93.00,197.09 92.99,198.30 C92.99,199.51 92.31,201.81 91.47,203.40 C90.64,205.00 90.21,207.10 90.52,208.06 C90.83,209.03 91.12,216.05 91.17,223.66 C91.24,235.59 91.51,237.83 93.13,239.88 C94.16,241.20 95.00,243.72 95.00,245.49 C95.00,248.75 99.08,257.68 101.41,259.50 C102.11,260.05 103.00,262.14 103.37,264.15 C103.75,266.16 104.65,268.04 105.39,268.32 C106.12,268.60 107.00,270.55 107.34,272.66 C107.83,275.67 109.00,277.34 112.73,280.37 C115.36,282.49 118.96,284.94 120.75,285.80 C123.35,287.06 124.00,287.97 124.00,290.39 C124.00,293.45 129.13,300.00 131.54,300.00 C132.17,300.00 135.28,302.48 138.46,305.50 C141.63,308.52 144.54,311.00 144.93,311.00 C145.31,311.00 146.38,312.58 147.30,314.50 C148.61,317.26 149.56,318.00 151.74,318.00 C154.31,318.00 161.17,322.44 173.36,331.98 C175.48,333.64 177.79,335.00 178.50,335.00 C179.21,335.00 180.05,335.67 180.36,336.50 C180.68,337.33 181.90,338.00 183.07,338.00 C184.24,338.00 186.49,339.38 188.07,341.08 C189.65,342.77 191.36,343.90 191.87,343.58 C192.38,343.27 193.85,343.89 195.15,344.97 C197.97,347.33 203.54,347.65 204.36,345.50 ZM 194.00 89.06 C194.00,90.19 195.31,90.24 196.81,89.36 L 194.78 90.96 L 197.27 91.91 C199.86,92.90 201.08,92.86 204.63,91.66 C206.12,91.16 207.11,89.52 207.94,86.22 C209.88,78.45 211.19,76.54 214.78,76.19 C216.58,76.01 218.00,76.34 218.00,76.94 C218.00,77.52 218.87,78.00 219.94,78.00 C221.01,78.00 223.47,78.94 225.41,80.08 C227.51,81.32 229.72,81.91 230.90,81.53 C232.14,81.14 234.98,82.04 238.57,83.95 C241.71,85.63 244.97,87.00 245.81,87.00 C246.65,87.00 248.05,87.63 248.92,88.41 C250.97,90.23 267.65,99.00 269.07,99.00 C269.67,99.00 273.43,100.57 277.43,102.50 C281.44,104.43 285.77,106.00 287.07,106.00 C290.07,106.00 294.01,110.50 293.98,113.91 C293.96,115.33 294.01,130.45 294.07,147.50 C294.14,164.55 293.87,180.01 293.47,181.86 C292.97,184.18 293.14,185.47 294.02,186.01 C294.73,186.45 295.45,188.31 295.63,190.15 C295.81,191.99 296.27,195.07 296.64,197.00 C297.50,201.34 297.23,203.04 295.35,205.14 C294.20,206.43 293.93,209.46 294.10,219.14 C294.31,231.28 294.24,231.72 290.09,244.00 C285.68,257.05 283.66,260.85 277.55,267.50 C272.48,273.01 268.75,280.35 270.26,281.86 C271.11,282.71 271.04,283.00 269.95,283.02 C268.68,283.03 268.68,283.15 269.95,283.95 C272.78,285.74 266.07,286.29 259.18,284.84 C254.40,283.83 252.24,282.87 251.59,281.46 C251.09,280.38 247.85,277.14 244.41,274.25 C237.82,268.73 234.63,267.84 229.64,270.12 C226.71,271.45 225.14,277.41 226.13,281.19 C223.73,277.01 220.76,269.90 218.49,262.50 L 216.34 255.50 L 200.62 255.31 C189.15,255.16 184.80,255.43 184.54,256.31 C179.67,272.62 173.41,286.05 171.09,285.38 C171.58,285.39 172.26,284.98 172.99,284.02 C175.12,281.19 174.60,272.14 172.20,270.25 C168.90,267.65 163.18,268.75 156.66,273.25 C149.29,278.34 149.18,278.47 149.77,281.56 C150.14,283.50 149.82,284.00 148.18,284.00 C146.95,284.00 145.86,283.12 145.44,281.80 L 144.74 279.60 L 142.98 281.77 C141.09,284.11 134.19,286.12 130.95,285.28 C129.14,284.80 129.10,284.65 130.60,283.55 C132.61,282.08 131.93,279.48 128.62,275.91 C127.30,274.49 125.48,271.90 124.58,270.16 C123.68,268.42 122.29,267.00 121.49,267.00 C120.11,267.00 116.21,260.57 115.51,257.13 C114.84,253.83 113.17,250.38 111.60,249.09 C110.72,248.35 110.00,246.80 110.00,245.63 C110.00,244.46 109.07,241.04 107.93,238.04 C106.30,233.77 105.80,229.87 105.60,220.04 C105.45,212.72 104.85,206.57 104.15,205.27 C102.49,202.18 103.76,186.91 105.80,185.41 C106.93,184.58 107.10,183.38 106.51,180.41 C106.08,178.26 105.79,163.00 105.87,146.50 C105.95,130.00 106.01,114.84 106.01,112.82 C106.00,109.25 106.17,109.08 111.75,107.04 C114.91,105.88 119.53,103.87 122.00,102.58 C124.47,101.28 128.07,99.89 130.00,99.49 C131.93,99.09 133.95,98.43 134.50,98.01 C135.05,97.60 142.62,93.58 151.33,89.09 C161.25,83.97 167.84,81.13 168.97,81.49 C170.93,82.11 176.00,80.20 176.00,78.84 C176.00,78.38 177.29,78.00 178.88,78.00 C180.46,78.00 182.32,77.32 183.00,76.50 C183.68,75.68 185.36,75.00 186.72,75.00 C188.30,75.00 189.37,74.32 189.68,73.10 C190.24,70.96 194.37,69.77 195.90,71.30 C197.55,72.95 195.25,76.00 192.35,76.00 C190.05,76.00 189.83,76.30 190.39,78.75 C190.74,80.26 191.27,82.62 191.57,84.00 C192.25,87.11 193.49,88.43 194.91,87.55 C195.73,87.05 196.06,85.95 195.94,84.81 C196.07,85.94 195.78,87.02 195.00,87.50 C194.45,87.84 194.00,88.54 194.00,89.06 ZM 152.57 193.25 C153.66,191.77 153.53,191.15 151.75,189.25 C151.72,189.21 151.68,189.17 151.64,189.13 C151.84,189.31 152.05,189.50 152.26,189.71 C160.78,197.79 171.57,198.18 179.75,190.71 C182.60,188.10 182.57,187.30 179.46,182.73 C179.31,182.51 179.17,182.28 179.03,182.07 C180.25,183.43 181.19,183.21 180.81,181.26 C180.73,180.81 180.47,180.37 180.12,180.00 C182.28,181.10 185.73,183.00 189.43,185.15 C195.20,188.48 197.82,190.26 200.47,190.32 C203.04,190.37 205.65,188.79 211.21,185.43 C212.02,184.94 212.89,184.41 213.84,183.84 C215.29,182.97 216.67,182.17 217.89,181.48 C216.83,182.30 216.00,183.12 216.00,183.55 C216.00,186.87 218.90,186.72 220.83,183.64 C220.79,183.73 220.75,183.81 220.71,183.89 L 218.51 188.21 L 222.45 191.52 C226.59,194.99 229.67,196.00 236.19,196.00 C240.98,196.00 243.36,194.85 248.23,190.20 C248.49,189.95 248.75,189.71 249.00,189.48 C247.52,191.07 246.25,192.91 246.65,193.32 C247.63,194.29 248.40,194.17 250.21,192.75 C250.92,192.19 251.59,191.19 252.06,190.18 C251.91,190.63 251.73,191.10 251.54,191.57 C249.96,195.35 249.96,195.36 253.13,198.64 C258.48,204.15 271.97,207.15 275.00,203.50 C275.68,202.68 276.89,202.00 277.67,202.00 C280.16,202.00 283.99,196.84 285.60,191.32 C287.01,186.46 287.01,185.53 285.55,181.15 C284.67,178.49 282.72,175.18 281.22,173.78 C276.08,168.98 271.00,167.51 271.00,170.81 C271.00,171.80 270.37,173.48 269.60,174.54 C268.30,176.31 268.13,176.06 267.46,171.48 C265.71,159.49 259.03,153.00 248.43,153.00 C244.17,153.00 244.00,153.12 244.00,156.00 C244.00,160.04 242.95,159.76 240.23,155.01 C237.40,150.06 233.21,147.82 226.38,147.61 C221.43,147.46 220.92,147.20 218.14,143.36 C209.60,131.56 191.08,131.73 182.66,143.68 C179.98,147.48 179.21,147.98 176.87,147.47 C170.50,146.07 162.71,150.79 158.66,158.50 L 157.08 161.50 L 157.04 157.36 C157.01,154.55 156.50,153.02 155.44,152.62 C153.13,151.73 145.11,153.78 141.86,156.10 C137.98,158.86 134.30,165.51 133.46,171.25 C132.64,176.90 131.48,177.36 130.55,172.41 C129.93,169.12 129.65,168.87 127.19,169.45 C120.99,170.92 115.52,177.38 114.45,184.46 C113.36,191.75 117.75,199.25 125.50,203.34 C131.86,206.69 142.57,204.45 147.91,198.64 C150.12,196.25 150.24,195.82 149.12,192.36 C149.13,192.39 149.15,192.42 149.16,192.45 C150.54,195.47 150.87,195.55 152.57,193.25 ZM 132.15 157.23 C133.05,155.18 134.98,150.63 136.42,147.13 C137.86,143.63 140.60,138.95 142.49,136.74 C144.39,134.52 146.46,131.15 147.08,129.24 C148.20,125.87 148.34,125.80 152.31,126.43 C158.63,127.44 159.31,128.47 156.87,133.26 C155.41,136.11 154.96,138.37 155.36,140.83 C156.17,145.82 157.38,146.63 160.44,144.23 C161.86,143.11 163.84,142.41 164.83,142.67 C167.03,143.24 168.80,141.26 170.54,136.26 C171.80,132.67 172.03,132.52 175.68,132.93 C184.54,133.91 186.36,133.62 187.67,131.00 C189.17,128.00 195.05,126.87 204.75,127.73 C210.46,128.23 211.00,128.48 211.00,130.59 C211.00,132.44 211.70,133.04 214.42,133.55 C216.34,133.91 219.34,133.65 221.29,132.94 C225.22,131.52 227.79,132.14 228.61,134.73 C230.06,139.23 231.61,141.17 234.19,141.69 C235.72,141.99 238.09,143.36 239.45,144.72 C240.81,146.08 242.44,147.02 243.08,146.81 C244.96,146.18 245.26,137.41 243.53,134.06 C241.22,129.58 241.63,128.43 246.02,127.11 C250.78,125.68 251.44,125.99 253.92,130.82 C254.96,132.84 256.97,135.59 258.40,136.92 C259.83,138.26 261.00,140.25 261.00,141.35 C261.00,142.44 261.73,144.15 262.63,145.14 C263.53,146.13 265.28,149.99 266.54,153.72 C268.93,160.86 270.28,161.99 273.52,159.60 C275.46,158.17 275.47,158.05 273.68,153.32 C272.68,150.67 271.37,146.70 270.76,144.50 C270.16,142.30 269.32,140.27 268.90,139.98 C267.42,138.99 263.00,131.91 263.00,130.54 C263.00,129.79 261.16,127.44 258.91,125.33 C256.65,123.23 254.41,120.48 253.93,119.24 C253.23,117.45 252.37,117.04 249.77,117.24 C246.75,117.48 246.50,117.27 246.50,114.54 C246.50,112.45 245.82,111.24 244.19,110.42 C242.92,109.78 240.78,108.30 239.43,107.13 C237.98,105.86 235.62,105.00 233.61,105.00 C231.76,105.00 229.68,104.32 229.00,103.50 C227.41,101.59 222.07,101.56 219.36,103.46 C217.47,104.79 216.93,104.66 213.39,102.10 C208.64,98.67 203.43,97.43 202.62,99.54 C201.91,101.40 198.60,101.43 197.07,99.58 C195.76,98.01 191.46,98.81 187.55,101.37 C185.02,103.04 182.15,103.55 180.00,102.74 C179.18,102.43 177.08,101.93 175.34,101.63 C172.75,101.18 171.88,101.53 170.56,103.54 C169.68,104.89 168.08,106.00 167.00,106.00 C165.93,106.00 163.57,106.90 161.77,108.00 C159.97,109.09 157.73,109.99 156.79,110.00 C154.94,110.00 152.64,113.31 153.73,114.39 C154.09,114.76 154.52,115.94 154.69,117.02 C154.91,118.48 154.48,118.91 153.02,118.69 C151.94,118.52 150.74,118.07 150.36,117.69 C148.93,116.27 146.92,117.08 146.02,119.44 C145.51,120.78 144.20,122.36 143.10,122.94 C139.72,124.75 124.00,153.05 124.00,157.33 C124.00,158.35 124.90,159.42 126.00,159.71 C127.10,160.00 128.00,160.62 128.00,161.09 C128.00,163.10 130.63,160.65 132.15,157.23 ZM 189.88 239.29 C192.42,239.50 198.10,239.54 202.50,239.37 C209.78,239.08 212.90,239.26 214.57,237.79 C216.13,236.41 216.41,233.56 217.64,227.50 C218.87,221.45 220.80,213.84 221.94,210.59 C224.81,202.37 224.64,201.17 220.39,199.39 C218.41,198.56 216.53,198.14 216.21,198.45 C215.90,198.77 214.24,204.63 212.53,211.47 C211.96,213.74 211.41,215.80 210.90,217.60 C211.81,213.23 211.56,211.99 210.11,213.57 C209.56,214.16 208.94,217.14 208.59,219.87 C208.90,216.84 209.31,211.65 209.59,206.70 L 210.28 194.89 L 207.39 195.58 C205.80,195.96 203.70,196.97 202.72,197.82 C201.10,199.23 200.53,199.17 196.44,197.18 C193.97,195.98 191.67,195.00 191.33,195.00 C190.65,195.00 191.81,218.21 192.67,221.75 C192.99,223.06 192.75,224.00 192.11,224.00 C191.50,224.00 191.00,223.26 191.00,222.36 C191.00,219.07 184.72,198.00 183.74,198.00 C183.19,198.00 181.29,198.90 179.51,199.99 L 176.29 201.98 L 179.54 212.74 C181.33,218.66 183.35,226.97 184.03,231.20 L 185.26 238.90 ZM 111.66 169.33 C112.03,169.69 114.16,168.47 116.41,166.62 L 120.50 163.24 L 120.77 141.21 L 121.04 119.18 L 146.27 108.51 C160.15,102.64 173.87,96.77 176.76,95.47 L 182.02 93.10 L 180.30 89.50 C178.64,86.02 178.43,85.92 174.54,86.56 C172.32,86.93 169.92,87.69 169.22,88.26 C168.51,88.83 158.39,93.30 146.72,98.19 C135.05,103.09 122.24,108.46 118.25,110.14 L 111.00 113.19 L 111.00 140.93 C111.00,156.18 111.30,168.96 111.66,169.33 ZM 288.00 170.30 C288.00,170.87 288.24,171.09 288.54,170.80 C289.43,169.91 289.22,113.82 288.33,112.98 C287.87,112.55 280.30,109.20 271.50,105.54 C237.57,91.40 233.45,89.62 232.00,88.44 C231.18,87.77 228.70,86.92 226.50,86.56 C222.69,85.94 222.41,86.08 220.59,89.46 C219.54,91.41 218.86,93.15 219.09,93.33 C219.32,93.50 230.98,98.50 245.00,104.43 C259.02,110.36 272.64,116.12 275.25,117.23 L 280.00 119.25 L 280.00 163.73 L 284.00 166.50 C286.20,168.02 288.00,169.74 288.00,170.30 ZM 215.39 299.42 C216.42,296.74 216.07,295.00 214.50,295.00 C212.33,294.50 211.78,290.41 211.51,286.50 C211.40,284.94 211.00,281.05 210.59,277.62 C210.77,277.78 210.99,277.82 211.25,277.72 C211.94,277.48 212.37,276.21 212.22,274.91 C212.17,274.44 212.09,274.01 212.01,273.64 C212.53,274.69 213.18,276.14 213.94,278.00 C216.69,284.65 223.81,299.02 225.21,300.73 C225.97,301.67 227.60,300.88 231.92,297.48 C232.88,296.73 233.75,296.07 234.53,295.52 C234.42,295.84 234.91,296.01 236.05,296.30 C237.20,296.60 238.40,297.82 238.71,299.01 C238.98,300.03 239.12,300.56 239.41,300.64 C234.41,304.50 222.46,312.61 213.50,318.13 C208.55,321.18 203.56,324.18 202.41,324.79 C200.61,325.75 198.78,324.96 189.41,319.20 C177.78,312.06 165.34,303.66 160.62,299.76 C158.00,297.60 157.87,297.19 159.11,295.19 C161.05,292.10 162.38,292.41 168.97,297.48 L 174.80 301.96 L 176.26 299.73 C178.73,295.95 183.14,286.92 187.03,277.64 C189.08,272.77 190.97,269.17 191.23,269.64 C191.73,270.52 188.09,293.43 186.02,302.50 C184.91,307.37 184.95,307.55 187.69,309.77 C191.57,312.92 198.94,317.00 200.75,317.00 C202.48,317.00 213.21,310.66 214.88,308.64 C215.73,307.62 215.67,306.43 214.62,303.89 C214.29,303.08 213.95,302.00 213.63,300.73 C214.13,301.28 214.82,300.90 215.39,299.42 ZM 134.10 273.80 C140.88,281.79 143.26,282.61 145.92,277.84 C147.34,275.31 147.25,275.01 143.93,271.34 C135.37,261.87 128.10,249.81 123.37,237.26 C121.40,232.02 121.00,229.09 121.00,219.98 C121.00,213.94 120.66,209.00 120.25,209.00 C119.84,208.99 117.99,207.58 116.15,205.85 C113.47,203.34 112.62,202.99 111.91,204.10 C110.45,206.42 110.86,227.02 112.49,233.29 C115.95,246.57 124.34,262.31 134.10,273.80 ZM 256.38 280.23 C258.99,281.95 261.27,280.62 266.42,274.38 C273.47,265.83 280.86,253.58 285.03,243.50 C288.09,236.12 288.40,234.38 288.99,221.00 C289.34,213.02 289.43,205.48 289.19,204.24 C288.78,202.06 288.62,202.11 284.63,205.71 L 280.50 209.43 L 279.94 221.47 C279.45,232.16 279.01,234.39 276.03,241.50 C272.04,251.02 265.64,261.35 258.82,269.25 C254.88,273.82 254.01,275.46 254.57,277.25 C254.95,278.49 255.77,279.83 256.38,280.23 ZM 176.50 248.51 C198.73,252.02 236.46,248.84 243.66,242.86 C247.89,239.36 243.22,235.71 231.68,233.50 C222.84,231.81 220.50,233.22 228.35,235.50 C234.60,237.32 235.65,238.22 233.55,239.96 C227.30,245.15 177.68,245.25 168.14,240.09 C165.12,238.46 166.32,237.22 172.43,235.66 C175.01,235.00 177.20,234.03 177.31,233.50 C177.83,230.86 159.44,235.13 156.15,238.42 C154.92,239.65 155.08,240.17 157.33,242.25 C160.40,245.10 165.57,246.78 176.50,248.51 ZM 163.97 201.96 C162.07,200.76 160.00,200.74 160.00,201.93 C160.00,202.21 160.37,202.50 160.91,202.75 C160.64,202.68 160.36,202.61 160.09,202.54 C154.86,201.15 154.58,201.17 151.97,203.37 C148.97,205.89 145.66,207.36 139.19,209.01 C133.77,210.39 134.18,211.95 140.58,214.33 C144.69,215.86 146.13,215.97 149.33,215.02 C152.55,214.05 153.57,214.14 155.74,215.57 C157.16,216.50 159.49,217.61 160.91,218.04 C164.59,219.16 164.70,219.15 168.41,217.60 C173.01,215.68 173.31,214.82 171.42,209.04 C170.12,205.08 169.31,204.00 167.63,203.99 C166.97,203.98 165.59,203.77 163.99,203.45 C164.41,203.45 164.77,203.38 164.97,203.24 C165.23,203.05 164.78,202.47 163.97,201.96 ZM 232.37 217.57 C236.03,219.18 240.18,218.59 244.75,215.81 C247.52,214.13 248.49,214.01 251.44,214.98 C255.45,216.30 261.95,214.81 264.52,211.98 C265.95,210.40 265.55,210.10 258.92,207.97 C254.98,206.71 250.51,204.62 248.98,203.33 C246.24,201.02 246.07,201.01 240.38,202.49 C237.19,203.32 233.86,204.00 232.98,204.00 C231.27,204.00 227.60,213.55 228.66,215.26 C228.98,215.78 230.65,216.82 232.37,217.57 ZM 208.44 119.90 C208.00,119.19 207.47,116.05 207.25,112.94 C206.97,108.76 207.23,107.13 208.25,106.73 C209.85,106.12 216.00,111.13 216.00,113.05 C216.00,113.76 216.30,114.04 216.66,113.68 C217.67,112.66 220.00,115.02 220.00,117.06 C220.00,119.37 219.50,119.66 213.87,120.50 C210.54,121.00 209.01,120.83 208.44,119.90 ZM 191.40 122.42 C190.51,122.38 189.52,122.35 188.41,122.32 C188.17,122.32 187.94,122.31 187.71,122.31 C187.90,122.23 188.00,122.12 188.00,121.98 C188.00,121.53 186.69,120.87 185.08,120.52 C183.48,120.17 181.91,119.20 181.59,118.36 C180.93,116.66 188.55,107.00 190.55,107.00 C191.91,107.00 193.37,113.11 192.65,115.79 C191.57,119.76 191.10,121.63 191.40,122.42 ZM 204.06 74.11 C202.70,71.56 204.70,69.93 207.75,71.08 C210.51,72.13 210.63,73.59 208.07,74.96 C205.47,76.35 205.23,76.30 204.06,74.11 ZM 211.50 253.00 C209.37,250.65 208.60,250.54 206.80,252.34 C206.07,253.08 204.80,253.94 203.98,254.26 C203.17,254.58 204.93,254.88 207.90,254.92 C213.25,255.00 213.29,254.98 211.50,253.00 ZM 229.74 125.40 C228.95,124.61 229.97,122.00 231.07,122.00 C231.54,122.00 232.41,122.90 233.00,124.00 C233.89,125.67 233.76,126.00 232.20,126.00 C231.17,126.00 230.06,125.73 229.74,125.40 ZM 167.17 124.34 C167.59,122.15 170.50,121.84 170.50,123.99 C170.50,124.80 169.67,125.63 168.66,125.83 C167.32,126.08 166.92,125.68 167.17,124.34 ZM 246.28 201.00 C247.06,201.00 247.03,200.63 246.19,199.79 C245.25,198.85 244.60,198.99 243.24,200.43 C241.58,202.20 241.59,202.25 243.33,201.64 C244.34,201.29 245.67,201.00 246.28,201.00 ZM 103.50 90.00 C103.84,89.45 103.19,89.00 102.06,89.00 C100.93,89.00 100.00,89.45 100.00,90.00 C100.00,90.55 100.65,91.00 101.44,91.00 C102.23,91.00 103.16,90.55 103.50,90.00 ZM 166.00 331.00 C166.00,330.45 165.30,330.00 164.44,330.00 C163.58,330.00 163.16,330.45 163.50,331.00 C163.84,331.55 164.54,332.00 165.06,332.00 C165.58,332.00 166.00,331.55 166.00,331.00 ZM 237.00 331.00 C237.00,330.45 236.58,330.00 236.06,330.00 C235.54,330.00 234.84,330.45 234.50,331.00 C234.16,331.55 234.58,332.00 235.44,332.00 C236.30,332.00 237.00,331.55 237.00,331.00 ZM 299.00 90.00 C299.00,89.45 298.55,89.00 298.00,89.00 C297.45,89.00 297.00,89.45 297.00,90.00 C297.00,90.55 297.45,91.00 298.00,91.00 C298.55,91.00 299.00,90.55 299.00,90.00 ZM 192.95 124.87 C195.90,124.88 197.75,124.54 197.47,123.81 C197.28,123.32 196.40,122.96 194.70,122.71 C196.21,122.61 197.16,122.96 197.46,123.74 C197.84,124.76 196.92,125.02 192.95,124.87 ZM 208.42 221.30 C208.24,223.17 208.23,224.66 208.53,224.72 C207.93,225.96 207.77,225.28 208.32,222.00 C208.35,221.81 208.39,221.58 208.42,221.30 ZM 177.30 120.39 C178.13,120.91 179.56,121.39 181.10,121.76 C179.44,121.47 178.25,121.09 177.49,120.58 C175.90,119.54 174.89,119.38 174.45,120.08 C174.89,119.36 175.82,119.47 177.30,120.39 ZM 198.25 88.28 C199.51,87.19 200.35,87.12 201.85,87.92 C203.57,88.84 204.36,89.16 204.71,88.60 C204.36,89.16 203.59,88.85 201.91,87.95 C200.61,87.26 199.71,87.30 198.25,88.28 ZM 229.61 284.11 C229.59,284.67 229.52,285.00 229.41,285.00 C229.17,285.00 228.88,284.85 228.56,284.57 C229.17,284.99 229.50,284.89 229.61,284.11 ZM 242.07 295.12 C241.48,294.03 240.65,293.37 239.68,293.17 C240.70,293.24 241.41,293.91 242.07,295.12 ZM 210.62 271.60 C210.47,271.71 210.33,271.95 210.23,272.30 C210.28,271.77 210.41,271.54 210.62,271.60 ZM 198.50 76.00 C199.17,74.71 199.65,73.87 200.06,73.47 C199.63,74.00 199.05,74.94 198.50,76.00 ZM 201.02 73.47 C201.36,73.87 201.70,74.71 202.15,76.00 C201.78,74.94 201.35,74.00 201.02,73.47 ZM 170.41 283.42 C170.50,283.04 170.67,282.62 170.91,282.17 C171.51,281.05 172.00,278.54 172.00,276.58 C172.00,278.54 171.53,281.01 170.95,282.09 C170.69,282.57 170.52,283.02 170.41,283.42 ZM 178.20 179.09 C178.01,179.07 177.86,179.06 177.74,179.06 C177.77,179.02 177.81,179.00 177.87,179.00 C177.93,179.00 178.04,179.03 178.20,179.09 ZM 222.51 179.68 C222.56,179.44 222.57,179.27 222.52,179.20 C222.53,179.20 222.53,179.20 222.54,179.20 C222.59,179.25 222.57,179.42 222.51,179.68 Z" fill="rgb(13,25,27)"/>
<path d="M 177.00 75.47 C177.00,75.49 177.01,75.50 177.02,75.50 C172.04,77.31 159.79,82.24 153.50,85.00 C152.40,85.48 145.88,88.16 139.00,90.96 C132.12,93.75 125.65,96.52 124.62,97.11 C123.58,97.70 120.94,98.82 118.75,99.59 C116.55,100.36 112.11,102.18 108.88,103.64 L 103.00 106.27 L 103.00 150.64 C103.00,150.85 103.00,151.06 103.00,151.27 C102.99,123.74 102.65,109.00 102.00,109.00 C101.35,109.00 100.94,121.69 100.84,144.75 C100.67,185.44 100.70,188.12 99.70,188.59 C99.59,188.64 99.46,188.67 99.31,188.72 C98.66,188.94 97.54,188.08 96.81,186.81 C95.77,184.98 95.56,175.91 95.78,143.35 L 96.06 102.21 L 101.53 99.44 C104.54,97.92 106.82,96.48 106.59,96.26 C106.53,96.20 106.32,96.22 105.98,96.32 C111.97,93.71 119.93,90.31 128.55,86.68 C118.02,91.20 110.65,94.67 111.37,94.82 C112.22,94.99 116.30,93.53 120.43,91.57 C124.56,89.60 128.37,88.00 128.89,88.00 C129.84,88.00 141.83,82.94 151.91,78.28 C154.88,76.91 159.77,74.94 162.76,73.91 C168.03,72.10 174.64,69.23 180.15,66.38 C181.61,65.62 183.70,65.00 184.78,65.00 C185.87,65.00 187.25,64.40 187.86,63.67 C188.47,62.94 191.45,61.49 194.48,60.46 C199.88,58.63 200.12,58.63 205.75,60.47 C208.91,61.51 212.18,62.86 213.00,63.48 C213.82,64.09 216.98,65.42 220.00,66.44 C223.02,67.46 226.21,68.90 227.08,69.64 C227.95,70.39 229.07,71.00 229.58,71.00 C230.77,70.99 242.08,75.48 248.50,78.50 C253.53,80.86 256.76,82.19 271.50,87.93 C275.90,89.65 281.30,91.89 283.50,92.92 C285.70,93.95 291.10,96.42 295.50,98.39 L 303.50 101.99 L 304.00 143.25 C304.40,176.20 304.24,184.97 303.19,186.81 C299.86,192.67 299.51,189.21 299.21,147.92 C299.04,124.58 299.14,113.96 298.00,108.70 C297.84,107.94 297.65,107.29 297.42,106.73 C297.00,105.65 296.46,104.91 295.78,104.34 C294.44,103.21 292.54,102.76 289.84,101.76 C279.54,97.95 278.48,97.49 276.03,95.75 C274.67,94.79 272.62,94.00 271.48,94.00 C270.33,94.00 268.97,93.63 268.45,93.17 C267.93,92.71 263.67,90.88 259.00,89.11 C254.32,87.33 248.25,84.84 245.50,83.57 C242.75,82.31 237.30,79.81 233.38,78.01 C229.47,76.21 225.65,74.97 224.88,75.26 C224.30,75.47 224.11,75.68 224.35,75.92 C223.14,75.42 221.96,74.92 220.81,74.45 C223.13,75.21 222.54,74.48 220.41,72.50 C218.92,71.12 216.98,70.00 216.09,70.00 C215.20,70.00 212.00,69.05 208.99,67.89 C205.97,66.73 202.31,65.56 200.86,65.29 C198.05,64.77 194.00,66.41 194.00,68.07 C194.00,68.35 194.12,68.51 194.36,68.54 C192.69,69.22 190.50,70.16 187.50,71.50 C186.61,71.89 185.59,72.32 184.53,72.75 C187.30,71.55 189.89,70.32 190.45,69.83 C191.66,68.77 189.59,68.79 184.89,69.89 C181.79,70.61 177.00,74.00 177.00,75.47 ZM 191.96 331.21 C197.15,334.15 199.21,334.80 201.93,334.38 C206.26,333.70 213.60,330.34 217.50,327.26 C221.26,324.28 228.54,319.41 237.12,314.14 C245.46,309.00 250.41,303.63 249.08,301.14 C247.18,297.59 239.95,291.00 237.96,291.00 C236.83,291.00 234.78,289.87 233.40,288.50 C231.22,286.31 230.94,285.26 231.20,280.25 L 231.50 274.50 L 235.92 274.60 C239.66,274.68 240.85,275.25 243.67,278.33 C245.50,280.33 247.00,282.85 247.00,283.93 C247.00,285.87 248.68,287.65 249.63,286.71 C250.08,286.25 249.14,283.61 247.84,281.01 C248.21,281.73 248.56,282.46 248.86,283.15 L 250.85 287.81 L 259.67 288.49 C261.99,288.67 264.41,288.91 266.49,289.15 C259.94,288.50 250.86,288.20 252.50,288.95 C253.60,289.45 256.89,289.89 259.82,289.93 C265.35,290.00 269.00,291.29 269.00,293.16 C269.00,295.30 256.93,305.60 239.91,318.00 C237.26,319.92 233.09,322.96 230.62,324.75 C228.16,326.54 225.63,328.00 225.01,328.00 C224.39,328.00 222.22,329.32 220.19,330.94 C218.16,332.56 212.93,335.67 208.57,337.86 L 200.64 341.83 L 196.06 340.02 C190.76,337.93 179.38,331.42 178.48,329.96 C178.14,329.42 176.43,328.37 174.68,327.63 C172.93,326.89 169.36,324.65 166.74,322.65 C164.12,320.64 161.72,319.00 161.40,319.00 C161.07,319.00 159.39,318.01 157.65,316.79 C155.44,315.24 154.91,315.09 155.88,316.30 C157.64,318.49 171.18,327.54 184.27,335.36 C171.63,327.88 162.46,321.83 153.38,314.85 C153.56,314.93 153.71,314.98 153.82,314.98 C154.61,314.95 148.93,309.81 139.48,302.00 C135.81,298.98 132.41,295.74 131.91,294.82 C130.40,292.02 133.45,290.01 139.32,289.93 C142.17,289.89 145.40,289.45 146.50,288.94 C147.81,288.35 145.72,288.22 140.50,288.57 C140.31,288.59 140.12,288.60 139.94,288.61 L 150.07 287.71 L 151.60 284.16 C151.28,285.11 151.16,285.88 151.32,286.32 C151.56,286.97 152.24,286.38 152.82,285.00 C156.13,277.20 162.46,272.34 166.76,274.30 C168.59,275.13 169.03,276.03 168.80,278.42 C168.54,281.02 168.06,281.50 165.50,281.68 C163.37,281.82 161.38,283.14 158.66,286.19 C152.73,292.84 149.00,298.14 149.00,299.90 C149.01,300.78 151.59,303.59 154.75,306.14 C161.83,311.84 183.13,326.20 191.96,331.21 ZM 102.88 210.65 L 102.90 217.97 C102.91,220.05 102.92,221.84 102.95,223.42 C102.82,220.81 102.45,219.00 102.00,219.00 C100.70,219.00 100.75,230.20 102.08,236.00 C103.10,240.42 105.33,245.90 109.09,253.20 C110.14,255.23 111.00,257.34 111.00,257.87 C111.00,259.07 120.49,273.66 123.23,276.68 C125.56,279.23 124.85,281.00 121.50,281.00 C119.57,281.00 117.74,278.93 112.06,270.37 C108.17,264.53 105.00,258.93 105.00,257.93 C105.00,256.94 104.62,255.88 104.15,255.59 C103.68,255.30 102.52,252.91 101.57,250.28 C100.62,247.65 99.44,244.60 98.94,243.50 C96.65,238.42 95.37,226.96 95.78,215.25 C96.11,205.80 96.52,203.00 97.57,203.00 C99.41,203.00 101.00,206.21 101.00,209.93 C101.00,211.62 101.45,213.00 102.00,213.00 C102.38,213.00 102.71,212.05 102.88,210.65 ZM 284.59 275.75 C281.83,279.58 280.16,281.00 278.41,281.00 C277.08,281.00 276.00,280.59 276.00,280.10 C276.00,279.60 279.15,274.48 283.00,268.71 C286.85,262.94 290.00,257.70 290.00,257.06 C290.00,256.42 290.89,254.23 291.98,252.20 C297.58,241.71 299.00,234.91 299.00,218.64 C299.00,209.57 299.37,205.88 300.43,204.44 C302.96,201.02 303.82,204.03 304.05,217.00 C304.29,231.05 303.42,239.44 301.38,242.71 C300.62,243.93 300.00,245.60 300.00,246.42 C300.00,248.65 288.93,269.73 284.59,275.75 ZM 203.00 82.62 C203.00,84.25 202.45,84.98 201.25,84.92 C196.83,84.72 195.71,82.43 198.61,79.54 C200.65,77.50 203.00,79.15 203.00,82.62 ZM 94.47 105.86 L 94.00 182.56 L 94.00 144.18 C94.00,122.94 94.12,111.49 94.47,105.86 ZM 102.87 206.16 C102.60,204.23 101.83,203.19 99.92,201.59 L 102.87 204.06 ZM 274.41 290.60 L 269.95 295.46 C273.69,291.38 274.28,290.74 272.90,290.24 ZM 160.83 273.30 C163.54,272.02 166.53,271.67 169.49,272.41 C166.99,271.78 163.65,272.18 160.83,273.30 ZM 202.81 67.55 C205.06,68.11 207.95,69.19 211.96,70.88 C208.04,69.35 204.87,68.19 202.81,67.55 ZM 138.13 302.28 C134.49,299.05 131.53,296.18 129.62,294.05 C131.78,296.28 134.99,299.38 138.13,302.28 ZM 105.64 240.06 C105.71,240.26 105.78,240.47 105.85,240.69 C108.44,248.51 112.12,256.46 116.52,263.82 C111.81,255.96 108.00,247.60 105.64,240.06 ZM 240.63 82.94 C256.58,89.75 292.41,104.82 295.32,105.93 C292.08,104.70 255.11,89.14 240.63,82.94 ZM 241.24 299.21 C240.22,300.23 239.73,300.71 239.41,300.64 C240.29,299.96 240.95,299.41 241.35,299.02 C241.84,298.56 242.18,298.16 242.39,297.79 C242.17,298.21 241.79,298.66 241.24,299.21 ZM 164.03 71.74 C170.66,68.95 176.44,66.51 180.38,64.84 C194.32,58.94 199.77,57.06 201.80,57.47 C199.76,57.06 194.10,59.03 179.38,65.26 C175.28,67.00 169.89,69.28 164.03,71.74 ZM 196.62 67.70 C197.29,67.41 197.98,67.22 198.74,67.14 C198.13,67.25 197.46,67.42 196.62,67.70 ZM 128.15 290.08 C127.72,290.22 127.42,290.37 127.24,290.52 C127.24,290.45 127.27,290.40 127.31,290.35 C127.39,290.28 127.68,290.18 128.15,290.08 ZM 103.00 225.49 C103.04,226.60 103.08,227.59 103.15,228.51 C103.05,227.48 103.00,226.48 103.00,225.53 Z" fill="rgb(17,242,139)"/>
<path d="M 238.47 116.08 C238.81,115.03 238.61,113.88 238.04,113.53 C236.84,112.78 236.63,110.99 237.75,111.02 C238.16,111.03 239.62,111.94 241.00,113.03 C243.45,114.98 243.46,115.06 241.56,116.51 C238.91,118.54 237.74,118.38 238.47,116.08 ZM 226.56 109.48 C226.99,109.39 227.46,108.98 228.21,108.31 C229.27,107.35 229.75,106.90 229.47,106.49 C233.12,108.42 234.15,110.00 231.58,110.00 C230.80,110.00 230.00,110.51 229.79,111.13 C229.62,111.64 228.26,110.92 226.56,109.48 ZM 223.33 104.22 C222.74,104.27 222.54,104.61 222.74,105.22 C222.47,104.58 222.68,104.24 223.33,104.22 Z" fill="rgb(9,77,44)"/>
<path d="M 273.42 281.64 C273.13,280.89 275.60,276.50 278.91,271.89 C285.62,262.54 290.85,252.55 294.72,241.72 C296.93,235.52 297.36,232.37 297.75,219.35 L 298.21 204.20 L 303.56 198.98 C303.33,199.41 303.55,199.73 304.20,200.15 C305.99,201.28 306.00,201.27 306.00,198.88 C306.00,197.26 305.81,196.99 304.82,197.74 L 306.00 196.59 L 306.00 234.25 L 302.46 244.87 C298.88,255.61 291.66,269.53 285.14,278.25 C281.99,282.47 281.16,283.00 277.76,283.00 C275.46,283.00 273.73,282.46 273.42,281.64 ZM 164.03 71.74 C169.89,69.28 175.28,67.00 179.38,65.26 C194.10,59.03 199.76,57.06 201.80,57.47 C201.83,57.47 201.86,57.48 201.88,57.48 C204.82,58.19 214.10,62.03 268.00,84.79 L 305.50 100.62 L 305.76 144.00 L 306.02 187.38 L 302.81 190.69 C301.05,192.51 299.25,194.00 298.80,194.00 C298.36,194.00 298.00,174.41 298.00,150.48 L 298.00 108.70 C299.14,113.96 299.04,124.58 299.21,147.92 C299.51,189.21 299.86,192.67 303.19,186.81 C304.24,184.97 304.40,176.20 304.00,143.25 L 303.50 101.99 L 295.50 98.39 C291.10,96.42 285.70,93.95 283.50,92.92 C281.30,91.89 275.90,89.65 271.50,87.93 C256.76,82.19 253.53,80.86 248.50,78.50 C242.08,75.48 230.77,70.99 229.58,71.00 C229.07,71.00 227.95,70.39 227.08,69.64 C226.21,68.90 223.02,67.46 220.00,66.44 C216.98,65.42 213.82,64.09 213.00,63.48 C212.18,62.86 208.91,61.51 205.75,60.47 C200.12,58.63 199.88,58.63 194.48,60.46 C191.45,61.49 188.47,62.94 187.86,63.67 C187.25,64.40 185.87,65.00 184.78,65.00 C183.70,65.00 181.61,65.62 180.15,66.38 C174.64,69.23 168.03,72.10 162.76,73.91 C159.77,74.94 154.88,76.91 151.91,78.28 C141.83,82.94 129.84,88.00 128.89,88.00 C128.37,88.00 124.56,89.60 120.43,91.57 C116.30,93.53 112.22,94.99 111.37,94.82 C110.65,94.67 118.02,91.20 128.55,86.68 C128.71,86.61 128.86,86.55 129.02,86.48 C140.10,81.83 153.20,76.31 164.03,71.74 ZM 284.59 275.75 C288.93,269.73 300.00,248.65 300.00,246.42 C300.00,245.60 300.62,243.93 301.38,242.71 C303.42,239.44 304.29,231.05 304.05,217.00 C303.82,204.03 302.96,201.02 300.43,204.44 C299.37,205.88 299.00,209.57 299.00,218.64 C299.00,234.91 297.58,241.71 291.98,252.20 C290.89,254.23 290.00,256.42 290.00,257.06 C290.00,257.70 286.85,262.94 283.00,268.71 C279.15,274.48 276.00,279.60 276.00,280.10 C276.00,280.59 277.08,281.00 278.41,281.00 C280.16,281.00 281.83,279.58 284.59,275.75 ZM 97.71 190.56 L 94.00 186.12 L 94.00 182.56 L 94.24 143.80 L 94.47 105.86 C94.66,102.83 94.92,101.48 95.27,101.19 C95.62,100.90 99.71,99.05 105.98,96.32 C106.32,96.22 106.53,96.20 106.59,96.26 C106.82,96.48 104.54,97.92 101.53,99.44 L 96.06 102.21 L 95.78 143.35 C95.56,175.91 95.77,184.98 96.81,186.81 C97.54,188.08 98.66,188.94 99.31,188.72 C99.46,188.67 99.59,188.64 99.70,188.59 C100.70,188.12 100.67,185.44 100.84,144.75 C100.94,121.69 101.35,109.00 102.00,109.00 C102.65,109.00 102.99,123.74 103.00,151.26 L 103.00 151.27 C103.00,170.13 102.78,186.24 102.48,192.37 C102.22,192.14 101.87,192.00 101.50,192.00 C100.50,192.00 99.97,192.49 100.02,193.14 C99.31,192.41 98.51,191.52 97.71,190.56 ZM 114.70 276.75 C108.82,268.81 101.03,253.81 97.42,243.50 C94.92,236.36 94.57,233.81 94.20,219.74 C93.79,204.06 94.22,199.00 95.94,199.00 C96.44,199.00 98.20,200.14 99.86,201.53 L 99.92 201.59 C101.83,203.19 102.60,204.23 102.87,206.16 L 102.88 210.65 C102.71,212.05 102.38,213.00 102.00,213.00 C101.45,213.00 101.00,211.62 101.00,209.93 C101.00,206.21 99.41,203.00 97.57,203.00 C96.52,203.00 96.11,205.80 95.78,215.25 C95.37,226.96 96.65,238.42 98.94,243.50 C99.44,244.60 100.62,247.65 101.57,250.28 C102.52,252.91 103.68,255.30 104.15,255.59 C104.62,255.88 105.00,256.94 105.00,257.93 C105.00,258.93 108.17,264.53 112.06,270.37 C117.74,278.93 119.57,281.00 121.50,281.00 C124.85,281.00 125.56,279.23 123.23,276.68 C120.49,273.66 111.00,259.07 111.00,257.87 C111.00,257.34 110.14,255.23 109.09,253.20 C105.33,245.90 103.10,240.42 102.08,236.00 C100.75,230.20 100.70,219.00 102.00,219.00 C102.45,219.00 102.82,220.81 102.95,223.42 C102.96,224.15 102.98,224.84 103.00,225.49 L 103.00 225.53 C103.00,226.48 103.05,227.48 103.15,228.51 C103.45,232.77 104.13,235.43 105.64,240.06 C108.00,247.60 111.81,255.96 116.52,263.82 C118.56,267.21 120.74,270.48 123.05,273.56 C124.56,275.59 125.90,277.52 126.86,279.04 C126.63,279.14 126.37,279.45 126.02,280.00 C125.47,280.83 125.02,281.84 125.02,282.25 C125.01,282.58 125.30,282.79 125.71,282.90 C125.06,282.96 124.34,283.00 123.61,283.00 C119.52,283.00 119.13,282.72 114.70,276.75 ZM 188.50 337.85 C187.05,337.00 185.64,336.17 184.27,335.36 L 184.27 335.36 C171.18,327.54 157.64,318.49 155.88,316.30 C154.91,315.09 155.44,315.24 157.65,316.79 C159.39,318.01 161.07,319.00 161.40,319.00 C161.72,319.00 164.12,320.64 166.74,322.65 C169.36,324.65 172.93,326.89 174.68,327.63 C176.43,328.37 178.14,329.42 178.48,329.96 C179.38,331.42 190.76,337.93 196.06,340.02 L 200.64 341.83 L 208.57 337.86 C212.93,335.67 218.16,332.56 220.19,330.94 C222.22,329.32 224.39,328.00 225.01,328.00 C225.63,328.00 228.16,326.54 230.62,324.75 C233.09,322.96 237.26,319.92 239.91,318.00 C256.93,305.60 269.00,295.30 269.00,293.16 C269.00,291.29 265.35,290.00 259.82,289.93 C256.89,289.89 253.60,289.45 252.50,288.95 C250.86,288.20 259.94,288.50 266.49,289.15 C268.75,289.42 270.61,289.69 271.45,289.89 L 272.90 290.24 C274.28,290.74 273.69,291.38 269.95,295.46 C258.11,308.39 233.69,326.06 206.00,341.72 L 200.50 344.83 ZM 242.07 295.12 C241.41,293.91 240.70,293.24 239.68,293.17 C238.61,292.94 237.35,293.28 236.04,294.18 C236.17,293.93 235.62,293.37 234.74,292.88 C233.78,292.34 232.36,290.69 231.58,289.20 C230.81,287.72 229.33,285.60 228.31,284.50 C228.19,284.37 228.07,284.23 227.94,284.06 C228.17,284.27 228.38,284.44 228.56,284.57 C228.88,284.85 229.17,285.00 229.41,285.00 C229.52,285.00 229.59,284.67 229.61,284.11 C229.74,283.27 229.62,281.65 229.35,279.05 C228.74,273.23 228.78,273.09 231.40,272.43 C234.97,271.54 242.37,273.70 244.86,276.36 C245.67,277.22 246.84,279.08 247.84,281.01 C249.14,283.61 250.08,286.25 249.63,286.71 C248.68,287.65 247.00,285.87 247.00,283.93 C247.00,282.85 245.50,280.33 243.67,278.33 C240.85,275.25 239.66,274.68 235.92,274.60 L 231.50 274.50 L 231.20 280.25 C230.94,285.26 231.22,286.31 233.40,288.50 C234.78,289.87 236.83,291.00 237.96,291.00 C239.95,291.00 247.18,297.59 249.08,301.14 C250.41,303.63 245.46,309.00 237.12,314.14 C228.54,319.41 221.26,324.28 217.50,327.26 C213.60,330.34 206.26,333.70 201.93,334.38 C201.82,334.40 201.71,334.41 201.60,334.43 C210.94,330.57 248.00,305.62 248.00,302.79 C248.00,302.15 247.02,300.58 245.82,299.31 C243.67,297.02 243.61,297.02 241.57,298.88 C241.53,298.93 241.48,298.97 241.43,299.01 C241.88,298.55 242.20,298.16 242.39,297.79 C242.78,297.05 242.70,296.40 242.23,295.44 C242.18,295.34 242.12,295.23 242.07,295.12 ZM 240.63 82.94 C238.59,82.07 236.99,81.38 236.00,80.94 C231.98,79.17 228.05,77.48 224.35,75.92 C224.11,75.68 224.30,75.47 224.88,75.26 C225.65,74.97 229.47,76.21 233.38,78.01 C237.30,79.81 242.75,82.31 245.50,83.57 C248.25,84.84 254.32,87.33 259.00,89.11 C263.67,90.88 267.93,92.71 268.45,93.17 C268.97,93.63 270.33,94.00 271.48,94.00 C272.62,94.00 274.67,94.79 276.03,95.75 C278.48,97.49 279.54,97.95 289.84,101.76 C292.54,102.76 294.44,103.21 295.78,104.34 C296.46,104.91 297.00,105.65 297.42,106.73 L 295.32 105.93 C292.41,104.82 256.58,89.75 240.63,82.94 ZM 198.25 88.28 C198.03,88.43 197.79,88.60 197.54,88.79 C197.57,88.37 197.21,87.91 196.59,87.67 C195.87,87.40 195.23,87.41 194.77,87.67 C194.84,87.61 194.92,87.55 195.00,87.50 C195.78,87.02 196.07,85.94 195.94,84.81 L 195.94 84.81 C195.82,83.77 195.33,82.69 194.50,82.00 C192.42,80.28 192.63,79.00 194.97,79.00 C196.16,79.00 197.57,77.80 198.50,76.00 C199.17,74.71 199.65,73.87 200.06,73.47 C200.42,73.10 200.72,73.10 201.02,73.47 C201.17,73.70 201.34,74.02 201.51,74.40 C201.24,74.07 200.85,73.85 200.50,73.85 C199.98,73.85 199.39,74.33 199.19,74.93 C198.99,75.52 199.58,76.00 200.50,76.00 C201.28,76.00 201.82,75.65 201.85,75.18 C201.95,75.44 202.05,75.72 202.15,76.00 C202.82,77.92 203.88,79.00 205.10,79.00 C207.09,79.00 207.72,81.44 206.00,82.50 C205.45,82.84 205.00,84.44 205.00,86.06 C205.00,87.39 204.96,88.20 204.71,88.60 C204.36,89.16 203.57,88.84 201.85,87.92 C200.35,87.12 199.51,87.19 198.25,88.28 ZM 170.41 283.42 C170.10,284.61 170.44,285.37 171.09,285.38 C171.60,285.53 172.30,284.99 173.14,283.90 L 171.84 286.10 L 168.36 284.05 C166.66,283.05 164.77,282.20 163.87,282.03 C164.42,281.83 164.95,281.71 165.50,281.68 C168.06,281.50 168.54,281.02 168.80,278.42 C169.03,276.03 168.59,275.13 166.76,274.30 C162.46,272.34 156.13,277.20 152.82,285.00 C152.24,286.38 151.56,286.97 151.32,286.32 C151.16,285.88 151.28,285.11 151.60,284.16 L 152.17 282.83 C154.11,278.31 157.23,275.00 160.83,273.30 C163.65,272.18 166.99,271.78 169.49,272.41 C171.58,272.93 172.00,273.63 172.00,276.58 C172.00,278.54 171.51,281.05 170.91,282.17 C170.67,282.62 170.50,283.04 170.41,283.42 ZM 128.15 290.08 C129.92,289.68 134.23,289.12 139.03,288.69 L 139.94 288.61 C140.12,288.60 140.31,288.59 140.50,288.57 C145.72,288.22 147.81,288.35 146.50,288.94 C145.40,289.45 142.17,289.89 139.32,289.93 C133.45,290.01 130.40,292.02 131.91,294.82 C132.41,295.74 135.81,298.98 139.48,302.00 C148.93,309.81 154.61,314.95 153.82,314.98 C153.71,314.98 153.56,314.93 153.38,314.85 C149.37,311.77 145.37,308.51 141.10,304.86 C140.07,303.98 139.08,303.12 138.13,302.28 C134.99,299.38 131.78,296.28 129.62,294.05 C128.04,292.29 127.17,291.04 127.24,290.52 C127.42,290.37 127.72,290.22 128.15,290.08 ZM 202.81 67.55 C201.65,67.19 200.85,67.00 200.47,67.00 C199.89,67.00 199.35,67.04 198.74,67.14 C197.98,67.22 197.29,67.41 196.62,67.70 C195.98,67.92 195.24,68.19 194.36,68.54 C194.12,68.51 194.00,68.35 194.00,68.07 C194.00,66.41 198.05,64.77 200.86,65.29 C202.31,65.56 205.97,66.73 208.99,67.89 C212.00,69.05 215.20,70.00 216.09,70.00 C216.98,70.00 218.92,71.12 220.41,72.50 C222.54,74.48 223.13,75.21 220.81,74.45 C217.59,73.12 214.61,71.91 211.96,70.88 C207.95,69.19 205.06,68.11 202.81,67.55 ZM 203.00 82.62 C203.00,79.15 200.65,77.50 198.61,79.54 C195.71,82.43 196.83,84.72 201.25,84.92 C202.45,84.98 203.00,84.25 203.00,82.62 ZM 177.00 75.47 C177.00,74.00 181.79,70.61 184.89,69.89 C189.59,68.79 191.66,68.77 190.45,69.83 C189.89,70.32 187.30,71.55 184.53,72.75 C182.33,73.64 179.99,74.51 178.50,74.99 C178.13,75.11 177.63,75.28 177.02,75.50 C177.01,75.50 177.00,75.49 177.00,75.47 ZM 176.26 278.48 C178.86,273.12 181.91,265.14 184.54,256.31 C181.56,266.29 178.84,273.57 176.26,278.48 ZM 155.43 289.95 C156.41,288.76 157.49,287.50 158.66,286.19 C159.90,284.80 160.99,283.77 162.02,283.04 C160.38,284.46 157.83,287.14 155.43,289.95 ZM 215.14 317.11 C209.93,320.43 205.22,323.30 202.41,324.79 C203.56,324.18 208.55,321.18 213.50,318.13 C214.04,317.80 214.59,317.46 215.14,317.11 ZM 191.96 331.21 C187.40,328.62 179.50,323.53 171.96,318.44 C179.54,323.55 187.46,328.64 191.96,331.17 C193.40,331.98 194.82,332.73 196.06,333.35 C194.93,332.84 193.60,332.14 191.96,331.21 ZM 149.76 301.30 C149.28,300.68 149.00,300.19 149.00,299.90 C149.00,299.63 149.09,299.28 149.25,298.86 C149.09,299.69 149.24,300.45 149.76,301.30 ZM 234.68 295.29 C234.60,295.37 234.55,295.45 234.53,295.52 C233.92,295.95 233.26,296.44 232.55,296.99 C233.36,296.34 234.10,295.75 234.68,295.29 ZM 195.11 89.96 C194.59,90.00 194.20,89.83 194.06,89.43 C194.21,89.74 194.62,89.92 195.11,89.96 ZM 225.23 300.75 C225.22,300.75 225.21,300.74 225.21,300.73 C224.48,299.84 222.21,295.53 219.80,290.65 C222.20,295.52 224.48,299.83 225.23,300.75 ZM 102.11 194.97 C102.16,194.97 102.21,194.95 102.25,194.94 C102.24,194.98 102.23,195.00 102.21,195.00 C102.18,195.00 102.15,194.99 102.11,194.97 ZM 239.42 300.64 C239.23,300.78 239.03,300.93 238.82,301.09 C239.03,300.93 239.22,300.78 239.41,300.64 ZM 194.00 89.06 C194.00,89.00 194.01,88.94 194.02,88.87 C194.01,88.95 194.00,89.02 194.00,89.10 C194.00,89.09 194.00,89.07 194.00,89.06 ZM 128.38 282.19 C128.39,282.18 128.39,282.18 128.39,282.17 C128.39,282.17 128.39,282.18 128.39,282.18 Z" fill="rgb(39,225,141)"/>
<path d="M 171.26 108.51 C169.85,106.91 170.52,106.28 175.03,104.99 C178.46,104.01 178.57,104.20 176.38,107.54 C174.57,110.30 173.09,110.59 171.26,108.51 ZM 225.46 108.48 C223.94,107.04 223.04,105.94 222.74,105.22 C222.54,104.61 222.74,104.27 223.33,104.22 C224.23,104.20 225.97,104.78 228.51,106.00 C228.84,106.17 229.16,106.33 229.47,106.49 C229.75,106.90 229.27,107.35 228.21,108.31 C227.46,108.98 226.99,109.39 226.56,109.48 C226.21,109.18 225.84,108.85 225.46,108.48 ZM 230.64 131.49 C230.32,130.67 229.18,130.00 228.09,130.00 C223.88,130.00 225.81,127.11 230.09,127.01 C231.16,126.99 232.94,131.92 232.07,132.46 C231.60,132.75 230.95,132.32 230.64,131.49 ZM 128.38 282.19 C128.18,282.50 127.11,282.76 125.71,282.90 C125.30,282.79 125.01,282.58 125.02,282.25 C125.02,281.84 125.47,280.83 126.02,280.00 C126.37,279.45 126.63,279.14 126.86,279.04 C127.91,280.72 128.51,281.90 128.39,282.17 C128.39,282.18 128.39,282.18 128.38,282.19 ZM 304.82 197.74 C305.81,196.99 306.00,197.26 306.00,198.88 C306.00,201.27 305.99,201.28 304.20,200.15 C303.55,199.73 303.33,199.41 303.56,198.98 ZM 102.11 194.97 C101.76,194.84 100.98,194.14 100.02,193.14 C99.97,192.49 100.50,192.00 101.50,192.00 C101.87,192.00 102.22,192.14 102.48,192.37 C102.41,193.81 102.33,194.70 102.25,194.94 C102.21,194.95 102.16,194.97 102.11,194.97 ZM 200.50 73.85 C200.85,73.85 201.24,74.07 201.51,74.40 C201.62,74.64 201.73,74.90 201.85,75.18 C201.82,75.65 201.28,76.00 200.50,76.00 C199.58,76.00 198.99,75.52 199.19,74.93 C199.39,74.33 199.98,73.85 200.50,73.85 Z" fill="rgb(95,205,159)"/>
<path d="M 221.31 182.77 C221.92,181.51 222.37,180.33 222.51,179.68 C222.57,179.42 222.59,179.25 222.54,179.20 C222.53,179.20 222.53,179.20 222.52,179.20 C222.52,179.19 222.51,179.18 222.51,179.17 C222.08,178.75 219.66,180.12 217.89,181.48 C216.67,182.17 215.29,182.97 213.84,183.84 C212.89,184.41 212.02,184.94 211.21,185.43 C205.65,188.79 203.04,190.37 200.47,190.32 C197.82,190.26 195.20,188.48 189.43,185.15 C185.73,183.00 182.28,181.10 180.12,180.00 C179.72,179.59 179.20,179.28 178.68,179.18 C178.50,179.14 178.34,179.11 178.20,179.09 C178.04,179.03 177.93,179.00 177.87,179.00 C177.81,179.00 177.77,179.02 177.74,179.06 C177.14,179.09 177.33,179.56 178.18,180.91 C178.47,181.38 178.76,181.76 179.03,182.07 C179.17,182.28 179.31,182.51 179.46,182.73 C182.57,187.30 182.60,188.10 179.75,190.71 C171.57,198.18 160.78,197.79 152.26,189.71 C152.05,189.50 151.84,189.31 151.64,189.13 C148.14,185.45 146.78,187.17 149.12,192.36 C150.24,195.82 150.12,196.25 147.91,198.64 C142.57,204.45 131.86,206.69 125.50,203.34 C124.18,202.64 122.96,201.85 121.84,200.97 C123.41,201.86 124.17,201.18 123.00,199.01 C121.73,196.63 121.69,188.00 122.94,188.00 C123.46,188.00 124.19,188.50 124.56,189.10 C126.57,192.35 138.54,195.25 141.63,193.23 C142.24,192.83 142.94,189.48 143.17,185.79 C143.40,182.10 143.91,178.76 144.30,178.37 C144.69,177.98 148.44,179.40 152.63,181.53 C156.83,183.66 161.12,185.34 162.17,185.26 C165.76,184.99 171.00,180.98 171.00,178.51 C171.00,175.22 175.06,165.00 176.37,165.00 C176.97,165.00 182.51,167.93 188.68,171.50 C194.86,175.07 200.17,178.00 200.49,178.00 C200.81,178.00 206.16,175.07 212.39,171.50 C218.62,167.93 224.21,165.00 224.83,165.00 C225.44,165.00 226.88,168.26 228.03,172.25 C230.78,181.81 230.96,182.08 235.74,184.11 L 239.85 185.86 L 247.87 181.70 C252.28,179.42 256.16,177.82 256.49,178.16 C256.82,178.49 257.36,181.94 257.69,185.83 C258.26,192.66 258.38,192.93 261.22,193.55 C265.50,194.49 271.03,193.19 274.76,190.36 C277.52,188.26 278.11,188.12 278.61,189.44 C279.31,191.24 278.67,197.70 277.55,200.25 C276.46,202.74 278.41,202.45 280.96,199.96 C279.80,201.23 278.64,202.00 277.67,202.00 C276.89,202.00 275.68,202.68 275.00,203.50 C271.97,207.15 258.48,204.15 253.13,198.64 C249.96,195.36 249.96,195.35 251.54,191.57 C251.73,191.10 251.91,190.63 252.06,190.18 C252.80,188.60 253.06,187.00 252.25,187.00 C251.61,187.00 250.24,188.16 249.00,189.48 C248.75,189.71 248.49,189.95 248.23,190.20 C243.36,194.85 240.98,196.00 236.19,196.00 C229.67,196.00 226.59,194.99 222.45,191.52 L 218.51 188.21 L 220.71 183.89 C220.75,183.81 220.79,183.73 220.83,183.64 C221.00,183.37 221.16,183.08 221.31,182.77 ZM 234.68 295.29 C234.10,295.75 233.36,296.34 232.55,296.99 C232.34,297.15 232.13,297.31 231.92,297.48 C227.63,300.85 226.00,301.65 225.23,300.75 C224.48,299.83 222.20,295.52 219.80,290.65 C217.59,286.16 215.26,281.19 213.95,278.00 L 213.94 278.00 C213.18,276.14 212.53,274.69 212.01,273.64 C211.65,271.98 211.07,271.27 210.62,271.60 C210.41,271.54 210.28,271.77 210.23,272.30 C210.09,272.78 210.00,273.47 210.00,274.38 C210.00,274.66 210.00,274.92 210.01,275.16 L 209.99 275.00 C208.19,262.95 207.89,261.49 206.98,260.58 C204.39,257.99 204.81,262.53 209.09,283.75 C209.96,288.08 211.27,289.90 211.68,288.65 C211.98,291.87 212.45,295.12 213.00,297.89 C213.00,299.38 213.26,300.32 213.63,300.73 C213.95,302.00 214.29,303.08 214.62,303.89 C215.67,306.43 215.73,307.62 214.88,308.64 C213.21,310.66 202.48,317.00 200.75,317.00 C200.61,317.00 200.44,316.98 200.24,316.93 C200.25,316.92 200.26,316.91 200.27,316.90 C200.40,316.68 200.37,302.94 200.22,286.36 L 199.94 256.22 L 197.72 255.62 C197.19,255.48 196.58,255.36 195.93,255.27 C197.34,255.27 198.90,255.28 200.62,255.31 L 213.67 255.47 C213.50,255.88 213.62,256.71 213.98,258.19 C215.82,265.85 220.90,278.19 224.57,283.88 C228.21,289.53 229.90,290.79 230.69,288.43 C230.79,288.14 230.56,287.54 230.12,286.83 C230.69,287.64 231.21,288.49 231.58,289.20 C232.36,290.69 233.78,292.34 234.74,292.88 C235.62,293.37 236.17,293.93 236.04,294.18 C235.94,294.25 235.83,294.33 235.73,294.41 C235.22,294.79 234.87,295.07 234.68,295.29 ZM 210.66 218.67 C210.75,218.29 210.83,217.94 210.90,217.60 C211.41,215.80 211.96,213.74 212.53,211.47 C214.24,204.63 215.90,198.77 216.21,198.45 C216.53,198.14 218.41,198.56 220.39,199.39 C220.90,199.60 221.35,199.81 221.74,200.01 C221.64,200.00 221.53,200.00 221.42,200.00 C220.37,200.00 219.99,200.54 220.37,201.53 C220.94,203.00 220.47,205.11 216.17,220.50 C215.09,224.35 213.90,230.14 213.52,233.36 C213.17,236.33 213.10,237.87 213.37,238.49 C211.48,239.21 208.32,239.14 202.50,239.37 C201.86,239.39 201.19,239.41 200.50,239.43 L 200.77 219.46 L 201.04 199.42 L 196.49 197.21 C200.53,199.17 201.11,199.22 202.72,197.82 C203.70,196.97 205.80,195.96 207.39,195.58 L 208.89 195.22 C208.24,195.62 207.64,197.26 207.51,199.04 C207.38,200.94 206.93,207.56 206.51,213.75 C206.00,221.21 206.09,225.00 206.76,225.00 C207.66,225.00 208.24,223.18 208.78,217.94 C208.71,218.65 208.65,219.30 208.59,219.87 C208.52,220.36 208.47,220.84 208.42,221.30 C208.39,221.58 208.35,221.81 208.32,222.00 C207.77,225.28 207.93,225.96 208.53,224.72 C208.57,224.73 208.62,224.71 208.68,224.65 C209.13,224.20 210.02,221.51 210.66,218.67 ZM 232.37 217.57 C230.65,216.82 228.98,215.78 228.66,215.26 C227.60,213.55 231.27,204.00 232.98,204.00 C233.86,204.00 237.19,203.32 240.38,202.49 C246.07,201.01 246.24,201.02 248.98,203.33 C250.51,204.62 254.98,206.71 258.92,207.97 C265.55,210.10 265.95,210.40 264.52,211.98 C261.95,214.81 255.45,216.30 251.44,214.98 C248.49,214.01 247.52,214.13 244.75,215.81 C240.18,218.59 236.03,219.18 232.37,217.57 ZM 160.09 202.54 C160.36,202.61 160.64,202.68 160.91,202.75 C161.77,203.15 163.05,203.45 163.99,203.45 C165.59,203.77 166.97,203.98 167.63,203.99 C169.31,204.00 170.12,205.08 171.42,209.04 C173.31,214.82 173.01,215.68 168.41,217.60 C164.70,219.15 164.59,219.16 160.91,218.04 C159.49,217.61 157.16,216.50 155.74,215.57 C153.57,214.14 152.55,214.05 149.33,215.02 C146.13,215.97 144.69,215.86 140.58,214.33 C134.18,211.95 133.77,210.39 139.19,209.01 C145.66,207.36 148.97,205.89 151.97,203.37 C154.58,201.17 154.86,201.15 160.09,202.54 ZM 203.70 124.36 C202.14,122.80 203.41,122.49 212.14,122.31 C217.16,122.21 221.75,121.65 222.34,121.06 C223.85,119.55 226.00,119.75 226.00,121.39 C226.00,122.16 224.76,123.10 223.25,123.48 C219.19,124.51 204.51,125.17 203.70,124.36 ZM 180.33 123.50 C174.69,122.41 173.46,121.69 174.45,120.08 C174.89,119.38 175.90,119.54 177.49,120.58 C178.25,121.09 179.44,121.47 181.10,121.76 C183.76,122.39 186.78,122.70 187.71,122.31 C187.94,122.31 188.17,122.32 188.41,122.32 C189.52,122.35 190.51,122.38 191.40,122.42 C191.65,123.09 192.45,123.01 193.91,122.80 C194.19,122.76 194.45,122.73 194.70,122.71 C196.40,122.96 197.28,123.32 197.47,123.81 C197.75,124.54 195.90,124.88 192.95,124.87 C192.58,124.86 192.17,124.84 191.74,124.82 C188.31,124.64 183.17,124.05 180.33,123.50 ZM 166.86 138.53 C166.00,137.67 168.03,130.00 169.12,130.00 C169.60,130.00 169.98,130.79 169.95,131.75 C169.89,134.26 167.61,139.27 166.86,138.53 ZM 180.50 130.00 C179.71,128.72 184.02,128.72 186.00,130.00 C187.14,130.74 186.74,130.97 184.31,130.98 C182.55,130.99 180.84,130.55 180.50,130.00 ZM 215.00 130.00 C216.98,128.72 221.29,128.72 220.50,130.00 C220.16,130.55 218.45,130.99 216.69,130.98 C214.26,130.97 213.86,130.74 215.00,130.00 ZM 195.11 89.96 C194.62,89.92 194.21,89.74 194.06,89.43 C194.02,89.33 194.00,89.23 194.00,89.10 C194.00,89.02 194.01,88.95 194.02,88.87 C194.09,88.47 194.39,87.99 194.77,87.67 C195.23,87.41 195.87,87.40 196.59,87.67 C197.21,87.91 197.57,88.37 197.54,88.79 C197.48,88.84 197.42,88.88 197.36,88.93 L 196.81 89.36 C196.18,89.73 195.59,89.93 195.11,89.96 ZM 241.00 142.94 C241.00,141.81 241.45,141.16 242.00,141.50 C242.55,141.84 243.00,142.77 243.00,143.56 C243.00,144.35 242.55,145.00 242.00,145.00 C241.45,145.00 241.00,144.07 241.00,142.94 ZM 215.28 255.49 L 216.34 255.50 L 218.49 262.50 C217.37,258.84 216.20,256.32 215.28,255.49 ZM 209.26 195.14 L 210.28 194.89 L 209.63 206.09 C210.09,197.92 210.02,195.28 209.26,195.14 ZM 223.56 201.65 C224.31,203.16 223.69,205.57 221.94,210.59 C221.83,210.89 221.72,211.23 221.60,211.60 C221.74,211.16 221.87,210.75 221.99,210.38 C223.40,206.06 223.93,203.24 223.56,201.65 ZM 217.75 226.98 C217.71,227.15 217.68,227.33 217.64,227.50 C216.56,232.83 216.21,235.67 215.08,237.22 C215.82,235.36 216.73,231.99 217.55,227.93 C217.62,227.62 217.68,227.30 217.75,226.98 ZM 211.08 282.03 C210.84,280.51 210.57,278.79 210.32,277.19 C210.40,277.38 210.49,277.52 210.59,277.62 C210.76,279.08 210.94,280.62 211.08,282.03 ZM 116.73 195.22 C114.75,191.90 113.90,188.15 114.45,184.46 C113.95,187.97 114.80,191.81 116.73,195.22 ZM 192.23 312.94 C190.56,311.90 188.94,310.79 187.69,309.77 C185.74,308.19 185.16,307.64 185.38,305.71 C185.17,307.66 185.82,308.22 188.04,310.03 C189.09,310.89 190.61,311.93 192.23,312.94 ZM 176.26 278.48 C177.64,275.87 179.05,272.58 180.52,268.57 C179.02,272.67 177.63,275.91 176.23,278.55 ZM 118.61 175.20 C120.92,172.34 123.96,170.22 127.19,169.45 C123.97,170.22 120.93,172.34 118.61,175.20 ZM 228.30 284.49 L 228.31 284.50 C228.50,284.70 228.71,284.94 228.92,285.21 C228.86,285.14 228.79,285.06 228.73,284.99 C228.59,284.84 228.45,284.68 228.30,284.49 ZM 284.56 194.17 C284.97,193.21 285.33,192.23 285.60,191.32 C285.31,192.29 284.96,193.25 284.56,194.17 ZM 184.56 256.26 C184.42,256.71 184.29,257.15 184.15,257.59 C184.28,257.17 184.41,256.74 184.54,256.31 C184.54,256.29 184.55,256.27 184.56,256.26 Z" fill="rgb(96,165,141)"/>
<path d="M 155.43 289.95 C157.83,287.14 160.38,284.46 162.02,283.04 C162.66,282.59 163.27,282.26 163.87,282.03 C164.77,282.20 166.66,283.05 168.36,284.05 L 170.74 285.46 C170.37,285.63 170.00,285.73 169.63,285.76 C168.24,285.88 166.83,285.53 166.49,284.98 C166.16,284.44 165.21,284.00 164.39,284.00 C162.65,284.00 158.08,288.90 158.03,290.81 C158.01,291.53 157.60,291.87 157.10,291.56 C155.50,290.57 153.18,298.13 154.10,301.34 C154.56,302.95 155.06,304.36 155.22,304.47 C155.37,304.58 157.75,306.19 160.50,308.05 C163.25,309.90 166.37,312.22 167.44,313.21 C168.50,314.19 170.21,315.00 171.22,315.00 C172.23,315.00 173.31,315.64 173.61,316.42 C174.18,317.92 181.04,322.79 183.21,323.24 C183.92,323.38 187.62,325.64 191.44,328.25 C195.26,330.86 198.99,333.00 199.73,333.00 C201.04,333.00 206.00,330.20 207.00,328.90 C207.27,328.54 210.88,326.44 215.00,324.24 C224.07,319.40 232.11,314.04 237.21,309.43 C239.30,307.54 241.68,306.00 242.50,306.00 C244.51,306.00 244.87,301.58 243.02,299.65 C242.64,299.25 239.04,301.20 234.59,304.17 C236.23,303.01 237.67,301.96 238.82,301.09 L 238.82 301.09 C239.03,300.93 239.23,300.78 239.42,300.64 C239.43,300.64 239.44,300.64 239.46,300.64 C239.77,300.67 240.26,300.18 241.24,299.21 C241.31,299.14 241.37,299.07 241.43,299.01 C241.48,298.97 241.53,298.93 241.57,298.88 C243.61,297.02 243.67,297.02 245.82,299.31 C247.02,300.58 248.00,302.15 248.00,302.79 C248.00,305.62 210.94,330.57 201.60,334.43 C199.88,334.64 198.37,334.39 196.06,333.35 C194.82,332.73 193.40,331.98 191.96,331.17 C187.46,328.64 179.54,323.55 171.96,318.44 C164.91,313.67 158.17,308.89 154.75,306.14 C152.63,304.42 150.76,302.59 149.76,301.30 C149.24,300.45 149.09,299.69 149.25,298.86 C149.97,297.05 152.17,293.88 155.43,289.95 ZM 208.47 265.31 C208.20,264.78 207.83,264.28 207.43,263.94 C206.28,262.98 206.00,263.12 206.02,264.63 C206.03,266.01 206.97,272.33 207.93,277.92 C204.76,261.70 204.65,258.25 206.98,260.58 C207.54,261.14 207.87,261.92 208.47,265.31 ZM 228.30 284.49 C228.45,284.68 228.59,284.84 228.73,284.99 C228.79,285.06 228.86,285.14 228.92,285.21 C229.31,285.69 229.72,286.25 230.12,286.83 C230.56,287.54 230.79,288.14 230.69,288.43 C229.90,290.79 228.21,289.53 224.57,283.88 C224.40,283.61 224.22,283.33 224.05,283.04 C225.50,285.31 226.81,287.00 227.15,287.00 C228.56,287.00 228.94,285.31 227.91,284.03 L 227.94 284.06 C228.07,284.22 228.19,284.37 228.30,284.49 ZM 223.11 201.00 C222.22,201.03 220.63,204.37 219.42,208.58 C220.67,203.70 220.74,202.48 220.37,201.53 C219.99,200.54 220.37,200.00 221.42,200.00 C221.53,200.00 221.64,200.00 221.74,200.01 C222.32,200.32 222.77,200.63 223.11,201.00 ZM 213.52 233.36 C213.90,230.14 215.09,224.35 216.17,220.50 C217.26,216.61 218.10,213.56 218.74,211.16 C218.17,213.37 217.12,217.23 216.19,220.50 C215.10,224.35 213.90,230.14 213.52,233.36 ZM 216.31 265.84 C215.33,263.08 214.52,260.44 213.98,258.19 C213.62,256.71 213.50,255.88 213.67,255.47 C213.50,255.88 213.63,256.71 214.00,258.19 C214.55,260.46 215.36,263.11 216.31,265.84 ZM 178.24 274.33 C177.31,276.51 176.41,278.38 175.53,279.93 C175.76,279.49 175.99,279.03 176.23,278.55 C176.90,277.29 177.56,275.89 178.24,274.33 ZM 226.22 281.52 C225.75,280.66 225.24,279.63 224.69,278.47 C225.19,279.47 225.67,280.39 226.13,281.19 C226.16,281.30 226.19,281.41 226.22,281.52 ZM 215.05 237.26 C215.78,235.43 216.69,232.08 217.54,227.98 C216.72,232.03 215.82,235.37 215.08,237.22 C215.07,237.24 215.06,237.25 215.05,237.26 ZM 211.23 289.02 C211.41,288.91 211.55,288.63 211.64,288.21 C211.66,288.35 211.67,288.50 211.68,288.65 C211.58,288.96 211.42,289.08 211.23,289.02 ZM 209.99 275.00 L 210.01 275.16 C210.02,275.24 210.02,275.32 210.02,275.40 C209.77,273.71 209.54,272.16 209.37,270.85 C209.55,272.08 209.76,273.45 209.99,275.00 ZM 211.08 282.03 L 211.10 282.16 C210.81,280.41 210.53,278.70 210.28,277.09 C210.30,277.12 210.31,277.15 210.32,277.19 C210.57,278.79 210.84,280.51 211.08,282.03 ZM 217.75 226.98 C217.73,227.06 217.72,227.14 217.70,227.22 C218.81,221.80 220.47,215.18 221.60,211.60 C220.49,215.12 218.86,221.59 217.75,226.98 ZM 213.37 238.49 L 213.37 238.49 C213.19,238.09 213.16,237.30 213.26,235.98 C213.16,237.30 213.19,238.09 213.37,238.49 Z" fill="rgb(212,238,230)"/>
<path d="M 191.44 328.25 C187.62,325.64 183.92,323.38 183.21,323.24 C181.04,322.79 174.18,317.92 173.61,316.42 C173.31,315.64 172.23,315.00 171.22,315.00 C170.21,315.00 168.50,314.19 167.44,313.21 C166.37,312.22 163.25,309.90 160.50,308.05 C157.75,306.19 155.37,304.58 155.22,304.47 C155.06,304.36 154.56,302.95 154.10,301.34 C153.18,298.13 155.50,290.57 157.10,291.56 C157.60,291.87 158.01,291.53 158.03,290.81 C158.08,288.90 162.65,284.00 164.39,284.00 C165.21,284.00 166.16,284.44 166.49,284.98 C166.83,285.53 168.24,285.88 169.63,285.76 C173.80,285.41 178.64,275.85 184.56,256.25 C184.96,254.93 193.61,254.52 197.72,255.62 L 199.94 256.22 L 200.22 286.36 C200.37,302.94 200.40,316.68 200.27,316.90 C199.89,317.55 191.44,312.81 188.04,310.03 C184.92,307.48 184.90,307.41 186.02,302.48 C188.09,293.42 191.72,270.52 191.23,269.64 C190.97,269.17 189.08,272.77 187.03,277.64 C183.14,286.92 178.73,295.95 176.26,299.73 L 174.80 301.96 L 168.97 297.48 C162.38,292.41 161.05,292.10 159.11,295.19 C157.87,297.19 158.00,297.60 160.62,299.76 C165.34,303.66 177.78,312.06 189.41,319.20 C198.78,324.96 200.61,325.75 202.41,324.79 C207.56,322.06 223.35,311.99 232.35,305.70 C237.77,301.91 242.57,299.19 243.02,299.65 C244.87,301.58 244.51,306.00 242.50,306.00 C241.68,306.00 239.30,307.54 237.21,309.43 C232.11,314.04 224.07,319.40 215.00,324.24 C210.88,326.44 207.27,328.54 207.00,328.90 C206.00,330.20 201.04,333.00 199.73,333.00 C198.99,333.00 195.26,330.86 191.44,328.25 ZM 209.52 286.25 C208.55,282.41 206.04,266.89 206.02,264.63 C206.00,263.12 206.28,262.98 207.43,263.94 C208.22,264.60 208.89,265.89 208.91,266.82 C208.96,268.48 210.14,276.54 211.53,284.75 C212.35,289.53 210.67,290.79 209.52,286.25 ZM 223.23 281.73 C220.21,276.75 215.78,265.45 214.00,258.19 C213.33,255.46 213.46,254.94 214.76,255.19 C215.75,255.39 217.15,258.12 218.49,262.50 C220.98,270.63 225.87,281.91 227.73,283.83 C228.98,285.12 228.64,287.00 227.15,287.00 C226.75,287.00 224.99,284.63 223.23,281.73 ZM 134.10 273.80 C124.34,262.31 115.95,246.57 112.49,233.29 C110.86,227.02 110.45,206.42 111.91,204.10 C112.62,202.99 113.47,203.34 116.15,205.85 C117.99,207.58 119.84,208.99 120.25,209.00 C120.66,209.00 121.00,213.94 121.00,219.98 C121.00,229.09 121.40,232.02 123.37,237.26 C128.10,249.81 135.37,261.87 143.93,271.34 C147.25,275.01 147.34,275.31 145.92,277.84 C143.26,282.61 140.88,281.79 134.10,273.80 ZM 256.38 280.23 C255.77,279.83 254.95,278.49 254.57,277.25 C254.01,275.46 254.88,273.82 258.82,269.25 C265.64,261.35 272.04,251.02 276.03,241.50 C279.01,234.39 279.45,232.16 279.94,221.47 L 280.50 209.43 L 284.63 205.71 C288.62,202.11 288.78,202.06 289.19,204.24 C289.43,205.48 289.34,213.02 288.99,221.00 C288.40,234.38 288.09,236.12 285.03,243.50 C280.86,253.58 273.47,265.83 266.42,274.38 C261.27,280.62 258.99,281.95 256.38,280.23 ZM 176.50 248.51 C165.57,246.78 160.40,245.10 157.33,242.25 C155.08,240.17 154.92,239.65 156.15,238.42 C159.44,235.13 177.83,230.86 177.31,233.50 C177.20,234.03 175.01,235.00 172.43,235.66 C166.32,237.22 165.12,238.46 168.14,240.09 C177.68,245.25 227.30,245.15 233.55,239.96 C235.65,238.22 234.60,237.32 228.35,235.50 C220.50,233.22 222.84,231.81 231.68,233.50 C243.22,235.71 247.89,239.36 243.66,242.86 C236.46,248.84 198.73,252.02 176.50,248.51 ZM 189.88 239.29 L 185.26 238.90 L 184.03 231.20 C183.35,226.97 181.33,218.66 179.54,212.74 L 176.29 201.98 L 179.51 199.99 C181.29,198.90 183.19,198.00 183.74,198.00 C184.72,198.00 191.00,219.07 191.00,222.36 C191.00,223.26 191.50,224.00 192.11,224.00 C192.75,224.00 192.99,223.06 192.67,221.75 C191.81,218.21 190.65,195.00 191.33,195.00 C191.67,195.00 193.99,195.99 196.49,197.21 L 201.04 199.42 L 200.77 219.46 L 200.50 239.50 L 197.50 239.59 C195.85,239.64 192.42,239.51 189.88,239.29 ZM 213.52 233.36 C213.90,230.14 215.10,224.35 216.19,220.50 C217.28,216.65 218.54,212.00 219.00,210.17 C220.23,205.21 222.13,201.00 223.12,201.00 C224.55,201.00 224.14,204.29 221.94,210.59 C220.80,213.84 218.88,221.42 217.66,227.43 C216.35,233.83 214.90,238.53 214.13,238.79 C213.11,239.13 212.98,237.96 213.52,233.36 ZM 206.51 213.75 C206.93,207.56 207.38,200.94 207.51,199.04 C207.65,197.14 208.33,195.39 209.02,195.16 C210.02,194.83 210.14,197.25 209.60,206.62 C208.78,220.78 208.13,225.00 206.76,225.00 C206.09,225.00 206.00,221.21 206.51,213.75 ZM 119.71 199.21 C115.72,195.06 113.72,189.38 114.46,184.40 C115.52,177.38 121.02,170.92 127.19,169.45 C129.65,168.87 129.93,169.12 130.55,172.41 C131.48,177.36 132.64,176.90 133.46,171.25 C134.30,165.51 137.98,158.86 141.86,156.10 C145.11,153.78 153.13,151.73 155.44,152.62 C156.50,153.02 157.01,154.55 157.04,157.36 L 157.08 161.50 L 158.66 158.50 C162.71,150.79 170.50,146.07 176.87,147.47 C179.21,147.98 179.98,147.48 182.66,143.68 C191.08,131.73 209.60,131.56 218.14,143.36 C220.92,147.20 221.43,147.46 226.38,147.61 C233.21,147.82 237.40,150.06 240.23,155.01 C242.95,159.76 244.00,160.04 244.00,156.00 C244.00,153.12 244.17,153.00 248.43,153.00 C259.03,153.00 265.71,159.49 267.46,171.48 C268.13,176.06 268.30,176.31 269.60,174.54 C270.37,173.48 271.00,171.80 271.00,170.81 C271.00,167.51 276.08,168.98 281.22,173.78 C282.72,175.18 284.67,178.49 285.55,181.15 C287.01,185.53 287.01,186.46 285.60,191.32 C284.74,194.26 282.93,197.86 281.57,199.33 C278.73,202.39 276.38,202.93 277.55,200.25 C278.67,197.70 279.31,191.24 278.61,189.44 C278.11,188.12 277.52,188.26 274.76,190.36 C271.03,193.19 265.50,194.49 261.22,193.55 C258.38,192.93 258.26,192.66 257.69,185.83 C257.36,181.94 256.82,178.49 256.49,178.16 C256.16,177.82 252.28,179.42 247.87,181.70 L 239.85 185.86 L 235.74 184.11 C230.96,182.08 230.78,181.81 228.03,172.25 C226.88,168.26 225.44,165.00 224.83,165.00 C224.21,165.00 218.62,167.93 212.39,171.50 C206.16,175.07 200.81,178.00 200.49,178.00 C200.17,178.00 194.86,175.07 188.68,171.50 C182.51,167.93 176.97,165.00 176.37,165.00 C175.06,165.00 171.00,175.22 171.00,178.51 C171.00,180.98 165.76,184.99 162.17,185.26 C161.12,185.34 156.83,183.66 152.63,181.53 C148.44,179.40 144.69,177.98 144.30,178.37 C143.91,178.76 143.40,182.10 143.17,185.79 C142.94,189.48 142.24,192.83 141.63,193.23 C138.54,195.25 126.57,192.35 124.56,189.10 C124.19,188.50 123.46,188.00 122.94,188.00 C121.69,188.00 121.73,196.63 123.00,199.01 C124.62,202.03 122.53,202.16 119.71,199.21 ZM 288.00 170.30 C288.00,169.74 286.20,168.02 284.00,166.50 L 280.00 163.73 L 280.00 141.49 L 280.00 119.25 L 275.25 117.23 C272.64,116.12 259.02,110.36 245.00,104.43 C230.98,98.50 219.32,93.50 219.09,93.33 C218.86,93.15 219.54,91.41 220.59,89.46 C222.41,86.08 222.69,85.94 226.50,86.56 C228.70,86.92 231.18,87.77 232.00,88.44 C233.45,89.62 237.57,91.40 271.50,105.54 C280.30,109.20 287.87,112.55 288.33,112.98 C289.22,113.82 289.43,169.91 288.54,170.80 C288.24,171.09 288.00,170.87 288.00,170.30 ZM 111.66 169.33 C111.30,168.96 111.00,156.18 111.00,140.93 L 111.00 113.19 L 118.25 110.14 C122.24,108.46 135.05,103.09 146.72,98.19 C158.39,93.30 168.51,88.83 169.22,88.26 C169.92,87.69 172.32,86.93 174.54,86.56 C178.43,85.92 178.64,86.02 180.30,89.50 L 182.02 93.10 L 176.76 95.47 C173.87,96.77 160.15,102.64 146.27,108.51 L 121.04 119.18 L 120.77 141.21 L 120.50 163.24 L 116.41 166.62 C114.16,168.47 112.03,169.69 111.66,169.33 Z" fill="rgb(248,251,251)"/>
</g>
</svg>