<svg xmlns="http://www.w3.org/2000/svg" viewBox="0 0 600 600" fill="none">
    <path d="M300 600C465.685 600 600 465.685 600 300C600 134.315 465.685 0 300 0C134.315 0 0 134.315 0 300C0 465.685 134.315 600 300 600Z" fill="white"/>
    <path d="M300 600C465.685 600 600 465.685 600 300C600 134.315 465.685 0 300 0C134.315 0 0 134.315 0 300C0 465.685 134.315 600 300 600Z" fill="url(#paint0_radial_440_36)"/>
    <g transform="matrix(2.4,0,0,2.4,0,0)">
        <path fill="white" d="M86.16,62.57l15.4,40.38c5.6.06,44.56,1.67,45.96-.16l15.33-40.22h21.41v40.84h17.93v8.96h-17.93v24.9h17.93v7.97h-17.93v39.34c0,2.93-14.94,4.46-14.94,0v-39.34h-23.9l-14.84,41.19c-1.12,1-10.81,1.03-11.85.43-1.98-1.14-13.4-36.47-15.14-41.62h-23.9v39.34c0,1.16-1.21,2.41-2.46,2.56-2.8.33-12.48,1.02-12.48-2.56v-39.34h-17.93v-7.97h17.93v-24.9h-17.93v-8.96h17.93v-40.84h21.41ZM79.68,84.48v18.43c0,1.82,7.91,2.11,7.98.98-2.01-6.34-3.82-14.18-7.98-19.41ZM169.32,102.91c1.22-3.97-.9-13.7,0-18.43-4.17,5.23-5.97,13.07-7.98,19.41.06.95,7.33,1.12,7.98-.98ZM79.68,112.37v24.9h19.92l-9.08-24.73-10.84-.17ZM143.43,112.37h-37.85c1.12,8.36,5.74,16.08,7.86,24.31l21.91.47,8.08-24.78ZM169.32,112.37c-3.02.46-9.44-1.11-11.48.97-2.72,2.77-6.39,19.42-8.44,23.93h19.92v-24.9ZM131.47,145.24h-14.94c2.79,5.67,3.97,12.25,6.51,17.93.49,1.09.01,2.55,1.94,1.99,1.01-.29,6.18-17.44,6.48-19.93Z"/>
    </g>
    <defs>
        <radialGradient id="paint0_radial_440_36" cx="0" cy="0" r="1" gradientUnits="userSpaceOnUse" gradientTransform="translate(196 143.5) rotate(54.1675) scale(497.082)">
            <stop stop-color="#db373744"/>
            <stop stop-color="#db3737" offset="1"/>
        </radialGradient>
    </defs>
</svg>