<?xml version="1.0" standalone="no"?>
<!DOCTYPE svg PUBLIC "-//W3C//DTD SVG 20010904//EN"
 "http://www.w3.org/TR/2001/REC-SVG-20010904/DTD/svg10.dtd">
<svg version="1.0" xmlns="http://www.w3.org/2000/svg"
 width="128.000000pt" height="128.000000pt" viewBox="0 0 128.000000 128.000000"
 preserveAspectRatio="xMidYMid meet">
<metadata>
Created by potrace 1.16, written by Peter Selinger 2001-2019
</metadata>
<g transform="translate(0.000000,128.000000) scale(0.100000,-0.100000)"
fill="#000000" stroke="none">
<path d="M0 640 l0 -640 640 0 640 0 0 640 0 640 -640 0 -640 0 0 -640z m748
434 c49 -24 112 -92 112 -120 0 -24 52 -74 98 -94 131 -58 185 -202 122 -325
-25 -48 -43 -64 -152 -130 -20 -12 -45 -43 -63 -77 -57 -107 -119 -148 -221
-148 -109 0 -182 53 -236 171 -13 29 -32 45 -90 76 -61 33 -78 48 -106 93 -27
47 -32 63 -32 120 0 80 23 133 75 179 57 50 99 64 173 58 69 -5 124 -34 176
-94 17 -19 39 -33 52 -33 58 0 75 -27 94 -145 15 -91 7 -120 -35 -131 -40 -10
-65 2 -142 66 -59 49 -73 66 -73 89 0 16 7 34 15 41 23 19 18 35 -20 69 -29
25 -45 31 -80 31 -38 0 -52 -6 -83 -34 -34 -32 -37 -39 -37 -89 0 -64 23 -96
90 -126 60 -27 101 -66 129 -124 36 -76 67 -102 125 -102 63 0 94 23 130 93
35 68 71 104 131 130 62 27 91 61 97 114 6 62 -21 106 -85 138 -69 34 -110 75
-138 136 -12 28 -35 61 -49 72 -57 45 -145 37 -209 -18 -18 -17 -39 -30 -45
-30 -15 0 -14 36 3 68 50 95 169 129 274 76z"/>
<path d="M590 607 c0 -17 38 -53 46 -44 8 8 -23 57 -36 57 -6 0 -10 -6 -10
-13z"/>
</g>
</svg>
