<?xml version="1.0" encoding="UTF-8"?><svg xmlns="http://www.w3.org/2000/svg" xmlns:xlink="http://www.w3.org/1999/xlink" viewBox="0 0 1000 1000"><defs><style>.cls-1{stroke-width:5px;}.cls-1,.cls-2,.cls-3,.cls-4,.cls-5,.cls-6{stroke:#231f20;}.cls-1,.cls-2,.cls-3,.cls-4,.cls-6{stroke-miterlimit:10;}.cls-1,.cls-7{fill:#231f20;}.cls-2,.cls-5{fill:none;}.cls-2,.cls-6{stroke-width:6px;}.cls-8{fill:url(#linear-gradient);}.cls-8,.cls-9,.cls-10,.cls-7,.cls-11,.cls-12{stroke-width:0px;}.cls-3{stroke-width:4px;}.cls-3,.cls-11{fill:#bcbec0;}.cls-4{fill:#e25a29;stroke-width:9px;}.cls-5{stroke-linecap:round;stroke-linejoin:round;stroke-width:7px;}.cls-6{fill:#0054ff;}.cls-9{fill:#754c29;}.cls-10{fill:#232022;}.cls-12{fill:#fff;}</style><linearGradient id="linear-gradient" x1="264.903794" y1="951.0125253" x2="440.544463" y2="951.0125253" gradientUnits="userSpaceOnUse"><stop offset="0" stop-color="#cfdfff"/><stop offset="0" stop-color="#c8dbff"/><stop offset=".3595113" stop-color="#8bb1ff"/><stop offset=".7956763" stop-color="#4582ff"/></linearGradient></defs><g id="Layer_42"><path class="cls-6" d="m222.6427453,653.9067102s1.0942996,118.6099061,0,128.9951052,21.315867,36.6214917,36.0737815,44.8203332c14.7579146,8.1988414,42.6124811,28.3421214,61.0449791,33.9147371,18.432498,5.5726157,40.294298,14.1458706,48.0102274,14.1458706s114.4529528-5.1439529,134.6001018-4.7152902c20.147149.4286627,88.7331881,3.0006392,104.5937096,1.2859882s92.1624901-32.1497058,96.0204548-36.4363333,16.8193479-53.6223147,19.9439258-56.3877164,54.7535879-126.6586195,49.2596717-185.6387471c-5.4939162-58.9801276-7.4743802-73.9871304-23.0200946-95.6018584-15.5457144-21.614728-35.6994542-98.011681-14.6185065-180.996164,0,0-20.5245596-96.7944418-52.7625522-118.3216546-32.2379926-21.5272128-87.5019165-53.6564806-109.0558631-49.6012944-21.5539466,4.0551862-18.8818562-11.8594421-36.59689,16.4748695-17.7150338,28.3343116-31.5322513,58.1307901-64.9117354,76.4604337-33.379484,18.3296436-76.5347308,54.7184834-103.7551948,62.9078473s-53.5216318-.1299202-83.3665416,4.5349668c-29.8449098,4.664887-68.1746665,12.192356-76.3624209,43.2978234-8.1877544,31.1054675-29.5135358,127.8053145-19.314249,159.0963634,10.1992868,31.2910489,34.2171964,141.7647199,34.2171964,141.7647199Z"/></g><g id="Layer_41"><polyline class="cls-11" points="163.4742579 1000 836.2767518 1000 860.0038288 974.5256379 860.0038288 962.8397009 851.0024333 941.4204736 836.5269893 925.4146292 820.8270952 911.219404 803.1994813 893.7834312 773.0368561 853.0522269 746.6252508 817.1391574 723.9187144 803.6185003 715.7214868 799.1787378 695.887728 835.3653183 622.5167921 871.1163229 503.8217037 871.067466 388.081913 875.0934382 347.7545797 873.1913174 288.31829 845.0565028 238.9016796 809.31639 224.0926139 793.0818199 219.995944 739.4350235 191.532634 741.9981815 174.7230607 749.4205905 160.7514673 758.5894486 144.5080948 775.8372464 136.885492 807.9168303 135.418641 847.2000495 140.3387184 878.9805797 146.5603297 907.1751744 143.7977829 933.2324883 159.8572807 997.6167823"/></g><g id="Layer_40"><path class="cls-12" d="m287.9782936,403.6598968c5.8219841,2.4835948,26.644664,6.0845663,52.2239006,3.9348068,25.5792366-2.1497594,56.7217449-5.0168249,56.7217449-5.0168249,76.0621433,2.191673,102.9925129-28.3947934,110.4791187-36.5052831,7.4866058-8.1104897-4.9910706-18.9016197-4.9910706-18.9016197-36.1852615-33.2509475-85.4720833-37.2479241-124.1528801-32.8807373-38.6807968,4.3671867-94.2064567,51.782357-94.2064567,51.782357,0,0-6.2258395,33.2567895,3.9256431,37.5873011Z"/><path class="cls-7" d="m288.9592285,401.3603821c24.816561,9.1816276,54.7468026,3.1997439,80.4012946.6487902,9.124003-1.0489976,18.256679-1.9913736,27.3841974-2.9854602,27.4297317.2423072,55.0110515-3.4529778,79.9597191-15.0197878,7.0086363-3.1622176,14.0236306-6.5658707,20.1448847-11.297101,3.2151371-2.4011292,6.0283433-5.2345621,8.8077177-8.2208347.4268369-.4885722.8708323-1.018247,1.1567474-1.595981,2.6156593-5.5118642-3.1478811-11.7480613-7.0640098-15.2490724-32.4648914-29.9939205-79.6223258-37.1626321-122.2565507-32.1642843-26.2850788,3.933637-52.6231083,21.3958749-74.0227798,36.6045291-6.4301659,4.6922574-12.7613732,9.5594449-18.8498436,14.6563687l.2915955-.5039368c-1.6771862,9.4376985-2.6084395,19.6137189.0636893,28.9017067.6534499,2.3568522,1.8736079,5.3246391,3.9833383,6.2250633h0Zm-1.9618835,4.5990295c-9.4450569-4.7104622-5.6719619-21.6802676-5.1546914-30.1853229.3497816-3.4036103.7950723-6.7820369,1.404539-10.1670634l.2376707-.1994936c12.311715-10.2634093,25.2455318-19.6986145,38.7681879-28.2908738,13.59027-8.4861856,27.7295872-16.3638172,43.1231578-21.1382902,7.677555-2.4706775,15.8183119-3.221017,23.8287661-3.7905649,41.7065521-3.0837425,87.5533443,5.9173287,117.8462904,36.7004984,4.6534787,5.3108239,7.5659805,13.2183485,1.821967,19.0757456-10.8552991,12.1691727-24.0325027,23.2778231-39.6831879,28.7803286-22.2827801,8.7439649-50.0576078,10.5050408-71.9404794,9.3717051-21.3108527,1.3173747-47.1477225,3.6077111-68.5577749,4.161595-11.6003503.1613462-23.0970362-1.1713771-34.6182542-2.4560472-2.337487-.3774411-4.8236556-.8980489-7.0761911-1.8622166h0Z"/></g><g id="Layer_39"><path class="cls-4" d="m772.189597,593.8906575c13.7971206,48.1216644-110.731064,90.6425799-247.3247537,90.6425799s-224.6830296-51.9742589-220.5636111-101.8649946c7.769364-94.0956306,109.6343585-96.6854186,248.6196477-83.8598517,136.0157891,12.5515413,183.8749478-28.3642949,219.2687171,95.0822663Z"/></g><g id="Layer_38"><path class="cls-7" d="m389.1342163,571.5715332c52.9523321,6.9766476,106.0522161,16.0002921,159.5689016,13.4229472,2.6435806-.0687287,6.5447934-.5565921,9.2251987-.771465,6.0813187-.4902237,12.6389699-1.4228881,18.6607578-2.2030187,15.5553473-2.0950755,31.0284399-3.9340097,46.0310228-8.4549758,3.4395027-.8027256,6.7840301-.9555319,10.1668346-1.2166946,6.2918036-.4613634,12.5189765-.8734727,18.7307074-1.3840318,6.2049561-.5189819,12.3874512-1.1104126,18.4695435-2.0061035,5.8641202-.9378387,12.0824145-1.8820647,17.2590796-4.7245319-.0000464-.0000775,2.0289453,2.4093463,2.0289453,2.4093463-4.8708393,4.9212559-11.3606882,7.1736528-17.6788088,9.2785785-13.8637771,4.263224-28.2692124,5.8201521-42.5761893,7.1764975-4.5246308.3684365-8.6267346,2.16323-13.1076632,3.1809339-17.3172313,3.9685346-34.6736516,5.7048586-52.2310659,7.6617265-20.6720903,1.8868233-41.9015472.8728961-62.4538513-1.1518631-37.8770047-3.9490741-75.6301232-9.8134366-112.3681023-19.9319029.0000618-.0003474.2746895-1.2854426.2746895-1.2854426h0Z"/></g><g id="Layer_37"><path class="cls-9" d="m763.8823242,680.4699707c-1.3093872-.8016357-2.6516724-1.5459595-4.0188599-2.2489624-5.1629639-1.7856445-10.46698-3.0965576-15.848999-4.0545654-2.2502441-.2088013-4.5043335-.364563-6.7602539-.4683228-4.3890991,12.3809814-12.1310425,24.9929199-26.3295288,30.9712524-28.7893066,12.1217651-74.2460938,42.4263306-83.3374634,29.546875-9.0913086-12.8793945-27.2740479-37.2417603-23.4859619-49.6830444h-52.2753296s-5.0380249,25.4394531-13.1256104,32.2579346c-8.0875854,6.8185425-20.2093506,23.4860229-44.4530029,19.697998-18.0640259-2.8225098-83.2297363-19.9460449-123.428894-37.5806274-6.6013794.0040894-13.2041016.3573608-19.7688599,1.0474854-15.5513916,2.4938965-30.8237305,6.6290283-45.486145,12.3835449-9.0021973,4.1192627-17.6723633,8.9226685-25.7610474,14.6315918-4.0316772,3.4039307-7.8183594,7.0678101-11.2867432,11.0400391-1.6837769,2.5039673-3.2182617,5.0946045-4.5982666,7.7747192-.1951904.5909424-.3599854,1.1899414-.5384521,1.7852783,15.1287231,18.4960327,36.2338257,34.8815308,65.7087402,44.9813232,108.3386841,37.1230469,199.2522583,53.7905273,262.1341553,46.9719849,62.881897-6.8184814,144.7041016-58.3361816,155.31073-89.3983154,5.7819214-16.9328613,12.9119873-41.5204468,18.94104-66.1534424-.5839844-1.1472778-1.1194458-2.3150635-1.5912476-3.5027466Z"/><path class="cls-7" d="m762.3529053,681.7576294c-1.1749878-.552063-2.293335-1.1253662-3.4036255-1.758606l.2606201.1113892c-5.0457153-1.7455444-10.2589722-3.0349121-15.5457153-3.975647l.1654663.0223999-6.6671753-.461853,1.9760742-1.3291016c-2.7299805,7.585083-6.4931641,15.0025635-12.0600586,21.1221313-2.7636108,3.0546265-5.946106,5.7659912-9.4685669,7.9525146-1.7575073,1.098877-3.6062622,2.0446167-5.4998779,2.8823242-16.2746812,7.0039449-31.5692182,15.8969108-47.7529367,23.5365312-7.297212,3.3917331-14.578147,6.69747-22.4940595,8.6039668-5.1578949,1.1580578-12.2094855,1.983229-15.8729216-3.0475341-1.0739185-1.4417035-4.0354709-5.7419329-5.1471414-7.2669638-7.1923314-10.732395-22.1764411-30.8593734-18.6546455-44.1980984.0003179-.0000939,1.9127935,2.581388,1.9127935,2.581388h-52.2750854l1.9610596-1.6107788c-.9397583,4.5-2.0751953,8.8637085-3.4165039,13.2305908-2.1563508,6.585907-4.3985751,13.4134183-9.0716946,18.861405-1.5631526,1.6161833-3.3934041,3.1117552-4.989466,4.6942555-9.9434771,10.1063181-21.9491334,18.1204663-36.7920831,17.2665606-6.8695853-.2951424-13.5518996-2.0759784-20.2371003-3.5117702-35.8644907-8.7177937-77.5325604-20.7780776-108.4609819-34.5544519-6.4612512.00355-12.926633.3483353-19.3544073,1.01433-13.2808129,2.1112385-26.38512,5.4632017-39.0508407,9.9872908-11.2340776,3.9357293-21.6924177,9.9698519-31.4588265,16.6944422-3.0706633,2.6630016-7.8723347,7.066062-10.9333074,10.7217568-.0002301-.0000517.152724-.1992094.152724-.1992094-1.6387634,2.4367676-3.1368408,4.9657593-4.4797363,7.5741577l.1208496-.2880249-.5138855,1.7061768-.007782.026001-.3675232-1.8397827c17.6861774,21.6406397,42.1618378,36.9807295,68.7590354,45.1757105,44.4219346,14.8704733,89.826832,27.7759628,135.8248099,36.6286526,27.400653,5.3207502,55.6211149,8.9763208,83.5446035,9.8339573,3.1413881-.0370778,10.9148348.1239207,13.988746.0414595,3.3215291-.1326349,8.31486-.3010809,11.6333142-.4296777,13.0100118-.8025708,26.2658973-2.6098927,38.8149209-6.1634566,35.7846417-9.9677292,69.7782905-27.3042948,99.0917022-50.0961298,9.4022449-7.6623285,18.7850809-16.1607608,25.0197088-26.541096,2.922374-5.1854328,4.4643015-11.3833112,6.4324936-17.0824405,5.7470094-17.867077,10.8164633-35.9569172,15.4865341-54.1391312-.0000129-.0000039.0092034-.0357705.0092034-.0357705l.1602173,1.3820801c-.4619751-1.0327148-.9060669-2.0700073-1.3389282-3.1219482h0Zm3.0588379-2.5753174c.7532171,1.5043126,1.4550002,3.0545444,2.1657389,4.5840382-.0000284.0000073-.1619547.68177-.1619547.68177-5.5453619,22.9981021-11.4309851,45.9217086-19.2144142,68.286716-5.8720536,13.4366922-17.2995899,23.5373775-28.2154356,32.7742178-14.8299437,11.9923875-31.0132274,22.0556548-47.9402801,30.7339661-19.7830152,10.0376531-40.5758555,18.2502502-62.2678676,23.1830663-12.1834249,2.7954131-25.3855977,4.0101878-37.8824394,4.3427998-8.7098307.3707177-19.7181705.1335049-28.4652222-.3357902-25.0552108-1.2829265-50.3999254-4.8921856-75.0037623-9.6825901-49.374396-9.6843386-97.8894997-23.9803876-145.2757618-40.7738776-23.780871-9.1008764-45.3663543-24.2308466-61.3188642-44.1396543-.0000896.0001232-.6735515-.8323963-.6735515-.8323963l.3058777-1.0076294.0083618-.0275269.5467529-1.8104858.0390015-.1290894.0820007-.1593018c1.434233-2.786,3.0360224-5.4842811,4.786896-8.0794676,3.5606341-4.0890572,7.460289-7.8651584,11.585724-11.3474731,10.1155399-7.0172909,20.9265293-13.2088629,32.5549889-17.2989279,12.9463642-4.6212096,26.3102235-8.0418297,39.8889472-10.1881498,6.5971527-.6889128,13.2282885-1.0425817,19.8606043-1.0472807,35.3171688,14.5144552,72.1777147,25.7814333,109.3653706,34.6579371,6.4383392,1.3773119,12.9074137,3.1168393,19.4818682,3.4118008,13.6295362.8304751,24.6775226-6.8119933,33.8831414-16.1628271,1.4973115-1.4986448,3.3274868-2.9864246,4.817441-4.5192704,4.0943098-4.8389869,6.201878-11.2508214,8.1865554-17.3283645,1.2950365-4.2096711,2.4189379-8.5399934,3.313286-12.8236237l.3363037-1.6109619h56.5587158l-.7459717,2.581665c-2.7299183,11.6537832,11.5662552,31.0043407,18.1027226,40.7377621.0003048-.0000912,3.4140011,4.8260807,3.4140011,4.8260807l1.7104492,2.4085083c2.6681925,3.3492746,7.8983948,2.2279676,11.7282104,1.4784964,7.4624494-1.7951891,14.6832895-5.0636326,21.6795118-8.3218317,15.9578032-7.526892,31.4743919-16.536408,47.8710169-23.5901044,1.7170495-.7612624,3.3913659-1.6159377,4.9822473-2.6114211,10.2702182-6.3184289,16.563534-17.1607075,20.3822852-28.4434659.0001.0000455,1.4619531.1013639,1.4619531.1013639l6.8529053.4747314.0653076.0045166.1005249.0178833c5.513908.9808324,10.9869791,2.3364364,16.3096315,4.1879277,1.6040697.8827281,3.1998009,1.8281831,4.7371825,2.7962642h0Z"/></g><g id="Layer_36"><path class="cls-7" d="m258.238739,386.3983765c-6.6674721.7962229-13.101829,4.819973-16.4450066,10.6663293-.8418702,1.3152365-1.5732424,3.048629-2.1591195,4.4939093-.1894949.6338874-.6718861,2.2493829-.8706621,2.8974649-.3328563,1.4468337-.548593,2.927776-.8521045,4.3732346-.3843042,1.9001166-2.2362024,3.1289374-4.1363336,2.7446296-1.900116-.3843079-3.1289368-2.2362061-2.7446289-4.136322.4822322-1.6744799.9916732-3.3331879,1.5674417-4.9674785.6004993-1.2932236,1.3011299-3.2249139,2.0581541-4.4142794,3.4075098-6.4547813,9.4446543-11.5607313,16.4833839-13.4874313,2.3571056-.6422469,4.5823119-1.0201709,7.0988726-.9904367.7771636.0115729,1.3977995.6509772,1.3862029,1.4281379-.0092617.7723226-.6381243,1.3669584-1.3862,1.3922424h0Z"/></g><g id="Layer_35"><path class="cls-7" d="m265.2661438,397.6030884c-6.1466491,2.6137894-11.9204712,7.5686767-13.7702041,14.1528062-.9451757,3.2809758-5.7755622,1.902368-4.8197307-1.3857651,2.2351-5.7971771,6.9481539-10.2838123,12.3849714-13.0445542,1.7499464-.8881364,3.4849928-1.619185,5.4381788-2.1818986.6829529-.1967468,1.3961182.1973877,1.5928955.8803711.1946014.6689635-.1848033,1.3575628-.8261108,1.5790405h0Z"/></g><g id="Layer_34"><path class="cls-7" d="m244.8863831,364.3477173l-20.896286.8193665c-3.4221287.0311623-3.431619-5.0285581.0000812-4.9999994-.0000812-.0000006,20.8962048.8193658,20.8962048.8193658,2.1234069.1101319,2.1238758,3.2486621,0,3.3612671h0Z"/></g><g id="Layer_33"><path class="cls-7" d="m448.5550537,262.5943604c6.3589457,5.6587107,12.6314331,11.3717011,16.9178778,18.865103.7361713,1.3670501,1.2243595,2.9117354,1.5518624,4.449122.9736148,4.7952772,6.9591928,9.0922781,11.7995298,8.2568949.8546084-.4539053,1.5418859.8100128.6686546,1.2553485-2.2126574.916982-4.2367277.3493905-6.3266594-.2662954-3.9850584-1.3011438-7.5637997-4.36626-8.8084246-8.5198733-.3646227-1.2707629-.861909-2.5203193-1.582808-3.6489004-4.4277938-6.5172301-11.0340185-11.7001683-17.2901059-16.4451378-2.7514557-2.0628352.3630442-6.1187147,3.0700734-3.9462616h0Z"/></g><g id="Layer_32"><path class="cls-7" d="m245.2845612,354.0887756l-5.8492126-5.5504761c-1.8783948-1.8433997.8161787-4.6877903,2.7581935-2.9065235.05481.0520008.113358.1153858.1610265.1718739l5.1571503,6.198822c1.2005092,1.4731923-.8455863,3.3775003-2.2271576,2.0863037h0Z"/></g><g id="Layer_31"><path class="cls-7" d="m554.3198853,317.4752808c.5100893-4.1245741.9747943-8.078589,2.3986574-12.0499157.2592787-.9159705,1.1703744-2.0801277,1.6966584-2.716653,1.5750196-2.3964119,2.4923428-5.2900416,3.3310035-8.0492646.1825258-.6334712,1.1621471-.402358,1.0278283.2540147-.7444522,3.3970778-1.5916031,7.1600781-3.6779976,10.0026464-1.5774815,3.9093959-1.539131,8.5553327-1.7824464,12.7604601-.1138934,2.0487342-3.1516748,1.8586619-2.9937036-.2012878h0Z"/></g><g id="Layer_30"><path class="cls-7" d="m621.0875244,400.5715942c8.0691957,4.0990902,16.9438374,6.9734562,25.9593909,7.993668,6.0346679.4873695,12.3683387.7314697,18.4017408,1.8128069,4.5333321.6825902,8.9770079,1.8843971,13.4925576,2.1981737,3.0397886.0802847,10.5808079-.099127,13.7386092-.0986102.8281728-.008669,1.5067006.6559123,1.5153066,1.4843425.0097698.8392736-.6764006,1.5251778-1.5155651,1.5155938-5.5470409-.1987457-13.2332559.328565-18.6224271-.8767767-6.0457485-1.2520228-11.935691-2.539126-18.0551945-3.1565145-3.0184832-.3403348-6.0640765-.4535245-9.1973773-.8502835-3.1033325-.377655-6.1534424-1.0509338-9.1557617-1.8550415-6.0037842-1.6497803-11.7857666-3.9101562-17.2815552-6.8868713-.8195008-.4659977-.1695014-1.7636209.7202759-1.2804871h0Z"/></g><g id="Layer_29"><path class="cls-12" d="m587.4305396,358.9032652s19.9905305-35.4117969,66.2543298-38.267587c46.2637992-2.8557901,54.8311695,6.5683172,60.8283286,10.5664233s13.7077924,26.8444267,14.2789504,33.1271649c.571158,6.2827382-19.7049515,34.6408415-38.553166,36.8825828-18.8482145,2.2417413-55.9734855,3.3840573-73.393805-10.323735-17.4203195-13.7077924-29.4146378-31.9848489-29.4146378-31.9848489Z"/><path class="cls-7" d="m584.9319458,358.9867859c-.0293751-.7299936.3938372-1.4865595.7002293-2.0028193,7.6596959-13.0392774,19.2952784-23.5614876,32.6589812-30.5959213,13.6189631-7.3455387,29.0462806-9.8982569,44.3624654-10.0256323,11.2777938-.2255266,22.8040172.0926077,33.9339062,2.6561023,6.5872098,1.5567861,13.2627487,4.4129268,18.5994157,8.7224568,2.2521068,1.4784448,4.1063499,3.6053499,5.4665702,5.9009064,4.9759303,8.8201467,8.1266488,18.2807858,10.2032364,28.1863129.1748746,1.084978.4068788,2.3467355.2814074,3.4410596-.5120562,3.2617229-2.1498394,5.8150495-3.7132321,8.4710235-2.0468737,3.2474879-4.3476549,6.2520045-6.8156725,9.1085414-7.777962,8.6483998-17.2248515,17.301793-29.0879089,19.488137-20.2860782,2.1918699-45.6357066,2.4597923-64.8997298-4.7114519-10.5989489-3.9545155-18.8163225-12.4476658-26.6790181-20.2719001-5.0275043-5.1935611-9.7749877-10.7376422-14.1661348-16.4872168-.4221002-.5007194-.7808369-1.2151876-.8445156-1.8795981h0Zm4.9971924-.1670532c.0000597-.3375703-.0652331-.8285266-.2888593-1.0878611.0938894.1766367.4618752.7305946.5736236.9240764,5.6233086,8.8252946,12.2894693,17.0239849,19.7608596,24.3498161,2.5762023,2.5755347,5.3525695,4.9844397,8.1640319,7.2451819,5.6862449,4.4131353,12.7325741,6.8315532,19.7171052,8.4734819,16.0874915,3.5488779,32.8763116,3.2563111,49.2022597,1.5688752,12.7881607-.818151,22.8487972-10.4482794,30.5512858-19.9307629,2.2332068-2.8242713,4.2989416-5.79177,6.0526037-8.8675147,1.1659462-2.104058,2.4279444-4.4612449,2.7546298-6.703252-.0013339-.1065625-.0184238-.1602734-.0034702-.242854l-.0969849-.5803833c-.0467516-.3053653-.1564873-.914342-.237701-1.2135322-1.6393938-6.8094025-4.3413515-13.7894778-7.3987015-20.1295436-1.3523256-2.6595882-2.7251134-5.3067668-4.6438131-7.5432829-.4769637-.527833-.8002809-.8526424-1.3648893-1.2692832-1.1449011-.696552-2.3631479-1.6465678-3.458389-2.3066802-4.3373847-2.8385185-9.0765851-4.4531647-14.1958314-5.5612174-14.0528743-2.6974558-28.6962915-2.2237224-42.9747223-1.2732545-23.003363,1.6910602-44.833897,13.3591294-59.3190275,31.2861017-1.0652869,1.287508-2.1091099,2.6852581-3.0441603,4.067545-.01285.0018327-.071871.1589677.1166666-.2601302.1170044-.298645.1621094-.644104.1334839-.9455261h0Z"/></g><g id="Layer_28"><path class="cls-1" d="m675.8328465,359.1812906c2.6497195,20.5612885-12.8412648,26.0442988-28.6817678,26.0442988s-28.6817678-6.657941-28.6817678-26.0442988c0-14.3838691,7.7611416-28.4126716,28.6817678-26.0442988,20.7571103,2.3498615,26.8433311,11.778401,28.6817678,26.0442988Z"/></g><g id="Layer_27"><path class="cls-1" d="m430.6653481,350.1083015c2.6497195,20.5612885-11.4608502,38.9736181-37.4330292,39.6718794-40.5491541,1.090163-51.425443-26.5764795-47.4151703-45.5435188,3.3251349-15.7266024,30.1861643-29.0380941,51.1067905-26.6697214,20.7571103,2.3498615,31.9029722,18.275463,33.7414089,32.5413608Z"/></g><g id="Layer_25"><path class="cls-7" d="m702.2775879,293.8299255c16.7398159-.4024785,28.1387885,8.9012602,24.5693344,26.3795504-.0690293.3648344-.420958.6045195-.7858261.5353361-.3498535-.0663452-.5842896-.3948669-.5421143-.7431946.4060059-3.2853394.3762207-6.6218567-.3702393-9.741394-2.1448478-10.1757181-13.391256-13.4416068-22.5578051-12.4407892-2.709992.2294471-3.0405909-3.7866228-.3133497-3.9895086h0Z"/></g><g id="Layer_24"><path class="cls-9" d="m583.371476,266.9682966s-7.7820897,3.6184435-4.3985725-10.2539773c3.3835173-13.8724208,6.7670345-26.053083,21.6545105-27.4064899s34.8100854-10.4889035,46.6724671-11.165607,16.5993059-1.6917586,25.058099,0c8.4587932,1.6917586,15.9025312,6.4286828,23.0079174,10.1505518s14.1990693,19.9627519,7.0995346,26.3914347-9.129645,11.5039587-22.6637141,4.3985725-25.7147313-2.7068138-34.1735244-1.3534069-62.2567178,9.2389222-62.2567178,9.2389222Z"/><path class="cls-7" d="m584.0604248,269.2737122c.2822266-.083313-.0509644.03479-.1447754.0775146-.9903219.383013-2.0386994.5704488-3.1065672.5083873-1.8419304-.1079685-3.6033905-1.2924015-4.3867701-2.9495871-.8858691-1.6007631-.9923814-3.6367742-.9451147-5.4166705.130895-3.4017685,1.0432283-6.6289827,1.8053544-9.918395,2.2916858-9.9278442,6.8309208-21.3775113,17.8314107-24.269603,1.4530093-.4931607,3.7336546-.7835866,5.2733288-.9888652,4.58198-.4235188,9.0507329-1.3707672,13.5613203-2.5447439,12.3995751-3.0383123,24.6793699-7.9534017,37.6612424-7.908174,20.959675-1.6233265,27.0813073,1.6073381,44.926727,11.6524031,6.7823423,4.5789557,11.6373707,15.3149991,9.5956541,23.3936798-.7977353,3.4169584-3.8380353,5.5056681-6.2009826,7.8902976-2.3739525,2.3262446-5.2997421,4.8070909-8.8863672,4.9613863-4.3137704.17746-8.2097103-1.7406161-11.9503965-3.5825569-6.1632578-3.2227436-13.2148898-4.2274012-20.0947587-3.3604096-4.6463876.4993876-9.3344582,1.826511-14.0049732,2.5639482-19.7818685,3.0838395-41.2963847,6.542414-60.9343318,9.8913882h0Zm-1.3778687-4.6108398c18.370188-2.3213747,38.6588334-5.0789664,57.0757863-7.6624118,6.3241487-.6842727,12.5947302-2.3178128,18.9428006-3.0052473,7.3053721-.7891345,15.0152491.3964982,21.588873,3.8873994,4.356114,2.136673,9.8841401,5.1301679,14.4630939,2.0468141,2.4008817-1.585341,4.5505399-4.0846544,6.9393949-6.2173448,5.1781076-5.3496738,1.3419553-15.0158361-2.5129477-20.2724803-1.2392395-1.6308672-2.6294657-3.0734436-4.3988532-4.0278001l-.5329012-.2783939-2.1227417-1.1214294c-4.0565117-2.1372664-8.4734027-4.6422469-12.7098755-6.2302383-5.7533203-2.3152634-11.9291015-3.1284348-18.0833984-2.750734-4.4676004.2634931-9.6526852.8812889-14.2036603,1.2461619-14.105972,2.0096591-27.0017338,8.7643079-41.2330514,11.2675711-2.2542972.4476377-4.7523771.693648-7.0509888,1.0541355-3.3020853.6239281-6.428629,2.1134231-8.6784767,4.6057334-4.8747437,5.4420933-6.5672554,13.3737228-8.5026945,20.3874392-.2455914,1.1404122-.7523905,3.0614089-.8006825,4.2110394-.068072.9048819-.1544524,2.0953642.2313859,2.9057134.074167.1337295-.0654204.0926528.1839692.1795669.0602417.0107117.1437378.0072021.2166748.0259094l.2900391-.0128479c.1582384-.0276176.3304834-.0515635.4880561-.097309.0917168-.0288812-.0531807.0244635.4101983-.1412469h0Z"/></g><g id="Layer_23"><path class="cls-7" d="m543.2246704,853.0007324c12.7194762.9295122,25.4554526,1.8560592,38.1959209,2.340184,2.4686923.0588971,5.0522162.1949125,7.4878587.0147204,4.769358-.8693983,9.0876302-4.0457782,13.1883954-6.5690051.8710103-.6095964,1.8441558.7201106.9620477,1.3581747-4.3588782,2.9099579-8.5825802,6.3219904-13.8422074,7.4383721-1.3912771.1876937-2.6155888.1956726-3.9697926.2418077-14.0940641.2125969-28.1721341-.3715395-42.2513498-.8306985-2.6625429-.1641153-2.4819781-4.1249111.2291271-3.9935553h0Z"/></g><g id="Layer_22"><path class="cls-10" d="m449.2534239,945.358409c-2.0269744.9370326-3.8628953,2.2085917-5.7919266,3.3167208-6.4686831,3.7159312-13.0603809,7.1691852-19.9810697,9.9938815-4.9685044,2.0279222-10.0011668,2.6525313-15.3479853,1.9561242-8.805347-1.1468751-17.6495607-1.5826944-26.5322385-.6432649-7.0189981.7423255-13.4909322,3.1565587-19.7976021,6.1029639-10.6151639,4.9592944-20.9934512,10.4108621-31.6411554,15.3038295-4.7067028,2.1628818-9.4504272,4.237769-14.4839975,5.5634034-.898344.2365819-1.8668613.1477676-2.7083586.615391h-2.8792465c-2.1883506-.7271572-4.3145313-1.5501036-6.0125549-3.2153766-3.3952931-3.3298142-5.0146752-7.3983568-5.1400513-12.1058095-.0192979-.7246249-.0026946-1.4502122-.0026946-2.2982696-.5374533.3468733-.9386789.5991029-1.3331753.8614435-5.5481855,3.6895138-11.499817,6.497611-17.9522116,8.2117154-4.2112429,1.1187378-8.4603741,1.6633189-12.7737155.6633222-3.734944-.8658934-6.2549484-3.0308464-7.107775-6.8925546-.0468078-.211954.0209594-.5022599-.3045725-.5732162,0-1.4389449,0-2.8778897-.0000002-4.3168346.377955-1.3141292.6959318-2.6491061,1.144536-3.9386842,1.6901054-4.858437,4.8098055-8.6916272,8.7496861-11.8953778.6517517-.5299764.6972516-.8444601.1629652-1.477958-.9737655-1.1545855-1.447114-2.5632523-1.663283-4.041547-1.1787301-8.0608794,3.049793-14.9179832,10.8998962-17.4530872,7.2969398-2.3564682,14.8073925-3.8848009,22.3307068-5.2909244,16.8696586-3.1529752,33.7993894-5.9367751,50.8428319-8.0041416,11.6172209-1.4091661,23.2577415-2.5112911,34.9458057-3.1231302,1.5957787-.0835341,3.2288864.0986605,4.7922566-.4143511h9.5974883c.0609069.2657242.2757872.2314585.4678365.2382789,6.8530747.2433923,13.2710874,2.1369109,19.3484813,5.2168636,11.6869805,5.9228144,20.4887981,14.893901,27.2856668,25.9643271.2566321.417954.3703328.962473.8854567,1.196614v.4796483Zm-52.3835175-26.4013541c-.5196931,0-1.0400598-.0172853-1.5589914.0025442-11.2185289.428683-22.409277,1.2299116-33.5800791,2.3610201-8.9406119.9052871-17.8611386,1.9717317-26.7562351,3.2285899-12.8835839,1.8204217-25.7513845,3.7562398-38.5332323,6.2117549-6.0765958,1.1673715-12.1429147,2.3876181-17.9816161,4.5085172-.6006466.2181841-1.2062688.4223161-1.7205818.8237057-2.819761,2.2006635-4.4249379,7.3445577-3.3599254,10.7764626.4567982,1.4719931.9789589,1.7060244,2.3756066.9824424,7.7663434-4.0236414,15.6533564-7.7808912,23.7794354-11.0352206,4.1568748-1.6647443,8.3329816-3.2414574,12.7328506-4.13233.3724233-.0754098.9812178-.6382021,1.243045.2932664.2483469.8835172-.4514273.760985-.8661185.9295473-1.7012015.691498-3.4328894,1.3123672-5.1124535,2.0520286-10.4361372,4.5959573-20.308761,10.2573254-30.1565018,15.9666265-3.3326224,1.9321147-6.1618814,4.4332666-8.510541,7.4595863-2.58987,3.3371221-4.2560448,7.0292414-3.9171344,11.3887742.1348086,1.7341142.9910984,2.8828629,2.6935611,3.4157485,1.3187018.4127686,2.6585459.5780356,4.0203761.4859205,5.8195619-.3936518,11.2693759-2.1380636,16.5093162-4.6085494,5.5516288-2.6174374,10.5319331-6.1904461,15.6871525-9.4641759,10.7909504-6.8525826,21.4888196-13.8518717,32.4099898-20.4985494.3804156-.2315246.8534217-.8420321,1.2531096-.0338003.2761167.5583625,1.2710272.9016606.3469453,1.8581413-.5228783.54122-1.1666478.7499664-1.711947,1.1752722-10.1166322,7.8905569-20.4606036,15.4727998-31.0826504,22.6716886-.7011434.4751874-1.1631807,1.0657383-1.4564938,1.8335188-1.1945568,3.1268405-.9360648,6.2424173.386786,9.2112876,2.4276435,5.4483584,5.8021449,7.4985518,11.6528256,5.5098294,5.1173009-1.7394423,10.0037223-4.0010627,14.8442182-6.3737321,10.5748033-5.1834672,20.8048726-11.0494503,31.5485429-15.9003013,5.2912056-2.389016,10.6804641-4.4284617,16.4540996-5.3524522,9.9189886-1.5874005,19.8373402-1.0689037,29.7537148-.0706818,3.802457.3827723,7.4975398.5191335,11.205876-.8786501,7.2082796-2.7170177,13.9600282-6.3094177,20.6105827-10.1352488.6842692-.3936335.5224756-.6932746.1478226-1.1840201-2.2594868-2.959623-4.7184038-5.7409734-7.3784645-8.3451674-9.9945767-9.7847005-21.7705232-15.3450442-35.9728904-15.133394Z"/><path class="cls-8" d="m396.8699063,918.9570549c14.2023672-.2116502,25.9783136,5.3486935,35.9728904,15.133394,2.6600607,2.6041939,5.1189777,5.3855444,7.3784645,8.3451674.3746529.4907455.5364465.7903866-.1478226,1.1840201-6.6505544,3.8258311-13.4023031,7.4182311-20.6105827,10.1352488-3.7083361,1.3977836-7.4034189,1.2614225-11.205876.8786501-9.9163746-.9982219-19.8347261-1.5167186-29.7537148.0706818-5.7736355.9239904-11.162894,2.9634361-16.4540996,5.3524522-10.7436703,4.850851-20.9737396,10.7168341-31.5485429,15.9003013-4.8404959,2.3726694-9.7269173,4.6342898-14.8442182,6.3737321-5.8506808,1.9887224-9.2251822-.061471-11.6528256-5.5098294-1.3228508-2.9688704-1.5813427-6.0844472-.386786-9.2112876.2933131-.7677805.7553504-1.3583314,1.4564938-1.8335188,10.6220468-7.1988888,20.9660182-14.7811317,31.0826504-22.6716886.5452992-.4253058,1.1890687-.6340523,1.711947-1.1752722.9240819-.9564806-.0708286-1.2997787-.3469453-1.8581413-.3996879-.8082318-.872694-.1977243-1.2531096.0338003-10.9211702,6.6466777-21.6190394,13.6459667-32.4099898,20.4985494-5.1552195,3.2737298-10.1355237,6.8467385-15.6871525,9.4641759-5.2399403,2.4704858-10.6897543,4.2148976-16.5093162,4.6085494-1.3618302.0921151-2.7016742-.0731519-4.0203761-.4859205-1.7024628-.5328856-2.5587525-1.6816343-2.6935611-3.4157485-.3389105-4.3595328,1.3272643-8.0516521,3.9171344-11.3887742,2.3486596-3.0263197,5.1779186-5.5274715,8.510541-7.4595863,9.8477408-5.7093011,19.7203646-11.3706692,30.1565018-15.9666265,1.6795641-.7396615,3.411252-1.3605307,5.1124535-2.0520286.4146913-.1685623,1.1144654-.0460301.8661185-.9295473-.2618272-.9314685-.8706218-.3686762-1.243045-.2932664-4.399869.8908726-8.5759758,2.4675857-12.7328506,4.13233-8.1260789,3.2543294-16.013092,7.0115792-23.7794354,11.0352206-1.3966477.723582-1.9188084.4895507-2.3756066-.9824424-1.0650124-3.4319049.5401644-8.575799,3.3599254-10.7764626.514313-.4013896,1.1199352-.6055216,1.7205818-.8237057,5.8387015-2.120899,11.9050204-3.3411456,17.9816161-4.5085172,12.7818478-2.4555151,25.6496484-4.3913332,38.5332323-6.2117549,8.8950964-1.2568582,17.8156232-2.3233028,26.7562351-3.2285899,11.1708021-1.1311085,22.3615502-1.932337,33.5800791-2.3610201.5189316-.0198295,1.0392983-.0025442,1.5589914-.0025442Z"/></g><g id="Layer_21"><path class="cls-5" d="m218.0683139,1004.4017694c-5.4257666,0-53.5395169-75.1811702-70.9019699-100.682273-17.362453-25.5011029-11.3941098-96.0360683-8.1386499-111.7707913s11.3941098-30.9268694,32.5545994-44.4912859c21.1604896-13.5644164,51.0604518-7.5960732,51.0604518-7.5960732,0,0-2.9625093,44.2928596,5.9232782,56.8739518,8.8857875,12.5810922,68.740319,63.0228084,117.7386876,76.4560195,45.9680764,12.6024375,163.6735011-5.8175255,203.5946314-2.1922266s60.8245357,4.5614587,89.1670333-7.6168194c28.3424976-12.1782781,53.0778582-17.8429413,62.1266477-35.4082387,9.0487895-17.5652973,20.2500449-44.8655924,20.2500449-44.8655924"/></g><g id="Layer_20"><path class="cls-2" d="m715.7214868,799.1787378s21.2645321,5.7876637,35.5666429,25.0405051c14.3021107,19.2528414,45.1066569,67.1099042,61.6090924,81.412015,16.5024355,14.3021107,46.2068193,38.5056828,45.6567381,57.208443-.5500812,18.7027602-19.2528414,34.7770814-19.2528414,34.7770814"/></g><g id="Layer_19"><path class="cls-7" d="m282.1561584,870.119873c11.3817162,12.0636585,23.5906772,25.8595064,34.5943003,38.395582.0000295-.0000132,5.6427602,6.5023672,5.6427602,6.5023672l2.8213501,3.2511597c.9610596,1.0664673,1.9111328,2.1421509,1.9049988,4.0192871.0130403,2.0044743-1.8632308,3.5715723-3.8320207,3.2117745-1.8492843-.321943-2.7424117-1.4453561-3.6245223-2.5779855-9.4002157-11.5807168-20.3721397-25.2921936-29.4686574-37.0757468-3.4726878-4.5772683-7.0037852-9.1055276-10.4159251-13.7335183-1.1161823-1.5354237,1.0319929-3.3880203,2.3777161-1.9929199h0Z"/></g><g id="Layer_18"><path class="cls-7" d="m443.6744385,938.0407104c36.1027023-10.2576321,72.3680712-19.1342778,109.1177778-26.5711099,36.7455272-7.0700669,73.4922682-14.6248494,111.0151978-16.4912712,25.0657681-1.1790843,50.3887244-.3592612,75.1512651,4.1353184,3.9462238,1.6912551,7.8750354,3.423968,11.8062744,5.1524045,3.8841553,1.736145,7.7529908,3.4670409,11.6100464,5.3162231l-.3706665.8895264-12.1281128-3.890564-12.0959473-4.003418c-22.4662581-2.0922357-49.5734274-2.3037864-73.6190413-.8198318-43.2182247,2.2682964-86.5531735,7.4926517-128.6641559,17.9393163-18.0890448,4.3538458-36.0560482,9.2321653-53.8133902,14.7859146-11.8125618,3.6976893-23.6354378,7.6412318-35.0827339,12.0684168l-2.9265137-8.5109253h0Z"/></g><g id="Layer_17"><path class="cls-7" d="m717.072876,877.9711914c1.9919003,2.1227826,19.9786034,19.4155426,14.9579154,21.0334892-.6886557.1443337-1.3182269-.3421426-1.429763-1.0156197-.1493682-.5605942-.6884917-1.4471298-1.2500762-2.195665-4.3366932-5.5263688-9.7575421-10.2303663-14.9967368-14.887355-2.0092261-1.8144131.7419814-4.8076729,2.7186606-2.9348496h0Z"/></g><g id="Layer_16"><path class="cls-7" d="m614.1771851,998.2587891c10.1351393-10.6825014,20.4334781-21.8295548,28.6644198-33.9917838,2.1265678-3.1191557,3.4797913-6.4277417,5.2595467-9.7038574,1.7607259-3.3880991,3.7612753-6.6564707,5.8522787-9.8616709,15.7110993-24.1616667,38.8380246-36.1968163,67.2025014-38.4997654,7.4983589-.8093906,15.021544-1.5789344,22.5941292-1.4088483,3.8237556.1356207,7.7200718.3579815,11.3238059,1.853784-.0000142.0000811-.4099263,1.0512896-.4099263,1.0512896-7.0896441-1.8039733-14.7705132-.5703213-22.0102531.1143468-7.3595405.8957781-14.8563093,1.8425538-22.1194623,3.2149516-22.2907492,4.0483997-40.8114713,17.0298521-52.8318637,36.1328034-1.9681693,3.098323-3.8542777,6.2573806-5.5133964,9.5472976-1.746578,3.3420612-3.2627758,7.0079682-5.3501071,10.1216677-4.1744901,6.5109007-8.9838163,12.35166-13.8716337,18.1195433-4.9194336,5.7446289-9.9661865,11.3141479-15.2022095,16.7926636l-3.5878296-3.4824219h0Z"/></g><g id="Layer_8"><path class="cls-7" d="m362.5348816,413.1873779c23.2306107-2.1105406,46.5923335-4.2964539,69.9674568-4.3921154,9.9661419.6247238,20.6960477.0380541,29.6399211-4.748294,1.7296123-1.1771754,3.5659593,1.2842769,1.8940953,2.5911917-8.3299333,5.6336741-18.5668502,7.4487895-28.4169776,8.0802964-7.4416943.1812651-14.7622444-.6350942-22.2120636-.5463232-16.9052543-.1830852-33.8590623.1602185-50.7706257.5955576-.4372859.0143525-.8033748-.3285735-.8176875-.7658599-.0136719-.4185181.3055725-.7723389.7158813-.8144531h0Z"/></g><g id="Layer_7"><path class="cls-7" d="m552.0701904,316.166626c1.8027149-3.6788229,3.5726472-7.4904973,5.154733-11.2736475,1.363956-3.4753007,2.9207957-6.9234794,2.7365166-10.6412494-.0001363-.0000201-.0080709-.0785724-.0080709-.0785724.0189209.0129089-.0356445-.0737305.0874634.0958252-1.1233376-1.5733281,1.1968675-3.2922089,2.3732657-1.7489364,3.1802382,5.5583782-1.4440051,20.0901238-2.8498575,26.4472151-1.7567949,5.5762406-9.8254088,2.5810404-7.4940502-2.8006346h0Z"/></g><g id="Layer_14"><path class="cls-2" d="m147.166344,903.7194964s-5.5653035,29.3601131-2.4176759,40.4495509,16.8129699,57.7742175,16.8129699,57.7742175"/></g><g id="Layer_6"><path class="cls-7" d="m560.4983601,280.3143921c.9292586-.0595481,1.9538913.7066908,1.9095726,1.7078174-.0857548,1.3612306-1.143739,2.0136673-1.9395914,2.7867027-2.2570107,1.8878889-4.6536948,3.5026178-7.0839213,5.121403-.3144656.2071054-.7372562.1201303-.9443484-.1942923-.1904665-.2888579-.1321207-.6699251.1224366-.8899231,2.0976241-1.8785065,4.2218718-3.8027735,6.0917507-5.8860014.2812018-.3365911.8771621-1.0168385.8909659-1.2116889-.0253802.0843541-.0338641.0304601-.0595599.3450353-.0240575.5241354.5001594,1.1302275.9629885,1.1938542.0468382.0204402.0992063.0291377.1491941.0254451-.8280029.0274658-1.5214844-.6214905-1.5489502-1.4494629-.0274658-.8279419.62146-1.5214233,1.4494629-1.5488892h0Z"/></g><g id="Layer_4"><path class="cls-3" d="m728.2700195,285.5700073c-24.210022-15.6700439-59.7300415-21.75-73.8800049-23.6300049-6.6900024-.8900146-37.3500366-4.5800171-49.710022.8499756v-.8200073h-114.710022c-2.3799438-1.5299683-4.8399658-2.7199707-7.3599854-3.5599976-5.5599976-1.8499756-19.5-2.9899902-37.289978-3.0499878-20.3400269-.0599976-42.4799805,1.3200073-62.3699951,3.8900146-73.4199829,9.5-97.2900391,31.4299927-104.3699951,48.1599731l-.2000122.4700317-6.039978,25.8699951-63.7700195-8.8800049-1.6600342,11.8900146,64.2200317,8.9400024c.210022,8.1499634,1.1900024,24.5299683,5.3900146,41.7199707,8.0599976,33.0200195,24.2399902,52.8099976,46.7999878,57.2399902,15.25,3,36.6799927,6.0800171,60.2399902,6.0800171,7.1699829,0,14.539978-.2800293,21.9799805-.9400024,31.710022-2.8200073,56.8200073-11.7700195,74.6300049-26.5999756,36.6300049-30.5400391,43.7999878-57.6700439,41.9500122-88.4000244l48.5900269-4.1799927c-2.3300171,12.8099976-2.6000366,26.4199829.8099976,39.8800049,11.3899536,45.0499878,62.5,69.9400024,108.5999756,69.9400024,2.9400024,0,5.8599854-.1000366,8.75-.2999878,51.9400024-3.6700439,73.8900146-28.960022,73.3499756-84.5300293.6100464-4.8699951,4.4200439-45.2199707-33.9499512-70.039978Zm-255.7900391,128.4099731c-15.8899536,13.2399902-38.7699585,21.2700195-68,23.8599854-23.8099976,2.1199951-51.8099976.3600464-78.8499756-4.9499512-43.6300049-8.5700073-42.5700073-91.4700317-42.5499878-92.3000488l.2399902-1.0700073,6.5-27.8799438c8.6099854-19.3300171,42.1900024-33.7000122,94.6699829-40.4900513,43.2800293-5.5899658,86.2800293-4.0299683,94.3300171-1.3499756,15.1099854,5.039978,28.4500122,31.4899902,31.0200195,61.5299683,2.5499878,29.6800537-2.8099976,53.8600464-37.3600464,82.6500244Zm99.9800415-95.5499878l-52.1900024.2199707c-2.1000366-11.9599609-5.7900391-23.4199829-10.7300415-33.1300049-2.6399536-5.1799927-5.539978-9.7099609-8.6699829-13.5499878h94.9299927c-7.1699829,10.2200317-17.8499756,25.0600586-23.3399658,46.460022h0Zm179.8099976,36.1499634l-.0599976.3800049.0099487.4000244c.5800171,50.5300293-17.3799438,71.5100098-64.0599976,74.7999878-22.5499878,1.6000366-46.75-3.5800171-66.4099731-14.1799927-15.0100098-8.0899658-34.2199707-22.9799805-40.539978-47.9299927-10.5200195-41.5900269,19.0199585-86.7399902,27.1199951-95.9899902,2.6699829-1.8400269,19.2699585-3.7700195,46.3399658.0100098,27.8300171,3.8899536,52.6799927,11.8699951,68.1700439,21.8899536,34.4599609,22.3000488,29.6599731,59.0100098,29.4299927,60.6199951Z"/></g><g id="Layer_26"><path class="cls-9" d="m538.7003347,86.4880409s-33.9603842-50.7206367-107.7183433-68.6043388C357.2240323,0,265.7515805,63.619928,198.7806783,127.3239569c-66.9709022,63.7040289-83.3052686,111.0447057-83.3052686,139.6443397s-6.5337466,44.0301173-6.5337466,59.9997069,4.9003099,48.2756097,14.7009297,58.2575859c9.8006198,9.9819762,0,38.789682,0,59.5047168s-3.2668733,101.4600517,13.0674931,120.7079806,24.5015496,24.1482388,31.0352961,55.1835349c6.5337466,31.0352961-14.7009297,94.739325,1.6334366,101.2730716,16.3343664,6.5337466,38.2869962,6.9914881,46.7067914-10.6135381s21.4322058-120.9388757,13.0124107-138.5439019c-8.4197951-17.6050262-35.9754883-39.802668-35.2100524-82.6670796s2.7087786-122.2941316,13.8518295-137.0247469c11.1430509-14.7306153,35.9415649-26.7047165,63.1018422-35.4786861,27.1602773-8.7739696,30.3822939,4.6827135,52.9793588-.2743056,22.5970649-4.9570192,62.7384869-15.0403313,89.9073172-35.4790765,27.1688303-20.4387452,70.5030165-32.0646685,96.0669117-73.3955252,25.5638952-41.3308567,29.7649288-56.6823177,52.462926-56.6823177s97.0935392,22.4367508,119.53029,47.2352648c22.4367508,24.798514,29.5220405,80.9784014,41.3308567,107.2090122s2.3617632,66.4372966,0,78.8081982c-2.3617632,12.3709016-4.7943328,46.0616997,10.6279346,79.681154,15.4222674,33.6194543,16.5323427-5.3099699,20.0749875-29.2248214,3.5426449-23.9148515,15.3514611-67.4191563,12.9896978-115.3390195-2.3617632-47.9198632-7.8348211-51.462508-9.2313779-67.9948507s-5.3787338-60.2249626-28.7766001-82.6617134c-23.3978663-22.4367508-75.3943746-64.1326432-124.1263667-74.5294237-48.7319921-10.3967805-65.9772411-8.4314753-65.9772411-8.4314753Z"/><path class="cls-7" d="m536.8967285,87.9224472c-23.0960838-30.5410561-57.1087019-52.5804927-93.5848821-64.0851629-5.0394764-1.4914532-10.7332963-3.1930184-15.8824921-4.1894679-7.9554475-1.7611616-16.1510471-2.3561616-24.2937309-2.3420752-42.8355565.8649709-84.1012909,21.7815056-119.3734129,44.702254-33.7999782,22.3795619-64.8918938,48.8499804-93.6157028,77.4226529-23.1154299,23.452411-44.7113765,49.2056727-59.2085915,78.9301479-4.7217814,9.7008706-8.5194428,20.2077464-10.8268011,30.7609852-.5017799,2.6294272-1.0004564,5.3364185-1.3077492,7.9978829-.5101615,4.5399813-.7099026,8.9819354-.7077621,13.5879739-.1631427,11.2254311-1.6052741,22.5332695-3.5983671,33.5120236-1.2674623,7.3159219-2.6997133,14.5120279-2.8251711,21.5952493-.0779877,7.1343689.6686325,14.4754944,1.7370529,21.6711731,1.9037565,11.3970721,4.0781198,23.2886792,10.124563,33.1655347.2352316.3377002.4302771.7369006.6953986,1.0261767l.7658768.9074097.3787003.4573059c.1181641.1460266.2422562.2974243.4591522.5376282,4.0494042,4.2805335,4.813397,10.8909821,4.8969939,16.177226.0131968,14.9611042-4.0939732,29.4660823-4.3118396,44.2562508-.2510466,25.7699095-.8190893,51.793675,1.5375511,77.4354533,1.0574198,10.858934,2.4008234,21.7619091,5.7988384,32.0764796,1.4647266,4.2279757,3.1833565,8.0402461,6.057071,11.1783231-.0000534.0000465,1.7980118,2.0879982,1.7980118,2.0879982,3.5630082,4.0753862,7.5174614,8.4352608,10.9924578,12.6325489,7.4938385,8.6371009,12.5897683,19.4431476,15.5053858,30.5100332,1.0001525,3.672246,1.8437516,7.2760724,2.6211952,11.031943,1.4017702,7.6164544,1.32477,15.2188965.9331823,22.8446612-.8360589,14.8965773-3.1936413,29.5757973-4.7187152,44.3207337-.7382131,8.7753743-1.9723393,17.9415441.2102493,26.4721749.6846298,2.1098233,1.461413,3.7299601,3.2505719,4.552714,2.4061577.9335827,4.967353,1.822239,7.4972589,2.4288276,6.8092746,1.6820104,14.012125,2.1750524,20.5514163.507694,8.3714595-1.957481,14.534652-8.4197774,16.6564771-16.6560283,5.4417493-19.4190222,7.9006295-39.5643717,10.3711872-59.5908109,2.1604911-21.7123474,4.7408767-44.0478611,2.4419006-65.7110096-.3445959-1.9643688-.7019448-4.1265869-1.4738273-5.8968283-.1111551-.3364239-.3841501-.7505475-.5676828-1.1221905l-1.2289276-2.2918091c-5.7557247-9.4193242-12.9226813-17.8901636-18.6743991-27.5342469-8.4774294-13.7461784-14.1195065-29.5804101-14.9811912-45.8095649-.2134314-5.0058289-.0952736-14.510895.0592685-19.6825604.7012517-29.7204024,1.5099456-59.4011117,4.7909957-89.0168491.8591743-7.4208596,1.9090553-14.8395913,3.5592171-22.2664407,1.0930722-4.6332586,2.377243-9.7039189,4.9471039-14.0108222,13.5600718-19.1884264,44.1070414-30.8620141,65.8414647-38.0544756,6.444599-2.0249187,13.4200549-3.4497914,20.2756087-3.0250642,9.2832339.5444489,17.7579254,4.7809076,26.9321094,3.6090655,2.6688227-.2195151,5.077862-.725506,7.7920606-1.3308608,32.0451998-7.3203286,64.3681813-17.0957934,90.5682514-37.3211195,12.5473015-8.5800716,25.9081413-15.1215145,38.6058647-22.5054103,11.0509165-6.3906118,21.6828267-13.4474675,31.2458092-21.8815485.0000709.0001093,3.9163917-3.7344031,3.9163917-3.7344031l1.9539185-1.8709564c1.6633753-1.8101352,3.911447-4.2772595,5.4718062-5.9752436-.0000655.0000544,3.3449662-4.2335882,3.3449662-4.2335882l1.6747437-2.1149597c4.3921362-6.1442874,9.2636981-14.3690189,13.1579024-20.8690409,3.7918351-6.3466726,7.5010636-12.7506186,11.447902-19.1192251,6.2005946-9.7746367,13.1331352-20.9010957,25.0617883-24.3209708,11.449097-3.1419887,23.3712691-.1758577,34.6146101,2.1631605,14.6170178,3.3690943,28.8990936,7.8258692,42.9136437,13.1299472,19.9362247,7.9918458,44.1841307,17.8565228,58.0063837,35.0471228,4.7659496,6.1022202,8.374618,12.9123222,11.519297,19.8981295,9.1529326,20.7379684,14.0535025,42.4376966,20.351238,63.9050157,2.0913888,7.0292492,4.2527047,14.05583,7.1190377,20.5407849,3.2402954,7.1763611,4.9160156,14.9182434,5.6831055,22.524353,1.4836053,15.1665144-.1126732,30.311866-2.6777958,45.1895489-1.0341999,6.3370774-2.6367372,12.5833056-3.409546,18.9415872-2.4472142,22.3626985.5411152,45.4717907,8.8121024,66.4213858,2.08852,4.8539664,4.0757077,9.8724792,7.0345723,14.1692403.4573419.6548858.9343316,1.2782989,1.3891046,1.7467437.4263916.4644775.9358521.8226013.9406738.7840576.0265503.0170288-.1870728-.063446-.4439087-.0263672-.2561035.0281677-.4419556.1621704-.4419556.1621704.0023804-.0181274.1065674-.0881958.2397461-.2844238,2.5161866-4.6046129,3.0732934-10.3794808,3.960013-15.7181836,1.0361418-7.2255115,1.7616056-14.5931262,2.802194-22.0324573,4.124479-25.6224119,10.0950063-50.7248658,12.153001-76.5920172,2.3698143-25.442919,1.1235454-51.3453085-2.5337062-76.6459768-1.1979096-8.2676073-3.5181142-16.1547102-5.0058563-24.465629-.2289647-1.4381985-.6081543-4.3313494-.7330102-5.7812465-1.5690336-18.9441882-4.4540409-38.1378356-11.6596956-55.7774087-3.0843791-7.4258707-6.9155944-14.4404989-11.9856225-20.5189857-4.0446152-4.7567822-8.943193-8.8680428-13.580579-13.0909942-13.7570163-12.0604836-28.3908513-23.3244169-43.6949192-33.3365913-16.8032384-10.9099984-34.5775779-20.7141367-53.4441578-27.3169852-12.0415523-4.1927552-24.7767592-6.5534026-37.2426604-9.0224642-14.1596944-2.5780993-28.4061835-5.2358144-42.8172667-5.513928-.427634-.0737367.166177.1786589-1.5645969-.140059l-1.0498657-.1933212h0Zm3.0852661-3.3774567c14.5170577-.941163,29.0819744.9808956,43.4069919,3.0769576,11.0602131,1.7529559,22.2690502,3.6682531,33.0347742,6.7497422,32.4850861,9.8097651,61.5419039,28.3473158,88.0293288,49.0849462,8.6628618,6.8837535,17.5089501,14.3158833,25.5191011,21.9500376,23.5618335,21.8117024,29.0011815,58.9520742,31.6130773,89.3924895,1.2665812,9.0333261,4.0851706,17.9990053,5.3660383,27.1221023,2.9644984,20.4028241,4.2788032,41.0352304,3.5932625,61.6332237-.8466635,24.235047-4.8557107,48.3294425-9.4830373,72.0716002-1.3888019,7.2782375-2.8325275,14.5217983-3.8703693,21.7009975-1.6366229,10.9996129-2.2725106,22.3274871-4.9569563,33.3534285-1.2695403,5.4662879-4.8701074,13.6206905-12.0921942,9.6194604-3.5056759-2.2943661-5.5659362-6.2062944-7.4677518-9.6814703-12.7695626-25.5288172-17.2967258-54.9594303-13.5370695-83.2191855,3.7692621-19.6322088,7.7662761-39.7115323,5.7509474-59.7237462-.7136383-7.1113958-2.2280426-14.0390081-5.0929107-20.3981389-5.9592899-13.9833343-9.289894-28.4372538-13.4162533-42.8651278-6.1170089-20.9385175-11.5891044-42.4839391-24.613814-60.1017566-4.2962763-5.6387907-9.8561642-9.9373301-15.7637928-13.8459749-24.6210558-15.3424419-53.071132-25.1017707-81.2457252-31.9708572-10.1146542-2.0924205-21.1071766-4.9663665-31.2253814-2.2993338-6.567987,1.8645171-11.2388932,6.9063334-15.2634185,12.3828911-8.2970922,11.7319155-15.5330316,25.2693637-23.1793679,37.568288-2.1955021,3.717503-5.3017733,8.2598768-7.7746956,11.8455938-1.0540228,1.3182575-4.2090827,5.3243195-5.3242192,6.7185268-2.2992595,2.4690351-5.4040006,6.0586494-7.8476108,8.2801129-.0000181.0000247-4.1304197,3.9264163-4.1304197,3.9264163-4.1948926,3.6162378-8.866988,7.3899121-13.3432564,10.5699807-21.192734,15.0555076-45.8505554,25.0470549-66.3098956,40.6988433-22.0540211,14.448034-47.5308365,22.8744669-72.878017,29.2208106-6.4947726,1.4886113-12.8295116,3.3422652-19.5114995,4.0028629-4.9002297.5203008-10.1111686-.040986-14.7628038-1.1392219-5.5152739-1.3083548-10.2480437-2.5990076-15.6797828-2.5629452-5.2485724.0934956-10.3306595,1.2247827-15.4044372,2.794906-6.9681568,2.2201379-13.8791065,4.7141564-20.6248188,7.502517-13.2002154,5.5550484-26.5576833,12.1594738-36.90362,22.0397999-1.7672884,1.8272297-3.5291563,3.6405041-4.9052595,5.7603337-2.1387719,3.6610782-3.1336215,7.8012791-4.1802265,12.1027634-1.5721581,7.0362204-2.6178582,14.3047141-3.4671166,21.5947226-3.6592637,32.9345795-4.3561275,66.3695772-5.0667918,99.5260293-.5724157,18.1253851,4.6289365,35.7213243,14.1947539,51.1091005,5.643731,9.458548,12.8800759,18.0771091,18.6981956,27.6420938-.0000774.0000592,1.3957204,2.603819,1.3957204,2.603819.2251892.4575806.4753418.8204956.6788635,1.3563232,1.0515986,2.5586169,1.5290928,4.8777389,1.94435,7.5227284,2.3859258,22.5712705-.2404697,44.9123986-2.4852432,67.2591022-1.7182011,14.7818291-3.7975621,29.5090019-6.6856694,44.1725151-1.5960826,7.4475447-2.9733331,15.0860958-6.1011274,22.1086888-7.5470479,15.9126884-26.5267057,18.5866357-42.1273362,14.4512567-3.9321061-1.1840238-8.5449451-1.9908221-11.5621765-4.9235044-3.2746556-3.4102857-3.9413759-7.7911412-4.4806963-12.02208-1.1339657-15.0849882,1.7820195-30.012682,3.375149-44.8822274,1.5573183-14.2763413,3.6789658-29.2732176,1.28579-43.3861301-1.4758147-7.0613967-3.2284087-14.221614-5.9049682-20.8149978-4.4284186-11.9189641-13.5803337-21.2531975-21.8629781-30.7170715.0001393-.0000916-1.824644-2.1234437-1.824644-2.1234437l-.9123383-1.0617065c-2.8770171-3.6395053-4.8379809-7.8667828-6.1894281-11.9804531-5.6858853-18.0222305-6.5258288-37.0182769-7.4049485-55.7096551-.7254786-18.4408071-.3012153-37.2462043-.1159466-55.6761176.1764324-11.232806,2.5073214-22.4123942,3.7064742-33.3811463.391758-3.6178317.6939736-7.2275119.6518059-10.7464938-.0631604-5.2281625-.746368-10.060367-4.3686524-13.6469364-10.5913644-12.7743334-14.6450641-43.9682475-14.6078777-60.4706454.5822653-15.1744642,4.9799445-29.2494851,5.933404-44.1818644.7141722-7.3876313.3429042-14.8018627,1.008263-22.2129556.0001875.0000116.3009764-2.844776.3009764-2.844776l.1513596-1.4222107c.467221-2.3150381.74393-4.7142108,1.238521-7.0183965.4942767-2.0140652,1.4551272-6.3475438,2.0892581-8.262437.3696763-1.371291,1.2787791-4.056908,1.6616826-5.4222403,12.0631379-34.5862379,35.1588297-64.1871192,60.0534704-90.5362445,25.7154975-26.8155522,53.8898596-51.4338821,83.9092849-73.3239569,40.4463718-29.1223118,92.2201432-58.4724373,143.2962315-58.0609326,13.1989978-.0530629,26.3058389,2.8154403,38.856398,6.7590751,8.8655577,2.892926,17.7553416,6.2055539,26.155908,10.2381753,26.5922314,12.6984673,50.9786237,30.991335,68.8965107,54.534007-.000176.0001998.421821.586183.421821.586183-.2568359-.1299362,1.0500488,1.0213776-.2611694.0029297h0Z"/></g></svg>