<svg xmlns="http://www.w3.org/2000/svg" width="193" height="193" fill="none" viewBox="0 0 193 193"><path fill="#ACE730" d="M192.66 105.476v.567c-4.155 46.085-40.796 82.16-85.559 86.693h-.945l86.504-87.26Zm-53.838-95.391c-2.455-1.133-4.911-2.266-7.366-3.21a102.187 102.187 0 0 0-15.299-4.534C109.736 1.02 103.314.264 96.514.264c-3.21 0-6.421.189-9.632.378C64.595 2.908 44.763 12.54 29.464 27.273l-3.022 3.022C11.9 45.594 2.455 65.803.378 87.902.188 90.735 0 93.568 0 96.59c0 7.177.756 14.165 2.267 20.965 1.133 5.1 2.644 10.01 4.532 14.921 1.134 2.644 2.267 5.289 3.4 7.744 2.267 4.344 4.722 8.499 7.555 12.466l15.866-16.055L135.61 33.506l15.866-16.054c-3.778-2.645-8.122-5.1-12.655-7.367ZM24.365 114.911c-.19-.567-.378-1.322-.378-1.889a77.74 77.74 0 0 1-1.7-16.243c0-19.077 7.177-37.02 20.21-50.807l2.644-2.645c13.977-13.41 32.108-20.776 51.562-20.776 5.1 0 10.199.567 15.11 1.511l2.267.567-89.715 90.282Zm38.921 72.55c-2.456-.945-4.722-1.889-6.989-2.833-4.722-2.267-9.255-4.722-13.599-7.744L176.043 42.216c2.833 4.155 5.477 8.5 7.555 13.221 1.133 2.456 2.266 4.911 3.211 7.367L63.286 187.46Z"/></svg>