<svg width="32" height="32" viewBox="0 0 32 32" fill="none" xmlns="http://www.w3.org/2000/svg">
<path d="M26 16C26 23.1797 20.1797 29 13 29C5.8203 29 0 23.1797 0 16C0 8.8203 5.8203 3 13 3C20.1797 3 26 8.8203 26 16Z" fill="#161E53"/>
<path fill-rule="evenodd" clip-rule="evenodd" d="M15.5339 8.6875H13.9915L13.5966 9.77892H10.6864L6.5 21.3479H9.41429L8.70339 23.3125H10.2458L10.9567 21.3479H12.2787L11.5678 23.3125H13.1102L13.8219 21.3458C15.3121 21.3051 16.7328 20.7009 17.7898 19.6537C18.8848 18.5689 19.5 17.0976 19.5 15.5634C19.5 14.0293 18.8848 12.558 17.7898 11.4732C17.693 11.3772 17.5931 11.285 17.4903 11.1966L18.3983 8.6875H16.8559L16.2449 10.3761C15.8722 10.1939 15.4805 10.0515 15.0765 9.95145L15.5339 8.6875ZM12.8275 19.82L15.7196 11.8277C15.3541 11.63 14.9609 11.4857 14.5524 11.3999L14.428 11.7435H14.4322L11.5096 19.82H12.8275ZM9.96306 19.82L13.0437 11.3069H11.6759L8.5953 19.82H9.96306ZM14.3969 19.7567L16.9185 12.7884C17.5864 13.5578 17.9572 14.5417 17.9572 15.5634C17.9572 16.6922 17.5046 17.7748 16.6989 18.573C16.0688 19.1972 15.2631 19.6075 14.3969 19.7567Z" fill="#FFBB51"/>
<path fill-rule="evenodd" clip-rule="evenodd" d="M32 7C32 6.08384 31.8177 5.16768 31.4672 4.32124C31.1166 3.4748 30.5976 2.69808 29.9497 2.0503C29.3019 1.40238 28.5252 0.8834 27.6788 0.53284C26.8323 0.18228 25.9162 0 25 0C24.0838 0 23.1677 0.18228 22.3212 0.53284C21.4748 0.8834 20.6981 1.40238 20.0503 2.0503C19.4024 2.69808 18.8834 3.4748 18.5328 4.32124C18.1823 5.16768 18 6.08384 18 7C18 7.91616 18.1823 8.83232 18.5328 9.67876C18.8834 10.5252 19.4024 11.3019 20.0503 11.9497C20.6981 12.5976 21.4748 13.1166 22.3212 13.4672C23.1677 13.8177 24.0838 14 25 14C25.9162 14 26.8323 13.8177 27.6788 13.4672C28.5252 13.1166 29.3019 12.5976 29.9497 11.9497C30.5976 11.3019 31.1166 10.5252 31.4672 9.67876C31.8177 8.83232 32 7.91616 32 7Z" fill="white"/>
<path fill-rule="evenodd" clip-rule="evenodd" d="M31.4672 4.32124C31.8177 5.16768 32 6.08384 32 7C32 7.91616 31.8177 8.83232 31.4672 9.67876C31.1166 10.5252 30.5976 11.3019 29.9497 11.9497C29.3019 12.5976 28.5252 13.1166 27.6788 13.4672C26.8323 13.8177 25.9162 14 25 14C24.0838 14 23.1677 13.8177 22.3212 13.4672C21.4748 13.1166 20.6981 12.5976 20.0503 11.9497C19.4024 11.3019 18.8834 10.5252 18.5328 9.67876C18.1823 8.83232 18 7.91616 18 7C18 6.08384 18.1823 5.16768 18.5328 4.32124C18.8834 3.4748 19.4024 2.69808 20.0503 2.0503C20.6981 1.40238 21.4748 0.8834 22.3212 0.53284C23.1677 0.18228 24.0838 0 25 0C25.9162 0 26.8323 0.18228 27.6788 0.53284C28.5252 0.8834 29.3019 1.40238 29.9497 2.0503C30.5976 2.69808 31.1166 3.4748 31.4672 4.32124ZM30.8205 4.58906C31.1359 5.35094 31.3 6.1754 31.3 7C31.3 7.8246 31.1359 8.64906 30.8205 9.41094C30.5049 10.1727 30.0378 10.8717 29.4548 11.4548C28.8717 12.0378 28.1727 12.5049 27.4109 12.8205C26.6491 13.1359 25.8246 13.3 25 13.3C24.1754 13.3 23.3509 13.1359 22.5891 12.8205C21.8273 12.5049 21.1283 12.0378 20.5452 11.4548C19.9622 10.8717 19.4951 10.1727 19.1795 9.41094C18.8641 8.64906 18.7 7.8246 18.7 7C18.7 6.1754 18.8641 5.35094 19.1795 4.58906C19.4951 3.82732 19.9622 3.1283 20.5452 2.5452C21.1283 1.96224 21.8273 1.49506 22.5891 1.1795C23.3509 0.86408 24.1754 0.7 25 0.7C25.8246 0.7 26.6491 0.86408 27.4109 1.1795C28.1727 1.49506 28.8717 1.96224 29.4548 2.5452C30.0378 3.1283 30.5049 3.82732 30.8205 4.58906Z" fill="black"/>
<path fill-rule="evenodd" clip-rule="evenodd" d="M25.0545 4.66731C26.5867 4.66731 27.8288 4.25263 27.8288 3.74109C27.8288 3.22956 26.5867 2.81488 25.0545 2.81488C23.5223 2.81488 22.2802 3.22956 22.2802 3.74109C22.2802 4.25263 23.5223 4.66731 25.0545 4.66731ZM23.4375 4.88385C22.2049 5.08418 21.3554 5.50641 21.3554 5.99488C21.3554 6.67692 23.0116 7.22983 25.0545 7.22983C27.0974 7.22983 28.7536 6.67692 28.7536 5.99488C28.7536 5.50641 27.9041 5.08418 26.6715 4.88385C26.1979 5.00127 25.645 5.06867 25.0545 5.06867C24.464 5.06867 23.9111 5.00127 23.4375 4.88385ZM22.8759 7.41157C21.4206 7.67158 20.4307 8.18395 20.4307 8.77352C20.4307 9.62607 22.5008 10.3172 25.0545 10.3172C27.6082 10.3172 29.6783 9.62607 29.6783 8.77352C29.6783 8.18395 28.6883 7.67158 27.2331 7.41157C26.6007 7.57035 25.8541 7.66205 25.0545 7.66205C24.2549 7.66205 23.5083 7.57035 22.8759 7.41157Z" fill="black"/>
<path fill-rule="evenodd" clip-rule="evenodd" d="M32 25C32 24.0838 31.8177 23.1677 31.4672 22.3212C31.1166 21.4748 30.5976 20.6981 29.9497 20.0503C29.3019 19.4024 28.5252 18.8834 27.6788 18.5328C26.8323 18.1823 25.9162 18 25 18C24.0838 18 23.1677 18.1823 22.3212 18.5328C21.4748 18.8834 20.6981 19.4024 20.0503 20.0503C19.4024 20.6981 18.8834 21.4748 18.5328 22.3212C18.1823 23.1677 18 24.0838 18 25C18 25.9162 18.1823 26.8323 18.5328 27.6788C18.8834 28.5252 19.4024 29.3019 20.0503 29.9497C20.6981 30.5976 21.4748 31.1166 22.3212 31.4672C23.1677 31.8177 24.0838 32 25 32C25.9162 32 26.8323 31.8177 27.6788 31.4672C28.5252 31.1166 29.3019 30.5976 29.9497 29.9497C30.5976 29.3019 31.1166 28.5252 31.4672 27.6788C31.8177 26.8323 32 25.9162 32 25Z" fill="#2775CA"/>
<path fill-rule="evenodd" clip-rule="evenodd" d="M23.7182 29.8493C23.7182 30.0203 23.5992 30.0773 23.4265 30.0773C21.2659 29.3857 19.75 27.4213 19.75 25.111C19.75 22.8008 21.2659 20.8363 23.4265 20.1448C23.5997 20.0893 23.7182 20.2017 23.7182 20.3767V20.7793C23.7182 20.8972 23.6568 21.0111 23.5416 21.0681C21.8492 21.7027 20.6825 23.2644 20.6825 25.111C20.6825 26.9615 21.9068 28.5764 23.5416 29.154C23.6568 29.211 23.7182 29.3288 23.7182 29.4427V29.8493ZM25.4682 28.4054C25.4682 28.5194 25.3492 28.6333 25.2341 28.6333H24.7659C24.6509 28.6333 24.5319 28.5194 24.5319 28.4054V27.71C23.5992 27.5961 23.1349 27.0754 22.9584 26.3232C22.9584 26.2091 23.0159 26.0951 23.1349 26.0951H23.6569C23.7759 26.0951 23.8334 26.1521 23.8909 26.2661C24.0099 26.6728 24.2401 27.0185 25 27.0185C25.5834 27.0185 25.9901 26.7297 25.9901 26.2661C25.9901 25.8064 25.7599 25.6316 24.9425 25.5175C23.7176 25.3468 23.1349 24.9971 23.1349 24.0129C23.1349 23.2644 23.7182 22.6868 24.5319 22.569V21.8774C24.5319 21.7635 24.6509 21.6456 24.7659 21.6456H25.2341C25.3492 21.6456 25.4682 21.7635 25.4682 21.8774V22.569C26.1666 22.6868 26.6349 23.0896 26.75 23.7242C26.75 23.842 26.6925 23.9559 26.5735 23.9559H26.1091C25.9901 23.9559 25.9326 23.899 25.875 23.7849C25.7599 23.3783 25.4682 23.2074 24.9425 23.2074C24.3591 23.2074 24.0675 23.4961 24.0675 23.899C24.0675 24.3016 24.2401 24.5334 25.1151 24.6512C26.344 24.8167 26.9266 25.168 26.9266 26.1521C26.9266 26.9006 26.3432 27.5391 25.4682 27.71V28.4054ZM26.2818 29.8492C26.2818 30.0203 26.4008 30.1381 26.5735 30.0772C28.7341 29.3857 30.25 27.4213 30.25 25.111C30.25 22.8007 28.6765 20.8363 26.5735 20.1447C26.4008 20.1447 26.2818 20.2017 26.2818 20.3766V20.7793C26.2818 20.8971 26.3432 21.0111 26.4584 21.068C28.0932 21.6456 29.3175 23.2644 29.3175 25.111C29.3175 26.9615 28.1508 28.5194 26.4584 29.1539C26.3432 29.2109 26.2818 29.3287 26.2818 29.4427V29.8492Z" fill="white"/>
</svg>
