<svg xmlns="http://www.w3.org/2000/svg" xmlns:xlink="http://www.w3.org/1999/xlink" viewBox="0 0 240 240"><defs><linearGradient id="a" x1="34.5" x2="146.8" y1="132.6" y2="243.4" gradientUnits="userSpaceOnUse"><stop offset="0" stop-color="#4f2582"/><stop offset="1" stop-color="#e56e39"/></linearGradient><linearGradient xlink:href="#a" id="b" x1="49.3" x2="191.2" y1="36.3" y2="176.1"/><linearGradient xlink:href="#a" id="c" x1="39" x2="196.1" y1="44.5" y2="199.4"/></defs><circle cx="120" cy="120" r="120" style="fill:#fff"/><path d="M110.7 209.8c-28.3-1.4-38.6-11.3-58.2-2.2 0 0 20.3 19.3 50.3 19.3s19.2-16.6 7.9-17.1Zm39.9-177.1c3.1-20-36.2-24.3-63.1-17.7S42.4 37.8 32.2 54.3c0 0 11.6-8 35.7-10.4s79.6 8.8 82.7-11.2Zm-1 100.4c0-31.3-85.3-33.6-128.3-34-4.2 0-8 2.5-9.4 6.4-2.5 6.5-2.8 13-1.8 27.5 1.3 19 7.8 31.7 13.1 40.9 0 0 12.8-16.7 37.3-16.7s89.1 8.8 89.1-24.1Zm32.2 43.2c-17.6.9-19.8-5.3-30.3-2.5-23.7 6.9-19.4 29.1-11 32.7 8.4 3.5 11.4 2.7 20.7 15.5 23.5-7.3 47.3-35.5 47.3-35.5s-9-11-26.6-10.1Zm28.9-111.1c-20.9-10.7-42.6-18.8-54.2 3.1-5.8 11-1.5 29.9 30.5 37.2 32 7.3 42.6 26.1 42.6 26.1s2.6-55.3-18.8-66.3Z" style="fill:url(#c)"/></svg>