<svg width="200" height="201" viewBox="0 0 200 201" fill="none" xmlns="http://www.w3.org/2000/svg">
<rect y="0.5" width="200" height="200" rx="100" fill="#F3F3F4"/>
<g style="mix-blend-mode:luminosity">
<path d="M131.329 118.163C117.829 118.335 107.323 116.467 99.5263 113.939C97.9976 113.42 94.6613 111.901 93.5458 109.978C92.9285 108.914 92.9212 106.183 93.1357 103.373C93.1962 103.568 93.2666 103.738 93.3481 103.879C94.4614 105.802 97.8181 107.316 99.3573 107.833C107.208 110.347 117.797 112.196 131.42 111.995C146.569 111.771 155.867 109.986 161.328 107.87C161.324 107.919 161.321 107.968 161.318 108.017C161.091 111.512 160.871 114.904 151.917 116.496C146.735 117.418 140.001 118.053 131.329 118.163Z" fill="#FF1100"/>
<path d="M131.329 123.09C117.829 123.262 107.323 121.394 99.5263 118.866C97.9976 118.347 94.6613 116.828 93.5458 114.905C92.9285 113.841 92.9212 111.11 93.1357 108.3C93.1962 108.495 93.2666 108.665 93.3481 108.806C94.4614 110.729 97.8181 112.243 99.3573 112.76C107.208 115.274 117.797 117.123 131.42 116.922C146.569 116.698 155.867 114.913 161.328 112.797C161.324 112.846 161.321 112.895 161.318 112.944C161.091 116.439 160.871 119.831 151.917 121.423C146.735 122.345 140.001 122.98 131.329 123.09Z" fill="#FDBF41"/>
<path d="M164.542 118.065C164.668 121.226 157.561 127.642 128.129 128.017C114.629 128.189 104.123 126.321 96.3262 123.793C94.7975 123.274 91.4613 121.755 90.3458 119.832C89.7285 118.768 89.7211 116.037 89.9356 113.227C89.9961 113.422 90.0666 113.592 90.148 113.733C91.2614 115.656 94.6181 117.17 96.1573 117.687C104.008 120.201 114.597 122.05 128.22 121.849C151.677 121.502 161.107 117.412 163.982 114.148L164.542 118.065Z" fill="#F1ECE2"/>
<path d="M129.167 60.3653C134.597 62.3079 142.636 73.0476 131.348 100.466C126.171 113.042 118.735 121.525 111.275 127.078C109.772 128.151 105.835 130.242 102.112 130.02C100.654 129.933 97.9007 129.022 94.7521 127.778C95.4821 127.97 96.1036 128.089 96.5842 128.118C100.308 128.343 104.245 126.23 105.748 125.145C113.208 119.534 120.644 110.961 125.821 98.2518C135.14 75.3761 131.286 63.9891 126.602 59.6086L129.167 60.3653Z" fill="#FF1100"/>
<path d="M133.822 60.6774C139.252 62.6759 147.291 73.7249 136.004 101.933C130.826 114.871 123.39 123.599 115.931 129.312C114.427 130.416 110.49 132.567 106.767 132.339C105.309 132.249 102.556 131.311 99.407 130.031C100.137 130.229 100.759 130.352 101.239 130.382C104.963 130.613 108.9 128.439 110.403 127.323C117.863 121.55 125.299 112.73 130.476 99.6551C139.795 76.1206 135.941 64.4056 131.257 59.8989L133.822 60.6774Z" fill="#FDBF41"/>
<path d="M137.895 63.2857C143.325 65.2842 151.364 76.3332 140.077 104.541C134.899 117.479 127.463 126.207 120.004 131.92C118.5 133.024 114.563 135.175 110.84 134.947C109.382 134.858 106.629 133.92 103.48 132.64C104.21 132.838 104.832 132.961 105.312 132.99C109.036 133.221 112.973 131.047 114.476 129.931C121.936 124.158 129.372 115.338 134.549 102.263C143.868 78.7289 140.014 67.0139 135.33 62.5072L137.895 63.2857Z" fill="#F1ECE2"/>
<path d="M143.81 105.807C155.098 76.5552 147.059 65.0971 141.628 63.0246L139.064 62.2173C139.113 62.2663 139.162 62.3162 139.211 62.3668C135.272 61.722 129.876 64.3965 124.785 69.5167C124.058 70.2413 127.246 69.048 128.276 68.0211C130.749 65.9923 134.449 64.9769 137.925 66.4353C145.771 69.7262 145.933 87.0577 138.289 105.146C130.644 123.235 118.96 134.941 111.115 131.65C110.066 131.211 108.969 130.388 108.058 129.754C105.952 127.874 105.003 125.364 105.003 118.886L105.003 126.878C104.451 126.057 103.985 125.136 103.622 124.103C103.549 122.364 102.385 119.466 102.027 122.509C102.297 129.148 105.177 133.008 109.064 135.311L109.046 135.31C108.9 135.301 108.788 135.298 108.691 135.295C108.32 135.284 108.169 135.28 107.215 134.963C110.263 136.3 111.931 136.922 113.76 136.992C118.044 137.156 123.021 134.66 124.524 133.514C131.984 127.59 138.633 119.225 143.81 105.807Z" fill="#007FFF"/>
<path d="M128.287 90.9844C141.787 90.8125 152.293 92.6808 160.089 95.2081C161.618 95.7274 164.954 97.2467 166.07 99.1693C166.687 100.233 166.694 102.964 166.48 105.775C166.419 105.579 166.349 105.409 166.268 105.269C165.154 103.346 161.797 101.831 160.258 101.314C152.407 98.8 141.818 96.9515 128.195 97.1526C113.047 97.3763 103.749 99.1615 98.288 101.277C98.2912 101.228 98.2943 101.18 98.2975 101.131C98.5242 97.6358 98.7443 94.2439 107.699 92.6513C112.881 91.7296 119.615 91.0947 128.287 90.9844Z" fill="#FF1100"/>
<path d="M128.287 96.5412C141.787 96.3694 152.293 98.2377 160.089 100.765C161.618 101.284 164.954 102.804 166.07 104.726C166.687 105.79 166.694 108.521 166.48 111.332C166.419 111.136 166.349 110.966 166.268 110.826C165.154 108.902 161.797 107.388 160.258 106.871C152.407 104.357 141.818 102.508 128.195 102.71C113.047 102.933 103.749 104.718 98.288 106.834C98.2912 106.785 98.2943 106.736 98.2975 106.688C98.5242 103.193 98.7443 99.8008 107.699 98.2081C112.881 97.2865 119.615 96.6516 128.287 96.5412Z" fill="#FDBF41"/>
<path opacity="0.48" d="M164.474 119.904C164.606 119.798 164.606 119.787 164.474 119.681C164.167 119.428 163.838 119.208 163.502 118.998C162.379 118.3 161.179 117.767 159.95 117.305C159.669 117.199 159.396 117.071 159.097 117.017C159.015 116.921 158.893 116.913 158.787 116.878C157.64 116.486 156.472 116.166 155.301 115.858C155.203 115.85 155.108 115.829 155.023 115.78C154.474 115.657 153.926 115.532 153.38 115.41C152.366 115.184 151.346 114.988 150.324 114.812C149.566 114.681 148.806 114.559 148.046 114.442C147.452 114.352 146.859 114.26 146.26 114.216C146.162 114.2 146.064 114.181 145.964 114.167C143.868 113.904 141.77 113.705 139.665 113.556C138.29 113.461 136.915 113.384 135.538 113.33C133.739 113.259 131.938 113.227 130.137 113.227C127.904 113.227 125.673 113.284 123.446 113.395C120.871 113.523 118.302 113.724 115.74 114.018C115.322 114.067 114.898 114.094 114.485 114.186C114.4 114.162 114.318 114.186 114.233 114.195C112.408 114.426 110.591 114.711 108.784 115.062C107.717 115.268 106.655 115.497 105.6 115.755L105.579 115.79C105.579 115.79 105.306 119.819 105.91 123.753C106.951 124.006 107.998 124.232 109.047 124.433C109.984 124.612 110.925 124.784 111.87 124.922C113.195 125.118 114.522 125.316 115.854 125.458C117.149 125.596 118.442 125.74 119.74 125.838C120.508 125.895 121.274 125.963 122.042 126.01C123.178 126.078 124.317 126.135 125.454 126.175C126.492 126.214 127.53 126.243 128.569 126.257C130.229 126.279 131.893 126.271 133.554 126.235C135.154 126.2 136.754 126.137 138.351 126.045C140.255 125.936 142.157 125.781 144.056 125.58C146.952 125.273 149.831 124.86 152.684 124.275C155.176 123.764 157.64 123.139 160.029 122.236C161.07 121.845 162.09 121.396 163.059 120.842C163.552 120.562 164.029 120.257 164.474 119.901V119.904Z" fill="url(#paint0_linear_3755_1713)"/>
<path d="M91.8736 111.71C91.748 108.549 98.8549 102.133 128.287 101.758C141.787 101.586 152.293 103.455 160.09 105.982C161.618 106.501 164.955 108.02 166.07 109.943C166.687 111.007 166.695 113.738 166.48 116.548C166.42 116.353 166.349 116.183 166.268 116.043C165.155 114.119 161.798 112.605 160.259 112.088C152.408 109.574 141.819 107.725 128.195 107.926C104.739 108.273 95.3092 112.363 92.4337 115.627L91.8736 111.71Z" fill="#F1ECE2"/>
<path d="M91.8736 117.507C91.748 114.346 98.8549 107.929 128.287 107.555C141.787 107.383 152.293 109.251 160.09 111.778C161.618 112.298 164.955 113.817 166.07 115.74C166.626 116.698 166.687 119.01 166.537 121.513C165.344 119.655 161.767 118.391 160.259 117.885C152.408 115.37 141.819 113.522 128.196 113.723C104.738 114.069 95.3085 118.16 92.4337 121.424L91.8736 117.507Z" fill="#007FFF"/>
<path d="M94.4921 129.241C89.0617 127.227 81.0228 116.091 92.3102 87.6617C97.4876 74.6216 104.924 65.8254 112.383 60.0678C113.886 58.9549 117.823 56.7868 121.547 57.017C123.652 57.1471 128.46 59.0614 133.258 61.2208C132.764 61.2721 132.288 61.3246 131.833 61.3747C130.183 61.5564 128.818 61.7068 127.947 61.6539C124.223 61.4279 120.286 63.5568 118.783 64.6495C111.324 70.3029 103.888 78.94 98.7103 91.7441C89.3334 114.934 93.2941 126.405 98.0169 130.758L94.4921 129.241Z" fill="#FF1100"/>
<path d="M99.147 131.475C93.7166 129.439 85.6777 118.182 96.9651 89.4441C102.143 76.2624 109.578 67.3707 117.038 61.5506C118.541 60.4256 122.478 58.2339 126.202 58.4666C127.827 58.5682 131.064 59.745 134.664 61.2809C133.32 60.8302 132.201 60.5436 131.438 60.4955C127.715 60.2612 123.778 62.4686 122.275 63.6016C114.815 69.4633 107.379 78.4188 102.202 91.6948C90.9141 120.638 99.214 131.609 104.644 133.66L109.299 135.254L99.147 131.475Z" fill="#FDBF41"/>
<path d="M103.511 133.418C98.0801 131.36 90.0412 119.983 101.329 90.9362C106.506 77.6129 113.942 68.6257 121.402 62.7431C122.905 61.606 126.842 59.3908 130.565 59.626C132.248 59.7322 135.657 61.0028 139.407 62.635C138.139 62.2303 137.083 61.9744 136.354 61.9273C132.63 61.6871 128.723 63.6773 127.22 64.8385C119.76 70.8461 112.324 80.0244 107.147 93.6308C97.509 118.96 104.188 131.377 109.008 135.543L103.511 133.418Z" fill="#F1ECE2"/>
<path d="M105.983 92.5402C94.6954 121.792 102.734 133.251 108.165 135.323L110.729 136.13C110.68 136.081 110.631 136.031 110.582 135.981C114.521 136.626 119.917 133.951 125.008 128.831C125.735 128.106 122.547 129.3 121.517 130.327C119.044 132.355 115.344 133.371 111.868 131.912C104.022 128.621 103.86 111.29 111.504 93.2013C119.149 75.1126 130.833 63.4064 138.678 66.6972C139.727 67.1371 140.824 67.9601 141.735 68.5933C143.841 70.4732 144.79 72.9837 144.79 79.4619V71.4694C145.342 72.2907 145.808 73.2115 146.171 74.2449C146.244 75.9839 147.408 78.8821 147.766 75.839C147.496 69.1994 144.616 65.3402 140.729 63.0363L140.747 63.0374C140.893 63.0468 141.005 63.05 141.102 63.0528C141.473 63.0635 141.624 63.0678 142.578 63.3842C139.53 62.0474 137.862 61.4255 136.033 61.3554C131.749 61.1912 126.772 63.6881 125.269 64.8332C117.809 70.7575 111.16 79.1226 105.983 92.5402Z" fill="#007FFF"/>
<path d="M130.638 126.081C153.403 125.429 162.9 121.432 166.024 118.176L166.321 120.904L166.464 120.762C166.557 121.072 166.591 121.773 166.449 122.418C166.051 125.198 157.779 132.404 125.736 132.404C124.566 132.404 123.451 132.39 122.391 132.364C124.778 130.238 126.814 128.149 128.559 126.125C129.244 126.116 129.937 126.102 130.638 126.081Z" fill="#007FFF"/>
</g>
<rect x="24.9111" y="57.6455" width="81" height="81" rx="40.5" fill="#F50DB4"/>
<path d="M65.5022 98.6503L98.2683 98.6503V96.9108C97.8541 96.9271 97.4379 96.9353 97.0197 96.9353C79.7792 96.9353 65.8031 82.9592 65.8031 65.7188C65.8031 65.4572 65.8063 65.1964 65.8127 64.9364L64.5544 64.9364L64.5544 97.3204H31.7883V99.0598C32.2025 99.0435 32.6188 99.0353 33.037 99.0353C50.2774 99.0353 64.2536 113.011 64.2536 130.252C64.2536 130.513 64.2503 130.774 64.2439 131.034H65.5022V98.6503Z" fill="white"/>
<defs>
<linearGradient id="paint0_linear_3755_1713" x1="137.227" y1="111.778" x2="137.777" y2="123.952" gradientUnits="userSpaceOnUse">
<stop offset="0.16" stop-color="#191919"/>
<stop offset="0.97" stop-color="#191919" stop-opacity="0"/>
</linearGradient>
</defs>
</svg>
