<svg width="240" height="240" viewBox="0 0 240 240" fill="none" xmlns="http://www.w3.org/2000/svg">
<g clip-path="url(#clip0_3001_2617)">
<rect width="240" height="240" rx="120" fill="#F5F3F1"/>
<path d="M120 240C186.274 240 240 186.274 240 120C240 53.7258 186.274 0 120 0C53.7258 0 0 53.7258 0 120C0 186.274 53.7258 240 120 240Z" fill="#F5F3F1"/>
<path d="M128.002 155.87C105.12 156.161 87.3133 152.994 74.0986 148.711C71.5076 147.83 65.8529 145.255 63.9622 141.997C62.9159 140.193 62.9035 135.565 63.2671 130.801C63.3696 131.132 63.4891 131.42 63.6271 131.659C65.5141 134.918 71.2035 137.485 73.8123 138.361C87.1191 142.623 105.067 145.756 128.157 145.415C153.832 145.036 169.591 142.01 178.847 138.424C178.842 138.507 178.836 138.59 178.831 138.672C178.447 144.596 178.074 150.345 162.896 153.044C154.114 154.606 142.7 155.683 128.002 155.87Z" fill="#FF1100"/>
<path d="M128.002 164.22C105.12 164.512 87.3133 161.345 74.0986 157.061C71.5076 156.181 65.8529 153.606 63.9622 150.347C62.9159 148.544 62.9035 143.916 63.2671 139.152C63.3696 139.483 63.4891 139.771 63.6271 140.009C65.5141 143.269 71.2035 145.836 73.8123 146.712C87.1191 150.973 105.067 154.106 128.157 153.766C153.832 153.386 169.591 150.361 178.847 146.775C178.842 146.858 178.836 146.94 178.831 147.023C178.447 152.947 178.074 158.696 162.896 161.395C154.114 162.957 142.7 164.033 128.002 164.22Z" fill="#FDBF41"/>
<path d="M184.296 155.703C184.508 161.061 172.463 171.936 122.578 172.571C99.6961 172.862 81.8893 169.696 68.6746 165.412C66.0836 164.532 60.4288 161.957 58.5381 158.698C57.4919 156.895 57.4795 152.266 57.843 147.503C57.9455 147.834 58.065 148.122 58.203 148.36C60.09 151.62 65.7794 154.187 68.3883 155.063C81.6951 159.324 99.6426 162.457 122.733 162.116C162.49 161.529 178.473 154.596 183.346 149.064L184.296 155.703Z" fill="#F1ECE2"/>
<path d="M124.337 57.9068C133.541 61.1993 147.166 79.4021 128.035 125.873C119.26 147.189 106.656 161.568 94.0126 170.98C91.4651 172.799 84.7921 176.343 78.4807 175.967C76.0102 175.819 71.3436 174.274 66.007 172.165C67.2443 172.491 68.2977 172.694 69.1123 172.743C75.4237 173.123 82.0966 169.542 84.6442 167.703C97.2878 158.193 109.891 143.662 118.666 122.121C134.462 83.3488 127.928 64.0488 119.99 56.6242L124.337 57.9068Z" fill="#FF1100"/>
<path d="M132.226 58.4357C141.431 61.823 155.056 80.5502 135.925 128.36C127.149 150.29 114.546 165.083 101.902 174.765C99.3547 176.637 92.6817 180.283 86.3704 179.896C83.8997 179.745 79.2329 178.155 73.8961 175.985C75.1337 176.321 76.1872 176.529 77.0019 176.58C83.3133 176.971 89.9863 173.286 92.5338 171.395C105.177 161.61 117.781 146.661 126.556 124.5C142.351 84.6107 135.818 64.7547 127.879 57.1162L132.226 58.4357Z" fill="#FDBF41"/>
<path d="M139.13 62.8566C148.334 66.244 161.959 84.9711 142.828 132.781C134.053 154.711 121.449 169.504 108.806 179.186C106.258 181.058 99.5852 184.704 93.2738 184.317C90.8032 184.166 86.1364 182.575 80.7996 180.406C82.0371 180.742 83.0907 180.95 83.9053 181.001C90.2167 181.392 96.8897 177.707 99.4373 175.816C112.081 166.031 124.684 151.082 133.46 128.921C149.255 89.0316 142.721 69.1757 134.783 61.5371L139.13 62.8566Z" fill="#F1ECE2"/>
<path d="M149.156 134.928C168.288 85.3473 154.662 65.9267 145.458 62.414L141.111 61.0457C141.195 61.1288 141.278 61.2133 141.361 61.2992C134.685 60.2062 125.538 64.7393 116.911 73.4176C115.678 74.6457 121.081 72.6233 122.828 70.8828C127.019 67.4441 133.289 65.723 139.182 68.195C152.479 73.7727 152.755 103.148 139.798 133.807C126.841 164.466 107.037 184.307 93.7401 178.73C91.9626 177.984 90.1035 176.589 88.559 175.516C84.9904 172.329 83.3817 168.074 83.3817 157.094L83.3817 170.641C82.4455 169.249 81.6557 167.688 81.0405 165.937C80.9162 162.989 78.9439 158.077 78.3365 163.235C78.795 174.488 83.6756 181.03 90.264 184.935L90.2337 184.933C89.9867 184.917 89.7964 184.911 89.6318 184.907C89.0025 184.888 88.7478 184.881 87.13 184.345C92.2962 186.611 95.1244 187.665 98.2242 187.784C105.485 188.062 113.921 183.83 116.468 181.889C129.112 171.848 140.381 157.67 149.156 134.928Z" fill="#007FFF"/>
<path d="M122.846 109.804C145.728 109.512 163.534 112.679 176.749 116.963C179.34 117.843 184.995 120.418 186.886 123.676C187.932 125.48 187.944 130.108 187.581 134.872C187.478 134.541 187.359 134.253 187.221 134.015C185.334 130.755 179.644 128.188 177.035 127.312C163.729 123.051 145.781 119.917 122.691 120.258C97.0161 120.637 81.2564 123.663 72.0006 127.249C72.006 127.166 72.0114 127.084 72.0167 127.001C72.4011 121.077 72.7741 115.328 87.9514 112.629C96.7341 111.067 108.147 109.991 122.846 109.804Z" fill="#FF1100"/>
<path d="M122.846 119.222C145.728 118.931 163.534 122.098 176.749 126.381C179.34 127.261 184.995 129.836 186.886 133.095C187.932 134.898 187.944 139.527 187.581 144.291C187.478 143.959 187.359 143.672 187.221 143.433C185.334 140.174 179.644 137.607 177.035 136.731C163.729 132.469 145.781 129.336 122.691 129.677C97.0161 130.056 81.2564 133.082 72.0006 136.668C72.006 136.585 72.0114 136.502 72.0167 136.42C72.4011 130.496 72.7741 124.747 87.9514 122.047C96.7341 120.485 108.147 119.409 122.846 119.222Z" fill="#FDBF41"/>
<path d="M61.1284 144.933C60.9156 139.574 72.9612 128.699 122.846 128.064C145.728 127.773 163.535 130.94 176.749 135.223C179.34 136.103 184.995 138.678 186.886 141.937C187.932 143.74 187.944 148.369 187.581 153.133C187.478 152.802 187.359 152.514 187.221 152.275C185.334 149.016 179.645 146.449 177.036 145.573C163.729 141.311 145.781 138.178 122.691 138.519C82.9338 139.106 66.9514 146.039 62.0777 151.572L61.1284 144.933Z" fill="#F1ECE2"/>
<path d="M61.1284 154.757C60.9156 149.399 72.9612 138.524 122.846 137.889C145.728 137.598 163.535 140.764 176.749 145.048C179.34 145.928 184.995 148.503 186.886 151.762C187.828 153.387 187.932 157.304 187.677 161.548C185.656 158.398 179.592 156.255 177.037 155.397C163.73 151.136 145.783 148.003 122.692 148.344C82.9322 148.931 66.9503 155.865 62.0778 161.397L61.1284 154.757Z" fill="#007FFF"/>
<path d="M65.567 174.646C56.3629 171.232 42.7376 152.358 61.8689 104.173C70.6443 82.0707 83.2476 67.1617 95.8912 57.403C98.4388 55.5168 105.112 51.842 111.423 52.2321C114.991 52.4527 123.14 55.6973 131.272 59.3574C130.436 59.4442 129.628 59.5332 128.857 59.6181C126.061 59.9261 123.747 60.181 122.271 60.0914C115.959 59.7083 109.286 63.3166 106.739 65.1687C94.0953 74.7508 81.4919 89.3899 72.7166 111.092C56.8235 150.397 63.5366 169.84 71.5413 177.217L65.567 174.646Z" fill="#FF1100"/>
<path d="M73.4564 178.431C64.2523 174.98 50.627 155.901 69.7584 107.193C78.5337 84.851 91.137 69.7802 103.781 59.9156C106.328 58.0089 113.001 54.2941 119.313 54.6885C122.068 54.8607 127.554 56.8553 133.654 59.4586C131.376 58.6947 129.481 58.2088 128.188 58.1274C121.877 57.7302 115.204 61.4715 112.656 63.3919C100.012 73.3271 87.409 88.5059 78.6337 111.008C59.5024 160.065 73.57 178.659 82.7741 182.135L90.6633 184.837L73.4564 178.431Z" fill="#FDBF41"/>
<path d="M80.8516 181.726C71.6475 178.238 58.0221 158.954 77.1535 109.722C85.9288 87.1401 98.5321 71.9074 111.176 61.9368C113.723 60.0097 120.396 56.255 126.708 56.6536C129.559 56.8337 135.337 58.9872 141.693 61.7537C139.544 61.0677 137.755 60.634 136.518 60.5542C130.207 60.1471 123.585 63.5203 121.037 65.4884C108.394 75.6709 95.7903 91.2273 87.015 114.289C70.6795 157.219 82.0007 178.267 90.1692 185.328L80.8516 181.726Z" fill="#F1ECE2"/>
<path d="M85.043 112.441C65.9117 162.021 79.537 181.442 88.7411 184.954L93.088 186.323C93.0047 186.24 92.9216 186.155 92.8387 186.069C99.5145 187.162 108.661 182.629 117.289 173.951C118.521 172.723 113.119 174.745 111.372 176.486C107.18 179.924 100.91 181.645 95.0171 179.173C81.72 173.596 81.4442 144.22 94.4012 113.561C107.358 82.9022 127.162 63.0611 140.459 68.6388C142.237 69.3844 144.096 70.7793 145.64 71.8526C149.209 75.0388 150.818 79.2939 150.818 90.2739V76.7272C151.754 78.1194 152.544 79.68 153.159 81.4316C153.283 84.379 155.255 89.2913 155.863 84.1333C155.404 72.8799 150.524 66.3387 143.935 62.4338L143.966 62.4357C144.213 62.4516 144.403 62.4571 144.568 62.4618C145.197 62.4799 145.452 62.4873 147.069 63.0234C141.903 60.7578 139.075 59.7036 135.975 59.5848C128.715 59.3065 120.279 63.5387 117.731 65.4795C105.088 75.5207 93.8183 89.6988 85.043 112.441Z" fill="#007FFF"/>
<path d="M126.831 169.291C165.417 168.185 181.513 161.41 186.808 155.892L187.312 160.515L187.553 160.275C187.711 160.8 187.768 161.988 187.527 163.082C186.854 167.793 172.833 180.007 118.522 180.007C116.539 180.007 114.65 179.984 112.852 179.939C116.898 176.336 120.349 172.794 123.308 169.365C124.469 169.349 125.643 169.325 126.831 169.291Z" fill="#007FFF"/>
</g>
<defs>
<clipPath id="clip0_3001_2617">
<rect width="240" height="240" rx="120" fill="white"/>
</clipPath>
</defs>
</svg>
