<svg width="32" height="32" viewBox="0 0 32 32" fill="none" xmlns="http://www.w3.org/2000/svg">
<g clip-path="url(#clip0_2045_388)">
<rect width="32" height="32" rx="16" fill="url(#paint0_linear_2045_388)"/>
<path d="M10.7369 6.82823C10.6261 6.89143 10.4599 6.98608 10.4846 6.98608H10.4849C10.6998 7.1079 10.9092 7.22595 11.1152 7.34212C11.5829 7.60591 12.0311 7.85869 12.4764 8.1163C12.9656 8.39946 13.4539 8.68423 13.942 8.96874C14.5734 9.33687 15.205 9.70501 15.8383 10.0699C15.9021 10.1068 16.0198 10.114 16.0811 10.0793C16.5942 9.78917 17.1035 9.49203 17.6128 9.19516C17.7618 9.1083 17.9108 9.02144 18.0598 8.93459C18.2523 8.82245 18.4448 8.71032 18.6374 8.59818C19.1088 8.32336 19.5802 8.0488 20.0529 7.77613C20.26 7.65701 20.4686 7.54003 20.677 7.42306C20.8747 7.31227 21.0723 7.20121 21.2689 7.08854C21.4286 6.99711 21.4208 6.9686 21.2509 6.86938C20.9656 6.70319 20.6816 6.53512 20.4001 6.36302C20.1091 6.18554 19.788 6.14118 19.4976 6.29687C18.7275 6.71018 17.9635 7.13452 17.1993 7.55912C16.8171 7.77129 16.4353 7.98346 16.0524 8.19428C16.0072 8.21929 15.9292 8.23623 15.8905 8.21445C15.421 7.95092 14.9528 7.68551 14.4844 7.4201C13.8476 7.05923 13.2108 6.69835 12.5714 6.34232C12.2729 6.17586 11.9486 6.13929 11.6321 6.31489C11.4035 6.44154 11.1776 6.57277 10.9515 6.704C10.899 6.73439 10.8466 6.76477 10.7942 6.79516C10.7786 6.8043 10.7587 6.8156 10.7366 6.82796L10.7369 6.82823Z" fill="url(#paint1_linear_2045_388)"/>
<path d="M15.9784 10.5451C15.8434 10.5451 15.7125 10.5096 15.6173 10.4547C14.9985 10.0981 14.3765 9.73566 13.7736 9.3842L13.7481 9.37774L13.6967 9.33929C13.224 9.06366 12.7354 8.77889 12.2543 8.5003C11.8141 8.24564 11.3734 7.99691 10.9071 7.73391L10.8974 7.72854C10.6971 7.61559 10.4932 7.5005 10.2846 7.38245C10.173 7.32652 10.0867 7.22487 10.0533 7.09875C10.0342 7.02642 9.99227 6.7766 10.2577 6.59697C10.2792 6.58245 10.3058 6.56551 10.3416 6.54427C10.3954 6.512 10.4599 6.47516 10.5129 6.44504L10.5172 6.44262C10.5395 6.42998 10.5578 6.41949 10.5726 6.41089L10.7409 6.31328C10.9611 6.18554 11.1889 6.05351 11.4175 5.92659C11.8448 5.68968 12.3318 5.69963 12.7884 5.95455C13.4292 6.31166 14.0764 6.67845 14.7027 7.03314L14.7116 7.03825C15.1193 7.26924 15.5393 7.50722 15.9556 7.74144C16.3046 7.54891 16.6496 7.35717 16.9847 7.17109C17.7371 6.75321 18.515 6.32107 19.2887 5.90588C19.6998 5.68538 20.1892 5.71415 20.6319 5.98413C20.8852 6.13876 21.1611 6.30279 21.4749 6.48565C21.59 6.5526 21.8293 6.69217 21.8282 6.98662C21.8272 7.27973 21.5825 7.4201 21.4905 7.4728C21.2904 7.5879 21.0893 7.70057 20.8949 7.80948L20.8854 7.81459C20.6843 7.92726 20.4767 8.0437 20.275 8.16013C19.8047 8.43146 19.3312 8.70736 18.8727 8.97438L18.8611 8.98111C18.6686 9.09324 18.4758 9.20564 18.2832 9.31778C18.1343 9.40437 17.9855 9.49122 17.8368 9.57781L17.8245 9.58507C17.3273 9.87495 16.8136 10.1748 16.3 10.4652C16.2013 10.5211 16.0887 10.5445 15.9784 10.5445V10.5451ZM14.1343 8.56726L14.166 8.58581C14.7554 8.92948 15.3637 9.28417 15.969 9.63348C16.4466 9.36215 16.9252 9.08302 17.3894 8.81223L17.4017 8.80497C17.5467 8.72054 17.6916 8.63583 17.8368 8.55139C18.0256 8.44168 18.2141 8.33169 18.4026 8.22198L18.4142 8.21526C18.877 7.94554 19.3554 7.66696 19.8316 7.39213C20.0411 7.27139 20.2543 7.152 20.4603 7.03637L20.4697 7.03126C20.5004 7.01405 20.5316 6.99657 20.5625 6.97909C20.4251 6.89734 20.2947 6.81855 20.1693 6.74218C19.9951 6.6357 19.8397 6.61768 19.7079 6.6884C18.9402 7.10037 18.1649 7.53089 17.4155 7.94743C17.0422 8.15475 16.6566 8.36907 16.2672 8.58339C16.1223 8.6638 15.8792 8.71704 15.674 8.60168C15.2075 8.33976 14.7342 8.07166 14.2768 7.81217L14.2641 7.80491C13.6397 7.45102 12.9941 7.08531 12.3565 6.72981C12.1078 6.59106 11.9472 6.64807 11.848 6.70292C11.6885 6.79139 11.5275 6.88363 11.3688 6.97533C11.8278 7.23428 12.2627 7.4798 12.6991 7.73203C13.1783 8.00954 13.6642 8.2927 14.1345 8.56699L14.1343 8.56726ZM16.1083 7.82776C16.1083 7.82776 16.1083 7.82776 16.1086 7.82776C16.1086 7.82776 16.1086 7.82776 16.1083 7.82776Z" fill="url(#paint2_linear_2045_388)"/>
<path d="M15.169 21.5152C15.1671 21.7604 15.1655 22.0056 15.1655 22.2509L15.1647 22.2514H15.1717C15.1717 22.5045 15.1728 22.7575 15.1738 23.0105C15.1768 23.6785 15.1795 24.3462 15.1623 25.0134C15.1558 25.2626 15.2502 25.3896 15.4398 25.4926C15.4723 25.51 15.5046 25.5278 15.5369 25.5455C15.6482 25.6066 15.7593 25.6676 15.8746 25.7195C15.9263 25.7424 16.0061 25.7483 16.054 25.7238C16.1376 25.6816 16.2183 25.6337 16.299 25.5859C16.3874 25.5334 16.4759 25.4807 16.5679 25.4358C16.7198 25.3619 16.7609 25.2608 16.765 25.0924C16.7827 24.3279 16.7738 23.5632 16.765 22.7984C16.7496 21.4826 16.7346 20.1671 16.8543 18.8538C16.8728 18.6497 16.8951 18.441 16.9548 18.2466C17.0938 17.7921 17.2447 17.3404 17.4125 16.8959C17.7223 16.0754 18.1993 15.3561 18.7665 14.6903C19.3473 14.0083 20.0155 13.4345 20.7902 12.9849C21.0624 12.8268 21.3345 12.6684 21.6064 12.51H21.6072V12.5094C22.0676 12.2413 22.5277 11.9735 22.9886 11.7065C23.773 11.252 24.5579 10.7987 25.3445 10.3474C25.438 10.2934 25.4867 10.2522 25.4867 10.1175C25.4832 10.0183 25.484 9.91879 25.4848 9.81956C25.4859 9.69048 25.487 9.56114 25.4786 9.4326C25.4738 9.36242 25.4181 9.27368 25.3587 9.23361C25.1979 9.12551 25.0255 9.03247 24.8505 8.94803C24.7876 8.91791 24.6859 8.89801 24.6329 8.92786C24.1962 9.17553 23.7628 9.4283 23.329 9.68107C23.1088 9.80934 22.8885 9.93761 22.668 10.0653C22.4341 10.2009 22.1991 10.3348 21.9643 10.4684C21.5136 10.7252 21.0632 10.982 20.619 11.2499L20.5676 11.2811C20.0319 11.6043 19.4938 11.9291 18.9934 12.3024C18.3878 12.7544 17.8584 13.2947 17.3835 13.8884C16.8419 14.5652 16.3743 15.283 16.0416 16.0854C16.0295 16.1144 15.9889 16.1507 15.9639 16.1491C15.9375 16.1475 15.9082 16.1074 15.8918 16.0778C15.884 16.0636 15.8816 16.0461 15.8789 16.0284C15.8768 16.012 15.8744 15.9953 15.8676 15.9813C15.4635 15.1439 14.977 14.3593 14.3658 13.6555C13.5244 12.6861 12.5281 11.9221 11.4027 11.3007C10.5029 10.8038 9.61661 10.2821 8.73056 9.76067C8.26185 9.48477 7.79288 9.20887 7.32202 8.93647C7.26313 8.90259 7.15906 8.89506 7.09937 8.92356C6.91947 9.01042 6.74522 9.11206 6.58172 9.22689C6.51853 9.27126 6.45937 9.3643 6.45399 9.43932C6.43732 9.66628 6.4357 9.89674 6.45426 10.124C6.46206 10.2194 6.52552 10.3047 6.59409 10.345C6.8958 10.523 7.20074 10.6962 7.50569 10.8691C7.73883 11.0014 7.9717 11.1337 8.2035 11.2682C8.55281 11.4709 8.90051 11.6764 9.24847 11.8815C9.83873 12.23 10.429 12.5783 11.0262 12.9147C12.0559 13.4942 12.9019 14.2783 13.5978 15.2187C14.273 16.1316 14.732 17.1594 14.9805 18.2665C15.0908 18.7564 15.14 19.2668 15.1572 19.7697C15.1771 20.3505 15.1728 20.9322 15.1685 21.5138L15.169 21.5152Z" fill="url(#paint3_linear_2045_388)"/>
<path d="M15.9776 26.1831C15.8687 26.1831 15.7676 26.1578 15.6942 26.125C15.5613 26.0653 15.4403 25.9989 15.3234 25.9346L15.3 25.9217C15.2763 25.9086 15.2524 25.8957 15.2284 25.8827C14.8748 25.6907 14.7081 25.4027 14.7186 25.0018C14.7358 24.3406 14.7328 23.6653 14.7299 23.0122C14.7288 22.7583 14.7277 22.5047 14.7277 22.2509H15.0614L14.7218 22.2506C14.7218 22.0089 14.7237 21.7639 14.7253 21.527V21.5117C14.7296 20.9448 14.7339 20.3586 14.7143 19.7858C14.6955 19.244 14.6411 18.779 14.5481 18.3646C14.3098 17.3024 13.8702 16.3333 13.2415 15.4833C12.5579 14.5596 11.7396 13.8257 10.8092 13.3022C10.2087 12.9642 9.60747 12.6092 9.02609 12.2661L9.01479 12.2594C8.67624 12.0596 8.32639 11.853 7.98138 11.6527C7.75066 11.5188 7.5151 11.3851 7.28733 11.2558L7.28437 11.2542C6.984 11.0837 6.67342 10.9073 6.36928 10.7279C6.16841 10.6099 6.03153 10.3923 6.01271 10.1608C5.99335 9.92228 5.99308 9.66897 6.0119 9.40786C6.0275 9.20054 6.15147 8.98756 6.3276 8.86413C6.50777 8.73721 6.703 8.62292 6.9071 8.5245C7.0991 8.43227 7.35456 8.44383 7.5436 8.55247C8.01849 8.82702 8.495 9.10749 8.9559 9.37882C9.82501 9.89028 10.7232 10.419 11.6175 10.9129C12.8518 11.5946 13.8605 12.3968 14.7011 13.3654C15.1736 13.9094 15.5912 14.516 15.9687 15.2071C16.2503 14.6809 16.6039 14.1538 17.0376 13.6117C17.5741 12.941 18.127 12.3965 18.7283 11.9474C19.2462 11.561 19.8015 11.2259 20.3385 10.9016L20.3898 10.8707C20.8378 10.6007 21.2971 10.3388 21.7414 10.0855L21.7449 10.0836C21.9745 9.95267 22.2122 9.81741 22.4459 9.68188C22.6661 9.55442 22.8861 9.42642 23.1058 9.29815C23.5339 9.0486 23.9755 8.79126 24.414 8.54252C24.623 8.42447 24.8758 8.4683 25.0427 8.5487C25.2598 8.65331 25.444 8.75684 25.6061 8.86575C25.7806 8.98326 25.907 9.19865 25.9213 9.40222C25.931 9.54823 25.9296 9.68753 25.9285 9.82225C25.9277 9.91583 25.9269 10.0116 25.9301 10.1022V10.1178C25.9301 10.5217 25.6658 10.6744 25.5663 10.732C24.8655 11.1337 24.1174 11.565 23.2107 12.0905C22.7595 12.3519 22.3088 12.6143 21.8581 12.8768L21.8293 12.8934C21.5572 13.0518 21.285 13.2102 21.0126 13.3686C20.3059 13.779 19.6638 14.3205 19.1039 14.978C18.5075 15.6785 18.0899 16.357 17.8272 17.0526C17.6731 17.4611 17.5263 17.894 17.3786 18.3767C17.3316 18.5295 17.3127 18.7086 17.2958 18.8941C17.1783 20.1846 17.1936 21.5106 17.2084 22.7927C17.2173 23.5494 17.2262 24.3309 17.2084 25.1029C17.2054 25.232 17.196 25.6241 16.7615 25.8351C16.6867 25.8717 16.6085 25.918 16.5259 25.9672C16.4388 26.0188 16.3506 26.0712 16.2538 26.1202C16.164 26.1654 16.068 26.1828 15.9773 26.1828L15.9776 26.1831ZM15.7781 25.172C15.841 25.2064 15.9018 25.2395 15.9617 25.2699C15.9972 25.2495 16.0335 25.228 16.0709 25.2059C16.1519 25.1578 16.2339 25.1091 16.3221 25.0634C16.339 24.3131 16.3302 23.5462 16.3215 22.8043C16.3065 21.499 16.2909 20.1499 16.4124 18.8142C16.4329 18.5897 16.4587 18.3509 16.5305 18.1172C16.6838 17.6168 16.8365 17.1664 16.9973 16.7399C17.2966 15.9472 17.7648 15.1829 18.4287 14.4034C19.0542 13.669 19.7735 13.0629 20.5673 12.6019C20.8357 12.446 21.1038 12.29 21.3719 12.1338L21.4117 12.1107C21.8629 11.8479 22.3141 11.5852 22.7659 11.3236C23.638 10.8183 24.3638 10.3996 25.0406 10.0113C25.0401 9.94353 25.0406 9.87764 25.0411 9.81687C25.0419 9.72652 25.0425 9.6402 25.0401 9.55711C24.9484 9.49956 24.8459 9.44255 24.73 9.38447C24.3361 9.60901 23.9389 9.84053 23.5535 10.0651C23.3322 10.1941 23.1115 10.3227 22.8907 10.4507C22.6543 10.5876 22.4155 10.7236 22.1845 10.8554L22.181 10.8573C21.7414 11.1079 21.2869 11.3669 20.8486 11.6312L20.7975 11.6621C20.2785 11.9754 19.742 12.2992 19.2594 12.6592C18.7194 13.0623 18.2195 13.5555 17.7306 14.1667C17.1552 14.8858 16.737 15.5693 16.452 16.2567C16.3775 16.4358 16.1766 16.6089 15.9359 16.5933C15.7585 16.5823 15.6046 16.4761 15.5041 16.294C15.4691 16.2303 15.4538 16.1712 15.446 16.1295C15.0324 15.2816 14.5696 14.5679 14.0313 13.9478C13.26 13.0594 12.3302 12.3209 11.1886 11.6906C10.2838 11.1907 9.37997 10.6591 8.50629 10.1449C8.07631 9.8919 7.63288 9.63106 7.19214 9.37532C7.08807 9.42991 6.9875 9.48988 6.89177 9.55415C6.88316 9.71011 6.8829 9.86178 6.89123 10.0062C7.16686 10.1678 7.44921 10.3281 7.72296 10.4835L7.72538 10.4848C7.9553 10.6153 8.19274 10.7502 8.42696 10.886C8.77466 11.088 9.12585 11.2953 9.46575 11.4959L9.48511 11.5075C10.0619 11.8479 10.6557 12.1983 11.2446 12.5299C12.2847 13.1153 13.1966 13.9317 13.9549 14.9565C14.6575 15.9063 15.1483 16.9878 15.414 18.171C15.5194 18.6397 15.5804 19.1584 15.6011 19.7562C15.6213 20.3473 15.617 20.9429 15.6127 21.5189V21.5342C15.6119 21.6246 15.6114 21.716 15.6106 21.808H15.6151V22.2517C15.6151 22.5042 15.6162 22.7567 15.6173 23.0089C15.6202 23.6686 15.6232 24.3505 15.6057 25.0252C15.6052 25.051 15.6065 25.0671 15.6079 25.0758C15.6149 25.0811 15.628 25.0903 15.6512 25.1029C15.6794 25.1182 15.7079 25.1338 15.7364 25.1494L15.7775 25.172H15.7781ZM15.4683 16.1744C15.4683 16.1744 15.4691 16.176 15.4694 16.1765C15.4691 16.1757 15.4686 16.1749 15.4683 16.1744ZM6.81997 9.96343C6.81997 9.96343 6.82158 9.96423 6.82239 9.96477C6.82158 9.96423 6.82078 9.96369 6.81997 9.96343ZM6.84122 9.5883C6.84122 9.5883 6.83906 9.58991 6.83772 9.59072C6.83879 9.58991 6.83987 9.58911 6.84122 9.5883Z" fill="url(#paint4_linear_2045_388)"/>
<path d="M19.9365 23.4919C19.916 23.5435 19.8929 21.0386 19.9491 19.8455C20.0015 18.7298 20.3966 17.7193 21.1183 16.8388C21.6093 16.2403 22.2259 15.8232 22.8815 15.4435C23.1117 15.3101 23.3416 15.1767 23.5718 15.0434L23.5734 15.0425C24.1685 14.6975 24.7639 14.3525 25.3595 14.0083C25.3765 13.9984 25.3966 13.9941 25.4251 13.9876C25.4281 13.9868 25.4313 13.9863 25.4348 13.9855C25.4609 13.9796 25.4862 13.9992 25.4862 14.0258C25.4862 14.1328 25.4873 14.2391 25.4881 14.3442C25.4905 14.6494 25.4926 14.9482 25.48 15.2466C25.4735 15.3964 25.4292 15.5658 25.3442 15.6847C25.2345 15.838 25.082 15.9748 24.9207 16.0735C24.6668 16.229 24.4084 16.3774 24.15 16.5258C23.7652 16.7469 23.3806 16.9677 23.0112 17.2113C22.3569 17.6429 21.9261 18.2616 21.6857 19.0151C21.5682 19.3824 21.5214 19.7514 21.526 20.1335C21.5289 20.396 21.5276 20.6584 21.526 20.9209C21.5244 21.2296 21.5228 21.5385 21.5281 21.8473C21.537 22.3571 21.0051 22.8573 20.8707 22.9508C20.8145 22.9901 20.7755 23.0186 20.7429 23.0428C20.612 23.1391 20.5818 23.1614 19.9367 23.4911H19.9362L19.9365 23.4919Z" fill="url(#paint5_linear_2045_388)"/>
<path d="M20.2866 23.8119C20.2473 23.8307 20.2065 23.8536 20.1683 23.8756C20.0701 23.9324 19.9545 23.9504 19.8437 23.9267H19.8418C19.787 23.9146 19.5127 23.838 19.489 23.494C19.4874 23.472 19.486 23.44 19.4844 23.3986C19.482 23.3254 19.4796 23.223 19.4774 23.0942C19.4731 22.8253 19.4705 22.476 19.4699 22.1105C19.4694 21.6641 19.4715 20.5474 19.5054 19.8245C19.5621 18.6144 19.9894 17.5152 20.7749 16.5573C21.3351 15.8743 22.0415 15.4169 22.6586 15.0595L23.3486 14.6596C23.9453 14.3135 24.541 13.9685 25.1366 13.6243C25.2122 13.5805 25.2818 13.5649 25.3281 13.5547C25.4493 13.5275 25.5779 13.5429 25.6854 13.6055C25.8384 13.6945 25.9285 13.8529 25.9291 14.0253C25.9291 14.1315 25.9301 14.2366 25.931 14.3412V14.3431C25.9334 14.6448 25.9358 14.9565 25.9226 15.266C25.9119 15.5177 25.8323 15.7646 25.7043 15.9434C25.5642 16.1392 25.3679 16.3201 25.1517 16.4524C24.8905 16.6122 24.6259 16.7641 24.3699 16.9112C23.9962 17.1258 23.6119 17.3465 23.2545 17.5824C22.7111 17.9408 22.3252 18.4687 22.1074 19.1506C22.0097 19.4559 21.9646 19.7759 21.9686 20.1292C21.9716 20.3986 21.9702 20.6657 21.9686 20.9241V20.9273C21.967 21.2274 21.9654 21.5377 21.9708 21.8403C21.9834 22.5666 21.3055 23.1888 21.1232 23.3158C21.0726 23.351 21.0376 23.3768 21.0067 23.3997C20.8586 23.5088 20.8034 23.5454 20.2874 23.8103C20.2866 23.8105 20.286 23.8114 20.2858 23.8119H20.2866ZM25.046 14.7024C24.6289 14.9439 24.2124 15.1853 23.7958 15.4268L23.1039 15.8278C22.5279 16.1612 21.9304 16.5487 21.4614 17.1204C20.7997 17.9274 20.4399 18.8514 20.3923 19.8665C20.3565 20.6272 20.3538 21.958 20.3613 22.7666C20.4122 22.736 20.4407 22.7153 20.4799 22.6862C20.5152 22.6604 20.5568 22.6295 20.6171 22.5876C20.7314 22.5061 21.0893 22.1307 21.0847 21.8556C21.0791 21.5431 21.0809 21.2277 21.0826 20.9225V20.919C21.0839 20.6641 21.0852 20.4008 21.0826 20.1389C21.0774 19.689 21.1363 19.2773 21.2633 18.8804C21.544 18.0003 22.0501 17.3143 22.767 16.8413C23.1472 16.5904 23.5436 16.3626 23.9271 16.1424C24.1798 15.9972 24.4391 15.8485 24.6894 15.6952C24.8048 15.6245 24.9121 15.5266 24.9839 15.4265C25.007 15.3943 25.0336 15.3136 25.0374 15.2276C25.0446 15.0536 25.0468 14.8796 25.0468 14.7021L25.046 14.7024ZM25.5822 14.3923C25.5822 14.3923 25.5811 14.3929 25.5806 14.3931C25.5811 14.3929 25.5816 14.3926 25.5822 14.3923Z" fill="url(#paint6_linear_2045_388)"/>
<path d="M12.2632 23.4916C11.6181 23.1619 11.588 23.1399 11.457 23.0433C11.4245 23.0194 11.3855 22.9906 11.3293 22.9514C11.1948 22.8578 10.6629 22.3576 10.6718 21.8478C10.6772 21.5391 10.6756 21.2301 10.674 20.9214C10.6726 20.6589 10.6713 20.3965 10.674 20.134C10.6785 19.7517 10.6317 19.383 10.5142 19.0157C10.2738 18.2622 9.84303 17.6434 9.18878 17.2118C8.8193 16.9682 8.43476 16.7472 8.04995 16.5264C7.79153 16.3779 7.53311 16.2295 7.27927 16.0741C7.11792 15.9754 6.96545 15.8385 6.85574 15.6852C6.77076 15.5664 6.72612 15.3967 6.71994 15.2472C6.7073 14.949 6.70945 14.6502 6.71187 14.345C6.71268 14.2396 6.71348 14.1334 6.71375 14.0263C6.71375 13.9997 6.7393 13.9804 6.76511 13.986C6.76834 13.9868 6.77157 13.9874 6.77479 13.9882C6.8033 13.9946 6.82347 13.9989 6.84041 14.0089C7.43604 14.3531 8.0314 14.6981 8.62649 15.0431L8.6281 15.0439C8.85829 15.1773 9.08821 15.3106 9.31839 15.444C9.97372 15.8235 10.5906 16.2408 11.0816 16.8394C11.8036 17.7198 12.1984 18.7303 12.2508 19.846C12.307 21.0392 12.2839 23.5441 12.2635 23.4924H12.2629L12.2632 23.4916Z" fill="url(#paint7_linear_2045_388)"/>
<path d="M11.9136 23.8119C11.9136 23.8119 11.9128 23.8105 11.912 23.8103C11.396 23.5454 11.3408 23.5088 11.1927 23.3997C11.1617 23.3768 11.1265 23.351 11.0762 23.3158C10.8939 23.1888 10.216 22.5666 10.2286 21.8403C10.234 21.5377 10.2324 21.2274 10.2308 20.9273V20.9241C10.2294 20.6657 10.2278 20.3984 10.2308 20.1292C10.2348 19.7759 10.1894 19.4559 10.092 19.1506C9.87449 18.4684 9.48861 17.9408 8.94488 17.5824C8.5875 17.3465 8.20323 17.1258 7.82945 16.9112C7.57345 16.7644 7.30885 16.6122 7.04774 16.4524C6.83153 16.3201 6.63523 16.1392 6.49513 15.9434C6.36713 15.7646 6.28753 15.5177 6.27678 15.266C6.2636 14.9565 6.26602 14.6448 6.26844 14.3431V14.3412C6.26925 14.2366 6.27006 14.1315 6.27032 14.0253C6.27059 13.8532 6.36095 13.6945 6.51395 13.6055C6.62152 13.5431 6.75006 13.5278 6.87133 13.5547C6.91758 13.5649 6.98723 13.5805 7.06279 13.6243C7.65869 13.9685 8.25405 14.3138 8.85076 14.6596L9.54078 15.0595C10.1579 15.4169 10.8646 15.8743 11.4245 16.5573C12.21 17.5152 12.637 18.6144 12.694 19.8245C12.7279 20.5474 12.73 21.6639 12.7295 22.1105C12.7289 22.4757 12.7263 22.825 12.722 23.0942C12.7198 23.223 12.7174 23.3254 12.715 23.3986C12.7136 23.44 12.712 23.4723 12.7104 23.494C12.687 23.838 12.4124 23.9143 12.3576 23.9262H12.3557C12.2449 23.9501 12.1293 23.9321 12.0311 23.8753C11.9929 23.8533 11.9521 23.8304 11.9128 23.8116L11.9136 23.8119ZM7.16364 15.2278C7.1674 15.3136 7.19402 15.3943 7.21715 15.4268C7.28868 15.5269 7.39597 15.6247 7.5116 15.6955C7.76195 15.8487 8.02118 15.9974 8.27395 16.1426C8.65742 16.3629 9.05379 16.5906 9.43402 16.8415C10.1512 17.3145 10.657 18.0008 10.9378 18.8807C11.0647 19.2778 11.1238 19.6895 11.1185 20.1391C11.1155 20.4011 11.1168 20.6643 11.1185 20.9193V20.9227C11.1201 21.2277 11.1217 21.5434 11.1163 21.8559C11.1115 22.1309 11.4696 22.5063 11.5839 22.5878C11.6442 22.6298 11.6859 22.6607 11.7211 22.6865C11.7603 22.7156 11.7888 22.7363 11.8397 22.7669C11.8472 21.9586 11.8445 20.6278 11.8087 19.8667C11.7611 18.8516 11.4013 17.9277 10.7396 17.1207C10.2709 16.549 9.67308 16.1615 9.09708 15.828L8.40518 15.4271C7.98864 15.1856 7.57211 14.9441 7.15503 14.7026C7.15503 14.8804 7.15718 15.0544 7.16444 15.2281L7.16364 15.2278ZM6.61964 14.3931C6.61964 14.3931 6.61856 14.3926 6.61802 14.3923C6.61856 14.3926 6.6191 14.3929 6.61964 14.3931Z" fill="url(#paint8_linear_2045_388)"/>
<g style="mix-blend-mode:plus-darker" filter="url(#filter0_f_2045_388)">
<path d="M1.67468 21.3761C1.56389 21.4393 1.39771 21.5339 1.42245 21.5339H1.42272C1.63757 21.6557 1.84705 21.7738 2.05303 21.89C2.52066 22.1538 2.96893 22.4065 3.41424 22.6642C3.90339 22.9473 4.39172 23.2321 4.87979 23.5166C5.51118 23.8847 6.14285 24.2529 6.77612 24.6178C6.83986 24.6546 6.95764 24.6619 7.01895 24.6272C7.53202 24.337 8.04133 24.0399 8.55064 23.743C8.69962 23.6562 8.84859 23.5693 8.99757 23.4824C9.19011 23.3703 9.38264 23.2582 9.57518 23.146C10.0466 22.8712 10.518 22.5967 10.9907 22.324C11.1978 22.2049 11.4064 22.0879 11.6148 21.9709C11.8125 21.8601 12.0101 21.7491 12.2067 21.6364C12.3664 21.545 12.3586 21.5165 12.1887 21.4172C11.9034 21.251 11.6194 21.083 11.3379 20.9109C11.0469 20.7334 10.7258 20.689 10.4354 20.8447C9.66527 21.258 8.9013 21.6824 8.13706 22.107C7.75495 22.3191 7.3731 22.5313 6.99017 22.7421C6.945 22.7671 6.86702 22.7841 6.82829 22.7623C6.35878 22.4988 5.89061 22.2334 5.42218 21.968C4.7854 21.6071 4.14863 21.2462 3.50917 20.8902C3.21068 20.7237 2.88638 20.6871 2.56987 20.8627C2.3413 20.9894 2.11542 21.1206 1.88927 21.2519C1.83683 21.2822 1.7844 21.3126 1.73196 21.343C1.71636 21.3522 1.69646 21.3634 1.67441 21.3758L1.67468 21.3761Z" fill="white"/>
<path d="M6.91622 25.0929C6.78123 25.0929 6.65028 25.0574 6.55508 25.0026C5.93633 24.646 5.31434 24.2835 4.71145 23.9321L4.68591 23.9256L4.63455 23.8871C4.16181 23.6115 3.6732 23.3267 3.19213 23.0482C2.75192 22.7935 2.31119 22.5448 1.8449 22.2818L1.83522 22.2764C1.63488 22.1634 1.43105 22.0484 1.22238 21.9303C1.11078 21.8744 1.02446 21.7727 0.991119 21.6466C0.972027 21.5743 0.930077 21.3245 1.19549 21.1448C1.217 21.1303 1.24362 21.1134 1.27939 21.0921C1.33317 21.0599 1.39771 21.023 1.45068 20.9929L1.45498 20.9905C1.4773 20.9778 1.49559 20.9673 1.51038 20.9587L1.67872 20.8611C1.89895 20.7334 2.12671 20.6014 2.35529 20.4744C2.78258 20.2375 3.26957 20.2475 3.72618 20.5024C4.36698 20.8595 5.01424 21.2263 5.64053 21.581L5.6494 21.5861C6.05707 21.8171 6.4771 22.0551 6.89337 22.2893C7.24241 22.0968 7.58742 21.905 7.92248 21.7189C8.67488 21.3011 9.45283 20.8689 10.2265 20.4537C10.6376 20.2332 11.127 20.262 11.5697 20.532C11.823 20.6866 12.0989 20.8506 12.4127 21.0335C12.5278 21.1005 12.7671 21.24 12.766 21.5345C12.765 21.8276 12.5203 21.968 12.4283 22.0207C12.2282 22.1357 12.0271 22.2484 11.8327 22.3573L11.8232 22.3624C11.6221 22.4751 11.4145 22.5915 11.2128 22.708C10.7425 22.9793 10.269 23.2552 9.81048 23.5222L9.79891 23.529C9.60637 23.6411 9.41357 23.7535 9.22103 23.8656C9.07206 23.9522 8.92335 24.0391 8.77464 24.1257L8.76227 24.1329C8.26506 24.4228 7.75145 24.7226 7.23784 25.0131C7.13915 25.069 7.02648 25.0924 6.91622 25.0924V25.0929ZM5.07206 23.1151L5.10379 23.1337C5.69323 23.4773 6.3015 23.832 6.90681 24.1813C7.38439 23.91 7.86305 23.6309 8.32718 23.3601L8.33955 23.3528C8.48449 23.2684 8.62943 23.1837 8.77464 23.0992C8.96342 22.9895 9.15192 22.8795 9.34042 22.7698L9.35199 22.7631C9.81478 22.4934 10.2932 22.2148 10.7694 21.94C10.9789 21.8192 11.1921 21.6998 11.3981 21.5842L11.4075 21.5791C11.4382 21.5619 11.4694 21.5444 11.5003 21.5269C11.3629 21.4452 11.2325 21.3664 11.1071 21.29C10.9329 21.1835 10.7775 21.1655 10.6457 21.2363C9.87797 21.6482 9.10271 22.0787 8.35327 22.4953C7.98002 22.7026 7.59441 22.9169 7.20503 23.1312C7.06009 23.2116 6.817 23.2649 6.61182 23.1495C6.14527 22.8876 5.67199 22.6195 5.21458 22.36L5.20194 22.3528C4.57754 21.9989 3.93189 21.6332 3.29431 21.2777C3.04557 21.1389 2.88503 21.1959 2.78581 21.2508C2.62635 21.3392 2.46527 21.4315 2.30661 21.5232C2.76564 21.7821 3.20046 22.0276 3.6369 22.2799C4.11609 22.5574 4.60201 22.8406 5.07233 23.1148L5.07206 23.1151ZM7.04611 22.3756C7.04611 22.3756 7.04611 22.3756 7.04638 22.3756C7.04638 22.3756 7.04638 22.3756 7.04611 22.3756Z" fill="white"/>
<path d="M6.10681 36.063C6.10493 36.3082 6.10332 36.5535 6.10332 36.7987L6.10251 36.7993H6.1095C6.1095 37.0523 6.11058 37.3054 6.11165 37.5584C6.11461 38.2264 6.1173 38.8941 6.10009 39.5612C6.09364 39.8105 6.18802 39.9374 6.3776 40.0404C6.41014 40.0579 6.44241 40.0756 6.47468 40.0934C6.58601 40.1544 6.69707 40.2155 6.81243 40.2674C6.86406 40.2902 6.94392 40.2961 6.99179 40.2717C7.07542 40.2295 7.15609 40.1816 7.23676 40.1337C7.32523 40.0813 7.4137 40.0286 7.50567 39.9837C7.6576 39.9097 7.69875 39.8086 7.70278 39.6403C7.72053 38.8758 7.71165 38.111 7.70278 37.3462C7.68745 36.0305 7.67239 34.715 7.79206 33.4016C7.81061 33.1975 7.83293 32.9889 7.89263 32.7944C8.03165 32.34 8.18251 31.8882 8.35031 31.4437C8.66009 30.6233 9.13713 29.9039 9.70426 29.2381C10.2851 28.5562 10.9533 27.9823 11.7281 27.5327C12.0002 27.3746 12.2723 27.2162 12.5442 27.0578H12.545V27.0573C13.0054 26.7892 13.4655 26.5214 13.9264 26.2543C14.7108 25.7999 15.4957 25.3465 16.2823 24.8953C16.3758 24.8412 16.4245 24.8001 16.4245 24.6654C16.421 24.5661 16.4218 24.4666 16.4226 24.3674C16.4237 24.2383 16.4248 24.109 16.4165 23.9805C16.4116 23.9103 16.3559 23.8215 16.2965 23.7815C16.1357 23.6734 15.9633 23.5803 15.7883 23.4959C15.7254 23.4658 15.6237 23.4459 15.5707 23.4757C15.134 23.7234 14.7006 23.9762 14.2668 24.2289C14.0466 24.3572 13.8263 24.4855 13.6058 24.6132C13.3719 24.7487 13.1369 24.8826 12.9021 25.0163C12.4514 25.2731 12.001 25.5299 11.5568 25.7977L11.5054 25.8289C10.9697 26.1522 10.4317 26.477 9.93121 26.8502C9.32564 27.3023 8.79616 27.8425 8.32127 28.4362C7.77969 29.1131 7.31206 29.8308 6.97942 30.6332C6.96732 30.6623 6.92671 30.6986 6.9017 30.697C6.87535 30.6953 6.84604 30.6553 6.82964 30.6257C6.82184 30.6114 6.81942 30.594 6.81673 30.5762C6.81458 30.5598 6.81216 30.5431 6.80544 30.5292C6.40127 29.6918 5.91481 28.9071 5.30359 28.2034C4.46218 27.234 3.46587 26.47 2.3405 25.8486C1.44073 25.3516 0.554414 24.8299 -0.331636 24.3085C-0.800342 24.0326 -1.26932 23.7567 -1.74017 23.4843C-1.79906 23.4504 -1.90313 23.4429 -1.96283 23.4714C-2.14273 23.5583 -2.31698 23.6599 -2.48048 23.7747C-2.54367 23.8191 -2.60283 23.9122 -2.60821 23.9872C-2.62488 24.2141 -2.62649 24.4446 -2.60794 24.6718C-2.60014 24.7673 -2.53668 24.8525 -2.46811 24.8929C-2.16639 25.0709 -1.86145 25.244 -1.55651 25.417C-1.32337 25.5493 -1.09049 25.6816 -0.858695 25.816C-0.509384 26.0188 -0.161687 26.2242 0.186279 26.4294C0.776531 26.7779 1.36678 27.1261 1.96403 27.4625C2.99367 28.042 3.83966 28.8262 4.53559 29.7665C5.21081 30.6795 5.66984 31.7072 5.91831 32.8143C6.02856 33.3043 6.07777 33.8147 6.09498 34.3175C6.11488 34.8984 6.11058 35.48 6.10628 36.0617L6.10681 36.063Z" fill="white"/>
<path d="M6.91542 40.731C6.80651 40.731 6.7054 40.7057 6.63199 40.6729C6.49915 40.6132 6.37814 40.5468 6.26117 40.4825L6.23777 40.4696C6.21411 40.4564 6.19018 40.4435 6.16624 40.4306C5.81263 40.2386 5.64591 39.9506 5.65639 39.5497C5.6736 38.8884 5.67065 38.2132 5.66769 37.56C5.66661 37.3062 5.66554 37.0526 5.66554 36.7987H5.99925L5.65962 36.7985C5.65962 36.5567 5.6615 36.3117 5.66312 36.0748V36.0595C5.66742 35.4926 5.67172 34.9064 5.65209 34.3337C5.63327 33.7918 5.57895 33.3269 5.48591 32.9125C5.24765 31.8503 4.80799 30.8812 4.17929 30.0311C3.49572 29.1074 2.67744 28.3736 1.74702 27.85C1.14655 27.512 0.545271 27.1571 -0.0361072 26.8139L-0.0474012 26.8072C-0.385956 26.6074 -0.735804 26.4009 -1.08081 26.2006C-1.31153 26.0666 -1.5471 25.933 -1.77486 25.8036L-1.77782 25.802C-2.07819 25.6315 -2.38878 25.4551 -2.69291 25.2758C-2.89379 25.1577 -3.03066 24.9402 -3.04948 24.7087C-3.06884 24.4701 -3.06911 24.2168 -3.05029 23.9557C-3.03469 23.7484 -2.91073 23.5354 -2.73459 23.412C-2.55442 23.2851 -2.3592 23.1708 -2.1551 23.0724C-1.9631 22.9801 -1.70764 22.9917 -1.51859 23.1003C-1.0437 23.3749 -0.567199 23.6553 -0.106292 23.9267C0.762817 24.4381 1.66097 24.9668 2.55535 25.4608C3.78964 26.1425 4.79831 26.9446 5.63891 27.9132C6.11139 28.4572 6.529 29.0639 6.90654 29.755C7.18809 29.2287 7.5417 28.7017 7.97545 28.1595C8.51192 27.4889 9.0648 26.9444 9.66607 26.4953C10.184 26.1089 10.7393 25.7738 11.2763 25.4495L11.3277 25.4186C11.7757 25.1486 12.2349 24.8867 12.6792 24.6334L12.6827 24.6315C12.9123 24.5005 13.15 24.3653 13.3837 24.2297C13.604 24.1023 13.8239 23.9743 14.0436 23.846C14.4717 23.5965 14.9133 23.3391 15.3518 23.0904C15.5608 22.9723 15.8136 23.0162 15.9806 23.0966C16.1976 23.2012 16.3818 23.3047 16.5439 23.4136C16.7184 23.5311 16.8448 23.7465 16.8591 23.9501C16.8688 24.0961 16.8674 24.2354 16.8663 24.3701C16.8655 24.4637 16.8647 24.5594 16.8679 24.65V24.6656C16.8679 25.0695 16.6036 25.2223 16.5041 25.2798C15.8033 25.6816 15.0552 26.1129 14.1485 26.6383C13.6973 26.8997 13.2466 27.1622 12.7959 27.4246L12.7671 27.4413C12.495 27.5997 12.2228 27.7581 11.9504 27.9165C11.2438 28.3268 10.6016 28.8684 10.0417 29.5259C9.4453 30.2264 9.02769 30.9048 8.76496 31.6005C8.61088 32.009 8.46406 32.4419 8.31643 32.9246C8.26937 33.0773 8.25054 33.2564 8.2336 33.442C8.11609 34.7324 8.13142 36.0584 8.14621 37.3406C8.15508 38.0973 8.16396 38.8787 8.14621 39.6508C8.14325 39.7798 8.13384 40.1719 7.69928 40.383C7.62453 40.4196 7.54628 40.4658 7.46372 40.515C7.37659 40.5667 7.28839 40.6191 7.19159 40.668C7.10177 40.7132 7.00577 40.7307 6.91515 40.7307L6.91542 40.731ZM6.71589 39.7199C6.77881 39.7543 6.83959 39.7874 6.89955 39.8178C6.93505 39.7973 6.97135 39.7758 7.00873 39.7538C7.08967 39.7056 7.17169 39.6569 7.25989 39.6112C7.27683 38.861 7.26796 38.0941 7.25935 37.3521C7.24429 36.0469 7.2287 34.6978 7.35024 33.3621C7.37068 33.1376 7.39649 32.8988 7.46829 32.6651C7.62157 32.1647 7.77431 31.7142 7.93512 31.2877C8.23441 30.495 8.70258 29.7308 9.36651 28.9512C9.99199 28.2168 10.7113 27.6107 11.5051 27.1498C11.7735 26.9938 12.0416 26.8379 12.3097 26.6816L12.3495 26.6585C12.8007 26.3958 13.252 26.1331 13.7037 25.8714C14.5758 25.3661 15.3016 24.9474 15.9784 24.5591C15.9779 24.4914 15.9784 24.4255 15.9789 24.3647C15.9797 24.2744 15.9803 24.1881 15.9779 24.105C15.8862 24.0474 15.7837 23.9904 15.6678 23.9323C15.2739 24.1569 14.8767 24.3884 14.4913 24.6129C14.27 24.742 14.0493 24.8705 13.8285 24.9985C13.5921 25.1354 13.3533 25.2715 13.1223 25.4032L13.1188 25.4051C12.6792 25.6557 12.2247 25.9147 11.7864 26.179L11.7353 26.21C11.2163 26.5232 10.6799 26.847 10.1972 27.2071C9.6572 27.6102 9.1573 28.1033 8.66843 28.7146C8.09296 29.4336 7.67481 30.1172 7.38977 30.8045C7.31528 30.9836 7.11441 31.1568 6.87374 31.1412C6.69626 31.1302 6.54244 31.0239 6.44187 30.8419C6.40691 30.7782 6.39159 30.719 6.38379 30.6773C5.97021 29.8295 5.50742 29.1158 4.96907 28.4957C4.19784 27.6072 3.26796 26.8688 2.12645 26.2385C1.22157 25.7386 0.317775 25.2069 -0.555905 24.6928C-0.985888 24.4397 -1.42932 24.1789 -1.87006 23.9232C-1.97412 23.9778 -2.07469 24.0377 -2.17043 24.102C-2.17903 24.258 -2.1793 24.4096 -2.17096 24.554C-1.89533 24.7156 -1.61298 24.8759 -1.33923 25.0313L-1.33681 25.0327C-1.1069 25.1631 -0.869451 25.2981 -0.635233 25.4339C-0.287536 25.6358 0.0636576 25.8432 0.403557 26.0438L0.422918 26.0553C0.999724 26.3958 1.59347 26.7462 2.18238 27.0777C3.22251 27.6631 4.13438 28.4795 4.8927 29.5044C5.59535 30.4541 6.08611 31.5357 6.35179 32.7189C6.4572 33.1876 6.51824 33.7063 6.53895 34.3041C6.55912 34.8951 6.55481 35.4908 6.55051 36.0668V36.0821C6.5497 36.1724 6.54917 36.2639 6.54836 36.3558H6.55293V36.7995C6.55293 37.052 6.55401 37.3045 6.55508 37.5568C6.55804 38.2164 6.561 38.8984 6.54352 39.573C6.54298 39.5989 6.54433 39.615 6.54567 39.6236C6.55266 39.629 6.56584 39.6381 6.58897 39.6508C6.6172 39.6661 6.6457 39.6817 6.67421 39.6973L6.71535 39.7199H6.71589ZM6.40611 30.7222C6.40611 30.7222 6.40691 30.7238 6.40718 30.7244C6.40691 30.7236 6.40638 30.7228 6.40611 30.7222ZM-2.24222 24.5113C-2.24222 24.5113 -2.24061 24.5121 -2.2398 24.5126C-2.24061 24.5121 -2.24142 24.5115 -2.24222 24.5113ZM-2.22098 24.1362C-2.22098 24.1362 -2.22313 24.1378 -2.22448 24.1386C-2.2234 24.1378 -2.22232 24.137 -2.22098 24.1362Z" fill="white"/>
<path d="M10.8743 38.0397C10.8538 38.0914 10.8307 35.5865 10.8869 34.3934C10.9393 33.2777 11.3344 32.2671 12.0561 31.3867C12.5471 30.7881 13.1638 30.371 13.8193 29.9913C14.0495 29.858 14.2794 29.7246 14.5096 29.5912L14.5112 29.5904C15.1063 29.2454 15.7017 28.9004 16.2973 28.5562C16.3143 28.5462 16.3344 28.5419 16.3629 28.5355C16.3659 28.5347 16.3691 28.5341 16.3726 28.5333C16.3987 28.5274 16.424 28.547 16.424 28.5737C16.424 28.6807 16.4251 28.7869 16.4259 28.892C16.4283 29.1973 16.4304 29.496 16.4178 29.7945C16.4113 29.9443 16.367 30.1137 16.282 30.2326C16.1723 30.3858 16.0198 30.5227 15.8585 30.6214C15.6046 30.7768 15.3462 30.9253 15.0878 31.0737C14.703 31.2947 14.3184 31.5155 13.949 31.7591C13.2947 32.1907 12.8639 32.8095 12.6235 33.563C12.506 33.9303 12.4592 34.2992 12.4638 34.6814C12.4667 34.9438 12.4654 35.2063 12.4638 35.4687C12.4622 35.7774 12.4606 36.0864 12.4659 36.3951C12.4748 36.905 11.9429 37.4051 11.8085 37.4987C11.7523 37.538 11.7133 37.5665 11.6807 37.5907C11.5498 37.6869 11.5197 37.7093 10.8745 38.0389H10.874L10.8743 38.0397Z" fill="white"/>
<path d="M11.2244 38.3597C11.1851 38.3786 11.1443 38.4014 11.1061 38.4235C11.0079 38.4802 10.8923 38.4982 10.7815 38.4746H10.7796C10.7248 38.4625 10.4505 38.3858 10.4268 38.0419C10.4252 38.0198 10.4239 37.9878 10.4222 37.9464C10.4198 37.8733 10.4174 37.7708 10.4152 37.642C10.4109 37.3731 10.4083 37.0238 10.4077 36.6584C10.4072 36.212 10.4093 35.0952 10.4432 34.3724C10.5 33.1623 10.9272 32.063 11.7127 31.1052C12.2729 30.4221 12.9793 29.9647 13.5964 29.6073L14.2864 29.2075C14.8831 28.8614 15.4788 28.5164 16.0744 28.1722C16.15 28.1284 16.2196 28.1128 16.2659 28.1025C16.3871 28.0754 16.5157 28.0907 16.6232 28.1534C16.7763 28.2424 16.8663 28.4008 16.8669 28.5731C16.8669 28.6793 16.868 28.7845 16.8688 28.8891V28.891C16.8712 29.1927 16.8736 29.5043 16.8604 29.8139C16.8497 30.0656 16.7701 30.3124 16.6421 30.4912C16.502 30.687 16.3057 30.868 16.0895 31.0003C15.8284 31.16 15.5637 31.3119 15.3077 31.459C14.934 31.6736 14.5497 31.8944 14.1923 32.1302C13.6489 32.4887 13.263 33.0165 13.0452 33.6985C12.9475 34.0037 12.9024 34.3237 12.9064 34.6771C12.9094 34.9465 12.908 35.2135 12.9064 35.4719V35.4752C12.9048 35.7753 12.9032 36.0856 12.9086 36.3881C12.9212 37.1144 12.2433 37.7367 12.061 37.8636C12.0104 37.8988 11.9754 37.9246 11.9445 37.9475C11.7964 38.0567 11.7412 38.0933 11.2252 38.3581C11.2244 38.3584 11.2239 38.3592 11.2236 38.3597H11.2244ZM15.9838 29.2502C15.5667 29.4917 15.1502 29.7332 14.7336 29.9747L14.0417 30.3756C13.4657 30.7091 12.8682 31.0965 12.3992 31.6682C11.7375 32.4752 11.3777 33.3992 11.3301 34.4143C11.2943 35.1751 11.2916 36.5059 11.2991 37.3145C11.35 37.2838 11.3785 37.2631 11.4177 37.2341C11.453 37.2083 11.4946 37.1774 11.5549 37.1354C11.6692 37.0539 12.0271 36.6785 12.0225 36.4034C12.0169 36.091 12.0187 35.7755 12.0204 35.4703V35.4668C12.0217 35.2119 12.023 34.9486 12.0204 34.6867C12.0152 34.2369 12.0741 33.8252 12.2011 33.4282C12.4818 32.5481 12.9879 31.8621 13.7048 31.3891C14.085 31.1382 14.4814 30.9105 14.8649 30.6902C15.1176 30.545 15.3769 30.3963 15.6272 30.243C15.7426 30.1723 15.8499 30.0744 15.9217 29.9744C15.9448 29.9421 15.9714 29.8615 15.9752 29.7754C15.9824 29.6014 15.9846 29.4274 15.9846 29.25L15.9838 29.2502ZM16.52 28.9402C16.52 28.9402 16.5189 28.9407 16.5184 28.941C16.5189 28.9407 16.5194 28.9405 16.52 28.9402Z" fill="white"/>
<path d="M3.201 38.0395C2.55589 37.7098 2.52577 37.6877 2.39482 37.5912C2.36228 37.5673 2.32329 37.5385 2.26708 37.4992C2.13263 37.4057 1.60073 36.9055 1.60961 36.3956C1.61498 36.0869 1.61337 35.778 1.61176 35.4693C1.61041 35.2068 1.60907 34.9443 1.61176 34.6819C1.61633 34.2995 1.56954 33.9308 1.45203 33.5635C1.21162 32.81 0.780834 32.1913 0.126582 31.7597C-0.242897 31.516 -0.627435 31.295 -1.01224 31.0742C-1.27066 30.9258 -1.52908 30.7774 -1.78293 30.6219C-1.94427 30.5232 -2.09674 30.3864 -2.20646 30.2331C-2.29143 30.1142 -2.33607 29.9446 -2.34226 29.795C-2.3549 29.4968 -2.35274 29.1981 -2.35032 28.8929C-2.34952 28.7874 -2.34871 28.6812 -2.34844 28.5742C-2.34844 28.5476 -2.3229 28.5282 -2.29708 28.5339C-2.29385 28.5347 -2.29063 28.5352 -2.2874 28.536C-2.2589 28.5425 -2.23873 28.5468 -2.22179 28.5567C-1.62616 28.9009 -1.0308 29.2459 -0.435704 29.5909L-0.43409 29.5917C-0.203905 29.7251 0.0260105 29.8585 0.256195 29.9919C0.911523 30.3713 1.5284 30.7887 2.01942 31.3872C2.74144 32.2676 3.13619 33.2782 3.18863 34.3939C3.24483 35.587 3.22171 38.0919 3.20127 38.0403H3.20073L3.201 38.0395Z" fill="white"/>
<path d="M2.85142 38.3597C2.85142 38.3597 2.85061 38.3584 2.84981 38.3581C2.33377 38.0933 2.27865 38.0567 2.13048 37.9475C2.09956 37.9246 2.06433 37.8988 2.01404 37.8636C1.83172 37.7367 1.15381 37.1144 1.16645 36.3881C1.17182 36.0856 1.17021 35.7753 1.1686 35.4752V35.4719C1.16725 35.2135 1.16564 34.9462 1.1686 34.6771C1.17263 34.3237 1.12719 34.0037 1.02984 33.6985C0.812296 33.0163 0.426413 32.4887 -0.117317 32.1302C-0.474695 31.8944 -0.858964 31.6736 -1.23275 31.459C-1.48874 31.3122 -1.75335 31.16 -2.01446 31.0003C-2.23066 30.868 -2.42696 30.687 -2.56706 30.4912C-2.69506 30.3124 -2.77466 30.0656 -2.78542 29.8139C-2.79859 29.5043 -2.79617 29.1927 -2.79375 28.891V28.8891C-2.79295 28.7845 -2.79214 28.6793 -2.79187 28.5731C-2.7916 28.401 -2.70125 28.2424 -2.54824 28.1534C-2.44068 28.091 -2.31214 28.0756 -2.19086 28.1025C-2.14461 28.1128 -2.07496 28.1284 -1.9994 28.1722C-1.4035 28.5164 -0.80814 28.8617 -0.211435 29.2075L0.478582 29.6073C1.09572 29.9647 1.80241 30.4221 2.36228 31.1052C3.14776 32.063 3.57478 33.1623 3.63179 34.3724C3.66567 35.0952 3.66782 36.2117 3.66729 36.6584C3.66675 37.0235 3.66406 37.3728 3.65976 37.642C3.6576 37.7708 3.65518 37.8733 3.65276 37.9464C3.65142 37.9878 3.64981 38.0201 3.64819 38.0419C3.6248 38.3858 3.35024 38.4622 3.29539 38.474H3.2935C3.18271 38.498 3.06708 38.4799 2.96893 38.4232C2.93075 38.4012 2.88987 38.3783 2.85061 38.3595L2.85142 38.3597ZM-1.89856 29.7757C-1.8948 29.8615 -1.86817 29.9421 -1.84505 29.9747C-1.77352 30.0747 -1.66622 30.1726 -1.55059 30.2433C-1.30024 30.3966 -1.04101 30.5453 -0.788241 30.6905C-0.404779 30.9107 -0.00840978 31.1385 0.371825 31.3894C1.089 31.8624 1.59482 32.5487 1.87556 33.4285C2.00248 33.8257 2.06164 34.2374 2.05626 34.687C2.0533 34.9489 2.05465 35.2122 2.05626 35.4671V35.4706C2.05787 35.7755 2.05949 36.0912 2.05411 36.4037C2.04927 36.6788 2.40745 37.0542 2.52174 37.1357C2.58198 37.1776 2.62366 37.2085 2.65888 37.2344C2.69814 37.2634 2.72665 37.2841 2.77747 37.3148C2.785 36.5064 2.78231 35.1756 2.74655 34.4146C2.69895 33.3995 2.33915 32.4755 1.67737 31.6685C1.20867 31.0968 0.610884 30.7093 0.0348844 30.3759L-0.657014 29.9749C-1.07355 29.7335 -1.49009 29.492 -1.90716 29.2505C-1.90716 29.4282 -1.90501 29.6022 -1.89775 29.7759L-1.89856 29.7757ZM-2.44256 28.941C-2.44256 28.941 -2.44364 28.9405 -2.44417 28.9402C-2.44364 28.9405 -2.4431 28.9407 -2.44256 28.941Z" fill="white"/>
</g>
</g>
<defs>
<filter id="filter0_f_2045_388" x="-29.7721" y="-6.40417" width="73.3506" height="73.843" filterUnits="userSpaceOnUse" color-interpolation-filters="sRGB">
<feFlood flood-opacity="0" result="BackgroundImageFix"/>
<feBlend mode="normal" in="SourceGraphic" in2="BackgroundImageFix" result="shape"/>
<feGaussianBlur stdDeviation="13.3539" result="effect1_foregroundBlur_2045_388"/>
</filter>
<linearGradient id="paint0_linear_2045_388" x1="9.34667" y1="37.92" x2="29.7467" y2="-3.56" gradientUnits="userSpaceOnUse">
<stop stop-color="#0D0D0D"/>
<stop offset="1" stop-color="#202020"/>
</linearGradient>
<linearGradient id="paint1_linear_2045_388" x1="15.9654" y1="5.75586" x2="21.3392" y2="25.5474" gradientUnits="userSpaceOnUse">
<stop stop-color="#ED6A20"/>
<stop offset="1" stop-color="#C4FEFA"/>
</linearGradient>
<linearGradient id="paint2_linear_2045_388" x1="15.9654" y1="5.75586" x2="21.3392" y2="25.5474" gradientUnits="userSpaceOnUse">
<stop stop-color="#ED6A20"/>
<stop offset="1" stop-color="#C4FEFA"/>
</linearGradient>
<linearGradient id="paint3_linear_2045_388" x1="15.9654" y1="5.75586" x2="21.3392" y2="25.5474" gradientUnits="userSpaceOnUse">
<stop stop-color="#ED6A20"/>
<stop offset="1" stop-color="#C4FEFA"/>
</linearGradient>
<linearGradient id="paint4_linear_2045_388" x1="15.9654" y1="5.75586" x2="21.3392" y2="25.5474" gradientUnits="userSpaceOnUse">
<stop stop-color="#ED6A20"/>
<stop offset="1" stop-color="#C4FEFA"/>
</linearGradient>
<linearGradient id="paint5_linear_2045_388" x1="15.9654" y1="5.75586" x2="21.3392" y2="25.5474" gradientUnits="userSpaceOnUse">
<stop stop-color="#ED6A20"/>
<stop offset="1" stop-color="#C4FEFA"/>
</linearGradient>
<linearGradient id="paint6_linear_2045_388" x1="15.9654" y1="5.75586" x2="21.3392" y2="25.5474" gradientUnits="userSpaceOnUse">
<stop stop-color="#ED6A20"/>
<stop offset="1" stop-color="#C4FEFA"/>
</linearGradient>
<linearGradient id="paint7_linear_2045_388" x1="15.9654" y1="5.75586" x2="21.3392" y2="25.5474" gradientUnits="userSpaceOnUse">
<stop stop-color="#ED6A20"/>
<stop offset="1" stop-color="#C4FEFA"/>
</linearGradient>
<linearGradient id="paint8_linear_2045_388" x1="15.9654" y1="5.75586" x2="21.3392" y2="25.5474" gradientUnits="userSpaceOnUse">
<stop stop-color="#ED6A20"/>
<stop offset="1" stop-color="#C4FEFA"/>
</linearGradient>
<clipPath id="clip0_2045_388">
<rect width="32" height="32" rx="16" fill="white"/>
</clipPath>
</defs>
</svg>
