<svg width="32" height="32" viewBox="0 0 32 32" fill="none" xmlns="http://www.w3.org/2000/svg">
<path d="M0 16C0 7.16344 7.16344 0 16 0C24.8366 0 32 7.16344 32 16C32 24.8366 24.8366 32 16 32C7.16344 32 0 24.8366 0 16Z" fill="white"/>
<path d="M25 16C25 20.9706 20.9706 25 16 25C11.0294 25 7 20.9706 7 16C7 11.0294 11.0294 7 16 7C20.9706 7 25 11.0294 25 16Z" fill="#68686D"/>
<path fill-rule="evenodd" clip-rule="evenodd" d="M15.1122 10.8608C13.5335 11.1553 12.1895 12.1794 11.4961 13.6164C11.1041 14.4289 10.9987 14.9041 10.9998 15.8546C11.0005 16.5573 11.0196 16.7213 11.1525 17.1624C11.4331 18.0945 12.0089 19.0381 12.6142 19.558L12.8786 19.7851L11.9193 19.7855L10.96 19.7858V20.5032V21.2206H12.9072H14.8545L14.851 20.2306L14.8476 19.2406L14.3785 19.0162C13.7211 18.7015 13.1335 18.1114 12.7966 17.4272C12.2828 16.3842 12.2828 15.2676 12.7966 14.2246C13.2309 13.3428 14.0755 12.6407 15.055 12.3473C15.5232 12.207 16.4769 12.2068 16.9415 12.3469C17.5911 12.5428 18.0603 12.8265 18.5547 13.3227C19.1031 13.873 19.3745 14.3794 19.526 15.1347C19.6905 15.9552 19.5445 16.8766 19.1354 17.5993C18.7718 18.2413 17.9742 18.9422 17.3602 19.1591L17.1454 19.235V20.2278V21.2206H19.0927H21.04V20.5032V19.7858H20.103H19.1661L19.5746 19.3697C21.0452 17.8719 21.4471 15.6343 20.5869 13.7332C19.6516 11.6663 17.3283 10.4473 15.1122 10.8608Z" fill="white"/>
<path fill-rule="evenodd" clip-rule="evenodd" d="M11.855 3.38361C13.3455 2.89369 14.9385 2.66969 16.5164 2.73017C18.0946 2.79065 19.6582 3.13593 21.1132 3.74393C22.5686 4.35193 23.9154 5.22297 25.0678 6.29753C26.5919 7.71929 27.7753 9.49753 28.485 11.4867C29.1951 13.4761 29.4316 15.6764 29.1577 17.7711C28.8841 19.8659 28.1001 21.8553 26.9142 23.566C25.7282 25.2767 24.1401 26.7084 22.2748 27.7004C20.4095 28.6921 18.2665 29.2438 16.1542 29.2758C14.0418 29.3078 11.9599 28.8204 10.0953 27.895C8.23095 26.9695 6.58359 25.6063 5.33271 23.9036C4.08183 22.2009 3.22743 20.1587 2.88823 18.0748C2.54903 15.9907 2.72503 13.8646 3.37495 11.8812C3.86615 10.3817 4.62839 8.96409 5.60503 7.73561H4.12055V5.28185H9.93719V10.7135H7.48343V9.22937C6.68343 10.2355 6.05879 11.3967 5.65655 12.6255C5.12439 14.2511 4.98103 15.9951 5.25655 17.6969C5.59895 19.8137 6.58903 21.8649 8.06679 23.4457C9.83447 25.3363 12.2998 26.5542 14.8662 26.8207C17.4322 27.0873 20.0994 26.4028 22.2175 24.9286C24.3356 23.4543 25.9052 21.1903 26.5423 18.6899C27.1794 16.1894 26.8841 13.4524 25.7353 11.142C24.5865 8.83161 22.5839 6.94841 20.1894 5.95897C17.7948 4.96921 15.0079 4.87385 12.6041 5.66361L11.855 3.38361Z" fill="url(#paint0_linear_406_420920)"/>
<defs>
<linearGradient id="paint0_linear_406_420920" x1="2.04365" y1="13.297" x2="15.2224" y2="29.5764" gradientUnits="userSpaceOnUse">
<stop stop-color="#004CFF"/>
<stop offset="0.252131" stop-color="#00E0FB"/>
<stop offset="0.505709" stop-color="#87FF70"/>
<stop offset="0.755054" stop-color="#F8F500"/>
<stop offset="1" stop-color="#FF1A00"/>
</linearGradient>
</defs>
</svg>
