<svg xmlns="http://www.w3.org/2000/svg" width="32" height="32" viewBox="0 0 32 32">
  <defs>
    <linearGradient id="crv-a" x1="50%" x2="50%" y1="0%" y2="100%">
      <stop offset="0%" stop-color="#FF1A00"/>
      <stop offset="24.495%" stop-color="#F8F500"/>
      <stop offset="49.429%" stop-color="#87FF70"/>
      <stop offset="74.787%" stop-color="#00E0FB"/>
      <stop offset="100%" stop-color="#004CFF"/>
    </linearGradient>
  </defs>
  <g fill="none" fill-rule="evenodd">
    <polygon fill="url(#crv-a)" points="8.132 31.847 7.128 31.527 6.141 30.95 5.142 30.099 4.319 29.117 3.567 27.949 2.909 26.623 2.289 24.971 1.547 22.674 .86 20.121 .635 19.187 .299 17.176 .168 16.127 .022 14.17 .059 12.221 .299 10.298 .702 8.507 .967 7.382 1.547 5.786 2.25 4.483 3.786 2.4 4.664 1.645 5.624 .963 6.476 .535 7.692 .175 9.877 .024 11.74 .218 13.94 .661 16.389 1.379 18.971 2.301 21.55 3.4 21.796 3.483 24.29 4.724 26.489 6.072 28.196 7.458 28.653 7.786 30.256 9.606 30.612 10.184 31.452 12.125 31.693 12.871 31.857 13.683 31.926 14.514 31.926 15.421 31.86 16.214 31.536 17.836 31.318 18.557 31.048 19.187 30.673 19.823 30.256 20.347 29.822 20.705 28.594 21.374 27.158 21.86 25.088 22.403 23.089 22.892 20.688 23.466 18.934 23.945 18.271 24.104 16 24.826 14.93 25.235 14.464 25.406 14.331 26.056 14.056 26.855 13.811 27.534 13.543 28.115 12.902 29.326 12.118 30.332 11.271 31.078 10.097 31.693 9.104 31.886"/>
    <g fill-rule="nonzero" transform="translate(8.4)">
      <polygon fill="#FBF100" points="5.063 9.22 4.786 9.603 5.021 11.537 5.239 11.087"/>
      <polygon fill="#A40000" points="1.476 0 0 .09 .729 .351 2.023 .26"/>
      <polygon fill="#FFAE00" points="4.804 7.409 4.44 7.727 4.786 9.603 5.063 9.22"/>
      <polygon fill="#A80000" points="2.023 .26 .729 .351 1.459 .927 2.57 .824"/>
      <polygon fill="#FF7300" points="4.468 5.703 3.992 5.961 4.44 7.727 4.804 7.409"/>
      <polygon fill="#B60000" points="2.57 .824 1.458 .926 2.169 1.803 3.103 1.677"/>
      <polygon fill="#FF3F00" points="4.065 4.151 3.453 4.356 3.991 5.961 4.468 5.703"/>
      <polygon fill="#D60000" points="3.103 1.677 2.169 1.803 2.84 2.957 3.606 2.796"/>
      <polygon fill="#FF1300" points="3.605 2.796 2.84 2.957 3.453 4.356 4.065 4.151"/>
    </g>
    <g fill-rule="nonzero" transform="translate(13.94 .641)">
      <polygon fill="#16FFE1" points="2.497 14.643 1.216 14.912 1.154 16.356 2.484 16.008"/>
      <polygon fill="#4DFFAA" points="2.509 13.164 1.251 13.344 1.217 14.912 2.497 14.643"/>
      <polygon fill="#80FF77" points="2.518 11.608 1.257 11.691 1.252 13.344 2.509 13.164"/>
      <polygon fill="#B7FF40" points="2.523 10.017 1.232 9.998 1.256 11.691 2.517 11.608"/>
      <polygon fill="#EBFF0C" points="2.526 8.434 1.178 8.31 1.232 9.998 2.523 10.018"/>
      <polygon fill="#ED0400" points="2.449 .704 0 0 .183 .232 2.466 .91"/>
      <polygon fill="#FC0" points="2.526 6.901 1.096 6.673 1.178 8.31 2.527 8.434"/>
      <polygon fill="#F10800" points="2.466 .911 .183 .232 .365 .738 2.482 1.374"/>
      <polygon fill="#FF9800" points="2.523 5.462 .989 5.133 1.096 6.673 2.527 6.901"/>
      <polygon fill="#FF1300" points="2.482 1.373 .365 .737 .541 1.504 2.496 2.082"/>
      <polygon fill="#FF6C00" points="2.517 4.155 .858 3.733 .989 5.133 2.524 5.461"/>
      <polygon fill="#FF2900" points="2.496 2.082 .541 1.504 .707 2.512 2.507 3.018"/>
      <polygon fill="#FF4700" points="2.508 3.019 .708 2.513 .858 3.734 2.517 4.155"/>
    </g>
    <g fill-rule="nonzero" transform="translate(11.74 .186)">
      <polygon fill="#13FCE4" points="3.417 15.368 2.473 15.778 2.357 17.296 3.354 16.811"/>
      <polygon fill="#49FFAD" points="3.451 13.799 2.533 14.126 2.473 15.777 3.416 15.367"/>
      <polygon fill="#80FF77" points="3.456 12.146 2.473 12.384 2.533 14.126 3.451 13.799"/>
      <polygon fill="#BAFF3C" points="3.431 10.453 2.479 10.597 2.535 12.384 3.456 12.146"/>
      <polygon fill="#F1FC06" points="3.378 8.765 2.364 8.814 2.479 10.597 3.431 10.453"/>
      <polygon fill="#D10000" points="2.199 .455 0 0 .362 .25 2.382 .687"/>
      <polygon fill="#FFC100" points="3.296 7.128 2.195 7.083 2.364 8.813 3.378 8.764"/>
      <polygon fill="#D60000" points="2.383 .687 .362 .25 .724 .79 2.565 1.192"/>
      <polygon fill="#FF8900" points="3.189 5.588 1.976 5.453 2.196 7.083 3.296 7.128"/>
      <polygon fill="#E40000" points="2.565 1.192 .724 .79 1.076 1.606 2.741 1.959"/>
      <polygon fill="#FF5D00" points="3.058 4.188 1.71 3.97 1.975 5.453 3.188 5.588"/>
      <polygon fill="#FF1300" points="2.741 1.96 1.076 1.606 1.408 2.676 2.907 2.967"/>
      <polygon fill="#FF3400" points="2.907 2.967 1.408 2.676 1.71 3.97 3.057 4.188"/>
    </g>
    <g fill-rule="nonzero" transform="translate(16.389 1.346)">
      <polygon fill="#1CFFDB" points="1.596 13.814 .049 13.939 .036 15.304 1.624 15.097"/>
      <polygon fill="#50FFA7" points="1.587 12.427 .06 12.459 .049 13.938 1.595 13.813"/>
      <polygon fill="#80FF77" points="1.6 10.973 .07 10.903 .061 12.459 1.587 12.427"/>
      <polygon fill="#B4FF43" points="1.633 9.49 .075 9.312 .069 10.903 1.6 10.973"/>
      <polygon fill="#E4FF13" points="1.687 8.019 .078 7.729 .076 9.313 1.634 9.491"/>
      <polygon fill="gold" points="1.76 6.597 .078 6.196 .078 7.729 1.687 8.018"/>
      <polygon fill="#FF1E00" points="2.583 .924 0 0 .017 .206 2.453 1.099"/>
      <polygon fill="#FFA700" points="1.849 5.265 .075 4.756 .078 6.196 1.76 6.597"/>
      <polygon fill="#FF1E00" points="2.454 1.098 .018 .205 .034 .669 2.323 1.513"/>
      <polygon fill="#FF7E00" points="1.953 4.059 .068 3.45 .075 4.757 1.849 5.265"/>
      <polygon fill="#FF2900" points="2.323 1.513 .034 .669 .048 1.378 2.193 2.157"/>
      <polygon fill="#FF5900" points="2.068 3.014 .059 2.313 .068 3.45 1.952 4.059"/>
      <polygon fill="#FF3B00" points="2.193 2.157 .048 1.377 .06 2.313 2.069 3.013"/>
    </g>
    <g fill-rule="nonzero" transform="translate(12.353 15.454)">
      <polygon fill="#0CF" points="1.917 9.972 3.995 9.187 3.581 9.407 1.472 10.209"/>
      <polygon fill="#00DCFE" points="2.323 9.613 4.374 8.853 3.995 9.187 1.917 9.973"/>
      <polygon fill="#09F0EE" points="2.68 9.14 4.708 8.413 4.374 8.853 2.323 9.613"/>
      <polygon fill="#1CFFDB" points="2.979 8.565 4.989 7.88 4.708 8.414 2.68 9.14"/>
      <polygon fill="#33FFC4" points="3.213 7.901 5.208 7.264 4.989 7.88 2.98 8.565"/>
      <polygon fill="#4DFFAA" points="3.373 7.166 5.36 6.582 5.208 7.264 3.213 7.901"/>
      <polygon fill="#63FF94" points="3.457 6.378 5.44 5.852 5.36 6.582 3.373 7.166"/>
      <polygon fill="#7DFF7A" points="3.461 5.558 5.447 5.092 5.44 5.852 3.457 6.378"/>
      <polygon fill="#97FF60" points="3.384 4.727 5.378 4.322 5.446 5.092 3.46 5.558"/>
      <polygon fill="#B1FF46" points="3.229 3.907 5.238 3.563 5.379 4.322 3.384 4.727"/>
      <polygon fill="#C7FF30" points="2.999 3.119 5.027 2.834 5.238 3.563 3.229 3.907"/>
      <polygon fill="#DEFF19" points="2.7 2.386 4.752 2.155 5.027 2.834 2.998 3.12"/>
      <polygon fill="#FC0" points="0 .057 2.253 0 2.717 .075 .499 .138"/>
      <polygon fill="#F1FC06" points="2.34 1.726 4.421 1.545 4.753 2.155 2.7 2.386"/>
      <polygon fill="#FC0" points=".499 .138 2.717 .075 3.177 .273 .995 .353"/>
      <polygon fill="#FFEA00" points="1.928 1.157 4.041 1.018 4.421 1.544 2.34 1.726"/>
      <polygon fill="#FFD000" points=".995 .353 3.177 .273 3.622 .591 1.476 .695"/>
      <polygon fill="#FFDB00" points="1.476 .695 3.622 .591 4.04 1.018 1.928 1.157"/>
    </g>
    <g fill-rule="nonzero" transform="translate(9.877)">
      <polygon fill="#BEFF39" points="4.343 10.783 3.762 11.086 3.851 12.956 4.4 12.57"/>
      <polygon fill="#F8F500" points="4.229 9 3.587 9.22 3.763 11.086 4.343 10.783"/>
      <polygon fill="#B00" points="1.864 .186 0 0 .547 .26 2.226 .437"/>
      <polygon fill="#FFB900" points="4.059 7.269 3.328 7.409 3.587 9.22 4.229 9"/>
      <polygon fill="#BF0000" points="2.226 .437 .546 .261 1.094 .824 2.588 .977"/>
      <polygon fill="#FF7E00" points="3.839 5.639 2.992 5.703 3.327 7.409 4.059 7.269"/>
      <polygon fill="#CD0000" points="2.588 .977 1.094 .824 1.627 1.677 2.94 1.793"/>
      <polygon fill="#FF4E00" points="3.574 4.157 2.589 4.151 2.992 5.703 3.839 5.64"/>
      <polygon fill="#E80000" points="2.94 1.793 1.627 1.677 2.13 2.796 3.272 2.862"/>
      <polygon fill="#F20" points="3.271 2.862 2.13 2.797 2.589 4.151 3.574 4.157"/>
    </g>
    <g fill-rule="nonzero" transform="translate(12.524 16.612)">
      <polygon fill="#00D0FF" points=".462 9.263 2.152 8.455 1.746 8.815 .021 9.653"/>
      <polygon fill="#00E4F8" points=".848 8.748 2.509 7.982 2.151 8.456 .461 9.263"/>
      <polygon fill="#16FFE1" points="1.172 8.121 2.809 7.407 2.509 7.982 .849 8.748"/>
      <polygon fill="#2CFFCA" points="1.423 7.399 3.042 6.743 2.809 7.407 1.172 8.122"/>
      <polygon fill="#46FFB1" points="1.595 6.598 3.202 6.008 3.042 6.744 1.423 7.399"/>
      <polygon fill="#63FF94" points="1.683 5.738 3.286 5.22 3.202 6.008 1.595 6.597"/>
      <polygon fill="#7DFF7A" points="1.684 4.843 3.289 4.4 3.285 5.22 1.683 5.738"/>
      <polygon fill="#9AFF5D" points="1.598 3.937 3.212 3.569 3.289 4.4 1.684 4.844"/>
      <polygon fill="#B7FF40" points="1.426 3.042 3.057 2.749 3.212 3.569 1.598 3.937"/>
      <polygon fill="#D1FF26" points="1.173 2.182 2.827 1.962 3.057 2.749 1.426 3.041"/>
      <polygon fill="#E7FF0F" points=".845 1.381 2.529 1.228 2.828 1.962 1.173 2.182"/>
      <polygon fill="#FBF100" points=".45 .66 2.169 .568 2.529 1.228 .845 1.381"/>
      <polygon fill="#FFDB00" points="0 .039 1.757 0 2.169 .569 .45 .66"/>
    </g>
    <g fill-rule="nonzero" transform="translate(.411 5.385)">
      <polygon fill="#00B4FF" points=".96 16.728 1.247 17.661 .764 15.826 .467 14.854"/>
      <polygon fill="#16FFE1" points=".209 13.802 .475 14.888 .764 15.826 .448 13.924 0 12.336"/>
      <polygon fill="#56FFA0" points=".144 12.911 .449 13.924 .309 12.002 0 10.947"/>
      <polygon fill="#97FF60" points="0 10.947 .308 12.002 .35 10.109 .041 9.012"/>
      <polygon fill="#D4FF23" points=".042 9.012 .35 10.109 .574 8.293 .269 7.155"/>
      <polygon fill="gold" points=".268 7.155 .574 8.293 .977 6.601 .678 5.424"/>
      <polygon fill="#FF9400" points=".679 5.424 .977 6.601 1.551 5.079 1.263 3.867"/>
      <polygon fill="#FF5900" points="1.263 3.867 1.552 5.079 2.283 3.77 2.008 2.526"/>
      <polygon fill="#FF2500" points="2.008 2.526 2.283 3.77 3.155 2.711 2.897 1.441"/>
      <polygon fill="#C1FF36" points="14.399 11.362 14.428 12.436 14.613 14.409 14.587 13.379"/>
      <polygon fill="#DF0000" points="2.897 1.441 3.155 2.711 4.145 1.934 3.906 .643"/>
      <polygon fill="#FFEA00" points="14.021 9.365 14.058 10.482 14.429 12.436 14.399 11.362"/>
      <polygon fill="#B00" points="3.906 .643 4.145 1.934 5.228 1.462 5.01 .158"/>
      <polygon fill="#FFA700" points="13.46 7.442 13.508 8.602 14.058 10.482 14.021 9.365"/>
      <polygon fill="#9F0000" points="5.01 .157 5.227 1.461 6.373 1.311 6.179 0"/>
      <polygon fill="#FF6C00" points="12.731 5.648 12.794 6.846 13.509 8.602 13.46 7.443"/>
      <polygon fill="#920000" points="6.179 0 6.373 1.31 7.551 1.487 7.38 .178"/>
      <polygon fill="#FF3400" points="11.853 4.033 11.934 5.265 12.794 6.846 12.731 5.648"/>
      <polygon fill="#960000" points="7.38 .179 7.551 1.488 8.728 1.989 8.581 .689"/>
      <polygon fill="#F10800" points="10.85 2.643 10.951 3.905 11.934 5.265 11.853 4.033"/>
      <polygon fill="#A40000" points="8.581 .689 8.728 1.989 9.872 2.802 9.749 1.518"/>
      <polygon fill="#C40000" points="9.749 1.518 9.872 2.803 10.951 3.905 10.85 2.644"/>
    </g>
    <g fill-rule="nonzero" transform="translate(.146 4.124)">
      <polygon fill="#53FFA4" points=".147 13.096 .41 14.172 .266 12.209 0 11.107"/>
      <polygon fill="#97FF60" points="0 11.107 .266 12.208 .307 10.273 .04 9.146"/>
      <polygon fill="#D7FF1F" points=".04 9.146 .307 10.273 .534 8.416 .269 7.264"/>
      <polygon fill="#FFD300" points=".268 7.264 .533 8.416 .943 6.685 .682 5.509"/>
      <polygon fill="#FF9100" points=".682 5.51 .943 6.685 1.528 5.128 1.271 3.93"/>
      <polygon fill="#FF5200" points="1.272 3.93 1.528 5.128 2.273 3.787 2.024 2.57"/>
      <polygon fill="#FF1E00" points="2.024 2.57 2.274 3.787 3.162 2.702 2.921 1.468"/>
      <polygon fill="#D60000" points="2.921 1.468 3.162 2.702 4.171 1.904 3.941 .657"/>
      <polygon fill="#AD0000" points="3.941 .657 4.171 1.904 5.275 1.418 5.056 .162"/>
      <polygon fill="#FFA300" points="13.6 7.527 13.725 8.703 14.286 10.626 14.167 9.473"/>
      <polygon fill="#920000" points="5.056 .162 5.275 1.418 6.444 1.261 6.237 0"/>
      <polygon fill="#FF6400" points="12.862 5.71 12.996 6.91 13.725 8.704 13.6 7.527"/>
      <polygon fill="#840000" points="6.237 0 6.444 1.261 7.646 1.439 7.452 .178"/>
      <polygon fill="#FF2D00" points="11.974 4.075 12.118 5.294 12.996 6.91 12.862 5.71"/>
      <polygon fill="#890000" points="7.452 .178 7.645 1.439 8.847 1.95 8.666 .692"/>
      <polygon fill="#E40000" points="10.96 2.669 11.115 3.904 12.119 5.294 11.975 4.075"/>
      <polygon fill="#9B0000" points="8.666 .693 8.847 1.95 10.014 2.779 9.847 1.531"/>
      <polygon fill="#B00" points="9.847 1.531 10.014 2.779 11.115 3.905 10.96 2.669"/>
      <polygon fill="#13FCE4" points=".331 13.977 .474 15.063 .147 13.096 .002 12.002"/>
    </g>
    <g fill-rule="nonzero" transform="translate(.72 6.696)">
      <polygon fill="#19FFDE" points=".456 14.515 .733 15.367 .426 13.522 .14 12.614"/>
      <polygon fill="#56FFA0" points=".14 12.614 .426 13.522 .291 11.658 0 10.692"/>
      <polygon fill="#94FF63" points="0 10.692 .291 11.658 .332 9.823 .041 8.799"/>
      <polygon fill="#D1FF26" points=".042 8.799 .332 9.823 .551 8.063 .266 6.982"/>
      <polygon fill="#FFDB00" points=".266 6.982 .552 8.062 .944 6.423 .669 5.29"/>
      <polygon fill="#FF9C00" points=".669 5.29 .944 6.424 1.502 4.95 1.243 3.769"/>
      <polygon fill="#FF6000" points="1.243 3.769 1.503 4.951 2.214 3.684 1.975 2.46"/>
      <polygon fill="#FF3000" points="1.975 2.46 2.214 3.684 3.062 2.661 2.847 1.401"/>
      <polygon fill="#C1FF36" points="14.12 11.126 14.007 12.104 14.186 14.016 14.304 13.099"/>
      <polygon fill="#F10800" points="2.846 1.401 3.061 2.66 4.023 1.91 3.836 .623"/>
      <polygon fill="#FBF100" points="13.749 9.172 13.647 10.21 14.007 12.104 14.12 11.126"/>
      <polygon fill="#C80000" points="3.836 .623 4.023 1.91 5.074 1.455 4.919 .151"/>
      <polygon fill="#FFAE00" points="13.2 7.291 13.114 8.387 13.647 10.21 13.75 9.172"/>
      <polygon fill="#AD0000" points="4.919 .151 5.075 1.455 6.187 1.312 6.065 0"/>
      <polygon fill="#FF7300" points="12.485 5.536 12.42 6.686 13.113 8.388 13.2 7.292"/>
      <polygon fill="#A40000" points="6.065 0 6.187 1.311 7.331 1.485 7.242 .177"/>
      <polygon fill="#FF3F00" points="11.626 3.955 11.585 5.153 12.42 6.686 12.486 5.536"/>
      <polygon fill="#A40000" points="7.243 .177 7.331 1.486 8.474 1.974 8.42 .679"/>
      <polygon fill="#FF1300" points="10.643 2.594 10.631 3.834 11.585 5.153 11.625 3.955"/>
      <polygon fill="#B60000" points="8.42 .679 8.474 1.974 9.584 2.764 9.564 1.492"/>
      <polygon fill="#D10000" points="9.564 1.492 9.584 2.763 10.63 3.833 10.642 2.594"/>
      <polygon fill="#00BCFF" points=".938 16.351 1.2 17.148 .732 15.367 .456 14.515"/>
    </g>
    <g fill-rule="nonzero" transform="translate(1.01 8.007)">
      <polygon fill="#00C4FF" points=".91 15.837 1.113 16.468 .663 14.754 .442 14.055"/>
      <polygon fill="#1CFFDB" points=".442 14.056 .663 14.755 .369 12.981 .136 12.211"/>
      <polygon fill="#56FFA0" points=".135 12.21 .368 12.981 .239 11.189 0 10.347"/>
      <polygon fill="#94FF63" points="0 10.347 .239 11.19 .28 9.426 .041 8.511"/>
      <polygon fill="#CEFF29" points=".042 8.512 .28 9.426 .492 7.736 .261 6.751"/>
      <polygon fill="#00B0FF" points="13.342 18.049 13.08 18.608 12.575 20.048 12.817 19.548"/>
      <polygon fill="#FFE200" points=".261 6.751 .492 7.736 .871 6.163 .653 5.113"/>
      <polygon fill="#0CF4EB" points="13.705 16.38 13.427 17.005 13.08 18.608 13.343 18.049"/>
      <polygon fill="#FFA300" points=".653 5.112 .87 6.163 1.409 4.75 1.212 3.639"/>
      <polygon fill="#46FFB1" points="13.891 14.583 13.606 15.279 13.427 17.005 13.704 16.38"/>
      <polygon fill="#FF6C00" points="1.212 3.639 1.409 4.75 2.094 3.536 1.924 2.373"/>
      <polygon fill="#80FF77" points="13.896 12.705 13.609 13.475 13.605 15.279 13.891 14.584"/>
      <polygon fill="#FF3B00" points="1.923 2.373 2.094 3.536 2.909 2.556 2.771 1.349"/>
      <polygon fill="#BEFF39" points="13.717 10.792 13.436 11.638 13.609 13.474 13.896 12.704"/>
      <polygon fill="#FF1300" points="2.771 1.349 2.909 2.555 3.835 1.837 3.732 .598"/>
      <polygon fill="#F8F500" points="13.356 8.899 13.088 9.82 13.436 11.638 13.717 10.792"/>
      <polygon fill="#DA0000" points="3.733 .598 3.835 1.837 4.846 1.404 4.784 .143"/>
      <polygon fill="#FFB600" points="12.822 7.076 12.574 8.07 13.088 9.82 13.356 8.899"/>
      <polygon fill="#C40000" points="4.784 .144 4.846 1.404 5.916 1.269 5.896 0"/>
      <polygon fill="#FF7E00" points="12.129 5.374 11.908 6.436 12.575 8.07 12.823 7.076"/>
      <polygon fill="#B60000" points="5.897 0 5.916 1.269 7.015 1.438 7.04 .174"/>
      <polygon fill="#FF4A00" points="11.294 3.842 11.104 4.965 11.908 6.437 12.129 5.375"/>
      <polygon fill="#B00" points="7.04 .174 7.015 1.438 8.114 1.909 8.183 .662"/>
      <polygon fill="#FF1E00" points="10.34 2.523 10.187 3.697 11.105 4.965 11.294 3.842"/>
      <polygon fill="#C80000" points="8.183 .662 8.113 1.909 9.181 2.668 9.293 1.452"/>
      <polygon fill="#E40000" points="9.293 1.453 9.181 2.669 10.187 3.697 10.34 2.522"/>
    </g>
    <g fill-rule="nonzero" transform="translate(7.529 15.714)">
      <polygon fill="#00C4FF" points="4.371 9.607 6.614 8.833 6.19 8.466 3.913 9.212"/>
      <polygon fill="#00D0FF" points="3.912 9.213 6.19 8.467 5.797 8 3.488 8.709"/>
      <polygon fill="#00E0FB" points="3.488 8.708 5.797 7.999 5.445 7.443 3.108 8.109"/>
      <polygon fill="#0FF8E7" points="3.107 8.109 5.445 7.444 5.143 6.812 2.78 7.428"/>
      <polygon fill="#00B4FF" points="2.44 10.433 4.371 9.608 3.913 9.212 1.941 10.002"/>
      <polygon fill="#00C0FF" points="1.941 10.002 3.913 9.213 3.488 8.709 1.477 9.453"/>
      <polygon fill="#00A8FF" points="2.962 10.735 4.85 9.885 4.371 9.608 2.44 10.433"/>
      <polygon fill="#23FFD4" points="2.78 7.428 5.143 6.812 4.899 6.121 2.514 6.683"/>
      <polygon fill="#00D4FF" points="1.477 9.453 3.488 8.709 3.107 8.109 1.061 8.799"/>
      <polygon fill="#00A8FF" points="3.494 10.901 5.339 10.036 4.85 9.885 2.962 10.735"/>
      <polygon fill="#06ECF1" points="1.061 8.799 3.108 8.109 2.78 7.428 .702 8.057"/>
      <polygon fill="#39FFBE" points="2.514 6.683 4.899 6.121 4.719 5.388 2.317 5.893"/>
      <polygon fill="#00A8FF" points="4.022 10.926 5.825 10.058 5.339 10.036 3.493 10.901"/>
      <polygon fill="#1CFFDB" points=".702 8.057 2.78 7.428 2.514 6.683 .41 7.245"/>
      <polygon fill="#53FFA4" points="2.317 5.893 4.72 5.388 4.609 4.632 2.194 5.077"/>
      <polygon fill="#36FFC1" points=".409 7.246 2.514 6.683 2.317 5.893 .192 6.385"/>
      <polygon fill="#6DFF8A" points="2.194 5.077 4.609 4.632 4.57 3.871 2.148 4.256"/>
      <polygon fill="#50FFA7" points=".192 6.384 2.317 5.893 2.194 5.077 .054 5.495"/>
      <polygon fill="#87FF70" points="2.147 4.256 4.569 3.871 4.604 3.125 2.18 3.451"/>
      <polygon fill="#6AFF8D" points=".054 5.495 2.194 5.077 2.148 4.256 0 4.6"/>
      <polygon fill="#A0FF56" points="2.181 3.451 4.604 3.125 4.711 2.413 2.292 2.683"/>
      <polygon fill="#87FF70" points="0 4.6 2.148 4.256 2.181 3.451 .032 3.722"/>
      <polygon fill="#B7FF40" points="2.292 2.683 4.711 2.413 4.889 1.754 2.48 1.971"/>
      <polygon fill="#A4FF53" points=".032 3.722 2.181 3.451 2.292 2.683 .15 2.884"/>
      <polygon fill="#D1FF26" points="2.48 1.972 4.889 1.754 5.132 1.165 2.739 1.336"/>
      <polygon fill="#BEFF39" points=".15 2.884 2.292 2.683 2.48 1.972 .35 2.108"/>
      <polygon fill="#E4FF13" points="2.739 1.335 5.133 1.165 5.436 .662 3.063 .792"/>
      <polygon fill="#D7FF1F" points=".35 2.108 2.48 1.972 2.739 1.336 .629 1.415"/>
      <polygon fill="#EEFF09" points=".628 1.414 2.738 1.336 3.062 .792 .978 .821"/>
      <polygon fill="#FFEA00" points=".979 .821 3.063 .793 3.443 .357 1.391 .346"/>
      <polygon fill="gold" points="1.391 .346 3.444 .357 3.872 .041 1.855 0"/>
    </g>
    <g fill-rule="nonzero" transform="translate(1.433 10.465)">
      <polygon fill="#00F" points="4.707 20.485 4.604 20.407 3.711 19.634 3.762 19.668"/>
      <polygon fill="#0010FF" points="3.762 19.668 3.71 19.634 2.878 18.652 2.882 18.629"/>
      <polygon fill="#0000F1" points="5.694 21.062 5.537 20.952 4.604 20.407 4.708 20.486"/>
      <polygon fill="#0038FF" points="2.882 18.629 2.878 18.652 2.126 17.484 2.087 17.394"/>
      <polygon fill="#0000E8" points="6.698 21.383 6.486 21.255 5.537 20.952 5.694 21.062"/>
      <polygon fill="#0064FF" points="2.087 17.394 2.127 17.484 1.475 16.158 1.398 15.991"/>
      <polygon fill="#0000ED" points="7.697 21.439 7.43 21.308 6.487 21.255 6.699 21.383"/>
      <polygon fill="#0098FF" points="1.398 15.992 1.475 16.159 .94 14.707 .831 14.455"/>
      <polygon fill="#00F" points="8.664 21.228 8.343 21.109 7.429 21.308 7.697 21.439"/>
      <polygon fill="#00D4FF" points=".831 14.456 .94 14.707 .534 13.164 .402 12.823"/>
      <polygon fill="#0008FF" points="9.577 20.753 9.205 20.66 8.344 21.108 8.664 21.228"/>
      <polygon fill="#26FFD1" points=".403 12.822 .535 13.164 .271 11.567 .123 11.132"/>
      <polygon fill="#002CFF" points="10.411 20.025 9.992 19.971 9.205 20.66 9.577 20.754"/>
      <polygon fill="#5AFF9D" points=".123 11.132 .271 11.568 .155 9.957 0 9.426"/>
      <polygon fill="#0054FF" points="11.146 19.058 10.685 19.057 9.992 19.971 10.411 20.025"/>
      <polygon fill="#90FF66" points="0 9.426 .155 9.957 .193 8.373 .04 7.747"/>
      <polygon fill="#08F" points="11.761 17.875 11.265 17.94 10.685 19.058 11.146 19.058"/>
      <polygon fill="#C7FF30" points=".039 7.747 .193 8.373 .384 6.856 .242 6.139"/>
      <polygon fill="#00C4FF" points="12.241 16.503 11.716 16.645 11.265 17.94 11.762 17.875"/>
      <polygon fill="#FBF100" points=".242 6.139 .385 6.856 .727 5.447 .604 4.643"/>
      <polygon fill="#16FFE1" points="12.57 14.977 12.025 15.204 11.716 16.645 12.241 16.503"/>
      <polygon fill="#FFB900" points=".604 4.643 .727 5.446 1.212 4.181 1.117 3.3"/>
      <polygon fill="#4DFFAA" points="12.738 13.334 12.182 13.654 12.025 15.204 12.57 14.977"/>
      <polygon fill="#FF8600" points="1.117 3.3 1.211 4.182 1.828 3.096 1.77 2.147"/>
      <polygon fill="#80FF77" points="12.741 11.616 12.182 12.034 12.182 13.654 12.739 13.334"/>
      <polygon fill="#FF5D00" points="1.77 2.147 1.829 3.096 2.563 2.221 2.548 1.216"/>
      <polygon fill="#B7FF40" points="12.574 9.87 12.023 10.387 12.182 12.034 12.741 11.617"/>
      <polygon fill="#FF3800" points="2.548 1.217 2.563 2.221 3.394 1.582 3.429 .536"/>
      <polygon fill="#EBFF0C" points="12.242 8.14 11.708 8.757 12.023 10.387 12.574 9.869"/>
      <polygon fill="#FF1A00" points="3.429 .536 3.394 1.582 4.302 1.198 4.392 .126"/>
      <polygon fill="#FFC800" points="11.751 6.475 11.244 7.188 11.708 8.757 12.242 8.14"/>
      <polygon fill="#F10800" points="4.392 .126 4.303 1.198 5.263 1.081 5.411 0"/>
      <polygon fill="#FF9400" points="11.115 4.921 10.644 5.724 11.244 7.188 11.751 6.475"/>
      <polygon fill="#E80000" points="5.41 0 5.262 1.081 6.249 1.237 6.456 .163"/>
      <polygon fill="#FF6800" points="10.35 3.522 9.922 4.405 10.644 5.724 11.115 4.921"/>
      <polygon fill="#ED0400" points="6.457 .163 6.25 1.237 7.236 1.662 7.503 .613"/>
      <polygon fill="#FF4300" points="9.477 2.315 9.097 3.267 9.921 4.404 10.35 3.521"/>
      <polygon fill="#FA0F00" points="7.503 .613 7.236 1.662 8.194 2.345 8.519 1.336"/>
      <polygon fill="#F20" points="8.519 1.337 8.194 2.345 9.098 3.268 9.477 2.315"/>
    </g>
    <g fill-rule="nonzero" transform="translate(1.25 9.275)">
      <polygon fill="#0CF" points=".873 15.2 1.015 15.645 .586 14.011 .423 13.486"/>
      <polygon fill="#1FFFD7" points=".424 13.487 .587 14.012 .307 12.321 .13 11.713"/>
      <polygon fill="#0018FF" points="10.917 21.037 10.595 21.214 9.761 21.943 10.041 21.801"/>
      <polygon fill="#5AFF9D" points=".129 11.712 .306 12.321 .184 10.615 0 9.921"/>
      <polygon fill="#04F" points="11.689 20.022 11.33 20.247 10.595 21.214 10.917 21.036"/>
      <polygon fill="#94FF63" points="0 9.921 .184 10.615 .224 8.936 .041 8.157"/>
      <polygon fill="#007CFF" points="12.336 18.78 11.945 19.064 11.33 20.247 11.689 20.022"/>
      <polygon fill="#CAFF2C" points=".041 8.157 .224 8.936 .426 7.327 .253 6.467"/>
      <polygon fill="#00B8FF" points="12.84 17.34 12.425 17.692 11.945 19.064 12.336 18.78"/>
      <polygon fill="#FFEA00" points=".253 6.467 .426 7.328 .787 5.832 .631 4.894"/>
      <polygon fill="#0FF8E7" points="13.187 15.737 12.754 16.166 12.425 17.692 12.84 17.34"/>
      <polygon fill="#FFAE00" points=".631 4.895 .787 5.832 1.301 4.489 1.169 3.482"/>
      <polygon fill="#49FFAD" points="13.366 14.011 12.923 14.523 12.754 16.166 13.188 15.737"/>
      <polygon fill="#FF7A00" points="1.169 3.481 1.301 4.489 1.954 3.336 1.855 2.267"/>
      <polygon fill="#80FF77" points="13.37 12.206 12.925 12.805 12.923 14.523 13.367 14.011"/>
      <polygon fill="#FF4A00" points="1.855 2.267 1.954 3.336 2.732 2.406 2.67 1.287"/>
      <polygon fill="#BAFF3C" points="13.197 10.37 12.758 11.058 12.925 12.805 13.37 12.206"/>
      <polygon fill="#FF2500" points="2.67 1.287 2.731 2.405 3.613 1.725 3.595 .569"/>
      <polygon fill="#F1FC06" points="12.849 8.551 12.426 9.329 12.758 11.058 13.196 10.369"/>
      <polygon fill="#F10800" points="3.595 .569 3.612 1.725 4.575 1.315 4.606 .135"/>
      <polygon fill="#FFC100" points="12.335 6.802 11.935 7.664 12.426 9.329 12.849 8.552"/>
      <polygon fill="#DA0000" points="4.607 .135 4.576 1.315 5.594 1.189 5.677 0"/>
      <polygon fill="#FF8900" points="11.668 5.167 11.3 6.11 11.936 7.664 12.336 6.801"/>
      <polygon fill="#CD0000" points="5.676 0 5.594 1.189 6.641 1.352 6.776 .169"/>
      <polygon fill="#FF5900" points="10.865 3.696 10.534 4.711 11.299 6.11 11.668 5.168"/>
      <polygon fill="#D10000" points="6.776 .17 6.641 1.352 7.687 1.802 7.874 .64"/>
      <polygon fill="#FF3000" points="9.947 2.429 9.66 3.505 10.534 4.711 10.865 3.696"/>
      <polygon fill="#DF0000" points="7.874 .641 7.686 1.802 8.702 2.526 8.941 1.401"/>
      <polygon fill="#FA0F00" points="8.941 1.4 8.702 2.525 9.66 3.504 9.947 2.428"/>
    </g>
    <g fill-rule="nonzero" transform="translate(6.455 .09)">
      <polygon fill="#9F0000" points="1.238 .06 0 .444 .873 .364 1.945 0"/>
      <polygon fill="#960000" points="1.945 0 .873 .364 1.773 .613 2.674 .26"/>
      <polygon fill="#FFAB00" points="6.385 7.636 6.348 8.117 6.774 10.04 6.731 9.513"/>
      <polygon fill="#960000" points="2.674 .26 1.772 .613 2.673 1.188 3.404 .836"/>
      <polygon fill="#FF6C00" points="5.937 5.871 5.797 6.31 6.348 8.117 6.385 7.636"/>
      <polygon fill="#A80000" points="3.404 .836 2.673 1.188 3.55 2.073 4.115 1.713"/>
      <polygon fill="#FF3400" points="5.399 4.266 5.133 4.671 5.796 6.311 5.937 5.871"/>
      <polygon fill="#C80000" points="4.115 1.713 3.549 2.073 4.377 3.245 4.786 2.867"/>
      <polygon fill="#F10800" points="4.786 2.867 4.378 3.245 5.134 4.671 5.399 4.266"/>
    </g>
    <g fill-rule="nonzero" transform="translate(0 2.962)">
      <polygon fill="#53FFA4" points=".147 13.164 .292 14.257 .145 12.268 0 11.167"/>
      <polygon fill="#97FF60" points="0 11.167 .145 12.269 .186 10.308 .04 9.199"/>
      <polygon fill="#D7FF1F" points=".04 9.199 .186 10.308 .415 8.426 .269 7.308"/>
      <polygon fill="#FFD000" points=".268 7.308 .414 8.426 .828 6.671 .682 5.545"/>
      <polygon fill="#FF8D00" points=".682 5.545 .828 6.671 1.417 5.092 1.272 3.957"/>
      <polygon fill="#FF4E00" points="1.272 3.957 1.417 5.092 2.169 3.731 2.025 2.589"/>
      <polygon fill="#FF1A00" points="2.025 2.59 2.169 3.732 3.067 2.63 2.924 1.481"/>
      <polygon fill="#D10000" points="2.924 1.481 3.067 2.63 4.087 1.819 3.945 .664"/>
      <polygon fill="#FFE600" points="14.192 9.498 14.432 11.817 14.81 13.826 14.576 11.529"/>
      <polygon fill="#A80000" points="3.945 .665 4.087 1.819 5.202 1.324 5.062 .165"/>
      <polygon fill="#FF9F00" points="13.623 7.544 13.745 8.689 14.313 10.636 14.192 9.498"/>
      <polygon fill="#8D0000" points="5.062 .165 5.202 1.324 6.383 1.162 6.245 0"/>
      <polygon fill="#FF6000" points="12.884 5.721 13.008 6.872 13.746 8.689 13.623 7.543"/>
      <polygon fill="maroon" points="6.245 0 6.383 1.162 7.598 1.34 7.462 .176"/>
      <polygon fill="#FF2900" points="11.993 4.081 12.12 5.237 13.008 6.872 12.883 5.721"/>
      <polygon fill="maroon" points="7.463 .176 7.598 1.34 8.813 1.854 8.679 .69"/>
      <polygon fill="#DF0000" points="10.977 2.67 11.106 3.831 12.12 5.237 11.994 4.081"/>
      <polygon fill="#920000" points="8.679 .69 8.813 1.854 9.993 2.692 9.862 1.529"/>
      <polygon fill="#B20000" points="9.861 1.529 9.992 2.692 11.105 3.831 10.977 2.67"/>
      <polygon fill="#FFE600" points="13.934 8.556 14.191 9.498 14.576 11.529 14.304 10.586"/>
    </g>
    <g fill-rule="nonzero" transform="translate(4.663 .454)">
      <polygon fill="#B20000" points=".968 .484 0 1.169 .961 .73 1.791 .08"/>
      <polygon fill="#960000" points="1.791 .08 .961 .731 1.979 .622 2.664 0"/>
      <polygon fill="#890000" points="2.665 0 1.98 .622 3.028 .85 3.564 .25"/>
      <polygon fill="#890000" points="3.564 .249 3.028 .849 4.078 1.409 4.464 .823"/>
      <polygon fill="#FF2D00" points="6.925 4.307 6.943 4.892 7.714 6.546 7.588 5.946"/>
      <polygon fill="#9B0000" points="4.465 .824 4.078 1.409 5.099 2.287 5.341 1.709"/>
      <polygon fill="#E80000" points="6.169 2.881 6.063 3.459 6.943 4.892 6.925 4.307"/>
      <polygon fill="#B00" points="5.341 1.709 5.099 2.287 6.063 3.459 6.169 2.881"/>
      <polygon fill="#FF6400" points="7.588 5.946 7.713 6.547 8.355 8.374 8.139 7.753"/>
    </g>
    <g fill-rule="nonzero" transform="translate(2.186 1.076)">
      <polygon fill="#D10000" points="1.6 1.303 .925 2.274 1.904 1.478 2.477 .548"/>
      <polygon fill="#A80000" points="2.477 .548 1.904 1.478 2.976 1 3.438 .109"/>
      <polygon fill="#8D0000" points="3.438 .109 2.976 1 4.111 .854 4.457 0"/>
      <polygon fill="maroon" points="4.457 0 4.111 .854 5.279 1.049 5.505 .228"/>
      <polygon fill="#840000" points="5.505 .228 5.279 1.049 6.448 1.58 6.555 .787"/>
      <polygon fill="#FF2900" points="9.42 4.271 9.633 5.01 10.489 6.658 10.191 5.925"/>
      <polygon fill="#920000" points="6.555 .787 6.448 1.58 7.584 2.435 7.576 1.665"/>
      <polygon fill="#DF0000" points="8.54 2.837 8.656 3.589 9.633 5.01 9.42 4.271"/>
      <polygon fill="#B20000" points="7.576 1.665 7.583 2.434 8.655 3.588 8.54 2.837"/>
      <polygon fill="#FF1A00" points=".829 2.348 .064 3.362 .926 2.274 1.6 1.303"/>
    </g>
    <g fill-rule="nonzero" transform="translate(.682 1.93)">
      <polygon fill="#FF8D00" points=".282 5.425 0 6.577 .59 4.989 .847 3.856"/>
      <polygon fill="#FF4E00" points=".847 3.856 .59 4.99 1.344 3.622 1.569 2.508"/>
      <polygon fill="#FF1600" points="1.569 2.508 1.343 3.622 2.242 2.513 2.43 1.42"/>
      <polygon fill="#D10000" points="2.43 1.42 2.242 2.513 3.263 1.696 3.409 .624"/>
      <polygon fill="#A40000" points="3.409 .624 3.263 1.696 4.381 1.197 4.481 .145"/>
      <polygon fill="#890000" points="4.481 .146 4.381 1.198 5.564 1.033 5.616 .001"/>
      <polygon fill="#FF6000" points="11.994 5.804 12.202 6.753 12.942 8.576 12.705 7.632"/>
      <polygon fill="maroon" points="5.616 0 5.564 1.032 6.781 1.208 6.784 .195"/>
      <polygon fill="#FF2900" points="11.138 4.156 11.313 5.113 12.203 6.753 11.994 5.804"/>
      <polygon fill="maroon" points="6.784 .195 6.781 1.208 7.998 1.722 7.953 .726"/>
      <polygon fill="#DF0000" points="10.16 2.735 10.296 3.702 11.312 5.113 11.137 4.156"/>
      <polygon fill="#920000" points="7.952 .726 7.998 1.722 9.18 2.561 9.088 1.581"/>
      <polygon fill="#B20000" points="9.088 1.581 9.18 2.561 10.295 3.702 10.16 2.735"/>
    </g>
    <g fill-rule="nonzero" transform="translate(17.976 2.27)">
      <polygon fill="#23FFD4" points="1.715 12.903 .008 12.889 .037 14.172 1.779 14.103"/>
      <polygon fill="#53FFA4" points="1.691 11.613 0 11.503 .009 12.89 1.715 12.904"/>
      <polygon fill="#80FF77" points="1.707 10.263 .013 10.049 0 11.503 1.691 11.612"/>
      <polygon fill="#ADFF49" points="1.764 8.892 .046 8.566 .013 10.049 1.707 10.263"/>
      <polygon fill="#DBFF1C" points="1.86 7.534 .1 7.094 .046 8.567 1.764 8.892"/>
      <polygon fill="#FFE200" points="1.994 6.228 .172 5.673 .1 7.094 1.86 7.534"/>
      <polygon fill="#FF3800" points="3.574 1.106 .995 0 .866 .174 3.322 1.246"/>
      <polygon fill="#FFB600" points="2.161 5.007 .262 4.341 .172 5.673 1.994 6.228"/>
      <polygon fill="#FF3800" points="3.322 1.246 .866 .174 .735 .589 3.067 1.608"/>
      <polygon fill="#FF9100" points="2.358 3.907 .366 3.135 .262 4.341 2.161 5.007"/>
      <polygon fill="#FF4300" points="3.067 1.608 .735 .589 .606 1.233 2.817 2.183"/>
      <polygon fill="#FF6F00" points="2.578 2.957 .481 2.089 .365 3.135 2.358 3.907"/>
      <polygon fill="#F50" points="2.817 2.184 .606 1.233 .481 2.09 2.579 2.957"/>
    </g>
    <g fill-rule="nonzero" transform="translate(19.666 3.377)">
      <polygon fill="#2CFFCA" points="1.76 11.94 .025 11.798 .089 12.998 1.852 13.057"/>
      <polygon fill="#56FFA0" points="1.723 10.744 0 10.506 .025 11.797 1.76 11.94"/>
      <polygon fill="#80FF77" points="1.743 9.5 .016 9.157 0 10.506 1.723 10.744"/>
      <polygon fill="#AAFF4D" points="1.819 8.24 .074 7.786 .017 9.157 1.743 9.5"/>
      <polygon fill="#D4FF23" points="1.949 6.997 .17 6.428 .074 7.786 1.819 8.24"/>
      <polygon fill="#FBF100" points="2.131 5.806 .304 5.121 .17 6.428 1.949 6.997"/>
      <polygon fill="#F50" points="4.65 1.346 2.128 .086 1.885 0 4.311 1.243"/>
      <polygon fill="#FFC400" points="2.359 4.698 .471 3.901 .303 5.121 2.131 5.806"/>
      <polygon fill="#FF4E00" points="4.311 1.243 1.885 0 1.632 .14 3.961 1.347"/>
      <polygon fill="#FFA300" points="2.629 3.703 .668 2.801 .471 3.901 2.36 4.698"/>
      <polygon fill="#FF5200" points="3.96 1.347 1.632 .14 1.377 .502 3.607 1.656"/>
      <polygon fill="#FF8200" points="2.933 2.85 .889 1.851 .668 2.801 2.63 3.703"/>
      <polygon fill="#FF5900" points="3.608 1.656 1.377 .502 1.127 1.078 3.262 2.161"/>
      <polygon fill="#FF6C00" points="3.262 2.161 1.127 1.078 .888 1.851 2.933 2.85"/>
    </g>
    <g fill-rule="nonzero" transform="translate(21.39 4.62)">
      <polygon fill="#33FFC4" points="1.656 10.951 .037 10.697 .129 11.813 1.769 11.986"/>
      <polygon fill="#5AFF9D" points="1.61 9.849 0 9.501 .037 10.697 1.656 10.951"/>
      <polygon fill="#80FF77" points="1.632 8.707 .02 8.257 0 9.501 1.61 9.849"/>
      <polygon fill="#A7FF50" points="1.721 7.555 .095 6.997 .02 8.257 1.632 8.706"/>
      <polygon fill="#CEFF29" points="1.876 6.426 .226 5.755 .095 6.997 1.721 7.556"/>
      <polygon fill="#F1FC06" points="2.093 5.347 .407 4.563 .226 5.754 1.876 6.425"/>
      <polygon fill="gold" points="2.367 4.348 .636 3.454 .408 4.562 2.093 5.346"/>
      <polygon fill="#FF6F00" points="5.12 1.452 2.926 .103 2.588 0 4.711 1.331"/>
      <polygon fill="#FFB600" points="2.69 3.457 .906 2.46 .636 3.455 2.367 4.348"/>
      <polygon fill="#FF6800" points="4.711 1.332 2.587 0 2.237 .104 4.288 1.4"/>
      <polygon fill="#FF9800" points="3.054 2.698 1.21 1.607 .906 2.46 2.69 3.457"/>
      <polygon fill="#FF6C00" points="4.289 1.4 2.237 .104 1.885 .413 3.864 1.655"/>
      <polygon fill="#FF8200" points="3.448 2.092 1.539 .918 1.21 1.607 3.053 2.698"/>
      <polygon fill="#FF7300" points="3.864 1.655 1.884 .413 1.539 .918 3.449 2.092"/>
    </g>
    <g fill-rule="nonzero" transform="translate(23 5.95)">
      <polygon fill="#39FFBE" points="1.403 9.964 .047 9.619 .159 10.654 1.53 10.921"/>
      <polygon fill="#5AFF9D" points="1.35 8.951 0 8.517 .046 9.619 1.403 9.964"/>
      <polygon fill="#80FF77" points="1.373 7.907 .021 7.375 0 8.516 1.35 8.951"/>
      <polygon fill="#A4FF53" points="1.471 6.86 .111 6.224 .022 7.375 1.373 7.907"/>
      <polygon fill="#C7FF30" points="1.641 5.836 .266 5.094 .111 6.224 1.47 6.86"/>
      <polygon fill="#E7FF0F" points="1.881 4.864 .483 4.015 .266 5.094 1.641 5.836"/>
      <polygon fill="#FFE600" points="2.183 3.97 .757 3.016 .483 4.015 1.881 4.864"/>
      <polygon fill="#FFC400" points="2.54 3.177 1.079 2.126 .756 3.016 2.183 3.97"/>
      <polygon fill="#FF8600" points="5.239 1.507 3.51 .121 3.101 0 4.784 1.369"/>
      <polygon fill="#FFAB00" points="2.943 2.507 1.444 1.366 1.08 2.125 2.54 3.177"/>
      <polygon fill="#FF8200" points="4.783 1.369 3.101 0 2.678 .068 4.313 1.403"/>
      <polygon fill="#FF9800" points="3.381 1.98 1.839 .76 1.444 1.366 2.944 2.507"/>
      <polygon fill="#FF8200" points="4.314 1.402 2.678 .068 2.254 .323 3.842 1.608"/>
      <polygon fill="#FF8900" points="3.842 1.608 2.254 .324 1.838 .761 3.381 1.98"/>
    </g>
    <g fill-rule="nonzero" transform="translate(24.35 7.32)">
      <polygon fill="#3CFFBA" points="1.013 9.01 .052 8.596 .178 9.552 1.147 9.893"/>
      <polygon fill="#5DFF9A" points=".956 8.08 0 7.583 .053 8.596 1.013 9.01"/>
      <polygon fill="#80FF77" points=".979 7.126 .022 6.539 0 7.583 .956 8.08"/>
      <polygon fill="#A0FF56" points="1.08 6.174 .12 5.491 .022 6.538 .978 7.126"/>
      <polygon fill="#C1FF36" points="1.258 5.249 .29 4.467 .12 5.491 1.08 6.174"/>
      <polygon fill="#DEFF19" points="1.509 4.376 .53 3.496 .29 4.468 1.258 5.25"/>
      <polygon fill="#FBF100" points="1.825 3.577 .832 2.601 .53 3.496 1.509 4.376"/>
      <polygon fill="gold" points="2.2 2.875 1.189 1.808 .832 2.601 1.825 3.577"/>
      <polygon fill="#FFA700" points="5.493 1.816 4.316 .444 3.887 .138 5.04 1.511"/>
      <polygon fill="#FFC100" points="2.623 2.287 1.592 1.139 1.189 1.808 2.2 2.875"/>
      <polygon fill="#FF9C00" points="5.041 1.511 3.888 .138 3.433 0 4.561 1.357"/>
      <polygon fill="#FFAE00" points="3.084 1.831 2.03 .611 1.593 1.139 2.624 2.287"/>
      <polygon fill="#FF9800" points="4.56 1.357 3.433 0 2.963 .034 4.065 1.36"/>
      <polygon fill="#FF9F00" points="3.569 1.52 2.492 .24 2.031 .611 3.084 1.832"/>
      <polygon fill="#FF9800" points="4.065 1.36 2.963 .034 2.491 .24 3.569 1.52"/>
    </g>
    <g fill-rule="nonzero" transform="translate(25.306 8.676)">
      <polygon fill="#43FFB4" points=".515 8.114 .057 7.654 .191 8.537 .652 8.932"/>
      <polygon fill="#60FF97" points=".456 7.257 0 6.722 .057 7.653 .514 8.114"/>
      <polygon fill="#7DFF7A" points=".477 6.385 .023 5.769 0 6.723 .456 7.258"/>
      <polygon fill="#9DFF5A" points=".578 5.519 .124 4.818 .022 5.769 .477 6.385"/>
      <polygon fill="#BAFF3C" points=".758 4.682 .302 3.893 .124 4.818 .579 5.519"/>
      <polygon fill="#D4FF23" points="1.01 3.896 .553 3.019 .302 3.893 .757 4.682"/>
      <polygon fill="#EEFF09" points="1.33 3.183 .87 2.221 .553 3.019 1.01 3.896"/>
      <polygon fill="#FFDE00" points="5.837 2.76 5.312 1.489 4.95 .909 5.467 2.208"/>
      <polygon fill="#FFE600" points="1.709 2.56 1.245 1.518 .87 2.22 1.33 3.183"/>
      <polygon fill="#FC0" points="5.468 2.208 4.95 .908 4.537 .459 5.047 1.773"/>
      <polygon fill="#FFD000" points="2.136 2.046 1.668 .931 1.245 1.518 1.709 2.56"/>
      <polygon fill="#FFB900" points="5.047 1.773 4.537 .459 4.084 .154 4.586 1.468"/>
      <polygon fill="#FFC100" points="2.602 1.655 2.128 .475 1.668 .931 2.137 2.046"/>
      <polygon fill="#FFB200" points="4.586 1.468 4.084 .154 3.604 0 4.098 1.301"/>
      <polygon fill="#FFB200" points="3.093 1.396 2.612 .163 2.128 .475 2.602 1.655"/>
      <polygon fill="#FFAB00" points="4.099 1.301 3.605 0 3.11 .003 3.597 1.277"/>
      <polygon fill="#FFAE00" points="3.596 1.277 3.109 .003 2.612 .163 3.093 1.395"/>
      <polygon fill="#CEFF29" points=".883 4.739 1.01 3.896 .758 4.682 .635 5.449"/>
    </g>
    <g fill-rule="nonzero" transform="translate(26.188 9.953)">
      <polygon fill="#50FFA7" points="5.364 7.895 5.546 7.113 5.696 6.268 5.51 7.122"/>
      <polygon fill="#6AFF8D" points="5.51 7.122 5.696 6.268 5.768 5.4 5.579 6.323"/>
      <polygon fill="#87FF70" points="5.58 6.323 5.768 5.399 5.76 4.53 5.569 5.519"/>
      <polygon fill="#A0FF56" points="5.569 5.52 5.76 4.53 5.672 3.682 5.479 4.732"/>
      <polygon fill="#BEFF39" points="5.479 4.732 5.672 3.681 5.505 2.877 5.312 3.98"/>
      <polygon fill="#D4FF23" points="5.312 3.98 5.505 2.877 5.264 2.137 5.072 3.285"/>
      <polygon fill="#E4FF13" points=".314 2.821 .447 1.906 .128 2.619 0 3.462"/>
      <polygon fill="#EBFF0C" points="5.071 3.285 5.264 2.137 4.955 1.483 4.764 2.665"/>
      <polygon fill="#F8F500" points=".686 2.268 .826 1.283 .447 1.906 .313 2.821"/>
      <polygon fill="#FEED00" points="4.764 2.666 4.955 1.483 4.585 .931 4.397 2.137"/>
      <polygon fill="#FFDE00" points="1.107 1.816 1.253 .769 .826 1.283 .686 2.268"/>
      <polygon fill="#FFDB00" points="4.397 2.137 4.585 .931 4.164 .496 3.98 1.715"/>
      <polygon fill="#FFD000" points="1.565 1.48 1.719 .377 1.254 .769 1.107 1.816"/>
      <polygon fill="#FC0" points="3.98 1.715 4.164 .496 3.704 .191 3.524 1.41"/>
      <polygon fill="#FFC400" points="2.05 1.267 2.211 .119 1.72 .378 1.566 1.48"/>
      <polygon fill="#FFC400" points="3.524 1.41 3.704 .191 3.216 .024 3.042 1.231"/>
      <polygon fill="#FFC100" points="2.546 1.183 2.714 0 2.211 .119 2.05 1.267"/>
      <polygon fill="#FFBD00" points="3.042 1.231 3.216 .024 2.714 0 2.546 1.183"/>
    </g>
    <g fill-rule="nonzero" transform="translate(26.12 11.136)">
      <polygon fill="#00D4FF" points="2.926 10.031 3.75 9.556 4.186 9.175 3.349 9.697"/>
      <polygon fill="#00E4F8" points="3.349 9.698 4.186 9.175 4.582 8.687 3.732 9.262"/>
      <polygon fill="#0FF8E7" points="3.732 9.261 4.582 8.686 4.928 8.103 4.066 8.734"/>
      <polygon fill="#26FFD1" points="4.066 8.734 4.928 8.103 5.214 7.44 4.342 8.129"/>
      <polygon fill="#3CFFBA" points="4.341 8.129 5.213 7.439 5.432 6.712 4.552 7.461"/>
      <polygon fill="#53FFA4" points="4.552 7.461 5.432 6.712 5.578 5.939 4.691 6.746"/>
      <polygon fill="#6DFF8A" points="4.691 6.747 5.578 5.939 5.647 5.141 4.756 6.004"/>
      <polygon fill="#87FF70" points="4.755 6.004 5.647 5.14 5.636 4.337 4.743 5.254"/>
      <polygon fill="#A0FF56" points="4.743 5.253 5.637 4.337 5.547 3.549 4.653 4.514"/>
      <polygon fill="#B7FF40" points="4.653 4.514 5.547 3.549 5.38 2.798 4.489 3.805"/>
      <polygon fill="#CEFF29" points="4.488 3.805 5.379 2.797 5.139 2.102 4.253 3.145"/>
      <polygon fill="#E4FF13" points="4.253 3.145 5.139 2.102 4.831 1.482 3.953 2.552"/>
      <polygon fill="#FEED00" points=".406 1.583 1.175 .634 .754 1.085 0 1.983"/>
      <polygon fill="#F4F802" points="3.953 2.552 4.831 1.483 4.464 .955 3.595 2.042"/>
      <polygon fill="#FFDE00" points=".85 1.292 1.633 .297 1.175 .634 .407 1.583"/>
      <polygon fill="#FFE600" points="3.596 2.042 4.465 .955 4.048 .532 3.19 1.628"/>
      <polygon fill="#FFD300" points="1.318 1.117 2.117 .084 1.633 .297 .85 1.292"/>
      <polygon fill="#FFDB00" points="3.19 1.628 4.048 .532 3.592 .227 2.747 1.322"/>
      <polygon fill="#FFD000" points="1.798 1.063 2.613 0 2.117 .084 1.317 1.117"/>
      <polygon fill="#FFD000" points="2.747 1.322 3.592 .227 3.11 .048 2.279 1.132"/>
      <polygon fill="#FC0" points="2.279 1.132 3.11 .049 2.614 .001 1.798 1.063"/>
    </g>
    <g fill-rule="nonzero" transform="translate(25.604 12.199)">
      <polygon fill="#00D0FF" points="1.583 9.661 2.992 9.192 3.443 8.968 2.015 9.471"/>
      <polygon fill="#00DCFE" points="2.015 9.471 3.443 8.968 3.866 8.634 2.419 9.175"/>
      <polygon fill="#06ECF1" points="2.419 9.175 3.866 8.634 4.249 8.199 2.785 8.78"/>
      <polygon fill="#19FFDE" points="2.786 8.78 4.249 8.199 4.583 7.672 3.104 8.296"/>
      <polygon fill="#29FFCE" points="3.104 8.296 4.583 7.672 4.858 7.066 3.367 7.735"/>
      <polygon fill="#40FFB7" points="3.367 7.734 4.859 7.066 5.069 6.398 3.567 7.111"/>
      <polygon fill="#56FFA0" points="3.567 7.111 5.069 6.398 5.209 5.684 3.698 6.44"/>
      <polygon fill="#6DFF8A" points="3.698 6.44 5.208 5.683 5.273 4.941 3.757 5.739"/>
      <polygon fill="#87FF70" points="3.757 5.74 5.273 4.941 5.26 4.191 3.743 5.027"/>
      <polygon fill="#9DFF5A" points="3.742 5.028 5.26 4.191 5.17 3.451 3.654 4.323"/>
      <polygon fill="#B4FF43" points="3.654 4.322 5.17 3.451 5.006 2.742 3.494 3.642"/>
      <polygon fill="#CAFF2C" points="3.494 3.642 5.006 2.742 4.771 2.082 3.266 3.006"/>
      <polygon fill="#DEFF19" points="3.266 3.007 4.77 2.083 4.47 1.49 2.976 2.431"/>
      <polygon fill="#EEFF09" points="2.976 2.431 4.47 1.489 4.112 .979 2.632 1.931"/>
      <polygon fill="#FFDE00" points=".448 .951 1.835 .054 1.367 .229 0 1.095"/>
      <polygon fill="#FBF100" points="2.631 1.932 4.112 .979 3.706 .566 2.241 1.521"/>
      <polygon fill="#FFDB00" points=".908 .922 2.316 0 1.835 .054 .448 .951"/>
      <polygon fill="#FFE600" points="2.242 1.521 3.707 .565 3.264 .259 1.817 1.211"/>
      <polygon fill="gold" points="1.368 1.01 2.796 .069 2.316 0 .908 .922"/>
      <polygon fill="#FFDB00" points="1.817 1.211 3.264 .259 2.796 .069 1.368 1.009"/>
    </g>
    <g fill-rule="nonzero" transform="translate(23.745 13.121)">
      <polygon fill="#00D8FF" points="1.535 9.25 3.442 8.739 3.874 8.549 1.945 9.085"/>
      <polygon fill="#00E4F8" points="1.946 9.086 3.875 8.549 4.279 8.253 2.329 8.817"/>
      <polygon fill="#0CF4EB" points="2.329 8.817 4.278 8.252 4.644 7.857 2.676 8.451"/>
      <polygon fill="#1CFFDB" points="2.677 8.451 4.645 7.857 4.963 7.373 2.978 7.997"/>
      <polygon fill="#2CFFCA" points="2.978 7.998 4.963 7.374 5.226 6.813 3.226 7.466"/>
      <polygon fill="#43FFB4" points="3.226 7.466 5.226 6.812 5.426 6.188 3.414 6.871"/>
      <polygon fill="#56FFA0" points="3.414 6.872 5.425 6.189 5.556 5.518 3.537 6.229"/>
      <polygon fill="#6DFF8A" points="3.537 6.229 5.557 5.518 5.616 4.818 3.591 5.554"/>
      <polygon fill="#83FF73" points="3.591 5.553 5.616 4.817 5.602 4.105 3.575 4.863"/>
      <polygon fill="#9AFF5D" points="3.575 4.863 5.602 4.105 5.513 3.4 3.488 4.177"/>
      <polygon fill="#B1FF46" points="3.488 4.177 5.513 3.4 5.353 2.72 3.333 3.513"/>
      <polygon fill="#C4FF33" points="3.333 3.513 5.353 2.721 5.125 2.084 3.114 2.888"/>
      <polygon fill="#D7FF1F" points="3.114 2.887 5.125 2.084 4.835 1.509 2.836 2.318"/>
      <polygon fill="#FFE600" points=".425 .778 2.306 .029 1.858 .174 0 .898"/>
      <polygon fill="#E7FF0F" points="2.836 2.319 4.835 1.509 4.491 1.009 2.507 1.82"/>
      <polygon fill="#FFE200" points=".863 .77 2.767 0 2.307 .029 .426 .778"/>
      <polygon fill="#F4F802" points="2.506 1.821 4.49 1.01 4.101 .599 2.134 1.407"/>
      <polygon fill="#FFE200" points="1.301 .874 3.227 .088 2.766 0 .863 .77"/>
      <polygon fill="#FEED00" points="2.134 1.407 4.101 .599 3.676 .289 1.728 1.089"/>
      <polygon fill="#FFE200" points="1.729 1.088 3.676 .289 3.227 .087 1.301 .874"/>
    </g>
    <g fill-rule="nonzero" transform="translate(21.924 13.89)">
      <polygon fill="#00DCFE" points="1.08 9.042 3.355 8.481 3.766 8.316 1.469 8.896"/>
      <polygon fill="#02E8F4" points="1.469 8.897 3.766 8.316 4.15 8.048 1.832 8.647"/>
      <polygon fill="#0FF8E7" points="1.831 8.647 4.149 8.048 4.497 7.682 2.159 8.299"/>
      <polygon fill="#1FFFD7" points="2.159 8.299 4.497 7.682 4.798 7.228 2.443 7.862"/>
      <polygon fill="#30FFC7" points="2.444 7.862 4.798 7.227 5.047 6.696 2.677 7.346"/>
      <polygon fill="#43FFB4" points="2.676 7.346 5.046 6.697 5.234 6.102 2.853 6.765"/>
      <polygon fill="#5AFF9D" points="2.853 6.765 5.235 6.102 5.357 5.459 2.967 6.133"/>
      <polygon fill="#6DFF8A" points="2.967 6.133 5.357 5.459 5.411 4.783 3.016 5.466"/>
      <polygon fill="#83FF73" points="3.016 5.466 5.411 4.784 5.395 4.094 2.998 4.782"/>
      <polygon fill="#9AFF5D" points="2.998 4.782 5.395 4.094 5.308 3.408 2.913 4.098"/>
      <polygon fill="#B1FF46" points="2.913 4.098 5.308 3.408 5.153 2.743 2.764 3.433"/>
      <polygon fill="#C4FF33" points="2.764 3.434 5.154 2.744 4.935 2.118 2.554 2.805"/>
      <polygon fill="#D7FF1F" points="2.554 2.805 4.934 2.118 4.656 1.549 2.288 2.23"/>
      <polygon fill="#FFE600" points=".414 .614 2.684 0 2.246 .008 0 .604"/>
      <polygon fill="#E4FF13" points="2.289 2.229 4.656 1.549 4.327 1.051 1.975 1.722"/>
      <polygon fill="#FFE600" points=".829 .736 3.121 .104 2.683 0 .414 .614"/>
      <polygon fill="#F1FC06" points="1.974 1.722 4.326 1.051 3.954 .637 1.62 1.297"/>
      <polygon fill="#FFE600" points="1.235 .965 3.549 .319 3.121 .105 .829 .736"/>
      <polygon fill="#FEED00" points="1.62 1.297 3.954 .637 3.549 .319 1.235 .965"/>
    </g>
    <g fill-rule="nonzero" transform="translate(19.636 14.485)">
      <polygon fill="#00E4F8" points="1.505 8.78 3.941 8.19 3.565 8.388 1.125 8.98"/>
      <polygon fill="#0CF4EB" points="1.854 8.476 4.288 7.89 3.942 8.189 1.506 8.779"/>
      <polygon fill="#19FFDE" points="2.163 8.077 4.595 7.497 4.288 7.89 1.854 8.476"/>
      <polygon fill="#29FFCE" points="2.424 7.592 4.855 7.019 4.595 7.496 2.163 8.077"/>
      <polygon fill="#3CFFBA" points="2.629 7.034 5.06 6.468 4.855 7.019 2.424 7.592"/>
      <polygon fill="#53FFA4" points="2.773 6.416 5.206 5.859 5.06 6.468 2.628 7.034"/>
      <polygon fill="#66FF90" points="2.852 5.755 5.288 5.208 5.206 5.859 2.773 6.416"/>
      <polygon fill="#7DFF7A" points="2.865 5.067 5.303 4.53 5.287 5.208 2.852 5.755"/>
      <polygon fill="#94FF63" points="2.809 4.37 5.251 3.844 5.303 4.53 2.864 5.067"/>
      <polygon fill="#AAFF4D" points="2.687 3.684 5.134 3.168 5.252 3.844 2.809 4.37"/>
      <polygon fill="#BEFF39" points="2.501 3.024 4.954 2.519 5.134 3.167 2.687 3.683"/>
      <polygon fill="#D1FF26" points="2.257 2.411 4.715 1.915 4.954 2.519 2.501 3.025"/>
      <polygon fill="#FFE200" points="0 .465 2.494 0 2.91 .066 .421 .533"/>
      <polygon fill="#E1FF16" points="1.96 1.859 4.424 1.371 4.715 1.914 2.257 2.411"/>
      <polygon fill="#FFE600" points=".421 .533 2.91 .067 3.321 .243 .839 .712"/>
      <polygon fill="#EEFF09" points="1.619 1.384 4.09 .904 4.425 1.371 1.961 1.859"/>
      <polygon fill="#FFEA00" points=".839 .712 3.322 .242 3.718 .524 1.242 .998"/>
      <polygon fill="#FBF100" points="1.241 .998 3.718 .524 4.089 .904 1.619 1.384"/>
    </g>
    <g fill-rule="nonzero" transform="translate(17.078 14.951)">
      <polygon fill="#00E0FB" points="1.604 8.969 4.064 8.314 3.684 8.515 1.211 9.177"/>
      <polygon fill="#09F0EE" points="1.963 8.653 4.412 8.011 4.064 8.314 1.603 8.969"/>
      <polygon fill="#16FFE1" points="2.282 8.239 4.722 7.611 4.413 8.01 1.964 8.653"/>
      <polygon fill="#29FFCE" points="2.548 7.735 4.982 7.127 4.721 7.612 2.281 8.239"/>
      <polygon fill="#3CFFBA" points="2.758 7.155 5.187 6.568 4.982 7.127 2.548 7.735"/>
      <polygon fill="#50FFA7" points="2.905 6.513 5.331 5.951 5.187 6.568 2.758 7.155"/>
      <polygon fill="#66FF90" points="2.984 5.825 5.411 5.29 5.331 5.951 2.905 6.513"/>
      <polygon fill="#7DFF7A" points="2.993 5.11 5.423 4.602 5.411 5.29 2.984 5.825"/>
      <polygon fill="#94FF63" points="2.932 4.385 5.368 3.905 5.423 4.601 2.993 5.11"/>
      <polygon fill="#AAFF4D" points="2.802 3.67 5.245 3.218 5.367 3.905 2.932 4.385"/>
      <polygon fill="#C1FF36" points="2.607 2.984 5.06 2.559 5.246 3.218 2.803 3.67"/>
      <polygon fill="#D4FF23" points="2.35 2.346 4.816 1.945 5.06 2.559 2.607 2.984"/>
      <polygon fill="#FFDE00" points="0 .32 2.558 0 2.98 .067 .437 .39"/>
      <polygon fill="#E4FF13" points="2.04 1.772 4.519 1.394 4.816 1.946 2.35 2.346"/>
      <polygon fill="#FFDE00" points=".437 .39 2.98 .067 3.397 .246 .871 .577"/>
      <polygon fill="#F1FC06" points="1.683 1.277 4.178 .918 4.519 1.394 2.04 1.771"/>
      <polygon fill="#FFE600" points=".871 .577 3.398 .247 3.8 .533 1.29 .875"/>
      <polygon fill="#FEED00" points="1.29 .875 3.8 .533 4.177 .919 1.683 1.277"/>
    </g>
    <g fill-rule="nonzero" transform="translate(14.607 15.271)">
      <polygon fill="#0CF" points="1.327 9.591 3.683 8.857 3.267 8.953 .888 9.692"/>
      <polygon fill="#00D8FF" points="1.741 9.37 4.075 8.648 3.682 8.856 1.327 9.59"/>
      <polygon fill="#02E8F4" points="2.12 9.036 4.435 8.333 4.075 8.648 1.741 9.37"/>
      <polygon fill="#13FCE4" points="2.454 8.597 4.753 7.919 4.435 8.333 2.12 9.036"/>
      <polygon fill="#23FFD4" points="2.735 8.063 5.02 7.416 4.753 7.919 2.455 8.597"/>
      <polygon fill="#39FFBE" points="2.954 7.447 5.23 6.835 5.02 7.415 2.735 8.062"/>
      <polygon fill="#50FFA7" points="3.106 6.766 5.376 6.193 5.23 6.835 2.954 7.447"/>
      <polygon fill="#66FF90" points="3.186 6.035 5.455 5.505 5.376 6.193 3.106 6.766"/>
      <polygon fill="#7DFF7A" points="3.193 5.276 5.465 4.79 5.456 5.505 3.187 6.035"/>
      <polygon fill="#97FF60" points="3.124 4.506 5.403 4.065 5.464 4.79 3.192 5.275"/>
      <polygon fill="#ADFF49" points="2.983 3.746 5.273 3.35 5.403 4.065 3.124 4.505"/>
      <polygon fill="#C4FF33" points="2.773 3.017 5.078 2.664 5.274 3.35 2.983 3.746"/>
      <polygon fill="#D7FF1F" points="2.498 2.338 4.822 2.026 5.078 2.664 2.773 3.017"/>
      <polygon fill="gold" points="0 .184 2.472 0 2.909 .07 .463 .259"/>
      <polygon fill="#EBFF0C" points="2.167 1.728 4.511 1.452 4.822 2.026 2.499 2.339"/>
      <polygon fill="gold" points=".463 .259 2.908 .07 3.342 .257 .923 .457"/>
      <polygon fill="#F8F500" points="1.787 1.202 4.154 .957 4.511 1.452 2.167 1.728"/>
      <polygon fill="#FFDB00" points=".923 .457 3.342 .257 3.761 .555 1.368 .774"/>
      <polygon fill="#FFE600" points="1.369 .774 3.762 .555 4.155 .957 1.787 1.201"/>
    </g>
    <g fill-rule="nonzero" transform="translate(5.726 15.268)">
      <polygon fill="#00A0FF" points="2.69 11.735 4.242 10.879 3.743 10.448 2.143 11.263"/>
      <polygon fill="#00B0FF" points="2.143 11.263 3.744 10.448 3.28 9.899 1.634 10.661"/>
      <polygon fill="#0094FF" points="3.261 12.067 4.764 11.181 4.242 10.879 2.689 11.735"/>
      <polygon fill="#00C4FF" points="1.634 10.66 3.28 9.898 2.864 9.244 1.176 9.944"/>
      <polygon fill="#0094FF" points="3.843 12.249 5.296 11.347 4.764 11.181 3.261 12.067"/>
      <polygon fill="#00E0FB" points="1.176 9.945 2.863 9.245 2.504 8.503 .781 9.132"/>
      <polygon fill="#0094FF" points="4.421 12.278 5.825 11.372 5.296 11.347 3.843 12.25"/>
      <polygon fill="#13FCE4" points=".781 9.131 2.505 8.503 2.213 7.691 .459 8.242"/>
      <polygon fill="#009CFF" points="4.981 12.15 6.337 11.254 5.825 11.372 4.422 12.278"/>
      <polygon fill="#30FFC7" points=".459 8.242 2.213 7.692 1.995 6.83 .217 7.298"/>
      <polygon fill="#00ACFF" points="5.508 11.87 6.819 10.997 6.337 11.254 4.981 12.15"/>
      <polygon fill="#49FFAD" points=".217 7.297 1.994 6.829 1.857 5.94 .062 6.322"/>
      <polygon fill="#6AFF8D" points=".062 6.323 1.857 5.94 1.803 5.045 0 5.342"/>
      <polygon fill="#87FF70" points="0 5.342 1.803 5.045 1.835 4.168 .031 4.379"/>
      <polygon fill="#A7FF50" points=".032 4.379 1.835 4.167 1.952 3.329 .157 3.459"/>
      <polygon fill="#C4FF33" points=".157 3.46 1.952 3.33 2.153 2.554 .373 2.608"/>
      <polygon fill="#DEFF19" points=".373 2.607 2.153 2.553 2.432 1.859 .675 1.846"/>
      <polygon fill="#F8F500" points=".675 1.846 2.431 1.86 2.781 1.267 1.055 1.195"/>
      <polygon fill="#FFDB00" points="1.056 1.195 2.781 1.267 3.194 .791 1.505 .672"/>
      <polygon fill="#FFC800" points="1.505 .672 3.194 .791 3.658 .446 2.013 .292"/>
      <polygon fill="#FFB900" points="2.013 .292 3.658 .445 4.162 .24 2.564 .066"/>
      <polygon fill="#FFAE00" points="2.565 .066 4.163 .24 4.694 .18 3.146 0"/>
    </g>
    <g fill-rule="nonzero" transform="translate(4.3 14.97)">
      <polygon fill="#008CFF" points="2.966 12.893 4.116 12.034 3.569 11.561 2.365 12.374"/>
      <polygon fill="#009CFF" points="2.365 12.374 3.569 11.561 3.06 10.959 1.806 11.713"/>
      <polygon fill="#0080FF" points="3.592 13.258 4.687 12.365 4.116 12.033 2.965 12.893"/>
      <polygon fill="#00B4FF" points="1.806 11.713 3.06 10.959 2.602 10.242 1.303 10.927"/>
      <polygon fill="#007CFF" points="4.231 13.459 5.27 12.547 4.687 12.365 3.593 13.258"/>
      <polygon fill="#00D0FF" points="1.302 10.928 2.602 10.242 2.207 9.43 .867 10.036"/>
      <polygon fill="#007CFF" points="4.865 13.491 5.848 12.575 5.27 12.547 4.231 13.459"/>
      <polygon fill="#09F0EE" points=".867 10.036 2.207 9.43 1.885 8.54 .511 9.059"/>
      <polygon fill="#08F" points="5.478 13.352 6.407 12.448 5.848 12.575 4.865 13.49"/>
      <polygon fill="#26FFD1" points=".511 9.06 1.885 8.54 1.643 7.596 .244 8.023"/>
      <polygon fill="#0098FF" points="6.055 13.045 6.935 12.167 6.408 12.448 5.478 13.352"/>
      <polygon fill="#46FFB1" points=".244 8.023 1.643 7.596 1.489 6.621 .072 6.953"/>
      <polygon fill="#00ACFF" points="6.582 12.578 7.415 11.74 6.935 12.167 6.055 13.045"/>
      <polygon fill="#66FF90" points=".072 6.953 1.489 6.621 1.427 5.64 0 5.876"/>
      <polygon fill="#8AFF6D" points="0 5.876 1.427 5.64 1.458 4.677 .031 4.818"/>
      <polygon fill="#AAFF4D" points=".032 4.818 1.458 4.677 1.583 3.758 .166 3.808"/>
      <polygon fill="#CAFF2C" points=".166 3.807 1.583 3.758 1.799 2.906 .4 2.871"/>
      <polygon fill="#E7FF0F" points=".4 2.871 1.8 2.906 2.102 2.144 .729 2.033"/>
      <polygon fill="#FFE600" points=".729 2.033 2.101 2.144 2.482 1.493 1.144 1.317"/>
      <polygon fill="#FC0" points="1.144 1.316 2.482 1.492 2.932 .97 1.636 .74"/>
      <polygon fill="#FFB600" points="1.637 .741 2.932 .97 3.44 .59 2.193 .322"/>
      <polygon fill="#FFA300" points="2.192 .323 3.439 .59 3.991 .364 2.797 .073"/>
      <polygon fill="#FF9800" points="2.797 .073 3.991 .364 4.572 .298 3.436 0"/>
      <polygon fill="#FF9400" points="3.436 0 4.572 .298 5.168 .395 4.091 .107"/>
      <polygon fill="#FF9400" points="4.091 .106 5.168 .395 5.762 .652 4.744 .39"/>
    </g>
    <g fill-rule="nonzero" transform="translate(3.242 14.55)">
      <polygon fill="#0074FF" points="3.26 14.141 4.023 13.313 3.422 12.794 2.602 13.572"/>
      <polygon fill="#0084FF" points="2.602 13.572 3.423 12.794 2.864 12.133 1.99 12.848"/>
      <polygon fill="#0068FF" points="3.947 14.541 4.65 13.678 4.023 13.313 3.26 14.141"/>
      <polygon fill="#00A0FF" points="1.989 12.848 2.863 12.133 2.36 11.347 1.437 11.987"/>
      <polygon fill="#0064FF" points="4.646 14.762 5.288 13.878 4.65 13.677 3.947 14.541"/>
      <polygon fill="#00C0FF" points="1.437 11.987 2.36 11.347 1.925 10.455 .959 11.01"/>
      <polygon fill="#0064FF" points="5.34 14.798 5.922 13.91 5.288 13.878 4.646 14.762"/>
      <polygon fill="#00E4F8" points=".959 11.011 1.925 10.455 1.569 9.479 .567 9.941"/>
      <polygon fill="#0070FF" points="6.011 14.647 6.535 13.772 5.922 13.91 5.34 14.798"/>
      <polygon fill="#1FFFD7" points=".568 9.941 1.569 9.479 1.301 8.443 .272 8.806"/>
      <polygon fill="#0080FF" points="6.643 14.314 7.112 13.466 6.535 13.772 6.011 14.648"/>
      <polygon fill="#40FFB7" points=".272 8.806 1.301 8.443 1.129 7.373 .081 7.634"/>
      <polygon fill="#0098FF" points="7.22 13.803 7.639 12.998 7.113 13.465 6.643 14.313"/>
      <polygon fill="#66FF90" points=".081 7.633 1.129 7.373 1.057 6.295 0 6.452"/>
      <polygon fill="#00B4FF" points="7.725 13.128 8.101 12.381 7.639 12.998 7.22 13.803"/>
      <polygon fill="#8AFF6D" points="0 6.452 1.057 6.295 1.088 5.237 .032 5.292"/>
      <polygon fill="#ADFF49" points=".032 5.293 1.089 5.238 1.223 4.227 .177 4.184"/>
      <polygon fill="#D1FF26" points=".177 4.184 1.223 4.228 1.457 3.291 .431 3.157"/>
      <polygon fill="#F4F802" points=".431 3.156 1.457 3.291 1.786 2.453 .79 2.236"/>
      <polygon fill="gold" points=".79 2.236 1.786 2.453 2.202 1.736 1.244 1.449"/>
      <polygon fill="#FFB900" points="1.244 1.449 2.202 1.736 2.694 1.161 1.782 .816"/>
      <polygon fill="#FF9F00" points="1.782 .816 2.694 1.16 3.25 .742 2.391 .355"/>
      <polygon fill="#FF8D00" points="2.39 .355 3.25 .742 3.855 .492 3.054 .08"/>
      <polygon fill="#FF8200" points="3.053 .081 3.855 .493 4.493 .42 3.754 0"/>
      <polygon fill="#FF7A00" points="3.754 0 4.493 .42 5.148 .526 4.472 .117"/>
      <polygon fill="#FF7E00" points="4.472 .117 5.148 .527 5.801 .81 5.19 .428"/>
      <polygon fill="#00C8FF" points="8.101 12.381 8.895 11.597 8.472 12.16 7.639 12.998"/>
    </g>
    <g fill-rule="nonzero" transform="translate(1.77 12.5)">
      <polygon fill="#0028FF" points="4.167 18.075 4.15 17.589 3.372 16.916 3.33 17.351"/>
      <polygon fill="#0040FF" points="3.33 17.351 3.372 16.916 2.647 16.06 2.549 16.431"/>
      <polygon fill="#0018FF" points="5.041 18.586 4.963 18.063 4.151 17.589 4.167 18.076"/>
      <polygon fill="#0060FF" points="2.55 16.431 2.648 16.06 1.994 15.043 1.846 15.336"/>
      <polygon fill="#0010FF" points="5.931 18.869 5.79 18.326 4.963 18.063 5.042 18.586"/>
      <polygon fill="#08F" points="1.846 15.336 1.994 15.043 1.427 13.888 1.236 14.094"/>
      <polygon fill="#0014FF" points="6.814 18.919 6.61 18.371 5.789 18.326 5.931 18.87"/>
      <polygon fill="#00B4FF" points="1.235 14.094 1.426 13.888 .961 12.624 .734 12.734"/>
      <polygon fill="#0020FF" points="7.67 18.731 7.404 18.196 6.61 18.371 6.815 18.919"/>
      <polygon fill="#02E8F4" points=".734 12.734 .961 12.624 .609 11.282 .355 11.288"/>
      <polygon fill="#0038FF" points="8.476 18.309 8.152 17.803 7.404 18.195 7.67 18.731"/>
      <polygon fill="#30FFC7" points=".355 11.289 .609 11.282 .38 9.894 .108 9.794"/>
      <polygon fill="#0054FF" points="9.212 17.664 8.835 17.202 8.152 17.803 8.476 18.31"/>
      <polygon fill="#60FF97" points=".108 9.794 .381 9.894 .281 8.494 0 8.287"/>
      <polygon fill="#007CFF" points="9.859 16.807 9.435 16.405 8.835 17.202 9.212 17.664"/>
      <polygon fill="#8DFF6A" points="0 8.286 .281 8.494 .315 7.119 .036 6.805"/>
      <polygon fill="#00A8FF" points="10.4 15.761 9.936 15.433 9.435 16.406 9.859 16.808"/>
      <polygon fill="#BEFF39" points=".036 6.805 .315 7.119 .483 5.804 .216 5.387"/>
      <polygon fill="#00D8FF" points="10.821 14.548 10.325 14.306 9.936 15.433 10.4 15.76"/>
      <polygon fill="#EBFF0C" points=".216 5.387 .483 5.805 .781 4.584 .536 4.07"/>
      <polygon fill="#23FFD4" points="11.108 13.2 10.59 13.055 10.325 14.307 10.821 14.548"/>
      <polygon fill="#FFD300" points=".537 4.07 .782 4.584 1.204 3.489 .991 2.889"/>
      <polygon fill="#50FFA7" points="11.253 11.75 10.723 11.709 10.59 13.055 11.108 13.2"/>
      <polygon fill="#FFA700" points=".991 2.888 1.204 3.489 1.74 2.552 1.568 1.876"/>
      <polygon fill="#80FF77" points="11.252 10.235 10.72 10.305 10.723 11.71 11.254 11.75"/>
      <polygon fill="#FF8200" points="1.568 1.876 1.74 2.552 2.377 1.797 2.255 1.06"/>
      <polygon fill="#B1FF46" points="11.101 8.697 10.579 8.878 10.72 10.305 11.252 10.236"/>
      <polygon fill="#FF6000" points="2.255 1.06 2.377 1.797 3.098 1.247 3.032 .465"/>
      <polygon fill="#DEFF19" points="10.805 7.173 10.303 7.466 10.579 8.878 11.101 8.696"/>
      <polygon fill="#FF4A00" points="3.032 .464 3.097 1.247 3.885 .918 3.881 .107"/>
      <polygon fill="#FFE200" points="10.37 5.707 9.899 6.108 10.303 7.466 10.805 7.173"/>
      <polygon fill="#FF3800" points="3.881 .108 3.884 .918 4.716 .82 4.779 0"/>
      <polygon fill="#FFB200" points="9.808 4.339 9.378 4.842 9.9 6.108 10.371 5.707"/>
      <polygon fill="#FF3000" points="4.779 0 4.717 .82 5.571 .957 5.701 .147"/>
      <polygon fill="#FF8D00" points="9.133 3.108 8.751 3.701 9.378 4.842 9.808 4.34"/>
      <polygon fill="#FF3400" points="5.701 .147 5.571 .957 6.424 1.327 6.622 .545"/>
      <polygon fill="#FF6800" points="8.362 2.046 8.036 2.717 8.751 3.701 9.132 3.108"/>
      <polygon fill="#FF3B00" points="6.622 .545 6.425 1.327 7.254 1.919 7.517 1.184"/>
      <polygon fill="#FF4E00" points="7.517 1.184 7.254 1.919 8.036 2.717 8.362 2.046"/>
    </g>
    <g fill-rule="nonzero" transform="translate(2.05 13.32)">
      <polygon fill="#0040FF" points="3.87 16.769 4.028 16.127 3.311 15.507 3.091 16.096"/>
      <polygon fill="#0058FF" points="3.091 16.096 3.31 15.506 2.641 14.717 2.366 15.24"/>
      <polygon fill="#0034FF" points="4.682 17.243 4.777 16.564 4.028 16.127 3.869 16.769"/>
      <polygon fill="#0074FF" points="2.366 15.24 2.642 14.717 2.039 13.778 1.712 14.223"/>
      <polygon fill="#002CFF" points="5.508 17.506 5.54 16.806 4.777 16.564 4.682 17.243"/>
      <polygon fill="#009CFF" points="1.712 14.223 2.039 13.778 1.516 12.713 1.145 13.068"/>
      <polygon fill="#0030FF" points="6.329 17.551 6.296 16.846 5.54 16.806 5.508 17.506"/>
      <polygon fill="#00C4FF" points="1.145 13.068 1.517 12.713 1.088 11.547 .68 11.804"/>
      <polygon fill="#003CFF" points="7.123 17.376 7.029 16.684 6.296 16.846 6.329 17.551"/>
      <polygon fill="#0CF4EB" points=".68 11.804 1.088 11.547 .764 10.309 .328 10.462"/>
      <polygon fill="#0050FF" points="7.871 16.983 7.718 16.32 7.029 16.683 7.123 17.376"/>
      <polygon fill="#36FFC1" points=".328 10.462 .764 10.309 .555 9.029 .099 9.074"/>
      <polygon fill="#006CFF" points="8.554 16.382 8.347 15.765 7.718 16.32 7.871 16.983"/>
      <polygon fill="#60FF97" points=".099 9.073 .554 9.028 .464 7.739 0 7.674"/>
      <polygon fill="#0090FF" points="9.154 15.585 8.9 15.029 8.347 15.765 8.554 16.382"/>
      <polygon fill="#8DFF6A" points="0 7.674 .464 7.739 .497 6.473 .035 6.299"/>
      <polygon fill="#00B8FF" points="9.655 14.613 9.361 14.131 8.9 15.029 9.154 15.585"/>
      <polygon fill="#B7FF40" points=".034 6.299 .497 6.473 .653 5.262 .202 4.984"/>
      <polygon fill="#02E8F4" points="10.044 13.487 9.718 13.093 9.361 14.132 9.655 14.613"/>
      <polygon fill="#E1FF16" points=".202 4.984 .653 5.262 .929 4.138 .501 3.763"/>
      <polygon fill="#29FFCE" points="10.308 12.235 9.96 11.939 9.717 13.093 10.043 13.487"/>
      <polygon fill="#FFDE00" points=".5 3.763 .928 4.138 1.318 3.132 .922 2.669"/>
      <polygon fill="#53FFA4" points="10.442 10.889 10.082 10.7 9.96 11.939 10.308 12.235"/>
      <polygon fill="#FFB600" points=".923 2.669 1.319 3.132 1.813 2.27 1.459 1.732"/>
      <polygon fill="#80FF77" points="10.439 9.485 10.078 9.407 10.082 10.7 10.442 10.89"/>
      <polygon fill="#FF9400" points="1.458 1.732 1.813 2.27 2.4 1.577 2.095 .977"/>
      <polygon fill="#ADFF49" points="10.297 8.058 9.948 8.094 10.078 9.407 10.438 9.485"/>
      <polygon fill="#F70" points="2.095 .977 2.4 1.577 3.064 1.072 2.817 .427"/>
      <polygon fill="#D7FF1F" points="10.022 6.646 9.694 6.795 9.948 8.093 10.298 8.058"/>
      <polygon fill="#FF6000" points="2.816 .427 3.064 1.073 3.789 .771 3.603 .098"/>
      <polygon fill="#FEED00" points="9.618 5.288 9.321 5.546 9.693 6.794 10.022 6.646"/>
      <polygon fill="#FF5200" points="3.604 .098 3.789 .771 4.554 .682 4.436 0"/>
      <polygon fill="#FFC400" points="9.096 4.022 8.841 4.382 9.321 5.546 9.618 5.289"/>
      <polygon fill="#FF4A00" points="4.436 0 4.554 .682 5.34 .809 5.29 .137"/>
      <polygon fill="#FF9F00" points="8.47 2.881 8.265 3.333 8.841 4.382 9.096 4.022"/>
      <polygon fill="#FF4A00" points="5.29 .137 5.34 .809 6.125 1.149 6.144 .506"/>
      <polygon fill="#FF7E00" points="7.756 1.897 7.608 2.428 8.265 3.332 8.47 2.881"/>
      <polygon fill="#F50" points="6.144 .507 6.125 1.149 6.888 1.694 6.973 1.099"/>
      <polygon fill="#FF6800" points="6.973 1.098 6.888 1.694 7.608 2.428 7.756 1.897"/>
    </g>
    <g fill-rule="nonzero" transform="translate(2.515 14.002)">
      <polygon fill="#005CFF" points="3.565 15.445 3.988 14.689 3.33 14.12 2.847 14.824"/>
      <polygon fill="#0070FF" points="2.847 14.824 3.33 14.12 2.717 13.396 2.178 14.035"/>
      <polygon fill="#004CFF" points="4.313 15.882 4.675 15.089 3.988 14.689 3.564 15.445"/>
      <polygon fill="#008CFF" points="2.178 14.035 2.717 13.397 2.165 12.536 1.575 13.097"/>
      <polygon fill="#0048FF" points="5.076 16.124 5.374 15.31 4.675 15.089 4.314 15.882"/>
      <polygon fill="#00ACFF" points="1.574 13.097 2.164 12.536 1.686 11.559 1.052 12.031"/>
      <polygon fill="#004CFF" points="5.832 16.165 6.067 15.346 5.374 15.31 5.076 16.124"/>
      <polygon fill="#00D4FF" points="1.052 12.031 1.687 11.559 1.295 10.49 .624 10.865"/>
      <polygon fill="#0054FF" points="6.565 16.002 6.739 15.196 6.068 15.347 5.833 16.165"/>
      <polygon fill="#16FFE1" points=".624 10.865 1.295 10.49 1 9.354 .3 9.627"/>
      <polygon fill="#0068FF" points="7.254 15.638 7.371 14.861 6.739 15.196 6.565 16.002"/>
      <polygon fill="#3CFFBA" points=".301 9.627 1 9.355 .809 8.182 .091 8.347"/>
      <polygon fill="#0080FF" points="7.883 15.083 7.947 14.351 7.371 14.862 7.254 15.639"/>
      <polygon fill="#63FF94" points=".09 8.347 .809 8.182 .728 7 0 7.058"/>
      <polygon fill="#00A0FF" points="8.436 14.348 8.453 13.676 7.947 14.351 7.883 15.083"/>
      <polygon fill="#8DFF6A" points=".001 7.057 .728 7 .76 5.84 .033 5.791"/>
      <polygon fill="#00C8FF" points="8.897 13.45 8.875 12.852 8.453 13.676 8.436 14.347"/>
      <polygon fill="#B4FF43" points=".033 5.791 .76 5.84 .904 4.732 .189 4.58"/>
      <polygon fill="#0CF4EB" points="9.254 12.411 9.202 11.9 8.875 12.852 8.897 13.449"/>
      <polygon fill="#DBFF1C" points=".189 4.58 .904 4.732 1.159 3.704 .465 3.456"/>
      <polygon fill="#30FFC7" points="9.497 11.258 9.424 10.843 9.202 11.9 9.254 12.411"/>
      <polygon fill="#FEED00" points=".465 3.456 1.159 3.704 1.517 2.784 .855 2.45"/>
      <polygon fill="#56FFA0" points="9.618 10.018 9.535 9.708 9.424 10.843 9.497 11.258"/>
      <polygon fill="#FFC800" points=".855 2.45 1.518 2.784 1.972 1.997 1.35 1.589"/>
      <polygon fill="#80FF77" points="9.627 8.725 9.532 8.525 9.536 9.708 9.632 10.019"/>
      <polygon fill="#FFA700" points="1.349 1.588 1.971 1.997 2.509 1.364 1.936 .895"/>
      <polygon fill="#A7FF50" points="9.484 7.412 9.412 7.323 9.532 8.525 9.615 8.725"/>
      <polygon fill="#FF8D00" points="1.936 .896 2.509 1.364 3.118 .904 2.6 .391"/>
      <polygon fill="#CEFF29" points="9.23 6.113 9.18 6.136 9.412 7.323 9.484 7.412"/>
      <polygon fill="#F70" points="2.601 .391 3.118 .903 3.782 .629 3.325 .089"/>
      <polygon fill="#F4F802" points="8.857 4.865 8.839 4.994 9.179 6.136 9.229 6.113"/>
      <polygon fill="#FF6C00" points="3.325 .089 3.781 .629 4.482 .548 4.09 0"/>
      <polygon fill="#FFD300" points="8.377 3.699 8.4 3.929 8.839 4.994 8.858 4.864"/>
      <polygon fill="#FF6400" points="4.091 0 4.482 .548 5.2 .665 4.876 .127"/>
      <polygon fill="#FFB200" points="7.801 2.651 7.873 2.971 8.4 3.93 8.377 3.7"/>
      <polygon fill="#FF6400" points="4.876 .127 5.2 .665 5.918 .976 5.661 .467"/>
      <polygon fill="#FF9400" points="7.144 1.746 7.273 2.145 7.873 2.971 7.801 2.65"/>
      <polygon fill="#FF6C00" points="5.661 .467 5.918 .976 6.615 1.474 6.424 1.012"/>
      <polygon fill="#FF7E00" points="6.424 1.012 6.615 1.474 7.273 2.145 7.143 1.746"/>
    </g>
    <g fill-rule="nonzero" transform="translate(1.588 11.546)">
      <polygon fill="#000CFF" points="4.449 19.326 4.348 19.03 3.511 18.306 3.556 18.553"/>
      <polygon fill="#0028FF" points="3.555 18.553 3.511 18.306 2.731 17.386 2.723 17.571"/>
      <polygon fill="#00F" points="5.382 19.871 5.223 19.54 4.349 19.03 4.449 19.326"/>
      <polygon fill="#004CFF" points="2.723 17.571 2.73 17.386 2.026 16.291 1.971 16.403"/>
      <polygon fill="#00F" points="6.331 20.174 6.112 19.824 5.222 19.541 5.382 19.871"/>
      <polygon fill="#0074FF" points="1.972 16.402 2.027 16.29 1.416 15.048 1.32 15.077"/>
      <polygon fill="#00F" points="7.274 20.226 6.995 19.873 6.112 19.824 6.331 20.173"/>
      <polygon fill="#00A8FF" points="1.32 15.077 1.416 15.049 .915 13.689 .785 13.626"/>
      <polygon fill="#0008FF" points="8.188 20.027 7.851 19.686 6.995 19.873 7.274 20.227"/>
      <polygon fill="#00E0FB" points=".785 13.626 .915 13.689 .536 12.243 .38 12.083"/>
      <polygon fill="#0020FF" points="9.05 19.578 8.657 19.264 7.851 19.685 8.189 20.027"/>
      <polygon fill="#2CFFCA" points=".379 12.083 .535 12.244 .288 10.749 .115 10.486"/>
      <polygon fill="#0040FF" points="9.837 18.89 9.393 18.619 8.657 19.265 9.05 19.579"/>
      <polygon fill="#5DFF9A" points=".116 10.486 .289 10.748 .181 9.241 0 8.875"/>
      <polygon fill="#0068FF" points="10.53 17.976 10.04 17.762 9.393 18.618 9.837 18.889"/>
      <polygon fill="#90FF66" points="0 8.876 .181 9.242 .217 7.76 .038 7.292"/>
      <polygon fill="#0098FF" points="11.11 16.858 10.582 16.716 10.04 17.762 10.53 17.976"/>
      <polygon fill="#C1FF36" points=".038 7.292 .217 7.76 .397 6.342 .229 5.775"/>
      <polygon fill="#0CF" points="11.561 15.563 11.002 15.503 10.582 16.715 11.11 16.858"/>
      <polygon fill="#F4F802" points=".23 5.775 .397 6.341 .718 5.024 .572 4.365"/>
      <polygon fill="#1CFFDB" points="11.87 14.123 11.289 14.155 11.002 15.503 11.561 15.563"/>
      <polygon fill="#FFC400" points=".571 4.365 .718 5.024 1.172 3.843 1.056 3.1"/>
      <polygon fill="#4DFFAA" points="12.027 12.572 11.435 12.705 11.289 14.155 11.87 14.123"/>
      <polygon fill="#FF9800" points="1.056 3.1 1.172 3.843 1.749 2.83 1.673 2.015"/>
      <polygon fill="#80FF77" points="12.027 10.953 11.433 11.19 11.435 12.705 12.027 12.572"/>
      <polygon fill="#FF6F00" points="1.673 2.015 1.749 2.83 2.435 2.014 2.407 1.14"/>
      <polygon fill="#B4FF43" points="11.869 9.305 11.283 9.65 11.433 11.19 12.027 10.952"/>
      <polygon fill="#FF4A00" points="2.407 1.139 2.436 2.014 3.214 1.419 3.239 .5"/>
      <polygon fill="#E4FF13" points="11.553 7.675 10.986 8.128 11.282 9.651 11.868 9.306"/>
      <polygon fill="#FF3000" points="3.239 .5 3.214 1.419 4.063 1.062 4.148 .116"/>
      <polygon fill="#FFD300" points="11.09 6.107 10.552 6.662 10.987 8.128 11.553 7.676"/>
      <polygon fill="#F20" points="4.147 .117 4.062 1.063 4.96 .955 5.107 0"/>
      <polygon fill="#FFA300" points="10.489 4.642 9.99 5.294 10.552 6.662 11.09 6.106"/>
      <polygon fill="#FF1A00" points="5.108 0 4.96 .955 5.882 1.102 6.094 .156"/>
      <polygon fill="#FF7A00" points="9.767 3.323 9.314 4.062 9.989 5.294 10.489 4.642"/>
      <polygon fill="#FF1A00" points="6.095 .156 5.882 1.102 6.803 1.5 7.081 .581"/>
      <polygon fill="#F50" points="8.942 2.186 8.543 3 9.314 4.062 9.766 3.323"/>
      <polygon fill="#FF2500" points="7.081 .58 6.804 1.5 7.699 2.138 8.039 1.264"/>
      <polygon fill="#FF3800" points="8.039 1.263 7.698 2.138 8.543 3 8.942 2.186"/>
    </g>
  </g>
</svg>
