<svg fill="none" version="1.1" viewBox="0 0 200 200" xml:space="preserve" xmlns="http://www.w3.org/2000/svg"><path d="m200 100a100 100 0 0 1-100 100 100 100 0 0 1-100-100 100 100 0 0 1 100-100 100 100 0 0 1 100 100z" style="fill:#222;stroke-width:.57082"/><g fill="url(#paint0_linear_1040_55244)"><path d="m101.39 56.146h47.101v5.3318h-47.101z" style="fill:url(#paint0_linear_1040_55244);stroke-width:.57082"/><path d="m52.51 56.146h95.98l-5.7e-4 2.666h-95.979z" style="fill:url(#paint0_linear_1040_55244);stroke-width:.57082"/><path d="m41.405 65.033h118.2v2.666h-118.2z" style="fill:url(#paint0_linear_1040_55244);stroke-width:.57082"/><path d="m34.739 73.921h131.53v2.6657h-131.53z" style="fill:url(#paint0_linear_1040_55244);stroke-width:.57082"/><path d="m28.517 91.695h143.97v2.6663h-143.97z" style="fill:url(#paint0_linear_1040_55244);stroke-width:.57082"/><path d="m30.739 82.808h139.53v2.6657h-139.53z" style="fill:url(#paint0_linear_1040_55244);stroke-width:.57082"/><path d="m90.279 65.033h69.323l-4e-3 4.8876h-69.319z" style="fill:url(#paint0_linear_1040_55244);stroke-width:.57082"/><path d="m83.618 73.921h82.648l1e-3 4.4433h-82.649z" style="fill:url(#paint0_linear_1040_55244);stroke-width:.57082"/><path d="m79.619 82.808h90.646l1e-3 3.9986h-90.647z" style="fill:url(#paint0_linear_1040_55244);stroke-width:.57082"/><path d="m77.396 91.695h95.09l1e-3 3.5545h-95.091z" style="fill:url(#paint0_linear_1040_55244);stroke-width:.57082"/><path d="m27.628 100.58h145.75v2.6657h-145.75z" style="fill:url(#paint0_linear_1040_55244);stroke-width:.57082"/><path d="m52.51 145h95.979v2.6657h-95.979z" style="fill:url(#paint0_linear_1040_55244);stroke-width:.57082"/><path d="m41.405 136.13h118.2v2.6657h-118.2z" style="fill:url(#paint0_linear_1040_55244);stroke-width:.57082"/><path d="m34.739 127.25h131.53v2.6657h-131.53z" style="fill:url(#paint0_linear_1040_55244);stroke-width:.57082"/><path d="m30.739 118.36h139.53v2.6663h-139.53z" style="fill:url(#paint0_linear_1040_55244);stroke-width:.57082"/><path d="m28.517 109.47h143.97v2.6657h-143.97z" style="fill:url(#paint0_linear_1040_55244);stroke-width:.57082"/><path d="m28.517 108.57h95.091v3.5545h-95.091z" style="fill:url(#paint0_linear_1040_55244);stroke-width:.57082"/><path d="m30.739 117.02h90.647v3.9986h-90.647z" style="fill:url(#paint0_linear_1040_55244);stroke-width:.57082"/><path d="m34.739 125.47h82.649v4.4433h-82.649z" style="fill:url(#paint0_linear_1040_55244);stroke-width:.57082"/><path d="m41.405 133.9h69.318v4.8874h-69.318z" style="fill:url(#paint0_linear_1040_55244);stroke-width:.57082"/><path d="m52.51 142.34h47.101v5.332h-47.101z" style="fill:url(#paint0_linear_1040_55244);stroke-width:.57082"/></g><defs><linearGradient id="paint0_linear_1040_55244" x1="182.16" x2="437.9" y1="152.63" y2="152.63" gradientTransform="matrix(.57082 0 0 .57082 -76.35 16.368)" gradientUnits="userSpaceOnUse"><stop stop-color="#C7D605" offset="0"/><stop stop-color="#00D254" offset="1"/></linearGradient></defs></svg>
