<svg width="32" height="32" viewBox="0 0 32 32" fill="none" xmlns="http://www.w3.org/2000/svg">
<g clip-path="url(#clip0_543_217098)">
<path d="M32 16C32 7.16344 24.8366 0 16 0C7.16344 0 0 7.16344 0 16C0 24.8366 7.16344 32 16 32C24.8366 32 32 24.8366 32 16Z" fill="#0052FF"/>
<path fill-rule="evenodd" clip-rule="evenodd" d="M15.0875 4.875V10.7647C13.1035 11.0598 11.9616 12.353 11.9616 13.9038C11.9616 15.8865 13.2617 16.7101 15.106 17.0304L16.2248 17.2288C17.2679 17.4118 17.7668 17.549 17.7668 18.3116C17.7668 19.0436 17.2074 19.6232 16.0131 19.6232C14.8339 19.6232 14.1082 19.1046 14.1082 18.0522H11.75C11.75 19.8215 13.0652 21.0874 15.106 21.362V23.4058H16.9504V21.3468C18.8854 21.0416 20.125 19.8368 20.125 18.1133C20.125 16.0238 18.6738 15.2918 16.8899 15.0173L15.8165 14.8494C14.8641 14.6969 14.3351 14.4834 14.3351 13.7055C14.3351 13.0955 14.7886 12.5006 15.9375 12.5006C17.1317 12.5006 17.6306 13.0802 17.6306 13.858H19.989C19.9588 12.3817 18.9049 11.1028 16.9625 10.7792V4.88952C22.6607 5.4071 27.125 10.1976 27.125 16.0308C27.125 22.2094 22.1161 27.2183 15.9375 27.2183C9.75881 27.2183 4.75 22.2094 4.75 16.0308C4.75 10.138 9.3059 5.30934 15.0875 4.875Z" fill="white"/>
</g>
<defs>
<clipPath id="clip0_543_217098">
<rect width="32" height="32" fill="white"/>
</clipPath>
</defs>
</svg>
