<svg width="256" height="256" viewBox="0 0 256 256" fill="none" xmlns="http://www.w3.org/2000/svg">
<g clip-path="url(#clip0_29_64)">
<g clip-path="url(#clip1_29_64)">
<path d="M128 256C198.692 256 256 198.692 256 128C256 57.3076 198.692 0 128 0C57.3076 0 0 57.3076 0 128C0 198.692 57.3076 256 128 256Z" fill="url(#paint0_linear_29_64)"/>
<path d="M204.133 107.11H188.927C180.428 84.07 158.309 67.6348 132.3 67.6348H79.5124V107.11H62.7188V120.934H79.5124V135.731H62.7188V149.555H79.5124V188.364H132.3C158.053 188.364 180.018 172.236 188.671 149.555H204.133V135.731H192.152C192.46 133.222 192.664 130.611 192.664 128C192.664 125.593 192.511 123.238 192.255 120.934H204.184V107.11H204.133ZM93.3364 80.8444H131.736C150.117 80.8444 165.938 91.5964 173.362 107.11H93.3364V80.8444ZM131.736 175.155H93.3364V149.555H173.055C165.528 164.71 149.861 175.155 131.736 175.155ZM177.868 126.976V129.075C177.868 131.328 177.714 133.58 177.407 135.731H93.3364V120.934H177.458C177.714 122.931 177.868 124.928 177.868 126.976Z" fill="white"/>
</g>
<circle cx="128" cy="128" r="118" stroke="#9B6AFF" stroke-width="20"/>
</g>
<defs>
<linearGradient id="paint0_linear_29_64" x1="37.4903" y1="37.4903" x2="218.51" y2="218.51" gradientUnits="userSpaceOnUse">
<stop stop-color="#F9AF1A"/>
<stop offset="1" stop-color="#FBC349"/>
</linearGradient>
<clipPath id="clip0_29_64">
<rect width="256" height="256" fill="white"/>
</clipPath>
<clipPath id="clip1_29_64">
<rect width="256" height="256" fill="white"/>
</clipPath>
</defs>
</svg>
