<svg width="741" height="741" viewBox="0 0 741 741" fill="none" xmlns="http://www.w3.org/2000/svg">
<path d="M740.7 370.3C740.7 574.6 575.1 740.2 370.8 740.2C166.5 740.2 80.2 642.8 26.3 505.2C9.90003 463.4 0.900024 417.9 0.900024 370.3C0.900024 166 166.5 0.399994 370.8 0.399994C575.1 0.399994 735.1 160.4 740.6 359.9C740.6 363.3 740.6 366.8 740.6 370.3H740.7Z" fill="url(#paint0_radial_1366_5356)"/>
<path style="mix-blend-mode:color-dodge" d="M446.9 679.1C424 681.6 269.9 696.2 158 586C60.3 489.8 57.2001 359.9 56.0001 308C54.8001 255.8 62.7001 212.8 70.0001 183.6C52.1001 213.2 38.4 245.6 29.7 280.1C29.7 280.1 19.4001 321.3 19.3001 365.2C18.7001 554.1 148 652 148 652C225.9 711 308.6 713.7 374 715.8C474 719 522.6 686.7 533.8 678.8C541.4 673.5 547.3 668.5 551.2 665C536.3 669.1 519.2 672.9 500 675.5C480.4 678.2 462.5 679.2 446.8 679.2L446.9 679.1Z" fill="url(#paint1_linear_1366_5356)"/>
<path style="mix-blend-mode:color-dodge" d="M629.1 245.2L703.7 245.9C667.2 149.1 590.8 69.2 490 30.8L466 94.9C539.1 122.9 596.4 177.7 629 245.2H629.1Z" fill="url(#paint2_linear_1366_5356)"/>
<path style="mix-blend-mode:color-dodge" d="M111.1 337.9C115.2 273.5 140.7 215.6 180.1 170.5L136.5 123.1C85.5 179.2 52.3 252.3 47.2 333.8C44.8 370.7 48.4 406.6 57 440.7L115.1 406.4C111.1 384.3 109.6 361.3 111.1 337.9Z" fill="url(#paint3_linear_1366_5356)"/>
<path style="mix-blend-mode:color-dodge" d="M722.8 348.9L655.4 333.1C649.7 432.3 596 518.7 517 569.2L548.9 630C645.3 570.4 712.2 467.8 722.8 348.9Z" fill="url(#paint4_linear_1366_5356)"/>
<path style="mix-blend-mode:color-dodge" d="M201.5 77.3L242.8 137.1C273.1 114.2 302.4 101.8 339.9 91.6L324 33.1C288.4 33.1 239.9 51.6 201.5 77.3Z" fill="url(#paint5_linear_1366_5356)"/>
<defs>
<radialGradient id="paint0_radial_1366_5356" cx="0" cy="0" r="1" gradientUnits="userSpaceOnUse" gradientTransform="translate(370.8 370.3) scale(369.9)">
<stop stop-color="#FF8416"/>
<stop offset="0.4" stop-color="#9B000D"/>
<stop offset="1" stop-color="#0D0000"/>
</radialGradient>
<linearGradient id="paint1_linear_1366_5356" x1="352" y1="388.5" x2="22.8001" y2="673.6" gradientUnits="userSpaceOnUse">
<stop stop-color="#070707"/>
<stop offset="0.3" stop-color="#1A1A1A"/>
<stop offset="0.5" stop-color="#3B3B3B"/>
<stop offset="0.8" stop-color="#686868"/>
<stop offset="1" stop-color="#949494"/>
</linearGradient>
<linearGradient id="paint2_linear_1366_5356" x1="481.4" y1="251.5" x2="772.1" y2="-33.5" gradientUnits="userSpaceOnUse">
<stop stop-color="#070707"/>
<stop offset="0.3" stop-color="#1A1A1A"/>
<stop offset="0.5" stop-color="#3B3B3B"/>
<stop offset="0.8" stop-color="#686868"/>
<stop offset="1" stop-color="#949494"/>
</linearGradient>
<linearGradient id="paint3_linear_1366_5356" x1="22.6" y1="237.8" x2="259.9" y2="378.9" gradientUnits="userSpaceOnUse">
<stop stop-color="#070707"/>
<stop offset="0.3" stop-color="#1A1A1A"/>
<stop offset="0.5" stop-color="#3B3B3B"/>
<stop offset="0.8" stop-color="#686868"/>
<stop offset="1" stop-color="#949494"/>
</linearGradient>
<linearGradient id="paint4_linear_1366_5356" x1="428" y1="385" x2="849.1" y2="596.6" gradientUnits="userSpaceOnUse">
<stop stop-color="#070707"/>
<stop offset="0.3" stop-color="#1A1A1A"/>
<stop offset="0.5" stop-color="#3B3B3B"/>
<stop offset="0.8" stop-color="#686868"/>
<stop offset="1" stop-color="#949494"/>
</linearGradient>
<linearGradient id="paint5_linear_1366_5356" x1="349.4" y1="262.7" x2="241.1" y2="3.40001" gradientUnits="userSpaceOnUse">
<stop stop-color="#070707"/>
<stop offset="0.3" stop-color="#1A1A1A"/>
<stop offset="0.5" stop-color="#3B3B3B"/>
<stop offset="0.8" stop-color="#686868"/>
<stop offset="1" stop-color="#949494"/>
</linearGradient>
</defs>
</svg>
