<svg width="590" height="585" viewBox="0 0 590 585" fill="none" xmlns="http://www.w3.org/2000/svg">
<rect x="0.5" y="0.5" width="589" height="584" fill="white" stroke="#B8B8B8"/>
<path d="M24.0789 29H17.6529V18.99H18.6749V28.104H24.0789V29ZM27.6719 29.196C25.5299 29.196 24.2419 27.656 24.2419 25.444C24.2419 23.218 25.5299 21.678 27.6719 21.678C29.8139 21.678 31.1019 23.218 31.1019 25.444C31.1019 27.656 29.8139 29.196 27.6719 29.196ZM27.6719 28.398C29.3379 28.398 30.1499 27.082 30.1499 25.444C30.1499 23.792 29.3379 22.476 27.6719 22.476C26.0059 22.476 25.1939 23.792 25.1939 25.444C25.1939 27.082 26.0059 28.398 27.6719 28.398ZM37.6079 22.98V21.86H38.5179V28.552C38.5179 30.582 37.2579 31.562 35.2979 31.562C33.3659 31.562 32.3439 30.624 32.2319 29.378H33.1839C33.3239 30.148 33.9259 30.764 35.3119 30.764C36.7539 30.764 37.6079 30.134 37.6079 28.678V27.348H37.5799C37.1599 28.09 36.3759 28.664 35.1719 28.664C33.4639 28.664 32.0359 27.544 32.0359 25.164C32.0359 22.812 33.4639 21.692 35.1719 21.692C36.3759 21.692 37.1599 22.266 37.5799 22.98H37.6079ZM35.2979 27.866C36.6139 27.866 37.6079 26.998 37.6079 25.164C37.6079 23.358 36.6139 22.49 35.2979 22.49C33.8279 22.49 32.9879 23.554 32.9879 25.164C32.9879 26.802 33.8279 27.866 35.2979 27.866ZM43.2169 29.196C41.0749 29.196 39.7869 27.656 39.7869 25.444C39.7869 23.218 41.0749 21.678 43.2169 21.678C45.3589 21.678 46.6469 23.218 46.6469 25.444C46.6469 27.656 45.3589 29.196 43.2169 29.196ZM43.2169 28.398C44.8829 28.398 45.6949 27.082 45.6949 25.444C45.6949 23.792 44.8829 22.476 43.2169 22.476C41.5509 22.476 40.7389 23.792 40.7389 25.444C40.7389 27.082 41.5509 28.398 43.2169 28.398ZM49.2748 29V21.37C48.8128 21.86 48.1268 21.93 47.2588 21.93V21.076C48.9528 21.034 49.3588 20.502 49.4708 19.326H50.2828V29H49.2748Z" fill="#999999"/>
<path d="M354.15 256.868L312.304 238.216L283.968 244.76V246.724L319.882 265.704L354.15 257.196V256.868Z" fill="url(#paint0_linear_29803_5967)"/>
<path d="M366.67 317.08L315.27 293.519L273.424 304.645V307.263L317.576 331.479L367 317.08H366.67Z" fill="url(#paint1_linear_29803_5967)"/>
<path d="M283.968 246.724L312.304 240.179L343.935 232.98V214L283.968 227.09V246.724V246.724Z" fill="#0007B9"/>
<path d="M354.15 256.868L319.882 265.377L273.424 276.83V307.263L315.27 296.137L354.15 285.665V256.868V256.868Z" fill="#0007B9"/>
<path d="M224 358.967C233.885 373.038 247.065 384.819 262.551 393L366.671 359.294V317.08L317.247 331.479L224 358.64V358.967Z" fill="#0007B9"/>
<defs>
<linearGradient id="paint0_linear_29803_5967" x1="298.004" y1="260.206" x2="340.113" y2="260.206" gradientUnits="userSpaceOnUse">
<stop stop-color="#0007B9"/>
<stop offset="1" stop-color="white" stop-opacity="0.01"/>
</linearGradient>
<linearGradient id="paint1_linear_29803_5967" x1="291.81" y1="294.108" x2="347.955" y2="294.108" gradientUnits="userSpaceOnUse">
<stop stop-color="#0007B9"/>
<stop offset="1" stop-color="white" stop-opacity="0.01"/>
</linearGradient>
</defs>
</svg>
