<svg width="32" height="32" viewBox="0 0 32 32" fill="none" xmlns="http://www.w3.org/2000/svg">
<g clip-path="url(#clip0_144_585372)">
<path d="M26 16C26 23.1797 20.1797 29 13 29C5.8203 29 0 23.1797 0 16C0 8.8203 5.8203 3 13 3C20.1797 3 26 8.8203 26 16Z" fill="white"/>
<path fill-rule="evenodd" clip-rule="evenodd" d="M13 27.375C19.2822 27.375 24.375 22.2822 24.375 16C24.375 9.71776 19.2822 4.625 13 4.625C6.71776 4.625 1.625 9.71776 1.625 16C1.625 22.2822 6.71776 27.375 13 27.375ZM13 29C20.1797 29 26 23.1797 26 16C26 8.8203 20.1797 3 13 3C5.8203 3 0 8.8203 0 16C0 23.1797 5.8203 29 13 29Z" fill="url(#paint0_linear_144_585372)"/>
<path fill-rule="evenodd" clip-rule="evenodd" d="M13 8.6875C14.4463 8.6875 15.8601 9.11632 17.0626 9.91994C18.2651 10.7234 19.2024 11.8654 19.7559 13.2016C20.3093 14.5379 20.4541 16.0081 20.172 17.4266C19.8898 18.8452 19.1934 20.1481 18.1707 21.1708C17.148 22.1934 15.8451 22.8899 14.4266 23.172C13.0081 23.4542 11.5378 23.3093 10.2016 22.7559C8.86544 22.2024 7.72337 21.2652 6.91988 20.0626C6.11638 18.86 5.6875 17.4463 5.6875 16H7.39485C7.39485 17.1086 7.72358 18.1923 8.3395 19.114C8.95539 20.0358 9.8308 20.7542 10.855 21.1785C11.8792 21.6027 13.0062 21.7138 14.0935 21.4975C15.1808 21.2812 16.1795 20.7473 16.9634 19.9635C17.7473 19.1796 18.2812 18.1808 18.4974 17.0936C18.7137 16.0062 18.6027 14.8792 18.1785 13.8551C17.7542 12.8308 17.0358 11.9554 16.1141 11.3395C15.1923 10.7236 14.1086 10.3948 13 10.3948V10.3938H5.6875V8.6875H13ZM15.7084 11.9466C14.9067 11.4109 13.9642 11.125 13 11.125H5.6875V12.8202H13C13.6289 12.8202 14.2437 13.0067 14.7666 13.356C15.2896 13.7055 15.6971 14.2021 15.9378 14.7832C16.1785 15.3642 16.2414 16.0036 16.1188 16.6203C15.9961 17.2372 15.6932 17.8037 15.2485 18.2485C14.8038 18.6932 14.2372 18.9961 13.6204 19.1188C13.0035 19.2415 12.3642 19.1785 11.7831 18.9379C11.2021 18.6971 10.7055 18.2896 10.3561 17.7666C10.0067 17.2438 9.82015 16.6289 9.82015 16H8.125C8.125 16.9642 8.41091 17.9067 8.94658 18.7084C9.48226 19.5101 10.2436 20.135 11.1344 20.5039C12.0252 20.8729 13.0054 20.9694 13.9511 20.7814C14.8967 20.5933 15.7654 20.1289 16.4471 19.4472C17.1289 18.7654 17.5932 17.8967 17.7813 16.9511C17.9694 16.0054 17.8729 15.0253 17.5039 14.1344C17.1349 13.2437 16.5101 12.4823 15.7084 11.9466ZM14.3542 13.9734C13.9534 13.7055 13.4821 13.5625 13 13.5625H5.6875V15.2915H13C13.1401 15.2915 13.2771 15.333 13.3936 15.4109C13.5101 15.4887 13.601 15.5994 13.6546 15.7289C13.7082 15.8584 13.7222 16.0008 13.6949 16.1382C13.6676 16.2757 13.6001 16.4019 13.501 16.501C13.4019 16.6001 13.2757 16.6676 13.1382 16.695C13.0008 16.7222 12.8583 16.7082 12.7289 16.6546C12.5994 16.6009 12.4888 16.5101 12.4109 16.3936C12.3761 16.3416 12.3486 16.2854 12.3288 16.2267C12.3188 16.1973 12.3108 16.1672 12.3048 16.1368C12.296 16.0919 12.2915 16.0461 12.2915 16H10.5625C10.5625 16.4822 10.7055 16.9534 10.9733 17.3542C11.2411 17.7551 11.6218 18.0675 12.0672 18.252C12.5126 18.4364 13.0027 18.4848 13.4755 18.3906C13.9484 18.2966 14.3827 18.0645 14.7236 17.7236C15.0645 17.3827 15.2966 16.9484 15.3907 16.4755C15.4847 16.0028 15.4365 15.5126 15.2519 15.0673C15.0675 14.6218 14.755 14.2412 14.3542 13.9734Z" fill="url(#paint1_linear_144_585372)"/>
</g>
<path fill-rule="evenodd" clip-rule="evenodd" d="M32 25C32 24.0838 31.8177 23.1677 31.4672 22.3212C31.1166 21.4748 30.5976 20.6981 29.9497 20.0503C29.3019 19.4024 28.5252 18.8834 27.6788 18.5328C26.8323 18.1823 25.9162 18 25 18C24.0838 18 23.1677 18.1823 22.3212 18.5328C21.4748 18.8834 20.6981 19.4024 20.0503 20.0503C19.4024 20.6981 18.8834 21.4748 18.5328 22.3212C18.1823 23.1677 18 24.0838 18 25C18 25.9162 18.1823 26.8323 18.5328 27.6788C18.8834 28.5252 19.4024 29.3019 20.0503 29.9497C20.6981 30.5976 21.4748 31.1166 22.3212 31.4672C23.1677 31.8177 24.0838 32 25 32C25.9162 32 26.8323 31.8177 27.6788 31.4672C28.5252 31.1166 29.3019 30.5976 29.9497 29.9497C30.5976 29.3019 31.1166 28.5252 31.4672 27.6788C31.8177 26.8323 32 25.9162 32 25Z" fill="white"/>
<path fill-rule="evenodd" clip-rule="evenodd" d="M21.9375 24.8746L24.9988 19.75L28.0608 24.8746L24.9988 26.7003L21.9375 24.8746ZM24.9988 29.8125L21.9375 25.4605L24.9988 27.2852L28.0625 25.4605L24.9988 29.8125Z" fill="black"/>
<path fill-rule="evenodd" clip-rule="evenodd" d="M25.2238 11.2769C25.9446 11.0075 26.6934 10.8117 27.443 10.6344C28.0423 10.4926 28.6422 10.3627 29.24 10.2085C29.6132 10.1122 29.9854 10.0066 30.3336 9.84092C30.612 9.70845 30.8746 9.53795 31.0907 9.32116C31.3065 9.10438 31.4758 8.84169 31.6024 8.56289C31.7609 8.21439 31.8528 7.84059 31.9164 7.46154C31.9928 7.00699 32.0285 6.54494 31.9731 6.09245C31.9176 5.63996 31.771 5.19684 31.5718 4.78107C31.3727 4.36511 31.121 3.9767 30.8217 3.62932C30.4224 3.16577 29.9386 2.7753 29.4269 2.43242C28.7866 2.00316 28.1028 1.64829 27.4016 1.33257C26.7002 1.01686 25.9813 0.740493 25.2476 0.506471C24.6603 0.319291 24.0637 0.159279 23.4534 0.07028C22.9965 0.00357722 22.5319 -0.0232163 22.071 0.0234382C21.6108 0.0700926 21.1545 0.190008 20.7422 0.396112C20.3299 0.602216 19.9616 0.894321 19.6478 1.23139C19.3334 1.56884 19.0734 1.95145 18.8571 2.35635C18.6405 2.76162 18.4678 3.18938 18.3363 3.62876C18.2048 4.06832 18.1145 4.51969 18.0607 4.97518C17.989 5.58225 17.9822 6.19644 18.0329 6.80482C18.0964 7.56497 18.2496 8.31631 18.4249 9.06241C18.6005 9.80832 18.7981 10.5494 19.0987 11.2529C19.3391 11.8154 19.6452 12.3543 20.0491 12.8176C20.3012 13.1069 20.5916 13.3668 20.9183 13.5705C21.1796 13.7335 21.4641 13.8603 21.763 13.9319C21.9875 13.9857 22.2201 14.008 22.4514 13.9975C22.6825 13.987 22.9124 13.9435 23.1301 13.8673C23.4197 13.7657 23.6882 13.6059 23.9236 13.4088C24.2184 13.162 24.4616 12.8566 24.6626 12.5293C24.9041 12.1365 25.0847 11.7123 25.2238 11.2769Z" fill="white"/>
<path d="M24.0667 4.46106L23.9619 4.60578L24.0509 5.33761L24.1332 5.16718L24.0667 4.46106Z" fill="#FBF100"/>
<path d="M22.7095 0.97226L22.1509 1.00649L22.4266 1.105L22.9164 1.07078L22.7095 0.97226Z" fill="#A40000"/>
<path d="M23.9683 3.7756L23.8306 3.89579L23.9615 4.60569L24.0662 4.46097L23.9683 3.7756Z" fill="#FFAE00"/>
<path d="M22.9165 1.0708L22.4268 1.10503L22.7029 1.32284L23.1235 1.28409L22.9165 1.0708Z" fill="#A80000"/>
<path d="M23.8414 3.13034L23.6611 3.22791L23.8306 3.89597L23.9684 3.77578L23.8414 3.13034Z" fill="#FF7300"/>
<path d="M23.1232 1.28406L22.7026 1.3228L22.9715 1.65446L23.3248 1.60679L23.1232 1.28406Z" fill="#B60000"/>
<path d="M23.6889 2.54285L23.4575 2.62039L23.6611 3.22774L23.8414 3.13017L23.6889 2.54285Z" fill="#FF3F00"/>
<path d="M23.3249 1.60684L22.9717 1.65451L23.2257 2.0911L23.5153 2.03036L23.3249 1.60684Z" fill="#D60000"/>
<path d="M23.5152 2.03021L23.2256 2.09095L23.4576 2.62039L23.689 2.54284L23.5152 2.03021Z" fill="#FF1300"/>
<path d="M25.1913 6.75552L24.7068 6.85733L24.6831 7.4035L25.1862 7.27192L25.1913 6.75552Z" fill="#16FFE1"/>
<path d="M25.1959 6.1958L24.7201 6.26394L24.707 6.85738L25.1916 6.75557L25.1959 6.1958Z" fill="#4DFFAA"/>
<path d="M25.1994 5.60715L24.7222 5.6386L24.7202 6.26394L25.196 6.1958L25.1994 5.60715Z" fill="#80FF77"/>
<path d="M25.2011 5.00521L24.7124 4.99796L24.7217 5.63867L25.1989 5.60722L25.2011 5.00521Z" fill="#B7FF40"/>
<path d="M25.2026 4.40616L24.6924 4.35928L24.7127 4.99807L25.2015 5.00532L25.2026 4.40616Z" fill="#EBFF0C"/>
<path d="M25.1731 1.48143L24.2466 1.21487L24.3158 1.30251L25.1797 1.55926L25.1731 1.48143Z" fill="#ED0400"/>
<path d="M25.2028 3.82618L24.6616 3.73993L24.6926 4.35926L25.2028 4.40614L25.2028 3.82618Z" fill="#FFCC00"/>
<path d="M25.1792 1.55945L24.3154 1.3027L24.3844 1.49403L25.1853 1.7347L25.1792 1.55945Z" fill="#F10800"/>
<path d="M25.2013 3.28147L24.6206 3.15726L24.6614 3.73992L25.2025 3.82617L25.2013 3.28147Z" fill="#FF9800"/>
<path d="M25.1857 1.73457L24.3848 1.4939L24.4515 1.78412L25.191 2.00282L25.1857 1.73457Z" fill="#FF1300"/>
<path d="M25.1991 2.78704L24.5713 2.62741L24.6208 3.15716L25.2015 3.28137L25.1991 2.78704Z" fill="#FF6C00"/>
<path d="M25.1906 2.00273L24.4512 1.78403L24.5139 2.16536L25.1951 2.35679L25.1906 2.00273Z" fill="#FF2900"/>
<path d="M25.1954 2.35702L24.5142 2.16559L24.5711 2.62757L25.1989 2.7872L25.1954 2.35702Z" fill="#FF4700"/>
<path d="M24.7072 6.85754L24.3501 7.01278L24.3062 7.58706L24.6835 7.40371L24.7072 6.85754Z" fill="#13FCE4"/>
<path d="M24.7202 6.26398L24.373 6.38779L24.3501 7.01265L24.7072 6.85742L24.7202 6.26398Z" fill="#49FFAD"/>
<path d="M24.7222 5.63864L24.3501 5.72862L24.373 6.3878L24.7202 6.26399L24.7222 5.63864Z" fill="#80FF77"/>
<path d="M24.713 4.99796L24.3525 5.05242L24.3739 5.72859L24.7223 5.63867L24.713 4.99796Z" fill="#BAFF3C"/>
<path d="M24.6924 4.35934L24.3091 4.37779L24.3523 5.05258L24.7128 4.99812L24.6924 4.35934Z" fill="#F1FC06"/>
<path d="M24.2467 1.21498L23.4146 1.04279L23.5515 1.13752L24.316 1.30262L24.2467 1.21498Z" fill="#D10000"/>
<path d="M24.6616 3.73978L24.2451 3.72272L24.3092 4.37754L24.6926 4.35909L24.6616 3.73978Z" fill="#FFC100"/>
<path d="M24.3163 1.30255L23.5518 1.13745L23.6887 1.34171L24.3852 1.49388L24.3163 1.30255Z" fill="#D60000"/>
<path d="M24.6211 3.15719L24.1621 3.10617L24.2454 3.72279L24.6619 3.73985L24.6211 3.15719Z" fill="#FF8900"/>
<path d="M24.3851 1.49385L23.6885 1.34167L23.8216 1.65033L24.4518 1.78405L24.3851 1.49385Z" fill="#E40000"/>
<path d="M24.5713 2.62749L24.0615 2.5451L24.1618 3.10621L24.6208 3.15723L24.5713 2.62749Z" fill="#FF5D00"/>
<path d="M24.452 1.78426L23.8218 1.65054L23.9473 2.05537L24.5147 2.1656L24.452 1.78426Z" fill="#FF1300"/>
<path d="M24.5147 2.16543L23.9473 2.05521L24.0618 2.54502L24.5715 2.62741L24.5147 2.16543Z" fill="#FF3400"/>
<path d="M25.7773 6.70844L25.1922 6.75578L25.187 7.27218L25.7882 7.19393L25.7773 6.70844Z" fill="#1CFFDB"/>
<path d="M25.7739 6.18365L25.1962 6.19578L25.1919 6.75556L25.777 6.70821L25.7739 6.18365Z" fill="#50FFA7"/>
<path d="M25.7788 5.63371L25.1996 5.60724L25.1963 6.19591L25.7739 6.18378L25.7788 5.63371Z" fill="#80FF77"/>
<path d="M25.7915 5.07253L25.202 5.00513L25.1997 5.60712L25.7789 5.6336L25.7915 5.07253Z" fill="#B4FF43"/>
<path d="M25.812 4.51568L25.2033 4.40619L25.2021 5.00535L25.7917 5.07275L25.812 4.51568Z" fill="#E4FF13"/>
<path d="M25.8393 3.97761L25.2031 3.82608L25.2032 4.40603L25.8119 4.51552L25.8393 3.97761Z" fill="#FFD700"/>
<path d="M26.1505 1.83138L25.1733 1.48163L25.18 1.55946L26.1017 1.89739L26.1505 1.83138Z" fill="#FF1E00"/>
<path d="M25.8729 3.47364L25.2017 3.28137L25.2029 3.82609L25.8391 3.97762L25.8729 3.47364Z" fill="#FFA700"/>
<path d="M26.1019 1.89726L25.1802 1.55933L25.1862 1.73458L26.0523 2.05413L26.1019 1.89726Z" fill="#FF1E00"/>
<path d="M25.9122 3.01764L25.1992 2.78714L25.2016 3.28146L25.8729 3.47373L25.9122 3.01764Z" fill="#FF7E00"/>
<path d="M26.0521 2.05417L25.186 1.73462L25.1914 2.00286L26.0031 2.29794L26.0521 2.05417Z" fill="#FF2900"/>
<path d="M25.956 2.622L25.1958 2.3569L25.1993 2.78707L25.9123 3.01757L25.956 2.622Z" fill="#FF5900"/>
<path d="M26.0031 2.29779L25.1914 2.00272L25.1959 2.35677L25.9561 2.62187L26.0031 2.29779Z" fill="#FF3B00"/>
<path d="M24.3713 10.5931L25.1576 10.2959L25.0009 10.3792L24.2031 10.6827L24.3713 10.5931Z" fill="#00CCFF"/>
<path d="M24.5253 10.4573L25.3014 10.1696L25.1579 10.296L24.3716 10.5932L24.5253 10.4573Z" fill="#00DCFE"/>
<path d="M24.6602 10.2782L25.4275 10.0033L25.301 10.1695L24.5249 10.4572L24.6602 10.2782Z" fill="#09F0EE"/>
<path d="M24.7734 10.0605L25.5336 9.8013L25.4275 10.0034L24.6602 10.2783L24.7734 10.0605Z" fill="#1CFFDB"/>
<path d="M24.8616 9.80943L25.6165 9.56836L25.5336 9.80133L24.7734 10.0606L24.8616 9.80943Z" fill="#33FFC4"/>
<path d="M24.9225 9.53115L25.6742 9.3103L25.6167 9.56823L24.8618 9.80931L24.9225 9.53115Z" fill="#4DFFAA"/>
<path d="M24.9539 9.23322L25.7045 9.03415L25.674 9.31045L24.9224 9.5313L24.9539 9.23322Z" fill="#63FF94"/>
<path d="M24.9555 8.92284L25.7071 8.74655L25.7046 9.03408L24.9541 9.23315L24.9555 8.92284Z" fill="#7DFF7A"/>
<path d="M24.9263 8.60844L25.6811 8.45532L25.7068 8.74658L24.9552 8.92288L24.9263 8.60844Z" fill="#97FF60"/>
<path d="M24.8677 8.29808L25.6278 8.16791L25.6812 8.45524L24.9264 8.60836L24.8677 8.29808Z" fill="#B1FF46"/>
<path d="M24.7808 8.00016L25.5482 7.89209L25.6279 8.16787L24.8677 8.29804L24.7808 8.00016Z" fill="#C7FF30"/>
<path d="M24.6675 7.72273L25.444 7.63531L25.548 7.89219L24.7805 8.00025L24.6675 7.72273Z" fill="#DEFF19"/>
<path d="M23.646 6.84135L24.4987 6.81979L24.6739 6.84814L23.8348 6.872L23.646 6.84135Z" fill="#FFCC00"/>
<path d="M24.5312 7.47304L25.3185 7.40424L25.444 7.63531L24.6675 7.72272L24.5312 7.47304Z" fill="#F1FC06"/>
<path d="M23.835 6.87198L24.6741 6.84811L24.8483 6.92327L24.0228 6.95322L23.835 6.87198Z" fill="#FFCC00"/>
<path d="M24.3755 7.25775L25.1747 7.20502L25.3184 7.40408L24.5312 7.47288L24.3755 7.25775Z" fill="#FFEA00"/>
<path d="M24.0225 6.95317L24.8479 6.92322L25.0164 7.04324L24.2044 7.0829L24.0225 6.95317Z" fill="#FFD000"/>
<path d="M24.2046 7.08294L25.0166 7.04327L25.1749 7.20498L24.3757 7.25771L24.2046 7.08294Z" fill="#FFDB00"/>
<path d="M24.353 5.05231L24.1333 5.16701L24.1668 5.87442L24.3744 5.72847L24.353 5.05231Z" fill="#BEFF39"/>
<path d="M24.3094 4.37753L24.0664 4.46089L24.1329 5.16703L24.3526 5.05233L24.3094 4.37753Z" fill="#F8F500"/>
<path d="M23.4148 1.04276L22.7095 0.972229L22.9163 1.07075L23.5517 1.13749L23.4148 1.04276Z" fill="#BB0000"/>
<path d="M24.2456 3.72272L23.9688 3.77555L24.0667 4.46092L24.3097 4.37756L24.2456 3.72272Z" fill="#FFB900"/>
<path d="M23.5514 1.13755L22.916 1.0708L23.1231 1.28409L23.6883 1.3418L23.5514 1.13755Z" fill="#BF0000"/>
<path d="M24.1618 3.10605L23.8413 3.13009L23.9682 3.77552L24.2451 3.72268L24.1618 3.10605Z" fill="#FF7E00"/>
<path d="M23.6888 1.34186L23.1235 1.28415L23.3251 1.60688L23.8219 1.65053L23.6888 1.34186Z" fill="#CD0000"/>
<path d="M24.0621 2.54515L23.6895 2.543L23.8419 3.13032L24.1624 3.10628L24.0621 2.54515Z" fill="#FF4E00"/>
<path d="M23.822 1.65049L23.3252 1.60684L23.5156 2.03037L23.9476 2.05531L23.822 1.65049Z" fill="#E80000"/>
<path d="M23.9471 2.05534L23.5151 2.0304L23.689 2.54301L24.0616 2.54516L23.9471 2.05534Z" fill="#FF2200"/>
<path d="M23.8859 10.7627L24.5254 10.4572L24.3717 10.5931L23.7192 10.9105L23.8859 10.7627Z" fill="#00D0FF"/>
<path d="M24.0317 10.568L24.6601 10.2782L24.5248 10.4573L23.8853 10.7628L24.0317 10.568Z" fill="#00E4F8"/>
<path d="M24.1546 10.3307L24.7738 10.0603L24.6606 10.2781L24.0322 10.5679L24.1546 10.3307Z" fill="#16FFE1"/>
<path d="M24.2493 10.0574L24.8617 9.80942L24.7735 10.0605L24.1543 10.331L24.2493 10.0574Z" fill="#2CFFCA"/>
<path d="M24.3146 9.75422L24.9226 9.53128L24.8619 9.80943L24.2495 10.0574L24.3146 9.75422Z" fill="#46FFB1"/>
<path d="M24.3478 9.42914L24.954 9.23315L24.9225 9.53123L24.3145 9.75417L24.3478 9.42914Z" fill="#63FF94"/>
<path d="M24.348 9.09045L24.9553 8.92267L24.9539 9.23297L24.3477 9.42896L24.348 9.09045Z" fill="#7DFF7A"/>
<path d="M24.3154 8.74742L24.9263 8.60834L24.9553 8.92277L24.3481 9.09055L24.3154 8.74742Z" fill="#9AFF5D"/>
<path d="M24.2505 8.40877L24.8677 8.29813L24.9264 8.6084L24.3155 8.74748L24.2505 8.40877Z" fill="#B7FF40"/>
<path d="M24.1548 8.08336L24.7809 8.00012L24.8679 8.298L24.2506 8.40864L24.1548 8.08336Z" fill="#D1FF26"/>
<path d="M24.0308 7.78024L24.6679 7.7226L24.781 8.00011L24.1549 8.08335L24.0308 7.78024Z" fill="#E7FF0F"/>
<path d="M23.8813 7.50744L24.5316 7.47287L24.6678 7.72256L24.0306 7.78021L23.8813 7.50744Z" fill="#FBF100"/>
<path d="M23.7109 7.2725L24.3759 7.25784L24.5316 7.47297L23.8814 7.50755L23.7109 7.2725Z" fill="#FFDB00"/>
<path d="M19.4912 9.33927L19.5997 9.69246L19.4171 8.99802L19.3047 8.63013L19.4912 9.33927Z" fill="#00B4FF"/>
<path d="M19.2069 8.23203L19.3074 8.64312L19.4171 8.99802L19.2975 8.27846L19.1279 7.67731L19.2069 8.23203Z" fill="#16FFE1"/>
<path d="M19.1824 7.89497L19.2976 8.27833L19.2446 7.55129L19.1279 7.15207L19.1824 7.89497Z" fill="#56FFA0"/>
<path d="M19.1279 7.15201L19.2446 7.55123L19.2603 6.83489L19.1435 6.4198L19.1279 7.15201Z" fill="#97FF60"/>
<path d="M19.1436 6.41974L19.2604 6.83483L19.3452 6.14752L19.2295 5.71695L19.1436 6.41974Z" fill="#D4FF23"/>
<path d="M19.2295 5.71695L19.3451 6.14753L19.4977 5.50736L19.3846 5.06207L19.2295 5.71695Z" fill="#FFD700"/>
<path d="M19.3848 5.06215L19.4978 5.50744L19.715 4.93168L19.6058 4.4729L19.3848 5.06215Z" fill="#FF9400"/>
<path d="M19.606 4.47291L19.7151 4.93168L19.992 4.43632L19.888 3.96564L19.606 4.47291Z" fill="#FF5900"/>
<path d="M19.8877 3.96575L19.9917 4.43643L20.3216 4.03571L20.2239 3.55505L19.8877 3.96575Z" fill="#FF2500"/>
<path d="M24.5762 7.30893L24.5872 7.71535L24.6569 8.46177L24.6473 8.07197L24.5762 7.30893Z" fill="#C1FF36"/>
<path d="M20.2241 3.55513L20.3218 4.03578L20.6964 3.74158L20.606 3.25327L20.2241 3.55513Z" fill="#DF0000"/>
<path d="M24.4331 6.55325L24.4471 6.97611L24.5875 7.71529L24.5764 7.30887L24.4331 6.55325Z" fill="#FFEA00"/>
<path d="M20.606 3.25314L20.6964 3.74145L21.1059 3.56286L21.0236 3.06943L20.606 3.25314Z" fill="#BB0000"/>
<path d="M24.2207 5.8259L24.239 6.26451L24.4469 6.97614L24.4329 6.55328L24.2207 5.8259Z" fill="#FFA700"/>
<path d="M21.0234 3.06934L21.1057 3.56276L21.5393 3.50571L21.4657 3.00992L21.0234 3.06934Z" fill="#9F0000"/>
<path d="M23.9453 5.14709L23.9692 5.60033L24.2394 6.26457L24.2211 5.82596L23.9453 5.14709Z" fill="#FF6C00"/>
<path d="M21.4658 3.00983L21.5394 3.50562L21.9851 3.57258L21.9205 3.07721L21.4658 3.00983Z" fill="#920000"/>
<path d="M23.6128 4.53592L23.6434 5.00215L23.9689 5.60022L23.945 5.14699L23.6128 4.53592Z" fill="#FF3400"/>
<path d="M21.9204 3.07745L21.985 3.57282L22.4305 3.76258L22.375 3.27054L21.9204 3.07745Z" fill="#960000"/>
<path d="M23.2334 4.00998L23.2716 4.48725L23.6436 5.00218L23.613 4.53594L23.2334 4.00998Z" fill="#F10800"/>
<path d="M22.375 3.27048L22.4305 3.76252L22.8634 4.07022L22.8167 3.58428L22.375 3.27048Z" fill="#A40000"/>
<path d="M22.8169 3.58432L22.8635 4.07026L23.2716 4.48743L23.2334 4.01016L22.8169 3.58432Z" fill="#C40000"/>
<path d="M19.0828 7.48779L19.1824 7.89504L19.1279 7.15214L19.0273 6.73535L19.0828 7.48779Z" fill="#53FFA4"/>
<path d="M19.0273 6.73527L19.1279 7.15206L19.1434 6.41985L19.0426 5.99347L19.0273 6.73527Z" fill="#97FF60"/>
<path d="M19.0425 5.99349L19.1433 6.41988L19.2293 5.71709L19.129 5.28128L19.0425 5.99349Z" fill="#D7FF1F"/>
<path d="M19.1289 5.28117L19.2292 5.71698L19.3843 5.0621L19.2853 4.61731L19.1289 5.28117Z" fill="#FFD300"/>
<path d="M19.2852 4.61738L19.3842 5.06217L19.6053 4.47289L19.5082 4.01974L19.2852 4.61738Z" fill="#FF9100"/>
<path d="M19.5083 4.01979L19.6054 4.47294L19.8874 3.96567L19.793 3.5051L19.5083 4.01979Z" fill="#FF5200"/>
<path d="M19.7935 3.5051L19.8879 3.96567L20.2241 3.55501L20.133 3.08813L19.7935 3.5051Z" fill="#FF1E00"/>
<path d="M20.1323 3.08811L20.2234 3.55498L20.6053 3.25309L20.5181 2.78125L20.1323 3.08811Z" fill="#D60000"/>
<path d="M20.5186 2.78121L20.6057 3.25305L21.0234 3.06933L20.9406 2.59402L20.5186 2.78121Z" fill="#AD0000"/>
<path d="M24.1733 5.38055L24.2209 5.82581L24.4331 6.55319L24.388 6.11721L24.1733 5.38055Z" fill="#FFA300"/>
<path d="M20.9404 2.59397L21.0233 3.06928L21.4655 3.00984L21.3873 2.53268L20.9404 2.59397Z" fill="#920000"/>
<path d="M23.894 4.69339L23.9447 5.1472L24.2206 5.82603L24.173 5.38078L23.894 4.69339Z" fill="#FF6400"/>
<path d="M21.3872 2.53271L21.4653 3.00987L21.92 3.07728L21.8468 2.59998L21.3872 2.53271Z" fill="#840000"/>
<path d="M23.5581 4.07468L23.6126 4.536L23.9448 5.1471L23.8941 4.69329L23.5581 4.07468Z" fill="#FF2D00"/>
<path d="M21.8472 2.60004L21.9204 3.07734L22.375 3.27041L22.3067 2.7947L21.8472 2.60004Z" fill="#890000"/>
<path d="M23.1743 3.54239L23.233 4.01001L23.6126 4.53598L23.5582 4.07465L23.1743 3.54239Z" fill="#E40000"/>
<path d="M22.3066 2.7948L22.3749 3.27051L22.8166 3.58428L22.7532 3.11184L22.3066 2.7948Z" fill="#9B0000"/>
<path d="M22.7529 3.11182L22.8163 3.58426L23.2328 4.01013L23.1741 3.54251L22.7529 3.11182Z" fill="#BB0000"/>
<path d="M19.1527 7.82128L19.207 8.23203L19.083 7.4878L19.0283 7.07416L19.1527 7.82128Z" fill="#13FCE4"/>
<path d="M19.4174 8.99799L19.5219 9.32032L19.406 8.62218L19.2979 8.27844L19.4174 8.99799Z" fill="#19FFDE"/>
<path d="M19.2976 8.27843L19.4058 8.62216L19.3547 7.917L19.2446 7.55136L19.2976 8.27843Z" fill="#56FFA0"/>
<path d="M19.2446 7.55137L19.3547 7.91701L19.3704 7.22251L19.2603 6.83505L19.2446 7.55137Z" fill="#94FF63"/>
<path d="M19.2603 6.83501L19.3703 7.22246L19.4531 6.5564L19.345 6.14771L19.2603 6.83501Z" fill="#D1FF26"/>
<path d="M19.3452 6.14752L19.4533 6.55622L19.6019 5.93614L19.4978 5.50735L19.3452 6.14752Z" fill="#FFDB00"/>
<path d="M19.4976 5.50746L19.6017 5.93624L19.813 5.37883L19.7147 4.93167L19.4976 5.50746Z" fill="#FF9C00"/>
<path d="M19.7148 4.9318L19.8131 5.37896L20.0824 4.89972L19.9917 4.43646L19.7148 4.9318Z" fill="#FF6000"/>
<path d="M19.9917 4.43649L20.0823 4.89975L20.403 4.51238L20.3216 4.03577L19.9917 4.43649Z" fill="#FF3000"/>
<path d="M24.5872 7.71552L24.5444 8.08558L24.6123 8.80903L24.6569 8.46194L24.5872 7.71552Z" fill="#C1FF36"/>
<path d="M20.3213 4.03569L20.4027 4.5123L20.7666 4.22824L20.6959 3.74149L20.3213 4.03569Z" fill="#F10800"/>
<path d="M24.447 6.97632L24.4082 7.36912L24.5446 8.08555L24.5873 7.71549L24.447 6.97632Z" fill="#FBF100"/>
<path d="M20.6963 3.74153L20.767 4.22828L21.1648 4.0563L21.1059 3.56293L20.6963 3.74153Z" fill="#C80000"/>
<path d="M24.2393 6.26456L24.2065 6.67927L24.4085 7.369L24.4472 6.97619L24.2393 6.26456Z" fill="#FFAE00"/>
<path d="M21.106 3.56291L21.1649 4.05628L21.5859 4.00206L21.5395 3.50586L21.106 3.56291Z" fill="#AD0000"/>
<path d="M23.9688 5.60049L23.9438 6.03558L24.2062 6.67942L24.239 6.26471L23.9688 5.60049Z" fill="#FF7300"/>
<path d="M21.5396 3.50571L21.5859 4.00191L22.0186 4.06777L21.9852 3.57266L21.5396 3.50571Z" fill="#A40000"/>
<path d="M23.6433 5.00232L23.6279 5.45564L23.9439 6.03547L23.9688 5.60038L23.6433 5.00232Z" fill="#FF3F00"/>
<path d="M21.9854 3.57275L22.0187 4.06786L22.4511 4.25259L22.4308 3.76252L21.9854 3.57275Z" fill="#A40000"/>
<path d="M23.2715 4.48737L23.2671 4.95623L23.6281 5.45561L23.6435 5.00229L23.2715 4.48737Z" fill="#FF1300"/>
<path d="M22.4307 3.7626L22.4509 4.25268L22.8711 4.55154L22.8635 4.07028L22.4307 3.7626Z" fill="#B60000"/>
<path d="M22.8633 4.07007L22.8708 4.55133L23.2669 4.95613L23.2714 4.48726L22.8633 4.07007Z" fill="#D10000"/>
<path d="M19.5996 9.69239L19.6986 9.99429L19.5214 9.32028L19.417 8.99796L19.5996 9.69239Z" fill="#00BCFF"/>
<path d="M19.6986 9.99407L19.7756 10.2329L19.6052 9.58464L19.5215 9.32007L19.6986 9.99407Z" fill="#00C4FF"/>
<path d="M19.5216 9.3202L19.6053 9.58477L19.4941 8.9135L19.4058 8.62207L19.5216 9.3202Z" fill="#1CFFDB"/>
<path d="M19.4056 8.62203L19.4939 8.91346L19.445 8.23573L19.3545 7.91687L19.4056 8.62203Z" fill="#56FFA0"/>
<path d="M19.3545 7.91691L19.445 8.23576L19.4604 7.56855L19.3702 7.22241L19.3545 7.91691Z" fill="#94FF63"/>
<path d="M19.3701 7.22249L19.4604 7.56862L19.5404 6.92903L19.4529 6.55643L19.3701 7.22249Z" fill="#CEFF29"/>
<path d="M24.403 10.8312L24.3037 11.0429L24.1128 11.5878L24.2043 11.3983L24.403 10.8312Z" fill="#00B0FF"/>
<path d="M19.4531 6.55643L19.5406 6.92903L19.684 6.33388L19.6017 5.93634L19.4531 6.55643Z" fill="#FFE200"/>
<path d="M24.5399 10.1998L24.435 10.4363L24.3037 11.0428L24.4031 10.8312L24.5399 10.1998Z" fill="#0CF4EB"/>
<path d="M19.6016 5.93625L19.6838 6.3338L19.8874 5.79913L19.8129 5.37885L19.6016 5.93625Z" fill="#FFA300"/>
<path d="M24.6107 9.51987L24.5027 9.78311L24.4351 10.4362L24.54 10.1998L24.6107 9.51987Z" fill="#46FFB1"/>
<path d="M19.813 5.37883L19.8875 5.79912L20.1468 5.33973L20.0822 4.89957L19.813 5.37883Z" fill="#FF6C00"/>
<path d="M24.6123 8.80899L24.5038 9.10037L24.5024 9.78325L24.6105 9.52001L24.6123 8.80899Z" fill="#80FF77"/>
<path d="M20.082 4.8997L20.1466 5.33987L20.4551 4.96888L20.4027 4.51233L20.082 4.8997Z" fill="#FF3B00"/>
<path d="M24.5447 8.08539L24.4385 8.40549L24.5041 9.10021L24.6126 8.80884L24.5447 8.08539Z" fill="#BEFF39"/>
<path d="M20.4028 4.51219L20.4553 4.96874L20.8054 4.69704L20.7668 4.22812L20.4028 4.51219Z" fill="#FF1300"/>
<path d="M24.408 7.36902L24.3066 7.71764L24.4381 8.40555L24.5444 8.08545L24.408 7.36902Z" fill="#F8F500"/>
<path d="M20.7671 4.22814L20.8057 4.69706L21.1883 4.53299L21.1649 4.05615L20.7671 4.22814Z" fill="#DA0000"/>
<path d="M24.2061 6.67923L24.1123 7.05533L24.3067 7.71758L24.408 7.36896L24.2061 6.67923Z" fill="#FFB600"/>
<path d="M21.1646 4.05619L21.188 4.53303L21.5927 4.48197L21.5855 4.00198L21.1646 4.05619Z" fill="#C40000"/>
<path d="M23.9437 6.0354L23.8599 6.43716L24.1123 7.05537L24.2061 6.67927L23.9437 6.0354Z" fill="#FF7E00"/>
<path d="M21.5854 4.00186L21.5927 4.48185L22.0087 4.54597L22.0181 4.06772L21.5854 4.00186Z" fill="#B60000"/>
<path d="M23.6279 5.45569L23.5562 5.88048L23.86 6.43728L23.9439 6.03552L23.6279 5.45569Z" fill="#FF4A00"/>
<path d="M22.0183 4.06775L22.0088 4.54601L22.4245 4.7241L22.4507 4.25249L22.0183 4.06775Z" fill="#BB0000"/>
<path d="M23.2668 4.95636L23.209 5.40083L23.5561 5.88053L23.6278 5.45574L23.2668 4.95636Z" fill="#FF1E00"/>
<path d="M22.4506 4.25241L22.4243 4.72402L22.8281 5.01152L22.8707 4.55126L22.4506 4.25241Z" fill="#C80000"/>
<path d="M22.8706 4.55148L22.8281 5.01174L23.2089 5.40076L23.2667 4.95628L22.8706 4.55148Z" fill="#E40000"/>
<path d="M23.4745 10.5532L24.3234 10.2601L24.1629 10.1215L23.3013 10.4037L23.4745 10.5532Z" fill="#00C4FF"/>
<path d="M23.3013 10.4038L24.1629 10.1216L24.0142 9.94492L23.1406 10.2132L23.3013 10.4038Z" fill="#00D0FF"/>
<path d="M23.1407 10.2131L24.0143 9.94483L23.8811 9.73441L22.9966 9.98618L23.1407 10.2131Z" fill="#00E0FB"/>
<path d="M22.9965 9.98629L23.881 9.73451L23.7669 9.49564L22.8726 9.72869L22.9965 9.98629Z" fill="#0FF8E7"/>
<path d="M22.744 10.8656L23.4745 10.5533L23.3014 10.4037L22.5552 10.7025L22.744 10.8656Z" fill="#00B4FF"/>
<path d="M22.5552 10.7026L23.3014 10.4039L23.1408 10.2132L22.3799 10.4948L22.5552 10.7026Z" fill="#00C0FF"/>
<path d="M22.9416 10.9801L23.6561 10.6582L23.4747 10.5534L22.7441 10.8657L22.9416 10.9801Z" fill="#00A8FF"/>
<path d="M22.8725 9.72852L23.7668 9.49546L23.6745 9.2341L22.772 9.44667L22.8725 9.72852Z" fill="#23FFD4"/>
<path d="M22.3798 10.4949L23.1406 10.2133L22.9965 9.98633L22.2222 10.2475L22.3798 10.4949Z" fill="#00D4FF"/>
<path d="M23.1427 11.0428L23.8408 10.7155L23.6558 10.6582L22.9414 10.9801L23.1427 11.0428Z" fill="#00A8FF"/>
<path d="M22.2222 10.2475L22.9966 9.98629L22.8727 9.7287L22.0864 9.96681L22.2222 10.2475Z" fill="#06ECF1"/>
<path d="M22.7718 9.44676L23.6744 9.23419L23.6063 8.95688L22.6973 9.14771L22.7718 9.44676Z" fill="#39FFBE"/>
<path d="M23.3426 11.052L24.0247 10.7237L23.8407 10.7154L23.1426 11.0427L23.3426 11.052Z" fill="#00A8FF"/>
<path d="M22.0861 9.96664L22.8724 9.72853L22.7718 9.44669L21.9756 9.65951L22.0861 9.96664Z" fill="#1CFFDB"/>
<path d="M22.6975 9.14766L23.6066 8.95683L23.5646 8.67056L22.6509 8.83891L22.6975 9.14766Z" fill="#53FFA4"/>
<path d="M21.9755 9.65974L22.7717 9.44692L22.6972 9.14786L21.8931 9.33381L21.9755 9.65974Z" fill="#36FFC1"/>
<path d="M22.6507 8.83903L23.5644 8.67069L23.5496 8.38272L22.6333 8.52841L22.6507 8.83903Z" fill="#6DFF8A"/>
<path d="M21.8934 9.33378L22.6975 9.14782L22.6509 8.83908L21.8413 8.99725L21.8934 9.33378Z" fill="#50FFA7"/>
<path d="M22.6333 8.52839L23.5496 8.3827L23.5627 8.1004L22.6458 8.22382L22.6333 8.52839Z" fill="#87FF70"/>
<path d="M21.8411 8.99711L22.6507 8.83894L22.6334 8.52832L21.8208 8.65847L21.8411 8.99711Z" fill="#6AFF8D"/>
<path d="M22.646 8.22379L23.5629 8.10038L23.6034 7.83102L22.6882 7.93314L22.646 8.22379Z" fill="#A0FF56"/>
<path d="M21.8208 8.65842L22.6334 8.52828L22.6459 8.22369L21.8329 8.32629L21.8208 8.65842Z" fill="#87FF70"/>
<path d="M22.688 7.9331L23.6032 7.83098L23.6704 7.5816L22.7589 7.66395L22.688 7.9331Z" fill="#B7FF40"/>
<path d="M21.833 8.32638L22.646 8.22379L22.6881 7.93314L21.8774 8.00935L21.833 8.32638Z" fill="#A4FF53"/>
<path d="M22.7593 7.66405L23.6708 7.58171L23.763 7.35889L22.8572 7.42351L22.7593 7.66405Z" fill="#D1FF26"/>
<path d="M21.8774 8.0094L22.6881 7.93318L22.759 7.66403L21.9533 7.71574L21.8774 8.0094Z" fill="#BEFF39"/>
<path d="M22.8569 7.42335L23.7627 7.35873L23.8776 7.1684L22.9795 7.21784L22.8569 7.42335Z" fill="#E4FF13"/>
<path d="M21.9531 7.71578L22.7589 7.66407L22.8569 7.42352L22.0585 7.45325L21.9531 7.71578Z" fill="#D7FF1F"/>
<path d="M22.0586 7.4531L22.8569 7.42337L22.9795 7.21786L22.191 7.22874L22.0586 7.4531Z" fill="#EEFF09"/>
<path d="M22.1909 7.22887L22.9795 7.21799L23.1236 7.05309L22.347 7.0488L22.1909 7.22887Z" fill="#FFEA00"/>
<path d="M22.3472 7.04883L23.1238 7.05312L23.2858 6.93338L22.5229 6.91803L22.3472 7.04883Z" fill="#FFD700"/>
<path d="M21.2956 12.683L21.2566 12.6533L20.9185 12.3609L20.938 12.3737L21.2956 12.683Z" fill="#0000FF"/>
<path d="M20.9381 12.3738L20.9185 12.361L20.6035 11.9894L20.605 11.9808L20.9381 12.3738Z" fill="#0010FF"/>
<path d="M21.6693 12.9012L21.6098 12.8596L21.2568 12.6535L21.2959 12.6831L21.6693 12.9012Z" fill="#0000F1"/>
<path d="M20.6049 11.9808L20.6034 11.9894L20.3192 11.5475L20.3042 11.5134L20.6049 11.9808Z" fill="#0038FF"/>
<path d="M22.049 13.0226L21.9687 12.9743L21.6094 12.8596L21.6688 12.9012L22.049 13.0226Z" fill="#0000E8"/>
<path d="M20.3042 11.5132L20.3192 11.5474L20.0727 11.0457L20.0435 10.9826L20.3042 11.5132Z" fill="#0064FF"/>
<path d="M22.4272 13.0439L22.3261 12.9944L21.9692 12.9744L22.0495 13.0226L22.4272 13.0439Z" fill="#0000ED"/>
<path d="M20.0434 10.9827L20.0727 11.0458L19.8701 10.4965L19.8291 10.4014L20.0434 10.9827Z" fill="#0098FF"/>
<path d="M22.7928 12.9642L22.6714 12.919L22.3257 12.9945L22.4267 13.0439L22.7928 12.9642Z" fill="#0000FF"/>
<path d="M19.8293 10.4015L19.8704 10.4967L19.717 9.91287L19.667 9.7836L19.8293 10.4015Z" fill="#00D4FF"/>
<path d="M23.1384 12.7844L22.9978 12.749L22.6719 12.9188L22.7932 12.964L23.1384 12.7844Z" fill="#0008FF"/>
<path d="M19.667 9.78341L19.717 9.91269L19.617 9.30864L19.561 9.1438L19.667 9.78341Z" fill="#26FFD1"/>
<path d="M23.4539 12.5088L23.2955 12.4884L22.9976 12.749L23.1382 12.7845L23.4539 12.5088Z" fill="#002CFF"/>
<path d="M19.561 9.1439L19.617 9.30875L19.5734 8.69938L19.5146 8.49838L19.561 9.1439Z" fill="#5AFF9D"/>
<path d="M23.7319 12.1429L23.5576 12.1427L23.2954 12.4884L23.4538 12.5088L23.7319 12.1429Z" fill="#0054FF"/>
<path d="M19.5146 8.49833L19.5734 8.69933L19.5877 8.09999L19.5296 7.86313L19.5146 8.49833Z" fill="#90FF66"/>
<path d="M23.9649 11.6953L23.777 11.7199L23.5576 12.1427L23.7319 12.143L23.9649 11.6953Z" fill="#0088FF"/>
<path d="M19.5293 7.86318L19.5874 8.10004L19.6599 7.5261L19.6058 7.25458L19.5293 7.86318Z" fill="#C7FF30"/>
<path d="M24.1465 11.1763L23.948 11.2299L23.7773 11.7198L23.9652 11.6952L24.1465 11.1763Z" fill="#00C4FF"/>
<path d="M19.6064 7.25459L19.6605 7.52611L19.7899 6.99266L19.7433 6.6886L19.6064 7.25459Z" fill="#FBF100"/>
<path d="M24.2709 10.5986L24.0646 10.6847L23.9478 11.2298L24.1463 11.1762L24.2709 10.5986Z" fill="#16FFE1"/>
<path d="M19.7432 6.68849L19.7898 6.99255L19.9733 6.51392L19.9374 6.18033L19.7432 6.68849Z" fill="#FFB900"/>
<path d="M24.3345 9.97702L24.124 10.0982L24.0645 10.6848L24.2707 10.5987L24.3345 9.97702Z" fill="#4DFFAA"/>
<path d="M19.937 6.18047L19.9729 6.51406L20.2063 6.1034L20.1842 5.74417L19.937 6.18047Z" fill="#FF8600"/>
<path d="M24.3353 9.32712L24.124 9.48525L24.124 10.0982L24.3346 9.97702L24.3353 9.32712Z" fill="#80FF77"/>
<path d="M20.1846 5.74412L20.2067 6.10334L20.4843 5.77227L20.4787 5.39206L20.1846 5.74412Z" fill="#FF5D00"/>
<path d="M24.2723 8.66623L24.064 8.86214L24.1241 9.48537L24.3354 9.32724L24.2723 8.66623Z" fill="#B7FF40"/>
<path d="M20.4785 5.39213L20.4842 5.77234L20.7989 5.53048L20.8121 5.13464L20.4785 5.39213Z" fill="#FF3800"/>
<path d="M24.1467 8.01169L23.9448 8.24515L24.064 8.862L24.2724 8.66609L24.1467 8.01169Z" fill="#EBFF0C"/>
<path d="M20.812 5.13465L20.7988 5.53049L21.1425 5.38516L21.1764 4.97955L20.812 5.13465Z" fill="#FF1A00"/>
<path d="M23.9613 7.38174L23.7695 7.65146L23.945 8.2451L24.1468 8.01164L23.9613 7.38174Z" fill="#FFC800"/>
<path d="M21.1764 4.97948L21.1426 5.38509L21.506 5.34096L21.5618 4.93182L21.1764 4.97948Z" fill="#F10800"/>
<path d="M23.7205 6.79395L23.542 7.09754L23.7693 7.65163L23.9611 7.38191L23.7205 6.79395Z" fill="#FF9400"/>
<path d="M21.5617 4.93179L21.5059 5.34093L21.8793 5.39981L21.9577 4.99356L21.5617 4.93179Z" fill="#E80000"/>
<path d="M23.4308 6.26425L23.2686 6.5984L23.5418 7.09752L23.7203 6.79392L23.4308 6.26425Z" fill="#FF6800"/>
<path d="M21.9578 4.99362L21.8794 5.39986L22.2525 5.56061L22.3535 5.16367L21.9578 4.99362Z" fill="#ED0400"/>
<path d="M23.1006 5.80768L22.957 6.16803L23.2689 6.59817L23.4311 6.26403L23.1006 5.80768Z" fill="#FF4300"/>
<path d="M22.3534 5.16354L22.2524 5.56048L22.615 5.81894L22.7379 5.43744L22.3534 5.16354Z" fill="#FA0F00"/>
<path d="M22.7382 5.4375L22.6152 5.81901L22.9571 6.16815L23.1007 5.80779L22.7382 5.4375Z" fill="#FF2200"/>
<path d="M19.7753 10.2331L19.829 10.4014L19.6667 9.78348L19.605 9.58478L19.7753 10.2331Z" fill="#00CCFF"/>
<path d="M19.6049 9.5849L19.6666 9.7836L19.5607 9.14398L19.4937 8.91364L19.6049 9.5849Z" fill="#1FFFD7"/>
<path d="M23.5759 12.4417L23.4539 12.5089L23.1382 12.7846L23.2445 12.731L23.5759 12.4417Z" fill="#0018FF"/>
<path d="M19.4937 8.91361L19.5607 9.14396L19.5143 8.49844L19.4448 8.23587L19.4937 8.91361Z" fill="#5AFF9D"/>
<path d="M23.8676 12.0577L23.7317 12.143L23.4536 12.5088L23.5756 12.4416L23.8676 12.0577Z" fill="#0044FF"/>
<path d="M19.4448 8.23569L19.5143 8.49826L19.5293 7.86306L19.4602 7.56848L19.4448 8.23569Z" fill="#94FF63"/>
<path d="M24.1127 11.5878L23.9649 11.6953L23.7319 12.143L23.8679 12.0577L24.1127 11.5878Z" fill="#007CFF"/>
<path d="M19.4604 7.56842L19.5295 7.86301L19.606 7.25442L19.5405 6.92883L19.4604 7.56842Z" fill="#CAFF2C"/>
<path d="M24.3036 11.0428L24.1462 11.1762L23.9648 11.6952L24.1127 11.5876L24.3036 11.0428Z" fill="#00B8FF"/>
<path d="M19.5405 6.92892L19.6061 7.25451L19.7429 6.68852L19.6838 6.33377L19.5405 6.92892Z" fill="#FFEA00"/>
<path d="M24.4346 10.4362L24.2705 10.5986L24.146 11.1762L24.3033 11.0428L24.4346 10.4362Z" fill="#0FF8E7"/>
<path d="M19.6836 6.33392L19.7427 6.68867L19.9369 6.1805L19.8872 5.79926L19.6836 6.33392Z" fill="#FFAE00"/>
<path d="M24.5022 9.78314L24.3343 9.97698L24.2705 10.5987L24.4346 10.4362L24.5022 9.78314Z" fill="#49FFAD"/>
<path d="M19.8872 5.79902L19.9369 6.18026L20.1841 5.74397L20.1465 5.33963L19.8872 5.79902Z" fill="#FF7A00"/>
<path d="M24.5038 9.10028L24.3352 9.32712L24.3345 9.977L24.5024 9.78316L24.5038 9.10028Z" fill="#80FF77"/>
<path d="M20.1465 5.33983L20.1841 5.74416L20.4782 5.3921L20.4551 4.96884L20.1465 5.33983Z" fill="#FF4A00"/>
<path d="M24.438 8.40558L24.272 8.66614L24.335 9.32715L24.5036 9.10031L24.438 8.40558Z" fill="#BAFF3C"/>
<path d="M20.4551 4.96879L20.4782 5.39206L20.8118 5.13456L20.8052 4.69708L20.4551 4.96879Z" fill="#FF2500"/>
<path d="M24.3067 7.71753L24.1465 8.01159L24.2722 8.66598L24.4382 8.40542L24.3067 7.71753Z" fill="#F1FC06"/>
<path d="M20.8052 4.69716L20.8117 5.13464L21.1761 4.97955L21.1878 4.53308L20.8052 4.69716Z" fill="#F10800"/>
<path d="M24.1123 7.05548L23.9609 7.38188L24.1464 8.01179L24.3066 7.71773L24.1123 7.05548Z" fill="#FFC100"/>
<path d="M21.188 4.533L21.1763 4.97947L21.5617 4.93181L21.5927 4.48196L21.188 4.533Z" fill="#DA0000"/>
<path d="M23.8598 6.43707L23.7202 6.7937L23.9609 7.38168L24.1122 7.05528L23.8598 6.43707Z" fill="#FF8900"/>
<path d="M21.5926 4.48187L21.5615 4.93172L21.9575 4.9935L22.0086 4.54599L21.5926 4.48187Z" fill="#CD0000"/>
<path d="M23.5558 5.88052L23.4307 6.26431L23.7202 6.79395L23.8597 6.43732L23.5558 5.88052Z" fill="#FF5900"/>
<path d="M22.0086 4.54602L21.9575 4.99353L22.3532 5.16355L22.4242 4.72414L22.0086 4.54602Z" fill="#D10000"/>
<path d="M23.2087 5.40082L23.1001 5.80793L23.4306 6.26431L23.5558 5.88052L23.2087 5.40082Z" fill="#FF3000"/>
<path d="M22.424 4.72433L22.353 5.16375L22.7375 5.43765L22.8279 5.01181L22.424 4.72433Z" fill="#DF0000"/>
<path d="M22.8277 5.01157L22.7373 5.4374L23.0998 5.8077L23.2085 5.40059L22.8277 5.01157Z" fill="#FA0F00"/>
<path d="M21.8828 1.02917L21.4146 1.1745L21.7449 1.1442L22.1506 1.00653L21.8828 1.02917Z" fill="#9F0000"/>
<path d="M22.1508 1.00635L21.7451 1.14401L22.0854 1.23842L22.4265 1.10486L22.1508 1.00635Z" fill="#960000"/>
<path d="M23.8308 3.89581L23.8169 4.07769L23.9781 4.80527L23.9617 4.60571L23.8308 3.89581Z" fill="#FFAB00"/>
<path d="M22.4266 1.10489L22.0854 1.23845L22.4262 1.45583L22.7028 1.3227L22.4266 1.10489Z" fill="#960000"/>
<path d="M23.6612 3.22772L23.6079 3.39399L23.8167 4.07765L23.8307 3.89577L23.6612 3.22772Z" fill="#FF6C00"/>
<path d="M22.7029 1.32278L22.4263 1.45592L22.7579 1.79081L22.9718 1.65445L22.7029 1.32278Z" fill="#A80000"/>
<path d="M23.4575 2.62057L23.3569 2.77379L23.6078 3.39417L23.6611 3.2279L23.4575 2.62057Z" fill="#FF3400"/>
<path d="M22.9712 1.65451L22.7573 1.79088L23.0706 2.23425L23.2252 2.09111L22.9712 1.65451Z" fill="#C80000"/>
<path d="M23.2254 2.09116L23.0708 2.23429L23.3569 2.77378L23.4575 2.62057L23.2254 2.09116Z" fill="#F10800"/>
<path d="M19.0279 7.07398L19.0826 7.48762L19.0272 6.73518L18.9722 6.31848L19.0279 7.07398Z" fill="#53FFA4"/>
<path d="M18.9722 6.31859L19.0272 6.73529L19.0425 5.99349L18.9873 5.57361L18.9722 6.31859Z" fill="#97FF60"/>
<path d="M18.9873 5.5736L19.0425 5.99349L19.129 5.28128L19.0737 4.85818L18.9873 5.5736Z" fill="#D7FF1F"/>
<path d="M19.0737 4.85811L19.129 5.2812L19.2854 4.61731L19.2301 4.19104L19.0737 4.85811Z" fill="#FFD000"/>
<path d="M19.23 4.19115L19.2852 4.61742L19.5082 4.01982L19.4532 3.59052L19.23 4.19115Z" fill="#FF8D00"/>
<path d="M19.4531 3.59037L19.5081 4.01968L19.7928 3.50498L19.7382 3.07285L19.4531 3.59037Z" fill="#FF4E00"/>
<path d="M19.7383 3.0731L19.7929 3.50524L20.1325 3.08824L20.0783 2.65359L19.7383 3.0731Z" fill="#FF1A00"/>
<path d="M20.0786 2.65352L20.1328 3.08816L20.5186 2.7813L20.465 2.34451L20.0786 2.65352Z" fill="#D10000"/>
<path d="M24.3423 5.68689L24.433 6.56429L24.5763 7.32448L24.4877 6.45525L24.3423 5.68689Z" fill="#FFE600"/>
<path d="M20.4648 2.34459L20.5184 2.78138L20.9405 2.59419L20.8876 2.1557L20.4648 2.34459Z" fill="#A80000"/>
<path d="M24.127 4.94739L24.1733 5.38068L24.388 6.11737L24.3422 5.68682L24.127 4.94739Z" fill="#FF9F00"/>
<path d="M20.8877 2.1556L20.9406 2.59409L21.3875 2.53281L21.3354 2.09308L20.8877 2.1556Z" fill="#8D0000"/>
<path d="M23.8472 4.2576L23.8942 4.69326L24.1732 5.38065L24.1268 4.94736L23.8472 4.2576Z" fill="#FF6000"/>
<path d="M21.335 2.09317L21.3871 2.53291L21.8467 2.60017L21.7954 2.15977L21.335 2.09317Z" fill="#800000"/>
<path d="M23.5103 3.63718L23.5581 4.0748L23.8941 4.69341L23.847 4.25775L23.5103 3.63718Z" fill="#FF2900"/>
<path d="M21.7959 2.15964L21.8472 2.60004L22.3067 2.79469L22.2563 2.35414L21.7959 2.15964Z" fill="#800000"/>
<path d="M23.1255 3.10345L23.1741 3.54258L23.558 4.07482L23.5102 3.63719L23.1255 3.10345Z" fill="#DF0000"/>
<path d="M22.2563 2.35413L22.3068 2.79467L22.7534 3.11171L22.7038 2.6716L22.2563 2.35413Z" fill="#920000"/>
<path d="M22.7036 2.67172L22.7531 3.11183L23.1743 3.54255L23.1256 3.10342L22.7036 2.67172Z" fill="#B20000"/>
<path d="M24.2441 5.33057L24.3417 5.68693L24.4872 6.45529L24.3843 6.09846L24.2441 5.33057Z" fill="#FFE600"/>
<path d="M21.103 1.32739L20.7368 1.58668L21.1004 1.42049L21.4145 1.17429L21.103 1.32739Z" fill="#B20000"/>
<path d="M21.4148 1.17453L21.1006 1.42074L21.486 1.37959L21.7452 1.14423L21.4148 1.17453Z" fill="#960000"/>
<path d="M21.745 1.1442L21.4858 1.37956L21.8826 1.46566L22.0853 1.23861L21.745 1.1442Z" fill="#890000"/>
<path d="M22.0855 1.2384L21.8828 1.46545L22.2799 1.67723L22.4262 1.45578L22.0855 1.2384Z" fill="#890000"/>
<path d="M23.3569 2.77374L23.3637 2.99533L23.6555 3.62122L23.6078 3.39412L23.3569 2.77374Z" fill="#FF2D00"/>
<path d="M22.4261 1.45599L22.2798 1.67744L22.6662 2.00956L22.7577 1.79089L22.4261 1.45599Z" fill="#9B0000"/>
<path d="M23.0708 2.23422L23.0308 2.45295L23.3637 2.99531L23.3569 2.77372L23.0708 2.23422Z" fill="#E80000"/>
<path d="M22.7576 1.79092L22.666 2.00959L23.0308 2.45302L23.0709 2.23429L22.7576 1.79092Z" fill="#BB0000"/>
<path d="M23.6079 3.39417L23.6556 3.62127L23.8982 4.3129L23.8167 4.07782L23.6079 3.39417Z" fill="#FF6400"/>
<path d="M20.4047 1.87242L20.1494 2.23989L20.5199 1.93877L20.7367 1.58694L20.4047 1.87242Z" fill="#D10000"/>
<path d="M20.7368 1.58692L20.52 1.93875L20.9255 1.75766L21.1004 1.42072L20.7368 1.58692Z" fill="#A80000"/>
<path d="M21.1002 1.42075L20.9253 1.7577L21.3549 1.70274L21.4856 1.37961L21.1002 1.42075Z" fill="#8D0000"/>
<path d="M21.4857 1.37943L21.355 1.70256L21.7969 1.77624L21.8825 1.46554L21.4857 1.37943Z" fill="#800000"/>
<path d="M21.8824 1.46555L21.7969 1.77625L22.239 1.97729L22.2796 1.67731L21.8824 1.46555Z" fill="#840000"/>
<path d="M23.3638 2.99539L23.4443 3.27518L23.7681 3.8988L23.6556 3.6213L23.3638 2.99539Z" fill="#FF2900"/>
<path d="M22.2799 1.67737L22.2393 1.97735L22.6691 2.30063L22.6662 2.00949L22.2799 1.67737Z" fill="#920000"/>
<path d="M23.0308 2.45297L23.0743 2.73734L23.4442 3.27513L23.3637 2.99533L23.0308 2.45297Z" fill="#DF0000"/>
<path d="M22.666 2.0094L22.6689 2.30054L23.0744 2.73722L23.0308 2.45285L22.666 2.0094Z" fill="#B20000"/>
<path d="M20.113 2.26804L19.8237 2.65145L20.1496 2.23975L20.4049 1.87228L20.113 2.26804Z" fill="#FF1A00"/>
<path d="M19.3365 3.75508L19.23 4.19103L19.4532 3.59039L19.5504 3.16144L19.3365 3.75508Z" fill="#FF8D00"/>
<path d="M19.5502 3.16153L19.4531 3.59049L19.7382 3.07299L19.8234 2.65149L19.5502 3.16153Z" fill="#FF4E00"/>
<path d="M19.8235 2.65148L19.7383 3.07298L20.0783 2.65347L20.1494 2.23978L19.8235 2.65148Z" fill="#FF1600"/>
<path d="M20.1492 2.23968L20.0781 2.65338L20.4645 2.34438L20.5197 1.93857L20.1492 2.23968Z" fill="#D10000"/>
<path d="M20.52 1.93857L20.4648 2.34438L20.8875 2.15548L20.9254 1.75748L20.52 1.93857Z" fill="#A40000"/>
<path d="M20.9255 1.75768L20.8877 2.15569L21.3354 2.09319L21.3551 1.70273L20.9255 1.75768Z" fill="#890000"/>
<path d="M23.7681 3.89871L23.8471 4.25774L24.1268 4.94749L24.0372 4.59038L23.7681 3.89871Z" fill="#FF6000"/>
<path d="M21.3551 1.70248L21.3354 2.09295L21.7959 2.15953L21.7971 1.77617L21.3551 1.70248Z" fill="#800000"/>
<path d="M23.4443 3.27509L23.5105 3.63712L23.8473 4.25772L23.7682 3.8987L23.4443 3.27509Z" fill="#FF2900"/>
<path d="M21.7971 1.77618L21.7959 2.15954L22.2563 2.35406L22.2392 1.97723L21.7971 1.77618Z" fill="#800000"/>
<path d="M23.0742 2.7373L23.1255 3.10335L23.5102 3.63709L23.444 3.27506L23.0742 2.7373Z" fill="#DF0000"/>
<path d="M22.2388 1.97729L22.2559 2.35412L22.7034 2.67159L22.6686 2.30057L22.2388 1.97729Z" fill="#920000"/>
<path d="M22.6689 2.30066L22.7038 2.67168L23.1258 3.10338L23.0745 2.73733L22.6689 2.30066Z" fill="#B20000"/>
<path d="M26.4226 6.71365L25.7769 6.70828L25.7878 7.19376L26.447 7.16762L26.4226 6.71365Z" fill="#23FFD4"/>
<path d="M26.4136 6.22526L25.7739 6.18387L25.7771 6.70842L26.4228 6.71378L26.4136 6.22526Z" fill="#53FFA4"/>
<path d="M26.4198 5.71463L25.7787 5.63364L25.7739 6.1837L26.4136 6.2251L26.4198 5.71463Z" fill="#80FF77"/>
<path d="M26.4414 5.19566L25.7915 5.07257L25.7788 5.63365L26.4199 5.71464L26.4414 5.19566Z" fill="#ADFF49"/>
<path d="M26.478 4.68215L25.8118 4.51566L25.7915 5.07272L26.4414 5.19581L26.478 4.68215Z" fill="#DBFF1C"/>
<path d="M26.5282 4.18769L25.8389 3.97775L25.8115 4.51565L26.4777 4.68214L26.5282 4.18769Z" fill="#FFE200"/>
<path d="M27.1263 2.24982L26.1504 1.83127L26.1016 1.89728L27.0308 2.30272L27.1263 2.24982Z" fill="#FF3800"/>
<path d="M26.5915 3.7259L25.8727 3.47372L25.8389 3.9777L26.5282 4.18764L26.5915 3.7259Z" fill="#FFB600"/>
<path d="M27.0306 2.30271L26.1013 1.89728L26.0518 2.05415L26.9342 2.43979L27.0306 2.30271Z" fill="#FF3800"/>
<path d="M26.6662 3.3095L25.9124 3.01755L25.873 3.47364L26.5918 3.72582L26.6662 3.3095Z" fill="#FF9100"/>
<path d="M26.9343 2.43969L26.0519 2.05405L26.0029 2.29779L26.8397 2.65745L26.9343 2.43969Z" fill="#FF4300"/>
<path d="M26.7494 2.95002L25.9559 2.62189L25.9121 3.01747L26.6659 3.30942L26.7494 2.95002Z" fill="#FF6F00"/>
<path d="M26.8399 2.65757L26.0031 2.29791L25.9561 2.622L26.7496 2.95013L26.8399 2.65757Z" fill="#FF5500"/>
<path d="M27.0791 6.76766L26.4224 6.71381L26.4467 7.16779L27.114 7.19012L27.0791 6.76766Z" fill="#2CFFCA"/>
<path d="M27.0651 6.31514L26.4131 6.22522L26.4223 6.71373L27.0791 6.76759L27.0651 6.31514Z" fill="#56FFA0"/>
<path d="M27.0724 5.84437L26.4193 5.71478L26.4131 6.22523L27.0651 6.31515L27.0724 5.84437Z" fill="#80FF77"/>
<path d="M27.1012 5.36758L26.441 5.1958L26.4194 5.71477L27.0726 5.84436L27.1012 5.36758Z" fill="#AAFF4D"/>
<path d="M27.1505 4.89741L26.4774 4.6821L26.4409 5.19575L27.1011 5.36753L27.1505 4.89741Z" fill="#D4FF23"/>
<path d="M27.2194 4.44662L26.5281 4.18768L26.4775 4.68215L27.1506 4.89746L27.2194 4.44662Z" fill="#FBF100"/>
<path d="M28.1722 2.75927L27.218 2.28217L27.126 2.24982L28.0441 2.72021L28.1722 2.75927Z" fill="#FF5500"/>
<path d="M27.3058 4.02729L26.5911 3.72589L26.5278 4.18765L27.2192 4.44658L27.3058 4.02729Z" fill="#FFC400"/>
<path d="M28.0444 2.72024L27.1263 2.24985L27.0308 2.30276L27.9118 2.75948L28.0444 2.72024Z" fill="#FF4E00"/>
<path d="M27.408 3.65105L26.6657 3.30957L26.5913 3.7259L27.3059 4.0273L27.408 3.65105Z" fill="#FFA300"/>
<path d="M27.9115 2.75955L27.0305 2.30283L26.9341 2.43991L27.778 2.87632L27.9115 2.75955Z" fill="#FF5200"/>
<path d="M27.5231 3.32827L26.7495 2.95026L26.666 3.30966L27.4083 3.65114L27.5231 3.32827Z" fill="#FF8200"/>
<path d="M27.7784 2.87629L26.9345 2.43988L26.8398 2.65763L27.6477 3.06757L27.7784 2.87629Z" fill="#FF5900"/>
<path d="M27.6471 3.06763L26.8393 2.65768L26.749 2.95027L27.5227 3.32828L27.6471 3.06763Z" fill="#FF6C00"/>
<path d="M27.6923 6.8636L27.0796 6.76752L27.1144 7.18997L27.7349 7.25516L27.6923 6.8636Z" fill="#33FFC4"/>
<path d="M27.6747 6.44661L27.0654 6.31522L27.0795 6.76767L27.6922 6.86375L27.6747 6.44661Z" fill="#5AFF9D"/>
<path d="M27.6828 6.01461L27.0728 5.84442L27.0654 6.31522L27.6747 6.44661L27.6828 6.01461Z" fill="#80FF77"/>
<path d="M27.7165 5.57881L27.1014 5.3674L27.0728 5.84418L27.6828 6.01437L27.7165 5.57881Z" fill="#A7FF50"/>
<path d="M27.7753 5.15141L27.1509 4.89749L27.1016 5.36763L27.7167 5.57903L27.7753 5.15141Z" fill="#CEFF29"/>
<path d="M27.8574 4.74311L27.2197 4.44659L27.1509 4.89743L27.7753 5.15135L27.8574 4.74311Z" fill="#F1FC06"/>
<path d="M27.961 4.36512L27.3063 4.02713L27.2197 4.44641L27.8574 4.74292L27.961 4.36512Z" fill="#FFD700"/>
<path d="M29.0026 3.26962L28.1725 2.75917L28.0444 2.72009L28.8479 3.22378L29.0026 3.26962Z" fill="#FF6F00"/>
<path d="M28.083 4.02817L27.4082 3.65103L27.3062 4.02728L27.9608 4.36527L28.083 4.02817Z" fill="#FFB600"/>
<path d="M28.8477 3.22396L28.0442 2.72028L27.9116 2.75952L28.6879 3.24969L28.8477 3.22396Z" fill="#FF6800"/>
<path d="M28.2207 3.74092L27.523 3.32806L27.4082 3.65094L28.083 4.02808L28.2207 3.74092Z" fill="#FF9800"/>
<path d="M28.688 3.24968L27.9118 2.75952L27.7783 2.87629L28.5274 3.34642L28.688 3.24968Z" fill="#FF6C00"/>
<path d="M28.37 3.51178L27.6474 3.06763L27.5229 3.32826L28.2206 3.74112L28.37 3.51178Z" fill="#FF8200"/>
<path d="M28.5273 3.34648L27.7782 2.87634L27.6475 3.06761L28.3701 3.51177L28.5273 3.34648Z" fill="#FF7300"/>
<path d="M28.2052 6.99425L27.6919 6.86362L27.7345 7.25518L28.2529 7.35621L28.2052 6.99425Z" fill="#39FFBE"/>
<path d="M28.1852 6.61077L27.6743 6.44641L27.6919 6.86355L28.2052 6.99418L28.1852 6.61077Z" fill="#5AFF9D"/>
<path d="M28.1937 6.21574L27.6824 6.0144L27.6743 6.4464L28.1852 6.61075L28.1937 6.21574Z" fill="#80FF77"/>
<path d="M28.2308 5.81954L27.7164 5.57898L27.6826 6.01455L28.1939 6.21589L28.2308 5.81954Z" fill="#A4FF53"/>
<path d="M28.2953 5.43233L27.775 5.15137L27.7163 5.57899L28.2307 5.81956L28.2953 5.43233Z" fill="#C7FF30"/>
<path d="M28.3858 5.06444L27.857 4.74304L27.7749 5.15128L28.2952 5.43224L28.3858 5.06444Z" fill="#E7FF0F"/>
<path d="M28.5001 4.72605L27.9605 4.3653L27.8569 4.7431L28.3858 5.0645L28.5001 4.72605Z" fill="#FFE600"/>
<path d="M28.6354 4.42612L28.0827 4.02823L27.9604 4.36532L28.5002 4.72608L28.6354 4.42612Z" fill="#FFC400"/>
<path d="M29.6564 3.79411L29.0023 3.26979L28.8477 3.22394L29.4843 3.74181L29.6564 3.79411Z" fill="#FF8600"/>
<path d="M28.7882 4.17267L28.2207 3.74091L28.083 4.02806L28.6357 4.42595L28.7882 4.17267Z" fill="#FFAB00"/>
<path d="M29.4839 3.74181L28.8473 3.22394L28.6875 3.24965L29.3062 3.7547L29.4839 3.74181Z" fill="#FF8200"/>
<path d="M28.9538 3.97301L28.3702 3.5116L28.2207 3.74095L28.7882 4.17271L28.9538 3.97301Z" fill="#FF9800"/>
<path d="M29.3067 3.75453L28.688 3.24948L28.5273 3.34624L29.1283 3.8323L29.3067 3.75453Z" fill="#FF8200"/>
<path d="M29.1277 3.83255L28.5268 3.3465L28.3696 3.51178L28.9533 3.97319L29.1277 3.83255Z" fill="#FF8900"/>
<path d="M28.569 7.15083L28.2056 6.99411L28.2533 7.35608L28.6196 7.48523L28.569 7.15083Z" fill="#3CFFBA"/>
<path d="M28.5474 6.79888L28.1855 6.61084L28.2055 6.99425L28.5689 7.15098L28.5474 6.79888Z" fill="#5DFF9A"/>
<path d="M28.5559 6.43823L28.194 6.21594L28.1855 6.61097L28.5474 6.79901L28.5559 6.43823Z" fill="#80FF77"/>
<path d="M28.5941 6.07787L28.2308 5.81934L28.1938 6.21567L28.5557 6.43795L28.5941 6.07787Z" fill="#A0FF56"/>
<path d="M28.6616 5.72792L28.2955 5.43213L28.231 5.81936L28.5942 6.07789L28.6616 5.72792Z" fill="#C1FF36"/>
<path d="M28.7564 5.39762L28.386 5.06454L28.2954 5.43232L28.6615 5.72812L28.7564 5.39762Z" fill="#DEFF19"/>
<path d="M28.876 5.09536L28.5001 4.72607L28.3857 5.06452L28.7561 5.3976L28.876 5.09536Z" fill="#FBF100"/>
<path d="M29.0182 4.8295L28.6357 4.42606L28.5005 4.72601L28.8764 5.0953L29.0182 4.8295Z" fill="#FFD700"/>
<path d="M30.2637 4.42896L29.8183 3.90982L29.6562 3.79398L30.0924 4.31332L30.2637 4.42896Z" fill="#FFA700"/>
<path d="M29.1783 4.60726L28.7882 4.1727L28.6357 4.42598L29.0182 4.82942L29.1783 4.60726Z" fill="#FFC100"/>
<path d="M30.0927 4.31338L29.6566 3.79403L29.4844 3.74176L29.911 4.2553L30.0927 4.31338Z" fill="#FF9C00"/>
<path d="M29.3523 4.43475L28.9537 3.97296L28.7881 4.17265L29.1782 4.60721L29.3523 4.43475Z" fill="#FFAE00"/>
<path d="M29.911 4.2553L29.4844 3.74176L29.3066 3.75463L29.7237 4.25644L29.911 4.2553Z" fill="#FF9800"/>
<path d="M29.5361 4.31684L29.1285 3.83243L28.9541 3.97306L29.3527 4.43485L29.5361 4.31684Z" fill="#FF9F00"/>
<path d="M29.724 4.25645L29.3069 3.75464L29.1284 3.83242L29.536 4.31683L29.724 4.25645Z" fill="#FF9800"/>
<path d="M28.742 7.32539L28.5688 7.15109L28.6196 7.48547L28.7939 7.63496L28.742 7.32539Z" fill="#43FFB4"/>
<path d="M28.7197 7.00115L28.5474 6.79877L28.5688 7.15086L28.742 7.32515L28.7197 7.00115Z" fill="#60FF97"/>
<path d="M28.7278 6.67116L28.5558 6.43814L28.5474 6.79893L28.7197 7.00131L28.7278 6.67116Z" fill="#7DFF7A"/>
<path d="M28.766 6.34343L28.594 6.07803L28.5557 6.43813L28.7276 6.67114L28.766 6.34343Z" fill="#9DFF5A"/>
<path d="M28.8339 6.02672L28.6617 5.72806L28.5942 6.07801L28.7662 6.34341L28.8339 6.02672Z" fill="#BAFF3C"/>
<path d="M28.9295 5.72935L28.7565 5.39749L28.6616 5.72802L28.8339 6.02668L28.9295 5.72935Z" fill="#D4FF23"/>
<path d="M29.0508 5.45948L28.8767 5.0954L28.7568 5.39764L28.9298 5.7295L29.0508 5.45948Z" fill="#EEFF09"/>
<path d="M30.756 5.29937L30.5576 4.81848L30.4204 4.59894L30.6161 5.09049L30.756 5.29937Z" fill="#FFDE00"/>
<path d="M29.1938 5.22395L29.0183 4.82947L28.8765 5.09528L29.0506 5.45936L29.1938 5.22395Z" fill="#FFE600"/>
<path d="M30.6161 5.09045L30.4204 4.5989L30.2642 4.42896L30.457 4.92608L30.6161 5.09045Z" fill="#FFCC00"/>
<path d="M29.3559 5.02947L29.1786 4.60733L29.0186 4.82949L29.1941 5.22397L29.3559 5.02947Z" fill="#FFD000"/>
<path d="M30.4569 4.92602L30.264 4.4289L30.0928 4.31326L30.2827 4.81065L30.4569 4.92602Z" fill="#FFB900"/>
<path d="M29.5322 4.88123L29.3528 4.43488L29.1787 4.60732L29.356 5.02946L29.5322 4.88123Z" fill="#FFC100"/>
<path d="M30.2828 4.81072L30.0928 4.31333L29.9111 4.25525L30.0982 4.74752L30.2828 4.81072Z" fill="#FFB200"/>
<path d="M29.7177 4.78327L29.536 4.31683L29.3525 4.43486L29.5319 4.88121L29.7177 4.78327Z" fill="#FFB200"/>
<path d="M30.0985 4.74743L29.9114 4.25516L29.7241 4.25629L29.9084 4.73816L30.0985 4.74743Z" fill="#FFAB00"/>
<path d="M29.9078 4.73819L29.7236 4.25632L29.5356 4.3167L29.7174 4.78314L29.9078 4.73819Z" fill="#FFAE00"/>
<path d="M28.8813 6.0481L28.9296 5.72925L28.834 6.02658L28.7876 6.31703L28.8813 6.0481Z" fill="#CEFF29"/>
<path d="M30.9111 7.72563L30.9799 7.42989L31.0366 7.11011L30.9663 7.43315L30.9111 7.72563Z" fill="#50FFA7"/>
<path d="M30.9663 7.43316L31.0365 7.11012L31.0637 6.78146L30.9923 7.13098L30.9663 7.43316Z" fill="#6AFF8D"/>
<path d="M30.9927 7.1309L31.0641 6.78139L31.0611 6.4523L30.9888 6.82681L30.9927 7.1309Z" fill="#87FF70"/>
<path d="M30.9886 6.82689L31.0609 6.45237L31.0274 6.13141L30.9546 6.52875L30.9886 6.82689Z" fill="#A0FF56"/>
<path d="M30.9549 6.52868L31.0277 6.13134L30.9646 5.8269L30.8916 6.24439L30.9549 6.52868Z" fill="#BEFF39"/>
<path d="M30.8913 6.24432L30.9643 5.82683L30.8731 5.54703L30.8003 5.98136L30.8913 6.24432Z" fill="#D4FF23"/>
<path d="M29.0001 5.80596L29.0506 5.45947L28.9297 5.72948L28.8813 6.04834L29.0001 5.80596Z" fill="#E4FF13"/>
<path d="M30.8005 5.98137L30.8734 5.54703L30.7563 5.29935L30.6841 5.7468L30.8005 5.98137Z" fill="#EBFF0C"/>
<path d="M29.1408 5.59643L29.1938 5.22394L29.0505 5.45938L29 5.80586L29.1408 5.59643Z" fill="#F8F500"/>
<path d="M30.6838 5.747L30.756 5.29955L30.6161 5.09067L30.5449 5.54714L30.6838 5.747Z" fill="#FEED00"/>
<path d="M29.2999 5.42566L29.3555 5.02942L29.1936 5.22391L29.1406 5.5964L29.2999 5.42566Z" fill="#FFDE00"/>
<path d="M30.5449 5.54703L30.6161 5.09056L30.457 4.92618L30.3872 5.3873L30.5449 5.54703Z" fill="#FFDB00"/>
<path d="M29.4738 5.29822L29.532 4.8812L29.3559 5.02943L29.3003 5.42568L29.4738 5.29822Z" fill="#FFD000"/>
<path d="M30.3872 5.38723L30.457 4.92611L30.2828 4.81073L30.2148 5.27191L30.3872 5.38723Z" fill="#FFCC00"/>
<path d="M29.6568 5.2176L29.7177 4.78329L29.5319 4.88123L29.4736 5.29825L29.6568 5.2176Z" fill="#FFC400"/>
<path d="M30.2147 5.2719L30.2827 4.81073L30.0981 4.74753L30.0322 5.2042L30.2147 5.2719Z" fill="#FFC400"/>
<path d="M29.8447 5.18609L29.9082 4.73843L29.7177 4.78338L29.6567 5.21769L29.8447 5.18609Z" fill="#FFC100"/>
<path d="M30.0324 5.2043L30.0983 4.74763L29.9082 4.73837L29.8447 5.18603L30.0324 5.2043Z" fill="#FFBD00"/>
<path d="M29.9629 8.98149L30.2745 8.8016L30.4396 8.65738L30.1228 8.85519L29.9629 8.98149Z" fill="#00D4FF"/>
<path d="M30.1226 8.85521L30.4394 8.6574L30.5892 8.47269L30.2675 8.69029L30.1226 8.85521Z" fill="#00E4F8"/>
<path d="M30.2676 8.69021L30.5893 8.47261L30.72 8.25195L30.3938 8.49074L30.2676 8.69021Z" fill="#0FF8E7"/>
<path d="M30.394 8.4908L30.7202 8.25202L30.8284 8.00092L30.4984 8.26176L30.394 8.4908Z" fill="#26FFD1"/>
<path d="M30.498 8.26166L30.828 8.00082L30.9109 7.72556L30.5777 8.00879L30.498 8.26166Z" fill="#3CFFBA"/>
<path d="M30.5776 8.00881L30.9108 7.72558L30.966 7.43311L30.6304 7.73849L30.5776 8.00881Z" fill="#53FFA4"/>
<path d="M30.6304 7.73862L30.966 7.43323L30.9921 7.13104L30.6547 7.45785L30.6304 7.73862Z" fill="#6DFF8A"/>
<path d="M30.6547 7.45773L30.992 7.13093L30.9881 6.82681L30.6499 7.17373L30.6547 7.45773Z" fill="#87FF70"/>
<path d="M30.6501 7.17368L30.9883 6.82676L30.9543 6.52863L30.6162 6.89381L30.6501 7.17368Z" fill="#A0FF56"/>
<path d="M30.616 6.89393L30.9541 6.52875L30.8908 6.24445L30.5537 6.62561L30.616 6.89393Z" fill="#B7FF40"/>
<path d="M30.5539 6.62546L30.891 6.2443L30.8 5.98135L30.4648 6.37581L30.5539 6.62546Z" fill="#CEFF29"/>
<path d="M30.4648 6.37581L30.8 5.98136L30.6835 5.7468L30.3511 6.15142L30.4648 6.37581Z" fill="#E4FF13"/>
<path d="M29.0092 5.78485L29.2999 5.4256L29.1407 5.59635L28.8555 5.93607L29.0092 5.78485Z" fill="#FEED00"/>
<path d="M30.3511 6.15154L30.6836 5.74692L30.5447 5.54706L30.2158 5.95847L30.3511 6.15154Z" fill="#F4F802"/>
<path d="M29.1769 5.67473L29.4734 5.29828L29.3 5.42573L29.0093 5.78498L29.1769 5.67473Z" fill="#FFDE00"/>
<path d="M30.2159 5.95853L30.5448 5.54711L30.3871 5.38736L30.0625 5.80201L30.2159 5.95853Z" fill="#FFE600"/>
<path d="M29.3539 5.60858L29.6564 5.21768L29.4733 5.29833L29.1768 5.67478L29.3539 5.60858Z" fill="#FFD300"/>
<path d="M30.0625 5.8019L30.3871 5.38725L30.2147 5.27194L29.895 5.68613L30.0625 5.8019Z" fill="#FFDB00"/>
<path d="M29.536 5.58805L29.8444 5.18588L29.6565 5.21751L29.354 5.6084L29.536 5.58805Z" fill="#FFD000"/>
<path d="M29.8948 5.68601L30.2145 5.27182L30.032 5.2041L29.7178 5.61407L29.8948 5.68601Z" fill="#FFD000"/>
<path d="M29.7181 5.61435L30.0323 5.20438L29.8446 5.1861L29.5361 5.58826L29.7181 5.61435Z" fill="#FFCC00"/>
<path d="M29.2593 9.24362L29.7923 9.06592L29.963 8.98132L29.4227 9.17158L29.2593 9.24362Z" fill="#00D0FF"/>
<path d="M29.4229 9.17166L29.9631 8.9814L30.123 8.8551L29.5757 9.05953L29.4229 9.17166Z" fill="#00DCFE"/>
<path d="M29.5757 9.05953L30.1229 8.8551L30.2679 8.69019L29.7142 8.91005L29.5757 9.05953Z" fill="#06ECF1"/>
<path d="M29.7144 8.91014L30.2681 8.69028L30.3943 8.49081L29.8349 8.72699L29.7144 8.91014Z" fill="#19FFDE"/>
<path d="M29.8345 8.72694L30.394 8.49077L30.4983 8.26172L29.9338 8.51468L29.8345 8.72694Z" fill="#29FFCE"/>
<path d="M29.9341 8.51453L30.4986 8.26158L30.5782 8.0087L30.0096 8.2785L29.9341 8.51453Z" fill="#40FFB7"/>
<path d="M30.0098 8.27871L30.5783 8.00891L30.631 7.73862L30.0595 8.02491L30.0098 8.27871Z" fill="#56FFA0"/>
<path d="M30.0591 8.02472L30.6306 7.73842L30.655 7.45764L30.0815 7.75965L30.0591 8.02472Z" fill="#6DFF8A"/>
<path d="M30.0817 7.75973L30.6551 7.45772L30.6504 7.17371L30.0762 7.49028L30.0817 7.75973Z" fill="#87FF70"/>
<path d="M30.0764 7.49041L30.6506 7.17383L30.6167 6.89398L30.043 7.22359L30.0764 7.49041Z" fill="#9DFF5A"/>
<path d="M30.0425 7.22338L30.6163 6.89378L30.554 6.62546L29.9819 6.96622L30.0425 7.22338Z" fill="#B4FF43"/>
<path d="M29.9822 6.9662L30.5543 6.62544L30.4652 6.37576L29.896 6.72554L29.9822 6.9662Z" fill="#CAFF2C"/>
<path d="M29.8959 6.72576L30.4651 6.37599L30.3514 6.15161L29.7861 6.50798L29.8959 6.72576Z" fill="#DEFF19"/>
<path d="M29.7861 6.50788L30.3513 6.15152L30.216 5.95847L29.6558 6.31879L29.7861 6.50788Z" fill="#EEFF09"/>
<path d="M28.8295 5.94786L29.3544 5.60843L29.1772 5.67465L28.6602 6.00238L28.8295 5.94786Z" fill="#FFDE00"/>
<path d="M29.6558 6.31889L30.216 5.95856L30.0626 5.80203L29.5083 6.16363L29.6558 6.31889Z" fill="#FBF100"/>
<path d="M29.0037 5.93686L29.5364 5.58801L29.3545 5.60837L28.8296 5.9478L29.0037 5.93686Z" fill="#FFDB00"/>
<path d="M29.5084 6.16341L30.0627 5.80182L29.8953 5.68604L29.3477 6.04613L29.5084 6.16341Z" fill="#FFE600"/>
<path d="M29.1777 5.9701L29.7181 5.61428L29.5361 5.58817L29.0034 5.93702L29.1777 5.9701Z" fill="#FFD700"/>
<path d="M29.3475 6.04611L29.8952 5.68601L29.7181 5.61411L29.1777 5.96992L29.3475 6.04611Z" fill="#FFDB00"/>
<path d="M28.5371 9.43695L29.259 9.24364L29.4224 9.1716L28.6924 9.37466L28.5371 9.43695Z" fill="#00D8FF"/>
<path d="M28.6929 9.37481L29.4228 9.17176L29.5757 9.05963L28.8381 9.27324L28.6929 9.37481Z" fill="#00E4F8"/>
<path d="M28.8379 9.2731L29.5755 9.05949L29.714 8.91L28.9693 9.1347L28.8379 9.2731Z" fill="#0CF4EB"/>
<path d="M28.9692 9.13469L29.714 8.90999L29.8345 8.72684L29.0834 8.96288L28.9692 9.13469Z" fill="#1CFFDB"/>
<path d="M29.0835 8.96302L29.8346 8.72697L29.934 8.51471L29.1774 8.76207L29.0835 8.96302Z" fill="#2CFFCA"/>
<path d="M29.1772 8.7619L29.9338 8.51453L30.0094 8.2785L29.2484 8.53688L29.1772 8.7619Z" fill="#43FFB4"/>
<path d="M29.248 8.53708L30.009 8.2787L30.0587 8.0249L29.2945 8.2937L29.248 8.53708Z" fill="#56FFA0"/>
<path d="M29.2949 8.29375L30.0591 8.02495L30.0816 7.75989L29.3154 8.03828L29.2949 8.29375Z" fill="#6DFF8A"/>
<path d="M29.3153 8.03802L30.0815 7.75963L30.0759 7.49017L29.3091 7.77707L29.3153 8.03802Z" fill="#83FF73"/>
<path d="M29.3091 7.77707L30.076 7.49018L30.0426 7.22336L29.2764 7.51748L29.3091 7.77707Z" fill="#9AFF5D"/>
<path d="M29.2764 7.51756L30.0426 7.22344L29.982 6.96628L29.2178 7.26612L29.2764 7.51756Z" fill="#B1FF46"/>
<path d="M29.2177 7.26614L29.9819 6.9663L29.8957 6.72562L29.1348 7.02956L29.2177 7.26614Z" fill="#C4FF33"/>
<path d="M29.135 7.02949L29.8959 6.72554L29.7862 6.50775L29.0298 6.81407L29.135 7.02949Z" fill="#D7FF1F"/>
<path d="M28.1174 6.23132L28.8291 5.94803L28.6597 6.00256L27.9565 6.27664L28.1174 6.23132Z" fill="#FFE600"/>
<path d="M29.03 6.8142L29.7864 6.50789L29.656 6.31882L28.9053 6.62568L29.03 6.8142Z" fill="#E7FF0F"/>
<path d="M28.2832 6.22815L29.0035 5.93692L28.8294 5.94784L28.1177 6.23113L28.2832 6.22815Z" fill="#FFE200"/>
<path d="M28.9051 6.62577L29.6558 6.3189L29.5083 6.16364L28.7642 6.46923L28.9051 6.62577Z" fill="#F4F802"/>
<path d="M28.4486 6.26774L29.1773 5.97006L29.003 5.93701L28.2827 6.22824L28.4486 6.26774Z" fill="#FFE200"/>
<path d="M28.7637 6.46915L29.5079 6.16356L29.3471 6.04626L28.6104 6.34879L28.7637 6.46915Z" fill="#FEED00"/>
<path d="M28.611 6.34865L29.3477 6.04613L29.178 5.96994L28.4492 6.26761L28.611 6.34865Z" fill="#FFE200"/>
<path d="M27.6768 9.64932L28.5375 9.43699L28.6928 9.37469L27.8237 9.59427L27.6768 9.64932Z" fill="#00DCFE"/>
<path d="M27.8237 9.59441L28.6929 9.37483L28.8381 9.27325L27.961 9.49999L27.8237 9.59441Z" fill="#02E8F4"/>
<path d="M27.9609 9.49993L28.838 9.27319L28.9694 9.1348L28.085 9.36841L27.9609 9.49993Z" fill="#0FF8E7"/>
<path d="M28.085 9.36844L28.9694 9.13482L29.0835 8.96301L28.1925 9.20306L28.085 9.36844Z" fill="#1FFFD7"/>
<path d="M28.1929 9.20286L29.0839 8.96282L29.1778 8.76187L28.2812 9.00773L28.1929 9.20286Z" fill="#30FFC7"/>
<path d="M28.2808 9.0078L29.1774 8.76195L29.2485 8.53693L28.3474 8.78782L28.2808 9.0078Z" fill="#43FFB4"/>
<path d="M28.3477 8.78788L29.2488 8.53698L29.2953 8.29361L28.3909 8.54866L28.3477 8.78788Z" fill="#5AFF9D"/>
<path d="M28.3906 8.54861L29.295 8.29356L29.3155 8.03809L28.4091 8.29629L28.3906 8.54861Z" fill="#6DFF8A"/>
<path d="M28.4091 8.29635L29.3155 8.03814L29.3093 7.77719L28.4023 8.03749L28.4091 8.29635Z" fill="#83FF73"/>
<path d="M28.4026 8.03742L29.3096 7.77712L29.2768 7.51752L28.3706 7.77879L28.4026 8.03742Z" fill="#9AFF5D"/>
<path d="M28.3704 7.77878L29.2767 7.51751L29.2181 7.26608L28.314 7.5272L28.3704 7.77878Z" fill="#B1FF46"/>
<path d="M28.3139 7.52736L29.218 7.26624L29.135 7.02966L28.2344 7.28951L28.3139 7.52736Z" fill="#C4FF33"/>
<path d="M28.2343 7.28954L29.1349 7.02969L29.0297 6.81427L28.1338 7.07175L28.2343 7.28954Z" fill="#D7FF1F"/>
<path d="M27.4248 6.46047L28.2834 6.22812L28.1179 6.2311L27.2681 6.45664L27.4248 6.46047Z" fill="#FFE600"/>
<path d="M28.134 7.07166L29.0299 6.81418L28.9052 6.62567L28.0151 6.87977L28.134 7.07166Z" fill="#E4FF13"/>
<path d="M27.5815 6.50643L28.4489 6.26767L28.283 6.22815L27.4243 6.4605L27.5815 6.50643Z" fill="#FFE600"/>
<path d="M28.0149 6.87978L28.905 6.62569L28.7641 6.46915L27.8809 6.71892L28.0149 6.87978Z" fill="#F1FC06"/>
<path d="M27.7351 6.5934L28.6107 6.34878L28.4489 6.26776L27.5815 6.50653L27.7351 6.5934Z" fill="#FFE600"/>
<path d="M27.8811 6.71882L28.7643 6.46905L28.611 6.34866L27.7354 6.59328L27.8811 6.71882Z" fill="#FEED00"/>
<path d="M26.9719 9.77534L27.8937 9.55203L27.7512 9.62699L26.8281 9.85126L26.9719 9.77534Z" fill="#00E4F8"/>
<path d="M27.1042 9.66034L28.025 9.43857L27.894 9.55188L26.9722 9.77519L27.1042 9.66034Z" fill="#0CF4EB"/>
<path d="M27.2208 9.50951L28.141 9.28983L28.0249 9.43873L27.104 9.6605L27.2208 9.50951Z" fill="#19FFDE"/>
<path d="M27.3192 9.32601L28.2392 9.10892L28.1409 9.28974L27.2207 9.50942L27.3192 9.32601Z" fill="#29FFCE"/>
<path d="M27.3969 9.11475L28.3171 8.9007L28.2393 9.10891L27.3193 9.326L27.3969 9.11475Z" fill="#3CFFBA"/>
<path d="M27.4516 8.88097L28.3722 8.67032L28.3171 8.90066L27.397 9.11471L27.4516 8.88097Z" fill="#53FFA4"/>
<path d="M27.4817 8.63071L28.4032 8.42374L28.3723 8.6703L27.4517 8.88095L27.4817 8.63071Z" fill="#66FF90"/>
<path d="M27.4861 8.37034L28.4088 8.16724L28.4029 8.42366L27.4814 8.63063L27.4861 8.37034Z" fill="#7DFF7A"/>
<path d="M27.4653 8.10681L28.3895 7.90765L28.4089 8.16725L27.4863 8.37036L27.4653 8.10681Z" fill="#94FF63"/>
<path d="M27.4189 7.84702L28.3449 7.65179L28.3893 7.90775L27.4651 8.1069L27.4189 7.84702Z" fill="#AAFF4D"/>
<path d="M27.3486 7.59764L28.2766 7.40622L28.3448 7.65175L27.4188 7.84698L27.3486 7.59764Z" fill="#BEFF39"/>
<path d="M27.2563 7.36559L28.1865 7.17773L28.2767 7.40632L27.3488 7.59774L27.2563 7.36559Z" fill="#D1FF26"/>
<path d="M26.4023 6.62927L27.3459 6.45325L27.5034 6.4782L26.5618 6.65474L26.4023 6.62927Z" fill="#FFE200"/>
<path d="M27.144 7.15666L28.0765 6.97205L28.1865 7.17757L27.2564 7.36543L27.144 7.15666Z" fill="#E1FF16"/>
<path d="M26.5615 6.65499L27.5031 6.47845L27.659 6.54507L26.7196 6.72276L26.5615 6.65499Z" fill="#FFE600"/>
<path d="M27.0151 6.97689L27.9499 6.7951L28.0768 6.97208L27.1444 7.15669L27.0151 6.97689Z" fill="#EEFF09"/>
<path d="M26.7197 6.72262L27.6592 6.54492L27.8093 6.65148L26.8721 6.83094L26.7197 6.72262Z" fill="#FFEA00"/>
<path d="M26.8721 6.83098L27.8092 6.65152L27.9496 6.7952L27.0148 6.97699L26.8721 6.83098Z" fill="#FBF100"/>
<path d="M26.0412 10.023L26.9721 9.77536L26.8283 9.85127L25.8926 10.1017L26.0412 10.023Z" fill="#00E0FB"/>
<path d="M26.1767 9.90363L27.1034 9.66037L26.9714 9.77522L26.0405 10.0229L26.1767 9.90363Z" fill="#09F0EE"/>
<path d="M26.2975 9.74671L27.2208 9.50928L27.104 9.66028L26.1772 9.90354L26.2975 9.74671Z" fill="#16FFE1"/>
<path d="M26.3985 9.55629L27.3192 9.32602L27.2206 9.50944L26.2974 9.74687L26.3985 9.55629Z" fill="#29FFCE"/>
<path d="M26.4778 9.33667L27.3967 9.11472L27.3191 9.32596L26.3984 9.55623L26.4778 9.33667Z" fill="#3CFFBA"/>
<path d="M26.533 9.09362L27.451 8.88092L27.3964 9.11466L26.4775 9.33661L26.533 9.09362Z" fill="#50FFA7"/>
<path d="M26.5631 8.83354L27.4814 8.63083L27.4513 8.88108L26.5332 9.09377L26.5631 8.83354Z" fill="#66FF90"/>
<path d="M26.5665 8.56279L27.4859 8.37051L27.4812 8.6308L26.563 8.83352L26.5665 8.56279Z" fill="#7DFF7A"/>
<path d="M26.5435 8.28855L27.4649 8.1069L27.4859 8.37045L26.5665 8.56273L26.5435 8.28855Z" fill="#94FF63"/>
<path d="M26.4941 8.01807L27.4186 7.84695L27.4648 8.10684L26.5433 8.28848L26.4941 8.01807Z" fill="#AAFF4D"/>
<path d="M26.4204 7.75857L27.3487 7.5976L27.4189 7.84693L26.4945 8.01805L26.4204 7.75857Z" fill="#C1FF36"/>
<path d="M26.3232 7.51699L27.2561 7.36551L27.3486 7.59766L26.4203 7.75864L26.3232 7.51699Z" fill="#D4FF23"/>
<path d="M25.4341 6.75032L26.4021 6.62936L26.5615 6.65484L25.5995 6.77693L25.4341 6.75032Z" fill="#FFDE00"/>
<path d="M26.2056 7.29966L27.1436 7.15674L27.256 7.36551L26.3231 7.51699L26.2056 7.29966Z" fill="#E4FF13"/>
<path d="M25.5996 6.77691L26.5617 6.65482L26.7197 6.72259L25.7638 6.84755L25.5996 6.77691Z" fill="#FFDE00"/>
<path d="M26.0708 7.11241L27.0146 6.9769L27.1438 7.15669L26.2057 7.29961L26.0708 7.11241Z" fill="#F1FC06"/>
<path d="M25.7637 6.84771L26.7196 6.72275L26.872 6.83107L25.9222 6.96054L25.7637 6.84771Z" fill="#FFE600"/>
<path d="M25.9224 6.9604L26.8721 6.83093L27.0148 6.97694L26.0711 7.11245L25.9224 6.9604Z" fill="#FEED00"/>
<path d="M25.0011 10.3793L25.8924 10.1017L25.7352 10.138L24.835 10.4176L25.0011 10.3793Z" fill="#00CCFF"/>
<path d="M25.1578 10.2958L26.0409 10.0227L25.8923 10.1015L25.001 10.3791L25.1578 10.2958Z" fill="#00D8FF"/>
<path d="M25.3012 10.1695L26.177 9.90353L26.0408 10.0228L25.1577 10.2958L25.3012 10.1695Z" fill="#02E8F4"/>
<path d="M25.4277 10.0033L26.2973 9.7468L26.1771 9.90363L25.3013 10.1696L25.4277 10.0033Z" fill="#13FCE4"/>
<path d="M25.5338 9.80135L26.3985 9.55637L26.2973 9.74694L25.4277 10.0035L25.5338 9.80135Z" fill="#23FFD4"/>
<path d="M25.6166 9.56812L26.4777 9.33655L26.3983 9.55611L25.5337 9.80109L25.6166 9.56812Z" fill="#39FFBE"/>
<path d="M25.6742 9.31037L26.5332 9.09372L26.4778 9.33672L25.6167 9.5683L25.6742 9.31037Z" fill="#50FFA7"/>
<path d="M25.7047 9.03411L26.5633 8.83353L26.5334 9.09375L25.6743 9.3104L25.7047 9.03411Z" fill="#66FF90"/>
<path d="M25.707 8.74659L26.5667 8.56281L26.5631 8.83354L25.7046 9.03412L25.707 8.74659Z" fill="#7DFF7A"/>
<path d="M25.6812 8.45526L26.5435 8.28857L26.5665 8.56275L25.7069 8.74653L25.6812 8.45526Z" fill="#97FF60"/>
<path d="M25.6279 8.16774L26.4945 8.01797L26.5436 8.28838L25.6813 8.45507L25.6279 8.16774Z" fill="#ADFF49"/>
<path d="M25.5483 7.89207L26.4205 7.75861L26.4945 8.01809L25.628 8.16786L25.5483 7.89207Z" fill="#C4FF33"/>
<path d="M25.4443 7.63517L26.3234 7.51694L26.4204 7.75858L25.5483 7.89204L25.4443 7.63517Z" fill="#D7FF1F"/>
<path d="M24.499 6.81996L25.4343 6.75043L25.5997 6.77703L24.6743 6.84831L24.499 6.81996Z" fill="#FFD700"/>
<path d="M25.3188 7.40427L26.2059 7.29977L26.3234 7.51711L25.4444 7.63535L25.3188 7.40427Z" fill="#EBFF0C"/>
<path d="M24.6743 6.84828L25.5997 6.77701L25.7639 6.84764L24.8485 6.92344L24.6743 6.84828Z" fill="#FFD700"/>
<path d="M25.1748 7.20519L26.0707 7.11255L26.2057 7.29975L25.3186 7.40425L25.1748 7.20519Z" fill="#F8F500"/>
<path d="M24.8481 6.92342L25.7635 6.84763L25.9221 6.96046L25.0166 7.04344L24.8481 6.92342Z" fill="#FFDB00"/>
<path d="M25.0171 7.04334L25.9226 6.96036L26.0713 7.11241L25.1753 7.20504L25.0171 7.04334Z" fill="#FFE600"/>
<path d="M22.1562 11.1899L22.7438 10.8658L22.555 10.7027L21.9492 11.011L22.1562 11.1899Z" fill="#00A0FF"/>
<path d="M21.9493 11.011L22.5551 10.7026L22.3797 10.4948L21.7568 10.7832L21.9493 11.011Z" fill="#00B0FF"/>
<path d="M22.3726 11.3153L22.9413 10.98L22.7438 10.8656L22.1562 11.1897L22.3726 11.3153Z" fill="#0094FF"/>
<path d="M21.7567 10.783L22.3795 10.4946L22.222 10.2473L21.5835 10.512L21.7567 10.783Z" fill="#00C4FF"/>
<path d="M22.5928 11.3843L23.1426 11.0428L22.9413 10.9801L22.3726 11.3153L22.5928 11.3843Z" fill="#0094FF"/>
<path d="M21.5836 10.5122L22.222 10.2475L22.0863 9.96683L21.4341 10.2046L21.5836 10.5122Z" fill="#00E0FB"/>
<path d="M22.8115 11.395L23.3425 11.0522L23.1425 11.0429L22.5928 11.3844L22.8115 11.395Z" fill="#0094FF"/>
<path d="M21.4341 10.2045L22.0862 9.96667L21.9757 9.65955L21.312 9.8679L21.4341 10.2045Z" fill="#13FCE4"/>
<path d="M23.0233 11.3468L23.5362 11.0078L23.3425 11.0522L22.8115 11.395L23.0233 11.3468Z" fill="#009CFF"/>
<path d="M21.3121 9.8681L21.9758 9.65974L21.8934 9.33383L21.2207 9.51091L21.3121 9.8681Z" fill="#30FFC7"/>
<path d="M23.2228 11.2407L23.7189 10.9106L23.5364 11.0078L23.0234 11.3468L23.2228 11.2407Z" fill="#00ACFF"/>
<path d="M21.2204 9.51063L21.8931 9.33355L21.841 8.99701L21.1621 9.14173L21.2204 9.51063Z" fill="#49FFAD"/>
<path d="M21.1623 9.14188L21.8412 8.99716L21.8208 8.65851L21.1387 8.77056L21.1623 9.14188Z" fill="#6AFF8D"/>
<path d="M21.1387 8.77056L21.8208 8.65851L21.8329 8.32639L21.1506 8.4063L21.1387 8.77056Z" fill="#87FF70"/>
<path d="M21.1504 8.40617L21.8328 8.32625L21.8772 8.00922L21.1978 8.05834L21.1504 8.40617Z" fill="#A7FF50"/>
<path d="M21.1978 8.05851L21.8772 8.00939L21.953 7.71573L21.2795 7.73621L21.1978 8.05851Z" fill="#C4FF33"/>
<path d="M21.2798 7.73602L21.9533 7.71554L22.0587 7.45301L21.3941 7.44778L21.2798 7.73602Z" fill="#DEFF19"/>
<path d="M21.394 7.44792L22.0586 7.45315L22.191 7.22879L21.5381 7.20151L21.394 7.44792Z" fill="#F8F500"/>
<path d="M21.5381 7.20142L22.191 7.22871L22.3471 7.04864L21.7083 7.00357L21.5381 7.20142Z" fill="#FFDB00"/>
<path d="M21.708 7.00374L22.3468 7.04881L22.5226 6.91801L21.9 6.85995L21.708 7.00374Z" fill="#FFC800"/>
<path d="M21.9004 6.85983L22.523 6.91789L22.7138 6.84006L22.1091 6.77423L21.9004 6.85983Z" fill="#FFB900"/>
<path d="M22.1089 6.77431L22.7136 6.84013L22.9145 6.81756L22.3289 6.74942L22.1089 6.77431Z" fill="#FFAE00"/>
<path d="M21.7214 11.5153L22.1567 11.1899L21.9497 11.011L21.4941 11.3189L21.7214 11.5153Z" fill="#008CFF"/>
<path d="M21.4942 11.3188L21.9497 11.0109L21.7573 10.7832L21.2827 11.0688L21.4942 11.3188Z" fill="#009CFF"/>
<path d="M21.9585 11.6531L22.3728 11.3153L22.1565 11.1898L21.7212 11.5151L21.9585 11.6531Z" fill="#0080FF"/>
<path d="M21.2823 11.0688L21.7568 10.7832L21.5836 10.5122L21.0918 10.7714L21.2823 11.0688Z" fill="#00B4FF"/>
<path d="M22.2 11.7291L22.5931 11.3842L22.3728 11.3152L21.9585 11.6531L22.2 11.7291Z" fill="#007CFF"/>
<path d="M21.0919 10.7715L21.5838 10.5122L21.4343 10.2047L20.9272 10.4339L21.0919 10.7715Z" fill="#00D0FF"/>
<path d="M22.44 11.7412L22.812 11.3949L22.5932 11.3843L22.2002 11.7292L22.44 11.7412Z" fill="#007CFF"/>
<path d="M20.9272 10.4339L21.4342 10.2046L21.3122 9.86807L20.7925 10.0646L20.9272 10.4339Z" fill="#09F0EE"/>
<path d="M22.672 11.6886L23.0237 11.3466L22.8119 11.3948L22.4399 11.7411L22.672 11.6886Z" fill="#0088FF"/>
<path d="M20.7927 10.0646L21.3124 9.8681L21.221 9.51093L20.6914 9.6726L20.7927 10.0646Z" fill="#26FFD1"/>
<path d="M22.8903 11.5728L23.223 11.2406L23.0236 11.3466L22.6719 11.6887L22.8903 11.5728Z" fill="#0098FF"/>
<path d="M20.6915 9.67246L21.2211 9.51078L21.1628 9.14188L20.6265 9.26747L20.6915 9.67246Z" fill="#46FFB1"/>
<path d="M23.0894 11.3959L23.4047 11.079L23.2228 11.2405L22.8901 11.5727L23.0894 11.3959Z" fill="#00ACFF"/>
<path d="M20.6262 9.26762L21.1625 9.14203L21.1389 8.77072L20.5991 8.85987L20.6262 9.26762Z" fill="#66FF90"/>
<path d="M20.5991 8.85987L21.1389 8.77072L21.1508 8.40646L20.611 8.45973L20.5991 8.85987Z" fill="#8AFF6D"/>
<path d="M20.6108 8.45964L21.1507 8.40637L21.198 8.05853L20.6616 8.07738L20.6108 8.45964Z" fill="#AAFF4D"/>
<path d="M20.6616 8.07732L21.198 8.05848L21.2798 7.73618L20.7502 7.72299L20.6616 8.07732Z" fill="#CAFF2C"/>
<path d="M20.7505 7.72303L21.28 7.73622L21.3943 7.44798L20.875 7.40601L20.7505 7.72303Z" fill="#E7FF0F"/>
<path d="M20.875 7.40604L21.3943 7.44801L21.5384 7.2016L21.0323 7.13489L20.875 7.40604Z" fill="#FFE600"/>
<path d="M21.0322 7.13469L21.5383 7.2014L21.7085 7.00355L21.2184 6.91687L21.0322 7.13469Z" fill="#FFCC00"/>
<path d="M21.2188 6.91708L21.7089 7.00375L21.9008 6.85997L21.4291 6.7587L21.2188 6.91708Z" fill="#FFB600"/>
<path d="M21.4287 6.75871L21.9005 6.85999L22.1092 6.77439L21.6577 6.66434L21.4287 6.75871Z" fill="#FFA300"/>
<path d="M21.6577 6.66423L22.1093 6.77427L22.3293 6.74939L21.8993 6.63669L21.6577 6.66423Z" fill="#FF9800"/>
<path d="M21.8994 6.63678L22.3294 6.74948L22.5549 6.7862L22.1472 6.67709L21.8994 6.63678Z" fill="#FF9400"/>
<path d="M22.147 6.67694L22.5547 6.78605L22.7795 6.88356L22.3942 6.78421L22.147 6.67694Z" fill="#FF9400"/>
<path d="M21.4326 11.8285L21.7211 11.5151L21.4939 11.3187L21.1836 11.6132L21.4326 11.8285Z" fill="#0074FF"/>
<path d="M21.184 11.6132L21.4943 11.3187L21.2828 11.0687L20.9521 11.3394L21.184 11.6132Z" fill="#0084FF"/>
<path d="M21.6926 11.9799L21.9585 11.6532L21.7212 11.5152L21.4326 11.8286L21.6926 11.9799Z" fill="#0068FF"/>
<path d="M20.9521 11.3393L21.2828 11.0686L21.0923 10.7712L20.7432 11.0135L20.9521 11.3393Z" fill="#00A0FF"/>
<path d="M21.9569 12.0634L22.1999 11.7291L21.9583 11.653L21.6924 11.9798L21.9569 12.0634Z" fill="#0064FF"/>
<path d="M20.7429 11.0136L21.0921 10.7712L20.9274 10.4337L20.562 10.6439L20.7429 11.0136Z" fill="#00C0FF"/>
<path d="M22.2196 12.077L22.4398 11.7411L22.2 11.7291L21.957 12.0634L22.2196 12.077Z" fill="#0064FF"/>
<path d="M20.5623 10.644L20.9277 10.4338L20.793 10.0645L20.4141 10.2394L20.5623 10.644Z" fill="#00E4F8"/>
<path d="M22.4737 12.0201L22.672 11.6887L22.44 11.7411L22.2197 12.0771L22.4737 12.0201Z" fill="#0070FF"/>
<path d="M20.4139 10.2394L20.7928 10.0645L20.6916 9.67242L20.3022 9.80994L20.4139 10.2394Z" fill="#1FFFD7"/>
<path d="M22.7127 11.8938L22.8903 11.573L22.6719 11.6889L22.4736 12.0203L22.7127 11.8938Z" fill="#0080FF"/>
<path d="M20.3022 9.81001L20.6915 9.67249L20.6264 9.26752L20.23 9.36622L20.3022 9.81001Z" fill="#40FFB7"/>
<path d="M22.931 11.7005L23.0897 11.396L22.8905 11.5728L22.7129 11.8937L22.931 11.7005Z" fill="#0098FF"/>
<path d="M20.2298 9.36613L20.6263 9.26743L20.5992 8.85968L20.1992 8.91915L20.2298 9.36613Z" fill="#66FF90"/>
<path d="M23.1226 11.445L23.2648 11.1625L23.0899 11.396L22.9312 11.7005L23.1226 11.445Z" fill="#00B4FF"/>
<path d="M20.1992 8.91909L20.5992 8.85962L20.6111 8.45947L20.2113 8.48027L20.1992 8.91909Z" fill="#8AFF6D"/>
<path d="M20.2114 8.48042L20.6112 8.45962L20.662 8.07739L20.2661 8.06107L20.2114 8.48042Z" fill="#ADFF49"/>
<path d="M20.2661 8.06112L20.662 8.07744L20.7506 7.7231L20.3624 7.67218L20.2661 8.06112Z" fill="#D1FF26"/>
<path d="M20.3623 7.67214L20.7506 7.72305L20.875 7.40602L20.4979 7.32397L20.3623 7.67214Z" fill="#F4F802"/>
<path d="M20.498 7.32393L20.8751 7.40597L21.0324 7.13482L20.6698 7.026L20.498 7.32393Z" fill="#FFD700"/>
<path d="M20.6699 7.026L21.0325 7.13482L21.2187 6.917L20.8735 6.78653L20.6699 7.026Z" fill="#FFB900"/>
<path d="M20.8735 6.78642L21.2187 6.91689L21.429 6.75851L21.1038 6.61218L20.8735 6.78642Z" fill="#FF9F00"/>
<path d="M21.1035 6.61219L21.4287 6.75852L21.6577 6.66414L21.3545 6.50824L21.1035 6.61219Z" fill="#FF8D00"/>
<path d="M21.3545 6.50845L21.6577 6.66435L21.8993 6.63681L21.6195 6.47797L21.3545 6.50845Z" fill="#FF8200"/>
<path d="M21.6196 6.47781L21.8994 6.63666L22.1472 6.67697L21.8916 6.52193L21.6196 6.47781Z" fill="#FF7A00"/>
<path d="M21.8916 6.52203L22.1472 6.67707L22.3945 6.78435L22.1631 6.63981L21.8916 6.52203Z" fill="#FF7E00"/>
<path d="M23.2647 11.1624L23.565 10.8659L23.4052 11.079L23.0898 11.3959L23.2647 11.1624Z" fill="#00C8FF"/>
<path d="M21.2182 12.5414L21.2119 12.3573L20.9174 12.1027L20.9014 12.2673L21.2182 12.5414Z" fill="#0028FF"/>
<path d="M20.9017 12.2674L20.9177 12.1028L20.6434 11.779L20.6064 11.9192L20.9017 12.2674Z" fill="#0040FF"/>
<path d="M21.549 12.7347L21.5193 12.5369L21.2119 12.3575L21.2182 12.5416L21.549 12.7347Z" fill="#0018FF"/>
<path d="M20.6062 11.9192L20.6432 11.7791L20.3957 11.3942L20.3398 11.5051L20.6062 11.9192Z" fill="#0060FF"/>
<path d="M21.8858 12.842L21.8323 12.6363L21.5195 12.5368L21.5492 12.7346L21.8858 12.842Z" fill="#0010FF"/>
<path d="M20.3403 11.5051L20.3961 11.3942L20.1816 10.9573L20.1094 11.0351L20.3403 11.5051Z" fill="#0088FF"/>
<path d="M22.2199 12.8607L22.1425 12.6535L21.832 12.6365L21.8856 12.8421L22.2199 12.8607Z" fill="#0014FF"/>
<path d="M20.1091 11.035L20.1814 10.9572L20.0053 10.4789L19.9194 10.5203L20.1091 11.035Z" fill="#00B4FF"/>
<path d="M22.5436 12.7896L22.4431 12.587L22.1426 12.6534L22.2199 12.8606L22.5436 12.7896Z" fill="#0020FF"/>
<path d="M19.9194 10.5203L20.0052 10.4789L19.8721 9.97092L19.7759 9.97353L19.9194 10.5203Z" fill="#02E8F4"/>
<path d="M22.8488 12.6301L22.7264 12.4384L22.4434 12.5869L22.5438 12.7895L22.8488 12.6301Z" fill="#0038FF"/>
<path d="M19.7756 9.97358L19.8718 9.97096L19.7853 9.44572L19.6821 9.40802L19.7756 9.97358Z" fill="#30FFC7"/>
<path d="M23.1271 12.3859L22.9845 12.2112L22.7261 12.4386L22.8485 12.6303L23.1271 12.3859Z" fill="#0054FF"/>
<path d="M19.6823 9.40804L19.7854 9.44574L19.7479 8.91631L19.6416 8.83774L19.6823 9.40804Z" fill="#60FF97"/>
<path d="M23.3719 12.0617L23.2114 11.9096L22.9844 12.211L23.127 12.3857L23.3719 12.0617Z" fill="#007CFF"/>
<path d="M19.6416 8.83759L19.7479 8.91616L19.7609 8.39595L19.6552 8.27695L19.6416 8.83759Z" fill="#8DFF6A"/>
<path d="M23.5768 11.6658L23.401 11.5417L23.2114 11.9098L23.372 12.0619L23.5768 11.6658Z" fill="#00A8FF"/>
<path d="M19.6553 8.27698L19.7609 8.39598L19.8244 7.89834L19.7233 7.74039L19.6553 8.27698Z" fill="#BEFF39"/>
<path d="M23.7361 11.2069L23.5484 11.1155L23.4014 11.5415L23.5771 11.6656L23.7361 11.2069Z" fill="#00D8FF"/>
<path d="M19.7231 7.74065L19.8242 7.8986L19.9371 7.43658L19.8444 7.24219L19.7231 7.74065Z" fill="#EBFF0C"/>
<path d="M23.8447 10.6969L23.6486 10.642L23.5483 11.1155L23.736 11.207L23.8447 10.6969Z" fill="#23FFD4"/>
<path d="M19.8447 7.24218L19.9374 7.43657L20.0971 7.02256L20.0166 6.79523L19.8447 7.24218Z" fill="#FFD300"/>
<path d="M23.8995 10.1481L23.6988 10.1328L23.6484 10.6419L23.8446 10.6968L23.8995 10.1481Z" fill="#50FFA7"/>
<path d="M20.0166 6.79512L20.0971 7.02245L20.2999 6.6677L20.2351 6.4119L20.0166 6.79512Z" fill="#FFA700"/>
<path d="M23.899 9.57507L23.6978 9.60135L23.699 10.1329L23.8997 10.1482L23.899 9.57507Z" fill="#80FF77"/>
<path d="M20.2349 6.41193L20.2997 6.66773L20.5407 6.38221L20.4945 6.10324L20.2349 6.41193Z" fill="#FF8200"/>
<path d="M23.8421 8.9928L23.6445 9.06157L23.6978 9.60158L23.899 9.57531L23.8421 8.9928Z" fill="#B1FF46"/>
<path d="M20.4946 6.10332L20.5408 6.38229L20.8137 6.17417L20.7889 5.87808L20.4946 6.10332Z" fill="#FF6000"/>
<path d="M23.7299 8.41629L23.54 8.5273L23.6443 9.06142L23.8419 8.99265L23.7299 8.41629Z" fill="#DEFF19"/>
<path d="M20.7886 5.87792L20.8134 6.17401L21.1112 6.04946L21.1098 5.74286L20.7886 5.87792Z" fill="#FF4A00"/>
<path d="M23.5655 7.86172L23.3872 8.01353L23.54 8.5273L23.7299 8.41629L23.5655 7.86172Z" fill="#FFE200"/>
<path d="M21.1099 5.74295L21.1112 6.04956L21.426 6.01249L21.4495 5.70239L21.1099 5.74295Z" fill="#FF3800"/>
<path d="M23.3529 7.34418L23.1899 7.53414L23.3875 8.0135L23.5657 7.86169L23.3529 7.34418Z" fill="#FFB200"/>
<path d="M21.4498 5.70221L21.4263 6.01231L21.7495 6.06419L21.7987 5.75776L21.4498 5.70221Z" fill="#FF3000"/>
<path d="M23.097 6.87805L22.9526 7.10243L23.1897 7.53416L23.3526 7.3442L23.097 6.87805Z" fill="#FF8D00"/>
<path d="M21.7986 5.75797L21.7495 6.0644L22.0725 6.20415L22.1472 5.9085L21.7986 5.75797Z" fill="#FF3400"/>
<path d="M22.8057 6.47638L22.6826 6.7304L22.9529 7.10254L23.0972 6.87816L22.8057 6.47638Z" fill="#FF6800"/>
<path d="M22.1475 5.90854L22.0728 6.20419L22.3866 6.42821L22.4862 6.1502L22.1475 5.90854Z" fill="#FF3B00"/>
<path d="M22.4859 6.15012L22.3862 6.42813L22.6823 6.73037L22.8054 6.47635L22.4859 6.15012Z" fill="#FF4E00"/>
<path d="M21.2124 12.3576L21.2725 12.1148L21.0009 11.8799L20.918 12.103L21.2124 12.3576Z" fill="#0040FF"/>
<path d="M20.9174 12.1028L21.0004 11.8797L20.7474 11.581L20.6431 11.779L20.9174 12.1028Z" fill="#0058FF"/>
<path d="M21.5193 12.5368L21.5555 12.2799L21.272 12.1146L21.2119 12.3575L21.5193 12.5368Z" fill="#0034FF"/>
<path d="M20.6435 11.7791L20.7478 11.5811L20.5196 11.2259L20.396 11.3941L20.6435 11.7791Z" fill="#0074FF"/>
<path d="M21.8323 12.6365L21.8443 12.3716L21.5558 12.2801L21.5195 12.537L21.8323 12.6365Z" fill="#002CFF"/>
<path d="M20.3957 11.3942L20.5193 11.226L20.3216 10.8229L20.1812 10.9573L20.3957 11.3942Z" fill="#009CFF"/>
<path d="M22.1425 12.6533L22.1303 12.3867L21.844 12.3714L21.832 12.6363L22.1425 12.6533Z" fill="#0030FF"/>
<path d="M20.1815 10.9572L20.3219 10.8228L20.1598 10.3816L20.0054 10.479L20.1815 10.9572Z" fill="#00C4FF"/>
<path d="M22.4431 12.5871L22.4074 12.3252L22.1304 12.3869L22.1426 12.6534L22.4431 12.5871Z" fill="#003CFF"/>
<path d="M20.0052 10.479L20.1596 10.3816L20.0372 9.91309L19.8721 9.971L20.0052 10.479Z" fill="#0CF4EB"/>
<path d="M22.7264 12.4385L22.6686 12.1877L22.4077 12.3252L22.4434 12.587L22.7264 12.4385Z" fill="#0050FF"/>
<path d="M19.8722 9.97098L20.0373 9.91307L19.9579 9.4288L19.7856 9.44573L19.8722 9.97098Z" fill="#36FFC1"/>
<path d="M22.9847 12.2111L22.9065 11.9775L22.6685 12.1878L22.7263 12.4386L22.9847 12.2111Z" fill="#006CFF"/>
<path d="M19.7855 9.44563L19.9578 9.4287L19.9237 8.9408L19.748 8.91623L19.7855 9.44563Z" fill="#60FF97"/>
<path d="M23.2115 11.9097L23.1152 11.6992L22.9062 11.9775L22.9845 12.211L23.2115 11.9097Z" fill="#0090FF"/>
<path d="M19.748 8.91623L19.9237 8.9408L19.9361 8.46159L19.761 8.39603L19.748 8.91623Z" fill="#8DFF6A"/>
<path d="M23.4011 11.5416L23.2897 11.3595L23.1152 11.6992L23.2115 11.9097L23.4011 11.5416Z" fill="#00B8FF"/>
<path d="M19.7612 8.39605L19.9363 8.46162L19.9953 8.00342L19.8247 7.89841L19.7612 8.39605Z" fill="#B7FF40"/>
<path d="M23.5485 11.1156L23.4251 10.9666L23.29 11.3596L23.4015 11.5417L23.5485 11.1156Z" fill="#02E8F4"/>
<path d="M19.8247 7.89845L19.9953 8.00346L20.0997 7.57832L19.9376 7.43646L19.8247 7.89845Z" fill="#E1FF16"/>
<path d="M23.6484 10.642L23.5167 10.5301L23.4248 10.9666L23.5482 11.1156L23.6484 10.642Z" fill="#29FFCE"/>
<path d="M19.937 7.43637L20.0991 7.57823L20.2466 7.19745L20.0967 7.02234L19.937 7.43637Z" fill="#FFDE00"/>
<path d="M23.6991 10.1328L23.5631 10.0611L23.5171 10.53L23.6487 10.6419L23.6991 10.1328Z" fill="#53FFA4"/>
<path d="M20.0972 7.02256L20.2471 7.19767L20.4342 6.87162L20.3 6.66782L20.0972 7.02256Z" fill="#FFB600"/>
<path d="M23.6978 9.60137L23.5615 9.57175L23.563 10.0611L23.699 10.1329L23.6978 9.60137Z" fill="#80FF77"/>
<path d="M20.2998 6.66769L20.434 6.8715L20.656 6.60926L20.5408 6.38217L20.2998 6.66769Z" fill="#FF9400"/>
<path d="M23.6446 9.06158L23.5122 9.07499L23.5615 9.57197L23.6978 9.6016L23.6446 9.06158Z" fill="#ADFF49"/>
<path d="M20.541 6.38219L20.6563 6.60928L20.9077 6.41831L20.8139 6.17407L20.541 6.38219Z" fill="#FF7700"/>
<path d="M23.5403 8.52725L23.416 8.58342L23.5122 9.07477L23.6446 9.06136L23.5403 8.52725Z" fill="#D7FF1F"/>
<path d="M20.8135 6.17413L20.9072 6.41838L21.1813 6.30429L21.1113 6.04959L20.8135 6.17413Z" fill="#FF6000"/>
<path d="M23.3872 8.01346L23.2749 8.1109L23.4157 8.58338L23.54 8.52722L23.3872 8.01346Z" fill="#FEED00"/>
<path d="M21.1118 6.04958L21.1819 6.30427L21.4715 6.27059L21.4266 6.01251L21.1118 6.04958Z" fill="#FF5200"/>
<path d="M23.1899 7.53433L23.0933 7.6704L23.2751 8.11114L23.3874 8.0137L23.1899 7.53433Z" fill="#FFC400"/>
<path d="M21.4263 6.01257L21.4712 6.27065L21.7685 6.31868L21.7495 6.06445L21.4263 6.01257Z" fill="#FF4A00"/>
<path d="M22.9527 7.1026L22.875 7.2735L23.0931 7.67041L23.1897 7.53434L22.9527 7.1026Z" fill="#FF9F00"/>
<path d="M21.7495 6.0643L21.7685 6.31853L22.0656 6.44724L22.0725 6.20405L21.7495 6.0643Z" fill="#FF4A00"/>
<path d="M22.6829 6.73041L22.627 6.93133L22.8755 7.27345L22.9532 7.10255L22.6829 6.73041Z" fill="#FF7E00"/>
<path d="M22.0729 6.20416L22.0659 6.44735L22.3545 6.65344L22.3867 6.42819L22.0729 6.20416Z" fill="#FF5500"/>
<path d="M22.3867 6.42813L22.3545 6.65339L22.6268 6.93129L22.6828 6.73037L22.3867 6.42813Z" fill="#FF6800"/>
<path d="M21.2726 12.1146L21.4328 11.8285L21.1839 11.6132L21.001 11.8797L21.2726 12.1146Z" fill="#005CFF"/>
<path d="M21.0011 11.8797L21.1839 11.6132L20.9521 11.3393L20.748 11.581L21.0011 11.8797Z" fill="#0070FF"/>
<path d="M21.556 12.2799L21.6926 11.9798L21.4327 11.8285L21.2725 12.1146L21.556 12.2799Z" fill="#004CFF"/>
<path d="M20.7482 11.5812L20.9522 11.3395L20.7433 11.0137L20.52 11.226L20.7482 11.5812Z" fill="#008CFF"/>
<path d="M21.8446 12.3715L21.9573 12.0635L21.6928 11.9799L21.5562 12.28L21.8446 12.3715Z" fill="#0048FF"/>
<path d="M20.5194 11.226L20.7427 11.0138L20.5618 10.6441L20.3218 10.8229L20.5194 11.226Z" fill="#00ACFF"/>
<path d="M22.1306 12.3868L22.2195 12.0772L21.9569 12.0636L21.8442 12.3715L22.1306 12.3868Z" fill="#004CFF"/>
<path d="M20.3218 10.8229L20.5618 10.6441L20.4136 10.2396L20.1597 10.3817L20.3218 10.8229Z" fill="#00D4FF"/>
<path d="M22.4079 12.3253L22.4738 12.0203L22.2198 12.0773L22.1309 12.3869L22.4079 12.3253Z" fill="#0054FF"/>
<path d="M20.16 10.3816L20.414 10.2395L20.3022 9.81L20.0376 9.9131L20.16 10.3816Z" fill="#16FFE1"/>
<path d="M22.6686 12.1877L22.7127 11.8937L22.4736 12.0201L22.4077 12.3251L22.6686 12.1877Z" fill="#0068FF"/>
<path d="M20.0374 9.91319L20.3021 9.81008L20.2299 9.3663L19.958 9.42894L20.0374 9.91319Z" fill="#3CFFBA"/>
<path d="M22.907 11.9776L22.9311 11.7007L22.713 11.8938L22.6689 12.1879L22.907 11.9776Z" fill="#0080FF"/>
<path d="M19.9579 9.42888L20.2298 9.36624L20.1992 8.91925L19.9238 8.94095L19.9579 9.42888Z" fill="#63FF94"/>
<path d="M23.1157 11.6993L23.1223 11.4452L22.9309 11.7006L22.9067 11.9776L23.1157 11.6993Z" fill="#00A0FF"/>
<path d="M19.9243 8.94079L20.1997 8.91909L20.2117 8.48028L19.9367 8.46158L19.9243 8.94079Z" fill="#8DFF6A"/>
<path d="M23.2901 11.3595L23.282 11.1334L23.1223 11.445L23.1157 11.6992L23.2901 11.3595Z" fill="#00C8FF"/>
<path d="M19.9365 8.46167L20.2115 8.48037L20.2662 8.06101L19.9955 8.00348L19.9365 8.46167Z" fill="#B4FF43"/>
<path d="M23.4254 10.9665L23.4059 10.7731L23.2822 11.1333L23.2903 11.3595L23.4254 10.9665Z" fill="#0CF4EB"/>
<path d="M19.9951 8.00334L20.2658 8.06087L20.3621 7.67194L20.0995 7.57819L19.9951 8.00334Z" fill="#DBFF1C"/>
<path d="M23.5173 10.5301L23.4898 10.3733L23.4058 10.7732L23.4253 10.9666L23.5173 10.5301Z" fill="#30FFC7"/>
<path d="M20.0996 7.57827L20.3622 7.67202L20.4978 7.32386L20.2471 7.19748L20.0996 7.57827Z" fill="#FEED00"/>
<path d="M23.5632 10.0611L23.5318 9.94382L23.4897 10.3732L23.5172 10.5301L23.5632 10.0611Z" fill="#56FFA0"/>
<path d="M20.2476 7.19766L20.4982 7.32405L20.67 7.02611L20.4347 6.87161L20.2476 7.19766Z" fill="#FFC800"/>
<path d="M23.5674 9.5719L23.5303 9.49606L23.532 9.94395L23.5692 10.0613L23.5674 9.5719Z" fill="#80FF77"/>
<path d="M20.4346 6.87143L20.6699 7.02593L20.8735 6.78646L20.6566 6.60919L20.4346 6.87143Z" fill="#FFA700"/>
<path d="M23.5126 9.07485L23.4854 9.04135L23.5305 9.49597L23.5619 9.57181L23.5126 9.07485Z" fill="#A7FF50"/>
<path d="M20.6562 6.60933L20.8732 6.7866L21.1035 6.61236L20.9076 6.41837L20.6562 6.60933Z" fill="#FF8D00"/>
<path d="M23.416 8.58362L23.397 8.59217L23.485 9.04147L23.5122 9.07497L23.416 8.58362Z" fill="#CEFF29"/>
<path d="M20.9077 6.41832L21.1035 6.61231L21.3545 6.50836L21.1819 6.30423L20.9077 6.41832Z" fill="#FF7700"/>
<path d="M23.275 8.11111L23.2681 8.16024L23.3968 8.59214L23.4158 8.5836L23.275 8.11111Z" fill="#F4F802"/>
<path d="M21.1816 6.30416L21.3543 6.50829L21.6193 6.4778L21.4713 6.27048L21.1816 6.30416Z" fill="#FF6C00"/>
<path d="M23.0933 7.67014L23.1019 7.75722L23.2681 8.15999L23.2751 8.11087L23.0933 7.67014Z" fill="#FFD300"/>
<path d="M21.4717 6.27063L21.6197 6.47796L21.8917 6.52208L21.769 6.31865L21.4717 6.27063Z" fill="#FF6400"/>
<path d="M22.8755 7.27338L22.9029 7.3947L23.1023 7.75736L23.0936 7.67028L22.8755 7.27338Z" fill="#FFB200"/>
<path d="M21.769 6.3186L21.8917 6.52203L22.1632 6.63981L22.0661 6.44732L21.769 6.3186Z" fill="#FF6400"/>
<path d="M22.627 6.93124L22.6758 7.08209L22.9029 7.39468L22.8755 7.27336L22.627 6.93124Z" fill="#FF9400"/>
<path d="M22.0659 6.4472L22.163 6.63969L22.4268 6.82809L22.3545 6.65329L22.0659 6.4472Z" fill="#FF6C00"/>
<path d="M22.3545 6.65326L22.4268 6.82805L22.6756 7.08201L22.6268 6.93116L22.3545 6.65326Z" fill="#FF7E00"/>
<path d="M21.2568 12.6536L21.2187 12.5417L20.9019 12.2676L20.9187 12.3611L21.2568 12.6536Z" fill="#000CFF"/>
<path d="M20.9185 12.3611L20.9016 12.2676L20.6064 11.9193L20.6035 11.9895L20.9185 12.3611Z" fill="#0028FF"/>
<path d="M21.6098 12.8596L21.5495 12.7347L21.2188 12.5416L21.2569 12.6535L21.6098 12.8596Z" fill="#0000FF"/>
<path d="M20.6036 11.9895L20.6065 11.9194L20.3402 11.5052L20.3193 11.5476L20.6036 11.9895Z" fill="#004CFF"/>
<path d="M21.969 12.9743L21.8859 12.8421L21.5493 12.7347L21.6097 12.8596L21.969 12.9743Z" fill="#0000FF"/>
<path d="M20.3193 11.5474L20.3401 11.505L20.1091 11.0349L20.0728 11.0458L20.3193 11.5474Z" fill="#0074FF"/>
<path d="M22.3257 12.9943L22.22 12.8605L21.8857 12.8419L21.9688 12.9742L22.3257 12.9943Z" fill="#0000FF"/>
<path d="M20.0727 11.046L20.109 11.0351L19.9194 10.5205L19.8701 10.4967L20.0727 11.046Z" fill="#00A8FF"/>
<path d="M22.6716 12.9188L22.5439 12.7896L22.2202 12.8606L22.3259 12.9943L22.6716 12.9188Z" fill="#0008FF"/>
<path d="M19.8701 10.4966L19.9194 10.5204L19.7759 9.97364L19.7168 9.91281L19.8701 10.4966Z" fill="#00E0FB"/>
<path d="M22.9977 12.7489L22.849 12.6301L22.5439 12.7895L22.6717 12.9187L22.9977 12.7489Z" fill="#0020FF"/>
<path d="M19.7167 9.91289L19.7757 9.97371L19.6823 9.40815L19.6167 9.30884L19.7167 9.91289Z" fill="#2CFFCA"/>
<path d="M23.2957 12.4886L23.1277 12.386L22.8491 12.6304L22.9978 12.7492L23.2957 12.4886Z" fill="#0040FF"/>
<path d="M19.6169 9.30865L19.6824 9.40796L19.6418 8.83767L19.5732 8.69928L19.6169 9.30865Z" fill="#5DFF9A"/>
<path d="M23.5576 12.1426L23.3724 12.0618L23.1274 12.3858L23.2955 12.4884L23.5576 12.1426Z" fill="#0068FF"/>
<path d="M19.5732 8.6995L19.6418 8.83789L19.6554 8.27725L19.5876 8.10016L19.5732 8.6995Z" fill="#90FF66"/>
<path d="M23.7767 11.7199L23.5769 11.6658L23.3721 12.0619L23.5573 12.1428L23.7767 11.7199Z" fill="#0098FF"/>
<path d="M19.5874 8.10016L19.6552 8.27725L19.7233 7.74068L19.6599 7.52625L19.5874 8.10016Z" fill="#C1FF36"/>
<path d="M23.9476 11.2298L23.7362 11.2069L23.5771 11.6657L23.777 11.7197L23.9476 11.2298Z" fill="#00CCFF"/>
<path d="M19.6602 7.52594L19.7236 7.74037L19.8449 7.24192L19.7896 6.99249L19.6602 7.52594Z" fill="#F4F802"/>
<path d="M24.0647 10.6848L23.845 10.6969L23.7363 11.207L23.9478 11.2299L24.0647 10.6848Z" fill="#1CFFDB"/>
<path d="M19.7896 6.99249L19.8449 7.24192L20.0167 6.79496L19.9731 6.51385L19.7896 6.99249Z" fill="#FFC400"/>
<path d="M24.1239 10.0981L23.8997 10.1482L23.8447 10.6969L24.0644 10.6847L24.1239 10.0981Z" fill="#4DFFAA"/>
<path d="M19.9731 6.51394L20.0168 6.79505L20.2353 6.41184L20.2066 6.10327L19.9731 6.51394Z" fill="#FF9800"/>
<path d="M24.1244 9.4852L23.8994 9.57511L23.9001 10.1482L24.1244 10.0981L24.1244 9.4852Z" fill="#80FF77"/>
<path d="M20.2065 6.10333L20.2352 6.4119L20.4949 6.10321L20.4841 5.77228L20.2065 6.10333Z" fill="#FF6F00"/>
<path d="M24.064 8.86188L23.8423 8.99252L23.8991 9.57501L24.1241 9.48509L24.064 8.86188Z" fill="#B4FF43"/>
<path d="M20.4839 5.77216L20.4947 6.1031L20.7889 5.87786L20.7986 5.5303L20.4839 5.77216Z" fill="#FF4A00"/>
<path d="M23.9445 8.24521L23.73 8.41634L23.842 8.99267L24.0636 8.86203L23.9445 8.24521Z" fill="#E4FF13"/>
<path d="M20.7987 5.53029L20.7891 5.87784L21.1103 5.74279L21.1424 5.38495L20.7987 5.53029Z" fill="#FF3000"/>
<path d="M23.7694 7.65167L23.5659 7.8619L23.7304 8.41645L23.9449 8.24532L23.7694 7.65167Z" fill="#FFD300"/>
<path d="M21.1425 5.38522L21.1104 5.74306L21.45 5.70249L21.5059 5.34109L21.1425 5.38522Z" fill="#FF2200"/>
<path d="M23.542 7.09741L23.353 7.34422L23.5659 7.86175L23.7694 7.65152L23.542 7.09741Z" fill="#FFA300"/>
<path d="M21.5061 5.341L21.4502 5.7024L21.7991 5.75794L21.8795 5.39987L21.5061 5.341Z" fill="#FF1A00"/>
<path d="M23.2685 6.59833L23.0972 6.8781L23.3528 7.34425L23.5418 7.09744L23.2685 6.59833Z" fill="#FF7A00"/>
<path d="M21.8792 5.39996L21.7988 5.75803L22.1474 5.90858L22.2523 5.56071L21.8792 5.39996Z" fill="#FF1A00"/>
<path d="M22.9567 6.16806L22.8057 6.4762L23.0972 6.87799L23.2686 6.59821L22.9567 6.16806Z" fill="#FF5500"/>
<path d="M22.2524 5.56064L22.1475 5.90851L22.4862 6.15017L22.6149 5.81912L22.2524 5.56064Z" fill="#FF2500"/>
<path d="M22.615 5.81897L22.4863 6.15002L22.8059 6.47625L22.9569 6.16811L22.615 5.81897Z" fill="#FF3800"/>
<defs>
<linearGradient id="paint0_linear_144_585372" x1="13" y1="3" x2="13" y2="29" gradientUnits="userSpaceOnUse">
<stop stop-color="#E78426"/>
<stop offset="0.519522" stop-color="#ED2124"/>
<stop offset="1" stop-color="#E78426"/>
</linearGradient>
<linearGradient id="paint1_linear_144_585372" x1="5.6875" y1="8.6875" x2="20.3125" y2="23.3125" gradientUnits="userSpaceOnUse">
<stop stop-color="#ED1D24"/>
<stop offset="1" stop-color="#E59926"/>
</linearGradient>
<clipPath id="clip0_144_585372">
<rect width="26" height="26" fill="white" transform="translate(0 3)"/>
</clipPath>
</defs>
</svg>
