<svg width="32" height="32" viewBox="0 0 32 32" fill="none" xmlns="http://www.w3.org/2000/svg">
<circle cx="16" cy="16" r="16" fill="white"/>
<path fill-rule="evenodd" clip-rule="evenodd" d="M11.8547 3.38381C13.3453 2.89389 14.9382 2.66989 16.5161 2.73037C18.0944 2.79085 19.6579 3.13613 21.1129 3.74413C22.5683 4.35213 23.9152 5.22317 25.0675 6.29773C26.5917 7.71949 27.775 9.49773 28.4848 11.4868C29.1949 13.4763 29.4314 15.6766 29.1574 17.7713C28.8838 19.866 28.0998 21.8555 26.9139 23.5662C25.728 25.2769 24.1398 26.7086 22.2745 27.7006C20.4093 28.6923 18.2662 29.244 16.1539 29.276C14.0416 29.308 11.9597 28.8206 10.095 27.8952C8.23071 26.9697 6.58335 25.6065 5.33247 23.9038C4.08159 22.2011 3.22719 20.1588 2.88799 18.075C2.54879 15.9908 2.72479 13.8648 3.37471 11.8814C3.86591 10.3819 4.62815 8.96429 5.60479 7.73581H4.12031V5.28205H9.93695V10.7137H7.48319V9.22957C6.68319 10.2356 6.05855 11.3969 5.65631 12.6257C5.12415 14.2513 4.98079 15.9953 5.25631 17.6971C5.59871 19.8139 6.58879 21.8651 8.06655 23.4459C9.83423 25.3364 12.2995 26.5544 14.8659 26.8209C17.432 27.0875 20.0992 26.403 22.2173 24.9288C24.3354 23.4545 25.905 21.1905 26.5421 18.69C27.1792 16.1896 26.8838 13.4526 25.735 11.1422C24.5862 8.83181 22.5837 6.94861 20.1891 5.95917C17.7945 4.96941 15.0077 4.87405 12.6038 5.66381L11.8547 3.38381Z" fill="#0657F9"/>
<path d="M15.3405 9.14368C15.544 9.04907 15.7663 9 15.9913 9C16.2163 9 16.4386 9.04907 16.6421 9.14368L20.4145 11.0986C20.5096 11.1405 20.5928 11.2048 20.6567 11.2858C20.7207 11.3669 20.7635 11.4622 20.7813 11.5633H20.7849V21.39C20.7761 21.5004 20.7369 21.6064 20.6717 21.6966C20.6064 21.7867 20.5175 21.8577 20.4145 21.902L16.6428 23.8563C16.4393 23.9509 16.2171 24 15.992 24C15.767 24 15.5448 23.9509 15.3412 23.8563L11.5696 21.902C11.4677 21.8572 11.3802 21.786 11.3163 21.6959C11.2525 21.6058 11.2147 21.5002 11.2071 21.3906C11.2071 21.3737 11.2071 21.3596 11.2071 21.3472V11.5633C11.2225 11.4619 11.2638 11.366 11.3273 11.2847C11.3907 11.2033 11.4741 11.1393 11.5696 11.0986L15.3405 9.14368ZM20.1911 17.0457L16.6428 18.8848C16.4393 18.9794 16.2171 19.0285 15.992 19.0285C15.767 19.0285 15.5448 18.9794 15.3412 18.8848L11.7999 17.0498V21.3706L15.3412 23.1961C15.5167 23.3008 15.7095 23.374 15.9109 23.4123L15.9921 23.4173C16.2133 23.3958 16.4268 23.326 16.6171 23.2129L20.1912 21.3543L20.1911 17.0457ZM10.5937 21.1764C10.576 21.4489 10.6214 21.7219 10.7263 21.9746C10.8163 22.1363 10.9492 22.2709 11.1107 22.3639L11.1223 22.3716C11.1664 22.4007 11.2151 22.4313 11.2738 22.4673L11.3435 22.5094L11.5576 22.6361L11.2514 23.1343L11.0117 22.9924L10.9713 22.9681C10.902 22.9261 10.8444 22.8901 10.7908 22.8546C10.218 22.4756 10.0044 22.0622 10 21.2025V21.1764H10.5937ZM15.6944 14.4121C15.6684 14.4208 15.6431 14.4315 15.6187 14.444L11.8468 16.3989L11.8355 16.4051L11.8322 16.4069L11.8381 16.4103L11.8466 16.415L15.6183 18.3699C15.6427 18.3824 15.668 18.3931 15.6941 18.4018L15.6944 14.4121ZM16.2897 14.4121V18.4014C16.3157 18.3927 16.341 18.382 16.3654 18.3695L20.1371 16.4146L20.1484 16.4084L20.1517 16.4065L20.1458 16.4032L20.1373 16.3985L16.3656 14.4438C16.3411 14.4313 16.3158 14.4207 16.2897 14.4121ZM20.1909 12.2607L16.808 14.0142L20.1912 15.7676L20.1909 12.2607ZM11.8002 12.2648V15.7635L15.1755 14.0142L11.8002 12.2648ZM16.3656 9.65883C16.2477 9.60854 16.1205 9.5826 15.992 9.5826C15.8636 9.5826 15.7364 9.60854 15.6185 9.65883L11.8468 11.6139L11.8355 11.6201L11.8322 11.622L11.8381 11.6253L11.8466 11.63L15.6183 13.5849C15.7362 13.6352 15.8634 13.6611 15.9919 13.6611C16.1203 13.6611 16.2475 13.6352 16.3654 13.5849L20.1371 11.63L20.1484 11.6238L20.1517 11.622L20.1458 11.6186L20.1373 11.6139L16.3656 9.65883ZM20.7486 9.87318L20.9883 10.0153L21.0287 10.0395C21.098 10.0816 21.1556 10.1176 21.2092 10.1531C21.782 10.5321 21.9958 10.9455 22 11.8051V11.8313H21.4063C21.424 11.5587 21.3786 11.2858 21.2737 11.0331C21.1838 10.8711 21.0509 10.7363 20.8893 10.643L20.8777 10.6354C20.8336 10.6062 20.7849 10.5756 20.7262 10.5396L20.6565 10.4976L20.4424 10.3708L20.7486 9.87318Z" fill="black"/>
</svg>
