<?xml version="1.0" standalone="no"?>
<!DOCTYPE svg PUBLIC "-//W3C//DTD SVG 20010904//EN"
 "http://www.w3.org/TR/2001/REC-SVG-20010904/DTD/svg10.dtd">
<svg version="1.0" xmlns="http://www.w3.org/2000/svg"
 width="200.000000pt" height="200.000000pt" viewBox="0 0 200.000000 200.000000"
 preserveAspectRatio="xMidYMid meet">

<g transform="translate(0.000000,200.000000) scale(0.100000,-0.100000)"
fill="#000000" stroke="none">
<path d="M801 1945 c-98 -22 -158 -43 -251 -91 -232 -119 -407 -331 -486 -590
-25 -81 -28 -104 -28 -254 -1 -180 11 -244 73 -390 112 -263 358 -471 647
-546 83 -22 121 -26 234 -27 246 0 447 71 625 220 173 146 286 335 330 552 24
115 16 334 -14 441 -100 347 -395 618 -749 686 -92 18 -297 17 -381 -1z m438
-194 c130 -44 222 -100 317 -195 95 -96 151 -186 195 -316 30 -88 33 -105 33
-230 1 -146 -12 -208 -65 -327 -37 -83 -80 -146 -153 -221 -154 -160 -346
-242 -565 -242 -316 0 -577 163 -721 449 -51 103 -73 199 -73 331 0 142 18
223 78 345 76 156 192 275 345 354 142 73 224 91 395 87 103 -3 133 -8 214
-35z"/>
<path d="M907 1720 c-290 -35 -525 -236 -614 -525 -14 -46 -18 -91 -17 -195 0
-118 4 -145 27 -215 38 -115 90 -198 182 -291 124 -125 285 -197 470 -211 93
-6 218 14 313 51 204 80 377 277 432 492 25 96 27 251 4 343 -86 355 -433 595
-797 551z m200 -259 c51 -26 106 -89 121 -140 27 -89 8 -171 -55 -242 l-44
-48 57 -240 c31 -131 54 -246 51 -255 -6 -14 -35 -16 -241 -16 -216 0 -235 1
-240 18 -3 10 19 121 49 247 30 126 55 235 55 243 0 8 -11 23 -25 34 -14 11
-37 41 -53 66 -22 39 -27 59 -27 117 0 58 5 78 28 117 68 116 208 159 324 99z"/>
<path d="M912 1404 c-70 -36 -105 -118 -88 -208 6 -32 34 -67 94 -117 22 -19
26 3 -49 -307 -21 -89 -39 -169 -39 -177 0 -13 27 -15 171 -15 137 0 170 3
166 13 -11 28 -107 447 -107 464 1 10 18 30 40 45 50 35 74 80 74 143 0 100
-65 167 -168 172 -43 3 -71 -1 -94 -13z"/>
</g>
</svg>
