<svg viewBox="0 0 600 600" fill="none" xmlns="http://www.w3.org/2000/svg" xmlns:xlink="http://www.w3.org/1999/xlink">
    <path d="M300 600a300 300 0 100-600 300 300 0 000 600z" fill="#fce1bc"/>
    <path d="M300 600a300 300 0 100-600 300 300 0 000 600z" fill="url(#a)" fill-opacity=".3"/>
    <g fill="#595563">
        <path d="M479 135.1l-15.5 15.6c77 84.2 77 213.4 0 297.6L479 464a242.8 242.8 0 000-329.2zM151.3 136.5c84.3-77.1 213.4-77.1 297.7 0l15.5-15.6a242.8 242.8 0 00-329.2 0zM136.8 448.5c-77-84.2-77-213.3 0-297.6l-15.5-15.5a242.8 242.8 0 00-.1 329.2zM448.8 462.9c-84.2 77-213.4 77-297.6 0l-15.6 15.6a242.8 242.8 0 00329.2 0z"/>
    </g>
    <path d="M391.5 242.4c-3.1-32.5-31.2-43.4-66.6-46.7v-44.8h-27.4v44c-7.2 0-14.6 0-22 .2V151h-27.2v45.2h-55.6v29.3s20.3-.4 20 0c7.5-.9 14.4 4.5 15.5 12V361c-.2 2.6-1.4 5-3.3 6.7s-4.5 2.6-7 2.4c.3.3-20 0-20 0l-5.4 32.7h55.4v45.9h27.4v-45.2h21.9v45h27.5V403c46.3-2.8 78.6-14.2 82.6-57.6 3.3-34.9-13.1-50.4-39.4-56.7 16-8.2 26-22.5 23.6-46.3zM353.1 340c0 34-58.3 30.2-76.9 30.2v-60.4c18.6 0 77-5.3 77 30.2zm-12.7-85.2c0 31.2-48.7 27.4-64.1 27.4v-55c15.4.1 64.1-4.8 64.1 27.6z" fill="#e39552"/>
    <g transform="scale(16.214,16.214)">
        <path d="M29.0001 21.5H29.0004C33.1425 21.5 36.5002 24.8578 36.5002 28.9999V29.0002C36.5002 33.1422 33.1425 36.5 29.0004 36.5H29.0001C24.858 36.5 21.5002 33.1422 21.5002 29.0002V28.9999C21.5002 24.8578 24.858 21.5 29.0001 21.5Z" fill="#F47226" stroke="white"/>
        <path d="M31.447 30.5765V29.9775C31.8174 29.8514 32.0854 29.4574 32.0854 28.9924C32.0854 28.5274 31.8174 28.1333 31.447 28.0072V27.4083C31.7938 27.2901 32.0539 26.9354 32.0775 26.502H31.6598V26.6832C31.6598 26.8251 31.5731 26.9512 31.447 27.0063V26.9354C31.447 26.8093 31.3367 26.7069 31.2027 26.7069H31.1791C31.0451 26.7069 30.9348 26.8093 30.9348 26.9354V27.0221C30.8087 26.9591 30.722 26.8408 30.722 26.699V26.5177H30.3043C30.3358 26.9433 30.588 27.3058 30.9348 27.424V28.023C30.5643 28.1491 30.2964 28.5432 30.2964 29.0081C30.2964 29.4731 30.5643 29.8672 30.9348 29.9933V30.5922C30.588 30.7105 30.3279 31.0651 30.3043 31.4986H30.722V31.3173C30.722 31.1754 30.8087 31.0493 30.9348 30.9942V31.0809C30.9348 31.207 31.0451 31.3094 31.1791 31.3094H31.2027C31.3367 31.3094 31.447 31.207 31.447 31.0809V30.9942C31.5731 31.0572 31.6598 31.1754 31.6598 31.3173V31.4986H32.0775C32.0539 31.0493 31.7938 30.6947 31.447 30.5765ZM30.722 29.2525V28.7323C30.722 28.5904 30.8087 28.4643 30.9348 28.4092V28.4959C30.9348 28.622 31.0451 28.7244 31.1791 28.7244H31.2027C31.3367 28.7244 31.447 28.622 31.447 28.4959V28.4092C31.5731 28.4722 31.6598 28.5904 31.6598 28.7323V29.2525C31.6598 29.3943 31.5731 29.5204 31.447 29.5756V29.4889C31.447 29.3628 31.3367 29.2603 31.2027 29.2603H31.1791C31.0451 29.2603 30.9348 29.3628 30.9348 29.4889V29.5756C30.8087 29.5204 30.722 29.3943 30.722 29.2525Z" fill="black"/>
        <path d="M34.032 29.3076V28.6693C34.4024 28.5432 34.6704 28.1491 34.6704 27.6841C34.6704 27.2191 34.4024 26.8251 34.032 26.699V26.502H33.5277V26.699C33.1572 26.8251 32.8893 27.2191 32.8893 27.6841C32.8893 28.1491 33.1572 28.5432 33.5277 28.6693V29.3076C33.1572 29.4337 32.8893 29.8278 32.8893 30.2928C32.8893 30.7577 33.1572 31.1518 33.5277 31.2779V31.4749H34.032V31.2779C34.4024 31.1518 34.6704 30.7577 34.6704 30.2928C34.6704 29.8278 34.4024 29.4337 34.032 29.3076ZM33.3149 27.9521V27.4319C33.3149 27.2901 33.4016 27.164 33.5277 27.1088V27.1955C33.5277 27.3216 33.638 27.424 33.772 27.424H33.7956C33.9296 27.424 34.0399 27.3216 34.0399 27.1955V27.1088C34.166 27.1718 34.2527 27.2901 34.2527 27.4319V27.9521C34.2527 28.0939 34.166 28.22 34.0399 28.2752V28.1964C34.0399 28.0703 33.9296 27.9678 33.7956 27.9678H33.772C33.638 27.9678 33.5277 28.0703 33.5277 28.1964V28.2831C33.4016 28.22 33.3149 28.0939 33.3149 27.9521ZM34.2448 30.5528C34.2448 30.6947 34.1581 30.8208 34.032 30.876V30.7499C34.032 30.6238 33.9217 30.5213 33.7877 30.5213H33.7641C33.6301 30.5213 33.5198 30.6238 33.5198 30.7499V30.876C33.3937 30.8129 33.307 30.6947 33.307 30.5528V30.0327C33.307 29.8908 33.3937 29.7647 33.5198 29.7096V29.7568C33.5198 29.8829 33.6301 29.9854 33.7641 29.9854H33.7877C33.9217 29.9854 34.032 29.8829 34.032 29.7568V29.7096C34.1581 29.7726 34.2448 29.8908 34.2448 30.0327V30.5528Z" fill="black"/>
        <path d="M28.531 28.4877C28.5231 28.4641 28.5231 28.4405 28.5073 28.4168C28.5073 28.4089 29.3033 27.3844 28.5704 26.7539C27.8374 26.1234 26.9863 26.943 26.9784 26.9509C26.8444 26.9115 26.7026 26.8879 26.5686 26.8721C26.2928 26.8327 25.8987 26.8721 25.8987 26.8721C25.7647 26.88 25.6307 26.9036 25.4968 26.943C25.4889 26.9352 24.6377 26.1155 23.9048 26.746C23.1718 27.3765 23.96 28.401 23.9678 28.4089C23.96 28.4326 23.9521 28.4562 23.9442 28.4799C23.8654 28.9212 23.3295 29.0552 23.3295 29.8196C23.3295 30.5999 23.889 31.2146 25.0397 31.2146H25.5125C25.5125 31.2146 25.6938 31.4589 26.0721 31.4747C26.0721 31.4747 26.1588 31.4826 26.3558 31.4747C26.7577 31.4747 26.9469 31.2225 26.9469 31.2146H27.4197C28.5704 31.2146 29.1299 30.5999 29.1299 29.8196C29.1536 29.0631 28.6098 28.9212 28.531 28.4877Z" fill="black"/>
    </g>
    <defs>
        <radialGradient id="a" cx="0" cy="0" gradientTransform="rotate(54.2 -42.3 263.4) scale(497.082)" gradientUnits="userSpaceOnUse" r="1">
            <stop offset="0" stop-color="#ffefd8"/>
            <stop offset="1" stop-color="#d99231"/>
        </radialGradient>
    </defs>
</svg>