<?xml version="1.0" encoding="UTF-8"?>
<svg id="Layer_2" data-name="Layer 2" xmlns="http://www.w3.org/2000/svg" viewBox="0 0 753.92 752.08">
  <defs>
    <style>
      .cls-1 {
        fill: #6acf9c;
      }
    </style>
  </defs>
  <g id="Layer_1-2" data-name="Layer 1-2">
    <g>
      <path class="cls-1" d="M685.69,588.73l-147.5,147.14c-10.4,10.37-24.51,16.21-39.22,16.21H231.98l347.96-347.11,105.75,105.49c21.66,21.61,21.66,56.66,0,78.26h0Z"/>
      <path class="cls-1" d="M521.95,0L173.99,347.11l-105.75-105.49c-21.66-21.61-21.66-56.66,0-78.26L215.73,16.21C226.13,5.84,240.24,0,254.95,0h267Z"/>
      <path class="cls-1" d="M753.92,520.67L405.95,173.56l105.75-105.49c21.66-21.61,56.8-21.61,78.46,0l147.5,147.14c10.4,10.37,16.25,24.46,16.25,39.12v266.33h0Z"/>
      <path class="cls-1" d="M347.96,578.52l-105.75,105.49c-21.66,21.61-56.8,21.61-78.46,0L16.25,536.87c-10.4-10.37-16.25-24.46-16.25-39.12V231.41l347.96,347.11Z"/>
    </g>
  </g>
</svg>