<svg width="32" height="32" viewBox="0 0 32 32" fill="none" xmlns="http://www.w3.org/2000/svg">
<path fill-rule="evenodd" clip-rule="evenodd" d="M32 16C32 13.9059 31.5834 11.8118 30.7821 9.87712C29.9805 7.9424 28.7942 6.16704 27.3136 4.6864C25.833 3.20544 24.0576 2.01952 22.1229 1.21792C20.1882 0.41664 18.0941 0 16 0C13.9059 0 11.8115 0.41664 9.8768 1.21792C7.94208 2.01952 6.16704 3.20544 4.68608 4.6864C3.20544 6.16704 2.0192 7.9424 1.21792 9.87712C0.41632 11.8118 0 13.9059 0 16C0 18.0941 0.41632 20.1882 1.21792 22.1229C2.0192 24.0576 3.20544 25.833 4.68608 27.3139C6.16704 28.7946 7.94208 29.9808 9.8768 30.7821C11.8115 31.5834 13.9059 32 16 32C18.0941 32 20.1882 31.5834 22.1229 30.7821C24.0576 29.9808 25.833 28.7946 27.3136 27.3139C28.7942 25.833 29.9805 24.0576 30.7821 22.1229C31.5834 20.1882 32 18.0941 32 16Z" fill="white"/>
<path fill-rule="evenodd" clip-rule="evenodd" d="M11.8547 3.38381C13.3453 2.89389 14.9382 2.66989 16.5161 2.73037C18.0944 2.79085 19.6579 3.13613 21.1129 3.74413C22.5683 4.35213 23.9152 5.22317 25.0675 6.29773C26.5917 7.71949 27.775 9.49773 28.4848 11.4868C29.1949 13.4763 29.4314 15.6766 29.1574 17.7713C28.8838 19.866 28.0998 21.8555 26.9139 23.5662C25.728 25.2769 24.1398 26.7086 22.2745 27.7006C20.4093 28.6923 18.2662 29.244 16.1539 29.276C14.0416 29.308 11.9597 28.8206 10.095 27.8952C8.23071 26.9697 6.58335 25.6065 5.33247 23.9038C4.08159 22.2011 3.22719 20.1588 2.88799 18.075C2.54879 15.9908 2.72479 13.8648 3.37471 11.8814C3.86591 10.3819 4.62815 8.96429 5.60479 7.73581H4.12031V5.28205H9.93695V10.7137H7.48319V9.22957C6.68319 10.2356 6.05855 11.3969 5.65631 12.6257C5.12415 14.2513 4.98079 15.9953 5.25631 17.6971C5.59871 19.8139 6.58879 21.8651 8.06655 23.4459C9.83423 25.3364 12.2995 26.5544 14.8659 26.8209C17.432 27.0875 20.0992 26.403 22.2173 24.9288C24.3353 23.4545 25.905 21.1905 26.5421 18.69C27.1792 16.1896 26.8838 13.4526 25.735 11.1422C24.5862 8.83181 22.5837 6.94861 20.1891 5.95917C17.7945 4.96941 15.0077 4.87405 12.6038 5.66381L11.8547 3.38381Z" fill="url(#paint0_linear_2183_10935)"/>
<path fill-rule="evenodd" clip-rule="evenodd" d="M14.1041 22.9535C14.1041 23.2028 13.9307 23.2858 13.6791 23.2858C10.5297 22.2778 8.32001 19.4144 8.32001 16.0469C8.32001 12.6793 10.5297 9.8159 13.6791 8.80788C13.9315 8.72706 14.1041 8.89092 14.1041 9.14591C14.1041 9.34149 14.1041 9.53728 14.1041 9.73286C14.1041 9.9046 14.0147 10.0707 13.8468 10.1537C11.3798 11.0787 9.67931 13.3552 9.67931 16.0469C9.67931 18.7442 11.4639 21.0981 13.8468 21.94C14.0147 22.023 14.1041 22.1948 14.1041 22.3609C14.1041 22.5585 14.1041 22.7561 14.1041 22.9535Z" fill="black"/>
<path fill-rule="evenodd" clip-rule="evenodd" d="M16.655 20.8494C16.655 21.0155 16.4815 21.1815 16.3138 21.1815C16.0862 21.1815 15.8589 21.1815 15.6314 21.1815C15.4636 21.1815 15.2902 21.0155 15.2902 20.8494C15.2902 20.5115 15.2902 20.1735 15.2902 19.8357C13.9307 19.6696 13.254 18.9107 12.9966 17.8142C12.9966 17.6479 13.0805 17.4818 13.254 17.4818C13.5074 17.4818 13.7611 17.4818 14.0147 17.4818C14.1882 17.4818 14.2721 17.5649 14.3559 17.731C14.5294 18.3238 14.8649 18.8277 15.9726 18.8277C16.8229 18.8277 17.4157 18.4068 17.4157 17.731C17.4157 17.061 17.0803 16.8062 15.8887 16.6399C14.1033 16.391 13.254 15.8812 13.254 14.4467C13.254 13.3556 14.1041 12.5137 15.2902 12.3419C15.2902 12.0059 15.2902 11.6699 15.2902 11.3339C15.2902 11.1678 15.4636 10.9961 15.6314 10.9961C15.8589 10.9961 16.0862 10.9961 16.3138 10.9961C16.4815 10.9961 16.655 11.1678 16.655 11.3339C16.655 11.6699 16.655 12.0059 16.655 12.3419C17.6731 12.5137 18.3557 13.1008 18.5234 14.0258C18.5234 14.1975 18.4396 14.3636 18.2661 14.3636C18.0404 14.3636 17.8149 14.3636 17.5892 14.3636C17.4157 14.3636 17.3319 14.2806 17.248 14.1143C17.0803 13.5217 16.655 13.2726 15.8887 13.2726C15.0383 13.2726 14.6133 13.6934 14.6133 14.2806C14.6133 14.8675 14.8649 15.2054 16.1403 15.3771C17.9316 15.6183 18.7808 16.1303 18.7808 17.5649C18.7808 18.6559 17.9304 19.5866 16.655 19.8357V20.8494Z" fill="black"/>
<path fill-rule="evenodd" clip-rule="evenodd" d="M18.2661 23.2856C18.0145 23.3743 17.841 23.2025 17.841 22.9532C17.841 22.7558 17.841 22.5582 17.841 22.3606C17.841 22.1945 17.9304 22.0228 18.0984 21.9397C20.5653 21.0148 22.2659 18.7439 22.2659 16.0466C22.2659 13.3549 20.4813 10.9954 18.0984 10.1535C17.9304 10.0704 17.841 9.90433 17.841 9.73259C17.841 9.53701 17.841 9.34123 17.841 9.14564C17.841 8.89066 18.0145 8.80762 18.2661 8.80762C21.3316 9.81564 23.6252 12.6791 23.6252 16.0466C23.6252 19.4141 21.4155 22.2776 18.2661 23.2856Z" fill="black"/>
<circle cx="25" cy="25" r="7" fill="#0E052F"/>
<circle cx="25" cy="25" r="7" fill="url(#paint1_linear_2183_10935)" fill-opacity="0.75"/>
<circle cx="25" cy="25" r="7" fill="black"/>
<circle cx="25" cy="25.0003" r="6.06667" fill="white"/>
<circle cx="24.9854" cy="24.9851" r="5.52708" fill="black"/>
<path d="M24.6883 27.4825C24.4288 27.4628 24.1849 27.4085 23.9566 27.3196C23.7283 27.2258 23.5312 27.1049 23.3651 26.9568C23.1991 26.8087 23.0668 26.6383 22.9682 26.4458C22.8696 26.2533 22.8177 26.0434 22.8125 25.8163H23.7698C23.7802 26.0583 23.8684 26.2607 24.0345 26.4236C24.2057 26.5816 24.4236 26.6729 24.6883 26.6976V25.2313L24.3224 25.1795C23.9022 25.1252 23.5675 24.9746 23.3184 24.7278C23.0745 24.4809 22.9526 24.1674 22.9526 23.7873C22.9526 23.5898 22.9993 23.4047 23.0927 23.2319C23.1861 23.0541 23.3132 22.8986 23.4741 22.7653C23.6349 22.6271 23.8191 22.516 24.0267 22.4321C24.2376 22.3486 24.4607 22.2962 24.6883 22.2766V21.5879H25.2564V22.2914C25.4899 22.321 25.7053 22.3803 25.9024 22.4691C26.0996 22.5531 26.2709 22.6617 26.4161 22.795C26.5614 22.9283 26.6756 23.0813 26.7586 23.2541C26.8468 23.4269 26.8961 23.612 26.9065 23.8095H25.9491C25.9388 23.6318 25.8687 23.4787 25.739 23.3504C25.6145 23.2171 25.4536 23.1257 25.2564 23.0764V24.4315L25.5211 24.4686C25.7182 24.4982 25.905 24.55 26.0815 24.6241C26.2579 24.6981 26.411 24.7944 26.5407 24.9129C26.6756 25.0314 26.7794 25.1745 26.852 25.3424C26.9298 25.5053 26.9688 25.6905 26.9688 25.8978C26.9688 26.12 26.9246 26.3224 26.8364 26.505C26.7534 26.6828 26.6341 26.8407 26.4784 26.979C26.3279 27.1123 26.1463 27.2234 25.9336 27.3122C25.726 27.3962 25.5003 27.4505 25.2564 27.4751V28.2379H24.6883V27.4825V27.4825ZM25.2564 26.6902C25.5003 26.6507 25.6897 26.5668 25.8246 26.4384C25.9595 26.3051 26.027 26.1372 26.027 25.9348C26.027 25.7472 25.9621 25.609 25.8324 25.5201C25.7027 25.4263 25.5548 25.3646 25.3888 25.335L25.2564 25.3128V26.6902V26.6902ZM24.6883 23.0541C24.4703 23.0838 24.2835 23.1603 24.1279 23.2837C23.9774 23.4022 23.9022 23.5626 23.9022 23.7651C23.9022 23.9379 23.9514 24.0687 24.05 24.1575C24.1538 24.2415 24.2887 24.2958 24.4548 24.3205L24.6883 24.3575V23.0541V23.0541Z" fill="white"/>
<defs>
<linearGradient id="paint0_linear_2183_10935" x1="2.04341" y1="13.2972" x2="15.2222" y2="29.5766" gradientUnits="userSpaceOnUse">
<stop stop-color="#FF1100"/>
<stop offset="0.34375" stop-color="#FDBF41"/>
<stop offset="0.692708" stop-color="#F1ECE2"/>
<stop offset="1" stop-color="#007FFF"/>
</linearGradient>
<linearGradient id="paint1_linear_2183_10935" x1="18" y1="18" x2="32" y2="32" gradientUnits="userSpaceOnUse">
<stop stop-color="#31D8A4"/>
<stop offset="1" stop-color="#31D8A4" stop-opacity="0"/>
</linearGradient>
</defs>
</svg>
