<svg xmlns="http://www.w3.org/2000/svg" viewBox="0 0 600 600" fill="none">
    <path d="M300 600C465.685 600 600 465.685 600 300C600 134.315 465.685 0 300 0C134.315 0 0 134.315 0 300C0 465.685 134.315 600 300 600Z" fill="url(#paint0_radial_440_36)"/>
    <g transform="matrix(3.315,0,0,3.315,0,0)">
        <path xmlns="http://www.w3.org/2000/svg" fill-rule="evenodd" clip-rule="evenodd" d="M97.4745 21.0312H83.5117V41.7342H62.5132C47.1231 41.7342 34.5312 54.2153 34.5312 69.47C34.5312 84.7247 47.1231 97.2058 62.5132 97.2058H62.5196V97.2081H118.484C126.179 97.2081 132.475 103.449 132.475 111.076C132.475 118.703 126.179 124.944 118.484 124.944H62.5196V138.812H83.5117V159.517H97.4745V138.812H118.484C133.874 138.812 146.466 126.331 146.466 111.076C146.466 95.8213 133.874 83.3402 118.484 83.3402H118.477V83.3379H62.5132C54.8182 83.3379 48.5222 77.0974 48.5222 69.47C48.5222 61.8427 54.8182 55.6021 62.5132 55.6021H118.477V41.7342H97.4745V21.0312ZM62.5132 138.81C47.1231 138.81 34.5312 126.329 34.5312 111.074H48.5222C48.5222 118.702 54.8182 124.942 62.5132 124.942V138.81ZM146.462 69.47C146.462 54.2153 133.871 41.7342 118.48 41.7342V55.6021C126.176 55.6021 132.471 61.8427 132.471 69.47H146.462Z" fill="white"/>    
    </g>
    <defs>
        <radialGradient id="paint0_radial_440_36" cx="0" cy="0" r="1" gradientUnits="userSpaceOnUse" gradientTransform="translate(196 143.5) rotate(54.1675) scale(497.082)">
            <stop stop-color="#323638"/>
            <stop offset="1"/>
        </radialGradient>
    </defs>
</svg>