<svg width="100" height="100" viewBox="0 0 100 100" fill="none" xmlns="http://www.w3.org/2000/svg">
<g clip-path="url(#clip0_2551_11328)">
<rect width="100" height="100" rx="50" fill="#1567FE"/>
<path d="M86.9552 80.0898L75.2875 69.2614L80.1604 60.8215L95.3719 65.5117L86.9552 80.0898Z" fill="#1567FE"/>
<path d="M63.1667 -0.667969L57.5877 17.332L42.2456 17.332L36.6667 -0.66797L63.1667 -0.667969Z" fill="white"/>
<path d="M100.132 35.9766L81.7537 40.1451L74.0826 26.8584L86.8816 13.0269L100.132 35.9766Z" fill="white"/>
<path d="M86.8817 86.3086L74.0827 72.4771L81.7537 59.1904L100.132 63.3589L86.8817 86.3086Z" fill="white"/>
<path d="M36.6667 100L42.2456 82L57.5877 82L63.1667 100L36.6667 100Z" fill="white"/>
<path d="M-0.298279 63.3594L18.0797 59.1909L25.7507 72.4775L12.9517 86.3091L-0.298279 63.3594Z" fill="white"/>
<path d="M12.9517 13.0234L25.7506 26.8549L18.0796 40.1416L-0.298342 35.9731L12.9517 13.0234Z" fill="white"/>
<circle cx="50" cy="49.9987" r="35.6667" fill="#1567FE"/>
<circle cx="50" cy="50.0013" r="26.8333" fill="white"/>
<rect x="9.5" y="46" width="43.6667" height="8" fill="#1567FE"/>
</g>
<defs>
<clipPath id="clip0_2551_11328">
<rect width="100" height="100" rx="50" fill="white"/>
</clipPath>
</defs>
</svg>
