<svg width="240" height="240" viewBox="0 0 240 240" fill="none" xmlns="http://www.w3.org/2000/svg">
<g clip-path="url(#clip0_4_631)">
<circle cx="120" cy="120" r="120" fill="black"/>
<path d="M177.657 119.996C177.657 108.269 174.134 97.3585 168.099 88.2416L186 70.342L169.902 54.2446L152.05 72.0953C142.883 65.9385 131.858 62.3422 120.008 62.3422C108.281 62.3422 97.3693 65.8651 88.2518 71.8995L70.343 54L54.2447 70.0974L72.0964 87.948C65.9392 97.1139 62.3428 108.139 62.3428 119.988C62.3428 131.714 65.8658 142.625 71.9007 151.742L54 169.65L70.0984 185.747L87.9501 167.897C97.1165 174.053 108.142 177.65 119.992 177.65C131.719 177.65 142.631 174.127 151.748 168.092L169.657 186L185.755 169.903L167.904 152.052C174.061 142.87 177.657 131.845 177.657 119.996ZM85.1202 119.996C85.1202 100.759 100.77 85.1101 120.008 85.1101C139.246 85.1101 154.896 100.759 154.896 119.996C154.896 139.233 139.246 154.882 120.008 154.882C100.77 154.882 85.1202 139.233 85.1202 119.996Z" fill="white"/>
<path d="M121.12 116.598C113.963 114.401 113.963 113.186 113.963 112.205C113.963 110.843 116.021 108.963 119.888 108.963C122.173 108.963 126.015 109.53 126.015 113.356H132.978C132.978 106.563 127.718 102 119.888 102C111.515 102 107 107.26 107 112.205C107 118.965 112.933 121.364 119.029 123.244C126.186 125.441 126.226 126.673 126.226 127.654C126.226 129.016 124.167 130.896 120.301 130.896C118.007 130.896 114.173 130.329 114.173 126.503H107.211C107.211 133.295 112.471 137.859 120.301 137.859C128.674 137.859 133.189 132.598 133.189 127.654C133.197 120.886 127.223 118.47 121.12 116.598Z" fill="white"/>
</g>
<defs>
<clipPath id="clip0_4_631">
<rect width="240" height="240" fill="white"/>
</clipPath>
</defs>
</svg>
