<svg width="32" height="32" viewBox="0 0 32 32" fill="none" xmlns="http://www.w3.org/2000/svg">
<circle cx="16" cy="16" r="16" fill="white"/>
<path d="M11.7652 20.3165C11.6195 20.4185 11.4474 20.4762 11.2696 20.4826C11.0918 20.489 10.916 20.4439 10.7633 20.3528C10.5311 19.5905 10.3578 18.8126 10.1477 18.0449C9.61413 16.0934 9.10115 14.1362 8.57612 12.1823C8.53974 12.0775 8.52999 11.9652 8.54776 11.8557C8.55357 11.7924 8.60065 11.76 8.64517 11.7256C9.14284 11.4838 9.69694 11.4459 10.219 11.2937C10.3254 11.2629 10.4337 11.2393 10.5433 11.2229C10.6476 11.2785 10.7323 11.3649 10.7858 11.4702C10.8393 11.5755 10.859 11.6948 10.8423 11.8117C11.0093 11.4969 11.0408 11.0896 11.4755 10.9988C11.6093 10.9817 11.7418 10.9564 11.8725 10.9231C11.9117 10.9202 11.9508 10.9305 11.9835 10.9524C12.0451 11.0161 12.0839 11.0982 12.0941 11.1861C12.5478 13.1131 13.0063 15.0391 13.4694 16.964C13.4878 17.0252 13.4985 17.0884 13.5013 17.1522C13.4785 17.4096 13.312 17.603 13.1949 17.8168C12.7829 18.5692 12.3764 19.3247 11.9509 20.0699C11.9002 20.1599 11.8377 20.2429 11.7652 20.3165V20.3165Z" fill="#1FC8A7"/>
<path d="M23.4667 20.1164C23.4288 20.198 23.3644 20.2646 23.2841 20.3054C22.9032 20.4826 22.4875 20.5353 22.085 20.6302C20.4213 21.0224 18.759 21.4201 17.0941 21.8095C16.2775 22.0003 15.4628 22.1994 14.6448 22.385C14.5617 22.415 14.4716 22.4196 14.3859 22.3983C14.2682 22.3127 14.3526 22.2274 14.3927 22.1488C14.7055 21.5387 15.0504 20.9462 15.3809 20.3459C15.9613 19.2919 16.5356 18.2345 17.1249 17.1858C17.2348 16.9905 17.2898 16.7494 17.515 16.6323C17.7392 16.6884 17.9518 16.7835 18.1431 16.9132C19.1853 17.4816 20.2297 18.0459 21.2714 18.6157C21.9631 18.9937 22.6677 19.3487 23.3415 19.7601C23.3999 19.8724 23.4421 19.9923 23.4667 20.1164V20.1164Z" fill="#1FC8A7"/>
<path d="M14.3602 22.3672C15.0897 22.2397 15.8029 22.0415 16.5229 21.8733C18.7224 21.3599 20.9194 20.8359 23.1177 20.3174C23.1727 20.3088 23.2284 20.3047 23.2841 20.3052C22.88 20.6309 22.4176 20.8673 21.9782 21.1378C19.4593 22.6876 16.9383 24.2337 14.4149 25.7763C14.1159 25.9596 13.8194 26.1464 13.5177 26.3259C13.3273 26.4544 13.0955 26.5067 12.8682 26.4726C12.641 26.4386 12.4348 26.3205 12.2906 26.1419C12.2371 26.0654 12.2906 26.0052 12.3236 25.9448C12.951 24.7995 13.578 23.654 14.2152 22.5141C14.2496 22.4524 14.2781 22.3829 14.3602 22.3672Z" fill="#198889"/>
<path d="M11.9608 10.9599L11.8616 10.9609C11.8117 10.9928 11.7733 10.9868 11.7518 10.9269C11.6206 10.8972 11.9362 10.893 11.754 10.8335C11.4885 10.747 11.1935 10.6838 11.0734 10.3746C11.0509 10.3169 11.0137 10.2613 11.05 10.1952C11.6644 9.82611 12.2813 9.46124 12.8932 9.08716C14.7364 7.959 16.5785 6.82918 18.4195 5.69771C18.8976 5.40505 19.3462 5.47117 19.7303 5.87681C19.5523 6.33216 19.2797 6.73809 19.0486 7.16526C18.6462 7.90902 18.2329 8.64683 17.8259 9.38818C17.779 9.49894 17.7031 9.59501 17.606 9.66626C16.8711 9.87392 16.1285 10.0485 15.3782 10.1901C15.157 10.249 14.9361 10.3098 14.7118 10.3589C14.3267 10.4603 13.9416 10.5614 13.5503 10.6373C13.1211 10.7317 12.6934 10.8316 12.2671 10.9371C12.17 10.9768 12.0628 10.9848 11.9608 10.9599Z" fill="#198889"/>
<path d="M14.3602 22.3674C13.6702 23.6257 12.9802 24.884 12.2901 26.1422C12.1754 26.0432 12.0908 25.914 12.0459 25.7693C12.0011 25.6246 11.9978 25.4702 12.0365 25.3237C12.2171 24.5678 12.3997 23.8124 12.5843 23.0575C12.6196 22.9268 12.6776 22.8034 12.7558 22.6929C15.1357 19.1234 17.5152 15.5534 19.8944 11.983C19.9611 11.8455 20.0717 11.7341 20.2089 11.6665C20.2595 11.7718 20.1866 11.8506 20.1455 11.9318C19.9253 12.3651 19.6783 12.7841 19.4469 13.2114C19.375 13.3353 19.315 13.4658 19.2678 13.601C19.0985 13.8511 18.9445 14.1111 18.8066 14.3797C18.5966 14.7459 18.3933 15.116 18.1998 15.4908C18.0155 15.8389 17.8079 16.1742 17.6306 16.5262C17.6105 16.5781 17.5732 16.6215 17.5249 16.6492C17.302 16.9041 17.1751 17.2164 17.0135 17.5064C16.1262 19.0998 15.2506 20.6999 14.372 22.2982C14.3644 22.3205 14.3604 22.3438 14.3602 22.3674Z" fill="#68FDE1"/>
<path d="M17.6192 9.61783C18.1978 8.57178 18.7736 7.52404 19.3573 6.48096C19.4725 6.27524 19.551 6.04516 19.7285 5.87695C19.8358 6.00614 19.9089 6.16019 19.9409 6.32495C19.973 6.48971 19.963 6.65987 19.912 6.81978C19.7325 7.51795 19.5656 8.21952 19.3922 8.91938C19.3543 9.05741 19.2925 9.18778 19.2097 9.30464C16.8326 12.8695 14.4564 16.4351 12.0812 20.0014C12.0131 20.1382 11.9021 20.2489 11.7651 20.3167C12.2618 19.4081 12.7586 18.4995 13.2556 17.5909C13.3371 17.4633 13.4037 17.3267 13.4541 17.184C13.5787 16.7751 13.8298 16.4293 14.0255 16.0562C14.1995 15.7244 14.3887 15.4001 14.5627 15.0678C14.8705 14.5694 15.1369 14.0484 15.4209 13.5361C15.6108 13.1812 15.8006 12.8259 15.9986 12.4752C16.4405 11.7031 16.8609 10.9192 17.2919 10.1411C17.3795 9.95417 17.4894 9.77845 17.6192 9.61783V9.61783Z" fill="#68FDE1"/>
<path d="M23.4667 20.1164C23.3282 20.0447 23.3675 19.8983 23.3265 19.7852C23.1152 19.4231 23.0877 19.0036 22.9621 18.6145C22.9077 18.3925 22.838 18.1744 22.7534 17.962C22.6411 17.4201 22.4576 16.8958 22.3509 16.3527C22.2607 15.9273 22.1439 15.508 22.0011 15.0972C21.7196 14.042 21.4399 12.9864 21.1621 11.9304C21.1349 11.8276 21.0503 11.7038 21.2122 11.6262C21.4012 11.7156 21.5508 11.8711 21.6326 12.0633C22.4785 13.7688 23.3234 15.4746 24.1674 17.1808C24.2216 17.2736 24.2564 17.3764 24.2697 17.4829C24.283 17.5895 24.2746 17.6976 24.245 17.8008C23.9922 18.5749 23.7673 19.3583 23.4667 20.1164Z" fill="#68FDE1"/>
<path d="M8.54746 11.8552C8.82942 12.8999 9.1112 13.9446 9.39278 14.9893C9.8413 16.6648 10.2871 18.3411 10.7302 20.0181C10.7579 20.1231 10.8549 20.2322 10.7631 20.3529C10.5909 20.2664 10.4531 20.1241 10.3722 19.9493C9.52927 18.2496 8.68518 16.5506 7.83995 14.8522C7.77432 14.7249 7.73565 14.5854 7.72633 14.4426C7.71701 14.2997 7.73725 14.1564 7.78579 14.0216C7.99478 13.3905 8.19937 12.7576 8.40964 12.1269C8.42824 12.0249 8.47612 11.9305 8.54746 11.8552V11.8552Z" fill="#68FDE1"/>
<path d="M21.2122 11.6263C21.1363 11.6971 21.1838 11.7711 21.2044 11.8466C21.4824 12.8897 21.7597 13.933 22.0363 14.9765C22.0462 15.0136 22.0676 15.0516 22.0353 15.0885C21.9921 15.0958 21.9478 15.0938 21.9054 15.0826C21.8631 15.0714 21.8236 15.0512 21.7897 15.0235C20.9831 14.5939 20.1837 14.1509 19.3769 13.7218C19.3209 13.692 19.2635 13.6609 19.2493 13.5898C19.1913 13.4256 19.324 13.325 19.3856 13.2047C19.6503 12.6868 19.9707 12.1986 20.2091 11.6663C20.3538 11.562 20.5262 11.5025 20.7046 11.4954C20.883 11.4882 21.0596 11.5338 21.2122 11.6263V11.6263Z" fill="#1FC8A7"/>
<path d="M11.0489 10.195C11.1332 10.5773 11.4574 10.6733 11.7637 10.7844C11.9073 10.8365 11.8804 10.8716 11.7668 10.9192C11.6864 11.0183 11.5611 11.01 11.4562 11.0507C11.2284 11.1065 11.13 11.2853 11.0477 11.4793C10.9956 11.6025 10.9457 11.7264 10.8879 11.8668C10.7648 11.6488 10.7295 11.4138 10.5808 11.2355C10.357 11.1142 10.0949 11.0656 9.90587 10.8783C9.87751 10.8452 9.88617 10.8262 9.92785 10.8164C10.4425 10.6955 10.7644 10.3817 10.8636 9.79443L11.0489 10.195Z" fill="#FDFEFE"/>
<path d="M9.90612 10.8782C10.1372 10.9854 10.4045 11.0249 10.581 11.2353C10.3258 11.391 10.0255 11.3921 9.74818 11.4718C9.3862 11.5761 9.0133 11.6418 8.64508 11.7249C8.97955 11.4382 9.38336 11.2576 9.74435 11.0123C9.80276 10.9725 9.87507 10.9508 9.90612 10.8782Z" fill="#19898A"/>
<path d="M14.6035 15.0751C14.4101 15.5468 14.1256 15.9705 13.8916 16.4211C13.7568 16.6811 13.6005 16.9299 13.4539 17.1836C12.9701 15.1542 12.4863 13.1252 12.0023 11.0966C11.9913 11.0503 11.974 11.0053 11.9606 10.9597C12.4784 10.7984 13.0098 10.6914 13.5388 10.5774C13.6163 10.6476 13.6657 10.7435 13.6777 10.8473C13.9956 12.1626 14.3092 13.479 14.6184 14.7964C14.6502 14.8876 14.6449 14.9877 14.6035 15.0751V15.0751Z" fill="#A4E8DB"/>
<path d="M11.4556 11.051C11.5488 10.985 11.6552 10.94 11.7676 10.9189L11.8617 10.9603C11.7382 11.0298 11.597 11.0613 11.4556 11.051V11.051Z" fill="#2AA197"/>
<path d="M22.803 17.96C22.9756 18.199 22.9831 18.4915 23.0604 18.7608C23.1575 19.0999 23.2386 19.4435 23.3265 19.7852C22.5831 19.3854 21.8397 18.9856 21.0965 18.5855C19.9055 17.9412 18.715 17.2956 17.5249 16.6486C17.6809 16.223 17.9559 15.8594 18.1506 15.4539C18.2551 15.4058 18.3366 15.4681 18.4186 15.5141C19.8095 16.2829 21.2098 17.0344 22.6072 17.7912C22.688 17.8266 22.7562 17.8854 22.803 17.96V17.96Z" fill="#A4E8DB"/>
<path d="M17.0283 22.3851C17.1412 22.3528 17.2422 22.2882 17.3188 22.1993C17.3954 22.1104 17.4443 22.0011 17.4595 21.8848C17.4849 22.011 17.5487 22.1263 17.6422 22.215C17.7356 22.3036 17.8542 22.3614 17.9817 22.3803C17.8537 22.3966 17.7345 22.454 17.642 22.5438C17.5495 22.6336 17.4887 22.751 17.4687 22.8783C17.3907 22.5957 17.2593 22.445 17.0283 22.3851Z" fill="#F9FBFB"/>
<path d="M14.6036 15.0752C14.4418 14.3792 14.2822 13.6827 14.1174 12.9874C13.927 12.1836 13.732 11.3809 13.5391 10.5778L14.6955 10.2957C14.7552 10.36 14.7932 10.4416 14.8039 10.5287C15.0166 11.4244 15.2277 12.3204 15.4458 13.2148C15.4838 13.3196 15.4912 13.4331 15.4673 13.542C15.2162 14.0729 14.9276 14.5852 14.6036 15.0752V15.0752Z" fill="#1FC8A7"/>
<path d="M17.6192 9.61792C17.4576 9.97989 17.2729 10.3311 17.0662 10.6693C16.7744 11.216 16.4738 11.758 16.1744 12.3006C16.1327 12.3673 16.0871 12.4315 16.0378 12.4929C15.9287 12.427 15.9201 12.3088 15.896 12.2039C15.7769 11.6868 15.651 11.1716 15.5308 10.6548C15.4922 10.4769 15.437 10.3031 15.3659 10.1356L17.6192 9.61792Z" fill="#1FC8A7"/>
<path d="M15.3663 10.1355C15.4852 10.1399 15.4925 10.228 15.5137 10.3167C15.6864 11.0426 15.8629 11.7676 16.0383 12.4928L15.4672 13.5421C15.1893 12.4648 14.9275 11.3837 14.6956 10.2956L15.3663 10.1355Z" fill="#A4E8DB"/>
<path d="M22.8028 17.96C21.3383 17.1654 19.8736 16.371 18.4087 15.5768C18.3251 15.5314 18.2365 15.4947 18.1503 15.4539C18.3576 15.0876 18.5314 14.7024 18.7723 14.355C18.9219 14.328 19.0316 14.4236 19.1463 14.4874C20.1578 15.0512 21.1846 15.5867 22.1968 16.1491C22.2858 16.186 22.3615 16.2489 22.414 16.3295C22.5336 16.8032 22.6541 17.2766 22.7719 17.7506C22.7858 17.8198 22.7961 17.8897 22.8028 17.96V17.96Z" fill="#1FC8A7"/>
<path d="M22.4142 16.3296L18.7725 14.3551C18.9216 14.0941 18.9993 13.7881 19.2493 13.5906L22.0351 15.0894C22.2163 15.3261 22.2038 15.6291 22.3085 15.8929C22.3544 16.0357 22.3897 16.1816 22.4142 16.3296Z" fill="#A4E8DB"/>
<path d="M14.0093 11.7567C14.1344 11.7395 14.2506 11.6824 14.3406 11.5938C14.4306 11.5053 14.4895 11.3901 14.5085 11.2654C14.5303 11.3872 14.5898 11.4992 14.6786 11.5855C14.7674 11.6719 14.8811 11.7283 15.0036 11.7468C14.7484 11.8381 14.57 11.9485 14.519 12.2018C14.4841 12.0875 14.4179 11.9852 14.3278 11.9065C14.2377 11.8279 14.1274 11.776 14.0093 11.7567V11.7567Z" fill="#FAFDFC"/>
</svg>
