<svg width="32" height="32" viewBox="0 0 32 32" fill="none" xmlns="http://www.w3.org/2000/svg">
<g clip-path="url(#clip0_698_291650)">
<path d="M32 16C32 24.8366 24.8366 32 16 32C7.16344 32 0 24.8366 0 16C0 7.16344 7.16344 0 16 0C24.8366 0 32 7.16344 32 16Z" fill="#604EFF"/>
<path fill-rule="evenodd" clip-rule="evenodd" d="M22.3529 12.4338L14.9412 15.19V23.1082C14.9412 24.4453 13.4281 25.3595 12.0371 24.863L8.66397 23.6588C8.13425 23.4697 7.60467 23.0385 7.26559 22.5768C7.05607 22.2916 7 21.9451 7 21.604V12.5926C7 11.6389 7.64254 10.7787 8.62896 10.4119L17.5068 7.11051C18.5529 6.72148 19.7059 7.40747 19.7059 8.41895V10.8588L22.8009 9.70784C23.8471 9.31881 25 10.0048 25 11.0163V19.3282C25 20.6653 23.4869 21.5796 22.0959 21.083L18.7228 19.8788C17.7178 19.5201 17.0588 18.6514 17.0588 17.6853V15.3683L19.7059 14.4105V17.6853L22.3529 18.6303V12.4338ZM12.2941 22.4103V17.3948V15.19C12.2941 14.2362 12.9367 13.376 13.9231 13.0092L17.0588 11.8431V9.83643L9.64706 12.5926V21.4653L12.2941 22.4103Z" fill="white"/>
</g>
<defs>
<clipPath id="clip0_698_291650">
<rect width="32" height="32" fill="white"/>
</clipPath>
</defs>
</svg>
