<svg width="32" height="32" viewBox="0 0 32 32" fill="none" xmlns="http://www.w3.org/2000/svg">
<path d="M0 16C0 7.16344 7.16344 0 16 0C24.8366 0 32 7.16344 32 16C32 24.8366 24.8366 32 16 32C7.16344 32 0 24.8366 0 16Z" fill="white"/>
<path d="M25 16C25 20.9706 20.9706 25 16 25C11.0294 25 7 20.9706 7 16C7 11.0294 11.0294 7 16 7C20.9706 7 25 11.0294 25 16Z" fill="#212121"/>
<path d="M25 16C25 20.9706 20.9706 25 16 25C11.0294 25 7 20.9706 7 16C7 11.0294 11.0294 7 16 7C20.9706 7 25 11.0294 25 16Z" fill="url(#paint0_linear_327_466981)" fill-opacity="0.75"/>
<path d="M23.3125 16C23.3125 20.0386 20.0386 23.3125 16 23.3125C11.9614 23.3125 8.6875 20.0386 8.6875 16C8.6875 11.9614 11.9614 8.6875 16 8.6875C20.0386 8.6875 23.3125 11.9614 23.3125 16Z" fill="black"/>
<path fill-rule="evenodd" clip-rule="evenodd" d="M23.0989 16C23.0989 19.8788 19.8788 23.0989 16 23.0989C12.1212 23.0989 8.90116 19.8788 8.90116 16C8.90116 12.1212 12.1212 8.90116 16 8.90116C19.8788 8.90116 23.0989 12.1212 23.0989 16ZM23.875 16C23.875 20.3492 20.3492 23.875 16 23.875C11.6508 23.875 8.125 20.3492 8.125 16C8.125 11.6508 11.6508 8.125 16 8.125C20.3492 8.125 23.875 11.6508 23.875 16ZM14.6457 19.0105C14.942 19.1259 15.2586 19.1964 15.5954 19.222V20.2025H16.3329V19.2124C16.6495 19.1804 16.9425 19.1099 17.2119 19.0009C17.488 18.8856 17.7238 18.7414 17.9191 18.5684C18.1212 18.3889 18.2761 18.1838 18.3839 17.9531C18.4984 17.716 18.5556 17.4533 18.5556 17.1649C18.5556 16.8957 18.5051 16.6554 18.4041 16.4439C18.3098 16.2261 18.1751 16.0402 17.9999 15.8864C17.8315 15.7326 17.6328 15.6076 17.4038 15.5115C17.1748 15.4154 16.9324 15.3481 16.6764 15.3096L16.3329 15.2616V13.5025C16.5888 13.5665 16.7976 13.6851 16.9593 13.8581C17.1277 14.0247 17.2186 14.2234 17.2321 14.4541H18.4748C18.4613 14.1978 18.3973 13.9575 18.2828 13.7332C18.1751 13.5089 18.0269 13.3102 17.8383 13.1372C17.6497 12.9641 17.4274 12.8232 17.1715 12.7142C16.9155 12.5989 16.636 12.522 16.3329 12.4835V11.5703H15.5954V12.4643C15.3 12.4897 15.0104 12.5578 14.7366 12.6662C14.4672 12.7751 14.2281 12.9193 14.0193 13.0987C13.8105 13.2718 13.6454 13.4736 13.5242 13.7043C13.403 13.9286 13.3423 14.1689 13.3423 14.4253C13.3423 14.9187 13.5006 15.3257 13.8172 15.6461C14.1405 15.9665 14.5749 16.162 15.1205 16.2325L15.5954 16.2998V18.2031C15.2518 18.171 14.969 18.0525 14.7467 17.8474C14.5311 17.6359 14.4166 17.3732 14.4032 17.0592H13.1605C13.1672 17.3539 13.2346 17.6263 13.3625 17.8762C13.4905 18.1262 13.6623 18.3473 13.8778 18.5395C14.0933 18.7318 14.3493 18.8888 14.6457 19.0105ZM17.0704 17.8666C16.8953 18.0332 16.6495 18.1422 16.3329 18.1935V16.4055L16.5046 16.4343C16.7202 16.4728 16.9121 16.5529 17.0805 16.6747C17.2489 16.79 17.3331 16.9694 17.3331 17.213C17.3331 17.4757 17.2456 17.6936 17.0704 17.8666ZM14.8679 13.7716C15.07 13.6114 15.3125 13.5121 15.5954 13.4736V15.1655L15.2923 15.1174C15.0767 15.0854 14.9016 15.0149 14.7669 14.9059C14.6389 14.7906 14.5749 14.6207 14.5749 14.3964C14.5749 14.1337 14.6726 13.9254 14.8679 13.7716Z" fill="white"/>
<path fill-rule="evenodd" clip-rule="evenodd" d="M11.8545 3.38369C13.345 2.89377 14.938 2.66977 16.5159 2.73025C18.0941 2.79073 19.6577 3.13601 21.1127 3.74401C22.5681 4.35201 23.9149 5.22305 25.0673 6.29761C26.5914 7.71937 27.7748 9.49761 28.4845 11.4867C29.1946 13.4762 29.4311 15.6765 29.1572 17.7712C28.8836 19.8659 28.0996 21.8554 26.9137 23.5661C25.7277 25.2768 24.1396 26.7085 22.2743 27.7005C20.409 28.6922 18.266 29.2438 16.1537 29.2758C14.0413 29.3078 11.9594 28.8205 10.0948 27.895C8.23047 26.9696 6.58311 25.6064 5.33223 23.9037C4.08135 22.201 3.22695 20.1587 2.88775 18.0749C2.54855 15.9907 2.72455 13.8646 3.37447 11.8813C3.86567 10.3818 4.62791 8.96417 5.60455 7.73569H4.12007V5.28193H9.93671V10.7136H7.48295V9.22945C6.68295 10.2355 6.05831 11.3968 5.65607 12.6256C5.12391 14.2512 4.98055 15.9952 5.25607 17.697C5.59847 19.8138 6.58855 21.865 8.06631 23.4458C9.83399 25.3363 12.2993 26.5542 14.8657 26.8208C17.4317 27.0874 20.0989 26.4029 22.217 24.9286C24.3351 23.4544 25.9047 21.1904 26.5418 18.6899C27.1789 16.1894 26.8836 13.4525 25.7348 11.1421C24.586 8.83169 22.5834 6.94849 20.1889 5.95905C17.7943 4.96929 15.0074 4.87393 12.6036 5.66369L11.8545 3.38369Z" fill="url(#paint1_linear_327_466981)"/>
<defs>
<linearGradient id="paint0_linear_327_466981" x1="7" y1="7" x2="25" y2="25" gradientUnits="userSpaceOnUse">
<stop stop-color="#D9D9D9"/>
<stop offset="1" stop-color="#9D9D9D" stop-opacity="0"/>
</linearGradient>
<linearGradient id="paint1_linear_327_466981" x1="2.04317" y1="13.2971" x2="15.2219" y2="29.5764" gradientUnits="userSpaceOnUse">
<stop stop-color="#FF1100"/>
<stop offset="0.34375" stop-color="#FDBF41"/>
<stop offset="0.692708" stop-color="#F1ECE2"/>
<stop offset="1" stop-color="#007FFF"/>
</linearGradient>
</defs>
</svg>
