<?xml version="1.0" encoding="UTF-8"?><svg id="Layer_2" xmlns="http://www.w3.org/2000/svg" xmlns:xlink="http://www.w3.org/1999/xlink" viewBox="0 0 280 280"><defs><style>.cls-1{stroke:#f6e8d7;stroke-linecap:round;stroke-linejoin:round;stroke-width:6px;}.cls-1,.cls-2{fill:none;}.cls-3{clip-path:url(#clippath);}.cls-2,.cls-4{stroke-width:0px;}.cls-5{opacity:.2;}.cls-4{fill:#4281a4;}</style><clipPath id="clippath"><path class="cls-2" d="m280,140c0,37.59-14.81,71.71-38.92,96.86-.69.72-1.39,1.43-2.09,2.13s-1.37,1.35-2.06,2.02c-4.93,4.73-10.2,9.1-15.77,13.07-2.88,2.06-5.85,4.01-8.9,5.85-21.09,12.74-45.82,20.07-72.26,20.07s-51.1-7.31-72.18-20.03c-3.05-1.83-6.03-3.78-8.92-5.85-5.57-3.96-10.84-8.32-15.76-13.04-1.41-1.35-2.79-2.73-4.14-4.14C14.84,211.79,0,177.63,0,140S15.67,66.34,41.01,41.01C66.34,15.67,101.34,0,140,0s73.66,15.67,98.99,41.01c25.34,25.33,41.01,60.33,41.01,98.99Z"/></clipPath></defs><g id="Layer_1-2"><path class="cls-4" d="m280,140c0,37.59-14.81,71.71-38.92,96.86-.69.72-1.39,1.43-2.09,2.13s-1.37,1.35-2.06,2.02c-4.93,4.73-10.2,9.1-15.77,13.07-2.88,2.06-5.85,4.01-8.9,5.85-21.09,12.74-45.82,20.07-72.26,20.07s-51.1-7.31-72.18-20.03c-3.05-1.83-6.03-3.78-8.92-5.85-5.57-3.96-10.84-8.32-15.76-13.04-1.41-1.35-2.79-2.73-4.14-4.14C14.84,211.79,0,177.63,0,140S15.67,66.34,41.01,41.01C66.34,15.67,101.34,0,140,0s73.66,15.67,98.99,41.01c25.34,25.33,41.01,60.33,41.01,98.99Z"/><g class="cls-3"><g class="cls-5"><line class="cls-1" x1="32.69" y1="247.41" x2="245.89" y2="34.2"/><line class="cls-1" x1="30.14" y1="30.09" x2="252.54" y2="252.49"/><line class="cls-1" x1="140" y1="-7.01" x2="140" y2="307.51"/><line class="cls-1" x1="-2.43" y1="95.71" x2="219.97" y2="318.12"/><line class="cls-1" x1="-20.27" y1="140" x2="294.26" y2="140"/><circle class="cls-1" cx="140" cy="140" r="98.23"/></g><polygon class="cls-1" points="140.02 238.23 41.8 238.29 90.94 189.16 140.02 238.23"/><path class="cls-1" d="m238.28,139.97c0,27.14-10.97,51.69-28.76,69.48l-69.51-69.48V41.71c54.29,0,98.28,44,98.28,98.26Z"/><path class="cls-1" d="m140,41.71c-54.28,0-98.28,43.99-98.28,98.26h98.28V41.71Z"/><polygon class="cls-1" points="41.72 139.97 140.02 238.23 238.24 238.23 238.28 238.2 140 139.97 41.72 139.97"/></g></g></svg>