<svg width="512" height="512" viewBox="0 0 512 512" fill="none" xmlns="http://www.w3.org/2000/svg">
<circle cx="256" cy="256" r="256" fill="white"/>
<path fill-rule="evenodd" clip-rule="evenodd" d="M501.024 255.878C501.024 390.567 391.328 499.755 256.012 499.755C120.696 499.755 11 390.567 11 255.878C11 121.188 120.696 12 256.012 12C391.328 12 501.024 121.188 501.024 255.878ZM244.695 32.4528C236.587 36.123 230.447 47.2093 218.168 69.3819L211.894 80.7123C205.973 91.4034 203.013 96.7489 198.668 100.123C194.835 103.098 190.262 104.983 185.438 105.577C179.969 106.25 174.078 104.554 162.297 101.161L149.811 97.5654C125.377 90.5293 113.16 87.0112 104.819 90.1228C97.5499 92.8348 91.8141 98.5441 89.0894 105.78C85.9634 114.082 89.4978 126.242 96.5666 150.563L100.179 162.991C103.587 174.718 105.291 180.582 104.615 186.025C104.019 190.827 102.125 195.378 99.1357 199.194C95.7463 203.519 90.376 206.465 79.6352 212.358L68.2521 218.604C45.9763 230.826 34.8384 236.937 31.1512 245.008C27.9374 252.042 27.9374 260.116 31.1512 267.151C34.8384 275.221 45.9763 281.332 68.2521 293.554L79.6352 299.8C90.376 305.693 95.7463 308.64 99.1357 312.965C102.125 316.78 104.019 321.331 104.615 326.133C105.291 331.577 103.587 337.44 100.179 349.167L96.5666 361.595C89.4978 385.916 85.9634 398.076 89.0894 406.378C91.8141 413.614 97.5499 419.324 104.819 422.036C113.16 425.147 125.377 421.629 149.811 414.593L162.297 410.997C174.078 407.605 179.969 405.908 185.438 406.581C190.262 407.175 194.835 409.06 198.668 412.036C203.013 415.409 205.973 420.755 211.894 431.446L218.168 442.776C230.447 464.949 236.587 476.035 244.695 479.706C251.762 482.905 259.874 482.905 266.941 479.706C275.049 476.035 281.188 464.949 293.467 442.776L299.742 431.446C305.662 420.755 308.623 415.409 312.968 412.036C316.801 409.06 321.373 407.175 326.197 406.581C331.667 405.908 337.557 407.605 349.339 410.997L361.824 414.593C386.258 421.629 398.475 425.147 406.816 422.036C414.086 419.324 419.821 413.614 422.546 406.378C425.672 398.076 422.138 385.916 415.069 361.595L411.457 349.167C408.048 337.44 406.344 331.577 407.02 326.133C407.616 321.331 409.51 316.78 412.5 312.965C415.889 308.64 421.259 305.693 432 299.8L443.383 293.554C465.659 281.332 476.797 275.221 480.484 267.151C483.698 260.116 483.698 252.042 480.484 245.008C476.797 236.937 465.659 230.826 443.383 218.604L432 212.358C421.259 206.465 415.889 203.519 412.5 199.194C409.51 195.378 407.616 190.827 407.02 186.025C406.344 180.582 408.048 174.718 411.457 162.991L415.069 150.563C422.138 126.242 425.672 114.082 422.546 105.78C419.821 98.5441 414.086 92.8348 406.816 90.1228C398.475 87.0112 386.258 90.5293 361.824 97.5654L349.339 101.161C337.557 104.554 331.667 106.25 326.197 105.577C321.373 104.983 316.801 103.098 312.968 100.123C308.623 96.7489 305.662 91.4034 299.742 80.7124L293.467 69.382C292.7 67.9962 291.956 66.6532 291.235 65.3531C280.413 45.8523 274.542 35.8936 266.941 32.4528C259.874 29.2539 251.762 29.2539 244.695 32.4528Z" fill="black"/>
<path fill-rule="evenodd" clip-rule="evenodd" d="M256.392 58.9749C259.62 63.7194 263.54 70.7422 269.936 82.2927L276.564 94.2605C279.217 99.0531 281.855 103.819 284.426 107.75C287.295 112.138 291.016 116.998 296.443 121.211C304.108 127.162 313.253 130.933 322.901 132.12C329.731 132.96 335.815 132.143 340.961 131.059C345.571 130.089 350.822 128.576 356.103 127.055L369.292 123.256C382.02 119.591 389.781 117.384 395.434 116.301C395.79 116.233 396.121 116.173 396.428 116.12C396.375 116.426 396.314 116.755 396.246 117.11C395.158 122.736 392.941 130.461 389.258 143.131L385.443 156.258L385.442 156.262L385.155 157.246C383.726 162.167 382.333 167.029 381.419 171.33C380.331 176.452 379.51 182.508 380.354 189.306C381.546 198.91 385.334 208.012 391.313 215.642C395.546 221.044 400.428 224.748 404.837 227.604C408.786 230.162 413.574 232.788 418.389 235.429L430.413 242.026C442.017 248.393 449.072 252.295 453.839 255.508C454.139 255.71 454.416 255.901 454.67 256.079C454.614 256.119 454.557 256.159 454.499 256.199C454.398 256.269 454.294 256.341 454.186 256.415L454.094 256.477L454.092 256.479L454.018 256.529L453.926 256.592L453.839 256.651C449.072 259.864 442.017 263.765 430.413 270.132L418.388 276.73C413.574 279.371 408.786 281.997 404.837 284.555C400.428 287.411 395.546 291.115 391.313 296.516C385.334 304.146 381.546 313.248 380.354 322.852C379.51 329.651 380.331 335.706 381.419 340.828C382.394 345.417 383.914 350.644 385.443 355.9L389.258 369.028C392.941 381.697 395.158 389.422 396.246 395.049C396.314 395.403 396.375 395.733 396.428 396.038C396.121 395.985 395.79 395.925 395.434 395.857C389.781 394.774 382.02 392.567 369.292 388.902L356.103 385.104C350.823 383.583 345.571 382.07 340.961 381.099C335.815 380.016 329.731 379.199 322.901 380.039C313.253 381.226 304.108 384.996 296.443 390.948C291.016 395.161 287.295 400.02 284.426 404.408C281.856 408.34 279.217 413.105 276.564 417.897L269.936 429.866C263.54 441.416 259.62 448.439 256.392 453.184C256.189 453.482 255.997 453.758 255.818 454.011C255.728 453.884 255.635 453.752 255.539 453.614C255.444 453.476 255.345 453.333 255.244 453.184C252.016 448.439 248.096 441.416 241.699 429.866L235.071 417.897C232.418 413.105 229.78 408.339 227.21 404.408C224.34 400.02 220.619 395.161 215.193 390.948C207.527 384.996 198.383 381.226 188.734 380.039C181.904 379.199 175.82 380.016 170.674 381.099C166.065 382.07 160.815 383.582 155.534 385.103L155.532 385.104L142.344 388.902C129.615 392.567 121.855 394.774 116.202 395.857C115.846 395.925 115.515 395.985 115.208 396.038C115.261 395.733 115.321 395.403 115.39 395.049C116.478 389.422 118.695 381.697 122.377 369.028L126.193 355.901C127.721 350.644 129.241 345.417 130.216 340.828C131.305 335.706 132.126 329.651 131.282 322.852C130.089 313.248 126.301 304.146 120.322 296.516C116.089 291.115 111.207 287.411 106.798 284.555C102.85 281.997 98.0614 279.37 93.2476 276.73L81.2229 270.132C69.6187 263.765 62.5632 259.864 57.7966 256.651C57.4964 256.448 57.2198 256.258 56.9652 256.079C57.2198 255.901 57.4964 255.71 57.7966 255.508C62.5632 252.295 69.6187 248.393 81.2229 242.026L93.2463 235.429C98.0613 232.788 102.849 230.162 106.798 227.604C111.207 224.748 116.089 221.044 120.322 215.642C126.301 208.012 130.089 198.91 131.282 189.306C132.126 182.508 131.305 176.452 130.216 171.33C129.241 166.741 127.721 161.515 126.193 156.259L125.989 155.559L122.377 143.131C118.695 130.461 116.478 122.736 115.39 117.11C115.321 116.755 115.261 116.426 115.208 116.12C115.515 116.173 115.846 116.233 116.202 116.301C121.855 117.384 129.615 119.591 142.344 123.256L154.83 126.852L155.532 127.054C160.813 128.576 166.064 130.089 170.674 131.059C175.82 132.143 181.904 132.96 188.734 132.12C198.383 130.933 207.527 127.162 215.193 121.211C220.619 116.998 224.34 112.138 227.21 107.75C229.78 103.819 232.418 99.0539 235.071 94.2617L241.699 82.2927C248.096 70.7422 252.016 63.7194 255.244 58.9749C255.447 58.6761 255.638 58.4007 255.818 58.1473C255.997 58.4007 256.189 58.6761 256.392 58.9749ZM191.604 144.929C152.006 167.685 127.613 209.739 127.613 255.251C127.613 300.762 152.006 342.816 191.604 365.572C231.201 388.328 279.987 388.328 319.584 365.572C359.182 342.816 383.575 300.762 383.575 255.251C383.575 209.739 359.182 167.685 319.584 144.929C279.987 122.173 231.201 122.173 191.604 144.929Z" fill="black"/>
<path d="M291.031 237.552C294.639 236.687 298.588 236.224 302.629 236.224C306.67 236.224 310.619 236.687 314.227 237.552C317.847 238.42 320.91 239.641 323.298 241.023C326.208 242.708 330.155 243.324 332.898 241.379L336.139 239.081C340.671 235.867 341.728 229.492 337.26 226.19C336.039 225.288 334.757 224.452 333.428 223.683C329.103 221.181 324.166 219.303 318.945 218.051C313.714 216.797 308.177 216.166 302.629 216.166C297.082 216.166 291.544 216.797 286.313 218.051C281.092 219.303 276.155 221.181 271.831 223.683C267.524 226.176 263.704 229.362 260.913 233.262C259.671 234.997 259.256 236.773 259.169 237.146L259.16 237.185C258.998 237.865 258.899 238.511 258.834 239.001C258.702 240.007 258.614 241.165 258.547 242.328C258.413 244.697 258.334 247.802 258.292 251.3C258.207 258.333 258.264 267.435 258.375 276.463C258.487 285.509 258.655 294.552 258.795 301.49C258.851 304.301 258.903 306.771 258.945 308.753L258.972 310.064C258.995 311.145 259.013 312.021 259.026 312.666L259.034 313.099L259.036 313.259L259.039 313.44C259.04 313.498 259.041 313.546 259.042 313.584L259.042 313.653L259.043 313.714L259.044 313.719L259.046 313.723L259.049 313.723H273.756C276.76 313.723 279.153 311.3 279.091 308.31L279.09 308.301C278.944 301.274 278.678 288.543 278.526 276.216C278.414 267.228 278.36 258.323 278.442 251.542C278.46 250.05 278.485 248.68 278.516 247.452C278.582 244.85 279.7 242.332 281.96 241.023C284.348 239.641 287.411 238.42 291.031 237.552Z" fill="black"/>
<path d="M195.565 240.088C198.996 239.274 202.769 238.836 206.641 238.836C210.512 238.836 214.285 239.274 217.717 240.088C222.617 241.249 228.253 239.771 230.764 235.424L231.239 234.601C234.013 229.799 232.341 223.601 227.052 221.881C225.533 221.387 223.974 220.951 222.385 220.575C217.345 219.38 212.001 218.777 206.641 218.777C201.28 218.777 195.936 219.38 190.896 220.575C185.866 221.767 181.137 223.55 177.02 225.906C175.96 226.512 174.935 227.16 173.953 227.85C169.405 231.041 170.41 237.422 174.925 240.66L178.917 243.523C181.227 245.179 184.595 244.708 187.064 243.295C189.251 242.043 192.117 240.905 195.565 240.088Z" fill="black"/>
</svg>
