<svg width="500" height="500" viewBox="0 0 500 500" fill="none" xmlns="http://www.w3.org/2000/svg">
<circle cx="250" cy="250" r="250" fill="#CAE9FF"/>
<path d="M250.002 282.258C194.034 282.258 148.666 307.815 148.666 339.343C148.666 370.872 194.034 396.429 250.002 396.429C305.97 396.429 351.338 370.871 351.338 339.343C351.338 307.816 305.967 282.258 250.002 282.258ZM198.271 346.677C187.999 351.581 178.433 346.677 176.599 335.557C174.587 323.643 190.999 295.328 194.776 316.739C198.551 338.149 215.355 308.209 215.458 321.609C214.896 332.426 208.29 342.064 198.271 346.677ZM323.399 335.557C321.564 346.677 311.998 351.581 301.728 346.677C291.707 342.064 285.101 332.426 284.542 321.609C284.645 308.209 301.446 338.149 305.224 316.739C308.998 295.328 325.407 323.643 323.399 335.557Z" fill="#052B65"/>
<path d="M396.218 150.08C393.312 129.752 323.026 144.25 313.892 145.785C313.423 145.864 312.985 145.472 313.081 145.018C314.011 140.462 314.683 128.146 305.766 125.48C300.064 123.774 296.306 126.922 294.074 130.098C293.075 131.522 290.086 137.681 288.229 141.957C287.228 144.265 284.898 147.639 282.335 147.578C271.588 144.305 260.794 142.669 250.002 142.669C239.208 142.669 228.414 144.305 217.667 147.578C215.104 147.639 212.771 144.265 211.77 141.957C209.914 137.681 206.924 131.522 205.925 130.098C203.696 126.922 199.937 123.774 194.235 125.48C185.318 128.146 185.989 140.462 186.92 145.018C187.014 145.472 186.576 145.864 186.109 145.785C176.975 144.25 106.69 129.752 103.781 150.08C101.022 169.362 125.948 195.953 152.029 207.903C154.547 209.057 156.549 211.007 158.989 212.304C163.093 214.49 165.542 219.944 164.941 224.865L164.941 295.871L174.464 290.527C188.978 282.393 204.129 278.587 215.792 276.328H216.206C225.525 274.306 235.039 273.266 244.586 273.222H255.416C264.961 273.266 274.475 274.306 283.796 276.328H284.207C295.873 278.587 311.021 282.393 325.54 290.527L335.063 295.871V224.865C334.459 219.944 336.906 214.49 341.01 212.304C343.455 211.007 345.452 209.057 347.97 207.903C374.052 195.953 398.98 169.362 396.218 150.08ZM243.218 222.876C242.816 224.983 237.673 228.862 224.922 232.077C215.993 234.274 206.703 235.093 197.513 234.538C195.353 234.405 193.187 234.053 191.183 233.254C187.526 231.799 184.436 229.296 182.136 225.998C179.033 221.691 177.554 216.895 178.501 211.711C179.424 206.521 182.489 202.507 186.913 199.501C190.227 197.169 194.005 195.851 197.951 195.707C200.111 195.631 202.272 196.021 204.346 196.621C213.176 199.172 221.621 203.053 229.243 208.106C240.101 215.391 243.578 220.759 243.218 222.876ZM317.865 225.998C315.568 229.296 312.476 231.799 308.818 233.254C306.816 234.053 304.649 234.405 302.491 234.538C293.301 235.093 284.008 234.274 275.08 232.077C262.326 228.862 257.187 224.983 256.785 222.876C256.425 220.759 259.9 215.391 270.761 208.106C278.382 203.053 286.826 199.172 295.658 196.621C297.731 196.02 299.89 195.631 302.053 195.707C305.996 195.85 309.779 197.169 313.09 199.501C317.514 202.507 320.58 206.519 321.5 211.709C322.448 216.893 320.968 221.691 317.865 225.998Z" fill="#052B65"/>
</svg>
