<?xml version="1.0" encoding="UTF-8"?>
<svg id="uuid-2d8fdbea-3d94-425b-b50e-ef4d3d9b421f" data-name="Layer 2" xmlns="http://www.w3.org/2000/svg" xmlns:xlink="http://www.w3.org/1999/xlink" viewBox="0 0 442.29 442.29">
  <defs>
    <style>
      .uuid-94b9eb11-408e-4df7-9f54-a3ae4e7ac1af, .uuid-d6c439ff-8b4e-4db5-9748-f27532cfdc29, .uuid-1bb49c13-ee6d-48c5-b467-9a5c59f99728, .uuid-2c610afb-03b3-41ae-a4e4-5cfe9ac16931, .uuid-89b6b89f-dc68-48e0-bec2-83bc3b733c32, .uuid-eaa99a55-c2ab-4eba-9d0d-693918c18c3e {
        stroke: #000;
        stroke-miterlimit: 10;
      }

      .uuid-94b9eb11-408e-4df7-9f54-a3ae4e7ac1af, .uuid-d6c439ff-8b4e-4db5-9748-f27532cfdc29, .uuid-2c610afb-03b3-41ae-a4e4-5cfe9ac16931, .uuid-89b6b89f-dc68-48e0-bec2-83bc3b733c32, .uuid-eaa99a55-c2ab-4eba-9d0d-693918c18c3e {
        stroke-width: 2px;
      }

      .uuid-94b9eb11-408e-4df7-9f54-a3ae4e7ac1af, .uuid-7d863121-9277-44d2-b3b2-2f183a59356b {
        fill: #fff;
      }

      .uuid-d6c439ff-8b4e-4db5-9748-f27532cfdc29 {
        fill: #adadad;
      }

      .uuid-1bb49c13-ee6d-48c5-b467-9a5c59f99728, .uuid-2c610afb-03b3-41ae-a4e4-5cfe9ac16931 {
        fill: none;
        stroke-linecap: round;
      }

      .uuid-eaa99a55-c2ab-4eba-9d0d-693918c18c3e {
        fill: url(#uuid-81d2c9eb-944e-488f-afc2-54c5a9e90d66);
      }

      .uuid-4333c504-0133-4aa3-bb2a-098e9dda1d7d, .uuid-7d863121-9277-44d2-b3b2-2f183a59356b {
        stroke-width: 0px;
      }
    </style>
    <radialGradient id="uuid-81d2c9eb-944e-488f-afc2-54c5a9e90d66" cx="220.674" cy="221.135" fx="252.441" fy="181.696" r="147.499" gradientUnits="userSpaceOnUse">
      <stop offset=".497" stop-color="#97e8ff"/>
      <stop offset=".64" stop-color="#94e6ff"/>
      <stop offset=".74" stop-color="#8be2ff"/>
      <stop offset=".828" stop-color="#7bdaff"/>
      <stop offset=".907" stop-color="#65d0ff"/>
      <stop offset=".981" stop-color="#49c3ff"/>
      <stop offset="1" stop-color="#41bfff"/>
    </radialGradient>
  </defs>
  <circle class="uuid-94b9eb11-408e-4df7-9f54-a3ae4e7ac1af" cx="221.145" cy="221.145" r="220.145"/>
  <path class="uuid-94b9eb11-408e-4df7-9f54-a3ae4e7ac1af" d="M422.13,221.145c0,111.001-89.984,200.985-200.985,200.985S20.16,332.146,20.16,221.145"/>
  <path class="uuid-89b6b89f-dc68-48e0-bec2-83bc3b733c32" d="M20.16,221.145C20.16,110.144,110.144,20.16,221.145,20.16s200.985,89.984,200.985,200.985"/>
  <g>
    <path class="uuid-7d863121-9277-44d2-b3b2-2f183a59356b" d="M100.006,119.775l-20.424-17.967,2.429-2.761,20.423,17.965-2.429,2.763Z"/>
    <path class="uuid-7d863121-9277-44d2-b3b2-2f183a59356b" d="M107.284,99.225l2.52-2.402c.979.958,1.977,1.589,2.991,1.893,1.014.305,2.182.271,3.504-.101,1.323-.371,2.6-1.052,3.832-2.041,1.094-.879,1.932-1.813,2.514-2.804.582-.991.855-1.927.818-2.811-.036-.882-.317-1.652-.844-2.308-.535-.666-1.198-1.087-1.992-1.269-.792-.18-1.778-.075-2.956.315-.759.246-2.322.933-4.688,2.063-2.367,1.131-4.115,1.81-5.247,2.036-1.46.299-2.76.26-3.899-.119-1.138-.378-2.099-1.055-2.881-2.029-.859-1.07-1.353-2.32-1.479-3.749-.127-1.431.212-2.865,1.018-4.304.805-1.44,1.937-2.746,3.395-3.916,1.606-1.29,3.227-2.174,4.86-2.653,1.634-.479,3.176-.49,4.625-.037,1.45.453,2.699,1.283,3.748,2.487l-2.587,2.41c-1.224-1.222-2.538-1.833-3.94-1.833s-2.936.668-4.602,2.004c-1.734,1.393-2.749,2.719-3.042,3.978-.294,1.259-.088,2.327.616,3.205.612.763,1.396,1.164,2.353,1.204.947.049,2.793-.604,5.538-1.959,2.745-1.355,4.706-2.188,5.883-2.499,1.719-.443,3.229-.47,4.531-.08,1.302.391,2.41,1.155,3.323,2.293.906,1.128,1.43,2.457,1.571,3.985s-.184,3.067-.975,4.614c-.792,1.548-1.961,2.942-3.508,4.186-1.962,1.574-3.83,2.613-5.604,3.118-1.775.505-3.491.498-5.146-.02-1.656-.52-3.073-1.472-4.251-2.858Z"/>
    <path class="uuid-7d863121-9277-44d2-b3b2-2f183a59356b" d="M136.08,57.11l3.214-1.788,7.641,13.733c1.329,2.39,2.108,4.44,2.338,6.152.229,1.713-.131,3.41-1.083,5.093-.95,1.684-2.597,3.176-4.938,4.479-2.275,1.267-4.349,1.918-6.223,1.956-1.874.038-3.524-.499-4.952-1.61-1.427-1.109-2.841-2.923-4.243-5.442l-7.641-13.733,3.214-1.788,7.632,13.717c1.149,2.063,2.191,3.476,3.128,4.237.936.759,2.029,1.138,3.279,1.137,1.25-.002,2.565-.386,3.945-1.156,2.363-1.315,3.756-2.776,4.178-4.383.422-1.608-.197-3.903-1.857-6.887l-7.632-13.717Z"/>
    <path class="uuid-7d863121-9277-44d2-b3b2-2f183a59356b" d="M157.156,76.838l-9.644-25.434,9.802-3.717c1.726-.654,3.074-1.073,4.045-1.256,1.355-.276,2.575-.286,3.659-.028,1.084.257,2.089.812,3.014,1.665s1.626,1.91,2.104,3.17c.82,2.163.811,4.26-.027,6.291-.839,2.032-3.095,3.744-6.771,5.137l-6.665,2.527,3.921,10.34-3.439,1.304ZM155.535,62.192l6.718-2.548c2.222-.842,3.646-1.846,4.272-3.009.626-1.163.662-2.479.104-3.949-.403-1.064-1.023-1.87-1.86-2.42-.837-.548-1.75-.774-2.74-.677-.637.069-1.734.399-3.294.991l-6.647,2.52,3.447,9.092Z"/>
    <path class="uuid-7d863121-9277-44d2-b3b2-2f183a59356b" d="M180.655,68.341l-5.646-26.609,10.255-2.176c1.804-.383,3.201-.59,4.189-.624,1.381-.065,2.588.111,3.621.531,1.032.42,1.94,1.122,2.724,2.105.783.985,1.315,2.137,1.595,3.456.48,2.263.151,4.333-.988,6.213-1.139,1.879-3.631,3.226-7.476,4.042l-6.973,1.479,2.296,10.817-3.598.764ZM181.29,53.621l7.028-1.493c2.325-.493,3.885-1.266,4.682-2.32.797-1.055,1.032-2.35.706-3.887-.236-1.113-.726-2.005-1.469-2.677-.743-.67-1.611-1.032-2.604-1.087-.64-.028-1.775.13-3.407.476l-6.954,1.476,2.018,9.512Z"/>
    <path class="uuid-7d863121-9277-44d2-b3b2-2f183a59356b" d="M203.391,50.214c-.19-4.51.898-8.094,3.266-10.75,2.366-2.657,5.507-4.069,9.422-4.234,2.563-.109,4.899.394,7.008,1.506,2.108,1.111,3.749,2.717,4.919,4.815,1.17,2.099,1.812,4.508,1.928,7.227.116,2.756-.348,5.245-1.393,7.469-1.044,2.223-2.585,3.937-4.621,5.145-2.036,1.206-4.26,1.86-6.672,1.961-2.614.111-4.976-.408-7.086-1.557-2.111-1.15-3.741-2.77-4.893-4.863-1.15-2.093-1.777-4.333-1.878-6.719ZM207.182,50.111c.138,3.274,1.147,5.817,3.025,7.625,1.879,1.81,4.176,2.655,6.891,2.542,2.765-.117,5-1.166,6.708-3.144,1.706-1.979,2.485-4.716,2.338-8.213-.094-2.213-.558-4.128-1.391-5.745-.834-1.618-2.006-2.85-3.515-3.696-1.509-.846-3.179-1.23-5.01-1.154-2.601.111-4.802,1.08-6.604,2.907-1.801,1.828-2.615,4.788-2.442,8.879Z"/>
    <path class="uuid-7d863121-9277-44d2-b3b2-2f183a59356b" d="M234.263,62.702l3.562-26.967,12.216,1.613c2.455.325,4.291.813,5.505,1.466,1.214.654,2.122,1.645,2.725,2.971.602,1.327.806,2.733.608,4.216-.252,1.914-1.098,3.442-2.537,4.587-1.438,1.146-3.503,1.722-6.193,1.729.904.581,1.578,1.125,2.021,1.632.938,1.098,1.789,2.426,2.552,3.986l3.823,7.974-4.586-.606-2.904-6.092c-.852-1.759-1.565-3.113-2.141-4.062-.576-.95-1.113-1.632-1.613-2.048-.5-.416-1.022-.727-1.568-.937-.402-.141-1.073-.272-2.013-.396l-4.229-.559-1.582,11.974-3.646-.481ZM239.899,48.117l7.837,1.035c1.666.22,2.992.225,3.976.01.984-.212,1.771-.657,2.356-1.335.587-.677.938-1.451,1.053-2.321.168-1.276-.166-2.387-1.004-3.333-.838-.947-2.277-1.555-4.319-1.824l-8.72-1.152-1.179,8.92Z"/>
    <path class="uuid-7d863121-9277-44d2-b3b2-2f183a59356b" d="M267.15,68.617l6.685-23.041-8.794-2.551.895-3.083,21.156,6.138-.895,3.083-8.83-2.562-6.686,23.041-3.531-1.025Z"/>
    <path class="uuid-7d863121-9277-44d2-b3b2-2f183a59356b" d="M296.845,80.183l11.155-21.24-8.106-4.257,1.493-2.842,19.502,10.244-1.493,2.841-8.14-4.274-11.156,21.238-3.255-1.709Z"/>
    <path class="uuid-7d863121-9277-44d2-b3b2-2f183a59356b" d="M310.73,87.752l16.317-21.762,2.942,2.206-6.701,8.937,11.558,8.665,6.701-8.937,2.942,2.207-16.318,21.763-2.942-2.206,7.691-10.258-11.557-8.666-7.691,10.258-2.942-2.206Z"/>
    <path class="uuid-7d863121-9277-44d2-b3b2-2f183a59356b" d="M332.014,104.363l19.735-18.721,13.829,14.58-2.329,2.208-11.298-11.911-6.045,5.733,10.581,11.154-2.316,2.196-10.58-11.155-6.717,6.372,11.741,12.379-2.329,2.208-14.272-15.046Z"/>
  </g>
  <g>
    <path class="uuid-4333c504-0133-4aa3-bb2a-098e9dda1d7d" d="M101.527,353.589l1.911,3.184c-2.621,1.563-5.173,2.204-7.657,1.922-2.485-.282-4.731-1.423-6.739-3.421-2.079-2.067-3.348-4.172-3.808-6.314-.46-2.142-.232-4.354.685-6.634.917-2.281,2.292-4.342,4.124-6.184,1.998-2.008,4.124-3.378,6.379-4.109s4.477-.781,6.665-.148c2.188.633,4.133,1.796,5.834,3.488,1.929,1.919,3.062,4.025,3.401,6.315.338,2.291-.12,4.583-1.374,6.878l-3.101-1.907c.949-1.849,1.316-3.516,1.103-5.002-.214-1.486-.965-2.871-2.254-4.153-1.482-1.475-3.074-2.352-4.776-2.632-1.702-.28-3.35-.022-4.944.773-1.594.795-3.024,1.829-4.289,3.101-1.632,1.64-2.817,3.309-3.556,5.008-.739,1.698-.906,3.353-.499,4.961.406,1.607,1.197,2.997,2.372,4.166,1.429,1.422,3.049,2.214,4.86,2.376,1.811.161,3.699-.395,5.664-1.668Z"/>
    <path class="uuid-4333c504-0133-4aa3-bb2a-098e9dda1d7d" d="M133.318,355.804l2.924,2.1-9.168,12.765c-1.595,2.221-3.112,3.804-4.553,4.749s-3.11,1.356-5.009,1.233c-1.899-.122-3.914-.949-6.044-2.479-2.07-1.486-3.506-3.06-4.31-4.718-.804-1.659-1.002-3.365-.594-5.121.407-1.756,1.452-3.804,3.134-6.145l9.167-12.765,2.924,2.1-9.157,12.75c-1.378,1.919-2.216,3.461-2.512,4.626-.296,1.166-.187,2.307.329,3.423.516,1.117,1.401,2.126,2.657,3.028,2.15,1.544,4.032,2.157,5.646,1.839,1.614-.317,3.417-1.863,5.409-4.636l9.157-12.75Z"/>
    <path class="uuid-4333c504-0133-4aa3-bb2a-098e9dda1d7d" d="M127.948,384.571l12.124-24.35,10.796,5.375c2.17,1.081,3.711,2.121,4.623,3.121s1.429,2.222,1.554,3.665c.124,1.443-.147,2.835-.814,4.175-.86,1.728-2.145,2.905-3.853,3.533-1.708.628-3.811.521-6.307-.321.648.835,1.095,1.562,1.34,2.181.511,1.332.865,2.855,1.062,4.57l.936,8.736-4.053-2.019-.7-6.67c-.214-1.931-.432-3.435-.655-4.513-.224-1.079-.499-1.893-.826-2.442-.328-.55-.71-1.01-1.147-1.38-.327-.26-.906-.596-1.736-1.01l-3.737-1.86-5.384,10.812-3.222-1.604ZM137.943,372.572l6.926,3.449c1.473.732,2.7,1.154,3.682,1.263.982.109,1.856-.063,2.622-.519.765-.455,1.344-1.075,1.735-1.861.573-1.152.626-2.307.16-3.465-.467-1.158-1.603-2.187-3.408-3.085l-7.707-3.838-4.011,8.056Z"/>
    <path class="uuid-4333c504-0133-4aa3-bb2a-098e9dda1d7d" d="M155.356,397.422l8.033-25.987,11.523,3.562c2.316.716,4.005,1.494,5.066,2.333,1.061.84,1.77,1.962,2.125,3.366.355,1.405.312,2.822-.129,4.252-.57,1.844-1.647,3.214-3.231,4.109-1.585.896-3.677,1.129-6.276.701.775.719,1.333,1.363,1.674,1.935.719,1.232,1.314,2.679,1.785,4.34l2.334,8.47-4.325-1.337-1.768-6.47c-.522-1.87-.98-3.32-1.375-4.348-.395-1.028-.797-1.787-1.209-2.277-.412-.489-.864-.882-1.355-1.177-.364-.203-.99-.441-1.876-.716l-3.989-1.232-3.567,11.54-3.439-1.063ZM163.284,383.967l7.392,2.285c1.571.486,2.851.703,3.838.652s1.821-.362,2.503-.936c.682-.572,1.153-1.278,1.412-2.117.38-1.229.246-2.377-.401-3.445-.648-1.067-1.935-1.898-3.861-2.494l-8.225-2.543-2.658,8.598Z"/>
    <path class="uuid-4333c504-0133-4aa3-bb2a-098e9dda1d7d" d="M184.365,405.592l3.908-26.919,19.464,2.825-.461,3.177-15.902-2.309-1.197,8.245,14.892,2.162-.458,3.158-14.892-2.162-1.33,9.163,16.526,2.398-.461,3.177-20.088-2.916Z"/>
    <path class="uuid-4333c504-0133-4aa3-bb2a-098e9dda1d7d" d="M212.179,409.106l-.441-27.197,3.692-.061,14.631,21.122-.346-21.354,3.45-.056.441,27.197-3.692.061-14.631-21.141.346,21.372-3.451.056Z"/>
    <path class="uuid-4333c504-0133-4aa3-bb2a-098e9dda1d7d" d="M248.885,406.912l-3.735-23.698-8.853,1.396-.5-3.171,21.298-3.357.499,3.171-8.889,1.401,3.735,23.698-3.556.561Z"/>
    <path class="uuid-4333c504-0133-4aa3-bb2a-098e9dda1d7d" d="M292.72,384.681l3.688-.434c.349,3.032-.116,5.622-1.395,7.771s-3.241,3.729-5.888,4.738c-2.739,1.045-5.18,1.337-7.321.877-2.142-.461-4.063-1.578-5.767-3.352-1.702-1.772-3.017-3.873-3.942-6.3-1.01-2.646-1.385-5.148-1.125-7.505.259-2.355,1.127-4.401,2.604-6.137,1.477-1.734,3.335-3.03,5.577-3.886,2.543-.97,4.928-1.138,7.155-.505s4.13,1.992,5.707,4.078l-3.014,2.044c-1.295-1.624-2.664-2.645-4.106-3.061-1.443-.416-3.015-.3-4.713.348-1.953.745-3.407,1.836-4.362,3.272-.954,1.438-1.396,3.046-1.326,4.826s.425,3.509,1.064,5.184c.824,2.162,1.858,3.929,3.104,5.3,1.245,1.372,2.685,2.203,4.317,2.494,1.634.29,3.225.14,4.773-.451,1.884-.719,3.271-1.87,4.163-3.455.892-1.584,1.16-3.533.807-5.849Z"/>
    <path class="uuid-4333c504-0133-4aa3-bb2a-098e9dda1d7d" d="M298.459,378.215c-2.292-3.89-3.042-7.551-2.249-10.982.792-3.431,2.84-6.12,6.144-8.067,2.164-1.274,4.419-1.906,6.765-1.896,2.347.011,4.521.672,6.521,1.984,2.001,1.312,3.692,3.141,5.073,5.485,1.4,2.376,2.174,4.785,2.319,7.226.146,2.441-.376,4.662-1.566,6.662-1.19,2.001-2.804,3.601-4.839,4.8-2.206,1.3-4.492,1.929-6.856,1.887-2.365-.042-4.539-.722-6.521-2.038s-3.578-3.003-4.79-5.06ZM301.685,376.379c1.664,2.824,3.734,4.602,6.211,5.332,2.476.73,4.859.421,7.151-.929,2.334-1.376,3.771-3.328,4.312-5.857.541-2.53-.077-5.303-1.854-8.319-1.124-1.907-2.427-3.383-3.91-4.426s-3.076-1.59-4.779-1.642-3.327.377-4.873,1.288c-2.195,1.293-3.64,3.16-4.334,5.601s-.002,5.425,2.076,8.952Z"/>
    <path class="uuid-4333c504-0133-4aa3-bb2a-098e9dda1d7d" d="M333.278,371.811l-16.457-21.657,2.866-2.178,16.457,21.657-2.866,2.178Z"/>
    <path class="uuid-4333c504-0133-4aa3-bb2a-098e9dda1d7d" d="M342.767,364.645l-18.756-19.701,2.675-2.546,25.073,5.617-14.726-15.468,2.5-2.379,18.755,19.701-2.674,2.546-25.087-5.63,14.738,15.481-2.499,2.379Z"/>
  </g>
  <circle class="uuid-eaa99a55-c2ab-4eba-9d0d-693918c18c3e" cx="220.674" cy="221.135" r="147.499"/>
  <path class="uuid-d6c439ff-8b4e-4db5-9748-f27532cfdc29" d="M279.32,301.332c3.125-4.916,7.501-8.906,10.165-16.081.522-1.404,4.723-8.508,5.227-10.044.613-1.866,5.125-10.249,9.863-20.654,5.249-11.525,4.029-26.012,3.857-27.495-.556-4.793-4.852-7.589-3.608-15.925s1.342-18.745-1.446-24.694-5.095-6.366-5.653-14.917-5.314-16.87-7.545-20.03-18.403-25.095-48.145-32.902c-26.795-7.034-48.763-.036-52.852,1.42-.408.145-.804.309-1.197.492-10.253,4.766-20.385,9.805-23.858,11.544-.837.419-1.653.873-2.411,1.421-17.684,12.777-19.621,45.587-19.29,65.602.338,20.441,7.433,31.928,8.784,35.138.963,2.288,5.617,10.84,8.211,15.565,1.153,2.101,1.756,4.457,1.756,6.854v17.28c-.362,24.521-11.349,38.418-17.58,44.347-2.159,2.054-4.903,3.336-7.847,3.798-4.387.689-11.356,3.972-16.187,6.464,26.404,24.872,61.975,40.121,101.112,40.121,37.294,0,71.349-13.848,97.322-36.673-7.917-3.631-26.587-11.342-39.957-10.093-17.386,1.625-19.257-3.967-19.823-5.525-.932-2.563-.044-7.431-.044-7.431,4.62-.607,18.634-3.624,21.149-7.581Z"/>
  <path class="uuid-2c610afb-03b3-41ae-a4e4-5cfe9ac16931" d="M262.152,219.129l13.914,40.606c.075.22-.088.448-.32.449l-34.934.067"/>
  <circle class="uuid-89b6b89f-dc68-48e0-bec2-83bc3b733c32" cx="283.429" cy="213.579" r="5.795"/>
  <line class="uuid-2c610afb-03b3-41ae-a4e4-5cfe9ac16931" x1="232.379" y1="279.324" x2="278.345" y2="279.324"/>
  <path class="uuid-2c610afb-03b3-41ae-a4e4-5cfe9ac16931" d="M180.955,232.861s-1.365,16.246,3.14,26.622,25.74,26.579,34.131,35.496c9.606,10.208,20.166,13.575,28.022,14.386,3.254.336,6.954.126,9.354-.142,1.55-.173,2.569-.31,2.569-.31"/>
  <path class="uuid-1bb49c13-ee6d-48c5-b467-9a5c59f99728" d="M185.21,306.292s-8.705.925-10.55,8.749c-1.756,7.446-6.457,7.07-9.638,7.07"/>
  <path class="uuid-1bb49c13-ee6d-48c5-b467-9a5c59f99728" d="M147.062,321.292s-2.032.366-10.248.873"/>
  <path class="uuid-1bb49c13-ee6d-48c5-b467-9a5c59f99728" d="M185.21,269.624s3.424,11.64-2.396,21.008"/>
  <path class="uuid-1bb49c13-ee6d-48c5-b467-9a5c59f99728" d="M236.045,313.202s.971,3.412,1.845,4.968c2.587,4.606,4.826,3.945,4.826,3.945"/>
  <circle class="uuid-89b6b89f-dc68-48e0-bec2-83bc3b733c32" cx="224.661" cy="213.579" r="5.795"/>
  <path class="uuid-1bb49c13-ee6d-48c5-b467-9a5c59f99728" d="M202.847,331.822s10.728-.575,13.321,5.278c.793,1.79,3.063,2.451,5.021,2.435,2.467-.02,3.827-.943,4.658-2.411,1.258-2.221,4.092-5.04,10.237-4.101"/>
</svg>