<svg width="32" height="32" viewBox="0 0 32 32" fill="none" xmlns="http://www.w3.org/2000/svg">
<path d="M0 16C0 7.16344 7.16344 0 16 0C24.8366 0 32 7.16344 32 16C32 24.8366 24.8366 32 16 32C7.16344 32 0 24.8366 0 16Z" fill="white"/>
<path fill-rule="evenodd" clip-rule="evenodd" d="M25 16C25 11.034 20.966 7 16 7C11.034 7 7 11.034 7 16C7 20.966 11.034 25 16 25C20.966 25 25 20.966 25 16Z" fill="white"/>
<path fill-rule="evenodd" clip-rule="evenodd" d="M12.612 14.4879L16.0003 9.29216V12.5448L12.612 14.4879ZM11.9575 15.4848C11.9932 15.4299 12.029 15.375 12.0648 15.3201L15.9958 22.7078C14.7695 22.7075 13.543 22.2492 12.6075 21.3324C11.0174 19.7742 10.7472 17.3422 11.9575 15.4848Z" fill="black"/>
<path opacity="0.6" fill-rule="evenodd" clip-rule="evenodd" d="M12.612 14.4875L16.0003 12.5502V16.4227L12.612 14.4875ZM12.0649 15.3201L16.0003 17.5652V22.7078L12.0649 15.3201Z" fill="black"/>
<path opacity="0.6" fill-rule="evenodd" clip-rule="evenodd" d="M19.3883 14.4879L16 9.29216V12.5448L19.3883 14.4879ZM20.0428 15.4848C20.0072 15.4299 19.9713 15.375 19.9355 15.3201L16.0045 22.7078C17.2308 22.7075 18.4574 22.2492 19.3928 21.3324C20.9829 19.7742 21.2531 17.3422 20.0428 15.4848Z" fill="black"/>
<path opacity="0.2" fill-rule="evenodd" clip-rule="evenodd" d="M19.3883 14.4875L16 12.5502V16.4227L19.3883 14.4875ZM19.9353 15.3201L16 17.5652V22.7078L19.9353 15.3201Z" fill="black"/>
<path fill-rule="evenodd" clip-rule="evenodd" d="M11.8545 3.38369C13.345 2.89377 14.938 2.66977 16.5159 2.73025C18.0941 2.79073 19.6577 3.13601 21.1127 3.74401C22.5681 4.35201 23.9149 5.22305 25.0673 6.29761C26.5914 7.71937 27.7748 9.49761 28.4845 11.4867C29.1946 13.4762 29.4311 15.6765 29.1572 17.7712C28.8836 19.8659 28.0996 21.8554 26.9137 23.5661C25.7277 25.2768 24.1396 26.7085 22.2743 27.7005C20.409 28.6922 18.266 29.2438 16.1537 29.2758C14.0413 29.3078 11.9594 28.8205 10.0948 27.895C8.23047 26.9696 6.58311 25.6064 5.33223 23.9037C4.08135 22.201 3.22695 20.1587 2.88775 18.0749C2.54855 15.9907 2.72455 13.8646 3.37447 11.8813C3.86567 10.3818 4.62791 8.96417 5.60455 7.73569H4.12007V5.28193H9.93671V10.7136H7.48295V9.22945C6.68295 10.2355 6.05831 11.3968 5.65607 12.6256C5.12391 14.2512 4.98055 15.9952 5.25607 17.697C5.59847 19.8138 6.58855 21.865 8.06631 23.4458C9.83399 25.3363 12.2993 26.5542 14.8657 26.8208C17.4317 27.0874 20.0989 26.4029 22.217 24.9286C24.3351 23.4544 25.9047 21.1904 26.5418 18.6899C27.1789 16.1894 26.8836 13.4525 25.7348 11.1421C24.586 8.83169 22.5834 6.94849 20.1889 5.95905C17.7943 4.96929 15.0074 4.87393 12.6036 5.66369L11.8545 3.38369Z" fill="url(#paint0_linear_411_487915)"/>
<defs>
<linearGradient id="paint0_linear_411_487915" x1="3.99976" y1="8.00012" x2="27.5039" y2="23.4938" gradientUnits="userSpaceOnUse">
<stop stop-color="#FEC618"/>
<stop offset="0.494792" stop-color="#F42B70"/>
<stop offset="1" stop-color="#0C73BE"/>
</linearGradient>
</defs>
</svg>
