<svg width="32" height="32" viewBox="0 0 32 32" fill="none" xmlns="http://www.w3.org/2000/svg">
<path d="M0 16C0 7.16344 7.16344 0 16 0C24.8366 0 32 7.16344 32 16C32 24.8366 24.8366 32 16 32C7.16344 32 0 24.8366 0 16Z" fill="white"/>
<path d="M16 25C20.9706 25 25 20.9706 25 16C25 11.0294 20.9706 7 16 7C11.0294 7 7 11.0294 7 16C7 20.9706 11.0294 25 16 25Z" fill="black"/>
<path d="M18.9789 14.0744C18.763 13.9488 18.4824 13.9488 18.2449 14.0744L16.5612 15.0372L15.4171 15.6651L13.7333 16.6279C13.5174 16.7535 13.2368 16.7535 12.9994 16.6279L11.661 15.8744C11.4451 15.7488 11.294 15.5186 11.294 15.2674V13.7814C11.294 13.5302 11.4235 13.3 11.661 13.1744L12.9778 12.4419C13.1936 12.3163 13.4743 12.3163 13.7117 12.4419L15.0285 13.1744C15.2444 13.3 15.3955 13.5302 15.3955 13.7814V14.7442L16.5396 14.0953V13.1325C16.5396 12.8814 16.41 12.6511 16.1726 12.5256L13.7333 11.1442C13.5174 11.0186 13.2368 11.0186 12.9994 11.1442L10.5169 12.5256C10.2794 12.6511 10.1499 12.8814 10.1499 13.1325V15.9163C10.1499 16.1674 10.2794 16.3977 10.5169 16.5232L12.9994 17.9046C13.2152 18.0302 13.4959 18.0302 13.7333 17.9046L15.4171 16.9628L16.5612 16.3139L18.2449 15.3721C18.4608 15.2465 18.7414 15.2465 18.9789 15.3721L20.2957 16.1046C20.5115 16.2302 20.6626 16.4604 20.6626 16.7116V18.1977C20.6626 18.4488 20.5331 18.679 20.2957 18.8046L18.9789 19.5581C18.763 19.6837 18.4824 19.6837 18.2449 19.5581L16.9281 18.8256C16.7123 18.7 16.5612 18.4697 16.5612 18.2186V17.2558L15.4171 17.9046V18.8674C15.4171 19.1186 15.5466 19.3488 15.784 19.4744L18.2665 20.8558C18.4824 20.9814 18.763 20.9814 19.0004 20.8558L21.4829 19.4744C21.6988 19.3488 21.8499 19.1186 21.8499 18.8674V16.0837C21.8499 15.8325 21.7204 15.6023 21.4829 15.4767L18.9789 14.0744Z" fill="white"/>
<path fill-rule="evenodd" clip-rule="evenodd" d="M11.855 3.38363C13.3455 2.89371 14.9385 2.66971 16.5164 2.73019C18.0946 2.79067 19.6582 3.13595 21.1132 3.74395C22.5686 4.35195 23.9154 5.22299 25.0678 6.29755C26.5919 7.71931 27.7753 9.49755 28.485 11.4867C29.1951 13.4761 29.4316 15.6764 29.1577 17.7711C28.8841 19.8659 28.1001 21.8553 26.9142 23.566C25.7282 25.2767 24.1401 26.7084 22.2748 27.7004C20.4095 28.6921 18.2665 29.2438 16.1542 29.2758C14.0418 29.3078 11.9599 28.8204 10.0953 27.895C8.23095 26.9695 6.58359 25.6063 5.33271 23.9036C4.08183 22.2009 3.22743 20.1587 2.88823 18.0748C2.54903 15.9907 2.72503 13.8646 3.37495 11.8812C3.86615 10.3817 4.62839 8.96411 5.60503 7.73563H4.12055V5.28187H9.93719V10.7135H7.48343V9.22939C6.68343 10.2355 6.05879 11.3967 5.65655 12.6255C5.12439 14.2511 4.98103 15.9951 5.25655 17.6969C5.59895 19.8137 6.58903 21.8649 8.06679 23.4457C9.83447 25.3363 12.2998 26.5542 14.8662 26.8207C17.4322 27.0873 20.0994 26.4028 22.2175 24.9286C24.3356 23.4543 25.9052 21.1903 26.5423 18.6899C27.1794 16.1894 26.8841 13.4524 25.7353 11.142C24.5865 8.83163 22.5839 6.94843 20.1894 5.95899C17.7948 4.96923 15.0079 4.87387 12.6041 5.66363L11.855 3.38363Z" fill="url(#paint0_linear_406_420929)"/>
<defs>
<linearGradient id="paint0_linear_406_420929" x1="2.04365" y1="13.2971" x2="15.2224" y2="29.5764" gradientUnits="userSpaceOnUse">
<stop stop-color="#004CFF"/>
<stop offset="0.252131" stop-color="#00E0FB"/>
<stop offset="0.505709" stop-color="#87FF70"/>
<stop offset="0.755054" stop-color="#F8F500"/>
<stop offset="1" stop-color="#FF1A00"/>
</linearGradient>
</defs>
</svg>
