<svg xmlns="http://www.w3.org/2000/svg" viewBox="0 0 600 600">
    <path d="M300 600C465.685 600 600 465.685 600 300C600 134.315 465.685 0 300 0C134.315 0 0 134.315 0 300C0 465.685 134.315 600 300 600Z" fill="white"/>
    <path d="M300 600C465.685 600 600 465.685 600 300C600 134.315 465.685 0 300 0C134.315 0 0 134.315 0 300C0 465.685 134.315 600 300 600Z" fill="url(#paint0_radial_440_36)"/>
    <g transform="matrix(0.6,0,0,0.6,0,0)">
        <path d="M445 780c98 0 181-63 212-150h-61c-27 56-85 94-151 94-93 0-169-76-169-169 0-66 38-124 94-151v-61c-87 31-150 114-150 212 0 124 101 225 225 225zm188-215c33 0 64-9 90-25v-52c-25 19-55 31-89 31-48 0-86-23-104-61h133l12-40H518c-1-6-1-11-1-17s0-12 1-18h168l12-40H529c18-39 55-62 105-62 27 0 53 7 77 20l14-45c-27-14-59-21-91-21-75 0-134 43-156 107h-44l-12 38h48c-1 7-1 14-1 21s0 13 1 20h-36l-12 38h57c21 64 79 106 154 106z" fill="#FFF"/>
    </g>
    <defs>
        <radialGradient id="paint0_radial_440_36" cx="0" cy="0" r="1" gradientUnits="userSpaceOnUse" gradientTransform="translate(196 143.5) rotate(54.1675) scale(497.082)">
            <stop stop-color="#45CD8588"/>
            <stop stop-color="#45CD85" offset="1"/>
        </radialGradient>
    </defs>
</svg>