<svg width="32" height="32" viewBox="0 0 32 32" fill="none" xmlns="http://www.w3.org/2000/svg">
<g clip-path="url(#clip0_1213_293476)">
<path d="M15.9997 0C24.8361 0 32 7.1633 32 15.9997C32 24.8361 24.8367 32 16.0003 32C7.16392 32 0 24.8367 0 16.0003C0 7.16392 7.1633 0 15.9997 0Z" fill="white"/>
<path fill-rule="evenodd" clip-rule="evenodd" d="M15.9997 0.655795C7.52551 0.655795 0.655795 7.52608 0.655795 16.0003C0.655795 24.4745 7.52608 31.3442 16.0003 31.3442C24.4745 31.3442 31.3442 24.4739 31.3442 15.9997C31.3442 7.52551 24.4739 0.655795 15.9997 0.655795ZM0 16.0003C0 7.16393 7.16329 0 15.9997 0C24.8361 0 32 7.16329 32 15.9997C32 24.836 24.8367 32 16.0003 32C7.16393 32 0 24.8367 0 16.0003Z" fill="black"/>
<path fill-rule="evenodd" clip-rule="evenodd" d="M13.9316 3C7.70406 4.17636 3 9.54946 3 15.9999C3 22.4505 7.70406 27.8236 13.9316 29V27.7592C8.39349 26.6014 4.2398 21.7764 4.2398 15.9999C4.2398 10.2236 8.39349 5.39854 13.9316 4.2408V3ZM19.0917 4.24567V3.00439C25.3077 4.18968 30 9.55741 30 15.9999C30 22.4426 25.3077 27.8103 19.0917 28.9956V27.7543C24.6181 26.588 28.7602 21.7684 28.7602 15.9999C28.7602 10.2316 24.6181 5.412 19.0917 4.24567Z" fill="black"/>
<path d="M17.8522 15.5217C18.8503 15.7246 19.6244 16.1159 20.1747 16.6957C20.7249 17.2609 21 17.9855 21 18.8696V20.2608C21 21.3188 20.6417 22.1739 19.9251 22.8261C19.2086 23.4637 18.268 23.7826 17.1036 23.7826H16.7006V26H15.3186V23.7826H14.8964C14.1286 23.7826 13.4504 23.6014 12.8618 23.2391C12.2732 22.8623 11.8126 22.3406 11.4798 21.6739C11.16 20.9927 11 20.2101 11 19.3261H12.382C12.382 20.2246 12.6123 20.9565 13.0729 21.5217C13.5464 22.0724 14.167 22.3478 14.9347 22.3478H17.0653C17.8202 22.3478 18.428 22.1594 18.8886 21.7826C19.3494 21.3913 19.5797 20.8841 19.5797 20.2608V18.8696C19.5797 18.3768 19.4069 17.9565 19.0614 17.6087C18.7288 17.2609 18.268 17.0362 17.6794 16.9348L14.2246 16.2826C13.2521 16.0942 12.4971 15.7029 11.9597 15.1087C11.4223 14.5145 11.1535 13.7681 11.1535 12.8696V11.6957C11.1535 10.6377 11.4991 9.79713 12.19 9.1739C12.8938 8.53625 13.8215 8.21739 14.9732 8.21739H15.3186V6H16.7006V8.21739H17.142C18.2297 8.21739 19.1062 8.59418 19.7716 9.34786C20.437 10.0869 20.7697 11.0652 20.7697 12.2826H19.3877C19.3877 11.4855 19.183 10.8478 18.7735 10.3696C18.3641 9.89127 17.8202 9.65218 17.142 9.65218H14.9732C14.2438 9.65218 13.6615 9.84055 13.2265 10.2174C12.7914 10.5797 12.5739 11.0724 12.5739 11.6957V12.8696C12.5739 13.3768 12.7338 13.8044 13.0538 14.1522C13.3864 14.5 13.8407 14.7319 14.4165 14.8479L17.8522 15.5217Z" fill="black"/>
</g>
<defs>
<clipPath id="clip0_1213_293476">
<rect width="32" height="32" fill="white"/>
</clipPath>
</defs>
</svg>
