<svg viewBox="0 0 48 48" fill="none" xmlns="http://www.w3.org/2000/svg">
    <rect x="10" y="10" width="20" height="2" fill="currentColor" />
    <rect x="34" y="10" width="10" height="2" fill="currentColor" />
    <rect x="8" y="12" width="2" height="28" fill="currentColor" />
    <rect x="38" y="20" width="2" height="20" fill="currentColor" />
    <rect x="38" y="6" width="2" height="10" fill="currentColor" />
    <rect width="28" height="2" transform="matrix(1 0 0 -1 10 42)" fill="currentColor" />
    <rect width="4" height="2" transform="matrix(1 0 0 -1 9.85938 34)" fill="currentColor" />
    <rect width="4" height="2" transform="matrix(1 0 0 -1 12 32)" fill="currentColor" />
    <rect width="4" height="2" transform="matrix(1 0 0 -1 14 30)" fill="currentColor" />
    <rect width="4" height="2" transform="matrix(1 0 0 -1 16 28)" fill="currentColor" />
    <rect width="4" height="2" transform="matrix(1 0 0 -1 18 26)" fill="currentColor" />
    <rect width="4" height="2" transform="matrix(1 0 0 -1 20 28)" fill="currentColor" />
    <rect width="4" height="2" transform="matrix(1 0 0 -1 23 29)" fill="currentColor" />
    <rect width="4" height="2" transform="matrix(1 0 0 -1 24 31)" fill="currentColor" />
    <rect width="4" height="2" transform="matrix(1 0 0 -1 27 32)" fill="currentColor" />
    <rect width="4" height="2" transform="matrix(1 0 0 -1 31 33)" fill="currentColor" />
    <rect width="4" height="2" transform="matrix(1 0 0 -1 35 32)" fill="currentColor" />
</svg>