<svg width="240" height="240" viewBox="0 0 240 240" fill="none" xmlns="http://www.w3.org/2000/svg">
<g clip-path="url(#clip0_4489_14913)">
<path d="M120 240C186.274 240 240 186.274 240 120C240 53.7258 186.274 0 120 0C53.7258 0 0 53.7258 0 120C0 186.274 53.7258 240 120 240Z" fill="#F5F3F1"/>
<g clip-path="url(#clip1_4489_14913)">
<mask id="mask0_4489_14913" style="mask-type:luminance" maskUnits="userSpaceOnUse" x="62" y="54" width="106" height="130">
<path d="M168 54H62V184H168V54Z" fill="white"/>
</mask>
<g mask="url(#mask0_4489_14913)">
<path d="M72.8 106.2C72.8 106.2 72.8 106.1 72.8 106C74.8 98.3 86.6 91.1 93.3 87.2C110.8 77.9 129.8 72 149 67.4C153.8 66.3 158.6 65.2 163.4 64.3C171.4 62.5 167.5 51 159.9 54C152.3 55.5 144.7 57.2 137.2 59.2C116.3 64.8 66.9 80.6 62.2 104.1C62.2 104.7 62 105.3 62 105.9V107.3C62 107.8 62 108.2 62.1 108.6C66.7 130.1 116.8 136.9 135.6 139C143.4 140 151.3 140.4 159.2 140.9C161.8 141.8 163.4 138.2 160.4 137.7C159.1 137.6 157.9 137.4 156.6 137.3C156.5 137.3 156.4 137.3 156.3 137.3C156.1 137.3 155.9 137.3 155.7 137.3C135 135.4 85.5 128 73.6 110.2C73.3 109.6 73 108.9 72.9 108.3C72.9 108 72.9 107.8 72.9 107.5V106.4C72.9 106.4 72.9 106.2 72.9 106.1L72.8 106.2Z" fill="#0C0D1D"/>
<path d="M72.8 117C72.8 117 72.8 116.9 72.8 116.8C74.8 109.1 86.6 101.9 93.3 98C110.8 88.7 129.8 82.8 149 78.2C153.8 77.1 158.6 76 163.4 75.1C171.4 73.3 167.5 61.8 159.9 64.8C152.4 66.3 144.9 68 137.5 69.9C116.6 75.5 66.9 91.4 62.2 114.9C62.2 115.5 62 116.1 62 116.7V118.1C62 118.6 62 119 62.1 119.4C66.7 140.9 116.8 147.7 135.6 149.8C143.4 150.8 151.3 151.2 159.2 151.7C161.8 152.6 163.4 149 160.4 148.5C159.1 148.4 157.9 148.2 156.6 148.1C156.5 148.1 156.4 148.1 156.3 148.1C156.1 148.1 155.9 148.1 155.7 148.1C135 146.2 85.5 138.8 73.6 121C73.3 120.4 73 119.7 72.9 119.1C72.9 118.8 72.9 118.6 72.9 118.3V117.2C72.9 117.2 72.9 117 72.9 116.9L72.8 117Z" fill="#0433FF"/>
<path d="M72.8 127.8C72.8 127.8 72.8 127.7 72.8 127.6C74.8 119.9 86.6 112.7 93.3 108.8C110.8 99.5 129.8 93.6 149 89C153.8 87.9 158.6 86.8 163.4 85.9C171.4 84.1 167.5 72.6 159.9 75.6C152.4 77.1 144.9 78.8 137.5 80.7C116.6 86.3 66.9 102.2 62.2 125.7C62.2 126.3 62 126.9 62 127.5V128.9C62 129.4 62 129.8 62.1 130.2C66.7 151.7 116.8 158.5 135.6 160.6C143.4 161.6 151.3 162 159.2 162.5C161.8 163.4 163.4 159.8 160.4 159.3C159.1 159.2 157.9 159 156.6 158.9C156.5 158.9 156.4 158.9 156.3 158.9C156.1 158.9 155.9 158.9 155.7 158.9C135 157 85.5 149.6 73.6 131.8C73.3 131.2 73 130.5 72.9 129.9C72.9 129.6 72.9 129.4 72.9 129.1V128C72.9 128 72.9 127.8 72.9 127.7L72.8 127.8Z" fill="#9CADFF"/>
<path d="M72.8 138.5C72.8 138.5 72.8 138.4 72.8 138.3C74.8 130.6 86.6 123.4 93.3 119.5C110.8 110.2 129.8 104.3 149 99.7C153.8 98.6 158.6 97.5 163.4 96.6C171.4 94.8 167.5 83.3 159.9 86.3C152.3 87.8 144.7 89.5 137.2 91.5C116.3 97.2 66.9 113 62.2 136.5C62.2 137.1 62 137.7 62 138.3V139.7C62 140.2 62 140.6 62.1 141C66.7 162.5 116.8 169.3 135.6 171.4C143.4 172.4 151.3 172.8 159.2 173.3C161.8 174.2 163.4 170.6 160.4 170.1C159.1 170 157.9 169.8 156.6 169.7C156.5 169.7 156.4 169.7 156.3 169.7C156.1 169.7 155.9 169.7 155.7 169.7C135 167.8 85.5 160.4 73.6 142.6C73.3 142 73 141.3 72.9 140.7C72.9 140.4 72.9 140.2 72.9 139.9V138.8C72.9 138.8 72.9 138.6 72.9 138.5H72.8Z" fill="#F5F3E6"/>
<path d="M72.8 149.3C72.8 149.3 72.8 149.2 72.8 149.1C74.8 141.4 86.6 134.2 93.3 130.3C110.8 121 129.8 115.1 149 110.5C153.8 109.4 158.6 108.3 163.4 107.4C171.4 105.6 167.5 94.1 159.9 97.1C152.3 98.6 144.7 100.3 137.2 102.3C116.3 108 66.9 123.8 62.2 147.2C62.2 147.8 62 148.4 62 149V150.4C62 150.9 62 151.3 62.1 151.7C66.7 173.2 116.8 180 135.6 182.1C143.4 183.1 151.3 183.5 159.2 184C161.8 184.9 163.4 181.3 160.4 180.8C159.1 180.7 157.9 180.5 156.6 180.4C156.5 180.4 156.4 180.4 156.3 180.4C156.1 180.4 155.9 180.4 155.7 180.4C135 178.5 85.5 171.1 73.6 153.3C73.3 152.7 73 152 72.9 151.4C72.9 151.1 72.9 150.9 72.9 150.6V149.5C72.9 149.5 72.9 149.3 72.9 149.2L72.8 149.3Z" fill="#FF1100"/>
</g>
</g>
</g>
<defs>
<clipPath id="clip0_4489_14913">
<rect width="240" height="240" rx="120" fill="white"/>
</clipPath>
<clipPath id="clip1_4489_14913">
<rect width="106" height="130" fill="white" transform="translate(62 54)"/>
</clipPath>
</defs>
</svg>
