<?xml version="1.0" encoding="iso-8859-1"?>
<!-- Generator: Adobe Illustrator 29.0.0, SVG Export Plug-In . SVG Version: 9.03 Build 54978)  -->
<svg version="1.1" xmlns="http://www.w3.org/2000/svg" xmlns:xlink="http://www.w3.org/1999/xlink" x="0px" y="0px" width="144px"
	 height="144px" viewBox="0 0 144 144" enable-background="new 0 0 144 144" xml:space="preserve">
<g id="Layer_2">
</g>
<g id="Layer_1">
	<g>
		<linearGradient id="SVGID_1_" gradientUnits="userSpaceOnUse" x1="72.7927" y1="3.1489" x2="71.4198" y2="141.42">
			<stop  offset="0" style="stop-color:#806327"/>
			<stop  offset="9.851529e-04" style="stop-color:#6D3E0D"/>
			<stop  offset="0.0442" style="stop-color:#74430F"/>
			<stop  offset="0.1393" style="stop-color:#7F4C12"/>
			<stop  offset="0.2777" style="stop-color:#F9BA42"/>
			<stop  offset="0.39" style="stop-color:#AB7922"/>
			<stop  offset="0.529" style="stop-color:#79540D"/>
			<stop  offset="0.6349" style="stop-color:#C3841C"/>
			<stop  offset="0.7293" style="stop-color:#8C5C20"/>
			<stop  offset="0.9479" style="stop-color:#5F4020"/>
			<stop  offset="1" style="stop-color:#604221"/>
		</linearGradient>
		<path fill="url(#SVGID_1_)" d="M109.199,8.341c-0.01,0.01-0.021,0.02-0.032,0.03c-6.285-2.065-11.99-2.373-15.471-2.227
			c-1.097,0.046-2.319,0.154-3.673,0.314C73.549,8.41,58.446,17.999,47.54,31.656c-9.58,11.997-16.123,27.266-17.317,43.338
			c-1.187-0.372-2.647-0.525-4.444-0.223c-6.666,1.12-9.662,6.825-9.662,6.825c0.025,0.002,0.049,0.006,0.074,0.007
			c0,0.001-0.005,0.009-0.005,0.009c0.025,0.001,0.05,0.005,0.075,0.006c-0.001,0.001-0.005,0.009-0.005,0.009
			c0.025,0.001,0.05,0.005,0.075,0.006c-0.001,0.001-0.005,0.009-0.005,0.009c0.025,0.001,0.05,0.005,0.075,0.007
			c-0.001,0.001-0.005,0.009-0.005,0.009c0.025,0.001,0.05,0.005,0.075,0.006c0,0.001-0.005,0.009-0.005,0.009
			c0.025,0.001,0.05,0.005,0.075,0.006c0,0.001-0.005,0.009-0.005,0.009c0.025,0.001,0.05,0.005,0.075,0.006
			c0,0.001-0.005,0.009-0.005,0.009c0.025,0.001,0.05,0.005,0.075,0.007c0,0.001-0.004,0.009-0.004,0.009
			c0.025,0.001,0.049,0.005,0.074,0.006c0,0.001-0.005,0.009-0.005,0.009c0.025,0.001,0.05,0.005,0.075,0.006
			c-0.001,0.001-0.005,0.009-0.005,0.009c0.025,0.001,0.049,0.005,0.075,0.007c-0.001,0-0.005,0.009-0.005,0.009
			c0.025,0.001,0.05,0.005,0.075,0.006c-0.001,0.001-0.005,0.009-0.005,0.009c0.025,0.001,0.05,0.005,0.074,0.007
			c0,0.001-0.005,0.009-0.005,0.009c0.025,0.001,0.05,0.005,0.075,0.006c0,0.001-0.005,0.009-0.005,0.009
			c0.025,0.001,0.05,0.005,0.074,0.007c0,0.001-0.005,0.009-0.005,0.009c0.025,0.001,0.05,0.005,0.075,0.007
			c0,0.001-0.005,0.009-0.005,0.009c0.025,0.001,0.05,0.005,0.074,0.006c0,0.001-0.005,0.009-0.005,0.009
			c0.025,0.001,0.05,0.005,0.075,0.007c0,0.001-0.005,0.009-0.005,0.009c0.025,0.001,0.05,0.005,0.075,0.006
			c0,0.001-0.005,0.009-0.005,0.009c0.025,0.001,0.049,0.005,0.075,0.007c-0.001,0.001-0.005,0.009-0.005,0.009
			c0.025,0.001,0.05,0.005,0.075,0.006c0,0.001-0.005,0.009-0.005,0.009c0.025,0.001,0.05,0.006,0.075,0.007
			c-0.001,0.001-0.005,0.009-0.005,0.009c0.025,0.001,0.05,0.005,0.075,0.007c0,0.001-0.005,0.009-0.005,0.009
			c0.025,0.001,0.05,0.005,0.075,0.006c0,0.001-0.005,0.009-0.005,0.009c0.025,0.001,0.05,0.005,0.075,0.007
			c0,0.001-0.005,0.009-0.005,0.009c0.025,0.001,0.05,0.005,0.075,0.006c0,0.001-0.005,0.009-0.005,0.009
			c0.025,0.001,0.05,0.006,0.074,0.007c0,0.001-0.004,0.009-0.004,0.009c0.025,0.001,0.049,0.005,0.075,0.006
			c-0.001,0.001-0.005,0.009-0.005,0.009c0.025,0.001,0.05,0.005,0.075,0.006c-0.001,0.001-0.005,0.009-0.005,0.009
			c0.025,0.001,0.049,0.005,0.074,0.007c0,0.001-0.005,0.009-0.005,0.009c0.025,0.001,0.05,0.005,0.075,0.007
			c-0.001,0.001-0.005,0.009-0.005,0.009c0.025,0.001,0.05,0.005,0.075,0.007c-0.001,0.001-0.005,0.009-0.005,0.009
			c0.025,0.001,0.05,0.005,0.075,0.007c0,0.001-0.005,0.009-0.005,0.009c0.025,0.001,0.05,0.005,0.075,0.007
			c0,0.001-0.005,0.009-0.005,0.009c0.025,0.001,0.05,0.005,0.075,0.007c0,0.001-0.005,0.009-0.005,0.009
			c0.025,0.001,0.05,0.005,0.075,0.007c0,0.001-0.005,0.009-0.005,0.009c0.025,0.001,0.049,0.005,0.074,0.007
			c0,0-0.004,0.009-0.004,0.009c0.025,0.001,0.05,0.005,0.075,0.007c-0.001,0.001-0.005,0.009-0.005,0.009
			c0.025,0.001,0.05,0.005,0.075,0.007c-0.001,0.001-0.005,0.009-0.005,0.009c0.025,0.001,0.05,0.005,0.075,0.007
			c-0.001,0.001-0.005,0.009-0.005,0.009c0.025,0.001,0.05,0.005,0.075,0.007c-0.001,0.001-0.005,0.009-0.005,0.009
			c0.025,0.001,0.05,0.005,0.075,0.007c0,0.001-0.005,0.009-0.005,0.009c0.025,0.001,0.05,0.005,0.075,0.007
			c0,0.001-0.005,0.009-0.005,0.009c0.025,0.002,0.05,0.005,0.075,0.007c0,0.001-0.005,0.009-0.005,0.009
			c0.025,0.001,0.05,0.005,0.075,0.007c0,0.001-0.005,0.009-0.005,0.009c0.025,0.001,0.05,0.005,0.075,0.007
			c0,0.001-0.005,0.009-0.005,0.009c0.025,0.001,0.049,0.006,0.074,0.007c0,0.001-0.004,0.009-0.004,0.009
			c0.025,0.001,0.05,0.005,0.075,0.007c-0.001,0.001-0.005,0.009-0.005,0.009c0.025,0.002,0.05,0.006,0.075,0.007
			c-0.001,0.001-0.005,0.009-0.005,0.009c0.025,0.001,0.05,0.005,0.075,0.007c-0.001,0.001-0.005,0.009-0.005,0.009
			c0.025,0.002,0.05,0.006,0.075,0.007c0,0.001-0.005,0.009-0.005,0.009c0.014,0.001,0.028,0.003,0.042,0.003
			c0.009,0.004,0.019,0.007,0.028,0.011l-0.001,0.001c0.001,0,0.002,0,0.003,0c6.78,2.696,10.949,11.617,13.094,18.729
			c0-0.002,0-0.003,0-0.006c2.975,9.953,8.384,19.53,15.827,26.043c11.462,10.029,26.581,14.17,41.095,13.05
			c0,0.007-0.001,0.011-0.001,0.019c0.38-0.03,0.751-0.073,1.126-0.11c0.039-0.003,0.077-0.008,0.115-0.011
			c0.007,0,0.013-0.001,0.02-0.002c0.008-0.001,0.017-0.002,0.025-0.003c0.009-0.001,0.018-0.002,0.027-0.002
			c0.006-0.001,0.012-0.001,0.018-0.002c0.006,0,0.012-0.001,0.019-0.002c0.008-0.001,0.017-0.001,0.025-0.002
			c0.007-0.001,0.013-0.002,0.019-0.002c0.009-0.001,0.017-0.001,0.025-0.002c0.007-0.001,0.013-0.001,0.019-0.002
			c0.009-0.001,0.017-0.002,0.025-0.002c0.009-0.001,0.017-0.002,0.026-0.003c0.006-0.001,0.012-0.001,0.018-0.002
			c0.006-0.001,0.012-0.001,0.018-0.002c0.009-0.001,0.017-0.002,0.026-0.003c0.006,0,0.013-0.001,0.019-0.002
			c0.009-0.001,0.017-0.002,0.025-0.003c0.007-0.001,0.014-0.001,0.021-0.002c0.008-0.001,0.016-0.001,0.024-0.002
			c0.007,0,0.013-0.001,0.02-0.002c0.009-0.001,0.017-0.001,0.024-0.002c0.009-0.001,0.017-0.002,0.025-0.002
			c0.007-0.001,0.013-0.002,0.019-0.002c0.007,0,0.013-0.001,0.02-0.002c0.008-0.001,0.016-0.002,0.024-0.002
			c0.007-0.001,0.013-0.002,0.02-0.002c0.008-0.001,0.016-0.002,0.024-0.002c0.007-0.001,0.013-0.001,0.02-0.002
			c0.008-0.001,0.017-0.002,0.025-0.003c0.008-0.001,0.017-0.002,0.025-0.003c0.007,0,0.013-0.001,0.02-0.002
			c0.007-0.001,0.013-0.001,0.02-0.002c0.008-0.001,0.017-0.002,0.025-0.003c0.006,0,0.013-0.001,0.019-0.002
			c0.008-0.001,0.017-0.001,0.025-0.002c0.007-0.001,0.013-0.002,0.019-0.002c0.008-0.001,0.017-0.001,0.025-0.002
			c0.007,0,0.013-0.001,0.02-0.002c0.008-0.001,0.016-0.001,0.024-0.002c0.009-0.001,0.018-0.002,0.027-0.003
			c0.006,0,0.012-0.001,0.018-0.002c0.006-0.001,0.013-0.001,0.019-0.002c0.008-0.001,0.017-0.002,0.025-0.003
			c0.006,0,0.012-0.001,0.018-0.002c0.009-0.001,0.017-0.002,0.026-0.003c0.007-0.001,0.013-0.001,0.02-0.002
			c0.008-0.001,0.016-0.002,0.024-0.002c0.009-0.001,0.018-0.002,0.026-0.002c0.006-0.001,0.012-0.001,0.019-0.002
			c0.006-0.001,0.012-0.001,0.019-0.002c0.009-0.001,0.017-0.002,0.025-0.003c0.007,0,0.013-0.001,0.02-0.002
			c0.008-0.001,0.017-0.002,0.025-0.002c0.007-0.001,0.013-0.002,0.02-0.002c0.008-0.001,0.016-0.002,0.024-0.003
			c0.008,0,0.017-0.002,0.025-0.002c0.006-0.001,0.012-0.001,0.019-0.002c0.006-0.001,0.012-0.001,0.018-0.002
			c0.009-0.001,0.018-0.001,0.026-0.002c0.006-0.001,0.013-0.001,0.019-0.002c0.009-0.001,0.017-0.002,0.025-0.002
			c0.007-0.001,0.013-0.002,0.02-0.003c0.008-0.001,0.017-0.001,0.025-0.002c0.007-0.001,0.013-0.002,0.019-0.002
			c0.009-0.001,0.017-0.002,0.025-0.002c0.009-0.001,0.018-0.002,0.027-0.003c0.006,0,0.012-0.001,0.018-0.001
			c0.006-0.001,0.012-0.002,0.019-0.002c0.009-0.001,0.017-0.002,0.026-0.003c0.006,0,0.013-0.001,0.019-0.002
			c0.009-0.001,0.017-0.001,0.025-0.002c0.007-0.001,0.014-0.002,0.021-0.002c0.008-0.001,0.015-0.002,0.024-0.002
			c0.009-0.001,0.017-0.002,0.026-0.003c0.006-0.001,0.012-0.001,0.019-0.002c0.006-0.001,0.012-0.001,0.018-0.002
			c0.009,0,0.017-0.001,0.026-0.002c0.006-0.001,0.012-0.001,0.019-0.002c0.009-0.001,0.017-0.002,0.026-0.003
			c0.007,0,0.013-0.001,0.02-0.002c0.008-0.001,0.016-0.001,0.024-0.002c0.007,0,0.013-0.001,0.02-0.002
			c0.008-0.001,0.017-0.002,0.024-0.003c0.009-0.001,0.017-0.002,0.025-0.003c0.006,0,0.013-0.001,0.019-0.001
			c0.007-0.001,0.013-0.002,0.02-0.002c0.008-0.001,0.017-0.002,0.025-0.002c0.006-0.001,0.013-0.001,0.02-0.002
			c0.008-0.001,0.017-0.002,0.024-0.002c0.007-0.001,0.013-0.002,0.02-0.002c0.008,0,0.017-0.001,0.025-0.002
			c0.008-0.001,0.017-0.002,0.025-0.003c0.007-0.001,0.013-0.001,0.02-0.002c0.006-0.001,0.013-0.002,0.019-0.002
			c0.008-0.001,0.017-0.001,0.025-0.002c0.007-0.001,0.013-0.002,0.019-0.002c0.008-0.001,0.017-0.002,0.025-0.002
			c0.007-0.001,0.013-0.001,0.019-0.002c0.009-0.001,0.017-0.001,0.025-0.002c0.007-0.001,0.013-0.002,0.02-0.002
			c0.008-0.001,0.017-0.002,0.024-0.002c0.009-0.001,0.018-0.002,0.026-0.003c0.006-0.001,0.012-0.001,0.018-0.002
			c0.006-0.001,0.012-0.001,0.019-0.002c0.008-0.001,0.017-0.002,0.025-0.002c0.006-0.001,0.012-0.001,0.019-0.002
			c0.009-0.001,0.017-0.002,0.025-0.003c0.007,0,0.013-0.001,0.02-0.002c0.008,0,0.017-0.001,0.025-0.002
			c0.009-0.001,0.017-0.002,0.026-0.003c0.006-0.001,0.012-0.001,0.019-0.002c0.006,0,0.012-0.001,0.018-0.002
			c0.009-0.001,0.017-0.001,0.026-0.002c0.007-0.001,0.013-0.002,0.02-0.002c0.008-0.001,0.017-0.002,0.025-0.003
			c0.006,0,0.013-0.001,0.019-0.002c0.009-0.001,0.017-0.001,0.025-0.002c0.007-0.001,0.013-0.002,0.019-0.002
			c0.009-0.001,0.017-0.002,0.025-0.003c0.009,0,0.018-0.002,0.027-0.003c0.006-0.001,0.012-0.001,0.018-0.001
			c0.007-0.001,0.013-0.002,0.019-0.002c0.009,0,0.017-0.001,0.026-0.002c0.007-0.001,0.013-0.001,0.019-0.002
			c0.009-0.001,0.017-0.002,0.025-0.002c0.007-0.001,0.013-0.002,0.019-0.002c0.008-0.001,0.017-0.001,0.025-0.002
			c0.009-0.001,0.018-0.002,0.027-0.003c0.006-0.001,0.012-0.001,0.018-0.002c0.006-0.001,0.012-0.001,0.019-0.002
			c0.009-0.001,0.017-0.002,0.026-0.002c0.006-0.001,0.013-0.002,0.019-0.002c0.009-0.001,0.017-0.002,0.025-0.003
			c0.007,0,0.014-0.001,0.021-0.002c0.008-0.001,0.016-0.001,0.024-0.002c0.007-0.001,0.013-0.001,0.02-0.002
			c0.008-0.001,0.016-0.001,0.024-0.002c0.009-0.001,0.017-0.002,0.025-0.003c0.007-0.001,0.013-0.001,0.019-0.001
			c0.006-0.001,0.012-0.002,0.019-0.002c0.009-0.001,0.017-0.001,0.026-0.002c0.007-0.001,0.013-0.001,0.02-0.002
			c0.008-0.001,0.017-0.002,0.024-0.002c0.007-0.001,0.013-0.001,0.02-0.002c0.008-0.001,0.017-0.001,0.025-0.002
			c0.008-0.001,0.017-0.002,0.025-0.002c0.007-0.001,0.013-0.001,0.02-0.002c0.007-0.001,0.013-0.001,0.019-0.002
			c0.009-0.001,0.017-0.001,0.025-0.002c0.007-0.001,0.013-0.001,0.02-0.002c0.008-0.001,0.017-0.002,0.025-0.003
			c0.007,0,0.013-0.001,0.02-0.002c0.008-0.001,0.017-0.001,0.025-0.002c0.006-0.001,0.012-0.002,0.019-0.002
			c0.009,0,0.017-0.001,0.025-0.002c0.009-0.001,0.018-0.001,0.027-0.002c0.006-0.001,0.012-0.001,0.018-0.002
			c0.007-0.001,0.013-0.002,0.019-0.002c0.008-0.001,0.017-0.002,0.025-0.003c0.007,0,0.013-0.001,0.019-0.001
			c0.009-0.001,0.017-0.002,0.026-0.003c0.006-0.001,0.013-0.001,0.02-0.002c0.008-0.001,0.017-0.001,0.024-0.002
			c0.009-0.001,0.018-0.002,0.026-0.003c0.006-0.001,0.012-0.001,0.018-0.002c0.006,0,0.012-0.001,0.019-0.002
			c0.008-0.001,0.017-0.001,0.026-0.002c0.006-0.001,0.013-0.001,0.02-0.002c0.008-0.001,0.017-0.001,0.024-0.002
			c0.007-0.001,0.013-0.001,0.02-0.002c0.008-0.001,0.017-0.002,0.025-0.002c0.007-0.001,0.013-0.001,0.02-0.002
			c0.008,0,0.016-0.001,0.024-0.002c0.009-0.001,0.017-0.002,0.025-0.003c0.006,0,0.013-0.001,0.019-0.002
			c0.007-0.001,0.013-0.001,0.02-0.002c0.008-0.001,0.017-0.001,0.025-0.002c0.006-0.001,0.013-0.001,0.019-0.002
			c0.008-0.001,0.017-0.002,0.025-0.003c0.006,0,0.013-0.001,0.019-0.002c0.009-0.001,0.017-0.001,0.025-0.002
			c0.009-0.001,0.018-0.002,0.027-0.002c0.006-0.001,0.012-0.001,0.018-0.002c0.006,0,0.013-0.001,0.019-0.002
			c0.008-0.001,0.017-0.002,0.025-0.003c0.006,0,0.012-0.001,0.019-0.002c0.009-0.001,0.017-0.002,0.025-0.003
			c0.007,0,0.013-0.001,0.019-0.002c0.009-0.001,0.017-0.002,0.026-0.002c0.007-0.001,0.013-0.002,0.02-0.002
			c0.008-0.001,0.016-0.001,0.024-0.002c0.009-0.001,0.017-0.002,0.025-0.003c0.006-0.001,0.012-0.001,0.019-0.002
			c0.006-0.001,0.012-0.001,0.018-0.002c0.009-0.001,0.018-0.001,0.027-0.002c0.007-0.001,0.014-0.002,0.02-0.002
			c0.008-0.001,0.016-0.002,0.024-0.002c0.007-0.001,0.013-0.001,0.02-0.002c0.008-0.001,0.017-0.001,0.024-0.002
			c0.009-0.001,0.017-0.002,0.025-0.003c0.007,0,0.013-0.001,0.019-0.002c0.006,0,0.012-0.001,0.018-0.001
			c0.009-0.001,0.018-0.002,0.027-0.003c0.007-0.001,0.013-0.001,0.02-0.002c0.009,0,0.017-0.001,0.025-0.002
			c0.007-0.001,0.013-0.001,0.02-0.002c0.008-0.001,0.017-0.002,0.025-0.002c0.006-0.001,0.013-0.001,0.019-0.002
			c0.008-0.001,0.017-0.001,0.025-0.002c0.009-0.001,0.018-0.002,0.027-0.003c0.006,0,0.012-0.001,0.018-0.002
			c0.006,0,0.013-0.001,0.019-0.002c0.008-0.001,0.017-0.001,0.025-0.002c0.006,0,0.013-0.001,0.019-0.002
			c0.008-0.001,0.017-0.002,0.025-0.003c0.007,0,0.013-0.001,0.02-0.002c0.008-0.001,0.016-0.001,0.024-0.002
			c0.009-0.001,0.018-0.002,0.027-0.003c0.006-0.001,0.012-0.001,0.018-0.002c0.006-0.001,0.012-0.001,0.019-0.002
			c0.009-0.001,0.017-0.002,0.026-0.002c0.006-0.001,0.012-0.002,0.019-0.002c0.009-0.001,0.017-0.001,0.025-0.002
			c0.366-0.035,0.737-0.073,1.097-0.115c0.112-0.013,0.224-0.022,0.336-0.035c0.537-0.062,1.06-0.138,1.585-0.213v-0.016
			c8.746-2.001,16.432-4.848,23.41-11.308c3.475-2.973,6.325-7.174,4.723-12.007c-0.715-2.158-2.077-3.027-3.469-3.199
			c-0.011-0.002-0.023-0.003-0.034-0.005c-0.012-0.002-0.023-0.003-0.035-0.005c-0.011-0.001-0.023-0.004-0.035-0.005
			c-0.011-0.002-0.022-0.003-0.034-0.005c-0.012-0.001-0.024-0.003-0.035-0.005c-0.011-0.002-0.022-0.004-0.034-0.005
			c-0.012-0.002-0.023-0.004-0.035-0.006c-0.012-0.001-0.023-0.003-0.035-0.005c-0.011-0.002-0.023-0.004-0.034-0.005
			c-0.012-0.001-0.023-0.003-0.035-0.005c-0.012-0.001-0.023-0.003-0.034-0.005c-0.012-0.002-0.023-0.004-0.035-0.006
			c-0.011-0.001-0.023-0.003-0.034-0.004c-0.012-0.002-0.023-0.004-0.035-0.005c-0.012-0.002-0.023-0.004-0.035-0.005
			c-0.011-0.001-0.023-0.003-0.034-0.005c-0.012-0.002-0.023-0.003-0.034-0.005c-0.012-0.001-0.023-0.003-0.035-0.005
			c-0.012-0.002-0.023-0.004-0.035-0.005c-0.012-0.002-0.023-0.004-0.035-0.006c-0.011-0.001-0.023-0.003-0.034-0.005
			c-0.012-0.002-0.023-0.003-0.035-0.005c-0.012-0.001-0.023-0.003-0.035-0.005c-0.012-0.001-0.023-0.004-0.035-0.005
			c-0.011-0.001-0.023-0.003-0.034-0.005c-0.012-0.001-0.023-0.004-0.035-0.005c-0.011-0.002-0.023-0.004-0.034-0.005
			c-0.012-0.002-0.023-0.003-0.034-0.005c-0.012-0.001-0.023-0.004-0.034-0.005c-0.012-0.002-0.023-0.004-0.035-0.005
			c-0.012-0.002-0.023-0.003-0.035-0.005c-0.011-0.002-0.023-0.004-0.034-0.005c-0.012-0.001-0.023-0.003-0.034-0.005
			c-0.012-0.002-0.024-0.004-0.035-0.005c-0.011-0.002-0.023-0.004-0.034-0.005c-0.011-0.001-0.023-0.003-0.034-0.005
			c-0.012-0.002-0.023-0.004-0.035-0.005c-0.012-0.002-0.023-0.004-0.034-0.005c-0.012-0.002-0.024-0.004-0.035-0.005
			c-0.012-0.001-0.023-0.003-0.035-0.005c-0.012-0.002-0.023-0.003-0.035-0.005c-0.011-0.001-0.023-0.003-0.034-0.005
			c-0.012-0.002-0.023-0.003-0.035-0.005c-0.012-0.001-0.023-0.004-0.035-0.005c-0.012-0.001-0.023-0.003-0.034-0.004
			c-0.011-0.002-0.023-0.004-0.034-0.006c-0.012-0.001-0.023-0.004-0.035-0.005c-0.012-0.002-0.023-0.003-0.034-0.005
			c-0.012-0.001-0.023-0.003-0.034-0.005c-0.012-0.001-0.024-0.004-0.036-0.005c-0.011-0.002-0.023-0.003-0.034-0.005
			c-0.012-0.001-0.023-0.004-0.035-0.005c-0.012-0.002-0.023-0.003-0.035-0.005c-0.011-0.002-0.022-0.003-0.034-0.005
			c-0.012-0.001-0.023-0.004-0.035-0.005c-0.011-0.002-0.023-0.004-0.035-0.006c-0.011-0.001-0.023-0.003-0.034-0.004
			c-0.012-0.002-0.023-0.004-0.035-0.005c-0.011-0.002-0.023-0.003-0.034-0.005c-0.011-0.001-0.023-0.003-0.035-0.005
			c-0.012-0.002-0.023-0.004-0.035-0.005c-0.011-0.001-0.023-0.003-0.035-0.005c-0.011-0.001-0.023-0.003-0.034-0.005
			c-0.012-0.002-0.023-0.004-0.035-0.006c-0.011-0.001-0.023-0.003-0.034-0.004c-0.012-0.002-0.023-0.004-0.035-0.005
			c-0.011-0.002-0.023-0.004-0.034-0.005c-0.012-0.001-0.024-0.004-0.035-0.005c-0.011-0.002-0.023-0.003-0.034-0.005
			c-0.012-0.001-0.023-0.003-0.035-0.005c-0.011-0.002-0.023-0.004-0.034-0.005c-0.012-0.001-0.023-0.003-0.035-0.005
			c-0.011-0.001-0.023-0.004-0.035-0.005c-0.011-0.002-0.023-0.003-0.034-0.005c-0.012-0.001-0.023-0.003-0.035-0.005
			c-0.011-0.001-0.023-0.004-0.034-0.005c-0.012-0.002-0.023-0.004-0.035-0.005c-0.012-0.001-0.023-0.004-0.035-0.005
			c-0.011-0.002-0.023-0.003-0.034-0.005c-0.012-0.001-0.023-0.003-0.035-0.005c-0.012-0.001-0.023-0.003-0.035-0.005
			c-0.011-0.002-0.023-0.004-0.034-0.005c-0.012-0.001-0.023-0.003-0.034-0.005c-0.012-0.002-0.024-0.004-0.035-0.005
			c-0.011-0.002-0.023-0.003-0.034-0.005c-0.012-0.001-0.023-0.003-0.035-0.005c-0.011-0.001-0.023-0.004-0.034-0.005
			c-0.012-0.001-0.023-0.003-0.035-0.005c-0.012-0.001-0.023-0.004-0.035-0.005c-0.011-0.002-0.023-0.004-0.034-0.006
			c-0.011-0.001-0.023-0.003-0.034-0.005c-0.012-0.001-0.023-0.003-0.035-0.005c-0.011-0.001-0.023-0.003-0.034-0.005
			c-0.012-0.001-0.023-0.004-0.035-0.005c-0.011-0.002-0.023-0.003-0.035-0.005c-0.011-0.001-0.023-0.003-0.034-0.005
			c-0.012-0.001-0.023-0.003-0.035-0.005c-0.012-0.002-0.023-0.003-0.034-0.005c-0.012-0.001-0.023-0.004-0.034-0.005
			c-0.012-0.002-0.024-0.004-0.036-0.005c-0.011-0.001-0.023-0.003-0.034-0.005c-0.012-0.001-0.023-0.004-0.035-0.005
			c-0.012-0.002-0.023-0.004-0.034-0.006c-0.012-0.001-0.023-0.003-0.034-0.005c-0.012-0.002-0.024-0.004-0.035-0.005
			c-0.011-0.002-0.023-0.003-0.034-0.005c-0.012-0.001-0.023-0.003-0.035-0.005c-0.011-0.002-0.023-0.004-0.034-0.005
			c-0.011-0.001-0.023-0.003-0.034-0.005c-0.012-0.002-0.023-0.004-0.035-0.005c-1.129-0.148-2.281,0.147-3.151,0.597
			c-2.698,1.396-4.697,4.13-3.38,8.094c0.039,0.119,0.076,0.24,0.114,0.361c0.258,0.992,0.607,3.862-2.921,6.36
			c-0.133,0.079-0.265,0.16-0.398,0.236c-0.105,0.085-0.216,0.165-0.329,0.242c-0.249,0.15-0.518,0.3-0.798,0.444
			c-1.662,0.851-3.375,1.579-5.068,2.227c-1.048,0.401-1.718,0.627-1.718,0.627c0.001-0.001,0.001-0.002,0.001-0.003
			c-2.774,0.932-5.477,1.556-8.312,1.888c-0.286,0.033-0.562,0.046-0.846,0.074c-26.573-0.229-40.488-25.462-40.433-54.431
			C52.617,50.854,68.11,20.175,95.215,17.26c4.59-0.494,10.245,0.181,14.597,2.915c0.454,0.663,0.877,1.361,1.228,2.132
			c0.002-0.007,0.005-0.014,0.008-0.021c0.009,0.02,0.021,0.037,0.03,0.056c0.002-0.007,0.006-0.014,0.008-0.021
			c0.009,0.02,0.021,0.037,0.03,0.056c0.002-0.007,0.006-0.014,0.008-0.021c0.009,0.02,0.021,0.037,0.03,0.056
			c0.003-0.007,0.006-0.014,0.008-0.021c0.009,0.02,0.021,0.037,0.03,0.056c0.002-0.007,0.006-0.014,0.008-0.021
			c0.009,0.02,0.021,0.037,0.03,0.056c0.002-0.007,0.005-0.014,0.008-0.021c0.009,0.02,0.021,0.036,0.03,0.056
			c0.002-0.007,0.005-0.014,0.008-0.021c0.009,0.02,0.021,0.037,0.03,0.056c0.002-0.007,0.006-0.014,0.008-0.021
			c0.009,0.02,0.021,0.036,0.03,0.056c0.002-0.007,0.005-0.014,0.008-0.021c0.009,0.02,0.021,0.037,0.03,0.056
			c0.002-0.007,0.006-0.014,0.008-0.021c0.009,0.02,0.02,0.037,0.03,0.056c0.002-0.007,0.006-0.014,0.008-0.021
			c0.009,0.02,0.021,0.037,0.03,0.057c0.003-0.007,0.006-0.014,0.008-0.021c0.009,0.019,0.021,0.037,0.03,0.056
			c0.002-0.007,0.006-0.014,0.008-0.021c0.009,0.02,0.021,0.037,0.03,0.056c0.002-0.007,0.005-0.014,0.008-0.021
			c0.009,0.02,0.021,0.037,0.03,0.056c0.002-0.007,0.005-0.014,0.008-0.021c0.009,0.02,0.021,0.037,0.03,0.057
			c0.002-0.007,0.006-0.014,0.008-0.021c0.009,0.019,0.021,0.037,0.03,0.056c0.002-0.007,0.005-0.014,0.008-0.021
			c0.009,0.02,0.021,0.037,0.03,0.056c0.003-0.007,0.006-0.014,0.008-0.021c0.009,0.02,0.021,0.037,0.03,0.056
			c0.002-0.007,0.006-0.014,0.008-0.021c0.009,0.02,0.021,0.037,0.03,0.056c0.002-0.007,0.005-0.014,0.008-0.021
			c0.009,0.02,0.021,0.037,0.03,0.057c0.002-0.007,0.006-0.014,0.008-0.021c0.009,0.019,0.021,0.037,0.03,0.056
			c0.002-0.007,0.005-0.014,0.008-0.021c0.009,0.02,0.021,0.037,0.03,0.057c0.002-0.007,0.005-0.014,0.008-0.021
			c0.009,0.02,0.021,0.036,0.03,0.056c0.002-0.007,0.006-0.014,0.008-0.021c0.009,0.02,0.021,0.037,0.03,0.057
			c0.002-0.007,0.005-0.014,0.008-0.021c0.009,0.02,0.021,0.036,0.03,0.056c0.003-0.007,0.006-0.014,0.008-0.021
			c0.009,0.02,0.021,0.037,0.03,0.056c0.002-0.007,0.006-0.014,0.008-0.021c0.009,0.02,0.021,0.037,0.03,0.056
			c0.002-0.007,0.005-0.014,0.008-0.021c0.009,0.02,0.021,0.037,0.03,0.056c0.002-0.007,0.006-0.014,0.008-0.021
			c0.009,0.02,0.021,0.037,0.03,0.057c0.002-0.007,0.005-0.014,0.008-0.021c0.009,0.02,0.021,0.037,0.03,0.056
			c0.002-0.007,0.005-0.014,0.008-0.021c0.009,0.02,0.021,0.036,0.03,0.056c0.002-0.007,0.006-0.014,0.008-0.021
			c0.009,0.02,0.021,0.037,0.03,0.056c0.003-0.007,0.006-0.014,0.008-0.021c0.009,0.02,0.021,0.037,0.03,0.057
			c0.002-0.007,0.006-0.014,0.008-0.021c0.009,0.02,0.021,0.037,0.03,0.056c0.002-0.007,0.005-0.014,0.008-0.021
			c0.009,0.019,0.021,0.037,0.03,0.056c0.002-0.007,0.005-0.014,0.008-0.021c0.01,0.02,0.021,0.037,0.03,0.056
			c0.002-0.007,0.006-0.014,0.008-0.021c0.009,0.02,0.021,0.037,0.03,0.056c0.002-0.007,0.005-0.014,0.008-0.021
			c0.009,0.02,0.021,0.037,0.03,0.056c0.002-0.007,0.005-0.014,0.008-0.021c0.009,0.02,0.021,0.037,0.03,0.057
			c0.002-0.007,0.006-0.014,0.008-0.021c0.009,0.02,0.021,0.037,0.03,0.056c0.003-0.007,0.006-0.014,0.008-0.021
			c0.009,0.02,0.021,0.037,0.03,0.057c0.002-0.007,0.006-0.014,0.008-0.021c0.009,0.02,0.02,0.037,0.03,0.056
			c0.002-0.007,0.005-0.014,0.008-0.021c0.009,0.02,0.021,0.037,0.03,0.056c0.002-0.007,0.005-0.014,0.008-0.021
			c0.009,0.02,0.021,0.037,0.03,0.056c0.002-0.007,0.006-0.014,0.008-0.021c0.009,0.02,0.021,0.037,0.03,0.056
			c0.002-0.007,0.005-0.014,0.008-0.021c0.009,0.02,0.021,0.037,0.03,0.056c0.003-0.007,0.006-0.014,0.008-0.021
			c0.009,0.02,0.021,0.037,0.03,0.056c0.003-0.007,0.006-0.014,0.008-0.021c0.009,0.02,0.021,0.037,0.03,0.057
			c0.002-0.007,0.005-0.014,0.008-0.021c0.009,0.02,0.021,0.037,0.03,0.057c0.002-0.007,0.006-0.014,0.008-0.021
			c0.009,0.02,0.021,0.036,0.03,0.056c0.002-0.007,0.005-0.014,0.008-0.021c0.009,0.02,0.021,0.037,0.03,0.056
			c0.002-0.007,0.005-0.014,0.008-0.021c0.009,0.02,0.021,0.037,0.03,0.057c0.002-0.007,0.006-0.014,0.008-0.021
			c0.009,0.02,0.021,0.037,0.03,0.056c0.003-0.007,0.006-0.014,0.008-0.021c0.009,0.02,0.021,0.037,0.03,0.056
			c0.003-0.007,0.006-0.014,0.008-0.021c0.009,0.02,0.021,0.037,0.03,0.056c0.003-0.007,0.006-0.014,0.008-0.021
			c0.009,0.02,0.021,0.037,0.03,0.057c0.002-0.007,0.005-0.014,0.008-0.021c0.009,0.02,0.021,0.037,0.03,0.056
			c0.002-0.007,0.006-0.014,0.008-0.021c0.009,0.02,0.021,0.037,0.03,0.056c0.002-0.007,0.005-0.014,0.008-0.021
			c0.009,0.02,0.021,0.037,0.03,0.056c0.002-0.007,0.005-0.014,0.008-0.021c0.009,0.02,0.021,0.037,0.03,0.056
			c0.002-0.007,0.006-0.014,0.008-0.021c0.009,0.02,0.021,0.037,0.03,0.056c0.003-0.007,0.006-0.014,0.008-0.021
			c0.009,0.019,0.021,0.037,0.03,0.056c0.002-0.007,0.006-0.014,0.008-0.021c0.009,0.02,0.021,0.037,0.03,0.056
			c0.002-0.007,0.006-0.014,0.008-0.021c0.009,0.02,0.021,0.037,0.03,0.057c0.002-0.007,0.005-0.014,0.008-0.021
			c0.01,0.02,0.021,0.037,0.03,0.056c0.002-0.007,0.006-0.014,0.008-0.021c0.009,0.02,0.021,0.036,0.03,0.056
			c0.002-0.007,0.005-0.014,0.008-0.021c0.009,0.02,0.021,0.037,0.03,0.056c0.002-0.007,0.005-0.014,0.008-0.021
			c0.009,0.02,0.021,0.037,0.03,0.057c0.002-0.007,0.006-0.014,0.008-0.021c0.009,0.019,0.02,0.036,0.03,0.056
			c0.003-0.007,0.006-0.014,0.008-0.021c0.009,0.02,0.021,0.037,0.03,0.056c0.002-0.007,0.006-0.014,0.008-0.021
			c0.009,0.019,0.021,0.037,0.03,0.056c0.002-0.007,0.006-0.014,0.008-0.021c0.009,0.02,0.021,0.037,0.03,0.057
			c0.002-0.007,0.005-0.014,0.008-0.021c0.009,0.02,0.021,0.036,0.03,0.056c0.002-0.007,0.006-0.014,0.008-0.021
			c0.009,0.02,0.021,0.037,0.03,0.056c0.002-0.007,0.006-0.014,0.008-0.021c0.009,0.02,0.021,0.037,0.03,0.057
			c0.003-0.007,0.006-0.014,0.008-0.021c0.009,0.02,0.021,0.037,0.03,0.056c0.003-0.007,0.006-0.014,0.008-0.021
			c0.009,0.02,0.02,0.037,0.03,0.057c0.002-0.007,0.005-0.014,0.008-0.021c0.009,0.02,0.021,0.037,0.03,0.056
			c0.002-0.007,0.005-0.014,0.008-0.021c0.009,0.02,0.021,0.037,0.03,0.056c0.002-0.007,0.006-0.014,0.008-0.021
			c0.009,0.02,0.021,0.037,0.03,0.056c0.002-0.007,0.005-0.014,0.008-0.021c0.009,0.02,0.021,0.037,0.03,0.056
			c0.002-0.007,0.006-0.014,0.008-0.021c0.009,0.02,0.021,0.037,0.03,0.056c0.002-0.007,0.006-0.014,0.008-0.021
			c0.009,0.02,0.021,0.037,0.03,0.056c0.003-0.007,0.006-0.014,0.008-0.021c0.009,0.02,0.021,0.037,0.03,0.056
			c0.003-0.007,0.006-0.014,0.008-0.021c0.009,0.02,0.02,0.037,0.03,0.056c0.002-0.007,0.005-0.014,0.008-0.021
			c0.009,0.02,0.021,0.037,0.03,0.057c0.002-0.007,0.005-0.014,0.008-0.021c0.009,0.02,0.021,0.037,0.03,0.056
			c0.002-0.007,0.006-0.014,0.008-0.021c0.009,0.02,0.021,0.037,0.03,0.056c0.002-0.007,0.005-0.014,0.008-0.021
			c0.009,0.02,0.021,0.037,0.03,0.056c0.002-0.007,0.005-0.014,0.008-0.021c0.009,0.02,0.021,0.037,0.03,0.056
			c0.003-0.007,0.006-0.014,0.008-0.021c0.009,0.02,0.021,0.037,0.03,0.057c0.002-0.007,0.006-0.014,0.008-0.021
			c0.009,0.019,0.021,0.036,0.03,0.056c0.002-0.007,0.006-0.014,0.008-0.021c0.009,0.02,0.021,0.037,0.03,0.056
			c0.002-0.007,0.005-0.014,0.008-0.021c0.009,0.02,0.021,0.037,0.03,0.057c0.002-0.007,0.005-0.014,0.008-0.021
			c0.009,0.02,0.021,0.037,0.03,0.056c0.002-0.007,0.006-0.014,0.008-0.021c0.009,0.02,0.021,0.037,0.03,0.056
			c0.002-0.007,0.005-0.014,0.008-0.021c0.009,0.019,0.021,0.037,0.03,0.056c0.003-0.007,0.006-0.014,0.008-0.021
			c0.009,0.02,0.021,0.037,0.03,0.057c0.003-0.007,0.006-0.014,0.008-0.021c0.009,0.02,0.021,0.037,0.03,0.056
			c0.002-0.007,0.006-0.014,0.008-0.021c0.009,0.02,0.021,0.037,0.03,0.057c0.002-0.007,0.006-0.014,0.008-0.021
			c0.009,0.02,0.021,0.037,0.03,0.056c0.002-0.007,0.005-0.014,0.008-0.021c0.009,0.02,0.021,0.037,0.03,0.057
			c0.002-0.007,0.005-0.014,0.008-0.021c0.009,0.019,0.021,0.037,0.03,0.056c0.002-0.007,0.006-0.014,0.008-0.021
			c0.009,0.02,0.021,0.037,0.03,0.056c0.003-0.007,0.006-0.014,0.008-0.021c0.009,0.02,0.021,0.037,0.03,0.056
			c0.003-0.007,0.006-0.014,0.008-0.021c0.009,0.02,0.021,0.037,0.03,0.056c0.002-0.007,0.006-0.014,0.008-0.021
			c0.009,0.02,0.021,0.037,0.03,0.056c0.002-0.007,0.005-0.014,0.008-0.021c0.009,0.019,0.021,0.036,0.03,0.056
			c0.002-0.007,0.006-0.014,0.008-0.021c0.009,0.02,0.021,0.037,0.03,0.057c0.002-0.007,0.005-0.014,0.008-0.021
			c0.009,0.02,0.021,0.037,0.03,0.056c0.002-0.007,0.005-0.014,0.008-0.021c0.009,0.02,0.021,0.037,0.03,0.056
			c2.21-6.226,6.312-12.803,12.668-14.069c-0.273-0.941-0.655-1.684-1.121-2.26c-0.011-0.014-0.022-0.028-0.033-0.041
			c-0.011-0.014-0.022-0.028-0.034-0.042c-0.011-0.014-0.022-0.027-0.034-0.041c-0.011-0.014-0.022-0.028-0.033-0.041
			c-0.011-0.014-0.022-0.028-0.034-0.042c-0.011-0.014-0.022-0.027-0.033-0.041c-0.011-0.014-0.023-0.028-0.034-0.042
			c-0.011-0.014-0.022-0.027-0.033-0.041c-0.011-0.014-0.022-0.028-0.034-0.041c-0.011-0.014-0.022-0.027-0.033-0.041
			c-0.011-0.014-0.023-0.028-0.034-0.042c-0.011-0.013-0.022-0.027-0.033-0.041c-0.011-0.014-0.022-0.028-0.033-0.041
			c-0.011-0.014-0.023-0.028-0.034-0.041c-0.011-0.014-0.022-0.027-0.033-0.041c-0.011-0.014-0.023-0.028-0.034-0.041
			c-0.011-0.014-0.022-0.027-0.033-0.041c-0.011-0.014-0.022-0.028-0.034-0.042c-0.011-0.014-0.022-0.027-0.033-0.041
			c-0.011-0.014-0.022-0.028-0.034-0.041c-0.011-0.014-0.022-0.028-0.033-0.041c-0.011-0.014-0.022-0.027-0.034-0.041
			c-0.011-0.013-0.022-0.027-0.033-0.041c-0.011-0.014-0.023-0.028-0.034-0.041c-0.011-0.014-0.022-0.027-0.033-0.041
			c-0.011-0.014-0.022-0.027-0.034-0.042c-0.011-0.013-0.022-0.027-0.033-0.04c-0.011-0.014-0.023-0.028-0.034-0.042
			c-0.011-0.014-0.022-0.028-0.033-0.041c-0.011-0.014-0.022-0.027-0.033-0.041c-0.011-0.014-0.023-0.028-0.034-0.041
			c-0.011-0.014-0.022-0.027-0.033-0.041c-0.011-0.014-0.022-0.028-0.034-0.042c-0.011-0.014-0.022-0.028-0.034-0.041
			c-0.011-0.014-0.022-0.027-0.033-0.041c-0.011-0.014-0.022-0.027-0.033-0.041c-0.011-0.014-0.022-0.027-0.034-0.041
			c-0.011-0.014-0.022-0.027-0.033-0.041c-0.011-0.014-0.022-0.028-0.034-0.042c-0.011-0.014-0.022-0.027-0.033-0.041
			c-0.011-0.014-0.023-0.028-0.034-0.042c-0.011-0.014-0.022-0.027-0.034-0.041c-0.011-0.014-0.022-0.027-0.034-0.041
			c-0.011-0.014-0.022-0.027-0.033-0.041c-0.011-0.014-0.023-0.028-0.034-0.041c-0.011-0.014-0.022-0.027-0.033-0.041
			c-0.011-0.014-0.022-0.028-0.033-0.041c-0.011-0.014-0.022-0.028-0.034-0.041c-0.011-0.014-0.022-0.028-0.034-0.042
			c-0.011-0.014-0.022-0.027-0.033-0.041c-0.011-0.014-0.023-0.028-0.034-0.042c-0.011-0.014-0.022-0.027-0.033-0.041
			c-0.011-0.014-0.022-0.027-0.033-0.041c-0.011-0.014-0.022-0.028-0.034-0.042c-0.011-0.013-0.022-0.027-0.033-0.041
			c-0.011-0.014-0.022-0.028-0.033-0.041c-0.011-0.014-0.022-0.027-0.033-0.041c-0.011-0.014-0.023-0.027-0.034-0.041
			c-0.011-0.014-0.022-0.027-0.034-0.041c-0.011-0.014-0.022-0.028-0.034-0.042c-0.011-0.014-0.022-0.027-0.033-0.041
			c-0.011-0.014-0.023-0.028-0.034-0.041c-0.011-0.014-0.022-0.028-0.033-0.042c-0.011-0.014-0.022-0.027-0.033-0.041
			c-0.011-0.014-0.022-0.027-0.034-0.041c-0.011-0.014-0.022-0.028-0.034-0.041c-0.011-0.014-0.022-0.027-0.033-0.041
			c-0.011-0.013-0.022-0.027-0.033-0.041c-0.011-0.014-0.023-0.028-0.034-0.041c-0.011-0.014-0.022-0.028-0.033-0.041
			c-0.011-0.014-0.023-0.028-0.034-0.041c-0.011-0.014-0.022-0.028-0.033-0.041c-0.011-0.014-0.022-0.027-0.033-0.04
			c-0.011-0.015-0.023-0.028-0.034-0.042c-0.011-0.014-0.023-0.027-0.034-0.041c-0.011-0.014-0.022-0.027-0.033-0.041
			c-0.011-0.014-0.022-0.027-0.034-0.041c-0.011-0.014-0.022-0.027-0.033-0.041c-0.011-0.014-0.023-0.027-0.034-0.041
			c-0.011-0.014-0.022-0.028-0.033-0.042c-0.011-0.014-0.022-0.027-0.033-0.041c-0.011-0.014-0.022-0.027-0.034-0.041
			c-0.011-0.014-0.022-0.028-0.034-0.041c-0.011-0.014-0.022-0.027-0.033-0.041c-0.011-0.014-0.022-0.028-0.033-0.041
			c-0.011-0.014-0.023-0.028-0.034-0.041c-0.011-0.014-0.022-0.028-0.033-0.041c-0.011-0.014-0.022-0.028-0.034-0.042
			c-0.011-0.014-0.022-0.027-0.034-0.041c-0.011-0.014-0.022-0.027-0.033-0.041c-0.011-0.014-0.022-0.028-0.033-0.042
			c-0.011-0.014-0.023-0.027-0.034-0.041c-0.011-0.014-0.022-0.027-0.033-0.041c-0.011-0.014-0.023-0.028-0.034-0.042
			c-0.011-0.014-0.022-0.027-0.033-0.041c-0.011-0.014-0.022-0.027-0.033-0.041c-0.011-0.014-0.023-0.028-0.034-0.041
			c-0.011-0.014-0.023-0.028-0.034-0.041c-0.011-0.014-0.022-0.027-0.033-0.041c-0.011-0.014-0.022-0.028-0.034-0.041
			c-0.011-0.014-0.022-0.028-0.033-0.041c-0.011-0.014-0.022-0.027-0.033-0.041c-0.011-0.014-0.023-0.028-0.034-0.042
			c-0.011-0.014-0.022-0.027-0.033-0.041c-0.011-0.014-0.022-0.027-0.033-0.041c-0.011-0.014-0.022-0.028-0.034-0.042
			c-0.011-0.014-0.022-0.028-0.034-0.041c-0.011-0.014-0.022-0.028-0.033-0.041c-0.011-0.014-0.022-0.027-0.033-0.041
			c-0.011-0.014-0.023-0.027-0.033-0.041c-1.003-1.27-2.389-1.772-3.919-1.772C115.631,3.61,111.343,6.27,109.199,8.341"/>
		
			<linearGradient id="SVGID_00000130632336838440925300000009300867103775013249_" gradientUnits="userSpaceOnUse" x1="69.9324" y1="5.4523" x2="70.717" y2="140.3892">
			<stop  offset="8.236148e-04" style="stop-color:#F7EC77"/>
			<stop  offset="0.322" style="stop-color:#F8B942"/>
			<stop  offset="0.6426" style="stop-color:#9A5712"/>
			<stop  offset="1" style="stop-color:#904E0D"/>
		</linearGradient>
		<path fill="url(#SVGID_00000130632336838440925300000009300867103775013249_)" d="M109.199,8.342
			c-0.01,0.01-0.021,0.02-0.032,0.03c-6.285-2.065-11.991-2.373-15.472-2.227c-1.097,0.046-2.319,0.154-3.673,0.314
			C73.549,8.411,58.446,18,47.54,31.657c-9.58,11.996-16.122,27.266-17.317,43.338c-1.187-0.372-2.647-0.525-4.444-0.223
			c-6.666,1.12-9.662,6.825-9.662,6.825c8.959,0.446,14.22,11.223,16.724,19.528c0-0.002,0-0.003,0-0.006
			c2.975,9.953,8.384,19.53,15.827,26.043c11.462,10.029,26.581,14.171,41.095,13.05c0,0.008-0.001,0.012-0.001,0.019
			c0.38-0.03,0.751-0.073,1.126-0.11c0.038-0.004,0.077-0.008,0.115-0.011c0.38-0.037,0.765-0.076,1.14-0.119
			c0.116-0.013,0.233-0.023,0.349-0.036c0.558-0.065,1.102-0.144,1.647-0.221v-0.016c9.087-2.079,17.073-5.037,24.324-11.75
			c3.611-3.09,6.572-7.455,4.908-12.476c-1.318-3.974-4.744-3.744-6.721-2.721c-2.698,1.395-4.697,4.13-3.38,8.093
			c0.04,0.119,0.076,0.24,0.114,0.36c0.258,0.992,0.606,3.862-2.921,6.361c-0.133,0.078-0.265,0.16-0.398,0.236
			c-0.105,0.086-0.216,0.165-0.329,0.242c-0.249,0.15-0.519,0.301-0.798,0.444c-1.662,0.851-3.375,1.579-5.068,2.226
			c-1.048,0.401-1.718,0.627-1.718,0.627c0.001-0.001,0.001-0.002,0.001-0.003c-2.774,0.932-5.477,1.556-8.312,1.888
			c-31.443,3.683-47.962-24.061-47.9-56.234c0.055-29.127,16.153-61.004,44.317-64.033c7.251-0.78,17.078,1.213,20.781,9.33
			c2.297-6.469,6.558-13.303,13.163-14.618c-0.87-2.999-2.804-4.079-5.048-4.08C115.632,3.609,111.343,6.27,109.199,8.342"/>
		
			<linearGradient id="SVGID_00000126293899023538358990000006289360739959153071_" gradientUnits="userSpaceOnUse" x1="70.1603" y1="140.0594" x2="70.1603" y2="4.7303">
			<stop  offset="0" style="stop-color:#C37D2C"/>
			<stop  offset="5.327790e-07" style="stop-color:#C37D2C"/>
			<stop  offset="0.251" style="stop-color:#C47F2D"/>
			<stop  offset="0.3413" style="stop-color:#C8862F"/>
			<stop  offset="0.4055" style="stop-color:#CE9132"/>
			<stop  offset="0.4117" style="stop-color:#CF9333"/>
			<stop  offset="0.4378" style="stop-color:#CD9133"/>
			<stop  offset="0.4472" style="stop-color:#C78A31"/>
			<stop  offset="0.4539" style="stop-color:#BC7F2E"/>
			<stop  offset="0.4593" style="stop-color:#AC6E29"/>
			<stop  offset="0.464" style="stop-color:#975824"/>
			<stop  offset="0.468" style="stop-color:#7D3D1D"/>
			<stop  offset="0.4716" style="stop-color:#601E15"/>
			<stop  offset="0.4717" style="stop-color:#5F1D15"/>
			<stop  offset="0.4745" style="stop-color:#74341B"/>
			<stop  offset="0.4787" style="stop-color:#8C4F23"/>
			<stop  offset="0.4834" style="stop-color:#A06529"/>
			<stop  offset="0.489" style="stop-color:#AF762D"/>
			<stop  offset="0.4959" style="stop-color:#BA8131"/>
			<stop  offset="0.5056" style="stop-color:#C08832"/>
			<stop  offset="0.5324" style="stop-color:#C28A33"/>
			<stop  offset="0.6469" style="stop-color:#FBD06E"/>
			<stop  offset="0.8525" style="stop-color:#FBD06E"/>
			<stop  offset="0.9061" style="stop-color:#DBBD35"/>
			<stop  offset="0.9336" style="stop-color:#A6892E"/>
			<stop  offset="1" style="stop-color:#A48C2F"/>
		</linearGradient>
		<path fill="url(#SVGID_00000126293899023538358990000006289360739959153071_)" d="M109.673,9.099
			c0.486-0.371,0.92-0.829,1.41-1.201c1.183-0.899,2.457-1.688,3.788-2.283c2.269-1.015,5.595-1.984,7.519,0.307
			c0.275,0.328,0.494,0.705,0.673,1.105c-5.811,1.67-9.732,7.347-12.143,13.247c-3.329-5.43-9.486-7.759-15.227-8.269
			c-6.408-0.57-13.015,1.067-18.865,3.922c-5.759,2.81-10.907,7.065-15.177,12.173c-4.366,5.222-7.862,11.308-10.484,17.798
			c-2.653,6.568-4.465,13.543-5.37,20.67c-0.908,7.152-0.9,14.406-0.028,21.562c0.827,6.779,2.471,13.439,5.103,19.637
			c2.449,5.767,5.806,11.112,10.056,15.426c4.254,4.317,9.348,7.528,14.874,9.36c6.44,2.135,13.343,2.421,19.971,1.349
			c2.223-0.359,4.412-0.922,6.563-1.637c0.013-0.004,0.025-0.006,0.038-0.01c1.802-0.61,3.582-1.333,5.32-2.139
			c1.997-0.925,4.063-1.975,5.43-3.912c0.808-1.144,1.318-2.566,1.238-4.037c-0.083-1.52-0.852-2.841-0.629-4.408
			c0.287-2.014,1.767-3.357,3.339-4.188c1.797-0.907,4.07-0.669,5.14,1.351c1.579,2.981,0.619,6.534-1.206,9.061
			c-1.003,1.388-2.218,2.504-3.453,3.625c-1.324,1.202-2.72,2.305-4.169,3.313c-2.732,1.899-5.654,3.436-8.684,4.652
			c-3.508,1.408-7.133,2.415-10.782,3.253c-0.017,0.004-0.033,0.012-0.05,0.018c-1.327,0.184-2.658,0.335-3.991,0.452
			c-0.038-0.005-0.075-0.011-0.113-0.008c-9.3,0.702-18.739-0.713-27.427-4.513c-8.649-3.783-16.32-9.978-21.695-18.442
			c-3.006-4.735-5.345-9.968-6.995-15.458c-0.003-0.012-0.009-0.021-0.012-0.032c-1.104-3.638-2.518-7.202-4.407-10.427
			c-1.893-3.23-4.328-6.249-7.449-8.045c-0.721-0.415-1.467-0.756-2.233-1.021c-0.63-0.218-1.274-0.386-1.928-0.502
			c0.66-0.89,1.484-1.727,2.357-2.433c0.297-0.241,0.606-0.47,0.924-0.687c1.18-0.805,2.494-1.437,3.855-1.813
			c0.809-0.223,1.635-0.356,2.46-0.382c0.938-0.029,1.876,0.082,2.787,0.357c0.559,0.169,1.013-0.301,1.058-0.893
			c0.131-1.721,0.323-3.434,0.576-5.136c0.3-2.025,0.685-4.034,1.148-6.02c0.732-3.134,1.66-6.211,2.766-9.209
			c1.106-2.998,2.389-5.918,3.829-8.735c3.661-7.161,8.326-13.681,13.77-19.274c1.167-1.199,2.369-2.355,3.605-3.465
			c1.637-1.471,3.336-2.86,5.089-4.159c1.533-1.136,3.107-2.203,4.719-3.196c4.262-2.627,8.782-4.736,13.468-6.227
			c8.438-2.684,17.272-3.353,25.866-1.192c0.639,0.161,1.275,0.335,1.907,0.524c0.404,0.121,0.882,0.37,1.322,0.37
			C109.318,9.277,109.504,9.228,109.673,9.099 M109.199,8.342c-0.01,0.01-0.021,0.02-0.032,0.03
			c-6.285-2.065-11.991-2.373-15.472-2.227c-1.097,0.046-2.319,0.154-3.673,0.314c-8.429,0.999-16.499,3.996-23.831,8.515
			c-2.723,1.678-5.345,3.567-7.846,5.64c-3.925,3.255-7.552,6.967-10.806,11.041c-9.58,11.996-16.122,27.266-17.317,43.338
			c-0.837-0.262-1.809-0.416-2.938-0.378c-0.474,0.016-0.975,0.065-1.506,0.155c-1.406,0.236-2.649,0.677-3.735,1.224
			c-4.061,2.049-5.927,5.601-5.927,5.601c8.959,0.446,14.22,11.223,16.724,19.528c0-0.002,0-0.003,0-0.006
			c2.975,9.953,8.384,19.53,15.827,26.043c11.462,10.029,26.581,14.17,41.095,13.05c0,0.008-0.001,0.012-0.001,0.019
			c0.38-0.03,0.751-0.073,1.126-0.11c0.038-0.004,0.077-0.008,0.115-0.012c0.38-0.036,0.765-0.076,1.14-0.119
			c0.116-0.013,0.233-0.023,0.349-0.036c0.558-0.065,1.102-0.144,1.647-0.221v-0.016c9.087-2.079,17.073-5.037,24.324-11.75
			c3.611-3.09,6.572-7.455,4.908-12.476c-1.318-3.974-4.744-3.744-6.721-2.722c-2.698,1.395-4.697,4.13-3.38,8.094
			c0.04,0.119,0.076,0.24,0.114,0.36c0.258,0.992,0.606,3.862-2.921,6.361c-0.133,0.078-0.265,0.16-0.398,0.236
			c-0.105,0.086-0.216,0.165-0.329,0.242c-0.249,0.15-0.518,0.301-0.798,0.444c-1.662,0.851-3.375,1.579-5.068,2.226
			c-1.048,0.401-1.718,0.627-1.718,0.627c0.001-0.001,0.001-0.002,0.001-0.003c-2.774,0.932-5.477,1.556-8.312,1.888
			c-31.443,3.683-47.962-24.061-47.9-56.234c0.055-29.127,16.153-61.004,44.317-64.034c7.251-0.78,17.078,1.213,20.781,9.331
			c2.297-6.469,6.558-13.303,13.163-14.618c-0.87-2.999-2.804-4.079-5.048-4.079C115.632,3.609,111.343,6.27,109.199,8.342"/>
		
			<linearGradient id="SVGID_00000067924474843681154620000006168039999926840466_" gradientUnits="userSpaceOnUse" x1="109.199" y1="6.4412" x2="124.2031" y2="6.4412">
			<stop  offset="0" style="stop-color:#A68A2F"/>
			<stop  offset="1.793480e-07" style="stop-color:#A68A2F"/>
			<stop  offset="0.0719" style="stop-color:#DCC452"/>
			<stop  offset="0.0929" style="stop-color:#E7D269"/>
			<stop  offset="0.1172" style="stop-color:#F1DE7B"/>
			<stop  offset="0.1425" style="stop-color:#F6E586"/>
			<stop  offset="0.1699" style="stop-color:#F8E78A"/>
			<stop  offset="0.244" style="stop-color:#E4CE59"/>
			<stop  offset="0.2869" style="stop-color:#D7BE3B"/>
			<stop  offset="0.3387" style="stop-color:#D1B83A"/>
			<stop  offset="0.4061" style="stop-color:#C1A835"/>
			<stop  offset="0.4819" style="stop-color:#A68D2F"/>
			<stop  offset="0.4875" style="stop-color:#A48B2E"/>
			<stop  offset="0.7505" style="stop-color:#A48B2E"/>
			<stop  offset="0.8075" style="stop-color:#CCB554"/>
			<stop  offset="0.8308" style="stop-color:#DAC66A"/>
			<stop  offset="0.8615" style="stop-color:#E7D67F"/>
			<stop  offset="0.8956" style="stop-color:#F1E18E"/>
			<stop  offset="0.9354" style="stop-color:#F6E897"/>
			<stop  offset="0.9944" style="stop-color:#F8EA9A"/>
			<stop  offset="1" style="stop-color:#F8EA9A"/>
		</linearGradient>
		<path fill="url(#SVGID_00000067924474843681154620000006168039999926840466_)" d="M109.199,8.342v0.931
			c0.167-0.012,0.327-0.061,0.474-0.174c0.229-0.175,0.447-0.369,0.664-0.564c0.244-0.219,0.487-0.44,0.746-0.637
			c0.678-0.515,1.386-0.994,2.118-1.422c0.545-0.318,1.102-0.607,1.67-0.861c0.473-0.211,0.991-0.421,1.533-0.599
			c0.542-0.178,1.108-0.326,1.675-0.413c0.794-0.122,1.592-0.127,2.33,0.067c0.309,0.081,0.609,0.196,0.893,0.353
			c0.395,0.217,0.761,0.511,1.088,0.9c0.275,0.328,0.494,0.705,0.673,1.105l1.14,0.662c-0.196-0.675-0.446-1.254-0.741-1.744
			c-0.258-0.429-0.551-0.79-0.872-1.091c-0.436-0.408-0.925-0.704-1.452-0.905c-0.287-0.109-0.586-0.19-0.893-0.246
			c-0.352-0.063-0.716-0.093-1.089-0.093c-0.419,0-0.85,0.038-1.286,0.108c-0.565,0.09-1.139,0.235-1.713,0.422
			c-0.823,0.268-1.645,0.622-2.434,1.028c-0.648,0.333-1.273,0.701-1.859,1.085c-0.63,0.412-1.214,0.842-1.731,1.265
			C109.789,7.797,109.476,8.075,109.199,8.342"/>
		
			<linearGradient id="SVGID_00000067233154899082835350000015401484384407191210_" gradientUnits="userSpaceOnUse" x1="84.5252" y1="11.4322" x2="85.1136" y2="148.3304">
			<stop  offset="0" style="stop-color:#F6EAA6"/>
			<stop  offset="0.0907" style="stop-color:#F6E79D"/>
			<stop  offset="0.2411" style="stop-color:#F7E083"/>
			<stop  offset="0.2579" style="stop-color:#F7DF80"/>
			<stop  offset="0.2954" style="stop-color:#F4DA77"/>
			<stop  offset="0.3575" style="stop-color:#EDCD5D"/>
			<stop  offset="0.4134" style="stop-color:#E5BE41"/>
			<stop  offset="0.485" style="stop-color:#D4A83C"/>
			<stop  offset="0.6338" style="stop-color:#A76F30"/>
			<stop  offset="0.6427" style="stop-color:#A46B2F"/>
			<stop  offset="0.768" style="stop-color:#A46B2F"/>
			<stop  offset="0.8652" style="stop-color:#946228"/>
			<stop  offset="0.9944" style="stop-color:#320205"/>
			<stop  offset="1" style="stop-color:#320205"/>
		</linearGradient>
		<path fill="url(#SVGID_00000067233154899082835350000015401484384407191210_)" d="M110.919,20.274
			c-3.329-5.43-9.486-7.759-15.227-8.269c-6.408-0.57-13.015,1.067-18.865,3.922c-5.759,2.81-10.907,7.065-15.177,12.173
			c-4.366,5.222-7.862,11.308-10.484,17.798c-2.653,6.568-4.465,13.543-5.37,20.67c-0.908,7.152-0.9,14.406-0.028,21.562
			c0.827,6.779,2.471,13.439,5.103,19.637c2.449,5.767,5.806,11.112,10.056,15.426c4.254,4.317,9.348,7.528,14.874,9.36
			c6.44,2.135,13.343,2.421,19.971,1.349c2.223-0.359,4.412-0.922,6.563-1.637c0.013-0.004,0.025-0.006,0.038-0.01
			c1.802-0.61,3.582-1.333,5.32-2.139c1.997-0.925,4.063-1.975,5.43-3.912c0.808-1.144,1.318-2.566,1.238-4.037
			c-0.083-1.52-0.852-2.841-0.629-4.408c0.287-2.014,1.767-3.357,3.339-4.188c0.909-0.459,1.941-0.623,2.877-0.413
			c0.008-0.322,0.015-0.641,0.022-0.958c-1.182-0.203-2.406,0.098-3.32,0.572c-2.698,1.395-4.697,4.13-3.38,8.094
			c0.04,0.119,0.076,0.24,0.114,0.36c0.258,0.992,0.606,3.862-2.921,6.361c-0.133,0.078-0.265,0.16-0.398,0.236
			c-0.105,0.086-0.216,0.165-0.329,0.242c-0.249,0.15-0.518,0.301-0.798,0.444c-1.662,0.851-3.375,1.579-5.068,2.226
			c-1.048,0.401-1.718,0.627-1.718,0.627c0.001-0.001,0.001-0.002,0.001-0.003c-1.305,0.438-2.595,0.809-3.889,1.113
			c-1.457,0.342-2.922,0.6-4.422,0.776c-3.904,0.457-7.577,0.43-11.017-0.03c-3.757-0.502-7.235-1.52-10.431-2.987
			c-6.212-2.851-11.359-7.396-15.409-13.142c-4.499-6.382-7.645-14.245-9.398-22.913c-0.839-4.147-1.359-8.478-1.555-12.919
			c-0.062-1.404-0.092-2.819-0.089-4.243c0.055-29.127,16.153-61.004,44.317-64.034c7.251-0.78,17.078,1.213,20.781,9.331
			c2.297-6.469,6.558-13.303,13.163-14.618l-1.14-0.662C117.252,8.697,113.331,14.374,110.919,20.274"/>
		
			<linearGradient id="SVGID_00000125593527443543339550000000002917860494633120_" gradientUnits="userSpaceOnUse" x1="112.6517" y1="137.7059" x2="112.6517" y2="111.7975">
			<stop  offset="0" style="stop-color:#45190C"/>
			<stop  offset="0.0754" style="stop-color:#4E220F"/>
			<stop  offset="0.2006" style="stop-color:#683A18"/>
			<stop  offset="0.3561" style="stop-color:#906126"/>
			<stop  offset="0.362" style="stop-color:#956427"/>
			<stop  offset="0.3899" style="stop-color:#A96E2A"/>
			<stop  offset="0.422" style="stop-color:#B7752C"/>
			<stop  offset="0.4619" style="stop-color:#BF7A2D"/>
			<stop  offset="0.5332" style="stop-color:#C17B2D"/>
			<stop  offset="0.5966" style="stop-color:#BE7A2D"/>
			<stop  offset="0.6342" style="stop-color:#B6762B"/>
			<stop  offset="0.6651" style="stop-color:#A86E29"/>
			<stop  offset="0.6922" style="stop-color:#946427"/>
			<stop  offset="0.6975" style="stop-color:#8F6226"/>
			<stop  offset="0.707" style="stop-color:#8B5E24"/>
			<stop  offset="0.7928" style="stop-color:#693917"/>
			<stop  offset="0.8729" style="stop-color:#501F0E"/>
			<stop  offset="0.9444" style="stop-color:#410F08"/>
			<stop  offset="1" style="stop-color:#3C0906"/>
		</linearGradient>
		<path fill="url(#SVGID_00000125593527443543339550000000002917860494633120_)" d="M116.651,112.77
			c-2.698,1.395-4.697,4.13-3.38,8.094c0.04,0.119,0.076,0.24,0.114,0.36c0.258,0.992,0.606,3.862-2.921,6.361
			c-0.133,0.078-0.265,0.16-0.398,0.236c-0.105,0.086-0.216,0.165-0.329,0.242c-0.249,0.15-0.518,0.301-0.798,0.444
			c-1.185,0.607-2.396,1.149-3.607,1.646h2.279c0.028-0.013,0.056-0.025,0.085-0.038c1.997-0.925,4.063-1.975,5.43-3.912
			c0.808-1.144,1.318-2.566,1.238-4.037c-0.083-1.52-0.852-2.841-0.629-4.408c0.287-2.014,1.767-3.357,3.339-4.188
			c0.909-0.459,1.941-0.623,2.877-0.413c0.008-0.322,0.015-0.641,0.022-0.958c-0.256-0.044-0.515-0.064-0.772-0.064
			C118.273,112.134,117.367,112.399,116.651,112.77"/>
		
			<linearGradient id="SVGID_00000183936989101592994820000017524432431415220914_" gradientUnits="userSpaceOnUse" x1="121.3175" y1="121.8194" x2="121.3175" y2="112.8745">
			<stop  offset="0" style="stop-color:#C37D2C"/>
			<stop  offset="7.116970e-08" style="stop-color:#C37D2C"/>
			<stop  offset="0.9686" style="stop-color:#481D0E"/>
			<stop  offset="1" style="stop-color:#481D0E"/>
		</linearGradient>
		<path fill="url(#SVGID_00000183936989101592994820000017524432431415220914_)" d="M118.788,112.15v0.93
			c1.347-0.109,2.679,0.431,3.425,1.84c0.901,1.701,0.974,3.589,0.533,5.366h0.891c0.33-1.51,0.293-3.115-0.264-4.795
			c-0.84-2.534-2.538-3.358-4.17-3.358C119.064,112.133,118.926,112.139,118.788,112.15"/>
	</g>
	<g>
	</g>
	<g>
	</g>
	<g>
	</g>
	<g>
	</g>
	<g>
	</g>
	<g>
	</g>
</g>
</svg>
