<svg width="32" height="32" viewBox="0 0 32 32" fill="none" xmlns="http://www.w3.org/2000/svg">
<g clip-path="url(#clip0_4_2)">
<g clip-path="url(#clip1_4_2)">
<mask id="mask0_4_2" style="mask-type:alpha" maskUnits="userSpaceOnUse" x="0" y="0" width="32" height="32">
<path fill-rule="evenodd" clip-rule="evenodd" d="M16 0C7.16347 0 0 7.16347 0 16C0 24.8365 7.16347 32 16 32C17.4448 32 18.8449 31.8085 20.1763 31.4495C18.4376 29.982 17.3333 27.7866 17.3333 25.3333C17.3333 20.9151 20.9151 17.3333 25.3333 17.3333C27.7866 17.3333 29.982 18.4376 31.4495 20.1763C31.8085 18.8449 32 17.4448 32 16C32 7.16347 24.8365 0 16 0Z" fill="#D9D9D9"/>
</mask>
<g mask="url(#mask0_4_2)">
</g>
<g clip-path="url(#clip2_4_2)">
<path fill-rule="evenodd" clip-rule="evenodd" d="M15.9912 31.9249C20.7211 31.9249 24.9706 29.8678 27.8937 26.5991C26.5339 25.4174 24.4848 25.3455 23.0373 26.5137L22.7607 26.7367C20.1103 28.8753 16.2484 28.5595 13.9807 26.0187C12.7438 24.6329 10.6256 24.4915 9.21551 25.7004L6.02708 28.434C8.75793 30.6186 12.222 31.9249 15.9912 31.9249ZM21.1667 24.1954C23.6911 22.1584 27.2394 22.2314 29.6674 24.1988C31.1188 21.7942 31.9537 18.9759 31.9537 15.9625C31.9537 12.6141 30.9228 9.50653 29.1609 6.93986C28.0251 6.69797 26.7941 6.98048 25.8594 7.80859L25.5936 8.04428C23.0447 10.303 19.1723 10.1657 16.7897 7.73226C15.4903 6.40507 13.3678 6.36148 12.015 7.63424L8.30457 11.1249L6.26343 8.95535L9.97383 5.46464C12.508 3.08047 16.484 3.16212 18.9182 5.64829C20.1901 6.94737 22.2573 7.02065 23.618 5.81487L23.8839 5.57917C24.7099 4.84726 25.6655 4.35382 26.6661 4.09433C23.838 1.54902 20.0955 0 15.9912 0C7.888 0 1.19507 6.03791 0.165913 13.8601C2.62718 12.679 5.66311 13.1335 7.66993 15.1886C8.93684 16.4859 10.9767 16.6228 12.4057 15.5065L14.4802 13.8857C17.0874 11.8489 20.7731 11.9474 23.2676 14.1209L27.3066 17.6398L25.3499 19.8857L21.3109 16.3668C19.8924 15.131 17.7967 15.0749 16.3141 16.2331L14.2396 17.8538C11.6142 19.9049 7.86634 19.6533 5.53871 17.2697C4.18521 15.8836 1.97153 15.8353 0.558786 17.1609L0.109856 17.5822C0.445824 20.9162 1.80772 23.9473 3.87505 26.3552L7.27668 23.439C9.91825 21.1743 13.8862 21.4393 16.2031 24.0352C17.4137 25.3915 19.4752 25.5601 20.8901 24.4186L21.1667 24.1954Z" fill="url(#paint0_linear_4_2)"/>
</g>
<path d="M32 25.3334C32 21.6515 29.0152 18.6667 25.3333 18.6667C21.6514 18.6667 18.6667 21.6515 18.6667 25.3334C18.6667 29.0153 21.6514 32 25.3333 32C29.0152 32 32 29.0153 32 25.3334Z" fill="#1C1917"/>
<path d="M29.5685 22.6965C29.5685 23.0301 29.301 23.3 28.9717 23.3C28.6424 23.3 28.3749 23.0301 28.3749 22.6965C28.3749 22.3629 28.6424 22.093 28.9717 22.093C29.301 22.093 29.5685 22.3629 29.5685 22.6965ZM22.2917 22.7501C22.2917 23.0837 22.0242 23.3536 21.6949 23.3536C21.3657 23.3536 21.0982 23.0837 21.0982 22.7501C21.0982 22.4165 21.3657 22.1466 21.6949 22.1466C22.0242 22.1466 22.2917 22.4165 22.2917 22.7501ZM22.2917 24.1956C22.2917 24.5292 22.0242 24.7992 21.6949 24.7992C21.3657 24.7992 21.0982 24.5292 21.0982 24.1956C21.0982 23.8621 21.3657 23.5922 21.6949 23.5922C22.0242 23.5922 22.2917 23.8621 22.2917 24.1956ZM22.2929 25.6412C22.2929 25.9748 22.0255 26.2447 21.6962 26.2447C21.3669 26.2447 21.0995 25.9748 21.0995 25.6412C21.0995 25.3076 21.3669 25.0378 21.6962 25.0378C22.0255 25.0378 22.2929 25.3076 22.2929 25.6412ZM22.5747 27.051C22.5747 27.3846 22.3073 27.6545 21.978 27.6545C21.6487 27.6545 21.3813 27.3846 21.3813 27.051C21.3813 26.7174 21.6487 26.4476 21.978 26.4476C22.3073 26.4476 22.5747 26.7174 22.5747 27.051ZM23.3722 28.2416C23.3722 28.5752 23.1047 28.845 22.7755 28.845C22.4462 28.845 22.1787 28.5752 22.1787 28.2416C22.1787 27.908 22.4462 27.6381 22.7755 27.6381C23.1047 27.6381 23.3722 27.908 23.3722 28.2416ZM24.56 29.0317C24.56 29.3653 24.2925 29.6352 23.9633 29.6352C23.634 29.6352 23.3665 29.3653 23.3665 29.0317C23.3665 28.6981 23.634 28.4282 23.9633 28.4282C24.2925 28.4282 24.56 28.6981 24.56 29.0317ZM25.9564 29.3036C25.9564 29.6372 25.6889 29.907 25.3597 29.907C25.0304 29.907 24.7629 29.6372 24.7629 29.3036C24.7629 28.97 25.0304 28.7001 25.3597 28.7001C25.6889 28.7001 25.9564 28.97 25.9564 29.3036ZM27.3505 29.0151C27.3505 29.3487 27.083 29.6186 26.7537 29.6186C26.4244 29.6186 26.1569 29.3487 26.1569 29.0151C26.1569 28.6815 26.4244 28.4116 26.7537 28.4116C27.083 28.4116 27.3505 28.6815 27.3505 29.0151ZM28.5241 28.2029C28.5241 28.5365 28.2567 28.8064 27.9274 28.8064C27.5981 28.8064 27.3307 28.5365 27.3307 28.2029C27.3307 27.8693 27.5981 27.5994 27.9274 27.5994C28.2567 27.5994 28.5241 27.8693 28.5241 28.2029ZM29.3011 26.9998C29.3011 27.3334 29.0336 27.6033 28.7043 27.6033C28.3751 27.6033 28.1075 27.3334 28.1075 26.9998C28.1075 26.6662 28.3751 26.3964 28.7043 26.3964C29.0336 26.3964 29.3011 26.6662 29.3011 26.9998ZM29.5685 25.5877C29.5685 25.9213 29.301 26.1912 28.9717 26.1912C28.6424 26.1912 28.3749 25.9213 28.3749 25.5877C28.3749 25.2541 28.6424 24.9842 28.9717 24.9842C29.301 24.9842 29.5685 25.2541 29.5685 25.5877ZM29.5685 24.1421C29.5685 24.4757 29.301 24.7456 28.9717 24.7456C28.6424 24.7456 28.3749 24.4757 28.3749 24.1421C28.3749 23.8085 28.6424 23.5386 28.9717 23.5386C29.301 23.5386 29.5685 23.8085 29.5685 24.1421ZM23.942 22.7746C23.942 23.1082 23.6745 23.3781 23.3452 23.3781C23.0159 23.3781 22.7485 23.1082 22.7485 22.7746C22.7485 22.441 23.0159 22.1712 23.3452 22.1712C23.6745 22.1712 23.942 22.441 23.942 22.7746ZM23.942 24.309C23.942 24.6426 23.6745 24.9125 23.3452 24.9125C23.0159 24.9125 22.7485 24.6426 22.7485 24.309C22.7485 23.9754 23.0159 23.7055 23.3452 23.7055C23.6745 23.7055 23.942 23.9754 23.942 24.309ZM23.9595 25.8422C23.9595 26.1758 23.6921 26.4457 23.3628 26.4457C23.0335 26.4457 22.7661 26.1758 22.7661 25.8422C22.7661 25.5086 23.0335 25.2388 23.3628 25.2388C23.6921 25.2388 23.9595 25.5086 23.9595 25.8422ZM24.5947 27.1905C24.5947 27.5241 24.3272 27.794 23.9979 27.794C23.6687 27.794 23.4012 27.5241 23.4012 27.1905C23.4012 26.8569 23.6687 26.587 23.9979 26.587C24.3272 26.587 24.5947 26.8569 24.5947 27.1905ZM25.9781 27.7239C25.9781 28.0575 25.7106 28.3274 25.3813 28.3274C25.0521 28.3274 24.7845 28.0575 24.7845 27.7239C24.7845 27.3903 25.0521 27.1204 25.3813 27.1204C25.7106 27.1204 25.9781 27.3903 25.9781 27.7239ZM27.3461 27.1426C27.3461 27.4762 27.0786 27.7461 26.7493 27.7461C26.4201 27.7461 26.1525 27.4762 26.1525 27.1426C26.1525 26.809 26.4201 26.5392 26.7493 26.5392C27.0786 26.5392 27.3461 26.809 27.3461 27.1426ZM27.9303 25.7647C27.9303 26.0983 27.6627 26.3682 27.3335 26.3682C27.0042 26.3682 26.7367 26.0983 26.7367 25.7647C26.7367 25.4312 27.0042 25.1612 27.3335 25.1612C27.6627 25.1612 27.9303 25.4312 27.9303 25.7647ZM27.9375 24.2308C27.9375 24.5644 27.67 24.8343 27.3407 24.8343C27.0114 24.8343 26.7439 24.5644 26.7439 24.2308C26.7439 23.8972 27.0114 23.6274 27.3407 23.6274C27.67 23.6274 27.9375 23.8972 27.9375 24.2308ZM27.9375 22.6965C27.9375 23.0301 27.67 23.3 27.3407 23.3C27.0114 23.3 26.7439 23.0301 26.7439 22.6965C26.7439 22.3629 27.0114 22.093 27.3407 22.093C27.67 22.093 27.9375 22.3629 27.9375 22.6965Z" fill="url(#paint1_linear_4_2)" stroke="#E7E5E4" stroke-width="0.0916667"/>
</g>
</g>
<defs>
<linearGradient id="paint0_linear_4_2" x1="16.005" y1="31.7903" x2="16.005" y2="0" gradientUnits="userSpaceOnUse">
<stop stop-color="#B52A2A"/>
<stop offset="1" stop-color="#780000"/>
</linearGradient>
<linearGradient id="paint1_linear_4_2" x1="25.3333" y1="22.0625" x2="25.3333" y2="29.9376" gradientUnits="userSpaceOnUse">
<stop stop-color="#D6D3D1"/>
<stop offset="1" stop-color="#A8A29E"/>
</linearGradient>
<clipPath id="clip0_4_2">
<rect width="32" height="32" fill="white"/>
</clipPath>
<clipPath id="clip1_4_2">
<rect width="32" height="32" fill="white"/>
</clipPath>
<clipPath id="clip2_4_2">
<rect width="32" height="32" fill="white"/>
</clipPath>
</defs>
</svg>
