<svg width="32" height="32" viewBox="0 0 32 32" fill="none" xmlns="http://www.w3.org/2000/svg">
<circle cx="16" cy="16" r="16" fill="#161E53"/>
<path fill-rule="evenodd" clip-rule="evenodd" d="M19.1186 7H17.2203L16.7343 8.34328H13.1525L8 22.5821H11.5868L10.7119 25H12.6102L13.4851 22.5821H15.1122L14.2373 25H16.1356L17.0115 22.5794C18.8457 22.5294 20.5942 21.7857 21.8951 20.4969C23.2429 19.1617 24 17.3509 24 15.4627C24 13.5745 23.2429 11.7637 21.8951 10.4285C21.776 10.3104 21.653 10.1969 21.5266 10.0881L22.6441 7H20.7458L19.9937 9.07829C19.535 8.85408 19.053 8.67873 18.5557 8.55563L19.1186 7ZM15.7877 20.7015L19.3472 10.8649C18.8973 10.6216 18.4134 10.444 17.9106 10.3383L17.7576 10.7612H17.7627L14.1657 20.7015H15.7877ZM12.2622 20.7015L16.0537 10.2239H14.3703L10.5788 20.7015H12.2622ZM17.7193 20.6236L20.8227 12.0473C21.6447 12.9942 22.1012 14.2051 22.1012 15.4627C22.1012 16.852 21.5441 18.1844 20.5525 19.1667C19.777 19.935 18.7854 20.44 17.7193 20.6236Z" fill="#FFBB51"/>
</svg>
