<svg version="1.1" id="Layer_1" xmlns="http://www.w3.org/2000/svg" xmlns:xlink="http://www.w3.org/1999/xlink" x="0px" y="0px"
	 width="100%" viewBox="0 0 200 200" enable-background="new 0 0 200 200" xml:space="preserve">
<path fill="#010100" opacity="1.000000" stroke="none" 
	d="
M120.000000,201.000000 
	C80.024696,201.000000 40.549400,201.000000 1.037050,201.000000 
	C1.037050,134.399734 1.037050,67.799454 1.037050,1.099581 
	C67.558464,1.099581 134.117126,1.099581 200.837891,1.099581 
	C200.837891,67.666351 200.837891,134.333145 200.837891,201.000000 
	C174.133072,201.000000 147.316528,201.000000 120.000000,201.000000 
M121.524399,190.922653 
	C124.337669,193.767654 126.696220,193.544067 130.016830,191.000854 
	C140.843445,182.708878 152.036316,174.895844 163.065231,166.866882 
	C166.745895,164.187393 170.357224,161.412659 175.496338,157.559799 
	C164.396729,156.806854 164.508057,150.184952 164.629959,143.055573 
	C164.886215,128.066528 164.721573,113.070038 164.688477,98.076698 
	C164.684784,96.401421 164.415024,94.726738 164.190033,92.152252 
	C155.226273,98.647026 147.313126,104.698967 139.052414,110.232002 
	C134.905441,113.009651 133.228516,116.057045 133.346848,121.178871 
	C133.716171,137.163315 133.497650,153.161728 133.470444,169.154648 
	C133.464188,172.834320 127.915634,178.503036 125.091690,177.832047 
	C121.501511,176.978989 118.007271,172.314453 118.007027,168.346954 
	C118.004616,128.864288 118.204529,89.379669 117.815315,49.900848 
	C117.748199,43.093330 120.168411,39.488060 125.697548,37.375317 
	C132.077271,39.730343 133.886429,44.061893 133.642639,50.579277 
	C133.119919,64.553581 133.470261,78.561012 133.497971,92.554817 
	C133.501373,94.275970 133.717682,95.996696 133.894592,98.584625 
	C142.624084,92.272278 150.386475,86.284370 158.548599,80.902710 
	C163.185104,77.845642 165.255829,74.439163 164.843185,68.735703 
	C164.306015,61.310905 165.181290,60.659515 172.439377,57.962589 
	C172.978577,57.762241 173.413971,57.282616 174.297028,56.643948 
	C158.504639,45.131844 143.101227,33.828739 127.540459,22.746609 
	C126.613922,22.086744 124.078102,22.709095 122.879013,23.561634 
	C111.764999,31.463610 100.724167,39.472820 89.826256,47.669186 
	C88.406570,48.736935 87.119209,51.036140 87.111832,52.770657 
	C86.956627,89.253975 86.950829,125.738319 87.119850,162.221512 
	C87.128555,164.099472 88.490875,166.585678 90.016342,167.742752 
	C100.216194,175.479279 110.631584,182.931641 121.524399,190.922653 
M71.527870,55.507355 
	C71.528534,51.841457 71.396729,48.168232 71.598953,44.513485 
	C71.673599,43.164463 72.142128,41.205936 73.096649,40.631531 
	C87.558311,31.928902 98.315750,16.388334 119.232903,16.733221 
	C112.581200,11.827250 107.215233,7.869571 101.903587,3.951959 
	C74.143440,24.145947 46.828888,44.008739 19.535746,63.900909 
	C18.627308,64.563011 17.278204,65.499908 17.248940,66.347214 
	C17.047514,72.179115 17.143044,78.021255 17.143044,83.797157 
	C24.692635,77.172119 31.761141,70.969238 38.829647,64.766365 
	C39.313034,65.106293 39.796417,65.446228 40.279800,65.786156 
	C40.279800,67.569054 40.279804,69.351959 40.279804,71.134857 
	C40.279808,92.130524 40.279877,113.126190 40.279778,134.121857 
	C40.279732,143.495758 40.278080,143.492279 31.554678,147.249023 
	C31.388113,147.320755 31.389971,147.783569 31.227001,148.379074 
	C45.541790,159.071335 59.949089,169.832687 74.356384,180.594040 
	C70.852722,168.248322 71.520515,156.089264 71.524651,143.987289 
	C71.534622,114.826637 71.527847,85.665985 71.527870,55.507355 
z"/>
<path fill="#FBE4A1" opacity="1.000000" stroke="none" 
	d="
M121.250710,190.699432 
	C110.631584,182.931641 100.216194,175.479279 90.016342,167.742752 
	C88.490875,166.585678 87.128555,164.099472 87.119850,162.221512 
	C86.950829,125.738319 86.956627,89.253975 87.111832,52.770657 
	C87.119209,51.036140 88.406570,48.736935 89.826256,47.669186 
	C100.724167,39.472820 111.764999,31.463610 122.879013,23.561634 
	C124.078102,22.709095 126.613922,22.086744 127.540459,22.746609 
	C143.101227,33.828739 158.504639,45.131844 174.297028,56.643948 
	C173.413971,57.282616 172.978577,57.762241 172.439377,57.962589 
	C165.181290,60.659515 164.306015,61.310905 164.843185,68.735703 
	C165.255829,74.439163 163.185104,77.845642 158.548599,80.902710 
	C150.386475,86.284370 142.624084,92.272278 133.894592,98.584625 
	C133.717682,95.996696 133.501373,94.275970 133.497971,92.554817 
	C133.470261,78.561012 133.119919,64.553581 133.642639,50.579277 
	C133.886429,44.061893 132.077271,39.730343 125.697548,37.375317 
	C120.168411,39.488060 117.748199,43.093330 117.815315,49.900848 
	C118.204529,89.379669 118.004616,128.864288 118.007027,168.346954 
	C118.007271,172.314453 121.501511,176.978989 125.091690,177.832047 
	C127.915634,178.503036 133.464188,172.834320 133.470444,169.154648 
	C133.497650,153.161728 133.716171,137.163315 133.346848,121.178871 
	C133.228516,116.057045 134.905441,113.009651 139.052414,110.232002 
	C147.313126,104.698967 155.226273,98.647026 164.190033,92.152252 
	C164.415024,94.726738 164.684784,96.401421 164.688477,98.076698 
	C164.721573,113.070038 164.886215,128.066528 164.629959,143.055573 
	C164.508057,150.184952 164.396729,156.806854 175.496338,157.559799 
	C170.357224,161.412659 166.745895,164.187393 163.065231,166.866882 
	C152.036316,174.895844 140.843445,182.708878 130.016830,191.000854 
	C126.696220,193.544067 124.337669,193.767654 121.250710,190.699432 
z"/>
<path fill="#F9E19F" opacity="1.000000" stroke="none" 
	d="
M71.527847,56.006344 
	C71.527847,85.665985 71.534622,114.826637 71.524651,143.987289 
	C71.520515,156.089264 70.852722,168.248322 74.356384,180.594040 
	C59.949089,169.832687 45.541790,159.071335 31.227001,148.379074 
	C31.389971,147.783569 31.388113,147.320755 31.554678,147.249023 
	C40.278080,143.492279 40.279732,143.495758 40.279778,134.121857 
	C40.279877,113.126190 40.279808,92.130524 40.279804,71.134857 
	C40.279804,69.351959 40.279800,67.569054 40.279800,65.786156 
	C39.796417,65.446228 39.313034,65.106293 38.829647,64.766365 
	C31.761141,70.969238 24.692635,77.172119 17.143044,83.797157 
	C17.143044,78.021255 17.047514,72.179115 17.248940,66.347214 
	C17.278204,65.499908 18.627308,64.563011 19.535746,63.900909 
	C46.828888,44.008739 74.143440,24.145947 101.903587,3.951959 
	C107.215233,7.869571 112.581200,11.827250 119.232903,16.733221 
	C98.315750,16.388334 87.558311,31.928902 73.096649,40.631531 
	C72.142128,41.205936 71.673599,43.164463 71.598953,44.513485 
	C71.396729,48.168232 71.528534,51.841457 71.527847,56.006344 
z"/>
</svg>