<?xml version="1.0" encoding="UTF-8" standalone="no"?>
<!DOCTYPE svg PUBLIC "-//W3C//DTD SVG 1.1//EN" "http://www.w3.org/Graphics/SVG/1.1/DTD/svg11.dtd">
<svg xmlns="http://www.w3.org/2000/svg" version="1.1" viewBox="0 0 256 256" width="256.0pt" height="256.0pt">
<path d="M 0.00 0.00 L 256.00 0.00 L 256.00 126.95 C 255.04 127.34 253.89 128.12 252.83 128.09 C 248.06 127.29 242.93 126.91 238.18 127.95 C 237.01 128.07 235.78 127.66 234.62 127.54 C 231.42 127.00 228.05 127.83 224.76 127.31 C 222.18 126.90 219.88 126.21 217.23 126.70 C 214.52 127.21 211.98 127.90 209.19 127.57 C 205.66 127.20 202.28 127.92 198.81 127.16 C 197.53 126.84 196.42 127.22 195.15 127.42 C 192.54 128.02 190.03 127.95 187.36 128.07 C 185.17 127.74 183.27 127.20 181.13 128.15 C 176.65 129.94 172.46 132.43 168.05 134.41 C 164.61 133.21 161.57 133.89 158.43 131.53 C 156.09 133.78 154.93 133.94 151.70 133.88 C 151.41 132.79 151.13 131.70 150.84 130.62 C 160.09 125.98 169.41 121.41 178.59 116.66 C 183.56 114.35 183.98 106.53 179.53 103.48 C 162.35 90.85 144.76 77.98 127.54 65.37 C 123.93 62.77 120.31 63.66 116.71 65.72 C 105.68 71.35 94.50 76.84 83.47 82.46 C 78.56 85.28 78.34 92.76 83.10 95.85 C 96.27 105.55 109.51 115.17 122.67 124.88 C 120.40 126.48 119.87 128.16 116.96 126.71 C 114.27 128.69 112.44 127.66 109.47 128.23 C 99.99 121.48 90.55 114.67 81.12 107.85 C 78.62 106.10 76.11 103.91 73.01 103.46 C 68.92 103.20 63.80 106.36 64.22 110.96 C 64.11 116.54 64.43 122.13 64.21 127.71 C 62.21 131.10 63.03 134.56 62.83 138.41 C 60.75 138.59 58.75 139.03 56.72 139.50 C 55.00 139.99 53.13 139.20 51.33 139.02 C 48.43 138.81 45.68 138.90 42.82 139.39 C 38.68 138.61 34.78 139.68 30.62 139.57 C 27.47 139.62 24.50 138.40 21.44 137.54 C 21.12 138.18 20.80 138.82 20.48 139.45 C 18.05 138.98 16.09 138.28 13.75 139.44 C 12.77 139.03 11.78 138.63 10.81 138.21 C 7.26 139.35 3.61 139.99 0.00 140.87 L 0.00 0.00 Z" fill="#d0d5e0" />
<path d="M 127.54 65.37 C 144.76 77.98 162.35 90.85 179.53 103.48 C 183.98 106.53 183.56 114.35 178.59 116.66 C 169.41 121.41 160.09 125.98 150.84 130.62 C 146.34 132.54 141.47 136.76 136.42 134.57 C 131.62 131.73 127.27 128.05 122.67 124.88 C 109.51 115.17 96.27 105.55 83.10 95.85 C 78.34 92.76 78.56 85.28 83.47 82.46 C 94.50 76.84 105.68 71.35 116.71 65.72 C 120.31 63.66 123.93 62.77 127.54 65.37 Z" fill="#000000" />
<path d="M 73.01 103.46 C 76.11 103.91 78.62 106.10 81.12 107.85 C 90.55 114.67 99.99 121.48 109.47 128.23 C 115.46 132.67 121.58 136.96 127.62 141.32 C 129.76 142.87 131.05 145.29 130.99 147.95 C 131.02 158.64 130.99 169.33 131.01 180.02 C 131.33 184.56 127.55 188.62 123.01 188.58 C 120.53 188.79 118.72 187.58 116.83 186.19 C 101.72 174.63 86.62 163.04 71.48 151.50 C 68.82 149.41 64.98 147.27 64.55 143.56 C 64.18 138.30 64.38 132.98 64.21 127.71 C 64.43 122.13 64.11 116.54 64.22 110.96 C 63.80 106.36 68.92 103.20 73.01 103.46 Z" fill="#000000" />
<path d="M 122.67 124.88 C 127.27 128.05 131.62 131.73 136.42 134.57 C 141.47 136.76 146.34 132.54 150.84 130.62 C 151.13 131.70 151.41 132.79 151.70 133.88 C 154.93 133.94 156.09 133.78 158.43 131.53 C 161.57 133.89 164.61 133.21 168.05 134.41 C 162.14 137.46 156.16 140.37 150.20 143.33 C 147.50 144.66 144.15 145.90 142.86 148.86 C 141.81 150.86 142.05 152.81 142.00 155.00 C 142.04 164.36 141.70 173.70 141.37 183.05 C 141.19 186.53 142.87 190.16 146.16 191.63 C 148.75 192.87 151.67 192.61 154.12 191.16 C 164.70 185.08 175.31 178.95 185.89 172.85 C 188.53 171.40 190.33 169.05 190.70 166.02 C 191.51 156.02 191.39 145.94 192.25 135.96 C 192.32 132.25 190.27 130.00 187.36 128.07 C 190.03 127.95 192.54 128.02 195.15 127.42 C 196.42 127.22 197.53 126.84 198.81 127.16 C 202.28 127.92 205.66 127.20 209.19 127.57 C 211.98 127.90 214.52 127.21 217.23 126.70 C 219.88 126.21 222.18 126.90 224.76 127.31 C 228.05 127.83 231.42 127.00 234.62 127.54 C 235.78 127.66 237.01 128.07 238.18 127.95 C 242.93 126.91 248.06 127.29 252.83 128.09 C 253.89 128.12 255.04 127.34 256.00 126.95 L 256.00 256.00 L 0.00 256.00 L 0.00 140.87 C 3.61 139.99 7.26 139.35 10.81 138.21 C 11.78 138.63 12.77 139.03 13.75 139.44 C 16.09 138.28 18.05 138.98 20.48 139.45 C 20.80 138.82 21.12 138.18 21.44 137.54 C 24.50 138.40 27.47 139.62 30.62 139.57 C 34.78 139.68 38.68 138.61 42.82 139.39 C 45.68 138.90 48.43 138.81 51.33 139.02 C 53.13 139.20 55.00 139.99 56.72 139.50 C 58.75 139.03 60.75 138.59 62.83 138.41 C 63.03 134.56 62.21 131.10 64.21 127.71 C 64.38 132.98 64.18 138.30 64.55 143.56 C 64.98 147.27 68.82 149.41 71.48 151.50 C 86.62 163.04 101.72 174.63 116.83 186.19 C 118.72 187.58 120.53 188.79 123.01 188.58 C 127.55 188.62 131.33 184.56 131.01 180.02 C 130.99 169.33 131.02 158.64 130.99 147.95 C 131.05 145.29 129.76 142.87 127.62 141.32 C 121.58 136.96 115.46 132.67 109.47 128.23 C 112.44 127.66 114.27 128.69 116.96 126.71 C 119.87 128.16 120.40 126.48 122.67 124.88 Z" fill="#b7c8f0" />
<path d="M 181.13 128.15 C 183.27 127.20 185.17 127.74 187.36 128.07 C 190.27 130.00 192.32 132.25 192.25 135.96 C 191.39 145.94 191.51 156.02 190.70 166.02 C 190.33 169.05 188.53 171.40 185.89 172.85 C 175.31 178.95 164.70 185.08 154.12 191.16 C 151.67 192.61 148.75 192.87 146.16 191.63 C 142.87 190.16 141.19 186.53 141.37 183.05 C 141.70 173.70 142.04 164.36 142.00 155.00 C 142.05 152.81 141.81 150.86 142.86 148.86 C 144.15 145.90 147.50 144.66 150.20 143.33 C 156.16 140.37 162.14 137.46 168.05 134.41 C 172.46 132.43 176.65 129.94 181.13 128.15 Z" fill="#000000" />
</svg>