<svg width="300" height="300" viewBox="0 0 300 300" fill="none" xmlns="http://www.w3.org/2000/svg">
<rect width="300" height="300" rx="55.1724" fill="url(#paint0_linear_3913_592)"/>
<path d="M278.45 135.011H199.573C199.863 139.918 200.012 144.922 200.012 150.005C200.012 202.06 184.307 245.865 162.975 258.725C174.633 240.694 182.788 199.111 182.788 150.68C182.788 145.37 182.692 140.138 182.499 135.011H117.492C117.299 140.138 117.203 145.37 117.203 150.68C117.203 199.102 125.367 240.694 137.016 258.725C115.684 245.865 99.9787 202.069 99.9787 150.005C99.9787 144.922 100.128 139.918 100.418 135.011H21.5585C20.9879 139.927 20.6895 144.931 20.6895 150.005C20.6895 221.417 78.585 279.31 150 279.31C221.415 279.31 279.31 221.417 279.31 150.005C279.31 144.931 279.012 139.936 278.441 135.011H278.45Z" fill="#3DF2B0"/>
<path d="M34.7539 121.106H276.063C262.93 63.5986 211.487 20.6897 150.001 20.6897C88.5146 20.6897 37.0802 63.5986 23.9473 121.106H34.7539ZM233.995 66.0126C246.97 78.9871 256.557 94.4547 262.351 111.318H217.781C212.198 78.8379 199.767 51.8618 183.562 36.0168C202.427 41.5384 219.712 51.7302 233.995 66.0126ZM171.219 39.1946C178.417 44.7338 185.247 53.1874 190.988 63.6337C198.433 77.1875 203.876 93.4803 207.089 111.318H155.277V31.7066C160.693 32.6898 166.031 35.2004 171.228 39.1946H171.219ZM128.791 39.1946C133.98 35.2004 139.326 32.6898 144.742 31.7066V111.318H92.9303C96.1433 93.4803 101.586 77.1875 109.03 63.6337C114.763 53.1874 121.602 44.7425 128.8 39.1946H128.791ZM66.0148 66.0126C80.2978 51.7302 97.5831 41.5384 116.448 36.0168C100.243 51.8618 87.8124 78.8379 82.2291 111.318H37.6596C43.4448 94.4547 53.0311 78.9959 66.0148 66.0126Z" fill="#3DF2B0"/>
<defs>
<linearGradient id="paint0_linear_3913_592" x1="150" y1="119.84" x2="150" y2="300" gradientUnits="userSpaceOnUse">
<stop stop-color="#380559"/>
<stop offset="1" stop-color="#780BBF"/>
</linearGradient>
</defs>
</svg>
