<svg width="32" height="32" viewBox="0 0 32 32" fill="none" xmlns="http://www.w3.org/2000/svg">
<path d="M0 16C0 7.16344 7.16344 0 16 0C24.8366 0 32 7.16344 32 16C32 24.8366 24.8366 32 16 32C7.16344 32 0 24.8366 0 16Z" fill="white"/>
<path fill-rule="evenodd" clip-rule="evenodd" d="M25 16C25 14.8221 24.7656 13.6442 24.3149 12.5559C23.8642 11.4676 23.1969 10.469 22.3639 9.6361C21.531 8.80306 20.5324 8.1358 19.4441 7.68508C18.3558 7.23436 17.1779 7 16 7C14.8221 7 13.6442 7.23436 12.5559 7.68508C11.4676 8.1358 10.469 8.80306 9.6361 9.6361C8.80306 10.469 8.1358 11.4676 7.68508 12.5559C7.23436 13.6442 7 14.8221 7 16C7 17.1779 7.23436 18.3558 7.68508 19.4441C8.1358 20.5324 8.80306 21.531 9.6361 22.3639C10.469 23.1969 11.4676 23.8642 12.5559 24.3149C13.6442 24.7656 14.8221 25 16 25C17.1779 25 18.3558 24.7656 19.4441 24.3149C20.5324 23.8642 21.531 23.1969 22.3639 22.3639C23.1969 21.531 23.8642 20.5324 24.3149 19.4441C24.7656 18.3558 25 17.1779 25 16Z" fill="white"/>
<path fill-rule="evenodd" clip-rule="evenodd" d="M14.3519 22.2348C14.3519 22.4547 14.1989 22.5279 13.977 22.5279C11.199 21.6388 9.25 19.1131 9.25 16.1427C9.25 13.1724 11.199 10.6467 13.977 9.75755C14.1996 9.68626 14.3519 9.8308 14.3519 10.0557V10.5734C14.3519 10.7249 14.2731 10.8714 14.1249 10.9447C11.9489 11.7605 10.449 13.7685 10.449 16.1427C10.449 18.5219 12.0231 20.5982 14.1249 21.3408C14.2731 21.4141 14.3519 21.5655 14.3519 21.712V22.2348ZM16.602 20.3784C16.602 20.5249 16.449 20.6714 16.301 20.6714H15.6991C15.5511 20.6714 15.3981 20.5249 15.3981 20.3784V19.4843C14.199 19.3378 13.6021 18.6684 13.3751 17.7012C13.3751 17.5545 13.4491 17.408 13.6021 17.408H14.2731C14.4261 17.408 14.5001 17.4813 14.5741 17.6278C14.7271 18.1507 15.023 18.5951 16 18.5951C16.7501 18.5951 17.273 18.2239 17.273 17.6278C17.273 17.0368 16.9771 16.8121 15.9261 16.6654C14.3512 16.4458 13.6021 15.9962 13.6021 14.7308C13.6021 13.7685 14.352 13.0258 15.3981 12.8743V11.9852C15.3981 11.8387 15.5511 11.6872 15.6991 11.6872H16.301C16.449 11.6872 16.602 11.8387 16.602 11.9852V12.8743C17.5 13.0258 18.1021 13.5437 18.25 14.3596C18.25 14.5111 18.1761 14.6576 18.0231 14.6576H17.426C17.273 14.6576 17.199 14.5843 17.125 14.4377C16.9771 13.915 16.602 13.6952 15.9261 13.6952C15.176 13.6952 14.8011 14.0664 14.8011 14.5843C14.8011 15.1021 15.023 15.4001 16.148 15.5515C17.728 15.7643 18.477 16.2159 18.477 17.4813C18.477 18.4437 17.727 19.2645 16.602 19.4843V20.3784ZM17.6481 22.2347C17.6481 22.4546 17.8011 22.6061 18.023 22.5279C20.801 21.6387 22.75 19.113 22.75 16.1427C22.75 13.1723 20.727 10.6466 18.023 9.75749C17.8011 9.75749 17.6481 9.83074 17.6481 10.0557V10.5734C17.6481 10.7249 17.7269 10.8714 17.8751 10.9446C19.9769 11.6872 21.551 13.7685 21.551 16.1427C21.551 18.5219 20.0511 20.5249 17.8751 21.3408C17.7269 21.414 17.6481 21.5655 17.6481 21.712V22.2347Z" fill="black"/>
<path fill-rule="evenodd" clip-rule="evenodd" d="M11.8547 3.38363C13.3453 2.89371 14.9382 2.66971 16.5161 2.73019C18.0944 2.79067 19.6579 3.13595 21.1129 3.74395C22.5683 4.35195 23.9152 5.22299 25.0675 6.29755C26.5917 7.71931 27.775 9.49755 28.4848 11.4867C29.1949 13.4761 29.4314 15.6764 29.1574 17.7711C28.8838 19.8659 28.0998 21.8553 26.9139 23.566C25.728 25.2767 24.1398 26.7084 22.2745 27.7004C20.4093 28.6921 18.2662 29.2438 16.1539 29.2758C14.0416 29.3078 11.9597 28.8204 10.095 27.895C8.23071 26.9695 6.58335 25.6063 5.33247 23.9036C4.08159 22.2009 3.22719 20.1587 2.88799 18.0748C2.54879 15.9907 2.72479 13.8646 3.37471 11.8812C3.86591 10.3817 4.62815 8.96411 5.60479 7.73563H4.12031V5.28187H9.93695V10.7135H7.48319V9.22939C6.68319 10.2355 6.05855 11.3967 5.65631 12.6255C5.12415 14.2511 4.98079 15.9951 5.25631 17.6969C5.59871 19.8137 6.58879 21.8649 8.06655 23.4457C9.83423 25.3363 12.2995 26.5542 14.8659 26.8207C17.432 27.0873 20.0992 26.4028 22.2173 24.9286C24.3354 23.4543 25.905 21.1903 26.5421 18.6899C27.1792 16.1894 26.8838 13.4524 25.735 11.142C24.5862 8.83163 22.5837 6.94843 20.1891 5.95899C17.7945 4.96923 15.0077 4.87387 12.6038 5.66363L11.8547 3.38363Z" fill="#0657F9"/>
</svg>
