<svg width="128" height="128" viewBox="0 0 128 128" fill="none" xmlns="http://www.w3.org/2000/svg">
<path d="M64 111.742L28.3828 79.1562L45.0547 34.0664L64 17.7734L82.5664 31.4141L101.133 79.1562L64 111.742Z" fill="white"/>
<path fill-rule="evenodd" clip-rule="evenodd" d="M101.734 76.509L103.064 80.0203H99.3092H98.2493L98.2491 80.0204H102.946L63.941 112.5L24.9365 80.0204H28.9005L28.9003 80.0203H28.708H24.9371L26.3119 76.509L43.2326 33.2905L64.0004 15.5L84.0265 29.7324L101.734 76.509ZM81.4851 32.937L97.9799 76.509H96.9724L89.3689 71.6809L63.5039 75.6844C64.2023 71.9468 65.7121 63.7951 65.7121 63.7951C65.7121 63.7951 79.1949 45.804 81.5003 42.7162C81.64 42.5345 81.505 42.2737 81.2767 42.2737H73.718C73.5689 42.2737 73.4292 42.3436 73.3454 42.4647C71.7889 44.5789 70.2314 46.6952 68.6659 48.8223L68.6505 48.8432C66.8484 51.2917 65.0358 53.7547 63.2018 56.2456C61.3109 51.593 59.4713 47.0568 57.6549 42.5765C57.5851 42.3995 57.4128 42.2877 57.2265 42.2877H50.6737C50.4781 42.2877 50.343 42.4787 50.4129 42.6649C51.0975 44.4487 53.985 51.8957 53.985 51.8957C53.985 51.8957 56.8818 59.3381 58.3023 62.9987C58.3162 63.0359 58.3302 63.0777 58.3441 63.1195L58.3442 63.1198L58.5165 63.5669C58.5165 63.5669 56.8368 72.6948 56.1912 76.223L44.6885 65.9751L30.1179 76.509H30.0827L45.9479 35.9864L61.5237 42.9968L62.3176 43.3542L63.0826 42.9384L81.4851 32.937ZM78.8592 30.3678L64.2019 19.9509L48.5897 33.3249L62.1709 39.4375L78.8592 30.3678ZM63.325 76.8207L56.2533 77.6766L60.5787 108.374L63.7806 110.964L63.325 76.8207Z" fill="black"/>
</svg>
