<?xml version="1.0" encoding="UTF-8"?><svg id="Layer_2" xmlns="http://www.w3.org/2000/svg" xmlns:xlink="http://www.w3.org/1999/xlink" viewBox="0 0 1077.05 1077.13"><defs><style>.cls-1{fill:url(#linear-gradient);isolation:isolate;opacity:.48;}.cls-2{fill:#676767;}.cls-3{fill:#f5eee4;}.cls-4{fill:#ececec;}.cls-5{fill:#c2bbaf;}.cls-6{fill:#8f8f8f;}.cls-7{fill:#8c8c8c;}.cls-8{fill:#aeaeae;}.cls-9{fill:#cacaca;}.cls-10{fill:#c4c4c4;}.cls-11{fill:#d6d6d6;}.cls-12{fill:#545454;}.cls-13{fill:#626262;}.cls-14{fill:#262626;}.cls-15{fill:#575757;}.cls-16{fill:#494949;}.cls-17{fill:#757575;}</style><linearGradient id="linear-gradient" x1="597.21" y1="3936.83" x2="594.59" y2="3869.26" gradientTransform="translate(0 4587.48) scale(1 -1)" gradientUnits="userSpaceOnUse"><stop offset=".16" stop-color="#191919"/><stop offset=".97" stop-color="#191919" stop-opacity="0"/></linearGradient></defs><g id="Layer_2-2"><g><g id="Layer_1-2"><g id="b"><g id="c"><g id="d"><g id="e"><circle class="cls-3" cx="538.53" cy="538.55" r="529.67"/><g id="f"><g id="g"><path class="cls-5" d="M538.29,1077.13C241.08,1076.92-.72,835.93,0,537.06,.72,240.81,241.22-.86,540.28,0c296.29,.86,537,241.17,536.77,539.05-.23,297.28-241.05,538.05-538.76,538.08h0ZM54.83,538.76c2.59,131.84,47.87,246.57,141.72,340.67,93.56,93.8,207.64,141.57,339.63,142.18,132.94,.61,248.14-46.55,342.76-140.64,94.62-94.09,142.37-208.68,142.63-341.44,.26-132.95-47.27-248-141.59-342.38-93.79-93.83-208.16-141.38-340.35-141.67-132.37-.29-247,46.85-341.34,140.46C103.43,290.11,57.56,405.27,54.83,538.76Z"/></g></g></g></g></g></g></g><g><path class="cls-4" d="M805.13,687.09c-.4,.3-.79,.62-1.21,.9-.4,.3-.81,.58-1.22,.89-.77,.55-1.56,1.07-2.37,1.58-.09,.06-.19,.11-.28,.19-.66,.41-1.32,.83-2,1.22-1,.6-1.98,1.17-2.99,1.73-6.89,3.84-14.15,6.93-21.55,9.66-6.99,2.56-14.07,4.8-21.21,6.8-10.23,2.86-20.59,5.24-31.04,7.31-10.15,2.03-20.34,3.75-30.57,5.24-10.23,1.49-20.49,2.73-30.78,3.8-3.37,.36-6.74,.68-10.11,1-6.76,.62-13.52,1.15-20.29,1.6-3.39,.23-6.78,.43-10.15,.62-7.59,.43-15.18,.75-22.77,1-1.38,.04-2.75,.09-4.14,.13-1.26,.04-2.52,.08-3.8,.11,3.11-3.84,6.22-7.67,9.06-11.72,.41-.51,.83-1.02,1.22-1.54,6.42-8.63,12.56-17.44,18.44-26.43,.6-.04,1.21-.06,1.79-.09,3.73-.21,7.46-.45,11.19-.7,2.83-.19,5.65-.4,8.48-.62,19.76-1.53,39.44-3.71,59.03-6.78,5.71-.89,11.38-1.86,17.03-2.9,13.22-2.45,26.33-5.39,39.25-9.08,2.84-.81,5.67-1.66,8.49-2.54,1.41-.45,2.83-.9,4.24-1.37,2.13,.38,4.07,1.26,6.07,2,1.75,.64,3.5,1.32,5.26,2.02,4.95,1.96,9.81,4.13,14.52,6.63,1.86,.98,3.69,2.02,5.5,3.11,2.39,1.45,4.73,2.98,6.91,4.73,.64,.51,.83,.72,.58,1.02-.11,.15-.3,.3-.6,.53l.04-.04Z"/><path class="cls-6" d="M622.01,778.08c-.4,.24-.83,.24-1.24,.09,.11-.08,.21-.11,.3-.15,.17-.06,.32-.06,.49-.06,.15,0,.32,.04,.47,.11h-.02Z"/><path class="cls-6" d="M620.34,778.18c-.51,.23-1.02,.24-1.56,.09,.51-.3,1.04-.26,1.56-.09Z"/><path class="cls-6" d="M618.34,778.27c-.51,.23-1.02,.24-1.56,.09,.51-.32,1.02-.28,1.56-.09Z"/><path class="cls-6" d="M616.34,778.37c-.51,.24-1.02,.24-1.54,.08,0,0,.04,0,.06-.02,.49-.24,1-.24,1.49-.06h0Z"/><path class="cls-6" d="M613.29,778.35c.34-.08,.7-.04,1.05,.09-.51,.24-1.04,.24-1.56,.09,.17-.09,.34-.15,.51-.19Z"/><path class="cls-6" d="M611.54,778.39c.26,0,.53,.06,.81,.13-.51,.23-1.02,.24-1.54,.08,.24-.15,.49-.21,.73-.23v.02Z"/><path class="cls-6" d="M609.98,778.52c.13,.02,.24,.06,.36,.09-.49,.23-1.02,.24-1.54,.09,.36-.23,.73-.26,1.11-.19h.08Z"/><path class="cls-6" d="M608.34,778.71c-.6,.26-1.22,.24-1.85,.08,.6-.28,1.22-.26,1.85-.08Z"/><path class="cls-6" d="M606.04,778.78c-.51,.26-1.02,.23-1.54,.08,.49-.28,1.02-.28,1.54-.08Z"/><path class="cls-6" d="M738.19,658.55c.24,.04,.53,.04,.79,.08,.34,.04,.68,.13,.94,.41-.7-.06-1.38-.21-1.98-.55,.04,0,.09,0,.13,.02,.04,0,.08,0,.13,.02l-.02,.02Z"/><path class="cls-17" d="M451.33,824.68c.06,.11,.11,.23,.15,.32l-10.51,.04,.17-.34h10.17l.02-.02Z"/><path class="cls-10" d="M766.92,667.09c-1.41,.47-2.81,.92-4.24,1.37-2.83,.89-5.65,1.73-8.49,2.54-12.94,3.69-26.03,6.63-39.25,9.08-5.65,1.05-11.34,2.02-17.03,2.9-19.59,3.07-39.27,5.26-59.03,6.78-2.83,.23-5.65,.43-8.48,.62-3.73,.24-7.46,.49-11.19,.7-.6,.04-1.19,.06-1.79,.09,4.05-6.2,7.99-12.47,11.79-18.84,5.5-9.19,10.76-18.52,15.75-27.97,9.53,.83,19.04,1.79,28.55,2.96,.7,.08,1.39,.23,2.11,.34,4.26,.3,8.48,.94,12.68,1.56,5.41,.79,10.81,1.66,16.2,2.56,7.27,1.22,14.54,2.58,21.76,4.14,3.9,.85,7.78,1.71,11.68,2.56,.62,.34,1.28,.47,1.98,.55,8.33,2.13,16.63,4.37,24.79,7.06,.75,.24,1.62,.32,2.2,.96l.02,.02Z"/><path class="cls-4" d="M489.96,728.41c3.35,.26,6.72,.53,10.08,.75-3.37-.23-6.72-.49-10.08-.75Z"/><path class="cls-16" d="M382.42,803.47c-.26,0-.49-.08-.66-.28h.17s.06,.02,.09,.02c.02,0,.06,0,.08,.02,.04,0,.08,.04,.11,.06,0,0,.04,0,.06,.02l.11,.11h.02l.02,.06Z"/><path class="cls-16" d="M381.77,803.19c-.26,0-.51-.06-.66-.3h.21c.17,.04,.32,.11,.43,.28v.02h.02Z"/><path class="cls-16" d="M381.11,802.89c-.28,0-.55-.02-.66-.32v-.02h.02c.26,0,.51,.06,.64,.32v.02Z"/><path class="cls-16" d="M380.45,802.53v.04c-.26,0-.55,.04-.64-.32v-.04c.28-.04,.53,.02,.66,.32h-.02Z"/><path class="cls-16" d="M377.87,800.89c.19,.13,.41,.23,.62,.32,.15,.08,.3,.13,.45,.21,.26,.13,.51,.3,.68,.55,.06,.08,.11,.19,.17,.3-.89-.08-1.66-.43-2.34-1l.41-.38h0Z"/><path class="cls-4" d="M438.27,772.51c-.73,.11-1.47,.23-2.18,.34-2.83,.38-5.65,.6-8.49,.68-.94,.02-1.9,.04-2.84,.02-.96,0-1.9-.04-2.86-.08-.41-.02-.81-.08-1.22-.11-.4-.04-.81-.09-1.22-.13-.53-.04-.92-.26-1.32-.6-1.13-1.02-2.2-2.07-3.26-3.16,7.8,1.13,15.6,2.15,23.41,3.07v-.02Z"/><path class="cls-4" d="M560.97,640.83c-5.61,0-11.23,.08-16.84,.17-9.34,14.48-19.42,28.46-30.42,41.74-2.32,2.79-4.65,5.54-7.04,8.25-6.03,6.87-12.32,13.51-18.91,19.83-5.78,5.54-11.75,10.83-17.99,15.8-4.86,3.9-9.89,7.61-15.11,11.06-9.61,6.37-19.68,11.85-30.53,15.84-5.5,2.02-11.11,3.65-16.91,4.61-.32,.06-.62,.19-.94,.28,.02,.09,.06,.21,.08,.3,.02,.06,.04,.11,.08,.17,.41,.64,.83,1.26,1.26,1.86,.87,1.24,1.77,2.45,2.69,3.62,1.39,1.75,2.88,3.45,4.45,5.07,7.8,1.13,15.6,2.15,23.41,3.07,2.09-.32,4.16-.73,6.22-1.22,4.77-1.13,9.4-2.62,13.94-4.37,2.26-.89,4.5-1.83,6.71-2.84s4.39-2.09,6.55-3.24c.94-.49,1.86-1,2.81-1.51,6.48-3.56,12.7-7.55,18.65-11.85,5.97-4.31,11.7-8.95,17.25-13.81,.79-.7,1.58-1.39,2.37-2.11,.58-.53,1.15-1.05,1.75-1.6,3.56-3.26,7.06-6.61,10.47-10.04,1.32-1.34,2.62-2.67,3.92-4.05,4.28-4.48,8.44-9.06,12.49-13.75,2.43-2.81,4.8-5.67,7.14-8.55,.28-.34,.57-.7,.85-1.05,1.6-2,3.18-4.01,4.77-6.05,4.95-6.4,9.72-12.94,14.32-19.61,2.49-3.62,4.92-7.25,7.31-10.92,1.34-2.07,2.66-4.14,3.96-6.22,1.79-2.84,3.54-5.73,5.27-8.61-8.01-.19-15.99-.28-24-.28h0Z"/><path class="cls-7" d="M347.3,787.8c-.26,.06-.47-.02-.57-.3,.28-.06,.49,0,.57,.3Z"/><path class="cls-10" d="M513.39,642c-4.01,.19-8.02,.41-12.02,.66-4.39,6.22-8.93,12.34-13.67,18.31-4.65,5.88-9.42,11.64-14.43,17.23-2.84,3.16-5.71,6.31-8.65,9.4-2.07,2.18-4.18,4.35-6.35,6.46-8.61,8.42-17.63,16.37-27.33,23.54-1.62,1.19-3.24,2.35-4.9,3.5-5.44,3.79-11.08,7.29-16.93,10.43-4.24,2.3-8.61,4.33-13.03,6.2,.04,.21,0,.43,.09,.64,.62,1.71,1.28,3.39,2,5.07,.7,1.68,1.45,3.32,2.24,4.93,1.58,3.24,3.35,6.4,5.27,9.49l.04,.04c.13,.19,.36,.36,.53,.53,.32-.09,.62-.23,.94-.28,5.78-.96,11.4-2.6,16.91-4.61,10.85-3.97,20.93-9.47,30.53-15.84,5.22-3.45,10.25-7.16,15.11-11.06,6.23-4.99,12.21-10.28,17.99-15.8,6.61-6.33,12.88-12.96,18.91-19.83,2.39-2.71,4.73-5.46,7.04-8.25,11-13.28,21.08-27.26,30.42-41.74-10.25,.19-20.51,.49-30.74,1l.02-.02Z"/><path class="cls-8" d="M715.97,487.37s-.13-.02-.19-.02c.06,0,.11,0,.19,.02Z"/><path class="cls-8" d="M714.86,487.81c.32,0,.68,0,.47-.51,.15,0,.3,.04,.47,.06-.09,0-.17,.02-.23,.06-.13,.09-.13,.3-.09,.55-.21,0-.41-.02-.62-.04-.11,0-.24-.02-.36-.04-.24-.02-.51-.06-.75-.08-.57-.08-1.15-.19-1.7-.32,.96-.06,1.88,.28,2.83,.34l-.02-.02Z"/><path class="cls-4" d="M422.62,681.97c.41,.08,.81,.13,1.21,.21-7.85,7.59-16.1,14.71-24.9,21.23-3.2,2.37-6.4,4.75-9.87,6.76-.64-2.77-.92-5.59-1.24-8.42-1.09-9-1.51-18.04-1.53-27.09,2.18,.53,4.37,1.04,6.57,1.54,6.42,1.47,12.86,2.77,19.33,3.96,3.48,.64,6.97,1.24,10.45,1.83l-.02-.02Z"/><path class="cls-11" d="M458.58,646.31c-.92,.11-1.86,.19-2.81,.28-9.27,11.79-19.16,23.04-29.89,33.57-.68,.68-1.38,1.34-2.05,2,.32,.06,.64,.11,.94,.17-.32-.06-.62-.11-.94-.15-7.85,7.59-16.1,14.71-24.9,21.23-3.2,2.37-6.4,4.75-9.87,6.76,.04,.38,.06,.77,.09,1.15,0,.11,0,.21,.04,.32,.08,.43,.17,.87,.24,1.3,.06,.36,.11,.7,.19,1.05,.17,.87,.34,1.75,.51,2.64,1,4.97,2.18,9.89,3.67,14.73,.68,2.17,1.22,4.39,2.32,6.42,4.43-1.86,8.8-3.9,13.03-6.2,5.86-3.16,11.49-6.67,16.93-10.43,1.66-1.13,3.28-2.3,4.9-3.5,9.7-7.16,18.72-15.13,27.33-23.54,2.17-2.11,4.26-4.28,6.35-6.46,2.94-3.09,5.8-6.23,8.65-9.4,4.99-5.59,9.78-11.36,14.43-17.23,4.73-5.99,9.29-12.09,13.67-18.31-14.28,.87-28.54,2.07-42.78,3.65l-.06-.04Z"/><path class="cls-4" d="M424.77,682.32c-.32-.06-.62-.11-.94-.15,.32,.06,.64,.11,.94,.15Z"/><path class="cls-15" d="M423.83,682.15c-.4-.06-.81-.13-1.21-.21l1.21,.19v.02Z"/><path class="cls-15" d="M412.17,680.14c3.48,.64,6.97,1.24,10.45,1.83-3.48-.58-6.99-1.19-10.45-1.83Z"/><path class="cls-10" d="M449.65,647.48c2.02-.43,4.07-.66,6.12-.87-9.27,11.79-19.16,23.04-29.89,33.57-.68,.68-1.38,1.34-2.05,2l-1.21-.19c-3.48-.58-6.97-1.19-10.45-1.83-6.46-1.19-12.92-2.49-19.33-3.96-2.18-.51-4.39-1.02-6.57-1.54,0-3.41,.04-6.84,.13-10.27,.06-2.03,.15-4.05,.26-6.07,7.44-1.77,14.94-3.33,22.45-4.77,12.85-2.43,25.77-4.41,38.73-6.01,.21-.02,.41-.06,.62-.08,.24-.04,.49-.06,.73-.04,.15,0,.3,.04,.45,.08v-.04Z"/><path class="cls-2" d="M678.78,482.85c7.5,.92,15.01,1.83,22.51,2.75-.04,.08-.09,.15-.17,.23-4.65-.57-9.32-1.11-13.98-1.71-1.36-.17-2.71-.28-4.07-.43s-2.71-.3-4.05-.57c-.08-.09-.15-.17-.24-.24v-.02Z"/><path class="cls-4" d="M642.06,506.15c.28-1.05,.55-2.15,.83-3.2-.26,1.07-.55,2.15-.83,3.2Z"/><path class="cls-4" d="M857.54,656.82v-30.95c-.66-2.88-1.56-5.69-3.16-8.21-2.58-4.07-5.65-7.7-9.49-10.68-4.01-3.11-8.12-6.03-12.54-8.51-6.08-3.41-12.41-6.29-18.76-9.14-1.13-.51-2.3-.75-3.43-1.21-14.35-5.61-29.12-9.83-44.08-13.47-9.57-2.34-19.21-4.33-28.89-6.14-10.87-2.03-21.79-3.79-32.74-5.29-7.55-1.04-15.11-1.98-22.68-2.83-3.37-.38-6.74-.73-10.11-1.07-9.53-.92-19.08-1.79-28.63-2.47-5.63-.41-11.28-.77-16.91-1.09-4.78-.26-9.59-.51-14.39-.73-7.55-.34-15.09-.6-22.64-.77-.55,0-1.09-.04-1.64-.04-11.92-.26-23.86-.34-35.79-.23h-.58c-12.28,.11-24.56,.4-36.82,.9-.73,.02-1.47,.08-2.2,.09-14.52,.62-29.01,1.53-43.49,2.75-21.27,1.79-42.46,4.22-63.53,7.53-.51,.08-1,.17-1.51,.24-.81,2.86-1.54,5.76-2.56,8.57-.72,2.86-1.43,5.73-2.17,8.57-1.94,7.59-3.69,15.22-5.22,22.9,1.07-.19,2.15-.36,3.22-.55,1.41-.24,2.83-.47,4.22-.72,2.09-.34,4.18-.68,6.27-1.02,7.55-1.17,15.14-2.22,22.72-3.18,7.59-.96,15.18-1.81,22.79-2.56,5.07-.51,10.15-.98,15.24-1.41,7.68-.64,15.39-1.19,23.09-1.68,7.25-.45,14.5-.81,21.76-1.11,1.86-.08,3.73-.17,5.59-.24,2.77-.11,5.56-.19,8.33-.28,1.79-.06,3.58-.09,5.39-.13,6.54-.17,13.07-.26,19.61-.32,2.47,0,4.92-.04,7.38-.04,4.22,0,8.44,0,12.64,.04,1.53,0,3.05,.02,4.58,.06,1.64,.02,3.28,.04,4.92,.06,4.46,.08,8.91,.19,13.37,.32,4.46,.13,8.91,.3,13.37,.47,.73,.02,1.47,.08,2.2,.09,4.78,.21,9.57,.45,14.33,.7,3.67,.21,7.35,.43,11.02,.66,5.5,.36,11.02,.75,16.52,1.21,5.07,.41,10.13,.89,15.22,1.39,.17,0,.36,.04,.53,.06,3.64,.36,7.27,.72,10.91,1.09,5.82,.58,11.64,1.28,17.46,2.05,5.8,.77,11.6,1.6,17.4,2.47,2.41,.36,4.82,.73,7.21,1.11,7.21,1.17,14.41,2.45,21.57,3.86,4.22,.83,8.42,1.7,12.62,2.6,4.2,.9,8.38,1.88,12.56,2.9,6.35,1.56,12.66,3.24,18.89,5.07,8.33,2.45,16.58,5.2,24.66,8.42,2.03,.79,4.03,1.64,6.05,2.49,3.05,1.32,6.05,2.77,9.02,4.24,.73,.36,1.47,.72,2.2,1.09,.57,.28,1.15,.57,1.71,.85,.75,.38,1.51,.75,2.24,1.17,.94,.51,1.86,1.05,2.73,1.66,3.35,2.32,6.8,4.5,9.91,7.14,.72,.62,1.41,1.24,2.09,1.9,.81,.68,1.58,1.41,2.32,2.15,1.22,1.22,2.35,2.54,3.35,3.92,.49,.68,.94,1.37,1.38,2.09,.38,.62,.72,1.24,1.04,1.88s.62,1.3,.89,2c.28,.68,.53,1.37,.75,2.07,.15,.49,.32,1,.47,1.49,0,0,0,.04,.02,.06v-.06c.4-2.09,.15-4.2,.17-6.31l.06,.06Z"/><path class="cls-10" d="M857.67,621.79c.02-7.82,.02-15.61,0-23.43,0-3.6-.04-7.21-.06-10.81-.62-2.03-1.05-4.12-1.98-6.07-2.35-4.88-5.88-8.8-9.95-12.3-4.45-3.84-9.36-7.03-14.52-9.83-7.48-4.11-15.24-7.61-23.24-10.57-9.27-3.43-18.67-6.46-28.2-9.06-7.29-1.98-14.62-3.8-21.96-5.48-8.38-1.9-16.8-3.58-25.26-5.07-8.78-1.53-17.59-2.99-26.43-4.22-4.18-.58-8.38-1.13-12.58-1.66-9.38-1.21-18.78-2.26-28.2-3.09-1.75-.17-3.48-.41-5.24-.55-7.12-.55-14.24-1.07-21.34-1.58-1.02-.08-2.03-.15-3.05-.23-4.75-.34-9.49-.68-14.24-.92-6.18-.3-12.36-.53-18.53-.75h-.17c-6.46-.23-12.9-.47-19.36-.58-5.69-.09-11.38-.15-17.08-.17-2.51,0-5.01-.02-7.53-.02-9.98,0-19.95,.15-29.91,.43h-.43c-11.7,.34-23.41,.81-35.09,1.56-8.98,.57-17.97,1.07-26.93,1.83-3.64,.3-7.25,.75-10.87,1.11-12.64,1.26-25.24,2.73-37.8,4.5-.15,.02-.28,.04-.43,.06-5.03,13.02-9.55,26.2-13.52,39.59-.09,.34-.19,.66-.28,1,.49-.08,1-.17,1.51-.24,21.08-3.32,42.27-5.76,63.53-7.53,14.48-1.21,28.97-2.13,43.49-2.75,.73-.04,1.47-.08,2.2-.09,12.26-.51,24.54-.79,36.82-.9h.58c11.94-.09,23.86-.02,35.79,.23,.55,0,1.09,.04,1.64,.04,7.55,.17,15.09,.43,22.64,.77,4.8,.23,9.59,.47,14.39,.73,5.63,.32,11.28,.68,16.91,1.09,9.55,.7,19.1,1.54,28.63,2.47,3.37,.34,6.74,.7,10.11,1.07,7.57,.85,15.13,1.79,22.68,2.83,10.94,1.51,21.87,3.26,32.74,5.29,9.68,1.81,19.33,3.8,28.89,6.14,14.96,3.64,29.72,7.85,44.08,13.47,1.13,.45,2.3,.7,3.43,1.21,6.35,2.86,12.68,5.73,18.76,9.14,4.43,2.49,8.53,5.41,12.54,8.51,3.84,2.98,6.91,6.61,9.49,10.68,1.6,2.52,2.49,5.33,3.16,8.21,.26-1.36,.11-2.73,.11-4.09l.06,.04Z"/><path class="cls-4" d="M636.22,326.5c5.2,8.12,8.97,16.9,11.81,26.09,.89,2.84,1.68,5.71,2.39,8.59,1.19,4.8,2.11,9.68,2.84,14.58,.21,1.43,.41,2.86,.6,4.31,.36,2.88,.68,5.76,.94,8.65,.11,1.45,.23,2.88,.34,4.33,.53,7.87,.75,15.75,.55,23.64-.23,8.25-.72,16.5-1.54,24.73-.83,8.17-1.96,16.31-3.32,24.39-.81,4.86-1.71,9.7-2.69,14.5-7.8-.62-15.6-1.15-23.41-1.53-3.75-.17-7.52-.38-11.28-.57,2.54-10.92,4.69-21.92,6.37-33.04,1.85-12.3,3.16-24.64,3.65-37.05,.4-10.55,.34-21.11-.51-31.66-.72-8.8-1.9-17.5-3.79-26.13-2.13-9.7-5.12-19.12-9.42-28.1-1.7-3.56-3.69-6.97-5.69-10.36,1.64-.53,3.35-.58,5.03-.75,.89-.09,1.77-.17,2.64-.23,.75-.04,1.51-.08,2.26-.09,1.22-.02,2.45-.02,3.67,0,.85,.02,1.71,.06,2.56,.09,.66,.04,1.32,.08,1.98,.13,.11,0,.23,.02,.32,.04,.21,.04,.4,.09,.58,.17,.19,.08,.36,.17,.53,.28,.24,.15,.49,.36,.72,.57,.58,.53,1.15,1.07,1.7,1.62,1.11,1.09,2.18,2.24,3.2,3.41,2.58,2.92,4.9,6.03,7.03,9.34l-.06,.04Z"/><path class="cls-10" d="M619.11,350.35c1.88,8.61,3.07,17.33,3.79,26.13,.87,10.55,.92,21.11,.51,31.66-.47,12.41-1.79,24.75-3.65,37.05-1.68,11.11-3.82,22.13-6.37,33.04-2.84-.13-5.71-.28-8.55-.4-6.52-.24-13.02-.4-19.53-.53-2.43-.06-4.86-.09-7.27-.13,2.37-8.95,4.46-17.97,6.25-27.05,1.36-6.8,2.52-13.64,3.56-20.49,.68-4.6,1.28-9.19,1.81-13.81,.55-4.82,.98-9.66,1.28-14.52,.32-5.18,.53-10.38,.64-15.56,.13-6.95-.09-13.88-.6-20.81-.34-4.58-.77-9.14-1.36-13.69-.79-6.23-1.92-12.39-3.41-18.5-1.19-4.88-2.54-9.74-4.35-14.45,1.24-.79,2.67-1.19,4.05-1.7,2.79-1.04,5.59-1.94,8.46-2.73,2.86-.77,5.74-1.43,8.68-1.92,.21-.04,.4-.09,.6-.09,.13,0,.24,0,.36,.04,2,3.39,3.99,6.78,5.69,10.36,4.29,8.98,7.29,18.4,9.42,28.1h0Z"/><path class="cls-17" d="M700.99,334.37s-.08-.06-.08-.09v-.08l.09,.06-.04,.09,.02,.02Z"/><path class="cls-14" d="M857.5,700.26c.02-.49,.06-.98,.06-1.47,0-8.06,.02-16.14,.02-24.2,0-3.48-.06-6.97-.08-10.45,0-.21,.09-.43,.08-.64-.06-.13-.13-.23-.19-.34v.04s0-.04-.02-.06c-.15-.51-.32-1-.47-1.51-.23-.72-.49-1.41-.75-2.07-.26-.68-.57-1.34-.89-2-.32-.64-.68-1.28-1.04-1.88-.43-.72-.89-1.41-1.37-2.09-1-1.39-2.11-2.69-3.35-3.92-.73-.73-1.51-1.45-2.32-2.15-.68-.68-1.38-1.3-2.09-1.9-3.11-2.64-6.55-4.82-9.91-7.14-.89-.6-1.81-1.15-2.73-1.66-.73-.4-1.49-.79-2.24-1.17-.57-.28-1.15-.57-1.71-.85-.73-.38-1.47-.73-2.2-1.09-2.98-1.47-5.97-2.92-9.02-4.24-2.02-.85-4.01-1.7-6.05-2.49-8.1-3.2-16.33-5.97-24.66-8.42-6.25-1.85-12.56-3.52-18.89-5.07-4.18-1.02-8.36-2-12.56-2.9-4.2-.9-8.4-1.77-12.62-2.6-7.18-1.41-14.37-2.71-21.57-3.86-2.41-.38-4.8-.75-7.21-1.11-5.8-.87-11.58-1.7-17.4-2.47-5.8-.77-11.62-1.47-17.46-2.05-3.64-.36-7.27-.73-10.91-1.09-.17,0-.36-.04-.53-.06-5.07-.51-10.13-.98-15.22-1.39-5.5-.45-11.02-.83-16.52-1.21-3.67-.24-7.35-.47-11.02-.66-4.78-.26-9.57-.51-14.33-.7-.73-.04-1.47-.08-2.2-.09-4.46-.19-8.91-.34-13.37-.47-4.46-.13-8.91-.24-13.37-.32-1.64-.02-3.28-.04-4.92-.06-1.53-.02-3.05-.04-4.58-.06-4.22-.04-8.44-.06-12.64-.04-2.47,0-4.93,.02-7.38,.04-6.54,.06-13.07,.15-19.61,.32-1.79,.04-3.58,.09-5.39,.13-2.77,.08-5.56,.17-8.33,.28-1.86,.08-3.73,.17-5.59,.24-7.25,.3-14.5,.68-21.76,1.11-7.7,.49-15.41,1.02-23.09,1.68-5.09,.43-10.17,.9-15.24,1.41-7.61,.75-15.2,1.6-22.79,2.56-7.59,.96-15.16,2.02-22.72,3.18-2.09,.32-4.18,.66-6.27,1.02-1.41,.23-2.81,.47-4.22,.72-1.07,.19-2.15,.36-3.22,.55,1.53-7.68,3.28-15.31,5.22-22.9,.73-2.86,1.45-5.71,2.17-8.57,1.02-2.81,1.75-5.71,2.56-8.57,.09-.34,.19-.66,.28-1,3.97-13.39,8.5-26.6,13.52-39.59,3.18-8.25,6.57-16.42,10.17-24.52,2.41-5.42,4.92-10.83,7.5-16.16,8.53-17.65,18.01-34.81,28.52-51.4,9.81-15.56,20.49-30.48,32.19-44.68,.24-.28,.43-.62,.66-.92,3.52-4.03,6.99-8.1,10.59-12.07,11.72-12.98,24.34-24.99,38.31-35.52,3.45-2.6,7.01-5.05,10.53-7.55,.32-.23,.72-.26,1.09-.28,.17-.51,.64-.73,1.04-.98,7.21-4.61,14.71-8.72,22.6-12.04,.28-.11,.55-.26,.85-.36,.08-.02,.17-.04,.26-.06,.09,0,.19-.04,.28-.04,1.24-.79,2.67-1.19,4.05-1.7,2.79-1.04,5.59-1.94,8.46-2.73,2.86-.77,5.74-1.43,8.68-1.92,.21-.04,.4-.09,.6-.09,.13,0,.24,0,.36,.04,1.64-.53,3.35-.58,5.03-.75,.89-.09,1.77-.17,2.64-.23,.75-.04,1.51-.08,2.26-.09,1.22-.02,2.45-.02,3.67,0,.85,.02,1.71,.06,2.56,.09,.66,.04,1.32,.08,1.98,.13,.11,0,.23,.02,.32,.04,.21,.04,.4,.09,.58,.17,.19,.08,.36,.17,.53,.28,.24,.15,.49,.36,.72,.57,.58,.53,1.15,1.07,1.7,1.62,1.11,1.09,2.18,2.24,3.2,3.41,2.58,2.92,4.9,6.03,7.03,9.34,5.2,8.12,8.97,16.9,11.81,26.09,.89,2.84,1.68,5.71,2.39,8.59,1.19,4.8,2.11,9.68,2.84,14.58,.21,1.43,.41,2.86,.6,4.31,.36,2.88,.68,5.76,.94,8.65,.11,1.45,.23,2.88,.34,4.33,.53,7.87,.75,15.75,.55,23.64-.23,8.25-.72,16.5-1.54,24.73-.83,8.17-1.96,16.31-3.32,24.39-.81,4.86-1.71,9.7-2.69,14.5,1.26,.09,2.52,.19,3.79,.3,9.06,.75,18.1,1.66,27.14,2.49-.08-.09-.15-.17-.24-.24,7.5,.92,15.01,1.83,22.51,2.75-.04,.08-.09,.15-.17,.23,.45,.06,.9,.13,1.36,.19,1.51-7.42,2.86-14.84,4.01-22.32,1.02-6.71,1.92-13.43,2.62-20.17,.66-6.31,1.24-12.62,1.54-18.97,.15-3.05,.32-6.12,.51-9.17,.02-.4-.19-.92,.43-1.09,0-5.69-.04-11.4-.06-17.08-.3-.13-.32-.4-.36-.68-.08-1.15-.21-2.28-.24-3.43-.23-8.27-.98-16.48-2.09-24.66-1.22-9.06-3.03-17.99-5.54-26.78-.62-2.2-1.15-4.43-2.13-6.52l-.21-.75s-.08-.06-.08-.09v-.08c-.06-.26-.09-.53-.19-.79-3.64-10.49-8.38-20.44-14.92-29.48-6.29-8.72-13.88-16.01-23.24-21.43-3.5-2.03-7.31-3.47-10.91-5.29-.32-.17-.73-.13-1.11-.21-.32-.41-.83-.53-1.26-.73-8.49-3.77-16.97-7.53-25.48-11.26-1.09-.49-2.09-1.21-3.32-1.36-.21-.08-.41-.13-.62-.21-1.45-.47-2.94-.81-4.33-1.47-.13-.04-.24-.08-.38-.13-.06-.02-.13-.04-.19-.06h-.04c-.15,.09-.24,.02-.34-.11-2.73-.7-5.46-1.22-8.23-1.6-2-.28-3.99-.49-6.01-.6-.68-.04-1.34-.06-2.02-.08-2.02-.06-4.01-.04-6.01,.06-2.66,.11-5.29,.36-7.93,.72-4.6,.64-9.15,1.6-13.67,2.84-.64,.19-1.3,.36-1.94,.57-8.49,2.52-16.59,5.93-24.41,9.96-2.6,1.34-5.18,2.75-7.74,4.24-2.34,1.34-4.63,2.71-6.91,4.16-.75,.47-1.51,.96-2.26,1.45-.75,.49-1.51,.98-2.24,1.49-1.49,1-2.96,2.02-4.41,3.07-.72,.53-1.45,1.05-2.17,1.58v.15s-.04,.08-.06,.11c-.06,.06-.13,.08-.24,.08h-.02v.09c0,.08-.04,.11-.08,.13-.04,.02-.08,.02-.15,0-.02,0-.06,0-.08-.04-3.2,2.24-6.31,4.58-9.34,7.01-1.36,1.07-2.69,2.18-4.01,3.3-.21,.17-.41,.36-.62,.53-1.36,1.15-2.71,2.32-4.05,3.5v.09c0,.09-.04,.15-.09,.21,0,0-.04,.02-.06,.04-.04,.02-.09,.04-.15,.04-.04,.08-.09,.15-.15,.21-.08,.08-.13,.15-.23,.21-.11,.08-.24,.15-.4,.17,0,.17-.04,.26-.11,.3-.11,.08-.32,.02-.47,.04-.51,.53-1.04,1.05-1.54,1.56-.04,.04-.06,.08-.09,.09v.08c0,.08-.04,.11-.08,.17h-.02s-.11,.06-.23,.06c-.45,.38-.94,.72-1.37,1.11-.04,.04-.08,.06-.11,.09-1.66,1.56-3.33,3.13-4.97,4.73-.11,.11-.23,.21-.32,.3-.51,.51-1.04,.98-1.56,1.47-1.32,1.22-2.67,2.41-3.94,3.69-.68,.7-1.37,1.39-2.05,2.07-3.92,3.97-7.8,7.99-11.55,12.13-4.78,5.29-9.44,10.68-13.96,16.18-.64,.79-1.3,1.56-1.94,2.35-.09,.11-.21,.24-.28,.38-.13,.19-.26,.38-.4,.58-.17,.26-.34,.53-.51,.77-.13,.19-.26,.36-.41,.55-.06,.06-.09,.11-.13,.15-.21,.23-.41,.43-.66,.6,0,.06-.02,.08-.04,.11,0,.04,0,.08-.04,.11,0,.02-.04,.04-.06,.06-.04,.02-.09,.04-.13,.06-.11,.53-.55,.79-.9,1.13-.02,0-.04,.04-.06,.06-.11,.09-.19,.21-.26,.32-.04,.06-.08,.11-.09,.19s-.06,.13-.08,.21v.09c0,.09-.04,.15-.11,.21,0,0-.04,0-.04,.02h-.15c-.83,1.04-1.68,2.07-2.51,3.11-.04,.06-.09,.11-.13,.17,.02,.13,.02,.24,0,.36,0,.09-.06,.15-.09,.23,0,.02-.04,.06-.04,.08-.06,.06-.13,.13-.21,.17-.09,.06-.21,.09-.32,.13-.13,.15-.26,.28-.4,.43-.06,.06-.09,.11-.13,.15-.11,.11-.21,.24-.3,.36-2.13,2.86-4.26,5.74-6.39,8.61,0,.09-.04,.15-.09,.21l-.04,.04s-.09,.06-.15,.06c-1.47,2.07-2.98,4.13-4.43,6.22l-.85,1.24c-2.17,3.18-4.2,6.46-6.39,9.63-1.09,1.58-2.13,3.2-3.16,4.8-1.05,1.6-2.11,3.2-3.26,4.77-1.83,2.51-3.39,5.24-4.99,7.89-.7,1.15-1.39,2.3-2.07,3.45-7.74,12.85-15.26,25.82-21.66,39.4-.38,.79-.81,1.53-1.24,2.28-.43,.73-.89,1.49-1.26,2.24-2.18,4.39-4.31,8.8-6.39,13.24-.77,1.66-1.53,3.32-2.3,4.99-1,2.17-1.98,4.35-2.94,6.54-1.22,2.77-2.45,5.56-3.65,8.36-.51,1.17-1,2.35-1.49,3.54-.62,1.47-1.24,2.94-1.85,4.43-2.15,5.22-4.22,10.49-6.23,15.77-.58,1.54-1.17,3.09-1.73,4.65-1.37,3.77-2.71,7.53-4.05,11.32-.32,.9-.64,1.81-.96,2.71-.24,.7-.49,1.41-.72,2.13-.62,1.79-1.21,3.6-1.77,5.41-.7,2.2-1.38,4.41-2.05,6.61-.49,1.58-.98,3.15-1.49,4.73-1.15,3.52-2.49,7.01-2.94,10.72-.02,.19-.24,.36-.36,.53-.57,1.54-.9,3.13-1.28,4.71-.19,.75-.41,1.51-.64,2.26-.23,.75-.45,1.51-.66,2.26-.87,3.24-1.71,6.5-2.51,9.76-.73,2.94-1.43,5.91-2.11,8.87-.75,3.33-1.47,6.67-2.17,10-.6,2.92-1.19,5.86-1.73,8.8-.43,2.34-.87,4.65-1.26,6.99-.36,2.05-.68,4.11-1.02,6.16-.41,2.62-.81,5.22-1.17,7.84-.32,2.35-.62,4.69-.92,7.04-.79,6.46-1.43,12.92-1.94,19.42-.13,1.86-.26,3.71-.36,5.58-.11,1.86-.21,3.71-.28,5.58-.15,3.71-.26,7.44-.38,11.15-.02,.85-.02,1.7-.04,2.54v.77c-.02,4.77,.17,9.51,.32,14.24,0,.21,.04,.43,.04,.64,.04,.85,.08,1.7,.13,2.54,.17,3.43,.45,6.86,.81,10.28,.24,2.32,.51,4.65,.81,6.97,.04,.34,.09,.66,.13,1,.64,4.71,1.38,9.4,2.3,14.05,1.71,8.7,3.99,17.25,7.12,25.56,.06,.13,.11,.28,.17,.43,2.34,6.14,5.05,12.11,8.38,17.8,5.48,9.36,12.17,17.65,20.7,24.26,1.02,.79,2.05,1.54,3.11,2.3,1.02,.7,2.11,1.34,3.16,1.98,.19,.13,.41,.23,.62,.32,.15,.08,.3,.13,.45,.21,.26,.13,.51,.3,.68,.55,.06,.08,.11,.19,.17,.3v-.04c.28-.04,.53,.02,.66,.32h.02c.26,0,.51,.08,.64,.32,.08,0,.13,0,.19,.02h.02c.17,.04,.32,.11,.43,.28v.02h.17s.06,.02,.11,.02c.02,0,.06,0,.08,.02,.04,0,.08,.04,.11,.06,0,0,.04,0,.06,.02l.11,.11h.02c.36,.38,.85,.47,1.3,.68,9.4,4.16,18.82,8.33,28.22,12.49,4.65,2.05,9.27,4.22,14.18,5.58,4.92,1.36,9.91,2.28,15.01,2.49h10.17c2.47-.08,4.92-.4,7.35-.77,9.89-1.49,19.38-4.41,28.55-8.34,16.8-7.21,31.96-17.07,46.19-28.46,3.13-2.51,6.18-5.09,9.21-7.7,10.57,.19,21.11,.24,31.68,.13,10.06-.11,20.14-.28,30.19-.68,.49-.28,1.02-.28,1.54-.08h.45c.6-.28,1.22-.26,1.85-.08h.45c.36-.23,.73-.26,1.11-.19h.06c.13,.04,.24,.08,.36,.11h.45c.24-.15,.49-.21,.73-.23,.26,0,.53,.06,.81,.13h.45c.17-.09,.34-.15,.51-.19,.34-.08,.7-.04,1.05,.09h.43s.04,0,.06-.02c.49-.24,1-.24,1.49-.06h.43c.51-.32,1.02-.28,1.56-.09h.43c.51-.3,1.04-.26,1.56-.09h.43c.11-.08,.21-.11,.3-.15,.17-.06,.32-.06,.49-.06,.15,0,.32,.04,.47,.11,2.3-.11,4.58-.19,6.87-.32,17.59-1.04,35.13-2.43,52.65-4.37,26.6-2.96,53.02-6.93,79.13-12.88,17.78-4.05,35.32-8.91,52.27-15.75,9.1-3.67,17.93-7.87,26.11-13.37,4.92-3.32,9.47-7.04,13.13-11.81,2.3-3.03,4.16-6.29,4.88-10.1,.28-.3,.4-.66,.41-1.04,.17-2.73,.26-5.44,.02-8.17l-.15,.02Zm-236.1-57.62c-4.9-.3-9.78-.57-14.67-.77,4.9,.23,9.78,.49,14.67,.77Zm-108.63,88.92c-.79,.7-1.58,1.41-2.37,2.11-5.56,4.88-11.28,9.49-17.25,13.81-5.97,4.29-12.17,8.29-18.65,11.85-.92,.51-1.86,1.02-2.81,1.51-2.17,1.13-4.35,2.2-6.55,3.24-2.2,1.02-4.45,1.96-6.71,2.84-4.52,1.77-9.15,3.24-13.94,4.37-2.07,.49-4.14,.9-6.22,1.22-.73,.11-1.47,.23-2.18,.34-2.83,.38-5.65,.6-8.49,.68-.94,.02-1.9,.04-2.84,.02-.96,0-1.9-.04-2.86-.08-.41-.02-.81-.08-1.22-.11-.4-.04-.81-.09-1.22-.13-.53-.04-.92-.26-1.32-.6-1.13-1.02-2.2-2.07-3.26-3.16-1.56-1.62-3.05-3.32-4.45-5.07-.92-1.17-1.83-2.37-2.69-3.62-.43-.62-.85-1.24-1.26-1.86-.04-.06-.06-.11-.08-.17-.02-.09-.06-.21-.08-.3-.17-.17-.4-.34-.53-.53l-.04-.04c-1.94-3.07-3.69-6.23-5.27-9.49-.79-1.64-1.54-3.26-2.24-4.93-.72-1.66-1.37-3.35-2-5.07-.08-.21-.06-.41-.09-.64-1.09-2.03-1.64-4.26-2.32-6.42-1.51-4.84-2.69-9.76-3.67-14.73-.17-.89-.34-1.75-.51-2.64-.08-.36-.11-.7-.19-1.05-.08-.43-.17-.87-.24-1.3,0-.11,0-.21-.04-.32-.04-.38-.06-.77-.09-1.15-.64-2.77-.92-5.59-1.24-8.42-1.09-9-1.51-18.04-1.53-27.09,0-3.41,.04-6.84,.13-10.27,.06-2.03,.15-4.05,.26-6.07,7.44-1.77,14.94-3.33,22.45-4.77,12.85-2.43,25.77-4.41,38.73-6.01,.21-.02,.41-.06,.62-.08,.24-.04,.49-.06,.73-.04,.15,0,.3,.04,.45,.08,2.02-.43,4.07-.66,6.12-.87,.94-.09,1.88-.19,2.81-.28,14.24-1.58,28.5-2.79,42.78-3.65,4.01-.24,8.02-.47,12.02-.66,10.25-.49,20.49-.81,30.74-1,5.61-.11,11.23-.17,16.84-.17,8.01,0,16.01,.09,24,.28-1.73,2.88-3.48,5.76-5.27,8.61-1.3,2.09-2.62,4.16-3.96,6.22-2.39,3.67-4.82,7.31-7.31,10.92-4.6,6.67-9.36,13.2-14.32,19.61-1.56,2.03-3.15,4.05-4.77,6.05-.28,.36-.57,.72-.85,1.05-2.34,2.9-4.71,5.74-7.14,8.55-4.05,4.69-8.21,9.27-12.49,13.75-1.3,1.36-2.6,2.71-3.92,4.05-3.39,3.43-6.89,6.78-10.47,10.04,1.09,.06,2.18,.09,3.28,.15-1.09-.06-2.18-.09-3.28-.15-.58,.53-1.17,1.07-1.75,1.6l.02-.02Zm19.06-.9c4.14,.13,8.31,.24,12.45,.32-4.16-.08-8.31-.19-12.45-.32Zm273.91-44.11c-.11,.15-.3,.3-.6,.53-.4,.3-.79,.62-1.21,.9-.4,.3-.81,.58-1.22,.89-.77,.55-1.56,1.07-2.37,1.58-.09,.06-.19,.11-.28,.19-.66,.41-1.32,.83-2,1.22-1,.6-1.98,1.17-2.99,1.73-6.89,3.84-14.15,6.93-21.55,9.66-6.99,2.56-14.07,4.8-21.21,6.8-10.23,2.86-20.59,5.24-31.04,7.31-10.15,2.03-20.34,3.75-30.57,5.24-10.23,1.49-20.49,2.73-30.78,3.8-3.37,.36-6.74,.68-10.11,1-6.76,.62-13.52,1.15-20.29,1.6-3.39,.23-6.78,.43-10.15,.62-7.59,.43-15.18,.75-22.77,1-1.38,.04-2.75,.09-4.14,.13-1.26,.04-2.52,.08-3.8,.11,3.11-3.84,6.22-7.67,9.06-11.72,.41-.51,.83-1.02,1.22-1.54,6.08-8.19,11.92-16.54,17.54-25.03,.3-.47,1.86-2.84,2.34-3.58,3.56-5.48,7.01-11.02,10.38-16.63,5.5-9.19,10.76-18.52,15.75-27.97,9.53,.83,19.04,1.79,28.55,2.96,.7,.08,1.39,.23,2.11,.34,4.26,.3,8.48,.94,12.68,1.56,5.41,.79,10.81,1.66,16.2,2.56,7.27,1.22,14.54,2.58,21.76,4.14,3.9,.85,7.78,1.71,11.68,2.56,.04,0,.09,0,.13,.02,.04,0,.08,0,.13,.02,.24,.04,.53,.04,.79,.08,.34,.04,.68,.13,.94,.41,8.33,2.13,16.63,4.37,24.79,7.06,.75,.24,1.62,.32,2.2,.96,2.13,.38,4.07,1.26,6.07,2,1.75,.64,3.5,1.32,5.24,2.02,4.95,1.96,9.81,4.13,14.52,6.63,1.86,.98,3.69,2.02,5.5,3.11,2.39,1.45,4.73,2.98,6.91,4.73,.64,.51,.83,.72,.58,1.02l.04-.02Z"/><path class="cls-11" d="M857.67,550.79c-.23-4.5-1.94-8.48-4.56-12.09-3.69-5.14-8.46-9.15-13.62-12.7-8.8-6.03-18.42-10.45-28.27-14.41-5.48-2.2-11.04-4.16-16.65-5.97-8.55-2.75-17.23-5.1-25.96-7.25-10.91-2.67-21.87-4.99-32.91-7.01-6.72-1.22-13.47-2.41-20.23-3.39-.21,0-.41-.02-.62-.04-.11,0-.24-.02-.36-.04-.24-.02-.51-.06-.75-.08-.57-.08-1.15-.19-1.7-.32-2.02-.32-4.01-.64-6.03-.98-1.17-.17-2.34-.34-3.5-.49-.45-.08-.9-.13-1.36-.19-4.65-.57-9.32-1.11-13.98-1.71-1.36-.17-2.71-.28-4.07-.43-1.36-.13-2.71-.3-4.05-.57-9.04-.85-18.08-1.75-27.14-2.49-1.26-.09-2.52-.21-3.79-.3-7.8-.62-15.6-1.15-23.41-1.53-3.75-.17-7.52-.38-11.28-.57-2.84-.13-5.71-.28-8.55-.4-6.52-.24-13.02-.4-19.53-.53-2.43-.06-4.86-.09-7.27-.13-4.09-.08,0,0,0,0,0,0,4.46-17.97,6.25-27.05,1.36-6.8,2.52-13.64,3.56-20.49,.68-4.6,1.28-9.19,1.81-13.81,.55-4.82,.98-9.66,1.28-14.52,.32-5.18,.53-10.38,.64-15.56,.13-6.95-.09-13.88-.6-20.81-.34-4.58-.77-9.14-1.36-13.69-.79-6.23-1.92-12.39-3.41-18.5-1.19-4.88-2.54-9.74-4.35-14.45-.09,0-.19,0-.28,.04-.09,0-.19,.04-.26,.06-.3,.09-.57,.24-.85,.36-7.91,3.32-15.39,7.44-22.6,12.04-.41,.26-.87,.47-1.04,.98,1.73,10.94,2.54,21.94,2.64,33.02,.15,15.84-1.02,31.59-3.18,47.28-1.64,11.81-3.8,23.53-6.44,35.17-2.28,10.1-4.92,20.1-7.85,30.01-7.1,.08-14.22,.3-21.32,.53-9.46,.32-18.91,.75-28.35,1.36-8.33,.53-16.67,1.07-24.99,1.79-10.81,.94-21.6,2-32.36,3.32-2.58,5.35-5.09,10.74-7.5,16.16-3.6,8.1-6.99,16.27-10.17,24.52,.15-.02,.28-.04,.43-.06,12.56-1.77,25.18-3.24,37.8-4.5,3.62-.36,7.23-.79,10.87-1.11,8.97-.75,17.95-1.26,26.93-1.83,11.68-.75,23.38-1.22,35.09-1.56h.43c9.96-.28,19.93-.41,29.91-.43,2.51,0,5.01,0,7.53,.02,5.69,.02,11.4,.08,17.08,.17,6.46,.11,12.9,.36,19.36,.58h.17c6.18,.23,12.36,.45,18.53,.75,4.75,.23,9.49,.57,14.24,.92,1.02,.08,2.03,.15,3.05,.23,7.12,.51,14.22,1.04,21.34,1.58,1.75,.13,3.48,.38,5.24,.55,9.42,.83,18.82,1.88,28.2,3.09,4.2,.53,8.38,1.09,12.58,1.66,8.83,1.22,17.65,2.69,26.43,4.22,8.46,1.49,16.9,3.16,25.26,5.07,7.36,1.68,14.69,3.5,21.96,5.48,9.55,2.6,18.93,5.63,28.2,9.06,8.01,2.98,15.75,6.48,23.24,10.57,5.16,2.83,10.06,5.99,14.52,9.83,4.05,3.48,7.59,7.4,9.95,12.3,.94,1.94,1.38,4.03,1.98,6.07,.02-4.05,.06-8.1,.08-12.15v-18.04c0-2.18,.08-4.39-.04-6.55l-.06-.04Z"/><path class="cls-16" d="M619.9,263.46c-1.45-.47-2.94-.81-4.33-1.47,0-.19,.02-.38,.04-.57,1.73,.53,3.37,1.26,4.9,2.24-.21-.08-.41-.13-.62-.21h.02Z"/><path class="cls-16" d="M614.84,261.69s.13,.06,.17,.11h-.04c-.15,.09-.24,.02-.34-.11,.08-.02,.13-.04,.21,0Z"/><path class="cls-16" d="M439.72,371.25s-.04,.15-.09,.21l-.04,.04s-.09,.06-.15,.06v-.11s.11-.11,.17-.15c.04,0,.08-.04,.11-.04h0Z"/><path class="cls-16" d="M447.48,361.36s-.13,.13-.21,.17c-.09,.06-.19,.09-.32,.13v-.19c0-.06,0-.11,.02-.15,.04-.09,.08-.19,.13-.26,.06-.08,.15-.13,.23-.21l.28-.17c.02,.13,.02,.24,0,.36,0,.09-.06,.15-.09,.23,0,.02-.04,.06-.04,.08v.02Z"/><path class="cls-12" d="M450.44,357.39s-.04,0-.04,.02h-.15c.09-.11,.19-.24,.28-.36v.09c0,.09-.04,.15-.11,.21l.02,.04Z"/><path class="cls-12" d="M451.97,355.07c0-.09,.08-.17,.15-.21,.04,0,.08-.02,.11-.04,0,.06-.02,.08-.04,.11,0,.04,0,.08-.04,.11,0,.02-.04,.04-.06,.06-.04,.02-.09,.04-.13,.06v-.09h0Z"/><path class="cls-9" d="M585.68,248.37c.36-.15,.58,0,.79,.28-.32,.08-.66,.15-.79-.26v-.02Z"/><path class="cls-10" d="M585.66,248.37h.02l-.02,.02v-.02Z"/><path class="cls-16" d="M496.42,307.65c.11-.09,.21-.19,.32-.3v.08c0,.08-.04,.11-.08,.17h-.02s-.11,.06-.23,.06Z"/><path class="cls-16" d="M498.62,305.42c.09-.06,.21-.09,.34-.09,0,.17-.04,.26-.11,.3-.11,.08-.32,.02-.47,.04,.08-.11,.15-.19,.24-.24Z"/><path class="cls-16" d="M500.03,304.48s-.04,.15-.09,.21c0,0-.04,.02-.06,.04-.04,.02-.09,.04-.15,.04,.09-.11,.21-.24,.3-.36v.08Z"/><path class="cls-16" d="M518.7,289.68l-.06,.11c-.06,.06-.13,.08-.24,.08,.09-.11,.21-.21,.32-.32v.15l-.02-.02Z"/><path class="cls-16" d="M518.36,289.88v.08c0,.08-.04,.11-.08,.13-.04,.02-.08,.02-.15,0-.02,0-.06,0-.08-.04,.11-.06,.21-.11,.32-.17h-.02Z"/><path class="cls-4" d="M615.48,261.33c-9.3-4.14-18.63-8.27-27.93-12.43-.38-.17-.75-.04-1.09-.24-.32,.08-.66,.15-.79-.26-.38,.17-.73,0-1.09-.13-8.16-2.45-16.5-3.2-24.99-2.77-11.24,.58-22.02,3.33-32.49,7.38-3.3,1.26-6.54,2.66-9.7,4.14-.79,.38-1.58,.75-2.37,1.15-.92,.45-1.85,.9-2.75,1.39-1.22,.62-2.43,1.26-3.65,1.92-6.35,3.47-12.51,7.33-18.48,11.47-1.24,.87-2.49,1.73-3.71,2.62l-.73,.53c-2.94,2.15-5.82,4.33-8.65,6.59-7.08,5.63-13.88,11.62-20.46,17.89-18.25,17.42-34.47,36.65-49.31,57.03-.38,.53-.75,1.07-1.13,1.6,0,0-.04,.13-.08,.17-.04,.04-.09,.06-.17,.08-1.34,1.9-2.66,3.79-3.99,5.69-2.22,3.16-4.41,6.33-6.55,9.55-2.03,3.05-4.05,6.14-6.03,9.23-1.58,2.45-3.13,4.92-4.65,7.4-1.36,2.22-2.71,4.43-4.05,6.65-1.88,3.15-3.75,6.31-5.59,9.51-.92,1.6-1.83,3.18-2.73,4.8-.09,.19-.23,.36-.34,.55,0,.21-.08,.38-.15,.55-.08,.11-.15,.24-.21,.36-.85,1.51-1.68,3.03-2.51,4.56-3.13,5.71-6.18,11.47-9.12,17.27-1.24,2.45-2.47,4.92-3.67,7.38-6.52,13.34-12.56,26.88-18.12,40.61-2.96,7.29-5.76,14.64-8.44,22.02-1.41,3.92-2.81,7.85-4.14,11.81-2.47,7.31-4.73,14.67-6.93,22.06-.9,3.03-1.79,6.08-2.64,9.14l-.06,.23c-1.34,4.78-2.58,9.59-3.75,14.41-1.07,4.33-2.11,8.68-3.07,13.05-.83,3.73-1.58,7.48-2.34,11.23-.17,.89-.34,1.77-.51,2.67-.08,.36-.13,.72-.21,1.07-.02,.13-.06,.26-.08,.41-.13,.72-.28,1.41-.41,2.13-1.07,5.86-2.03,11.73-2.86,17.65-.81,5.71-1.53,11.4-2.13,17.12-.13,1.28-.24,2.56-.38,3.84,0,.09-.02,.19-.02,.28-.09,.98-.15,1.68-.23,2.37-.26,3.18-.49,6.39-.68,9.57-.19,3.2-.34,6.4-.43,9.61,0,.41,0,.83-.04,1.24-.19,6.16-.23,12.3-.04,18.44,.19,5.8,.51,11.58,1.05,17.37,.53,5.76,1.26,11.51,2.26,17.25,.49,2.81,1.02,5.59,1.62,8.36,2,9.34,4.69,18.5,8.38,27.35,.26,.62,.51,1.22,.79,1.85,.26,.6,.55,1.22,.81,1.83,.64,1.43,1.32,2.84,2.02,4.24,1.17,2.34,2.41,4.61,3.73,6.84,3.62,6.1,7.87,11.77,12.92,16.9,1.32,1.36,2.69,2.64,4.11,3.86,2.66,2.32,5.48,4.45,8.49,6.35,.57,.36,1.22,.57,1.64,1.11,.06,.08,.11,.17,.15,.26,.28-.06,.49,0,.57,.3,1.17,.28,2.11,1.07,3.18,1.54,5.73,2.54,11.43,5.09,17.16,7.63,3.26,1.45,6.54,2.86,9.81,4.29l.41-.38c-1.05-.66-2.15-1.28-3.16-1.98-1.07-.73-2.09-1.51-3.11-2.3-8.53-6.63-15.22-14.9-20.7-24.26-3.33-5.69-6.05-11.66-8.38-17.8-.06-.15-.11-.28-.17-.43-3.13-8.31-5.41-16.86-7.12-25.56-.92-4.65-1.66-9.34-2.3-14.05-.04-.34-.09-.66-.13-1-.3-2.32-.57-4.65-.81-6.97-.36-3.43-.62-6.84-.81-10.28-.04-.85-.09-1.7-.13-2.54,0-.21-.02-.43-.04-.64-.17-4.75-.34-9.49-.32-14.24v-.77c0-.85,0-1.7,.04-2.54,.11-3.73,.23-7.44,.38-11.15,.08-1.86,.17-3.71,.28-5.58s.23-3.71,.36-5.58c.49-6.5,1.15-12.96,1.94-19.42,.28-2.35,.58-4.69,.92-7.04,.36-2.62,.75-5.24,1.17-7.84,.32-2.05,.66-4.11,1.02-6.16,.4-2.34,.83-4.65,1.26-6.99,.55-2.94,1.13-5.86,1.73-8.8,.7-3.33,1.41-6.69,2.17-10,.68-2.96,1.38-5.91,2.11-8.87,.81-3.26,1.64-6.52,2.51-9.76,.21-.75,.43-1.51,.66-2.26s.45-1.51,.64-2.26c.4-1.58,.72-3.16,1.28-4.71,.13-.17,.34-.34,.36-.53,.45-3.73,1.79-7.21,2.94-10.72,.51-1.56,1-3.15,1.49-4.73,.68-2.2,1.36-4.41,2.05-6.61,.57-1.81,1.15-3.62,1.77-5.41,.24-.7,.47-1.41,.72-2.13,.32-.9,.64-1.81,.96-2.71,1.36-3.77,2.67-7.55,4.05-11.32,.57-1.54,1.15-3.11,1.73-4.65,2.02-5.29,4.09-10.55,6.23-15.77,.6-1.49,1.22-2.96,1.85-4.43,.51-1.19,1-2.35,1.49-3.54,1.21-2.79,2.43-5.58,3.65-8.36,.96-2.18,1.94-4.35,2.94-6.54,.75-1.68,1.53-3.32,2.3-4.99,2.07-4.45,4.18-8.85,6.39-13.24,.38-.77,.83-1.51,1.26-2.24,.43-.73,.87-1.49,1.24-2.28,6.4-13.58,13.92-26.56,21.66-39.4,.7-1.15,1.37-2.3,2.07-3.45,1.62-2.67,3.16-5.39,4.99-7.89,1.15-1.56,2.2-3.15,3.26-4.77,1.05-1.6,2.09-3.22,3.16-4.8,2.18-3.16,4.22-6.44,6.39-9.63l.85-1.24c1.45-2.09,2.96-4.14,4.43-6.22v-.11s.11-.11,.17-.15c.04,0,.08-.04,.11-.04,2.13-2.86,4.26-5.74,6.39-8.61,.09-.13,.21-.24,.3-.36,.06-.06,.09-.11,.13-.15,.13-.15,.26-.28,.4-.43v-.19c0-.06,0-.11,.02-.15,.04-.11,.08-.19,.13-.26s.15-.13,.23-.21l.28-.17c.06-.06,.09-.11,.13-.17,.83-1.04,1.68-2.07,2.51-3.11,.09-.11,.19-.24,.28-.36,0-.08,.04-.13,.08-.21,.02-.06,.06-.13,.09-.19,.08-.11,.17-.23,.26-.32,0-.02,.04-.04,.06-.06,.36-.34,.81-.62,.9-1.13v-.09c0-.09,.08-.17,.15-.21,.04,0,.08-.02,.11-.04,.24-.19,.47-.38,.66-.6,.06-.06,.09-.11,.13-.15,.15-.17,.28-.36,.41-.55,.17-.24,.34-.51,.51-.77,.13-.19,.26-.4,.4-.58,.09-.13,.19-.26,.28-.38,.64-.79,1.3-1.58,1.94-2.35,4.52-5.52,9.17-10.91,13.96-16.18,3.75-4.14,7.63-8.16,11.55-12.13,.68-.7,1.38-1.39,2.05-2.07,1.28-1.28,2.62-2.47,3.94-3.69,.53-.49,1.05-.96,1.56-1.47,.11-.09,.21-.21,.32-.3,1.64-1.58,3.32-3.16,4.97-4.73,.04-.04,.08-.06,.11-.09,.43-.4,.92-.75,1.37-1.11,.11-.09,.21-.19,.32-.3l.09-.09c.51-.53,1.04-1.04,1.54-1.56,.08-.11,.15-.19,.24-.24,.09-.06,.21-.09,.34-.09,.15-.02,.28-.09,.4-.17,.08-.06,.15-.13,.23-.21,.06-.06,.09-.13,.15-.21,.09-.11,.21-.24,.3-.36,1.34-1.19,2.67-2.35,4.05-3.5,.21-.17,.41-.34,.62-.53,1.32-1.11,2.66-2.2,4.01-3.3,3.03-2.43,6.16-4.78,9.34-7.01,.11-.06,.21-.11,.32-.17h.02c.09-.13,.21-.24,.32-.34,.72-.53,1.45-1.07,2.17-1.58,1.45-1.05,2.94-2.07,4.41-3.07,.73-.49,1.49-1,2.24-1.47,.75-.49,1.51-.98,2.26-1.45,2.28-1.43,4.58-2.83,6.91-4.16,2.54-1.47,5.14-2.88,7.74-4.24,7.84-4.03,15.93-7.44,24.41-9.96,.64-.19,1.3-.38,1.94-.57,4.52-1.26,9.06-2.22,13.67-2.84,2.62-.36,5.27-.6,7.93-.72,2-.09,3.99-.11,6.01-.06,.68,.02,1.34,.04,2.02,.08,2.02,.11,4.01,.32,6.01,.6,2.77,.38,5.5,.9,8.23,1.6,.08-.02,.13-.04,.21,0,.08,0,.13,.06,.17,.11,.06,.02,.13,.04,.19,.06,.13,.04,.24,.08,.38,.13,0-.19,.02-.38,.04-.57-.04-.04-.08-.08-.13-.09l.06-.04Z"/><path class="cls-10" d="M585.68,248.37c-.13-.58-.7-.64-1.11-.83-8.02-3.56-16.05-7.14-24.11-10.66-2.15-.94-4.22-2.03-6.44-2.79-.24,.15-.51,.13-.77,.04-5.52-1.81-11.24-2.71-17.01-3.07-5.29-.32-10.6,0-15.86,.7-4.33,.58-8.59,1.49-12.81,2.62-8.19,2.2-16.07,5.2-23.66,8.95-2.92,1.45-5.74,3.09-8.63,4.61-.96,.51-1.96,.96-2.88,1.51-8.25,4.92-16.26,10.21-23.85,16.1-1.9,1.47-3.84,2.9-5.61,4.5-1.15,1.04-2.26,2.09-3.5,2.99-.23,.17-.47,.34-.75,.51-.21,.19-.41,.36-.62,.53v.04c-.09,.24-.19,.47-.34,.6-.09,.08-.19,.11-.3,.13h-.23s-.11-.04-.19-.06c-.06,.04-.11,.08-.15,.11-.66,.47-1.02,1.28-1.62,1.75-.09,.08-.19,.13-.28,.19-1.58,.83-2.54,2.32-3.96,3.33-1.36,.98-2.49,2.28-3.73,3.43-6.16,5.67-11.98,11.68-17.74,17.74-1.77,1.86-3.35,3.86-5.05,5.8-.98,1.11-2.07,2.09-3.03,3.18-2.62,2.99-5.16,6.07-7.74,9.08-1.92,2.24-3.73,4.56-5.44,6.95-1.36,1.9-2.98,3.6-4.43,5.42-4.39,5.63-8.55,11.43-12.71,17.22-4.11,5.71-7.87,11.64-11.77,17.5-3.5,5.26-6.72,10.7-10.06,16.09-1.22,2-2.32,4.07-3.56,6.07-2.13,3.43-4.11,6.95-5.97,10.53-1.17,1.39-1.86,3.09-2.75,4.65-1.85,3.28-3.62,6.59-5.22,10-.51,1.09-1.24,2.02-1.77,3.11-1.49,3.03-2.99,6.07-4.56,9.08-3.9,7.57-7.33,15.35-10.89,23.09-3.86,8.36-7.29,16.93-10.68,25.5-2.3,5.82-4.61,11.64-6.44,17.63-.3,.98-.87,1.86-1.21,2.83-1.77,5.16-3.54,10.3-5.22,15.48-1.56,4.77-3.03,9.57-4.45,14.37-1.36,4.63-2.66,9.27-3.9,13.92-2.43,9.02-4.65,18.1-6.55,27.24-.49,2.43-.98,4.86-1.45,7.29-1.62,8.27-3.05,16.59-4.22,24.96-1.09,7.95-2,15.92-2.71,23.9l-.17,2.2v0c-.34,4.37-.6,8.76-.77,13.17-.21,5.03-.24,10.06-.28,15.09,0,2.39,.24,4.8,.23,7.21-.04,3.67,.28,7.33,.49,10.98,.08,1.34,.13,2.69,.26,4.05,.02,.23,.06,.47,.08,.7,.43,3.52,.72,7.06,1.21,10.57,.47,3.41,.94,6.82,1.56,10.19,.9,4.71,1.75,9.42,3.2,13.99,.45,1.43,.7,2.94,1.11,4.41,.87,3.2,1.9,6.37,3.03,9.47,1.64,4.46,3.52,8.83,5.56,13.13,3.15,6.59,7.04,12.73,11.62,18.42,4.33,5.41,9.29,10.17,14.96,14.16,.23,.17,.47,.32,.72,.47,.41,.26,.83,.53,1.24,.79,.23,.15,.47,.3,.72,.45,.79,.49,1.56,1,2.32,1.54,0,0,.02,0,.04,.02,.23,.17,.45,.34,.68,.53,0,.04,.04,.08,.06,.11,.13,.19,.4,.21,.6,.3,9.79,4.33,19.57,8.66,29.36,13,.4,.17,.77,.43,1.24,.32-.06-.09-.09-.17-.15-.26-.41-.55-1.07-.75-1.64-1.11-2.99-1.9-5.84-4.03-8.49-6.35-1.41-1.22-2.79-2.52-4.11-3.86-5.05-5.12-9.3-10.81-12.92-16.9-1.32-2.22-2.56-4.5-3.73-6.84-.7-1.39-1.38-2.81-2.02-4.24-.28-.62-.55-1.22-.81-1.85-.26-.62-.53-1.22-.79-1.85-3.69-8.85-6.37-18.01-8.38-27.35-.6-2.77-1.13-5.56-1.62-8.36-.98-5.73-1.71-11.47-2.26-17.25-.55-5.76-.87-11.57-1.05-17.37-.19-6.14-.15-12.3,.04-18.44,.02-.41,.02-.83,.04-1.24,.11-3.2,.26-6.4,.43-9.61,.19-3.18,.41-6.39,.68-9.57,.06-.7,.13-1.39,.23-2.37,0-.09,.02-.19,.02-.28,.11-1.28,.23-2.56,.38-3.84,.58-5.73,1.32-11.43,2.13-17.12,.85-5.91,1.81-11.79,2.86-17.65,.13-.72,.28-1.41,.41-2.13,.02-.13,.06-.26,.08-.41,.08-.36,.13-.72,.21-1.07,.17-.9,.34-1.79,.51-2.67,.73-3.75,1.51-7.5,2.34-11.23,.96-4.37,2-8.72,3.07-13.05,1.19-4.82,2.43-9.63,3.75-14.41,0-.08,.04-.15,.06-.23,.85-3.05,1.73-6.1,2.64-9.14,2.2-7.38,4.48-14.75,6.93-22.06,1.34-3.96,2.73-7.89,4.14-11.81,2.67-7.4,5.48-14.75,8.44-22.02,5.56-13.73,11.58-27.27,18.12-40.61,1.21-2.47,2.43-4.93,3.67-7.38,2.94-5.8,5.99-11.57,9.12-17.27,.83-1.53,1.68-3.05,2.51-4.56,.08-.11,.15-.24,.21-.36,.09-.17,.17-.34,.15-.55,.11-.19,.24-.38,.34-.55,.9-1.6,1.81-3.2,2.73-4.8,1.85-3.18,3.69-6.35,5.59-9.51,1.34-2.22,2.69-4.45,4.05-6.65,1.53-2.49,3.07-4.95,4.65-7.4,1.98-3.09,3.99-6.18,6.03-9.23,2.15-3.22,4.33-6.39,6.55-9.55,1.32-1.9,2.66-3.79,3.99-5.69v-.11s.02-.06,.04-.08c.04-.06,.11-.08,.19-.08,.38-.53,.73-1.07,1.13-1.6,14.84-20.38,31.06-39.59,49.31-57.03,6.57-6.27,13.35-12.26,20.46-17.89,2.83-2.26,5.71-4.45,8.65-6.59l.73-.53c1.22-.89,2.47-1.75,3.71-2.62,5.99-4.14,12.13-8.01,18.48-11.47,1.21-.66,2.43-1.3,3.65-1.92,.92-.47,1.83-.94,2.75-1.39,.79-.4,1.58-.77,2.37-1.15,3.18-1.49,6.4-2.88,9.7-4.14,10.47-4.03,21.25-6.78,32.49-7.38,8.48-.45,16.82,.3,24.99,2.77,.36,.11,.72,.28,1.09,.13,0,0,0-.02,0,0l.02-.02Zm-318.23,416.25v0Z"/><path class="cls-7" d="M405.95,359.27s.11-.08,.19-.08c0,.08-.04,.13-.08,.17s-.09,.06-.17,.08v-.11s.02-.06,.04-.08l.02,.02Z"/><path class="cls-7" d="M437.18,274.27c.11-.13,.24-.21,.43-.23,.11,0,.26,0,.41,.04v.04c-.09,.24-.19,.47-.34,.6-.09,.08-.19,.11-.3,.13h-.23s-.11-.04-.19-.06c.04-.23,.11-.41,.23-.53h-.02Z"/><path class="cls-13" d="M552.25,233.32c-7.29-3.26-14.6-6.42-21.85-9.72-8.31-3.79-16.93-6.12-26.07-6.55-2.3,0-4.61,0-6.91,.02h-2.69c-4.6,.24-9.14,.92-13.64,1.88-13.28,2.83-25.64,8.02-37.48,14.54-11.92,6.55-23,14.39-33.53,22.98-1.34,1.09-2.79,2.09-3.96,3.41-.09,.04-.19,.11-.24,.21v.11h-.11c-.3,.24-.6,.47-.9,.72-11.66,9.98-22.49,20.81-32.74,32.25-12.17,13.6-23.39,27.95-33.89,42.87-15.63,22.23-29.48,45.54-41.82,69.75-8.33,16.31-15.9,32.98-22.72,49.99-7.1,17.74-13.62,35.71-18.85,54.11-.58,2.03-1.3,4.05-1.88,6.08-4.29,15.16-8.01,30.46-10.92,45.94-2.49,13.13-4.46,26.31-5.76,39.61-.96,9.64-1.62,19.31-1.58,29.01,0,4.41,.02,8.82,.04,13.22,.06,.6,.08,1.21,.09,1.81,.02,.94,0,1.86-.04,2.81,.04,5.37,.49,10.7,1,16.05,.85,8.72,2.17,17.35,4.11,25.88,2.41,10.7,5.71,21.08,10.4,31,5.03,10.62,11.41,20.29,20.04,28.37,5.03,4.71,10.57,8.68,16.8,11.6,5.54,2.6,11.15,5.03,16.76,7.5,3.84,1.7,7.65,3.52,11.57,5.03-.23-.17-.45-.36-.68-.53,0,0-.02,0-.04-.02-.75-.55-1.53-1.05-2.32-1.54-.24-.15-.47-.3-.72-.45-.41-.26-.83-.51-1.24-.79-.24-.15-.47-.32-.72-.47-5.67-4.01-10.6-8.76-14.96-14.16-4.58-5.69-8.48-11.83-11.62-18.42-2.05-4.29-3.94-8.66-5.56-13.13-.43-.4-.85-.81-1.26-1.22,.41,.41,.83,.83,1.26,1.22-1.13-3.11-2.17-6.27-3.03-9.47-.4-1.45-.66-2.96-1.11-4.41-1.45-4.58-2.32-9.29-3.2-13.99-.64-3.37-1.09-6.78-1.56-10.19-.49-3.5-.79-7.04-1.21-10.57-.02-.23-.06-.47-.08-.7v0c-.13-1.34-.19-2.69-.26-4.05-.19-3.65-.51-7.31-.49-10.98,0-2.39-.24-4.8-.23-7.21,.04-5.03,.09-10.06,.28-15.09,.17-4.39,.43-8.78,.77-13.17l.17-2.2c.72-7.99,1.62-15.95,2.71-23.9,1.17-8.36,2.6-16.69,4.22-24.96,.47-2.43,.96-4.86,1.45-7.29,1.88-9.15,4.13-18.21,6.55-27.24,1.24-4.65,2.54-9.3,3.9-13.92,1.41-4.82,2.88-9.61,4.45-14.37,1.7-5.18,3.47-10.34,5.22-15.48,.32-.98,.9-1.86,1.21-2.83,1.85-5.99,4.14-11.81,6.44-17.63,3.39-8.57,6.82-17.12,10.68-25.5,3.56-7.72,6.99-15.52,10.89-23.09,1.54-3.01,3.07-6.05,4.56-9.08,.53-1.07,1.28-2.02,1.77-3.11,1.6-3.41,3.37-6.72,5.22-10,.89-1.56,1.58-3.26,2.75-4.65,1.86-3.58,3.84-7.1,5.97-10.53,1.24-1.98,2.34-4.07,3.56-6.07,3.32-5.39,6.54-10.81,10.06-16.09,3.9-5.86,7.67-11.79,11.77-17.5,4.16-5.78,8.33-11.58,12.71-17.22,1.43-1.85,3.05-3.52,4.43-5.42,1.71-2.39,3.52-4.71,5.44-6.95,2.58-3.03,5.12-6.1,7.74-9.08,.96-1.09,2.05-2.07,3.03-3.18,1.7-1.92,3.28-3.94,5.05-5.8,5.76-6.07,11.58-12.07,17.74-17.74,1.24-1.15,2.37-2.45,3.73-3.43,1.41-1.02,2.35-2.51,3.96-3.33,.09-.06,.21-.11,.28-.19,.6-.47,.96-1.28,1.62-1.75,.06-.04,.11-.08,.15-.11,.04-.23,.11-.41,.23-.53,.11-.13,.24-.21,.43-.23,.11,0,.26,0,.41,.04,.21-.17,.41-.36,.62-.53,.28-.19,.51-.34,.75-.51,1.24-.9,2.35-1.94,3.5-2.99,1.77-1.62,3.73-3.03,5.61-4.5,7.59-5.9,15.6-11.19,23.85-16.1,.94-.55,1.92-1,2.88-1.51,2.88-1.54,5.71-3.18,8.63-4.61,7.59-3.75,15.48-6.74,23.66-8.95,4.22-1.13,8.48-2.02,12.81-2.62,5.26-.72,10.57-1.02,15.86-.7,5.78,.36,11.49,1.26,17.01,3.07,.28,.09,.53,.11,.77-.04-.47-.51-1.19-.51-1.77-.77h.06Z"/><path class="cls-15" d="M437.39,272.16s-.09-.08-.13-.09c.06,.04,.09,.06,.13,.09Z"/><path class="cls-15" d="M436.41,271.56c.21,.09,.4,.21,.58,.32-.19-.11-.38-.23-.58-.32Z"/><path class="cls-9" d="M504.33,217.03h-6.91c-.9,.04-1.81,.04-2.69,.04-.04-.11-.09-.23-.13-.34,3.28,0,6.57,0,9.85-.04l-.11,.34Z"/><path class="cls-7" d="M405.82,260.22h-.06v-.11h.13v.13h-.06l-.02-.02Z"/><path class="cls-1" d="M805.45,686.53c.94-.73,.94-.81,0-1.54-2.18-1.75-4.52-3.28-6.91-4.73-7.99-4.84-16.52-8.53-25.26-11.73-2-.73-3.94-1.62-6.07-2-.58-.66-1.45-.72-2.2-.96-8.16-2.71-16.46-4.93-24.79-7.06-.7-.06-1.38-.21-1.98-.55-3.9-.85-7.8-1.71-11.68-2.56-7.21-1.56-14.47-2.92-21.74-4.14-5.39-.9-10.79-1.75-16.2-2.56-4.22-.62-8.44-1.26-12.7-1.56-.7-.11-1.39-.24-2.11-.34-14.9-1.83-29.82-3.2-44.79-4.24-9.78-.66-19.55-1.19-29.35-1.56-12.79-.49-25.6-.72-38.41-.72-15.88,0-31.74,.4-47.58,1.17-18.31,.89-36.58,2.28-54.79,4.31-2.98,.34-5.99,.53-8.93,1.17-.6-.17-1.19,0-1.79,.06-12.98,1.6-25.9,3.58-38.74,6.01-7.59,1.43-15.14,3.01-22.64,4.8l-.15,.24s-1.94,27.91,2.35,55.17c7.4,1.75,14.84,3.32,22.3,4.71,6.67,1.24,13.35,2.43,20.08,3.39,9.42,1.36,18.85,2.73,28.33,3.71,9.21,.96,18.4,1.96,27.63,2.64,5.46,.4,10.91,.87,16.37,1.19,8.08,.47,16.18,.87,24.26,1.15,7.38,.26,14.77,.47,22.15,.57,11.81,.15,23.64,.09,35.45-.15,11.38-.24,22.75-.68,34.11-1.32,13.54-.75,27.07-1.83,40.57-3.22,20.59-2.13,41.06-4.99,61.35-9.04,17.72-3.54,35.24-7.87,52.23-14.13,7.4-2.71,14.65-5.82,21.55-9.66,3.5-1.94,6.89-4.05,10.06-6.52v.02Z"/></g></g></g></svg>