<svg width="32" height="32" viewBox="0 0 32 32" fill="none" xmlns="http://www.w3.org/2000/svg">
<g clip-path="url(#clip0_739_285453)">
<path d="M32 16C32 7.16344 24.8366 0 16 0C7.16344 0 0 7.16344 0 16C0 24.8366 7.16344 32 16 32C24.8366 32 32 24.8366 32 16Z" fill="#26E99A"/>
<path d="M12.9789 8.40503H10.4497C10.0999 8.40503 9.8164 8.68878 9.8164 9.03883V11.5699C9.8164 11.9199 9.53285 12.2036 9.1831 12.2036H6.63335C6.28355 12.2036 6 12.4874 6 12.8374V19.1671C6 19.5171 6.28355 19.8009 6.63335 19.8009H9.1831C9.53285 19.8009 9.8164 20.0846 9.8164 20.4347V22.9657C9.8164 23.3157 10.0999 23.5995 10.4497 23.5995H12.9789C13.3287 23.5995 13.6123 23.3157 13.6123 22.9657V20.4347C13.6123 20.0846 13.8958 19.8009 14.2456 19.8009H21.204V16.0023H14.2456C13.8958 16.0023 13.6123 15.7185 13.6123 15.3685V9.03883C13.6123 8.68878 13.3287 8.40503 12.9789 8.40503ZM25 22.9655V20.4345C25 20.0845 24.7165 19.8007 24.3668 19.8007L21.204 19.8009L21.2042 22.9655C21.2042 23.3156 21.4877 23.5993 21.8375 23.5993H24.3668C24.7165 23.5993 25 23.3156 25 22.9655Z" fill="#111629"/>
<path d="M24.9999 12.1988C24.9999 10.1008 23.3005 8.40015 21.2041 8.40015H18.0415C17.6918 8.40015 17.4082 8.6839 17.4082 9.03395V11.565C17.4082 11.915 17.6918 12.1988 18.0415 12.1988H20.5707C20.9205 12.1988 21.2041 12.4825 21.2041 12.8325V16.0028H24.3666C24.7164 16.0028 24.9999 15.719 24.9999 15.369V12.1988Z" fill="#111629"/>
</g>
<defs>
<clipPath id="clip0_739_285453">
<rect width="32" height="32" fill="white"/>
</clipPath>
</defs>
</svg>
