<svg width="32" height="32" viewBox="0 0 32 32" fill="none" xmlns="http://www.w3.org/2000/svg">
<path fill-rule="evenodd" clip-rule="evenodd" d="M32 15.9999C32 13.9059 31.5834 11.8118 30.7821 9.87706C29.9805 7.94234 28.7942 6.16698 27.3136 4.68634C25.833 3.20538 24.0576 2.01946 22.1229 1.21786C20.1882 0.416579 18.0941 -6.10352e-05 16 -6.10352e-05C13.9059 -6.10352e-05 11.8115 0.416579 9.8768 1.21786C7.94208 2.01946 6.16704 3.20538 4.68608 4.68634C3.20544 6.16698 2.0192 7.94234 1.21792 9.87706C0.41632 11.8118 0 13.9059 0 15.9999C0 18.094 0.41632 20.1881 1.21792 22.1228C2.0192 24.0575 3.20544 25.8329 4.68608 27.3139C6.16704 28.7945 7.94208 29.9807 9.8768 30.782C11.8115 31.5833 13.9059 31.9999 16 31.9999C18.0941 31.9999 20.1882 31.5833 22.1229 30.782C24.0576 29.9807 25.833 28.7945 27.3136 27.3139C28.7942 25.8329 29.9805 24.0575 30.7821 22.1228C31.5834 20.1881 32 18.094 32 15.9999Z" fill="white"/>
<path fill-rule="evenodd" clip-rule="evenodd" d="M11.8547 3.38361C13.3453 2.89369 14.9382 2.66969 16.5162 2.73017C18.0944 2.79065 19.6579 3.13593 21.113 3.74393C22.5683 4.35193 23.9152 5.22297 25.0675 6.29753C26.5917 7.71929 27.775 9.49753 28.4848 11.4867C29.1949 13.4761 29.4314 15.6764 29.1574 17.7711C28.8838 19.8659 28.0998 21.8553 26.9139 23.566C25.728 25.2767 24.1398 26.7084 22.2746 27.7004C20.4093 28.6921 18.2662 29.2438 16.1539 29.2758C14.0416 29.3078 11.9597 28.8204 10.095 27.895C8.23073 26.9695 6.58337 25.6063 5.33249 23.9036C4.08161 22.2009 3.22721 20.1587 2.88801 18.0748C2.54881 15.9907 2.72481 13.8646 3.37473 11.8812C3.86593 10.3817 4.62817 8.96409 5.6048 7.73561H4.12033V5.28185H9.93696V10.7135H7.48321V9.22937C6.68321 10.2355 6.05857 11.3967 5.65633 12.6255C5.12417 14.2511 4.98081 15.9951 5.25633 17.6969C5.59873 19.8137 6.58881 21.8649 8.06657 23.4457C9.83425 25.3363 12.2995 26.5542 14.8659 26.8207C17.432 27.0873 20.0992 26.4028 22.2173 24.9286C24.3354 23.4543 25.905 21.1903 26.5421 18.6899C27.1792 16.1894 26.8838 13.4524 25.735 11.142C24.5862 8.83161 22.5837 6.94841 20.1891 5.95897C17.7946 4.96921 15.0077 4.87385 12.6038 5.66361L11.8547 3.38361Z" fill="url(#paint0_linear)"/>
<path fill-rule="evenodd" clip-rule="evenodd" d="M11.193 22.3198C11.1523 22.3198 11.1193 22.2827 11.1193 22.2424C11.1193 21.5565 11.1193 20.8704 11.1193 20.1845C11.1193 20.1441 11.0863 20.1074 11.0458 20.1074C10.8012 20.1074 10.5565 20.1074 10.3118 20.1074C10.2706 20.1074 10.2337 20.0747 10.2337 20.0344C10.2337 19.9019 10.2337 19.7694 10.2337 19.6367C10.2337 19.5963 10.2711 19.5596 10.3118 19.5596C11.0646 19.5596 11.8175 19.5596 12.5703 19.5596C12.611 19.5596 12.6482 19.5958 12.6482 19.6367C12.6482 19.7694 12.6482 19.9019 12.6482 20.0344C12.6482 20.0747 12.611 20.1074 12.5703 20.1074C12.3272 20.1074 12.0838 20.1074 11.8407 20.1074C11.7999 20.1074 11.7628 20.1439 11.7628 20.1845C11.7628 20.8704 11.7628 21.5565 11.7628 22.2424C11.7628 22.2827 11.7298 22.3198 11.6891 22.3198C11.5238 22.3198 11.3586 22.3198 11.193 22.3198Z" fill="black"/>
<path fill-rule="evenodd" clip-rule="evenodd" d="M14.9025 19.6367C14.9025 19.5963 14.9355 19.5596 14.9762 19.5596C15.1402 19.5596 15.3042 19.5596 15.4681 19.5596C15.5089 19.5596 15.546 19.5958 15.546 19.6367C15.546 20.1048 15.546 20.573 15.546 21.0411C15.546 21.8736 15.0706 22.3563 14.3162 22.3563C13.5662 22.3563 13.0947 21.8736 13.0947 21.0411C13.0947 20.573 13.0947 20.1048 13.0947 19.6367C13.0947 19.5963 13.1279 19.5596 13.1684 19.5596C13.3324 19.5596 13.4964 19.5596 13.6603 19.5596C13.7013 19.5596 13.7382 19.5958 13.7382 19.6367C13.7382 20.1115 13.7382 20.5863 13.7382 21.061C13.7382 21.4713 13.9512 21.763 14.3203 21.763C14.6895 21.763 14.9025 21.4713 14.9025 21.061C14.9025 20.5863 14.9025 20.1115 14.9025 19.6367Z" fill="black"/>
<path fill-rule="evenodd" clip-rule="evenodd" d="M17.805 20.4607C17.7395 20.4607 17.7189 20.4362 17.6941 20.3877C17.608 20.1888 17.4193 20.063 17.1326 20.063C16.8743 20.063 16.6572 20.1523 16.6572 20.3228C16.6572 20.5097 16.8583 20.5868 17.3007 20.6393C17.9728 20.7192 18.3583 20.9196 18.3583 21.447C18.3583 22.0395 17.8331 22.3519 17.1615 22.3519C16.5793 22.3519 16.0794 22.0719 16.0013 21.4838C15.9938 21.4268 16.0219 21.4067 16.0794 21.4067C16.2297 21.4067 16.38 21.4067 16.5303 21.4067C16.5876 21.4067 16.6208 21.4312 16.6371 21.4756C16.7077 21.6673 16.9078 21.8207 17.211 21.8207C17.4776 21.8207 17.7111 21.7232 17.7111 21.5164C17.7111 21.2688 17.4654 21.2244 16.9733 21.1631C16.4074 21.0927 16.0142 20.9278 16.0142 20.4119C16.0142 19.8965 16.4613 19.5274 17.1623 19.5274C17.7931 19.5274 18.2319 19.8644 18.3224 20.3677C18.3325 20.4249 18.318 20.4612 18.2567 20.4612C18.1061 20.4612 17.9556 20.4612 17.805 20.4612V20.4607Z" fill="black"/>
<path fill-rule="evenodd" clip-rule="evenodd" d="M18.8419 22.2424C18.8419 22.2827 18.8749 22.3198 18.9157 22.3198H20.0305C20.8668 22.3198 21.5021 21.7594 21.5021 20.9477C21.5021 20.1237 20.8586 19.5596 20.0305 19.5596H18.9157C18.8749 19.5596 18.8419 19.5963 18.8419 19.6367V22.2424ZM20.8256 20.939C20.8256 21.422 20.4775 21.7714 20.0305 21.7714V21.7707H19.5633C19.5226 21.7707 19.4893 21.738 19.4893 21.6977V20.184C19.4893 20.1431 19.5226 20.1069 19.5633 20.1069H20.0263C20.477 20.1069 20.8256 20.4563 20.8256 20.939Z" fill="black"/>
<path fill-rule="evenodd" clip-rule="evenodd" d="M14.9737 12.624C14.0024 12.624 13.0311 12.624 12.0598 12.624C11.9523 12.624 11.8644 12.5366 11.8644 12.4305C11.8644 11.8713 11.8644 11.3124 11.8644 10.7535C11.8644 10.6467 11.9523 10.56 12.0598 10.56C14.6223 10.56 17.1844 10.56 19.7468 10.56C19.8543 10.56 19.9423 10.6467 19.9423 10.7535C19.9423 11.3124 19.9423 11.8713 19.9423 12.4305C19.9423 12.5366 19.8543 12.624 19.7468 12.624C18.8508 12.624 17.9544 12.624 17.0583 12.624C17.0583 14.2755 17.0583 16.0618 17.0583 17.8484C17.0583 17.9545 16.9704 18.0419 16.8629 18.0419C16.2984 18.0419 15.7336 18.0419 15.1691 18.0419C15.0617 18.0419 14.9737 17.9545 14.9737 17.8484C14.9737 16.0618 14.9737 14.2755 14.9737 12.624Z" fill="black"/>
<defs>
<linearGradient id="paint0_linear" x1="2.04343" y1="13.297" x2="15.2222" y2="29.5764" gradientUnits="userSpaceOnUse">
<stop stop-color="#004CFF"/>
<stop offset="0.252131" stop-color="#00E0FB"/>
<stop offset="0.505709" stop-color="#87FF70"/>
<stop offset="0.755054" stop-color="#F8F500"/>
<stop offset="1" stop-color="#FF1A00"/>
</linearGradient>
</defs>
</svg>
