<svg viewBox="0 0 256 256" xmlns="http://www.w3.org/2000/svg"><desc>Symbol: SAMP | Address: 0x9f86db9fc6f7c9408e8fda3ff8ce4e78ac7a6b07</desc><g transform="scale(.25)"><defs><linearGradient id="e" x1="204.902" x2="211.098" y1="674.287" y2="689.713" gradientUnits="userSpaceOnUse"><stop class="stop0" offset="0" stop-color="#D7E0CA"/><stop class="stop1" offset="1" stop-color="#F6E9E3"/></linearGradient><linearGradient id="d" x1="205.161" x2="210.839" y1="564.754" y2="576.246" gradientUnits="userSpaceOnUse"><stop class="stop0" offset="0" stop-color="#DDE6D2"/><stop class="stop1" offset="1" stop-color="#F6ECEE"/></linearGradient><linearGradient id="c" x1="289.526" x2="291.659" y1="695.425" y2="706.54" gradientUnits="userSpaceOnUse"><stop class="stop0" offset="0" stop-color="#D7D9CD"/><stop class="stop1" offset="1" stop-color="#E7E0E2"/></linearGradient><linearGradient id="b" x1="462.382" x2="464.83" y1="340.418" y2="326.873" gradientUnits="userSpaceOnUse"><stop class="stop0" offset="0" stop-color="#31F2B4"/><stop class="stop1" offset="1" stop-color="#43E6CD"/></linearGradient><linearGradient id="a" x1="422.797" x2="417.474" y1="478.171" y2="473.367" gradientUnits="userSpaceOnUse"><stop class="stop0" offset="0" stop-color="#FB9A53"/><stop class="stop1" offset="1" stop-color="#F7AE57"/></linearGradient></defs><path fill="#161531" d="M0 0h1024v1024H0z"/><path fill="#DC3932" d="m642.364 407.206 8.469 9.612c7.508 7.516 14.897 15.149 22.166 22.897 3.017 2.378 8.875.561 13.617 2.673-4.716 3.022-6.446-.387-11.43 3.042l6.894 6.842c1.502 2.719 7.851 13.863 8.517 16.062 7.528 13.108 12.286 26.908 17.068 41.236.575 3.945 1.604 9.803 1.749 13.63-3.626-.209-6.324-1.63-9.662-3.058-3.934.985-3.741.232-5.47 2.849 2.679 4.04 11.054 4.792 15.459 7.261-.177 4.718 3.982 11.324 3.943 13.613-.109 6.552.359 31.372-2.709 35.808-4.516-1.382-12.763-4.193-17.201-1.954 1.832 4.994 12.907 7.434 17.933 9.541l-1.048 1.661c1.197 3.47-2.076 14.992-2.315 20.242-1.798 8.156-2.833 11.447-6.806 19.129-1.489 1.561-2.17 2.039-2.942 4.004 5.236.881 8.547 1.46 13.711 2.998l-2.7 7.195c-3.802-1.054-8.16-2.897-11.889-4.355-6.8 15.702-10.424 19.325-16.745 31.803-2.45 4.407-3.784 7.773-8.666 9.304-6.911-.761-8.246-6.018-9.312-12.198-2.08 6.986.207 9.207 5.496 13.461 3.052 2.651 2.804 1.607 3.249 4.883-1.492 2.946-2.806 4.028-5.117 6.36-7.599 7.812-22.215 26.281-33.056 24.812-3.65 1.261-5.437 2.01-8.89 3.739l.441.716c-4.191 2.126-5.847 2.119-10.585 2.619-4.286 9.33-34.959 18.942-36.484 24.446l-.891 3.006-1.98 1.07c-27.193 7.485-97.545 5.613-125.624-.467-.083-1.019.276-2.505.463-3.575-17.98 1.95-46.952-23.776-58.016-24.694l.859-1.194c2.448-.96 3.061-.955 4.379-3.05-2.841-1.774-3.231-1.921-6.542-2.43-8.983-2.04-24.941-20.602-32.765-28.383-1.906-2.109-2.468-2.647-3.716-5.181.505-1.7 6.37-10.19 8.276-13.75-3.196-3.61-5.369-7.063-10.307-6.91l-8.236 1.907c-5.257-.958-16.195-20.927-14.893-25.428 1.586-.375 2.602-.67 4.157-1.172l-.221-1.857c.91-2.391.788-1.373.116-4.022-2.74-2.224-1.427-1.657-5.006-2.075l-2.698-2.933c-2.814-5.17-8.606-14.036-7.692-19.475-.075-1.737-1.243-4.582-1.674-6.338-2.335-9.496-.518-9.029 2.374-16.416-19.678 4.883-46.796 16.071-64.442 19.751l-1.268-1.241c-.509-3.034-.432-2.046 1.717-5.264 19.455-5.721 38.039-12.179 57.317-18.086-1.068-22.277-.061-31.655 7.183-52.422 4.289-.368 12.41-3.923 14.363-8.091l-1.069-1.354c-3.839-.957-4.593-.678-8.478.153-2.061 2.476-5.239 2.817-8.463 3.621 1.175-11.055 18.961-59.016 28.371-63.201l2.765-4.793c-.952-1.093-1.401-2.155-2.057-3.439l.983-1.496c3.7-.514 4.803-.639 7.792-2.945 2.024-1.963 8.931-1.785 12.354-2.02-2.965-.4-4.481-.651-7.419-1.427 1.449-1.391 4.555-1.606 6.887-2.103-.571-1.779 1.01-10.709 1.365-13.102 6.024-5.487 12.106-12.17 17.766-18.133l2.788 2.019c5.058 2.754 7.785 4.891 12.305 8.326 3.128 1.263 8.367 3.754 11.393 4.171 45.892-1.617 93.44-.436 139.474-.786 7.219-.055 53.987-.317 59.225.542 9.356-.634 14.198-1.94 22.862-5.852 2.77-3.356 7.033-7.238 10.238-10.334"/><path fill="#EC3525" d="M494.366 621.97c4.608-.732 10.093-2.063 14.515-.967-2.758 7.594-5.678 10.537-11.659 15.845-1.633 6.527 1.772 7.423 4.729 12.918-2.825-.007-4.132-.512-6.813-1.25 1.614-5.843-4.289-4.798 0-18.075 2.465-1.861 3.988-2.552 4.809-5.454-1.994-2.708-1.629-1.933-5.581-3.017"/><path fill="#DC3932" d="M465.082 443.983c5.151-1.156 69.548-1.881 72.734-.08.892 1.237 2.055 3.08 3.182 3.946 6.134 3.265 15.302 7.954 21.637 10.602 9.871 8.589 17.928 15.163 24.93 26.507 3.19 5.169 7.095 13.329 10.436 17.79 2.095 1.929 2.062 2.81 2.744 5.567l38.254-.266c10.09.622 40.809-.722 47.247 3.316-1.324 7.613-37.198 4.464-46.167 4.643-12.566.141-25.134.074-37.697-.202l-54.949.457c-5.352-.557-19.556-.298-25.639-.351-5.697-1.597-6.479-2.829-11.558-1.156l-4.903 1.343c-23.622-.576-47.975.399-71.647.094-6.947-.089-25.08.413-31.186-.912l-1.631.727c-13.379.145-26.759.071-40.136-.221-8.939-.409-11.077 2.089-20.153-2.401l-.289-1.55c5.635-4.134 15.716-3.541 22.672-3.694l13.633.051 6.111.112c6.805-.015 13.609.034 20.413.147l1.757-4.714.303-.731c7.663-20.348 19.292-31.107 35.934-44.823.453-.428.834-.77 1.317-1.174l.646-.532c4.151-3.461 9.682-4.217 15.248-6.135 4.54-2.968 4.811-2.144 6.757-6.36"/><path fill="#070304" d="m362.963 508.142 13.633.051 6.111.112c6.805-.015 13.609.034 20.413.147 34.719-.439 69.442-.453 104.162-.045 31.094.059 62.414-.54 93.463-.092l38.254-.266c10.09.622 40.809-.722 47.247 3.316-1.324 7.613-37.198 4.464-46.167 4.643-12.566.141-25.134.074-37.697-.202l-54.949.457c-5.352-.557-19.556-.298-25.639-.351-5.697-1.597-6.479-2.829-11.558-1.156l-4.903 1.343c-23.622-.576-47.975.399-71.647.094-6.947-.089-25.08.413-31.186-.912l-1.631.727c-13.379.145-26.759.071-40.136-.221-8.939-.409-11.077 2.089-20.153-2.401l-.289-1.55c5.635-4.134 15.716-3.541 22.672-3.694"/><path fill="#20110D" d="m362.963 508.142 13.633.051 6.111.112c-4.069 2.426-7.91-.136-14.013 2.475l-.229 1.527c7.357 4.741 25.88.359 34.035 2.974l-1.631.727c-13.379.145-26.759.071-40.136-.221-8.939-.409-11.077 2.089-20.153-2.401l-.289-1.55c5.635-4.134 15.716-3.541 22.672-3.694"/><path fill="#881012" d="m458.325 450.343 2.006 1.44c-1.635 2.831-7.717 4.299-10.801 6.091-15.421 8.965-29.181 22.812-36.816 39.045-1.371 2.916-2.24 6.583-5.137 7.566l-2.397-1.478c7.663-20.348 19.292-31.107 35.934-44.823.453-.428.834-.77 1.317-1.174l.646-.532c4.151-3.461 9.682-4.217 15.248-6.135m82.673-2.494c6.134 3.265 15.302 7.954 21.637 10.602 9.871 8.589 17.928 15.163 24.93 26.507 3.19 5.169 7.095 13.329 10.436 17.79l-2.632 1.347c-5.703-1.787-11.367-15.521-13.382-20.804-5.916-15.505-35.885-26.184-40.989-35.442"/><path fill="#20110D" d="m384.079 409.12 2.788 2.019c5.058 2.754 7.785 4.891 12.305 8.326 3.128 1.263 8.367 3.754 11.393 4.171 45.892-1.617 93.44-.436 139.474-.786 7.219-.055 53.987-.317 59.225.542-6.053 1.73-16.97-.166-24.879 1.356-.289.63-.788 1.566-.927 2.237 7.191 3.632 10.545 6.176 15.081 12.934 15.987.912 58.729-1.197 71.686 1.259l.213 1.37c-6.365 1.924-55.46 1.246-66.141 1.434 1.968 1.5 2.957 2.019 4.155 4.171 1.379 1.932 3.31 4.356 4.156 6.493 9.327 12.354 18.237 28.559 23.475 43.237 1.115 3.124.285 4.646 2.75 7.189l.166 2.977-38.254.266c-.682-2.757-.649-3.638-2.744-5.567-3.341-4.461-7.246-12.621-10.436-17.79-7.002-11.344-15.059-17.918-24.93-26.507-6.335-2.648-15.503-7.337-21.637-10.602-1.127-.866-2.29-2.709-3.182-3.946-3.186-1.801-67.583-1.076-72.734.08-1.946 4.216-2.217 3.392-6.757 6.36-5.566 1.918-11.097 2.674-15.248 6.135l-.646.532c-.483.404-.864.746-1.317 1.174l-1.22-3.705c-3.649-4.261-37.569-4.026-43.291-1.774 1.657-3.375 2.62-5.74 5.134-8.562l-3.926-.37c-1.627.346-15.276.298-17.989.331-4.431-.24-9.826-.16-14.342-.219-2.965-.4-4.481-.651-7.419-1.427 1.449-1.391 4.555-1.606 6.887-2.103-.571-1.779 1.01-10.709 1.365-13.102 6.024-5.487 12.106-12.17 17.766-18.133"/><path fill="#FB7147" d="M575.069 461.657c-3.103-4.055-7.531-5.112-8.505-8.16.641-.463 30.901-2.917 35.759-3.942 2.628 2.884 4.478 4.974 6.796 8.1l3.489-3.009c9.327 12.354 18.237 28.559 23.475 43.237 1.115 3.124.285 4.646 2.75 7.189l.166 2.977-38.254.266c-.682-2.757-.649-3.638-2.744-5.567-3.341-4.461-7.246-12.621-10.436-17.79-7.002-11.344-15.059-17.918-24.93-26.507 5.817-2.8 7.069.438 12.434 3.206"/><path fill="#F29A54" d="m609.119 457.655 3.489-3.009c9.327 12.354 18.237 28.559 23.475 43.237 1.115 3.124.285 4.646 2.75 7.189l.166 2.977-38.254.266c-.682-2.757-.649-3.638-2.744-5.567-3.341-4.461-7.246-12.621-10.436-17.79-7.002-11.344-15.059-17.918-24.93-26.507 5.817-2.8 7.069.438 12.434 3.206 13.162 11.031 18.076 22.935 26.217 37.424 1.242 1.679 3.299 6.329 5.598 6.169 3.07-.213 21.503-.455 21.889-4.389 1.114-11.338-13.481-34.591-19.654-43.206"/><path fill="#FB7147" d="M410.565 423.636c45.892-1.617 93.44-.436 139.474-.786 7.219-.055 53.987-.317 59.225.542-6.053 1.73-16.97-.166-24.879 1.356-.289.63-.788 1.566-.927 2.237-5.693 4.671-.782 2.178-3.148 7.15-15.303 1.878-154.532 3.753-158.737-.14l2.018-4.372-1.465-2.769c-3.273.016-8.919.238-11.863-.485l10.378-1.763c-3.366-.245-6.725-.568-10.076-.97"/><path fill="#DC3932" d="m384.079 409.12 2.788 2.019c5.058 2.754 7.785 4.891 12.305 8.326 3.128 1.263 8.367 3.754 11.393 4.171 3.351.402 6.71.725 10.076.97l-10.378 1.763c2.944.723 8.59.501 11.863.485-6.36 2.171-15.954 7.445-19.534 13.195-4.901.908-31.472.367-37.644.306-.571-1.779 1.01-10.709 1.365-13.102 6.024-5.487 12.106-12.17 17.766-18.133"/><path fill="#EC3525" d="M386.867 411.139c5.058 2.754 7.785 4.891 12.305 8.326-6.217 2.979-13.087-.297-14.145-6.809z"/><path fill="#ED9C56" d="m422.126 426.854 1.465 2.769-2.018 4.372c4.205 3.893 143.434 2.018 158.737.14 2.366-4.972-2.545-2.479 3.148-7.15 7.191 3.632 10.545 6.176 15.081 12.934-47.686.992-95.702-.83-143.434.147-17.353.355-35.16.346-52.513-.017 3.58-5.75 13.174-11.024 19.534-13.195m115.69 17.049c19.121-.144 48.172-1.228 66.481.079 1.968 1.5 2.957 2.019 4.155 4.171 1.379 1.932 3.31 4.356 4.156 6.493l-3.489 3.009c-2.318-3.126-4.168-5.216-6.796-8.1-4.858 1.025-35.118 3.479-35.759 3.942.974 3.048 5.402 4.105 8.505 8.16-5.365-2.768-6.617-6.006-12.434-3.206-6.335-2.648-15.503-7.337-21.637-10.602-1.127-.866-2.29-2.709-3.182-3.946m-136.079.24c21.112-.437 42.231-.49 63.345-.16-1.946 4.216-2.217 3.392-6.757 6.36-5.566 1.918-11.097 2.674-15.248 6.135l-.646.532c-.483.404-.864.746-1.317 1.174l-1.22-3.705c-3.649-4.261-37.569-4.026-43.291-1.774 1.657-3.375 2.62-5.74 5.134-8.562"/><path fill="#DCDAD6" d="M510.236 514.756c5.079-1.673 5.861-.441 11.558 1.156 4.026 5.158 11.011 5.203 17.9 6.475l2.071 1.633.258 3.255c2.715 4.702 1.826 5.252-.693 9.976.029 6.919 11.999 19.045 17.235 23.66-6.034 6.779-10.348 10.554-12.773 19.342l-1.282 2.509c11.533 2.444 29.15-.434 37.062 1.169-1.763 2.14-2.3 3.541-4.588 4.367-13.746 14.948-14.94 16.402-33.879 24.45-5.27 2.255-15.019 4.267-18.04 6.654l-1.536 1.068c-2.349.379-2.642.453-4.606 1.786-1.603-2.805-1.985-3.804-4.785-5.62-3.319-.194-1.981-.515-5.056 1.591l-.201 2.776c-4.422-1.096-9.907.235-14.515.967-4.909.385-17.009-3.282-22.21-4.554-16.225-3.966-36.063-14.179-46.875-27.154-1.629-.738-4.703-4.496-6.097-6.05 10.941-1.395 59.05 2.405 64.038-3.091l-1.13-.752c-2.37-3.242-12.243-19.577-13.022-22.726l1.1-.356 4.083 2.276 1.571-1.03c.639-10.447 6.831-14.107 7.564-21.52-2.831-5.171-2.773-4.838-1.407-9.558 7.876-6.44 17.293-4.508 23.352-11.356z"/><path fill="#DC3932" d="M483.222 581.121c2.097 5.172-3.504 8.715.918 11.692 4.67-1.257 2.903-4.59 7.835-6.42l.592.672c.406 3.281 17.96 18.603 20.895 20.094 7.237-8.941 11.502-14.397 23.779-15.8.17-.019 3.992 1.617 6.136 1.566 1.536-2.954.574-6.338 1.133-10.163 11.533 2.444 29.15-.434 37.062 1.169-1.763 2.14-2.3 3.541-4.588 4.367-13.746 14.948-14.94 16.402-33.879 24.45-5.27 2.255-15.019 4.267-18.04 6.654l-1.536 1.068c-2.349.379-2.642.453-4.606 1.786-1.603-2.805-1.985-3.804-4.785-5.62-3.319-.194-1.981-.515-5.056 1.591l-.201 2.776c-4.422-1.096-9.907.235-14.515.967-4.909.385-17.009-3.282-22.21-4.554-16.225-3.966-36.063-14.179-46.875-27.154-1.629-.738-4.703-4.496-6.097-6.05 10.941-1.395 59.05 2.405 64.038-3.091"/><path fill="#881012" d="M425.281 590.262c6.361-.769 15.801 8.611 21.882 12.088 16.39 9.374 33.616 14.138 52.453 15.114 1.472.087 8.686.875 9.466.763l-.201 2.776c-4.422-1.096-9.907.235-14.515.967-4.909.385-17.009-3.282-22.21-4.554-16.225-3.966-36.063-14.179-46.875-27.154"/><path fill="#AB2923" d="M525.065 619.402c-2.713-1.014-3.132-.971-4.609-3.273l.6-1.095c4.379-1.399 9.42-1.505 12.284-2.524 11.423-4.063 23.059-11.159 32.743-18.441 4.772-3.589 5.674-5.437 10.901-5.771-13.746 14.948-14.94 16.402-33.879 24.45-5.27 2.255-15.019 4.267-18.04 6.654"/><path fill="#70798F" d="M507.315 529.481c1.488 1.091 3.603 2.774 5.208 3.513l.475 1.155c12.055 1.513 10.801-1.561 16.128 10.7 3.354 1.811 7.477 3.537 9.336 6.737 1.775 7.144-.61 9.316 2.154 14.602-1.595 9.147-7.371 6.526-12.35 11.413-2.843 2.79.111 7.462-7.136 10.178-6.352-1.494-13.855-.681-18.428-2.364-5.276-10.07-8.26-9.599-14.457-13.55-2.819-1.797-2.31-18.298-.969-22.935 4.086-4.294 7.818-.907 11.346-5.267-.412.509 1.418-6.643 1.448-6.747 2.178-1.957 6.534-2.688 9.553-3.457z"/><path fill="#2C2C37" d="M484.707 580.475c-1.785-8.118-4.156-22.118-1.676-30.27 2.256-7.413 7.187-5.871 12.17-8.343 1.501-8.088 3.863-9.803 10.849-13.346l1.265.965 2.308 3.978c-3.019.769-7.375 1.5-9.553 3.457-.03.104-1.86 7.256-1.448 6.747-3.528 4.36-7.26.973-11.346 5.267-1.341 4.637-1.85 21.138.969 22.935 6.197 3.951 9.181 3.48 14.457 13.55 4.573 1.683 12.076.87 18.428 2.364 7.247-2.716 4.293-7.388 7.136-10.178 4.979-4.887 10.755-2.266 12.35-11.413 2.018 5.213-1.401 8.143-5.653 10.861-3.414.384-2.143-.187-4.743 2.273-1.221 7.903-1.139 14.748-12.713 12.441-2.412-2.369-1.746-2.514-4.6-2.689-9.931 7.534-10.799.006-20.34-2.009l-.592-.672c1.063-1.793 1.207-1.947 2.721-3.43l.378-.365.015-2.375c-3.293-1.289-6.498-.244-10.382.252"/><path fill="#070304" d="M512.523 532.994c14.554-12.243 15.663 6.681 22.296 9.954l2.751-1.665c2.879 1.611 4.74 7.065 6.5 10.512-1.1 8.785.262 20.683-3.693 26.522l-1.976.945c-1.211-.742-2.291-1.366-3.438-2.213 4.252-2.718 7.671-5.648 5.653-10.861-2.764-5.286-.379-7.458-2.154-14.602-1.859-3.2-5.982-4.926-9.336-6.737-5.327-12.261-4.073-9.187-16.128-10.7z"/><path fill="#EC3525" d="M510.236 514.756c5.079-1.673 5.861-.441 11.558 1.156 4.026 5.158 11.011 5.203 17.9 6.475l2.071 1.633.258 3.255c-1.786 2.212-2.258 2.952-4.754 4.441-6.523.376-20.469-8.557-23.513-14.669-.731-1.469-2.014-1.591-3.52-2.291m-4.903 1.343 4.903-1.343c-.732 2.921-1.034 6.821-3.342 8.086-5.344 2.932-11.142 6.138-16.75 8.451-2.84-1.457-5.233-2.57-8.163-3.838 7.876-6.44 17.293-4.508 23.352-11.356"/><path fill="#DC3932" d="M402.5 515.281c6.106 1.325 24.239.823 31.186.912 23.672.305 48.025-.67 71.647-.094-6.059 6.848-15.476 4.916-23.352 11.356-1.366 4.72-1.424 4.387 1.407 9.558-.733 7.413-6.925 11.073-7.564 21.52l-1.571 1.03-4.083-2.276-1.1.356c.779 3.149 10.652 19.484 13.022 22.726l1.13.752c-4.988 5.496-53.097 1.696-64.038 3.091-15.501-1.047-34.546.288-51.109-.575l-3.232.292c-8.666.077-15.276-.274-23.938-.928l-.041-.609c8.334-2.105 15.098-2.04 23.602-2.292l-.703-3.861c3.478-2.304 2.792-1.152 4.104-4.694-1.16-8.334-.175-26.998-3.108-32.749l-3.456-.789c.599-5.336.962-8.123.661-13.56-1.121-3.055-1.065-5.425-1.231-8.66 13.377.292 26.757.366 40.136.221z"/><path fill="#FB7147" d="M360.733 515.787c13.377.292 26.757.366 40.136.221-.616 5.142-1.429 11.22-.292 16.306 2.024 20.987 3.086 22.751 12.1 41.811 1.055 2.354 1.66 3.813 3.125 6.001 21.768.044 44.628-.315 66.29.243l1.13.752c-4.988 5.496-53.097 1.696-64.038 3.091-15.501-1.047-34.546.288-51.109-.575l-3.232.292c-8.666.077-15.276-.274-23.938-.928l-.041-.609c8.334-2.105 15.098-2.04 23.602-2.292l-.703-3.861c3.478-2.304 2.792-1.152 4.104-4.694-1.16-8.334-.175-26.998-3.108-32.749l-3.456-.789c.599-5.336.962-8.123.661-13.56-1.121-3.055-1.065-5.425-1.231-8.66"/><path fill="#20110D" d="M401.197 564.036c6.988 7.473-.264 7.077 3.293 13.559 1.365.81 2.53 1.576 3.985 2.211l7.327.32c21.768.044 44.628-.315 66.29.243l1.13.752c-4.988 5.496-53.097 1.696-64.038 3.091-15.501-1.047-34.546.288-51.109-.575l-3.232.292c-8.666.077-15.276-.274-23.938-.928l-.041-.609c8.334-2.105 15.098-2.04 23.602-2.292l-.703-3.861c3.478-2.304 2.792-1.152 4.104-4.694 4.497 1.367 28.582.725 33.859-.162l.792-1.221z"/><path fill="#ED9C56" d="M401.197 564.036c6.988 7.473-.264 7.077 3.293 13.559 1.365.81 2.53 1.576 3.985 2.211l-44.009.294-.703-3.861c3.478-2.304 2.792-1.152 4.104-4.694 4.497 1.367 28.582.725 33.859-.162l.792-1.221z"/><path fill="#F29A54" d="M360.733 515.787c13.377.292 26.757.366 40.136.221-.616 5.142-1.429 11.22-.292 16.306 2.024 20.987 3.086 22.751 12.1 41.811 1.055 2.354 1.66 3.813 3.125 6.001l-7.327-.32c-1.455-.635-2.62-1.401-3.985-2.211-3.557-6.482 3.695-6.086-3.293-13.559-.334-3.141-2.233-7.936-3.201-11.242-3.79-12.944-5.004-20.656-2.611-33.845-5.725.017-26.039-.711-29.42 2.237-.044 2.017.024 2.011-.666 3.87l-3.335-.609c-1.121-3.055-1.065-5.425-1.231-8.66"/><path fill="#881012" d="M400.577 532.314c.072-3.885-.173-7.866 1.487-11.351.335 2.484 1.119 8.609 1.115 10.89-.017 8.374 11.427 36.976 9.498 42.272-9.014-19.06-10.076-20.824-12.1-41.811"/><path fill="#FB7147" d="M368.075 583.637c16.563.863 35.608-.472 51.109.575 1.394 1.554 4.468 5.312 6.097 6.05 10.812 12.975 30.65 23.188 46.875 27.154 5.201 1.272 17.301 4.939 22.21 4.554 3.952 1.084 3.587.309 5.581 3.017-.821 2.902-2.344 3.593-4.809 5.454-4.289 13.277 1.614 12.232 0 18.075-15.168-.844-78.248 2.517-86.799-.014-2.476-3.73-2.919-4.188-6.472-6.915-3.07-3.21-6.32-7.215-9.239-10.636-6.813-9.313-13.357-17.51-18.468-27.868-1.716-4.955-4.377-11.194-6.34-16.18z"/><path fill="#F29A54" d="M368.075 583.637c16.563.863 35.608-.472 51.109.575 1.394 1.554 4.468 5.312 6.097 6.05 10.812 12.975 30.65 23.188 46.875 27.154 5.201 1.272 17.301 4.939 22.21 4.554 3.952 1.084 3.587.309 5.581 3.017-.821 2.902-2.344 3.593-4.809 5.454-7.852-5.527-18.719-6.563-27.771-8.793-21.286-5.243-37.014-18.902-51.451-34.557-7.819-.849-35.495-2.215-40.218 3.397l.376 3.066c-.554 3.468-.944 6.136-1.914 9.529-1.716-4.955-4.377-11.194-6.34-16.18zm27.905 45.173c5.107 4.349 12.095 12.257 16.791 15.525 15.819.176 64.05 1.149 77.633-1.503 2.555 1.625 3.208 3.138 4.734 5.684-15.168-.844-78.248 2.517-86.799-.014-2.476-3.73-2.919-4.188-6.472-6.915-3.07-3.21-6.32-7.215-9.239-10.636z"/><path fill="#ED9C56" d="M376.074 593.554c6.571 16.355 12.319 21.221 19.906 35.256l-3.352 2.141c-6.813-9.313-13.357-17.51-18.468-27.868.97-3.393 1.36-6.061 1.914-9.529"/><path fill="#FB7147" d="m581.572 583.931 54.27-.002c-8.81 22.221-19.371 42.91-38.364 58.83-.261.338-4.202 5.77-3.909 5.526l-3.092 1.591c-6.982-1.891-48.929-1.318-59.522-1.507-2.284.981-2.578 1.041-5.059.905 2.664-3.845 2.756-6.494 1.701-10.858-1.378-1.764-7.317-13.533-8.674-16.16 1.964-1.333 2.257-1.407 4.606-1.786l1.536-1.068c3.021-2.387 12.77-4.399 18.04-6.654 18.939-8.048 20.133-9.502 33.879-24.45 2.288-.826 2.825-2.227 4.588-4.367"/><path fill="#F29A54" d="m581.572 583.931 54.27-.002c-8.81 22.221-19.371 42.91-38.364 58.83-.261.338-4.202 5.77-3.909 5.526l-3.092 1.591c-6.982-1.891-48.929-1.318-59.522-1.507.969-1.635 3.036-3.758 4.368-5.235 7.796 3.892 43.124 1.57 53.881.775 18.523-15.651 30.397-34.223 40.042-56.093-15.601-.799-27.811-1.434-43.39-.944-10.203 11.698-20.488 22.197-34.887 27.567-2.934.814-4.197 1.518-6.981.433l-.883-2.124c18.939-8.048 20.133-9.502 33.879-24.45 2.288-.826 2.825-2.227 4.588-4.367"/><path fill="#EC3525" d="M518.923 622.256c1.964-1.333 2.257-1.407 4.606-1.786 1.03 2.004 1.383 3.155 3.112 4.508 3.393 4.181 6.483 12.847 8.682 18.156-1.332 1.477-3.399 3.6-4.368 5.235-2.284.981-2.578 1.041-5.059.905 2.664-3.845 2.756-6.494 1.701-10.858-1.378-1.764-7.317-13.533-8.674-16.16"/><path fill="#ED9C56" d="m543.105 612.748.883 2.124c2.784 1.085 4.047.381 6.981-.433-9.945 6.583-12.629 8.331-24.328 10.539-1.729-1.353-2.082-2.504-3.112-4.508l1.536-1.068c3.021-2.387 12.77-4.399 18.04-6.654"/><path fill="#FB7147" d="M509.082 618.227c3.075-2.106 1.737-1.785 5.056-1.591 2.8 1.816 3.182 2.815 4.785 5.62 1.357 2.627 7.296 14.396 8.674 16.16 1.055 4.364.963 7.013-1.701 10.858 2.481.136 2.775.076 5.059-.905 10.593.189 52.54-.384 59.522 1.507-3.364.878-3.814.394-5.807 2.716 3.371 1.807 5.414 1.67 9.011 2.879l-11.642.407.041 2.478c-11.599 3.813-25.576 15.315-33.54 15.271-3.827-2.691-4.955-2.201-9.561-2.191-3.11.86-5.283 1.461-8.303 2.652-11.524 3.067-45.903 3.223-57.42-.166-4.483-.577-8.001-1.855-11.626-.309-.271 1.068-.595 1.903-.546 2.973-4.205-2.309-39.121-16.699-41.389-16.639l-.893-4.014c26.893.223 53.788.214 80.681-.03l.875-.447 4.827-.975c-1.084-2.311-1.549-2.781-3.234-4.715-2.957-5.495-6.362-6.391-4.729-12.918 5.981-5.308 8.901-8.251 11.659-15.845z"/><path fill="#DCDAD6" d="M509.082 618.227c3.075-2.106 1.737-1.785 5.056-1.591 2.8 1.816 3.182 2.815 4.785 5.62 1.357 2.627 7.296 14.396 8.674 16.16 1.055 4.364.963 7.013-1.701 10.858l-3.96 2.897-.944 1.308c-2.164 4.315-3.975 10.293-8.899 11.028-2.915-1.716-5.172-6.854-6.908-10.026-1.084-2.311-1.549-2.781-3.234-4.715-2.957-5.495-6.362-6.391-4.729-12.918 5.981-5.308 8.901-8.251 11.659-15.845z"/><path fill="#B6EBF5" d="m497.222 636.848 5.983 3.342c1.031 2.641.318 1.897 2.501 3.271-1.896 3.167-1.629 1.783-1.228 5.204 3.318 4.709 11.146 4.352 16.514 4.814-2.164 4.315-3.975 10.293-8.899 11.028-2.915-1.716-5.172-6.854-6.908-10.026-1.084-2.311-1.549-2.781-3.234-4.715-2.957-5.495-6.362-6.391-4.729-12.918"/><path fill="#C3D3D7" d="M527.597 638.416c1.055 4.364.963 7.013-1.701 10.858l-3.96 2.897-.944 1.308c-5.368-.462-13.196-.105-16.514-4.814-.401-3.421-.668-2.037 1.228-5.204 4.799.449 14.646 1.898 18.398-.749l-.267-1.823z"/><path fill="#70798F" d="M503.205 640.19c7.728.625 12.892.852 20.632.699l.267 1.823c-3.752 2.647-13.599 1.198-18.398.749-2.183-1.374-1.47-.63-2.501-3.271"/><path fill="#ED9C56" d="M418.802 655.933c26.893.223 53.788.214 80.681-.03q-.9.918-2.172 2.217c-17.36 2.529-44.06.468-60.297 2.707 10.762 4.25 25.291 10.435 36.242 13.095-4.483-.577-8.001-1.855-11.626-.309-.271 1.068-.595 1.903-.546 2.973-4.205-2.309-39.121-16.699-41.389-16.639z"/><path fill="#20110D" d="M530.955 648.369c10.593.189 52.54-.384 59.522 1.507-3.364.878-3.814.394-5.807 2.716 3.371 1.807 5.414 1.67 9.011 2.879l-11.642.407c-18.734.357-37.357-.196-56.086-.58l-4.017-3.127 3.96-2.897c2.481.136 2.775.076 5.059-.905"/><path fill="#ED9C56" d="M525.953 655.298c18.729.384 37.352.937 56.086.58l.041 2.478c-11.599 3.813-25.576 15.315-33.54 15.271-3.827-2.691-4.955-2.201-9.561-2.191 10.411-4.265 15.373-4.587 25.414-10.536-12.231-2.365-33.889-1.296-39.692-3.057z"/><path fill="#EC3525" d="m520.992 653.479.944-1.308 4.017 3.127-1.252 2.545c-1.751 3.624-6.412 11.233-9.591 13.571-8.307 1.402-8.903-12.637-14.752-15.958l4.827-.975c1.736 3.172 3.993 8.31 6.908 10.026 4.924-.735 6.735-6.713 8.899-11.028"/><path fill="#DC3932" d="m547.433 516.263 54.949-.457-1.297 3.2c2.747 16.403-1.541 44.04-13.625 56.064l.414.646c-.98 1.254-2.536 3.115-3.307 4.436-2.679.759-34.003.09-38.775.101 2.425-8.788 6.739-12.563 12.773-19.342-5.236-4.615-17.206-16.741-17.235-23.66 2.519-4.724 3.408-5.274.693-9.976l-.258-3.255-2.071-1.633c-6.889-1.272-13.874-1.317-17.9-6.475 6.083.053 20.287-.206 25.639.351"/><path fill="#AB2923" d="m587.46 575.07-.782-.898c-.567-3.827 6.732-19.402 8.014-25.285 1.865-8.555 1.442-21.787 3.661-29.271l2.732-.61c2.747 16.403-1.541 44.04-13.625 56.064"/><path fill="#E54F49" d="M521.794 515.912c6.083.053 20.287-.206 25.639.351 5.042 1.019 7.165 1.149 12.342 1.312l-20.081 4.812c-6.889-1.272-13.874-1.317-17.9-6.475"/><path fill="#ED9C56" d="M602.382 515.806c12.563.276 25.131.343 37.697.202.197.74 1.111 4.363 1.333 4.814 4.448 14.675 1.448 38.502-2.865 53.045-.874 1.259-1.354 1.685-1.405 3.222l-1.058 2.904c-16.192-.279-35.444-.355-51.517.159.771-1.321 2.327-3.182 3.307-4.436l-.414-.646c12.084-12.024 16.372-39.661 13.625-56.064z"/><path fill="#FB7147" d="M607.873 520.176c10.225-.927 18.425-1.108 28.617-1.232.038 10.246 2.562 47.504-4.769 54.185-8.692-2.016-30.63 1.682-35.159-2.798 8.664-8.433 11.126-36.891 11.298-49.016zm-211.27-67.471c5.722-2.252 39.642-2.487 43.291 1.774l1.22 3.705c-16.642 13.716-28.271 24.475-35.934 44.823l-.303.731-1.757 4.714c-6.804-.113-13.608-.162-20.413-.147l-6.111-.112-4.942-1.876-.596-3.342 2.49-7.455c1.643-5.447 2.35-7.394 4.97-12.423 4.813-12.696 16.181-24.77 18.085-30.392"/><path fill="url(#a)" d="m439.894 454.479 1.22 3.705c-16.642 13.716-28.271 24.475-35.934 44.823l-.303.731-5.233-.114c.164-.531.336-1.06.515-1.586 6.356-18.85 21.872-38.75 39.735-47.559"/><path fill="#F29A54" d="m376.596 508.193-4.942-1.876-.596-3.342c4.431 3.148 21.656 1.834 27.044.927.516-.082 1.03-.175 1.542-.278l5.233.114-1.757 4.714c-6.804-.113-13.608-.162-20.413-.147z"/><path fill="#20110D" d="M408.339 648.502c8.551 2.531 71.631-.83 86.799.014 2.681.738 3.988 1.243 6.813 1.25 1.685 1.934 2.15 2.404 3.234 4.715l-4.827.975-.875.447c-26.893.244-53.788.253-80.681.03-8.053-.348-16.413-.457-24.497-.675-13.846-2.147-28.016-.434-35.364-1.783l.638-1.244c-.999-.561-1.894-.918-3.02-1.135 9.079-2.234 23.553 1.133 31.125-2.11 3.571-.46 15.226-.12 20.655-.484"/><path fill="#070304" d="M614.533 723.633c-45.066.323-90.133.396-135.199.219-10.951-.026-72.565 1.475-76.793-2.448 28.504-2.514 74.063-1.694 103.32-1.467 37.535.292 81.681-1.13 118.816.361l.441.716c-4.191 2.126-5.847 2.119-10.585 2.619m-164.516 24.48c42.663 1.58 85.37 1.569 128.032-.034l-.891 3.006-1.98 1.07c-27.193 7.485-97.545 5.613-125.624-.467-.083-1.019.276-2.505.463-3.575"/><path fill="#AB2923" d="M379.822 444.104c2.713-.033 16.362.015 17.989-.331l3.926.37c-2.514 2.822-3.477 5.187-5.134 8.562-1.904 5.622-13.272 17.696-18.085 30.392-2.62 5.029-3.327 6.976-4.97 12.423l-2.49 7.455.596 3.342 4.942 1.876-13.633-.051 1.025-1.861c-1.099-1.018-3.104-2.463-2.703-4.273 5.22-23.549 16.713-40.112 33.082-56.993-5.934.052-8.771-.198-14.545-.911"/><path fill="#F29A54" d="m397.811 443.773 3.926.37c-2.514 2.822-3.477 5.187-5.134 8.562-1.904 5.622-13.272 17.696-18.085 30.392-1.028-1.499-2.18-4.035-3.031-5.737 3.988-8.863 15.694-26.419 22.324-33.587"/><path fill="#ED9C56" d="M375.487 477.36c.851 1.702 2.003 4.238 3.031 5.737-2.62 5.029-3.327 6.976-4.97 12.423l-2.49 7.455.596 3.342 4.942 1.876-13.633-.051 1.025-1.861c3.389-3.947 1.095-7.947 4.491-12.028 2.347-9.104 2.197-8.853 7.008-16.893"/><path fill="#2D0101" d="m593.569 648.285.951.122c19.538 2.374 81.406-3.768 92.187 5.149-4.885 2.654-81.391 1.51-93.026 1.915-3.597-1.209-5.64-1.072-9.011-2.879 1.993-2.322 2.443-1.838 5.807-2.716z"/><path fill="#20110D" d="M584.567 580.152c16.073-.514 35.325-.438 51.517-.159 9.237.029 44.466-.177 51.266 1.793-4.491 3.457-40.402 2.155-49.28 2.281l-2.228-.138-54.27.002c-7.912-1.603-25.529 1.275-37.062-1.169l1.282-2.509c4.772-.011 36.096.658 38.775-.101"/><path fill="#DCDAD6" d="M311.736 579.872c8.96-1.119 11.879-8.311 20.958-4.514l1.536 2.01c-2.531 3.564-9.787 4.359-15.196 6.886l-.622.458c-19.678 4.883-46.796 16.071-64.442 19.751l-1.268-1.241c-.509-3.034-.432-2.046 1.717-5.264 19.455-5.721 38.039-12.179 57.317-18.086"/><path fill="#F29A54" d="M538.979 671.436c4.606-.01 5.734-.5 9.561 2.191-6.787 2.381-13.047 4.757-20.107 6.188l-3.461.33c-14.385.766-39.663 1.892-53.348-.832-4.888-.524-5.93-.902-10.54-2.727-.049-1.07.275-1.905.546-2.973 3.625-1.546 7.143-.268 11.626.309 11.517 3.389 45.896 3.233 57.42.166 3.02-1.191 5.193-1.792 8.303-2.652"/><path fill="#EC3525" d="M343.643 458.578c.23 3.449.25 6.384 1.361 9.667l.459 2.441c-1.696-.193-3.171-.422-4.854-.704-.929 1.358-.926.936-1.151 2.395-3.251 7.726-14.911 33.467-14.327 40.756.173 2.498-.107 2.844-1.396 5.025-2.061 2.476-5.239 2.817-8.463 3.621 1.175-11.055 18.961-59.016 28.371-63.201"/><path fill="#E54F49" d="M319.034 584.254c.132 4.216-.231 6.581 2.422 9.844l2.715-.524c4.631 3.363 8.994 24.005 7.312 29.561l-1.443.766c-.92-.541-1.751-.902-2.439-1.668-.64 1.47-1.378 3.378-2.197 4.708-2.814-5.17-8.606-14.036-7.692-19.475-.075-1.737-1.243-4.582-1.674-6.338-2.335-9.496-.518-9.029 2.374-16.416z"/><path fill="#EC3525" d="M319.034 584.254c.132 4.216-.231 6.581 2.422 9.844 2.682 4.835 3.042 8.099 2.578 13.695l-6.322-.327c-.075-1.737-1.243-4.582-1.674-6.338-2.335-9.496-.518-9.029 2.374-16.416z"/><path fill="#D54723" d="M325.404 626.941c-2.814-5.17-8.606-14.036-7.692-19.475l6.322.327c1.077 4.82 2.594 9.667 3.567 14.44-.64 1.47-1.378 3.378-2.197 4.708"/><path fill="#AB2923" d="m635.842 583.929 2.228.138c-1.112 4.166-.441 10.556-2.884 15.017-6.526 11.912-21.522 37.065-32.242 44.744-3.42.624-1.988.793-5.466-1.069 18.993-15.92 29.554-36.609 38.364-58.83m-164.218 95.384c13.685 2.724 38.963 1.598 53.348.832 1.521 1.875 2.649 3.746 4.808 4.605-7.762 2.362-49.236 1.822-57.748-.129zm-103.804-92.41c1.963 4.986 4.624 11.225 6.34 16.18 5.111 10.358 11.655 18.555 18.468 27.868 2.919 3.421 6.169 7.426 9.239 10.636-1.504.582-3.226 1.629-4.368 1.06-8.707-4.332-25.211-32.949-28.614-40.736-1.694-7.553-5.449-7.561-1.065-15.008"/><path fill="#881012" d="M608.452 448.153c1.868-.296 3.36-.903 4.783.635 11.109 12.014 24.613 37.916 26.795 53.211-.32.878-.777 2.301-1.197 3.073-2.465-2.543-1.635-4.065-2.75-7.189-5.238-14.678-14.148-30.883-23.475-43.237-.846-2.137-2.777-4.561-4.156-6.493M582.08 658.356l1.237 1.945c-9.895 9.166-41.035 20.221-53.537 24.449-2.159-.859-3.287-2.73-4.808-4.605l3.461-.33c7.06-1.431 13.32-3.807 20.107-6.188 7.964.044 21.941-11.458 33.54-15.271"/><path fill="#C63226" d="m662.814 686.885 3.809 4.862c-7.599 7.812-22.215 26.281-33.056 24.812l.783-3.525c9.619-7.7 18.736-11.989 24.061-22.665 1.319-.689 3.19-2.448 4.403-3.484"/><path fill="#881012" d="M419.695 659.947c2.268-.06 37.184 14.33 41.389 16.639 4.61 1.825 5.652 2.203 10.54 2.727l.408 5.308c-10.266-4.042-47.29-15.709-52.337-24.674"/><path fill="#2D0101" d="M394.305 655.258c-10.151.984-32.721.65-43.222.29-2.302-1.421-2.859-1.822-5.454-2.532l-3.431 2.558c-2.831-.896-1.792-.254-3.858-3.11l-.039 1.182.519-1.595c6.946-4.427 39.562-3.525 48.864-3.065-7.572 3.243-22.046-.124-31.125 2.11 1.126.217 2.021.574 3.02 1.135l-.638 1.244c7.348 1.349 21.518-.364 35.364 1.783"/><path fill="#F29A54" d="m361.303 538.007 3.456.789c2.933 5.751 1.948 24.415 3.108 32.749-1.312 3.542-.626 2.39-4.104 4.694-.216-1.422-.879-3.422-1.308-4.867-2.56-8.294-2.428-16.063-2.055-24.604.53-1.306.778-6.986.903-8.761"/><path fill="#D4C7C5" d="M346.408 453.785c15.394-8.338 18.19 18.375-1.404 14.46-1.111-3.283-1.131-6.218-1.361-9.667z"/><path fill="#DCDAD6" d="M667.839 453.24c6.31-1.604 5.967-1.652 10.974 2.884 1.026 2.149.92 2.355.817 4.809-2.67 5.763-11.26 11.476-15.697 3.424-1.705-3.095 2.176-7.48 3.696-10.668z"/><path fill="#D4C7C5" d="M662.995 667.043c6.464-6.786 12.315-1.946 17.978 2.894-2.45 4.407-3.784 7.773-8.666 9.304-6.911-.761-8.246-6.018-9.312-12.198"/><path fill="#E54F49" d="M339.458 472.377c2.457 1.194 1.662.415 2.896 3.063-2.42 8.229-6.143 14.926-9.165 22.838-1.434 3.754.124 8.686-2.103 12.727-2.578 1.326-3.122 1.501-5.955 2.128-.584-7.289 11.076-33.03 14.327-40.756"/><path fill="#D54723" d="m357.932 688.362 3.832-2.482c3.553 1.805 27.65 26.981 28.933 30.865-8.983-2.04-24.941-20.602-32.765-28.383"/><path fill="#DCDAD6" d="M359.879 600.825c-1.366 3.364-5.775 8.419-9.677 8.702-7.076-2.991-8.506-13.572-.672-16.505 3.711.146 4.655 1.316 7.49 3.745.827 1.199 1.981 2.979 2.859 4.058"/><path fill="#EC3525" d="M702.439 507.732c-3.797-6.348-7.549-19.205-9.873-26.416-1.184-3.673-.557-5.531-2.602-10.15l-.295-.653.928-2.179c7.528 13.108 12.286 26.908 17.068 41.236l-1.923.005c-1.261-1.075-1.655-1.623-3.303-1.843"/><path fill="#881012" d="m641.412 520.822 1.466-1.269c6.221 5.6 3.567 46.017-1.038 54.395-2.307.466-1.251.584-3.293-.081 4.313-14.543 7.313-38.37 2.865-53.045"/><path fill="#EC3525" d="m364.843 583.929 3.232-.292-.255 3.266c-4.384 7.447-.629 7.455 1.065 15.008-6.525 2.121-3.396-.665-9.006-1.086-.878-1.079-2.032-2.859-2.859-4.058l.196-2.719c-1.919-1.485-3.189-2.613-4.957-4.276 3.704-3.632 6.301 3.021 12.584-5.843m336.695 44.363c-4.106-6.604-1.217-26.427 4.996-28.267 2.166 3.206 1.551 4.792 1.81 9.138-1.798 8.156-2.833 11.447-6.806 19.129m.901-120.56c1.648.22 2.042.768 3.303 1.843l1.923-.005c.575 3.945 1.604 9.803 1.749 13.63-3.626-.209-6.324-1.63-9.662-3.058-2.043-.32-1.951-.262-3.655-1.412.085-2.852 4.215-7.371 6.342-10.998"/><path fill="#E54F49" d="M634.35 713.034c1.006-4.227 15.735-21.369 20.108-24.105l3.953 1.44c-5.325 10.676-14.442 14.965-24.061 22.665"/><path fill="#CECBBD" d="M697.718 638.134c-2.269-1.135-2.498-1.404-4.131-3.358l.881-1.558 4.128-.922c5.236.881 8.547 1.46 13.711 2.998l-2.7 7.195c-3.802-1.054-8.16-2.897-11.889-4.355"/><path fill="#EC3525" d="m642.364 407.206 8.469 9.612c-5.674.945-12.36-1.745-17.555 1.357l-1.152-.635c2.77-3.356 7.033-7.238 10.238-10.334"/><path fill="#881012" d="m362.455 571.372-.681 1.638-1.177.032c-3.968-5.825-4.233-22.02-1.847-28.674l1.261-.206.389 2.606c-.373 8.541-.505 16.31 2.055 24.604"/><path fill="#EC3525" d="m675.186 445.43 6.894 6.842-3.267 3.852c-5.007-4.536-4.664-4.488-10.974-2.884-1.934-.811-1.098-.176-2.281-2.296 2.414-2.772 5.981-2.926 9.628-5.514m-6.695 235.074c3.052 2.651 2.804 1.607 3.249 4.883-1.492 2.946-2.806 4.028-5.117 6.36l-3.809-4.862c.888-1.47 4.312-4.929 5.677-6.381"/><path fill="#DCDAD6" d="M664.14 524.29c6.012-.91 12.02-1.172 15.19 5.087.705 3.613.001 4.418-1.733 7.66-11.789 6.525-14.149-3.219-13.457-12.747m-320.632-.013c11.292-1.186 18.822.09 13.928 13.646-12.722 2.63-13.133-1.893-13.928-13.646m325.345 68.324c5.537.125 8.935 4.12 9.713 9.282-1.468 3.906-1.696 3.206-5.285 6.273-3.167 1.167-5.155.777-7.996-.585-3.664-5.486-.035-10.784 3.568-14.97"/><path fill="#DC3932" d="M623.209 157.426c-2.57-2.917-5.708-6.258-7.29-9.73-8.514-18.683 12.753-38.331 30.913-29.263 5.044 2.518 8.525 6.924 11.788 11.293 2.373 15.358-2.604 29.03-19.994 33.708-3.57.961-6.494-3.452-11.006-1.767-5.692 8.376-8.408 16.568-12.849 25.442-16.578 33.133-25.325 68.537-38.225 103.13 2.05-2.156 3.856-4.403 5.75-6.692 4.098-4.273 9.564-2.46 15.02-3.15 35.456-4.488 51.123 10.918 50.383 46.703-.56 27.019 2.669 51.196-4.565 77.751l-.77 2.355c-3.205 3.096-7.468 6.978-10.238 10.334-8.664 3.912-13.506 5.218-22.862 5.852-5.238-.859-52.006-.597-59.225-.542-46.034.35-93.582-.831-139.474.786-3.026-.417-8.265-2.908-11.393-4.171-4.52-3.435-7.247-5.572-12.305-8.326l-2.788-2.019-1.656-5.79c-5.084-23.627-.285-58.274-2.091-83.37-3.283-45.605 33.652-39.822 64.502-39.26-2.299-3.885-8.659-24.736-9.576-29.406 1.462-4.624-2.649-8.993.366-11.234.765 2.743 1.865 8.222 3.745 9.868l1.373-1.706c4.836 11.031 9.635 21.707 13.753 33.038l71.904-.067c14.757-.229 29.517-.279 44.275-.149 14.318-33.982 32.766-95.367 52.535-123.618"/><path fill="#DCDAD6" d="M623.209 157.426c-2.57-2.917-5.708-6.258-7.29-9.73-8.514-18.683 12.753-38.331 30.913-29.263 5.044 2.518 8.525 6.924 11.788 11.293 2.373 15.358-2.604 29.03-19.994 33.708-3.57.961-6.494-3.452-11.006-1.767-5.692 8.376-8.408 16.568-12.849 25.442-16.578 33.133-25.325 68.537-38.225 103.13-2.203 4.915-7.043 14.101-5.684 19.237 2.303 2.546 1.111 1.862 4.507 2.551 5.497 1.358 6.647 1.76 11.459 4.721 22.497 16.096 27.693 45.444 5.725 64.395-13.756 11.867-24.749 10.499-41.416 9.419-12.547-8.899-17.847-15.204-26.131-28.197-1.116-36.623 7.753-39.54 38.554-54.937 1.326-8.402 2.639-12.484 5.069-20.632l-1.012-1.227c-9.184-2.722-37.532-1.888-48.782-1.851 2.37-.54 5.231-1.684 7.564-2.525 14.757-.229 29.517-.279 44.275-.149 14.318-33.982 32.766-95.367 52.535-123.618"/><path fill="#38B7DB" d="M556.769 315.048c12.675-7.146 35.694 5.948 39.96 17.134 9.556 19.419 3.324 45.773-18.578 53.423-7.238 3.571-14.583 2.701-22.036.848-11.739-4.53-17.616-7.534-22.844-18.933-.983-1.456-3.337-7.497-4.15-9.471-7.8-13.647 10.809-42.665 27.648-43.001"/><path fill="#452C23" d="M578.319 325.192c10.043-1.776 10.23 4.513 18.41 6.99 9.556 19.419 3.324 45.773-18.578 53.423-7.238 3.571-14.583 2.701-22.036.848-11.739-4.53-17.616-7.534-22.844-18.933 4.156-3.472 5.147-3.275 10.458-3.179l.402 2.008c2.619 2.146 7.448 6.449 10.343 7.603 13.586 6.619 25.309-1.493 32.926-12.622 1.917-6.021 1.697-17.413.68-23.733-.416-13.825-3.583-6.73-9.761-12.405"/><path fill="#20110D" d="m543.729 364.341.402 2.008c2.764 10.203 11.392 14.109 21.153 12.54-1.75 3.921-2.322 5.072-6.549 6.664-.866.322-1.739.622-2.62.9-11.739-4.53-17.616-7.534-22.844-18.933 4.156-3.472 5.147-3.275 10.458-3.179"/><path fill="#3C2A29" d="M565.284 378.889c4.42-1.426 11.181 1.87 12.867 6.716-7.238 3.571-14.583 2.701-22.036.848.881-.278 1.754-.578 2.62-.9 4.227-1.592 4.799-2.743 6.549-6.664m-8.515-63.841c12.675-7.146 35.694 5.948 39.96 17.134-8.18-2.477-8.367-8.766-18.41-6.99-5.619-5.427-9.106-5.263-16.731-6.062-7.844 3.588-12.231 8.431-17.721 14.978.066 1.31.056 2.705.404 3.953-3.599 6.307-3.936 9.031-4.931 16.173 1.286 2.985 2.989 7.31 4.389 10.107-5.311-.096-6.302-.293-10.458 3.179-.983-1.456-3.337-7.497-4.15-9.471-7.8-13.647 10.809-42.665 27.648-43.001"/><path fill="#4E0D0B" d="M529.121 358.049c4.561-3.999 4.588-7.117 8.642-8.83 1.184 1.841 1.178 2.812 1.577 5.015 1.286 2.985 2.989 7.31 4.389 10.107-5.311-.096-6.302-.293-10.458 3.179-.983-1.456-3.337-7.497-4.15-9.471"/><path fill="#16D4FE" d="M581.066 341.543c4.65 7.804 4.603 10.871 6.334 19.787-7.617 11.129-19.34 19.241-32.926 12.622l1.336-2.751c-2.496-2.406-5.472-5.493-7.685-8.156-4.427-5.329-1.124-7.845-.39-14.14l.089-.788c1.769 2.297 2.218 3.324 4.937 4.293 7.001 2.599 17.111 16.583 23.657-2.03 3.451-2.622 3.566-4.541 4.648-8.837"/><path fill="#B6EBF5" d="M552.761 352.41c-4.339-14.305 22.82-28.65 23.657-2.03-6.546 18.613-16.656 4.629-23.657 2.03"/><path fill="#4E0D0B" d="M544.271 338.061c-.348-1.248-.338-2.643-.404-3.953 5.49-6.547 9.877-11.39 17.721-14.978 7.625.799 11.112.635 16.731 6.062 6.178 5.675 9.345-1.42 9.761 12.405a85 85 0 0 0-2.508-2.483c-16.664-15.775-26.776-13.173-41.301 2.947"/><path fill="#2E9AFD" d="M547.824 348.117c1.8-19.236 27.035-21.533 33.242-6.574-1.082 4.296-1.197 6.215-4.648 8.837-.837-26.62-27.996-12.275-23.657 2.03-2.719-.969-3.168-1.996-4.937-4.293"/><path fill="#16D4FE" d="M632.195 121.166c15.559-1.528 27.559 6.873 22.363 23.988-2.415 7.954-8.157 9.966-15.239 13.099-3.205.919-9.893-1.448-13.294-2.447-9.326-14.459-14.168-26.824 6.17-34.64"/><path fill="#AB2923" d="m444.834 280.7 1.267 3.889c-7.984-.457-35.629-2.159-42.009.964l3.825 2.635c-1.05 7.483-16.379 8.275-18.427 22.228-4.12 28.067.241 54.678.02 82.904 4.943 7.731 14.508 19.181 23.493 21.442 3.756.945 29.527 1.199 32.429-.177-9.593-.94-19.2-1.737-28.818-2.389 6.473-.899 14.876.481 21.431-.268 26.81-3.063 54.29 1.981 80.87.616 31.719-1.63 62.89-.153 94.53-.85.729-.016 4.855 3.368 7.175 1.681 6.188-5.637 10.601-10.558 15.262-17.471 1.152-25.284 1.431-63.816-.179-88.903-3.85-5.512-15.229-16.208-15.512-17.717l1.673-1.654c3.632.753 14.945 10.154 18.023 12.869-5.416-20.42-40.744-16.534-57.591-16.952 4.098-4.273 9.564-2.46 15.02-3.15 35.456-4.488 51.123 10.918 50.383 46.703-.56 27.019 2.669 51.196-4.565 77.751l-.77 2.355c-3.205 3.096-7.468 6.978-10.238 10.334-8.664 3.912-13.506 5.218-22.862 5.852-5.238-.859-52.006-.597-59.225-.542-46.034.35-93.582-.831-139.474.786-3.026-.417-8.265-2.908-11.393-4.171-4.52-3.435-7.247-5.572-12.305-8.326l-2.788-2.019-1.656-5.79c-5.084-23.627-.285-58.274-2.091-83.37-3.283-45.605 33.652-39.822 64.502-39.26"/><path fill="#38B7DB" d="m382.423 403.33 4.92 2.021c11.677 15.231 39.255 11.805 57.28 11.827l56.803.012c27.423.182 54.847-.013 82.265-.587 12.942-.208 25.925-.138 38.841-1.052 7.191-.509 11.556-5.001 15.925-10.28l4.677-.42-.77 2.355c-3.205 3.096-7.468 6.978-10.238 10.334-8.664 3.912-13.506 5.218-22.862 5.852-5.238-.859-52.006-.597-59.225-.542-46.034.35-93.582-.831-139.474.786-3.026-.417-8.265-2.908-11.393-4.171-4.52-3.435-7.247-5.572-12.305-8.326l-2.788-2.019z"/><path fill="#DCDAD6" d="M582.296 283.547c4.098-4.273 9.564-2.46 15.02-3.15 35.456-4.488 51.123 10.918 50.383 46.703-.56 27.019 2.669 51.196-4.565 77.751l-4.677.42c4.106-8.536 2.312-89.855 1.43-104.772-5.416-20.42-40.744-16.534-57.591-16.952"/><path fill="#CECBBD" d="m444.834 280.7 1.267 3.889c-7.984-.457-35.629-2.159-42.009.964-6.346 2.791-15.741 7.804-16.991 15.193-5.213 30.829-4.34 73.899.242 104.605l-4.92-2.021c-5.084-23.627-.285-58.274-2.091-83.37-3.283-45.605 33.652-39.822 64.502-39.26"/><path fill="#C3D3D7" d="M452.031 296.048c1.027-2.514 2.282-2.63 4.977-4.367 2.525 8.123 3.906 14 12.14 18.335 5.21 2.743 11.141 4.563 16.222 7.286 7.271 3.897 13.215 14.706 15.682 22.205 6.939 21.093-7.998 44.708-28.65 50.704-9.874 2.856-23.394 2.214-32.464-3.136-17.34-10.228-25.469-39.148-14.402-56.386 7.114-11.082 17.857-16.865 30.127-20.324.062-.018-.169-2.465-.277-2.97-.794-3.723-2.541-7.682-3.355-11.347"/><path fill="#3C2A29" d="M448.207 315.456c3.773-1.006 7.564-1.953 11.241-3.267 4.076 1.147 10.243 2.643 13.852 4.504 9.989 4.104 16.302 8.219 20.751 18.579 7.026 16.364 2.3 38.682-14.306 47.249l-.291.351c-25.407 15.773-54.673-5.692-54.801-30.119-3.053-16.907 10.417-29.726 23.554-37.297"/><path fill="#1EF5D6" d="M446.818 331.157c5.879 4.952-.101 3.726 4.649 9.8 5.365-5.652 9.919-4.847 17.09-3.981 4.201-.73 6.377 1.905 7.744 5.815l2.096-1.93c2.165.374 4.145.8 6.288 1.279 10.415 13.61-6.304 26.545-16.686 33.37-11.006 1.306-10.818.087-21.259-2.721-13.973-14.278-16.239-28.334.078-41.632"/><path fill="#B6EBF5" d="M451.467 340.957c5.365-5.652 9.919-4.847 17.09-3.981 4.008 6.81 5.029 9.72.796 16.787-4.585 3.55-7.925 6.924-13.949 4.019-4.338-4.797-3.792-10.503-3.937-16.825"/><path fill="#29F6B2" d="M468.557 336.976c4.201-.73 6.377 1.905 7.744 5.815.915 4.216 1.736 4.653.509 8.108l-1.145.511.959-2.53c-2.321 2.293-3.569 4.262-7.271 4.883 4.233-7.067 3.212-9.977-.796-16.787"/><path fill="#20110D" d="m424.653 352.753 1.245-1.2c.972 9.037 3.193 7.731 5.341 14.745l.588.229c.117-3.471-.882-6.905-1.662-10.311 4.435 6.705 8.446 16.465 16.575 16.573 10.441 2.808 10.253 4.027 21.259 2.721 7.991.484 8.91-2.788 15.173-3 1.477 4.419-1.852 6.236-3.427 10.011l-.291.351c-25.407 15.773-54.673-5.692-54.801-30.119"/><path fill="url(#b)" d="M446.818 331.157c17.117-12.336 27.699-5.879 37.867 10.983-2.143-.479-4.123-.905-6.288-1.279l-2.096 1.93c-1.367-3.91-3.543-6.545-7.744-5.815-7.171-.866-11.725-1.671-17.09 3.981-4.75-6.074 1.23-4.848-4.649-9.8"/><path fill="#2C2C37" d="M448.207 315.456c3.773-1.006 7.564-1.953 11.241-3.267 4.076 1.147 10.243 2.643 13.852 4.504-1.08.487-2.184.919-3.308 1.295-6.533 2.175-15.689.569-21.785-2.532"/><path fill="#DCDAD6" d="M435.258 251.294c1.462-4.624-2.649-8.993.366-11.234.765 2.743 1.865 8.222 3.745 9.868l1.373-1.706c4.836 11.031 9.635 21.707 13.753 33.038l71.904-.067c-2.333.841-5.194 1.985-7.564 2.525-7.98-.016-59.668-.971-63.154 1.371-.307 3.075.145 3.8 1.327 6.592-2.695 1.737-3.95 1.853-4.977 4.367-1.899-4.512-2.957-7.482-5.93-11.459l-1.267-3.889c-2.299-3.885-8.659-24.736-9.576-29.406"/><path fill="#EC3525" d="M575.369 312.027c4.035-1.696 6.02-2.91 10.291-2.289l1.897 1.34c.469 3.69.655 2.198-.729 5.67-4.812-2.961-5.962-3.363-11.459-4.721"/><path fill="#AB2923" d="M449.554 751.688c28.079 6.08 98.431 7.952 125.624.467 16.13 12.14 8.531 21.247 9.025 39.368l.8.339c4.77-.065 7.946-.415 12.102 2.013l.493.285c4.328 2.556 7.768 8.185 9.985 12.601 7.711.912 4.481 6.577 7.165 12.164 1.765 3.673 8.579 5.307 8.728 9.482 1.842 2.342 3.152 4 5.235 6.156 3.286 2.832 4.425 4.115 7.191 7.488.165 9.747.22 18.132-.225 27.921-3.709 4.748-8.19 11.13-14.536 11.544-6.467.422-19.589-2.963-25.867.471-.433-.838-.951-1.67-1.433-2.485l-.716 1.877c-10.87-.994-73.342-2.791-78.4.836l-2.404.948.081-1.219c-5.309-3.269-75.412-.622-88.582-1.23-20.822-.358-20.189 6.064-35.444-13.31-1.343-8.966-2.127-23.105 5.147-29.821 3.043-4.48 7.666-6.818 12.248-9.569 4.799.69 9.851 2.394 14.09 2.726 1.055-18.416-5.853-39.885 21.303-39.184l.21-.717c-3.222-16.561-3.946-26.958 8.18-39.151"/><path fill="#C63226" d="M449.554 751.688c28.079 6.08 98.431 7.952 125.624.467 16.13 12.14 8.531 21.247 9.025 39.368l.8.339c4.77-.065 7.946-.415 12.102 2.013l.493.285c4.328 2.556 7.768 8.185 9.985 12.601 7.711.912 4.481 6.577 7.165 12.164 1.765 3.673 8.579 5.307 8.728 9.482-6.671-.389-13.927 4.029-18.464.794l-2.216.509c-8.133-1.434-37.114-.601-47.157-.778-38.576-.676-78.995 1.118-117.4-.265l-12.54.753-3.841 1.816-1.997-.496c1.055-18.416-5.853-39.885 21.303-39.184l.21-.717c-3.222-16.561-3.946-26.958 8.18-39.151"/><path fill="#DC3932" d="M449.554 751.688c28.079 6.08 98.431 7.952 125.624.467 16.13 12.14 8.531 21.247 9.025 39.368-18.784-5.492-119.486-2.192-142.829-.684-3.222-16.561-3.946-26.958 8.18-39.151"/><path fill="#2D0101" d="M441.374 790.839c23.343-1.508 124.045-4.808 142.829.684l.8.339c-.702.294-1.405.549-2.114.824-.267.103-.529.22-.797.322-12.038 4.571-113.699 3.629-131.212 1.599-3.463-.401-6.566-1.612-9.716-3.051z"/><path fill="#221B43" d="M607.583 806.761c7.711.912 4.481 6.577 7.165 12.164 1.765 3.673 8.579 5.307 8.728 9.482-6.671-.389-13.927 4.029-18.464.794 1.544-6.087 1.381-15.296 2.571-22.44"/><path fill="#EC3525" d="m425.699 829.42-1.171-1.498c.224-.771.415-2.12.948-2.197 9.763-1.417 28.818 1.198 38.753 1.392l.437.409c-4.559-.026-23.822-.428-26.427 1.141z"/><path fill="#4E0D0B" d="M438.239 828.667c38.405 1.383 78.824-.411 117.4.265 10.043.177 39.024-.656 47.157.778l2.383 2.485-.192 1.884c-21.13 2.471-46.434 1.778-68.104 1.768l-78.669.165c-10.165-.063-25.221-1.546-34.387-.992l-1.969-3.784 3.841-1.816z"/><path fill="#C63226" d="M405.771 828.014c4.799.69 9.851 2.394 14.09 2.726l1.997.496 1.969 3.784c-5.248 2.762-16.892-.331-23.295-1.548-1.995 1.905-3.69 4.055-6.251 4.52l-.758-.409c3.043-4.48 7.666-6.818 12.248-9.569m199.241 1.187c4.537 3.235 11.793-1.183 18.464-.794 1.842 2.342 3.152 4 5.235 6.156l-1.726.764c-2.066-1.082-19.527-1.128-21.455-.089l-.543-1.159.192-1.884-2.383-2.485z"/><path fill="#DC3932" d="M868.882 480.255c-18.957-.012-147.614 1.169-154.155-1.335-3.965-1.518-6.725-4.334-8.4-8.211-4.406-10.196-3.927-45.943.246-56.561 2.081-5.297 5.671-9.45 10.94-11.732 3.427-1.485 6.771-2.01 10.483-2.24 23.928-1.483 48.435-.231 72.452-.26 26.729-.032 54.029-1.279 80.674.2 4.088.227 8.383.562 12.189 2.169 5.944 2.51 9.334 6.24 11.776 12.117-1.989 6.46-4.432 9.972-9.234 14.765.33 1.025 3.655 10.005 3.607 9.797-.721.698-2.313 1.901-2.215 2.575.886 6.097 8.138 14.256 11.407 19.866-3.567 3.843-14.022 20.709-14.335 20.923l-3.518 6.429 3.878 1.008-.958 2.178c-8.709.751-17.649-6.764-24.837-11.688"/><path fill="#5B5D71" d="M868.882 480.255c-5.457-13.774-7.387-29.505 3.785-41.094 4.121-4.275 16.744-9.929 22.491-9.942l.695-.052c.33 1.025 3.655 10.005 3.607 9.797-.721.698-2.313 1.901-2.215 2.575.886 6.097 8.138 14.256 11.407 19.866-3.567 3.843-14.022 20.709-14.335 20.923l-3.518 6.429 3.878 1.008-.958 2.178c-8.709.751-17.649-6.764-24.837-11.688"/><path fill="#CECBBD" d="M868.882 480.255c-5.457-13.774-7.387-29.505 3.785-41.094 4.121-4.275 16.744-9.929 22.491-9.942-2.307 1.973-3.941 3.264-6.425 5.028 3.242 1.625 2.516.715 3.872 3.322-2.476 4.374-9.005 4.801-14.61 8.805-6.74 14.943-8.251 28.378 9.172 35.215 2.604 1.022 3.984 1.378 6.678.27l.472.469-3.518 6.429 3.878 1.008-.958 2.178c-8.709.751-17.649-6.764-24.837-11.688"/><path fill="#2C2C37" d="M888.733 434.247c3.242 1.625 2.516.715 3.872 3.322-2.476 4.374-9.005 4.801-14.61 8.805-6.74 14.943-8.251 28.378 9.172 35.215 2.604 1.022 3.984 1.378 6.678.27l.472.469-3.518 6.429c-7.016-6.29-14.752-6.42-19.647-17.06-8.23-17.887 2.501-29.665 17.581-37.45"/><path fill="#DC3932" d="M119.493 414.213c11.61-12.211 14.572-14.127 31.733-14.262 31.752-.175 63.669-.113 95.408-.047 16.957.35 34.006-.748 50.902.401 28.686 1.95 25.135 17.75 23.341 40.192-.64 8.002 2.839 19.013.354 27.152-.79 2.588-2.198 3.918-4.092 5.822a99.3 99.3 0 0 1-5.683 5.251c-9.398 1.908-31.705 1.308-42.261 1.298l-70.056-.074c-8.18.002-38.485.973-44.255.269 15.688-22.132 5.166-43.241-20.217-49.613l-3.32-1.218c-5.613-4.07-8.212-9.281-11.854-15.171"/><path fill="#221B43" d="M423.82 880.714c13.17.608 83.273-2.039 88.582 1.23l-.081 1.219 2.404-.948c.904 6.495 1.678 17.253 3.772 22.807 6.201 12.27 7.003 41.862 12.926 56.126.707 1.703 1.468 6.476 1.537 8.318l.881.944c.853 4.267 1.668 8.39 2.71 12.623-12.073.558-39.628 3.138-48.575-3.098-1.563-1.607-1.034-2.245-1.079-5.062 5.178-5.301 1.699-5.423 5.181-7.762-3.459-.943-15.717-1.486-21.275-2.245-3.395.114-19.875 4.029-23.714 4.928l-47.282 11.251c9.191-21.082 19.502-65.321 27.821-89.196-1.372-4.592-1.226-8.269-3.808-11.135"/><path fill="#DC3932" d="M427.628 891.849c.471-4.154-.148-4.811 2.056-7.592 9.521 3.036 52.627 66.649 61.82 78.428-6.184.439-14.617 1.05-20.701 2.181-3.395.114-19.875 4.029-23.714 4.928l-47.282 11.251c9.191-21.082 19.502-65.321 27.821-89.196"/><path fill="#AB2923" d="m515.03 907.153 3.467-2.131c6.201 12.27 7.003 41.862 12.926 56.126.707 1.703 1.468 6.476 1.537 8.318l.881.944c.853 4.267 1.668 8.39 2.71 12.623-12.073.558-39.628 3.138-48.575-3.098l1.171-2.437c1.97.03 6.925.272 8.51-.249l-.87-.436c-.577-2.053 7.862-41.684 9.588-44.859.231-1.437.503-2.867.817-4.288 1.061-4.839 3.822-17.964 7.838-20.513"/><path fill="#D54723" d="m529.535 973.094 3.425-3.628.881.944c.853 4.267 1.668 8.39 2.71 12.623-12.073.558-39.628 3.138-48.575-3.098l1.171-2.437c1.97.03 6.925.272 8.51-.249 7.329-.557 28.687 1.991 31.878-4.155"/><path fill="#C63226" d="m515.03 907.153 3.467-2.131c6.201 12.27 7.003 41.862 12.926 56.126.707 1.703 1.468 6.476 1.537 8.318l-3.425 3.628c-1.043-7.032-5.256-19.006-6.951-26.881-1.959-9.106-4.079-31.708-7.554-39.06m-2.709-23.99 2.404-.948c.904 6.495 1.678 17.253 3.772 22.807l-3.467 2.131c-4.016 2.549-6.777 15.674-7.838 20.513a75 75 0 0 0-.817 4.288c-3.568-2.204-3.423-1.833-4.51-5.151.738-5.125 9.147-41.402 10.456-43.64m-10.456 43.64c1.087 3.318.942 2.947 4.51 5.151-1.726 3.175-10.165 42.806-9.588 44.859l.87.436c-1.585.521-6.54.279-8.51.249 5.607-8.243 12.514-41.171 12.718-50.695"/><path fill="#DC3932" d="m593.125 881.379.716-1.877c.482.815 1 1.647 1.433 2.485 10.947 25.964 20.071 80.704 33.939 99.972-7.519-2.37-88.735-20.979-92.007-20.522 2.099 3.179 2.468 2.697 2.592 6.028-1.855 2.261-3.074 2.239-5.957 2.945l-.881-.944c-.069-1.842-.83-6.615-1.537-8.318-5.923-14.264-6.725-43.856-12.926-56.126-2.094-5.554-2.868-16.312-3.772-22.807 5.058-3.627 67.53-1.83 78.4-.836"/><path fill="#221B43" d="M514.725 882.215c5.058-3.627 67.53-1.83 78.4-.836-4.398 12.229-57.811 74.451-56.724 79.534l.805.524c2.099 3.179 2.468 2.697 2.592 6.028-1.855 2.261-3.074 2.239-5.957 2.945l-.881-.944c-.069-1.842-.83-6.615-1.537-8.318-5.923-14.264-6.725-43.856-12.926-56.126-2.094-5.554-2.868-16.312-3.772-22.807"/><path fill="#DC3932" d="m131.347 429.384 3.32 1.218c25.383 6.372 35.905 27.481 20.217 49.613l-.593.411c-9.379 6.566-10.282 12.274-22.581 11.205-3.776 2.662-6.527 6.559-7.872 7.458-3.057 5.883-8.079 11.315-12.717 16.086 1.515 5.141 5.329 4.176 4.24 8.646 2.775 5.04 11.53 17.25 11.697 20.843-4.448 4.716-15.645-.134-21.69 4.318-5.5047 2.454-16.6432 2.954-22.8886 3.183-3.6369 1.818-5.1825 2.971-9.1506 2.216-.2397 1.077-9.9712 15.237-11.6403 18.025-16.7175-9.897-39.3561-9.058-42.3672-10.93 1.8537-6.436 13.2722-10.551 16.6493-15.058 7.4408-9.931 13.4699-18.545 22.6408-27.06 1.1147-1.831 6.9646-8.612 8.6485-10.648 5.0584-6.993 12.0927-13.797 18.2274-19.978 3.2131-5.427 16.1987-15.165 22.2697-25.729 1.575-.953 1.589-1.052 2.791-2.335-.679-2.159-1.361-3.779-2.22-5.846 4.89-2.995 15.585-19.023 16.984-24.398l5.497 1.835z"/><path fill="#5B5D71" d="M134.667 430.602c25.383 6.372 35.905 27.481 20.217 49.613l-.593.411c-9.379 6.566-10.282 12.274-22.581 11.205l.711-1.595c-2.265-1.713-3.513-3.306-5.344-5.422 1.797-.012 2.645.133 4.284-.651-.999-6.573-8.848-16.695-12.946-22.439 4.583-7.156 8.399-15.962 12.947-23.293 2.314-3.732 2.303-2.969 6.633-3.967-1.121-.88-2.399-2.672-3.328-3.862"/><path fill="#DCDAD6" d="M134.667 430.602c25.383 6.372 35.905 27.481 20.217 49.613l-.593.411c-9.379 6.566-10.282 12.274-22.581 11.205l.711-1.595c-2.265-1.713-3.513-3.306-5.344-5.422 1.797-.012 2.645.133 4.284-.651 2.183-3.788 14.659-6.556 17.326-9.15 4.864-4.729 4.242-15.974 4.06-22.212-4.37-5.655-12.045-10.954-15.673-16.168l2.023-1.361-1.102-.808c-1.121-.88-2.399-2.672-3.328-3.862"/><path fill="#2C2C37" d="M139.097 435.272c18.233 9.743 22.996 23.796 12.688 42.297-.216.385-.433.769-.653 1.152-5.748 2.802-15.05 6.534-18.711 11.515-2.265-1.713-3.513-3.306-5.344-5.422 1.797-.012 2.645.133 4.284-.651 2.183-3.788 14.659-6.556 17.326-9.15 4.864-4.729 4.242-15.974 4.06-22.212-4.37-5.655-12.045-10.954-15.673-16.168z"/><path fill="#EC3525" d="M58.6114 519.558c-.7147 4.883-10.4518 13.878-5.6454 20.588 5.1617-2.338 4.7297-8.627 10.8673-10.205l1.7172 1.988c7.3195 4.126 6.6416 15.443 14.1896 16.453 1.8157 1.6 1.8351 1.69 2.7393 3.983-3.6369 1.818-5.1825 2.971-9.1506 2.216-.2397 1.077-9.9712 15.237-11.6403 18.025-16.7175-9.897-39.3561-9.058-42.3672-10.93 1.8537-6.436 13.2722-10.551 16.6493-15.058 7.4408-9.931 13.4699-18.545 22.6408-27.06"/><path fill="#C3D3D7" d="M65.5505 531.929c7.3195 4.126 6.6416 15.443 14.1896 16.453 1.8157 1.6 1.8351 1.69 2.7393 3.983-3.6369 1.818-5.1825 2.971-9.1506 2.216-5.231-1.416-12.6664-1.751-18.2188-2.204 3.531-6.001 8.7168-13.977 10.4405-20.448"/><path fill="#DCDAD6" d="M102.999 522.503c1.525-.923 6.509-5.653 8.122-7.128 1.515 5.141 5.329 4.176 4.24 8.646 2.775 5.04 11.53 17.25 11.697 20.843-4.448 4.716-15.645-.134-21.69 4.318l-3.184-3.737c-4.1208-5.374-5.4363-6.999-7.1033-13.587.901-3.798 4.898-6.651 7.9183-9.355"/><path fill="#2C2C37" d="M102.999 522.503c1.525-.923 6.509-5.653 8.122-7.128 1.515 5.141 5.329 4.176 4.24 8.646-3.056 2.376-10.017 16.364-13.177 21.424-4.1208-5.374-5.4363-6.999-7.1033-13.587.901-3.798 4.898-6.651 7.9183-9.355"/><path fill="#DCDAD6" d="M79.7401 548.382c1.3758-4.734 8.911-20.004 14.7988-18.927l.5418 2.403c1.667 6.588 2.9825 8.213 7.1033 13.587l3.184 3.737c-5.5047 2.454-16.6432 2.954-22.8886 3.183-.9042-2.293-.9236-2.383-2.7393-3.983"/><path fill="#3A8CAC" d="m131.347 429.384 3.32 1.218c.929 1.19 2.207 2.982 3.328 3.862-4.33.998-4.319.235-6.633 3.967-4.548 7.331-8.364 16.137-12.947 23.293 4.098 5.744 11.947 15.866 12.946 22.439-1.639.784-2.487.639-4.284.651-4.772-10.829-8.89-15.303-15.993-24.457 7.875-8.218 13.254-18.319 19.725-27.898z"/><path fill="#EC3525" d="m102.999 522.503-1.643-.682c5.308-4.374 13.284-22.643 22.482-22.532-3.057 5.883-8.079 11.315-12.717 16.086-1.613 1.475-6.597 6.205-8.122 7.128M67.2599 508.91c5.0584-6.993 12.0927-13.797 18.2274-19.978a29.335 29.335 0 0 1-12.382 18.02c-1.7804 1.164-3.6856 1.928-5.8454 1.958"/><path fill="#DC3932" d="M911.063 449.435c1.596 1.927 1.868 2.117 4.066 3.32 4.532-.455 19.295-18.104 25.801-23.57-6.25 13.148-25.405 26.295-24.634 32.876.586.676 1.362 1.88 2.013 1.944 2.241 2.134 4.34 4.305 6.937 5.983-.314 3.477.079 4.686 2.685 7.352 23.824 24.388 47.382 48.415 69 74.865 2.437 2.98 8.839 7.561 9.689 10.475-1.71.522-1.79.564-3.34.009-8.527-3.048-29.128 5.816-37.022 10.283-13.729-16.597-27.56-32.113-42.475-47.683-6.82-7.118-23.001-29.335-30.064-33.346l.958-2.178-3.878-1.008 3.518-6.429c.313-.214 10.768-17.08 14.335-20.923-3.269-5.61-10.521-13.769-11.407-19.866-.098-.674 1.494-1.877 2.215-2.575l4.928 6.053-.139-5.31 1.408 1.511a407 407 0 0 1 5.406 8.217"/><path fill="#3A8CAC" d="M908.652 461.405c-3.269-5.61-10.521-13.769-11.407-19.866-.098-.674 1.494-1.877 2.215-2.575l4.928 6.053c3.456 3.618 6.538 10.882 8.836 15.593-5.369 8.821-11.749 21.508-18.263 28.832l-.284.323-3.878-1.008 3.518-6.429c.313-.214 10.768-17.08 14.335-20.923"/><path fill="#FB7147" d="M912.857 412.184c5.051-5.255 16.72-15.923 20.131-21.149 7.316-11.208 26.636-28.635 30.896-39.347 15.06 3.919 28.154 7.932 43.616 9.41-25.711 15.667-33.82 37.492-55.318 57.555-3.207 2.993-7.863 8.307-11.252 10.532-6.506 5.466-21.269 23.115-25.801 23.57-2.198-1.203-2.47-1.393-4.066-3.32a407 407 0 0 0-5.406-8.217l-1.408-1.511.139 5.31-4.928-6.053c.048.208-3.277-8.772-3.607-9.797 4.802-4.793 7.245-8.305 9.234-14.765l1.007.809c3.422.251 3.188-.528 6.763-3.027"/><path fill="#F29A54" d="M912.857 412.184c5.051-5.255 16.72-15.923 20.131-21.149 7.316-11.208 26.636-28.635 30.896-39.347 15.06 3.919 28.154 7.932 43.616 9.41-25.711 15.667-33.82 37.492-55.318 57.555-3.207 2.993-7.863 8.307-11.252 10.532-6.506 5.466-21.269 23.115-25.801 23.57-2.198-1.203-2.47-1.393-4.066-3.32 2.984-4.384 3.519-2.188 5.493-3.734 4.475-4.379 15.382-14.718 18.413-20.025 8.323-14.572 47.078-46.578 52.235-58.632-1.254-2.806-6.805-5.909-9.639-6.941-10.225-3.722-18.581 12.058-24.459 17.719-13.357 12.866-24.902 26.571-36.297 41.072-7.334 9.332-8.149 10.09-6.716 21.827l-1.054 1.19-3.382-.693-1.408-1.511.139 5.31-4.928-6.053c.048.208-3.277-8.772-3.607-9.797 4.802-4.793 7.245-8.305 9.234-14.765l1.007.809c3.422.251 3.188-.528 6.763-3.027"/><path fill="#2D0101" d="m905.087 414.402 1.007.809c3.422.251 3.188-.528 6.763-3.027-1.906 6.561-9.908 13.325-13.73 20.264 1.033 1.533 4.052 6.191 5.122 7.259l.139 5.31-4.928-6.053c.048.208-3.277-8.772-3.607-9.797 4.802-4.793 7.245-8.305 9.234-14.765"/><path fill="#FB7147" d="m18.3836 360.259.6614-.002a116.49 116.49 0 0 0 42.6194-8.454c4.208 7.821 6.2304 9.978 12.3139 16.046l-7.1184.406c3.3211 2.24 5.3544 3.516 8.2089 6.314l2.55-.979c4.2329 2.629 9.9214 13.173 11.0775 18.031.2598 1.108.4795 2.225.6588 3.35l5.1418-3.34 3.7736 4.191c8.7665 12.023 18.5705 22.111 27.0415 34.802-1.399 5.375-12.094 21.403-16.984 24.398-13.0199-13.018-26.6319-25.367-37.7273-40.233-5.0565-6.776-10.3978-13.259-15.8367-19.729l-10.4063-9.159c-1.6514-1.762-3.7875-4.566-5.3632-6.519-3.6676-2.035-16.705-15.293-20.6109-19.123"/><path fill="#B6EBF5" d="m18.3836 360.259.6614-.002a116.49 116.49 0 0 0 42.6194-8.454c4.208 7.821 6.2304 9.978 12.3139 16.046l-7.1184.406c3.3211 2.24 5.3544 3.516 8.2089 6.314l2.55-.979c4.2329 2.629 9.9214 13.173 11.0775 18.031.2598 1.108.4795 2.225.6588 3.35-3.1099.323-1.838.497-5.0006-1.243-1.6187-2.708-2.8537-8.575-3.7624-9.47-3.1142.445-5.1681 2.796-6.9943 5.222a290 290 0 0 0-6.0372 8.487c-8.7278-5.289-7.5859-9.948-14.6455-16.187l-1.3232.287c-1.319 6.497-.3763 7.23 3.1721 12.993l-10.4063-9.159c-1.6514-1.762-3.7875-4.566-5.3632-6.519-3.6676-2.035-16.705-15.293-20.6109-19.123"/><path fill="#EC3525" d="m18.3836 360.259.6614-.002a116.49 116.49 0 0 0 42.6194-8.454c4.208 7.821 6.2304 9.978 12.3139 16.046l-7.1184.406c-7.5875-1.415-29.5965-7.57-35.0688-4.224-1.3878 5.709 6.4152 11.012 7.2034 15.351-3.6676-2.035-16.705-15.293-20.6109-19.123m25.9741 25.642c2.9312-5.858 6.1827-10.729 9.7178-16.226 5.6987 8.38 8.0311 13.737 11.5916 23.108 3.1798-6.558 5.5405-11.971 9.4017-18.214l2.55-.979c4.2329 2.629 9.9214 13.173 11.0775 18.031.2598 1.108.4795 2.225.6588 3.35-3.1099.323-1.838.497-5.0006-1.243-1.6187-2.708-2.8537-8.575-3.7624-9.47-3.1142.445-5.1681 2.796-6.9943 5.222a290 290 0 0 0-6.0372 8.487c-8.7278-5.289-7.5859-9.948-14.6455-16.187l-1.3232.287c-1.319 6.497-.3763 7.23 3.1721 12.993z"/><path fill="#F29A54" d="M54.764 395.06c-3.5484-5.763-4.4911-6.496-3.1721-12.993l1.3232-.287c7.0596 6.239 5.9177 10.898 14.6455 16.187a42.3 42.3 0 0 0 2.0637 3.252c3.7737 5.276 36.4107 41.977 40.7157 42.681 22.266-16.836-21.1731-37.168-16.5305-47.162l4.461-.916c8.7665 12.023 18.5705 22.111 27.0415 34.802-1.399 5.375-12.094 21.403-16.984 24.398-13.0199-13.018-26.6319-25.367-37.7273-40.233-5.0565-6.776-10.3978-13.259-15.8367-19.729"/><path fill="#FB7147" d="M361.092 878.626c4.937 10.674 9.867 20.674 17.677 29.621 1.492 1.709 2.971 4.554 4.061 6.597 10.255 15.885 4.785 12.214 19.029 26.363-3.044 1.523-3.409-.234-7.184.945-11.679 3.648-23.501 5.956-34.982 10.231-24.867 6.931-39.084 11.148-62.969 20.984 6.327-6.208 13.69-13.087 18.96-20.114 10.513-14.017 18.854-30.569 29.478-44.374 6.968-12.552 10.036-16.265 15.93-30.253"/><path fill="#ED9C56" d="M357.839 946.228c4.139-2.612 19.852-6.237 23.207-9.274 8.265-7.48-16.543-26.842-15.635-37.279 7.603-1.689 9.944 13.69 15.888 17.397l1.531-2.228c10.255 15.885 4.785 12.214 19.029 26.363-3.044 1.523-3.409-.234-7.184.945-11.679 3.648-23.501 5.956-34.982 10.231-24.867 6.931-39.084 11.148-62.969 20.984 6.327-6.208 13.69-13.087 18.96-20.114 10.513-14.017 18.854-30.569 29.478-44.374 3.26-2.569 6.639-6.327 10.197-7.021 1.926 6.186-32.012 42.768-29.168 52.501 3.64.511 24.094-6.907 31.648-8.131"/><path fill="#FB7147" d="M645.173 914.736c.197-.523.394-1.047.591-1.571l.358-.838c4.473-10.615 13.117-16.339 18.658-30.085l1.762.075c2.49 9.486 7.267 10.47 10.088 18.574 12.106 12.311 21.878 37.701 34.754 51.228-10.897-.42-6.213 6.981-18.4 4.303l-1.705 2.966c-8.401-1.811-20.455-5.849-28.372-8.66a1458 1458 0 0 0-23.468-6.687l-5.48-.897c-2.824-.26-4.366-.65-7.059-1.306l-.538-1.238c6.243-7.326 13.452-17.762 18.811-25.864"/><path fill="#F29A54" d="M685.644 950.656c1.073.402 2.169.737 3.282 1.005 2.216.531 8.318 2.027 10.327.814l-.247-3.617.484.802c-4.695-7.594-32.157-47.774-31.93-53.031 2.596.275 5.569 3.109 9.07 4.262 12.106 12.311 21.878 37.701 34.754 51.228-10.897-.42-6.213 6.981-18.4 4.303-3.242-2.151-4.472-3.132-7.34-5.766"/><path fill="#ED9C56" d="M645.173 914.736c7.264-4.29 7.583-9.61 13.391-13.203l.881.255c.301 5.541-16.31 25.535-18.695 32.155-1.532 4.253-3.068 6.617-6.791 9.201-2.824-.26-4.366-.65-7.059-1.306l-.538-1.238c6.243-7.326 13.452-17.762 18.811-25.864m17.734 35.992c1.329-2.698 3.027-3.063 5.835-4.367 5.708 1.091 11.632 1.914 16.902 4.295 2.868 2.634 4.098 3.615 7.34 5.766l-1.705 2.966c-8.401-1.811-20.455-5.849-28.372-8.66"/><path fill="#F29A54" d="M639.439 944.041c5.011-9.35 21.849-1.325 29.303 2.32-2.808 1.304-4.506 1.669-5.835 4.367a1458 1458 0 0 0-23.468-6.687"/><path fill="#1EF5D6" d="M398.069 159.765c-5.053.625-4.584 4.561-10.312 2.458-7.841-2.877-13.631-10.409-17.777-17.276-5.838-9.67 7.606-23.704 15.484-27.364a18.99 18.99 0 0 1 15.01-.5c16.918 6.501 22.502 33.27 3.43 40.034l-.024-1.46c-1.629.884-4.306 2.16-5.519 3.412z"/><path fill="#EFE9D8" d="M398.069 159.765c-5.053.625-4.584 4.561-10.312 2.458-7.841-2.877-13.631-10.409-17.777-17.276-5.838-9.67 7.606-23.704 15.484-27.364a18.99 18.99 0 0 1 15.01-.5c16.918 6.501 22.502 33.27 3.43 40.034l-.024-1.46c29.666-32.344-32.893-51.95-29.251-12.626 1.151 12.417 12.055 17.435 23.732 16.038zM777.98 600.03l2.224-2.651c4.252.359 6.947 6.541 10.438 9.778 9.376 8.693 51.009 30.862 56.355 38.859-.577 3.487.082 2.316-2.304 4.564-4.594.28-52.021-32.798-56.674-38.336-5.139.754-2.821 3.839-7.705 4.226-7.183-4.871-4.936-2.93-10.279-9.075 3.316-1.968 5.616-3.089 9.132-4.695z"/><path fill="#2C2C37" d="M779.167 602.7c3.106 2.209 8.502 5.425 8.852 9.544-5.139.754-2.821 3.839-7.705 4.226-7.183-4.871-4.936-2.93-10.279-9.075 3.316-1.968 5.616-3.089 9.132-4.695"/><path fill="#EFE9D8" d="M398.361 159.069c1.213-1.252 3.89-2.528 5.519-3.412l.024 1.46c.063 5.579 12.613 27.893 15.685 34.433 8.348 17.767 15.719 37.807 21.153 56.672l-1.373 1.706c-1.88-1.646-2.98-7.125-3.745-9.868-3.015 2.241 1.096 6.61-.366 11.234-7.519-21.456-15.467-43.138-25.145-63.709-3.751-7.973-11.013-19.357-12.044-27.82zm371.211 559.652c-18.145-7.943-40.38-13.066-58.976-21.043-4.512-1.935-14.923-2.554-17.853-5.257.178-2.647-.128-1.653 2.034-3.941 6.313-2.765 68.991 20.586 80.761 24.701.364 2.648-.28 2.538-2.108 5.257z"/><path fill="#D54723" d="M625.118 721.014c7.585-1.103 56.431-2.017 61.841.797-5.427 6.07-46.78-.676-57.85 3.84-12.128 4.948-38.695 24.607-51.06 22.428 1.525-5.504 32.198-15.116 36.484-24.446 4.738-.5 6.394-.493 10.585-2.619"/><path fill="#DCDAD6" d="M328.102 629.874c3.579.418 2.266-.149 5.006 2.075.672 2.649.794 1.631-.116 4.022-5.747-.59-64.094 22.798-80.864 24.096-.423-2.219.32-4.046.912-6.28 10.424-1.458 63.533-19.284 75.062-23.913m-4.367-111.716c3.885-.831 4.639-1.11 8.478-.153l1.069 1.354c-1.953 4.168-10.074 7.723-14.363 8.091-21.654 7.103-41.166 14.68-63.158 21.023-3.59-1.538-2.675-.541-3.928-3.497 1.633-3.91.848-2.643 4.5-5.242 6.939.005 53.623-14.153 58.939-17.955 3.224-.804 6.402-1.145 8.463-3.621"/><path fill="url(#c)" d="M253.277 711.016c10.184-3.684 73.405-26.325 79.7-24.491l1.411 1.636c-1.506 2.758-3.096 3.634-6.421 4.486-19.51 5.002-55.948 21.632-75.576 23.455-.263-1.767.381-3.345.886-5.086"/><path fill="#DCDAD6" d="M711.707 587.26c-5.026-2.107-16.101-4.547-17.933-9.541 4.438-2.239 12.685.572 17.201 1.954 11.786 4.115 59.482 21.966 67.005 20.357l1.187 2.67c-3.516 1.606-5.816 2.727-9.132 4.695-8.732-5.987-45.86-16.46-58.328-20.135m-11.955-67.118c3.338 1.428 6.036 2.849 9.662 3.058 12.618 3.596 25.799 8.327 38.299 12.516 5.911 1.981 23.978 7.088 28.338 9.404l1.51 1.411-6.866 4.947c-9.547-5.512-49.846-18.408-60.954-21.226-4.405-2.469-12.78-3.221-15.459-7.261 1.729-2.617 1.536-1.864 5.47-2.849"/><path fill="#EFE9D8" d="M787.331 718.583c6.447 1.448 48.599 30.75 56.303 36.446 3.836 2.837 3.811 4.477 4.134 8.431-.265.061-.527.135-.795.183-5.169.919-46.393-28.428-52.711-33.514-4.496-3.619-6.317-5.742-6.931-11.546m1.473-55.784c6.843 3.038 54.706 34.606 58.253 40.07l.157 2.184c-.826.795-1.798 2.085-2.559 1.735-13.192-6.051-40.558-25.752-51.796-32.997-2.748-2.785-3.386-3.269-4.648-6.954zm2.399-110.974c8.582 5.107 50.412 32.191 54.643 38.786l.245 1.952c-.946.728-2.287 1.957-3.457 1.397-9.33-4.468-50.373-31.875-54.948-37.565l1.286-1.885z"/><path fill="url(#d)" d="M234.468 548.074c.693.693 1.285 1.432 2.121 1.857 1.299 1.851 1.249 1.761 1.795 3.961-3.324 5.664-52.998 38.675-58.524 38.811l.636.544-.522-1.184c1.006-2.77 6.495-10.548 8.902-12.097 16.396-10.559 30.919-18.902 45.592-31.892"/><path fill="url(#e)" d="M233.841 671.136c-10.284 3.37-43.641 33.789-52.61 30.864l-.319-2.182c.935-2.166 2.961-4.95 5-6.128 17.381-10.044 34.251-21.165 49.819-33.961l1.356.806c-.611 3.828-.842 7.594-3.246 10.601"/><path fill="#EFE9D8" d="m234.73 716.241 1.178 2.948.853 4.266c-2.961 5.416-44.732 31.324-54.019 37.702l-1.635-.839c-.649-1.264-1.321-5.034-.489-5.648 18.015-13.313 37.164-23.442 54.112-38.429"/><path fill="#DCDAD6" d="M712.307 635.294c23.012 9.231 42.222 15.606 66.119 22.685-3.337 2.613-4.308 3.135-8.142 4.981-7.914-4.422-50.23-17.561-60.677-20.471zM73.9783 367.849c10.6304 4.347 25.5388 5.495 37.3737 7.697l-.522.203c-2.595 1.031-5.122 3.151-7.63 2.861l-1.857-.235c-2.8655 3.972-4.8119 8.772-6.8461 13.256l-5.1418 3.34a47.3 47.3 0 0 0-.6588-3.35c-1.1561-4.858-6.8446-15.402-11.0775-18.031l-2.55.979c-2.8545-2.798-4.8878-4.074-8.2089-6.314z"/><path fill="#EFE9D8" d="m213.975 620.461.808-.197c4.588-1.146 7.547-3.698 10.187-2.945-.037 1.87-.8 2.833-1.718 4.47-4.169 3.737-35.938 25.453-41.999 25.179l-.608-1.381c3.254-8.887 24.535-20.658 33.33-25.126"/><path fill="#DCDAD6" d="M111.352 375.546c5.31.325 11.047.79 16.322.936-3.718 7.324-8.289 16.807-12.503 23.671-3.631-8.481-7.1-13.796-11.971-21.543 2.508.29 5.035-1.83 7.63-2.861z"/><path fill="#2C2C37" d="M235.731 659.729c4.979-5.269 5.485-8.209 12.993-6.314l4.316.372c-.592 2.234-1.335 4.061-.912 6.28.201 2.681.283 3.464-.149 6.106-1.458 2.777-2.587 5.84-5.394 7.053-3.158.004-4.249-.935-6.885-2.541-1.869.848-3.748.532-5.859.451 2.404-3.007 2.635-6.773 3.246-10.601z"/><path fill="#DCDAD6" d="M235.731 659.729c4.979-5.269 5.485-8.209 12.993-6.314-1.27 4.207-.523 3.824-3.322 6.591-3.441.503-6.078.231-8.315.529z"/><path fill="#CECBBD" d="M239.7 670.685c2.141-4.333 7.907-6.086 12.279-4.512-1.458 2.777-2.587 5.84-5.394 7.053-3.158.004-4.249-.935-6.885-2.541"/><path fill="#2C2C37" d="M234.73 716.241c5.296-5.121 6.876-9.137 14.1-6.306l4.447 1.081c-.505 1.741-1.149 3.319-.886 5.086l-.125 5.989c-1.494 3.042-2.278 5.447-5.214 7.081-3.707-.189-4.434-.853-7.636-3.565l-2.655-2.152-.853-4.266z"/><path fill="#DCDAD6" d="M234.73 716.241c5.296-5.121 6.876-9.137 14.1-6.306-1.219 4.347-.356 3.737-3.353 6.25-5.158.399-6.646-.309-9.569 3.004z"/><path fill="#CECBBD" d="M239.416 725.607c2.832-3.18 8.785-4.606 12.85-3.516-1.494 3.042-2.278 5.447-5.214 7.081-3.707-.189-4.434-.853-7.636-3.565"/><path fill="#2C2C37" d="M234.289 604.356c5.195-5.188 6.937-9.411 14.23-6.675l5.9.277c-2.149 3.218-2.226 2.23-1.717 5.264l1.268 1.241-2.206 3.547c-.879 3.6-.933 4.859-3.59 7.454-4.74 1.74-6.741-1.109-10.509-2.459l1.194-.81c-.396-1.563-2.047-4.54-2.845-6.104z"/><path fill="#DCDAD6" d="M234.289 604.356c5.195-5.188 6.937-9.411 14.23-6.675-1.364 4.356-.525 4.143-3.572 6.301-5.019.411-5.225-.323-8.933 2.109z"/><path fill="#CECBBD" d="M238.859 612.195c5.188.063 6.701-2.661 12.905-4.185-.879 3.6-.933 4.859-3.59 7.454-4.74 1.74-6.741-1.109-10.509-2.459z"/><path fill="#ED9C56" d="M711.384 952.119c2.324 5.474 11.514 13.945 15.743 21.383-9.23-4.88-25.644-11.513-35.848-14.114l1.705-2.966c12.187 2.678 7.503-4.723 18.4-4.303"/><path fill="#D54723" d="M397.239 719.175c-1.318 2.095-1.931 2.09-4.379 3.05l-.859 1.194c-7.249 2.052-49.514.589-58.161-.721 20.465-5.603 46.354-.395 63.399-3.523"/><path fill="#2C2C37" d="m779.32 656.472 1.852-2.32c4.636.122 5.943 4.732 7.632 8.647l-.593 4.038c1.262 3.685 1.9 4.169 4.648 6.954-5.095-2.153-4.551-1.718-9.425-.578-4.326-1.191-7.882-4.866-11.34-7.866l-1.81-2.387c3.834-1.846 4.805-2.368 8.142-4.981z"/><path fill="#CECBBD" d="M772.094 665.347c2.889-1.357 3.352-1.659 6.477-1.223 4.252 2.231 4.582 4.737 4.863 9.089-4.326-1.191-7.882-4.866-11.34-7.866"/><path fill="#DCDAD6" d="m779.32 656.472 1.852-2.32c4.636.122 5.943 4.732 7.632 8.647l-.593 4.038c-1.506-5.729-4.508-5.033-8.891-10.365"/><path fill="#2C2C37" d="M776.051 545.12c2.853-3.274 1.834-3.147 5.319-3.677 4.683 2.216 5.352 7.11 9.833 10.382l-2.231 2.685-1.286 1.885c-3.454.567-2.217-.131-4.565 2.768-5.56.93-7.903-2.086-11.286-5.83l-1.14-1.855 6.866-4.947z"/><path fill="#CECBBD" d="M776.051 545.12c2.853-3.274 1.834-3.147 5.319-3.677 4.683 2.216 5.352 7.11 9.833 10.382l-2.231 2.685c-2.372-2.446-8.122-7.608-11.411-7.979zm-4.216 8.213c4.395-1.354 2.649-1.378 7.192-.325 2.752 2.198 3.405 2.594 4.094 6.155-5.56.93-7.903-2.086-11.286-5.83"/><path fill="#D4C7C5" d="M352.185 662.521c3.521 3.083 5.943 4.414 6.582 8.693-1.371 3.084-1.637 3.556-3.674 6.237-1.745 1.454-1.932 1.449-4.134 2.157-4.034-1.673-3.701-2.474-6.81-6.369-.411-1.893-.225-6.615-.2-8.811z"/><path fill="#DCDAD6" d="M344.149 673.239c4.069-.828 3.774-1.449 6.96-.092 1.267 2.07 1.717 3.21 3.984 4.304-1.745 1.454-1.932 1.449-4.134 2.157-4.034-1.673-3.701-2.474-6.81-6.369"/><path fill="#2C2C37" d="M246.751 539.789c2.1.091 8.697-.288 9.582-.055-3.652 2.599-2.867 1.332-4.5 5.242 1.253 2.956.338 1.959 3.928 3.497-3.36 1.034-2.363.723-4.756 4.17l-2.827-1.121c-2.154-2.258-4.606-2.239-7.687-2.649l-2.301-.313-1.601 1.371c-.836-.425-1.428-1.164-2.121-1.857 4.136-4.452 6.347-7.037 12.283-8.285"/><path fill="#DCDAD6" d="M246.751 539.789c.79 2.64 1.555 4.193.572 6.806-3.408 2.447-2.363 1.742-6.832 2.278l-2.301-.313-1.601 1.371c-.836-.425-1.428-1.164-2.121-1.857 4.136-4.452 6.347-7.037 12.283-8.285"/><path fill="#C63226" d="M366.313 427.253c-.355 2.393-1.936 11.323-1.365 13.102-2.332.497-5.438.712-6.887 2.103 2.938.776 4.454 1.027 7.419 1.427-3.423.235-10.33.057-12.354 2.02l-2.295-1.531c-4.566-.036-5.177-.316-9.385-2.166l-.366-.991c1.31.16 2.618.338 3.923.534l.747-1.665c2.804.679 4.555.633 7.398.734 4.111-4.466 8.894-9.178 13.165-13.567"/><path fill="#DCDAD6" d="m234.289 604.356 1.725 1.735c.798 1.564 2.449 4.541 2.845 6.104l-1.194.81c-5.896 3.084-8.95 4.987-14.413 8.784.918-1.637 1.681-2.6 1.718-4.47-2.64-.753-5.599 1.799-10.187 2.945l-.808.197c7.544-5.552 13.265-9.85 20.314-16.105"/><path fill="#D4C7C5" d="M918.309 464.005c.917-4.381 1.046-5.072 3.42-8.832l2.247-1.346c5.6 2.534 3.818 12.294 1.27 16.161-2.597-1.678-4.696-3.849-6.937-5.983"/><path fill="#221B43" d="M115.622 549.892c3.324-.525 9.93.23 11.284 3.713-2.682 1.831-2.857 1.234-6.657 1.406-3.528.12-10.632.941-13.151-1.382 1.998-2.309 5.499-2.886 8.524-3.737"/><path fill="#9DA6A0" d="m99.9926 454.497 1.0464-1.564c2.856 1.106 6.962 7.282 6.718 10.27-3.194 2.718-2.996 3.508-6.376 3.726-1.842-2.336-1.316-9.009-1.3884-12.432"/><path fill="#CECBBD" d="m769.572 718.721 3.858-.283c5.829 2.096 7.681 2.587 10.385 8.344l.345.747c-5.225 1.156-10.883-5.567-14.588-8.808M248.178 551.522l2.827 1.121c-1.122 3.664-1.317 4.69-3.529 7.876-2.873 1.355-1.695 1.284-4.458.512l-.737-2.537c1.493-4.174 2.061-3.654 5.897-6.972"/><path fill="#5B5D71" d="M84.4883 556.492c4.6359-.445 13.5301-1.333 17.7927-.145l.242 1.66c-4.9307.892-12.4174 1.939-17.2466.559z"/><path fill="#DCDAD6" d="M777.164 708.757c6.111.303 9.908 3.038 10.478 9.324-5.573-1.545-9.742-3.473-10.478-9.324"/></g></svg>