<?xml version="1.0" standalone="no"?>
<!DOCTYPE svg PUBLIC "-//W3C//DTD SVG 20010904//EN"
 "http://www.w3.org/TR/2001/REC-SVG-20010904/DTD/svg10.dtd">
<svg version="1.0" xmlns="http://www.w3.org/2000/svg"
 width="200.000000pt" height="200.000000pt" viewBox="0 0 200.000000 200.000000"
 preserveAspectRatio="xMidYMid meet">
<circle cx="100" cy="100" r="100" stroke="black" 
                    stroke-width="0" fill="rgb(247,218,59" /> 
<g transform="translate(0.000000,200.000000) scale(0.100000,-0.100000)"
fill="#000000" stroke="none">
<path d="M925 1751 c-16 -10 -43 -33 -59 -50 -22 -23 -39 -31 -63 -31 -58 0
-130 -46 -159 -102 -15 -30 -19 -115 -5 -137 6 -9 -16 -38 -78 -100 -100 -99
-146 -180 -182 -321 -19 -75 -23 -118 -26 -357 l-5 -273 651 0 651 0 0 253 c0
139 -5 280 -11 313 -33 187 -112 327 -247 437 -32 25 -33 29 -23 59 6 17 11
44 11 60 0 33 -29 95 -57 120 -26 24 -87 48 -121 48 -19 0 -39 11 -62 35 -18
19 -48 41 -66 50 -44 21 -112 19 -149 -4z m145 -117 c40 -37 96 -64 137 -64
38 0 73 -36 73 -77 0 -18 -2 -33 -5 -33 -2 0 -39 12 -82 26 -112 37 -264 38
-378 1 -86 -28 -100 -25 -90 23 8 34 41 60 76 60 43 0 96 25 129 60 31 33 67
50 90 42 8 -3 31 -20 50 -38z m111 -247 c87 -31 189 -104 245 -175 24 -32 44
-60 44 -64 0 -3 -24 0 -52 8 -122 32 -287 54 -415 54 -130 0 -320 -25 -421
-55 -25 -8 -48 -13 -49 -11 -2 2 17 31 42 64 71 95 181 166 301 197 85 21 221
13 305 -18z m104 -302 c66 -13 147 -32 179 -42 51 -16 61 -23 68 -48 4 -16 6
-31 4 -32 -2 -2 -50 5 -107 16 -285 56 -601 54 -883 -5 -38 -8 -71 -12 -74 -9
-3 3 -1 18 4 33 11 32 60 50 219 83 211 44 383 45 590 4z m-25 -176 c88 -10
185 -29 258 -48 l42 -12 0 -94 0 -95 -561 0 -562 0 8 93 c3 50 10 95 13 99 9
8 195 46 282 57 96 12 422 13 520 0z m300 -404 l0 -56 -557 3 -558 3 -3 53 -3
52 560 0 561 0 0 -55z"/>
</g>
</svg>
