<svg id="a" data-name="Calque 1" xmlns="http://www.w3.org/2000/svg" viewBox="0 0 600 600">
  <defs>
    <style>
      .grey {
        fill: #2d2d2d;
      }
    </style>
    <radialGradient id="gradient" cx="0" cy="0" r="1" gradientUnits="userSpaceOnUse" gradientTransform="translate(196 143.5) rotate(54.1675) scale(497.082)">
        <stop stop-color="white"/>
        <stop stop-color="black" offset="1"/>
    </radialGradient>
  </defs>
  <circle class="grey" cx="300" cy="300" r="300" />
  <g transform="matrix(2.5,0,0,2.5,0,0)">
    <path fill="white" d="M17.46,105.94c-1.16-.03-2.34.03-3.5,0-.31-.3.32-5.23.04-6.23-.18-.65-1.46.06-1.54-.53,2.53-13.37,7.57-26.19,14.8-37.68C55.04,17.34,109.88-1.32,159.22,16.98c37.48,13.9,65.66,49.07,70.24,88.96-.17.17-3-.15-3,0v7c0,.35-6.23,0-7,0-1.38-2.12-1.36-4.37,0-6.5l-6.75-.25c.14-2.28.06-4.53-.25-6.74-2.44-.2-4.9-.35-7.37-.46-.28-.21-.63-6.66.87-6.54-.4,1.65-6.31,1.52-7,0l.96.86c-1.2,4.57.6,6.28,5.37,5.13l.67,1.01,1,.54.14,4.96c2.53-.44,4.31-.1,5.36,1,.39,2.31.41,4.69,0,7l-.54,1-4.96.14c.44,2.53.1,4.31-1,5.36l6.63.25c.02-2.27.14-4.52.37-6.75.46-1.59,5.86-1.54,6.5,0,0,1.03.25,6.75,0,7-.2.2-3.3-.21-3.51,0-.23.23.17,5.49,0,6.5h10.5v7h-7v7h-13.5v-7h7l-.5-7h-10v7h-7v13.49h-13.5v-6.5h-17c-.19,0,.56,3.06-.81,3.46h-36.38c-1.52-.44-.55-5.55-.81-6.96h-17v6.5h-34c-.15,0,.15-3,0-3h-27.5v6.5h-20.5v-6.5h13.5v-7h-10v-7h-7v-3c7.4.46,7.45.39,7-7h-7.01c-.02-1.16.04-2.33,0-3.5,2.32-.98,4.68-.98,7,0-1.65-.4-1.52-6.31,0-7-2.29,1.36-4.71,1.39-7,0-1.01-.51-1.28-1.85-.83-4.01.82-2.93-6.01-3.16-5.31-.29.48,2.15.2,3.58-.86,4.3Z"/>
    <path fill="white" d="M125.71,163.41c1.56.48,11.69,26.35,14,29.48l13.49-28.99c.98-.83,8.26-.83,8.26.26v44.73h-8.5v-26.99l-10.24,20c-1.01.9-6.09,1.04-6.68-.83l-9.58-19.16v26.99h-8.5v-45.48c2.02.38,6.06-.52,7.75,0Z"/>
    <path fill="white" d="M84.96,193.4v15.49h-9v-44.73c0-.05.7-.75.75-.75h27.5c.56,0,7.11,6.95,7.28,8.22.24,1.83.27,13.57-.13,14.92-.14.46-6.17,6.85-6.65,6.85h-19.75Z"/>
    <path fill="white" d="M75.96,153.92h-14v-7h13.25c1.26,0,.6,5.92.75,7Z"/>
    <path fill="white" d="M24.46,105.94c1.52,1.87,1.45,5.09,0,7h-7c.02-2.32-.03-4.67,0-7,2.05-1.43,5-1.48,7,0Z"/>
    <path class="grey" d="M127.46,24.49v11.99c2.73.48,8.73-.77,10.99.26.71.32,11.01,10.21,11.01,10.98v11.24h-14.5c.71-5.92-.47-10.97-7.5-9.99v17.99h11.25c.83,0,10.08,10.55,11.65,11.85-.58,4.29,1.32,18.98-.37,21.91-.48.83-10.96,11.22-11.78,11.22h-10.75v11.49h-12v-11.49h-11.75c-1.12-1.75-11.75-10.91-11.75-11.74v-10.74h14.5c-1.05,6.67,1.91,11.11,9,9.99v-19.99h-11.75c-.76,0-10.4-10.06-10.78-10.72-1.65-2.87.18-16.78-.37-20.91,1.5-1.25,10.35-11.35,11.15-11.35h11.75v-11.99h12Z"/>
    <path class="grey" d="M205.96,99.45c-7.13-.19-7.45,1.55-7-7h7v6.5c1.72.28,5.37-.63,6.5.5-1.86,1.45-4.69,1.51-6.5,0Z"/>
    <path class="grey" d="M24.46,105.94c2.33.02,4.67-.02,7,0v7c-2.33,0-4.67,0-7,0-.07-2.32.03-4.67,0-7Z"/>
    <path class="grey" d="M31.46,88.95c.46,7.39.38,7.45-7,7v-7h7Z"/>
    <path class="grey" d="M24.46,105.94c-2.33-.02-4.68.07-7,0,.07-5.45-1.62-7.88,5.27-7.02,2.76.34,1.69,4.45,1.73,7.02Z"/>
    <rect class="grey" x="219.46" y="95.95" width="7" height="6.5"/>
    <rect class="grey" x="31.46" y="95.95" width="6.51" height="6.5"/>
    <path class="grey" d="M212.46,99.45c.47,2.13.36,4.35,0,6.5h-6.5s0-6.5,0-6.5c2.16.06,4.34-.04,6.5,0Z"/>
    <path class="grey" d="M219.46,106.44c.01,2.16-.02,4.34,0,6.5h-6.5c-.27-2.19-.36-4.41-.25-6.65l6.75.15Z"/>
    <path class="grey" d="M212.46,112.94c.28,2.19.36,4.41.25,6.65l-6.75-.15v-6.5s6.5,0,6.5,0Z"/>
    <path class="grey" d="M212.46,99.45c1.13,1.13.22,4.78.5,6.5l6.5.5h-6.5c-.02,2.16.03,4.34,0,6.5-.03,2.33.02,4.67,0,7l-7-.5h6.5c.01-2.16-.03-4.34,0-6.5.03-2.32.03-4.67,0-7-.02-2.16.02-4.34,0-6.5Z"/>
    <path class="grey" d="M84.96,185.9v-14.99h15.25c.18,0,2.38,2.27,2.49,2.51.42.92.49,8.47.25,9.72-.14.72-1.96,2.76-2.24,2.76h-15.75Z"/>
    <path fill="white" d="M127.46,99.45v-19.99c3.73-.88,8.14,1.32,8.53,5.22.16,1.66.2,10.2-.29,11.27-1.28,2.83-5.3,4.2-8.24,3.51Z"/>
    <path fill="white" d="M115.46,48.97v17.99c-3.14.6-7.32-.38-8.74-3.51-.48-1.05-.44-7.76-.29-9.27.42-4.21,5.13-6.05,9.03-5.22Z"/>
  </g>
  <circle cx="300" cy="300" r="300" fill="url(#gradient)" opacity="0.2"/>
</svg>