<svg xmlns="http://www.w3.org/2000/svg" viewBox="0 0 600 600">
    <circle fill="#3366ff" cx="300" cy="300" r="300"/>
    <circle fill="url(#background)" cx="300" cy="300" r="300" opacity="0.25"/>
    <g>
        <path fill="white" d="M209.05,231.71c1.29,1.86,35.98,16.17,40.89,19.38,14.32-9,35.46-32.49,53.07-30.36,13.52,1.64,34.35,22.97,46.36,30.36,4.91-3.21,39.6-17.52,40.89-19.38.92-1.32-.41-3.57-1.27-4.89-6.89-10.56-28.86-25.42-40.54-30.59-6.03-2.67-29.05-8.37-31.32-10.52-6.29-5.98-2.09-16.67,6.89-16.74,6.23-.05,24.53,6.76,30.97,9.56,18.67,8.1,36.93,22.36,49.99,37.89,5.94,7.05,16.76,19.26,5.38,26.34l-60,29.11c-6.73.63-31.41-21.02-39.1-25.88-6.19-3.91-8.6-8.03-16.59-4.53-11.82,5.18-26.14,21.47-37.77,27.76-2.21,1.19-4.56,2.08-7,2.66l-62.33-30.52c-9.03-7.21,1.3-18.44,6.76-24.93,13.55-16.1,34.07-31.96,53.73-39.72,4.86-1.92,22.89-7.76,27.22-7.73,8.92.07,13.38,11.31,7.01,16.86-2.59,2.25-25.69,7.7-32.41,10.82-7.49,3.47-18.43,10.39-24.82,15.63-2.96,2.43-18.09,16.43-16.01,19.43Z"/>
        <path fill="white" d="M343.59,350.33c16.77-3.61,8.83-48.51,10.44-62.09.36-3.06.88-5.73,3.71-7.45,18.02-6.3,39.28-23.01,56.68-28.4,7.6-2.35,11.59-.32,14.66,6.88,24.37,57.28-9.17,135.76-62.93,163.83-6.52,3.4-13.1,8.5-19.79,2.58-12.71-11.25,19.77-24.05,27.88-30.76,35.31-29.18,50.27-75.2,39.78-119.91-1.98-1.72-35.97,16.92-41.15,19.51-4,22.41,7.42,50.33-12.57,66.93-2.39,1.98-12.97,8.41-15.31,8.41h-20.22v50.91c0,.42-2.91,6.92-3.53,7.63-5.25,6.04-16-.49-16-3.44v-72.53c0-.15,1.94-2.09,2.09-2.09,9.1,0,28.75,1.62,36.26,0Z"/>
        <path fill="white" d="M294.08,423.56c-1.24,5.79-10.04,10.14-15.31,5.53-8.25-7.22-2.46-47.43-4.21-59.24-13.51.6-24.75.64-35.54-8.4-19.28-16.15-9.31-42.02-11.81-63.51-.3-2.58-.14-2.97-2.32-4.66-4.2-3.25-29.77-15.47-35.51-17.49-1.4-.49-2.44-1.16-4.08-.78-10.85,44.86,5.35,92.45,41.16,121.32,6.64,5.35,28.64,15,29.74,21.96,1.02,6.51-6.28,10.76-12.38,9.59-14.05-2.71-40.76-26.63-50.13-37.84-27.73-33.19-39.1-86.34-24.39-127.52,1.82-5.09,3.47-10.6,9.84-11.21,9.27-.9,52.37,26.58,63.98,30.73,5.02,5.9.55,44.11,2.23,54.96.6,3.86,6.62,13.34,10.37,13.34h36.26c.15,0,2.09,1.94,2.09,2.09v71.13Z"/>
    </g>
    <defs>
        <radialGradient id="background" cx="0" cy="0" r="1" gradientUnits="userSpaceOnUse" gradientTransform="translate(196 143.5) rotate(54.1675) scale(497.082)">
            <stop stop-color="white"/>
            <stop stop-color="#3366ff" offset="1"/>
        </radialGradient>
    </defs>
</svg>