<svg width="227" height="223" viewBox="0 0 227 223" fill="none" xmlns="http://www.w3.org/2000/svg">
<path d="M226.479 109.812C226.824 130.86 221.885 150.128 211.624 167.617C201.364 185.123 187.398 198.725 169.728 208.459C152.04 218.175 132.772 222.86 111.924 222.515C90.5314 222.86 71.0817 217.739 53.5752 207.134C36.0687 196.528 22.6845 182.69 13.4046 165.637C4.12471 148.585 -0.342723 130.497 0.0204825 111.411C-0.342723 91.7793 4.57872 73.3103 14.7303 55.9854C24.9001 38.6604 38.7746 24.9131 56.3719 14.7433C73.9692 4.59172 92.8378 -0.311563 112.996 0.0153222C144.286 -0.329723 171.163 9.96717 193.609 30.906C216.055 51.863 227.024 78.1591 226.498 109.794L226.479 109.812Z" fill="black"/>
<path d="M85.7554 187.975L154.365 98.6259C165.497 117.64 168.348 134.402 154.456 150.056C151.714 153.143 148.445 155.322 144.958 156.848C144.958 156.848 135.061 144.808 132.9 145.352L129.504 146.224C128.959 146.369 128.686 146.987 128.941 147.495L131.41 152.162C132.464 154.16 132.863 156.43 132.573 158.664C132.209 161.406 130.43 163.731 127.887 164.802L120.696 167.817C119.988 168.107 119.17 167.817 118.844 167.108L117.681 164.711L115.793 167.49C113.795 170.432 112.542 173.828 112.124 177.369C111.979 178.604 112.887 179.712 114.122 179.821C129.703 181.255 152.331 176.388 164.844 162.296C188.288 135.891 183.313 107.652 164.39 75.526L157.452 63.5039L76.639 172.193L85.7736 187.993L85.7554 187.975Z" fill="white"/>
<path d="M140.745 34.5742L72.1352 123.923C61.0029 104.909 58.1517 88.1471 72.0444 72.4929C74.7866 69.4057 78.0554 67.2264 81.5422 65.701C81.5422 65.701 91.4396 77.7412 93.6006 77.1964L96.9966 76.3247C97.5414 76.1795 97.8138 75.562 97.5596 75.0535L95.0898 70.3863C94.0365 68.3887 93.637 66.1187 93.9275 63.8849C94.2907 61.1427 96.0704 58.8182 98.6129 57.7468L105.804 54.7321C106.513 54.4416 107.33 54.7321 107.657 55.4404L108.819 57.8376L110.708 55.059C112.705 52.1171 113.958 48.7211 114.376 45.1798C114.521 43.9449 113.613 42.8372 112.378 42.7282C96.7968 41.2935 74.1691 46.1605 61.6567 60.2529C38.2117 86.6579 43.1876 114.897 62.1107 147.023L69.0479 159.045L149.879 50.3737L140.745 34.5742Z" fill="white"/>
<circle cx="193" cy="188" r="29" fill="#DB1919"/>
</svg>
