<svg height="250" width="250" fill="none" viewBox="0 0 250 250" xmlns="http://www.w3.org/2000/svg" class="relative text-3xl rounded-full border border-yellow-lightest-2 h-5e w-5e"><circle cx="125" cy="125" fill="#ADD6FF" r="125"></circle><mask height="250" id="mask0_1_9" width="250" x="0" y="0" maskUnits="userSpaceOnUse" style="mask-type: alpha;"><circle cx="125" cy="125" fill="#ADD6FF" r="125"></circle></mask><g mask="url(#mask0_1_9)"><g clip-path="url(#clip0_1_9)"><path d="M180.5 153.2C178.4 148.8 176.5 144.4 174.2 140.1C171.9 135.9 168.3 132.6 166.3 128.3C164.3 124.1 163.3 119.5 160.8 115.5C158.2 111.3 154.5 108 151.6 104C148.7 99.9996 146.8 95.4996 144.9 90.9996C143 86.5996 140.7 82.9996 137.6 79.4996C130.5 71.5996 125 62.6996 120.5 53.0996C100.2 53.6996 82.6 60.7996 68.3 74.1996C53.5 88.0996 46 105.4 46 125.5C46 145.6 53.5 163 68.3 177L68.4 177.1C83.3 191 101.9 198 123.4 198C144.9 198 163.5 191 178.5 177.1C182.3 173.5 185.7 169.7 188.6 165.7C185.4 161.8 182.6 157.7 180.5 153.2ZM142.3 143.7C137.2 148.4 131.1 150.7 123.4 150.7C115.8 150.7 109.6 148.4 104.6 143.7C99.7 139 97.3 133 97.3 125.5C97.3 118 99.7 112 104.6 107.3C109.7 102.6 115.8 100.3 123.4 100.3C131 100.3 137.2 102.6 142.3 107.3C147.4 112 149.8 118 149.8 125.5C149.8 133 147.4 139 142.3 143.7Z" fill="url(#paint0_linear_1_9)"></path><path d="M258 171.5C258 165.5 257.9 162.4 258 156.4C258 153.9 257.1 152.4 255.8 151.2C254.5 150 250.5      149.3 249.8 149.2C234.5 146.1 226.6 138.599 217.7 125.799C207.3 110.899 198.8 94.5995 187 80.7995C176.9 68.9995 164.2 59.7995 149 55.9995C140.2 53.7995 131.3 52.9995 122.2 52.9995C91.6 52.4995 72.3 70.3995 68.3 74.1995C68.3 78.6995 69.6 82.2995 71.5 85.3995C73.4 88.4995 75.7 91.2995 77.9 94.1995C79.9 96.7995 81.7 99.5995 82.7 103C83.3 104.9 83.7 107 83.7 109.4C83.7 110.7 115.9 99.5995 121.7 100.299C134.5 100.299 141.5 104.7 148.9 112.5C160 124 167.1 138.399 176.1 151.499C189.2 170.7 206.4 190 230 195.5C238.6 197.5 241 198 249.8 198C253.7 198 258.1 195.2 258.1 191C258 182.8 258 179.6 258 171.5Z" fill="url(#paint1_linear_1_9)"></path></g></g><defs><linearGradient id="paint0_linear_1_9" gradientUnits="userSpaceOnUse" x1="47.4261" x2="188.929" y1="110.841" y2="140.706"><stop offset="0.4" stop-color="#3D67FF"></stop><stop offset="1" stop-color="#2241A9"></stop></linearGradient><linearGradient id="paint1_linear_1_9" gradientUnits="userSpaceOnUse" x1="102.28" x2="253.528" y1="69.4466" y2="180.256"><stop offset="0.2649" stop-color="#3D67FF"></stop><stop offset="1" stop-color="#86C0FB"></stop></linearGradient><clipPath id="clip0_1_9"><rect height="145" width="213" fill="white" transform="translate(46 53)"></rect></clipPath></defs></svg>
