<svg width="32" height="32" viewBox="0 0 32 32" fill="none" xmlns="http://www.w3.org/2000/svg">
<path fill-rule="evenodd" clip-rule="evenodd" d="M32 16C32 7.17152 24.8285 0 16 0C7.17152 0 0 7.17152 0 16C0 24.8285 7.17152 32 16 32C24.8285 32 32 24.8285 32 16Z" fill="white"/>
<path fill-rule="evenodd" clip-rule="evenodd" d="M9.97656 13.312L16.0002 4.0752V9.8576L9.97656 13.312ZM8.81307 15.0843C8.87643 14.9867 8.94011 14.8891 9.00379 14.7915L15.9923 27.9253C13.8121 27.9246 11.6316 27.1099 9.96859 25.4801C7.14171 22.7099 6.66139 18.3864 8.81307 15.0843Z" fill="#00A3FF"/>
<path opacity="0.6" fill-rule="evenodd" clip-rule="evenodd" d="M9.97662 13.3113L16.0003 9.86719V16.7517L9.97662 13.3113ZM9.00415 14.7915L16.0003 18.7829V27.9253L9.00415 14.7915Z" fill="#00A3FF"/>
<path opacity="0.6" fill-rule="evenodd" clip-rule="evenodd" d="M22.0237 13.312L16 4.0752V9.8576L22.0237 13.312ZM23.1872 15.0843C23.1238 14.9867 23.0602 14.8891 22.9965 14.7915L16.008 27.9253C18.1882 27.9246 20.3686 27.1099 22.0317 25.4801C24.8586 22.7099 25.3389 18.3864 23.1872 15.0843Z" fill="#00A3FF"/>
<path opacity="0.2" fill-rule="evenodd" clip-rule="evenodd" d="M22.0237 13.3113L16 9.86719V16.7517L22.0237 13.3113ZM22.9962 14.7915L16 18.7829V27.9253L22.9962 14.7915Z" fill="#00A3FF"/>
</svg>
