<?xml version="1.0" encoding="UTF-8"?>
<!DOCTYPE svg PUBLIC "-//W3C//DTD SVG 1.1//EN" "http://www.w3.org/Graphics/SVG/1.1/DTD/svg11.dtd">
<svg xmlns="http://www.w3.org/2000/svg" version="1.1" width="128px" height="128px" style="shape-rendering:geometricPrecision; text-rendering:geometricPrecision; image-rendering:optimizeQuality; fill-rule:evenodd; clip-rule:evenodd" xmlns:xlink="http://www.w3.org/1999/xlink">
<g><path style="opacity:0.93" fill="#219de9" d="M 51.5,-0.5 C 59.5,-0.5 67.5,-0.5 75.5,-0.5C 79.4108,0.818111 83.4108,2.15144 87.5,3.5C 84.4172,5.02463 81.0839,6.02463 77.5,6.5C 58.2489,1.89862 41.2489,5.89862 26.5,18.5C 23.5375,21.9641 20.3709,25.2975 17,28.5C 18.5778,24.8859 21.0778,21.7193 24.5,19C 22.6133,18.8374 21.1133,19.6707 20,21.5C 18.5098,20.2721 17.0098,20.2721 15.5,21.5C 16.2026,19.2843 17.5359,17.451 19.5,16C 28.9951,8.08666 39.6617,2.58666 51.5,-0.5 Z"/></g>
<g><path style="opacity:1" fill="#3bc3f4" d="M 87.5,3.5 C 90.1667,4.83333 92.8333,6.16667 95.5,7.5C 94.7848,9.55961 93.4514,11.2263 91.5,12.5C 86.8146,10.2806 82.1479,8.28057 77.5,6.5C 81.0839,6.02463 84.4172,5.02463 87.5,3.5 Z"/></g>
<g><path style="opacity:1" fill="#1577f8" d="M 50.5,10.5 C 51.5,10.5 52.5,10.5 53.5,10.5C 55.1992,10.3398 56.8659,10.5065 58.5,11C 57.7117,14.0757 57.2117,17.2423 57,20.5C 56.5,21 56,21.5 55.5,22C 57.6976,25.7145 58.0309,29.3812 56.5,33C 57.5503,37.933 59.5503,42.433 62.5,46.5C 63.086,46.2907 63.586,45.9574 64,45.5C 64.1862,42.9644 64.6862,40.631 65.5,38.5C 65.8222,44.358 65.4889,50.0247 64.5,55.5C 61.1964,48.8919 55.8631,46.7252 48.5,49C 46.3645,49.8763 45.0312,51.3763 44.5,53.5C 43.8333,53.8333 43.1667,54.1667 42.5,54.5C 42.5987,51.7628 42.2653,49.0961 41.5,46.5C 39.7768,42.701 41.1102,40.8677 45.5,41C 44.2986,40.0975 43.4652,38.9308 43,37.5C 42.734,30.9759 42.234,24.4759 41.5,18C 41.5852,16.8926 41.9186,15.8926 42.5,15C 41.9056,14.5357 41.2389,14.369 40.5,14.5C 43.8333,13.1667 47.1667,11.8333 50.5,10.5 Z"/></g>
<g><path style="opacity:1" fill="#128afb" d="M 53.5,10.5 C 59.0155,9.34858 64.6822,9.34858 70.5,10.5C 69.1297,17.6779 67.7964,24.8446 66.5,32C 68.3884,34.1896 70.5551,36.0229 73,37.5C 74.1268,40.3771 74.7935,43.3771 75,46.5C 75.8926,45.9186 76.8926,45.5852 78,45.5C 80.314,45.5027 81.4807,46.1694 81.5,47.5C 78.7508,47.2739 76.0841,47.6072 73.5,48.5C 72.6764,45.2152 72.1764,41.8818 72,38.5C 70.0312,35.8761 68.1978,35.8761 66.5,38.5C 66.1667,38.5 65.8333,38.5 65.5,38.5C 64.6862,40.631 64.1862,42.9644 64,45.5C 63.586,45.9574 63.086,46.2907 62.5,46.5C 59.5503,42.433 57.5503,37.933 56.5,33C 58.0309,29.3812 57.6976,25.7145 55.5,22C 56,21.5 56.5,21 57,20.5C 57.2117,17.2423 57.7117,14.0757 58.5,11C 56.8659,10.5065 55.1992,10.3398 53.5,10.5 Z"/></g>
<g><path style="opacity:0.844" fill="#33bcef" d="M 102.5,12.5 C 104.54,14.177 106.54,15.8437 108.5,17.5C 108.802,20.0593 108.468,22.3926 107.5,24.5C 104.369,21.8712 101.369,19.0379 98.5,16C 99.7051,14.6244 101.038,13.4577 102.5,12.5 Z"/></g>
<g><path style="opacity:1" fill="#1bbdfc" d="M 85.5,11.5 C 90.5037,11.902 93.0037,14.5687 93,19.5C 95.6827,16.0331 98.1827,16.3665 100.5,20.5C 100.5,21.5 100.5,22.5 100.5,23.5C 98.3043,23.5652 96.3043,24.2319 94.5,25.5C 96.0224,27.1563 95.689,28.323 93.5,29C 84.0672,29.5548 80.2339,25.0548 82,15.5C 83.6268,14.4677 84.7934,13.1344 85.5,11.5 Z"/></g>
<g><path style="opacity:1" fill="#1567f7" d="M 40.5,14.5 C 41.2389,14.369 41.9056,14.5357 42.5,15C 41.9186,15.8926 41.5852,16.8926 41.5,18C 42.234,24.4759 42.734,30.9759 43,37.5C 43.4652,38.9308 44.2986,40.0975 45.5,41C 41.1102,40.8677 39.7768,42.701 41.5,46.5C 37.781,41.4636 32.781,38.4636 26.5,37.5C 22.9792,36.8337 19.3125,36.1671 15.5,35.5C 21.749,25.9094 30.0823,18.9094 40.5,14.5 Z"/></g>
<g><path style="opacity:1" fill="#1395fd" d="M 77.5,8.5 C 75.7078,9.30912 73.7078,9.80912 71.5,10C 72.3081,10.3076 72.9747,10.8076 73.5,11.5C 68.4981,24.7868 72.4981,33.9535 85.5,39C 86.8333,39.6667 86.8333,40.3333 85.5,41C 92.0801,42.3645 98.0801,41.1978 103.5,37.5C 106.201,40.2353 107.868,43.5686 108.5,47.5C 107.766,48.8775 107.099,50.3775 106.5,52C 102.145,53.6718 97.6445,54.8385 93,55.5C 92.1667,55.1667 91.3333,54.8333 90.5,54.5C 89.7469,52.2466 88.4136,50.4133 86.5,49C 86.8333,48.6667 87.1667,48.3333 87.5,48C 85.9343,47.235 84.6009,47.4017 83.5,48.5C 82.5084,48.6716 81.8417,48.3382 81.5,47.5C 81.4807,46.1694 80.314,45.5027 78,45.5C 76.8926,45.5852 75.8926,45.9186 75,46.5C 74.7935,43.3771 74.1268,40.3771 73,37.5C 70.5551,36.0229 68.3884,34.1896 66.5,32C 67.7964,24.8446 69.1297,17.6779 70.5,10.5C 64.6822,9.34858 59.0155,9.34858 53.5,10.5C 52.5,10.5 51.5,10.5 50.5,10.5C 49.7611,10.631 49.0944,10.4643 48.5,10C 49.5,9.66667 50.5,9.33333 51.5,9C 50.9056,8.53566 50.2389,8.36899 49.5,8.5C 58.6982,5.89996 68.0315,5.89996 77.5,8.5 Z"/></g>
<g><path style="opacity:1" fill="#14c7fd" d="M 77.5,10.5 C 77.4142,11.4959 77.7476,12.3292 78.5,13C 74.2848,22.6941 76.9515,29.6941 86.5,34C 91.2856,35.1584 95.6189,34.3251 99.5,31.5C 100.524,32.8532 101.857,33.5198 103.5,33.5C 103.5,34.1667 103.167,34.5 102.5,34.5C 94.7477,38.6594 87.081,38.4927 79.5,34C 73.6218,28.3429 71.9551,21.5096 74.5,13.5C 75.735,12.6602 76.735,11.6602 77.5,10.5 Z"/></g>
<g><path style="opacity:1" fill="#1ad8fb" d="M 78.5,8.5 C 80.9872,9.32278 83.3206,10.3228 85.5,11.5C 84.7934,13.1344 83.6268,14.4677 82,15.5C 80.2339,25.0548 84.0672,29.5548 93.5,29C 95.689,28.323 96.0224,27.1563 94.5,25.5C 96.3043,24.2319 98.3043,23.5652 100.5,23.5C 100.5,22.5 100.5,21.5 100.5,20.5C 103.167,22.5 105.5,24.8333 107.5,27.5C 106.18,29.4632 104.846,31.4632 103.5,33.5C 101.857,33.5198 100.524,32.8532 99.5,31.5C 95.6189,34.3251 91.2856,35.1584 86.5,34C 76.9515,29.6941 74.2848,22.6941 78.5,13C 77.7476,12.3292 77.4142,11.4959 77.5,10.5C 78.3382,10.1583 78.6716,9.49162 78.5,8.5 Z"/></g>
<g><path style="opacity:1" fill="#14b6fc" d="M 107.5,27.5 C 112.46,33.7498 116.126,40.7498 118.5,48.5C 118.546,53.333 118.212,58.333 117.5,63.5C 114.913,63.1835 113.08,64.5168 112,67.5C 111.667,63.1667 111.333,58.8333 111,54.5C 110.61,51.8958 109.776,49.5625 108.5,47.5C 107.868,43.5686 106.201,40.2353 103.5,37.5C 103.443,36.391 103.11,35.391 102.5,34.5C 103.167,34.5 103.5,34.1667 103.5,33.5C 104.846,31.4632 106.18,29.4632 107.5,27.5 Z"/></g>
<g><path style="opacity:1" fill="#12a7fc" d="M 77.5,8.5 C 77.8333,8.5 78.1667,8.5 78.5,8.5C 78.6716,9.49162 78.3382,10.1583 77.5,10.5C 76.735,11.6602 75.735,12.6602 74.5,13.5C 71.9551,21.5096 73.6218,28.3429 79.5,34C 87.081,38.4927 94.7477,38.6594 102.5,34.5C 103.11,35.391 103.443,36.391 103.5,37.5C 98.0801,41.1978 92.0801,42.3645 85.5,41C 86.8333,40.3333 86.8333,39.6667 85.5,39C 72.4981,33.9535 68.4981,24.7868 73.5,11.5C 72.9747,10.8076 72.3081,10.3076 71.5,10C 73.7078,9.80912 75.7078,9.30912 77.5,8.5 Z"/></g>
<g><path style="opacity:1" fill="#eff6fc" d="M 26.5,37.5 C 32.781,38.4636 37.781,41.4636 41.5,46.5C 42.2653,49.0961 42.5987,51.7628 42.5,54.5C 42.0074,56.8056 41.6741,59.139 41.5,61.5C 38.9589,67.028 34.6256,70.3613 28.5,71.5C 23.4889,71.6659 18.4889,71.4993 13.5,71C 12.1667,69.6667 12.1667,68.3333 13.5,67C 18.1667,66.6667 22.8333,66.3333 27.5,66C 36.2357,62.1257 38.4024,55.959 34,47.5C 32.2002,45.683 30.0336,44.5163 27.5,44C 23.1667,43.6667 18.8333,43.3333 14.5,43C 13.6195,42.2917 12.9528,41.4584 12.5,40.5C 12.4142,39.5041 12.7476,38.6708 13.5,38C 17.8206,37.501 22.1539,37.3343 26.5,37.5 Z"/></g>
<g><path style="opacity:1" fill="#edf5fc" d="M 81.5,47.5 C 81.8417,48.3382 82.5084,48.6716 83.5,48.5C 86.5497,50.5491 88.883,53.2157 90.5,56.5C 90.8831,65.7592 86.5498,71.0925 77.5,72.5C 75.5191,72.5629 73.8524,71.8962 72.5,70.5C 70.7766,73.8719 68.7766,74.2052 66.5,71.5C 66.5,60.5 66.5,49.5 66.5,38.5C 68.1978,35.8761 70.0312,35.8761 72,38.5C 72.1764,41.8818 72.6764,45.2152 73.5,48.5C 76.0841,47.6072 78.7508,47.2739 81.5,47.5 Z"/></g>
<g><path style="opacity:1" fill="#1885e7" d="M 49.5,8.5 C 50.2389,8.36899 50.9056,8.53566 51.5,9C 50.5,9.33333 49.5,9.66667 48.5,10C 49.0944,10.4643 49.7611,10.631 50.5,10.5C 47.1667,11.8333 43.8333,13.1667 40.5,14.5C 30.0823,18.9094 21.749,25.9094 15.5,35.5C 19.3125,36.1671 22.9792,36.8337 26.5,37.5C 22.1539,37.3343 17.8206,37.501 13.5,38C 12.7476,38.6708 12.4142,39.5041 12.5,40.5C 9.30192,45.2428 7.46858,50.5761 7,56.5C 6.24432,63.2166 6.41099,69.8833 7.5,76.5C 6.22984,80.8643 5.22984,85.1976 4.5,89.5C 2.51484,84.8596 0.848171,80.1929 -0.5,75.5C -0.5,67.5 -0.5,59.5 -0.5,51.5C 2.20421,40.0913 7.53754,30.0913 15.5,21.5C 17.0098,20.2721 18.5098,20.2721 20,21.5C 21.1133,19.6707 22.6133,18.8374 24.5,19C 21.0778,21.7193 18.5778,24.8859 17,28.5C 20.3709,25.2975 23.5375,21.9641 26.5,18.5C 33.5426,13.8139 41.2093,10.4806 49.5,8.5 Z"/></g>
<g><path style="opacity:1" fill="#1a84de" d="M 108.5,17.5 C 117.955,27.0759 124.289,38.4092 127.5,51.5C 127.5,54.1667 127.5,56.8333 127.5,59.5C 125.799,59.9662 124.299,59.9662 123,59.5C 122.823,63.3563 122.323,67.023 121.5,70.5C 123.32,53.0953 118.653,37.762 107.5,24.5C 108.468,22.3926 108.802,20.0593 108.5,17.5 Z"/></g>
<g><path style="opacity:1" fill="#d3e8f8" d="M 77.5,6.5 C 82.1479,8.28057 86.8146,10.2806 91.5,12.5C 93.4514,11.2263 94.7848,9.55961 95.5,7.5C 98.1354,8.81094 100.469,10.4776 102.5,12.5C 101.038,13.4577 99.7051,14.6244 98.5,16C 101.369,19.0379 104.369,21.8712 107.5,24.5C 118.653,37.762 123.32,53.0953 121.5,70.5C 121.055,76.061 119.721,81.3943 117.5,86.5C 115.5,87.1667 113.5,87.8333 111.5,88.5C 113.006,89.7472 114.506,89.7472 116,88.5C 116.464,89.0944 116.631,89.7611 116.5,90.5C 103.049,114.565 82.3821,125.565 54.5,123.5C 54.5,123.167 54.5,122.833 54.5,122.5C 63.9507,123.281 72.9507,121.947 81.5,118.5C 83.921,118.122 86.2543,117.455 88.5,116.5C 98.9544,110.546 107.288,102.379 113.5,92C 112.906,91.5357 112.239,91.369 111.5,91.5C 110.878,90.3734 110.045,89.3734 109,88.5C 107.927,84.9049 109.261,82.9049 113,82.5C 114.711,82.4393 116.044,83.1059 117,84.5C 117.662,82.1873 118.162,79.854 118.5,77.5C 121.084,67.9645 121.084,58.2978 118.5,48.5C 116.126,40.7498 112.46,33.7498 107.5,27.5C 105.5,24.8333 103.167,22.5 100.5,20.5C 98.1827,16.3665 95.6827,16.0331 93,19.5C 93.0037,14.5687 90.5037,11.902 85.5,11.5C 83.3206,10.3228 80.9872,9.32278 78.5,8.5C 78.1667,8.5 77.8333,8.5 77.5,8.5C 68.0315,5.89996 58.6982,5.89996 49.5,8.5C 41.2093,10.4806 33.5426,13.8139 26.5,18.5C 41.2489,5.89862 58.2489,1.89862 77.5,6.5 Z"/></g>
<g><path style="opacity:1" fill="#eff5fc" d="M 64.5,55.5 C 65.7335,58.5352 65.7335,61.5352 64.5,64.5C 62.8271,68.1729 60.1604,70.8396 56.5,72.5C 53.4467,72.8893 50.78,72.2227 48.5,70.5C 48.6107,69.8826 48.944,69.3826 49.5,69C 46.9386,64.1485 45.272,58.9818 44.5,53.5C 45.0312,51.3763 46.3645,49.8763 48.5,49C 55.8631,46.7252 61.1964,48.8919 64.5,55.5 Z"/></g>
<g><path style="opacity:1" fill="#77b0ed" d="M 65.5,38.5 C 65.8333,38.5 66.1667,38.5 66.5,38.5C 66.5,49.5 66.5,60.5 66.5,71.5C 65.8333,69.1667 65.1667,66.8333 64.5,64.5C 65.7335,61.5352 65.7335,58.5352 64.5,55.5C 65.4889,50.0247 65.8222,44.358 65.5,38.5 Z"/></g>
<g><path style="opacity:1" fill="#168efc" d="M 108.5,47.5 C 109.776,49.5625 110.61,51.8958 111,54.5C 111.333,58.8333 111.667,63.1667 112,67.5C 113.08,64.5168 114.913,63.1835 117.5,63.5C 118.212,58.333 118.546,53.333 118.5,48.5C 121.084,58.2978 121.084,67.9645 118.5,77.5C 118.631,76.7611 118.464,76.0944 118,75.5C 116.98,76.8905 116.147,78.3905 115.5,80C 113.559,80.7429 111.726,80.5762 110,79.5C 110.284,72.1806 110.284,64.8473 110,57.5C 107.915,60.8985 105.082,62.2318 101.5,61.5C 100.522,61.9767 99.6891,62.6433 99,63.5C 96.6457,63.1084 94.1457,63.1084 91.5,63.5C 91.8016,60.9407 91.4682,58.6074 90.5,56.5C 88.883,53.2157 86.5497,50.5491 83.5,48.5C 84.6009,47.4017 85.9343,47.235 87.5,48C 87.1667,48.3333 86.8333,48.6667 86.5,49C 88.4136,50.4133 89.7469,52.2466 90.5,54.5C 91.3333,54.8333 92.1667,55.1667 93,55.5C 97.6445,54.8385 102.145,53.6718 106.5,52C 107.099,50.3775 107.766,48.8775 108.5,47.5 Z"/></g>
<g><path style="opacity:1" fill="#125ddd" d="M 12.5,40.5 C 12.9528,41.4584 13.6195,42.2917 14.5,43C 18.8333,43.3333 23.1667,43.6667 27.5,44C 30.0336,44.5163 32.2002,45.683 34,47.5C 38.4024,55.959 36.2357,62.1257 27.5,66C 22.8333,66.3333 18.1667,66.6667 13.5,67C 12.1667,68.3333 12.1667,69.6667 13.5,71C 18.4889,71.4993 23.4889,71.6659 28.5,71.5C 23.6835,72.3261 18.6835,72.8261 13.5,73C 19.5,73.3333 25.5,73.6667 31.5,74C 32.3452,75.5581 31.6785,76.5581 29.5,77C 30.1667,77.3333 30.8333,77.6667 31.5,78C 29.9991,79.2515 28.3325,80.2515 26.5,81C 27.7375,81.2321 28.7375,81.7321 29.5,82.5C 28.0413,82.4326 26.7079,82.7659 25.5,83.5C 25.0679,82.2905 24.4013,81.2905 23.5,80.5C 22.8333,77.8333 22.1667,77.8333 21.5,80.5C 20.7784,80.0825 20.2784,79.4158 20,78.5C 16.6082,77.5301 13.1082,77.5301 9.5,78.5C 9.5,79.1667 9.5,79.8333 9.5,80.5C 8.83333,79.1667 8.16667,77.8333 7.5,76.5C 6.41099,69.8833 6.24432,63.2166 7,56.5C 7.46858,50.5761 9.30192,45.2428 12.5,40.5 Z"/></g>
<g><path style="opacity:1" fill="#166ae4" d="M 50.5,54.5 C 56.8302,53.6662 59.6635,56.3329 59,62.5C 55.952,66.0095 52.6187,66.3428 49,63.5C 48.068,60.1769 48.568,57.1769 50.5,54.5 Z"/></g>
<g><path style="opacity:1" fill="#1b7ef8" d="M 74.5,54.5 C 83.4867,53.665 85.8201,57.165 81.5,65C 72.4297,66.1356 70.0963,62.6356 74.5,54.5 Z"/></g>
<g><path style="opacity:1" fill="#b4defa" d="M 44.5,53.5 C 45.272,58.9818 46.9386,64.1485 49.5,69C 48.944,69.3826 48.6107,69.8826 48.5,70.5C 44.4819,68.7914 42.1485,65.7914 41.5,61.5C 41.6741,59.139 42.0074,56.8056 42.5,54.5C 43.1667,54.1667 43.8333,53.8333 44.5,53.5 Z"/></g>
<g><path style="opacity:0.851" fill="#1472dc" d="M 127.5,59.5 C 127.5,64.8333 127.5,70.1667 127.5,75.5C 126.007,81.4888 123.674,87.1555 120.5,92.5C 119.775,88.9686 118.442,88.302 116.5,90.5C 116.631,89.7611 116.464,89.0944 116,88.5C 114.506,89.7472 113.006,89.7472 111.5,88.5C 113.5,87.8333 115.5,87.1667 117.5,86.5C 119.721,81.3943 121.055,76.061 121.5,70.5C 122.323,67.023 122.823,63.3563 123,59.5C 124.299,59.9662 125.799,59.9662 127.5,59.5 Z"/></g>
<g><path style="opacity:1" fill="#1459e5" d="M 41.5,61.5 C 42.1485,65.7914 44.4819,68.7914 48.5,70.5C 50.78,72.2227 53.4467,72.8893 56.5,72.5C 56.2525,73.8763 54.9192,74.7097 52.5,75C 55.4281,76.2598 57.2614,78.4265 58,81.5C 58.3333,80.8333 58.6667,80.1667 59,79.5C 59.1773,83.3563 59.6773,87.023 60.5,90.5C 62.1765,89.8166 62.8432,88.4832 62.5,86.5C 69.1667,85.8333 69.1667,85.1667 62.5,84.5C 62.5,83.5 62.5,82.5 62.5,81.5C 64.9496,81.702 67.283,81.3686 69.5,80.5C 69.5,81.1667 69.5,81.8333 69.5,82.5C 69.5,85.5 69.5,88.5 69.5,91.5C 66.7419,94.9676 64.2419,98.6343 62,102.5C 59.3156,106.863 57.4822,111.53 56.5,116.5C 56.1667,117.833 55.8333,119.167 55.5,120.5C 54.0783,120.291 52.745,119.791 51.5,119C 53.8477,116.646 54.5144,113.979 53.5,111C 54.432,107.915 55.0986,104.748 55.5,101.5C 54.5,101.5 53.5,101.5 52.5,101.5C 52.719,102.675 52.3857,103.675 51.5,104.5C 50.5094,101.756 50.8427,99.0893 52.5,96.5C 53.4287,97.6888 53.762,99.0222 53.5,100.5C 55.46,99.8617 57.2933,99.8617 59,100.5C 58.6667,102.5 58.3333,104.5 58,106.5C 59.5442,104.532 60.7109,102.365 61.5,100C 59.5516,99.0168 57.7183,97.8502 56,96.5C 55.1107,97.8882 54.6107,97.7215 54.5,96C 54.6465,94.2729 55.3131,94.1062 56.5,95.5C 59.0278,94.5022 59.0278,93.6689 56.5,93C 56.9574,92.586 57.2907,92.086 57.5,91.5C 56.8909,87.3653 56.2243,83.3653 55.5,79.5C 54.8333,78.1667 54.1667,78.1667 53.5,79.5C 52.8333,80.8333 52.1667,82.1667 51.5,83.5C 49.6365,82.2072 47.6365,82.2072 45.5,83.5C 46.7287,84.2811 48.062,84.7811 49.5,85C 45.0873,85.4461 43.7539,87.6127 45.5,91.5C 46.209,92.404 47.209,92.7373 48.5,92.5C 48.6567,93.8734 48.49,95.2068 48,96.5C 47.082,94.3676 45.7487,93.701 44,94.5C 41.6857,93.2668 39.5191,91.9334 37.5,90.5C 37.6633,88.1432 37.4966,85.8098 37,83.5C 36.586,83.0426 36.086,82.7093 35.5,82.5C 34.3483,85.1062 34.1816,87.7728 35,90.5C 35.3826,91.056 35.8826,91.3893 36.5,91.5C 37.6785,93.5065 37.1785,93.8398 35,92.5C 33.955,93.3734 33.1217,94.3734 32.5,95.5C 31.5084,95.6716 30.8417,95.3382 30.5,94.5C 31.4584,94.0472 32.2917,93.3805 33,92.5C 33.4983,89.1832 33.665,85.8499 33.5,82.5C 32.1667,82.5 30.8333,82.5 29.5,82.5C 28.7375,81.7321 27.7375,81.2321 26.5,81C 28.3325,80.2515 29.9991,79.2515 31.5,78C 30.8333,77.6667 30.1667,77.3333 29.5,77C 31.6785,76.5581 32.3452,75.5581 31.5,74C 25.5,73.6667 19.5,73.3333 13.5,73C 18.6835,72.8261 23.6835,72.3261 28.5,71.5C 34.6256,70.3613 38.9589,67.028 41.5,61.5 Z"/></g>
<g><path style="opacity:1" fill="#2172f7" d="M 90.5,56.5 C 91.4682,58.6074 91.8016,60.9407 91.5,63.5C 94.1457,63.1084 96.6457,63.1084 99,63.5C 99.6891,62.6433 100.522,61.9767 101.5,61.5C 105.082,62.2318 107.915,60.8985 110,57.5C 110.284,64.8473 110.284,72.1806 110,79.5C 111.726,80.5762 113.559,80.7429 115.5,80C 116.147,78.3905 116.98,76.8905 118,75.5C 118.464,76.0944 118.631,76.7611 118.5,77.5C 118.162,79.854 117.662,82.1873 117,84.5C 116.044,83.1059 114.711,82.4393 113,82.5C 109.261,82.9049 107.927,84.9049 109,88.5C 110.045,89.3734 110.878,90.3734 111.5,91.5C 110.99,95.6797 108.656,97.6797 104.5,97.5C 104.5,98.5 104.5,99.5 104.5,100.5C 101.172,99.3537 97.8385,99.1871 94.5,100C 97.67,95.5979 101.67,92.7646 106.5,91.5C 106.804,90.8501 107.137,90.1835 107.5,89.5C 106.284,88.9041 104.951,88.7374 103.5,89C 102.62,87.6439 102.286,86.1439 102.5,84.5C 104.288,84.7852 105.955,84.4519 107.5,83.5C 105.579,82.359 103.579,82.1923 101.5,83C 100.748,83.6708 100.414,84.5041 100.5,85.5C 99.8333,84.8333 99.1667,84.1667 98.5,83.5C 96.3926,82.5318 94.0593,82.1984 91.5,82.5C 91.5,85.1667 91.5,87.8333 91.5,90.5C 90.9297,87.5618 90.2631,85.2285 89.5,83.5C 87.0394,82.0265 84.706,82.1932 82.5,84C 84.1667,84.3333 85.8333,84.6667 87.5,85C 85.3474,85.0995 83.6808,85.9328 82.5,87.5C 81.8333,86.1667 81.1667,84.8333 80.5,83.5C 78.3981,82.8917 76.2314,82.5584 74,82.5C 73.5026,85.146 73.3359,87.8127 73.5,90.5C 72.8333,87.8333 72.1667,85.1667 71.5,82.5C 70.8333,82.5 70.1667,82.5 69.5,82.5C 69.5,81.8333 69.5,81.1667 69.5,80.5C 71.7049,80.1541 71.8716,79.4874 70,78.5C 66.8948,79.3672 63.7281,79.7006 60.5,79.5C 60.5,83.1667 60.5,86.8333 60.5,90.5C 59.6773,87.023 59.1773,83.3563 59,79.5C 58.6667,80.1667 58.3333,80.8333 58,81.5C 57.2614,78.4265 55.4281,76.2598 52.5,75C 54.9192,74.7097 56.2525,73.8763 56.5,72.5C 60.1604,70.8396 62.8271,68.1729 64.5,64.5C 65.1667,66.8333 65.8333,69.1667 66.5,71.5C 68.7766,74.2052 70.7766,73.8719 72.5,70.5C 73.8524,71.8962 75.5191,72.5629 77.5,72.5C 86.5498,71.0925 90.8831,65.7592 90.5,56.5 Z"/></g>
<g><path style="opacity:1" fill="#fefffe" d="M 23.5,80.5 C 22.8333,80.5 22.1667,80.5 21.5,80.5C 22.1667,77.8333 22.8333,77.8333 23.5,80.5 Z"/></g>
<g><path style="opacity:1" fill="#e9eff9" d="M 9.5,78.5 C 17.3825,77.546 20.5492,80.8794 19,88.5C 18.1841,89.8228 17.0174,90.4894 15.5,90.5C 13.5,90.5 11.5,90.5 9.5,90.5C 9.5,87.1667 9.5,83.8333 9.5,80.5C 9.5,79.8333 9.5,79.1667 9.5,78.5 Z"/></g>
<g><path style="opacity:1" fill="#ccdcf5" d="M 34.5,78.5 C 35.675,78.281 36.675,78.6143 37.5,79.5C 35.9483,80.7979 34.9483,80.4646 34.5,78.5 Z"/></g>
<g><path style="opacity:1" fill="#f6f8fc" d="M 55.5,79.5 C 54.8333,94.1667 54.1667,94.1667 53.5,79.5C 54.1667,78.1667 54.8333,78.1667 55.5,79.5 Z"/></g>
<g><path style="opacity:1" fill="#dfe7f8" d="M 69.5,80.5 C 67.283,81.3686 64.9496,81.702 62.5,81.5C 62.5,82.5 62.5,83.5 62.5,84.5C 69.1667,85.1667 69.1667,85.8333 62.5,86.5C 62.8432,88.4832 62.1765,89.8166 60.5,90.5C 60.5,86.8333 60.5,83.1667 60.5,79.5C 63.7281,79.7006 66.8948,79.3672 70,78.5C 71.8716,79.4874 71.7049,80.1541 69.5,80.5 Z"/></g>
<g><path style="opacity:1" fill="#edf2fb" d="M 39.5,80.5 C 41.0783,81.0656 42.4116,82.0656 43.5,83.5C 40.8333,85.8333 40.8333,88.1667 43.5,90.5C 42.3493,91.731 41.1827,91.731 40,90.5C 39.0284,87.0867 38.8617,83.7534 39.5,80.5 Z"/></g>
<g><path style="opacity:1" fill="#c3d2f4" d="M 37.5,90.5 C 36.8333,90.5 36.5,90.8333 36.5,91.5C 35.8826,91.3893 35.3826,91.056 35,90.5C 34.1816,87.7728 34.3483,85.1062 35.5,82.5C 36.086,82.7093 36.586,83.0426 37,83.5C 37.4966,85.8098 37.6633,88.1432 37.5,90.5 Z"/></g>
<g><path style="opacity:1" fill="#dde7fa" d="M 98.5,83.5 C 99.0102,86.3878 98.3435,88.7211 96.5,90.5C 96.5,88.5 96.5,86.5 96.5,84.5C 95.5,84.5 94.5,84.5 93.5,84.5C 93.8076,86.924 93.4742,89.2573 92.5,91.5C 91.8933,91.3764 91.56,91.0431 91.5,90.5C 91.5,87.8333 91.5,85.1667 91.5,82.5C 94.0593,82.1984 96.3926,82.5318 98.5,83.5 Z"/></g>
<g><path style="opacity:1" fill="#dee8f9" d="M 106.5,91.5 C 103.687,91.9754 101.687,90.9754 100.5,88.5C 100.5,87.5 100.5,86.5 100.5,85.5C 100.414,84.5041 100.748,83.6708 101.5,83C 103.579,82.1923 105.579,82.359 107.5,83.5C 105.955,84.4519 104.288,84.7852 102.5,84.5C 102.286,86.1439 102.62,87.6439 103.5,89C 104.951,88.7374 106.284,88.9041 107.5,89.5C 107.137,90.1835 106.804,90.8501 106.5,91.5 Z"/></g>
<g><path style="opacity:1" fill="#dee7f9" d="M 29.5,82.5 C 30.8333,82.5 32.1667,82.5 33.5,82.5C 33.665,85.8499 33.4983,89.1832 33,92.5C 32.2917,93.3805 31.4584,94.0472 30.5,94.5C 28.5714,94.7692 26.9047,94.2692 25.5,93C 27.9412,92.964 29.9412,92.1307 31.5,90.5C 29.2447,91.0514 27.0781,90.3847 25,88.5C 24.3603,86.735 24.5269,85.0683 25.5,83.5C 26.7079,82.7659 28.0413,82.4326 29.5,82.5 Z"/></g>
<g><path style="opacity:1" fill="#dbe4f8" d="M 51.5,83.5 C 51.6641,86.1873 51.4974,88.854 51,91.5C 49.2933,90.8617 47.46,90.8617 45.5,91.5C 43.7539,87.6127 45.0873,85.4461 49.5,85C 48.062,84.7811 46.7287,84.2811 45.5,83.5C 47.6365,82.2072 49.6365,82.2072 51.5,83.5 Z"/></g>
<g><path style="opacity:1" fill="#5f8fda" d="M 14.5,81.5 C 12.6565,83.2789 11.9898,85.6122 12.5,88.5C 13.5,88.5 14.5,88.5 15.5,88.5C 14.4324,89.4345 13.099,89.7678 11.5,89.5C 11.5,86.5 11.5,83.5 11.5,80.5C 12.791,80.2627 13.791,80.596 14.5,81.5 Z"/></g>
<g><path style="opacity:1" fill="#114ed0" d="M 14.5,81.5 C 16.7224,81.5587 17.7224,82.7253 17.5,85C 17.6134,86.6991 16.9468,87.8658 15.5,88.5C 14.5,88.5 13.5,88.5 12.5,88.5C 11.9898,85.6122 12.6565,83.2789 14.5,81.5 Z"/></g>
<g><path style="opacity:1" fill="#2546d7" d="M 27.5,84.5 C 30.1662,84.0658 31.3329,85.0658 31,87.5C 27.4034,89.0661 26.2368,88.0661 27.5,84.5 Z"/></g>
<g><path style="opacity:1" fill="#cedbf7" d="M 69.5,82.5 C 70.1667,82.5 70.8333,82.5 71.5,82.5C 72.0545,86.0122 71.3878,89.0122 69.5,91.5C 69.5,88.5 69.5,85.5 69.5,82.5 Z"/></g>
<g><path style="opacity:1" fill="#5e93eb" d="M 98.5,83.5 C 99.1667,84.1667 99.8333,84.8333 100.5,85.5C 100.5,86.5 100.5,87.5 100.5,88.5C 99.596,89.209 99.2627,90.209 99.5,91.5C 98.209,91.7373 97.209,91.404 96.5,90.5C 98.3435,88.7211 99.0102,86.3878 98.5,83.5 Z"/></g>
<g><path style="opacity:1" fill="#4b64dd" d="M 46.5,87.5 C 49.7973,87.3287 50.1306,87.9954 47.5,89.5C 46.7025,89.0431 46.3691,88.3764 46.5,87.5 Z"/></g>
<g><path style="opacity:1" fill="#1257d6" d="M 9.5,78.5 C 13.1082,77.5301 16.6082,77.5301 20,78.5C 20.2784,79.4158 20.7784,80.0825 21.5,80.5C 22.1667,80.5 22.8333,80.5 23.5,80.5C 24.4013,81.2905 25.0679,82.2905 25.5,83.5C 24.5269,85.0683 24.3603,86.735 25,88.5C 27.0781,90.3847 29.2447,91.0514 31.5,90.5C 29.9412,92.1307 27.9412,92.964 25.5,93C 26.9047,94.2692 28.5714,94.7692 30.5,94.5C 30.8417,95.3382 31.5084,95.6716 32.5,95.5C 33.7736,96.1894 33.7736,97.0228 32.5,98C 33.0253,98.6924 33.6919,99.1924 34.5,99.5C 35.2811,98.2713 35.7811,96.938 36,95.5C 36.7369,99.237 38.9035,101.737 42.5,103C 41.2624,102.923 40.2624,103.089 39.5,103.5C 42.1331,107.332 45.4665,110.499 49.5,113C 49.1667,114.667 48.8333,116.333 48.5,118C 49.1667,118.333 49.8333,118.667 50.5,119C 49.2625,119.232 48.2625,119.732 47.5,120.5C 41.9325,118.717 36.5992,116.383 31.5,113.5C 31.6107,112.883 31.944,112.383 32.5,112C 24.7836,107.284 18.7836,100.95 14.5,93C 12.8333,92.6667 11.1667,92.3333 9.5,92C 11.7078,91.8091 13.7078,91.3091 15.5,90.5C 17.0174,90.4894 18.1841,89.8228 19,88.5C 20.5492,80.8794 17.3825,77.546 9.5,78.5 Z"/></g>
<g><path style="opacity:1" fill="#f7f8fb" d="M 21.5,82.5 C 22.7479,83.3339 23.4146,84.6672 23.5,86.5C 23.1667,87.8333 22.8333,89.1667 22.5,90.5C 21.52,87.9135 21.1866,85.2469 21.5,82.5 Z"/></g>
<g><path style="opacity:1" fill="#1058dd" d="M 53.5,79.5 C 54.1667,94.1667 54.8333,94.1667 55.5,79.5C 56.2243,83.3653 56.8909,87.3653 57.5,91.5C 57.2907,92.086 56.9574,92.586 56.5,93C 59.0278,93.6689 59.0278,94.5022 56.5,95.5C 55.3131,94.1062 54.6465,94.2729 54.5,96C 54.6107,97.7215 55.1107,97.8882 56,96.5C 57.7183,97.8502 59.5516,99.0168 61.5,100C 60.7109,102.365 59.5442,104.532 58,106.5C 58.3333,104.5 58.6667,102.5 59,100.5C 57.2933,99.8617 55.46,99.8617 53.5,100.5C 53.762,99.0222 53.4287,97.6888 52.5,96.5C 50.8427,99.0893 50.5094,101.756 51.5,104.5C 52.3857,103.675 52.719,102.675 52.5,101.5C 53.5,101.5 54.5,101.5 55.5,101.5C 55.0986,104.748 54.432,107.915 53.5,111C 54.5144,113.979 53.8477,116.646 51.5,119C 52.745,119.791 54.0783,120.291 55.5,120.5C 64.2328,120.591 72.8994,119.924 81.5,118.5C 72.9507,121.947 63.9507,123.281 54.5,122.5C 52.4855,121.076 50.1522,120.41 47.5,120.5C 48.2625,119.732 49.2625,119.232 50.5,119C 49.8333,118.667 49.1667,118.333 48.5,118C 48.8333,116.333 49.1667,114.667 49.5,113C 45.4665,110.499 42.1331,107.332 39.5,103.5C 40.2624,103.089 41.2624,102.923 42.5,103C 38.9035,101.737 36.7369,99.237 36,95.5C 35.7811,96.938 35.2811,98.2713 34.5,99.5C 33.6919,99.1924 33.0253,98.6924 32.5,98C 33.7736,97.0228 33.7736,96.1894 32.5,95.5C 33.1217,94.3734 33.955,93.3734 35,92.5C 37.1785,93.8398 37.6785,93.5065 36.5,91.5C 36.5,90.8333 36.8333,90.5 37.5,90.5C 39.5191,91.9334 41.6857,93.2668 44,94.5C 45.7487,93.701 47.082,94.3676 48,96.5C 48.49,95.2068 48.6567,93.8734 48.5,92.5C 47.209,92.7373 46.209,92.404 45.5,91.5C 47.46,90.8617 49.2933,90.8617 51,91.5C 51.4974,88.854 51.6641,86.1873 51.5,83.5C 52.1667,82.1667 52.8333,80.8333 53.5,79.5 Z"/></g>
<g><path style="opacity:1" fill="#155af5" d="M 71.5,82.5 C 72.1667,85.1667 72.8333,87.8333 73.5,90.5C 75.3079,89.0821 75.9746,87.0821 75.5,84.5C 76.5,84.5 77.5,84.5 78.5,84.5C 78.1924,86.924 78.5258,89.2573 79.5,91.5C 80.1067,91.3764 80.44,91.0431 80.5,90.5C 81.1667,90.1667 81.8333,89.8333 82.5,89.5C 82.8656,90.6946 83.699,91.3613 85,91.5C 86.4397,90.8524 87.9397,90.5191 89.5,90.5C 89.5,88.1667 89.5,85.8333 89.5,83.5C 90.2631,85.2285 90.9297,87.5618 91.5,90.5C 91.56,91.0431 91.8933,91.3764 92.5,91.5C 93.4742,89.2573 93.8076,86.924 93.5,84.5C 94.5,84.5 95.5,84.5 96.5,84.5C 96.5,86.5 96.5,88.5 96.5,90.5C 97.209,91.404 98.209,91.7373 99.5,91.5C 99.2627,90.209 99.596,89.209 100.5,88.5C 101.687,90.9754 103.687,91.9754 106.5,91.5C 101.67,92.7646 97.67,95.5979 94.5,100C 97.8385,99.1871 101.172,99.3537 104.5,100.5C 104.5,99.5 104.5,98.5 104.5,97.5C 108.656,97.6797 110.99,95.6797 111.5,91.5C 112.239,91.369 112.906,91.5357 113.5,92C 107.288,102.379 98.9544,110.546 88.5,116.5C 88.6495,115.448 88.4828,114.448 88,113.5C 86.2663,112.751 84.433,112.251 82.5,112C 83.1667,111.667 83.8333,111.333 84.5,111C 80.8729,109.779 80.8729,108.112 84.5,106C 81.549,105.91 78.549,105.077 75.5,103.5C 74.5581,103.608 73.7247,103.941 73,104.5C 69.6334,102.037 66.1334,102.037 62.5,104.5C 60.4541,108.592 58.4541,112.592 56.5,116.5C 57.4822,111.53 59.3156,106.863 62,102.5C 64.2419,98.6343 66.7419,94.9676 69.5,91.5C 71.3878,89.0122 72.0545,86.0122 71.5,82.5 Z"/></g>
<g><path style="opacity:1" fill="#e2ebfa" d="M 89.5,83.5 C 89.5,85.8333 89.5,88.1667 89.5,90.5C 87.9397,90.5191 86.4397,90.8524 85,91.5C 83.699,91.3613 82.8656,90.6946 82.5,89.5C 82.5,88.8333 82.5,88.1667 82.5,87.5C 83.6808,85.9328 85.3474,85.0995 87.5,85C 85.8333,84.6667 84.1667,84.3333 82.5,84C 84.706,82.1932 87.0394,82.0265 89.5,83.5 Z"/></g>
<g><path style="opacity:1" fill="#2458e8" d="M 84.5,87.5 C 87.7973,87.3287 88.1306,87.9954 85.5,89.5C 84.7025,89.0431 84.3691,88.3764 84.5,87.5 Z"/></g>
<g><path style="opacity:1" fill="#649aec" d="M 80.5,83.5 C 81.1667,84.8333 81.8333,86.1667 82.5,87.5C 82.5,88.1667 82.5,88.8333 82.5,89.5C 81.8333,89.8333 81.1667,90.1667 80.5,90.5C 80.5,88.1667 80.5,85.8333 80.5,83.5 Z"/></g>
<g><path style="opacity:1" fill="#e0e9fa" d="M 80.5,83.5 C 80.5,85.8333 80.5,88.1667 80.5,90.5C 80.44,91.0431 80.1067,91.3764 79.5,91.5C 78.5258,89.2573 78.1924,86.924 78.5,84.5C 77.5,84.5 76.5,84.5 75.5,84.5C 75.9746,87.0821 75.3079,89.0821 73.5,90.5C 73.3359,87.8127 73.5026,85.146 74,82.5C 76.2314,82.5584 78.3981,82.8917 80.5,83.5 Z"/></g>
<g><path style="opacity:0.829" fill="#1460d6" d="M 7.5,76.5 C 8.16667,77.8333 8.83333,79.1667 9.5,80.5C 9.5,83.8333 9.5,87.1667 9.5,90.5C 11.5,90.5 13.5,90.5 15.5,90.5C 13.7078,91.3091 11.7078,91.8091 9.5,92C 11.1667,92.3333 12.8333,92.6667 14.5,93C 18.7836,100.95 24.7836,107.284 32.5,112C 31.944,112.383 31.6107,112.883 31.5,113.5C 30.2617,113.81 30.2617,114.31 31.5,115C 38.6018,119.312 46.2684,122.146 54.5,123.5C 82.3821,125.565 103.049,114.565 116.5,90.5C 118.442,88.302 119.775,88.9686 120.5,92.5C 110.968,111.11 95.9683,122.777 75.5,127.5C 67.5,127.5 59.5,127.5 51.5,127.5C 29.8752,122.209 14.2085,109.542 4.5,89.5C 5.22984,85.1976 6.22984,80.8643 7.5,76.5 Z"/></g>
<g><path style="opacity:1" fill="#84abe7" d="M 31.5,113.5 C 36.5992,116.383 41.9325,118.717 47.5,120.5C 50.1522,120.41 52.4855,121.076 54.5,122.5C 54.5,122.833 54.5,123.167 54.5,123.5C 46.2684,122.146 38.6018,119.312 31.5,115C 30.2617,114.31 30.2617,113.81 31.5,113.5 Z"/></g>
<g><path style="opacity:1" fill="#1454f7" d="M 88.5,116.5 C 86.2543,117.455 83.921,118.122 81.5,118.5C 72.8994,119.924 64.2328,120.591 55.5,120.5C 55.8333,119.167 56.1667,117.833 56.5,116.5C 58.4541,112.592 60.4541,108.592 62.5,104.5C 66.1334,102.037 69.6334,102.037 73,104.5C 73.7247,103.941 74.5581,103.608 75.5,103.5C 78.549,105.077 81.549,105.91 84.5,106C 80.8729,108.112 80.8729,109.779 84.5,111C 83.8333,111.333 83.1667,111.667 82.5,112C 84.433,112.251 86.2663,112.751 88,113.5C 88.4828,114.448 88.6495,115.448 88.5,116.5 Z"/></g>
</svg>
