<svg xmlns="http://www.w3.org/2000/svg" viewBox="0 0 600 600" fill="none">
    <path d="M300 600C465.685 600 600 465.685 600 300C600 134.315 465.685 0 300 0C134.315 0 0 134.315 0 300C0 465.685 134.315 600 300 600Z" fill="white"/>
    <path d="M300 600C465.685 600 600 465.685 600 300C600 134.315 465.685 0 300 0C134.315 0 0 134.315 0 300C0 465.685 134.315 600 300 600Z" fill="url(#gradient)"/>
    <g transform="matrix(19.35,0,0,19.35,0,0)">
        <path fill="#FFF" d="M12.738 13.188c0-.617-.5-1.117-1.116-1.117h-1.537a6.497 6.497 0 0 1 11.054-.746 1.117 1.117 0 0 0 1.82-1.294 8.75 8.75 0 0 0-7.118-3.674 8.73 8.73 0 0 0-8.192 5.714H6.261a1.117 1.117 0 0 0 0 2.233h5.361c.616 0 1.116-.5 1.116-1.116M25.353 15.733h-5.361a1.117 1.117 0 0 0 0 2.233h1.537a6.497 6.497 0 0 1-11.054.746 1.117 1.117 0 0 0-1.82 1.294 8.75 8.75 0 0 0 7.117 3.674 8.73 8.73 0 0 0 8.193-5.714h1.388a1.117 1.117 0 0 0 0-2.233"/>    
    </g>
    <defs>
        <radialGradient id="gradient" cx="0" cy="0" r="1" gradientUnits="userSpaceOnUse" gradientTransform="translate(196 143.5) rotate(54.1675) scale(497.082)">
            <stop stop-color="#A101F844"/>
            <stop stop-color="#A101F8" offset="1"/>
        </radialGradient>
    </defs>
</svg>