<svg width="100" height="100" viewBox="0 0 100 100" fill="none" xmlns="http://www.w3.org/2000/svg">
<rect width="100" height="100" rx="20" fill="#4141FC"/>
<path d="M49.925 83C44.5155 83 39.1016 83 33.692 83C31.75 83 31.2897 82.6602 30.9346 80.7054C30.1982 76.6368 29.5318 72.5594 28.8217 68.4865C27.7871 62.5513 26.735 56.6206 25.7092 50.6854C24.85 45.7211 24.0215 40.7523 23.1666 35.7836C22.2811 30.7045 21.3825 25.6254 20.5013 20.5463C20.4093 20.0036 20.3523 19.4475 20.3523 18.9004C20.3611 17.7707 20.9441 17.0558 22.0488 17.0426C25.6172 16.9941 29.1855 17.0117 32.7539 17.0338C33.9419 17.0426 34.3364 17.9604 34.5468 18.9092C34.9107 20.5596 35.2088 22.2276 35.5025 23.8956C36.2477 28.123 36.9754 32.3504 37.7119 36.5779C38.8911 43.3249 40.0616 50.072 41.254 56.8191C41.6091 58.8358 41.9861 60.848 42.4025 62.8514C43.1609 66.5051 46.1462 68.9939 49.833 69.0954C53.3663 69.1925 56.6146 66.8184 57.5352 63.3235C58.4207 59.9698 58.8196 56.5191 59.4377 53.108C60.5205 47.1023 61.5726 41.0921 62.6247 35.0819C63.462 30.272 64.2774 25.4621 65.1015 20.6522C65.1366 20.4581 65.1497 20.2595 65.1848 20.0653C65.6583 17.3029 66.009 17.0029 68.7576 17.0029C71.6202 17.0029 74.4827 16.9941 77.3453 17.0073C79.1295 17.0161 79.8616 17.7398 79.5942 19.4784C78.9279 23.7941 78.1739 28.101 77.4374 32.4078C76.4204 38.343 75.3902 44.2781 74.36 50.2133C73.492 55.2173 72.6065 60.2214 71.7385 65.2254C70.8749 70.1898 70.0201 75.1541 69.1609 80.1185C69.1127 80.3921 69.0688 80.6612 69.0118 80.9304C68.6655 82.5367 68.1395 82.9868 66.5175 82.9868C60.9896 82.9956 55.4617 82.9868 49.9294 82.9868L49.925 83Z" fill="white"/>
</svg>
