<svg width="32" height="32" viewBox="0 0 32 32" fill="none" xmlns="http://www.w3.org/2000/svg">
<g clip-path="url(#clip0_25_3421)">
<path d="M31.3587 20.5789C30.53 23.4364 28.9198 26.0056 26.7096 27.9972C24.4994 29.9889 21.777 31.3238 18.849 31.8517V27.2987C19.9287 26.8874 20.9004 26.2352 21.69 25.3917C22.1287 24.9211 22.5036 24.3949 22.8052 23.8267C23.3794 22.7442 23.6766 21.5363 23.6702 20.3109C23.6702 16.2859 20.7645 14.6767 18.0402 13.4832L16.6607 12.8734C15.1857 12.2119 14.0575 11.6234 14.0575 10.6162C14.0575 9.22394 15.2725 8.47569 16.4185 8.47569C17.638 8.47569 18.3297 8.92569 19.0605 10.1924L19.627 11.1739L23.2722 8.83469L22.7972 7.95269C21.9613 6.35871 20.5496 5.14297 18.8492 4.55269V0.37669C19.2037 0.43719 19.554 0.51494 19.9087 0.60594C19.9432 0.61469 19.9822 0.62319 20.0212 0.63094C20.0608 0.63846 20.0998 0.648565 20.138 0.66119C20.1498 0.662557 20.1614 0.665499 20.1725 0.66994C20.2677 0.69494 20.367 0.71744 20.4665 0.74769C22.4839 1.33455 24.3659 2.31303 26.0051 3.62728C27.6443 4.94152 29.0086 6.56578 30.0201 8.40731C31.0315 10.2488 31.6703 12.2716 31.9 14.36C32.1297 16.4484 31.9458 18.5616 31.3587 20.5789Z" fill="#745DDF"/>
<path d="M19.1947 20.5317C19.1947 22.3652 17.5385 23.498 16.0077 23.498C14.17 23.498 13.1193 21.9802 12.916 20.5705L12.743 19.3467L8.3325 20.5887L8.5325 21.5747C9.16375 24.6837 11.287 26.9195 14.1713 27.594V32.0002C13.3888 31.9086 12.6141 31.7597 11.8535 31.5547C11.7455 31.5297 11.6415 31.4985 11.5335 31.4682C8.20901 30.5002 5.28798 28.4804 3.20852 25.7118C1.12906 22.9432 0.0032714 19.575 0 16.1125L0 0.739956C0.000198486 0.572599 0.0667687 0.412153 0.185108 0.293814C0.303447 0.175474 0.463893 0.108904 0.63125 0.108706H14.1702V4.51071C12.5859 4.96944 11.236 6.0147 10.3953 7.43371C9.85604 8.37744 9.57558 9.44682 9.58225 10.5337V10.6202C9.625 14.2097 12.2632 15.7102 14.754 16.8387L16 17.3792L16.1038 17.4267C18.0793 18.3307 19.1947 18.923 19.1947 20.5317Z" fill="#2EB6EA"/>
<path d="M23.6702 20.311C23.6766 21.5362 23.3795 22.744 22.8055 23.8265C22.5037 24.3948 22.1286 24.9211 21.6897 25.3917C20.9001 26.235 19.9284 26.8871 18.8487 27.2982L18.8507 31.8732L17.572 31.9862C17.572 31.9862 14.8297 32.0685 14.1767 31.9862L14.17 27.593C11.286 26.9182 9.16273 24.6827 8.53148 21.5732L8.33148 20.5872L12.742 19.3462L12.915 20.57C13.1192 21.9802 14.17 23.4982 16.0077 23.4982C17.5385 23.4982 19.1947 22.3652 19.1947 20.532C19.1947 18.9235 18.079 18.332 16.103 17.4272L15.9992 17.3797L14.754 16.8392C12.2632 15.7102 9.62548 14.2097 9.58223 10.6207V10.5342C9.57557 9.44732 9.85602 8.37793 10.3952 7.4342C11.2358 6.01506 12.5857 4.96962 14.17 4.5107V0.104205C17.054 0.0797048 17.2747 0.0967048 18.8487 0.373205V4.55395C20.5491 5.14423 21.9608 6.35997 22.7967 7.95395L23.2717 8.83596L19.6272 11.1732L19.0607 10.1917C18.33 8.9247 17.638 8.47496 16.4187 8.47496C15.2727 8.47496 14.0577 9.22296 14.0577 10.6155C14.0577 11.623 15.1862 12.211 16.661 12.8727L18.04 13.4832C20.765 14.6767 23.6702 16.2852 23.6702 20.311Z" fill="white"/>
</g>
<defs>
<clipPath id="clip0_25_3421">
<rect width="32" height="32" fill="white"/>
</clipPath>
</defs>
</svg>
