<svg width="32" height="32" viewBox="0 0 32 32" fill="none" xmlns="http://www.w3.org/2000/svg">
<path d="M0 16C0 7.16344 7.16344 0 16 0C24.8366 0 32 7.16344 32 16C32 24.8366 24.8366 32 16 32C7.16344 32 0 24.8366 0 16Z" fill="white"/>
<path d="M25 16C25 20.9706 20.9706 25 16 25C11.0294 25 7 20.9706 7 16C7 11.0294 11.0294 7 16 7C20.9706 7 25 11.0294 25 16Z" fill="white"/>
<path fill-rule="evenodd" clip-rule="evenodd" d="M21.6463 14.0514C21.5422 12.945 20.6054 12.5738 19.4206 12.4607V11.5H18.5046V12.4324H17.7725V11.5H16.8635V12.4713H15.0923V13.4699C15.0923 13.4699 15.6821 13.4575 15.6717 13.4699C15.9253 13.4415 16.1554 13.6228 16.1922 13.8799V18.0794C16.1869 18.1676 16.1469 18.2498 16.0811 18.3074C16.0166 18.3661 15.9314 18.3955 15.8452 18.3887C15.8574 18.3993 15.0923 18.3887 15.0923 18.3887V19.504H16.8462V20.5H17.7621V19.5269H18.4942V20.4929H19.4119V19.5146C20.9593 19.4191 22.0384 19.0303 22.1737 17.5545C22.283 16.3667 21.7348 15.8365 20.8587 15.6226C21.3913 15.3558 21.7209 14.8609 21.6463 14.0514ZM20.3626 17.3708C20.3626 18.4352 18.7193 18.4107 17.9693 18.3996C17.9024 18.3986 17.8425 18.3977 17.7916 18.3977V16.3404C17.8552 16.3406 17.9328 16.3388 18.0207 16.3368C18.7916 16.3195 20.3626 16.2841 20.3626 17.3708ZM17.9493 15.4057C18.5777 15.4171 19.9375 15.4417 19.9375 14.4723C19.9375 13.4783 18.6201 13.5132 17.9794 13.5302C17.9081 13.5321 17.8451 13.5338 17.7933 13.5338V15.4037C17.8377 15.4037 17.8903 15.4047 17.9493 15.4057Z" fill="black"/>
<path fill-rule="evenodd" clip-rule="evenodd" d="M13.1272 13.4127H11.4699V15.1002H9.8125V16.7877H11.4699V18.4752H13.1272V16.7877H14.7846V15.1002H13.1272V13.4127ZM13.1272 15.1002V16.7877H11.4699V15.1002H13.1272Z" fill="black"/>
<path fill-rule="evenodd" clip-rule="evenodd" d="M11.8545 3.38381C13.345 2.89389 14.938 2.66989 16.5159 2.73037C18.0941 2.79085 19.6577 3.13613 21.1127 3.74413C22.5681 4.35213 23.9149 5.22317 25.0673 6.29773C26.5914 7.71949 27.7748 9.49773 28.4845 11.4868C29.1946 13.4763 29.4311 15.6766 29.1572 17.7713C28.8836 19.866 28.0996 21.8555 26.9137 23.5662C25.7277 25.2769 24.1396 26.7086 22.2743 27.7006C20.409 28.6923 18.266 29.244 16.1537 29.276C14.0413 29.308 11.9594 28.8206 10.0948 27.8952C8.23047 26.9697 6.58311 25.6065 5.33223 23.9038C4.08135 22.2011 3.22695 20.1588 2.88775 18.075C2.54855 15.9908 2.72455 13.8648 3.37447 11.8814C3.86567 10.3819 4.62791 8.96429 5.60455 7.73581H4.12007V5.28205H9.93671V10.7137H7.48295V9.22957C6.68295 10.2356 6.05831 11.3969 5.65607 12.6257C5.12391 14.2513 4.98055 15.9953 5.25607 17.6971C5.59847 19.8139 6.58855 21.8651 8.06631 23.4459C9.83399 25.3364 12.2993 26.5544 14.8657 26.8209C17.4317 27.0875 20.0989 26.403 22.217 24.9288C24.3351 23.4545 25.9047 21.1905 26.5418 18.69C27.1789 16.1896 26.8836 13.4526 25.7348 11.1422C24.586 8.83181 22.5834 6.94861 20.1889 5.95917C17.7943 4.96941 15.0074 4.87405 12.6036 5.66381L11.8545 3.38381Z" fill="url(#paint0_linear_648_286327)"/>
<defs>
<linearGradient id="paint0_linear_648_286327" x1="3.99976" y1="8.00024" x2="27.5039" y2="23.4939" gradientUnits="userSpaceOnUse">
<stop stop-color="#0C0D1D"/>
<stop offset="0.260417" stop-color="#0433FF"/>
<stop offset="0.494792" stop-color="#9CADFF"/>
<stop offset="0.755208" stop-color="#7C5098"/>
<stop offset="0.755308" stop-color="#7C5098"/>
<stop offset="1" stop-color="#FF1100"/>
</linearGradient>
</defs>
</svg>
