<svg width="32" height="32" viewBox="0 0 32 32" fill="none" xmlns="http://www.w3.org/2000/svg">
<rect width="32" height="32" rx="16" fill="white"/>
<g clip-path="url(#clip0_402_227302)">
<path d="M16 24.9998C20.9705 24.9998 25 20.9703 25 15.9998C25 11.0292 20.9705 6.99976 16 6.99976C11.0294 6.99976 6.99997 11.0292 6.99997 15.9998C6.99997 20.9703 11.0294 24.9998 16 24.9998Z" fill="black"/>
<path d="M21.5384 15.4599V14.8286H20.2581V11.8459H18.7253L17.6606 14.8286H14.3395L13.2748 11.8459H11.7417V14.8286H10.4615V15.4599H11.7417V17.2755H10.4615V17.9068H11.7417V20.8459H12.8542V17.9068H14.4637L15.5127 20.8459H16.487L17.5361 17.9071H19.1456V20.8459H20.2581V17.9068H21.5384V17.2755H20.2581V15.4599H21.5384ZM19.1456 13.3974V14.8282H18.6349L19.1456 13.3974ZM17.4353 15.4599L16.7867 17.2755H15.2126L14.5646 15.4599H17.4353ZM12.8542 13.3974L13.3649 14.8282H12.8542V13.3974ZM12.8542 17.2751V15.4599H13.5903L14.2384 17.2755L12.8542 17.2751ZM15.9999 19.4805L15.438 17.9062H16.5614L15.9999 19.4805ZM19.1456 17.2751H17.7615L18.4096 15.4595H19.1456V17.2751Z" fill="white"/>
</g>
<path fill-rule="evenodd" clip-rule="evenodd" d="M11.8547 3.38356C13.3453 2.89364 14.9382 2.66964 16.5161 2.73012C18.0944 2.7906 19.6579 3.13588 21.1129 3.74388C22.5683 4.35188 23.9152 5.22292 25.0675 6.29748C26.5917 7.71924 27.775 9.49748 28.4848 11.4866C29.1949 13.476 29.4314 15.6764 29.1574 17.7711C28.8838 19.8658 28.0998 21.8552 26.9139 23.566C25.728 25.2767 24.1398 26.7084 22.2745 27.7004C20.4093 28.692 18.2662 29.2437 16.1539 29.2757C14.0416 29.3077 11.9597 28.8204 10.095 27.8949C8.23071 26.9695 6.58335 25.6063 5.33247 23.9036C4.08159 22.2008 3.22719 20.1586 2.88799 18.0748C2.54879 15.9906 2.72479 13.8645 3.37471 11.8812C3.86591 10.3816 4.62815 8.96404 5.60479 7.73556H4.12031V5.2818H9.93695V10.7135H7.48319V9.22932C6.68319 10.2354 6.05855 11.3967 5.65631 12.6255C5.12415 14.2511 4.98079 15.9951 5.25631 17.6968C5.59871 19.8136 6.58879 21.8648 8.06655 23.4456C9.83423 25.3362 12.2995 26.5541 14.8659 26.8207C17.432 27.0872 20.0992 26.4028 22.2173 24.9285C24.3354 23.4543 25.905 21.1903 26.5421 18.6898C27.1792 16.1893 26.8838 13.4524 25.735 11.142C24.5862 8.83156 22.5837 6.94836 20.1891 5.95892C17.7945 4.96916 15.0077 4.87381 12.6038 5.66356L11.8547 3.38356Z" fill="#0657F9"/>
<defs>
<clipPath id="clip0_402_227302">
<rect width="18" height="18" fill="white" transform="translate(7 7)"/>
</clipPath>
</defs>
</svg>
