<svg width="160" height="160" viewBox="0 0 160 160" fill="none" xmlns="http://www.w3.org/2000/svg">
<rect width="160" height="160" rx="80" fill="#DCF58C"/>
<path d="M79.9226 79.0131L89.7118 58.9686L92.9282 60.5535L81.9737 83.5348L112.507 73.4659L113.625 76.8688L90.0847 84.0009L125.932 81.8566L126.165 85.3994L85.4698 87.4038L108.031 94.3961L106.82 97.799L79.9226 89.0353L79.7828 112.902H76.1468L76.3332 88.4293L34.7526 90.8067L34.5195 87.264L69.1545 85.2129L54.2377 80.5048L55.4031 77.1019L76.3332 83.9077L76.5197 46.3359L80.0624 46.3825L79.9226 79.0131Z" fill="#030712"/>
<path d="M80.8922 45.5676L80.8898 46.3853L80.7652 75.411L89.3356 57.8619L94.0255 60.1725L83.5504 82.1456L112.25 72.6816L113.034 72.424L114.674 77.413L97.0278 82.7579L126.703 80.9838L126.757 81.8014L127.044 86.1816L90.1746 87.9972L109.099 93.8619L107.33 98.8319L80.7426 90.1689L80.605 113.726H75.3182L75.5033 89.3026L33.9851 91.676L33.6979 87.3172L33.6445 86.4889L64.6461 84.6531L53.1861 81.036L54.8878 76.0661L75.5152 82.7722L75.7015 45.5L80.8922 45.5676ZM76.3352 83.9066L55.4052 77.1009L54.2399 80.5043L69.1568 85.212L34.5215 87.2638L34.7541 90.8062L76.3352 88.4292L76.1489 112.901H79.785L79.925 89.0344L106.822 97.7983L108.033 94.396L85.4717 87.4039L126.166 85.3983L125.934 81.856L90.0868 84.0004L113.628 76.8683L112.508 73.466L81.9756 83.534L92.9301 60.5534L89.7142 58.968L79.925 79.0127L80.065 46.3817L76.5215 46.3354L76.3352 83.9066Z" fill="#030712"/>
</svg>
