<svg width="240" height="240" viewBox="0 0 240 240" fill="none" xmlns="http://www.w3.org/2000/svg">
<g clip-path="url(#clip0_7589_53268)">
<circle cx="120" cy="120" r="120" fill="#0E0B2F"/>
<path d="M165.564 94.1745C164.088 79.8851 151.711 75.137 136.118 73.8275L135.978 54L123.905 54.0442L124.042 73.3491C120.868 73.3608 117.625 73.435 114.402 73.5108L114.267 54.078L102.201 54.1206L102.336 73.9424C99.7225 74.0051 97.156 74.0627 94.6532 74.0733L94.6512 74.0118L78 74.0653L78.0939 86.9552C78.0939 86.9552 87.0079 86.7536 86.8609 86.9183C91.7509 86.9024 93.3624 89.7347 93.8426 92.1821L94.0027 114.77C94.3402 114.77 94.7804 114.783 95.2794 114.849C94.8772 114.851 94.4467 114.85 94.0041 114.856L94.2238 146.499C94.02 148.038 93.1326 150.494 89.7162 150.512C89.8716 150.648 80.9403 150.541 80.9403 150.541L78.6431 164.963L94.3539 164.906C97.2776 164.9 100.155 164.939 102.979 164.947L103.125 185L115.185 184.959L115.045 165.118C118.356 165.174 121.561 165.189 124.689 165.175L124.823 184.925L136.896 184.881L136.759 164.863C157.047 163.627 171.217 158.465 172.847 139.405C174.163 124.057 166.895 117.237 155.354 114.512C162.329 110.924 166.661 104.631 165.564 94.1745ZM148.975 137.113C149.087 152.099 123.407 150.486 115.226 150.523L115.042 123.953C123.226 123.926 148.866 121.482 148.975 137.113ZM143.096 99.6473C143.189 113.282 121.771 111.767 114.956 111.791L114.787 87.6942C121.602 87.6694 142.995 85.4267 143.096 99.6473Z" fill="url(#paint0_linear_7589_53268)"/>
</g>
<defs>
<linearGradient id="paint0_linear_7589_53268" x1="173" y1="119.5" x2="78" y2="119.5" gradientUnits="userSpaceOnUse">
<stop stop-color="#9365EC"/>
<stop offset="1" stop-color="#667FE3"/>
</linearGradient>
<clipPath id="clip0_7589_53268">
<rect width="240" height="240" fill="white"/>
</clipPath>
</defs>
</svg>
