<svg width="32" height="32" viewBox="0 0 32 32" fill="none" xmlns="http://www.w3.org/2000/svg">
<g clip-path="url(#clip0_1398_328112)">
<g clip-path="url(#clip1_1398_328112)">
<path d="M32 16C32 7.16344 24.8366 0 16 0C7.16344 0 0 7.16344 0 16C0 24.8366 7.16344 32 16 32C24.8366 32 32 24.8366 32 16Z" fill="#0E0B2F"/>
<path d="M15.9994 30.8326C24.1912 30.8326 30.8319 24.1919 30.8319 16.0002C30.8319 7.80843 24.1912 1.16772 15.9994 1.16772C7.8077 1.16772 1.16699 7.80843 1.16699 16.0002C1.16699 24.1919 7.8077 30.8326 15.9994 30.8326Z" stroke="#BF7E4B" stroke-width="0.7"/>
<path fill-rule="evenodd" clip-rule="evenodd" d="M20.8152 12.9693C20.6761 11.1804 19.1163 10.5516 17.1365 10.3428L17.1857 7.86549L15.6497 7.83673L15.6011 10.2488C15.1974 10.2403 14.7851 10.2409 14.3736 10.2411L14.4229 7.81328L12.8866 7.78369L12.8372 10.2602C12.5045 10.2601 12.1771 10.2607 11.8587 10.254V10.2461L9.73914 10.2051L9.70731 11.8153C9.70731 11.8153 10.8429 11.8158 10.8237 11.8358C11.446 11.848 11.6411 12.2064 11.6942 12.514L11.6385 15.3358C11.6812 15.3366 11.7368 15.3398 11.8008 15.3489L11.6383 15.3463L11.5595 19.2996C11.5279 19.4908 11.4068 19.795 10.9714 19.7876C10.9914 19.8048 9.85486 19.7663 9.85486 19.7663L9.51367 21.5606L11.5139 21.599C11.8857 21.6067 12.2517 21.6201 12.6104 21.6291L12.5615 24.1341L14.0966 24.1631L14.1459 21.6858C14.5673 21.7014 14.9751 21.7124 15.3735 21.7203L15.3236 24.1873L16.8597 24.2161L16.9098 21.716C19.4965 21.6201 21.317 21.0163 21.5889 18.6401C21.8087 16.7272 20.9068 15.8536 19.4472 15.4803C20.3475 15.0525 20.9195 14.2789 20.8152 12.9693ZM18.5582 18.285C18.5228 20.1574 15.2591 19.8815 14.2175 19.8625L14.2846 16.5431C15.3267 16.5638 18.5979 16.3326 18.5582 18.285ZM17.937 13.5882C17.9031 15.2918 15.1823 15.04 14.3155 15.0235L14.3753 12.014C15.242 12.0306 17.9726 11.8113 17.937 13.5882Z" fill="url(#paint0_linear_1398_328112)"/>
</g>
</g>
<defs>
<linearGradient id="paint0_linear_1398_328112" x1="9.51367" y1="15.8392" x2="22.2013" y2="15.8392" gradientUnits="userSpaceOnUse">
<stop stop-color="#5589DF"/>
<stop offset="1" stop-color="#9D5FEE"/>
</linearGradient>
<clipPath id="clip0_1398_328112">
<rect width="32" height="32" fill="white"/>
</clipPath>
<clipPath id="clip1_1398_328112">
<rect width="32" height="32" fill="white"/>
</clipPath>
</defs>
</svg>
