<svg width="32" height="32" viewBox="0 0 32 32" fill="none" xmlns="http://www.w3.org/2000/svg">
<circle cx="16" cy="16" r="16" fill="url(#paint0_linear_621_9753)"/>
<path d="M18.6241 4.47992C18.6241 5.45369 18.0804 6.30048 17.28 6.73328V8.31992H19.9041V9.59992H17.28V24.9029C20.2454 24.6235 22.9165 23.3324 24.9444 21.3784L22.8478 20.4799L28.2878 15.9999L28.2212 16.2664C28.0882 22.4555 23.331 27.506 17.2664 28.1012C17.0989 28.2839 16.9068 28.4871 16.7038 28.6902C16.0641 29.3302 16.0637 29.2204 16.0637 29.2204C16.0637 29.2204 15.7441 29.0102 15.4241 28.6902C15.2963 28.5624 15.0838 28.3325 14.8748 28.1025C8.80442 27.5132 4.0408 22.4606 3.90698 16.2677L3.84003 15.9999L9.28003 20.4799L7.18371 21.3783C9.18239 23.3042 11.8058 24.5861 14.72 24.8902V9.59992H12.2241V8.31992H14.72V6.65912C13.9903 6.2081 13.5041 5.40079 13.5041 4.47992C13.5041 3.06607 14.6502 1.91992 16.0641 1.91992C17.4779 1.91992 18.6241 3.06607 18.6241 4.47992Z" fill="white"/>
<defs>
<linearGradient id="paint0_linear_621_9753" x1="4.5" y1="3.5" x2="26.5" y2="28" gradientUnits="userSpaceOnUse">
<stop stop-color="#6033DB"/>
<stop offset="1" stop-color="#7957D5"/>
</linearGradient>
</defs>
</svg>
