<svg width="32" height="32" viewBox="0 0 32 32" fill="none" xmlns="http://www.w3.org/2000/svg">
<circle cx="16" cy="16" r="16" fill="#34353B"/>
<path d="M2.68074 18.1813L10.4587 10.5495C11.9682 9.04312 13.9639 8.23978 16.0875 8.23978C18.7739 8.23978 21.1278 9.54523 22.5606 11.5536C22.5862 11.5787 22.6117 11.6039 22.6373 11.6289C23.1746 12.2566 23.9678 12.6331 24.8121 12.6331C26.3728 12.6331 27.6521 11.3779 27.6521 9.8465C27.6521 8.96782 27.0636 8.13937 27.0636 8.13937C24.5051 4.7 20.4114 2.6665 16.0875 2.6665C12.3264 2.6665 8.71887 4.223 6.13478 6.90922C3.55065 9.64566 2.27138 13.2106 2.52723 16.9512C2.55282 17.3779 2.60399 17.7796 2.68074 18.1813Z" fill="#A7FF58"/>
<path d="M28.8802 17.5538C28.4708 17.0518 27.8824 16.7505 27.2171 16.7505H19.0043C18.9787 16.7505 18.9787 16.7505 18.9531 16.7505C18.3646 16.7505 17.8273 16.9764 17.4179 17.3781C17.0086 17.7798 16.8039 18.3321 16.8295 18.8844C16.8551 19.9639 17.9041 20.8928 19.081 20.8928H19.6439C20.1044 20.8928 20.4882 21.1438 20.6673 21.5706C20.8464 21.9723 20.7441 22.4493 20.437 22.7505L13.9128 29.1523C14.3221 29.2276 14.7315 29.2778 15.1665 29.3029C21.6907 29.7297 27.6521 25.5623 29.2896 19.3614C29.4175 18.7338 29.2896 18.0559 28.8802 17.5538Z" fill="#A7FF58"/>
<path d="M16.0106 9.69599C14.8593 9.72111 13.7591 10.0977 12.8124 10.7253L12.7357 10.7755C11.9169 11.3027 11.1494 11.9303 10.4586 12.6082C7.9512 15.0684 1.83631 21.0685 1.83631 21.0685C1.45253 21.4451 1.6828 22.4744 2.9109 21.9723L4.06224 21.5455C5.26476 21.2192 6.16024 21.2945 6.82546 22.1731C7.38834 22.9012 7.03015 24.1062 7.03015 24.1062C6.77429 24.9598 7.43951 25.5372 8.15588 25.2611L8.61645 25.0853C9.66546 24.7087 10.8168 25.1355 11.4052 26.215C11.6355 26.6418 11.6611 27.169 11.5332 27.6209C11.3541 28.2736 12.1984 28.7506 12.6845 28.2736L18.6971 22.3489C16.8805 22.1731 15.371 20.6919 15.3198 18.9346C15.2942 17.9555 15.6524 17.0517 16.3432 16.3488C17.0084 15.671 17.8783 15.2944 18.825 15.2693C18.8506 15.2693 18.9018 15.2693 18.9273 15.2693H22.4581C22.0999 12.1312 19.3367 9.67093 16.0106 9.69599ZM12.5566 14.943C12.224 15.8216 11.5587 16.3739 11.0726 16.1981C10.5865 16.0224 10.433 15.1689 10.7656 14.2902C11.0982 13.4116 11.7634 12.8592 12.2496 13.0349C12.7357 13.2107 12.8892 14.0643 12.5566 14.943ZM15.9339 14.943C15.6012 15.8216 14.936 16.3739 14.4499 16.1981C13.9638 16.0224 13.8103 15.1689 14.1429 14.2902C14.4755 13.4116 15.1407 12.8592 15.6268 13.0349C16.113 13.2107 16.2665 14.0643 15.9339 14.943Z" fill="white"/>
</svg>
