<svg width="32" height="32" viewBox="0 0 32 32" fill="none" xmlns="http://www.w3.org/2000/svg">
<path fill-rule="evenodd" clip-rule="evenodd" d="M30 16C30 14.1677 29.6354 12.3354 28.9343 10.6425C28.2332 8.9496 27.1952 7.39616 25.8994 6.1006C24.6038 4.80476 23.0504 3.7668 21.3575 3.06568C19.6646 2.36456 17.8323 2 16 2C14.1677 2 12.3354 2.36456 10.6425 3.06568C8.9496 3.7668 7.39616 4.80476 6.1006 6.1006C4.80476 7.39616 3.7668 8.9496 3.06568 10.6425C2.36456 12.3354 2 14.1677 2 16C2 17.8323 2.36456 19.6646 3.06568 21.3575C3.7668 23.0504 4.80476 24.6038 6.1006 25.8994C7.39616 27.1952 8.9496 28.2332 10.6425 28.9343C12.3354 29.6354 14.1677 30 16 30C17.8323 30 19.6646 29.6354 21.3575 28.9343C23.0504 28.2332 24.6038 27.1952 25.8994 25.8994C27.1952 24.6038 28.2332 23.0504 28.9343 21.3575C29.6354 19.6646 30 17.8323 30 16Z" fill="white"/>
<path fill-rule="evenodd" clip-rule="evenodd" d="M15.2765 9.67896H16.7235V22.3215H15.2765V9.67896Z" fill="black"/>
<path fill-rule="evenodd" clip-rule="evenodd" d="M14.4552 15.6262V14.1153C13.2946 13.5444 12.4955 12.3499 12.4955 10.969C12.4955 9.03415 14.0646 7.46503 16 7.46503C18.173 7.46503 19.7422 9.03415 19.7422 10.969C19.7422 11.4567 19.6419 11.9212 19.4014 12.4731L18.7834 10.4641L17.5447 10.8514L18.6432 15.0323L22.9076 13.4635L22.3893 12.2407L20.7989 12.785C21.0867 12.1609 21.1433 11.702 21.1433 10.969C21.1433 8.25967 18.947 6.06335 16 6.06335C13.2907 6.06335 11.0944 8.25967 11.0944 10.969C11.0944 13.1384 12.503 14.9788 14.4552 15.6262Z" fill="black"/>
<path fill-rule="evenodd" clip-rule="evenodd" d="M17.5448 16.3744V17.8853C18.7054 18.4565 19.5045 19.6507 19.5045 21.0316C19.5045 22.9664 17.9354 24.5355 16 24.5355C13.8269 24.5355 12.2578 22.9664 12.2578 21.0316C12.2578 20.5439 12.358 20.0793 12.5986 19.5275L13.2165 21.5365L14.4552 21.1492L13.3568 16.9683L9.09241 18.5374L9.61069 19.7599L11.2011 19.2155C10.9132 19.8397 10.8567 20.2986 10.8567 21.0316C10.8567 23.7409 13.053 25.9372 16 25.9372C18.7093 25.9372 20.9056 23.7409 20.9056 21.0316C20.9056 18.8622 19.4969 17.0217 17.5448 16.3744Z" fill="black"/>
<path fill-rule="evenodd" clip-rule="evenodd" d="M26.2846 28.2568L25.0628 26.8008C19.3418 31.6011 10.8698 31.1076 5.74472 25.6756C0.6196 20.2433 0.6196 11.7569 5.74472 6.3246C10.8698 0.892603 19.3418 0.399163 25.0628 5.19948L26.2846 3.74348C19.7924 -1.7042 10.178 -1.14452 4.362 5.02028C-1.454 11.1848 -1.454 20.8155 4.362 26.98C10.178 33.1448 19.7924 33.7044 26.2846 28.2568Z" fill="url(#paint0_linear)"/>
<path fill-rule="evenodd" clip-rule="evenodd" d="M26.2845 28.2567L25.0627 26.8007C28.2554 24.1216 30.0992 20.1677 30.0992 16C30.0992 11.8324 28.2554 7.87845 25.0627 5.19941L26.2845 3.74341C29.9075 6.78341 32 11.2704 32 16C32 20.7296 29.9075 25.2167 26.2845 28.2567Z" fill="#EDF0F2"/>
<defs>
<linearGradient id="paint0_linear" x1="3.37603" y1="0" x2="3.37603" y2="32.0002" gradientUnits="userSpaceOnUse">
<stop stop-color="#27D3A2"/>
<stop offset="1" stop-color="#9388FD"/>
</linearGradient>
</defs>
</svg>
