<svg width="32" height="32" viewBox="0 0 32 32" fill="none" xmlns="http://www.w3.org/2000/svg">
<path fill-rule="evenodd" clip-rule="evenodd" d="M32 16C32 13.9059 31.5834 11.8118 30.7821 9.87712C29.9805 7.9424 28.7942 6.16704 27.3136 4.6864C25.833 3.20544 24.0576 2.01952 22.1229 1.21792C20.1882 0.41664 18.0941 0 16 0C13.9059 0 11.8115 0.41664 9.8768 1.21792C7.94208 2.01952 6.16704 3.20544 4.68608 4.6864C3.20544 6.16704 2.0192 7.9424 1.21792 9.87712C0.41632 11.8118 0 13.9059 0 16C0 18.0941 0.41632 20.1881 1.21792 22.1229C2.0192 24.0576 3.20544 25.8329 4.68608 27.3139C6.16704 28.7945 7.94208 29.9808 9.8768 30.7821C11.8115 31.5833 13.9059 32 16 32C18.0941 32 20.1882 31.5833 22.1229 30.7821C24.0576 29.9808 25.833 28.7945 27.3136 27.3139C28.7942 25.8329 29.9805 24.0576 30.7821 22.1229C31.5834 20.1881 32 18.0941 32 16Z" fill="white"/>
<path d="M16 24C20.4183 24 24 20.4183 24 16C24 11.5817 20.4183 8 16 8C11.5817 8 8 11.5817 8 16C8 20.4183 11.5817 24 16 24Z" fill="black"/>
<path d="M20 14.9V12.7H18.9988V11.6H16.9988V10.5H15V11.6H13V12.7H12V19.3H13V20.4H14.9988V21.5H16.9988V20.4H18.9988V19.3H20V17.1H17.9988V18.1972H16.9988V19.2972H15V18.1972H14V13.8H15V12.7H16.9988V13.8H17.9988V14.9H20Z" fill="white"/>
<path fill-rule="evenodd" clip-rule="evenodd" d="M25 21.0001C25 20.4766 24.8958 19.9531 24.6955 19.4694C24.4952 18.9857 24.1986 18.5419 23.8284 18.1717C23.4582 17.8015 23.0144 17.5049 22.5307 17.3046C22.047 17.1043 21.5235 17.0001 21 17.0001C20.4765 17.0001 19.953 17.1043 19.4693 17.3046C18.9856 17.5049 18.5418 17.8015 18.1716 18.1717C17.8014 18.5419 17.5048 18.9857 17.3045 19.4694C17.1042 19.9531 17 20.4766 17 21.0001C17 21.5236 17.1042 22.0471 17.3045 22.5308C17.5048 23.0145 17.8014 23.4583 18.1716 23.8285C18.5418 24.1987 18.9856 24.4953 19.4693 24.6956C19.953 24.8959 20.4765 25.0001 21 25.0001C21.5235 25.0001 22.047 24.8959 22.5307 24.6956C23.0144 24.4953 23.4582 24.1987 23.8284 23.8285C24.1986 23.4583 24.4952 23.0145 24.6955 22.5308C24.8958 22.0471 25 21.5236 25 21.0001Z" fill="#898989" stroke="white" stroke-width="0.54"/>
<path fill-rule="evenodd" clip-rule="evenodd" d="M21.0469 18.1668L19.3333 20.9823L21.0469 21.9854L22.7608 20.9823L21.0469 18.1668Z" fill="white"/>
<path fill-rule="evenodd" clip-rule="evenodd" d="M19.3333 21.3042L21.0469 23.6952L22.7618 21.3042L21.0469 22.3067L19.3333 21.3042Z" fill="white"/>
<path fill-rule="evenodd" clip-rule="evenodd" d="M11.8547 3.38369C13.3453 2.89377 14.9382 2.66977 16.5161 2.73025C18.0944 2.79073 19.6579 3.13601 21.1129 3.74401C22.5683 4.35201 23.9152 5.22305 25.0675 6.29761C26.5917 7.71937 27.775 9.49761 28.4848 11.4867C29.1949 13.4761 29.4314 15.6765 29.1574 17.7712C28.8838 19.8659 28.0998 21.8553 26.9139 23.5661C25.728 25.2768 24.1398 26.7085 22.2745 27.7005C20.4093 28.6921 18.2662 29.2438 16.1539 29.2758C14.0416 29.3078 11.9597 28.8205 10.095 27.895C8.23071 26.9696 6.58335 25.6064 5.33247 23.9037C4.08159 22.2009 3.22719 20.1587 2.88799 18.0749C2.54879 15.9907 2.72479 13.8646 3.37471 11.8813C3.86591 10.3817 4.62815 8.96417 5.60479 7.73569H4.12031V5.28193H9.93695V10.7136H7.48319V9.22945C6.68319 10.2355 6.05855 11.3968 5.65631 12.6256C5.12415 14.2512 4.98079 15.9952 5.25631 17.6969C5.59871 19.8137 6.58879 21.8649 8.06655 23.4457C9.83423 25.3363 12.2995 26.5542 14.8659 26.8208C17.432 27.0873 20.0992 26.4029 22.2173 24.9286C24.3353 23.4544 25.905 21.1904 26.5421 18.6899C27.1792 16.1894 26.8838 13.4525 25.735 11.1421C24.5862 8.83169 22.5837 6.94849 20.1891 5.95905C17.7945 4.96929 15.0077 4.87393 12.6038 5.66369L11.8547 3.38369Z" fill="url(#paint0_linear_5504_78828)"/>
<defs>
<linearGradient id="paint0_linear_5504_78828" x1="2.04341" y1="13.2971" x2="15.2222" y2="29.5764" gradientUnits="userSpaceOnUse">
<stop stop-color="#004CFF"/>
<stop offset="0.252131" stop-color="#00E0FB"/>
<stop offset="0.505709" stop-color="#87FF70"/>
<stop offset="0.755054" stop-color="#F8F500"/>
<stop offset="1" stop-color="#FF1A00"/>
</linearGradient>
</defs>
</svg>
