<svg id="svg" version="1.1" xmlns="http://www.w3.org/2000/svg" style="display: block;" viewBox="0 0 1116 1116"><path d="M0 0 C368.28 0 736.56 0 1116 0 C1116 368.28 1116 736.56 1116 1116 C747.72 1116 379.44 1116 0 1116 C0 747.72 0 379.44 0 0 Z " transform="translate(0,0)" style="fill: #161E52;"/><path d="M0 0 C21.12 0 42.24 0 64 0 C62.06550528 6.44831574 60.09344096 12.67593703 57.6796875 18.9296875 C57.22349533 20.12611374 57.22349533 20.12611374 56.75808716 21.34671021 C55.80039522 23.85743107 54.83811465 26.36635482 53.875 28.875 C52.90520405 31.40523763 51.93647778 33.93586592 50.9704895 36.46755981 C50.37293957 38.03328838 49.77316753 39.59817124 49.17086792 41.16207886 C47.92747499 44.41698837 46.79650451 47.60884564 46 51 C47.27488281 51.25394531 48.54976562 51.50789063 49.86328125 51.76953125 C55.16298848 52.95127171 60.13088757 54.72907489 65.1875 56.6875 C66.09717529 57.03619141 67.00685059 57.38488281 67.9440918 57.74414062 C75.54899716 60.71282511 82.81113447 64.13371938 90 68 C90.16353973 67.16801842 90.16353973 67.16801842 90.3303833 66.31922913 C91.45250484 60.91625893 92.9950356 55.92406039 95.046875 50.80859375 C95.34055969 50.06021744 95.63424438 49.31184113 95.93682861 48.54078674 C96.86834975 46.17052304 97.80876806 43.80392205 98.75 41.4375 C99.67132663 39.10478456 100.59073749 36.77132249 101.50964355 34.43765259 C102.11661673 32.89627942 102.72444236 31.35524166 103.33312988 29.81454468 C105.85421439 23.41804661 108.26911532 16.98547245 110.64941406 10.53540039 C112.00530157 6.9861222 113.50332403 3.49224393 115 0 C136.12 0 157.24 0 179 0 C178.15548728 4.2225636 177.07976313 7.76261057 175.5859375 11.7734375 C175.33954529 12.43726944 175.09315308 13.10110138 174.83929443 13.78504944 C174.02183488 15.98320269 173.19855995 18.17912575 172.375 20.375 C171.79659482 21.92581884 171.21830937 23.47668235 170.64013672 25.02758789 C166.21798539 36.8629739 161.67959272 48.65259855 157.125 60.4375 C151.22259284 75.69310557 151.22259284 75.69310557 145.625 91.0625 C145.35703613 91.816521 145.08907227 92.57054199 144.81298828 93.34741211 C142.75910214 99.05551745 142.75910214 99.05551745 142 105 C144.04570405 107.63819284 144.04570405 107.63819284 147 109.875 C151.82106609 113.94341662 155.9798015 118.14591753 160 123 C160.73476563 123.84691406 161.46953125 124.69382812 162.2265625 125.56640625 C193.51653044 162.07136885 212.52024289 207.34622232 218 255 C218.0942627 255.79913818 218.18852539 256.59827637 218.28564453 257.42163086 C219.17341065 265.87129035 219.24228153 274.32570505 219.25 282.8125 C219.25100708 283.58490021 219.25201416 284.35730042 219.25305176 285.15310669 C219.24252089 297.1432719 218.61359354 308.78013808 216.43554688 320.59814453 C216.0100419 322.94462319 215.64878542 325.29384807 215.296875 327.65234375 C211.4982314 351.1990326 202.25304979 375.06032496 191 396 C190.60490234 396.73669922 190.20980469 397.47339844 189.80273438 398.23242188 C174.70853529 425.92570694 153.19730038 451.93648229 128 471 C127.44521973 471.42587402 126.89043945 471.85174805 126.31884766 472.29052734 C117.2593101 479.2259291 107.94422253 485.41216174 98 491 C97.26136719 491.42249023 96.52273438 491.84498047 95.76171875 492.28027344 C72.26259194 505.61787899 47.50348246 514.03877884 21 519 C19.65603149 519.27408691 19.65603149 519.27408691 18.28491211 519.55371094 C10.82874128 521.02818354 3.38991915 521.62664683 -4.1875 522.125 C-5.42564453 522.21136719 -6.66378906 522.29773438 -7.93945312 522.38671875 C-10.95930529 522.59659265 -13.97942095 522.80091129 -17 523 C-17.39771606 524.0506665 -17.39771606 524.0506665 -17.8034668 525.12255859 C-23.26899791 539.5567782 -28.7478229 553.98591354 -34.25357056 568.40484619 C-34.83447178 569.92647986 -35.41501793 571.44824912 -35.99520874 572.97015381 C-36.81088577 575.10940155 -37.62790788 577.24813062 -38.4453125 579.38671875 C-39.14938232 581.23076294 -39.14938232 581.23076294 -39.86767578 583.11206055 C-41 586 -41 586 -42 588 C-63.12 588 -84.24 588 -106 588 C-104.62725173 581.8226328 -103.21573833 576.48444338 -100.87109375 570.7265625 C-100.24279478 569.14767255 -99.61504984 567.56856205 -98.98779297 565.98925781 C-98.49868439 564.76583679 -98.49868439 564.76583679 -97.99969482 563.5177002 C-96.30998269 559.26221295 -94.67433724 554.986086 -93.03515625 550.7109375 C-92.43767275 549.15670315 -91.8400955 547.60250484 -91.24243164 546.04833984 C-90.5230542 544.1761377 -89.80367676 542.30393555 -89.0625 540.375 C-86.731875 534.31125 -84.40125 528.2475 -82 522 C-98.83 522 -115.66 522 -133 522 C-133.33 523.98 -133.66 525.96 -134 528 C-134.75268555 530.24731445 -134.75268555 530.24731445 -135.63671875 532.36328125 C-136.12676392 533.55594604 -136.12676392 533.55594604 -136.62670898 534.77270508 C-136.97677002 535.6108374 -137.32683105 536.44896973 -137.6875 537.3125 C-140.26145359 543.60114312 -142.72149736 549.88858225 -144.9375 556.3125 C-148.69499657 566.97152089 -152.88158592 577.47516402 -157 588 C-178.12 588 -199.24 588 -221 588 C-218.74982474 577.87421132 -218.74982474 577.87421132 -217.29174805 574.0378418 C-216.96768478 573.17632004 -216.64362152 572.31479828 -216.30973816 571.4271698 C-215.96389175 570.52694595 -215.61804535 569.62672211 -215.26171875 568.69921875 C-214.89907425 567.74159134 -214.53642975 566.78396393 -214.16279602 565.7973175 C-213.39827102 563.78183552 -212.63082272 561.76746022 -211.8605957 559.75415039 C-210.69568578 556.70889888 -209.53942303 553.66047988 -208.38476562 550.61132812 C-207.63592221 548.64043285 -206.88658888 546.66972362 -206.13671875 544.69921875 C-205.79694504 543.8050676 -205.45717133 542.91091644 -205.10710144 541.9896698 C-202.53141251 535.26332436 -199.77358052 528.65659325 -197 522 C-237.59 522 -278.18 522 -320 522 C-319.08316275 517.41581373 -317.73672337 513.30091254 -316.09765625 508.953125 C-315.7930397 508.13596008 -315.48842316 507.31879517 -315.17457581 506.47686768 C-314.49318675 504.65069085 -313.809994 502.82518634 -313.12530518 501.00024414 C-311.93101311 497.81606988 -310.74221377 494.62988084 -309.55419922 491.44335938 C-307.31788106 485.44852997 -305.07491986 479.45621153 -302.8293457 473.46484375 C-301.43479213 469.74277268 -300.04258558 466.01982881 -298.65039062 462.296875 C-294.65455222 451.62670536 -290.62715246 440.9845694 -286.34228516 430.42700195 C-284.53565902 425.8144863 -282.90658113 421.1472531 -281.27844238 416.46940613 C-278.53375061 408.60516433 -275.55496164 400.83509759 -272.5625 393.0625 C-271.98671678 391.56134871 -271.41111644 390.06012726 -270.83569336 388.55883789 C-268.24365895 381.80173793 -265.64245567 375.04848558 -262.9921875 368.31396484 C-262.68539062 367.52973145 -262.37859375 366.74549805 -262.0625 365.9375 C-261.83430573 365.35583069 -261.60611145 364.77416138 -261.3710022 364.17486572 C-259.55093224 359.50300156 -257.8551746 354.79867999 -256.2109375 350.0625 C-253.15358524 341.33336355 -249.88539828 332.69337126 -246.5625 324.0625 C-245.98671678 322.56134871 -245.41111644 321.06012726 -244.83569336 319.55883789 C-242.24365895 312.80173793 -239.64245567 306.04848558 -236.9921875 299.31396484 C-236.53199219 298.13761475 -236.53199219 298.13761475 -236.0625 296.9375 C-235.83430573 296.35583069 -235.60611145 295.77416138 -235.3710022 295.17486572 C-233.55093224 290.50300156 -231.8551746 285.79867999 -230.2109375 281.0625 C-227.15358524 272.33336355 -223.88539828 263.69337126 -220.5625 255.0625 C-219.98671678 253.56134871 -219.41111644 252.06012726 -218.83569336 250.55883789 C-216.24365895 243.80173793 -213.64245567 237.04848558 -210.9921875 230.31396484 C-210.53199219 229.13761475 -210.53199219 229.13761475 -210.0625 227.9375 C-209.83430573 227.35583069 -209.60611145 226.77416138 -209.3710022 226.17486572 C-207.55093224 221.50300156 -205.8551746 216.79867999 -204.2109375 212.0625 C-201.15358524 203.33336355 -197.88539828 194.69337126 -194.5625 186.0625 C-193.98671678 184.56134871 -193.41111644 183.06012726 -192.83569336 181.55883789 C-190.24365895 174.80173793 -187.64245567 168.04848558 -184.9921875 161.31396484 C-184.53199219 160.13761475 -184.53199219 160.13761475 -184.0625 158.9375 C-183.72075241 158.06649155 -183.72075241 158.06649155 -183.37210083 157.17788696 C-181.54047159 152.47672211 -179.83481249 147.74231102 -178.1796875 142.9765625 C-175.53341744 135.42290113 -172.73393458 127.93858115 -169.84899902 120.47329712 C-168.44176073 116.83076027 -167.04282135 113.18504209 -165.64453125 109.5390625 C-165.20359634 108.38948814 -165.20359634 108.38948814 -164.75375366 107.21669006 C-161.20010536 97.93497258 -157.72809153 88.62272372 -154.25 79.3125 C-149.79684074 67.39384994 -145.31100449 55.49382385 -140.61230469 43.66918945 C-138.94948073 39.47925592 -137.37004527 35.29790853 -136 31 C-130.12598577 31.97900237 -124.49823386 33.95159438 -118.83203125 35.74023438 C-105.93578553 39.70755271 -93.93907767 40.27451044 -80.55078125 40.1953125 C-78.68320366 40.19157561 -76.81562409 40.18873184 -74.94804382 40.18673706 C-70.06713307 40.17915377 -65.18634408 40.1595517 -60.30548096 40.1373291 C-55.3110926 40.11675553 -50.31668428 40.10771088 -45.32226562 40.09765625 C-35.54812401 40.0763001 -25.77407219 40.0422293 -16 40 C-15.03552093 37.6025695 -14.07232885 35.20463523 -13.10986328 32.80639648 C-12.83841995 32.13204308 -12.56697662 31.45768967 -12.28730774 30.76290131 C-10.07165252 25.23744404 -8.075395 19.6602553 -6.19140625 14.01367188 C-4.47723457 9.01001433 -2.41589063 4.83178127 0 0 Z " transform="translate(609,264)" style="fill: #FEBA51;"/><path d="M0 0 C176.55 0 353.1 0 535 0 C535 0.33 535 0.66 535 1 C534.25878906 1.03963867 533.51757812 1.07927734 532.75390625 1.12011719 C461.23196131 5.08139994 391.10962385 20.80543793 326 51 C324.96004883 51.48082031 323.92009766 51.96164063 322.84863281 52.45703125 C279.27346843 72.71460537 238.91974895 98.2417843 202 129 C201.13834229 129.7130127 201.13834229 129.7130127 200.25927734 130.44042969 C192.51761841 136.85180646 185.05891803 143.52189471 177.72412109 150.39355469 C175.91597906 152.07828629 174.09410277 153.74714676 172.26953125 155.4140625 C164.62206031 162.42758164 157.39718936 169.6632795 150.46484375 177.38232422 C148.96137941 179.04265001 147.43766259 180.681844 145.90625 182.31640625 C140.52745681 188.06078135 135.3212318 193.87278396 130.39453125 200.015625 C128.61759315 202.23027542 126.82504198 204.42492381 125.01171875 206.609375 C66.54928531 277.27220084 27.17337288 364.34615987 1 539 C0.67 539 0.34 539 0 539 C0 361.13 0 183.26 0 0 Z " transform="translate(0,0)" style="fill: #000000;"/><path d="M0 0 C0.33 0 0.66 0 1 0 C1.05945801 1.24027954 1.05945801 1.24027954 1.12011719 2.50561523 C4.53769515 71.20176449 18.13759615 138.8324262 46 202 C46.45616699 203.03495605 46.91233398 204.06991211 47.38232422 205.13623047 C50.49160685 212.13728583 53.7083889 219.08297029 57 226 C57.40541016 226.85609863 57.81082031 227.71219727 58.22851562 228.59423828 C65.02750239 242.85708817 72.85607596 256.46746815 81 270 C81.45906738 270.76328613 81.91813477 271.52657227 82.39111328 272.31298828 C95.44724709 293.88901548 109.94770992 315.03994005 126.4921875 334.09375 C128.8707573 336.85022342 131.16030636 339.65962943 133.4375 342.5 C137.78096741 347.83803598 142.41219639 352.86627233 147.109375 357.890625 C149.53824632 360.49005426 151.90086071 363.14057821 154.25 365.8125 C158.37741863 370.4152886 162.70034487 374.80879877 167.0625 379.1875 C167.7234668 379.85305908 168.38443359 380.51861816 169.06542969 381.2043457 C172.96646668 385.0932947 176.97901532 388.79160426 181.14916992 392.38989258 C183.70280627 394.61139788 186.15838173 396.93265834 188.625 399.25 C194.5394964 404.7300394 200.80713345 409.66602031 207.18798828 414.58642578 C209.62190638 416.48515736 212.01361547 418.43371831 214.40844727 420.38134766 C228.59423402 431.88719988 243.48565519 442.36719424 259 452 C259.90041016 452.55913086 260.80082031 453.11826172 261.72851562 453.69433594 C333.2578601 497.85447114 412.50489964 525.99880172 529 538 C529 538.33 529 538.66 529 539 C354.43 539 179.86 539 0 539 C0 361.13 0 183.26 0 0 Z " transform="translate(0,577)" style="fill: #000000;"/><path d="M0 0 C176.22 0 352.44 0 534 0 C534 173.25 534 346.5 534 525 C533.67 525 533.34 525 533 525 C532.94054199 524.1742749 532.88108398 523.3485498 532.81982422 522.49780273 C530.26690578 488.17915059 525.43167561 454.3914025 517 421 C516.69868164 419.80294434 516.39736328 418.60588867 516.08691406 417.37255859 C500.6934051 357.14240053 474.86019728 299.46502598 440 248 C439.21834473 246.83791016 439.21834473 246.83791016 438.42089844 245.65234375 C432.53287934 236.90707374 426.44017915 228.35040179 420 220 C419.57750977 219.45134277 419.15501953 218.90268555 418.71972656 218.33740234 C409.99772321 207.03829865 400.91095481 196.08056447 391.29418945 185.52954102 C389.874157 183.96383321 388.46214827 182.39075562 387.06323242 180.80615234 C381.16002991 174.13606854 374.95939246 167.80554397 368.65209961 161.52172852 C366.9329133 159.80792767 365.21917417 158.08880918 363.50585938 156.36914062 C357.83966156 150.6991562 352.13127027 145.17156322 346 140 C344.88160938 139.02742344 343.76439263 138.05349513 342.6484375 137.078125 C335.19088172 130.6183636 327.59913758 124.3767166 319.77441406 118.36669922 C318.04759034 117.0366553 316.33239051 115.69263245 314.6171875 114.34765625 C305.67489978 107.41803072 296.33989639 101.09379247 286.9375 94.8125 C286.31109619 94.39283966 285.68469238 93.97317932 285.03930664 93.540802 C273.0795073 85.54236337 260.86060423 77.99794762 248.25 71.0625 C247.50016846 70.6497583 246.75033691 70.2370166 245.9777832 69.81176758 C244.41881039 68.95669019 242.85867791 68.10372354 241.29736328 67.25292969 C239.80145469 66.43709516 238.30752682 65.61761485 236.81591797 64.79394531 C164.33441154 24.84814556 82.17410227 5.39452808 0 1 C0 0.67 0 0.34 0 0 Z " transform="translate(582,0)" style="fill: #000000;"/><path d="M0 0 C0.33 0 0.66 0 1 0 C1 173.25 1 346.5 1 525 C-173.24 525 -347.48 525 -527 525 C-527 524.67 -527 524.34 -527 524 C-526.08750488 523.93530518 -525.17500977 523.87061035 -524.23486328 523.80395508 C-445.60418254 518.09079909 -371.64838777 498.45932852 -301 463 C-299.61965576 462.30777344 -299.61965576 462.30777344 -298.21142578 461.6015625 C-250.60466813 437.54762179 -205.12424612 404.78299502 -167.73046875 366.6953125 C-166 365 -166 365 -162.9375 362.5 C-159.93091332 359.94120282 -157.52578731 357.22498992 -154.9765625 354.2265625 C-152.79186028 351.76553431 -150.48080809 349.4849599 -148.125 347.1875 C-143.81012879 342.92485113 -139.97987413 338.43267822 -136.19921875 333.6953125 C-134.13166588 331.16136671 -131.97719246 328.76852195 -129.75 326.375 C-123.97645355 320.02109706 -118.8685036 313.1732453 -113.72802734 306.30615234 C-112.02058168 304.02746744 -110.30153737 301.75787216 -108.58203125 299.48828125 C-88.17759048 272.3729952 -71.22120165 243.28266055 -56 213 C-55.51289551 212.0404541 -55.02579102 211.0809082 -54.52392578 210.09228516 C-21.66787633 145.08169799 -4.82202324 72.37935294 0 0 Z " transform="translate(1115,591)" style="fill: #000000;"/><path d="M0 0 C-1.45682649 7.92784647 -4.22199462 15.04769722 -7.25 22.5 C-10.25574822 29.94359807 -13.17648165 37.38349435 -15.8125 44.96484375 C-19.19633375 54.68737002 -22.86863459 64.29556255 -26.54501343 73.91055298 C-28.64041731 79.3916116 -30.72855562 84.87543556 -32.81640625 90.359375 C-33.24472244 91.48418777 -33.67303864 92.60900055 -34.11433411 93.76789856 C-39.41478546 107.70025228 -44.6396985 121.66088234 -49.86035156 135.62329102 C-53.19791279 144.54647183 -56.54978283 153.46346575 -59.94921875 162.36328125 C-62.83024925 169.90624039 -65.67981633 177.46043457 -68.5078125 185.0234375 C-68.88688248 186.03691757 -69.26595245 187.05039764 -69.6565094 188.09458923 C-71.20427839 192.23402003 -72.75136338 196.37370369 -74.29638672 200.51416016 C-81.6608657 220.2440702 -81.6608657 220.2440702 -85.1796875 228.9140625 C-87.49175822 234.62614433 -89.57924323 240.38690303 -91.60307312 246.20480347 C-94.94945901 255.78727363 -98.58564196 265.26136648 -102.1875 274.75 C-102.9477487 276.75685764 -103.70783801 278.76377567 -104.46777344 280.77075195 C-106.31616137 285.6511031 -108.16665848 290.5306512 -110.01776123 295.40997314 C-111.3794405 299.00053177 -112.73866538 302.59201696 -114.09765625 306.18359375 C-121.02134098 324.47250199 -128.01018057 342.73627825 -135 361 C-154.47 361 -173.94 361 -194 361 C-193.25359057 357.26795286 -192.45406651 354.25766063 -191.13330078 350.75195312 C-190.74803223 349.72368912 -190.36276367 348.69542511 -189.96582031 347.63600159 C-189.54655273 346.52893356 -189.12728516 345.42186554 -188.6953125 344.28125 C-188.26041504 343.12386826 -187.82551758 341.96648651 -187.37744141 340.77403259 C-186.20588849 337.65861893 -185.03094654 334.54452704 -183.85428619 331.43104172 C-182.63448078 328.20117782 -181.41882765 324.96975161 -180.20263672 321.73852539 C-177.8685993 315.53959737 -175.52950379 309.34259333 -173.18847656 303.14630127 C-172.18200796 300.48183691 -171.17649235 297.81701821 -170.171875 295.15185547 C-165.90005314 283.81964146 -161.5840184 272.50506712 -157.22265625 261.20703125 C-156.88985657 260.34424057 -156.55705688 259.48144989 -156.21417236 258.59251404 C-154.57920078 254.35392037 -152.94196971 250.11623802 -151.29931641 245.88061523 C-148.4533099 238.52280336 -145.67100189 231.15560871 -143.08203125 223.703125 C-139.15190159 212.40370133 -134.73678876 201.28992544 -130.38623047 190.14746094 C-126.52179868 180.24049403 -122.70872033 170.33342982 -119.21788025 160.2881012 C-116.49508262 152.48261725 -113.52934696 144.77184505 -110.56698608 137.05477905 C-108.80769767 132.47079448 -107.05617558 127.88384456 -105.3046875 123.296875 C-104.76726173 121.88978523 -104.76726173 121.88978523 -104.21897888 120.45426941 C-100.50235702 110.71344386 -96.8407664 100.95222726 -93.1875 91.1875 C-91.94032549 87.85538587 -90.69292252 84.52335734 -89.4453125 81.19140625 C-89.1478009 80.39684525 -88.85028931 79.60228424 -88.54376221 78.78364563 C-84.06963039 66.8404298 -79.53834442 54.91894112 -75 43 C-74.67845947 42.1554425 -74.35691895 41.31088501 -74.02563477 40.44073486 C-69.01982501 27.29278077 -64.01092754 14.14600438 -59 1 C-39.32644064 0.33710383 -19.68751623 -0.17798172 0 0 Z " transform="translate(570,365)" style="fill: #171E52;"/><path d="M0 0 C3.27167472 1.09055824 3.69525848 1.56957001 5.6015625 4.25390625 C6.08729736 4.93533691 6.57303223 5.61676758 7.07348633 6.31884766 C7.58548584 7.05925293 8.09748535 7.7996582 8.625 8.5625 C9.42296997 9.7079126 9.42296997 9.7079126 10.23706055 10.87646484 C15.34145994 18.31428206 19.86367161 25.98713224 24 34 C24.31807617 34.61552734 24.63615234 35.23105469 24.96386719 35.86523438 C33.22926702 52.11965704 37.99257458 69.06446667 41 87 C41.11859375 87.68239746 41.2371875 88.36479492 41.359375 89.06787109 C44.28874689 106.42178403 44.0697742 124.68873344 41 142 C40.84934082 142.88236328 40.69868164 143.76472656 40.54345703 144.67382812 C34.5556215 178.88674429 19.64128194 210.21034754 -4.01171875 235.82421875 C-5.60706821 237.57001374 -7.09935732 239.33288102 -8.5625 241.1875 C-11.75119422 244.86676256 -15.25512564 247.89743181 -19 251 C-19.53447754 251.44682129 -20.06895508 251.89364258 -20.61962891 252.35400391 C-29.00766622 259.33903525 -37.46984716 265.6181382 -47 271 C-47.61504395 271.35658691 -48.23008789 271.71317383 -48.86376953 272.08056641 C-64.20070884 280.9283581 -80.49947903 286.89227207 -97.6875 291.0625 C-99.02409668 291.38686035 -99.02409668 291.38686035 -100.38769531 291.71777344 C-106.60911349 293.1302955 -106.60911349 293.1302955 -110 292 C-83.35735993 220.87032867 -83.35735993 220.87032867 -74.22265625 197.20703125 C-73.88985657 196.34424057 -73.55705688 195.48144989 -73.21417236 194.59251404 C-71.57920078 190.35392037 -69.94196971 186.11623802 -68.29931641 181.88061523 C-65.4533099 174.52280336 -62.67100189 167.15560871 -60.08203125 159.703125 C-56.15190159 148.40370133 -51.73678876 137.28992544 -47.38623047 126.14746094 C-42.01715944 112.38909291 -42.01715944 112.38909291 -37 98.5 C-33.10422417 87.26585735 -28.71024292 76.22193736 -24.38623047 65.14746094 C-20.4879457 55.15370757 -16.63993768 45.15905282 -13.11557007 35.02662659 C-10.59083718 27.7770613 -7.86657705 20.60727972 -5.125 13.4375 C-4.6222064 12.11791071 -4.11960187 10.79824935 -3.6171875 9.47851562 C-2.41329725 6.31830371 -1.20756229 3.15881016 0 0 Z " transform="translate(725,431)" style="fill: #171E52;"/><path d="M0 0 C15.44718259 4.58746816 29.9593981 9.99709369 44 18 C37.43879102 37.23576285 30.19936902 56.21215169 22.8359375 75.15234375 C22.44051003 76.17029778 22.44051003 76.17029778 22.03709412 77.20881653 C20.77396176 80.45958584 19.50768478 83.70901712 18.2355957 86.95629883 C15.73667288 93.36894718 13.34540762 99.79820712 11.08203125 106.296875 C7.67914763 116.05612507 3.89607537 125.65716986 0.10449219 135.27050781 C-3.33669055 144.00697502 -6.66615132 152.76084841 -9.75556946 161.62823486 C-12.58376573 169.72527874 -15.63572421 177.73515204 -18.6875 185.75 C-19.30469772 187.37509707 -19.92171936 189.00026103 -20.53857422 190.62548828 C-21.77626238 193.8857666 -23.01495766 197.14565954 -24.25439453 200.40527344 C-25.81883875 204.52101615 -27.37731344 208.63897579 -28.93359375 212.7578125 C-32.63435098 222.54699775 -36.3435519 232.33214172 -40.13671875 242.0859375 C-40.40206421 242.76876801 -40.66740967 243.45159851 -40.9407959 244.15512085 C-42.21200072 247.42511651 -43.48635799 250.69378463 -44.76611328 253.96044922 C-47.26434921 260.3717516 -49.65508604 266.79962451 -51.91796875 273.296875 C-55.32085237 283.05612507 -59.10392463 292.65716986 -62.89550781 302.27050781 C-66.04373956 310.2632317 -69.1227783 318.25795122 -71.9375 326.375 C-75.36032045 336.01478004 -79.20088832 345.50222081 -83 355 C-99.83 355 -116.66 355 -134 355 C-130.29755611 344.50974232 -126.56555864 334.14705288 -122.43359375 323.83984375 C-120.20980818 318.23654175 -118.13884655 312.59807441 -116.15625 306.90625 C-112.72715299 297.07954293 -108.92261138 287.41011063 -105.10449219 277.72949219 C-101.97256788 269.7781696 -98.89618578 261.82415064 -96.09375 253.75 C-92.16246493 242.43372802 -87.74271111 231.3050935 -83.38623047 220.14746094 C-79.50905642 210.2078276 -75.68909872 200.26771799 -72.19055176 190.18798828 C-69.07900066 181.27298322 -65.56837655 172.51196889 -62.10449219 163.72949219 C-58.66034422 154.98549686 -55.32805238 146.22392738 -52.23536682 137.34910583 C-49.44693881 129.36554104 -46.44486144 121.46563234 -43.4375 113.5625 C-42.8270314 111.9540646 -42.21668238 110.3455838 -41.60644531 108.73706055 C-34.50878061 90.03922178 -27.39462516 71.34674919 -20.17578125 52.6953125 C-16.35707476 42.82337868 -12.57442845 32.96000978 -9.12866211 22.95117188 C-6.41840144 15.16805896 -3.20979958 7.58766232 0 0 Z " transform="translate(633,371)" style="fill: #171E52;"/></svg>