<?xml version="1.0" encoding="UTF-8"?>
<!-- Generator: visioncortex VTracer 0.6.12 -->
<svg version="1.1" xmlns="http://www.w3.org/2000/svg" width="1000" height="1000">
<path d="M0 0 C330 0 660 0 1000 0 C1000 330 1000 660 1000 1000 C670 1000 340 1000 0 1000 C0 670 0 340 0 0 Z " fill="#EFF2F9" transform="translate(0,0)"/>
<path d="M0 0 C0.66 0.33 1.32 0.66 2 1 C1.606191 1.478887 1.606191 1.478887 -0.386719 3.902344 C-6.748692 11.66855 -12.984596 19.51079 -19.055908 27.506348 C-22.954877 32.640951 -26.90338 37.733943 -30.875 42.8125 C-36.544358 50.071116 -42.083748 57.420511 -47.591797 64.802002 C-51.722437 70.327003 -55.869452 75.839794 -60.248047 81.172119 C-62.443589 83.868449 -64.175136 86.326746 -65.832031 89.417969 C-68.232654 93.648118 -70.376134 97.082539 -75.15332 98.75293 C-81.084782 100.072849 -87.110474 100.4119 -93.163574 100.76123 C-97.431562 101.026859 -101.683244 101.396368 -105.941406 101.785156 C-151.628919 105.895668 -196.239288 105.514227 -241.938354 101.367676 C-246.380723 100.964801 -250.823629 100.568028 -255.266602 100.171875 C-256.074578 100.099823 -256.882554 100.02777 -257.715014 99.953534 C-260.229275 99.729378 -262.743544 99.505312 -265.257812 99.28125 C-267.817897 99.053017 -270.377979 98.824757 -272.93806 98.596486 C-274.665779 98.442453 -276.393502 98.28846 -278.121228 98.134509 C-282.45833 97.747999 -286.795372 97.360842 -291.132294 96.972321 C-317.067106 94.649922 -342.998344 92.440109 -369 91 C-369.619636 90.965437 -369.619636 90.965437 -372.755371 90.790527 C-379.835552 90.413488 -386.911302 90.14386 -394 90 C-395.036567 89.978086 -396.073135 89.956172 -397.141113 89.933594 C-431.555424 89.316758 -465.712934 92.504081 -499.5 99 C-500.732988 99.236865 -501.965977 99.47373 -503.236328 99.717773 C-510.920369 101.250837 -518.41545 103.146783 -525.935547 105.328125 C-529 106 -529 106 -532 105 C-524.646963 95.410555 -517.238685 85.864948 -509.814453 76.330566 C-506.874867 72.554827 -503.937523 68.777345 -501 65 C-499.833345 63.499991 -498.666678 61.999991 -497.5 60.5 C-497.21125 60.12875 -497.21125 60.12875 -495.75 58.25 C-490.5 51.5 -490.5 51.5 -488.748779 49.248535 C-487.586046 47.753523 -486.423448 46.258407 -485.260986 44.763184 C-482.285248 40.935982 -479.306953 37.110815 -476.324219 33.289062 C-475.715137 32.507891 -475.106055 31.726719 -474.478516 30.921875 C-473.338787 29.460238 -472.198251 27.99923 -471.056641 26.539062 C-470.791416 26.19875 -470.791416 26.19875 -469.449219 24.476562 C-469.171909 24.13053 -469.171909 24.13053 -467.768555 22.379395 C-466 20 -466 20 -464.129883 16.866699 C-461.175808 12.198815 -458.960191 8.701357 -453.630615 6.794434 C-449.513813 6.195308 -445.526864 5.970984 -441.375 5.875 C-439.820868 5.797592 -438.266985 5.715028 -436.713379 5.627686 C-433.450094 5.453167 -430.187748 5.311921 -426.921875 5.195801 C-422.19062 5.02122 -417.473094 4.72554 -412.75 4.402344 C-342.818968 -0.232995 -273.595422 7.160569 -204.013672 13.470215 C-162.974989 17.184798 -162.974989 17.184798 -145.910156 18.3125 C-144.75422 18.390337 -143.598283 18.468174 -142.407318 18.54837 C-99.537084 21.162129 -43.970586 17.242291 -3.613281 1.292969 C-2.420898 0.866289 -1.228516 0.439609 0 0 Z " fill="#F16926" transform="translate(765,447)"/>
<path d="M0 0 C58.244113 5.309829 115.763987 6.762964 174.238281 6.476562 C168.793694 13.091733 168.793694 13.091733 165.523438 15.554688 C165.184172 15.81254 165.184172 15.81254 163.467285 17.117432 C162.752339 17.648445 162.037393 18.179458 161.300781 18.726562 C160.547163 19.293025 159.793545 19.859487 159.01709 20.443115 C156.764135 22.130098 154.502648 23.804941 152.238281 25.476562 C151.627427 25.931118 151.016572 26.385674 150.387207 26.854004 C98.927961 65.04009 43.019487 85.884573 -21.136719 84.351562 C-22.256481 84.328672 -23.376243 84.305781 -24.529938 84.282196 C-44.865834 83.855945 -65.150233 82.784939 -85.449219 81.539062 C-86.175433 81.494522 -86.901647 81.449981 -87.649868 81.404091 C-100.2368 80.629815 -112.823943 79.848972 -125.401001 78.926575 C-165.647857 75.975781 -208.77532 74.332375 -248.761719 80.476562 C-249.721104 80.621099 -250.680488 80.765635 -251.668945 80.914551 C-267.786212 83.463393 -283.807898 87.816371 -297.761719 96.476562 C-298.164551 96.722129 -298.164551 96.722129 -300.203125 97.964844 C-302.067993 99.116197 -303.917016 100.293169 -305.761719 101.476562 C-303.561373 94.164762 -300.510844 87.657492 -296.949219 80.914062 C-296.663289 80.369111 -296.663289 80.369111 -295.216309 77.611328 C-290.184711 68.109481 -284.877309 58.788635 -279.351562 49.566406 C-276.827373 45.34519 -274.452969 41.071162 -272.140625 36.730469 C-264.675842 22.996857 -258.780364 14.48794 -243.761719 9.476562 C-242.927534 9.172021 -242.09335 8.86748 -241.233887 8.553711 C-165.520138 -19.057721 -78.293059 -7.140989 0 0 Z " fill="#47A445" transform="translate(467.76171875,575.5234375)"/>
<path d="M0 0 C0.33 0.66 0.66 1.32 1 2 C0.034668 4.432373 0.034668 4.432373 -1.507812 7.511719 C-2.075967 8.650847 -2.644121 9.789976 -3.229492 10.963623 C-3.860661 12.205255 -4.492513 13.446539 -5.125 14.6875 C-5.441344 15.314035 -5.757688 15.940569 -6.083618 16.58609 C-12.328082 28.951208 -19.030846 41.028643 -26 53 C-26.906374 54.570241 -27.812629 56.14055 -28.71875 57.710938 C-30.352642 60.53532 -32.016299 63.338229 -33.707031 66.128906 C-35.233266 68.654499 -36.627297 71.20208 -37.949219 73.839844 C-45.551168 88.302181 -60.344827 92.101948 -75.125 96.75 C-118.960624 109.699262 -164.582737 110.067862 -209.875 108.25 C-210.960149 108.207098 -212.045298 108.164197 -213.16333 108.119995 C-243.017075 106.912682 -272.747899 104.411572 -302.49511 101.675797 C-304.677199 101.475356 -306.85937 101.275821 -309.041565 101.076538 C-310.506229 100.942659 -311.970889 100.808748 -313.435547 100.674805 C-314.161917 100.608398 -314.888288 100.541991 -315.636669 100.473572 C-319.155288 100.150931 -322.673418 99.824136 -326.190674 99.486938 C-363.212174 95.943488 -400.107094 94.678552 -437.290894 94.862671 C-442.026592 94.883737 -446.762315 94.892389 -451.498047 94.902344 C-460.665425 94.923314 -469.8327 94.957088 -479 95 C-473.547115 88.378479 -473.547115 88.378479 -470.390625 85.992188 C-469.727644 85.486794 -469.064663 84.981401 -468.381592 84.460693 C-467.678167 83.937415 -466.974741 83.414136 -466.25 82.875 C-465.876696 82.594347 -465.876696 82.594347 -463.987549 81.174072 C-461.666385 79.438252 -459.335191 77.716892 -457 76 C-456.64865 75.740334 -456.64865 75.740334 -454.870605 74.42627 C-443.680211 66.198428 -432.012171 58.960234 -420 52 C-419.251377 51.559141 -418.502754 51.118281 -417.731445 50.664062 C-385.351204 31.625346 -348.045974 17.926748 -310.207031 17.796875 C-308.83935 17.789941 -307.471669 17.782946 -306.103989 17.775894 C-301.67349 17.756452 -297.243036 17.751958 -292.8125 17.75 C-292.433382 17.749632 -292.433382 17.749632 -290.514816 17.747768 C-258.353214 17.722329 -226.402921 19.223209 -194.331985 21.653015 C-169.944747 23.48721 -145.672599 24.294328 -121.223206 24.31052 C-118.974559 24.312468 -116.725936 24.317572 -114.477295 24.32309 C-75.749829 24.393722 -32.483452 23.967969 0 0 Z " fill="#1358A5" transform="translate(837,323)"/>
<path d="M0 0 C1.367681 -0.006934 2.735362 -0.013929 4.103043 -0.020981 C8.533541 -0.040423 12.963995 -0.044917 17.394531 -0.046875 C17.773649 -0.047243 17.773649 -0.047243 19.692215 -0.049107 C46.813968 -0.070559 73.765902 0.885458 100.827637 2.766602 C107.599165 3.235651 114.37336 3.656128 121.148438 4.070312 C123.416343 4.209205 125.684246 4.348121 127.952148 4.487061 C129.045717 4.554041 130.139285 4.621022 131.265991 4.690033 C139.247108 5.182097 147.227034 5.693275 155.207031 6.203125 C155.207031 6.533125 155.207031 6.863125 155.207031 7.203125 C152.237031 7.203125 149.267031 7.203125 146.207031 7.203125 C146.267617 8.466809 146.328203 9.730493 146.390625 11.032471 C146.618784 15.816607 146.84096 20.601006 147.061523 25.385498 C147.156951 27.438306 147.253903 29.491045 147.352539 31.543701 C147.987074 44.775046 148.347157 57.956341 148.207031 71.203125 C131.08115 67.69519 114.3 62.943196 97.462646 58.271973 C61.511959 48.3154 26.340356 41.390535 -10.792969 38.203125 C-10.792969 52.393125 -10.792969 66.583125 -10.792969 81.203125 C-17.093345 81.203125 -23.147517 81.123567 -29.386719 80.582031 C-31.013016 80.449807 -32.639318 80.317648 -34.265625 80.185547 C-36.749995 79.978958 -39.234202 79.7706 -41.718262 79.560303 C-69.8279 77.198411 -97.866839 77.067174 -126.053894 77.13446 C-130.888789 77.144867 -135.72369 77.149294 -140.558594 77.154297 C-149.970066 77.16488 -159.381515 77.181845 -168.792969 77.203125 C-163.340083 70.581604 -163.340083 70.581604 -160.183594 68.195312 C-159.520613 67.689919 -158.857632 67.184526 -158.174561 66.663818 C-157.471135 66.14054 -156.76771 65.617261 -156.042969 65.078125 C-155.29636 64.516819 -154.549751 63.955513 -153.780518 63.377197 C-151.459354 61.641377 -149.12816 59.920017 -146.792969 58.203125 C-146.441619 57.943459 -146.441619 57.943459 -144.663574 56.629395 C-133.47318 48.401553 -121.80514 41.163359 -109.792969 34.203125 C-109.044346 33.762266 -108.295723 33.321406 -107.524414 32.867188 C-75.144173 13.828471 -37.838943 0.129873 0 0 Z " fill="#126EB6" transform="translate(526.79296875,340.796875)"/>
<path d="M0 0 C0.33 0.165 0.33 0.165 2 1 C1.212383 1.957773 0.424766 2.915547 -0.386719 3.902344 C-6.748692 11.66855 -12.984596 19.51079 -19.055908 27.506348 C-22.954877 32.640951 -26.90338 37.733943 -30.875 42.8125 C-36.544358 50.071116 -42.083748 57.420511 -47.591797 64.802002 C-51.722437 70.327003 -55.869452 75.839794 -60.248047 81.172119 C-62.443589 83.868449 -64.175136 86.326746 -65.832031 89.417969 C-68.232654 93.648118 -70.376134 97.082539 -75.15332 98.75293 C-81.084782 100.072849 -87.110474 100.4119 -93.163574 100.76123 C-97.431562 101.026859 -101.683244 101.396368 -105.941406 101.785156 C-114.95584 102.596186 -123.971863 103.357303 -133 104 C-133.70984 104.050858 -134.419681 104.101715 -135.151031 104.154114 C-147.099117 104.983128 -159.017424 105.15644 -170.991943 105.130371 C-173.986215 105.124911 -176.980342 105.130406 -179.974609 105.136719 C-181.888021 105.13606 -183.801433 105.134782 -185.714844 105.132812 C-186.605339 105.134837 -187.495835 105.136861 -188.413315 105.138947 C-189.235903 105.135794 -190.058491 105.132642 -190.906006 105.129395 C-191.626708 105.128599 -192.347409 105.127803 -193.089951 105.126984 C-195 105 -195 105 -198 104 C-199.003839 94.000374 -199.296833 84.023551 -199.535156 73.984375 C-199.578265 72.275159 -199.621681 70.565951 -199.66539 68.85675 C-199.778584 64.398489 -199.887644 59.940137 -199.995789 55.48175 C-200.107284 50.916155 -200.222764 46.350661 -200.337891 41.785156 C-200.562453 32.856864 -200.78264 23.92847 -201 15 C-202.32 14.67 -203.64 14.34 -205 14 C-194.149449 14.582488 -183.332431 15.362047 -172.507385 16.301422 C-121.362129 20.679361 -47.613906 23.806953 0 0 Z " fill="#F5872C" transform="translate(765,447)"/>
<path d="M0 0 C14.691814 0.559084 29.311654 1.494729 43.957031 2.777344 C45.966671 2.950701 47.976331 3.123838 49.986008 3.296768 C54.148248 3.656015 58.31018 4.018595 62.471924 4.383545 C67.785587 4.84913 73.100033 5.305011 78.414754 5.758338 C82.544217 6.111829 86.673175 6.470962 90.802008 6.831728 C92.762122 7.002219 94.722398 7.170858 96.68284 7.337538 C99.416465 7.57069 102.149302 7.811605 104.88208 8.054443 C105.278754 8.087466 105.278754 8.087466 107.286163 8.254578 C112.643946 8.74172 117.776291 9.718767 123 11 C123.739182 15.699248 124.164255 20.276138 124.297119 25.030029 C124.316772 25.694526 124.336425 26.359023 124.356674 27.043655 C124.420049 29.220419 124.477712 31.397291 124.535156 33.574219 C124.578267 35.104892 124.621683 36.635557 124.66539 38.166214 C124.75603 41.369454 124.844026 44.572752 124.929932 47.776123 C125.039234 51.8497 125.153465 55.923119 125.269509 59.996509 C125.359298 63.158067 125.447241 66.319675 125.534575 69.481302 C125.57607 70.981372 125.617926 72.481432 125.660173 73.981482 C125.902662 82.656121 126.0479 91.321613 126 100 C117.967184 100.117516 110.079637 99.806632 102.081055 99.082031 C100.957642 98.984496 99.834229 98.88696 98.676773 98.786469 C95.008024 98.466727 91.339967 98.139679 87.671875 97.8125 C85.110737 97.587844 82.549559 97.363648 79.988342 97.139893 C73.964142 96.612488 67.940365 96.080479 61.916773 95.546174 C55.051209 94.937448 48.185123 94.334702 41.31899 93.732424 C27.212077 92.49487 13.105823 91.249921 -1 90 C-1 89.67 -1 89.34 -1 89 C1.31 89 3.62 89 6 89 C5.967011 88.706907 5.967011 88.706907 5.800064 87.223679 C4.875088 78.190273 4.679478 69.152694 4.464844 60.082031 C4.421746 58.371386 4.37833 56.660749 4.33461 54.950119 C4.221303 50.483626 4.112286 46.017038 4.004211 41.550415 C3.892806 36.978206 3.777276 32.4061 3.662109 27.833984 C3.437406 18.889419 3.217242 9.944749 3 1 C2.01 0.67 1.02 0.34 0 0 Z " fill="#F37729" transform="translate(441,451)"/>
<path d="M0 0 C0.676637 0.012025 1.353274 0.024049 2.050415 0.036438 C6.763648 0.123834 11.475337 0.241728 16.1875 0.375 C16.786632 0.390348 16.786632 0.390348 19.818604 0.468018 C20.965144 0.506931 22.111685 0.545845 23.292969 0.585938 C23.785511 0.601648 23.785511 0.601648 26.278076 0.681152 C31.884852 1.16147 37.438124 2.144327 43 3 C43 14.55 43 26.1 43 38 C30.628847 35.750699 30.628847 35.750699 26.453857 34.598877 C25.509428 34.34111 24.564998 34.083343 23.591949 33.817764 C22.606411 33.544035 21.620872 33.270305 20.605469 32.988281 C18.424599 32.392113 16.243689 31.79609 14.062744 31.200195 C12.938692 30.891344 11.814639 30.582493 10.656525 30.264282 C-5.321235 25.880529 -21.299292 21.508184 -37.4375 17.75 C-38.556809 17.487434 -39.676118 17.224868 -40.829346 16.954346 C-65.638793 11.313835 -89.974513 10.618566 -115 15 C-114.922457 15.271557 -114.922457 15.271557 -114.530045 16.645798 C-113.92455 19.335111 -113.708581 21.91642 -113.519287 24.667236 C-113.43928 25.805544 -113.359272 26.943852 -113.27684 28.116653 C-113.194506 29.342728 -113.112173 30.568803 -113.027344 31.832031 C-112.939975 33.09714 -112.852605 34.362249 -112.762589 35.665695 C-112.578521 38.342865 -112.395853 41.020086 -112.215576 43.69751 C-111.985429 47.113813 -111.749999 50.529726 -111.512794 53.945546 C-111.285961 57.220036 -111.063017 60.49479 -110.839844 63.769531 C-110.755486 64.989533 -110.671128 66.209535 -110.584213 67.466507 C-110.21436 72.989924 -109.89129 78.463889 -110 84 C-115.587298 86.221684 -121.13925 86.685155 -127.0625 87.3125 C-150.301973 90.024569 -170.652559 95.584979 -190 109 C-190.33 108.34 -190.66 107.68 -191 107 C-190.039386 104.736592 -189.012471 102.611998 -187.875 100.4375 C-187.516641 99.739875 -187.158281 99.042251 -186.789062 98.323486 C-185.978306 96.748423 -185.163938 95.175215 -184.34668 93.603516 C-182.924358 90.853763 -181.527703 88.091885 -180.132812 85.328125 C-172.639819 70.583925 -164.54226 56.290816 -155.920898 42.182129 C-154.581303 39.962976 -153.281271 37.742196 -152.008789 35.48584 C-148.333409 29.065576 -145.268333 24.188329 -138.375 21.125 C-138.013821 20.950171 -138.013821 20.950171 -136.186035 20.06543 C-94.336021 0.630329 -45.32468 -0.821109 0 0 Z " fill="#18926B" transform="translate(353,568)"/>
<path d="M0 0 C0.959188 0.029966 1.918377 0.059931 2.906631 0.090805 C28.197553 0.867167 53.461047 1.13357 78.762878 1.068665 C83.330846 1.058136 87.89882 1.053806 92.466797 1.048828 C101.311214 1.038339 110.155602 1.021449 119 1 C113.555412 7.615171 113.555412 7.615171 110.285156 10.078125 C109.945891 10.335978 109.945891 10.335978 108.229004 11.640869 C107.514058 12.171882 106.799111 12.702896 106.0625 13.25 C105.308882 13.816462 104.555264 14.382925 103.778809 14.966553 C101.525854 16.653535 99.264366 18.328378 97 20 C96.389146 20.454556 95.778291 20.909111 95.148926 21.377441 C57.265951 49.489057 6.674292 78.569524 -42 78.0625 C-42.567187 78.057988 -42.567187 78.057988 -45.4375 78.035156 C-45.860313 78.029355 -45.860313 78.029355 -48 78 C-48.315761 74.646132 -48.626952 71.291854 -48.9375 67.9375 C-49.024512 67.013887 -49.111523 66.090273 -49.201172 65.138672 C-49.941919 57.100197 -50.489334 49.055881 -51 41 C-50.501858 40.99009 -50.501858 40.99009 -47.980957 40.939941 C-44.189736 40.86233 -40.398824 40.773892 -36.60791 40.682617 C-34.984927 40.644955 -33.361877 40.610009 -31.73877 40.578125 C-29.369881 40.531071 -27.001423 40.473359 -24.632812 40.414062 C-23.93826 40.402511 -23.243707 40.39096 -22.528107 40.379059 C-13.914141 40.141139 -5.657274 38.961919 3 38 C3 25.79 3 13.58 3 1 C2.01 0.67 1.02 0.34 0 0 Z " fill="#A2B452" transform="translate(523,581)"/>
</svg>
