<svg xmlns="http://www.w3.org/2000/svg" width="637" height="637" fill="none"><mask id="a" width="637" height="637" x="0" y="0" maskUnits="userSpaceOnUse" style="mask-type:alpha"><path fill="#D0B19C" d="M0 0h637v637H0z"/></mask><g mask="url(#a)"><path fill="#D0B19C" d="m130-22 1 1c0 6 2 9 7 9 2 3 3 6 2 11 6 4 10 10 11 16 1-3 3-4 6-5 4 0 13 5 13 9-12 15-6 20 18 17l5 4c7-5 7 3 6 8 3 6 4 13 5 20 11 0 12 4 8 12l2 11c14 2 0 22-7 26 11 1 5 8-3 9l-5 10c5 3 3 7 1 11 9-8 6 7 3 13 0 4 0 9-2 13l1 3v1l-2 4c3 2 5 3 2 6 3 1 3 3 2 6l-4 9c-3 7-5 15-3 21l-9 15c2 5-1 9-5 12-1 2-8 4-10 2 0 3-4 6-7 7 1 2 1 4-1 6 2 2 0 5-2 6-3 16-3 30 4 45 2 5 2 9 1 14-1 7 0 14 3 22 2 3 4 9 3 12 1 6 8 17 15 19l6 4c3 1 3 4 0 10l-4 25-2 3v11c2 5 0 8-4 12l-1 4c0 8 1 14-6 20 0 11-1 15-13 17l-27-1c-1 6-4 9-9 9l-19-1c-5-1-7 1-7 5-4 7-21 4-26 0 3 2 3 15 0 17 3 2-2 3-4 3-5-1-8 1-8 7-3 3-19 2-24 1l-4-2c-6 2-11 2-17-1-6 2-15 4-20 1V-22h130Z"/><path fill="#AC8970" d="m554-22 3 5c4 1 7 3 8 6-1 11 1 12 10 16 5 0 8 2 7 8l5 4c6 1 9 3 7 9 2 6 0 16-7 8-2 5-2 11-1 16 5-14 14 2 9 9 0 2 7 9 8 10 9-2 12 2 12 11h9c6 2 8 17-1 16 1 6 0 7-4 11-2 3-5 8-1 8 2 3 4 4 8 3 10-11 11-2 9 8 8 1 11 5 6 11-1 6-2 10-7 11 9 2 10 14 6 20 5 4 12 18 11 25-4 7-2 13 3 17-5-8 4-15 4-4v17c1 53 1 106-4 158-4 7-8-5-5-9-3-6-4-3-4 9 0 2-1 4-3 5-12 2-14 6-15 17l-3 2c-4-1-4 2-1 9 10 8 3 13-6 17l-1 1c10 1 10 7 4 13 1 12-3 18-11 18 7 14-5 20-6 3-13-2-8 8 1 11 10 9-5 28-17 22 1 9 0 15-10 13-3-1-1 6-1 6 7-5 15-5 14 6 4 3 5 8 4 15 7 13-14 14-18 3l-2-1c1 15-9 10-15 1-4 0-7-3-10-7l-3-1c-3 1-9-5-8-8l-1-3c12-14 15-29 14-47 1-6 3-10 8-13v-2c3-6 6-13 6-20l3-1c-2-1-1-7 2-6l1-6c4-9 6-18 6-28 7-9 9-18 7-27 3-6 5-12 6-19l2-2c-2 1-3 0-1-1l-1-1c1-3 1-6-2-9 0-3-1-5 2-6-1-8 3-16 10-22l1-4c2-17 2-34 1-51 3-2 3-5 0-9l-2-27c-2-1-3-4-2-8l-8-15c-3-1-5-4-4-7-4 2-4-5-4-8-2-1-4-6-1-8-2-3-4-7-4-11l-2-1c-1 1-3-1-3-3l-2-1-4-10c-2 0-3-2-3-4-4-4-6-8-4-13-6-1-14-6-8-12l-4-7c-3-1-4-2-1-4 2-1 4 0 6 3 6 3 9 7 8 11 8-2 8 7 7 13 4 16 16 0 12-9-12-2-11-12 1-10-1-11-10-6-12 1-13 3-19-16-7-22 1-2 0-24-1-25-5 0-7-5-6-14-3-6-3-11-2-17-8-3-10-9-5-16-9 0-14-4-14-11 2 6 1 13-7 9-8-3-13-14 1-13-3-5-1-9 7-12-6-3-8-7-7-13-2-4-2-6 0-7h27Z"/><path fill="#C5A28E" d="M186 448c3 2 4 11 1 14 3 4 4 13 2 17 3 10 10 20 17 26l-1 2c1 1 0 2-2 3h-4l-10 10c-5 2-8 5-9 9h-2c2 3 1 4-2 4-1 3-2 4-4 4-1 3-3 5-5 5 2 2 2 3-1 3 1 3 0 7-1 10 2 1 2 1 0 2h-1c1 3-3 5-5 6v2l-58 24c-1 3-3 5-6 6v2l-73 31c-1-1-3 0-4 1-2 3-4 5-9 7-3 3-7 4-9 2V526l15-1 5-2c3 0 5 3 8 3 2 1 8 0 9-1 0 0-1-7 2-4 0 1 0 5 2 6h21c5-1 2-7 3-8 0-1 12 1 12-1v-17l3-2c2 1 1 3 2 3h18c3-1 1-6 4-7 5-3 28 1 30-2s0-6 4-7c7-2 27 2 33-1 7-3 4-9 5-14 2-4 6-4 6-11 1-6-3-11 4-12Z"/><path fill="#C8A790" d="m248-22 2 2v15c-1 4 0 6 3 6 10 0 11 1 15 9 7-1 13 1 17 4 15-3 23 10 7 16 1 5 0 9-5 12 2 1 2 2-1 3 1 1 1 2-1 1h-2c-2-2-4-1-6 3-4 1-12 4-13 9h-1l-3 5c7-2 5 4-2 3-2 3-4 4-5 2l-1 6c2 3-1 5-8 6l-1 11c-5 1-7 3-5 5 1-2 6-5 7-3 2 3-7 17-11 15-2 2-2 2-2-1-2-2-3-1-4 1-2 1-3 3-3 6-3 2-3 3-4 6l-6 8c5-7 11-1 6 4 3 5-4 12-10 9l-5 16c1 0 1 1-1 1v1c1 2 0 3-2 1-1-4 3-8 2-12s-6 6-8 3c-3-2 3-7 3-11 0-3-3-1-3-3 0-3 5-12 5-12 3-3 10 0 8-6h-5c-2-4 4-6 7-9 2-3 9-14 5-17-5-3-9 2-9-1s4-3 4-3c1-3-4-5-2-12 2-8 3-1 2-4-2-4-8-1-10-3l-2-15-3-7c0-3 2-6-1-8-4 5-5-1-8-1-10-2-28 6-26-11 0-3 6-10 6-11-5 0-6-5-12-4s-2 9-6 7c-3-3-2-10-4-13-3-3-7-4-8-8v-9c-1 0-6 1-8-3-2-5-1-6-1-9h119Z"/><path fill="#A5816B" d="M554-22h106v191h-1v24c0 10 1 20-1 30v-18c-1-6-6-4-3 1 2 5 0 3 0 8s3 12 2 17c-13-1-5-12-5-17s-5-8-5-11c-2-6 3-10 2-13 0-3-6-15-8-18l-4-4 3-6-2-9c-1-2-6-2-6-3-2-5 1-3 3-5 4-2 2-5 3-8s3-3 3-6c-1-3-6-2-7-3-3-3 1-12-1-13-4-2-5 8-14 4-8-3-1-2-2-3-3-1-7 0-5-4 2-3 2 0 3-2l2-4 4-5v-6c1-2 5-2 5-2l-1-10c-1-2-9 0-11-2-3-2-1-7-3-10-3-2-7 0-10-1-2-4-10-6-9-11 1-6 3-3 2-5 0-3-3-8-3-8-3-2-3 9-7 6s-2-18 2-20c3-1 3 6 6 2 2-4 0-6-1-8 0-3 2-3 1-5 0-2-4-1-6-2l-7-6 1-4c-1-2-5-1-6-2l-9-5c-4-4-2-12-3-14-2-3-10 0-8-10Z"/><path fill="#AF8C75" d="m527-22 2 6c1 4-2 7 2 10s10 1 2 7c-8 7-4 2-5 3-1 2 2 5 1 8-2 0-11 0-10 3 3 2 12 13 13 4 0-9-3-8 0-7 6 1 2 6 5 8 2 2 11 1 13 6 0 0-5 1-4 8 1 6 4 3 7 5 2 1 0 6 0 9 0 4 3 7 3 10v12l7 1c-2 7 3 23 0 27-4 5-4 2-5 4-4 6 0 17 9 15 9-1 0-3 2-5s10-3 10-3l3 9c1 4-8 0-9 3-2 6 6 4 7 6 4 7 0 21-10 19s-5-6-5-8v-5c0-11-5-5-7-7-2-1 1-4 0-6l-8-5-4-5c-3 1-5-1-7-5-9-4-14-10-18-18-7 0-11-2-11-7-2-3-3-4-3-2 0 4-7-1-7-5-2-2-3-2-4-1-3 3-13-2-15-5-5-1-14-8-4-10 0-2 0-2 2 0 1 4 2 5 3 3 2-1 3 0 2 3l4 3c0-3 2-5 7-7 4-1 3-4-1-8 0-7-2-12-6-17-8-5-12-11-16-20-5-3-8-6-8-11-3-2-5-6-6-12-4 0-7-1-10-4-8 4-14-2-8-8h87v-1Z"/><path fill="#B08D77" d="m166 598 2 29 1 4v1l-1 2c-3-1-5 0-7 1 3 6 3 9 2 15-1 7-5 18-13 8l-3-1c-1 4-2 6-5 7 5 9 4 20-5 25v8c7 0 10 2 9 5h-21c-6-10-4-14 4-22 5 3 7 1 3-4-2 5-5 5-11 1-5 2-10 5-15 10l-3-1c-4-7-8-5-12 1-4 2-7 4-9 9-3 2-4 4-5 6H41l-2-1 1-11c-3-2-3-6-3-10-6-5-4-16 6-14l3-2c0-4 1-7 4-7 7 6 9 6 17 1 3-6 7-7 11-4 2-11 6-13 10-7 3-2 7-2 10-1v-2c2-1 2-3 0-6 3-11 3-15-9-13l-2-1c-3-7 16-12 20-7 7-3 15 2 9 9-13 3-5 16 2 4l23-8c-8-5 2-13 8-17 5 1 10-3 12-7 1-5 3-6 5-5 3 2 3 3 0 5Z"/><path fill="#B7957C" d="M386-22c2 2 4 2 7 0h47v8c3 1 7-1 9-1s3 3 5 3l6 1 3 11c3 3 3 1 3 1l1 7c1 2 5 2 7 5 4 4 3 8 5 11l13 12c3 5 2 10 3 14 2 5 9 5 2 10-8 6-7 3-9 5l-4-3-2-2-3-3h-2c-3 3-5 2-6-2 0 4-1 5-5 3l-6-3c-3 1-5-1-5-4-2 0-3-1-2-3-2 1-7-1-7-3l-4 1c-5 3-10 6-14 0-3 1-6 0-7-3l-2 1c-1 0-15-6-14-8-4-2 0-7 3-9 10-6 10-9 0-8-3-1-5-4-6-8-8-5-13-9-12-19-5-7-14-5-22-3-6 1-10-8-4-11h22Z"/><path fill="#BC9A82" d="M364-22c-2 14 7 7 15 7s12 2 13 7c2 4 0 6 1 9 2 3 9 7 11 9 1 1 0 6 5 7s11-2 8 5-12 6-12 13c-5 4-18 4-21-3 1 1 0 3-1 2l-3-1-26 6-2-2c-3 1-5 1-5-2 0-1 0-1 0 0 0 3-4 6-6 5-3 1-6 2-6-2-6 3-10 4-13 1-2 2-7 8-11 4-4 2-6 2-8-1-5-1-6-1-10 3l-2-1c0 7-5 9-5 1l1-3c5-7 11-10 17-11 3-6 8-11 15-14v-3c5-7 7-13 8-23-10-1-21-3-32-3-4-1-6-9-2-10h71Z"/><path fill="#AD8A72" d="M95 595c6-6 14-8 22-6l21-9c5-1 11-4 16-1 3-4 13 1 8 4l4 2-2 2c-7-2-10-1-14 5-7 0-12 3-19 7-6-1-11 0-16 1-3 10-13 11-21 12-2 2-4 3-7 2l-10 7c-3 2 6 3 8 1l2 2 5-2 3 2h6v9l-1 4 3 7-5 2c-10-1-12-3-10-14-7-2-10-2-15 4-5 2-8 3-13 3-9 3-19 6-25 13-5 0-9 6-11 10 1 6-8 10-13 10l-7 12c-2 1-3 0-3-2v-39c4-6 9-8 16-11s3-1 1-3c1-2 2-3 4-3l51-22 23-10-1 1Z"/><path fill="#926E58" d="M582 625c1 7 0 14-2 22-1 9-2 18-6 25 0 6-1 13-3 19 0 5-1 9-4 11h-36l-12-30v-2c-1-2 1-4 5-6l6-15c3-4 8-5 14-5l22-22c3-1 4 0 6 2 3-6 9-7 10 0v1Z"/><path fill="#886550" d="M612 592h2l25 12v-2c1-2 2-2 5-1l3-5c3 4 3 13-1 16l-1 2c-2 0-7-1-7 1 7 15 7 31 4 47-8 3-9 7-7 15-1 6-6 7-10 6-1 6 0 12 2 18l-1 1h-42l-2-2c-9 3-12 1-9-5-2-7-1-16 3-22-1-2 0-9 2-11 1-14 4-28 8-41l2-2 2 1v4c2 0 2 3 1 7 3 7 3 14-2 20l-2 30c5 2 5 1 2-2 2-9 12-8 13 2 9-2 12-7 9-15-7-3-8-12-2-16-3-8 4-11 9-4 3-5 9-9 14-6-3-9-4-17-2-27-2-2-6-3-11-2-10-7-16-7-18 1-2 2-6 5-10 4-2-2 0-9 4-11-2-7-1-11 4-11 5 1 9 0 13-2Z"/><path fill="#C29F88" d="M293-22c0 4-1 7 3 8l33 4v1l-3 17-4 6-1 5-13 8-2 6-6 1c-4 1-8 7-13 8l3-6 1-7c1-3 8-1 8-7 0-7-8-4-13-5-6-1-5-4-7-4-4-1-11 2-14-3l-2-5c-2-2-12-1-14-3s0-19-1-24h45Z"/><path fill="#A17E67" d="M0 683c3 0 2-2 3-3l6-10h6l6-5v-4c1-3 6-6 7-10 2-2 5 3 8-4l1 2c0-2 3-4 5-5l13-5c4-2 5-4 11-2v-3c6 3 8-4 13-5 3-1 7 2 11 1 1 0-4 11 1 13 3 2 7 0 7 3-4 2-4 1-6 1-2 1-4 3-7 2 2-3 1-3-3-4 1 2-2 10-3 11-2 1-4-2-5-2-3 1-4 4-6 6l-9 4c-3 0-10-6-11-5 3 8-5 9-11 9l-1 9h4c0 1-2 10 2 13l-1 12H0v-19Z"/><path fill="#B79480" d="m169 632 1 1 4 26 5 6c3-1 4 0 3 1 3-1 8-2 9 1 1 1 3 2 1 3l-17-1c-3 2-9 0-12-2h-1c-3 0-5 1-5 5 1 8 3 18 6 26l-1 4h-16c-1-4-10-2-11-5v-9c0-1 4-2 6-5l2-10c0-3-4-6-3-9 1-4 2-2 3-3 3-3 0-8 8-5 2 1 3 5 7 5 0-7 6-13 4-20-2-8-4-4-3-7 0-2 7-3 10-2Z"/><path fill="#916E58" d="M646 612v17l-1 17v16l-1 17v23h-18c-1-4-7-19-2-21 4-3 6 2 8-3 3-4-1-6 0-10 2-6 8-6 9-7 1-2 2-24 1-28-1-8-15-24 4-21Z"/><path fill="#9C7963" d="M0 643v-5c7-1 12-8 18-9 8-2 5 3 0 5l-9 3c-3 2-4 7-9 6Z"/><path fill="#9C7A64" d="M189 425c3 0 4 3 4 9l-1 12c7-6 12 7 5 11 5-2 7-1 6 3 3 2 2 6-1 7l5 11h1c5-2 6 1 5 5 1 4 3 9 7 6l11 13v2c2 1 6 3 5 6 3-1 6 1 7 7 3 1 5 5 3 7 2 3 4 5 7 5l3 2c7 1 14 11 14 18h3c4 4 8 9 13 10-4-3-5-11 0-6 2-2 2-1 2 1 5 0 9-4 12-7h2c2-1 4 2 3 4 2-1 3 2 3 4l1 2c-4 4-8 11 0 14l-1 4c4 1 9 8 3 6l-1 1c-3-1 0-2 1 1s0 1-1 1c2 3 0 3-2 1-5 2-10-1-13-8l-25-14c-10-9-20-15-31-21l-7-11c-2 0-5-1-7-4l-2 1c-2 0-16-11-11-13 3-4-1-9-5-4l-3-1h-1c0-2 1-3 2-3l1-3c-8-6-13-15-17-24 2-5 1-13-2-18l-1-14v-9l3 3c1-4-2-5-2-5l2-12Z"/><path fill="#B08D75" d="m201 296 1 1c1-13 4-16 8-9l-3 6c8 1 7 8-1 6l-2 3c10 3 5 9-4 7 0 1-3 17 1 16 2 5 3 11 2 17 2 2 3 4 1 6 3 5 5 10 6 16 3 1 3 4 3 7 5 1 6 5 3 11 3 3 2 6-2 7 4 3 4 4 1 8-1 7-2 15 0 23-20 9-15 32-1 44 5 5 8 10 10 17 7 3 11 9 15 16l3 1c3 2 3 14 3 18h-1l-8-7-1-2-2-9c-5 2-10-4-12-9l-6-5c0-5-2-7-7-6h-1l-5-12 1-4c0-2-4-1-1-5-1-1-6 3-7-1-1-3 2-2 2-3 2-2 1-6-1-8s-3 5-5 5c-3-9 3-19-2-26l4-29c2-8 4-4 2-10-2-1-3-2-2-3 0-2 1-2 3-3-1-14-3-28-7-41-3-13 1-2 2-2l-2-1c-2-2 1-35 9-36 0-3 1-9 3-4Z"/><path fill="#B5937C" d="M202 177c2-8 16 0 8 5 1 3 1 8-2 10 2 6 1 10-2 16h1c1-3 2-4 4-5 0-1 0-2 1-1l7-4c4-3 7-6 7-10 3-1 5-2 6-5h2l4 2c3 5-3 8-7 8l-3 3c1 2-1 3-4 4-1 4-4 8-8 11 7 4-14 22-12 12l-3-1v1c6 3 0 13-5 15-3-1-4-1-2 2-2 3-3 5-3 9 4 2-2 6-4 2l-4-1c0-3 3-6 3-7v-7c1-3 11-13 9-15-2-3-4 1-3-2 4-2 2-6 3-9l2-8 6-11c1-3-9-1-1-7-6-2-5-4 0-7Z"/><path fill="#A8856E" d="m206 157 3-10c4-2 6 3 7 6 2-1 5-2 7 2 6 0 5 7 1 10-6 3-6 4-4 11l-2 3c-5 8-6 15-6 24 2 6 0 2-2 3l-1 3c-1 1-6 2-6 0s6-11 4-12c-1-1-4 2-3-3h2c-2-4 2-3 2-5v-8h-3c2-6 5 2 7-3-5-2-5-3-10-1v-1l-1-3 2-8 8-5-6-2 1-1Z"/><path fill="#72523D" d="M170 260c4-1 1 6-2 5 1 1 1 3-2 5 2 2 1 4-1 4 2 2 1 10-2 11l1 18c3 0 4 2 2 5 4 3 5 6 3 8 3 1 4 4 3 9l2 1c-1 5 0 8 4 10h1l6 1 5 10c2-1 3 4 2 5-2 3-7 0-4-3 0-3-13-8-14-8-2 6 4 24 10 26l-1 3 11 11-1 2 2 3-6-3c-6-2-14-13-15-19l-3-12c-3-8-4-15-3-23l-7-24c-2-9-1-24-1-36 5-1 3-2 5-4-2-2-1-2 1-3-1-2 2-4 4-2Z"/><path fill="#7E5D49" d="M187 251c1 2 3 2 5-1 4-1 7 3 3 5 4 3 8 15 5 19-3 5-1 0-2 0h-2l-8-16-7-3c-2 2-4 2-6 1-3 1-4-2-2-4 5-3 6-1 10-2 5-1 2-2 3-1l1 2Z"/><path fill="#BA9A85" d="M189 383c-7 4-8-5-10-8-2-4-8-3-5-11 2 4 11 16 15 19Z"/><path fill="#B5937C" d="M210 160s2 1 1 2l-7 4c0 2 2 5 1 6 0 1-4-2-3 4-2-1-2-2-2-4l1-11 2-1 2-1 5 1Z"/><path fill="#A58570" d="m173 252 2 4c2 2-3 6-5 4l-5 5-3-3h4l-2-1c0-5 3-4 4-5l5-4Z"/><path fill="#AA8B76" d="m171 352-5-18c0-7-1-4 2-5l3 23Z"/><path fill="#A37F68" d="M546 534c4-5 8 5 8 5l6 1c2 1 5 8 9 9 5 1 2-9 3-9 6-3 8 6 10 7h8c6-1 2-5 1-8v-11c-1-4-3-3-3-4 0-3 1-7-4-7-4 0-9 6-10 0-2-12 6-5 10-8 4-2 1-10 1-12 4-1 9 2 12 1 3-2 10-11 9-15-2-9-15-5-12-17 2-11 9-3 11-2 1 1 0 10 3 10 4 0-3-13-2-14 15 3 10-7 12-15 0-4 6-4 4-10l-8-1c-2-8 13-6 12-14-1-9-3-3-4-5s-4-10-3-11c1-2 4-1 6-2l1-9c3-9 15-7 16-10 2-3 1-9 2-13 0-4 2-4 2-5 3-1 3 5 6 5-1 5-3 5-1 10s0 3 3 1l-4 102c0 5-1 7-4 7 1 8-3 10-9 12-2 2-7 10-5 12 9 0 7 12 1 16s-11 10-15 16c3 8-4 11-11 13 4 9 0 25-11 16-1-3-4-5-9-6l-2 1c-9-11-21-19-33-27l-1-4c-2 0-6-3-5-5Z"/><path fill="#9C7963" d="m561 376-1-2 6-19c6-6 2-18-1-25 1-5 0-9-1-14-3-3 6-14 8-13 2 0 4 9 4 11l2-1c0-2 1-2 2 1l2 1 4 25c4 3 5 6 4 11l1 1-8 24c6 3-5 24-6 24-2 1-3-1-4-2l1-13-2-1c-1 3-1 6-4 6-6 5-9 13-9 23 2 1 1 4-1 5-1 3-7 5-8 0 1-6-1-15-8-8h-9c-4 1-10 7-13 10 4 5 3 10-4 10l-5 9c1 9-1 19-4 28 0 9-1 19-4 27 3 3-6 16-10 13-1-2 0-5 2-7l-1-11c9-15 11-33 9-51 5-6 8-13 11-21 4-6 15-15 22-13 2 0 5-2 6-4l5-16 3-5c0-3 1-2 2 0l3 5c2 3 3 3 1 0-2-1 0-4 2-4l1-1c4 2 5 1 3-3h-1Z"/><path fill="#8C6A57" d="m559 463-4 5c-5 11-1 23-5 35-4 13-8 16-12 23-5 2-7 5-6 8l-8 6c-10 5-20 11-29 18-3 5-6 11-13 13-2 2-4 4-7 3-1 3-3 4-5 2-4-3 6-14 10-14 1-3 2-3 4-3l7-7c7-6 12-12 14-19 8-9 12-17 15-28l2-2c3-8 5-17 6-26 3-9 13-6 7 1-4 5-5 12-4 20l-4 4c11 6 13 5 15-7v-14c1-4 2-8 6-8 1-5 5-14 11-10Z"/><path fill="#7F5F4B" d="M565 413c1 3 2 6 1 10-2 4-2 6 0 5h1l1 12c-3 12-2 12-9 23-2 1-6 2-7 4l-3 9 1 5-3 14c-2 0-1-4-1-6l2-14-3 2-1 18c-1 3-2 11-4 12h-8l-3-2c-2-1-6 0-3-5s3-1 3-2c1-6-3-21 6-20 2 2 2 0 1-4l9-16c-2-6 1-7 5-6 3-6 4-12 5-19l2-1c1-3 3-19 5-20 2-2 3-1 3 1Z"/><path fill="#85634E" d="M499 78c2-1 5-1 9 1 1-2 1-1 2 1l2 3 10 2 9 13 9 5 6 7 1 4c-3 1-4 4-2 7l-8 6c7 1 9 10 5 15-4 7-17-5-10-9-1-6-3-12-7-17-5-3-9-7-8-13-6-9-13-16-21-24l1-1c0-3 1-3 2 0Z"/><path fill="#473122" d="m538 526 8 8 5 6c1 1 1 2-1 1h-2l-12-10-1 3c5 5-2 10-7 12l-2 2c-7 9-12 15-23 19-3 5-23 22-29 14-2-3 1-7 5-7l3-3c2-6 4-3 6-6 2-2 4-8 7-10 7-8 25-11 31-20 7-9 1-4 1-4 2-2 2 3 3 2-1-5 6-4 3-9l5 2Z"/><path fill="#7A5B48" d="M543 144c3 0 4-2 4-7l3-2c-3-8 3-8 6-2h2l3 7c1 3 5 5 5 10 3 2-1 12-5 13l2 1c12 1 13 7 12 18 3 2 4 4 1 5l-2-1h-3l-17-7 1-3c10-1 11-3 4-5l-1-3c-5 1-9 0-12-1s-3-5 0-7c-3-4-6-13-3-16Z"/><path fill="#896651" d="M591 352c1 1 0 9-1 11l-5 11 1 8c0 8-4 11-6 17-3 6-2 17-4 24-1 3-5 7-6 11-5-3-2-11 2-15l1-1-2-2c4-10 0-21-4-4l-2 1h-2c-3 3-1 8-2 10 0 2-3 4-4 9-5-2-3-12 1-14l1-5c0-10 3-18 9-23 1-4 2-5 1-10l3-6c2 2 1 9 1 9 0 1 2-1 3 1l-1 13c1 3 0 3 2 1 1-7 7-11 6-18s-2-3-2-5l3-11c1-3 4-6 3-10l4-2Z"/><path fill="#A1806C" d="M600 222c0 5 2 6 3 11v15c1 5 4 5 4 7l-3 4c-2 7 0 10 1 16 0 6-1 33-3 37-2 5-8 9-10 14l-1 10c0 3-3 3-3 5h-1c-3-1-5-21-3-25-3-3-4-11-4-16 0-4 0 0 1-1 0-4 2-14 6-6s1 9-2 10l3 8c2-2 2-1 1 1 4 7 7 5 10-6h2c-3-1-4-8-1-10-3-2-5-8-1-10l-1-34 2-4v-12c-2-3-2-6-1-9-2 0-2-1 0-2-3-1-3-5 1-3Z"/><path fill="#95745F" d="M547 114c3 2 7 6 6 9s-3 0-1 5c2 4 1-2 3-1 2 0 0 3 0 4h3v2c-3 10-3-2-7-3 0 2 2 6 1 8h-2c-3 4 1 10-7 6-2 1-3 0-1-2-1-3 1-8-1-10-1-3-6-2-6-4-1-4 7-5 8-7 1-1-2-3 0-6s3-1 4-1Z"/><path fill="#715442" d="M582 185c1 4 2 5 4 7 1 1 0 2-2 3 1 3 1 5-1 6-2 0-1 1 2 4l3 7c12 6 1 10-7 4 0-4-1-6-4-8-6 1-7-2-7-8l-3-6c-8-7 4-10 8-2-2-3-3-5-1-6l2 1 3-1c-2-4 2-6 3-1Z"/><path fill="#896651" d="M576 288c7-3 6 7 5 11 1 4 1 10 3 14 1 3 2 1 2 2 1 2-1 10-1 14s1 9 3 12c4 5 6 2 2 10h-2s2-4 0-7c-1-3-3-2-3-3l-1-7c0-2-2 0-2-1l-2-19c-2-2-4-8-1-10-2-5-5-11-3-16Z"/><path fill="#896953" d="M586 192c3 3 0 6 5 4l5 12c2 4 2 1 3 3 2 3 0 7 1 11-2 0-1 2-1 3-5 8-7-4-6-8l-1-8c-4 1-9-4-9-8l-1-7 4-2Zm-11-28h1l5 12 1 9-2-2 2 8c-1 1-5-4-6-4 1-3-2-3-3-4-1-4 1-9-1-13s-4-4-4-4c-2-1-7 1-7-3 2-2 5-2 8 0 0-2 1-2 3-2l3 3Z"/><path fill="#9A7862" d="M572 161s-2 1 1 4c-5 1-8-2-12-2l5-13 3-1c0 5 2 8 3 12Z"/><path fill="#6E4E3A" d="m570 434-2 6c-5 1-1-8-2-12-3-3 3-12 7-11v2c0 2-4 4-4 5l1 10Z"/><path fill="#9A7862" d="m575 164 4-2c-3 6 1 7 2 11v3c-6-2-5-9-6-12Z"/><path fill="#816150" d="M203 510h1c2 1 2 2 0 5 2 0 4 1 4 3h2c1 1 3 19 1 22 3 1 3 2 4 4 0 2 2 11 0 12l-2 5c2 3 4 10-2 7h-13c-1-4-2-7-5-8-4 2-7-1-6-5-5-2-12-4-16 0 3 3 2 13-1 16 0 4-1 5-2 1-4-4-1-13 1-17-2-1-3-2-2-4-2 0-1-4 1-4-1-2 0-4 3-6l5-9 2-3 11-9 11-10h3Z"/><path fill="#B6937D" d="M168 572c3 12 1 16-6 11v-2c-5-4-7 1-8 1l-4-2c-11-1-21 8-29 10-9 2-10-2-19 3-9 4-3 1-7 2 2-3 4-4 0-5l34-15 30-12c4-2 5-3 5-6h1c0-2 2-3 4-2l-1 17Z"/><path fill="#BB9B85" d="M187 462c6 2 2 6 3 9 1 4 2 4 3 5l-2 4 4 11 13 14-3 2c-1-3-3-1-4-3l-14-24c-1-2 2-5 2-7l-3-11h1Z"/><path fill="#D0B19C" d="M27 537c5-5 13 1 5 6-5 3-7-4-5-6Z"/><path fill="#BB9B85" d="m202 510-13 10c2-3 7-11 10-12s2 1 3 2Z"/><path fill="#B99984" d="M189 520c-3 4-8 6-8 11l-3-2 3-5c3-3 5-3 8-4Z"/><path fill="#95725E" d="M164 557c6 1 0 6-3 6s-2-1-2-1l5-5Zm5-2c-1 2-3 2-4 2v-2l2-4v1c2 0 1-4 3-3 1 2-1 4-1 6Z"/><path fill="#B99984" d="M176 532c0 6-5 9-6 14l-2 1c-2 1-2 0-2-2l1-3 5-5 4-5Z"/><path fill="#BB9B85" d="m168 547-1 4-2 4 1-10 2 2Zm-1-5 5-5c-1 3-1 7-5 5Z"/><path fill="#BA9980" d="m228 108 4-1 2 1 3 1c3-3 7-1 3 3l1 3c-5 5-9 11-11 17-4 3-7 8-9 13 2 3-1 9-5 8s-2-2-5-5c-3 3-2 5-5 9 2-5 1-9 3-13 1-5 4-14 7-11 3 2-4 5-3 7 10 0 9-5 8-13-3-1-3 5-5 5l-4-5c4-2 4-3 6-6 3-4 2-5 2-6 2-2 5 0 3-8l5 1Z"/><path fill="#A5846D" d="M252 74c1-1 2 0 3 2 2 1 5 2 4 5 5-2 5 5 1 3h-2c1 3-5 8-8 6v3c-3 3-5 8-1 10 0 1-5 12-9 9v-3l-4 3c-2 0-1-4-2-4l11-13c-3-3-7 5-9 3l-2-8c4 2 13-1 4-3 7-3 1-10 8-10 8-1 2 3 6-3Z"/><path fill="#83614B" d="M291 44c5 5 5 10-3 9l-6 7c-3 6-7 9-12 2 0-2 1-3 4-5v-1c-2-3 1-4 4-4l7-3c-3-1-3-2 0-3l1-1c3 6 2 2 5-1Z"/><path fill="#C29F88" d="M285 46v3c-4 2-7 3-11 3v5l-3 3h-6c-1-4 5-6 1-2-4 5-1 0-2 0-2-8 8-7 12-10 4-2 1-10 9-2Z"/><path fill="#AE8E77" d="m264 58 3-3-1 4 8-2c0 2-2 5-4 5 0 3-1 3-2 0h-1c3 5 0 7-7 6-1 3-2 4-4 4-3 2-5-1-3-3 3-2 4-5 9-4 0-2 0-1-2-2-1-1 0-3 3-5h1Z"/><path fill="#775742" d="m253 69 3 3v3c-2-2 6-7 5 1v1c0-2 5 7-2 4l-7-7c-4-7-2-4 1-5Z"/><path fill="#95755C" d="M228 108c-1-3-1-1-2-2-5-4 0-4 1-4 0 0-1 2 2 2l1-4c1-1 2-1 2 1v6s-3 4-4 3v-2Z"/><path fill="#84634C" d="M263 58c2 3-1 4-3 5h-3l4-5h2Z"/><path fill="#96745E" d="M210 160c-6 3-3 0-5-1v-1c5 1 6-3 6-2 3 1 0 3-1 4Z"/><path fill="#C29F88" d="M282 20c2 2-3 7-4 0h4Z"/><path fill="#8F6D57" d="m421 43 4 2c2 0 4-2 5-1 0 0 0 4 3 4 5 0 6-6 13-3 1 2 4 4 7 3 3 1 4-1 4 5 3 0 7 5 9 5-2 1-1 3 0 2v-2h3s-3-5 2-5 2 4 2 4h3l-3 4c3 0 6 3 8 5l6 5c9 1 11 5 1 6l15 18c5 2 8 7 3 10 1 2-2 5-5 4-2-4-5-7-11-9-6-11-9 1-1 2l1 3c-1 2-4 3-9 2 4 5 4 11-3 9 1 6-4 5-8 3l-4-4c0-2-2-3-5-2-1 2-3-2-3-2 2 2 3 3 1 4 0 3-3 5-5 3 1 6-5 4-6-1-4 1-8-1-6-6-6-2-15-4-16-10 0-3 3-4 5-5 9-3 14-1 19 7-2 4 7 7 5 2-9-10 2-19 10-11 1 4 2 5 5 8-1 4 5 8 5 3h3c-2-2-1-3 1-3 2-2-16-35-22-37-2-6-5-8-9-8-1 1-1-4-1-5 0 0 1 6-1 8 2 2 2 4 0 5 2 2 2 3 0 4 2 5-3 2-4-2-8-2-7-4-4-10l-3-3h-11c-4 0-7-9-3-11Z"/><path fill="#997863" d="M496 72c3-1 4 5 1 6l15 14 5 8c2 3 3 2 3 2l-1 3c0 7 6 7 9 12 4 4 4 8 5 13 2 5 3 3-1 3l-1 1-6-6c-2-2-3-3-4-1h-1c-2-3-4-6-4-11-5 2-12-7-10-11v-5l-5-3-7-11-4-3c-1-2-5-4-5-6-2-3 8-1 8-3-2-2-7-1-7-1l-1-3h-4v-3c3 0 6 4 9 5 2 0 4-2 6 0Z"/><path fill="#795741" d="M500 73c3 2 3 5-1 5h-2l-1-6c-1-4-4-10 0-9 3 2 4 8 4 10Z"/><path fill="#997863" d="m507 78 1 1c-2 4 5 3 1 6-2-2-5-4-5-7-3 3-2 1-5 0l1-5c3 1 4 4 6 5 1 2 0 0 1 0Z"/><path fill="#6B4A36" d="m510 80-2-1-1-1c0-1-2-3-1-4 4-3 4 3 4 6Z"/><path fill="#65442F" d="M484 62c3 0 3 1 4 3 0 1 1 3-1 2s-2-4-3-5Z"/><path fill="#6C4B36" d="M482 60c-1 6-3 1-3-3h1l2 3Z"/><path fill="#B6937D" d="M166 585c2 3 2 5 0 7v2c-3 0-2 3-3 5l-7 7c-2 2-5 1-8 2l-9 10s3 1 3 3c2 4-2 3-5 4-5 3-12 4-16 6s-3 4-6 6c-7 3-11-5-6-10 5-4 9-2 7-7-3-4-9 0-11-1-2 0-1-2-1-2-1-1-12 1-13 2l-4 5-4 2-8-1v-5c0-2 3-2 5-3l6-5h5l1-2c7-2 13 0 19-7 7-6 2-4 2-4l9-3 7-7c4-1 4-1 4 2-3 2-7 1-8 6 7 2 10-4 16-6 7-2 6 0 9-1 2-1 1-3 2-4 6-4 8-1 14-1Z"/><path fill="#795746" d="M166 592c1-4 5-7 5-1l1 1 3 48-2 1c4 5 4 10 4 16 5 2 11 8 2 8h-4c-3-2-1-8-2-11-2-8-4-13-4-22v-1l-1-3c0-10 0-21-2-30v-6Z"/><path fill="#977562" d="M169 631c-5-3-2-6-2-9l-1-24c4 10 2 22 3 33Z"/><path fill="#AC8972" d="M380 33c-1 2 1 2 4-1 4 0 5 3 6 3h15l16 8 1 8c1 2 11-1 12 0l1 3c6 1 1 9-2 10l8 7c6 4 2 12-4 11-2 1-5-1-5-3-3 2-6-2-7-4v-1l-9-6c-2-2-9-8-9-11s3-9 6-6c4 0 4-1 1-2l-2-2c-2 1-5 0-9-2h-6c3 3-1 7-3 4l-6-3-8-1h-8c-1 2-3 1-3-1-8-1-16 0-24 1-7-3 2-9 7-8l20-4h8Z"/><path fill="#63432D" d="M446 45c3 0 5 2 7 3-2 6-2 1-3 1h-3l-1-2c0-1-3 3-5 2l6-4h-1Z"/><path fill="#74523C" d="M426 38v3c-2-1-5 0-5-2-2-4 4-2 5-1Z"/><path fill="#98755F" d="M347 35c2 2 4 1 5 2l-5 3c-1 1-3 0-2 3l12-1c4-1 9 0 12 2-1 2 3 3 3 1s6-3 7 0c-2 1 8 8 8 7-2-4 4-8 5-3h2l3-2s-4-2-3-4c3-2 6 2 8 2 2 3 2 3 1 0 5 1 5 0 9 2 3 2 4 3 1 4-3 2-5 3-3 7 2 5 6 8 7 9 2 2 5 1 8 7 0 4-1 6-3 6 0 5-4 4-7 2h-5c-2-4-5-6-10-8-4 6-10-2-4-6l-8-6c-1-6-7-5-4 2l-2 2c2 1 2 4 0 5 2 0 2 2 0 2-4 3-5 2-8-2l-1 1c5 7 3 14-5 6l-7-11v10c4 1 6 4 5 7 4 2 5 7 3 10 1 2-4 2-6-1-3 3-4 2-5-1-3-2-5 0-4 3 2 0 2 1 0 2s-5-1-6-3c-2 2-5 1-5-2-4 0-8 0-11 3-2-1-8-2-10 0h-7c-4 1-15 5-17 0l-2 1c-2-2-5-3-8-2-1-4-3-5-5-7-2 0-2-1-1-3-1-5 2-6 11-4 0-9-10-9-16-6l-9-4-1-1c-1-2 0-4 1-6h5c1 0 2 4 3 2 2-2-1-2 0-4h3v-2l3-2 1-4h2l1-2c1 0 5 2 7-1 2-4-4-2-2-6l6-5 6 2 2 2 6-2 4 2c2 0 0-4 7-4l2 1c2 5 7 3 10 0h6c3-3 2-3 7-4v-1Z"/><path fill="#A9866E" d="M322 39h6c3-1 6-4 10-3 1 0-4 5 3 4-4 3-5 1-7 2-3 2 0 4-6 3s-4-3-6-6Z"/><path fill="#C29F88" d="m347 35-4-2c-6-5 8-13 8-4 1 8-1 6-1 6h-3Z"/><path fill="#8E6B54" d="M384 32c1 2 2 4 0 4-2 1 0-2-2-2-1 5-8 7-7 0 2 1 4 0 5-1l4-1Z"/><path fill="#95725E" d="M171 589c7 0 7 7 7 13-3 8-2 14 4 18 1 5 1 6 5 9 1 1-3 13-4 15h-3c-4 3-6 2-7-3l-1-11c1-9 0-5-1-13l-1-28-4 3v-7l-4-2h6v-11c2 1 2 2 2-1l2 1 1 16-2 1Z"/><path fill="#987660" d="M585 607v1c4 3 1 15-3 17-7-7-6-1-9 1s-4-2-5-2l-10 9-7 6-6 7-12 2c-2 1-5 15-7 18s-6 1-7 4l-4-8 2-6c0-4-2-2 1-8 1-1 0-1-1-2l4-18c0-2 0 0 1 0 1-3 4-3 8 0 3-4 5-5 8-4 0-3 1-4 3-1h4c7-7 15-13 23-18 3-1 16-1 17 2Z"/><path fill="#503423" d="m594 578 2 2v1c-3 1-4 4-4 6l2 4c0 7-2 20-4 27s-1 1-2 1c-1 9-6 19-7 27l-1 17c-1 4-3 2-3 2l1 5c0 1-2-1-2 3-2 2-2 2-2-1l8-47c1-6 3-10 3-17l1-5c-2-2-2-8 1-8-2-3-1-10 2-12-1-1-2-3 0-5-3-7 7-6 5 0Z"/><path fill="#9E7964" d="M649 504v3c0 11 1 21-1 32v12l-1 45-1 9c-2-3-5-2-7-3h-2c-5 0-34-16-40-20-5-4-1-1-1-2l-3-1c-1-1 1-1 1-1 1-3-2-6-5-4-2-1-4-2-2-4 10-3 8 8 16 6 9-3 4-8 4-11 0-2-3-5-2-7 1-1 8-1 11-5s0-5 1-7c0-5 6-5 6-10 3-2 12-9 12-11l1-8s-6 1-6-4c-1-4 4-10 5-12 2-1 7-2 8-4 2-3 1-6 2-8s3-1 4-1l1-4c0 6 1 14-1 21v-1Z"/><path fill="#755643" d="m591 616 8-5c2-2 1-6 7-7 5-1 10 5 14 5 4 1 10-3 12 4l-1 16c1 4 4 8 3 12-1 3-4 0-6 0-4 0-7 5-10 7-2 1-5-7-7-3-3 4 1 4 2 6-7-1-7 7-5 11 3 4 5 1 6 7 1 5-1 8-1 9l-11 5c-4-1 0-12-10-7-4 2 2 4 3 7-3-1-3 2-6 4v-4c-2 1-3 6-3 7 0 2 3 0 2 2-2 3-8 3-8-1-1-3 5-6 5-8l1-12 1-21c1-5 4-6 4-9l-2-11 1-6c-1-2-1-7 1-8Z"/><path fill="#94725C" d="M592 587c0-2 1-6 4-6 2 0 16 9 16 11l1 5c-3-1-16-1-17 1-2 1 1 5 1 7-1 3-3 2-3 4-2 2-2 5-3 7l-1 8c-3 0-2-2-2-5l4-32Z"/><path fill="#674531" d="m639 602 6 5c0 2-3 1-4 0l-29-15-11-6c-3-2-7-7-9 1-2-2 0-6 4-7 14 6 28 16 43 22Z"/><path fill="#7B5945" d="M239 601c0-8 6-1 7 4l3 4 3 3c3 16 6 32 14 46l33 17v2c-3 0-1 1-1 3-6-2-13-4-20-8-7-3-6-1-10-2l-12-8-11-9c-4-3-3-3-2 0-2-3-5-5 1-8l11 8-16-49v-3Z"/><path fill="#B4937D" d="M229 585c3 0 11 11 11 13l-1 3c8 15 10 33 16 48 7 16 3 5 5 7h-3l-12-6-1-5v-2h-5c-3-5-20-58-18-62 3-5 1-1 2-1-3-10 7 0 6 5Z"/><path fill="#624332" d="M223 580c0 7 3 19 5 26 4 13 9 24 11 37l-1 1-2-4-3-2-14-47 2-3c-4-1-5-10-2-12 0-3 0-3 2-2 2 0 3 2 1 4l1 2Z"/><path fill="#A4806A" d="m459 655 4-2c5-8 11-14 19-19 3-5 9-5 16-2 5-4 10-4 14-2 5-2 7-1 6 3 3 3 0 11-2 13-1 3-9 5-10 6l-25 16-9 3v2l-16 6c-7 1-15 5-22 8-19 5-38 7-57 7-7-4 0-19 3-18h1c2 2 3 5 3 8 7-1 14 0 21 1l20-4 1-4c6-3 13-15 1-13h-12l-2-2-1-1 21-5c5-3 8 0 10 10 1-2 2-2 4-2 1-4 8-9 12-9Z"/><path fill="#715341" d="M524 613c5 1 3 9-1 10 3 1 2 4-1 5-1 6-1 16-4 20 0-2 0-2-2-2 0 0-2 0-1-1l3-12c0-1 0-2-2-3l3-11c1-7 3-9 5-6Z"/><path fill="#C0A088" d="M329 114c1-5 5 1 7 3 1-2 3-1 5 0 0-3 4-2 6-1l2 1c1-2 4-2 7 0 2-1 3 0 4 2 13-2 18 0 15 6 3 0 4 0 3-2-4-5 6-9 9-1 2-1 3-1 5 1 1-7 12-3 7 1 6 3 10 4 13 1h1c2 0 4 1 6 5 2 1 3 4 3 8 4 1 14 1 11-4l1-1h1c2-3 10 1 6 5 0 5 11 5 15 5 0-4 1-6 4-3 1-1 2 0 2 1 5 2 0 11-3 14l9 21c-8 9 7 23 16 26 12 8 8 23 3 34l3 27c-3 6-4 13-4 20 7 0 12 12 6 16l-1 1c-2 2-5 3-9 4-2 2-4 3-7 3-1 4-8 8-13 9l-1 1v3l-9 5c0 4-1 6-3 7 0 4-1 6-4 7 2 5 1 9-2 11l2 2-1 10c0 5-1 2-2 2l1 5c3 3 2 7-1 9l1 1c-2 4-3 8-2 13l-2 1c-1 3 0 7 3 8 1 3 1 11-3 11 3 3 1 12-3 13 1 4-1 7-5 5 0 6-1 8-4 7-3-6-10-8-10 0-3 4-9-3-5-6-2 0-2-1-2-3l1-4c0-2 0-11 2-12l2-1c-1-2 0-4 4-7 0-3 2-5 4-6l3-14-3-39c-2-5-25 26-26 32 4 4 5 26-1 28s-1 0-2 0c-5 11-10 38-2 7l2-1 1-5c6-2 17 2 10 9l-1 4c5 0 4 9-1 5l-3 5 2 6c2 1 3 1 1 2 4 7 3 15-2 24 3 7 5 14 2 22-4 0-7 2-9 4l-1 2-17 8h-8c-8 4-17 3-25 0-8 4-21 12-9 20 2 2 7 17 1 17-2 7-8 9-18 9-4 4-6 5-8 3-2 1-2-1-2-3-2-1-2 0-3 3l-2 1h-1c-1 2-3 3-5 3-3 3-5 5-8 4l-2-1h-2l-2-10c-8-2-12-5-13-13-4-5-6-8-13-8-12-14-14-23 8-22 0-3 1-6 3-8-8-5-15-24-14-32 2-7 20-20 19-3-5 9 9 12 14 8 10-9 3-27-2-36l-2-13c-8-8-20-11-15 5-3 19-11-3-9-11l-2-5c3-7 4-12-4-15l-10-14c-6 2-10 1-12-4-7 0-12-5-3-8-5-3-3-10 2-13-6-2-7-11-5-16 3-4 4-4 6-1h1c-3 10-1 13 7 10 2-1 6 5 3 7-8 4-10 8 0 11l1 7c10 4 12 7 15 16-4-10 2-33 12-12 7-1 10 2 11 6 1 19 7 37 13 54 7 5 8 9 6 17l-8 19c-3 3-12 4-16 3-5-3-16-3-10 4 5 7 20 24 11 31-6 1-8 3-6 10 2 6 8 17 9 17h5c1-2-2-13-5-14-2-4-1-19 4-18l2 10c0 4 3 9 4 12 3-2 5 3 6 5 4 1 8-8 2-10l-2-4c-3 0-5-4-2-5l-1-13c-3-1-5-3-5-7l-2-2c-2-2-1-3 1-4 7-2 13 14 11 20l3 9c6 0 10 2 13 6l7-8c0-4 1-7 3-9-9-12 3-14 13-14l1-1c-11-5-2-17 8-13l5-15 7-4c0-4 2-7 4-8 2-5 6-7 13-7 0-3 1-5 4-7-4-12 0-20 8-29l4-12c-4-11-2-21 7-32l8-11c2-3 3-5 0-6-2 14-13 22-26 26-3 6-19 10-25 8-19-10-14-20 14-29-5 0-19-1-21-5-3-5 11-5 13-5l9-4c-2 0-3 0-1-1-14 2-25-2-35-13v1c1 4 4 8 8 11 4 4 3 9-2 6-2 0-3 0-4-2l-4-10c-3 2-5 0-5-8 1-4 16-14 19-13l1 2c-2 5-1 8 1 11 0 11 15 11 22 4h1l1-6 1-3-1-1c0-3-2-6-4-9h-8c-3 2-5 2-5-2l-9 5-2-2c-1 1-3 0-4-1 0-3 12-6 14-3 10-2 24 0 30 8 6-2 23 16 21 19l-1 1v2c3 1 5 3 5 5 3-4 1-12-2-16-2-5-1-9 4-10l-12-15c-3 6-7 2-4-3-2 0-2-2 0-2 0-2 1-3 2-1 2-2 5-1 9 3 14 2 16 14 18 26 1 7 3 14 7 19 6 25 7-20 6-25 5-4 5-7 1-9l-1-27c0-3 0-4-2-5-4-11-4-23 10-23-6-2-8-7-8-17-16 1-21-3-12-17l-4-4c0-6-4-27-9-28-8 0-12-2-15-9-2-1-18 2-20 5-5 2-7 1-12-1-1 5-5 6-12 4-5 4-8 4-11-3 1 11-1 18-7 20-5-7-9-6-11 4-3 3-16-1-17-5v-10h-10l-2 6c5 2 6 6 1 13 8 10 5 12-5 16l-3 5c1 10-5 16-18 16-4 1-5 5-3 10l-7 18c-5 8-10 11-18 15 2 2 2 11 1 13-2 2-9 5-10 4-3 1-4-2-3-5 4-6 7-13 9-20l2-1c3-1 4-4 3-9 2-2 5-3 9-3-2-3 0-5 3-3 0-3 1-6 4-8-2-5-1-9 3-11-2-2-1-4 2-3 3-3 6-4 11-5-3-2-2-3 1-3-3-2-4-6-1-11-5-8-5-20 5-23 0-7 3-11 9-11-1-3 2-9 5-8 8 0 9-5 3-10-4-1-4-7-1-9-1-5 0-12 2-16-3-1-6-3-9-7-4 0-8 2-12 6-5-2-9-1-11 3 3 2 0 6-3 4l-1-1c1-3 1-5-1-6-3-2-3-4 0-5 3 1 5 0 8-2 7-1 11-3 16-6l20 6c0-9 9-10 13-3l2 1c-2-8 0-12 6-12 0-4 1-6 3-7Z"/><path fill="#BE9C84" d="M224 293c4-6 8 3 2 7l5 4v3c4 1 2 6-1 7 1 5 1 8-1 13 1 3 2 5 1 7-6 0-5 10-3 14 2 3 6 1 5 5-4-1-7 3-6 7 1 3 7 2 6 6-1 5-3-1-5 0-2 0-3 2-3 2 0 2 5 2 7 2 2 1 3 5 3 5 1 0 7-2 9-1 3 2 5 8 6 9l5 6 4 3c5 5-1 12 0 14 1 3 3 2 3 4l-1 4c1 4 1 9 4 13 4-4-3-15 0-17l9-3 11 8 2 13c4 12 10 17 6 30-1 2-4 8-6 9-5 3-15 3-17-5s4-9-1-11c-6-2-8 6-13 8l4 20 10 13-2 3c-2 5 2 7-5 7-5 1-13-2-13 5s7 10 8 14h7l6 8 4 8 9 5 3 11c-3 0-1 1 0 2l5 8h-1c-8-2-14-8-19-14-2-3-2-5-1-8l-3-1c-6-9-13-15-21-21l-1-2c-4-2-1-15-4-16-2-2-2 0-3-1l-4-7c-3-3-8-11-12-8l-1-7-8-11-8-9c-2-3 1-4-3-2 2-5-3-12-3-15s4-13 5-14c2-5 8-5 9-7 1-1-2-7-1-11l2-11 2-5c0-1-3 0-3-3-1-4 2-2 3-2 2-2-2-3-2-3l2-9c-1-2-4-2-4-2l-1-5c0-2-2-2-2-3l-4-13c-2-4-3-2-3-2l1-5c0-2-1-1-2-2v-15c-1-3-4-2-4-3l2-18h9c1-4-5-2-6-2 2-3 0-2-1-2-1-2 2-2 2-3l3-3c2-1 4 2 6-1-6 0-4-2-4-3-1-3 2-3 3-1 1-3 11-3 13 0Z"/><path fill="#755644" d="M211 515c3 6 3 3 5 5s6 8 8 6 0-2 0-2l6 5 3-1c3 2 4 9 4 11l15 8c9 5 10 8 16 12 8 6 20 10 27 16 2 3 4 7 7 8l6 2h1l7 9c-6 6-10 7-14 4 0 4-6 3-8-1-5 6-9-1-8-7-7-2-15-7-18-13-7 1-10-1-9-5h-6c-4 0-6-3-5-6-7-3-13-10-13-17-3 1-5-5-3-7-6-1-10-3-11-7-3 0-5 0-6-3 2 6 4 11 3 17l-1 1c2 1 5 7 2 8 0 3-1 3-2 1-3 1-3-1-2-3l-2-12-4-3c-1-3 6-7-1-11 4-1 1-3 1-5l-1-7c-7-5 7-13 3-3Z"/><path fill="#906F5A" d="M311 553c5 2 10 7 10 13 5-1 7 2 3 8 2 0 4 0 5 2 7-12 20 2 25 8 7 2 15 3 22 3 7 4 11 3 12-2l17-3c5-3 9-2 10 4h12c2 3-12 9-14 9-6-2-11-1-15 2l-2 2-26 2-4-2c-3 3-6 3-9 0-16-5-30-14-42-24 2 2 3 5 2 7 0 4-2 3-4 1-2 1-3 0-2-2 5 1-3-5-4-6l1-3c-1-1-3 0-5-2l-1-7c0-2-3-3-1-4l3 3-2-7 4 3s0-3 2-3c-1-3 0-4 3-3v1Z"/><path fill="#866755" d="M315 585c4 0 8 3 12 8 4 1 8 3 10 6l16 7c2-2 5-1 5 2 3 1 5 2 5 4l14 2c8 1 10 3 7 5-1 3-4 3-5 0-5 1-13 1-18-2-1 3-2 2-3-1-3 2-12-1-13-5-2 3-7-1-8-3-8-1-17-8-21-15l-6-3c-1-1 2-2-2-5 1 1 2-1 2-1 0-1 2-1 5 1Z"/><path fill="#AF8C76" d="M245 517c12 3 14 12 21 20 1 1 5 2 6 4s-3 5-2 8l-6-10c-6-8-8-5-10-6l-2-3-4 1-1-3-7-5c2-2 4 1 6-1-2-1-2-4-2-5h1Z"/><path fill="#AE8B75" d="m208 479 3-2c7-1 5 5 6 7l4 3 3 7c1 2 7 3 9 5l1 7-3-2c-4-4-9-8-11-14l-2 3c-4-2-6-6-7-9-1-4 2-5-3-5Z"/><path fill="#B08F7B" d="M204 510c2-1 5-4 7-3 3 1 4 4 5 4 0 2-3 4-5 4l-1-3c-1-1-2 5-2 6-3 0-5-2-8 1l4-9Z"/><path fill="#BE9C84" d="M300 547v7l-4-3c3 5 0 2-3 4l-3 2c-2 0-2-2-2-3 4-3 6-8 12-7Z"/><path fill="#AD8A73" d="M309 546c3-1 4 1 2 3 3 1 3 2 0 3-2 1-1 4-1 4-1 1-2-1-2-1-3-1-3-3-3-4v-2c-1-3-2-7 2-6l2 3Z"/><path fill="#BE9C84" d="M302 547c-1-2 3-8 5-6v2c-4 3 4 7-2 8l-3-4Z"/><path fill="#AE8B75" d="M207 479c-3-2-5-8-5-12 3 3 6 7 5 12Z"/><path fill="#AF8C75" d="M233 499c2 3 1 6 1 7 1 0 5-2 3 3l-1 1-5-6c3 1 2-2 2-5Z"/><path fill="#5A3C2B" d="m311 581 2 2c2 0 3 0 2 2l-1 1-4-2-2-4 3 1Z"/><path fill="#CEAE99" d="M198 274c3 0 3 0 3-3 2-2 7 3 4 6 3 0 3 1 0 2 1 2 1 5-1 8 0 5-1 8-3 9h-2l1 4-7 10c-2 6-3 21-2 27-1 3-3 2-5 0l-10-6c-1-6 0-11 1-17l-1-1c-1-1 1-11 1-13 1-3 3-11 6-12 1-3 7 0 7 2 2 0 3 3 3 6 3 0 4-8 1-9l-11-15c-3 0-6 0-8-3-3 1-4 1-5-1-2 0-3-1-2-3l3-5h-1l5-4 6-3 8 4c2 1 8 14 9 16v1Z"/><path fill="#CDAC95" d="M191 337c0 8 4 15 5 23l2 14v7l-2-1c-2 4-11-7-12-9v-4c-4-2-6-5-4-7-9-11-5-25 8-11 1 1 0 3 3 2l-1-4-3-10h4Z"/><path fill="#775642" d="m219 236 3 4c-3 5-3 10 0 16l-2 16c0 2 0 1-1 1-1 7-4 14-9 20l-3 1-2-2c1-1 3 1 1-2 6 1 2-2 1-5-4 3-3 7-4 11-2 5-2 4-2 0 2-2 0-10 3-13l-2-1c2 0 3-2 3-3 3-3 5-4 8-4-1-5 0-10 1-14-2-3-1-6 1-11-2-1-3-3-3-6-2-1-2-3 0-6-1-1-1-2 2-3-1-6 9-6 5 1Z"/><path fill="#A0806A" d="m188 349-8-4c-9 0 1 11 2 15 1 3-2 2-2 2l5 4 1 5c2 3 6 8 10 9v3h-3l-10-11s-3 3-3-3l3-1c-11-5-10-18-11-29 7 2 13 2 16 10Z"/><path fill="#BE9C83" d="M261 128c3 1 3 8 0 9v5c4 1-1 13-2 14-1 0 3-8 4-7 2 0 3-2 3-4 3-5 5-5 10-3l9-6c3-2 13 8 13 9-2 5-3 10-2 15l1 8c6 5 5 10-3 10l-5 9c-6 0-9 3-9 10-9 2-11 16-5 23-3 5-2 9 1 11l-1 3c-5 1-8 3-11 5l-2 3c-3 3-6 6-2 8 1 3-2 6-4 7l-1 4-3 3c-5 0-8 2-9 4 1 5 0 8-3 9-3 6-2 7-3 12-2 5-5 7-7 9-1 3 2 3 2 5 1 1 1 2-1 1l-5 1-2-5c0-1 5-4 3-7h-3c-5-2-9-8-6-13 2-9 4-17 4-26-2-4-4-9 0-12-2-3-3-5 0-8-1-2 1-4 2-6l5-4c-1-3 2-4 4-3 2-3 5-5 9-7 2-3 1-5-2-7 1 2 0 4-2 3l-9 1c-3-2 1-10 3-5 0-2 1-3 3-3-5-6 3-8 5-3 2 1 4-10 0-10l-2-4c-3 1-4 2-4-3-2-3-1-12 4-11l5-12 1-4-1-2c-5-2-4-7 1-9-1-3 0-5 3-8-1-3-2-7 3-7-1-2 0-3 2-3 3-9 13-8 9 1Z"/><path fill="#A7846D" d="m229 198 1 2c5 0 5 4 2 6l-2 1c-2 7 5 0 8 3 1 4-5 5-8 5 0 6-2 7-7 9-3 3-7 7-10 2-6 4-8 5-9 13l-9 4c1 5 0 10-4 6-3-4 1-7 1-9s-4-1-2-3c1-2 4 1 2-6 2 1 2 7 5 5s5-7 5-8c1-4-3-3-3-3-1-1 2-3 2-3 1-1 2 0 3 1 0 0 1 2 3 2 1-1 7-9 10-10-4-4-5-3-6 3-5 0 2-6 2-7l8-8 2-5 5-2c1-1 1-1 1 2Z"/><path fill="#94725D" d="m233 221-4 3-5 4c-1 6-3 9-5 8v-4l-5 3c-2 3-4 4-7 3l-4 8c3 2 4 10-1 9-3 6-4 4-7 0-1-2 2-4-3-3l-1 3c-1-2-3-2-4-2l-1-2c5 2 3-2 5-2h3c1-1-3-5 0-7l5-3h3s1-8 3-11c3-2 3 0 4-1 2-2 6-8 8-6 1 2-4 4-3 5 3 2 6-3 7-4l7-2c0-1-1-6 1-7 2-2 6 1 9-3 4-3 2-2 2-3 7 2 0 9-4 11l-3 3Z"/><path fill="#A8856E" d="m244 156 2 4 3-3 4 2c1 0 6-4 4 1s-4 2-5 1v-1c-2-2-2 1-2 1-1 1-5-1-7 2-3 3-3 9-3 10-1 2-4-1-5 2 4 4 0 3 0 4 0 2 1 1-1 4-3 7-6 5-8 7s-2 7-2 7l-3-1-2 3-7 3c-1-4 2-6 9-8l2-4c-12 2-11-2-4-11-1-4 8-13 11-10l7-4c-1-3 3-10 6-9h1Z"/><path fill="#93705A" d="M219 179c-2 3-1 7-4 10l9-1c4 0-1 6-1 7-3 3-8 2-11 7-2 5 0 1-1 1-2-7 0-13 3-19 4-7 2-4 4-5h1Z"/><path fill="#A6836A" d="M238 186c1 0 1-2 2-1 1 4 2 5 7 6l-2 1-2 9-3-1c-2-1-4-4-1-5 1-2-1-2-4-1-1 1-4 4-6 4l-1-2 2-4h5l3-6Z"/><path fill="#94725D" d="M201 222c2-3 0-4 5-2l-2 3c-1 0-4 3-3-1Z"/><path fill="#96745E" d="M256 93c5-3 6 4 5 9l2 2v2c5-3 6 4 1 6l1 1c6 0 3 5 1 8 0 4-1 11-5 7-1-8-7-7-5 0l-4-1c-2-2-2-2 0 0v3s3-2 3 0c0 4-7 1-7 3-1 2 4 4-2 9-1 2 1 1 3 3 0 1-7 2-8 5-1 2 4-1 3 5 0 6-1 0-1 1l-5 7c2 6-1 3-5 5-4 3-3 7-7 8-5 1 4-6 2-7l-10 10h-1v-6c0-1-5 2-4-3 5 2 2-1 5-3 2-3 8-3 7-11-4 1-5 1-4-3-3 2-4 1-6 0 3-2 7-8 1-7 4-3 5-7 7-10s2 0 2 0c0-1-4-4-3-5 7 3 6-3 8-7l10-12c3-4 3-2 4-3 0-1 1-5 3-6-1-1-5 2-5-2s2 0 2-1c3-5 1-5 6-10 3 0 5 1 6 3Z"/><path fill="#856650" d="M170 268c7-2 5 0 10 2s3 0 4 0c2 1 9 14 11 17l3-2-1 14-2-2-4 3c1-2-2-8-1-10-2-2-4-3-7-2-2 10-6 15-6 26-1 6-2 11-1 17 4 3 5 4 2 5l-2 1c-3-1-3-7-3-10-1 0-1 5-3 2-2-2 0-5 0-6l-1-7v-1c5-4 5-10 5-16s0-1 1-2l-2-2 2-17c-1-4-5-5-8-5-2-3 1-8 3-5Z"/><path fill="#D0B29C" d="M165 274c1-4 9 0 10 4 0 0 2 0 2 2l-2 17v2c0 4-2 21-9 9l-2-5-1-18 2-11Z"/><path fill="#B08D75" d="m187 337 4 8-1 2c-4-2-3-7-5-10l-6-1h-1c1-4-3-3-4-4l3-18-1 9c-1 14 7 7 11 14Z"/><path fill="#AE8F78" d="M175 297c0 6 1 7-1 12-1 6 2 4-5 7l-3-8 5 3 3-6c0-2-3-8 1-8Z"/><path fill="#AD8C77" d="M163 285c-2 4 2 4 2 6l1 9c0 1-3 0-2 3-2-7-2-12-1-18Z"/><path fill="#A58570" d="m168 265 2 3c-2 1-4-1-3 3s6 0 8 4c3 5 0 2 0 3-2-2-8-5-10-4l3-9Z"/><path fill="#856650" d="M185 337c-2 1-5 1-6-1 2-1 3-2 6 1Z"/><path fill="#B5947F" d="M203 246c1-2 2-1 4 0 7-8 8 10 3 14-6 0-6 3-3 8v2c4 3 3 8-2 7l-2-5-3 6c-2 0-1-3-2-4 2-1 1-2 1-4l-4-15c2-1 2 2 2 2 3-1 3-5 3-5 2-2 2 3 3 2v-8Z"/><path fill="#593F31" d="m535 534 2-1c3 0 11 7 13 10v-2l1-1c8 6 20 13 26 19l10 11c6 4 1 1 2 2 3 2 8 0 5 6-1-3 0-5-5-4 3 3 1 6 0 9-7 4-17 4-25 1l-8 7c-5-1-9-3-13-6-2 5-9 8-13 5-5 3-3-5-2-9 0-4 0-5-3-8-3-1-2-4 1-4-1-3-1-4-2-1-5 1-9 4-13 9-3 5-12 13-16 6 0-2-2-1-5 2-6-1-9 2-10 8 1 4-7 11-10 13-6 0-11 7-13 12-7 5-18-6-6-9 1-3 4-4 8-5l3-4c11-6 1-5-4-2-6 0-5-3-2-7 0-3 2-4 4-2 4 1 4 1 1-1s-1-5 2-5l3-4c-1-5 4-9 5-3 2-1 3-5 5-7l1 4 5-2-1 3c-1 1-6 2-5 6 5 1 9 0 14-3l15-14c4-3 5-1 7-3 6-3 8-11 14-15 5-4 8-1 9-11Z"/><path fill="#AC8970" d="M580 555c-2 2-6-2-4-4s6 3 4 4Z"/><path fill="#916E58" d="M529 298c0-2 2-2 5-2-1-6-1-19 6-12 5 1 7 0 6-4-11-1-11-28 2-16 5-1 8 1 10 7 6-1 15 9 14 15 3-1 6 13 5 15-2 0-2 1-1 5 2 0 3 5 2 7l1 10c-6-2-3-16-6-18-3-3-3 5-6 5-4 4 0 8 1 14 0 5-2 4-1 6 0 2 2 3 3 5l1 16c0 2-3 4-4 6-2 6-2 14-6 19l-3 4-2 4h-1c-4-1-5 0-3-5l-1-3c2-2 4-10 4-13-1-2-3-4-4-1 5 11-4 16-6 3l-5 5-1 1-8 4-1 3c-6 1-11 3-16 6 0 3-2 3-2 0-2-3 0-5 3-8-2-2 0-6 3-5-1-3 0-7 3-8h1c4 3 7 5 7-2 5-7 3-9-3-14-2-3 2-6 4-7-3-3-3-5-1-7-3-5 0-9 8-12-1-2-7-9-5-11l2 1c4-3 10 3 11 7l4 3c1-1-6-16-8-17l-6-2c-4 2-9 0-6-4Z"/><path fill="#94715B" d="M502 494c4-10 1-21 4-30l3-18v-7c0-3 6-11 6-11 1 0 3 1 4-1 3-3-1-5-1-7 0-4 4-5 7-7 2-1 1-2 2-3 5-3 14-1 15-2 2-1 1-4 6-2s4 9 4 14l6-2c0 2 1 3-2 5l1 9c-1 8-1 11-4 19-4 8-1 4-1 4-1 1-6-1-6-1v4l-8 17v5c-1 2-4 3-5 2l2-4c0-1 0-5-2-4-7 5-4 13-7 21l-4 9-2-3 5-24c2-5 7-15-1-7 1 4-10 30-12 30-1 1-2 0-2-1l-2-1c2-6 1-15-3-4h-3Z"/><path fill="#A6846C" d="M548 376c2 1 1 6-1 6l-5 18c-1 1-4 5-6 4-4 3-9 2-10 2v3l-8 5c-3 4-5 13-8 18s-5 5-5 7c-1 1 1 5 1 8-1 7-2 23-4 30-2 6-6 8-6 14-1 5 1 4 1 6 1 4-2 6-4 9l1 4c-2 5-4 11-7 15 0 3-1 6-4 5-2-1-2-3-2-5-3-8-5-15-1-23l7-15c-3-17 4-35 12-50 6-17 13-29 30-35 6-1 14-17 10-19-4-3-21 4-25 6-8 2-12-2-4-7 1-1 2-1 2 2h2l3-1c4-4 9-5 14-5 2-3 4-6 8-7l1-1c4-7 10 2 8 6Z"/><path fill="#765743" d="m502 494 8-16 8-7c1 6-8 12-8 17s2 2 2 3l-2 8c1 3 0 6-2 10l-16 31c0 6-1 10-4 12 2 2-1 8-4 7-4 7-4 4-6 5s-7 9-8 12l-2-1c-1 1 0 8-5 8l-1-1 3-5c-2 1-3 1-2-2l-1-2 10-9c2-3 2-6 2-10-3-7 4-17 9-22 2-2 4-3 4-7l-1-3 2-1 5-14c5-2 7-8 10-13h-1Z"/><path fill="#A48168" d="M556 384c4 1 1 2 3 3 1 2 3 1 3 3s-3 3-3 4c-1 3 0 12-6 12s-6-7-5-11 7-6 7-11h1Zm-16-14c2-3 4-8 7-9l1 8c1 4 3 1 3-2-1-3-3-4-2-6 3-5 8 0 8 5 0 6-3 4-2 7l2-1c1 1-4 4-5 7h-2l-2-3c-2-3-3-10-8-6Z"/><path fill="#94715B" d="m568 390-4 5-5 18c1-8-1-22 9-23Z"/><path fill="#A48168" d="m547 384-3 17-3 1c-2 2 0 4-5 2 4-3 6-6 6-11l5-11c2 0 1 2 0 2Zm14-8c5 0 3 4 4 7-3 0-4-2-7-3h-4c2-3 4-4 7-4Z"/><path fill="#9D7B64" d="M576 306c-2-5 1-9 3-2l1 10-2-1c0-2-2-3-2-7Z"/><path fill="#916E58" d="M548 376s3-1 2 3c-1 5-1 6-3 5v-2l1-6Z"/><path fill="#9E7C67" d="M510 499c2-1 2-2 2-4l9-17c2-8-1-11 9-14 2 6-2 10-4 14-2 6-2 18-4 25l-6 18-10 14c-2 5 1 3-4 8-6 6-12 12-16 19l-2-3 2-5c0-1-2-2-1-3 0-2 4-2 4-2 0-1-1-7 1-11 6-12 15-25 20-39Z"/><path fill="#977560" d="M573 417c-3 3-6 7-7 11-2 4-2 7-2 11l-3-1c1 3 1 16-1 16-3 0 0-17 0-19 1-3 2-1 2-2 2-5 1-13 3-20 1-6 2-4 2-4 0-3-1-4 3-7 3-3 5 3 5 6l-2 10v-1Z"/><path fill="#5B4030" d="M499 119c2-3 6-3 11 2 5 0 8 1 10 5 3-1 4-2 5 2h4l3 5 1 6c0 1 6 5 7 4s-4-4-2-5l4 4 1 2c1 4 1 9 4 14 3 4 2 0 2 1l-3 3v5c2 1 1 1-1 2 3 4-2 5-4 0-2 2-4 1-4-2-2 2-3 2-5 2l-3-2h-1c-2 3-11-3-6-5l1-3c7-1 4-3-1-4-2 2-6 0-6-3-2 0-3-1-3-3-2-1-3-1-3-3-2 2-4 2-7 0l-3 1h-1c-2-1-3-1-5 1l-1-1c0 4-3 4-3 0-1-1-1-3 1-6-5-5-8-16 2-16 2-4 4-6 6-6Z"/><path fill="#7E6150" d="M535 534c-1 0-1-2-3-2l4-4 14 13s2 2 1 3c-3-1-7-7-9-7-1-1-5-1-7-3Z"/><path fill="#5D4031" d="m546 167 14-1c0 5 2 3 3 4 3 3 5 6 0 7l-9 1c8 0 13 4 20 8 2 4 5 7 5 12-5 0-6-7-10-9-4-1-3 3-2 5v1c-3 2-6 0-8-6l-3 1c-1 1-2 1-1-1-2 0-4-1-1-2 0-2-4-5-6-5l-1-10-2-3 1-2Z"/><path fill="#715442" d="m551 202 2 1c0 3 2 4 5 5 4-3 7 1 3 5 2 7 3 9 7 2l2-1c2-1 2-2 2-4 9-7 11 7 9 14l4 2c7 7 11 15 14 24 2 2-7 6-7 6 0-1 6-4 7 0l-1 22c2 3 2 5 1 6-3 4-3 8 1 12l1 10-3 2c-1 6-5 13-9 4l-1-1-3-8c0-4 1-9-1-12-1 4 0 6-3 8l-1-1c-1-5 2-8-4-10-2 0-3-2-2-5-3 0-4-5-5-8-3-3-9-8-9-13-1-2 1-5 3-6 3-5 7 2 7 6 5 3 6 2 1-4 1-3 10-7 13-6-2-3-6-10-3-13-4-3-6-8-8-13-6-2-7 0-1 7 7 15-12 6-9-3l-11-16v-3c-3 1-5-4-3-6-3-4-1-7 2-3Z"/><path fill="#634734" d="m567 194 5 5v6c1 2 7 2 9 4l2 6c2 1 6 1 8 3 1-4-3-2-5-4-2-3-1-6-2-8l-5-5c-1-4 2-1 4 0l7 6c2 1 1-1 1-2 3-2 4 20 4 21l4-1v2c-1 3-1 6 1 9v1a167 167 0 0 1-1 13c-3 0-2-2-3-3l-6-11c-2-4-7-12-11-9 0-4 2-17-3-17-5-1 1 9-1 11-3 2-3-8-5-7v-2c-3-4-4-9-5-15l1-2v-1h1Z"/><path fill="#8C6B57" d="M599 286c-2 0-2-1 0-2l-3-6c-1-5 1-10 2-15 2-13-6-3-8-8-1-4 4-1 2-4 1-1 6 3 7-1v-2h1l1 27c0 4 2 8-2 11Z"/><path fill="#896651" d="M601 306c-1 4-5 11-9 14l-3-8c3 2 3 5 6 2s-2-10 6-8Z"/><path fill="#402A19" d="M599 284v2l1 10c-3 0-3-2-5-4-1-2-3 1 0-5 3-5 1-3 4-3Z"/><path fill="#896651" d="M588 311s-1 1-2-1l-1-7c3 1 3 5 3 8Z"/><path fill="#715442" d="M600 248h-1l-1-5c0-1 3-3 2-6v11Zm0-12c-3-2-3-7-1-9l1 9Z"/><path fill="#9C7963" d="m576 288 3 16c-4-6-2-2-2 0l-1 2c-4-4 0-6 0-8l-4-12c-1-2 0-3 2-3l2 5Z"/><path fill="#AA8771" d="M171 555c0-4 11-3 13-2s4 6 4 7h1c5-1 8 6 10 10 4-2 7-3 11-2h1c4-2 5 0 4 3l-2 2c-9-1-5 8-1 13 2 2 2 4-1 5-2 1-6 0-10-4 2 5-1 6-5 6 1 3-1 6-4 8 0 7-12 9-14 5v-9c-1-5-2-7-7-8l-1-18 1-16Z"/><path fill="#997763" d="m171 555 1-5c4 2 15 0 17 4s-1 5 0 5c2 2 2-1 2-2 2-1 6 3 7 5l1 4c0 1 10-1 11 2l-1 2-5-2-6 5-4 2c-1-1 3-4 3-6l-3-5-9-6-3-4-11 1Zm45 1 1 3 3 3c3 1 4 10 1 12l-2 2c-2-1-4-3-4-5l-4-3c6 0-1-6 0-8 0-2 3-4 5-4Z"/><path fill="#98755F" d="M269 73c2-1 3 1 4 3l7 1c5 2 4 12-1 9 0 3-3 4-5 2h-3c-2 5-10 7-11 1l-2-5 3-1v-1l-2-1c5 0-1-4 0-5 1-2 2 0 2 0 0-7 4-11 9-3h-1Z"/><path fill="#71513C" d="M258 84c4-1 4 2 2 5 2 3-1 6-4 4-3 0-6 1-6-3l8-6Z"/><path fill="#5A3B28" d="M254 82c0 3-1 2-2 3-11 5-6-4 2-3Z"/><path fill="#AE8E77" d="M285 49c-1 3-1 1-3 2l-1 2c-1 1-6 0-7 3l-2-2c0-6 4-3 6-3 3 0 2-4 7-2Z"/><path fill="#83614B" d="M268 62c2 2 0 6 0 8 3-1 4 1 1 3-1 2-3-4-5-2-1 1 0 3-3 5l-3-3v3c-5 0-3-1-2-4l2-5c1-1 9 0 9-2v-3c1-5 1 0 1 0Z"/><path fill="#98755F" d="M446 69v-4c3-1 9 3 10 6 3 2 6 5 7 9 5 6 8 9 6 17l8 5 1 3-1 5c-6 0-11-3-9-9l-3 1c2-3-2-9-4-9l-8 3c1 6 6 9 4 15-2-2-9-2-9-5v-3l-8-6c-5-2-5 1-6 1h-3c-2 0-4 3-5 3l-6-6c-9-4-3-11 5-8 2-2 3-2 6-1 0-3 3-6 5-3 5 7 5 7 0 0l1-1c5-2-4-4-1-7 3-4 4 5 5 4 4-7-7-10-8-15 2-2 8 2 10 4 1 4 3 4 3 1Z"/><path fill="#6C4E3E" d="M490 105c2-2 4-1 3 2 4 2 9 8 6 12l-4 8c-4 3-7-3-6 6s6 11 8 3c3-1 1 6 0 6l-3-1-4 6c-1 1-3 1-4-1-3 5-9 2-4-1-2-7-4-10-5-1-3 4-8 4-8-1-1 1-3-1-3-3-4 4-5-4-3-6l-4-2c-5 0-7-2-5-4-2-3-1-7 0-10 1-1 3-3 5-3 0-2 2-1 2 0v-2c2-4 6-2 5 2l-1 7c-4 3-2 6 5 7 4 8 3 5-1-7l2-3c2-1-1-5 3-3 5 3 1 4 3 2 1-2-2-4-1-5l6 2c1-4-3-6-4-9l12-1Z"/><path fill="#A9866F" d="m449 57 1-2c6 0 6 5 8 8s5 3 6 5c5 9 12 20 16 30 5 11-1 5-2 7-3-1-9-5-10-7-2-2 1-5 0-8l-7-9c-1-2-2-10-7-7 1-6-5-5-7-8l-2-3 2-3c-2-2-1-3 2-3Z"/><path fill="#81614F" d="m506 105 7 10c6-2 4 2 6 4 1 3 4 1 2 3s-3 0-2 2c3 4 1-1 4-1 2 1 2 2 2 5-1-1-1-2-2-1 0 0 1 2-1 1-4 0-6-4-7-4l-5-1-8-5c-1 4-2 1-3 1l-2-8c-2-2-2 4-4 2s1-5 0-6c2-3 7 0 7 2h1l4-4h1Z"/><path fill="#A2806B" d="m490 105-6-2c-1-1-2-8 0-9 2-2 5-1 5-1 0 1 0 3 2 5 4 3 13 4 10 11 0 0 1 7-2 4-2-3 0-3-1-4l-5-2-3-2Z"/><path fill="#A9866F" d="m435 54 5 1-3 9c4 0 9 1 7 6 3 0 2-1 2-1l7 9c1 1 3 2 0 4-6-6-11-15-20-18-1-3 4-7 4-7l-2-3Z"/><path fill="#A2806B" d="M484 82c5 5 10 10 12 17-5-1-5-5-7-7s-6-4-8-8-4-8-2-7c3 1 3 3 5 5Z"/><path fill="#694731" d="M466 58c2 1 5 2 4 4-4 0-13-1-11-7 2 3 5 2 7 3Z"/><path fill="#705039" d="m449 57-3 3-5-6 5 3 2-5 1 5Z"/><path fill="#876652" d="M382 71c1-5 2-4 5 2 0 4 0 14 3 4 8 0 9 9 8 15 3-3 7 1 3 3-1 2 1 3 7 5l-1 3c5-2 5-5 6-11 1 0 1-1-1-2-2 0-4-1-7-5-6-1-7-6-5-11 0 0 1-2 3-1l6 3 1 4h6l4 2c1-5 1-3 3-4s0-3 2-4v1c3 5 6 6 7 4 1 1 2-1 5 3l4 7c-3 2-5-8-8-5s5 10 4 10c-3-1-5-6-9-7-3-1-2 3-4 3s0-2-2-2-4 0-4 2c-1 2 3 2 4 3l4 8-3 1c-1 4-4 7-7 4-3 9-11 3-9-3-1 7-9 12-10 2-4-1-6-3-6-5l-1-1c-2 4-4-2-4-6-5-1-8-5-3-8-5-4-9-11-1-12v-2Z"/><path fill="#84624C" d="M379 45h1l9 1 4-1 1 4c-1 0-1 3-3 2l-1-4c-3 5 2 6 3 9 2 4-7-2-8-2-5-3-2-2-5-5-2-2-12-4-1-4Zm-10-1 3 1 1 1c-1 3-6 0-8 1-2 0 0 1 0 2-1 0-6-2-5-4l9-1Z"/><path fill="#98755F" d="M432 79c2 6-4 4-6 0l-1-4c3 0 4 2 7 4Z"/><path fill="#6D4D38" d="M403 45c12 7 0 9-3 3-3-5 3-1 2-3h1Z"/><path fill="#704E3B" d="M412 47c5 1 8-1 6 7-3 0-4-2-5-3v-2c-1-1-4-1-1-2Z"/><path fill="#98755F" d="M389 46v2l-9-3 9 1Z"/><path fill="#634637" d="M347 116c-5 0-7-2-9-7-4 1-4-4-3-7-2-6 0-9 4-9 3-4 5-3 5 2 3 0 5 1 6 3l1-2c4 3 5 3 3 1v-2c-2-8 5-4 6 0l4 2c3-4 7-4 8 1 5 0 8 0 10 5 1-4 3-5 7-4 3 2-1 2 0 0h1c5-4 3 2 3 3 0 0 3-2 6 1s0 5 3 6c2-2 2-6 5-6 4 7 6 10 6-1l5 4c6-6-1-9 8-5s6 4 8 5c2 2 11 3 12 4 1 2-4 2-1 5 2 1 1-1 2-2 3-1 2 1 3 3l2 1-1 2c1 3 2 0 3-1 2 3 1 7 0 10-5 0-9 2-13 4-1 1-2 1-1-1-4-1-6-5-7-9-3-3-2-2 0 4 3 4-4 10-7 6 1 3-4 4-3 0 0-2-1-3-3-3 1 1 0 1-1 1l-3 1c0-3-2-4-3-6-1 1-2-1-1-2 1 0 0 4-3 4-3 1-9-2-10-3s0-3-4-3c-3 1 1 4-3 4s-1-2-3-3l-1 3c-3 0-4-4-5-5-3-2-4 3-5 3l-3 2c-2-1 1-3-1-5-6 4-3 1-5 0-4-1-1 3-3 3 1-5-5-1-7-2s-2-3-2-4l-5-1-3 1-2 1v-2Z"/><path fill="#8F6D58" d="m369 93-2-6-3-1v-5c-1-2-5-4-8-4-1-4 3-2 4-2 1-2-3-2-3-3l2-3v-7c6 2 9 15 14 17 6 2-3-6-3-7 7-8 6 3 13 1-1 2-4 1-4 3 2 5 6 6 9 10-7 0-7 4-1 5 7 1 3-1 4-1 2 2-4 2-2 4s3-2 5-2c1 6-1 4-5 5-3 2 0 1 1 1l2 6c-3 0-4-2-4-5-2 1-3 4-5 4l-3-4c-3 0-10-5-10-6h-1Z"/><path fill="#7E5C49" d="M354 94c-2 0-1-2-2-3s-3-1-3-3c-1-1 0-5-5-5l-1 4c-2-1-1-7-1-7-1-1-9 0-9-4-6 5 1 3 0 7-4-1-6-3-9-6l4-2c-6-10 6-2 8-3-3-8-9-11-16-14 3-2 2-6 6-7 4 0 7 3 8 4l3 6 10 5c3 2 7 0 7 8l-7 2h-2c-1 2 3 3 4 5l1 6 3 1 2 2c1 1 4-1 5 3l2-4c3 0 2 5 5 2v3l2-1c1 0 1-3 3-2 2 2 0 2 0 2l3-1 1 4c2 2 6 2 6 7-3 0-3-3-4-4-3 0-9 5-9-4-2 0-3 4-3 4-1 1-7-2-7-3-1-1-2-10-5-2Z"/><path fill="#6F503D" d="M298 94c7 2 17-2 25-1 1-4 3 1 8 0s2-4 5-2v-4c4-1-1 3 2 4s1-3 2-3l4 4 4 1c3 2 3 3 2 4-4-1-10 1-7-6-2 4-4 3-7 5 0 4 3 1 5 2l1 4c-1 0-5-4-6-1-2 2 2 5-1 7 5-3 5 3 8 6s2-1 4 2c-2 2-4 1-6 1l-7-4c-4 1-5-1-3-6-7-1-9-7 0-7 0-7-7-2-10 1l-2-2c2 3 2 4 0 6l-2 3c4 7-9 4-3 0-2 0-3 0-2-2 0-6-6-11-3-1l-1 2c2-2 3 0 2 2-1 3-3 3-7 0-5 3-8 3-9-2-3 0-9-7-5-8l1-2c3 0 6-1 8-3Z"/><path fill="#A3816C" d="M382 65c0-2-2-6-1-9l6 1 3 4 8 7c2 1 4 3 3 4l-5-2c-1 4 0 4 4 4 4 2 0 5 0 7l6 3 6 6c2 3 0 4-2 4 0 8-6 6-9 2v-2l-3-1c0-7 0-14-7-16l-9-11v-1Z"/><path fill="#AC8973" d="M268 70c4-3 7 1 10 2 3 0 2-2 2-3l9 2c6 1 6 6 7 11 0 0-11-2-12-1-2 2 3 2 2 3-3 0-2 2-3 3 2 1 1 2-1 1-1 5-8 0-3-2l3-1c0-9-7-5-10-8s-2-3-2-5l-2-3v1Z"/><path fill="#B3907A" d="M319 70c1 1 5 3 4 5-3 0-6-5-7-1s-4-1-6-2l-10-3c-4 0-6 3-4-4 1-7 2-4 5-3 3 0 15 6 18 8Z"/><path fill="#8F6D58" d="M382 65c4 1 3 4 4 5l8 8c4 3 3 0 4 1 2 3 3 11 0 13-4-3 0-12-7-14 1 2-1 5-2 7-6-4-3-6-4-11-1-6 0-7-3-3v-6Z"/><path fill="#AB8B74" d="M298 94c2 4-6 5-9 6-1 1-2 2-3 0-2-2-3-4 0-6-3 0-3-1-1-3-2 1-3 0-3-3l1-1c5-2 5 5 7 5h4l4 2Z"/><path fill="#7E5C49" d="m348 93 6 3c4 3 2 2 3 4l4 5c-3 2-6-6-8-7h-3l-2-5Z"/><path fill="#C29F88" d="M297 48c-1 2-4-4 0-5v5Z"/><path fill="#A07C68" d="m211 590 2 2c-5 3-7 7-5 11 2-1 4-2 5 1 2 2-2 9-4 10 3 4 3 7 0 8l1 6c9-3 13 5 13 13 7-4 10 1 4 5-4 1-4 4-7 2 1 6-4 2-6 3l-1 3 4-1c2 3-3 2-4 5l-1-6c-4 0-6 4-6 3v-2c-5 0-7 5-9 6-2 0-7-5-7-6-1-2 2-3 2-5l-6 4c1-2-1-6-3-8-3-3 3-15 2-15l-3-1c-2-2-1-6-2-8s-5-4-6-7c0-2 3-13 2-17 0-4-2-6-2-6l-3 1v-2c9-3 9 12 9 18 2-3 7-1 8-3 2-1 1-3 2-4 3-4 6-3 3-10h7l-2-5c7-2 7 4 13 5Z"/><path fill="#886652" d="M524 609c5 1 7 2 8 7 1 2 3 1 4-1 6-8 15-17 25-17 3-5 15-12 20-10l6 7c0 4 0 9-2 13v-1c-7-5-12-5-20 0-7 4-13 10-19 15-2 1-4 2-5 1l-3 1-13 1-2-2c1-5 3-5 1-10-4 1-4-5 0-4Z"/><path fill="#926E58" d="m541 623 22-16 9-6c3-1 9 2 13 2v4h-17c-5 2-8 6-10 8l-5 2c-4 3-7 12-12 5v1Zm-3 1c-3 1-6 5-7 6-2 0-6-4-9-2l1-5c5 0 11-4 15 1Z"/><path fill="#715341" d="M523 581c-1-7 5-10 5 0-2 5-1 9 2 9 3-1 7-1 9-3l2-4c5 0 7 4 8 4l3-4c-2 5 3 9 6 5 3-5 2-2 3-3l2-4 4 2 14 1c3 0 5-4 8-1l-2 12c-7 2-4-7-11-5-8 2-10 5-12 7-2 1-1 2-2 3h-6l-11 7c-4 3-9 16-14 11-5-4-2-5-3-6s-5 0-4-3c-1-2 1-3 4-3-2-2-5-3-9-4-4 2-9-5-4-7 2-1 6-7 5-9l2-2c-2-1-1-4 1-3Z"/><path fill="#B18E78" d="M240 588c-4-5-13-20 1-13l8 9c10 2 18 10 20 20-5 2-4 5 1 11 2-2 3-2 5 0 3 3 5 7 6 12 1 9 4 17 9 24-2 5 12 15 5 4-5-13-11-39 11-22 5-1 10 0 14 1 11 9 22 16 35 21l2 3c4 4 7 9 7 15 10 18-10 17-22 17l-13-2c-10-3-20-6-30-11-9-4-33-15-35-18-2-2-6-14-7-17-4-10-5-22-8-33l-10-18 1-3Z"/><path fill="#95725C" d="M229 585c-1-1-2-2 0-4-10-14 3-18 6-2l6 9 8 21c-5-1-6-6-8-10l-1 2-11-16Z"/><path fill="#A98670" d="M221 588c2 15 10 38 15 52 0 10-4 6-9 6-3-2 3-2 1-5s-5 4-7 2c0-8-4-19-13-10 1-3-2-10-1-12l2-1c0-2-4-4-1-8 2-3 6-2 0-5 1 0 5-1 3-3-1-2-4 3-7 1 5-5 0-5 0-6 0-2 4-4 1-8l3 4c1-2 3-3 3-5 2-2 8-4 10-2Z"/><path fill="#A6836C" d="m232 542 3 7c2 5 2 6-3 8l7 9-1 3c6 3 11 7 14 12 7 1 10 3 13 10 6 3 9 8 8 15 3 4 3 7 2 9-8-1 2 6-3 6-2-4-10-11-9-15 2-4 4-3 4-4l-7-11c-3-3-10-5-13-7l-7-7c-1-1 0-2-2-2-9-1 1 9 2 10v3l-3-3-8-14c-1-1-2-1-2 1 0 3 5 7 4 11 0 3-3 0-2 2-2-2-5-4-5-8-2 0-1 2-1 3-2-2-2-4-2-6l-1-12c-2 0-3-2-1-4l-2-8c0-3 0-3 3-2-2-1 5-8 5-8l7 2Z"/><path fill="#BA9A85" d="m219 576 2 12c-3 2-6 3-10 2 2-5-10-10-4-17 5-8 4-2 8-2 3 0 1-2 3-2l1 7Z"/><path fill="#977560" d="m519 602 5-2c-1 6 3 0 6 4 2 4-4 4-6 5s0 3 0 4c-1 2-2-1-2 2l-4 18c0-5-4 0-6 0l-4-2c-5-1-7 3-10 3-4 0-6-3-11-2-5 2-2 3-4 4l-15 11c-3 3-3 9-9 8v-3l11-15 2-3 38-26c-1-3 6-8 9-6Z"/><path fill="#856450" d="m459 655-11 9c-6 1-4-4-6-7-2-4-4-3-6-4 2-3 5-3 9-1l23-16 2 1c-2 7-6 13-11 18Z"/><path fill="#C6A58E" d="m232 303 3-4c2-1 4 0 5-2l1-6c0-4-5-6 2-10 7-3 8 1 14-11 6-11 8-17 8-18 0-2-4-6 1-10 4-4 15-3 18-6 2-2 0-10 3-15 4-4 9-3 12-7 0-2-5-5-6-8 0-4 4-7 3-9 0-3-4-2-5-4l3-8c2-1 10 1 13-1 4 3 0 12 1 13l13 4c3-9 6-17 13-5 7-5 4-11 5-17 0-2 3-9 4-4 3 11 5 4 9 3l8 1 4-6c2 0 4 4 8 3 4 0 5-3 7-4h6c3-1 8-4 12-1 4 2 4 7 6 7 5 2 10-3 14 8 1 3 4 11 4 15l1 8c0 2 4 2 4 3 1 7-18 18 11 17 4 6-2 18 9 16 2 6-9 5-11 6-2 2-1 14-1 16s2 2 3 3c3 5 0 23 1 30 1 3 4 2 4 5 0 4-3 4-4 6v25c-1 8-3 9-4 10-5 3-6-6-6-8-1-2-4-4-5-8-1-8-1-12-4-21s0-4-1-6c-1-3-8-9-9-9l-5-1c-2-1-3-4-8-5-1-3-3-5-7-5-4-4-7-7-14-7l-10-4v-3c-3 1-5 0-5-3-1 3-1 3-2 0l-1 2c-1-2-3-1-5 0-1 4-5 1-3-2-1 1-2 0-3-1l-4 1c-3-2-7-1-11 1-6-3-10-4-13-1-4 7-8 8-12 3-5-6 5-11 11-10 4-1 13-6 9-10 2-9 0-13-4-12-4 6-9 3-14-8-5 6-10 9-15 9-2 3-3 5-7 6-3 6-8 4-13 1-3-1-5 3-4 11-3 4-6 9-7 14l-10 13c5 5-1 7-5 9l-2 9c-13 5-14 20-13 32 2 2 2 3 0 5l2 1c-2 4 0 3 5-1 2 0 4 2 4 5 4-2 8 0 11 4 6-2 9-1 10 3 5-3 7 5 4 8-7 2-1 5 4 5l11 11c1 13 3 25 8 37l11 17c7 15 3 22-4 34-1 5-1 6 4 4 8 2 12-1 13-7l2-1c8 1 12-1 14-4-2-8 0-13 7-14 1-5 3-7 8-8 2-6 3-7 8-9 5-6 11-22-1-22-3-6-2-13 3-20-19-2-25-23-6-31l-12-10 1-3c1 0 4 1 2-2-1-3-7-7-8-9v-5h1c9 10 20 13 34 12l1 1c-1 3-6 6-8 6-3 1-5-1-7-1-3 0-9 2-4 4l6 2c3 1 13 0 14 2 1 5-6 5-7 5-6 3-16 7-18 12-3 6 1 5 4 8 4 3 3 5 11 4l14-4c3-1 2-4 4-5 3-2 10-3 14-6 6-5 10-12 11-20 13 2 0 14-4 20l-9 17c-2 8 3 10 2 14l-4 13c-3 5-8 8-9 15-1 5 1 12 1 14l-3 3-1 4c-2 2-9 2-11 3l-2 4-3 2c-1 2 0 4-2 6-1 2-5 3-7 4l-5 18c-2 1-1-1-2-2-9-4-12 5-8 8 3 3 6 1 1 5-3 3-11 0-14 3-2 3-1 9 3 8 1 2-2 3-3 5l-1 6-9 11c-3-1-3-5-6-6l-8-1c-2-2-4-11-4-12-1-3 1-5-1-9-1-4-4-8-5-8-3-2-3 0-4 2 1 2-1 6-3 7 3 1 4 6 1 7-2 0-3 12-3 14 0 3 4 5 5 8v7c1 2 4 4 0 5-10 2-9-5-12-10-2-6-6-9-6-15 1-6 11-4 11-10-1-7-5-12-6-13-4-7-13-11-11-20 3 2 6-1 8-1l9 3 12-2c2-7 10-21 8-27-1-7-4-5-6-7l-11-34c-1-5-1-21-4-24-2-4-6-1-9-3-3-1-3-10-8-7-4 4-2 11-2 11 0 2 4 10-1 10-6-1-4-10-5-11-2-2-10-4-11-6-2-2 0-5-1-7-2-2-8-1-8-6 1-6 10-6 9-11-2-5-9 0-12-2-2-1 1-7 1-11 0-3-3-4-3-6l3-7c0-1-4-7-2-8 2-2 4 0 5-2 0-1-7-1-2-7l1-1v1Z"/><path fill="#CDAF97" d="M232 334c-1-6-1-23 5-26 6 1 8 0 9-3-1-8 2-14 8-17-5-7 2-11 7-15l4-12 4-2c0-11 32-14 37-11 4 4 4 17-3 17-7 2-17 6-4 6 4-4 7-4 7 0 4 0 2 5-1 6 2 0 3 0 4 2 4 0 3 3-2 9l1 4c0 3 0 5 2 7 7 4 12 11 10 19 2 0 2 1 2 2l4-2c5 2 2 4 3 7 0 2 1 1 1 1l6 15c6 7 1 13-7 8v17c2 6 4 10-4 10 1 7-1 9-6 12v2c7 5 7 20-4 20 1 17-12 15-16 1-9-7-15-12-10-24 1-8-8-16-14-19-4-3-5-6-4-10-2-1-3-3-3-7-4-3-9-6-16-7-6-2-7-6-5-11-1-8-4-24-5-6l-4 5c3 7-4 14-6 6v-4Z"/><path fill="#BB9982" d="M508 309c3-2 6-2 10-1 6-2 10 1 5 5 2 2 3 9 2 10-1 2-10 2-10-1l-13-6-2 2c2 0 4 1 4 3 5 4-5 6-8 1-11 3-24 8-34 16 5 1 7 2 6 5l3 3c3 0 6 2 9 4 4 0 12 3 8 9-2 4-19-4-20-10-2 2-1 4 4 8 3-2 7 3 8 6 8 5 11 6 20 3 3 6-3 9-9 9l-3 4c10 1 13 6 10 17 3 2 4 4 4 7l-3 12c1 7-6 26-13 15 2 10 1 18-3 25-5 1-7 3-6 6 3 10 2 19-3 25-1 5-3 8-7 4 0 9-4 9-11 6-2 2-4 2-8-1l-15-7c-10 0-14-3-12-9-2-7-2-7-9-4-6-3-6 1-1 4 14 3 9 12-3 7l-12 2-2-1c-1-6 8-4 8-6l1-9c0-3-4-7-3-11 0-5 4-9 4-15l-1-7v-2c3-2 8-1 7 4-1 8 2 9 7 3 2-2 5-1 6 1l2 1c2 16 14 4 20-3 7-3 10-6 8-14l1-1-2-6c-2-10-2-16 0-27-2-15-4-30-4-45-3-2-3-7 0-8 0-6 3-11 11-15-1-5 5-9 9-8-1-2 2-4 4-3l7-3v-2c1-2 28-10 29-2Z"/><path fill="#C8A790" d="m232 338 4 2c2-3 0-6 0-8l4-6c1-3-1-8 4-10 4-1 5 13 5 16s-2 4-1 7c2 4 13 5 17 7 4 1 4 6 6 9s2 1 3 2l-1 4c0 6 3 4 6 7 6 4 13 11 12 19 0 8-4 7 0 14 5 7 6 5 9 8 4 5 2 12 10 10 6-1 1-8 4-11s6 0 7-3v-10c0-3-2-2-3-4-3-7 4-6 5-9v-8h4c5-1 1-4 1-7-1-7 1-14-2-21 5 0 7 6 12 0-6-6-5-12-7-20l8 12 13 12c2 4-6 4-8 7-9 11 3 22 15 22-1 8-6 7-6 16 1 9 3 3 7 5 3 2 2 12 1 15l-5 10c-2 2-4 1-6 2-1 1 0 5-3 7l-6 2c0 1 0 4-2 6s-5 1-6 2v11c-2 8-14 3-16 6-3 3-1 3-2 4-3 6-13 0-17 5-8-7 7-19 6-26 0-7-3-13-4-14-3-7-14-21-15-28 0-7-2-8-3-15-1-6 1-8-1-12s-4-3-6-5c-3-2-3-4-4-5l-6-1c-1-1-5-7-4-8 6 2 7 1 6-5-7 3-4-1-6-3-2-1-5 1-7 1-3-1-5-5-7-5-2-1-3 3-5 3 0-3-1-6-3-7-2 1-4 4-6 4-3-2-1-4-1-7v1Z"/><path fill="#B5927B" d="M463 134v6c2 0 0-6 3-4s3 6 3 7c1 4 3 4 7 3 1-5 8-7 6-1v2c6-6 5-2 8 0s2 1 3 0l1 1c3-2 4-3 5-1h1c2 4 6 6 9 3 3 1 5 4 6 8 3-2 5 0 5 3v1l1 1c-2 3 0 5 6 5 3 8 5 16 3 25 4 11-2 14-18 10-3 1-10 4-9 6 3 16 3 31 1 47 4 9 5 18 3 26-7 2-4 6 11 11 2 2 2 4-1 4-2 3-4 3-5 0-3 2-8 2-12 1-2 3-6 2-8 0 1-2-1-10-1-11-2-2-7-2-7-4-1-2 1-10 1-11l3-9c0-9-4-20-3-28s3-6 4-10c1-6 2-15-4-20l-11-7c-5-3-11-13-11-18 0-6 3-4 3-5l-4-7-6-15c6 1 6-8 6-12-4-3-4-12 1-7Z"/><path fill="#BE9C84" d="M368 497v1c-1 3-7 4-10 3-8 4-4 6 3 6 2 0 4 2 4 4 2-1 4 2 6 6l8 10c2-1 11 4 12 5l1 2 3 3c16-4 20 0 7 12 0 13-7 20-19 21l-10-3c-1 3-4 1-4-1l-13 2c-5 0-7-1-9-5-3 0-6-1-7-3h-4l-18-7c-4-1-6-2-7-4 0 0-2-1-2-3 2 0 3-3 4-4 5-4 12-1 16-3s3-4 4-6l3-2c1-1-4-11-4-13-6-2-6-8-3-14 4-1 10-9 13-9l6 2h20Z"/><path fill="#B08D74" d="m394 487 14-3 8 2c3-3-5-4-6-5l-5-4s1-9 4-8c-1 8 10 0 12 1-2 4 1 7 2 9 0 2-2 4 0 5l8 1c9 3 17 10 25 11l3 2c2 1 2 2 0 2v3c6 9-7 5-12 1l-3-1c14 7-11 15-16 9l-1 1c-6-2-8 0-9 5-6 2-13 1-18-2-2 0-20-3-17-1 4 1 7 6 1 6h-5c-8 2-8-3-8-10l-4-1c-2 0-4-1-5-3-8 1-14-4-3-5 1-1 8-3 10-2l-1-2v-1c9-1 17-7 26-10Z"/><path fill="#C6A58E" d="m294 107 2-2c2 1 0 4 2 5 1-2 4-2 5-3 2-1-1-4 3-3v5h4c0-3 2-2 4-1v2c3 1 4 0 3-2 2-1 3 0 4 2 2-2 4-1 5 2 3-1 4-1 3 2l-1 8c-2 2-6 1-7 3 0 2 3 7 0 9-4 3-5-3-8-4-2-1-4-1-5 1-2 6 4 4 6 6l3 11c-1 8-7 2-10 5-3 2-1 9-2 11-8-2-3-7-4-10 0-3-2-2-1-4 2-3 10-3 13-3-1-3-5-1-6-2-2-1 1-6-1-8-6 0-16-6-21-6-4 0-3 2-5 3-2 2-7 2-10 3-5 1-5 5-9 0v-10c5 0 2-3 3-7 1-3 5-4 1-7v-1c4-1 7-3 9-6 6 2 10 2 9-6l5 1c1 3 3 5 6 6Z"/><path fill="#B59479" d="m423 398-2-2 2-23c-4-1-4-4-1-9-1-2-3-5-3-8 0 6-1 9-5 13-1 6-2 12-6 16-1 2-3 7-2 9 5 3 5 6 4 10 3 3 5 5 5 7l-4 13c-2 1-3-1-3-7l-4 2c-1-6 0-3 1-7s-6-4-9-5c1 3 1 4-2 4-2-1-2-3 0-6 3-4 5-10 5-15s-5-12-4-14l8-14c3-4 11-15 15-18 4-2 7 0 6-5 3 1 0 6 1 10 1 11 3 23 2 35l-4 14Z"/><path fill="#6C4D3A" d="m526 297 3 1c2 5 4 2 6 3l3 1h4l8 14v3c1 4 5 9 0 12-1-4-3-14-7-9 2-5-4-9-8-11-2 3-9-1-11-3-1-1-14-1-16 1-5 0-5-2-7-2-4 0-18 4-22 6l-8 3-4 3c-2 1-6 2-6-2l1-1c4-1 11-5 14-8 3-2 0-1 0-1 3-5 9-6 15-8 3-1 5 0 6 3l3-4c4 1 9 1 12-1h5c1-3 9-3 9 0Z"/><path fill="#A48169" d="M415 411c-2 0-7-5-7-6v-6c-1-3-5-2-4-8 0-6 2-9 5-8-2-4 1-4 2-6 0-2-1-6 1-9 1-3 3-3 4-5l1-11c4-2 3 3 4 6l3 6c0 2-3 5-2 6 0 2 3 1 3 3l-2 25c-3 10-4 7-8 13Z"/><path fill="#9B7962" d="M454 428c1 4 1 10-2 13-3 4-4 2-5 3-4 2-5 5-8 8-4 6-8 0-11 8 1-4-2-4-3-6l-2-8c-4-3-2-5 1-7 1-3-7-7-4-1l-3 7c1 3-4 6-4 6-1 1 3 3-4 4v-8l-3 4c0-5 6-15-3-14l-1-2c0-2 2-2 5-2 0-2 4-4 6-2l1 4c1 5 2-3 5-4 2-2 6-1 6-1v3l4 3v-8s5 2 6 1l1-4c3 0 4 1 1 3l2 1-8 11c2 2 9 0 10-2l2-1c2-1 1-6 0-9-2-2-1-3 5-4-3-2-1-4 1-4 4 0 5 5 5 8Z"/><path fill="#A8856C" d="M445 339c2 0 2 1 3 3-2 6 0 4 1 7 2 3 0 14 1 18 0 11 5 21 4 33s-2 3-2 6c-1 6 4 15 2 22l-5-6-1 2c-2 3-7 0-7-4l-2-8c1-2 2-7 1-10 0-2-1-1-2-3l1-6h2l1 6c-2-3-2-13 0-16-1-1 2-6 2-5h-2v-14c2 1 3-1 1-6 2-4 2-6 0-8l3-11h-1Z"/><path fill="#B29176" d="M403 331c-5 1-4 8-6 12-1 4-2 3-3 4-3 8-2 8-9 13-8 6-12 8-19 11-6 3-9 5-14-4 4-1 8-4 11-6 4-2 10-4 15-8l14-13c1-4-2-16 6-14 8 3 1 5 5 3 2 0 2 1 0 2Z"/><path fill="#AC8A71" d="M398 294c4 1 17 16 14 18-2 2-5-2-5 4 0 5 3 5 4 9v10c-1 2-4 5-5 4s2-6-2-5c-1 2-1 4-4 5 0-4 2-4 3-9v-2c-1-5-15-17-20-20-1-2 0-2 2-1 1-2 4-2 6 0 3-2 5-2 7-1 1-1 3-1 4 1-2-2-8-8-7-11l3-2Z"/><path fill="#9B7B65" d="m365 269-2 4c3 2 8 4 8 8 3-1 5-1 7 1 2-6 14-2 13 3-4 2-2 8 1 6 0-3 1-2 2 0 1 7 2 3 4 3-2 6 6 10 6 12s1 6-2 5l-4-5h-2c-11-15-29-20-47-22-18 6-13-8 1-5h3l1-2c-5-3-1-9 3-6 1-2 1-4 3-5 4 1 2 1 5 4v-1Z"/><path fill="#674936" d="m365 269 2 2c2-5 2 0 4 1 4 3 8 1 14 4 5 2 2 3 3 4 4 3 9 1 8 8l-2 1c-2 0-3-2-1-3l-1 5c0 1 2 3 0 3-5-2-2-8-9-5-1-4 3-4 6-3v-4c-3-1-3 4-6 2-2-2 3-3 2-3h-5c3 11-4 1-4 1l-7 1c-2-1-6-5-9-3-1-5 7 0 9 1 2-2-7-7-9-5 0-3 1-8 5-7Z"/><path fill="#BE9C84" d="M272 400c-2 1-9-7-10-8l1-4c-1-4-5-10 0-14 6 0 8 11 10 12h4c2 1 3 7 0 8-3 2-7-5-5 6Z"/><path fill="#C6A58E" d="M333 166c2 2-1 10-2 10-4 1-7-7-6-10-3-1-2 5-4 7-2 3-4 2-6 1 1-4-5-10-4-13 1-2 9-2 11-2l11 7Z"/><path fill="#B5927B" d="m440 131 1 1c6-7 19 0 19 8-4-1-1 4-2 4h-15c-3-2-2-3-4-6-2-2-4 0-2-2s4 1 3-2l-5-1c-1-6 1-6 5-2Z"/><path fill="#AE8C76" d="m293 510 2 5c4 4 4 11 0 14-2 0-4-3-6-5-2-4-4-8-4-13l-2-9-1-7c1-6 10 5 11 6v9Z"/><path fill="#634637" d="M319 105c0-4-5-5-4-10 2 0 6 5 7 4v-3c1-1 8-2 9-1l3 8c-1-1-9-2-7 1 3 3 7 0 6 4-1 5-3 1 1 5 3 0 7 5 2 4l-4-3h-3l-3-2-1-2c-3 1-7-3-6-5Z"/><path fill="#816149" d="m354 302 1 2c-5 4-9 9-4 15-4 2 4 5 7 5l1 1c0-4 4-5 7-2-2-6 7-8 4-1-14 15-29 2-26-15-7 2-12 7-18 11s-1 2-4 2l-1-2c3-4 8-8 13-9 1-2 3-5 6-3-2-3 0-3 3-1 3-2 8-4 11-3Z"/><path fill="#7F5E47" d="m467 319-7 6v2c-1 3-10 6-13 15-3 0-1-1-2-3l2-8 2-2 1-5 11-7 6 2Z"/><path fill="#816149" d="M367 304c9 1 14 2 19 9 6 8 4 8 8 11-2 2-7 1-8 2-2 0-2 2-3 2l-13 6c-2-2 1-3 2-3 5-2 15-5 14-11 0-7-13-15-15-13l1 6c0 6-5 7-4 0l-1-1-1-7c-2-1-1-2 1-2v1Z"/><path fill="#A3826B" d="M358 304v3c-6 2-5 9 2 10l1 2c1 2 0 5-1 6-3 3-12-2-13-4 0-2 3-3 2-4-6 0-3-2-2-5l-1-3c1-1 4 0 4-2 1-1-2 0-2-1 1-1 6-2 6-4l4 2Z"/><path fill="#B8977E" d="m366 305 3 4c0 2-2 0-2 3 2 0 2 7 0 7l-1 4c-4 1-3-1-6 2-2-4-1-4 1-6l-1-3c-6-2-7-6-2-11v-1h2c1-1 4-1 6 1Z"/><path fill="#BE9C84" d="m289 187-5 2c-3 3-1 7-3 9-1 2-3 1-5 2s-3 6-3 7c-1 4 3 8 3 15-1 7-2 3-2 4l2 5c-8-4-2-7-3-11 0-4-5-2-3-9 1-7 4-12 5-13l4-2c2-3-1-11 10-10v1Z"/><path fill="#B5927B" d="M423 132h3c1 1 4 1 4-1h2c1-5 6-3 2 2 0 2 1 1 2 3 2 4-12 5-14 5-4-1-3-7-3-9v-2l1-2c2 0 5 1 3 4Z"/><path fill="#9B7A61" d="M394 411c-2 10-7 16-1 26-10-4-7-14-5-22s2-6 6-10v6Z"/><path fill="#7A5C49" d="M441 132c1-7 3-4 7-5l4-2 2 3 1 1c2 1 7 0 8 5-4-1-1 4-1 7l-2-1c-2-2-5-6-8-6l1-2c-4-2-9 0-12 0Z"/><path fill="#84624B" d="M439 412c4 0 3 0 3 3 1 2 1 10 6 9v3c-1 0-4-2-5 0 2 2 1 5 1 7 1 2 4 2 2 5l-3-2-2-1c1-4 0-7-4-8l-1-3c2-5 3-8 3-13Z"/><path fill="#8D6D54" d="M333 321c-1-1-2-3-1-4 9 11 22 17 36 16 1-1 1 1 1 2-7-1-16 0-22-2s-12-9-14-12Z"/><path fill="#BE9C84" d="M285 488c6-1 3 2 5 5 1 3 3 2 4 3 1 4-2 10-1 14l-1-7-4-3c-2-3-1-5-6-5 0-3 0-5 3-7Z"/><path fill="#664833" d="M403 424c3-1 4 0 4 3l3 1c2 0 2 2 2 3l-4 1 1 3h-7l-3-3c-3-4-1-7 4-8Z"/><path fill="#94725B" d="m404 419 2-5c7 1 3 3 4 8s1 2 1 2l1 3-2 1-5 3 1-3h-3c-2-2 5-3 0-4h2l-1-5Z"/><path fill="#9D7D63" d="M352 298c2 1 3 1 1 2l-9 1c-3 0-5 4-1 4l-3 1h-3l-15 10c-2-1-2-2-2-4s18-14 21-15c4-1 10-2 11 1Z"/><path fill="#8B6B55" d="m512 297-1 2c-4 1-7 3-11-1l-1 7s-8-2-10 0c2-4 6 0 5-6h-3l1-1 20-1Z"/><path fill="#BE9C84" d="M295 515c2 2 7 4 8 8 0 3-5 9-5 13l-3-7c0-4 2-8 0-14Z"/><path fill="#856756" d="M426 132c1-3 1 1 1 1 3-2 0-5 5-1 2-3-5-13-5-17 1-1 7 5 7 6l3 5 3 5c-4-1-4-3-5 2h-1v-3c-2 0-2 4-5 4-3 1-3-2-3-2Z"/><path fill="#BE9C84" d="M296 160c-3-4 1-11 0-14 0-3-6-9-8-9-4-1-11 7-12 7-2 0-5-5-10 1 6-11 5-4 11-4 5-1 7-6 8-6 5-2 6 4 9 6 3 1 6-2 6 1 1 3-3 5-4 8v10Z"/><path fill="#987860" d="m385 307-2 1c-10-7-17-8-30-8l-1-2 2-2c6 0 19 1 25 4s7 4 6 7Z"/><path fill="#8D6B53" d="m442 378 2-2c2 3-2 6-2 7v16c-3 0-3-4-3-6 0-5 1-11 3-15Z"/><path fill="#C6A58E" d="M283 215c-2-1-2-7-2-8 0-2 4-9 6-10 4 8-3 10-4 18Z"/><path fill="#A3826B" d="M367 312c5-3 2 2 2 5l3-4 1 2c0 3-1 5-3 7l-2-3c0 2 0 4-2 4-5-5 0-3 1-6v-5Z"/><path fill="#7F5E47" d="M475 307c1 0 5 0 4 2l-11 6c-2 1-4 2-6 1l13-9Z"/><path fill="#8F6D54" d="m442 364 1-14c7 1 2 5 1 7 0 2 3 9 2 11-1 5-3-3-4-4Z"/><path fill="#BE9C84" d="M283 502c1 1 7 12 2 11 3 3 4 7 4 11 0 0-1 1-2-1l-4-11v-10Z"/><path fill="#866755" d="M413 125c-4 5-5 3-10 2h-3l-1-3c2-2 11 3 11 3l2-5 1 3Z"/><path fill="#BE9C84" d="M252 264c-4 4-6 1-7 2-4 2 3 12-5 11l3-4c1-8-3-9 9-9Z"/><path fill="#C6A58E" d="M261 142c5-1 3 4 2 7l-4 7 2-14Z"/><path fill="#A1836E" d="m349 117 1-4c2 0 5 3 6 4-3 0-2 2-5 3-1-2 2-3-2-3Z"/><path fill="#BE9C84" d="M325 178c2 2-5 9-6 8 0-4 2-8 6-8Zm-63 64-3 5c0 2 3 2 3 3 1 1-2 3-2 4v3l-3-1-2 5c-2-5 4-6 4-8 1-3-6-8 3-11Zm32-64c3-2 3 0 4-1 5-2 0-6-1-9 7 3 6 14-3 10Z"/><path fill="#C6A58E" d="M334 113c3-3 4 2 7 4-2 0-1 2-5 0l1-2c-2 0-2-1-3-2Z"/><path fill="#BE9C84" d="M275 234c-2 3-8 3-11 5 3-4 4-5 11-5Z"/><path fill="#C6A58E" d="M394 289v2h-2c-1-1-3-2-2-4l4-2v4Zm-16-166c5 3 0 5-3 2 1-4 3-1 3-2Z"/><path fill="#A3826B" d="m367 304-1 1-6-1c2-3 5-1 7 0Z"/><path fill="#AA8871" d="m229 224-5 5-2 9c0 2 2 1 2 2 1 4-2 4-2 4l1 1-2 1c-1 4 3 7 3 7l-2 20c-1 4-4 9-3 11 0 3 5 6 5 9h-13c-2-2 1-5 2-8v-2h2c3-2 3-12 2-15l3 3-1-6 2-6-3-15c0-1 3-3 2-6l-3 3c-1-3 1-3 2-5l3-2c0-1-3-2-2-3h1c4-5 3-4 8-7Z"/><path fill="#9E7B65" d="M232 557h3c3 4 8 6 13 9l5 6 3-1c0 1 8 7 6 9 3 1 5 4 6 9l8 6c5 8 12 14 19 18 8-2 17 3 18 11l9 4c6-5 16 0 11 8 6 2 10 6 14 11 4 1 7 4 10 7 2 0 3 3 1 4-7-5-13-5-20-8l-19-14c-4-2-9 0-13-1s-14-13-14-1c1 12 4 20 7 26l3 8c-1-4-14-11-14-12v-5l-5-6c-3-11-4-19-8-30s-4-7-5-16c0-8-3-4-7-8l-3-6-10-2-1-3c-3-4-9-8-14-10 0-3 1-2 2-3l-5-10Z"/><path fill="#846551" d="M253 572c3-2 6-4 9 0l-2 3h9l2 4 8 6 9 4s-1 9 3 9c3 0 2-3 4-3 2-1 0 2 2 3h6c8 6 17 11 28 13 1 5 4 8 9 10l1 3h1c4-1 6 0 7 2 6 0 7 7 0 7 7 1 9 4 8 8 4 3 7 6 6 11 9 1 10 13 2 13l-2-1-1-3-6-9c-3-1-7-4-9-10l-4 1c-3-8-8-14-16-17l-10-9c-3 4-5 3-9 0-4-7-12-14-19-13-2-3-5-4-8-5-2-6-5-10-11-11-2-4-4-7-8-8l-9-8Z"/><path fill="#684B3B" d="m316 594 21 14-1 1c-4 2-2 5 5 7 3 2 4 6 0 8l-8-5c-2-2-2-5-4-6l-6-1-18-10c-6-3-3-1-2-4l5-1c3 0 2-5 8-3Z"/><path fill="#906F5C" d="m217 550-1-6c-1-7-5-14-4-21 5 0 3 4 4 7 0 2 1 0 1 1v1l5 1c2 1 1 3 2 4s7 3 8 5c-2 2-4-2-7 0-2 2 0 2 0 3-1 0-4 0-4 2 4 1 3 3 3 7-4 1-4-6-7-4Zm31 16c-6 1-12-5-16-9 0 0-3-1-2-3 5 1 5-1 5-5l13 17Z"/><path fill="#816150" d="m220 562-1 3h-1l-1-6 2-1 1 4Z"/><path fill="#B3917A" d="M510 382c-1 2-3 3-2 5 6 3 13-3 18-4h5c2 0 1-3 6-3 10 1 2 15-1 18-9 9-19 8-27 21-7 12-2 6-4 9-7 16-16 31-17 50l1 9c-1 6-9 14-9 23-1 9 5 13 3 20l-9 15h-2c-2 5-6 8-11 11-5 9-9 10-19 10-6 6-14 10-21 4-6 4-13 7-21 8-1-2-3-1-4 0-4 2-8 5-12 1-1 3-2 3-3 0-5 1-14 1-16-3-2 3-9 0-8-3-7-1-13-2-19-7-1-1-10-8-11-7-1 8-4 7-10-3l-6-3v-4c8 1 16 8 23 9 3 1 6-1 7-1l2 3 5 1c2 1 1 4 4 4 4 2 11-2 15-1l2 1c2 4 3 5 4 1 0 0 1-2 3-1 3 0 5 4 9 3 4 0 4-2 5-3 3-1 4 0 6-3 4-5 3-10 4-14 2-4 10-9 8-10-2-2-17 5-17-4l6-2c4-3 7-5 12-4l7-2c2-2 8-3 11-2 1-6 15-6 10 3-2-2-6 2-6 3 1 1 18-10 20-11 0-8 3-11 9-10 4-2 6-3 8 0 2 1 0 4-5 6l-2 6c4 0 9 0 12 4-1-17 2-33 8-49l2-21c9-11 14-22 19-35l10-12c6-4 40-23 14-20-12 5-38 10-18-9h2c2 1 2 3-1 3h1Z"/><path fill="#A17E69" d="M487 525c0 8-2 5-5 8-6 8-7 12-9 21 2 7 0 11-5 12-7 9-12 12-23 11l-14 10-1-1c0 2-1 2-2 0h-1l-13 2c-2 0-1-3-2-5-2-3-4 1-6 1l-10 2h-6l-1 4c-5 4-10 0-13 0-6-1-19-2-23-4-3-1-3-4-5-6l-11-7-5 2-1 3c-4 1-4-2-7-4 3-4 8-10 14-8 5 5 12 7 19 7l8 3c2 5 11 4 16 3h3c3 3 6 3 9 2 1-3 6-5 7-2l17-6c3 0 5 1 6 3 8-2 14-5 20-10h3c6 3 10 0 13-7 6-2 11-6 13-14 4-5 5-10 11-14 5-5 3-1 4-6Z"/><path fill="#6D4F3D" d="m317 582-6-7c-3-2-5 1 0-5 5-5 2 2 2 3l3-1 10 9c10 7 21 12 32 16 11 3 2 4 6 2s1-2 1-2l6 2c3 1 13-2 16-2h19c5 0 19-6 22-11h2c2 2 5 3 7 1l2 1 1 3-27 12-1 2-1 3c-11 4-25 4-36 1-6 1-14 1-18-3-16-4-30-13-40-23v-1Z"/><path fill="#9C7A64" d="M317 582a126 126 0 0 0 49 26c7 1 8-1 9-1l4 1c12 1 24 2 33-3 0-2 1-3 2-1 4-2 9-3 13-2 0-3 2-4 4-1 6-2 4 2 0 5-3 3-6 2-9 1-1 4-13 9-16 6 0 2-3 3-7 1l-2 3-34-5c-4-2-8-1-7-5-3-2 1 3-2 2l-19-9c-1 0-1-4-4-5-3 0 0 4-3 3-2-2 1-2 1-3l-3-1-4-5c-4 0 1 3 1 4-4 2-4-3-8-2-1-6 4 0 4-1 2-6-2-2-3-3l-1-2-2-2 4-1Z"/><path fill="#AD8A73" d="M311 553c8-1 9 3 13 9 3 1 1-2 1-3 4-6 16 8 18 9l14 5c-3-1-6 2-10 1s-7-6-12-6-6 6-11 6c-1-1-5-1-5-4 0-2 6 2 5-2h-6c3-7-5-9-7-15Z"/><path fill="#81614E" d="M428 586c1 6-2 4-5 6-8 5-7 6-17 8l-3-1c-1 0-1 3-4 2 1-2-1-4-1-4 0-9 13-3 17-4 3 0 2-2 4-2 3-1 6 0 8-5h1Z"/><path fill="#583F31" d="M337 608c4 0 5 2 8 3 2 1 3 2 3 4 3 0 6 2 7 4 1-3 1-3 3-3l4 1c4 3 12 3 17 2h5c1-3 12-3 15-2l2 1c3-3 5 1 4 5l10-1c18-7 20 8 3 9-6 5-4 5 4 1 12-3 1 10-6 11-13 1-2 2 4-1l4 1c1-2 4-4 8-4-7-9 2-9 10-7 2-4 5-6 9-5 4-10 14-13 23-15l3 1c2 2-3 7-5 8-8-1-13 1-10 10l-2 2v1c0 1-8 2-9 1-3 5-6 7-11 8 0 9-5 11-15 6l-18 3c-2 4-5 9-9 5l-9-4c-7 3-11 0-12-7-2-1-2-3-1-5-13 1-11-7-1-11l-6-4-17 1c-2-1-6-3-5-4-2 2-4 2-5 0h-1c3-5-4-5-7-8-3-2-2-7 3-7Z"/><path fill="#755644" d="M399 614c6-1 8 5 2 4l-17 1c0-2-1-2-3-3-6-2-13-1-18-4 12-1 24 4 36 2Z"/><path fill="#684B3B" d="m358 616-1 2 3 2c-4 0-8 2-7-3-1 2-7 0-8-1s2-4 0-5l13 5Zm21 3c-2 4-7 0-10 1-5 0-3 3-7-3l17 2Z"/><path fill="#957560" d="M207 238h5v9l4-3-1 5 2-1c1 3-3 9-2 11l2 1-2 6v13c-3 1-2-3-4-2-2 0-2 5-3 5l-3-3v-2c5-5 0-5-1-6l1-4c0-2-2-1-2-1l1-8c1-1 8 2 6-3l-2-1c4-2 4-6 3-10l-4 5-4-4-1-2c1-6 3-2 4-3 2 0 1-1 1-2Z"/><path fill="#AE8E79" d="m190 290-7-2 1-4c0-4 3 2 4 3h3c2 1-1 2-1 3Z"/><path fill="#B5947F" d="m214 235-2 3c0 3-2 1-2 2-1 0-1 3-3 2v-4c4-4 4-1 7-3Z"/><path fill="#B5937A" d="m290 142 1 14 3 5-4 10c0 2 2 7 1 10-1 2-10 3-14 4-3 1-5 4-9 4-2-1 0-9-1-11l-4-2 2-6 3-9c2-7-2-9 10-6-1-9 3-15 12-13Z"/><path fill="#AB8970" d="M240 207h4s-2-3-1-4l5-3c2-5 1-7 1-11 1-5 3-11 3-17 0 0-8 1-5-2s9 1 7-6c5-1 2 1 3 3 1 3 3 1 3 4l-1 7-3-4v6c0 1 5-2 2 5l-3-3c-2 3 2 10 0 12h-4v4l-3 13-2-3c-2 2-1 5-2 7l-11 6 1-4c2-3 10-5 7-10h-1Z"/><path fill="#B5937C" d="M235 194c2-1 4-1 4 1l1 5-5-1c-2 2 7 4 6 5-3 1-6 0-9 2v-4l-4 1 1-5c1-3 3-5 6-4Z"/><path fill="#AA8871" d="M228 283c6-1 3 2 3 4 1 3 4 5 1 6-8 2-3-6-4-10Z"/><path fill="#BE9C83" d="M239 195c-1 1-3-1-4-1 2-2 7-5 6-1 0 4-1 2-2 2Z"/><path fill="#7D5C47" d="M286 100h3l-1 2c3 0 4 3 6 5-7 3-4-6-10-6l2 5-3-1-1 5-8-2-1 3-8 2c-1 1-5 3-6 2l1-4c2-2 6-1 5-4-2-1-2 1-4 2l-3-1s-1 3-3 3c0-3 0-5 3-7 1 4 3 0 5 0 0-3 6-5 7-3 5-2 8-2 9 1 1-5 5-6 7-2Z"/><path fill="#82614C" d="M252 127c-11 0-6 10-7 11h-4c-1 1-3 7-5 5-1-2 5-4 4-8-1-3-5 0-4-3 1-2 7-5 5-10 2 0 4 3 5 3l4-6v-5c3 0 4 0 4 2l5-3c0 6-8 5-9 8s2 0 2 1v5Z"/><path fill="#AC8A75" d="M260 89c2 1 6 2 8 1s1-8 6-2c1 2-1 4-4 4v6l2 1c5-6 14-1 7 3-5-2-11 0-16 2-2-1-4 1-4-2s2-7-3-9l4-4Z"/><path fill="#473122" d="M495 583c10 2 10-3 15-8l9-8c2-1 4 0 6-2l3-5c6-2-1 7-3 8l11-3c1-1-1-4 1-5s6 4 6 4c0 1-6 6-4 9-4-4-4-1-6-1s-3-2-6-1c-3 0-1 1-2 2l1 2c-3 0-4 3-3 6l-1 3c-2 5-5-1-3-5l-8 7c-2 6-5 10-10 12-3 6-9 10-17 12-3 3-5 4-8 3l-16 6c-3 1-8 10-9 11 0 0-1-2-4-1l-4 5c-3 1-8-2-11-1-1 3 3 5 3 6 0 2-7 3-9 3 3 7-5 2-7 2l-3 2c-2 0-11 1-11-2 4-4 9-2 14-4l8-6c-5-1-8 2-11 3h-6c-3 1-5 5-6 5l-3-1c-1-1-3 1-3-3 0-3 9-1 12-3 3-1 6-6 6-6h5c3-1 4-4 7-2-2-9-5-5-9-4l-13 1c-5 0-3 2-4 1 0-4 5-5-1-7l2-3-4-1 7-1 2 1 23-5 1-3 21-15h3l-1 4c2 2 13-5 13 1 1 6-3 4-5 5-1 1-1 4-3 5-3 2-8 0-6 6-9-2-7 6 1 5l1-3 7-8 7-3 9-10v-2c1-1 14-9 16-8Z"/><path fill="#866958" d="M465 577c2 4-1 3-2 4v2l-2 5c1 2 1 2-1 1l-4 2c-10 7-12 12-25 18-4 3-10 4-9-2l8-3c1 0 5-4 1-3v-2c12-6 23-14 33-23l1 1Z"/><path fill="#654C3E" d="m480 594-3-4c3 0 5-6 5-7h8l7-10 7-3v-2c1-1 3 1 3 1 1-1 3-7 6-7 3 5-2 6-3 8l-4 8-8 1c-2 0-2 3-3 4l-15 10v1Z"/><path fill="#654939" d="m530 590-4 4v-18c-2-1-2 3-3 5-2-3 1-6 2-8 4 0 5 6 4 9 0 3-4 5 1 8Z"/><path fill="#473122" d="M461 588h2c2 0 4-4 5-3s0 3-1 4c0 1-8 5-7 0l1-1Z"/><path fill="#654C3E" d="M469 599c-2-3 6-8 6-4s-5 5-6 4Z"/><path fill="#9D7B64" d="m549 205 3 6 3 10-1 3c-3 2-4 6 0 12-4 6-7 16 2 18 0 3 2 5 4 6v2l9 11c2 1 4-1 5 1l-3 1 3 8-2 3c-2-5-7-10-11-13-2-1-1 1-2 2-5-4-5-14-12-8 1-5-7-5-7-1l2 9c1 4 5 2 6 3v6c-1 3-7 2-9 2s0-3-3-2v12l3 2c-2 4-6 0-7 0h-3l-3-1c2-1 2-4 2-6 2-4 3-7 1-10-5-2-6-7-3-14-1-9-2-17-1-25 5-3 6-7 4-14 3-5 3-11 1-18-1-9 8-5 9 2-2 8 0 18 5 23-3 0-3-19-2-20l2-1h-2c-2-4-5-13-3-15 4-6 10 1 10 6Z"/><path fill="#83624D" d="M530 340s2 1 1 2-4 1-4 3c6 5 9 5 6 13 1 1 5-3 6-3 1-3 0-6 3-6-3 8 2 5 3 6 3 5-7 5-3 11-2-4-4-3-6-4-3-1-4-5-5 0s1 5-2 6c-4 1-6-1-8-4-3-1-5-9-2-11-1-3 3-9 6-11-1-6 3-8 5-2Z"/><path fill="#7E5D4A" d="m535 311-2 2c4-1 2 2 3 4s2 1 3 2v6l-3-2-6 5-1 6c-1 2-3 0-4-2-2 2-3 2-4 0-4-3 2-8 4-11 0-3 0-6-2-8 0-2-1-1 1-4h-16c3-6 6-1 11-1l4-2 12 5Z"/><path fill="#664734" d="M521 332h2l-1-3c2 2 5 0 5 0l1 3 1 2 1 6c-6-5-3 2-3 3l-3 2c-2 2-3 7-5 8 1 4-4 5-4 1-1-3-2-5 0-7v-3c9-4 10-8 4-10-2 2-7-2-6-5-3 0-5 2-6 7l-2-1-2-7c-4-1-1-4 2-5 4-1 16 5 16 9Z"/><path fill="#A48168" d="m539 371-7 9h-6c-4 1-7 5-12 4 2 0 7-7 8-7 3 0 5 6 8-4l9-2Zm-27 13-2-2 1-3c-2-3 1-5 4-3l-3 8Z"/><path fill="#81614E" d="M473 554c-1 5 3 5 2 8-1 4-10 11-12 13 1 2-5 6-7 8-4 3-13 8-17 5-4 2-7 5-9-2 4-1 9-9 15-11 4-1 9 1 12-1 3-1 9-9 10-10 2-1 4 0 5-2l1-8Z"/><path fill="#5C402E" d="M465 577c-3 1-4 5-6 7-4 4-23 15-28 17l-4 1c-4 0-9 0-13 2l-2 1c-2-1 1-3 1-4 6-4 16-7 23-10 1 0 3-1 3-3l15-6c3-1 1-3 1-3l3 1 5-5 2 2Z"/><path fill="#A8846D" d="M522 162c0 2 4 5 6 5 1 3 2 3 1 0l3-1v3c3-1 5-1 6 1 3-1 6 1 8 4 2 0 2 5 2 7 3 1 6 3 6 7l1 1 1 1c1 2 3 11-2 9h-1c-3 0-5-2-6-6-3 0-6 0-9-2 4 2 4 5 1 8l5 15v21c-3 1-4 0-5-3l-3-14v-7c0-3-4-7-5-3 0 3 3 10 2 14 0 4-2 4-3 6 0 1 2 7 1 11s-4 3-5 5c-1 8 3 16 2 23 0 7-2 5-2 8 0 4 3 3 4 4 4 5 1 8 0 12 0 4 3 5-4 6h-9c1-3 0-2-2-3-2-2-18-6-13-11 5-4 5 0 5-7s-4-15-5-21l2-24c0-8-4-18-3-26 4 0 8-3 11-4 2 0 16 3 17-1 2-4-1-4-1-7s1-22-2-24c-2-1-5 1-7-1-3-4 1-5 1-6 0-3 1-3 2 0Z"/><path fill="#7A5B48" d="M532 169c4-4 7-10 7 0l4-3v5l2-2h5c-2 1-2 10-1 11s5 0 6 2l-3 1c4 1 2 3 3 6l-2 2-7-1v-4c1-1 6 1 7 1 0-3-8-4-8-5-1 0 3-4 2-6l-4 1c2-3 0-2-1-4v-2c-1-1-9 4-5-2l-3 2-1-2h-1Z"/><path fill="#9B7A67" d="M516 152c0 2 1 4 4 3 2 2 3 4 0 6-1-1-1-4-3-2s0 5-2 6c0-3-3-13-6-14-3 0-8 5-9-4l1-1c4 3 7 3 9 0 4 1 5 0 6 6Z"/><path fill="#795B4C" d="M516 152c4 5 4 0 4 0l9 4-1 7c-2-3-3-2-6-1h-2v-1c0-6-4-5-5-7-1-1 1-2 1-2Z"/><path fill="#775948" d="M510 146c-1 9-7 2-10 1v-3l10 2Zm-11 1c-4 0-6 7-6 0 3-1 5-6 6 0Z"/><path fill="#7B5944" d="M529 167c2 1 1 4 1 6-2-1-2-4-2-6h1Z"/><path fill="#715442" d="M556 190c5-7 6 4 11 5 0 6 3 12 3 17-3 2-13-11-13-13l1-4-2-5Z"/><path fill="#593F2E" d="M564 230c0 1 4 9 6 9 6 1-6-13-6-14 4 1 4-3 5-3 2-2 2 1 2 2h4l4 10 4 4-2 5 3 3-1 3c1 1 8 2 5 8-3 1-1-3-2-3h-6c-2 1-4 4-7 3 2 3 4 5 4 9-1 1-9-2-9-3 0 0 1-3-2-6-4-4-2-1-2-1-5 1-9-9-6-13-3-5-4-9-3-13-6-10 7-8 9 0Z"/><path fill="#8B6B56" d="m552 211 11 15c3 6 3 3 1 4-2-2-10-8-9-3 2 6 5 2 3 4-1 2-1 0-1 0-2 3 3 9 3 11 1 3-1 3-1 5 0 3 3 7 5 9 0 3-1 5-4 6l-5-2-1-5c-1-1-6-1-6-5l1-11 3-3c0-2-4-7-3-10 2-4 6-3 4-8-3-6-3-2-3-3-1-2 3-1 2-4Zm4-21h3l-1 3c0 1 4 1 1 6l11 13v2l-1 4c-3 0-3 6-5 5s-5-10-5-12c1-2 3 0 2-2-1 1-2-1-3-1-4 1-7-6-4-9 0 0 2-1 1-4 0-2-4 0-2-2s2 1 2 0l1-3Z"/><path fill="#8B6B56" d="M539 199c-1-1-3-1-2-2l4-2c-2-1-6 2-6 2-2-2 2-3 2-4-1-3-3-2 1-5 2 5 9 2 11 4s2 6 4 7l-2 3c-3 0-2 1-2 3l-5-5-5-1Z"/><path fill="#5E402D" d="M553 199h1l2 3-2 1 4 5s-2 2-4 1c-2-2-2-5-3-7l-2-3h4Z"/><path fill="#B99680" d="m183 559 3 9c1 1 3 2 3 5 1 2-1 3-1 3 0 2 3 5 1 7l-4 3c-1 1-1 9-3 8-3-2-7-14-7-15 0-3 5-23 8-20Z"/><path fill="#A07C68" d="M203 583c-6-1-3-1-3-3-1-2-3-4-2-5 2-2 6 6 5 8Z"/><path fill="#C6A58E" d="M279 86c-1 4 2 2 3 2l3 3c-1 1-1 2 1 3v6h-5l2 1c-1 4-4 8-6 2l4 1c0-3-1-2-2-2 2-4-1-4-5-4-3 1-6 7-4-1v-5c0-2 2-3 4-4 2-2 3-1 5-2Z"/><path fill="#8F6D57" d="M455 108c-3 1-2-1-3-1-5-7 4-6 3 1Z"/><path fill="#634637" d="m466 115 4 1v3l2 7c1 4 5 7 2 9-4 2-4 1-5 1l1-4c0-3-8-3-10-5 0-2 3-4 3-5l-1-4c0-1 4-2 2-5 2 0 1 2 2 2Z"/><path fill="#8C6B58" d="M469 143c2 1 0 3 2 3 8-2 1-10 11-10-2 6 2 3 3 4 0 2-3 3-3 5l-1-2c-3 1-3 4-4 5h-6c-2-1-1-3-2-5Z"/><path fill="#634637" d="M461 113c4 5-1 2-2 2l-1-4 3 2Z"/><path fill="#8F6D58" d="m401 95 6 4c0-3-2-3 1-4l-4-2c4-6 5 2 8-3h2c1 1-1 12-3 13-1 2-3 0-4 0-2-5-4-3-7-6-4-2-1-2 1-2Z"/><path fill="#856756" d="M420 129c1-2 2-2 5-1 0 2 0 3-2 4l-3-3Z"/><path fill="#634637" d="M308 107c-1-2-3-9-1-9 4-2 9 5 5 8l-4 1Z"/><path fill="#7F6150" d="M319 105c2 1 7 5 7 7l-2-2c-1 5-5 0-7-2-1-3-2-5 2-3Zm-7 1 2 2-4 1-2-2c0-2 2-2 4-1Z"/><path fill="#98755F" d="m285 91 1 3h-5c-1-2 2-3 4-3Z"/><path fill="#654939" d="M477 613c6-6 16-7 20-12 5-4 2-3 3-4l4-3c2-2 3-8 6-10 2-3 3-1 3-2l1-3 7-3c1 2-4 9 1 8v5l-2 2c-1 3-2 7-6 7l5 4-9 6-1 2-14 8c-1 0-3 1-5 4l-12 1-16 11-2-1v-11l7-4 4 1 6-6Z"/><path fill="#684B3B" d="m342 624 6-2 1 3c5 1 15-1 20-1 6 1 2 2 3 3 1 0 4-1 5 1v3l-9 5c3 5 6 2 10 2l-1 6h7c1 4-2 1-4 2-1 2 1 6 3 6h7l8 5h-1c-4 0-9-3-10-2l-1 1c-3 2-6 3-8 7 0 3 0 11-2 14-1 3-6 5-8 1-2-5 3-7-3-13 9-10-3-11-4-13-2-2 1-2 0-3 0-4-6-7-9-8 3-1 5-1 3-4s-19-5-15-9c4-5 13 5 12 1 0-4-3-2-4-2l-1-3-3 3c-1-1 0-3-2-4v1Z"/><path fill="#715342" d="M510 608c1 6-2 3-6 5-3 1-4 4-6 5l-28 19-9 6c-3 2-11 11-16 11-4-1-3-2-9-1h-2l-10 5-23 2c-5-1-3-1-4-3h1c8-1 5-5 8-7s16-3 18-3c5 0 7 3 11 4 2 0 2-9 4-10h4c3-2 8-12 10-6 2-3 5-2 7-2 5-2 12-12 19-13 4 0 5 3 7-4 3-1 0 6 3 4 3-1 2-5 2-5s5 2 8 0c4-2 5-5 7-6l3-1h1Z"/><path fill="#C8A790" d="M232 334c1-3-2-5-2-7l2-6v-6l4-11c2-2 6-2 7-3 1-2 0-8 3-10 2-3 13-2 3-6 3-5 10-12 12-17l2-8c2-3 4-3 4-5 2-5-3-12 6-11 9 0 6 3 9 2 2-1 1-3 2-4l5-2 3-4 6-1c3-1 8-11 12-7l6 10c2 2 3-3 6-4 9-1 6 10 6 15 1 6 3 3 2 4l-10 7c-8 3-12-2-14 9v1c-3-2-3 2-6 2h-8c-2 0-12 6-13 2-2-7 3-3 6-4 7 0 6-3 11-5 4-2 6-1 8-3 6-5 0-6 1-12-10 0-23-2-31 5-7 7-2 4-3 6l-4 1c-1 1-2 10-4 12-2 3-7 2-8 6-2 4 1 6 0 8-1 3-5 4-6 6-1 3 0 8-2 12l-2 6c-1 0-4-4-8-1-5 2-5 11-5 16v7Z"/><path fill="#9F7E65" d="M318 266c3-5 2-3 7-3 4 0 2-1 3-1 2 1 1 4 3 3 2 0 0-2 1-2l3 1 3-2 8 3h-1c-1 6-4 9-7 10-3 4-18-1-15-7-4 1-6 1-5-2Z"/><path fill="#7A5944" d="m345 265 4 1c1 2 1 2 3 2 0-2 4-2 5 1s-2-3 0-3h3c-2 1 0 5 0 5-1 2-6 0-7 2s6 1 4 5l-4 1c-4 1-14 0-15-4l3-3-5-3c3-4 3 2 6 2 0-1-4-3 3-6Z"/><path fill="#86664D" d="M318 266c4 2 1 0 2-1 2-1 3 2 3 3l1 3-15 8h-4c0 5-4 3-3-1 0-3 4-3 4-5v-4h4l-1 1c5 1 5-6 9-4Z"/><path fill="#9B7B65" d="M352 268c1-1-3-4-2-5 2-2 3 2 4 3h3c0 7 0 2-1 1l-4 1Zm-3-2c-3 3-4 4-4-1h1c5-1 2 0 3 1Z"/><path fill="#C0A088" d="M323 268c4 7 8 5 15 7 7 1 11 4 9 0l-3 1 1-5 5 3-2 4 5 1-2 1c-1 0-15 0-11 4 3 3 7-2 9-2 8 0 31 7 37 12 7 5 9 9 12 12-5 4-7 3-12 1l-9-6c-5-2-18-3-25-3-13 0-12 2-22 9-9 7-8 2-9 7 1 1 8-5 10-6l3 1c0-1 0-3 2-5 2-1 5-2 4 2-4 1-6 4-10 6l-8 8-5-1c5-4 0-12-3-15-4-3-6-2-8-7v-5c0-2-2-2-1-4l4-7v-2c1-4 12-7 14-11Z"/><path fill="#C8A790" d="M323 373c-3 1-5 2-5-2 2 0 5 0 5 2Zm-79-2c-4-4 4-13-10-11-1-11 24-13 24-4s-3 4-3 5c0 2 5 14-2 14-6 0-8-3-9-4Z"/><path fill="#B4927A" d="m468 343 3-1c12 5 26 10 39 7 4 0 6 0 4 4 1 2 0 4-2 6 7-2 7 7 6 12l-3 5-4 3-8 8v3c7 4 30-11 34-3s-20 18-24 23l-9 11-9 22c-3 6-9 10-9 12l-2 22-4 9c-2 8-1 11-4 20-4 9 1 15-2 22-2 1-2-2-3-3-4-2-9-2-13-2l4-9c2-2 6-3 6-5-2-1-2-1 0-2-2-4-5-6-8-7l-1-2c-1 0-3 0-3-2 11 2 7 0 9-9 3-1 3 5 5 3 3-2 1-3 2-4 0-2 2-3 3-5 4-9-2-15-1-25 1-1 6-1 8-3 6-9 0-16 2-25 3-10 11-11 7-4s-4 2-3 5c0 3 3 4 4 2 0-4 4-7 5-10l-1-6c1-4 5-12 4-14s-3-2-4-5l1-12c-2-2-11-2-12-4l5-7 6-1c4-1 4-7 0-5-3 2-3 4-8 2-6-1-13-9-16-12-3-2-5-5-6-8h2l5 4c3 2 8 6 14 5 0-7-5-5-9-6-3-2-1-3-2-4-2-1-9 1-8-5Z"/><path fill="#7A5942" d="M496 322c3 1 3 1 0 2 0 3-4 3-6 1v8c-4 2-4 5-2 10 1-4 3-2 5 1 3 0 7 0 10-2 1-4 3-8 6-4 1 2 1 4-2 8l12-9v-3c4 1 7 2 3 6l-6 4c-1 1 1 2 1 3 1 1-3 5-2 7-2 2-2 1-1-1l-1-2c-4-1-10 1-13 1-13 0-20-5-32-9-12-5-2-1-3-2-1 0-8 0-4-5 3-4 19-9 25-13l10-1Z"/><path fill="#95745E" d="M523 313c5 4 1 9 3 14l-4-2c2 4-2 3-1 7-4-1-12-8-18-7v3c3 1 3 6-1 6l-4-2c-2 0-3-3-2-8v-2c3 0 9 3 8-1l1-1c-4-1-4-2-3-4 6 0 10 3 15 5 4 1 0 1 0 1h7c1-3 0-6-1-9Z"/><path fill="#84624C" d="M502 316c3 5 8-1 7 5 3-2 2 0 5 3l-10-3c-16-6-32 8-46 14l6-6c11-7 25-14 38-13Z"/><path fill="#84614B" d="M416 444s0-3-2-3c8-3 3-3 4-6 1-6 14 3 4 8 3 1 1 1 1 2-2 0-5 1-7-1Z"/><path fill="#8B6951" d="M468 349c-3 4 4 5 5 8h-1l-5-4-2-4-2-1c-1-1 0-3 2-2l3 3Z"/><path fill="#7F5E47" d="M479 313c-2 1-4 3-8 3 2-1 4-4 8-3Z"/><path fill="#9D7B64" d="M367 510c2-1 4-2 6-1v11c3-2 4 0 6 1l17 5c7-2 14-2 20 0l-7 4c-5-3-10 4-11 4h-7c-5 0-6-3-10-5s-3 0-3 0l-7-8-7-10c0-2 1-3 3-1Z"/><path fill="#94715B" d="M368 498h4l-2 3c12-3 21-3 31-2l6 2c3 4-8 2-10 2l-18-1-13 3c-4 0 3-3 2-4l-10 1v-1c4 0 7-2 10-3Z"/><path fill="#876550" d="m365 511-19-7c-7 0-6 2-10 4-6 4-7-1-1-5 2-2 9-4 12-4 2 1 0 2 1 2h11v1c-1 0-5 2-5 4 3 1 9-2 10-2 0 1 0 5 3 6l-2 1Z"/><path fill="#AD8A73" d="M373 567c1 2 2 4-2 5-2-2-3-4-2-6l4 1Z"/><path fill="#94715B" d="M428 512h8c2 0 14-3 9-6-4-3-16-4-18-4-6 0-11 5-18 4 2-5 6-3 8-4 6-2 10-5 17-4s3 3 5 3h8c5 2 8 6 13 5-2-3-8-3-1-6 3-1 8 3 9 6v3c-3-1-5 2-8 2h-4c-2 1-1 7-3 10l-18 10c-4 2-9 3-13 2-1-3 5-2 6-2 2-1 4-8 8-6 2-4-3-3-6-2l-3 1-17 1c-3 0-5-1-4-3 0-3 2-4 5-4 5 2 10 0 9-6h8Z"/><path fill="#A3816A" d="m428 512-2 3c0-3-3-2-5-2 3 4-3 9-7 8-4 0-1-4-8 1 2 3-7 4-9 4-4 0-11-2-13-5 4-2-3-3-4-4v-4h11l9 1 8 4 8-1 2-5h10Z"/><path fill="#815F49" d="M384 521c5 1 10 4 16 4 4 0 4-1 6-3 5 4 12 1 17 1 5-1 3-1 4 1l-11 2h-13c-5 0-7 4-10 0-2 6-2 0-3 0-2-2-7-2-11-5h5Z"/><path fill="#B3917A" d="m468 507-9-7v-2c5 2 9 2 9 9Z"/><path fill="#4A3222" d="M443 437c-1 7-16 9-13 2 3-8 2-2 2-3l2-5c1-1 3-1 3-3 6-4 7 5 6 9Z"/><path fill="#664836" d="M358 305c2 4-1 4-1 5-2 2 5 5 8 4l-4 5c-11 1-12-12-3-14Z"/><path fill="#95735F" d="M262 580c8-2 7 4 10 6 2 2 4 1 7 4l3 7 6 2 1 3 4-1 13 9c3 2 5 8 7 7 3 0 2-3 4-3 3 1 4 3 5 4l9 8c6 5 11 4 12 15 6-5 8 4 11 8l2 3v2l-10-5-7-8c-2-1-8-2-8-4 0-3 4-6 0-9-3-2-7 1-9 2-3 0-10-4-11-5l-1-5c-1-2-7-5-7-5h-8c-7-1-16-14-20-19-5-5-7-4-9-6-2-4-1-7-4-10Z"/><path fill="#AD8A73" d="M472 545c0 3-3 11-5 13s-5 1-7 3l-2 4c-7 8-9 2-15 3s-4 3-6 4l-12 5c-2 3 4 4 2 6-3 3-4-5-5-7-5-5-17 4-23 4-5 0 1-4-1-3-3 1-3 4-3 5-2 1-12 3-11-3 7 0 27-4 32-8l5-5 4 4h3l5 2c2-1 5-7 9-8s7 0 11-2 4-5 6-7c4-4 9-5 13-10Z"/><path fill="#97745E" d="M460 529c2 6-7 9-11 13l-7 11-7 4c-2 0-2-2-1-3l5-11 12-11c2-1 7-1 9-3Z"/><path fill="#AD8A73" d="M381 579c-1 4-16 2-16 1v-4l16 3Z"/><path fill="#745746" d="M422 607c4 2 3 4 9 2l-4 3c-4 1-8 1-11 4-1-4-7 2-11 0l1-3 16-6Z"/><path fill="#6D4F3D" d="m427 602-13 2c5-3 7-4 13-2Z"/><path fill="#87644F" d="M270 92c7-1 3 5 0 6-2 0-5-2-5-4l5-2Z"/><path fill="#9B7A62" d="M515 354c1 1 3 1 4-1l2 11-3 7c-2-2-1-10-4-10-2-1-13 6-20 5-7 0-13-4-13-4v-2c11 4 26 4 33-7l1 1Z"/><path fill="#A7856F" d="M508 336c1-1 1 0 1 1v1c-5 0-2 3-5 5-2 2-10 4-12 3-3-1-2-2-2-3h-2c-1-3-3-11 2-8l6 2 6-3 1-6c5 0 2 5 5 8Z"/><path fill="#AB8A74" d="m513 329 6 5c1 0 4 4 3 5-7 1-11 11-20 9l7-10v-1c-1-3 0-9 4-8Z"/><path fill="#7A5942" d="M513 329c-4 0-3 5-4 8l-1-1 1-8 4 1Z"/><path fill="#98755F" d="M463 100c-1 1-5-3-5-5 2-1 6 3 5 5Z"/><path fill="#583F31" d="M368 632c-4 1-5 1-4-3h1l3 3Z"/><path fill="#B3917A" d="M486 326c-5 7-3 18 4 21 8 4 6 0 6 2-4 0-7 0-11-2l-14-7-4-5c3-2 17-10 19-9Z"/><path fill="#95745E" d="M490 325c3 0 7 3 3 4 0 4-1 5-3 6l-2 1v7c-2-2-4-8-3-10h4l-3-3 4-5Z"/><path fill="#A7856F" d="M496 324c7 1 0 4 2 8-1 5-9 2-5-3v-2c-3 2-2 1-3-2l6-1Z"/><path fill="#6B4B39" d="m493 329 1 3h4l4-3v5c-2 6-9 7-12 1 1-2 0-6 3-6Z"/></g></svg>