<?xml version="1.0" standalone="no"?>
<!DOCTYPE svg PUBLIC "-//W3C//DTD SVG 20010904//EN"
 "http://www.w3.org/TR/2001/REC-SVG-20010904/DTD/svg10.dtd">
<svg version="1.0" xmlns="http://www.w3.org/2000/svg"
 width="128.000000pt" height="128.000000pt" viewBox="0 0 128.000000 128.000000"
 preserveAspectRatio="xMidYMid meet">

<g transform="translate(0.000000,128.000000) scale(0.100000,-0.100000)"
fill="#000000" stroke="none">
<path d="M0 640 l0 -640 640 0 640 0 0 640 0 640 -640 0 -640 0 0 -640z m755
465 c22 -13 73 -55 113 -92 63 -59 72 -73 72 -103 0 -20 -11 -53 -25 -75 -18
-30 -24 -54 -25 -96 0 -30 -6 -61 -12 -67 -10 -10 -6 -10 20 -1 17 6 53 33 79
60 64 66 92 67 133 2 31 -51 39 -110 18 -131 -15 -15 -43 -15 -85 0 -31 11
-40 9 -134 -37 l-101 -50 78 -37 c74 -34 84 -36 147 -31 56 5 71 3 87 -12 30
-27 26 -63 -9 -83 -17 -9 -33 -30 -38 -47 -5 -16 -20 -36 -35 -44 -23 -13 -29
-13 -53 3 -15 10 -33 33 -41 52 -12 28 -29 41 -102 77 l-87 44 -40 -23 c-50
-29 -102 -30 -157 -3 l-43 21 -80 -39 c-67 -32 -83 -45 -101 -78 -11 -22 -32
-46 -46 -54 -23 -13 -29 -13 -52 3 -15 9 -29 30 -33 46 -3 17 -14 32 -24 35
-25 8 -51 48 -44 67 11 29 51 41 112 34 51 -6 65 -3 130 26 40 18 73 38 73 43
0 6 -40 30 -89 54 -65 33 -95 42 -115 37 -14 -3 -37 -9 -51 -12 -14 -4 -32 -1
-40 6 -17 14 -21 95 -5 105 6 4 17 22 25 41 12 29 19 34 46 34 25 0 41 -10 73
-44 23 -24 50 -48 61 -54 19 -10 20 -7 18 52 -1 45 -8 73 -27 106 -42 74 -37
91 52 177 42 41 89 81 104 89 75 40 185 39 253 -1z"/>
<path d="M543 1082 c-23 -9 -74 -47 -112 -84 -56 -52 -71 -73 -71 -95 0 -26 2
-25 19 13 21 47 38 61 53 46 8 -8 6 -18 -4 -34 -12 -18 -15 -48 -13 -128 1
-58 3 -108 4 -112 0 -4 28 -23 60 -42 59 -36 71 -51 71 -86 0 -12 14 -24 44
-35 43 -16 47 -16 83 1 28 14 39 27 43 49 4 22 18 38 54 62 81 53 81 52 82
166 1 79 -2 106 -14 120 -12 14 -13 20 -3 30 10 9 19 5 42 -23 16 -19 29 -28
29 -20 0 19 -136 146 -180 167 -50 24 -136 27 -187 5z m28 -292 c10 -6 19 -17
19 -24 0 -24 -57 -76 -82 -76 -42 0 -90 69 -67 96 14 17 101 19 130 4z m248 1
c18 -11 8 -54 -19 -81 -26 -26 -64 -25 -90 3 -36 37 -42 54 -24 71 17 18 109
22 133 7z m-139 -151 c32 -64 29 -70 -40 -70 -66 0 -70 4 -46 61 18 42 24 49
47 49 12 0 26 -15 39 -40z"/>
<path d="M210 730 c-5 -10 -10 -32 -10 -49 0 -22 -5 -31 -16 -31 -9 0 -14 -6
-11 -12 2 -7 11 -11 18 -9 88 25 80 26 166 -18 93 -46 93 -46 93 -27 0 8 -33
30 -74 49 -47 22 -83 47 -100 70 -34 44 -53 52 -66 27z"/>
<path d="M1005 706 c-28 -30 -72 -59 -120 -81 -47 -21 -75 -40 -75 -49 0 -9 2
-16 5 -16 3 0 47 21 99 47 93 46 95 46 135 33 42 -14 69 -6 38 11 -11 7 -17
22 -17 49 0 21 -5 42 -10 45 -6 4 -30 -14 -55 -39z"/>
<path d="M762 588 c-5 -7 -12 -24 -14 -38 -4 -33 -61 -70 -109 -70 -71 0 -129
38 -129 85 0 28 -19 35 -21 8 -4 -65 18 -98 88 -130 53 -25 55 -25 98 -8 62
23 105 75 105 125 0 43 -2 47 -18 28z"/>
<path d="M786 471 c-3 -4 29 -24 72 -44 81 -37 100 -53 123 -102 23 -48 51
-40 63 19 11 49 31 70 46 46 5 -8 10 -9 14 -2 14 22 -33 34 -83 21 -46 -11
-50 -11 -135 30 -100 46 -93 44 -100 32z"/>
<path d="M380 434 c-73 -35 -77 -35 -127 -23 -42 10 -55 9 -68 -1 -8 -7 -12
-17 -9 -22 3 -5 12 -1 18 8 16 22 27 7 41 -56 8 -34 15 -45 29 -45 10 0 22 7
26 15 4 8 14 28 21 43 10 21 34 38 91 65 43 20 78 40 78 44 0 14 -23 7 -100
-28z"/>
</g>
</svg>
