<?xml version="1.0" standalone="no"?>
<!DOCTYPE svg PUBLIC "-//W3C//DTD SVG 20010904//EN"
 "http://www.w3.org/TR/2001/REC-SVG-20010904/DTD/svg10.dtd">
<svg version="1.0" xmlns="http://www.w3.org/2000/svg"
 width="512.000000pt" height="512.000000pt" viewBox="0 0 512.000000 512.000000"
 preserveAspectRatio="xMidYMid meet">

<g transform="translate(0.000000,512.000000) scale(0.100000,-0.100000)"
fill="#000000" stroke="none">
<path d="M2260 4926 c-527 -67 -994 -290 -1372 -655 -372 -358 -607 -798 -699
-1311 -27 -146 -37 -487 -20 -652 54 -524 288 -1020 660 -1402 376 -385 826
-617 1364 -703 160 -25 558 -25 712 0 288 48 495 115 739 239 610 311 1065
883 1226 1540 56 228 65 311 65 583 -1 211 -4 270 -23 375 -98 568 -376 1059
-806 1427 -331 283 -730 469 -1171 544 -155 27 -518 35 -675 15z m400 -189
c63 -32 123 -116 265 -372 66 -119 134 -234 152 -254 18 -22 55 -48 85 -61 75
-32 143 -24 395 49 354 102 407 109 494 63 62 -32 113 -94 130 -155 16 -60 1
-137 -83 -432 -83 -292 -87 -331 -44 -419 34 -69 57 -85 359 -252 234 -128
295 -174 328 -240 30 -62 30 -153 1 -210 -39 -77 -103 -121 -432 -300 -196
-106 -251 -153 -275 -238 -21 -71 -19 -85 61 -363 74 -258 98 -372 91 -419
-13 -76 -67 -148 -140 -186 -79 -40 -151 -29 -527 80 -336 97 -397 78 -529
-159 -196 -350 -219 -387 -271 -441 -74 -76 -152 -96 -254 -66 -83 25 -135 95
-327 443 -110 199 -151 246 -235 271 -75 21 -93 18 -386 -65 -135 -38 -274
-74 -309 -78 -120 -16 -201 16 -264 106 -29 41 -30 47 -29 139 1 89 6 116 74
347 40 137 75 274 77 305 7 69 -21 141 -75 193 -20 19 -136 90 -256 157 -320
177 -365 212 -395 299 -16 50 -13 130 8 176 36 79 83 113 413 295 103 56 203
116 223 132 100 83 105 176 22 453 -103 346 -117 438 -77 514 26 51 75 100
125 122 78 36 137 27 513 -80 124 -35 234 -61 260 -61 127 0 188 54 306 270
195 355 251 431 343 456 61 17 125 10 183 -19z"/>
<path d="M2498 4413 c-25 -43 -85 -149 -133 -236 -128 -231 -180 -293 -295
-352 -88 -45 -155 -58 -264 -52 -85 4 -136 15 -326 70 -283 82 -300 85 -300
61 0 -11 32 -129 71 -264 98 -339 103 -441 29 -595 -62 -129 -122 -176 -473
-370 -108 -60 -196 -114 -194 -119 2 -6 113 -72 248 -146 328 -183 396 -246
450 -423 33 -108 24 -221 -35 -422 -26 -88 -60 -209 -76 -268 l-29 -108 32 7
c18 3 118 31 222 61 263 75 341 93 410 93 131 0 263 -57 360 -155 62 -62 76
-85 243 -384 54 -96 102 -176 107 -178 11 -3 5 -13 162 267 158 281 205 337
337 400 139 65 251 64 492 -5 224 -65 377 -105 382 -100 2 2 -26 111 -63 242
-82 286 -94 341 -95 413 -1 152 90 324 218 412 26 18 143 85 261 151 118 65
223 124 233 132 18 12 15 15 -39 48 -32 19 -141 81 -243 137 -102 56 -207 119
-235 140 -130 100 -203 265 -192 430 4 49 29 159 75 320 91 323 86 300 63 300
-11 0 -107 -25 -213 -55 -330 -95 -341 -97 -453 -93 -159 7 -276 66 -375 190
-25 31 -99 153 -164 271 -66 118 -127 225 -136 236 -15 21 -17 20 -62 -56z
m337 -637 c337 -85 610 -285 785 -575 323 -538 186 -1241 -315 -1622 -251
-191 -568 -282 -873 -251 -482 49 -881 347 -1051 786 -97 250 -112 502 -46
761 120 476 512 831 1015 921 120 21 361 12 485 -20z"/>
<path d="M2883 2939 c-146 -24 -287 -121 -303 -209 -11 -55 -12 -303 -3 -548
l6 -182 82 0 c50 0 86 5 93 12 9 9 12 97 12 335 l0 324 24 24 c63 62 276 75
390 22 32 -15 69 -27 82 -27 34 0 104 70 104 104 0 100 -271 181 -487 145z"/>
<path d="M1915 2907 c-179 -47 -238 -119 -159 -193 47 -45 73 -50 128 -25 83
36 159 46 256 32 121 -17 166 5 177 87 6 48 -15 74 -74 92 -57 18 -268 22
-328 7z"/>
</g>
</svg>
