<?xml version="1.0" encoding="UTF-8"?>
<svg id="Layer_1" xmlns="http://www.w3.org/2000/svg" version="1.1" viewBox="0 0 1920 1080">
  <!-- Generator: Adobe Illustrator 29.0.1, SVG Export Plug-In . SVG Version: 2.1.0 Build 192)  -->
  <path d="M875.15,911.1c1.88.97,2.55,1.37,4.83,2.38,2.21.98,5.07,4.63,6,1.02,2.51-9.74-.4-20.18,2.06-29.96-3.95-32.98,6.63-71.96-2.39-103.19-4.18-3.56-11.78-2.75-15.23,1.57-3.15,3.94-.48,7.37-.38,11.54.03,1.37.06,2.75.08,4.12-.28,20.34-.19,41.15-.13,61.95-.17,15.68-.3,31.35-.06,47.01.58,3.12,3.87,2.86,5.22,3.56ZM834.99,372.49c7.38,5.75,17.76,5.73,26.48,8.54,1.01-.13,2.02-.25,3.04-.36,2.99-.32,6.05-.56,9.17-.74.11,0,.23-.01.35-.02,11.99-.63,24.74-.23,37.79.47,0,0,.02.01.03,0,3.38.19,6.79.39,10.2.59.01.01.02.01.03,0,5.13.32,10.29.64,15.43.94h.03c3.43.2,6.86.38,10.28.54,28.82,1.34,56.9.8,79.15-9.47l-2.24-3.66c-57.42.59-114.8,1.32-172.24-.31-3.04-.1-18.57-1.31-17.5,3.48ZM806.18,349.81c.59.44,8.56,1.21,10.31,2.2,81.69-4.1,167.26,7.5,247.44-4.07l-.03-5.84-12.36-2.14-245.54.54c-3.57.77-.77,8.61.18,9.31ZM747.19,722.3c1.34,3.99,32.28,18.09,38.05,21.74.9.5,1.79,1.02,2.65,1.57,6.48,4.06,11.81,9.1,16.23,14.82.3.39.59.77.87,1.16.87,1.16,1.69,2.35,2.48,3.57.48.75.95,1.51,1.41,2.27,9.93,16.57,14.12,37.29,16.85,56.59.35,2.48.68,4.93.98,7.34,2.33,18.34,3.81,34.65,8.5,43.83.12.24.24.48.37.71,2.62,4.84,6.21,7.49,11.42,7.1-1.84-53.11,12.87-119.41-41.4-151.58-.05-.05-.1-.11-.17-.16l-.21-.18c-.08-.06-.17-.13-.27-.2-.18-.13-.4-.26-.63-.4-.12-.08-.25-.15-.38-.22-.22-.13-.46-.25-.71-.39-.82-.42-1.81-.88-2.94-1.37-.38-.16-.77-.33-1.18-.5-.02,0-.05-.01-.08-.03-.43-.18-.88-.36-1.34-.54-.26-.1-.52-.2-.79-.31-1.75-.68-3.69-1.39-5.77-2.09-.02,0-.04-.01-.05-.02-5.97-2.04-13.03-4.11-19.73-5.64-.35-.08-.69-.15-1.03-.23-2.58-.58-5.1-1.06-7.47-1.43-.14-.02-.29-.05-.43-.06-.46-.08-.92-.14-1.37-.2-1.4-.19-2.73-.34-3.98-.41-7.18-.51-11.66.78-9.88,5.26ZM995.3,781.31c-6.45,5.77-3.04,10.71-3.22,17.21-1.58,45.59-1.01,90.95-1.07,136.48,4.58-5.04,11.46-1.6,17.06-5.61,3.87-47.61.28-95.22,3-142.94.27-1.41-1.31-1.44-1.62-1.88-3.35-4.81-9.14-7.73-14.15-3.26ZM980.01,682c2.76-.4,1.53.32,2,1.48,5.06,13.14,4.39,30.76,14.44,40.85.68.68,1.41,1.33,2.2,1.94l.6.45c1.75.73,11.78.53,14.01.02,5.8-1.34,12.71-15.27,13.5-20.48,2.9-19.04-9.97-46.29-17.35-63.64-.81-2.48-1.66-4.91-2.56-7.28-.19-.5-.38-1.01-.58-1.5-.05-.14-.11-.28-.16-.42-.23-.58-.45-1.14-.69-1.71,0-.01,0-.02-.01-.03-.25-.62-.51-1.24-.78-1.86-.13-.32-.27-.64-.41-.96-.4-.91-.8-1.81-1.22-2.7-.28-.6-.56-1.2-.85-1.79-.42-.87-.84-1.71-1.28-2.54-.44-.84-.89-1.67-1.34-2.48-.29-.52-.59-1.04-.89-1.54t0-.02c-.45-.76-.9-1.5-1.37-2.22t-.01-.02c-.43-.68-.87-1.34-1.32-1.97-.98-1.4-1.98-2.7-2.99-3.88-.25-.29-.5-.58-.75-.85-.26-.27-.5-.53-.74-.78-.17-.18-.34-.35-.51-.51-.5-.49-1.01-.96-1.52-1.39-4.6-3.92-9.49-5.28-14.45-2.92,0,0,0,.01,0,.01-1.18.55-2.37,1.33-3.56,2.34,0,0,0,.01-.01.01-.47.39-.95.83-1.42,1.31-1.02,1.02-2.04,2.22-3.06,3.59-.41.55-.82,1.14-1.23,1.75-1.43,2.14-2.85,4.64-4.27,7.54-.47.97-.94,1.98-1.4,3.03-.94,2.11-1.87,4.4-2.79,6.87-10.27,26.64-43.09,77.18-9.77,97.37.82.09,1.61.16,2.35.21,1.71.13,3.23.18,4.63.12.04,0,.09,0,.15-.01.7-.02,1.38-.08,2.02-.18,1.16-.16,2.24-.43,3.27-.8.32-.12.64-.25.96-.39.48-.22.96-.47,1.43-.74.31-.18.62-.37.93-.58h.01c.31-.21.61-.43.93-.67,1.1-.83,2.22-1.84,3.41-3.05.34-.34.69-.71,1.05-1.09.35-.38.72-.78,1.09-1.2,1.66-2.79,2.73-5.65,3.4-8.65.16-.69.29-1.4.4-2.11.02-.1.04-.21.05-.33.17-1.07.29-2.16.37-3.27.09-1.23.14-2.49.15-3.78l5.96-18.55ZM950,942c3.79-4.27,13.23,2.24,17.07-.44.02-1.24.03-2.51.05-3.81.07-4.86.17-10.08.28-15.58.02-1.05.05-2.11.07-3.18.01-.53.02-1.05.03-1.59.04-1.7.08-3.41.12-5.15.01-.66.03-1.32.04-1.98.02-.91.04-1.82.07-2.74.04-1.92.09-3.86.13-5.81.03-.89.05-1.77.07-2.67.31-12.69.66-26.06.98-39.29.02-.97.05-1.93.07-2.9.1-4.09.2-8.17.29-12.19.02-1.13.05-2.25.07-3.37.02-.55.03-1.1.04-1.65.02-1.12.05-2.24.07-3.35.17-7.94.32-15.64.42-22.9.03-1.98.05-3.92.08-5.83.08-6.52.12-12.61.11-18.13-.4-3.1-1.58-5.5-3.21-7.16-.44-.45-.9-.84-1.4-1.18-.24-.17-.49-.33-.75-.47-.26-.15-.53-.28-.8-.4-.4-.18-.81-.33-1.23-.44-1.5-.42-3.1-.47-4.68-.15-.45.09-.9.22-1.35.38-.45.15-.9.33-1.34.56-.67.34-1.31.74-1.94,1.21-.42.31-.82.66-1.21,1.04-.78.76-1.5,1.65-2.15,2.67v156.5ZM910.94,917.42c5.48,1.1,10.26,4.51,16.06,3.58.12-1.57.23-3.27.34-5.08.09-1.49.17-3.07.25-4.71.05-.91.09-1.84.13-2.8l.06-1.44c.07-1.46.12-2.96.18-4.51.02-.56.04-1.13.06-1.71.09-2.57.17-5.24.25-8,.02-.62.04-1.26.05-1.89.02-.51.03-1.02.04-1.53.19-7.35.33-15.2.44-23.24.01-.4.01-.8.02-1.2,0-.87.02-1.75.03-2.62.02-1.03.03-2.06.04-3.09.03-2.23.05-4.47.07-6.7.01-.88.02-1.76.02-2.64,0-1.04.02-2.07.03-3.11v-.72c.01-1.03.02-2.05.03-3.08.12-17.48.12-34.34.07-47.24,0-1.62-.01-3.18-.02-4.67,0-1.98-.01-3.84-.02-5.56-.01-.12-.05-.25-.11-.39-.05-.13-.13-.28-.22-.42-.09-.15-.19-.3-.31-.45-.17-.22-.37-.45-.56-.65-.07-.08-.14-.15-.2-.2-.4-.41-.79-.74-1.05-.93-5.51-3.94-10.1-4.76-15.16.54-4.95,5.19-1.56,9.58-1.42,15.5.28,39.71.52,79.32.9,118.96ZM689.99,435.51c6.97,17.02,18.58,36.96,21.99,55.17,7.01,31,1.96,68.58-17.98,93.84l5.5,6.48,8.48,4.99c.09-.86.35-1.92.99-2.52.8-.76,1.58-1.61,2.36-2.53,1.54-1.84,3.04-3.97,4.46-6.29.48-.77.94-1.56,1.4-2.37s.91-1.63,1.35-2.47c.66-1.26,1.3-2.54,1.92-3.83.41-.86.81-1.73,1.2-2.6s.77-1.74,1.13-2.61c2.21-5.21,3.99-10.34,5.19-14.46,5.63-46.4.17-88.61-36.6-119.75-.45-.4-.28-2.72-1.39-1.05ZM1267,451c-1.92.09-3.89-.41-5.75.3-41.41,34.44-43.41,106.59-8.23,146.67l2.04-.58c1.48-5.61,5.86-8.89,10.94-10.91-30.04-41.59-25.39-93.82,1-135.48ZM1214,718.01c-.85-1.15-12.34-1.3-14.53-1.04-10.83,1.07-20.42,3.27-28.9,6.43-3.11,1.15-6.07,2.44-8.88,3.86-.52.25-1.03.52-1.54.8-1.25.64-2.47,1.32-3.66,2.03-5.74,3.4-10.82,7.36-15.29,11.8-.56.55-1.11,1.11-1.65,1.68-2.7,2.85-5.17,5.87-7.43,9.06-.9,1.28-1.77,2.58-2.6,3.9-3.32,5.3-6.11,10.99-8.42,16.99-.58,1.5-1.13,3.02-1.64,4.55-10.19,30.23-9.19,67.44-4.45,101.93.74-.37,1.44-.77,2.12-1.2,1.03-.63,1.99-1.32,2.88-2.07.01,0,.01-.01.01-.01.5-.41.97-.84,1.42-1.28.71-.69,1.38-1.42,1.99-2.18.35-.42.69-.86,1-1.3,3.21-4.42,5.14-9.8,6.37-15.55.11-.53.22-1.06.32-1.6.53-2.75.91-5.57,1.2-8.41.14-1.39.26-2.78.37-4.16.05-.73.11-1.46.16-2.2.09-1.29.17-2.59.24-3.87.13-2.07.24-4.12.37-6.11.18-2.6.37-5.1.65-7.45,4.4-36.33,14.28-61.63,45.57-81.43,12.15-7.68,27.9-9.2,34.32-23.17ZM1209.49,339.99c-2.09.15-14.48-.61-14.5,1.51,9.92,7.18,19.91,11.66,32.47,8.46,9.36-.24,23.73,4.15,20.43-9.86-12.37-4.24-25.66-1.03-38.4-.11ZM1073.01,916c3.5.61,5.19-3.36,8.04-4.45,2.83-1.09,6.73-.22,8.96-3.26l1.05-123.83c-.01-.78-1.97-2.85-2.4-3.08-6.26-3.3-13.38-2.7-16.63,4.15l.98,130.47ZM1045.75,256.29c3.07,2.33,5.91,4.89,8.54,7.66.75.78,1.48,1.59,2.2,2.41,1.79,2.05,3.48,4.2,5.07,6.43.95,1.34,1.87,2.71,2.76,4.1,1.47,2.33,2.85,4.73,4.15,7.19.77,1.48,1.52,2.97,2.24,4.49.71,1.52,1.4,3.06,2.06,4.62.44,1.03.87,2.08,1.28,3.13.42,1.05.82,2.11,1.21,3.17,6.25,17.02,9.53,35.51,11.69,52.07.44,3.49-.22,7.32.09,10.88-.15.86-3.41.51-4.97,1.12-1.43.82-2.85,1.64-4.26,2.44-1.92,1.1-3.82,2.19-5.71,3.27-.01,0-.02,0-.02,0-2.19,1.24-4.36,2.48-6.52,3.7-1.09.62-2.17,1.23-3.26,1.84-5.36,3.01-10.63,5.94-15.82,8.79-.02,0-.04.02-.05.02-12.49,6.82-24.53,13.09-36.34,18.73-3.1,1.48-6.18,2.91-9.26,4.29-1.81.82-3.61,1.62-5.41,2.41-.02.01-.04.01-.05.02-.97.42-1.94.84-2.91,1.25-.46.2-.92.39-1.38.59-1.24.52-2.48,1.04-3.72,1.54-1.37.56-2.73,1.11-4.1,1.66-1.75.69-3.5,1.37-5.26,2.03,0,0-.01,0-.02,0-1.92.72-3.84,1.43-5.75,2.11-.97.34-1.94.68-2.9,1.02-22.14,7.63-44.26,12.45-67.75,13.71-7.57.41-15.29.44-23.2.08-25.8-1.19-53.63-6.57-85.14-17.01-1.05-.21-2.78-.8-4.9-1.66-.4-.16-.82-.34-1.25-.52-.37-.16-.76-.33-1.15-.5l-.6-.27c-.6-.27-1.22-.56-1.86-.86-5.07-2.41-10.95-5.65-15.17-8.88-.35-.27-.69-.54-1.02-.81-.16-.13-.32-.26-.47-.4-.37-.31-.72-.62-1.04-.93-2.74-2.63-3.97-5.13-2.29-7,.07-.09.15-.17.24-.25l5.24-1.03c3.39-3.98-13.25-17.13-15.55-20.35-3.65-5.08-13.95-23.9-14.97-29.56-.66-3.66-1.15-15.04-.43-18.35.38-.4.76-.81,1.13-1.21.48-.53.96-1.04,1.43-1.5,1.57-1.53,3.01-2.45,4.27-1.24.07.06.14.13.21.21.6.7,1.15,1.91,1.66,3.82.29,2.07.69,4.19,1.2,6.33.19.85.41,1.7.64,2.56,2.44,9.08,6.58,18.58,11.84,27.67.74,1.3,1.52,2.59,2.31,3.86,0,0,.01,0,.01.01,1.32,2.13,2.69,4.23,4.13,6.29,1.84,2.66,3.77,5.25,5.76,7.75.34.43.68.86,1.03,1.28,2.95,3.62,6.03,7.03,9.2,10.17.33.33.66.66,1,.98.68.65,1.36,1.29,2.04,1.93.67.62,1.35,1.22,2.03,1.82t.01.01c1.36,1.19,2.74,2.32,4.12,3.39.69.53,1.38,1.06,2.07,1.56,39.98,21.75,86.98,22.01,131.56,14.4,1.93-.33,3.84-.67,5.75-1.03h.01c1.91-.35,3.82-.72,5.72-1.11,2.86-.57,5.7-1.17,8.53-1.8,2.82-.62,5.63-1.27,8.42-1.95,2.79-.67,5.56-1.36,8.32-2.07,1.83-.47,3.66-.95,5.47-1.44.47-.18.9-.36,1.3-.54.61-.27,1.15-.52,1.62-.75,2.55-1.3,3.06-2.25,1.96-2.94-.21-.13-.49-.26-.84-.38-3.31-1.15-12.43-1.35-24.4-1.19-1.03.02-2.07.03-3.14.05-1.7.03-3.46.07-5.26.11-.6.01-1.21.03-1.83.04-.75.02-1.51.04-2.27.06-2.02.05-4.08.1-6.17.16-2.89.07-5.83.15-8.81.24-1.55.05-3.11.09-4.67.12-1.45.04-2.9.07-4.35.11-.06,0-.11,0-.17,0-4.48.11-8.98.2-13.41.27-.79.02-1.58.03-2.36.03-8.36.09-16.42.07-23.61-.18-4.06-.13-7.84-.35-11.23-.67-7.21-.67-12.71-1.76-15.51-3.47-.15-.09-.28-.18-.41-.27-.05-.03-.09-.06-.13-.09-.15-.12-.3-.24-.43-.37-2.15-.63-4.32-1.35-6.51-2.14h-.01c-1.09-.41-2.19-.83-3.28-1.26-.01.01-.01,0-.01,0-1.1-.45-2.2-.91-3.3-1.38h0c-1.1-.49-2.2-.99-3.3-1.5h-.01c-2.2-1.04-4.4-2.16-6.59-3.34h-.01c-2.19-1.19-4.36-2.45-6.5-3.78-.54-.33-1.08-.67-1.61-1.01-1.07-.68-2.13-1.38-3.18-2.1-.53-.35-1.05-.72-1.57-1.08-1.04-.74-2.07-1.49-3.09-2.25s-2.03-1.54-3.04-2.34c-1-.8-1.98-1.61-2.95-2.43-.97-.83-1.93-1.67-2.87-2.53-.95-.85-1.87-1.72-2.79-2.61-.46-.45-.9-.89-1.35-1.34-.89-.89-1.77-1.81-2.62-2.73-.86-.93-1.7-1.87-2.52-2.82-13.03-15.16-20.87-33.59-17.61-53.37.34-.81.91-1.74,1.63-2.75.24-.33.49-.67.76-1.01,0,0,0-.01.01-.01,3.11-3.98,8.1-8.66,10.93-10.66.13-.08.25-.16.36-.24,1.9-.42,9.74-.41,11.84-.13,1.7.23,1.16,1.51,2.26,1.99.72-.08,1.38.02,2.01.26.32.13.62.29.92.49.3.21.59.44.87.7.27.26.53.55.78.86.25.32.5.67.73,1.03s.44.74.65,1.13h.01c.2.4.4.81.58,1.23.38.85.71,1.75,1,2.64.13.39.24.78.35,1.16.42,1.46.73,2.89.95,4.14.05.33.1.64.15.94.08.57.13,1.08.17,1.52,3.84.48,6.44-1.33,8.22-4.07.25-.37.48-.76.69-1.16.12-.22.23-.45.34-.68.18-.37.35-.75.5-1.14.81-2,1.36-4.19,1.75-6.23.17-.86.3-1.68.41-2.46.04-.24.07-.47.1-.7-.8-3.47-1.91-6.7-3.31-9.67-.69-1.5-1.46-2.93-2.29-4.29-.62-1.02-1.28-2-1.97-2.94s-1.42-1.84-2.17-2.7c-1.31-1.5-2.71-2.87-4.19-4.12-.66-.57-1.33-1.1-2.02-1.61-2.24-1.65-4.64-3.05-7.16-4.18-7.34-3.3-15.7-4.29-24.19-2.68-.2.03-.4.07-.6.12-.98.19-1.96.42-2.94.69-2.2.6-4.4,1.38-6.59,2.34-2.73,1.2-5.43,2.69-8.08,4.47-.58.4-1.16.82-1.74,1.25-.87.65-1.73,1.32-2.6,2.04,0,.01,0,.02-.02.02-2.03,1.67-4.07,3.53-6.07,5.54-.29.29-.57.58-.86.87-.53.54-1.05,1.09-1.56,1.65-.62.66-1.22,1.32-1.82,2-.55.62-1.09,1.24-1.62,1.87-.82.98-1.64,1.97-2.43,2.99-.53.66-1.05,1.34-1.56,2.02-.02.03-.04.05-.05.07-.51.68-1.02,1.37-1.51,2.06,0,.02-.02.03-.03.04-.5.7-.99,1.4-1.47,2.11,0,.01-.02.02-.03.04-.48.7-.96,1.42-1.42,2.14-.01.01-.02.02-.03.04-1.42,2.19-2.77,4.43-4.01,6.7-.01.01-.02.02-.02.03-1.05,1.89-2.03,3.81-2.93,5.74-.19.39-.37.79-.55,1.18-.35.77-.68,1.54-1,2.31-.74,1.75-1.41,3.5-2,5.25-.07.2-.14.4-.2.6-.39,1.16-.74,2.32-1.06,3.48-1.42,5.15-2.13,10.18-1.95,14.89.02.51.05,1.02.09,1.52-.06.53.03,1.22.22,2.04.51,2.17,1.78,5.18,3.23,8.38.44.96.89,1.94,1.34,2.93,2.51,5.46,5.02,10.89,4.79,13.07-.01.1-.03.18-.05.26,0,.08-.03.15-.07.21-.15.34-.43.54-.87.55h-.02c-2.57-.69-4.02-1.4-5.12-3.89-2.71,1.97-1.29,6.06.68,10.05.35.69.7,1.38,1.05,2.06,1.22,2.35,2.43,4.52,2.89,6.05h0c1.11,1.61,2.25,3.18,3.42,4.73,1.75,2.31,3.56,4.55,5.44,6.73.61.73,1.25,1.45,1.89,2.17,2.54,2.85,5.19,5.58,7.93,8.2t.01,0c2.74,2.63,5.57,5.13,8.49,7.52,1.46,1.21,2.95,2.38,4.46,3.51,8.27,6.29,17.17,11.74,26.56,16.41h0c3.41,1.7,6.88,3.29,10.42,4.78t.01,0c2.64,1.13,5.33,2.19,8.04,3.2h.01c2.71,1.01,5.45,1.96,8.21,2.86,58.79,19.07,129.37,13.53,183.12-6.63,13.49-4.9,26.51-10.59,39.46-16.34,2.35-1.04,4.71-2.08,7.06-3.13,1.17-.52,2.35-1.04,3.53-1.56,4.7-2.08,9.41-4.13,14.14-6.13,3.55-1.49,7.11-2.96,10.7-4.38,1.19-.47,2.39-.94,3.59-1.4,2.4-.92,4.81-1.82,7.24-2.69,2.42-.87,4.86-1.71,7.31-2.52,7.35-2.42,14.85-4.55,22.55-6.26,9.76-2.28,19.67-3.79,29.59-4.51,1.78-.13,3.56-.23,5.34-.31,7.03-.3,14.04-.22,20.98.27,24.79,1.76,48.74,8.65,69.3,20.88h.01c2.12,1.27,4.2,2.59,6.25,3.96l.02.02c1.36.92,2.7,1.86,4.02,2.82,3.34,2.44,6.56,5.04,9.66,7.79,1.22,1.1,2.42,2.22,3.61,3.36.6.58,1.19,1.16,1.77,1.75,8.2,8.25,15.35,17.78,21.17,28.6h.01c.82,1.55,1.62,3.12,2.4,4.72.39.8.77,1.61,1.14,2.42-.36-2.29-.79-4.88-1.31-7.54-.83-4.26-1.87-8.7-3.15-12.38-.48-1.38-.98-2.65-1.52-3.76-3.33-15.26-6.31-22.69-16.44-34.93-.72-.85-1.47-1.7-2.25-2.55-1.16-1.27-2.38-2.54-3.65-3.79-.42-.42-.85-.84-1.29-1.26-16.98-16.26-42.68-30.95-68.58-38.82-1.33-.41-2.66-.79-3.99-1.16-.66-.18-1.33-.36-1.99-.54-3.31-.87-6.62-1.62-9.91-2.24-13.82-2.63-27.2-2.96-38.78-.17,1.52-26.77-5.72-61.56,9.75-84.69,1.66-3.64,3.42-9.18,4.13-13.18.61-.08,1.25.22,1.89.83l.25.25c.16.17.33.36.49.57,0,0,.01,0,.01.01.16.21.33.43.49.67.25.36.5.77.75,1.21.13.24.27.48.41.74.77,1.45,1.52,3.19,2.24,5.07.14.35.27.7.39,1.05.66,1.76,1.27,3.62,1.83,5.46.11.35.21.69.32,1.03.01.04.02.09.04.14.1.33.19.66.29.98.99,3.44,1.77,6.67,2.21,8.93.08.4.15.76.21,1.09.01.04.01.08.02.12.03.21.06.4.09.58.04.3.07.55.09.75.48,4.2-2.01,15.71,2.68,17.34,4.44,1.54,2.94-1.52,4.27-3.08,14.95-15.36,10.82-25.48,4.03-43.73,9.85,3.04,20,17.68,30.52,16.01.74.14,1.18-.12,1.37-.68.07-.17.11-.37.13-.6.06-.56-.02-1.28-.19-2.1-.05-.29-.13-.6-.21-.92-.11-.38-.22-.78-.35-1.19-.06-.19-.12-.38-.19-.57-.31-.95-.69-1.95-1.09-2.94-.14-.33-.28-.67-.42-1-.35-.83-.71-1.65-1.07-2.41-.16-.35-.32-.69-.48-1.02-.07-.16-.15-.32-.23-.49-.3-.61-.58-1.16-.82-1.62-.06-.11-.12-.23-.17-.33-.11-.21-.21-.38-.29-.53s-.16-.27-.21-.36c-.21-.34-4.34-4.75-4.62-4.93-.74-.48-2.19-.19-3.36-.66-.34-.13-.37-1.47-1.03-1.63-1.48-.36-12.02-1.86-13.91-2-4.23-.32-9.47,3.45-14.38,1.96-.03-.08-.06-.16-.08-.25-.1-.5.12-1,.58-1.5.05-.05.1-.11.15-.16.11-.1.23-.21.35-.31.51-.41,1.16-.82,1.92-1.22.19-.1.38-.19.58-.29.91-.44,1.93-.86,2.99-1.26.23-.08.47-.17.7-.25.6-.21,1.21-.42,1.81-.61.08-.03.16-.06.25-.08.16-.05.31-.1.47-.15.12-.04.24-.08.35-.11.01,0,.02-.01.02-.01.32-.09.63-.19.94-.28.18-.05.36-.1.54-.16.2-.05.39-.1.57-.16.01,0,.02-.01.02-.01,1.98-.54,3.63-.93,4.41-1.1.5-.11,1.05-.19,1.64-.27.79-.09,1.66-.17,2.56-.24s1.84-.15,2.78-.24c5.75-.59,11.57-2.02,9.45-9.62-.93-1.04-1.95-1.88-3.04-2.55-.54-.34-1.09-.63-1.66-.89-4.41-2.02-9.7-1.99-14.81-2.36-11.04-.04-16.4,4.04-23.42,11.44-.79.84-.65.93-2.08.65.06-3.55-.93-7.22-2.65-10.68-2.37-5.46-6.1-9.72-10.73-12.69,0-.01-.01-.01-.01-.01-2.05-1.51-4.2-2.73-6.35-3.56-1.58-.43-3.97-.86-6.65-1.12-2.64-.37-5.39-.44-8.21-.22-1.38.08-2.71.24-3.92.49-1.25.22-2.52.49-3.78.82-.16.36-.35.67-.56.92,0,.01-.02.01-.02.02-.25.19-.48.4-.66.62h-.01c-.58.4-1.24.6-1.9.77-.19.04-.38.08-.57.13-.27.06-.54.12-.8.21-.18.04-.34.1-.51.18-.08.03-.15.06-.23.11-.08.03-.16.07-.23.13-.02,0-.03.01-.04.02-.75.47-1.25,1.28-1.17,2.77v.09c3.74-1.22,3.75,1.4,4.73,1.97,9.88,5.7,20.62,10.99,27.96,19.78.67.82,1.06,1.49,2.3,1.27l-1.99,1.51c-.53-.33-1.17-1.49-1.5-1.53-4.3-.55-10.42,0-15,0-.41,0-6.36,3.14-7.26,3.68-2.6,1.58-13.24,15.73-13.24,17.82v14.5c4.93,1.25,4.86-.82,6.74-1.99,2.17-1.47,4.26-2.98,6.32-4.48,1.38-1,2.74-2,4.11-2.98,7.51-5.41,15.03-10.33,24.83-12.54-14.63,32.32-26.3,67.8-19.96,104.33l-8.03,2.66c-5.98-34.18-12.24-70.12-38.02-96.5-3.47-3.61-11.73-6.68-10.99-12.5h29c-.66-2.91,2.02-1.57,3.75-2.22,1.78-1,4.63-7.92,10.26-5.78.5-2.5-1.15-4.56-4-6.19-.25-.15-.52-.29-.79-.42-.26-.14-.54-.27-.83-.4s-.58-.26-.88-.38c-.3-.13-.61-.25-.93-.36-.79-.3-1.62-.57-2.48-.82-.35-.1-.7-.2-1.06-.29-.89-.24-1.8-.45-2.74-.64-.56-.12-1.13-.23-1.7-.33s-1.15-.19-1.73-.28c-.57-.09-1.16-.17-1.74-.24-7.71-.96-15.44-.63-18.06.92-1.94.8-7.67,6.68-9.07,5.42-.14-3.76,3.19-6.07,4.86-8.85,3.41-5.69,6.43-9.44,9.81-14.92,1-1.61,4.82-2.65,2.44-5.78-2.83-3.32-15.89.78-19.26,2.68-.29.22-.58.44-.86.66-.57.45-1.11.9-1.63,1.35-8.74,7.65-11.41,16.8-10.36,28.87-3.17,1.04-3.47-2.33-5.39-3.58-12.12-7.84-23.17-4.71-33.82,3.64-.96.76-4.93,4.86-3.79,5.93,10.89-.49,20.89,3.45,31.99,2.02.57,3.18-1.07,1.47-2.48,1.96-10.27,3.22-16.03,10.44-19.9,19.56-.28.65-.54,1.31-.8,1.98s-.51,1.35-.75,2.04c-.56,3.16,1.62,14.62,4.68,15.41.08.04.16.06.23.09.78.26,1.54.08,2.28-.44.26-.18.52-.4.79-.67.13-.13.26-.27.39-.42.39-.43.77-.94,1.16-1.52.17-.25.34-.52.51-.8,1.29-2.1,2.59-4.82,3.95-7.61.18-.38.37-.75.55-1.12.18-.38.37-.75.55-1.12,1.67-3.35,3.44-6.6,5.4-8.81.11-.12.22-.24.33-.35.11-.12.22-.23.33-.34.22-.22.44-.42.66-.6.69-.57,1.39-1,2.12-1.25-1.88,7.17-1.18,14.38.8,20.57.07.22.14.44.22.65.21.65.44,1.28.69,1.9.24.62.49,1.22.76,1.8h0c.26.6.54,1.17.83,1.73h0c.18.38.38.75.58,1.1h0c.19.37.39.72.6,1.06,1.64,2.76,3.48,5.04,5.29,6.67.34.31.68.59,1.02.84.22.17.44.33.66.48,5.02,3.34,9.27.94,7.63-11.37-4.3-9.98-1.23-20.82-2.07-31.43,1.29,0,2.49-.24,3.75.29ZM1281.29,631.01c12.09,31.19-20.63,72.89-36,82-7.01,4.66-40.72,23.4-48,31-17.31,15.85-17.42,42.03-18,49.99-14.42,127.14-231.1,239.86-339,106.01-12.57-17.67-30.16-54.41-42-90-9.62-28.93-12.67-48.75-32-66-40.35-28.45-119.29-48.81-78-114,4.52-6.26,9.76-10.54,10.01-18-115.69-183.6,23.43-465.1,280.99-464,201.89-10.7,409.09,190.99,288,455-.5,11.48,9.09,15.26,14,28ZM1201.12,570.47c.32-4.41.25-8.82-.19-13.17t0,0c-.45-4.6-1.31-9.13-2.55-13.55,0-.01,0-.01,0-.01-1.09-3.94-2.48-7.79-4.13-11.52-.41-.93-.84-1.85-1.29-2.77-.22-.46-.45-.92-.68-1.38-.69-1.36-1.42-2.71-2.19-4.03-.76-1.32-1.56-2.63-2.4-3.91-2.78-4.27-5.93-8.29-9.41-12-.69-.74-1.4-1.46-2.13-2.18-.35-.36-.72-.71-1.09-1.07-.74-.7-1.48-1.39-2.24-2.06-1.14-1.02-2.31-2-3.5-2.94-5.96-4.73-12.58-8.63-19.69-11.47-58.41-22.73-118.18,25.3-109.68,86.15.23,1.47.5,2.92.79,4.35.29,1.42.61,2.82.95,4.2.35,1.38.72,2.74,1.12,4.07.2.67.4,1.34.62,1.99.69,2.16,1.46,4.25,2.29,6.28.68,1.67,1.41,3.3,2.18,4.88,2.4,4.95,5.2,9.48,8.34,13.6.95,1.26,1.94,2.47,2.95,3.65,9.9,11.5,22.59,19.39,36.3,23.69,2.18.69,4.39,1.28,6.63,1.78.56.13,1.12.25,1.68.36,15.33,3.14,31.46,2,46.11-3.41.01-.01.01,0,.01,0,1.09-.4,2.17-.82,3.24-1.28h.01c1.07-.44,2.13-.92,3.19-1.42t.01,0c3.68-1.74,7.25-3.76,10.65-6.09.01-.01.01,0,.01,0,.97-.66,1.93-1.35,2.87-2.06.95-.71,1.88-1.44,2.79-2.2,1.38-1.14,2.71-2.33,4.01-3.57.87-.83,1.72-1.68,2.55-2.56.84-.88,1.65-1.77,2.44-2.69.39-.46.79-.93,1.18-1.41,1.17-1.42,2.29-2.89,3.37-4.41,1.79-2.54,3.45-5.23,4.98-8.08.91-1.7,1.77-3.45,2.58-5.26,3.5-7.84,5.97-16.68,7.15-26.51.07-.66.12-1.32.17-1.98ZM1051.07,787.52c-.05-1.38-.35-2.55-.83-3.52-.23-.49-.52-.93-.85-1.32-.08-.1-.16-.19-.25-.29-.09-.09-.18-.19-.27-.27-4.73-4.52-15.48-1.54-16.87,3.38v148.5l17.06-6.61c.64-16.98.67-34.03.61-51.1-.1-29.65-.5-59.35,1.4-88.77ZM924.9,265.47c5.74-15.29,1.89-33.86-19.26-46.08-29.8-13.1-59.86,15.07-54.94,42.11.08.45.17.89.28,1.34.02.11.04.21.07.31.08.37.18.74.28,1.11.51,1.87,1.19,3.72,2.06,5.54.15.32.31.64.48.96.08.17.17.34.25.5.47.87.98,1.73,1.53,2.58,0,.01,0,.01,0,.01,1.06,1.64,2.28,3.25,3.68,4.81h.01c25.31,25.03,55.26,10.8,64.84-11.43.25-.58.49-1.17.71-1.76ZM918.68,584.61c3.76-10.88,4.93-22.55,2.68-34.43-.04-.23-.08-.45-.13-.67-.5-2.5-1.15-5.01-1.96-7.52-.11-.36-.23-.72-.36-1.08-.61-1.8-1.31-3.6-2.09-5.41-.73-1.69-1.54-3.37-2.43-5.05-.62-1.19-1.29-2.38-1.99-3.57-.42-.72-.86-1.43-1.32-2.14-.45-.72-.93-1.44-1.41-2.16-.48-.71-.97-1.42-1.49-2.12-1.79-2.5-3.78-4.98-5.95-7.45-.47-.53-.95-1.07-1.44-1.6-.63-.69-1.28-1.38-1.95-2.07-.17-.18-.35-.36-.52-.53-.34-.35-.68-.7-1.03-1.04-1.39-1.39-2.86-2.78-4.39-4.16-1.32-1.19-2.7-2.37-4.12-3.54-.63-.54-1.28-1.06-1.93-1.58-1.69-1.36-3.46-2.7-5.29-4.04-58.58-33.53-129.62,15.63-122.59,80.08.75,3.21,1.56,6.29,2.45,9.26.44,1.48.9,2.93,1.38,4.36.71,2.13,1.46,4.2,2.25,6.2,4.45,11.33,10.03,20.56,16.42,27.89,0,.01.01.01.01.01.75.86,1.51,1.7,2.28,2.5t.01.01c.38.41.77.81,1.17,1.19,4.7,4.72,9.77,8.51,15.1,11.45.74.41,1.49.81,2.24,1.18,2.84,1.43,5.75,2.63,8.71,3.61,13.58,4.49,28.2,4.35,42.24.7,2.71-.7,5.4-1.54,8.05-2.5h.01c1.32-.48,2.64-.98,3.95-1.53,4.59-1.89,9.05-4.14,13.34-6.72,1.22-.73,2.43-1.5,3.62-2.29,2.39-1.57,4.71-3.25,6.95-5.02s4.41-3.63,6.49-5.58c4.67-4.38,8.9-9.2,12.54-14.36.81-1.14,1.59-2.3,2.34-3.48s1.47-2.38,2.15-3.59c1.04-1.81,2-3.65,2.88-5.53t0-.01c.89-1.87,1.7-3.78,2.43-5.71h0c.24-.65.48-1.3.7-1.96Z"/>
</svg>