<svg width="32" height="32" viewBox="0 0 32 32" fill="none" xmlns="http://www.w3.org/2000/svg">
<rect width="32" height="32" fill="white"/>
<rect x="2" y="2" width="28" height="28" rx="14" fill="white"/>
<path d="M2.52486 19.2878C2.45486 19.3063 2.38241 19.2657 2.36596 19.195C2.13602 18.2087 2.01002 17.1822 2.00057 16.128C1.93127 8.38928 8.20318 2.03127 15.9423 2.00012C22.4627 1.97387 27.9523 6.40585 29.5378 12.4223C29.5567 12.4944 29.5088 12.5658 29.4356 12.5794C29.4258 12.5812 29.416 12.5833 29.4055 12.5857L20.7222 14.6447C20.501 14.6972 20.4282 14.5793 20.6333 14.5005L28.68 11.4115C28.9138 11.3219 28.7797 11.1969 28.541 11.282L20.3211 14.2097C20.1118 14.2842 19.962 14.195 20.138 14.1005L27.0494 10.3916C27.2503 10.2838 27.0298 10.197 26.8208 10.3016L19.6242 13.8985C19.4408 13.9902 19.2245 13.9353 19.3596 13.8313L24.6648 9.75496C24.8188 9.63666 24.5273 9.59361 24.3621 9.71051L18.6796 13.7312C18.5347 13.8338 18.2666 13.817 18.3516 13.7109L21.6888 9.54531C21.7858 9.42421 21.4428 9.42806 21.3329 9.54916L17.5515 13.7197C17.4553 13.8261 17.1533 13.8488 17.1823 13.7477L18.3243 9.7763C18.3576 9.66081 17.9862 9.71121 17.939 9.82845L16.3168 13.8646C16.2755 13.9675 15.9605 14.028 15.9314 13.9388L14.8002 10.4325C14.7236 10.1949 14.3683 10.2834 14.4121 10.5291L15.0592 14.1561C15.0757 14.2485 14.7691 14.343 14.6844 14.2716L11.357 11.4692C11.2604 11.3877 10.909 11.5179 10.9923 11.604L13.865 14.5744C13.9382 14.65 13.661 14.7718 13.5259 14.7231L8.22943 12.816C8.07543 12.7607 7.77094 12.9186 7.91338 12.9798L12.8158 15.0913C12.9407 15.1452 12.7115 15.2859 12.5354 15.2632L5.63037 14.3808C5.42982 14.3553 5.19252 14.5299 5.38397 14.5621L11.9817 15.6706C12.1497 15.6989 11.9845 15.8487 11.7794 15.854L3.73689 16.0566C3.5031 16.0626 3.34945 16.2425 3.5773 16.2435L11.421 16.2736C11.6209 16.2743 11.5306 16.4238 11.3108 16.456L2.67851 17.7299C2.42756 17.767 2.36806 17.9399 2.61656 17.9095L11.1718 16.8592C11.3899 16.8326 11.3808 16.9708 11.161 17.0282L2.52696 19.2874C2.52696 19.2874 2.52556 19.2874 2.52521 19.2878H2.52486ZM29.6386 12.8283C29.6218 12.7555 29.5455 12.7145 29.4745 12.7373C29.4654 12.7401 29.4556 12.7429 29.4454 12.7457L20.8118 15.0042C20.592 15.0616 20.5829 15.1998 20.8009 15.1732L29.3562 14.1229C29.6047 14.0924 29.5452 14.2653 29.2942 14.3024L20.662 15.5764C20.4422 15.609 20.3519 15.7581 20.5517 15.7588L28.3954 15.7889C28.6233 15.7896 28.4696 15.9698 28.2358 15.9758L20.1933 16.1784C19.9886 16.1837 19.823 16.3338 19.991 16.3618L26.5888 17.4702C26.7806 17.5024 26.5433 17.6774 26.3424 17.6515L19.4373 16.7692C19.2613 16.7468 19.0324 16.8875 19.157 16.9411L24.0594 19.0526C24.2018 19.1138 23.897 19.2717 23.7433 19.2164L18.4468 17.3092C18.3117 17.2606 18.0345 17.3824 18.1077 17.458L20.9804 20.4284C21.0637 20.5149 20.7127 20.6447 20.6158 20.5632L17.2884 17.7607C17.2037 17.6893 16.8971 17.7838 16.9135 17.8762L17.5606 21.5032C17.6044 21.7489 17.2492 21.8378 17.1725 21.5998L16.0413 18.0936C16.0126 18.0043 15.6973 18.0649 15.656 18.1678L14.0337 22.2039C13.9865 22.3212 13.6155 22.3716 13.6484 22.2561L14.7904 18.2847C14.8195 18.1835 14.5174 18.2063 14.4212 18.3127L10.6398 22.4832C10.5299 22.6043 10.187 22.6082 10.2839 22.4871L13.6211 18.3214C13.7062 18.2154 13.4377 18.1986 13.2932 18.3011L7.61064 22.3219C7.44544 22.4388 7.1539 22.3957 7.30789 22.2774L12.6131 18.201C12.7482 18.0971 12.5319 18.0421 12.3485 18.1338L5.15192 21.7307C4.94298 21.8354 4.72248 21.7486 4.92338 21.6408L11.8347 17.9319C12.0108 17.8374 11.861 17.7481 11.6517 17.8227L3.4317 20.7504C3.193 20.8354 3.05895 20.7108 3.29275 20.6209L11.3395 17.5318C11.5446 17.4531 11.4718 17.3351 11.2506 17.3876L2.56721 19.4467C2.56721 19.4467 2.56616 19.4467 2.56546 19.447C2.49476 19.4635 2.44996 19.5335 2.46886 19.6035C4.06519 25.6122 9.55731 30.034 16.077 29.999C23.8067 29.9577 30.0663 23.6057 29.9995 15.876C29.9904 14.8285 29.8665 13.8082 29.6393 12.8276L29.6386 12.8283Z" fill="url(#paint0_radial_92_2)"/>
<defs>
<radialGradient id="paint0_radial_92_2" cx="0" cy="0" r="1" gradientUnits="userSpaceOnUse" gradientTransform="translate(16 15.9996) rotate(90) scale(13.9996 14)">
<stop offset="0.605" stop-color="#0000FF"/>
<stop offset="1" stop-color="#0077FF"/>
</radialGradient>
</defs>
</svg>
