<?xml version="1.0" standalone="no"?>
<!DOCTYPE svg PUBLIC "-//W3C//DTD SVG 20010904//EN"
 "http://www.w3.org/TR/2001/REC-SVG-20010904/DTD/svg10.dtd">
<svg version="1.0" xmlns="http://www.w3.org/2000/svg"
 width="128.000000pt" height="128.000000pt" viewBox="0 0 128.000000 128.000000"
 preserveAspectRatio="xMidYMid meet">
<metadata>
Created by potrace 1.16, written by Peter Selinger 2001-2019
</metadata>
<g transform="translate(0.000000,128.000000) scale(0.100000,-0.100000)"
fill="#000000" stroke="none">
<path d="M0 640 l0 -640 640 0 640 0 0 640 0 640 -640 0 -640 0 0 -640z m922
345 c55 -38 98 -120 98 -184 -1 -65 -30 -122 -101 -197 l-62 -64 -141 0 -141
0 123 123 c117 117 143 157 104 157 -9 0 -94 -77 -187 -171 -94 -94 -187 -184
-208 -201 l-39 -31 4 136 3 137 145 146 c80 80 161 154 180 165 27 15 51 19
107 16 61 -2 78 -7 115 -32z m155 -157 c-3 -8 -6 -5 -6 6 -1 11 2 17 5 13 3
-3 4 -12 1 -19z m-760 -390 c-1 -46 -3 -11 -3 77 0 88 2 125 3 83 2 -42 2
-114 0 -160z m429 -3 l-59 -55 -141 0 -140 0 54 55 54 55 146 0 145 -1 -59
-54z m-386 -118 c0 -1 -30 -32 -67 -67 l-68 -65 65 68 c60 62 70 72 70 64z"/>
</g>
</svg>
