<?xml version="1.0" encoding="UTF-8" standalone="no"?>
<!DOCTYPE svg PUBLIC "-//W3C//DTD SVG 1.1//EN" "http://www.w3.org/Graphics/SVG/1.1/DTD/svg11.dtd">
<svg xmlns="http://www.w3.org/2000/svg" version="1.1" viewBox="0 0 256 256" width="256.0pt" height="256.0pt">
<path d="M 0.00 0.00 L 256.00 0.00 L 256.00 256.00 L 0.00 256.00 L 0.00 0.00 Z" fill="#ffffff" />
<path d="M 159.45 71.67 C 169.70 74.90 178.16 82.96 182.03 92.97 C 187.46 106.22 183.92 121.84 173.94 131.96 C 163.45 142.46 152.91 152.94 142.38 163.41 C 138.72 167.01 134.12 168.80 128.99 168.78 C 116.02 168.96 103.03 168.83 90.06 168.86 C 84.33 174.55 78.62 180.25 72.95 186.00 C 72.23 185.74 71.50 185.48 70.78 185.21 C 69.68 182.55 71.08 179.88 72.81 177.88 C 76.75 173.54 81.12 169.58 85.18 165.35 C 85.04 153.23 85.19 141.11 85.11 128.99 C 84.87 122.88 87.05 116.75 91.35 112.37 C 101.94 101.61 112.71 91.05 123.34 80.33 C 131.98 70.41 147.27 68.01 159.45 71.67 Z" fill="#070705" />
<path d="M 164.04 80.96 C 173.70 86.72 179.42 98.34 177.98 109.51 C 177.04 115.59 174.51 121.75 170.24 126.27 C 165.51 131.26 160.42 135.91 155.63 140.84 C 143.25 140.82 130.87 140.92 118.49 140.78 C 128.92 130.78 139.10 120.51 149.43 110.41 C 150.75 109.04 152.05 107.89 152.30 105.88 C 151.77 104.09 150.50 103.44 149.03 102.53 C 147.69 103.34 146.37 104.14 145.26 105.25 C 127.52 122.79 109.72 140.26 91.94 157.74 C 91.84 148.16 91.92 138.58 91.87 129.00 C 91.90 126.56 91.90 123.83 92.70 121.50 C 93.51 119.61 95.12 117.99 96.51 116.51 C 107.36 105.69 118.19 94.84 129.03 84.00 C 137.75 74.82 153.71 74.18 164.04 80.96 Z" fill="#ffffff" />
<path d="M 111.53 147.55 C 124.05 147.28 136.76 147.42 149.30 147.48 C 144.41 151.48 140.30 156.36 135.55 160.49 C 132.66 162.94 129.54 162.53 126.01 162.62 C 116.05 162.55 106.08 162.68 96.12 162.55 C 101.35 157.66 106.27 152.38 111.53 147.55 Z" fill="#ffffff" />
</svg>