<?xml version="1.0" encoding="UTF-8"?>
<svg version="1.1" xmlns="http://www.w3.org/2000/svg" width="128" height="128">
<path d="M0 0 C10.50827458 9.58107388 16.53455848 23.1737374 17.4140625 37.2265625 C18.03826092 54.36424057 14.17951787 69.47619832 2.6640625 82.63671875 C1.13986358 84.23687443 -0.40098125 85.82140183 -1.9609375 87.38671875 C-2.58742188 88.03640625 -3.21390625 88.68609375 -3.859375 89.35546875 C-15.15890688 100.22590448 -30.77542525 103.43932879 -45.9609375 103.38671875 C-58.80583181 102.5619574 -69.26227816 97.63840069 -78.9609375 89.38671875 C-79.7034375 88.86335938 -80.4459375 88.34 -81.2109375 87.80078125 C-81.7884375 87.33414063 -82.3659375 86.8675 -82.9609375 86.38671875 C-82.9609375 85.72671875 -82.9609375 85.06671875 -82.9609375 84.38671875 C-83.6209375 84.38671875 -84.2809375 84.38671875 -84.9609375 84.38671875 C-85.4559375 83.39671875 -85.4559375 83.39671875 -85.9609375 82.38671875 C-86.9509375 82.05671875 -87.9409375 81.72671875 -88.9609375 81.38671875 C-88.9609375 80.39671875 -88.9609375 79.40671875 -88.9609375 78.38671875 C-89.6209375 78.38671875 -90.2809375 78.38671875 -90.9609375 78.38671875 C-92.9609375 75.38671875 -92.9609375 75.38671875 -92.9609375 72.38671875 C-93.9509375 72.05671875 -94.9409375 71.72671875 -95.9609375 71.38671875 C-94.9709375 70.89171875 -94.9709375 70.89171875 -93.9609375 70.38671875 C-94.4559375 67.91171875 -94.4559375 67.91171875 -94.9609375 65.38671875 C-97.2709375 65.38671875 -99.5809375 65.38671875 -101.9609375 65.38671875 C-101.9609375 64.72671875 -101.9609375 64.06671875 -101.9609375 63.38671875 C-100.3109375 63.38671875 -98.6609375 63.38671875 -96.9609375 63.38671875 C-97.28449219 62.28714844 -97.60804687 61.18757813 -97.94140625 60.0546875 C-102.01063057 43.68784272 -99.37169728 24.99832064 -91.03515625 10.52734375 C-81.523217 -3.87491456 -68.2275452 -12.53353303 -51.4609375 -16.42578125 C-30.84112969 -17.53041381 -16.10073313 -13.24622068 0 0 Z " fill="#DBCACF" transform="translate(104.9609375,19.61328125)"/>
<path d="M0 0 C1.32 0 2.64 0 4 0 C6.87949243 6.15590917 6.32942034 12.32661905 6.3125 19 C6.32861328 20.27101563 6.34472656 21.54203125 6.36132812 22.8515625 C6.36197266 24.07617188 6.36261719 25.30078125 6.36328125 26.5625 C6.36626221 27.67753906 6.36924316 28.79257812 6.37231445 29.94140625 C5.95835547 33.34211325 4.85583473 35.16804642 3 38 C3.15688424 40.12816413 3.15688424 40.12816413 4 42 C4.33 42.99 4.66 43.98 5 45 C5.99 45.33 6.98 45.66 8 46 C7.67 47.65 7.34 49.3 7 51 C6.34 51 5.68 51 5 51 C5.04125 52.175625 5.0825 53.35125 5.125 54.5625 C5.13983635 58.72409674 4.31170778 62.06487667 3 66 C2.34 66 1.68 66 1 66 C0.938125 66.86625 0.87625 67.7325 0.8125 68.625 C-0.24890893 73.0339294 -1.84389268 74.76874726 -5 78 C-5.99 78.33 -6.98 78.66 -8 79 C-8.20496094 78.16855469 -8.40992188 77.33710937 -8.62109375 76.48046875 C-8.89050781 75.39378906 -9.15992188 74.30710937 -9.4375 73.1875 C-9.70433594 72.10855469 -9.97117188 71.02960938 -10.24609375 69.91796875 C-11.03373116 65.77914447 -11.03373116 65.77914447 -13.734375 62.9140625 C-16.21064247 61.91501666 -18.6851372 61.11746028 -21.25 60.375 C-22.14203125 60.11460938 -23.0340625 59.85421875 -23.953125 59.5859375 C-24.62859375 59.39257812 -25.3040625 59.19921875 -26 59 C-24.9790625 57.39125 -24.9790625 57.39125 -23.9375 55.75 C-21.10519129 50.22451353 -22.08727607 44.95254738 -23 39 C-30.73579434 37.69174066 -35.27784895 37.81450973 -42 42 C-42.76516787 50.02185511 -42.76516787 50.02185511 -39.8125 57.1875 C-37.06621245 58.95732976 -35.23187393 59.72298223 -32 60 C-33.32 60.66 -34.64 61.32 -36 62 C-36 62.99 -36 63.98 -36 65 C-35.34 65.33 -34.68 65.66 -34 66 C-34.33 66.99 -34.66 67.98 -35 69 C-38.76847267 70.25615756 -42.10515654 70.76518163 -46 70 C-48.93685266 68.28974455 -51.46957751 66.26122861 -54 64 C-53.67 62.35 -53.34 60.7 -53 59 C-51.515 58.505 -51.515 58.505 -50 58 C-50.495 56.515 -50.495 56.515 -51 55 C-54.00847418 53.77479736 -54.00847418 53.77479736 -57 53 C-56.34 52.01 -55.68 51.02 -55 50 C-54.34 50 -53.68 50 -53 50 C-52.95101562 49.17757812 -52.90203125 48.35515625 -52.8515625 47.5078125 C-52.3838056 40.52371816 -51.58560773 33.81965265 -50 27 C-50.66 27.66 -51.32 28.32 -52 29 C-51.99385581 27.64520639 -51.94276853 26.29061156 -51.875 24.9375 C-51.85179687 24.18339844 -51.82859375 23.42929687 -51.8046875 22.65234375 C-50.54864039 18.51226614 -48.50534962 15.56925689 -45 13 C-41.64115614 12.21367682 -38.42946622 12.40242329 -35 12.5625 C-24.45192322 12.60562828 -18.55560936 10.01970213 -10 4 C-6.49249448 1.98397431 -4.06226708 1.8153515 0 2 C0 1.34 0 0.68 0 0 Z " fill="#FAFAFA" transform="translate(106,29)"/>
<path d="M0 0 C1.6875 1.94140625 1.6875 1.94140625 1.6875 4.94140625 C0 5.62890625 0 5.62890625 -2.3125 5.94140625 C-4.79826686 4.7675719 -6.85918746 3.31018499 -8.98828125 1.578125 C-17.39695772 -5.15926174 -26.11156005 -8.95956354 -37.01171875 -8.4765625 C-50.95786125 -6.71060126 -61.12240114 -0.46778736 -70.3125 9.94140625 C-70.6425 10.60140625 -70.9725 11.26140625 -71.3125 11.94140625 C-70.6525 12.16828125 -69.9925 12.39515625 -69.3125 12.62890625 C-66.04292837 14.05934384 -63.23894902 15.84395413 -60.27734375 17.8203125 C-58.28339065 18.95801536 -56.5541475 19.49707078 -54.3125 19.94140625 C-54.3125 20.60140625 -54.3125 21.26140625 -54.3125 21.94140625 C-52.9925 22.27140625 -51.6725 22.60140625 -50.3125 22.94140625 C-51.09625 23.99328125 -51.88 25.04515625 -52.6875 26.12890625 C-54.71758579 28.95837427 -56.20362979 31.61479561 -57.3125 34.94140625 C-57.9725 34.94140625 -58.6325 34.94140625 -59.3125 34.94140625 C-59.3125 39.23140625 -59.3125 43.52140625 -59.3125 47.94140625 C-60.3025 47.94140625 -61.2925 47.94140625 -62.3125 47.94140625 C-62.9725 46.62140625 -63.6325 45.30140625 -64.3125 43.94140625 C-65.570625 43.90015625 -66.82875 43.85890625 -68.125 43.81640625 C-69.18654297 43.78160156 -69.18654297 43.78160156 -70.26953125 43.74609375 C-72.62609719 43.80886163 -72.62609719 43.80886163 -75.3125 45.94140625 C-76.3025 45.94140625 -77.2925 45.94140625 -78.3125 45.94140625 C-78.3125 46.60140625 -78.3125 47.26140625 -78.3125 47.94140625 C-79.405625 48.35390625 -80.49875 48.76640625 -81.625 49.19140625 C-84.82265942 50.54426216 -86.51903426 51.88196469 -88.3125 54.94140625 C-87.9825 55.27140625 -87.6525 55.60140625 -87.3125 55.94140625 C-86.549375 55.11640625 -85.78625 54.29140625 -85 53.44140625 C-82.3125 50.94140625 -82.3125 50.94140625 -79.3125 50.94140625 C-79.27511719 51.55628906 -79.23773438 52.17117187 -79.19921875 52.8046875 C-79.10060547 54.01705078 -79.10060547 54.01705078 -79 55.25390625 C-78.94199219 56.05441406 -78.88398437 56.85492188 -78.82421875 57.6796875 C-78.2248443 60.32883108 -77.27623189 61.14614466 -75.3125 62.94140625 C-75.3125 63.60140625 -75.3125 64.26140625 -75.3125 64.94140625 C-78.9425 64.94140625 -82.5725 64.94140625 -86.3125 64.94140625 C-86.6425 65.93140625 -86.9725 66.92140625 -87.3125 67.94140625 C-87.9725 67.61140625 -88.6325 67.28140625 -89.3125 66.94140625 C-89.98046875 63.95703125 -89.98046875 63.95703125 -90.5 60.19140625 C-90.76876953 58.34289062 -90.76876953 58.34289062 -91.04296875 56.45703125 C-91.3125 52.94140625 -91.3125 52.94140625 -90.73828125 50.11328125 C-90.52751953 49.03820312 -90.52751953 49.03820312 -90.3125 47.94140625 C-90.9725 47.28140625 -91.6325 46.62140625 -92.3125 45.94140625 C-92.3125 45.61140625 -92.3125 45.28140625 -92.3125 44.94140625 C-93.3025 44.94140625 -94.2925 44.94140625 -95.3125 44.94140625 C-96.7908226 41.98476106 -96.37282783 39.19910888 -96.3125 35.94140625 C-96.9725 35.94140625 -97.6325 35.94140625 -98.3125 35.94140625 C-99.20687899 22.3021267 -92.74509222 10.9440867 -84.125 0.75390625 C-60.72497238 -24.1696624 -24.27282125 -21.60773108 0 0 Z " fill="#F8EBC2" transform="translate(105.3125,20.05859375)"/>
<path d="M0 0 C5.01276922 3.73538401 9.3073563 7.30310544 12 13 C-0.24419455 21.70735706 -11.05990084 25.08961362 -25.875 24.875 C-26.57326904 24.86831299 -27.27153809 24.86162598 -27.9909668 24.85473633 C-35.22666709 24.74163865 -41.63617621 24.61561379 -48 21 C-48.94746094 20.47019531 -49.89492188 19.94039062 -50.87109375 19.39453125 C-51.71800781 18.87246094 -52.56492187 18.35039063 -53.4375 17.8125 C-54.30246094 17.28269531 -55.16742188 16.75289062 -56.05859375 16.20703125 C-56.69925781 15.80871094 -57.33992188 15.41039063 -58 15 C-54.83200606 7.62477601 -47.36299453 1.00958902 -40 -2 C-25.5568728 -7.6473808 -13.65795877 -7.89877239 0 0 Z " fill="#171E2D" transform="translate(92,17)"/>
<path d="M0 0 C1.05767578 0.00290039 1.05767578 0.00290039 2.13671875 0.00585938 C7.9391978 0.0533342 13.67371911 0.44116159 19.4375 1.125 C19.4375 1.455 19.4375 1.785 19.4375 2.125 C18.82753174 2.12387207 18.21756348 2.12274414 17.58911133 2.12158203 C14.80830026 2.13373569 12.03020493 2.19143084 9.25 2.25 C8.29029297 2.24742188 7.33058594 2.24484375 6.34179688 2.2421875 C1.20999306 2.2930824 1.20999306 2.2930824 -3.32543945 4.38232422 C-6.50888054 8.01711893 -7.27819358 11.38655971 -7.5625 16.125 C-6.9025 15.795 -6.2425 15.465 -5.5625 15.125 C-6.14558071 19.08674166 -6.75749695 23.04348954 -7.375 27 C-7.54064453 28.12792969 -7.70628906 29.25585938 -7.87695312 30.41796875 C-8.1331543 32.03251953 -8.1331543 32.03251953 -8.39453125 33.6796875 C-8.54639893 34.67468262 -8.6982666 35.66967773 -8.85473633 36.69482422 C-9.5625 39.125 -9.5625 39.125 -12.5625 41.125 C-10.5825 42.115 -8.6025 43.105 -6.5625 44.125 C-6.5625 44.455 -6.5625 44.785 -6.5625 45.125 C-9.5325 45.125 -12.5025 45.125 -15.5625 45.125 C-14.9025 46.115 -14.2425 47.105 -13.5625 48.125 C-13.71500475 51.175095 -14.13948886 52.65317988 -16.1875 54.9375 C-19.46353721 56.57551861 -21.94836357 56.45355786 -25.5625 56.125 C-26.5525 55.465 -27.5425 54.805 -28.5625 54.125 C-28.68625 53.135 -28.81 52.145 -28.9375 51.125 C-29.246875 49.64 -29.246875 49.64 -29.5625 48.125 C-32.02505685 46.67208727 -32.02505685 46.67208727 -34.5625 46.125 C-33.5725 45.63 -33.5725 45.63 -32.5625 45.125 C-33.5525 44.1659375 -33.5525 44.1659375 -34.5625 43.1875 C-37.24471553 39.08035747 -36.93631974 35.89120171 -36.5625 31.125 C-40.16763403 33.18507659 -43.36581012 35.4763141 -46.5625 38.125 C-46.22392425 35.07781822 -45.73142978 33.3502397 -43.875 30.875 C-41.09655058 28.77238963 -38.99496436 28.43704221 -35.5625 28.125 C-35.5625 27.465 -35.5625 26.805 -35.5625 26.125 C-30.55317246 23.11940348 -27.23526511 22.83158112 -21.5625 23.125 C-20.9025 24.775 -20.2425 26.425 -19.5625 28.125 C-18.5725 28.125 -17.5825 28.125 -16.5625 28.125 C-17.0575 21.69 -17.0575 21.69 -17.5625 15.125 C-16.5725 14.795 -15.5825 14.465 -14.5625 14.125 C-13.51531202 11.81245988 -12.51903635 9.4764852 -11.5625 7.125 C-9.875 4.6875 -9.875 4.6875 -8.5625 3.125 C-9.5525 2.465 -10.5425 1.805 -11.5625 1.125 C-7.75137621 -0.10313708 -3.95937022 -0.02604849 0 0 Z " fill="#F5F3F4" transform="translate(62.5625,39.875)"/>
<path d="M0 0 C9.09345504 8.0236368 14.07010323 19.36978156 15.22753906 31.35644531 C16.34643926 49.33625659 12.75503808 65.38709934 0.625 79.25 C-0.89919892 80.85015568 -2.44004375 82.43468308 -4 84 C-4.62648438 84.6496875 -5.25296875 85.299375 -5.8984375 85.96875 C-17.19796938 96.83918573 -32.81448775 100.05261004 -48 100 C-60.84489431 99.17523865 -71.30134066 94.25168194 -81 86 C-81.7425 85.47664063 -82.485 84.95328125 -83.25 84.4140625 C-83.8275 83.94742188 -84.405 83.48078125 -85 83 C-85 82.34 -85 81.68 -85 81 C-85.66 81 -86.32 81 -87 81 C-87.66 79.68 -88.32 78.36 -89 77 C-86 77 -86 77 -84.01171875 78.94140625 C-83.24472656 79.80636719 -82.47773437 80.67132813 -81.6875 81.5625 C-75.95107729 87.50168287 -69.73743177 91.05704736 -62 94 C-60.68 94 -59.36 94 -58 94 C-58 92.35 -58 90.7 -58 89 C-51.4 89 -44.8 89 -38 89 C-38 89.33 -38 89.66 -38 90 C-41.3 90 -44.6 90 -48 90 C-47.34 91.32 -46.68 92.64 -46 94 C-45.01 93.34 -44.02 92.68 -43 92 C-43 92.99 -43 93.98 -43 95 C-43.33 95.33 -43.66 95.66 -44 96 C-30.2843246 97.40273953 -17.87265033 92.42890161 -7.1484375 84.0234375 C-3.37976209 80.47403048 -1.63538005 76.90614015 0 72 C0.66 72 1.32 72 2 72 C2.7282448 67.00632136 3.38487182 62.00890086 4 57 C4.66 57 5.32 57 6 57 C5.67 56.01 5.34 55.02 5 54 C5.495 53.01 5.495 53.01 6 52 C4.7315625 50.948125 4.7315625 50.948125 3.4375 49.875 C1 47 1 47 1.0625 43.8125 C2 41 2 41 4 39 C4.29541045 36.16796587 4.29541045 36.16796587 4.23046875 32.85546875 C4.22853516 31.62119141 4.22660156 30.38691406 4.22460938 29.11523438 C4.21236328 27.81908203 4.20011719 26.52292969 4.1875 25.1875 C4.18685547 23.90294922 4.18621094 22.61839844 4.18554688 21.29492188 C4.17933825 13.58891121 4.17933825 13.58891121 3 6 C1.68 6 0.36 6 -1 6 C-1 6.66 -1 7.32 -1 8 C-2.32 7.67 -3.64 7.34 -5 7 C-4.34 7 -3.68 7 -3 7 C-3.99 5.35 -4.98 3.7 -6 2 C-4.02 2 -2.04 2 0 2 C0 1.34 0 0.68 0 0 Z " fill="#B89F70" transform="translate(107,23)"/>
<path d="M0 0 C5.04930732 0.48088641 7.87830215 2.13273193 12 5 C14.22602615 5.76939681 14.22602615 5.76939681 16 6 C16 6.66 16 7.32 16 8 C17.32 8.33 18.64 8.66 20 9 C19.21625 10.051875 18.4325 11.10375 17.625 12.1875 C15.59491421 15.01696802 14.10887021 17.67338936 13 21 C12.34 21 11.68 21 11 21 C11 25.29 11 29.58 11 34 C10.01 34 9.02 34 8 34 C7.34 32.68 6.68 31.36 6 30 C4.741875 29.95875 3.48375 29.9175 2.1875 29.875 C1.47980469 29.85179688 0.77210937 29.82859375 0.04296875 29.8046875 C-2.31359719 29.86745538 -2.31359719 29.86745538 -5 32 C-5.99 32 -6.98 32 -8 32 C-8 32.66 -8 33.32 -8 34 C-9.093125 34.4125 -10.18625 34.825 -11.3125 35.25 C-14.51015942 36.60285591 -16.20653426 37.94055844 -18 41 C-17.67 41.33 -17.34 41.66 -17 42 C-16.236875 41.175 -15.47375 40.35 -14.6875 39.5 C-12 37 -12 37 -9 37 C-8.96261719 37.61488281 -8.92523438 38.22976562 -8.88671875 38.86328125 C-8.78810547 40.07564453 -8.78810547 40.07564453 -8.6875 41.3125 C-8.60048828 42.51326172 -8.60048828 42.51326172 -8.51171875 43.73828125 C-7.9123443 46.38742483 -6.96373189 47.20473841 -5 49 C-5 49.66 -5 50.32 -5 51 C-8.63 51 -12.26 51 -16 51 C-16.33 51.99 -16.66 52.98 -17 54 C-17.66 53.67 -18.32 53.34 -19 53 C-19.66796875 50.015625 -19.66796875 50.015625 -20.1875 46.25 C-20.36667969 45.01765625 -20.54585937 43.7853125 -20.73046875 42.515625 C-21 39 -21 39 -20.42578125 36.171875 C-20.21501953 35.09679687 -20.21501953 35.09679687 -20 34 C-20.66 33.34 -21.32 32.68 -22 32 C-21.34 31.67 -20.68 31.34 -20 31 C-20 30.34 -20 29.68 -20 29 C-20.66 29 -21.32 29 -22 29 C-22 28.34 -22 27.68 -22 27 C-21.32453125 26.91363281 -20.6490625 26.82726562 -19.953125 26.73828125 C-14.1313096 25.93882215 -14.1313096 25.93882215 -9.625 22.4375 C-8.820625 21.2309375 -8.820625 21.2309375 -8 20 C-5.75 19.1875 -5.75 19.1875 -4 19 C-4.66 17.35 -5.32 15.7 -6 14 C-4.35 14 -2.7 14 -1 14 C-1.30035156 13.48050781 -1.60070312 12.96101563 -1.91015625 12.42578125 C-5.05488851 6.65866209 -5.05488851 6.65866209 -4.75 3 C-4.5025 2.34 -4.255 1.68 -4 1 C-0.63408134 2.44253657 1.51047079 4.33264727 4 7 C2.02 3.535 2.02 3.535 0 0 Z " fill="#F8F8F8" transform="translate(35,34)"/>
<path d="M0 0 C2.3125 2.05859375 2.3125 2.05859375 4 4 C4 4.99 4 5.98 4 7 C2.3125 7.6875 2.3125 7.6875 0 8 C-2.48576686 6.82616565 -4.54668746 5.36877874 -6.67578125 3.63671875 C-15.08445772 -3.10066799 -23.79906005 -6.90096979 -34.69921875 -6.41796875 C-44.35479572 -5.19530989 -52.34168728 -1.95469637 -60 4 C-61.010625 4.78375 -62.02125 5.5675 -63.0625 6.375 C-63.701875 6.91125 -64.34125 7.4475 -65 8 C-65 6.35 -65 4.7 -65 3 C-64.34 3 -63.68 3 -63 3 C-63 2.34 -63 1.68 -63 1 C-62.34 0.34 -61.68 -0.32 -61 -1 C-59.77472052 -2.95021083 -59.77472052 -2.95021083 -59 -5 C-59.33 -5.66 -59.66 -6.32 -60 -7 C-61.98 -6.34 -63.96 -5.68 -66 -5 C-66 -8 -66 -8 -64.5625 -9.5 C-43.79544417 -21.65632536 -17.3639274 -14.36522283 0 0 Z " fill="#EED59F" transform="translate(103,18)"/>
<path d="M0 0 C1.32 0 2.64 0 4 0 C5.90079664 4.01535068 6.23570807 7.18996591 6.1953125 11.61328125 C6.18886719 12.86044922 6.18242188 14.10761719 6.17578125 15.39257812 C6.15902344 16.68615234 6.14226562 17.97972656 6.125 19.3125 C6.11597656 20.62541016 6.10695313 21.93832031 6.09765625 23.29101562 C6.07411797 26.52752913 6.0412352 29.76367149 6 33 C5.01 32.01 4.02 31.02 3 30 C2.443125 30.804375 1.88625 31.60875 1.3125 32.4375 C-1.21257549 35.23555662 -2.30540269 35.80029204 -6 36 C-7 35 -7 35 -7.0625 32.4375 C-7.041875 31.633125 -7.02125 30.82875 -7 30 C-7.66 30 -8.32 30 -9 30 C-9 29.01 -9 28.02 -9 27 C-10.32 26.67 -11.64 26.34 -13 26 C-13 25.34 -13 24.68 -13 24 C-13.66 23.67 -14.32 23.34 -15 23 C-14.41196203 19.97580475 -13.77321882 16.98241547 -13 14 C-12.34 14 -11.68 14 -11 14 C-10.67 12.35 -10.34 10.7 -10 9 C-12.80482848 10.1427079 -14.3209806 11.3209806 -16.5 13.5 C-18.6790194 15.6790194 -20.19517152 16.8572921 -23 18 C-21.68 15.69 -20.36 13.38 -19 11 C-19.66 10.67 -20.32 10.34 -21 10 C-18.63285833 8.65078948 -16.25789725 7.32085691 -13.875 6 C-13.20984375 5.6184375 -12.5446875 5.236875 -11.859375 4.84375 C-7.72827688 2.57569613 -4.84236911 1.51727161 0 2 C0 1.34 0 0.68 0 0 Z " fill="#F1D0D6" transform="translate(106,29)"/>
<path d="M0 0 C0.66 0.33 1.32 0.66 2 1 C2.5625 2.875 2.5625 2.875 3 5 C3.33 5.99 3.66 6.98 4 8 C5.485 8.495 5.485 8.495 7 9 C6.67 10.65 6.34 12.3 6 14 C5.34 14 4.68 14 4 14 C4.04125 15.175625 4.0825 16.35125 4.125 17.5625 C4.13983635 21.72409674 3.31170778 25.06487667 2 29 C1.34 29 0.68 29 0 29 C-0.0928125 30.299375 -0.0928125 30.299375 -0.1875 31.625 C-1.24890893 36.0339294 -2.84389268 37.76874726 -6 41 C-7.485 41.495 -7.485 41.495 -9 42 C-9.20496094 41.16855469 -9.40992187 40.33710937 -9.62109375 39.48046875 C-9.89050781 38.39378906 -10.15992187 37.30710938 -10.4375 36.1875 C-10.70433594 35.10855469 -10.97117187 34.02960938 -11.24609375 32.91796875 C-12.03373116 28.77914447 -12.03373116 28.77914447 -14.734375 25.9140625 C-17.21064247 24.91501666 -19.6851372 24.11746028 -22.25 23.375 C-23.14203125 23.11460938 -24.0340625 22.85421875 -24.953125 22.5859375 C-25.62859375 22.39257812 -26.3040625 22.19921875 -27 22 C-26.319375 20.906875 -25.63875 19.81375 -24.9375 18.6875 C-22.24120526 13.4178994 -23.04047507 8.67371262 -24 3 C-22.68 3.33 -21.36 3.66 -20 4 C-19.92910156 4.61488281 -19.85820313 5.22976562 -19.78515625 5.86328125 C-19.19445561 8.17180098 -19.19445561 8.17180098 -16.99609375 9.16796875 C-15.72958984 9.67263672 -15.72958984 9.67263672 -14.4375 10.1875 C-8.55967434 12.89839373 -4.75083427 16.77037729 -1 22 C-0.67 22.99 -0.34 23.98 0 25 C1.07025405 20.05007503 1.04617393 15.32592997 0.9375 10.29296875 C1 8 1 8 2 7 C-0.31 5.68 -2.62 4.36 -5 3 C-2 1 -2 1 0 0 Z " fill="#DCD2D2" transform="translate(107,66)"/>
<path d="M0 0 C0.33 0.99 0.66 1.98 1 3 C1.66 3 2.32 3 3 3 C3.33 5.97 3.66 8.94 4 12 C5.65 11.67 7.3 11.34 9 11 C9.78895446 13.36686338 10.03863749 14.81038409 9.53515625 17.28125 C8.57689733 22.14948509 8.86524142 27.05885195 9 32 C9.01675781 32.78632812 9.03351562 33.57265625 9.05078125 34.3828125 C9.28004247 37.82828114 9.77907377 39.7356622 12.0078125 42.40234375 C15.65296049 45.56686518 19.4607421 47.82435962 23.6875 50.125 C24.88318604 50.78411377 24.88318604 50.78411377 26.10302734 51.45654297 C31.61336557 54.42519986 36.86880439 56.61553648 43 58 C43.495 61.465 43.495 61.465 44 65 C33.53312427 64.60502356 26.05522298 59.50136557 19.0625 52.0625 C18.18722656 51.08410156 17.31195312 50.10570312 16.41015625 49.09765625 C15.61480469 48.40542969 14.81945312 47.71320313 14 47 C11.72118798 47.03925391 11.72118798 47.03925391 10 48 C10 47.01 10 46.02 10 45 C9.34 45 8.68 45 8 45 C6 42 6 42 6 39 C5.01 38.67 4.02 38.34 3 38 C3.99 37.505 3.99 37.505 5 37 C4.67 35.35 4.34 33.7 4 32 C1.69 32 -0.62 32 -3 32 C-3 31.34 -3 30.68 -3 30 C-1.35 30 0.3 30 2 30 C1.50886719 28.37578125 1.50886719 28.37578125 1.0078125 26.71875 C-0.3422828 21.31836881 -0.21942455 16.03473153 -0.125 10.5 C-0.11597656 9.48679687 -0.10695313 8.47359375 -0.09765625 7.4296875 C-0.07429007 4.95287199 -0.04153168 2.47656621 0 0 Z " fill="#F2DBA6" transform="translate(6,53)"/>
<path d="M0 0 C1.16015625 0.10054688 1.16015625 0.10054688 2.34375 0.203125 C4.97471622 0.87039904 5.90955685 1.55948167 7.5 3.75 C8.79024502 8.49450857 8.90290931 12.62185394 7.25 17.25 C5.5 19.75 5.5 19.75 2.5 21.75 C-2.6673159 22.5098994 -7.06884046 22.53573465 -11.6875 20 C-14.45162268 15.04364208 -14.62881992 10.28435323 -13.5 4.75 C-9.45552186 0.88527644 -5.52037787 -0.55203779 0 0 Z " fill="#9FA9B4" transform="translate(76.5,66.25)"/>
<path d="M0 0 C1.05767578 0.00290039 1.05767578 0.00290039 2.13671875 0.00585938 C7.9391978 0.0533342 13.67371911 0.44116159 19.4375 1.125 C19.4375 1.455 19.4375 1.785 19.4375 2.125 C18.82753174 2.12387207 18.21756348 2.12274414 17.58911133 2.12158203 C14.80830026 2.13373569 12.03020493 2.19143084 9.25 2.25 C8.29029297 2.24742188 7.33058594 2.24484375 6.34179688 2.2421875 C1.20999306 2.2930824 1.20999306 2.2930824 -3.32543945 4.38232422 C-6.50888054 8.01711893 -7.27819358 11.38655971 -7.5625 16.125 C-6.9025 15.795 -6.2425 15.465 -5.5625 15.125 C-6.12121686 18.52535799 -6.71377445 21.91897718 -7.3125 25.3125 C-7.46976563 26.27220703 -7.62703125 27.23191406 -7.7890625 28.22070312 C-8.73085778 33.4549115 -9.48265731 37.37443595 -13.5625 41.125 C-14.2225 41.125 -14.8825 41.125 -15.5625 41.125 C-15.62308594 40.00222656 -15.68367188 38.87945312 -15.74609375 37.72265625 C-16.16544982 30.16159035 -16.60589834 22.6411559 -17.5625 15.125 C-16.5725 14.795 -15.5825 14.465 -14.5625 14.125 C-13.51531202 11.81245988 -12.51903635 9.4764852 -11.5625 7.125 C-9.875 4.6875 -9.875 4.6875 -8.5625 3.125 C-9.5525 2.465 -10.5425 1.805 -11.5625 1.125 C-7.75137621 -0.10313708 -3.95937022 -0.02604849 0 0 Z " fill="#D6D3DA" transform="translate(62.5625,39.875)"/>
<path d="M0 0 C0.639375 0.20625 1.27875 0.4125 1.9375 0.625 C3.27533393 0.31021554 4.60953709 -0.02087656 5.9375 -0.375 C6.5975 -0.045 7.2575 0.285 7.9375 0.625 C7.30990135 3.55379371 6.35127341 5.98595629 4.9375 8.625 C4.2775 8.625 3.6175 8.625 2.9375 8.625 C2.9375 9.285 2.9375 9.945 2.9375 10.625 C2.2775 10.625 1.6175 10.625 0.9375 10.625 C1.040625 11.511875 1.14375 12.39875 1.25 13.3125 C0.9375 16.625 0.9375 16.625 -4.0625 21.625 C-8.6825 19.315 -13.3025 17.005 -18.0625 14.625 C-16.15977291 10.81954582 -14.86408677 9.27882107 -11.75 6.5625 C-10.99074219 5.89089844 -10.23148438 5.21929687 -9.44921875 4.52734375 C-3.06903595 -0.55800654 -3.06903595 -0.55800654 0 0 Z " fill="#F4E1B1" transform="translate(37.0625,10.375)"/>
<path d="M0 0 C4.14298667 0.59834725 7.18194377 2.00664285 10.8125 4.0625 C11.78832031 4.61035156 12.76414062 5.15820312 13.76953125 5.72265625 C14.50558594 6.14417969 15.24164063 6.56570312 16 7 C16 7.99 16 8.98 16 10 C16.7734375 11.2684375 16.7734375 11.2684375 17.5625 12.5625 C18.036875 13.366875 18.51125 14.17125 19 15 C18.67 15.66 18.34 16.32 18 17 C16.02 14.69 14.04 12.38 12 10 C11.01 10.33 10.02 10.66 9 11 C9.474375 12.0725 9.94875 13.145 10.4375 14.25 C11.53766332 16.80839865 12.45167003 19.25835017 13 22 C11.68 22.33 10.36 22.66 9 23 C9.33 24.32 9.66 25.64 10 27 C9.360625 27.103125 8.72125 27.20625 8.0625 27.3125 C7.0415625 27.6528125 7.0415625 27.6528125 6 28 C5.67 28.99 5.34 29.98 5 31 C4.34 31 3.68 31 3 31 C2.505 32.485 2.505 32.485 2 34 C1.34 33.67 0.68 33.34 0 33 C0.66 32.01 1.32 31.02 2 30 C2.43834148 23.31529245 1.51450981 17.02637257 0.4375 10.4296875 C-0.01081542 6.91521485 -0.07203889 3.53891069 0 0 Z " fill="#F1EAE8" transform="translate(21,26)"/>
<path d="M0 0 C3.29008429 4.5636653 4.15243774 9.1920642 4.9375 14.6875 C3.2875 14.6875 1.6375 14.6875 -0.0625 14.6875 C-0.28679687 14.08164063 -0.51109375 13.47578125 -0.7421875 12.8515625 C-3.90314411 7.67058628 -12.10192441 5.79964876 -17.75 4.375 C-18.843125 4.148125 -19.93625 3.92125 -21.0625 3.6875 C-21.3925 4.3475 -21.7225 5.0075 -22.0625 5.6875 C-22.3925 3.3775 -22.7225 1.0675 -23.0625 -1.3125 C-22.4025 -1.6425 -21.7425 -1.9725 -21.0625 -2.3125 C-22.0525 -2.9725 -23.0425 -3.6325 -24.0625 -4.3125 C-15.36876166 -5.87775007 -7.25318373 -5.47689384 0 0 Z " fill="#D6CDD5" transform="translate(93.0625,92.3125)"/>
<path d="M0 0 C3.08514201 3.08514201 4.23159876 5.71725427 4.4375 10 C4.25228716 13.85242715 2.98907208 16.68487986 1 20 C0.34 19.67 -0.32 19.34 -1 19 C-0.34 18.01 0.32 17.02 1 16 C0.46375 16.33 -0.0725 16.66 -0.625 17 C-3.68694741 18.28924102 -5.71050683 18.48992451 -9 18 C-10.88599343 15.61107499 -12 14.08148442 -12 11 C-12.66 11 -13.32 11 -14 11 C-13.76928323 7.0009094 -13.56356875 4.66603579 -10.9375 1.5625 C-6.77377394 -0.65224791 -4.68997125 -0.74443988 0 0 Z " fill="#47ABE2" transform="translate(41,63)"/>
<path d="M0 0 C2.2344598 4.03292745 2.54496743 7.44967434 3 12 C3.66 11.34 4.32 10.68 5 10 C9.36549208 9.32771422 13.29573471 9.78620518 17.5 11.0625 C20 13 20 13 20.875 16.6875 C20.91625 17.780625 20.9575 18.87375 21 20 C19.62085075 21.06365759 18.22085398 22.10032483 16.8125 23.125 C16.03519531 23.70507812 15.25789063 24.28515625 14.45703125 24.8828125 C12 26 12 26 9.37109375 25.33984375 C6.3836378 23.65170966 4.31838832 21.51158735 2 19 C1.67 18.67 1.34 18.34 1 18 C0.01321117 11.96962381 -0.11252453 6.10132987 0 0 Z " fill="#DBD3D6" transform="translate(14,75)"/>
<path d="M0 0 C0.99 0.33 1.98 0.66 3 1 C7.42390148 14.58450555 5.7879618 29.10041887 0 42 C-5.4609375 52.23046875 -5.4609375 52.23046875 -9 54 C-8.67 52.35 -8.34 50.7 -8 49 C-7.34 49 -6.68 49 -6 49 C-5.2717552 44.00632136 -4.61512818 39.00890086 -4 34 C-3.34 34 -2.68 34 -2 34 C-2.495 32.515 -2.495 32.515 -3 31 C-2.67 30.34 -2.34 29.68 -2 29 C-2.66 28.34 -3.32 27.68 -4 27 C-3.525625 25.88625 -3.05125 24.7725 -2.5625 23.625 C0.013951 16.07794305 -0.24700377 7.89560314 0 0 Z " fill="#EACA85" transform="translate(115,46)"/>
<path d="M0 0 C-4.49094079 5.61367599 -10.38142116 7.57233595 -17 10 C-17.92167969 10.37511719 -18.84335938 10.75023438 -19.79296875 11.13671875 C-24.04570888 12.28148802 -27.99542496 12.21580459 -32.375 12.125 C-33.20644531 12.11597656 -34.03789063 12.10695313 -34.89453125 12.09765625 C-36.92981337 12.0742622 -38.96494564 12.03839725 -41 12 C-41 11.67 -41 11.34 -41 11 C-38.69 10.34 -36.38 9.68 -34 9 C-34.639375 9.165 -35.27875 9.33 -35.9375 9.5 C-38 10 -38 10 -39 10 C-39 8.35 -39 6.7 -39 5 C-37.98015015 4.87939209 -37.98015015 4.87939209 -36.93969727 4.75634766 C-33.81338598 4.38392108 -30.68795937 4.00450703 -27.5625 3.625 C-26.49322266 3.49867187 -25.42394531 3.37234375 -24.32226562 3.2421875 C-18.75396846 2.56105023 -13.32135358 1.74900899 -7.875 0.39257812 C-5.23484744 -0.16020382 -2.68371737 -0.13762653 0 0 Z " fill="#E8C47C" transform="translate(98,108)"/>
<path d="M0 0 C7.08228185 6.47522912 10.46770234 12.14132219 10.95703125 21.875 C10.97121094 22.57625 10.98539063 23.2775 11 24 C10.01 23.67 9.02 23.34 8 23 C8.03480469 24.19496094 8.06960937 25.38992187 8.10546875 26.62109375 C8.4216419 42.30130573 8.4216419 42.30130573 5 50 C3.68 49.01 2.36 48.02 1 47 C1.75 41.25 1.75 41.25 4 39 C4.29541045 36.16796587 4.29541045 36.16796587 4.23046875 32.85546875 C4.22756836 31.00405273 4.22756836 31.00405273 4.22460938 29.11523438 C4.21236328 27.81908203 4.20011719 26.52292969 4.1875 25.1875 C4.18685547 23.90294922 4.18621094 22.61839844 4.18554688 21.29492188 C4.17933825 13.58891121 4.17933825 13.58891121 3 6 C1.68 6 0.36 6 -1 6 C-1 6.66 -1 7.32 -1 8 C-2.32 7.67 -3.64 7.34 -5 7 C-4.34 7 -3.68 7 -3 7 C-3.99 5.35 -4.98 3.7 -6 2 C-4.02 2 -2.04 2 0 2 C0 1.34 0 0.68 0 0 Z " fill="#C8B182" transform="translate(107,23)"/>
<path d="M0 0 C4.8628852 0.41681873 6.86486307 2.36984145 10 6 C13.31223413 10.25858674 13.96035908 14.70793705 14 20 C13.67 20.99 13.34 21.98 13 23 C12.01 22.67 11.02 22.34 10 22 C9.690625 21.195625 9.38125 20.39125 9.0625 19.5625 C7.76286622 16.42808912 7.05171189 16.27022895 4 15 C2.2605205 14.42544465 0.50966952 13.88437802 -1.25 13.375 C-2.14203125 13.11460938 -3.0340625 12.85421875 -3.953125 12.5859375 C-4.62859375 12.39257812 -5.3040625 12.19921875 -6 12 C-4.68 9.36 -3.36 6.72 -2 4 C-1.34 4 -0.68 4 0 4 C0 2.68 0 1.36 0 0 Z " fill="#FAFAFA" transform="translate(86,76)"/>
<path d="M0 0 C0.99 0.845625 1.98 1.69125 3 2.5625 C3.64453125 3.1090625 4.2890625 3.655625 4.953125 4.21875 C6.28250272 5.37561306 7.58681803 6.56216181 8.859375 7.78125 C14.74806388 13.32927093 21.70115451 18 30 18 C30 16.35 30 14.7 30 13 C36.6 13 43.2 13 50 13 C50 13.33 50 13.66 50 14 C46.7 14 43.4 14 40 14 C40.66 15.32 41.32 16.64 42 18 C42.99 17.34 43.98 16.68 45 16 C45 16.99 45 17.98 45 19 C44.505 19.495 44.505 19.495 44 20 C46.31 20.33 48.62 20.66 51 21 C51 21.33 51 21.66 51 22 C33.10109994 22.73934196 21.05617255 21.95908229 7 10 C6.2575 9.47664063 5.515 8.95328125 4.75 8.4140625 C4.1725 7.94742188 3.595 7.48078125 3 7 C3 6.34 3 5.68 3 5 C2.34 5 1.68 5 1 5 C0.34 3.68 -0.32 2.36 -1 1 C-0.67 0.67 -0.34 0.34 0 0 Z " fill="#E3C07E" transform="translate(19,99)"/>
<path d="M0 0 C3.60879586 1.3266621 6.91002537 3.00057124 10.26733398 4.86914062 C16.6739877 8.4337327 22.79314669 11.37209902 30 13 C30.33 15.31 30.66 17.62 31 20 C18.56090255 19.5306001 10.42862471 12.09253207 2.23828125 3.51171875 C0 1 0 1 0 0 Z " fill="#EACC8C" transform="translate(19,98)"/>
<path d="M0 0 C1.16015625 0.10054688 1.16015625 0.10054688 2.34375 0.203125 C4.97035721 0.8692935 5.9170915 1.55941146 7.5 3.75 C8.01171875 6.01171875 8.01171875 6.01171875 8.1875 8.4375 C8.28611328 9.64986328 8.28611328 9.64986328 8.38671875 10.88671875 C8.42410156 11.50160156 8.46148437 12.11648437 8.5 12.75 C8.17 11.76 7.84 10.77 7.5 9.75 C4.90670594 10.8230872 3.66031001 11.51301998 2.0625 13.875 C0.5 15.75 0.5 15.75 -2.0625 16.125 C-4.5 15.75 -4.5 15.75 -6.5 13.75 C-6.5 12.43 -6.5 11.11 -6.5 9.75 C-7.49 9.75 -8.48 9.75 -9.5 9.75 C-9.17 8.76 -8.84 7.77 -8.5 6.75 C-7.51 7.08 -6.52 7.41 -5.5 7.75 C-5.5 7.09 -5.5 6.43 -5.5 5.75 C-3.125 4.6875 -3.125 4.6875 -0.5 3.75 C0.16 4.08 0.82 4.41 1.5 4.75 C1.5 5.41 1.5 6.07 1.5 6.75 C3.975 7.74 3.975 7.74 6.5 8.75 C4.63433512 5.12206002 4.63433512 5.12206002 1.5 2.75 C-0.20702735 2.68003986 -1.91668003 2.66559846 -3.625 2.6875 C-4.53507812 2.69652344 -5.44515625 2.70554687 -6.3828125 2.71484375 C-7.43082031 2.73224609 -7.43082031 2.73224609 -8.5 2.75 C-6.68367786 -0.88264428 -3.57535379 -0.35753538 0 0 Z " fill="#071429" transform="translate(76.5,66.25)"/>
<path d="M0 0 C0.12246094 0.63421875 0.24492187 1.2684375 0.37109375 1.921875 C0.80696091 4.19716567 0.80696091 4.19716567 3.0625 5.25 C3.701875 5.4975 4.34125 5.745 5 6 C4.67 6.33 4.34 6.66 4 7 C4.99 7.33 5.98 7.66 7 8 C9.07530387 10.92079805 10 12.37546731 10 16 C8.68 16.33 7.36 16.66 6 17 C6.33 18.32 6.66 19.64 7 21 C6.360625 21.103125 5.72125 21.20625 5.0625 21.3125 C4.0415625 21.6528125 4.0415625 21.6528125 3 22 C2.67 22.99 2.34 23.98 2 25 C1.34 25 0.68 25 0 25 C-0.33 25.99 -0.66 26.98 -1 28 C-1.66 27.67 -2.32 27.34 -3 27 C-2.01 25.515 -2.01 25.515 -1 24 C-0.63250611 21.38710506 -0.63250611 21.38710506 -0.5859375 18.45703125 C-0.54726563 17.38388672 -0.50859375 16.31074219 -0.46875 15.20507812 C-0.4378125 14.08552734 -0.406875 12.96597656 -0.375 11.8125 C-0.33632813 10.68134766 -0.29765625 9.55019531 -0.2578125 8.38476562 C-0.16347467 5.5900075 -0.07788348 2.79525722 0 0 Z " fill="#F0DEDF" transform="translate(24,32)"/>
<path d="M0 0 C5.87020405 2.15321009 11.15739984 4.47652766 16.30859375 8.046875 C18.11202139 9.24546489 18.11202139 9.24546489 21 9 C23.6875 11.3125 23.6875 11.3125 26 14 C26 14.99 26 15.98 26 17 C24.3125 17.6875 24.3125 17.6875 22 18 C19.49237178 16.81584223 17.41438803 15.33188124 15.25390625 13.6015625 C10.16069852 9.56388877 5.13106279 7.13582105 -1 5 C0.32 4.67 1.64 4.34 3 4 C1.68 3.34 0.36 2.68 -1 2 C-0.67 1.34 -0.34 0.68 0 0 Z " fill="#DAC187" transform="translate(81,8)"/>
<path d="M0 0 C-0.99 0.33 -1.98 0.66 -3 1 C-3 1.66 -3 2.32 -3 3 C-3.99 3 -4.98 3 -6 3 C-6.33 3.66 -6.66 4.32 -7 5 C-6.01 5 -5.02 5 -4 5 C-3.34 6.65 -2.68 8.3 -2 10 C1.3 10 4.6 10 8 10 C7 14 7 14 4 16 C1.87890625 16.30078125 1.87890625 16.30078125 -0.4375 16.3125 C-1.58025391 16.33763672 -1.58025391 16.33763672 -2.74609375 16.36328125 C-5.63852831 15.89708296 -6.96237327 15.10173184 -9 13 C-9.4609375 10.625 -9.4609375 10.625 -9.375 8 C-9.36210938 7.13375 -9.34921875 6.2675 -9.3359375 5.375 C-9 3 -9 3 -7 0 C-3.86650268 -1.04449911 -3.01031744 -0.93423645 0 0 Z " fill="#3AA7E2" transform="translate(74,71)"/>
<path d="M0 0 C0 0.66 0 1.32 0 2 C0.66 2.33 1.32 2.66 2 3 C1.40361667 4.27450447 0.79752584 5.54446877 0.1875 6.8125 C-0.31716797 7.87404297 -0.31716797 7.87404297 -0.83203125 8.95703125 C-2.03313072 11.05795105 -3.10969487 12.49061278 -5 14 C-5.99 14 -6.98 14 -8 14 C-7.67 15.65 -7.34 17.3 -7 19 C-7.66 19.33 -8.32 19.66 -9 20 C-9.33 17.69 -9.66 15.38 -10 13 C-9.01 12.67 -8.02 12.34 -7 12 C-6.67 10.35 -6.34 8.7 -6 7 C-8.80482848 8.1427079 -10.3209806 9.3209806 -12.5 11.5 C-14.6790194 13.6790194 -16.19517152 14.8572921 -19 16 C-17.68 13.69 -16.36 11.38 -15 9 C-15.66 8.67 -16.32 8.34 -17 8 C-14.54429825 6.66161267 -12.08570084 5.32913768 -9.625 4 C-8.92632812 3.6184375 -8.22765625 3.236875 -7.5078125 2.84375 C-2.2265625 0 -2.2265625 0 0 0 Z " fill="#F3E4E4" transform="translate(102,31)"/>
<path d="M0 0 C0 3.2453548 -0.62947543 4.52838169 -2.0625 7.375 C-3.75765724 11.0389188 -4.38812569 13.06697722 -3 17 C-3 20 -3 20 -5.25 22.5625 C-7.51797524 24.57275078 -9.23189141 25.87225206 -12 27 C-13.91840365 21.60840805 -11.19908006 16.96756477 -9 12 C-4.18997912 2.79331942 -4.18997912 2.79331942 0 0 Z " fill="#FAF5E2" transform="translate(20,24)"/>
<path d="M0 0 C0.66 0.33 1.32 0.66 2 1 C1.34 3.31 0.68 5.62 0 8 C0.66 8 1.32 8 2 8 C2.99 9.98 3.98 11.96 5 14 C8.5219721 14.08004482 11.61981469 14.04005702 15 13 C13.125 17.875 13.125 17.875 12 19 C7.24158539 19.47584146 5.05678951 19.68250989 1 17.0625 C-1.68514232 12.95087582 -1.46788961 9.77247406 -1 5 C-4.60513403 7.06007659 -7.80331012 9.3513141 -11 12 C-10.66142425 8.95281822 -10.16892978 7.2252397 -8.3125 4.75 C-5.53405058 2.64738963 -3.43246436 2.31204221 0 2 C0 1.34 0 0.68 0 0 Z " fill="#C0E1E7" transform="translate(27,66)"/>
<path d="M0 0 C12.6468242 1.36667294 23.23300409 4.64060056 33 13 C32.67 13.66 32.34 14.32 32 15 C31.45472656 14.60167969 30.90945312 14.20335937 30.34765625 13.79296875 C29.59355469 13.26316406 28.83945313 12.73335937 28.0625 12.1875 C27.33160156 11.66542969 26.60070312 11.14335937 25.84765625 10.60546875 C17.44196999 5.86646045 8.94398308 5.34252898 -0.5625 4.8125 C-1.85736328 4.73064453 -3.15222656 4.64878906 -4.48632812 4.56445312 C-7.65705513 4.36555143 -10.82802566 4.17769181 -14 4 C-14 3.67 -14 3.34 -14 3 C-9.38 2.67 -4.76 2.34 0 2 C0 1.34 0 0.68 0 0 Z " fill="#E0C793" transform="translate(67,3)"/>
<path d="M0 0 C3.3 0.33 6.6 0.66 10 1 C10 1.66 10 2.32 10 3 C9.01 3.66 8.02 4.32 7 5 C7.03780298 7.37233611 7.03780298 7.37233611 8 10 C12.14537249 13.55317642 15.60668997 14.5685352 21 15 C21 15.66 21 16.32 21 17 C15.09716251 17.472227 12.81259941 16.20839961 8 13 C3.3361007 12.57939437 3.3361007 12.57939437 -1 14 C-3.3329866 14.04022391 -5.66706666 14.04320247 -8 14 C-8.33 13.34 -8.66 12.68 -9 12 C-7.9275 11.896875 -6.855 11.79375 -5.75 11.6875 C-2.14179128 11.02599507 -0.63604977 10.42516579 2 8 C1.47731534 5.23723823 0.89130413 2.6739124 0 0 Z " fill="#D7C3CA" transform="translate(46,84)"/>
<path d="M0 0 C-4.49094079 5.61367599 -10.38142116 7.57233595 -17 10 C-17.92167969 10.37511719 -18.84335938 10.75023438 -19.79296875 11.13671875 C-24.04570888 12.28148802 -27.99542496 12.21580459 -32.375 12.125 C-33.20644531 12.11597656 -34.03789063 12.10695313 -34.89453125 12.09765625 C-36.92981337 12.0742622 -38.96494564 12.03839725 -41 12 C-41 11.67 -41 11.34 -41 11 C-40.14535156 10.93941406 -39.29070313 10.87882812 -38.41015625 10.81640625 C-37.30542969 10.73261719 -36.20070313 10.64882812 -35.0625 10.5625 C-33.96035156 10.48128906 -32.85820313 10.40007812 -31.72265625 10.31640625 C-29.08890097 10.29581916 -29.08890097 10.29581916 -28 9 C-26.40089201 8.79028092 -24.79490754 8.6317933 -23.1875 8.5 C-20.01658817 8.23770892 -17.06692788 7.85788192 -14 7 C-14.33 5.35 -14.66 3.7 -15 2 C-9.92523206 0.73694665 -5.27203646 -0.27036084 0 0 Z " fill="#EACC8A" transform="translate(98,108)"/>
<path d="M0 0 C0.33 0 0.66 0 1 0 C0.51754176 11.33776857 -3.45853093 20.74849375 -10 30 C-10.66 30.33 -11.32 30.66 -12 31 C-11.67 29.35 -11.34 27.7 -11 26 C-10.34 26 -9.68 26 -9 26 C-8.2717552 21.00632136 -7.61512818 16.00890086 -7 11 C-6.34 11 -5.68 11 -5 11 C-5.33 10.01 -5.66 9.02 -6 8 C-5.38125 7.79375 -4.7625 7.5875 -4.125 7.375 C-1.15346355 5.45224112 -0.86975341 3.33405473 0 0 Z " fill="#EACC8A" transform="translate(118,69)"/>
<path d="M0 0 C3.12266649 4.68399974 2.46755913 9.51126241 2 15 C1.24416163 18.11947167 0.25281208 21.04694295 -1 24 C-2.32 23.01 -3.64 22.02 -5 21 C-4.25 15.25 -4.25 15.25 -2 13 C-1.57464714 10.66813051 -1.57464714 10.66813051 -1.4375 8.0625 C-1.22293835 5.08928853 -0.94980642 2.84941926 0 0 Z " fill="#5D5C53" transform="translate(113,49)"/>
<path d="M0 0 C0.99 0.845625 1.98 1.69125 3 2.5625 C3.6496875 3.11164063 4.299375 3.66078125 4.96875 4.2265625 C6.25410151 5.34877324 7.50946311 6.50714737 8.71875 7.7109375 C14.863345 13.66688266 22.23617517 16.67409067 30 20 C30 20.66 30 21.32 30 22 C19.61433261 19.63450092 10.72373959 14.30624015 3 7 C3 6.34 3 5.68 3 5 C2.34 5 1.68 5 1 5 C0.34 3.68 -0.32 2.36 -1 1 C-0.67 0.67 -0.34 0.34 0 0 Z " fill="#B19A71" transform="translate(19,99)"/>
<path d="M0 0 C0 4 0 4 -2.1875 6.75 C-5 9 -5 9 -7.8125 9.3125 C-8.534375 9.209375 -9.25625 9.10625 -10 9 C-10.99 7.02 -11.98 5.04 -13 3 C-8.50235477 -1.63819664 -5.96030685 -1.2122658 0 0 Z " fill="#0C1529" transform="translate(44,69)"/>
<path d="M0 0 C0.99 1.98 1.98 3.96 3 6 C1.25 6.625 1.25 6.625 -1 7 C-1.61875 6.67 -2.2375 6.34 -2.875 6 C-5.94050736 4.5574083 -7.80217868 5.04745748 -11 6 C-12.89290509 7.93704708 -12.89290509 7.93704708 -14 10 C-13.74919159 6.32147666 -13.38558753 4.44400988 -10.9375 1.625 C-6.98286986 -0.56266774 -4.47232658 -0.30320858 0 0 Z " fill="#506788" transform="translate(41,63)"/>
<path d="M0 0 C3.1875 -0.4375 3.1875 -0.4375 7 0 C9.20582922 2.01401798 10.53764554 4.41700965 12 7 C12.40605469 7.62132813 12.81210938 8.24265625 13.23046875 8.8828125 C16.06623352 13.35422316 16.06623352 13.35422316 15.75 16.4375 C15.5025 16.953125 15.255 17.46875 15 18 C14.34 18 13.68 18 13 18 C13 17.01 13 16.02 13 15 C12.34 15 11.68 15 11 15 C9 12 9 12 9 9 C8.01 8.67 7.02 8.34 6 8 C6.66 7.67 7.32 7.34 8 7 C7.67 5.35 7.34 3.7 7 2 C4.69 2 2.38 2 0 2 C0 1.34 0 0.68 0 0 Z " fill="#8EBCB6" transform="translate(3,83)"/>
<path d="M0 0 C-0.62759865 2.92879371 -1.58622659 5.36095629 -3 8 C-3.66 8 -4.32 8 -5 8 C-5 8.66 -5 9.32 -5 10 C-6.32 10.33 -7.64 10.66 -9 11 C-9 8 -9 8 -7.5 6.3125 C-7.005 5.879375 -6.51 5.44625 -6 5 C-7.423125 5.2784375 -7.423125 5.2784375 -8.875 5.5625 C-12 6 -12 6 -14 5 C-10.63156097 2.05261585 -4.40469071 -2.20234535 0 0 Z " fill="#F3DEAA" transform="translate(45,11)"/>
<path d="M0 0 C0.33 0 0.66 0 1 0 C1.33 2.31 1.66 4.62 2 7 C0.62085075 8.06365759 -0.77914602 9.10032483 -2.1875 10.125 C-2.96480469 10.70507812 -3.74210937 11.28515625 -4.54296875 11.8828125 C-7 13 -7 13 -9.73828125 12.3046875 C-12 11 -12 11 -13 9 C-4.57142857 5.57142857 -4.57142857 5.57142857 0 6 C0 5.01 0 4.02 0 3 C-1.98 3 -3.96 3 -6 3 C-6 2.67 -6 2.34 -6 2 C-4.02 2 -2.04 2 0 2 C0 1.34 0 0.68 0 0 Z " fill="#E1D5D6" transform="translate(33,88)"/>
<path d="M0 0 C0.66 0 1.32 0 2 0 C2.12117187 1.03640625 2.24234375 2.0728125 2.3671875 3.140625 C2.53607181 4.51046438 2.70536411 5.88025349 2.875 7.25 C2.95363281 7.93191406 3.03226563 8.61382812 3.11328125 9.31640625 C3.57237381 12.95383194 4.24490462 15.79241189 6 19 C5.625 21.25 5.625 21.25 5 23 C1.60436678 20.73624452 1.20602963 19.44700026 0.33984375 15.57421875 C-0.34234446 10.40683912 -0.14267861 5.1998428 0 0 Z " fill="#D2B787" transform="translate(6,62)"/>
<path d="M0 0 C0.556875 0.226875 1.11375 0.45375 1.6875 0.6875 C0.89085938 1.27917969 0.09421875 1.87085938 -0.7265625 2.48046875 C-1.79715623 3.27826858 -2.86744971 4.07647143 -3.9375 4.875 C-4.76193604 5.48976196 -4.76193604 5.48976196 -5.60302734 6.11694336 C-8.45216142 8.25273806 -11.24443786 10.42050125 -13.9375 12.75 C-16.3125 14.6875 -16.3125 14.6875 -18.3125 14.6875 C-16.83407091 11.15350105 -14.87187221 9.13004483 -12 6.625 C-11.24074219 5.95339844 -10.48148438 5.28179687 -9.69921875 4.58984375 C-3.3694422 -0.45533003 -3.3694422 -0.45533003 0 0 Z " fill="#EEE7CF" transform="translate(37.3125,10.3125)"/>
<path d="M0 0 C0.495 0.639375 0.99 1.27875 1.5 1.9375 C4.98806387 4.81515269 7.53461041 4.70230736 12 5 C12 4.34 12 3.68 12 3 C13.65 2.67 15.3 2.34 17 2 C16.6875 3.875 16.6875 3.875 16 6 C11.96277996 8.69148002 8.73723895 8.54726226 4 8 C1.4375 6.8125 1.4375 6.8125 0 5 C-0.25 2.3125 -0.25 2.3125 0 0 Z " fill="#C9EFF6" transform="translate(65,79)"/>
<path d="M0 0 C-1.45787835 3.60135355 -3.29892675 5.20596927 -6.4375 7.4375 C-9.79707158 9.95853117 -12.39597413 11.98993532 -14 16 C-13.67 16.66 -13.34 17.32 -13 18 C-15.475 17.01 -15.475 17.01 -18 16 C-16.48903853 12.45287654 -14.41167865 10.14336485 -11.6875 7.4375 C-10.92824219 6.67308594 -10.16898438 5.90867187 -9.38671875 5.12109375 C-3.62430939 0 -3.62430939 0 0 0 Z " fill="#4D4B4C" transform="translate(52,16)"/>
<path d="M0 0 C6.35051546 -0.36637589 6.35051546 -0.36637589 9.4375 1.375 C11 3 11 3 11 5 C8.77109005 6.11445498 7.46944894 6.16480286 5 6.1875 C3.948125 6.20876953 3.948125 6.20876953 2.875 6.23046875 C1 6 1 6 -1 4 C-0.625 1.875 -0.625 1.875 0 0 Z " fill="#FAF5F7" transform="translate(47,96)"/>
<path d="M0 0 C2 3.75 2 3.75 2 6 C2.66 6 3.32 6 4 6 C4.33 5.34 4.66 4.68 5 4 C5 5.98 5 7.96 5 10 C4.34 10 3.68 10 3 10 C1.3553326 12.46326712 1.3553326 12.46326712 0 15 C-2 14 -2 14 -4 11 C-3.57421875 8.80859375 -3.57421875 8.80859375 -2.6875 6.4375 C-2.40261719 5.65246094 -2.11773437 4.86742188 -1.82421875 4.05859375 C-1 2 -1 2 0 0 Z " fill="#EAC982" transform="translate(115,62)"/>
<path d="M0 0 C5.10426691 -0.91235689 9.66875655 -0.75698157 14.1875 1.8125 C16 4 16 4 16 7 C14.35 6.34 12.7 5.68 11 5 C11 4.34 11 3.68 11 3 C9.1128125 2.9690625 9.1128125 2.9690625 7.1875 2.9375 C6.47980469 2.92589844 5.77210937 2.91429688 5.04296875 2.90234375 C1.28241384 3.08210259 -0.54908957 4.31566952 -3 7 C-2.38722388 4.03824877 -1.74627478 2.61941217 0 0 Z " fill="#6683A2" transform="translate(67,68)"/>
<path d="M0 0 C1.16015625 0.10054688 1.16015625 0.10054688 2.34375 0.203125 C4.97035721 0.8692935 5.9170915 1.55941146 7.5 3.75 C8.01171875 6.01171875 8.01171875 6.01171875 8.1875 8.4375 C8.28611328 9.64986328 8.28611328 9.64986328 8.38671875 10.88671875 C8.42410156 11.50160156 8.46148437 12.11648437 8.5 12.75 C8.17 11.76 7.84 10.77 7.5 9.75 C5.85 10.41 4.2 11.07 2.5 11.75 C2.5 10.1 2.5 8.45 2.5 6.75 C3.82 7.41 5.14 8.07 6.5 8.75 C4.63433512 5.12206002 4.63433512 5.12206002 1.5 2.75 C-0.20702735 2.68003986 -1.91668003 2.66559846 -3.625 2.6875 C-4.53507812 2.69652344 -5.44515625 2.70554687 -6.3828125 2.71484375 C-7.43082031 2.73224609 -7.43082031 2.73224609 -8.5 2.75 C-6.68367786 -0.88264428 -3.57535379 -0.35753538 0 0 Z " fill="#323E54" transform="translate(76.5,66.25)"/>
<path d="M0 0 C0.99 0 1.98 0 3 0 C3.0270043 1.45823212 3.04639787 2.91660675 3.0625 4.375 C3.07410156 5.18710937 3.08570313 5.99921875 3.09765625 6.8359375 C3 9 3 9 2 11 C-0.0625 11.625 -0.0625 11.625 -2 12 C-3.6442351 7.06729471 -2.18615592 4.45975807 0 0 Z " fill="#FDFCF2" transform="translate(11,36)"/>
<path d="M0 0 C1.32 0 2.64 0 4 0 C6.45153075 4.73898266 6.23154206 9.12062333 6.125 14.3125 C6.11597656 15.14845703 6.10695313 15.98441406 6.09765625 16.84570312 C6.07420989 18.89725969 6.03834266 20.94866777 6 23 C5.67 23 5.34 23 5 23 C4.96261719 22.13117187 4.92523438 21.26234375 4.88671875 20.3671875 C4.47551037 11.71957101 4.47551037 11.71957101 1 4 C-0.65 4 -2.3 4 -4 4 C-4 3.34 -4 2.68 -4 2 C-2.68 2 -1.36 2 0 2 C0 1.34 0 0.68 0 0 Z " fill="#F2EEEC" transform="translate(106,29)"/>
<path d="M0 0 C0 0.66 0 1.32 0 2 C-1.828125 3.55078125 -1.828125 3.55078125 -4.25 5.3125 C-7.71648439 7.92191659 -10.49705629 10.4088199 -13 14 C-13.66 13.67 -14.32 13.34 -15 13 C-13.68 11.02 -12.36 9.04 -11 7 C-11.66 6.67 -12.32 6.34 -13 6 C-11.21118264 4.99491199 -9.41885304 3.99607264 -7.625 3 C-6.62726563 2.443125 -5.62953125 1.88625 -4.6015625 1.3125 C-2 0 -2 0 0 0 Z " fill="#D8D8DB" transform="translate(98,33)"/>
<path d="M0 0 C1.1948962 3.58468861 0.46340423 4.72157542 -1.15625 7.99609375 C-1.4759375 8.61613281 -1.795625 9.23617187 -2.125 9.875 C-2.56972656 10.79345703 -2.56972656 10.79345703 -3.0234375 11.73046875 C-5.14084361 15.92042067 -7.52833554 18.84066521 -11 22 C-10.35232245 18.56414957 -8.98727725 16.12915684 -7.125 13.1875 C-4.67157606 9.2102468 -2.74801135 5.32402809 -1 1 C-0.67 0.67 -0.34 0.34 0 0 Z " fill="#AE966D" transform="translate(118,80)"/>
<path d="M0 0 C0.33 0 0.66 0 1 0 C1.29341888 5.67276511 1.00559652 8.99067246 -2 14 C-2.66 13.67 -3.32 13.34 -4 13 C-3.34 12.01 -2.68 11.02 -2 10 C-4.64 10 -7.28 10 -10 10 C-10 9.67 -10 9.34 -10 9 C-8.35 9 -6.7 9 -5 9 C-4.731875 8.360625 -4.46375 7.72125 -4.1875 7.0625 C-3 5 -3 5 0 4 C0 2.68 0 1.36 0 0 Z " fill="#568FB8" transform="translate(44,69)"/>
<path d="M0 0 C9.06335876 -0.10234659 17.98175113 -0.06996173 27 1 C27 1.33 27 1.66 27 2 C26.06148193 2.03758423 26.06148193 2.03758423 25.10400391 2.07592773 C22.27745381 2.19175273 19.45124831 2.31453985 16.625 2.4375 C15.14773437 2.49647461 15.14773437 2.49647461 13.640625 2.55664062 C12.22910156 2.61948242 12.22910156 2.61948242 10.7890625 2.68359375 C9.91975098 2.72025146 9.05043945 2.75690918 8.15478516 2.79467773 C5.9516738 2.87401544 5.9516738 2.87401544 4 4 C4 3.34 4 2.68 4 2 C2.68 1.34 1.36 0.68 0 0 Z " fill="#99A9AF" transform="translate(55,40)"/>
<path d="M0 0 C-1.4562545 0.67119549 -2.91507867 1.33681807 -4.375 2 C-5.59316406 2.556875 -5.59316406 2.556875 -6.8359375 3.125 C-9 4 -9 4 -11 4 C-11 4.66 -11 5.32 -11 6 C-12.98 6.66 -14.96 7.32 -17 8 C-17 5 -17 5 -15.5625 3.5 C-10.72153381 0.66626369 -5.54491105 -1.86510645 0 0 Z " fill="#E2D4B1" transform="translate(54,5)"/>
<path d="M0 0 C3.3 0.33 6.6 0.66 10 1 C10 1.66 10 2.32 10 3 C9.01 3.66 8.02 4.32 7 5 C6.27034634 7.56282742 6.27034634 7.56282742 6 10 C4.68 10.33 3.36 10.66 2 11 C2.226875 10.071875 2.45375 9.14375 2.6875 8.1875 C2.790625 7.135625 2.89375 6.08375 3 5 C1.64555699 3.22809091 1.64555699 3.22809091 0 2 C0 1.34 0 0.68 0 0 Z " fill="#C3959F" transform="translate(46,84)"/>
<path d="M0 0 C0.66 0.33 1.32 0.66 2 1 C1.525625 1.37125 1.05125 1.7425 0.5625 2.125 C-1.52205802 4.62646962 -1.64621491 6.81593418 -2 10 C0.31 9.34 2.62 8.68 5 8 C4.34 9.32 3.68 10.64 3 12 C0.625 12.125 0.625 12.125 -2 12 C-2.66 11.34 -3.32 10.68 -4 10 C-4 8.68 -4 7.36 -4 6 C-4.99 6 -5.98 6 -7 6 C-6.67 5.01 -6.34 4.02 -6 3 C-5.01 3.33 -4.02 3.66 -3 4 C-3 3.34 -3 2.68 -3 2 C-2.01 1.34 -1.02 0.68 0 0 Z " fill="#134175" transform="translate(74,70)"/>
<path d="M0 0 C0.66 0.33 1.32 0.66 2 1 C1.3125 3.4375 1.3125 3.4375 0 6 C-1.65919896 6.36871088 -3.32774271 6.69595322 -5 7 C-7.17300669 8.5185482 -9.02952209 10.21282236 -11 12 C-10.66142425 8.95281822 -10.16892978 7.2252397 -8.3125 4.75 C-5.53405058 2.64738963 -3.43246436 2.31204221 0 2 C0 1.34 0 0.68 0 0 Z " fill="#DFD8DC" transform="translate(27,66)"/>
<path d="M0 0 C3.25281528 -0.48792229 5.34713084 -0.40014561 8.1796875 1.3359375 C10.1667909 2.84217602 12.1029114 4.38217825 14 6 C13.34 7.32 12.68 8.64 12 10 C11.46890625 9.52949219 10.9378125 9.05898438 10.390625 8.57421875 C9.68421875 7.95160156 8.9778125 7.32898438 8.25 6.6875 C7.20585938 5.76517578 7.20585938 5.76517578 6.140625 4.82421875 C4.14885494 3.12685266 2.11101085 1.54522191 0 0 Z " fill="#CFB883" transform="translate(88,15)"/>
<path d="M0 0 C4.56030824 3.80475422 8.85089392 7.74969621 13 12 C12.67 12.66 12.34 13.32 12 14 C10.49428343 12.88266271 8.99555708 11.75589965 7.5 10.625 C6.24703125 9.68527344 6.24703125 9.68527344 4.96875 8.7265625 C4.3190625 8.15679687 3.669375 7.58703125 3 7 C3 6.34 3 5.68 3 5 C2.34 5 1.68 5 1 5 C0.34 3.68 -0.32 2.36 -1 1 C-0.67 0.67 -0.34 0.34 0 0 Z " fill="#A69166" transform="translate(19,99)"/>
<path d="M0 0 C0.45375 0.66 0.9075 1.32 1.375 2 C1.91125 2.66 2.4475 3.32 3 4 C3.66 4 4.32 4 5 4 C5.33 8.62 5.66 13.24 6 18 C1.15225592 13.15225592 0.82355148 6.58841183 0 0 Z " fill="#EDD399" transform="translate(9,72)"/>
<path d="M0 0 C4.02511566 1.21689543 7.59257117 2.49453762 11 5 C11 5.99 11 6.98 11 8 C11.7734375 9.2684375 11.7734375 9.2684375 12.5625 10.5625 C13.036875 11.366875 13.51125 12.17125 14 13 C13.67 13.66 13.34 14.32 13 15 C11.96939453 13.75283203 11.96939453 13.75283203 10.91796875 12.48046875 C10.00789164 11.38274688 9.097731 10.28509426 8.1875 9.1875 C7.50977539 8.36668945 7.50977539 8.36668945 6.81835938 7.52929688 C4.64297307 4.90930608 2.47473717 2.34318968 0 0 Z " fill="#DFDDDF" transform="translate(26,28)"/>
<path d="M0 0 C2 3 2 3 1.5 5.5625 C-0.49682206 8.80733585 -2.38298755 9.13506224 -6 10 C-6 6 -6 6 -3.5625 3.3125 C-2.716875 2.549375 -1.87125 1.78625 -1 1 C-0.67 0.67 -0.34 0.34 0 0 Z " fill="#F4F2F3" transform="translate(109,58)"/>
<path d="M0 0 C0.33 0.66 0.66 1.32 1 2 C1.66 2 2.32 2 3 2 C3.99 4.31 4.98 6.62 6 9 C5.67 9.33 5.34 9.66 5 10 C5.66 10.66 6.32 11.32 7 12 C4.80297535 11.62120265 3.16124078 11.09789619 1.25 9.9375 C-0.79404368 6.76923229 -0.182379 3.70837308 0 0 Z " fill="#A3C4CF" transform="translate(26,72)"/>
<path d="M0 0 C0.99 0 1.98 0 3 0 C3.6875 1.625 3.6875 1.625 4 4 C2.5625 7.25 2.5625 7.25 1 10 C0.34 9.67 -0.32 9.34 -1 9 C-0.34 7.68 0.32 6.36 1 5 C-0.65 5.33 -2.3 5.66 -4 6 C-2.1875 3 -2.1875 3 0 0 Z " fill="#4D90C1" transform="translate(81,76)"/>
<path d="M0 0 C1.15628906 -0.00515625 2.31257813 -0.0103125 3.50390625 -0.015625 C6.4375 0.25 6.4375 0.25 8.4375 2.25 C4.62233536 3.55062431 1.16188237 3.14369853 -2.8125 2.8125 C-4.07578125 2.71066406 -5.3390625 2.60882813 -6.640625 2.50390625 C-8.08695313 2.37822266 -8.08695313 2.37822266 -9.5625 2.25 C-5.97967765 -0.13854824 -4.24856967 -0.01898802 0 0 Z " fill="#59544D" transform="translate(71.5625,10.75)"/>
<path d="M0 0 C0.66 0.33 1.32 0.66 2 1 C2.25 4.3125 2.25 4.3125 2 8 C0.1875 10 0.1875 10 -2 11 C-2.99 10.67 -3.98 10.34 -5 10 C-4.34 9.01 -3.68 8.02 -3 7 C-2.34 7 -1.68 7 -1 7 C-0.67 4.69 -0.34 2.38 0 0 Z " fill="#F2DFAF" transform="translate(21,50)"/>
<path d="M0 0 C0 0.66 0 1.32 0 2 C-0.66 2 -1.32 2 -2 2 C-3.4606285 4.64738916 -4 5.89448334 -4 9 C-4.66 8.67 -5.32 8.34 -6 8 C-6 7.01 -6 6.02 -6 5 C-6.66 4.67 -7.32 4.34 -8 4 C-5.52914451 0.29371676 -4.37054922 0 0 0 Z " fill="#6D98BE" transform="translate(36,67)"/>
<path d="M0 0 C0.33 0 0.66 0 1 0 C1.33 2.31 1.66 4.62 2 7 C0.1875 8.5625 0.1875 8.5625 -2 10 C-2.99 9.67 -3.98 9.34 -5 9 C-4.67 8.01 -4.34 7.02 -4 6 C-2.68 6 -1.36 6 0 6 C0 5.01 0 4.02 0 3 C-1.98 3 -3.96 3 -6 3 C-6 2.67 -6 2.34 -6 2 C-4.02 2 -2.04 2 0 2 C0 1.34 0 0.68 0 0 Z " fill="#E7DAE1" transform="translate(33,88)"/>
<path d="M0 0 C0.8353125 0.37125 0.8353125 0.37125 1.6875 0.75 C1.048125 0.95625 0.40875 1.1625 -0.25 1.375 C-2.66175077 2.64538209 -2.66175077 2.64538209 -3.0625 5.875 C-3.145 6.82375 -3.2275 7.7725 -3.3125 8.75 C-1.9925 9.08 -0.6725 9.41 0.6875 9.75 C-0.9625 9.75 -2.6125 9.75 -4.3125 9.75 C-5.3025 7.77 -6.2925 5.79 -7.3125 3.75 C-2.88173077 -0.31153846 -2.88173077 -0.31153846 0 0 Z " fill="#142D51" transform="translate(38.3125,68.25)"/>
<path d="M0 0 C1.65 0 3.3 0 5 0 C5.33 1.32 5.66 2.64 6 4 C4.824375 4.4640625 4.824375 4.4640625 3.625 4.9375 C1.07669872 5.92875038 1.07669872 5.92875038 -1 7 C-0.67 4.69 -0.34 2.38 0 0 Z " fill="#EDD4D7" transform="translate(26,43)"/>
<path d="M0 0 C3.07167873 3.07167873 3.8015614 3.8327895 4 8 C2.625 10.8125 2.625 10.8125 1 13 C0.67 13 0.34 13 0 13 C0 8.71 0 4.42 0 0 Z " fill="#E2CE9C" transform="translate(112,35)"/>
<path d="M0 0 C2 1 2 1 2 1 Z M-1 1 C-1 3.64054495 -1.35107784 5.48542662 -2 8 C-2 8.66 -2 9.32 -2 10 C-4.31 9.34 -6.62 8.68 -9 8 C-6.87696444 4.81544666 -5.26504948 3.84182279 -2 2 C-1.67 1.67 -1.34 1.34 -1 1 Z " fill="#F5E7C0" transform="translate(30,18)"/>
<path d="M0 0 C-0.17625835 2.37948772 -0.69719773 3.70225849 -2.40234375 5.37890625 C-3.90649092 6.62115486 -5.45129851 7.81376056 -7 9 C-7 7.35 -7 5.7 -7 4 C-6.34 4 -5.68 4 -5 4 C-5 3.34 -5 2.68 -5 2 C-2 0 -2 0 0 0 Z " fill="#E4D09E" transform="translate(45,17)"/>
<path d="M0 0 C2.31 0.33 4.62 0.66 7 1 C6.34 2.32 5.68 3.64 5 5 C3.35 4.67 1.7 4.34 0 4 C0 2.68 0 1.36 0 0 Z " fill="#EDD9A4" transform="translate(39,109)"/>
<path d="M0 0 C0.33 0 0.66 0 1 0 C1 2.97 1 5.94 1 9 C0.01 9 -0.98 9 -2 9 C-2.6875 7.3125 -2.6875 7.3125 -3 5 C-1.625 2.25 -1.625 2.25 0 0 Z " fill="#161B24" transform="translate(112,63)"/>
<path d="M0 0 C0.99 0.33 1.98 0.66 3 1 C4.1875 3.5625 4.1875 3.5625 5 6 C3.68 6.33 2.36 6.66 1 7 C0.67 6.01 0.34 5.02 0 4 C-2.97 3.505 -2.97 3.505 -6 3 C-6 2.67 -6 2.34 -6 2 C-4.02 1.67 -2.04 1.34 0 1 C0 0.67 0 0.34 0 0 Z " fill="#7D8796" transform="translate(39,63)"/>
<path d="M0 0 C-0.375 1.9375 -0.375 1.9375 -1 4 C-3.52053595 5.26026798 -4.8542098 4.91874445 -7.625 4.5625 C-8.85089844 4.40974609 -8.85089844 4.40974609 -10.1015625 4.25390625 C-11.04128906 4.12822266 -11.04128906 4.12822266 -12 4 C-12 3.67 -12 3.34 -12 3 C-9.69 3 -7.38 3 -5 3 C-5 2.34 -5 1.68 -5 1 C-3 0 -3 0 0 0 Z " fill="#91DDF2" transform="translate(82,81)"/>
<path d="M0 0 C0.99 0.33 1.98 0.66 3 1 C2.67 2.65 2.34 4.3 2 6 C1.34 6 0.68 6 0 6 C0 8.64 0 11.28 0 14 C-0.33 14 -0.66 14 -1 14 C-1.02694851 12.04174127 -1.04637218 10.08337774 -1.0625 8.125 C-1.07410156 7.03445312 -1.08570312 5.94390625 -1.09765625 4.8203125 C-1 2 -1 2 0 0 Z " fill="#D5CDBA" transform="translate(111,74)"/>
<path d="M0 0 C-0.33 1.65 -0.66 3.3 -1 5 C-2.65 5 -4.3 5 -6 5 C-6 4.01 -6 3.02 -6 2 C-3 0 -3 0 0 0 Z " fill="#02091B" transform="translate(78,75)"/>
<path d="M0 0 C0.33 0 0.66 0 1 0 C1.08131463 1.43655854 1.13933559 2.8744483 1.1875 4.3125 C1.22230469 5.11300781 1.25710937 5.91351563 1.29296875 6.73828125 C0.93801608 9.47851584 0.10633718 10.29171079 -2 12 C-2.66 11.67 -3.32 11.34 -4 11 C-3.52269162 9.5410574 -3.04308958 8.08286504 -2.5625 6.625 C-2.29566406 5.81289062 -2.02882813 5.00078125 -1.75390625 4.1640625 C-1 2 -1 2 0 0 Z " fill="#C9B078" transform="translate(115,62)"/>
<path d="M0 0 C6.625 0.75 6.625 0.75 10 3 C10 3.66 10 4.32 10 5 C6.7 4.01 3.4 3.02 0 2 C0 1.34 0 0.68 0 0 Z " fill="#E5D2A8" transform="translate(79,6)"/>
<path d="M0 0 C0.66 0.33 1.32 0.66 2 1 C2.5625 2.9375 2.5625 2.9375 3 5 C3.33 5.66 3.66 6.32 4 7 C0.54074837 5.7508258 -2.14693203 4.32472205 -5 2 C-2.625 0.9375 -2.625 0.9375 0 0 Z " fill="#D1CCD4" transform="translate(107,66)"/>
<path d="M0 0 C0.33 0 0.66 0 1 0 C1.1953125 6.0546875 1.1953125 6.0546875 1 8 C0.34 8.66 -0.32 9.32 -1 10 C-1.33 9.01 -1.66 8.02 -2 7 C-2.99 7.66 -3.98 8.32 -5 9 C-4.1875 7.0625 -4.1875 7.0625 -3 5 C-2.01 4.67 -1.02 4.34 0 4 C0 2.68 0 1.36 0 0 Z " fill="#4C6A8D" transform="translate(44,69)"/>
<path d="M0 0 C0.33 0 0.66 0 1 0 C1 3.63 1 7.26 1 11 C0.01 11.495 0.01 11.495 -1 12 C-2.45606519 7.47907032 -1.27032841 4.48351204 0 0 Z " fill="#2B3134" transform="translate(113,49)"/>
<path d="M0 0 C0.99 0.33 1.98 0.66 3 1 C2.649375 1.61875 2.29875 2.2375 1.9375 2.875 C1.4734375 3.926875 1.4734375 3.926875 1 5 C1.33 5.66 1.66 6.32 2 7 C-0.475 6.01 -0.475 6.01 -3 5 C-1.125 1.125 -1.125 1.125 0 0 Z " fill="#4C5156" transform="translate(37,27)"/>
<path d="M0 0 C0.33 0.99 0.66 1.98 1 3 C-0.98 4.98 -2.96 6.96 -5 9 C-5.99 8.67 -6.98 8.34 -8 8 C-5.33333333 5.33333333 -2.66666667 2.66666667 0 0 Z " fill="#C3AD81" transform="translate(106,100)"/>
<path d="M0 0 C2.78030572 4.17045858 3.29986321 7.98663274 2.5625 12.9375 C2.376875 13.618125 2.19125 14.29875 2 15 C1.67 15 1.34 15 1 15 C0.63911385 12.68853911 0.28645809 10.37579171 -0.0625 8.0625 C-0.25972656 6.77472656 -0.45695313 5.48695312 -0.66015625 4.16015625 C-0.82837891 2.59587891 -0.82837891 2.59587891 -1 1 C-0.67 0.67 -0.34 0.34 0 0 Z " fill="#EDEDEC" transform="translate(15,72)"/>
<path d="M0 0 C-0.99 0.33 -1.98 0.66 -3 1 C-3 1.66 -3 2.32 -3 3 C-4.98 3.33 -6.96 3.66 -9 4 C-8.1875 2.0625 -8.1875 2.0625 -7 0 C-3.86650268 -1.04449911 -3.01031744 -0.93423645 0 0 Z " fill="#9BB2CA" transform="translate(74,71)"/>
<path d="M0 0 C1.65 0.33 3.3 0.66 5 1 C4.01 1.495 4.01 1.495 3 2 C2.67 2.99 2.34 3.98 2 5 C1.34 5 0.68 5 0 5 C-0.33 5.99 -0.66 6.98 -1 8 C-1.66 7.67 -2.32 7.34 -3 7 C-2.01 4.69 -1.02 2.38 0 0 Z " fill="#E8E7E8" transform="translate(24,52)"/>
<path d="M0 0 C-0.66 1.32 -1.32 2.64 -2 4 C-5.10551666 4 -6.35261084 3.4606285 -9 2 C-5.62902617 0.50178941 -3.79557881 0 0 0 Z " fill="#444546" transform="translate(61,13)"/>
<path d="M0 0 C0.33 0.66 0.66 1.32 1 2 C-0.6396875 2.2165625 -0.6396875 2.2165625 -2.3125 2.4375 C-5.93122987 2.88288104 -5.93122987 2.88288104 -9 4 C-8.67 3.01 -8.34 2.02 -8 1 C-5.29120665 -0.35439668 -2.99066732 -0.06501451 0 0 Z " fill="#2C2F3D" transform="translate(39,63)"/>
<path d="M0 0 C0 0.99 0 1.98 0 3 C-2.5 5.1875 -2.5 5.1875 -5 7 C-5.66 6.34 -6.32 5.68 -7 5 C-6.01 4.67 -5.02 4.34 -4 4 C-4 3.01 -4 2.02 -4 1 C-2 0 -2 0 0 0 Z " fill="#E0DFDF" transform="translate(102,31)"/>
<path d="M0 0 C0.66 0 1.32 0 2 0 C1.67 1.98 1.34 3.96 1 6 C0.01 6 -0.98 6 -2 6 C-1.125 1.125 -1.125 1.125 0 0 Z " fill="#E0DEE3" transform="translate(69,55)"/>
<path d="M0 0 C4.95 1.98 4.95 1.98 10 4 C9.34 4.66 8.68 5.32 8 6 C4.65551641 5.66555164 2.47662991 4.21127671 0 2 C0 1.34 0 0.68 0 0 Z " fill="#C6C9D1" transform="translate(41,36)"/>
<path d="M0 0 C0.99 0 1.98 0 3 0 C3.33 1.32 3.66 2.64 4 4 C2.68 4.33 1.36 4.66 0 5 C-0.33 4.01 -0.66 3.02 -1 2 C-0.67 1.34 -0.34 0.68 0 0 Z " fill="#B7AB92" transform="translate(78,21)"/>
<path d="M0 0 C0.66 0.33 1.32 0.66 2 1 C3.67654729 0.72057545 5.34608154 0.39171753 7 0 C4.87219421 2.34058637 2.88437779 3.70700306 0 5 C-0.5625 3.0625 -0.5625 3.0625 -1 1 C-0.67 0.67 -0.34 0.34 0 0 Z " fill="#FCF6DA" transform="translate(8,46)"/>
<path d="M0 0 C0 0.66 0 1.32 0 2 C-2 3.625 -2 3.625 -4 5 C-5.32 4.34 -6.64 3.68 -8 3 C-2.25 0 -2.25 0 0 0 Z " fill="#ADB4B8" transform="translate(98,33)"/>
<path d="M0 0 C2.64 0 5.28 0 8 0 C8.33 0.99 8.66 1.98 9 3 C4.545 2.01 4.545 2.01 0 1 C0 0.67 0 0.34 0 0 Z " fill="#EBDBB6" transform="translate(69,4)"/>
</svg>
