<svg width="256" height="256" viewBox="0 0 256 256" fill="none" xmlns="http://www.w3.org/2000/svg">
<rect width="256" height="256" fill="#68C3FF"/>
<g clip-path="url(#clip0_1090_44)">
<path d="M179.289 46.0879H76.806C59.8473 46.0879 46.0996 59.8356 46.0996 76.7943V179.277C46.0996 196.236 59.8473 209.984 76.806 209.984H179.289C196.248 209.984 209.995 196.236 209.995 179.277V76.7943C209.995 59.8356 196.248 46.0879 179.289 46.0879Z" fill="#68C3FF"/>
<path fill-rule="evenodd" clip-rule="evenodd" d="M175.754 81.1538C175.813 81.078 175.914 81.046 176.002 81.0851C176.067 81.1142 176.111 81.1767 176.121 81.2476C176.16 81.5202 176.183 81.7943 176.194 82.0699C176.273 86.2402 176.296 90.4108 176.266 94.5818C176.246 99.7681 174.999 104.634 172.527 109.179C168.922 115.359 163.739 119.644 156.977 122.032C154.65 122.855 152.254 123.322 149.786 123.435C126.62 123.459 103.454 123.459 80.2875 123.435C79.8005 123.408 79.269 123.16 79.2 122.678C79.1959 122.649 79.1929 122.62 79.191 122.59C78.9857 115.299 81.3586 109.007 86.3099 103.714C90.8242 98.9609 96.3553 96.2105 102.902 95.4627C116.672 95.3494 130.443 95.2894 144.213 95.2829C147.522 95.1113 150.794 94.668 154.029 93.9525C158.214 93.1418 162.169 91.7037 165.893 89.6381C167.317 88.8849 168.683 88.0458 169.992 87.1214C171.392 86.0572 172.68 84.8645 173.857 83.544C174.497 82.7522 175.129 81.9556 175.754 81.1538Z" fill="#22242E"/>
<path fill-rule="evenodd" clip-rule="evenodd" d="M175.362 123.931C175.529 123.704 175.871 123.757 175.913 124.035C175.987 127.882 176.022 131.729 176.021 135.576C176.06 138.548 175.76 141.484 175.122 144.385C173.319 151.649 169.31 157.335 163.095 161.445C159.694 163.634 155.99 165.06 151.986 165.723C151.245 165.813 150.502 165.884 149.757 165.939C126.423 165.963 103.089 165.963 79.7548 165.939C79.3884 165.92 79.1309 165.746 78.9817 165.418C78.9015 165.172 78.8533 164.92 78.8379 164.663C78.8674 159.457 80.2455 154.639 82.9727 150.209C85.6465 146.121 89.14 142.939 93.4531 140.664C95.1209 139.808 96.8523 139.139 98.6473 138.658C100.175 138.249 101.762 138.14 103.344 138.128C116.789 138.019 130.235 137.906 143.68 137.787C151.772 137.541 159.382 135.516 166.511 131.711C169.303 130.071 171.802 128.052 174.008 125.653C174.48 125.093 174.931 124.519 175.362 123.931Z" fill="#22242E"/>
</g>
<defs>
<clipPath id="clip0_1090_44">
<rect width="164" height="164" fill="white" transform="translate(46 46)"/>
</clipPath>
</defs>
</svg>
