<svg width="64" height="64" viewBox="0 0 64 64" fill="none" xmlns="http://www.w3.org/2000/svg">
<rect width="64" height="64" rx="32" fill="white"/>
<path fill-rule="evenodd" clip-rule="evenodd" d="M29.5493 19.7471C29.5493 18.4002 30.645 17.3061 31.9998 17.3061C33.3545 17.3061 34.4503 18.3976 34.4503 19.7471V34.0655C34.4503 35.4125 33.3545 36.5066 31.9998 36.5066C30.6476 36.5066 29.5493 35.4151 29.5493 34.0655V19.7471ZM18.2116 19.7471C18.2116 18.3976 19.3099 17.3061 20.6621 17.3061C22.0168 17.3061 23.1152 18.3976 23.1126 19.7471V41.7927H34.971C36.3179 41.7927 37.412 42.8884 37.412 44.2432C37.412 45.5979 36.3205 46.6936 34.971 46.6936H20.696C20.6847 46.6938 20.6734 46.6939 20.6621 46.6939C20.6397 46.6939 20.6173 46.6936 20.5951 46.693C19.9635 46.6783 19.3907 46.4227 18.9651 46.0138C18.5033 45.5722 18.2147 44.952 18.2116 44.2639C18.2116 44.257 18.2115 44.2501 18.2115 44.2432C18.2115 44.2373 18.2116 44.2315 18.2116 44.2257V19.7471ZM43.3381 17.3061C41.9833 17.3061 40.8876 18.4002 40.8876 19.7471V34.0655C40.8876 35.4151 41.9859 36.5066 43.3381 36.5066C44.6928 36.5066 45.7885 35.4125 45.7885 34.0655V19.7471C45.7885 18.3976 44.6928 17.3061 43.3381 17.3061Z" fill="white"/>
<path fill-rule="evenodd" clip-rule="evenodd" d="M29.5493 19.7471C29.5493 18.4002 30.645 17.3061 31.9998 17.3061C33.3545 17.3061 34.4503 18.3976 34.4503 19.7471V34.0655C34.4503 35.4125 33.3545 36.5066 31.9998 36.5066C30.6476 36.5066 29.5493 35.4151 29.5493 34.0655V19.7471ZM18.2116 19.7471C18.2116 18.3976 19.3099 17.3061 20.6621 17.3061C22.0168 17.3061 23.1152 18.3976 23.1126 19.7471V41.7927H34.971C36.3179 41.7927 37.412 42.8884 37.412 44.2432C37.412 45.5979 36.3205 46.6936 34.971 46.6936H20.696C20.6847 46.6938 20.6734 46.6939 20.6621 46.6939C20.6397 46.6939 20.6173 46.6936 20.5951 46.693C19.9635 46.6783 19.3907 46.4227 18.9651 46.0138C18.5033 45.5722 18.2147 44.952 18.2116 44.2639C18.2116 44.257 18.2115 44.2501 18.2115 44.2432C18.2115 44.2373 18.2116 44.2315 18.2116 44.2257V19.7471ZM43.3381 17.3061C41.9833 17.3061 40.8876 18.4002 40.8876 19.7471V34.0655C40.8876 35.4151 41.9859 36.5066 43.3381 36.5066C44.6928 36.5066 45.7885 35.4125 45.7885 34.0655V19.7471C45.7885 18.3976 44.6928 17.3061 43.3381 17.3061Z" fill="url(#paint0_linear_844_118)"/>
<defs>
<linearGradient id="paint0_linear_844_118" x1="18.2115" y1="32" x2="45.7884" y2="17.3059" gradientUnits="userSpaceOnUse">
<stop stop-color="#4400E2"/>
<stop offset="0.421875" stop-color="#F94E6C"/>
<stop offset="1" stop-color="#FFCB00"/>
</linearGradient>
</defs>
</svg>
