<svg width="32" height="32" viewBox="0 0 32 32" fill="none" xmlns="http://www.w3.org/2000/svg">
<path fill-rule="evenodd" clip-rule="evenodd" d="M26 16C26 8.82686 20.1731 3 13 3C5.82686 3 0 8.82686 0 16C0 23.1731 5.82686 29 13 29C20.1731 29 26 23.1731 26 16Z" fill="white"/>
<path fill-rule="evenodd" clip-rule="evenodd" d="M8.1059 13.8158L13.0001 6.31091V11.0091L8.1059 13.8158ZM7.16056 15.2558C7.21204 15.1765 7.26378 15.0972 7.31552 15.0179L12.9937 25.6891C11.2223 25.6886 9.45064 25.0266 8.09942 23.7024C5.80258 21.4516 5.41232 17.9388 7.16056 15.2558Z" fill="#00A3FF"/>
<path opacity="0.6" fill-rule="evenodd" clip-rule="evenodd" d="M8.10605 13.8153L13.0003 11.0169V16.6105L8.10605 13.8153ZM7.31592 15.0179L13.0003 18.2609V25.6891L7.31592 15.0179Z" fill="#00A3FF"/>
<path opacity="0.6" fill-rule="evenodd" clip-rule="evenodd" d="M17.8942 13.8158L13 6.31091V11.0091L17.8942 13.8158ZM18.8396 15.2558C18.7881 15.1765 18.7364 15.0972 18.6846 15.0179L13.0065 25.6891C14.7779 25.6886 16.5495 25.0266 17.9007 23.7024C20.1976 21.4516 20.5878 17.9388 18.8396 15.2558Z" fill="#00A3FF"/>
<path opacity="0.2" fill-rule="evenodd" clip-rule="evenodd" d="M17.8942 13.8153L13 11.0169V16.6105L17.8942 13.8153ZM18.6844 15.0179L13 18.2609V25.6891L18.6844 15.0179Z" fill="#00A3FF"/>
<g clip-path="url(#clip0_406_420908)">
<path d="M32 25C32 28.866 28.866 32 25 32C21.134 32 18 28.866 18 25C18 21.134 21.134 18 25 18C28.866 18 32 21.134 32 25Z" fill="black"/>
<path fill-rule="evenodd" clip-rule="evenodd" d="M25 31.5625C28.6244 31.5625 31.5625 28.6244 31.5625 25C31.5625 21.3756 28.6244 18.4375 25 18.4375C21.3756 18.4375 18.4375 21.3756 18.4375 25C18.4375 28.6244 21.3756 31.5625 25 31.5625ZM25 32C28.866 32 32 28.866 32 25C32 21.134 28.866 18 25 18C21.134 18 18 21.134 18 25C18 28.866 21.134 32 25 32Z" fill="white"/>
<path fill-rule="evenodd" clip-rule="evenodd" d="M23.4646 21.952L24.9016 19.3125V23.1095L21.9239 24.647L22.8354 23.1021L21.0625 21.9047L21.663 20.786L23.4646 21.952ZM21.9717 24.8562L24.9016 26.8738V23.3434L21.9717 24.8562ZM25.0984 23.3446V26.8738L28.027 24.857L25.0984 23.3446ZM25.0984 23.1107L28.0772 24.6491L27.1646 23.1021L28.9375 21.9047L28.337 20.786L26.5354 21.952L25.0984 19.3125V23.1107ZM21.85 25.4231L24.9016 27.5247V30.6875L23.3294 28.1453L21.971 29.1694L21.4563 28.3342L22.7717 27.3256L21.85 25.4231ZM25.0984 27.5247V30.6875L26.6707 28.1453L28.029 29.1694L28.5438 28.3342L27.2283 27.3256L28.15 25.4231L25.0984 27.5247Z" fill="white"/>
</g>
<path fill-rule="evenodd" clip-rule="evenodd" d="M25.2238 11.2769C25.9446 11.0075 26.6934 10.8117 27.443 10.6344C28.0423 10.4926 28.6422 10.3627 29.24 10.2085C29.6132 10.1122 29.9854 10.0066 30.3336 9.84092C30.612 9.70845 30.8746 9.53795 31.0907 9.32116C31.3065 9.10438 31.4758 8.84169 31.6024 8.56289C31.7609 8.21439 31.8528 7.84059 31.9164 7.46154C31.9928 7.00699 32.0285 6.54494 31.9731 6.09245C31.9176 5.63996 31.771 5.19684 31.5718 4.78107C31.3727 4.36511 31.121 3.9767 30.8217 3.62932C30.4224 3.16577 29.9386 2.7753 29.4269 2.43242C28.7866 2.00316 28.1028 1.64829 27.4016 1.33257C26.7002 1.01686 25.9813 0.740493 25.2476 0.506471C24.6603 0.319291 24.0637 0.159279 23.4534 0.07028C22.9965 0.00357722 22.5319 -0.0232163 22.071 0.0234382C21.6108 0.0700926 21.1545 0.190008 20.7422 0.396112C20.3299 0.602216 19.9616 0.894321 19.6478 1.23139C19.3334 1.56884 19.0734 1.95145 18.8571 2.35635C18.6405 2.76162 18.4678 3.18938 18.3363 3.62876C18.2048 4.06832 18.1145 4.51969 18.0607 4.97518C17.989 5.58225 17.9822 6.19644 18.0329 6.80482C18.0964 7.56497 18.2496 8.31631 18.4249 9.06241C18.6005 9.80832 18.7981 10.5494 19.0987 11.2529C19.3391 11.8154 19.6452 12.3543 20.0491 12.8176C20.3012 13.1069 20.5916 13.3668 20.9183 13.5705C21.1796 13.7335 21.4641 13.8603 21.763 13.9319C21.9875 13.9857 22.2201 14.008 22.4514 13.9975C22.6825 13.987 22.9124 13.9435 23.1301 13.8673C23.4197 13.7657 23.6882 13.6059 23.9236 13.4088C24.2184 13.162 24.4616 12.8566 24.6626 12.5293C24.9041 12.1365 25.0847 11.7123 25.2238 11.2769Z" fill="white"/>
<path d="M24.0667 4.46106L23.9619 4.60578L24.0509 5.33761L24.1332 5.16718L24.0667 4.46106Z" fill="#FBF100"/>
<path d="M22.7095 0.972229L22.1509 1.00646L22.4266 1.10497L22.9164 1.07075L22.7095 0.972229Z" fill="#A40000"/>
<path d="M23.9683 3.77557L23.8306 3.89576L23.9615 4.60566L24.0662 4.46094L23.9683 3.77557Z" fill="#FFAE00"/>
<path d="M22.9165 1.0708L22.4268 1.10503L22.7029 1.32284L23.1235 1.28409L22.9165 1.0708Z" fill="#A80000"/>
<path d="M23.8414 3.13031L23.6611 3.22788L23.8306 3.89594L23.9684 3.77575L23.8414 3.13031Z" fill="#FF7300"/>
<path d="M23.1232 1.28406L22.7026 1.3228L22.9715 1.65446L23.3248 1.60679L23.1232 1.28406Z" fill="#B60000"/>
<path d="M23.6889 2.54285L23.4575 2.62039L23.6611 3.22774L23.8414 3.13017L23.6889 2.54285Z" fill="#FF3F00"/>
<path d="M23.3249 1.60681L22.9717 1.65448L23.2257 2.09107L23.5153 2.03033L23.3249 1.60681Z" fill="#D60000"/>
<path d="M23.5152 2.03015L23.2256 2.09089L23.4576 2.62033L23.689 2.54278L23.5152 2.03015Z" fill="#FF1300"/>
<path d="M25.1913 6.75549L24.7068 6.8573L24.6831 7.40347L25.1862 7.27189L25.1913 6.75549Z" fill="#16FFE1"/>
<path d="M25.1959 6.19574L24.7201 6.26388L24.707 6.85732L25.1916 6.75551L25.1959 6.19574Z" fill="#4DFFAA"/>
<path d="M25.1994 5.60712L24.7222 5.63857L24.7202 6.26391L25.196 6.19577L25.1994 5.60712Z" fill="#80FF77"/>
<path d="M25.2011 5.00518L24.7124 4.99792L24.7217 5.63864L25.1989 5.60719L25.2011 5.00518Z" fill="#B7FF40"/>
<path d="M25.2026 4.40613L24.6924 4.35925L24.7127 4.99803L25.2015 5.00529L25.2026 4.40613Z" fill="#EBFF0C"/>
<path d="M25.1731 1.4814L24.2466 1.21484L24.3158 1.30248L25.1797 1.55923L25.1731 1.4814Z" fill="#ED0400"/>
<path d="M25.2028 3.82618L24.6616 3.73993L24.6926 4.35926L25.2028 4.40614L25.2028 3.82618Z" fill="#FFCC00"/>
<path d="M25.1792 1.55942L24.3154 1.30267L24.3844 1.494L25.1853 1.73467L25.1792 1.55942Z" fill="#F10800"/>
<path d="M25.2013 3.28144L24.6206 3.15723L24.6614 3.73989L25.2025 3.82614L25.2013 3.28144Z" fill="#FF9800"/>
<path d="M25.1857 1.73457L24.3848 1.4939L24.4515 1.78412L25.191 2.00282L25.1857 1.73457Z" fill="#FF1300"/>
<path d="M25.1991 2.78701L24.5713 2.62738L24.6208 3.15713L25.2015 3.28134L25.1991 2.78701Z" fill="#FF6C00"/>
<path d="M25.1906 2.0027L24.4512 1.784L24.5139 2.16533L25.1951 2.35676L25.1906 2.0027Z" fill="#FF2900"/>
<path d="M25.1954 2.35702L24.5142 2.16559L24.5711 2.62757L25.1989 2.7872L25.1954 2.35702Z" fill="#FF4700"/>
<path d="M24.7072 6.85754L24.3501 7.01278L24.3062 7.58706L24.6835 7.40371L24.7072 6.85754Z" fill="#13FCE4"/>
<path d="M24.7202 6.26398L24.373 6.38779L24.3501 7.01265L24.7072 6.85742L24.7202 6.26398Z" fill="#49FFAD"/>
<path d="M24.7222 5.63861L24.3501 5.72859L24.373 6.38777L24.7202 6.26395L24.7222 5.63861Z" fill="#80FF77"/>
<path d="M24.713 4.99799L24.3525 5.05245L24.3739 5.72862L24.7223 5.6387L24.713 4.99799Z" fill="#BAFF3C"/>
<path d="M24.6924 4.35931L24.3091 4.37776L24.3523 5.05255L24.7128 4.99809L24.6924 4.35931Z" fill="#F1FC06"/>
<path d="M24.2467 1.21498L23.4146 1.04279L23.5515 1.13752L24.316 1.30262L24.2467 1.21498Z" fill="#D10000"/>
<path d="M24.6616 3.73978L24.2451 3.72272L24.3092 4.37754L24.6926 4.35909L24.6616 3.73978Z" fill="#FFC100"/>
<path d="M24.3163 1.30255L23.5518 1.13745L23.6887 1.34171L24.3852 1.49388L24.3163 1.30255Z" fill="#D60000"/>
<path d="M24.6211 3.15722L24.1621 3.1062L24.2454 3.72282L24.6619 3.73988L24.6211 3.15722Z" fill="#FF8900"/>
<path d="M24.3851 1.49385L23.6885 1.34167L23.8216 1.65033L24.4518 1.78405L24.3851 1.49385Z" fill="#E40000"/>
<path d="M24.5713 2.62749L24.0615 2.5451L24.1618 3.10621L24.6208 3.15723L24.5713 2.62749Z" fill="#FF5D00"/>
<path d="M24.452 1.78429L23.8218 1.65057L23.9473 2.0554L24.5147 2.16563L24.452 1.78429Z" fill="#FF1300"/>
<path d="M24.5147 2.1654L23.9473 2.05518L24.0618 2.54499L24.5715 2.62737L24.5147 2.1654Z" fill="#FF3400"/>
<path d="M25.7773 6.70844L25.1922 6.75578L25.187 7.27218L25.7882 7.19393L25.7773 6.70844Z" fill="#1CFFDB"/>
<path d="M25.7739 6.18365L25.1962 6.19578L25.1919 6.75556L25.777 6.70821L25.7739 6.18365Z" fill="#50FFA7"/>
<path d="M25.7788 5.63371L25.1996 5.60724L25.1963 6.19591L25.7739 6.18378L25.7788 5.63371Z" fill="#80FF77"/>
<path d="M25.7915 5.07253L25.202 5.00513L25.1997 5.60712L25.7789 5.6336L25.7915 5.07253Z" fill="#B4FF43"/>
<path d="M25.812 4.51568L25.2033 4.40619L25.2021 5.00535L25.7917 5.07275L25.812 4.51568Z" fill="#E4FF13"/>
<path d="M25.8393 3.97758L25.2031 3.82605L25.2032 4.406L25.8119 4.51549L25.8393 3.97758Z" fill="#FFD700"/>
<path d="M26.1505 1.83138L25.1733 1.48163L25.18 1.55946L26.1017 1.89739L26.1505 1.83138Z" fill="#FF1E00"/>
<path d="M25.8729 3.47364L25.2017 3.28137L25.2029 3.82609L25.8391 3.97762L25.8729 3.47364Z" fill="#FFA700"/>
<path d="M26.1019 1.89726L25.1802 1.55933L25.1862 1.73458L26.0523 2.05413L26.1019 1.89726Z" fill="#FF1E00"/>
<path d="M25.9122 3.01761L25.1992 2.78711L25.2016 3.28143L25.8729 3.4737L25.9122 3.01761Z" fill="#FF7E00"/>
<path d="M26.0521 2.05417L25.186 1.73462L25.1914 2.00286L26.0031 2.29794L26.0521 2.05417Z" fill="#FF2900"/>
<path d="M25.956 2.62203L25.1958 2.35693L25.1993 2.7871L25.9123 3.0176L25.956 2.62203Z" fill="#FF5900"/>
<path d="M26.0031 2.29776L25.1914 2.00269L25.1959 2.35674L25.9561 2.62184L26.0031 2.29776Z" fill="#FF3B00"/>
<path d="M24.3713 10.5932L25.1576 10.2959L25.0009 10.3792L24.2031 10.6827L24.3713 10.5932Z" fill="#00CCFF"/>
<path d="M24.5253 10.4573L25.3014 10.1697L25.1579 10.296L24.3716 10.5933L24.5253 10.4573Z" fill="#00DCFE"/>
<path d="M24.6602 10.2782L25.4275 10.0033L25.301 10.1696L24.5249 10.4572L24.6602 10.2782Z" fill="#09F0EE"/>
<path d="M24.7734 10.0606L25.5336 9.80133L25.4275 10.0035L24.6602 10.2784L24.7734 10.0606Z" fill="#1CFFDB"/>
<path d="M24.8616 9.80943L25.6165 9.56836L25.5336 9.80133L24.7734 10.0606L24.8616 9.80943Z" fill="#33FFC4"/>
<path d="M24.9225 9.53115L25.6742 9.3103L25.6167 9.56823L24.8618 9.80931L24.9225 9.53115Z" fill="#4DFFAA"/>
<path d="M24.9539 9.23325L25.7045 9.03418L25.674 9.31048L24.9224 9.53133L24.9539 9.23325Z" fill="#63FF94"/>
<path d="M24.9555 8.92287L25.7071 8.74658L25.7046 9.03411L24.9541 9.23318L24.9555 8.92287Z" fill="#7DFF7A"/>
<path d="M24.9263 8.60844L25.6811 8.45532L25.7068 8.74658L24.9552 8.92288L24.9263 8.60844Z" fill="#97FF60"/>
<path d="M24.8677 8.29814L25.6278 8.16797L25.6812 8.4553L24.9264 8.60842L24.8677 8.29814Z" fill="#B1FF46"/>
<path d="M24.7808 8.00016L25.5482 7.89209L25.6279 8.16787L24.8677 8.29804L24.7808 8.00016Z" fill="#C7FF30"/>
<path d="M24.6675 7.72273L25.444 7.63531L25.548 7.89219L24.7805 8.00025L24.6675 7.72273Z" fill="#DEFF19"/>
<path d="M23.646 6.84138L24.4987 6.81982L24.6739 6.84817L23.8348 6.87203L23.646 6.84138Z" fill="#FFCC00"/>
<path d="M24.5312 7.4731L25.3185 7.4043L25.444 7.63537L24.6675 7.72279L24.5312 7.4731Z" fill="#F1FC06"/>
<path d="M23.835 6.87201L24.6741 6.84814L24.8483 6.9233L24.0228 6.95325L23.835 6.87201Z" fill="#FFCC00"/>
<path d="M24.3755 7.25781L25.1747 7.20508L25.3184 7.40414L24.5312 7.47294L24.3755 7.25781Z" fill="#FFEA00"/>
<path d="M24.0225 6.95323L24.8479 6.92328L25.0164 7.0433L24.2044 7.08296L24.0225 6.95323Z" fill="#FFD000"/>
<path d="M24.2046 7.08294L25.0166 7.04327L25.1749 7.20498L24.3757 7.25771L24.2046 7.08294Z" fill="#FFDB00"/>
<path d="M24.353 5.05231L24.1333 5.16701L24.1668 5.87442L24.3744 5.72847L24.353 5.05231Z" fill="#BEFF39"/>
<path d="M24.3094 4.37756L24.0664 4.46092L24.1329 5.16706L24.3526 5.05236L24.3094 4.37756Z" fill="#F8F500"/>
<path d="M23.4148 1.04276L22.7095 0.972229L22.9163 1.07075L23.5517 1.13749L23.4148 1.04276Z" fill="#BB0000"/>
<path d="M24.2456 3.72272L23.9688 3.77555L24.0667 4.46092L24.3097 4.37756L24.2456 3.72272Z" fill="#FFB900"/>
<path d="M23.5514 1.13755L22.916 1.0708L23.1231 1.28409L23.6883 1.3418L23.5514 1.13755Z" fill="#BF0000"/>
<path d="M24.1618 3.10608L23.8413 3.13012L23.9682 3.77555L24.2451 3.72271L24.1618 3.10608Z" fill="#FF7E00"/>
<path d="M23.6888 1.34183L23.1235 1.28412L23.3251 1.60685L23.8219 1.6505L23.6888 1.34183Z" fill="#CD0000"/>
<path d="M24.0621 2.54512L23.6895 2.54297L23.8419 3.13028L24.1624 3.10625L24.0621 2.54512Z" fill="#FF4E00"/>
<path d="M23.822 1.65046L23.3252 1.60681L23.5156 2.03034L23.9476 2.05528L23.822 1.65046Z" fill="#E80000"/>
<path d="M23.9471 2.05534L23.5151 2.0304L23.689 2.54301L24.0616 2.54516L23.9471 2.05534Z" fill="#FF2200"/>
<path d="M23.8859 10.7628L24.5254 10.4573L24.3717 10.5932L23.7192 10.9106L23.8859 10.7628Z" fill="#00D0FF"/>
<path d="M24.0317 10.568L24.6601 10.2783L24.5248 10.4573L23.8853 10.7628L24.0317 10.568Z" fill="#00E4F8"/>
<path d="M24.1546 10.3308L24.7738 10.0604L24.6606 10.2782L24.0322 10.5679L24.1546 10.3308Z" fill="#16FFE1"/>
<path d="M24.2493 10.0574L24.8617 9.80945L24.7735 10.0606L24.1543 10.331L24.2493 10.0574Z" fill="#2CFFCA"/>
<path d="M24.3146 9.75425L24.9226 9.53131L24.8619 9.80946L24.2495 10.0574L24.3146 9.75425Z" fill="#46FFB1"/>
<path d="M24.3478 9.42914L24.954 9.23315L24.9225 9.53123L24.3145 9.75417L24.3478 9.42914Z" fill="#63FF94"/>
<path d="M24.348 9.09045L24.9553 8.92267L24.9539 9.23297L24.3477 9.42896L24.348 9.09045Z" fill="#7DFF7A"/>
<path d="M24.3154 8.74748L24.9263 8.6084L24.9553 8.92283L24.3481 9.09062L24.3154 8.74748Z" fill="#9AFF5D"/>
<path d="M24.2505 8.4088L24.8677 8.29816L24.9264 8.60843L24.3155 8.74751L24.2505 8.4088Z" fill="#B7FF40"/>
<path d="M24.1548 8.08336L24.7809 8.00012L24.8679 8.298L24.2506 8.40864L24.1548 8.08336Z" fill="#D1FF26"/>
<path d="M24.0308 7.78024L24.6679 7.7226L24.781 8.00011L24.1549 8.08335L24.0308 7.78024Z" fill="#E7FF0F"/>
<path d="M23.8813 7.50747L24.5316 7.4729L24.6678 7.72259L24.0306 7.78024L23.8813 7.50747Z" fill="#FBF100"/>
<path d="M23.7109 7.27253L24.3759 7.25787L24.5316 7.47301L23.8814 7.50758L23.7109 7.27253Z" fill="#FFDB00"/>
<path d="M19.4912 9.33927L19.5997 9.69246L19.4171 8.99802L19.3047 8.63013L19.4912 9.33927Z" fill="#00B4FF"/>
<path d="M19.2069 8.23203L19.3074 8.64312L19.4171 8.99802L19.2975 8.27846L19.1279 7.67731L19.2069 8.23203Z" fill="#16FFE1"/>
<path d="M19.1824 7.89494L19.2976 8.2783L19.2446 7.55126L19.1279 7.15204L19.1824 7.89494Z" fill="#56FFA0"/>
<path d="M19.1279 7.15201L19.2446 7.55123L19.2603 6.83489L19.1435 6.4198L19.1279 7.15201Z" fill="#97FF60"/>
<path d="M19.1436 6.41977L19.2604 6.83486L19.3452 6.14755L19.2295 5.71698L19.1436 6.41977Z" fill="#D4FF23"/>
<path d="M19.2295 5.71695L19.3451 6.14753L19.4977 5.50736L19.3846 5.06207L19.2295 5.71695Z" fill="#FFD700"/>
<path d="M19.3848 5.06215L19.4978 5.50744L19.715 4.93168L19.6058 4.4729L19.3848 5.06215Z" fill="#FF9400"/>
<path d="M19.606 4.47291L19.7151 4.93168L19.992 4.43632L19.888 3.96564L19.606 4.47291Z" fill="#FF5900"/>
<path d="M19.8877 3.96575L19.9917 4.43643L20.3216 4.03571L20.2239 3.55505L19.8877 3.96575Z" fill="#FF2500"/>
<path d="M24.5762 7.30896L24.5872 7.71538L24.6569 8.4618L24.6473 8.072L24.5762 7.30896Z" fill="#C1FF36"/>
<path d="M20.2241 3.5551L20.3218 4.03575L20.6964 3.74155L20.606 3.25323L20.2241 3.5551Z" fill="#DF0000"/>
<path d="M24.4331 6.55322L24.4471 6.97608L24.5875 7.71525L24.5764 7.30884L24.4331 6.55322Z" fill="#FFEA00"/>
<path d="M20.606 3.25311L20.6964 3.74142L21.1059 3.56282L21.0236 3.0694L20.606 3.25311Z" fill="#BB0000"/>
<path d="M24.2207 5.82593L24.239 6.26454L24.4469 6.97617L24.4329 6.55331L24.2207 5.82593Z" fill="#FFA700"/>
<path d="M21.0234 3.06937L21.1057 3.5628L21.5393 3.50575L21.4657 3.00995L21.0234 3.06937Z" fill="#9F0000"/>
<path d="M23.9453 5.14709L23.9692 5.60033L24.2394 6.26457L24.2211 5.82596L23.9453 5.14709Z" fill="#FF6C00"/>
<path d="M21.4658 3.00983L21.5394 3.50562L21.9851 3.57258L21.9205 3.07721L21.4658 3.00983Z" fill="#920000"/>
<path d="M23.6128 4.53589L23.6434 5.00212L23.9689 5.60019L23.945 5.14696L23.6128 4.53589Z" fill="#FF3400"/>
<path d="M21.9204 3.07745L21.985 3.57282L22.4305 3.76258L22.375 3.27054L21.9204 3.07745Z" fill="#960000"/>
<path d="M23.2334 4.00995L23.2716 4.48722L23.6436 5.00215L23.613 4.53591L23.2334 4.00995Z" fill="#F10800"/>
<path d="M22.375 3.27051L22.4305 3.76255L22.8634 4.07025L22.8167 3.58431L22.375 3.27051Z" fill="#A40000"/>
<path d="M22.8169 3.58429L22.8635 4.07023L23.2716 4.4874L23.2334 4.01013L22.8169 3.58429Z" fill="#C40000"/>
<path d="M19.0828 7.48779L19.1824 7.89504L19.1279 7.15214L19.0273 6.73535L19.0828 7.48779Z" fill="#53FFA4"/>
<path d="M19.0273 6.73533L19.1279 7.15212L19.1434 6.41992L19.0426 5.99353L19.0273 6.73533Z" fill="#97FF60"/>
<path d="M19.0425 5.99352L19.1433 6.41991L19.2293 5.71712L19.129 5.28131L19.0425 5.99352Z" fill="#D7FF1F"/>
<path d="M19.1289 5.28117L19.2292 5.71698L19.3843 5.0621L19.2853 4.61731L19.1289 5.28117Z" fill="#FFD300"/>
<path d="M19.2852 4.61741L19.3842 5.0622L19.6053 4.47292L19.5082 4.01978L19.2852 4.61741Z" fill="#FF9100"/>
<path d="M19.5083 4.01982L19.6054 4.47297L19.8874 3.9657L19.793 3.50513L19.5083 4.01982Z" fill="#FF5200"/>
<path d="M19.7935 3.50516L19.8879 3.96573L20.2241 3.55507L20.133 3.0882L19.7935 3.50516Z" fill="#FF1E00"/>
<path d="M20.1323 3.08818L20.2234 3.55505L20.6053 3.25315L20.5181 2.78131L20.1323 3.08818Z" fill="#D60000"/>
<path d="M20.5186 2.78124L20.6057 3.25308L21.0234 3.06936L20.9406 2.59406L20.5186 2.78124Z" fill="#AD0000"/>
<path d="M24.1733 5.38062L24.2209 5.82587L24.4331 6.55325L24.388 6.11727L24.1733 5.38062Z" fill="#FFA300"/>
<path d="M20.9404 2.594L21.0233 3.06931L21.4655 3.00987L21.3873 2.53271L20.9404 2.594Z" fill="#920000"/>
<path d="M23.894 4.69342L23.9447 5.14723L24.2206 5.82606L24.173 5.38081L23.894 4.69342Z" fill="#FF6400"/>
<path d="M21.3872 2.53271L21.4653 3.00987L21.92 3.07728L21.8468 2.59998L21.3872 2.53271Z" fill="#840000"/>
<path d="M23.5581 4.07471L23.6126 4.53603L23.9448 5.14713L23.8941 4.69332L23.5581 4.07471Z" fill="#FF2D00"/>
<path d="M21.8472 2.60004L21.9204 3.07734L22.375 3.27041L22.3067 2.7947L21.8472 2.60004Z" fill="#890000"/>
<path d="M23.1743 3.54242L23.233 4.01004L23.6126 4.53601L23.5582 4.07469L23.1743 3.54242Z" fill="#E40000"/>
<path d="M22.3066 2.79486L22.3749 3.27057L22.8166 3.58434L22.7532 3.1119L22.3066 2.79486Z" fill="#9B0000"/>
<path d="M22.7529 3.11182L22.8163 3.58426L23.2328 4.01013L23.1741 3.54251L22.7529 3.11182Z" fill="#BB0000"/>
<path d="M19.1527 7.82128L19.207 8.23203L19.083 7.4878L19.0283 7.07416L19.1527 7.82128Z" fill="#13FCE4"/>
<path d="M19.4174 8.99799L19.5219 9.32032L19.406 8.62218L19.2979 8.27844L19.4174 8.99799Z" fill="#19FFDE"/>
<path d="M19.2976 8.2784L19.4058 8.62213L19.3547 7.91697L19.2446 7.55133L19.2976 8.2784Z" fill="#56FFA0"/>
<path d="M19.2446 7.55134L19.3547 7.91698L19.3704 7.22248L19.2603 6.83502L19.2446 7.55134Z" fill="#94FF63"/>
<path d="M19.2603 6.83494L19.3703 7.2224L19.4531 6.55634L19.345 6.14764L19.2603 6.83494Z" fill="#D1FF26"/>
<path d="M19.3452 6.14749L19.4533 6.55619L19.6019 5.93611L19.4978 5.50732L19.3452 6.14749Z" fill="#FFDB00"/>
<path d="M19.4976 5.50743L19.6017 5.93621L19.813 5.3788L19.7147 4.93164L19.4976 5.50743Z" fill="#FF9C00"/>
<path d="M19.7148 4.9318L19.8131 5.37896L20.0824 4.89972L19.9917 4.43646L19.7148 4.9318Z" fill="#FF6000"/>
<path d="M19.9917 4.43649L20.0823 4.89975L20.403 4.51238L20.3216 4.03577L19.9917 4.43649Z" fill="#FF3000"/>
<path d="M24.5872 7.71545L24.5444 8.08552L24.6123 8.80897L24.6569 8.46188L24.5872 7.71545Z" fill="#C1FF36"/>
<path d="M20.3213 4.03566L20.4027 4.51227L20.7666 4.22821L20.6959 3.74146L20.3213 4.03566Z" fill="#F10800"/>
<path d="M24.447 6.97626L24.4082 7.36906L24.5446 8.08549L24.5873 7.71543L24.447 6.97626Z" fill="#FBF100"/>
<path d="M20.6963 3.74147L20.767 4.22822L21.1648 4.05624L21.1059 3.56287L20.6963 3.74147Z" fill="#C80000"/>
<path d="M24.2393 6.26453L24.2065 6.67924L24.4085 7.36897L24.4472 6.97616L24.2393 6.26453Z" fill="#FFAE00"/>
<path d="M21.106 3.56291L21.1649 4.05628L21.5859 4.00206L21.5395 3.50586L21.106 3.56291Z" fill="#AD0000"/>
<path d="M23.9688 5.60046L23.9438 6.03555L24.2062 6.67939L24.239 6.26468L23.9688 5.60046Z" fill="#FF7300"/>
<path d="M21.5396 3.50568L21.5859 4.00188L22.0186 4.06773L21.9852 3.57263L21.5396 3.50568Z" fill="#A40000"/>
<path d="M23.6433 5.00226L23.6279 5.45558L23.9439 6.03541L23.9688 5.60032L23.6433 5.00226Z" fill="#FF3F00"/>
<path d="M21.9854 3.57269L22.0187 4.0678L22.4511 4.25253L22.4308 3.76246L21.9854 3.57269Z" fill="#A40000"/>
<path d="M23.2715 4.4873L23.2671 4.95617L23.6281 5.45555L23.6435 5.00223L23.2715 4.4873Z" fill="#FF1300"/>
<path d="M22.4307 3.76257L22.4509 4.25265L22.8711 4.55151L22.8635 4.07025L22.4307 3.76257Z" fill="#B60000"/>
<path d="M22.8633 4.07007L22.8708 4.55133L23.2669 4.95613L23.2714 4.48726L22.8633 4.07007Z" fill="#D10000"/>
<path d="M19.5996 9.69236L19.6986 9.99426L19.5214 9.32025L19.417 8.99792L19.5996 9.69236Z" fill="#00BCFF"/>
<path d="M19.6986 9.99413L19.7756 10.233L19.6052 9.5847L19.5215 9.32013L19.6986 9.99413Z" fill="#00C4FF"/>
<path d="M19.5216 9.3202L19.6053 9.58477L19.4941 8.9135L19.4058 8.62207L19.5216 9.3202Z" fill="#1CFFDB"/>
<path d="M19.4056 8.62203L19.4939 8.91346L19.445 8.23573L19.3545 7.91687L19.4056 8.62203Z" fill="#56FFA0"/>
<path d="M19.3545 7.91691L19.445 8.23576L19.4604 7.56855L19.3702 7.22241L19.3545 7.91691Z" fill="#94FF63"/>
<path d="M19.3701 7.22252L19.4604 7.56865L19.5404 6.92906L19.4529 6.55646L19.3701 7.22252Z" fill="#CEFF29"/>
<path d="M24.403 10.8313L24.3037 11.043L24.1128 11.5878L24.2043 11.3983L24.403 10.8313Z" fill="#00B0FF"/>
<path d="M19.4531 6.55643L19.5406 6.92903L19.684 6.33388L19.6017 5.93634L19.4531 6.55643Z" fill="#FFE200"/>
<path d="M24.5399 10.1998L24.435 10.4363L24.3037 11.0428L24.4031 10.8312L24.5399 10.1998Z" fill="#0CF4EB"/>
<path d="M19.6016 5.93631L19.6838 6.33386L19.8874 5.79919L19.8129 5.37891L19.6016 5.93631Z" fill="#FFA300"/>
<path d="M24.6107 9.5199L24.5027 9.78314L24.4351 10.4363L24.54 10.1998L24.6107 9.5199Z" fill="#46FFB1"/>
<path d="M19.813 5.37886L19.8875 5.79915L20.1468 5.33977L20.0822 4.8996L19.813 5.37886Z" fill="#FF6C00"/>
<path d="M24.6123 8.80902L24.5038 9.1004L24.5024 9.78328L24.6105 9.52004L24.6123 8.80902Z" fill="#80FF77"/>
<path d="M20.082 4.89976L20.1466 5.33993L20.4551 4.96894L20.4027 4.51239L20.082 4.89976Z" fill="#FF3B00"/>
<path d="M24.5447 8.08545L24.4385 8.40555L24.5041 9.10028L24.6126 8.8089L24.5447 8.08545Z" fill="#BEFF39"/>
<path d="M20.4028 4.51222L20.4553 4.96877L20.8054 4.69707L20.7668 4.22815L20.4028 4.51222Z" fill="#FF1300"/>
<path d="M24.408 7.36902L24.3066 7.71764L24.4381 8.40555L24.5444 8.08545L24.408 7.36902Z" fill="#F8F500"/>
<path d="M20.7671 4.22814L20.8057 4.69706L21.1883 4.53299L21.1649 4.05615L20.7671 4.22814Z" fill="#DA0000"/>
<path d="M24.2061 6.67926L24.1123 7.05536L24.3067 7.71761L24.408 7.36899L24.2061 6.67926Z" fill="#FFB600"/>
<path d="M21.1646 4.05622L21.188 4.53306L21.5927 4.482L21.5855 4.00201L21.1646 4.05622Z" fill="#C40000"/>
<path d="M23.9437 6.0354L23.8599 6.43716L24.1123 7.05537L24.2061 6.67927L23.9437 6.0354Z" fill="#FF7E00"/>
<path d="M21.5854 4.00189L21.5927 4.48188L22.0087 4.546L22.0181 4.06775L21.5854 4.00189Z" fill="#B60000"/>
<path d="M23.6279 5.45575L23.5562 5.88054L23.86 6.43734L23.9439 6.03558L23.6279 5.45575Z" fill="#FF4A00"/>
<path d="M22.0183 4.06781L22.0088 4.54607L22.4245 4.72417L22.4507 4.25256L22.0183 4.06781Z" fill="#BB0000"/>
<path d="M23.2668 4.95636L23.209 5.40083L23.5561 5.88053L23.6278 5.45574L23.2668 4.95636Z" fill="#FF1E00"/>
<path d="M22.4506 4.25244L22.4243 4.72405L22.8281 5.01155L22.8707 4.55129L22.4506 4.25244Z" fill="#C80000"/>
<path d="M22.8706 4.55151L22.8281 5.01177L23.2089 5.40079L23.2667 4.95631L22.8706 4.55151Z" fill="#E40000"/>
<path d="M23.4745 10.5532L24.3234 10.2601L24.1629 10.1215L23.3013 10.4037L23.4745 10.5532Z" fill="#00C4FF"/>
<path d="M23.3013 10.4039L24.1629 10.1217L24.0142 9.94495L23.1406 10.2132L23.3013 10.4039Z" fill="#00D0FF"/>
<path d="M23.1407 10.2131L24.0143 9.94486L23.8811 9.73444L22.9966 9.98621L23.1407 10.2131Z" fill="#00E0FB"/>
<path d="M22.9965 9.98625L23.881 9.73448L23.7669 9.49561L22.8726 9.72866L22.9965 9.98625Z" fill="#0FF8E7"/>
<path d="M22.744 10.8656L23.4745 10.5533L23.3014 10.4037L22.5552 10.7025L22.744 10.8656Z" fill="#00B4FF"/>
<path d="M22.5552 10.7027L23.3014 10.4039L23.1408 10.2133L22.3799 10.4948L22.5552 10.7027Z" fill="#00C0FF"/>
<path d="M22.9416 10.9801L23.6561 10.6582L23.4747 10.5534L22.7441 10.8657L22.9416 10.9801Z" fill="#00A8FF"/>
<path d="M22.8725 9.72849L23.7668 9.49543L23.6745 9.23407L22.772 9.44664L22.8725 9.72849Z" fill="#23FFD4"/>
<path d="M22.3798 10.4949L23.1406 10.2133L22.9965 9.98633L22.2222 10.2475L22.3798 10.4949Z" fill="#00D4FF"/>
<path d="M23.1427 11.0428L23.8408 10.7155L23.6558 10.6582L22.9414 10.9801L23.1427 11.0428Z" fill="#00A8FF"/>
<path d="M22.2222 10.2475L22.9966 9.98629L22.8727 9.7287L22.0864 9.96681L22.2222 10.2475Z" fill="#06ECF1"/>
<path d="M22.7718 9.44673L23.6744 9.23416L23.6063 8.95685L22.6973 9.14768L22.7718 9.44673Z" fill="#39FFBE"/>
<path d="M23.3426 11.052L24.0247 10.7237L23.8407 10.7154L23.1426 11.0427L23.3426 11.052Z" fill="#00A8FF"/>
<path d="M22.0861 9.96661L22.8724 9.7285L22.7718 9.44666L21.9756 9.65947L22.0861 9.96661Z" fill="#1CFFDB"/>
<path d="M22.6975 9.14769L23.6066 8.95686L23.5646 8.67059L22.6509 8.83894L22.6975 9.14769Z" fill="#53FFA4"/>
<path d="M21.9755 9.65971L22.7717 9.44689L22.6972 9.14783L21.8931 9.33378L21.9755 9.65971Z" fill="#36FFC1"/>
<path d="M22.6507 8.83906L23.5644 8.67072L23.5496 8.38275L22.6333 8.52844L22.6507 8.83906Z" fill="#6DFF8A"/>
<path d="M21.8934 9.33375L22.6975 9.14779L22.6509 8.83905L21.8413 8.99722L21.8934 9.33375Z" fill="#50FFA7"/>
<path d="M22.6333 8.52839L23.5496 8.3827L23.5627 8.1004L22.6458 8.22382L22.6333 8.52839Z" fill="#87FF70"/>
<path d="M21.8411 8.99711L22.6507 8.83894L22.6334 8.52832L21.8208 8.65847L21.8411 8.99711Z" fill="#6AFF8D"/>
<path d="M22.646 8.22382L23.5629 8.10041L23.6034 7.83105L22.6882 7.93317L22.646 8.22382Z" fill="#A0FF56"/>
<path d="M21.8208 8.65842L22.6334 8.52828L22.6459 8.22369L21.8329 8.32629L21.8208 8.65842Z" fill="#87FF70"/>
<path d="M22.688 7.9331L23.6032 7.83098L23.6704 7.5816L22.7589 7.66395L22.688 7.9331Z" fill="#B7FF40"/>
<path d="M21.833 8.32641L22.646 8.22382L22.6881 7.93317L21.8774 8.00938L21.833 8.32641Z" fill="#A4FF53"/>
<path d="M22.7593 7.66405L23.6708 7.58171L23.763 7.35889L22.8572 7.42351L22.7593 7.66405Z" fill="#D1FF26"/>
<path d="M21.8774 8.00937L22.6881 7.93315L22.759 7.664L21.9533 7.71571L21.8774 8.00937Z" fill="#BEFF39"/>
<path d="M22.8569 7.42335L23.7627 7.35873L23.8776 7.1684L22.9795 7.21784L22.8569 7.42335Z" fill="#E4FF13"/>
<path d="M21.9531 7.71578L22.7589 7.66407L22.8569 7.42352L22.0585 7.45325L21.9531 7.71578Z" fill="#D7FF1F"/>
<path d="M22.0586 7.45313L22.8569 7.4234L22.9795 7.2179L22.191 7.22878L22.0586 7.45313Z" fill="#EEFF09"/>
<path d="M22.1909 7.22883L22.9795 7.21796L23.1236 7.05306L22.347 7.04877L22.1909 7.22883Z" fill="#FFEA00"/>
<path d="M22.3472 7.04883L23.1238 7.05312L23.2858 6.93338L22.5229 6.91803L22.3472 7.04883Z" fill="#FFD700"/>
<path d="M21.2956 12.6831L21.2566 12.6534L20.9185 12.361L20.938 12.3738L21.2956 12.6831Z" fill="#0000FF"/>
<path d="M20.9381 12.3738L20.9185 12.361L20.6035 11.9894L20.605 11.9808L20.9381 12.3738Z" fill="#0010FF"/>
<path d="M21.6693 12.9012L21.6098 12.8597L21.2568 12.6535L21.2959 12.6832L21.6693 12.9012Z" fill="#0000F1"/>
<path d="M20.6049 11.9808L20.6034 11.9894L20.3192 11.5476L20.3042 11.5134L20.6049 11.9808Z" fill="#0038FF"/>
<path d="M22.049 13.0226L21.9687 12.9744L21.6094 12.8597L21.6688 12.9012L22.049 13.0226Z" fill="#0000E8"/>
<path d="M20.3042 11.5133L20.3192 11.5474L20.0727 11.0458L20.0435 10.9826L20.3042 11.5133Z" fill="#0064FF"/>
<path d="M22.4272 13.044L22.3261 12.9945L21.9692 12.9744L22.0495 13.0227L22.4272 13.044Z" fill="#0000ED"/>
<path d="M20.0434 10.9827L20.0727 11.0459L19.8701 10.4966L19.8291 10.4014L20.0434 10.9827Z" fill="#0098FF"/>
<path d="M22.7928 12.9642L22.6714 12.919L22.3257 12.9945L22.4267 13.044L22.7928 12.9642Z" fill="#0000FF"/>
<path d="M19.8293 10.4016L19.8704 10.4967L19.717 9.9129L19.667 9.78363L19.8293 10.4016Z" fill="#00D4FF"/>
<path d="M23.1384 12.7844L22.9978 12.749L22.6719 12.9188L22.7932 12.964L23.1384 12.7844Z" fill="#0008FF"/>
<path d="M19.667 9.78348L19.717 9.91275L19.617 9.3087L19.561 9.14386L19.667 9.78348Z" fill="#26FFD1"/>
<path d="M23.4539 12.5088L23.2955 12.4884L22.9976 12.749L23.1382 12.7845L23.4539 12.5088Z" fill="#002CFF"/>
<path d="M19.561 9.14393L19.617 9.30878L19.5734 8.69941L19.5146 8.49841L19.561 9.14393Z" fill="#5AFF9D"/>
<path d="M23.7319 12.1429L23.5576 12.1427L23.2954 12.4884L23.4538 12.5088L23.7319 12.1429Z" fill="#0054FF"/>
<path d="M19.5146 8.49836L19.5734 8.69936L19.5877 8.10002L19.5296 7.86316L19.5146 8.49836Z" fill="#90FF66"/>
<path d="M23.9649 11.6953L23.777 11.7199L23.5576 12.1428L23.7319 12.143L23.9649 11.6953Z" fill="#0088FF"/>
<path d="M19.5293 7.86318L19.5874 8.10004L19.6599 7.5261L19.6058 7.25458L19.5293 7.86318Z" fill="#C7FF30"/>
<path d="M24.1465 11.1763L23.948 11.2299L23.7773 11.7199L23.9652 11.6953L24.1465 11.1763Z" fill="#00C4FF"/>
<path d="M19.6064 7.25459L19.6605 7.52611L19.7899 6.99266L19.7433 6.6886L19.6064 7.25459Z" fill="#FBF100"/>
<path d="M24.2709 10.5986L24.0646 10.6847L23.9478 11.2298L24.1463 11.1762L24.2709 10.5986Z" fill="#16FFE1"/>
<path d="M19.7432 6.68852L19.7898 6.99258L19.9733 6.51395L19.9374 6.18036L19.7432 6.68852Z" fill="#FFB900"/>
<path d="M24.3345 9.97705L24.124 10.0982L24.0645 10.6848L24.2707 10.5988L24.3345 9.97705Z" fill="#4DFFAA"/>
<path d="M19.937 6.1805L19.9729 6.51409L20.2063 6.10343L20.1842 5.7442L19.937 6.1805Z" fill="#FF8600"/>
<path d="M24.3353 9.32715L24.124 9.48528L24.124 10.0982L24.3346 9.97705L24.3353 9.32715Z" fill="#80FF77"/>
<path d="M20.1846 5.74415L20.2067 6.10338L20.4843 5.7723L20.4787 5.39209L20.1846 5.74415Z" fill="#FF5D00"/>
<path d="M24.2723 8.66626L24.064 8.86217L24.1241 9.4854L24.3354 9.32727L24.2723 8.66626Z" fill="#B7FF40"/>
<path d="M20.4785 5.39219L20.4842 5.7724L20.7989 5.53054L20.8121 5.1347L20.4785 5.39219Z" fill="#FF3800"/>
<path d="M24.1467 8.01172L23.9448 8.24518L24.064 8.86203L24.2724 8.66612L24.1467 8.01172Z" fill="#EBFF0C"/>
<path d="M20.812 5.13471L20.7988 5.53055L21.1425 5.38522L21.1764 4.97961L20.812 5.13471Z" fill="#FF1A00"/>
<path d="M23.9613 7.38177L23.7695 7.65149L23.945 8.24513L24.1468 8.01167L23.9613 7.38177Z" fill="#FFC800"/>
<path d="M21.1764 4.97948L21.1426 5.38509L21.506 5.34096L21.5618 4.93182L21.1764 4.97948Z" fill="#F10800"/>
<path d="M23.7205 6.79401L23.542 7.0976L23.7693 7.65169L23.9611 7.38197L23.7205 6.79401Z" fill="#FF9400"/>
<path d="M21.5617 4.93182L21.5059 5.34096L21.8793 5.39984L21.9577 4.9936L21.5617 4.93182Z" fill="#E80000"/>
<path d="M23.4308 6.26428L23.2686 6.59843L23.5418 7.09755L23.7203 6.79395L23.4308 6.26428Z" fill="#FF6800"/>
<path d="M21.9578 4.99365L21.8794 5.39989L22.2525 5.56064L22.3535 5.1637L21.9578 4.99365Z" fill="#ED0400"/>
<path d="M23.1006 5.80768L22.957 6.16803L23.2689 6.59817L23.4311 6.26403L23.1006 5.80768Z" fill="#FF4300"/>
<path d="M22.3534 5.16357L22.2524 5.56051L22.615 5.81897L22.7379 5.43747L22.3534 5.16357Z" fill="#FA0F00"/>
<path d="M22.7382 5.4375L22.6152 5.81901L22.9571 6.16815L23.1007 5.80779L22.7382 5.4375Z" fill="#FF2200"/>
<path d="M19.7753 10.2331L19.829 10.4014L19.6667 9.78348L19.605 9.58478L19.7753 10.2331Z" fill="#00CCFF"/>
<path d="M19.6049 9.5849L19.6666 9.7836L19.5607 9.14398L19.4937 8.91364L19.6049 9.5849Z" fill="#1FFFD7"/>
<path d="M23.5759 12.4417L23.4539 12.5089L23.1382 12.7846L23.2445 12.731L23.5759 12.4417Z" fill="#0018FF"/>
<path d="M19.4937 8.91364L19.5607 9.14399L19.5143 8.49847L19.4448 8.2359L19.4937 8.91364Z" fill="#5AFF9D"/>
<path d="M23.8676 12.0577L23.7317 12.143L23.4536 12.5088L23.5756 12.4416L23.8676 12.0577Z" fill="#0044FF"/>
<path d="M19.4448 8.23569L19.5143 8.49826L19.5293 7.86306L19.4602 7.56848L19.4448 8.23569Z" fill="#94FF63"/>
<path d="M24.1127 11.5878L23.9649 11.6953L23.7319 12.1431L23.8679 12.0578L24.1127 11.5878Z" fill="#007CFF"/>
<path d="M19.4604 7.56842L19.5295 7.86301L19.606 7.25442L19.5405 6.92883L19.4604 7.56842Z" fill="#CAFF2C"/>
<path d="M24.3036 11.0428L24.1462 11.1762L23.9648 11.6952L24.1127 11.5876L24.3036 11.0428Z" fill="#00B8FF"/>
<path d="M19.5405 6.92895L19.6061 7.25454L19.7429 6.68855L19.6838 6.3338L19.5405 6.92895Z" fill="#FFEA00"/>
<path d="M24.4346 10.4362L24.2705 10.5986L24.146 11.1762L24.3033 11.0428L24.4346 10.4362Z" fill="#0FF8E7"/>
<path d="M19.6836 6.33392L19.7427 6.68867L19.9369 6.1805L19.8872 5.79926L19.6836 6.33392Z" fill="#FFAE00"/>
<path d="M24.5022 9.78314L24.3343 9.97698L24.2705 10.5987L24.4346 10.4362L24.5022 9.78314Z" fill="#49FFAD"/>
<path d="M19.8872 5.79905L19.9369 6.18029L20.1841 5.744L20.1465 5.33966L19.8872 5.79905Z" fill="#FF7A00"/>
<path d="M24.5038 9.10028L24.3352 9.32712L24.3345 9.977L24.5024 9.78316L24.5038 9.10028Z" fill="#80FF77"/>
<path d="M20.1465 5.33986L20.1841 5.74419L20.4782 5.39214L20.4551 4.96887L20.1465 5.33986Z" fill="#FF4A00"/>
<path d="M24.438 8.40558L24.272 8.66614L24.335 9.32715L24.5036 9.10031L24.438 8.40558Z" fill="#BAFF3C"/>
<path d="M20.4551 4.96879L20.4782 5.39206L20.8118 5.13456L20.8052 4.69708L20.4551 4.96879Z" fill="#FF2500"/>
<path d="M24.3067 7.71753L24.1465 8.01159L24.2722 8.66598L24.4382 8.40542L24.3067 7.71753Z" fill="#F1FC06"/>
<path d="M20.8052 4.69716L20.8117 5.13464L21.1761 4.97955L21.1878 4.53308L20.8052 4.69716Z" fill="#F10800"/>
<path d="M24.1123 7.05548L23.9609 7.38188L24.1464 8.01179L24.3066 7.71773L24.1123 7.05548Z" fill="#FFC100"/>
<path d="M21.188 4.53303L21.1763 4.9795L21.5617 4.93184L21.5927 4.48199L21.188 4.53303Z" fill="#DA0000"/>
<path d="M23.8598 6.43707L23.7202 6.7937L23.9609 7.38168L24.1122 7.05528L23.8598 6.43707Z" fill="#FF8900"/>
<path d="M21.5926 4.48187L21.5615 4.93172L21.9575 4.9935L22.0086 4.54599L21.5926 4.48187Z" fill="#CD0000"/>
<path d="M23.5558 5.88049L23.4307 6.26428L23.7202 6.79392L23.8597 6.43729L23.5558 5.88049Z" fill="#FF5900"/>
<path d="M22.0086 4.54602L21.9575 4.99353L22.3532 5.16355L22.4242 4.72414L22.0086 4.54602Z" fill="#D10000"/>
<path d="M23.2087 5.40082L23.1001 5.80793L23.4306 6.26431L23.5558 5.88052L23.2087 5.40082Z" fill="#FF3000"/>
<path d="M22.424 4.7243L22.353 5.16372L22.7375 5.43762L22.8279 5.01178L22.424 4.7243Z" fill="#DF0000"/>
<path d="M22.8277 5.01154L22.7373 5.43737L23.0998 5.80767L23.2085 5.40056L22.8277 5.01154Z" fill="#FA0F00"/>
<path d="M21.8828 1.02917L21.4146 1.1745L21.7449 1.1442L22.1506 1.00653L21.8828 1.02917Z" fill="#9F0000"/>
<path d="M22.1508 1.00635L21.7451 1.14401L22.0854 1.23842L22.4265 1.10486L22.1508 1.00635Z" fill="#960000"/>
<path d="M23.8308 3.89581L23.8169 4.07769L23.9781 4.80527L23.9617 4.60571L23.8308 3.89581Z" fill="#FFAB00"/>
<path d="M22.4266 1.10492L22.0854 1.23848L22.4262 1.45586L22.7028 1.32273L22.4266 1.10492Z" fill="#960000"/>
<path d="M23.6612 3.22772L23.6079 3.39399L23.8167 4.07765L23.8307 3.89577L23.6612 3.22772Z" fill="#FF6C00"/>
<path d="M22.7029 1.32275L22.4263 1.45589L22.7579 1.79078L22.9718 1.65441L22.7029 1.32275Z" fill="#A80000"/>
<path d="M23.4575 2.62054L23.3569 2.77376L23.6078 3.39414L23.6611 3.22787L23.4575 2.62054Z" fill="#FF3400"/>
<path d="M22.9712 1.65454L22.7573 1.79091L23.0706 2.23428L23.2252 2.09114L22.9712 1.65454Z" fill="#C80000"/>
<path d="M23.2254 2.09119L23.0708 2.23433L23.3569 2.77382L23.4575 2.6206L23.2254 2.09119Z" fill="#F10800"/>
<path d="M19.0279 7.07398L19.0826 7.48762L19.0272 6.73518L18.9722 6.31848L19.0279 7.07398Z" fill="#53FFA4"/>
<path d="M18.9722 6.31859L19.0272 6.73529L19.0425 5.99349L18.9873 5.57361L18.9722 6.31859Z" fill="#97FF60"/>
<path d="M18.9873 5.57363L19.0425 5.99352L19.129 5.28131L19.0737 4.85822L18.9873 5.57363Z" fill="#D7FF1F"/>
<path d="M19.0737 4.85811L19.129 5.2812L19.2854 4.61731L19.2301 4.19104L19.0737 4.85811Z" fill="#FFD000"/>
<path d="M19.23 4.19115L19.2852 4.61742L19.5082 4.01982L19.4532 3.59052L19.23 4.19115Z" fill="#FF8D00"/>
<path d="M19.4531 3.59034L19.5081 4.01965L19.7928 3.50495L19.7382 3.07281L19.4531 3.59034Z" fill="#FF4E00"/>
<path d="M19.7383 3.07307L19.7929 3.50521L20.1325 3.08821L20.0783 2.65356L19.7383 3.07307Z" fill="#FF1A00"/>
<path d="M20.0786 2.65348L20.1328 3.08813L20.5186 2.78127L20.465 2.34448L20.0786 2.65348Z" fill="#D10000"/>
<path d="M24.3423 5.68689L24.433 6.56429L24.5763 7.32448L24.4877 6.45525L24.3423 5.68689Z" fill="#FFE600"/>
<path d="M20.4648 2.34459L20.5184 2.78138L20.9405 2.59419L20.8876 2.1557L20.4648 2.34459Z" fill="#A80000"/>
<path d="M24.127 4.94739L24.1733 5.38068L24.388 6.11737L24.3422 5.68682L24.127 4.94739Z" fill="#FF9F00"/>
<path d="M20.8877 2.1556L20.9406 2.59409L21.3875 2.53281L21.3354 2.09308L20.8877 2.1556Z" fill="#8D0000"/>
<path d="M23.8472 4.25763L23.8942 4.69329L24.1732 5.38068L24.1268 4.94739L23.8472 4.25763Z" fill="#FF6000"/>
<path d="M21.335 2.0932L21.3871 2.53294L21.8467 2.6002L21.7954 2.1598L21.335 2.0932Z" fill="#800000"/>
<path d="M23.5103 3.63721L23.5581 4.07483L23.8941 4.69344L23.847 4.25778L23.5103 3.63721Z" fill="#FF2900"/>
<path d="M21.7959 2.15967L21.8472 2.60007L22.3067 2.79472L22.2563 2.35417L21.7959 2.15967Z" fill="#800000"/>
<path d="M23.1255 3.10345L23.1741 3.54258L23.558 4.07482L23.5102 3.63719L23.1255 3.10345Z" fill="#DF0000"/>
<path d="M22.2563 2.35413L22.3068 2.79467L22.7534 3.11171L22.7038 2.6716L22.2563 2.35413Z" fill="#920000"/>
<path d="M22.7036 2.67169L22.7531 3.1118L23.1743 3.54252L23.1256 3.10339L22.7036 2.67169Z" fill="#B20000"/>
<path d="M24.2441 5.33057L24.3417 5.68693L24.4872 6.45529L24.3843 6.09846L24.2441 5.33057Z" fill="#FFE600"/>
<path d="M21.103 1.32736L20.7368 1.58665L21.1004 1.42046L21.4145 1.17426L21.103 1.32736Z" fill="#B20000"/>
<path d="M21.4148 1.17453L21.1006 1.42074L21.486 1.37959L21.7452 1.14423L21.4148 1.17453Z" fill="#960000"/>
<path d="M21.745 1.14417L21.4858 1.37953L21.8826 1.46563L22.0853 1.23858L21.745 1.14417Z" fill="#890000"/>
<path d="M22.0855 1.23834L21.8828 1.46539L22.2799 1.67716L22.4262 1.45572L22.0855 1.23834Z" fill="#890000"/>
<path d="M23.3569 2.77368L23.3637 2.99527L23.6555 3.62116L23.6078 3.39406L23.3569 2.77368Z" fill="#FF2D00"/>
<path d="M22.4261 1.45599L22.2798 1.67744L22.6662 2.00956L22.7577 1.79089L22.4261 1.45599Z" fill="#9B0000"/>
<path d="M23.0708 2.23419L23.0308 2.45292L23.3637 2.99528L23.3569 2.77369L23.0708 2.23419Z" fill="#E80000"/>
<path d="M22.7576 1.79089L22.666 2.00956L23.0308 2.45299L23.0709 2.23426L22.7576 1.79089Z" fill="#BB0000"/>
<path d="M23.6079 3.39417L23.6556 3.62127L23.8982 4.3129L23.8167 4.07782L23.6079 3.39417Z" fill="#FF6400"/>
<path d="M20.4047 1.87239L20.1494 2.23986L20.5199 1.93874L20.7367 1.58691L20.4047 1.87239Z" fill="#D10000"/>
<path d="M20.7368 1.58686L20.52 1.93869L20.9255 1.7576L21.1004 1.42065L20.7368 1.58686Z" fill="#A80000"/>
<path d="M21.1002 1.42072L20.9253 1.75767L21.3549 1.70271L21.4856 1.37958L21.1002 1.42072Z" fill="#8D0000"/>
<path d="M21.4857 1.37939L21.355 1.70253L21.7969 1.77621L21.8825 1.46551L21.4857 1.37939Z" fill="#800000"/>
<path d="M21.8824 1.46552L21.7969 1.77622L22.239 1.97726L22.2796 1.67728L21.8824 1.46552Z" fill="#840000"/>
<path d="M23.3638 2.99536L23.4443 3.27515L23.7681 3.89876L23.6556 3.62127L23.3638 2.99536Z" fill="#FF2900"/>
<path d="M22.2799 1.67731L22.2393 1.97729L22.6691 2.30057L22.6662 2.00943L22.2799 1.67731Z" fill="#920000"/>
<path d="M23.0308 2.45294L23.0743 2.73731L23.4442 3.2751L23.3637 2.9953L23.0308 2.45294Z" fill="#DF0000"/>
<path d="M22.666 2.00934L22.6689 2.30048L23.0744 2.73715L23.0308 2.45278L22.666 2.00934Z" fill="#B20000"/>
<path d="M20.113 2.26801L19.8237 2.65142L20.1496 2.23972L20.4049 1.87225L20.113 2.26801Z" fill="#FF1A00"/>
<path d="M19.3365 3.75508L19.23 4.19103L19.4532 3.59039L19.5504 3.16144L19.3365 3.75508Z" fill="#FF8D00"/>
<path d="M19.5502 3.16153L19.4531 3.59049L19.7382 3.07299L19.8234 2.65149L19.5502 3.16153Z" fill="#FF4E00"/>
<path d="M19.8235 2.65151L19.7383 3.07301L20.0783 2.65351L20.1494 2.23981L19.8235 2.65151Z" fill="#FF1600"/>
<path d="M20.1492 2.23971L20.0781 2.65341L20.4645 2.34441L20.5197 1.9386L20.1492 2.23971Z" fill="#D10000"/>
<path d="M20.52 1.9386L20.4648 2.34441L20.8875 2.15551L20.9254 1.75751L20.52 1.9386Z" fill="#A40000"/>
<path d="M20.9255 1.75771L20.8877 2.15572L21.3354 2.09322L21.3551 1.70276L20.9255 1.75771Z" fill="#890000"/>
<path d="M23.7681 3.89874L23.8471 4.25777L24.1268 4.94753L24.0372 4.59041L23.7681 3.89874Z" fill="#FF6000"/>
<path d="M21.3551 1.70251L21.3354 2.09298L21.7959 2.15956L21.7971 1.7762L21.3551 1.70251Z" fill="#800000"/>
<path d="M23.4443 3.27515L23.5105 3.63718L23.8473 4.25778L23.7682 3.89876L23.4443 3.27515Z" fill="#FF2900"/>
<path d="M21.7971 1.77618L21.7959 2.15954L22.2563 2.35406L22.2392 1.97723L21.7971 1.77618Z" fill="#800000"/>
<path d="M23.0742 2.73737L23.1255 3.10341L23.5102 3.63715L23.444 3.27512L23.0742 2.73737Z" fill="#DF0000"/>
<path d="M22.2388 1.97736L22.2559 2.35418L22.7034 2.67165L22.6686 2.30063L22.2388 1.97736Z" fill="#920000"/>
<path d="M22.6689 2.30072L22.7038 2.67174L23.1258 3.10344L23.0745 2.73739L22.6689 2.30072Z" fill="#B20000"/>
<path d="M26.4226 6.71362L25.7769 6.70825L25.7878 7.19373L26.447 7.16759L26.4226 6.71362Z" fill="#23FFD4"/>
<path d="M26.4136 6.22523L25.7739 6.18384L25.7771 6.70839L26.4228 6.71375L26.4136 6.22523Z" fill="#53FFA4"/>
<path d="M26.4198 5.7146L25.7787 5.63361L25.7739 6.18367L26.4136 6.22507L26.4198 5.7146Z" fill="#80FF77"/>
<path d="M26.4414 5.1956L25.7915 5.07251L25.7788 5.63359L26.4199 5.71458L26.4414 5.1956Z" fill="#ADFF49"/>
<path d="M26.478 4.68212L25.8118 4.51562L25.7915 5.07269L26.4414 5.19578L26.478 4.68212Z" fill="#DBFF1C"/>
<path d="M26.5282 4.18766L25.8389 3.97772L25.8115 4.51562L26.4777 4.68211L26.5282 4.18766Z" fill="#FFE200"/>
<path d="M27.1263 2.24979L26.1504 1.83124L26.1016 1.89725L27.0308 2.30269L27.1263 2.24979Z" fill="#FF3800"/>
<path d="M26.5915 3.72587L25.8727 3.47369L25.8389 3.97767L26.5282 4.18761L26.5915 3.72587Z" fill="#FFB600"/>
<path d="M27.0306 2.30265L26.1013 1.89722L26.0518 2.05409L26.9342 2.43973L27.0306 2.30265Z" fill="#FF3800"/>
<path d="M26.6662 3.30947L25.9124 3.01752L25.873 3.47361L26.5918 3.72579L26.6662 3.30947Z" fill="#FF9100"/>
<path d="M26.9343 2.43966L26.0519 2.05402L26.0029 2.29776L26.8397 2.65742L26.9343 2.43966Z" fill="#FF4300"/>
<path d="M26.7494 2.94996L25.9559 2.62183L25.9121 3.01741L26.6659 3.30936L26.7494 2.94996Z" fill="#FF6F00"/>
<path d="M26.8399 2.65751L26.0031 2.29785L25.9561 2.62194L26.7496 2.95007L26.8399 2.65751Z" fill="#FF5500"/>
<path d="M27.0791 6.76766L26.4224 6.71381L26.4467 7.16779L27.114 7.19012L27.0791 6.76766Z" fill="#2CFFCA"/>
<path d="M27.0651 6.31514L26.4131 6.22522L26.4223 6.71373L27.0791 6.76759L27.0651 6.31514Z" fill="#56FFA0"/>
<path d="M27.0724 5.84437L26.4193 5.71478L26.4131 6.22523L27.0651 6.31515L27.0724 5.84437Z" fill="#80FF77"/>
<path d="M27.1012 5.36758L26.441 5.1958L26.4194 5.71477L27.0726 5.84436L27.1012 5.36758Z" fill="#AAFF4D"/>
<path d="M27.1505 4.89738L26.4774 4.68207L26.4409 5.19572L27.1011 5.3675L27.1505 4.89738Z" fill="#D4FF23"/>
<path d="M27.2194 4.44662L26.5281 4.18768L26.4775 4.68215L27.1506 4.89746L27.2194 4.44662Z" fill="#FBF100"/>
<path d="M28.1722 2.75927L27.218 2.28217L27.126 2.24982L28.0441 2.72021L28.1722 2.75927Z" fill="#FF5500"/>
<path d="M27.3058 4.02729L26.5911 3.72589L26.5278 4.18765L27.2192 4.44658L27.3058 4.02729Z" fill="#FFC400"/>
<path d="M28.0444 2.72027L27.1263 2.24988L27.0308 2.30279L27.9118 2.75951L28.0444 2.72027Z" fill="#FF4E00"/>
<path d="M27.408 3.65105L26.6657 3.30957L26.5913 3.7259L27.3059 4.0273L27.408 3.65105Z" fill="#FFA300"/>
<path d="M27.9115 2.75958L27.0305 2.30286L26.9341 2.43994L27.778 2.87635L27.9115 2.75958Z" fill="#FF5200"/>
<path d="M27.5231 3.32827L26.7495 2.95026L26.666 3.30966L27.4083 3.65114L27.5231 3.32827Z" fill="#FF8200"/>
<path d="M27.7784 2.87629L26.9345 2.43988L26.8398 2.65763L27.6477 3.06757L27.7784 2.87629Z" fill="#FF5900"/>
<path d="M27.6471 3.0676L26.8393 2.65765L26.749 2.95024L27.5227 3.32825L27.6471 3.0676Z" fill="#FF6C00"/>
<path d="M27.6923 6.8636L27.0796 6.76752L27.1144 7.18997L27.7349 7.25516L27.6923 6.8636Z" fill="#33FFC4"/>
<path d="M27.6747 6.44664L27.0654 6.31525L27.0795 6.7677L27.6922 6.86378L27.6747 6.44664Z" fill="#5AFF9D"/>
<path d="M27.6828 6.01461L27.0728 5.84442L27.0654 6.31522L27.6747 6.44661L27.6828 6.01461Z" fill="#80FF77"/>
<path d="M27.7165 5.57884L27.1014 5.36743L27.0728 5.84421L27.6828 6.0144L27.7165 5.57884Z" fill="#A7FF50"/>
<path d="M27.7753 5.15144L27.1509 4.89752L27.1016 5.36766L27.7167 5.57906L27.7753 5.15144Z" fill="#CEFF29"/>
<path d="M27.8574 4.74311L27.2197 4.44659L27.1509 4.89743L27.7753 5.15135L27.8574 4.74311Z" fill="#F1FC06"/>
<path d="M27.961 4.36515L27.3063 4.02716L27.2197 4.44644L27.8574 4.74295L27.961 4.36515Z" fill="#FFD700"/>
<path d="M29.0026 3.26962L28.1725 2.75917L28.0444 2.72009L28.8479 3.22378L29.0026 3.26962Z" fill="#FF6F00"/>
<path d="M28.083 4.0282L27.4082 3.65106L27.3062 4.02731L27.9608 4.3653L28.083 4.0282Z" fill="#FFB600"/>
<path d="M28.8477 3.22396L28.0442 2.72028L27.9116 2.75952L28.6879 3.24969L28.8477 3.22396Z" fill="#FF6800"/>
<path d="M28.2207 3.74092L27.523 3.32806L27.4082 3.65094L28.083 4.02808L28.2207 3.74092Z" fill="#FF9800"/>
<path d="M28.688 3.24968L27.9118 2.75952L27.7783 2.87629L28.5274 3.34642L28.688 3.24968Z" fill="#FF6C00"/>
<path d="M28.37 3.51178L27.6474 3.06763L27.5229 3.32826L28.2206 3.74112L28.37 3.51178Z" fill="#FF8200"/>
<path d="M28.5273 3.34648L27.7782 2.87634L27.6475 3.06761L28.3701 3.51177L28.5273 3.34648Z" fill="#FF7300"/>
<path d="M28.2052 6.99422L27.6919 6.86359L27.7345 7.25515L28.2529 7.35618L28.2052 6.99422Z" fill="#39FFBE"/>
<path d="M28.1852 6.61077L27.6743 6.44641L27.6919 6.86355L28.2052 6.99418L28.1852 6.61077Z" fill="#5AFF9D"/>
<path d="M28.1937 6.21574L27.6824 6.0144L27.6743 6.4464L28.1852 6.61075L28.1937 6.21574Z" fill="#80FF77"/>
<path d="M28.2308 5.81954L27.7164 5.57898L27.6826 6.01455L28.1939 6.21589L28.2308 5.81954Z" fill="#A4FF53"/>
<path d="M28.2953 5.43233L27.775 5.15137L27.7163 5.57899L28.2307 5.81956L28.2953 5.43233Z" fill="#C7FF30"/>
<path d="M28.3858 5.06444L27.857 4.74304L27.7749 5.15128L28.2952 5.43224L28.3858 5.06444Z" fill="#E7FF0F"/>
<path d="M28.5001 4.72605L27.9605 4.3653L27.8569 4.7431L28.3858 5.0645L28.5001 4.72605Z" fill="#FFE600"/>
<path d="M28.6354 4.42609L28.0827 4.0282L27.9604 4.36529L28.5002 4.72605L28.6354 4.42609Z" fill="#FFC400"/>
<path d="M29.6564 3.79411L29.0023 3.26979L28.8477 3.22394L29.4843 3.74181L29.6564 3.79411Z" fill="#FF8600"/>
<path d="M28.7882 4.17267L28.2207 3.74091L28.083 4.02806L28.6357 4.42595L28.7882 4.17267Z" fill="#FFAB00"/>
<path d="M29.4839 3.74181L28.8473 3.22394L28.6875 3.24965L29.3062 3.7547L29.4839 3.74181Z" fill="#FF8200"/>
<path d="M28.9538 3.97301L28.3702 3.5116L28.2207 3.74095L28.7882 4.17271L28.9538 3.97301Z" fill="#FF9800"/>
<path d="M29.3067 3.75456L28.688 3.24951L28.5273 3.34627L29.1283 3.83233L29.3067 3.75456Z" fill="#FF8200"/>
<path d="M29.1277 3.83255L28.5268 3.3465L28.3696 3.51178L28.9533 3.97319L29.1277 3.83255Z" fill="#FF8900"/>
<path d="M28.569 7.15086L28.2056 6.99414L28.2533 7.35611L28.6196 7.48526L28.569 7.15086Z" fill="#3CFFBA"/>
<path d="M28.5474 6.79888L28.1855 6.61084L28.2055 6.99425L28.5689 7.15098L28.5474 6.79888Z" fill="#5DFF9A"/>
<path d="M28.5559 6.43823L28.194 6.21594L28.1855 6.61097L28.5474 6.79901L28.5559 6.43823Z" fill="#80FF77"/>
<path d="M28.5941 6.07787L28.2308 5.81934L28.1938 6.21567L28.5557 6.43795L28.5941 6.07787Z" fill="#A0FF56"/>
<path d="M28.6616 5.72792L28.2955 5.43213L28.231 5.81936L28.5942 6.07789L28.6616 5.72792Z" fill="#C1FF36"/>
<path d="M28.7564 5.39765L28.386 5.06458L28.2954 5.43236L28.6615 5.72815L28.7564 5.39765Z" fill="#DEFF19"/>
<path d="M28.876 5.09536L28.5001 4.72607L28.3857 5.06452L28.7561 5.3976L28.876 5.09536Z" fill="#FBF100"/>
<path d="M29.0182 4.82953L28.6357 4.42609L28.5005 4.72604L28.8764 5.09533L29.0182 4.82953Z" fill="#FFD700"/>
<path d="M30.2637 4.42899L29.8183 3.90985L29.6562 3.79401L30.0924 4.31335L30.2637 4.42899Z" fill="#FFA700"/>
<path d="M29.1783 4.60729L28.7882 4.17273L28.6357 4.42601L29.0182 4.82945L29.1783 4.60729Z" fill="#FFC100"/>
<path d="M30.0927 4.31338L29.6566 3.79403L29.4844 3.74176L29.911 4.2553L30.0927 4.31338Z" fill="#FF9C00"/>
<path d="M29.3523 4.43475L28.9537 3.97296L28.7881 4.17265L29.1782 4.60721L29.3523 4.43475Z" fill="#FFAE00"/>
<path d="M29.911 4.2553L29.4844 3.74176L29.3066 3.75463L29.7237 4.25644L29.911 4.2553Z" fill="#FF9800"/>
<path d="M29.5361 4.31687L29.1285 3.83246L28.9541 3.97309L29.3527 4.43488L29.5361 4.31687Z" fill="#FF9F00"/>
<path d="M29.724 4.25645L29.3069 3.75464L29.1284 3.83242L29.536 4.31683L29.724 4.25645Z" fill="#FF9800"/>
<path d="M28.742 7.32542L28.5688 7.15112L28.6196 7.4855L28.7939 7.635L28.742 7.32542Z" fill="#43FFB4"/>
<path d="M28.7197 7.00121L28.5474 6.79883L28.5688 7.15092L28.742 7.32521L28.7197 7.00121Z" fill="#60FF97"/>
<path d="M28.7278 6.67119L28.5558 6.43817L28.5474 6.79896L28.7197 7.00134L28.7278 6.67119Z" fill="#7DFF7A"/>
<path d="M28.766 6.34347L28.594 6.07806L28.5557 6.43816L28.7276 6.67118L28.766 6.34347Z" fill="#9DFF5A"/>
<path d="M28.8339 6.02675L28.6617 5.72809L28.5942 6.07804L28.7662 6.34344L28.8339 6.02675Z" fill="#BAFF3C"/>
<path d="M28.9295 5.72938L28.7565 5.39752L28.6616 5.72805L28.8339 6.02671L28.9295 5.72938Z" fill="#D4FF23"/>
<path d="M29.0508 5.45948L28.8767 5.0954L28.7568 5.39764L28.9298 5.7295L29.0508 5.45948Z" fill="#EEFF09"/>
<path d="M30.756 5.29943L30.5576 4.81854L30.4204 4.599L30.6161 5.09055L30.756 5.29943Z" fill="#FFDE00"/>
<path d="M29.1938 5.22395L29.0183 4.82947L28.8765 5.09528L29.0506 5.45936L29.1938 5.22395Z" fill="#FFE600"/>
<path d="M30.6161 5.09045L30.4204 4.5989L30.2642 4.42896L30.457 4.92608L30.6161 5.09045Z" fill="#FFCC00"/>
<path d="M29.3559 5.0295L29.1786 4.60736L29.0186 4.82952L29.1941 5.224L29.3559 5.0295Z" fill="#FFD000"/>
<path d="M30.4569 4.92606L30.264 4.42893L30.0928 4.31329L30.2827 4.81068L30.4569 4.92606Z" fill="#FFB900"/>
<path d="M29.5322 4.88123L29.3528 4.43488L29.1787 4.60732L29.356 5.02946L29.5322 4.88123Z" fill="#FFC100"/>
<path d="M30.2828 4.81072L30.0928 4.31333L29.9111 4.25525L30.0982 4.74752L30.2828 4.81072Z" fill="#FFB200"/>
<path d="M29.7177 4.78327L29.536 4.31683L29.3525 4.43486L29.5319 4.88121L29.7177 4.78327Z" fill="#FFB200"/>
<path d="M30.0985 4.74746L29.9114 4.25519L29.7241 4.25632L29.9084 4.73819L30.0985 4.74746Z" fill="#FFAB00"/>
<path d="M29.9078 4.73822L29.7236 4.25635L29.5356 4.31674L29.7174 4.78317L29.9078 4.73822Z" fill="#FFAE00"/>
<path d="M28.8813 6.04817L28.9296 5.72931L28.834 6.02664L28.7876 6.31709L28.8813 6.04817Z" fill="#CEFF29"/>
<path d="M30.9111 7.72563L30.9799 7.42989L31.0366 7.11011L30.9663 7.43315L30.9111 7.72563Z" fill="#50FFA7"/>
<path d="M30.9663 7.43319L31.0365 7.11015L31.0637 6.78149L30.9923 7.13101L30.9663 7.43319Z" fill="#6AFF8D"/>
<path d="M30.9927 7.13093L31.0641 6.78142L31.0611 6.45233L30.9888 6.82684L30.9927 7.13093Z" fill="#87FF70"/>
<path d="M30.9886 6.82695L31.0609 6.45244L31.0274 6.13147L30.9546 6.52881L30.9886 6.82695Z" fill="#A0FF56"/>
<path d="M30.9549 6.52868L31.0277 6.13134L30.9646 5.8269L30.8916 6.24439L30.9549 6.52868Z" fill="#BEFF39"/>
<path d="M30.8913 6.24435L30.9643 5.82686L30.8731 5.54706L30.8003 5.98139L30.8913 6.24435Z" fill="#D4FF23"/>
<path d="M29.0001 5.80596L29.0506 5.45947L28.9297 5.72948L28.8813 6.04834L29.0001 5.80596Z" fill="#E4FF13"/>
<path d="M30.8005 5.9814L30.8734 5.54706L30.7563 5.29938L30.6841 5.74683L30.8005 5.9814Z" fill="#EBFF0C"/>
<path d="M29.1408 5.59649L29.1938 5.224L29.0505 5.45944L29 5.80592L29.1408 5.59649Z" fill="#F8F500"/>
<path d="M30.6838 5.74703L30.756 5.29958L30.6161 5.0907L30.5449 5.54717L30.6838 5.74703Z" fill="#FEED00"/>
<path d="M29.2999 5.42566L29.3555 5.02942L29.1936 5.22391L29.1406 5.5964L29.2999 5.42566Z" fill="#FFDE00"/>
<path d="M30.5449 5.54706L30.6161 5.09059L30.457 4.92621L30.3872 5.38733L30.5449 5.54706Z" fill="#FFDB00"/>
<path d="M29.4738 5.29825L29.532 4.88123L29.3559 5.02946L29.3003 5.42571L29.4738 5.29825Z" fill="#FFD000"/>
<path d="M30.3872 5.38723L30.457 4.92611L30.2828 4.81073L30.2148 5.27191L30.3872 5.38723Z" fill="#FFCC00"/>
<path d="M29.6568 5.21763L29.7177 4.78333L29.5319 4.88126L29.4736 5.29828L29.6568 5.21763Z" fill="#FFC400"/>
<path d="M30.2147 5.27193L30.2827 4.81076L30.0981 4.74756L30.0322 5.20423L30.2147 5.27193Z" fill="#FFC400"/>
<path d="M29.8447 5.18612L29.9082 4.73846L29.7177 4.78341L29.6567 5.21772L29.8447 5.18612Z" fill="#FFC100"/>
<path d="M30.0324 5.20433L30.0983 4.74766L29.9082 4.7384L29.8447 5.18606L30.0324 5.20433Z" fill="#FFBD00"/>
<path d="M29.9629 8.98152L30.2745 8.80163L30.4396 8.65741L30.1228 8.85522L29.9629 8.98152Z" fill="#00D4FF"/>
<path d="M30.1226 8.85524L30.4394 8.65743L30.5892 8.47272L30.2675 8.69032L30.1226 8.85524Z" fill="#00E4F8"/>
<path d="M30.2676 8.69027L30.5893 8.47267L30.72 8.25201L30.3938 8.4908L30.2676 8.69027Z" fill="#0FF8E7"/>
<path d="M30.394 8.49087L30.7202 8.25208L30.8284 8.00098L30.4984 8.26182L30.394 8.49087Z" fill="#26FFD1"/>
<path d="M30.498 8.2617L30.828 8.00085L30.9109 7.72559L30.5777 8.00882L30.498 8.2617Z" fill="#3CFFBA"/>
<path d="M30.5776 8.00881L30.9108 7.72558L30.966 7.43311L30.6304 7.73849L30.5776 8.00881Z" fill="#53FFA4"/>
<path d="M30.6304 7.73862L30.966 7.43323L30.9921 7.13104L30.6547 7.45785L30.6304 7.73862Z" fill="#6DFF8A"/>
<path d="M30.6547 7.45776L30.992 7.13096L30.9881 6.82684L30.6499 7.17376L30.6547 7.45776Z" fill="#87FF70"/>
<path d="M30.6501 7.17368L30.9883 6.82676L30.9543 6.52863L30.6162 6.89381L30.6501 7.17368Z" fill="#A0FF56"/>
<path d="M30.616 6.89399L30.9541 6.52881L30.8908 6.24451L30.5537 6.62567L30.616 6.89399Z" fill="#B7FF40"/>
<path d="M30.5539 6.62549L30.891 6.24433L30.8 5.98138L30.4648 6.37584L30.5539 6.62549Z" fill="#CEFF29"/>
<path d="M30.4648 6.37584L30.8 5.98139L30.6835 5.74683L30.3511 6.15145L30.4648 6.37584Z" fill="#E4FF13"/>
<path d="M29.0092 5.78485L29.2999 5.4256L29.1407 5.59635L28.8555 5.93607L29.0092 5.78485Z" fill="#FEED00"/>
<path d="M30.3511 6.15161L30.6836 5.74698L30.5447 5.54712L30.2158 5.95853L30.3511 6.15161Z" fill="#F4F802"/>
<path d="M29.1769 5.67479L29.4734 5.29834L29.3 5.42579L29.0093 5.78504L29.1769 5.67479Z" fill="#FFDE00"/>
<path d="M30.2159 5.95856L30.5448 5.54714L30.3871 5.38739L30.0625 5.80204L30.2159 5.95856Z" fill="#FFE600"/>
<path d="M29.3539 5.60861L29.6564 5.21771L29.4733 5.29836L29.1768 5.67481L29.3539 5.60861Z" fill="#FFD300"/>
<path d="M30.0625 5.80193L30.3871 5.38728L30.2147 5.27197L29.895 5.68616L30.0625 5.80193Z" fill="#FFDB00"/>
<path d="M29.536 5.58808L29.8444 5.18591L29.6565 5.21754L29.354 5.60843L29.536 5.58808Z" fill="#FFD000"/>
<path d="M29.8948 5.68607L30.2145 5.27188L30.032 5.20416L29.7178 5.61413L29.8948 5.68607Z" fill="#FFD000"/>
<path d="M29.7181 5.61435L30.0323 5.20438L29.8446 5.1861L29.5361 5.58826L29.7181 5.61435Z" fill="#FFCC00"/>
<path d="M29.2593 9.24362L29.7923 9.06592L29.963 8.98132L29.4227 9.17158L29.2593 9.24362Z" fill="#00D0FF"/>
<path d="M29.4229 9.17166L29.9631 8.9814L30.123 8.8551L29.5757 9.05953L29.4229 9.17166Z" fill="#00DCFE"/>
<path d="M29.5757 9.05953L30.1229 8.8551L30.2679 8.69019L29.7142 8.91005L29.5757 9.05953Z" fill="#06ECF1"/>
<path d="M29.7144 8.91011L30.2681 8.69025L30.3943 8.49078L29.8349 8.72696L29.7144 8.91011Z" fill="#19FFDE"/>
<path d="M29.8345 8.72694L30.394 8.49077L30.4983 8.26172L29.9338 8.51468L29.8345 8.72694Z" fill="#29FFCE"/>
<path d="M29.9341 8.5145L30.4986 8.26155L30.5782 8.00867L30.0096 8.27847L29.9341 8.5145Z" fill="#40FFB7"/>
<path d="M30.0098 8.27875L30.5783 8.00894L30.631 7.73865L30.0595 8.02494L30.0098 8.27875Z" fill="#56FFA0"/>
<path d="M30.0591 8.02472L30.6306 7.73842L30.655 7.45764L30.0815 7.75965L30.0591 8.02472Z" fill="#6DFF8A"/>
<path d="M30.0817 7.75973L30.6551 7.45772L30.6504 7.17371L30.0762 7.49028L30.0817 7.75973Z" fill="#87FF70"/>
<path d="M30.0764 7.49041L30.6506 7.17383L30.6167 6.89398L30.043 7.22359L30.0764 7.49041Z" fill="#9DFF5A"/>
<path d="M30.0425 7.22341L30.6163 6.89381L30.554 6.62549L29.9819 6.96625L30.0425 7.22341Z" fill="#B4FF43"/>
<path d="M29.9822 6.96617L30.5543 6.62541L30.4652 6.37573L29.896 6.72551L29.9822 6.96617Z" fill="#CAFF2C"/>
<path d="M29.8959 6.72576L30.4651 6.37599L30.3514 6.15161L29.7861 6.50798L29.8959 6.72576Z" fill="#DEFF19"/>
<path d="M29.7861 6.50785L30.3513 6.15149L30.216 5.95844L29.6558 6.31876L29.7861 6.50785Z" fill="#EEFF09"/>
<path d="M28.8295 5.94783L29.3544 5.6084L29.1772 5.67462L28.6602 6.00235L28.8295 5.94783Z" fill="#FFDE00"/>
<path d="M29.6558 6.31892L30.216 5.95859L30.0626 5.80206L29.5083 6.16366L29.6558 6.31892Z" fill="#FBF100"/>
<path d="M29.0037 5.93686L29.5364 5.58801L29.3545 5.60837L28.8296 5.9478L29.0037 5.93686Z" fill="#FFDB00"/>
<path d="M29.5084 6.16341L30.0627 5.80182L29.8953 5.68604L29.3477 6.04613L29.5084 6.16341Z" fill="#FFE600"/>
<path d="M29.1777 5.97013L29.7181 5.61431L29.5361 5.5882L29.0034 5.93705L29.1777 5.97013Z" fill="#FFD700"/>
<path d="M29.3475 6.04608L29.8952 5.68598L29.7181 5.61407L29.1777 5.96989L29.3475 6.04608Z" fill="#FFDB00"/>
<path d="M28.5371 9.43698L29.259 9.24367L29.4224 9.17163L28.6924 9.37469L28.5371 9.43698Z" fill="#00D8FF"/>
<path d="M28.6929 9.37481L29.4228 9.17176L29.5757 9.05963L28.8381 9.27324L28.6929 9.37481Z" fill="#00E4F8"/>
<path d="M28.8379 9.27313L29.5755 9.05952L29.714 8.91003L28.9693 9.13473L28.8379 9.27313Z" fill="#0CF4EB"/>
<path d="M28.9692 9.13472L29.714 8.91002L29.8345 8.72687L29.0834 8.96291L28.9692 9.13472Z" fill="#1CFFDB"/>
<path d="M29.0835 8.96308L29.8346 8.72704L29.934 8.51477L29.1774 8.76213L29.0835 8.96308Z" fill="#2CFFCA"/>
<path d="M29.1772 8.7619L29.9338 8.51453L30.0094 8.2785L29.2484 8.53688L29.1772 8.7619Z" fill="#43FFB4"/>
<path d="M29.248 8.53714L30.009 8.27876L30.0587 8.02496L29.2945 8.29376L29.248 8.53714Z" fill="#56FFA0"/>
<path d="M29.2949 8.29381L30.0591 8.02501L30.0816 7.75995L29.3154 8.03834L29.2949 8.29381Z" fill="#6DFF8A"/>
<path d="M29.3153 8.03802L30.0815 7.75963L30.0759 7.49017L29.3091 7.77707L29.3153 8.03802Z" fill="#83FF73"/>
<path d="M29.3091 7.7771L30.076 7.49021L30.0426 7.22339L29.2764 7.51751L29.3091 7.7771Z" fill="#9AFF5D"/>
<path d="M29.2764 7.51759L30.0426 7.22347L29.982 6.96631L29.2178 7.26615L29.2764 7.51759Z" fill="#B1FF46"/>
<path d="M29.2177 7.26617L29.9819 6.96633L29.8957 6.72565L29.1348 7.02959L29.2177 7.26617Z" fill="#C4FF33"/>
<path d="M29.135 7.02949L29.8959 6.72554L29.7862 6.50775L29.0298 6.81407L29.135 7.02949Z" fill="#D7FF1F"/>
<path d="M28.1174 6.23135L28.8291 5.94806L28.6597 6.00259L27.9565 6.27667L28.1174 6.23135Z" fill="#FFE600"/>
<path d="M29.03 6.81423L29.7864 6.50792L29.656 6.31885L28.9053 6.62571L29.03 6.81423Z" fill="#E7FF0F"/>
<path d="M28.2832 6.22818L29.0035 5.93695L28.8294 5.94787L28.1177 6.23116L28.2832 6.22818Z" fill="#FFE200"/>
<path d="M28.9051 6.62583L29.6558 6.31896L29.5083 6.1637L28.7642 6.46929L28.9051 6.62583Z" fill="#F4F802"/>
<path d="M28.4486 6.26774L29.1773 5.97006L29.003 5.93701L28.2827 6.22824L28.4486 6.26774Z" fill="#FFE200"/>
<path d="M28.7637 6.46915L29.5079 6.16356L29.3471 6.04626L28.6104 6.34879L28.7637 6.46915Z" fill="#FEED00"/>
<path d="M28.611 6.34868L29.3477 6.04616L29.178 5.96997L28.4492 6.26764L28.611 6.34868Z" fill="#FFE200"/>
<path d="M27.6768 9.64932L28.5375 9.43699L28.6928 9.37469L27.8237 9.59427L27.6768 9.64932Z" fill="#00DCFE"/>
<path d="M27.8237 9.59447L28.6929 9.37489L28.8381 9.27332L27.961 9.50005L27.8237 9.59447Z" fill="#02E8F4"/>
<path d="M27.9609 9.49996L28.838 9.27322L28.9694 9.13483L28.085 9.36844L27.9609 9.49996Z" fill="#0FF8E7"/>
<path d="M28.085 9.36844L28.9694 9.13482L29.0835 8.96301L28.1925 9.20306L28.085 9.36844Z" fill="#1FFFD7"/>
<path d="M28.1929 9.20289L29.0839 8.96285L29.1778 8.7619L28.2812 9.00776L28.1929 9.20289Z" fill="#30FFC7"/>
<path d="M28.2808 9.0078L29.1774 8.76195L29.2485 8.53693L28.3474 8.78782L28.2808 9.0078Z" fill="#43FFB4"/>
<path d="M28.3477 8.78791L29.2488 8.53701L29.2953 8.29364L28.3909 8.54869L28.3477 8.78791Z" fill="#5AFF9D"/>
<path d="M28.3906 8.54867L29.295 8.29362L29.3155 8.03815L28.4091 8.29635L28.3906 8.54867Z" fill="#6DFF8A"/>
<path d="M28.4091 8.29638L29.3155 8.03817L29.3093 7.77722L28.4023 8.03752L28.4091 8.29638Z" fill="#83FF73"/>
<path d="M28.4026 8.03742L29.3096 7.77712L29.2768 7.51752L28.3706 7.77879L28.4026 8.03742Z" fill="#9AFF5D"/>
<path d="M28.3704 7.77881L29.2767 7.51754L29.2181 7.26611L28.314 7.52723L28.3704 7.77881Z" fill="#B1FF46"/>
<path d="M28.3139 7.52742L29.218 7.2663L29.135 7.02972L28.2344 7.28957L28.3139 7.52742Z" fill="#C4FF33"/>
<path d="M28.2343 7.2896L29.1349 7.02975L29.0297 6.81433L28.1338 7.07181L28.2343 7.2896Z" fill="#D7FF1F"/>
<path d="M27.4248 6.4605L28.2834 6.22815L28.1179 6.23113L27.2681 6.45667L27.4248 6.4605Z" fill="#FFE600"/>
<path d="M28.134 7.07166L29.0299 6.81418L28.9052 6.62567L28.0151 6.87977L28.134 7.07166Z" fill="#E4FF13"/>
<path d="M27.5815 6.50643L28.4489 6.26767L28.283 6.22815L27.4243 6.4605L27.5815 6.50643Z" fill="#FFE600"/>
<path d="M28.0149 6.87981L28.905 6.62572L28.7641 6.46918L27.8809 6.71895L28.0149 6.87981Z" fill="#F1FC06"/>
<path d="M27.7351 6.59346L28.6107 6.34884L28.4489 6.26782L27.5815 6.50659L27.7351 6.59346Z" fill="#FFE600"/>
<path d="M27.8811 6.71885L28.7643 6.46908L28.611 6.34869L27.7354 6.59331L27.8811 6.71885Z" fill="#FEED00"/>
<path d="M26.9719 9.77537L27.8937 9.55206L27.7512 9.62702L26.8281 9.85129L26.9719 9.77537Z" fill="#00E4F8"/>
<path d="M27.1042 9.66037L28.025 9.4386L27.894 9.55191L26.9722 9.77522L27.1042 9.66037Z" fill="#0CF4EB"/>
<path d="M27.2208 9.50947L28.141 9.28979L28.0249 9.4387L27.104 9.66047L27.2208 9.50947Z" fill="#19FFDE"/>
<path d="M27.3192 9.32597L28.2392 9.10889L28.1409 9.28971L27.2207 9.50939L27.3192 9.32597Z" fill="#29FFCE"/>
<path d="M27.3969 9.11475L28.3171 8.9007L28.2393 9.10891L27.3193 9.326L27.3969 9.11475Z" fill="#3CFFBA"/>
<path d="M27.4516 8.88094L28.3722 8.67029L28.3171 8.90062L27.397 9.11468L27.4516 8.88094Z" fill="#53FFA4"/>
<path d="M27.4817 8.63074L28.4032 8.42377L28.3723 8.67033L27.4517 8.88098L27.4817 8.63074Z" fill="#66FF90"/>
<path d="M27.4861 8.37034L28.4088 8.16724L28.4029 8.42366L27.4814 8.63063L27.4861 8.37034Z" fill="#7DFF7A"/>
<path d="M27.4653 8.10681L28.3895 7.90765L28.4089 8.16725L27.4863 8.37036L27.4653 8.10681Z" fill="#94FF63"/>
<path d="M27.4189 7.84702L28.3449 7.65179L28.3893 7.90775L27.4651 8.1069L27.4189 7.84702Z" fill="#AAFF4D"/>
<path d="M27.3486 7.59761L28.2766 7.40619L28.3448 7.65172L27.4188 7.84695L27.3486 7.59761Z" fill="#BEFF39"/>
<path d="M27.2563 7.36559L28.1865 7.17773L28.2767 7.40632L27.3488 7.59774L27.2563 7.36559Z" fill="#D1FF26"/>
<path d="M26.4023 6.62927L27.3459 6.45325L27.5034 6.4782L26.5618 6.65474L26.4023 6.62927Z" fill="#FFE200"/>
<path d="M27.144 7.15666L28.0765 6.97205L28.1865 7.17757L27.2564 7.36543L27.144 7.15666Z" fill="#E1FF16"/>
<path d="M26.5615 6.65499L27.5031 6.47845L27.659 6.54507L26.7196 6.72276L26.5615 6.65499Z" fill="#FFE600"/>
<path d="M27.0151 6.97689L27.9499 6.7951L28.0768 6.97208L27.1444 7.15669L27.0151 6.97689Z" fill="#EEFF09"/>
<path d="M26.7197 6.72262L27.6592 6.54492L27.8093 6.65148L26.8721 6.83094L26.7197 6.72262Z" fill="#FFEA00"/>
<path d="M26.8721 6.83095L27.8092 6.65149L27.9496 6.79517L27.0148 6.97696L26.8721 6.83095Z" fill="#FBF100"/>
<path d="M26.0412 10.023L26.9721 9.77539L26.8283 9.8513L25.8926 10.1017L26.0412 10.023Z" fill="#00E0FB"/>
<path d="M26.1767 9.90366L27.1034 9.6604L26.9714 9.77525L26.0405 10.0229L26.1767 9.90366Z" fill="#09F0EE"/>
<path d="M26.2975 9.74677L27.2208 9.50934L27.104 9.66034L26.1772 9.9036L26.2975 9.74677Z" fill="#16FFE1"/>
<path d="M26.3985 9.55632L27.3192 9.32605L27.2206 9.50947L26.2974 9.7469L26.3985 9.55632Z" fill="#29FFCE"/>
<path d="M26.4778 9.3367L27.3967 9.11475L27.3191 9.326L26.3984 9.55626L26.4778 9.3367Z" fill="#3CFFBA"/>
<path d="M26.533 9.09368L27.451 8.88098L27.3964 9.11472L26.4775 9.33668L26.533 9.09368Z" fill="#50FFA7"/>
<path d="M26.5631 8.83357L27.4814 8.63086L27.4513 8.88111L26.5332 9.0938L26.5631 8.83357Z" fill="#66FF90"/>
<path d="M26.5665 8.56282L27.4859 8.37054L27.4812 8.63083L26.563 8.83355L26.5665 8.56282Z" fill="#7DFF7A"/>
<path d="M26.5435 8.28858L27.4649 8.10693L27.4859 8.37048L26.5665 8.56276L26.5435 8.28858Z" fill="#94FF63"/>
<path d="M26.4941 8.0181L27.4186 7.84698L27.4648 8.10687L26.5433 8.28852L26.4941 8.0181Z" fill="#AAFF4D"/>
<path d="M26.4204 7.75857L27.3487 7.5976L27.4189 7.84693L26.4945 8.01805L26.4204 7.75857Z" fill="#C1FF36"/>
<path d="M26.3232 7.51702L27.2561 7.36554L27.3486 7.5977L26.4203 7.75867L26.3232 7.51702Z" fill="#D4FF23"/>
<path d="M25.4341 6.75035L26.4021 6.62939L26.5615 6.65487L25.5995 6.77696L25.4341 6.75035Z" fill="#FFDE00"/>
<path d="M26.2056 7.29972L27.1436 7.1568L27.256 7.36557L26.3231 7.51705L26.2056 7.29972Z" fill="#E4FF13"/>
<path d="M25.5996 6.77694L26.5617 6.65485L26.7197 6.72262L25.7638 6.84758L25.5996 6.77694Z" fill="#FFDE00"/>
<path d="M26.0708 7.11244L27.0146 6.97693L27.1438 7.15672L26.2057 7.29964L26.0708 7.11244Z" fill="#F1FC06"/>
<path d="M25.7637 6.84774L26.7196 6.72278L26.872 6.8311L25.9222 6.96057L25.7637 6.84774Z" fill="#FFE600"/>
<path d="M25.9224 6.96046L26.8721 6.83099L27.0148 6.977L26.0711 7.11251L25.9224 6.96046Z" fill="#FEED00"/>
<path d="M25.0011 10.3793L25.8924 10.1017L25.7352 10.1381L24.835 10.4177L25.0011 10.3793Z" fill="#00CCFF"/>
<path d="M25.1578 10.2958L26.0409 10.0227L25.8923 10.1014L25.001 10.3791L25.1578 10.2958Z" fill="#00D8FF"/>
<path d="M25.3012 10.1695L26.177 9.9035L26.0408 10.0227L25.1577 10.2958L25.3012 10.1695Z" fill="#02E8F4"/>
<path d="M25.4277 10.0033L26.2973 9.74677L26.1771 9.9036L25.3013 10.1696L25.4277 10.0033Z" fill="#13FCE4"/>
<path d="M25.5338 9.80132L26.3985 9.55634L26.2973 9.74691L25.4277 10.0034L25.5338 9.80132Z" fill="#23FFD4"/>
<path d="M25.6166 9.56812L26.4777 9.33655L26.3983 9.55611L25.5337 9.80109L25.6166 9.56812Z" fill="#39FFBE"/>
<path d="M25.6742 9.31034L26.5332 9.09369L26.4778 9.33669L25.6167 9.56827L25.6742 9.31034Z" fill="#50FFA7"/>
<path d="M25.7047 9.03408L26.5633 8.8335L26.5334 9.09372L25.6743 9.31037L25.7047 9.03408Z" fill="#66FF90"/>
<path d="M25.707 8.74659L26.5667 8.56281L26.5631 8.83354L25.7046 9.03412L25.707 8.74659Z" fill="#7DFF7A"/>
<path d="M25.6812 8.45526L26.5435 8.28857L26.5665 8.56275L25.7069 8.74653L25.6812 8.45526Z" fill="#97FF60"/>
<path d="M25.6279 8.16777L26.4945 8.01801L26.5436 8.28841L25.6813 8.4551L25.6279 8.16777Z" fill="#ADFF49"/>
<path d="M25.5483 7.89207L26.4205 7.75861L26.4945 8.01809L25.628 8.16786L25.5483 7.89207Z" fill="#C4FF33"/>
<path d="M25.4443 7.63514L26.3234 7.51691L26.4204 7.75855L25.5483 7.89201L25.4443 7.63514Z" fill="#D7FF1F"/>
<path d="M24.499 6.81996L25.4343 6.75043L25.5997 6.77703L24.6743 6.84831L24.499 6.81996Z" fill="#FFD700"/>
<path d="M25.3188 7.40424L26.2059 7.29974L26.3234 7.51708L25.4444 7.63532L25.3188 7.40424Z" fill="#EBFF0C"/>
<path d="M24.6743 6.84831L25.5997 6.77704L25.7639 6.84767L24.8485 6.92347L24.6743 6.84831Z" fill="#FFD700"/>
<path d="M25.1748 7.20519L26.0707 7.11255L26.2057 7.29975L25.3186 7.40425L25.1748 7.20519Z" fill="#F8F500"/>
<path d="M24.8481 6.92339L25.7635 6.8476L25.9221 6.96043L25.0166 7.04341L24.8481 6.92339Z" fill="#FFDB00"/>
<path d="M25.0171 7.04337L25.9226 6.96039L26.0713 7.11244L25.1753 7.20507L25.0171 7.04337Z" fill="#FFE600"/>
<path d="M22.1562 11.1899L22.7438 10.8658L22.555 10.7027L21.9492 11.011L22.1562 11.1899Z" fill="#00A0FF"/>
<path d="M21.9493 11.011L22.5551 10.7027L22.3797 10.4949L21.7568 10.7832L21.9493 11.011Z" fill="#00B0FF"/>
<path d="M22.3726 11.3153L22.9413 10.98L22.7438 10.8657L22.1562 11.1897L22.3726 11.3153Z" fill="#0094FF"/>
<path d="M21.7567 10.783L22.3795 10.4946L22.222 10.2473L21.5835 10.512L21.7567 10.783Z" fill="#00C4FF"/>
<path d="M22.5928 11.3844L23.1426 11.0428L22.9413 10.9801L22.3726 11.3154L22.5928 11.3844Z" fill="#0094FF"/>
<path d="M21.5836 10.5122L22.222 10.2476L22.0863 9.96686L21.4341 10.2046L21.5836 10.5122Z" fill="#00E0FB"/>
<path d="M22.8115 11.3951L23.3425 11.0523L23.1425 11.0429L22.5928 11.3845L22.8115 11.3951Z" fill="#0094FF"/>
<path d="M21.4341 10.2045L22.0862 9.96667L21.9757 9.65955L21.312 9.8679L21.4341 10.2045Z" fill="#13FCE4"/>
<path d="M23.0233 11.3468L23.5362 11.0078L23.3425 11.0522L22.8115 11.395L23.0233 11.3468Z" fill="#009CFF"/>
<path d="M21.3121 9.86813L21.9758 9.65977L21.8934 9.33386L21.2207 9.51094L21.3121 9.86813Z" fill="#30FFC7"/>
<path d="M23.2228 11.2407L23.7189 10.9106L23.5364 11.0078L23.0234 11.3468L23.2228 11.2407Z" fill="#00ACFF"/>
<path d="M21.2204 9.51063L21.8931 9.33355L21.841 8.99701L21.1621 9.14173L21.2204 9.51063Z" fill="#49FFAD"/>
<path d="M21.1623 9.14194L21.8412 8.99722L21.8208 8.65857L21.1387 8.77063L21.1623 9.14194Z" fill="#6AFF8D"/>
<path d="M21.1387 8.77059L21.8208 8.65854L21.8329 8.32642L21.1506 8.40633L21.1387 8.77059Z" fill="#87FF70"/>
<path d="M21.1504 8.40617L21.8328 8.32625L21.8772 8.00922L21.1978 8.05834L21.1504 8.40617Z" fill="#A7FF50"/>
<path d="M21.1978 8.05854L21.8772 8.00942L21.953 7.71576L21.2795 7.73624L21.1978 8.05854Z" fill="#C4FF33"/>
<path d="M21.2798 7.73605L21.9533 7.71557L22.0587 7.45304L21.3941 7.44781L21.2798 7.73605Z" fill="#DEFF19"/>
<path d="M21.394 7.44795L22.0586 7.45318L22.191 7.22882L21.5381 7.20154L21.394 7.44795Z" fill="#F8F500"/>
<path d="M21.5381 7.20145L22.191 7.22874L22.3471 7.04867L21.7083 7.0036L21.5381 7.20145Z" fill="#FFDB00"/>
<path d="M21.708 7.00377L22.3468 7.04884L22.5226 6.91804L21.9 6.85999L21.708 7.00377Z" fill="#FFC800"/>
<path d="M21.9004 6.8599L22.523 6.91795L22.7138 6.84012L22.1091 6.77429L21.9004 6.8599Z" fill="#FFB900"/>
<path d="M22.1089 6.77434L22.7136 6.84016L22.9145 6.81759L22.3289 6.74945L22.1089 6.77434Z" fill="#FFAE00"/>
<path d="M21.7214 11.5152L22.1567 11.1899L21.9497 11.011L21.4941 11.3188L21.7214 11.5152Z" fill="#008CFF"/>
<path d="M21.4942 11.3187L21.9497 11.0109L21.7573 10.7831L21.2827 11.0687L21.4942 11.3187Z" fill="#009CFF"/>
<path d="M21.9585 11.6531L22.3728 11.3153L22.1565 11.1898L21.7212 11.5151L21.9585 11.6531Z" fill="#0080FF"/>
<path d="M21.2823 11.0688L21.7568 10.7832L21.5836 10.5121L21.0918 10.7714L21.2823 11.0688Z" fill="#00B4FF"/>
<path d="M22.2 11.729L22.5931 11.3842L22.3728 11.3152L21.9585 11.653L22.2 11.729Z" fill="#007CFF"/>
<path d="M21.0919 10.7714L21.5838 10.5122L21.4343 10.2046L20.9272 10.4339L21.0919 10.7714Z" fill="#00D0FF"/>
<path d="M22.44 11.7412L22.812 11.3949L22.5932 11.3843L22.2002 11.7291L22.44 11.7412Z" fill="#007CFF"/>
<path d="M20.9272 10.4339L21.4342 10.2046L21.3122 9.86804L20.7925 10.0646L20.9272 10.4339Z" fill="#09F0EE"/>
<path d="M22.672 11.6886L23.0237 11.3466L22.8119 11.3948L22.4399 11.7411L22.672 11.6886Z" fill="#0088FF"/>
<path d="M20.7927 10.0646L21.3124 9.86804L21.221 9.51086L20.6914 9.67254L20.7927 10.0646Z" fill="#26FFD1"/>
<path d="M22.8903 11.5727L23.223 11.2405L23.0236 11.3466L22.6719 11.6887L22.8903 11.5727Z" fill="#0098FF"/>
<path d="M20.6915 9.67243L21.2211 9.51075L21.1628 9.14185L20.6265 9.26743L20.6915 9.67243Z" fill="#46FFB1"/>
<path d="M23.0894 11.3959L23.4047 11.079L23.2228 11.2405L22.8901 11.5727L23.0894 11.3959Z" fill="#00ACFF"/>
<path d="M20.6262 9.26759L21.1625 9.142L21.1389 8.77069L20.5991 8.85984L20.6262 9.26759Z" fill="#66FF90"/>
<path d="M20.5991 8.85984L21.1389 8.77069L21.1508 8.40643L20.611 8.4597L20.5991 8.85984Z" fill="#8AFF6D"/>
<path d="M20.6108 8.45964L21.1507 8.40637L21.198 8.05853L20.6616 8.07738L20.6108 8.45964Z" fill="#AAFF4D"/>
<path d="M20.6616 8.07729L21.198 8.05845L21.2798 7.73615L20.7502 7.72296L20.6616 8.07729Z" fill="#CAFF2C"/>
<path d="M20.7505 7.72303L21.28 7.73622L21.3943 7.44798L20.875 7.40601L20.7505 7.72303Z" fill="#E7FF0F"/>
<path d="M20.875 7.40598L21.3943 7.44795L21.5384 7.20154L21.0323 7.13483L20.875 7.40598Z" fill="#FFE600"/>
<path d="M21.0322 7.13463L21.5383 7.20134L21.7085 7.00348L21.2184 6.91681L21.0322 7.13463Z" fill="#FFCC00"/>
<path d="M21.2188 6.91705L21.7089 7.00372L21.9008 6.85994L21.4291 6.75867L21.2188 6.91705Z" fill="#FFB600"/>
<path d="M21.4287 6.75868L21.9005 6.85996L22.1092 6.77435L21.6577 6.66431L21.4287 6.75868Z" fill="#FFA300"/>
<path d="M21.6577 6.66419L22.1093 6.77424L22.3293 6.74936L21.8993 6.63666L21.6577 6.66419Z" fill="#FF9800"/>
<path d="M21.8994 6.63672L22.3294 6.74942L22.5549 6.78614L22.1472 6.67703L21.8994 6.63672Z" fill="#FF9400"/>
<path d="M22.147 6.67694L22.5547 6.78605L22.7795 6.88356L22.3942 6.78421L22.147 6.67694Z" fill="#FF9400"/>
<path d="M21.4326 11.8285L21.7211 11.5152L21.4939 11.3187L21.1836 11.6132L21.4326 11.8285Z" fill="#0074FF"/>
<path d="M21.184 11.6132L21.4943 11.3187L21.2828 11.0687L20.9521 11.3394L21.184 11.6132Z" fill="#0084FF"/>
<path d="M21.6926 11.9799L21.9585 11.6532L21.7212 11.5152L21.4326 11.8286L21.6926 11.9799Z" fill="#0068FF"/>
<path d="M20.9521 11.3393L21.2828 11.0687L21.0923 10.7712L20.7432 11.0136L20.9521 11.3393Z" fill="#00A0FF"/>
<path d="M21.9569 12.0635L22.1999 11.7291L21.9583 11.6531L21.6924 11.9798L21.9569 12.0635Z" fill="#0064FF"/>
<path d="M20.7429 11.0136L21.0921 10.7713L20.9274 10.4338L20.562 10.644L20.7429 11.0136Z" fill="#00C0FF"/>
<path d="M22.2196 12.077L22.4398 11.7411L22.2 11.7291L21.957 12.0634L22.2196 12.077Z" fill="#0064FF"/>
<path d="M20.5623 10.644L20.9277 10.4339L20.793 10.0645L20.4141 10.2395L20.5623 10.644Z" fill="#00E4F8"/>
<path d="M22.4737 12.0201L22.672 11.6887L22.44 11.7412L22.2197 12.0771L22.4737 12.0201Z" fill="#0070FF"/>
<path d="M20.4139 10.2394L20.7928 10.0645L20.6916 9.67242L20.3022 9.80994L20.4139 10.2394Z" fill="#1FFFD7"/>
<path d="M22.7127 11.8938L22.8903 11.573L22.6719 11.6889L22.4736 12.0203L22.7127 11.8938Z" fill="#0080FF"/>
<path d="M20.3022 9.81001L20.6915 9.67249L20.6264 9.26752L20.23 9.36622L20.3022 9.81001Z" fill="#40FFB7"/>
<path d="M22.931 11.7005L23.0897 11.3961L22.8905 11.5729L22.7129 11.8937L22.931 11.7005Z" fill="#0098FF"/>
<path d="M20.2298 9.36619L20.6263 9.26749L20.5992 8.85974L20.1992 8.91921L20.2298 9.36619Z" fill="#66FF90"/>
<path d="M23.1226 11.445L23.2648 11.1625L23.0899 11.396L22.9312 11.7005L23.1226 11.445Z" fill="#00B4FF"/>
<path d="M20.1992 8.91909L20.5992 8.85962L20.6111 8.45947L20.2113 8.48027L20.1992 8.91909Z" fill="#8AFF6D"/>
<path d="M20.2114 8.48045L20.6112 8.45965L20.662 8.07742L20.2661 8.0611L20.2114 8.48045Z" fill="#ADFF49"/>
<path d="M20.2661 8.06112L20.662 8.07744L20.7506 7.7231L20.3624 7.67218L20.2661 8.06112Z" fill="#D1FF26"/>
<path d="M20.3623 7.6722L20.7506 7.72311L20.875 7.40608L20.4979 7.32404L20.3623 7.6722Z" fill="#F4F802"/>
<path d="M20.498 7.32399L20.8751 7.40603L21.0324 7.13488L20.6698 7.02606L20.498 7.32399Z" fill="#FFD700"/>
<path d="M20.6699 7.02603L21.0325 7.13485L21.2187 6.91703L20.8735 6.78656L20.6699 7.02603Z" fill="#FFB900"/>
<path d="M20.8735 6.78648L21.2187 6.91695L21.429 6.75857L21.1038 6.61224L20.8735 6.78648Z" fill="#FF9F00"/>
<path d="M21.1035 6.61219L21.4287 6.75852L21.6577 6.66414L21.3545 6.50824L21.1035 6.61219Z" fill="#FF8D00"/>
<path d="M21.3545 6.50845L21.6577 6.66435L21.8993 6.63681L21.6195 6.47797L21.3545 6.50845Z" fill="#FF8200"/>
<path d="M21.6196 6.47784L21.8994 6.63669L22.1472 6.677L21.8916 6.52197L21.6196 6.47784Z" fill="#FF7A00"/>
<path d="M21.8916 6.52203L22.1472 6.67707L22.3945 6.78435L22.1631 6.63981L21.8916 6.52203Z" fill="#FF7E00"/>
<path d="M23.2647 11.1624L23.565 10.8659L23.4052 11.0791L23.0898 11.396L23.2647 11.1624Z" fill="#00C8FF"/>
<path d="M21.2182 12.5414L21.2119 12.3573L20.9174 12.1027L20.9014 12.2673L21.2182 12.5414Z" fill="#0028FF"/>
<path d="M20.9017 12.2675L20.9177 12.1028L20.6434 11.7791L20.6064 11.9192L20.9017 12.2675Z" fill="#0040FF"/>
<path d="M21.549 12.7347L21.5193 12.5369L21.2119 12.3575L21.2182 12.5416L21.549 12.7347Z" fill="#0018FF"/>
<path d="M20.6062 11.9192L20.6432 11.7791L20.3957 11.3942L20.3398 11.5051L20.6062 11.9192Z" fill="#0060FF"/>
<path d="M21.8858 12.842L21.8323 12.6363L21.5195 12.5368L21.5492 12.7346L21.8858 12.842Z" fill="#0010FF"/>
<path d="M20.3403 11.5051L20.3961 11.3942L20.1816 10.9573L20.1094 11.0351L20.3403 11.5051Z" fill="#0088FF"/>
<path d="M22.2199 12.8607L22.1425 12.6535L21.832 12.6365L21.8856 12.8421L22.2199 12.8607Z" fill="#0014FF"/>
<path d="M20.1091 11.035L20.1814 10.9572L20.0053 10.4789L19.9194 10.5204L20.1091 11.035Z" fill="#00B4FF"/>
<path d="M22.5436 12.7896L22.4431 12.587L22.1426 12.6534L22.2199 12.8606L22.5436 12.7896Z" fill="#0020FF"/>
<path d="M19.9194 10.5203L20.0052 10.4789L19.8721 9.97089L19.7759 9.9735L19.9194 10.5203Z" fill="#02E8F4"/>
<path d="M22.8488 12.6301L22.7264 12.4384L22.4434 12.5869L22.5438 12.7895L22.8488 12.6301Z" fill="#0038FF"/>
<path d="M19.7756 9.97358L19.8718 9.97096L19.7853 9.44572L19.6821 9.40802L19.7756 9.97358Z" fill="#30FFC7"/>
<path d="M23.1271 12.386L22.9845 12.2112L22.7261 12.4386L22.8485 12.6304L23.1271 12.386Z" fill="#0054FF"/>
<path d="M19.6823 9.40807L19.7854 9.44577L19.7479 8.91634L19.6416 8.83777L19.6823 9.40807Z" fill="#60FF97"/>
<path d="M23.3719 12.0617L23.2114 11.9096L22.9844 12.2109L23.127 12.3857L23.3719 12.0617Z" fill="#007CFF"/>
<path d="M19.6416 8.83762L19.7479 8.91619L19.7609 8.39598L19.6552 8.27698L19.6416 8.83762Z" fill="#8DFF6A"/>
<path d="M23.5768 11.6658L23.401 11.5417L23.2114 11.9099L23.372 12.0619L23.5768 11.6658Z" fill="#00A8FF"/>
<path d="M19.6553 8.27701L19.7609 8.39601L19.8244 7.89837L19.7233 7.74042L19.6553 8.27701Z" fill="#BEFF39"/>
<path d="M23.7361 11.2069L23.5484 11.1155L23.4014 11.5415L23.5771 11.6656L23.7361 11.2069Z" fill="#00D8FF"/>
<path d="M19.7231 7.74065L19.8242 7.8986L19.9371 7.43658L19.8444 7.24219L19.7231 7.74065Z" fill="#EBFF0C"/>
<path d="M23.8447 10.6969L23.6486 10.642L23.5483 11.1155L23.736 11.207L23.8447 10.6969Z" fill="#23FFD4"/>
<path d="M19.8447 7.24218L19.9374 7.43657L20.0971 7.02256L20.0166 6.79523L19.8447 7.24218Z" fill="#FFD300"/>
<path d="M23.8995 10.1481L23.6988 10.1328L23.6484 10.6419L23.8446 10.6968L23.8995 10.1481Z" fill="#50FFA7"/>
<path d="M20.0166 6.79509L20.0971 7.02242L20.2999 6.66767L20.2351 6.41187L20.0166 6.79509Z" fill="#FFA700"/>
<path d="M23.899 9.57507L23.6978 9.60135L23.699 10.1329L23.8997 10.1482L23.899 9.57507Z" fill="#80FF77"/>
<path d="M20.2349 6.41196L20.2997 6.66776L20.5407 6.38224L20.4945 6.10327L20.2349 6.41196Z" fill="#FF8200"/>
<path d="M23.8421 8.9928L23.6445 9.06157L23.6978 9.60158L23.899 9.57531L23.8421 8.9928Z" fill="#B1FF46"/>
<path d="M20.4946 6.10329L20.5408 6.38225L20.8137 6.17414L20.7889 5.87805L20.4946 6.10329Z" fill="#FF6000"/>
<path d="M23.7299 8.41626L23.54 8.52727L23.6443 9.06139L23.8419 8.99262L23.7299 8.41626Z" fill="#DEFF19"/>
<path d="M20.7886 5.87792L20.8134 6.17401L21.1112 6.04946L21.1098 5.74286L20.7886 5.87792Z" fill="#FF4A00"/>
<path d="M23.5655 7.86176L23.3872 8.01356L23.54 8.52733L23.7299 8.41632L23.5655 7.86176Z" fill="#FFE200"/>
<path d="M21.1099 5.74295L21.1112 6.04956L21.426 6.01249L21.4495 5.70239L21.1099 5.74295Z" fill="#FF3800"/>
<path d="M23.3529 7.34418L23.1899 7.53414L23.3875 8.0135L23.5657 7.86169L23.3529 7.34418Z" fill="#FFB200"/>
<path d="M21.4498 5.70221L21.4263 6.01231L21.7495 6.06419L21.7987 5.75776L21.4498 5.70221Z" fill="#FF3000"/>
<path d="M23.097 6.87805L22.9526 7.10243L23.1897 7.53416L23.3526 7.3442L23.097 6.87805Z" fill="#FF8D00"/>
<path d="M21.7986 5.758L21.7495 6.06443L22.0725 6.20418L22.1472 5.90853L21.7986 5.758Z" fill="#FF3400"/>
<path d="M22.8057 6.47638L22.6826 6.7304L22.9529 7.10254L23.0972 6.87816L22.8057 6.47638Z" fill="#FF6800"/>
<path d="M22.1475 5.90851L22.0728 6.20416L22.3866 6.42818L22.4862 6.15017L22.1475 5.90851Z" fill="#FF3B00"/>
<path d="M22.4859 6.15015L22.3862 6.42816L22.6823 6.7304L22.8054 6.47638L22.4859 6.15015Z" fill="#FF4E00"/>
<path d="M21.2124 12.3577L21.2725 12.1148L21.0009 11.8799L20.918 12.103L21.2124 12.3577Z" fill="#0040FF"/>
<path d="M20.9174 12.1028L21.0004 11.8797L20.7474 11.5811L20.6431 11.7791L20.9174 12.1028Z" fill="#0058FF"/>
<path d="M21.5193 12.5368L21.5555 12.2799L21.272 12.1146L21.2119 12.3575L21.5193 12.5368Z" fill="#0034FF"/>
<path d="M20.6435 11.7791L20.7478 11.5811L20.5196 11.2259L20.396 11.3941L20.6435 11.7791Z" fill="#0074FF"/>
<path d="M21.8323 12.6365L21.8443 12.3716L21.5558 12.2801L21.5195 12.537L21.8323 12.6365Z" fill="#002CFF"/>
<path d="M20.3957 11.3942L20.5193 11.226L20.3216 10.8229L20.1812 10.9573L20.3957 11.3942Z" fill="#009CFF"/>
<path d="M22.1425 12.6533L22.1303 12.3867L21.844 12.3714L21.832 12.6363L22.1425 12.6533Z" fill="#0030FF"/>
<path d="M20.1815 10.9572L20.3219 10.8228L20.1598 10.3816L20.0054 10.479L20.1815 10.9572Z" fill="#00C4FF"/>
<path d="M22.4431 12.5871L22.4074 12.3252L22.1304 12.3868L22.1426 12.6534L22.4431 12.5871Z" fill="#003CFF"/>
<path d="M20.0052 10.479L20.1596 10.3816L20.0372 9.91309L19.8721 9.971L20.0052 10.479Z" fill="#0CF4EB"/>
<path d="M22.7264 12.4385L22.6686 12.1877L22.4077 12.3252L22.4434 12.587L22.7264 12.4385Z" fill="#0050FF"/>
<path d="M19.8722 9.97101L20.0373 9.9131L19.9579 9.42883L19.7856 9.44576L19.8722 9.97101Z" fill="#36FFC1"/>
<path d="M22.9847 12.2111L22.9065 11.9775L22.6685 12.1878L22.7263 12.4386L22.9847 12.2111Z" fill="#006CFF"/>
<path d="M19.7855 9.4456L19.9578 9.42867L19.9237 8.94077L19.748 8.9162L19.7855 9.4456Z" fill="#60FF97"/>
<path d="M23.2115 11.9097L23.1152 11.6992L22.9062 11.9775L22.9845 12.211L23.2115 11.9097Z" fill="#0090FF"/>
<path d="M19.748 8.9162L19.9237 8.94077L19.9361 8.46156L19.761 8.396L19.748 8.9162Z" fill="#8DFF6A"/>
<path d="M23.4011 11.5416L23.2897 11.3595L23.1152 11.6992L23.2115 11.9097L23.4011 11.5416Z" fill="#00B8FF"/>
<path d="M19.7612 8.39608L19.9363 8.46165L19.9953 8.00345L19.8247 7.89844L19.7612 8.39608Z" fill="#B7FF40"/>
<path d="M23.5485 11.1156L23.4251 10.9667L23.29 11.3596L23.4015 11.5417L23.5485 11.1156Z" fill="#02E8F4"/>
<path d="M19.8247 7.89845L19.9953 8.00346L20.0997 7.57832L19.9376 7.43646L19.8247 7.89845Z" fill="#E1FF16"/>
<path d="M23.6484 10.642L23.5167 10.5301L23.4248 10.9666L23.5482 11.1155L23.6484 10.642Z" fill="#29FFCE"/>
<path d="M19.937 7.43637L20.0991 7.57823L20.2466 7.19745L20.0967 7.02234L19.937 7.43637Z" fill="#FFDE00"/>
<path d="M23.6991 10.1328L23.5631 10.061L23.5171 10.53L23.6487 10.6419L23.6991 10.1328Z" fill="#53FFA4"/>
<path d="M20.0972 7.02253L20.2471 7.19764L20.4342 6.87159L20.3 6.66779L20.0972 7.02253Z" fill="#FFB600"/>
<path d="M23.6978 9.6014L23.5615 9.57178L23.563 10.0612L23.699 10.1329L23.6978 9.6014Z" fill="#80FF77"/>
<path d="M20.2998 6.66766L20.434 6.87147L20.656 6.60923L20.5408 6.38214L20.2998 6.66766Z" fill="#FF9400"/>
<path d="M23.6446 9.06158L23.5122 9.07499L23.5615 9.57197L23.6978 9.6016L23.6446 9.06158Z" fill="#ADFF49"/>
<path d="M20.541 6.38219L20.6563 6.60928L20.9077 6.41831L20.8139 6.17407L20.541 6.38219Z" fill="#FF7700"/>
<path d="M23.5403 8.52728L23.416 8.58345L23.5122 9.0748L23.6446 9.06139L23.5403 8.52728Z" fill="#D7FF1F"/>
<path d="M20.8135 6.1741L20.9072 6.41835L21.1813 6.30426L21.1113 6.04956L20.8135 6.1741Z" fill="#FF6000"/>
<path d="M23.3872 8.01343L23.2749 8.11087L23.4157 8.58335L23.54 8.52718L23.3872 8.01343Z" fill="#FEED00"/>
<path d="M21.1118 6.04958L21.1819 6.30427L21.4715 6.27059L21.4266 6.01251L21.1118 6.04958Z" fill="#FF5200"/>
<path d="M23.1899 7.53436L23.0933 7.67043L23.2751 8.11117L23.3874 8.01373L23.1899 7.53436Z" fill="#FFC400"/>
<path d="M21.4263 6.01257L21.4712 6.27065L21.7685 6.31868L21.7495 6.06445L21.4263 6.01257Z" fill="#FF4A00"/>
<path d="M22.9527 7.1026L22.875 7.2735L23.0931 7.67041L23.1897 7.53434L22.9527 7.1026Z" fill="#FF9F00"/>
<path d="M21.7495 6.06433L21.7685 6.31856L22.0656 6.44727L22.0725 6.20408L21.7495 6.06433Z" fill="#FF4A00"/>
<path d="M22.6829 6.73041L22.627 6.93133L22.8755 7.27345L22.9532 7.10255L22.6829 6.73041Z" fill="#FF7E00"/>
<path d="M22.0729 6.20416L22.0659 6.44735L22.3545 6.65344L22.3867 6.42819L22.0729 6.20416Z" fill="#FF5500"/>
<path d="M22.3867 6.42816L22.3545 6.65342L22.6268 6.93132L22.6828 6.7304L22.3867 6.42816Z" fill="#FF6800"/>
<path d="M21.2726 12.1146L21.4328 11.8284L21.1839 11.6132L21.001 11.8797L21.2726 12.1146Z" fill="#005CFF"/>
<path d="M21.0011 11.8796L21.1839 11.6131L20.9521 11.3392L20.748 11.5809L21.0011 11.8796Z" fill="#0070FF"/>
<path d="M21.556 12.2799L21.6926 11.9798L21.4327 11.8284L21.2725 12.1146L21.556 12.2799Z" fill="#004CFF"/>
<path d="M20.7482 11.5811L20.9522 11.3394L20.7433 11.0137L20.52 11.2259L20.7482 11.5811Z" fill="#008CFF"/>
<path d="M21.8446 12.3715L21.9573 12.0635L21.6928 11.9799L21.5562 12.28L21.8446 12.3715Z" fill="#0048FF"/>
<path d="M20.5194 11.226L20.7427 11.0138L20.5618 10.6441L20.3218 10.8229L20.5194 11.226Z" fill="#00ACFF"/>
<path d="M22.1306 12.3868L22.2195 12.0772L21.9569 12.0635L21.8442 12.3715L22.1306 12.3868Z" fill="#004CFF"/>
<path d="M20.3218 10.8228L20.5618 10.644L20.4136 10.2395L20.1597 10.3816L20.3218 10.8228Z" fill="#00D4FF"/>
<path d="M22.4079 12.3252L22.4738 12.0203L22.2198 12.0772L22.1309 12.3869L22.4079 12.3252Z" fill="#0054FF"/>
<path d="M20.16 10.3816L20.414 10.2395L20.3022 9.81L20.0376 9.9131L20.16 10.3816Z" fill="#16FFE1"/>
<path d="M22.6686 12.1877L22.7127 11.8937L22.4736 12.0201L22.4077 12.3251L22.6686 12.1877Z" fill="#0068FF"/>
<path d="M20.0374 9.91316L20.3021 9.81005L20.2299 9.36627L19.958 9.42891L20.0374 9.91316Z" fill="#3CFFBA"/>
<path d="M22.907 11.9776L22.9311 11.7006L22.713 11.8938L22.6689 12.1878L22.907 11.9776Z" fill="#0080FF"/>
<path d="M19.9579 9.42881L20.2298 9.36618L20.1992 8.91919L19.9238 8.94088L19.9579 9.42881Z" fill="#63FF94"/>
<path d="M23.1157 11.6993L23.1223 11.4451L22.9309 11.7006L22.9067 11.9776L23.1157 11.6993Z" fill="#00A0FF"/>
<path d="M19.9243 8.94076L20.1997 8.91906L20.2117 8.48025L19.9367 8.46155L19.9243 8.94076Z" fill="#8DFF6A"/>
<path d="M23.2901 11.3595L23.282 11.1334L23.1223 11.445L23.1157 11.6992L23.2901 11.3595Z" fill="#00C8FF"/>
<path d="M19.9365 8.46161L20.2115 8.48031L20.2662 8.06094L19.9955 8.00342L19.9365 8.46161Z" fill="#B4FF43"/>
<path d="M23.4254 10.9665L23.4059 10.7731L23.2822 11.1333L23.2903 11.3594L23.4254 10.9665Z" fill="#0CF4EB"/>
<path d="M19.9951 8.00334L20.2658 8.06087L20.3621 7.67194L20.0995 7.57819L19.9951 8.00334Z" fill="#DBFF1C"/>
<path d="M23.5173 10.5301L23.4898 10.3733L23.4058 10.7732L23.4253 10.9666L23.5173 10.5301Z" fill="#30FFC7"/>
<path d="M20.0996 7.57824L20.3622 7.67199L20.4978 7.32383L20.2471 7.19745L20.0996 7.57824Z" fill="#FEED00"/>
<path d="M23.5632 10.0611L23.5318 9.94379L23.4897 10.3732L23.5172 10.5301L23.5632 10.0611Z" fill="#56FFA0"/>
<path d="M20.2476 7.19763L20.4982 7.32401L20.67 7.02608L20.4347 6.87158L20.2476 7.19763Z" fill="#FFC800"/>
<path d="M23.5674 9.57187L23.5303 9.49603L23.532 9.94392L23.5692 10.0612L23.5674 9.57187Z" fill="#80FF77"/>
<path d="M20.4346 6.87137L20.6699 7.02586L20.8735 6.7864L20.6566 6.60913L20.4346 6.87137Z" fill="#FFA700"/>
<path d="M23.5126 9.07482L23.4854 9.04132L23.5305 9.49594L23.5619 9.57178L23.5126 9.07482Z" fill="#A7FF50"/>
<path d="M20.6562 6.6093L20.8732 6.78657L21.1035 6.61233L20.9076 6.41833L20.6562 6.6093Z" fill="#FF8D00"/>
<path d="M23.416 8.58356L23.397 8.59211L23.485 9.04141L23.5122 9.07491L23.416 8.58356Z" fill="#CEFF29"/>
<path d="M20.9077 6.41829L21.1035 6.61228L21.3545 6.50833L21.1819 6.3042L20.9077 6.41829Z" fill="#FF7700"/>
<path d="M23.275 8.11108L23.2681 8.16021L23.3968 8.59211L23.4158 8.58357L23.275 8.11108Z" fill="#F4F802"/>
<path d="M21.1816 6.30413L21.3543 6.50826L21.6193 6.47777L21.4713 6.27045L21.1816 6.30413Z" fill="#FF6C00"/>
<path d="M23.0933 7.6701L23.1019 7.75719L23.2681 8.15996L23.2751 8.11084L23.0933 7.6701Z" fill="#FFD300"/>
<path d="M21.4717 6.27063L21.6197 6.47796L21.8917 6.52208L21.769 6.31865L21.4717 6.27063Z" fill="#FF6400"/>
<path d="M22.8755 7.27338L22.9029 7.3947L23.1023 7.75736L23.0936 7.67028L22.8755 7.27338Z" fill="#FFB200"/>
<path d="M21.769 6.3186L21.8917 6.52203L22.1632 6.63981L22.0661 6.44732L21.769 6.3186Z" fill="#FF6400"/>
<path d="M22.627 6.93121L22.6758 7.08206L22.9029 7.39465L22.8755 7.27333L22.627 6.93121Z" fill="#FF9400"/>
<path d="M22.0659 6.4472L22.163 6.63969L22.4268 6.82809L22.3545 6.65329L22.0659 6.4472Z" fill="#FF6C00"/>
<path d="M22.3545 6.6532L22.4268 6.82799L22.6756 7.08195L22.6268 6.9311L22.3545 6.6532Z" fill="#FF7E00"/>
<path d="M21.2568 12.6536L21.2187 12.5417L20.9019 12.2676L20.9187 12.3611L21.2568 12.6536Z" fill="#000CFF"/>
<path d="M20.9185 12.3611L20.9016 12.2676L20.6064 11.9193L20.6035 11.9895L20.9185 12.3611Z" fill="#0028FF"/>
<path d="M21.6098 12.8596L21.5495 12.7347L21.2188 12.5416L21.2569 12.6534L21.6098 12.8596Z" fill="#0000FF"/>
<path d="M20.6036 11.9895L20.6065 11.9193L20.3402 11.5052L20.3193 11.5476L20.6036 11.9895Z" fill="#004CFF"/>
<path d="M21.969 12.9743L21.8859 12.8421L21.5493 12.7347L21.6097 12.8596L21.969 12.9743Z" fill="#0000FF"/>
<path d="M20.3193 11.5474L20.3401 11.505L20.1091 11.0349L20.0728 11.0458L20.3193 11.5474Z" fill="#0074FF"/>
<path d="M22.3257 12.9943L22.22 12.8605L21.8857 12.8419L21.9688 12.9742L22.3257 12.9943Z" fill="#0000FF"/>
<path d="M20.0727 11.0459L20.109 11.0351L19.9194 10.5205L19.8701 10.4966L20.0727 11.0459Z" fill="#00A8FF"/>
<path d="M22.6716 12.9189L22.5439 12.7896L22.2202 12.8606L22.3259 12.9943L22.6716 12.9189Z" fill="#0008FF"/>
<path d="M19.8701 10.4966L19.9194 10.5205L19.7759 9.97367L19.7168 9.91284L19.8701 10.4966Z" fill="#00E0FB"/>
<path d="M22.9977 12.7489L22.849 12.6301L22.5439 12.7895L22.6717 12.9187L22.9977 12.7489Z" fill="#0020FF"/>
<path d="M19.7167 9.91289L19.7757 9.97371L19.6823 9.40815L19.6167 9.30884L19.7167 9.91289Z" fill="#2CFFCA"/>
<path d="M23.2957 12.4886L23.1277 12.386L22.8491 12.6304L22.9978 12.7492L23.2957 12.4886Z" fill="#0040FF"/>
<path d="M19.6169 9.30865L19.6824 9.40796L19.6418 8.83767L19.5732 8.69928L19.6169 9.30865Z" fill="#5DFF9A"/>
<path d="M23.5576 12.1426L23.3724 12.0618L23.1274 12.3858L23.2955 12.4883L23.5576 12.1426Z" fill="#0068FF"/>
<path d="M19.5732 8.6995L19.6418 8.83789L19.6554 8.27725L19.5876 8.10016L19.5732 8.6995Z" fill="#90FF66"/>
<path d="M23.7767 11.7199L23.5769 11.6658L23.3721 12.0619L23.5573 12.1427L23.7767 11.7199Z" fill="#0098FF"/>
<path d="M19.5874 8.10016L19.6552 8.27725L19.7233 7.74068L19.6599 7.52625L19.5874 8.10016Z" fill="#C1FF36"/>
<path d="M23.9476 11.2297L23.7362 11.2069L23.5771 11.6656L23.777 11.7197L23.9476 11.2297Z" fill="#00CCFF"/>
<path d="M19.6602 7.52594L19.7236 7.74037L19.8449 7.24192L19.7896 6.99249L19.6602 7.52594Z" fill="#F4F802"/>
<path d="M24.0647 10.6848L23.845 10.6969L23.7363 11.207L23.9478 11.2299L24.0647 10.6848Z" fill="#1CFFDB"/>
<path d="M19.7896 6.99249L19.8449 7.24192L20.0167 6.79496L19.9731 6.51385L19.7896 6.99249Z" fill="#FFC400"/>
<path d="M24.1239 10.0981L23.8997 10.1482L23.8447 10.6969L24.0644 10.6847L24.1239 10.0981Z" fill="#4DFFAA"/>
<path d="M19.9731 6.51394L20.0168 6.79505L20.2353 6.41184L20.2066 6.10327L19.9731 6.51394Z" fill="#FF9800"/>
<path d="M24.1244 9.48523L23.8994 9.57514L23.9001 10.1482L24.1244 10.0982L24.1244 9.48523Z" fill="#80FF77"/>
<path d="M20.2065 6.10333L20.2352 6.4119L20.4949 6.10321L20.4841 5.77228L20.2065 6.10333Z" fill="#FF6F00"/>
<path d="M24.064 8.86188L23.8423 8.99252L23.8991 9.57501L24.1241 9.48509L24.064 8.86188Z" fill="#B4FF43"/>
<path d="M20.4839 5.77213L20.4947 6.10307L20.7889 5.87783L20.7986 5.53027L20.4839 5.77213Z" fill="#FF4A00"/>
<path d="M23.9445 8.24524L23.73 8.41637L23.842 8.99271L24.0636 8.86206L23.9445 8.24524Z" fill="#E4FF13"/>
<path d="M20.7987 5.53029L20.7891 5.87784L21.1103 5.74279L21.1424 5.38495L20.7987 5.53029Z" fill="#FF3000"/>
<path d="M23.7694 7.65167L23.5659 7.8619L23.7304 8.41645L23.9449 8.24532L23.7694 7.65167Z" fill="#FFD300"/>
<path d="M21.1425 5.38519L21.1104 5.74303L21.45 5.70246L21.5059 5.34106L21.1425 5.38519Z" fill="#FF2200"/>
<path d="M23.542 7.09741L23.353 7.34422L23.5659 7.86175L23.7694 7.65152L23.542 7.09741Z" fill="#FFA300"/>
<path d="M21.5061 5.341L21.4502 5.7024L21.7991 5.75794L21.8795 5.39987L21.5061 5.341Z" fill="#FF1A00"/>
<path d="M23.2685 6.59833L23.0972 6.8781L23.3528 7.34425L23.5418 7.09744L23.2685 6.59833Z" fill="#FF7A00"/>
<path d="M21.8792 5.39996L21.7988 5.75803L22.1474 5.90858L22.2523 5.56071L21.8792 5.39996Z" fill="#FF1A00"/>
<path d="M22.9567 6.16803L22.8057 6.47617L23.0972 6.87796L23.2686 6.59818L22.9567 6.16803Z" fill="#FF5500"/>
<path d="M22.2524 5.56061L22.1475 5.90848L22.4862 6.15014L22.6149 5.81909L22.2524 5.56061Z" fill="#FF2500"/>
<path d="M22.615 5.81897L22.4863 6.15002L22.8059 6.47625L22.9569 6.16811L22.615 5.81897Z" fill="#FF3800"/>
<defs>
<clipPath id="clip0_406_420908">
<rect width="14" height="14" fill="white" transform="translate(18 18)"/>
</clipPath>
</defs>
</svg>
