<svg width="256" height="256" viewBox="0 0 256 256" fill="none" xmlns="http://www.w3.org/2000/svg">
<g clip-path="url(#clip0_287_2985)">
<path d="M252.26 127.93C252.26 196.595 196.595 252.26 127.93 252.26C59.264 252.26 3.59961 196.595 3.59961 127.93C3.59961 59.2643 59.264 3.59985 127.93 3.59985C196.595 3.59985 252.26 59.2643 252.26 127.93Z" fill="url(#paint0_linear_287_2985)"/>
<path fill-rule="evenodd" clip-rule="evenodd" d="M255.86 127.93C255.86 198.584 198.584 255.86 127.93 255.86C57.2762 255.86 0 198.584 0 127.93C0 57.2762 57.2762 0 127.93 0C198.584 0 255.86 57.2762 255.86 127.93ZM127.93 252.26C196.596 252.26 252.26 196.596 252.26 127.93C252.26 59.2645 196.596 3.60006 127.93 3.60006C59.2645 3.60006 3.60006 59.2645 3.60006 127.93C3.60006 196.596 59.2645 252.26 127.93 252.26Z" fill="url(#paint1_linear_287_2985)"/>
<path d="M227.395 127.93C227.395 182.862 182.863 227.394 127.931 227.394C72.9983 227.394 28.4668 182.862 28.4668 127.93C28.4668 72.9973 72.9983 28.4658 127.931 28.4658C182.863 28.4658 227.395 72.9973 227.395 127.93Z" fill="url(#paint2_linear_287_2985)"/>
<path fill-rule="evenodd" clip-rule="evenodd" d="M229.194 127.93C229.194 183.856 183.857 229.194 127.93 229.194C72.0034 229.194 26.666 183.856 26.666 127.93C26.666 72.0032 72.0034 26.6658 127.93 26.6658C183.857 26.6658 229.194 72.0032 229.194 127.93ZM127.93 227.394C182.862 227.394 227.394 182.862 227.394 127.93C227.394 72.9973 182.862 28.4658 127.93 28.4658C72.9976 28.4658 28.466 72.9973 28.466 127.93C28.466 182.862 72.9976 227.394 127.93 227.394Z" fill="url(#paint3_linear_287_2985)"/>
<g style="mix-blend-mode:color-dodge" opacity="0.47" filter="url(#filter0_i_287_2985)">
<path fill-rule="evenodd" clip-rule="evenodd" d="M141.791 37.5798C141.46 37.5798 141.191 37.8485 141.191 38.1798V43.6108C141.191 43.9421 141.46 44.2108 141.791 44.2108H147.822V44.7824C147.822 44.7878 147.822 44.7932 147.821 44.7987L147.821 44.8116V50.2425C147.821 50.4782 147.957 50.6822 148.155 50.7803C148.235 50.8203 148.326 50.8429 148.422 50.8429H153.853C153.859 50.8429 153.866 50.8428 153.873 50.8425H160.483C160.814 50.8425 161.083 50.5739 161.083 50.2425V44.8116C161.083 44.4802 160.814 44.2116 160.483 44.2116H154.453V43.6395C154.453 43.63 154.453 43.6204 154.453 43.6108V38.1798C154.453 37.8485 154.185 37.5798 153.853 37.5798H141.791ZM108.863 41.4975C108.863 41.1661 109.132 40.8975 109.463 40.8975H114.894C115.225 40.8975 115.494 41.1661 115.494 41.4975V46.9284C115.494 47.2598 115.225 47.5284 114.894 47.5284H109.463C109.132 47.5284 108.863 47.2598 108.863 46.9284V41.4975ZM108.863 47.2972C108.863 46.9658 108.595 46.6972 108.263 46.6972L96.2016 46.6972C95.8703 46.6972 95.6016 46.9658 95.6016 47.2972V52.7281C95.6016 53.0595 95.8703 53.3281 96.2016 53.3281H108.263C108.595 53.3281 108.863 53.0595 108.863 52.7281V47.2972ZM88.3717 53.3301C88.7031 53.3301 88.9717 53.5987 88.9717 53.9301V59.361C88.9717 59.6924 88.7031 59.961 88.3717 59.961H76.3099C75.9785 59.961 75.7099 59.6924 75.7099 59.361V53.9301C75.7099 53.5987 75.9785 53.3301 76.3099 53.3301H88.3717ZM63.0494 67.4178H69.08V73.4499C69.08 73.7813 69.3486 74.0499 69.68 74.0499H75.1106C75.442 74.0499 75.7106 73.7813 75.7106 73.4499V66.8465C75.711 66.837 75.7113 66.8274 75.7113 66.8178V61.3869C75.7113 61.0555 75.4426 60.7869 75.1113 60.7869H63.0494C62.718 60.7869 62.4494 61.0555 62.4494 61.3869V66.8178C62.4494 67.1492 62.718 67.4178 63.0494 67.4178ZM47.5312 89.571C47.5312 89.2396 47.7998 88.9709 48.1312 88.9709H53.5618C53.8932 88.9709 54.1618 89.2396 54.1618 89.571V101.633C54.1618 101.964 53.8932 102.233 53.5618 102.233H48.1312C47.7998 102.233 47.5312 101.964 47.5312 101.633V89.571ZM142.851 64.7045C142.851 64.3731 142.582 64.1045 142.251 64.1045H130.189C129.858 64.1045 129.589 64.3731 129.589 64.7045V70.1354C129.589 70.4668 129.858 70.7354 130.189 70.7354H142.251C142.582 70.7354 142.851 70.4668 142.851 70.1354V64.7045ZM90.6311 128.526C90.6311 128.195 90.8998 127.926 91.2312 127.926H96.6617C96.9931 127.926 97.2617 128.195 97.2617 128.526V140.588C97.2617 140.919 96.9931 141.188 96.6617 141.188H91.2312C90.8998 141.188 90.6311 140.919 90.6311 140.588V128.526ZM148.422 82.3392C148.091 82.3392 147.822 82.6078 147.822 82.9392V95.001C147.822 95.3324 148.091 95.6011 148.422 95.6011H153.853C154.184 95.6011 154.453 95.3324 154.453 95.001V82.9392C154.453 82.6078 154.184 82.3392 153.853 82.3392H148.422ZM204.785 82.3392C204.454 82.3392 204.185 82.6078 204.185 82.9392V88.3701C204.185 88.7015 204.454 88.9701 204.785 88.9701H210.216C210.547 88.9701 210.816 88.7015 210.816 88.3701V82.9392C210.816 82.6078 210.547 82.3392 210.216 82.3392H204.785ZM197.555 170.797C197.555 170.466 197.823 170.197 198.155 170.197H211.874C212.206 170.197 212.474 170.466 212.474 170.797V176.228C212.474 176.56 212.206 176.828 211.874 176.828H198.155C197.823 176.828 197.555 176.56 197.555 176.228V170.797ZM135.158 143.676C134.827 143.676 134.558 143.945 134.558 144.276V149.707C134.558 150.038 134.827 150.307 135.158 150.307H140.589C140.92 150.307 141.189 150.038 141.189 149.707V144.276C141.189 143.945 140.92 143.676 140.589 143.676H135.158ZM112.18 166.884H111.125C110.794 166.884 110.525 166.615 110.525 166.284V160.853C110.525 160.521 110.794 160.253 111.125 160.253H118.213C118.545 160.253 118.813 160.521 118.813 160.853V166.284C118.813 166.292 118.813 166.301 118.813 166.31C118.813 166.315 118.812 166.32 118.812 166.324C118.812 166.331 118.811 166.337 118.811 166.343V166.883H128.989C129.321 166.883 129.589 167.152 129.589 167.483V172.914C129.589 173.246 129.321 173.514 128.989 173.514H118.254C118.239 173.515 118.225 173.516 118.211 173.516H112.78C112.449 173.516 112.18 173.247 112.18 172.916V166.884ZM191.524 131.244H197.555V137.276C197.555 137.607 197.823 137.876 198.155 137.876H203.585C203.917 137.876 204.185 137.607 204.185 137.276V130.673C204.186 130.667 204.186 130.661 204.186 130.655L204.186 130.644V125.213C204.186 124.882 203.917 124.613 203.586 124.613H191.524C191.193 124.613 190.924 124.882 190.924 125.213V130.644C190.924 130.975 191.193 131.244 191.524 131.244ZM69.68 200.039H75.7153V206.07C75.7153 206.401 75.9839 206.67 76.3153 206.67H81.7459C82.0772 206.67 82.3459 206.401 82.3459 206.07V194.008C82.3459 193.677 82.0772 193.408 81.7459 193.408H81.7418H76.3153H69.68C69.3486 193.408 69.08 193.677 69.08 194.008V199.439C69.08 199.77 69.3486 200.039 69.68 200.039ZM152.798 206.668H146.765C146.434 206.668 146.165 206.4 146.165 206.068V200.637C146.165 200.306 146.434 200.037 146.765 200.037H153.398H158.827H158.828C159.16 200.037 159.428 200.306 159.428 200.637V212.699C159.428 213.031 159.16 213.299 158.828 213.299H153.398C153.066 213.299 152.798 213.031 152.798 212.699V206.668ZM165.459 182.631C165.79 182.631 166.059 182.9 166.059 183.231V188.662C166.059 188.993 165.79 189.262 165.459 189.262H153.397C153.066 189.262 152.797 188.993 152.797 188.662V183.231C152.797 182.9 153.066 182.631 153.397 182.631H165.459ZM50.8453 125.213C50.8453 124.882 50.5767 124.613 50.2453 124.613H38.1835C37.8521 124.613 37.5834 124.882 37.5834 125.213V130.644C37.5834 130.654 37.5837 130.663 37.5841 130.673L37.5841 137.044H29.0668C28.7354 137.044 28.4668 137.313 28.4668 137.644V143.075C28.4668 143.406 28.7354 143.675 29.0668 143.675H46.7015V149.478H40.6709C40.3395 149.478 40.0709 149.747 40.0709 150.078V155.509C40.0709 155.84 40.3395 156.109 40.6709 156.109H47.3015H50.2456H52.7321C53.0635 156.109 53.3321 155.84 53.3321 155.509V150.078C53.3321 150.013 53.3218 149.951 53.3028 149.892C53.3218 149.834 53.3321 149.771 53.3321 149.706V143.104L53.3325 143.093C53.3327 143.087 53.3328 143.081 53.3328 143.075V137.644C53.3328 137.313 53.0642 137.044 52.7328 137.044H44.2147L44.2147 131.244H50.2453C50.5767 131.244 50.8453 130.975 50.8453 130.644V125.213ZM36.9818 109.694C37.3132 109.694 37.5818 109.962 37.5818 110.294V115.724C37.5818 116.056 37.3132 116.324 36.9818 116.324H31.5512C31.2198 116.324 30.9512 116.056 30.9512 115.724L30.9512 110.294C30.9512 109.962 31.2198 109.694 31.5512 109.694H36.9818ZM121.529 54.1575C121.861 54.1575 122.129 53.8888 122.129 53.5575V48.1265C122.129 47.7952 121.861 47.5265 121.529 47.5265H116.099C115.767 47.5265 115.499 47.7952 115.499 48.1265V53.5575C115.499 53.8888 115.767 54.1575 116.099 54.1575H121.529ZM46.1015 109.692C46.4329 109.692 46.7015 109.961 46.7015 110.292V115.723C46.7015 116.055 46.4329 116.323 46.1015 116.323H40.6709C40.3395 116.323 40.0709 116.055 40.0709 115.723V110.292C40.0709 109.961 40.3395 109.692 40.6709 109.692H46.1015ZM121.527 63.2748C121.858 63.2748 122.127 63.0062 122.127 62.6748V57.2439C122.127 56.9125 121.858 56.6439 121.527 56.6439H116.096C115.765 56.6439 115.496 56.9125 115.496 57.2439V62.6748C115.496 63.0062 115.765 63.2748 116.096 63.2748H121.527ZM196.727 73.4504C196.727 73.7817 196.459 74.0504 196.127 74.0504H190.697C190.366 74.0504 190.097 73.7817 190.097 73.4504V61.3885C190.097 61.0572 190.366 60.7885 190.697 60.7885H196.127C196.459 60.7885 196.727 61.0572 196.727 61.3885V73.4504ZM187.608 95.0027V93.3492L187.608 93.3445L187.608 89.5718L187.608 81.2826C187.608 80.9512 187.876 80.6826 188.208 80.6826H193.638C193.97 80.6826 194.238 80.9512 194.238 81.2826V88.9718H203.585C203.916 88.9718 204.185 89.2404 204.185 89.5718V95.0027C204.185 95.3341 203.916 95.6027 203.585 95.6027H188.208C187.876 95.6027 187.608 95.3341 187.608 95.0027ZM64.9362 110.292C64.9362 109.961 64.6675 109.692 64.3362 109.692H58.9056C58.5742 109.692 58.3056 109.961 58.3056 110.292V115.723C58.3056 116.055 58.5742 116.323 58.9056 116.323H64.3362C64.6675 116.323 64.9362 116.055 64.9362 115.723V110.292ZM148.879 57.4739C149.21 57.4739 149.479 57.7426 149.479 58.0739V63.5048C149.479 63.8362 149.21 64.1049 148.879 64.1049H143.448C143.117 64.1049 142.848 63.8362 142.848 63.5048V58.0739C142.848 57.7426 143.117 57.4739 143.448 57.4739H148.879ZM183.464 61.3881C183.464 61.0567 183.195 60.788 182.864 60.788H177.433C177.102 60.788 176.833 61.0567 176.833 61.3881V66.819C176.833 67.1503 177.102 67.419 177.433 67.419H182.864C183.195 67.419 183.464 67.1503 183.464 66.819V61.3881ZM189.492 54.1598C189.824 54.1598 190.092 54.4284 190.092 54.7598V60.1907C190.092 60.5221 189.824 60.7907 189.492 60.7907H184.062C183.73 60.7907 183.462 60.5221 183.462 60.1907V54.7598C183.462 54.4284 183.73 54.1598 184.062 54.1598H189.492ZM177.063 189.263C177.394 189.263 177.663 189.532 177.663 189.863V195.294C177.663 195.625 177.394 195.894 177.063 195.894H171.633C171.301 195.894 171.033 195.625 171.033 195.294V189.863C171.033 189.532 171.301 189.263 171.633 189.263H177.063ZM95.6047 200.637C95.6047 200.306 95.336 200.037 95.0047 200.037H89.5741C89.2427 200.037 88.9741 200.306 88.9741 200.637V206.068C88.9741 206.4 89.2427 206.668 89.5741 206.668H95.0047C95.336 206.668 95.6047 206.4 95.6047 206.068V200.637ZM128.987 179.318C129.319 179.318 129.587 179.587 129.587 179.918V185.349V191.98C129.587 192.311 129.319 192.58 128.987 192.58H123.557C123.225 192.58 122.957 192.311 122.957 191.98V185.349V179.918C122.957 179.587 123.225 179.318 123.557 179.318H128.987ZM114.899 205.841C115.23 205.841 115.499 206.109 115.499 206.441V211.871C115.499 212.203 115.23 212.471 114.899 212.471H109.468C109.137 212.471 108.868 212.203 108.868 211.871V206.441C108.868 206.109 109.137 205.841 109.468 205.841H114.899ZM95.6047 179.917C95.6047 179.586 95.336 179.317 95.0047 179.317H89.5741C89.2427 179.317 88.9741 179.586 88.9741 179.917V188.663C88.9741 188.995 89.2427 189.263 89.5741 189.263H95.0047C95.336 189.263 95.6047 188.995 95.6047 188.663V179.917ZM191.152 152.792C191.483 152.792 191.752 153.061 191.752 153.392V165.454C191.752 165.786 191.483 166.054 191.152 166.054H185.721C185.39 166.054 185.121 165.786 185.121 165.454V153.392C185.121 153.061 185.39 152.792 185.721 152.792H191.152ZM210.816 118.579C210.816 118.247 210.547 117.979 210.216 117.979H204.785C204.454 117.979 204.185 118.247 204.185 118.579V124.01C204.185 124.341 204.454 124.61 204.785 124.61H210.216C210.547 124.61 210.816 124.341 210.816 124.01V118.579ZM216.847 109.692C217.178 109.692 217.447 109.961 217.447 110.292V115.723C217.447 116.055 217.178 116.323 216.847 116.323H211.416C211.085 116.323 210.816 116.055 210.816 115.723V110.292C210.816 109.961 211.085 109.692 211.416 109.692H216.847ZM103.895 121.895C103.895 121.564 103.626 121.295 103.295 121.295H97.8641C97.5327 121.295 97.264 121.564 97.264 121.895V127.326C97.264 127.658 97.5327 127.926 97.8641 127.926H103.295C103.626 127.926 103.895 127.658 103.895 127.326V121.895ZM135.616 172.686C135.947 172.686 136.216 172.955 136.216 173.286V178.717C136.216 179.049 135.947 179.317 135.616 179.317H130.185C129.854 179.317 129.585 179.049 129.585 178.717V173.286C129.585 172.955 129.854 172.686 130.185 172.686H135.616ZM146.165 206.442C146.165 206.11 145.896 205.842 145.565 205.842H140.134C139.803 205.842 139.534 206.11 139.534 206.442V211.873C139.534 212.204 139.803 212.473 140.134 212.473H145.565C145.896 212.473 146.165 212.204 146.165 211.873V206.442ZM128.16 40.8963C128.491 40.8963 128.76 41.1649 128.76 41.4963V46.9272C128.76 47.2586 128.491 47.5272 128.16 47.5272H122.729C122.398 47.5272 122.129 47.2586 122.129 46.9272V41.4963C122.129 41.1649 122.398 40.8963 122.729 40.8963L128.16 40.8963ZM62.6791 190.091C63.0105 190.091 63.2791 189.823 63.2791 189.491V184.061C63.2791 183.729 63.0105 183.461 62.6791 183.461H50.6173C50.2859 183.461 50.0172 183.729 50.0172 184.061V189.491C50.0172 189.823 50.2859 190.091 50.6173 190.091H62.6791ZM88.3741 206.669C88.7054 206.669 88.9741 206.938 88.9741 207.269V212.7C88.9741 213.031 88.7054 213.3 88.3741 213.3H82.9435C82.6121 213.3 82.3435 213.031 82.3435 212.7V207.269C82.3435 206.938 82.6121 206.669 82.9435 206.669H88.3741ZM198.382 138.473C198.382 138.142 198.114 137.873 197.782 137.873H192.352C192.02 137.873 191.752 138.142 191.752 138.473V143.904C191.752 144.235 192.02 144.504 192.352 144.504H197.782C198.114 144.504 198.382 144.235 198.382 143.904V138.473ZM204.415 152.792C204.746 152.792 205.015 153.061 205.015 153.392V158.823C205.015 159.155 204.746 159.423 204.415 159.423H198.985C198.653 159.423 198.385 159.155 198.385 158.823V153.392C198.385 153.061 198.653 152.792 198.985 152.792H204.415ZM211.643 146.763C211.643 146.432 211.375 146.163 211.043 146.163H205.613C205.281 146.163 205.013 146.432 205.013 146.763V152.194C205.013 152.525 205.281 152.794 205.613 152.794H211.043C211.375 152.794 211.643 152.525 211.643 152.194V146.763ZM59.3626 60.788C59.694 60.788 59.9626 61.0567 59.9626 61.3881V66.819C59.9626 67.1503 59.694 67.419 59.3626 67.419H53.9321C53.6007 67.419 53.332 67.1503 53.332 66.819V61.3881C53.332 61.0567 53.6007 60.788 53.9321 60.788H59.3626Z" fill="#1D3EB2"/>
</g>
<path d="M69.9297 177.597V76.1948H89.0175V156.198H109.643V76.1948H129.993L165.019 132.286V76.1948H185.132V176.613H167.006L131.056 121.456V156.31L109.643 156.198V177.597H69.9297Z" fill="#A2B1FF"/>
<path d="M69.9297 180.597V79.1948H89.0175V159.198H109.643V79.1948H129.993L165.019 135.286V79.1948H185.132V179.613H167.006L131.056 124.456V159.31L109.643 159.198V180.597H69.9297Z" fill="#0E1530" fill-opacity="0.77"/>
<path d="M69.9121 179.023V77.3643H89.0427V157.57H109.714V77.3643H130.11L165.214 133.597V77.3643H185.372V178.037H167.206L131.175 122.74V157.683L109.714 157.57V179.023H69.9121Z" fill="url(#paint4_linear_287_2985)"/>
<path d="M21.2217 96.1123C21.8619 96.2838 22.2418 96.9418 22.0703 97.582L20.7607 102.469C20.5892 103.109 19.9312 103.489 19.291 103.318L14.404 102.008C13.7638 101.837 13.3839 101.179 13.5554 100.539L14.865 95.6513C15.0365 95.0112 15.6945 94.6313 16.3347 94.8028L21.2217 96.1123Z" fill="url(#paint5_linear_287_2985)"/>
<path d="M239.798 154.675C240.438 154.847 240.818 155.505 240.646 156.145L239.337 161.033C239.165 161.673 238.507 162.053 237.867 161.881L232.98 160.572C232.34 160.4 231.96 159.742 232.132 159.102L233.441 154.215C233.613 153.574 234.271 153.194 234.911 153.366L239.798 154.675Z" fill="url(#paint6_linear_287_2985)"/>
<path d="M47.1426 51.8268C47.6366 52.2686 47.679 53.0272 47.2372 53.5212L43.8643 57.2926C43.4225 57.7866 42.6639 57.829 42.1699 57.3871L38.3985 54.0144C37.9045 53.5725 37.8622 52.8139 38.304 52.3199L41.6768 48.5485C42.1186 48.0545 42.8772 48.0122 43.3712 48.454L47.1426 51.8268Z" fill="url(#paint7_linear_287_2985)"/>
<path d="M215.805 202.671C216.299 203.113 216.341 203.871 215.899 204.365L212.526 208.137C212.085 208.631 211.326 208.673 210.832 208.231L207.061 204.858C206.567 204.417 206.524 203.658 206.966 203.164L210.339 199.392C210.781 198.898 211.539 198.856 212.033 199.298L215.805 202.671Z" fill="url(#paint8_linear_287_2985)"/>
<path d="M59.2504 40.9049C59.6741 41.4145 59.6045 42.1711 59.0949 42.5949L55.2045 45.8296C54.6948 46.2533 53.9382 46.1837 53.5145 45.6741L50.2797 41.7837C49.856 41.2741 49.9256 40.5174 50.4352 40.0937L54.3256 36.859C54.8352 36.4352 55.5918 36.5049 56.0155 37.0145L59.2504 40.9049Z" fill="url(#paint9_linear_287_2985)"/>
<path d="M203.924 214.898C204.348 215.407 204.278 216.164 203.769 216.588L199.878 219.823C199.369 220.246 198.612 220.177 198.188 219.667L194.954 215.777C194.53 215.267 194.599 214.51 195.109 214.087L198.999 210.852C199.509 210.428 200.266 210.498 200.689 211.007L203.924 214.898Z" fill="url(#paint10_linear_287_2985)"/>
<path d="M27.5263 80.0327C28.132 80.3017 28.405 81.0108 28.1359 81.6165L26.0821 86.2406C25.813 86.8463 25.1039 87.1192 24.4983 86.8502L19.8744 84.7964C19.2687 84.5274 18.9958 83.8183 19.2648 83.2126L21.3187 78.5885C21.5877 77.9828 22.2968 77.7099 22.9025 77.9789L27.5263 80.0327Z" fill="url(#paint11_linear_287_2985)"/>
<path d="M234.325 171.886C234.931 172.155 235.204 172.864 234.935 173.47L232.881 178.094C232.612 178.7 231.903 178.972 231.297 178.703L226.673 176.65C226.068 176.381 225.795 175.672 226.064 175.066L228.117 170.442C228.387 169.836 229.096 169.563 229.701 169.832L234.325 171.886Z" fill="url(#paint12_linear_287_2985)"/>
<path d="M36.4416 64.8645C36.997 65.2261 37.1541 65.9695 36.7925 66.5249L34.0319 70.7651C33.6703 71.3205 32.9269 71.4776 32.3715 71.116L28.1314 68.3555C27.576 67.9939 27.4189 67.2505 27.7805 66.6951L30.5412 62.4549C30.9028 61.8995 31.6462 61.7424 32.2016 62.104L36.4416 64.8645Z" fill="url(#paint13_linear_287_2985)"/>
<path d="M226.071 188.327C226.626 188.689 226.783 189.432 226.421 189.988L223.661 194.228C223.299 194.783 222.556 194.941 222 194.579L217.76 191.818C217.205 191.457 217.048 190.713 217.409 190.158L220.17 185.918C220.532 185.362 221.275 185.205 221.83 185.567L226.071 188.327Z" fill="url(#paint14_linear_287_2985)"/>
<path d="M17.5335 112.738C18.1924 112.809 18.6688 113.401 18.5975 114.06L18.0533 119.091C17.982 119.75 17.39 120.226 16.7311 120.155L11.7011 119.61C11.0422 119.539 10.5658 118.947 10.6371 118.288L11.1813 113.258C11.2526 112.599 11.8446 112.123 12.5035 112.194L17.5335 112.738Z" fill="url(#paint15_linear_287_2985)"/>
<path d="M242.5 137.075C243.159 137.147 243.636 137.738 243.564 138.397L243.02 143.428C242.949 144.087 242.357 144.563 241.698 144.492L236.668 143.948C236.009 143.876 235.533 143.284 235.604 142.625L236.148 137.595C236.219 136.936 236.811 136.46 237.47 136.531L242.5 137.075Z" fill="url(#paint16_linear_287_2985)"/>
<path d="M16.4258 128.783C17.0881 128.758 17.6452 129.275 17.6702 129.937L17.8609 134.993C17.8859 135.656 17.3693 136.213 16.707 136.238L11.6512 136.428C10.9889 136.453 10.4318 135.937 10.4068 135.275L10.2161 130.218C10.1911 129.556 10.7078 128.999 11.37 128.974L16.4258 128.783Z" fill="url(#paint17_linear_287_2985)"/>
<path d="M242.543 120.255C243.205 120.23 243.762 120.747 243.787 121.409L243.978 126.465C244.003 127.127 243.486 127.684 242.824 127.709L237.768 127.9C237.106 127.925 236.549 127.408 236.524 126.746L236.333 121.69C236.308 121.028 236.825 120.471 237.487 120.446L242.543 120.255Z" fill="url(#paint18_linear_287_2985)"/>
<path d="M17.6678 144.88C18.3194 144.759 18.9458 145.189 19.0668 145.84L19.991 150.815C20.1121 151.466 19.682 152.093 19.0304 152.214L14.0561 153.138C13.4045 153.259 12.7781 152.829 12.6571 152.177L11.7329 147.203C11.6118 146.551 12.0419 145.925 12.6935 145.804L17.6678 144.88Z" fill="url(#paint19_linear_287_2985)"/>
<path d="M240.142 103.547C240.794 103.426 241.42 103.856 241.541 104.507L242.466 109.482C242.587 110.133 242.157 110.76 241.505 110.881L236.531 111.805C235.879 111.926 235.253 111.496 235.132 110.844L234.208 105.87C234.086 105.218 234.517 104.592 235.168 104.471L240.142 103.547Z" fill="url(#paint20_linear_287_2985)"/>
<path d="M20.8541 159.323C21.4837 159.116 22.1618 159.459 22.3687 160.088L23.948 164.895C24.1549 165.525 23.8122 166.203 23.1825 166.41L18.3759 167.989C17.7462 168.196 17.0681 167.853 16.8612 167.224L15.2819 162.417C15.0751 161.787 15.4178 161.109 16.0474 160.902L20.8541 159.323Z" fill="url(#paint21_linear_287_2985)"/>
<path d="M235.825 88.6956C236.454 88.4887 237.133 88.8315 237.339 89.4611L238.919 94.268C239.126 94.8977 238.783 95.5758 238.153 95.7827L233.347 97.3619C232.717 97.5688 232.039 97.226 231.832 96.5964L230.253 91.7895C230.046 91.1598 230.388 90.4817 231.018 90.2748L235.825 88.6956Z" fill="url(#paint22_linear_287_2985)"/>
<path d="M25.9436 173.234C26.54 172.945 27.2578 173.194 27.5469 173.791L29.7541 178.343C30.0432 178.94 29.7941 179.658 29.1977 179.947L24.645 182.154C24.0487 182.443 23.3308 182.194 23.0417 181.597L20.8346 177.045C20.5455 176.448 20.7945 175.73 21.3909 175.441L25.9436 173.234Z" fill="url(#paint23_linear_287_2985)"/>
<path d="M229.559 74.5281C230.155 74.239 230.873 74.4881 231.162 75.0845L233.369 79.6374C233.658 80.2337 233.409 80.9516 232.813 81.2407L228.26 83.4477C227.664 83.7368 226.946 83.4877 226.657 82.8914L224.45 78.3385C224.161 77.7421 224.41 77.0243 225.006 76.7352L229.559 74.5281Z" fill="url(#paint24_linear_287_2985)"/>
<path d="M32.6262 185.994C33.18 185.629 33.9241 185.783 34.2882 186.337L37.0679 190.565C37.432 191.118 37.2783 191.862 36.7245 192.227L32.4969 195.006C31.9432 195.37 31.1991 195.217 30.835 194.663L28.0552 190.435C27.6911 189.881 27.8449 189.137 28.3987 188.773L32.6262 185.994Z" fill="url(#paint25_linear_287_2985)"/>
<path d="M221.7 61.6793C222.254 61.3152 222.998 61.4689 223.362 62.0227L226.142 66.2504C226.506 66.8042 226.352 67.5483 225.799 67.9124L221.571 70.692C221.017 71.0561 220.273 70.9024 219.909 70.3486L217.129 66.1209C216.765 65.5671 216.919 64.823 217.473 64.4589L221.7 61.6793Z" fill="url(#paint26_linear_287_2985)"/>
<path d="M41.3127 198.266C41.812 197.83 42.5701 197.882 43.0059 198.381L46.333 202.193C46.7688 202.692 46.7173 203.45 46.218 203.886L42.4062 207.213C41.9069 207.649 41.1489 207.598 40.713 207.098L37.386 203.286C36.9501 202.787 37.0016 202.029 37.5009 201.593L41.3127 198.266Z" fill="url(#paint27_linear_287_2985)"/>
<path d="M211.793 49.469C212.292 49.0332 213.051 49.0847 213.486 49.584L216.813 53.3958C217.249 53.8951 217.198 54.6532 216.698 55.089L212.887 58.4161C212.387 58.8519 211.629 58.8004 211.194 58.3011L207.866 54.4893C207.431 53.99 207.482 53.2319 207.981 52.7961L211.793 49.469Z" fill="url(#paint28_linear_287_2985)"/>
<path d="M51.847 209.494C52.281 208.993 53.0389 208.939 53.5397 209.373L57.3635 212.686C57.8644 213.12 57.9186 213.878 57.4846 214.379L54.1712 218.202C53.7372 218.703 52.9794 218.757 52.4785 218.323L48.6547 215.01C48.1538 214.576 48.0996 213.818 48.5336 213.317L51.847 209.494Z" fill="url(#paint29_linear_287_2985)"/>
<path d="M200.031 38.4814C200.465 37.9805 201.222 37.9263 201.723 38.3603L205.547 41.6736C206.048 42.1076 206.102 42.8655 205.668 43.3664L202.355 47.1902C201.921 47.691 201.163 47.7452 200.662 47.3112L196.838 43.9979C196.337 43.5639 196.283 42.8061 196.717 42.3052L200.031 38.4814Z" fill="url(#paint30_linear_287_2985)"/>
<path d="M59.998 30.3745L60.976 29.7549C62.5735 32.3379 64.176 34.9183 65.7835 37.4962C67.3562 36.5009 68.9487 35.5528 70.5612 34.652C70.6582 34.9432 70.7553 35.2343 70.8598 35.5254C69.0034 36.5706 67.1695 37.6729 65.358 38.8325C63.5714 36.0057 61.7847 33.1864 59.998 30.3745Z" fill="#0B1D5D" fill-opacity="0.38"/>
<path d="M76.212 27.3518C74.5921 28.0983 72.9797 28.9194 71.3747 29.7705L73.1887 33.2268C74.8833 32.331 76.6002 31.48 78.3247 30.6738C78.4068 30.9724 78.4964 31.2635 78.5785 31.5546C76.5878 32.4903 74.6244 33.4856 72.6885 34.5407C71.1158 31.5994 69.5432 28.6582 67.9706 25.7169C70.0459 24.5971 72.146 23.5396 74.2711 22.5442L74.6518 23.3654C72.8851 24.1965 71.1432 25.0699 69.4262 25.9856L70.9939 28.9717C72.6064 28.1207 74.2313 27.3095 75.8687 26.5381L76.212 27.3518Z" fill="#0B1D5D" fill-opacity="0.38"/>
<path d="M88.2458 27.5605L87.4993 27.8442C87.239 27.4178 87.0309 26.9617 86.8797 26.4855C86.7379 27.2843 86.275 28.4264 84.4236 29.1655C81.7287 30.2554 79.4369 28.9117 78.2649 26.3064C77.0929 23.7011 77.7499 20.7673 80.8255 19.5355C83.1322 18.6099 85.0358 19.1996 85.9466 20.8046L84.9089 21.1853C84.0802 20.1252 82.856 19.6923 81.1241 20.3716C78.6382 21.3719 78.347 23.604 79.3026 25.7913C80.1835 27.7994 81.9453 29.1954 84.1773 28.2996C86.4094 27.4037 86.5139 25.7166 85.8346 23.8205L85.7972 23.7234C84.7969 24.0892 83.7966 24.4699 82.8112 24.8805C82.7067 24.5969 82.5947 24.3206 82.4827 24.037C83.8115 23.4995 85.1477 23.0018 86.4915 22.5439C87.0588 24.2211 87.6436 25.8933 88.2458 27.5605Z" fill="#0B1D5D" fill-opacity="0.38"/>
<path d="M91.3069 23.0886C91.2422 24.2432 91.1899 25.4003 91.1501 26.5599L90.1646 26.8883C90.2542 23.335 90.4508 19.7642 90.7544 16.1759L92.0609 15.7877C94.3153 18.6095 96.4677 21.4787 98.5181 24.395L97.4506 24.6787C96.7788 23.7306 96.092 22.7975 95.3977 21.8643C94.0341 22.2475 92.6705 22.6557 91.3069 23.0886ZM94.8603 21.073C93.0537 18.6543 92.0683 17.4748 91.6503 16.8552C91.6503 17.6988 91.4711 19.5576 91.3516 22.1256C92.5112 21.7523 93.6808 21.4015 94.8603 21.073Z" fill="#0B1D5D" fill-opacity="0.38"/>
<path d="M107.476 19.6624C107.412 20.5438 107.047 21.3764 106.442 22.0206C105.837 22.6649 105.029 23.0816 104.154 23.2008C101.302 23.7906 99.2866 21.9691 98.5998 19.2219C97.9503 16.5942 98.9581 13.7873 102.161 13.1229C104.572 12.6377 106.162 13.6679 106.752 15.258L105.684 15.4446C105.379 14.8407 104.869 14.3649 104.246 14.1024C103.622 13.8398 102.925 13.8075 102.28 14.0113C99.7643 14.5264 99.2194 16.8928 99.7046 18.9308C100.19 20.9688 101.608 22.8201 104.019 22.32C104.637 22.2267 105.208 21.9353 105.645 21.4896C106.083 21.044 106.364 20.4682 106.446 19.849L107.476 19.6624Z" fill="#0B1D5D" fill-opacity="0.38"/>
<path d="M112.746 21.678C112.597 20.4462 112.448 19.222 112.291 17.9902C112.282 17.903 112.248 17.8202 112.194 17.7513C110.741 15.905 109.22 14.086 107.633 12.2943L108.902 12.1002C110.186 13.5933 112.224 16.1463 112.761 16.8928C113.105 16.0493 114.515 13.0856 115.478 11.3164L116.68 11.2044C115.511 13.3394 114.411 15.4894 113.381 17.6543C113.355 17.7293 113.355 17.8107 113.381 17.8857L113.806 21.5585L112.746 21.678Z" fill="#0B1D5D" fill-opacity="0.38"/>
<path d="M123.183 20.8493C123.071 17.5199 122.974 14.183 122.869 10.8461L124.407 10.8013C126.459 13.635 128.367 16.57 130.125 19.5951C130.073 18.2216 130.125 16.6987 130.177 15.0713C130.215 13.6529 130.259 12.2345 130.297 10.8236H131.379C131.255 14.1581 131.13 17.4925 131.006 20.8269L129.685 20.7896C128.393 18.4829 124.713 12.899 123.907 11.8315C124.011 13.0632 124.034 14.6309 124.078 16.4449C124.078 17.8931 124.146 19.3488 124.175 20.7971L123.183 20.8493Z" fill="#0B1D5D" fill-opacity="0.38"/>
<path d="M140.763 16.7732C139.031 16.5742 137.289 16.4099 135.538 16.2805L135.246 20.1773C137.09 20.3117 138.934 20.4834 140.771 20.7073L140.524 21.5882C138.414 21.3394 136.299 21.1478 134.179 21.0134C134.398 17.684 134.617 14.3545 134.836 11.0251C137.075 11.1669 139.367 11.3759 141.629 11.6372L141.517 12.5405C139.636 12.3166 137.75 12.1374 135.859 12.003C135.769 13.1302 135.687 14.2426 135.605 15.3772C137.362 15.5017 139.103 15.6659 140.83 15.8699L140.763 16.7732Z" fill="#0B1D5D" fill-opacity="0.38"/>
<path d="M146.832 13.2869C145.668 13.0928 144.496 12.9211 143.324 12.7644C143.324 12.4658 143.406 12.1672 143.443 11.8685C146.185 12.2368 148.923 12.6922 151.655 13.2347C151.595 13.5333 151.535 13.8244 151.468 14.123C150.304 13.8841 149.139 13.6676 147.967 13.4661L146.399 22.4242L145.384 22.2525C145.852 19.2714 146.335 16.2829 146.832 13.2869Z" fill="#0B1D5D" fill-opacity="0.38"/>
<path d="M153.7 23.9475C153.606 20.4936 153.432 17.0323 153.178 13.5635L154.32 13.8098C154.469 16.7137 154.641 21.7975 154.551 22.977C155.014 21.9617 157.821 17.3408 159.247 15.0341L160.352 15.3327C160.397 17.7888 160.314 23.5444 160.202 24.485C160.949 23.0741 163.995 18.7517 165.368 16.8481L166.428 17.1915C164.323 20.0034 162.3 22.86 160.359 25.7615L159.277 25.4405C159.359 23.0218 159.366 17.4901 159.404 16.4823C158.732 17.7365 156.015 22.0737 154.783 24.2461L153.7 23.9475Z" fill="#0B1D5D" fill-opacity="0.38"/>
<path d="M175.155 25.8811C174.02 28.382 171.646 30.0019 168.757 28.8672C166.085 27.8146 165.271 25.1346 166.212 22.4323C167.153 19.7299 169.594 18.1323 172.669 19.3417C175.513 20.454 176.372 23.2012 175.155 25.8811ZM167.294 22.7533C166.548 24.8659 166.988 27.1875 169.131 28.0311C171.445 28.9493 173.192 27.516 174.102 25.4332C175.013 23.3504 174.647 21.0811 172.296 20.1479C169.818 19.1775 168.033 20.6854 167.294 22.7533Z" fill="#0B1D5D" fill-opacity="0.38"/>
<path d="M178.305 27.8742L176.327 31.9801L175.387 31.5322C176.81 28.5163 178.238 25.5004 179.671 22.4845C180.911 23.0667 182.14 23.6689 183.359 24.291C185.345 25.3063 185.853 26.8366 185.091 28.2102C184.835 28.7053 184.412 29.0934 183.896 29.3053C183.381 29.5172 182.807 29.5392 182.277 29.3673C183.023 30.0317 183.382 30.9499 182.56 32.4578C182.493 32.5773 182.426 32.6967 182.366 32.8162C181.994 33.3776 181.707 33.9915 181.515 34.6376L180.612 34.1524C180.789 33.4625 181.079 32.8067 181.471 32.2115L181.583 32.0025C182.329 30.6438 182.21 29.8301 180.455 28.9343L178.305 27.8742ZM178.694 27.1277L180.933 28.1729C182.501 28.9716 183.494 28.8148 184.083 27.7249C184.673 26.635 184.218 25.7392 182.777 25.0076C181.971 24.5896 181.15 24.1865 180.336 23.7983C179.773 24.8981 179.226 26.008 178.694 27.1277Z" fill="#0B1D5D" fill-opacity="0.38"/>
<path d="M188.988 27.374L189.966 27.9487L187.368 32.3084C188.465 32.0471 192.34 31.3529 194.833 31.002L196.057 31.8157C193.892 32.0646 191.765 32.3756 189.675 32.7489C190.085 35.2571 190.421 37.7579 190.645 40.214L189.578 39.5048C189.331 37.31 189.033 35.1003 188.667 32.8906C188.04 32.9802 187.413 33.0773 186.793 33.1818C186.136 34.3016 185.472 35.4213 184.807 36.5336L183.912 36.0036C185.619 33.137 187.311 30.2605 188.988 27.374Z" fill="#0B1D5D" fill-opacity="0.38"/>
<path d="M59.7266 29.5771L60.7045 28.9576C62.302 31.5405 63.9045 34.1209 65.512 36.6989C67.0847 35.7035 68.6772 34.7555 70.2897 33.8547C70.3867 34.1458 70.4838 34.4369 70.5883 34.7281C68.732 35.7732 66.8981 36.8755 65.0865 38.0351C63.2999 35.2083 61.5132 32.389 59.7266 29.5771Z" fill="#0B1D5D"/>
<path d="M75.9405 26.5544C74.3206 27.3009 72.7082 28.1221 71.1032 28.9731L72.9172 32.4295C74.6118 31.5336 76.3287 30.6826 78.0532 29.8764C78.1353 30.175 78.2249 30.4661 78.307 30.7573C76.3163 31.6929 74.353 32.6882 72.417 33.7433C70.8444 30.8021 69.2717 27.8608 67.6991 24.9196C69.7744 23.7998 71.8745 22.7422 73.9996 21.7469L74.3804 22.5681C72.6136 23.3992 70.8717 24.2726 69.1548 25.1883L70.7224 28.1743C72.3349 27.3233 73.9598 26.5121 75.5972 25.7407L75.9405 26.5544Z" fill="#0B1D5D"/>
<path d="M87.9743 26.7632L87.2278 27.0468C86.9675 26.6205 86.7594 26.1643 86.6082 25.6882C86.4664 26.4869 86.0035 27.6291 84.1522 28.3681C81.4573 29.458 79.1655 28.1143 77.9934 25.509C76.8214 22.9037 77.4784 19.9699 80.554 18.7382C82.8607 17.8125 84.7643 18.4022 85.6751 20.0072L84.6374 20.3879C83.8087 19.3279 82.5845 18.8949 80.8526 19.5742C78.3667 20.5746 78.0756 22.8067 79.0311 24.9939C79.912 27.002 81.6738 28.398 83.9058 27.5022C86.1379 26.6064 86.2424 24.9193 85.5631 23.0231L85.5257 22.9261C84.5254 23.2919 83.5251 23.6726 82.5397 24.0832C82.4352 23.7995 82.3232 23.5233 82.2112 23.2396C83.54 22.7021 84.8763 22.2044 86.22 21.7466C86.7873 23.4237 87.3722 25.0959 87.9743 26.7632Z" fill="#0B1D5D"/>
<path d="M91.0354 22.2913C90.9707 23.4459 90.9184 24.6029 90.8786 25.7625L89.8932 26.091C89.9827 22.5376 90.1794 18.9668 90.4829 15.3786L91.7894 14.9904C94.0438 17.8122 96.1962 20.6813 98.2466 23.5977L97.1791 23.8813C96.5073 22.9332 95.8205 22.0001 95.1262 21.067C93.7626 21.4502 92.399 21.8583 91.0354 22.2913ZM94.5888 20.2757C92.7822 17.857 91.7968 16.6775 91.3788 16.0579C91.3788 16.9014 91.1996 18.7602 91.0802 21.3282C92.2397 20.955 93.4093 20.6041 94.5888 20.2757Z" fill="#0B1D5D"/>
<path d="M107.204 18.865C107.14 19.7464 106.775 20.579 106.171 21.2232C105.566 21.8675 104.758 22.2842 103.882 22.4035C101.031 22.9932 99.0151 21.1717 98.3283 18.4246C97.6788 15.7968 98.6866 12.99 101.889 12.3256C104.3 11.8404 105.89 12.8705 106.48 14.4606L105.413 14.6472C105.108 14.0433 104.598 13.5676 103.974 13.305C103.35 13.0424 102.654 13.0102 102.009 13.2139C99.4929 13.729 98.9479 16.0955 99.4331 18.1335C99.9184 20.1714 101.337 22.0228 103.748 21.5226C104.365 21.4293 104.936 21.1379 105.374 20.6923C105.811 20.2466 106.092 19.6708 106.174 19.0517L107.204 18.865Z" fill="#0B1D5D"/>
<path d="M112.475 20.8806C112.325 19.6489 112.176 18.4246 112.019 17.1929C112.01 17.1056 111.977 17.0228 111.922 16.954C110.469 15.1076 108.949 13.2886 107.361 11.497L108.63 11.3029C109.914 12.7959 111.952 15.3489 112.49 16.0955C112.833 15.2519 114.244 12.2883 115.207 10.519L116.409 10.4071C115.239 12.5421 114.139 14.692 113.109 16.8569C113.084 16.9319 113.084 17.0133 113.109 17.0883L113.535 20.7612L112.475 20.8806Z" fill="#0B1D5D"/>
<path d="M122.911 20.052C122.799 16.7225 122.702 13.3856 122.598 10.0487L124.135 10.0039C126.187 12.8376 128.096 15.7726 129.854 18.7978C129.801 17.4242 129.854 15.9013 129.906 14.2739C129.943 12.8556 129.988 11.4372 130.025 10.0263H131.108C130.983 13.3607 130.859 16.6951 130.735 20.0295L129.413 19.9922C128.122 17.6855 124.441 12.1016 123.635 11.0341C123.74 12.2658 123.762 13.8335 123.807 15.6475C123.807 17.0958 123.874 18.5515 123.904 19.9997L122.911 20.052Z" fill="#0B1D5D"/>
<path d="M140.492 15.9759C138.76 15.7768 137.018 15.6125 135.266 15.4831L134.975 19.3799C136.819 19.5143 138.663 19.686 140.499 19.91L140.253 20.7909C138.143 20.542 136.028 20.3504 133.907 20.216C134.126 16.8866 134.345 13.5572 134.564 10.2277C136.804 10.3696 139.096 10.5786 141.358 10.8399L141.246 11.7432C139.364 11.5192 137.478 11.34 135.587 11.2056C135.498 12.3329 135.415 13.4452 135.333 14.5799C137.09 14.7043 138.832 14.8685 140.559 15.0726L140.492 15.9759Z" fill="#0B1D5D"/>
<path d="M146.561 12.4896C145.396 12.2955 144.224 12.1238 143.052 11.967C143.052 11.6684 143.134 11.3698 143.172 11.0712C145.914 11.4395 148.651 11.8948 151.383 12.4373C151.324 12.7359 151.264 13.0271 151.197 13.3257C150.032 13.0868 148.868 12.8703 147.696 12.6687L146.128 21.6269L145.113 21.4551C145.58 18.4741 146.063 15.4856 146.561 12.4896Z" fill="#0B1D5D"/>
<path d="M153.429 23.1501C153.334 19.6962 153.16 16.2349 152.906 12.7661L154.048 13.0125C154.198 15.9164 154.369 21.0002 154.28 22.1796C154.743 21.1644 157.55 16.5435 158.975 14.2367L160.08 14.5354C160.125 16.9914 160.043 22.747 159.931 23.6876C160.677 22.2767 163.723 17.9544 165.097 16.0508L166.157 16.3942C164.052 19.206 162.029 22.0627 160.088 24.9641L159.005 24.6431C159.087 22.2244 159.095 16.6928 159.132 15.685C158.46 16.9391 155.743 21.2764 154.511 23.4487L153.429 23.1501Z" fill="#0B1D5D"/>
<path d="M174.884 25.0838C173.749 27.5846 171.375 29.2045 168.486 28.0698C165.814 27.0172 165 24.3373 165.94 21.6349C166.881 18.9325 169.322 17.335 172.398 18.5443C175.242 19.6566 176.1 22.4038 174.884 25.0838ZM167.023 21.9559C166.276 24.0685 166.717 26.3902 168.859 27.2337C171.173 28.1519 172.92 26.7186 173.831 24.6358C174.742 22.5531 174.376 20.2837 172.024 19.3506C169.546 18.3801 167.762 19.8881 167.023 21.9559Z" fill="#0B1D5D"/>
<path d="M178.034 27.0769L176.056 31.1827L175.115 30.7348C176.538 27.7189 177.967 24.703 179.4 21.6871C180.639 22.2694 181.868 22.8715 183.088 23.4936C185.073 24.5089 185.581 26.0392 184.82 27.4128C184.564 27.9079 184.14 28.296 183.625 28.5079C183.109 28.7199 182.535 28.7418 182.005 28.5699C182.752 29.2343 183.11 30.1525 182.289 31.6605C182.222 31.7799 182.155 31.8993 182.095 32.0188C181.722 32.5802 181.435 33.1941 181.244 33.8403L180.341 33.355C180.518 32.6652 180.808 32.0094 181.199 31.4141L181.311 31.2051C182.058 29.8465 181.938 29.0327 180.184 28.1369L178.034 27.0769ZM178.422 26.3304L180.662 27.3755C182.229 28.1743 183.222 28.0175 183.812 26.9276C184.402 25.8377 183.946 24.9418 182.505 24.2103C181.699 23.7922 180.878 23.3891 180.064 23.0009C179.502 24.1008 178.955 25.2106 178.422 26.3304Z" fill="#0B1D5D"/>
<path d="M188.716 26.5766L189.694 27.1514L187.096 31.511C188.194 31.2497 192.068 30.5555 194.562 30.2046L195.786 31.0184C193.621 31.2672 191.493 31.5782 189.403 31.9515C189.814 34.4598 190.15 36.9606 190.374 39.4166L189.306 38.7074C189.06 36.5127 188.761 34.303 188.395 32.0933C187.768 32.1829 187.141 32.2799 186.522 32.3844C185.865 33.5042 185.2 34.624 184.536 35.7363L183.64 35.2063C185.347 32.3397 187.039 29.4631 188.716 26.5766Z" fill="#0B1D5D"/>
<path d="M195.463 225.842L194.485 226.462C192.887 223.879 191.285 221.299 189.677 218.721C188.105 219.716 186.512 220.664 184.9 221.565C184.803 221.274 184.706 220.982 184.601 220.691C186.457 219.646 188.291 218.544 190.103 217.384C191.89 220.211 193.676 223.03 195.463 225.842Z" fill="#1C3EB2"/>
<path d="M179.249 228.865C180.869 228.119 182.481 227.297 184.086 226.446L182.272 222.99C180.578 223.886 178.861 224.737 177.136 225.543C177.054 225.244 176.965 224.953 176.882 224.662C178.873 223.727 180.836 222.731 182.772 221.676C184.345 224.617 185.918 227.559 187.49 230.5C185.415 231.62 183.315 232.677 181.19 233.673L180.809 232.851C182.576 232.02 184.318 231.147 186.035 230.231L184.467 227.245C182.855 228.096 181.23 228.907 179.592 229.679L179.249 228.865Z" fill="#1C3EB2"/>
<path d="M167.215 228.656L167.962 228.373C168.222 228.799 168.43 229.255 168.581 229.731C168.723 228.932 169.186 227.79 171.037 227.051C173.732 225.961 176.024 227.305 177.196 229.91C178.368 232.516 177.711 235.45 174.635 236.681C172.329 237.607 170.425 237.017 169.514 235.412L170.552 235.032C171.381 236.092 172.605 236.525 174.337 235.845C176.823 234.845 177.114 232.613 176.158 230.426C175.277 228.417 173.516 227.021 171.284 227.917C169.052 228.813 168.947 230.5 169.626 232.396L169.664 232.493C170.664 232.128 171.664 231.747 172.65 231.336C172.754 231.62 172.866 231.896 172.978 232.18C171.649 232.717 170.313 233.215 168.969 233.673C168.402 231.996 167.817 230.323 167.215 228.656Z" fill="#1C3EB2"/>
<path d="M164.154 233.128C164.219 231.974 164.271 230.816 164.311 229.657L165.296 229.328C165.207 232.882 165.01 236.453 164.707 240.041L163.4 240.429C161.146 237.607 158.993 234.738 156.943 231.822L158.01 231.538C158.682 232.486 159.369 233.419 160.063 234.352C161.427 233.969 162.79 233.561 164.154 233.128ZM160.601 235.144C162.407 237.562 163.393 238.742 163.811 239.362C163.811 238.518 163.99 236.659 164.109 234.091C162.95 234.464 161.78 234.815 160.601 235.144Z" fill="#1C3EB2"/>
<path d="M147.985 236.554C148.049 235.673 148.414 234.84 149.019 234.196C149.624 233.552 150.432 233.135 151.307 233.016C154.159 232.426 156.174 234.248 156.861 236.995C157.511 239.623 156.503 242.429 153.3 243.094C150.889 243.579 149.299 242.549 148.709 240.959L149.777 240.772C150.082 241.376 150.592 241.852 151.215 242.114C151.839 242.377 152.536 242.409 153.181 242.205C155.697 241.69 156.242 239.324 155.756 237.286C155.271 235.248 153.853 233.397 151.442 233.897C150.824 233.99 150.253 234.282 149.816 234.727C149.378 235.173 149.097 235.749 149.015 236.368L147.985 236.554Z" fill="#1C3EB2"/>
<path d="M142.715 234.539C142.864 235.771 143.013 236.995 143.17 238.227C143.179 238.314 143.213 238.397 143.267 238.465C144.72 240.312 146.241 242.131 147.828 243.922L146.559 244.117C145.275 242.624 143.237 240.07 142.7 239.324C142.356 240.168 140.946 243.131 139.983 244.9L138.781 245.012C139.95 242.877 141.05 240.727 142.08 238.563C142.106 238.487 142.106 238.406 142.08 238.331L141.655 234.658L142.715 234.539Z" fill="#1C3EB2"/>
<path d="M132.278 235.367C132.39 238.697 132.487 242.034 132.592 245.371L131.054 245.416C129.002 242.582 127.094 239.647 125.336 236.622C125.388 237.995 125.336 239.518 125.284 241.145C125.246 242.564 125.201 243.982 125.164 245.393L124.082 245.393C124.206 242.059 124.331 238.724 124.455 235.39L125.776 235.427C127.068 237.734 130.748 243.318 131.554 244.385C131.45 243.154 131.427 241.586 131.383 239.772C131.383 238.324 131.315 236.868 131.286 235.42L132.278 235.367Z" fill="#1C3EB2"/>
<path d="M114.698 239.444C116.43 239.643 118.172 239.807 119.923 239.936L120.214 236.039C118.371 235.905 116.527 235.733 114.69 235.509L114.937 234.629C117.047 234.877 119.162 235.069 121.282 235.203C121.063 238.533 120.844 241.862 120.625 245.192C118.386 245.05 116.094 244.841 113.832 244.58L113.944 243.676C115.825 243.9 117.711 244.079 119.602 244.214C119.692 243.087 119.774 241.974 119.856 240.84C118.099 240.715 116.358 240.551 114.631 240.347L114.698 239.444Z" fill="#1C3EB2"/>
<path d="M108.629 242.93C109.793 243.124 110.965 243.296 112.137 243.452C112.137 243.751 112.055 244.05 112.018 244.348C109.276 243.98 106.538 243.525 103.806 242.982C103.866 242.684 103.926 242.392 103.993 242.094C105.157 242.333 106.322 242.549 107.494 242.751L109.062 233.793L110.077 233.964C109.609 236.945 109.126 239.934 108.629 242.93Z" fill="#1C3EB2"/>
<path d="M101.761 232.269C101.855 235.723 102.029 239.184 102.283 242.653L101.141 242.407C100.992 239.503 100.82 234.419 100.91 233.24C100.447 234.255 97.6398 238.876 96.214 241.183L95.1092 240.884C95.0644 238.428 95.1465 232.672 95.2585 231.732C94.512 233.143 91.4662 237.465 90.0926 239.369L89.0326 239.025C91.1378 236.213 93.1608 233.357 95.1017 230.455L96.1842 230.776C96.102 233.195 96.0946 238.727 96.0573 239.734C96.7291 238.48 99.4464 234.143 100.678 231.971L101.761 232.269Z" fill="#1C3EB2"/>
<path d="M80.3058 230.336C81.4405 227.835 83.8144 226.215 86.7034 227.35C89.3759 228.402 90.1896 231.082 89.249 233.785C88.3084 236.487 85.8674 238.084 82.7917 236.875C79.9475 235.763 79.089 233.016 80.3058 230.336ZM88.1666 233.464C88.9131 231.351 88.4727 229.029 86.3302 228.186C84.016 227.267 82.2692 228.701 81.3585 230.784C80.4477 232.866 80.8135 235.136 83.165 236.069C85.6434 237.039 87.4276 235.531 88.1666 233.464Z" fill="#1C3EB2"/>
<path d="M77.1556 228.343L79.1339 224.237L80.0744 224.685C78.6511 227.701 77.2228 230.716 75.7895 233.732C74.5503 233.15 73.321 232.548 72.1017 231.926C70.116 230.911 69.6084 229.38 70.3698 228.007C70.6257 227.512 71.0492 227.123 71.5646 226.911C72.0801 226.7 72.654 226.678 73.1842 226.85C72.4377 226.185 72.0794 225.267 72.9005 223.759C72.9677 223.64 73.0349 223.52 73.0946 223.401C73.4673 222.839 73.7542 222.225 73.9456 221.579L74.8489 222.064C74.6716 222.754 74.3816 223.41 73.9904 224.005L73.8784 224.214C73.1319 225.573 73.2514 226.387 75.0057 227.283L77.1556 228.343ZM76.7674 229.089L74.5279 228.044C72.9602 227.245 71.9674 227.402 71.3776 228.492C70.7879 229.582 71.2433 230.478 72.684 231.209C73.4903 231.627 74.3114 232.03 75.1251 232.419C75.6874 231.319 76.2349 230.209 76.7674 229.089Z" fill="#1C3EB2"/>
<path d="M66.4731 228.843L65.4952 228.268L68.093 223.908C66.9956 224.17 63.1213 224.864 60.6279 225.215L59.4036 224.401C61.5685 224.152 63.6961 223.841 65.7863 223.468C65.3757 220.96 65.0398 218.459 64.8158 216.003L65.8833 216.712C66.1297 218.907 66.4283 221.116 66.7941 223.326C67.4212 223.237 68.0483 223.14 68.6679 223.035C69.3248 221.915 69.9891 220.795 70.6535 219.683L71.5494 220.213C69.8424 223.08 68.1503 225.956 66.4731 228.843Z" fill="#1C3EB2"/>
<path d="M195.787 226.258L194.809 226.878C193.212 224.295 191.609 221.714 190.002 219.136C188.429 220.132 186.836 221.08 185.224 221.981C185.127 221.689 185.03 221.398 184.925 221.107C186.782 220.062 188.616 218.96 190.427 217.8C192.214 220.627 194 223.446 195.787 226.258Z" fill="#0B1D5D"/>
<path d="M179.573 229.281C181.193 228.534 182.805 227.713 184.41 226.862L182.596 223.406C180.902 224.302 179.185 225.153 177.46 225.959C177.378 225.66 177.289 225.369 177.207 225.078C179.197 224.142 181.161 223.147 183.097 222.092C184.669 225.033 186.242 227.974 187.815 230.916C185.739 232.035 183.639 233.093 181.514 234.088L181.133 233.267C182.9 232.436 184.642 231.563 186.359 230.647L184.791 227.661C183.179 228.512 181.554 229.323 179.916 230.094L179.573 229.281Z" fill="#0B1D5D"/>
<path d="M167.539 229.072L168.286 228.788C168.546 229.215 168.754 229.671 168.905 230.147C169.047 229.348 169.51 228.206 171.362 227.467C174.056 226.377 176.348 227.721 177.52 230.326C178.692 232.932 178.035 235.865 174.96 237.097C172.653 238.023 170.749 237.433 169.839 235.828L170.876 235.447C171.705 236.507 172.929 236.94 174.661 236.261C177.147 235.261 177.438 233.029 176.483 230.841C175.602 228.833 173.84 227.437 171.608 228.333C169.376 229.229 169.271 230.916 169.951 232.812L169.988 232.909C170.988 232.543 171.989 232.163 172.974 231.752C173.078 232.036 173.19 232.312 173.302 232.596C171.974 233.133 170.637 233.631 169.294 234.089C168.726 232.411 168.142 230.739 167.539 229.072Z" fill="#0B1D5D"/>
<path d="M164.478 233.544C164.543 232.389 164.595 231.232 164.635 230.073L165.621 229.744C165.531 233.298 165.334 236.868 165.031 240.457L163.724 240.845C161.47 238.023 159.317 235.154 157.267 232.238L158.335 231.954C159.006 232.902 159.693 233.835 160.387 234.768C161.751 234.385 163.115 233.977 164.478 233.544ZM160.925 235.56C162.731 237.978 163.717 239.158 164.135 239.777C164.135 238.934 164.314 237.075 164.434 234.507C163.274 234.88 162.104 235.231 160.925 235.56Z" fill="#0B1D5D"/>
<path d="M148.309 236.97C148.373 236.089 148.738 235.256 149.343 234.612C149.948 233.968 150.756 233.551 151.631 233.432C154.483 232.842 156.499 234.663 157.185 237.411C157.835 240.038 156.827 242.845 153.625 243.51C151.213 243.995 149.623 242.965 149.034 241.375L150.101 241.188C150.406 241.792 150.916 242.268 151.54 242.53C152.163 242.793 152.86 242.825 153.505 242.621C156.021 242.106 156.566 239.74 156.081 237.702C155.595 235.664 154.177 233.812 151.766 234.313C151.148 234.406 150.578 234.697 150.14 235.143C149.702 235.589 149.422 236.164 149.34 236.784L148.309 236.97Z" fill="#0B1D5D"/>
<path d="M143.039 234.955C143.188 236.186 143.338 237.411 143.494 238.642C143.503 238.73 143.537 238.812 143.591 238.881C145.045 240.728 146.565 242.547 148.153 244.338L146.883 244.532C145.599 243.039 143.562 240.486 143.024 239.74C142.681 240.583 141.27 243.547 140.307 245.316L139.105 245.428C140.274 243.293 141.374 241.143 142.404 238.978C142.43 238.903 142.43 238.822 142.404 238.747L141.979 235.074L143.039 234.955Z" fill="#0B1D5D"/>
<path d="M132.603 235.783C132.715 239.113 132.812 242.45 132.916 245.787L131.378 245.831C129.326 242.998 127.418 240.063 125.66 237.037C125.712 238.411 125.66 239.934 125.608 241.561C125.57 242.98 125.526 244.398 125.488 245.809L124.406 245.809C124.53 242.475 124.655 239.14 124.779 235.806L126.101 235.843C127.392 238.15 131.072 243.734 131.879 244.801C131.774 243.569 131.752 242.002 131.707 240.188C131.707 238.739 131.64 237.284 131.61 235.835L132.603 235.783Z" fill="#0B1D5D"/>
<path d="M115.022 239.859C116.754 240.058 118.496 240.223 120.248 240.352L120.539 236.455C118.695 236.321 116.851 236.149 115.015 235.925L115.261 235.044C117.371 235.293 119.486 235.485 121.606 235.619C121.387 238.949 121.168 242.278 120.949 245.607C118.71 245.466 116.418 245.257 114.156 244.995L114.268 244.092C116.149 244.316 118.035 244.495 119.927 244.63C120.016 243.502 120.098 242.39 120.18 241.255C118.424 241.131 116.682 240.967 114.955 240.763L115.022 239.859Z" fill="#0B1D5D"/>
<path d="M108.953 243.346C110.117 243.54 111.289 243.711 112.461 243.868C112.461 244.167 112.379 244.465 112.342 244.764C109.6 244.396 106.863 243.94 104.13 243.398C104.19 243.099 104.25 242.808 104.317 242.51C105.482 242.748 106.646 242.965 107.818 243.166L109.386 234.208L110.401 234.38C109.933 237.361 109.451 240.35 108.953 243.346Z" fill="#0B1D5D"/>
<path d="M102.085 232.685C102.179 236.139 102.354 239.6 102.607 243.069L101.465 242.823C101.316 239.919 101.144 234.835 101.234 233.656C100.771 234.671 97.9641 239.292 96.5382 241.598L95.4334 241.3C95.3887 238.844 95.4708 233.088 95.5827 232.148C94.8362 233.559 91.7904 237.881 90.4168 239.784L89.3568 239.441C91.462 236.629 93.485 233.773 95.426 230.871L96.5084 231.192C96.4263 233.611 96.4188 239.142 96.3815 240.15C97.0534 238.896 99.7706 234.559 101.002 232.386L102.085 232.685Z" fill="#0B1D5D"/>
<path d="M80.6301 230.751C81.7648 228.251 84.1387 226.631 87.0277 227.765C89.7002 228.818 90.5139 231.498 89.5733 234.2C88.6326 236.903 86.1916 238.5 83.1159 237.291C80.2717 236.179 79.4132 233.431 80.6301 230.751ZM88.4908 233.879C89.2373 231.767 88.7969 229.445 86.6544 228.601C84.3402 227.683 82.5934 229.117 81.6827 231.199C80.7719 233.282 81.1377 235.551 83.4892 236.485C85.9676 237.455 87.7518 235.947 88.4908 233.879Z" fill="#0B1D5D"/>
<path d="M77.4799 228.758L79.4581 224.652L80.3987 225.1C78.9753 228.116 77.547 231.132 76.1137 234.148C74.8745 233.566 73.6452 232.964 72.4259 232.342C70.4402 231.326 69.9326 229.796 70.694 228.422C70.9499 227.927 71.3734 227.539 71.8889 227.327C72.4043 227.115 72.9783 227.093 73.5084 227.265C72.7619 226.601 72.4036 225.683 73.2247 224.175C73.2919 224.055 73.3591 223.936 73.4188 223.816C73.7915 223.255 74.0784 222.641 74.2698 221.995L75.1731 222.48C74.9958 223.17 74.7058 223.826 74.3147 224.421L74.2026 224.63C73.4561 225.989 73.5756 226.802 75.3299 227.698L77.4799 228.758ZM77.0916 229.505L74.8521 228.46C73.2844 227.661 72.2916 227.818 71.7018 228.908C71.1121 229.998 71.5675 230.893 73.0083 231.625C73.8145 232.043 74.6356 232.446 75.4493 232.834C76.0117 231.734 76.5591 230.625 77.0916 229.505Z" fill="#0B1D5D"/>
<path d="M66.7973 229.259L65.8194 228.684L68.4172 224.324C67.3199 224.585 63.4455 225.28 60.9521 225.631L59.7278 224.817C61.8927 224.568 64.0203 224.257 66.1105 223.884C65.7 221.375 65.364 218.875 65.1401 216.419L66.2076 217.128C66.4539 219.323 66.7525 221.532 67.1183 223.742C67.7454 223.652 68.3725 223.555 68.9921 223.451C69.649 222.331 70.3133 221.211 70.9777 220.099L71.8736 220.629C70.1666 223.496 68.4745 226.372 66.7973 229.259Z" fill="#0B1D5D"/>
</g>
<defs>
<filter id="filter0_i_287_2985" x="28.4668" y="37.5798" width="188.98" height="175.72" filterUnits="userSpaceOnUse" color-interpolation-filters="sRGB">
<feFlood flood-opacity="0" result="BackgroundImageFix"/>
<feBlend mode="normal" in="SourceGraphic" in2="BackgroundImageFix" result="shape"/>
<feColorMatrix in="SourceAlpha" type="matrix" values="0 0 0 0 0 0 0 0 0 0 0 0 0 0 0 0 0 0 127 0" result="hardAlpha"/>
<feOffset dy="2"/>
<feComposite in2="hardAlpha" operator="arithmetic" k2="-1" k3="1"/>
<feColorMatrix type="matrix" values="0 0 0 0 0.55 0 0 0 0 0.650862 0 0 0 0 1 0 0 0 1 0"/>
<feBlend mode="normal" in2="shape" result="effect1_innerShadow_287_2985"/>
</filter>
<linearGradient id="paint0_linear_287_2985" x1="127.93" y1="3.59985" x2="127.93" y2="252.26" gradientUnits="userSpaceOnUse">
<stop stop-color="#456DF5"/>
<stop offset="1" stop-color="#234DDF"/>
</linearGradient>
<linearGradient id="paint1_linear_287_2985" x1="40.8991" y1="-46.1319" x2="127.93" y2="252.26" gradientUnits="userSpaceOnUse">
<stop stop-color="#0E2B8F"/>
<stop offset="0.496232" stop-color="#8DA7FF"/>
<stop offset="1" stop-color="#0E2B8F"/>
</linearGradient>
<linearGradient id="paint2_linear_287_2985" x1="127.931" y1="28.4658" x2="127.931" y2="227.394" gradientUnits="userSpaceOnUse">
<stop stop-color="#244EE1"/>
<stop offset="1" stop-color="#06248C"/>
</linearGradient>
<linearGradient id="paint3_linear_287_2985" x1="127.93" y1="28.4658" x2="127.93" y2="227.394" gradientUnits="userSpaceOnUse">
<stop stop-color="#00308F"/>
<stop offset="1" stop-color="#000E29" stop-opacity="0.49"/>
</linearGradient>
<linearGradient id="paint4_linear_287_2985" x1="97.2637" y1="77.3643" x2="158.02" y2="179.023" gradientUnits="userSpaceOnUse">
<stop stop-color="#479BFF"/>
<stop offset="1" stop-color="#0057FF"/>
</linearGradient>
<linearGradient id="paint5_linear_287_2985" x1="21.4155" y1="100.026" x2="14.2102" y2="98.095" gradientUnits="userSpaceOnUse">
<stop stop-color="#11256E"/>
<stop offset="1" stop-color="#0A1C5B" stop-opacity="0.43"/>
</linearGradient>
<linearGradient id="paint6_linear_287_2985" x1="239.992" y1="158.589" x2="232.786" y2="156.658" gradientUnits="userSpaceOnUse">
<stop stop-color="#11256E"/>
<stop offset="1" stop-color="#0A1C5B" stop-opacity="0.43"/>
</linearGradient>
<linearGradient id="paint7_linear_287_2985" x1="45.5507" y1="55.4069" x2="39.9904" y2="50.4342" gradientUnits="userSpaceOnUse">
<stop stop-color="#11256E"/>
<stop offset="1" stop-color="#0A1C5B" stop-opacity="0.43"/>
</linearGradient>
<linearGradient id="paint8_linear_287_2985" x1="214.213" y1="206.251" x2="208.652" y2="201.278" gradientUnits="userSpaceOnUse">
<stop stop-color="#11256E"/>
<stop offset="1" stop-color="#0A1C5B" stop-opacity="0.43"/>
</linearGradient>
<linearGradient id="paint9_linear_287_2985" x1="57.1497" y1="44.2122" x2="52.3804" y2="38.4763" gradientUnits="userSpaceOnUse">
<stop stop-color="#11256E"/>
<stop offset="1" stop-color="#0A1C5B" stop-opacity="0.43"/>
</linearGradient>
<linearGradient id="paint10_linear_287_2985" x1="201.823" y1="218.205" x2="197.054" y2="212.469" gradientUnits="userSpaceOnUse">
<stop stop-color="#11256E"/>
<stop offset="1" stop-color="#0A1C5B" stop-opacity="0.43"/>
</linearGradient>
<linearGradient id="paint11_linear_287_2985" x1="27.109" y1="83.9285" x2="20.2917" y2="80.9005" gradientUnits="userSpaceOnUse">
<stop stop-color="#11256E"/>
<stop offset="1" stop-color="#0A1C5B" stop-opacity="0.43"/>
</linearGradient>
<linearGradient id="paint12_linear_287_2985" x1="233.908" y1="175.782" x2="227.091" y2="172.754" gradientUnits="userSpaceOnUse">
<stop stop-color="#11256E"/>
<stop offset="1" stop-color="#0A1C5B" stop-opacity="0.43"/>
</linearGradient>
<linearGradient id="paint13_linear_287_2985" x1="35.4122" y1="68.645" x2="29.1608" y2="64.575" gradientUnits="userSpaceOnUse">
<stop stop-color="#11256E"/>
<stop offset="1" stop-color="#0A1C5B" stop-opacity="0.43"/>
</linearGradient>
<linearGradient id="paint14_linear_287_2985" x1="225.041" y1="192.108" x2="218.79" y2="188.038" gradientUnits="userSpaceOnUse">
<stop stop-color="#11256E"/>
<stop offset="1" stop-color="#0A1C5B" stop-opacity="0.43"/>
</linearGradient>
<linearGradient id="paint15_linear_287_2985" x1="18.3254" y1="116.575" x2="10.9092" y2="115.773" gradientUnits="userSpaceOnUse">
<stop stop-color="#11256E"/>
<stop offset="1" stop-color="#0A1C5B" stop-opacity="0.43"/>
</linearGradient>
<linearGradient id="paint16_linear_287_2985" x1="243.292" y1="140.913" x2="235.876" y2="140.11" gradientUnits="userSpaceOnUse">
<stop stop-color="#11256E"/>
<stop offset="1" stop-color="#0A1C5B" stop-opacity="0.43"/>
</linearGradient>
<linearGradient id="paint17_linear_287_2985" x1="17.7656" y1="132.465" x2="10.3114" y2="132.746" gradientUnits="userSpaceOnUse">
<stop stop-color="#11256E"/>
<stop offset="1" stop-color="#0A1C5B" stop-opacity="0.43"/>
</linearGradient>
<linearGradient id="paint18_linear_287_2985" x1="243.883" y1="123.937" x2="236.429" y2="124.218" gradientUnits="userSpaceOnUse">
<stop stop-color="#11256E"/>
<stop offset="1" stop-color="#0A1C5B" stop-opacity="0.43"/>
</linearGradient>
<linearGradient id="paint19_linear_287_2985" x1="19.5289" y1="148.328" x2="12.195" y2="149.69" gradientUnits="userSpaceOnUse">
<stop stop-color="#11256E"/>
<stop offset="1" stop-color="#0A1C5B" stop-opacity="0.43"/>
</linearGradient>
<linearGradient id="paint20_linear_287_2985" x1="242.004" y1="106.995" x2="234.67" y2="108.357" gradientUnits="userSpaceOnUse">
<stop stop-color="#11256E"/>
<stop offset="1" stop-color="#0A1C5B" stop-opacity="0.43"/>
</linearGradient>
<linearGradient id="paint21_linear_287_2985" x1="23.1584" y1="162.492" x2="16.0716" y2="164.82" gradientUnits="userSpaceOnUse">
<stop stop-color="#11256E"/>
<stop offset="1" stop-color="#0A1C5B" stop-opacity="0.43"/>
</linearGradient>
<linearGradient id="paint22_linear_287_2985" x1="238.129" y1="91.8646" x2="231.042" y2="94.1929" gradientUnits="userSpaceOnUse">
<stop stop-color="#11256E"/>
<stop offset="1" stop-color="#0A1C5B" stop-opacity="0.43"/>
</linearGradient>
<linearGradient id="paint23_linear_287_2985" x1="28.6505" y1="176.067" x2="21.9382" y2="179.321" gradientUnits="userSpaceOnUse">
<stop stop-color="#11256E"/>
<stop offset="1" stop-color="#0A1C5B" stop-opacity="0.43"/>
</linearGradient>
<linearGradient id="paint24_linear_287_2985" x1="232.266" y1="77.3609" x2="225.553" y2="80.6149" gradientUnits="userSpaceOnUse">
<stop stop-color="#11256E"/>
<stop offset="1" stop-color="#0A1C5B" stop-opacity="0.43"/>
</linearGradient>
<linearGradient id="paint25_linear_287_2985" x1="35.678" y1="188.451" x2="29.4451" y2="192.549" gradientUnits="userSpaceOnUse">
<stop stop-color="#11256E"/>
<stop offset="1" stop-color="#0A1C5B" stop-opacity="0.43"/>
</linearGradient>
<linearGradient id="paint26_linear_287_2985" x1="224.752" y1="64.1366" x2="218.519" y2="68.2347" gradientUnits="userSpaceOnUse">
<stop stop-color="#11256E"/>
<stop offset="1" stop-color="#0A1C5B" stop-opacity="0.43"/>
</linearGradient>
<linearGradient id="paint27_linear_287_2985" x1="44.6694" y1="200.287" x2="39.0495" y2="205.192" gradientUnits="userSpaceOnUse">
<stop stop-color="#11256E"/>
<stop offset="1" stop-color="#0A1C5B" stop-opacity="0.43"/>
</linearGradient>
<linearGradient id="paint28_linear_287_2985" x1="215.15" y1="51.4899" x2="209.53" y2="56.3952" gradientUnits="userSpaceOnUse">
<stop stop-color="#11256E"/>
<stop offset="1" stop-color="#0A1C5B" stop-opacity="0.43"/>
</linearGradient>
<linearGradient id="paint29_linear_287_2985" x1="55.4516" y1="211.029" x2="50.5666" y2="216.667" gradientUnits="userSpaceOnUse">
<stop stop-color="#11256E"/>
<stop offset="1" stop-color="#0A1C5B" stop-opacity="0.43"/>
</linearGradient>
<linearGradient id="paint30_linear_287_2985" x1="203.635" y1="40.0169" x2="198.75" y2="45.6546" gradientUnits="userSpaceOnUse">
<stop stop-color="#11256E"/>
<stop offset="1" stop-color="#0A1C5B" stop-opacity="0.43"/>
</linearGradient>
<clipPath id="clip0_287_2985">
<rect width="256" height="256" fill="white"/>
</clipPath>
</defs>
</svg>
