<?xml version="1.0" encoding="utf-8"?>
<!-- Generator: Adobe Illustrator 27.4.1, SVG Export Plug-In . SVG Version: 6.00 Build 0)  -->
<svg version="1.1" id="Layer_1" xmlns="http://www.w3.org/2000/svg" xmlns:xlink="http://www.w3.org/1999/xlink" x="0px" y="0px"
	 viewBox="0 0 127.5 123.4" style="enable-background:new 0 0 127.5 123.4;" xml:space="preserve">
  <rect width="100%" height="100%" fill="white"/>
<style type="text/css">
	.st0{fill-rule:evenodd;clip-rule:evenodd;fill:#5ECE71;}
</style>
<g id="Layer_1_00000125561890902708237600000011486479911682796212_">
</g>
<g id="Layer_2_00000133508342295711244450000003923191534806367885_">
	<path id="path0" class="st0" d="M71.3,26.1c-0.3,0-1.6,0.1-2.8,0.2c-2.1,0.2-5.1,0.5-5.6,0.7c-0.1,0-0.7,0.1-1.2,0.2
		c-4,0.6-9,2.2-11.8,3.8c-0.5,0.3-1.1,0.6-1.2,0.6c-0.6,0.2-4.8,3.2-6.4,4.5c-11.5,9.4-17.6,24.1-15,36.3c0.3,1.5,0.4,1.5,1.4,0.7
		c1.7-1.2,3.2-2.2,5.2-3.4c1.2-0.7,6.4-3.2,6.6-3.2c0,0,0.4-0.2,0.9-0.4c4.6-2.1,17.9-6.7,24.6-8.4c0.2-0.1,1.4-0.4,2.5-0.7
		c6.3-1.7,7.4-2,7.4-1.7c0,0.1-0.4,0.2-0.8,0.4c-2.2,0.8-8.1,3.2-8.4,3.4c-0.1,0.1-0.2,0.1-0.3,0.1c-0.1,0-0.6,0.2-1.2,0.5
		s-1,0.5-1.1,0.5c-0.1,0-0.6,0.2-1.2,0.5s-1.2,0.5-1.2,0.5s-0.7,0.3-1.4,0.6s-1.4,0.6-1.4,0.6c-0.7,0-15.5,7.8-20.2,10.6
		c-1.1,0.6-2,1.2-2,1.2c0,0-1.5,0.9-6.2,3.9c-5.2,3.3-13.9,9.4-19.2,13.6c-0.6,0.5-1.4,1.1-1.7,1.3c-4.6,3.6-5.2,4.3-2.6,2.9
		c5.9-3.1,12.5-6.2,17.2-8.1c2.9-1.2,6-2,8-2.3l0.9-0.1l2.2,2.2c5.6,5.6,11.6,8.5,20.5,9.7c2.1,0.3,8.9,0.2,10.5-0.1
		c0.5-0.1,1.5-0.3,2.3-0.4c0.8-0.1,1.7-0.3,1.9-0.4s0.9-0.2,1.5-0.4c10.2-2.7,19-9,26.8-19.4c0.2-0.2,0.9-1.1,1.5-2
		c0.7-0.9,1.4-1.8,1.6-2.1c0.2-0.2,0.6-0.9,1-1.4c4-5.7,9.8-15.1,13.4-22c0.4-0.8,1.1-2,1.4-2.7s1.6-3.2,2.8-5.5
		c1.2-2.3,2.2-4.4,2.2-4.5c0.3-0.6,0.2-0.8-1.3-1.4c-0.2-0.1-1.3-0.5-2.5-0.8c-1.2-0.4-2.6-0.8-3.1-1c-2-0.7-5.4-1.6-9.5-2.7
		c-3.6-0.9-4.5-1.2-5.9-1.5c-0.7-0.1-1.4-0.3-1.6-0.4s-0.8-0.2-1.3-0.3c-1.4-0.3-2.1-0.4-3.4-0.7c-5-1.1-9.3-1.5-16.6-1.5
		C74.5,26,71.7,26.1,71.3,26.1"/>
</g>
</svg>
