<svg width="1286" height="1286" viewBox="0 0 1286 1286" fill="none" xmlns="http://www.w3.org/2000/svg">
<circle cx="643" cy="643" r="615" transform="rotate(-180 643 643)" fill="black" stroke="url(#paint0_linear_104_16)" stroke-width="56"/>
<path d="M534.456 519.355L383.594 267.531L470.567 216.986L611.94 474.678C612.113 474.631 612.286 474.585 612.459 474.539C612.551 474.514 612.643 474.49 612.735 474.465L607.201 182H707.629L702.096 474.414C702.527 474.527 702.957 474.643 703.387 474.76L843.734 218.937L930.708 269.482L780.848 519.632C781.052 519.834 781.256 520.037 781.459 520.241L1028.29 370.412L1078.51 457.959L826.656 597.955C826.809 598.507 826.959 599.061 827.106 599.615L1089 594.096V688.425H705.578V811.509L993.616 811.509V899.414H703.739L705.578 996.612V1105H607.201L612.665 816.224C612.358 816.142 612.05 816.06 611.743 815.977C611.512 815.914 611.281 815.851 611.05 815.787L472.232 1068.82L385.259 1018.28L533.661 770.561C533.163 770.062 532.669 769.561 532.178 769.057L284.402 919.459L234.188 831.912L487.868 690.898C487.757 690.478 487.647 690.057 487.539 689.636L198 695.187L198 594.097L487.909 599.655C488.047 599.135 488.187 598.616 488.329 598.098L233.777 456.6L283.991 369.053L533.377 520.432C533.735 520.071 534.095 519.712 534.456 519.355Z" fill="#F1F1F1"/>
<defs>
<linearGradient id="paint0_linear_104_16" x1="643" y1="-6.10352e-05" x2="643" y2="1637" gradientUnits="userSpaceOnUse">
<stop stop-color="#F1F1F1"/>
<stop offset="1" stop-color="#666666"/>
</linearGradient>
</defs>
</svg>
