<svg xmlns="http://www.w3.org/2000/svg" viewBox="0 0 150 150" fill="none">
    <circle cx="75" cy="75" r="75" fill="#5C94E8"></circle>
    <g fill="white">
        <path d="m32 76.1h21.6v5.7h-21.6v-5.7z m0 -12.3h21.6v5.7h-21.6v-5.7z m27.5 12.3h21.5v5.7h-21.5v-5.7z m0 -12.3h21.5v5.7h-21.5v-5.7z m0 -12.3h21.5v5.7h-21.5v-5.7z m-27.5 49.2h21.6v5.6h-21.6v-5.6z m27.5 0h21.5v5.6h-21.5v-5.6z m-27.5 -12.3h21.6v5.7h-21.6v-5.7z m27.5 0h21.5v5.7h-21.5v-5.7z" />
        <path d="M117.519 106H96.4809L96.4809 100.12L110.216 91.6343V94.7257L96.4809 86.4821L96.4809 80.6025L117.519 80.5419V87.0579L106.219 87.1186V86.0881L115.626 91.7253V94.8772L106.219 100.757V99.4839H117.519V106Z" />
        <path d="M118 69.1736C118 70.9516 117.8 72.669 117.399 74.3258C116.998 75.9826 116.477 77.3464 115.836 78.4173L110.667 76.1139C111.248 75.1037 111.719 73.9823 112.079 72.7498C112.42 71.4971 112.59 70.2848 112.59 69.1129C112.59 68.426 112.55 67.8906 112.47 67.5067C112.37 67.1026 112.24 66.8096 112.079 66.6277C111.899 66.4459 111.689 66.355 111.448 66.355C111.067 66.355 110.767 66.5671 110.546 66.9914C110.326 67.4157 110.146 67.9815 110.005 68.6886C109.845 69.3756 109.685 70.1333 109.525 70.9617C109.344 71.7901 109.114 72.6286 108.833 73.4772C108.553 74.3056 108.182 75.0734 107.721 75.7805C107.26 76.4675 106.659 77.0231 105.918 77.4474C105.157 77.8717 104.215 78.0839 103.093 78.0839C101.791 78.0839 100.608 77.7202 99.5464 76.9928C98.4645 76.2453 97.6029 75.1441 96.9617 73.6893C96.3206 72.2144 96 70.3858 96 68.2037C96 66.7692 96.1503 65.3548 96.4508 63.9607C96.7514 62.5666 97.2122 61.3139 97.8333 60.2026L102.973 62.3544C102.452 63.4051 102.061 64.4254 101.801 65.4155C101.54 66.3853 101.41 67.3349 101.41 68.2643C101.41 68.9513 101.47 69.4968 101.59 69.9009C101.71 70.305 101.871 70.598 102.071 70.7798C102.271 70.9415 102.492 71.0223 102.732 71.0223C103.093 71.0223 103.383 70.8102 103.604 70.3858C103.804 69.9615 103.974 69.4059 104.115 68.719C104.255 68.0118 104.405 67.244 104.566 66.4156C104.726 65.567 104.946 64.7285 105.227 63.9001C105.507 63.0717 105.878 62.314 106.339 61.627C106.8 60.9199 107.401 60.3541 108.142 59.9298C108.883 59.5055 109.805 59.2934 110.907 59.2934C112.189 59.2934 113.372 59.6672 114.454 60.4147C115.515 61.1421 116.377 62.2332 117.038 63.6879C117.679 65.1427 118 66.9712 118 69.1736Z" />
        <path d="M117.519 52.1536H108.292L112.53 50.5171L96.4809 60.1548L96.4809 52.6083L107.451 46.0922V50.4867L96.4809 43.9101L96.4809 37L112.53 46.5771L108.292 45.0011L117.519 45.0011V52.1536Z" />
    </g>
</svg>