<?xml version="1.0" encoding="UTF-8" standalone="no"?>
<!DOCTYPE svg PUBLIC "-//W3C//DTD SVG 1.1//EN" "http://www.w3.org/Graphics/SVG/1.1/DTD/svg11.dtd">
<svg xmlns="http://www.w3.org/2000/svg" version="1.1" viewBox="0 0 128 128" width="128.0pt" height="128.0pt">
<path d="M 0.00 0.00 L 128.00 0.00 L 128.00 128.00 L 0.00 128.00 L 0.00 0.00 Z" fill="#ffffff" />
<path d="M 69.85 5.36 C 82.45 6.62 95.06 11.88 104.20 20.78 C 113.98 29.53 121.08 42.31 122.19 55.46 C 120.57 50.21 119.54 45.01 117.02 40.07 C 111.83 28.71 102.66 19.29 91.84 13.17 C 85.23 9.58 77.20 6.94 69.76 5.90 C 63.42 5.40 56.99 5.86 50.62 5.73 C 56.90 4.68 63.48 5.50 69.85 5.36 Z" fill="#ce9495" />
<path d="M 50.62 5.73 C 56.99 5.86 63.42 5.40 69.76 5.90 C 77.20 6.94 85.23 9.58 91.84 13.17 C 102.66 19.29 111.83 28.71 117.02 40.07 C 119.54 45.01 120.57 50.21 122.19 55.46 L 122.19 55.46 C 122.24 63.25 122.70 70.69 120.48 78.27 C 117.69 87.71 112.75 96.76 105.72 103.71 C 94.64 115.09 78.83 121.67 62.99 121.99 C 58.60 122.02 54.18 121.21 49.80 120.85 C 39.79 118.45 29.70 114.00 22.20 106.80 C 13.28 99.24 7.13 89.00 4.18 77.73 C 2.56 71.54 2.68 65.32 2.84 58.97 C 3.08 52.59 4.76 46.34 7.61 40.64 C 8.83 38.20 9.90 35.71 10.93 33.19 C 14.22 34.49 17.21 35.74 20.85 35.00 C 25.66 34.29 29.56 30.68 31.30 26.24 C 32.32 22.28 31.99 18.34 30.14 14.68 C 31.93 13.63 33.71 12.56 35.47 11.44 C 39.99 8.49 45.37 6.80 50.62 5.73 Z" fill="#fd1616" />
<path d="M 12.02 16.65 C 12.64 16.54 13.27 16.43 13.90 16.34 C 14.50 18.97 15.23 21.55 15.96 24.15 C 16.23 21.45 16.82 18.83 17.52 16.23 C 18.06 16.39 18.60 16.56 19.14 16.73 C 19.71 19.00 20.31 21.27 20.93 23.53 C 21.43 21.10 22.10 18.72 22.59 16.29 C 23.27 16.38 23.95 16.48 24.63 16.57 C 23.53 20.17 22.68 23.75 22.03 27.47 C 21.35 27.47 20.66 27.48 19.97 27.49 C 19.50 24.94 18.86 22.50 18.12 20.02 C 17.49 22.52 16.92 25.04 16.32 27.55 C 15.78 27.57 15.25 27.59 14.71 27.62 C 13.72 24.00 12.57 20.36 12.02 16.65 Z" fill="#1f1f1f" />
<path d="M 39.87 18.43 C 42.26 20.48 44.48 22.64 46.63 24.94 C 46.36 29.84 49.35 33.53 49.84 38.38 C 52.16 38.88 54.49 39.32 56.81 39.80 C 57.23 41.54 57.63 43.29 58.06 45.02 C 54.87 44.20 50.64 43.19 47.51 44.52 C 46.07 45.83 44.82 48.08 44.49 50.00 C 44.80 52.13 47.04 54.12 48.24 55.84 C 47.08 57.88 45.92 59.93 44.77 61.98 C 42.14 60.75 39.54 59.51 36.75 58.67 C 35.41 56.13 34.05 53.88 33.82 50.94 C 33.55 47.35 33.17 43.83 32.63 40.27 C 32.85 39.49 33.07 38.75 33.27 37.97 C 35.42 36.48 37.46 34.92 39.47 33.25 C 39.86 35.14 40.25 37.01 40.73 38.87 C 41.65 37.98 42.55 37.07 43.49 36.19 C 43.61 32.43 43.90 28.40 43.18 24.70 C 42.27 22.22 39.27 21.19 37.13 20.04 C 38.04 19.49 38.96 18.96 39.87 18.43 Z" fill="#f8d589" />
<path d="M 37.13 20.04 C 39.27 21.19 42.27 22.22 43.18 24.70 C 43.90 28.40 43.61 32.43 43.49 36.19 C 42.55 37.07 41.65 37.98 40.73 38.87 C 40.25 37.01 39.86 35.14 39.47 33.25 C 39.49 32.24 39.52 31.22 39.53 30.20 C 38.08 28.99 36.64 27.78 35.18 26.59 C 35.68 24.38 36.25 22.13 37.13 20.04 Z" fill="#7e6435" />
<path d="M 91.13 20.38 C 93.26 26.22 92.54 31.93 92.84 37.97 C 93.24 44.03 97.48 47.92 99.02 54.04 C 99.42 56.73 99.09 59.32 98.55 61.96 C 97.88 57.59 95.80 53.98 93.54 50.28 C 92.40 45.36 92.39 40.08 91.84 35.03 C 90.78 35.19 89.73 35.38 88.68 35.59 C 88.18 36.85 87.68 38.11 87.18 39.38 C 86.53 38.74 85.89 38.10 85.27 37.44 C 86.45 34.39 87.84 32.66 90.27 30.53 C 91.08 29.09 91.76 27.59 92.44 26.09 C 92.07 24.99 91.69 23.90 91.31 22.80 C 90.08 22.25 88.85 21.71 87.61 21.19 C 86.80 23.07 85.99 24.94 85.18 26.82 C 84.01 29.53 83.79 32.25 83.49 35.15 C 82.66 33.15 81.90 31.21 82.10 28.99 C 81.99 27.13 82.74 24.93 81.52 23.43 C 84.78 21.96 87.40 19.96 91.13 20.38 Z" fill="#d3b271" />
<path d="M 87.61 21.19 C 88.85 21.71 90.08 22.25 91.31 22.80 C 91.69 23.90 92.07 24.99 92.44 26.09 C 91.76 27.59 91.08 29.09 90.27 30.53 C 88.58 29.29 86.90 28.03 85.18 26.82 C 85.99 24.94 86.80 23.07 87.61 21.19 Z" fill="#7a6033" />
<path d="M 80.36 24.00 C 79.96 27.05 79.41 30.29 79.77 33.35 C 80.56 35.27 82.04 36.96 83.25 38.63 C 80.19 40.77 77.10 42.85 73.97 44.88 C 73.56 43.78 73.14 42.70 72.71 41.61 C 68.61 44.99 71.44 50.79 70.08 55.15 C 68.17 56.50 63.97 55.73 61.58 55.85 C 61.45 52.01 63.14 48.56 59.53 45.93 L 58.06 45.02 C 57.63 43.29 57.23 41.54 56.81 39.80 C 54.49 39.32 52.16 38.88 49.84 38.38 C 49.35 33.53 46.36 29.84 46.63 24.94 C 48.50 26.68 51.09 29.49 53.84 29.38 C 57.58 29.22 61.24 28.51 65.01 28.58 C 70.55 28.93 75.37 26.13 80.36 24.00 Z" fill="#fce896" />
<path d="M 80.36 24.00 L 81.52 23.43 C 82.74 24.93 81.99 27.13 82.10 28.99 C 81.90 31.21 82.66 33.15 83.49 35.15 C 84.07 35.92 84.66 36.69 85.27 37.44 C 85.89 38.10 86.53 38.74 87.18 39.38 C 87.68 38.11 88.18 36.85 88.68 35.59 C 89.73 35.38 90.78 35.19 91.84 35.03 C 92.39 40.08 92.40 45.36 93.54 50.28 C 92.09 51.23 90.69 52.23 89.19 53.11 C 87.35 53.86 84.98 54.22 83.43 55.50 C 82.36 56.95 82.38 59.28 82.03 60.99 C 81.76 62.97 81.49 64.96 81.18 66.93 C 79.08 67.16 76.99 67.38 74.90 67.60 C 74.22 67.15 73.54 66.71 72.86 66.26 C 72.42 64.68 72.01 63.06 71.44 61.52 C 70.90 60.62 70.33 59.75 69.74 58.89 C 67.76 56.59 63.56 56.68 61.56 58.94 L 60.34 60.02 C 58.55 58.80 56.92 57.42 55.45 55.83 C 56.72 54.27 58.04 52.72 59.22 51.07 C 59.37 49.36 59.44 47.65 59.53 45.93 C 63.14 48.56 61.45 52.01 61.58 55.85 C 63.97 55.73 68.17 56.50 70.08 55.15 C 71.44 50.79 68.61 44.99 72.71 41.61 C 73.14 42.70 73.56 43.78 73.97 44.88 C 77.10 42.85 80.19 40.77 83.25 38.63 C 82.04 36.96 80.56 35.27 79.77 33.35 C 79.41 30.29 79.96 27.05 80.36 24.00 Z" fill="#f8d78a" />
<path d="M 35.18 26.59 C 36.64 27.78 38.08 28.99 39.53 30.20 C 39.52 31.22 39.49 32.24 39.47 33.25 C 37.46 34.92 35.42 36.48 33.27 37.97 C 33.98 34.18 34.40 30.36 35.18 26.59 Z" fill="#a2804b" />
<path d="M 85.18 26.82 C 86.90 28.03 88.58 29.29 90.27 30.53 C 87.84 32.66 86.45 34.39 85.27 37.44 C 84.66 36.69 84.07 35.92 83.49 35.15 C 83.79 32.25 84.01 29.53 85.18 26.82 Z" fill="#8b7545" />
<path d="M 68.72 33.92 C 68.55 35.11 68.39 36.30 68.24 37.49 C 70.57 37.83 73.59 39.08 75.79 37.85 C 76.79 37.41 77.77 36.94 78.73 36.44 C 78.77 37.19 78.82 37.95 78.86 38.70 C 75.75 39.32 72.63 39.95 69.53 40.60 C 68.49 43.24 67.39 45.86 66.21 48.44 C 64.50 46.44 63.01 44.31 61.56 42.12 C 59.58 38.99 55.24 37.43 52.16 35.57 C 53.67 34.58 55.22 33.16 57.01 32.83 C 61.10 31.85 64.45 34.83 68.72 33.92 Z" fill="#fef6af" />
<path d="M 74.56 33.53 C 76.08 34.22 77.42 35.44 78.73 36.44 C 77.77 36.94 76.79 37.41 75.79 37.85 C 73.59 39.08 70.57 37.83 68.24 37.49 C 68.39 36.30 68.55 35.11 68.72 33.92 C 70.60 33.73 72.68 33.20 74.56 33.53 Z" fill="#ffffdf" />
<path d="M 32.63 40.27 C 33.17 43.83 33.55 47.35 33.82 50.94 C 34.05 53.88 35.41 56.13 36.75 58.67 C 35.71 59.69 34.71 60.76 33.70 61.82 C 32.02 60.80 30.23 60.01 28.40 59.28 C 27.87 54.06 29.58 49.57 31.06 44.68 C 31.58 43.21 32.12 41.75 32.63 40.27 Z" fill="#d7bc7e" />
<path d="M 47.51 44.52 C 50.64 43.19 54.87 44.20 58.06 45.02 L 59.53 45.93 C 59.44 47.65 59.37 49.36 59.22 51.07 C 55.82 53.37 52.17 54.74 48.24 55.84 C 47.04 54.12 44.80 52.13 44.49 50.00 C 44.82 48.08 46.07 45.83 47.51 44.52 Z" fill="#d2b474" />
<path d="M 31.06 44.68 C 29.58 49.57 27.87 54.06 28.40 59.28 C 29.51 63.53 32.50 65.05 36.06 66.94 C 40.68 69.26 43.12 73.07 46.35 76.89 C 48.41 76.41 50.48 75.95 52.55 75.52 C 52.27 72.94 52.27 70.36 52.29 67.77 C 54.54 67.48 56.78 67.20 58.94 66.47 C 59.65 66.18 60.36 65.89 61.06 65.59 C 62.72 66.25 64.37 66.93 66.02 67.60 C 65.51 69.26 65.68 71.00 63.92 71.87 C 61.87 72.75 59.14 72.35 56.92 72.47 C 55.60 71.38 54.27 70.28 52.95 69.20 C 53.48 72.92 55.07 74.35 57.71 76.64 C 54.14 77.55 49.96 78.94 46.28 78.33 C 42.92 75.82 40.42 70.44 36.40 68.62 C 33.89 68.11 31.07 69.19 28.52 69.02 C 27.34 68.50 26.27 67.70 25.17 67.03 C 25.28 63.34 25.15 59.18 26.36 55.68 C 27.64 51.93 29.56 48.36 31.06 44.68 Z" fill="#a1936d" />
<path d="M 50.98 45.27 C 51.11 47.70 51.30 50.12 51.53 52.54 C 50.97 52.94 50.40 53.34 49.84 53.73 C 48.01 51.94 45.64 51.00 46.60 47.97 C 47.99 46.94 49.49 46.12 50.98 45.27 Z" fill="#6c6657" />
<path d="M 50.98 45.27 C 52.30 46.51 54.15 47.01 54.29 49.00 C 54.46 51.02 52.80 51.41 51.53 52.54 C 51.30 50.12 51.11 47.70 50.98 45.27 Z" fill="#93876a" />
<path d="M 82.57 47.58 C 82.54 48.82 82.51 50.06 82.46 51.30 C 81.80 52.08 81.15 52.87 80.49 53.65 C 79.12 53.66 77.75 53.66 76.38 53.67 C 75.49 51.51 73.42 49.53 75.46 47.34 C 77.12 45.16 80.55 46.82 82.57 47.58 Z" fill="#6d6552" />
<path d="M 77.26 48.24 C 77.76 48.72 77.76 48.72 77.26 48.24 Z" fill="#a9a89c" />
<path d="M 79.72 48.13 C 80.84 47.09 82.10 49.18 81.58 50.21 C 80.58 51.32 79.24 49.06 79.72 48.13 Z" fill="#b3b1a7" />
<path d="M 93.54 50.28 C 95.80 53.98 97.88 57.59 98.55 61.96 L 98.51 62.21 C 96.12 64.08 94.25 66.31 92.44 68.72 C 90.65 71.15 88.23 72.30 85.70 73.77 C 84.09 71.56 82.58 69.29 81.18 66.93 C 81.49 64.96 81.76 62.97 82.03 60.99 C 83.37 62.28 84.71 63.57 86.03 64.87 C 88.18 63.28 91.24 61.51 92.33 58.98 C 92.44 57.69 92.49 56.41 92.49 55.12 C 91.39 54.46 90.29 53.79 89.19 53.11 C 90.69 52.23 92.09 51.23 93.54 50.28 Z" fill="#dcd6af" />
<path d="M 59.22 51.07 C 58.04 52.72 56.72 54.27 55.45 55.83 C 56.92 57.42 58.55 58.80 60.34 60.02 C 60.10 60.24 59.86 60.48 59.62 60.71 C 55.63 59.82 52.31 58.35 48.25 59.92 C 48.39 61.11 48.54 62.30 48.70 63.49 C 47.35 63.10 46.06 62.56 44.77 61.98 C 45.92 59.93 47.08 57.88 48.24 55.84 C 52.17 54.74 55.82 53.37 59.22 51.07 Z" fill="#eec97f" />
<path d="M 89.19 53.11 C 90.29 53.79 91.39 54.46 92.49 55.12 C 92.49 56.41 92.44 57.69 92.33 58.98 C 91.24 61.51 88.18 63.28 86.03 64.87 C 84.71 63.57 83.37 62.28 82.03 60.99 C 82.38 59.28 82.36 56.95 83.43 55.50 C 84.98 54.22 87.35 53.86 89.19 53.11 Z" fill="#f9f1c2" />
<path d="M 99.02 54.04 C 99.58 56.83 99.73 59.68 99.24 62.50 C 98.02 69.27 96.29 75.86 93.45 82.15 C 86.29 86.33 79.82 92.68 71.96 95.16 C 73.58 89.90 77.89 86.41 79.16 81.08 C 73.73 79.17 68.58 80.08 62.98 80.30 C 58.40 80.59 53.62 80.60 49.11 81.50 C 47.66 81.74 46.98 82.81 45.97 83.75 C 47.22 86.74 50.50 90.55 47.70 93.60 C 43.16 95.07 38.06 95.25 35.25 90.71 C 32.63 87.57 35.80 84.80 37.13 81.86 C 34.84 81.62 32.53 81.35 30.23 81.23 C 29.18 81.18 28.13 81.14 27.08 81.11 C 25.34 76.55 25.09 71.85 25.17 67.03 C 26.27 67.70 27.34 68.50 28.52 69.02 C 31.07 69.19 33.89 68.11 36.40 68.62 C 40.42 70.44 42.92 75.82 46.28 78.33 C 49.96 78.94 54.14 77.55 57.71 76.64 C 61.30 75.66 64.85 74.37 68.50 73.69 C 71.99 73.43 75.48 73.64 78.96 73.12 C 77.78 73.92 76.64 74.75 75.40 75.45 C 73.05 75.75 70.60 74.84 68.29 75.21 C 66.53 75.95 65.02 77.40 63.54 78.59 C 67.97 78.83 72.38 78.58 76.82 78.45 C 78.22 78.53 79.48 78.27 80.53 79.41 C 81.12 82.21 80.15 85.32 79.48 88.05 C 84.52 84.64 90.85 81.32 94.24 76.18 C 95.83 73.92 96.52 71.38 97.14 68.72 C 97.66 66.57 98.09 64.39 98.51 62.21 L 98.55 61.96 C 99.09 59.32 99.42 56.73 99.02 54.04 Z" fill="#847b61" />
<path d="M 122.19 55.46 C 123.57 60.57 123.27 65.73 122.65 70.93 C 121.15 84.14 114.76 96.96 105.08 106.09 C 97.10 113.66 86.84 118.83 76.13 121.19 C 69.61 122.73 62.85 122.21 55.96 122.24 C 53.76 122.28 51.86 121.49 49.80 120.85 C 54.18 121.21 58.60 122.02 62.99 121.99 C 78.83 121.67 94.64 115.09 105.72 103.71 C 112.75 96.76 117.69 87.71 120.48 78.27 C 122.70 70.69 122.24 63.25 122.19 55.46 Z" fill="#cd9fa0" />
<path d="M 69.74 58.89 C 66.82 59.82 64.50 59.52 61.56 58.94 C 63.56 56.68 67.76 56.59 69.74 58.89 Z" fill="#8d7e5b" />
<path d="M 33.70 61.82 C 37.35 65.35 41.07 68.48 45.44 71.09 C 47.05 69.76 48.67 68.42 50.31 67.12 C 50.23 65.94 50.15 64.76 50.07 63.59 C 53.34 63.61 55.92 64.99 58.98 66.22 L 58.94 66.47 C 56.78 67.20 54.54 67.48 52.29 67.77 C 52.27 70.36 52.27 72.94 52.55 75.52 C 50.48 75.95 48.41 76.41 46.35 76.89 C 43.12 73.07 40.68 69.26 36.06 66.94 C 32.50 65.05 29.51 63.53 28.40 59.28 C 30.23 60.01 32.02 60.80 33.70 61.82 Z" fill="#bbb492" />
<path d="M 36.75 58.67 C 39.54 59.51 42.14 60.75 44.77 61.98 C 46.06 62.56 47.35 63.10 48.70 63.49 L 50.07 63.59 C 50.15 64.76 50.23 65.94 50.31 67.12 C 48.67 68.42 47.05 69.76 45.44 71.09 C 41.07 68.48 37.35 65.35 33.70 61.82 C 34.71 60.76 35.71 59.69 36.75 58.67 Z" fill="#dfd7af" />
<path d="M 59.62 60.71 C 59.50 62.58 59.41 64.39 58.98 66.22 C 55.92 64.99 53.34 63.61 50.07 63.59 L 48.70 63.49 C 48.54 62.30 48.39 61.11 48.25 59.92 C 52.31 58.35 55.63 59.82 59.62 60.71 Z" fill="#d5b97a" />
<path d="M 60.34 60.02 L 61.56 58.94 C 64.50 59.52 66.82 59.82 69.74 58.89 C 70.33 59.75 70.90 60.62 71.44 61.52 C 70.62 63.83 70.08 66.18 69.71 68.60 C 68.76 66.19 68.34 63.69 67.95 61.14 C 65.87 61.88 63.79 62.61 61.70 63.34 C 61.49 64.09 61.27 64.84 61.06 65.59 C 60.36 65.89 59.65 66.18 58.94 66.47 L 58.98 66.22 C 59.41 64.39 59.50 62.58 59.62 60.71 C 59.86 60.48 60.10 60.24 60.34 60.02 Z" fill="#554931" />
<path d="M 67.95 61.14 C 68.34 63.69 68.76 66.19 69.71 68.60 L 70.56 70.63 C 72.57 70.47 74.58 70.38 76.60 70.29 C 77.38 71.24 78.17 72.18 78.96 73.12 C 75.48 73.64 71.99 73.43 68.50 73.69 C 64.85 74.37 61.30 75.66 57.71 76.64 C 55.07 74.35 53.48 72.92 52.95 69.20 C 54.27 70.28 55.60 71.38 56.92 72.47 C 59.14 72.35 61.87 72.75 63.92 71.87 C 65.68 71.00 65.51 69.26 66.02 67.60 C 64.37 66.93 62.72 66.25 61.06 65.59 C 61.27 64.84 61.49 64.09 61.70 63.34 C 63.79 62.61 65.87 61.88 67.95 61.14 Z" fill="#30260d" />
<path d="M 71.44 61.52 C 72.01 63.06 72.42 64.68 72.86 66.26 C 73.54 66.71 74.22 67.15 74.90 67.60 C 79.13 69.93 80.28 73.79 83.15 77.49 C 85.73 76.70 88.50 76.04 90.87 74.75 C 93.31 73.25 95.32 70.90 97.14 68.72 C 96.52 71.38 95.83 73.92 94.24 76.18 C 90.85 81.32 84.52 84.64 79.48 88.05 C 80.15 85.32 81.12 82.21 80.53 79.41 C 79.48 78.27 78.22 78.53 76.82 78.45 C 72.38 78.58 67.97 78.83 63.54 78.59 C 65.02 77.40 66.53 75.95 68.29 75.21 C 70.60 74.84 73.05 75.75 75.40 75.45 C 76.64 74.75 77.78 73.92 78.96 73.12 C 78.17 72.18 77.38 71.24 76.60 70.29 C 74.58 70.38 72.57 70.47 70.56 70.63 L 69.71 68.60 C 70.08 66.18 70.62 63.83 71.44 61.52 Z" fill="#9c9679" />
<path d="M 98.51 62.21 C 98.09 64.39 97.66 66.57 97.14 68.72 C 95.32 70.90 93.31 73.25 90.87 74.75 C 88.50 76.04 85.73 76.70 83.15 77.49 C 80.28 73.79 79.13 69.93 74.90 67.60 C 76.99 67.38 79.08 67.16 81.18 66.93 C 82.58 69.29 84.09 71.56 85.70 73.77 C 88.23 72.30 90.65 71.15 92.44 68.72 C 94.25 66.31 96.12 64.08 98.51 62.21 Z" fill="#bdb795" />
<path d="M 30.23 81.23 C 32.53 81.35 34.84 81.62 37.13 81.86 C 35.80 84.80 32.63 87.57 35.25 90.71 C 38.06 95.25 43.16 95.07 47.70 93.60 C 50.50 90.55 47.22 86.74 45.97 83.75 C 46.98 82.81 47.66 81.74 49.11 81.50 C 53.62 80.60 58.40 80.59 62.98 80.30 C 68.58 80.08 73.73 79.17 79.16 81.08 C 77.89 86.41 73.58 89.90 71.96 95.16 C 79.82 92.68 86.29 86.33 93.45 82.15 C 89.66 89.66 83.62 97.12 75.87 100.76 C 72.61 99.29 69.63 98.33 66.00 98.94 C 58.45 100.07 51.34 98.69 43.98 100.90 C 36.27 96.67 30.37 89.17 27.08 81.11 C 28.13 81.14 29.18 81.18 30.23 81.23 Z" fill="#766d55" />
<path d="M 66.00 98.94 C 69.63 98.33 72.61 99.29 75.87 100.76 C 69.04 104.75 61.65 105.04 53.95 104.48 C 50.25 104.24 47.16 102.68 43.98 100.90 C 51.34 98.69 58.45 100.07 66.00 98.94 Z" fill="#695f4a" />
</svg>