<svg width="32" height="32" viewBox="0 0 32 32" fill="none" xmlns="http://www.w3.org/2000/svg">
<path d="M0 16C0 7.16344 7.16344 0 16 0C24.8366 0 32 7.16344 32 16C32 24.8366 24.8366 32 16 32C7.16344 32 0 24.8366 0 16Z" fill="white"/>
<path fill-rule="evenodd" clip-rule="evenodd" d="M25 16C25 14.8221 24.7656 13.6442 24.3149 12.5559C23.8642 11.4676 23.1969 10.469 22.3639 9.6361C21.531 8.80306 20.5324 8.1358 19.4441 7.68508C18.3558 7.23436 17.1779 7 16 7C14.8221 7 13.6442 7.23436 12.5559 7.68508C11.4676 8.1358 10.469 8.80306 9.6361 9.6361C8.80306 10.469 8.1358 11.4676 7.68508 12.5559C7.23436 13.6442 7 14.8221 7 16C7 17.1779 7.23436 18.3558 7.68508 19.4441C8.1358 20.5324 8.80306 21.531 9.6361 22.3639C10.469 23.1969 11.4676 23.8642 12.5559 24.3149C13.6442 24.7656 14.8221 25 16 25C17.1779 25 18.3558 24.7656 19.4441 24.3149C20.5324 23.8642 21.531 23.1969 22.3639 22.3639C23.1969 21.531 23.8642 20.5324 24.3149 19.4441C24.7656 18.3558 25 17.1779 25 16Z" fill="white"/>
<path fill-rule="evenodd" clip-rule="evenodd" d="M21.5683 10.4315L21.5685 10.4317C22.297 11.16 22.8814 12.0346 23.2755 12.9864C23.6698 13.9382 23.875 14.9699 23.875 16C23.875 17.0301 23.6698 18.0618 23.2755 19.0137C22.8814 19.9654 22.297 20.84 21.5685 21.5683L21.5683 21.5685C20.84 22.297 19.9654 22.8814 19.0137 23.2755C18.0618 23.6698 17.0301 23.875 16 23.875C14.9699 23.875 13.9382 23.6698 12.9864 23.2755C12.0346 22.8814 11.16 22.297 10.4317 21.5685L10.4315 21.5683C9.70301 20.84 9.11864 19.9654 8.72446 19.0137C8.33025 18.0618 8.125 17.0301 8.125 16C8.125 14.9699 8.33025 13.9382 8.72446 12.9864C9.11864 12.0346 9.70301 11.16 10.4315 10.4317L10.4317 10.4315C11.16 9.70301 12.0346 9.11864 12.9864 8.72446C13.9382 8.33025 14.9699 8.125 16 8.125C17.0301 8.125 18.0618 8.33025 19.0137 8.72446C19.9654 9.11864 20.84 9.70301 21.5683 10.4315ZM24.3149 19.4441C23.8642 20.5324 23.1969 21.531 22.3639 22.3639C21.531 23.1969 20.5324 23.8642 19.4441 24.3149C18.3558 24.7656 17.1779 25 16 25C14.8221 25 13.6442 24.7656 12.5559 24.3149C11.4676 23.8642 10.469 23.1969 9.6361 22.3639C8.80306 21.531 8.1358 20.5324 7.68508 19.4441C7.23436 18.3558 7 17.1779 7 16C7 14.8221 7.23436 13.6442 7.68508 12.5559C8.1358 11.4676 8.80306 10.469 9.6361 9.6361C10.469 8.80306 11.4676 8.1358 12.5559 7.68508C13.6442 7.23436 14.8221 7 16 7C17.1779 7 18.3558 7.23436 19.4441 7.68508C20.5324 8.1358 21.531 8.80306 22.3639 9.6361C23.1969 10.469 23.8642 11.4676 24.3149 12.5559C24.7656 13.6442 25 14.8221 25 16C25 17.1779 24.7656 18.3558 24.3149 19.4441ZM15.9984 9.11981L11.7756 16.1274L15.9984 14.2081V9.11981ZM11.7756 16.9288L15.9984 22.88V19.424L11.7756 16.9288Z" fill="black"/>
<path fill-rule="evenodd" clip-rule="evenodd" d="M15.9982 9.11987L20.2219 16.1275L15.9982 14.2081V9.11987ZM11.7775 16.1265L11.7754 16.1277L15.9982 18.6243L15.9982 14.2081L11.7775 16.1265ZM15.9982 19.424V22.88L20.2242 16.9289L15.9982 19.424Z" fill="#68686D"/>
<path fill-rule="evenodd" clip-rule="evenodd" d="M16 14.2087L15.9985 18.6242L20.2222 16.1276L20.2201 16.1265L16 14.2087Z" fill="#BDBDBF"/>
<path fill-rule="evenodd" clip-rule="evenodd" d="M11.855 3.38356C13.3455 2.89364 14.9385 2.66964 16.5164 2.73012C18.0946 2.7906 19.6582 3.13588 21.1132 3.74388C22.5686 4.35188 23.9154 5.22292 25.0678 6.29748C26.5919 7.71924 27.7753 9.49748 28.485 11.4866C29.1951 13.476 29.4316 15.6764 29.1577 17.7711C28.8841 19.8658 28.1001 21.8552 26.9142 23.566C25.7282 25.2767 24.1401 26.7084 22.2748 27.7004C20.4095 28.692 18.2665 29.2437 16.1542 29.2757C14.0418 29.3077 11.9599 28.8204 10.0953 27.8949C8.23095 26.9695 6.58359 25.6063 5.33271 23.9036C4.08183 22.2008 3.22743 20.1586 2.88823 18.0748C2.54903 15.9906 2.72503 13.8645 3.37495 11.8812C3.86615 10.3816 4.62839 8.96404 5.60503 7.73556H4.12055V5.2818H9.93719V10.7135H7.48343V9.22932C6.68343 10.2354 6.05879 11.3967 5.65655 12.6255C5.12439 14.2511 4.98103 15.9951 5.25655 17.6968C5.59895 19.8136 6.58903 21.8648 8.06679 23.4456C9.83447 25.3362 12.2998 26.5541 14.8662 26.8207C17.4322 27.0872 20.0994 26.4028 22.2175 24.9285C24.3356 23.4543 25.9052 21.1903 26.5423 18.6898C27.1794 16.1893 26.8841 13.4524 25.7353 11.142C24.5865 8.83156 22.5839 6.94836 20.1894 5.95892C17.7948 4.96916 15.0079 4.87381 12.6041 5.66356L11.855 3.38356Z" fill="url(#paint0_linear_406_420915)"/>
<defs>
<linearGradient id="paint0_linear_406_420915" x1="2.04365" y1="13.297" x2="15.2224" y2="29.5763" gradientUnits="userSpaceOnUse">
<stop stop-color="#004CFF"/>
<stop offset="0.252131" stop-color="#00E0FB"/>
<stop offset="0.505709" stop-color="#87FF70"/>
<stop offset="0.755054" stop-color="#F8F500"/>
<stop offset="1" stop-color="#FF1A00"/>
</linearGradient>
</defs>
</svg>
