<svg width="240" height="240" viewBox="0 0 240 240" fill="none" xmlns="http://www.w3.org/2000/svg">
<g clip-path="url(#clip0_6308_2923)">
<circle cx="120" cy="120" r="120" fill="url(#paint0_linear_6308_2923)"/>
<path d="M50.9023 72.6771C50.9023 60.1529 61.0552 50 73.5794 50V50V160.258H50.9023V72.6771Z" fill="#3492CF"/>
<path d="M167.416 50C179.94 50 190.093 60.1529 190.093 72.6771V72.6771L79.8352 72.6771L79.8352 50L167.416 50Z" fill="#3492CF"/>
<path d="M190.093 167.296C190.093 179.82 179.94 189.973 167.416 189.973V189.973L167.416 79.7151L190.093 79.7151L190.093 167.296Z" fill="#3492CF"/>
<path d="M73.5809 189.973C61.0567 189.973 50.9038 179.82 50.9038 167.296V167.296L161.161 167.296L161.161 189.973L73.5809 189.973Z" fill="#3492CF"/>
<rect x="115.546" y="92.7476" width="11.9902" height="50.046" fill="#3492CF"/>
<rect x="146.565" y="111.776" width="11.9902" height="50.046" transform="rotate(90 146.565 111.776)" fill="#3492CF"/>
</g>
<defs>
<linearGradient id="paint0_linear_6308_2923" x1="120" y1="0" x2="120" y2="240" gradientUnits="userSpaceOnUse">
<stop stop-color="#212E64"/>
<stop offset="1" stop-color="#131626"/>
</linearGradient>
<clipPath id="clip0_6308_2923">
<rect width="240" height="240" fill="white"/>
</clipPath>
</defs>
</svg>
