<svg width="32" height="32" viewBox="0 0 32 32" fill="none" xmlns="http://www.w3.org/2000/svg">
<g clip-path="url(#clip0_335_411907)">
<path d="M31.5 16C31.5 24.5604 24.5604 31.5 16 31.5C7.43959 31.5 0.5 24.5604 0.5 16C0.5 7.43959 7.43959 0.5 16 0.5C24.5604 0.5 31.5 7.43959 31.5 16Z" fill="black" stroke="white"/>
<path fill-rule="evenodd" clip-rule="evenodd" d="M31 16C31 24.2843 24.2843 31 16 31C7.71573 31 1 24.2843 1 16C1 7.71573 7.71573 1 16 1C24.2843 1 31 7.71573 31 16ZM32 16C32 24.8366 24.8366 32 16 32C7.16344 32 0 24.8366 0 16C0 7.16344 7.16344 0 16 0C24.8366 0 32 7.16344 32 16ZM15.75 2L12.1006 8.49718L7.52515 5.6271L6 8.38071L10.5027 11.3283L8.18774 15.1311L12.165 13.1406C12.0576 12.7792 12 12.3963 12 12C12 9.87482 13.6573 8.13673 15.75 8.00769V2ZM19.8342 13.1435C19.9421 12.7812 20 12.3974 20 12C20 9.87482 18.3427 8.13673 16.25 8.00769V2L19.8994 8.49718L24.4749 5.6271L26 8.38071L21.4973 11.3283L23.8152 15.1361L19.8342 13.1435ZM16.25 15.9923C17.7713 15.8985 19.0626 14.9543 19.6543 13.6292L23.6877 15.6481L16.25 20.6125V15.9923ZM12.3445 13.6265C12.9357 14.953 14.2276 15.8984 15.75 15.9923V20.6125L8.30908 15.6461L12.3445 13.6265ZM15.75 22.2146L8 17.0416L10.3408 21.7245L7 24.2072L8.30737 26.263L11.7571 23.7423L15.75 30V22.2146ZM16.25 30V22.2146L24 17.0416L21.6592 21.7245L25 24.2072L23.6926 26.263L20.2429 23.7423L16.25 30ZM16.777 13.1397C16.777 13.0639 16.7654 12.996 16.7422 12.9358C16.7189 12.8734 16.676 12.8155 16.6132 12.762C16.5505 12.7086 16.4599 12.6551 16.3415 12.6016C16.2253 12.5459 16.072 12.488 15.8815 12.4278C15.6585 12.3565 15.4437 12.2763 15.2369 12.1872C15.0302 12.0958 14.8455 11.99 14.6829 11.8697C14.5203 11.7471 14.3914 11.6045 14.2962 11.4418C14.2009 11.277 14.1533 11.0853 14.1533 10.867C14.1533 10.6575 14.2021 10.4693 14.2997 10.3021C14.3972 10.1328 14.5331 9.98908 14.7073 9.87099C14.8839 9.75067 15.0906 9.65931 15.3275 9.59693C15.5645 9.53231 15.8235 9.5 16.1045 9.5C16.4762 9.5 16.8037 9.56239 17.0871 9.68717C17.3728 9.80972 17.5958 9.98463 17.7561 10.2119C17.9187 10.4369 18 10.7032 18 11.0107H16.784C16.784 10.8881 16.7573 10.7801 16.7038 10.6865C16.6527 10.5929 16.5749 10.5194 16.4704 10.4659C16.3659 10.4124 16.2346 10.3857 16.0767 10.3857C15.9233 10.3857 15.7944 10.408 15.6899 10.4525C15.5854 10.4971 15.5064 10.5573 15.453 10.633C15.3995 10.7066 15.3728 10.7879 15.3728 10.877C15.3728 10.9505 15.3937 11.0174 15.4355 11.0775C15.4797 11.1355 15.5412 11.1901 15.6202 11.2413C15.7015 11.2926 15.7991 11.3416 15.9129 11.3884C16.029 11.4352 16.1591 11.4808 16.3031 11.5254C16.5726 11.6078 16.8118 11.7003 17.0209 11.8028C17.2323 11.9031 17.41 12.0178 17.554 12.1471C17.7003 12.2741 17.8107 12.4189 17.885 12.5816C17.9617 12.7442 18 12.928 18 13.133C18 13.3514 17.9559 13.5452 17.8676 13.7146C17.7793 13.8839 17.6527 14.0276 17.4878 14.1457C17.3229 14.2616 17.1254 14.3496 16.8955 14.4098C16.6655 14.4699 16.4088 14.5 16.1254 14.5C15.8653 14.5 15.6086 14.4688 15.3554 14.4064C15.1045 14.3418 14.8769 14.2438 14.6725 14.1123C14.4681 13.9786 14.3043 13.8082 14.1812 13.6009C14.0604 13.3915 14 13.143 14 12.8556H15.2265C15.2265 12.9982 15.2462 13.1185 15.2857 13.2166C15.3252 13.3146 15.3833 13.3937 15.4599 13.4539C15.5366 13.5118 15.6307 13.5541 15.7422 13.5809C15.8537 13.6054 15.9814 13.6176 16.1254 13.6176C16.2811 13.6176 16.4065 13.5965 16.5017 13.5541C16.597 13.5096 16.6667 13.4516 16.7108 13.3803C16.7549 13.3068 16.777 13.2266 16.777 13.1397Z" fill="white"/>
</g>
<defs>
<clipPath id="clip0_335_411907">
<rect width="32" height="32" fill="white"/>
</clipPath>
</defs>
</svg>
