<svg version="1.1" id="Layer_1" xmlns="http://www.w3.org/2000/svg" xmlns:xlink="http://www.w3.org/1999/xlink" x="0px" y="0px"
	 width="100%" viewBox="0 0 128 128" enable-background="new 0 0 128 128" xml:space="preserve">
<path fill="#FDFDFD" opacity="1.000000" stroke="none" 
	d="
M72.000000,129.000000 
	C48.000000,129.000000 24.500000,129.000000 1.000000,129.000000 
	C1.000000,86.333336 1.000000,43.666668 1.000000,1.000000 
	C43.666668,1.000000 86.333336,1.000000 129.000000,1.000000 
	C129.000000,43.666668 129.000000,86.333336 129.000000,129.000000 
	C110.166664,129.000000 91.333336,129.000000 72.000000,129.000000 
M21.758387,71.710556 
	C21.729889,73.873543 21.793625,76.042381 21.656969,78.198517 
	C21.056965,87.665230 24.779589,94.315895 33.475166,98.693291 
	C41.621014,102.793953 49.505539,107.504509 57.130688,112.516266 
	C62.074062,115.765366 66.529350,116.177223 71.484802,113.168953 
	C81.426300,107.133850 91.431183,101.201942 101.324356,95.088989 
	C105.702103,92.384003 108.270844,88.237411 108.303406,83.085464 
	C108.381187,70.777657 108.236938,58.466312 108.007828,46.159649 
	C107.904747,40.623222 105.381607,36.339539 100.478043,33.489956 
	C90.853638,27.896980 81.283943,22.209936 71.682289,16.577698 
	C67.317909,14.017590 62.888748,13.774205 58.447849,16.383259 
	C48.849072,22.022594 39.271408,27.697941 29.663347,33.321381 
	C24.292686,36.464737 21.733629,41.061752 21.814863,47.313576 
	C21.916435,55.130856 21.794785,62.951031 21.758387,71.710556 
z"/>
<path fill="#141414" opacity="1.000000" stroke="none" 
	d="
M21.763943,71.240257 
	C21.794785,62.951031 21.916435,55.130856 21.814863,47.313576 
	C21.733629,41.061752 24.292686,36.464737 29.663347,33.321381 
	C39.271408,27.697941 48.849072,22.022594 58.447849,16.383259 
	C62.888748,13.774205 67.317909,14.017590 71.682289,16.577698 
	C81.283943,22.209936 90.853638,27.896980 100.478043,33.489956 
	C105.381607,36.339539 107.904747,40.623222 108.007828,46.159649 
	C108.236938,58.466312 108.381187,70.777657 108.303406,83.085464 
	C108.270844,88.237411 105.702103,92.384003 101.324356,95.088989 
	C91.431183,101.201942 81.426300,107.133850 71.484802,113.168953 
	C66.529350,116.177223 62.074062,115.765366 57.130688,112.516266 
	C49.505539,107.504509 41.621014,102.793953 33.475166,98.693291 
	C24.779589,94.315895 21.056965,87.665230 21.656969,78.198517 
	C21.793625,76.042381 21.729889,73.873543 21.763943,71.240257 
M94.823967,95.356895 
	C102.690544,91.958435 105.760124,86.218521 105.121422,77.501411 
	C104.393066,67.560661 104.772614,57.530350 104.870354,47.540916 
	C104.920784,42.386093 103.031273,38.609863 98.527618,35.992481 
	C89.040169,30.478670 79.767891,24.571575 70.086288,19.430416 
	C67.536034,18.076170 63.168896,17.704300 60.741489,18.981770 
	C50.455055,24.395189 40.564735,30.565847 30.572851,36.532112 
	C26.678076,38.857723 25.032614,42.285091 25.103928,46.957600 
	C25.276697,58.277172 25.144220,69.603096 25.010685,80.924995 
	C24.934299,87.401360 27.635475,91.893311 33.396374,95.008057 
	C41.730549,99.514114 50.113018,104.031723 57.946854,109.325760 
	C62.915215,112.683342 66.863098,112.509262 71.612152,109.470329 
	C79.032974,104.721680 86.672424,100.314682 94.823967,95.356895 
z"/>
<path fill="#F8F8F8" opacity="1.000000" stroke="none" 
	d="
M94.521606,95.559921 
	C86.672424,100.314682 79.032974,104.721680 71.612152,109.470329 
	C66.863098,112.509262 62.915215,112.683342 57.946854,109.325760 
	C50.113018,104.031723 41.730549,99.514114 33.396374,95.008057 
	C27.635475,91.893311 24.934299,87.401360 25.010685,80.924995 
	C25.144220,69.603096 25.276697,58.277172 25.103928,46.957600 
	C25.032614,42.285091 26.678076,38.857723 30.572851,36.532112 
	C40.564735,30.565847 50.455055,24.395189 60.741489,18.981770 
	C63.168896,17.704300 67.536034,18.076170 70.086288,19.430416 
	C79.767891,24.571575 89.040169,30.478670 98.527618,35.992481 
	C103.031273,38.609863 104.920784,42.386093 104.870354,47.540916 
	C104.772614,57.530350 104.393066,67.560661 105.121422,77.501411 
	C105.760124,86.218521 102.690544,91.958435 94.521606,95.559921 
M61.485508,45.929203 
	C64.144821,43.653984 66.526588,43.997761 69.488403,45.877983 
	C76.557373,50.365501 83.904793,54.414387 91.780121,59.014450 
	C91.780121,55.455429 91.491508,52.802422 91.847443,50.238907 
	C92.387573,46.348690 90.845802,44.280525 87.412880,42.516983 
	C80.765205,39.101982 74.456772,35.029724 67.839233,31.550365 
	C66.463402,30.826982 64.036949,30.890181 62.638889,31.625528 
	C55.726921,35.261082 48.894962,39.080105 42.279617,43.225166 
	C40.716599,44.204529 39.240154,46.667953 39.188255,48.490391 
	C38.894482,58.805584 38.896187,69.137688 39.186230,79.453094 
	C39.237671,81.282616 40.679203,83.761322 42.234337,84.741180 
	C48.979198,88.990967 55.949429,92.898109 62.976498,96.671379 
	C64.270027,97.365952 66.537392,97.482292 67.791458,96.811501 
	C75.118027,92.892509 82.302727,88.703758 89.462128,84.481949 
	C90.452652,83.897842 91.636215,82.667274 91.704620,81.665901 
	C91.966820,77.827690 91.810715,73.960892 91.810715,69.552414 
	C86.199631,72.619507 80.977341,74.688629 76.698128,77.982811 
	C68.714645,84.128586 61.536095,83.939262 53.714161,77.763802 
	C51.092621,75.694084 49.800652,74.082336 51.100731,70.469421 
	C60.181061,70.469421 69.412720,70.469421 78.703110,70.469421 
	C78.703110,66.103020 78.703110,62.227642 78.703110,57.928082 
	C69.139168,57.928082 59.887798,57.928082 50.862900,57.928082 
	C49.660213,53.657185 51.081001,51.211163 54.750809,49.704605 
	C56.884830,48.828529 58.802048,47.424347 61.485508,45.929203 
z"/>
<path fill="#060606" opacity="1.000000" stroke="none" 
	d="
M61.151161,46.093498 
	C58.802048,47.424347 56.884830,48.828529 54.750809,49.704605 
	C51.081001,51.211163 49.660213,53.657185 50.862900,57.928082 
	C59.887798,57.928082 69.139168,57.928082 78.703110,57.928082 
	C78.703110,62.227642 78.703110,66.103020 78.703110,70.469421 
	C69.412720,70.469421 60.181061,70.469421 51.100731,70.469421 
	C49.800652,74.082336 51.092621,75.694084 53.714161,77.763802 
	C61.536095,83.939262 68.714645,84.128586 76.698128,77.982811 
	C80.977341,74.688629 86.199631,72.619507 91.810715,69.552414 
	C91.810715,73.960892 91.966820,77.827690 91.704620,81.665901 
	C91.636215,82.667274 90.452652,83.897842 89.462128,84.481949 
	C82.302727,88.703758 75.118027,92.892509 67.791458,96.811501 
	C66.537392,97.482292 64.270027,97.365952 62.976498,96.671379 
	C55.949429,92.898109 48.979198,88.990967 42.234337,84.741180 
	C40.679203,83.761322 39.237671,81.282616 39.186230,79.453094 
	C38.896187,69.137688 38.894482,58.805584 39.188255,48.490391 
	C39.240154,46.667953 40.716599,44.204529 42.279617,43.225166 
	C48.894962,39.080105 55.726921,35.261082 62.638889,31.625528 
	C64.036949,30.890181 66.463402,30.826982 67.839233,31.550365 
	C74.456772,35.029724 80.765205,39.101982 87.412880,42.516983 
	C90.845802,44.280525 92.387573,46.348690 91.847443,50.238907 
	C91.491508,52.802422 91.780121,55.455429 91.780121,59.014450 
	C83.904793,54.414387 76.557373,50.365501 69.488403,45.877983 
	C66.526588,43.997761 64.144821,43.653984 61.151161,46.093498 
z"/>
</svg>