<svg width="32" height="32" viewBox="0 0 32 32" fill="none" xmlns="http://www.w3.org/2000/svg">
<g clip-path="url(#clip0_562_217693)">
<path d="M13.4993 24.8741C19.8205 24.8741 24.9449 19.7497 24.9449 13.4285C24.9449 7.10728 19.8205 1.98291 13.4993 1.98291C7.17808 1.98291 2.05371 7.10728 2.05371 13.4285C2.05371 19.7497 7.17808 24.8741 13.4993 24.8741Z" fill="white"/>
<path d="M14.3955 9.14062V13.1253H18.2162V14.8431H14.3955V18.865H12.6039V14.8431H8.7832V13.1253H12.6039V9.14062H14.3955Z" fill="#0019FC" stroke="#1D1D1B" stroke-width="0.25" stroke-miterlimit="10"/>
<path d="M13.4996 0C6.04443 0 0 6.04443 0 13.4996C0 20.9547 6.04443 27.0008 13.4996 27.0008C20.9547 27.0008 27.0008 20.9564 27.0008 13.4996C27.0008 6.04277 20.9556 0 13.4996 0ZM21.7396 16.5206C19.299 17.817 17.7574 19.2973 16.5255 21.7893C16.5131 21.8108 16.5032 21.8315 16.4908 21.853V21.8547C15.9096 22.9061 14.7961 23.5858 13.5617 23.6023C13.5087 23.6056 13.4524 23.604 13.3994 23.6007C13.3779 23.6007 13.3588 23.599 13.3373 23.599C12.0889 23.5427 11.0159 22.815 10.4745 21.7652C9.178 19.3246 7.69773 17.7814 5.20578 16.5512C5.18425 16.5404 5.16355 16.5288 5.14203 16.5164H5.14037C2.76019 15.2034 2.8438 11.732 5.25048 10.4794C7.6911 9.18131 9.23429 7.70187 10.4645 5.21074C10.477 5.18922 10.4869 5.16852 10.4993 5.147V5.14534C11.0548 4.14939 12.0624 3.48873 13.233 3.40843C13.2984 3.40263 13.363 3.39932 13.4284 3.39766C13.4814 3.39352 13.5377 3.39766 13.5907 3.39932C13.6122 3.40098 13.6329 3.40098 13.6527 3.40098C14.9012 3.45727 15.9742 4.18499 16.5156 5.23475C17.8137 7.67537 19.2932 9.21691 21.7843 10.4488C21.8058 10.4612 21.8265 10.4712 21.848 10.4836H21.8497C22.9135 11.0797 23.5957 12.1799 23.599 13.4507C23.6007 14.7273 22.8713 15.9443 21.7396 16.5206Z" fill="#0019FC"/>
</g>
<path fill-rule="evenodd" clip-rule="evenodd" d="M25.2238 29.2769C25.9446 29.0075 26.6934 28.8117 27.443 28.6344C28.0423 28.4926 28.6422 28.3627 29.24 28.2085C29.6132 28.1122 29.9854 28.0066 30.3336 27.8409C30.612 27.7085 30.8746 27.5379 31.0907 27.3212C31.3065 27.1044 31.4758 26.8417 31.6024 26.5629C31.7609 26.2144 31.8528 25.8406 31.9164 25.4615C31.9928 25.007 32.0285 24.5449 31.9731 24.0925C31.9176 23.64 31.771 23.1968 31.5718 22.7811C31.3727 22.3651 31.121 21.9767 30.8217 21.6293C30.4224 21.1658 29.9386 20.7753 29.4269 20.4324C28.7866 20.0032 28.1028 19.6483 27.4016 19.3326C26.7002 19.0169 25.9813 18.7405 25.2476 18.5065C24.6603 18.3193 24.0637 18.1593 23.4534 18.0703C22.9965 18.0036 22.5319 17.9768 22.071 18.0234C21.6108 18.0701 21.1545 18.19 20.7422 18.3961C20.3299 18.6022 19.9616 18.8943 19.6478 19.2314C19.3334 19.5688 19.0734 19.9514 18.8571 20.3563C18.6405 20.7616 18.4678 21.1894 18.3363 21.6288C18.2048 22.0683 18.1145 22.5197 18.0607 22.9752C17.989 23.5823 17.9822 24.1964 18.0329 24.8048C18.0964 25.565 18.2496 26.3163 18.4249 27.0624C18.6005 27.8083 18.7981 28.5494 19.0987 29.2529C19.3391 29.8154 19.6452 30.3543 20.0491 30.8176C20.3012 31.1069 20.5916 31.3668 20.9183 31.5705C21.1796 31.7335 21.4641 31.8603 21.763 31.9319C21.9875 31.9857 22.2201 32.008 22.4514 31.9975C22.6825 31.987 22.9124 31.9435 23.1301 31.8673C23.4197 31.7657 23.6882 31.6059 23.9236 31.4088C24.2184 31.162 24.4616 30.8566 24.6626 30.5293C24.9041 30.1365 25.0847 29.7123 25.2238 29.2769Z" fill="white"/>
<path d="M24.0667 22.4609L23.9619 22.6057L24.0509 23.3375L24.1332 23.1671L24.0667 22.4609Z" fill="#FBF100"/>
<path d="M22.71 18.9722L22.1514 19.0064L22.4271 19.1049L22.9169 19.0707L22.71 18.9722Z" fill="#A40000"/>
<path d="M23.9688 21.7756L23.8311 21.8958L23.962 22.6057L24.0667 22.461L23.9688 21.7756Z" fill="#FFAE00"/>
<path d="M22.9165 19.0708L22.4268 19.105L22.7029 19.3228L23.1235 19.2841L22.9165 19.0708Z" fill="#A80000"/>
<path d="M23.8424 21.1301L23.6621 21.2277L23.8316 21.8958L23.9693 21.7756L23.8424 21.1301Z" fill="#FF7300"/>
<path d="M23.1237 19.2839L22.7031 19.3227L22.972 19.6543L23.3253 19.6067L23.1237 19.2839Z" fill="#B60000"/>
<path d="M23.6894 20.5427L23.458 20.6203L23.6616 21.2276L23.8419 21.13L23.6894 20.5427Z" fill="#FF3F00"/>
<path d="M23.3249 19.6067L22.9717 19.6544L23.2257 20.0909L23.5153 20.0302L23.3249 19.6067Z" fill="#D60000"/>
<path d="M23.5152 20.03L23.2256 20.0908L23.4576 20.6202L23.689 20.5427L23.5152 20.03Z" fill="#FF1300"/>
<path d="M25.1918 24.7556L24.7072 24.8574L24.6836 25.4036L25.1867 25.272L25.1918 24.7556Z" fill="#16FFE1"/>
<path d="M25.1959 24.1958L24.7201 24.2639L24.707 24.8574L25.1916 24.7556L25.1959 24.1958Z" fill="#4DFFAA"/>
<path d="M25.1999 23.6072L24.7227 23.6386L24.7207 24.264L25.1965 24.1958L25.1999 23.6072Z" fill="#80FF77"/>
<path d="M25.2016 23.0051L24.7129 22.9978L24.7222 23.6385L25.1994 23.6071L25.2016 23.0051Z" fill="#B7FF40"/>
<path d="M25.2026 22.406L24.6924 22.3591L24.7127 22.9979L25.2015 23.0052L25.2026 22.406Z" fill="#EBFF0C"/>
<path d="M25.1736 19.4814L24.2471 19.2148L24.3163 19.3025L25.1802 19.5592L25.1736 19.4814Z" fill="#ED0400"/>
<path d="M25.2032 21.8262L24.6621 21.74L24.6931 22.3593L25.2033 22.4062L25.2032 21.8262Z" fill="#FFCC00"/>
<path d="M25.1802 19.5595L24.3164 19.3027L24.3854 19.4941L25.1863 19.7347L25.1802 19.5595Z" fill="#F10800"/>
<path d="M25.2018 21.2814L24.6211 21.1572L24.6619 21.7399L25.203 21.8261L25.2018 21.2814Z" fill="#FF9800"/>
<path d="M25.1857 19.7346L24.3848 19.4939L24.4515 19.7841L25.191 20.0028L25.1857 19.7346Z" fill="#FF1300"/>
<path d="M25.1991 20.7871L24.5713 20.6274L24.6208 21.1572L25.2015 21.2814L25.1991 20.7871Z" fill="#FF6C00"/>
<path d="M25.1916 20.0026L24.4521 19.7839L24.5149 20.1653L25.1961 20.3567L25.1916 20.0026Z" fill="#FF2900"/>
<path d="M25.1959 20.357L24.5146 20.1655L24.5715 20.6275L25.1994 20.7871L25.1959 20.357Z" fill="#FF4700"/>
<path d="M24.7077 24.8574L24.3506 25.0127L24.3066 25.5869L24.684 25.4036L24.7077 24.8574Z" fill="#13FCE4"/>
<path d="M24.7207 24.2639L24.3734 24.3877L24.3506 25.0126L24.7076 24.8574L24.7207 24.2639Z" fill="#49FFAD"/>
<path d="M24.7227 23.6387L24.3506 23.7286L24.3735 24.3878L24.7207 24.264L24.7227 23.6387Z" fill="#80FF77"/>
<path d="M24.713 22.9978L24.3525 23.0523L24.3739 23.7284L24.7223 23.6385L24.713 22.9978Z" fill="#BAFF3C"/>
<path d="M24.6929 22.3594L24.3096 22.3778L24.3528 23.0526L24.7133 22.9982L24.6929 22.3594Z" fill="#F1FC06"/>
<path d="M24.2472 19.2149L23.415 19.0427L23.552 19.1375L24.3165 19.3026L24.2472 19.2149Z" fill="#D10000"/>
<path d="M24.6616 21.7397L24.2451 21.7227L24.3092 22.3775L24.6926 22.359L24.6616 21.7397Z" fill="#FFC100"/>
<path d="M24.3163 19.3026L23.5518 19.1375L23.6887 19.3417L24.3852 19.4939L24.3163 19.3026Z" fill="#D60000"/>
<path d="M24.6211 21.1572L24.1621 21.1062L24.2454 21.7228L24.6619 21.7399L24.6211 21.1572Z" fill="#FF8900"/>
<path d="M24.3851 19.4937L23.6885 19.3416L23.8216 19.6502L24.4518 19.7839L24.3851 19.4937Z" fill="#E40000"/>
<path d="M24.5723 20.6276L24.0625 20.5452L24.1628 21.1063L24.6218 21.1573L24.5723 20.6276Z" fill="#FF5D00"/>
<path d="M24.4525 19.7841L23.8223 19.6504L23.9478 20.0552L24.5152 20.1654L24.4525 19.7841Z" fill="#FF1300"/>
<path d="M24.5147 20.1654L23.9473 20.0552L24.0618 20.545L24.5715 20.6274L24.5147 20.1654Z" fill="#FF3400"/>
<path d="M25.7778 24.7083L25.1926 24.7556L25.1875 25.272L25.7887 25.1937L25.7778 24.7083Z" fill="#1CFFDB"/>
<path d="M25.7743 24.1833L25.1967 24.1955L25.1924 24.7553L25.7775 24.7079L25.7743 24.1833Z" fill="#50FFA7"/>
<path d="M25.7797 23.6337L25.2006 23.6072L25.1973 24.1959L25.7749 24.1837L25.7797 23.6337Z" fill="#80FF77"/>
<path d="M25.792 23.0723L25.2025 23.0049L25.2002 23.6069L25.7793 23.6334L25.792 23.0723Z" fill="#B4FF43"/>
<path d="M25.812 22.5155L25.2033 22.406L25.2021 23.0052L25.7917 23.0726L25.812 22.5155Z" fill="#E4FF13"/>
<path d="M25.8393 21.9775L25.2031 21.8259L25.2032 22.4059L25.8119 22.5154L25.8393 21.9775Z" fill="#FFD700"/>
<path d="M26.151 19.8312L25.1738 19.4814L25.1804 19.5593L26.1021 19.8972L26.151 19.8312Z" fill="#FF1E00"/>
<path d="M25.8734 21.4735L25.2021 21.2812L25.2034 21.826L25.8396 21.9775L25.8734 21.4735Z" fill="#FFA700"/>
<path d="M26.1024 19.897L25.1807 19.5591L25.1867 19.7343L26.0528 20.0539L26.1024 19.897Z" fill="#FF1E00"/>
<path d="M25.9122 21.0174L25.1992 20.7869L25.2016 21.2812L25.8729 21.4735L25.9122 21.0174Z" fill="#FF7E00"/>
<path d="M26.0526 20.0539L25.1865 19.7344L25.1919 20.0026L26.0036 20.2977L26.0526 20.0539Z" fill="#FF2900"/>
<path d="M25.9565 20.6218L25.1963 20.3567L25.1998 20.7869L25.9127 21.0174L25.9565 20.6218Z" fill="#FF5900"/>
<path d="M26.0041 20.2975L25.1924 20.0024L25.1968 20.3565L25.9571 20.6216L26.0041 20.2975Z" fill="#FF3B00"/>
<path d="M24.3723 28.5932L25.1586 28.2959L25.0018 28.3792L24.2041 28.6827L24.3723 28.5932Z" fill="#00CCFF"/>
<path d="M24.5258 28.4573L25.3019 28.1697L25.1584 28.296L24.3721 28.5933L24.5258 28.4573Z" fill="#00DCFE"/>
<path d="M24.6607 28.2781L25.428 28.0032L25.3015 28.1694L24.5254 28.4571L24.6607 28.2781Z" fill="#09F0EE"/>
<path d="M24.7734 28.0605L25.5336 27.8013L25.4275 28.0034L24.6602 28.2783L24.7734 28.0605Z" fill="#1CFFDB"/>
<path d="M24.8626 27.8094L25.6175 27.5684L25.5346 27.8013L24.7744 28.0606L24.8626 27.8094Z" fill="#33FFC4"/>
<path d="M24.923 27.5312L25.6747 27.3103L25.6172 27.5682L24.8623 27.8093L24.923 27.5312Z" fill="#4DFFAA"/>
<path d="M24.9544 27.2332L25.7049 27.0342L25.6745 27.3105L24.9229 27.5313L24.9544 27.2332Z" fill="#63FF94"/>
<path d="M24.9555 26.9229L25.7071 26.7466L25.7046 27.0341L24.9541 27.2332L24.9555 26.9229Z" fill="#7DFF7A"/>
<path d="M24.9268 26.6084L25.6816 26.4553L25.7073 26.7466L24.9557 26.9229L24.9268 26.6084Z" fill="#97FF60"/>
<path d="M24.8682 26.2981L25.6283 26.168L25.6817 26.4553L24.9269 26.6084L24.8682 26.2981Z" fill="#B1FF46"/>
<path d="M24.7812 26.0002L25.5487 25.8921L25.6284 26.1679L24.8682 26.298L24.7812 26.0002Z" fill="#C7FF30"/>
<path d="M24.668 25.7227L25.4445 25.6353L25.5485 25.8921L24.781 26.0002L24.668 25.7227Z" fill="#DEFF19"/>
<path d="M23.6465 24.8414L24.4992 24.8198L24.6744 24.8482L23.8353 24.872L23.6465 24.8414Z" fill="#FFCC00"/>
<path d="M24.5322 25.4731L25.3195 25.4043L25.445 25.6354L24.6684 25.7228L24.5322 25.4731Z" fill="#F1FC06"/>
<path d="M23.835 24.872L24.6741 24.8481L24.8483 24.9233L24.0228 24.9532L23.835 24.872Z" fill="#FFCC00"/>
<path d="M24.376 25.2578L25.1751 25.2051L25.3189 25.4041L24.5317 25.4729L24.376 25.2578Z" fill="#FFEA00"/>
<path d="M24.0234 24.9533L24.8489 24.9233L25.0174 25.0434L24.2054 25.083L24.0234 24.9533Z" fill="#FFD000"/>
<path d="M24.2051 25.0829L25.0171 25.0432L25.1754 25.2049L24.3762 25.2576L24.2051 25.0829Z" fill="#FFDB00"/>
<path d="M24.3535 23.0522L24.1338 23.1669L24.1673 23.8744L24.3749 23.7284L24.3535 23.0522Z" fill="#BEFF39"/>
<path d="M24.3104 22.3774L24.0674 22.4608L24.1339 23.1669L24.3536 23.0522L24.3104 22.3774Z" fill="#F8F500"/>
<path d="M23.4153 19.0427L22.71 18.9722L22.9168 19.0707L23.5522 19.1374L23.4153 19.0427Z" fill="#BB0000"/>
<path d="M24.2456 21.7227L23.9688 21.7755L24.0667 22.4609L24.3097 22.3775L24.2456 21.7227Z" fill="#FFB900"/>
<path d="M23.5524 19.1375L22.917 19.0708L23.1241 19.2841L23.6893 19.3418L23.5524 19.1375Z" fill="#BF0000"/>
<path d="M24.1623 21.106L23.8418 21.13L23.9687 21.7754L24.2456 21.7226L24.1623 21.106Z" fill="#FF7E00"/>
<path d="M23.6893 19.3419L23.124 19.2842L23.3256 19.6069L23.8224 19.6506L23.6893 19.3419Z" fill="#CD0000"/>
<path d="M24.0621 20.5451L23.6895 20.543L23.8419 21.1303L24.1624 21.1062L24.0621 20.5451Z" fill="#FF4E00"/>
<path d="M23.822 19.6503L23.3252 19.6067L23.5156 20.0302L23.9476 20.0552L23.822 19.6503Z" fill="#E80000"/>
<path d="M23.9476 20.0552L23.5156 20.0303L23.6895 20.5429L24.0621 20.545L23.9476 20.0552Z" fill="#FF2200"/>
<path d="M23.8864 28.7628L24.5259 28.4573L24.3722 28.5932L23.7197 28.9106L23.8864 28.7628Z" fill="#00D0FF"/>
<path d="M24.0332 28.5678L24.6615 28.2781L24.5263 28.4571L23.8867 28.7626L24.0332 28.5678Z" fill="#00E4F8"/>
<path d="M24.1556 28.3307L24.7748 28.0603L24.6616 28.2781L24.0332 28.5678L24.1556 28.3307Z" fill="#16FFE1"/>
<path d="M24.2503 28.0573L24.8627 27.8093L24.7745 28.0605L24.1553 28.3309L24.2503 28.0573Z" fill="#2CFFCA"/>
<path d="M24.3151 27.7542L24.9231 27.5312L24.8624 27.8094L24.25 28.0574L24.3151 27.7542Z" fill="#46FFB1"/>
<path d="M24.3487 27.4291L24.955 27.2332L24.9234 27.5312L24.3154 27.7542L24.3487 27.4291Z" fill="#63FF94"/>
<path d="M24.349 27.0904L24.9563 26.9226L24.9549 27.2329L24.3486 27.4289L24.349 27.0904Z" fill="#7DFF7A"/>
<path d="M24.3164 26.7475L24.9273 26.6084L24.9563 26.9228L24.3491 27.0906L24.3164 26.7475Z" fill="#9AFF5D"/>
<path d="M24.251 26.4087L24.8682 26.2981L24.9269 26.6084L24.316 26.7474L24.251 26.4087Z" fill="#B7FF40"/>
<path d="M24.1553 26.0832L24.7814 26L24.8683 26.2979L24.2511 26.4085L24.1553 26.0832Z" fill="#D1FF26"/>
<path d="M24.0312 25.7803L24.6684 25.7227L24.7815 26.0002L24.1554 26.0834L24.0312 25.7803Z" fill="#E7FF0F"/>
<path d="M23.8818 25.5075L24.5321 25.4729L24.6683 25.7226L24.0311 25.7802L23.8818 25.5075Z" fill="#FBF100"/>
<path d="M23.7119 25.2725L24.3769 25.2578L24.5326 25.4729L23.8823 25.5075L23.7119 25.2725Z" fill="#FFDB00"/>
<path d="M19.4912 27.3393L19.5997 27.6925L19.4171 26.998L19.3047 26.6301L19.4912 27.3393Z" fill="#00B4FF"/>
<path d="M19.2069 26.232L19.3074 26.6431L19.4171 26.998L19.2975 26.2784L19.1279 25.6772L19.2069 26.232Z" fill="#16FFE1"/>
<path d="M19.1824 25.895L19.2976 26.2784L19.2446 25.5513L19.1279 25.1521L19.1824 25.895Z" fill="#56FFA0"/>
<path d="M19.1279 25.1519L19.2446 25.5511L19.2603 24.8348L19.1435 24.4197L19.1279 25.1519Z" fill="#97FF60"/>
<path d="M19.1436 24.4196L19.2604 24.8347L19.3452 24.1474L19.2295 23.7168L19.1436 24.4196Z" fill="#D4FF23"/>
<path d="M19.2295 23.7169L19.3451 24.1475L19.4977 23.5073L19.3846 23.062L19.2295 23.7169Z" fill="#FFD700"/>
<path d="M19.3848 23.0622L19.4978 23.5074L19.715 22.9317L19.6058 22.4729L19.3848 23.0622Z" fill="#FF9400"/>
<path d="M19.6055 22.4728L19.7146 22.9316L19.9915 22.4363L19.8875 21.9656L19.6055 22.4728Z" fill="#FF5900"/>
<path d="M19.8877 21.9656L19.9917 22.4363L20.3216 22.0356L20.2239 21.5549L19.8877 21.9656Z" fill="#FF2500"/>
<path d="M24.5762 25.3088L24.5872 25.7153L24.6569 26.4617L24.6473 26.0719L24.5762 25.3088Z" fill="#C1FF36"/>
<path d="M20.2236 21.555L20.3213 22.0357L20.696 21.7415L20.6055 21.2532L20.2236 21.555Z" fill="#DF0000"/>
<path d="M24.4326 24.5532L24.4466 24.9761L24.587 25.7153L24.5759 25.3088L24.4326 24.5532Z" fill="#FFEA00"/>
<path d="M20.6064 21.253L20.6969 21.7414L21.1064 21.5628L21.0241 21.0693L20.6064 21.253Z" fill="#BB0000"/>
<path d="M24.2207 23.8259L24.239 24.2645L24.4469 24.9762L24.4329 24.5533L24.2207 23.8259Z" fill="#FFA700"/>
<path d="M21.0234 21.0692L21.1057 21.5626L21.5393 21.5056L21.4657 21.0098L21.0234 21.0692Z" fill="#9F0000"/>
<path d="M23.9453 23.147L23.9692 23.6002L24.2394 24.2644L24.2211 23.8258L23.9453 23.147Z" fill="#FF6C00"/>
<path d="M21.4658 21.0098L21.5394 21.5056L21.9851 21.5725L21.9205 21.0772L21.4658 21.0098Z" fill="#920000"/>
<path d="M23.6133 22.5359L23.6439 23.0021L23.9693 23.6002L23.9455 23.147L23.6133 22.5359Z" fill="#FF3400"/>
<path d="M21.9199 21.0774L21.9845 21.5728L22.43 21.7625L22.3745 21.2705L21.9199 21.0774Z" fill="#960000"/>
<path d="M23.2334 22.01L23.2716 22.4873L23.6436 23.0022L23.613 22.536L23.2334 22.01Z" fill="#F10800"/>
<path d="M22.375 21.2705L22.4305 21.7625L22.8634 22.0703L22.8167 21.5843L22.375 21.2705Z" fill="#A40000"/>
<path d="M22.8164 21.5842L22.8631 22.0702L23.2711 22.4873L23.2329 22.0101L22.8164 21.5842Z" fill="#C40000"/>
<path d="M19.0828 25.4878L19.1824 25.895L19.1279 25.1521L19.0273 24.7354L19.0828 25.4878Z" fill="#53FFA4"/>
<path d="M19.0273 24.7352L19.1279 25.152L19.1434 24.4198L19.0426 23.9934L19.0273 24.7352Z" fill="#97FF60"/>
<path d="M19.043 23.9935L19.1438 24.4198L19.2297 23.7171L19.1294 23.2812L19.043 23.9935Z" fill="#D7FF1F"/>
<path d="M19.1289 23.2813L19.2292 23.7171L19.3843 23.0622L19.2853 22.6174L19.1289 23.2813Z" fill="#FFD300"/>
<path d="M19.2852 22.6174L19.3842 23.0622L19.6053 22.4729L19.5082 22.0198L19.2852 22.6174Z" fill="#FF9100"/>
<path d="M19.5088 22.0198L19.6059 22.473L19.8879 21.9657L19.7935 21.5051L19.5088 22.0198Z" fill="#FF5200"/>
<path d="M19.793 21.5051L19.8874 21.9657L20.2236 21.555L20.1325 21.0881L19.793 21.5051Z" fill="#FF1E00"/>
<path d="M20.1328 21.0881L20.2239 21.555L20.6058 21.2531L20.5186 20.7812L20.1328 21.0881Z" fill="#D60000"/>
<path d="M20.5186 20.7812L20.6057 21.253L21.0234 21.0693L20.9406 20.594L20.5186 20.7812Z" fill="#AD0000"/>
<path d="M24.1729 23.3806L24.2204 23.8259L24.4326 24.5533L24.3875 24.1173L24.1729 23.3806Z" fill="#FFA300"/>
<path d="M20.9404 20.594L21.0233 21.0693L21.4655 21.0099L21.3873 20.5327L20.9404 20.594Z" fill="#920000"/>
<path d="M23.8945 22.6934L23.9452 23.1472L24.221 23.826L24.1735 23.3807L23.8945 22.6934Z" fill="#FF6400"/>
<path d="M21.3877 20.5327L21.4658 21.0099L21.9205 21.0773L21.8473 20.6L21.3877 20.5327Z" fill="#840000"/>
<path d="M23.5586 22.0747L23.6131 22.536L23.9453 23.1471L23.8946 22.6933L23.5586 22.0747Z" fill="#FF2D00"/>
<path d="M21.8467 20.6001L21.9199 21.0774L22.3745 21.2705L22.3062 20.7948L21.8467 20.6001Z" fill="#890000"/>
<path d="M23.1748 21.5425L23.2335 22.0101L23.6131 22.5361L23.5587 22.0747L23.1748 21.5425Z" fill="#E40000"/>
<path d="M22.3066 20.7949L22.3749 21.2706L22.8166 21.5844L22.7532 21.112L22.3066 20.7949Z" fill="#9B0000"/>
<path d="M22.7529 21.1118L22.8163 21.5843L23.2328 22.0101L23.1741 21.5425L22.7529 21.1118Z" fill="#BB0000"/>
<path d="M19.1527 25.8213L19.207 26.2321L19.083 25.4879L19.0283 25.0742L19.1527 25.8213Z" fill="#13FCE4"/>
<path d="M19.4174 26.9979L19.5219 27.3202L19.406 26.6221L19.2979 26.2783L19.4174 26.9979Z" fill="#19FFDE"/>
<path d="M19.2981 26.2783L19.4063 26.6221L19.3552 25.9169L19.2451 25.5513L19.2981 26.2783Z" fill="#56FFA0"/>
<path d="M19.2451 25.5513L19.3552 25.9169L19.3709 25.2224L19.2608 24.835L19.2451 25.5513Z" fill="#94FF63"/>
<path d="M19.2607 24.835L19.3708 25.2225L19.4536 24.5564L19.3455 24.1477L19.2607 24.835Z" fill="#D1FF26"/>
<path d="M19.3457 24.1475L19.4538 24.5562L19.6024 23.9361L19.4982 23.5073L19.3457 24.1475Z" fill="#FFDB00"/>
<path d="M19.498 23.5074L19.6022 23.9362L19.8135 23.3788L19.7152 22.9316L19.498 23.5074Z" fill="#FF9C00"/>
<path d="M19.7158 22.9316L19.8141 23.3788L20.0833 22.8995L19.9927 22.4363L19.7158 22.9316Z" fill="#FF6000"/>
<path d="M19.9922 22.4364L20.0828 22.8996L20.4035 22.5123L20.3221 22.0356L19.9922 22.4364Z" fill="#FF3000"/>
<path d="M24.5876 25.7153L24.5449 26.0854L24.6128 26.8088L24.6573 26.4618L24.5876 25.7153Z" fill="#C1FF36"/>
<path d="M20.3223 22.0357L20.4036 22.5123L20.7676 22.2282L20.6969 21.7415L20.3223 22.0357Z" fill="#F10800"/>
<path d="M24.4479 24.9763L24.4092 25.3691L24.5456 26.0856L24.5883 25.7155L24.4479 24.9763Z" fill="#FBF100"/>
<path d="M20.6963 21.7413L20.767 22.2281L21.1648 22.0561L21.1059 21.5627L20.6963 21.7413Z" fill="#C80000"/>
<path d="M24.2398 24.2644L24.207 24.6791L24.4089 25.3688L24.4477 24.976L24.2398 24.2644Z" fill="#FFAE00"/>
<path d="M21.1064 21.5629L21.1654 22.0563L21.5864 22.0021L21.54 21.5059L21.1064 21.5629Z" fill="#AD0000"/>
<path d="M23.9692 23.6003L23.9443 24.0354L24.2067 24.6793L24.2395 24.2646L23.9692 23.6003Z" fill="#FF7300"/>
<path d="M21.54 21.5056L21.5864 22.0018L22.0191 22.0677L21.9857 21.5726L21.54 21.5056Z" fill="#A40000"/>
<path d="M23.6443 23.0022L23.6289 23.4555L23.9449 24.0353L23.9698 23.6003L23.6443 23.0022Z" fill="#FF3F00"/>
<path d="M21.9854 21.5728L22.0187 22.0679L22.4511 22.2526L22.4308 21.7625L21.9854 21.5728Z" fill="#A40000"/>
<path d="M23.272 22.4873L23.2676 22.9562L23.6286 23.4555L23.644 23.0022L23.272 22.4873Z" fill="#FF1300"/>
<path d="M22.4316 21.7625L22.4519 22.2525L22.872 22.5514L22.8645 22.0701L22.4316 21.7625Z" fill="#B60000"/>
<path d="M22.8643 22.0701L22.8718 22.5513L23.2679 22.9561L23.2723 22.4873L22.8643 22.0701Z" fill="#D10000"/>
<path d="M19.6005 27.6922L19.6996 27.9941L19.5224 27.3201L19.418 26.9978L19.6005 27.6922Z" fill="#00BCFF"/>
<path d="M19.6986 27.9938L19.7756 28.2327L19.6052 27.5844L19.5215 27.3198L19.6986 27.9938Z" fill="#00C4FF"/>
<path d="M19.5221 27.32L19.6058 27.5845L19.4946 26.9133L19.4062 26.6218L19.5221 27.32Z" fill="#1CFFDB"/>
<path d="M19.4056 26.6219L19.4939 26.9133L19.445 26.2356L19.3545 25.9167L19.4056 26.6219Z" fill="#56FFA0"/>
<path d="M19.3545 25.9167L19.445 26.2355L19.4604 25.5683L19.3702 25.2222L19.3545 25.9167Z" fill="#94FF63"/>
<path d="M19.3701 25.2225L19.4604 25.5686L19.5404 24.929L19.4529 24.5564L19.3701 25.2225Z" fill="#CEFF29"/>
<path d="M24.4025 28.8311L24.3032 29.0427L24.1123 29.5876L24.2038 29.3981L24.4025 28.8311Z" fill="#00B0FF"/>
<path d="M19.4531 24.5564L19.5406 24.929L19.684 24.3338L19.6017 23.9363L19.4531 24.5564Z" fill="#FFE200"/>
<path d="M24.5399 28.1997L24.435 28.4362L24.3037 29.0427L24.4031 28.831L24.5399 28.1997Z" fill="#0CF4EB"/>
<path d="M19.6016 23.9361L19.6838 24.3336L19.8874 23.7989L19.8129 23.3787L19.6016 23.9361Z" fill="#FFA300"/>
<path d="M24.6102 27.5198L24.5022 27.783L24.4346 28.4361L24.5395 28.1997L24.6102 27.5198Z" fill="#46FFB1"/>
<path d="M19.8135 23.3787L19.888 23.799L20.1472 23.3396L20.0827 22.8994L19.8135 23.3787Z" fill="#FF6C00"/>
<path d="M24.6128 26.8088L24.5043 27.1002L24.5029 27.7831L24.6109 27.5199L24.6128 26.8088Z" fill="#80FF77"/>
<path d="M20.082 22.8996L20.1466 23.3397L20.4551 22.9688L20.4027 22.5122L20.082 22.8996Z" fill="#FF3B00"/>
<path d="M24.5447 26.0852L24.4385 26.4053L24.5041 27.1L24.6126 26.8087L24.5447 26.0852Z" fill="#BEFF39"/>
<path d="M20.4023 22.5121L20.4548 22.9686L20.805 22.697L20.7663 22.228L20.4023 22.5121Z" fill="#FF1300"/>
<path d="M24.408 25.3689L24.3066 25.7175L24.4381 26.4054L24.5444 26.0853L24.408 25.3689Z" fill="#F8F500"/>
<path d="M20.7666 22.2279L20.8053 22.6968L21.1878 22.5327L21.1644 22.0559L20.7666 22.2279Z" fill="#DA0000"/>
<path d="M24.2061 24.679L24.1123 25.0551L24.3067 25.7173L24.408 25.3687L24.2061 24.679Z" fill="#FFB600"/>
<path d="M21.165 22.0562L21.1885 22.533L21.5932 22.4819L21.586 22.002L21.165 22.0562Z" fill="#C40000"/>
<path d="M23.9442 24.0352L23.8604 24.4369L24.1128 25.0551L24.2066 24.679L23.9442 24.0352Z" fill="#FF7E00"/>
<path d="M21.5859 22.0017L21.5932 22.4817L22.0091 22.5458L22.0186 22.0676L21.5859 22.0017Z" fill="#B60000"/>
<path d="M23.6284 23.4556L23.5566 23.8804L23.8605 24.4372L23.9444 24.0354L23.6284 23.4556Z" fill="#FF4A00"/>
<path d="M22.0183 22.0676L22.0088 22.5459L22.4245 22.724L22.4507 22.2524L22.0183 22.0676Z" fill="#BB0000"/>
<path d="M23.2668 22.9563L23.209 23.4008L23.5561 23.8805L23.6278 23.4557L23.2668 22.9563Z" fill="#FF1E00"/>
<path d="M22.451 22.2522L22.4248 22.7238L22.8286 23.0113L22.8712 22.5511L22.451 22.2522Z" fill="#C80000"/>
<path d="M22.8706 22.5513L22.8281 23.0115L23.2089 23.4005L23.2667 22.9561L22.8706 22.5513Z" fill="#E40000"/>
<path d="M23.4749 28.5531L24.3239 28.2599L24.1634 28.1213L23.3018 28.4035L23.4749 28.5531Z" fill="#00C4FF"/>
<path d="M23.3013 28.4037L24.1629 28.1215L24.0142 27.9448L23.1406 28.2131L23.3013 28.4037Z" fill="#00D0FF"/>
<path d="M23.1412 28.2131L24.0148 27.9448L23.8816 27.7344L22.9971 27.9862L23.1412 28.2131Z" fill="#00E0FB"/>
<path d="M22.997 27.9863L23.8815 27.7345L23.7674 27.4956L22.873 27.7287L22.997 27.9863Z" fill="#0FF8E7"/>
<path d="M22.7444 28.8657L23.475 28.5534L23.3018 28.4038L22.5557 28.7026L22.7444 28.8657Z" fill="#00B4FF"/>
<path d="M22.5552 28.7025L23.3014 28.4038L23.1408 28.2131L22.3799 28.4947L22.5552 28.7025Z" fill="#00C0FF"/>
<path d="M22.9416 28.9799L23.6561 28.658L23.4747 28.5532L22.7441 28.8655L22.9416 28.9799Z" fill="#00A8FF"/>
<path d="M22.873 27.7285L23.7673 27.4955L23.675 27.2341L22.7725 27.4467L22.873 27.7285Z" fill="#23FFD4"/>
<path d="M22.3802 28.4949L23.1411 28.2133L22.997 27.9863L22.2227 28.2475L22.3802 28.4949Z" fill="#00D4FF"/>
<path d="M23.1437 29.0428L23.8418 28.7155L23.6568 28.6582L22.9424 28.9801L23.1437 29.0428Z" fill="#00A8FF"/>
<path d="M22.2227 28.2473L22.9971 27.9861L22.8732 27.7285L22.0869 27.9666L22.2227 28.2473Z" fill="#06ECF1"/>
<path d="M22.7728 27.4467L23.6754 27.2341L23.6073 26.9568L22.6982 27.1476L22.7728 27.4467Z" fill="#39FFBE"/>
<path d="M23.3436 29.052L24.0257 28.7236L23.8417 28.7153L23.1436 29.0426L23.3436 29.052Z" fill="#00A8FF"/>
<path d="M22.0871 27.9665L22.8734 27.7284L22.7728 27.4465L21.9766 27.6594L22.0871 27.9665Z" fill="#1CFFDB"/>
<path d="M22.698 27.1475L23.6071 26.9567L23.5651 26.6704L22.6514 26.8388L22.698 27.1475Z" fill="#53FFA4"/>
<path d="M21.976 27.6596L22.7722 27.4468L22.6976 27.1477L21.8936 27.3337L21.976 27.6596Z" fill="#36FFC1"/>
<path d="M22.6511 26.8389L23.5649 26.6705L23.5501 26.3826L22.6338 26.5283L22.6511 26.8389Z" fill="#6DFF8A"/>
<path d="M21.8939 27.3338L22.698 27.1479L22.6514 26.8391L21.8418 26.9973L21.8939 27.3338Z" fill="#50FFA7"/>
<path d="M22.6338 26.5283L23.5501 26.3826L23.5631 26.1003L22.6463 26.2238L22.6338 26.5283Z" fill="#87FF70"/>
<path d="M21.8416 26.9971L22.6512 26.8389L22.6339 26.5283L21.8213 26.6585L21.8416 26.9971Z" fill="#6AFF8D"/>
<path d="M22.6465 26.2238L23.5633 26.1004L23.6039 25.8311L22.6886 25.9332L22.6465 26.2238Z" fill="#A0FF56"/>
<path d="M21.8213 26.6584L22.6339 26.5282L22.6464 26.2236L21.8334 26.3262L21.8213 26.6584Z" fill="#87FF70"/>
<path d="M22.6885 25.933L23.6037 25.8309L23.6709 25.5815L22.7594 25.6639L22.6885 25.933Z" fill="#B7FF40"/>
<path d="M21.834 26.3264L22.6469 26.2238L22.6891 25.9331L21.8784 26.0093L21.834 26.3264Z" fill="#A4FF53"/>
<path d="M22.7598 25.6641L23.6713 25.5817L23.7635 25.3589L22.8577 25.4235L22.7598 25.6641Z" fill="#D1FF26"/>
<path d="M21.8779 26.0094L22.6886 25.9332L22.7595 25.6641L21.9537 25.7158L21.8779 26.0094Z" fill="#BEFF39"/>
<path d="M22.8574 25.4232L23.7632 25.3585L23.8781 25.1682L22.98 25.2177L22.8574 25.4232Z" fill="#E4FF13"/>
<path d="M21.9541 25.7158L22.7599 25.6641L22.8579 25.4236L22.0595 25.4533L21.9541 25.7158Z" fill="#D7FF1F"/>
<path d="M22.0586 25.453L22.8569 25.4233L22.9795 25.2178L22.191 25.2287L22.0586 25.453Z" fill="#EEFF09"/>
<path d="M22.1914 25.2289L22.98 25.218L23.1241 25.0531L22.3475 25.0488L22.1914 25.2289Z" fill="#FFEA00"/>
<path d="M22.3477 25.0488L23.1243 25.0531L23.2863 24.9333L22.5234 24.918L22.3477 25.0488Z" fill="#FFD700"/>
<path d="M21.2961 30.6829L21.257 30.6533L20.9189 30.3608L20.9385 30.3736L21.2961 30.6829Z" fill="#0000FF"/>
<path d="M20.9381 30.3738L20.9185 30.361L20.6035 29.9893L20.605 29.9807L20.9381 30.3738Z" fill="#0010FF"/>
<path d="M21.6693 30.901L21.6098 30.8595L21.2568 30.6533L21.2959 30.683L21.6693 30.901Z" fill="#0000F1"/>
<path d="M20.6054 29.9806L20.6039 29.9892L20.3197 29.5473L20.3047 29.5132L20.6054 29.9806Z" fill="#0038FF"/>
<path d="M22.049 31.0223L21.9687 30.9741L21.6094 30.8594L21.6688 30.9009L22.049 31.0223Z" fill="#0000E8"/>
<path d="M20.3047 29.5131L20.3197 29.5472L20.0732 29.0456L20.0439 28.9824L20.3047 29.5131Z" fill="#0064FF"/>
<path d="M22.4267 31.0437L22.3256 30.9942L21.9688 30.9741L22.049 31.0224L22.4267 31.0437Z" fill="#0000ED"/>
<path d="M20.0434 28.9826L20.0727 29.0458L19.8701 28.4965L19.8291 28.4014L20.0434 28.9826Z" fill="#0098FF"/>
<path d="M22.7932 30.9639L22.6719 30.9187L22.3262 30.9942L22.4272 31.0437L22.7932 30.9639Z" fill="#0000FF"/>
<path d="M19.8293 28.4014L19.8704 28.4965L19.717 27.9127L19.667 27.7834L19.8293 28.4014Z" fill="#00D4FF"/>
<path d="M23.1384 30.7843L22.9978 30.7488L22.6719 30.9186L22.7932 30.9638L23.1384 30.7843Z" fill="#0008FF"/>
<path d="M19.6665 27.7832L19.7165 27.9124L19.6166 27.3084L19.5605 27.1436L19.6665 27.7832Z" fill="#26FFD1"/>
<path d="M23.4544 30.5087L23.296 30.4883L22.998 30.7489L23.1387 30.7844L23.4544 30.5087Z" fill="#002CFF"/>
<path d="M19.561 27.1438L19.617 27.3087L19.5734 26.6993L19.5146 26.4983L19.561 27.1438Z" fill="#5AFF9D"/>
<path d="M23.7324 30.1428L23.5581 30.1426L23.2959 30.4883L23.4543 30.5087L23.7324 30.1428Z" fill="#0054FF"/>
<path d="M19.5146 26.4982L19.5734 26.6992L19.5877 26.0999L19.5296 25.863L19.5146 26.4982Z" fill="#90FF66"/>
<path d="M23.9649 29.6951L23.777 29.7197L23.5576 30.1425L23.7319 30.1428L23.9649 29.6951Z" fill="#0088FF"/>
<path d="M19.5293 25.863L19.5874 26.0999L19.6599 25.5259L19.6058 25.2544L19.5293 25.863Z" fill="#C7FF30"/>
<path d="M24.1465 29.176L23.948 29.2296L23.7773 29.7196L23.9652 29.695L24.1465 29.176Z" fill="#00C4FF"/>
<path d="M19.6064 25.2545L19.6605 25.526L19.7899 24.9925L19.7433 24.6885L19.6064 25.2545Z" fill="#FBF100"/>
<path d="M24.2714 28.5984L24.0651 28.6844L23.9482 29.2295L24.1468 29.1759L24.2714 28.5984Z" fill="#16FFE1"/>
<path d="M19.7432 24.6883L19.7898 24.9924L19.9733 24.5138L19.9374 24.1802L19.7432 24.6883Z" fill="#FFB900"/>
<path d="M24.3345 27.9768L24.124 28.098L24.0645 28.6846L24.2707 28.5985L24.3345 27.9768Z" fill="#4DFFAA"/>
<path d="M19.9375 24.1802L19.9734 24.5138L20.2068 24.1031L20.1847 23.7439L19.9375 24.1802Z" fill="#FF8600"/>
<path d="M24.3353 27.3269L24.124 27.485L24.124 28.098L24.3346 27.9768L24.3353 27.3269Z" fill="#80FF77"/>
<path d="M20.1846 23.7439L20.2067 24.1031L20.4843 23.7721L20.4787 23.3918L20.1846 23.7439Z" fill="#FF5D00"/>
<path d="M24.2728 26.666L24.0645 26.8619L24.1246 27.4852L24.3359 27.327L24.2728 26.666Z" fill="#B7FF40"/>
<path d="M20.4785 23.392L20.4842 23.7722L20.7989 23.5304L20.8121 23.1345L20.4785 23.392Z" fill="#FF3800"/>
<path d="M24.1471 26.0115L23.9453 26.2449L24.0645 26.8618L24.2728 26.6659L24.1471 26.0115Z" fill="#EBFF0C"/>
<path d="M20.812 23.1346L20.7988 23.5304L21.1425 23.3851L21.1764 22.9795L20.812 23.1346Z" fill="#FF1A00"/>
<path d="M23.9613 25.3816L23.7695 25.6513L23.945 26.2449L24.1468 26.0115L23.9613 25.3816Z" fill="#FFC800"/>
<path d="M21.1764 22.9793L21.1426 23.3849L21.506 23.3408L21.5618 22.9316L21.1764 22.9793Z" fill="#F10800"/>
<path d="M23.7205 24.7937L23.542 25.0973L23.7693 25.6514L23.9611 25.3817L23.7205 24.7937Z" fill="#FF9400"/>
<path d="M21.5617 22.9316L21.5059 23.3408L21.8793 23.3997L21.9577 22.9934L21.5617 22.9316Z" fill="#E80000"/>
<path d="M23.4308 24.2642L23.2686 24.5983L23.5418 25.0974L23.7203 24.7938L23.4308 24.2642Z" fill="#FF6800"/>
<path d="M21.9583 22.9934L21.8799 23.3997L22.253 23.5604L22.354 23.1635L21.9583 22.9934Z" fill="#ED0400"/>
<path d="M23.1006 23.8076L22.957 24.168L23.2689 24.5981L23.4311 24.264L23.1006 23.8076Z" fill="#FF4300"/>
<path d="M22.3539 23.1633L22.2529 23.5603L22.6154 23.8187L22.7384 23.4372L22.3539 23.1633Z" fill="#FA0F00"/>
<path d="M22.7382 23.4373L22.6152 23.8188L22.9571 24.1679L23.1007 23.8076L22.7382 23.4373Z" fill="#FF2200"/>
<path d="M19.7758 28.233L19.8295 28.4014L19.6672 27.7834L19.6055 27.5847L19.7758 28.233Z" fill="#00CCFF"/>
<path d="M19.6054 27.5848L19.6671 27.7835L19.5612 27.1439L19.4941 26.9136L19.6054 27.5848Z" fill="#1FFFD7"/>
<path d="M23.5764 30.4417L23.4544 30.5089L23.1387 30.7846L23.2449 30.7309L23.5764 30.4417Z" fill="#0018FF"/>
<path d="M19.4942 26.9133L19.5612 27.1437L19.5148 26.4982L19.4453 26.2356L19.4942 26.9133Z" fill="#5AFF9D"/>
<path d="M23.8681 30.0574L23.7321 30.1427L23.4541 30.5085L23.5761 30.4413L23.8681 30.0574Z" fill="#0044FF"/>
<path d="M19.4453 26.2356L19.5148 26.4981L19.5298 25.8629L19.4607 25.5684L19.4453 26.2356Z" fill="#94FF63"/>
<path d="M24.1132 29.5876L23.9654 29.6952L23.7324 30.1429L23.8684 30.0576L24.1132 29.5876Z" fill="#007CFF"/>
<path d="M19.4609 25.5683L19.53 25.8629L19.6065 25.2543L19.541 24.9287L19.4609 25.5683Z" fill="#CAFF2C"/>
<path d="M24.3036 29.0425L24.1462 29.1759L23.9648 29.6948L24.1127 29.5873L24.3036 29.0425Z" fill="#00B8FF"/>
<path d="M19.541 24.9286L19.6066 25.2542L19.7434 24.6882L19.6843 24.3335L19.541 24.9286Z" fill="#FFEA00"/>
<path d="M24.4351 28.436L24.271 28.5985L24.1465 29.176L24.3038 29.0426L24.4351 28.436Z" fill="#0FF8E7"/>
<path d="M19.6846 24.3337L19.7437 24.6885L19.9379 24.1803L19.8882 23.7991L19.6846 24.3337Z" fill="#FFAE00"/>
<path d="M24.5032 27.783L24.3353 27.9768L24.2715 28.5985L24.4356 28.4361L24.5032 27.783Z" fill="#49FFAD"/>
<path d="M19.8877 23.7987L19.9374 24.18L20.1846 23.7437L20.147 23.3394L19.8877 23.7987Z" fill="#FF7A00"/>
<path d="M24.5042 27.1001L24.3357 27.3269L24.335 27.9768L24.5029 27.783L24.5042 27.1001Z" fill="#80FF77"/>
<path d="M20.1475 23.3397L20.1851 23.7441L20.4792 23.392L20.4561 22.9688L20.1475 23.3397Z" fill="#FF4A00"/>
<path d="M24.4384 26.4055L24.2725 26.6661L24.3355 27.3271L24.504 27.1002L24.4384 26.4055Z" fill="#BAFF3C"/>
<path d="M20.4551 22.9687L20.4782 23.392L20.8118 23.1345L20.8052 22.697L20.4551 22.9687Z" fill="#FF2500"/>
<path d="M24.3067 25.7173L24.1465 26.0113L24.2722 26.6657L24.4382 26.4052L24.3067 25.7173Z" fill="#F1FC06"/>
<path d="M20.8057 22.697L20.8122 23.1345L21.1766 22.9794L21.1882 22.533L20.8057 22.697Z" fill="#F10800"/>
<path d="M24.1132 25.0554L23.9619 25.3818L24.1474 26.0117L24.3076 25.7177L24.1132 25.0554Z" fill="#FFC100"/>
<path d="M21.1885 22.5327L21.1768 22.9792L21.5621 22.9315L21.5932 22.4817L21.1885 22.5327Z" fill="#DA0000"/>
<path d="M23.8602 24.437L23.7207 24.7936L23.9614 25.3816L24.1127 25.0552L23.8602 24.437Z" fill="#FF8900"/>
<path d="M21.5936 22.4817L21.5625 22.9315L21.9585 22.9933L22.0095 22.5458L21.5936 22.4817Z" fill="#CD0000"/>
<path d="M23.5568 23.8804L23.4316 24.2642L23.7211 24.7938L23.8607 24.4372L23.5568 23.8804Z" fill="#FF5900"/>
<path d="M22.009 22.5459L21.958 22.9934L22.3537 23.1634L22.4247 22.724L22.009 22.5459Z" fill="#D10000"/>
<path d="M23.2092 23.4006L23.1006 23.8077L23.4311 24.2641L23.5563 23.8803L23.2092 23.4006Z" fill="#FF3000"/>
<path d="M22.4245 22.7241L22.3535 23.1635L22.738 23.4374L22.8284 23.0116L22.4245 22.7241Z" fill="#DF0000"/>
<path d="M22.8287 23.0115L22.7383 23.4373L23.1008 23.8076L23.2094 23.4005L22.8287 23.0115Z" fill="#FA0F00"/>
<path d="M21.8833 19.0292L21.415 19.1746L21.7454 19.1443L22.1511 19.0066L21.8833 19.0292Z" fill="#9F0000"/>
<path d="M22.1508 19.0063L21.7451 19.144L22.0854 19.2384L22.4265 19.1049L22.1508 19.0063Z" fill="#960000"/>
<path d="M23.8313 21.8958L23.8174 22.0776L23.9786 22.8052L23.9622 22.6056L23.8313 21.8958Z" fill="#FFAB00"/>
<path d="M22.4271 19.105L22.0859 19.2385L22.4267 19.4559L22.7033 19.3228L22.4271 19.105Z" fill="#960000"/>
<path d="M23.6617 21.2278L23.6084 21.394L23.8172 22.0777L23.8312 21.8958L23.6617 21.2278Z" fill="#FF6C00"/>
<path d="M22.7034 19.3228L22.4268 19.4559L22.7584 19.7908L22.9723 19.6544L22.7034 19.3228Z" fill="#A80000"/>
<path d="M23.458 20.6206L23.3574 20.7738L23.6083 21.3942L23.6616 21.2279L23.458 20.6206Z" fill="#FF3400"/>
<path d="M22.9717 19.6545L22.7578 19.7909L23.0711 20.2343L23.2257 20.0911L22.9717 19.6545Z" fill="#C80000"/>
<path d="M23.2259 20.0911L23.0713 20.2342L23.3574 20.7737L23.4579 20.6205L23.2259 20.0911Z" fill="#F10800"/>
<path d="M19.0284 25.0739L19.0831 25.4875L19.0277 24.7351L18.9727 24.3184L19.0284 25.0739Z" fill="#53FFA4"/>
<path d="M18.9727 24.3185L19.0277 24.7352L19.043 23.9934L18.9877 23.5735L18.9727 24.3185Z" fill="#97FF60"/>
<path d="M18.9883 23.5736L19.0435 23.9935L19.13 23.2812L19.0747 22.8582L18.9883 23.5736Z" fill="#D7FF1F"/>
<path d="M19.0742 22.858L19.1295 23.2811L19.2858 22.6172L19.2306 22.1909L19.0742 22.858Z" fill="#FFD000"/>
<path d="M19.2305 22.191L19.2857 22.6172L19.5087 22.0196L19.4537 21.5903L19.2305 22.191Z" fill="#FF8D00"/>
<path d="M19.4541 21.5903L19.5091 22.0196L19.7938 21.5049L19.7392 21.0728L19.4541 21.5903Z" fill="#FF4E00"/>
<path d="M19.7393 21.0731L19.7939 21.5052L20.1335 21.0882L20.0793 20.6536L19.7393 21.0731Z" fill="#FF1A00"/>
<path d="M20.0791 20.6535L20.1333 21.0881L20.5191 20.7813L20.4655 20.3445L20.0791 20.6535Z" fill="#D10000"/>
<path d="M24.3428 23.6868L24.4335 24.5642L24.5768 25.3244L24.4882 24.4551L24.3428 23.6868Z" fill="#FFE600"/>
<path d="M20.4648 20.3444L20.5184 20.7812L20.9405 20.594L20.8876 20.1555L20.4648 20.3444Z" fill="#A80000"/>
<path d="M24.127 22.9473L24.1733 23.3806L24.388 24.1172L24.3422 23.6867L24.127 22.9473Z" fill="#FF9F00"/>
<path d="M20.8877 20.1555L20.9406 20.594L21.3875 20.5328L21.3354 20.093L20.8877 20.1555Z" fill="#8D0000"/>
<path d="M23.8477 22.2576L23.8947 22.6932L24.1737 23.3806L24.1273 22.9473L23.8477 22.2576Z" fill="#FF6000"/>
<path d="M21.3359 20.093L21.3881 20.5328L21.8477 20.6L21.7964 20.1596L21.3359 20.093Z" fill="#800000"/>
<path d="M23.5107 21.6372L23.5586 22.0748L23.8946 22.6934L23.8475 22.2578L23.5107 21.6372Z" fill="#FF2900"/>
<path d="M21.7959 20.1597L21.8472 20.6001L22.3067 20.7947L22.2563 20.3542L21.7959 20.1597Z" fill="#800000"/>
<path d="M23.126 21.1033L23.1746 21.5424L23.5585 22.0746L23.5107 21.637L23.126 21.1033Z" fill="#DF0000"/>
<path d="M22.2568 20.354L22.3072 20.7945L22.7538 21.1116L22.7043 20.6715L22.2568 20.354Z" fill="#920000"/>
<path d="M22.7041 20.6716L22.7536 21.1117L23.1748 21.5425L23.1261 21.1033L22.7041 20.6716Z" fill="#B20000"/>
<path d="M24.2451 23.3306L24.3427 23.6869L24.4881 24.4553L24.3853 24.0985L24.2451 23.3306Z" fill="#FFE600"/>
<path d="M21.1035 19.3272L20.7373 19.5865L21.1008 19.4203L21.415 19.1741L21.1035 19.3272Z" fill="#B20000"/>
<path d="M21.4148 19.1744L21.1006 19.4206L21.486 19.3794L21.7452 19.144L21.4148 19.1744Z" fill="#960000"/>
<path d="M21.7455 19.144L21.4863 19.3794L21.8831 19.4655L22.0858 19.2385L21.7455 19.144Z" fill="#890000"/>
<path d="M22.0855 19.2383L21.8828 19.4653L22.2799 19.6771L22.4262 19.4557L22.0855 19.2383Z" fill="#890000"/>
<path d="M23.3574 20.7737L23.3642 20.9953L23.656 21.6212L23.6083 21.3941L23.3574 20.7737Z" fill="#FF2D00"/>
<path d="M22.4266 19.4558L22.2803 19.6773L22.6667 20.0094L22.7582 19.7907L22.4266 19.4558Z" fill="#9B0000"/>
<path d="M23.0713 20.2341L23.0312 20.4529L23.3642 20.9952L23.3574 20.7736L23.0713 20.2341Z" fill="#E80000"/>
<path d="M22.7576 19.7908L22.666 20.0094L23.0308 20.4529L23.0709 20.2341L22.7576 19.7908Z" fill="#BB0000"/>
<path d="M23.6084 21.394L23.6561 21.6211L23.8987 22.3128L23.8172 22.0777L23.6084 21.394Z" fill="#FF6400"/>
<path d="M20.4057 19.8724L20.1504 20.2399L20.5209 19.9387L20.7377 19.5869L20.4057 19.8724Z" fill="#D10000"/>
<path d="M20.7373 19.5869L20.5205 19.9387L20.9259 19.7576L21.1009 19.4207L20.7373 19.5869Z" fill="#A80000"/>
<path d="M21.1007 19.4208L20.9258 19.7577L21.3553 19.7028L21.4861 19.3796L21.1007 19.4208Z" fill="#8D0000"/>
<path d="M21.4862 19.3794L21.3555 19.7025L21.7974 19.7762L21.883 19.4655L21.4862 19.3794Z" fill="#800000"/>
<path d="M21.8834 19.4656L21.7979 19.7763L22.2399 19.9773L22.2805 19.6773L21.8834 19.4656Z" fill="#840000"/>
<path d="M23.3643 20.9954L23.4447 21.2752L23.7686 21.8988L23.6561 21.6213L23.3643 20.9954Z" fill="#FF2900"/>
<path d="M22.2799 19.6772L22.2393 19.9772L22.6691 20.3005L22.6662 20.0094L22.2799 19.6772Z" fill="#920000"/>
<path d="M23.0312 20.4529L23.0748 20.7373L23.4447 21.275L23.3642 20.9952L23.0312 20.4529Z" fill="#DF0000"/>
<path d="M22.666 20.0093L22.6689 20.3004L23.0744 20.7371L23.0308 20.4527L22.666 20.0093Z" fill="#B20000"/>
<path d="M20.1135 20.2681L19.8242 20.6515L20.1501 20.2398L20.4054 19.8723L20.1135 20.2681Z" fill="#FF1A00"/>
<path d="M19.337 21.755L19.2305 22.191L19.4537 21.5903L19.5509 21.1614L19.337 21.755Z" fill="#FF8D00"/>
<path d="M19.5512 21.1614L19.4541 21.5904L19.7392 21.0729L19.8243 20.6514L19.5512 21.1614Z" fill="#FF4E00"/>
<path d="M19.8244 20.6515L19.7393 21.073L20.0793 20.6534L20.1503 20.2397L19.8244 20.6515Z" fill="#FF1600"/>
<path d="M20.1502 20.2396L20.0791 20.6533L20.4655 20.3443L20.5206 19.9385L20.1502 20.2396Z" fill="#D10000"/>
<path d="M20.52 19.9384L20.4648 20.3442L20.8875 20.1553L20.9254 19.7573L20.52 19.9384Z" fill="#A40000"/>
<path d="M20.9255 19.7576L20.8877 20.1556L21.3354 20.0931L21.3551 19.7026L20.9255 19.7576Z" fill="#890000"/>
<path d="M23.7686 21.8987L23.8476 22.2577L24.1273 22.9475L24.0377 22.5903L23.7686 21.8987Z" fill="#FF6000"/>
<path d="M21.3556 19.7024L21.3359 20.0929L21.7964 20.1594L21.7976 19.7761L21.3556 19.7024Z" fill="#800000"/>
<path d="M23.4443 21.2749L23.5105 21.6369L23.8473 22.2575L23.7682 21.8985L23.4443 21.2749Z" fill="#FF2900"/>
<path d="M21.7971 19.7761L21.7959 20.1595L22.2563 20.354L22.2392 19.9772L21.7971 19.7761Z" fill="#800000"/>
<path d="M23.0752 20.7373L23.1265 21.1034L23.5112 21.6371L23.445 21.2751L23.0752 20.7373Z" fill="#DF0000"/>
<path d="M22.2393 19.9773L22.2564 20.3541L22.7039 20.6716L22.6691 20.3006L22.2393 19.9773Z" fill="#920000"/>
<path d="M22.6689 20.3005L22.7038 20.6716L23.1258 21.1033L23.0745 20.7372L22.6689 20.3005Z" fill="#B20000"/>
<path d="M26.4231 24.7136L25.7773 24.7083L25.7883 25.1937L26.4475 25.1676L26.4231 24.7136Z" fill="#23FFD4"/>
<path d="M26.4141 24.2252L25.7744 24.1838L25.7776 24.7084L26.4233 24.7138L26.4141 24.2252Z" fill="#53FFA4"/>
<path d="M26.4203 23.7148L25.7792 23.6338L25.7744 24.1839L26.4141 24.2252L26.4203 23.7148Z" fill="#80FF77"/>
<path d="M26.4419 23.1956L25.792 23.0725L25.7793 23.6336L26.4204 23.7146L26.4419 23.1956Z" fill="#ADFF49"/>
<path d="M26.4785 22.6821L25.8123 22.5156L25.792 23.0727L26.4419 23.1958L26.4785 22.6821Z" fill="#DBFF1C"/>
<path d="M26.5292 22.1877L25.8399 21.9778L25.8125 22.5157L26.4787 22.6822L26.5292 22.1877Z" fill="#FFE200"/>
<path d="M27.1273 20.2499L26.1514 19.8313L26.1025 19.8973L27.0318 20.3027L27.1273 20.2499Z" fill="#FF3800"/>
<path d="M26.5924 21.7261L25.8737 21.4739L25.8398 21.9779L26.5291 22.1878L26.5924 21.7261Z" fill="#FFB600"/>
<path d="M27.0316 20.3027L26.1023 19.8972L26.0527 20.0541L26.9351 20.4397L27.0316 20.3027Z" fill="#FF3800"/>
<path d="M26.6662 21.3095L25.9124 21.0176L25.873 21.4737L26.5918 21.7258L26.6662 21.3095Z" fill="#FF9100"/>
<path d="M26.9353 20.4396L26.0529 20.054L26.0039 20.2977L26.8407 20.6574L26.9353 20.4396Z" fill="#FF4300"/>
<path d="M26.7504 20.95L25.9569 20.6218L25.9131 21.0174L26.6669 21.3094L26.7504 20.95Z" fill="#FF6F00"/>
<path d="M26.8408 20.6575L26.0041 20.2979L25.957 20.6219L26.7505 20.9501L26.8408 20.6575Z" fill="#FF5500"/>
<path d="M27.0796 24.7677L26.4229 24.7139L26.4472 25.1678L27.1145 25.1902L27.0796 24.7677Z" fill="#2CFFCA"/>
<path d="M27.0661 24.315L26.4141 24.2251L26.4233 24.7136L27.0801 24.7675L27.0661 24.315Z" fill="#56FFA0"/>
<path d="M27.0734 23.8444L26.4202 23.7148L26.4141 24.2253L27.0661 24.3152L27.0734 23.8444Z" fill="#80FF77"/>
<path d="M27.1027 23.3676L26.4425 23.1958L26.4209 23.7148L27.0741 23.8444L27.1027 23.3676Z" fill="#AAFF4D"/>
<path d="M27.1519 22.8974L26.4789 22.6821L26.4424 23.1958L27.1026 23.3676L27.1519 22.8974Z" fill="#D4FF23"/>
<path d="M27.2204 22.4464L26.5291 22.1875L26.4785 22.682L27.1516 22.8973L27.2204 22.4464Z" fill="#FBF100"/>
<path d="M28.1731 20.7592L27.219 20.2821L27.127 20.2498L28.045 20.7202L28.1731 20.7592Z" fill="#FF5500"/>
<path d="M27.3072 22.0272L26.5926 21.7258L26.5293 22.1876L27.2206 22.4465L27.3072 22.0272Z" fill="#FFC400"/>
<path d="M28.0449 20.7202L27.1268 20.2498L27.0312 20.3027L27.9123 20.7594L28.0449 20.7202Z" fill="#FF4E00"/>
<path d="M27.4085 21.6511L26.6662 21.3096L26.5918 21.7259L27.3064 22.0273L27.4085 21.6511Z" fill="#FFA300"/>
<path d="M27.913 20.7595L27.0319 20.3027L26.9355 20.4398L27.7795 20.8762L27.913 20.7595Z" fill="#FF5200"/>
<path d="M27.5241 21.3282L26.7505 20.9502L26.667 21.3096L27.4093 21.6511L27.5241 21.3282Z" fill="#FF8200"/>
<path d="M27.7794 20.8764L26.9355 20.4399L26.8408 20.6577L27.6487 21.0676L27.7794 20.8764Z" fill="#FF5900"/>
<path d="M27.6481 21.0677L26.8403 20.6577L26.75 20.9503L27.5236 21.3283L27.6481 21.0677Z" fill="#FF6C00"/>
<path d="M27.6919 24.8634L27.0791 24.7673L27.1139 25.1898L27.7344 25.255L27.6919 24.8634Z" fill="#33FFC4"/>
<path d="M27.6747 24.4466L27.0654 24.3152L27.0795 24.7676L27.6922 24.8637L27.6747 24.4466Z" fill="#5AFF9D"/>
<path d="M27.6828 24.0144L27.0728 23.8442L27.0654 24.315L27.6747 24.4464L27.6828 24.0144Z" fill="#80FF77"/>
<path d="M27.717 23.5786L27.1019 23.3672L27.0732 23.844L27.6833 24.0142L27.717 23.5786Z" fill="#A7FF50"/>
<path d="M27.7753 23.1514L27.1509 22.8975L27.1016 23.3676L27.7167 23.579L27.7753 23.1514Z" fill="#CEFF29"/>
<path d="M27.8569 22.7431L27.2192 22.4465L27.1504 22.8974L27.7748 23.1513L27.8569 22.7431Z" fill="#F1FC06"/>
<path d="M27.961 22.3651L27.3063 22.0271L27.2197 22.4464L27.8574 22.7429L27.961 22.3651Z" fill="#FFD700"/>
<path d="M29.0031 21.2695L28.173 20.759L28.0449 20.72L28.8484 21.2237L29.0031 21.2695Z" fill="#FF6F00"/>
<path d="M28.0835 22.028L27.4087 21.6509L27.3066 22.0271L27.9613 22.3651L28.0835 22.028Z" fill="#FFB600"/>
<path d="M28.8482 21.2239L28.0447 20.7202L27.9121 20.7595L28.6883 21.2496L28.8482 21.2239Z" fill="#FF6800"/>
<path d="M28.2207 21.7407L27.523 21.3279L27.4082 21.6508L28.083 22.0279L28.2207 21.7407Z" fill="#FF9800"/>
<path d="M28.688 21.2494L27.9118 20.7593L27.7783 20.876L28.5274 21.3462L28.688 21.2494Z" fill="#FF6C00"/>
<path d="M28.3705 21.5115L27.6479 21.0674L27.5234 21.328L28.2211 21.7409L28.3705 21.5115Z" fill="#FF8200"/>
<path d="M28.5273 21.3464L27.7782 20.8762L27.6475 21.0675L28.3701 21.5116L28.5273 21.3464Z" fill="#FF7300"/>
<path d="M28.2057 24.9942L27.6924 24.8635L27.735 25.2551L28.2534 25.3561L28.2057 24.9942Z" fill="#39FFBE"/>
<path d="M28.1857 24.6106L27.6748 24.4463L27.6923 24.8634L28.2056 24.9941L28.1857 24.6106Z" fill="#5AFF9D"/>
<path d="M28.1942 24.2157L27.6829 24.0144L27.6748 24.4464L28.1857 24.6108L28.1942 24.2157Z" fill="#80FF77"/>
<path d="M28.2308 23.8194L27.7164 23.5789L27.6826 24.0144L28.1939 24.2158L28.2308 23.8194Z" fill="#A4FF53"/>
<path d="M28.2958 23.4323L27.7754 23.1514L27.7168 23.579L28.2312 23.8196L28.2958 23.4323Z" fill="#C7FF30"/>
<path d="M28.3863 23.0643L27.8575 22.7429L27.7754 23.1512L28.2957 23.4321L28.3863 23.0643Z" fill="#E7FF0F"/>
<path d="M28.5006 22.726L27.9609 22.3652L27.8574 22.743L28.3862 23.0644L28.5006 22.726Z" fill="#FFE600"/>
<path d="M28.6358 22.426L28.0832 22.0281L27.9609 22.3652L28.5006 22.7259L28.6358 22.426Z" fill="#FFC400"/>
<path d="M29.6574 21.794L29.0033 21.2697L28.8486 21.2239L29.4852 21.7418L29.6574 21.794Z" fill="#FF8600"/>
<path d="M28.7882 22.1727L28.2207 21.741L28.083 22.0281L28.6357 22.426L28.7882 22.1727Z" fill="#FFAB00"/>
<path d="M29.4849 21.7418L28.8483 21.2239L28.6885 21.2496L29.3072 21.7546L29.4849 21.7418Z" fill="#FF8200"/>
<path d="M28.9538 21.9729L28.3702 21.5115L28.2207 21.7408L28.7882 22.1726L28.9538 21.9729Z" fill="#FF9800"/>
<path d="M29.3067 21.7546L28.688 21.2495L28.5273 21.3463L29.1283 21.8323L29.3067 21.7546Z" fill="#FF8200"/>
<path d="M29.1282 21.8325L28.5273 21.3464L28.3701 21.5117L28.9538 21.9731L29.1282 21.8325Z" fill="#FF8900"/>
<path d="M28.5694 25.1509L28.2061 24.9941L28.2538 25.3561L28.6201 25.4853L28.5694 25.1509Z" fill="#3CFFBA"/>
<path d="M28.5484 24.7989L28.1865 24.6108L28.2065 24.9943L28.5699 25.151L28.5484 24.7989Z" fill="#5DFF9A"/>
<path d="M28.5569 24.4381L28.195 24.2158L28.1865 24.6109L28.5484 24.7989L28.5569 24.4381Z" fill="#80FF77"/>
<path d="M28.5955 24.0779L28.2322 23.8193L28.1953 24.2157L28.5572 24.438L28.5955 24.0779Z" fill="#A0FF56"/>
<path d="M28.6621 23.7279L28.296 23.4321L28.2314 23.8194L28.5947 24.0779L28.6621 23.7279Z" fill="#C1FF36"/>
<path d="M28.7569 23.3975L28.3865 23.0645L28.2959 23.4322L28.662 23.728L28.7569 23.3975Z" fill="#DEFF19"/>
<path d="M28.877 23.0954L28.5011 22.7261L28.3867 23.0645L28.7571 23.3976L28.877 23.0954Z" fill="#FBF100"/>
<path d="M29.0187 22.8295L28.6362 22.426L28.501 22.726L28.8769 23.0953L29.0187 22.8295Z" fill="#FFD700"/>
<path d="M30.2647 22.4289L29.8193 21.9098L29.6572 21.7939L30.0934 22.3133L30.2647 22.4289Z" fill="#FFA700"/>
<path d="M29.1793 22.6072L28.7892 22.1726L28.6367 22.4259L29.0192 22.8293L29.1793 22.6072Z" fill="#FFC100"/>
<path d="M30.0937 22.3133L29.6576 21.794L29.4854 21.7417L29.912 22.2552L30.0937 22.3133Z" fill="#FF9C00"/>
<path d="M29.3533 22.4347L28.9547 21.9729L28.7891 22.1726L29.1792 22.6071L29.3533 22.4347Z" fill="#FFAE00"/>
<path d="M29.912 22.2552L29.4853 21.7417L29.3076 21.7546L29.7247 22.2564L29.912 22.2552Z" fill="#FF9800"/>
<path d="M29.5371 22.3167L29.1295 21.8323L28.9551 21.9729L29.3537 22.4347L29.5371 22.3167Z" fill="#FF9F00"/>
<path d="M29.7245 22.2564L29.3074 21.7546L29.1289 21.8324L29.5365 22.3168L29.7245 22.2564Z" fill="#FF9800"/>
<path d="M28.7425 25.3254L28.5693 25.1511L28.62 25.4855L28.7944 25.635L28.7425 25.3254Z" fill="#43FFB4"/>
<path d="M28.7202 25.0012L28.5479 24.7988L28.5693 25.1509L28.7425 25.3252L28.7202 25.0012Z" fill="#60FF97"/>
<path d="M28.7283 24.671L28.5563 24.438L28.5479 24.7988L28.7202 25.0012L28.7283 24.671Z" fill="#7DFF7A"/>
<path d="M28.7669 24.3435L28.595 24.0781L28.5566 24.4382L28.7286 24.6712L28.7669 24.3435Z" fill="#9DFF5A"/>
<path d="M28.8344 24.0267L28.6621 23.728L28.5947 24.078L28.7667 24.3434L28.8344 24.0267Z" fill="#BAFF3C"/>
<path d="M28.93 23.7293L28.757 23.3975L28.6621 23.728L28.8344 24.0266L28.93 23.7293Z" fill="#D4FF23"/>
<path d="M29.0508 23.4595L28.8767 23.0955L28.7568 23.3977L28.9298 23.7296L29.0508 23.4595Z" fill="#EEFF09"/>
<path d="M30.7565 23.2993L30.558 22.8184L30.4209 22.5989L30.6166 23.0904L30.7565 23.2993Z" fill="#FFDE00"/>
<path d="M29.1943 23.2238L29.0188 22.8293L28.877 23.0952L29.0511 23.4592L29.1943 23.2238Z" fill="#FFE600"/>
<path d="M30.6166 23.0905L30.4209 22.5989L30.2646 22.429L30.4575 22.9261L30.6166 23.0905Z" fill="#FFCC00"/>
<path d="M29.3559 23.0296L29.1786 22.6074L29.0186 22.8296L29.1941 23.2241L29.3559 23.0296Z" fill="#FFD000"/>
<path d="M30.4578 22.926L30.265 22.4289L30.0938 22.3132L30.2837 22.8106L30.4578 22.926Z" fill="#FFB900"/>
<path d="M29.5322 22.8812L29.3528 22.4348L29.1787 22.6073L29.356 23.0294L29.5322 22.8812Z" fill="#FFC100"/>
<path d="M30.2828 22.8106L30.0928 22.3132L29.9111 22.2551L30.0982 22.7474L30.2828 22.8106Z" fill="#FFB200"/>
<path d="M29.7177 22.7833L29.536 22.3169L29.3525 22.4349L29.5319 22.8813L29.7177 22.7833Z" fill="#FFB200"/>
<path d="M30.099 22.7474L29.9119 22.2551L29.7246 22.2563L29.9089 22.7381L30.099 22.7474Z" fill="#FFAB00"/>
<path d="M29.9083 22.7382L29.724 22.2563L29.5361 22.3167L29.7178 22.7832L29.9083 22.7382Z" fill="#FFAE00"/>
<path d="M28.8818 24.0481L28.9301 23.7292L28.8345 24.0266L28.7881 24.317L28.8818 24.0481Z" fill="#CEFF29"/>
<path d="M30.9121 25.7256L30.9809 25.4299L31.0375 25.1101L30.9673 25.4332L30.9121 25.7256Z" fill="#50FFA7"/>
<path d="M30.9668 25.4332L31.037 25.1101L31.0642 24.7815L30.9928 25.131L30.9668 25.4332Z" fill="#6AFF8D"/>
<path d="M30.9932 25.1308L31.0646 24.7812L31.0615 24.4521L30.9893 24.8267L30.9932 25.1308Z" fill="#87FF70"/>
<path d="M30.9891 24.8268L31.0613 24.4523L31.0279 24.1313L30.9551 24.5287L30.9891 24.8268Z" fill="#A0FF56"/>
<path d="M30.9549 24.5287L31.0277 24.1313L30.9646 23.8269L30.8916 24.2444L30.9549 24.5287Z" fill="#BEFF39"/>
<path d="M30.8918 24.2442L30.9648 23.8267L30.8736 23.5469L30.8008 23.9812L30.8918 24.2442Z" fill="#D4FF23"/>
<path d="M29.0006 23.806L29.0511 23.4595L28.9301 23.7295L28.8818 24.0483L29.0006 23.806Z" fill="#E4FF13"/>
<path d="M30.801 23.9813L30.8738 23.547L30.7568 23.2993L30.6846 23.7468L30.801 23.9813Z" fill="#EBFF0C"/>
<path d="M29.1408 23.5964L29.1938 23.2239L29.0505 23.4593L29 23.8058L29.1408 23.5964Z" fill="#F8F500"/>
<path d="M30.6848 23.7469L30.757 23.2995L30.6171 23.0906L30.5459 23.547L30.6848 23.7469Z" fill="#FEED00"/>
<path d="M29.3008 23.4255L29.3564 23.0293L29.1946 23.2238L29.1416 23.5963L29.3008 23.4255Z" fill="#FFDE00"/>
<path d="M30.5454 23.5469L30.6166 23.0904L30.4575 22.926L30.3877 23.3871L30.5454 23.5469Z" fill="#FFDB00"/>
<path d="M29.4743 23.2981L29.5325 22.8811L29.3564 23.0293L29.3008 23.4256L29.4743 23.2981Z" fill="#FFD000"/>
<path d="M30.3872 23.387L30.457 22.9259L30.2828 22.8105L30.2148 23.2717L30.3872 23.387Z" fill="#FFCC00"/>
<path d="M29.6577 23.2175L29.7187 22.7832L29.5329 22.8811L29.4746 23.2982L29.6577 23.2175Z" fill="#FFC400"/>
<path d="M30.2157 23.2719L30.2837 22.8108L30.0991 22.7476L30.0332 23.2042L30.2157 23.2719Z" fill="#FFC400"/>
<path d="M29.8451 23.1859L29.9087 22.7383L29.7182 22.7832L29.6572 23.2175L29.8451 23.1859Z" fill="#FFC100"/>
<path d="M30.0324 23.2042L30.0983 22.7475L29.9082 22.7383L29.8447 23.1859L30.0324 23.2042Z" fill="#FFBD00"/>
<path d="M29.9639 26.9813L30.2755 26.8014L30.4406 26.6572L30.1237 26.855L29.9639 26.9813Z" fill="#00D4FF"/>
<path d="M30.124 26.8552L30.4408 26.6574L30.5907 26.4727L30.269 26.6903L30.124 26.8552Z" fill="#00E4F8"/>
<path d="M30.2686 26.6902L30.5903 26.4726L30.721 26.252L30.3948 26.4907L30.2686 26.6902Z" fill="#0FF8E7"/>
<path d="M30.3945 26.4906L30.7207 26.2518L30.8289 26.0007L30.4989 26.2616L30.3945 26.4906Z" fill="#26FFD1"/>
<path d="M30.499 26.2615L30.829 26.0006L30.9118 25.7253L30.5786 26.0086L30.499 26.2615Z" fill="#3CFFBA"/>
<path d="M30.5791 26.0088L30.9123 25.7256L30.9675 25.4331L30.6318 25.7385L30.5791 26.0088Z" fill="#53FFA4"/>
<path d="M30.6318 25.7384L30.9675 25.433L30.9935 25.1309L30.6562 25.4577L30.6318 25.7384Z" fill="#6DFF8A"/>
<path d="M30.6561 25.4576L30.9935 25.1308L30.9895 24.8267L30.6514 25.1736L30.6561 25.4576Z" fill="#87FF70"/>
<path d="M30.6511 25.1736L30.9892 24.8267L30.9553 24.5286L30.6172 24.8937L30.6511 25.1736Z" fill="#A0FF56"/>
<path d="M30.617 24.8939L30.955 24.5287L30.8918 24.2444L30.5547 24.6255L30.617 24.8939Z" fill="#B7FF40"/>
<path d="M30.5549 24.6253L30.892 24.2441L30.801 23.9812L30.4658 24.3757L30.5549 24.6253Z" fill="#CEFF29"/>
<path d="M30.4662 24.3756L30.8014 23.9811L30.685 23.7466L30.3525 24.1512L30.4662 24.3756Z" fill="#E4FF13"/>
<path d="M29.0102 23.7848L29.3009 23.4255L29.1416 23.5963L28.8564 23.936L29.0102 23.7848Z" fill="#FEED00"/>
<path d="M30.3521 24.1514L30.6846 23.7467L30.5457 23.5469L30.2168 23.9583L30.3521 24.1514Z" fill="#F4F802"/>
<path d="M29.1784 23.6745L29.4749 23.2981L29.3014 23.4255L29.0107 23.7848L29.1784 23.6745Z" fill="#FFDE00"/>
<path d="M30.2169 23.9584L30.5458 23.547L30.3881 23.3872L30.0635 23.8019L30.2169 23.9584Z" fill="#FFE600"/>
<path d="M29.3549 23.6084L29.6574 23.2175L29.4743 23.2982L29.1777 23.6746L29.3549 23.6084Z" fill="#FFD300"/>
<path d="M30.0639 23.8017L30.3885 23.387L30.2161 23.2717L29.8965 23.6859L30.0639 23.8017Z" fill="#FFDB00"/>
<path d="M29.5365 23.588L29.8449 23.1858L29.657 23.2174L29.3545 23.6083L29.5365 23.588Z" fill="#FFD000"/>
<path d="M29.8958 23.686L30.2155 23.2718L30.033 23.2041L29.7188 23.6141L29.8958 23.686Z" fill="#FFD000"/>
<path d="M29.719 23.6143L30.0333 23.2043L29.8456 23.186L29.5371 23.5882L29.719 23.6143Z" fill="#FFCC00"/>
<path d="M29.2598 27.2435L29.7928 27.0658L29.9635 26.9812L29.4232 27.1715L29.2598 27.2435Z" fill="#00D0FF"/>
<path d="M29.4229 27.1715L29.9631 26.9813L30.123 26.855L29.5757 27.0594L29.4229 27.1715Z" fill="#00DCFE"/>
<path d="M29.5752 27.0595L30.1225 26.8551L30.2674 26.6902L29.7137 26.91L29.5752 27.0595Z" fill="#06ECF1"/>
<path d="M29.7139 26.9101L30.2676 26.6902L30.3939 26.4907L29.8344 26.7269L29.7139 26.9101Z" fill="#19FFDE"/>
<path d="M29.835 26.7267L30.3944 26.4905L30.4988 26.2615L29.9343 26.5144L29.835 26.7267Z" fill="#29FFCE"/>
<path d="M29.9346 26.5144L30.499 26.2614L30.5787 26.0085L30.0101 26.2784L29.9346 26.5144Z" fill="#40FFB7"/>
<path d="M30.0098 26.2786L30.5783 26.0088L30.631 25.7385L30.0595 26.0248L30.0098 26.2786Z" fill="#56FFA0"/>
<path d="M30.0596 26.0246L30.6311 25.7383L30.6555 25.4575L30.082 25.7595L30.0596 26.0246Z" fill="#6DFF8A"/>
<path d="M30.0817 25.7596L30.6551 25.4576L30.6504 25.1736L30.0762 25.4902L30.0817 25.7596Z" fill="#87FF70"/>
<path d="M30.0764 25.4902L30.6506 25.1736L30.6167 24.8938L30.043 25.2234L30.0764 25.4902Z" fill="#9DFF5A"/>
<path d="M30.043 25.2232L30.6168 24.8936L30.5545 24.6252L29.9824 24.966L30.043 25.2232Z" fill="#B4FF43"/>
<path d="M29.9827 24.9662L30.5548 24.6254L30.4657 24.3757L29.8965 24.7255L29.9827 24.9662Z" fill="#CAFF2C"/>
<path d="M29.8959 24.7258L30.4651 24.376L30.3514 24.1516L29.7861 24.508L29.8959 24.7258Z" fill="#DEFF19"/>
<path d="M29.7866 24.5077L30.3518 24.1513L30.2165 23.9583L29.6562 24.3186L29.7866 24.5077Z" fill="#EEFF09"/>
<path d="M28.8295 23.9478L29.3544 23.6084L29.1772 23.6746L28.6602 24.0023L28.8295 23.9478Z" fill="#FFDE00"/>
<path d="M29.6553 24.3189L30.2155 23.9585L30.0621 23.802L29.5078 24.1636L29.6553 24.3189Z" fill="#FBF100"/>
<path d="M29.0042 23.9367L29.5369 23.5879L29.355 23.6082L28.8301 23.9477L29.0042 23.9367Z" fill="#FFDB00"/>
<path d="M29.5084 24.1634L30.0627 23.8018L29.8953 23.686L29.3477 24.0461L29.5084 24.1634Z" fill="#FFE600"/>
<path d="M29.1782 23.9701L29.7186 23.6142L29.5366 23.5881L29.0039 23.937L29.1782 23.9701Z" fill="#FFD700"/>
<path d="M29.3475 24.046L29.8952 23.6859L29.7181 23.614L29.1777 23.9698L29.3475 24.046Z" fill="#FFDB00"/>
<path d="M28.5381 27.4367L29.2599 27.2434L29.4233 27.1714L28.6934 27.3744L28.5381 27.4367Z" fill="#00D8FF"/>
<path d="M28.6934 27.3748L29.4233 27.1717L29.5762 27.0596L28.8386 27.2732L28.6934 27.3748Z" fill="#00E4F8"/>
<path d="M28.8379 27.273L29.5755 27.0594L29.714 26.9099L28.9693 27.1346L28.8379 27.273Z" fill="#0CF4EB"/>
<path d="M28.9697 27.1344L29.7145 26.9097L29.835 26.7266L29.0839 26.9626L28.9697 27.1344Z" fill="#1CFFDB"/>
<path d="M29.084 26.963L29.8351 26.7269L29.9344 26.5146L29.1779 26.762L29.084 26.963Z" fill="#2CFFCA"/>
<path d="M29.1777 26.7617L29.9343 26.5144L30.0099 26.2783L29.2489 26.5367L29.1777 26.7617Z" fill="#43FFB4"/>
<path d="M29.249 26.5368L30.01 26.2785L30.0597 26.0247L29.2955 26.2935L29.249 26.5368Z" fill="#56FFA0"/>
<path d="M29.2959 26.2936L30.0601 26.0248L30.0826 25.7598L29.3164 26.0382L29.2959 26.2936Z" fill="#6DFF8A"/>
<path d="M29.3158 26.0378L30.0819 25.7594L30.0764 25.49L29.3096 25.7769L29.3158 26.0378Z" fill="#83FF73"/>
<path d="M29.3101 25.7769L30.077 25.49L30.0435 25.2231L29.2773 25.5173L29.3101 25.7769Z" fill="#9AFF5D"/>
<path d="M29.2764 25.5173L30.0426 25.2232L29.982 24.9661L29.2178 25.2659L29.2764 25.5173Z" fill="#B1FF46"/>
<path d="M29.2177 25.2661L29.9819 24.9663L29.8957 24.7256L29.1348 25.0295L29.2177 25.2661Z" fill="#C4FF33"/>
<path d="M29.1355 25.0293L29.8964 24.7254L29.7867 24.5076L29.0303 24.8139L29.1355 25.0293Z" fill="#D7FF1F"/>
<path d="M28.1179 24.2313L28.8296 23.948L28.6602 24.0025L27.957 24.2766L28.1179 24.2313Z" fill="#FFE600"/>
<path d="M29.03 24.814L29.7864 24.5077L29.656 24.3186L28.9053 24.6255L29.03 24.814Z" fill="#E7FF0F"/>
<path d="M28.2837 24.228L29.004 23.9368L28.8299 23.9477L28.1182 24.231L28.2837 24.228Z" fill="#FFE200"/>
<path d="M28.9056 24.6257L29.6563 24.3188L29.5088 24.1636L28.7646 24.4692L28.9056 24.6257Z" fill="#F4F802"/>
<path d="M28.4491 24.2675L29.1778 23.9698L29.0035 23.9368L28.2832 24.228L28.4491 24.2675Z" fill="#FFE200"/>
<path d="M28.7647 24.469L29.5089 24.1634L29.3481 24.0461L28.6113 24.3487L28.7647 24.469Z" fill="#FEED00"/>
<path d="M28.611 24.3484L29.3477 24.0459L29.178 23.9697L28.4492 24.2674L28.611 24.3484Z" fill="#FFE200"/>
<path d="M27.6777 27.6491L28.5385 27.4368L28.6938 27.3745L27.8246 27.5941L27.6777 27.6491Z" fill="#00DCFE"/>
<path d="M27.8242 27.5943L28.6933 27.3748L28.8386 27.2732L27.9615 27.4999L27.8242 27.5943Z" fill="#02E8F4"/>
<path d="M27.9619 27.4999L28.839 27.2732L28.9704 27.1348L28.0859 27.3684L27.9619 27.4999Z" fill="#0FF8E7"/>
<path d="M28.0859 27.3683L28.9704 27.1347L29.0845 26.9629L28.1935 27.2029L28.0859 27.3683Z" fill="#1FFFD7"/>
<path d="M28.1934 27.2027L29.0844 26.9627L29.1783 26.7617L28.2817 27.0076L28.1934 27.2027Z" fill="#30FFC7"/>
<path d="M28.2812 27.0077L29.1779 26.7619L29.249 26.5369L28.3479 26.7878L28.2812 27.0077Z" fill="#43FFB4"/>
<path d="M28.3477 26.7877L29.2488 26.5368L29.2953 26.2935L28.3909 26.5485L28.3477 26.7877Z" fill="#5AFF9D"/>
<path d="M28.3916 26.5486L29.296 26.2936L29.3165 26.0381L28.4101 26.2963L28.3916 26.5486Z" fill="#6DFF8A"/>
<path d="M28.4101 26.2963L29.3165 26.0381L29.3103 25.7771L28.4033 26.0374L28.4101 26.2963Z" fill="#83FF73"/>
<path d="M28.4031 26.0372L29.3101 25.7769L29.2773 25.5173L28.3711 25.7786L28.4031 26.0372Z" fill="#9AFF5D"/>
<path d="M28.3709 25.7786L29.2772 25.5173L29.2186 25.2659L28.3145 25.527L28.3709 25.7786Z" fill="#B1FF46"/>
<path d="M28.3148 25.5272L29.219 25.2661L29.136 25.0295L28.2354 25.2894L28.3148 25.5272Z" fill="#C4FF33"/>
<path d="M28.2352 25.2895L29.1359 25.0296L29.0307 24.8142L28.1348 25.0717L28.2352 25.2895Z" fill="#D7FF1F"/>
<path d="M27.4253 24.4604L28.2839 24.228L28.1184 24.231L27.2686 24.4565L27.4253 24.4604Z" fill="#FFE600"/>
<path d="M28.1345 25.0715L29.0304 24.814L28.9057 24.6255L28.0156 24.8796L28.1345 25.0715Z" fill="#E4FF13"/>
<path d="M27.582 24.5063L28.4493 24.2675L28.2835 24.228L27.4248 24.4604L27.582 24.5063Z" fill="#FFE600"/>
<path d="M28.0159 24.8796L28.906 24.6255L28.7651 24.469L27.8818 24.7188L28.0159 24.8796Z" fill="#F1FC06"/>
<path d="M27.7355 24.5932L28.6111 24.3486L28.4494 24.2676L27.582 24.5063L27.7355 24.5932Z" fill="#FFE600"/>
<path d="M27.8821 24.7188L28.7653 24.469L28.6119 24.3486L27.7363 24.5933L27.8821 24.7188Z" fill="#FEED00"/>
<path d="M26.9719 27.7753L27.8937 27.552L27.7512 27.627L26.8281 27.8512L26.9719 27.7753Z" fill="#00E4F8"/>
<path d="M27.1037 27.6602L28.0245 27.4385L27.8935 27.5518L26.9717 27.7751L27.1037 27.6602Z" fill="#0CF4EB"/>
<path d="M27.2203 27.5095L28.1406 27.2898L28.0244 27.4387L27.1035 27.6605L27.2203 27.5095Z" fill="#19FFDE"/>
<path d="M27.3192 27.326L28.2392 27.1089L28.1409 27.2897L27.2207 27.5094L27.3192 27.326Z" fill="#29FFCE"/>
<path d="M27.3969 27.1147L28.3171 26.9006L28.2393 27.1089L27.3193 27.3259L27.3969 27.1147Z" fill="#3CFFBA"/>
<path d="M27.4511 26.8808L28.3717 26.6702L28.3166 26.9005L27.3965 27.1146L27.4511 26.8808Z" fill="#53FFA4"/>
<path d="M27.4812 26.6306L28.4027 26.4236L28.3718 26.6701L27.4512 26.8808L27.4812 26.6306Z" fill="#66FF90"/>
<path d="M27.4861 26.3703L28.4088 26.1672L28.4029 26.4237L27.4814 26.6306L27.4861 26.3703Z" fill="#7DFF7A"/>
<path d="M27.4648 26.1066L28.389 25.9075L28.4085 26.1671L27.4858 26.3702L27.4648 26.1066Z" fill="#94FF63"/>
<path d="M27.4189 25.8468L28.3449 25.6516L28.3893 25.9076L27.4651 26.1067L27.4189 25.8468Z" fill="#AAFF4D"/>
<path d="M27.3486 25.5974L28.2766 25.406L28.3448 25.6515L27.4188 25.8468L27.3486 25.5974Z" fill="#BEFF39"/>
<path d="M27.2559 25.3653L28.186 25.1775L28.2763 25.4061L27.3483 25.5975L27.2559 25.3653Z" fill="#D1FF26"/>
<path d="M26.4023 24.6291L27.3459 24.4531L27.5034 24.4781L26.5618 24.6546L26.4023 24.6291Z" fill="#FFE200"/>
<path d="M27.1436 25.1565L28.076 24.9719L28.186 25.1775L27.2559 25.3653L27.1436 25.1565Z" fill="#E1FF16"/>
<path d="M26.5615 24.6548L27.5031 24.4783L27.659 24.5449L26.7196 24.7226L26.5615 24.6548Z" fill="#FFE600"/>
<path d="M27.0146 24.9767L27.9494 24.7949L28.0763 24.9719L27.1439 25.1565L27.0146 24.9767Z" fill="#EEFF09"/>
<path d="M26.7197 24.7224L27.6592 24.5447L27.8093 24.6512L26.8721 24.8307L26.7197 24.7224Z" fill="#FFEA00"/>
<path d="M26.8721 24.8308L27.8092 24.6514L27.9496 24.795L27.0148 24.9768L26.8721 24.8308Z" fill="#FBF100"/>
<path d="M26.0412 28.023L26.9721 27.7754L26.8283 27.8513L25.8926 28.1017L26.0412 28.023Z" fill="#00E0FB"/>
<path d="M26.1772 27.9037L27.1039 27.6604L26.9719 27.7753L26.041 28.0229L26.1772 27.9037Z" fill="#09F0EE"/>
<path d="M26.298 27.7467L27.2212 27.5093L27.1045 27.6603L26.1777 27.9035L26.298 27.7467Z" fill="#16FFE1"/>
<path d="M26.399 27.5562L27.3196 27.3259L27.2211 27.5093L26.2979 27.7468L26.399 27.5562Z" fill="#29FFCE"/>
<path d="M26.4778 27.3367L27.3967 27.1147L27.3191 27.326L26.3984 27.5563L26.4778 27.3367Z" fill="#3CFFBA"/>
<path d="M26.5339 27.0936L27.452 26.8809L27.3974 27.1146L26.4785 27.3366L26.5339 27.0936Z" fill="#50FFA7"/>
<path d="M26.5641 26.8336L27.4823 26.6309L27.4522 26.8811L26.5342 27.0938L26.5641 26.8336Z" fill="#66FF90"/>
<path d="M26.567 26.5629L27.4864 26.3706L27.4817 26.6309L26.5635 26.8336L26.567 26.5629Z" fill="#7DFF7A"/>
<path d="M26.5439 26.2886L27.4654 26.1069L27.4864 26.3705L26.567 26.5628L26.5439 26.2886Z" fill="#94FF63"/>
<path d="M26.4951 26.018L27.4196 25.8469L27.4657 26.1068L26.5443 26.2885L26.4951 26.018Z" fill="#AAFF4D"/>
<path d="M26.4209 25.7586L27.3492 25.5977L27.4194 25.847L26.495 26.0181L26.4209 25.7586Z" fill="#C1FF36"/>
<path d="M26.3242 25.517L27.2571 25.3655L27.3496 25.5976L26.4212 25.7586L26.3242 25.517Z" fill="#D4FF23"/>
<path d="M25.4346 24.7504L26.4026 24.6294L26.562 24.6549L25.6 24.777L25.4346 24.7504Z" fill="#FFDE00"/>
<path d="M26.2061 25.2997L27.1441 25.1567L27.2565 25.3655L26.3236 25.517L26.2061 25.2997Z" fill="#E4FF13"/>
<path d="M25.5996 24.7769L26.5617 24.6548L26.7197 24.7226L25.7638 24.8475L25.5996 24.7769Z" fill="#FFDE00"/>
<path d="M26.0713 25.1126L27.0151 24.9771L27.1443 25.1568L26.2062 25.2998L26.0713 25.1126Z" fill="#F1FC06"/>
<path d="M25.7646 24.8479L26.7205 24.7229L26.873 24.8312L25.9232 24.9607L25.7646 24.8479Z" fill="#FFE600"/>
<path d="M25.9229 24.9605L26.8726 24.8311L27.0153 24.9771L26.0716 25.1126L25.9229 24.9605Z" fill="#FEED00"/>
<path d="M25.002 28.3794L25.8933 28.1018L25.7361 28.1382L24.8359 28.4178L25.002 28.3794Z" fill="#00CCFF"/>
<path d="M25.1587 28.2958L26.0418 28.0227L25.8933 28.1014L25.002 28.3791L25.1587 28.2958Z" fill="#00D8FF"/>
<path d="M25.3027 28.1695L26.1785 27.9036L26.0423 28.0228L25.1592 28.2958L25.3027 28.1695Z" fill="#02E8F4"/>
<path d="M25.4282 28.0034L26.2978 27.7468L26.1776 27.9037L25.3018 28.1696L25.4282 28.0034Z" fill="#13FCE4"/>
<path d="M25.5348 27.8014L26.3995 27.5564L26.2983 27.747L25.4287 28.0035L25.5348 27.8014Z" fill="#23FFD4"/>
<path d="M25.6181 27.5682L26.4792 27.3367L26.3998 27.5562L25.5352 27.8012L25.6181 27.5682Z" fill="#39FFBE"/>
<path d="M25.6756 27.3104L26.5347 27.0938L26.4792 27.3368L25.6182 27.5683L25.6756 27.3104Z" fill="#50FFA7"/>
<path d="M25.7052 27.0341L26.5638 26.8335L26.5338 27.0937L25.6748 27.3104L25.7052 27.0341Z" fill="#66FF90"/>
<path d="M25.7085 26.7465L26.5681 26.5627L26.5646 26.8335L25.7061 27.0341L25.7085 26.7465Z" fill="#7DFF7A"/>
<path d="M25.6826 26.4553L26.5449 26.2886L26.568 26.5627L25.7084 26.7465L25.6826 26.4553Z" fill="#97FF60"/>
<path d="M25.6289 26.1678L26.4954 26.0181L26.5446 26.2885L25.6823 26.4552L25.6289 26.1678Z" fill="#ADFF49"/>
<path d="M25.5488 25.892L26.421 25.7585L26.495 26.018L25.6285 26.1678L25.5488 25.892Z" fill="#C4FF33"/>
<path d="M25.4453 25.6353L26.3244 25.5171L26.4214 25.7587L25.5492 25.8922L25.4453 25.6353Z" fill="#D7FF1F"/>
<path d="M24.5 24.82L25.4353 24.7505L25.6007 24.7771L24.6753 24.8484L24.5 24.82Z" fill="#FFD700"/>
<path d="M25.3203 25.4043L26.2074 25.2998L26.3249 25.5171L25.4459 25.6354L25.3203 25.4043Z" fill="#EBFF0C"/>
<path d="M24.6748 24.8484L25.6002 24.7771L25.7644 24.8477L24.849 24.9235L24.6748 24.8484Z" fill="#FFD700"/>
<path d="M25.1758 25.2052L26.0717 25.1125L26.2066 25.2998L25.3196 25.4042L25.1758 25.2052Z" fill="#F8F500"/>
<path d="M24.8496 24.9235L25.765 24.8477L25.9236 24.9605L25.0181 25.0435L24.8496 24.9235Z" fill="#FFDB00"/>
<path d="M25.0176 25.0434L25.9231 24.9604L26.0718 25.1125L25.1758 25.2051L25.0176 25.0434Z" fill="#FFE600"/>
<path d="M22.1572 29.1896L22.7447 28.8655L22.556 28.7024L21.9502 29.0107L22.1572 29.1896Z" fill="#00A0FF"/>
<path d="M21.9503 29.0108L22.556 28.7024L22.3807 28.4946L21.7578 28.783L21.9503 29.0108Z" fill="#00B0FF"/>
<path d="M22.3735 29.3151L22.9423 28.9798L22.7448 28.8655L22.1572 29.1896L22.3735 29.3151Z" fill="#0094FF"/>
<path d="M21.7581 28.7828L22.381 28.4944L22.2234 28.2471L21.585 28.5117L21.7581 28.7828Z" fill="#00C4FF"/>
<path d="M22.5933 29.3842L23.1431 29.0427L22.9418 28.98L22.373 29.3153L22.5933 29.3842Z" fill="#0094FF"/>
<path d="M21.585 28.5122L22.2235 28.2475L22.0877 27.9668L21.4355 28.2046L21.585 28.5122Z" fill="#00E0FB"/>
<path d="M22.8125 29.3949L23.3435 29.0521L23.1435 29.0427L22.5938 29.3843L22.8125 29.3949Z" fill="#0094FF"/>
<path d="M21.4355 28.2043L22.0877 27.9665L21.9771 27.6594L21.3135 27.8678L21.4355 28.2043Z" fill="#13FCE4"/>
<path d="M23.0242 29.3466L23.5372 29.0076L23.3435 29.0519L22.8125 29.3948L23.0242 29.3466Z" fill="#009CFF"/>
<path d="M21.3131 27.868L21.9768 27.6596L21.8943 27.3337L21.2217 27.5108L21.3131 27.868Z" fill="#30FFC7"/>
<path d="M23.2238 29.2405L23.7199 28.9104L23.5374 29.0076L23.0244 29.3466L23.2238 29.2405Z" fill="#00ACFF"/>
<path d="M21.2214 27.5105L21.8941 27.3334L21.842 26.9968L21.1631 27.1415L21.2214 27.5105Z" fill="#49FFAD"/>
<path d="M21.1633 27.1418L21.8421 26.9971L21.8218 26.6584L21.1396 26.7705L21.1633 27.1418Z" fill="#6AFF8D"/>
<path d="M21.1396 26.7703L21.8218 26.6583L21.8339 26.3262L21.1515 26.4061L21.1396 26.7703Z" fill="#87FF70"/>
<path d="M21.1514 26.406L21.8337 26.3261L21.8782 26.009L21.1987 26.0582L21.1514 26.406Z" fill="#A7FF50"/>
<path d="M21.1992 26.0584L21.8787 26.0092L21.9545 25.7156L21.281 25.7361L21.1992 26.0584Z" fill="#C4FF33"/>
<path d="M21.2812 25.7357L21.9548 25.7153L22.0601 25.4527L21.3955 25.4475L21.2812 25.7357Z" fill="#DEFF19"/>
<path d="M21.3945 25.4478L22.0591 25.4531L22.1915 25.2287L21.5386 25.2014L21.3945 25.4478Z" fill="#F8F500"/>
<path d="M21.5391 25.2013L22.192 25.2286L22.3481 25.0485L21.7092 25.0034L21.5391 25.2013Z" fill="#FFDB00"/>
<path d="M21.709 25.0036L22.3478 25.0487L22.5236 24.9179L21.901 24.8599L21.709 25.0036Z" fill="#FFC800"/>
<path d="M21.9014 24.8598L22.524 24.9178L22.7148 24.84L22.1101 24.7742L21.9014 24.8598Z" fill="#FFB900"/>
<path d="M22.1104 24.7742L22.715 24.84L22.9159 24.8174L22.3304 24.7493L22.1104 24.7742Z" fill="#FFAE00"/>
<path d="M21.7214 29.5152L22.1567 29.1899L21.9497 29.011L21.4941 29.3188L21.7214 29.5152Z" fill="#008CFF"/>
<path d="M21.4947 29.3188L21.9502 29.011L21.7578 28.7832L21.2832 29.0688L21.4947 29.3188Z" fill="#009CFF"/>
<path d="M21.959 29.653L22.3733 29.3152L22.157 29.1897L21.7217 29.5151L21.959 29.653Z" fill="#0080FF"/>
<path d="M21.2832 29.0688L21.7578 28.7832L21.5846 28.5122L21.0928 28.7714L21.2832 29.0688Z" fill="#00B4FF"/>
<path d="M22.2005 29.729L22.5936 29.3842L22.3733 29.3152L21.959 29.653L22.2005 29.729Z" fill="#007CFF"/>
<path d="M21.0924 28.7714L21.5843 28.5122L21.4348 28.2046L20.9277 28.4339L21.0924 28.7714Z" fill="#00D0FF"/>
<path d="M22.44 29.7412L22.812 29.3949L22.5932 29.3843L22.2002 29.7291L22.44 29.7412Z" fill="#007CFF"/>
<path d="M20.9277 28.434L21.4347 28.2047L21.3127 27.8682L20.793 28.0647L20.9277 28.434Z" fill="#09F0EE"/>
<path d="M22.6725 29.6887L23.0242 29.3467L22.8124 29.3949L22.4404 29.7412L22.6725 29.6887Z" fill="#0088FF"/>
<path d="M20.7927 28.0647L21.3124 27.8682L21.221 27.511L20.6914 27.6727L20.7927 28.0647Z" fill="#26FFD1"/>
<path d="M22.8913 29.5729L23.224 29.2407L23.0246 29.3468L22.6729 29.6889L22.8913 29.5729Z" fill="#0098FF"/>
<path d="M20.692 27.6724L21.2216 27.5108L21.1633 27.1418L20.627 27.2674L20.692 27.6724Z" fill="#46FFB1"/>
<path d="M23.0899 29.396L23.4052 29.0791L23.2233 29.2406L22.8906 29.5728L23.0899 29.396Z" fill="#00ACFF"/>
<path d="M20.6267 27.2676L21.163 27.1421L21.1394 26.7708L20.5996 26.8599L20.6267 27.2676Z" fill="#66FF90"/>
<path d="M20.5996 26.8599L21.1394 26.7707L21.1513 26.4065L20.6115 26.4598L20.5996 26.8599Z" fill="#8AFF6D"/>
<path d="M20.6113 26.4597L21.1511 26.4064L21.1985 26.0586L20.6621 26.0774L20.6113 26.4597Z" fill="#AAFF4D"/>
<path d="M20.6621 26.0772L21.1985 26.0584L21.2803 25.7361L20.7507 25.7229L20.6621 26.0772Z" fill="#CAFF2C"/>
<path d="M20.751 25.723L21.2805 25.7362L21.3948 25.448L20.8755 25.406L20.751 25.723Z" fill="#E7FF0F"/>
<path d="M20.875 25.4062L21.3943 25.4481L21.5384 25.2017L21.0323 25.135L20.875 25.4062Z" fill="#FFE600"/>
<path d="M21.0322 25.1348L21.5383 25.2015L21.7085 25.0037L21.2184 24.917L21.0322 25.1348Z" fill="#FFCC00"/>
<path d="M21.2188 24.9172L21.7089 25.0038L21.9008 24.8601L21.4291 24.7588L21.2188 24.9172Z" fill="#FFB600"/>
<path d="M21.4287 24.7587L21.9005 24.86L22.1092 24.7744L21.6577 24.6643L21.4287 24.7587Z" fill="#FFA300"/>
<path d="M21.6582 24.6643L22.1098 24.7743L22.3298 24.7494L21.8998 24.6367L21.6582 24.6643Z" fill="#FF9800"/>
<path d="M21.8994 24.6367L22.3294 24.7494L22.5549 24.7861L22.1472 24.677L21.8994 24.6367Z" fill="#FF9400"/>
<path d="M22.1475 24.677L22.5552 24.7861L22.78 24.8836L22.3947 24.7843L22.1475 24.677Z" fill="#FF9400"/>
<path d="M21.4326 29.8284L21.7211 29.515L21.4939 29.3186L21.1836 29.6131L21.4326 29.8284Z" fill="#0074FF"/>
<path d="M21.184 29.6131L21.4943 29.3186L21.2828 29.0686L20.9521 29.3393L21.184 29.6131Z" fill="#0084FF"/>
<path d="M21.6926 29.9799L21.9585 29.6531L21.7212 29.5151L21.4326 29.8285L21.6926 29.9799Z" fill="#0068FF"/>
<path d="M20.9521 29.3393L21.2828 29.0687L21.0923 28.7712L20.7432 29.0136L20.9521 29.3393Z" fill="#00A0FF"/>
<path d="M21.9569 30.0635L22.1999 29.7291L21.9583 29.6531L21.6924 29.9798L21.9569 30.0635Z" fill="#0064FF"/>
<path d="M20.7434 29.0134L21.0926 28.7711L20.9279 28.4336L20.5625 28.6438L20.7434 29.0134Z" fill="#00C0FF"/>
<path d="M22.2196 30.077L22.4398 29.7411L22.2 29.729L21.957 30.0633L22.2196 30.077Z" fill="#0064FF"/>
<path d="M20.5623 28.644L20.9277 28.4338L20.793 28.0645L20.4141 28.2394L20.5623 28.644Z" fill="#00E4F8"/>
<path d="M22.4737 30.0201L22.672 29.6887L22.44 29.7412L22.2197 30.0771L22.4737 30.0201Z" fill="#0070FF"/>
<path d="M20.4144 28.2394L20.7933 28.0644L20.6921 27.6724L20.3027 27.8099L20.4144 28.2394Z" fill="#1FFFD7"/>
<path d="M22.7127 29.8938L22.8903 29.573L22.6719 29.6889L22.4736 30.0203L22.7127 29.8938Z" fill="#0080FF"/>
<path d="M20.3027 27.8101L20.692 27.6725L20.6269 27.2676L20.2305 27.3663L20.3027 27.8101Z" fill="#40FFB7"/>
<path d="M22.931 29.7005L23.0897 29.396L22.8905 29.5728L22.7129 29.8936L22.931 29.7005Z" fill="#0098FF"/>
<path d="M20.2298 27.3661L20.6263 27.2674L20.5992 26.8596L20.1992 26.9191L20.2298 27.3661Z" fill="#66FF90"/>
<path d="M23.1221 29.4449L23.2643 29.1624L23.0894 29.3959L22.9307 29.7004L23.1221 29.4449Z" fill="#00B4FF"/>
<path d="M20.1992 26.9191L20.5992 26.8596L20.6111 26.4595L20.2113 26.4803L20.1992 26.9191Z" fill="#8AFF6D"/>
<path d="M20.2119 26.4804L20.6117 26.4596L20.6625 26.0774L20.2666 26.061L20.2119 26.4804Z" fill="#ADFF49"/>
<path d="M20.2656 26.0611L20.6615 26.0774L20.7502 25.723L20.3619 25.6721L20.2656 26.0611Z" fill="#D1FF26"/>
<path d="M20.3623 25.6721L20.7506 25.7231L20.875 25.406L20.4979 25.324L20.3623 25.6721Z" fill="#F4F802"/>
<path d="M20.498 25.3238L20.8751 25.4058L21.0324 25.1347L20.6698 25.0259L20.498 25.3238Z" fill="#FFD700"/>
<path d="M20.6699 25.0261L21.0325 25.1349L21.2187 24.9171L20.8735 24.7866L20.6699 25.0261Z" fill="#FFB900"/>
<path d="M20.873 24.7863L21.2182 24.9168L21.4285 24.7584L21.1033 24.6121L20.873 24.7863Z" fill="#FF9F00"/>
<path d="M21.1035 24.6123L21.4287 24.7586L21.6577 24.6642L21.3545 24.5083L21.1035 24.6123Z" fill="#FF8D00"/>
<path d="M21.3545 24.5085L21.6577 24.6644L21.8993 24.6369L21.6195 24.478L21.3545 24.5085Z" fill="#FF8200"/>
<path d="M21.6191 24.4778L21.8989 24.6366L22.1467 24.6769L21.8911 24.5219L21.6191 24.4778Z" fill="#FF7A00"/>
<path d="M21.8916 24.522L22.1472 24.677L22.3945 24.7843L22.1631 24.6398L21.8916 24.522Z" fill="#FF7E00"/>
<path d="M23.2647 29.1625L23.565 28.866L23.4052 29.0791L23.0898 29.396L23.2647 29.1625Z" fill="#00C8FF"/>
<path d="M21.2192 30.5413L21.2129 30.3572L20.9184 30.1025L20.9023 30.2672L21.2192 30.5413Z" fill="#0028FF"/>
<path d="M20.9026 30.2675L20.9187 30.1028L20.6444 29.7791L20.6074 29.9192L20.9026 30.2675Z" fill="#0040FF"/>
<path d="M21.5499 30.7346L21.5202 30.5368L21.2129 30.3574L21.2192 30.5415L21.5499 30.7346Z" fill="#0018FF"/>
<path d="M20.6072 29.9191L20.6441 29.779L20.3966 29.394L20.3408 29.505L20.6072 29.9191Z" fill="#0060FF"/>
<path d="M21.8868 30.8418L21.8332 30.6361L21.5205 30.5366L21.5502 30.7345L21.8868 30.8418Z" fill="#0010FF"/>
<path d="M20.3413 29.5051L20.3971 29.3942L20.1826 28.9573L20.1104 29.0351L20.3413 29.5051Z" fill="#0088FF"/>
<path d="M22.2208 30.8607L22.1435 30.6535L21.833 30.6365L21.8866 30.8421L22.2208 30.8607Z" fill="#0014FF"/>
<path d="M20.1096 29.0348L20.1819 28.957L20.0058 28.4788L19.9199 28.5202L20.1096 29.0348Z" fill="#00B4FF"/>
<path d="M22.5445 30.7895L22.4441 30.5869L22.1436 30.6533L22.2209 30.8605L22.5445 30.7895Z" fill="#0020FF"/>
<path d="M19.9199 28.5204L20.0057 28.4789L19.8726 27.9709L19.7764 27.9736L19.9199 28.5204Z" fill="#02E8F4"/>
<path d="M22.8498 30.63L22.7274 30.4382L22.4443 30.5867L22.5448 30.7893L22.8498 30.63Z" fill="#0038FF"/>
<path d="M19.7771 27.9735L19.8733 27.9709L19.7867 27.4457L19.6836 27.408L19.7771 27.9735Z" fill="#30FFC7"/>
<path d="M23.1285 30.386L22.9859 30.2112L22.7275 30.4386L22.85 30.6304L23.1285 30.386Z" fill="#0054FF"/>
<path d="M19.6832 27.408L19.7864 27.4457L19.7489 26.9162L19.6426 26.8376L19.6832 27.408Z" fill="#60FF97"/>
<path d="M23.3729 30.0617L23.2124 29.9097L22.9854 30.211L23.128 30.3858L23.3729 30.0617Z" fill="#007CFF"/>
<path d="M19.6426 26.8375L19.7489 26.9161L19.7619 26.3959L19.6562 26.2769L19.6426 26.8375Z" fill="#8DFF6A"/>
<path d="M23.5782 29.6658L23.4025 29.5417L23.2129 29.9099L23.3734 30.0619L23.5782 29.6658Z" fill="#00A8FF"/>
<path d="M19.6562 26.2768L19.7619 26.3958L19.8254 25.8982L19.7243 25.7402L19.6562 26.2768Z" fill="#BEFF39"/>
<path d="M23.7371 29.2069L23.5494 29.1155L23.4023 29.5415L23.5781 29.6656L23.7371 29.2069Z" fill="#00D8FF"/>
<path d="M19.7246 25.7406L19.8257 25.8986L19.9385 25.4366L19.8459 25.2422L19.7246 25.7406Z" fill="#EBFF0C"/>
<path d="M23.8462 28.6967L23.65 28.6418L23.5498 29.1154L23.7375 29.2068L23.8462 28.6967Z" fill="#23FFD4"/>
<path d="M19.8457 25.2421L19.9383 25.4365L20.0981 25.0225L20.0176 24.7952L19.8457 25.2421Z" fill="#FFD300"/>
<path d="M23.9005 28.1481L23.6998 28.1328L23.6494 28.6419L23.8455 28.6968L23.9005 28.1481Z" fill="#50FFA7"/>
<path d="M20.0176 24.7951L20.0981 25.0224L20.3009 24.6677L20.236 24.4119L20.0176 24.7951Z" fill="#FFA700"/>
<path d="M23.9004 27.575L23.6992 27.6012L23.7004 28.1327L23.9011 28.1481L23.9004 27.575Z" fill="#80FF77"/>
<path d="M20.2363 24.412L20.3012 24.6678L20.5421 24.3822L20.496 24.1033L20.2363 24.412Z" fill="#FF8200"/>
<path d="M23.8431 26.9927L23.6455 27.0614L23.6988 27.6015L23.9 27.5752L23.8431 26.9927Z" fill="#B1FF46"/>
<path d="M20.4961 24.1032L20.5423 24.3821L20.8152 24.174L20.7904 23.8779L20.4961 24.1032Z" fill="#FF6000"/>
<path d="M23.7309 26.4163L23.541 26.5273L23.6453 27.0614L23.8429 26.9926L23.7309 26.4163Z" fill="#DEFF19"/>
<path d="M20.79 23.8777L20.8148 24.1738L21.1126 24.0493L21.1113 23.7427L20.79 23.8777Z" fill="#FF4A00"/>
<path d="M23.5669 25.8616L23.3887 26.0134L23.5415 26.5271L23.7314 26.4161L23.5669 25.8616Z" fill="#FFE200"/>
<path d="M21.1113 23.743L21.1127 24.0496L21.4275 24.0125L21.451 23.7024L21.1113 23.743Z" fill="#FF3800"/>
<path d="M23.3534 25.344L23.1904 25.534L23.388 26.0133L23.5662 25.8615L23.3534 25.344Z" fill="#FFB200"/>
<path d="M21.4512 23.7021L21.4277 24.0122L21.751 24.0641L21.8001 23.7577L21.4512 23.7021Z" fill="#FF3000"/>
<path d="M23.0985 24.8779L22.9541 25.1023L23.1912 25.534L23.3541 25.3441L23.0985 24.8779Z" fill="#FF8D00"/>
<path d="M21.7991 23.7578L21.75 24.0642L22.073 24.204L22.1477 23.9083L21.7991 23.7578Z" fill="#FF3400"/>
<path d="M22.8067 24.4763L22.6836 24.7303L22.9538 25.1025L23.0982 24.8781L22.8067 24.4763Z" fill="#FF6800"/>
<path d="M22.148 23.9084L22.0732 24.2041L22.3871 24.4281L22.4867 24.1501L22.148 23.9084Z" fill="#FF3B00"/>
<path d="M22.4873 24.1501L22.3877 24.4282L22.6838 24.7304L22.8068 24.4764L22.4873 24.1501Z" fill="#FF4E00"/>
<path d="M21.2134 30.3576L21.2735 30.1148L21.0019 29.8799L20.9189 30.1029L21.2134 30.3576Z" fill="#0040FF"/>
<path d="M20.9189 30.1028L21.0018 29.8797L20.7488 29.5811L20.6445 29.7791L20.9189 30.1028Z" fill="#0058FF"/>
<path d="M21.5202 30.5367L21.5565 30.2798L21.273 30.1145L21.2129 30.3573L21.5202 30.5367Z" fill="#0034FF"/>
<path d="M20.644 29.779L20.7483 29.581L20.5201 29.2258L20.3965 29.3941L20.644 29.779Z" fill="#0074FF"/>
<path d="M21.8333 30.6364L21.8452 30.3716L21.5568 30.28L21.5205 30.5369L21.8333 30.6364Z" fill="#002CFF"/>
<path d="M20.3971 29.3941L20.5207 29.2258L20.3231 28.8228L20.1826 28.9572L20.3971 29.3941Z" fill="#009CFF"/>
<path d="M22.1435 30.6532L22.1313 30.3866L21.845 30.3713L21.833 30.6362L22.1435 30.6532Z" fill="#0030FF"/>
<path d="M20.182 28.9572L20.3224 28.8228L20.1603 28.3816L20.0059 28.479L20.182 28.9572Z" fill="#00C4FF"/>
<path d="M22.4445 30.5871L22.4089 30.3252L22.1318 30.3868L22.144 30.6534L22.4445 30.5871Z" fill="#003CFF"/>
<path d="M20.0062 28.479L20.1606 28.3816L20.0381 27.9131L19.873 27.971L20.0062 28.479Z" fill="#0CF4EB"/>
<path d="M22.7269 30.4385L22.6691 30.1877L22.4082 30.3252L22.4438 30.587L22.7269 30.4385Z" fill="#0050FF"/>
<path d="M19.8727 27.9709L20.0378 27.913L19.9584 27.4287L19.7861 27.4456L19.8727 27.9709Z" fill="#36FFC1"/>
<path d="M22.9861 30.2111L22.9079 29.9775L22.6699 30.1878L22.7278 30.4386L22.9861 30.2111Z" fill="#006CFF"/>
<path d="M19.7865 27.4457L19.9587 27.4287L19.9246 26.9408L19.749 26.9163L19.7865 27.4457Z" fill="#60FF97"/>
<path d="M23.2125 29.9097L23.1162 29.6992L22.9072 29.9775L22.9854 30.211L23.2125 29.9097Z" fill="#0090FF"/>
<path d="M19.749 26.9162L19.9246 26.9408L19.9371 26.4616L19.762 26.396L19.749 26.9162Z" fill="#8DFF6A"/>
<path d="M23.4021 29.5415L23.2906 29.3594L23.1162 29.6991L23.2125 29.9096L23.4021 29.5415Z" fill="#00B8FF"/>
<path d="M19.7617 26.3961L19.9368 26.4616L19.9958 26.0034L19.8252 25.8984L19.7617 26.3961Z" fill="#B7FF40"/>
<path d="M23.5495 29.1155L23.4261 28.9666L23.291 29.3595L23.4025 29.5416L23.5495 29.1155Z" fill="#02E8F4"/>
<path d="M19.8252 25.8983L19.9958 26.0033L20.1002 25.5781L19.9381 25.4363L19.8252 25.8983Z" fill="#E1FF16"/>
<path d="M23.6494 28.6419L23.5177 28.53L23.4258 28.9665L23.5491 29.1155L23.6494 28.6419Z" fill="#29FFCE"/>
<path d="M19.9385 25.4363L20.1006 25.5781L20.2481 25.1973L20.0982 25.0222L19.9385 25.4363Z" fill="#FFDE00"/>
<path d="M23.6996 28.1328L23.5636 28.061L23.5176 28.53L23.6492 28.6419L23.6996 28.1328Z" fill="#53FFA4"/>
<path d="M20.0977 25.0225L20.2475 25.1976L20.4347 24.8715L20.3005 24.6677L20.0977 25.0225Z" fill="#FFB600"/>
<path d="M23.6988 27.6014L23.5625 27.5718L23.564 28.0612L23.7 28.1329L23.6988 27.6014Z" fill="#80FF77"/>
<path d="M20.3008 24.6676L20.4349 24.8714L20.657 24.6092L20.5417 24.3821L20.3008 24.6676Z" fill="#FF9400"/>
<path d="M23.6451 27.0615L23.5127 27.0749L23.562 27.5719L23.6983 27.6015L23.6451 27.0615Z" fill="#ADFF49"/>
<path d="M20.542 24.3822L20.6573 24.6093L20.9086 24.4183L20.8149 24.1741L20.542 24.3822Z" fill="#FF7700"/>
<path d="M23.5413 26.5271L23.417 26.5833L23.5132 27.0746L23.6456 27.0612L23.5413 26.5271Z" fill="#D7FF1F"/>
<path d="M20.8145 24.1741L20.9082 24.4183L21.1823 24.3043L21.1123 24.0496L20.8145 24.1741Z" fill="#FF6000"/>
<path d="M23.3887 26.0134L23.2764 26.1109L23.4172 26.5834L23.5415 26.5272L23.3887 26.0134Z" fill="#FEED00"/>
<path d="M21.1123 24.0495L21.1824 24.3042L21.472 24.2705L21.4271 24.0125L21.1123 24.0495Z" fill="#FF5200"/>
<path d="M23.1904 25.5342L23.0938 25.6702L23.2756 26.111L23.3879 26.0135L23.1904 25.5342Z" fill="#FFC400"/>
<path d="M21.4277 24.0125L21.4727 24.2705L21.77 24.3186L21.751 24.0643L21.4277 24.0125Z" fill="#FF4A00"/>
<path d="M22.9536 25.1025L22.876 25.2734L23.0941 25.6703L23.1907 25.5343L22.9536 25.1025Z" fill="#FF9F00"/>
<path d="M21.751 24.0642L21.77 24.3184L22.067 24.4472L22.074 24.204L21.751 24.0642Z" fill="#FF4A00"/>
<path d="M22.6839 24.7302L22.6279 24.9311L22.8765 25.2733L22.9542 25.1024L22.6839 24.7302Z" fill="#FF7E00"/>
<path d="M22.0733 24.2041L22.0664 24.4473L22.355 24.6534L22.3872 24.4281L22.0733 24.2041Z" fill="#FF5500"/>
<path d="M22.3877 24.428L22.3555 24.6532L22.6278 24.9311L22.6837 24.7302L22.3877 24.428Z" fill="#FF6800"/>
<path d="M21.2726 30.1147L21.4328 29.8286L21.1839 29.6133L21.001 29.8798L21.2726 30.1147Z" fill="#005CFF"/>
<path d="M21.0011 29.8797L21.1839 29.6132L20.9521 29.3394L20.748 29.5811L21.0011 29.8797Z" fill="#0070FF"/>
<path d="M21.556 30.2801L21.6926 29.98L21.4327 29.8286L21.2725 30.1147L21.556 30.2801Z" fill="#004CFF"/>
<path d="M20.7477 29.5811L20.9518 29.3394L20.7428 29.0137L20.5195 29.2259L20.7477 29.5811Z" fill="#008CFF"/>
<path d="M21.8441 30.3716L21.9568 30.0636L21.6923 29.98L21.5557 30.2801L21.8441 30.3716Z" fill="#0048FF"/>
<path d="M20.5199 29.2259L20.7432 29.0137L20.5623 28.644L20.3223 28.8228L20.5199 29.2259Z" fill="#00ACFF"/>
<path d="M22.131 30.3867L22.22 30.0771L21.9574 30.0635L21.8447 30.3714L22.131 30.3867Z" fill="#004CFF"/>
<path d="M20.3223 28.8228L20.5623 28.644L20.4141 28.2395L20.1602 28.3816L20.3223 28.8228Z" fill="#00D4FF"/>
<path d="M22.4079 30.3252L22.4738 30.0203L22.2198 30.0772L22.1309 30.3869L22.4079 30.3252Z" fill="#0054FF"/>
<path d="M20.1595 28.3817L20.4135 28.2395L20.3018 27.8101L20.0371 27.9132L20.1595 28.3817Z" fill="#16FFE1"/>
<path d="M22.6691 30.1878L22.7132 29.8938L22.4741 30.0203L22.4082 30.3252L22.6691 30.1878Z" fill="#0068FF"/>
<path d="M20.0374 27.9131L20.3021 27.81L20.2299 27.3662L19.958 27.4288L20.0374 27.9131Z" fill="#3CFFBA"/>
<path d="M22.907 29.9777L22.9311 29.7007L22.713 29.8939L22.6689 30.1879L22.907 29.9777Z" fill="#0080FF"/>
<path d="M19.9579 27.4288L20.2298 27.3662L20.1992 26.9192L19.9238 26.9409L19.9579 27.4288Z" fill="#63FF94"/>
<path d="M23.1152 29.6995L23.1219 29.4453L22.9304 29.7008L22.9062 29.9777L23.1152 29.6995Z" fill="#00A0FF"/>
<path d="M19.9238 26.9409L20.1992 26.9192L20.2112 26.4804L19.9362 26.4617L19.9238 26.9409Z" fill="#8DFF6A"/>
<path d="M23.2897 29.3594L23.2815 29.1333L23.1218 29.4449L23.1152 29.6991L23.2897 29.3594Z" fill="#00C8FF"/>
<path d="M19.9365 26.4616L20.2115 26.4803L20.2662 26.0609L19.9955 26.0034L19.9365 26.4616Z" fill="#B4FF43"/>
<path d="M23.4254 28.9666L23.4059 28.7732L23.2822 29.1334L23.2903 29.3596L23.4254 28.9666Z" fill="#0CF4EB"/>
<path d="M19.9951 26.0033L20.2658 26.0608L20.3621 25.6719L20.0995 25.5781L19.9951 26.0033Z" fill="#DBFF1C"/>
<path d="M23.5168 28.5301L23.4894 28.3733L23.4053 28.7732L23.4248 28.9666L23.5168 28.5301Z" fill="#30FFC7"/>
<path d="M20.0996 25.5783L20.3622 25.6721L20.4978 25.3239L20.2471 25.1975L20.0996 25.5783Z" fill="#FEED00"/>
<path d="M23.5637 28.0612L23.5323 27.9438L23.4902 28.3733L23.5177 28.5301L23.5637 28.0612Z" fill="#56FFA0"/>
<path d="M20.2471 25.1976L20.4978 25.324L20.6695 25.0261L20.4342 24.8716L20.2471 25.1976Z" fill="#FFC800"/>
<path d="M23.5674 27.5719L23.5303 27.4961L23.532 27.944L23.5692 28.0613L23.5674 27.5719Z" fill="#80FF77"/>
<path d="M20.4346 24.8714L20.6699 25.0259L20.8735 24.7864L20.6566 24.6091L20.4346 24.8714Z" fill="#FFA700"/>
<path d="M23.5126 27.075L23.4854 27.0415L23.5305 27.4961L23.5619 27.572L23.5126 27.075Z" fill="#A7FF50"/>
<path d="M20.6562 24.6094L20.8732 24.7867L21.1035 24.6124L20.9076 24.4185L20.6562 24.6094Z" fill="#FF8D00"/>
<path d="M23.4165 26.5837L23.3975 26.5923L23.4855 27.0416L23.5127 27.0751L23.4165 26.5837Z" fill="#CEFF29"/>
<path d="M20.9082 24.4183L21.104 24.6123L21.355 24.5083L21.1823 24.3042L20.9082 24.4183Z" fill="#FF7700"/>
<path d="M23.2755 26.1111L23.2686 26.1602L23.3973 26.5921L23.4163 26.5836L23.2755 26.1111Z" fill="#F4F802"/>
<path d="M21.1816 24.3042L21.3543 24.5083L21.6193 24.4778L21.4713 24.2705L21.1816 24.3042Z" fill="#FF6C00"/>
<path d="M23.0938 25.6702L23.1024 25.7572L23.2686 26.16L23.2756 26.1109L23.0938 25.6702Z" fill="#FFD300"/>
<path d="M21.4717 24.2708L21.6197 24.4781L21.8917 24.5222L21.769 24.3188L21.4717 24.2708Z" fill="#FF6400"/>
<path d="M22.876 25.2734L22.9034 25.3948L23.1027 25.7574L23.0941 25.6703L22.876 25.2734Z" fill="#FFB200"/>
<path d="M21.7686 24.3186L21.8912 24.522L22.1627 24.6398L22.0656 24.4473L21.7686 24.3186Z" fill="#FF6400"/>
<path d="M22.627 24.9312L22.6758 25.082L22.9029 25.3946L22.8755 25.2733L22.627 24.9312Z" fill="#FF9400"/>
<path d="M22.0654 24.4473L22.1626 24.6398L22.4263 24.8281L22.354 24.6534L22.0654 24.4473Z" fill="#FF6C00"/>
<path d="M22.3545 24.6533L22.4268 24.8281L22.6756 25.0821L22.6268 24.9312L22.3545 24.6533Z" fill="#FF7E00"/>
<path d="M21.2563 30.6532L21.2182 30.5414L20.9014 30.2673L20.9182 30.3608L21.2563 30.6532Z" fill="#000CFF"/>
<path d="M20.9185 30.361L20.9016 30.2675L20.6064 29.9192L20.6035 29.9893L20.9185 30.361Z" fill="#0028FF"/>
<path d="M21.6098 30.8595L21.5495 30.7346L21.2188 30.5415L21.2569 30.6534L21.6098 30.8595Z" fill="#0000FF"/>
<path d="M20.6036 29.9894L20.6065 29.9193L20.3402 29.5051L20.3193 29.5475L20.6036 29.9894Z" fill="#004CFF"/>
<path d="M21.9685 30.9742L21.8854 30.8419L21.5488 30.7346L21.6092 30.8595L21.9685 30.9742Z" fill="#0000FF"/>
<path d="M20.3198 29.5471L20.3406 29.5047L20.1096 29.0347L20.0732 29.0455L20.3198 29.5471Z" fill="#0074FF"/>
<path d="M22.3257 30.9941L22.22 30.8604L21.8857 30.8418L21.9688 30.9741L22.3257 30.9941Z" fill="#0000FF"/>
<path d="M20.0727 29.0459L20.109 29.035L19.9194 28.5204L19.8701 28.4966L20.0727 29.0459Z" fill="#00A8FF"/>
<path d="M22.6711 30.9185L22.5434 30.7893L22.2197 30.8603L22.3254 30.994L22.6711 30.9185Z" fill="#0008FF"/>
<path d="M19.8701 28.4964L19.9194 28.5202L19.7759 27.9734L19.7168 27.9126L19.8701 28.4964Z" fill="#00E0FB"/>
<path d="M22.9977 30.7487L22.849 30.6299L22.5439 30.7892L22.6717 30.9185L22.9977 30.7487Z" fill="#0020FF"/>
<path d="M19.7171 27.9126L19.7762 27.9735L19.6827 27.4079L19.6172 27.3086L19.7171 27.9126Z" fill="#2CFFCA"/>
<path d="M23.2953 30.4883L23.1272 30.3857L22.8486 30.6302L22.9973 30.7489L23.2953 30.4883Z" fill="#0040FF"/>
<path d="M19.6169 27.3086L19.6824 27.4079L19.6418 26.8376L19.5732 26.6992L19.6169 27.3086Z" fill="#5DFF9A"/>
<path d="M23.5572 30.1424L23.3719 30.0615L23.127 30.3855L23.295 30.4881L23.5572 30.1424Z" fill="#0068FF"/>
<path d="M19.5732 26.6992L19.6418 26.8376L19.6554 26.2769L19.5876 26.0999L19.5732 26.6992Z" fill="#90FF66"/>
<path d="M23.7767 29.7196L23.5769 29.6655L23.3721 30.0616L23.5573 30.1425L23.7767 29.7196Z" fill="#0098FF"/>
<path d="M19.5879 26.1L19.6557 26.2771L19.7238 25.7406L19.6604 25.5261L19.5879 26.1Z" fill="#C1FF36"/>
<path d="M23.9476 29.2296L23.7362 29.2068L23.5771 29.6655L23.777 29.7196L23.9476 29.2296Z" fill="#00CCFF"/>
<path d="M19.6602 25.5259L19.7236 25.7403L19.8449 25.2419L19.7896 24.9924L19.6602 25.5259Z" fill="#F4F802"/>
<path d="M24.0647 28.6846L23.845 28.6967L23.7363 29.2068L23.9478 29.2297L24.0647 28.6846Z" fill="#1CFFDB"/>
<path d="M19.7891 24.9923L19.8444 25.2417L20.0163 24.7948L19.9726 24.5137L19.7891 24.9923Z" fill="#FFC400"/>
<path d="M24.1239 28.0979L23.8997 28.148L23.8447 28.6966L24.0644 28.6845L24.1239 28.0979Z" fill="#4DFFAA"/>
<path d="M19.9727 24.5137L20.0163 24.7948L20.2348 24.4116L20.2061 24.103L19.9727 24.5137Z" fill="#FF9800"/>
<path d="M24.1244 27.4851L23.8994 27.575L23.9001 28.1481L24.1244 28.0981L24.1244 27.4851Z" fill="#80FF77"/>
<path d="M20.2061 24.103L20.2347 24.4116L20.4944 24.1029L20.4836 23.772L20.2061 24.103Z" fill="#FF6F00"/>
<path d="M24.0645 26.8618L23.8428 26.9925L23.8996 27.5749L24.1246 27.485L24.0645 26.8618Z" fill="#B4FF43"/>
<path d="M20.4844 23.7719L20.4951 24.1028L20.7894 23.8776L20.7991 23.53L20.4844 23.7719Z" fill="#FF4A00"/>
<path d="M23.945 26.2451L23.7305 26.4162L23.8424 26.9926L24.0641 26.8619L23.945 26.2451Z" fill="#E4FF13"/>
<path d="M20.7987 23.5301L20.7891 23.8777L21.1103 23.7426L21.1424 23.3848L20.7987 23.5301Z" fill="#FF3000"/>
<path d="M23.7689 25.6514L23.5654 25.8616L23.7299 26.4161L23.9444 26.245L23.7689 25.6514Z" fill="#FFD300"/>
<path d="M21.1425 23.3849L21.1104 23.7428L21.45 23.7022L21.5059 23.3408L21.1425 23.3849Z" fill="#FF2200"/>
<path d="M23.5425 25.0972L23.3535 25.344L23.5664 25.8615L23.7699 25.6513L23.5425 25.0972Z" fill="#FFA300"/>
<path d="M21.5061 23.3408L21.4502 23.7022L21.7991 23.7578L21.8795 23.3997L21.5061 23.3408Z" fill="#FF1A00"/>
<path d="M23.269 24.5981L23.0977 24.8779L23.3533 25.3441L23.5423 25.0973L23.269 24.5981Z" fill="#FF7A00"/>
<path d="M21.8792 23.3997L21.7988 23.7577L22.1474 23.9083L22.2523 23.5604L21.8792 23.3997Z" fill="#FF1A00"/>
<path d="M22.9567 24.168L22.8057 24.4761L23.0972 24.8779L23.2686 24.5981L22.9567 24.168Z" fill="#FF5500"/>
<path d="M22.2524 23.5605L22.1475 23.9084L22.4862 24.1501L22.6149 23.819L22.2524 23.5605Z" fill="#FF2500"/>
<path d="M22.615 23.8188L22.4863 24.1499L22.8059 24.4761L22.9569 24.168L22.615 23.8188Z" fill="#FF3800"/>
<defs>
<clipPath id="clip0_562_217693">
<rect width="27" height="27" fill="white"/>
</clipPath>
</defs>
</svg>
