<?xml version="1.0" encoding="UTF-8"?>
<!DOCTYPE svg PUBLIC "-//W3C//DTD SVG 1.1//EN" "http://www.w3.org/Graphics/SVG/1.1/DTD/svg11.dtd">
<svg xmlns="http://www.w3.org/2000/svg" version="1.1" width="500px" height="500px" style="shape-rendering:geometricPrecision; text-rendering:geometricPrecision; image-rendering:optimizeQuality; fill-rule:evenodd; clip-rule:evenodd" xmlns:xlink="http://www.w3.org/1999/xlink">
<g><path style="opacity:0.996" fill="#003399" d="M 238.5,-0.5 C 246.167,-0.5 253.833,-0.5 261.5,-0.5C 349.045,6.67441 416.545,47.0077 464,120.5C 484.502,155.2 496.335,192.533 499.5,232.5C 499.5,244.167 499.5,255.833 499.5,267.5C 489.291,364.441 440.624,434.608 353.5,478C 328.204,489.383 301.871,496.549 274.5,499.5C 257.833,499.5 241.167,499.5 224.5,499.5C 129.123,486.413 60.9566,436.413 20,349.5C 8.11207,321.206 1.27873,291.872 -0.5,261.5C -0.5,254.167 -0.5,246.833 -0.5,239.5C 6.31635,148.266 48.6497,79.099 126.5,32C 161.467,12.5051 198.801,1.67181 238.5,-0.5 Z"/></g>
<g><path style="opacity:1" fill="#fdfdfe" d="M 293.5,287.5 C 264.167,287.5 234.833,287.5 205.5,287.5C 205.263,288.791 205.596,289.791 206.5,290.5C 217.617,329.73 243.617,346.896 284.5,342C 301.025,339.453 315.358,332.619 327.5,321.5C 328.497,340.659 328.83,359.993 328.5,379.5C 300.468,390.976 271.468,394.143 241.5,389C 189.7,374.865 158.034,341.532 146.5,289C 137.173,288.5 127.839,288.334 118.5,288.5C 120.167,278.499 121.834,268.499 123.5,258.5C 129.833,258.5 136.167,258.5 142.5,258.5C 143.493,250.016 143.826,241.349 143.5,232.5C 135.167,232.5 126.833,232.5 118.5,232.5C 120.293,222.866 121.96,213.2 123.5,203.5C 131.5,203.5 139.5,203.5 147.5,203.5C 154.396,166.458 173.729,137.958 205.5,118C 236.708,101.283 269.708,96.6168 304.5,104C 313.032,105.844 321.198,108.677 329,112.5C 329.667,114.5 329.667,116.5 329,118.5C 325.499,134.174 321.999,149.841 318.5,165.5C 304.506,153.952 288.339,148.618 270,149.5C 235.765,151.561 214.265,169.227 205.5,202.5C 240.494,203.5 275.494,203.833 310.5,203.5C 308.626,213.535 306.626,223.535 304.5,233.5C 270.167,233.5 235.833,233.5 201.5,233.5C 201.5,241.833 201.5,250.167 201.5,258.5C 233.833,258.5 266.167,258.5 298.5,258.5C 297.113,268.211 295.446,277.878 293.5,287.5 Z"/></g>
<g><path style="opacity:1" fill="#9db0d8" d="M 118.5,232.5 C 126.833,232.5 135.167,232.5 143.5,232.5C 143.826,241.349 143.493,250.016 142.5,258.5C 142.5,250.167 142.5,241.833 142.5,233.5C 134.316,233.826 126.316,233.492 118.5,232.5 Z"/></g>
<g><path style="opacity:1" fill="#becbe5" d="M 293.5,287.5 C 264.319,287.836 235.319,288.836 206.5,290.5C 205.596,289.791 205.263,288.791 205.5,287.5C 234.833,287.5 264.167,287.5 293.5,287.5 Z"/></g>
<g><path style="opacity:1" fill="#486db6" d="M 327.5,321.5 C 327.56,320.957 327.893,320.624 328.5,320.5C 329.828,340.329 329.828,359.996 328.5,379.5C 328.83,359.993 328.497,340.659 327.5,321.5 Z"/></g>
</svg>
