<svg width="128" height="128" viewBox="0 0 128 128" fill="none" xmlns="http://www.w3.org/2000/svg">
<g clip-path="url(#clip0_144_745)">
<path fill-rule="evenodd" clip-rule="evenodd" d="M0 62.0606C-1.49821e-06 27.7855 28.6543 1.54501e-06 64 0C99.3459 -1.54501e-06 128 27.7855 128 62.0606V65.9392C128 100.214 99.3459 128 64 128C28.6543 128 1.66776e-06 100.214 1.69549e-07 65.9392L0 62.0606ZM55.7305 104.847C60.6875 100.039 63.0351 93.6595 62.7714 87.3619C63.4258 87.3882 64.0819 87.3875 64.7341 87.3619C64.4704 93.6576 66.8186 100.039 71.7773 104.847C81.1936 113.978 96.4608 113.978 105.877 104.847C115.293 95.7158 115.293 80.9107 105.877 71.7805C100.918 66.9728 94.3379 64.6963 87.8458 64.9517C87.8714 64.3181 87.8733 63.6828 87.8458 63.0483C94.3398 63.3037 100.918 61.0272 105.877 56.2197C115.293 47.089 115.293 32.2844 105.877 23.1534C96.4608 14.0227 81.1936 14.0227 71.7773 23.1534C66.8186 27.9612 64.4704 34.3404 64.7341 40.6383C64.08 40.6117 63.4258 40.6127 62.7714 40.6383C63.0351 34.3423 60.6875 27.9612 55.7305 23.1534C46.3144 14.0227 31.0468 14.0227 21.6308 23.1534C12.2148 32.2844 12.2148 47.089 21.6308 56.2197C26.5879 61.0272 33.1699 63.3037 39.6621 63.0483C39.6347 63.6818 39.6347 64.3174 39.6621 64.9517C33.168 64.6963 26.5879 66.9728 21.6308 71.7805C12.2148 80.9107 12.2148 95.7158 21.6308 104.847C31.0468 113.978 46.3144 113.978 55.7305 104.847Z" fill="#DD3300"/>
</g>
<defs>
<clipPath id="clip0_144_745">
<rect width="128" height="128" fill="white"/>
</clipPath>
</defs>
</svg>
