<svg width="32" height="32" viewBox="0 0 32 32" fill="none" xmlns="http://www.w3.org/2000/svg">
<circle cx="17" cy="17" r="11.625" fill="white"/>
<path fill-rule="evenodd" clip-rule="evenodd" d="M21.406 14.1711C21.2564 12.6107 19.9104 12.0872 18.2079 11.9277V9.77896H16.8917V11.8878H15.8398V9.77896H14.5337V11.9426H11.864V13.351C11.864 13.351 12.8361 13.3335 12.8212 13.351C13.1855 13.3109 13.5161 13.5666 13.569 13.9293V19.8519C13.5614 19.9762 13.5039 20.0922 13.4095 20.1735C13.3168 20.2563 13.1944 20.2977 13.0705 20.2881C13.0879 20.3031 12.1133 20.2881 12.1133 20.2881L11.864 21.861H14.5087V24.0596H15.8249V21.8934H16.8768V24.0496H18.1954V21.876C20.4189 21.7414 21.9694 21.193 22.1638 19.1116C22.3208 17.4365 21.5331 16.6887 20.2743 16.3871C21.0396 16.0107 21.5132 15.3127 21.406 14.1711ZM19.5614 18.8523C19.5614 20.3535 17.2002 20.319 16.1226 20.3033C16.0264 20.3019 15.9404 20.3006 15.8672 20.3006V17.3991C15.9586 17.3994 16.07 17.3969 16.1963 17.3941L16.1964 17.3941C17.3041 17.3696 19.5614 17.3197 19.5614 18.8523ZM16.0938 16.0808C16.9968 16.0969 18.9507 16.1316 18.9507 14.7643C18.9507 13.3625 17.0577 13.4118 16.1371 13.4357C16.0346 13.4384 15.9442 13.4407 15.8697 13.4407V16.078C15.9335 16.078 16.009 16.0793 16.0938 16.0808Z" fill="#F7931A"/>
<path fill-rule="evenodd" clip-rule="evenodd" d="M5 16.9993C4.9996 23.6261 10.371 28.9988 16.9978 29C20.1812 29.0006 23.2343 27.7363 25.4853 25.4853C27.7363 23.2343 29.0006 20.1812 29 16.9978C28.9988 10.371 23.6261 4.9996 16.9993 5C10.3724 5.0004 5.0004 10.3724 5 16.9993ZM5.94893 16.9978C5.94651 10.8925 10.8925 5.9406 16.9978 5.93575C19.9328 5.93342 22.7482 7.09799 24.824 9.17291C26.8997 11.2478 28.0654 14.0628 28.0643 16.9978C28.0618 23.1031 23.1119 28.0511 17.0066 28.0511C10.9013 28.0511 5.95136 23.1031 5.94893 16.9978Z" fill="black"/>
<path d="M24.523 10.0792L23.8684 10.7338C27.1057 14.274 27.1057 19.6997 23.8684 23.24L24.523 23.8945C28.1247 19.9878 28.1247 13.9707 24.523 10.064V10.0792Z" fill="#5A5564"/>
<path d="M10.7579 10.1359C14.2981 6.89864 19.7238 6.89864 23.264 10.1359L23.9186 9.4814C20.0119 5.87969 13.9948 5.87969 10.088 9.4814L10.7579 10.1359Z" fill="#5A5564"/>
<path d="M10.1448 23.2465C6.91145 19.7072 6.91145 14.2861 10.1448 10.7469L9.49023 10.0923C5.88852 13.999 5.88852 20.0161 9.49023 23.9229L10.1448 23.2465Z" fill="#5A5564"/>
<path d="M23.2553 23.8509C19.7151 27.0882 14.2894 27.0882 10.7491 23.8509L10.0946 24.5054C14.0013 28.1071 20.0184 28.1071 23.9251 24.5054L23.2553 23.8509Z" fill="#5A5564"/>
<path d="M29.8081 14.9004C29.8081 14.9004 30.6667 11.1024 27.5653 9.46619C27.5653 9.46619 28.8865 11.1366 29.8081 14.9004Z" fill="#69E2DC"/>
<path d="M30.1786 23.5544C32.9243 18.5317 32.4338 12.9355 29.5921 8.31607C31.1631 11.9779 31.1507 15.7006 30.095 19.4511C30.0559 18.1893 29.0589 15.4434 28.293 14.2338V14.2355C28.6075 15.5564 28.6857 16.9537 28.4831 18.377C27.5998 24.5867 21.7369 28.9194 15.3887 28.0557C9.0388 27.1919 4.60827 21.4584 5.49154 15.2505C6.06024 11.2567 8.68692 8.03974 12.1791 6.48258C12.5274 6.32095 12.89 6.17322 13.2685 6.03766C13.4871 5.18259 14.0843 4.67337 14.3846 4.46308C14.3988 4.45265 14.413 4.44223 14.4273 4.43354C14.4308 4.4318 14.4344 4.43006 14.4362 4.42658C14.4593 4.41094 14.4806 4.39704 14.4984 4.38661L14.5019 4.38487C14.5303 4.36749 14.5499 4.35707 14.557 4.35185L14.5623 4.34838C14.2549 4.8211 14.1376 5.29903 14.1696 5.73873C14.1731 5.75785 14.1785 5.77523 14.182 5.79435C15.0706 9.82808 20.3649 5.27992 23.3506 9.00777C23.5976 9.22675 23.5372 9.63517 24.001 9.51178C24.4418 9.42836 24.863 9.28584 25.3943 8.98518L25.3961 8.98344C25.4654 8.94347 25.5365 8.9035 25.6112 8.85831C25.6876 8.81139 25.7676 8.76272 25.8493 8.70885C25.8902 8.68625 25.9417 8.65497 26.0021 8.615C26.5708 8.24308 27.9091 7.14126 27.7456 6.28793C27.7402 6.25664 27.7314 6.2271 27.7225 6.19755C27.6354 5.76828 27.3599 5.29556 26.8872 5.20518C26.7415 5.17564 26.5922 5.16869 26.4447 5.17564C26.1976 5.18781 25.9524 5.23821 25.7125 5.29556C25.6414 5.30251 25.5703 5.30599 25.5028 5.30425C24.8825 5.28861 24.36 4.92711 23.8446 4.55172C23.5016 4.30145 23.1622 4.04597 22.7996 3.88261C22.6663 3.93648 22.4797 4.12071 22.2967 4.21108C22.1865 4.26669 22.0799 4.28755 21.9857 4.22672L21.6107 3.96603C21.4134 3.82873 21.2126 3.6897 21.2126 3.6897C21.1984 3.68101 21.1859 3.67058 21.1753 3.65841C21.1006 3.58194 21.0953 3.4794 21.1362 3.39772C21.1842 3.30387 21.2908 3.23957 21.4188 3.27954L22.6521 3.65494C22.5508 3.48288 22.4104 3.32125 22.2416 3.16657C21.0544 2.09252 18.4313 1.46165 17.7684 1.08973C17.7169 1.04975 17.6671 1.01152 17.6138 0.973285C16.6292 0.264203 15.458 0.00351118 14.2851 3.52884e-05C13.1139 -0.0034406 11.9427 0.250299 10.96 0.568344C10.752 0.636124 10.5548 0.705642 10.3646 0.776897C9.37292 1.14882 8.66026 1.55202 8.47543 1.72582C10.4357 0.992403 11.7064 0.994141 12.3533 1.08451V1.08625C12.6803 1.10885 13.329 1.40603 13.656 1.7206C6.79067 1.4825 0.872604 8.31955 0 15.7093C0 15.7093 0.556263 14.4927 1.24226 13.7506C-0.250585 18.5213 0.909925 23.0938 3.18829 26.6757C3.18829 26.6757 2.58582 25.1064 3.04078 23.4014C6.59695 34.2897 25.8084 35.7426 31.4777 22.4925C31.4812 22.4908 30.7739 23.3267 30.1786 23.5544Z" fill="#69E2DC"/>
<path d="M30.1786 23.5544C32.9243 18.5317 32.4338 12.9355 29.5921 8.31607C31.1631 11.9779 31.1507 15.7006 30.095 19.4511C30.0559 18.1893 29.0589 15.4434 28.293 14.2338V14.2355C28.6075 15.5564 28.6857 16.9537 28.4831 18.377C27.5998 24.5867 21.7369 28.9194 15.3887 28.0557C9.0388 27.1919 4.60827 21.4584 5.49154 15.2505C6.06024 11.2567 8.68692 8.03974 12.1791 6.48258C12.5274 6.32095 12.89 6.17322 13.2685 6.03766C13.4871 5.18259 14.0843 4.67337 14.3846 4.46308C14.3988 4.45265 14.413 4.44223 14.4273 4.43354C14.4308 4.4318 14.4344 4.43006 14.4362 4.42658C14.4593 4.41094 14.4806 4.39704 14.4984 4.38661L14.5019 4.38487C14.5303 4.36749 14.5499 4.35707 14.557 4.35185L14.5623 4.34838C14.2549 4.8211 14.1376 5.29903 14.1696 5.73873C14.1731 5.75785 14.1785 5.77523 14.182 5.79435C15.0706 9.82808 20.3649 5.27992 23.3506 9.00777C23.5976 9.22675 23.5372 9.63517 24.001 9.51178C24.4418 9.42836 24.863 9.28584 25.3943 8.98518L25.3961 8.98344C25.4654 8.94347 25.5365 8.9035 25.6112 8.85831C25.6876 8.81139 25.7676 8.76272 25.8493 8.70885C25.8902 8.68625 25.9417 8.65497 26.0021 8.615C26.5708 8.24308 27.9091 7.14126 27.7456 6.28793C27.7402 6.25664 27.7314 6.2271 27.7225 6.19755C27.6354 5.76828 27.3599 5.29556 26.8872 5.20518C26.7415 5.17564 26.5922 5.16869 26.4447 5.17564C26.1976 5.18781 25.9524 5.23821 25.7125 5.29556C25.6414 5.30251 25.5703 5.30599 25.5028 5.30425C24.8825 5.28861 24.36 4.92711 23.8446 4.55172C23.5016 4.30145 23.1622 4.04597 22.7996 3.88261C22.6663 3.93648 22.4797 4.12071 22.2967 4.21108C22.1865 4.26669 22.0799 4.28755 21.9857 4.22672L21.6107 3.96603C21.4134 3.82873 21.2126 3.6897 21.2126 3.6897C21.1984 3.68101 21.1859 3.67058 21.1753 3.65841C21.1006 3.58194 21.0953 3.4794 21.1362 3.39772C21.1842 3.30387 21.2908 3.23957 21.4188 3.27954L22.6521 3.65494C22.5508 3.48288 22.4104 3.32125 22.2416 3.16657C21.0544 2.09252 18.4313 1.46165 17.7684 1.08973C17.7169 1.04975 17.6671 1.01152 17.6138 0.973285C16.6292 0.264203 15.458 0.00351118 14.2851 3.52884e-05C13.1139 -0.0034406 11.9427 0.250299 10.96 0.568344C10.752 0.636124 10.5548 0.705642 10.3646 0.776897C9.37292 1.14882 8.66026 1.55202 8.47543 1.72582C10.4357 0.992403 11.7064 0.994141 12.3533 1.08451V1.08625C12.6803 1.10885 13.329 1.40603 13.656 1.7206C6.79067 1.4825 0.872604 8.31955 0 15.7093C0 15.7093 0.556263 14.4927 1.24226 13.7506C-0.250585 18.5213 0.909925 23.0938 3.18829 26.6757C3.18829 26.6757 2.58582 25.1064 3.04078 23.4014C6.59695 34.2897 25.8084 35.7426 31.4777 22.4925C31.4812 22.4908 30.7739 23.3267 30.1786 23.5544Z" fill="#69E2DC"/>
</svg>
