<svg width="32" height="32" viewBox="0 0 32 32" fill="none" xmlns="http://www.w3.org/2000/svg">
<g clip-path="url(#clip0_700_291814)">
<path d="M32 16C32 24.8366 24.8366 32 16 32C7.16344 32 0 24.8366 0 16C0 7.16344 7.16344 0 16 0C24.8366 0 32 7.16344 32 16Z" fill="#221B47"/>
<g clip-path="url(#clip1_700_291814)">
<path d="M15.4695 7.35284H15.2113V7.60739H14.4295V7.86194H14.9495V8.11648H15.9895V7.86194H15.7277V7.60739H15.4695V7.35284Z" fill="#C3925C"/>
<path d="M19.2913 9.21466H19.0295V9.46921H19.2913V9.21466Z" fill="#C3925C"/>
<path d="M21.204 15.8183H20.9422V16.0728H21.204V15.8183Z" fill="#C3925C"/>
<path d="M21.204 15.8183H21.4659V15.5638H21.204V15.8183Z" fill="#C3925C"/>
<path d="M19.0331 13.4474H19.2949V13.7019H19.0331V13.4474Z" fill="#C3925C"/>
<path d="M19.2949 13.1928V13.4474H19.5568V13.7019H19.9022V13.4474H19.5568V13.1928H19.2949Z" fill="#C3925C"/>
<path d="M19.2949 13.1928V12.9419H19.0331V13.1928H19.2949Z" fill="#C3925C"/>
<path d="M19.0331 12.3492H19.2949V12.6874H19.0331V12.3492Z" fill="#C3925C"/>
<path d="M18.2477 13.4474H17.9022V13.7019H18.2477V13.4474Z" fill="#C3925C"/>
<path d="M17.1204 14.211H17.3859V14.5492H17.1204V14.211Z" fill="#C3925C"/>
<path d="M15.7277 17.9347H15.4695V18.2765H15.7277V17.9347Z" fill="#C3925C"/>
<path d="M9.21858 16.411H9.99313V16.9201H10.2586V17.6728H9.99313V17.4219H9.47313V17.171H9.21858V16.411Z" fill="#C3925C"/>
<path d="M9.21858 16.411H8.95313V16.0728H9.21858V16.411Z" fill="#C3925C"/>
<path d="M8.07676 17.1783H8.34222V17.4292H8.07676V17.1783Z" fill="#C3925C"/>
<path d="M8.34222 17.4292H8.60767V17.6801H8.34222V17.4292Z" fill="#C3925C"/>
<path d="M9.21858 18.2765H9.48403V18.5274H9.21858V18.2765Z" fill="#C3925C"/>
<path d="M9.21858 18.5274V18.7783H8.95313V18.5274H9.21858Z" fill="#C3925C"/>
<path d="M14.4222 9.21466H14.0768V9.46921H13.8186V9.72375H14.0768V9.46921H14.4222V9.21466Z" fill="#C3925C"/>
<path d="M7.30222 13.4474H6.95312V13.7019H7.30222V13.9565H6.95312V14.211H7.30222V14.5492H7.56403V14.211H7.30222V13.9565H7.56403V13.7019H7.82585V13.4474H7.56403V13.7019H7.30222V13.4474Z" fill="#C3925C"/>
<path d="M13.2986 8.9599H14.4222V9.21445H13.8186V9.46899H13.124V9.21445H13.2986V8.9599Z" fill="#FEAE34"/>
<path d="M14.4222 9.21445H14.6913V9.46899H14.4222V9.21445Z" fill="#FEAE34"/>
<path d="M15.7277 9.21445H15.9895V9.46899H15.7277V9.21445Z" fill="#FEAE34"/>
<path fill-rule="evenodd" clip-rule="evenodd" d="M16.3386 9.72354V9.46899H15.9895V9.72354H15.7277V9.97808H15.9895V10.2326H16.3386V10.4872H16.6004V10.2326H16.8622V9.97808H16.6004V9.72354H16.3386ZM16.3386 9.97808H16.6004V10.2326H16.3386V9.97808ZM16.3386 9.97808V9.72354H15.9895V9.97808H16.3386Z" fill="#FEAE34"/>
<path d="M16.3386 11.3308H16.6004V11.5854H16.3386V11.3308Z" fill="#FEAE34"/>
<path d="M16.8622 11.8399H16.6004V11.5854H16.8622V11.8399Z" fill="#FEAE34"/>
<path d="M17.124 12.0908H16.8622V11.8399H17.124V12.0908Z" fill="#FEAE34"/>
<path d="M17.124 12.0908H17.3822V12.349H17.124V12.0908Z" fill="#FEAE34"/>
<path d="M18.2477 11.0799H18.5095V11.3344H18.2477V11.0799Z" fill="#FEAE34"/>
<path d="M17.9022 10.4872H17.6404V10.8254H17.9022V10.4872Z" fill="#FEAE34"/>
<path d="M18.2477 11.5854H18.5095V11.8399H18.2477V11.5854Z" fill="#FEAE34"/>
<path d="M18.5095 12.349H18.2477V12.6872H18.5095V12.349Z" fill="#FEAE34"/>
<path d="M17.3822 12.9417H17.644V13.4472H17.9022V13.7017H17.1204V13.4472H17.3822V12.9417Z" fill="#FEAE34"/>
<path fill-rule="evenodd" clip-rule="evenodd" d="M18.2477 14.549H18.5095V13.9563H18.2477V13.7017H17.9022V14.2108H17.3859V15.3126H17.6477V14.549H17.9022V14.8035H18.2477V15.0581H17.9022V15.3126H18.2477V15.0581H18.5095V14.8035H18.2477V14.549ZM18.2477 14.549H17.9022V14.2108H18.2477V14.549Z" fill="#FEAE34"/>
<path d="M16.7749 14.8035H16.8586V15.0581H16.7749V14.8035Z" fill="#FEAE34"/>
<path d="M16.3386 10.8254H15.9895V10.4872H15.2077V9.97808H13.2986V10.2326H13.8186V10.4872H14.6913V10.8254H15.9895V11.0799H16.3386V10.8254Z" fill="#FEAE34"/>
<path d="M10.2586 13.1926H9.99676V13.9563H10.5168V13.4472H10.2586V13.1926Z" fill="#FEAE34"/>
<path d="M9.47313 13.1926H9.21131V13.4472H9.47313V13.1926Z" fill="#FEAE34"/>
<path d="M10.2586 15.0544V15.8181H10.5204V16.0726H11.124V16.4108H11.3859V16.6654H11.124V16.9199H10.8659V16.6654H10.2586V16.4108H9.73494V15.0544H10.2586Z" fill="#FEAE34"/>
<path d="M12.7749 17.1744H12.4295V17.429H11.6477V17.6799H11.9095V17.9344H12.1677V17.6799H12.7749V17.1744Z" fill="#FEAE34"/>
<path fill-rule="evenodd" clip-rule="evenodd" d="M14.6877 17.4254H14.4259V17.6799H14.6877V17.9344H14.4259V18.2726H13.8186V18.5272H14.4259V18.7781H14.6877V19.0326H14.9459V19.2872H15.2113V19.0326H15.4695V19.2872H15.7349V19.0326H15.4695V18.7781H15.7349V18.5272H15.4695V17.9344H15.9931V17.6799H15.7313V17.4254H15.4695V17.6799H15.2113V17.4254H14.9459V17.6799H14.6877V17.4254ZM15.2113 18.7781V19.0326H14.9459V18.7781H15.2113ZM15.2113 18.7781V18.5272H15.4695V18.7781H15.2113ZM14.6877 18.2726H14.9459V17.9344H14.6877V18.2726ZM14.6877 18.2726V18.5272H14.4259V18.2726H14.6877Z" fill="#FEAE34"/>
<path d="M7.82585 12.1781H7.56403V12.349H7.30222V12.6872H6.95312V12.9417H7.30222V12.6872H7.56403V12.9417H7.82585V12.6872H7.56403V12.349H7.82585V12.1781Z" fill="#FEAE34"/>
<path d="M7.56403 13.1963H7.30222V13.4472H7.56403V13.1963Z" fill="#FEAE34"/>
<path d="M12.3422 7.09833H12.7786V7.35288H13.2986V7.60742H13.0368V7.86197H12.4295V8.11652H12.3422V7.09833Z" fill="#FED855"/>
<path d="M19.2913 8.96017H19.0295V9.21472H19.2913V9.46927H19.5531V9.21472H19.2913V8.96017Z" fill="#FED855"/>
<path d="M16.8622 9.21472H16.3386V9.46927H16.6004V9.72381H16.8622V9.97836H17.124V10.2329H17.3859V9.97836H17.124V9.46927H16.8622V9.21472Z" fill="#FED855"/>
<path d="M21.4659 15.8184H21.204V15.5639H21.4659V15.3093H21.204V15.5639H20.9422V15.8184H21.204V16.073H20.9422V16.4112H21.204V16.073H21.4659V15.8184Z" fill="#FED855"/>
<path d="M18.7749 16.4148H19.0368V16.9203H18.2513V16.6694H18.7749V16.4148Z" fill="#FED855"/>
<path d="M17.3822 11.8402H17.6477V12.0911H17.3822V11.8402Z" fill="#FED855"/>
<path d="M18.2477 12.6875V12.3493H17.9022V12.0911H17.6477V12.3493H17.3822V12.6875H17.124V12.3493H16.8622V12.6875H17.124V12.942H17.6477V12.6875H18.2477Z" fill="#FED855"/>
<path d="M18.2477 12.6875H18.5095V12.942H18.2477V12.6875Z" fill="#FED855"/>
<path fill-rule="evenodd" clip-rule="evenodd" d="M18.5095 14.5493H18.2477V14.8039H18.5095V15.0584H18.2477V15.313H17.9022V14.8039H17.6477V15.313H16.7749V15.5675H17.5568V15.8221H17.6404V15.5675H17.9022V15.8221H18.5095V15.5675H18.7749V15.313H19.0331V14.8039H19.2949V14.5493H19.0331V13.4475H19.2949V13.702H19.5568V13.4475H19.9022V13.1929H19.5568V12.9384H19.2949V12.6875H19.0331V12.942H19.2949V13.1929H19.0331V13.4475H18.5095V13.702H18.2477V13.9566H18.5095V14.5493ZM19.2949 13.1929H19.5568V13.4475H19.2949V13.1929Z" fill="#FED855"/>
<path d="M17.644 13.1929H17.9022V13.4475H17.644V13.1929Z" fill="#FED855"/>
<path d="M17.6404 13.702H17.9022V13.9566H17.6404V13.702Z" fill="#FED855"/>
<path d="M17.6404 13.9566V14.2111H17.1204V13.9566H17.6404Z" fill="#FED855"/>
<path d="M17.1204 14.5493H17.3859V14.8039H17.1204V14.5493Z" fill="#FED855"/>
<path d="M16.8622 11.0802V10.4875H16.3386V11.0802H16.8622Z" fill="#FED855"/>
<path d="M9.47313 13.1929H9.73494V13.4475H9.47313V13.1929Z" fill="#FED855"/>
<path d="M9.47313 13.1929H9.21131V12.942H9.47313V13.1929Z" fill="#FED855"/>
<path d="M9.47313 13.4475V13.702H9.21131V13.4475H9.47313Z" fill="#FED855"/>
<path d="M9.99676 13.7057H9.73494V13.9566H9.47313V14.5457H9.73494V14.8002H9.99676V15.0548H10.2586V13.9566H9.99676V13.7057Z" fill="#FED855"/>
<path d="M11.3859 16.6657H11.9095V16.9203H12.1677V17.4294H11.9095V17.1748H11.644V16.9203H11.3859V16.6657Z" fill="#FED855"/>
<path d="M12.4295 17.9348H11.9095V18.273H12.4295V18.5276H12.7749V18.273H12.4295V17.9348Z" fill="#FED855"/>
<path d="M13.8186 18.273H13.5604V18.5276H13.0368V18.7785H13.6004V19.033H14.4259V19.5421H15.7349V19.2876H15.9968V18.7785H16.3386V18.5276H15.9895V18.2766H15.4695V18.5276H15.7349V18.7785H15.4695V19.033H15.7349V19.2876H14.6877V18.7785H14.4259V18.5276H14.0804V18.7785H13.8186V18.273Z" fill="#FED855"/>
<path d="M15.9931 17.9348V17.6803H15.7313V17.2585H16.4259V17.9348H15.9931Z" fill="#FED855"/>
<path d="M8.07676 16.9275H8.34222V17.1712H8.60767V17.4221H8.34222V17.1785H8.07676V16.9275Z" fill="#FED855"/>
<path d="M8.95313 18.273H9.21858V18.5239H8.95313V18.273Z" fill="#FED855"/>
<path d="M9.48403 18.5276H9.21858V18.7785H9.48403V18.5276Z" fill="#FED855"/>
<path d="M13.8186 8.62562H13.124V9.21472H13.2986V8.96017H13.8186V8.62562Z" fill="#FED855"/>
<path d="M15.9895 8.96017H14.4222V9.21472H14.6913V9.72381H14.9531V9.97836H15.4731V10.2329H15.7277V10.4875H15.9895V9.97836H15.7277V9.72381H15.9895V9.46927H15.7277V9.21472H15.9895V8.96017Z" fill="#FED855"/>
<path d="M13.2986 9.46927H13.124V9.72381H13.2986V9.46927Z" fill="#FED855"/>
<path d="M13.5604 9.46927H13.8186V9.72381H13.5604V9.46927Z" fill="#FED855"/>
<path d="M13.8186 9.46927V9.21472H14.0768V9.46927H13.8186Z" fill="#FED855"/>
<path fill-rule="evenodd" clip-rule="evenodd" d="M7.56403 12.1784H7.30222V12.3493H6.95312V12.6875H7.30222V12.942H6.95312V13.1966H7.30222V12.942H7.56403V13.1966H7.82585V12.942H7.56403V12.6875H7.82585V12.3493H7.56403V12.1784ZM7.56403 12.3493V12.6875H7.30222V12.3493H7.56403Z" fill="#FED855"/>
<path d="M7.82585 13.702H7.56403V13.9566H7.30222V13.702H6.95312V13.9566H7.30222V14.2111H7.56403V13.9566H7.82585V13.702Z" fill="#FED855"/>
<path d="M14.0803 11.08H14.4294V11.3309H15.2113V11.5854H15.4731V11.84H15.7313V12.0981H16.3386V12.6872H16.6004V12.9454H16.8622V13.2036H16.6004V14.2072H16.3386V14.549H16.6004V14.8036H16.0804V14.04H15.3858V13.3672H14.604V12.6036H13.9058V11.3309H14.0803V11.08Z" fill="white"/>
<path fill-rule="evenodd" clip-rule="evenodd" d="M12.7748 13.7054H10.8657V13.9563H10.5166V14.2072H10.8657V15.0545H11.1239V15.5636H11.3857V16.0727H11.6475V16.4109H11.9094V16.6654H12.1676V16.92H12.4294V17.1709H13.2985V17.4254H13.5603V17.1709H14.4294V16.92H14.9494V16.6654H15.4731V16.4945H15.0367V16.4109H14.9494V15.8218H14.2549V15.1418H13.5567V14.3781H12.7748V13.7054ZM10.8657 14.2072V13.9563H11.1239V14.2072H10.8657Z" fill="white"/>
<path fill-rule="evenodd" clip-rule="evenodd" d="M16.3386 9.21442H15.9895V9.46896H16.3386V9.72351H15.9895V9.97805H16.3386V10.2326H15.9895V10.4871H16.3386V10.2326H16.6004V10.4871H16.8622V11.3308H16.6004V11.0799H15.9895V10.8253H14.6913V10.4871H13.9059V11.3308H14.0768V11.0799H14.4295V11.3308H15.2113V11.5853H15.4731V11.8399H15.7313V12.0981H16.3386V12.6871H16.6004V12.9453H16.8622V13.2035H16.6004V14.2071H16.3386V14.549H16.6004V14.8035H16.8586V14.2071H17.1204V13.4471H17.3822V12.9417H17.124V12.6871H17.3822V12.349H17.6477V12.0908H17.9022V12.349H18.5095V11.8399H18.2477V11.5853H18.5095V11.3344H18.2477V11.0799H18.5095V10.8253H17.6404V10.2326H17.124V9.97805H16.8622V9.72351H16.6004V9.46896H16.3386V9.21442ZM16.6004 9.97805V10.2326H16.8622V9.97805H16.6004ZM16.6004 9.97805V9.72351H16.3386V9.97805H16.6004ZM17.3822 12.0908V11.8399H17.6477V12.0908H17.3822ZM17.124 12.0908H17.3822V12.349H17.124V12.0908ZM16.8622 11.8399H17.124V12.0908H16.8622V11.8399ZM16.8622 11.8399H16.3386V11.3308H16.6004V11.5853H16.8622V11.8399ZM17.124 12.349V12.6871H16.8622V12.349H17.124Z" fill="#FEEB95"/>
<path d="M15.4731 10.2326H15.7277V10.4871H15.2077V9.97805H15.4731V10.2326Z" fill="#FEEB95"/>
<path d="M17.3822 13.7017H17.6404V13.9562H17.3822V13.7017Z" fill="#FEEB95"/>
<path d="M17.9022 14.2108H17.6404V13.9562H17.9022V14.2108Z" fill="#FEEB95"/>
<path d="M17.9022 14.549V14.2108H18.2477V14.549H17.9022Z" fill="#FEEB95"/>
<path d="M17.9022 14.8035H17.6477V14.549H17.9022V14.8035Z" fill="#FEEB95"/>
<path d="M17.9022 14.8035H18.2477V15.0581H17.9022V14.8035Z" fill="#FEEB95"/>
<path d="M13.124 10.2326H13.8186V10.3999H13.124V10.2326Z" fill="#FEEB95"/>
<path d="M10.5168 12.9417H9.47312V13.1926H10.2586V13.4471H10.5168V12.9417Z" fill="#FEEB95"/>
<path fill-rule="evenodd" clip-rule="evenodd" d="M10.8659 13.7053H10.5168V13.9562H10.2586V15.8181H10.5204V16.0726H11.124V16.4108H11.3859V16.6653H11.9095V16.9199H12.1677V17.429H12.4295V16.9199H12.1677V16.6653H11.9095V16.4108H11.6477V16.0726H11.3859V15.5635H11.124V15.0544H10.8659V14.2071H11.124V13.9562H10.8659V13.7053ZM10.8659 13.9562V14.2071H10.5168V13.9562H10.8659Z" fill="#FEEB95"/>
<path d="M9.99676 14.7999H9.73858V15.0544H9.99676V14.7999Z" fill="#FEEB95"/>
<path d="M12.7749 17.1744H13.2986V17.4253H13.5604V17.1708H14.4295V16.9199H14.9495V16.6653H15.4731V16.4944H15.7313V17.4253H15.4695V17.6799H15.2113V17.4253H14.9459V17.6799H14.6877V17.4253H14.4259V17.6799H14.6877V17.9344H14.4259V18.2726H13.5604V18.5271H12.7749V18.2726H12.4295V17.9344H12.1677V17.6799H12.7749V17.1744Z" fill="#FEEB95"/>
<path d="M14.6877 18.2726V18.5271H14.4259V18.2726H14.6877Z" fill="#FEEB95"/>
<path d="M14.6877 18.2726H14.9459V17.9344H14.6877V18.2726Z" fill="#FEEB95"/>
<path d="M15.4695 18.5271H15.2113V18.7781H14.9459V19.0326H14.6877V19.2871H14.9459V19.0326H15.2113V19.2871H15.4695V19.0326H15.2113V18.7781H15.4695V18.5271Z" fill="#FEEB95"/>
<path d="M14.9495 15.8217H15.0368V16.4108H14.9495V15.8217Z" fill="#FEEB95"/>
<path d="M7.56403 12.9417H7.30222V13.1962H6.95312V13.4471H7.30222V13.7017H7.56403V13.4471H7.30222V13.1962H7.56403V12.9417Z" fill="#FEEB95"/>
<path d="M6 12.1783H7.30182V12.3492H6.95273V12.8546H6V12.1783Z" fill="#757582"/>
<path d="M8.25818 12.1783H7.82545V12.8546H8.25818V12.1783Z" fill="#757582"/>
<path d="M8.25818 12.9419H9.21091V13.6183H8.25818V12.9419Z" fill="#757582"/>
<path d="M17.2073 17.9346H16.4255V18.611H17.2073V17.9346Z" fill="#757582"/>
<path d="M17.2073 18.6946H17.9018V19.371H17.2073V18.6946Z" fill="#757582"/>
<path d="M18.6836 19.4546H17.9018V20.131H18.6836V19.4546Z" fill="#757582"/>
<path d="M18.6836 20.1346H19.4655V20.811H18.6836V20.1346Z" fill="#757582"/>
<path d="M20.16 20.8946H19.4655V21.571H20.16V20.8946Z" fill="#757582"/>
<path d="M20.16 21.6546H20.9418V22.3383H20.16V21.6546Z" fill="#757582"/>
<path d="M20.9418 22.3383H21.7236V23.0146H20.9418V22.3383Z" fill="#757582"/>
<path d="M21.7236 23.0983H22.4218V23.7746H21.7236V23.0983Z" fill="#757582"/>
<path d="M23.2 23.8583H22.4218V24.5346H23.2V25.211H23.9782V24.5346H23.2V23.8583Z" fill="#757582"/>
<path d="M23.9782 25.2983H25.8073V25.9746H23.9782V25.2983Z" fill="#757582"/>
<path d="M9.73455 13.1928H9.99636V13.6183H9.47273V13.4474H9.73455V13.1928Z" fill="#757582"/>
<path d="M11.4722 10.5673H10.6904V11.3309H11.4722V12.7709H12.9486V13.5345H13.7304V14.2073H14.4286V14.9709H15.2104V15.6473H15.905V16.3236H16.5995V17.0873H17.3813V17.76H18.0759V18.5236H18.8577V19.2873H19.6395V19.9636H20.3341V20.7273H21.1159V21.4873H21.8977V22.1636H22.5959V22.9309H23.3741V23.6909H24.1522V24.3673H24.8504V25.1309H25.6322V24.3673H24.8504V23.6909H24.1522V22.9273H23.3741V22.1636H22.5959V21.4873H21.8977V20.7273H21.1159V19.9636H20.3341V19.2873H19.6395V18.5236H18.8577V17.76H18.0759V17.0873H17.3813V16.3236H16.5995V15.6473H15.905V14.9709H15.2104V14.2073H14.4286V13.5345H13.7304V12.7709H12.9486V11.3309H11.4722V10.5673Z" fill="#615EE8"/>
<path d="M10.6909 11.3309V10.5673H11.4727V9.80727H9.90909V9.12727H9.21455V9.80727H9.90909V11.3309H10.6909Z" fill="#C6C6FF"/>
<path fill-rule="evenodd" clip-rule="evenodd" d="M12.3418 6H6V12.1782H8.25818V12.9418H10.5164V13.7055H12.7745V14.3782H13.5564V15.1418H14.2545V15.8218H15.0364V16.4945H15.7309V17.2582H16.4255V17.9345H17.2073V18.6945H17.9018V19.4545H18.6836V20.1345H19.4655V20.8945H20.16V21.6545H20.9418V22.3382H21.7236V23.0982H22.4218V23.8582H23.2V24.5345H23.9782V25.2982H25.8073V23.52H25.0255V22.7564H24.3273V21.9964H23.5491V21.3127H22.7709V20.56H22.0727V19.8H21.8982V19.7964H21.2909V19.12H20.5091V18.3564H19.8145V17.5927H19.0327V16.92H18.2509V16.1564H17.5564V15.48H16.7745V14.8036H16.08V14.04H15.3855V13.3673H14.6036V12.6036H13.9055V10.4H13.1236V8.20364H12.3418V6ZM25.6327 25.1309H24.1527V24.3673H23.3745V23.6909H22.5964V22.9309H21.8982V22.1636H21.1164V21.4873H20.3345V20.7273H19.64V19.9636H18.8582V19.2873H18.0764V18.5236H17.3818V17.76H16.6V17.0873H15.9055V16.3236H15.2109V15.6473H14.4291V14.9709H13.7309V14.2073H12.9491V13.5345H10.6909V12.7709H8.43273V12.0073H6.17455V6.17091H12.1673V8.37091H12.9491V10.5673H13.7309V12.7709H14.4291V13.5345H15.2109V14.2073H15.9055V14.9709H16.6V15.6473H17.3818V16.3236H18.0764V17.0873H18.8582V17.76H19.64V18.5236H20.3345V19.2873H21.1164V19.9636H21.8982V20.7273H22.5964V21.4873H23.3745V22.1636H24.1527V22.9273H24.8509V23.6909H25.6327V25.1309Z" fill="#C6C6FF"/>
<path d="M6.95662 10.5709H6.1748V12.0073H8.43299V12.7709H10.6912V13.5346H12.9494V14.2073H13.7312V14.9709H14.4294V15.6473H15.2112V16.3237H15.9057V17.0873H16.6003V17.76H17.3821V18.5237H18.0766V19.2873H18.8584V19.9637H19.6403V20.7273H20.3348V21.4873H21.1166V22.1637H21.8984V22.9309H22.5966V23.6909H23.3748V24.3673H24.153V25.1309H24.8512V24.3673H24.153V23.6909H23.3748V22.9309H22.5966V22.1637H21.8984V21.4873H21.1166V20.7273H20.3348V19.9637H19.6403V19.2873H18.8584V18.5237H18.0766V17.76H17.3821V17.0873H16.6003V16.3237H15.9057V15.6473H15.2112V14.9709H14.4294V14.2073H13.7312V13.5346H12.9494V12.7709H11.473V11.3309H10.6912V12.0073H9.2148V11.3309H6.95662V10.5709Z" fill="#3835C1"/>
<path fill-rule="evenodd" clip-rule="evenodd" d="M10.6911 6.1709H6.1748V10.5709H6.95662V6.9309H10.6911H10.6912H11.473V7.6109H8.43299V8.3709H7.65117V11.3309H9.2148V12.0073H10.6912V11.3309H9.90935V10.5709H8.43299V8.3709H10.6912V9.80363H11.473V10.5673H11.473V11.3309H12.9493V12.7709H13.7311V13.5345H14.4293V14.2073H15.2111V14.9709H15.9057V15.6473H16.6002V16.3236H17.382V17.0873H18.0766V17.76H18.8584V18.5236H19.6402V19.2873H20.3348V19.9636H21.1166V20.7273H21.8984V21.4873H22.5966V22.1636H23.3748V22.9273H24.153V23.6909H24.8511V24.3673H25.633V23.6909H24.8511V22.9273H24.153V22.1636H23.3748V21.4873H22.5966V20.7273H21.8984V19.9636H21.1166V19.2873H20.3348V18.5236H19.6402V17.76H18.8584V17.0873H18.0766V16.3236H17.382V15.6473H16.6002V14.9709H15.9057V14.2073H15.2111V13.5345H14.4293V12.7709H13.7311V10.5673H12.9493V8.3709H12.1675V6.1709H10.6912H10.6911Z" fill="#7774F9"/>
<path d="M6.95605 6.93079H11.4724V7.61079H8.43242V8.37079H7.6506V11.3308H6.95605V6.93079Z" fill="#9695F8"/>
<path d="M8.43242 8.37079H10.6906V9.80351H9.90878V9.12715H9.21424V9.80715H9.90878V10.5708H8.43242V8.37079Z" fill="#9695F8"/>
</g>
</g>
<defs>
<clipPath id="clip0_700_291814">
<rect width="32" height="32" fill="white"/>
</clipPath>
<clipPath id="clip1_700_291814">
<rect width="20" height="20" fill="white" transform="translate(6 6)"/>
</clipPath>
</defs>
</svg>
