<svg xmlns="http://www.w3.org/2000/svg" width="32" height="32" viewBox="0 0 32 32">
  <g fill="none" fill-rule="evenodd">
    <circle cx="16" cy="16" r="16" fill="#FFF"/>
    <g transform="translate(4 6.5)">
      <path fill="#82CBED" d="M18.0135077,6.9237268 L17.4376816,0.908471323 L12.1473618,0.908471323 C11.5241715,1.98732292 11.0040423,3.94899088 10.6624059,5.93434095 C10.4676864,7.06713512 10.3308564,8.20782333 10.266827,9.19633207 L11.7930073,9.19633207 C12.1995502,8.80557729 12.6473174,8.45780114 13.1363091,8.15300364 C14.1138539,7.54297007 15.1729704,7.15572375 16.3136586,6.99170322 C16.884222,6.90969296 17.4508384,6.88688797 18.0135077,6.9237268 Z"/>
      <path fill="#000" d="M21.9158275,13.8878872 C21.9158275,12.6012436 21.3829266,11.3146 20.4727542,10.4048278 C19.562982,9.49505551 18.2763384,8.96175454 16.9896948,8.96175454 C15.7030512,8.96175454 14.4164076,9.49505551 13.5062352,10.4048278 C12.596463,11.3146 12.0635621,12.6012436 12.0635621,13.8878872 C12.0635621,15.1745308 12.596463,16.4615745 13.5062352,17.3713468 C14.4164076,18.281119 15.7030512,18.8140199 16.9896948,18.8140199 C18.2763384,18.8140199 19.562982,18.281119 20.4727542,17.3713468 C21.3829266,16.4611744 21.9158275,15.1745308 21.9158275,13.8878872 Z"/>
      <path fill="#FFCD00" d="M19.4737651,13.8878872 C19.4737651,13.2389644 19.2049142,12.5900415 18.7464274,12.1315547 C18.2875405,11.6726678 17.6386176,11.4038169 16.9896948,11.4038169 C16.3407719,11.4038169 15.6918491,11.6726678 15.2329622,12.1315547 C14.7744754,12.5900415 14.5056245,13.2389644 14.5056245,13.8878872 C14.5056245,14.5368101 14.7744754,15.1857329 15.2329622,15.6446198 C15.6918491,16.1035067 16.3407719,16.3719575 16.9896948,16.3719575 C17.6386176,16.3719575 18.2875405,16.1035067 18.7464274,15.6446198 C19.2049142,15.1857329 19.4737651,14.5368101 19.4737651,13.8878872 Z"/>
      <path fill="#000" d="M18.0646983,13.8878872 C18.0646983,13.607034 17.9482763,13.3265809 17.7498387,13.1277433 C17.5514011,12.9293057 17.270548,12.8128837 16.9896948,12.8128837 C16.7088416,12.8128837 16.4279884,12.9293057 16.2295509,13.1277433 C16.0311133,13.3265809 15.9146912,13.607034 15.9146912,13.8878872 C15.9146912,14.1687404 16.0311133,14.4495936 16.2295509,14.6480311 C16.4279884,14.8464687 16.7088416,14.9628908 16.9896948,14.9628908 C17.270548,14.9628908 17.5514011,14.8464687 17.7498387,14.6480311 C17.9482763,14.4495936 18.0646983,14.1687404 18.0646983,13.8878872 Z"/>
      <g transform="translate(.785 11.512)">
        <path fill="#000" d="M7.37120665,4.03411746 C7.37120665,3.16233329 7.00991917,2.29054913 6.39380248,1.67401331 C5.77726666,1.05789661 4.90548249,0.696609138 4.03411746,0.696609138 C3.16233329,0.696609138 2.29054913,1.05789661 1.67401331,1.67401331 C1.05789661,2.29054913 0.696609138,3.16233329 0.696609138,4.03411746 C0.696609138,4.90548249 1.05789661,5.77726666 1.67401331,6.39380248 C2.29054913,7.0103383 3.16233329,7.37120665 4.03411746,7.37120665 C4.90548249,7.37120665 5.77726666,7.00991917 6.39380248,6.39380248 C7.00991917,5.77726666 7.37120665,4.90548249 7.37120665,4.03411746 Z"/>
        <path fill="#FFCD00" d="M5.16010215,4.03390789 C5.16010215,3.73968074 5.03813619,3.44587271 4.8302492,3.23756659 C4.6223622,3.0296796 4.32813505,2.90771364 4.03390789,2.90771364 C3.73968074,2.90771364 3.44545358,3.0296796 3.23756659,3.23756659 C3.0296796,3.44587271 2.90771364,3.73968074 2.90771364,4.03390789 C2.90771364,4.32813505 3.0296796,4.6223622 3.23756659,4.8302492 C3.44545358,5.03813619 3.73968074,5.16010215 4.03390789,5.16010215 C4.32813505,5.16010215 4.6223622,5.03813619 4.8302492,4.8302492 C5.03813619,4.6223622 5.16010215,4.32813505 5.16010215,4.03390789 Z"/>
      </g>
      <path fill="#FFCD00" stroke="#0B0B0B" d="M10.4691651,6.46028873 C10.3194584,7.45762975 10.223691,8.43203889 10.1946548,9.24253185 L10.1946548,9.24253185 L12.2523859,9.24253185 C12.6173029,8.86956786 13.0259527,8.54230536 13.4784502,8.26025527 C14.2682082,7.76740945 15.1238651,7.45454364 16.0454011,7.32203518 C16.5034844,7.25619231 16.9584176,7.23746357 17.4101274,7.26646734 C17.9714255,7.32327376 18.1993894,7.36004961 18.4212387,7.40937393 C19.0283096,7.56830999 19.3003973,7.66165909 19.5670729,7.77405661 C19.7782507,7.86306308 19.9834741,7.96227674 20.1827643,8.07167055 L20.304,8.142 L20.1481178,8.10719644 C19.9614918,8.06224457 19.780676,8.01398224 19.603924,7.96535872 L19.3416257,7.89252122 C18.8703781,7.76119121 18.4206161,7.63708296 17.963815,7.56572985 C16.6275722,7.35694192 15.2308661,7.59182794 14.0360721,8.21403038 C12.8412017,8.83585911 11.847943,9.84529556 11.252192,11.0595362 C10.7449113,12.0934595 10.5269629,13.2764371 10.6158241,14.4117002 L10.6158241,14.4117002 L9.45391008,14.4117002 C9.26370594,13.6451741 8.87712549,12.9130402 8.3394905,12.3236542 C7.70298904,11.6258443 6.85500265,11.1278902 5.94000681,10.9069117 C5.02503947,10.68594 4.04327609,10.7415902 3.15816781,11.0719625 C2.64936792,11.2618753 2.17244697,11.542794 1.75598499,11.8899675 C1.63071926,10.3380489 1.57763429,9.53563351 1.57086654,9.06207989 L1.57035901,8.90791354 C1.5725781,8.67144507 1.58977105,8.531646 1.61667355,8.4028983 C1.67864452,8.1065833 1.81823744,7.90493132 2.22699144,7.706306 C2.80778638,7.42425746 3.79814715,7.16702074 5.22654533,6.96317112 C5.59951174,6.9098902 6.00174899,6.86076929 6.46170128,6.8130861 L6.46170128,6.8130861 L7.72353985,6.69110704 C8.07506212,6.65965372 8.4580845,6.62803834 8.87922964,6.59327114 C9.09476988,6.57547744 9.32025643,6.5568625 9.55665323,6.53702319 L9.55665323,6.53702319 Z"/>
      <path fill="#000" d="M7.67897915 6.19309665L6.41359665 6.31540553 6.41359665 6.15613727C6.41359665 6.05211757 6.41016743 5.94504968 6.40330899 5.83493359 6.38921108 5.61393935 6.29052573 5.44247831 6.10610985 5.32016943 6.01390191 5.25920551 5.92321807 5.20243285 5.83329628 5.15061351L5.11811322 4.73796394C4.97827721 4.65718674 4.86701805 4.51392151 4.82320023 4.3538912 4.77976343 4.19347987 4.80376797 4.01668449 4.8864503 3.87341926 4.96913262 3.73053506 5.11049273 3.62118101 5.27090406 3.57850627 5.43131539 3.53621254 5.61115897 3.56136016 5.75099498 3.64175634L6.2280377 3.91761811C6.43683915 4.03764084 6.64906982 4.16528406 6.86472971 4.29940469 7.29490641 4.56688392 7.54714466 4.95286178 7.62182547 5.45771929 7.65916587 5.70919549 7.6782171 5.95419427 7.67897915 6.19309665zM9.51475538 6.03878172L11.0643822 5.90847132C11.3612003 4.18357323 11.8130954 2.47925047 12.3545313 1.5419301L16.9508303 1.5419301 17.4511155 6.76806268C17.5730434 6.77568317 17.6945902 6.78673289 17.816137 6.80083079 18.0588496 6.82940763 18.2996571 6.86979624 18.5381785 6.92313967 18.6574392 6.94943036 18.7759378 6.97915028 18.8936744 7.01153736L18.3095638 1.59146329C18.4562582 1.57584129 18.6014286 1.5015415 18.7039242 1.38952029 18.8357587 1.24549301 18.8963416 1.03859669 18.8429981.843893149 18.7778429.605371788 18.5412267.385139604 18.3095638.360373009L10.8029993.360373009C10.6475413.360373009 10.4859869.425147181 10.3709175.536025322 10.2562291.647284487 10.1884068.804647622 10.1842155.963534855 10.1800242 1.12280311 10.2398451 1.28321444 10.3488181 1.40018898 10.4577911 1.51678249 10.6159163 1.5899392 10.7713743 1.59794071 10.1624971 2.93190762 9.7433701 4.41218796 9.51475538 6.03878172z"/>
    </g>
  </g>
</svg>
