<?xml version="1.0" encoding="utf-8"?>
<!-- Generator: Adobe Illustrator 28.1.0, SVG Export Plug-In . SVG Version: 6.00 Build 0)  -->
<svg version="1.1" id="图层_1" xmlns="http://www.w3.org/2000/svg" xmlns:xlink="http://www.w3.org/1999/xlink" x="0px" y="0px"
	 viewBox="0 0 283.46 283.46" style="enable-background:new 0 0 283.46 283.46;" xml:space="preserve">
<style type="text/css">
	.st0{fill:#FAFAFA;}
	.st1{fill:#C7202E;}
</style>
<g>
	<circle class="st0" cx="140.71" cy="141.24" r="139.83"/>
	<path class="st1" d="M140.71,64.05c-42.6-0.01-77.15,34.52-77.16,77.13c-0.01,42.6,34.52,77.15,77.13,77.16
		s77.15-34.52,77.16-77.13c0-0.01,0-0.02,0-0.03C217.8,98.6,183.29,64.1,140.71,64.05z M140.71,208.57
		c-37.25,0-67.44-30.19-67.44-67.44s30.19-67.44,67.44-67.44c9.93-0.02,19.74,2.17,28.72,6.42c-1.13,1.55-2.96,3.42-5.21,2.91
		c-3.71-0.91-1.55-3.82-7.54-3.42c-5.99,0.4-18.17,9.28-18.01,12.04c0.15,2.75,2.04,2.96,4.74,2.96s3.57-0.6,4.24,1.28
		c0.67,1.89-2.29,5.6-4.75,5.86c-2.46,0.26-2.54-0.77-4.22-1.55c-1.89-1.19-4.3-1.19-6.19,0c-2.44,1.55-3.42,2.65-6.42,3.51
		c-3,0.87-9.55,1.38-9.28,2.71c0.26,1.33,3.27,7.6,9.53,6.28c6.27-1.32,9.28-1.38,10.93,1.38c1.64,2.75,7.6,9.53,10.35,9.53
		c2.67,0.06,4.93-1.98,5.15-4.64c0-2.44,1.89-6.78,6.19-6.78s3.53,1.38,3.09,3.51s-1.89,3.27-1.89,5.46s-3.51,4.64-5.97,5.46
		c-2.86,1.17-5.59,2.62-8.16,4.33c-2.71,1.55-6.79-1.07-9.55-3.09c-2.75-2.03-13-9.66-16.51-9.66s-19.03,3.84-22.04,17.7
		c-2.58,10.21,3.47,20.61,13.62,23.41c6.53,1.64,15.47-0.8,17.7,5.97c2.23,6.78,2.55,19.34,4.84,25.05
		c1.93,4.95,14.04,13.15,20.61,16.93c-4.59,0.86-9.25,1.3-13.93,1.33L140.71,208.57z M158.66,206.17c0,0,0.15-2.86,0-8.88
		c-0.15-6.02,2.8-18.57,8.53-24.48c5.73-5.91,9.53-16.88,7.91-19.03c-1.62-2.15-1.44-3.27-4.49-3.82c-3.05-0.56-5.46-0.56-5.46-3.42
		s0.82-6.89,5.46-5.35c3.42,1.27,7.02,2.03,10.66,2.24c4.43,0.42,2.44,1.33,7.13,1.33s8.93-0.46,10.51,1.11
		c1.58,1.58,2.66,6.02,3.57,7.35s1.55,2.75,4.09,2.55c-5.43,24.39-23.88,43.78-47.97,50.4H158.66z"/>
	<path class="st1" d="M88.01,72.58c37.86-29.18,92.21-22.14,121.39,15.72c23.58,30.59,24.03,73.11,1.11,104.2l15.47-0.31
		l29.29,29.28c44.35-63.21,29.06-150.4-34.15-194.75C172.92-7.11,108.71-7.11,60.51,26.71l27.85,27.85
		C88.36,54.57,88.01,72.58,88.01,72.58z"/>
	<path class="st1" d="M193.87,209.51c-37.74,29.32-92.1,22.5-121.42-15.24c-24.63-31.7-24.23-76.17,0.97-107.41l-17.39,0.31
		L27.77,58.9c-45.48,62.4-31.76,149.86,30.65,195.34c49.07,35.76,115.62,35.76,164.69,0l-29.49-29.48l0.26-15.21V209.51z"/>
</g>
<g>
</g>
<g>
</g>
<g>
</g>
<g>
</g>
<g>
</g>
</svg>
