<svg width="32" height="32" viewBox="0 0 32 32" fill="none" xmlns="http://www.w3.org/2000/svg">
<path d="M16 32C24.8366 32 32 24.8366 32 16C32 7.16344 24.8366 0 16 0C7.16344 0 0 7.16344 0 16C0 24.8366 7.16344 32 16 32Z" fill="#007CFF"/>
<path d="M7.9991 20.5838L11.0911 17.53C10.9916 17.0521 10.9375 16.5414 10.9375 16C10.9375 12.1817 13.6272 9.88889 16 9.88889C16.9585 9.88889 17.9686 10.263 18.8324 10.9606L11.325 18.3753C11.3246 18.3741 11.3242 18.3728 11.3237 18.3716L8.36379 21.295C9.95416 24.1206 12.7795 26 16 26C20.9706 26 25 21.5228 25 16C25 14.1931 24.5687 12.4982 23.8142 11.0353L20.7977 14.0146C20.9676 14.6192 21.0625 15.2827 21.0625 16C21.0625 19.8183 18.3728 22.1111 16 22.1111C14.9285 22.1111 13.7924 21.6436 12.8686 20.7792L23.1874 10.5878L23.185 10.5854L23.4255 10.3479C21.8035 7.72216 19.0828 6 16 6C11.0294 6 7 10.4772 7 16C7 17.6521 7.36059 19.2107 7.9991 20.5838Z" fill="white"/>
</svg>
