<?xml version="1.0" encoding="UTF-8"?>
<!DOCTYPE svg PUBLIC "-//W3C//DTD SVG 1.1//EN" "http://www.w3.org/Graphics/SVG/1.1/DTD/svg11.dtd">
<svg xmlns="http://www.w3.org/2000/svg" version="1.1" width="128px" height="128px" style="shape-rendering:geometricPrecision; text-rendering:geometricPrecision; image-rendering:optimizeQuality; fill-rule:evenodd; clip-rule:evenodd" xmlns:xlink="http://www.w3.org/1999/xlink">
<g><path style="opacity:0.969" fill="#a7b5ff" d="M 81.5,3.5 C 71.1786,2.86731 60.8453,2.53397 50.5,2.5C 60.9156,-0.256683 71.2489,0.0766504 81.5,3.5 Z"/></g>
<g><path style="opacity:1" fill="#2d45fd" d="M 67.5,7.5 C 77.9961,7.88531 87.3295,11.2186 95.5,17.5C 92.1667,16.1667 88.8333,14.8333 85.5,13.5C 83.7226,12.3995 81.7226,11.5662 79.5,11C 74.5374,10.7466 69.704,9.9133 65,8.5C 60.8901,8.70669 57.0568,9.70669 53.5,11.5C 51.2324,10.4557 48.8991,10.289 46.5,11C 41.7133,12.8932 37.0466,15.0598 32.5,17.5C 31.8933,17.3764 31.56,17.0431 31.5,16.5C 42.3516,9.19315 54.3516,6.19315 67.5,7.5 Z"/></g>
<g><path style="opacity:1" fill="#6494ff" d="M 50.5,2.5 C 60.8453,2.53397 71.1786,2.86731 81.5,3.5C 81.4701,4.49722 81.9701,5.16389 83,5.5C 88.6892,6.7054 93.5225,9.37207 97.5,13.5C 96.1931,14.865 96.1931,16.1984 97.5,17.5C 96.8333,17.5 96.1667,17.5 95.5,17.5C 87.3295,11.2186 77.9961,7.88531 67.5,7.5C 63.6877,6.67618 59.6877,6.17618 55.5,6C 57.3921,5.02655 59.3921,4.35989 61.5,4C 55.796,3.46985 50.1294,3.80318 44.5,5C 39.8677,7.15812 35.2011,8.99145 30.5,10.5C 36.3679,6.09381 43.0345,3.42714 50.5,2.5 Z"/></g>
<g><path style="opacity:1" fill="#3661fe" d="M 85.5,13.5 C 70.0664,13.9102 54.7331,14.9102 39.5,16.5C 36.5807,17.64 33.5807,18.4733 30.5,19C 26.3672,22.1311 22.5338,25.6311 19,29.5C 21.8516,24.1433 26.0182,19.81 31.5,16.5C 31.56,17.0431 31.8933,17.3764 32.5,17.5C 37.0466,15.0598 41.7133,12.8932 46.5,11C 48.8991,10.289 51.2324,10.4557 53.5,11.5C 57.0568,9.70669 60.8901,8.70669 65,8.5C 69.704,9.9133 74.5374,10.7466 79.5,11C 81.7226,11.5662 83.7226,12.3995 85.5,13.5 Z"/></g>
<g><path style="opacity:1" fill="#327afc" d="M 67.5,7.5 C 54.3516,6.19315 42.3516,9.19315 31.5,16.5C 26.0182,19.81 21.8516,24.1433 19,29.5C 22.5338,25.6311 26.3672,22.1311 30.5,19C 33.5807,18.4733 36.5807,17.64 39.5,16.5C 54.7331,14.9102 70.0664,13.9102 85.5,13.5C 88.8333,14.8333 92.1667,16.1667 95.5,17.5C 96.1667,17.5 96.8333,17.5 97.5,17.5C 104.608,22.9415 110.275,29.6081 114.5,37.5C 117.228,41.2987 118.228,45.2987 117.5,49.5C 116.455,44.3456 114.455,39.6789 111.5,35.5C 107.882,28.8818 102.882,23.5485 96.5,19.5C 91.9325,17.0601 86.9325,16.0601 81.5,16.5C 72.6487,16.7532 63.982,18.0866 55.5,20.5C 53.5711,20.4604 51.7378,20.1271 50,19.5C 48.1741,21.0738 46.0075,21.9071 43.5,22C 44.6956,22.6543 44.6956,23.1543 43.5,23.5C 41.8697,22.102 40.0363,21.102 38,20.5C 31.7978,21.0405 27.6312,24.2071 25.5,30C 23.6711,30.2735 22.1711,31.1068 21,32.5C 20.6667,32.1667 20.3333,31.8333 20,31.5C 18.6218,33.2134 16.9552,34.5467 15,35.5C 13.9562,37.7148 13.2895,40.0481 13,42.5C 10.5438,47.4028 9.54384,47.4028 10,42.5C 11.9125,38.3403 14.0791,34.3403 16.5,30.5C 14.8333,29.1667 13.1667,29.1667 11.5,30.5C 6.52274,38.1213 3.52274,46.4546 2.5,55.5C 1.83333,61.1667 1.16667,66.8333 0.5,72.5C 0.5,71.8333 0.166667,71.5 -0.5,71.5C -0.5,66.1667 -0.5,60.8333 -0.5,55.5C 2.59295,39.4891 10.2596,25.9891 22.5,15C 24.8171,12.8431 27.4838,11.3431 30.5,10.5C 35.2011,8.99145 39.8677,7.15812 44.5,5C 50.1294,3.80318 55.796,3.46985 61.5,4C 59.3921,4.35989 57.3921,5.02655 55.5,6C 59.6877,6.17618 63.6877,6.67618 67.5,7.5 Z"/></g>
<g><path style="opacity:1" fill="#099afe" d="M 96.5,19.5 C 102.882,23.5485 107.882,28.8818 111.5,35.5C 109.311,35.793 107.311,36.293 105.5,37C 105.957,36.586 106.291,36.086 106.5,35.5C 104.995,34.1585 104.328,32.4918 104.5,30.5C 103.167,30.5 101.833,30.5 100.5,30.5C 100.519,28.9397 100.852,27.4397 101.5,26C 100.681,24.6812 99.6815,23.5145 98.5,22.5C 89.6721,20.5526 81.0054,20.3859 72.5,22C 65.6702,25.0637 58.6702,27.2304 51.5,28.5C 50.8333,28.5 50.1667,28.5 49.5,28.5C 49.5263,27.1837 49.1929,25.6837 48.5,24C 50.433,23.7489 52.2663,23.2489 54,22.5C 57.2836,22.3867 60.6169,22.72 64,23.5C 68.7297,20.5347 73.8963,18.8681 79.5,18.5C 85.1516,19.1351 90.8182,19.4684 96.5,19.5 Z"/></g>
<g><path style="opacity:1" fill="#1a8afc" d="M 96.5,19.5 C 90.8182,19.4684 85.1516,19.1351 79.5,18.5C 73.8963,18.8681 68.7297,20.5347 64,23.5C 60.6169,22.72 57.2836,22.3867 54,22.5C 52.2663,23.2489 50.433,23.7489 48.5,24C 49.1929,25.6837 49.5263,27.1837 49.5,28.5C 49.5,29.8333 49.5,31.1667 49.5,32.5C 47.6921,33.9179 47.0254,35.9179 47.5,38.5C 45.1498,35.6512 43.1498,32.4845 41.5,29C 38.2397,28.2165 35.0731,28.3832 32,29.5C 31.5002,39.828 31.3335,50.1613 31.5,60.5C 30.6701,51.3423 30.1701,42.009 30,32.5C 29.6667,32.8333 29.3333,33.1667 29,33.5C 28.5001,44.8284 28.3335,56.1618 28.5,67.5C 27.5111,62.0247 27.1778,56.358 27.5,50.5C 27.1826,41.3373 23.8493,40.1707 17.5,47C 18.8331,48.8402 18.6665,49.3402 17,48.5C 16.8333,51.3333 15.3333,52.8333 12.5,53C 13.2583,54.3639 12.7583,55.5305 11,56.5C 10.6667,56.1667 10.3333,55.8333 10,55.5C 7.31644,61.1411 5.98311,60.8078 6,54.5C 4.85516,54.6191 3.68849,54.9524 2.5,55.5C 3.52274,46.4546 6.52274,38.1213 11.5,30.5C 13.1667,29.1667 14.8333,29.1667 16.5,30.5C 14.0791,34.3403 11.9125,38.3403 10,42.5C 9.54384,47.4028 10.5438,47.4028 13,42.5C 13.2895,40.0481 13.9562,37.7148 15,35.5C 16.9552,34.5467 18.6218,33.2134 20,31.5C 20.3333,31.8333 20.6667,32.1667 21,32.5C 22.1711,31.1068 23.6711,30.2735 25.5,30C 27.6312,24.2071 31.7978,21.0405 38,20.5C 40.0363,21.102 41.8697,22.102 43.5,23.5C 44.6956,23.1543 44.6956,22.6543 43.5,22C 46.0075,21.9071 48.1741,21.0738 50,19.5C 51.7378,20.1271 53.5711,20.4604 55.5,20.5C 63.982,18.0866 72.6487,16.7532 81.5,16.5C 86.9325,16.0601 91.9325,17.0601 96.5,19.5 Z"/></g>
<g><path style="opacity:1" fill="#f9fcfd" d="M 93.5,55.5 C 87.6878,61.192 80.6878,63.0253 72.5,61C 68.9612,59.0931 66.4612,56.2597 65,52.5C 64.5008,47.8452 64.3342,43.1785 64.5,38.5C 64.5,37.8333 64.5,37.1667 64.5,36.5C 69.0812,28.2221 76.0812,25.3888 85.5,28C 95.1577,32.919 98.3244,40.7523 95,51.5C 94.2086,52.745 93.7086,54.0783 93.5,55.5 Z"/></g>
<g><path style="opacity:1" fill="#f5f8fb" d="M 47.5,38.5 C 47.9867,39.4734 48.4867,40.4734 49,41.5C 49.498,38.5184 49.6646,35.5184 49.5,32.5C 49.5,31.1667 49.5,29.8333 49.5,28.5C 50.1667,28.5 50.8333,28.5 51.5,28.5C 54.5,28.5 57.5,28.5 60.5,28.5C 60.5,30.5 60.5,32.5 60.5,34.5C 60.6664,43.1731 60.4998,51.8397 60,60.5C 59.2828,61.0442 58.7828,61.7109 58.5,62.5C 55.5,62.5 52.5,62.5 49.5,62.5C 47.3037,57.7684 44.8037,53.1018 42,48.5C 41.501,52.8206 41.3343,57.1539 41.5,61.5C 40.609,62.1098 39.609,62.4431 38.5,62.5C 35.6122,63.0102 33.2789,62.3435 31.5,60.5C 31.3335,50.1613 31.5002,39.828 32,29.5C 35.0731,28.3832 38.2397,28.2165 41.5,29C 43.1498,32.4845 45.1498,35.6512 47.5,38.5 Z"/></g>
<g><path style="opacity:1" fill="#11a7fd" d="M 111.5,35.5 C 114.455,39.6789 116.455,44.3456 117.5,49.5C 120.429,57.4195 120.096,65.0861 116.5,72.5C 116.709,73.086 117.043,73.586 117.5,74C 116.158,76.015 115.658,78.1817 116,80.5C 116.915,79.6721 117.581,78.6721 118,77.5C 118.249,80.3919 119.416,82.7253 121.5,84.5C 121.06,87.3798 120.06,90.0465 118.5,92.5C 116.22,92.7463 114.22,92.7463 112.5,92.5C 115.155,89.206 116.655,85.5393 117,81.5C 115.337,83.1579 114.504,85.1579 114.5,87.5C 111.193,88.481 107.86,89.481 104.5,90.5C 102.279,89.884 101.612,88.7173 102.5,87C 100.833,86.1667 99.1667,85.3333 97.5,84.5C 96.4826,87.028 95.3159,87.028 94,84.5C 93.5034,82.1902 93.3367,79.8568 93.5,77.5C 93.0395,71.7101 90.0395,68.0434 84.5,66.5C 88.3951,65.6069 91.0618,63.2736 92.5,59.5C 92.8333,58.1667 93.1667,56.8333 93.5,55.5C 93.7086,54.0783 94.2086,52.745 95,51.5C 98.3244,40.7523 95.1577,32.919 85.5,28C 76.0812,25.3888 69.0812,28.2221 64.5,36.5C 63.8166,34.8235 62.4832,34.1568 60.5,34.5C 60.5,32.5 60.5,30.5 60.5,28.5C 57.5,28.5 54.5,28.5 51.5,28.5C 58.6702,27.2304 65.6702,25.0637 72.5,22C 81.0054,20.3859 89.6721,20.5526 98.5,22.5C 99.6815,23.5145 100.681,24.6812 101.5,26C 100.852,27.4397 100.519,28.9397 100.5,30.5C 101.833,30.5 103.167,30.5 104.5,30.5C 104.328,32.4918 104.995,34.1585 106.5,35.5C 106.291,36.086 105.957,36.586 105.5,37C 107.311,36.293 109.311,35.793 111.5,35.5 Z"/></g>
<g><path style="opacity:1" fill="#5aafff" d="M 81.5,3.5 C 99.3227,8.32557 112.323,18.9922 120.5,35.5C 119.883,35.3893 119.383,35.056 119,34.5C 117.6,35.748 116.1,36.748 114.5,37.5C 110.275,29.6081 104.608,22.9415 97.5,17.5C 96.1931,16.1984 96.1931,14.865 97.5,13.5C 93.5225,9.37207 88.6892,6.7054 83,5.5C 81.9701,5.16389 81.4701,4.49722 81.5,3.5 Z"/></g>
<g><path style="opacity:1" fill="#0a29ad" d="M 49.5,32.5 C 49.6646,35.5184 49.498,38.5184 49,41.5C 48.4867,40.4734 47.9867,39.4734 47.5,38.5C 47.0254,35.9179 47.6921,33.9179 49.5,32.5 Z"/></g>
<g><path style="opacity:1" fill="#8191a1" d="M 84.5,41.5 C 84.1667,41.5 83.8333,41.5 83.5,41.5C 82.8716,38.0451 80.8716,36.8785 77.5,38C 76.7476,38.6708 76.4142,39.5041 76.5,40.5C 76.1667,40.5 75.8333,40.5 75.5,40.5C 75.1547,37.512 76.488,36.1787 79.5,36.5C 82.8446,36.5112 84.5113,38.1779 84.5,41.5 Z"/></g>
<g><path style="opacity:1" fill="#3497f9" d="M 120.5,35.5 C 123.674,40.8445 126.007,46.5112 127.5,52.5C 127.5,55.5 127.5,58.5 127.5,61.5C 126.125,68.7195 124.625,76.0528 123,83.5C 122.617,84.056 122.117,84.3893 121.5,84.5C 119.416,82.7253 118.249,80.3919 118,77.5C 117.581,78.6721 116.915,79.6721 116,80.5C 115.658,78.1817 116.158,76.015 117.5,74C 117.043,73.586 116.709,73.086 116.5,72.5C 120.096,65.0861 120.429,57.4195 117.5,49.5C 118.228,45.2987 117.228,41.2987 114.5,37.5C 116.1,36.748 117.6,35.748 119,34.5C 119.383,35.056 119.883,35.3893 120.5,35.5 Z"/></g>
<g><path style="opacity:1" fill="#1b2d93" d="M 83.5,41.5 C 83.44,42.0431 83.1067,42.3764 82.5,42.5C 80.8273,40.9137 78.8273,40.2471 76.5,40.5C 76.4142,39.5041 76.7476,38.6708 77.5,38C 80.8716,36.8785 82.8716,38.0451 83.5,41.5 Z"/></g>
<g><path style="opacity:1" fill="#1b8dfd" d="M 60.5,34.5 C 62.4832,34.1568 63.8166,34.8235 64.5,36.5C 64.5,37.1667 64.5,37.8333 64.5,38.5C 63.6618,38.8417 63.3284,39.5084 63.5,40.5C 62.3244,46.6833 62.3244,53.0166 63.5,59.5C 61.8459,60.7503 60.1793,62.0837 58.5,63.5C 58.5,63.1667 58.5,62.8333 58.5,62.5C 58.7828,61.7109 59.2828,61.0442 60,60.5C 60.4998,51.8397 60.6664,43.1731 60.5,34.5 Z"/></g>
<g><path style="opacity:1" fill="#30aafb" d="M 75.5,40.5 C 75.8333,40.5 76.1667,40.5 76.5,40.5C 78.8273,40.2471 80.8273,40.9137 82.5,42.5C 83.1067,42.3764 83.44,42.0431 83.5,41.5C 83.8333,41.5 84.1667,41.5 84.5,41.5C 84.9569,45.5839 84.2902,49.4172 82.5,53C 79.3637,54.0405 76.8637,53.2072 75,50.5C 74.1925,46.9733 74.3592,43.6399 75.5,40.5 Z"/></g>
<g><path style="opacity:1" fill="#02bdff" d="M 102.5,48.5 C 105.114,48.5531 107.78,48.5531 110.5,48.5C 112.333,49.0521 114,49.8855 115.5,51C 115.167,51.3333 114.833,51.6667 114.5,52C 115.428,52.3879 116.095,53.0546 116.5,54C 115.385,55.2349 115.385,56.4016 116.5,57.5C 116.274,61.0997 114.608,63.7664 111.5,65.5C 107.019,64.1763 103.185,61.8429 100,58.5C 97.184,59.8833 95.684,58.8833 95.5,55.5C 95.8868,53.7257 96.5535,52.059 97.5,50.5C 98.6507,49.269 99.8173,49.269 101,50.5C 101.717,49.9558 102.217,49.2891 102.5,48.5 Z"/></g>
<g><path style="opacity:1" fill="#094bbc" d="M 31.5,60.5 C 33.2789,62.3435 35.6122,63.0102 38.5,62.5C 38.3713,64.2161 38.038,65.8828 37.5,67.5C 37.1667,67.5 36.8333,67.5 36.5,67.5C 33.8333,67.5 31.1667,67.5 28.5,67.5C 28.3335,56.1618 28.5001,44.8284 29,33.5C 29.3333,33.1667 29.6667,32.8333 30,32.5C 30.1701,42.009 30.6701,51.3423 31.5,60.5 Z"/></g>
<g><path style="opacity:1" fill="#12c4fe" d="M 63.5,59.5 C 64.9089,61.9717 66.5756,64.305 68.5,66.5C 67.5,66.5 66.5,66.5 65.5,66.5C 65.5,67.5 65.5,68.5 65.5,69.5C 65.1667,69.5 64.8333,69.5 64.5,69.5C 64.5654,69.0618 64.3988,68.7284 64,68.5C 61.0909,73.718 58.5909,73.3846 56.5,67.5C 57.6005,66.3951 58.2671,65.0618 58.5,63.5C 60.1793,62.0837 61.8459,60.7503 63.5,59.5 Z"/></g>
<g><path style="opacity:1" fill="#748498" d="M 64.5,38.5 C 64.3342,43.1785 64.5008,47.8452 65,52.5C 66.4612,56.2597 68.9612,59.0931 72.5,61C 80.6878,63.0253 87.6878,61.192 93.5,55.5C 93.1667,56.8333 92.8333,58.1667 92.5,59.5C 85.1498,64.1396 77.4831,64.6396 69.5,61C 66.8941,59.0616 65.0608,56.5616 64,53.5C 63.501,49.1794 63.3343,44.8461 63.5,40.5C 63.3284,39.5084 63.6618,38.8417 64.5,38.5 Z"/></g>
<g><path style="opacity:1" fill="#139dfc" d="M 41.5,61.5 C 44.3523,61.9361 46.0189,63.6027 46.5,66.5C 43.3915,66.2641 40.3915,66.5975 37.5,67.5C 38.038,65.8828 38.3713,64.2161 38.5,62.5C 39.609,62.4431 40.609,62.1098 41.5,61.5 Z"/></g>
<g><path style="opacity:1" fill="#144daa" d="M 58.5,62.5 C 58.5,62.8333 58.5,63.1667 58.5,63.5C 58.2671,65.0618 57.6005,66.3951 56.5,67.5C 55.1667,67.5 53.8333,67.5 52.5,67.5C 50.5648,66.8505 48.5648,66.5172 46.5,66.5C 46.0189,63.6027 44.3523,61.9361 41.5,61.5C 41.3343,57.1539 41.501,52.8206 42,48.5C 44.8037,53.1018 47.3037,57.7684 49.5,62.5C 52.5,62.5 55.5,62.5 58.5,62.5 Z"/></g>
<g><path style="opacity:1" fill="#0947a1" d="M 63.5,40.5 C 63.3343,44.8461 63.501,49.1794 64,53.5C 65.0608,56.5616 66.8941,59.0616 69.5,61C 77.4831,64.6396 85.1498,64.1396 92.5,59.5C 91.0618,63.2736 88.3951,65.6069 84.5,66.5C 79.1667,66.5 73.8333,66.5 68.5,66.5C 66.5756,64.305 64.9089,61.9717 63.5,59.5C 62.3244,53.0166 62.3244,46.6833 63.5,40.5 Z"/></g>
<g><path style="opacity:1" fill="#f6fcfe" d="M 46.5,66.5 C 48.5648,66.5172 50.5648,66.8505 52.5,67.5C 55.9415,69.6116 58.2748,72.6116 59.5,76.5C 59.7367,80.2733 59.2367,83.9399 58,87.5C 56.3292,89.2763 54.4959,89.6096 52.5,88.5C 51.9867,84.8791 50.9867,81.5458 49.5,78.5C 48.7585,75.8619 46.9251,74.5286 44,74.5C 41.2439,74.4235 40.0772,75.7569 40.5,78.5C 40.5,78.8333 40.5,79.1667 40.5,79.5C 39.2262,83.0742 39.3929,86.7409 41,90.5C 42.4443,92.1554 44.2776,92.822 46.5,92.5C 49.0972,92.7208 49.0972,93.2208 46.5,94C 41.9244,94.9501 38.9244,93.1167 37.5,88.5C 36.2243,87.3554 34.891,87.3554 33.5,88.5C 32.3561,85.7521 33.3561,83.9187 36.5,83C 35.1095,81.98 33.6095,81.1466 32,80.5C 31.5034,78.1902 31.3367,75.8568 31.5,73.5C 33.1667,71.5 34.8333,69.5 36.5,67.5C 36.8333,67.5 37.1667,67.5 37.5,67.5C 40.3915,66.5975 43.3915,66.2641 46.5,66.5 Z"/></g>
<g><path style="opacity:1" fill="#e9f8fa" d="M 68.5,66.5 C 73.8333,66.5 79.1667,66.5 84.5,66.5C 90.0395,68.0434 93.0395,71.7101 93.5,77.5C 91.9458,78.9142 90.6125,80.5808 89.5,82.5C 90.8149,84.3159 92.3149,85.9825 94,87.5C 94.4955,89.4727 94.6621,91.4727 94.5,93.5C 92.628,96.5287 89.9614,98.6954 86.5,100C 80.1667,100.667 73.8333,100.667 67.5,100C 67,99.5 66.5,99 66,98.5C 65.5002,88.8391 65.3335,79.1724 65.5,69.5C 65.5,68.5 65.5,67.5 65.5,66.5C 66.5,66.5 67.5,66.5 68.5,66.5 Z"/></g>
<g><path style="opacity:1" fill="#788b9c" d="M 82.5,78.5 C 82.5858,77.5041 82.2524,76.6708 81.5,76C 79.5273,75.5045 77.5273,75.3379 75.5,75.5C 75.5,76.8333 75.5,78.1667 75.5,79.5C 74.5386,77.7354 74.2053,75.7354 74.5,73.5C 77.6492,73.2114 80.6492,73.7114 83.5,75C 84.7996,76.5788 84.4663,77.7455 82.5,78.5 Z"/></g>
<g><path style="opacity:1" fill="#27a9fe" d="M 27.5,50.5 C 26.8386,49.2825 26.1719,47.9492 25.5,46.5C 21.4092,49.0834 18.2425,52.0834 16,55.5C 15.3162,56.7839 15.4829,57.9505 16.5,59C 14.3424,60.3117 14.0091,61.9783 15.5,64C 17.1667,65 18.8333,66 20.5,67C 19.1667,68 19.1667,69 20.5,70C 19.2624,69.9227 18.2624,70.0894 17.5,70.5C 18.5,71.8333 19.5,73.1667 20.5,74.5C 16.9539,75.5706 16.9539,77.0706 20.5,79C 19.9288,80.2051 19.2621,81.3717 18.5,82.5C 14.6783,80.8034 12.845,82.1367 13,86.5C 12,85.1667 11,83.8333 10,82.5C 9.40544,83.8989 9.57211,85.2322 10.5,86.5C 9.83333,86.8333 9.16667,87.1667 8.5,87.5C 9.74721,89.323 10.4139,91.323 10.5,93.5C 3.39039,81.9623 0.723727,69.2956 2.5,55.5C 3.68849,54.9524 4.85516,54.6191 6,54.5C 5.98311,60.8078 7.31644,61.1411 10,55.5C 10.3333,55.8333 10.6667,56.1667 11,56.5C 12.7583,55.5305 13.2583,54.3639 12.5,53C 15.3333,52.8333 16.8333,51.3333 17,48.5C 18.6665,49.3402 18.8331,48.8402 17.5,47C 23.8493,40.1707 27.1826,41.3373 27.5,50.5 Z"/></g>
<g><path style="opacity:1" fill="#02417e" d="M 82.5,78.5 C 80.283,79.3686 77.9496,79.702 75.5,79.5C 75.5,78.1667 75.5,76.8333 75.5,75.5C 77.5273,75.3379 79.5273,75.5045 81.5,76C 82.2524,76.6708 82.5858,77.5041 82.5,78.5 Z"/></g>
<g><path style="opacity:1" fill="#6d8092" d="M 82.5,91.5 C 82.5858,90.5041 82.2524,89.6708 81.5,89C 79.5273,88.5045 77.5273,88.3379 75.5,88.5C 75.5,89.8333 75.5,91.1667 75.5,92.5C 77.5,92.5 79.5,92.5 81.5,92.5C 79.3926,93.4682 77.0593,93.8016 74.5,93.5C 74.5,91.1667 74.5,88.8333 74.5,86.5C 78.3839,86.024 81.7173,87.024 84.5,89.5C 84.1445,90.5223 83.4778,91.189 82.5,91.5 Z"/></g>
<g><path style="opacity:1" fill="#084877" d="M 82.5,91.5 C 82.5,92.1667 82.1667,92.5 81.5,92.5C 79.5,92.5 77.5,92.5 75.5,92.5C 75.5,91.1667 75.5,89.8333 75.5,88.5C 77.5273,88.3379 79.5273,88.5045 81.5,89C 82.2524,89.6708 82.5858,90.5041 82.5,91.5 Z"/></g>
<g><path style="opacity:1" fill="#3f78d2" d="M 2.5,55.5 C 0.723727,69.2956 3.39039,81.9623 10.5,93.5C 13.3212,99.6631 17.3212,104.996 22.5,109.5C 21.8333,109.5 21.1667,109.5 20.5,109.5C 9.38664,99.6089 2.71997,87.2756 0.5,72.5C 1.16667,66.8333 1.83333,61.1667 2.5,55.5 Z"/></g>
<g><path style="opacity:1" fill="#30343f" d="M 127.5,61.5 C 127.5,65.8333 127.5,70.1667 127.5,74.5C 118.608,106.539 97.4411,123.872 64,126.5C 61.3097,126.497 58.8097,126.164 56.5,125.5C 61.9349,124.877 67.2683,124.21 72.5,123.5C 84.5087,122.286 94.8421,117.619 103.5,109.5C 106.056,108.457 108.223,106.79 110,104.5C 113.441,100.898 116.275,96.8982 118.5,92.5C 120.06,90.0465 121.06,87.3798 121.5,84.5C 122.117,84.3893 122.617,84.056 123,83.5C 124.625,76.0528 126.125,68.7195 127.5,61.5 Z"/></g>
<g><path style="opacity:1" fill="#1a6298" d="M 64.5,69.5 C 64.8333,69.5 65.1667,69.5 65.5,69.5C 65.3335,79.1724 65.5002,88.8391 66,98.5C 66.5,99 67,99.5 67.5,100C 73.8333,100.667 80.1667,100.667 86.5,100C 89.9614,98.6954 92.628,96.5287 94.5,93.5C 94.1544,97.3766 92.9878,101.043 91,104.5C 89.786,106.049 88.286,107.215 86.5,108C 78.754,108.798 71.0873,108.631 63.5,107.5C 63.2051,94.7836 63.5385,82.117 64.5,69.5 Z"/></g>
<g><path style="opacity:1" fill="#13acf7" d="M 27.5,50.5 C 27.1778,56.358 27.5111,62.0247 28.5,67.5C 31.1667,67.5 33.8333,67.5 36.5,67.5C 34.8333,69.5 33.1667,71.5 31.5,73.5C 30.3263,74.5137 29.6596,75.847 29.5,77.5C 28.7784,77.9175 28.2784,78.5842 28,79.5C 27.067,85.8211 26.7336,92.1544 27,98.5C 31.0336,108.146 38.2003,111.312 48.5,108C 54.8263,103.84 58.493,98.0066 59.5,90.5C 60.8333,85.8333 60.8333,81.1667 59.5,76.5C 58.2748,72.6116 55.9415,69.6116 52.5,67.5C 53.8333,67.5 55.1667,67.5 56.5,67.5C 58.5909,73.3846 61.0909,73.718 64,68.5C 64.3988,68.7284 64.5654,69.0618 64.5,69.5C 63.5385,82.117 63.2051,94.7836 63.5,107.5C 63.8186,109.75 63.3186,111.75 62,113.5C 53.8551,111.76 45.6884,111.093 37.5,111.5C 36.391,111.443 35.391,111.11 34.5,110.5C 25.5252,105.024 18.3585,97.6909 13,88.5C 16.124,96.9869 21.624,103.82 29.5,109C 28.0267,109.71 27.3601,110.876 27.5,112.5C 25.9991,111.248 24.3325,110.248 22.5,109.5C 17.3212,104.996 13.3212,99.6631 10.5,93.5C 10.4139,91.323 9.74721,89.323 8.5,87.5C 9.16667,87.1667 9.83333,86.8333 10.5,86.5C 9.57211,85.2322 9.40544,83.8989 10,82.5C 11,83.8333 12,85.1667 13,86.5C 12.845,82.1367 14.6783,80.8034 18.5,82.5C 19.2621,81.3717 19.9288,80.2051 20.5,79C 16.9539,77.0706 16.9539,75.5706 20.5,74.5C 19.5,73.1667 18.5,71.8333 17.5,70.5C 18.2624,70.0894 19.2624,69.9227 20.5,70C 19.1667,69 19.1667,68 20.5,67C 18.8333,66 17.1667,65 15.5,64C 14.0091,61.9783 14.3424,60.3117 16.5,59C 15.4829,57.9505 15.3162,56.7839 16,55.5C 18.2425,52.0834 21.4092,49.0834 25.5,46.5C 26.1719,47.9492 26.8386,49.2825 27.5,50.5 Z"/></g>
<g><path style="opacity:1" fill="#1e6baa" d="M 29.5,77.5 C 27.1941,87.2915 30.1941,94.7915 38.5,100C 48.4017,102.71 55.4017,99.5429 59.5,90.5C 58.493,98.0066 54.8263,103.84 48.5,108C 38.2003,111.312 31.0336,108.146 27,98.5C 26.7336,92.1544 27.067,85.8211 28,79.5C 28.2784,78.5842 28.7784,77.9175 29.5,77.5 Z"/></g>
<g><path style="opacity:1" fill="#d0f3f9" d="M 31.5,73.5 C 31.3367,75.8568 31.5034,78.1902 32,80.5C 33.6095,81.1466 35.1095,81.98 36.5,83C 33.3561,83.9187 32.3561,85.7521 33.5,88.5C 34.891,87.3554 36.2243,87.3554 37.5,88.5C 38.9244,93.1167 41.9244,94.9501 46.5,94C 49.0972,93.2208 49.0972,92.7208 46.5,92.5C 46.8333,91.8333 47.1667,91.1667 47.5,90.5C 48.2216,90.0825 48.7216,89.4158 49,88.5C 49.4983,85.1832 49.665,81.8499 49.5,78.5C 50.9867,81.5458 51.9867,84.8791 52.5,88.5C 54.4959,89.6096 56.3292,89.2763 58,87.5C 59.2367,83.9399 59.7367,80.2733 59.5,76.5C 60.8333,81.1667 60.8333,85.8333 59.5,90.5C 55.4017,99.5429 48.4017,102.71 38.5,100C 30.1941,94.7915 27.1941,87.2915 29.5,77.5C 29.6596,75.847 30.3263,74.5137 31.5,73.5 Z"/></g>
<g><path style="opacity:1" fill="#1e99e8" d="M 40.5,79.5 C 42.6397,80.9683 44.8064,82.635 47,84.5C 47.4955,86.4727 47.6621,88.4727 47.5,90.5C 47.1667,91.1667 46.8333,91.8333 46.5,92.5C 44.2776,92.822 42.4443,92.1554 41,90.5C 39.3929,86.7409 39.2262,83.0742 40.5,79.5 Z"/></g>
<g><path style="opacity:1" fill="#0b549c" d="M 49.5,78.5 C 49.665,81.8499 49.4983,85.1832 49,88.5C 48.7216,89.4158 48.2216,90.0825 47.5,90.5C 47.6621,88.4727 47.4955,86.4727 47,84.5C 44.8064,82.635 42.6397,80.9683 40.5,79.5C 40.5,79.1667 40.5,78.8333 40.5,78.5C 43.4222,75.966 46.4222,75.966 49.5,78.5 Z"/></g>
<g><path style="opacity:1" fill="#6e8096" d="M 49.5,78.5 C 46.4222,75.966 43.4222,75.966 40.5,78.5C 40.0772,75.7569 41.2439,74.4235 44,74.5C 46.9251,74.5286 48.7585,75.8619 49.5,78.5 Z"/></g>
<g><path style="opacity:1" fill="#15a7e8" d="M 93.5,77.5 C 93.3367,79.8568 93.5034,82.1902 94,84.5C 95.3159,87.028 96.4826,87.028 97.5,84.5C 99.1667,85.3333 100.833,86.1667 102.5,87C 101.612,88.7173 102.279,89.884 104.5,90.5C 107.86,89.481 111.193,88.481 114.5,87.5C 114.504,85.1579 115.337,83.1579 117,81.5C 116.655,85.5393 115.155,89.206 112.5,92.5C 114.22,92.7463 116.22,92.7463 118.5,92.5C 116.275,96.8982 113.441,100.898 110,104.5C 108.223,106.79 106.056,108.457 103.5,109.5C 102.068,107.201 102.734,105.535 105.5,104.5C 105.291,103.914 104.957,103.414 104.5,103C 106.959,100.892 108.459,98.3921 109,95.5C 106.665,98.6653 104.165,101.665 101.5,104.5C 93.0824,110.539 83.7491,114.705 73.5,117C 66.1667,117.667 58.8333,117.667 51.5,117C 46.4185,115.95 41.7519,114.116 37.5,111.5C 45.6884,111.093 53.8551,111.76 62,113.5C 63.3186,111.75 63.8186,109.75 63.5,107.5C 71.0873,108.631 78.754,108.798 86.5,108C 88.286,107.215 89.786,106.049 91,104.5C 92.9878,101.043 94.1544,97.3766 94.5,93.5C 94.6621,91.4727 94.4955,89.4727 94,87.5C 92.3149,85.9825 90.8149,84.3159 89.5,82.5C 90.6125,80.5808 91.9458,78.9142 93.5,77.5 Z"/></g>
<g><path style="opacity:1" fill="#41aadb" d="M 34.5,110.5 C 33.2617,110.81 33.2617,111.31 34.5,112C 56.6184,122.994 77.9517,121.66 98.5,108C 99.7101,106.961 100.71,105.794 101.5,104.5C 104.165,101.665 106.665,98.6653 109,95.5C 108.459,98.3921 106.959,100.892 104.5,103C 104.957,103.414 105.291,103.914 105.5,104.5C 102.734,105.535 102.068,107.201 103.5,109.5C 94.8421,117.619 84.5087,122.286 72.5,123.5C 55.8612,125.923 40.8612,122.256 27.5,112.5C 27.3601,110.876 28.0267,109.71 29.5,109C 21.624,103.82 16.124,96.9869 13,88.5C 18.3585,97.6909 25.5252,105.024 34.5,110.5 Z"/></g>
<g><path style="opacity:1" fill="#64e9fb" d="M 101.5,104.5 C 100.71,105.794 99.7101,106.961 98.5,108C 77.9517,121.66 56.6184,122.994 34.5,112C 33.2617,111.31 33.2617,110.81 34.5,110.5C 35.391,111.11 36.391,111.443 37.5,111.5C 41.7519,114.116 46.4185,115.95 51.5,117C 58.8333,117.667 66.1667,117.667 73.5,117C 83.7491,114.705 93.0824,110.539 101.5,104.5 Z"/></g>
<g><path style="opacity:0.816" fill="#2d588c" d="M 20.5,109.5 C 21.1667,109.5 21.8333,109.5 22.5,109.5C 24.3325,110.248 25.9991,111.248 27.5,112.5C 40.8612,122.256 55.8612,125.923 72.5,123.5C 67.2683,124.21 61.9349,124.877 56.5,125.5C 42.4746,124.483 30.4746,119.149 20.5,109.5 Z"/></g>
</svg>
