<svg width="32" height="32" viewBox="0 0 32 32" fill="none" xmlns="http://www.w3.org/2000/svg">
<path d="M0 16C0 7.16344 7.16344 0 16 0V0C24.8366 0 32 7.16344 32 16V16C32 24.8366 24.8366 32 16 32V32C7.16344 32 0 24.8366 0 16V16Z" fill="white"/>
<rect x="7" y="7" width="18" height="18" rx="9" fill="black"/>
<path d="M12.2525 9.8125L10.9375 11.1196L12.7636 12.9348C12.6661 13.1792 12.6174 13.4429 12.6174 13.7258C12.6174 14.7266 13.2286 15.5134 14.4511 16.0858C14.8269 16.263 15.3107 16.4462 15.9026 16.6357C16.4944 16.8252 16.9069 17.0085 17.1402 17.1856C17.3778 17.3627 17.4966 17.6098 17.4966 17.927C17.4966 18.207 17.3864 18.4253 17.1661 18.5819C16.9501 18.7342 16.6542 18.8104 16.2784 18.8104C15.6909 18.8104 15.2654 18.6972 15.0019 18.4707C14.7427 18.24 14.6131 17.8837 14.6131 17.4018H12.3323C12.3323 17.9949 12.4878 18.5201 12.7988 18.9772C12.8061 18.9877 12.8134 18.9981 12.8208 19.0084L10.9375 20.8804L12.2525 22.1875L14.3428 20.1097C14.9273 20.3309 15.5725 20.4415 16.2784 20.4415C16.8507 20.4415 17.3587 20.379 17.8022 20.2539L19.7475 22.1875L21.0625 20.8804L19.3891 19.217C19.6436 18.852 19.7709 18.4179 19.7709 17.9146C19.7709 16.9302 19.2612 16.1579 18.2417 15.5978C17.8227 15.3671 17.287 15.1529 16.6348 14.9552C15.9825 14.7534 15.5267 14.5598 15.2676 14.3745C15.0084 14.185 14.8787 13.9749 14.8787 13.7443C14.8787 13.4807 14.9954 13.2645 15.2287 13.0956C15.4662 12.9226 15.7881 12.8361 16.1942 12.8361C16.5959 12.8361 16.9134 12.937 17.1466 13.1389C17.3843 13.3406 17.503 13.6248 17.503 13.9914H19.7709C19.7709 13.5248 19.6628 13.103 19.4465 12.726L21.0625 11.1196L19.7475 9.8125L18.0232 11.5265C17.4983 11.3081 16.9059 11.1989 16.246 11.1989C15.5505 11.1989 14.9241 11.306 14.3669 11.5202C14.2702 11.5566 14.1773 11.5956 14.0882 11.6373L12.2525 9.8125Z" fill="white"/>
<path fill-rule="evenodd" clip-rule="evenodd" d="M11.855 3.38363C13.3455 2.89371 14.9385 2.66971 16.5164 2.73019C18.0946 2.79067 19.6582 3.13595 21.1132 3.74395C22.5686 4.35195 23.9154 5.22299 25.0678 6.29755C26.5919 7.71931 27.7753 9.49755 28.485 11.4867C29.1951 13.4761 29.4316 15.6764 29.1577 17.7711C28.8841 19.8659 28.1001 21.8553 26.9142 23.566C25.7282 25.2767 24.1401 26.7084 22.2748 27.7004C20.4095 28.6921 18.2665 29.2438 16.1542 29.2758C14.0418 29.3078 11.9599 28.8204 10.0953 27.895C8.23095 26.9695 6.58359 25.6063 5.33271 23.9036C4.08183 22.2009 3.22743 20.1587 2.88823 18.0748C2.54903 15.9907 2.72503 13.8646 3.37495 11.8812C3.86615 10.3817 4.62839 8.96411 5.60503 7.73563H4.12055V5.28187H9.93719V10.7135H7.48343V9.22939C6.68343 10.2355 6.05879 11.3967 5.65655 12.6255C5.12439 14.2511 4.98103 15.9951 5.25655 17.6969C5.59895 19.8137 6.58903 21.8649 8.06679 23.4457C9.83447 25.3363 12.2998 26.5542 14.8662 26.8207C17.4322 27.0873 20.0994 26.4028 22.2175 24.9286C24.3356 23.4543 25.9052 21.1903 26.5423 18.6899C27.1794 16.1894 26.8841 13.4524 25.7353 11.142C24.5865 8.83163 22.5839 6.94843 20.1894 5.95899C17.7948 4.96923 15.0079 4.87387 12.6041 5.66363L11.855 3.38363Z" fill="url(#paint0_linear_144_577491)"/>
<path fill-rule="evenodd" clip-rule="evenodd" d="M32 25C32 24.0838 31.8177 23.1677 31.4672 22.3212C31.1166 21.4748 30.5976 20.6981 29.9497 20.0503C29.3019 19.4024 28.5252 18.8834 27.6788 18.5328C26.8323 18.1823 25.9162 18 25 18C24.0838 18 23.1677 18.1823 22.3212 18.5328C21.4748 18.8834 20.6981 19.4024 20.0503 20.0503C19.4024 20.6981 18.8834 21.4748 18.5328 22.3212C18.1823 23.1677 18 24.0838 18 25C18 25.9162 18.1823 26.8323 18.5328 27.6788C18.8834 28.5252 19.4024 29.3019 20.0503 29.9497C20.6981 30.5976 21.4748 31.1166 22.3212 31.4672C23.1677 31.8177 24.0838 32 25 32C25.9162 32 26.8323 31.8177 27.6788 31.4672C28.5252 31.1166 29.3019 30.5976 29.9497 29.9497C30.5976 29.3019 31.1166 28.5252 31.4672 27.6788C31.8177 26.8323 32 25.9162 32 25Z" fill="white"/>
<path fill-rule="evenodd" clip-rule="evenodd" d="M21.9375 24.8746L24.9988 19.75L28.0608 24.8746L24.9988 26.7003L21.9375 24.8746ZM24.9988 29.8125L21.9375 25.4605L24.9988 27.2852L28.0625 25.4605L24.9988 29.8125Z" fill="black"/>
<defs>
<linearGradient id="paint0_linear_144_577491" x1="2.04365" y1="13.2971" x2="15.2224" y2="29.5764" gradientUnits="userSpaceOnUse">
<stop stop-color="#004CFF"/>
<stop offset="0.252131" stop-color="#00E0FB"/>
<stop offset="0.505709" stop-color="#87FF70"/>
<stop offset="0.755054" stop-color="#F8F500"/>
<stop offset="1" stop-color="#FF1A00"/>
</linearGradient>
</defs>
</svg>
