<svg width="32" height="32" viewBox="0 0 32 32" fill="none" xmlns="http://www.w3.org/2000/svg">
<path d="M0 16C0 7.16344 7.16344 0 16 0C24.8366 0 32 7.16344 32 16C32 24.8366 24.8366 32 16 32C7.16344 32 0 24.8366 0 16Z" fill="white"/>
<path d="M9.3377 4.5L7 6.92931L10.2463 10.303C10.0731 10.7573 9.98645 11.2473 9.98645 11.7731C9.98645 13.6333 11.0731 15.0955 13.2464 16.1595C13.9145 16.4887 14.7746 16.8294 15.8268 17.1815C16.8789 17.5337 17.6123 17.8743 18.0269 18.2035C18.4494 18.5326 18.6606 18.992 18.6606 19.5814C18.6606 20.102 18.4647 20.5076 18.0731 20.7986C17.6891 21.0818 17.163 21.2234 16.4949 21.2234C15.4504 21.2234 14.694 21.0129 14.2256 20.5919C13.7648 20.1632 13.5344 19.501 13.5344 18.6054H9.47956C9.47956 19.7078 9.75601 20.6838 10.309 21.5335C10.3219 21.5529 10.3349 21.5722 10.3481 21.5913L7 25.0707L9.3377 27.5L13.0539 23.6382C14.0929 24.0493 15.24 24.2549 16.4949 24.2549C17.5124 24.2549 18.4154 24.1387 19.204 23.9062L22.6623 27.5L25 25.0707L22.0251 21.9791C22.4776 21.3006 22.7039 20.4938 22.7039 19.5585C22.7039 17.7289 21.7976 16.2935 19.9853 15.2524C19.2404 14.8238 18.2881 14.4257 17.1285 14.0582C15.9688 13.6831 15.1586 13.3233 14.6979 12.9789C14.2371 12.6267 14.0066 12.2363 14.0066 11.8076C14.0066 11.3177 14.2141 10.9158 14.6288 10.6019C15.0511 10.2804 15.6233 10.1196 16.3452 10.1196C17.0594 10.1196 17.6238 10.3072 18.0385 10.6823C18.4609 11.0573 18.6721 11.5856 18.6721 12.2669H22.7039C22.7039 11.3996 22.5116 10.6156 22.1271 9.91494L25 6.92931L22.6623 4.5L19.5969 7.68557C18.6637 7.27971 17.6105 7.07672 16.4373 7.07672C15.2009 7.07672 14.0874 7.27572 13.0967 7.67383C12.9249 7.74156 12.7597 7.81411 12.6013 7.89149L9.3377 4.5Z" fill="black"/>
<path d="M20 26C20 22.6863 22.6863 20 26 20C29.3137 20 32 22.6863 32 26C32 29.3137 29.3137 32 26 32C22.6863 32 20 29.3137 20 26Z" fill="black"/>
<path d="M23.5016 21.6875L22.625 22.5985L23.8424 23.8636C23.7774 24.034 23.7449 24.2177 23.7449 24.4149C23.7449 25.1125 24.1524 25.6608 24.9674 26.0598C25.2179 26.1833 25.5405 26.311 25.935 26.4431C26.3296 26.5751 26.6046 26.7029 26.7601 26.8263C26.9185 26.9497 26.9977 27.122 26.9977 27.343C26.9977 27.5382 26.9243 27.6904 26.7774 27.7995C26.6334 27.9057 26.4361 27.9588 26.1856 27.9588C25.7939 27.9588 25.5103 27.8798 25.3346 27.722C25.1618 27.5612 25.0754 27.3129 25.0754 26.977H23.5548C23.5548 27.3904 23.6585 27.7564 23.8659 28.075C23.8707 28.0823 23.8756 28.0896 23.8806 28.0968L22.625 29.4015L23.5016 30.3125L24.8952 28.8643C25.2848 29.0185 25.715 29.0956 26.1856 29.0956C26.5671 29.0956 26.9058 29.052 27.2015 28.9648L28.4984 30.3125L29.375 29.4015L28.2594 28.2421C28.4291 27.9877 28.5139 27.6852 28.5139 27.3344C28.5139 26.6483 28.1741 26.1101 27.4945 25.7196C27.2151 25.5589 26.858 25.4096 26.4232 25.2718C25.9883 25.1312 25.6845 24.9962 25.5117 24.8671C25.3389 24.735 25.2525 24.5886 25.2525 24.4279C25.2525 24.2441 25.3303 24.0934 25.4858 23.9757C25.6442 23.8552 25.8587 23.7948 26.1294 23.7948C26.3973 23.7948 26.6089 23.8652 26.7644 24.0059C26.9228 24.1465 27.002 24.3446 27.002 24.6001H28.5139C28.5139 24.2748 28.4418 23.9809 28.2976 23.7181L29.375 22.5985L28.4984 21.6875L27.3488 22.8821C26.9989 22.7299 26.6039 22.6538 26.164 22.6538C25.7003 22.6538 25.2828 22.7284 24.9113 22.8777C24.8468 22.9031 24.7849 22.9303 24.7255 22.9593L23.5016 21.6875Z" fill="white"/>
<circle cx="26" cy="6" r="6" fill="#0C0C0C"/>
<path d="M22 6.11511V6.09651C22.0084 6.0706 22.0151 6.04371 22.0198 6.01667L22.2419 3.93853C22.2456 3.8959 22.2596 3.85502 22.2826 3.82002C22.5364 3.47396 22.7922 3.12971 23.0499 2.78723C23.0737 2.75787 23.1063 2.73842 23.1422 2.73233C23.4262 2.69598 23.7106 2.66282 23.9955 2.6328C24.1016 2.62305 24.2048 2.58917 24.2979 2.53368C24.4691 2.43064 24.6419 2.33038 24.8146 2.23012C24.9342 2.16076 25.0537 2.0914 25.1727 2.02111C25.1925 2.00734 25.2155 2 25.239 2C25.2605 2 25.2816 2.00615 25.3002 2.01772C25.5946 2.17342 25.8896 2.3277 26.1846 2.48202L26.5771 2.68751C26.5932 2.69603 26.609 2.7053 26.6294 2.71734C26.6438 2.72582 26.6605 2.73568 26.6814 2.74761L26.334 3.10892C26.3427 3.11141 26.3503 3.11378 26.3571 3.11594C26.3697 3.11989 26.38 3.12311 26.3905 3.12492C26.5111 3.14551 26.6318 3.16563 26.7526 3.18574C27.0288 3.23176 27.305 3.27779 27.5802 3.32956C27.6392 3.3406 27.6985 3.35104 27.7577 3.36149C28.1291 3.42695 28.5015 3.4926 28.833 3.70521C28.9889 3.80524 29.142 3.91025 29.2951 4.01525C29.4194 4.10047 29.5436 4.18567 29.6693 4.26818C29.8018 4.35507 29.8519 4.48215 29.843 4.63639C29.8286 4.90189 29.8102 5.16755 29.7829 5.43212C29.7581 5.67118 29.7016 5.90114 29.5571 6.09594C29.5441 6.1136 29.5441 6.14858 29.5482 6.17371C29.6839 6.99444 29.8201 7.81492 29.9567 8.63515C29.9704 8.71815 29.9791 8.80214 29.9878 8.88612C29.9917 8.92411 29.9956 8.9621 30 9H28.9584C28.975 8.97954 28.9912 8.95856 29.0073 8.93761C29.0417 8.89285 29.0761 8.84821 29.1147 8.80893C29.1625 8.76113 29.17 8.72408 29.1403 8.65861C28.8456 8.00978 28.5536 7.35973 28.2644 6.70845C28.2297 6.63178 28.1925 6.61673 28.118 6.62846C27.875 6.6667 27.6315 6.70086 27.388 6.73502C27.3022 6.74706 27.2162 6.75912 27.1304 6.77134L25.6786 6.97822C25.624 6.98584 25.5858 7.00482 25.558 7.0638C25.2533 7.70889 24.9465 8.35393 24.6377 8.9989H23.5792C23.5876 8.96697 23.5988 8.93563 23.6124 8.90583C23.6608 8.81944 23.7101 8.73356 23.7593 8.64774C23.8025 8.57261 23.8456 8.49747 23.8881 8.42209C23.9093 8.38539 23.9264 8.34577 23.9385 8.30452C24.1662 7.47215 24.3925 6.63934 24.6174 5.8061C24.6189 5.79756 24.6197 5.78888 24.6197 5.78015C24.6197 5.74894 24.6097 5.71864 24.5913 5.69445C24.4649 5.55399 24.3343 5.41763 24.2011 5.28516C24.1785 5.26571 24.1504 5.2551 24.1215 5.2551C24.1154 5.2551 24.1093 5.25557 24.1033 5.25648C23.9448 5.29155 23.7867 5.32825 23.6285 5.36496C23.4704 5.40166 23.3122 5.43836 23.1538 5.47343C23.0994 5.48535 23.0843 5.51361 23.0777 5.56515C23.0632 5.68894 23.0483 5.81263 23.0334 5.9363C23.0138 6.09849 22.9942 6.26068 22.9757 6.42303C22.9726 6.45094 22.9757 6.48962 22.9917 6.5086C23.0768 6.61175 23.1649 6.7125 23.2562 6.81699L23.3083 6.87662L23.6839 6.49056L23.8044 7.365L23.6959 7.38718C23.53 7.42114 23.3675 7.45437 23.2048 7.48649L23.2025 7.48652C23.186 7.48652 23.1695 7.4832 23.1541 7.47683C23.1218 7.46842 23.0894 7.46035 23.0571 7.45228C22.9711 7.43087 22.8852 7.40945 22.8012 7.38175C22.7562 7.36625 22.717 7.33545 22.6897 7.2941C22.6089 7.15939 22.531 7.0228 22.453 6.88619C22.4057 6.80337 22.3584 6.72052 22.3105 6.63809C22.2102 6.46585 22.1077 6.29471 22.0052 6.12355L22 6.11511Z" fill="white"/>
<path d="M27.4774 8.91508C27.5137 8.84762 27.5501 8.78019 27.5919 8.71702C27.6346 8.65341 27.6577 8.57687 27.6577 8.49847L27.6574 8.48426C27.6558 8.26128 27.6558 8.03823 27.6559 7.81517C27.6559 7.60467 27.656 7.39391 27.6546 7.1834C27.6546 7.11979 27.672 7.08051 27.7227 7.04776C27.7949 7.00058 27.8653 6.95043 27.9385 6.8982L28.011 6.84666L28.0224 6.86499C28.0366 6.88797 28.0488 6.90778 28.0609 6.92853L28.1597 7.10639C28.2982 7.35565 28.4367 7.60499 28.5724 7.85598C28.5904 7.89133 28.5999 7.93108 28.5999 7.97142C28.5999 7.97894 28.5996 7.98657 28.5989 7.99403C28.5737 8.24468 28.5458 8.49534 28.5178 8.74637L28.4897 8.99962H27.4313C27.4469 8.97165 27.4622 8.94335 27.4774 8.91508Z" fill="white"/>
<path d="M25.4277 8.96846C25.4131 8.97898 25.3985 8.98949 25.3837 8.99947L26.5464 8.99953C26.5461 8.97189 26.544 8.94413 26.5405 8.91672C26.4401 8.37332 26.3393 7.82998 26.2379 7.28673C26.2287 7.23722 26.2179 7.18779 26.2068 7.13706C26.2021 7.11535 26.1973 7.0934 26.1926 7.0711C26.1515 7.08221 26.1114 7.09266 26.0721 7.10292C25.973 7.12875 25.8788 7.1533 25.7863 7.18366C25.7451 7.1994 25.7105 7.23058 25.6889 7.27146C25.5866 7.47959 25.4885 7.68995 25.3947 7.90253C25.3843 7.92923 25.3789 7.95793 25.3789 7.98688C25.3789 8.00517 25.3811 8.02343 25.3853 8.04115C25.4459 8.28947 25.5109 8.53659 25.5804 8.78255C25.5987 8.84749 25.584 8.8765 25.5293 8.90329C25.4936 8.92083 25.4606 8.94465 25.4277 8.96846Z" fill="white"/>
</svg>
