<svg width="256" height="256" viewBox="0 0 256 256" fill="none" xmlns="http://www.w3.org/2000/svg">
<g clip-path="url(#clip0_29_74)">
<g clip-path="url(#clip1_29_74)">
<path d="M128.001 255.129C198.212 255.129 255.13 198.211 255.13 128C255.13 57.788 198.212 0.870117 128.001 0.870117C57.789 0.870117 0.871094 57.788 0.871094 128C0.871094 198.211 57.789 255.129 128.001 255.129Z" fill="#2775CA"/>
<path d="M104.139 216.422C104.139 219.392 101.733 221.081 98.9681 220.211C60.4657 207.872 32.6641 171.878 32.6641 129.28C32.6641 86.7836 60.4657 50.7388 99.0193 38.3996C101.886 37.5292 104.19 39.2188 104.19 42.1884V49.6124C104.19 51.6092 102.706 53.862 100.811 54.5788C70.2961 65.7916 48.5873 95.078 48.5873 129.28C48.5873 163.532 70.3473 192.768 100.811 203.878C102.706 204.595 104.19 206.848 104.19 208.844V216.422H104.139Z" fill="white"/>
<path d="M135.934 188.877C135.934 191.079 134.142 192.871 131.941 192.871H124.005C121.803 192.871 120.011 191.079 120.011 188.877V176.384C102.654 173.978 94.2063 164.352 91.9023 151.04C91.4927 148.736 93.2847 146.791 95.5887 146.791H104.651C106.546 146.791 108.133 148.173 108.542 149.965C110.232 157.799 114.789 163.892 128.715 163.892C138.955 163.892 146.277 158.106 146.277 149.607C146.277 141.056 142.027 137.78 126.923 135.322C104.651 132.352 94.1551 125.594 94.1551 108.186C94.1551 94.7716 104.395 84.2244 120.062 82.074V69.7348C120.062 67.5332 121.854 65.7412 124.056 65.7412H131.992C134.194 65.7412 135.986 67.5332 135.986 69.7348V82.33C148.786 84.634 156.926 91.8532 159.64 103.988C160.152 106.292 158.36 108.34 155.954 108.34H147.608C145.816 108.34 144.331 107.162 143.819 105.472C141.515 97.8436 136.088 94.4644 126.514 94.4644C115.966 94.4644 110.539 99.5332 110.539 106.701C110.539 114.228 113.611 118.016 129.79 120.32C151.653 123.29 162.968 129.536 162.968 148.122C162.968 162.202 152.421 173.671 136.037 176.231V188.928H135.934V188.877Z" fill="white"/>
<path d="M156.98 220.16C154.113 221.03 151.809 219.341 151.809 216.371V208.947C151.809 206.745 153.089 204.697 155.188 203.981C185.601 192.87 207.412 163.533 207.412 129.382C207.412 95.1294 185.652 65.8943 155.188 54.7839C153.293 54.0671 151.809 51.8143 151.809 49.8175V42.3935C151.809 39.4239 154.215 37.7343 156.98 38.6047C195.533 50.7391 223.335 86.7838 223.335 129.28C223.335 171.878 195.533 207.872 156.98 220.16Z" fill="white"/>
</g>
<circle cx="128" cy="128" r="118" stroke="#9B6AFF" stroke-width="20"/>
</g>
<defs>
<clipPath id="clip0_29_74">
<rect width="256" height="256" fill="white"/>
</clipPath>
<clipPath id="clip1_29_74">
<rect width="256" height="256" fill="white"/>
</clipPath>
</defs>
</svg>
