<svg width="32" height="32" viewBox="0 0 32 32" fill="none" xmlns="http://www.w3.org/2000/svg">
<g clip-path="url(#clip0_543_216714)">
<path d="M13.0744 28.9394C20.2256 28.9394 26.0228 23.1421 26.0228 15.9909C26.0228 8.83969 20.2256 3.04248 13.0744 3.04248C5.92319 3.04248 0.125977 8.83969 0.125977 15.9909C0.125977 23.1421 5.92319 28.9394 13.0744 28.9394Z" fill="#001845"/>
<path d="M19.8465 22.4796C14.105 23.6395 8.49563 19.9183 7.32876 14.2101C6.74507 11.4443 7.34451 8.68176 8.77066 6.45093C4.44651 8.43825 1.8892 13.1948 2.88096 18.0792C4.04785 23.7873 9.65718 27.5085 15.3987 26.3486C18.3582 25.7689 20.7295 24.0113 22.2742 21.6632C21.5042 22.0139 20.7343 22.3057 19.8465 22.4796Z" fill="url(#paint0_linear_543_216714)"/>
<path d="M12.3956 21.7917C10.6751 21.6005 9.52959 20.547 9.24123 19.0899C9.16072 18.6831 9.50595 18.3433 9.92057 18.3433C10.3353 18.3433 10.655 18.6864 10.7644 19.0864C11.0216 20.0256 11.8072 20.568 13.063 20.568C14.6203 20.568 15.4546 19.7338 15.4546 18.7327C15.4546 15.8962 9.28097 17.3422 9.28097 13.1709C9.28097 11.7804 10.5602 10.3344 12.3956 10.1119V9.08297C12.3956 8.72972 12.6819 8.44336 13.0352 8.44336C13.3885 8.44336 13.6748 8.72972 13.6748 9.08297V10.1119C15.1434 10.3488 16.2488 11.433 16.5442 12.8147C16.631 13.2202 16.2864 13.5602 15.8717 13.5602C15.457 13.5602 15.1343 13.2157 15.0079 12.8208C14.7238 11.933 13.9359 11.3355 13.0074 11.3355C11.617 11.3355 10.7271 12.281 10.7271 13.1709C10.7271 16.0074 16.9007 14.5613 16.9007 18.7327C16.9007 20.2343 15.677 21.5692 13.6748 21.8473V22.8762C13.6748 23.2295 13.3885 23.5158 13.0352 23.5158C12.6819 23.5158 12.3956 23.2295 12.3956 22.8762V21.7917Z" fill="white"/>
<path fill-rule="evenodd" clip-rule="evenodd" d="M23.042 20.6589L23.7215 21.1415C23.8746 21.2502 23.8587 21.4824 23.6921 21.5691L21.4924 22.7152C21.3177 22.8062 21.111 22.67 21.1258 22.4735L21.3195 19.9025C21.3342 19.7076 21.5561 19.6035 21.7155 19.7166L22.3248 20.1494C23.8802 16.6145 23.3054 12.3423 20.5215 9.32218C16.8012 5.28622 10.5331 5.00149 6.46316 8.66119C6.41158 8.70758 6.33176 8.70477 6.28474 8.65377L5.86993 8.20376C5.82292 8.15275 5.82653 8.07285 5.87806 8.02642C10.2986 4.04363 17.1128 4.35061 21.1562 8.73713C24.2235 12.0648 24.8208 16.7899 23.042 20.6589Z" fill="#23DD00"/>
<path fill-rule="evenodd" clip-rule="evenodd" d="M3.41956 11.3486L2.74007 10.8659C2.58699 10.7572 2.60295 10.5251 2.76947 10.4384L4.96921 9.29228C5.14388 9.20127 5.35058 9.33752 5.33578 9.53392L5.14211 12.1049C5.12743 12.2998 4.90552 12.4041 4.74615 12.2908L4.13688 11.8581C2.58144 15.393 3.15628 19.6651 5.94015 22.6853C9.66035 26.7212 15.9285 27.006 19.9984 23.3463C20.05 23.2999 20.1298 23.3027 20.1769 23.3537L20.5916 23.8037C20.6387 23.8547 20.6351 23.9346 20.5835 23.9811C16.163 27.9639 9.34876 27.6569 5.30543 23.2704C2.23815 19.9428 1.6409 15.2175 3.41956 11.3486Z" fill="#23DD00"/>
</g>
<g clip-path="url(#clip1_543_216714)">
<mask id="mask0_543_216714" style="mask-type:luminance" maskUnits="userSpaceOnUse" x="18" y="0" width="14" height="14">
<path d="M32 0H18V14H32V0Z" fill="white"/>
</mask>
<g mask="url(#mask0_543_216714)">
<path fill-rule="evenodd" clip-rule="evenodd" d="M30.2017 8.69395e-10C29.4808 -1.37073e-05 28.391 0.162081 27.2263 0.415686C26.0345 0.675169 24.6697 1.05137 23.3724 1.5223C22.0862 1.98917 20.8079 2.57005 19.8305 3.2561C18.8883 3.91741 18.0001 4.83826 18 5.99994C18 6.17338 18.0199 6.33808 18.057 6.49443C18.0199 6.65749 18 6.82602 18 6.99994C18 7.17338 18.0199 7.33808 18.057 7.49443C18.0199 7.65749 18 7.82602 18 7.99994C18 8.17338 18.0199 8.33808 18.057 8.49443C18.0199 8.65749 18 8.82602 18 8.99994C18 9.17338 18.0199 9.33808 18.057 9.49443C18.0199 9.65749 18 9.82602 18 9.99994C17.9999 11.3404 19.1901 12.1594 20.2854 12.6288C21.426 13.1177 22.8746 13.4185 24.2246 13.6114C25.594 13.807 26.9523 13.9035 27.9611 13.9516C28.4674 13.9757 28.89 13.9878 29.1874 13.9939C29.3329 13.9968 29.574 13.9991 29.6609 13.9999L29.6667 14H30.0586C30.8085 14 31.4164 13.479 31.4164 12.8362C31.4164 12.6618 31.37 12.4911 31.2849 12.3365C31.3692 12.1849 31.4164 12.0153 31.4164 11.8362C31.4164 11.6618 31.37 11.4911 31.2849 11.3365C31.3692 11.1849 31.4164 11.0153 31.4164 10.8362C31.4164 10.6618 31.37 10.4911 31.2849 10.3365C31.3692 10.1849 31.4164 10.0153 31.4164 9.83622C31.4164 9.66127 31.3698 9.49011 31.2842 9.33517C31.3689 9.18395 31.4164 9.01478 31.4164 8.83622C31.4164 8.24339 30.8811 7.69405 30.1077 7.67184C29.7591 7.66183 28.9332 7.63155 27.9106 7.55175C29.0093 7.31903 29.9671 7.15386 30.5275 7.06339C31.3824 6.92539 32 6.28686 32 5.54138C32 5.36658 31.966 5.19857 31.9035 5.04193C31.9662 4.88429 32 4.71576 32 4.54138C32 4.36658 31.966 4.19857 31.9035 4.04193C31.9662 3.88429 32 3.71576 32 3.54138C32 3.36658 31.966 3.19857 31.9035 3.04193C31.9662 2.88429 32 2.71576 32 2.54138C32 2.36658 31.966 2.19857 31.9035 2.04193C31.9662 1.88429 32 1.71576 32 1.54138C32 0.690109 31.1949 1.69891e-05 30.2017 8.69395e-10Z" fill="white"/>
<path d="M30.202 1.16675C30.5508 1.16675 30.8336 1.4024 30.8336 1.69309C30.8336 1.95039 30.6153 2.16978 30.3119 2.2174C28.1917 2.55013 20.3337 3.92519 20.3337 6.02786C20.3337 8.26351 28.7234 8.58737 30.0689 8.62494C30.1729 8.62784 30.25 8.69863 30.25 8.78529C30.25 8.87323 30.1644 8.94452 30.0589 8.94452H29.9583H29.6667C29.6667 8.94452 19.1668 8.94453 19.167 6.02786C19.1672 3.28787 27.917 1.16669 30.202 1.16675Z" fill="#0C0D1D"/>
<path d="M30.202 2.13892C30.5508 2.13892 30.8336 2.37457 30.8336 2.66526C30.8336 2.92256 30.6153 3.14195 30.3119 3.18956C28.1917 3.5223 20.3337 4.89736 20.3337 7.00003C20.3337 9.23568 28.7234 9.55954 30.0689 9.59711C30.1729 9.60001 30.25 9.6708 30.25 9.75746C30.25 9.8454 30.1644 9.91669 30.0589 9.91669H29.9583H29.6667C29.6667 9.91669 19.1668 9.9167 19.167 7.00003C19.1672 4.26004 27.917 2.13886 30.202 2.13892Z" fill="#0433FF"/>
<path d="M30.202 3.11108C30.5508 3.11108 30.8336 3.34674 30.8336 3.63743C30.8336 3.89472 30.6153 4.11411 30.3119 4.16173C28.1917 4.49447 20.3337 5.86953 20.3337 7.9722C20.3337 10.2078 28.7234 10.5317 30.0689 10.5693C30.1729 10.5722 30.25 10.643 30.25 10.7296C30.25 10.8176 30.1644 10.8889 30.0589 10.8889H29.9583H29.6667C29.6667 10.8889 19.1668 10.8889 19.167 7.9722C19.1672 5.23221 27.917 3.11102 30.202 3.11108Z" fill="#9CADFF"/>
<path d="M30.202 4.08325C30.5508 4.08325 30.8336 4.31891 30.8336 4.6096C30.8336 4.86689 30.6153 5.08628 30.3119 5.1339C28.1917 5.46664 20.3337 6.8417 20.3337 8.94437C20.3337 11.18 28.7234 11.5039 30.0689 11.5415C30.1729 11.5444 30.25 11.6152 30.25 11.7018C30.25 11.7898 30.1644 11.8611 30.0589 11.8611H29.9583H29.6667C29.6667 11.8611 19.1668 11.8611 19.167 8.94437C19.1672 6.20438 27.917 4.08319 30.202 4.08325Z" fill="#F5F3E6"/>
<path d="M30.202 5.05566C30.5508 5.05566 30.8336 5.29131 30.8336 5.58201C30.8336 5.8393 30.6153 6.05869 30.3119 6.10631C28.1917 6.43904 20.3337 7.81411 20.3337 9.91678C20.3337 12.1525 28.7234 12.4763 30.0689 12.5139C30.1729 12.5168 30.25 12.5876 30.25 12.6742C30.25 12.7622 30.1644 12.8335 30.0589 12.8335H29.9583H29.6667C29.6667 12.8335 19.1668 12.8335 19.167 9.91678C19.1672 7.17679 27.917 5.0556 30.202 5.05566Z" fill="#FF1100"/>
</g>
</g>
<g clip-path="url(#clip2_543_216714)">
<path d="M32 25C32 21.134 28.866 18 25 18C21.134 18 18 21.134 18 25C18 28.866 21.134 32 25 32C28.866 32 32 28.866 32 25Z" fill="#0052FF"/>
<path fill-rule="evenodd" clip-rule="evenodd" d="M24.6008 20.1328V22.7095C23.7328 22.8386 23.2332 23.4044 23.2332 24.0829C23.2332 24.9503 23.802 25.3107 24.6089 25.4508L25.0983 25.5376C25.5547 25.6176 25.773 25.6777 25.773 26.0113C25.773 26.3316 25.5282 26.5852 25.0057 26.5852C24.4898 26.5852 24.1724 26.3583 24.1724 25.8979H23.1406C23.1406 26.6719 23.716 27.2257 24.6089 27.3459V28.24H25.4158V27.3392C26.2624 27.2057 26.8047 26.6786 26.8047 25.9245C26.8047 25.0104 26.1698 24.6901 25.3893 24.57L24.9197 24.4966C24.5031 24.4299 24.2716 24.3365 24.2716 23.9962C24.2716 23.7293 24.47 23.469 24.9727 23.469C25.4951 23.469 25.7134 23.7226 25.7134 24.0629H26.7452C26.732 23.417 26.2709 22.8575 25.4211 22.7159V20.1392C27.9141 20.3656 29.8672 22.4614 29.8672 25.0135C29.8672 27.7166 27.6758 29.908 24.9727 29.908C22.2695 29.908 20.0781 27.7166 20.0781 25.0135C20.0781 22.4354 22.0713 20.3228 24.6008 20.1328Z" fill="white"/>
</g>
<defs>
<linearGradient id="paint0_linear_543_216714" x1="2.10405" y1="28.8381" x2="14.0747" y2="14.9358" gradientUnits="userSpaceOnUse">
<stop offset="0.0729167" stop-color="#FFD923"/>
<stop offset="0.4775" stop-color="#0466C8"/>
<stop offset="1" stop-color="#001845"/>
</linearGradient>
<clipPath id="clip0_543_216714">
<rect width="26" height="26" fill="white" transform="translate(0 3)"/>
</clipPath>
<clipPath id="clip1_543_216714">
<rect width="14" height="14" fill="white" transform="translate(18)"/>
</clipPath>
<clipPath id="clip2_543_216714">
<rect width="14" height="14" fill="white" transform="translate(18 18)"/>
</clipPath>
</defs>
</svg>
