<svg width="32" height="32" viewBox="0 0 32 32" fill="none" xmlns="http://www.w3.org/2000/svg">
<path d="M32 16C32 13.9059 31.5834 11.8118 30.7821 9.87712C29.9808 7.9424 28.7946 6.16704 27.3136 4.6864C25.833 3.20544 24.0576 2.0192 22.1229 1.21792C20.1882 0.41664 18.0941 0 16 0C13.9059 0 11.8118 0.41664 9.87712 1.21792C7.9424 2.0192 6.16704 3.20544 4.6864 4.6864C3.20544 6.16704 2.0192 7.9424 1.21792 9.87712C0.41664 11.8118 0 13.9059 0 16C0 18.0941 0.41664 20.1882 1.21792 22.1229C2.0192 24.0576 3.20544 25.833 4.6864 27.3136C6.16704 28.7946 7.9424 29.9808 9.87712 30.7821C11.8118 31.5834 13.9059 32 16 32C18.0941 32 20.1882 31.5834 22.1229 30.7821C24.0576 29.9808 25.833 28.7946 27.3136 27.3136C28.7946 25.833 29.9808 24.0576 30.7821 22.1229C31.5834 20.1882 32 18.0941 32 16Z" fill="url(#paint0_linear)"/>
<path fill-rule="evenodd" clip-rule="evenodd" d="M26.2239 12.3697L26.2383 12.3451C26.7893 11.3851 26.9977 10.1844 26.7903 9.07051C26.5833 7.95659 25.9602 6.92971 25.0799 6.22411C24.1996 5.51851 23.0617 5.13419 21.9295 5.17451C20.797 5.21483 19.6706 5.67947 18.8537 6.42635L18.7999 6.47531L18.7519 6.52971C15.0729 10.6836 11.1196 14.2952 7.04086 17.2388C6.30198 17.772 5.7071 18.4779 5.30518 19.2916C4.90294 20.1051 4.70838 21.0161 4.73494 21.9208C4.7615 22.8251 5.01782 23.7256 5.46518 24.5105C5.91254 25.2952 6.5615 25.9726 7.3247 26.4548C7.70614 26.6961 8.1167 26.8916 8.54838 27.0347C8.97974 27.1777 9.42422 27.2638 9.8543 27.3019C10.2844 27.3403 10.7042 27.3323 11.1055 27.2843C11.3065 27.26 11.4972 27.227 11.6949 27.1796C11.893 27.1326 12.118 27.0622 12.3429 26.963C12.5679 26.8641 12.7903 26.74 13.0255 26.5892C13.2607 26.4385 13.5113 26.2596 13.8076 26.036C14.1039 25.812 14.4453 25.5428 14.8572 25.2113C15.269 24.8795 15.7535 24.4884 16.3317 24.002C17.4879 23.0296 18.9746 21.6936 20.6594 19.8193C22.3442 17.9454 24.23 15.532 26.2089 12.394L26.2239 12.3697Z" fill="#011D07"/>
<path fill-rule="evenodd" clip-rule="evenodd" d="M19.7822 7.44273C18.8872 8.45329 17.9675 9.44209 17.0232 10.4091C15.1345 12.3432 13.1451 14.1682 11.0552 15.884C10.0104 16.7419 8.94063 17.5656 7.84623 18.3554C7.21359 18.812 6.71215 19.4491 6.41807 20.171C6.12367 20.893 6.03695 21.6997 6.17039 22.468C6.30383 23.2363 6.65775 23.9659 7.17807 24.5464C7.69871 25.1272 8.38575 25.5582 9.13487 25.7746C9.88399 25.9909 10.6955 25.9922 11.3304 25.8498C11.9656 25.7074 12.4241 25.4213 14.6181 23.6306C16.7877 21.8597 20.6545 18.6174 25.043 11.659C25.4353 10.9752 25.5838 10.1199 25.4363 9.32625C25.2885 8.53297 24.8449 7.80113 24.2177 7.29873C23.5905 6.79601 22.78 6.52209 21.9736 6.55089C21.1669 6.57969 20.3643 6.91057 19.7822 7.44273Z" fill="#13A10E"/>
<path fill-rule="evenodd" clip-rule="evenodd" d="M6.10943 21.7331C6.10815 21.9795 6.12831 22.2259 6.17055 22.4685C6.30399 23.2368 6.65791 23.9664 7.17823 24.5469C7.69887 25.1277 8.38591 25.5587 9.13503 25.775C9.88415 25.9914 10.6957 25.9926 11.3306 25.8502C11.9658 25.7078 12.4243 25.4218 14.6182 23.631C16.7878 21.8602 20.6547 18.6179 25.0432 11.6595C25.1613 11.4534 25.2576 11.2349 25.3318 11.0038C25.4803 10.5414 25.5277 10.0691 25.4746 9.58656C25.4477 9.34528 25.3971 9.112 25.3222 8.88672C20.7386 15.3734 17.0922 18.712 14.7235 20.6784C12.3546 22.6448 11.2634 23.239 10.2963 23.455C9.32927 23.671 8.48671 23.5091 7.45759 22.8934C7.02399 22.6339 6.55775 22.2941 6.10943 21.7331Z" fill="#107C10"/>
<path fill-rule="evenodd" clip-rule="evenodd" d="M8.54809 19.6582C8.39929 19.6576 8.25049 19.6915 8.10233 19.76C7.80569 19.8966 7.61337 20.1222 7.52537 20.4365C7.48121 20.5936 7.47129 20.7456 7.49497 20.8928C7.50777 20.9709 7.55417 21.047 7.62009 21.0947C7.68569 21.1424 7.77113 21.1622 7.85113 21.1491C7.93113 21.1363 8.00569 21.0905 8.05305 21.0243C8.10009 20.9581 8.11993 20.8713 8.10745 20.7933C8.09753 20.7318 8.10169 20.6685 8.11993 20.6029C8.15673 20.472 8.23705 20.3779 8.36057 20.3209C8.42233 20.2925 8.48441 20.2784 8.54649 20.2784C8.62553 20.2787 8.70809 20.2454 8.76601 20.1881C8.82393 20.1312 8.85721 20.0502 8.85753 19.9693C8.85785 19.8883 8.82489 19.807 8.76729 19.7497C8.70969 19.6921 8.62745 19.6582 8.54809 19.6582Z" fill="#16C50C"/>
<path fill-rule="evenodd" clip-rule="evenodd" d="M11.3394 19.6252C11.1903 19.6249 11.0418 19.6588 10.8936 19.727C10.597 19.8636 10.4047 20.0892 10.3167 20.4035C10.2725 20.5606 10.2623 20.7129 10.2863 20.8601C10.2991 20.9382 10.3455 21.014 10.4111 21.0617C10.477 21.1097 10.5624 21.1292 10.6421 21.1164C10.7221 21.1033 10.797 21.0576 10.844 20.9913C10.8914 20.9251 10.9112 20.8384 10.8984 20.7603C10.8885 20.6992 10.8927 20.6355 10.9112 20.5702C10.948 20.439 11.028 20.3449 11.1519 20.288C11.2136 20.2595 11.2754 20.2454 11.3375 20.2457C11.4168 20.2457 11.4994 20.2124 11.5573 20.1555C11.6152 20.0982 11.6485 20.0172 11.6488 19.9363C11.6488 19.8553 11.6162 19.7744 11.5586 19.7168C11.501 19.6592 11.4184 19.6256 11.3394 19.6252Z" fill="#16C50C"/>
<path fill-rule="evenodd" clip-rule="evenodd" d="M12.0952 16.8347C11.9461 16.8344 11.7976 16.8683 11.6495 16.9368C11.3528 17.0734 11.1605 17.2987 11.0725 17.6133C11.0284 17.7704 11.0181 17.9224 11.0421 18.0696C11.0549 18.1477 11.1013 18.2235 11.1669 18.2715C11.2328 18.3192 11.3183 18.339 11.3979 18.3259C11.4779 18.3128 11.5528 18.267 11.5999 18.2011C11.6472 18.1349 11.6671 18.0482 11.6543 17.9701C11.6443 17.9086 11.6485 17.8453 11.6671 17.7797C11.7039 17.6485 11.7839 17.5547 11.9074 17.4978C11.9695 17.4693 12.0312 17.4549 12.0933 17.4552C12.1727 17.4555 12.2552 17.4222 12.3131 17.365C12.3711 17.308 12.4043 17.227 12.4047 17.1458C12.4047 17.0648 12.372 16.9838 12.3144 16.9262C12.2568 16.869 12.1743 16.835 12.0952 16.8347Z" fill="#16C50C"/>
<path fill-rule="evenodd" clip-rule="evenodd" d="M14.7881 16.8669C14.6389 16.8666 14.4905 16.9005 14.342 16.9687C14.0457 17.1053 13.8533 17.3309 13.765 17.6452C13.7212 17.8023 13.7109 17.9546 13.7349 18.1018C13.7477 18.1799 13.7941 18.2557 13.8597 18.3034C13.9257 18.3514 14.0108 18.3709 14.0908 18.3578C14.1708 18.345 14.2453 18.2993 14.2927 18.233C14.3401 18.1668 14.3599 18.0801 14.3471 18.002C14.3372 17.9405 14.3413 17.8772 14.3599 17.8119C14.3967 17.6807 14.4767 17.5866 14.6002 17.5297C14.662 17.5012 14.7241 17.4871 14.7861 17.4874C14.8655 17.4874 14.9477 17.4541 15.006 17.3972C15.0639 17.3399 15.0972 17.2589 15.0972 17.178C15.0975 17.097 15.0645 17.0157 15.0073 16.9585C14.9497 16.9009 14.8671 16.8673 14.7881 16.8669Z" fill="#16C50C"/>
<path fill-rule="evenodd" clip-rule="evenodd" d="M15.4776 14.1094C15.3285 14.1091 15.18 14.143 15.0315 14.2111C14.7352 14.3478 14.5429 14.5734 14.4545 14.8876C14.4104 15.0447 14.4005 15.1971 14.4245 15.3439C14.4369 15.4223 14.4833 15.4982 14.5493 15.5459C14.6152 15.5939 14.7003 15.6134 14.7803 15.6003C14.8603 15.5875 14.9349 15.5417 14.9822 15.4755C15.0296 15.4092 15.0494 15.3225 15.0366 15.2444C15.0267 15.183 15.0309 15.1196 15.0491 15.054C15.0859 14.9231 15.1662 14.8291 15.2897 14.7721C15.3515 14.7436 15.4136 14.7295 15.4757 14.7295C15.5547 14.7299 15.6373 14.6966 15.6952 14.6396C15.7531 14.5823 15.7864 14.5014 15.7867 14.4204C15.787 14.3395 15.7541 14.2582 15.6965 14.2009C15.6389 14.1433 15.5566 14.1097 15.4776 14.1094Z" fill="#16C50C"/>
<path fill-rule="evenodd" clip-rule="evenodd" d="M18.2685 14.1426C18.1197 14.1419 17.9709 14.1759 17.8227 14.2443C17.5261 14.381 17.3338 14.6066 17.2458 14.9208C17.2016 15.0779 17.1917 15.2299 17.2154 15.3771C17.2282 15.4552 17.2746 15.5314 17.3405 15.5791C17.4061 15.6267 17.4915 15.6466 17.5715 15.6335C17.6515 15.6203 17.7261 15.5749 17.7734 15.5087C17.8205 15.4424 17.8403 15.3557 17.8278 15.2776C17.8179 15.2162 17.8221 15.1528 17.8403 15.0872C17.8771 14.9563 17.9574 14.8623 18.081 14.8053C18.1427 14.7768 18.2048 14.7624 18.2669 14.7627C18.3459 14.7631 18.4285 14.7298 18.4864 14.6725C18.5443 14.6155 18.5776 14.5346 18.5779 14.4536C18.5782 14.3723 18.5453 14.2914 18.4877 14.2338C18.4301 14.1765 18.3478 14.1426 18.2685 14.1426Z" fill="#16C50C"/>
<path fill-rule="evenodd" clip-rule="evenodd" d="M18.2685 11.3506C18.1197 11.35 17.9709 11.3842 17.8227 11.4524C17.5261 11.589 17.3338 11.8146 17.2458 12.1288C17.2016 12.286 17.1917 12.4383 17.2154 12.5852C17.2282 12.6632 17.2746 12.7394 17.3405 12.7871C17.4061 12.8351 17.4915 12.8546 17.5715 12.8415C17.6515 12.8287 17.7261 12.7829 17.7734 12.7167C17.8205 12.6504 17.8403 12.5637 17.8278 12.4856C17.8179 12.4242 17.8221 12.3608 17.8403 12.2952C17.8771 12.1644 17.9574 12.0703 18.081 12.0133C18.1427 11.9848 18.2048 11.9708 18.2669 11.9708C18.3459 11.9711 18.4285 11.9378 18.4864 11.8805C18.5443 11.8236 18.5776 11.7426 18.5779 11.6616C18.5782 11.5807 18.5453 11.4994 18.4877 11.4421C18.4301 11.3845 18.3478 11.3509 18.2685 11.3506Z" fill="#16C50C"/>
<path fill-rule="evenodd" clip-rule="evenodd" d="M21.7157 10.6287C21.5669 10.6283 21.4181 10.6623 21.27 10.7307C20.9733 10.8674 20.781 11.0927 20.693 11.4072C20.6488 11.5643 20.6386 11.7163 20.6626 11.8635C20.6754 11.9416 20.7218 12.0175 20.7874 12.0655C20.8533 12.1131 20.9388 12.133 21.0188 12.1199C21.0984 12.1067 21.1733 12.0613 21.2204 11.9951C21.2677 11.9288 21.2876 11.8421 21.2751 11.764C21.2648 11.7026 21.269 11.6392 21.2876 11.5736C21.3244 11.4427 21.4044 11.3487 21.5282 11.2917C21.59 11.2632 21.6517 11.2488 21.7141 11.2491C21.7932 11.2495 21.8757 11.2162 21.9336 11.1589C21.9916 11.1019 22.0248 11.021 22.0252 10.94C22.0252 10.8587 21.9925 10.7778 21.9349 10.7202C21.8773 10.6629 21.7951 10.629 21.7157 10.6287Z" fill="#16C50C"/>
<path fill-rule="evenodd" clip-rule="evenodd" d="M21.7493 7.93653C21.6002 7.93589 21.4517 7.96981 21.3032 8.03829C21.0069 8.17493 20.8146 8.40053 20.7263 8.71477C20.6821 8.87189 20.6722 9.02389 20.6962 9.17109C20.709 9.24917 20.7551 9.32533 20.821 9.37301C20.8869 9.42069 20.972 9.44053 21.052 9.42741C21.132 9.41429 21.2066 9.36885 21.254 9.30261C21.3013 9.23637 21.3212 9.14965 21.3084 9.07157C21.2984 9.01013 21.3026 8.94677 21.3212 8.88117C21.3576 8.75029 21.438 8.65621 21.5615 8.59925C21.6232 8.57077 21.6853 8.55669 21.7474 8.55669C21.8264 8.55701 21.909 8.52373 21.9669 8.46645C22.0248 8.40949 22.0584 8.32853 22.0584 8.24757C22.0588 8.16661 22.0258 8.08533 21.9682 8.02805C21.9106 7.97045 21.8284 7.93653 21.7493 7.93653Z" fill="#16C50C"/>
<path fill-rule="evenodd" clip-rule="evenodd" d="M24.0459 12.3216C24.0459 12.2406 24.0123 12.1596 23.955 12.1024C23.8977 12.0451 23.8168 12.0115 23.7358 12.0115C23.6549 12.0115 23.5736 12.0451 23.5163 12.1024C23.459 12.1596 23.4254 12.2406 23.4254 12.3216C23.4254 12.4025 23.459 12.4838 23.5163 12.5411C23.5736 12.5984 23.6549 12.632 23.7358 12.632C23.8168 12.632 23.8977 12.5984 23.955 12.5411C24.0123 12.4838 24.0459 12.4025 24.0459 12.3216Z" fill="#13A00E"/>
<path fill-rule="evenodd" clip-rule="evenodd" d="M12.6472 24.5095C12.796 24.5101 12.9448 24.4762 13.093 24.4077C13.3896 24.2711 13.5819 24.0455 13.6699 23.7312C13.7141 23.5741 13.7243 23.4221 13.7003 23.2749C13.6875 23.1968 13.6411 23.1207 13.5752 23.073C13.5096 23.0253 13.4242 23.0055 13.3442 23.0186C13.2642 23.0317 13.1896 23.0772 13.1423 23.1434C13.0952 23.2096 13.0754 23.2964 13.0879 23.3744C13.0981 23.4359 13.0936 23.4992 13.0754 23.5648C13.0386 23.6957 12.9583 23.7898 12.8347 23.8468C12.773 23.8752 12.7109 23.8893 12.6488 23.8893C12.5698 23.889 12.4872 23.9223 12.4293 23.9796C12.3714 24.0365 12.3381 24.1175 12.3378 24.1984C12.3375 24.2794 12.3704 24.3607 12.428 24.418C12.4856 24.4756 12.5679 24.5095 12.6472 24.5095Z" fill="#13A00E"/>
<path fill-rule="evenodd" clip-rule="evenodd" d="M15.413 21.8093C15.5618 21.8096 15.7106 21.7757 15.8588 21.7076C16.1554 21.5709 16.3477 21.3453 16.4357 21.0311C16.4799 20.874 16.4901 20.7216 16.4661 20.5748C16.4533 20.4967 16.4069 20.4205 16.341 20.3728C16.2754 20.3248 16.19 20.3053 16.11 20.3184C16.0303 20.3312 15.9554 20.377 15.9084 20.4432C15.861 20.5095 15.8412 20.5962 15.8537 20.6743C15.8639 20.7357 15.8594 20.7991 15.8412 20.8647C15.8044 20.9956 15.7244 21.0896 15.6005 21.1466C15.5388 21.1751 15.477 21.1892 15.4146 21.1892C15.3356 21.1888 15.253 21.2221 15.1951 21.2791C15.1372 21.3364 15.1039 21.4173 15.1036 21.4983C15.1036 21.5792 15.1362 21.6605 15.1938 21.7178C15.2514 21.7754 15.3337 21.809 15.413 21.8093Z" fill="#13A00E"/>
<path fill-rule="evenodd" clip-rule="evenodd" d="M18.1788 19.0645C18.3279 19.0648 18.4764 19.0309 18.6245 18.9624C18.9212 18.8258 19.1135 18.6005 19.2015 18.2859C19.2456 18.1288 19.2559 17.9768 19.2319 17.8296C19.2191 17.7515 19.1727 17.6757 19.1071 17.6277C19.0412 17.58 18.9557 17.5602 18.8757 17.5733C18.796 17.5864 18.7212 17.6322 18.6741 17.6981C18.6268 17.7643 18.6069 17.8511 18.6194 17.9295C18.6296 17.9906 18.6255 18.0539 18.6069 18.1195C18.5701 18.2507 18.4901 18.3445 18.3663 18.4015C18.3045 18.4299 18.2428 18.4443 18.1804 18.444C18.1013 18.4437 18.0188 18.4773 17.9608 18.5343C17.9029 18.5912 17.8696 18.6722 17.8693 18.7535C17.8693 18.8344 17.902 18.9154 17.9596 18.973C18.0172 19.0303 18.0994 19.0642 18.1788 19.0645Z" fill="#13A00E"/>
<path fill-rule="evenodd" clip-rule="evenodd" d="M20.8463 16.2657C20.9954 16.266 21.1439 16.2321 21.2924 16.1636C21.5887 16.0269 21.781 15.8017 21.8693 15.4871C21.9132 15.33 21.9234 15.178 21.8994 15.0308C21.8866 14.9527 21.8405 14.8769 21.7746 14.8289C21.7087 14.7812 21.6236 14.7613 21.5436 14.7745C21.4636 14.7876 21.389 14.8333 21.3416 14.8993C21.2943 14.9655 21.2744 15.0522 21.2872 15.1306C21.2972 15.1917 21.293 15.2551 21.2745 15.3207C21.238 15.4519 21.1577 15.5457 21.0341 15.6026C20.9724 15.6311 20.9103 15.6455 20.8482 15.6452C20.7689 15.6449 20.6866 15.6785 20.6287 15.7354C20.5708 15.7927 20.5372 15.8733 20.5372 15.9546C20.5369 16.0356 20.5698 16.1165 20.6274 16.1741C20.685 16.2314 20.7673 16.2653 20.8463 16.2657Z" fill="#13A00E"/>
<path fill-rule="evenodd" clip-rule="evenodd" d="M31.9998 24.8889C31.9998 23.9582 31.8146 23.0275 31.4585 22.1677C31.1024 21.3078 30.5752 20.5187 29.917 19.8607C29.2589 19.2025 28.4699 18.6753 27.61 18.3191C26.7501 17.963 25.8194 17.7778 24.8887 17.7778C23.958 17.7778 23.0273 17.963 22.1674 18.3191C21.3075 18.6753 20.5185 19.2025 19.8604 19.8607C19.2022 20.5187 18.675 21.3078 18.3189 22.1677C17.9628 23.0275 17.7776 23.9582 17.7776 24.8889C17.7776 25.8196 17.9628 26.7503 18.3189 27.6102C18.675 28.4701 19.2022 29.2591 19.8604 29.9172C20.5185 30.5754 21.3075 31.1026 22.1674 31.4588C23.0273 31.8149 23.958 32.0001 24.8887 32.0001C25.8194 32.0001 26.7501 31.8149 27.61 31.4588C28.4699 31.1026 29.2589 30.5754 29.917 29.9172C30.5752 29.2591 31.1024 28.4701 31.4585 27.6102C31.8146 26.7503 31.9998 25.8196 31.9998 24.8889Z" fill="black"/>
<path fill-rule="evenodd" clip-rule="evenodd" d="M24.9721 19.8518L21.9257 24.8571L24.9721 26.6404L28.0191 24.8571L24.9721 19.8518Z" fill="white"/>
<path fill-rule="evenodd" clip-rule="evenodd" d="M21.9257 25.429L24.9721 29.6797L28.0208 25.429L24.9721 27.2112L21.9257 25.429Z" fill="white"/>
<path fill-rule="evenodd" clip-rule="evenodd" d="M31.9998 7.11151C31.9998 3.18813 28.8125 0.0012207 24.8887 0.0012207C20.9649 0.0012207 17.7776 3.18813 17.7776 7.11151C17.7776 11.0348 20.9649 14.2218 24.8887 14.2218C28.8125 14.2218 31.9998 11.0348 31.9998 7.11151Z" fill="url(#paint1_linear)"/>
<path fill-rule="evenodd" clip-rule="evenodd" d="M26.2883 10.3649C27.2315 10.7113 28.0819 10.8565 28.7861 10.9555C29.4904 11.0544 30.0487 11.107 30.3408 11.1481C30.6328 11.1892 30.6588 11.2187 30.6459 11.2501C30.633 11.2813 30.5813 11.3145 30.4465 11.3547C30.3117 11.395 30.0936 11.4426 29.6579 11.6832C29.2222 11.9239 28.5687 12.3577 27.9206 12.7012C27.2726 13.0448 26.6299 13.298 25.8725 13.5141C25.1152 13.7303 24.2432 13.9093 23.4392 13.8765C22.6352 13.8438 21.8992 13.5992 21.2239 13.1962C20.5486 12.7931 19.9341 12.2318 19.602 11.551C19.27 10.8703 19.2205 10.0703 19.3101 9.49719C19.3996 8.92419 19.6281 8.57809 19.9863 8.36122C20.3445 8.14435 20.8322 8.05678 21.4016 8.17207C21.971 8.28736 22.6222 8.60552 23.4657 9.03833C24.3092 9.47113 25.3451 10.0186 26.2883 10.3649Z" fill="#00F8FF" fill-opacity="0.396061"/>
<path opacity="0.699544" fill-rule="evenodd" clip-rule="evenodd" d="M27.684 11.8621C28.345 12.0839 29.0025 12.3001 29.1337 12.5389C29.265 12.7778 28.8702 13.0392 28.3377 13.3233C27.8052 13.6073 27.1351 13.9141 26.2941 14.0809C25.453 14.2477 24.4411 14.2747 23.5081 14.0811C22.5751 13.8876 21.721 13.4736 21.229 13.051C20.7371 12.6284 20.6074 12.1973 20.6096 11.7626C20.6117 11.328 20.7458 10.8898 21.0993 10.6068C21.4528 10.3239 22.0258 10.196 22.8281 10.3183C23.6304 10.4407 24.662 10.8132 25.5101 11.1131C26.3583 11.413 27.023 11.6403 27.684 11.8621Z" fill="#053FBE"/>
<path fill-rule="evenodd" clip-rule="evenodd" d="M26.0387 12.3274C26.8721 12.6036 27.7729 12.9727 27.8237 13.3042C27.8744 13.6357 27.075 13.9297 26.2341 14.0904C25.3932 14.2513 24.5108 14.279 23.762 14.0822C23.0132 13.8855 22.398 13.4642 22.1459 13.021C21.8939 12.5778 22.0049 12.1125 22.32 11.8862C22.635 11.6598 23.1539 11.6723 23.7965 11.7701C24.4391 11.868 25.2052 12.0513 26.0387 12.3274Z" fill="#001EC3"/>
<path fill-rule="evenodd" clip-rule="evenodd" d="M24.3103 12.7449C23.8571 12.7257 23.5122 12.8713 23.4163 13.0819C23.3203 13.2926 23.4734 13.5684 23.7872 13.7527C24.1009 13.9369 24.5753 14.0295 25.0726 14.0241C25.5699 14.0186 26.0901 13.915 26.2296 13.7499C26.369 13.5848 26.1276 13.3582 25.7262 13.153C25.3248 12.9478 24.7635 12.764 24.3103 12.7449Z" fill="#000086"/>
<path opacity="0.8" fill-rule="evenodd" clip-rule="evenodd" d="M24.4004 13.6035C25.2457 13.4915 26.1068 13.1946 27.0594 12.6314C28.012 12.0682 29.0563 11.2388 29.778 10.3652C30.4997 9.49146 30.8989 8.57345 31.1533 7.71823C31.4077 6.86293 31.5172 6.07049 31.4308 5.26105C31.3443 4.45169 31.0619 3.62526 30.6042 2.97282C30.1464 2.32031 29.5133 1.84164 28.7436 1.54322C27.9738 1.2448 27.0675 1.12663 26.137 1.25369C25.2064 1.38075 24.2516 1.75312 23.3316 2.30794C22.4116 2.86275 21.5265 3.59995 20.7764 4.48482C20.0263 5.36963 19.4114 6.40204 19.1236 7.50179C18.8359 8.60161 18.8755 9.76876 19.0995 10.6295C19.3235 11.4903 19.7319 12.0446 20.2289 12.4835C20.7257 12.9224 21.311 13.2458 22.0184 13.4441C22.7258 13.6423 23.5552 13.7154 24.4004 13.6035Z" fill="url(#paint2_linear)"/>
<path fill-rule="evenodd" clip-rule="evenodd" d="M23.8028 4.96323C24.8427 5.47766 25.9242 6.14624 26.7135 6.87832C27.5028 7.61032 27.9999 8.4059 28.1165 9.17758C28.2331 9.94926 27.9692 10.6972 27.48 11.3224C26.9907 11.9476 26.276 12.4502 25.5987 12.7784C24.9213 13.1065 24.2814 13.2603 23.6006 13.3033C22.9198 13.3463 22.198 13.2785 21.5561 13.1002C20.9143 12.9218 20.3524 12.6328 19.896 12.2151C19.4397 11.7974 19.0889 11.251 18.8418 10.6285C18.5947 10.006 18.4513 9.30727 18.3547 8.57043C18.2582 7.83359 18.2085 7.05857 18.1915 6.32549C18.1746 5.59249 18.1903 4.90144 18.3858 4.46544C18.5813 4.02951 18.9567 3.84869 19.3835 3.76835C19.8101 3.688 20.2882 3.70812 21.0264 3.89832C21.7646 4.08859 22.7629 4.4488 23.8028 4.96323Z" fill="#1CEFFF" fill-opacity="0.6"/>
<g style="mix-blend-mode:multiply">
<path fill-rule="evenodd" clip-rule="evenodd" d="M25.6081 5.05115C26.8971 5.73047 28.2546 6.503 29.2845 7.3482C30.3145 8.19347 31.0168 9.11141 31.2087 9.72752C31.4006 10.3436 31.082 10.6578 30.4713 10.7334C29.8605 10.809 28.9577 10.646 27.9019 10.2935C26.8461 9.94097 25.6374 9.39888 24.538 8.82202C23.4387 8.24524 22.4487 7.63354 21.6344 7.05618C20.8201 6.4789 20.1813 5.93588 19.7284 5.48509C19.2754 5.0343 19.0083 4.6758 18.865 4.2639C18.7216 3.852 18.7021 3.38677 19.225 3.20048C19.7478 3.01419 20.813 3.10691 21.9558 3.44629C23.0987 3.78573 24.3191 4.37183 25.6081 5.05115Z" fill="#94FF63" fill-opacity="0.6"/>
</g>
<path fill-rule="evenodd" clip-rule="evenodd" d="M24.8245 8.3712C25.504 8.79013 26.3575 9.23438 27.3176 9.57753C28.2777 9.92067 29.3443 10.1628 30.13 10.1713C30.9159 10.1799 31.4559 9.95712 31.7102 9.10289C31.9646 8.24873 32.1047 7.07609 31.8944 5.88334C31.6842 4.69066 31.0885 3.47569 30.514 2.85404C29.9394 2.23238 29.2145 1.89102 28.3903 1.71468C27.5661 1.53835 26.6425 1.52697 25.7549 1.74639C24.8673 1.96575 24.0155 2.41576 23.3732 3.00229C22.7308 3.58881 22.2977 4.31179 22.2927 5.02836C22.2878 5.74487 22.7109 6.45504 23.1751 7.00687C23.6395 7.5587 24.145 7.95233 24.8245 8.3712Z" fill="url(#paint3_linear)"/>
<path fill-rule="evenodd" clip-rule="evenodd" d="M17.9852 5.97326C18.1215 5.55162 18.3538 5.18772 18.7737 5.04061C19.1936 4.89342 19.8012 4.96303 20.4335 5.11306C21.0658 5.26316 21.7228 5.4936 22.4504 5.91354C23.1781 6.33347 23.9764 6.94282 24.5361 7.5964C25.0959 8.24991 25.4171 8.94764 25.472 9.62205C25.5269 10.2965 25.3154 10.9477 24.9323 11.4435C24.5493 11.9393 23.9948 12.2797 23.4083 12.4746C22.8217 12.6695 22.2031 12.7191 21.5718 12.6228C20.9406 12.5266 20.2967 12.2847 19.7883 11.9175C19.2801 11.5504 18.9076 11.058 18.6341 10.5523C18.3608 10.0465 18.1866 9.52727 18.0588 8.99194C17.9309 8.45653 17.8494 7.90506 17.829 7.38956C17.8084 6.87414 17.8488 6.39483 17.9852 5.97326Z" fill="url(#paint4_linear)"/>
<path fill-rule="evenodd" clip-rule="evenodd" d="M21.2008 11.6119C21.6247 11.6245 22.0676 11.5686 22.4262 11.3708C22.7848 11.1728 23.0592 10.8328 23.209 10.4123C23.3587 9.99179 23.3836 9.4908 23.2136 8.98213C23.0435 8.47338 22.6782 7.95703 22.1635 7.54293C21.6489 7.12876 20.9849 6.81676 20.4428 6.60217C19.9008 6.38758 19.4809 6.27026 19.0947 6.35366C18.7085 6.437 18.3561 6.72098 18.185 7.09491C18.0138 7.46877 18.0241 7.93265 18.08 8.35407C18.1359 8.77557 18.2374 9.15476 18.3978 9.52059C18.558 9.88641 18.7772 10.2389 19.0485 10.5561C19.3199 10.8734 19.6433 11.1555 20.0076 11.337C20.3719 11.5184 20.7769 11.5994 21.2008 11.6119Z" fill="url(#paint5_linear)"/>
<path fill-rule="evenodd" clip-rule="evenodd" d="M21.0187 8.55345C21.3444 8.94906 21.4901 9.447 21.4214 9.80272C21.3527 10.1585 21.0694 10.3719 20.7075 10.4064C20.3456 10.4409 19.9051 10.2963 19.5681 10.0468C19.2309 9.79732 18.9972 9.4428 18.8724 9.08224C18.7476 8.72175 18.7317 8.35514 18.8849 8.1023C19.038 7.84953 19.3601 7.71052 19.7739 7.7876C20.1876 7.86467 20.6931 8.1579 21.0187 8.55345Z" fill="#0A0FCA" fill-opacity="0.8"/>
<path fill-rule="evenodd" clip-rule="evenodd" d="M28.166 7.47132C28.8152 7.72615 29.6097 7.83921 30.1636 7.70817C30.7174 7.57705 31.0308 7.20184 31.1527 6.73775C31.2746 6.27373 31.205 5.72077 30.9585 5.17057C30.712 4.62045 30.2884 4.0731 29.7116 3.73934C29.1347 3.40558 28.4046 3.28535 27.8003 3.34543C27.1959 3.40551 26.7174 3.64584 26.4309 3.9818C26.1444 4.31776 26.0497 4.74936 26.0947 5.17214C26.1397 5.59499 26.3243 6.00909 26.6685 6.41445C27.0128 6.81981 27.5168 7.21649 28.166 7.47132Z" fill="#FF6D00" fill-opacity="0.856971"/>
<path fill-rule="evenodd" clip-rule="evenodd" d="M27.3159 8.36595C28.0944 8.71784 28.9365 8.97545 29.6432 9.00751C30.3499 9.03965 30.9213 8.84618 31.2944 8.44189C31.6676 8.03753 31.8426 7.42235 31.8316 6.61774C31.8207 5.81307 31.6239 4.81905 31.0354 4.02014C30.4469 3.2213 29.4667 2.61756 28.4486 2.42793C27.4304 2.23837 26.3744 2.46277 25.6248 2.92864C24.8751 3.39451 24.4319 4.10177 24.3968 4.84081C24.3618 5.57993 24.7349 6.35075 25.2788 6.95932C25.8228 7.56789 26.5375 8.01406 27.3159 8.36595Z" fill="#FFFD00" fill-opacity="0.749399"/>
<path fill-rule="evenodd" clip-rule="evenodd" d="M26.3131 4.54514C27.1364 4.93798 27.9754 5.35208 28.6966 5.57812C29.4178 5.80423 30.0213 5.84234 30.4117 5.61588C30.802 5.38948 30.9792 4.89852 30.9984 4.42753C31.0176 3.95647 30.8788 3.50547 30.6008 3.02147C30.3227 2.53747 29.9056 2.02048 29.2479 1.61896C28.5902 1.21752 27.6919 0.931542 26.771 0.893786C25.8501 0.856101 24.9065 1.06657 24.1378 1.33014C23.369 1.59379 22.7752 1.91042 22.2538 2.20265C21.7325 2.49488 21.2837 2.76273 20.8188 2.92221C20.354 3.08169 19.873 3.13289 19.5893 3.09108C19.3057 3.04934 19.2194 2.9146 19.2662 2.79906C19.3132 2.68345 19.4934 2.58703 19.8604 2.54707C20.2274 2.50711 20.7813 2.52375 21.4814 2.67683C22.1817 2.82992 23.0282 3.11952 23.8552 3.45015C24.6823 3.78078 25.4898 4.15236 26.3131 4.54514Z" fill="url(#paint6_radial)"/>
<path fill-rule="evenodd" clip-rule="evenodd" d="M25.2588 2.66377C26.183 2.96347 27.1181 3.22235 27.904 3.31877C28.6898 3.41511 29.3264 3.34899 29.5906 3.05526C29.8547 2.76154 29.7464 2.24021 29.3661 1.75899C28.9858 1.27776 28.3334 0.836496 27.5745 0.59695C26.8155 0.357404 25.95 0.319577 25.2103 0.369634C24.4707 0.419761 23.857 0.557772 23.2864 0.729699C22.7159 0.901555 22.1884 1.10726 21.741 1.23816C21.2935 1.36899 20.9261 1.42509 20.7297 1.46035C20.5333 1.49555 20.5079 1.50998 20.5391 1.51404C20.5703 1.51802 20.6583 1.51155 20.9959 1.538C21.3334 1.56445 21.9206 1.62375 22.6709 1.82369C23.4212 2.02356 24.3345 2.36407 25.2588 2.66377Z" fill="url(#paint7_linear)"/>
<path fill-rule="evenodd" clip-rule="evenodd" d="M23.8691 1.17178C24.3914 1.30168 24.8779 1.45725 25.4108 1.56789C25.9437 1.67853 26.5229 1.7443 27.0063 1.73953C27.4897 1.73484 27.8772 1.65968 28.0171 1.46259C28.157 1.26556 28.049 0.946664 27.7455 0.701857C27.4419 0.457049 26.9426 0.286402 26.4478 0.169509C25.9531 0.0526158 25.4629 -0.0104525 24.917 0.00142173C24.3711 0.0132959 23.7694 0.100113 23.3013 0.203212C22.8332 0.30624 22.4986 0.425551 22.2617 0.512367C22.0247 0.599184 21.8853 0.653436 21.8442 0.695244C21.803 0.736982 21.86 0.766205 21.9407 0.787109C22.0214 0.808013 22.1258 0.820599 22.4571 0.879045C22.7884 0.937492 23.3467 1.04187 23.8691 1.17178Z" fill="url(#paint8_linear)"/>
<path fill-rule="evenodd" clip-rule="evenodd" d="M25.2932 0.764469C25.6634 0.768877 26.0371 0.725505 26.2611 0.655539C26.4852 0.585574 26.5597 0.489087 26.4792 0.384993C26.3987 0.280827 26.1631 0.169124 25.8682 0.100439C25.5732 0.0317532 25.219 0.00615616 24.8704 0.00736491C24.5218 0.00857366 24.179 0.0366593 23.9331 0.092404C23.6872 0.148149 23.5383 0.231552 23.5973 0.33003C23.6563 0.428508 23.9231 0.542059 24.2397 0.624894C24.5565 0.7078 24.9231 0.760061 25.2932 0.764469Z" fill="#A60000"/>
<g style="mix-blend-mode:multiply">
<path fill-rule="evenodd" clip-rule="evenodd" d="M29.408 6.65554C29.8396 6.59916 30.1685 6.23518 30.2188 5.82129C30.2691 5.4074 30.0407 4.9436 29.637 4.66509C29.2333 4.38665 28.6541 4.29343 28.2594 4.39347C27.8646 4.49352 27.6544 4.78681 27.6265 5.12171C27.5986 5.4566 27.7531 5.83302 28.0975 6.14687C28.4419 6.46072 28.9763 6.71193 29.408 6.65554Z" fill="#FF6D00" fill-opacity="0.418187"/>
</g>
<g style="mix-blend-mode:screen">
<path fill-rule="evenodd" clip-rule="evenodd" d="M18.8775 10.9421C19.1181 11.3039 19.4171 11.6422 19.7884 11.913C20.2967 12.2837 20.9406 12.528 21.5718 12.6251C22.2031 12.7222 22.8218 12.6723 23.4083 12.4754C23.9948 12.2786 24.5493 11.9349 24.9323 11.4343C25.3154 10.9337 25.5269 10.2763 25.4721 9.59535C25.4172 8.91435 25.0959 8.20995 24.5361 7.55005C23.9764 6.89023 23.1781 6.27499 22.4504 5.851C21.7228 5.42701 21.0658 5.19426 20.4335 5.04279C19.8012 4.89131 19.1936 4.82103 18.7737 4.96956C18.3538 5.11817 18.1215 5.48552 17.9852 5.91123C17.8622 6.29524 17.8172 6.72677 17.8247 7.1896C17.8423 6.37672 17.9789 6.01568 18.1064 5.74877C18.2338 5.48185 18.3521 5.30913 18.531 5.18543C18.7099 5.06174 18.9493 4.98708 19.3047 4.98392C19.6602 4.98076 20.1315 5.0491 20.6374 5.19563C21.1432 5.34215 21.6833 5.56678 22.1966 5.85064C22.7098 6.13443 23.1961 6.47744 23.6196 6.83424C24.0432 7.1911 24.4041 7.56183 24.6933 8.00039C24.9826 8.43903 25.2001 8.94551 25.2676 9.45306C25.3351 9.96069 25.2525 10.4695 25.041 10.8971C24.8295 11.3247 24.4892 11.6711 24.0929 11.9463C23.6968 12.2214 23.2447 12.4254 22.7484 12.5069C22.2522 12.5884 21.7116 12.5476 21.2419 12.4402C20.7723 12.3329 20.3735 12.1592 20.0663 11.9857C19.7591 11.8123 19.5433 11.6392 19.3525 11.4642C19.1617 11.2892 18.9958 11.1122 18.8775 10.9421Z" fill="white"/>
</g>
<path fill-rule="evenodd" clip-rule="evenodd" d="M22.4276 11.3773C22.069 11.5782 21.6261 11.6349 21.2022 11.6222C20.7783 11.6094 20.3733 11.5273 20.0091 11.343C19.6448 11.1588 19.3213 10.8724 19.0499 10.5501C18.7786 10.228 18.5595 9.87012 18.3992 9.49873C18.2388 9.12728 18.1373 8.74225 18.0814 8.31427C18.0255 7.88629 18.0152 7.41534 18.1864 7.03566C18.3575 6.65605 18.7099 6.36762 19.0961 6.283C19.4823 6.19839 19.9022 6.31744 20.4443 6.53533C20.9863 6.7533 21.6503 7.07002 22.1649 7.49057C22.6796 7.91112 23.0449 8.43542 23.215 8.95191C23.3851 9.46841 23.3601 9.97718 23.2104 10.4042C23.0606 10.8311 22.7862 11.1764 22.4276 11.3773ZM22.3517 7.8047C22.0285 7.47512 21.6199 7.18734 21.205 6.96136C20.7901 6.73539 20.3687 6.57114 20.0341 6.45512C19.6994 6.3391 19.4513 6.27138 19.1613 6.32444C18.8712 6.37751 18.539 6.55136 18.3327 6.88678C18.1264 7.22214 18.0457 7.71922 18.1251 8.31347C18.2044 8.9078 18.4436 9.59937 18.8189 10.1615C19.1942 10.7237 19.7056 11.1563 20.3294 11.3697C20.9533 11.5831 21.6895 11.5774 22.203 11.3503C22.7166 11.1233 23.0076 10.6751 23.1284 10.226C23.2492 9.77705 23.1999 9.32719 23.0563 8.91653C22.9127 8.50588 22.6749 8.13435 22.3517 7.8047Z" fill="white"/>
<path fill-rule="evenodd" clip-rule="evenodd" d="M19.5033 11.7873C19.6241 11.9405 19.755 12.0828 19.8959 12.2129C20.3522 12.634 20.9141 12.9253 21.556 13.1052C22.1978 13.285 22.9196 13.3533 23.6004 13.31C24.2813 13.2666 24.9212 13.1116 25.5985 12.7807C26.2759 12.4499 26.9905 11.9433 27.4798 11.3129C27.9691 10.6826 28.233 9.92865 28.1164 9.15069C27.9997 8.37265 27.5027 7.57068 26.7134 6.83264C25.9241 6.09468 24.8426 5.42065 23.8027 4.90203C22.7627 4.38342 21.7644 4.0202 21.0262 3.82845C20.288 3.63671 19.81 3.61642 19.3833 3.69742C18.9566 3.77835 18.5812 3.96071 18.3856 4.40019C18.3408 4.5009 18.3055 4.61516 18.2778 4.74039C18.4075 4.30026 18.6123 4.0706 18.9031 3.91799C19.194 3.76537 19.5708 3.68975 20.1395 3.74244C20.7083 3.79512 21.4688 3.97612 22.4162 4.35223C23.3634 4.72835 24.4975 5.29958 25.4345 5.95361C26.3715 6.60756 27.1114 7.34423 27.5254 8.08069C27.9394 8.81722 28.0275 9.5534 27.8624 10.1851C27.6973 10.8166 27.2791 11.3436 26.7471 11.8155C26.2152 12.2875 25.5694 12.7045 24.833 12.9455C24.0966 13.1866 23.2693 13.2517 22.5763 13.2055C21.8832 13.1594 21.3242 13.0021 20.8351 12.7725C20.346 12.5429 19.9268 12.241 19.5033 11.7873Z" fill="white"/>
<path fill-rule="evenodd" clip-rule="evenodd" d="M18.7788 3.79223C18.7766 3.54307 18.8842 3.35871 19.0838 3.24481C19.2833 3.13091 19.5747 3.08741 20.0133 3.11157C20.452 3.13573 21.038 3.22755 21.715 3.42774C22.3921 3.628 23.1602 3.93669 24.0399 4.3582C24.9196 4.77971 25.9108 5.31396 26.7306 5.7843C27.5505 6.25456 28.1989 6.6609 28.7748 7.08895C29.3507 7.51708 29.8542 7.96699 30.2237 8.36448C30.5932 8.76197 30.8285 9.10712 30.9825 9.36677C31.1365 9.62642 31.2091 9.80065 31.2366 9.96395C31.2642 10.1272 31.2468 10.2795 31.1241 10.4642C31.2701 10.2963 31.3087 10.0546 31.2088 9.73018C31.0168 9.10712 30.3145 8.17882 29.2845 7.32408C28.2546 6.46927 26.8971 5.68802 25.6081 5.00103C24.3192 4.31405 23.0987 3.72133 21.9559 3.37812C20.813 3.03485 19.7478 2.94115 19.225 3.12955C18.8725 3.25653 18.7665 3.51172 18.7788 3.79223Z" fill="white"/>
<path fill-rule="evenodd" clip-rule="evenodd" d="M30.3529 11.1499C30.3544 11.1501 30.3559 11.1503 30.3573 11.1506C30.6478 11.1924 30.6736 11.2224 30.6608 11.2543C30.6479 11.2861 30.5965 11.3198 30.4624 11.3607C30.3284 11.4017 30.0923 11.4388 29.6591 11.6836C29.2257 11.9285 28.5662 12.3522 27.9218 12.7016C27.2773 13.0511 26.6382 13.3087 25.8851 13.5285C25.1319 13.7484 24.2937 13.9594 23.4942 13.9261C22.7506 13.8951 22.0656 13.6777 21.4331 13.3176C22.6497 13.9392 23.5702 13.8916 24.3175 13.7883C25.0647 13.685 25.6385 13.526 26.2746 13.2814C26.9105 13.0369 27.6087 12.7066 28.1422 12.4121C28.6759 12.1177 29.045 11.8589 29.3585 11.6868C29.672 11.5148 29.9299 11.4293 30.1285 11.3759C30.327 11.3226 30.4662 11.3014 30.5467 11.2818C30.6272 11.2623 30.649 11.2444 30.6246 11.2239C30.6002 11.2033 30.5296 11.18 30.3529 11.1499Z" fill="white"/>
<path fill-rule="evenodd" clip-rule="evenodd" d="M30.4334 2.75031C30.4942 2.84018 30.5497 2.92977 30.6006 3.01837C30.8786 3.50236 31.0174 3.95337 30.9982 4.42436C30.979 4.89534 30.8018 5.38631 30.4115 5.61277C30.0211 5.83923 29.4176 5.80105 28.6964 5.57502C27.9752 5.34891 27.1362 4.93488 26.3129 4.54203C25.4896 4.14919 24.6821 3.7776 23.855 3.44698C23.028 3.11642 22.1815 2.82682 21.4812 2.67373C20.7811 2.52058 20.2272 2.50401 19.8602 2.5439C19.4932 2.58386 19.313 2.68034 19.266 2.79589C19.2612 2.8079 19.2578 2.82006 19.2558 2.83236C19.2823 2.72336 19.3875 2.66833 19.5357 2.63228C19.6839 2.5963 19.8751 2.57931 20.1912 2.59168C20.5073 2.60405 20.9482 2.64572 21.4177 2.74889C21.8873 2.85206 22.3854 3.01673 22.917 3.21987C23.4487 3.42294 24.0137 3.66455 24.7214 3.98338C25.4291 4.30213 26.2796 4.6981 27.0469 5.04352C27.8144 5.38887 28.4988 5.68359 29.0678 5.80973C29.6368 5.93586 30.0904 5.89334 30.3965 5.7377C30.7026 5.58206 30.8614 5.31336 30.9554 5.02496C31.0494 4.73657 31.0786 4.42855 31.044 4.14407C31.0093 3.85959 30.9106 3.59864 30.8009 3.37047C30.6911 3.1423 30.5702 2.94698 30.4334 2.75031Z" fill="white"/>
<path fill-rule="evenodd" clip-rule="evenodd" d="M28.8277 1.23145C29.03 1.3898 29.2041 1.56166 29.3421 1.73894C29.7182 2.22216 29.8253 2.74557 29.5641 3.04051C29.3028 3.33546 28.6733 3.40193 27.8961 3.30511C27.119 3.20837 26.1942 2.94834 25.2802 2.6474C24.3661 2.34646 23.4629 2.00461 22.7209 1.80384C21.9789 1.60314 21.3304 1.5646 20.9966 1.53804C20.6628 1.51155 20.5705 1.51839 20.5397 1.51439C20.532 1.51339 20.5278 1.51175 20.5288 1.50932C20.5236 1.51739 20.5441 1.52974 20.6054 1.53652C20.6667 1.5433 20.7741 1.54425 20.9839 1.56803C21.1936 1.5918 21.5111 1.63807 21.8928 1.72882C22.2745 1.81956 22.7884 1.93371 23.3738 2.13641C23.9593 2.33918 24.6842 2.60927 25.3289 2.82754C25.9736 3.0458 26.538 3.21208 27.0831 3.32061C27.6281 3.42913 28.1538 3.47989 28.5565 3.46997C28.9592 3.46005 29.2391 3.38936 29.4273 3.28434C29.6155 3.17931 29.7121 3.03987 29.7522 2.88051C29.7922 2.72115 29.7757 2.5418 29.7207 2.36695C29.6657 2.1921 29.572 2.02167 29.4651 1.86396C29.3581 1.70624 29.2379 1.56116 28.8277 1.23145Z" fill="white"/>
<path fill-rule="evenodd" clip-rule="evenodd" d="M27.2678 0.42627C27.4514 0.504838 27.615 0.59521 27.7436 0.698878C28.0471 0.943685 28.1555 1.25266 28.0156 1.44969C27.8757 1.64671 27.4906 1.71167 27.0072 1.71643C26.5238 1.72112 25.9446 1.65535 25.4117 1.54472C24.8788 1.43408 24.3924 1.27858 23.87 1.1486C23.3476 1.0187 22.7862 0.927915 22.4549 0.869469C22.1236 0.811022 22.0192 0.798437 21.9386 0.777533C21.8777 0.761748 21.8304 0.74127 21.8284 0.714251C21.8285 0.736506 21.8451 0.756344 21.8671 0.770565C21.889 0.784785 21.9165 0.793318 22.0657 0.826167C22.2151 0.859017 22.4894 0.902517 22.8081 0.974544C23.1268 1.04657 23.4929 1.1336 23.8302 1.22547C24.1674 1.31733 24.4756 1.41396 24.8209 1.50988C25.1663 1.6058 25.5486 1.70093 25.9561 1.76933C26.3635 1.83773 26.796 1.8794 27.1468 1.857C27.4977 1.83461 27.7669 1.74814 27.9235 1.64867C28.0799 1.54927 28.1238 1.43693 28.1395 1.33873C28.1552 1.24054 28.1428 1.1565 28.0986 1.05717C28.0543 0.957835 27.9754 0.86341 27.8539 0.75704C27.7325 0.65067 27.5657 0.552619 27.2678 0.42627Z" fill="white"/>
<path fill-rule="evenodd" clip-rule="evenodd" d="M25.7373 0.0717773C25.7825 0.0800253 25.8267 0.0891265 25.8698 0.099152C26.1647 0.167766 26.4002 0.27954 26.4807 0.383635C26.5613 0.48773 26.4868 0.584287 26.2627 0.654253C26.0386 0.724147 25.665 0.767591 25.2948 0.763182C24.9247 0.758703 24.558 0.706442 24.2413 0.623607C23.9247 0.540701 23.6578 0.427221 23.5989 0.328743C23.5532 0.252379 23.6324 0.185044 23.785 0.132641C23.5463 0.21377 23.5272 0.290632 23.5856 0.377236C23.6441 0.463839 23.7799 0.560041 24.066 0.6502C24.3521 0.740358 24.7883 0.824402 25.1993 0.84104C25.6102 0.857749 25.9958 0.807053 26.2241 0.748677C26.4524 0.690231 26.5233 0.624176 26.5565 0.557695C26.5897 0.491214 26.5852 0.424306 26.5241 0.362375C26.4629 0.300373 26.3451 0.24342 26.2148 0.194928C26.0844 0.146435 25.9417 0.106404 25.7373 0.0717773Z" fill="white"/>
<path fill-rule="evenodd" clip-rule="evenodd" d="M22.3737 13.4917C23.307 13.6798 24.482 13.6964 25.7565 13.2077C27.031 12.7189 28.405 11.7247 29.3504 10.682C30.2959 9.63922 30.8126 8.54795 31.0955 7.52912C31.3785 6.51028 31.4275 5.56387 31.3008 4.78153C31.174 3.99919 30.8447 3.37923 30.5369 2.90545C30.2292 2.43175 29.8619 2.00641 29.2354 1.60938C29.8015 1.93276 30.2398 2.39082 30.5785 2.87927C31.0363 3.53934 31.3454 4.37702 31.4319 5.19583C31.5183 6.01464 31.4088 6.81625 31.1544 7.68138C30.9 8.54651 30.5008 9.47515 29.7791 10.359C29.0574 11.2428 28.0131 12.0818 27.0604 12.6515C26.1078 13.2212 25.2468 13.5216 24.4015 13.6348C23.5563 13.7481 22.7269 13.6741 22.0195 13.4736C21.3121 13.273 20.743 12.9447 20.2462 12.5007C20.7658 12.9442 21.4404 13.3037 22.3737 13.4917Z" fill="white"/>
<defs>
<linearGradient id="paint0_linear" x1="-4.70182" y1="-9.40365" x2="-4.70182" y2="32" gradientUnits="userSpaceOnUse">
<stop stop-color="#08021E"/>
<stop offset="1" stop-color="#074007"/>
</linearGradient>
<linearGradient id="paint1_linear" x1="16.7851" y1="1.42134" x2="19.625" y2="15.642" gradientUnits="userSpaceOnUse">
<stop offset="0.000519012" stop-color="#B00000"/>
<stop offset="1" stop-color="#005CCD"/>
</linearGradient>
<linearGradient id="paint2_linear" x1="18.9196" y1="1.20312" x2="18.9196" y2="13.6561" gradientUnits="userSpaceOnUse">
<stop stop-color="#FFCC35" stop-opacity="0.6"/>
<stop offset="1" stop-color="#24E9FF" stop-opacity="0.6"/>
</linearGradient>
<linearGradient id="paint3_linear" x1="31.5485" y1="1.71483" x2="22.1678" y2="2.72502" gradientUnits="userSpaceOnUse">
<stop stop-color="#F9FF53" stop-opacity="0.6"/>
<stop offset="1" stop-color="#B8FF53" stop-opacity="0.6"/>
</linearGradient>
<linearGradient id="paint4_linear" x1="22.0748" y1="4.41524" x2="16.9433" y2="9.15224" gradientUnits="userSpaceOnUse">
<stop stop-color="#33B1FF" stop-opacity="0.631501"/>
<stop offset="1" stop-color="#338BFF" stop-opacity="0.638139"/>
</linearGradient>
<linearGradient id="paint5_linear" x1="20.5714" y1="5.72913" x2="17.4841" y2="8.91794" gradientUnits="userSpaceOnUse">
<stop stop-color="#0A76FF" stop-opacity="0.7"/>
<stop offset="1" stop-color="#0A4FFF" stop-opacity="0.7"/>
</linearGradient>
<radialGradient id="paint6_radial" cx="0" cy="0" r="1" gradientUnits="userSpaceOnUse" gradientTransform="translate(25.6269 2.00011) scale(4.76344 0.880188)">
<stop stop-color="#FF3000" stop-opacity="0.6"/>
<stop offset="1" stop-color="#FFB900" stop-opacity="0.6"/>
</radialGradient>
<linearGradient id="paint7_linear" x1="19.2586" y1="1.60076" x2="20.005" y2="5.13109" gradientUnits="userSpaceOnUse">
<stop stop-color="#FF0400" stop-opacity="0.7"/>
<stop offset="1" stop-color="#FF8800" stop-opacity="0.7"/>
</linearGradient>
<linearGradient id="paint8_linear" x1="20.6694" y1="0.510884" x2="21.0421" y2="2.78978" gradientUnits="userSpaceOnUse">
<stop stop-color="#BC0000" stop-opacity="0.8"/>
<stop offset="1" stop-color="#EC1A00" stop-opacity="0.8"/>
</linearGradient>
</defs>
</svg>
