<svg width="600" height="600" viewBox="0 0 600 600" fill="none" xmlns="http://www.w3.org/2000/svg">
    <g transform="matrix(0.65,0,0,0.65,0,0)">
        <path d="M300 600C465.685 600 600 465.685 600 300C600 134.315 465.685 0 300 0C134.315 0 0 134.315 0 300C0 465.685 134.315 600 300 600Z" fill="url(#paint0_radial_440_36)"/>
        <path d="M143.415 141.213C131.408 153.82 121.503 164.426 121.403 164.626C121.303 164.926 132.108 175.532 145.416 188.139C158.723 200.846 170.329 211.952 171.13 212.652L172.63 214.053L169.929 218.555C146.216 257.777 141.313 305.003 156.222 348.427C159.023 356.631 163.826 367.137 167.928 374.041C169.929 377.443 170.829 379.644 170.629 380.044C170.429 380.445 158.323 393.252 143.715 408.56C129.107 423.768 117.2 436.475 117 436.676C116.9 436.976 157.822 476.498 161.725 479.699L163.225 481L186.338 456.887C199.045 443.579 210.951 431.072 212.752 429.171L216.154 425.77L219.356 427.771C235.665 438.176 254.775 445.38 275.887 449.182C286.492 451.084 306.703 451.584 318.01 450.183C339.821 447.682 361.433 440.378 379.143 429.672L383.745 426.87L388.648 431.673C399.354 442.079 439.376 480.099 439.776 480.3C440.176 480.5 484.1 434.574 484 433.974C483.9 433.674 453.783 404.758 435.373 387.448L429.27 381.645L432.072 377.043C455.584 337.921 460.487 290.495 445.279 246.771C443.078 240.367 436.374 225.96 432.472 219.356L430.571 216.054L456.285 189.139C470.392 174.431 481.899 162.124 481.799 161.824C481.398 160.824 436.374 118.3 435.774 118.3C435.373 118.3 424.067 129.807 410.56 144.014C397.053 158.122 385.846 169.728 385.546 169.829C385.346 169.929 384.045 169.328 382.845 168.428C379.443 166.127 370.838 161.424 366.036 159.223C351.428 152.519 337.82 148.417 322.012 146.115C313.807 144.915 289.194 144.715 281.59 145.815C263.38 148.417 248.472 152.919 233.263 160.523C228.861 162.625 223.758 165.426 221.757 166.627L218.155 168.828L214.053 164.826C211.852 162.625 201.846 153.219 191.941 143.714C182.036 134.309 171.93 124.704 169.529 122.302L165.126 118L143.415 141.213ZM311.406 206.449C327.315 208.35 341.522 213.753 354.629 222.958C361.333 227.66 371.339 237.666 376.041 244.37C402.756 282.19 397.653 333.619 364.035 365.136C335.319 391.951 293.796 397.954 258.877 380.144C233.664 367.237 215.854 343.624 210.151 315.309C208.35 306.304 208.35 289.494 210.151 280.59C211.852 271.785 214.153 265.481 218.455 256.676C235.665 222.057 272.985 201.846 311.406 206.449Z" fill="white"/>
    </g>
    <g transform="matrix(0.65,0,0,0.65,210,210)">    
        <path d="M300 600C465.685 600 600 465.685 600 300C600 134.315 465.685 0 300 0C134.315 0 0 134.315 0 300C0 465.685 134.315 600 300 600Z" fill="url(#paint0_radial)"/>
        <g filter="url(#filter0_i)">
            <path d="M267.889 360.493C277.967 403.389 266.586 442.757 242.468 448.423C218.35 454.089 190.629 423.909 180.551 381.012C170.472 338.116 181.854 298.748 205.972 293.082C230.089 287.416 257.811 317.597 267.889 360.493Z" fill="url(#paint1_angular)"/>
            <path d="M468.167 268.864C468.167 268.864 463.922 257.12 456.345 246.159C429.177 206.947 354.072 176.021 340.553 170.475C324.618 163.951 308.618 159.123 308.618 159.123C288.178 153.02 269.5 149.12 245.921 147.117C239.783 146.596 219.276 147.378 199.619 158.666L274.919 206.556C264.5 217.5 264.419 258.5 278 297C286.5 325.5 271.5 337 394 305.5C420.556 294.5 421.275 270.104 420.556 273.953L468.167 268.864Z" fill="url(#paint2_linear)"/>
            <path d="M473.717 296.855C473.064 284.72 470.32 274.997 468.166 268.863L420.557 273.953C417.618 288.96 382.284 295.355 350.74 301.031C334.282 303.967 326.978 305.034 314.998 306C304.478 306.849 299.28 306.977 296.537 309C292.064 314.122 297.124 323.576 296.994 350C296.994 359.265 296.93 367.541 296.537 372.5C295.035 390.116 286.057 409.456 290.498 412C292.588 413.174 308.488 404.183 310.971 403.27C320.57 399.746 330.562 397.203 340.424 394.527C366.612 387.546 392.67 381.021 400.834 378.934C412.394 376.78 421.799 374.039 428.525 371.82C440.412 367.84 447.463 364.904 453.994 359.488C476.198 341.416 474.239 306.055 473.717 296.855Z" fill="url(#paint3_linear)"/>
            <path d="M199.619 158.666C169.968 175.694 160.042 207.534 153.838 227.434C146.392 251.313 146 271.996 146 288.699C146 301.682 147.15 319.319 149.5 335.5C151.068 346.46 154.183 370.86 163 395C173 426 192 463.5 230.771 475.428C234.101 475.95 240.567 476.734 248.338 474.515C278.38 465.968 297.255 419.775 297.973 360.011C298.692 346.505 298.626 330.911 296.993 313.622C295.948 302.856 294.315 285.566 288.177 263.775C283.736 248.051 278.511 235.198 274.266 225.933C272.176 219.278 270.87 211.319 274.919 206.556L272 202L199.619 158.666ZM242.657 447.765C218.623 453.441 190.867 423.494 180.745 380.759C170.621 338.024 181.855 298.811 205.888 293.135C229.921 287.459 257.678 317.406 267.8 360.141C277.923 402.812 266.69 442.089 242.657 447.765Z" fill="url(#paint4_radial)"/>
        </g>
    </g>
    <defs>
        <radialGradient id="paint0_radial_440_36" cx="0" cy="0" r="1" gradientUnits="userSpaceOnUse" gradientTransform="translate(196 143.5) rotate(54.1675) scale(497.082)">
            <stop stop-color="#323638"/>
            <stop offset="1"/>
        </radialGradient>
        <radialGradient id="a" cx="0" cy="0" gradientTransform="rotate(54.2 -42.3 263.4) scale(497.082)" gradientUnits="userSpaceOnUse" r="1">
            <stop offset="0" stop-color="#d6edff"/>
            <stop offset="1" stop-color="#2775c9"/>
        </radialGradient>
        <filter id="filter0_i" x="146" y="141" width="327.999" height="335" filterUnits="userSpaceOnUse" color-interpolation-filters="sRGB">
            <feFlood flood-opacity="0" result="BackgroundImageFix"/>
            <feBlend mode="normal" in="SourceGraphic" in2="BackgroundImageFix" result="shape"/>
            <feColorMatrix in="SourceAlpha" type="matrix" values="0 0 0 0 0 0 0 0 0 0 0 0 0 0 0 0 0 0 127 0" result="hardAlpha"/>
            <feOffset dy="-6"/>
            <feGaussianBlur stdDeviation="8"/>
            <feComposite in2="hardAlpha" operator="arithmetic" k2="-1" k3="1"/>
            <feColorMatrix type="matrix" values="0 0 0 0 0 0 0 0 0 0 0 0 0 0 0 0 0 0 0.25 0"/>
            <feBlend mode="normal" in2="shape" result="effect1_innerShadow"/>
        </filter>
        <radialGradient id="paint0_radial" cx="0" cy="0" r="1" gradientUnits="userSpaceOnUse" gradientTransform="translate(196 143.5) rotate(54.1675) scale(497.082)">
            <stop stop-color="#FFE5CB"/>
            <stop offset="1" stop-color="#FFFFFF"/>
            <stop offset="1" stop-color="#FFFFFF"/>
        </radialGradient>
        <radialGradient id="paint1_angular" cx="0" cy="0" r="1" gradientUnits="userSpaceOnUse" gradientTransform="translate(326.5 352.5) rotate(175.956) scale(148.871 91.0086)">
            <stop stop-color="#E8FE42"/>
            <stop offset="0.199738" stop-color="#F35432"/>
            <stop offset="0.404167" stop-color="#EBFB41"/>
            <stop offset="0.555208" stop-color="#84FFC1"/>
            <stop offset="0.701042" stop-color="#5981F2"/>
            <stop offset="0.841667" stop-color="#7AD6CE"/>
            <stop offset="1" stop-color="#E8FF46"/>
        </radialGradient>
        <linearGradient id="paint2_linear" x1="257" y1="171" x2="305.41" y2="348.025" gradientUnits="userSpaceOnUse">
            <stop stop-color="#ED2626"/>
            <stop offset="0.259729" stop-color="#FFA84C"/>
            <stop offset="0.544792" stop-color="#FFD84C"/>
            <stop offset="0.815625" stop-color="#ECFF5A"/>
            <stop offset="1" stop-color="#62CDDD"/>
        </linearGradient>
        <linearGradient id="paint3_linear" x1="332.5" y1="290" x2="370.45" y2="388.519" gradientUnits="userSpaceOnUse">
            <stop stop-color="#FFD84C"/>
            <stop offset="0.196022" stop-color="#EAFF44"/>
            <stop offset="0.357292" stop-color="#CDF364"/>
            <stop offset="0.556721" stop-color="#A2E093"/>
            <stop offset="1" stop-color="#5FCEF1"/>
        </linearGradient>
        <radialGradient id="paint4_radial" cx="0" cy="0" r="1" gradientUnits="userSpaceOnUse" gradientTransform="translate(218 174.5) rotate(84.4117) scale(302.94 117.978)">
            <stop offset="0.1125" stop-color="#ED2626"/>
            <stop offset="0.625386" stop-color="#FFC04C"/>
            <stop offset="0.779167" stop-color="#E9FF3F"/>
            <stop offset="0.904167" stop-color="#71D3D9"/>
            <stop offset="1" stop-color="#4C53FF"/>
        </radialGradient>
    </defs>
</svg>