<?xml version="1.0" encoding="UTF-8"?>
<!DOCTYPE svg PUBLIC "-//W3C//DTD SVG 1.1//EN" "http://www.w3.org/Graphics/SVG/1.1/DTD/svg11.dtd">
<svg xmlns="http://www.w3.org/2000/svg" version="1.1" width="256px" height="256px" style="shape-rendering:geometricPrecision; text-rendering:geometricPrecision; image-rendering:optimizeQuality; fill-rule:evenodd; clip-rule:evenodd" xmlns:xlink="http://www.w3.org/1999/xlink">
<g><path style="opacity:0.994" fill="#3ceaaa" d="M 122.5,45.5 C 122.5,46.1667 122.833,46.5 123.5,46.5C 123.5,47.1667 123.833,47.5 124.5,47.5C 124.5,48.1667 124.833,48.5 125.5,48.5C 125.5,49.1667 125.833,49.5 126.5,49.5C 126.5,50.1667 126.833,50.5 127.5,50.5C 134.474,57.1389 141.474,63.8056 148.5,70.5C 140.833,78.5 133.167,86.5 125.5,94.5C 125.167,94.5 124.833,94.5 124.5,94.5C 117.229,87.7299 110.062,80.7299 103,73.5C 94.9382,81.7297 86.7715,89.7297 78.5,97.5C 77.8333,97.5 77.5,97.8333 77.5,98.5C 76.8333,98.5 76.5,98.8333 76.5,99.5C 75.8333,99.5 75.5,99.8333 75.5,100.5C 74.8333,100.5 74.5,100.833 74.5,101.5C 73.8333,101.5 73.5,101.833 73.5,102.5C 72.8333,102.5 72.5,102.833 72.5,103.5C 71.8333,103.5 71.5,103.833 71.5,104.5C 70.8333,104.5 70.5,104.833 70.5,105.5C 69.8333,105.5 69.5,105.833 69.5,106.5C 65.2981,109.516 62.1315,113.183 60,117.5C 60.7083,118.381 61.5416,119.047 62.5,119.5C 62.5,120.167 62.8333,120.5 63.5,120.5C 63.5,121.167 63.8333,121.5 64.5,121.5C 64.5,122.167 64.8333,122.5 65.5,122.5C 65.5,123.167 65.8333,123.5 66.5,123.5C 66.5,124.167 66.8333,124.5 67.5,124.5C 67.5,125.167 67.8333,125.5 68.5,125.5C 68.5,126.167 68.8333,126.5 69.5,126.5C 69.5,127.167 69.8333,127.5 70.5,127.5C 70.5,128.167 70.8333,128.5 71.5,128.5C 73.2393,131.243 75.5726,133.243 78.5,134.5C 78.5,135.167 78.8333,135.5 79.5,135.5C 79.7856,137.933 80.4523,137.933 81.5,135.5C 86.1667,131.5 90.5,127.167 94.5,122.5C 97.0892,121.581 99.0892,119.914 100.5,117.5C 101.167,117.167 101.833,116.833 102.5,116.5C 110.889,123.888 118.556,131.888 125.5,140.5C 118.52,147.145 111.52,153.812 104.5,160.5C 106.521,163.188 108.854,165.521 111.5,167.5C 111.5,168.167 111.833,168.5 112.5,168.5C 112.5,169.167 112.833,169.5 113.5,169.5C 113.5,170.167 113.833,170.5 114.5,170.5C 114.5,171.167 114.833,171.5 115.5,171.5C 115.5,172.167 115.833,172.5 116.5,172.5C 116.5,173.167 116.833,173.5 117.5,173.5C 117.5,174.167 117.833,174.5 118.5,174.5C 118.5,175.167 118.833,175.5 119.5,175.5C 119.5,176.167 119.833,176.5 120.5,176.5C 121.833,178.5 123.5,180.167 125.5,181.5C 119.876,186.968 114.71,192.968 110,199.5C 109.096,204.731 109.596,209.731 111.5,214.5C 102.167,205.5 92.8333,196.5 83.5,187.5C 83.5,186.833 83.1667,186.5 82.5,186.5C 82.5,185.833 82.1667,185.5 81.5,185.5C 81.5,184.833 81.1667,184.5 80.5,184.5C 80.5,183.833 80.1667,183.5 79.5,183.5C 79.5,182.833 79.1667,182.5 78.5,182.5C 78.5,181.833 78.1667,181.5 77.5,181.5C 77.5,180.833 77.1667,180.5 76.5,180.5C 76.5,179.833 76.1667,179.5 75.5,179.5C 75.5,178.833 75.1667,178.5 74.5,178.5C 61.1934,165.527 47.86,152.527 34.5,139.5C 34.5,138.833 34.1667,138.5 33.5,138.5C 33.5,137.833 33.1667,137.5 32.5,137.5C 32.5,136.833 32.1667,136.5 31.5,136.5C 30.0664,133.953 28.3998,131.619 26.5,129.5C 26.6716,128.508 26.3382,127.842 25.5,127.5C 25.7373,126.209 25.404,125.209 24.5,124.5C 24.7845,122.585 24.4511,120.919 23.5,119.5C 23.4379,111.355 25.7713,104.021 30.5,97.5C 31.1667,97.5 31.5,97.1667 31.5,96.5C 32.1667,96.5 32.5,96.1667 32.5,95.5C 33.1667,95.5 33.5,95.1667 33.5,94.5C 34.1667,94.5 34.5,94.1667 34.5,93.5C 35.1667,93.5 35.5,93.1667 35.5,92.5C 36.1667,92.5 36.5,92.1667 36.5,91.5C 37.1667,91.5 37.5,91.1667 37.5,90.5C 38.1667,90.5 38.5,90.1667 38.5,89.5C 39.1667,89.5 39.5,89.1667 39.5,88.5C 40.1667,88.5 40.5,88.1667 40.5,87.5C 41.1667,87.5 41.5,87.1667 41.5,86.5C 54.1934,74.1393 66.86,61.8059 79.5,49.5C 80.5,49.1667 81.1667,48.5 81.5,47.5C 82.1667,47.5 82.5,47.1667 82.5,46.5C 83.1667,46.5 83.5,46.1667 83.5,45.5C 96.5,36.1667 109.5,36.1667 122.5,45.5 Z M 98.5,117.5 C 99.1667,117.5 99.8333,117.5 100.5,117.5C 99.0892,119.914 97.0892,121.581 94.5,122.5C 95.8333,120.833 97.1667,119.167 98.5,117.5 Z M 71.5,128.5 C 72.1667,128.5 72.8333,128.5 73.5,128.5C 75.1667,130.5 76.8333,132.5 78.5,134.5C 75.5726,133.243 73.2393,131.243 71.5,128.5 Z M 79.5,135.5 C 80.1667,135.5 80.8333,135.5 81.5,135.5C 80.4523,137.933 79.7856,137.933 79.5,135.5 Z"/></g>
<g><path style="opacity:0.004" fill="#3efeed" d="M 83.5,45.5 C 82.8333,45.5 82.5,45.8333 82.5,46.5C 81.8333,46.5 81.5,46.8333 81.5,47.5C 80.8333,47.5 80.1667,47.5 79.5,47.5C 80.375,45.1939 81.7084,44.5272 83.5,45.5 Z"/></g>
<g><path style="opacity:0.004" fill="#2af8ee" d="M 122.5,45.5 C 122.897,44.475 123.563,44.3083 124.5,45C 126.167,46.6667 127.833,48.3333 129.5,50C 128.906,50.4643 128.239,50.631 127.5,50.5C 126.833,50.5 126.5,50.1667 126.5,49.5C 125.833,49.5 125.5,49.1667 125.5,48.5C 124.833,48.5 124.5,48.1667 124.5,47.5C 123.833,47.5 123.5,47.1667 123.5,46.5C 122.833,46.5 122.5,46.1667 122.5,45.5 Z"/></g>
<g><path style="opacity:0.004" fill="#28dd5a" d="M 79.5,47.5 C 79.5,48.1667 79.5,48.8333 79.5,49.5C 77.0673,49.2144 77.0673,48.5477 79.5,47.5 Z"/></g>
<g><path style="opacity:0.012" fill="#27b4f1" d="M 165.5,59.5 C 168.976,58.3567 172.642,58.1901 176.5,59C 172.848,59.4986 169.182,59.6653 165.5,59.5 Z"/></g>
<g><path style="opacity:0.012" fill="#17c4ff" d="M 161.5,60.5 C 162.251,59.4265 163.251,59.2599 164.5,60C 163.552,60.4828 162.552,60.6495 161.5,60.5 Z"/></g>
<g><path style="opacity:0.012" fill="#14aac6" d="M 161.5,60.5 C 161.5,60.8333 161.5,61.1667 161.5,61.5C 158.833,61.1667 158.833,60.8333 161.5,60.5 Z"/></g>
<g><path style="opacity:0.994" fill="#04bce4" d="M 201.5,78.5 C 201.5,79.1667 201.833,79.5 202.5,79.5C 202.5,80.1667 202.833,80.5 203.5,80.5C 203.5,81.1667 203.833,81.5 204.5,81.5C 204.5,82.1667 204.833,82.5 205.5,82.5C 205.5,83.1667 205.833,83.5 206.5,83.5C 206.5,84.1667 206.833,84.5 207.5,84.5C 207.5,85.1667 207.833,85.5 208.5,85.5C 208.5,86.1667 208.833,86.5 209.5,86.5C 209.5,87.1667 209.833,87.5 210.5,87.5C 210.5,88.1667 210.833,88.5 211.5,88.5C 214.221,91.8876 217.221,94.8876 220.5,97.5C 220.5,98.1667 220.833,98.5 221.5,98.5C 223.362,101.448 225.029,104.448 226.5,107.5C 227.989,114.258 227.655,120.925 225.5,127.5C 224.662,127.842 224.328,128.508 224.5,129.5C 223.662,129.842 223.328,130.508 223.5,131.5C 222.662,131.842 222.328,132.508 222.5,133.5C 221.833,133.5 221.5,133.833 221.5,134.5C 220.833,134.5 220.5,134.833 220.5,135.5C 219.833,135.5 219.5,135.833 219.5,136.5C 218.833,136.5 218.5,136.833 218.5,137.5C 217.833,137.5 217.5,137.833 217.5,138.5C 216.833,138.5 216.5,138.833 216.5,139.5C 215.833,139.5 215.5,139.833 215.5,140.5C 214.833,140.5 214.5,140.833 214.5,141.5C 213.833,141.5 213.5,141.833 213.5,142.5C 212.833,142.5 212.5,142.833 212.5,143.5C 211.833,143.5 211.5,143.833 211.5,144.5C 210.833,144.5 210.5,144.833 210.5,145.5C 209.833,145.5 209.5,145.833 209.5,146.5C 208.833,146.5 208.5,146.833 208.5,147.5C 207.833,147.5 207.5,147.833 207.5,148.5C 206.833,148.5 206.5,148.833 206.5,149.5C 205.833,149.5 205.5,149.833 205.5,150.5C 204.833,150.5 204.5,150.833 204.5,151.5C 203.833,151.5 203.5,151.833 203.5,152.5C 202.833,152.5 202.5,152.833 202.5,153.5C 201.833,153.5 201.5,153.833 201.5,154.5C 200.833,154.5 200.5,154.833 200.5,155.5C 199.833,155.5 199.5,155.833 199.5,156.5C 198.833,156.5 198.5,156.833 198.5,157.5C 197.833,157.5 197.5,157.833 197.5,158.5C 196.833,158.5 196.5,158.833 196.5,159.5C 195.833,159.5 195.5,159.833 195.5,160.5C 194.833,160.5 194.5,160.833 194.5,161.5C 193.833,161.5 193.5,161.833 193.5,162.5C 192.833,162.5 192.5,162.833 192.5,163.5C 191.833,163.5 191.5,163.833 191.5,164.5C 190.833,164.5 190.5,164.833 190.5,165.5C 189.833,165.5 189.5,165.833 189.5,166.5C 188.833,166.5 188.5,166.833 188.5,167.5C 187.833,167.5 187.5,167.833 187.5,168.5C 186.833,168.5 186.5,168.833 186.5,169.5C 185.833,169.5 185.5,169.833 185.5,170.5C 184.833,170.5 184.5,170.833 184.5,171.5C 183.833,171.5 183.5,171.833 183.5,172.5C 182.833,172.5 182.5,172.833 182.5,173.5C 181.833,173.5 181.5,173.833 181.5,174.5C 180.833,174.5 180.5,174.833 180.5,175.5C 179.833,175.5 179.5,175.833 179.5,176.5C 178.833,176.5 178.5,176.833 178.5,177.5C 177.833,177.5 177.5,177.833 177.5,178.5C 174.216,180.117 171.549,182.45 169.5,185.5C 168.833,185.5 168.5,185.833 168.5,186.5C 167.833,186.5 167.5,186.833 167.5,187.5C 166.833,187.5 166.5,187.833 166.5,188.5C 165.833,188.5 165.5,188.833 165.5,189.5C 164.833,189.5 164.5,189.833 164.5,190.5C 163.833,190.5 163.5,190.833 163.5,191.5C 162.833,191.5 162.5,191.833 162.5,192.5C 161.833,192.5 161.5,192.833 161.5,193.5C 160.833,193.5 160.5,193.833 160.5,194.5C 159.833,194.5 159.5,194.833 159.5,195.5C 158.833,195.5 158.5,195.833 158.5,196.5C 157.833,196.5 157.5,196.833 157.5,197.5C 156.833,197.5 156.5,197.833 156.5,198.5C 155.833,198.5 155.5,198.833 155.5,199.5C 154.833,199.5 154.5,199.833 154.5,200.5C 153.833,200.5 153.5,200.833 153.5,201.5C 152.833,201.5 152.5,201.833 152.5,202.5C 151.833,202.5 151.5,202.833 151.5,203.5C 150.833,203.5 150.5,203.833 150.5,204.5C 149.833,204.5 149.5,204.833 149.5,205.5C 148.833,205.5 148.5,205.833 148.5,206.5C 147.833,206.5 147.5,206.833 147.5,207.5C 146.833,207.5 146.5,207.833 146.5,208.5C 145.833,208.5 145.5,208.833 145.5,209.5C 144.833,209.5 144.5,209.833 144.5,210.5C 143.833,210.5 143.5,210.833 143.5,211.5C 142.833,211.5 142.5,211.833 142.5,212.5C 141.833,212.5 141.5,212.833 141.5,213.5C 140.833,213.5 140.5,213.833 140.5,214.5C 139.833,214.5 139.5,214.833 139.5,215.5C 138.833,215.5 138.5,215.833 138.5,216.5C 137.833,216.5 137.5,216.833 137.5,217.5C 136.833,217.5 136.5,217.833 136.5,218.5C 135.508,218.328 134.842,218.662 134.5,219.5C 133.833,219.5 133.5,219.833 133.5,220.5C 132.209,220.263 131.209,220.596 130.5,221.5C 122.731,222.772 116.398,220.438 111.5,214.5C 109.596,209.731 109.096,204.731 110,199.5C 114.71,192.968 119.876,186.968 125.5,181.5C 126.167,181.5 126.5,181.167 126.5,180.5C 127.167,180.5 127.5,180.167 127.5,179.5C 128.167,179.5 128.5,179.167 128.5,178.5C 129.167,178.5 129.5,178.167 129.5,177.5C 130.167,177.5 130.5,177.167 130.5,176.5C 131.167,176.5 131.5,176.167 131.5,175.5C 132.167,175.5 132.5,175.167 132.5,174.5C 137.167,170.5 141.5,166.167 145.5,161.5C 146.833,160.833 146.833,160.167 145.5,159.5C 145.5,158.833 145.167,158.5 144.5,158.5C 144.5,157.833 144.167,157.5 143.5,157.5C 137.527,152.194 131.86,146.527 126.5,140.5C 126.351,139.448 126.517,138.448 127,137.5C 134.041,130.291 141.208,123.291 148.5,116.5C 140.839,109.173 133.173,101.84 125.5,94.5C 133.167,86.5 140.833,78.5 148.5,70.5C 149.5,70.1667 150.167,69.5 150.5,68.5C 151.167,68.5 151.5,68.1667 151.5,67.5C 154.614,65.0353 157.947,63.0353 161.5,61.5C 171.724,58.9569 181.058,60.7902 189.5,67C 193.369,71.037 197.369,74.8704 201.5,78.5 Z M 169.5,98.5 C 171.167,99.1667 172.833,99.8333 174.5,100.5C 179.478,105.813 184.478,111.146 189.5,116.5C 186.811,119.52 184.144,122.52 181.5,125.5C 177.5,128.5 173.5,131.5 169.5,134.5C 164.167,128.5 158.5,122.833 152.5,117.5C 152.5,116.833 152.5,116.167 152.5,115.5C 153.167,115.5 153.5,115.167 153.5,114.5C 154.167,114.5 154.5,114.167 154.5,113.5C 155.167,113.5 155.5,113.167 155.5,112.5C 160.5,108.167 165.167,103.5 169.5,98.5 Z M 155.5,111.5 C 155.5,111.833 155.5,112.167 155.5,112.5C 154.833,112.5 154.5,112.833 154.5,113.5C 153.833,113.5 153.5,113.833 153.5,114.5C 152.833,114.5 152.5,114.833 152.5,115.5C 151.833,115.5 151.167,115.5 150.5,115.5C 151.585,113.413 153.251,112.08 155.5,111.5 Z"/></g>
<g><path style="opacity:0.008" fill="#00fffe" d="M 156.5,62.5 C 156.897,61.475 157.563,61.3083 158.5,62C 157.906,62.4643 157.239,62.631 156.5,62.5 Z"/></g>
<g><path style="opacity:0.004" fill="#579eff" d="M 151.5,67.5 C 150.833,67.5 150.5,67.8333 150.5,68.5C 148.025,68.2533 148.025,67.5866 150.5,66.5C 151.107,66.6236 151.44,66.9569 151.5,67.5 Z"/></g>
<g><path style="opacity:0.004" fill="#06f0f0" d="M 201.5,78.5 C 201.897,77.475 202.563,77.3083 203.5,78C 206.833,81.3333 210.167,84.6667 213.5,88C 212.906,88.4643 212.239,88.631 211.5,88.5C 210.833,88.5 210.5,88.1667 210.5,87.5C 209.833,87.5 209.5,87.1667 209.5,86.5C 208.833,86.5 208.5,86.1667 208.5,85.5C 207.833,85.5 207.5,85.1667 207.5,84.5C 206.833,84.5 206.5,84.1667 206.5,83.5C 205.833,83.5 205.5,83.1667 205.5,82.5C 204.833,82.5 204.5,82.1667 204.5,81.5C 203.833,81.5 203.5,81.1667 203.5,80.5C 202.833,80.5 202.5,80.1667 202.5,79.5C 201.833,79.5 201.5,79.1667 201.5,78.5 Z"/></g>
<g><path style="opacity:0.004" fill="#3df6e2" d="M 41.5,86.5 C 40.8333,86.5 40.5,86.8333 40.5,87.5C 39.8333,87.5 39.5,87.8333 39.5,88.5C 38.8333,88.5 38.5,88.8333 38.5,89.5C 37.8333,89.5 37.5,89.8333 37.5,90.5C 36.8333,90.5 36.5,90.8333 36.5,91.5C 35.8333,91.5 35.5,91.8333 35.5,92.5C 34.8333,92.5 34.5,92.8333 34.5,93.5C 33.8333,93.5 33.5,93.8333 33.5,94.5C 32.8333,94.5 32.5,94.8333 32.5,95.5C 31.8333,95.5 31.5,95.8333 31.5,96.5C 30.8333,96.5 30.5,96.8333 30.5,97.5C 29.475,97.1034 29.3083,96.4368 30,95.5C 33.1667,92.3333 36.3333,89.1667 39.5,86C 40.4368,85.3083 41.1034,85.475 41.5,86.5 Z"/></g>
<g><path style="opacity:0.997" fill="#00a5e0" d="M 124.5,94.5 C 124.833,94.5 125.167,94.5 125.5,94.5C 133.173,101.84 140.839,109.173 148.5,116.5C 141.208,123.291 134.041,130.291 127,137.5C 126.517,138.448 126.351,139.448 126.5,140.5C 126.167,140.5 125.833,140.5 125.5,140.5C 118.556,131.888 110.889,123.888 102.5,116.5C 102.833,115.833 103.167,115.167 103.5,114.5C 104.5,114.167 105.167,113.5 105.5,112.5C 106.167,112.5 106.5,112.167 106.5,111.5C 107.167,111.5 107.5,111.167 107.5,110.5C 108.167,110.5 108.5,110.167 108.5,109.5C 109.167,109.5 109.5,109.167 109.5,108.5C 110.167,108.5 110.5,108.167 110.5,107.5C 111.167,107.5 111.5,107.167 111.5,106.5C 112.167,106.5 112.5,106.167 112.5,105.5C 113.167,105.5 113.5,105.167 113.5,104.5C 114.167,104.5 114.5,104.167 114.5,103.5C 115.167,103.5 115.5,103.167 115.5,102.5C 116.167,102.5 116.5,102.167 116.5,101.5C 119.167,99.1667 121.833,96.8333 124.5,94.5 Z"/></g>
<g><path style="opacity:0.004" fill="#38fee5" d="M 78.5,97.5 C 79.2389,97.369 79.9056,97.5357 80.5,98C 77.5,101 74.5,104 71.5,107C 70.5632,107.692 69.8966,107.525 69.5,106.5C 70.1667,106.5 70.5,106.167 70.5,105.5C 71.1667,105.5 71.5,105.167 71.5,104.5C 72.1667,104.5 72.5,104.167 72.5,103.5C 73.1667,103.5 73.5,103.167 73.5,102.5C 74.1667,102.5 74.5,102.167 74.5,101.5C 75.1667,101.5 75.5,101.167 75.5,100.5C 76.1667,100.5 76.5,100.167 76.5,99.5C 77.1667,99.5 77.5,99.1667 77.5,98.5C 78.1667,98.5 78.5,98.1667 78.5,97.5 Z"/></g>
<g><path style="opacity:0.012" fill="#3b9aff" d="M 221.5,98.5 C 220.833,98.5 220.5,98.1667 220.5,97.5C 220.747,95.0248 221.413,95.0248 222.5,97.5C 222.376,98.1067 222.043,98.44 221.5,98.5 Z"/></g>
<g><path style="opacity:0.006" fill="#39acce" d="M 170.5,96.5 C 170.833,96.5 171.167,96.5 171.5,96.5C 171.5,97.1667 171.833,97.5 172.5,97.5C 172.5,98.1667 172.833,98.5 173.5,98.5C 173.5,99.1667 173.833,99.5 174.5,99.5C 174.5,99.8333 174.5,100.167 174.5,100.5C 172.833,99.8333 171.167,99.1667 169.5,98.5C 169.5,98.1667 169.5,97.8333 169.5,97.5C 170.167,97.5 170.5,97.1667 170.5,96.5 Z"/></g>
<g><path style="opacity:0.004" fill="#34ddf6" d="M 116.5,101.5 C 115.833,101.5 115.5,101.833 115.5,102.5C 114.833,102.5 114.5,102.833 114.5,103.5C 113.833,103.5 113.5,103.833 113.5,104.5C 112.833,104.5 112.5,104.833 112.5,105.5C 111.833,105.5 111.5,105.833 111.5,106.5C 110.833,106.5 110.5,106.833 110.5,107.5C 109.833,107.5 109.5,107.833 109.5,108.5C 108.833,108.5 108.5,108.833 108.5,109.5C 107.833,109.5 107.5,109.833 107.5,110.5C 106.833,110.5 106.5,110.833 106.5,111.5C 105.833,111.5 105.5,111.833 105.5,112.5C 104.833,112.5 104.167,112.5 103.5,112.5C 106.963,108.536 110.63,104.702 114.5,101C 115.437,100.308 116.103,100.475 116.5,101.5 Z"/></g>
<g><path style="opacity:0.016" fill="#00d3d3" d="M 227.5,107.5 C 227.167,107.5 226.833,107.5 226.5,107.5C 226.833,104.833 227.167,104.833 227.5,107.5 Z"/></g>
<g><path style="opacity:0.012" fill="#2396ff" d="M 227.5,107.5 C 228.434,108.568 228.768,109.901 228.5,111.5C 227.566,110.432 227.232,109.099 227.5,107.5 Z"/></g>
<g><path style="opacity:0.004" fill="#2cc7df" d="M 228.5,111.5 C 229.638,114.304 229.805,117.304 229,120.5C 228.502,117.518 228.335,114.518 228.5,111.5 Z"/></g>
<g><path style="opacity:0.004" fill="#2ebd5e" d="M 103.5,112.5 C 103.5,113.167 103.5,113.833 103.5,114.5C 101.067,114.214 101.067,113.548 103.5,112.5 Z"/></g>
<g><path style="opacity:0.004" fill="#40fec6" d="M 22.5,119.5 C 21.3775,117.712 21.2109,115.712 22,113.5C 22.4955,115.473 22.6621,117.473 22.5,119.5 Z"/></g>
<g><path style="opacity:0.008" fill="#00bdbd" d="M 150.5,116.5 C 150.5,116.167 150.5,115.833 150.5,115.5C 151.167,115.5 151.833,115.5 152.5,115.5C 152.5,116.167 152.5,116.833 152.5,117.5C 152.167,117.5 151.833,117.5 151.5,117.5C 151.5,116.833 151.167,116.5 150.5,116.5 Z"/></g>
<g><path style="opacity:0.004" fill="#1e5a40" d="M 100.5,117.5 C 99.8333,117.5 99.1667,117.5 98.5,117.5C 99.5477,115.067 100.214,115.067 100.5,117.5 Z"/></g>
<g><path style="opacity:0.004" fill="#39fee5" d="M 62.5,119.5 C 62.8966,118.475 63.5632,118.308 64.5,119C 67.7044,122.036 70.7044,125.203 73.5,128.5C 72.8333,128.5 72.1667,128.5 71.5,128.5C 70.8333,128.5 70.5,128.167 70.5,127.5C 69.8333,127.5 69.5,127.167 69.5,126.5C 68.8333,126.5 68.5,126.167 68.5,125.5C 67.8333,125.5 67.5,125.167 67.5,124.5C 66.8333,124.5 66.5,124.167 66.5,123.5C 65.8333,123.5 65.5,123.167 65.5,122.5C 64.8333,122.5 64.5,122.167 64.5,121.5C 63.8333,121.5 63.5,121.167 63.5,120.5C 62.8333,120.5 62.5,120.167 62.5,119.5 Z"/></g>
<g><path style="opacity:0.008" fill="#56f2e7" d="M 22.5,119.5 C 22.8333,119.5 23.1667,119.5 23.5,119.5C 23.5,121.167 23.5,122.833 23.5,124.5C 22.5489,123.081 22.2155,121.415 22.5,119.5 Z"/></g>
<g><path style="opacity:0.016" fill="#2995ae" d="M 227.5,125.5 C 227.343,124.127 227.51,122.793 228,121.5C 228.765,123.066 228.598,124.399 227.5,125.5 Z"/></g>
<g><path style="opacity:0.012" fill="#51e9bf" d="M 23.5,124.5 C 23.8333,124.5 24.1667,124.5 24.5,124.5C 24.5,125.5 24.5,126.5 24.5,127.5C 23.596,126.791 23.2627,125.791 23.5,124.5 Z"/></g>
<g><path style="opacity:0.008" fill="#1494ff" d="M 227.5,125.5 C 227.672,126.492 227.338,127.158 226.5,127.5C 226.328,126.508 226.662,125.842 227.5,125.5 Z"/></g>
<g><path style="opacity:0.008" fill="#6ce980" d="M 24.5,127.5 C 24.8333,127.5 25.1667,127.5 25.5,127.5C 25.5,128.167 25.5,128.833 25.5,129.5C 24.6618,129.158 24.3284,128.492 24.5,127.5 Z"/></g>
<g><path style="opacity:0.012" fill="#0b9bff" d="M 225.5,127.5 C 225.833,127.5 226.167,127.5 226.5,127.5C 226.672,128.492 226.338,129.158 225.5,129.5C 225.5,128.833 225.5,128.167 225.5,127.5 Z"/></g>
<g><path style="opacity:0.004" fill="#17e4ed" d="M 181.5,125.5 C 181.5,125.833 181.5,126.167 181.5,126.5C 180.833,126.5 180.5,126.833 180.5,127.5C 179.833,127.5 179.5,127.833 179.5,128.5C 178.833,128.5 178.5,128.833 178.5,129.5C 177.833,129.5 177.5,129.833 177.5,130.5C 176.833,130.5 176.5,130.833 176.5,131.5C 175.833,131.5 175.5,131.833 175.5,132.5C 174.833,132.5 174.5,132.833 174.5,133.5C 173.833,133.5 173.5,133.833 173.5,134.5C 172.833,134.5 172.5,134.833 172.5,135.5C 171.833,135.5 171.5,135.833 171.5,136.5C 171.167,136.5 170.833,136.5 170.5,136.5C 170.5,135.833 170.167,135.5 169.5,135.5C 169.5,135.167 169.5,134.833 169.5,134.5C 173.5,131.5 177.5,128.5 181.5,125.5 Z"/></g>
<g><path style="opacity:0.008" fill="#30ff8e" d="M 25.5,129.5 C 25.8333,129.5 26.1667,129.5 26.5,129.5C 26.1667,132.167 25.8333,132.167 25.5,129.5 Z"/></g>
<g><path style="opacity:0.012" fill="#249cc6" d="M 224.5,129.5 C 224.833,129.5 225.167,129.5 225.5,129.5C 225.672,130.492 225.338,131.158 224.5,131.5C 224.5,130.833 224.5,130.167 224.5,129.5 Z"/></g>
<g><path style="opacity:0.004" fill="#1de2ff" d="M 223.5,131.5 C 223.833,131.5 224.167,131.5 224.5,131.5C 224.672,132.492 224.338,133.158 223.5,133.5C 223.5,132.833 223.5,132.167 223.5,131.5 Z"/></g>
<g><path style="opacity:0.012" fill="#00fffe" d="M 222.5,133.5 C 222.833,133.5 223.167,133.5 223.5,133.5C 223.315,134.17 222.981,134.17 222.5,133.5 Z"/></g>
<g><path style="opacity:0.016" fill="#00bfff" d="M 221.5,134.5 C 221.833,134.5 222.167,134.5 222.5,134.5C 222.315,135.17 221.981,135.17 221.5,134.5 Z"/></g>
<g><path style="opacity:0.004" fill="#15eef4" d="M 220.5,135.5 C 220.833,135.5 221.167,135.5 221.5,135.5C 218.167,140.833 213.833,145.167 208.5,148.5C 208.5,148.167 208.5,147.833 208.5,147.5C 209.167,147.5 209.5,147.167 209.5,146.5C 210.167,146.5 210.5,146.167 210.5,145.5C 211.167,145.5 211.5,145.167 211.5,144.5C 212.167,144.5 212.5,144.167 212.5,143.5C 213.167,143.5 213.5,143.167 213.5,142.5C 214.167,142.5 214.5,142.167 214.5,141.5C 215.167,141.5 215.5,141.167 215.5,140.5C 216.167,140.5 216.5,140.167 216.5,139.5C 217.167,139.5 217.5,139.167 217.5,138.5C 218.167,138.5 218.5,138.167 218.5,137.5C 219.167,137.5 219.5,137.167 219.5,136.5C 220.167,136.5 220.5,136.167 220.5,135.5 Z"/></g>
<g><path style="opacity:0.004" fill="#5bff84" d="M 31.5,136.5 C 32.1667,136.5 32.5,136.833 32.5,137.5C 33.1667,137.5 33.5,137.833 33.5,138.5C 34.1667,138.5 34.5,138.833 34.5,139.5C 32.732,140.507 31.3987,139.841 30.5,137.5C 30.6236,136.893 30.9569,136.56 31.5,136.5 Z"/></g>
<g><path style="opacity:0.016" fill="#00bfff" d="M 207.5,148.5 C 207.833,148.5 208.167,148.5 208.5,148.5C 208.315,149.17 207.981,149.17 207.5,148.5 Z"/></g>
<g><path style="opacity:0.016" fill="#00bfbe" d="M 206.5,149.5 C 206.833,149.5 207.167,149.5 207.5,149.5C 207.315,150.17 206.981,150.17 206.5,149.5 Z"/></g>
<g><path style="opacity:0.016" fill="#00bfff" d="M 205.5,150.5 C 205.833,150.5 206.167,150.5 206.5,150.5C 206.315,151.17 205.981,151.17 205.5,150.5 Z"/></g>
<g><path style="opacity:0.016" fill="#00bfff" d="M 204.5,151.5 C 204.833,151.5 205.167,151.5 205.5,151.5C 205.315,152.17 204.981,152.17 204.5,151.5 Z"/></g>
<g><path style="opacity:0.016" fill="#00bfff" d="M 203.5,152.5 C 203.833,152.5 204.167,152.5 204.5,152.5C 204.315,153.17 203.981,153.17 203.5,152.5 Z"/></g>
<g><path style="opacity:0.016" fill="#00bfff" d="M 202.5,153.5 C 202.833,153.5 203.167,153.5 203.5,153.5C 203.315,154.17 202.981,154.17 202.5,153.5 Z"/></g>
<g><path style="opacity:0.016" fill="#00bfff" d="M 201.5,154.5 C 201.833,154.5 202.167,154.5 202.5,154.5C 202.315,155.17 201.981,155.17 201.5,154.5 Z"/></g>
<g><path style="opacity:0.016" fill="#00bfff" d="M 200.5,155.5 C 200.833,155.5 201.167,155.5 201.5,155.5C 201.315,156.17 200.981,156.17 200.5,155.5 Z"/></g>
<g><path style="opacity:0.02" fill="#0099cc" d="M 199.5,156.5 C 199.833,156.5 200.167,156.5 200.5,156.5C 200.315,157.17 199.981,157.17 199.5,156.5 Z"/></g>
<g><path style="opacity:0.02" fill="#0099cc" d="M 198.5,157.5 C 198.833,157.5 199.167,157.5 199.5,157.5C 199.315,158.17 198.981,158.17 198.5,157.5 Z"/></g>
<g><path style="opacity:0.004" fill="#3dc9f0" d="M 143.5,157.5 C 144.167,157.5 144.5,157.833 144.5,158.5C 145.167,158.5 145.5,158.833 145.5,159.5C 145.5,160.167 145.5,160.833 145.5,161.5C 144.038,160.542 142.705,159.376 141.5,158C 142.094,157.536 142.761,157.369 143.5,157.5 Z"/></g>
<g><path style="opacity:0.016" fill="#00bfff" d="M 197.5,158.5 C 197.833,158.5 198.167,158.5 198.5,158.5C 198.315,159.17 197.981,159.17 197.5,158.5 Z"/></g>
<g><path style="opacity:0.02" fill="#0099cc" d="M 196.5,159.5 C 196.833,159.5 197.167,159.5 197.5,159.5C 197.315,160.17 196.981,160.17 196.5,159.5 Z"/></g>
<g><path style="opacity:0.02" fill="#0099cc" d="M 195.5,160.5 C 195.833,160.5 196.167,160.5 196.5,160.5C 196.315,161.17 195.981,161.17 195.5,160.5 Z"/></g>
<g><path style="opacity:0.016" fill="#00bfff" d="M 194.5,161.5 C 194.833,161.5 195.167,161.5 195.5,161.5C 195.315,162.17 194.981,162.17 194.5,161.5 Z"/></g>
<g><path style="opacity:0.016" fill="#00bfff" d="M 193.5,162.5 C 193.833,162.5 194.167,162.5 194.5,162.5C 194.315,163.17 193.981,163.17 193.5,162.5 Z"/></g>
<g><path style="opacity:0.016" fill="#00bfff" d="M 192.5,163.5 C 192.833,163.5 193.167,163.5 193.5,163.5C 193.315,164.17 192.981,164.17 192.5,163.5 Z"/></g>
<g><path style="opacity:0.016" fill="#00bfff" d="M 191.5,164.5 C 191.833,164.5 192.167,164.5 192.5,164.5C 192.315,165.17 191.981,165.17 191.5,164.5 Z"/></g>
<g><path style="opacity:0.016" fill="#00bfff" d="M 190.5,165.5 C 190.833,165.5 191.167,165.5 191.5,165.5C 191.315,166.17 190.981,166.17 190.5,165.5 Z"/></g>
<g><path style="opacity:0.016" fill="#00bfff" d="M 189.5,166.5 C 189.833,166.5 190.167,166.5 190.5,166.5C 190.315,167.17 189.981,167.17 189.5,166.5 Z"/></g>
<g><path style="opacity:0.016" fill="#00bfff" d="M 188.5,167.5 C 188.833,167.5 189.167,167.5 189.5,167.5C 189.315,168.17 188.981,168.17 188.5,167.5 Z"/></g>
<g><path style="opacity:0.016" fill="#00bfff" d="M 187.5,168.5 C 187.833,168.5 188.167,168.5 188.5,168.5C 188.315,169.17 187.981,169.17 187.5,168.5 Z"/></g>
<g><path style="opacity:0.004" fill="#39fee5" d="M 111.5,167.5 C 111.897,166.475 112.563,166.308 113.5,167C 116.5,170 119.5,173 122.5,176C 121.906,176.464 121.239,176.631 120.5,176.5C 119.833,176.5 119.5,176.167 119.5,175.5C 118.833,175.5 118.5,175.167 118.5,174.5C 117.833,174.5 117.5,174.167 117.5,173.5C 116.833,173.5 116.5,173.167 116.5,172.5C 115.833,172.5 115.5,172.167 115.5,171.5C 114.833,171.5 114.5,171.167 114.5,170.5C 113.833,170.5 113.5,170.167 113.5,169.5C 112.833,169.5 112.5,169.167 112.5,168.5C 111.833,168.5 111.5,168.167 111.5,167.5 Z"/></g>
<g><path style="opacity:0.016" fill="#00bfbe" d="M 186.5,169.5 C 186.833,169.5 187.167,169.5 187.5,169.5C 187.315,170.17 186.981,170.17 186.5,169.5 Z"/></g>
<g><path style="opacity:0.012" fill="#00a9ff" d="M 185.5,170.5 C 185.833,170.5 186.167,170.5 186.5,170.5C 186.315,171.17 185.981,171.17 185.5,170.5 Z"/></g>
<g><path style="opacity:0.012" fill="#00a9ff" d="M 184.5,171.5 C 184.833,171.5 185.167,171.5 185.5,171.5C 185.315,172.17 184.981,172.17 184.5,171.5 Z"/></g>
<g><path style="opacity:0.012" fill="#00a9ff" d="M 183.5,172.5 C 183.833,172.5 184.167,172.5 184.5,172.5C 184.315,173.17 183.981,173.17 183.5,172.5 Z"/></g>
<g><path style="opacity:0.012" fill="#00a9ff" d="M 182.5,173.5 C 182.833,173.5 183.167,173.5 183.5,173.5C 183.315,174.17 182.981,174.17 182.5,173.5 Z"/></g>
<g><path style="opacity:0.012" fill="#00a9ff" d="M 181.5,174.5 C 181.833,174.5 182.167,174.5 182.5,174.5C 182.315,175.17 181.981,175.17 181.5,174.5 Z"/></g>
<g><path style="opacity:0.012" fill="#00aaa9" d="M 180.5,175.5 C 180.833,175.5 181.167,175.5 181.5,175.5C 181.315,176.17 180.981,176.17 180.5,175.5 Z"/></g>
<g><path style="opacity:0.012" fill="#00aaa9" d="M 179.5,176.5 C 179.833,176.5 180.167,176.5 180.5,176.5C 180.315,177.17 179.981,177.17 179.5,176.5 Z"/></g>
<g><path style="opacity:0.004" fill="#2ae5e0" d="M 132.5,174.5 C 131.833,174.5 131.5,174.833 131.5,175.5C 130.833,175.5 130.5,175.833 130.5,176.5C 129.833,176.5 129.5,176.833 129.5,177.5C 128.833,177.5 128.5,177.833 128.5,178.5C 127.833,178.5 127.5,178.833 127.5,179.5C 126.833,179.5 126.5,179.833 126.5,180.5C 125.711,180.217 125.044,179.717 124.5,179C 126.792,177.71 128.792,176.043 130.5,174C 131.437,173.308 132.103,173.475 132.5,174.5 Z"/></g>
<g><path style="opacity:0.012" fill="#00aaa9" d="M 178.5,177.5 C 178.833,177.5 179.167,177.5 179.5,177.5C 179.315,178.17 178.981,178.17 178.5,177.5 Z"/></g>
<g><path style="opacity:0.012" fill="#00aaa9" d="M 177.5,178.5 C 177.833,178.5 178.167,178.5 178.5,178.5C 178.315,179.17 177.981,179.17 177.5,178.5 Z"/></g>
<g><path style="opacity:0.004" fill="#3af7e6" d="M 74.5,178.5 C 75.1667,178.5 75.5,178.833 75.5,179.5C 76.1667,179.5 76.5,179.833 76.5,180.5C 77.1667,180.5 77.5,180.833 77.5,181.5C 78.1667,181.5 78.5,181.833 78.5,182.5C 79.1667,182.5 79.5,182.833 79.5,183.5C 80.1667,183.5 80.5,183.833 80.5,184.5C 81.1667,184.5 81.5,184.833 81.5,185.5C 82.1667,185.5 82.5,185.833 82.5,186.5C 83.1667,186.5 83.5,186.833 83.5,187.5C 83.1034,188.525 82.4368,188.692 81.5,188C 78.5,185 75.5,182 72.5,179C 73.0944,178.536 73.7611,178.369 74.5,178.5 Z"/></g>
<g><path style="opacity:0.005" fill="#22d8e7" d="M 169.5,185.5 C 170.239,185.369 170.906,185.536 171.5,186C 167.905,190.104 163.905,193.604 159.5,196.5C 159.5,196.167 159.5,195.833 159.5,195.5C 160.167,195.5 160.5,195.167 160.5,194.5C 161.167,194.5 161.5,194.167 161.5,193.5C 162.167,193.5 162.5,193.167 162.5,192.5C 163.167,192.5 163.5,192.167 163.5,191.5C 164.167,191.5 164.5,191.167 164.5,190.5C 165.167,190.5 165.5,190.167 165.5,189.5C 166.167,189.5 166.5,189.167 166.5,188.5C 167.167,188.5 167.5,188.167 167.5,187.5C 168.167,187.5 168.5,187.167 168.5,186.5C 169.167,186.5 169.5,186.167 169.5,185.5 Z"/></g>
<g><path style="opacity:0.016" fill="#00bfff" d="M 158.5,196.5 C 158.833,196.5 159.167,196.5 159.5,196.5C 159.315,197.17 158.981,197.17 158.5,196.5 Z"/></g>
<g><path style="opacity:0.016" fill="#00bfff" d="M 157.5,197.5 C 157.833,197.5 158.167,197.5 158.5,197.5C 158.315,198.17 157.981,198.17 157.5,197.5 Z"/></g>
<g><path style="opacity:0.016" fill="#00bfff" d="M 156.5,198.5 C 156.833,198.5 157.167,198.5 157.5,198.5C 157.315,199.17 156.981,199.17 156.5,198.5 Z"/></g>
<g><path style="opacity:0.016" fill="#00bfff" d="M 155.5,199.5 C 155.833,199.5 156.167,199.5 156.5,199.5C 156.315,200.17 155.981,200.17 155.5,199.5 Z"/></g>
<g><path style="opacity:0.016" fill="#00bfff" d="M 154.5,200.5 C 154.833,200.5 155.167,200.5 155.5,200.5C 155.315,201.17 154.981,201.17 154.5,200.5 Z"/></g>
<g><path style="opacity:0.016" fill="#00bfff" d="M 153.5,201.5 C 153.833,201.5 154.167,201.5 154.5,201.5C 154.315,202.17 153.981,202.17 153.5,201.5 Z"/></g>
<g><path style="opacity:0.016" fill="#00bfff" d="M 152.5,202.5 C 152.833,202.5 153.167,202.5 153.5,202.5C 153.315,203.17 152.981,203.17 152.5,202.5 Z"/></g>
<g><path style="opacity:0.016" fill="#00bfff" d="M 151.5,203.5 C 151.833,203.5 152.167,203.5 152.5,203.5C 152.315,204.17 151.981,204.17 151.5,203.5 Z"/></g>
<g><path style="opacity:0.02" fill="#0099cc" d="M 150.5,204.5 C 150.833,204.5 151.167,204.5 151.5,204.5C 151.315,205.17 150.981,205.17 150.5,204.5 Z"/></g>
<g><path style="opacity:0.02" fill="#0099cc" d="M 149.5,205.5 C 149.833,205.5 150.167,205.5 150.5,205.5C 150.315,206.17 149.981,206.17 149.5,205.5 Z"/></g>
<g><path style="opacity:0.016" fill="#00bfff" d="M 148.5,206.5 C 148.833,206.5 149.167,206.5 149.5,206.5C 149.315,207.17 148.981,207.17 148.5,206.5 Z"/></g>
<g><path style="opacity:0.02" fill="#0099cc" d="M 147.5,207.5 C 147.833,207.5 148.167,207.5 148.5,207.5C 148.315,208.17 147.981,208.17 147.5,207.5 Z"/></g>
<g><path style="opacity:0.02" fill="#0099cc" d="M 146.5,208.5 C 146.833,208.5 147.167,208.5 147.5,208.5C 147.315,209.17 146.981,209.17 146.5,208.5 Z"/></g>
<g><path style="opacity:0.016" fill="#00bfff" d="M 145.5,209.5 C 145.833,209.5 146.167,209.5 146.5,209.5C 146.315,210.17 145.981,210.17 145.5,209.5 Z"/></g>
<g><path style="opacity:0.016" fill="#00bfff" d="M 144.5,210.5 C 144.833,210.5 145.167,210.5 145.5,210.5C 145.315,211.17 144.981,211.17 144.5,210.5 Z"/></g>
<g><path style="opacity:0.016" fill="#00bfff" d="M 143.5,211.5 C 143.833,211.5 144.167,211.5 144.5,211.5C 144.315,212.17 143.981,212.17 143.5,211.5 Z"/></g>
<g><path style="opacity:0.016" fill="#00bfff" d="M 142.5,212.5 C 142.833,212.5 143.167,212.5 143.5,212.5C 143.315,213.17 142.981,213.17 142.5,212.5 Z"/></g>
<g><path style="opacity:0.016" fill="#00bfff" d="M 141.5,213.5 C 141.833,213.5 142.167,213.5 142.5,213.5C 142.315,214.17 141.981,214.17 141.5,213.5 Z"/></g>
<g><path style="opacity:0.016" fill="#00bfff" d="M 140.5,214.5 C 140.833,214.5 141.167,214.5 141.5,214.5C 141.315,215.17 140.981,215.17 140.5,214.5 Z"/></g>
<g><path style="opacity:0.016" fill="#00bfff" d="M 139.5,215.5 C 139.833,215.5 140.167,215.5 140.5,215.5C 140.315,216.17 139.981,216.17 139.5,215.5 Z"/></g>
<g><path style="opacity:0.016" fill="#00bfff" d="M 138.5,216.5 C 138.833,216.5 139.167,216.5 139.5,216.5C 139.315,217.17 138.981,217.17 138.5,216.5 Z"/></g>
<g><path style="opacity:0.012" fill="#00a9ff" d="M 137.5,217.5 C 137.833,217.5 138.167,217.5 138.5,217.5C 138.315,218.17 137.981,218.17 137.5,217.5 Z"/></g>
<g><path style="opacity:0.012" fill="#00aaa9" d="M 136.5,218.5 C 136.833,218.5 137.167,218.5 137.5,218.5C 137.315,219.17 136.981,219.17 136.5,218.5 Z"/></g>
<g><path style="opacity:0.004" fill="#00e1e1" d="M 134.5,220.5 C 134.5,220.167 134.5,219.833 134.5,219.5C 135.167,219.5 135.833,219.5 136.5,219.5C 136.158,220.338 135.492,220.672 134.5,220.5 Z"/></g>
<g><path style="opacity:0.012" fill="#00a9ff" d="M 133.5,220.5 C 133.833,220.5 134.167,220.5 134.5,220.5C 134.315,221.17 133.981,221.17 133.5,220.5 Z"/></g>
<g><path style="opacity:0.012" fill="#45a8df" d="M 130.5,222.5 C 130.5,222.167 130.5,221.833 130.5,221.5C 131.5,221.5 132.5,221.5 133.5,221.5C 132.791,222.404 131.791,222.737 130.5,222.5 Z"/></g>
<g><path style="opacity:0.012" fill="#15bfd9" d="M 130.5,222.5 C 127.36,223.641 124.027,223.808 120.5,223C 123.817,222.502 127.15,222.335 130.5,222.5 Z"/></g>
</svg>
