<svg width="240" height="240" viewBox="0 0 240 240" fill="none" xmlns="http://www.w3.org/2000/svg">
<g clip-path="url(#clip0_1_21121)">
<circle cx="120" cy="120" r="120" fill="#3CEAAA"/>
<path fill-rule="evenodd" clip-rule="evenodd" d="M89.3515 61.6359C96.8366 54.1214 108.896 54.1214 116.381 61.6359L136.757 81.6748L140.084 78.335C147.569 70.8204 159.629 70.8204 167.114 78.335L187.074 97.9563C194.975 105.471 194.975 117.995 187.074 125.927L133.015 179.364C125.53 186.879 113.47 186.879 105.985 179.364L51.9257 125.927C44.0248 118.413 44.0248 105.888 51.9257 97.9563L89.3515 61.6359ZM123.45 95.4515L103.49 75.8301L66.0644 112.15L86.0247 131.772L123.45 95.4515ZM100.163 145.549L120.124 165.17L140.084 145.549L120.124 125.927L100.163 145.549ZM133.847 112.15L153.807 131.772L174.183 112.15L154.223 92.5291L133.847 112.15Z" fill="black" fill-opacity="0.6"/>
</g>
<defs>
<clipPath id="clip0_1_21121">
<rect width="240" height="240" fill="white"/>
</clipPath>
</defs>
</svg>
