<svg width="32" height="32" viewBox="0 0 32 32" fill="none" xmlns="http://www.w3.org/2000/svg">
<path d="M0 16C0 7.16344 7.16344 0 16 0C24.8366 0 32 7.16344 32 16C32 24.8366 24.8366 32 16 32C7.16344 32 0 24.8366 0 16Z" fill="white"/>
<path fill-rule="evenodd" clip-rule="evenodd" d="M25 16C25 14.8221 24.7656 13.6442 24.3149 12.5559C23.8642 11.4676 23.1969 10.469 22.3639 9.6361C21.531 8.80306 20.5324 8.1358 19.4441 7.68508C18.3558 7.23436 17.1779 7 16 7C14.8221 7 13.6442 7.23436 12.5559 7.68508C11.4676 8.1358 10.469 8.80306 9.6361 9.6361C8.80306 10.469 8.1358 11.4676 7.68508 12.5559C7.23436 13.6442 7 14.8221 7 16C7 17.1779 7.23436 18.3558 7.68508 19.4441C8.1358 20.5324 8.80306 21.531 9.6361 22.3639C10.469 23.1969 11.4676 23.8642 12.5559 24.3149C13.6442 24.7656 14.8221 25 16 25C17.1779 25 18.3558 24.7656 19.4441 24.3149C20.5324 23.8642 21.531 23.1969 22.3639 22.3639C23.1969 21.531 23.8642 20.5324 24.3149 19.4441C24.7656 18.3558 25 17.1779 25 16Z" fill="white"/>
<path fill-rule="evenodd" clip-rule="evenodd" d="M12.8054 13.0275H15.2273V17.3698C15.2273 17.458 15.3004 17.5307 15.3898 17.5307H16.7975C16.8869 17.5307 16.96 17.458 16.96 17.3698V13.0275H19.1945C19.2839 13.0275 19.357 12.9549 19.357 12.8667V11.4728C19.357 11.3841 19.2839 11.312 19.1945 11.312H12.8054C12.7161 11.312 12.643 11.3841 12.643 11.4728V12.8667C12.643 12.9549 12.7161 13.0275 12.8054 13.0275ZM17.4884 19.4803C17.5089 19.5206 17.5261 19.541 17.5805 19.541V19.5414H17.9559C18.0069 19.5414 18.0189 19.5113 18.0106 19.4638C17.9354 19.0454 17.5707 18.7653 17.0463 18.7653C16.4637 18.7653 16.0921 19.0721 16.0921 19.5005C16.0921 19.9293 16.4189 20.0663 16.8892 20.1249C17.2983 20.1758 17.5025 20.2127 17.5025 20.4185C17.5025 20.5904 17.3084 20.6714 17.0868 20.6714C16.8348 20.6714 16.6685 20.5439 16.6098 20.3846C16.5963 20.3477 16.5687 20.3273 16.5211 20.3273H16.1463C16.0985 20.3273 16.0752 20.3441 16.0814 20.3914C16.1463 20.8802 16.5618 21.1129 17.0457 21.1129C17.6039 21.1129 18.0404 20.8532 18.0404 20.3608C18.0404 19.9225 17.72 19.7559 17.1614 19.6895C16.7937 19.6458 16.6265 19.5817 16.6265 19.4264C16.6265 19.2847 16.8069 19.2105 17.0217 19.2105C17.2599 19.2105 17.4168 19.3151 17.4884 19.4803ZM12.085 21.0862C12.0511 21.0862 12.0237 21.0554 12.0237 21.0219V19.3114C12.0237 19.2779 11.9962 19.2474 11.9626 19.2474H11.3525C11.3182 19.2474 11.2876 19.2202 11.2876 19.1867V18.8561C11.2876 18.8226 11.3187 18.7921 11.3525 18.7921H13.2297C13.2635 18.7921 13.2944 18.8222 13.2944 18.8561V19.1867C13.2944 19.2202 13.2635 19.2474 13.2297 19.2474H12.6232C12.5894 19.2474 12.5585 19.2777 12.5585 19.3114V21.0219C12.5585 21.0554 12.5311 21.0862 12.4972 21.0862H12.085ZM15.1681 18.8561C15.1681 18.8226 15.1955 18.7921 15.2294 18.7921H15.6382C15.6721 18.7921 15.7029 18.8222 15.7029 18.8561V20.0235C15.7029 20.7153 15.3078 21.1165 14.6808 21.1165C14.0574 21.1165 13.6655 20.7153 13.6655 20.0235V18.8561C13.6655 18.8226 13.6932 18.7921 13.7268 18.7921H14.1357C14.1697 18.7921 14.2004 18.8222 14.2004 18.8561V20.04C14.2004 20.3809 14.3774 20.6235 14.6842 20.6235C14.9911 20.6235 15.1681 20.3809 15.1681 20.04V18.8561ZM18.4424 21.0219C18.4424 21.0554 18.4698 21.0862 18.5037 21.0862H19.4302C20.1254 21.0862 20.6534 20.6205 20.6534 19.9458C20.6534 19.2609 20.1185 18.7921 19.4302 18.7921H18.5037C18.4698 18.7921 18.4424 18.8226 18.4424 18.8561V21.0219ZM20.0911 19.9386C20.0911 20.34 19.8018 20.6305 19.4302 20.6305V20.6298H19.0419C19.0081 20.6298 18.9804 20.6027 18.9804 20.5691V19.311C18.9804 19.2771 19.0081 19.2469 19.0419 19.2469H19.4268C19.8014 19.2469 20.0911 19.5374 20.0911 19.9386Z" fill="black"/>
<path fill-rule="evenodd" clip-rule="evenodd" d="M11.855 3.38356C13.3455 2.89364 14.9385 2.66964 16.5164 2.73012C18.0946 2.7906 19.6582 3.13588 21.1132 3.74388C22.5686 4.35188 23.9154 5.22292 25.0678 6.29748C26.5919 7.71924 27.7753 9.49748 28.485 11.4866C29.1951 13.476 29.4316 15.6764 29.1577 17.7711C28.8841 19.8658 28.1001 21.8552 26.9142 23.566C25.7282 25.2767 24.1401 26.7084 22.2748 27.7004C20.4095 28.692 18.2665 29.2437 16.1542 29.2757C14.0418 29.3077 11.9599 28.8204 10.0953 27.8949C8.23095 26.9695 6.58359 25.6063 5.33271 23.9036C4.08183 22.2008 3.22743 20.1586 2.88823 18.0748C2.54903 15.9906 2.72503 13.8645 3.37495 11.8812C3.86615 10.3816 4.62839 8.96404 5.60503 7.73556H4.12055V5.2818H9.93719V10.7135H7.48343V9.22932C6.68343 10.2354 6.05879 11.3967 5.65655 12.6255C5.12439 14.2511 4.98103 15.9951 5.25655 17.6968C5.59895 19.8136 6.58903 21.8648 8.06679 23.4456C9.83447 25.3362 12.2998 26.5541 14.8662 26.8207C17.4322 27.0872 20.0994 26.4028 22.2175 24.9285C24.3356 23.4543 25.9052 21.1903 26.5423 18.6898C27.1794 16.1893 26.8841 13.4524 25.7353 11.142C24.5865 8.83156 22.5839 6.94836 20.1894 5.95892C17.7948 4.96916 15.0079 4.87381 12.6041 5.66356L11.855 3.38356Z" fill="url(#paint0_linear_537_285860)"/>
<defs>
<linearGradient id="paint0_linear_537_285860" x1="2.04365" y1="13.297" x2="15.2224" y2="29.5763" gradientUnits="userSpaceOnUse">
<stop stop-color="#004CFF"/>
<stop offset="0.252131" stop-color="#00E0FB"/>
<stop offset="0.505709" stop-color="#87FF70"/>
<stop offset="0.755054" stop-color="#F8F500"/>
<stop offset="1" stop-color="#FF1A00"/>
</linearGradient>
</defs>
</svg>
