<svg width="200" height="201" viewBox="0 0 200 201" fill="none" xmlns="http://www.w3.org/2000/svg" xmlns:xlink="http://www.w3.org/1999/xlink">
<rect y="0.5" width="200" height="200" rx="100" fill="#F3F3F4"/>
<g style="mix-blend-mode:luminosity">
<path d="M132.527 119.551C118.665 119.728 107.878 117.809 99.8723 115.214C98.3027 114.681 94.8771 113.121 93.7317 111.147C93.0979 110.055 93.0904 107.251 93.3106 104.365C93.3727 104.565 93.4451 104.74 93.5287 104.884C94.6719 106.859 98.1185 108.414 99.6989 108.944C107.76 111.526 118.633 113.424 132.621 113.218C148.175 112.988 157.722 111.155 163.329 108.983C163.326 109.033 163.322 109.083 163.319 109.133C163.086 112.722 162.86 116.204 153.666 117.84C148.345 118.786 141.431 119.438 132.527 119.551Z" fill="#FF1100"/>
<path d="M132.527 124.61C118.665 124.787 107.878 122.868 99.8723 120.273C98.3027 119.74 94.8771 118.18 93.7317 116.206C93.0979 115.113 93.0904 112.309 93.3106 109.424C93.3727 109.624 93.4451 109.799 93.5287 109.943C94.6719 111.918 98.1185 113.473 99.6989 114.003C107.76 116.585 118.633 118.483 132.621 118.277C148.175 118.047 157.722 116.214 163.329 114.042C163.326 114.092 163.322 114.142 163.319 114.192C163.086 117.78 162.86 121.263 153.666 122.899C148.345 123.845 141.431 124.497 132.527 124.61Z" fill="#FDBF41"/>
<path d="M166.629 119.45C166.758 122.696 159.461 129.284 129.241 129.669C115.379 129.845 104.592 127.927 96.5864 125.332C95.0168 124.799 91.5912 123.239 90.4458 121.265C89.8119 120.172 89.8044 117.368 90.0247 114.483C90.0868 114.683 90.1592 114.858 90.2428 115.002C91.3859 116.977 94.8325 118.532 96.413 119.062C104.474 121.644 115.347 123.542 129.335 123.335C153.42 122.98 163.102 118.78 166.054 115.428L166.629 119.45Z" fill="#F1ECE2"/>
<path d="M130.306 60.2055C135.882 62.2001 144.136 73.2273 132.547 101.38C127.231 114.293 119.596 123.003 111.936 128.705C110.393 129.807 106.35 131.954 102.527 131.726C101.03 131.637 98.2031 130.7 94.9702 129.423C95.7198 129.621 96.3579 129.743 96.8514 129.773C100.675 130.003 104.717 127.834 106.261 126.72C113.92 120.958 121.555 112.156 126.871 99.1066C136.44 75.6182 132.482 63.9263 127.673 59.4285L130.306 60.2055Z" fill="#FF1100"/>
<path d="M135.086 60.5259C140.662 62.5779 148.916 73.9228 137.326 102.886C132.01 116.171 124.375 125.133 116.716 130.998C115.173 132.132 111.13 134.341 107.307 134.106C105.81 134.015 102.983 133.051 99.7498 131.737C100.499 131.94 101.138 132.067 101.631 132.097C105.455 132.334 109.497 130.102 111.04 128.956C118.7 123.029 126.335 113.973 131.651 100.547C141.22 76.3826 137.262 64.3539 132.453 59.7265L135.086 60.5259Z" fill="#FDBF41"/>
<path d="M139.268 63.204C144.844 65.2561 153.098 76.601 141.509 105.564C136.193 118.849 128.557 127.811 120.898 133.676C119.355 134.81 115.312 137.019 111.489 136.785C109.992 136.693 107.165 135.73 103.932 134.415C104.682 134.619 105.32 134.745 105.813 134.776C109.637 135.013 113.679 132.78 115.223 131.635C122.882 125.707 130.517 116.651 135.833 103.226C145.402 79.0608 141.444 67.0321 136.635 62.4047L139.268 63.204Z" fill="#F1ECE2"/>
<path d="M145.342 106.865C156.932 76.8289 148.678 65.0639 143.102 62.9359L140.469 62.107C140.519 62.1573 140.569 62.2085 140.62 62.2606C136.575 61.5984 131.035 64.3446 125.808 69.6019C125.061 70.3459 128.334 69.1207 129.392 68.0663C131.931 65.9832 135.73 64.9405 139.3 66.438C147.355 69.817 147.522 87.6127 139.673 106.186C131.824 124.759 119.827 136.779 111.771 133.4C110.694 132.948 109.568 132.103 108.632 131.453C106.471 129.523 105.496 126.945 105.496 120.293L105.496 128.5C104.929 127.656 104.45 126.711 104.078 125.65C104.002 123.864 102.808 120.888 102.44 124.013C102.717 130.83 105.674 134.793 109.665 137.159L109.647 137.158C109.497 137.148 109.382 137.145 109.282 137.142C108.901 137.131 108.747 137.126 107.767 136.801C110.896 138.174 112.61 138.813 114.488 138.885C118.886 139.053 123.996 136.489 125.54 135.314C133.199 129.231 140.026 120.642 145.342 106.865Z" fill="#007FFF"/>
<path d="M129.403 91.6445C143.265 91.468 154.052 93.3864 162.057 95.9814C163.627 96.5146 167.053 98.0745 168.198 100.049C168.832 101.141 168.839 103.945 168.619 106.831C168.557 106.63 168.485 106.456 168.401 106.311C167.258 104.337 163.811 102.782 162.231 102.251C154.17 99.6695 143.297 97.7714 129.309 97.978C113.755 98.2076 104.208 100.041 98.6008 102.213C98.6041 102.163 98.6074 102.113 98.6106 102.063C98.8434 98.4741 99.0694 94.9913 108.264 93.356C113.584 92.4097 120.499 91.7578 129.403 91.6445Z" fill="#FF1100"/>
<path d="M129.403 97.3503C143.265 97.1738 154.052 99.0921 162.057 101.687C163.627 102.22 167.053 103.78 168.198 105.754C168.832 106.847 168.839 109.651 168.619 112.537C168.557 112.336 168.485 112.162 168.401 112.017C167.258 110.043 163.811 108.488 162.231 107.957C154.17 105.375 143.297 103.477 129.309 103.684C113.755 103.913 104.208 105.746 98.6008 107.919C98.6041 107.869 98.6074 107.819 98.6106 107.768C98.8434 104.18 99.0694 100.697 108.264 99.0618C113.584 98.1155 120.499 97.4636 129.403 97.3503Z" fill="#FDBF41"/>
<path opacity="0.48" d="M166.559 121.338C166.695 121.229 166.695 121.218 166.559 121.109C166.244 120.85 165.907 120.624 165.561 120.409C164.408 119.691 163.176 119.144 161.914 118.67C161.626 118.561 161.345 118.43 161.038 118.374C160.954 118.276 160.829 118.268 160.72 118.232C159.542 117.83 158.343 117.5 157.141 117.185C157.04 117.176 156.942 117.154 156.855 117.104C156.292 116.978 155.729 116.85 155.169 116.724C154.127 116.492 153.08 116.292 152.03 116.11C151.252 115.976 150.472 115.85 149.691 115.73C149.082 115.638 148.473 115.543 147.858 115.499C147.757 115.482 147.657 115.462 147.553 115.449C145.402 115.178 143.248 114.974 141.086 114.82C139.674 114.723 138.262 114.645 136.848 114.589C135.001 114.516 133.152 114.483 131.303 114.483C129.01 114.483 126.72 114.541 124.432 114.656C121.789 114.787 119.15 114.994 116.52 115.295C116.091 115.345 115.655 115.373 115.231 115.468C115.144 115.443 115.06 115.468 114.973 115.476C113.099 115.714 111.233 116.007 109.378 116.367C108.282 116.579 107.192 116.813 106.109 117.079L106.087 117.115C106.087 117.115 105.807 121.252 106.427 125.291C107.496 125.551 108.57 125.782 109.648 125.989C110.61 126.173 111.576 126.349 112.547 126.491C113.907 126.692 115.269 126.896 116.637 127.041C117.967 127.184 119.295 127.331 120.627 127.432C121.416 127.491 122.202 127.56 122.991 127.608C124.158 127.678 125.327 127.736 126.494 127.778C127.56 127.817 128.626 127.848 129.692 127.862C131.398 127.884 133.106 127.876 134.811 127.84C136.454 127.803 138.097 127.739 139.737 127.644C141.692 127.532 143.645 127.373 145.595 127.167C148.568 126.851 151.524 126.427 154.453 125.827C157.013 125.302 159.542 124.66 161.995 123.733C163.064 123.331 164.111 122.871 165.107 122.301C165.613 122.014 166.102 121.701 166.559 121.336V121.338Z" fill="url(#paint0_linear_4563_18003)"/>
<path d="M92.0146 112.926C91.8857 109.68 99.1829 103.091 129.403 102.707C143.265 102.53 154.052 104.449 162.058 107.044C163.627 107.577 167.053 109.137 168.198 111.111C168.832 112.203 168.84 115.007 168.619 117.893C168.557 117.693 168.485 117.518 168.401 117.374C167.258 115.399 163.812 113.844 162.231 113.313C154.17 110.732 143.297 108.834 129.309 109.04C105.224 109.396 95.5422 113.596 92.5897 116.948L92.0146 112.926Z" fill="#F1ECE2"/>
<path d="M92.0146 118.877C91.8857 115.631 99.1829 109.043 129.403 108.659C143.265 108.482 154.052 110.4 162.058 112.996C163.627 113.529 167.053 115.089 168.198 117.063C168.769 118.047 168.832 120.42 168.678 122.991C167.453 121.083 163.78 119.785 162.232 119.265C154.171 116.683 143.298 114.785 129.31 114.992C105.223 115.348 95.5415 119.548 92.5898 122.9L92.0146 118.877Z" fill="#007FFF"/>
<path d="M94.7032 130.925C89.1274 128.857 80.8732 117.423 92.463 88.2329C97.779 74.8436 105.414 65.8117 113.074 59.9C114.617 58.7573 118.659 56.5311 122.483 56.7674C124.644 56.9011 129.581 58.8666 134.507 61.0839C134.001 61.1365 133.511 61.1904 133.044 61.2418C131.351 61.4284 129.949 61.5828 129.054 61.5285C125.231 61.2965 121.188 63.4824 119.645 64.6044C111.986 70.4092 104.351 79.2776 99.0345 92.4246C89.4064 116.235 93.4732 128.014 98.3225 132.483L94.7032 130.925Z" fill="#FF1100"/>
<path d="M99.4828 133.219C93.907 131.128 85.6528 119.57 97.2425 90.0629C102.559 76.5282 110.194 67.3984 117.853 61.4224C119.396 60.2673 123.439 58.0169 127.262 58.2558C128.931 58.3601 132.255 59.5685 135.951 61.1455C134.571 60.6828 133.423 60.3884 132.639 60.3391C128.816 60.0985 124.773 62.365 123.23 63.5283C115.57 69.5471 107.935 78.7423 102.619 92.3739C91.0294 122.093 99.5516 133.357 105.127 135.463L109.907 137.099L99.4828 133.219Z" fill="#FDBF41"/>
<path d="M103.963 135.215C98.3874 133.102 90.1332 121.419 101.723 91.595C107.039 77.915 114.674 68.687 122.334 62.6468C123.877 61.4794 127.919 59.2048 131.743 59.4463C133.47 59.5554 136.97 60.86 140.821 62.5359C139.519 62.1203 138.435 61.8576 137.686 61.8093C133.863 61.5626 129.851 63.6061 128.308 64.7984C120.648 70.9669 113.013 80.391 107.697 94.3618C97.8011 120.369 104.659 133.119 109.608 137.397L103.963 135.215Z" fill="#F1ECE2"/>
<path d="M106.502 93.242C94.912 123.278 103.166 135.043 108.742 137.171L111.375 138C111.325 137.949 111.275 137.898 111.224 137.846C115.269 138.508 120.809 135.762 126.036 130.505C126.783 129.761 123.51 130.986 122.452 132.04C119.913 134.123 116.114 135.166 112.544 133.669C104.489 130.29 104.322 112.494 112.171 93.9208C120.02 75.3476 132.017 63.3279 140.073 66.7069C141.15 67.1586 142.276 68.0036 143.212 68.6538C145.373 70.584 146.348 73.1617 146.348 79.8134V71.6068C146.915 72.4502 147.394 73.3956 147.766 74.4567C147.842 76.2423 149.036 79.2181 149.404 76.0935C149.127 69.2761 146.17 65.3135 142.179 62.9479L142.197 62.9491C142.347 62.9587 142.462 62.962 142.562 62.9649C142.943 62.9758 143.097 62.9803 144.077 63.3051C140.948 61.9326 139.234 61.294 137.356 61.222C132.958 61.0534 127.848 63.6172 126.304 64.793C118.645 70.8759 111.818 79.465 106.502 93.242Z" fill="#007FFF"/>
<path d="M131.817 127.682C155.192 127.012 164.944 122.907 168.151 119.565L168.456 122.366L168.603 122.22C168.698 122.538 168.733 123.257 168.587 123.92C168.179 126.775 159.685 134.173 126.784 134.173C125.583 134.173 124.438 134.16 123.349 134.133C125.8 131.95 127.891 129.804 129.683 127.727C130.386 127.717 131.098 127.702 131.817 127.682Z" fill="#007FFF"/>
</g>
<path d="M107.143 97.8214C107.143 75.1383 88.7546 56.75 66.0714 56.75C43.3883 56.75 25 75.1383 25 97.8214C25 120.505 43.3883 138.893 66.0714 138.893C88.7546 138.893 107.143 120.505 107.143 97.8214Z" fill="url(#pattern0_4563_18003)"/>
<path d="M107.143 97.8214C107.143 75.1383 88.7546 56.75 66.0714 56.75C43.3883 56.75 25 75.1383 25 97.8214C25 120.505 43.3883 138.893 66.0714 138.893C88.7546 138.893 107.143 120.505 107.143 97.8214Z" fill="#D7FF00"/>
<path d="M52.3768 117.314H43.8914V78.7948H56.894L64.7079 100.588V107.303H67.3326V100.588L75.4518 78.7948H87.844V117.314H79.4807V97.6578L83.0826 87.0972L80.4576 86.1203L69.3472 117.314H62.8764L51.7051 86.1203L49.3243 87.0972L52.3768 97.6578V117.314Z" fill="black"/>
<defs>
<pattern id="pattern0_4563_18003" patternContentUnits="objectBoundingBox" width="1" height="1">
<use xlink:href="#image0_4563_18003" transform="translate(-0.03125) scale(0.00520833)"/>
</pattern>
<linearGradient id="paint0_linear_4563_18003" x1="138.583" y1="112.995" x2="139.147" y2="125.495" gradientUnits="userSpaceOnUse">
<stop offset="0.16" stop-color="#191919"/>
<stop offset="0.97" stop-color="#191919" stop-opacity="0"/>
</linearGradient>
</defs>
</svg>
