<svg width="260" height="260" viewBox="0 0 260 260" fill="none" xmlns="http://www.w3.org/2000/svg">
    <rect width="260" height="260" rx="130" fill="#25346D" />
    <path d="M130.345 53.8301L104.931 21.7081L155.76 21.7081L130.345 53.8301Z" fill="#C1CCF7" />
    <path fill-rule="evenodd" clip-rule="evenodd"
        d="M44.9229 116C45.487 116 45.9443 116.457 45.9443 117.021V125.165C45.9443 125.571 45.704 125.938 45.3323 126.1L44.3526 126.529L36.858 130.065C36.1482 130.4 36.1505 131.41 36.8618 131.742L38.1802 132.357C38.1921 132.362 38.2056 132.354 38.2054 132.341V132.341C38.2051 132.328 38.2182 132.319 38.2299 132.324L45.3218 135.333C45.6992 135.493 45.9443 135.863 45.9443 136.273V144.408C45.9443 144.972 45.487 145.429 44.9229 145.429H39.4427C38.8857 145.429 38.4314 144.983 38.4215 144.426L38.2449 134.552C38.238 134.164 38.0127 133.814 37.6632 133.648L33.9225 131.865C33.6457 131.733 33.3244 131.732 33.0472 131.863L29.0904 133.73C28.7329 133.898 28.5049 134.258 28.5049 134.653L28.5049 144.408C28.5049 144.972 28.0476 145.429 27.4835 145.429H22.0214C21.4573 145.429 21 144.972 21 144.408L21 136.265C21 135.859 21.2402 135.492 21.612 135.329L28.4696 132.329L29.8716 131.675C30.6077 131.332 30.6121 130.287 29.8789 129.937L28.536 129.297C28.5216 129.29 28.5049 129.301 28.5049 129.317V129.317C28.5049 129.332 28.4887 129.343 28.4743 129.337L21.612 126.334C21.2402 126.172 21 125.804 21 125.399L21 117.255C21 116.691 21.4573 116.234 22.0214 116.234L27.4835 116.234C28.0476 116.234 28.5049 116.691 28.5049 117.255L28.5049 127.194C28.5049 127.591 28.7348 127.952 29.0946 128.12L32.8631 129.877C33.1368 130.005 33.4528 130.005 33.7264 129.877L37.8497 127.955C38.2094 127.787 38.4394 127.426 38.4394 127.029L38.4394 117.021C38.4394 116.457 38.8967 116 39.4608 116H44.9229Z"
        fill="#C1CCF7" />
    <path fill-rule="evenodd" clip-rule="evenodd"
        d="M237.923 117C238.487 117 238.944 117.457 238.944 118.021V126.165C238.944 126.571 238.704 126.938 238.332 127.1L237.353 127.529L229.858 131.065C229.148 131.4 229.151 132.41 229.862 132.742L231.18 133.357C231.192 133.362 231.206 133.354 231.205 133.341C231.205 133.328 231.218 133.319 231.23 133.324L238.322 136.333C238.699 136.493 238.944 136.863 238.944 137.273V145.408C238.944 145.972 238.487 146.429 237.923 146.429H232.443C231.886 146.429 231.431 145.983 231.421 145.426L231.245 135.552C231.238 135.164 231.013 134.814 230.663 134.648L226.922 132.865C226.646 132.733 226.324 132.732 226.047 132.863L222.09 134.73C221.733 134.898 221.505 135.258 221.505 135.653L221.505 145.408C221.505 145.972 221.048 146.429 220.483 146.429H215.021C214.457 146.429 214 145.972 214 145.408V137.265C214 136.859 214.24 136.492 214.612 136.329L221.47 133.329L222.872 132.675C223.608 132.332 223.612 131.287 222.879 130.937L221.536 130.297C221.522 130.29 221.505 130.301 221.505 130.317C221.505 130.332 221.489 130.343 221.474 130.337L214.612 127.334C214.24 127.172 214 126.804 214 126.399V118.255C214 117.691 214.457 117.234 215.021 117.234L220.483 117.234C221.048 117.234 221.505 117.691 221.505 118.255L221.505 128.194C221.505 128.591 221.735 128.952 222.095 129.12L225.863 130.877C226.137 131.005 226.453 131.005 226.726 130.877L230.85 128.955C231.209 128.787 231.439 128.426 231.439 128.029V118.021C231.439 117.457 231.897 117 232.461 117H237.923Z"
        fill="#C1CCF7" />
    <path
        d="M130.2 195C164.552 195 192.4 167.152 192.4 132.8C192.4 98.4475 164.552 70.5996 130.2 70.5996C95.8479 70.5996 68 98.4475 68 132.8C68 167.152 95.8479 195 130.2 195Z"
        fill="#627EEA" />
    <path d="M132.137 86.1406V120.624L161.281 133.649L132.137 86.1406Z" fill="white"
        fill-opacity="0.602" />
    <path d="M132.137 86.1406L102.992 133.649L132.137 120.624V86.1406Z" fill="white" />
    <path d="M132.137 155.993V179.424L161.298 139.074L132.137 155.993Z" fill="white"
        fill-opacity="0.602" />
    <path d="M132.137 179.424V155.993L102.992 139.074L132.137 179.424Z" fill="white" />
    <path d="M132.137 150.569L161.281 133.65L132.137 120.625V150.569Z" fill="white"
        fill-opacity="0.2" />
    <path d="M102.992 133.65L132.137 150.569V120.625L102.992 133.65Z" fill="white"
        fill-opacity="0.602" />
    <path d="M137.516 212V246.766H130.165V218.977H129.962L122 223.968V217.449L130.607 212H137.516Z"
        fill="#C1CCF7" />
</svg>