<svg version="1.1" id="Layer_1" xmlns="http://www.w3.org/2000/svg" xmlns:xlink="http://www.w3.org/1999/xlink" x="0px" y="0px"
	 width="100%" viewBox="0 0 3600 3600" enable-background="new 0 0 3600 3600" xml:space="preserve">
<path fill="#000000" opacity="1.000000" stroke="none" 
	d="
M2.000000,1368.000000 
	C2.000000,912.000000 2.000000,457.000000 2.000000,2.000000 
	C1202.000000,2.000000 2402.000000,2.000000 3602.000000,2.000000 
	C3602.000000,1202.000000 3602.000000,2402.000000 3602.000000,3602.000000 
	C2402.000000,3602.000000 1202.000000,3602.000000 2.000000,3602.000000 
	C2.000000,2857.666748 2.000000,2113.333252 2.000000,1368.000000 
M3049.844482,2790.823730 
	C3068.761475,2765.510010 3088.312988,2740.642334 3106.472412,2714.796387 
	C3154.561523,2646.351318 3197.487305,2574.770508 3233.493652,2499.206299 
	C3248.495117,2467.723389 3262.923584,2435.928955 3276.401855,2403.768799 
	C3292.836182,2364.555664 3307.634277,2324.671387 3319.857178,2283.903320 
	C3327.390137,2258.777344 3335.136963,2233.694580 3341.791504,2208.331055 
	C3355.542725,2155.919434 3367.308594,2103.044189 3374.623047,2049.306152 
	C3379.499512,2013.479980 3384.261230,1977.612061 3387.788574,1941.636841 
	C3390.734619,1911.590210 3392.887939,1881.380249 3393.442871,1851.206909 
	C3394.122559,1814.283569 3393.135742,1777.313232 3392.161621,1740.381958 
	C3391.558350,1717.489746 3390.223877,1694.579712 3388.171875,1671.771729 
	C3385.318604,1640.056030 3382.385742,1608.298462 3377.834473,1576.797485 
	C3372.660889,1540.987793 3366.821777,1505.192627 3359.218506,1469.832764 
	C3344.127441,1399.651001 3324.956543,1330.571411 3300.318848,1263.024414 
	C3282.430420,1213.980469 3262.632324,1165.762817 3239.999023,1118.773193 
	C3224.986572,1087.605347 3208.908691,1056.903320 3192.152344,1026.632324 
	C3154.207764,958.083740 3110.597656,893.243286 3062.940674,831.037415 
	C3021.989746,777.584839 2977.294189,727.479309 2930.031982,679.640930 
	C2911.105225,660.483459 2891.361816,642.085693 2871.312744,624.096924 
	C2847.113281,602.384155 2822.720947,580.821472 2797.435303,560.403564 
	C2773.403564,540.998230 2748.293457,522.904541 2723.333496,504.677856 
	C2682.447266,474.821167 2639.613281,447.896545 2595.770020,422.665070 
	C2556.003418,399.779846 2515.217285,378.783020 2473.538086,359.500214 
	C2422.212158,335.754547 2370.111816,313.927032 2316.346924,296.414490 
	C2278.464111,284.075104 2240.403809,271.968445 2201.794434,262.255768 
	C2159.018799,251.495087 2115.684814,242.727676 2072.295410,234.708755 
	C2041.354370,228.990509 2009.946655,225.728867 1978.693970,221.795197 
	C1963.560059,219.890350 1948.321777,218.697937 1933.098633,217.645966 
	C1904.637451,215.679214 1876.169922,212.962128 1847.674438,212.517990 
	C1796.122070,211.714493 1744.530518,211.478958 1693.053345,215.686996 
	C1679.811035,216.769485 1666.482300,216.977341 1653.290527,218.456085 
	C1628.908447,221.189224 1604.600342,224.580154 1580.257935,227.669327 
	C1531.428955,233.865952 1483.200562,243.407379 1435.365112,254.777557 
	C1381.337891,267.619476 1327.994629,282.910339 1275.639404,301.598389 
	C1230.228882,317.807556 1185.286255,335.247314 1141.581421,355.522125 
	C1106.901611,371.610168 1073.003906,389.452667 1039.218018,407.381256 
	C1000.414734,427.972321 962.973145,450.958405 926.372986,475.246216 
	C886.221558,501.890625 847.390930,530.343994 809.756287,560.486206 
	C771.325806,591.265869 734.021484,623.340759 699.005615,657.888245 
	C669.636108,686.864868 641.234192,716.881714 613.444519,747.386108 
	C570.601379,794.414612 531.908569,844.822327 495.508423,896.980835 
	C442.044098,973.590942 396.449005,1054.755127 357.035034,1139.345581 
	C334.745697,1187.183105 314.900452,1236.159424 298.407410,1286.304565 
	C285.143860,1326.630737 272.501343,1367.275391 262.223175,1408.437988 
	C251.293976,1452.207764 242.685577,1496.609863 234.567856,1541.010742 
	C229.023422,1571.336426 225.096573,1602.042358 222.180389,1632.742920 
	C218.445938,1672.057983 214.842133,1711.508057 214.095886,1750.955078 
	C213.026474,1807.484497 212.004059,1864.115967 217.629517,1920.565552 
	C219.571762,1940.055298 219.845917,1959.749268 222.546738,1979.117798 
	C228.504593,2021.843506 234.768326,2064.554932 242.280945,2107.029297 
	C253.636276,2171.229248 270.508484,2234.163574 290.790924,2296.057617 
	C303.082703,2333.567383 317.703003,2370.340576 332.059723,2407.139404 
	C347.755920,2447.372070 366.091827,2486.456787 386.159271,2524.702881 
	C397.288849,2545.914551 408.340393,2567.185059 420.151337,2588.018311 
	C447.577850,2636.395508 477.601715,2683.117920 510.002167,2728.348389 
	C558.159302,2795.574951 611.473755,2858.426758 669.129456,2917.630127 
	C681.878723,2930.721680 695.235657,2943.228027 708.472961,2955.836182 
	C722.198914,2968.908936 735.690186,2982.275391 750.038818,2994.637451 
	C786.026917,3025.643066 822.752380,3055.736084 860.991028,3083.996582 
	C914.301086,3123.395020 970.142029,3158.815674 1027.658691,3191.631348 
	C1066.671021,3213.889404 1107.082153,3233.454102 1147.904785,3252.156494 
	C1204.795410,3278.220459 1263.160767,3300.471924 1322.865356,3319.161377 
	C1373.295410,3334.947266 1424.262939,3348.664062 1476.081299,3359.281738 
	C1539.558594,3372.288086 1603.461060,3382.240723 1668.030273,3387.581787 
	C1692.840210,3389.634033 1717.743042,3391.152344 1742.626953,3391.592285 
	C1791.215210,3392.452393 1839.834961,3393.989990 1888.394531,3390.316406 
	C1915.199097,3388.288574 1942.064087,3386.870850 1968.799194,3384.164062 
	C1997.841064,3381.223389 2026.965210,3378.256348 2055.690430,3373.226562 
	C2096.882568,3366.013916 2137.923584,3357.705811 2178.703857,3348.434082 
	C2229.245117,3336.943115 2278.732666,3321.644043 2327.721924,3304.614014 
	C2390.630371,3282.744873 2451.913086,3257.108154 2511.503662,3227.453857 
	C2552.005371,3207.298340 2591.595703,3185.430420 2630.160156,3161.739990 
	C2669.861328,3137.350342 2708.553467,3111.461426 2746.139404,3083.920654 
	C2796.021240,3047.370361 2843.547852,3007.916992 2888.669678,2965.694336 
	C2915.647461,2940.449463 2941.990967,2914.388184 2966.957520,2887.169189 
	C2995.258789,2856.314941 3021.702393,2823.756348 3049.844482,2790.823730 
z"/>
<path fill="#7F7F7F" opacity="1.000000" stroke="none" 
	d="
M3049.398926,2791.381348 
	C3021.702393,2823.756348 2995.258789,2856.314941 2966.957520,2887.169189 
	C2941.990967,2914.388184 2915.647461,2940.449463 2888.669678,2965.694336 
	C2843.547852,3007.916992 2796.021240,3047.370361 2746.139404,3083.920654 
	C2708.553467,3111.461426 2669.861328,3137.350342 2630.160156,3161.739990 
	C2591.595703,3185.430420 2552.005371,3207.298340 2511.503662,3227.453857 
	C2451.913086,3257.108154 2390.630371,3282.744873 2327.721924,3304.614014 
	C2278.732666,3321.644043 2229.245117,3336.943115 2178.703857,3348.434082 
	C2137.923584,3357.705811 2096.882568,3366.013916 2055.690430,3373.226562 
	C2026.965210,3378.256348 1997.841064,3381.223389 1968.799194,3384.164062 
	C1942.064087,3386.870850 1915.199097,3388.288574 1888.394531,3390.316406 
	C1839.834961,3393.989990 1791.215210,3392.452393 1742.626953,3391.592285 
	C1717.743042,3391.152344 1692.840210,3389.634033 1668.030273,3387.581787 
	C1603.461060,3382.240723 1539.558594,3372.288086 1476.081299,3359.281738 
	C1424.262939,3348.664062 1373.295410,3334.947266 1322.865356,3319.161377 
	C1263.160767,3300.471924 1204.795410,3278.220459 1147.904785,3252.156494 
	C1107.082153,3233.454102 1066.671021,3213.889404 1027.658691,3191.631348 
	C970.142029,3158.815674 914.301086,3123.395020 860.991028,3083.996582 
	C822.752380,3055.736084 786.026917,3025.643066 750.038818,2994.637451 
	C735.690186,2982.275391 722.198914,2968.908936 708.472961,2955.836182 
	C695.235657,2943.228027 681.878723,2930.721680 669.129456,2917.630127 
	C611.473755,2858.426758 558.159302,2795.574951 510.002167,2728.348389 
	C477.601715,2683.117920 447.577850,2636.395508 420.151337,2588.018311 
	C408.340393,2567.185059 397.288849,2545.914551 386.159271,2524.702881 
	C366.091827,2486.456787 347.755920,2447.372070 332.059723,2407.139404 
	C317.703003,2370.340576 303.082703,2333.567383 290.790924,2296.057617 
	C270.508484,2234.163574 253.636276,2171.229248 242.280945,2107.029297 
	C234.768326,2064.554932 228.504593,2021.843506 222.546738,1979.117798 
	C219.845917,1959.749268 219.571762,1940.055298 217.629517,1920.565552 
	C212.004059,1864.115967 213.026474,1807.484497 214.095886,1750.955078 
	C214.842133,1711.508057 218.445938,1672.057983 222.180389,1632.742920 
	C225.096573,1602.042358 229.023422,1571.336426 234.567856,1541.010742 
	C242.685577,1496.609863 251.293976,1452.207764 262.223175,1408.437988 
	C272.501343,1367.275391 285.143860,1326.630737 298.407410,1286.304565 
	C314.900452,1236.159424 334.745697,1187.183105 357.035034,1139.345581 
	C396.449005,1054.755127 442.044098,973.590942 495.508423,896.980835 
	C531.908569,844.822327 570.601379,794.414612 613.444519,747.386108 
	C641.234192,716.881714 669.636108,686.864868 699.005615,657.888245 
	C734.021484,623.340759 771.325806,591.265869 809.756287,560.486206 
	C847.390930,530.343994 886.221558,501.890625 926.372986,475.246216 
	C962.973145,450.958405 1000.414734,427.972321 1039.218018,407.381256 
	C1073.003906,389.452667 1106.901611,371.610168 1141.581421,355.522125 
	C1185.286255,335.247314 1230.228882,317.807556 1275.639404,301.598389 
	C1327.994629,282.910339 1381.337891,267.619476 1435.365112,254.777557 
	C1483.200562,243.407379 1531.428955,233.865952 1580.257935,227.669327 
	C1604.600342,224.580154 1628.908447,221.189224 1653.290527,218.456085 
	C1666.482300,216.977341 1679.811035,216.769485 1693.053345,215.686996 
	C1744.530518,211.478958 1796.122070,211.714493 1847.674438,212.517990 
	C1876.169922,212.962128 1904.637451,215.679214 1933.098633,217.645966 
	C1948.321777,218.697937 1963.560059,219.890350 1978.693970,221.795197 
	C2009.946655,225.728867 2041.354370,228.990509 2072.295410,234.708755 
	C2115.684814,242.727676 2159.018799,251.495087 2201.794434,262.255768 
	C2240.403809,271.968445 2278.464111,284.075104 2316.346924,296.414490 
	C2370.111816,313.927032 2422.212158,335.754547 2473.538086,359.500214 
	C2515.217285,378.783020 2556.003418,399.779846 2595.770020,422.665070 
	C2639.613281,447.896545 2682.447266,474.821167 2723.333496,504.677856 
	C2748.293457,522.904541 2773.403564,540.998230 2797.435303,560.403564 
	C2822.720947,580.821472 2847.113281,602.384155 2871.312744,624.096924 
	C2891.361816,642.085693 2911.105225,660.483459 2930.031982,679.640930 
	C2977.294189,727.479309 3021.989746,777.584839 3062.940674,831.037415 
	C3110.597656,893.243286 3154.207764,958.083740 3192.152344,1026.632324 
	C3208.908691,1056.903320 3224.986572,1087.605347 3239.999023,1118.773193 
	C3262.632324,1165.762817 3282.430420,1213.980469 3300.318848,1263.024414 
	C3324.956543,1330.571411 3344.127441,1399.651001 3359.218506,1469.832764 
	C3366.821777,1505.192627 3372.660889,1540.987793 3377.834473,1576.797485 
	C3382.385742,1608.298462 3385.318604,1640.056030 3388.171875,1671.771729 
	C3390.223877,1694.579712 3391.558350,1717.489746 3392.161621,1740.381958 
	C3393.135742,1777.313232 3394.122559,1814.283569 3393.442871,1851.206909 
	C3392.887939,1881.380249 3390.734619,1911.590210 3387.788574,1941.636841 
	C3384.261230,1977.612061 3379.499512,2013.479980 3374.623047,2049.306152 
	C3367.308594,2103.044189 3355.542725,2155.919434 3341.791504,2208.331055 
	C3335.136963,2233.694580 3327.390137,2258.777344 3319.857178,2283.903320 
	C3307.634277,2324.671387 3292.836182,2364.555664 3276.401855,2403.768799 
	C3262.923584,2435.928955 3248.495117,2467.723389 3233.493652,2499.206299 
	C3197.487305,2574.770508 3154.561523,2646.351318 3106.472412,2714.796387 
	C3088.312988,2740.642334 3068.761475,2765.510010 3049.398926,2791.381348 
M2362.615234,426.336487 
	C2307.649414,403.952759 2251.466553,385.155396 2194.228027,369.530212 
	C2127.665039,351.359589 2060.138672,338.178833 1991.663208,329.442841 
	C1947.675293,323.830902 1903.562866,319.734344 1859.315674,318.634796 
	C1817.045654,317.584381 1774.676514,318.279602 1732.414185,319.880707 
	C1698.848022,321.152374 1665.329590,324.462311 1631.875732,327.741699 
	C1582.140625,332.617218 1532.962769,341.252869 1484.182861,352.018646 
	C1359.658569,379.501068 1240.451904,421.869171 1126.990479,480.214233 
	C1039.602417,525.151672 957.335815,578.005249 880.380310,639.155212 
	C790.217102,710.800232 709.492798,791.848511 638.059021,882.121033 
	C562.860718,977.151001 500.198334,1079.887817 450.114960,1190.254517 
	C423.520630,1248.859253 400.942596,1309.009644 382.320496,1370.597168 
	C355.663727,1458.757324 337.301056,1548.607300 327.405914,1640.242676 
	C322.106628,1689.317383 319.438629,1738.498169 318.481934,1787.785889 
	C318.068451,1809.085938 319.290314,1830.414551 319.598907,1851.732422 
	C320.202301,1893.414551 323.804810,1934.900269 328.503693,1976.263916 
	C334.367371,2027.881226 343.148376,2079.068604 354.615784,2129.740234 
	C376.064606,2224.517090 406.268616,2316.451172 445.943939,2405.178467 
	C533.178711,2600.264648 656.468445,2769.045410 815.934875,2911.374756 
	C901.582336,2987.818115 994.765381,3053.513672 1095.692993,3108.241211 
	C1211.701294,3171.146240 1333.781860,3218.133789 1462.341309,3248.062256 
	C1515.205933,3260.369385 1568.448364,3270.774658 1622.507080,3276.305664 
	C1656.280640,3279.761230 1690.060303,3283.737061 1723.939697,3285.432861 
	C1767.509644,3287.614014 1811.141724,3288.663574 1854.832153,3286.571533 
	C1892.101562,3284.787109 1929.277100,3282.478271 1966.387451,3278.527588 
	C2014.097412,3273.448242 2061.374268,3265.853271 2108.332275,3256.127930 
	C2216.045654,3233.819580 2319.892578,3199.651367 2419.953857,3154.041016 
	C2525.942139,3105.728760 2624.601562,3045.291016 2716.467773,2973.727295 
	C2780.494629,2923.850098 2840.065430,2869.088867 2895.013672,2809.378662 
	C2960.178467,2738.566162 3018.203613,2662.286621 3068.667480,2580.298096 
	C3132.356445,2476.823242 3182.646240,2367.205566 3219.404785,2251.398682 
	C3259.628174,2124.676270 3282.118652,1994.773926 3287.377686,1862.012085 
	C3290.215332,1790.383301 3288.047119,1718.807861 3280.396973,1647.427002 
	C3275.391602,1600.719727 3268.620850,1554.303711 3259.345703,1508.284790 
	C3242.537354,1424.889038 3218.717285,1343.515503 3187.858154,1264.203491 
	C3152.225830,1172.624390 3107.945068,1085.424683 3054.950195,1002.721924 
	C2986.277588,895.553162 2905.232666,798.684814 2811.664795,712.295044 
	C2758.679688,663.375000 2702.597900,618.374634 2643.171143,577.563171 
	C2555.523682,517.370911 2462.581543,466.939758 2362.615234,426.336487 
z"/>
<path fill="#000000" opacity="1.000000" stroke="none" 
	d="
M2363.314453,426.649963 
	C2462.581543,466.939758 2555.523682,517.370911 2643.171143,577.563171 
	C2702.597900,618.374634 2758.679688,663.375000 2811.664795,712.295044 
	C2905.232666,798.684814 2986.277588,895.553162 3054.950195,1002.721924 
	C3107.945068,1085.424683 3152.225830,1172.624390 3187.858154,1264.203491 
	C3218.717285,1343.515503 3242.537354,1424.889038 3259.345703,1508.284790 
	C3268.620850,1554.303711 3275.391602,1600.719727 3280.396973,1647.427002 
	C3288.047119,1718.807861 3290.215332,1790.383301 3287.377686,1862.012085 
	C3282.118652,1994.773926 3259.628174,2124.676270 3219.404785,2251.398682 
	C3182.646240,2367.205566 3132.356445,2476.823242 3068.667480,2580.298096 
	C3018.203613,2662.286621 2960.178467,2738.566162 2895.013672,2809.378662 
	C2840.065430,2869.088867 2780.494629,2923.850098 2716.467773,2973.727295 
	C2624.601562,3045.291016 2525.942139,3105.728760 2419.953857,3154.041016 
	C2319.892578,3199.651367 2216.045654,3233.819580 2108.332275,3256.127930 
	C2061.374268,3265.853271 2014.097412,3273.448242 1966.387451,3278.527588 
	C1929.277100,3282.478271 1892.101562,3284.787109 1854.832153,3286.571533 
	C1811.141724,3288.663574 1767.509644,3287.614014 1723.939697,3285.432861 
	C1690.060303,3283.737061 1656.280640,3279.761230 1622.507080,3276.305664 
	C1568.448364,3270.774658 1515.205933,3260.369385 1462.341309,3248.062256 
	C1333.781860,3218.133789 1211.701294,3171.146240 1095.692993,3108.241211 
	C994.765381,3053.513672 901.582336,2987.818115 815.934875,2911.374756 
	C656.468445,2769.045410 533.178711,2600.264648 445.943939,2405.178467 
	C406.268616,2316.451172 376.064606,2224.517090 354.615784,2129.740234 
	C343.148376,2079.068604 334.367371,2027.881226 328.503693,1976.263916 
	C323.804810,1934.900269 320.202301,1893.414551 319.598907,1851.732422 
	C319.290314,1830.414551 318.068451,1809.085938 318.481934,1787.785889 
	C319.438629,1738.498169 322.106628,1689.317383 327.405914,1640.242676 
	C337.301056,1548.607300 355.663727,1458.757324 382.320496,1370.597168 
	C400.942596,1309.009644 423.520630,1248.859253 450.114960,1190.254517 
	C500.198334,1079.887817 562.860718,977.151001 638.059021,882.121033 
	C709.492798,791.848511 790.217102,710.800232 880.380310,639.155212 
	C957.335815,578.005249 1039.602417,525.151672 1126.990479,480.214233 
	C1240.451904,421.869171 1359.658569,379.501068 1484.182861,352.018646 
	C1532.962769,341.252869 1582.140625,332.617218 1631.875732,327.741699 
	C1665.329590,324.462311 1698.848022,321.152374 1732.414185,319.880707 
	C1774.676514,318.279602 1817.045654,317.584381 1859.315674,318.634796 
	C1903.562866,319.734344 1947.675293,323.830902 1991.663208,329.442841 
	C2060.138672,338.178833 2127.665039,351.359589 2194.228027,369.530212 
	C2251.466553,385.155396 2307.649414,403.952759 2363.314453,426.649963 
M2732.398438,2201.540039 
	C2742.616699,2183.178711 2751.114014,2164.071533 2757.430908,2144.009766 
	C2766.467529,2115.308838 2771.704102,2085.922363 2774.340088,2055.955078 
	C2778.102783,2013.186035 2777.284180,1970.764648 2766.692383,1928.911743 
	C2756.607910,1889.064087 2738.106201,1853.771484 2708.827637,1824.634155 
	C2677.238281,1793.197510 2638.690430,1773.436035 2596.902588,1759.421509 
	C2585.728760,1755.673828 2574.359619,1752.507935 2561.577148,1748.617676 
	C2564.379395,1746.569824 2565.809814,1745.392700 2567.363281,1744.411133 
	C2576.078613,1738.905151 2585.049561,1733.773438 2593.521240,1727.917725 
	C2646.262207,1691.463013 2676.853271,1641.007202 2686.275146,1577.941772 
	C2693.567383,1529.131226 2689.755859,1480.960938 2674.522949,1433.838501 
	C2661.790771,1394.451416 2638.838623,1361.933960 2607.771729,1335.020996 
	C2572.669678,1304.612549 2531.415039,1285.732300 2487.528809,1271.993042 
	C2437.094727,1256.203857 2385.225342,1248.019287 2332.782227,1242.885010 
	C2329.940674,1242.606689 2327.130859,1242.000488 2323.395508,1241.400757 
	C2323.395508,1203.509521 2323.395508,1166.349609 2323.395508,1128.900635 
	C2273.183105,1128.900635 2224.034180,1128.900635 2173.832275,1128.900635 
	C2173.832275,1141.025146 2173.832031,1152.596924 2173.832031,1164.168701 
	C2173.832031,1176.166748 2173.946777,1188.166382 2173.799316,1200.162598 
	C2173.657715,1211.683960 2174.485352,1223.259521 2173.188721,1235.563110 
	C2133.143555,1236.135132 2094.051025,1236.546997 2053.900391,1236.631836 
	C2053.900391,1226.288208 2053.900635,1217.370361 2053.900635,1208.452393 
	C2053.900635,1199.787109 2053.900635,1191.121826 2053.900635,1182.456543 
	C2053.900635,1173.458008 2054.029785,1164.456909 2053.864014,1155.461426 
	C2053.701172,1146.637207 2054.679443,1137.718506 2053.152588,1129.181274 
	C2034.317261,1126.993042 1911.578247,1127.914185 1904.063599,1130.385986 
	C1904.063599,1133.460327 1904.063599,1136.761230 1904.063599,1140.062256 
	C1904.063599,1170.057495 1904.097412,1200.052856 1904.021484,1230.047852 
	C1904.011841,1233.872803 1903.430664,1237.696411 1903.046631,1242.338501 
	C1876.610718,1242.338501 1851.324341,1242.292725 1826.038208,1242.351318 
	C1800.378052,1242.410645 1774.717651,1242.507446 1749.058228,1242.709229 
	C1723.895508,1242.907104 1698.708252,1242.085571 1673.744263,1243.202637 
	C1671.328369,1261.143921 1671.670410,1366.255737 1674.118652,1373.933105 
	C1676.283813,1374.077515 1678.579712,1374.342773 1680.878174,1374.367310 
	C1715.858154,1374.741211 1750.838379,1375.092773 1785.818726,1375.427856 
	C1797.156006,1375.536499 1797.223267,1375.507812 1797.223755,1386.276001 
	C1797.236328,1667.897827 1797.235718,1949.519775 1797.210205,2231.141602 
	C1797.209961,2234.042480 1796.848389,2236.943604 1796.570068,2241.128174 
	C1755.291382,2241.845703 1714.501831,2240.957520 1674.124634,2241.623535 
	C1671.163208,2250.632812 1669.929321,2362.360840 1672.631592,2371.593994 
	C1749.123291,2371.929443 1825.898071,2372.266113 1903.467773,2372.606201 
	C1903.710938,2377.535400 1904.035400,2381.111084 1904.040405,2384.687256 
	C1904.082153,2414.682373 1904.036621,2444.677734 1904.082520,2474.672852 
	C1904.097900,2484.718262 1904.473877,2485.171875 1913.867676,2485.183105 
	C1957.860718,2485.236572 2001.853638,2485.218018 2045.846680,2485.165283 
	C2048.062012,2485.162598 2050.276855,2484.604492 2053.579102,2484.158203 
	C2054.510498,2448.025635 2053.241699,2412.237305 2054.291016,2376.730957 
	C2075.280029,2376.730957 2094.842285,2376.521729 2114.397949,2376.789795 
	C2133.848145,2377.056641 2153.356689,2376.015625 2173.582764,2377.522705 
	C2173.582764,2390.446777 2173.583008,2402.055908 2173.583008,2413.665039 
	C2173.583008,2425.663086 2173.546875,2437.661377 2173.593506,2449.659180 
	C2173.638428,2461.180420 2173.768799,2472.701172 2173.863525,2484.463867 
	C2224.338379,2484.463867 2273.438477,2484.463867 2323.718506,2484.463867 
	C2323.718506,2447.233643 2323.718506,2410.724854 2323.718506,2373.999512 
	C2327.430420,2373.435059 2330.011963,2372.825928 2332.619629,2372.677734 
	C2374.884033,2370.275635 2416.882324,2365.686279 2458.677490,2358.821045 
	C2503.837646,2351.403320 2547.906006,2340.271729 2590.065430,2322.318359 
	C2622.083496,2308.683594 2651.861084,2291.312988 2678.099365,2268.137695 
	C2699.511719,2249.225098 2717.250000,2227.396240 2732.398438,2201.540039 
M830.271851,1873.000000 
	C830.271973,1887.330200 830.260376,1901.660522 830.275391,1915.990723 
	C830.289673,1929.647705 830.301880,1929.657837 844.137207,1929.658691 
	C915.456116,1929.662476 986.774963,1929.652466 1058.093872,1929.683594 
	C1061.955078,1929.685181 1065.816040,1930.014526 1070.549316,1930.231323 
	C1070.549316,1935.292480 1070.549194,1939.233276 1070.549316,1943.174194 
	C1070.550293,2015.492920 1070.537231,2087.811768 1070.567139,2160.130371 
	C1070.571655,2171.022217 1071.139282,2171.513428 1081.713379,2171.651611 
	C1082.713013,2171.664551 1083.713013,2171.653320 1084.712769,2171.653320 
	C1157.364746,2171.653320 1230.016724,2171.655273 1302.668701,2171.651367 
	C1317.535645,2171.650391 1317.547485,2171.639648 1317.548340,2156.852295 
	C1317.552979,2085.200195 1317.542236,2013.547974 1317.575439,1941.895752 
	C1317.577148,1938.060669 1317.928589,1934.225952 1318.153198,1929.660400 
	C1323.330566,1929.660400 1327.285034,1929.660400 1331.239380,1929.660400 
	C1402.891602,1929.660278 1474.543701,1929.666016 1546.195923,1929.654907 
	C1559.293701,1929.652954 1559.320801,1929.621216 1559.322754,1916.171875 
	C1559.332764,1843.519897 1559.328125,1770.867920 1559.328003,1698.215942 
	C1559.328003,1696.549683 1559.417969,1694.876099 1559.297485,1693.218262 
	C1558.787964,1686.207764 1555.787842,1683.287598 1548.561890,1682.833862 
	C1546.238037,1682.687866 1543.897705,1682.800293 1541.564819,1682.800171 
	C1471.245728,1682.799683 1400.926514,1682.799683 1330.607422,1682.799683 
	C1326.723633,1682.799683 1322.839844,1682.799805 1317.551147,1682.799805 
	C1317.551147,1677.547974 1317.551270,1673.661377 1317.551270,1669.774902 
	C1317.551025,1598.789307 1317.553345,1527.803589 1317.547974,1456.817993 
	C1317.546753,1442.265015 1317.533081,1442.244629 1303.521729,1442.243286 
	C1230.536499,1442.235718 1157.551270,1442.236572 1084.566040,1442.242065 
	C1070.557861,1442.243164 1070.551147,1442.258667 1070.550659,1456.803955 
	C1070.548096,1527.789551 1070.557617,1598.775269 1070.526978,1669.760864 
	C1070.525269,1673.654419 1070.199585,1677.547729 1069.963745,1682.799683 
	C1065.222778,1682.799683 1061.339355,1682.799683 1057.455811,1682.799683 
	C987.469971,1682.799683 917.484131,1682.797729 847.498291,1682.807129 
	C844.500854,1682.807495 841.467346,1682.640015 838.513489,1683.028809 
	C832.137817,1683.868042 830.636597,1685.624634 830.297241,1692.037231 
	C830.174133,1694.363770 830.271912,1696.701904 830.271912,1699.034790 
	C830.271851,1756.356567 830.272156,1813.678223 830.271851,1873.000000 
z"/>
<path fill="#FDFDFD" opacity="1.000000" stroke="none" 
	d="
M2732.077881,2202.199951 
	C2717.250000,2227.396240 2699.511719,2249.225098 2678.099365,2268.137695 
	C2651.861084,2291.312988 2622.083496,2308.683594 2590.065430,2322.318359 
	C2547.906006,2340.271729 2503.837646,2351.403320 2458.677490,2358.821045 
	C2416.882324,2365.686279 2374.884033,2370.275635 2332.619629,2372.677734 
	C2330.011963,2372.825928 2327.430420,2373.435059 2323.718506,2373.999512 
	C2323.718506,2410.724854 2323.718506,2447.233643 2323.718506,2484.463867 
	C2273.438477,2484.463867 2224.338379,2484.463867 2173.863525,2484.463867 
	C2173.768799,2472.701172 2173.638428,2461.180420 2173.593506,2449.659180 
	C2173.546875,2437.661377 2173.583008,2425.663086 2173.583008,2413.665039 
	C2173.583008,2402.055908 2173.582764,2390.446777 2173.582764,2377.522705 
	C2153.356689,2376.015625 2133.848145,2377.056641 2114.397949,2376.789795 
	C2094.842285,2376.521729 2075.280029,2376.730957 2054.291016,2376.730957 
	C2053.241699,2412.237305 2054.510498,2448.025635 2053.579102,2484.158203 
	C2050.276855,2484.604492 2048.062012,2485.162598 2045.846680,2485.165283 
	C2001.853638,2485.218018 1957.860718,2485.236572 1913.867676,2485.183105 
	C1904.473877,2485.171875 1904.097900,2484.718262 1904.082520,2474.672852 
	C1904.036621,2444.677734 1904.082153,2414.682373 1904.040405,2384.687256 
	C1904.035400,2381.111084 1903.710938,2377.535400 1903.467773,2372.606201 
	C1825.898071,2372.266113 1749.123291,2371.929443 1672.631592,2371.593994 
	C1669.929321,2362.360840 1671.163208,2250.632812 1674.124634,2241.623535 
	C1714.501831,2240.957520 1755.291382,2241.845703 1796.570068,2241.128174 
	C1796.848389,2236.943604 1797.209961,2234.042480 1797.210205,2231.141602 
	C1797.235718,1949.519775 1797.236328,1667.897827 1797.223755,1386.276001 
	C1797.223267,1375.507812 1797.156006,1375.536499 1785.818726,1375.427856 
	C1750.838379,1375.092773 1715.858154,1374.741211 1680.878174,1374.367310 
	C1678.579712,1374.342773 1676.283813,1374.077515 1674.118652,1373.933105 
	C1671.670410,1366.255737 1671.328369,1261.143921 1673.744263,1243.202637 
	C1698.708252,1242.085571 1723.895508,1242.907104 1749.058228,1242.709229 
	C1774.717651,1242.507446 1800.378052,1242.410645 1826.038208,1242.351318 
	C1851.324341,1242.292725 1876.610718,1242.338501 1903.046631,1242.338501 
	C1903.430664,1237.696411 1904.011841,1233.872803 1904.021484,1230.047852 
	C1904.097412,1200.052856 1904.063599,1170.057495 1904.063599,1140.062256 
	C1904.063599,1136.761230 1904.063599,1133.460327 1904.063599,1130.385986 
	C1911.578247,1127.914185 2034.317261,1126.993042 2053.152588,1129.181274 
	C2054.679443,1137.718506 2053.701172,1146.637207 2053.864014,1155.461426 
	C2054.029785,1164.456909 2053.900635,1173.458008 2053.900635,1182.456543 
	C2053.900635,1191.121826 2053.900635,1199.787109 2053.900635,1208.452393 
	C2053.900635,1217.370361 2053.900391,1226.288208 2053.900391,1236.631836 
	C2094.051025,1236.546997 2133.143555,1236.135132 2173.188721,1235.563110 
	C2174.485352,1223.259521 2173.657715,1211.683960 2173.799316,1200.162598 
	C2173.946777,1188.166382 2173.832031,1176.166748 2173.832031,1164.168701 
	C2173.832031,1152.596924 2173.832275,1141.025146 2173.832275,1128.900635 
	C2224.034180,1128.900635 2273.183105,1128.900635 2323.395508,1128.900635 
	C2323.395508,1166.349609 2323.395508,1203.509521 2323.395508,1241.400757 
	C2327.130859,1242.000488 2329.940674,1242.606689 2332.782227,1242.885010 
	C2385.225342,1248.019287 2437.094727,1256.203857 2487.528809,1271.993042 
	C2531.415039,1285.732300 2572.669678,1304.612549 2607.771729,1335.020996 
	C2638.838623,1361.933960 2661.790771,1394.451416 2674.522949,1433.838501 
	C2689.755859,1480.960938 2693.567383,1529.131226 2686.275146,1577.941772 
	C2676.853271,1641.007202 2646.262207,1691.463013 2593.521240,1727.917725 
	C2585.049561,1733.773438 2576.078613,1738.905151 2567.363281,1744.411133 
	C2565.809814,1745.392700 2564.379395,1746.569824 2561.577148,1748.617676 
	C2574.359619,1752.507935 2585.728760,1755.673828 2596.902588,1759.421509 
	C2638.690430,1773.436035 2677.238281,1793.197510 2708.827637,1824.634155 
	C2738.106201,1853.771484 2756.607910,1889.064087 2766.692383,1928.911743 
	C2777.284180,1970.764648 2778.102783,2013.186035 2774.340088,2055.955078 
	C2771.704102,2085.922363 2766.467529,2115.308838 2757.430908,2144.009766 
	C2751.114014,2164.071533 2742.616699,2183.178711 2732.077881,2202.199951 
M2129.028809,2195.229736 
	C2139.681641,2195.028076 2150.335205,2194.844971 2160.987549,2194.621338 
	C2210.974121,2193.573486 2260.730957,2190.487549 2309.916504,2180.527832 
	C2343.069580,2173.814697 2375.167969,2164.181396 2404.718750,2147.647217 
	C2432.604980,2132.044678 2455.328857,2111.079590 2467.938965,2080.707764 
	C2477.133301,2058.562988 2478.582275,2035.518188 2476.459961,2012.060425 
	C2474.412598,1989.431152 2467.331299,1968.549805 2453.823242,1950.035156 
	C2431.745361,1919.774170 2400.936768,1902.162720 2366.520508,1889.892334 
	C2320.956543,1873.647583 2273.554199,1867.452515 2225.573975,1864.428833 
	C2178.310303,1861.450562 2131.035156,1862.125244 2083.750488,1863.601318 
	C2075.217285,1863.867554 2066.685059,1864.175415 2057.705078,1864.479126 
	C2057.705078,1974.596558 2057.705078,2083.635986 2057.705078,2193.807617 
	C2081.293701,2194.291260 2104.172607,2194.760254 2129.028809,2195.229736 
M2373.754395,1473.246216 
	C2355.378906,1454.557129 2332.940186,1442.666260 2308.492432,1434.060181 
	C2267.210693,1419.527710 2224.265869,1414.202271 2180.938232,1412.819946 
	C2143.343506,1411.620605 2105.671631,1412.775513 2068.034668,1412.994507 
	C2058.579834,1413.049438 2057.630615,1414.033203 2057.627197,1423.237793 
	C2057.591553,1516.861572 2057.596680,1610.485229 2057.644531,1704.109009 
	C2057.645752,1706.644287 2058.255127,1709.179443 2058.580322,1711.710327 
	C2060.634277,1712.104370 2061.907959,1712.524414 2063.194824,1712.570068 
	C2114.486816,1714.390503 2165.717773,1714.510986 2216.858643,1708.911377 
	C2247.745850,1705.529419 2278.074463,1699.904175 2307.472412,1689.733765 
	C2330.319580,1681.829590 2351.548828,1670.891968 2369.501953,1654.481079 
	C2394.387451,1631.733398 2406.670898,1603.045654 2407.937500,1569.561890 
	C2409.301025,1533.512817 2400.147461,1501.047607 2373.754395,1473.246216 
z"/>
<path fill="#545454" opacity="1.000000" stroke="none" 
	d="
M830.272095,1872.000000 
	C830.272156,1813.678223 830.271851,1756.356567 830.271912,1699.034790 
	C830.271912,1696.701904 830.174133,1694.363770 830.297241,1692.037231 
	C830.636597,1685.624634 832.137817,1683.868042 838.513489,1683.028809 
	C841.467346,1682.640015 844.500854,1682.807495 847.498291,1682.807129 
	C917.484131,1682.797729 987.469971,1682.799683 1057.455811,1682.799683 
	C1061.339355,1682.799683 1065.222778,1682.799683 1069.963745,1682.799683 
	C1070.199585,1677.547729 1070.525269,1673.654419 1070.526978,1669.760864 
	C1070.557617,1598.775269 1070.548096,1527.789551 1070.550659,1456.803955 
	C1070.551147,1442.258667 1070.557861,1442.243164 1084.566040,1442.242065 
	C1157.551270,1442.236572 1230.536499,1442.235718 1303.521729,1442.243286 
	C1317.533081,1442.244629 1317.546753,1442.265015 1317.547974,1456.817993 
	C1317.553345,1527.803589 1317.551025,1598.789307 1317.551270,1669.774902 
	C1317.551270,1673.661377 1317.551147,1677.547974 1317.551147,1682.799805 
	C1322.839844,1682.799805 1326.723633,1682.799683 1330.607422,1682.799683 
	C1400.926514,1682.799683 1471.245728,1682.799683 1541.564819,1682.800171 
	C1543.897705,1682.800293 1546.238037,1682.687866 1548.561890,1682.833862 
	C1555.787842,1683.287598 1558.787964,1686.207764 1559.297485,1693.218262 
	C1559.417969,1694.876099 1559.328003,1696.549683 1559.328003,1698.215942 
	C1559.328125,1770.867920 1559.332764,1843.519897 1559.322754,1916.171875 
	C1559.320801,1929.621216 1559.293701,1929.652954 1546.195923,1929.654907 
	C1474.543701,1929.666016 1402.891602,1929.660278 1331.239380,1929.660400 
	C1327.285034,1929.660400 1323.330566,1929.660400 1318.153198,1929.660400 
	C1317.928589,1934.225952 1317.577148,1938.060669 1317.575439,1941.895752 
	C1317.542236,2013.547974 1317.552979,2085.200195 1317.548340,2156.852295 
	C1317.547485,2171.639648 1317.535645,2171.650391 1302.668701,2171.651367 
	C1230.016724,2171.655273 1157.364746,2171.653320 1084.712769,2171.653320 
	C1083.713013,2171.653320 1082.713013,2171.664551 1081.713379,2171.651611 
	C1071.139282,2171.513428 1070.571655,2171.022217 1070.567139,2160.130371 
	C1070.537231,2087.811768 1070.550293,2015.492920 1070.549316,1943.174194 
	C1070.549194,1939.233276 1070.549316,1935.292480 1070.549316,1930.231323 
	C1065.816040,1930.014526 1061.955078,1929.685181 1058.093872,1929.683594 
	C986.774963,1929.652466 915.456116,1929.662476 844.137207,1929.658691 
	C830.301880,1929.657837 830.289673,1929.647705 830.275391,1915.990723 
	C830.260376,1901.660522 830.271973,1887.330200 830.272095,1872.000000 
M1555.225586,1769.000366 
	C1555.225586,1755.346436 1555.300903,1741.692017 1555.204102,1728.038696 
	C1555.108276,1714.526978 1555.651001,1700.983521 1554.818237,1687.167725 
	C1474.800293,1687.167725 1396.012207,1687.167725 1317.269287,1687.167725 
	C1316.745483,1688.549927 1316.098267,1689.461670 1316.096924,1690.374634 
	C1315.984741,1765.301392 1315.914673,1840.228149 1315.886597,1915.155029 
	C1315.885498,1918.125854 1316.299805,1921.098389 1316.571289,1924.065430 
	C1316.595093,1924.325806 1316.994751,1924.555176 1317.226807,1924.791992 
	C1317.459106,1925.029175 1317.700073,1925.258057 1317.927856,1925.499878 
	C1333.251831,1927.380127 1547.234863,1926.612183 1555.226440,1924.352173 
	C1555.226440,1873.439697 1555.226440,1822.220093 1555.225586,1769.000366 
M1123.000244,1444.801147 
	C1115.004150,1444.801270 1107.000977,1444.593750 1099.013794,1444.860474 
	C1091.172607,1445.122192 1083.178467,1443.565918 1075.173340,1446.156982 
	C1075.173340,1525.626465 1075.173340,1604.723022 1075.173340,1684.508057 
	C1154.607056,1684.508057 1233.325562,1684.508057 1311.873779,1684.508057 
	C1314.454712,1674.188599 1314.100708,1453.266113 1311.663452,1445.875977 
	C1311.071289,1445.617920 1310.479614,1445.135132 1309.886963,1445.133789 
	C1248.258179,1444.999146 1186.629272,1444.900757 1123.000244,1444.801147 
M1072.614014,1731.000122 
	C1072.614014,1723.670898 1072.656128,1716.341309 1072.601685,1709.012573 
	C1072.548340,1701.832886 1072.396851,1694.654053 1072.292358,1687.736450 
	C1058.053955,1685.683716 840.574158,1686.321289 833.309326,1688.298462 
	C833.309326,1766.987061 833.309326,1845.748901 833.309326,1925.211426 
	C913.060486,1925.211426 992.123962,1925.211426 1072.614624,1925.211426 
	C1072.614624,1860.729736 1072.614624,1796.864868 1072.614014,1731.000122 
M1137.000000,1924.415283 
	C1194.641846,1924.228638 1252.283569,1924.042725 1309.925293,1923.834229 
	C1310.196899,1923.833252 1310.487915,1923.535767 1310.732422,1923.331665 
	C1310.986328,1923.119629 1311.194824,1922.852905 1312.245605,1921.735229 
	C1312.245605,1896.667480 1312.245605,1870.716187 1312.245605,1844.765015 
	C1312.245605,1818.434204 1312.376465,1792.102539 1312.208374,1765.772827 
	C1312.043579,1739.966187 1312.956543,1714.127808 1311.637207,1688.446533 
	C1232.508911,1688.446533 1154.664062,1688.446533 1076.945190,1688.446533 
	C1074.884888,1699.631592 1075.270752,1916.004150 1077.512817,1924.416138 
	C1096.479248,1924.416138 1115.739624,1924.416138 1137.000000,1924.415283 
M1074.584717,2163.418457 
	C1075.719849,2169.495605 1080.653564,2167.621826 1084.207764,2167.626953 
	C1157.505127,2167.737305 1230.802490,2167.718750 1304.099976,2167.669922 
	C1306.940308,2167.668213 1309.780273,2167.108154 1312.343262,2166.837646 
	C1314.416870,2154.251465 1313.905762,1936.837158 1311.820557,1929.089233 
	C1233.214966,1929.089233 1154.475708,1929.089233 1074.486450,1929.089233 
	C1074.486450,2006.961792 1074.486450,2084.145264 1074.584717,2163.418457 
z"/>
<path fill="#030303" opacity="1.000000" stroke="none" 
	d="
M2128.040283,2195.229492 
	C2104.172607,2194.760254 2081.293701,2194.291260 2057.705078,2193.807617 
	C2057.705078,2083.635986 2057.705078,1974.596558 2057.705078,1864.479126 
	C2066.685059,1864.175415 2075.217285,1863.867554 2083.750488,1863.601318 
	C2131.035156,1862.125244 2178.310303,1861.450562 2225.573975,1864.428833 
	C2273.554199,1867.452515 2320.956543,1873.647583 2366.520508,1889.892334 
	C2400.936768,1902.162720 2431.745361,1919.774170 2453.823242,1950.035156 
	C2467.331299,1968.549805 2474.412598,1989.431152 2476.459961,2012.060425 
	C2478.582275,2035.518188 2477.133301,2058.562988 2467.938965,2080.707764 
	C2455.328857,2111.079590 2432.604980,2132.044678 2404.718750,2147.647217 
	C2375.167969,2164.181396 2343.069580,2173.814697 2309.916504,2180.527832 
	C2260.730957,2190.487549 2210.974121,2193.573486 2160.987549,2194.621338 
	C2150.335205,2194.844971 2139.681641,2195.028076 2128.040283,2195.229492 
z"/>
<path fill="#020202" opacity="1.000000" stroke="none" 
	d="
M2374.229248,1473.777832 
	C2400.147461,1501.047607 2409.301025,1533.512817 2407.937500,1569.561890 
	C2406.670898,1603.045654 2394.387451,1631.733398 2369.501953,1654.481079 
	C2351.548828,1670.891968 2330.319580,1681.829590 2307.472412,1689.733765 
	C2278.074463,1699.904175 2247.745850,1705.529419 2216.858643,1708.911377 
	C2165.717773,1714.510986 2114.486816,1714.390503 2063.194824,1712.570068 
	C2061.907959,1712.524414 2060.634277,1712.104370 2058.580322,1711.710327 
	C2058.255127,1709.179443 2057.645752,1706.644287 2057.644531,1704.109009 
	C2057.596680,1610.485229 2057.591553,1516.861572 2057.627197,1423.237793 
	C2057.630615,1414.033203 2058.579834,1413.049438 2068.034668,1412.994507 
	C2105.671631,1412.775513 2143.343506,1411.620605 2180.938232,1412.819946 
	C2224.265869,1414.202271 2267.210693,1419.527710 2308.492432,1434.060181 
	C2332.940186,1442.666260 2355.378906,1454.557129 2374.229248,1473.777832 
z"/>
<path fill="#FDFDFD" opacity="1.000000" stroke="none" 
	d="
M1555.226074,1770.000488 
	C1555.226440,1822.220093 1555.226440,1873.439697 1555.226440,1924.352173 
	C1547.234863,1926.612183 1333.251831,1927.380127 1317.932495,1925.495239 
	C1317.700073,1925.258057 1317.459106,1925.029175 1317.226807,1924.791992 
	C1316.994751,1924.555176 1316.595093,1924.325806 1316.571289,1924.065430 
	C1316.299805,1921.098389 1315.885498,1918.125854 1315.886597,1915.155029 
	C1315.914673,1840.228149 1315.984741,1765.301392 1316.096924,1690.374634 
	C1316.098267,1689.461670 1316.745483,1688.549927 1317.269287,1687.167725 
	C1396.012207,1687.167725 1474.800293,1687.167725 1554.818237,1687.167725 
	C1555.651001,1700.983521 1555.108276,1714.526978 1555.204102,1728.038696 
	C1555.300903,1741.692017 1555.225586,1755.346436 1555.226074,1770.000488 
z"/>
<path fill="#FDFDFD" opacity="1.000000" stroke="none" 
	d="
M1124.000244,1444.800659 
	C1186.629272,1444.900757 1248.258179,1444.999146 1309.886963,1445.133789 
	C1310.479614,1445.135132 1311.071289,1445.617920 1311.663086,1445.876709 
	C1314.100708,1453.266113 1314.454712,1674.188599 1311.873779,1684.508057 
	C1233.325562,1684.508057 1154.607056,1684.508057 1075.173340,1684.508057 
	C1075.173340,1604.723022 1075.173340,1525.626465 1075.173340,1446.156982 
	C1083.178467,1443.565918 1091.172607,1445.122192 1099.013794,1444.860474 
	C1107.000977,1444.593750 1115.004150,1444.801270 1124.000244,1444.800659 
z"/>
<path fill="#FDFDFD" opacity="1.000000" stroke="none" 
	d="
M1072.614258,1732.000000 
	C1072.614624,1796.864868 1072.614624,1860.729736 1072.614624,1925.211426 
	C992.123962,1925.211426 913.060486,1925.211426 833.309326,1925.211426 
	C833.309326,1845.748901 833.309326,1766.987061 833.309326,1688.298462 
	C840.574158,1686.321289 1058.053955,1685.683716 1072.292358,1687.736450 
	C1072.396851,1694.654053 1072.548340,1701.832886 1072.601685,1709.012573 
	C1072.656128,1716.341309 1072.614014,1723.670898 1072.614258,1732.000000 
z"/>
<path fill="#000000" opacity="1.000000" stroke="none" 
	d="
M1136.000000,1924.415771 
	C1115.739624,1924.416138 1096.479248,1924.416138 1077.512817,1924.416138 
	C1075.270752,1916.004150 1074.884888,1699.631592 1076.945190,1688.446533 
	C1154.664062,1688.446533 1232.508911,1688.446533 1311.637207,1688.446533 
	C1312.956543,1714.127808 1312.043579,1739.966187 1312.208374,1765.772827 
	C1312.376465,1792.102539 1312.245605,1818.434204 1312.245605,1844.765015 
	C1312.245605,1870.716187 1312.245605,1896.667480 1312.245605,1921.735229 
	C1311.194824,1922.852905 1310.986328,1923.119629 1310.732422,1923.331665 
	C1310.487915,1923.535767 1310.196899,1923.833252 1309.925293,1923.834229 
	C1252.283569,1924.042725 1194.641846,1924.228638 1136.000000,1924.415771 
z"/>
<path fill="#FDFDFD" opacity="1.000000" stroke="none" 
	d="
M1074.535645,2162.373535 
	C1074.486450,2084.145264 1074.486450,2006.961792 1074.486450,1929.089233 
	C1154.475708,1929.089233 1233.214966,1929.089233 1311.820557,1929.089233 
	C1313.905762,1936.837158 1314.416870,2154.251465 1312.343262,2166.837646 
	C1309.780273,2167.108154 1306.940308,2167.668213 1304.099976,2167.669922 
	C1230.802490,2167.718750 1157.505127,2167.737305 1084.207764,2167.626953 
	C1080.653564,2167.621826 1075.719849,2169.495605 1074.535645,2162.373535 
z"/>
</svg>