<svg width="32" height="32" viewBox="0 0 32 32" fill="none" xmlns="http://www.w3.org/2000/svg">
<g clip-path="url(#clip0_16_52341)">
<g clip-path="url(#clip1_16_52341)">
<path fill-rule="evenodd" clip-rule="evenodd" d="M3.95406 3.9541C-1.31802 9.22618 -1.31802 17.7739 3.95406 23.046C9.22614 28.3181 17.7739 28.3181 23.0459 23.046L3.95406 3.9541Z" fill="#2C374B"/>
<path fill-rule="evenodd" clip-rule="evenodd" d="M3.9541 3.95406C9.22618 -1.31802 17.7739 -1.31802 23.046 3.95406C28.3181 9.22614 28.3181 17.7739 23.046 23.0459L3.9541 3.95406Z" fill="white"/>
<path fill-rule="evenodd" clip-rule="evenodd" d="M13.5 26.46C20.6576 26.46 26.46 20.6576 26.46 13.5C26.46 6.34239 20.6576 0.54 13.5 0.54C6.34239 0.54 0.54 6.34239 0.54 13.5C0.54 20.6576 6.34239 26.46 13.5 26.46ZM13.5 27C20.9558 27 27 20.9558 27 13.5C27 6.04416 20.9558 0 13.5 0C6.04416 0 0 6.04416 0 13.5C0 20.9558 6.04416 27 13.5 27Z" fill="white"/>
<path fill-rule="evenodd" clip-rule="evenodd" d="M9.08364 12.7686C9.05903 12.7542 9.02949 12.7398 8.99996 12.7398C8.97042 12.7398 8.94088 12.7494 8.91627 12.7638L4.39707 15.3098C4.34784 15.3387 4.31338 15.3963 4.31338 15.454V20.5508C4.31338 20.6085 4.34292 20.6661 4.39707 20.695L6.27513 21.753L6.01009 22.4589L4.01308 21.3339C3.72263 21.1705 3.54541 20.8727 3.54541 20.546V15.454C3.54541 15.1273 3.72263 14.8295 4.01308 14.6661L8.53228 12.1201C8.67922 12.0388 8.83591 12.0004 8.99749 12C9.15913 12.0004 9.32066 12.0388 9.46271 12.1201L13.9868 14.6661C14.2773 14.8295 14.4545 15.1273 14.4545 15.454V20.546C14.4545 20.8727 14.2773 21.1705 13.9868 21.3339L9.46763 23.8799C9.31994 23.9616 9.16241 24 8.99996 24C8.8375 24 8.67505 23.9616 8.53228 23.8799L6.48521 22.7266L6.74528 22.016L7.07122 22.2015L8.91627 23.241C8.94088 23.2554 8.97042 23.265 8.99996 23.265C9.02949 23.265 9.05903 23.2554 9.08364 23.241L13.6028 20.695C13.6521 20.6661 13.6865 20.6085 13.6865 20.5508V15.4588C13.6865 15.4011 13.657 15.3435 13.6028 15.3146L9.08364 12.7686Z" fill="#9DCCED"/>
<path fill-rule="evenodd" clip-rule="evenodd" d="M7.4657 15.0879H8.61799C8.68693 15.0879 8.73617 15.1551 8.71155 15.2224L6.00317 22.4616L4.81641 21.7938L7.27365 15.2224C7.30319 15.1455 7.38198 15.0879 7.4657 15.0879ZM9.47482 15.0879H10.6222C10.6911 15.0879 10.7404 15.1551 10.7158 15.2224L7.66267 23.3935L6.47591 22.7258L9.28277 15.2224C9.31232 15.1455 9.39111 15.0879 9.47482 15.0879Z" fill="white"/>
<path fill-rule="evenodd" clip-rule="evenodd" d="M12.9165 21.0797L11.1055 16.2377C11.071 16.1512 10.9479 16.1512 10.9134 16.2377L10.3176 17.8319C10.3028 17.8751 10.3028 17.9231 10.3176 17.9712L11.73 21.7477L12.9165 21.0797ZM11.2581 22.0134L10.1009 18.9171C10.0665 18.8307 9.94338 18.8307 9.90891 18.9171L9.31308 20.5113C9.29831 20.5546 9.29831 20.6026 9.31308 20.6506L10.0717 22.6814L11.2581 22.0134Z" fill="#12AAFF"/>
<path opacity="0.6" d="M17.4784 11.3248L21.4616 8.917L17.4784 7.06836L13.5 8.917L17.4784 11.3248Z" fill="black"/>
<path opacity="0.8" fill-rule="evenodd" clip-rule="evenodd" d="M21.4618 8.91748L17.4785 11.3251V7.06873V2.16016L21.4618 8.91748ZM17.4785 12.095L21.4618 9.69221L17.4785 15.4295V12.095Z" fill="black"/>
<path opacity="0.45" fill-rule="evenodd" clip-rule="evenodd" d="M17.4784 2.16016V7.06873V11.3251L13.5 8.91748L17.4784 2.16016ZM13.5 9.69221L17.4784 12.095V15.4295L13.5 9.69221Z" fill="black"/>
</g>
<g clip-path="url(#clip2_16_52341)">
<path d="M32 25C32 28.866 28.866 32 25 32C21.134 32 18 28.866 18 25C18 21.134 21.134 18 25 18C28.866 18 32 21.134 32 25Z" fill="#1D1B1D"/>
<path fill-rule="evenodd" clip-rule="evenodd" d="M25 31.125C28.3827 31.125 31.125 28.3827 31.125 25C31.125 21.6173 28.3827 18.875 25 18.875C21.6173 18.875 18.875 21.6173 18.875 25C18.875 28.3827 21.6173 31.125 25 31.125ZM25 32C28.866 32 32 28.866 32 25C32 21.134 28.866 18 25 18C21.134 18 18 21.134 18 25C18 28.866 21.134 32 25 32Z" fill="#363232"/>
<path fill-rule="evenodd" clip-rule="evenodd" d="M25.7897 29.375C26.0223 29.268 26.24 29.1115 26.4289 28.9057C27.1327 28.1385 27.9101 27.158 28.2903 26.2295C28.7773 25.0403 28.9039 23.3688 28.9368 22.5864C28.9483 22.3136 28.816 22.0597 28.5809 21.9352C27.9827 21.6181 26.693 21.0625 25 21.0625C23.307 21.0625 22.0174 21.6181 21.4191 21.9352C21.184 22.0597 21.0517 22.3136 21.0632 22.5864C21.0961 23.3688 21.2228 25.0403 21.7097 26.2295C22.0899 27.158 22.8673 28.1385 23.5711 28.9057C23.76 29.1115 23.9777 29.268 24.2103 29.375V25.9448C23.8001 25.9993 23.4037 26.0957 23.0261 26.2295L22.631 25.5706C23.216 25.3499 23.8424 25.2087 24.4958 25.1603L24.6976 22.8676C24.5621 22.7691 24.4735 22.6063 24.4735 22.4222C24.4735 22.1219 24.7093 21.8783 25 21.8783C25.2907 21.8783 25.5264 22.1219 25.5264 22.4222C25.5264 22.6063 25.4379 22.7691 25.3024 22.8676L25.5041 25.1603C26.1576 25.2087 26.784 25.3499 27.369 25.5706L26.9739 26.2295C26.5962 26.0957 26.1999 25.9993 25.7897 25.9448V29.375Z" fill="#FFA400"/>
</g>
</g>
<defs>
<clipPath id="clip0_16_52341">
<rect width="32" height="32" fill="white"/>
</clipPath>
<clipPath id="clip1_16_52341">
<rect width="27" height="27" fill="white"/>
</clipPath>
<clipPath id="clip2_16_52341">
<rect width="14" height="14" fill="white" transform="translate(18 18)"/>
</clipPath>
</defs>
</svg>
