<svg xmlns="http://www.w3.org/2000/svg" width="32" height="32" viewBox="0 0 32 32">
  <g fill="none" fill-rule="evenodd">
    <circle cx="16" cy="16" r="16" fill="#4460EF"/>
    <g fill-rule="nonzero" transform="translate(9.389 4.5)">
      <path fill="#FFF" d="M7.47039723,0 C3.36989802,0 0.0342469311,3.30597041 0,7.40875276 L0,7.40875276 L0,22.150915 C0,22.3997761 0.200915329,22.6006914 0.449776362,22.6006914 C0.449776362,22.6006914 0.449776362,22.6006914 0.449776362,22.6006914 L3.23519342,22.6006914 C5.53887032,22.6006914 7.40875276,20.7330921 7.40875276,18.4271321 L7.40875276,14.9407945 L7.47268036,14.9407945 C11.598294,14.897415 14.9065475,11.5161014 14.8631681,7.39048773 C14.8197886,3.32651857 11.5343664,0.0410963173 7.47039723,0 Z"/>
      <path fill="#4460EF" d="M6.34024851 8.66447357C5.82197828 8.66447357 5.39959947 7.81971593 5.39959947 6.78089236 5.39959947 5.73978565 5.82197828 4.89731115 6.34024851 4.89731115 6.85851873 4.89731115 7.28318068 5.73978565 7.28318068 6.78089236 7.28318068 7.81971593 6.86080186 8.66447357 6.34024851 8.66447357zM11.739848 8.66447357C11.2215778 8.66447357 10.7991989 7.81971593 10.7991989 6.78089236 10.7991989 5.73978565 11.2215778 4.89731115 11.739848 4.89731115 12.2581182 4.89731115 12.6827801 5.73978565 12.6827801 6.78089236 12.680497 7.81971593 12.2581182 8.66447357 11.739848 8.66447357L11.739848 8.66447357z"/>
    </g>
  </g>
</svg>
