<?xml version="1.0" encoding="UTF-8" standalone="no"?>
<!DOCTYPE svg PUBLIC "-//W3C//DTD SVG 1.1//EN" "http://www.w3.org/Graphics/SVG/1.1/DTD/svg11.dtd">
<svg xmlns="http://www.w3.org/2000/svg" version="1.1" viewBox="0 0 256 256" width="256.0pt" height="256.0pt">
<path d="M 0.00 0.00 L 256.00 0.00 L 256.00 256.00 L 0.00 256.00 L 0.00 0.00 Z" fill="#000000" />
<path d="M 160.47 69.18 C 163.04 72.43 164.78 76.36 166.94 79.90 C 170.55 85.88 173.75 92.13 177.50 98.02 C 166.40 97.94 155.30 98.07 144.20 97.96 C 147.70 90.96 152.02 84.37 155.76 77.50 C 157.44 74.77 158.89 71.95 160.47 69.18 Z" fill="#ffffff" />
<path d="M 93.68 69.07 C 104.94 88.39 116.15 107.77 127.17 127.23 C 115.97 127.18 104.74 127.44 93.54 127.10 C 88.27 117.39 82.64 107.86 77.05 98.33 C 78.22 96.01 79.44 93.73 80.76 91.49 C 85.13 84.07 89.40 76.51 93.68 69.07 Z" fill="#ffffff" />
<path d="M 127.42 127.28 C 138.43 127.37 149.61 126.96 160.58 127.47 C 162.64 129.76 163.81 132.89 165.49 135.48 C 169.40 142.41 173.46 149.26 177.37 156.20 C 171.69 165.81 166.47 175.74 160.48 185.14 C 149.71 165.73 138.21 146.69 127.42 127.28 Z" fill="#ffffff" />
<path d="M 77.06 156.29 C 88.19 156.16 99.33 156.38 110.46 156.16 C 107.71 160.94 104.96 165.71 102.24 170.50 C 99.31 175.39 96.60 180.39 93.71 185.29 C 88.22 175.59 82.59 165.96 77.06 156.29 Z" fill="#ffffff" />
</svg>