<svg viewBox="0 0 256 256" xmlns="http://www.w3.org/2000/svg"><g transform="scale(.25)"><defs><linearGradient id="e" x1="171.968" x2="102.474" y1="730.23" y2="674.72" gradientUnits="userSpaceOnUse"><stop class="stop0" offset="0" stop-color="#030A00"/><stop class="stop1" offset="1" stop-color="#352F3C"/></linearGradient><linearGradient id="d" x1="406.297" x2="622.218" y1="350.378" y2="357.522" gradientUnits="userSpaceOnUse"><stop class="stop0" offset="0" stop-color="#7B7A7A"/><stop class="stop1" offset="1" stop-color="#979696"/></linearGradient><linearGradient id="c" x1="823.717" x2="337.816" y1="842.548" y2="711.204" gradientUnits="userSpaceOnUse"><stop class="stop0" offset="0"/><stop class="stop1" offset="1" stop-color="#262626"/></linearGradient><linearGradient id="b" x1="636.807" x2="754.422" y1="210.495" y2="864.766" gradientUnits="userSpaceOnUse"><stop class="stop0" offset="0" stop-color="#8E8D8D"/><stop class="stop1" offset="1" stop-color="#E1E0E0"/></linearGradient><linearGradient id="a" x1="368.61" x2="230.069" y1="877.489" y2="230.001" gradientUnits="userSpaceOnUse"><stop class="stop0" offset="0" stop-color="#292929"/><stop class="stop1" offset="1" stop-color="#8C8C8C"/></linearGradient></defs><path fill="#FFF" d="M0 0h1024v1024H0z"/><path fill="url(#a)" d="M489.806 134.312c11.568-.967 29.186-2.476 40.235 1.248 15.285 5.152 21.317 8.411 37.451 11.463l10.318 1.034 12.219 1.325c.789 3.803 1.219 8.485 4.03 10.926 2.666.993 4.599 1.618 7.337 2.395l4.466.864 5.119 2.508c.74 2.664 1.382 7.805 3.902 8.806 9.212 3.662 12.863 1.638 12.943 13.349 2.436 3.099 2.533 2.597 7.308 3.548 7.377 4.333 8.383 9.467 8.562 17.908l2.17.884c4.642-1.101 3.944-1.627 8.015-.464 2.575 2.221 3.151 7.73 3.827 11.302l.538 4.524c1.67 1.27 1.596 1.254 3.58 1.898 4.737-.264 4.773-1.031 8.241.962 1.94 3.139 1.799 8.441 2.489 12.54.149 5.846 2.156 17.565 9.714 17.631l2.553 1.702c2.866 2.19 3.744 3.282 4.25 7.045.232 1.847.406 3.701.523 5.559 1.475 4.402 3.188 4.183 7.539 4.058l2.887-.916c.674.406 1.904 1.071 2.417 1.574l2.085 10.412c1.101 3.304 1.566 5.243 3.639 8.066 4.486 1.491 8.887 3.633 10.934 8.251.431 3.081.842 6.667 1.396 9.68l1.297 5.224c7.527 11.2 14.603.315 14.585 21.062l.009.847c1.45 5.408 1.872 8.559 2.567 14.021 3.637-.598 5.54-1.223 8.908.241 3.264 2.636 3.523 4.137 3.981 8.293.171 1.599.31 3.2.417 4.804l1.218 5.154c.533 4.548.247 8.951 2.742 12.104 3.515-.371 6.012-1.067 8.813.988 3.129 3.828 3.423 11.08 4.286 16.459 3.351 17.419 12.141 2.649 15.556 25.043 4.638 14.911 13.47 6.019 14.366 20.174.625 5.89 1.074 9.245 2.372 15.077 2.661 5.121 7.268 4.733 12.74 5.726 1.72 7.383 3.064 12.968 2.889 20.688l.06 2.224c1.719 4.253.672 3.439 4.095 5.513 2.782.081 5.562.116 8.331.382.645 6.32 2.12 12.338 3.49 18.535 1.796 3.69 8.641 10.462 11.877 12.851 1.655 4.652 2.249 6.115 2.675 10.977 3.959 10.528 6.202 11.508 14.476 19.303.937 5.973 1.914 11.939 2.932 17.899 3.583 4.623 5.601 7.586 10.316 11.204 5.297 4.923 5.504 22.31 6.506 29.795 2.504 3.991 3.193 4.938 8.238 5.874 2.717 1.598 3.681 1.576 4.449 5.065 1.771 8.043 2.213 17.277 2.798 25.513 4.841 9.77 12.451 16.698 13.034 24.659 1.533 18.088-.407 36.744.672 53.883-.826 9.727-5.995 10.008-11.695 17.397-3.648 10.722-2.767 22.856-6.251 31.358-6.349.549-9.902 6.671-12.475 12.011l-3.07 7.715c-.193 13.303-3.267 8.604-12.303 15.459-2.389 5.292-1.814 9.281-6.879 12.009-11.069 5.962-20.463 13.688-25.732 25.565-.845 3.02-1.144 5.448-3.81 7.116-2.955.655-4.798.978-7.801 1.344-10.867 1.894-22.539 3.617-33.152 6.506-6.396 1.742-18.568 8.402-24.538 9.077-32.422 3.669-67.471 3.407-100.155 4.557-15.351 2.553-20.852 2.469-36.363 2.4-3.166 1.736-5.503 2.979-8.444 5.104 5.271 3.042 26.549-2.29 30.386-1.141-13.865 6.89-220.877 3.614-250.839 2.489-4.259-.16-12.967-1.574-16.978-3.756-1.516-.824-6.069-3.733-7.502-4.08-4.489-1.088-10.332-1.368-15.073-1.964-20.709-.578-41.413-1.308-62.111-2.189-29.601 1.007-57.44-9.364-84.841-19.832-4.226-1.615-10.265-7.961-14.762-10.314-4.794-2.508-12.704-3.577-15.016-7.637-2.11-11.239-6.175-11.048-16.28-12.505-.814-5.1-1.311-8.132-2.788-13.158-.113-4.325.081-7.363.419-11.688-1.158-.825-2.138-2.666-2.939-3.944-8.06 1.006-3.328 3.803-12.55-1.924l-.924-1.728c-1.966-5.273-.973-8.617-2.741-13.087-5.521-2.412-4.49 1.521-9.419-.167-2.277-2.615-1.945-6.186-2.127-9.794-.326-3.441-1.185-7.351-1.849-10.791-.712-5.285-.663-18.469-5.058-21.926-3.131.371-3.899.569-7.02-.461-4.09-16.194-3.035-43.27-1.253-60.24.823-7.844 10.161-22.991 14.064-30.963-.204-5.367 1.083-12.436 1.871-17.887.467-3.065.484-4.071 2.189-6.791 10.133-3.449 9.05-12.839 12.668-22.568.003-1.284.532-4.975.7-6.447l-.111-4.879c-.946-9.962 6.753-7.844 13.854-16.537l1.527-4.853-.173-2.598c1.047-8.881 9.157-18.048 15.351-24.217.829-4.434 1.318-8.167 1.835-12.653 1.19-8.832 7.625-11.068 14.279-18.653l2.193-9.405c.187-2.687.024-3.268 1.47-5.402 9.44.744 9.366-4.374 11.63-12.012.61-1.923 1.193-4.515 1.712-6.524 2.467-11.799 2.973-7.465 11.124-15.751.89-.905 3.726-7.796 4.424-9.499l.029-.875c1.021-5.261 11.364-17.776 15.112-23.49 1.11-5.323 1.809-9.715 4.107-14.7 1.649-.99 9.701-10.798 11.515-12.937 1.887-5.146.441-8.674 3.092-14.329 3.166-2.634 2.338-1.838 7.266-2.041l1.85-.789c1.937-3.414 2.969-8.112 4.014-11.975.455-5.198 2.189-10.949 3.53-16.054 8.591-2.45 9.985-2.568 12.712-11.383l.569-3.159-.116-.834 1.196-6.205c1.895-10.524 11.955-8.382 15.272-22.692.023-1.652 1.215-5.463 1.703-7.236 3.67-5.778 8.075-4.063 13.655-17.552 2.556-9.872 1.853-11.692 13.066-13.472 2.338-2.76 1.785-3.636 2.477-7.797l.876-5.171c1.934-17.533 3.484-8.57 14.091-19.366 1.981-3.243 3.014-9.866 3.85-13.819 4.167-.285 8.192-.426 11.488-2.913 2.375-3.188 2.154-4.91 2.316-8.895l-.277-1.675c1.274-3.662.805-2.542 4.205-5.189 4.624-1.305 7.604.999 11.003-1.551-1.64-5.809-1.016-7.546 1.233-12.851 3.58-6.532 4.91-8.428 11.469-11.829l8.523-5.217c4.443-3.087 7.851-.909 11.731-3.87-.999-2.895-2.261-5.36-1.04-8.155 2.324-2.682 7.091-3.142 10.748-3.906 3.899-1.12 7.891-1.821 11.875-2.59-2.945-3.11-4.192-3.967-2.877-8.225 2.609-2.055 7.018-2.218 10.446-2.666 5.191-.447 9.915-1.045 15.06-1.737 11.796-3.133 16.65-4.52 26.175-12.661"/><path fill="url(#b)" d="M635.134 191.778c7.377 4.333 8.383 9.467 8.562 17.908l2.17.884c4.642-1.101 3.944-1.627 8.015-.464 2.575 2.221 3.151 7.73 3.827 11.302l.538 4.524c1.67 1.27 1.596 1.254 3.58 1.898 4.737-.264 4.773-1.031 8.241.962 1.94 3.139 1.799 8.441 2.489 12.54.149 5.846 2.156 17.565 9.714 17.631l2.553 1.702c2.866 2.19 3.744 3.282 4.25 7.045.232 1.847.406 3.701.523 5.559 1.475 4.402 3.188 4.183 7.539 4.058l2.887-.916c.674.406 1.904 1.071 2.417 1.574l2.085 10.412c1.101 3.304 1.566 5.243 3.639 8.066 4.486 1.491 8.887 3.633 10.934 8.251.431 3.081.842 6.667 1.396 9.68l1.297 5.224c7.527 11.2 14.603.315 14.585 21.062l.009.847c1.45 5.408 1.872 8.559 2.567 14.021 3.637-.598 5.54-1.223 8.908.241 3.264 2.636 3.523 4.137 3.981 8.293.171 1.599.31 3.2.417 4.804l1.218 5.154c.533 4.548.247 8.951 2.742 12.104 3.515-.371 6.012-1.067 8.813.988 3.129 3.828 3.423 11.08 4.286 16.459 3.351 17.419 12.141 2.649 15.556 25.043 4.638 14.911 13.47 6.019 14.366 20.174.625 5.89 1.074 9.245 2.372 15.077 2.661 5.121 7.268 4.733 12.74 5.726 1.72 7.383 3.064 12.968 2.889 20.688l.06 2.224c1.719 4.253.672 3.439 4.095 5.513 2.782.081 5.562.116 8.331.382.645 6.32 2.12 12.338 3.49 18.535 1.796 3.69 8.641 10.462 11.877 12.851 1.655 4.652 2.249 6.115 2.675 10.977 3.959 10.528 6.202 11.508 14.476 19.303.937 5.973 1.914 11.939 2.932 17.899 3.583 4.623 5.601 7.586 10.316 11.204 5.297 4.923 5.504 22.31 6.506 29.795 2.504 3.991 3.193 4.938 8.238 5.874 2.717 1.598 3.681 1.576 4.449 5.065 1.771 8.043 2.213 17.277 2.798 25.513 4.841 9.77 12.451 16.698 13.034 24.659 1.533 18.088-.407 36.744.672 53.883-.826 9.727-5.995 10.008-11.695 17.397-3.648 10.722-2.767 22.856-6.251 31.358-6.349.549-9.902 6.671-12.475 12.011l-3.07 7.715c-.193 13.303-3.267 8.604-12.303 15.459-2.389 5.292-1.814 9.281-6.879 12.009-11.069 5.962-20.463 13.688-25.732 25.565-2.77-2.821-8.023-6.964-10.328-9.996-1.583-2.082.193-5.754-2.365-8.958-6.046-1.114-12.803-2.834-18.851-4.248-.861-14.744-3.687-10.858-16.14-16.275-4.477-10.032-27.869-27.019-37.152-35.247-11.143-9.876-26.536-25.028-39.368-31.633-2.113-10.932-7.578-11.135-17.047-14.487l-2.442-9.127c-4.487-1.807-9.554-4.319-13.997-6.385l-2.941-8.269-14.506-8.367c-.34-.735-.7-1.461-1.08-2.177l-.453-.851c-2.031-3.873-10.744-10.318-14.702-13.733a5434 5434 0 0 0-42.622-36.432c-6.057-5.068-16.073-10.862-19.146-17.645-2.29-5.054-11.151-7.346-16.175-9.177l-1.768-10.437c-5.193-1.64-10.099-2.878-15.363-4.217-1.187-18.837-7.361-10.34-16.217-15.876-2.497-3.484-1.741-2.817-2.119-7.682l.077-5.713c-2.336-.396-4.658-.867-6.964-1.412-3.281-.803-6.304-1.645-8.101-4.609-1.615-11.683 7.703-9.265 10.379-13.529l-1.413.099 1.545.319c-1.42-.129-1.762-.203-3.18.076l-.952.198c-3.277-6.52 12.767-41.226 15.048-49.831 12.465-47.01 29.412-91.569 45.704-137.121 10.499-29.355 19.94-60.13 29.328-89.843 6.279-19.871 9.304-43.147 13.887-63.522.338-1.728 2.869-4.18 4.168-5.453 1.392-.362 2.98-.53 3.92-1.712-5.851-1.859-5.524-11.283-5.674-16.201 3.848-3.744 4.064-3.65 9.361-4.239"/><path fill="#8B8A8A" d="M661.826 227.83c4.737-.264 4.773-1.031 8.241.962 1.94 3.139 1.799 8.441 2.489 12.54.149 5.846 2.156 17.565 9.714 17.631-1.995 1.832-4.996 5.359-7.003 5.957-1.272-2.848-2.238-5.812-4.762-7.595-4.76-.557-4.793 1.21-10.114 2.396-2.135-2.819-1.332-3.776-1.336-8.188 1.084-9.257-2.172-6.916-2.157-11.081.019-4.964 4.034-3.339 4.928-12.622"/><path fill="#B3B2B3" d="M829.725 498.418c.645 6.32 2.12 12.338 3.49 18.535l-.686 1.753c-.742 6.105-1.794 15.284-10.16 13.197-6.972-5.921-5.994-19.214-1.937-26.694 2.743-5.058 4.144-5.347 9.293-6.791"/><path fill="#989898" d="M756.217 386.144c3.515-.371 6.012-1.067 8.813.988 3.129 3.828 3.423 11.08 4.286 16.459-.417 5.282-2.023 13.173-7.833 14.708-10.329-3.167-7.28-24.298-5.266-32.155"/><path fill="#B3B2B3" d="m834.181 530.322 10.911-.518c1.655 4.652 2.249 6.115 2.675 10.977-3.487 8.916 2.036 22.004-7.347 24.48-6.39-3.578-6.154-28.135-6.239-34.939"/><path fill="#8B8A8A" d="M708.331 308.237c4.557-2.105 5.86-2.807 10.766-3.523.431 3.081.842 6.667 1.396 9.68-5.94 9.185 2.818 19.483-10.797 25.092l-1.394-.891c-2.29-5.92-2.449-23.823.029-30.358"/><path fill="#B3B2B3" d="M862.243 560.084c.937 5.973 1.914 11.939 2.932 17.899l-1.217 1.21c-2.795 4.418-5.332 14.755-9.978 16.894-2.169-2.66-4.962-23.701-3.161-28.036 1.912-4.599 7.19-6.14 11.424-7.967"/><path fill="#8B8A8A" d="m697.135 277.327 2.887-.916c.674.406 1.904 1.071 2.417 1.574l2.085 10.412c-1.45 4.798-4.955 16.163-9.427 18.186-6.338-1.867-4.902-14.798-3.707-19.837 1.394-5.884.84-6.259 5.745-9.419"/><path fill="#989898" d="M786.967 450.694c5.109-2.969 6.775-2.829 12.271-1.886.625 5.89 1.074 9.245 2.372 15.077-3.14 2.894-6.978 7.518-10.328 10.874l-1.491-.014c-3.133-4.392-4.259-18.916-2.824-24.051M682.27 258.963l2.553 1.702c2.866 2.19 3.744 3.282 4.25 7.045.232 1.847.406 3.701.523 5.559-2.76 4.333-3.817 2.647-4.525 3.668-3.041 4.387-7.067 10.321-9.997 14.661-.05-6.285-.036-11.962-.649-18.231-.557-4.075-.545-4.585.842-8.447 2.007-.598 5.008-4.125 7.003-5.957"/><path fill="#696869" d="m682.27 258.963 2.553 1.702c.438 3.576 1.332 7.45-.178 10.61-3.643 2.462-5.53 2.083-10.22 2.092-.557-4.075-.545-4.585.842-8.447 2.007-.598 5.008-4.125 7.003-5.957"/><path fill="#CDCBCC" d="M870.038 801.864c-7.661-5.786-4.803-20.953 4.294-20.434 2.667 2.133 2.828 2.649 3.984 5.733l-.458 2.367.529.652c1.387 1.725 2.201 2.39 2.38 4.56l-3.07 7.715c-2.229 2.143-1.302 1.81-4.032 2.49z"/><path fill="#989898" d="M738.924 369.973c3.188-2.245 6.221-4.982 10.038-4.789l1.439 3.763 1.856-.061 1.218 5.154c-.804 4.483-.942 8.075-4.52 11.032-2.193 1.699-4.398 2.305-7.078 1.673-4.359-4.755-3.169-10.052-2.953-16.772m11.477-1.026 1.856-.061 1.218 5.154c-.804 4.483-.942 8.075-4.52 11.032-.215-5.711.647-10.496 1.446-16.125m52.956 133.802c-.453-6.127-.161-18.227.948-24.164l1.817-1.233c5.621 1.807 7.302 8.335 10.595 12.321l.522.626.06 2.224c-.955 4.624-9.907 8.42-13.942 10.226"/><path fill="#696869" d="M645.866 210.57c4.642-1.101 3.944-1.627 8.015-.464 2.575 2.221 3.151 7.73 3.827 11.302-2.913 7.727-7.74 5.966-15.35 5.488-1.514-5.585-1.853-12.721 3.508-16.326"/><path fill="#989898" d="m729.313 335.707 7.062 4.973.009.847c-2.853 4.587-3.317 17.294-11.229 15.796-2.723-2.007-3.471-6.48-4.444-9.897 3.227-5.35 4.275-6.998 8.602-11.719"/><path fill="#DFDFDF" d="M897.482 655.434c4.841 9.77 12.451 16.698 13.034 24.659-9.812-3.919-7.687 2.232-14.241-9.992-.032-5.792-.243-8.95 1.207-14.667"/><path fill="#989898" d="m657.708 221.408.538 4.524c1.67 1.27 1.596 1.254 3.58 1.898-.894 9.283-4.909 7.658-4.928 12.622-.015 4.165 3.241 1.824 2.157 11.081l-.108-.431c-.873-3.337-1.099-5.134-3.004-8.149-2.296-3.632 3.329-9.235 1.861-13.771-2.558-.3-4.211 1.198-6.527 2.647-.923 3.429-1.263 3.899-3.174 6.786l-1.546.148c-2.221-4.13-3.112-7.341-4.199-11.867 7.61.478 12.437 2.239 15.35-5.488"/><path fill="#CDCBCC" d="M721.79 319.618c7.527 11.2 14.603.315 14.585 21.062l-7.062-4.973c-7.93-7.524-8.593-2.896-7.523-16.089"/><path fill="#696869" d="M631.447 212.218c-5.851-1.859-5.524-11.283-5.674-16.201l2.986 2.392c4.678-.708 4.747-1.214 9.399.144 3.017 4.22-3.794 10.374-6.711 13.665"/><path fill="#CDCBCC" d="M784.872 428.634c4.638 14.911 13.47 6.019 14.366 20.174-5.496-.943-7.162-1.083-12.271 1.886 1.437-7.46-2.188-12.994-2.095-22.06"/><path fill="#DFDFDF" d="m870.038 801.864 3.627 3.083c2.73-.68 1.803-.347 4.032-2.49-.193 13.303-3.267 8.604-12.303 15.459.004-1.482.028-2.964.073-4.445.185-5.787.352-7.629 4.571-11.607m29.455-50.491c-6.24-11.824 3.402-13.569 11.695-17.397-.826 9.727-5.995 10.008-11.695 17.397"/><path fill="#CDCBCC" d="M865.175 577.983c3.583 4.623 5.601 7.586 10.316 11.204-1.427 3.733-1.866 5.29-5.506 6.652l-1.964-1.045c-3.453-4.918-3.74-9.735-4.063-15.601z"/><path fill="#B3B2B3" d="M738.951 355.548c3.637-.598 5.54-1.223 8.908.241 3.264 2.636 3.523 4.137 3.981 8.293.171 1.599.31 3.2.417 4.804l-1.856.061-1.439-3.763c-2.073-1.655-8.827-7.531-10.011-9.636"/><path fill="#CDCBCC" d="M708.163 296.463c4.486 1.491 8.887 3.633 10.934 8.251-4.906.716-6.209 1.418-10.766 3.523-2.023-4.147-1.019-7.402-.168-11.774"/><path fill="#DFDFDF" d="M878.316 787.163c1.016-1.442 2.887-3.302 4.143-4.649 3.753-1.493 6.477-.335 10.783.217-6.349.549-9.902 6.671-12.475 12.011-.179-2.17-.993-2.835-2.38-4.56l-.529-.652z"/><path fill="#CDCBCC" d="M833.215 516.953c1.796 3.69 8.641 10.462 11.877 12.851l-10.911.518c-1.589-3.036-1.474-8.023-1.652-11.616zm48.782 102.029c2.504 3.991 3.193 4.938 8.238 5.874-1.684 3.922-1.117 4.318-4.232 5.774l-1.855-1.338c-2.179-4.294-2.087-5.422-2.151-10.31"/><path fill="#989898" d="M771.013 421.066c4.876.099 9.763-.197 10.346 5.664.663 6.653-.222 14.081-.134 20.915l-2.766 1.14c-7.217-1.134-7.322-21.354-7.446-27.719"/><path fill="url(#c)" d="M296.403 880.953c-1.917-.696-4.534-1.441-6.016-2.717 5.219-2.145 5.903-3.054 8.617-8.035l.254-.473c9.418-5.435 71.775-4.918 86.277-5.023l84.922-1.184c-1.423-1.549-24.421.77-28.109-1.018l2.772-2.1c.838-11.781 4.197-19.942 7.187-31.117l9.723-37.592c2.157-8.425 9.516-43.961 11.185-52.385 4.464-22.53 39.915-143.338 37.004-158.686l-5.684-.883.2-1.074c5.775-1.599 18.206 2.691 23.266 5.605.378 4.865-.378 4.198 2.119 7.682 8.856 5.536 15.03-2.961 16.217 15.876 5.264 1.339 10.17 2.577 15.363 4.217l1.768 10.437c5.024 1.831 13.885 4.123 16.175 9.177 3.073 6.783 13.089 12.577 19.146 17.645a5434 5434 0 0 1 42.622 36.432c3.958 3.415 12.671 9.86 14.702 13.733l.453.851c.38.716.74 1.442 1.08 2.177l14.506 8.367 2.941 8.269c4.443 2.066 9.51 4.578 13.997 6.385l2.442 9.127c9.469 3.352 14.934 3.555 17.047 14.487 12.832 6.605 28.225 21.757 39.368 31.633 9.283 8.228 32.675 25.215 37.152 35.247 12.453 5.417 15.279 1.531 16.14 16.275 6.048 1.414 12.805 3.134 18.851 4.248 2.558 3.204.782 6.876 2.365 8.958 2.305 3.032 7.558 7.175 10.328 9.996-.845 3.02-1.144 5.448-3.81 7.116-2.955.655-4.798.978-7.801 1.344-10.867 1.894-22.539 3.617-33.152 6.506-6.396 1.742-18.568 8.402-24.538 9.077-32.422 3.669-67.471 3.407-100.155 4.557-15.351 2.553-20.852 2.469-36.363 2.4-3.166 1.736-5.503 2.979-8.444 5.104 5.271 3.042 26.549-2.29 30.386-1.141-13.865 6.89-220.877 3.614-250.839 2.489-4.259-.16-12.967-1.574-16.978-3.756-1.516-.824-6.069-3.733-7.502-4.08-4.489-1.088-10.332-1.368-15.073-1.964-20.709-.578-41.413-1.308-62.111-2.189"/><path fill="#CDCBCC" d="M358.514 883.142c101.605-.35 203.212-.034 304.813.948-15.351 2.553-20.852 2.469-36.363 2.4-3.166 1.736-5.503 2.979-8.444 5.104 5.271 3.042 26.549-2.29 30.386-1.141-13.865 6.89-220.877 3.614-250.839 2.489-4.259-.16-12.967-1.574-16.978-3.756-1.516-.824-6.069-3.733-7.502-4.08-4.489-1.088-10.332-1.368-15.073-1.964"/><path fill="#B3B2B3" d="M820.09 836.536c2.558 3.204.782 6.876 2.365 8.958 2.305 3.032 7.558 7.175 10.328 9.996-.845 3.02-1.144 5.448-3.81 7.116-2.955.655-4.798.978-7.801 1.344 2.048-8.866-2.719-16.047-1.082-27.414"/><path fill="url(#d)" d="M489.806 134.312c11.568-.967 29.186-2.476 40.235 1.248 15.285 5.152 21.317 8.411 37.451 11.463l10.318 1.034 12.219 1.325c.789 3.803 1.219 8.485 4.03 10.926 2.666.993 4.599 1.618 7.337 2.395l4.466.864 5.119 2.508c.74 2.664 1.382 7.805 3.902 8.806 9.212 3.662 12.863 1.638 12.943 13.349 2.436 3.099 2.533 2.597 7.308 3.548-5.297.589-5.513.495-9.361 4.239.15 4.918-.177 14.342 5.674 16.201-.94 1.182-2.528 1.35-3.92 1.712-1.299 1.273-3.83 3.725-4.168 5.453-4.583 20.375-7.608 43.651-13.887 63.522-9.388 29.713-18.829 60.488-29.328 89.843-16.292 45.552-33.239 90.111-45.704 137.121-2.281 8.605-18.325 43.311-15.048 49.831l.952-.198c1.418-.279 1.76-.205 3.18-.076l-1.545-.319 1.413-.099c-2.676 4.264-11.994 1.846-10.379 13.529 1.797 2.964 4.82 3.806 8.101 4.609 2.306.545 4.628 1.016 6.964 1.412-19.56 2.122-10.332-5.679-23.287-15.551l-.394-.296 1.5-1.371c1.958.431 2.431 1.252 3.83 2.754l.526.571c1.825-6.937-5.335-15.769-6.325-22.139-1.333-8.579-2.91-17.781-4.057-26.374-3.452-25.876-12.648-50.054-17.964-75.232l-20.626-93.746c-8.628-41.136-15.455-82.551-29.507-122.272-3.494-9.876-6.619-21.739-11.478-30.895-4.434 1.149-6.83 1.91-11.378 2.028-1.868-1.295-2.903-2.335-5.137-2.391.135 9.628-1.807 28.134-15.781 16.256l-1.537-1.881c-1.64-5.809-1.016-7.546 1.233-12.851 3.58-6.532 4.91-8.428 11.469-11.829l8.523-5.217c4.443-3.087 7.851-.909 11.731-3.87-.999-2.895-2.261-5.36-1.04-8.155 2.324-2.682 7.091-3.142 10.748-3.906 3.899-1.12 7.891-1.821 11.875-2.59-2.945-3.11-4.192-3.967-2.877-8.225 2.609-2.055 7.018-2.218 10.446-2.666 5.191-.447 9.915-1.045 15.06-1.737 11.796-3.133 16.65-4.52 26.175-12.661"/><path fill="#696869" d="M463.631 146.973c10.188.562 14.144.609 24.24.029 9.872.809 28.957.703 39.24.788 10.193.085 38.866 2.903 46.77 1.247l-2.393 11.807c-33.837 1.375-68.631-.456-102.561.387-6.949.172-13.205-.635-18.487-5.467l-1.869-7.054c5.191-.447 9.915-1.045 15.06-1.737"/><path fill="#CDCBCC" d="M489.806 134.312c11.568-.967 29.186-2.476 40.235 1.248 15.285 5.152 21.317 8.411 37.451 11.463-22.849.13-59.076-3.044-79.621-.021-10.096.58-14.052.533-24.24-.029 11.796-3.133 16.65-4.52 26.175-12.661"/><path fill="#3D3D3F" d="M387.696 195.168c3.58-6.532 4.91-8.428 11.469-11.829l4.738 5.681c-.765.941-2.399 3.064-3.202 3.771 1.058 6.023 2.053 7.964.978 13.922-4.626 6.101-7.614 3.252-13.679 3.187l-1.537-1.881c-1.64-5.809-1.016-7.546 1.233-12.851"/><path fill="#B3B2B3" d="M387.696 195.168c3.58-6.532 4.91-8.428 11.469-11.829l4.738 5.681c-.765.941-2.399 3.064-3.202 3.771-4.282.805-8.714 1.706-13.005 2.377"/><path fill="#696869" d="m605.862 163.567 5.119 2.508c-.175.489-6.613 12.055-6.39 11.946-5.148 2.527-12.7-2.182-18.33-2.416-4.269-.178-6.897 2.672-10.114-1.779l.737-2.237c4.419-4.945 20.992-6.196 28.978-8.022"/><path fill="#555455" d="M419.419 174.252c-.999-2.895-2.261-5.36-1.04-8.155 2.324-2.682 7.091-3.142 10.748-3.906 2.33 1.996 4.446 4.18 7.41 4.906l-.919 9.214c-6.316 1.763-11.775 3.77-16.199-2.059"/><path fill="#3D3D3F" d="m399.165 183.339 8.523-5.217c4.683 4.121 7.837 4.977 10.057 9.938-.113 3.51.379 2.271-1.65 4.807-4.869 1.986-10.105 1.448-12.192-3.847z"/><path fill="#B3B2B3" d="m577.81 148.057 12.219 1.325c.789 3.803 1.219 8.485 4.03 10.926 2.666.993 4.599 1.618 7.337 2.395-5.508.396-14.395.268-18.765-3.51-1.786-3.576-1.233-2.669-.824-7.139-1.392-3.139-.5-2.034-3.997-3.997"/><path fill="#696869" d="M436.537 167.097c6.926-.979 12.257 4.307 17.993 8.535-5.98.301-13.031.832-18.912.679z"/><path fill="#989898" d="M441.002 159.601c-2.945-3.11-4.192-3.967-2.877-8.225 2.609-2.055 7.018-2.218 10.446-2.666l1.869 7.054c-2.832 1.633-6.09 3.597-9.438 3.837"/><path fill="#696869" d="M612.645 180.975c5.445-.126 10.614 1.374 12.992 6.442-.214 3.399-1.368 4.398-3.455 6.997-5.355-.072-10.635 1.068-13.651-3.689.011-3.285 2.431-6.776 4.114-9.75"/><path fill="#3D3D3F" d="M131.319 650.794c9.074 34.509 12.924 68.835 1.695 103.105-1.275 3.891-1.081 7.415-2.428 10.485-.712-5.285-.663-18.469-5.058-21.926-3.131.371-3.899.569-7.02-.461-4.09-16.194-3.035-43.27-1.253-60.24.823-7.844 10.161-22.991 14.064-30.963"/><path fill="url(#e)" d="M133.19 632.907c4.635-.257 3.922-.929 7.257 1.146 6.314 9.2 3.013 50.927 3.118 64.542.081 12.934.283 25.867.608 38.797.402 11.605 5.984 36.033-9.209 38.957-1.178-.374-1.736-.364-2.529-1.174-.326-3.441-1.185-7.351-1.849-10.791 1.347-3.07 1.153-6.594 2.428-10.485 11.229-34.27 7.379-68.596-1.695-103.105-.204-5.367 1.083-12.436 1.871-17.887"/><path fill="#696869" d="M371.532 216.434c.571 6.768 2.731 13.569 11.048 12.067l2.176-1.82c4.736 14.717-4.994 11.762-13.054 18.178-3.193 2.543-.98 10.739-3.797 14.082-3.475.907-11.564-1.013-14.869-2.297-.162 4.469 1.527 2.225 1.403 5.194-1.992-.976-2.43-1.665-3.982-3.309-2.814-1.288-4.367-2.356-7.41-1.611-2.088 1.717-2.257 1.995-3.26 4.509 1.934-17.533 3.484-8.57 14.091-19.366 1.981-3.243 3.014-9.866 3.85-13.819 4.167-.285 8.192-.426 11.488-2.913 2.375-3.188 2.154-4.91 2.316-8.895"/><path fill="#B3B2B3" d="M353.878 242.061c-1.72 8.108.977 7.499-3.421 16.468-2.814-1.288-4.367-2.356-7.41-1.611-2.088 1.717-2.257 1.995-3.26 4.509 1.934-17.533 3.484-8.57 14.091-19.366"/><path fill="#19191A" d="M163.135 805.819c2.996-1.915 7.414-4.77 10.893-4.076 5.862 5.322-.543 12.425 8.309 17.774 4.576-.439 6.789-1.213 10.371 1.107 2.41 4.59-.777 15.731-1.458 21.682l-1.479 1.88c-4.898.116-3.668-1.65-7.987-1.016-2.11-11.239-6.175-11.048-16.28-12.505-.814-5.1-1.311-8.132-2.788-13.158-.113-4.325.081-7.363.419-11.688"/><path fill="#696869" d="M323.368 287.867c2.556-9.872 1.853-11.692 13.066-13.472 2.338-2.76 1.785-3.636 2.477-7.797.284 3.718.833 8.214.21 11.81l-.381 1.273c2.373 3.847.223 8.757.491 12.246 1.541 20.005-12.887 13.942-16.509 20.201-.66-1.77-1.02-2.071-2.182-3.482l-3.076-.155c-1.814-1.566-2.939-2.464-4.922-3.809l-2.829.737c3.67-5.778 8.075-4.063 13.655-17.552"/><path fill="#989898" d="M323.368 287.867c-.275 7.223 1.806 18.079-5.904 20.624-1.814-1.566-2.939-2.464-4.922-3.809l-2.829.737c3.67-5.778 8.075-4.063 13.655-17.552"/><path fill="#555455" d="m309.713 305.419 2.829-.737c1.983 1.345 3.108 2.243 4.922 3.809l3.076.155c1.162 1.411 1.522 1.712 2.182 3.482-.728 6.897-1.266 21.041-5.612 25.728-4.875 1.441-8.296-3.223-9.441-7.481-8.639 1.569-2.722 6.711-14.931 4.972 1.895-10.524 11.955-8.382 15.272-22.692.023-1.652 1.215-5.463 1.703-7.236"/><path fill="#8B8A8A" d="M292.738 335.347c1.895-10.524 11.955-8.382 15.272-22.692-.433 7.33 1.626 12.297-.341 17.72-8.639 1.569-2.722 6.711-14.931 4.972"/><path fill="#3D3D3F" d="M148.747 597.101c19.912-6.999 10.616 28.033 10.307 38.385l-.861.469c-3.938-5.401-6.91-11.024-10.167-16.851.068-4.976.282-10.642.021-15.556.003-1.284.532-4.975.7-6.447m109.878-194.985c1.887-5.146.441-8.674 3.092-14.329 3.166-2.634 2.338-1.838 7.266-2.041 2.723 5.564 3.973 8.772 4.361 15.074.367 5.952-.691 19.679-9.568 18.042-4.423-3.781-4.057-4.617-4.031-10.21.458-2.261-.437-4.247-1.12-6.536m-74.933 127.537 6.034 1.069c2.343 6.666 4.99 27.789.655 33.549-4.298 1.194-6.838-4.392-10.743-7.334-2.171-5.186 2.334-6.699-.443-12.92.829-4.434 1.318-8.167 1.835-12.653zm63.418-114.6 3.756 2.259 4.587 1.379c2.036 5.708 1.939 27.187-2.546 31.482-4.591-1.514-8.832-15.645-9.904-20.42 1.11-5.323 1.809-9.715 4.107-14.7m-83.266 153.181c2.071-2.312 3.285-4.292 6.197-4.832 3.143.697 4.904 3.287 7.115 5.747.114 7.824 1.215 19.883-3.182 26.103l-1.917.758c-6.381-2.849-7.963-18.963-8.04-25.178zm33.658-64.928c11.896-.469 14.012 19.309 10.26 27.13-2.519 2.131-1.278 1.724-4.646 1.474-7.085-4.92-9.201-4.808-9.215-13.381.279-.682 1.176-4.83 1.408-5.818z"/><path fill="#555455" d="M339.787 261.427c1.003-2.514 1.172-2.792 3.26-4.509 3.043-.745 4.596.323 7.41 1.611 1.552 1.644 1.99 2.333 3.982 3.309-.016 5.016-.618 20.735-5.726 22.461-4.258-2.12-6.127-4.58-9.592-5.891.623-3.596.074-8.092-.21-11.81z"/><path fill="#19191A" d="M146.722 798.223c.056-3.445-.247-8.637 1.265-11.496 6.79-5.78 5.61-3.355 8.704-11.192 4.386 1.809 6.166 20.638 3.505 26.34-8.06 1.006-3.328 3.803-12.55-1.924z"/><path fill="#3D3D3F" d="M212.314 479.368c3.561.123 7.438-.537 10.112 2.144 4.606 4.618 6.232 18.102-2.361 19.056-3.304-1.631-5.046-5.213-6.56-8.539l-2.155-1.456-.748-4.681c.61-1.923 1.193-4.515 1.712-6.524"/><path fill="#555455" d="M375.46 209.57c4.377.34 6.242.144 9.449 3.01 3.261 4.653 1.457 9.133-.153 14.101l-2.176 1.82c-8.317 1.502-10.477-5.299-11.048-12.067l-.277-1.675c1.274-3.662.805-2.542 4.205-5.189"/><path fill="#3D3D3F" d="M227.891 453.243c4.339-3.528 3.395-3.925 7.981-4.115 7.459 4.379 3.995 25.35.615 31.064l-1.384.062c-3.709-5.826 1.816-12.735-7.034-23.714l-.207-2.422zm63.651-111.691c2.121-3.164 2.561-3.369 6.114-4.679 10.846.92 8.759 12.613 6.327 19.789-8.279 1.868-12.944-7.801-12.325-14.276zm-4.573 24.633c2.9 2.939 2.171 5.501 2.161 10.239.006 1.103-.016 2.205-.068 3.306-.154 3.034-.43 5.685-2.733 7.785-6.836 1.173-11.065-8.679-11.482-14.533 4.681-.572 7.622-3.909 12.122-6.797"/><path fill="#696869" d="M278.377 356.928c8.591-2.45 9.985-2.568 12.712-11.383.222 7.056 2.23 16.362-4.12 20.64-4.5 2.888-7.441 6.225-12.122 6.797.455-5.198 2.189-10.949 3.53-16.054"/><path fill="#555455" d="m291.089 345.545.569-3.159c-.619 6.475 4.046 16.144 12.325 14.276.509 4.346 1.339 10.527-1.302 14.161l-1.449.143c-2.022-2.028-3.503-3.475-5.714-5.329l-2.218.009c-3.62 3.66-3.22 5.345-4.17 10.778.01-4.738.739-7.3-2.161-10.239 6.35-4.278 4.342-13.584 4.12-20.64"/><path fill="#B3B2B3" d="M148.636 592.222c-.946-9.962 6.753-7.844 13.854-16.537-1.08 6.373-1.067 11.916-5.751 16.107-2.593 1.334-5.204.745-8.103.43m32.394-60.858c1.19-8.832 7.625-11.068 14.279-18.653-.232.988-1.129 5.136-1.408 5.818-2.658 12.275-.866 8.515-10.209 11.124z"/><path fill="#989898" d="M247.11 415.053c1.649-.99 9.701-10.798 11.515-12.937.683 2.289 1.578 4.275 1.12 6.536-.841 4.594-.124 4.969-2.844 7.759l-6.035.901z"/><path fill="#B3B2B3" d="M672.556 241.332c4.14 2.6 9.404 6.121 13.617 8.368 1.516 5.381 4.034 21.561 7.432 24.239 1.547 1.219 5.821.302 8.701 2.343l.133 1.703c-.513-.503-1.743-1.168-2.417-1.574l-2.887.916c-4.351.125-6.064.344-7.539-4.058a90 90 0 0 0-.523-5.559c-.506-3.763-1.384-4.855-4.25-7.045l-2.553-1.702c-7.558-.066-9.565-11.785-9.714-17.631"/><path fill="#3D3D3F" d="M147.646 799.951c9.222 5.727 4.49 2.93 12.55 1.924.801 1.278 1.781 3.119 2.939 3.944-.338 4.325-.532 7.363-.419 11.688-4.755-5.262-4.321-5.613-10.89-6.454-2.642-1.966-3.383-7.634-4.18-11.102"/></g></svg>