<svg width="32" height="32" viewBox="0 0 32 32" fill="none" xmlns="http://www.w3.org/2000/svg">
<g clip-path="url(#clip0_532_216766)">
<mask id="mask0_532_216766" style="mask-type:luminance" maskUnits="userSpaceOnUse" x="0" y="3" width="26" height="26">
<path d="M26 3H0V29H26V3Z" fill="white"/>
</mask>
<g mask="url(#mask0_532_216766)">
<path d="M12.9827 28.9393C20.1739 28.9393 26.0035 23.1421 26.0035 15.9909C26.0035 8.83968 20.1739 3.04248 12.9827 3.04248C5.79153 3.04248 -0.0380859 8.83968 -0.0380859 15.9909C-0.0380859 23.1421 5.79153 28.9393 12.9827 28.9393Z" fill="#FAB425"/>
<path d="M19.7931 22.4799C14.0194 23.6397 8.37878 19.9186 7.20538 14.2104C6.61845 11.4445 7.22123 8.682 8.65532 6.45117C4.30702 8.43851 1.73544 13.1951 2.73274 18.0794C3.90614 23.7876 9.54679 27.5088 15.3204 26.3488C18.2965 25.7691 20.681 24.0115 22.2344 21.6634C21.4601 22.0141 20.6859 22.3059 19.7931 22.4799Z" fill="url(#paint0_linear_532_216766)"/>
<path fill-rule="evenodd" clip-rule="evenodd" d="M23.2107 20.9007L23.9198 21.4016C24.0796 21.5145 24.0629 21.7553 23.8891 21.8454L21.5934 23.0348C21.4111 23.1293 21.1954 22.9878 21.2109 22.784L21.413 20.1158C21.4283 19.9135 21.6599 19.8053 21.8262 19.9228L22.4621 20.3719C24.0854 16.7033 23.4854 12.2695 20.5801 9.13512C16.6976 4.94648 10.156 4.65098 5.90845 8.44914C5.85462 8.49727 5.77132 8.49436 5.72227 8.44142L5.28935 7.97441C5.24028 7.92147 5.24404 7.83853 5.29783 7.79035C9.91126 3.65689 17.0228 3.97548 21.2425 8.52795C24.4436 11.9814 25.0669 16.8854 23.2107 20.9007Z" fill="white"/>
<path fill-rule="evenodd" clip-rule="evenodd" d="M2.73246 11.2385L2.02331 10.7376C1.86356 10.6248 1.88021 10.3839 2.05399 10.2938L4.3497 9.10441C4.53201 9.00995 4.74771 9.15136 4.73228 9.35518L4.53015 12.0234C4.51483 12.2257 4.28324 12.3339 4.11693 12.2164L3.48107 11.7673C1.85776 15.4359 2.45769 19.8697 5.36301 23.0041C9.24556 27.1927 15.7871 27.4882 20.0347 23.6901C20.0885 23.6419 20.1718 23.6449 20.2209 23.6978L20.6538 24.1648C20.7028 24.2178 20.6991 24.3007 20.6453 24.3489C16.0319 28.4823 8.92036 28.1637 4.70059 23.6113C1.4995 20.1578 0.876179 15.2538 2.73246 11.2385Z" fill="white"/>
<path d="M6.54545 19.3913H5.28047L5.28847 18.4627H6.54545C6.85935 18.4627 7.12405 18.3926 7.33954 18.2524C7.55503 18.1096 7.71731 17.9019 7.82636 17.6294C7.93811 17.3569 7.99398 17.0276 7.99398 16.6413V16.3596C7.99398 16.0633 7.96206 15.8027 7.89821 15.5778C7.837 15.353 7.74523 15.1638 7.62285 15.0103C7.50049 14.8569 7.35018 14.7418 7.17195 14.6651C6.99369 14.5857 6.78887 14.5461 6.5574 14.5461H5.25654V13.6135H6.5574C6.94582 13.6135 7.30097 13.6797 7.62285 13.812C7.94741 13.9416 8.22808 14.1281 8.46483 14.3715C8.7016 14.6149 8.88383 14.9059 9.01153 15.2445C9.14189 15.5805 9.20707 15.9548 9.20707 16.3675V16.6413C9.20707 17.0514 9.14189 17.4257 9.01153 17.7643C8.88383 18.1029 8.7016 18.394 8.46483 18.6373C8.23072 18.8781 7.95008 19.0646 7.62285 19.1969C7.29831 19.3265 6.93917 19.3913 6.54545 19.3913ZM5.95886 13.6135V19.3913H4.76172V13.6135H5.95886Z" fill="white"/>
<path d="M12.0963 14.6016L10.5161 19.3913H9.24316L11.402 13.6135H12.212L12.0963 14.6016ZM13.4092 19.3913L11.825 14.6016L11.6973 13.6135H12.5153L14.6861 19.3913H13.4092ZM13.3374 17.2405V18.1731H10.2687V17.2405H13.3374Z" fill="white"/>
<path d="M16.7527 13.6135V19.3913H15.5596V13.6135H16.7527Z" fill="white"/>
<path d="M21.5615 16.1732V17.1692H17.5791V16.1732H21.5615ZM20.117 14.6057V18.812H19.0276V14.6057H20.117Z" fill="white"/>
</g>
</g>
<g clip-path="url(#clip1_532_216766)">
<path d="M25.0406 31.9674C28.8912 31.9674 32.0128 28.8458 32.0128 24.9952C32.0128 21.1445 28.8912 18.0229 25.0406 18.0229C21.1899 18.0229 18.0684 21.1445 18.0684 24.9952C18.0684 28.8458 21.1899 31.9674 25.0406 31.9674Z" fill="#001845"/>
<path d="M28.6865 28.489C25.5949 29.1135 22.5745 27.1098 21.9462 24.0362C21.6319 22.5469 21.9547 21.0594 22.7226 19.8582C20.3942 20.9283 19.0172 23.4895 19.5512 26.1195C20.1795 29.1931 23.1999 31.1969 26.2915 30.5723C27.8851 30.2601 29.162 29.3137 29.9937 28.0494C29.5791 28.2382 29.1646 28.3953 28.6865 28.489Z" fill="url(#paint1_linear_532_216766)"/>
<path d="M24.6746 28.1187C23.7481 28.0158 23.1313 27.4485 22.976 26.6639C22.9327 26.4449 23.1186 26.2619 23.3418 26.2619C23.5651 26.2619 23.7373 26.4467 23.7962 26.662C23.9347 27.1677 24.3577 27.4598 25.0339 27.4598C25.8725 27.4598 26.3217 27.0106 26.3217 26.4716C26.3217 24.9442 22.9974 25.7229 22.9974 23.4767C22.9974 22.728 23.6863 21.9494 24.6746 21.8296V21.2756C24.6746 21.0853 24.8287 20.9312 25.019 20.9312C25.2092 20.9312 25.3634 21.0853 25.3634 21.2756V21.8296C26.1541 21.9571 26.7494 22.541 26.9084 23.2849C26.9552 23.5033 26.7696 23.6864 26.5463 23.6864C26.323 23.6864 26.1492 23.5009 26.0812 23.2882C25.9282 22.8102 25.504 22.4885 25.004 22.4885C24.2553 22.4885 23.7761 22.9976 23.7761 23.4767C23.7761 25.0041 27.1004 24.2254 27.1004 26.4716C27.1004 27.2801 26.4415 27.9989 25.3634 28.1487V28.7027C25.3634 28.8929 25.2092 29.0471 25.019 29.0471C24.8287 29.0471 24.6746 28.8929 24.6746 28.7027V28.1187Z" fill="white"/>
<path fill-rule="evenodd" clip-rule="evenodd" d="M30.4078 27.5086L30.7737 27.7685C30.8562 27.827 30.8476 27.952 30.7579 27.9987L29.5734 28.6159C29.4794 28.6649 29.3681 28.5915 29.376 28.4857L29.4804 27.1013C29.4882 26.9964 29.6077 26.9403 29.6935 27.0012L30.0216 27.2343C30.8592 25.3309 30.5496 23.0305 29.0506 21.4042C27.0474 19.231 23.6723 19.0777 21.4808 21.0483C21.453 21.0733 21.41 21.0718 21.3847 21.0443L21.1613 20.802C21.136 20.7745 21.138 20.7315 21.1657 20.7065C23.546 18.5619 27.2152 18.7272 29.3924 21.0892C31.044 22.881 31.3656 25.4253 30.4078 27.5086Z" fill="#23DD00"/>
<path fill-rule="evenodd" clip-rule="evenodd" d="M19.8408 22.4953L19.4749 22.2355C19.3925 22.1769 19.4011 22.0519 19.4907 22.0052L20.6752 21.3881C20.7693 21.3391 20.8806 21.4125 20.8726 21.5182L20.7683 22.9026C20.7604 23.0075 20.6409 23.0637 20.5551 23.0027L20.227 22.7697C19.3895 24.6731 19.699 26.9735 21.198 28.5997C23.2012 30.7729 26.5763 30.9263 28.7679 28.9556C28.7956 28.9307 28.8386 28.9322 28.8639 28.9596L29.0873 29.2019C29.1126 29.2294 29.1107 29.2724 29.0829 29.2974C26.7026 31.442 23.0334 31.2767 20.8562 28.9148C19.2046 27.123 18.883 24.5786 19.8408 22.4953Z" fill="#23DD00"/>
</g>
<g clip-path="url(#clip2_532_216766)">
<mask id="mask1_532_216766" style="mask-type:luminance" maskUnits="userSpaceOnUse" x="18" y="0" width="14" height="14">
<path d="M32 0H18V14H32V0Z" fill="white"/>
</mask>
<g mask="url(#mask1_532_216766)">
<path fill-rule="evenodd" clip-rule="evenodd" d="M30.2017 8.69395e-10C29.4808 -1.37073e-05 28.391 0.162081 27.2263 0.415686C26.0345 0.675169 24.6697 1.05137 23.3724 1.5223C22.0862 1.98917 20.8079 2.57005 19.8305 3.2561C18.8883 3.91741 18.0001 4.83826 18 5.99994C18 6.17338 18.0199 6.33808 18.057 6.49443C18.0199 6.65749 18 6.82602 18 6.99994C18 7.17338 18.0199 7.33808 18.057 7.49443C18.0199 7.65749 18 7.82602 18 7.99994C18 8.17338 18.0199 8.33808 18.057 8.49443C18.0199 8.65749 18 8.82602 18 8.99994C18 9.17338 18.0199 9.33808 18.057 9.49443C18.0199 9.65749 18 9.82602 18 9.99994C17.9999 11.3404 19.1901 12.1594 20.2854 12.6288C21.426 13.1177 22.8746 13.4185 24.2246 13.6114C25.594 13.807 26.9523 13.9035 27.9611 13.9516C28.4674 13.9757 28.89 13.9878 29.1874 13.9939C29.3329 13.9968 29.574 13.9991 29.6609 13.9999L29.6667 14H30.0586C30.8085 14 31.4164 13.479 31.4164 12.8362C31.4164 12.6618 31.37 12.4911 31.2849 12.3365C31.3692 12.1849 31.4164 12.0153 31.4164 11.8362C31.4164 11.6618 31.37 11.4911 31.2849 11.3365C31.3692 11.1849 31.4164 11.0153 31.4164 10.8362C31.4164 10.6618 31.37 10.4911 31.2849 10.3365C31.3692 10.1849 31.4164 10.0153 31.4164 9.83622C31.4164 9.66127 31.3698 9.49011 31.2842 9.33517C31.3689 9.18395 31.4164 9.01478 31.4164 8.83622C31.4164 8.24339 30.8811 7.69405 30.1077 7.67184C29.7591 7.66183 28.9332 7.63155 27.9106 7.55175C29.0093 7.31903 29.9671 7.15386 30.5275 7.06339C31.3824 6.92539 32 6.28686 32 5.54138C32 5.36658 31.966 5.19857 31.9035 5.04193C31.9662 4.88429 32 4.71576 32 4.54138C32 4.36658 31.966 4.19857 31.9035 4.04193C31.9662 3.88429 32 3.71576 32 3.54138C32 3.36658 31.966 3.19857 31.9035 3.04193C31.9662 2.88429 32 2.71576 32 2.54138C32 2.36658 31.966 2.19857 31.9035 2.04193C31.9662 1.88429 32 1.71576 32 1.54138C32 0.690109 31.1949 1.69891e-05 30.2017 8.69395e-10Z" fill="white"/>
<path d="M30.202 1.16675C30.5508 1.16675 30.8336 1.4024 30.8336 1.69309C30.8336 1.95039 30.6153 2.16978 30.3119 2.2174C28.1917 2.55013 20.3337 3.92519 20.3337 6.02786C20.3337 8.26351 28.7234 8.58737 30.0689 8.62494C30.1729 8.62784 30.25 8.69863 30.25 8.78529C30.25 8.87323 30.1644 8.94452 30.0589 8.94452H29.9583H29.6667C29.6667 8.94452 19.1668 8.94453 19.167 6.02786C19.1672 3.28787 27.917 1.16669 30.202 1.16675Z" fill="#0C0D1D"/>
<path d="M30.202 2.13892C30.5508 2.13892 30.8336 2.37457 30.8336 2.66526C30.8336 2.92256 30.6153 3.14195 30.3119 3.18956C28.1917 3.5223 20.3337 4.89736 20.3337 7.00003C20.3337 9.23568 28.7234 9.55954 30.0689 9.59711C30.1729 9.60001 30.25 9.6708 30.25 9.75746C30.25 9.8454 30.1644 9.91669 30.0589 9.91669H29.9583H29.6667C29.6667 9.91669 19.1668 9.9167 19.167 7.00003C19.1672 4.26004 27.917 2.13886 30.202 2.13892Z" fill="#0433FF"/>
<path d="M30.202 3.11108C30.5508 3.11108 30.8336 3.34674 30.8336 3.63743C30.8336 3.89472 30.6153 4.11411 30.3119 4.16173C28.1917 4.49447 20.3337 5.86953 20.3337 7.9722C20.3337 10.2078 28.7234 10.5317 30.0689 10.5693C30.1729 10.5722 30.25 10.643 30.25 10.7296C30.25 10.8176 30.1644 10.8889 30.0589 10.8889H29.9583H29.6667C29.6667 10.8889 19.1668 10.8889 19.167 7.9722C19.1672 5.23221 27.917 3.11102 30.202 3.11108Z" fill="#9CADFF"/>
<path d="M30.202 4.08325C30.5508 4.08325 30.8336 4.31891 30.8336 4.6096C30.8336 4.86689 30.6153 5.08628 30.3119 5.1339C28.1917 5.46664 20.3337 6.8417 20.3337 8.94437C20.3337 11.18 28.7234 11.5039 30.0689 11.5415C30.1729 11.5444 30.25 11.6152 30.25 11.7018C30.25 11.7898 30.1644 11.8611 30.0589 11.8611H29.9583H29.6667C29.6667 11.8611 19.1668 11.8611 19.167 8.94437C19.1672 6.20438 27.917 4.08319 30.202 4.08325Z" fill="#F5F3E6"/>
<path d="M30.202 5.05566C30.5508 5.05566 30.8336 5.29131 30.8336 5.58201C30.8336 5.8393 30.6153 6.05869 30.3119 6.10631C28.1917 6.43904 20.3337 7.81411 20.3337 9.91678C20.3337 12.1525 28.7234 12.4763 30.0689 12.5139C30.1729 12.5168 30.25 12.5876 30.25 12.6742C30.25 12.7622 30.1644 12.8335 30.0589 12.8335H29.9583H29.6667C29.6667 12.8335 19.1668 12.8335 19.167 9.91678C19.1672 7.17679 27.917 5.0556 30.202 5.05566Z" fill="#FF1100"/>
</g>
</g>
<defs>
<linearGradient id="paint0_linear_532_216766" x1="1.95148" y1="28.8383" x2="13.912" y2="14.8701" gradientUnits="userSpaceOnUse">
<stop offset="0.0729167" stop-color="#FFD923"/>
<stop offset="0.4775" stop-color="#F8E5C2"/>
<stop offset="1" stop-color="#FAB223"/>
</linearGradient>
<linearGradient id="paint1_linear_532_216766" x1="19.1329" y1="31.9128" x2="25.5786" y2="24.4269" gradientUnits="userSpaceOnUse">
<stop offset="0.0729167" stop-color="#FFD923"/>
<stop offset="0.4775" stop-color="#0466C8"/>
<stop offset="1" stop-color="#001845"/>
</linearGradient>
<clipPath id="clip0_532_216766">
<rect width="26" height="26" fill="white" transform="translate(0 3)"/>
</clipPath>
<clipPath id="clip1_532_216766">
<rect width="14" height="14" fill="white" transform="translate(18 18)"/>
</clipPath>
<clipPath id="clip2_532_216766">
<rect width="14" height="14" fill="white" transform="translate(18)"/>
</clipPath>
</defs>
</svg>
