<svg width="32" height="32" viewBox="0 0 32 32" fill="none" xmlns="http://www.w3.org/2000/svg">
<path d="M32 16C32 13.9059 31.5834 11.8118 30.7821 9.87712C29.9808 7.9424 28.7946 6.16704 27.3136 4.6864C25.833 3.20544 24.0576 2.0192 22.1229 1.21792C20.1882 0.41664 18.0941 0 16 0C13.9059 0 11.8118 0.41664 9.87712 1.21792C7.9424 2.0192 6.16704 3.20544 4.6864 4.6864C3.20544 6.16704 2.0192 7.9424 1.21792 9.87712C0.41664 11.8118 0 13.9059 0 16C0 18.0941 0.41664 20.1882 1.21792 22.1229C2.0192 24.0576 3.20544 25.833 4.6864 27.3136C6.16704 28.7946 7.9424 29.9808 9.87712 30.7821C11.8118 31.5834 13.9059 32 16 32C18.0941 32 20.1882 31.5834 22.1229 30.7821C24.0576 29.9808 25.833 28.7946 27.3136 27.3136C28.7946 25.833 29.9808 24.0576 30.7821 22.1229C31.5834 20.1882 32 18.0941 32 16Z" fill="#074007"/>
<path fill-rule="evenodd" clip-rule="evenodd" d="M26.2251 12.3697L26.2395 12.3451C26.7906 11.3851 26.9989 10.1844 26.7915 9.07051C26.5845 7.95659 25.9614 6.92971 25.0811 6.22411C24.2008 5.51851 23.0629 5.13419 21.9307 5.17451C20.7982 5.21483 19.6718 5.67947 18.8549 6.42635L18.8011 6.47531L18.7531 6.52971C15.0741 10.6836 11.1208 14.2952 7.04208 17.2388C6.3032 17.772 5.70832 18.4779 5.3064 19.2916C4.90416 20.1051 4.7096 21.0161 4.73616 21.9208C4.76272 22.8251 5.01904 23.7256 5.4664 24.5105C5.91376 25.2952 6.56272 25.9726 7.32592 26.4548C7.70736 26.6961 8.11792 26.8916 8.5496 27.0347C8.98096 27.1777 9.42544 27.2638 9.85552 27.3019C10.2856 27.3403 10.7054 27.3323 11.1067 27.2843C11.3077 27.26 11.4984 27.227 11.6962 27.1796C11.8942 27.1326 12.1192 27.0622 12.3442 26.963C12.5691 26.8641 12.7915 26.74 13.0267 26.5892C13.2619 26.4385 13.5125 26.2596 13.8088 26.036C14.1051 25.812 14.4466 25.5428 14.8584 25.2113C15.2702 24.8795 15.7547 24.4884 16.333 24.002C17.4891 23.0296 18.9758 21.6936 20.6606 19.8193C22.3454 17.9454 24.2312 15.532 26.2101 12.394L26.2251 12.3697Z" fill="#011D07"/>
<path fill-rule="evenodd" clip-rule="evenodd" d="M19.7836 7.44273C18.8885 8.45329 17.9689 9.44209 17.0245 10.4091C15.1359 12.3432 13.1465 14.1682 11.0565 15.884C10.0117 16.7419 8.94197 17.5656 7.84757 18.3554C7.21493 18.812 6.71349 19.4491 6.41941 20.171C6.12501 20.893 6.03829 21.6997 6.17173 22.468C6.30517 23.2363 6.65909 23.9659 7.17941 24.5464C7.70005 25.1272 8.38709 25.5582 9.13621 25.7746C9.88533 25.9909 10.6969 25.9922 11.3317 25.8498C11.9669 25.7074 12.4255 25.4213 14.6194 23.6306C16.789 21.8597 20.6559 18.6174 25.0444 11.659C25.4367 10.9752 25.5852 10.1199 25.4377 9.32625C25.2898 8.53297 24.8463 7.80113 24.2191 7.29873C23.5919 6.79601 22.7813 6.52209 21.9749 6.55089C21.1682 6.57969 20.3657 6.91057 19.7836 7.44273Z" fill="#13A10E"/>
<path fill-rule="evenodd" clip-rule="evenodd" d="M6.11078 21.7331C6.1095 21.9795 6.12966 22.2259 6.1719 22.4685C6.30534 23.2368 6.65926 23.9664 7.17958 24.5469C7.70022 25.1277 8.38726 25.5587 9.13638 25.775C9.8855 25.9914 10.697 25.9926 11.3319 25.8502C11.9671 25.7078 12.4257 25.4218 14.6196 23.631C16.7892 21.8602 20.6561 18.6179 25.0445 11.6595C25.1626 11.4534 25.2589 11.2349 25.3332 11.0038C25.4817 10.5414 25.529 10.0691 25.4759 9.58656C25.449 9.34528 25.3985 9.112 25.3236 8.88672C20.7399 15.3734 17.0935 18.712 14.7249 20.6784C12.3559 22.6448 11.2647 23.239 10.2977 23.455C9.33062 23.671 8.48806 23.5091 7.45894 22.8934C7.02534 22.6339 6.5591 22.2941 6.11078 21.7331Z" fill="#107C10"/>
<path fill-rule="evenodd" clip-rule="evenodd" d="M8.54863 19.6582C8.39976 19.6576 8.2509 19.6915 8.10267 19.76C7.8059 19.8966 7.61349 20.1222 7.52545 20.4365C7.48127 20.5936 7.47135 20.7456 7.49504 20.8928C7.50784 20.9709 7.55426 21.047 7.62021 21.0947C7.68584 21.1424 7.77132 21.1622 7.85136 21.1491C7.93139 21.1363 8.00599 21.0905 8.05337 21.0243C8.10043 20.9581 8.12028 20.8713 8.10779 20.7933C8.09787 20.7318 8.10203 20.6685 8.12028 20.6029C8.15709 20.472 8.23745 20.3779 8.36103 20.3209C8.42281 20.2925 8.48492 20.2784 8.54703 20.2784C8.6261 20.2787 8.7087 20.2454 8.76665 20.1881C8.82459 20.1312 8.85789 20.0502 8.85821 19.9693C8.85853 19.8883 8.82555 19.807 8.76793 19.7497C8.7103 19.6921 8.62802 19.6582 8.54863 19.6582Z" fill="#16C50C"/>
<path fill-rule="evenodd" clip-rule="evenodd" d="M11.3398 19.6252C11.1907 19.6249 11.0421 19.6588 10.8939 19.727C10.5971 19.8636 10.4047 20.0892 10.3167 20.4035C10.2725 20.5606 10.2622 20.7129 10.2863 20.8601C10.2991 20.9382 10.3455 21.014 10.4111 21.0617C10.4771 21.1097 10.5625 21.1292 10.6423 21.1164C10.7223 21.1033 10.7972 21.0576 10.8443 20.9913C10.8916 20.9251 10.9115 20.8384 10.8987 20.7603C10.8888 20.6992 10.8929 20.6355 10.9115 20.5702C10.9483 20.439 11.0283 20.3449 11.1522 20.288C11.214 20.2595 11.2758 20.2454 11.3379 20.2457C11.4173 20.2457 11.4999 20.2124 11.5579 20.1555C11.6158 20.0982 11.6491 20.0172 11.6494 19.9363C11.6494 19.8553 11.6168 19.7744 11.5591 19.7168C11.5015 19.6592 11.4189 19.6256 11.3398 19.6252Z" fill="#16C50C"/>
<path fill-rule="evenodd" clip-rule="evenodd" d="M12.0958 16.8347C11.9466 16.8344 11.798 16.8683 11.6498 16.9368C11.353 17.0734 11.1606 17.2987 11.0726 17.6133C11.0284 17.7704 11.0182 17.9224 11.0422 18.0696C11.055 18.1477 11.1014 18.2235 11.167 18.2715C11.233 18.3192 11.3185 18.339 11.3982 18.3259C11.4782 18.3128 11.5531 18.267 11.6002 18.2011C11.6476 18.1349 11.6674 18.0482 11.6546 17.9701C11.6447 17.9086 11.6488 17.8453 11.6674 17.7797C11.7042 17.6485 11.7843 17.5547 11.9078 17.4978C11.97 17.4693 12.0317 17.4549 12.0938 17.4552C12.1732 17.4555 12.2558 17.4222 12.3138 17.365C12.3717 17.308 12.405 17.227 12.4053 17.1458C12.4053 17.0648 12.3727 16.9838 12.3151 16.9262C12.2574 16.869 12.1748 16.835 12.0958 16.8347Z" fill="#16C50C"/>
<path fill-rule="evenodd" clip-rule="evenodd" d="M14.7887 16.8669C14.6395 16.8666 14.4909 16.9005 14.3424 16.9687C14.0459 17.1053 13.8535 17.3309 13.7652 17.6452C13.7213 17.8023 13.7111 17.9546 13.7351 18.1018C13.7479 18.1799 13.7943 18.2557 13.8599 18.3034C13.9259 18.3514 14.011 18.3709 14.0911 18.3578C14.1711 18.345 14.2457 18.2993 14.2931 18.233C14.3405 18.1668 14.3603 18.0801 14.3475 18.002C14.3376 17.9405 14.3417 17.8772 14.3603 17.8119C14.3971 17.6807 14.4772 17.5866 14.6007 17.5297C14.6625 17.5012 14.7246 17.4871 14.7867 17.4874C14.8661 17.4874 14.9484 17.4541 15.0067 17.3972C15.0646 17.3399 15.0979 17.2589 15.0979 17.178C15.0982 17.097 15.0653 17.0157 15.008 16.9585C14.9503 16.9009 14.8677 16.8673 14.7887 16.8669Z" fill="#16C50C"/>
<path fill-rule="evenodd" clip-rule="evenodd" d="M15.4781 14.1094C15.3289 14.1091 15.1804 14.143 15.0318 14.2111C14.7354 14.3478 14.543 14.5734 14.4546 14.8876C14.4104 15.0447 14.4005 15.1971 14.4245 15.3439C14.437 15.4223 14.4834 15.4982 14.5494 15.5459C14.6153 15.5939 14.7005 15.6134 14.7805 15.6003C14.8606 15.5875 14.9352 15.5417 14.9825 15.4755C15.0299 15.4092 15.0498 15.3225 15.037 15.2444C15.027 15.183 15.0312 15.1196 15.0495 15.054C15.0863 14.9231 15.1666 14.8291 15.2902 14.7721C15.352 14.7436 15.4141 14.7295 15.4762 14.7295C15.5553 14.7299 15.6379 14.6966 15.6958 14.6396C15.7538 14.5823 15.7871 14.5014 15.7874 14.4204C15.7877 14.3395 15.7547 14.2582 15.6971 14.2009C15.6395 14.1433 15.5572 14.1097 15.4781 14.1094Z" fill="#16C50C"/>
<path fill-rule="evenodd" clip-rule="evenodd" d="M18.2689 14.1423C18.12 14.1417 17.9712 14.1756 17.8229 14.2441C17.5262 14.3807 17.3338 14.6063 17.2457 14.9206C17.2015 15.0777 17.1916 15.2297 17.2153 15.3769C17.2281 15.455 17.2745 15.5311 17.3405 15.5788C17.4061 15.6265 17.4916 15.6463 17.5716 15.6332C17.6517 15.6201 17.7263 15.5747 17.7736 15.5084C17.8207 15.4422 17.8406 15.3555 17.8281 15.2774C17.8181 15.2159 17.8223 15.1526 17.8406 15.087C17.8774 14.9561 17.9577 14.862 18.0813 14.8051C18.1431 14.7766 18.2052 14.7622 18.2673 14.7625C18.3464 14.7628 18.429 14.7295 18.4869 14.6723C18.5449 14.6153 18.5782 14.5343 18.5785 14.4534C18.5788 14.3721 18.5458 14.2911 18.4882 14.2335C18.4306 14.1763 18.3483 14.1423 18.2689 14.1423Z" fill="#16C50C"/>
<path fill-rule="evenodd" clip-rule="evenodd" d="M18.2689 11.3506C18.12 11.35 17.9712 11.3842 17.8229 11.4524C17.5262 11.589 17.3338 11.8146 17.2457 12.1288C17.2015 12.286 17.1916 12.4383 17.2153 12.5852C17.2281 12.6632 17.2745 12.7394 17.3405 12.7871C17.4061 12.8351 17.4916 12.8546 17.5716 12.8415C17.6517 12.8287 17.7263 12.7829 17.7736 12.7167C17.8207 12.6504 17.8406 12.5637 17.8281 12.4856C17.8181 12.4242 17.8223 12.3608 17.8406 12.2952C17.8774 12.1644 17.9577 12.0703 18.0813 12.0133C18.1431 11.9848 18.2052 11.9708 18.2673 11.9708C18.3464 11.9711 18.429 11.9378 18.4869 11.8805C18.5449 11.8236 18.5782 11.7426 18.5785 11.6616C18.5788 11.5807 18.5458 11.4994 18.4882 11.4421C18.4306 11.3845 18.3483 11.3509 18.2689 11.3506Z" fill="#16C50C"/>
<path fill-rule="evenodd" clip-rule="evenodd" d="M21.7161 10.6289C21.5672 10.6286 21.4183 10.6625 21.2701 10.731C20.9733 10.8676 20.7809 11.0929 20.6929 11.4075C20.6487 11.5646 20.6385 11.7166 20.6625 11.8638C20.6753 11.9419 20.7217 12.0177 20.7873 12.0657C20.8533 12.1134 20.9388 12.1332 21.0188 12.1201C21.0985 12.107 21.1734 12.0615 21.2205 11.9953C21.2679 11.9291 21.2877 11.8423 21.2752 11.7643C21.265 11.7028 21.2692 11.6395 21.2877 11.5739C21.3245 11.443 21.4046 11.3489 21.5285 11.2919C21.5903 11.2635 21.652 11.2491 21.7145 11.2494C21.7935 11.2497 21.8761 11.2164 21.9341 11.1591C21.992 11.1022 22.0253 11.0212 22.0256 10.9403C22.0256 10.859 21.993 10.778 21.9354 10.7204C21.8777 10.6631 21.7955 10.6292 21.7161 10.6289Z" fill="#16C50C"/>
<path fill-rule="evenodd" clip-rule="evenodd" d="M21.75 7.93653C21.6008 7.93589 21.4522 7.96981 21.3037 8.03829C21.0072 8.17493 20.8148 8.40053 20.7265 8.71477C20.6823 8.87189 20.6724 9.02389 20.6964 9.17109C20.7092 9.24917 20.7553 9.32533 20.8212 9.37301C20.8872 9.42069 20.9723 9.44053 21.0524 9.42741C21.1324 9.41429 21.207 9.36885 21.2544 9.30261C21.3018 9.23637 21.3216 9.14965 21.3088 9.07157C21.2989 9.01013 21.3031 8.94677 21.3216 8.88117C21.3581 8.75029 21.4385 8.65621 21.562 8.59925C21.6238 8.57077 21.6859 8.55669 21.7481 8.55669C21.8271 8.55701 21.9097 8.52373 21.9677 8.46645C22.0256 8.40949 22.0592 8.32853 22.0592 8.24757C22.0595 8.16661 22.0266 8.08533 21.9689 8.02805C21.9113 7.97045 21.829 7.93653 21.75 7.93653Z" fill="#16C50C"/>
<path fill-rule="evenodd" clip-rule="evenodd" d="M24.0466 12.3216C24.0466 12.2406 24.013 12.1596 23.9557 12.1024C23.8983 12.0451 23.8173 12.0115 23.7363 12.0115C23.6552 12.0115 23.5738 12.0451 23.5165 12.1024C23.4592 12.1596 23.4255 12.2406 23.4255 12.3216C23.4255 12.4025 23.4592 12.4838 23.5165 12.5411C23.5738 12.5984 23.6552 12.632 23.7363 12.632C23.8173 12.632 23.8983 12.5984 23.9557 12.5411C24.013 12.4838 24.0466 12.4025 24.0466 12.3216Z" fill="#13A00E"/>
<path fill-rule="evenodd" clip-rule="evenodd" d="M12.6472 24.5095C12.7961 24.5101 12.945 24.4762 13.0932 24.4077C13.39 24.2711 13.5824 24.0455 13.6704 23.7312C13.7146 23.5741 13.7248 23.4221 13.7008 23.2749C13.688 23.1968 13.6416 23.1207 13.5756 23.073C13.51 23.0253 13.4245 23.0055 13.3445 23.0186C13.2645 23.0317 13.1899 23.0772 13.1425 23.1434C13.0954 23.2096 13.0756 23.2964 13.0881 23.3744C13.0983 23.4359 13.0938 23.4992 13.0756 23.5648C13.0388 23.6957 12.9584 23.7898 12.8348 23.8468C12.773 23.8752 12.7109 23.8893 12.6488 23.8893C12.5698 23.889 12.4872 23.9223 12.4292 23.9796C12.3713 24.0365 12.338 24.1175 12.3376 24.1984C12.3373 24.2794 12.3703 24.3607 12.4279 24.418C12.4856 24.4756 12.5678 24.5095 12.6472 24.5095Z" fill="#13A00E"/>
<path fill-rule="evenodd" clip-rule="evenodd" d="M15.4131 21.8093C15.562 21.8096 15.7108 21.7757 15.8591 21.7076C16.1558 21.5709 16.3482 21.3453 16.4363 21.0311C16.4804 20.874 16.4907 20.7216 16.4667 20.5748C16.4539 20.4967 16.4075 20.4205 16.3415 20.3728C16.2759 20.3248 16.1904 20.3053 16.1104 20.3184C16.0306 20.3312 15.9557 20.377 15.9087 20.4432C15.8613 20.5095 15.8414 20.5962 15.8539 20.6743C15.8642 20.7357 15.8597 20.7991 15.8414 20.8647C15.8046 20.9956 15.7246 21.0896 15.6007 21.1466C15.5389 21.1751 15.4771 21.1892 15.4147 21.1892C15.3356 21.1888 15.253 21.2221 15.1951 21.2791C15.1371 21.3364 15.1038 21.4173 15.1035 21.4983C15.1035 21.5792 15.1362 21.6605 15.1938 21.7178C15.2514 21.7754 15.3337 21.809 15.4131 21.8093Z" fill="#13A00E"/>
<path fill-rule="evenodd" clip-rule="evenodd" d="M18.1788 19.0645C18.328 19.0648 18.4766 19.0309 18.6248 18.9624C18.9216 18.8258 19.114 18.6005 19.202 18.2859C19.2462 18.1288 19.2564 17.9768 19.2324 17.8296C19.2196 17.7515 19.1732 17.6757 19.1076 17.6277C19.0416 17.58 18.9561 17.5602 18.8761 17.5733C18.7964 17.5864 18.7215 17.6322 18.6744 17.6981C18.627 17.7643 18.6072 17.8511 18.6197 17.9295C18.6299 17.9906 18.6258 18.0539 18.6072 18.1195C18.5704 18.2507 18.4903 18.3445 18.3664 18.4015C18.3047 18.4299 18.2429 18.4443 18.1804 18.444C18.1014 18.4437 18.0188 18.4773 17.9608 18.5343C17.9029 18.5912 17.8696 18.6722 17.8693 18.7535C17.8693 18.8344 17.9019 18.9154 17.9595 18.973C18.0172 19.0303 18.0994 19.0642 18.1788 19.0645Z" fill="#13A00E"/>
<path fill-rule="evenodd" clip-rule="evenodd" d="M20.8466 16.2657C20.9957 16.266 21.1443 16.2321 21.2928 16.1636C21.5893 16.0269 21.7817 15.8017 21.87 15.4871C21.9139 15.33 21.9241 15.178 21.9001 15.0308C21.8873 14.9527 21.8412 14.8769 21.7753 14.8289C21.7093 14.7812 21.6242 14.7613 21.5441 14.7745C21.4641 14.7876 21.3895 14.8333 21.3421 14.8993C21.2948 14.9655 21.2749 15.0522 21.2877 15.1306C21.2976 15.1917 21.2935 15.2551 21.2749 15.3207C21.2384 15.4519 21.158 15.5457 21.0345 15.6026C20.9727 15.6311 20.9106 15.6455 20.8485 15.6452C20.7691 15.6449 20.6868 15.6785 20.6289 15.7354C20.5709 15.7927 20.5373 15.8733 20.5373 15.9546C20.537 16.0356 20.5699 16.1165 20.6276 16.1741C20.6852 16.2314 20.7675 16.2653 20.8466 16.2657Z" fill="#13A00E"/>
<path fill-rule="evenodd" clip-rule="evenodd" d="M31.9997 24.8889C31.9997 23.9582 31.8145 23.0275 31.4584 22.1677C31.1023 21.3078 30.575 20.5187 29.9168 19.8607C29.2588 19.2025 28.4697 18.6753 27.6099 18.3191C26.75 17.963 25.8193 17.7778 24.8886 17.7778C23.9579 17.7778 23.0272 17.963 22.1673 18.3191C21.3074 18.6753 20.5184 19.2025 19.8603 19.8607C19.2021 20.5187 18.6749 21.3078 18.3188 22.1677C17.9626 23.0275 17.7775 23.9582 17.7775 24.8889C17.7775 25.8196 17.9626 26.7503 18.3188 27.6102C18.6749 28.4701 19.2021 29.2591 19.8603 29.9172C20.5184 30.5754 21.3074 31.1026 22.1673 31.4588C23.0272 31.8149 23.9579 32.0001 24.8886 32.0001C25.8193 32.0001 26.75 31.8149 27.6099 31.4588C28.4697 31.1026 29.2588 30.5754 29.9168 29.9172C30.575 29.2591 31.1023 28.4701 31.4584 27.6102C31.8145 26.7503 31.9997 25.8196 31.9997 24.8889Z" fill="black"/>
<path fill-rule="evenodd" clip-rule="evenodd" d="M24.9735 19.8518L21.9264 24.8571L24.9735 26.6404L28.0212 24.8571L24.9735 19.8518Z" fill="white"/>
<path fill-rule="evenodd" clip-rule="evenodd" d="M21.9264 25.429L24.9735 29.6797L28.0229 25.429L24.9735 27.2112L21.9264 25.429Z" fill="white"/>
<path d="M32 16C32 13.9059 31.5834 11.8118 30.7821 9.87712C29.9808 7.9424 28.7946 6.16704 27.3136 4.6864C25.833 3.20544 24.0576 2.0192 22.1229 1.21792C20.1882 0.41664 18.0941 0 16 0C13.9059 0 11.8118 0.41664 9.87712 1.21792C7.9424 2.0192 6.16704 3.20544 4.6864 4.6864C3.20544 6.16704 2.0192 7.9424 1.21792 9.87712C0.41664 11.8118 0 13.9059 0 16C0 18.0941 0.41664 20.1882 1.21792 22.1229C2.0192 24.0576 3.20544 25.833 4.6864 27.3136C6.16704 28.7946 7.9424 29.9808 9.87712 30.7821C11.8118 31.5834 13.9059 32 16 32C18.0941 32 20.1882 31.5834 22.1229 30.7821C24.0576 29.9808 25.833 28.7946 27.3136 27.3136C28.7946 25.833 29.9808 24.0576 30.7821 22.1229C31.5834 20.1882 32 18.0941 32 16Z" fill="url(#paint0_linear)"/>
<path fill-rule="evenodd" clip-rule="evenodd" d="M26.2248 12.3695L26.2392 12.3448C26.7902 11.3848 26.9985 10.1842 26.7912 9.07027C26.5841 7.95635 25.9611 6.92947 25.0808 6.22387C24.2004 5.51827 23.0625 5.13395 21.9304 5.17427C20.7979 5.21459 19.6715 5.67923 18.8545 6.42611L18.8008 6.47507L18.7528 6.52947C15.0737 10.6834 11.1204 14.2949 7.04172 17.2386C6.30283 17.7717 5.70795 18.4776 5.30603 19.2914C4.90379 20.1048 4.70923 21.0159 4.73579 21.9205C4.76235 22.8248 5.01867 23.7253 5.46603 24.5103C5.91339 25.2949 6.56236 25.9723 7.32556 26.4546C7.707 26.6959 8.11756 26.8914 8.54924 27.0344C8.9806 27.1775 9.42508 27.2635 9.85516 27.3016C10.2852 27.34 10.7051 27.332 11.1064 27.284C11.3073 27.2597 11.498 27.2267 11.6958 27.1794C11.8939 27.1323 12.1188 27.0619 12.3438 26.9627C12.5688 26.8639 12.7912 26.7397 13.0264 26.589C13.2616 26.4383 13.5121 26.2594 13.8084 26.0357C14.1048 25.8117 14.4462 25.5426 14.858 25.2111C15.2699 24.8792 15.7544 24.4882 16.3326 24.0018C17.4888 23.0293 18.9755 21.6933 20.6603 19.8191C22.3451 17.9451 24.2308 15.5317 26.2097 12.3938L26.2248 12.3695Z" fill="#011D07"/>
<path fill-rule="evenodd" clip-rule="evenodd" d="M19.7836 7.44298C18.8885 8.45354 17.9689 9.44234 17.0245 10.4094C15.1359 12.3435 13.1465 14.1684 11.0565 15.8843C10.0117 16.7422 8.94197 17.5659 7.84757 18.3556C7.21493 18.8123 6.71349 19.4494 6.41941 20.1713C6.12501 20.8932 6.03829 21.6999 6.17173 22.4683C6.30517 23.2366 6.65909 23.9662 7.17941 24.5467C7.70005 25.1275 8.38709 25.5585 9.13621 25.7748C9.88533 25.9911 10.6969 25.9924 11.3317 25.85C11.9669 25.7076 12.4255 25.4215 14.6194 23.6308C16.789 21.8599 20.6559 18.6177 25.0444 11.6593C25.4367 10.9755 25.5852 10.1201 25.4377 9.3265C25.2898 8.53322 24.8463 7.80138 24.2191 7.29898C23.5919 6.79626 22.7813 6.52234 21.9749 6.55114C21.1682 6.57994 20.3657 6.91082 19.7836 7.44298Z" fill="#13A10E"/>
<path fill-rule="evenodd" clip-rule="evenodd" d="M6.11078 21.7331C6.1095 21.9795 6.12966 22.2259 6.1719 22.4685C6.30534 23.2368 6.65926 23.9664 7.17958 24.5469C7.70022 25.1277 8.38726 25.5587 9.13638 25.775C9.8855 25.9914 10.697 25.9926 11.3319 25.8502C11.9671 25.7078 12.4257 25.4218 14.6196 23.631C16.7892 21.8602 20.6561 18.6179 25.0445 11.6595C25.1626 11.4534 25.2589 11.2349 25.3332 11.0038C25.4817 10.5414 25.529 10.0691 25.4759 9.58656C25.449 9.34528 25.3985 9.112 25.3236 8.88672C20.7399 15.3734 17.0935 18.712 14.7249 20.6784C12.3559 22.6448 11.2647 23.239 10.2977 23.455C9.33062 23.671 8.48806 23.5091 7.45894 22.8934C7.02534 22.6339 6.5591 22.2941 6.11078 21.7331Z" fill="#107C10"/>
<path fill-rule="evenodd" clip-rule="evenodd" d="M8.549 19.6582C8.40013 19.6576 8.25126 19.6915 8.10304 19.76C7.80626 19.8966 7.61386 20.1222 7.52582 20.4365C7.48164 20.5936 7.47171 20.7456 7.4954 20.8928C7.50821 20.9709 7.55463 21.047 7.62058 21.0947C7.68621 21.1424 7.77169 21.1622 7.85172 21.1491C7.93176 21.1363 8.00635 21.0905 8.05373 21.0243C8.1008 20.9581 8.12064 20.8713 8.10816 20.7933C8.09823 20.7318 8.1024 20.6685 8.12064 20.6029C8.15746 20.472 8.23782 20.3779 8.36139 20.3209C8.42318 20.2925 8.48529 20.2784 8.5474 20.2784C8.62647 20.2787 8.70907 20.2454 8.76701 20.1881C8.82496 20.1312 8.85825 20.0502 8.85857 19.9693C8.85889 19.8883 8.82592 19.807 8.76829 19.7497C8.71067 19.6921 8.62839 19.6582 8.549 19.6582Z" fill="#16C50C"/>
<path fill-rule="evenodd" clip-rule="evenodd" d="M11.34 19.6255C11.1908 19.6252 11.0422 19.6591 10.894 19.7273C10.5972 19.8639 10.4048 20.0895 10.3168 20.4037C10.2726 20.5609 10.2624 20.7132 10.2864 20.8604C10.2992 20.9385 10.3456 21.0143 10.4112 21.062C10.4772 21.11 10.5627 21.1295 10.6424 21.1167C10.7224 21.1036 10.7973 21.0578 10.8444 20.9916C10.8918 20.9253 10.9116 20.8386 10.8988 20.7605C10.8889 20.6994 10.8931 20.6357 10.9116 20.5705C10.9484 20.4393 11.0285 20.3452 11.1524 20.2882C11.2142 20.2597 11.2759 20.2457 11.3381 20.246C11.4174 20.246 11.5 20.2127 11.558 20.1557C11.6159 20.0985 11.6492 20.0175 11.6495 19.9365C11.6495 19.8556 11.6169 19.7746 11.5593 19.717C11.5016 19.6594 11.419 19.6258 11.34 19.6255Z" fill="#16C50C"/>
<path fill-rule="evenodd" clip-rule="evenodd" d="M12.0955 16.8342C11.9463 16.8339 11.7978 16.8678 11.6496 16.9363C11.3528 17.073 11.1604 17.2982 11.0723 17.6128C11.0282 17.7699 11.0179 17.9219 11.0419 18.0691C11.0547 18.1472 11.1012 18.223 11.1668 18.271C11.2327 18.3187 11.3182 18.3386 11.3979 18.3254C11.478 18.3123 11.5529 18.2666 11.5999 18.2006C11.6473 18.1344 11.6672 18.0477 11.6544 17.9696C11.6444 17.9082 11.6486 17.8448 11.6672 17.7792C11.704 17.648 11.784 17.5542 11.9076 17.4973C11.9697 17.4688 12.0315 17.4544 12.0936 17.4547C12.173 17.455 12.2556 17.4218 12.3135 17.3645C12.3715 17.3075 12.4048 17.2266 12.4051 17.1453C12.4051 17.0643 12.3724 16.9834 12.3148 16.9258C12.2572 16.8685 12.1746 16.8346 12.0955 16.8342Z" fill="#16C50C"/>
<path fill-rule="evenodd" clip-rule="evenodd" d="M14.7876 16.8669C14.6384 16.8666 14.4898 16.9005 14.3413 16.9687C14.0448 17.1053 13.8524 17.3309 13.7641 17.6452C13.7202 17.8023 13.71 17.9546 13.734 18.1018C13.7468 18.1799 13.7932 18.2557 13.8588 18.3034C13.9248 18.3514 14.0099 18.3709 14.09 18.3578C14.17 18.345 14.2446 18.2993 14.292 18.233C14.3394 18.1668 14.3592 18.0801 14.3464 18.002C14.3365 17.9405 14.3406 17.8772 14.3592 17.8119C14.396 17.6807 14.4761 17.5866 14.5996 17.5297C14.6614 17.5012 14.7235 17.4871 14.7856 17.4874C14.865 17.4874 14.9473 17.4541 15.0056 17.3972C15.0635 17.3399 15.0968 17.2589 15.0968 17.178C15.0971 17.097 15.0642 17.0157 15.0069 16.9585C14.9492 16.9009 14.8666 16.8673 14.7876 16.8669Z" fill="#16C50C"/>
<path fill-rule="evenodd" clip-rule="evenodd" d="M15.4779 14.1094C15.3287 14.1091 15.1801 14.143 15.0316 14.2111C14.7351 14.3478 14.5427 14.5734 14.4544 14.8876C14.4102 15.0447 14.4003 15.1971 14.4243 15.3439C14.4368 15.4223 14.4832 15.4982 14.5491 15.5459C14.6151 15.5939 14.7003 15.6134 14.7803 15.6003C14.8603 15.5875 14.9349 15.5417 14.9823 15.4755C15.0297 15.4092 15.0495 15.3225 15.0367 15.2444C15.0268 15.183 15.031 15.1196 15.0492 15.054C15.086 14.9231 15.1664 14.8291 15.29 14.7721C15.3517 14.7436 15.4139 14.7295 15.476 14.7295C15.555 14.7299 15.6376 14.6966 15.6956 14.6396C15.7535 14.5823 15.7868 14.5014 15.7871 14.4204C15.7875 14.3395 15.7545 14.2582 15.6969 14.2009C15.6392 14.1433 15.557 14.1097 15.4779 14.1094Z" fill="#16C50C"/>
<path fill-rule="evenodd" clip-rule="evenodd" d="M18.2687 14.1421C18.1199 14.1415 17.971 14.1754 17.8228 14.2439C17.526 14.3805 17.3336 14.6061 17.2455 14.9203C17.2014 15.0775 17.1914 15.2295 17.2151 15.3767C17.2279 15.4547 17.2744 15.5309 17.3403 15.5786C17.4059 15.6263 17.4914 15.6461 17.5715 15.633C17.6515 15.6199 17.7261 15.5744 17.7735 15.5082C17.8205 15.4419 17.8404 15.3552 17.8279 15.2771C17.818 15.2157 17.8221 15.1523 17.8404 15.0867C17.8772 14.9559 17.9575 14.8618 18.0811 14.8048C18.1429 14.7763 18.205 14.7619 18.2671 14.7623C18.3462 14.7626 18.4288 14.7293 18.4867 14.672C18.5447 14.6151 18.578 14.5341 18.5783 14.4531C18.5786 14.3719 18.5456 14.2909 18.488 14.2333C18.4304 14.176 18.3481 14.1421 18.2687 14.1421Z" fill="#16C50C"/>
<path fill-rule="evenodd" clip-rule="evenodd" d="M18.2687 11.3506C18.1199 11.35 17.971 11.3842 17.8228 11.4524C17.526 11.589 17.3336 11.8146 17.2455 12.1288C17.2014 12.286 17.1914 12.4383 17.2151 12.5852C17.2279 12.6632 17.2744 12.7394 17.3403 12.7871C17.4059 12.8351 17.4914 12.8546 17.5715 12.8415C17.6515 12.8287 17.7261 12.7829 17.7735 12.7167C17.8205 12.6504 17.8404 12.5637 17.8279 12.4856C17.818 12.4242 17.8221 12.3608 17.8404 12.2952C17.8772 12.1644 17.9575 12.0703 18.0811 12.0133C18.1429 11.9848 18.205 11.9708 18.2671 11.9708C18.3462 11.9711 18.4288 11.9378 18.4867 11.8805C18.5447 11.8236 18.578 11.7426 18.5783 11.6616C18.5786 11.5807 18.5456 11.4994 18.488 11.4421C18.4304 11.3845 18.3481 11.3509 18.2687 11.3506Z" fill="#16C50C"/>
<path fill-rule="evenodd" clip-rule="evenodd" d="M21.716 10.6287C21.5671 10.6283 21.4183 10.6623 21.27 10.7307C20.9733 10.8674 20.7809 11.0927 20.6928 11.4072C20.6487 11.5643 20.6384 11.7163 20.6624 11.8635C20.6752 11.9416 20.7216 12.0175 20.7873 12.0655C20.8532 12.1131 20.9387 12.133 21.0187 12.1199C21.0985 12.1067 21.1734 12.0613 21.2204 11.9951C21.2678 11.9288 21.2877 11.8421 21.2752 11.764C21.2649 11.7026 21.2691 11.6392 21.2877 11.5736C21.3245 11.4427 21.4045 11.3487 21.5284 11.2917C21.5902 11.2632 21.652 11.2488 21.7144 11.2491C21.7935 11.2495 21.8761 11.2162 21.934 11.1589C21.992 11.1019 22.0253 11.021 22.0256 10.94C22.0256 10.8587 21.9929 10.7778 21.9353 10.7202C21.8777 10.6629 21.7954 10.629 21.716 10.6287Z" fill="#16C50C"/>
<path fill-rule="evenodd" clip-rule="evenodd" d="M21.7497 7.93653C21.6005 7.93589 21.4519 7.96981 21.3034 8.03829C21.0069 8.17493 20.8145 8.40053 20.7262 8.71477C20.682 8.87189 20.6721 9.02389 20.6961 9.17109C20.7089 9.24917 20.755 9.32533 20.8209 9.37301C20.8869 9.42069 20.972 9.44053 21.0521 9.42741C21.1321 9.41429 21.2067 9.36885 21.2541 9.30261C21.3015 9.23637 21.3213 9.14965 21.3085 9.07157C21.2986 9.01013 21.3027 8.94677 21.3213 8.88117C21.3578 8.75029 21.4382 8.65621 21.5617 8.59925C21.6235 8.57077 21.6856 8.55669 21.7477 8.55669C21.8268 8.55701 21.9094 8.52373 21.9674 8.46645C22.0253 8.40949 22.0589 8.32853 22.0589 8.24757C22.0592 8.16661 22.0263 8.08533 21.9686 8.02805C21.911 7.97045 21.8287 7.93653 21.7497 7.93653Z" fill="#16C50C"/>
<path fill-rule="evenodd" clip-rule="evenodd" d="M24.0456 12.3216C24.0456 12.2406 24.0119 12.1596 23.9546 12.1024C23.8972 12.0451 23.8162 12.0115 23.7352 12.0115C23.6541 12.0115 23.5727 12.0451 23.5154 12.1024C23.4581 12.1596 23.4244 12.2406 23.4244 12.3216C23.4244 12.4025 23.4581 12.4838 23.5154 12.5411C23.5727 12.5984 23.6541 12.632 23.7352 12.632C23.8162 12.632 23.8972 12.5984 23.9546 12.5411C24.0119 12.4838 24.0456 12.4025 24.0456 12.3216Z" fill="#13A00E"/>
<path fill-rule="evenodd" clip-rule="evenodd" d="M12.6475 24.5092C12.7964 24.5099 12.9453 24.476 13.0935 24.4075C13.3903 24.2708 13.5827 24.0452 13.6707 23.731C13.7149 23.5739 13.7251 23.4219 13.7011 23.2747C13.6883 23.1966 13.6419 23.1204 13.5759 23.0728C13.5103 23.0251 13.4248 23.0052 13.3448 23.0184C13.2648 23.0315 13.1902 23.0769 13.1428 23.1432C13.0957 23.2094 13.0759 23.2961 13.0884 23.3742C13.0986 23.4356 13.0941 23.499 13.0759 23.5646C13.0391 23.6955 12.9587 23.7896 12.8351 23.8465C12.7733 23.875 12.7112 23.8891 12.6491 23.8891C12.5701 23.8888 12.4875 23.922 12.4295 23.9793C12.3716 24.0363 12.3383 24.1172 12.338 24.1982C12.3376 24.2792 12.3706 24.3604 12.4282 24.4177C12.4859 24.4753 12.5681 24.5092 12.6475 24.5092Z" fill="#13A00E"/>
<path fill-rule="evenodd" clip-rule="evenodd" d="M15.413 21.8091C15.5618 21.8094 15.7107 21.7755 15.8589 21.7073C16.1557 21.5707 16.3481 21.3451 16.4361 21.0308C16.4803 20.8737 16.4906 20.7214 16.4666 20.5745C16.4538 20.4964 16.4073 20.4203 16.3414 20.3726C16.2758 20.3246 16.1903 20.3051 16.1102 20.3182C16.0305 20.331 15.9556 20.3768 15.9086 20.443C15.8612 20.5092 15.8413 20.596 15.8538 20.674C15.8641 20.7355 15.8596 20.7988 15.8413 20.8644C15.8045 20.9953 15.7245 21.0894 15.6006 21.1464C15.5388 21.1748 15.477 21.1889 15.4146 21.1889C15.3355 21.1886 15.2529 21.2219 15.195 21.2788C15.137 21.3361 15.1037 21.4171 15.1034 21.498C15.1034 21.579 15.136 21.6603 15.1937 21.7176C15.2513 21.7752 15.3336 21.8088 15.413 21.8091Z" fill="#13A00E"/>
<path fill-rule="evenodd" clip-rule="evenodd" d="M18.1799 19.0647C18.3291 19.0651 18.4776 19.0311 18.6258 18.9627C18.9226 18.826 19.115 18.6007 19.2031 18.2862C19.2472 18.1291 19.2575 17.9771 19.2335 17.8299C19.2207 17.7518 19.1742 17.6759 19.1086 17.6279C19.0427 17.5803 18.9572 17.5604 18.8771 17.5735C18.7974 17.5867 18.7225 17.6324 18.6755 17.6983C18.6281 17.7646 18.6082 17.8513 18.6207 17.9297C18.631 17.9908 18.6268 18.0542 18.6082 18.1198C18.5714 18.251 18.4914 18.3447 18.3675 18.4017C18.3057 18.4302 18.2439 18.4446 18.1815 18.4443C18.1024 18.4439 18.0198 18.4775 17.9619 18.5345C17.9039 18.5915 17.8706 18.6724 17.8703 18.7537C17.8703 18.8347 17.903 18.9156 17.9606 18.9732C18.0182 19.0305 18.1005 19.0644 18.1799 19.0647Z" fill="#13A00E"/>
<path fill-rule="evenodd" clip-rule="evenodd" d="M20.8462 16.2654C20.9954 16.2657 21.144 16.2318 21.2925 16.1633C21.589 16.0267 21.7814 15.8014 21.8697 15.4869C21.9136 15.3297 21.9238 15.1777 21.8998 15.0305C21.887 14.9525 21.8409 14.8766 21.775 14.8286C21.709 14.7809 21.6239 14.7611 21.5438 14.7742C21.4638 14.7873 21.3892 14.8331 21.3418 14.899C21.2944 14.9653 21.2746 15.052 21.2874 15.1304C21.2973 15.1915 21.2932 15.2549 21.2746 15.3205C21.2381 15.4517 21.1577 15.5454 21.0342 15.6024C20.9724 15.6309 20.9103 15.6453 20.8482 15.6449C20.7688 15.6446 20.6865 15.6782 20.6286 15.7352C20.5706 15.7925 20.537 15.8731 20.537 15.9544C20.5367 16.0353 20.5696 16.1163 20.6273 16.1739C20.6849 16.2312 20.7672 16.2651 20.8462 16.2654Z" fill="#13A00E"/>
<ellipse cx="26" cy="6" rx="6" ry="6" fill="#A60000"/>
<ellipse cx="25.8754" cy="5.875" rx="5.5" ry="5.5" fill="#DB1301"/>
<ellipse cx="26.1248" cy="6.125" rx="5" ry="5" fill="#FA7C09"/>
<ellipse cx="26.0007" cy="6" rx="4.5" ry="4.5" fill="#FCA802"/>
<ellipse cx="25.8759" cy="5.875" rx="4" ry="4" fill="#FCDD03"/>
<ellipse cx="26.1261" cy="6.125" rx="3.5" ry="3.5" fill="#E4F819"/>
<ellipse cx="26.002" cy="6" rx="3.00067" ry="3" fill="#90E867"/>
<ellipse cx="25.8771" cy="5.875" rx="2.50056" ry="2.5" fill="#23C78C"/>
<ellipse cx="26.1264" cy="6.125" rx="2.00045" ry="2" fill="#27D7EA"/>
<ellipse cx="26.0016" cy="6" rx="1.50067" ry="1.5" fill="#239CD3"/>
<ellipse cx="25.8765" cy="5.875" rx="1.00045" ry="1" fill="#1682FB"/>
<ellipse cx="26.1263" cy="6.125" rx="0.499944" ry="0.5" fill="#001EC3"/>
<path fill-rule="evenodd" clip-rule="evenodd" d="M32 26C32 25.2147 31.8438 24.4294 31.5433 23.7039C31.2428 22.9784 30.798 22.3126 30.2426 21.7574C29.6874 21.202 29.0216 20.7572 28.2961 20.4567C27.5706 20.1562 26.7853 20 26 20C25.2147 20 24.4294 20.1562 23.7039 20.4567C22.9784 20.7572 22.3126 21.202 21.7574 21.7574C21.202 22.3126 20.7572 22.9784 20.4567 23.7039C20.1562 24.4294 20 25.2147 20 26C20 26.7853 20.1562 27.5706 20.4567 28.2961C20.7572 29.0216 21.202 29.6874 21.7574 30.2426C22.3126 30.798 22.9784 31.2428 23.7039 31.5433C24.4294 31.8438 25.2147 32 26 32C26.7853 32 27.5706 31.8438 28.2961 31.5433C29.0216 31.2428 29.6874 30.798 30.2426 30.2426C30.798 29.6874 31.2428 29.0216 31.5433 28.2961C31.8438 27.5706 32 26.7853 32 26Z" fill="black"/>
<path fill-rule="evenodd" clip-rule="evenodd" d="M26.0716 21.75L23.5007 25.9733L26.0716 27.4779L28.6432 25.9733L26.0716 21.75Z" fill="white"/>
<path fill-rule="evenodd" clip-rule="evenodd" d="M23.5007 26.4558L26.0716 30.0424L28.6446 26.4558L26.0716 27.9596L23.5007 26.4558Z" fill="white"/>
<defs>
<linearGradient id="paint0_linear" x1="-4.70182" y1="-9.40365" x2="-4.70182" y2="32" gradientUnits="userSpaceOnUse">
<stop stop-color="#08021E"/>
<stop offset="1" stop-color="#074007"/>
</linearGradient>
</defs>
</svg>
