<svg xmlns="http://www.w3.org/2000/svg" fill="none" viewBox="0 0 600 600" height="600" width="600">
    <radialGradient id="a" cx="0" cy="0" gradientTransform="rotate(54.2 -42.3 263.4) scale(497.082)" gradientUnits="userSpaceOnUse" r="1">
        <stop offset="0" stop-color="#ffa001"/>
        <stop offset="1" stop-color="#f96501"/>
    </radialGradient>
    <linearGradient xmlns="http://www.w3.org/2000/svg" id="SVGID_1_" gradientUnits="userSpaceOnUse" x1="271.5728" y1="226.5394" x2="183.0728" y2="85.5394" gradientTransform="matrix(1 0 0 -1 0 328)">
		<stop offset="0" style="stop-color:#FCC407"/>
		<stop offset="1" style="stop-color:#FE9605"/>
	</linearGradient>
    <linearGradient xmlns="http://www.w3.org/2000/svg" id="SVGID_00000086692860927398666020000005699835920544557244_" gradientUnits="userSpaceOnUse" x1="173.8282" y1="292.9639" x2="75.8283" y2="135.9639" gradientTransform="matrix(1 0 0 -1 0 328)">
		<stop offset="0" style="stop-color:#FF7001"/>
		<stop offset="1" style="stop-color:#FE9604"/>
	</linearGradient>
    <g transform="matrix(2.52,0,0,2.52,-111,-111)">
        <path xmlns="http://www.w3.org/2000/svg" style="fill:url(#SVGID_1_)" d="M225.5,62.2c13.3,8.2,24.8,18.9,33.9,31.5c9.1,12.6,15.7,26.9,19.3,42.1c3.6,15.2,4.2,30.9,1.7,46.3   c-2.5,15.4-7.9,30.1-16.1,43.4c-8.2,13.3-18.9,24.8-31.5,33.9c-12.6,9.1-26.9,15.7-42.1,19.3c-15.2,3.6-30.9,4.2-46.3,1.7   c-15.4-2.5-30.1-8-43.4-16.1l62.2-101.1L225.5,62.2z"/>
        <path xmlns="http://www.w3.org/2000/svg" style="fill:url(#SVGID_00000086692860927398666020000005699835920544557244_);" d="M101.1,264.4   c-13.3-8.2-24.8-18.9-33.9-31.5s-15.7-26.9-19.3-42.1c-3.6-15.2-4.2-30.9-1.7-46.3c2.5-15.4,8-30.1,16.1-43.4   c8.2-13.3,18.9-24.8,31.5-33.9c12.6-9.1,26.9-15.7,42.1-19.3c15.2-3.6,30.9-4.2,46.3-1.7c15.4,2.5,30.1,8,43.4,16.1l-62.2,101.1   L101.1,264.4z"/>
    </g>
    <path d="M300 600a300.2 300.2 0 00294.2-358.5A299.8 299.8 0 0050.6 133.3 300.2 300.2 0 00300 600z" fill="#ffffff" fill-opacity=".3"/>
    <path d="M300 600a300 300 0 100-600 300 300 0 000 600z" fill="url(#a)" fill-opacity=".2"/>
    <path transform="matrix(3.5,0,0,3.5,15,15)" d="M134.674 94.5533C132.949 91.3992 129.036 90.2637 125.935 92.015L100.688 106.271L88.6143 82.8198L107.328 37.2727C108.377 34.7217 107.731 31.7758 105.716 29.9177C103.701 28.0609 100.754 27.6932 98.3565 29.0009L69.1217 44.9579L61.7313 30.6032C60.0858 27.4079 56.2001 26.168 53.0574 27.844C49.9124 29.5164 48.6971 33.4633 50.3426 36.6598L57.7972 51.1391L38.6127 61.6104C35.486 63.3176 34.3129 67.2778 35.9915 70.4557C37.6713 73.633 41.5649 74.8253 44.6951 73.1204L63.7571 62.7157L74.4286 83.4436L53.4248 134.564C52.3704 137.131 53.0312 140.095 55.0715 141.95C56.2777 143.047 57.8103 143.613 59.3565 143.613C60.4247 143.613 61.4996 143.343 62.4765 142.791L95.4095 124.196L100.129 133.363C101.277 135.592 103.513 136.868 105.829 136.868C106.832 136.868 107.852 136.628 108.803 136.122C111.948 134.449 113.163 130.502 111.517 127.306L106.649 117.85L132.177 103.436C135.28 101.683 136.398 97.7068 134.674 94.5533ZM75.0816 56.5344L88.4924 49.2142L80.8673 67.7725L75.0816 56.5344ZM72.4216 122.231L82.1756 98.491L89.4481 112.617L72.4216 122.231Z" fill="white"/>
</svg>
