<?xml version="1.0" encoding="UTF-8"?>
<svg id="Layer_2" data-name="Layer 2" xmlns="http://www.w3.org/2000/svg" version="1.1" viewBox="0 0 128 128">
  <defs>
    <style>
      .cls-1 {
        fill: #ffedc0;
      }

      .cls-1, .cls-2, .cls-3, .cls-4, .cls-5, .cls-6, .cls-7, .cls-8 {
        stroke-width: 0px;
      }

      .cls-2 {
        fill: #0f0d0d;
      }

      .cls-3 {
        fill: #000;
      }

      .cls-4 {
        fill: #cf9c00;
      }

      .cls-5 {
        fill: #edc43f;
      }

      .cls-6 {
        fill: #bcbcbc;
      }

      .cls-7 {
        fill: #edcd4a;
      }

      .cls-8 {
        fill: #e0a900;
      }
    </style>
  </defs>
  <path class="cls-3" d="M72.84564.57506c-.1464-.05227-.29279-.08366-.44959-.08366l-.64826-.02087c-1.11878-.09413-2.11209-.12553-3.03221-.12553h-.09413l-6.59761-.25093c-.96192-.06273-1.8611-.09407-2.72895-.09407C31.95298,0,9.69252,28.66981,9.69252,63.82224s22.20813,63.7595,49.5083,63.82224c.0836.02093.17773.0314.2614.0314l5.61476.13593c1.36971.12546,2.53029.1882,3.62814.1882l.01047-.02093c.59599,0,1.18151-.02087,1.76703-.05227h.46006c.13593.01047.27186-.01047.39733-.0418,26.35912-1.76703,46.96748-30.68784,46.96748-63.72817S98.36824,3.28314,72.84564.57506ZM70.97401,126.3375v.0314l-.47046-.01047c-.59599.0314-1.19198.06273-1.79843.06273-1.19198,0-2.36302-.0732-3.53407-.1882l-5.66703-.13593.13478-.0531c-.11519.00102-.22853.0113-.34391.0113-26.52268,0-48.02352-27.87203-48.02352-62.25393S32.7722,1.54744,59.29489,1.54744c.43849,0,.87168.0277,1.3073.04282l-.02125-.01142,7.96739.31366h.1568c.98285,0,1.94477.05227,2.90675.12546l.71099.03133-.0314.04186c24.84301,2.38389,44.43719,29.24487,44.43719,62.06567,0,33.39586-20.28423,60.64369-45.75463,62.18067Z"/>
  <path class="cls-8" d="M72.29145,2.09116l.0314-.04186-.71099-.03133c-.96198-.0732-1.9239-.12546-2.90675-.12546h-.1568l-7.96739-.31366.02125.01142c25.91655.90059,46.71623,28.39757,46.71623,62.21104,0,34.23237-21.31616,62.00166-47.67961,62.24263l-.13478.0531,5.66703.13593c1.17105.115,2.34209.1882,3.53407.1882.60645,0,1.20244-.03133,1.79843-.06273l.47046.01047v-.0314c25.4704-1.53697,45.75463-28.78481,45.75463-62.18067,0-32.8208-19.59418-59.68178-44.43719-62.06567Z"/>
  <path class="cls-5" d="M107.31841,63.80131C107.31841,29.98783,86.51873,2.49085,60.60218,1.59026c-.43562-.01512-.86881-.04282-1.3073-.04282C32.7722,1.54744,11.27136,29.41947,11.27136,63.80131s21.50084,62.25393,48.02352,62.25393c.11538,0,.22872-.01027.34391-.0113,26.36346-.24097,47.67961-28.01026,47.67961-62.24263ZM100.88806,63.80137c0,29.66274-18.65913,53.79483-41.59298,53.79483s-41.5935-24.13209-41.5935-53.79483S36.3602,10.00603,59.29508,10.00603s41.59298,24.1326,41.59298,53.79534Z"/>
  <path class="cls-7" d="M60.74711,68.45728c.09451.07728.16912.03561.23919-.02827-.06707.05973-.14684.10377-.23912.02827-.11187-.0783-.0783-.21251-.03357-.32438.00236-.0053.00562-.01015.00798-.01544-.00236.0053-.00562.01008-.00798.01538-.05597.11187-.06714.24614.0335.32445Z"/>
  <path class="cls-7" d="M68.11921,63.03167c.03095-.0619.07365-.10013.12253-.12508-.05922.02246-.10919.06497-.14487.13631.07154,0,.14206.00115.20173-.01959-.05476.01187-.11672.00836-.17939.00836Z"/>
  <path class="cls-7" d="M68.43925,62.89363c.97442-.59656,1.96621-.85789,3.06763-.61596-1.10614-.2568-2.10105.00415-3.07848.60933.00568.00108.00944-.00211.01525-.00077-.00108.00332-.00325.00421-.0044.0074Z"/>
  <path class="cls-7" d="M73.06376,66.60026c-.25725-1.70041-1.25286-2.83023-2.74076-3.57976-.57812-.29975-1.19708-.15144-1.80813-.12814.60377-.01666,1.2147-.15737,1.7858.12814,1.4766.74953,2.48345,1.89058,2.74076,3.57976.12304.839,0,1.65567-.16784,2.47228-.66.7831-1.34239,1.5438-1.86818,2.42754-.19018.32438-.40275.64883-.46982,1.02918-.0224.12304-.01117.24608.12304.30205.0529.01761.10204.01481.14716-.00134-.04199.01391-.08749.01749-.13593.00134-.14544-.05597-.14544-.17901-.1231-.30205.0783-.38035.27971-.70473.46989-1.02918.52579-.88374,1.20812-1.65567,1.86818-2.42754.00447-.00396.009-.00772.01347-.01168.17767-.81271.29911-1.62562.16548-2.4606Z"/>
  <path class="cls-7" d="M51.037,65.91787c.17901.11187.30205-.10064.41392-.20134.46982-.48105.93971-.96204,1.39836-1.4431,2.80789-2.97567,5.54865-6.0297,8.50192-8.8711.51462-.49222.99568-1.02918,1.61094-1.42076.11187-.02234.23491-.02234.34678-.06707,1.62211-.54819,3.6469.49222,4.29573,1.66678.21251.38035.35795.7607.41392,1.19702.02482.21794.03778.43185.04014.64213-.00172-.21385-.01487-.43153-.04014-.6533-.04474-.43632-.20134-.81667-.41392-1.19702-.64883-1.16339-2.68485-2.2038-4.29573-1.66684-.11187.03357-.23491.0448-.34678.06714-.61526.39158-1.09632.92854-1.61087,1.42076-2.95333,2.8414-5.69409,5.8842-8.50198,8.8711-.45865.49222-.92848.97321-1.39836,1.4431-.11187.11187-.22374.31321-.41392.20134-.05188-.03006-.07907-.06363-.09164-.09885.00932.03931.03433.07684.09164.11002Z"/>
  <path class="cls-7" d="M53.67712,41.609c3.37842-3.56859,6.53309-7.3273,9.59823-11.16437,1.94649-2.42754,4.22859-4.49713,6.62257-6.45479,1.36479-1.10748,2.95333-1.75631,4.69848-1.98006.72713-.08947,1.43187-.03357,2.13666.14544.95088.24608,1.66684.82784,2.19257,1.64444.88865,1.36709,1.28247,2.87069,1.24922,4.45106.03593-1.59096-.35789-3.09099-1.24922-4.46223-.52573-.81667-1.23052-1.39836-2.19257-1.64444-.7048-.17901-1.40953-.23497-2.13666-.14544-1.75631.22374-3.33368.87257-4.69848,1.98006-2.39397,1.95766-4.67608,4.02725-6.62257,6.45479-3.0652,3.83701-6.21982,7.60701-9.59823,11.16437-4.21742,4.44117-7.59584,9.48636-10.72812,14.71063-1.05432,1.76231-2.00226,3.57766-2.89558,5.41942.89376-1.83768,1.84266-3.6483,2.89558-5.40825,3.13228-5.2242,6.51069-10.26946,10.72812-14.71063Z"/>
  <path class="cls-7" d="M66.43003,61.89062c-.05035.03357-.09796.06994-.14965.09509.05169-.02514.0993-.06152.14965-.09502,1.28649-.83907,2.66245-1.49907,4.20626-1.71158.15106-.0224.24889-.07269.31462-.14965-.06573.0769-.16356.12719-.31462.14959-1.5438.21258-2.91976.8614-4.20626,1.71158Z"/>
  <path class="cls-7" d="M71.97811,71.78675c-.13708-.02744-.19203.0672-.233.16905.00498-.00051.00881-.00262.01372-.00319.04742-.10351.10747-.17307.21928-.16586Z"/>
  <path class="cls-7" d="M66.10558,62.02489h.00281c.00198-.00491.00657-.00613.00842-.01117h-.00625c-.00057.00121-.00172.00172-.0023.00294-.00038.00306-.0023.00511-.00268.00823Z"/>
  <path class="cls-7" d="M65.6856,62.33587c-.00542.0083-.01072.01634-.01627.02463.19598-.04352.35718-.13363.43798-.33415-.00287-.00006-.00472.00115-.00753.00115-.08398.16778-.23127.25674-.41417.30836Z"/>
  <path class="cls-7" d="M45.46602,96.78222c-.0224-.0448-.01117-.08954-.0224-.13427,0,0,0,.08954.0224.13427Z"/>
  <path class="cls-7" d="M75.53604,89.71217c-1.4431,1.75631-2.98684,3.42315-4.88859,4.72081-1.16345.79427-2.24854,1.71158-3.25538,2.70719-.58169.58169-1.06275,1.23052-1.33123,2.02479-.04244.12247-.07243.24174-.0979.3598.0261-.11449.05565-.22993.0979-.34857.26848-.7831.74953-1.4431,1.33123-2.02486,1.00684-.99561,2.08076-1.91292,3.25538-2.70719,1.90175-1.29766,3.44549-2.9645,4.88859-4.72081,1.26415-1.53257,2.41637-3.15468,3.18824-5.01169.78048-1.87144,1.16422-3.79323,1.10423-5.76071.05744,1.96034-.32591,3.88315-1.10423,5.74955-.77187,1.85702-1.93532,3.47906-3.18824,5.01169Z"/>
  <path class="cls-7" d="M45.43245,45.55795c.12304.69357.23491,1.38713.35795,2.1031.00664-.00198.01079-.00562.01729-.00772-.12125-.70505-.24263-1.38936-.35291-2.07304l-.01117-.02234c-.21251-.38035-.26848-.81667-.39152-1.21936-.39152-1.29766-.97328-2.49468-1.83462-3.53503-1.12988-1.36479-2.38281-2.61772-3.8259-3.6469-.31321-.22374-.62643-.43625-.92848-.6824-1.29766-1.05158-1.65567-2.38281-.93971-3.89298,1.12988-2.38281,2.95333-3.90421,5.62695-4.27339,1.13869-.15067,2.28357-.13816,3.41607.03701-1.13607-.17939-2.28485-.19656-3.42724-.03701-2.66245.35801-4.49707,1.89058-5.62695,4.27339-.71597,1.51017-.35801,2.85263.93971,3.89298.30198.23491.61526.45865.92848.6824,1.4431,1.04035,2.69602,2.2821,3.8259,3.6469.86134,1.04035,1.4431,2.23737,1.83462,3.53503.12304.41392.17894.839.39152,1.21936Z"/>
  <path class="cls-7" d="M50.24274,32.34638c-.34678-1.34246-.95088-2.55058-1.94649-3.52386.99561.98444,1.59971,2.1814,1.94649,3.52386Z"/>
  <path class="cls-7" d="M37.79187,94.99234c.26848-.46989.57053-.93971.88374-1.4655-.32438.52579-.61526.99568-.88374,1.4655Z"/>
  <path class="cls-7" d="M52.4951,31.04266c-.00542-.00517-.00951-.01123-.015-.01634-1.18579-1.10748-2.62889-1.81228-4.20619-2.2262l.00785.01576c.00491.00217.00957.00447.01449.00664,1.57424.40192,3.01441,1.11635,4.19885,2.22014Z"/>
  <path class="cls-7" d="M64.88623,64.91109c.98444-.7831,2.06959-1.36479,3.21064-1.86818-1.14105.49222-2.2262,1.08508-3.21064,1.86818Z"/>
  <path class="cls-7" d="M38.67561,97.38625c-.06158.04722-.09241.11404-.14372.16784.05195-.05501.08539-.12202.14735-.17026-.00115.00089-.00249.00153-.00364.00243Z"/>
  <path class="cls-7" d="M40.01807,94.62316c.95949.77212,2.00782,1.38745,3.0876,1.94566-1.08151-.5614-2.12677-1.17998-3.0876-1.94566Z"/>
  <path class="cls-7" d="M65.09383,52.38243c.55355.0014,1.10633.06924,1.58235.32387-.47601-.26567-1.0288-.32272-1.58235-.32387Z"/>
  <path class="cls-7" d="M61.84489,66.24531c.00357-.00453.00619-.00964.00976-.01417.55374-.72158,1.1466-1.40959,1.78146-2.05702-.63485.64743-1.22772,1.33537-1.78146,2.05696-.00357.00459-.00619.00964-.00976.01423Z"/>
  <path class="cls-7" d="M38.4287,101.21854c.0053.00147.00689.00542.01174.00721-.00006-.13114-.0037-.25999-.17875-.2709.05597-.16784-.03357-.32445-.06707-.48105-.16784-.6824-.19018-1.36479-.08954-2.05836.02776-.21079.08934-.4046.1845-.57825-.09739.17665-.16165.37397-.19566.58948-.1007.69357-.0783,1.37596.08947,2.05836.0448.15661.13427.31321.06714.48105.16586.02068.17728.13759.17818.25246Z"/>
  <path class="cls-7" d="M45.46602,96.78222c.05578.11155.11417.22304.12974.33179-.01468-.11155-.07326-.22451-.12974-.33179Z"/>
  <path class="cls-7" d="M37.05357,68.44611c.30524-.73728.62158-1.46901.93703-2.20118-.31507.72879-.63096,1.45733-.93703,2.19001-.58176,1.38713-.99568,2.8638-1.25292,4.34046-.30766,1.76212-.43077,3.52705-.39854,5.29057-.03172-1.75982.09126-3.51958.39854-5.27941.25731-1.47667.67117-2.94216,1.25292-4.34046Z"/>
  <path class="cls-7" d="M47.16739,98.43662c.19624-.16337.20747-.38922-.01219-.55815-.54813-.43625-1.01801-.99561-1.70041-1.24175.01123-.13421-.0783-.15661-.17894-.19018l-.00855.00862c0,.00185.00115.00255.00128.00434.09458.03127.18201.06018.17116.18673.00172.00019.00211.00153.00389.00172.69363.24608,1.15228.81667,1.70041,1.24175.21474.16516.20715.3845.02336.54691Z"/>
  <path class="cls-7" d="M46.45046,74.76663c.06714,1.05152.02234,2.1031,0,3.42315l.01117.01117c.0224-1.32006.06714-2.37157,0-3.42315-.0224-.38035-.0783-.7607-.24608-1.10748-.05744-.12061-.11908-.21455-.18635-.28788.06292.07243.12087.1628.17511.27671.16784.34678.22374.72713.24614,1.10748Z"/>
  <path class="cls-7" d="M80.83861,70.00108c-.87142-.77308-1.79154-1.24909-2.80177-1.32236,1.00448.07715,1.92371.55336,2.7906,1.32236,1.59971,1.43187,2.13666,3.28888,2.22614,5.33607.19018,4.21742-.95088,8.14397-2.64005,11.9363-.45865,1.02918-.8838,2.06953-1.45433,3.0428-.38035.6376-.78304,1.26409-1.27526,1.81222-1.95772,2.1479-4.03842,4.16152-6.51069,5.71649-.50345.31321-.99568.67117-1.39836,1.11865-.24614.27965-.17901.46982.17901.54813.23453.05412.46133.03255.68718-.01493-.22534.04314-.45361.06835-.67602.01493-.36918-.0783-.43625-.26848-.17901-.54813.40275-.44749.89497-.79427,1.39836-1.11865,2.48345-1.55497,4.56421-3.55743,6.51069-5.71649.50339-.54813.90614-1.17462,1.27532-1.81222.57053-.97328.99561-2.01362,1.45427-3.0428,1.68924-3.8035,2.84146-7.71888,2.64012-11.9363-.1007-2.04719-.62649-3.91538-2.2262-5.33607Z"/>
  <path class="cls-7" d="M59.29508,10.86373c-22.46212,0-40.73579,23.74765-40.73579,52.93764s18.27367,52.93713,40.73579,52.93713,40.73528-23.74714,40.73528-52.93713S81.75618,10.86373,59.29508,10.86373ZM81.87896,90.14843c-1.35356,2.49468-3.30011,4.5083-5.40321,6.37649-.45865.41392-.49222.40269-.14544.89491.42509.61526.79427,1.25292,1.07392,1.94649.7831,1.86818.8055,3.7252-.12304,5.54865-.53696,1.05158-1.21936,2.00246-2.06953,2.81906-.61526.59293-1.35363.99561-2.1479,1.27532-4.09432,1.45427-8.27818,2.56175-12.64104,2.76309-.62643.03357-1.24175.0783-1.86818.1231-2.79672.22374-5.45918-.50345-8.1328-1.16345-4.49707-1.10748-8.50192-3.16584-11.96987-6.25338-1.4207-1.26409-2.46105-2.80789-3.36719-4.44117-.93971-1.68918-.80544-3.41199.1007-5.07883.49216-.90608,1.05152-1.76748,1.59971-2.62889.19018-.29081.20134-.49222-.0448-.74947-.93964-.98444-1.5214-2.21503-1.99122-3.46789-1.16345-3.0876-1.85702-6.27578-1.82345-9.60947.05597-5.32491,1.23052-10.3925,3.34485-15.25876,1.27532-2.91976,2.72959-5.74999,4.29573-8.52432.74953-1.33123,1.47667-2.68485,2.23737-4.01608.41392-.7383.59286-1.48783.48099-2.33801-.14538-1.16345-.33555-2.3269-.66-3.45672-.54813-1.90175-1.74515-3.38959-3.14351-4.72081-1.04035-.99568-2.1031-1.95772-3.21058-2.87503-1.4431-1.20819-1.68918-3.7028-1.00678-5.15713.60403-1.27526,1.45427-2.36041,2.50578-3.28888,3.36725-2.97567,7.24906-3.49029,11.42175-2.25977,2.98684.8838,5.31367,2.69602,6.89104,5.41444.35795.61526.7383,1.23052,1.11865,1.86818h.0448c.21251-.0783.27965-.20134.36912-.31321,1.57737-1.93532,3.26655-3.75877,4.89982-5.63812,1.61087-1.84585,3.38959-3.51269,5.29134-5.05643,1.91298-1.55497,4.04965-2.62889,6.48836-3.0428.92848-.15661,1.85702-.20141,2.78549-.0224,1.82345.35801,3.19941,1.37596,4.10555,2.9869,1.36479,2.42754,1.70041,4.97812,1.00678,7.69648-.78304,3.05397-2.01362,5.86186-4.03842,8.32297-1.83462,2.22614-3.76994,4.34046-5.89543,6.27578-1.98006,1.81222-3.74754,3.84824-5.74999,5.62695-.04474.04474-.11187.08947-.06714.23491,2.18146.53696,4.09438,1.56614,5.42561,3.50146,1.34239,1.94649,1.80105,4.02725,1.24175,6.37649.48099.23491.99561.46982,1.51017.72713,1.83462.89491,2.97573,2.37157,3.53503,4.29573.1231.42509.27971.6376.72713.69357,2.87503.40275,4.5307,2.27093,5.66052,4.75438.93971,2.09193,1.06275,4.29573.93971,6.54426-.22374,4.3852-1.5214,8.45718-3.60216,12.29426Z"/>
  <path class="cls-7" d="M62.51465,107.53268c1.16345-.45865,2.32684-.87257,3.37842-1.55497.92848-.61526,1.75631-1.31999,2.36041-2.27087.08947-.14544.17901-.27971.24608-.43632.05373-.12834.08628-.22955.10115-.31621-.01653.08341-.05105.18271-.10115.30505-.06707.15661-.15661.29081-.24608.43625-.59293.95088-1.43193,1.66684-2.36041,2.27093-1.05158.6824-2.2262,1.10748-3.37842,1.55497-2.87503,1.12982-5.86186,1.56614-8.92707,1.47667-.57053-.01123-1.14105-.0783-1.71158-.1231-4.96689-.96204-9.15075-3.35602-12.76408-6.83508-.20141-.20141-.38035-.42515-.55936-.64883,0-.08009-.0344-.13721-.11213-.16541,0,.003.00026.00574.00026.00874l-.01187-.01181c.00006.00211.00019.00421.00019.00632.08915.01602.12355.07773.12355.17333.19018.21258.35801.44749.55936.64883,3.61333,3.47912,7.79718,5.88426,12.76408,6.83514.57053.04474,1.14105.11187,1.71158.12304,3.07637.08947,6.06327-.34678,8.92707-1.47667Z"/>
  <path class="cls-7" d="M74.70827,98.46023c.50339.90614.90608,1.85702,1.10748,2.87496.14544.69363-.0783,1.37603-.30205,2.03602-.44749,1.28649-1.26415,2.2821-2.38281,3.05397-1.53257,1.04041-3.23298,1.65567-5.00046,2.11433-3.07433.79376-6.2045,1.18509-9.36824,1.17443.00166,0,.00325.00019.00491.00019,3.17701.02234,6.29812-.38035,9.37449-1.17462,1.76754-.45865,3.46789-1.07392,5.00052-2.11433,1.12982-.77187,1.94649-1.76748,2.38274-3.05397.22374-.66.44749-1.34239.30205-2.03602-.21251-1.00678-.61526-1.96882-1.10748-2.87496-.1307-.23868-.20753-.35406-.31213-.37812.10007.02719.17282.1441.30096.37812Z"/>
  <path class="cls-7" d="M45.16672,97.50795c-.10345-.01819-.2097-.06573-.31596-.0993.10338.03446.2097.08232.31596.0993Z"/>
  <path class="cls-7" d="M60.87021,80.52779c-1.10748,2.53941-1.89058,5.1683-2.03602,7.95379.14544-2.78549.93971-5.41438,2.03602-7.95379Z"/>
  <path class="cls-7" d="M58.23941,89.63202c-.17505.02495-.36465-.04971-.53038-.22961.16152.18124.35278.25635.53038.22961Z"/>
  <path class="cls-7" d="M47.81526,87.68738c-.0224.53696-.32445.7159-.79427.43625-.20504-.12119-.36242-.30632-.51954-.49343.15335.18839.31245.3718.5307.5046.46982.27971.77187.11187.79427-.43625.02234-.45865-.0783-.90614-.22374-1.33123-.90614-2.74076-1.05158-5.57105-1.12988-8.15514l-.01117-.01123c.0783,2.57298.22374,5.41438,1.12988,8.15514.14544.42515.24608.87257.22374,1.33129Z"/>
  <path class="cls-7" d="M57.07788,85.90867c0,.7383.04474,1.48783.15661,2.22614-.10064-.7383-.14544-1.4766-.15661-2.22614Z"/>
  <path class="cls-4" d="M17.70158,63.80137c0,29.66274,18.65862,53.79483,41.5935,53.79483s41.59298-24.13209,41.59298-53.79483S82.22894,10.00603,59.29508,10.00603,17.70158,34.13863,17.70158,63.80137ZM59.29508,116.7385c-22.46212,0-40.73579-23.74714-40.73579-52.93713S36.83296,10.86373,59.29508,10.86373s40.73528,23.74765,40.73528,52.93764-18.27418,52.93713-40.73528,52.93713Z"/>
  <path class="cls-2" d="M84.54142,71.30991c-1.12982-2.48345-2.78549-4.35163-5.66052-4.75438-.44742-.05597-.60403-.26848-.72713-.69357-.55929-1.92415-1.70041-3.40082-3.53503-4.29573-.51456-.25731-1.02918-.49222-1.51017-.72713.55929-2.34924.10064-4.43-1.24175-6.37649-1.33123-1.93532-3.24415-2.9645-5.42561-3.50146-.04474-.14544.0224-.19018.06714-.23491,2.00246-1.77871,3.76994-3.81474,5.74999-5.62695,2.1255-1.93532,4.06082-4.04965,5.89543-6.27578,2.02479-2.46111,3.25538-5.269,4.03842-8.32297.69363-2.71836.35801-5.26894-1.00678-7.69648-.90614-1.61094-2.2821-2.62889-4.10555-2.9869-.92848-.17901-1.85702-.13421-2.78549.0224-2.43871.41392-4.57537,1.48783-6.48836,3.0428-1.90175,1.54374-3.68047,3.21058-5.29134,5.05643-1.63327,1.87935-3.32245,3.7028-4.89982,5.63812-.08947.11187-.15661.23491-.36912.31321h-.0448c-.38035-.63766-.7607-1.25292-1.11865-1.86818-1.57737-2.71842-3.90421-4.53064-6.89104-5.41444-4.17269-1.23052-8.0545-.7159-11.42175,2.25977-1.05152.92848-1.90175,2.01362-2.50578,3.28888-.6824,1.45433-.43632,3.94894,1.00678,5.15713,1.10748.91731,2.17023,1.87935,3.21058,2.87503,1.39836,1.33123,2.59538,2.81906,3.14351,4.72081.32445,1.12982.51462,2.29327.66,3.45672.11187.85017-.06707,1.59971-.48099,2.33801-.7607,1.33123-1.48783,2.68485-2.23737,4.01608-1.56614,2.77432-3.0204,5.60455-4.29573,8.52432-2.11433,4.86625-3.28888,9.93385-3.34485,15.25876-.03357,3.33368.66,6.52186,1.82345,9.60947.46982,1.25286,1.05158,2.48345,1.99122,3.46789.24614.25725.23497.45865.0448.74947-.54819.8614-1.10755,1.72281-1.59971,2.62889-.90614,1.66684-1.04041,3.38965-.1007,5.07883.90614,1.63327,1.94649,3.17708,3.36719,4.44117,3.46795,3.08754,7.4728,5.1459,11.96987,6.25338,2.67362.66,5.33607,1.38719,8.1328,1.16345.62643-.0448,1.24175-.08954,1.86818-.1231,4.36286-.20134,8.54672-1.30883,12.64104-2.76309.79427-.27971,1.53263-.6824,2.1479-1.27532.85017-.8166,1.53257-1.76748,2.06953-2.81906.92854-1.82345.90614-3.68047.12304-5.54865-.27965-.69357-.64883-1.33123-1.07392-1.94649-.34678-.49222-.31321-.48099.14544-.89491,2.1031-1.86818,4.04965-3.88181,5.40321-6.37649,2.08076-3.83707,3.37842-7.90906,3.60216-12.29426.12304-2.24854,0-4.45233-.93971-6.54426ZM43.20632,40.80357c-1.12988-1.36479-2.38281-2.60655-3.8259-3.6469-.31321-.22374-.62649-.44749-.92848-.6824-1.29772-1.04035-1.65567-2.38281-.93971-3.89298,1.12988-2.38281,2.9645-3.91538,5.62695-4.27339,1.14239-.15954,2.29116-.14238,3.42724.03701.38061.05884.75987.1358,1.13697.23146.19643.05463.38246.15163.57838.23951l-.00785-.01576c1.57731.41392,3.0204,1.11872,4.20619,2.2262.00549.00511.00957.01117.015.01634.00236.00217.00504.00383.0074.006,1.48783,1.38719,2.44988,3.10994,2.91976,5.10123.0783.31321.0335.53696-.14544.80544-.44749.62643-.89497,1.24169-1.40953,1.81222-2.47228,2.79672-4.81035,5.71649-7.40567,8.40128-.17901.17901-.31321.42509-.64883.51462-.00179-.01027-.00332-.01985-.00511-.03012-.00651.00211-.01066.00574-.01729.00772-.12304-.71597-.23491-1.40953-.35795-2.1031-.21258-.38035-.26848-.80544-.39152-1.21936-.39152-1.29766-.97328-2.49468-1.83462-3.53503ZM80.4247,87.27346c-.45865,1.02918-.88374,2.06953-1.45427,3.0428-.36918.6376-.77193,1.26409-1.27532,1.81222-1.94649,2.15906-4.02725,4.16152-6.51069,5.71649-.50339.32438-.99561.67117-1.39836,1.11865-.25725.27965-.19018.46982.17901.54813.2224.05341.45068.02821.67602-.01493.05424-.01142.10887-.01461.16299-.0298,1.09632-.27965,2.13666-.6824,3.13228-1.21936.24148-.12917.37014-.19292.47097-.16554.1046.02406.18143.13944.31213.37812.49222.90614.89497,1.86818,1.10748,2.87496.14544.69363-.0783,1.37603-.30205,2.03602-.43625,1.28649-1.25292,2.2821-2.38274,3.05397-1.53263,1.04041-3.23298,1.65567-5.00052,2.11433-3.07637.79427-6.19748,1.19696-9.37449,1.17462-.00166,0-.00325-.00019-.00491-.00019-.00211,0-.00421.00019-.00632.00019-2.2597-.01123-4.4859-.32445-6.70087-.73836-.06714-.01117-.12304-.0559-.19018-.08947h.01117c-4.96689-.95088-9.15075-3.35602-12.76408-6.83514-.20134-.20134-.36918-.43625-.55936-.64883-.08258-.02061-.12266-.07409-.12904-.16076-.11915-.05527-.20587-.12208-.17301-.2755-1.62204-1.28649-1.78988-3.21064-1.06275-4.83275.17901-.39152.39158-.77187.60409-1.14099.26848-.46982.55936-.93971.88374-1.4655.46989.38035.90614.73836,1.34246,1.09632.96083.76568,2.00609,1.38426,3.0876,1.94566.5316.27486,1.0683.54047,1.61081.7951.04474.01123.08947.03357.13427.04474.10626.03357.21251.08111.31596.0993.1007.01615.20134.00472.2993-.0769.11627-.09968.1441-.20766.12974-.31704-.01557-.10874-.07396-.22023-.12974-.33179-.0224-.04474-.0224-.13427-.0224-.13427-.00179-.00019-.00217-.00153-.00389-.00172-.00051.00606.00491.00632.00389.01289-.12304,0-.17894-.0783-.17894-.20134-1.63327-1.14105-3.12111-2.46111-4.51947-3.88181-2.52825-2.58415-4.17269-5.63812-4.81035-9.21788-.3136-1.76403-.5009-3.52813-.53275-5.2921-.03223-1.76352.09088-3.52845.39854-5.29057.25725-1.47667.67117-2.95333,1.25292-4.34046.30607-.73269.62196-1.46122.93703-2.19001.65547-1.52147,1.3392-3.02908,2.06283-4.51704.89331-1.84176,1.84125-3.65711,2.89558-5.41942,3.13228-5.22427,6.51069-10.26946,10.72812-14.71063,3.37842-3.55736,6.53303-7.32736,9.59823-11.16437,1.94649-2.42754,4.22859-4.49713,6.62257-6.45479,1.36479-1.10748,2.94216-1.75631,4.69848-1.98006.72713-.08954,1.43187-.03357,2.13666.14544.96204.24608,1.66684.82777,2.19257,1.64444.89133,1.37124,1.28515,2.87126,1.24922,4.46223-.00485.23006-.01832.46172-.04103.69484-.24608,2.59538-1.24169,4.89982-2.76309,7.00292-.62649.87257-1.33123,1.70041-2.06959,2.48351-3.0428,3.25532-6.17508,6.42122-9.48636,9.40806-4.56421,4.13912-8.8376,8.56905-12.41736,13.61431-.90608,1.27526-1.68918,2.60649-2.32684,4.02725-.04084.09802-.15035.21966-.12521.32623.01257.03523.03976.06879.09164.09885.19018.11187.30205-.08947.41392-.20134.46989-.46989.93971-.95088,1.39836-1.4431,2.80789-2.9869,5.54865-6.0297,8.50198-8.8711.51456-.49222.99561-1.02918,1.61087-1.42076.43625-.54813,1.02918-.91731,1.5214-1.39836.16778-.16778.36918-.19018.59286-.19018.00581,0,.01161.00057.01742.00057.55355.00115,1.10633.0582,1.58235.32387,1.77865.96204,3.30005,2.19263,4.08315,4.13912.38035.92848.46982,1.89058.31321,2.87496-.02234.12866-.05597.23217-.12164.30907-.06573.07696-.16356.12725-.31462.14965-1.5438.21251-2.91976.87251-4.20626,1.71158-.05035.0335-.09796.06988-.14965.09502-.0501.02438-.10492.03631-.16918.02712-.00019.00038-.00045.00051-.00064.00089h.00625c-.00185.00504-.00645.00625-.00842.01117h.00842c-.0037-.00019-.00587.00153-.00951.00147-.08079.20051-.24199.29062-.43798.33415-.72152.55929-1.39836,1.1662-2.03322,1.81362s-1.22772,1.33544-1.78146,2.05702c-.00357.00453-.00619.00964-.00976.01417-.45029.58418-.82477,1.2011-1.12331,1.87214-.00236.0053-.00562.01015-.00798.01544-.04474.11187-.0783.24608.03357.32438.09228.0755.17205.03146.23912-.02827.02119-.01934.04206-.0404.06286-.0612.29088-.29088.58176-.57053.87257-.8614.92854-.93971,1.93532-1.77871,2.9645-2.59532.98444-.7831,2.06959-1.37596,3.21064-1.86818.03567-.07135.08564-.11385.14487-.13631.0529-.02699.11538-.03318.18667-.01959.97742-.60518,1.97233-.86613,3.07848-.60933.1732.03804.3487.08615.5277.14991,1.5214.54819,2.70725,1.4879,3.61333,2.80789.25731.38035.43632.79427.55936,1.23059.06714.21251.0224.36912-.20134.45865-1.19702.48099-2.1479,1.30883-3.09877,2.14783h-.01117c.00083-.00389.00147-.00779.0023-.01168-.00447.00396-.009.00772-.01347.01168-.66006.77187-1.34239,1.5438-1.86818,2.42754-.19018.32445-.39158.64883-.46989,1.02918-.02234.12304-.02234.24608.1231.30205.04844.01615.09394.01257.13593-.00134.04072-.01461.0783-.03982.11015-.07696.27965-.26848.54813-.52579.8166-.79427.00459-.00045.00798-.00249.01257-.00294.04097-.10185.09592-.19649.233-.16905.00772.00051.01181-.00453.0201-.00313.00051-.00198.00236-.00185.00281-.00389.00306-.00083.00619-.00166.00925-.00249.33664-.62854.90129-1.00742,1.45624-1.39581.82784-.58176,1.73398-1.01801,2.66245-1.38719.67136-.26433,1.305-.36178,1.90788-.31551,1.01023.07326,1.93034.54927,2.80177,1.32236,1.59971,1.4207,2.1255,3.28888,2.2262,5.33607.20134,4.21742-.95088,8.1328-2.64012,11.9363Z"/>
  <polygon class="cls-2" points="45.26729 96.45516 45.26468 96.45778 45.26857 96.4595 45.26729 96.45516"/>
  <path class="cls-1" d="M45.27584,96.44654c.10064.03357.19018.05597.17894.19018.6824.24614,1.15228.8055,1.70041,1.24175.21966.16892.20843.39477.01219.55815-.06516.05756-.14997.10862-.25827.14665-.50339.17901-1.01801.21258-1.55497.15661-1.30883-.14544-2.47228-.6824-3.61333-1.28649-.42509-.22374-.8614-.40269-1.33123-.51456-.65847-.15622-1.22765.05514-1.73034.445-.06197.04825-.09541.11525-.14735.17026-.08654.09075-.18284.17524-.24231.28309-.09515.17365-.15674.36746-.1845.57825-.10064.69357-.0783,1.37596.08954,2.05836.0335.15661.12304.31321.06707.48105.17505.01091.17869.13976.17875.2709.07773.02821.11213.08532.11213.16541.17901.22368.35795.44742.55936.64883,3.61333,3.47906,7.79718,5.87303,12.76408,6.83508.57053.0448,1.14105.11187,1.71158.1231,3.0652.08947,6.05204-.34685,8.92707-1.47667,1.15222-.44749,2.32684-.87257,3.37842-1.55497.92848-.60409,1.76748-1.32006,2.36041-2.27093.08947-.14544.17901-.27965.24608-.43625.0501-.12234.08462-.22164.10115-.30505.04084-.23797-.07581-.34978-.4367-.48922-.40275-.15661-.79427-.32445-1.16345-.55936-.9011-.58074-1.25994-1.40462-1.0376-2.38096.02546-.11806.05546-.23734.0979-.3598.26848-.79427.74953-1.4431,1.33123-2.02479,1.00684-.99561,2.09193-1.91292,3.25538-2.70719,1.90175-1.29766,3.44549-2.9645,4.88859-4.72081,1.25292-1.53263,2.41637-3.15468,3.18824-5.01169.77831-1.8664,1.16166-3.78921,1.10423-5.74955-.01997-.65515-.08909-1.3154-.20926-1.9805-.27971-1.51023-.88374-2.93093-1.87942-4.13912-1.12982-1.36479-2.57292-1.83462-4.29573-1.43193-.47512.11053-.9503.26433-1.42548.38667-.03676.1367-.15437.16178-.26369.17269.00115-.00249.00274-.00364.00389-.00613-.00491.00057-.00874.00268-.01372.00319-.00459.00045-.00798.00249-.01257.00294-.26848.26848-.53696.52579-.8166.79427-.03184.03714-.06943.06235-.11015.07696-.04512.01615-.09426.01895-.14716.00134-.13421-.05597-.14544-.17901-.12304-.30205.06707-.38035.27965-.7048.46982-1.02918.52579-.88374,1.20819-1.64444,1.86818-2.42754.16784-.8166.29088-1.63327.16784-2.47228-.25731-1.68918-1.26415-2.83023-2.74076-3.57976-.5711-.28552-1.18202-.1448-1.7858-.12814-.02591.00096-.05188.00428-.07773.00479-.03044.07907-.07952.11334-.13855.12617-.05967.02074-.13019.01959-.20173.01959-1.14105.50339-2.2262,1.08508-3.21064,1.86818-1.02918.8166-2.03596,1.65561-2.9645,2.59532-.29081.29088-.58169.57053-.87257.8614-.0208.0208-.04167.04186-.06286.0612-.07007.06388-.14467.10555-.23919.02827-.10064-.0783-.08947-.21258-.0335-.32445.00236-.0053.00562-.01008.00798-.01538.29854-.67104.67302-1.28796,1.12331-1.87214.00357-.00459.00619-.00964.00976-.01423.55374-.72158,1.1466-1.40953,1.78146-2.05696s1.3117-1.25433,2.03322-1.81362c.00555-.0083.01085-.01634.01627-.02463-.00191.00051-.00319.00172-.00511.00223.10894-.16337.19917-.33453.43089-.34359.03357-.27614.28896-.41066.44168-.59612.96855-1.18375,1.5177-2.48734,1.50564-3.97798-.00236-.21028-.01532-.42419-.04014-.64213-.05597-.43632-.20141-.81667-.41392-1.19702-.64883-1.17456-2.67362-2.21497-4.29573-1.66678-.11187.04474-.23491.04474-.34678.06707-.61526.39158-1.09632.92854-1.61094,1.42076-2.95327,2.8414-5.69403,5.89543-8.50192,8.8711-.45865.48105-.92854.96204-1.39836,1.4431-.11187.1007-.23491.31321-.41392.20134-.05731-.03318-.08232-.07071-.09164-.11002-.02514-.10657.08437-.22821.12521-.32623.63766-1.42076,1.42076-2.75199,2.32684-4.02725,3.57976-5.04526,7.85315-9.47519,12.41736-13.61431,3.31128-2.98684,6.44356-6.15274,9.48636-9.40806.73836-.7831,1.4431-1.61094,2.06959-2.48351,1.5214-2.1031,2.51701-4.40753,2.76309-7.00292.02272-.23312.03618-.46478.04103-.69484.03325-1.58037-.36057-3.08397-1.24922-4.45106-.52573-.8166-1.24169-1.39836-2.19257-1.64444-.7048-.17901-1.40953-.23491-2.13666-.14544-1.74515.22374-3.33368.87257-4.69848,1.98006-2.39397,1.95766-4.67608,4.02725-6.62257,6.45479-3.06514,3.83707-6.21982,7.59578-9.59823,11.16437-4.21742,4.44117-7.59584,9.48643-10.72812,14.71063-1.05292,1.75995-2.00182,3.57057-2.89558,5.40825-.72362,1.48796-1.40736,2.99558-2.06283,4.51704-.31545.73217-.63179,1.4639-.93703,2.20118-.58176,1.3983-.99561,2.8638-1.25292,4.34046-.30728,1.75982-.43026,3.51958-.39854,5.27941.03184,1.76397.21915,3.52807.53275,5.2921.63766,3.57976,2.2821,6.63373,4.81035,9.21788,1.39836,1.4207,2.8862,2.74076,4.51947,3.88181l.00262-.00262.00855-.00862ZM59.47185,77.56329c.20134-.29081.40275-.59286.6824-.839.32445-.29081.69357-.46982,1.11865-.26848.41392.19018.54819.57053.55936,1.00684.0224.41392-.0783.8166-.22374,1.19696-.23491.62643-.46982,1.25292-.7383,1.86818-1.09632,2.53941-1.89058,5.1683-2.03602,7.95379-.01117.26848-.02234.52579-.14538.77193-.10696.22508-.27052.35304-.4494.3785-.1776.02674-.36886-.04837-.53038-.22961-.00147-.0016-.00319-.00179-.00466-.00345-.31328-.35801-.40275-.8055-.46989-1.26415-.11187-.7383-.15661-1.48783-.15661-2.22614-.02234-3.02047.62649-5.83953,2.39397-8.34537ZM43.68731,76.28803c.04474-.71597.16784-1.4207.45865-2.09193.21258-.48105.53696-.839,1.07392-.97328.3644-.10166.61284-.06669.80933.15961.06726.07333.12891.16726.18635.28788.16778.34678.22368.72713.24608,1.10748.06714,1.05158.0224,2.1031,0,3.42315l.01117.01123c.0783,2.58409.22374,5.41438,1.12988,8.15514.14544.42509.24608.87257.22374,1.33123-.0224.54813-.32445.71597-.79427.43625-.21825-.1328-.37735-.31621-.5307-.5046-.03146-.03752-.06401-.07333-.09573-.11066-.73836-.88374-1.17462-1.92415-1.5214-2.98684-.89497-2.67369-1.39836-5.40321-1.19702-8.24467Z"/>
  <path class="cls-1" d="M66.10826,62.01666c-.00204.00447-.00625.00645-.00849.01085.00281,0,.00466-.00121.00753-.00115.00364.00006.00581-.00166.00951-.00147h-.01123c.00038-.00313.0023-.00517.00268-.00823Z"/>
  <path class="cls-1" d="M38.42883,101.22269l.01187.01181c0-.003-.00026-.00574-.00026-.00874-.00485-.00179-.00645-.00574-.01174-.00721,0,.0014.00013.00274.00013.00415Z"/>
  <polygon class="cls-1" points="72.01027 71.77724 72.00102 71.77973 71.99821 71.78362 72.00682 71.78228 72.01027 71.77724"/>
  <path class="cls-5" d="M69.95389,99.51175c-.35801-.0783-.42515-.26848-.17901-.54813.40269-.44749.89491-.80544,1.39836-1.11865,2.47228-1.55497,4.55297-3.56859,6.51069-5.71649.49222-.54813.89491-1.17462,1.27526-1.81222.57053-.97328.99568-2.01362,1.45433-3.0428,1.68918-3.79234,2.83023-7.71888,2.64005-11.9363-.08947-2.04719-.62643-3.90421-2.22614-5.33607-.86689-.769-1.78612-1.2452-2.7906-1.32236-.60288-.04627-1.23652.05118-1.90788.31551-.92848.36918-1.83462.80544-2.66245,1.38719-.55495.38839-1.11961.76727-1.45624,1.39581-.00096.00185-.00243.00319-.00345.00504.00708.00147.00906-.00472.01659-.00255-.00077.00332-.00396.00313-.00479.00632.47518-.12234.95037-.27614,1.42548-.38667,1.72281-.40269,3.16591.06714,4.29573,1.43193.99568,1.20819,1.59971,2.62889,1.87942,4.13912.12017.6651.18928,1.32536.20926,1.9805.05999,1.96748-.32374,3.88928-1.10423,5.76071-.77187,1.85702-1.92409,3.47912-3.18824,5.01169-1.4431,1.75631-2.98684,3.42315-4.88859,4.72081-1.17462.79427-2.24854,1.71158-3.25538,2.70719-.58169.58176-1.06275,1.24175-1.33123,2.02486-.04225.11864-.07179.23408-.0979.34857-.22234.97634.1365,1.80022,1.0376,2.38096.36918.23491.7607.40275,1.16345.55936.36089.13944.47754.25125.4367.48922-.01487.08666-.04742.18788-.10115.31621-.06707.15661-.15661.29088-.24608.43632-.60409.95088-1.43193,1.65561-2.36041,2.27087-1.05158.6824-2.21497,1.09632-3.37842,1.55497-2.8638,1.12988-5.8507,1.56614-8.92707,1.47667-.57053-.01117-1.14105-.0783-1.71158-.12304h-.01117c.06714.03357.12304.0783.19018.08947,2.21497.41392,4.44117.72713,6.70087.73836.00211,0,.00421-.00019.00632-.00019,3.16374.01066,6.29391-.38067,9.36824-1.17443,1.76748-.45865,3.46789-1.07392,5.00046-2.11433,1.11865-.77187,1.93532-1.76748,2.38281-3.05397.22374-.66.44749-1.34239.30205-2.03602-.20141-1.01795-.60409-1.96882-1.10748-2.87496-.12814-.23402-.2009-.35093-.30096-.37812-.10083-.02738-.22949.03638-.47097.16554-.99561.53696-2.03596.93971-3.13228,1.21936-.05412.01519-.10874.01838-.16299.0298-.22585.04748-.45266.06905-.68718.01493Z"/>
  <path class="cls-1" d="M43.15035,28.3079c-2.67362.36918-4.49707,1.89058-5.62695,4.27339-.71597,1.51017-.35795,2.8414.93971,3.89298.30205.24614.61526.45865.92848.6824,1.4431,1.02918,2.69602,2.2821,3.8259,3.6469.86134,1.04035,1.4431,2.23737,1.83462,3.53503.12304.40269.17901.839.39152,1.21936,1.12988.0559,1.87942-.61526,2.51701-1.40953.7831-.98444,1.28649-2.11433,1.65567-3.32251.52579-1.76748.8614-3.57976.95088-5.42555.0559-1.02918-.06714-2.04719-.32445-3.05397-.34678-1.34246-.95088-2.53941-1.94649-3.52386-.00491-.00217-.00957-.00447-.01449-.00664-.19592-.08788-.38195-.18488-.57838-.23951-.3771-.09566-.75636-.17263-1.13697-.23146-1.1325-.17518-2.27738-.18769-3.41607-.03701Z"/>
  <path class="cls-5" d="M50.24274,32.34638c.25731,1.00678.38035,2.02479.32445,3.05397-.08947,1.84578-.42509,3.65807-.95088,5.42555-.36918,1.20819-.87257,2.33807-1.65567,3.32251-.6376.79427-1.38713,1.46543-2.51701,1.40953l.01117.02234c.11028.68367.23166,1.36799.35291,2.07304.00179.01027.00332.01985.00511.03012.33561-.08954.46982-.33561.64883-.51462,2.59532-2.68479,4.93339-5.60455,7.40567-8.40128.51456-.57053.96204-1.18579,1.40953-1.81222.17894-.26848.22374-.49222.14544-.80544-.46989-1.99129-1.43193-3.71403-2.91976-5.10123-.00236-.00217-.00504-.00383-.0074-.006-1.18445-1.10378-2.62461-1.81822-4.19885-2.22014.99561.97328,1.59971,2.1814,1.94649,3.52386Z"/>
  <path class="cls-5" d="M67.60465,55.5701c.21258.38035.36918.7607.41392,1.19702.02527.22176.03842.43945.04014.6533.01206,1.49064-.53709,2.79424-1.50564,3.97798-.15271.18545-.40811.31998-.44168.59612.00625-.00026.01015-.00319.01659-.00319-.0037.00951-.0127.01251-.01678.02151.06426.00919.11908-.00274.16918-.02712.05169-.02514.0993-.06152.14965-.09509,1.28649-.85017,2.66245-1.499,4.20626-1.71158.15106-.0224.24889-.07269.31462-.14959.06567-.0769.0993-.18041.12164-.30907.15661-.98438.06714-1.94649-.31321-2.87496-.7831-1.94649-2.3045-3.17708-4.08315-4.13912-.47601-.25463-1.0288-.32247-1.58235-.32387-.00581,0-.01161-.00057-.01742-.00057-.22368,0-.42509.0224-.59286.19018-.49222.48105-1.08515.85024-1.5214,1.39836.11187-.02234.23491-.03357.34678-.06714,1.61087-.53696,3.6469.50345,4.29573,1.66684Z"/>
  <path class="cls-5" d="M38.18339,100.48502c-.16778-.6824-.19018-1.36479-.08947-2.05836.03401-.21551.09828-.41283.19566-.58948.05948-.10785.15578-.19235.24231-.28309.05131-.0538.08213-.12061.14372-.16784.00115-.00089.00249-.00153.00364-.00243.50269-.38986,1.07187-.60122,1.73034-.445.46982.11187.90614.29081,1.33123.51456,1.14105.60409,2.3045,1.14105,3.61333,1.28649.53696.05597,1.05158.0224,1.55497-.15661.1083-.03804.19311-.08909.25827-.14665.18379-.16241.19139-.38175-.02336-.54691-.54813-.42509-1.00678-.99568-1.70041-1.24175.01123.04474,0,.08947.0224.13427.05648.10728.11506.22023.12974.33179.01436.10938-.01347.21736-.12974.31704-.09796.08162-.1986.09305-.2993.0769-.10626-.01698-.21258-.06484-.31596-.0993-.0448-.01117-.08954-.0335-.13427-.04474-.54251-.25463-1.07921-.52024-1.61081-.7951-1.07979-.55821-2.12811-1.17353-3.0876-1.94566-.43632-.35795-.87257-.71597-1.34246-1.09632-.31321.52579-.61526.99561-.88374,1.4655-.21251.36912-.42509.74947-.60409,1.14099-.72713,1.62211-.55929,3.54626,1.06275,4.83275.06714-.16784-.02234-.32445-.06714-.48105Z"/>
  <path class="cls-5" d="M68.43925,62.89363c-.00057.00147-.00153.00204-.00211.00351.02585-.00051.05182-.00383.07773-.00479.61105-.02329,1.23001-.1716,1.80813.12814,1.4879.74953,2.48351,1.87935,2.74076,3.57976.13363.83498.01219,1.64789-.16548,2.4606-.00083.00389-.00147.00779-.0023.01168h.01117c.95088-.839,1.90175-1.66684,3.09877-2.14783.22374-.08954.26848-.24614.20134-.45865-.12304-.43632-.30205-.85024-.55936-1.23059-.90608-1.31999-2.09193-2.2597-3.61333-2.80789-.17901-.06375-.3545-.11187-.5277-.14991-1.10142-.24193-2.0932.0194-3.06763.61596Z"/>
  <path class="cls-6" d="M66.11139,61.99451c-.23172.00906-.32196.18022-.43089.34359.00191-.00051.00319-.00172.00511-.00223.1829-.05163.33019-.14059.41417-.30836.00223-.0044.00645-.00638.00849-.01085.00057-.00121.00172-.00172.0023-.00294.00019-.00038.00045-.00051.00064-.00089.00408-.009.01308-.012.01678-.02151-.00645,0-.01034.00294-.01659.00319Z"/>
  <path class="cls-6" d="M68.2986,63.02331c.05903-.01283.10811-.0471.13855-.12617.00057-.00147.00153-.00204.00211-.00351.00115-.00319.00332-.00408.0044-.0074-.00581-.00134-.00957.00185-.01525.00077-.07128-.01359-.13376-.0074-.18667.01959-.04888.02495-.09158.06318-.12253.12508.06267,0,.12463.00351.17939-.00836Z"/>
  <path class="cls-6" d="M71.75883,71.95261c-.00115.00249-.00274.00364-.00389.00613.10932-.01091.22693-.03599.26369-.17269.00083-.00319.00402-.003.00479-.00632-.00753-.00217-.00951.00402-.01659.00255-.0037-.00083-.00498.00198-.00862.00134-.0083-.0014-.01238.00364-.0201.00313-.11181-.00721-.17186.06235-.21928.16586Z"/>
  <path class="cls-6" d="M38.41837,101.22333c.00511.00057.00587.00485.01066.00568,0-.00211-.00013-.00421-.00019-.00632,0-.0014-.00013-.00274-.00013-.00415-.00089-.11487-.01232-.23178-.17818-.25246-.03287.15342.05386.22023.17301.2755-.00051-.00721-.00517-.01053-.00517-.01825Z"/>
  <path class="cls-6" d="M45.26857,96.4595c-.00147-.00045-.00243-.00121-.00389-.00172,0,.12304.0559.20134.17894.20134.00102-.00657-.0044-.00683-.00389-.01289.01085-.12655-.07658-.15546-.17116-.18673Z"/>
  <path class="cls-6" d="M38.42902,101.22901c-.00479-.00083-.00555-.00511-.01066-.00568,0,.00772.00466.01104.00517.01825.00638.08666.04646.14014.12904.16076,0-.0956-.0344-.15731-.12355-.17333Z"/>
  <path class="cls-2" d="M46.40573,87.51954c.03172.03733.06426.07313.09573.11066.15712.18711.31449.37225.51954.49343.46982.27965.77187.1007.79427-.43625.02234-.45872-.0783-.90614-.22374-1.33129-.90614-2.74076-1.05158-5.58215-1.12988-8.15514l-.01117-.01117c.02234-1.32006.06714-2.37164,0-3.42315-.0224-.38035-.0783-.7607-.24614-1.10748-.05424-.11391-.11219-.20428-.17511-.27671-.19649-.2263-.44493-.26127-.80933-.15961-.53696.13427-.86134.49222-1.07392.97328-.29081.67123-.41392,1.37596-.45865,2.09193-.20134,2.84146.30205,5.57099,1.19702,8.24467.34678,1.06268.78304,2.1031,1.5214,2.98684Z"/>
  <path class="cls-2" d="M57.70437,89.39896c.00147.00166.00319.00185.00466.00345.16573.1799.35533.25457.53038.22961.17888-.02546.34244-.15342.4494-.3785.12304-.24614.13421-.50345.14538-.77193.14544-2.78549.92854-5.41438,2.03602-7.95379.26848-.61526.50339-1.24175.7383-1.86818.14544-.38035.24614-.78304.22374-1.19696-.01117-.43632-.14544-.81667-.55936-1.00684-.42509-.20134-.7942-.02234-1.11865.26848-.27965.24614-.48105.54819-.6824.839-1.76748,2.50585-2.41631,5.32491-2.39397,8.34537.01117.74953.05597,1.48783.15661,2.22614.06714.45865.15661.90614.46989,1.26415Z"/>
</svg>