<svg width="260" height="260" viewBox="0 0 260 260" fill="none" xmlns="http://www.w3.org/2000/svg">
<rect width="260" height="260" rx="130" fill="url(#paint0_linear_733_2125)"/>
<path d="M40.6948 92H92.7662C93.3376 92.0952 93.6234 92.381 93.6234 92.8571V102.571C93.6234 103.143 93.3376 103.429 92.7662 103.429H72.4805V166.071C72.4805 166.643 72.171 166.929 71.5519 166.929H61.9091C61.29 166.929 60.9805 166.643 60.9805 166.071V103.429H40.6948C40.1234 103.429 39.8376 103.143 39.8376 102.571V92.8571C39.9329 92.2857 40.2186 92 40.6948 92Z" fill="white"/>
<path d="M104.14 92.2143H113.854C114.425 92.3095 114.711 92.5952 114.711 93.0714V123.857H124.354V114.214C124.449 113.595 124.759 113.286 125.282 113.286H134.925V103.643C135.02 103.071 135.306 102.786 135.782 102.786H145.497V93.0714C145.592 92.5 145.878 92.2143 146.354 92.2143H155.997C156.616 92.3095 156.925 92.5952 156.925 93.0714V102.786C156.925 103.357 156.616 103.643 155.997 103.643H146.354V113.286C146.354 113.905 146.068 114.214 145.497 114.214H135.782V123.857C135.782 124.429 135.497 124.714 134.925 124.714H125.282V134.429H134.925C135.497 134.524 135.782 134.81 135.782 135.286V144.929H145.497C146.068 145.024 146.354 145.333 146.354 145.857V155.5H155.997C156.616 155.595 156.925 155.881 156.925 156.357V166.071C156.925 166.643 156.616 166.929 155.997 166.929H146.354C145.782 166.929 145.497 166.643 145.497 166.071V156.357H135.782C135.211 156.357 134.925 156.071 134.925 155.5V145.857H125.282C124.663 145.857 124.354 145.548 124.354 144.929V135.286H114.711V166.071C114.711 166.643 114.425 166.929 113.854 166.929H104.14C103.568 166.929 103.282 166.643 103.282 166.071V93.0714C103.378 92.5 103.663 92.2143 104.14 92.2143Z" fill="white"/>
<path d="M167.37 92.0714H177.084C177.703 92.1667 178.013 92.4524 178.013 92.9286V113.214H187.656C188.275 113.31 188.584 113.619 188.584 114.143V123.857H198.299C198.87 123.952 199.156 124.238 199.156 124.714V134.429H208.87V92.9286C208.965 92.3571 209.251 92.0714 209.727 92.0714H219.441C220.06 92.1667 220.37 92.4524 220.37 92.9286V166.214C220.37 166.786 220.06 167.071 219.441 167.071H209.727C209.156 167.071 208.87 166.786 208.87 166.214V145.929H199.156C198.584 145.929 198.299 145.619 198.299 145V135.286H188.584C187.965 135.286 187.656 135 187.656 134.429V124.714H178.013V166.214C178.013 166.786 177.703 167.071 177.084 167.071H167.37C166.799 167.071 166.513 166.786 166.513 166.214V92.9286C166.608 92.3571 166.894 92.0714 167.37 92.0714Z" fill="white"/>
<defs>
<linearGradient id="paint0_linear_733_2125" x1="0" y1="0" x2="49.9841" y2="295.522" gradientUnits="userSpaceOnUse">
<stop offset="0.192708" stop-color="#BD76FB"/>
<stop offset="0.453125" stop-color="#2E8DFF"/>
<stop offset="1" stop-color="#9FFFA9"/>
</linearGradient>
</defs>
</svg>
