<svg width="381" height="381" viewBox="0 0 381 381" fill="none" xmlns="http://www.w3.org/2000/svg">
<circle cx="190.5" cy="190.5" r="190.5" fill="black"/>
<path d="M190.896 78.0122C192.153 76.5286 194.443 76.7114 195.524 78.3277L285.495 212.838C298.057 231.62 285.683 270.622 273.434 286.504C272.26 288.027 269.999 287.855 268.911 286.269C254.018 264.553 225.804 223.112 203.718 189.912L149.74 272.375C140.543 286.425 108.492 287.902 91.9433 282.957C90.1413 282.418 89.4626 280.331 90.4628 278.739C106.007 253.987 139.966 197.617 154.445 177.143C161.916 166.579 173.841 162.907 185.772 162.627C183.167 158.599 180.859 154.987 178.928 151.9C161.597 124.195 178.38 92.7852 190.896 78.0122Z" fill="#23FAAD"/>
</svg>
