<?xml version="1.0" encoding="UTF-8" standalone="no"?>
<!DOCTYPE svg PUBLIC "-//W3C//DTD SVG 1.1//EN" "http://www.w3.org/Graphics/SVG/1.1/DTD/svg11.dtd">
<svg xmlns="http://www.w3.org/2000/svg" version="1.1" viewBox="0.00 0.00 64.00 64.00">
<g stroke-width="2.00" fill="none" stroke-linecap="butt">
<path stroke="#0000ff" stroke-opacity="0.953" vector-effect="non-scaling-stroke" d="
  M 7.49 0.00
  C 25.61 0.97 44.17 0.47 61.92 0.40
  A 1.55 1.54 -0.2 0 1 63.48 1.94
  L 63.48 62.06
  A 1.73 1.72 0.3 0 1 61.73 63.78
  Q 41.32 63.55 27.25 63.51
  Q 18.98 63.48 10.74 64.00"
/>
<path stroke="#0101df" vector-effect="non-scaling-stroke" d="
  M 17.23 22.02
  Q 15.69 24.24 15.42 27.73
  Q 14.84 35.10 16.98 43.49
  C 18.78 50.54 22.16 55.43 29.56 55.84
  Q 38.21 56.31 42.82 51.59
  Q 46.82 47.49 47.68 41.48"
/>
<path stroke="#7d7bff" vector-effect="non-scaling-stroke" d="
  M 47.68 41.48
  Q 50.66 31.88 48.97 22.55
  Q 48.66 20.87 46.80 16.91"
/>
<path stroke="#0101df" vector-effect="non-scaling-stroke" d="
  M 46.80 16.91
  Q 46.22 13.33 42.96 12.40"
/>
<path stroke="#7d7bff" vector-effect="non-scaling-stroke" d="
  M 42.96 12.40
  Q 36.90 8.32 29.87 9.63
  Q 20.40 11.39 17.23 22.02"
/>
<path stroke="#7d7cdf" vector-effect="non-scaling-stroke" d="
  M 42.96 12.40
  L 46.80 16.91"
/>
<path stroke="#7d7cdf" vector-effect="non-scaling-stroke" d="
  M 47.68 41.48
  Q 45.86 45.40 44.41 47.40
  Q 41.28 51.75 35.54 52.41
  Q 22.17 53.95 18.31 41.40
  Q 15.21 31.31 17.23 22.02"
/>
<path stroke="#7d7bff" vector-effect="non-scaling-stroke" d="
  M 21.23 22.94
  Q 21.19 22.47 21.36 21.87
  A 0.61 0.61 0.0 0 0 20.77 21.09
  L 19.23 21.09
  A 0.85 0.85 0.0 0 0 18.38 21.94
  L 18.38 29.97
  A 0.64 0.64 0.0 0 0 19.02 30.61
  L 24.38 30.61
  A 0.94 0.94 0.0 0 0 25.32 29.67
  L 25.32 24.50
  A 0.78 0.78 0.0 0 0 24.54 23.72
  L 22.09 23.72
  A 0.87 0.86 87.1 0 1 21.23 22.94"
/>
<path stroke="#7d7bff" vector-effect="non-scaling-stroke" d="
  M 32.4211 24.1521
  A 0.39 0.39 0.0 0 0 32.0338 23.7594
  L 26.4939 23.7207
  A 0.39 0.39 0.0 0 0 26.1012 24.1080
  L 26.0589 30.1679
  A 0.39 0.39 0.0 0 0 26.4462 30.5606
  L 31.9861 30.5993
  A 0.39 0.39 0.0 0 0 32.3788 30.2120
  L 32.4211 24.1521"
/>
<path stroke="#7d7bff" vector-effect="non-scaling-stroke" d="
  M 39.7651 24.2555
  A 0.52 0.52 0.0 0 0 39.2460 23.7346
  L 34.0060 23.7254
  A 0.52 0.52 0.0 0 0 33.4851 24.2445
  L 33.4749 30.0645
  A 0.52 0.52 0.0 0 0 33.9940 30.5854
  L 39.2340 30.5946
  A 0.52 0.52 0.0 0 0 39.7549 30.0755
  L 39.7651 24.2555"
/>
<path stroke="#7d7bff" vector-effect="non-scaling-stroke" d="
  M 47.6250 24.3082
  A 0.60 0.60 0.0 0 0 47.0281 23.7051
  L 41.2882 23.6750
  A 0.60 0.60 0.0 0 0 40.6851 24.2719
  L 40.6550 30.0118
  A 0.60 0.60 0.0 0 0 41.2519 30.6149
  L 46.9918 30.6450
  A 0.60 0.60 0.0 0 0 47.5949 30.0481
  L 47.6250 24.3082"
/>
</g>
<path fill="#0000ff" d="
  M 7.49 0.00
  C 25.61 0.97 44.17 0.47 61.92 0.40
  A 1.55 1.54 -0.2 0 1 63.48 1.94
  L 63.48 62.06
  A 1.73 1.72 0.3 0 1 61.73 63.78
  Q 41.32 63.55 27.25 63.51
  Q 18.98 63.48 10.74 64.00
  L 0.00 64.00
  L 0.00 0.00
  L 7.49 0.00
  Z
  M 17.23 22.02
  Q 15.69 24.24 15.42 27.73
  Q 14.84 35.10 16.98 43.49
  C 18.78 50.54 22.16 55.43 29.56 55.84
  Q 38.21 56.31 42.82 51.59
  Q 46.82 47.49 47.68 41.48
  Q 50.66 31.88 48.97 22.55
  Q 48.66 20.87 46.80 16.91
  Q 46.22 13.33 42.96 12.40
  Q 36.90 8.32 29.87 9.63
  Q 20.40 11.39 17.23 22.02
  Z"
/>
<path fill="#0000fe" fill-opacity="0.906" d="
  M 64.00 0.00
  L 64.00 64.00
  L 10.74 64.00
  Q 18.98 63.48 27.25 63.51
  Q 41.32 63.55 61.73 63.78
  A 1.73 1.72 0.3 0 0 63.48 62.06
  L 63.48 1.94
  A 1.55 1.54 -0.2 0 0 61.92 0.40
  C 44.17 0.47 25.61 0.97 7.49 0.00
  L 64.00 0.00
  Z"
/>
<path fill="#f9f6ff" d="
  M 42.96 12.40
  L 46.80 16.91
  Q 48.66 20.87 48.97 22.55
  Q 50.66 31.88 47.68 41.48
  Q 45.86 45.40 44.41 47.40
  Q 41.28 51.75 35.54 52.41
  Q 22.17 53.95 18.31 41.40
  Q 15.21 31.31 17.23 22.02
  Q 20.40 11.39 29.87 9.63
  Q 36.90 8.32 42.96 12.40
  Z
  M 21.23 22.94
  Q 21.19 22.47 21.36 21.87
  A 0.61 0.61 0.0 0 0 20.77 21.09
  L 19.23 21.09
  A 0.85 0.85 0.0 0 0 18.38 21.94
  L 18.38 29.97
  A 0.64 0.64 0.0 0 0 19.02 30.61
  L 24.38 30.61
  A 0.94 0.94 0.0 0 0 25.32 29.67
  L 25.32 24.50
  A 0.78 0.78 0.0 0 0 24.54 23.72
  L 22.09 23.72
  A 0.87 0.86 87.1 0 1 21.23 22.94
  Z
  M 32.4211 24.1521
  A 0.39 0.39 0.0 0 0 32.0338 23.7594
  L 26.4939 23.7207
  A 0.39 0.39 0.0 0 0 26.1012 24.1080
  L 26.0589 30.1679
  A 0.39 0.39 0.0 0 0 26.4462 30.5606
  L 31.9861 30.5993
  A 0.39 0.39 0.0 0 0 32.3788 30.2120
  L 32.4211 24.1521
  Z
  M 39.7651 24.2555
  A 0.52 0.52 0.0 0 0 39.2460 23.7346
  L 34.0060 23.7254
  A 0.52 0.52 0.0 0 0 33.4851 24.2445
  L 33.4749 30.0645
  A 0.52 0.52 0.0 0 0 33.9940 30.5854
  L 39.2340 30.5946
  A 0.52 0.52 0.0 0 0 39.7549 30.0755
  L 39.7651 24.2555
  Z
  M 47.6250 24.3082
  A 0.60 0.60 0.0 0 0 47.0281 23.7051
  L 41.2882 23.6750
  A 0.60 0.60 0.0 0 0 40.6851 24.2719
  L 40.6550 30.0118
  A 0.60 0.60 0.0 0 0 41.2519 30.6149
  L 46.9918 30.6450
  A 0.60 0.60 0.0 0 0 47.5949 30.0481
  L 47.6250 24.3082
  Z"
/>
<path fill="#0101bf" d="
  M 46.80 16.91
  L 42.96 12.40
  Q 46.22 13.33 46.80 16.91
  Z"
/>
<path fill="#0000ff" d="
  M 22.09 23.72
  L 24.54 23.72
  A 0.78 0.78 0.0 0 1 25.32 24.50
  L 25.32 29.67
  A 0.94 0.94 0.0 0 1 24.38 30.61
  L 19.02 30.61
  A 0.64 0.64 0.0 0 1 18.38 29.97
  L 18.38 21.94
  A 0.85 0.85 0.0 0 1 19.23 21.09
  L 20.77 21.09
  A 0.61 0.61 0.0 0 1 21.36 21.87
  Q 21.19 22.47 21.23 22.94
  A 0.87 0.86 87.1 0 0 22.09 23.72
  Z"
/>
<path fill="#0101bf" d="
  M 17.23 22.02
  Q 15.21 31.31 18.31 41.40
  Q 22.17 53.95 35.54 52.41
  Q 41.28 51.75 44.41 47.40
  Q 45.86 45.40 47.68 41.48
  Q 46.82 47.49 42.82 51.59
  Q 38.21 56.31 29.56 55.84
  C 22.16 55.43 18.78 50.54 16.98 43.49
  Q 14.84 35.10 15.42 27.73
  Q 15.69 24.24 17.23 22.02
  Z"
/>
<rect fill="#0000ff" x="-3.16" y="-3.42" transform="translate(29.24,27.16) rotate(0.4)" width="6.32" height="6.84" rx="0.39"/>
<rect fill="#0000ff" x="-3.14" y="-3.43" transform="translate(36.62,27.16) rotate(0.1)" width="6.28" height="6.86" rx="0.52"/>
<rect fill="#0000ff" x="-3.47" y="-3.47" transform="translate(44.14,27.16) rotate(0.3)" width="6.94" height="6.94" rx="0.60"/>
</svg>
