<?xml version="1.0" encoding="utf-8"?>
<!-- Generator: Adobe Illustrator 28.0.0, SVG Export Plug-In . SVG Version: 6.00 Build 0)  -->
<svg version="1.1" id="Layer_1" xmlns="http://www.w3.org/2000/svg" xmlns:xlink="http://www.w3.org/1999/xlink" x="0px" y="0px"
	 viewBox="0 0 512 512" style="enable-background:new 0 0 512 512;" xml:space="preserve">
<style type="text/css">
	.st0{fill:#1E194D;}
	.st1{fill:url(#SVGID_1_);}
	.st2{opacity:0.5;}
	.st3{fill:#34A5DD;}
	.st4{fill-rule:evenodd;clip-rule:evenodd;fill:#646BB2;}
	.st5{fill:#DBECF8;enable-background:new    ;}
</style>
<g>
	<g>
		<g>
			<circle class="st0" cx="256" cy="256" r="212.5"/>
			<circle class="st0" cx="256" cy="256" r="256"/>

				<linearGradient id="SVGID_1_" gradientUnits="userSpaceOnUse" x1="37.07" y1="-6202.3701" x2="474.93" y2="-6202.3701" gradientTransform="matrix(1 0 0 1 0 6458.3701)">
				<stop  offset="0" style="stop-color:#34A5DD"/>
				<stop  offset="0.2" style="stop-color:#646BB2"/>
				<stop  offset="0.35" style="stop-color:#34A5DD"/>
				<stop  offset="0.45" style="stop-color:#FFFFFF"/>
				<stop  offset="0.56" style="stop-color:#34A5DD"/>
				<stop  offset="0.69" style="stop-color:#646BB2"/>
				<stop  offset="0.84" style="stop-color:#FFFFFF"/>
				<stop  offset="1" style="stop-color:#34A5DD"/>
			</linearGradient>
			<path class="st1" d="M256,474.9c-120.7,0-218.9-98.2-218.9-218.9S135.3,37.1,256,37.1S474.9,135.3,474.9,256
				S376.7,474.9,256,474.9z M256,42.4C138.2,42.4,42.4,138.2,42.4,256S138.2,469.6,256,469.6S469.6,373.8,469.6,256
				S373.8,42.4,256,42.4L256,42.4z M256,456.5c-110.6,0-200.5-89.9-200.5-200.5S145.4,55.5,256,55.5S456.5,145.4,456.5,256
				S366.6,456.5,256,456.5L256,456.5z M256,60.8C148.4,60.8,60.9,148.4,60.9,256S148.4,451.1,256,451.1S451.1,363.6,451.1,256
				S363.6,60.8,256,60.8L256,60.8z"/>
		</g>
		<g class="st2">
			<path d="M193.7,51.1c0,34.4,27.9,62.3,62.3,62.3s62.3-27.9,62.3-62.3c0-19.3-8.8-36.6-22.6-48C282.7,1.1,269.5,0,256,0
				s-26.7,1.1-39.6,3.1C202.5,14.5,193.7,31.8,193.7,51.1z"/>
		</g>
		<g>
			<circle class="st0" cx="256" cy="52.2" r="52.1"/>
			<circle class="st0" cx="256" cy="52.2" r="52.1"/>
			<circle class="st3" cx="256" cy="32" r="12.2"/>
			<path class="st4" d="M256,51.2c-12.5,0-22.6-10.1-22.6-22.5l0,0c0.5-6.1-4.7-6.1-6.1-4.5c-0.1,0.1-0.2,0.2-0.3,0.3
				c-4.8,6.2-7.7,14-7.7,22.5c0,7.5,7.1,12.2,14.5,12.2h44.3c7.5,0,14.5-4.8,14.5-12.2c0-8.5-2.9-16.3-7.7-22.5
				c-0.1-0.1-0.2-0.2-0.3-0.3c-1.4-1.6-6.6-1.6-6.1,4.5l0,0C278.6,41.1,268.5,51.2,256,51.2L256,51.2z"/>
			<path class="st3" d="M259.9,87.9l10.3-14.8c2.2-3.1-0.1-7.4-3.9-7.4h-20.6c-3.8,0-6,4.3-3.9,7.4l10.3,14.8
				C254,90.6,258,90.6,259.9,87.9z"/>
		</g>
	</g>
	<path class="st5" d="M265.7,137.4v64.3c34.4,4.4,34.1,32.1,34.1,32.1l-24.9,0.6c-1.4-7.8-7-14.8-19.3-14.8
		c-12.3,0-20.1,5.6-20.1,15.1s10.9,11.3,37.8,16.2c25.3,4.6,27.1,17.9,27.1,29.1c0,10.2-1.4,34.2-35.3,38.5V342h-19v-23.4
		c-37-4-37.5-36.5-37.5-36.5h25.5c0,12.3,9.5,17.9,22.4,17.9c12.9,0,19-7,19-16.5c0-9.5-14-10.4-37.8-15.4
		c-23.8-5-27.7-24.3-27.7-30.8c0-5.9,1.4-31.2,35-35.7v-64.2c-63.2,5.5-112.7,58.6-112.7,123.2c0,68.3,55.4,123.7,123.7,123.7
		S379.7,329,379.7,260.7C379.7,195.7,329.5,142.4,265.7,137.4z"/>
</g>
</svg>
