<svg width="64" height="64" viewBox="0 0 64 64" fill="none" xmlns="http://www.w3.org/2000/svg">
<circle cx="32" cy="32" r="32" fill="#FEF3C7"/>
<path d="M22.8671 46.9397H17.9592C17.1026 46.9397 16.3387 46.7479 15.621 46.3643C14.9033 45.9806 14.3477 45.4478 13.9078 44.7659L11.2918 40.5035C10.8751 39.8641 10.6667 39.1821 10.6667 38.4149C10.6667 37.6476 10.8751 36.987 11.2918 36.3476L13.9541 32.0213L11.2918 27.7162C10.8751 27.0769 10.6667 26.3736 10.6667 25.6277C10.6667 24.8817 10.8751 24.1784 11.2918 23.5391L13.9078 19.2767C14.3246 18.5947 14.9033 18.0619 15.621 17.6783C16.3387 17.2947 17.1258 17.0815 17.9592 17.0815H22.8671L25.46 12.8618C25.8767 12.1798 26.4555 11.647 27.1732 11.2634C27.8908 10.8797 28.678 10.6666 29.5114 10.6666H34.4888C35.3454 10.6666 36.1093 10.8584 36.827 11.2634C37.5447 11.647 38.1003 12.1798 38.5401 12.8618L41.1562 17.0815H46.0641C46.9207 17.0815 47.6847 17.2734 48.4023 17.6783C49.12 18.0619 49.6756 18.5947 50.1155 19.2767L52.7083 23.5391C53.1251 24.1784 53.3334 24.8604 53.3334 25.6277C53.3334 26.3949 53.1251 27.0769 52.7083 27.7162L50.046 32.0213L52.7083 36.3476C53.1251 36.987 53.3334 37.669 53.3334 38.4149C53.3334 39.1608 53.1251 39.8641 52.7083 40.5035L50.1155 44.7659C49.6988 45.4478 49.12 45.9806 48.4023 46.3643C47.6847 46.7479 46.8975 46.9397 46.0641 46.9397H41.1562L38.5401 51.1595C38.1234 51.8415 37.5447 52.3743 36.827 52.7579C36.1093 53.1415 35.3222 53.3333 34.4888 53.3333H29.5114C28.6548 53.3333 27.8908 53.1415 27.1732 52.7579C26.4555 52.3743 25.8999 51.8415 25.46 51.1595L22.8671 46.9397ZM41.1562 29.8901H46.1336L48.6801 25.6277L46.1336 21.3653H41.1562L38.5401 25.6277L41.1562 29.8901ZM29.5808 36.2837H34.4425L37.0354 32.0213L34.4425 27.7589H29.5808L26.988 32.0213L29.5808 36.2837ZM29.5808 23.4965H34.4425L37.1048 19.1701L34.5119 14.9717H29.5345L26.9417 19.1701L29.604 23.4965H29.5808ZM25.4832 25.6277L22.8903 21.3653H17.9824L15.3895 25.6277L17.9824 29.8901H22.8903L25.4832 25.6277ZM25.4832 38.4149L22.8903 34.1525H17.9129L15.3663 38.4149L17.9592 42.6773H22.8671L25.46 38.4149H25.4832ZM29.5808 40.5461L26.9185 44.8511L29.5114 49.0709H34.4888L37.0817 44.8511L34.4193 40.5461H29.5577H29.5808ZM41.1562 42.6773H46.0641L48.657 38.4149L46.0641 34.1525H41.1562L38.5401 38.4149L41.1562 42.6773Z" fill="#D97706"/>
</svg>
