<svg width="44" height="43" viewBox="0 0 44 43" fill="none" xmlns="http://www.w3.org/2000/svg">
<g clip-path="url(#clip0_2485_147)">
<path d="M43.2097 0.289062H0.839355V42.6594H43.2097V0.289062Z" fill="#F5F5F5"/>
<path d="M9.73515 26.3901V25.5141H9.71115C9.62315 25.8181 9.47115 26.0741 9.25515 26.2821C9.04715 26.4901 8.74315 26.5941 8.34315 26.5941C8.03115 26.5941 7.75115 26.5101 7.50315 26.3421C7.25515 26.1741 7.04715 25.9421 6.87915 25.6461C6.71115 25.3421 6.58315 24.9901 6.49515 24.5901C6.40715 24.1821 6.36315 23.7421 6.36315 23.2701C6.36315 22.8061 6.40315 22.3781 6.48315 21.9861C6.57115 21.5941 6.69915 21.2581 6.86715 20.9781C7.03515 20.6901 7.23915 20.4661 7.47915 20.3061C7.72715 20.1461 8.01515 20.0661 8.34315 20.0661C8.67915 20.0661 8.96315 20.1621 9.19515 20.3541C9.42715 20.5381 9.58715 20.7701 9.67515 21.0501H9.71115V17.3181H11.0431V26.3901H9.73515ZM9.75915 23.3301C9.75915 23.0341 9.73515 22.7621 9.68715 22.5141C9.64715 22.2581 9.58315 22.0381 9.49515 21.8541C9.41515 21.6621 9.30715 21.5141 9.17115 21.4101C9.04315 21.2981 8.89515 21.2421 8.72715 21.2421C8.55115 21.2421 8.39915 21.2981 8.27115 21.4101C8.14315 21.5141 8.03915 21.6621 7.95915 21.8541C7.87915 22.0381 7.81915 22.2581 7.77915 22.5141C7.73915 22.7621 7.71915 23.0341 7.71915 23.3301C7.71915 23.6181 7.73915 23.8901 7.77915 24.1461C7.81915 24.3941 7.87915 24.6141 7.95915 24.8061C8.03915 24.9901 8.14315 25.1381 8.27115 25.2501C8.39915 25.3541 8.55115 25.4061 8.72715 25.4061C8.90315 25.4061 9.05515 25.3541 9.18315 25.2501C9.31115 25.1381 9.41515 24.9901 9.49515 24.8061C9.58315 24.6141 9.64715 24.3941 9.68715 24.1461C9.73515 23.8901 9.75915 23.6181 9.75915 23.3301ZM12.6883 23.6781C12.6883 23.9181 12.7123 24.1461 12.7603 24.3621C12.8083 24.5701 12.8763 24.7541 12.9643 24.9141C13.0603 25.0661 13.1723 25.1901 13.3003 25.2861C13.4363 25.3741 13.5923 25.4181 13.7683 25.4181C14.0163 25.4181 14.2123 25.3381 14.3563 25.1781C14.5083 25.0181 14.6283 24.8341 14.7163 24.6261L15.7123 25.2021C15.5363 25.6261 15.2843 25.9661 14.9563 26.2221C14.6363 26.4701 14.2243 26.5941 13.7203 26.5941C13.0083 26.5941 12.4363 26.3141 12.0043 25.7541C11.5723 25.1941 11.3563 24.3901 11.3563 23.3421C11.3563 22.8541 11.4123 22.4101 11.5243 22.0101C11.6363 21.6021 11.7963 21.2541 12.0043 20.9661C12.2123 20.6781 12.4563 20.4581 12.7363 20.3061C13.0243 20.1461 13.3443 20.0661 13.6963 20.0661C14.0883 20.0661 14.4203 20.1461 14.6923 20.3061C14.9723 20.4661 15.1963 20.6861 15.3643 20.9661C15.5403 21.2381 15.6683 21.5621 15.7483 21.9381C15.8283 22.3141 15.8683 22.7221 15.8683 23.1621V23.6781H12.6883ZM14.5723 22.6941C14.5723 22.2381 14.5003 21.8701 14.3563 21.5901C14.2123 21.3021 13.9883 21.1581 13.6843 21.1581C13.5083 21.1581 13.3563 21.2101 13.2283 21.3141C13.1083 21.4181 13.0083 21.5501 12.9283 21.7101C12.8563 21.8621 12.8003 22.0301 12.7603 22.2141C12.7203 22.3901 12.7003 22.5501 12.7003 22.6941H14.5723ZM19.9872 23.9181C19.9872 24.7661 19.8072 25.4261 19.4472 25.8981C19.0952 26.3701 18.5392 26.6061 17.7792 26.6061C17.2272 26.6061 16.7712 26.4581 16.4112 26.1621C16.0512 25.8581 15.8112 25.4541 15.6912 24.9501L16.8912 24.4341C16.9392 24.6421 17.0312 24.8341 17.1672 25.0101C17.3112 25.1781 17.4992 25.2621 17.7312 25.2621C18.0592 25.2621 18.2792 25.1301 18.3912 24.8661C18.5032 24.6021 18.5592 24.2421 18.5592 23.7861V17.8941H19.9872V23.9181ZM24.9587 26.3901L24.5387 24.5901H22.3067L21.8747 26.3901H20.4347L22.5467 17.8941H24.3827L26.4587 26.3901H24.9587ZM23.4587 19.2501H23.4107L22.4867 23.4621H24.3587L23.4587 19.2501ZM30.7891 26.3901L30.3691 24.5901H28.1371L27.7051 26.3901H26.2651L28.3771 17.8941H30.2131L32.2891 26.3901H30.7891ZM29.2891 19.2501H29.2411L28.3171 23.4621H30.1891L29.2891 19.2501ZM36.6194 26.3901L36.1994 24.5901H33.9674L33.5354 26.3901H32.0954L34.2074 17.8941H36.0434L38.1194 26.3901H36.6194ZM35.1194 19.2501H35.0714L34.1474 23.4621H36.0194L35.1194 19.2501Z" fill="#252B34"/>
</g>
<defs>
<clipPath id="clip0_2485_147">
<rect x="0.839355" y="0.289062" width="42.3704" height="42.3704" rx="3.1339" fill="white"/>
</clipPath>
</defs>
</svg>
