<?xml version="1.0" encoding="UTF-8" standalone="no"?>
<!DOCTYPE svg PUBLIC "-//W3C//DTD SVG 1.1//EN" "http://www.w3.org/Graphics/SVG/1.1/DTD/svg11.dtd">
<svg xmlns="http://www.w3.org/2000/svg" version="1.1" viewBox="0 0 256 256" width="256.0pt" height="256.0pt">
<path d="M 0.00 0.00 L 46.50 0.00 C 46.03 1.57 45.13 2.87 44.38 4.31 C 43.11 5.43 41.55 6.17 40.22 7.23 C 38.93 8.78 38.06 11.16 36.28 12.16 C 29.64 16.00 24.34 22.72 19.60 28.59 C 17.61 30.66 14.67 31.69 12.71 33.75 C 11.85 35.95 11.22 37.77 9.34 39.33 C 6.10 41.93 3.19 44.88 0.00 47.53 L 0.00 0.00 Z" fill="#1441f7" />
<path d="M 46.50 0.00 L 86.59 0.00 C 82.55 6.99 75.66 10.51 70.77 16.80 C 68.82 19.55 65.79 21.09 63.83 23.85 C 60.66 28.01 56.33 30.86 53.35 35.18 C 50.64 37.28 47.93 39.08 45.84 41.89 C 42.31 45.06 39.33 48.76 35.63 51.71 C 33.45 53.47 31.60 55.64 29.54 57.55 C 25.39 61.52 22.52 66.32 17.90 69.84 C 14.63 72.34 12.50 75.74 9.53 78.53 C 6.40 81.43 3.29 84.66 0.00 87.39 L 0.00 47.53 C 3.19 44.88 6.10 41.93 9.34 39.33 C 11.22 37.77 11.85 35.95 12.71 33.75 C 14.67 31.69 17.61 30.66 19.60 28.59 C 24.34 22.72 29.64 16.00 36.28 12.16 C 38.06 11.16 38.93 8.78 40.22 7.23 C 41.55 6.17 43.11 5.43 44.38 4.31 C 45.13 2.87 46.03 1.57 46.50 0.00 Z" fill="#263ef0" />
<path d="M 86.59 0.00 L 104.73 0.00 C 98.25 6.10 92.23 12.67 85.85 18.86 C 82.74 21.46 80.63 24.90 77.61 27.58 C 76.17 28.78 75.18 30.51 74.00 31.97 C 71.67 33.93 68.57 35.35 66.74 37.74 C 65.65 39.34 64.78 41.07 63.63 42.63 C 61.25 44.94 58.29 46.60 55.89 48.90 C 53.53 50.96 51.77 53.42 49.69 55.71 C 47.26 58.39 44.19 60.02 41.84 62.81 C 37.07 68.90 30.87 73.96 25.28 79.27 C 22.45 81.97 21.48 85.47 18.15 87.22 C 15.29 88.89 13.65 91.95 11.01 94.02 C 6.96 97.15 3.82 101.11 0.00 104.48 L 0.00 87.39 C 3.29 84.66 6.40 81.43 9.53 78.53 C 12.50 75.74 14.63 72.34 17.90 69.84 C 22.52 66.32 25.39 61.52 29.54 57.55 C 31.60 55.64 33.45 53.47 35.63 51.71 C 39.33 48.76 42.31 45.06 45.84 41.89 C 47.93 39.08 50.64 37.28 53.35 35.18 C 56.33 30.86 60.66 28.01 63.83 23.85 C 65.79 21.09 68.82 19.55 70.77 16.80 C 75.66 10.51 82.55 6.99 86.59 0.00 Z" fill="#323cea" />
<path d="M 104.73 0.00 L 132.29 0.00 C 130.03 2.88 128.05 5.84 125.25 8.25 C 120.18 12.48 115.81 17.46 111.07 22.06 C 107.44 26.50 102.65 29.62 99.01 34.03 C 95.61 37.99 91.28 40.90 88.03 45.02 C 85.59 48.03 82.12 49.74 79.82 52.84 C 75.44 58.88 69.19 63.54 64.07 69.14 C 61.17 72.38 57.44 74.30 54.81 77.81 C 51.58 82.26 47.19 85.48 43.65 89.66 C 38.55 94.44 33.42 99.02 28.91 104.52 C 27.33 106.39 24.86 107.40 23.24 109.26 C 18.96 114.56 14.28 119.77 8.84 123.91 C 5.71 126.88 3.52 130.57 0.00 133.20 L 0.00 104.48 C 3.82 101.11 6.96 97.15 11.01 94.02 C 13.65 91.95 15.29 88.89 18.15 87.22 C 21.48 85.47 22.45 81.97 25.28 79.27 C 30.87 73.96 37.07 68.90 41.84 62.81 C 44.19 60.02 47.26 58.39 49.69 55.71 C 51.77 53.42 53.53 50.96 55.89 48.90 C 58.29 46.60 61.25 44.94 63.63 42.63 C 64.78 41.07 65.65 39.34 66.74 37.74 C 68.57 35.35 71.67 33.93 74.00 31.97 C 75.18 30.51 76.17 28.78 77.61 27.58 C 80.63 24.90 82.74 21.46 85.85 18.86 C 92.23 12.67 98.25 6.10 104.73 0.00 Z" fill="#3e3ae7" />
<path d="M 132.29 0.00 L 157.76 0.00 C 152.21 6.94 145.20 12.72 139.06 19.13 C 135.25 23.31 131.07 27.10 127.22 31.24 C 125.88 32.84 124.10 33.37 122.34 34.34 C 121.61 35.56 121.23 37.09 120.31 38.18 C 119.28 38.43 118.25 38.63 117.23 38.92 C 116.41 40.70 116.34 42.40 114.71 43.67 C 110.25 47.60 106.50 52.19 102.13 56.20 C 100.89 57.29 99.10 57.53 98.28 59.13 C 96.51 62.11 93.88 64.11 91.63 66.70 C 90.45 68.11 88.90 68.41 87.35 69.35 C 86.09 71.33 85.94 73.41 83.71 74.64 C 81.55 75.88 80.53 77.18 79.20 79.19 C 76.71 80.63 75.45 82.49 73.71 84.69 C 70.19 87.87 67.91 91.61 63.34 93.34 C 62.60 94.55 62.23 96.09 61.31 97.16 C 60.29 97.44 59.27 97.64 58.26 97.93 C 57.30 99.44 56.81 101.27 55.74 102.69 C 54.25 103.76 52.07 104.47 51.25 106.15 C 49.37 109.37 46.66 111.46 44.11 114.16 C 42.76 115.61 40.61 116.23 38.92 117.26 C 38.70 118.28 38.41 119.27 38.17 120.29 C 36.92 121.34 35.35 122.05 34.00 123.00 C 33.18 124.20 32.50 125.50 31.66 126.69 C 30.58 127.28 29.43 127.76 28.33 128.33 C 27.62 129.62 27.12 131.04 26.33 132.29 C 24.96 133.24 23.46 133.98 22.09 134.94 C 21.33 136.52 20.57 138.01 19.18 139.13 C 15.46 142.35 12.25 146.30 8.72 149.75 C 7.52 151.00 5.78 151.49 4.32 152.34 C 3.16 154.84 2.77 156.25 0.00 157.43 L 0.00 133.20 C 3.52 130.57 5.71 126.88 8.84 123.91 C 14.28 119.77 18.96 114.56 23.24 109.26 C 24.86 107.40 27.33 106.39 28.91 104.52 C 33.42 99.02 38.55 94.44 43.65 89.66 C 47.19 85.48 51.58 82.26 54.81 77.81 C 57.44 74.30 61.17 72.38 64.07 69.14 C 69.19 63.54 75.44 58.88 79.82 52.84 C 82.12 49.74 85.59 48.03 88.03 45.02 C 91.28 40.90 95.61 37.99 99.01 34.03 C 102.65 29.62 107.44 26.50 111.07 22.06 C 115.81 17.46 120.18 12.48 125.25 8.25 C 128.05 5.84 130.03 2.88 132.29 0.00 Z" fill="#4a38e1" />
<path d="M 157.76 0.00 L 205.29 0.00 C 202.75 3.19 200.08 5.43 196.79 7.79 C 195.01 10.33 193.33 12.01 190.79 13.79 C 187.85 18.30 183.14 20.66 179.70 24.73 C 174.99 29.94 169.09 34.34 165.19 40.19 C 163.16 42.09 160.73 42.74 159.23 45.19 C 157.47 48.17 155.11 50.28 152.41 52.38 C 149.03 55.03 146.38 58.36 143.15 61.16 C 141.70 62.24 141.67 64.09 140.08 65.05 C 137.92 66.36 136.89 68.36 135.37 70.28 C 133.33 71.27 130.93 71.71 128.99 72.87 C 128.61 73.70 128.22 74.54 127.84 75.38 C 118.14 79.71 108.34 88.43 105.33 98.87 C 101.40 99.12 96.97 99.05 93.17 100.28 C 76.62 105.71 63.78 121.67 61.88 138.94 C 61.42 143.04 61.52 147.21 61.63 151.33 C 60.33 149.44 60.04 146.49 57.16 146.96 C 55.23 148.26 54.15 150.83 52.67 152.65 C 48.12 156.16 43.92 159.90 40.78 164.77 C 39.18 166.17 37.16 167.08 35.52 168.44 C 35.42 169.46 35.36 170.51 35.17 171.52 C 33.58 172.31 31.27 172.61 30.19 174.08 C 28.15 176.45 26.02 178.52 23.71 180.61 C 19.95 185.34 15.07 188.67 11.58 193.68 C 7.66 197.11 3.68 200.47 0.00 204.20 L 0.00 157.43 C 2.77 156.25 3.16 154.84 4.32 152.34 C 5.78 151.49 7.52 151.00 8.72 149.75 C 12.25 146.30 15.46 142.35 19.18 139.13 C 20.57 138.01 21.33 136.52 22.09 134.94 C 23.46 133.98 24.96 133.24 26.33 132.29 C 27.12 131.04 27.62 129.62 28.33 128.33 C 29.43 127.76 30.58 127.28 31.66 126.69 C 32.50 125.50 33.18 124.20 34.00 123.00 C 35.35 122.05 36.92 121.34 38.17 120.29 C 38.41 119.27 38.70 118.28 38.92 117.26 C 40.61 116.23 42.76 115.61 44.11 114.16 C 46.66 111.46 49.37 109.37 51.25 106.15 C 52.07 104.47 54.25 103.76 55.74 102.69 C 56.81 101.27 57.30 99.44 58.26 97.93 C 59.27 97.64 60.29 97.44 61.31 97.16 C 62.23 96.09 62.60 94.55 63.34 93.34 C 67.91 91.61 70.19 87.87 73.71 84.69 C 75.45 82.49 76.71 80.63 79.20 79.19 C 80.53 77.18 81.55 75.88 83.71 74.64 C 85.94 73.41 86.09 71.33 87.35 69.35 C 88.90 68.41 90.45 68.11 91.63 66.70 C 93.88 64.11 96.51 62.11 98.28 59.13 C 99.10 57.53 100.89 57.29 102.13 56.20 C 106.50 52.19 110.25 47.60 114.71 43.67 C 116.34 42.40 116.41 40.70 117.23 38.92 C 118.25 38.63 119.28 38.43 120.31 38.18 C 121.23 37.09 121.61 35.56 122.34 34.34 C 124.10 33.37 125.88 32.84 127.22 31.24 C 131.07 27.10 135.25 23.31 139.06 19.13 C 145.20 12.72 152.21 6.94 157.76 0.00 Z" fill="#5a35db" />
<path d="M 205.29 0.00 L 228.71 0.00 C 225.28 3.51 221.54 6.63 218.32 10.31 C 216.15 12.85 213.34 14.66 211.29 17.26 C 209.06 20.50 205.52 22.10 203.17 25.28 C 198.05 29.12 194.58 34.46 189.72 38.61 C 186.93 40.93 185.26 44.16 182.37 46.40 C 178.86 49.28 175.54 52.15 172.83 55.82 C 167.28 61.49 161.03 66.86 156.38 73.33 C 146.72 70.36 137.11 71.90 127.84 75.38 C 128.22 74.54 128.61 73.70 128.99 72.87 C 130.93 71.71 133.33 71.27 135.37 70.28 C 136.89 68.36 137.92 66.36 140.08 65.05 C 141.67 64.09 141.70 62.24 143.15 61.16 C 146.38 58.36 149.03 55.03 152.41 52.38 C 155.11 50.28 157.47 48.17 159.23 45.19 C 160.73 42.74 163.16 42.09 165.19 40.19 C 169.09 34.34 174.99 29.94 179.70 24.73 C 183.14 20.66 187.85 18.30 190.79 13.79 C 193.33 12.01 195.01 10.33 196.79 7.79 C 200.08 5.43 202.75 3.19 205.29 0.00 Z" fill="#6b33d4" />
<path d="M 228.71 0.00 L 255.35 0.00 L 255.32 0.96 L 255.27 2.58 C 252.24 3.63 251.60 5.51 250.00 7.99 C 247.38 9.53 245.89 10.63 244.18 13.19 C 241.69 15.07 239.93 16.06 238.91 19.17 C 236.32 20.88 234.21 22.05 232.70 24.87 C 228.07 28.73 223.34 32.82 219.78 37.72 C 218.54 38.76 216.79 39.43 215.93 40.85 C 214.87 42.19 214.23 43.64 212.69 44.51 C 210.04 46.26 208.27 48.85 205.85 50.91 C 204.02 52.52 203.01 54.65 201.07 56.08 C 198.30 57.86 197.36 60.99 194.44 62.59 C 192.22 63.81 192.06 66.75 189.85 67.74 C 188.19 68.74 187.03 69.29 186.19 71.13 C 185.22 73.42 183.26 74.01 181.36 75.34 C 180.54 76.56 179.71 77.78 178.88 79.00 C 177.67 79.51 176.14 79.57 174.83 79.88 C 174.26 80.63 173.73 81.42 173.23 82.24 C 168.72 77.83 162.43 74.92 156.38 73.33 C 161.03 66.86 167.28 61.49 172.83 55.82 C 175.54 52.15 178.86 49.28 182.37 46.40 C 185.26 44.16 186.93 40.93 189.72 38.61 C 194.58 34.46 198.05 29.12 203.17 25.28 C 205.52 22.10 209.06 20.50 211.29 17.26 C 213.34 14.66 216.15 12.85 218.32 10.31 C 221.54 6.63 225.28 3.51 228.71 0.00 Z" fill="#7831cf" />
<path d="M 255.35 0.00 L 256.00 0.00 L 256.00 171.54 L 255.27 170.68 C 255.23 160.79 255.33 150.89 255.07 141.01 C 255.04 129.23 255.16 117.45 254.96 105.68 C 255.05 98.74 255.05 91.80 254.94 84.86 C 255.03 78.30 255.10 71.70 254.96 65.14 C 255.07 52.94 255.30 40.73 255.10 28.53 C 255.40 19.90 255.35 11.21 255.27 2.58 L 255.32 0.96 L 255.35 0.00 Z" fill="#b954cc" />
<path d="M 255.27 2.58 C 255.35 11.21 255.40 19.90 255.10 28.53 C 252.86 30.21 251.38 32.47 249.46 34.45 C 245.36 37.97 241.39 41.79 237.97 45.98 C 235.57 48.46 232.31 49.21 230.46 52.34 C 227.92 56.57 223.89 59.06 220.80 62.82 C 217.21 67.47 211.97 69.78 208.70 74.72 C 206.80 77.69 204.21 79.42 201.44 81.46 C 196.46 87.44 189.99 92.70 185.91 99.34 C 182.94 92.78 178.72 86.93 173.23 82.24 C 173.73 81.42 174.26 80.63 174.83 79.88 C 176.14 79.57 177.67 79.51 178.88 79.00 C 179.71 77.78 180.54 76.56 181.36 75.34 C 183.26 74.01 185.22 73.42 186.19 71.13 C 187.03 69.29 188.19 68.74 189.85 67.74 C 192.06 66.75 192.22 63.81 194.44 62.59 C 197.36 60.99 198.30 57.86 201.07 56.08 C 203.01 54.65 204.02 52.52 205.85 50.91 C 208.27 48.85 210.04 46.26 212.69 44.51 C 214.23 43.64 214.87 42.19 215.93 40.85 C 216.79 39.43 218.54 38.76 219.78 37.72 C 223.34 32.82 228.07 28.73 232.70 24.87 C 234.21 22.05 236.32 20.88 238.91 19.17 C 239.93 16.06 241.69 15.07 244.18 13.19 C 245.89 10.63 247.38 9.53 250.00 7.99 C 251.60 5.51 252.24 3.63 255.27 2.58 Z" fill="#842fca" />
<path d="M 255.10 28.53 C 255.30 40.73 255.07 52.94 254.96 65.14 C 254.02 64.56 253.10 63.94 252.14 63.39 C 250.93 65.43 250.51 67.20 248.12 68.18 C 245.87 69.15 245.34 71.13 243.99 72.99 C 242.34 74.27 240.45 74.69 239.51 76.69 C 239.09 78.69 237.35 78.83 235.84 79.98 C 233.33 81.10 234.02 84.17 231.32 85.25 C 228.87 86.51 228.09 88.48 226.66 90.66 C 223.49 92.36 222.35 93.49 220.66 96.66 C 218.75 98.01 216.77 98.55 215.80 100.87 C 214.57 103.97 211.00 103.72 209.80 106.87 C 208.57 109.97 205.00 109.72 203.80 112.86 C 202.93 115.12 201.20 115.26 199.32 116.33 C 198.28 117.63 197.48 119.11 196.44 120.41 C 195.09 120.84 193.69 121.11 192.32 121.50 C 192.42 123.93 192.84 125.99 191.38 128.14 C 190.59 123.49 192.18 117.77 189.68 113.77 C 189.75 108.86 187.64 103.98 185.91 99.34 C 189.99 92.70 196.46 87.44 201.44 81.46 C 204.21 79.42 206.80 77.69 208.70 74.72 C 211.97 69.78 217.21 67.47 220.80 62.82 C 223.89 59.06 227.92 56.57 230.46 52.34 C 232.31 49.21 235.57 48.46 237.97 45.98 C 241.39 41.79 245.36 37.97 249.46 34.45 C 251.38 32.47 252.86 30.21 255.10 28.53 Z" fill="#922cc5" />
<path d="M 252.14 63.39 C 253.10 63.94 254.02 64.56 254.96 65.14 C 255.10 71.70 255.03 78.30 254.94 84.86 C 248.84 93.11 240.28 99.80 233.40 107.41 C 223.43 117.09 213.72 127.04 203.84 136.81 C 200.68 139.72 198.56 143.19 194.50 144.97 C 193.95 146.32 193.62 147.75 193.09 149.11 C 192.04 149.99 190.87 150.55 189.68 151.21 C 190.14 148.10 190.54 145.15 189.83 142.02 C 189.84 137.33 189.71 132.64 189.79 127.96 C 190.58 123.18 190.11 118.51 189.68 113.77 C 192.18 117.77 190.59 123.49 191.38 128.14 C 192.84 125.99 192.42 123.93 192.32 121.50 C 193.69 121.11 195.09 120.84 196.44 120.41 C 197.48 119.11 198.28 117.63 199.32 116.33 C 201.20 115.26 202.93 115.12 203.80 112.86 C 205.00 109.72 208.57 109.97 209.80 106.87 C 211.00 103.72 214.57 103.97 215.80 100.87 C 216.77 98.55 218.75 98.01 220.66 96.66 C 222.35 93.49 223.49 92.36 226.66 90.66 C 228.09 88.48 228.87 86.51 231.32 85.25 C 234.02 84.17 233.33 81.10 235.84 79.98 C 237.35 78.83 239.09 78.69 239.51 76.69 C 240.45 74.69 242.34 74.27 243.99 72.99 C 245.34 71.13 245.87 69.15 248.12 68.18 C 250.51 67.20 250.93 65.43 252.14 63.39 Z" fill="#a02abf" />
<path d="M 156.38 73.33 C 162.43 74.92 168.72 77.83 173.23 82.24 C 178.72 86.93 182.94 92.78 185.91 99.34 C 187.64 103.98 189.75 108.86 189.68 113.77 C 190.11 118.51 190.58 123.18 189.79 127.96 C 189.71 132.64 189.84 137.33 189.83 142.02 C 190.54 145.15 190.14 148.10 189.68 151.21 C 189.58 154.61 187.72 158.00 185.50 160.49 C 180.07 164.74 174.01 168.37 168.38 172.37 C 163.82 175.29 159.66 178.74 154.94 181.10 C 152.86 181.89 150.14 181.41 147.96 181.16 C 145.66 179.70 143.51 178.33 142.04 175.95 C 139.85 172.23 140.41 168.76 140.42 164.64 C 140.18 162.13 140.36 159.66 140.30 157.15 C 140.33 150.93 139.85 144.69 139.16 138.51 C 138.25 134.91 137.15 131.25 135.52 127.91 C 130.98 118.51 121.83 112.49 111.93 110.01 C 110.84 123.93 111.79 138.05 111.23 152.01 C 110.35 156.58 108.46 160.80 104.54 163.54 C 95.87 169.20 87.39 175.09 78.89 180.99 C 77.51 181.78 75.72 182.00 74.19 182.46 C 69.13 182.90 64.93 180.01 62.58 175.67 C 61.41 172.48 61.78 169.34 61.69 166.00 C 61.71 161.11 61.63 156.22 61.63 151.33 C 61.52 147.21 61.42 143.04 61.88 138.94 C 63.78 121.67 76.62 105.71 93.17 100.28 C 96.97 99.05 101.40 99.12 105.33 98.87 C 108.34 88.43 118.14 79.71 127.84 75.38 C 137.11 71.90 146.72 70.36 156.38 73.33 Z" fill="#ffffff" />
<path d="M 148.80 82.71 C 148.67 83.64 148.48 84.55 148.25 85.44 C 150.21 86.12 152.19 86.75 154.10 87.54 C 151.72 88.06 148.38 87.74 146.67 89.67 C 144.72 91.22 144.18 93.32 143.08 95.42 C 142.04 95.97 140.96 96.43 139.91 96.94 C 138.88 98.22 138.13 99.74 137.07 100.99 C 135.68 101.93 134.11 102.67 132.80 103.71 C 132.23 104.92 131.73 106.16 131.31 107.43 C 126.72 103.96 121.65 101.95 116.29 100.01 C 119.96 93.15 126.20 87.29 133.53 84.52 C 138.05 82.44 143.92 82.48 148.80 82.71 Z" fill="#7032d1" />
<path d="M 148.80 82.71 C 155.60 83.53 162.21 86.48 167.48 90.85 C 166.02 91.97 164.56 92.87 163.40 94.33 C 159.41 99.41 154.35 103.28 150.18 108.19 C 147.45 111.33 144.25 114.75 140.41 116.48 C 137.77 112.63 135.17 110.05 131.31 107.43 C 131.73 106.16 132.23 104.92 132.80 103.71 C 134.11 102.67 135.68 101.93 137.07 100.99 C 138.13 99.74 138.88 98.22 139.91 96.94 C 140.96 96.43 142.04 95.97 143.08 95.42 C 144.18 93.32 144.72 91.22 146.67 89.67 C 148.38 87.74 151.72 88.06 154.10 87.54 C 152.19 86.75 150.21 86.12 148.25 85.44 C 148.48 84.55 148.67 83.64 148.80 82.71 Z" fill="#7a30cf" />
<path d="M 254.94 84.86 C 255.05 91.80 255.05 98.74 254.96 105.68 C 253.29 106.14 251.74 106.14 250.59 107.61 C 244.81 114.14 238.45 120.04 232.35 126.25 C 225.19 132.78 218.67 139.98 211.58 146.58 C 203.61 154.96 195.39 163.04 187.15 171.15 C 182.89 175.90 178.37 180.36 173.82 184.83 C 163.00 194.98 152.79 205.78 142.18 216.15 C 130.66 227.41 120.09 239.28 108.14 250.09 C 106.04 251.69 106.00 253.16 105.67 255.68 C 95.98 255.87 86.22 255.84 76.54 255.48 C 77.85 249.68 83.01 249.50 86.34 245.32 C 89.09 241.73 92.28 238.72 94.39 234.69 C 95.01 235.00 95.61 235.35 96.19 235.74 C 100.96 229.89 105.93 224.93 111.78 220.16 C 111.34 219.56 110.93 218.94 110.55 218.31 C 112.50 217.61 114.44 217.46 115.91 215.96 C 118.23 213.46 119.46 210.42 122.29 208.31 C 126.65 204.95 130.94 201.75 134.12 197.15 C 136.63 193.15 141.06 192.72 142.09 187.95 C 144.45 185.95 146.44 183.87 147.96 181.16 C 150.14 181.41 152.86 181.89 154.94 181.10 C 159.66 178.74 163.82 175.29 168.38 172.37 C 174.01 168.37 180.07 164.74 185.50 160.49 C 187.72 158.00 189.58 154.61 189.68 151.21 C 190.87 150.55 192.04 149.99 193.09 149.11 C 193.62 147.75 193.95 146.32 194.50 144.97 C 198.56 143.19 200.68 139.72 203.84 136.81 C 213.72 127.04 223.43 117.09 233.40 107.41 C 240.28 99.80 248.84 93.11 254.94 84.86 Z" fill="#a929bc" />
<path d="M 167.48 90.85 C 172.42 95.19 175.31 100.64 177.67 106.68 C 177.47 111.82 174.01 113.56 170.71 116.74 C 169.47 117.90 167.77 118.55 166.27 119.32 C 165.30 121.22 165.18 123.06 163.38 124.39 C 159.41 127.65 155.67 130.87 153.49 135.64 C 153.23 134.77 152.86 133.97 152.39 133.24 C 151.33 134.58 150.13 135.77 149.21 137.22 C 147.77 129.69 145.05 122.62 140.41 116.48 C 144.25 114.75 147.45 111.33 150.18 108.19 C 154.35 103.28 159.41 99.41 163.40 94.33 C 164.56 92.87 166.02 91.97 167.48 90.85 Z" fill="#852ec9" />
<path d="M 254.96 105.68 C 255.16 117.45 255.04 129.23 255.07 141.01 C 252.40 142.68 249.87 144.43 247.81 146.85 C 244.54 150.61 240.88 153.91 237.19 157.23 C 232.39 162.08 227.97 167.27 222.87 171.83 C 209.07 185.59 194.79 199.92 180.88 213.84 C 174.02 220.34 167.83 227.46 160.78 233.77 C 156.47 237.52 153.14 242.15 148.87 245.95 C 145.62 248.87 142.52 251.68 140.89 255.85 C 129.16 255.99 117.40 255.87 105.67 255.68 C 106.00 253.16 106.04 251.69 108.14 250.09 C 120.09 239.28 130.66 227.41 142.18 216.15 C 152.79 205.78 163.00 194.98 173.82 184.83 C 178.37 180.36 182.89 175.90 187.15 171.15 C 195.39 163.04 203.61 154.96 211.58 146.58 C 218.67 139.98 225.19 132.78 232.35 126.25 C 238.45 120.04 244.81 114.14 250.59 107.61 C 251.74 106.14 253.29 106.14 254.96 105.68 Z" fill="#b627b6" />
<path d="M 177.67 106.68 C 178.67 109.32 179.43 112.15 179.44 114.99 C 179.54 121.89 179.50 128.78 179.60 135.68 L 177.33 136.46 C 177.40 137.86 177.77 139.16 178.02 140.53 C 177.30 140.21 176.60 139.84 175.92 139.41 C 175.00 140.69 174.45 142.26 173.67 143.65 C 171.76 145.03 169.78 145.52 168.80 147.87 C 167.57 150.97 164.00 150.72 162.80 153.87 C 161.84 156.13 159.86 156.63 158.02 158.00 C 156.59 160.21 155.18 162.13 153.31 163.98 C 153.73 164.60 154.15 165.23 154.56 165.86 C 153.39 165.76 152.24 165.60 151.09 165.39 C 151.02 166.87 151.06 168.36 151.09 169.85 L 150.43 169.79 C 149.96 158.99 151.02 147.89 149.21 137.22 C 150.13 135.77 151.33 134.58 152.39 133.24 C 152.86 133.97 153.23 134.77 153.49 135.64 C 155.67 130.87 159.41 127.65 163.38 124.39 C 165.18 123.06 165.30 121.22 166.27 119.32 C 167.77 118.55 169.47 117.90 170.71 116.74 C 174.01 113.56 177.47 111.82 177.67 106.68 Z" fill="#932cc4" />
<path d="M 101.75 109.96 C 100.81 118.49 101.15 127.22 101.17 135.79 C 96.37 142.00 90.44 147.36 85.02 153.01 C 83.62 154.71 81.84 155.80 80.13 157.14 C 79.85 158.00 79.51 158.83 79.10 159.63 C 78.19 159.71 77.27 159.62 76.36 159.68 C 75.62 161.97 76.08 164.24 73.04 164.49 C 72.87 161.24 73.63 158.42 71.56 155.58 C 71.19 142.97 72.50 130.90 80.79 120.80 C 85.92 115.02 93.77 109.82 101.75 109.96 Z" fill="#6d32d3" />
<path d="M 111.93 110.01 C 121.83 112.49 130.98 118.51 135.52 127.91 C 130.96 134.24 124.27 139.17 119.06 145.03 C 116.75 147.73 113.90 149.70 111.23 152.01 C 111.79 138.05 110.84 123.93 111.93 110.01 Z" fill="#7b30ce" />
<path d="M 135.52 127.91 C 137.15 131.25 138.25 134.91 139.16 138.51 C 139.85 144.69 140.33 150.93 140.30 157.15 C 139.74 155.53 139.13 154.41 138.18 152.99 C 137.97 154.64 137.75 156.29 137.64 157.95 C 136.91 156.15 136.33 154.40 135.01 152.92 C 134.21 154.41 133.64 156.19 132.52 157.47 C 131.26 158.30 129.90 158.96 128.66 159.80 C 128.24 160.57 128.32 161.56 127.93 162.38 C 127.11 162.22 126.41 161.33 125.65 161.78 C 124.02 163.90 123.54 166.58 121.44 168.46 C 114.79 174.89 108.31 181.68 101.68 188.09 C 101.19 187.96 100.70 187.85 100.21 187.74 C 99.96 188.60 99.71 189.45 99.46 190.30 C 95.96 191.28 95.78 194.12 93.24 196.26 C 90.44 198.66 89.06 201.94 85.70 203.82 C 82.09 205.93 80.50 209.90 76.96 211.97 C 74.90 213.11 74.01 215.78 72.36 217.44 C 66.28 223.66 59.97 229.70 53.96 235.98 C 52.76 237.17 51.35 237.68 49.97 238.61 C 48.35 242.13 45.52 244.60 42.60 247.03 C 42.16 246.96 41.71 246.89 41.27 246.83 C 40.16 250.93 37.14 252.47 34.10 254.96 C 40.32 255.18 46.56 255.36 52.78 255.27 C 60.69 255.53 68.63 255.69 76.54 255.48 C 86.22 255.84 95.98 255.87 105.67 255.68 C 117.40 255.87 129.16 255.99 140.89 255.85 C 148.88 255.65 157.05 256.45 164.98 255.57 L 163.72 256.00 L 0.00 256.00 L 0.00 255.29 C 4.09 253.31 7.77 250.12 10.44 246.45 C 12.73 244.77 14.16 243.11 15.82 240.83 C 17.52 239.37 19.40 238.44 20.56 236.43 C 22.08 233.75 25.17 233.42 26.60 230.61 C 28.15 227.92 31.11 227.28 32.51 224.43 C 33.66 222.33 35.62 221.74 37.47 220.48 C 38.28 219.28 38.95 217.97 39.74 216.75 C 41.44 215.47 43.35 215.22 44.27 213.16 C 45.71 209.96 49.32 209.37 50.81 206.25 C 52.04 203.86 54.63 203.29 56.09 201.07 C 57.84 198.27 61.05 197.41 62.57 194.43 C 63.76 191.91 66.41 191.55 68.07 189.74 C 69.20 186.14 73.01 186.13 74.19 182.46 C 75.72 182.00 77.51 181.78 78.89 180.99 C 87.39 175.09 95.87 169.20 104.54 163.54 C 108.46 160.80 110.35 156.58 111.23 152.01 C 113.90 149.70 116.75 147.73 119.06 145.03 C 124.27 139.17 130.96 134.24 135.52 127.91 Z" fill="#862ec9" />
<path d="M 101.17 135.79 C 101.15 140.55 101.21 145.30 101.22 150.05 C 101.21 152.26 99.99 154.02 98.18 155.18 C 90.82 159.99 83.03 164.71 76.18 170.22 C 74.52 171.41 73.60 171.29 71.66 170.80 C 71.55 165.73 71.61 160.66 71.56 155.58 C 73.63 158.42 72.87 161.24 73.04 164.49 C 76.08 164.24 75.62 161.97 76.36 159.68 C 77.27 159.62 78.19 159.71 79.10 159.63 C 79.51 158.83 79.85 158.00 80.13 157.14 C 81.84 155.80 83.62 154.71 85.02 153.01 C 90.44 147.36 96.37 142.00 101.17 135.79 Z" fill="#7831cf" />
<path d="M 177.33 136.46 L 179.60 135.68 C 179.64 139.80 179.61 143.91 179.67 148.03 C 179.83 150.67 178.37 152.83 176.23 154.23 C 169.20 159.20 161.80 163.75 155.00 169.04 C 153.85 170.21 152.57 169.85 151.09 169.85 C 151.06 168.36 151.02 166.87 151.09 165.39 C 152.24 165.60 153.39 165.76 154.56 165.86 C 154.15 165.23 153.73 164.60 153.31 163.98 C 155.18 162.13 156.59 160.21 158.02 158.00 C 159.86 156.63 161.84 156.13 162.80 153.87 C 164.00 150.72 167.57 150.97 168.80 147.87 C 169.78 145.52 171.76 145.03 173.67 143.65 C 174.45 142.26 175.00 140.69 175.92 139.41 C 176.60 139.84 177.30 140.21 178.02 140.53 C 177.77 139.16 177.40 137.86 177.33 136.46 Z" fill="#9d2bc0" />
<path d="M 255.07 141.01 C 255.33 150.89 255.23 160.79 255.27 170.68 C 255.16 171.74 255.05 172.80 254.95 173.85 C 253.50 177.70 251.46 179.76 248.30 182.24 C 246.86 184.29 245.86 186.18 243.56 187.46 C 241.46 188.51 240.95 190.82 239.12 192.09 C 231.60 196.65 227.33 206.34 219.83 210.72 C 217.31 211.94 216.74 214.86 214.34 216.37 C 212.58 217.46 212.18 219.30 210.87 220.75 C 205.94 225.45 201.19 230.49 196.02 235.00 C 192.87 237.51 189.64 239.40 187.90 243.20 C 186.96 245.68 184.19 245.99 182.87 247.87 C 181.68 251.87 177.05 252.99 173.76 254.89 C 170.86 255.00 167.83 255.05 164.98 255.57 C 157.05 256.45 148.88 255.65 140.89 255.85 C 142.52 251.68 145.62 248.87 148.87 245.95 C 153.14 242.15 156.47 237.52 160.78 233.77 C 167.83 227.46 174.02 220.34 180.88 213.84 C 194.79 199.92 209.07 185.59 222.87 171.83 C 227.97 167.27 232.39 162.08 237.19 157.23 C 240.88 153.91 244.54 150.61 247.81 146.85 C 249.87 144.43 252.40 142.68 255.07 141.01 Z" fill="#c824af" />
<path d="M 57.16 146.96 C 60.04 146.49 60.33 149.44 61.63 151.33 C 61.63 156.22 61.71 161.11 61.69 166.00 C 61.78 169.34 61.41 172.48 62.58 175.67 C 61.75 175.27 60.62 173.89 59.65 174.70 C 56.42 176.69 53.85 178.53 51.71 181.72 C 48.69 183.90 47.27 187.26 44.13 189.20 C 41.73 190.64 41.68 193.70 38.87 194.81 C 35.42 196.10 35.43 200.05 32.30 201.44 C 29.97 202.00 29.92 204.76 28.18 206.05 C 26.40 207.16 24.48 208.02 22.70 209.12 C 23.13 209.79 23.31 210.46 23.23 211.12 C 21.00 212.57 18.98 213.29 17.76 215.85 C 16.47 218.39 13.41 218.66 12.25 221.14 C 11.28 222.80 10.67 223.96 8.87 224.82 C 6.45 225.92 5.71 228.14 4.04 230.02 C 2.77 230.82 1.35 231.42 0.00 232.06 L 0.00 204.20 C 3.68 200.47 7.66 197.11 11.58 193.68 C 15.07 188.67 19.95 185.34 23.71 180.61 C 26.02 178.52 28.15 176.45 30.19 174.08 C 31.27 172.61 33.58 172.31 35.17 171.52 C 35.36 170.51 35.42 169.46 35.52 168.44 C 37.16 167.08 39.18 166.17 40.78 164.77 C 43.92 159.90 48.12 156.16 52.67 152.65 C 54.15 150.83 55.23 148.26 57.16 146.96 Z" fill="#6c32d4" />
<path d="M 135.01 152.92 C 136.33 154.40 136.91 156.15 137.64 157.95 C 137.75 156.29 137.97 154.64 138.18 152.99 C 139.13 154.41 139.74 155.53 140.30 157.15 C 140.36 159.66 140.18 162.13 140.42 164.64 C 139.45 166.64 139.03 168.59 137.48 170.03 C 123.99 184.67 109.08 198.00 95.58 212.64 C 89.57 218.62 83.27 224.27 77.46 230.46 C 69.45 238.94 60.66 246.68 52.78 255.27 C 46.56 255.36 40.32 255.18 34.10 254.96 C 37.14 252.47 40.16 250.93 41.27 246.83 C 41.71 246.89 42.16 246.96 42.60 247.03 C 45.52 244.60 48.35 242.13 49.97 238.61 C 51.35 237.68 52.76 237.17 53.96 235.98 C 59.97 229.70 66.28 223.66 72.36 217.44 C 74.01 215.78 74.90 213.11 76.96 211.97 C 80.50 209.90 82.09 205.93 85.70 203.82 C 89.06 201.94 90.44 198.66 93.24 196.26 C 95.78 194.12 95.96 191.28 99.46 190.30 C 99.71 189.45 99.96 188.60 100.21 187.74 C 100.70 187.85 101.19 187.96 101.68 188.09 C 108.31 181.68 114.79 174.89 121.44 168.46 C 123.54 166.58 124.02 163.90 125.65 161.78 C 126.41 161.33 127.11 162.22 127.93 162.38 C 128.32 161.56 128.24 160.57 128.66 159.80 C 129.90 158.96 131.26 158.30 132.52 157.47 C 133.64 156.19 134.21 154.41 135.01 152.92 Z" fill="#922cc5" />
<path d="M 140.42 164.64 C 140.41 168.76 139.85 172.23 142.04 175.95 C 143.51 178.33 145.66 179.70 147.96 181.16 C 146.44 183.87 144.45 185.95 142.09 187.95 C 141.06 192.72 136.63 193.15 134.12 197.15 C 130.94 201.75 126.65 204.95 122.29 208.31 C 119.46 210.42 118.23 213.46 115.91 215.96 C 114.44 217.46 112.50 217.61 110.55 218.31 C 110.93 218.94 111.34 219.56 111.78 220.16 C 105.93 224.93 100.96 229.89 96.19 235.74 C 95.61 235.35 95.01 235.00 94.39 234.69 C 92.28 238.72 89.09 241.73 86.34 245.32 C 83.01 249.50 77.85 249.68 76.54 255.48 C 68.63 255.69 60.69 255.53 52.78 255.27 C 60.66 246.68 69.45 238.94 77.46 230.46 C 83.27 224.27 89.57 218.62 95.58 212.64 C 109.08 198.00 123.99 184.67 137.48 170.03 C 139.03 168.59 139.45 166.64 140.42 164.64 Z" fill="#9c2bc1" />
<path d="M 255.27 170.68 L 256.00 171.54 L 256.00 256.00 L 163.72 256.00 L 164.98 255.57 C 167.83 255.05 170.86 255.00 173.76 254.89 C 191.11 255.17 208.47 255.02 225.82 254.96 C 235.52 254.97 245.28 255.38 254.96 254.96 C 255.32 245.26 255.04 235.48 254.92 225.76 C 255.08 208.46 255.06 191.15 254.95 173.85 C 255.05 172.80 255.16 171.74 255.27 170.68 Z" fill="#ea4db6" />
<path d="M 59.65 174.70 C 60.62 173.89 61.75 175.27 62.58 175.67 C 64.93 180.01 69.13 182.90 74.19 182.46 C 73.01 186.13 69.20 186.14 68.07 189.74 C 66.41 191.55 63.76 191.91 62.57 194.43 C 61.05 197.41 57.84 198.27 56.09 201.07 C 54.63 203.29 52.04 203.86 50.81 206.25 C 49.32 209.37 45.71 209.96 44.27 213.16 C 43.35 215.22 41.44 215.47 39.74 216.75 C 38.95 217.97 38.28 219.28 37.47 220.48 C 35.62 221.74 33.66 222.33 32.51 224.43 C 31.11 227.28 28.15 227.92 26.60 230.61 C 25.17 233.42 22.08 233.75 20.56 236.43 C 19.40 238.44 17.52 239.37 15.82 240.83 C 14.16 243.11 12.73 244.77 10.44 246.45 C 7.77 250.12 4.09 253.31 0.00 255.29 L 0.00 232.06 C 1.35 231.42 2.77 230.82 4.04 230.02 C 5.71 228.14 6.45 225.92 8.87 224.82 C 10.67 223.96 11.28 222.80 12.25 221.14 C 13.41 218.66 16.47 218.39 17.76 215.85 C 18.98 213.29 21.00 212.57 23.23 211.12 C 23.31 210.46 23.13 209.79 22.70 209.12 C 24.48 208.02 26.40 207.16 28.18 206.05 C 29.92 204.76 29.97 202.00 32.30 201.44 C 35.43 200.05 35.42 196.10 38.87 194.81 C 41.68 193.70 41.73 190.64 44.13 189.20 C 47.27 187.26 48.69 183.90 51.71 181.72 C 53.85 178.53 56.42 176.69 59.65 174.70 Z" fill="#7930cf" />
<path d="M 254.95 173.85 C 255.06 191.15 255.08 208.46 254.92 225.76 C 251.18 231.43 246.06 235.57 241.41 240.43 C 235.81 245.27 232.10 251.05 225.82 254.96 C 208.47 255.02 191.11 255.17 173.76 254.89 C 177.05 252.99 181.68 251.87 182.87 247.87 C 184.19 245.99 186.96 245.68 187.90 243.20 C 189.64 239.40 192.87 237.51 196.02 235.00 C 201.19 230.49 205.94 225.45 210.87 220.75 C 212.18 219.30 212.58 217.46 214.34 216.37 C 216.74 214.86 217.31 211.94 219.83 210.72 C 227.33 206.34 231.60 196.65 239.12 192.09 C 240.95 190.82 241.46 188.51 243.56 187.46 C 245.86 186.18 246.86 184.29 248.30 182.24 C 251.46 179.76 253.50 177.70 254.95 173.85 Z" fill="#db21a8" />
<path d="M 254.92 225.76 C 255.04 235.48 255.32 245.26 254.96 254.96 C 245.28 255.38 235.52 254.97 225.82 254.96 C 232.10 251.05 235.81 245.27 241.41 240.43 C 246.06 235.57 251.18 231.43 254.92 225.76 Z" fill="#ed1ea1" />
</svg>