<svg width="32" height="32" viewBox="0 0 32 32" fill="none" xmlns="http://www.w3.org/2000/svg">
<circle cx="16" cy="16" r="16" fill="url(#paint0_linear)"/>
<path fill-rule="evenodd" clip-rule="evenodd" d="M30 16C30 14.1677 29.6354 12.3354 28.9343 10.6425C28.2332 8.9496 27.1952 7.39616 25.8994 6.1006C24.6038 4.80476 23.0504 3.7668 21.3575 3.06568C19.6646 2.36456 17.8323 2 16 2C14.1677 2 12.3354 2.36456 10.6425 3.06568C8.9496 3.7668 7.39616 4.80476 6.1006 6.1006C4.80476 7.39616 3.7668 8.9496 3.06568 10.6425C2.36456 12.3354 2 14.1677 2 16C2 17.8323 2.36456 19.6646 3.06568 21.3575C3.7668 23.0504 4.80476 24.6038 6.1006 25.8994C7.39616 27.1952 8.9496 28.2332 10.6425 28.9343C12.3354 29.6354 14.1677 30 16 30C17.8323 30 19.6646 29.6354 21.3575 28.9343C23.0504 28.2332 24.6038 27.1952 25.8994 25.8994C27.1952 24.6038 28.2332 23.0504 28.9343 21.3575C29.6354 19.6646 30 17.8323 30 16Z" fill="#0657F9"/>
<path fill-rule="evenodd" clip-rule="evenodd" d="M15.2765 9.67902H16.7235V22.3216H15.2765V9.67902Z" fill="white"/>
<path fill-rule="evenodd" clip-rule="evenodd" d="M14.4552 15.6262V14.1153C13.2946 13.5444 12.4955 12.3499 12.4955 10.969C12.4955 9.03415 14.0646 7.46503 16 7.46503C18.173 7.46503 19.7422 9.03415 19.7422 10.969C19.7422 11.4567 19.6419 11.9212 19.4014 12.4731L18.7834 10.4641L17.5447 10.8514L18.6432 15.0323L22.9076 13.4635L22.3893 12.2407L20.7989 12.785C21.0867 12.1609 21.1433 11.702 21.1433 10.969C21.1433 8.25967 18.947 6.06335 16 6.06335C13.2907 6.06335 11.0944 8.25967 11.0944 10.969C11.0944 13.1384 12.503 14.9788 14.4552 15.6262Z" fill="white"/>
<path fill-rule="evenodd" clip-rule="evenodd" d="M17.5448 16.3744V17.8853C18.7054 18.4565 19.5045 19.6507 19.5045 21.0316C19.5045 22.9664 17.9354 24.5355 16 24.5355C13.8269 24.5355 12.2578 22.9664 12.2578 21.0316C12.2578 20.5439 12.358 20.0793 12.5986 19.5275L13.2165 21.5365L14.4552 21.1492L13.3568 16.9683L9.09241 18.5374L9.61069 19.7599L11.2011 19.2155C10.9132 19.8397 10.8567 20.2986 10.8567 21.0316C10.8567 23.7409 13.053 25.9372 16 25.9372C18.7093 25.9372 20.9056 23.7409 20.9056 21.0316C20.9056 18.8622 19.4969 17.0217 17.5448 16.3744Z" fill="white"/>
<defs>
<linearGradient id="paint0_linear" x1="19.008" y1="-4.64" x2="-4.8" y2="15.392" gradientUnits="userSpaceOnUse">
<stop stop-color="#B6509E"/>
<stop offset="1" stop-color="#2EBAC6"/>
</linearGradient>
</defs>
</svg>
