<?xml version="1.0" encoding="UTF-8"?>
<svg version="1.1" xmlns="http://www.w3.org/2000/svg" width="720" height="721">
<path d="M0 0 C0.98532715 0.14453613 1.9706543 0.28907227 2.98583984 0.43798828 C36.57696899 5.43597636 69.29639823 15.52623377 100 30 C100.90621094 30.42361816 101.81242187 30.84723633 102.74609375 31.28369141 C127.98592314 43.18310743 151.56793306 58.11674934 173 76 C174.0003125 76.82757813 175.000625 77.65515625 176.03125 78.5078125 C247.08919056 137.68354777 294.63660261 223.38447992 303.18359375 315.98919678 C308.59010797 378.72165707 300.40512521 444.69583372 272.16259766 501.65429688 C270.8797399 504.24264155 269.63364054 506.84729063 268.38671875 509.453125 C255.06748696 536.98951432 237.90488448 563.58441098 217 586 C215.89049295 587.26617356 214.78615471 588.53689849 213.6875 589.8125 C199.54951419 605.98898608 199.54951419 605.98898608 192.1015625 612.2109375 C189.96903147 614.02636355 187.92616373 615.92266705 185.88427734 617.83886719 C178.92399409 624.34654063 171.60821372 630.26901371 164 636 C163.32195313 636.51320801 162.64390625 637.02641602 161.9453125 637.55517578 C150.43418741 646.21750824 138.49712548 653.84499542 126 661 C125.14986328 661.4935498 124.29972656 661.98709961 123.42382812 662.49560547 C43.8230202 708.51014324 -53.91177989 719.67869119 -142.62084961 696.93212891 C-196.62657265 682.3949325 -246.10455652 656.01992502 -288 619 C-289.41345703 617.75283203 -289.41345703 617.75283203 -290.85546875 616.48046875 C-302.56347799 605.9416804 -314.2548183 595.00017949 -323.98046875 582.578125 C-326.16118228 579.79423539 -328.44959825 577.12313649 -330.75 574.4375 C-369.63854148 527.57950394 -394.50925456 468.93909243 -404.3125 409.0625 C-404.53341309 407.71877319 -404.53341309 407.71877319 -404.75878906 406.34790039 C-407.4465442 388.6209908 -408.38302875 370.84716561 -408.3125 352.9375 C-408.30976578 351.47839203 -408.30976578 351.47839203 -408.30697632 349.98980713 C-408.03285646 262.52682024 -374.88415852 174.33302712 -313.93359375 110.84765625 C-312.81665539 109.74571035 -311.69350432 108.65000416 -310.5625 107.5625 C-308.82934402 105.82934402 -307.26793953 103.99811352 -305.6875 102.125 C-302.28658537 98.18630154 -298.55054402 94.76760689 -294.64453125 91.3359375 C-292.91057428 89.8043182 -291.19845792 88.24753193 -289.51171875 86.6640625 C-281.48385709 79.13565809 -272.82764892 72.5554125 -264 66 C-263.40848145 65.5565625 -262.81696289 65.113125 -262.20751953 64.65625 C-238.06064622 46.60778411 -211.1085874 31.85160407 -183 21 C-182.18917969 20.67870117 -181.37835938 20.35740234 -180.54296875 20.02636719 C-155.91945719 10.31502065 -130.1338843 4.0128208 -104 0 C-102.96987793 -0.16371094 -101.93975586 -0.32742188 -100.87841797 -0.49609375 C-68.09327586 -5.49310486 -32.74000089 -5.06310956 0 0 Z " fill="#FCFCFC" transform="translate(412,8)"/>
<path d="M0 0 C1.50675293 0.27287842 1.50675293 0.27287842 3.04394531 0.55126953 C29.57381289 5.44203095 55.84228551 13.97051534 80 26 C80.72558105 26.36077637 81.45116211 26.72155273 82.19873047 27.09326172 C113.09777723 42.59860697 139.91413762 62.82326225 164.375 87.125 C165.14111099 87.88293854 165.14111099 87.88293854 165.92269897 88.65618896 C172.75097163 95.43015003 179.0460587 102.42850512 185 110 C185.48629883 110.60666504 185.97259766 111.21333008 186.47363281 111.83837891 C196.81775577 124.77463653 205.73654798 138.6616076 214 153 C214.64453125 154.10988281 215.2890625 155.21976563 215.953125 156.36328125 C231.07070923 183.49504319 240.84867051 213.64573274 247 244 C247.21172852 245.02786621 247.42345703 246.05573242 247.64160156 247.11474609 C251.00133204 264.2727991 251.36638612 281.25699341 251.375 298.6875 C251.37799103 300.29236771 251.37799103 300.29236771 251.38104248 301.92965698 C251.37731965 319.57060492 249.88940288 336.60210607 247 354 C243.03028548 350.13320401 239.36508076 346.07338313 235.75 341.875 C235.17644775 341.21121338 234.60289551 340.54742676 234.01196289 339.86352539 C230.03186593 335.2409916 226.1475192 330.54913839 222.30859375 325.80859375 C219.58655815 322.49701407 216.79856861 319.2469 214 316 C209.68060414 310.98689941 205.44902564 305.9146229 201.27734375 300.77734375 C198.2637087 297.10205298 195.18587393 293.48325937 192.10766602 289.86206055 C188.23982994 285.30366155 184.44857902 280.68757417 180.6796875 276.046875 C179.16253021 274.12984433 179.16253021 274.12984433 178 273 C177.89056906 271.38415142 177.84412329 269.76395879 177.82421875 268.14453125 C177.32713326 244.02817816 172.07110302 229.44544826 155 212 C154.3301709 211.31502441 153.6603418 210.63004883 152.97021484 209.92431641 C150.75810672 207.67152812 148.53775116 205.42730479 146.3125 203.1875 C145.61205566 202.48222168 144.91161133 201.77694336 144.18994141 201.05029297 C143.16199463 200.02572998 143.16199463 200.02572998 142.11328125 198.98046875 C141.51298096 198.38129639 140.91268066 197.78212402 140.29418945 197.16479492 C138.41067384 195.38751143 136.49459734 193.71041335 134.52612305 192.03051758 C129.17395838 187.36950515 124.20990783 182.32175494 119.21290588 177.28807068 C117.43144752 175.49367665 115.64673362 173.70257591 113.86120605 171.91223145 C109.4301657 167.46792631 105.0046276 163.01815537 100.57891846 158.56854248 C96.82744349 154.79723298 93.07385531 151.02805022 89.31752014 147.26158142 C87.5718529 145.50950204 85.82926048 143.75440523 84.08679199 141.99914551 C79.06228157 136.95177469 74.01227201 131.99657586 68.59069824 127.37030029 C66.62127276 125.67374701 64.79923489 123.8672272 63 121.9921875 C62.34 121.31542969 61.68 120.63867188 61 119.94140625 C59.66275716 118.55976277 58.3294361 117.17431311 57 115.78515625 C50.10789838 108.74498213 43.82823724 103.96105215 33.75 103.6875 C27.15052822 103.78403483 22.82820814 105.32270415 18.0234375 109.87109375 C11.82185402 116.62137701 11.05334212 120.51992094 10 130 C-40.49 130.495 -40.49 130.495 -92 131 C-95.96 123.08 -95.96 123.08 -100 115 C-102.288714 111.78776983 -104.4393458 108.93408294 -107 106 C-107.7425 105.02740234 -107.7425 105.02740234 -108.5 104.03515625 C-120.00192289 89.5139786 -139.97060115 79.62280682 -158 77 C-186.32157694 75.3364544 -208.31255841 80.50279027 -230 99 C-231.01126953 99.84111328 -231.01126953 99.84111328 -232.04296875 100.69921875 C-246.69072811 114.00622211 -255.32661562 136.34171801 -256.27734375 155.671875 C-256.56237307 165.51672865 -255.61219322 174.46860449 -253 184 C-254.34578125 184.03867187 -254.34578125 184.03867187 -255.71875 184.078125 C-276.371971 185.01690777 -294.37068476 191.08964498 -310 205 C-310.77235741 205.61686172 -310.77235741 205.61686172 -311.56031799 206.2461853 C-316.07124191 209.90626473 -319.34131657 213.7982968 -322.5859375 218.59375 C-323.09184418 219.32573608 -323.59775085 220.05772217 -324.11898804 220.81188965 C-331.01872348 230.84494708 -337.70418639 241.02604899 -344.39990234 251.19580078 C-346.10900188 253.78942186 -347.82365845 256.37929604 -349.5390625 258.96875 C-350.32018906 260.16062927 -350.32018906 260.16062927 -351.11709595 261.37658691 C-351.59875214 262.10244995 -352.08040833 262.82831299 -352.57666016 263.57617188 C-352.99791168 264.21550659 -353.41916321 264.85484131 -353.85317993 265.5135498 C-355 267 -355 267 -357 268 C-355.71346746 195.01851762 -311.65299662 125.1820482 -260.97851562 75.88085938 C-256.86608754 71.97141392 -252.48195628 68.47759633 -248 65 C-246.83872009 64.05244429 -245.68003411 63.10170405 -244.5234375 62.1484375 C-236.03317902 55.18041672 -227.29190935 48.85507537 -218 43 C-217.1037793 42.43418213 -217.1037793 42.43418213 -216.18945312 41.85693359 C-152.40738731 1.91523277 -74.22049153 -14.09147242 0 0 Z " fill="#000000" transform="translate(414,60)"/>
<path d="M0 0 C8.849121 1.73992513 17.37297627 4.49451411 25.96875 7.1796875 C27.66281787 7.7060315 29.35698851 8.23204483 31.05125427 8.75775146 C34.6593429 9.8778923 38.26677105 11.00012759 41.87374878 12.12384033 C47.53187881 13.88598673 53.19262105 15.63963761 58.85375977 17.39208984 C75.21619553 22.45944306 91.57453308 27.53831732 107.90670776 32.70248413 C113.15230538 34.36079022 118.40154914 36.00739853 123.65192986 37.65049171 C127.78418963 38.94482169 131.91092669 40.25508203 136.03414822 41.57790375 C139.17312801 42.57969472 142.31950967 43.55741146 145.46484375 44.5390625 C146.55292831 44.89401794 147.64101288 45.24897339 148.7620697 45.61468506 C157.95911629 48.44283397 167.44841514 49.99003888 176.4375 45.8125 C180.33753977 43.58572362 183.70092636 41.03862046 187 38 C186.4241621 44.81904922 185.46564413 51.47006492 184.171875 58.1875 C183.78688061 60.23143288 183.40195592 62.27537889 183.01708984 64.31933594 C182.8115448 65.40243042 182.60599976 66.4855249 182.39422607 67.60144043 C177.99429589 90.81289588 173.85173241 114.06441733 169.79543304 137.33784866 C166.06335347 158.74991616 162.30708264 180.14925886 158.1534729 201.48452759 C155.25366711 216.38472978 152.66050081 231.32940892 150.16845703 246.30297852 C150.02940445 247.1344339 149.89035187 247.96588928 149.74708557 248.82254028 C149.48790148 250.37487249 149.23088463 251.9275687 148.97642517 253.48068237 C148.48585266 256.42118592 147.94469759 259.16590723 147 262 C69.31344415 272.93077168 -11.61934949 250.12925224 -74.02587891 203.28222656 C-88.9535124 191.89620261 -104.40525145 179.36128802 -116.421875 164.88671875 C-118.24787082 162.70365939 -120.18535392 160.64517753 -122.125 158.5625 C-148.66307278 129.01078167 -148.66307278 129.01078167 -154 113 C-153.42894531 112.92072266 -152.85789062 112.84144531 -152.26953125 112.75976562 C-124.18179234 108.71852497 -97.22418354 99.59262536 -74 83 C-73.45102051 82.61183105 -72.90204102 82.22366211 -72.33642578 81.82373047 C-58.32057024 71.76807879 -45.65197879 59.19068892 -35.046875 45.60546875 C-33.15786868 43.20095116 -31.18906972 40.88749599 -29.18261719 38.58081055 C-21.57146268 29.79923082 -14.81055525 20.40645948 -8 11 C-7.11123717 9.77953985 -6.22197309 8.55944445 -5.33203125 7.33984375 C-3.55053341 4.89619627 -1.7727868 2.44996934 0 0 Z " fill="#000000" transform="translate(251,401)"/>
<path d="M0 0 C0.98532715 0.14453613 1.9706543 0.28907227 2.98583984 0.43798828 C36.57696899 5.43597636 69.29639823 15.52623377 100 30 C100.90621094 30.42361816 101.81242187 30.84723633 102.74609375 31.28369141 C127.98592314 43.18310743 151.56793306 58.11674934 173 76 C174.0003125 76.82757813 175.000625 77.65515625 176.03125 78.5078125 C247.08919056 137.68354777 294.63660261 223.38447992 303.18359375 315.98919678 C308.59010797 378.72165707 300.40512521 444.69583372 272.16259766 501.65429688 C270.8797399 504.24264155 269.63364054 506.84729063 268.38671875 509.453125 C255.06748696 536.98951432 237.90488448 563.58441098 217 586 C215.89049295 587.26617356 214.78615471 588.53689849 213.6875 589.8125 C199.54951419 605.98898608 199.54951419 605.98898608 192.1015625 612.2109375 C189.96903147 614.02636355 187.92616373 615.92266705 185.88427734 617.83886719 C178.92399409 624.34654063 171.60821372 630.26901371 164 636 C163.32195313 636.51320801 162.64390625 637.02641602 161.9453125 637.55517578 C150.43418741 646.21750824 138.49712548 653.84499542 126 661 C125.14986328 661.4935498 124.29972656 661.98709961 123.42382812 662.49560547 C43.8230202 708.51014324 -53.91177989 719.67869119 -142.62084961 696.93212891 C-196.62657265 682.3949325 -246.10455652 656.01992502 -288 619 C-289.41345703 617.75283203 -289.41345703 617.75283203 -290.85546875 616.48046875 C-302.56347799 605.9416804 -314.2548183 595.00017949 -323.98046875 582.578125 C-326.16118228 579.79423539 -328.44959825 577.12313649 -330.75 574.4375 C-369.63854148 527.57950394 -394.50925456 468.93909243 -404.3125 409.0625 C-404.53341309 407.71877319 -404.53341309 407.71877319 -404.75878906 406.34790039 C-407.4465442 388.6209908 -408.38302875 370.84716561 -408.3125 352.9375 C-408.30976578 351.47839203 -408.30976578 351.47839203 -408.30697632 349.98980713 C-408.03285646 262.52682024 -374.88415852 174.33302712 -313.93359375 110.84765625 C-312.81665539 109.74571035 -311.69350432 108.65000416 -310.5625 107.5625 C-308.82934402 105.82934402 -307.26793953 103.99811352 -305.6875 102.125 C-302.28658537 98.18630154 -298.55054402 94.76760689 -294.64453125 91.3359375 C-292.91057428 89.8043182 -291.19845792 88.24753193 -289.51171875 86.6640625 C-281.48385709 79.13565809 -272.82764892 72.5554125 -264 66 C-263.40848145 65.5565625 -262.81696289 65.113125 -262.20751953 64.65625 C-238.06064622 46.60778411 -211.1085874 31.85160407 -183 21 C-182.18917969 20.67870117 -181.37835938 20.35740234 -180.54296875 20.02636719 C-155.91945719 10.31502065 -130.1338843 4.0128208 -104 0 C-102.96987793 -0.16371094 -101.93975586 -0.32742188 -100.87841797 -0.49609375 C-68.09327586 -5.49310486 -32.74000089 -5.06310956 0 0 Z M-110 27 C-111.25506348 27.23605957 -112.51012695 27.47211914 -113.80322266 27.71533203 C-163.6910108 37.39337573 -210.60925156 58.12539648 -251 89 C-251.59119629 89.44698242 -252.18239258 89.89396484 -252.79150391 90.35449219 C-261.05138836 96.61191215 -268.77403178 103.27085128 -276.29199219 110.39794922 C-278.08492681 112.07965834 -279.90240583 113.73114431 -281.7265625 115.37890625 C-289.6075342 122.53364163 -296.78711106 129.95443522 -303.51855469 138.19921875 C-305.01399139 140.01700733 -306.53869979 141.80638596 -308.0703125 143.59375 C-326.3366835 165.15558574 -341.47054273 189.93502622 -352.96948242 215.73217773 C-353.74865276 217.44686933 -354.55270758 219.15028259 -355.3684082 220.84790039 C-359.34504485 229.19570413 -362.54399567 237.67254573 -365.4375 246.4375 C-365.67267334 247.14532623 -365.90784668 247.85315247 -366.15014648 248.58242798 C-375.84321131 277.92473631 -381.99252655 308.2606151 -382.23828125 339.23828125 C-382.2480751 340.26962692 -382.25786896 341.3009726 -382.26795959 342.36357117 C-382.44050089 365.24392157 -382.22337325 387.45565329 -378 410 C-377.70246826 411.66434082 -377.70246826 411.66434082 -377.39892578 413.36230469 C-372.35260134 440.89428005 -362.95033246 467.73207503 -351 493 C-350.41532959 494.25562744 -350.41532959 494.25562744 -349.81884766 495.53662109 C-340.7249946 514.94566381 -329.70979037 533.36561826 -316.42041016 550.19433594 C-315.0050736 551.9935503 -313.61541047 553.81013291 -312.23046875 555.6328125 C-297.5701401 574.81227391 -280.20867576 593.38470323 -261 608 C-259.64395691 609.08098364 -258.28997646 610.16455728 -256.9375 611.25 C-235.87767393 628.05380936 -212.85255906 641.85341639 -188.3034668 652.95458984 C-186.67266099 653.69471814 -185.04698278 654.44619314 -183.42504883 655.20556641 C-138.01317171 676.3150731 -89.13615007 682.56217944 -39.59228516 682.03710938 C-37.48785651 682.01537 -35.38334464 681.99867219 -33.27880859 681.99414062 C-21.65091587 681.94473382 -10.3194984 680.0776019 1.125 678.1875 C1.88268677 678.06284363 2.64037354 677.93818726 3.42102051 677.80975342 C20.41742973 674.98162537 36.78007525 671.09292554 53.0625 665.4375 C54.1942868 665.04741257 54.1942868 665.04741257 55.34893799 664.64944458 C68.98113486 659.93113104 82.09559084 654.46735881 95 648 C95.90347168 647.55301758 96.80694336 647.10603516 97.73779297 646.64550781 C116.49332084 637.31643773 133.80239291 626.43458182 150.21240234 613.41748047 C151.76517127 612.18620809 153.32891008 610.96879447 154.89453125 609.75390625 C160.2905063 605.5305998 165.36767557 601.01728206 170.40625 596.375 C172.61413423 594.35332288 174.85240942 592.38543478 177.125 590.4375 C184.3266554 584.16366524 190.81722421 577.26570597 197 570 C197.78761719 569.10152344 198.57523438 568.20304688 199.38671875 567.27734375 C225.39129637 537.41089229 244.70704082 502.8297194 259 466 C259.2877832 465.27828613 259.57556641 464.55657227 259.87207031 463.81298828 C270.45093882 437.14406515 274.70261942 409.3258613 277.77224731 380.98545837 C278.00248699 378.9783194 278.27258757 376.97896365 278.54418945 374.97705078 C279.04055445 371.0358736 279.17727914 367.11411855 279.203125 363.14453125 C279.21018463 362.41361771 279.21724426 361.68270416 279.22451782 360.92964172 C279.50600051 323.02072314 274.91015975 286.1156965 263 250 C262.69868164 249.08492676 262.39736328 248.16985352 262.08691406 247.22705078 C249.92884193 210.93938682 231.28557831 176.61951565 207 147 C206.57444824 146.47970215 206.14889648 145.9594043 205.71044922 145.42333984 C193.32535168 130.34720397 180.02457036 115.49178682 165 103 C164.46842285 102.55462891 163.9368457 102.10925781 163.38916016 101.65039062 C107.02106048 54.55766861 35.11188474 23.34802113 -39.140625 22.76171875 C-40.68949402 22.74695999 -40.68949402 22.74695999 -42.26965332 22.73190308 C-65.15587081 22.55883458 -87.44928908 22.68796976 -110 27 Z " fill="#010101" transform="translate(412,8)"/>
<path d="M0 0 C6.92594477 4.74260681 12.64945946 10.44846029 18.5 16.4375 C20.29960736 18.27196346 22.10165106 20.10404039 23.90625 21.93359375 C24.69322266 22.73853271 25.48019531 23.54347168 26.29101562 24.37280273 C28.37573066 26.39457802 30.47531738 28.29213871 32.67474365 30.1816864 C36.91133752 33.87733344 40.92639187 37.75831507 44.91308594 41.72021484 C45.65885391 42.45780533 46.40462189 43.19539581 47.17298889 43.95533752 C49.61311573 46.37086881 52.04928049 48.79033367 54.484375 51.2109375 C55.74014217 52.45871916 55.74014217 52.45871916 57.02127838 53.73170853 C61.44464545 58.12846743 65.86441226 62.52881298 70.28173828 66.93164062 C73.92748599 70.56401453 77.58037545 74.18896866 81.23974609 77.80761719 C85.67565134 82.19417945 90.09913199 86.59291305 94.51398468 91.00065994 C96.19221093 92.67218574 97.87467936 94.33946395 99.56151581 96.00230026 C101.92112485 98.33021488 104.26439107 100.67349408 106.60449219 103.02099609 C107.64407829 104.0359742 107.64407829 104.0359742 108.70466614 105.07145691 C114.04292324 110.47890116 117.63779674 116.03112715 118.33959961 123.72119141 C118.27780518 124.91921387 118.21601074 126.11723633 118.15234375 127.3515625 C118.11249496 128.70406991 118.07682989 130.05670579 118.04492188 131.40942383 C118.02486084 132.09920319 118.0047998 132.78898254 117.98413086 133.49966431 C117.51712133 147.1123269 117.51712133 147.1123269 123.25439453 159.03686523 C125.52711234 161.34868015 127.87207276 163.51369806 130.36669922 165.58398438 C132.76083772 167.65962015 134.62484103 170.0645971 136.5625 172.5625 C139.97137147 176.77198715 143.46403364 180.89757094 147 185 C151.31939586 190.01310059 155.55097436 195.0853771 159.72265625 200.22265625 C162.28204054 203.34396367 164.88593791 206.4245003 167.5 209.5 C171.62174648 214.35032725 175.67275146 219.25183171 179.6875 224.19140625 C181.79344883 226.74913802 183.93325116 229.27177335 186.08837891 231.7878418 C203.0992725 251.66722748 203.0992725 251.66722748 203.3125 258.1875 C203.34988281 258.92355469 203.38726563 259.65960938 203.42578125 260.41796875 C200.46231601 278.38907449 171.97516509 301.09120621 157.88006592 312.03826904 C148.84424604 318.19293636 139.31783428 318.82963455 128.74916077 317.28089905 C112.10008391 314.08698467 96.92376119 305.2421722 82.53759766 296.66210938 C74.8716954 292.11268876 66.92174931 288.08110725 59 284 C58.22057037 283.59783264 57.44114075 283.19566528 56.63809204 282.78131104 C51.09829428 279.92532492 45.54989657 277.08629729 40 274.25 C36.5932956 272.50739721 33.18709003 270.76382276 29.78125 269.01953125 C28.94702515 268.59229263 28.11280029 268.16505402 27.2532959 267.72486877 C22.06650766 265.06605668 16.88822416 262.39153215 11.71875 259.69921875 C10.77914429 259.21012527 10.77914429 259.21012527 9.82055664 258.71115112 C6.95656995 257.21961039 4.0943325 255.72483997 1.234375 254.22558594 C0.23921875 253.70641602 -0.7559375 253.18724609 -1.78125 252.65234375 C-2.62751953 252.20882568 -3.47378906 251.76530762 -4.34570312 251.30834961 C-11.14783053 247.95546139 -18.01446105 245.66038524 -25.265625 243.4765625 C-26.3926886 243.13348053 -27.5197522 242.79039856 -28.68096924 242.43692017 C-31.14647793 241.68647463 -33.61246175 240.93758872 -36.07885742 240.19006348 C-40.09699389 238.97178295 -44.11223597 237.74414346 -48.12695312 236.51464844 C-49.53535854 236.08338041 -50.94376513 235.65211621 -52.35217285 235.22085571 C-53.41586845 234.89514524 -53.41586845 234.89514524 -54.50105286 234.56285477 C-58.18518968 233.43526165 -61.86993544 232.30966275 -65.5546875 231.18408203 C-71.01154722 229.51714798 -76.46829652 227.84985433 -81.92482758 226.18184471 C-96.63806175 221.6843496 -111.35192372 217.18926494 -126.078125 212.734375 C-144.80547255 207.06676142 -163.50748246 201.40278564 -182 195 C-178.52596024 190.35472094 -175.03799262 185.72189886 -171.5 181.125 C-171.08548584 180.58166016 -170.67097168 180.03832031 -170.24389648 179.47851562 C-167.76118479 176.2363065 -165.22818228 173.04813981 -162.62890625 169.8984375 C-152.36006516 157.32449093 -143.3076112 143.78114572 -138.92529297 127.98803711 C-136.77557705 120.35611735 -134.29689677 116.48202411 -127.375 112.375 C-125.28022006 111.21391548 -123.17045594 110.10673188 -121.02880859 109.03466797 C-117.98759184 107.48368402 -115.1077213 105.70528318 -112.1875 103.9375 C-105.03524761 99.74480032 -99.10974667 99.26499288 -90.921875 100.25 C-82.16343943 102.60520957 -75.35009693 112.27823313 -69.6015625 118.890625 C-65.98456813 123.0495988 -62.22968344 127.06350438 -58.4375 131.0625 C-57.02448973 132.55835778 -55.61173415 134.05445617 -54.19921875 135.55078125 C-53.49587402 136.29537598 -52.7925293 137.0399707 -52.06787109 137.80712891 C-44.16981627 146.18261042 -36.33800306 154.62007016 -28.53808594 163.08691406 C-24.70892726 167.24044886 -20.85755946 171.37284315 -17 175.5 C-12.61144783 180.19593092 -8.23325294 184.90092925 -3.875 189.625 C-3.39063477 190.14916504 -2.90626953 190.67333008 -2.40722656 191.21337891 C0.11838234 193.94903344 2.63252741 196.6942965 5.1328125 199.453125 C10.48213084 205.33887686 15.88166307 210.90497647 22 216 C22.9796875 216.86753906 23.959375 217.73507812 24.96875 218.62890625 C31.14092433 224.08368248 37.4704291 229.21899762 44.16015625 234.02734375 C44.93354843 234.5841835 45.70694061 235.14102325 46.50376892 235.71473694 C55.84682793 242.3883838 65.45193723 248.65876082 75.0625 254.9375 C78.92435991 257.46955297 82.78434974 260.00445176 86.64453125 262.5390625 C87.60040131 263.16611588 88.55627136 263.79316925 89.54110718 264.43922424 C98.80640412 270.52026251 108.03389386 276.65724438 117.25 282.8125 C117.9629422 283.28847626 118.6758844 283.76445251 119.41043091 284.25485229 C123.27473162 286.83490885 127.1379683 289.41654834 131 292 C131 289.70565303 128.22912737 288.10841798 126.68463135 286.56021118 C126.04878113 285.92795624 125.41293091 285.29570129 124.7578125 284.64428711 C123.7629483 283.64920387 123.7629483 283.64920387 122.74798584 282.63401794 C120.54268443 280.42941637 118.33385589 278.22838352 116.125 276.02734375 C114.60020595 274.50441363 113.0756317 272.9812634 111.55126953 271.457901 C107.52897367 267.43943229 103.50368436 263.42397495 99.4777832 259.40911865 C95.37401616 255.3155615 91.2730612 251.21918938 87.171875 247.12304688 C79.117347 239.07925968 71.05965668 231.03864815 63 223 C63.66 222.67 64.32 222.34 65 222 C65.66 222.33 66.32 222.66 67 223 C76.70474227 224.47753862 84.14678611 221.32393708 92.62841797 217.16064453 C95.30437385 215.85104043 97.99639351 214.57850211 100.69140625 213.30859375 C105.80516181 210.89482241 110.90617739 208.45552563 116 206 C116 202.84959073 113.9814431 201.67955783 111.8125 199.5 C111.03519531 198.7059375 110.25789063 197.911875 109.45703125 197.09375 C104.49337409 192.8639881 99.6005993 192.48767608 93.27246094 192.59912109 C87.53384716 193.30210556 82.74473008 195.73965719 77.625 198.3125 C76.58472656 198.81201172 75.54445313 199.31152344 74.47265625 199.82617188 C70.47641927 201.75283785 66.5203912 203.71877242 62.6171875 205.828125 C59.72914886 207.12127663 57.65270339 207.43297025 54.5 207.4375 C53.6028125 207.45683594 52.705625 207.47617187 51.78125 207.49609375 C44.40878551 206.18106146 39.15453107 199.42606536 34.12060547 194.34765625 C33.24833313 193.47567596 32.37606079 192.60369568 31.47735596 191.70529175 C29.09783505 189.32462004 26.72282752 186.93961057 24.34974432 184.5525322 C21.85950012 182.04973164 19.36353934 179.55264499 16.86819458 177.05493164 C12.144645 172.32517596 7.42621254 167.59034964 2.70961964 162.85365772 C-2.64605764 157.47564957 -8.00738962 152.10329396 -13.36922288 146.73142433 C-22.53637052 137.54692311 -31.69923483 128.35817074 -40.85745239 119.1647644 C-41.61155396 118.40777252 -42.36565552 117.65078064 -43.14260864 116.87084961 C-43.79481951 116.21604111 -44.44703037 115.5612326 -45.1190052 114.88658142 C-47.07736247 112.92240776 -49.03826361 110.96079826 -51 109 C-50.05125 109.33 -49.1025 109.66 -48.125 110 C-40.43412844 112.07944042 -34.32942727 111.3910261 -26.921875 108.4921875 C-26.2328157 108.2279599 -25.54375641 107.9637323 -24.83381653 107.6914978 C-15.71948617 104.1653327 -6.70537215 100.3890687 2.3125 96.625 C4.0539348 95.90079716 5.79547099 95.1768381 7.53710938 94.453125 C9.27088699 93.73189981 11.00461123 93.01054629 12.73828125 92.2890625 C13.58423859 91.93716858 14.43019592 91.58527466 15.30178833 91.22271729 C19.68375742 89.3961426 24.05698156 87.55146042 28.41943359 85.67871094 C29.29053268 85.30644379 30.16163177 84.93417664 31.05912781 84.55062866 C32.71915001 83.84023223 34.37730535 83.12545255 36.03327942 82.40567017 C41.66502517 80 41.66502517 80 45 80 C37.42936688 70.5487994 37.42936688 70.5487994 27 65 C21.39058551 64.70962516 17.667569 65.15469654 12.44140625 67.421875 C11.12944344 67.97679754 9.81707843 68.53076976 8.50439453 69.08398438 C7.78987122 69.39005615 7.0753479 69.69612793 6.33917236 70.01147461 C1.88765232 71.89267014 -2.6090448 73.66272512 -7.09765625 75.453125 C-9.07241181 76.24442696 -11.04701956 77.03609787 -13.02148438 77.828125 C-14.01365967 78.22580078 -15.00583496 78.62347656 -16.02807617 79.03320312 C-18.0673806 79.85095944 -20.10643942 80.66932848 -22.14526367 81.48828125 C-25.12874461 82.68652366 -28.11311058 83.88253749 -31.09765625 85.078125 C-32.45710106 85.62499969 -32.45710106 85.62499969 -33.8440094 86.18292236 C-45.34002538 90.78173638 -54.51645004 93.23823216 -66.44921875 88.29296875 C-75.90633971 83.49923669 -80.86132804 74.74904818 -86.54248047 66.17480469 C-88.90177698 62.65443394 -91.35759056 59.20404782 -93.8125 55.75 C-94.80362629 54.34782648 -95.79450599 52.94547863 -96.78515625 51.54296875 C-98.4855171 49.13827209 -100.18813253 46.73523705 -101.89404297 44.33447266 C-103.85025813 41.58011784 -105.8004709 38.82158981 -107.75 36.0625 C-108.37108643 35.19141602 -108.99217285 34.32033203 -109.63208008 33.42285156 C-110.2020874 32.61428711 -110.77209473 31.80572266 -111.359375 30.97265625 C-112.12459473 29.89383179 -112.12459473 29.89383179 -112.90527344 28.79321289 C-114 27 -114 27 -114 25 C-75.06 25 -36.12 25 4 25 C2.02 14.605 2.02 14.605 0 4 C0 2.68 0 1.36 0 0 Z " fill="#010101" transform="translate(449,189)"/>
<path d="M0 0 C14.22373563 9.89477262 23.78662979 22.12504272 27.5 39.25 C30.01548856 48.52396986 36.10272529 55.01538283 42.12939453 62.29931641 C45.35340031 66.282295 48.35951472 70.42074914 51.375 74.5625 C52.52957033 76.13959941 53.6845077 77.71643019 54.83984375 79.29296875 C55.65557861 80.40744385 55.65557861 80.40744385 56.48779297 81.54443359 C59.97340478 86.28810808 63.51709329 90.9884292 67.0625 95.6875 C63.81303922 98.41160759 60.65724704 100.58198335 56.87890625 102.5 C55.87867432 103.01280518 54.87844238 103.52561035 53.84790039 104.05395508 C52.78434326 104.5930249 51.72078613 105.13209473 50.625 105.6875 C40.92156791 110.65793318 31.3139626 115.76769843 21.79321289 121.08007812 C20.9346167 121.55509766 20.07602051 122.03011719 19.19140625 122.51953125 C18.43931885 122.93952393 17.68723145 123.3595166 16.91235352 123.79223633 C15.0625 124.6875 15.0625 124.6875 13.0625 124.6875 C13.09730469 125.48671875 13.13210938 126.2859375 13.16796875 127.109375 C13.6240956 145.61509271 7.01399058 158.91256475 -4.9375 172.6875 C-6.44344077 174.51595659 -7.94347135 176.34929721 -9.4375 178.1875 C-18.4375 189.1875 -18.4375 189.1875 -20.65625 191.8984375 C-22.26154236 193.86107233 -23.8657639 195.82454666 -25.46875 197.7890625 C-26.2834375 198.78679687 -27.098125 199.78453125 -27.9375 200.8125 C-28.68 201.72257813 -29.4225 202.63265625 -30.1875 203.5703125 C-31.07027792 204.63831615 -31.95772231 205.70772231 -32.9375 206.6875 C-41.18016084 206.30079773 -48.73447694 203.8634727 -56.5703125 201.42578125 C-57.97551152 200.99297069 -59.380776 200.5603726 -60.78610229 200.12797546 C-63.7178261 199.22345067 -66.64734362 198.31214514 -69.57568359 197.39672852 C-73.31022356 196.23054982 -77.05157381 195.08812574 -80.79519844 193.95150471 C-83.69530958 193.06687217 -86.59031257 192.16636241 -89.48415756 191.26146507 C-90.86098848 190.83367349 -92.23957036 190.41147204 -93.6199379 189.99523354 C-101.31129973 187.66845407 -107.40690711 185.66453346 -112.9375 179.6875 C-114.67369673 174.47890982 -114.95779846 169.95727165 -112.66796875 164.86328125 C-111.62875111 163.00988336 -110.5562533 161.17459778 -109.4453125 159.36328125 C-104.65693537 150.86577261 -104.10742855 139.29247868 -106.70703125 129.91015625 C-109.24079276 125.24552817 -113.26729184 122.64446772 -118.05078125 120.53515625 C-124.3979292 118.67137938 -131.82736125 118.1726617 -137.875 121.25 C-144.23104593 126.3088937 -148.63203741 132.9295105 -153.125 139.625 C-154.27193846 141.31784179 -155.41907704 143.01054801 -156.56640625 144.703125 C-157.13375488 145.54294922 -157.70110352 146.38277344 -158.28564453 147.24804688 C-160.6928906 150.80305762 -163.12643549 154.33970334 -165.5625 157.875 C-166.45188485 159.16792615 -167.34120785 160.46089485 -168.23046875 161.75390625 C-170.12834006 164.51210882 -172.02699411 167.26977161 -173.92578125 170.02734375 C-174.41933105 170.74446533 -174.91288086 171.46158691 -175.42138672 172.20043945 C-176.35882999 173.56251902 -177.2966289 174.92435392 -178.23486328 176.28588867 C-179.07716009 177.50987608 -179.91735481 178.73531354 -180.75512695 179.96240234 C-181.90077374 181.63391591 -183.06340927 183.29374599 -184.2265625 184.953125 C-186.2666644 188.21356183 -186.51267337 189.90778926 -185.9375 193.6875 C-184.37017577 196.45227555 -183.3858978 197.51367804 -180.39501953 198.6730957 C-179.38036621 198.90085693 -178.36571289 199.12861816 -177.3203125 199.36328125 C-176.17071045 199.63019775 -175.0211084 199.89711426 -173.83666992 200.17211914 C-171.96845581 200.58192017 -171.96845581 200.58192017 -170.0625 201 C-168.75783877 201.29838942 -167.45356246 201.59846643 -166.1496582 201.90014648 C-163.43570341 202.52663473 -160.72023032 203.1457923 -158.00341797 203.75976562 C-151.69507163 205.19135655 -145.41113987 206.72440644 -139.125 208.25 C-137.92375488 208.53963623 -136.72250977 208.82927246 -135.48486328 209.12768555 C-127.79256821 210.98421246 -120.11183123 212.88317101 -112.4375 214.8125 C-95.79932275 218.99289844 -79.10333748 222.90715127 -62.37744141 226.72070312 C-61.32218262 226.96240234 -60.26692383 227.20410156 -59.1796875 227.453125 C-58.2397998 227.66743164 -57.29991211 227.88173828 -56.33154297 228.10253906 C-53.9375 228.6875 -53.9375 228.6875 -50.9375 229.6875 C-57.11470323 243.29014961 -69.94332806 255.48826411 -79.89453125 266.42578125 C-81.75568425 268.48621641 -83.56921242 270.57864318 -85.375 272.6875 C-102.57276377 292.33643929 -123.64514952 307.21376611 -147.9375 316.6875 C-148.91074219 317.06777344 -149.88398438 317.44804687 -150.88671875 317.83984375 C-163.49124543 322.39673266 -176.56167241 324.31558234 -189.9375 323.6875 C-202.44124066 298.25020259 -212.10385482 270.84659941 -215.9375 242.6875 C-216.10233887 241.52798828 -216.26717773 240.36847656 -216.43701172 239.17382812 C-217.00976455 235.1380466 -217.5711784 231.10091313 -218.125 227.0625 C-218.30450195 225.75619629 -218.48400391 224.44989258 -218.66894531 223.10400391 C-218.83362305 221.86054199 -218.99830078 220.61708008 -219.16796875 219.3359375 C-219.31645264 218.22395996 -219.46493652 217.11198242 -219.61791992 215.96630859 C-220.61475403 205.7390496 -220.61475403 205.7390496 -217 200.81640625 C-216.3601416 199.92429443 -215.7202832 199.03218262 -215.06103516 198.11303711 C-214.36026855 197.16823486 -213.65950195 196.22343262 -212.9375 195.25 C-211.46376768 193.20223024 -209.99248843 191.15269324 -208.5234375 189.1015625 C-207.38406738 187.52036621 -207.38406738 187.52036621 -206.22167969 185.90722656 C-202.5467316 180.72710521 -199.05759139 175.42739119 -195.5625 170.125 C-190.69349043 162.77343045 -185.74842774 155.51346315 -180.5625 148.3828125 C-177.73262869 144.45018976 -175.05708558 140.41602455 -172.3605957 136.39135742 C-160.96775811 119.44288305 -149.6348873 105.13925888 -128.63549805 100.1394043 C-125.73175462 99.65303844 -122.986464 99.54428628 -120.04296875 99.51171875 C-118.92212891 99.48787109 -117.80128906 99.46402344 -116.64648438 99.43945312 C-114.31072905 99.3967022 -111.97473591 99.36533392 -109.63867188 99.34570312 C-102.63858018 99.17320803 -97.867364 98.50850392 -91.9375 94.6875 C-87.35854446 89.05186241 -86.54953531 84.8350033 -86.9375 77.6875 C-88.23051422 74.72178014 -88.23051422 74.72178014 -89.9375 71.75 C-95.46569404 60.27947892 -95.04096787 44.88573615 -91.18554688 32.91577148 C-84.76280651 15.93030635 -73.22803349 3.57554779 -56.9375 -4.3125 C-53.64352447 -5.54321613 -50.35788837 -6.50697375 -46.9375 -7.3125 C-46.32422852 -7.48233398 -45.71095703 -7.65216797 -45.07910156 -7.82714844 C-29.8445374 -11.27976056 -13.19877301 -7.95942605 0 0 Z " fill="#010101" transform="translate(274.9375,168.3125)"/>
<path d="M0 0 C1.3303125 1.0828125 1.3303125 1.0828125 2.6875 2.1875 C-0.2444355 4.52345796 -3.21268639 6.20487865 -6.5625 7.875 C-18.2190596 14.24580584 -24.16252118 23.73756354 -28.3125 36.1875 C-28.45742123 37.59414926 -28.55878931 39.0056133 -28.62890625 40.41796875 C-28.66701416 41.14137451 -28.70512207 41.86478027 -28.74438477 42.61010742 C-28.78748779 43.52252197 -28.83059082 44.43493652 -28.875 45.375 C-29.019375 48.283125 -29.16375 51.19125 -29.3125 54.1875 C-40.5325 54.1875 -51.7525 54.1875 -63.3125 54.1875 C-69.07406083 42.66437834 -71.37356969 33.64857173 -67.3125 21.1875 C-62.62980728 8.92986316 -53.81789543 0.23784141 -42.37890625 -5.83984375 C-28.74900217 -11.60531975 -11.73070885 -8.17878107 0 0 Z " fill="#FBFBFB" transform="translate(268.3125,185.8125)"/>
<path d="M0 0 C2.40626032 1.74910643 4.06247441 3.77098546 5.90307617 6.10498047 C6.5862793 6.95705078 7.26948242 7.80912109 7.97338867 8.68701172 C9.70413871 11.18573527 10.70567373 13.46746434 11.77807617 16.29248047 C7.77862929 18.37687688 3.77841926 20.45980463 -0.22192383 22.54248047 C-1.34727539 23.12900391 -2.47262695 23.71552734 -3.63208008 24.31982422 C-31.60469833 38.87867231 -31.60469833 38.87867231 -46.6184082 34.61132812 C-52.6401456 32.53059858 -58.43188195 29.93922291 -64.22192383 27.29248047 C-65.71124006 26.63042095 -67.20081015 25.9689321 -68.69067383 25.30810547 C-73.84275806 22.98493754 -78.73299982 20.76487338 -83.22192383 17.29248047 C-81.41558472 17.33175659 -81.41558472 17.33175659 -79.57275391 17.37182617 C-75.04592949 17.46327054 -70.51918424 17.52006759 -65.99169922 17.56713867 C-64.04331674 17.5920705 -62.0950257 17.62602896 -60.14697266 17.66967773 C-48.48471444 17.92418144 -38.82059269 17.76766336 -28.22192383 12.29248047 C-27.11292725 11.74390381 -26.00393066 11.19532715 -24.86132812 10.63012695 C-20.2659085 8.31634697 -15.71724201 5.9210112 -11.1809082 3.49365234 C-9.52865234 2.63803711 -9.52865234 2.63803711 -7.84301758 1.76513672 C-6.36466431 0.98021851 -6.36466431 0.98021851 -4.85644531 0.17944336 C-2.22192383 -0.70751953 -2.22192383 -0.70751953 0 0 Z " fill="#F9F9F9" transform="translate(303.221923828125,242.70751953125)"/>
<path d="M0 0 C4.00528478 1.50945434 7.71268487 3.38579091 11.5 5.375 C22.95090778 11.18858415 34.31799036 13.66689802 47 15 C41.86214771 21.58699011 34.38523113 29.06610565 25.703125 30.3359375 C18.62409362 30.44866093 13.70520297 29.16748644 8.27734375 24.52734375 C1.78374781 17.77847131 0.72491428 8.98893708 0 0 Z " fill="#F9F9F9" transform="translate(223,281)"/>
<path d="M0 0 C3.99160622 0.98039451 5.11068552 1.65170942 7.5625 4.875 C8.06640625 8.125 8.06640625 8.125 8.125 11.875 C8.35023971 18.8437282 9.5775534 25.17112374 11.5625 31.875 C5.93946243 27.20033663 0.76508446 22.19734333 -4.375 17 C-5.54385742 15.824375 -5.54385742 15.824375 -6.73632812 14.625 C-8.63904085 12.71061419 -10.53936171 10.79391966 -12.4375 8.875 C-11.50475891 7.74605124 -10.56609878 6.62199124 -9.625 5.5 C-9.10292969 4.87351562 -8.58085937 4.24703125 -8.04296875 3.6015625 C-5.34455439 0.6996181 -4.01216317 -0.14589684 0 0 Z " fill="#F9F9F9" transform="translate(471.4375,314.125)"/>
<path d="M0 0 C4.28291649 0.99107614 6.82034612 4.33800867 9.66601562 7.5012207 C10.61347656 8.50282227 10.61347656 8.50282227 11.58007812 9.5246582 C13.12844737 11.16686801 14.65506276 12.82464906 16.16601562 14.5012207 C12.49795164 15.7239087 11.42136292 15.13435647 7.84179688 13.84887695 C6.81376953 13.4847168 5.78574219 13.12055664 4.7265625 12.74536133 C3.65470703 12.35541992 2.58285156 11.96547852 1.47851562 11.5637207 C0.39505859 11.17764648 -0.68839844 10.79157227 -1.8046875 10.39379883 C-4.48413784 9.4376954 -7.16026877 8.47322213 -9.83398438 7.5012207 C-9.83398438 4.5012207 -9.83398438 4.5012207 -8.33398438 2.3137207 C-5.49069006 0.25233232 -3.48859871 -0.08054886 0 0 Z " fill="#F3F3F3" transform="translate(603.833984375,425.498779296875)"/>
</svg>
