<svg width="512" height="512" viewBox="0 0 512 512" fill="none" xmlns="http://www.w3.org/2000/svg">
<path d="M503.37 317.686C469.309 454.295 330.931 537.432 194.291 503.366C57.7085 469.309 -25.4382 330.938 8.63774 194.34C42.6837 57.7169 181.062 -25.4266 317.659 8.63048C454.29 42.6876 537.431 181.074 503.367 317.688L503.369 317.686H503.37Z" fill="url(#paint0_linear_613_5639)"/>
<path d="M368.457 219.834C373.533 185.873 347.695 167.618 312.362 155.44L323.824 109.438L295.839 102.46L284.681 147.251C277.324 145.415 269.769 143.685 262.259 141.97L273.498 96.883L245.53 89.9053L234.062 135.893C227.974 134.506 221.994 133.135 216.193 131.691L216.225 131.546L177.633 121.903L170.189 151.812C170.189 151.812 190.951 156.574 190.514 156.867C201.846 159.698 203.895 167.204 203.555 173.154L190.499 225.562C191.279 225.76 192.291 226.047 193.408 226.496C192.474 226.264 191.481 226.011 190.45 225.764L172.149 299.18C170.764 302.625 167.249 307.795 159.326 305.832C159.606 306.239 138.986 300.753 138.986 300.753L125.092 332.807L161.51 341.892C168.285 343.592 174.924 345.371 181.462 347.043L169.882 393.574L197.835 400.551L209.303 354.515C216.939 356.59 224.35 358.503 231.605 360.307L220.175 406.126L248.162 413.104L259.741 366.661C307.462 375.698 343.344 372.054 358.447 328.863C370.617 294.089 357.842 274.032 332.736 260.952C351.022 256.732 364.795 244.698 368.467 219.838L368.458 219.831L368.457 219.834ZM304.518 309.552C295.869 344.325 237.358 325.528 218.388 320.814L233.755 259.169C252.724 263.908 313.556 273.286 304.519 309.552H304.518ZM313.172 219.33C305.283 250.961 256.584 234.891 240.786 230.95L254.719 175.043C270.516 178.983 321.391 186.337 313.175 219.33H313.172Z" fill="white"/>
<defs>
<linearGradient id="paint0_linear_613_5639" x1="-83.1237" y1="29.6875" x2="608.321" y2="402" gradientUnits="userSpaceOnUse">
<stop stop-color="#2A2CBF"/>
<stop offset="0.482532" stop-color="#6335FF"/>
<stop offset="0.905715" stop-color="#BD89FF"/>
</linearGradient>
</defs>
</svg>
