<svg width="32" height="32" viewBox="0 0 32 32" fill="none" xmlns="http://www.w3.org/2000/svg">
<path fill-rule="evenodd" clip-rule="evenodd" d="M32 16C32 13.9059 31.5834 11.8118 30.7821 9.87712C29.9805 7.9424 28.7942 6.16704 27.3136 4.6864C25.833 3.20544 24.0576 2.01952 22.1229 1.21792C20.1882 0.41664 18.0941 0 16 0C13.9059 0 11.8115 0.41664 9.8768 1.21792C7.94208 2.01952 6.16704 3.20544 4.68608 4.6864C3.20544 6.16704 2.0192 7.9424 1.21792 9.87712C0.41632 11.8118 0 13.9059 0 16C0 18.0941 0.41632 20.1882 1.21792 22.1229C2.0192 24.0576 3.20544 25.833 4.68608 27.3139C6.16704 28.7946 7.94208 29.9808 9.8768 30.7821C11.8115 31.5834 13.9059 32 16 32C18.0941 32 20.1882 31.5834 22.1229 30.7821C24.0576 29.9808 25.833 28.7946 27.3136 27.3139C28.7942 25.833 29.9805 24.0576 30.7821 22.1229C31.5834 20.1882 32 18.0941 32 16Z" fill="white"/>
<path fill-rule="evenodd" clip-rule="evenodd" d="M11.8547 3.38381C13.3453 2.89389 14.9382 2.66989 16.5162 2.73037C18.0944 2.79085 19.6579 3.13613 21.113 3.74413C22.5683 4.35213 23.9152 5.22317 25.0675 6.29773C26.5917 7.71949 27.775 9.49773 28.4848 11.4868C29.1949 13.4763 29.4314 15.6766 29.1574 17.7713C28.8838 19.866 28.0998 21.8555 26.9139 23.5662C25.728 25.2769 24.1398 26.7086 22.2746 27.7006C20.4093 28.6923 18.2662 29.244 16.1539 29.276C14.0416 29.308 11.9597 28.8206 10.095 27.8952C8.23073 26.9697 6.58337 25.6065 5.33249 23.9038C4.08161 22.2011 3.22721 20.1588 2.88801 18.075C2.54881 15.9908 2.72481 13.8648 3.37473 11.8814C3.86593 10.3819 4.62817 8.96429 5.6048 7.73581H4.12033V5.28205H9.93696V10.7137H7.48321V9.22957C6.68321 10.2356 6.05857 11.3969 5.65633 12.6257C5.12417 14.2513 4.9808 15.9953 5.25633 17.6971C5.59873 19.8139 6.58881 21.8651 8.06657 23.4459C9.83425 25.3364 12.2995 26.5544 14.8659 26.8209C17.432 27.0875 20.0992 26.403 22.2173 24.9288C24.3354 23.4545 25.905 21.1905 26.5421 18.69C27.1792 16.1896 26.8838 13.4526 25.735 11.1422C24.5862 8.83181 22.5837 6.94861 20.1891 5.95917C17.7946 4.96941 15.0077 4.87405 12.6038 5.66381L11.8547 3.38381Z" fill="url(#paint0_linear_1938_13567)"/>
<path d="M20.1252 10.7373C20.3488 11.2735 20.4651 11.8538 20.4651 12.4342C20.4651 13.0145 20.3488 13.5949 20.1252 14.1311C19.9764 14.4878 19.7801 14.825 19.5436 15.1317C20.1251 15.1328 20.7063 15.2482 21.2436 15.4692C21.7835 15.6912 22.279 16.02 22.6922 16.4304C23.1055 16.8408 23.4365 17.3328 23.6601 17.869C23.8837 18.4051 24 18.9855 24 19.5658C24 20.1462 23.8837 20.7265 23.6601 21.2627C23.4365 21.7989 23.1055 22.2909 22.6922 22.7012C22.279 23.1117 21.7835 23.4404 21.2436 23.6625C20.7037 23.8845 20.1193 24 19.5349 24C18.9505 24 18.3661 23.8845 17.8262 23.6625C17.2862 23.4404 16.7908 23.1117 16.3776 22.7012C16.2427 22.5673 16.1165 22.4246 16 22.2745C15.8835 22.4246 15.7573 22.5673 15.6224 22.7012C15.2092 23.1117 14.7137 23.4404 14.1738 23.6625C13.6339 23.8845 13.0495 24 12.4651 24C11.8807 24 11.2963 23.8845 10.7564 23.6625C10.2165 23.4404 9.72103 23.1117 9.30783 22.7012C8.89454 22.2909 8.5635 21.7989 8.33988 21.2627C8.11627 20.7265 8 20.1462 8 19.5658C8 18.9855 8.11627 18.4051 8.33988 17.869C8.5635 17.3328 8.89454 16.8408 9.30783 16.4304C9.72103 16.02 10.2165 15.6912 10.7564 15.4692C11.2936 15.2482 11.8749 15.1328 12.4564 15.1317C12.2199 14.825 12.0236 14.4878 11.8748 14.1311C11.6512 13.5949 11.5349 13.0145 11.5349 12.4342C11.5349 11.8538 11.6512 11.2735 11.8748 10.7373C12.0984 10.2011 12.4294 9.70911 12.8427 9.29877C13.2559 8.88834 13.7514 8.55959 14.2913 8.33753C14.8312 8.11547 15.4156 8 16 8C16.5844 8 17.1688 8.11547 17.7087 8.33753C18.2486 8.55959 18.7441 8.88834 19.1573 9.29877C19.5706 9.70911 19.9016 10.2011 20.1252 10.7373Z" fill="white" stroke="black" stroke-width="0.525"/>
<path d="M19 12.5978C18.7872 12.4362 18.5331 12.3356 18.3387 12.2586L18.3386 12.2585C18.2139 12.2091 18.1138 12.1695 18.0649 12.1297C17.9353 12.0243 17.8906 11.853 17.8335 11.6343C17.8034 11.519 17.7699 11.3905 17.7187 11.2516C17.5744 10.8603 16.9135 10.4096 16.5416 10.5083C16.4458 10.5189 16.227 10.6115 16.0612 10.7848C16.1438 10.6035 16.3296 10.3205 16.7012 10.2985C16.5463 10.2206 16.3572 9.95136 16.1659 9.67891C15.9544 9.37778 15.7402 9.07275 15.5665 9.01787C15.1496 8.88617 14.6591 9.52454 14.6591 9.56111C14.6379 9.49352 14.652 9.4203 14.6803 9.35449C14.48 9.49106 14.4654 9.71589 14.4732 9.87071C14.4229 9.9605 14.3639 10.0817 14.3117 10.2165C14.3265 10.2187 14.3447 10.2173 14.3674 10.2111C14.4136 10.1983 14.4662 10.2277 14.512 10.2532L14.5121 10.2533L14.5122 10.2533L14.5144 10.2546C14.5163 10.2556 14.5181 10.2566 14.5199 10.2576C14.6209 10.3138 14.7183 10.3127 14.8235 10.2632C14.949 10.2041 15.0779 10.1514 15.2131 10.1189C15.2357 10.1135 15.2585 10.1081 15.2816 10.105C15.364 10.0939 15.3994 10.1132 15.4348 10.1927C15.4785 10.2907 15.4931 10.3959 15.4939 10.5028L15.4939 10.5107C15.4945 10.5804 15.4951 10.6507 15.4782 10.7194C15.4604 10.7916 15.4289 10.8151 15.3575 10.8052C15.2933 10.7963 15.2313 10.7763 15.1703 10.7544C15.0551 10.7129 14.9394 10.702 14.8227 10.7467C14.8194 10.7479 14.8159 10.749 14.8123 10.75L14.8119 10.7502C14.7976 10.7544 14.7823 10.759 14.7796 10.7751C14.7766 10.7924 14.7899 10.7987 14.8026 10.8047C14.807 10.8068 14.8112 10.8089 14.8148 10.8113C14.8316 10.8229 14.8486 10.8343 14.8656 10.8457L14.8681 10.8474C14.9481 10.9012 15.0282 10.955 15.0963 11.0256C15.1463 11.0776 15.1551 11.1202 15.1126 11.1792C14.9464 11.41 14.7355 11.5711 14.4525 11.6078C14.4096 11.6133 14.3699 11.6115 14.3335 11.6027C14.2113 11.4869 14.1233 11.3232 14.0746 11.1262L14.0742 11.1265C14.0724 11.119 14.0701 11.1103 14.0675 11.1004L14.0674 11.1003C14.0586 11.0669 14.0463 11.0207 14.0391 10.9683C14.0329 10.9232 14.0706 10.9216 14.1106 10.9223L14.1113 10.9221C14.1914 10.9048 14.272 10.9107 14.3519 10.9246C14.4766 10.9464 14.595 10.9889 14.7091 11.0451C14.7128 11.0469 14.7167 11.0495 14.7207 11.0522C14.7343 11.0612 14.7492 11.0711 14.7611 11.0544C14.7716 11.0395 14.7587 11.0215 14.748 11.0065C14.7463 11.0042 14.7447 11.002 14.7433 10.9998C14.6706 10.8927 14.563 10.8374 14.4504 10.7911C14.4073 10.7734 14.3631 10.7562 14.3155 10.7553C14.2852 10.7547 14.2722 10.738 14.2652 10.7084C14.2528 10.6561 14.2393 10.6041 14.2259 10.5521L14.2255 10.5506C14.2236 10.5434 14.2217 10.5362 14.2199 10.5289C14.2187 10.5245 14.2176 10.52 14.2164 10.5155C14.2035 10.5686 14.1929 10.6218 14.1855 10.6742C14.1515 10.6764 14.0701 10.6905 13.9096 10.736C13.7113 10.7921 13.7128 11.6434 13.7408 12.0096C13.7399 12.0833 13.7418 12.1509 13.7433 12.2081C13.7455 12.2863 13.7471 12.3448 13.7404 12.3721C13.7309 12.4112 13.6847 12.4777 13.6216 12.5684L13.6215 12.5685C13.4499 12.8154 13.1534 13.2418 13.1328 13.7835C13.2176 13.694 13.3094 13.6371 13.3589 13.6225C13.2965 13.7991 13.2433 13.966 13.198 14.123C13.1297 14.0645 13.0637 14.0035 13 13.9401C13.4247 14.3625 13.9539 14.681 14.5458 14.8539C14.5975 14.6661 14.6563 14.4676 14.7208 14.2652C14.3277 13.7896 14.0577 13.1288 14.2418 12.0928C14.254 12.5074 14.4492 13.381 14.8705 13.8198C15.1326 13.0791 15.4587 12.3528 15.7896 11.9669C15.5785 12.5328 15.2373 13.8733 15.0265 14.9595C15.2046 14.9862 15.387 15 15.5725 15C16.0807 15 16.5644 14.8964 17.0037 14.7093C16.9923 14.7141 16.9808 14.7189 16.9693 14.7237C17.1005 14.2823 17.2213 13.8138 17.3082 13.4114C17.3609 13.6018 17.3947 14.054 17.3805 14.5222C17.3688 14.5289 17.357 14.5356 17.3452 14.5421C18.1085 14.1177 18.7023 13.4277 19 12.5978Z" fill="#121111"/>
<path d="M14.2613 10.3579C14.2672 10.3396 14.2733 10.3215 14.2796 10.3035C14.3488 10.3315 14.4176 10.3603 14.4865 10.3891C14.5018 10.3955 14.5138 10.4058 14.4947 10.4204C14.4588 10.4479 14.42 10.4704 14.3816 10.4842L14.3816 10.4844C14.3601 10.4886 14.3453 10.4831 14.3335 10.4705C14.3024 10.4376 14.2789 10.3993 14.2613 10.3579Z" fill="#121111"/>
<path d="M14.5765 10.7455C14.6453 10.7309 14.7104 10.6939 14.7642 10.6362C14.7792 10.6202 14.7915 10.5995 14.7766 10.5759C14.7612 10.5517 14.7381 10.5518 14.7142 10.5587C14.6978 10.5634 14.6824 10.5703 14.6669 10.5771L14.6668 10.5772C14.6495 10.5849 14.6322 10.5925 14.6136 10.5972C14.571 10.6079 14.5367 10.6039 14.5066 10.5691C14.4933 10.5537 14.4751 10.5439 14.4547 10.5424C14.432 10.5408 14.4167 10.5511 14.413 10.5759C14.4039 10.6383 14.5085 10.7525 14.5764 10.7454L14.5765 10.7455Z" fill="#121111"/>
<path d="M15.1167 10.4298C15.0872 10.4573 15.0559 10.4817 15.0143 10.4893L15.0143 10.4892C14.9407 10.4867 14.8768 10.4528 14.8183 10.4098C14.7897 10.3888 14.8184 10.3809 14.8336 10.3767L14.8346 10.3765C14.9553 10.343 15.076 10.3102 15.197 10.278C15.1994 10.2774 15.202 10.2763 15.2046 10.2751C15.2136 10.2712 15.2235 10.2668 15.2302 10.2798C15.2351 10.2895 15.2285 10.2982 15.2227 10.306C15.2218 10.3072 15.2209 10.3084 15.2201 10.3095C15.1895 10.3531 15.1554 10.3937 15.1167 10.4298Z" fill="#121111"/>
<path d="M11.6454 22.8288C11.6454 22.949 11.5661 22.989 11.451 22.989C10.0106 22.5031 9 21.1228 9 19.4995C9 17.8762 10.0106 16.4959 11.451 16.01C11.5665 15.9711 11.6454 16.05 11.6454 16.173V16.4559C11.6454 16.5387 11.6046 16.6187 11.5277 16.6588C10.3994 17.1046 9.62169 18.202 9.62169 19.4995C9.62169 20.7997 10.4379 21.9344 11.5277 22.3403C11.6046 22.3803 11.6454 22.4631 11.6454 22.5431V22.8288Z" fill="black"/>
<path d="M12.8121 21.814C12.8121 21.894 12.7328 21.9741 12.656 21.9741H12.3439C12.2672 21.9741 12.1879 21.894 12.1879 21.814V21.3253C11.5661 21.2453 11.2566 20.8794 11.1389 20.3509C11.1389 20.2707 11.1773 20.1907 11.2566 20.1907H11.6046C11.6839 20.1907 11.7222 20.2307 11.7606 20.3107C11.8399 20.5965 11.9934 20.8394 12.5 20.8394C12.8889 20.8394 13.16 20.6365 13.16 20.3107C13.16 19.9878 13.0066 19.865 12.4616 19.7848C11.6451 19.6648 11.2566 19.4191 11.2566 18.7276C11.2566 18.2016 11.6454 17.7958 12.1879 17.713V17.2271C12.1879 17.147 12.2672 17.0643 12.3439 17.0643H12.656C12.7328 17.0643 12.8121 17.147 12.8121 17.2271V17.713C13.2777 17.7958 13.5899 18.0788 13.6667 18.5247C13.6667 18.6075 13.6283 18.6875 13.549 18.6875H13.2394C13.16 18.6875 13.1217 18.6475 13.0833 18.5674C13.0066 18.2817 12.8121 18.1616 12.4616 18.1616C12.0727 18.1616 11.8783 18.3645 11.8783 18.6475C11.8783 18.9305 11.9934 19.0933 12.5767 19.1761C13.396 19.2924 13.7843 19.5392 13.7843 20.2307C13.7843 20.7566 13.3954 21.2052 12.8121 21.3253V21.814Z" fill="black"/>
<path d="M13.3546 22.8284C13.3546 22.9486 13.4339 23.0314 13.549 22.9886C14.9894 22.5027 16 21.1224 16 19.4991C16 17.8758 14.951 16.4955 13.549 16.0096C13.4339 16.0096 13.3546 16.0496 13.3546 16.1725V16.4555C13.3546 16.5383 13.3954 16.6183 13.4723 16.6584C14.5621 17.0642 15.3783 18.2016 15.3783 19.4991C15.3783 20.7993 14.6006 21.894 13.4723 22.3398C13.3954 22.3799 13.3546 22.4627 13.3546 22.5427V22.8284Z" fill="black"/>
<path d="M19.3333 18.4301C19.3333 18.3295 19.2683 18.2535 18.6741 17.6593C18.1175 17.1027 17.9996 17 17.9172 17C17.8368 17 17.7474 17.0722 17.4098 17.4098C17.0755 17.7441 17 17.8373 17 17.9155C17 17.9956 17.1101 18.1224 17.6667 18.6833C18.3279 19.3497 18.3333 19.3564 18.3333 19.5C18.3333 19.6436 18.3279 19.6503 17.6667 20.3167C17.1101 20.8776 17 21.0044 17 21.0845C17 21.1627 17.0755 21.2559 17.4098 21.5902C17.7441 21.9245 17.8373 22 17.9155 22C17.9956 22 18.1224 21.8899 18.6833 21.3333C19.3497 20.6721 19.3564 20.6667 19.5 20.6667C19.6436 20.6667 19.6503 20.6721 20.3167 21.3333C20.8776 21.8899 21.0044 22 21.0845 22C21.1627 22 21.2559 21.9245 21.5902 21.5902C21.9278 21.2526 22 21.1632 22 21.0828C22 21.0004 21.8973 20.8825 21.3407 20.3259C20.7465 19.7317 20.6705 19.6667 20.5699 19.6667C20.4722 19.6667 20.4074 19.7165 20.05 20.0667C19.6553 20.4534 19.6369 20.4667 19.4973 20.4667C19.3571 20.4667 19.3412 20.4549 18.9431 20.0569C18.5451 19.6588 18.5333 19.6429 18.5333 19.5027C18.5333 19.3631 18.5466 19.3447 18.9333 18.95C19.2835 18.5926 19.3333 18.5278 19.3333 18.4301Z" fill="black"/>
<path d="M22 17.9172C22 17.8368 21.9278 17.7474 21.5902 17.4098C21.2526 17.0722 21.1632 17 21.0828 17C21.0004 17 20.8825 17.1027 20.3259 17.6593C19.7257 18.2595 19.6667 18.3287 19.6667 18.4327C19.6667 18.5341 19.7108 18.5911 20.0599 18.9401C20.4089 19.2892 20.4659 19.3333 20.5673 19.3333C20.6713 19.3333 20.7405 19.2743 21.3407 18.6741C21.8973 18.1175 22 17.9996 22 17.9172Z" fill="black"/>
<defs>
<linearGradient id="paint0_linear_1938_13567" x1="2.04343" y1="13.2972" x2="15.2222" y2="29.5766" gradientUnits="userSpaceOnUse">
<stop stop-color="#004CFF"/>
<stop offset="0.252131" stop-color="#00E0FB"/>
<stop offset="0.505709" stop-color="#87FF70"/>
<stop offset="0.755054" stop-color="#F8F500"/>
<stop offset="1" stop-color="#FF1A00"/>
</linearGradient>
</defs>
</svg>
