<svg width="401" height="400" viewBox="0 0 401 400" fill="none" xmlns="http://www.w3.org/2000/svg">
<path d="M400.46 200C400.46 310.457 310.917 400 200.46 400C90.0035 400 0.460449 310.457 0.460449 200C0.460449 89.5431 90.0035 0 200.46 0C310.917 0 400.46 89.5431 400.46 200Z" fill="black"/>
<path d="M400.46 200C400.46 310.457 310.917 400 200.46 400C90.0035 400 0.460449 310.457 0.460449 200C0.460449 89.5431 90.0035 0 200.46 0C310.917 0 400.46 89.5431 400.46 200Z" fill="url(#paint0_radial_3392_3014)"/>
<path fill-rule="evenodd" clip-rule="evenodd" d="M200.46 380C299.872 380 380.46 299.411 380.46 200C380.46 100.589 299.872 20 200.46 20C101.049 20 20.4604 100.589 20.4604 200C20.4604 299.411 101.049 380 200.46 380ZM200.46 400C310.917 400 400.46 310.457 400.46 200C400.46 89.5431 310.917 0 200.46 0C90.0035 0 0.460449 89.5431 0.460449 200C0.460449 310.457 90.0035 400 200.46 400Z" fill="url(#paint1_linear_3392_3014)"/>
<path d="M199.624 262.78L254.916 294.32L255.247 230.666L311.902 198.539L256.083 167.887L144.838 232.114L143.474 295.781L199.624 262.78Z" fill="white"/>
<path d="M201.296 137.22L146.005 105.68L145.674 169.334L89.0182 201.461L144.838 232.114L256.083 167.886L257.447 104.219L201.296 137.22Z" fill="#C157F9"/>
<defs>
<radialGradient id="paint0_radial_3392_3014" cx="0" cy="0" r="1" gradientUnits="userSpaceOnUse" gradientTransform="translate(136.46 128) rotate(76.7595) scale(279.428)">
<stop stop-color="#C157F9" stop-opacity="0.4"/>
<stop offset="1" stop-color="#C157F9" stop-opacity="0"/>
</radialGradient>
<linearGradient id="paint1_linear_3392_3014" x1="200.46" y1="0" x2="200.46" y2="400" gradientUnits="userSpaceOnUse">
<stop stop-color="#D3AAE1"/>
<stop offset="1" stop-color="#AA96C4" stop-opacity="0.49"/>
</linearGradient>
</defs>
</svg>
