<?xml version="1.0" encoding="UTF-8"?>
<svg id="Layer_2" data-name="Layer 2" xmlns="http://www.w3.org/2000/svg" viewBox="0 0 997.85 1000">
  <defs>
    <style>
      .cls-1 {
        fill: #07ab5c;
      }

      .cls-1, .cls-2, .cls-3, .cls-4, .cls-5, .cls-6, .cls-7, .cls-8, .cls-9, .cls-10, .cls-11, .cls-12 {
        stroke-width: 0px;
      }

      .cls-2 {
        fill: #211a34;
      }

      .cls-3 {
        fill: #ca5a08;
      }

      .cls-4 {
        fill: #dbe5f0;
      }

      .cls-5 {
        fill: #b29fb1;
      }

      .cls-6 {
        fill: #c2c3c3;
      }

      .cls-7 {
        fill: #0159ff;
      }

      .cls-8 {
        fill: #9bdaff;
      }

      .cls-9 {
        fill: #8199bd;
      }

      .cls-10 {
        fill: #fc8209;
      }

      .cls-11 {
        fill: #023cc1;
      }

      .cls-12 {
        fill: #0156fe;
      }
    </style>
  </defs>
  <g id="Layer_14" data-name="Layer 14">
    <g>
      <path class="cls-8" d="M912.06,500c0,227.57-184.49,412.06-412.06,412.06h0c-227.57,0-412.06-184.49-412.06-412.06h0c0-227.58,184.49-412.06,412.06-412.06h0c227.57,0,412.06,184.49,412.06,412.06h0Z"/>
      <path class="cls-10" d="M701.57,862.53c-.04-1.76-.4-3.46-1.09-5.2-5.2-12.95-10.45-24.23-16.05-34.5-1.83-3.37-3.76-6.75-5.62-10.03-1.44-2.53-2.93-5.15-4.36-7.74-1.95-3.52-3.91-7.11-5.81-10.58-3.06-5.59-6.21-11.36-9.41-17-3.05-5.39-6.28-10.79-9.4-16.02-1.1-1.85-2.21-3.7-3.31-5.55-.19-.32-.37-.65-.56-1-.59-1.1-1.21-2.23-2.24-3.11-.06-.28-.19-.53-.4-.75-.33-.56-.65-1.13-.98-1.69-.8-1.4-1.63-2.84-2.54-4.21-.65-.98-1.47-1.83-2.27-2.64-.18-.19-.37-.38-.55-.57-.12-.13-.34-.28-.72-.28-.25,0-.52.07-.78.13-.52.14-4.29-4.76-6.66-9.75-.37-.78,6.37-11.2,10.94-16.88,2.86-3.55,3.01-6.96.51-11.07-1.6-2.63-3.56-4.44-5.99-5.54l-.5-.23-.34.44c-.18.23-.35.46-.51.68-.39.52-.77,1.02-1.16,1.47-.03,0-.07,0-.14,0,.02-.3.02-.59.02-.88,0-.15,0-.31,0-.46.01-.62.03-1.24.06-1.87.08-2.31.16-4.69-.24-7.06-.3-1.8-.9-3-2.84-3-.31,0-.66.03-1.08.09-5.58.82-11.56,1.71-17.42,2.63-.68.11-1.32.34-1.94.57-.24.09-.48.18-.71.25-.65.02-1.3.04-1.96.05-1.58.04-3.21.08-4.81.18-2.05.12-3.71,1.03-4.82,2.62-.67.96-1.37,1.91-2.06,2.84-1.64,2.23-3.34,4.53-4.67,7.06l-.08.14c-.57,1.07-1.21,2.29-.75,3.78l.19.6.62-.12c1.26-.25,2.16-.98,3.04-1.69.21-.17.43-.35.65-.51.54-.4,1.07-.83,1.59-1.24.87-.69,1.78-1.41,2.71-2.03.2-.13.4-.27.59-.41,1.16-.8,2.25-1.56,3.57-1.56.06,0,.12,0,.19,0-.01.22-.1.48-.27.81-.96,1.89-2.34,3.51-3.44,4.71-.65.71-1.29,1.42-1.93,2.13-4.22,4.66-8.59,9.48-13.7,13.34-.38.14-1.05.44-1.14,1.09-.1.71.58,1.18.8,1.34l.09.06.1.03c.62.19,1.3.29,2.07.29.43,0,.86-.03,1.28-.07-3.74,1.64-7.44,2.47-11.01,2.47-2.3,0-4.61-.34-6.86-1.01-1.62-.48-3.26-1.05-4.84-1.6-.86-.3-1.74-.6-2.62-.89-1.6-.53-3.23-1.06-4.81-1.56-3.34-1.07-6.79-2.19-10.13-3.42-4.54-1.69-9.12-3.51-13.55-5.26-2.64-1.05-5.36-2.13-8.05-3.17-3.97-1.54-7.68-2.92-11.32-4.22-8.73-3.11-17.3-6.43-25.49-9.87-7.66-3.22-14.81-5.82-21.87-7.94-5.54-1.67-11.22-3.13-16.71-4.54l-2.12-.54c-5.77-1.49-10.52-2.18-14.92-2.18-.75,0-1.51.02-2.25.06-1.23.07-2.45.14-3.68.22-3.04.19-6.18.38-9.27.45-6.74.14-13.48,1.05-20,1.94-3.14.42-6.38.86-9.57,1.21-3.26.35-5.75,1.86-7.41,4.48-6.35,10.04-10.72,18.77-13.77,27.46-.72,2.07-1.07,3.93-1.05,5.68.04,4.16,5.5,12.31,9.43,14.07.89.4,1.74.6,2.5.6,1.57,0,4.43.82,2.13,7.62-1.57,4.66-1.78,9.56-.63,14.98.53,2.51,2.04,4.47,3.3,5.9.53.61,1.11.73,1.5.73.53,0,8.14-.07,2.76,7.44l-.07.09c-.46.63-3.22,4.46-4.01,5.89-.15.28-.32.54-.5.83-.24.38-.48.77-.69,1.19-.95,1.91-1.94,3.83-2.89,5.7-2.31,4.5-4.69,9.14-6.71,13.87-1.03,2.42-2.11,4.87-3.15,7.24-1.95,4.43-3.97,9.02-5.78,13.61-3.55,8.99-6.64,18.29-9.63,27.29-.46,1.4-.93,2.8-1.4,4.2-.24.71-.51,1.53-.63,2.35-.57,3.86-1.59,7.6-2.94,12.02-1.94,6.33-2.3,12.75-1.08,19.08l.07.37.34.14c8.94,3.75,18.08,6.74,26.68,9.47.49.15.98.33,1.46.5,1.53.54,3.1,1.1,4.82,1.18.27.11.54.22.81.34.68.29,1.39.6,2.13.8,1.36.37,2.72.74,4.08,1.11,5.33,1.45,10.84,2.95,16.31,4.28.74.18,1.49.37,2.22.56,2.7.7,5.48,1.42,8.37,1.54.33.35.69.44.95.44.12,0,.24-.02.37-.05.44.22.92.33,1.43.33.16,0,.32-.01.49-.03.7.16,1.41.32,2.1.49,1.62.38,3.3.78,4.98,1.04,1.75.28,3.52.62,5.23.95,4.08.79,63.26,5.7,70.68,5.7,22.28,0,45-1.88,67.53-5.59,25.64-4.23,51.13-11.01,75.74-20.18,2.39-.89,4.77-1.88,7.08-2.84,1.08-.45,2.16-.9,3.24-1.34l12.29-5.22.6-.23c.4-.15.81-.3,1.21-.46,2.74-1.02,5.57-2.08,8.1-3.79,6.78-2.73,13.09-6.19,17.83-8.9h.02s.79-.53.79-.53c2.05-.59,3.82-1.68,5.55-2.73.7-.42,1.42-.86,2.13-1.26l.37-.2v-.42Z"/>
      <path class="cls-3" d="M437,838.65c1.05-1.1-1.04-1.48-1.85-1.58-1.54-.24-3.56-.49-5.38-.69-9.01-.99-26.83-1.77-27.93,1,.32,1.81,6.88,2.45,8.24,3.84,2.3,2.18-3.41,5.22-5.1,6.19-5.32,2.94-12.37,6.59-16.55,9.34-.77.51-1.84,1.2-2.67,1.08-1.41-.13-1.24-3.12-2.22-3.03-.96.33-1.47,1.61-1.91,2.53-1.72,4.08-2.9,9.31-.8,10.8,1.74,1.2,5-.37,6.91-1.51,7.05-4.54,13.48-8.97,20.03-12.85,1.4-.85,3.16-1.88,4.69-2.77,14.45-8.49,18.72-8.93,24.52-12.34h.01Z"/>
      <path class="cls-3" d="M375.94,745.49c-2.08,10.51.65,13.24,2.52,17.29,1.84,3.51,2.94,5.54,5.14,3.59,3.03-2.69,8.56-10.43,11.34-13.38,1.85-2.08,2.84-3.54,3.15-5.52.19-1.36.08-3.46.17-5.39.12-2.95.75-6.72,1.96-9.81,1.05-2.71,2.6-5.03,4.8-6.95.8-.7,1.68-1.37,2.66-2.03,8.09-5.23,19.19-10.24,26.93-14.84,9.5-5.93-4.49-5.57-8.38-5.44-2.01.01-5.76.12-4.85-.99,1.33-1.07,5.65-2.17,7.86-2.73,9.36-2.33,21.1-2.83,30.82-1.54,12.91,1.59,26.82,6,38.85,11.32,5.06,2.32,9.88,4.2,15.4,5.51,7.8,1.94,16.16,4.19,23.52,7.25,2.27.98,4.49,2.15,6.48,3.62,3.76,2.76,6.64,6.3,10.7,8.72,3.27,1.99,6.95,3.23,10.83,3.92,3.3.6,6.67.32,9.83-.89,5.81-2.07,13.44-7.94,16.78-11.43.38-.4.68-.77.9-1.08.29-.36.66-1.13.32-1.33-.4-.22-.78-.09-1.23-.02-2.84.7-6.19,2.24-10.28,3.21-5.25,1.3-10.81.77-15.95-.63-37.74-11.49-77.28-31.81-116.51-42.53-5.7-1.46-10.48-2.43-16.01-2.95-7.12-.49-14.94.34-22.82.89-4.95.42-10.19.93-14.94,1.51-4.05.49-8.98,1.21-12.15,2.61-5.73,2.27-8.6,8.07-11.4,13.21-3.42,6.87-8.32,15.72-9.4,23.13-1.28,8.76,14.3,16.97,12.97,23.7Z"/>
      <path class="cls-3" d="M370.01,876.54c2.37-11.84,25.58-80.67,33.73-90.11-2.65-2.43-10.21-6.72-18.25-8.31-1.82-.36-3.2.14-4.12,1.81-15.64,28.45-25.26,56.44-30.19,73.01-.1.3-.2.61-.3.91-.23.69-.46,1.39-.58,2.1-2.2,7.64-3.21,12.18-3.21,12.18-1.91,6.24-2.29,12.57-1.04,18.98,4.33,1.82,33.49,12.64,33.28,10.91-.16-1.34-.84-2.45-1.55-3.45-10.03-14.13-9.15-11.11-7.76-18.03Z"/>
      <path class="cls-3" d="M512.93,740.61c1.82,17.13-2.85,48.51,3.6,59.87,1.43,2.53,3.88,4.73,5.02,7.65.85,2.08.89,4.64,2.02,6.34.92,1.46,3.09,2.48,4.58,1.29,1.65-1.5,1.24-3.87,1.35-6.15-.02-2.46.19-5.17-.98-7.03-6.08-5.01-5.55-14.38-5.49-32.88.03-10.3.03-17.87-.17-29.33-.05-2.39-.13-5.42-2.05-6.99-30.6-8.66-85.66-2.59-112.5,15.73-7.86,6.04-15.58,14.47-21.29,21.84-2.03,2.41-2.77,5.15,1,6.26,7.91,1.47,14.48,6.48,20.72,11.25,7.43,5.25,21.31,18.19,26.98,22.18,1.97-.62-6.43-10.11-7.44-11.53-3.13-3.79-7.03-7.58-10.1-11.28-3.43-3.46-7.59-6.62-11-10.29-1.86-2.13-6.07-4.81-3.61-7.41,5.78-5.19,14.5-9.78,21.32-12.8,4.14-1.26,3.35-3.3,1.04-6.26-.56-.8-2.87-3.66-1.32-3.34,9.42,6.96,19.91,29.18,27.69,44.57,1.05,2.17,2.05,4.28,3.06,6.44.64,1.04,4.46,11.33,5.48,8.12.1-2.71-1.36-5.74-2.18-8.41-4.66-13.7-7.3-20.52-12.63-31.76-1.92-4.17-4.44-9.29-6.15-13.19-.43-1-1.19-2.82-.92-3.62,6.03-5.85,44.4-13.48,70.56-12.42,1.85.14,3.18,1.32,3.39,3.09v.04ZM422.92,746.16c.13-.04.6.56.24.37-.09-.06-.28-.25-.26-.36h.01Z"/>
      <path class="cls-3" d="M607.71,744.99c-.15-1.51-.45-2.34-1.88-2.89-1.88,1.25-3.46,1.87-5.05,3.52,2.4,6.62,3.85,24.24,3.88,29.31.09,13.03.58,9.92,1.24,20.24.43,6.74.59,12.13,4.52,15.56,1.74,1.52,2.59,3.18,2.73,5.37.3,4.52,4.41,4.72,4.52,4.23.78-3.6-.26-7.1-.31-10.62-.07-5.3-4.12-5.83-5.13-14.59-.68-5.88-1.62-11.91-1.53-17.9.16-10.78-1.86-21.29-2.98-32.24Z"/>
      <path class="cls-3" d="M430.09,812.53c-3.02-1.89-7.29-4.59-8.81-4.59-4.18,0,21.69,13.67,22.5,27.57.06,1-.33.65,2.73,1.39,7.04,1.71,13.58,1.08,16.38,9.69,2.38,7.33,15.45-.3,22.88,12.27,2.82,4.77,3.61,7.67,5.46,4.52.12-.21.54-1.39.38-1.58-4.79-5.61-18.05-26.54-19.42-24.52-1.81,2.66,3.21,8.26.68,10.14-1.79,1.34-5.39-.9-6.87-2.57-7.35-8.25-21.65-28.83-29.14-33.69-1.9,2.38-2.33,4.13-6.77,1.36Z"/>
      <path class="cls-3" d="M522.5,726.56c-.3-1.34-4.04-4.02-6.31-5.27-4.67-2.74-10.17-4.85-14.95-6.83-5.5-2.23-10.45-5.17-16.45-4.71-3.39.19-7.64,2.02-5.16,5.28,1.01,1.32,2.42,2.3,3.94,3.34,3.04,2.03,6.67,3.83,10.08,5.29,5.99,2.6,12.65,4.3,19.03,5,2.22.23,10.65.98,9.82-2.08v-.02Z"/>
      <path class="cls-3" d="M624.62,710.34c3.02-4.62,2.27-6.52-3.29-4.64-3.12.9-2.24,1.82-4.26,4.11-1.41,1.75-4.5,4.07-4.82,6.17-.37,2.6,2.39,5.56,4.93,3.69,1.32-.9,2.57-2.56,3.61-3.95,1.25-1.74,2.56-3.51,3.81-5.34l.03-.04Z"/>
      <path class="cls-3" d="M604.76,739.21c1.57-1.31,1.99-2.8,1.31-4.7-1.7-4.75-3.58,2.45-11.59,3.73-.29.05-.24-.02-.19.26.28,1.86,1.79,2.02,3.62,1.95,5.34-.21,1.05,3.6,6.85-1.25Z"/>
      <path class="cls-3" d="M601.76,700.48c1.73-.76,3-1.92,4.16-3.48,1.32-1.75,3.21-4.72.3-5.56-1.34-.41-3.47-.23-5.09.03-.97.17-1.79.41-2.54.79-2,1.04-3.36,2.99-4.7,4.76-1.83,2.5-3.85,5.36-4.91,7.64-.7,1.44-2.3,5.06.74,3.19,2.33-1.42,4.64-3.38,7.02-4.87,1.59-1.03,3.47-1.83,4.98-2.49l.04-.02Z"/>
      <path class="cls-3" d="M478.14,873.01c-2.41,0-1.08,1.54-25.31,16.85-10.97,6.93-26.6,12.99-37.46,17.54,5.75,1.26,19.19,4.24,25.77,4.28,2.07-2.85-.19-.19,12.45-13.01,24.05-24.37,27.56-25.66,24.56-25.66Z"/>
      <path class="cls-3" d="M675.68,855c-4.45-3.05-9.69-4.54-16.03-4.54-2.02,0-2.76.07-2.96,8.14-.19,7.55-1.97,6.71.26,9.01,3.61,3.72,6.06,8.21,8.26,12.85,3.48-1.32,6.59-2.35,9.58-4.38-.05-17.65-.48-18,.97-20.78.12-.23.14-.15-.07-.3Z"/>
      <path class="cls-3" d="M693.47,866.48c-.29-3.88-16.91-16.28-18.07-17.45-2.42-2.45-3.62-3.11-.98-5.04,1.78-1.3,3.04-2.67,1.38-4.61-.81-.95-1.65-1.93-2.65-2.67-5.63-4.12-10.08-9.58-15.15-14.31-3.04-2.84-2.55-4.99-3.8-12.82-.1-.62-3.01-21.64-3.04-21.88-1.95-16.79-9.55-36.4-7.83-34.87-.07-.82-.05-.72-.11-.72-.44-.39-.43-.31-.27-.49.14-.16.13-.09.02-.27-3.96-6.72-3.13-5.76-6.32-9.1-.23-.24-.72-.1-1.04-.02-1.08.29.47,4.3.83,5.33,6.44,18.75,10.6,55.96,9.12,55.96-1.11-.01-1.34-8.3-1.73-11.61-3,.41-3.05-1.05-6.09-6.34-1.94-3.36-2.28-4.55-3.9-4.78-.4-.05-.36-1.97.49,17.3l2.55-.15c0-6.07-.09-4.13,8.22,16.92,12.75,32.3,8.67,31.4,14.05,31.72,7.06.41,31.88,18.14,33.14,20.81,1.38-.91,1.2-.74,1.19-.93Z"/>
      <path class="cls-3" d="M629.32,874.08c-2.34-.86-4.46-1.01-7.13-1.31-1.88-.18-3.96-.34-6.14-.5-7.39-.55-14.99-1.19-22.48-1.83-10.31-.93-21.29-1.94-31.43-2.76-7.91-.64-18.78-1.52-25.8-.86-4.13.37-7.37,1.69-1.61,5.01,5.02,2.79,12.18,5.11,18.1,6.95,12.08,3.54,24.74,7.39,37.14,8.63,7.82.72,15.82.05,23.39-1.95,5.6-1.51,9.84-3.11,13.65-5.38,3.39-2.12,5.72-4.55,2.31-5.98h-.02Z"/>
      <path class="cls-3" d="M500.27,866.03c-.44-3.47-2.14.84-2.64,1.85-.53,1.15-1.19,2.61-1.81,4-1.91,4.3-4.04,9.15-6.02,13.57-.88,2.03-1.81,4.01-2.36,6.11-.54,2.19-.14,3.44,1.28,2.38,1.65-1.25,3.13-3.93,4.25-5.89,1.9-3.29,3.58-7.27,4.96-10.92,1.35-3.6,2.65-7.25,2.33-11.08v-.03Z"/>
      <path class="cls-3" d="M627.71,855.28c-27.3-4.04-97.38-1.39-116.75-.38l.04.46c15.67.08,96.19,1.52,116.71-.08Z"/>
      <path class="cls-3" d="M449.12,860.72c.66-2.03-3.85-.56-5.13-.17-3.06.97-6.25,2.21-9.25,3.41-4.28,1.75-7.08,2.88-10.24,5.33-4.39,3.49-8.26,9.46-11.44,14.45-.79,1.35-4,6.22-.35,3.76,2.23-1.27,4.45-2.78,6.66-4.21,3.99-2.58,7.82-4.99,11.99-7.6,4.7-2.87,9.43-6.17,13.31-9.98,1.54-1.5,3.51-3.06,4.44-4.96v-.02Z"/>
      <g>
        <path class="cls-1" d="M544.66,738.38c-.87-6.77-2.4-9.34-10.67-14.43-3.04-1.87-10.73-1.05-10.18,2.91,1.16,8.38,1.07,17.79,1.45,26.18,1.06,23.76-.3,41.86,4.16,44.42,4.47-3.1,8.12-1.94,9.18-1.94,2.38,0,2.65-2.15,3.46-4.5,1.96-5.71.97-3.8,2-14.33,1.04-10.68,2.93-20.26.6-38.31Z"/>
        <path class="cls-1" d="M624.4,753.44c-1.87-8.09-3.52-16.35-6.97-24.01-.71-1.58-.76-3.73-3-4.46-.15-.05-.09-.06-.21.04-1.88,1.45-2.3,3.71-2.97,5.93-1.31,4.42-1.06,4.45,0,10.67,7.79,45.89,1.33,48.31,7.54,59.1,1.4,2.44,2.11-1.16,8.03.79,1.19.4,2.18-.35,2.23-1.58.44-10.9-1.33-32.09-4.65-46.47Z"/>
        <path class="cls-1" d="M628.14,808.24c-.44-5.46-6.54-4.27-6.62-1.08-.03,1.13-.04,2.41-.04,7.66,0,8.05-.37,8.24,3.87,8.34,4.9.11,3.81-2.28,2.79-14.92Z"/>
        <path class="cls-1" d="M537.3,808.16c0-.29.05-.23-.16-.23,0-2.46.06-5.09-.03-7.65-.04-1.35-1.56-1.9-2.82-1.08-1.43.93-1.17,1.67-1.15,5.71.05,10.92-.46,12.14,1.91,12.37,2.82.27,2.25-2.12,2.25-9.12Z"/>
        <path class="cls-1" d="M453.85,904.35c-4.22,4.27-7.96,7.67-7.01,8.04,2.68,1.07,5.45.98,8.34.98,1.95,0,.71.6,2.97-2.9,1.24-1.91,2.04-3.21,2.45-5.43-6.74-.78-6.63-.82-6.75-.69Z"/>
        <path class="cls-1" d="M660.74,882.15c-.07-2.41-2.24-5.44-3.44-7.14,0,0-3.11,1.61-3.94,2.11,0,0,1,1.05,3.16,7.1,1.09-.47,4.24-1.37,4.22-2.07Z"/>
        <path class="cls-1" d="M456.51,901.53c.82.33,1.47.54,2.75.54,2.11,0,2.9.09,3.97-1.15,1.12-1.31,3-4.93,3.98-9.32-4.52,4.27-7.64,5.7-10.7,9.93Z"/>
        <path class="cls-1" d="M656.3,874.04s-1.92-2.9-5.97-6.63c0,0-1.18.3-2.27.96,1.48,2.81,4.64,7.73,4.64,7.73.68,0,3.48-1.24,3.61-2.06Z"/>
      </g>
      <g>
        <path class="cls-12" d="M825.48,669.32c-2.14-10.75-3.42-21.7-6.5-32.36-4.49-15.53-8.78-32.92-25.94-59.49-4.19-6.49-10.59-18.69-9.53-18.69,1.76,0,2.72-.96,4.82-2.32,14.64-9.5,28.63-23.3,28.65-23.31,5.94-4.09,5.19-5.27.91-7.55-24.91-13.26-52.85-42.68-62.43-63.72-.2-.44-.48-1.05-1.09-1.37.2-1.49-.93-2.4-12.99-28.79-12.43-27.22-13.17-25.41-13.28-26.8-.03-.42-.09-1.12-.68-1.55.37-2.23.05-.48-11.35-24.64-.49-1.04,2.32-7.07,2.64-7.59.35-.55,18.73-34.56,26.08-52.48,4.14-10.1,17.65-47.26,15.26-57.91-.68-3.04-2.41-2.56-7.94-3.02-20.26-1.65-24.39-3.2-39.8-1.83-23.52,2.09-59.77,4.06-88.95,14.34-1.75.61-1.94,1.13-2.11,2.33-16.22,3.37-17.55-.51-22.45-.51-1.91,0-.17-.85-8.31-2.05-29.79-4.41-29.62-5.89-63.01-5.34-4.43.07-5.12.64-6.93.39-2.75-.39-5.43-.22-8.2-.03-4.82.32-5.54,0-6.94.75-2.19-1.49-42.27,1.85-69.91,11.08-2.78.93-3.99,1.01-4.25,2.52-.11.62-3.12,1.01-6.01-1.09-46.55-33.93-168.6-96.08-176.58-81.38-4.57,8.42-4.76,15.68-5.54,28.7-2.17,36.47-2.77,30.75-2.1,46.44,2.32,53.57,1.05,44.5,8.06,93.37.76,5.26,1.71,22.76,14.36,69.5,8.47,31.28,8.4,31.82,10.45,34.3.77.93.28.83,1.48-.46.28-.3,2.78,7.1.67,11.58-11.97,25.45-29.95,74.18-58.34,98.61-3.03,2.6-.09,4.16,1.84,5.45,21.47,14.27,41.2,23.85,66.86,28.09.4.07.76.1,1.11.1,1.66,0,9.89-6.08,5.48,3.71-15.14,33.67-22.67,53.63-28.4,90.1l2.67-1.84c1.64-1.13,1.73-1.91,1.46-.95-.39,1.35.38,3.4,3.96,2.3,26.17-7.6,28.18-8.3,55.73-14.95,33.81-8.16,25.62-7.08,67.68-12.85,39.75-5.58,36.74-3.87,39.9-4.84,1.33-.41,61.62,15.78,62,15.97.02.01,57.73,31.75,71.92,31.75,1.78,0,3.37-.45,4.88-1.38,4.39-.39,5.4-9.21,12.1-20.27.99-1.06,2.15-11.74,7.14-12.51,20.63-3.2,21.44,1.01,76.73-13.61,9.86-2.61,21-8.38,26.57-11.84,11.6-7.18,15.64-5.35,21.26-5.35,22.22,0,72.35,17.6,95.59,33.88,1.33.93,2.71,1.9,4.4,2.44,1.52,1.73,3.4,3.26,5.76,4.67,1.73,1.04,3.66-.05,3.71-1.98.09-3.24-1.12-18.12-2.62-25.67Z"/>
        <path class="cls-12" d="M456,509.22c-.08,0-.16,0-.24-.01-1.8-.13-3.61-.26-5.41-.39l-.37-.03c-5.1-.37-10.37-.76-15.56-1.08-3.81-.23-7.67-.33-11.41-.42l-1.64-.04s-.09,0-.13,0c-.94,0-1.67.28-2.17.84-.53.59-.74,1.39-.62,2.45.41,3.89,1.74,7.51,3.02,11.01l.17.46c2.73,7.47,8.44,11.46,16.53,11.53.15,0,.29,0,.44,0,.21,0,.43,0,.64,0,.34,0,.63-.01.9-.03,4.33-.35,8.18-1.89,11.75-4.68,5.65-4.43,6.58-10.49,7.47-16.36l.22-1.41-.46-.49c-1.16-1.25-2.39-1.31-3.12-1.35Z"/>
      </g>
      <g>
        <path class="cls-11" d="M750.13,258.31c-31.42-11.29-114.05,2.73-134.83,13.44,8,2.79,20.73,10.18,26.91,14.3,60.73-27.52,107.15-25.3,107.91-27.74Z"/>
        <path class="cls-11" d="M822.44,528.68c-8.49,4.19-20.73,12.52-73.13,7.44,6.87,6.44,34.27,23.65,34.27,23.65,11.69-2.91,40.68-30.81,38.86-31.09Z"/>
        <path class="cls-11" d="M740.39,276.31c-27.17,68.26-37.33,73.41-37.33,73.41l9.8,16.73c32.37-61.52,29.89-88.5,27.53-90.14Z"/>
        <path class="cls-11" d="M509.99,264.38c-40.19-3.21-81.37,13.61-81.37,13.61l13.83,11.33c21.63-19.42,67.54-24.94,67.54-24.94Z"/>
        <path class="cls-11" d="M411.17,299.99c-5.76,2.94-29.41,12.24-78.78,75.34-8.94,11.43-25.37,23.44-68.73,127.45-21,52.18-50.99,79.29-51,79.29,23.06,19.29,50.89,29.76,78.91,31,20.11-32.65,44.42-61.36,44.42-61.36-15.11,5.24-40.49,17.76-56.74,36.13-3.17-3.97,4.61-98.71,94.36-241.09,12.2-19.34,38.22-47.1,37.56-46.76Z"/>
      </g>
      <path class="cls-8" d="M383.61,318.81c-31.9-42.17-76.01-77.28-121.63-96.25-14.09,64.85,19.7,220.45,25.64,220.84,17.66-37.16,67.37-96.28,96-124.59Z"/>
      <path class="cls-8" d="M598.7,270.35c-41.61-12.95-96.18-6.35-96.18-6.35,36.37,18.15,103.79,134.77,103.79,134.77,3.3-25.14,5.91-84.55-7.61-128.42Z"/>
      <path class="cls-8" d="M704.21,351.69c16.25-27,33.27-55.48,33.1-77.3-24.12,0-73.1,18.06-81.82,21.7,0,0,30.49,25.36,48.72,55.61Z"/>
      <path class="cls-8" d="M703.86,386.56c10.89,7.12,25.21,19.96,25.94,20.47-.41-1.69-8.36-24.37-16.18-34.09-.46-.29-21.6-4.64-34.52-2.65-1.64.25,3.35,2.27,24.77,16.28Z"/>
      <path class="cls-8" d="M735.35,414.94c-9.53-3.99-31.17-11.16-43-12.68-.98-.13-.19.86,8.15,7.2,34.2,25.96,55.8,52.14,56.66,53.3.4-1.26-19.97-45.28-21.82-47.82Z"/>
      <path class="cls-8" d="M528.74,458.45c-10.02-4.14-72.21,2.19-83.98,7.93-8.08,3.95,77.21,23.42,115.33,24.02,9.77.15-4.5-20.86-31.35-31.96Z"/>
      <path class="cls-8" d="M531.39,320.69c-.22.03-2.83,15.79,3.12,40.42,2.79,11.55,46.23,30.79,47.73,31.06,4.25.77-34.57-63.2-50.85-71.48Z"/>
      <path class="cls-8" d="M670.25,461.27c-15.85,2.18-27.06,22.71-28.27,28.65,12.44.44,68.42-21.21,75.8-29.17.76-.82-22.73-2.89-47.53.52Z"/>
      <path class="cls-8" d="M644.84,347.59c2.96-10.32-13.68-26.9-20.65-29.58,2.97,53.97-7.03,78.34-3.37,74.06,5.61-6.56,17.86-22.97,24.02-44.49Z"/>
      <path class="cls-8" d="M364.96,427.06c-14.05.35-27.94,3.53-40.02,7.48-4.42,9.28-8.44,18.22-12.1,26.78,30.11-23.51,52.12-34.27,52.12-34.27Z"/>
      <path class="cls-8" d="M393.78,383.55s-17.47-2.12-43.87,2.93c-5.19,9.24-10.02,18.22-14.51,26.95,17.94-10.99,38.94-22.52,58.38-29.88Z"/>
      <path class="cls-9" d="M703.06,349.72c.01.05.03.11.04.16-18.33-29.44-47.61-53.8-47.61-53.8,8.42-3.51,54.35-20.46,79.22-21.64l2.52,3.02s-31.43,7.52-56.11,22.92c0,0,12.73,16.55,21.94,49.34Z"/>
      <path class="cls-9" d="M383.61,318.81c-28.63,28.31-78.34,87.43-96,124.59,10.29-57.94,61.69-121.05,61.69-121.05-15.2-39.15-87.29-98.83-87.29-98.83l-.26.13c.08-.37.15-.73.23-1.09,45.62,18.97,89.73,54.08,121.63,96.25Z"/>
      <path class="cls-9" d="M737.23,277.47s-31.43,7.52-56.11,22.92c0,0,12.73,16.55,21.94,49.34.01.05.03.11.04.16-18.33-29.44-47.61-53.8-47.61-53.8,8.42-3.51,54.35-20.46,79.22-21.64.89-.04,1.76-.07,2.6-.07,0,1.01-.02,2.04-.09,3.08Z"/>
      <path class="cls-9" d="M294.8,433.79c6.5-12.94,11.96-22.68,16.6-30.21-4.32,6.13-10.3,15.91-16.6,30.21Z"/>
      <path class="cls-9" d="M266.79,502.78c16.18-16.73,32-30.48,46.06-41.45,3.65-8.57,7.67-17.5,12.1-26.78-22.1,7.24-38.18,17.09-38.18,17.09-5.7,11.47-19.97,51.15-19.97,51.15Z"/>
      <path class="cls-9" d="M335.41,413.42c4.49-8.72,9.32-17.71,14.51-26.95-9.57,1.83-20.31,4.6-31.81,8.76,0,0-2.61,2.53-6.71,8.34-4.63,7.53-10.1,17.28-16.6,30.21-1.32,3-2.66,6.2-4,9.61,0,0,19.24-14.44,44.6-29.97Z"/>
      <g>
        <path class="cls-4" d="M766.77,548.86c-4.82-3.31-13.99-7.65-17.45-8.3,0,0,7.58,7.3,9.41,9.43-1.47-.36-20.32-8.55-22.17-10.16-1.95-1.69-2.65,6.18-17.19,7.97-20.02,2.46-53.46.76-64.83-16.6-12.17-3.7-35.38-49.25-37.56-57.44-2.18-8.19-1.11,8.82-5.09,8.82-1.18,0-1.28-3.52-3.07-3.52-2.11,0-34.25,61.5-62.41,69.13-3.28.89-15.55,4.59-26.15,5.23-29.32,1.77-56.1,1.51-83.22-9.44-13.36-5.39-15.98-20.68-17.92-20.29,0,0-11.54,0-35.4,8.93l6.59-8.93c-69.68,7.8-116.28,106.18-125.83,186.69,2.32-1.6,94.37-28.18,159.13-32.55,40.16-4.73,121.24,41.43,147.81,45.74,3.97-.19,15.46-20.28,22.24-34.69,24.98.85,83.55-8.01,116.1-32.86,0,0,73.95,4.08,118.36,46.96,0,0,7.41-102.61-61.34-154.13Z"/>
        <path class="cls-4" d="M480.85,549.56c-1.64,1,46.09,2.21,69.37-5.79,13.72-4.71,21.64-37.28,21.64-37.28h-76.37c-2.7,0-16.95,39.13-14.64,43.07Z"/>
        <path class="cls-4" d="M422.12,521.3c5.1,13.97,20.24,14.11,29.34,6.98,5.53-4.33,6.33-10.19,7.38-17-.92-.99-1.46-1.3-2.87-1.37l-6-.43c-21.36-1.57-28.74-1.55-28.72-1.54-1.43,0-2.28.8-2.1,2.52.41,3.81,1.71,7.38,2.98,10.85Z"/>
        <path class="cls-4" d="M656.48,525.38c2.41,6.32,10.59,10.51,20.73,6.77,9.37-3.45,12.05-8.36,12.42-18.34.11-2.83-1.06-3.59-3.81-3.63q-30.32-.39-31.29.75c-1.82,2.01.94,11.77,1.96,14.45Z"/>
        <path class="cls-4" d="M698.45,542.55c38.12,6.87,40.3-14.96,42.97-30.77l-29.09-1.82c-3.94,10.97-13.88,32.59-13.88,32.59Z"/>
      </g>
      <path class="cls-5" d="M815.94,684.12c-51.69-64.37-85.98-49.89-83.31-78.64.19-2.02-.95-.93-1.41.44-32.71,97.67-203.57,75.04-301.33,40.22-62.73-22.35-72.9-31.14-72.9-31.14,27.8,31.98,48.45,31.25,21.38,39.29-97.5,28.97-105.1,40.12-105.12,40.15-8.24,16.74-5.73,14.83-5.73,14.83,122.16-36.01,160.35-33.28,177.72-30.24,15.76,2.76,119.79,50.38,130.73,43.05,0,0-10.15-.61-31.28-16.51-6.43-4.84,44.72,1.74,48.21-15.12,0,0,5.79.6,52.17-8.87,81.2-16.57,79.12-56.16,82.78-57.41-3.8,24.68-21.56,30.63-9.22,30.63,42.8,0,105.32,43.07,107.25,43.58-.31-3.02-7.89-11.73-9.94-14.27Z"/>
      <path class="cls-6" d="M494.67,517.53c-.03-1.42,0-10.36,0-10.36,1.56-1.26,45.7.03,80.96-1.55-1.99,6.51-9.85,35.94-31.79,38.85,0,0,17.27-9.88,17.61-27.67,0,0-43.85,2.06-66.78.73Z"/>
      <path class="cls-6" d="M723.93,541.96c3-3.09,10.17-12.09,11.39-20.18,0,0-9.09-.01-24.37-.02l.73-11.8,33.56.73c-.06,12.39-8.19,31.27-21.3,31.27Z"/>
      <path class="cls-2" d="M452.78,837.17c12.24,3.36,7.28,11.6,14.9,12.7,8.33,1.2,13.76,1.22,18.29,8.88,2.71,4.58,4.49,7.48,6.05,2.24,0,0,.98-2.7,1.74-4.89-.9,10.29-5.05,19.44-6.45,22.93-5.1,12.67-12.56,23.98-20.14,35.21-8.74-.37-9.52-.26-10.81-1.1,1.14-2.6,1.8-3.1,3.98-7.9-2.21-.26-4.26-.49-6.31-.73-5.83,5.91-6.36,6.16-7.09,7.66-1.99-.09-4.05.33-5.92-.73,2.31-3.17,27.18-27.23,34.65-34.72,14.04-14.09,3.83-20.93-.3-21.49-3.36-.45-6.71-1.13-10.08-1.39-7.1-.56-4.29-8.23-10.4-11.79-4.57-2.66-8.3-2.66-10.25-2.34-20.47,3.28-41.37,17.68-58.04,30.01-3.15,2.33-5.79,3.56-8.27.32-2.74-3.57,4.22-18.44,6.92-21.57-3.59,8.86-4.48,12.85-4.68,17.22-.11,2.36.74,3.9,3.1,2.21,3.26-2.32,6.81-5.03,21.52-14.74,15.82-10.46,32.14-15.24,32.14-15.24-9.71-1.71-19.05-2.26-24.61-2.08,14.32-2.42,35.99.21,40.07,1.34ZM466.82,892.29c-3.37,3.18-8.07,6.93-9.94,9.14,0,0,3.65.46,4.97.48,0,0,2.89-5.8,4.97-9.62Z"/>
      <path class="cls-2" d="M637.26,794.31c7.75,15.96,19.57,51.19,19.57,51.19,19.02,4.96,30.22,15.9,29.72,16.48-8.11-5.44-21.33-11.32-27.13-11.28-1.38,0-2.05.4-2,1.97.13,3.95-.08,8.66-1.29,12.35-.33,1.01.33,1.75.98,2.43,3.58,3.7,6.03,8.12,8.21,12.72-1.37,1.25-3.15,1.49-4.82,1.99-.06-2.33-2.19-4.75-3.39-6.45l-3.09,1.61c.66,1.84,1.97,4.75,2.62,6.6-1.36.7-2.67,1.51-4.22,1.71-2.16-5.3-4.65-10.44-7.75-15.25-2.71-4.2-3.78-8.94-5.42-13.87,1.89,2.37,2.49,4.3,4.87,4.64,4.98.72,7.46,3.31,8.15,1.4,1.2-3.31,3.08-8.94-.46-19.65-7.71-23.34-13.02-41-15.29-48.32-.14-.46.51-.71.72-.28ZM648.89,868.43c1.12,2.12,2.89,5,4.29,6.95,0,0,2.08-.93,2.66-1.24,0,0-2.39-3.67-5.76-6.19,0,0-.79.28-1.2.49Z"/>
      <path class="cls-2" d="M473.87,914.84c4.8-7.33,9.1-14.94,11.98-18.52-1.11,4-1.58,4.81-9.04,18.58-.99.27-1.96.25-2.94-.06Z"/>
      <path class="cls-2" d="M546.41,549.83c-3.34.9-58.15,15.59-109.63-5.2-10.28-4.15-18.36-13.17-19.73-21.31-5.34-19.74-.42-10.55-23.36-23.94.54-1.89,0,.06,29.15,1.17,16.26.62,33.29,1.71,39.88,1.72,112.96.1,114.01,1.55,126.54-4.67,1.91-.89,2.57-1.7,3.94-3.14-8.46,13-16.51,13.55-18.85,13.66-40.82,1.82-70.32-.21-71.91,1.08,0,0,.67,11.21-4.33,22.66-4.51,10.33-10.79,15.92-10.79,15.92,0,0,24.52,2.39,55.22-4.55,16.06-3.64,26.67-21.82,30.24-28.81-7.2,22.72-15.29,32.42-26.36,35.42ZM458.1,511.51c-1.81-1.94-34.67-2.83-36.76-2.88-1.2-.03-1.63.53-1.5,1.75.41,3.88,1.78,7.51,3.11,11.14,4.56,12.49,19.08,13.27,28.09,6.21,5.45-4.27,6.16-10.37,7.06-16.22Z"/>
      <path class="cls-2" d="M719.45,548.49c-20.15,2.11-42.22-.57-54.98-7.33-9.01-4.77-6.98-4.19-10.38-9.37-2.2-6.71-4.35-13.43-6.63-20.12-1.85-5.43-7.1-11.52-6.37-14.06l-.06.07c14.36,6.93,11.36,6.12,28.87,6.58,58,1.51,56.01,1.87,74.66,1.76,11.04-.07,13.24-.41,16.38-1.5-4.68,5.09-10.18,7.68-15.72,7.92-29.76-.79-30.07-1.25-29.89.57.29,2.99-5.01,20.2-14,26.8-.6.44-1.42,1.02-1.18,1.73.08.22.39.5.62.52,6.52.41,9.65,1.23,22.02-.87,12.37-2.1,17.79-16.44,20.6-18.88-.51,6.98-6.38,24.33-23.95,26.17ZM654.62,513.37c.25,4.04,1.07,7.96,2.52,11.75,2.27,5.96,10.1,9.96,19.84,6.37,9.09-3.35,11.61-8.03,11.97-17.72.14-3.65-34.53-3.77-34.32-.41Z"/>
      <path class="cls-2" d="M383.61,318.81s-6.05-7.09-20.9-22.21c-49.35-50.24-107.01-76.18-110.17-77.73.06-.17,82.43,23.32,131.07,99.94Z"/>
      <path class="cls-2" d="M625.14,554.66c3.35.64,8.3,1.26,10,3.99,1.74,3.29-.9,7.29-3.11,10.01-2.23,2.63-4.63,5.1-7.17,7.44-2.06,1.84-4.4,3.82-7.3,3.8-5.07-.01-12.91-6.76-16.84-10.2-1.71-1.61-3.61-3.09-4.73-5.04-1.34-2.25-1.12-5.26.86-7.09,2.85-2.65,7.27-3.13,10.95-3.48,2.36-.15,4.45-.13,6.95-.11,3.47.05,6.9.14,10.33.68h.05Z"/>
      <path class="cls-2" d="M618.39,609.94c-1.19,4.95,2.42,6.55,6.57,8.35,1.74.76,3.49,1.47,5.27,2.1,8.71,3.28,14.33,1.31,21.56-4.05,2.68-1.91,6.81-5.6,8.55-7.17.26-.2.47-.42.7-.57.13-.08.21-.12.25-.09.16.09-.36,1.1-1.47,2.8-.67,1.02-1.31,1.93-2.13,3.02-4.17,5.59-9.62,10.51-15.61,13.91-3.62,2.34-7.08,1.33-10.97.15-3.58-1.18-7.13-2.44-10.58-3.99-2.09-.94-4.15-2.02-6.29-2.82-3.36-1.36-6.77-1.22-10.02.17-6.51,2.76-12.91,5.96-19.77,7.74-3.54.9-7.23.35-10.28-1.59-7.47-4.47-13.66-12.15-19.78-21.18-1.53-2.25-3.05-4.49-4.29-6.82-1.13-2.08-2.57-5.82-1.08-5.16.74.34,2.28,2.27,3.14,3.31,1.56,1.91,3.15,3.83,4.74,5.7,4.67,5.45,9.53,11.43,15.14,15.66,3.7,2.99,7.66,4.22,12.37,3.03,6.69-1.71,13.14-4.35,19.33-7.38,3.98-1.93,7.93-4.33,11.98-6.07,2.16-.85,3.16-1.02,2.69.92v.03Z"/>
      <g>
        <path class="cls-2" d="M643.04,752.27s0-.08,0-.12c0,0-.01,0-.02-.01v.13Z"/>
        <path class="cls-2" d="M794.65,572.36c-5.7-7.2-6-8.58-6-8.58,7.67-3.98,47.66-32.58,36.52-39.87-60.5-39.59-61.42-58.95-102.95-141.49-2.89-5.74-.58-.26,15.54-34.54,10.06-21.4,25.83-61.38,26.73-85,.14-3.64.56-5.01,1.07-5.63s.14-1.56-.65-1.68c-44.51-7.15-94.7-3.47-129.47,5.64-23.76,6.23-24.62,8.13-30.02,6.63-67.83-18.8-160.1-5.47-180.71,4.06l-27.25-17.55c-67.62-43.53-148.18-77.12-154.39-61.15-25.91,66.64,11.71,246.66,26.12,285.99.69,1.87.41,3.58-.43,5.36-.31.66-10.84,24.7-15.68,32.6-13.66,22.31-18.12,28.83-36.16,46.25-.53.51-.1,1.41.63,1.31,1.54-.21,3.67-.5,5.77-.81,4-.6-4.71,7.73-14.76,15.52-3.96,3.07-3.78,3.72.42,6.61,44.61,30.67,75.12,34.07,75.12,34.07-18.15,44.17-25.92,81.66-25.62,91.36.16,5.22,4.39,4.15,6,3.65,22.33-7.01,74.27-20.81,106.85-26.49,0,0-8.43,14.12-13.03,30.92-3.23,11.79,14.18,24.53,14.18,24.53-4.24,11.52-1.22,19.03,3.71,24.75,1.79,2.08,2.58,2.67,1.08,5.17-13.83,22.98-27.04,59.12-35.77,84.48-2.51,7.29-4.6,14.79-4.45,22.66.21,1.31,1.3,2.04,2,3.03l7.2,2.78c-1.23-6.34-.83-12.56,1.06-18.74.34-1.11,10.21-44.42,34.27-88.17.86-1.57,2.13-2.04,3.87-1.69,24.71,4.89,62.94,45.8,66.04,48.35-2.24-4.02-16.8-23.09-45.28-42.42-11.61-7.88-20.6-10.14-20.6-10.14,5.71-7.96,12.36-15.09,19.59-21.64,23.7-21.48,84.35-25.47,113.65-19.59,3.71.75,3.21.14,3.29,18.1.16,33.32-.13,34.56.72,41.75,1.12,9.54,5.88,7.74,5.8,12.12-.07,3.86-.09,7.73-.13,11.59.29.88.58,1.76.88,2.63,1.32,3.93,9.03,3.68,11.47,1.71,1.88-1.52,1.79-3.12,1.75-9.21-.05-7.92-1.17-10.91,2-14.66,3.4-4.02,4.03-18.63,4.08-23.9.3-27.05.49-32.14.49-32.14,8.5-1.85,23.13,4.57,18.52,1.72s-12.87-5.67-18.39-6.42c0,0,.12-2.06,0-4.39-.86-15.08-54.79-21.31-56.93-21.27s-2.34-.52,26.24,12.65c2.23,1.03,2.68,1.94,2.4,3.89-.4,2.74-3.9.06-22.24-.84-63.87-3.13-89.58,8.14-113.96,37.14-1.05,1.25-2.27,3.17-3.54,1.72-1.44-1.63-7.28-7.07-5.55-15.61,2.35-11.65,15.36-29.28,21.79-39.89-6.38,6.22-17.92,24.24-18.2,24.66-4.9,7.49-14.57-6.88-14.61-11.86-.07-7.72,10.33-25.84,14.72-32.77,1.65-2.61,4.05-3.85,6.89-4.16,54.44-5.9,47.57-9.25,136.89,25.39,26.7,10.36,13.89,5.89,36.57,13.43,7.31,2.43,15.72,6.16,27.59.7,0,0-3.71-.75-5.19-1.21-.91-.64,21.14-20.17,19.88-23.48-4.17-.77-9.97,6.76-13.06,7.38,0,0,2.57-5.68,5.23-10.15,3.04-5.1,11.98-6.01,16-6.45,10.21-1.12,19.95-3.76,20.54-.29.53,3.15.15,10.16.15,10.18-.16,2.27,2.36-.85,3.06-1.77,18.67,8.46-5.44,28.9-11.99,28.72-1.41-3.24-2.86-6.58-4.31-9.92-2.85-7.82,2.79-11.46,3.61-12.93-4.05,1.35-7.27,4.06-10.47,6.68-24.27,19.97-16.55,26.16-16.41,26.71l.08.03c3.6-.58,6.4-2.69,9.2-4.81,1.23-.93,1.58-.63,2.14.93,2.01,5.62-11.64,10.31-9.88,12.64.46.61,8.29-3.83,9.87-4.88,1.44.56,1.53,1.72,1.63,2.71,1.15,11.28,3.8,44.03,4.5,50.08.98,8.52,5.06,9.55,5.13,14.57.05,3.52-2.9,17.87,6.46,17.87,1.65,0,10.04,1.02,9.76-7.08-.72-20.42.82-19.4.95-23.86.29-9.5-1.22-35.5-10.25-61.81-.65-1.9-.41-2.35,1.27-3.4,1.39-.87,2.14-.69,2.89.9,16.49,34.77,14.34,71.33,17.31,71.43,1.15.04,1-.12-.04-10.58-3.38-34.11-9.66-46.44-10.01-50.33-.05-.56.93-.53,1.02-.44,3.06,3.21,64.11,106.75,64.4,120.13,1.68-.93,3.68-1.57,3.63-4.06-7.99-22.16-36.45-76.45-72.68-130.73,10.3-7.5,22.81-21.2,5.38-31.82-1.27-.77-2.08-1.75-2.13-3.34-.19-5.92-1.08-4.95,4.72-6.08,5.39-1.04,18.77-1.93,45.76-13.34,16.59-7.02,21.54-11.41,27.7-11.1,68.55,3.45,117.04,51.14,118.85,41.55,3.52-18.64-4-89.01-37.45-131.28ZM535.07,817.05c-2.16-.21-1.63-.68-1.72-15.74-.01-2.42,3.46-3.07,3.53-1.02.08,2.62.03,5.25.03,7.87.05,0,.11,0,.16,0,0,7.08.54,9.13-2,8.89ZM543.36,738.26c1.57,20.29.22,30.19-.15,46.84-.06,2.69-1.3,5.37-2.09,8.03-1.39,4.67-5.1-.53-11.72,4.07-.94-.53-1.24-1.27-1.36-2.01-.53-3.35-1.22-6.66-1.21-10.09.04-7.68.41-43.66-1.55-57.83-.8-5.78,17.08-1.98,18.08,11ZM625.35,822.93c-4.11-.1-3.65-.08-3.65-8.83h.02c0-6.79-.6-8.8,2.37-9.34,1.86-.34,3.58.59,3.81,3.5,1.03,12.78,1.98,14.77-2.55,14.66ZM628.05,781.42c.19,4.16,1.27,8.26.8,13.02,0,4.14.59,7.68-1.95,6.83-5.88-1.95-6.66,1.47-7.9-.69-6.51-11.3,1.19-5.04-8.32-63.8-.39-2.38.48-4.6,1.09-6.81.49-1.74,1.02-3.58,2.58-4.79,3.77,1.23,12.6,32.5,13.69,56.23ZM826.71,694.96c-.08,2.96-17.43-12.2-45.44-23.82-54.1-22.45-68.48-14.12-66.75-17.67,2.18-4.49,11.35-14.37,13.63-29.57-3.57.22-2.21,24.35-48.04,44.65-41.73,18.49-125.03,16.42-126.83,20.86-.45,1.11,26.55,4.36,34.36,5.51-.08,1.58-16.26,25.58-21.6,23.94-23.73-7.29-70.59-30.97-70.47-33.29,1.34-.52,2.7-.2,4.02.05,19.68,3.7,29.52,3.83,28.49,2.33-.77-1.13-48.63-10.55-70.65-16.39-21.84-5.8-43.73-14.62-50.46-17.1-2.16-.79,33.22,16.11,29.01,17.33-1.27.37-61.47,6.2-90.28,13.47-36.23,9.14-62.68,15.8-73.09,19.19-5.65,1.84-6.08.98-6.08-1.08,10.02-63.73,48.27-126,52.1-134.14-1.03-.01-1.74.53-2.3,1.33-6.67,9.49-13.64,18.77-19.58,28.76-6.74,11.34-6.4,13.07-10.18,12.44-25.76-4.25-45.42-13.91-66.59-27.98-8.07-5.36,1.68-.18,22.78-34.43,21.07-34.19,27.49-54.11,40.34-82.46,4.47-9.86,3.72-10.01,8.01-17.68.94-3.31,2.73-6.22,4.35-9.22,11.68-26.85,29.8-51.83,31.22-53.76,15.94-21.48,44.92-54.84,46.88-57.1.44-.51-57.1,48.74-85.53,108.56-23.54-74.74-28.4-159.97-29.33-164.95.23,1.72-4.64,74.64,24.75,171.09,1.74,5.71-10.93,21.36-11.44,19.5-44.54-160.16-29.81-268.4-19.7-267.87,30.4,1.62,97.29,37.54,123.52,52.42,53.8,30.54,66.02,44.86,67.66,42.76.64-.82-7.7-7.51-11.22-10.28-.6-.47-.27-1.62.54-1.88,51.99-16.98,154.08-22.64,208.4,11.22,18.6,11.59,36.01,29.2,38.22,29.6-3.78-6.02-12.99-15.4-17-19.02-.66-.6-1.41-1.17-1.64-2.21,4.75-4.7,53.05-19.21,72.38-20.6,8.46-.61-16.5,51.66-25.37,68.68,27.6-40.48,32.32-70.75,33.66-71.52,2.76-1.6,7.88-4.88-7.83-2.59-24.39,3.55-49.86,9.56-73.86,18.66-6.1,2.31-4.26,2.8-9.85-1.35-1.47-1.09-15.99-11.55-27.88-17.02.14-.97.88-1.17,1.61-1.43,32-11.27,87.11-17.59,133.67-12.05,3.88.46,1.72,11.8.88,15.61-9.2,41.74-39.75,99.98-41.91,96.16-1.06-1.87-20.68-35.04-25.97-38.42-.32,1.18,8.76,15.55,14.67,26.62,42.06,78.78,45.7,112.57,83.1,145.84,31.47,27.99,34.44,18.83,27.81,28.41-7.78,10.78-27.4,22.36-29.85,24.1-1.89,1.34-3.52,1.18-5.46-.23-4.37-3.18-14.05-10.51-16.96-9.99,8.47,9.82,28.35,20.42,47.28,68.72,9.18,23.41,16.14,67.02,15.8,79.3Z"/>
        <path class="cls-2" d="M726.62,403.79s-.03-.06-.06-.06l.06.06Z"/>
        <path class="cls-2" d="M323.21,392.61s-.03.02-.03.03l.03-.03Z"/>
      </g>
      <path class="cls-2" d="M318.55,569.29c.12-.78.39-1.46,1.19-1.79-.23.7-.5,1.39-1.19,1.79Z"/>
      <path class="cls-2" d="M319.6,567.58c.24-.28.48-.56.72-.84-.06.44-.28.74-.72.84Z"/>
      <path class="cls-2" d="M762.7,546.27c.35.24.7.48,1.05.72-.35-.24-.7-.48-1.05-.72Z"/>
      <path class="cls-2" d="M425.78,750.42c-5.12-8.6-.44-4.28,2.92.11,3.26,4.08,6.72,9.42,9.62,14.23,7.14,11.84,13.79,24.68,19.53,36.7,2.53,5.33,5.06,10.97,7.17,16.41.69,1.81,1.42,3.82,1.86,5.42.28,1.05.36,1.71.26,1.9-.06.1-.14.07-.26-.03-.25-.25-.45-.54-.68-.9-1.48-2.42-3.2-6.04-5.26-10.41-8.43-17.75-17.82-36.24-28.35-52.91-2.22-3.47-4.67-7.02-6.79-10.49l-.02-.03Z"/>
      <path class="cls-2" d="M536.3,853.55c4.02-.65,15.26-.73,22.78-.85,11.35-.11,26.01.1,36.16.54,3.35.14,6.04.29,7.74.44,1.65.14,3.04.34,1.02.52-4.81.31-10.59.29-15.76.35-9.73.05-19.9.05-29.55-.09-5.1-.07-10.44-.16-15.42-.32-2.18-.08-4.51-.16-6.19-.32-.76-.08-1-.17-.78-.25h0Z"/>
      <path class="cls-7" d="M909.44,546.68c-23.18,205.6-197.65,365.38-409.44,365.38h0c-227.57,0-412.06-184.49-412.06-412.06h0c0-227.58,184.49-412.06,412.06-412.06h0c211.79,0,386.26,159.79,409.44,365.38h88.4C974.31,199.07,760.4,0,500,0h0C223.86,0,0,223.86,0,500h0c0,276.14,223.86,500,500,500h0c260.4,0,474.31-199.07,497.85-453.32h-88.4Z"/>
    </g>
  </g>
</svg>