<?xml version="1.0" encoding="UTF-8"?>
<!DOCTYPE svg PUBLIC "-//W3C//DTD SVG 1.1//EN" "http://www.w3.org/Graphics/SVG/1.1/DTD/svg11.dtd">
<svg xmlns="http://www.w3.org/2000/svg" version="1.1" width="895px" height="895px" style="shape-rendering:geometricPrecision; text-rendering:geometricPrecision; image-rendering:optimizeQuality; fill-rule:evenodd; clip-rule:evenodd" xmlns:xlink="http://www.w3.org/1999/xlink">
<g><path style="opacity:0.996" fill="#0057ff" d="M 875.5,375.5 C 850.5,375.5 825.5,375.5 800.5,375.5C 797.167,375.5 793.833,375.5 790.5,375.5C 765.2,267.046 703.533,186.546 605.5,134C 570.71,116.634 534.043,105.134 495.5,99.5C 490.731,98.111 485.731,97.4443 480.5,97.5C 455.455,95.8477 430.455,96.181 405.5,98.5C 400.586,98.3618 395.919,99.0285 391.5,100.5C 275.084,121.469 188.917,183.803 133,287.5C 116.322,320.367 105.156,355.033 99.5,391.5C 98.0285,395.919 97.3618,400.586 97.5,405.5C 86.1554,528.918 126.155,632.085 217.5,715C 267.387,757.151 324.72,783.651 389.5,794.5C 393.919,795.972 398.586,796.638 403.5,796.5C 532,808.3 637.834,765.3 721,667.5C 755.552,623.759 778.718,574.426 790.5,519.5C 818.822,520.39 847.156,520.724 875.5,520.5C 852.485,646.239 788.152,744.406 682.5,815C 570.034,884.162 450.034,901.162 322.5,866C 197.009,826.018 106.176,746.518 50,627.5C 9.05195,532.843 1.38528,435.51 27,335.5C 63.5573,209.841 140.057,117.341 256.5,58C 360.099,9.77445 466.766,1.77445 576.5,34C 711.393,79.5596 804.56,168.726 856,301.5C 864.449,325.675 870.949,350.341 875.5,375.5 Z"/></g>
<g><path style="opacity:1" fill="#4fd7fe" d="M 480.5,97.5 C 485.269,98.889 490.269,99.5557 495.5,99.5C 534.043,105.134 570.71,116.634 605.5,134C 703.533,186.546 765.2,267.046 790.5,375.5C 793.833,375.5 797.167,375.5 800.5,375.5C 797.713,376.477 794.713,376.81 791.5,376.5C 799.782,424.235 799.448,471.902 790.5,519.5C 778.718,574.426 755.552,623.759 721,667.5C 637.834,765.3 532,808.3 403.5,796.5C 399.081,795.028 394.414,794.362 389.5,794.5C 324.72,783.651 267.387,757.151 217.5,715C 126.155,632.085 86.1554,528.918 97.5,405.5C 98.9715,401.081 99.6382,396.414 99.5,391.5C 105.156,355.033 116.322,320.367 133,287.5C 188.917,183.803 275.084,121.469 391.5,100.5C 396.414,100.638 401.081,99.9715 405.5,98.5C 430.455,96.181 455.455,95.8477 480.5,97.5 Z"/></g>
<g><path style="opacity:1" fill="#1e7bff" d="M 480.5,97.5 C 485.731,97.4443 490.731,98.111 495.5,99.5C 490.269,99.5557 485.269,98.889 480.5,97.5 Z"/></g>
<g><path style="opacity:1" fill="#38a9ff" d="M 405.5,98.5 C 401.081,99.9715 396.414,100.638 391.5,100.5C 395.919,99.0285 400.586,98.3618 405.5,98.5 Z"/></g>
<g><path style="opacity:1" fill="#2b7c9d" d="M 439.5,168.5 C 451.66,167.34 463.993,167.173 476.5,168C 478.708,168.191 480.708,168.691 482.5,169.5C 468.184,168.653 453.851,168.32 439.5,168.5 Z"/></g>
<g><path style="opacity:1" fill="#051630" d="M 439.5,168.5 C 453.851,168.32 468.184,168.653 482.5,169.5C 542.273,177.584 592.94,203.417 634.5,247C 647.298,250.795 656.798,258.629 663,270.5C 663.83,275.143 664.497,279.81 665,284.5C 672.269,289.067 677.102,295.4 679.5,303.5C 681.022,309.045 681.688,314.712 681.5,320.5C 679.18,325.159 676.846,329.826 674.5,334.5C 676.119,345.646 679.286,356.313 684,366.5C 691.52,372.597 698.853,378.93 706,385.5C 709.188,394.896 707.355,403.062 700.5,410C 694.96,411.84 690.46,415.006 687,419.5C 686.182,422.227 686.348,424.894 687.5,427.5C 696.745,441.519 695.245,454.186 683,465.5C 682.408,469.276 681.408,472.943 680,476.5C 674.174,487.819 669.174,499.485 665,511.5C 646.808,566.93 630.475,622.93 616,679.5C 604.192,700.851 586.358,714.685 562.5,721C 549.047,724.385 535.38,725.385 521.5,724C 515.796,723.633 510.13,722.966 504.5,722C 482.564,715.799 460.897,708.799 439.5,701C 394.202,688.672 348.202,680.006 301.5,675C 290.172,674.5 278.838,674.333 267.5,674.5C 269.518,642.862 266.685,611.529 259,580.5C 247.558,554.395 228.058,537.562 200.5,530C 191.489,528.087 182.489,528.087 173.5,530C 170.551,531.479 167.551,532.479 164.5,533C 159.18,510.204 161.346,488.038 171,466.5C 181.766,447.075 194.1,428.742 208,411.5C 215.805,399.089 221.471,385.756 225,371.5C 229.14,325.128 245.807,284.128 275,248.5C 277.37,245.961 279.87,243.628 282.5,241.5C 286.5,238.167 290.167,234.5 293.5,230.5C 323.011,201.716 358.011,182.716 398.5,173.5C 406.803,173.227 414.803,171.894 422.5,169.5C 428.075,168.548 433.741,168.214 439.5,168.5 Z"/></g>
<g><path style="opacity:1" fill="#1e5a79" d="M 422.5,169.5 C 414.803,171.894 406.803,173.227 398.5,173.5C 406.278,171.537 414.278,170.204 422.5,169.5 Z"/></g>
<g><path style="opacity:1" fill="#0d45ac" d="M 600.5,225.5 C 585.814,219.306 571.147,212.806 556.5,206C 514.054,190.237 470.387,185.57 425.5,192C 394.077,198.017 365.411,210.35 339.5,229C 337.963,230.11 337.297,231.61 337.5,233.5C 350.385,229.557 363.385,226.057 376.5,223C 400.522,218.626 423.522,221.626 445.5,232C 454.554,236.534 459.888,243.701 461.5,253.5C 439.595,238.501 415.262,232.667 388.5,236C 362.109,238.947 339.609,249.78 321,268.5C 316.928,273.477 313.762,278.977 311.5,285C 311.833,285.5 312.167,286 312.5,286.5C 319.344,277.772 327.344,270.439 336.5,264.5C 335.71,265.794 334.71,266.961 333.5,268C 348.659,261.838 364.326,256.838 380.5,253C 399.067,251.418 417.401,252.751 435.5,257C 454.248,263.08 468.081,274.914 477,292.5C 477.499,296.486 477.666,300.486 477.5,304.5C 476.908,299.641 474.908,295.308 471.5,291.5C 463.091,281.961 452.757,275.461 440.5,272C 405.837,262.81 372.837,266.81 341.5,284C 335.691,287.309 331.024,291.809 327.5,297.5C 327.833,297.833 328.167,298.167 328.5,298.5C 341.424,286.871 356.424,279.204 373.5,275.5C 358.595,278.945 353.095,288.278 357,303.5C 357.198,305.911 358.364,307.577 360.5,308.5C 367.714,307.446 374.714,305.613 381.5,303C 400.136,301.445 418.802,301.112 437.5,302C 447.779,303.189 457.946,305.022 468,307.5C 468.833,307.167 469.667,306.833 470.5,306.5C 469.691,304.929 469.357,303.262 469.5,301.5C 472.626,305.556 473.959,310.223 473.5,315.5C 435.045,307.051 396.711,307.551 358.5,317C 344.739,320.915 331.905,326.748 320,334.5C 318.602,336.842 318.935,339.175 321,341.5C 342.65,367.558 370.484,379.058 404.5,376C 420.439,373.195 434.773,366.861 447.5,357C 457.652,347.53 464.319,336.03 467.5,322.5C 470.902,322.658 474.236,322.324 477.5,321.5C 477.179,323.048 476.179,323.715 474.5,323.5C 474.509,340.987 467.842,355.487 454.5,367C 425.519,387.255 394.186,391.588 360.5,380C 337.033,370.201 319.7,353.867 308.5,331C 303.627,328.064 298.627,325.397 293.5,323C 292.072,322.421 290.738,322.588 289.5,323.5C 295.655,311.211 298.155,298.211 297,284.5C 292.859,269.357 283.692,265.523 269.5,273C 267.273,275.935 264.606,277.935 261.5,279C 282.566,244.139 311.232,217.472 347.5,199C 429.946,159.275 509.612,164.275 586.5,214C 591.421,217.613 596.088,221.446 600.5,225.5 Z"/></g>
<g><path style="opacity:1" fill="#006dfc" d="M 600.5,225.5 C 600.414,226.496 600.748,227.329 601.5,228C 584.281,228.966 568.281,233.633 553.5,242C 547.947,245.795 545.947,250.795 547.5,257C 556.934,255.466 565.934,252.633 574.5,248.5C 589.085,246.027 603.751,245.86 618.5,248C 629.229,250.039 638.896,254.206 647.5,260.5C 646.903,261.139 646.07,261.472 645,261.5C 629.458,258.255 613.791,256.255 598,255.5C 583.606,254.927 569.773,257.427 556.5,263C 552.12,267.601 548.62,272.767 546,278.5C 535.756,309.315 542.256,335.815 565.5,358C 593.645,377.162 622.979,379.162 653.5,364C 659.765,359.737 664.598,354.237 668,347.5C 668.383,348.056 668.883,348.389 669.5,348.5C 670.35,352.553 671.516,356.553 673,360.5C 673.383,361.056 673.883,361.389 674.5,361.5C 678.949,371.782 686.282,379.282 696.5,384C 704.354,390.515 704.354,397.015 696.5,403.5C 693.167,404.5 689.833,405.5 686.5,406.5C 687.658,401.749 687.158,397.083 685,392.5C 684.275,391.941 683.442,391.608 682.5,391.5C 672.386,395.112 662.053,397.946 651.5,400C 631.485,403.138 611.485,406.138 591.5,409C 535.668,415.115 479.668,417.115 423.5,415C 390.435,411.252 357.435,407.086 324.5,402.5C 324.802,399.941 324.468,397.607 323.5,395.5C 322.653,390.177 320.319,385.51 316.5,381.5C 316.167,382 315.833,382.5 315.5,383C 320.251,396.418 319.084,409.252 312,421.5C 301.012,433.328 287.845,436.661 272.5,431.5C 271.058,430.18 270.392,428.514 270.5,426.5C 291.391,431.304 305.558,423.637 313,403.5C 315.381,394.273 312.714,386.94 305,381.5C 303.395,382.101 302.062,383.101 301,384.5C 296.737,401.545 285.904,409.045 268.5,407C 263.741,404.57 259.574,401.403 256,397.5C 253.684,380.371 255.684,363.704 262,347.5C 264.533,347.05 266.7,346.05 268.5,344.5C 277.194,339.139 284.194,332.139 289.5,323.5C 290.738,322.588 292.072,322.421 293.5,323C 298.627,325.397 303.627,328.064 308.5,331C 319.7,353.867 337.033,370.201 360.5,380C 394.186,391.588 425.519,387.255 454.5,367C 467.842,355.487 474.509,340.987 474.5,323.5C 476.179,323.715 477.179,323.048 477.5,321.5C 480.084,315.749 480.084,310.083 477.5,304.5C 477.666,300.486 477.499,296.486 477,292.5C 468.081,274.914 454.248,263.08 435.5,257C 417.401,252.751 399.067,251.418 380.5,253C 364.326,256.838 348.659,261.838 333.5,268C 334.71,266.961 335.71,265.794 336.5,264.5C 341.255,260.278 346.588,256.778 352.5,254C 389.456,239.367 426.123,240.2 462.5,256.5C 462.833,256.333 463.167,256.167 463.5,256C 462.619,255.292 461.953,254.458 461.5,253.5C 459.888,243.701 454.554,236.534 445.5,232C 423.522,221.626 400.522,218.626 376.5,223C 363.385,226.057 350.385,229.557 337.5,233.5C 337.297,231.61 337.963,230.11 339.5,229C 365.411,210.35 394.077,198.017 425.5,192C 470.387,185.57 514.054,190.237 556.5,206C 571.147,212.806 585.814,219.306 600.5,225.5 Z"/></g>
<g><path style="opacity:1" fill="#0d46ae" d="M 600.5,225.5 C 606.442,229.773 611.776,234.773 616.5,240.5C 604.248,240.401 591.915,240.901 579.5,242C 568.473,244.128 558.306,248.295 549,254.5C 548.312,255.332 548.479,255.998 549.5,256.5C 557.74,253.419 566.074,250.753 574.5,248.5C 565.934,252.633 556.934,255.466 547.5,257C 545.947,250.795 547.947,245.795 553.5,242C 568.281,233.633 584.281,228.966 601.5,228C 600.748,227.329 600.414,226.496 600.5,225.5 Z"/></g>
<g><path style="opacity:1" fill="#011331" d="M 461.5,253.5 C 461.953,254.458 462.619,255.292 463.5,256C 463.167,256.167 462.833,256.333 462.5,256.5C 426.123,240.2 389.456,239.367 352.5,254C 346.588,256.778 341.255,260.278 336.5,264.5C 327.344,270.439 319.344,277.772 312.5,286.5C 312.167,286 311.833,285.5 311.5,285C 313.762,278.977 316.928,273.477 321,268.5C 339.609,249.78 362.109,238.947 388.5,236C 415.262,232.667 439.595,238.501 461.5,253.5 Z"/></g>
<g><path style="opacity:1" fill="#1b5270" d="M 293.5,230.5 C 290.167,234.5 286.5,238.167 282.5,241.5C 285.167,236.833 288.833,233.167 293.5,230.5 Z"/></g>
<g><path style="opacity:1" fill="#0d45ac" d="M 647.5,260.5 C 654.486,265.094 657.82,271.427 657.5,279.5C 647.627,273.709 636.961,270.209 625.5,269C 611.595,266.831 597.929,267.331 584.5,270.5C 574.378,271.819 564.711,274.652 555.5,279C 570.048,275.445 584.881,273.279 600,272.5C 602.361,272.504 604.527,272.837 606.5,273.5C 598.56,273.481 590.726,274.148 583,275.5C 579.869,283.055 579.702,290.722 582.5,298.5C 607.136,299.128 631.136,303.294 654.5,311C 660.855,314.178 667.189,317.344 673.5,320.5C 673.262,322.645 672.262,324.312 670.5,325.5C 649.52,314.671 627.187,308.671 603.5,307.5C 599.849,306.835 596.015,306.501 592,306.5C 585.275,306.4 578.775,307.066 572.5,308.5C 562.351,308.929 552.684,311.262 543.5,315.5C 545.686,316.221 547.853,316.887 550,317.5C 556.9,343.065 573.4,358.231 599.5,363C 619.296,365.645 637.296,361.312 653.5,350C 658.443,345.895 662.443,341.062 665.5,335.5C 666.086,335.709 666.586,336.043 667,336.5C 667.943,340.496 668.776,344.496 669.5,348.5C 668.883,348.389 668.383,348.056 668,347.5C 664.598,354.237 659.765,359.737 653.5,364C 622.979,379.162 593.645,377.162 565.5,358C 542.256,335.815 535.756,309.315 546,278.5C 548.62,272.767 552.12,267.601 556.5,263C 569.773,257.427 583.606,254.927 598,255.5C 613.791,256.255 629.458,258.255 645,261.5C 646.07,261.472 646.903,261.139 647.5,260.5 Z"/></g>
<g><path style="opacity:1" fill="#041531" d="M 477.5,304.5 C 480.084,310.083 480.084,315.749 477.5,321.5C 474.236,322.324 470.902,322.658 467.5,322.5C 464.319,336.03 457.652,347.53 447.5,357C 434.773,366.861 420.439,373.195 404.5,376C 370.484,379.058 342.65,367.558 321,341.5C 318.935,339.175 318.602,336.842 320,334.5C 331.905,326.748 344.739,320.915 358.5,317C 396.711,307.551 435.045,307.051 473.5,315.5C 473.959,310.223 472.626,305.556 469.5,301.5C 460.265,286.458 446.932,276.958 429.5,273C 410.5,269.199 391.833,270.032 373.5,275.5C 356.424,279.204 341.424,286.871 328.5,298.5C 328.167,298.167 327.833,297.833 327.5,297.5C 331.024,291.809 335.691,287.309 341.5,284C 372.837,266.81 405.837,262.81 440.5,272C 452.757,275.461 463.091,281.961 471.5,291.5C 474.908,295.308 476.908,299.641 477.5,304.5 Z"/></g>
<g><path style="opacity:1" fill="#006dfb" d="M 469.5,301.5 C 469.357,303.262 469.691,304.929 470.5,306.5C 469.667,306.833 468.833,307.167 468,307.5C 457.946,305.022 447.779,303.189 437.5,302C 418.802,301.112 400.136,301.445 381.5,303C 374.714,305.613 367.714,307.446 360.5,308.5C 358.364,307.577 357.198,305.911 357,303.5C 353.095,288.278 358.595,278.945 373.5,275.5C 391.833,270.032 410.5,269.199 429.5,273C 446.932,276.958 460.265,286.458 469.5,301.5 Z"/></g>
<g><path style="opacity:1" fill="#011a44" d="M 584.5,270.5 C 583.391,271.29 582.058,271.79 580.5,272C 586.803,271.954 593.136,271.787 599.5,271.5C 604.167,271.667 608.833,271.833 613.5,272C 614.056,272.383 614.389,272.883 614.5,273.5C 611.833,273.5 609.167,273.5 606.5,273.5C 604.527,272.837 602.361,272.504 600,272.5C 584.881,273.279 570.048,275.445 555.5,279C 564.711,274.652 574.378,271.819 584.5,270.5 Z"/></g>
<g><path style="opacity:1" fill="#006dfb" d="M 606.5,273.5 C 609.167,273.5 611.833,273.5 614.5,273.5C 632.489,274.884 648.822,280.717 663.5,291C 673.345,298.811 676.678,308.644 673.5,320.5C 667.189,317.344 660.855,314.178 654.5,311C 631.136,303.294 607.136,299.128 582.5,298.5C 579.702,290.722 579.869,283.055 583,275.5C 590.726,274.148 598.56,273.481 606.5,273.5 Z"/></g>
<g><path style="opacity:1" fill="#0d43a8" d="M 278.5,275.5 C 289.326,274.325 293.326,278.992 290.5,289.5C 286.933,288.111 283.599,288.611 280.5,291C 268.846,304.105 265.346,318.938 270,335.5C 260.193,342.588 253.86,340.255 251,328.5C 250.152,309.366 256.652,293.199 270.5,280C 273.099,278.205 275.766,276.705 278.5,275.5 Z"/></g>
<g><path style="opacity:1" fill="#082e76" d="M 603.5,307.5 C 593.155,307.534 582.821,307.867 572.5,308.5C 578.775,307.066 585.275,306.4 592,306.5C 596.015,306.501 599.849,306.835 603.5,307.5 Z"/></g>
<g><path style="opacity:1" fill="#22dbf7" d="M 633.5,318.5 C 632.286,337.714 621.953,348.048 602.5,349.5C 580.367,347.364 567.7,335.364 564.5,313.5C 567.127,312.908 569.794,312.575 572.5,312.5C 575.601,331.891 586.935,340.391 606.5,338C 617.644,335.036 623.31,327.869 623.5,316.5C 626.973,316.576 630.306,317.242 633.5,318.5 Z"/></g>
<g><path style="opacity:1" fill="#e5e7e9" d="M 587.5,312.5 C 597.531,313.245 600.198,318.078 595.5,327C 583.176,327.507 580.509,322.674 587.5,312.5 Z"/></g>
<g><path style="opacity:1" fill="#1c5574" d="M 679.5,303.5 C 682.448,308.935 683.114,314.601 681.5,320.5C 681.688,314.712 681.022,309.045 679.5,303.5 Z"/></g>
<g><path style="opacity:1" fill="#f4f6f7" d="M 564.5,313.5 C 567.7,335.364 580.367,347.364 602.5,349.5C 621.953,348.048 632.286,337.714 633.5,318.5C 641.835,320.888 650.168,323.388 658.5,326C 660.612,326.906 661.445,328.406 661,330.5C 651.965,345.948 638.465,354.781 620.5,357C 593.15,359.985 572.15,350.151 557.5,327.5C 556.871,324.603 555.871,321.936 554.5,319.5C 553.549,318.081 553.216,316.415 553.5,314.5C 557.154,314.058 560.821,313.724 564.5,313.5 Z"/></g>
<g><path style="opacity:1" fill="#28dbf6" d="M 433.5,315.5 C 427.824,315.334 422.157,315.501 416.5,316C 418.947,337.755 409.614,351.755 388.5,358C 364.196,361.442 346.863,352.275 336.5,330.5C 339.583,328.975 342.916,327.975 346.5,327.5C 352.18,344.853 364.18,351.687 382.5,348C 399.998,343.369 407.664,332.202 405.5,314.5C 415.015,314.173 424.348,314.506 433.5,315.5 Z"/></g>
<g><path style="opacity:1" fill="#f9fafb" d="M 433.5,315.5 C 443.446,315.587 453.113,317.254 462.5,320.5C 462.833,321 463.167,321.5 463.5,322C 453.841,346.816 435.841,361.649 409.5,366.5C 394.639,367.275 379.973,366.275 365.5,363.5C 351.672,358.997 339.839,351.331 330,340.5C 328.398,338.631 327.398,336.631 327,334.5C 329.889,332.482 333.055,331.149 336.5,330.5C 346.863,352.275 364.196,361.442 388.5,358C 409.614,351.755 418.947,337.755 416.5,316C 422.157,315.501 427.824,315.334 433.5,315.5 Z"/></g>
<g><path style="opacity:1" fill="#0d45ac" d="M 268.5,344.5 C 266.7,346.05 264.533,347.05 262,347.5C 255.684,363.704 253.684,380.371 256,397.5C 259.574,401.403 263.741,404.57 268.5,407C 285.904,409.045 296.737,401.545 301,384.5C 302.062,383.101 303.395,382.101 305,381.5C 312.714,386.94 315.381,394.273 313,403.5C 305.558,423.637 291.391,431.304 270.5,426.5C 270.392,428.514 271.058,430.18 272.5,431.5C 270.118,429.954 267.451,429.287 264.5,429.5C 264.34,431.199 264.506,432.866 265,434.5C 266.645,437.445 268.645,440.112 271,442.5C 276.116,443.425 281.283,443.758 286.5,443.5C 286.303,454.895 286.97,466.228 288.5,477.5C 287.532,475.393 287.198,473.059 287.5,470.5C 279.05,470.409 270.717,469.409 262.5,467.5C 267.585,500.843 274.418,533.843 283,566.5C 289.666,601.191 296.166,635.858 302.5,670.5C 294.167,670.5 285.833,670.5 277.5,670.5C 275.406,648.75 272.573,627.084 269,605.5C 262.405,569.931 254.739,534.598 246,499.5C 241.819,473.568 237.819,447.568 234,421.5C 233.147,397.48 233.481,373.48 235,349.5C 236.259,336.395 239.926,324.061 246,312.5C 245.698,317.294 245.198,322.127 244.5,327C 245.53,342.18 253.53,348.014 268.5,344.5 Z"/></g>
<g><path style="opacity:1" fill="#697180" d="M 554.5,319.5 C 555.871,321.936 556.871,324.603 557.5,327.5C 555.345,325.383 554.345,322.716 554.5,319.5 Z"/></g>
<g><path style="opacity:1" fill="#8c929e" d="M 371.5,328.5 C 367.331,324.547 363.165,324.547 359,328.5C 358.505,330.473 358.338,332.473 358.5,334.5C 356.704,325.813 360.371,322.647 369.5,325C 370.823,325.816 371.489,326.983 371.5,328.5 Z"/></g>
<g><path style="opacity:1" fill="#f3f4f5" d="M 371.5,328.5 C 372.336,336.829 368.67,339.995 360.5,338C 359.177,337.184 358.511,336.017 358.5,334.5C 358.338,332.473 358.505,330.473 359,328.5C 363.165,324.547 367.331,324.547 371.5,328.5 Z"/></g>
<g><path style="opacity:1" fill="#003f95" d="M 669.5,348.5 C 671.734,352.522 673.401,356.856 674.5,361.5C 673.883,361.389 673.383,361.056 673,360.5C 671.516,356.553 670.35,352.553 669.5,348.5 Z"/></g>
<g><path style="opacity:1" fill="#cdd0d5" d="M 365.5,363.5 C 379.973,366.275 394.639,367.275 409.5,366.5C 398.362,368.916 387.028,369.082 375.5,367C 371.948,366.122 368.614,364.956 365.5,363.5 Z"/></g>
<g><path style="opacity:0.999" fill="#fdfdfe" d="M 800.5,375.5 C 825.5,375.5 850.5,375.5 875.5,375.5C 882.55,415.617 884.05,455.951 880,496.5C 879.368,504.798 877.868,512.798 875.5,520.5C 847.156,520.724 818.822,520.39 790.5,519.5C 799.448,471.902 799.782,424.235 791.5,376.5C 794.713,376.81 797.713,376.477 800.5,375.5 Z"/></g>
<g><path style="opacity:0.008" fill="#fefffe" d="M 886.5,378.5 C 887.833,379.167 887.833,379.167 886.5,378.5 Z"/></g>
<g><path style="opacity:1" fill="#0d46ad" d="M 686.5,406.5 C 679.289,409.138 671.956,411.471 664.5,413.5C 664.16,410.856 664.827,408.523 666.5,406.5C 666,406.167 665.5,405.833 665,405.5C 623.588,414.874 581.754,421.708 539.5,426C 493.743,428.693 448.077,427.693 402.5,423C 376.039,419.145 349.706,414.645 323.5,409.5C 323.5,404.833 323.5,400.167 323.5,395.5C 324.468,397.607 324.802,399.941 324.5,402.5C 357.435,407.086 390.435,411.252 423.5,415C 479.668,417.115 535.668,415.115 591.5,409C 611.485,406.138 631.485,403.138 651.5,400C 662.053,397.946 672.386,395.112 682.5,391.5C 683.442,391.608 684.275,391.941 685,392.5C 687.158,397.083 687.658,401.749 686.5,406.5 Z"/></g>
<g><path style="opacity:1" fill="#00193e" d="M 526.5,402.5 C 503.838,403.112 481.172,403.446 458.5,403.5C 433.03,403.591 407.697,401.758 382.5,398C 375.552,396.956 375.218,396.122 381.5,395.5C 479.53,404.57 577.03,400.57 674,383.5C 678.248,383.603 678.414,384.103 674.5,385C 625.734,395.548 576.401,401.381 526.5,402.5 Z"/></g>
<g><path style="opacity:1" fill="#0168f1" d="M 226.5,403.5 C 227.111,408.618 225.944,413.285 223,417.5C 214,429.833 205,442.167 196,454.5C 182.894,475.315 175.728,497.982 174.5,522.5C 172.786,523.738 170.786,524.405 168.5,524.5C 168.5,523.167 168.5,521.833 168.5,520.5C 169.106,509.466 170.106,498.466 171.5,487.5C 172.324,483.666 173.658,479.999 175.5,476.5C 178.012,472.134 180.012,467.467 181.5,462.5C 184.346,456.145 187.846,450.145 192,444.5C 199.667,434.5 207.333,424.5 215,414.5C 218.77,407.96 222.27,401.293 225.5,394.5C 226.484,397.428 226.817,400.428 226.5,403.5 Z"/></g>
<g><path style="opacity:1" fill="#002b6a" d="M 526.5,402.5 C 503.85,404.469 481.184,404.803 458.5,403.5C 481.172,403.446 503.838,403.112 526.5,402.5 Z"/></g>
<g><path style="opacity:1" fill="#3bafff" d="M 99.5,391.5 C 99.6382,396.414 98.9715,401.081 97.5,405.5C 97.3618,400.586 98.0285,395.919 99.5,391.5 Z"/></g>
<g><path style="opacity:1" fill="#e7f9fb" d="M 696.5,403.5 C 691.231,407.593 686.065,411.926 681,416.5C 680.042,419.075 679.542,421.741 679.5,424.5C 680.415,431.579 681.749,438.579 683.5,445.5C 682.955,452.874 679.955,459.04 674.5,464C 650.79,477.682 625.457,487.182 598.5,492.5C 578.325,494.854 558.325,497.521 538.5,500.5C 518.658,501.722 498.658,501.722 478.5,500.5C 469.717,498.903 460.717,498.236 451.5,498.5C 409.974,495.868 370.307,486.201 332.5,469.5C 331.081,468.549 329.415,468.216 327.5,468.5C 328.865,473.311 330.698,477.978 333,482.5C 336.131,485.478 339.631,487.811 343.5,489.5C 343.216,491.415 343.549,493.081 344.5,494.5C 346.139,514.642 348.806,534.642 352.5,554.5C 352.41,557.152 353.076,559.485 354.5,561.5C 354.5,562.833 354.5,564.167 354.5,565.5C 354.41,568.152 355.076,570.485 356.5,572.5C 359.224,586.905 362.224,601.238 365.5,615.5C 365.41,618.152 366.076,620.485 367.5,622.5C 368.913,625.219 369.58,628.219 369.5,631.5C 369.259,633.898 369.926,635.898 371.5,637.5C 371.41,640.152 372.076,642.485 373.5,644.5C 373.723,648.162 374.723,651.495 376.5,654.5C 376.962,661.912 379.295,668.579 383.5,674.5C 383.5,676.5 383.5,678.5 383.5,680.5C 379.19,679.92 374.857,679.586 370.5,679.5C 361.813,678.296 353.146,676.963 344.5,675.5C 340.831,661.494 337.164,647.494 333.5,633.5C 333.741,631.102 333.074,629.102 331.5,627.5C 330.962,625.883 330.629,624.216 330.5,622.5C 330.741,620.102 330.074,618.102 328.5,616.5C 327.097,612.619 326.097,608.619 325.5,604.5C 325.59,601.848 324.924,599.515 323.5,597.5C 323.5,597.167 323.5,596.833 323.5,596.5C 323.741,594.102 323.074,592.102 321.5,590.5C 321.5,590.167 321.5,589.833 321.5,589.5C 321.59,586.848 320.924,584.515 319.5,582.5C 315.66,567.633 312.326,552.633 309.5,537.5C 308.706,529.522 307.04,521.855 304.5,514.5C 301.2,501.031 298.866,487.365 297.5,473.5C 297.216,470.223 297.549,467.057 298.5,464C 307.846,460.505 315.513,454.838 321.5,447C 323.345,445.872 325.345,445.372 327.5,445.5C 350.112,454.256 373.446,460.589 397.5,464.5C 407.199,467.228 417.199,468.894 427.5,469.5C 442.656,472.804 457.989,474.804 473.5,475.5C 482.621,477.058 491.954,477.725 501.5,477.5C 503.607,478.468 505.941,478.802 508.5,478.5C 520.993,479.66 533.66,479.827 546.5,479C 548.058,478.79 549.391,478.29 550.5,477.5C 576.231,474.234 601.564,469.067 626.5,462C 637.061,457.719 647.061,452.386 656.5,446C 661.16,442.187 664.827,437.687 667.5,432.5C 668.161,430.866 668.494,429.033 668.5,427C 668.64,423.85 667.973,421.017 666.5,418.5C 665.833,416.833 665.167,415.167 664.5,413.5C 671.956,411.471 679.289,409.138 686.5,406.5C 689.833,405.5 693.167,404.5 696.5,403.5 Z"/></g>
<g><path style="opacity:1" fill="#530e09" d="M 664.5,413.5 C 665.167,415.167 665.833,416.833 666.5,418.5C 667.229,423.13 667.563,427.797 667.5,432.5C 664.827,437.687 661.16,442.187 656.5,446C 647.061,452.386 637.061,457.719 626.5,462C 601.564,469.067 576.231,474.234 550.5,477.5C 536.518,478.343 522.518,478.676 508.5,478.5C 505.941,478.802 503.607,478.468 501.5,477.5C 492.384,475.88 483.051,475.213 473.5,475.5C 457.989,474.804 442.656,472.804 427.5,469.5C 417.746,467.086 407.746,465.42 397.5,464.5C 373.446,460.589 350.112,454.256 327.5,445.5C 321.282,442.282 315.615,438.282 310.5,433.5C 312.5,430.833 314.833,428.5 317.5,426.5C 319.396,432.145 323.396,435.478 329.5,436.5C 359.338,447.505 390.005,455.672 421.5,461C 436.233,463.033 450.9,465.2 465.5,467.5C 468.482,468.165 471.648,468.498 475,468.5C 478.576,468.485 481.742,467.818 484.5,466.5C 489.678,469.692 495.345,471.192 501.5,471C 513.167,471.667 524.833,471.667 536.5,471C 531.981,470.825 527.647,470.325 523.5,469.5C 531.201,469.691 538.868,469.358 546.5,468.5C 546.082,469.222 545.416,469.722 544.5,470C 553.494,469.383 562.494,468.383 571.5,467C 573.405,465.579 575.405,464.412 577.5,463.5C 576.357,465.101 577.024,465.767 579.5,465.5C 584.902,464.649 590.235,463.483 595.5,462C 609.773,458.131 623.773,453.464 637.5,448C 645.472,444.261 651.972,438.761 657,431.5C 657.499,426.845 657.666,422.179 657.5,417.5C 656.415,415.413 654.749,414.08 652.5,413.5C 655.463,413.923 658.463,413.257 661.5,411.5C 662.739,411.942 663.739,412.609 664.5,413.5 Z"/></g>
<g><path style="opacity:1" fill="#620100" d="M 652.5,413.5 C 654.749,414.08 656.415,415.413 657.5,417.5C 646.172,424.166 634.505,430.332 622.5,436C 611.305,439.798 599.971,442.964 588.5,445.5C 588.955,438.64 586.955,432.64 582.5,427.5C 582.709,426.914 583.043,426.414 583.5,426C 606.697,422.69 629.697,418.523 652.5,413.5 Z"/></g>
<g><path style="opacity:1" fill="#0d45ac" d="M 226.5,403.5 C 228.576,425.775 231.41,448.108 235,470.5C 239.304,491.349 243.637,512.349 248,533.5C 248.796,541.592 249.796,549.592 251,557.5C 238.239,539.719 221.406,527.886 200.5,522C 191.806,521.289 183.139,521.456 174.5,522.5C 175.728,497.982 182.894,475.315 196,454.5C 205,442.167 214,429.833 223,417.5C 225.944,413.285 227.111,408.618 226.5,403.5 Z"/></g>
<g><path style="opacity:1" fill="#630100" d="M 484.5,466.5 C 481.742,467.818 478.576,468.485 475,468.5C 471.648,468.498 468.482,468.165 465.5,467.5C 467.379,467.607 467.712,467.107 466.5,466C 457.174,461.339 448.174,456.172 439.5,450.5C 404.108,444.59 369.274,436.59 335,426.5C 331.413,428.765 329.579,432.098 329.5,436.5C 323.396,435.478 319.396,432.145 317.5,426.5C 319.347,422.976 321.014,419.31 322.5,415.5C 323.167,415.167 323.833,414.833 324.5,414.5C 357.406,422.447 390.739,427.947 424.5,431C 439.959,438.81 454.626,447.81 468.5,458C 473.702,461.101 479.035,463.934 484.5,466.5 Z"/></g>
<g><path style="opacity:1" fill="#9b0f03" d="M 657.5,417.5 C 657.666,422.179 657.499,426.845 657,431.5C 651.972,438.761 645.472,444.261 637.5,448C 623.773,453.464 609.773,458.131 595.5,462C 590.235,463.483 584.902,464.649 579.5,465.5C 577.024,465.767 576.357,465.101 577.5,463.5C 582.697,458.441 586.364,452.441 588.5,445.5C 599.971,442.964 611.305,439.798 622.5,436C 634.505,430.332 646.172,424.166 657.5,417.5 Z"/></g>
<g><path style="opacity:1" fill="#835854" d="M 666.5,418.5 C 667.973,421.017 668.64,423.85 668.5,427C 668.494,429.033 668.161,430.866 667.5,432.5C 667.563,427.797 667.229,423.13 666.5,418.5 Z"/></g>
<g><path style="opacity:1" fill="#9c0f03" d="M 465.5,467.5 C 450.9,465.2 436.233,463.033 421.5,461C 390.005,455.672 359.338,447.505 329.5,436.5C 329.579,432.098 331.413,428.765 335,426.5C 369.274,436.59 404.108,444.59 439.5,450.5C 448.174,456.172 457.174,461.339 466.5,466C 467.712,467.107 467.379,467.607 465.5,467.5 Z"/></g>
<g><path style="opacity:1" fill="#b21517" d="M 565.5,428.5 C 558.734,430.059 551.734,430.892 544.5,431C 535.84,431.5 527.173,431.666 518.5,431.5C 534.015,430.531 549.682,429.531 565.5,428.5 Z"/></g>
<g><path style="opacity:1" fill="#f51810" d="M 565.5,428.5 C 566.167,428.5 566.833,428.5 567.5,428.5C 571.575,428.399 574.075,430.399 575,434.5C 577.212,443.621 574.045,450.121 565.5,454C 551.489,460.224 536.822,462.557 521.5,461C 498.521,455.842 477.187,446.842 457.5,434C 469.674,433.831 481.674,433.331 493.5,432.5C 501.779,431.56 510.112,431.227 518.5,431.5C 527.173,431.666 535.84,431.5 544.5,431C 551.734,430.892 558.734,430.059 565.5,428.5 Z"/></g>
<g><path style="opacity:1" fill="#ef483a" d="M 567.5,428.5 C 574.247,425.76 578.914,427.76 581.5,434.5C 582.704,439.856 582.704,445.189 581.5,450.5C 572.241,460.964 560.574,466.964 546.5,468.5C 538.868,469.358 531.201,469.691 523.5,469.5C 512.508,468.004 501.841,465.171 491.5,461C 474.559,453.169 458.559,444.002 443.5,433.5C 446.962,432.518 450.629,432.185 454.5,432.5C 467.5,432.5 480.5,432.5 493.5,432.5C 481.674,433.331 469.674,433.831 457.5,434C 477.187,446.842 498.521,455.842 521.5,461C 536.822,462.557 551.489,460.224 565.5,454C 574.045,450.121 577.212,443.621 575,434.5C 574.075,430.399 571.575,428.399 567.5,428.5 Z"/></g>
<g><path style="opacity:1" fill="#a83735" d="M 454.5,432.5 C 450.629,432.185 446.962,432.518 443.5,433.5C 442.624,433.631 441.957,433.298 441.5,432.5C 445.984,431.189 450.317,431.189 454.5,432.5 Z"/></g>
<g><path style="opacity:1" fill="#b7c6c8" d="M 310.5,433.5 C 315.615,438.282 321.282,442.282 327.5,445.5C 325.345,445.372 323.345,445.872 321.5,447C 315.513,454.838 307.846,460.505 298.5,464C 297.549,467.057 297.216,470.223 297.5,473.5C 296.539,471.735 296.205,469.735 296.5,467.5C 296.5,458.833 296.5,450.167 296.5,441.5C 301.492,439.339 306.159,436.672 310.5,433.5 Z"/></g>
<g><path style="opacity:1" fill="#a93836" d="M 581.5,434.5 C 582.991,437.186 583.657,440.186 583.5,443.5C 583.333,445.5 583.167,447.5 583,449.5C 582.617,450.056 582.117,450.389 581.5,450.5C 582.704,445.189 582.704,439.856 581.5,434.5 Z"/></g>
<g><path style="opacity:1" fill="#7b8b95" d="M 296.5,441.5 C 296.5,450.167 296.5,458.833 296.5,467.5C 295.394,461.529 294.727,455.362 294.5,449C 294.525,446.071 295.191,443.571 296.5,441.5 Z"/></g>
<g><path style="opacity:1" fill="#7e4e49" d="M 397.5,464.5 C 407.746,465.42 417.746,467.086 427.5,469.5C 417.199,468.894 407.199,467.228 397.5,464.5 Z"/></g>
<g><path style="opacity:1" fill="#006dfc" d="M 288.5,477.5 C 296.073,522.193 306.073,566.193 318.5,609.5C 319.256,613.767 320.589,617.767 322.5,621.5C 324.194,629.915 326.86,637.915 330.5,645.5C 331.238,649.715 332.572,653.715 334.5,657.5C 335.627,662.466 336.627,667.466 337.5,672.5C 334.167,672.5 330.833,672.5 327.5,672.5C 319.06,672.543 310.726,671.877 302.5,670.5C 296.166,635.858 289.666,601.191 283,566.5C 274.418,533.843 267.585,500.843 262.5,467.5C 270.717,469.409 279.05,470.409 287.5,470.5C 287.198,473.059 287.532,475.393 288.5,477.5 Z"/></g>
<g><path style="opacity:1" fill="#09398e" d="M 181.5,462.5 C 180.012,467.467 178.012,472.134 175.5,476.5C 175.89,471.063 177.89,466.396 181.5,462.5 Z"/></g>
<g><path style="opacity:1" fill="#b7c7ca" d="M 332.5,469.5 C 331.022,469.238 329.689,469.571 328.5,470.5C 332.534,474.186 337.201,476.853 342.5,478.5C 343.423,482.064 343.756,485.731 343.5,489.5C 339.631,487.811 336.131,485.478 333,482.5C 330.698,477.978 328.865,473.311 327.5,468.5C 329.415,468.216 331.081,468.549 332.5,469.5 Z"/></g>
<g><path style="opacity:1" fill="#723d37" d="M 473.5,475.5 C 483.051,475.213 492.384,475.88 501.5,477.5C 491.954,477.725 482.621,477.058 473.5,475.5 Z"/></g>
<g><path style="opacity:1" fill="#b7c7c9" d="M 663.5,497.5 C 663.53,496.503 663.03,495.836 662,495.5C 655.779,497.044 649.945,499.544 644.5,503C 636.6,505.691 628.6,507.858 620.5,509.5C 620.76,504.012 621.76,498.678 623.5,493.5C 640.229,487.985 656.562,481.818 672.5,475C 669.576,482.623 666.576,490.123 663.5,497.5 Z"/></g>
<g><path style="opacity:1" fill="#c7c3c3" d="M 550.5,477.5 C 549.391,478.29 548.058,478.79 546.5,479C 533.66,479.827 520.993,479.66 508.5,478.5C 522.518,478.676 536.518,478.343 550.5,477.5 Z"/></g>
<g><path style="opacity:1" fill="#b4c4c7" d="M 399.5,511.5 C 385.984,509.273 373.317,504.773 361.5,498C 358.947,497.239 356.447,496.406 354,495.5C 353.503,498.146 353.336,500.813 353.5,503.5C 352.072,497.03 351.072,490.363 350.5,483.5C 366.216,490.18 382.55,494.847 399.5,497.5C 399.5,502.167 399.5,506.833 399.5,511.5 Z"/></g>
<g><path style="opacity:1" fill="#425163" d="M 342.5,478.5 C 344.446,483.396 345.113,488.729 344.5,494.5C 343.549,493.081 343.216,491.415 343.5,489.5C 343.756,485.731 343.423,482.064 342.5,478.5 Z"/></g>
<g><path style="opacity:1" fill="#beced2" d="M 598.5,492.5 C 578.896,497.131 558.896,499.798 538.5,500.5C 558.325,497.521 578.325,494.854 598.5,492.5 Z"/></g>
<g><path style="opacity:1" fill="#e8fafc" d="M 663.5,497.5 C 642.673,555.483 625.173,614.483 611,674.5C 605.618,685.893 597.951,695.56 588,703.5C 597.992,638.706 608.825,574.039 620.5,509.5C 628.6,507.858 636.6,505.691 644.5,503C 649.945,499.544 655.779,497.044 662,495.5C 663.03,495.836 663.53,496.503 663.5,497.5 Z"/></g>
<g><path style="opacity:1" fill="#b7c7c9" d="M 613.5,514.5 C 613.03,513.307 612.03,512.64 610.5,512.5C 592.292,515.901 573.959,518.568 555.5,520.5C 555.5,515.833 555.5,511.167 555.5,506.5C 575.848,504.775 595.848,501.108 615.5,495.5C 616.167,495.667 616.833,495.833 617.5,496C 616.209,502.272 614.876,508.439 613.5,514.5 Z"/></g>
<g><path style="opacity:1" fill="#e8fafc" d="M 399.5,511.5 C 399.334,517.176 399.501,522.843 400,528.5C 400.149,532.133 400.982,535.466 402.5,538.5C 402.307,542.566 402.64,546.566 403.5,550.5C 403.189,555.766 403.855,560.766 405.5,565.5C 405.5,566.833 405.5,568.167 405.5,569.5C 405.302,574.75 405.969,579.75 407.5,584.5C 407.5,584.833 407.5,585.167 407.5,585.5C 407.86,593.717 408.86,601.717 410.5,609.5C 410.5,609.833 410.5,610.167 410.5,610.5C 410.772,618.066 411.772,625.399 413.5,632.5C 413.335,635.85 413.502,639.183 414,642.5C 414.232,643.737 414.732,644.737 415.5,645.5C 415.5,645.833 415.5,646.167 415.5,646.5C 415.125,652.532 416.125,658.198 418.5,663.5C 419.909,672.88 421.576,682.213 423.5,691.5C 412.708,689.575 402.041,687.075 391.5,684C 389.984,682.103 389.317,679.936 389.5,677.5C 389.59,674.848 388.924,672.515 387.5,670.5C 384.898,663.434 382.898,656.101 381.5,648.5C 381.741,646.102 381.074,644.102 379.5,642.5C 377.378,635.005 375.712,627.338 374.5,619.5C 374.08,614.471 372.746,609.805 370.5,605.5C 367.852,590.509 365.185,575.509 362.5,560.5C 362.247,556.96 361.581,553.627 360.5,550.5C 358.864,544.397 357.864,538.064 357.5,531.5C 357.376,526.951 356.709,522.618 355.5,518.5C 354.6,513.668 353.934,508.668 353.5,503.5C 353.336,500.813 353.503,498.146 354,495.5C 356.447,496.406 358.947,497.239 361.5,498C 373.317,504.773 385.984,509.273 399.5,511.5 Z"/></g>
<g><path style="opacity:1" fill="#abbcc5" d="M 451.5,498.5 C 460.717,498.236 469.717,498.903 478.5,500.5C 469.283,500.764 460.283,500.097 451.5,498.5 Z"/></g>
<g><path style="opacity:1" fill="#b6c6c9" d="M 406.5,499.5 C 424.679,503.002 443.012,505.335 461.5,506.5C 461.5,511.833 461.5,517.167 461.5,522.5C 443.982,520.796 426.482,518.463 409,515.5C 408.625,524.505 408.792,533.505 409.5,542.5C 408.004,536.395 407.337,530.062 407.5,523.5C 407.558,515.479 407.224,507.479 406.5,499.5 Z"/></g>
<g><path style="opacity:1" fill="#b9c9cb" d="M 544.5,508.5 C 546.436,512.715 547.103,517.381 546.5,522.5C 521.159,522.389 495.826,522.722 470.5,523.5C 470.5,528.167 470.5,532.833 470.5,537.5C 469.822,527.765 469.155,517.932 468.5,508C 493.798,509.737 519.132,509.903 544.5,508.5 Z"/></g>
<g><path style="opacity:1" fill="#034db6" d="M 171.5,487.5 C 170.106,498.466 169.106,509.466 168.5,520.5C 167.349,515.35 167.183,510.016 168,504.5C 168.605,498.573 169.771,492.906 171.5,487.5 Z"/></g>
<g><path style="opacity:1" fill="#6b7a88" d="M 406.5,499.5 C 407.224,507.479 407.558,515.479 407.5,523.5C 406.671,517.001 406.005,510.334 405.5,503.5C 405.511,501.955 405.844,500.622 406.5,499.5 Z"/></g>
<g><path style="opacity:1" fill="#e9fbfd" d="M 613.5,514.5 C 602.486,579.563 590.986,644.563 579,709.5C 569.685,714.327 559.851,717.661 549.5,719.5C 549.167,715.667 548.833,711.833 548.5,708C 551.236,645.513 553.569,583.013 555.5,520.5C 573.959,518.568 592.292,515.901 610.5,512.5C 612.03,512.64 613.03,513.307 613.5,514.5 Z"/></g>
<g><path style="opacity:1" fill="#e8fafc" d="M 461.5,522.5 C 464.581,556.729 467.081,591.062 469,625.5C 471.174,653.269 473.841,680.935 477,708.5C 461.446,703.093 445.779,698.093 430,693.5C 427.03,677.372 424.196,661.205 421.5,645C 419.743,633.539 418.41,622.039 417.5,610.5C 417.058,602.624 416.058,594.957 414.5,587.5C 412.784,578.384 411.784,569.05 411.5,559.5C 411.624,553.931 410.957,548.598 409.5,543.5C 409.5,543.167 409.5,542.833 409.5,542.5C 408.792,533.505 408.625,524.505 409,515.5C 426.482,518.463 443.982,520.796 461.5,522.5 Z"/></g>
<g><path style="opacity:1" fill="#8d9eaa" d="M 304.5,514.5 C 307.04,521.855 308.706,529.522 309.5,537.5C 307.215,530.087 305.549,522.42 304.5,514.5 Z"/></g>
<g><path style="opacity:1" fill="#eafcfe" d="M 546.5,522.5 C 546.5,535.5 546.5,548.5 546.5,561.5C 546.14,614.193 544.807,666.86 542.5,719.5C 527.24,720.457 512.24,718.957 497.5,715C 492.708,713.74 488.208,711.906 484,709.5C 480.306,677.537 476.973,645.537 474,613.5C 471.836,588.209 470.669,562.876 470.5,537.5C 470.5,532.833 470.5,528.167 470.5,523.5C 495.826,522.722 521.159,522.389 546.5,522.5 Z"/></g>
<g><path style="opacity:1" fill="#788996" d="M 355.5,518.5 C 356.709,522.618 357.376,526.951 357.5,531.5C 355.946,527.433 355.28,523.1 355.5,518.5 Z"/></g>
<g><path style="opacity:1" fill="#475668" d="M 544.5,508.5 C 545.209,507.596 546.209,507.263 547.5,507.5C 547.83,525.674 547.497,543.674 546.5,561.5C 546.5,548.5 546.5,535.5 546.5,522.5C 547.103,517.381 546.436,512.715 544.5,508.5 Z"/></g>
<g><path style="opacity:1" fill="#aebfc7" d="M 399.5,511.5 C 400.293,520.484 401.293,529.484 402.5,538.5C 400.982,535.466 400.149,532.133 400,528.5C 399.501,522.843 399.334,517.176 399.5,511.5 Z"/></g>
<g><path style="opacity:1" fill="#5f6e7f" d="M 360.5,550.5 C 361.581,553.627 362.247,556.96 362.5,560.5C 361.778,560.082 361.278,559.416 361,558.5C 360.503,555.854 360.336,553.187 360.5,550.5 Z"/></g>
<g><path style="opacity:1" fill="#778795" d="M 409.5,543.5 C 410.957,548.598 411.624,553.931 411.5,559.5C 409.822,554.432 409.156,549.098 409.5,543.5 Z"/></g>
<g><path style="opacity:1" fill="#6b7a8a" d="M 352.5,554.5 C 353.924,556.515 354.59,558.848 354.5,561.5C 353.076,559.485 352.41,557.152 352.5,554.5 Z"/></g>
<g><path style="opacity:1" fill="#667585" d="M 403.5,550.5 C 405.031,555.25 405.698,560.25 405.5,565.5C 403.855,560.766 403.189,555.766 403.5,550.5 Z"/></g>
<g><path style="opacity:1" fill="#738392" d="M 354.5,565.5 C 355.924,567.515 356.59,569.848 356.5,572.5C 355.076,570.485 354.41,568.152 354.5,565.5 Z"/></g>
<g><path style="opacity:1" fill="#707f8e" d="M 405.5,569.5 C 406.889,574.269 407.556,579.269 407.5,584.5C 405.969,579.75 405.302,574.75 405.5,569.5 Z"/></g>
<g><path style="opacity:1" fill="#6e7e8d" d="M 319.5,582.5 C 320.924,584.515 321.59,586.848 321.5,589.5C 320.076,587.485 319.41,585.152 319.5,582.5 Z"/></g>
<g><path style="opacity:1" fill="#5b6a7b" d="M 407.5,585.5 C 409.304,593.263 410.304,601.263 410.5,609.5C 408.86,601.717 407.86,593.717 407.5,585.5 Z"/></g>
<g><path style="opacity:1" fill="#798996" d="M 321.5,590.5 C 323.074,592.102 323.741,594.102 323.5,596.5C 321.926,594.898 321.259,592.898 321.5,590.5 Z"/></g>
<g><path style="opacity:1" fill="#667585" d="M 414.5,587.5 C 416.058,594.957 417.058,602.624 417.5,610.5C 415.286,603.131 414.286,595.464 414.5,587.5 Z"/></g>
<g><path style="opacity:1" fill="#6f7e8e" d="M 323.5,597.5 C 324.924,599.515 325.59,601.848 325.5,604.5C 323.837,602.562 323.171,600.228 323.5,597.5 Z"/></g>
<g><path style="opacity:1" fill="#013783" d="M 318.5,609.5 C 320.806,613.085 322.139,617.085 322.5,621.5C 320.589,617.767 319.256,613.767 318.5,609.5 Z"/></g>
<g><path style="opacity:1" fill="#687787" d="M 410.5,610.5 C 412.228,617.601 413.228,624.934 413.5,632.5C 411.772,625.399 410.772,618.066 410.5,610.5 Z"/></g>
<g><path style="opacity:1" fill="#6d7d8c" d="M 370.5,605.5 C 372.746,609.805 374.08,614.471 374.5,619.5C 372.254,615.195 370.92,610.529 370.5,605.5 Z"/></g>
<g><path style="opacity:1" fill="#768694" d="M 328.5,616.5 C 330.074,618.102 330.741,620.102 330.5,622.5C 328.926,620.898 328.259,618.898 328.5,616.5 Z"/></g>
<g><path style="opacity:1" fill="#6a7988" d="M 365.5,615.5 C 366.924,617.515 367.59,619.848 367.5,622.5C 366.076,620.485 365.41,618.152 365.5,615.5 Z"/></g>
<g><path style="opacity:1" fill="#033780" d="M 322.5,621.5 C 325.739,629.216 328.405,637.216 330.5,645.5C 326.86,637.915 324.194,629.915 322.5,621.5 Z"/></g>
<g><path style="opacity:1" fill="#6d7c8b" d="M 331.5,627.5 C 333.074,629.102 333.741,631.102 333.5,633.5C 331.926,631.898 331.259,629.898 331.5,627.5 Z"/></g>
<g><path style="opacity:1" fill="#6f7f8d" d="M 369.5,631.5 C 371.074,633.102 371.741,635.102 371.5,637.5C 369.926,635.898 369.259,633.898 369.5,631.5 Z"/></g>
<g><path style="opacity:1" fill="#637282" d="M 371.5,637.5 C 372.924,639.515 373.59,641.848 373.5,644.5C 372.076,642.485 371.41,640.152 371.5,637.5 Z"/></g>
<g><path style="opacity:1" fill="#7c8b99" d="M 413.5,632.5 C 414.895,636.591 415.562,640.924 415.5,645.5C 414.732,644.737 414.232,643.737 414,642.5C 413.502,639.183 413.335,635.85 413.5,632.5 Z"/></g>
<g><path style="opacity:1" fill="#677686" d="M 373.5,644.5 C 375.277,647.505 376.277,650.838 376.5,654.5C 374.723,651.495 373.723,648.162 373.5,644.5 Z"/></g>
<g><path style="opacity:1" fill="#6a7989" d="M 379.5,642.5 C 381.074,644.102 381.741,646.102 381.5,648.5C 379.926,646.898 379.259,644.898 379.5,642.5 Z"/></g>
<g><path style="opacity:1" fill="#788896" d="M 415.5,646.5 C 417.236,651.911 418.236,657.578 418.5,663.5C 416.125,658.198 415.125,652.532 415.5,646.5 Z"/></g>
<g><path style="opacity:1" fill="#90a1ac" d="M 376.5,654.5 C 379.204,660.941 381.537,667.608 383.5,674.5C 379.295,668.579 376.962,661.912 376.5,654.5 Z"/></g>
<g><path style="opacity:1" fill="#0051bd" d="M 334.5,657.5 C 336.942,662.836 338.609,668.503 339.5,674.5C 335.21,674.802 331.21,674.136 327.5,672.5C 330.833,672.5 334.167,672.5 337.5,672.5C 336.627,667.466 335.627,662.466 334.5,657.5 Z"/></g>
<g><path style="opacity:1" fill="#7f909c" d="M 387.5,670.5 C 388.924,672.515 389.59,674.848 389.5,677.5C 388.076,675.485 387.41,673.152 387.5,670.5 Z"/></g>
<g><path style="opacity:1" fill="#a6b7c0" d="M 383.5,674.5 C 384.768,676.905 385.435,679.572 385.5,682.5C 380.206,682.375 375.206,681.375 370.5,679.5C 374.857,679.586 379.19,679.92 383.5,680.5C 383.5,678.5 383.5,676.5 383.5,674.5 Z"/></g>
<g><path style="opacity:1" fill="#3aadff" d="M 389.5,794.5 C 394.414,794.362 399.081,795.028 403.5,796.5C 398.586,796.638 393.919,795.972 389.5,794.5 Z"/></g>
</svg>
