<svg width="500" height="500" viewBox="0 0 500 500" fill="none" xmlns="http://www.w3.org/2000/svg">
<circle cx="242.188" cy="234.837" r="217.418" fill="#C6F8FF" stroke="#3103EB" stroke-width="4.96278"/>
<circle cx="242.188" cy="252.489" r="224.081" fill="#C6F8FF" stroke="#3103EB" stroke-width="4.96278"/>
<path d="M282.73 126.725C335.035 126.725 372.215 162.588 372.215 212.952C372.215 263.315 335.035 299.177 282.73 299.177H225.091V375.452H186.429V299.177H123.488V267.286H186.429V126.725H282.73ZM224.932 267.286H280.035C310.78 267.286 333.553 244.274 333.553 212.952C333.553 181.629 310.78 158.618 280.035 158.618H224.932V267.286Z" fill="#3103EB" stroke="#2A00D6" stroke-width="5.57029"/>
<path d="M282.73 134.204C335.035 134.204 372.215 170.067 372.215 220.431C372.215 270.794 335.035 306.656 282.73 306.656H225.091V382.931H186.429V306.656H123.488V274.765H186.429V134.204H282.73ZM224.932 274.765H280.035C310.78 274.765 333.553 251.753 333.553 220.431C333.553 189.108 310.78 166.097 280.035 166.097H224.932V274.765Z" fill="#3103EB" stroke="#3103EB" stroke-width="5.57029"/>
<circle cx="245.52" cy="256.813" r="194.095" stroke="#3103EB" stroke-width="4.96278"/>
<circle cx="245.52" cy="252.824" r="190.763" stroke="#3103EB" stroke-width="4.96278"/>
</svg>
