<svg width="32" height="32" viewBox="0 0 32 32" fill="none" xmlns="http://www.w3.org/2000/svg">
<rect width="32" height="32" fill="url(#paint0_linear_1024_13)"/>
<path d="M11.7559 18.4482V15.2138C10.1115 12.9807 9.20032 10.2598 9.20032 7.43372V6.28823L7.04004 5.70938V7.15627C7.04004 11.4161 8.75068 15.4783 11.7559 18.4482Z" fill="white"/>
<path d="M13.8658 21.2336H13.8732V15.0104H13.8658V7.53779L16.0168 8.11301V24.0045C20.1611 23.4424 22.3342 20.9187 22.7587 16.1922L22.7711 16.0483L18.1391 14.7821V12.5753L24.9593 14.4396L24.96 15.524L24.9593 15.5573C24.9496 15.9247 24.9123 16.2803 24.8754 16.6235C24.326 21.7266 21.8841 24.2363 19.0659 25.3853C17.2659 26.0215 15.5325 26.3224 13.8658 26.288V21.2336Z" fill="white"/>
<path d="M18.1366 8.67395L23.1704 10.0188V12.2487L18.1366 10.8291V8.67395Z" fill="white"/>
<defs>
<linearGradient id="paint0_linear_1024_13" x1="0" y1="0" x2="32" y2="32" gradientUnits="userSpaceOnUse">
<stop stop-color="#09203F"/>
<stop offset="1" stop-color="#537895"/>
</linearGradient>
</defs>
</svg>
