<?xml version="1.0" encoding="UTF-8"?><svg id="Layer_1" xmlns="http://www.w3.org/2000/svg" xmlns:xlink="http://www.w3.org/1999/xlink" viewBox="0 0 474.28 436.44"><defs><linearGradient id="linear-gradient" x1="293.14" y1="247.33" x2="293.14" y2="-140.03" gradientTransform="translate(-56 292.44) scale(1 -1)" gradientUnits="userSpaceOnUse"><stop offset=".26" stop-color="#ef3e30"/><stop offset=".38" stop-color="#ef452f"/><stop offset=".99" stop-color="#f37033"/></linearGradient><linearGradient id="linear-gradient-2" x1="293.45" y1="169.92" x2="291.27" y2="-37.07" xlink:href="#linear-gradient"/><linearGradient id="linear-gradient-3" x1="166.37" y1="168.84" x2="166.37" y2="-29.7" xlink:href="#linear-gradient"/><linearGradient id="linear-gradient-4" x1="419.63" y1="168.84" x2="419.63" y2="-29.7" xlink:href="#linear-gradient"/></defs><path d="M304.18,15.22h-134.08c-32.65,0-62.81,17.42-79.13,45.69L23.93,177.02c-16.32,28.27-16.32,63.1,0,91.38l67.04,116.11c16.32,28.27,46.49,45.69,79.13,45.69h134.08c32.64,0,62.81-17.42,79.13-45.69l67.04-116.11c16.32-28.27,16.32-63.1,0-91.38l-67.04-116.11c-16.32-28.27-46.49-45.69-79.14-45.69Z" fill="#141522"/><path d="M390.82,47.96l70.62,122.31c17.13,29.68,17.13,66.24,0,95.91l-70.62,122.31c-17.13,29.68-48.8,47.96-83.06,47.96h-141.23c-34.27,0-65.93-18.28-83.06-47.96L12.85,266.18c-17.13-29.68-17.13-66.24,0-95.91L83.46,47.96C100.6,18.28,132.26,0,166.53,0h141.23c34.27,0,65.93,18.28,83.06,47.96ZM302.1,17.15h-129.93c-31.64,0-60.87,16.88-76.69,44.27L30.53,173.95c-15.82,27.4-15.82,61.15,0,88.55l64.97,112.52c15.82,27.4,45.05,44.27,76.69,44.27h129.93c31.64,0,60.87-16.88,76.69-44.27l64.97-112.52c15.82-27.4,15.82-61.15,0-88.55l-64.97-112.52c-15.82-27.4-45.05-44.27-76.69-44.27Z" fill="url(#linear-gradient)"/><path d="M237.47,151.26c-.23.04-.42.08-.65.11.08-.07.11-.11.19-.19,0,0,.15.04.46.08Z" fill="#333"/><path d="M237.89,171.16c-.49-.11-.99-.23-1.49-.34.69-.12,1.07-.15,1.07-.15.15.15.31.34.42.5Z" fill="#333"/><path d="M236.86,124.22c-59.23,0-101.95,25.91-127.56,54.16,78.03,8.53,118.33,71.36,127.56,150.44,9.23-79.09,49.53-141.91,127.56-150.44-25.61-28.25-68.33-54.16-127.56-54.16Z" fill="url(#linear-gradient-2)"/><path d="M54.74,217.42c42.8,18.63,89.34,28.34,134.7,40.04-21.04-1.26-167.61-13.76-157.64-43.87,1.43-4.31,4.95-6.91,7.99-8.64,19.89-11.93,43.87-20.31,69.34-26.39-8.64,9.56-15.37,19.5-20.08,28.65h.23c-11.9,2.37-23.44,5.5-34.53,10.21Z" fill="url(#linear-gradient-3)"/><path d="M429.84,230.65c-17.82,8.15-37.06,11.9-55.76,15.64-29.79,5.55-59.74,9.18-89.8,11.17,29.26-7.15,58.36-14.38,86.93-22.95,16.14-5.28,32.89-9.6,47.85-17.02-11.09-4.67-22.76-7.92-34.69-10.29h.27c-4.63-9.07-11.25-18.86-19.85-28.34,2.94.69,5.89,1.42,8.8,2.14,22.3,6.2,46.35,13.08,65.21,27.57,10.11,8.03-.15,18.4-8.95,22.07Z" fill="url(#linear-gradient-4)"/><path d="M237.03,143.64c-4.23,23.23-17.3,36.17-39.19,39.53,21.89,3.36,34.96,16.3,39.19,39.53,4.23-23.24,17.3-36.18,39.19-39.53-21.89-3.36-34.96-16.3-39.19-39.53Z" fill="#191919"/></svg>