<svg width="32" height="32" viewBox="0 0 32 32" fill="none" xmlns="http://www.w3.org/2000/svg">
<path d="M0 16C0 7.16344 7.16344 0 16 0C24.8366 0 32 7.16344 32 16C32 24.8366 24.8366 32 16 32C7.16344 32 0 24.8366 0 16Z" fill="white"/>
<path fill-rule="evenodd" clip-rule="evenodd" d="M25 16C25 11.034 20.966 7 16 7C11.034 7 7 11.034 7 16C7 20.966 11.034 25 16 25C20.966 25 25 20.966 25 16Z" fill="white"/>
<path fill-rule="evenodd" clip-rule="evenodd" d="M12.612 14.4879L16.0003 9.29218V12.5448L12.612 14.4879ZM11.9575 15.4848C11.9932 15.4299 12.029 15.375 12.0648 15.3201L15.9958 22.7078C14.7695 22.7075 13.543 22.2492 12.6075 21.3325C11.0174 19.7742 10.7472 17.3422 11.9575 15.4848Z" fill="black"/>
<path opacity="0.6" fill-rule="evenodd" clip-rule="evenodd" d="M12.612 14.4875L16.0003 12.5502V16.4227L12.612 14.4875ZM12.0649 15.3201L16.0003 17.5652V22.7078L12.0649 15.3201Z" fill="black"/>
<path opacity="0.6" fill-rule="evenodd" clip-rule="evenodd" d="M19.3883 14.4879L16 9.29218V12.5448L19.3883 14.4879ZM20.0428 15.4848C20.0072 15.4299 19.9713 15.375 19.9355 15.3201L16.0045 22.7078C17.2308 22.7075 18.4574 22.2492 19.3928 21.3325C20.9829 19.7742 21.2531 17.3422 20.0428 15.4848Z" fill="black"/>
<path opacity="0.2" fill-rule="evenodd" clip-rule="evenodd" d="M19.3883 14.4875L16 12.5502V16.4227L19.3883 14.4875ZM19.9353 15.3201L16 17.5652V22.7078L19.9353 15.3201Z" fill="black"/>
<path fill-rule="evenodd" clip-rule="evenodd" d="M11.855 3.38363C13.3455 2.89371 14.9385 2.66971 16.5164 2.73019C18.0946 2.79067 19.6582 3.13595 21.1132 3.74395C22.5686 4.35195 23.9154 5.22299 25.0678 6.29755C26.5919 7.71931 27.7753 9.49755 28.485 11.4867C29.1951 13.4761 29.4316 15.6764 29.1577 17.7711C28.8841 19.8659 28.1001 21.8553 26.9142 23.566C25.7282 25.2767 24.1401 26.7084 22.2748 27.7004C20.4095 28.6921 18.2665 29.2438 16.1542 29.2758C14.0418 29.3078 11.9599 28.8204 10.0953 27.895C8.23095 26.9695 6.58359 25.6063 5.33271 23.9036C4.08183 22.2009 3.22743 20.1587 2.88823 18.0748C2.54903 15.9907 2.72503 13.8646 3.37495 11.8812C3.86615 10.3817 4.62839 8.96411 5.60503 7.73563H4.12055V5.28187H9.93719V10.7135H7.48343V9.22939C6.68343 10.2355 6.05879 11.3967 5.65655 12.6255C5.12439 14.2511 4.98103 15.9951 5.25655 17.6969C5.59895 19.8137 6.58903 21.8649 8.06679 23.4457C9.83447 25.3363 12.2998 26.5542 14.8662 26.8207C17.4322 27.0873 20.0994 26.4028 22.2175 24.9286C24.3356 23.4543 25.9052 21.1903 26.5423 18.6899C27.1794 16.1894 26.8841 13.4524 25.7353 11.142C24.5865 8.83163 22.5839 6.94843 20.1894 5.95899C17.7948 4.96923 15.0079 4.87387 12.6041 5.66363L11.855 3.38363Z" fill="url(#paint0_linear_406_420917)"/>
<defs>
<linearGradient id="paint0_linear_406_420917" x1="2.04365" y1="13.2971" x2="15.2224" y2="29.5764" gradientUnits="userSpaceOnUse">
<stop stop-color="#004CFF"/>
<stop offset="0.252131" stop-color="#00E0FB"/>
<stop offset="0.505709" stop-color="#87FF70"/>
<stop offset="0.755054" stop-color="#F8F500"/>
<stop offset="1" stop-color="#FF1A00"/>
</linearGradient>
</defs>
</svg>
