<svg width="32" height="32" viewBox="0 0 32 32" fill="none" xmlns="http://www.w3.org/2000/svg">
<circle cx="14.5" cy="14.5" r="14.5" fill="black"/>
<path fill-rule="evenodd" clip-rule="evenodd" d="M14.5 25.375C20.5061 25.375 25.375 20.5061 25.375 14.5C25.375 8.4939 20.5061 3.625 14.5 3.625C8.4939 3.625 3.625 8.4939 3.625 14.5C3.625 20.5061 8.4939 25.375 14.5 25.375ZM14.5 29C22.5081 29 29 22.5081 29 14.5C29 6.49187 22.5081 0 14.5 0C6.49187 0 0 6.49187 0 14.5C0 22.5081 6.49187 29 14.5 29Z" fill="#69E2DC"/>
<path d="M14.0658 15.9234L14.1182 17.1485C14.1182 17.8712 13.9375 18.447 13.5761 18.8759H19.2857V21H10.0262V18.8759H10.8306C11.2503 18.7702 11.4602 18.2443 11.4602 17.2983L11.4165 15.9234H10V13.8434H11.3465L11.2853 11.8427C11.2853 10.6558 11.6438 9.71864 12.3608 9.03119C13.0836 8.34373 14.0483 8 15.2549 8C16.4907 8 17.4612 8.33198 18.1665 8.99593C18.8719 9.65401 19.2245 10.5471 19.2245 11.6753H16.7151C16.7151 11.1758 16.5869 10.7939 16.3304 10.5295C16.0797 10.2651 15.7183 10.1329 15.2462 10.1329C14.8614 10.1329 14.5408 10.2768 14.2844 10.5647C14.0337 10.8527 13.9084 11.2786 13.9084 11.8427L13.9871 13.8434H16.6889V15.9234H14.0658Z" fill="white"/>
<circle cx="25" cy="25" r="7" fill="#69E2DC"/>
<path d="M22.5924 29H21V21H22.5924V29Z" fill="black"/>
<path d="M23.9303 29V21H26.3676C27.1909 21 27.8156 21.1868 28.2417 21.5604C28.6714 21.9304 28.8863 22.4744 28.8863 23.1923C28.8863 23.5989 28.7978 23.9487 28.6209 24.2418C28.4439 24.5348 28.202 24.7491 27.8951 24.8846C28.2489 24.9872 28.5216 25.1941 28.7129 25.5055C28.9043 25.8132 29 26.1941 29 26.6484C29 27.4249 28.7888 28.011 28.3663 28.4066C27.9474 28.8022 27.339 29 26.541 29H23.9303ZM25.5227 25.522V27.6593H26.541C26.8262 27.6593 27.0429 27.5696 27.1909 27.3901C27.339 27.2106 27.413 26.956 27.413 26.6264C27.413 25.9084 27.1566 25.5403 26.6439 25.522H25.5227ZM25.5227 24.3462H26.3514C26.9761 24.3462 27.2884 24.0183 27.2884 23.3626C27.2884 23 27.2162 22.7399 27.0718 22.5824C26.9273 22.4249 26.6926 22.3462 26.3676 22.3462H25.5227V24.3462Z" fill="black"/>
</svg>
