<svg viewBox="0 0 100 100" fill="none" xmlns="http://www.w3.org/2000/svg">
	<circle cx="50" cy="50" r="50" fill="#F1F1F1" />
	<circle cx="4.84" cy="4.84" r="4.84" fill="#F96D30" transform="translate(69 75)" />
	<path d="m66.1538 58.0044c-.7777-2.1988-2.0613-4.1583-3.8889-5.8883-1.8276-1.73-3.8842-3.3547-6.208-4.8839-.4934-.2886-.939-.6059-1.3944-.8849l3.126-12.3178c0 0 .0761.0193.0663.0577.8807.8361 1.4844 1.8063 1.8494 2.92.2059.6241.326 1.2672.2843 1.9101-.0144.8541.6 1.6227 1.4366 1.8351l7.1489 1.8142c1.1408.2895 2.3163-.5149 2.4184-1.7144.2031-2.2358-.0325-4.3378-.7448-6.3157-.9562-2.6117-2.5714-4.8596-4.8552-6.7054-1.5164-1.2017-3.2911-2.1831-5.3144-2.9825l1.9769-7.7898c.224-.8826-.3135-1.795-1.1881-2.017l-2.928-.743c-.8746-.222-1.7821.3237-2.0061 1.2063l-1.9477 7.6747c-2.302-.3391-4.4917-.323-6.6072.0387-2.916.4853-5.3979 1.6526-7.398 3.4732-2.0381 1.8109-3.4325 4.2753-4.2214 7.3835-.7888 3.1083-.6385 6.8224.8978 9.5405 1.5266 2.7564 4.1305 5.2552 7.7921 7.5732.6924.4616 1.3944.8849 2.0488 1.3369l-3.5643 14.0446c-.275-.1923-.512-.375-.7392-.596-1.0415-.9996-1.7965-2.1714-2.1888-3.4963-.2713-.8449-.371-1.728-.3371-2.6588.0338-.9309-.5611-1.7762-1.4357-1.9982l-6.9208-1.7563c-1.1408-.2895-2.2686.4862-2.4086 1.676-.3005 2.6195-.0668 5.0478.7772 7.3042 1.0596 2.8422 2.8357 5.2535 5.4043 7.2532 1.6871 1.3267 3.6139 2.3467 5.7415 3.2134l-1.7335 6.8305c-.224.8826.3135 1.795 1.1881 2.017l2.928.743c.8746.222 1.7821-.3237 2.0061-1.2063l1.6945-6.677c2.8724.4839 5.4716.4492 7.8454-.1329 3.0222-.7443 5.505-2.0747 7.4583-4.0297 1.9532-1.955 3.2707-4.2756 3.9621-7.0001.6914-2.7245.8134-5.7569.0357-7.9557l-.0565-.096zm-17.5022-16.0416c-.9187-.8459-1.5419-1.7392-1.9078-2.6898-.3659-.9506-.4169-2.0255-.1053-3.2535.3117-1.2279.8691-2.1484 1.644-2.8095.7749-.6611 1.7292-1.0724 2.8153-1.2052.2476-.0189.505-.0761.7809-.0469l-2.6586 10.4759c-.1609-.1634-.3696-.298-.5305-.4614l-.038-.0096zm4.8752 24.968c-.8324.7282-1.8726 1.1586-3.0639 1.3872-.429.0954-.9145.0947-1.4.094l3.0481-12.0108c.2653.2307.5305.4613.7577.6824 1.0416.9995 1.7877 2.0466 2.2287 3.1797.441 1.133.4911 2.3711.1503 3.7141-.3409 1.3431-.8983 2.2636-1.759 2.9438l.0381.0096z" fill="#1D1D1F" />
</svg>
