<svg width="250" height="250" viewBox="0 0 250 250" fill="none" xmlns="http://www.w3.org/2000/svg">
<path d="M126 249.88C85.2701 249.88 44.5501 249.84 3.82013 249.96C0.690129 249.96 0.00012207 249.24 0.00012207 246.13C0.120122 203.75 0.0801392 161.36 0.0801392 118.98C5.36014 104.24 13.0801 90.74 21.0201 77.33C23.9201 75.27 26.1301 72.79 26.0601 68.93C26.6601 67.08 27.7901 65.59 29.1501 64.25C31.7701 62.39 33.9901 60.18 35.2201 57.12C35.4901 56.73 35.8001 56.39 36.1501 56.07C44.1401 49.71 50.0901 41.62 55.3901 33.04C57.7601 29.21 61.4701 26.54 63.8201 22.72C69.4201 18.32 76.3001 19.26 82.5401 19.18C87.5101 19.12 92.8001 19.03 97.8401 20.55C106.37 23.13 112.46 28.18 115.36 36.74C116.98 41.5 115.1 43.65 109.99 42.99C102.7 42.04 95.3601 42.15 88.0901 42.67C79.9001 43.26 72.8601 46.67 68.0101 53.62C70.2101 54.66 71.1301 52.72 72.0801 51.64C76.9801 46.07 83.3001 44.27 90.3901 44.42C98.6001 44.59 106.89 42.81 115.01 45.6C117.56 46.47 120.01 47.04 121.58 49.58C123.28 52.34 126.73 53.14 128.87 55.5C130.65 57.46 132.73 59.17 133.9 61.63C135.47 64.92 134.73 66.66 131.18 67.39C125.65 68.52 120.06 68.81 114.41 68.58C103.31 68.13 92.2701 69.31 81.2401 70.24C78.4701 71.46 75.6701 72.57 72.7001 73.2C68.0801 73.46 67.1501 77.61 65.0301 80.5C64.5101 81.54 63.7601 82.43 63.1301 83.39C60.1601 87.95 60.8801 89.55 66.1401 90.25C68.6801 90.59 70.7901 91.85 72.7701 93.39C75.2101 95.56 77.2401 97.98 77.6601 101.38C86.3201 112.44 97.9401 116.66 111.67 116.64C117.45 116.64 123.22 117.78 129.04 117.63C130.68 117.59 132.58 117.7 133.27 119.59C133.85 121.18 132.73 122.45 131.73 123.57C128.15 127.58 124.25 131.15 118.85 132.57C114.35 133.75 110.21 135.9 105.81 137.35C110.64 135.7 115.35 133.72 120.23 132.19C123.04 131.31 125.7 129.86 127.86 127.62C132.82 122.49 137.64 117.15 144.12 113.82C145.91 112.9 146.37 111.01 147.56 109.66C152.22 107.85 155.7 109.17 157.48 113.42C157.31 114.16 156.85 114.72 156.36 115.25C155.09 116.94 155.89 118.08 157.52 118.64C163.3 120.63 166.6 125.27 169.97 129.9C171.01 131.33 171.9 133.31 174.32 132.63C174.05 129.54 171.59 127.82 169.98 125.6C168.75 123.91 166.11 122.53 167.07 120.26C168.07 117.91 170.92 119.43 172.53 119C169.03 118.72 164.88 119.58 161.81 116.15C161.43 112.06 162.54 110.44 165.98 111.07C170.61 111.91 175.22 111.67 179.84 111.64C182.35 111.63 184.5 112.14 185.18 115.01C185.29 116.04 185.62 117.04 185.83 118.05C185.97 119.03 185.89 119.99 185.53 120.91C185.36 121.49 184.95 122.24 185.93 122.41C187.42 122.68 188.84 122.4 190.23 121.68C192.52 120.48 194.36 117.1 197.56 119.57C200.78 122.06 203.09 125.25 203.25 129.56C203.31 131.37 203.37 133.19 203.13 135.01C202.07 140.46 198.75 144.63 195.31 148.68C191.97 152.61 187.13 153.44 182.37 154.31C171.64 156.28 160.91 155.26 150.21 154.18C141.01 153.25 131.77 152.95 122.58 151.61C116.19 150.67 109.84 149.55 103.57 148.2C92.4301 145.8 81.1301 143.97 70.4301 139.82C67.7701 137.95 65.1201 136.07 69.0601 132.92C68.8401 132.13 68.1601 131.91 67.5101 131.66C62.5401 130.98 57.7301 130.95 53.3201 133.92C51.9101 134.87 50.5201 135.66 50.5001 137.59C50.5801 138.43 50.4701 139.29 50.9201 140.07C52.5301 141.27 54.0701 142.45 54.5001 144.64C55.0701 147.54 56.8601 149.71 59.1201 151.52C61.7001 153.87 64.2701 156.22 67.8201 157.05C68.6201 157.24 69.4101 157.62 70.0501 158.14C79.5001 165.93 91.2901 169.27 102.18 173.94C111.56 177.96 121.92 180.51 132.83 179.77C141.48 179.18 150.4 178.28 159.02 181.18C161.28 181.94 163.53 180.57 165.68 179.65C167.64 178.81 169.68 178.54 170.83 180.89C171.86 182.99 170.59 184.43 168.92 185.42C163.29 188.75 159.18 193.82 154.36 198.07C151.46 200.62 148.64 201.46 144.83 200.74C141.94 200.2 138.92 198.72 135.81 201.04C130.99 204.64 128.34 208.63 132.71 213.86C134.75 216.68 136.58 219.64 138.59 222.48C141.98 227.27 142.24 232.68 141.67 238.18C141.34 241.41 139.19 243.6 136.32 244.88C134.03 245.9 131.96 247.24 129.89 248.62C128.79 249.71 127.09 248.96 125.95 249.9L126 249.88Z" fill="#4E9643"/>
<path d="M0.0801371 112.99C0.0801371 76.52 0.13012 40.05 0.000120062 3.57999C-0.00987994 0.599987 0.600137 0 3.58014 0C84.5301 0.1 165.47 0.1 246.42 0C249.4 0 250 0.599987 250 3.57999C249.9 84.52 249.9 165.45 250 246.39C250 249.37 249.43 250.18 246.41 249.97C241.94 249.65 237.42 249.89 232.92 249.89C230.71 237.04 224.05 226.42 216.15 216.42C215.22 215.24 214.46 213.98 213.94 212.57C212.3 205.32 211.06 204.06 204.55 203.11C199.72 201.3 195.55 198.33 191.25 195.58C187.46 191.96 190.05 188.99 192.4 186.22C195.43 182.65 197.27 178.85 196.05 174.07C195.53 170.96 197.18 168.71 198.97 166.46C201.44 163.34 203.18 160.02 200.86 156.01C200.68 155.05 200.68 154.09 200.89 153.13C201.43 150.93 203.12 149.56 204.57 148C210.58 141.52 210.65 139 205.03 131.46C203.05 127.54 200.92 123.71 198.81 119.86C198.19 116.05 198.72 112.83 201.98 110.04C204.2 108.15 204.24 105.36 204.27 102.1C204.32 95.96 202.43 89.69 204.91 83.51C206.67 79.12 205.23 76.4 200.76 74.35C196.36 72.33 193.61 68.71 190.58 65.16C187.89 62 186.21 57.07 180.58 57.69C177.19 56.86 175.68 54.43 174.14 51.42C168.86 41.11 163.76 30.63 152.88 24.62C143.22 19.28 129.54 20.13 121.27 27.08C119.99 28.15 118.61 29.08 117.25 30.01C115.11 31.48 113.12 31.55 111.08 29.38C105.26 23.17 98.2501 19.71 89.4701 19.96C85.7101 20.07 81.9801 19.28 78.1201 19.37C70.4401 19.55 63.8901 21.97 58.0901 26.81C56.7401 27.79 55.4301 28.83 54.5301 30.26C47.8901 40.82 40.1501 50.54 32.0901 60.05C23.9801 69.62 18.7801 81.06 12.8801 92.01C9.65013 98 6.67013 104.14 3.45013 110.14C2.74013 111.46 2.48014 113.56 0.0801371 113V112.99Z" fill="#4E9643"/>
<path d="M206.95 249.88H200.95C197.4 247.27 198.66 244.45 200.8 241.85C202.99 239.19 205.59 236.87 207.45 233.94C207.51 233.85 207.42 233.58 207.31 233.49C207.21 233.4 207 233.43 206.8 233.42C204.4 234.22 203.15 236.18 201.78 238.06C199.69 240.93 197.1 243.18 193.62 244.23C188.95 245.63 186.15 243.49 186.38 238.6C186.47 236.61 187.05 234.69 187.69 232.81C188.65 229.89 190.66 227.74 192.91 225.76C189.23 228.39 187.29 232.37 184.94 236.03C181.63 241.17 178.55 241.91 173.35 238.71C165.92 234.14 165.17 228.88 171.03 222.52C171.82 221.67 172.56 220.7 173.56 220.15C179.5 216.93 184.94 212.9 190.84 209.62C193.09 209.57 194.21 207.98 195.42 206.39C197.28 203.94 199.55 202.2 202.91 202.92C209.96 205.55 213.59 211.49 217.07 217.57C219.86 225.81 224.71 232.83 230.04 239.58C231.84 243.04 234.21 246.5 229.93 249.88H210.94C211.14 245.26 215.45 243.31 217.29 239.95C213.76 243.01 211.81 247.97 206.94 249.88H206.95Z" fill="#4E9644"/>
<path d="M190.8 210.82C185.8 214.62 180.49 217.88 174.86 220.7C171.83 222.22 169.67 225.2 168.65 228.25C166.95 233.3 171.29 235.6 174.59 237.85C178.83 240.73 181.06 239.82 183.72 235.45C186.82 230.35 189.55 224.74 196.38 223.3C194.97 227.31 190.02 228.61 188.98 232.85C188.09 234.06 187.4 235.35 186.99 236.82C186.3 239.29 184.54 241.93 187.77 243.86C190.83 245.69 193.72 245.04 196.4 242.85C199.62 240.21 202.02 236.78 204.98 233.89C205.83 233.07 206.97 232.69 207.79 231.87C208.66 231.59 209.47 230.43 210.44 231.37C211.23 232.12 210.54 232.9 210 233.51C207.69 236.11 205.56 238.92 202.97 241.21C200.06 243.77 199.08 246.41 200.96 249.9H197.96C195.1 248.05 191.9 249.37 188.88 248.92C187.44 248.7 185.44 249.41 184.63 248.24C180.45 242.18 171.98 243.25 167.56 237.74C165.25 235.84 162.81 234.12 160.63 232.06C157.9 229.47 155.84 226.55 155.5 222.67C155.21 219.42 153.85 217.05 150.5 216C147.47 215.05 145.47 212.93 144.45 209.85C143.68 207.52 142.42 205.59 139.58 205.64C138.19 205.66 136.86 206.12 136.23 207.43C135.05 209.92 136.42 211.91 137.79 213.83C138.66 215.05 139.77 216.06 140.73 217.21C144.86 222.15 148.04 227.4 147.48 234.3C147.08 239.25 148.83 243.39 153.31 246.16C154.61 246.96 156.37 247.75 155.99 249.9H151.99C148.3 248.33 144.81 246.56 144.31 242.1C142.02 246.54 138.16 249.14 133 249.9H126C127.02 249.3 128.04 248.7 129.06 248.1C131.9 246.1 135.53 245.56 138.23 243.44C142.56 240.04 143.42 231.47 140.3 225.6C138.03 221.33 135.14 217.5 131.77 214.04C129.81 210.64 128.94 207.18 131.81 203.88C134.88 200.34 138.76 198.56 143.37 200.37C147.54 202.02 150.47 200.67 153.67 197.93C158.55 193.74 162.92 188.93 168.5 185.54C174.21 182.07 179.89 180.93 185.67 185.13C188.35 187.08 190.23 186.41 191.82 183.78C193.61 180.84 194.48 177.73 193.75 174.28C194.76 172.91 195.95 173.1 197.2 173.88C199.26 179.38 196.45 183.45 193.22 187.38C191.33 189.68 188.96 191.85 191.97 194.93C192.27 195.85 191.72 196.21 190.97 196.44C188.42 196.38 187.42 194.26 186.04 192.68C180.96 186.86 178.2 186.38 171.39 190.05C167.26 192.28 163.94 195.55 160.28 198.39C158.81 199.53 158.49 200.61 159.93 202.05C161.25 203.38 162.01 205.03 162.04 206.96C161.94 208.74 161.13 210.11 159.71 211.17C158.46 212.11 157.02 212.89 155.56 212.2C153.56 211.27 154.69 209.67 155.21 208.35C155.76 206.96 155.95 205.73 154.24 205.06C153.02 204.58 151.92 204.93 151.08 205.88C150.08 207.01 150 208.26 150.83 209.55C152.38 211.95 156.67 213.07 159.25 211.51C161.23 210.32 163.37 209.31 164.98 207.55C165.35 207.22 165.75 206.95 166.17 206.69C168.27 205.38 170.12 203.74 172.27 202.49C177.21 199.61 181.81 201.1 186.3 203.52C187.5 204.17 188.38 205.26 187.88 206.89C189.2 206.6 190.17 205.62 191.37 205.1C192.76 204.5 194.26 203.66 195.26 205.42C196.19 207.06 194.97 208.14 193.77 209.12C192.86 209.86 191.79 210.29 190.77 210.83L190.8 210.82Z" fill="#132313"/>
<path d="M155.98 249.88C155.02 248.43 153.5 247.67 152.02 246.97C147.9 245 145.93 241.36 146.3 237.27C147.13 228.13 143.53 221.18 137.11 215.21C136.28 214.43 135.66 213.39 135.06 212.4C133.08 209.17 133.31 206.38 136.92 204.47C140.49 202.59 144.49 203.86 145.28 207.73C146.23 212.37 148.8 214.66 153.17 215.46C154.76 215.75 156.21 216.35 156.15 218.21C155.83 227.16 162.23 231.68 168.1 236.56C171.23 239.63 173.92 242.94 179.01 243.49C181.79 243.79 184.24 246.55 184.96 249.88H155.98Z" fill="#4E9644"/>
<path d="M0.0801392 112.99C5.32014 105.5 8.97013 97.13 13.0101 89C21.3501 72.21 31.8201 57 44.4101 43.13C47.8201 39.37 50.1101 34.6 52.9101 30.3C54.0101 28.62 55.2401 27.07 57.0501 26.09C57.8201 26.28 58.3101 26.74 58.4101 27.56C51.7501 37.97 45.8901 48.99 36.1201 57.06H36.0601C34.1301 59.82 32.0701 62.46 29.7901 64.94C28.8701 66.31 27.9501 67.69 27.0301 69.06C25.9601 72.41 24.3601 75.44 21.8201 77.92C15.2301 90.49 8.65014 103.06 2.05014 115.63C1.45014 116.78 0.740139 117.87 0.0801392 119C0.0801392 117 0.0801392 115 0.0801392 113V112.99Z" fill="#172E17"/>
<path d="M190.89 195.95C191.25 195.6 191.62 195.26 191.98 194.91C196.18 197.3 200.39 199.68 204.59 202.07C209.63 203.76 212.57 207.6 214.88 212.09C219.99 218.19 224.21 224.91 227.89 231.92C230.81 237.48 235.11 242.83 232.93 249.89H229.93C231.97 246.33 231 243.04 229.06 239.82C224.65 232.47 220.23 225.14 216.07 217.64C212.48 212.28 208.68 207.13 202.84 203.94C198.97 202.46 195.23 200.73 191.71 198.52C191.02 197.8 190.48 197.03 190.88 195.96L190.89 195.95Z" fill="#193319"/>
<path d="M133 249.88C137.09 247.6 141.37 245.58 144.19 240.06C145.47 245.57 149.52 246.98 151.99 249.88H133Z" fill="#568D4B"/>
<path d="M184.96 249.88C182.61 246.61 179.74 244.37 175.51 243.72C171.62 243.12 170.06 239.49 168.09 236.57C171.84 239.23 175.21 242.71 180.45 242.09C180.83 242.04 181.54 242.42 181.66 242.76C184.17 249.7 190.1 247.87 195.19 247.98C196.72 248.01 197.84 248.05 197.95 249.88H184.96Z" fill="#55894E"/>
<path d="M206.95 249.88C210.2 246.11 213.41 242.32 216.71 238.6C217.55 237.65 218.66 236.08 219.97 237.15C221.6 238.49 219.57 239.43 218.88 240.31C216.32 243.56 213.61 246.7 210.96 249.88H206.96H206.95Z" fill="#172E16"/>
<path d="M58.1501 27.09C57.7901 26.76 57.4201 26.42 57.0601 26.09C63.5801 20.19 71.4201 18.15 79.9901 18.17C91.8101 18.2 103.42 18.9 111.89 28.86C113.12 30.3 114.36 30.34 115.81 29.38C116.92 28.64 118.02 27.9 119.09 27.11C135.45 15.09 153.69 17.76 165.64 34.32C169.79 40.06 174.15 45.82 176.16 52.85C176.84 55.22 179.33 55.54 180.9 56.91C182.75 56.67 183.8 57.55 184.26 59.28C184.08 60.11 183.51 60.55 182.73 60.76C180.32 61.02 178.75 59.33 177 58.17C165.34 50.4 152.58 48.51 139.03 51.07C133.76 52.06 133.71 52.41 136.38 56.82C138.27 59.94 140.41 62.88 142.18 66.08C143.36 68.48 144.32 70.92 144.54 73.64C144.7 75.66 145.65 77.41 147.06 78.94C151.53 83.78 152.4 89.46 150.53 95.6C150.17 96.77 150.11 97.82 150.2 98.99C150.35 100.96 150.81 103.57 148.46 104.15C145.53 104.86 145.43 101.75 144.57 99.94C143.86 98.44 143.38 96.84 142.52 95.41C139.39 91.39 136.21 87.42 131.82 84.65C126.79 80.26 121.53 76.3 114.95 74.36C111.25 73.27 107.6 72.18 103.71 72.51C96.5901 73.11 89.4601 73.34 82.3301 73.71C74.8801 74.09 70.2801 79.36 66.0601 84.87C70.8301 78.5 77.6901 76.08 85.0801 74.6C90.6401 73.48 96.2801 73.15 101.9 72.65C106.99 72.2 111.89 73.47 116.25 76.12C121.65 79.41 127.23 82.34 132.87 85.18C136.42 88.29 140.01 91.36 141.96 95.83C143.65 99.66 144.8 103.77 147.84 106.91C148.65 107.75 148.92 108.91 148.08 110.02C148.07 113.45 145.43 114.99 143.01 116.24C139.21 118.2 136.04 120.84 133.51 124.12C126.36 133.41 115.25 134.99 105.31 138.83C104.21 139.26 101.9 139.77 101.6 137.77C101.34 136.02 103.41 136.46 104.58 136.03C114.12 132.49 124.76 131.06 131.48 122.1C131.95 121.48 132.36 120.81 133.27 119.48C126.11 118.77 119.49 119.19 112.99 118.14C108.41 117.4 103.76 117.11 99.1401 116.71C88.9501 115.83 82.9301 108.41 76.1701 102.14C77.0201 99.92 78.5901 100.21 80.2301 101.05C82.0201 101.96 83.7001 103.12 85.0401 104.58C89.9201 109.89 96.0001 112.11 103.1 112.94C113.02 114.1 122.97 114.33 132.9 115.1C136.47 115.38 139.55 113.89 141.87 110.99C137.11 111.56 132.78 113.84 128.02 114.14C125.16 114.32 122.01 115.51 119.76 112.48C119.88 111.03 120.9 110.21 121.94 109.41C126.5 107.98 131.45 108.6 135.93 106.43C138.35 105.26 139.09 104.19 138.27 101.52C135.01 90.94 130.52 88.56 118.54 91.38C115.96 90.43 113.4 89.52 110.58 89.36C109.07 89.27 106.79 89.46 107.15 86.67C109.85 84.8 112.92 85.59 115.86 85.44C117.45 85.61 119.06 85.58 120.74 85.72C120.2 84.62 118.95 84.56 118.18 83.85C112.84 79.67 106.8 77.87 100.04 78.45C91.7801 79.16 83.3901 79.36 75.9901 83.77C73.9201 85 70.6301 86.19 73.4201 89.73C74.3001 91.09 74.8801 92.49 74.1801 94.11C73.4301 94.64 72.7101 94.54 72.0001 94.01C69.4301 92.65 67.0801 91.2 63.7801 91.6C60.5601 91.99 59.8801 89.35 60.0501 86.58C60.2301 83.69 62.5801 82.11 63.9901 79.96C66.6201 77.23 68.5201 73.73 72.1701 72.05C74.8001 71.1 77.4301 70.14 80.0601 69.19C81.4801 67.85 83.2301 68.55 84.8001 68.54C97.0701 68.51 109.34 68.04 121.61 67.89C126.7 67.83 131.77 66.82 136.51 69.06C134.76 59 126.51 54.11 119.96 47.97C117.4 45.57 113.45 45.62 110.06 45.12C101.8 43.9 93.4901 44.41 85.2101 45.24C79.4201 45.82 75.1601 49.16 71.1601 52.97C69.4101 54.64 67.5701 55.85 65.0101 55.01C69.1601 48.37 74.9201 43.89 82.6101 42.16C91.6401 40.13 100.75 40.62 109.86 41.55C111.47 41.71 113.42 42.78 114.55 41.32C115.61 39.94 114.49 38.13 113.87 36.61C109.9 26.86 102.47 21.93 92.1301 21.13C86.0201 20.66 79.9201 20.35 73.7801 20.94C70.2301 21.28 66.9201 21.94 64.0101 24.08C62.2201 25.42 60.9501 27.79 58.1201 27.07L58.1501 27.09Z" fill="#132213"/>
<path d="M197.2 173.86C196.08 173.97 194.86 173.76 193.96 174.71C192.87 178.95 189.16 179.61 185.81 180.09C180.73 180.81 175.54 181.1 170.45 179.82C169.46 179.57 168.51 179.39 167.5 179.53C150.27 181.88 133.07 180.51 116.02 178.19C108.16 177.12 100.22 174.91 93.1701 170.71C88.0201 167.64 82.0601 166.15 76.9901 163.2C71.0201 159.72 64.6001 156.88 59.1701 152.47C57.2901 150.48 55.0101 148.94 54.1801 145.96C53.2801 142.71 53.1301 139.85 55.5801 137.28C58.0501 134.69 61.0601 134.61 64.2301 135.58C66.2401 136.2 68.0801 137.21 69.9301 138.2C94.4501 145.55 119.32 150.96 145.01 152.09C156.1 152.58 167.09 154.4 178.31 153.25C191.96 151.86 197.81 147.53 202.11 133.9C202.56 131.72 202.7 129.12 206.12 130.88C212.23 137.8 212.17 141.64 205.94 148.22C204.47 149.77 203.09 151.4 201.67 152.99C199.74 155.15 199.42 153.63 199.18 151.9C199.65 149.25 201.87 147.83 203.42 145.93C206.26 142.46 206.59 141.4 205.9 136.14C202.51 144.16 198.45 150.94 191.18 155.12C179.33 158.79 167.24 158.45 155.1 157.42C143 156.39 130.82 156.04 118.85 153.95C101.47 150.92 84.1201 147.73 67.2801 142.24C64.9201 141.47 61.7801 139.38 60.0601 142.38C58.1601 145.68 61.6101 147.44 63.7801 148.96C71.8301 154.62 80.8501 158.59 89.4901 163.21C113.24 175.91 138.92 176.15 164.85 174.56C169.34 174.28 173.84 174.4 178.33 174.38C190.6 174.33 197 169.29 199.93 157.3C200.34 156.52 200.79 155.81 201.86 156.02C204.64 159.28 203.37 162.23 201.43 165.38C199.78 168.06 196.36 169.93 197.19 173.86H197.2Z" fill="#1F160D"/>
<path d="M206.14 130.88C203.74 130.47 203.07 132.37 202.13 133.9C202.85 128.81 201.26 124.56 197.66 120.93C196.26 119.52 195.24 119.01 193.77 120.83C191.49 123.66 188.31 124.3 184.87 124.04C183.79 123.96 182.17 124.35 182.09 122.8C182 120.89 183.88 121.37 185.05 121.05C185.77 120.02 186.94 119.81 188.01 119.42C186.93 119.08 185.76 118.96 184.88 118.15C183.9 117.66 183.84 116.8 183.97 115.86C184.76 115.21 185.66 114.72 186.69 114.75C192.89 114.94 196.11 110.79 199.56 105.98C194.98 109.94 190.89 113.7 184.66 111.26C183.7 109.98 183.01 108.7 184.58 107.38C190.11 106.13 195.5 104.63 198.45 98.79C194.04 96.29 189.06 94.31 184.46 91.62C183.13 90.12 180.04 90.8 179.82 87.91C182.85 85.63 185.88 87 188.79 88.1C191.74 89.21 194.42 90.98 197.35 92.09C192.52 83.92 185.98 82.45 171.12 86.25C170.53 85.95 170.85 86.46 170.91 86.46C172.15 86.57 173.94 86.4 172.57 88.58C169.68 89.73 167.24 89.37 165.53 86.52C165.9 82.11 169.48 80.82 172.75 80.1C179.27 78.67 185.94 78.62 192.51 80.07C195.52 80.73 197.96 82.48 199.89 84.88C198.71 81.17 195.32 80.15 192.18 79.67C185.78 78.68 179.25 78.94 172.83 79.64C169.17 80.04 166.02 82.17 163.16 84.54C161.64 85.8 160.3 87.36 158.21 87.77C154.8 87.54 154.88 85.6 156.37 83.49C158.47 80.53 161.21 78.24 164.69 76.98C174.32 72.76 184.25 73.07 192.76 74.61C184.43 72.69 174.69 73.39 165.07 76.34C161.89 72.6 165.47 71.45 167.69 70.37C172.6 67.99 177.99 68.59 183.26 68.51C185.3 68.48 187.78 69.16 188.29 65.99C188.58 65.22 189.09 64.71 189.92 64.58C193.98 68.83 198.04 72.99 203.43 75.78C206.44 77.34 207.58 80.54 205.54 83.9C203.95 86.53 204.06 89.45 204.56 92.12C205.34 96.28 204.09 100.33 204.56 104.48C204.85 107.05 203.08 109.57 201.04 111.36C198.01 114.02 197.66 116.85 199.91 120.1C201.98 123.69 204.05 127.28 206.12 130.87L206.14 130.88Z" fill="#132213"/>
<path d="M59.3701 151.82C72.6901 160.28 87.0701 166.71 101.21 173.62C104.86 175.4 108.85 175.69 112.76 176.39C129.29 179.32 145.9 180.47 162.69 179.27C168.8 178.83 174.97 179.01 181.11 179.09C185.96 179.15 190.29 177.99 193.96 174.73C198.01 177.92 194.7 181.1 193.49 183.79C191 189.33 189.1 189.55 184.4 185.7C180.65 182.62 176.55 183.22 172.67 184.83C167.92 186.81 163.76 189.87 159.9 193.32C156.93 195.97 153.86 198.5 150.72 200.93C148.52 202.63 146.49 203.67 143.39 201.71C139.98 199.55 136.44 201 133.41 203.65C129.93 206.68 130.87 210.1 132.12 213.65C132.52 214.15 132.47 214.58 131.95 214.96C129.28 211.75 127.21 208.25 130.39 204.4C133.27 200.92 136.21 196.67 141.84 198.93C149.37 201.95 154.23 197.26 158.44 192.62C161.41 189.35 164.75 186.86 168.23 184.39C169.42 183.55 171.2 183.05 169.88 181.05C168.87 179.5 167.42 179.97 166.41 180.81C162.79 183.82 159.08 183 155.17 181.58C151.64 180.29 147.92 181.17 144.29 180.97C135.19 180.48 125.91 182.38 117.01 179.88C108.09 177.38 98.9101 175.39 90.8001 170.47C86.4401 167.82 81.8601 165.56 76.6801 164.89C76.1901 164.83 75.5101 164.8 75.2701 164.49C70.8101 158.53 62.4701 157.94 58.0301 151.99C58.4201 151.51 58.8701 151.45 59.3701 151.82Z" fill="#539047"/>
<path d="M72.0201 94.03C72.6701 94.13 73.3301 94.23 73.9801 94.32C78.1601 93.98 82.1201 95.29 85.0001 97.92C93.5501 105.73 104.52 107.27 114.94 110.31C116.64 110.81 118.65 110.37 119.96 112.01C125.27 113.9 130.38 112.54 135.47 111.01C137.05 110.53 138.56 109.55 140.15 109.42C141.63 109.29 143.56 107.36 144.6 109.39C145.88 111.9 143.31 112.82 141.74 113.82C138.16 116.1 134.44 116.81 129.97 116.49C120.55 115.81 111.13 115.24 101.72 114.2C94.9701 113.46 89.4601 111.04 84.4801 106.39C82.3401 104.39 80.7701 99.83 76.1601 102.15C76.8601 98.38 73.6701 96.6 72.0101 94.03H72.0201Z" fill="#588E4E"/>
<path d="M184.96 110.93C191.92 111.43 196.71 107.55 201.18 102.45C200.16 111.84 195.37 115.46 183.97 115.86C184.15 113.28 182.56 112.96 180.49 112.98C175.49 113.03 170.52 113.73 165.49 112.22C162.71 111.38 161.59 113.3 162.96 116.07C160.26 117.41 158.02 117.42 156.99 113.99C155.31 109.77 151.65 110 148.08 110.03C145.3 105.6 141.79 101.55 140.94 96.12C140.59 94.27 141.49 93.65 143.2 93.84C146.25 96.29 145.56 100.56 147.75 103.53C151.76 95.92 150.64 85.44 145.28 79.33C143.96 77.83 142.84 76.27 143.2 74.02C143.68 71.03 141.51 68.75 140.82 66.07C143.44 65.35 144.21 67.36 145.13 69.06C147.39 73.24 148.97 77.7799 151.91 81.6099C153.15 83.2199 153.71 85.34 153.26 87.24C152.16 91.86 154.15 92.83 158.15 91.93C158.44 92.36 158.59 92.83 158.59 93.35C157.75 96.83 154.83 99.09 153.42 102.27C152.12 105.18 152.55 106.81 155.74 107.87C160.38 109.41 165.12 109.39 169.9 109.56C174.94 109.74 180.11 108.71 184.97 110.94L184.96 110.93Z" fill="#578E4F"/>
<path d="M65.0501 55.04C68.2401 55.02 70.1401 52.59 72.1501 50.79C80.1701 43.59 89.8901 43.33 99.7701 43.52C101.43 43.55 103.08 44.01 104.73 43.95C119.87 43.35 129.04 52.11 136.01 64.05C137.52 66.64 140.02 68.96 139.89 73.21C133.61 67.61 126.56 68.62 119.49 68.81C106.36 69.18 93.2201 69.1 80.0801 69.22C80.5401 68.43 81.2701 68 82.1401 68.07C93.5801 68.98 104.92 66.14 116.43 67.42C121.4 67.97 126.59 66.54 131.69 66C134.29 65.73 134.25 64.37 133.03 62.6C132.09 61.24 131.25 59.73 130.06 58.63C123.29 52.34 116.71 45.35 106.54 45.49C98.4901 45.6 90.4101 45.45 82.3901 46.75C77.7101 47.51 75.1601 51.03 72.0901 53.92C69.9601 55.92 67.7701 56.95 65.0701 55.04H65.0501Z" fill="#588C4F"/>
<path d="M156.99 113.98C158.73 115.38 160.8 115.86 162.96 116.06C166.72 117.5 170.53 118.25 174.57 117.36C175.52 117.15 177.13 116.32 177.34 118.15C177.5 119.55 176.11 120.01 174.92 120.06C172.65 120.15 170.38 120.09 167.73 120.09C169.83 125.57 176.66 127.64 175.96 134.06C172.56 135.14 171.69 131.86 170.43 130.26C166.73 125.52 163.11 120.97 157.23 118.71C155.45 118.03 153.89 116.5 155.11 114.08C155.74 114.05 156.36 114.01 156.99 113.98Z" fill="#132313"/>
<path d="M58.1501 27.09C60.1101 26.09 62.0801 25.1 64.0401 24.1C59.5201 30.27 54.9401 36.41 50.4901 42.63C47.4301 46.9 44.0401 50.85 40.1701 54.41C38.9701 55.51 38.0101 56.98 36.1301 57.05C44.6701 47.95 50.3301 36.72 58.1501 27.09Z" fill="#558E4D"/>
<path d="M131.95 214.94C132.01 214.5 132.06 214.07 132.12 213.63C135.13 217.1 138.65 220.07 140.96 224.21C144.32 230.26 144.26 237.77 140 242.98C137.23 246.37 132.98 246.95 129.06 248.07C130.17 247.12 131.18 246 132.42 245.24C141.62 239.63 143.34 232.4 137.53 223.13C135.78 220.33 133.82 217.66 131.96 214.93L131.95 214.94Z" fill="#568E4E"/>
<path d="M56.1401 127.84C52.0801 127.91 53.3601 124.69 53.4801 122.84C53.6401 120.54 55.6201 120.34 57.6401 120.92C59.8801 121.57 61.9601 121.65 64.2801 120.52C66.8601 119.27 68.7401 120.99 69.6201 123.41C70.6001 126.1 68.4301 127.24 66.5701 127.51C63.1401 128.01 59.6401 128.86 56.1401 127.8C57.5601 124.98 60.4201 125.21 63.8901 124.31C60.1001 124.54 57.3901 124.65 56.1401 127.83V127.84Z" fill="#568E4A"/>
<path d="M59.3701 151.82C58.9201 151.88 58.4801 151.93 58.0301 151.99C55.6501 150.6 53.8201 148.61 53.5901 145.88C53.3301 142.84 51.3101 141.97 49.0601 141.07C52.8501 135.06 58.5901 132.77 65.4001 132.52C67.2101 132.45 69.0401 132.66 70.8001 132.1C70.9001 133.647 69.8701 134.84 67.7101 135.68C68.4801 136.55 69.2101 137.37 69.9401 138.2C67.6701 137.74 65.3701 137.41 63.1501 136.8C60.1701 135.97 57.4401 136.06 55.7101 138.93C53.7401 142.2 53.8601 145.57 56.2601 148.64C57.1701 149.8 58.3201 150.77 59.3701 151.83V151.82Z" fill="#55864C"/>
<path d="M155.11 114.08C154.68 115.72 155.64 116.64 156.91 117.2C164.34 120.52 169.29 126.49 173.92 132.84C174.35 133.43 175.27 133.67 175.96 134.07C175.4 136.27 174.37 136.39 172.91 134.79C170.48 132.15 167.3 129.88 165.78 126.8C163.85 122.86 160.5 121.59 157.14 120.05C154.18 118.69 152.85 117.09 155.1 114.09L155.11 114.08Z" fill="#578E4F"/>
<path d="M70.8101 132.1C70.3401 133.71 69.0701 133.9 67.6801 133.88C61.1801 133.82 55.1901 135 50.9001 140.56C50.5901 140.96 49.6901 140.91 49.0601 141.07C49.1001 140.13 49.1401 139.2 49.1801 138.26C51.2601 133.05 55.8901 131.84 60.6901 130.95C63.4501 130.44 66.2301 130.02 69.0001 130.95C69.6001 131.34 70.2001 131.72 70.8001 132.11L70.8101 132.1Z" fill="#172E16"/>
<path d="M69.0101 130.94C61.5301 131.03 54.4301 132.13 49.1801 138.26C48.6201 132.13 54.3401 131.76 57.6401 130.44C60.9001 129.14 65.3001 128.99 69.0101 130.94Z" fill="#568E4A"/>
<path d="M184.88 118.14C186.99 118.02 189.12 117.7 191.51 118.57C190 121.53 187.45 121.1 185.05 121.04C184.99 120.07 184.94 119.11 184.88 118.14Z" fill="#61845E"/>
<path d="M72.1901 72.08C69.4601 74.72 66.7401 77.35 64.0101 79.99C66.3501 76.96 66.7201 71.88 72.1901 72.08Z" fill="#56864C"/>
<path d="M21.8301 77.91C22.9501 74.59 24.7001 71.65 27.0401 69.05C27.6901 73.41 25.4801 76.09 21.8301 77.91Z" fill="#55884E"/>
<path d="M29.8001 64.93C30.9601 61.57 33.2501 59.1 36.0701 57.06C35.6301 61 33.1301 63.3 29.8001 64.93Z" fill="#528649"/>
<path d="M201.87 156.02C201.52 156.41 201.16 156.8 200.81 157.19C195.72 163.19 189.56 166.44 181.37 166.69C161.89 167.28 142.51 167.24 123.34 163.04C119.77 162.26 116.03 161.76 112.44 161.86C98.6901 162.25 86.4801 156.56 73.8101 152.67C71.0701 151.83 68.5801 150.44 66.8201 148.09C65.9301 146.9 64.8902 145.52 66.1802 144.08C67.2502 142.89 68.7701 143.38 69.8801 144.04C76.2701 147.84 83.5702 149.17 90.4002 151.76C98.7302 154.92 107.39 156.39 116.31 156.34C118.97 156.33 121.69 156.18 124.25 156.95C135.58 160.35 147.2 160.28 158.87 160.47C166.84 160.6 174.77 161.18 182.75 160.38C186.35 160.02 189.64 159.35 192.32 156.78C194.98 155.38 196.11 151.47 199.99 152.08C199.95 153.53 200.62 153.63 201.69 152.98C201.75 153.99 201.81 155 201.88 156.02H201.87Z" fill="#351310"/>
<path d="M199.93 120.11C196.32 117.78 195.44 115.62 199.13 112.12C203.15 108.31 204.2 103.11 204.04 97.5C203.89 92.35 202.61 87.11 205.62 82.06C207.08 79.61 204.33 77.62 202.46 76.57C197.32 73.69 193.01 70.07 189.85 65.1C187.11 63.92 185.2 61.88 183.83 59.29C182.85 58.49 181.88 57.7 180.9 56.9C183.35 55.23 185.16 56.21 186.83 58.24C189.79 61.84 192.94 65.3 195.78 68.99C197.38 71.08 199.37 72.2 201.73 73.18C206.44 75.15 208.04 79.27 206.33 84.17C204.07 90.67 205.17 97.27 206.26 103.72C206.82 107.02 205.03 109.31 203.35 110.51C199.65 113.14 199.78 116.47 199.92 120.11H199.93Z" fill="#55864E"/>
<path d="M214.88 212.09C211.45 208.75 208.02 205.41 204.59 202.07C211.42 202.07 214.01 204.6 214.88 212.09Z" fill="#538C4C"/>
<path d="M192.02 197.76C195.96 199.23 199.66 201.13 202.84 203.94C199.54 203.45 197.51 205.26 196 207.85C194.82 209.88 193.32 211.22 190.8 210.82C191.13 210.45 191.52 210.13 191.77 209.72C192.65 208.3 195.89 207.77 194.55 205.82C193.32 204.04 191.94 206.8 190.51 207.29C189.34 207.69 188.49 208.5 187.31 206.94C183.39 201.74 177.4 200.91 171.85 204.31C169.9 205.51 168.58 207.64 166.16 208.1C163.75 204.32 166.6 202.41 169.2 201.31C174.67 199 180.38 198.37 185.98 201.26C186.57 201.57 185.83 201.19 186.41 201.51C188.03 202.42 189.68 203.3 191.53 202.22C193.64 200.99 190.89 199.15 192.02 197.76Z" fill="#588D4F"/>
<path d="M207.79 231.86C204.06 236.06 200.36 240.3 196.57 244.45C194.99 246.18 187.71 246.17 185.72 244.43C183.02 242.07 184.73 239.59 185.83 237.22C186.59 235.57 187.3 233.86 188.98 232.85C188.84 233.49 188.73 234.15 188.55 234.78C187.74 237.65 186.25 241.28 189.16 243.01C192.2 244.82 195.52 242.54 197.96 240.27C199.89 238.49 201.39 236.25 203.12 234.25C204.34 232.84 205.72 231.66 207.79 231.86Z" fill="#57894E"/>
<path d="M216.07 217.64C221.99 224.1 225.98 231.7 229.06 239.82C228.43 239.66 227.36 239.67 227.23 239.32C224.29 231.69 217.14 226.22 216.07 217.64Z" fill="#578D4F"/>
<path d="M192.02 197.76C191.53 200.09 197.11 199.7 194.51 202.35C192.47 204.42 189.59 205.87 186.19 203.16C180.91 198.94 174.9 200.71 169.27 202.54C167.17 203.22 165.51 205.29 166.16 208.09L166.11 208.05C164.22 208.85 162.01 211.11 161.19 206.98C160.74 205.92 160.59 204.39 159.79 203.87C154.97 200.72 157.75 198.83 160.57 196.42C163.73 193.71 166.84 190.98 170.49 188.97C178.51 184.53 182.26 185.34 187.99 192.6C188.9 193.76 189.91 194.84 190.88 195.95C191.26 196.55 191.64 197.16 192.02 197.76Z" fill="#4F9545"/>
<path d="M164.28 229.67C163.6 229.05 162.7 228.34 161.93 227.51C161.06 226.57 161.43 225.71 162.31 224.97C168.96 219.42 175.33 213.58 180.65 206.7C181.25 205.93 182.06 205.76 182.83 206.3C183.91 207.05 183.52 208.07 183.03 208.96C181.35 212.04 179.61 215.46 176.4 216.85C171.24 219.09 168.71 223.48 165.79 227.68C165.36 228.3 165.75 229.43 164.27 229.66L164.28 229.67Z" fill="#5E8957"/>
<path d="M161.2 206.98C162.36 209.56 164.43 207.92 166.12 208.05C162.32 212.74 157.42 213.83 151.81 212.29C149.69 211.71 148.37 210.13 148.38 207.89C148.38 205.95 149.44 204.47 151.2 203.5C153.08 202.46 154.72 202.91 156.3 204.08C157.99 205.33 158.84 206.69 157.06 208.61C156.37 209.36 154.64 210.14 155.78 211.36C157.09 212.75 158.23 211.14 159.06 210.29C159.96 209.37 160.49 208.1 161.18 206.98H161.2Z" fill="#578B51"/>
<path d="M175.26 209.09C171.41 212.93 167.6 216.81 163.68 220.57C162.77 221.44 161.28 222.64 160.4 222.4C158.71 221.95 159.27 219.96 159.13 218.55C158.98 217.09 158.68 215.69 160.75 215.03C165.08 213.64 168.14 210.17 171.87 207.79C173.38 207.25 174.91 206.65 175.27 209.09H175.26Z" fill="#588B4E"/>
<path d="M175.26 209.09C174.42 207.9 173.11 207.91 171.86 207.79C173.32 206.12 174.99 204.92 177.58 205.11C177.81 207.12 176.42 208.04 175.26 209.09Z" fill="#628061"/>
<path d="M157.96 91.97C157.01 92.63 156.1 93.37 155.08 93.91C154.09 94.44 153.02 95.31 151.85 94.54C150.65 93.75 151.02 92.48 151.36 91.38C152.9 86.48 151.72 82.58 148.12 78.75C146.04 76.54 145.11 73.1 144.09 70.07C143.46 68.18 142.66 66.78 140.81 66.05C137.87 62.29 135.97 57.81 132.6 54.32C130.27 51.9 132.47 51.52 134.29 50.94C147.34 46.79 160.02 47.82 172.23 53.88C175.88 55.69 179.26 58.05 182.76 60.16C185.76 61.15 187.67 63.26 188.88 66.11C190.85 68.92 190.75 70.09 186.71 69.91C180.67 69.64 174.51 69.3 168.68 71.42C166.95 72.05 163.61 72.12 165.2 75.73C165.63 76.48 165.5 77.19 165.05 77.87C162.31 79.73 159.46 81.45 157.31 84.06C156.2 85.4 155.42 86.62 157.95 87.2C158.95 88.79 160.45 90.37 157.95 91.96L157.96 91.97Z" fill="#4D9644"/>
<path d="M136.05 47.23C128.51 50.24 119.38 46.65 118.05 39.92C117.5 37.11 114.03 33.57 116.23 31.88C120.84 28.34 124.53 22.69 130.95 22.28C138.69 21.78 146.32 21.66 153.67 25.76C159.38 28.94 163 33.45 166.1 38.79C167.47 44.09 166.05 45.95 160.27 45.81C155.5 45.7 150.75 44.87 145.97 45.06C142.54 45.19 139.1 45.39 136.04 47.23H136.05Z" fill="#4E9644"/>
<path d="M119.96 112.01C107.56 110.57 95.4301 108.27 85.5901 99.77C82.1801 96.83 77.5701 96.72 73.9801 94.32C73.6701 92.9 73.3501 91.48 73.0401 90.06C73.9401 87.78 75.8601 87.72 77.8601 87.83C79.5201 88.29 80.8701 88.94 79.6901 91.01C80.6401 93.95 86.1701 95.71 88.0301 93.58C89.0001 92.47 89.7601 91.18 90.7001 90.03C91.8901 87.06 94.5601 86.39 97.2701 85.75C100.6 85.59 104.07 84.45 107 87.12C108.49 88.53 110.38 88.13 112.06 87.96C115.06 87.66 117.37 88.58 119.14 90.96C121.97 90.96 122.14 93.17 122.3 95.09C122.59 98.53 122.9 102.09 121.28 105.29C120.28 107.26 120.64 108.7 121.99 110.15C121.91 111.42 121.12 111.93 119.95 112.02L119.96 112.01Z" fill="#0B0E0B"/>
<path d="M77.9002 88.93C76.1902 88.91 74.4301 88.69 73.0401 90.05C69.2401 90.28 68.4801 89.18 71.0101 86.02C74.1201 82.12 78.4301 80.35 82.9401 79.27C90.5501 77.45 98.3202 76.59 106.18 77.07C111.22 77.38 115.29 79.92 119.15 82.9C119.79 84.99 118.65 86.11 116.94 86.91C113.63 86.98 110.32 87.05 107.02 87.12C103.35 87.12 99.6801 87.12 96.0101 87.12C90.0301 88.26 84.1001 89.94 77.9101 88.94L77.9002 88.93Z" fill="#4F9346"/>
<path d="M122 110.14C120.45 109.87 118.9 109.6 117.22 109.32C121.83 103.91 122.6 95.9 119.15 90.95C123.83 87.06 133.07 88.53 136.55 93.74C137.01 94.42 137.53 95.14 137.71 95.91C138.55 99.39 142.58 103.75 140.61 105.75C138.03 108.37 133.23 109.62 128.92 109.93C126.62 110.09 124.31 110.08 122 110.15V110.14Z" fill="#F9FAF7"/>
<path d="M132.93 86.4C127.76 84.14 122.59 81.98 117.94 78.62C108.67 71.92 98.2601 73.97 88.0901 75.45C79.5701 76.69 71.4801 79.08 66.5401 87.14C65.9701 88.07 64.8801 89.33 63.7201 88.59C62.3801 87.73 62.8501 86.09 63.6601 85.04C69.0501 78.1 74.9101 71.76 84.6701 71.82C90.6501 71.85 96.6002 71.62 102.58 71.32C114.67 70.72 124.99 75 133.04 84.25C133.55 84.99 133.6 85.71 132.93 86.39V86.4Z" fill="#598E50"/>
<path d="M146.55 92.55C137.76 85.93 131.48 76.3 120.79 71.82C134.87 69.15 148.96 80.57 146.55 92.55Z" fill="#538F49"/>
<path d="M136.05 47.23C137.52 43.08 141.47 45.13 144.16 44.31C147 43.44 150.37 43.7 153.49 44.68C157.14 45.84 160.75 44.67 164.27 43.87C167.06 43.24 165.54 40.52 166.12 38.79C168.84 42.27 171.15 45.98 173.17 50.94C160.68 45.39 148.49 44.85 136.05 47.23Z" fill="#568C4C"/>
<path d="M132.93 86.4C132.97 85.68 133 84.97 133.04 84.26C136.98 86.87 140.09 90.35 143.2 93.83C142.15 94.3 141.38 95.04 140.94 96.11C139.08 92.21 136.05 89.27 132.94 86.4H132.93Z" fill="#5E815A"/>
<path d="M116.93 86.9C117.67 85.56 118.4 84.23 119.14 82.89C120.77 84.08 122.99 84.38 124.95 86.9H116.93Z" fill="#5F765A"/>
<path d="M188.89 66.12C186.85 64.14 184.81 62.16 182.77 60.17C183.12 59.88 183.48 59.58 183.83 59.29C186.56 60.47 188.38 62.61 189.85 65.1C189.53 65.44 189.2 65.78 188.88 66.12H188.89Z" fill="#1B391C"/>
<path d="M193.95 156.96C192.1 160.07 189.26 161.66 185.75 161.87C168.84 162.84 151.78 163.59 135.15 160.59C123.67 158.52 111.95 158.99 100.69 156.22C89.4801 153.46 78.1702 150.75 68.1502 144.56C67.7802 144.33 67.2301 144.39 66.7201 144.31C67.6001 147.71 69.2401 149.59 73.0001 150.84C88.0901 155.88 103.1 160.96 119.38 161.07C126.25 161.12 133.07 163.47 139.98 164.17C155.17 165.72 170.42 166 185.66 164.87C189 164.62 192.05 163.42 194.58 160.9C196.29 159.2 198.07 157.3 200.81 157.19C200.88 166.55 192.05 176.08 182.64 176C164.7 175.84 146.78 177.74 128.8 176.11C110.75 174.47 94.2301 168.71 78.8701 159.36C72.9301 155.75 66.1001 153.74 60.8301 148.91C58.4901 146.77 56.2602 144.78 57.9302 141.33C59.7202 137.64 62.6801 139.25 65.2901 140.07C88.9601 147.51 113.17 152.62 137.84 154.67C152 155.84 166.28 157.84 180.58 156C184.35 155.52 188.07 154.59 191.81 153.86C194.06 153.84 194.91 154.78 193.94 156.97L193.95 156.96Z" fill="#993021"/>
<path d="M193.95 156.96C193.93 155.45 193.15 154.47 191.83 153.85C198.04 148.28 203.1 141.93 205.23 132.96C208.63 137.16 209.04 140.75 206.26 144.43C204.27 147.06 202.09 149.53 199.99 152.08C197.98 153.71 195.97 155.33 193.96 156.96H193.95Z" fill="#893520"/>
<path d="M184.96 110.93C175.66 111.6 166.36 111.59 157.19 109.8C150.67 108.53 149.52 105.57 153 99.94C154.48 97.55 156.36 95.42 158.06 93.18C159.3 91.42 159.75 89.19 161.24 87.6C162.47 86.28 163.72 84.79 165.9 85.69C167.7 88.41 170.45 88.08 173.14 87.92C175.48 86.12 177.75 86.06 179.95 88.16C181.15 89.92 184.46 87.77 184.95 90.85C190.71 97.84 190.74 103.22 185.04 107.96C183.8 108.91 185.23 109.95 184.95 110.93H184.96Z" fill="#0B0D0B"/>
<path d="M165.9 85.7C162.19 87.05 161.06 91.1 158.06 93.19C158.03 92.79 157.99 92.38 157.96 91.98C159.57 90.39 156.49 88.81 157.96 87.22C169.08 74.69 183.13 76.88 197.13 79.68C202.13 80.68 202.24 84.86 201.12 89.66C198.09 81.46 191.21 80.55 184.37 80.37C177.79 80.2 171.03 80.4 165.91 85.71L165.9 85.7Z" fill="#5D8B55"/>
<path d="M179.95 88.16C177.68 88.08 175.41 88 173.13 87.92C171.95 87.48 170.78 87.04 169.3 86.49C175.26 82 181.79 83.18 188.2 83.34C195.39 83.52 197.24 89.66 201.59 94.7C193.41 93.34 187.84 86.67 179.95 88.16Z" fill="#558D4B"/>
<path d="M185.04 107.96C189.59 102.23 187.51 96.54 184.95 90.85C190.15 93.29 195.34 95.73 200.81 98.3C196.72 103.94 192.58 108.69 185.04 107.96Z" fill="#F6F7F5"/>
<path d="M165.06 77.88C165.11 77.17 165.16 76.45 165.21 75.74C177.29 70.75 192.22 71.09 198.36 76.6C187.1 75.19 175.94 73.18 165.06 77.88Z" fill="#5C8256"/>
<path d="M56.1401 127.84C55.3401 126.55 55.0601 125.29 56.7901 124.61C58.3101 124.01 59.9001 123.36 61.5001 123.22C63.1801 123.07 66.1401 122.09 66.3501 123.91C66.6801 126.68 63.5301 125.59 61.8301 126.08C59.9301 126.63 58.0401 127.23 56.1401 127.81V127.84Z" fill="#1A3419"/>
<path d="M91.8501 90.94C89.0101 97.84 84.4101 96.97 79.2001 93.88C78.0101 93.18 76.5601 92.91 75.1601 92.42C76.0201 90.54 77.8701 91.57 79.0401 90.86C81.6201 89.3 84.5601 88.99 87.4301 88.67C89.1901 88.48 91.4401 88.13 91.8601 90.94H91.8501Z" fill="#EDEDEB"/>
<path d="M110.9 102.03C108.75 102.2 107.11 101.08 107.13 98.72C107.15 96.16 109.16 95.03 111.48 94.77C113.51 94.54 115.36 95.33 115.4 97.56C115.45 100.15 114.04 101.94 110.9 102.03Z" fill="#F2F1EF"/>
<path d="M91.8501 90.94C87.5901 88.3 83.3001 91.52 79.0301 90.86C79.8001 89.55 79.2601 88.99 77.9001 88.92C83.8301 87.27 89.8901 86.96 96.0001 87.1C93.9501 87.66 92.5401 88.91 91.8501 90.93V90.94Z" fill="#132213"/>
<path d="M99.9602 93.48C99.7002 94.54 99.0501 95.18 97.9401 95.16C96.9001 95.14 95.9801 94.78 96.0201 93.53C96.0501 92.19 96.8401 91.41 98.1701 91.58C99.1401 91.71 100 92.25 99.9701 93.48H99.9602Z" fill="#CFCECC"/>
<path d="M100.93 100.32C100.63 101.32 100.15 102.16 98.9401 101.98C97.9001 101.83 97.1001 101.2 97.2201 100.07C97.3401 98.95 98.3401 98.41 99.2901 98.4C100.36 98.39 100.97 99.18 100.92 100.33L100.93 100.32Z" fill="#CBC7C6"/>
<path d="M159.57 107.75C157.06 106.79 154.22 107.49 154.07 105.4C153.74 100.84 157.48 98.32 161 94.09C159.68 99.29 158.28 103.04 159.57 107.75Z" fill="#E9EBE9"/>
<path d="M182.92 98.9C182.85 101.57 182.03 102.78 179.99 102.88C177.64 103 176.68 101.67 176.77 99.53C176.85 97.68 177.6 96.35 179.82 96.61C181.65 96.83 183.03 97.46 182.92 98.9Z" fill="#E6E7E6"/>
<path d="M167.62 97.2C166.61 96.97 165.97 96.32 166.12 95.2C166.23 94.33 166.87 93.78 167.74 93.7C168.96 93.59 169.63 94.53 169.61 95.44C169.59 96.34 168.91 97.24 167.63 97.2H167.62Z" fill="#C6C6C4"/>
</svg>
