<svg xmlns="http://www.w3.org/2000/svg" width="600" height="600" viewBox="0 0 600 600" fill="none">
    <path d="M300 600C465.685 600 600 465.685 600 300C600 134.315 465.685 0 300 0C134.315 0 0 134.315 0 300C0 465.685 134.315 600 300 600Z" fill="url(#paint0_radial_440_36)"/>
    <g transform="matrix(10,0,0,10,95,127)" >
        <path d="M20.7 11.9008C20.4 11.9008 20.2 11.7008 20.2 11.4008V3.80078C20.2 3.50078 20.4 3.30078 20.7 3.30078C21 3.30078 21.2 3.50078 21.2 3.80078V11.4008C21.2 11.7008 21 11.9008 20.7 11.9008Z" fill="white"/>
        <path d="M18.2 12.6C18 12.6 17.9 12.5 17.8 12.4L12.4 3.00004C12.3 2.80004 12.3 2.50004 12.6 2.30004C12.8 2.20004 13.1 2.20004 13.3 2.50004L18.7 11.9C18.8 12.1 18.8 12.4 18.5 12.6C18.4 12.5 18.3 12.6 18.2 12.6Z" fill="white"/>
        <path d="M16.4 14.4008C16.3 14.4008 16.2 14.4008 16.2 14.3008L9.60001 10.5008C9.40001 10.4008 9.30001 10.1008 9.40001 9.80082C9.50001 9.50082 9.80001 9.50082 10.1 9.60082L16.7 13.4008C16.9 13.5008 17 13.8008 16.9 14.1008C16.8 14.3008 16.6 14.4008 16.4 14.4008Z" fill="white"/>
        <path d="M15.8 16.8008H4.89996C4.59996 16.8008 4.39996 16.6008 4.39996 16.3008C4.39996 16.0008 4.59996 15.8008 4.89996 15.8008H15.8C16.1 15.8008 16.3 16.0008 16.3 16.3008C16.3 16.6008 16.1 16.8008 15.8 16.8008Z" fill="white"/>
        <path d="M7.49996 9.29961C7.83133 9.29961 8.09996 9.03098 8.09996 8.69961C8.09996 8.36824 7.83133 8.09961 7.49996 8.09961C7.16859 8.09961 6.89996 8.36824 6.89996 8.69961C6.89996 9.03098 7.16859 9.29961 7.49996 9.29961Z" fill="#EA8D27"/>
        <path d="M22.9 12.5994C22.8 12.5994 22.7 12.5994 22.7 12.4994C22.5 12.3994 22.4 12.0994 22.5 11.7994L27.9 2.39939C28 2.19939 28.3 2.09939 28.6 2.19939C28.8 2.29939 28.9 2.59939 28.8 2.89939L23.4 12.2994C23.2 12.4994 23.1 12.5994 22.9 12.5994Z" fill="white"/>
        <path d="M24.7 14.4008C24.5 14.4008 24.4 14.3008 24.3 14.2008C24.2 14.0008 24.2 13.7008 24.5 13.5008L31 9.60082C31.2 9.50082 31.5 9.50082 31.7 9.80082C31.8 10.0008 31.8 10.3008 31.5 10.5008L24.9 14.3008C24.9 14.4008 24.8 14.4008 24.7 14.4008Z" fill="white"/>
        <path d="M36.3 16.8008H25.3C25 16.8008 24.8 16.6008 24.8 16.3008C24.8 16.0008 25 15.8008 25.3 15.8008H36.2C36.5 15.8008 36.7 16.0008 36.7 16.3008C36.7 16.6008 36.5 16.8008 36.3 16.8008Z" fill="white"/>
        <path d="M33.6 9.29961C33.9314 9.29961 34.2 9.03098 34.2 8.69961C34.2 8.36824 33.9314 8.09961 33.6 8.09961C33.2686 8.09961 33 8.36824 33 8.69961C33 9.03098 33.2686 9.29961 33.6 9.29961Z" fill="#EA8D27"/>
        <path d="M20.7 1.2C21.0313 1.2 21.3 0.931371 21.3 0.6C21.3 0.268629 21.0313 0 20.7 0C20.3686 0 20.1 0.268629 20.1 0.6C20.1 0.931371 20.3686 1.2 20.7 1.2Z" fill="#EA8D27"/>
        <path d="M20.3 19.4004C20.4 19.6004 20.6 19.7004 20.7 19.7004C20.9 19.7004 21.1 19.6004 21.1 19.4004L22.5 16.5004C22.6 16.4004 22.6 16.2004 22.5 16.1004L21.1 13.2004C21 13.0004 20.8 12.9004 20.7 12.9004C20.5 12.9004 20.3 13.0004 20.3 13.2004L18.9 16.1004C18.8 16.2004 18.8 16.4004 18.9 16.5004L20.3 19.4004ZM20.7 14.6004L21.5 16.3004L20.7 18.0004L19.8 16.3004L20.7 14.6004Z" fill="#EA8D27"/>
        <path d="M24.2 31.7L21 29.7C20.8 29.6 20.7 29.6 20.5 29.7L17.2 31.6C17 31.7 16.9 31.9 17 32.2C17.1 32.4 17.3 32.6 17.5 32.6H24C24.2 32.6 24.4 32.4 24.5 32.2C24.5 32 24.4 31.8 24.2 31.7ZM19.3 31.6L20.7 30.8L22.1 31.6H19.3Z" fill="#EA8D27"/>
        <path d="M35.9 20.7996H32.9H8.59998C5.19998 20.7996 2.39998 19.5996 0.899984 17.5996C0.699984 17.3996 0.399984 17.2996 0.199984 17.4996C-1.62125e-05 17.6996 -0.100016 17.9996 0.0999838 18.1996C1.79998 20.3996 4.79998 21.6996 8.39998 21.7996L20.4 28.7996C20.5 28.7996 20.6 28.8996 20.7 28.8996C20.8 28.8996 20.9 28.8996 21 28.7996L33 21.7996H35.9C37.3 21.7996 38.4 22.8996 38.4 24.2996C38.4 25.6996 37.3 26.7996 35.9 26.7996C34.9 26.7996 34 26.1996 33.6 25.2996C34.1 25.1996 34.4 24.7996 34.4 24.2996C34.4 23.6996 33.9 23.2996 33.4 23.2996C32.8 23.2996 32.4 23.7996 32.4 24.2996C32.4 26.1996 34 27.7996 35.9 27.7996C37.8 27.7996 39.4 26.1996 39.4 24.2996C39.4 22.3996 37.8 20.7996 35.9 20.7996ZM20.7 27.7996L14.5 24.1996H27L20.7 27.7996ZM28.7 23.0996H12.7L10.4 21.6996H31L28.7 23.0996Z" fill="#EA8D27"/>
    </g>
    <defs>
        <radialGradient id="paint0_radial_440_36" cx="0" cy="0" r="1" gradientUnits="userSpaceOnUse" gradientTransform="translate(196 143.5) rotate(54.1675) scale(497.082)">
            <stop stop-color="white"/>
            <stop stop-color="#EA8D27" offset="1"/>
        </radialGradient>
    </defs>
</svg>