<?xml version="1.0" standalone="no"?>
<!DOCTYPE svg PUBLIC "-//W3C//DTD SVG 20010904//EN"
 "http://www.w3.org/TR/2001/REC-SVG-20010904/DTD/svg10.dtd">
<svg version="1.0" xmlns="http://www.w3.org/2000/svg"
 width="400.000000pt" height="400.000000pt" viewBox="0 0 400.000000 400.000000"
 preserveAspectRatio="xMidYMid meet">

<g transform="translate(0.000000,400.000000) scale(0.100000,-0.100000)"
fill="#000000" stroke="none">
<path d="M0 2000 l0 -2000 2000 0 2000 0 0 2000 0 2000 -2000 0 -2000 0 0
-2000z m2153 1121 c78 -43 198 -112 267 -152 207 -120 249 -145 391 -225 l136
-77 5 -236 c3 -130 4 -366 3 -524 l-1 -289 -60 -32 c-54 -29 -272 -155 -564
-326 -63 -38 -163 -95 -221 -128 l-106 -59 -84 47 c-46 25 -145 82 -219 125
-74 43 -169 97 -210 120 -41 23 -120 69 -175 102 -55 33 -136 79 -180 103 -44
24 -81 44 -83 45 -1 1 -2 236 -2 521 0 397 3 521 13 531 6 6 104 64 217 127
113 64 212 120 220 125 21 13 350 201 430 245 36 20 69 36 73 36 5 0 72 -36
150 -79z"/>
<path d="M1835 3004 c-55 -31 -156 -89 -225 -128 -69 -40 -136 -79 -150 -87
-14 -7 -65 -38 -114 -68 l-89 -55 26 -20 c15 -12 84 -52 154 -90 163 -87 287
-156 388 -216 44 -26 90 -53 103 -59 l22 -12 0 396 c0 217 -4 395 -8 395 -4 0
-52 -25 -107 -56z"/>
<path d="M2050 2664 l0 -396 68 38 c86 48 382 211 584 323 26 14 48 28 48 31
0 6 -238 148 -373 221 -53 30 -146 82 -205 116 -59 35 -110 63 -114 63 -5 0
-8 -178 -8 -396z m246 41 c11 -79 -27 -131 -76 -105 -17 9 -20 21 -20 75 0 68
3 71 62 74 24 1 27 -3 34 -44z"/>
<path d="M1150 2535 l0 -63 48 -30 c26 -16 88 -51 137 -77 388 -204 603 -315
609 -315 3 0 6 24 6 54 l0 54 -57 33 c-64 36 -66 38 -203 111 -52 29 -111 61
-130 73 -19 12 -69 39 -110 60 -41 21 -86 46 -100 55 -14 9 -64 37 -112 63
l-88 46 0 -64z"/>
<path d="M2743 2541 c-56 -31 -179 -98 -273 -150 -95 -51 -174 -99 -176 -106
-3 -7 -4 -37 -2 -68 l3 -56 85 42 c111 56 210 110 260 142 22 14 43 25 47 25
5 0 43 22 86 50 l77 49 0 66 c0 36 -1 64 -2 64 -2 -1 -49 -27 -105 -58z"/>
<path d="M2790 2317 c-61 -37 -134 -77 -260 -145 -47 -25 -120 -65 -162 -90
l-78 -45 0 -113 c0 -63 3 -114 8 -114 8 0 68 34 189 106 45 27 148 86 228 132
l145 83 -1 87 c-1 48 -4 97 -7 109 l-7 23 -55 -33z"/>
<path d="M1150 2237 c0 -72 4 -108 13 -115 16 -13 118 -67 404 -213 131 -67
261 -136 288 -154 28 -18 61 -37 73 -44 l22 -12 0 114 0 113 -52 26 c-29 15
-71 37 -93 50 -135 75 -207 114 -350 188 -88 45 -182 95 -210 110 -98 54 -95
57 -95 -63z"/>
<path d="M2118 2198 l-68 -40 0 -475 0 -475 33 20 c17 10 51 30 75 42 l42 24
0 473 c0 260 -3 473 -7 472 -5 0 -38 -19 -75 -41z"/>
<path d="M1150 1838 l1 -163 107 -61 c122 -69 439 -253 584 -337 53 -31 99
-57 102 -57 4 0 6 83 6 184 l0 184 -71 38 c-39 22 -78 44 -88 49 -68 41 -622
325 -635 325 -3 0 -6 -73 -6 -162z"/>
<path d="M2770 1964 c-36 -20 -110 -61 -165 -92 -55 -30 -148 -87 -207 -126
l-108 -70 0 -163 0 -164 43 25 c23 13 98 56 167 96 69 40 177 102 241 138
l116 67 -2 159 c-1 88 -6 161 -11 163 -5 1 -38 -14 -74 -33z"/>
</g>
</svg>
