<svg xmlns="http://www.w3.org/2000/svg" viewBox="0 0 150 150">
  <circle fill="#25262a" cx="75" cy="75" r="75"/>
  <g fill="#fff">
    <path d="m 107.51 39 l -0.1 43.47 c 0 4.78 -0.81 8.9 -2.43 12.37 c -1.62 3.47 -3.83 6.34 -6.62 8.61 c -3.17 2.55 -6.62 4.41 -10.33 5.6 c -3.71 1.19 -8.05 1.78 -13 1.78 c -5.51 0 -10.14 -0.67 -13.89 -2.01 c -3.75 -1.34 -6.98 -3.18 -9.7 -5.52 c -2.9 -2.41 -5.09 -5.33 -6.59 -8.76 c -1.5 -3.43 -2.25 -7.54 -2.25 -12.32 l -0.1 -43.21 h 17.32 l -0.09 42.32 c 0 5.09 1.39 8.95 4.16 11.56 c 2.77 2.62 6.5 3.92 11.17 3.92 c 4.99 0 8.78 -1.27 11.38 -3.82 c 2.6 -2.55 3.9 -6.43 3.9 -11.67 l -0.1 -42.32 h 17.32 h 0 z"/>
    <rect x="26.36" y="64.29" width="17.14" height="8.57"/>
    <rect x="26.36" y="77.14" width="17.14" height="8.57"/>
    <rect x="106.5" y="64.29" width="17.14" height="8.57"/>
    <rect x="106.5" y="77.14" width="17.14" height="8.57"/>
  </g>
</svg>