<svg xmlns="http://www.w3.org/2000/svg" viewBox="0 0 720 720">
	<circle cx="360" cy="360" r="360" fill="#91059b" />
	<circle cx="360" cy="360" r="360" fill="url(#gradient)" fill-opacity=".3" />
	<g fill="#ffffff" transform="translate(111 104)">
		<path d="m262 432-1-253 79 0c67 0 77 1 79 12 3 13-136 247-147 251-5 2-10-4-10-9z" />
		<path d="m89 325c-5-1-8-8-5-15 6-15 141-248 150-245 10-2 8 44 8 132l0 131-74 0c-41 1-76-1-78-3z" />
	</g>
	<g transform="scale(4.5)">
		<circle cx="32" cy="32" r="32" fill="#f7931a" />
		<path fill="#FFF" d="m 46.103 27.444 c 0.637 -4.258 -2.605 -6.547 -7.038 -8.074 l 1.438 -5.768 l -3.511 -0.875 l -1.4 5.616 c -0.923 -0.23 -1.871 -0.447 -2.813 -0.662 l 1.41 -5.653 l -3.509 -0.875 l -1.439 5.766 c -0.764 -0.174 -1.514 -0.346 -2.242 -0.527 l 0.004 -0.018 l -4.842 -1.209 l -0.934 3.75 s 2.605 0.597 2.55 0.634 c 1.422 0.355 1.679 1.296 1.636 2.042 l -3.94 15.801 c -0.174 0.432 -0.615 1.08 -1.609 0.834 c 0.035 0.051 -2.552 -0.637 -2.552 -0.637 l -1.743 4.019 l 4.569 1.139 c 0.85 0.213 1.683 0.436 2.503 0.646 l -1.453 5.834 l 3.507 0.875 l 1.439 -5.772 c 0.958 0.26 1.888 0.5 2.798 0.726 l -1.434 5.745 l 3.511 0.875 l 1.453 -5.823 c 5.987 1.133 10.489 0.676 12.384 -4.739 c 1.527 -4.36 -0.076 -6.875 -3.226 -8.515 c 2.294 -0.529 4.022 -2.038 4.483 -5.155 m -8.022 11.249 c -1.085 4.36 -8.426 2.003 -10.806 1.412 l 1.928 -7.729 c 2.38 0.594 10.012 1.77 8.878 6.317 m 1.086 -11.312 c -0.99 3.966 -7.1 1.951 -9.082 1.457 l 1.748 -7.01 c 1.982 0.494 8.365 1.416 7.334 5.553 z" />
	</g>
	<defs>
		<radialGradient id="gradient" cx="0" cy="0" gradientTransform="rotate(54.2 -42.3 263.4) scale(497.082)" gradientUnits="userSpaceOnUse" r="1">
			<stop offset="0" stop-color="#fcd9ff" />
			<stop offset="1" stop-color="#ce32d9" />
		</radialGradient>
	</defs>
</svg>
