<svg width="32" height="32" viewBox="0 0 32 32" fill="none" xmlns="http://www.w3.org/2000/svg">
<path d="M0 16C0 7.16344 7.16344 0 16 0C24.8366 0 32 7.16344 32 16C32 24.8366 24.8366 32 16 32C7.16344 32 0 24.8366 0 16Z" fill="white"/>
<path fill-rule="evenodd" clip-rule="evenodd" d="M11.855 3.38381C13.3455 2.89389 14.9385 2.66989 16.5164 2.73037C18.0946 2.79085 19.6582 3.13613 21.1132 3.74413C22.5686 4.35213 23.9154 5.22317 25.0678 6.29773C26.5919 7.71949 27.7753 9.49773 28.485 11.4868C29.1951 13.4763 29.4316 15.6766 29.1577 17.7713C28.8841 19.866 28.1001 21.8555 26.9142 23.5662C25.7282 25.2769 24.1401 26.7086 22.2748 27.7006C20.4095 28.6923 18.2665 29.244 16.1542 29.276C14.0418 29.308 11.9599 28.8206 10.0953 27.8952C8.23095 26.9697 6.58359 25.6065 5.33271 23.9038C4.08183 22.2011 3.22743 20.1588 2.88823 18.075C2.54903 15.9908 2.72503 13.8648 3.37495 11.8814C3.86615 10.3819 4.62839 8.96429 5.60503 7.73581H4.12055V5.28205H9.93719V10.7137H7.48343V9.22957C6.68343 10.2356 6.05879 11.3969 5.65655 12.6257C5.12439 14.2513 4.98103 15.9953 5.25655 17.6971C5.59895 19.8139 6.58903 21.8651 8.06679 23.4459C9.83447 25.3364 12.2998 26.5544 14.8662 26.8209C17.4322 27.0875 20.0994 26.403 22.2175 24.9288C24.3356 23.4545 25.9052 21.1905 26.5423 18.69C27.1794 16.1896 26.8841 13.4526 25.7353 11.1422C24.5865 8.83181 22.5839 6.94861 20.1894 5.95917C17.7948 4.96941 15.0079 4.87405 12.6041 5.66381L11.855 3.38381Z" fill="url(#paint0_linear_537_285909)"/>
<path d="M25 16C25 20.9706 20.9706 25 16 25C11.0294 25 7 20.9706 7 16C7 11.0294 11.0294 7 16 7C20.9706 7 25 11.0294 25 16Z" fill="white"/>
<path d="M21.0618 13.1875H17.6873V14.3125H21.0618V13.1875ZM15.4376 14.3125H14.3128V15.4375H15.4376V14.3125ZM14.3128 19.9375H15.4376V16.5625H14.3128V19.9375ZM16.5624 14.3125V15.4375H17.6873V14.3125H16.5624ZM16.5624 19.9375H17.6873V16.5625H16.5624V19.9375ZM16.5624 13.1875H15.4376V14.3125H16.5624V13.1875ZM10.9375 13.1875V14.3125H14.3128V13.1875H10.9375ZM21.0625 16.5625V15.4375H17.6873V16.5625H21.0625ZM15.4383 15.4375V16.5625H16.5624V15.4375H15.4383ZM10.9382 15.4375V16.5625H14.3135V15.4375H10.9382Z" fill="black"/>
<defs>
<linearGradient id="paint0_linear_537_285909" x1="2.04365" y1="13.2972" x2="15.2224" y2="29.5766" gradientUnits="userSpaceOnUse">
<stop stop-color="#004CFF"/>
<stop offset="0.252131" stop-color="#00E0FB"/>
<stop offset="0.505709" stop-color="#87FF70"/>
<stop offset="0.755054" stop-color="#F8F500"/>
<stop offset="1" stop-color="#FF1A00"/>
</linearGradient>
</defs>
</svg>
