<?xml version="1.0" encoding="UTF-8"?>
<svg id="Layer_1" data-name="Layer 1" xmlns="http://www.w3.org/2000/svg" viewBox="0 0 479.12 188.01">
  <defs>
    <style>
      .cls-1 {
        fill: #0064fa;
        stroke-width: 0px;
      }
    </style>
  </defs>
  <path class="cls-1" d="m169.72,91.95c-5.2-4.24-13.51-6.53-24.86-6.53h-46.31l-17.48,87.37h50.43c16.87,0,31.53-4.84,37.7-15.54-5.64-9.43-8.89-20.45-8.89-32.22s3.45-23.45,9.41-33.07Zm-36.6,60.25h-18.97l2.75-13.73h18.97c3.87,0,7.24,1.87,7.24,5.74,0,5.37-4.24,7.99-9.99,7.99Zm2.62-33.2h-14.98l2.62-12.98h14.35c4.87,0,7.74,1.75,7.74,5.37,0,4.74-3,7.61-9.74,7.61Z"/>
  <path class="cls-1" d="m366.91,85.42l-36.57,46.43-18.97-46.43h-23.97l-4.09,20.45c1.93,6.04,2.99,12.48,2.99,19.16,0,15.5-5.64,29.7-14.96,40.68l-1.42,7.08h26.84l7.86-39.32,13.48,31.46h12.98l24.59-31.95-7.74,39.82h26.84l17.23-87.37h-25.09Z"/>
  <path class="cls-1" d="m463.52,127.86c9.61-4.12,15.6-11.48,15.6-21.59,0-13.23-10.61-20.85-31.33-20.85h-46.31l-17.47,87.37h50.43c22.34,0,40.82-8.49,40.82-27.84,0-7.99-4.24-13.85-11.73-17.1Zm-27.46,24.34h-18.97l2.75-13.73h18.97c3.87,0,7.24,1.87,7.24,5.74,0,5.37-4.24,7.99-9.99,7.99Zm2.62-33.2h-14.98l2.62-12.98h14.35c4.87,0,7.74,1.75,7.74,5.37,0,4.74-3,7.61-9.74,7.61Z"/>
  <polygon class="cls-1" points="42.44 107.74 84 107.74 88.5 85.42 17.48 85.42 12.99 107.74 42.4 107.74 42.44 107.74"/>
  <polygon class="cls-1" points="0 172.79 29.46 172.79 35.07 144.83 76.58 144.83 81.07 122.63 10.03 122.63 0 172.79"/>
  <path class="cls-1" d="m250.96,31.52c-1.22-2.14-2.8-4-4.65-5.52-.84.11-1.61.3-2.31.58,1.95,1.3,3.29,2.87,4.21,4.54,1.05.31,2.15.82,3.29,1.49-.17-.36-.34-.73-.54-1.08Z"/>
  <path class="cls-1" d="m238.55,22.07c-.57-.15-1.16-.27-1.75-.37-.97-.16-1.95-.23-2.92-.21-.38.58-.72,1.18-1.01,1.81,1.59-.18,3.01-.09,4.23.15.42-.5.91-.95,1.45-1.37Z"/>
  <path class="cls-1" d="m248.3,26.88s.08.1.13.15c-.04-.05-.08-.1-.13-.15Z"/>
  <path class="cls-1" d="m232.45,21.57c-1.82.18-3.59.65-5.25,1.39-.26.8-.43,1.58-.53,2.35.58-.32,1.19-.62,1.8-.87,1.06-.44,2.08-.73,3.04-.93.05-.12.08-.25.13-.37.23-.54.51-1.06.8-1.57Z"/>
  <path class="cls-1" d="m239.99,22.48c-.6.38-1.13.8-1.59,1.27,2.18.64,3.44,1.61,3.44,1.61.33.15.63.31.94.47.7-.35,1.46-.62,2.28-.8-1.55-1.08-3.25-1.94-5.06-2.55Z"/>
  <path class="cls-1" d="m211.67,35.83c-.23.13-.47.24-.7.37-.05.16-.1.33-.15.5-.13.5-.21.99-.23,1.45,1.66-.66,3.21-1.55,4.62-2.65-.15-.7-.22-1.37-.23-2.01-1.03.87-2.14,1.66-3.31,2.34Z"/>
  <path class="cls-1" d="m205.9,38.24c-.08.12-.17.25-.25.39-.22.36-.41.74-.57,1.12,1.47-.28,2.92-.67,4.34-1.16-.01-.54.05-1.1.17-1.68-1.19.55-2.42.99-3.68,1.34Z"/>
  <path class="cls-1" d="m249.57,28.41s-.07-.08-.1-.12c.05.07.1.13.15.2-.02-.02-.03-.05-.05-.08Z"/>
  <path class="cls-1" d="m250.07,29.13c.07.11.15.21.22.32-.07-.11-.15-.21-.22-.32Z"/>
  <path class="cls-1" d="m222.12,26.46l-1.06,1.07c-.03.82-.02,1.61.06,2.37l.88-.93c1.03-1.09,2.18-2.05,3.43-2.88.04-.79.15-1.6.35-2.41-1.32.75-2.56,1.67-3.65,2.77Z"/>
  <path class="cls-1" d="m216.51,32.1c-.1.1-.21.2-.32.3,0,.12-.03.24-.03.36-.03.66.02,1.29.1,1.89l.53-.45c.99-.85,1.93-1.75,2.82-2.7l.49-.52c-.13-.73-.19-1.49-.22-2.27l-3.37,3.39Z"/>
  <path class="cls-1" d="m246.85,25.45c.1.09.19.18.29.27-.1-.09-.19-.18-.29-.27Z"/>
  <path class="cls-1" d="m238.46,21c.1.02.2.05.3.07-.1-.03-.2-.05-.3-.07Z"/>
  <path class="cls-1" d="m240.32,21.56c.12.04.25.09.37.14-.12-.05-.24-.09-.37-.14Z"/>
  <path class="cls-1" d="m242.15,22.32c.11.05.21.11.32.16-.11-.05-.21-.11-.32-.16Z"/>
  <path class="cls-1" d="m204.31,38.62c-.59.12-1.19.22-1.79.3l-.65.96.48.27c.47-.05.93-.11,1.39-.18.17-.5.37-.96.57-1.35Z"/>
  <path class="cls-1" d="m216.34,31.15s.08-.07.11-.11l3.42-3.44,1.25-1.25.94-.95c1.21-1.22,2.6-2.23,4.09-3.02.5-.26,1.01-.5,1.53-.71,1.74-.71,3.59-1.12,5.47-1.22.49-.03.99-.04,1.49-.02.7.02,1.4.09,2.1.2,0,0,0,0,0,0,0,0,0,0,0,0-5.36-.87-10.85.91-14.68,4.76l-5.61,5.64c-.96.97-2.02,1.84-3.13,2.63.58-.41,1.15-.85,1.69-1.31.46-.39.9-.79,1.33-1.21Z"/>
  <path class="cls-1" d="m207.59,36.63c.46-.17.91-.35,1.37-.54-.45.19-.91.37-1.37.54Z"/>
  <path class="cls-1" d="m252.82,37.56c0-.57-.05-1.13-.12-1.69.07.56.12,1.12.12,1.69Z"/>
  <path class="cls-1" d="m245.3,24.2c.12.09.24.17.35.26-.12-.09-.23-.17-.35-.26Z"/>
  <path class="cls-1" d="m251.58,34.01c-.93-.6-1.83-1.07-2.68-1.42.7,1.77,1,3.6,1.07,5.28.86.77,1.71,1.7,2.54,2.76-.09.45-.2.89-.33,1.33-.01.04-.02.08-.04.12-.64-.87-1.37-1.76-2.18-2.58-.07,1.77-.35,3.26-.57,4.2.7.24,1.37.49,2.02.77.22-.71.48-1.6.76-2.51.44-1.44.64-2.92.63-4.4-.09-1.05-.29-2.1-.6-3.11-.21-.15-.42-.29-.64-.44Z"/>
  <path class="cls-1" d="m251.65,31.99c-.22-.52-.47-1.04-.75-1.54,0,0,0,0,0-.01,0,0,0,0,0,.01.28.5.53,1.01.75,1.54Z"/>
  <path class="cls-1" d="m252.49,34.63s-.02-.01-.03-.02c.05.25.11.49.15.74-.06-.39-.14-.78-.24-1.17,0,0,0,0,0,0,.04.15.09.3.12.45Z"/>
  <path class="cls-1" d="m243.72,23.16c.09.05.19.1.28.16-.09-.06-.19-.11-.28-.16Z"/>
  <path class="cls-1" d="m251.97,32.88s.01,0,.02.01c.08.24.16.48.23.73,0,0,0,0,0,0-.11-.38-.24-.76-.38-1.13.05.13.09.26.13.39Z"/>
  <path class="cls-1" d="m221.22,35.79l5.61-5.64c2.3-2.32,5.61-3.39,8.83-2.87,3.42.55,6.44,2.39,8.5,5.16.32.43.62.89.88,1.35,1.07,1.88,1.32,4.14.7,6.21-.28.91-.54,1.79-.76,2.51.34.07.67.15,1.01.22l.74-2.43.32-3.66-1.57-4.12-2.19-2.6-3.84-2.56-5.43-1.23-5.44,1.42-5.51,4.93-5.6,5.23-9.16,4.71-1.55.28,1.44.83c2.35-.7,4.63-1.67,6.79-2.93,2.28-1.32,4.37-2.94,6.23-4.8Z"/>
  <path class="cls-1" d="m203.95,36.8l-.63.94c.59-.1,1.17-.21,1.75-.35.69-.16,1.37-.36,2.04-.59.16-.05.33-.11.49-.17.46-.17.91-.35,1.37-.54.32-.14.64-.26.95-.41.55-.27,1.1-.56,1.64-.86.02-.01.05-.02.07-.04.59-.34,1.15-.71,1.7-1.1,1.12-.78,2.17-1.66,3.13-2.63l5.61-5.64c3.83-3.85,9.32-5.63,14.68-4.76,0,0,0,0,0,0,.58.09,1.15.22,1.72.36.1.02.2.05.3.07.29.08.58.17.87.26.23.07.46.15.69.23.12.04.25.09.37.14.15.06.29.11.44.17.35.14.69.29,1.03.46.11.05.21.11.32.16.43.21.84.44,1.25.68.09.05.19.1.28.16.45.27.88.57,1.3.88.12.09.24.17.35.26.16.12.32.25.48.38.24.2.48.4.72.61.1.09.19.18.29.27.07.07.14.13.21.19.33.31.64.63.95.97.04.05.08.1.13.15.36.41.71.83,1.04,1.27.03.04.07.08.1.12.02.02.03.05.05.08.15.21.3.42.45.64.07.11.15.21.22.32.21.32.41.66.61.99,0,0,0,0,0,.01.28.5.53,1.01.75,1.54.07.16.13.33.19.5.14.37.27.75.38,1.13.05.19.11.38.15.57.1.39.17.77.24,1.17.03.17.06.34.08.52.07.56.12,1.12.12,1.69,0,0,0,0,0,0,0,0,0,0,0,0,.02,1.48-.19,2.97-.63,4.4-.28.91-.55,1.8-.76,2.51.65.27,1.28.56,1.89.85.23-.75.53-1.74.84-2.77,1.33-4.37.79-9.15-1.47-13.12-.44-.78-.94-1.54-1.47-2.25-3.43-4.61-8.45-7.66-14.14-8.58-6.01-.97-12.17,1.02-16.46,5.34l-5.61,5.64c-1.31,1.32-2.8,2.47-4.41,3.4-2.47,1.43-5.14,2.36-7.9,2.77l1.26,1.04Z"/>
  <path class="cls-1" d="m216.51,32.1l3.37-3.39c-.01-.37-.01-.73,0-1.11l-3.42,3.44s-.08.07-.11.11c-.07.4-.12.82-.15,1.25.11-.1.22-.2.32-.3Z"/>
  <path class="cls-1" d="m234.65,20.43c-.28.34-.53.69-.77,1.05.97-.01,1.95.05,2.92.21.59.1,1.17.22,1.75.37.34-.26.7-.51,1.08-.73-.29-.09-.57-.18-.87-.26-.1-.03-.2-.05-.3-.07-.56-.14-1.14-.27-1.72-.36,0,0,0,0,0,0-.7-.11-1.4-.18-2.1-.2Z"/>
  <path class="cls-1" d="m210.97,36.2c.23-.12.47-.24.7-.37,1.17-.68,2.27-1.47,3.31-2.34,0-.28,0-.56,0-.82,0-.11.02-.2.03-.31-.54.46-1.11.9-1.69,1.31-.55.39-1.12.76-1.7,1.1-.02.01-.05.02-.07.04-.19.37-.4.85-.57,1.39Z"/>
  <path class="cls-1" d="m246.31,25.99c1.84,1.52,3.43,3.38,4.65,5.52.2.35.37.72.54,1.08.16.09.32.18.48.28-.04-.13-.08-.26-.13-.39-.06-.17-.12-.33-.19-.5-.22-.52-.47-1.04-.75-1.54,0,0,0,0,0-.01-.19-.34-.4-.67-.61-.99-.07-.11-.15-.21-.22-.32-.15-.22-.29-.43-.45-.64-.05-.07-.1-.13-.15-.2-.33-.44-.68-.86-1.04-1.27-.04-.05-.08-.1-.13-.15-.31-.33-.62-.66-.95-.97-.36.02-.71.04-1.04.09Z"/>
  <path class="cls-1" d="m239.99,22.48c1.81.61,3.51,1.47,5.06,2.55.35-.08.71-.15,1.08-.2-.16-.13-.32-.26-.48-.38-.12-.09-.23-.17-.35-.26-.42-.31-.85-.6-1.3-.88-.09-.06-.19-.11-.28-.16-.41-.24-.83-.47-1.25-.68-.11-.05-.21-.11-.32-.16-.34-.16-.68-.31-1.03-.46-.4.19-.78.4-1.13.62Z"/>
  <path class="cls-1" d="m252.37,34.19s0,0,0,0c-.05-.19-.1-.38-.15-.57,0,0,0,0,0,0,.05.19.11.38.15.57Z"/>
  <path class="cls-1" d="m252.46,34.61c-.08-.06-.16-.11-.24-.16.31,1.01.51,2.06.6,3.11,0,0,0,0,0,0,0,0,0,0,0,0,0-.57-.05-1.13-.12-1.69-.02-.17-.06-.34-.08-.52-.04-.25-.1-.5-.15-.74Z"/>
  <path class="cls-1" d="m207.13,36.83s-.6.49-1.23,1.41c1.26-.35,2.48-.79,3.68-1.34.04-.17.07-.35.12-.53.06-.24.14-.47.21-.7-.31.15-.63.28-.95.41-.45.19-.91.37-1.37.54-.16.06-.33.11-.49.17l.02.03Z"/>
  <path class="cls-1" d="m204.67,37.97c.13-.21.26-.41.39-.59-.58.14-1.16.25-1.75.35l-.8,1.19c.6-.08,1.2-.18,1.79-.3.12-.24.24-.46.36-.65Z"/>
  <path class="cls-1" d="m232.45,21.57c.22-.38.46-.75.72-1.12-1.89.1-3.74.51-5.47,1.22-.19.43-.35.86-.49,1.29,1.66-.74,3.43-1.21,5.25-1.39Z"/>
  <path class="cls-1" d="m221.06,27.53l1.06-1.07c1.09-1.1,2.33-2.02,3.65-2.77.11-.43.23-.87.38-1.3-1.49.79-2.87,1.8-4.09,3.02l-.94.95c0,.09-.02.18-.03.27-.03.31-.03.6-.04.91Z"/>
  <path class="cls-1" d="m252.19,41.96c.13-.44.24-.89.33-1.33-.83-1.06-1.68-1.98-2.54-2.76.02.56.02,1.11,0,1.64.81.83,1.54,1.71,2.18,2.58.01-.04.02-.08.04-.12Z"/>
  <path class="cls-1" d="m252.22,34.45c.08.05.16.11.24.16.01,0,.02.01.03.02-.03-.15-.08-.3-.12-.45-.05-.19-.1-.38-.15-.57-.07-.24-.14-.49-.23-.73,0,0-.01,0-.02-.01-.16-.1-.32-.19-.48-.28-1.14-.67-2.24-1.17-3.29-1.49.27.49.5.98.7,1.48.85.35,1.74.82,2.68,1.42.22.14.43.29.64.44Z"/>
  <path class="cls-1" d="m245.05,25.03c-.82.19-1.58.46-2.28.8.43.23.84.48,1.23.74.71-.27,1.47-.47,2.31-.58.34-.04.69-.07,1.04-.09-.07-.07-.14-.13-.21-.19-.1-.09-.19-.18-.29-.27-.23-.21-.47-.41-.72-.61-.37.05-.73.12-1.08.2Z"/>
  <path class="cls-1" d="m238.55,22.07c-.54.42-1.03.87-1.45,1.37.46.09.89.2,1.3.32.46-.47.99-.89,1.59-1.27.35-.22.73-.43,1.13-.62-.14-.06-.29-.11-.44-.17-.12-.05-.24-.09-.37-.14-.23-.08-.46-.16-.69-.23-.38.23-.74.47-1.08.73Z"/>
  <path class="cls-1" d="m234.65,20.43c-.5-.02-.99,0-1.49.02-.26.36-.5.73-.72,1.12-.3.51-.57,1.03-.8,1.57-.05.12-.08.25-.13.37.47-.1.92-.17,1.36-.22.29-.63.62-1.23,1.01-1.81.24-.36.5-.71.77-1.05Z"/>
  <path class="cls-1" d="m227.69,21.67c-.52.21-1.03.45-1.53.71-.15.44-.27.87-.38,1.3-.2.81-.31,1.61-.35,2.41.41-.27.82-.54,1.24-.78.1-.77.27-1.55.53-2.35.14-.43.3-.86.49-1.29Z"/>
  <path class="cls-1" d="m221.06,27.53c.01-.3.01-.6.04-.91,0-.09.02-.18.03-.27l-1.25,1.25c-.01.37,0,.74,0,1.11.03.78.09,1.54.22,2.27l1.02-1.08c-.08-.76-.09-1.55-.06-2.37Z"/>
  <path class="cls-1" d="m216.19,32.4c.03-.44.08-.85.15-1.25-.43.42-.87.82-1.33,1.21,0,.1-.02.2-.03.31-.01.26-.01.54,0,.82.01.64.09,1.32.23,2.01.26-.2.52-.39.77-.61l.28-.24c-.08-.61-.13-1.23-.1-1.89,0-.12.02-.24.03-.36Z"/>
  <path class="cls-1" d="m204.67,37.97c-.12.2-.24.42-.36.65-.2.4-.4.85-.57,1.35.45-.07.9-.15,1.34-.23.16-.38.35-.75.57-1.12.08-.14.17-.27.25-.39.63-.92,1.22-1.41,1.23-1.41l-.02-.03c-.67.22-1.35.42-2.04.59-.13.18-.26.37-.39.59Z"/>
  <path class="cls-1" d="m209.7,36.37c-.05.18-.08.35-.12.53-.12.58-.18,1.14-.17,1.68.31-.11.63-.21.94-.33.08-.03.15-.07.23-.1.02-.46.1-.94.23-1.45.05-.17.1-.34.15-.5.18-.54.39-1.02.57-1.39-.54.31-1.08.6-1.64.86-.08.22-.15.45-.21.7Z"/>
  <path class="cls-1" d="m208.31,42.41l9.16-4.71,5.6-5.23,5.51-4.93,5.44-1.42,5.43,1.23,3.84,2.56,2.19,2.6,1.57,4.12-.32,3.66-.74,2.43c1.19.27,2.33.59,3.41.97.22-.94.5-2.43.57-4.2.02-.52.02-1.07,0-1.64-.07-1.68-.37-3.5-1.07-5.28-.2-.5-.43-.99-.7-1.48-.92-1.67-2.26-3.24-4.21-4.54-.39-.26-.79-.5-1.23-.74-.3-.16-.61-.32-.94-.47,0,0-1.26-.97-3.44-1.61-.4-.12-.83-.23-1.3-.32-1.22-.23-2.64-.33-4.23-.15-.44.05-.89.12-1.36.22-.96.2-1.98.5-3.04.93-.62.26-1.22.55-1.8.87-.43.24-.84.51-1.24.78-1.24.83-2.4,1.79-3.43,2.88l-.88.93-1.02,1.08-.49.52c-.89.95-1.83,1.85-2.82,2.7l-.53.45-.28.24c-.25.21-.51.41-.77.61-1.41,1.09-2.96,1.99-4.62,2.65-.08.03-.15.07-.23.1-.31.12-.63.22-.94.33-1.42.49-2.87.88-4.34,1.16-.45.09-.89.17-1.34.23-.46.07-.93.13-1.39.18l4.42,2.53,1.55-.28Z"/>
  <polygon class="cls-1" points="204.1 65.04 204.1 65.04 207.2 80.76 207.2 80.76 204.1 65.04"/>
  <path class="cls-1" d="m283.31,105.87c-3.96-12.37-11.64-23.09-21.73-30.83l-.7,2.48-40.37-12.19,1.01-3.26c-4.77.13-9.42.78-13.87,1.93v16.6c4.9-1.73,10.17-2.69,15.66-2.69,25.97,0,47.11,21.13,47.11,47.11s-19.56,45.48-44.17,47c-.97.06-1.95.1-2.94.1-25.97,0-47.11-21.13-47.11-47.11,0-16.66,8.7-31.31,21.79-39.69,2.88-1.84,5.96-3.39,9.21-4.58l-9.02-13.48c-11.8,5.15-21.73,13.82-28.46,24.67-5.96,9.62-9.41,20.95-9.41,33.07s3.25,22.79,8.89,32.22c11.01,18.41,31.13,30.77,54.1,30.77,19.23,0,36.47-8.68,48.04-22.31,9.32-10.98,14.96-25.18,14.96-40.68,0-6.68-1.05-13.11-2.99-19.16Z"/>
  <path class="cls-1" d="m258.2,53.39c-4.56-3.99-12.33-8.49-23.42-7.28-2.58.28-4.75,2.09-5.53,4.59l-3.7,11.95,32.57,9.83,3.2-11.31c.65-2.31,0-4.79-1.7-6.47-.46-.45-.94-.9-1.42-1.32Z"/>
  <path class="cls-1" d="m251.43,44.47c-.65-.27-1.33-.53-2.02-.77-1.08-.37-2.22-.7-3.41-.97-.33-.08-.66-.16-1.01-.22-3.19-.62-6.74-.82-10.65-.39-4.18.46-7.68,3.36-8.93,7.4l-3.89,12.56-1.01,3.26,40.37,12.19.7-2.48,3.61-12.77c1.05-3.72,0-7.71-2.74-10.42-.52-.51-1.05-1.01-1.6-1.49-1.98-1.73-4.49-3.54-7.53-5.04-.61-.3-1.24-.58-1.89-.85Zm9.89,16.71l-3.2,11.31-32.57-9.83,3.7-11.95c.78-2.51,2.95-4.31,5.53-4.59,11.09-1.21,18.86,3.29,23.42,7.28.49.43.96.87,1.42,1.32,1.7,1.68,2.35,4.16,1.7,6.47Z"/>
  <path class="cls-1" d="m207.2,80.76h0s0,0,0,0l-3.1-15.72-2.95-14.94,22.45,2.26-15.4-8.84-1.44-.83-4.42-2.53-.48-.27.65-.96.8-1.19.63-.94-1.26-1.04-1.67-1.37L228.33,0l-32.73,24.52,1.07-15.28-8.86,14.17-7.09-11.79-1.99,15.32-24.21-7.82,16.98,14.79-5.27,1.33,6.04,4.86-22.4,15.59,23.96-4.33-3.24,7.6,6.44-3.24-7.16,25.99,15.73-24.28,5.77,11.6,1.16-10.19,5.65,8.45,9.02,13.48Zm-16.32-28.74l-.98,8.62-4.02-8.08-9.51,14.69,4.44-16.13-5.41,2.72,2.41-5.65-17.46,3.16,15.95-11.1-4.78-3.84,5.04-1.27-11.57-10.08,15.75,5.09,1.47-11.33,5.55,9.22,5.81-9.3-.76,10.89,21.96-16.45-17.15,21.58,3.08,2.52-2.3,3.42,14.18,8.14-14.44-1.45,4.34,22.01-11.61-17.36Z"/>
  <polygon class="cls-1" points="198.15 47.37 212.59 48.82 198.41 40.69 200.72 37.27 197.64 34.75 214.79 13.16 192.83 29.62 193.59 18.73 187.77 28.03 182.23 18.8 180.75 30.13 165 25.04 176.57 35.12 171.53 36.39 176.3 40.23 160.35 51.33 177.81 48.18 175.4 53.83 180.81 51.12 176.36 67.24 185.88 52.55 189.9 60.63 190.88 52.01 202.49 69.38 198.15 47.37"/>
</svg>