<svg width="240" height="240" viewBox="0 0 240 240" fill="none" xmlns="http://www.w3.org/2000/svg">
<g clip-path="url(#clip0_6304_27506)">
<circle cx="120" cy="120" r="120" fill="#EFF8FA"/>
<mask id="mask0_6304_27506" style="mask-type:alpha" maskUnits="userSpaceOnUse" x="0" y="0" width="240" height="240">
<circle cx="120" cy="120" r="120" fill="#EFF8FA"/>
</mask>
<g mask="url(#mask0_6304_27506)">
<path d="M-2.83998 188.116C3.55516 184.517 14.4013 189.309 5.63571 191.509C5.99383 192.106 6.23259 192.652 6.0791 193.027C4.52722 196.455 0.263795 205.169 -2.82292 203.379C0.962996 215.64 0.280849 225.327 -9.67851 235.371C-10.2072 242.142 -12.4412 246.149 -16.3636 247.428H-18.0519C-17.1821 234.843 -19.2286 220.859 -18.0519 208.461L-13.1063 199.849C-12.4241 194.016 -9.6444 186.206 -2.80587 188.133L-2.83998 188.116Z" fill="#F0C794"/>
<path d="M61.5376 201.673C60.1562 199.763 58.3826 184.21 58.7919 183.357C61.2306 178.412 71.2923 186.819 68.3079 193.709C69.6381 193.794 71.1388 194.033 71.2923 194.664C72.2814 198.791 70.5078 213.355 71.2923 202.935L73.3899 201.656C81.8485 201.895 68.8024 239.345 67.1312 240.692C66.6878 241.05 65.8521 240.914 64.9142 240.624C62.7143 241.05 60.4632 243.301 58.1439 247.394H56.4556C52.465 243.847 53.3006 237.435 54.9719 232.694C60.0027 223.672 62.2027 214.446 61.5376 205.05C58.2462 204.76 58.5702 203.174 61.5376 201.656V201.673Z" fill="#9F724C"/>
<path d="M20.8817 198.279C15.7485 190.537 23.2692 189.088 25.9637 198.279C29.4085 196.369 29.4938 200.889 27.652 203.361C31.472 204.112 34.3029 205.237 36.1277 206.755C40.2035 208.409 39.0268 212.877 36.1277 215.231C33.1944 221.728 29.8008 224.542 25.9637 223.706L12.4572 242.551C11.5874 245.672 10.7177 246.848 7.324 247.428H-1.15169C-4.08492 243.506 -1.81678 238.424 5.61863 232.182C4.88532 227.578 5.49925 227.527 9.01231 230.494C8.96115 226.537 10.1037 225.412 12.406 227.1C12.5424 225.685 13.1052 225.122 14.0943 225.412L18.2042 216.339C25.0257 214.139 24.787 212.076 17.488 210.166C13.1393 206.448 15.4416 199.456 20.8817 198.314V198.279Z" fill="#BA8B59"/>
<path d="M20.8816 198.28C19.125 203.242 18.6987 205.272 17.4879 210.132C14.333 212.264 10.9904 215.146 7.42621 218.761C5.772 223.673 3.48681 225.873 0.536522 225.378L-3.64163 237.162C-1.06652 240.573 -3.45404 246.439 -7.93916 247.394H-16.3807L-12.6971 233.445C-5.36405 227.032 -2.92538 218.898 -2.97654 209.143C-2.97654 208.137 -5.84156 208.648 -6.06326 208.324C-8.09264 205.494 -3.45404 204.317 -2.84011 203.345C-0.776611 202.799 2.0543 203.925 5.63557 206.738C4.18601 203.788 5.89138 201.469 9.02926 203.345C8.72229 199.474 11.9284 194.869 15.7996 198.263C16.2941 196.762 16.8569 196.779 17.4879 198.263C18.7328 193.863 19.6708 193.863 20.8816 198.263V198.28Z" fill="#E4B57B"/>
<path d="M58.161 201.673C58.5702 200.155 59.1501 200.206 59.8493 201.673C60.1903 203.924 59.2865 208.239 56.4556 208.443C54.1192 216.612 52.9766 225.071 53.0619 233.853C53.5565 238.321 54.1192 242.824 54.7502 247.411H51.3565C48.3039 244.512 46.0358 244.512 44.5862 247.411H36.1105C36.4857 240.862 38.174 234.075 41.1925 227.083C40.8174 223.246 41.3972 218.914 42.8809 215.231C44.4839 211.752 46.752 208.921 49.6512 206.755C45.8993 205.493 47.4683 201.281 51.3395 201.673C53.2324 198.194 55.8928 198.109 58.1098 201.673H58.161Z" fill="#A4764C"/>
<path d="M90.3415 208.444C94.4514 206.38 95.3893 216.885 95.0653 216.459C93.9057 214.924 94.3661 210.985 97.1118 211.82C95.3552 203.566 99.1241 200.343 103.882 208.427C105.605 204.913 109.237 209.416 107.276 211.82C101.46 222.411 100.727 233.154 102.484 245.126L98.8001 247.394H88.6361C85.9928 247.036 86.0951 239.839 88.6361 238.919C92.3879 230.255 90.9724 220.705 88.6361 211.82C87.6299 213.423 87.0672 212.861 86.9478 210.132C83.6905 209.62 83.3836 204.197 86.9478 203.362C90.6655 202.424 90.6143 205.067 90.3415 208.444Z" fill="#A37955"/>
<path d="M98.8168 247.411C100.011 241.903 97.5037 234.314 97.93 229.556C98.237 226.077 102.535 220.739 102.33 217.84C102.245 216.663 98.3052 217.311 98.8168 216.083C99.0726 215.469 100.676 214.787 101.017 213.525C101.409 212.093 100.369 210.251 100.505 210.149C104.956 207.266 102.483 216.424 107.275 211.82C110.55 213.014 110.84 215.827 107.275 216.902C107.77 226.742 108.913 236.599 110.669 246.456L108.981 247.394H98.8168V247.411Z" fill="#BF956C"/>
<path d="M73.4068 186.427C74.3788 179.179 78.5399 185.08 80.1771 189.821C86.0606 187.28 90.5628 198.893 86.9474 203.379C86.6916 205.527 87.3226 208.154 86.9474 210.149C88.2094 218.71 87.6295 226.623 85.2591 233.871C86.7939 234.041 86.7086 234.638 85.2591 235.559C84.1676 241.664 81.8995 245.621 78.4888 247.411H75.0951C70.0813 244.648 73.4409 238.731 78.4888 240.641C78.9663 228.362 80.0918 216.493 81.8824 205.067C76.9539 199.9 72.6223 193.692 73.4068 186.427Z" fill="#C9A17B"/>
<path d="M136.079 228.772C140.735 225.941 145.39 230.63 144.555 235.542C149.586 234.399 150.933 235.116 149.637 240.624C152.485 243.984 146.976 245.757 142.952 243.796C143.225 245.962 141.639 246.746 139.473 247.394H132.703C130.469 245.979 128.217 244.853 125.932 244.001C123.715 246.61 121.396 245.569 122.539 242.312C121.055 241.835 121.089 241.272 122.539 240.624C121.345 235.61 124.653 234.723 127.621 238.936C129.599 234.604 132.413 231.21 136.096 228.772H136.079Z" fill="#CDA880"/>
<path d="M73.4068 199.985C75.8455 194.323 80.2794 200.872 78.4888 205.067C81.9337 208 82.036 220.296 76.8005 222.001C75.7602 230.136 73.8332 237.964 71.0364 245.518L66.6365 247.411H61.5545C59.7298 244.87 61.4863 239.993 64.9482 240.641C69.8938 230.92 67.3016 232.387 68.4271 224.764C68.5295 224.048 73.7649 218.693 74.7029 212.281C75.6408 205.869 73.8673 205.221 73.4068 201.673C71.9061 201.264 71.9402 200.684 73.4068 199.985Z" fill="#D6AA7D"/>
<path d="M42.898 215.231C42.3012 219.221 41.1756 222.035 39.5043 223.707C40.9027 231.943 37.8331 241.323 32.734 247.428H29.3403C26.0319 244.12 26.0319 240.556 29.3403 237.264C23.0646 229.539 28.3683 220.518 36.1107 218.625C37.6114 215.146 38.5323 211.462 38.8734 207.591L42.881 208.461C46.1723 210.609 46.1894 213.099 42.881 215.231H42.898Z" fill="#C19567"/>
<path d="M78.4888 240.641C77.4997 242.739 75.061 244.529 75.0951 247.411H66.6194L76.7834 222.001C79.6996 226.572 80.2624 232.779 78.4718 240.641H78.4888Z" fill="#9F7146"/>
<path d="M56.4557 247.411H54.7674C51.6807 241.681 51.4249 239.788 53.0791 233.853C50.9644 227.066 53.9318 218.13 59.8494 215.214C57.2231 213.201 57.8541 205.408 61.5377 205.05C68.922 220.142 49.8389 231.892 56.4557 247.394V247.411Z" fill="#B88E64"/>
<path d="M107.275 218.608C112.323 223.349 112.528 229.539 112.357 235.542C114.643 237.162 114.881 240.897 112.357 242.312C116.877 242.039 116.126 246.32 112.357 247.394H108.964C109.151 237.554 102.091 226.299 107.275 216.902C108.776 217.363 108.759 217.926 107.275 218.591V218.608Z" fill="#E2C19E"/>
<path d="M41.2096 227.083C45.2684 235.303 38.7709 240.453 36.1276 247.411H32.7339C33.8424 239.157 36.7245 231.261 39.5043 223.689C41.653 223.416 41.4825 225.173 41.1926 227.083H41.2096Z" fill="#9A6A3B"/>
<path d="M17.4877 240.641C19.176 243.506 18.0505 245.774 14.094 247.411H7.32373C12.7127 236.872 17.6242 231.534 25.9634 223.689C28.4874 230.801 23.6782 237.588 17.4877 240.624V240.641Z" fill="#7A4F2C"/>
<path d="M0.553539 225.395C2.2248 227.288 3.91311 229.556 5.63554 232.165L-1.13478 247.411H-7.90509C-6.42142 239.72 -3.01068 231.978 0.570593 225.395H0.553539Z" fill="#DCA76D"/>
<path d="M149.637 240.641C153.15 236.991 155.486 240.163 153.03 244.035C149.415 243.659 149.262 243.745 149.637 247.428H139.473V238.97L148.716 242.312L149.637 240.658V240.641Z" fill="#E6C59D"/>
<path d="M29.3572 237.247C29.3572 240.641 29.3572 244.018 29.3572 247.411H20.8815C16.4305 245.075 17.5901 242.841 22.5698 242.329C20.0288 237.06 26.7821 228.465 29.3401 237.247H29.3572Z" fill="#6C4427"/>
<path d="M64.9313 240.641C63.874 242.705 63.6352 245.57 61.5376 247.411H58.1439C57.7687 240.095 63.6523 238.475 63.243 230.477L64.9142 240.624L64.9313 240.641Z" fill="#663E20"/>
<path d="M85.259 247.411H78.4887C79.4778 243.046 81.1832 237.793 85.259 235.559C87.783 237.691 88.0047 245.467 85.259 247.411Z" fill="#7C5531"/>
<path d="M117.44 237.247C119.776 232.864 124.278 236.122 122.522 240.641V242.329C122.624 244.972 119.691 246.9 117.44 247.411H112.358V242.329C112.886 240.521 114.012 239.396 115.751 238.935C115.683 237.196 115.819 236.531 117.44 237.247Z" fill="#A1836A"/>
<path d="M22.5697 242.329C21.6488 243.915 21.0519 245.569 20.8814 247.411H14.1111C12.3546 242.926 16.7203 242.073 17.5048 240.641C21.2395 234.058 25.2813 235.832 22.5868 242.329H22.5697Z" fill="#B3875B"/>
<path d="M88.6531 233.854C90.7507 233.666 90.7507 235.354 88.6531 238.936V247.411H85.2594C85.5152 243.506 84.9013 239.447 85.2594 235.559C85.3106 234.996 85.2253 234.433 85.2594 233.871C85.8051 229.368 87.357 229.573 88.6531 233.871V233.854Z" fill="#BF9B77"/>
<path d="M51.3735 247.411H44.6032C42.3691 236.991 51.851 238.475 51.3735 247.411Z" fill="#673F1F"/>
<path d="M132.685 247.411H125.915V244.017C129.565 243.949 136.488 239.771 132.685 247.411Z" fill="#997050"/>
<path d="M176.735 57.6718C175.78 58.661 174.262 58.03 172.182 55.813C167.816 58.8144 164.729 54.6533 166.571 50.9015L164.184 50.5946C163.041 41.3344 146.362 34.4959 137.767 35.6555C137.477 40.6011 132.293 40.243 130.997 35.6555C126.546 33.3362 121.362 33.5238 120.594 39.7484C111.368 38.1454 94.451 42.9033 108.52 52.1635L107.275 55.9835L106.116 58.4393C97.4013 58.1323 85.8219 58.5927 78.881 65.5848L75.078 64.4592C72.2471 66.0282 68.4442 65.7382 66.6024 62.7709C66.9775 57.8935 70.8999 53.5278 78.3694 49.6737C88.1753 46.3141 92.7286 40.3453 92.0465 31.7502C95.0479 29.9596 98.4245 28.4418 102.176 27.1969C120.373 23.7691 128.865 23.8203 146.277 31.2045C156.765 35.6555 176.206 45.0521 176.718 57.6889L176.735 57.6718Z" fill="#6E707E"/>
<path d="M24.275 127.131C22.4844 133.134 23.0813 136.408 24.275 142.377C25.7246 142.821 25.6905 143.4 24.275 144.066C28.7602 148.295 26.3385 154.639 19.5 152.78C16.3451 156.651 12.2863 159.397 7.32368 161C8.80735 161.477 8.77324 162.04 7.32368 162.688C9.33601 164.956 8.381 165.843 5.63536 164.377C3.40133 178.633 -4.54569 170.328 0.553362 160.983C3.98115 160.471 4.01526 159.926 0.672737 159.363C6.04465 155.492 8.8244 151.518 9.01199 147.442C5.53304 145.464 3.84472 147.152 3.92999 152.524C3.40133 156.054 1.15024 159.448 -2.84032 162.688C-4.98909 166.014 -8.53625 167.651 -9.61064 162.688C-11.6912 161.034 -12.1857 159.619 -10.4292 157.862C-16.091 160.181 -19.3995 158.561 -16.398 152.524C-16.0228 152.098 -10.3951 147.886 -9.62769 147.442C-6.08052 141.388 -0.435752 136.869 7.30662 133.885C8.53449 131.77 6.60742 126.057 13.2925 125.358C17.8287 124.88 19.9093 130.968 19.176 122.032L24.2409 127.114L24.275 127.131Z" fill="#E9BD8B"/>
<path d="M102.194 27.1802C99.755 27.2313 97.0264 31.6312 96.7024 31.7676C95.9862 32.0575 94.0591 30.1475 93.7351 30.5739C93.2405 31.2219 94.9629 34.0869 94.5366 35.8605C94.3661 36.5768 88.8577 48.395 88.4314 48.9748C88.2779 49.1794 86.2826 48.2074 85.3276 48.7019C75.7605 53.8692 74.1063 55.6087 66.6197 62.7542L67.677 66.4719C60.8385 73.4468 54.2728 80.6776 47.9971 88.1642L50.5892 91.1827C49.9412 102.455 46.8204 112.176 41.2268 120.362C44.3305 121.078 44.0406 122.374 41.2268 123.755C40.664 129.656 28.4024 132.112 25.9808 127.149C27.5668 123.789 38.5323 121.299 39.2656 120.106C39.9989 118.912 41.0392 97.9189 42.6422 92.1377C48.4405 71.3322 63.7376 55.7792 81.4564 44.5238C83.2641 43.3641 87.7833 43.1424 88.4143 42.1874C93.1553 35.0078 82.6502 30.8979 102.211 27.1972L102.194 27.1802Z" fill="#92969D"/>
<path d="M137.768 210.149L151.325 216.919C153.116 218.318 159.034 219.085 159.801 223.69C156.015 225.31 153.73 227.544 152.928 230.392L150.575 230.46C151.274 236.463 149.791 239.635 144.555 235.542C142.134 233.325 138.262 230.545 136.079 228.772C131.458 233.82 126.12 223.11 132.276 221.507C129.855 221.763 129.991 220.245 132.703 216.919C130.418 217.243 130.418 215.538 132.703 211.837C131.083 210.183 134.033 207.54 136.097 208.444C136.421 209.092 137.734 209.791 137.785 210.132L137.768 210.149Z" fill="#DBBA92"/>
<path d="M0.553591 161.017V169.493C3.00932 168.964 3.84495 165.912 5.63559 164.411C8.38123 165.059 10.0866 167.327 10.7176 171.181C24.9233 168.146 18.4941 175.206 10.5812 179.845C13.5314 183.818 12.9516 186.734 11.2804 191.561C7.46033 189.292 3.33334 187.007 -1.13472 184.722C-4.34082 188.047 -5.51752 187.536 -4.52841 183.034C-7.18878 181.618 -1.4758 177.457 -1.7316 177.679C-5.24466 182.505 -8.4337 184.296 -11.2987 183.034C-13.6862 187.792 -17.6427 186.291 -18.069 181.345C-18.069 180.22 -18.1543 179.077 -18.069 177.952C-17.5915 176.468 -17.0288 176.502 -16.3807 177.952C-8.41665 175.991 -3.89742 171.471 -2.82304 164.394C-2.70366 157.982 2.907 154.094 0.570645 161L0.553591 161.017Z" fill="#DCB37E"/>
<path d="M151.325 132.214C155.623 129.417 156.049 143.299 155.196 143.742C155.043 143.827 155.009 141.951 156.407 142.378C160.653 139.172 163.194 143.299 161.489 147.46C157.396 155.577 147.3 171.949 144.555 179.64C141.417 185.745 138.603 187.434 136.079 184.722L135.687 182.283C142.764 173.944 150.37 161.461 146.976 150.427L149.637 144.066C144.521 142.48 148.29 134.925 151.325 132.214Z" fill="#DABB98"/>
<path d="M41.2095 123.738C46.155 125.426 44.8931 132.196 40.6126 134.533C42.7102 136.46 43.0854 138.114 41.2095 140.672L40.4762 142.889C35.667 141.167 30.261 140.996 24.2752 142.36C17.556 139.069 17.6754 129.536 24.2752 127.114C24.7527 126.944 25.4178 127.268 25.9635 127.114C30.7897 125.784 36.5709 126.142 41.2095 123.721V123.738Z" fill="#9A9696"/>
<path d="M161.489 147.46C159.289 146.88 157.959 142.616 156.407 142.378C152.706 134.721 152.706 129.639 156.407 127.132C159.443 126.194 162.819 125.631 166.571 125.443C168.754 122.288 171.005 121.726 173.341 123.755C171.721 130.611 165.104 140.28 161.489 147.477V147.46Z" fill="#7E7C81"/>
<path d="M175.047 72.9179C175.559 71.9117 176.121 71.9458 176.735 72.9179C175.183 74.9302 171.602 76.8061 171.551 77.3007C171.415 78.9208 174.433 84.2415 174.911 87.4647C175.797 93.4676 175.166 99.948 175.047 105.115C172.011 108.884 169.624 105.507 171.653 101.722C170.204 101.312 170.238 100.75 171.653 100.033C168.345 96.9977 166.179 93.5529 168.26 89.8693C164.934 83.9516 164.371 78.2898 166.571 72.935C163.041 74.5039 162.103 72.2869 164.883 69.5413L163.161 66.267C165.292 64.8345 167.56 63.6578 169.965 62.7539C172.25 65.2608 173.938 68.6374 175.047 72.9179Z" fill="#8A8E9D"/>
<path d="M-11.2986 183.034C-9.21809 183.46 -6.967 183.46 -4.52832 183.034C-3.55626 183.34 -1.83384 184.79 -1.13464 184.722C2.2761 187.689 1.64511 188.781 -2.82296 188.116C-11.742 194.425 -6.25075 192.43 -9.74675 198.808C-11.4862 201.98 -15.9031 205.203 -18.069 208.444C-17.6256 203.805 -14.5388 199.422 -14.59 197.478C-14.6071 196.608 -17.7449 196.779 -18.0519 195.466C-18.8534 192.157 -18.086 185.353 -18.0519 181.345C-16.0907 181.499 -12.9017 183.289 -11.2816 183.034H-11.2986Z" fill="#F1D7AB"/>
<path d="M166.571 50.9013C167.236 52.5555 168.294 54.0904 168.294 55.9663L170.801 50.9013C171.875 53.4253 175.695 56.0856 176.735 57.6716C181.203 64.4078 182.005 66.062 176.735 72.9176H175.047C173.052 70.189 172.148 66.6589 172.318 62.3614L169.965 62.7536C169.18 64.5102 166.23 67.7333 164.883 69.5239C159.409 70.9906 154.889 58.3026 163.331 57.4499C158.709 54.2438 162.325 47.3712 166.571 50.8843V50.9013Z" fill="#6C6F7F"/>
<path d="M159.801 223.689C159.63 226.077 155.231 224.951 154.719 225.395C151.138 228.601 160.654 228.277 158.096 232.148L153.048 230.46L158.096 245.706C156.356 245.16 154.958 244.205 153.031 244.017C152.536 242.039 150.882 241.63 149.637 240.624C147.198 238.646 146.243 237.077 144.555 235.542C151.769 236.872 144.146 227.373 144.555 227.083L153.031 227.049L159.801 223.672V223.689Z" fill="#EEDAB6"/>
<path d="M132.685 191.509C137.75 183.153 144.214 189.36 141.161 198.279C139.78 202.986 138.688 204.538 136.079 208.443C135.738 208.938 133.777 210.49 132.685 211.837C130.912 221.592 122.794 221.933 125.915 211.837L126.393 208.46C131.748 205.271 133.862 199.627 132.703 191.509H132.685Z" fill="#6A6261"/>
<path d="M144.555 179.64C142.628 185.029 143.088 191.748 141.161 198.279C142.611 188.047 138.688 192.242 132.686 191.509C132.361 193.01 131.799 192.959 130.997 191.509C126.461 190.145 125.335 188.439 127.604 186.427C128.064 181.618 131.543 180.816 134.374 184.739C134.749 183.204 135.329 183.255 136.062 184.739C138.978 183.63 140.684 179.486 144.538 179.657L144.555 179.64Z" fill="#D0C1AC"/>
<path d="M-9.61047 147.459L-6.19974 132.213C-0.43559 140.791 -1.49292 134.021 7.34089 133.902C5.84017 136.46 4.44176 137.892 2.17362 139.785C-1.98748 143.247 -6.13152 145.464 -9.61047 147.459Z" fill="#F5D7A2"/>
<path d="M171.653 101.722L175.047 105.115C174.945 109.686 173.751 112.022 173.359 115.279C168.993 118.468 166.537 116.115 169.965 111.886C164.9 111.954 164.508 94.9003 171.653 101.722Z" fill="#B49B8D"/>
<path d="M173.358 123.738C169.931 124.625 170.971 129.331 168.311 128.803C168.498 127.302 167.168 126.5 166.588 125.426C162.086 127.131 161.762 122.459 164.9 120.344C163.297 116.047 170.903 113.471 173.376 116.95C173.137 118.417 174.382 119.491 173.376 123.721L173.358 123.738Z" fill="#74747B"/>
<path d="M137.768 210.148C146.192 208.187 146.431 213.099 151.325 216.919C148.835 215.879 138.603 215.657 137.887 215.06C137.171 214.463 138.006 211.462 137.768 210.148Z" fill="#E4C297"/>
<path d="M173.359 115.28C173.291 115.842 173.444 116.422 173.359 116.968L164.883 120.362C163.007 121.282 161.882 120.14 161.489 116.968C160.023 116.525 160.057 115.962 161.489 115.28C160.398 112.398 168.516 107.947 169.965 111.886C170.46 113.574 171.756 114.683 173.359 115.28Z" fill="#9E8377"/>
<path d="M29.3572 172.87C33.0408 176.451 30.7726 179.742 25.9635 177.952C17.9312 180.288 17.3684 180.851 24.2752 179.64C28.4363 180.407 24.5822 188.269 20.8815 186.41C16.601 188.099 15.9359 189.804 15.7654 194.221C15.1003 194.818 3.82782 195.176 7.32383 191.492C6.86338 192.908 6.28355 192.874 5.63551 191.492C9.91598 182.198 -1.98749 195.176 -2.82312 194.886V188.116C-2.24329 187.689 -1.78284 185.558 -1.15186 184.722C0.0419002 184.62 2.08834 182.386 4.49291 183.17C7.4432 184.125 7.42615 189.088 10.6834 189.804C12.7298 185.694 5.65256 181.226 5.65256 180.493C5.68667 178.548 14.6569 172.256 17.4878 172.017C17.4708 170.431 12.457 171.232 10.7005 171.164C9.02919 161.904 27.2937 166.304 29.3401 172.853L29.3572 172.87Z" fill="#C39A6D"/>
<path d="M7.32379 191.509L10.4958 194.05C6.98271 196.387 5.36261 200.616 5.63547 206.772C3.69135 208.563 2.17357 212.775 -1.13484 213.543C0.229454 209.057 0.706957 206.875 -2.84021 203.379C-0.879036 200.326 2.22473 192.481 5.63547 191.526C6.06181 191.407 6.86334 191.475 7.32379 191.526V191.509Z" fill="#C19465"/>
<path d="M66.6195 177.951C67.7621 171.096 78.7276 183.033 71.7015 186.427C75.4533 192.003 76.0161 196.523 73.3898 199.985C73.4581 200.53 73.3216 201.127 73.3898 201.673C73.1681 208.75 75.8285 209.739 68.3249 210.149L69.9962 196.591L64.9483 198.279C63.7033 196.625 67.8644 185.063 60.7189 184.705C61.5887 190.315 61.7933 195.926 61.5546 201.656C61.0771 203.14 60.5143 203.105 59.8663 201.656C59.3035 201.707 58.7237 201.571 58.1779 201.656L55.8075 200.428C56.7795 195.312 57.0012 190.059 56.4896 184.705C55.6369 185.915 54.3238 186.785 53.1471 186.12C44.7737 181.379 61.5205 176.587 66.6536 177.917L66.6195 177.951Z" fill="#573727"/>
<path d="M61.5376 205.067C61.2476 208.989 60.6337 211.53 59.8492 215.231C53.8634 224.133 52.8743 214.224 56.4556 208.46C57.2059 206.67 55.3812 203.088 59.8492 201.69H61.5376C61.4864 202.815 61.6228 203.958 61.5376 205.084V205.067Z" fill="#543121"/>
<path d="M46.2917 194.903C50.6063 197.205 48.5939 206.226 44.6034 208.46C44.1088 209.961 43.546 209.944 42.9151 208.46C39.2315 210.473 40.6299 216.902 36.1448 218.624C33.3821 217.891 34.1495 217.004 36.1448 215.231C36.4347 212.468 35.8207 209.518 36.1448 206.755C31.8302 204.879 31.8302 203.6 36.1448 201.673C30.7046 201.213 39.7772 175.7 40.6469 174.507L44.6034 172.869C53.045 172.085 52.6868 191.884 46.2917 194.886V194.903Z" fill="#C19974"/>
<path d="M39.5214 166.099C43.2903 171.897 38.9927 183.835 32.7511 186.427C29.6985 184.125 28.266 187.416 28.4877 196.301L25.9637 198.28C25.7591 197.955 21.8026 199.303 21.7344 193.18C19.9097 193.146 21.3763 196.881 20.8817 198.28C19.8073 198.433 18.4601 198.058 17.488 198.28C13.4463 194.988 14.5889 186.154 20.8817 186.427C22.0073 184.261 24.2242 182.539 24.2754 179.657C23.8661 178.941 24.4289 178.378 25.9637 177.969C28.0102 175.99 28.1807 174.438 29.3574 172.887C25.4862 169.476 27.8908 166.986 32.7511 167.805C31.3356 161.819 40.0501 160.267 39.5214 166.116V166.099Z" fill="#DDB992"/>
<path d="M17.4878 210.149C20.404 213.372 19.2614 218.454 14.0941 225.395C13.4972 225.889 13.0197 226.589 12.4058 227.083C10.9562 226.026 9.83068 227.151 9.0121 230.477C8.12531 231.176 6.59048 231.466 5.61842 232.165C2.85572 234.143 0.00775579 234.996 -2.84021 238.935L0.536419 225.378C2.82161 221.165 7.6137 212.298 11.519 209.978C14.5887 208.153 15.7654 210.251 17.4878 210.132V210.149Z" fill="#C7965F"/>
<path d="M36.1277 218.608C36.0254 219.563 33.4332 221.37 33.2286 223.042C32.7681 226.827 36.0083 232.251 32.717 237.23C28.3683 236.036 35.0704 226.214 29.3745 225.395C29.3403 229.334 29.3574 233.308 29.3574 237.247L25.9978 235.542C26.3901 238.833 23.6956 240.385 22.57 242.329C21.3592 239.157 20.0802 238.373 17.488 240.641C20.3872 235.286 23.0475 229.13 25.9637 223.707C29.2892 220.586 31.6767 217.175 36.1277 215.231C36.0083 216.339 36.2471 217.516 36.1277 218.625V218.608Z" fill="#90653B"/>
<path d="M17.488 210.149C19.0569 210.029 21.4785 207.096 24.3265 209.194C32.103 214.941 20.7452 218.215 19.7391 219.153C17.812 220.944 17.1639 222.854 14.0943 225.395C13.7532 219.989 16.226 215.197 17.488 210.149Z" fill="#916234"/>
<path d="M25.9637 198.28C25.6055 195.5 26.1854 184.108 27.7884 183.136C30.3635 181.567 34.1835 183.068 32.734 186.427C37.4408 189.309 34.3029 201.571 29.3403 203.362C28.8628 204.845 28.3 204.811 27.652 203.362C27.5155 202.748 26.1001 198.501 25.9637 198.28Z" fill="#AC855E"/>
<path d="M36.1275 201.673C35.9399 203.327 36.3151 205.101 36.1275 206.755C31.1819 205.629 32.6827 212.911 27.6689 211.837C27.2767 209.211 28.1805 205.783 27.6689 203.378H29.3572C31.847 198.194 34.0981 197.631 36.1275 201.69V201.673Z" fill="#492E21"/>
<path d="M12.4059 227.083C11.5191 227.799 10.6834 229.181 9.01217 230.477C7.88662 225.071 6.14715 221.166 12.3888 218.625V227.1L12.4059 227.083Z" fill="#AB7544"/>
<path d="M20.8814 186.427C18.8691 190.281 16.8227 193.658 17.4878 198.279C16.8909 198.416 16.1746 198.075 15.7994 198.279C12.2864 197.529 10.0182 199.217 9.02912 203.361C8.21054 204.026 6.84625 205.647 5.63544 206.755C0.348793 201.997 7.76715 196.864 7.32375 191.509C8.55162 191.628 12.6275 194.511 14.0941 193.197C14.6568 192.686 8.61983 180.578 20.8814 186.427Z" fill="#775239"/>
<path d="M15.7994 198.279C15.4242 198.484 9.89881 202.645 9.02907 203.361L7.71594 202.355L9.04613 194.886C12.3204 194.51 14.7591 194.92 15.7994 198.279Z" fill="#502D1C"/>
<path d="M56.4557 208.443V216.919L59.8493 215.231C58.5362 221.37 54.6139 228.311 53.079 233.87C46.7521 231.039 52.0729 215.998 53.8806 210.865C54.4774 209.194 56.3363 208.767 56.4557 208.46V208.443Z" fill="#7B502B"/>
<path d="M46.2916 194.903C49.0884 187.382 55.8758 192.43 51.3736 199.985C52.9084 200.155 52.8232 200.752 51.3736 201.673C51.2372 202.662 50.1287 205.22 49.6853 206.755C47.7582 210.831 46.0699 211.394 44.6033 208.443C44.8079 203.992 45.9335 199.047 46.2916 194.886V194.903Z" fill="#513528"/>
<path d="M58.161 201.673C55.8417 201.997 53.693 203.532 51.3907 201.673C51.4589 201.127 51.3566 200.53 51.3907 199.985L52.6015 195.67C50.521 192.635 52.0558 185.165 56.4727 184.739C60.0881 188.763 57.4448 196.352 58.161 201.673Z" fill="#9F724C"/>
<path d="M49.6851 206.755C49.1735 208.494 46.6666 216.578 46.2744 216.936C45.8821 217.294 43.5799 215.248 42.9148 215.231C42.9489 212.979 42.8977 210.711 42.9148 208.46C43.3411 208.239 44.1256 208.682 44.6031 208.46C46.0015 207.829 48.2355 207.983 49.6851 206.772V206.755Z" fill="#3D241B"/>
<path d="M41.2094 227.083C40.7489 226.145 39.3505 225.258 39.521 223.689C40.2885 221.609 40.5784 215.163 42.9147 215.214C42.8636 219.255 43.5628 223.382 41.2264 227.066L41.2094 227.083Z" fill="#5B3B23"/>
<path d="M76.7837 177.951C81.5416 173.023 84.5943 178.241 86.9477 183.033C91.5863 180.271 96.3783 190.247 92.0297 193.197C96.8217 197.376 101.46 201.946 105.928 206.909L103.882 208.443C103.149 207.812 99.0558 204.726 98.817 205.05C99.7038 208.051 97.7597 209.808 97.1117 211.82C95.2187 213.201 93.7691 212.008 92.78 208.239L90.3243 208.443C89.4034 206.67 87.8345 205.135 86.9306 203.361C84.3384 198.211 84.3384 194.732 80.1603 189.804C74.7372 185.097 73.0489 181.14 75.0783 177.951C75.5558 176.468 76.1186 176.502 76.7666 177.951H76.7837Z" fill="#866149"/>
<path d="M114.063 218.607C118.736 220.739 120.646 223.587 115.751 227.083C113.534 228.993 110.72 226.162 107.276 218.607C107.139 218.079 107.412 217.448 107.276 216.919C106.9 215.504 107.668 213.167 107.276 211.837C106.576 209.535 105.11 209.518 103.882 208.443C104.496 201.247 94.4 202.73 92.3876 199.576C91.1598 197.648 92.5241 194.511 92.0295 193.197C95.7131 187.979 103.438 194.749 106.747 198.518C110.379 202.662 118.343 214.634 114.046 218.607H114.063Z" fill="#5E4231"/>
<path d="M88.6531 211.837C93.5134 219.426 96.1055 232.591 88.6531 238.935V233.853C85.5664 229.351 86.8624 217.635 88.6531 211.837Z" fill="#8F643D"/>
<path d="M88.6531 211.837V233.854H85.2594C85.6857 225.821 85.5152 218.045 86.9477 210.132C87.3911 210.763 88.2608 211.24 88.636 211.82L88.6531 211.837Z" fill="#DCB793"/>
<path d="M97.1117 211.837C96.3784 214.105 97.6574 217.942 93.7521 218.607C93.1382 215.128 91.9785 211.564 90.3414 208.443L92.0638 203.378C93.6839 201.69 95.6451 210.166 97.1287 211.837H97.1117Z" fill="#704932"/>
<path d="M81.8655 205.067C84.8158 216.339 83.4174 230.135 78.4718 240.641C75.4704 236.258 76.6471 227.748 76.7835 222.001C76.8858 217.413 78.7447 208.375 78.4718 205.067C77.2269 199.132 79.2222 200.65 81.8655 205.067Z" fill="#6F4A2F"/>
<path d="M68.3249 172.869C71.838 169.663 76.8859 173.62 75.0952 177.951C76.7835 180.066 80.3307 187.007 80.1772 189.804C78.0285 187.263 77.892 185.421 73.4069 186.41C72.9294 187.894 72.3666 187.86 71.7186 186.41C71.4287 185.012 69.8938 178.582 69.6551 178.241C68.99 177.32 66.8583 178.139 66.6366 177.934C65.1359 177.44 65.1529 176.877 66.6366 176.246C58.6555 176.195 57.6663 173.893 63.6863 169.339L68.342 172.869H68.3249Z" fill="#A08271"/>
<path d="M81.8654 205.067L79.3244 203.413L78.4888 205.067C78.3694 203.669 75.7602 198.331 73.4068 199.985C72.844 195.892 72.4176 189.804 71.7184 186.427H73.4068C75.2997 193.198 80.0748 198.177 81.8824 205.067H81.8654Z" fill="#987055"/>
<path d="M127.603 238.935C125.83 239.311 124.073 239.601 122.521 240.624L117.439 237.23C115.87 235.508 114.779 231.125 117.439 230.46C117.149 227.134 117.78 220.398 120.833 218.607C121.14 217.107 121.72 217.175 122.521 218.607L125.352 221.217C132.6 222.342 135.226 234.109 127.603 238.935Z" fill="#755036"/>
<path d="M132.686 216.919C133.556 220.449 137.529 222.427 130.997 224.525C132.276 226.486 134.408 227.407 136.079 228.771C137.785 233.188 133.862 233.512 133.402 234.314C131.509 237.554 136.421 237.077 127.604 238.935C128.678 235.951 129.906 228.72 128.627 226.111C127.212 223.246 122.01 223.127 122.522 218.607L125.165 215.828C126.563 219.17 129.07 219.528 132.703 216.919H132.686Z" fill="#A17C5A"/>
<path d="M107.276 218.607C112.665 217.431 110.703 225.497 115.751 227.083C119.298 226.657 119.861 227.782 117.44 230.477C116.877 231.261 117.968 235.678 117.44 237.247C117.252 237.827 115.99 238.39 115.751 238.935L114.029 239.157C113.927 230.988 113.364 229.778 112.358 235.542C110.328 230.46 108.555 223.962 107.276 218.607Z" fill="#C3A892"/>
<path d="M115.751 238.936C115.103 240.471 117.133 243.267 112.358 242.329C112.358 240.078 112.255 237.793 112.358 235.559C112.443 233.871 112.272 232.165 112.375 230.494H114.029L115.734 238.953L115.751 238.936Z" fill="#896C55"/>
<path d="M130.997 35.6553C132.174 35.6553 137.409 35.6041 137.767 35.6553C143.037 32.9949 162.717 42.8861 163.757 47.4905C164.576 51.0548 160.722 58.5072 156.39 54.295C155.588 60.0591 145.169 57.9445 141.417 55.267C136.761 49.1618 130.895 47.9169 129.189 57.0236C125.421 56.9553 123.186 58.8654 122.521 62.7536C121.379 67.8015 112.272 66.0791 112.357 61.0653C109.237 59.5646 107.531 57.8762 107.275 55.9833C101.631 50.9695 122.487 34.8879 126.273 33.3701C127.382 32.9267 130.383 34.8538 130.997 35.6553Z" fill="#43495A"/>
<path d="M107.276 55.9835C105.945 55.2331 106.031 51.4983 100.488 54.2781L102.211 50.9185H92.0467C90.2391 45.4784 99.4651 47.2179 100.522 45.8024L98.8171 39.0491C104.155 40.8909 109.169 35.9965 113.125 35.843C115.257 35.7578 117.934 37.719 119.742 37.4802C120.561 37.3779 127.655 23.5132 130.997 35.6555C130.878 35.6555 130.111 36.7128 128.78 36.7639C127.143 36.8322 123.391 34.9563 122.539 35.6555C122.215 35.9283 122.181 42.2552 120.543 43.756C120.083 44.1823 110.021 45.7171 114.063 50.8844C107.327 48.9232 110.107 55.1478 107.276 55.9835Z" fill="#525464"/>
<path d="M166.571 50.9013C159.29 54.8919 166.401 53.7663 166.589 55.3864C166.947 58.3708 166.435 61.4575 166.554 64.4419C163.553 65.1582 165.446 61.5428 164.866 61.0653C163.621 60.0421 159.784 62.6684 159.818 63.5893C159.818 63.9815 163.672 67.7845 164.866 69.5239C165.224 70.0526 165.702 71.5704 166.554 72.9176C169.795 76.6353 164.832 79.381 161.472 76.3113C155.998 73.6339 154.293 67.9721 156.39 59.377C151.667 58.0127 151.769 55.7446 156.39 54.295C157.038 54.0733 161.046 50.6796 161.268 49.844C162.598 44.7108 156.749 44.0969 154.276 42.4086C150.95 40.1404 141.69 36.1669 137.751 35.6553C142.134 28.6804 161.643 41.4706 164.849 45.0348C167.22 47.6782 165.975 49.4688 166.554 50.9013H166.571Z" fill="#54596A"/>
<path d="M107.276 55.9834C109.663 57.3306 113.415 57.5694 112.358 61.0654C109.953 63.487 105.434 63.487 98.8 61.0654C99.1582 66.3861 91.3476 66.2327 88.636 62.7537C89.6763 65.6017 88.3461 66.8637 84.6796 66.5567C83.6564 70.8713 81.5929 74.1115 78.472 76.3114C78.0628 80.8136 76.8349 80.3361 75.0784 76.3114C67.1996 76.4649 65.5112 74.7766 69.9964 71.2294C66.9438 67.3412 70.2692 62.9925 75.0784 64.4591C76.1016 63.47 83.213 58.6779 84.799 58.1322C92.1662 55.5741 101.733 57.6376 107.259 55.9834H107.276Z" fill="#343644"/>
<path d="M75.0953 64.4592C72.8442 66.6251 72.2643 69.2684 70.0133 71.2295L66.9777 72.969C64.0786 81.8369 60.0027 85.7763 54.7673 84.7702C54.8355 91.2676 50.8279 95.1388 47.9969 88.1639C51.0496 79.7564 60.5655 68.5521 66.6366 62.7539C69.945 61.4578 73.0659 61.0314 75.1123 64.4422L75.0953 64.4592Z" fill="#787C88"/>
<path d="M20.8814 155.935C24.889 158.749 29.4083 160.437 34.4391 161.017C35.2236 157.402 36.4173 157.675 37.8328 161.017C44.7907 155.048 49.8727 155.048 53.0788 161.017C55.8756 161.921 55.3128 163.626 51.3905 166.099C50.7424 169.442 41.8575 170.294 42.2668 166.679L39.5382 166.099C34.6096 162.723 35.3088 164.888 32.7678 167.787C27.6006 169.612 26.3898 169.97 20.6597 166.253C13.9747 167.293 9.54072 166.116 7.35785 162.705V161.017L14.725 156.89C17.0614 152.712 19.5683 151.109 20.9155 155.935H20.8814Z" fill="#9A6D4B"/>
<path d="M7.32372 162.706C8.02292 162.603 20.6256 162.842 21.3077 162.961C24.1045 163.49 26.5091 165.86 28.5044 167.788C29.2718 163.388 33.1771 161.955 32.7337 167.788C31.0454 169.715 30.4826 171.369 29.34 172.87C23.5247 172.034 16.0211 166.44 10.7003 171.181C9.01203 171.113 7.30666 171.266 5.61835 171.181V164.394C6.0788 164.002 6.40282 162.842 7.32372 162.706Z" fill="#4E2C1D"/>
<path d="M41.2097 140.689C40.357 135.096 50.2311 132.043 49.6854 139.001C53.6418 137.091 53.5736 139.257 51.3737 142.394C54.8356 146.573 52.5675 148.261 44.6034 147.476L43.836 151.279C38.8392 149.642 35.1386 150.069 32.734 152.558C28.1977 157.197 25.3157 148.244 24.2583 144.083C24.48 143.605 24.0196 142.787 24.2583 142.394C29.3915 133.851 36.1959 140.757 41.1926 140.706L41.2097 140.689Z" fill="#C1A68C"/>
<path d="M24.2751 144.065C30.3973 144.662 28.4362 150.102 32.7508 152.541C36.7584 160.318 25.7587 162.5 20.8984 155.935C16.4815 155.406 17.3513 155.935 19.2101 159.311L7.34076 161.017C11.553 158.442 16.8567 149.676 20.0458 147.476C21.3589 146.572 19.79 153.837 23.4565 149.182C22.8426 146.862 23.3712 146.01 24.2751 144.082V144.065Z" fill="#B88B63"/>
<path d="M9.02919 147.459C9.11446 147.937 12.3206 148.039 11.6384 150.802C10.547 155.202 2.56585 156.924 3.93014 162.723C3.70844 163.03 1.35503 161.529 0.570565 161.017C0.468243 160.949 0.741101 159.039 -1.1007 159.312C-0.913107 161.29 -1.64642 162.876 -2.82312 164.394C-2.82312 163.831 -2.82312 163.268 -2.82312 162.706C-2.58437 153.684 -2.63553 157.538 3.94719 152.542C2.24183 148.568 5.05568 145.515 9.02919 147.459Z" fill="#F5DCAC"/>
<path d="M3.94726 152.541C-5.50048 146.777 10.9734 138.83 15.7996 137.295C15.2368 144.407 7.69907 139.768 9.02926 147.459C7.51148 149.386 5.90844 151.041 3.94726 152.541Z" fill="#D5A571"/>
<path d="M47.997 116.967C51.3395 116.371 51.0155 119.679 47.997 120.361C48.321 123.942 50.214 125.358 52.755 122.476L54.7673 123.738C63.2771 125.477 55.4665 140.331 49.6853 138.984C49.5318 139.052 48.1675 137.892 47.1955 138.199C45.1832 138.813 43.4266 140.655 41.2267 140.672L34.4393 132.231C42.3011 132.418 40.7151 129.366 41.2267 123.738C41.329 122.629 41.0903 121.453 41.2267 120.344C42.7445 115.569 45.456 110.265 47.997 116.95V116.967Z" fill="#6C6A72"/>
<path d="M54.7673 84.7871C61.7763 86.7994 60.5314 97.2363 53.7782 100.238C56.899 103.086 55.313 106.36 51.9193 108.253C51.5441 112.482 50.231 115.398 47.9799 116.984C44.4839 116.285 42.7444 117.291 41.2096 120.378C42.3181 111.203 44.9955 111.101 45.8482 107.451C47.0079 102.489 44.9955 96.4518 47.9799 88.1808C52.3798 89.1187 52.6015 87.5328 54.7502 84.7871H54.7673Z" fill="#727481"/>
<path d="M125.915 211.837L128.456 218.625C129.258 214.464 130.98 213.969 132.686 211.837C132.924 213.423 132.345 215.521 132.686 216.919C130.383 223.519 124.909 218.625 122.522 218.608C121.959 218.608 121.379 218.642 120.833 218.608C117.559 217.653 117.593 216.169 120.833 215.214C121.618 213.338 123.357 212.98 123.306 214.174C123.153 217.926 119.844 212.554 124.227 211.837C124.79 210.422 125.353 210.422 125.915 211.837Z" fill="#927F70"/>
<path d="M139.473 118.656C145.919 117.582 155.299 125.767 151.325 132.214C152.604 136.596 150.149 140.604 149.637 144.066C148.972 146.965 147.846 148.091 146.243 147.46C143.702 149.677 142.696 148.602 144.555 145.771C136.096 143.486 139.524 136.238 146.243 133.919C141.673 131.651 137.051 130.184 132.379 129.519L130.997 125.46C128.832 126.995 126.58 127.558 124.227 127.149C121.55 130.832 109.68 132.93 114.063 125.46C115.803 114.324 131.816 109.805 139.473 118.69V118.656Z" fill="#715855"/>
<path d="M149.637 144.065C148.102 154.468 151.445 149.523 151.479 153.257C151.479 155.696 149.688 163.472 148.801 166.082C145.834 174.745 139.678 177.405 136.096 184.721C135.619 184.909 134.92 184.551 134.408 184.721C129.087 182.863 130.315 178.531 138.041 171.726C138.348 166.917 139.951 163.353 142.867 161C143.873 157.76 144.436 154.383 144.555 150.836C140.752 148.244 141.69 146.828 146.243 147.442C147.181 146.163 148.529 145.174 149.637 144.048V144.065Z" fill="#AC927C"/>
<path d="M149.637 118.656C150.575 117.462 151.138 118.025 151.325 120.344C152.979 119.849 153.542 120.412 153.013 122.032C156.731 123.976 157.857 125.665 156.407 127.114C156.953 129.127 155.537 139.154 156.407 142.36C156.288 142.343 155.554 143.929 154.753 144.083C155.486 138.95 153.235 136.136 151.325 132.196C149.057 127.507 144.538 120.839 139.473 118.639C137.085 117.326 136.523 116.183 137.785 115.245C141.758 113.096 146.363 113.966 149.637 118.639V118.656Z" fill="#DCCAB8"/>
<path d="M164.883 120.361C165.429 121.64 165.173 122.868 166.571 125.443C164.934 130.15 159.886 129.434 156.407 127.131C156.322 126.841 153.406 122.561 153.014 122.049C155.401 120.173 158.232 118.485 161.489 116.967C163.263 117.564 164.15 118.69 164.883 120.361Z" fill="#605F68"/>
<path d="M161.489 76.3112C165.122 75.8849 167.202 79.2786 164.968 81.7172L168.26 89.8519C170.153 93.3479 171.943 95.5478 171.653 100.016C167.305 102.881 165.19 102.045 164.883 96.6222C163.416 96.1276 163.433 95.5648 164.883 94.9339C152.28 85.3326 139.473 70.9564 156.407 59.3599C157.567 64.3736 160.04 69.9673 161.489 76.2942V76.3112Z" fill="#434859"/>
<path d="M171.653 100.033C171.619 100.613 171.773 101.653 171.653 101.722C171.108 102.046 168.14 100.92 168.174 102.66C168.174 103.325 169.658 110.811 169.965 111.886L161.489 115.279C154.548 121.163 150.439 105.098 161.489 110.197C161.899 108.356 163.024 107.213 164.883 106.804C159.511 101.005 159.511 97.6117 164.883 96.6396L171.653 100.033Z" fill="#86675D"/>
<path d="M175.047 72.9179C168.993 73.0713 169.692 67.5118 169.965 62.7539C170.408 61.7647 169.641 59.1385 169.965 57.6719C173.887 54.0565 178.099 69.8141 175.047 72.9179Z" fill="#484E61"/>
<path d="M166.571 72.9175C167.339 74.1283 170.92 73.9748 170.016 78.8522C169.88 79.6025 166.537 79.6537 166.486 80.6428C166.384 82.7745 169.249 86.7992 168.26 89.8688C164.047 82.1265 163.57 85.486 161.489 76.3112L166.571 72.9175Z" fill="#6B7082"/>
<path d="M132.686 191.509L136.062 196.609C136.744 199.678 133.18 197.666 132.686 198.297C131.901 199.269 136.011 200.906 135.397 203.447C134.545 206.977 129.701 211.411 125.898 211.837C125.37 211.889 124.722 211.889 124.21 211.837C122.164 214.14 120.526 213.065 120.816 210.149L119.776 206.159C125.233 201.912 127.484 197.768 129.292 191.527C129.855 190.708 130.418 190.708 130.98 191.527C131.526 191.629 132.123 191.458 132.669 191.527L132.686 191.509Z" fill="#3C3636"/>
<path d="M144.555 145.771C145.049 145.976 145.595 147.085 146.243 147.46C145.578 148.364 145.135 149.762 144.555 150.853C144.623 154.588 144.06 157.982 142.867 161.017C142.526 164.582 142.355 170.09 141.025 173.228C140.053 175.53 132.771 179.043 134.391 184.739C132.771 185.268 128.985 186.444 127.621 186.427C127.228 187.638 126.819 188.593 126.307 188.644C123.204 188.951 108.538 185.353 108.981 181.345C107.02 175.598 116.433 175.701 120.833 179.657C119.605 176.417 119.861 175.24 121.601 176.144C117.474 169.902 123.17 167.276 129.224 170.346C131.748 168.009 138.45 156.805 135.551 153.156C122.095 155.39 118.412 140.28 131.935 145.618C138.484 140.348 142.696 140.399 144.555 145.754V145.771Z" fill="#5D504B"/>
<path d="M127.603 186.427L130.997 191.509C130.451 191.407 129.855 191.594 129.309 191.509C127.024 196.762 107.429 191.97 107.292 186.427C102.108 184.125 101.29 181.703 107.292 181.345C107.77 179.861 108.333 179.896 108.981 181.345C115.257 183.085 120.867 186.359 127.62 186.427H127.603Z" fill="#A69587"/>
<path d="M153.013 101.721C158.01 103.904 160.841 106.735 161.489 110.197C160.159 110.35 158.027 109.481 158.078 111.067C157.174 113.727 161.131 114.528 161.489 115.279C161.66 115.637 161.421 116.37 161.489 116.967C161.779 119.423 159.784 122.544 161.489 125.426L153.013 122.049C152.587 121.486 151.871 120.889 151.325 120.361C150.421 116.149 148.835 112.294 146.567 108.781L147.931 106.803C145.015 102.523 145.015 100.272 147.931 100.033C149.944 95.4965 153.116 97.0313 153.013 101.721Z" fill="#4F4E58"/>
<path d="M25.9634 177.952C25.4177 178.48 24.8549 179.367 24.2751 179.64C22.2798 180.612 14.6738 183.631 14.1281 179.657L25.9804 177.952H25.9634Z" fill="#A0764F"/>
<path d="M51.3734 166.1C53.4028 160.165 56.7965 161.29 61.5374 169.493C62.4754 166.986 63.7203 167.617 65.2381 171.386C57.8197 172.955 60.4631 176.025 66.6194 176.264C66.8923 176.468 66.3466 177.696 66.6194 177.952C63.2087 181.175 59.4057 181.84 54.7671 181.346C54.102 183.102 56.4554 184.535 56.4554 184.722C56.4896 188.286 54.3067 197.632 51.3734 199.968C51.4587 198.28 51.3564 196.557 51.3734 194.886H46.3085C46.9224 187.996 49.0371 177.611 44.6202 172.87C36.3662 169.698 45.3876 167.447 48.1162 168.095L51.3905 166.1H51.3734Z" fill="#3A271F"/>
<path d="M39.5214 166.099C39.9136 164.633 39.3167 162.603 40.3911 162.689C44.8762 164.036 47.5707 163.592 44.5863 167.771C47.3661 168.453 49.1737 166.833 51.3737 166.099C51.0838 166.884 51.8853 169.05 51.3225 169.425C50.2652 170.141 46.2405 168.692 44.808 169.732C43.9553 170.346 44.8421 172.239 44.6034 172.887C43.222 176.485 44.177 178.088 43.5801 179.691C40.2888 188.542 37.4238 190.026 36.1277 201.69L29.3574 203.379C31.5914 198.007 31.1992 191.629 32.751 186.444C34.7975 179.589 37.6284 173.313 39.5214 166.116V166.099Z" fill="#604333"/>
<path d="M88.653 176.263C90.1026 175.564 90.6142 176.212 90.3413 177.952C98.6294 178.276 104.274 181.09 107.276 186.427C113.364 187.996 123.767 190.571 129.292 191.509C134.954 199.729 124.824 204.743 120.816 210.149C122.743 211.633 122.095 213.475 120.816 215.231C120.936 216.34 120.68 217.516 120.816 218.625C121.345 224.866 115.922 224.832 114.046 218.625C112.972 215.845 107.327 204.965 105.587 202.526C102.33 197.956 97.3674 194.75 92.0296 193.215C91.4157 191.561 87.9026 184.108 86.9476 183.051C80.2967 178.156 81.2688 170.772 88.636 176.28L88.653 176.263Z" fill="#181515"/>
<path d="M83.571 169.476C87.067 166.304 91.9444 172.921 88.653 176.246C82.9571 175.291 85.9756 178.821 86.9647 183.017C85.771 181.703 78.6766 179.009 76.8007 177.935C72.7761 173.313 71.0707 168.794 71.7187 164.377C67.5917 162.006 68.8878 160.079 73.407 160.983C76.7666 160.25 80.1603 163.064 83.571 169.459V169.476Z" fill="#4D3F39"/>
<path d="M71.7015 164.394C72.9464 164.838 81.0299 175.291 76.7835 177.952H75.0952C74.0208 176.622 70.252 175.189 68.3249 172.87C65.3405 173.381 61.5887 167.413 61.7251 165.656C62.1515 159.602 69.4334 159.176 71.7186 164.411L71.7015 164.394Z" fill="#1D1614"/>
<path d="M120.833 218.608C121.14 220.961 122.658 225.02 122.556 226.094C122.453 227.169 119.929 226.998 119.691 227.475C117.559 231.739 118.394 229.13 117.439 230.46C115.802 229.829 116.092 228.379 115.751 227.066C115.069 224.508 114.762 220.415 114.063 218.591C116.519 221.456 119.776 218.522 120.833 218.591V218.608Z" fill="#583E30"/>
<path d="M73.4068 161.017L71.7185 164.411C69.8426 163.763 65.6303 164.854 63.2428 164.411C62.8335 164.701 67.3528 171.71 68.3248 172.869C65.4598 173.227 60.9576 171.522 61.5545 174.541C63.5327 174.404 65.0505 175.12 66.6195 176.246C57.3423 178.327 43.2559 170.55 62.356 171.164C64.7947 170.277 61.5716 169.561 61.5375 169.476C57.4787 167.276 53.454 161.563 58.1438 159.312C56.8818 148.278 74.3107 152.934 73.3898 161L73.4068 161.017Z" fill="#6E574C"/>
<path d="M122.522 62.7537L117.44 54.295C119.674 53.8005 126.734 54.9431 127.586 54.2609C131.492 51.2254 123.187 51.2765 124.21 49.213C127.45 50.2192 132.208 44.7279 134.135 46.1434C134.527 46.4333 134.22 48.3774 134.664 48.6673C135.482 49.1789 137.597 47.4736 139.371 48.2922C141.57 49.3154 142.815 53.1525 145.766 54.0051C146.277 54.1586 155.879 54.4315 156.39 54.278C156.612 55.864 156.066 57.9275 156.39 59.36C156.544 64.5614 149.654 70.0356 150.183 75.4928C150.285 76.5331 160.943 88.9823 163.195 92.0178C164.252 93.4503 166.367 93.2116 166.486 93.348C167.356 94.4394 164.917 94.8317 164.866 94.934C162.819 100.647 153.372 95.0704 154.702 89.852C146.977 86.9188 143.583 82.3995 144.538 76.2943C144.026 74.623 142.867 74.0944 141.144 74.606C140.087 86.9358 119.588 69.8992 122.504 62.7537H122.522Z" fill="#293345"/>
<path d="M98.8168 61.0656C99.2602 60.9632 101.835 58.1153 103.08 57.6719C104.172 62.157 107.582 59.7695 112.374 61.0656C115.649 61.9523 121.549 62.3616 122.538 62.7539C123.289 63.0438 131.969 73.2589 133.743 74.4186C138.33 77.3859 139.439 74.538 141.161 74.6062C143.6 73.7364 145.322 73.5318 144.555 76.2945C148 79.6029 150.677 86.2368 156.39 89.0165L154.736 89.8522C153.133 94.6613 143.634 93.4846 142.884 88.1639C134.698 91.1142 130.179 89.9886 129.326 84.7702C125.335 87.4817 123.835 85.6058 125.932 81.3765C120.782 84.1562 115.888 77.5906 117.456 72.9008C115.853 73.3613 115.291 72.7985 115.768 71.2125C112.92 72.9008 110.277 68.9444 110.686 66.1305C106.218 68.0235 101.426 69.0808 100.522 62.7368C98.0835 64.4081 97.2649 63.5213 98.8338 61.0485L98.8168 61.0656Z" fill="#1B1F2F"/>
<path d="M70.0131 71.2296C70.4395 71.6901 70.3542 75.6465 75.0951 76.3116L74.5153 78.0852C82.8716 79.9611 74.9757 87.874 68.4442 87.3454C69.8426 94.0304 69.2286 99.3853 66.6194 103.427C67.8985 107.639 65.8179 110.214 61.5374 108.509C56.2849 111.016 53.3346 115.825 52.7036 122.919C49.2758 125.665 46.1379 124.403 47.9797 120.361C49.8898 117.53 47.8604 117.923 47.9797 116.968C48.3208 114.393 48.5596 108.543 49.0882 107.23C50.1967 104.45 52.9424 105.286 53.0447 105.081C53.6927 103.922 49.7363 102.506 50.3502 99.9651C51.3052 96.0427 55.4322 95.5993 56.0632 94.6443C56.3361 94.235 54.8865 86.4245 54.7501 84.7702C58.229 80.3533 57.4275 82.6556 59.3205 80.9673C60.9917 79.4836 63.7203 64.4422 69.9961 71.2126L70.0131 71.2296Z" fill="#5B5E6B"/>
<path d="M75.0951 76.3117C76.1354 76.414 78.0795 76.0388 78.4888 76.3117C81.4732 74.4699 84.8498 76.1582 88.6528 81.3937C90.9551 77.0109 94.8263 79.7907 97.1285 83.082C99.3114 85.4354 95.5425 91.5236 92.3876 89.6989C88.2776 86.7145 77.3292 86.3904 76.8005 93.246C77.602 100.613 73.2022 110.453 66.6365 103.41C64.7947 96.401 67.5574 90.5515 61.5545 84.7874L75.0951 83.0479C76.5788 77.3349 70.8658 81.0697 70.0131 78.8186C68.6659 75.2544 73.5603 76.1412 75.1122 76.2947L75.0951 76.3117Z" fill="#4D4D57"/>
<path d="M88.6528 62.7541C93.5642 61.8503 94.6386 67.171 90.3411 69.5244C86.8451 74.47 86.504 68.6547 87.3908 68.74C88.4652 68.8252 90.4434 78.8358 88.6357 81.3938C77.5679 79.1427 82.377 78.904 78.4717 76.3118C76.988 69.8996 83.6049 64.4936 88.6357 62.7541H88.6528Z" fill="#89675D"/>
<path d="M98.8171 61.0654C99.8744 61.0654 100.369 62.7026 100.505 62.7537C106.525 68.5691 100.096 70.462 93.7351 69.5241C92.8312 72.2185 91.3987 72.1674 90.3414 69.5241L88.6531 62.7537C93.5134 61.0825 95.3722 61.867 98.8171 61.0654Z" fill="#A17965"/>
<path d="M32.7339 152.542C33.7741 148.858 30.1587 142.395 33.5695 142.412C37.8158 142.429 38.9926 152.252 44.5862 147.46C50.5379 146.215 50.1627 154.724 44.5862 154.23C39.3677 155.185 37.3554 157.317 34.4222 161C34.0811 161 32.7168 162.927 30.4487 162.637C26.3217 162.126 20.5234 160.71 20.8645 155.918C26.9868 156.651 30.568 160.113 32.7168 152.524L32.7339 152.542Z" fill="#CDA47B"/>
<path d="M54.7671 144.066C55.8756 146.794 55.5856 150.342 53.9314 154.673L56.4724 157.624C57.9561 158.101 57.922 158.664 56.4724 159.312C57.4957 163.848 56.4554 163.967 53.0788 161L48.0138 162.706L47.9797 157.589C44.569 160.284 41.4993 160.113 37.8328 161C33.8763 157.76 40.7148 154.486 44.6031 154.23C46.155 151.893 45.3534 149.83 44.6031 147.46C44.7907 147.289 43.8868 144.015 45.6433 143.912C49.1905 143.691 52.1408 148.551 51.3904 142.378C51.8168 140.894 52.3796 140.928 53.0788 142.378C55.4833 140.195 56.319 141.167 54.7671 144.066Z" fill="#BC946D"/>
<path d="M58.1609 159.312C58.2462 162.671 60.0368 166.559 61.5546 169.476C51.5611 168.657 56.916 164.718 56.4726 164.411C54.8354 163.251 52.6185 165.673 51.3735 166.082C51.9363 164.513 51.834 162.467 53.0618 161C53.4882 160.505 55.5005 159.926 56.4555 159.312C56.8819 157.794 57.4617 157.828 58.1438 159.312H58.1609Z" fill="#4A2F27"/>
<path d="M44.6033 154.23C43.0173 156.617 38.8732 157.709 37.833 161C35.4284 161.58 35.4113 160.949 34.4393 161C32.9215 155.065 39.9988 152.03 44.6033 154.23Z" fill="#E7BE92"/>
<path d="M76.7835 93.2458C81.9849 85.8104 91.7226 100.749 80.7059 103.921C81.2686 106.65 81.2345 108.372 78.4889 110.18C75.2146 114.972 71.4969 119.56 67.3187 123.977C67.3187 131.327 59.5593 140.467 53.0789 142.378C52.5332 142.275 51.9363 142.446 51.3906 142.378L49.7023 138.984C57.9904 134.908 54.4944 129.417 54.7843 123.738C51.0495 121.487 56.0633 107.639 61.5546 108.492C63.3623 106.07 63.6522 105.047 66.6366 103.41C68.9218 102.165 79.461 101.704 70.0303 97.4922C71.1217 96.5201 76.1525 93.314 76.8006 93.2458H76.7835Z" fill="#3E414D"/>
<path d="M47.997 120.361C52.3116 125.051 50.845 120.054 51.5442 118.008C52.5503 115.057 54.972 106.309 57.3254 105.115C58.2633 104.638 57.9223 110.095 61.5547 108.492C58.7749 112.227 55.0061 119.167 54.7844 123.738C51.3054 126.773 44.7568 128.683 44.6886 122.851C44.6886 121.811 47.6048 120.941 47.997 120.344V120.361Z" fill="#4C4D5B"/>
<path d="M124.227 211.837V216.919L120.833 215.231C120.68 213.832 117.627 214.48 120.833 210.149C122.112 209.978 123.749 211.786 124.227 211.837Z" fill="#6B6059"/>
<path d="M134.391 137.295C132.981 141.013 132.981 141.013 134.391 137.295C134.92 130.303 141.093 129.826 146.243 133.902C146.363 136.17 140.087 141.405 144.555 145.754C137.137 142.753 133.47 149.404 125.915 145.754C127.876 153.531 136.062 146.794 138.723 150.802C139.03 151.245 139.149 161.085 139.013 161.614C138.313 164.581 129.684 170.004 132.686 176.212L122.522 171.164C123.613 176.076 125.557 176.809 120.816 179.623C117.73 178.923 114.916 177.235 112.341 174.541C107.088 174.779 96.7364 173.432 98.7829 166.065C92.2683 164.445 92.2683 159.926 98.7829 152.507C101.972 138.694 108.759 137.278 122.505 138.95C126.666 137.415 129.786 136.187 133.538 131.31C138.723 133.305 138.859 134.396 134.374 137.261L134.391 137.295Z" fill="#262125"/>
<path d="M124.227 127.132C132.566 129.724 123.442 136.545 117.456 130.525C117.849 134.004 119.554 136.818 122.538 139.001L107.003 142.599L102.228 147.46L107.292 148.312L98.8339 152.559C98.1517 156.498 96.5998 156.413 95.4402 152.559C94.0247 152.149 94.0588 151.57 95.4402 150.87L93.9395 149.046C99.9424 141.491 101.46 135.539 100.829 126.091C105.382 125.682 109.799 125.477 114.063 125.443C117.098 130.508 119.196 128.615 124.227 127.132Z" fill="#403636"/>
<path d="M130.997 125.443C134.306 127.251 136.915 125.716 139.046 126.688C139.916 127.098 146.226 133.407 146.243 133.919C142.645 133.51 137.273 135.471 134.391 137.313C134.101 136.272 135.209 133.885 133.555 133.936C131.492 135.369 129.599 138.967 127.535 139.905C125.233 140.962 123.869 139.189 122.538 139.018C119.264 138.592 115.802 137.262 112.374 137.313C112.068 137.023 116.348 130.901 117.456 130.559C121.805 132.776 127.501 134.55 127.757 128.018L131.014 125.477L130.997 125.443Z" fill="#5A4847"/>
<path d="M137.768 115.279L139.456 118.673C128.081 113.761 121.703 117.599 114.046 125.443C106.423 125.818 108.896 114.461 115.734 116.968C113.262 108.952 121.805 109.634 127.587 110.197C130.554 107.98 137.853 111.715 137.751 115.279H137.768Z" fill="#C1B7B1"/>
<path d="M130.997 125.443C132.447 135.556 122.3 140.007 117.44 130.525C118.991 130.031 122.675 131.361 124.005 130.286C124.824 129.621 123.954 127.728 124.21 127.132C124.858 125.597 126.512 124.335 125.915 122.049C129.462 120.753 129.889 124.846 130.98 125.443H130.997Z" fill="#191517"/>
<path d="M142.85 161.018C143.344 155.85 140.309 158.749 144.538 150.854C145.493 154.094 146.994 159.875 142.85 161.018Z" fill="#715855"/>
<path d="M125.915 93.2457C132.345 82.4337 145.339 99.2827 147.932 106.803C151.206 111.357 152.161 114.461 151.325 120.361C150.848 119.884 149.825 118.758 149.637 118.673C144.504 115.859 143.464 114.767 142.833 109.549C136.113 102.165 127.092 98.43 115.751 98.3448C114.268 97.8161 114.285 97.2533 115.751 96.6565C115.41 93.007 119.486 91.6086 122.522 93.2628C122.607 88.6242 124.415 88.8629 125.915 93.2628V93.2457Z" fill="#5E5D66"/>
<path d="M115.751 98.328C131.526 96.1792 143.822 104.672 149.637 118.656C149.057 118.383 141.076 116.814 137.785 115.262C134.493 113.71 133.18 112.312 127.621 110.18C121.737 111.783 118.343 110.658 117.457 106.787C113.006 102.131 120.612 100.596 124.227 103.393C127.74 103.529 128.866 102.967 127.621 101.705C121.993 103.325 118.036 102.762 115.768 100.016C114.285 99.5388 114.319 98.976 115.768 98.328H115.751Z" fill="#D8B390"/>
<path d="M142.85 88.1638C146.26 89.2381 151.82 88.9482 154.702 89.8521C157.584 90.7559 161.114 94.8147 164.866 94.9341C164.695 95.3945 165.002 96.0596 164.866 96.6224C163.485 102.097 164.593 101.602 164.866 106.786C160.841 107.486 155.623 104.791 153.014 101.704C151.53 101.073 148.477 100.374 147.932 100.016C141.554 101.534 129.855 84.7871 142.85 88.1638Z" fill="#765850"/>
<path d="M164.883 106.804C164.934 107.929 164.9 109.072 164.883 110.18C163.775 110.334 162.598 110.061 161.506 110.18C157.567 107.878 154.173 106.633 153.031 101.705C155.845 102.898 161.421 101.602 164.883 106.787V106.804Z" fill="#332932"/>
<path d="M112.358 174.558C118.036 173.057 118.991 174.012 120.833 179.64C112.937 184.33 114.08 177.696 113.244 177.935L108.981 181.328H107.293C96.7534 181.107 104.547 170.431 112.375 174.558H112.358Z" fill="#443730"/>
<path d="M98.8169 166.099C104.24 172.17 108.179 169.373 112.375 174.575C111.675 174.762 110.311 176.229 108.981 176.792C107.838 177.286 105.741 176.041 105.604 176.263C104.769 177.593 107.173 180.339 107.293 181.345C107.378 182.113 105.263 184.619 107.293 186.427C101.665 184.978 94.6047 181.789 90.3583 177.951C89.2839 174.131 94.6047 173.671 95.9519 175.786C96.5829 176.792 90.3071 178.77 95.4403 172.869C92.1148 169.203 94.5876 166.543 98.834 166.099H98.8169Z" fill="#645044"/>
<path d="M142.85 88.1643L137.768 88.9999C141.144 90.9099 145.612 98.4988 147.932 100.017V106.787C145.442 103.325 141.588 101.193 138.484 98.4306C137.017 97.1174 136.438 93.9966 135.807 93.5703C135.397 93.2974 127.058 93.161 125.915 93.2292C121.311 89.9378 123.511 81.4622 129.309 84.7535C132.021 85.8961 138.603 86.8 142.867 88.1472L142.85 88.1643Z" fill="#323441"/>
<path d="M83.5711 167.788C81.951 155.765 87.3229 157.965 90.3414 167.788C94.025 165.929 96.9582 168.743 95.4234 172.87C95.3723 173.603 97.6916 176.212 97.1117 177.934H90.3414C89.7445 177.406 89.1818 176.843 88.6531 176.246C87.971 175.513 83.7416 169.851 83.5711 169.476C82.1045 168.913 82.1045 168.35 83.5711 167.788Z" fill="#BFA48B"/>
<path d="M73.407 137.296C78.2844 137.364 82.0362 143.435 78.489 147.46L79.4099 155.048C85.2935 154.145 87.9197 160.454 83.1788 163.626L83.571 167.788C83.7586 168.282 83.3664 169.015 83.571 169.476C78.5914 172.716 78.2503 165.025 73.407 161C72.9807 160.642 64.6244 155.935 64.0957 155.918C60.7703 155.765 59.6447 158.647 58.1611 159.312C57.6665 159.534 56.8479 159.073 56.4727 159.312V157.624C51.6636 156.14 54.9891 146.044 58.1611 144.066C60.5486 138.114 68.5297 131.037 73.407 137.296Z" fill="#141315"/>
<path d="M141.161 74.6232L144.521 72.9178L147.915 66.1646L144.555 76.3115C143.174 74.9984 143.805 74.7084 141.161 74.6232Z" fill="#46495C"/>
<path d="M129.309 84.7871C124.807 85.9638 127.45 90.0737 125.915 93.2628C124.824 93.3139 123.306 93.024 122.521 93.2628C118.667 93.1093 114.728 93.1093 110.669 93.2628C110.243 94.7123 109.68 94.6782 108.981 93.2628C105.28 95.4115 101.324 97.0999 97.1285 98.3448C99.516 100.937 96.8727 104.092 93.7348 103.427C81.5926 108.492 91.0062 87.1917 98.8168 86.4925C101.204 83.5081 107.429 83.2864 110.669 84.8042C113.057 80.0803 121.004 80.8647 125.915 81.4105C127.092 82.3996 129.087 84.7018 129.309 84.8042V84.7871Z" fill="#20212E"/>
<path d="M110.669 66.1476C110.874 69.8994 112.272 71.2296 115.751 71.2296C116.348 71.7583 116.86 72.3893 117.44 72.9179C121.498 80.882 116.979 82.0076 103.882 76.3116C102.228 76.8403 101.665 76.2775 102.194 74.6233C100.829 73.1567 98.2031 72.1505 94.2978 71.6219L93.718 69.5413C97.6744 69.4219 100.181 66.6933 100.488 62.771C103.746 64.1182 106.662 63.8283 110.652 66.1647L110.669 66.1476Z" fill="#7F5D52"/>
<path d="M125.915 81.3932C122.351 86.3388 115.802 84.4288 110.669 84.7869C109.185 84.3094 109.22 83.7466 110.669 83.0986C104.615 81.7002 102.364 79.432 103.899 76.3283C107.872 72.7129 117.644 82.1606 117.456 72.9346C120.594 75.7655 123.272 79.1592 125.932 81.4103L125.915 81.3932Z" fill="#5F4743"/>
<path d="M110.669 66.1475C113.858 68.0063 114.08 69.7969 115.751 71.2295L114.847 72.8837C109.612 74.4526 110.669 69.7458 107.293 67.0001L110.669 66.1645V66.1475Z" fill="#957769"/>
<path d="M76.7837 93.2458C75.1295 87.925 74.9419 85.2817 81.0301 83.0818C82.258 90.2614 92.3026 79.3811 94.5707 88.1808C95.304 88.2832 97.1288 83.5593 97.1117 83.0818C97.504 79.6881 99.1923 79.8416 100.505 83.0818C101.512 84.2244 100.949 85.3499 98.8171 86.4755C96.4637 91.2846 85.9245 105.081 93.7351 103.41C94.4002 107.332 87.6128 115.433 83.5711 113.574C80.041 116.609 78.2162 114.324 78.4891 110.18C76.7326 102.25 75.5559 101.943 83.554 99.1805C82.599 96.8271 79.41 92.9729 76.8008 93.2287L76.7837 93.2458Z" fill="#31333F"/>
<path d="M90.3414 69.5414C91.3305 69.7973 92.746 69.2856 93.7351 69.5414C95.8327 70.0701 101.699 71.2127 102.04 71.4685C102.842 72.0142 101.938 74.2312 102.194 74.6234C100.335 77.352 98.6465 80.1659 97.1117 83.0991C94.9459 82.9286 91.0406 81.8883 88.636 81.4108C84.4238 77.5908 86.8454 72.8158 85.2594 67.8702C87.5275 67.1539 88.9942 69.2174 90.3414 69.5585V69.5414Z" fill="#5D4542"/>
<path d="M78.4889 110.197C80.1943 110.402 82.4454 112.176 83.5709 113.591C84.4406 118.059 82.7523 123.141 78.4889 128.837C81.2175 131.583 78.9323 141.798 73.4069 137.313C71.7015 138.217 66.8242 137.927 64.3514 140.587C62.4414 142.633 63.5328 145.396 63.2259 145.788C63.0553 145.993 59.6275 144.407 58.1609 144.083C57.2571 148.551 56.8819 148.193 54.7672 144.083C54.1021 143.947 53.3688 142.446 53.0789 142.395C53.7099 137.483 61.998 131.634 63.4134 128.138C64.4196 125.682 63.1406 123.84 63.6863 122.527C63.8739 122.084 68.359 119.389 69.297 118.23C70.6272 116.592 70.0303 109.208 78.4889 110.214V110.197Z" fill="#1A1C26"/>
<path d="M58.161 144.066L56.4727 157.624C46.7862 159.329 52.4992 149.949 54.7844 144.066C55.8076 144.27 57.1548 143.844 58.1781 144.066H58.161Z" fill="#8C674C"/>
<path d="M98.8171 152.542C99.107 152.695 103.916 156.464 103.916 156.788C103.967 160.557 100.301 163.115 99.6527 157.572C91.6886 160.574 95.5939 162.484 98.8 166.082C90.4437 175.257 87.6981 154.588 95.4063 152.525C96.4125 152.746 98.169 152.201 98.8 152.525L98.8171 152.542Z" fill="#655145"/>
<path d="M117.423 166.082L109.8 159.312L107.293 162.689C103.285 157.47 109.527 154.452 114.012 156.669C117.388 158.323 117.832 162.757 117.423 166.082Z" fill="#473E40"/>
<path d="M134.391 137.295C134.766 138.643 136.181 141.303 135.329 142.394C131.713 146.931 124.329 143.656 134.391 137.295Z" fill="#4F4346"/>
<path d="M100.505 118.656C99.0386 116.388 104.308 108.202 106.679 107.81C111.761 106.974 121.26 111.886 115.751 116.95C113.074 120.225 111.692 121.47 114.063 125.426C109.288 130.321 114.677 133.032 102.211 127.132L107.275 135.573L102.211 133.885C105.707 140.843 98.9021 144.901 95.4232 150.819C93.7178 157.555 88.1924 151.16 92.0295 147.425C90.921 143.878 90.0683 138.933 95.6108 138.08C93.4449 138.182 93.9395 137.347 97.1115 135.573C93.0527 132.589 94.11 127.763 100.318 121.077L100.505 118.622V118.656Z" fill="#655145"/>
<path d="M92.0294 147.46C92.2511 147.766 91.6031 149.301 92.4899 150.41C93.155 151.245 95.2014 150.649 95.4231 150.853C95.4913 150.904 95.5255 152.149 95.4231 152.542C94.127 157.589 87.3908 166.526 98.8168 166.099C99.4819 168.725 95.5425 171.471 95.4231 172.87C93.2232 171.676 91.9783 169.544 90.3411 167.787C85.6684 163.558 82.9057 142.105 92.0294 147.46Z" fill="#856F5E"/>
<path d="M117.439 106.803C122.743 107.69 123.306 108.543 127.603 110.197C122.317 113.283 119.98 111.8 115.751 116.967C110.277 104.978 105.468 111.066 100.505 118.655C101.068 120.941 99.2431 123.635 97.1114 122.049C90.8015 120.531 98.578 106.155 102.193 103.938C107.429 100.732 113.858 103.188 117.439 106.803Z" fill="#C2956C"/>
<path d="M115.751 96.6396C115.581 96.7419 115.853 97.7822 115.751 98.3279V100.016C115.001 103.41 112.085 104.211 106.951 102.438C99.0897 106.735 92.6093 113.642 87.5443 123.124L83.5708 123.738C82.2236 128.121 80.5353 129.809 78.4888 128.82C77.926 125.87 82.036 115.518 83.5708 113.574C86.6405 109.686 89.2156 110.641 93.7348 103.41C94.8433 101.636 96.02 100.05 97.1285 98.3279C100.812 96.0598 104.769 94.3715 108.981 93.2459C109.561 93.3483 110.209 93.0924 110.669 93.2459C115.188 91.37 117.388 91.3871 115.751 96.6396Z" fill="#575457"/>
<path d="M122.522 93.2459C122.3 93.3141 120.936 95.5311 119.401 96.4861C118.326 97.1512 116.246 96.3497 115.734 96.6396C114.216 95.7016 112.204 93.7405 110.652 93.2459C115.461 90.1933 121.686 84.395 122.504 93.2459H122.522Z" fill="#323441"/>
<path d="M115.751 100.033C121.499 100.102 122.607 100.443 127.604 101.722C128.78 103.802 127.655 104.382 124.21 103.41C121.84 104.28 118.958 103.87 117.44 106.804C116.741 106.684 114.916 107.895 113.279 107.708C110.721 107.418 108.316 103.069 103.848 105.883C102.109 106.974 97.3164 118.861 97.1288 122.05C98.2203 129.11 90.9725 138.95 83.5712 138.984C73.7994 147.801 79.0008 129.263 83.5712 123.738C84.9696 118.997 98.0668 102.779 102.228 100.903C105.946 99.2319 111.59 99.9652 115.751 100.033Z" fill="#E4B98B"/>
<path d="M127.603 101.722C135.022 103.615 141.519 105.099 142.849 113.557L124.21 103.41C125.08 103.086 126.171 101.62 127.603 101.722Z" fill="#C59C73"/>
<path d="M97.1117 135.607L96.6513 137.739C91.9786 138.813 90.4267 142.053 92.0297 147.477C82.3944 153.411 90.4437 149.08 90.4267 151.791C90.4096 156.123 87.9709 161.87 90.3414 167.805C86.3167 163.507 83.3323 157.999 83.5711 167.805C81.968 163.763 82.2921 159.329 81.5076 157.965C80.1262 155.577 75.2659 157.504 78.4891 147.477L81.5929 147.187C80.3138 143.247 80.9619 140.519 83.5711 139.001C85.8392 136.562 88.6872 134.396 90.9212 131.975C94.0421 128.581 95.2699 125.102 97.1288 122.067C97.3846 121.64 99.3628 120.429 100.522 118.673L102.228 119.56C99.6868 125.767 95.7645 128.837 97.1288 135.624L97.1117 135.607Z" fill="#B09477"/>
<path d="M83.5707 123.738C82.9909 125.716 80.3476 137.398 80.3646 138.267C80.3988 139.666 83.2297 138.626 83.5707 138.984C84.4234 139.853 87.152 156.941 80.1941 154.23C80.9104 151.143 79.5972 149.762 78.4887 147.442C76.8686 144.083 74.8051 140.791 73.4067 137.278C78.4376 134.601 76.8004 131.548 78.4887 128.803C79.222 127.592 82.6839 125.631 83.5707 123.721V123.738Z" fill="#CDB9A3"/>
<path d="M108.981 93.2459C107.003 97.6116 101.699 97.8845 97.9132 99.8116L97.1287 98.3279C98.0667 96.8783 99.7038 91.7281 101.358 91.7452C101.989 91.7452 103.268 94.235 104.752 94.2862C105.928 94.3203 105.639 92.7002 108.981 93.2459Z" fill="#323441"/>
<path d="M110.669 83.0818V84.7701C107.48 84.9918 105.127 83.5423 105.57 88.1468C101.989 86.7143 106.167 83.2353 98.817 86.4755C99.3798 85.35 99.9596 84.2244 100.505 83.0818C102.944 78.1021 106.747 80.3021 110.669 83.0818Z" fill="#4D4D57"/>
<path d="M102.194 74.6229C102.654 75.3221 103.336 75.7484 103.882 76.3112C106.218 78.7328 108.862 81.001 112.358 81.4273L110.669 83.0815C107.293 82.9792 103.882 83.235 100.505 83.0815C99.3798 83.0304 98.2372 83.1668 97.1117 83.0815C96.9411 78.1018 92.1832 76.9933 90.3414 72.9346L102.194 74.6058V74.6229Z" fill="#1D1920"/>
<path d="M97.1116 135.607C98.4929 142.497 95.7132 138.25 93.9396 141.03C92.9164 142.633 97.1798 144.287 92.0296 147.476C91.3986 146.607 88.9429 146.027 88.653 144.577C87.2887 137.739 92.0125 137.5 97.1116 135.624V135.607Z" fill="#937962"/>
</g>
</g>
<defs>
<clipPath id="clip0_6304_27506">
<rect width="240" height="240" fill="white"/>
</clipPath>
</defs>
</svg>
