<svg width="32" height="32" viewBox="0 0 32 32" fill="none" xmlns="http://www.w3.org/2000/svg">
<g clip-path="url(#clip0_1182_300343)">
<g clip-path="url(#clip1_1182_300343)">
<path d="M13 29C20.1797 29 26 23.1797 26 16C26 8.8203 20.1797 3 13 3C5.8203 3 0 8.8203 0 16C0 23.1797 5.8203 29 13 29Z" fill="#FF0000"/>
<path fill-rule="evenodd" clip-rule="evenodd" d="M19.4055 10.043C19.5315 9.91707 19.5315 9.72034 19.4055 9.59443C19.2795 9.46852 19.0827 9.46852 18.9567 9.59443L13.311 15.2367V9.86985C13.311 9.69673 13.1693 9.55508 12.9961 9.55508C12.8228 9.55508 12.6811 9.69673 12.6811 9.86985V15.2839L8.97244 11.5775C8.84646 11.4516 8.64961 11.4516 8.52362 11.5775C8.39764 11.7034 8.39764 11.9001 8.52362 12.026L12.2323 15.7324H6.82283C6.64961 15.7324 6.50787 15.8741 6.50787 16.0472C6.50787 16.2203 6.64961 16.362 6.82283 16.362H12.1929L6.59449 21.957C6.4685 22.0829 6.4685 22.2797 6.59449 22.4056C6.72047 22.5315 6.91732 22.5315 7.04331 22.4056L12.689 16.7633V22.1301C12.689 22.3033 12.8307 22.4449 13.0039 22.4449C13.1772 22.4449 13.3189 22.3033 13.3189 22.1301V16.8027L17.0276 20.5091C17.1535 20.635 17.3504 20.635 17.4764 20.5091C17.6024 20.3832 17.6024 20.1864 17.4764 20.0605L13.7677 16.3541H19.185C19.3583 16.3541 19.5 16.2125 19.5 16.0393C19.5 15.8662 19.3583 15.7246 19.185 15.7246H13.7205L19.4055 10.043Z" fill="white"/>
</g>
<path fill-rule="evenodd" clip-rule="evenodd" d="M32 25C32 24.0838 31.8177 23.1677 31.4672 22.3212C31.1166 21.4748 30.5976 20.6981 29.9497 20.0503C29.3019 19.4024 28.5252 18.8834 27.6788 18.5328C26.8323 18.1823 25.9162 18 25 18C24.0838 18 23.1677 18.1823 22.3212 18.5328C21.4748 18.8834 20.6981 19.4024 20.0503 20.0503C19.4024 20.6981 18.8834 21.4748 18.5328 22.3212C18.1823 23.1677 18 24.0838 18 25C18 25.9162 18.1823 26.8323 18.5328 27.6788C18.8834 28.5252 19.4024 29.3019 20.0503 29.9497C20.6981 30.5976 21.4748 31.1166 22.3212 31.4672C23.1677 31.8177 24.0838 32 25 32C25.9162 32 26.8323 31.8177 27.6788 31.4672C28.5252 31.1166 29.3019 30.5976 29.9497 29.9497C30.5976 29.3019 31.1166 28.5252 31.4672 27.6788C31.8177 26.8323 32 25.9162 32 25Z" fill="#54AE94"/>
<path fill-rule="evenodd" clip-rule="evenodd" d="M21.9459 21.5H25.1748H28.4037V23.0611H26.0322V23.941L26.0394 23.9413C27.0095 23.9855 27.8596 24.1019 28.4779 24.2679C28.7871 24.3508 29.0382 24.445 29.2237 24.5573C29.3164 24.6133 29.3935 24.6739 29.4519 24.7463C29.5103 24.8187 29.5498 24.9073 29.5498 25.0019C29.5498 25.0965 29.5103 25.1851 29.4519 25.2576C29.3935 25.3299 29.3164 25.3905 29.2237 25.4466C29.0382 25.5588 28.7871 25.653 28.478 25.736C27.8596 25.9019 27.0095 26.0183 26.0394 26.0626L26.0327 26.0628V29.2H25.1748H24.3169V26.0628L24.3102 26.0626C23.3401 26.0183 22.49 25.9019 21.8716 25.736C21.5625 25.653 21.3114 25.5588 21.1259 25.4466C21.0332 25.3905 20.9561 25.3299 20.8977 25.2576C20.8393 25.1851 20.7998 25.0965 20.7998 25.0019C20.7998 24.9073 20.8393 24.8187 20.8977 24.7463C20.9561 24.6739 21.0332 24.6133 21.1259 24.5573C21.3114 24.445 21.5625 24.3508 21.8717 24.2679C22.49 24.1019 23.3401 23.9855 24.3102 23.9413L24.3175 23.941V23.0611H21.9459V21.5ZM24.3202 25.5581L25.1748 25.577L26.0294 25.5581C26.875 25.5209 27.6134 25.4289 28.1347 25.3045C28.3955 25.2423 28.6022 25.1713 28.7369 25.0993C28.8044 25.0634 28.8534 25.0268 28.8821 24.9954C28.9108 24.9639 28.9187 24.9412 28.9187 24.9217C28.9187 24.9023 28.9108 24.8796 28.8821 24.8481C28.8534 24.8166 28.8044 24.7801 28.7371 24.7442C28.6024 24.6722 28.3956 24.6012 28.135 24.539C27.6144 24.4148 26.8774 24.323 26.033 24.2856V25.1643L26.0161 25.1658C25.9942 25.1678 25.9166 25.1744 25.7766 25.1803C25.7066 25.1832 25.621 25.1861 25.5192 25.1881C25.4683 25.1891 25.4134 25.1899 25.3541 25.1905C25.3246 25.1908 25.294 25.191 25.2622 25.1912H25.1748H25.0874C25.0556 25.191 25.0251 25.1908 24.9955 25.1905C24.9362 25.1899 24.8813 25.1891 24.8304 25.1881C24.7286 25.1861 24.643 25.1832 24.573 25.1803C24.433 25.1744 24.3554 25.1678 24.3335 25.1658L24.3166 25.1643V24.2856C23.4722 24.323 22.7352 24.4148 22.2146 24.539C21.954 24.6012 21.7472 24.6722 21.6125 24.7442C21.5452 24.7801 21.4963 24.8166 21.4675 24.8481C21.4388 24.8796 21.4309 24.9023 21.4309 24.9217C21.4309 24.9412 21.4388 24.9639 21.4675 24.9954C21.4963 25.0268 21.5452 25.0634 21.6127 25.0993C21.7474 25.1713 21.9541 25.2423 22.2149 25.3045C22.7362 25.4289 23.4746 25.5209 24.3202 25.5581Z" fill="white"/>
<path fill-rule="evenodd" clip-rule="evenodd" d="M32 7C32 6.08384 31.8177 5.16768 31.4672 4.32124C31.1166 3.4748 30.5976 2.69808 29.9497 2.0503C29.3019 1.40238 28.5252 0.8834 27.6788 0.53284C26.8323 0.18228 25.9162 0 25 0C24.0838 0 23.1677 0.18228 22.3212 0.53284C21.4748 0.8834 20.6981 1.40238 20.0503 2.0503C19.4024 2.69808 18.8834 3.4748 18.5328 4.32124C18.1823 5.16768 18 6.08384 18 7C18 7.91616 18.1823 8.83232 18.5328 9.67876C18.8834 10.5252 19.4024 11.3019 20.0503 11.9497C20.6981 12.5976 21.4748 13.1166 22.3212 13.4672C23.1677 13.8177 24.0838 14 25 14C25.9162 14 26.8323 13.8177 27.6788 13.4672C28.5252 13.1166 29.3019 12.5976 29.9497 11.9497C30.5976 11.3019 31.1166 10.5252 31.4672 9.67876C31.8177 8.83232 32 7.91616 32 7Z" fill="#2775CA"/>
<path fill-rule="evenodd" clip-rule="evenodd" d="M23.7182 11.8493C23.7182 12.0203 23.5992 12.0773 23.4265 12.0773C21.2659 11.3857 19.75 9.4213 19.75 7.11102C19.75 4.80075 21.2659 2.83631 23.4265 2.14477C23.5997 2.08932 23.7182 2.20174 23.7182 2.37667V2.77934C23.7182 2.89716 23.6568 3.0111 23.5416 3.06807C21.8492 3.70265 20.6825 5.26441 20.6825 7.11102C20.6825 8.96152 21.9068 10.5764 23.5416 11.154C23.6568 11.2109 23.7182 11.3288 23.7182 11.4427V11.8493ZM25.4682 10.4054C25.4682 10.5194 25.3492 10.6333 25.2341 10.6333H24.7659C24.6509 10.6333 24.5319 10.5194 24.5319 10.4054V9.70999C23.5992 9.59605 23.1349 9.07542 22.9584 8.32316C22.9584 8.20908 23.0159 8.09514 23.1349 8.09514H23.6569C23.7759 8.09514 23.8334 8.15211 23.8909 8.26605C24.0099 8.67275 24.2401 9.01845 25 9.01845C25.5834 9.01845 25.9901 8.72972 25.9901 8.26605C25.9901 7.80641 25.7599 7.63162 24.9425 7.51754C23.7176 7.34677 23.1349 6.99704 23.1349 6.01289C23.1349 5.26437 23.7182 4.68677 24.5319 4.56894V3.8774C24.5319 3.76346 24.6509 3.64564 24.7659 3.64564H25.2341C25.3492 3.64564 25.4682 3.76346 25.4682 3.8774V4.56894C26.1666 4.68677 26.6349 5.08958 26.75 5.72415C26.75 5.84197 26.6925 5.95591 26.5735 5.95591H26.1091C25.9901 5.95591 25.9326 5.89894 25.875 5.78487C25.7599 5.37831 25.4682 5.2074 24.9425 5.2074C24.3591 5.2074 24.0675 5.49613 24.0675 5.89894C24.0675 6.30162 24.2401 6.53338 25.1151 6.6512C26.344 6.81671 26.9266 7.16795 26.9266 8.15211C26.9266 8.90063 26.3432 9.53908 25.4682 9.70999V10.4054ZM26.2818 11.8492C26.2818 12.0203 26.4008 12.1381 26.5735 12.0772C28.7341 11.3857 30.25 9.42126 30.25 7.11098C30.25 4.8007 28.6765 2.83627 26.5735 2.14472C26.4008 2.14472 26.2818 2.20169 26.2818 2.37662V2.7793C26.2818 2.89712 26.3432 3.01106 26.4584 3.06803C28.0932 3.64563 29.3175 5.26437 29.3175 7.11098C29.3175 8.96147 28.1508 10.5194 26.4584 11.1539C26.3432 11.2109 26.2818 11.3287 26.2818 11.4427V11.8492Z" fill="white"/>
</g>
<defs>
<clipPath id="clip0_1182_300343">
<rect width="32" height="32" fill="white"/>
</clipPath>
<clipPath id="clip1_1182_300343">
<rect width="26" height="26" fill="white" transform="translate(0 3)"/>
</clipPath>
</defs>
</svg>
