<svg width="32" height="32" viewBox="0 0 32 32" fill="none" xmlns="http://www.w3.org/2000/svg">
<path d="M0 16C0 7.16344 7.16344 0 16 0C24.8366 0 32 7.16344 32 16C32 24.8366 24.8366 32 16 32C7.16344 32 0 24.8366 0 16Z" fill="white"/>
<path fill-rule="evenodd" clip-rule="evenodd" d="M11.855 3.38356C13.3455 2.89364 14.9385 2.66964 16.5164 2.73012C18.0946 2.7906 19.6582 3.13588 21.1132 3.74388C22.5686 4.35188 23.9154 5.22292 25.0678 6.29748C26.5919 7.71924 27.7753 9.49748 28.485 11.4866C29.1951 13.476 29.4316 15.6764 29.1577 17.7711C28.8841 19.8658 28.1001 21.8552 26.9142 23.566C25.7282 25.2767 24.1401 26.7084 22.2748 27.7004C20.4095 28.692 18.2665 29.2437 16.1542 29.2757C14.0418 29.3077 11.9599 28.8204 10.0953 27.8949C8.23095 26.9695 6.58359 25.6063 5.33271 23.9036C4.08183 22.2008 3.22743 20.1586 2.88823 18.0748C2.54903 15.9906 2.72503 13.8645 3.37495 11.8812C3.86615 10.3816 4.62839 8.96404 5.60503 7.73556H4.12055V5.2818H9.93719V10.7135H7.48343V9.22932C6.68343 10.2354 6.05879 11.3967 5.65655 12.6255C5.12439 14.2511 4.98103 15.9951 5.25655 17.6968C5.59895 19.8136 6.58903 21.8648 8.06679 23.4456C9.83447 25.3362 12.2998 26.5541 14.8662 26.8207C17.4322 27.0872 20.0994 26.4028 22.2175 24.9285C24.3356 23.4543 25.9052 21.1903 26.5423 18.6898C27.1794 16.1893 26.8841 13.4524 25.7353 11.142C24.5865 8.83156 22.5839 6.94836 20.1894 5.95892C17.7948 4.96916 15.0079 4.87381 12.6041 5.66356L11.855 3.38356Z" fill="url(#paint0_linear_428_255608)"/>
<path d="M14.5192 7.61338C15.337 6.79554 16.663 6.79554 17.4808 7.61338L24.3866 14.5192C25.2045 15.337 25.2045 16.663 24.3866 17.4808L17.4808 24.3866C16.663 25.2045 15.337 25.2045 14.5192 24.3866L7.61338 17.4808C6.79554 16.663 6.79554 15.337 7.61338 14.5192L14.5192 7.61338Z" fill="white"/>
<path fill-rule="evenodd" clip-rule="evenodd" d="M17.0566 8.03764L23.9624 14.9434C24.5459 15.527 24.5459 16.473 23.9624 17.0566L17.0566 23.9624C16.4731 24.5459 15.527 24.5459 14.9435 23.9624L8.03765 17.0566C7.45412 16.473 7.45412 15.527 8.03764 14.9434L14.9435 8.03764C15.527 7.45412 16.4731 7.45412 17.0566 8.03764ZM14.5192 7.61338C15.337 6.79554 16.663 6.79554 17.4809 7.61338L24.3867 14.5192C25.2045 15.337 25.2045 16.663 24.3867 17.4808L17.4809 24.3866C16.663 25.2045 15.337 25.2045 14.5192 24.3866L7.61338 17.4808C6.79554 16.663 6.79554 15.337 7.61338 14.5192L14.5192 7.61338ZM19.3 16.0676L15.9998 10.3L12.7 16.0672L15.9998 18.1179L19.3 16.0676ZM12.7 16.7446L15.9998 21.7L19.3 16.7446L15.9998 18.8171L12.7 16.7446Z" fill="black"/>
<defs>
<linearGradient id="paint0_linear_428_255608" x1="2.04365" y1="13.297" x2="15.2224" y2="29.5763" gradientUnits="userSpaceOnUse">
<stop stop-color="#004CFF"/>
<stop offset="0.252131" stop-color="#00E0FB"/>
<stop offset="0.505709" stop-color="#87FF70"/>
<stop offset="0.755054" stop-color="#F8F500"/>
<stop offset="1" stop-color="#FF1A00"/>
</linearGradient>
</defs>
</svg>
