<svg viewBox="0 0 400 400" fill="none" xmlns="http://www.w3.org/2000/svg">
	<circle cx="200" cy="200" r="200" fill="#1B293F" />
	<path fill="#E7C585" d="M341.51 318.08 319.79 296.36C317.16 309.96 305.23 320.24 290.89 320.33L314.76 344.2C283.27 369.3 243.39 384.29 199.99 384.29 156.59 384.29 116.54 369.23 85.02 344.03L108.74 320.31C94.45 320.04 82.64 309.66 80.15 296.02L58.32 317.85C31.7 285.9 15.68 244.8 15.68 199.96 15.68 155.12 30.68 116.68 55.78 85.19L79.67 109.08C79.77 94.74 90.06 82.82 103.66 80.19L81.92 58.45C113.9 31.73 155.08 15.65 200.01 15.65 244.94 15.65 285.94 31.67 317.9 58.28L296.05 80.13C309.69 82.61 320.07 94.42 320.35 108.71L344.07 84.98C369.26 116.5 384.33 156.47 384.33 199.95 384.33 243.43 368.25 286.06 341.52 318.04V318.06L341.51 318.08Z" />
	<g fill="#1B293F">
		<path d="M262.7 185.5C263.2 171.1 254.6 157.7 240.7 151.3L238.4 150.3C229.6 146.3 219.9 144.2 210.1 144.2H159.6C157 144.2 154.5 145.1 152.6 146.9 150.7 148.6 149.7 150.9 149.7 153.4L150.4 251.2C150.4 255.4 154.2 258.9 158.8 258.9H179.5C183.1 258.9 186.1 256.2 186.1 252.9L186.8 223.5H200.2L223.6 256.8C224.5 258.1 226.1 258.9 227.8 258.9H251.5C255.1 258.9 258.4 256.5 258.9 252.9 259.1 251.2 258.6 249.6 257.7 248.2L237.4 218.4 238.2 218.1C252.6 212.6 262.1 199.9 262.6 185.5L262.7 185.5H262.7ZM225.5 186.2C226 201 209 197 186.9 196.8L187.3 171.5C214 171 225 171 225.5 186.2Z" />
		<path d="M280.7 228.9C280.7 225.6 283.6 222.9 287.2 222.9H304.2C308.2 222.9 311.5 226 311.5 229.7V245.7C311.5 248.9 308.7 251.5 305.2 251.5H286.8C283.4 251.5 280.7 249 280.7 245.9V229L280.7 228.9H280.7Z" />
		<path d="M311.7 111.6V196.6C311.7 198.2 310.4 199.5 308.7 199.5H283C281.3 199.5 280 198.2 280 196.6V119.7H120.2V280.4H309.4C310.6 280.4 311.5 281.3 311.5 282.5 311.5 289.9 308.5 296.6 303.6 301.5 298.6 306.4 291.8 309.4 284.3 309.4H110.7C98.3 309.4 88.3 299.4 88.3 287.1V111.2C88.5 99.9 97.8 90.6 109.3 90.6H291C302.5 91 311.7 100.2 311.7 111.6Z" />
	</g>
</svg>
