<?xml version="1.0" standalone="no"?>
<!DOCTYPE svg PUBLIC "-//W3C//DTD SVG 20010904//EN"
 "http://www.w3.org/TR/2001/REC-SVG-20010904/DTD/svg10.dtd">
<svg version="1.0" xmlns="http://www.w3.org/2000/svg"
 width="1000.000000pt" height="1000.000000pt" viewBox="0 0 1000.000000 1000.000000"
 preserveAspectRatio="xMidYMid meet">

<g transform="translate(0.000000,1000.000000) scale(0.100000,-0.100000)"
fill="#000000" stroke="none">
<path d="M4795 9729 c-334 -13 -679 -64 -1005 -150 -1557 -412 -2804 -1595
-3298 -3129 -153 -476 -223 -929 -223 -1450 0 -521 70 -974 223 -1450 467
-1450 1608 -2591 3058 -3058 476 -153 929 -223 1450 -223 521 0 974 70 1450
223 1450 467 2591 1608 3058 3058 153 476 223 929 223 1450 0 521 -70 974
-223 1450 -589 1827 -2234 3127 -4138 3269 -193 15 -369 18 -575 10z m95
-1937 l0 -908 -77 -11 c-122 -18 -248 -59 -368 -118 -387 -192 -651 -571 -694
-996 -5 -50 -13 -94 -17 -99 -11 -11 -947 -400 -952 -396 -1 2 108 184 243
404 135 220 245 404 245 408 0 5 -238 248 -530 539 -291 291 -530 534 -530
540 0 5 143 153 317 327 l318 318 461 -461 461 -461 559 911 c307 501 560 911
561 911 2 0 3 -409 3 -908z m791 -6 l554 -905 460 460 460 459 323 -322 322
-323 -537 -537 -536 -536 251 -409 c137 -224 249 -409 248 -411 -2 -1 -218 87
-482 197 l-479 199 -11 103 c-64 565 -482 1012 -1036 1107 l-98 17 0 902 c0
497 2 903 4 903 2 0 252 -407 557 -904z m-476 -1406 c201 -62 337 -216 352
-398 l6 -72 -150 0 -150 0 -6 35 c-14 88 -83 141 -200 155 -166 20 -317 -47
-317 -141 0 -67 56 -101 306 -184 260 -86 375 -150 453 -252 82 -106 95 -270
32 -398 -86 -174 -275 -274 -519 -275 -242 0 -432 100 -517 274 -19 39 -40 95
-45 125 -18 99 -31 91 145 91 l155 0 0 -29 c0 -35 35 -89 77 -117 66 -44 208
-54 314 -23 56 17 129 86 129 122 0 66 -79 113 -330 196 -218 73 -310 120
-391 200 -85 85 -112 149 -112 271 -1 103 22 169 87 251 72 92 202 164 340
189 83 15 261 4 341 -20z m-1425 -1047 c100 -421 421 -767 835 -902 50 -16
126 -34 170 -41 44 -7 86 -14 93 -16 9 -3 12 -78 12 -334 l0 -331 -24 13 c-63
34 -2105 1274 -2106 1278 0 6 993 420 998 415 2 -1 11 -38 22 -82z m2969 -121
c480 -200 501 -210 479 -224 -13 -8 -482 -293 -1043 -633 -561 -340 -1030
-625 -1042 -633 l-23 -14 0 334 0 334 83 11 c301 41 611 228 802 482 109 144
209 364 230 504 4 26 8 47 10 47 1 0 228 -94 504 -208z m-2872 -1554 l1012
-613 1 -849 c0 -467 -2 -847 -4 -845 -1 2 -180 254 -396 559 -217 305 -411
579 -433 609 l-39 53 -454 -453 -454 -454 -320 320 -320 320 507 507 c490 490
507 509 494 530 -14 22 -588 834 -660 932 l-36 50 45 -27 c25 -15 500 -302
1057 -639z m2993 161 l-350 -494 507 -507 508 -508 -323 -322 -322 -323 -453
453 -452 452 -420 -591 c-231 -325 -425 -599 -432 -608 -10 -13 -12 163 -13
830 l0 845 1048 635 c576 350 1048 635 1050 634 2 -2 -155 -225 -348 -496z"/>
</g>
</svg>
