<svg width="32" height="32" viewBox="0 0 32 32" fill="none" xmlns="http://www.w3.org/2000/svg">
<path d="M0 16C0 7.16344 7.16344 0 16 0V0C24.8366 0 32 7.16344 32 16V16C32 24.8366 24.8366 32 16 32V32C7.16344 32 0 24.8366 0 16V16Z" fill="white"/>
<g clip-path="url(#clip0_144_599394)">
<g clip-path="url(#clip1_144_599394)">
<path d="M27 16C27 22.0751 22.0751 27 16 27C9.92487 27 5 22.0751 5 16C5 9.92487 9.92487 5 16 5C22.0751 5 27 9.92487 27 16Z" fill="white"/>
<path fill-rule="evenodd" clip-rule="evenodd" d="M13.25 9.125V11.1875C12.5 11.1875 11.1875 12.1022 11.1875 13.25C11.1875 14.3978 12.5 15.3125 13.25 15.3125V17.375C11.875 17.1359 9.125 16.1196 9.125 13.25C9.125 10.3804 11.875 9.24457 13.25 9.125ZM19.4375 17.375H17.375V22.875H22.875V20.8125H19.4375V17.375ZM22.7713 11.2709L21.3129 9.8125L10.3901 20.7354L11.8485 22.1938L22.7713 11.2709Z" fill="black"/>
</g>
</g>
<path fill-rule="evenodd" clip-rule="evenodd" d="M11.855 3.38356C13.3455 2.89364 14.9385 2.66964 16.5164 2.73012C18.0946 2.7906 19.6582 3.13588 21.1132 3.74388C22.5686 4.35188 23.9154 5.22292 25.0678 6.29748C26.5919 7.71924 27.7753 9.49748 28.485 11.4866C29.1951 13.476 29.4316 15.6764 29.1577 17.7711C28.8841 19.8658 28.1001 21.8552 26.9142 23.566C25.7282 25.2767 24.1401 26.7084 22.2748 27.7004C20.4095 28.692 18.2665 29.2437 16.1542 29.2757C14.0418 29.3077 11.9599 28.8204 10.0953 27.8949C8.23095 26.9695 6.58359 25.6063 5.33271 23.9036C4.08183 22.2008 3.22743 20.1586 2.88823 18.0748C2.54903 15.9906 2.72503 13.8645 3.37495 11.8812C3.86615 10.3816 4.62839 8.96404 5.60503 7.73556H4.12055V5.2818H9.93719V10.7135H7.48343V9.22932C6.68343 10.2354 6.05879 11.3967 5.65655 12.6255C5.12439 14.2511 4.98103 15.9951 5.25655 17.6968C5.59895 19.8136 6.58903 21.8648 8.06679 23.4456C9.83447 25.3362 12.2998 26.5541 14.8662 26.8207C17.4322 27.0872 20.0994 26.4028 22.2175 24.9285C24.3356 23.4543 25.9052 21.1903 26.5423 18.6898C27.1794 16.1893 26.8841 13.4524 25.7353 11.142C24.5865 8.83156 22.5839 6.94836 20.1894 5.95892C17.7948 4.96916 15.0079 4.8738 12.6041 5.66356L11.855 3.38356Z" fill="url(#paint0_linear_144_599394)"/>
<path fill-rule="evenodd" clip-rule="evenodd" d="M32 25C32 24.0838 31.8177 23.1677 31.4672 22.3212C31.1166 21.4748 30.5976 20.6981 29.9497 20.0503C29.3019 19.4024 28.5252 18.8834 27.6788 18.5328C26.8323 18.1823 25.9162 18 25 18C24.0838 18 23.1677 18.1823 22.3212 18.5328C21.4748 18.8834 20.6981 19.4024 20.0503 20.0503C19.4024 20.6981 18.8834 21.4748 18.5328 22.3212C18.1823 23.1677 18 24.0838 18 25C18 25.9162 18.1823 26.8323 18.5328 27.6788C18.8834 28.5252 19.4024 29.3019 20.0503 29.9497C20.6981 30.5976 21.4748 31.1166 22.3212 31.4672C23.1677 31.8177 24.0838 32 25 32C25.9162 32 26.8323 31.8177 27.6788 31.4672C28.5252 31.1166 29.3019 30.5976 29.9497 29.9497C30.5976 29.3019 31.1166 28.5252 31.4672 27.6788C31.8177 26.8323 32 25.9162 32 25Z" fill="white"/>
<path fill-rule="evenodd" clip-rule="evenodd" d="M21.9375 24.8746L24.9988 19.75L28.0608 24.8746L24.9988 26.7003L21.9375 24.8746ZM24.9988 29.8125L21.9375 25.4605L24.9988 27.2852L28.0625 25.4605L24.9988 29.8125Z" fill="black"/>
<defs>
<linearGradient id="paint0_linear_144_599394" x1="2.04365" y1="13.297" x2="15.2224" y2="29.5763" gradientUnits="userSpaceOnUse">
<stop stop-color="#004CFF"/>
<stop offset="0.252131" stop-color="#00E0FB"/>
<stop offset="0.505709" stop-color="#87FF70"/>
<stop offset="0.755054" stop-color="#F8F500"/>
<stop offset="1" stop-color="#FF1A00"/>
</linearGradient>
<clipPath id="clip0_144_599394">
<rect width="22" height="22" fill="white" transform="translate(5 5)"/>
</clipPath>
<clipPath id="clip1_144_599394">
<rect width="22" height="22" fill="white" transform="translate(5 5)"/>
</clipPath>
</defs>
</svg>
