<svg xmlns="http://www.w3.org/2000/svg" viewBox="0 0 600 600" fill="none">
	<g clip-path="url(#clip0_7863_57676)">
		<path d="M300 600.014C465.684 600.014 600 465.698 600 300.014C600 134.328 465.684 0.0136719 300 0.0136719C134.315 0.0136719 0 134.328 0 300.014C0 465.698 134.315 600.014 300 600.014Z" fill="url(#paint0_radial_7863_57676)" />
		<path d="M347.902 193.05H323.586V229.749H347.902V193.05Z" fill="#1682FE" />
		<path d="M278.116 125H253.8V161.699H278.116V125Z" fill="#1682FE" />
		<path d="M208.33 159.997H184.015V196.696H208.33V159.997Z" fill="#60D8A4" />
		<path d="M173.559 299.5H149V404.249H173.559V299.5Z" fill="#F4BB3B" />
		<path d="M173.559 194.751H149V299.5H173.559V194.751Z" fill="#60D8A4" />
		<path d="M382.673 228.047H358.357V264.746H382.673V228.047Z" fill="#1682FE" />
		<path d="M382.673 334.254H358.357V370.953H382.673V334.254Z" fill="#FF5A5A" />
		<path d="M347.902 369.251H323.586V405.95H347.902V369.251Z" fill="#FF5A5A" />
		<path d="M278.116 437.302H253.8V474H278.116V437.302Z" fill="#FF5A5A" />
		<path d="M208.33 402.304H184.015V439.003H208.33V402.304Z" fill="#F4BB3B" />
		<path d="M451 264.503V194.751H415.986V159.997H346.2V125H276.414V159.997H206.628V194.994H171.613V404.249H206.628V439.246H276.414V474.243H346.2V439.246H415.986V404.249H451V334.254H381.214V369.251H346.2V404.249H276.414V369.251H241.642V229.749H276.657V194.751H346.443V229.749H381.457V264.746H451V264.503Z" fill="#3A3A3A" />
	</g>
    <g transform="matrix(1.2,0,0,1.2,-30,-30)">
        <path d="M329.13 417.575C329.13 367.077 370.067 326.14 420.565 326.14V326.14C471.063 326.14 512 367.077 512 417.575V420.565C512 471.063 471.063 512 420.565 512V512C370.067 512 329.13 471.063 329.13 420.565V417.575Z" fill="#3D8FCB" style="fill:#3D8FCB;fill:color(display-p3 0.2392 0.5608 0.7961);fill-opacity:1;"/>
        <path d="M416.469 345.401C415.929 345.896 415.403 346.402 414.853 346.881C406.53 354.161 398.204 361.441 389.874 368.719C382.659 375.026 375.447 381.333 368.236 387.64C368.097 387.768 368.001 387.937 367.961 388.122C367.121 392.629 366.288 397.136 365.462 401.645C364.5 406.871 363.539 412.101 362.579 417.334C361.6 422.68 360.619 428.026 359.635 433.37C358.763 438.135 357.885 442.901 357.001 447.667C356.522 450.293 356.043 452.907 355.565 455.51L355.5 455.809C355.14 455.152 354.845 454.601 354.518 454.063C354.4 453.878 354.32 453.671 354.283 453.455C354.246 453.239 354.252 453.017 354.302 452.803C355.297 447.487 356.278 442.169 357.247 436.849C358.176 431.786 359.104 426.724 360.031 421.662C360.988 416.458 361.945 411.253 362.9 406.049L365.285 393.064C366.051 388.881 366.814 384.695 367.575 380.506C367.629 380.306 367.743 380.127 367.902 379.994C373.237 375.328 378.572 370.665 383.907 366.005L401.377 350.733C402.876 349.421 404.368 348.108 405.876 346.796C406.06 346.629 406.286 346.515 406.53 346.467C409.557 345.919 412.617 345.574 415.69 345.434C415.801 345.42 415.91 345.398 416.018 345.368L416.469 345.401Z" fill="white" style="fill:white;fill-opacity:1;"/>
        <path d="M404.833 491.462C403.099 491.029 401.418 490.599 399.729 490.192C399.455 490.123 399.419 490.005 399.464 489.752C401.061 481.096 402.652 472.44 404.238 463.783C404.784 460.794 405.327 457.804 405.893 454.821C405.952 454.599 406.079 454.4 406.256 454.254C410.4 450.611 414.557 446.974 418.728 443.343L435.413 428.767C442.665 422.423 449.917 416.078 457.169 409.734L484.546 385.806C484.604 385.753 484.667 385.711 484.765 385.639C484.843 385.77 484.918 385.881 484.981 386.003C486.461 388.986 487.749 392.061 488.835 395.211C488.891 395.33 488.902 395.467 488.865 395.594C488.827 395.721 488.744 395.83 488.632 395.9C478.653 404.611 468.679 413.327 458.71 422.05L433.348 444.226C425.555 451.038 417.762 457.853 409.97 464.672C409.827 464.798 409.727 464.966 409.685 465.151C408.961 469.039 408.244 472.928 407.535 476.82L405.062 490.307C404.984 490.658 404.918 491.029 404.833 491.462Z" fill="white" style="fill:white;fill-opacity:1;"/>
        <path d="M413.916 492.669L407.733 491.98C407.87 491.216 407.994 490.526 408.122 489.834C409.103 484.474 410.085 479.115 411.066 473.755C411.462 471.592 411.855 469.427 412.267 467.264C412.314 467.041 412.428 466.839 412.594 466.683C422.344 458.152 432.097 449.62 441.855 441.088L489.791 399.171C489.84 399.128 489.892 399.095 489.994 399.017C490.206 399.821 490.422 400.585 490.612 401.353C491.386 404.495 491.961 407.683 492.333 410.899C492.371 411.08 492.358 411.269 492.294 411.443C492.231 411.617 492.119 411.77 491.973 411.883C484.315 418.56 476.659 425.253 469.003 431.962L421.352 473.637C419.874 474.93 418.392 476.216 416.923 477.519C416.775 477.657 416.673 477.838 416.631 478.037C415.759 482.776 414.887 487.515 414.014 492.256C413.991 492.341 413.962 492.453 413.916 492.669Z" fill="white" style="fill:white;fill-opacity:1;"/>
        <path d="M395.964 489.059L391.269 487.317C391.521 485.926 391.763 484.587 392.008 483.248L394.423 470.122C395.435 464.622 396.447 459.123 397.459 453.623C398.141 449.904 398.827 446.185 399.517 442.466C399.558 442.267 399.66 442.086 399.808 441.948C406.68 435.927 413.557 429.911 420.438 423.9L477.227 374.238C477.286 374.186 477.348 374.136 477.449 374.054C479.413 376.594 481.207 379.263 482.818 382.041L423.35 434.026C416.709 439.834 410.065 445.638 403.42 451.438C402.987 451.785 402.699 452.281 402.608 452.829C401.489 459.044 400.351 465.254 399.193 471.458C398.211 476.802 397.23 482.149 396.248 487.497C396.163 487.996 396.068 488.498 395.964 489.059Z" fill="white" style="fill:white;fill-opacity:1;"/>
        <path d="M492.648 414.647C492.687 415.72 492.733 416.685 492.756 417.649C492.836 421.465 492.617 425.281 492.102 429.062C492.033 429.594 491.961 430.125 491.859 430.654C491.819 430.827 491.727 430.984 491.594 431.103C487.913 434.332 484.228 437.556 480.54 440.774L443.181 473.441C436.756 479.041 430.339 484.647 423.931 490.258C423.714 490.443 423.574 490.703 423.539 490.986C423.444 491.567 423.329 492.142 423.212 492.772H416.23C416.505 491.262 416.766 489.818 417.035 488.355C417.571 485.432 418.117 482.509 418.671 479.587C418.708 479.4 418.801 479.229 418.939 479.098C425.685 473.191 432.433 467.285 439.183 461.378L492.105 415.132L492.648 414.647Z" fill="white" style="fill:white;fill-opacity:1;"/>
        <path d="M387.263 485.542C385.991 484.86 384.747 484.197 383.514 483.517C383.465 483.468 383.427 483.408 383.404 483.342C383.382 483.276 383.374 483.206 383.383 483.137C383.926 480.118 384.486 477.105 385.039 474.093L387.656 459.753C388.578 454.722 389.503 449.685 390.43 444.642C391.303 439.829 392.184 435.024 393.074 430.227C393.106 429.944 393.241 429.683 393.453 429.495C399.527 424.196 405.599 418.891 411.669 413.58L468 364.365L468.327 364.089L474.543 370.373L474.105 370.777L418.438 419.441C411.023 425.927 403.599 432.412 396.169 438.896C395.933 439.099 395.78 439.382 395.74 439.69C394.235 447.936 392.724 456.18 391.206 464.423L387.342 485.352C387.32 485.417 387.294 485.48 387.263 485.542Z" fill="white" style="fill:white;fill-opacity:1;"/>
        <path d="M457.197 355.833L464.101 360.578L443.712 378.406C436.933 384.33 430.152 390.26 423.369 396.195L404.6 412.602C399.455 417.1 394.312 421.599 389.171 426.099C388.984 426.269 388.853 426.492 388.795 426.739C387.938 431.333 387.092 435.927 386.256 440.521L383.38 456.173C382.456 461.238 381.529 466.3 380.6 471.36L378.941 480.403C378.914 480.508 378.881 480.611 378.843 480.712C377.789 479.967 376.762 479.248 375.745 478.513C375.703 478.463 375.674 478.405 375.658 478.342C375.642 478.279 375.64 478.213 375.653 478.149C376.209 475.056 376.772 471.964 377.341 468.872C378.037 465.083 378.733 461.296 379.428 457.509C380.255 453.013 381.082 448.519 381.908 444.025C382.781 439.258 383.653 434.492 384.526 429.725C385.265 425.691 386.006 421.659 386.75 417.629C386.804 417.431 386.918 417.254 387.077 417.124C391.003 413.672 394.944 410.225 398.901 406.784L456.609 356.351L457.197 355.833Z" fill="white" style="fill:white;fill-opacity:1;"/>
        <path d="M424.95 492.577C424.94 492.328 424.988 492.08 425.089 491.853C425.19 491.625 425.342 491.424 425.533 491.265C433.869 483.995 442.197 476.719 450.518 469.436L490.87 434.164L491.325 433.78C491.148 434.597 490.997 435.306 490.84 436.008C488.91 444.235 485.575 452.064 480.983 459.149C480.835 459.38 480.655 459.588 480.45 459.769C472.463 466.77 464.472 473.757 456.479 480.731C454.712 482.273 452.946 483.814 451.179 485.351C450.919 485.588 450.629 485.788 450.315 485.945C444.301 488.777 437.922 490.749 431.363 491.806C429.354 492.134 427.322 492.325 425.301 492.574C425.184 492.582 425.067 492.583 424.95 492.577Z" fill="white" style="fill:white;fill-opacity:1;"/>
        <path d="M451.394 352.761L387.085 408.992C385.429 410.44 383.775 411.889 382.122 413.34C381.989 413.459 381.897 413.616 381.857 413.789C380.443 421.446 379.034 429.097 377.63 436.743C376.059 445.299 374.49 453.852 372.922 462.404C372.202 466.322 371.485 470.239 370.769 474.155C370.751 474.244 370.728 474.333 370.701 474.421C370.602 474.348 370.521 474.299 370.452 474.237C369.798 473.653 369.202 473.039 368.538 472.491C368.378 472.366 368.261 472.194 368.203 472C368.144 471.806 368.147 471.598 368.211 471.405C369.663 463.573 371.105 455.74 372.536 447.906C373.831 440.862 375.128 433.817 376.426 426.771C377.455 421.153 378.484 415.535 379.511 409.917C379.796 408.358 380.08 406.8 380.378 405.244C380.415 405.083 380.501 404.936 380.623 404.824C388.789 397.677 396.958 390.535 405.131 383.396L426.887 364.364C432.425 359.525 437.962 354.682 443.5 349.837C443.581 349.747 443.688 349.686 443.806 349.663C443.923 349.639 444.046 349.654 444.154 349.706C446.619 350.597 449.036 351.616 451.394 352.761Z" fill="white" style="fill:white;fill-opacity:1;"/>
        <path d="M362.859 466.418C362.205 465.604 361.626 464.872 361.06 464.121C360.981 463.975 360.96 463.805 361.001 463.645C361.42 461.312 361.852 458.979 362.28 456.649C363.109 452.153 363.935 447.658 364.757 443.162C365.603 438.538 366.452 433.913 367.302 429.288L369.628 416.615C370.453 412.133 371.278 407.648 372.105 403.161C372.716 399.83 373.324 396.491 373.931 393.146C373.978 392.8 374.151 392.483 374.418 392.257C381.873 385.753 389.324 379.244 396.773 372.729L413.533 358.074C418.094 354.088 422.654 350.099 427.215 346.107C427.296 346.017 427.399 345.948 427.513 345.907C427.627 345.865 427.749 345.853 427.869 345.87C430.506 346.336 433.143 346.797 435.78 347.252C435.843 347.267 435.905 347.289 435.963 347.318C435.855 347.419 435.767 347.511 435.675 347.593L390.328 387.246C385.333 391.622 380.335 395.986 375.334 400.339C375.074 400.555 374.903 400.858 374.853 401.192C373.78 407.099 372.698 412.998 371.608 418.889C370.548 424.669 369.492 430.449 368.441 436.229C367.15 443.275 365.853 450.32 364.551 457.364C364.017 460.263 363.485 463.162 362.958 466.06C362.935 466.152 362.905 466.234 362.859 466.418Z" fill="white" style="fill:white;fill-opacity:1;"/>
        <path d="M348.911 440.583C348.673 439.898 348.492 439.194 348.368 438.48C348.312 437.938 348.505 437.371 348.607 436.816C349.673 430.995 350.742 425.172 351.813 419.349C352.847 413.735 353.879 408.12 354.911 402.502C355.943 396.884 356.978 391.242 358.016 385.576C358.594 382.406 359.177 379.234 359.766 376.06C359.816 375.823 359.917 375.599 360.06 375.404C366.608 366.476 375.076 359.141 384.836 353.943C384.964 353.874 385.095 353.812 385.222 353.749C385.256 353.747 385.29 353.747 385.324 353.749C385.141 353.913 384.997 354.054 384.833 354.189C377.01 361.03 369.186 367.869 361.363 374.708C361.151 374.879 361.01 375.122 360.967 375.391C359.761 382.012 358.545 388.633 357.319 395.253C356.093 401.873 354.88 408.499 353.681 415.132C352.518 421.476 351.353 427.814 350.184 434.145C349.806 436.193 349.431 438.24 349.058 440.288C349.038 440.386 349.009 440.485 348.986 440.58L348.911 440.583Z" fill="white" style="fill:white;fill-opacity:1;"/>
        <path d="M455.088 483.403C462.691 476.759 470.293 470.113 477.894 463.465C471.804 471.673 464.026 478.473 455.088 483.403Z" fill="white" style="fill:white;fill-opacity:1;"/>
    </g>
	<defs>
		<radialGradient id="paint0_radial_7863_57676" cx="0" cy="0" r="1" gradientUnits="userSpaceOnUse" gradientTransform="translate(196 143.514) rotate(54.1676) scale(497.082 497.082)">
			<stop offset="0.230743" stop-color="white" />
			<stop offset="1" stop-color="#DFDFDF" />
		</radialGradient>
		<clipPath id="clip0_7863_57676">
			<rect width="600" height="600" fill="white" />
		</clipPath>
	</defs>
</svg>