<svg width="32" height="32" viewBox="0 0 32 32" fill="none" xmlns="http://www.w3.org/2000/svg">
<path d="M0 16C0 7.16344 7.16344 0 16 0C24.8366 0 32 7.16344 32 16C32 24.8366 24.8366 32 16 32C7.16344 32 0 24.8366 0 16Z" fill="white"/>
<path fill-rule="evenodd" clip-rule="evenodd" d="M25 16C25 14.8221 24.7656 13.6442 24.3149 12.5559C23.8642 11.4676 23.1969 10.469 22.3639 9.6361C21.531 8.80306 20.5324 8.1358 19.4441 7.68508C18.3558 7.23436 17.1779 7 16 7C14.8221 7 13.6442 7.23436 12.5559 7.68508C11.4676 8.1358 10.469 8.80306 9.6361 9.6361C8.80306 10.469 8.1358 11.4676 7.68508 12.5559C7.23436 13.6442 7 14.8221 7 16C7 17.1779 7.23436 18.3558 7.68508 19.4441C8.1358 20.5324 8.80306 21.531 9.6361 22.3639C10.469 23.1969 11.4676 23.8642 12.5559 24.3149C13.6442 24.7656 14.8221 25 16 25C17.1779 25 18.3558 24.7656 19.4441 24.3149C20.5324 23.8642 21.531 23.1969 22.3639 22.3639C23.1969 21.531 23.8642 20.5324 24.3149 19.4441C24.7656 18.3558 25 17.1779 25 16Z" fill="white"/>
<path fill-rule="evenodd" clip-rule="evenodd" d="M11.5 10.8162L12.2147 10.0331C12.6078 9.6024 12.9325 9.25 12.9364 9.25C12.9402 9.25 13.6279 9.99721 14.4647 10.9105C15.3015 11.8237 15.9945 12.5709 16.0046 12.5709C16.0148 12.5709 16.7067 11.824 17.5424 10.911L19.0617 9.25113L19.7808 10.0383L20.5 10.8254L18.7602 12.7313L17.0205 14.6372V16.4155V17.9395L16.0042 18.5703L14.988 17.9395V16.4155V14.6372L13.244 12.7267L11.5 10.8162ZM16.0029 11.6567C16.2855 11.3518 16.567 11.0458 16.8481 10.7394L16.005 9.25L15.1601 10.7428C15.4404 11.0481 15.7211 11.353 16.0029 11.6567ZM17.6246 14.9034L18.6003 13.8346L19.8971 16.1255L17.6246 17.5557V14.9034ZM14.3809 17.5528V14.9034L13.4083 13.8379L12.1136 16.1255L14.3809 17.5528ZM12.1136 16.911L16.005 22.75L19.8993 16.911L16.005 19.3591L12.1136 16.911Z" fill="black"/>
<path fill-rule="evenodd" clip-rule="evenodd" d="M11.855 3.38381C13.3455 2.89389 14.9385 2.66989 16.5164 2.73037C18.0946 2.79085 19.6582 3.13613 21.1132 3.74413C22.5686 4.35213 23.9154 5.22317 25.0678 6.29773C26.5919 7.71949 27.7753 9.49773 28.485 11.4868C29.1951 13.4763 29.4316 15.6766 29.1577 17.7713C28.8841 19.866 28.1001 21.8555 26.9142 23.5662C25.7282 25.2769 24.1401 26.7086 22.2748 27.7006C20.4095 28.6923 18.2665 29.244 16.1542 29.276C14.0418 29.308 11.9599 28.8206 10.0953 27.8952C8.23095 26.9697 6.58359 25.6065 5.33271 23.9038C4.08183 22.2011 3.22743 20.1588 2.88823 18.075C2.54903 15.9908 2.72503 13.8648 3.37495 11.8814C3.86615 10.3819 4.62839 8.96429 5.60503 7.73581H4.12055V5.28205H9.93719V10.7137H7.48343V9.22957C6.68343 10.2356 6.05879 11.3969 5.65655 12.6257C5.12439 14.2513 4.98103 15.9953 5.25655 17.6971C5.59895 19.8139 6.58903 21.8651 8.06679 23.4459C9.83447 25.3364 12.2998 26.5544 14.8662 26.8209C17.4322 27.0875 20.0994 26.403 22.2175 24.9288C24.3356 23.4545 25.9052 21.1905 26.5423 18.69C27.1794 16.1896 26.8841 13.4526 25.7353 11.1422C24.5865 8.83181 22.5839 6.94861 20.1894 5.95917C17.7948 4.96941 15.0079 4.87405 12.6041 5.66381L11.855 3.38381Z" fill="url(#paint0_linear_664_290728)"/>
<defs>
<linearGradient id="paint0_linear_664_290728" x1="2.04365" y1="13.2972" x2="15.2224" y2="29.5766" gradientUnits="userSpaceOnUse">
<stop stop-color="#004CFF"/>
<stop offset="0.252131" stop-color="#00E0FB"/>
<stop offset="0.505709" stop-color="#87FF70"/>
<stop offset="0.755054" stop-color="#F8F500"/>
<stop offset="1" stop-color="#FF1A00"/>
</linearGradient>
</defs>
</svg>
