<svg width="32" height="32" viewBox="0 0 32 32" fill="none" xmlns="http://www.w3.org/2000/svg">
<g clip-path="url(#clip0_701_292086)">
<path d="M27 13.5C27 20.9558 20.9558 27 13.5 27C6.04416 27 0 20.9558 0 13.5C0 6.04416 6.04416 0 13.5 0C20.9558 0 27 6.04416 27 13.5Z" fill="white"/>
<path fill-rule="evenodd" clip-rule="evenodd" d="M4.08496 3.82172C4.09676 3.81016 4.10867 3.79871 4.12058 3.78726L4.49863 4.23446L4.08496 3.82172Z" fill="url(#paint0_linear_701_292086)"/>
<path fill-rule="evenodd" clip-rule="evenodd" d="M0.500687 9.83799C0.507511 9.81381 0.514336 9.78964 0.521276 9.76547L1.9988 11.2395L1.00083 12.2353L1.68534 11.2392L0.500687 9.83799ZM1.24801 9.99263L2.24794 10.6778L4.24434 8.99918L2.24841 10.9906L1.24801 9.99263ZM3.24927 12.5065L2.24933 11.8213L0.25293 13.5L2.24898 11.5086L3.24927 12.5065ZM2.81193 11.2404L3.49645 10.2444L2.49848 11.2401L4.49904 13.2362L2.81193 11.2404Z" fill="url(#paint1_linear_701_292086)"/>
<path fill-rule="evenodd" clip-rule="evenodd" d="M1.87253 20.3672C1.76161 20.1799 1.65508 19.9896 1.55317 19.7965L1.99884 20.2412L1.87253 20.3672ZM2.18807 20.8746C2.14805 20.8133 2.10849 20.7515 2.06939 20.6895L2.24902 20.5102L3.24931 21.5082L2.24937 20.823L2.18807 20.8746ZM1.24805 18.9943L2.24798 19.6795L4.24438 18.0008L2.24845 19.9923L1.24805 18.9943ZM2.81197 20.2421L3.49649 19.2461L2.49852 20.2417L4.49908 22.2378L2.81197 20.2421Z" fill="url(#paint2_linear_701_292086)"/>
<path fill-rule="evenodd" clip-rule="evenodd" d="M6.74878 6.17701L5.74883 5.49182L6.74914 6.48983L8.74517 4.49838L6.74878 6.17701ZM6.7501 7.32056L7.75004 8.00575L6.74974 7.00774L4.75371 8.99919L6.7501 7.32056ZM7.99723 5.74361L7.31276 6.7397L8.99983 8.73537L6.99922 6.73934L7.99723 5.74361ZM6.1861 6.73841L5.50162 7.73449L6.49964 6.73877L4.49902 4.74274L6.1861 6.73841Z" fill="url(#paint3_linear_701_292086)"/>
<path fill-rule="evenodd" clip-rule="evenodd" d="M6.74878 15.1786L5.74883 14.4934L6.74914 15.4915L8.74517 13.5L6.74878 15.1786ZM6.7501 16.3222L7.75004 17.0074L6.74974 16.0094L4.75371 18.0008L6.7501 16.3222ZM7.99723 14.7452L7.31276 15.7413L8.99983 17.737L6.99922 15.741L7.99723 14.7452ZM6.1861 15.74L5.50162 16.7361L6.49964 15.7404L4.49902 13.7444L6.1861 15.74Z" fill="url(#paint4_linear_701_292086)"/>
<path fill-rule="evenodd" clip-rule="evenodd" d="M6.31036 24.9308C6.25125 24.8936 6.19238 24.8558 6.13385 24.8176L6.18613 24.7416L4.49902 22.746L6.49959 24.742L6.31036 24.9308ZM7.16826 25.4286C6.98724 25.3323 6.80865 25.232 6.63272 25.1278L6.74978 25.011L7.16826 25.4286ZM8.36991 25.9935C8.30225 25.9657 8.23493 25.9374 8.16784 25.9085L6.99927 24.7425L7.99724 23.7469L7.31272 24.7429L8.36991 25.9935ZM5.7488 23.4951L6.74873 24.1803L8.74514 22.5016L6.7492 24.493L5.7488 23.4951Z" fill="url(#paint5_linear_701_292086)"/>
<path fill-rule="evenodd" clip-rule="evenodd" d="M9.34366 0.649351C9.35974 0.644146 9.37593 0.638941 9.39201 0.633852L10.9998 2.23791L10.0018 3.23368L10.6863 2.23757L9.34366 0.649351ZM13.2429 0L11.2494 1.989L10.249 0.991029L11.2489 1.67624L13.2429 0ZM12.2502 3.50492L11.2503 2.81971L9.25391 4.49838L11.25 2.50695L12.2502 3.50492ZM11.8129 2.23884L12.4974 1.24284L11.4995 2.23849L13.5 4.23455L11.8129 2.23884Z" fill="url(#paint6_linear_701_292086)"/>
<path fill-rule="evenodd" clip-rule="evenodd" d="M11.2488 10.6778L10.2488 9.99261L11.2491 10.9906L13.2452 8.99918L11.2488 10.6778ZM11.2501 11.8214L12.25 12.5065L11.2497 11.5085L9.25371 13.5L11.2501 11.8214ZM12.4972 10.2444L11.8128 11.2405L13.4998 13.2362L11.4992 11.2401L12.4972 10.2444ZM10.6861 11.2392L10.0016 12.2353L10.9996 11.2396L8.99902 9.24353L10.6861 11.2392Z" fill="url(#paint7_linear_701_292086)"/>
<path fill-rule="evenodd" clip-rule="evenodd" d="M11.2488 19.6795L10.2488 18.9943L11.2491 19.9923L13.2452 18.0008L11.2488 19.6795ZM11.2501 20.823L12.25 21.5082L11.2497 20.5102L9.25371 22.5016L11.2501 20.823ZM12.4972 19.2461L11.8128 20.2421L13.4998 22.2378L11.4992 20.2418L12.4972 19.2461ZM10.6861 20.2408L10.0016 21.2369L10.9996 20.2412L8.99902 18.2452L10.6861 20.2408Z" fill="url(#paint8_linear_701_292086)"/>
<path fill-rule="evenodd" clip-rule="evenodd" d="M15.7498 6.17701L14.7498 5.49182L15.7501 6.48983L17.7461 4.49838L15.7498 6.17701ZM15.7511 7.32056L16.751 8.00575L15.7507 7.00774L13.7547 8.99919L15.7511 7.32056ZM16.9982 5.74361L16.3137 6.7397L18.0008 8.73537L16.0002 6.73934L16.9982 5.74361ZM15.1871 6.73841L14.5026 7.73449L15.5006 6.73877L13.5 4.74274L15.1871 6.73841Z" fill="url(#paint9_linear_701_292086)"/>
<path fill-rule="evenodd" clip-rule="evenodd" d="M15.7498 15.1786L14.7498 14.4934L15.7501 15.4915L17.7461 13.5L15.7498 15.1786ZM15.7511 16.3222L16.751 17.0074L15.7507 16.0094L13.7547 18.0008L15.7511 16.3222ZM16.9982 14.7452L16.3137 15.7413L18.0008 17.737L16.0002 15.741L16.9982 14.7452ZM15.1871 15.74L14.5026 16.7361L15.5006 15.7404L13.5 13.7444L15.1871 15.74Z" fill="url(#paint10_linear_701_292086)"/>
<path fill-rule="evenodd" clip-rule="evenodd" d="M17.6693 26.3465C17.6538 26.3515 17.6383 26.3564 17.6228 26.3614L16.0002 24.7425L16.9982 23.7469L16.3137 24.7429L17.6693 26.3465ZM13.7571 27L15.7508 25.011L16.751 26.009L15.7511 25.3238L13.7571 27ZM14.7498 23.4951L15.7497 24.1803L17.7461 22.5016L15.7502 24.493L14.7498 23.4951ZM14.5026 25.7377L15.1871 24.7416L13.5 22.746L15.5006 24.742L14.5026 25.7377Z" fill="url(#paint11_linear_701_292086)"/>
<path fill-rule="evenodd" clip-rule="evenodd" d="M20.6787 2.0617C20.7388 2.0994 20.7984 2.13769 20.8579 2.17632L20.8149 2.2389L22.502 4.2346L20.5014 2.23855L20.6787 2.0617ZM19.8329 1.57162C20.0139 1.66785 20.1925 1.76825 20.3684 1.87235L20.2513 1.98906L19.8329 1.57162ZM18.6563 1.017C18.727 1.04626 18.7975 1.07599 18.8676 1.10641L20.0017 2.23797L19.0038 3.23374L19.6883 2.23763L18.6563 1.017ZM21.2522 3.50498L20.2523 2.81977L18.2559 4.49844L20.2519 2.50701L21.2522 3.50498Z" fill="url(#paint12_linear_701_292086)"/>
<path fill-rule="evenodd" clip-rule="evenodd" d="M20.2507 10.6778L19.2508 9.99261L20.2511 10.9906L22.2471 8.99918L20.2507 10.6778ZM20.2521 11.8214L21.252 12.5065L20.2517 11.5085L18.2557 13.5L20.2521 11.8214ZM21.4992 10.2444L20.8147 11.2405L22.5018 13.2362L20.5012 11.2401L21.4992 10.2444ZM19.6881 11.2392L19.0036 12.2353L20.0016 11.2396L18.001 9.24353L19.6881 11.2392Z" fill="url(#paint13_linear_701_292086)"/>
<path fill-rule="evenodd" clip-rule="evenodd" d="M20.2507 19.6795L19.2508 18.9943L20.2511 19.9923L22.2471 18.0008L20.2507 19.6795ZM20.2521 20.823L21.252 21.5082L20.2517 20.5102L18.2557 22.5016L20.2521 20.823ZM21.4992 19.2461L20.8147 20.2421L22.5018 22.2378L20.5012 20.2418L21.4992 19.2461ZM19.6881 20.2408L19.0036 21.2369L20.0016 20.2412L18.001 18.2452L19.6881 20.2408Z" fill="url(#paint14_linear_701_292086)"/>
<path fill-rule="evenodd" clip-rule="evenodd" d="M25.1212 6.62046C25.2268 6.79836 25.3284 6.97891 25.4259 7.16201L25.0022 6.73925L25.1212 6.62046ZM24.813 6.12541C24.8531 6.18672 24.8927 6.2486 24.9318 6.31059L24.7521 6.48976L23.7517 5.49179L24.7517 6.177L24.813 6.12541ZM25.753 8.00569L24.7531 7.32048L22.7567 8.99914L24.7527 7.00772L25.753 8.00569ZM23.5045 7.73445L24.1891 6.73833L22.502 4.74274L24.5025 6.73868L23.5045 7.73445Z" fill="url(#paint15_linear_701_292086)"/>
<path fill-rule="evenodd" clip-rule="evenodd" d="M26.484 17.2194L25.0022 15.7409L26.0002 14.7453L25.3157 15.7413L26.5044 17.1474C26.4976 17.1715 26.4908 17.1954 26.484 17.2194ZM23.7517 14.4935L24.7517 15.1787L26.7481 13.5L24.7521 15.4914L23.7517 14.4935ZM25.753 17.0074L24.7531 16.3221L22.7567 18.0008L24.7527 16.0094L25.753 17.0074ZM23.5045 16.7361L24.1891 15.74L22.502 13.7444L24.5025 15.7403L23.5045 16.7361Z" fill="url(#paint16_linear_701_292086)"/>
<path fill-rule="evenodd" clip-rule="evenodd" d="M22.9254 23.1685C22.9133 23.1803 22.9012 23.192 22.889 23.2038L22.502 22.746L22.9254 23.1685Z" fill="url(#paint17_linear_701_292086)"/>
<path fill-rule="evenodd" clip-rule="evenodd" d="M6.63158 1.8724C6.80728 1.76842 6.98552 1.66825 7.16619 1.57213L6.74841 1.98899L6.63158 1.8724ZM6.13665 2.17996C6.19807 2.13994 6.25983 2.10049 6.32194 2.0614L6.4988 2.23791L5.50083 3.23368L6.18534 2.23756L6.13665 2.17996ZM7.74927 3.50492L6.74933 2.81971L4.75293 4.49837L6.74898 2.50695L7.74927 3.50492ZM7.31193 2.23883L7.99645 1.24283L6.99848 2.23848L8.99904 4.23454L7.31193 2.23883Z" fill="url(#paint18_linear_701_292086)"/>
<path fill-rule="evenodd" clip-rule="evenodd" d="M6.74878 10.6778L5.74883 9.99261L6.74914 10.9906L8.74517 8.99918L6.74878 10.6778ZM6.7501 11.8214L7.75004 12.5065L6.74974 11.5085L4.75371 13.5L6.7501 11.8214ZM7.99723 10.2444L7.31276 11.2405L8.99983 13.2362L6.99922 11.2401L7.99723 10.2444ZM6.1861 11.2392L5.50162 12.2353L6.49964 11.2396L4.49902 9.24353L6.1861 11.2392Z" fill="url(#paint19_linear_701_292086)"/>
<path fill-rule="evenodd" clip-rule="evenodd" d="M6.74878 19.6795L5.74883 18.9943L6.74914 19.9923L8.74517 18.0008L6.74878 19.6795ZM6.7501 20.823L7.75004 21.5082L6.74974 20.5102L4.75371 22.5016L6.7501 20.823ZM7.99723 19.2461L7.31276 20.2421L8.99983 22.2378L6.99922 20.2418L7.99723 19.2461ZM6.1861 20.2408L5.50162 21.2369L6.49964 20.2412L4.49902 18.2452L6.1861 20.2408Z" fill="url(#paint20_linear_701_292086)"/>
<path fill-rule="evenodd" clip-rule="evenodd" d="M2.06904 6.31087C2.10663 6.25119 2.14468 6.19185 2.1832 6.13275L2.24786 6.17705L4.24426 4.49838L2.24832 6.48981L2.06904 6.31087ZM1.57572 7.16079C1.67311 6.97804 1.77455 6.79783 1.87992 6.62017L1.99871 6.73872L1.57572 7.16079ZM1.00977 8.36268C1.03799 8.29409 1.06679 8.22596 1.09605 8.15795L2.2489 7.00776L3.24918 8.00573L2.24925 7.32053L1.00977 8.36268ZM2.81185 6.73965L3.49636 5.74365L2.49839 6.7393L4.49896 8.73536L2.81185 6.73965Z" fill="url(#paint21_linear_701_292086)"/>
<path fill-rule="evenodd" clip-rule="evenodd" d="M0.652243 17.6647C0.647153 17.6488 0.642064 17.633 0.636975 17.6171L2.24855 16.0094L3.24884 17.0074L2.2489 16.3221L0.652243 17.6647ZM0 13.7466L1.99837 15.7403L1.0004 16.7361L1.68491 15.74L0 13.7466ZM1.24758 14.4935L2.24751 15.1787L4.24391 13.5L2.24798 15.4914L1.24758 14.4935ZM2.8115 15.7413L3.49602 14.7453L2.49805 15.7409L4.49861 17.737L2.8115 15.7413Z" fill="url(#paint22_linear_701_292086)"/>
<path fill-rule="evenodd" clip-rule="evenodd" d="M3.82508 22.919C3.8134 22.907 3.80172 22.8948 3.79004 22.8828L4.24337 22.5016L3.82508 22.919Z" fill="url(#paint23_linear_701_292086)"/>
<path fill-rule="evenodd" clip-rule="evenodd" d="M17.1519 0.497204C17.1762 0.504028 17.2005 0.510852 17.2247 0.517792L15.7502 1.98895L14.7498 0.990984L15.7497 1.67619L17.1519 0.497204ZM16.751 3.50488L15.7511 2.81967L13.7547 4.49833L15.7508 2.50691L16.751 3.50488ZM16.3137 2.23879L16.9982 1.24279L16.0002 2.23845L18.0008 4.2345L16.3137 2.23879ZM14.5026 3.23364L15.1871 2.23752L13.5 0.241928L15.5006 2.23787L14.5026 3.23364Z" fill="url(#paint24_linear_701_292086)"/>
<path fill-rule="evenodd" clip-rule="evenodd" d="M15.7498 10.6778L14.7498 9.99261L15.7501 10.9906L17.7461 8.99918L15.7498 10.6778ZM15.7511 11.8214L16.751 12.5065L15.7507 11.5085L13.7547 13.5L15.7511 11.8214ZM16.9982 10.2444L16.3137 11.2405L18.0008 13.2362L16.0002 11.2401L16.9982 10.2444ZM15.1871 11.2392L14.5026 12.2353L15.5006 11.2396L13.5 9.24353L15.1871 11.2392Z" fill="url(#paint25_linear_701_292086)"/>
<path fill-rule="evenodd" clip-rule="evenodd" d="M15.7498 19.6795L14.7498 18.9943L15.7501 19.9923L17.7461 18.0008L15.7498 19.6795ZM15.7511 20.823L16.751 21.5082L15.7507 20.5102L13.7547 22.5016L15.7511 20.823ZM16.9982 19.2461L16.3137 20.2421L18.0008 22.2378L16.0002 20.2418L16.9982 19.2461ZM15.1871 20.2408L14.5026 21.2369L15.5006 20.2412L13.5 18.2452L15.1871 20.2408Z" fill="url(#paint26_linear_701_292086)"/>
<path fill-rule="evenodd" clip-rule="evenodd" d="M11.2488 6.17701L10.2488 5.49182L11.2491 6.48983L13.2452 4.49838L11.2488 6.17701ZM11.2501 7.32056L12.25 8.00575L11.2497 7.00774L9.25371 8.99919L11.2501 7.32056ZM12.4972 5.74361L11.8128 6.7397L13.4998 8.73537L11.4992 6.73934L12.4972 5.74361ZM10.6861 6.73841L10.0016 7.73449L10.9996 6.73877L8.99902 4.74274L10.6861 6.73841Z" fill="url(#paint27_linear_701_292086)"/>
<path fill-rule="evenodd" clip-rule="evenodd" d="M11.2488 15.1786L10.2488 14.4934L11.2491 15.4915L13.2452 13.5L11.2488 15.1786ZM11.2501 16.3222L12.25 17.0074L11.2497 16.0094L9.25371 18.0008L11.2501 16.3222ZM12.4972 14.7452L11.8128 15.7413L13.4998 17.737L11.4992 15.741L12.4972 14.7452ZM10.6861 15.74L10.0016 16.7361L10.9996 15.7404L8.99902 13.7444L10.6861 15.74Z" fill="url(#paint28_linear_701_292086)"/>
<path fill-rule="evenodd" clip-rule="evenodd" d="M9.8479 26.5027C9.82361 26.4959 9.79932 26.4891 9.77514 26.4822L11.2498 25.011L12.2501 26.009L11.2501 25.3238L9.8479 26.5027ZM10.2488 23.4951L11.2487 24.1803L13.2451 22.5016L11.2492 24.493L10.2488 23.4951ZM11.8127 24.7429L12.4972 23.7469L11.4993 24.7425L13.4998 26.7386L11.8127 24.7429ZM10.0016 25.7377L10.6861 24.7416L8.99902 22.746L10.9996 24.742L10.0016 25.7377Z" fill="url(#paint29_linear_701_292086)"/>
<path fill-rule="evenodd" clip-rule="evenodd" d="M23.2102 4.11711L22.7568 4.49827L23.1751 4.08102C23.1868 4.09305 23.1985 4.10508 23.2102 4.11711Z" fill="url(#paint30_linear_701_292086)"/>
<path fill-rule="evenodd" clip-rule="evenodd" d="M26.3483 9.33528C26.3534 9.35113 26.3585 9.36698 26.3636 9.38282L24.7521 10.9906L23.7517 9.99262L24.7517 10.6778L26.3483 9.33528ZM27.0002 13.2331L25.3157 11.2404L26.0002 10.2444L25.0022 11.2401L27.0002 13.2331ZM25.753 12.5065L24.7531 11.8213L22.7567 13.5L24.7527 11.5085L25.753 12.5065ZM23.5045 12.2353L24.1891 11.2392L22.502 9.24356L24.5025 11.2395L23.5045 12.2353Z" fill="url(#paint31_linear_701_292086)"/>
<path fill-rule="evenodd" clip-rule="evenodd" d="M24.932 20.689C24.8944 20.7487 24.8562 20.8081 24.8177 20.8672L24.7531 20.8229L22.7567 22.5016L24.7527 20.5102L24.932 20.689ZM25.4472 19.7978C25.3454 19.9905 25.239 20.1805 25.1283 20.3675L25.0022 20.2417L25.4472 19.7978ZM25.9911 18.6373C25.9629 18.7059 25.9341 18.7741 25.9047 18.8421L24.7521 19.9922L23.7517 18.9942L24.7517 19.6794L25.9911 18.6373ZM23.5045 21.2369L24.1891 20.2408L22.502 18.2452L24.5025 20.2411L23.5045 21.2369Z" fill="url(#paint32_linear_701_292086)"/>
<path fill-rule="evenodd" clip-rule="evenodd" d="M20.2507 6.17701L19.2508 5.49182L20.2511 6.48983L22.2471 4.49838L20.2507 6.17701ZM20.2521 7.32056L21.252 8.00575L20.2517 7.00774L18.2557 8.99919L20.2521 7.32056ZM21.4992 5.74361L20.8147 6.7397L22.5018 8.73537L20.5012 6.73934L21.4992 5.74361ZM19.6881 6.73841L19.0036 7.73449L20.0016 6.73877L18.001 4.74274L19.6881 6.73841Z" fill="url(#paint33_linear_701_292086)"/>
<path fill-rule="evenodd" clip-rule="evenodd" d="M20.2507 15.1786L19.2508 14.4934L20.2511 15.4915L22.2471 13.5L20.2507 15.1786ZM20.2521 16.3222L21.252 17.0074L20.2517 16.0094L18.2557 18.0008L20.2521 16.3222ZM21.4992 14.7452L20.8147 15.7413L22.5018 17.737L20.5012 15.741L21.4992 14.7452ZM19.6881 15.74L19.0036 16.7361L20.0016 15.7404L18.001 13.7444L19.6881 15.74Z" fill="url(#paint34_linear_701_292086)"/>
<path fill-rule="evenodd" clip-rule="evenodd" d="M20.3686 25.9711C20.1929 26.0751 20.0147 26.1753 19.8341 26.2714L20.2517 25.8547L20.3686 25.9711ZM20.874 25.6568C20.8131 25.6965 20.7518 25.7359 20.6901 25.7747L20.5012 25.5862L21.4992 24.5905L20.8147 25.5865L20.874 25.6568ZM19.2508 24.3387L20.2507 25.0239L22.2471 23.3453L20.2512 25.3367L19.2508 24.3387ZM19.0036 26.5814L19.6881 25.5853L18.001 23.5897L20.0015 25.5856L19.0036 26.5814Z" fill="url(#paint35_linear_701_292086)"/>
<path fill-rule="evenodd" clip-rule="evenodd" d="M13.4976 11.3562L9.74845 8.78722L13.4989 12.5291L20.9827 5.0625L13.4976 11.3562ZM13.5025 15.6438L17.2516 18.2128L13.5012 14.4709L6.0174 21.9375L13.5025 15.6438ZM18.1784 9.73127L15.6121 13.4659L21.9375 20.9483L14.4365 13.4646L18.1784 9.73127ZM11.3879 13.4611L8.82158 17.1957L12.5635 13.4624L5.0625 5.97867L11.3879 13.4611Z" fill="url(#paint36_linear_701_292086)"/>
</g>
<path fill-rule="evenodd" clip-rule="evenodd" d="M23.6706 18.0287C23.3202 18.0918 23.0513 18.1866 22.6659 18.3827C22.1903 18.6247 21.8076 18.9151 21.3019 19.4178C19.7221 20.988 18.5461 23.3506 18.0715 25.9075C18.007 26.255 18.0004 26.3827 18 27.2948C17.9996 28.2241 18.0047 28.3197 18.0676 28.5714C18.2567 29.3286 18.4762 29.7514 18.9137 30.2009C19.2617 30.5584 19.237 30.5449 20.9548 31.3216C22.466 32.0048 22.4372 31.9954 23.0081 31.995C23.428 31.9947 23.5029 31.9858 23.7548 31.907C24.1313 31.7891 24.5317 31.5897 24.8969 31.3384L25.1989 31.1305L25.7991 31.1089C28.1821 31.0231 29.8917 30.7109 30.8948 30.1785C31.3718 29.9254 31.8241 29.4595 31.9219 29.1208C31.9706 28.9521 32.0019 25.7957 31.958 25.48C31.9128 25.1548 31.7822 24.8972 31.5346 24.6445C31.1098 24.2113 30.3489 23.8612 29.3397 23.6348L29.0757 23.5755L29.0738 22.7324C29.0722 21.9864 29.064 21.8519 29.0031 21.5644C28.8335 20.7628 28.5641 20.2113 28.1287 19.7747C27.9524 19.5978 27.854 19.5343 27.4259 19.3208C26.5671 18.8925 24.8565 18.144 24.5553 18.0647C24.2867 17.9941 23.9411 17.98 23.6706 18.0287ZM24.7504 19.1072C25.1909 19.2883 26.187 19.7309 26.9281 20.0751C27.2783 20.2377 27.3601 20.2907 27.538 20.4702C27.7821 20.7166 27.9516 21.0476 28.0851 21.5385C28.1703 21.852 28.1717 21.8719 28.1704 22.7184C28.1694 23.3789 28.1568 23.6519 28.1164 23.8901C28.0387 24.3482 28.0272 24.3172 28.2892 24.3604C29.5493 24.5684 30.4586 24.8771 30.8492 25.2295C31.0946 25.4509 31.0815 25.3403 31.0813 27.1895C31.0812 29.073 31.1023 28.9261 30.7969 29.1676C30.0328 29.7719 27.8413 30.196 25.4797 30.1966L24.9335 30.1968L24.6086 30.4359C24.2345 30.7111 23.7515 30.9672 23.4592 31.045C23.1815 31.1191 22.8037 31.1187 22.5881 31.0441C22.3997 30.9789 20.5184 30.1365 20.0036 29.8868C19.728 29.753 19.6501 29.6974 19.4855 29.5162C19.252 29.2593 19.0753 28.9045 18.9569 28.4547C18.8769 28.1507 18.8741 28.1113 18.8757 27.3107C18.877 26.6046 18.8872 26.4247 18.9446 26.0989C19.3567 23.7558 20.4858 21.4717 21.94 20.0392C22.6874 19.303 23.475 18.8905 24.0815 18.9178C24.2787 18.9266 24.3822 18.956 24.7504 19.1072ZM24.6578 21.3804C24.1664 21.779 23.7567 22.3758 23.3044 23.0706C23.0695 23.4315 22.7748 24.2199 22.7748 24.2779C22.7748 24.2908 22.7993 24.2937 22.8292 24.2844C22.9291 24.2534 23.53 24.2029 24.1868 24.1703C24.553 24.1522 24.9152 24.1581 24.9378 24.139C24.9816 24.1017 25.0779 23.428 25.1552 22.9736C25.2135 22.6311 25.3479 21.6747 25.3111 21.4314C25.2967 21.3364 25.206 21.0203 25.1867 21.0137C25.1674 21.0071 24.7925 21.2712 24.6578 21.3804Z" fill="white"/>
<path fill-rule="evenodd" clip-rule="evenodd" d="M30.0787 28.3363C30.0709 28.3424 30.0631 28.3489 30.055 28.3545C30.0472 28.3606 30.039 28.3663 30.0308 28.3724C30.0156 28.3834 30 28.394 29.9841 28.4042C29.9822 28.4053 29.9804 28.4065 29.9785 28.408C29.9655 28.4163 29.9526 28.4247 29.9392 28.4326C29.9195 28.4448 29.9002 28.4561 29.8802 28.4675C29.7444 28.5449 29.6015 28.607 29.4557 28.662C29.318 28.7136 29.1785 28.7587 29.0378 28.7989C28.8363 28.8565 28.6322 28.9043 28.4263 28.946C28.2263 28.9869 28.0255 29.0214 27.824 29.0514C27.6225 29.0813 27.4203 29.1064 27.2177 29.128C27.1512 29.1352 27.0848 29.1416 27.0184 29.1481C26.8852 29.1606 26.7519 29.1712 26.6187 29.1803C26.5519 29.1848 26.4851 29.189 26.4187 29.1928C26.2692 29.2015 26.1196 29.208 25.9701 29.2129C25.943 29.2137 25.9159 29.2148 25.8884 29.2156C25.8636 29.2163 25.8387 29.2171 25.8135 29.2178C25.8747 29.1405 25.9359 29.0635 25.992 28.982C26.0001 28.9718 26.0083 28.9615 26.0161 28.9509C26.1426 28.7773 26.2636 28.5998 26.3794 28.419C26.3913 28.4182 26.4031 28.4179 26.4146 28.4171C26.4881 28.4129 26.5616 28.408 26.6351 28.4031C26.6907 28.3993 26.7464 28.3951 26.802 28.3906C27.1913 28.3598 27.5791 28.3159 27.965 28.2541C28.0775 28.2363 28.1892 28.2165 28.3005 28.1957C28.561 28.1464 28.8193 28.0873 29.0738 28.0129C29.1299 27.9966 29.1855 27.9796 29.2412 27.9618C29.269 27.9527 29.2968 27.9436 29.3247 27.9341C29.3666 27.9417 29.4048 27.9595 29.4442 27.9743C29.4787 27.9872 29.5132 28.0008 29.5477 28.0148C29.6453 28.0543 29.741 28.0979 29.8338 28.1483C29.8705 28.168 29.9065 28.1889 29.9422 28.2108C29.9893 28.24 30.0353 28.2708 30.0783 28.306C30.091 28.3162 30.0947 28.3204 30.0899 28.3265C30.0876 28.3295 30.0839 28.3326 30.078 28.3371L30.0787 28.3363Z" fill="#F1ECE2"/>
<path fill-rule="evenodd" clip-rule="evenodd" d="M29.3262 27.9337C29.2983 27.9432 29.2709 27.9523 29.2427 27.9614C29.187 27.9792 29.1313 27.9963 29.0753 28.0126C28.8204 28.0869 28.5625 28.1461 28.302 28.1953C28.1906 28.2166 28.0786 28.2359 27.9665 28.2537C27.5806 28.3155 27.1928 28.3595 26.8035 28.3902C26.7479 28.3948 26.6922 28.3989 26.6365 28.4027C26.5631 28.4077 26.4896 28.4126 26.4161 28.4168C26.4042 28.4175 26.3927 28.4179 26.3809 28.4186C26.4606 28.2939 26.5382 28.1677 26.6132 28.0395C26.7215 27.8545 26.825 27.6668 26.9234 27.4765C27.1112 27.4932 27.2986 27.5125 27.4859 27.536C27.4997 27.5375 27.5134 27.5406 27.5275 27.5428C27.6114 27.5489 27.6945 27.5618 27.7772 27.5743C27.8838 27.5902 27.9903 27.6077 28.0964 27.6259C28.2396 27.6505 28.3829 27.6778 28.525 27.7093C28.6018 27.7264 28.6782 27.7438 28.7551 27.7609C28.7673 27.7677 28.7803 27.7703 28.794 27.7718C28.958 27.8147 29.1217 27.8598 29.2824 27.914C29.2972 27.919 29.3143 27.9205 29.3258 27.9334L29.3262 27.9337Z" fill="#FDBF41"/>
<path fill-rule="evenodd" clip-rule="evenodd" d="M22.8509 30.0561C22.8364 30.0584 22.822 30.0607 22.8079 30.0629C22.7522 30.0705 22.6965 30.0751 22.6405 30.0766C22.6219 30.077 22.603 30.0773 22.5845 30.077C22.5655 30.077 22.547 30.0762 22.5281 30.0754C22.5199 30.0751 22.5121 30.0739 22.5039 30.0732C22.4961 30.0724 22.488 30.0713 22.4798 30.0705C22.4694 30.0698 22.4616 30.0652 22.4538 30.0584C22.4316 30.0379 22.4104 30.0167 22.3896 29.9947C22.5433 30.0174 22.6969 30.0379 22.8509 30.0565V30.0561Z" fill="#F1ECE2"/>
<path fill-rule="evenodd" clip-rule="evenodd" d="M25.2684 27.4056C25.1578 27.4056 25.0473 27.4071 24.9367 27.409C24.7526 27.7005 24.5541 27.9819 24.3374 28.2492C24.2917 28.3053 24.2457 28.3606 24.1986 28.4152C24.0798 28.5536 23.9559 28.6871 23.826 28.8144C23.7121 28.9259 23.5945 29.0324 23.4716 29.1325C23.3759 29.211 23.2768 29.2857 23.174 29.3551C22.9848 29.4832 22.7862 29.5936 22.5725 29.6739C22.4641 29.7145 22.3536 29.7475 22.2393 29.7668C22.2329 29.768 22.227 29.7706 22.2207 29.7725C22.2211 29.7744 22.2218 29.7767 22.2222 29.7786C22.2226 29.7797 22.2229 29.7809 22.2237 29.782C22.2318 29.7949 22.24 29.8074 22.2485 29.8195C22.2656 29.8445 22.2834 29.8688 22.3016 29.8923C22.3291 29.9276 22.3584 29.9617 22.3892 29.9943C22.5428 30.0171 22.6964 30.0375 22.8504 30.0561C22.8916 30.0497 22.9324 30.0413 22.9729 30.0315C23.0668 30.0087 23.1581 29.9788 23.2475 29.9435C23.292 29.9257 23.3362 29.9067 23.3796 29.8862C23.423 29.8658 23.4661 29.8442 23.5087 29.821C23.5273 29.8112 23.5455 29.8009 23.564 29.7907C23.6917 29.7191 23.8141 29.6387 23.9314 29.5522C24.049 29.4654 24.1618 29.3721 24.2713 29.2743C24.2869 29.2603 24.3025 29.2463 24.3181 29.2319C24.3296 29.2212 24.3407 29.2106 24.3526 29.1996C24.4227 29.134 24.4917 29.0666 24.5589 28.9976C24.5849 28.9706 24.6105 28.9437 24.6361 28.916C24.7203 28.8258 24.8023 28.7337 24.8821 28.6393C24.93 28.5828 24.9767 28.5252 25.0228 28.4672C25.0283 28.4603 25.0339 28.4531 25.0395 28.4459C25.071 28.4057 25.1022 28.3652 25.1333 28.3242C25.2309 28.1953 25.3248 28.0638 25.4154 27.9295C25.4644 27.8567 25.5122 27.7836 25.5593 27.7096C25.5857 27.6679 25.6117 27.6262 25.6373 27.5845C25.6725 27.5273 25.707 27.4693 25.7412 27.4113C25.5835 27.4075 25.4261 27.4056 25.2684 27.4056Z" fill="#F1ECE2"/>
<path fill-rule="evenodd" clip-rule="evenodd" d="M24.3306 27.4287C24.2516 27.4325 24.1726 27.4371 24.0939 27.442C24.0074 27.5671 23.918 27.6903 23.8245 27.8105C23.7328 27.9288 23.6389 28.0448 23.5402 28.1574C23.4842 28.2211 23.4278 28.2844 23.3699 28.3466C23.3291 28.3906 23.2875 28.4342 23.2449 28.4766C23.0753 28.6461 22.8975 28.8061 22.7064 28.9506C22.6745 28.9744 22.6426 28.9979 22.6099 29.0211C22.5027 29.0973 22.3917 29.1678 22.2763 29.2311C22.1928 29.2774 22.1067 29.3183 22.0195 29.3558C22.0203 29.36 22.0195 29.3646 22.0214 29.3687C22.0336 29.4032 22.0466 29.437 22.0607 29.4707C22.0745 29.5045 22.0893 29.5375 22.1049 29.5701C22.1361 29.6353 22.1709 29.699 22.2088 29.7611L22.2095 29.7619C22.2121 29.7657 22.2166 29.7691 22.2199 29.7725C22.2262 29.7706 22.2322 29.768 22.2385 29.7668C22.3524 29.7475 22.463 29.7145 22.5717 29.6739C22.7854 29.5939 22.984 29.4832 23.1732 29.3551C23.276 29.2857 23.3751 29.211 23.4708 29.1325C23.5937 29.0321 23.7113 28.9255 23.8252 28.8144C23.9555 28.6871 24.079 28.5536 24.1978 28.4152C24.2449 28.3606 24.2909 28.3053 24.3366 28.2492C24.5533 27.9819 24.7518 27.7006 24.9359 27.409C24.734 27.4128 24.5318 27.4189 24.3303 27.4291L24.3306 27.4287Z" fill="#FDBF41"/>
<path fill-rule="evenodd" clip-rule="evenodd" d="M22.543 28.2332C22.5511 28.2347 22.5589 28.2359 22.5667 28.2374C22.412 28.3902 22.2494 28.5335 22.0761 28.6647C22.0131 28.7124 21.95 28.7602 21.8817 28.8008C21.8691 28.7451 21.8635 28.6882 21.8572 28.6313C21.8357 28.4501 21.8275 28.2681 21.8271 28.0861C21.8702 28.0967 21.9132 28.107 21.9567 28.1172C22.0832 28.1468 22.2101 28.1729 22.3374 28.1968C22.406 28.2097 22.4747 28.2219 22.5433 28.2336L22.543 28.2332Z" fill="#F1ECE2"/>
<path fill-rule="evenodd" clip-rule="evenodd" d="M23.2515 27.5159C23.2333 27.5182 23.2148 27.5197 23.1962 27.5216C23.0136 27.7589 22.8188 27.9853 22.6073 28.1972C22.5939 28.2109 22.5802 28.2241 22.5669 28.2374C22.5732 28.2385 22.5795 28.2397 22.5854 28.2408C22.5791 28.2397 22.5732 28.2385 22.5669 28.2378C22.4121 28.3906 22.2496 28.5339 22.0763 28.6651C22.0132 28.7128 21.9501 28.7606 21.8818 28.8012C21.8826 28.8088 21.8829 28.8167 21.8837 28.8243C21.8837 28.8266 21.8837 28.8285 21.8844 28.8307C21.8859 28.8395 21.8878 28.8482 21.8893 28.8569C21.8904 28.8641 21.8915 28.8709 21.893 28.8781C21.8963 28.8956 21.8996 28.9134 21.903 28.9312C21.9227 29.0313 21.946 29.1303 21.9753 29.2277C21.9887 29.2713 21.9995 29.316 22.021 29.357C22.1082 29.3194 22.1943 29.2785 22.2778 29.2322C22.3932 29.1686 22.5041 29.098 22.6114 29.0222C22.644 28.9995 22.676 28.976 22.7079 28.9517C22.899 28.8076 23.0767 28.6472 23.2463 28.4778C23.289 28.4353 23.3302 28.3917 23.3714 28.3477C23.4293 28.2855 23.4857 28.2222 23.5417 28.1585C23.64 28.0459 23.7343 27.9299 23.8259 27.8116C23.9191 27.6911 24.0089 27.5682 24.0954 27.4431C23.8141 27.4606 23.5332 27.4848 23.2526 27.5167L23.2515 27.5159Z" fill="#FF1100"/>
<path fill-rule="evenodd" clip-rule="evenodd" d="M22.3369 28.1965C22.4056 28.2094 22.4742 28.2215 22.5429 28.2332C22.4742 28.2215 22.4052 28.2094 22.3369 28.1965Z" fill="#FF1100"/>
<path fill-rule="evenodd" clip-rule="evenodd" d="M23.0758 27.539C23.1156 27.5303 23.156 27.5258 23.1964 27.5216C23.0139 27.7589 22.8191 27.9853 22.6075 28.1972C22.5942 28.2109 22.5804 28.2241 22.5671 28.2374L22.5433 28.2336C22.4747 28.2219 22.406 28.2097 22.3374 28.1968C22.2101 28.173 22.0828 28.1468 21.9567 28.1172C21.9136 28.107 21.8702 28.0968 21.8271 28.0861C21.8271 28.0175 21.8279 27.9485 21.8297 27.8795C21.8309 27.8386 21.8327 27.798 21.8349 27.7574C21.9815 27.7218 22.1292 27.6903 22.2773 27.6615C22.5304 27.6126 22.7849 27.5728 23.0402 27.5406C23.0443 27.5402 23.0484 27.5394 23.0525 27.539C23.0573 27.5383 23.0621 27.5379 23.0669 27.5383C23.0699 27.5383 23.0729 27.539 23.0758 27.5398V27.539Z" fill="#FDBF41"/>
<path fill-rule="evenodd" clip-rule="evenodd" d="M27.5898 24.2254C27.7375 24.244 27.8856 24.2622 28.0333 24.2808C28.0325 24.2823 28.0314 24.2838 28.0299 24.2853C27.9383 24.2739 27.8463 24.2629 27.7546 24.2508C27.7279 24.2474 27.7012 24.2451 27.6745 24.2421C27.6477 24.2391 27.621 24.236 27.5947 24.2307C27.5932 24.2288 27.5917 24.2273 27.5898 24.2258V24.2254Z" fill="#007FFF"/>
<path fill-rule="evenodd" clip-rule="evenodd" d="M31.1116 27.7271V27.1042C31.0986 27.0462 31.0808 26.9897 31.0493 26.9389C30.9984 26.857 30.938 26.7838 30.8623 26.7239C30.7832 26.6613 30.7023 26.6026 30.6151 26.5525C30.4953 26.4839 30.3706 26.4259 30.2455 26.3687C30.2232 26.3584 30.2002 26.3535 30.178 26.3444C29.8952 26.2314 29.6043 26.1465 29.3096 26.0733C29.1211 26.0263 28.9311 25.9861 28.7404 25.9497C28.5263 25.9088 28.3111 25.8735 28.0955 25.8432C27.9466 25.8223 27.7978 25.8034 27.6487 25.7863C27.5822 25.7787 27.5158 25.7715 27.4494 25.7647C27.2616 25.7461 27.0735 25.7287 26.8853 25.715C26.7744 25.7067 26.6631 25.6995 26.5521 25.693C26.4579 25.6877 26.3632 25.6828 26.2686 25.6782C26.1198 25.6714 25.9714 25.6661 25.8226 25.6627C25.8118 25.6627 25.801 25.6619 25.7903 25.6619C25.5554 25.6566 25.3201 25.6551 25.0852 25.6574H25.0737C24.8318 25.6597 24.5898 25.6654 24.3482 25.6756C24.3338 25.676 24.3193 25.6771 24.3048 25.6775C24.0187 25.69 23.7334 25.7082 23.448 25.7328C23.029 25.7689 22.6116 25.8178 22.1963 25.8845C22.1863 25.886 22.1767 25.8879 22.1666 25.8894C22.1507 25.9471 22.1362 26.0054 22.1162 26.0619C22.1021 26.1196 22.088 26.1772 22.0735 26.2344C22.0353 26.3872 22.0008 26.5408 21.9707 26.6955C21.9919 26.6917 22.013 26.6883 22.0342 26.6845C22.062 26.6795 22.0898 26.675 22.1173 26.6701L22.2409 26.6496C22.3897 26.6261 22.5392 26.6049 22.6884 26.5855C22.8379 26.5662 22.9875 26.5491 23.1374 26.534C23.2372 26.5237 23.3374 26.5142 23.4376 26.5055C23.589 26.4926 23.7408 26.4816 23.8925 26.4718C24.0354 26.4627 24.1783 26.4555 24.3212 26.4494C24.3579 26.4479 24.3946 26.446 24.4314 26.4445C24.4859 26.4422 24.5408 26.4407 24.5954 26.4388C24.6306 26.4377 24.6659 26.4369 24.7015 26.4361C24.8303 26.4327 24.959 26.4308 25.0878 26.4297C25.1364 26.4297 25.1847 26.4289 25.2333 26.4289C25.3164 26.4289 25.3995 26.4289 25.4823 26.4297C25.5123 26.4297 25.5424 26.4301 25.5724 26.4308L25.6693 26.432C25.7572 26.4335 25.8448 26.4358 25.9328 26.4384C26.0207 26.4411 26.1083 26.4445 26.1962 26.4479C26.2107 26.4483 26.2252 26.4494 26.2397 26.4498C26.3339 26.454 26.4282 26.4589 26.5221 26.4638C26.5944 26.468 26.6668 26.4725 26.7391 26.4771C26.8475 26.4843 26.9562 26.4922 27.0646 26.5013C27.1644 26.5097 27.2642 26.5192 27.3644 26.5294C27.3678 26.5294 27.3715 26.5302 27.3748 26.5305C27.4464 26.5377 27.518 26.5449 27.5897 26.5525C27.7043 26.5643 27.819 26.5783 27.9337 26.5939C28.048 26.6094 28.1622 26.6261 28.2765 26.6435C28.324 26.6507 28.3715 26.6583 28.4187 26.6659C28.5608 26.6894 28.7025 26.7152 28.8436 26.7436C28.9267 26.7603 29.0094 26.7777 29.0922 26.7959C29.1749 26.8141 29.2573 26.8338 29.3397 26.8543C29.4648 26.8858 29.5891 26.9195 29.7119 26.9563C29.8759 27.0056 30.0384 27.0609 30.1976 27.1258C30.2377 27.1417 30.2771 27.1588 30.3168 27.1758C30.3769 27.2024 30.4359 27.2316 30.4945 27.2611C30.509 27.2683 30.5235 27.2755 30.5379 27.2831C30.5491 27.2888 30.5606 27.2945 30.5717 27.3002C30.5865 27.3078 30.6014 27.3153 30.6159 27.3237C30.6344 27.3339 30.6526 27.3449 30.6697 27.3571C30.7357 27.4037 30.8036 27.4477 30.8649 27.5007C30.879 27.5133 30.8927 27.5258 30.906 27.539C30.922 27.5527 30.9372 27.5675 30.9517 27.5823C30.9758 27.6069 30.9981 27.6334 31.0177 27.6611C31.0274 27.6748 31.0363 27.6888 31.0448 27.7032C31.0523 27.7157 31.0589 27.7282 31.0652 27.7411C31.0715 27.754 31.0775 27.7673 31.0827 27.7813C31.0882 27.795 31.0931 27.809 31.0975 27.823C31.1005 27.8329 31.1038 27.8431 31.1068 27.853C31.1098 27.8628 31.1068 27.8537 31.1072 27.8541V27.853C31.115 27.8109 31.1101 27.7684 31.1105 27.7259L31.1116 27.7271Z" fill="#F1ECE2"/>
<path fill-rule="evenodd" clip-rule="evenodd" d="M31.1143 27.0223C31.1147 26.8649 31.1147 26.708 31.1143 26.5506C31.1143 26.4782 31.1136 26.4054 31.1132 26.333C31.101 26.2921 31.0924 26.25 31.0743 26.2109C31.0279 26.1127 30.9585 26.0339 30.8783 25.9633C30.7908 25.886 30.6939 25.8219 30.5922 25.7654C30.4449 25.6828 30.292 25.6123 30.1343 25.5527C29.9517 25.4837 29.7666 25.4227 29.5788 25.3704C29.4352 25.3306 29.2908 25.2938 29.1461 25.2601C28.981 25.2218 28.8151 25.188 28.6485 25.1581C28.4756 25.1274 28.3019 25.0978 28.1279 25.0731C28.0455 25.0614 27.9627 25.0504 27.88 25.0398C27.6952 25.0155 27.51 24.9943 27.3245 24.9776C27.2899 24.9742 27.2558 24.9693 27.2213 24.9666C27.081 24.9556 26.9408 24.945 26.8009 24.9348C26.7808 24.9332 26.7608 24.9317 26.7407 24.9302C26.6472 24.9234 26.5537 24.9166 26.4602 24.9116C26.3385 24.9056 26.2168 24.901 26.0951 24.8965H26.0917C25.9644 24.8919 25.8375 24.887 25.7102 24.8847C25.5982 24.8828 25.4861 24.8817 25.3737 24.8813C25.3243 24.8813 25.275 24.8809 25.2252 24.8809C25.0286 24.8809 24.8323 24.884 24.636 24.8896H24.6274C24.397 24.8965 24.1662 24.9059 23.9361 24.9211C23.7591 24.9325 23.5821 24.9427 23.4054 24.9579C23.3338 24.964 23.2626 24.973 23.1913 24.9803C22.9423 25.0057 22.6941 25.0352 22.4466 25.0709C22.4436 25.0712 22.441 25.0716 22.438 25.072C22.3389 25.334 22.2499 25.5994 22.1716 25.8689C22.1697 25.8758 22.1679 25.8822 22.166 25.889C22.1757 25.8875 22.1857 25.8856 22.1957 25.8841C22.6109 25.8174 23.0284 25.7681 23.4474 25.7325C23.7327 25.7082 24.0181 25.6896 24.3042 25.6771C24.3187 25.6763 24.3331 25.6756 24.3476 25.6752C24.5892 25.665 24.8311 25.6593 25.0731 25.657H25.0846C25.3199 25.6551 25.5548 25.6566 25.7897 25.6616C25.8004 25.6616 25.8112 25.6623 25.8219 25.6623C25.9707 25.6657 26.1192 25.671 26.268 25.6779C26.3626 25.6824 26.4569 25.6873 26.5515 25.6926C26.6624 25.6991 26.7738 25.7063 26.8847 25.7146C27.0729 25.7287 27.261 25.7457 27.4488 25.7643C27.5152 25.7711 27.5816 25.7783 27.648 25.7859C27.7972 25.803 27.946 25.8219 28.0948 25.8428C28.3104 25.8731 28.5257 25.9084 28.7398 25.9493C28.9305 25.9857 29.1205 26.0259 29.309 26.0729C29.6037 26.1461 29.8946 26.231 30.1774 26.344C30.1996 26.3531 30.2226 26.358 30.2449 26.3683C30.3699 26.4259 30.4946 26.4835 30.6145 26.5521C30.7017 26.6022 30.7826 26.661 30.8616 26.7235C30.9373 26.7834 30.9978 26.8566 31.0487 26.9385C31.0802 26.9893 31.0976 27.0458 31.111 27.1038C31.1162 27.0765 31.1132 27.0488 31.1132 27.0215L31.1143 27.0223Z" fill="#FDBF41"/>
<path fill-rule="evenodd" clip-rule="evenodd" d="M26.7516 21.0782C26.854 21.2417 26.9282 21.4183 26.9843 21.6033C27.0017 21.6606 27.0173 21.7182 27.0314 21.7762C27.0548 21.8729 27.073 21.9711 27.0874 22.0697C27.0915 22.0985 27.0956 22.1273 27.0993 22.1565C27.1064 22.2145 27.1127 22.2725 27.1179 22.3305C27.1201 22.3597 27.1223 22.3885 27.1245 22.4177C27.1349 22.5762 27.1394 22.7347 27.1353 22.8935C27.1309 23.0596 27.1212 23.2257 27.1049 23.3913C27.0885 23.5559 27.0663 23.7197 27.0396 23.8823C27.0236 23.9801 27.0058 24.0776 26.9865 24.1743C26.8329 24.1617 26.6792 24.1511 26.5252 24.1435C26.4514 24.1401 26.3772 24.136 26.303 24.1322C26.3531 23.9123 26.3954 23.6909 26.4284 23.4672C26.4648 23.2196 26.4907 22.9713 26.5004 22.7214C26.5082 22.5091 26.5071 22.2964 26.4904 22.0841C26.4763 21.907 26.4529 21.7319 26.4158 21.5582C26.3738 21.363 26.3148 21.1734 26.2302 20.9926C26.1968 20.9209 26.1575 20.8523 26.1182 20.784C26.1504 20.7734 26.1842 20.7723 26.2172 20.7689C26.2347 20.767 26.2521 20.7655 26.2692 20.7643C26.284 20.7636 26.2989 20.7628 26.3137 20.7624C26.3378 20.7621 26.362 20.7621 26.3861 20.7624C26.4028 20.7628 26.4199 20.7636 26.4366 20.7643C26.4495 20.7651 26.4625 20.7658 26.4755 20.767C26.4777 20.767 26.48 20.7674 26.4818 20.7677C26.4859 20.7685 26.4896 20.7696 26.4933 20.7712C26.497 20.7727 26.5004 20.7746 26.5037 20.7768C26.5085 20.7799 26.5134 20.784 26.5178 20.7882C26.5293 20.7988 26.5405 20.8098 26.5512 20.8208C26.5731 20.8428 26.5943 20.8659 26.6143 20.8894C26.6651 20.9482 26.7108 21.0108 26.7527 21.0775L26.7516 21.0782Z" fill="#F1ECE2"/>
<path fill-rule="evenodd" clip-rule="evenodd" d="M26.4148 21.5582C26.4519 21.7315 26.4753 21.907 26.4894 22.0841C26.5065 22.2964 26.5076 22.5091 26.4994 22.7214C26.4901 22.9712 26.4642 23.2196 26.4274 23.4672C26.3944 23.6908 26.3521 23.9126 26.302 24.1322C26.246 24.1295 26.1896 24.1265 26.1335 24.1242C26.0051 24.1193 25.8771 24.1162 25.7487 24.1136C25.7008 24.1124 25.653 24.1117 25.6055 24.1109C25.6522 23.9308 25.6934 23.7492 25.7287 23.5665C25.7554 23.4296 25.7784 23.292 25.7988 23.154C25.8122 23.0615 25.824 22.969 25.8344 22.8761C25.8452 22.779 25.8537 22.6816 25.8597 22.5838C25.866 22.4795 25.8701 22.3749 25.8723 22.2706C25.8749 22.1307 25.8704 21.9912 25.8604 21.8517C25.8537 21.7595 25.8452 21.6678 25.8337 21.576C25.8181 21.4505 25.7958 21.3266 25.7665 21.2037C25.7431 21.1055 25.7164 21.0077 25.6808 20.9129C25.7053 20.897 25.7335 20.889 25.7606 20.8788C25.8155 20.858 25.8708 20.8398 25.9272 20.8238C25.9836 20.8083 26.0404 20.795 26.0983 20.7852C26.1024 20.7844 26.1061 20.7833 26.1101 20.7833C26.1127 20.7833 26.115 20.7833 26.1172 20.784C26.1565 20.8523 26.1959 20.9205 26.2293 20.9925C26.3139 21.1734 26.3729 21.363 26.4148 21.5582Z" fill="#FDBF41"/>
<path fill-rule="evenodd" clip-rule="evenodd" d="M31.1108 28.6018C31.1111 28.5919 31.1119 28.582 31.1119 28.5722C31.1119 28.4099 31.1122 28.2473 31.1122 28.085C31.1122 28.0149 31.1111 27.9447 31.1108 27.8746C31.1108 27.8704 31.1126 27.8659 31.1122 27.8617C31.1111 27.859 31.1096 27.8571 31.1085 27.8549V27.8556C31.1085 27.8552 31.1085 27.8549 31.1082 27.8545C31.1052 27.8443 31.1019 27.8344 31.0989 27.8242C31.0944 27.8098 31.0892 27.7957 31.084 27.7825C31.0788 27.7688 31.0729 27.7555 31.0666 27.7423C31.0603 27.7294 31.0532 27.7165 31.0462 27.7044C31.0377 27.6899 31.0287 27.6759 31.0191 27.6623C30.9994 27.6342 30.9775 27.6081 30.953 27.5834C30.9386 27.5686 30.9234 27.5542 30.9074 27.5402C30.894 27.5265 30.8803 27.514 30.8662 27.5019C30.805 27.4488 30.7371 27.4048 30.671 27.3582C30.6536 27.3461 30.6354 27.3351 30.6172 27.3248C30.6027 27.3169 30.5879 27.3089 30.5731 27.3013C30.5619 27.2956 30.5504 27.29 30.5393 27.2843C30.5248 27.2767 30.5103 27.2695 30.4959 27.2623C30.4372 27.2327 30.3782 27.2035 30.3181 27.177C30.2784 27.1599 30.2391 27.1429 30.199 27.1269C30.0394 27.0625 29.8773 27.0067 29.7133 26.9575C29.5901 26.9203 29.4657 26.8866 29.3411 26.8555C29.2587 26.835 29.1763 26.8153 29.0935 26.7971C29.0108 26.7789 28.928 26.7614 28.8449 26.7448C28.7035 26.7163 28.5618 26.6902 28.42 26.667C28.3725 26.6595 28.3254 26.6519 28.2779 26.6447C28.1636 26.6272 28.0497 26.6106 27.935 26.595C27.8207 26.5795 27.7061 26.5654 27.591 26.5537C27.5194 26.5465 27.4478 26.5389 27.3762 26.5317C27.3728 26.5317 27.3691 26.5309 27.3658 26.5306C27.266 26.5203 27.1661 26.5108 27.0659 26.5025C26.9576 26.4934 26.8489 26.4858 26.7405 26.4782C26.6681 26.4733 26.5958 26.4688 26.5234 26.465C26.4292 26.4597 26.3349 26.4547 26.241 26.4509C26.2265 26.4502 26.2121 26.4494 26.1976 26.449C26.1097 26.4452 26.0221 26.4422 25.9341 26.4396C25.8462 26.4369 25.7586 26.4346 25.6707 26.4331L25.5738 26.432L25.4836 26.4308C25.4005 26.4301 25.3174 26.4297 25.2346 26.4301C25.186 26.4301 25.1374 26.4305 25.0892 26.4308C24.9604 26.432 24.8316 26.4339 24.7029 26.4373C24.6676 26.438 24.6324 26.4392 24.5967 26.4399C24.5422 26.4415 24.4873 26.4434 24.4327 26.4456C24.396 26.4471 24.3593 26.449 24.3225 26.4506C24.1796 26.4566 24.0368 26.4642 23.8939 26.4729C23.7421 26.4828 23.5904 26.4934 23.439 26.5067C23.3388 26.5154 23.2386 26.5249 23.1388 26.5351C22.9888 26.5503 22.8393 26.5673 22.6897 26.5867C22.5402 26.606 22.391 26.6272 22.2422 26.6507C22.201 26.6572 22.1598 26.664 22.1186 26.6712C22.0908 26.6758 22.0634 26.6807 22.0355 26.6856C22.0144 26.6894 21.9932 26.6928 21.9721 26.6966C22.0021 26.5419 22.0366 26.3884 22.0749 26.2356C22.0893 26.178 22.1034 26.1207 22.1175 26.0631C22.1376 26.0066 22.152 25.9482 22.168 25.8906C22.1699 25.8838 22.1717 25.8773 22.1736 25.8705C22.2519 25.6009 22.3409 25.3351 22.44 25.0735C22.5027 24.9075 22.5695 24.7429 22.6404 24.5799C22.6879 24.4707 22.7372 24.3619 22.7881 24.2546C22.9562 23.8994 23.1428 23.554 23.3499 23.22C23.5432 22.9068 23.7536 22.6065 23.9841 22.3207C23.9889 22.315 23.9926 22.3081 23.9971 22.3021C24.0665 22.2209 24.1347 22.1391 24.2056 22.0591C24.4364 21.7978 24.6851 21.5559 24.9604 21.344C25.0283 21.2917 25.0985 21.2424 25.1678 21.192C25.1742 21.1874 25.1819 21.1867 25.1894 21.1863C25.1927 21.1761 25.202 21.1715 25.2098 21.1666C25.3519 21.0737 25.4996 20.991 25.6551 20.9243C25.6606 20.922 25.6658 20.919 25.6718 20.9171C25.6733 20.9167 25.6751 20.9163 25.677 20.916C25.6788 20.916 25.6807 20.9152 25.6825 20.9152C25.707 20.8993 25.7352 20.8913 25.7623 20.8811C25.8172 20.8602 25.8725 20.842 25.9289 20.8261C25.9853 20.8106 26.0421 20.7973 26.1 20.7874C26.1041 20.7867 26.1078 20.7855 26.1119 20.7855C26.1145 20.7855 26.1167 20.7855 26.1189 20.7863C26.1512 20.7757 26.185 20.7745 26.218 20.7711C26.2355 20.7692 26.2529 20.7677 26.27 20.7666C26.2848 20.7658 26.2997 20.7651 26.3145 20.7647C26.3386 20.7643 26.3627 20.7643 26.3869 20.7647C26.4036 20.7651 26.4206 20.7658 26.4373 20.7666C26.4503 20.7673 26.4633 20.7681 26.4763 20.7692C26.4785 20.7692 26.4807 20.7696 26.4826 20.77C26.4867 20.7708 26.4904 20.7719 26.4941 20.7734C26.4978 20.7749 26.5011 20.7768 26.5045 20.7791C26.5093 20.7821 26.5141 20.7863 26.5186 20.7905C26.5301 20.8011 26.5412 20.8121 26.552 20.8231C26.5739 20.8451 26.595 20.8682 26.6151 20.8917C26.6659 20.9505 26.7116 21.013 26.7535 21.0798C26.8559 21.2432 26.9301 21.4198 26.9862 21.6049C27.0036 21.6621 27.0192 21.7197 27.0333 21.7777C27.0567 21.8744 27.0748 21.9726 27.0893 22.0712C27.0934 22.1 27.0975 22.1288 27.1012 22.158C27.1082 22.216 27.1146 22.274 27.1197 22.332C27.122 22.3612 27.1242 22.39 27.1264 22.4192C27.1368 22.5777 27.1413 22.7362 27.1372 22.895C27.1327 23.0611 27.1231 23.2272 27.1068 23.3928C27.0904 23.5574 27.0682 23.7212 27.0414 23.8838C27.0255 23.9816 27.0077 24.0791 26.9884 24.1758C27.0132 24.1777 27.0381 24.1795 27.063 24.1818C27.2415 24.197 27.4196 24.2152 27.5977 24.2319C27.5962 24.23 27.5947 24.2285 27.5929 24.2269C27.7406 24.2455 27.8886 24.2637 28.0363 24.2823C28.0356 24.2838 28.0345 24.2853 28.033 24.2868C28.0419 24.288 28.0508 24.2895 28.0597 24.2906C28.0894 24.1413 28.1161 23.9919 28.1387 23.8414C28.1588 23.7064 28.1766 23.571 28.1903 23.4353C28.2033 23.3083 28.2148 23.1813 28.2208 23.0535C28.2237 22.9921 28.2271 22.9303 28.2308 22.8689C28.2311 22.8609 28.2271 22.8503 28.2393 22.8469C28.2393 22.7324 28.2386 22.6175 28.2382 22.503C28.2323 22.5004 28.2319 22.4951 28.2311 22.4894C28.2297 22.4662 28.2271 22.4435 28.2263 22.4204C28.2219 22.2539 28.207 22.0886 28.1851 21.9241C28.161 21.7417 28.1254 21.562 28.076 21.385C28.0638 21.3406 28.0534 21.2959 28.0341 21.2538L28.03 21.2386C28.03 21.2386 28.0285 21.2375 28.0285 21.2367V21.2352C28.0274 21.2299 28.0267 21.2246 28.0248 21.2193C27.9532 21.0081 27.8597 20.8079 27.7309 20.6259C27.607 20.4504 27.4574 20.3037 27.273 20.1945C27.204 20.1535 27.129 20.1247 27.0581 20.0879C27.0518 20.0845 27.0437 20.0853 27.0363 20.0838C27.0299 20.0754 27.0199 20.0732 27.0114 20.069C26.844 19.9932 26.677 19.9173 26.5093 19.8423C26.4878 19.8324 26.4681 19.818 26.444 19.815C26.4399 19.8134 26.4358 19.8123 26.4318 19.8108C26.4032 19.8013 26.3739 19.7945 26.3464 19.7812C26.3438 19.7805 26.3416 19.7797 26.339 19.7786C26.3379 19.7782 26.3364 19.7778 26.3353 19.7774H26.3345C26.3316 19.7793 26.3297 19.7778 26.3279 19.7752C26.274 19.7611 26.2202 19.7505 26.1657 19.7429C26.1264 19.7372 26.087 19.7331 26.0473 19.7308C26.034 19.73 26.021 19.7297 26.0076 19.7293C25.9679 19.7281 25.9286 19.7285 25.8892 19.7304C25.8369 19.7327 25.785 19.7376 25.733 19.7448C25.6425 19.7577 25.5527 19.777 25.4636 19.8021C25.451 19.8059 25.438 19.8093 25.4254 19.8134C25.258 19.8642 25.0985 19.9329 24.9445 20.014C24.8932 20.0409 24.8424 20.0694 24.7919 20.0993C24.7459 20.1262 24.7006 20.1539 24.6557 20.1831C24.6409 20.1926 24.6261 20.2024 24.6112 20.2123C24.5964 20.2222 24.5815 20.232 24.5671 20.2422C24.5377 20.2623 24.5088 20.2828 24.4802 20.304C24.4661 20.3147 24.4517 20.3253 24.4375 20.3359V20.3389C24.4375 20.3397 24.4368 20.3404 24.4364 20.3412C24.4353 20.3423 24.4338 20.3427 24.4316 20.3427H24.4312V20.3446C24.4312 20.3461 24.4305 20.3469 24.4298 20.3473C24.429 20.3476 24.4283 20.3476 24.4268 20.3473C24.4264 20.3473 24.4257 20.3473 24.4253 20.3465C24.3622 20.3916 24.301 20.4386 24.2412 20.4875C24.2145 20.5092 24.1882 20.5315 24.1622 20.5539C24.1581 20.5573 24.154 20.5611 24.15 20.5645C24.1232 20.5876 24.0965 20.6111 24.0702 20.635V20.6369C24.0702 20.6388 24.0694 20.64 24.0683 20.6411C24.0683 20.6411 24.0676 20.6415 24.0672 20.6419C24.0665 20.6422 24.0654 20.6426 24.0642 20.6426C24.0635 20.6441 24.0624 20.6456 24.0613 20.6468C24.0598 20.6483 24.0587 20.6498 24.0568 20.651C24.0546 20.6525 24.052 20.654 24.049 20.6544C24.049 20.6578 24.0483 20.6597 24.0468 20.6604C24.0446 20.6619 24.0405 20.6608 24.0375 20.6612C24.0275 20.6718 24.0171 20.6824 24.0071 20.6927C24.0063 20.6934 24.006 20.6942 24.0052 20.6946V20.6961C24.0052 20.6976 24.0045 20.6983 24.0038 20.6995H24.0034C24.0034 20.6995 24.0012 20.7006 23.9989 20.7006C23.99 20.7082 23.9804 20.715 23.9718 20.723C23.9711 20.7237 23.9704 20.7241 23.9696 20.7249C23.937 20.7564 23.9039 20.7878 23.8716 20.82C23.8694 20.8223 23.8672 20.8242 23.8653 20.8261C23.8553 20.8363 23.8449 20.8458 23.8345 20.8557C23.8086 20.8803 23.7818 20.9042 23.757 20.93C23.7436 20.944 23.7299 20.958 23.7165 20.9717C23.6393 21.0517 23.5629 21.1325 23.4891 21.2159C23.3948 21.3224 23.3031 21.4308 23.2141 21.5415C23.2015 21.5575 23.1885 21.573 23.1759 21.5889C23.174 21.5912 23.1718 21.5939 23.1703 21.5965C23.1677 21.6003 23.1651 21.6041 23.1625 21.6083C23.1592 21.6136 23.1558 21.6189 23.1525 21.6238C23.1499 21.6276 23.1473 21.631 23.1443 21.6348C23.1432 21.6359 23.1425 21.6371 23.1417 21.6378C23.1376 21.6424 23.1336 21.6466 23.1287 21.65C23.1287 21.6511 23.1284 21.6515 23.128 21.6522C23.128 21.653 23.128 21.6538 23.1273 21.6545C23.1273 21.6549 23.1265 21.6553 23.1261 21.6557C23.1254 21.656 23.1243 21.6564 23.1235 21.6568C23.1213 21.6674 23.1128 21.6727 23.1057 21.6795C23.1054 21.6795 23.105 21.6803 23.1046 21.6807C23.1024 21.6826 23.1009 21.6848 23.0994 21.6871C23.0987 21.6883 23.0979 21.6894 23.0976 21.6909C23.0972 21.6924 23.0965 21.6936 23.0961 21.6951V21.697C23.0961 21.6989 23.0953 21.7 23.0939 21.7012C23.0939 21.7012 23.0931 21.7012 23.0931 21.7015H23.0916H23.0901C23.0738 21.7224 23.0571 21.7432 23.0408 21.7641C23.04 21.7652 23.0389 21.7664 23.0382 21.7675C23.0386 21.7702 23.0386 21.7724 23.0382 21.7747C23.0382 21.7766 23.0371 21.7777 23.0363 21.7793C23.0363 21.7796 23.0356 21.7804 23.0356 21.7808C23.0345 21.7819 23.033 21.7834 23.0315 21.7842C23.0297 21.7853 23.0274 21.7861 23.0252 21.7868C23.0226 21.7899 23.02 21.7925 23.0174 21.7956C23.0163 21.7967 23.0156 21.7978 23.0148 21.7986C23.0126 21.8009 23.0107 21.8035 23.0089 21.8058C22.9669 21.8634 22.925 21.9214 22.8831 21.9791C22.8831 21.981 22.8823 21.9821 22.8812 21.9832C22.8812 21.9832 22.8809 21.9836 22.8805 21.984C22.8797 21.9847 22.8786 21.9851 22.8775 21.9851C22.8486 22.0268 22.8189 22.0682 22.7903 22.1102C22.7847 22.1186 22.7792 22.1269 22.7736 22.1353C22.7309 22.1993 22.6909 22.2653 22.6478 22.329C22.6263 22.3608 22.6059 22.3934 22.5855 22.4257C22.5647 22.4579 22.5439 22.4901 22.5213 22.5216C22.4853 22.572 22.4545 22.627 22.4229 22.6805C22.4092 22.7036 22.3955 22.7267 22.3821 22.7498C22.2296 23.0084 22.0815 23.2696 21.9554 23.543C21.9479 23.5589 21.9394 23.5737 21.9309 23.5889C21.9223 23.6036 21.9134 23.6188 21.906 23.634C21.863 23.7223 21.821 23.811 21.7802 23.9005C21.765 23.9339 21.7502 23.9672 21.7349 24.001C21.7153 24.0446 21.696 24.0886 21.6771 24.1325C21.6529 24.1883 21.6288 24.2444 21.6051 24.3009C21.595 24.3244 21.5854 24.3483 21.5757 24.3721C21.5635 24.4017 21.5513 24.4313 21.5394 24.4612C21.4971 24.5663 21.4563 24.6724 21.4166 24.7786C21.405 24.8097 21.3935 24.8408 21.3824 24.8722C21.3553 24.9481 21.329 25.0239 21.3026 25.1001C21.2963 25.1183 21.29 25.1365 21.2837 25.1547C21.2789 25.1687 21.2741 25.1831 21.2696 25.1975C21.2574 25.2335 21.2459 25.2699 21.2347 25.3063C21.221 25.3507 21.2076 25.395 21.1943 25.4394C21.1846 25.4713 21.175 25.5027 21.165 25.5346C21.1423 25.6055 21.116 25.6756 21.1071 25.7503C21.1067 25.7541 21.1022 25.7575 21.1 25.7609C21.0889 25.792 21.0822 25.8238 21.0748 25.8557C21.0711 25.8709 21.0666 25.886 21.0622 25.9012C21.0577 25.9164 21.0533 25.9315 21.0492 25.9467C21.0321 26.0119 21.0154 26.0775 20.9998 26.1431C20.9854 26.2022 20.9716 26.2621 20.9583 26.3217C20.9434 26.3888 20.9293 26.4559 20.9156 26.523C20.9037 26.5817 20.8922 26.6409 20.8814 26.7C20.8729 26.747 20.8644 26.7937 20.8566 26.8407C20.8495 26.882 20.8432 26.9233 20.8365 26.9647C20.8284 27.0174 20.8206 27.0697 20.8135 27.1224C20.8072 27.1698 20.8013 27.2168 20.7954 27.2642C20.7798 27.3942 20.7672 27.5243 20.7571 27.6551C20.7545 27.6926 20.7519 27.7298 20.7501 27.7673C20.7479 27.8048 20.746 27.842 20.7445 27.8795C20.7415 27.9542 20.7393 28.0293 20.7371 28.104C20.7367 28.121 20.7367 28.1381 20.7364 28.1551V28.1707C20.736 28.2666 20.7397 28.3621 20.7427 28.4573C20.7427 28.4615 20.7434 28.466 20.7434 28.4702C20.7441 28.4873 20.7449 28.5043 20.746 28.5214C20.7493 28.5904 20.7549 28.6594 20.762 28.7284C20.7668 28.775 20.772 28.822 20.7779 28.8687C20.7787 28.8755 20.7798 28.8819 20.7805 28.8888C20.7931 28.9835 20.8076 29.078 20.8258 29.1716C20.8596 29.3468 20.9045 29.5189 20.9661 29.6861C20.9672 29.6887 20.9683 29.6918 20.9694 29.6948C21.0154 29.8184 21.0688 29.9386 21.1345 30.0531C21.2425 30.2415 21.3742 30.4083 21.5423 30.5414C21.5624 30.5573 21.5828 30.5725 21.6036 30.5877C21.6236 30.6017 21.6451 30.6146 21.6659 30.6275C21.6696 30.6301 21.6741 30.632 21.6782 30.6339C21.6811 30.6354 21.6841 30.6366 21.6871 30.6381C21.6923 30.6407 21.6971 30.6442 21.7004 30.6491C21.7015 30.6506 21.7027 30.6529 21.7038 30.6551V30.6544C21.7093 30.6536 21.7142 30.6548 21.7168 30.6608H21.7171C21.7223 30.6608 21.7271 30.6624 21.7297 30.6673C21.7312 30.6673 21.7323 30.6673 21.7335 30.6677H21.7338C21.7372 30.6684 21.7401 30.6699 21.7424 30.6733V30.6737H21.7435H21.7457C21.7464 30.6737 21.7468 30.6741 21.7479 30.6741C21.7483 30.6741 21.749 30.6741 21.7494 30.6745C21.7502 30.6745 21.7509 30.6752 21.7516 30.6756C21.7516 30.6756 21.7524 30.6756 21.7528 30.676C21.7535 30.6768 21.7542 30.6775 21.755 30.6783H21.7554C21.7624 30.6859 21.7721 30.6878 21.781 30.6919C21.9661 30.7757 22.1517 30.8595 22.3368 30.9433C22.4285 30.9846 22.5194 31.0282 22.6163 31.0555C22.7131 31.0828 22.8115 31.1014 22.912 31.1056H22.9621H23.1124C23.161 31.104 23.2093 31.0976 23.2571 31.09C23.4519 31.0601 23.639 31.0013 23.8197 30.9221C24.1507 30.7768 24.4494 30.5786 24.7296 30.3492C24.7912 30.2988 24.8513 30.2468 24.9111 30.1941C25.1192 30.1979 25.327 30.199 25.5352 30.1968C25.7334 30.1945 25.9319 30.1911 26.1301 30.1831C26.1397 30.1774 26.1501 30.1774 26.1605 30.1816H26.1694C26.1813 30.1759 26.1935 30.1763 26.2058 30.1801H26.2147C26.2217 30.1755 26.2291 30.1748 26.2366 30.1763H26.2373H26.2377C26.2403 30.1771 26.2425 30.1778 26.2447 30.1786H26.2536C26.2585 30.1755 26.2633 30.1744 26.2681 30.174C26.2733 30.174 26.2785 30.1752 26.2841 30.1767H26.293C26.2963 30.1748 26.2997 30.1736 26.303 30.1729C26.3097 30.1714 26.3167 30.1721 26.3238 30.1748H26.3323C26.3323 30.1748 26.333 30.1748 26.3334 30.1744C26.3431 30.1695 26.3531 30.1695 26.3627 30.1733H26.3713C26.3813 30.1668 26.3913 30.1676 26.4021 30.1714H26.4106C26.4206 30.1653 26.431 30.1661 26.4414 30.1695H26.4499C26.4522 30.168 26.454 30.1672 26.4559 30.1664C26.4592 30.1653 26.4622 30.1653 26.4655 30.1653C26.4685 30.1653 26.4718 30.1661 26.4748 30.1676C26.5201 30.1653 26.565 30.1638 26.6102 30.1611C26.9568 30.1403 27.3023 30.1122 27.6474 30.0732C28.1714 30.0137 28.692 29.9337 29.2064 29.8139C29.5567 29.7323 29.9021 29.6345 30.2361 29.4969C30.4153 29.423 30.5894 29.3384 30.7504 29.2277C30.8473 29.161 30.9371 29.0859 31.0091 28.99C31.0544 28.929 31.0911 28.8634 31.1052 28.7868C31.1108 28.7807 31.113 28.7735 31.1134 28.7659C31.1167 28.711 31.1186 28.6564 31.1137 28.6014L31.1108 28.6018ZM26.4592 27.442C26.3627 27.4359 26.2666 27.4306 26.1701 27.4264C26.2666 27.431 26.3627 27.4363 26.4592 27.442ZM24.3192 29.2319C24.3036 29.2459 24.288 29.2603 24.2724 29.2743C24.1629 29.3725 24.0501 29.4654 23.9325 29.5522C23.8149 29.6387 23.6928 29.7191 23.5651 29.7907C23.5469 29.801 23.5284 29.8112 23.5098 29.8211C23.4672 29.8438 23.4241 29.8654 23.3807 29.8863C23.3373 29.9067 23.2931 29.9257 23.2486 29.9435C23.1595 29.9792 23.0682 30.0087 22.974 30.0315C22.9332 30.0413 22.8924 30.0497 22.8515 30.0561C22.8371 30.0584 22.8226 30.0607 22.8085 30.0629C22.7528 30.0705 22.6972 30.0751 22.6411 30.0766C22.6226 30.077 22.6037 30.0773 22.5851 30.077C22.5662 30.077 22.5476 30.0762 22.5287 30.0755C22.5205 30.0751 22.5127 30.0739 22.5046 30.0732C22.4968 30.0724 22.4886 30.0713 22.4805 30.0705C22.4701 30.0698 22.4623 30.0652 22.4545 30.0584C22.4322 30.0379 22.4111 30.0167 22.3903 29.9947C22.3595 29.9621 22.3302 29.928 22.3027 29.8927C22.2845 29.8692 22.2667 29.8449 22.2496 29.8199C22.2411 29.8074 22.2329 29.7949 22.2248 29.7824C22.224 29.7812 22.2237 29.7801 22.2233 29.779C22.2229 29.7771 22.2222 29.7748 22.2218 29.7729C22.2185 29.7695 22.214 29.7661 22.2114 29.7623L22.2107 29.7615C22.1725 29.6997 22.1379 29.636 22.1068 29.5704C22.0912 29.5375 22.0763 29.5049 22.0626 29.4711C22.0485 29.4378 22.0355 29.4036 22.0233 29.3691C22.0218 29.365 22.0222 29.3608 22.0214 29.3562C21.9999 29.3153 21.9891 29.2706 21.9758 29.227C21.9461 29.1295 21.9227 29.0306 21.9034 28.9305C21.9001 28.9126 21.8967 28.8952 21.8934 28.8774C21.8919 28.8702 21.8912 28.8634 21.8897 28.8562C21.8882 28.8474 21.8863 28.8387 21.8849 28.83C21.8849 28.8277 21.8849 28.8258 21.8841 28.8236C21.8834 28.816 21.883 28.808 21.8823 28.8004C21.8696 28.7447 21.8641 28.6878 21.8578 28.631C21.8362 28.4497 21.8281 28.2677 21.8277 28.0858C21.8277 28.0171 21.8285 27.9481 21.8303 27.8791C21.8314 27.8382 21.8333 27.7976 21.8355 27.7571C21.9821 27.7214 22.1298 27.6899 22.2778 27.6611C22.5309 27.6122 22.7855 27.5724 23.0408 27.5402C23.0449 27.5398 23.049 27.539 23.053 27.5387C23.0579 27.5379 23.0627 27.5375 23.0675 27.5379C23.0705 27.5379 23.0734 27.5387 23.0764 27.5394C23.1161 27.5307 23.1566 27.5262 23.197 27.522C23.2156 27.5201 23.2341 27.5182 23.2523 27.5163C23.5328 27.4845 23.8138 27.4602 24.095 27.4427C24.1741 27.4378 24.2531 27.4333 24.3318 27.4295C24.5337 27.4196 24.7355 27.4132 24.9374 27.4094C25.048 27.4071 25.1586 27.406 25.2691 27.406C25.4269 27.406 25.5846 27.4079 25.7419 27.4117C25.7078 27.4697 25.6733 27.5277 25.638 27.5849C25.6124 27.627 25.5864 27.6687 25.5601 27.71C25.513 27.784 25.4651 27.8571 25.4161 27.9299C25.3256 28.0641 25.2317 28.1957 25.1341 28.3246C25.1033 28.3656 25.0721 28.4061 25.0402 28.4463C25.0346 28.4535 25.0291 28.4607 25.0235 28.4675C24.9775 28.5259 24.9307 28.5832 24.8829 28.6397C24.8031 28.7341 24.7211 28.8262 24.6368 28.9164C24.6112 28.9437 24.5856 28.971 24.5596 28.998C24.4928 29.067 24.4238 29.1344 24.3533 29.2C24.3418 29.2106 24.3303 29.2216 24.3188 29.2323L24.3192 29.2319ZM24.6947 29.2137C24.7763 29.2163 24.8584 29.2186 24.94 29.2201C24.858 29.2186 24.7763 29.2163 24.6947 29.2137ZM30.091 28.3258C30.0888 28.3288 30.0851 28.3318 30.0791 28.3364C30.0714 28.3424 30.0636 28.3489 30.0554 28.3546C30.0476 28.3606 30.0394 28.3663 30.0313 28.3724C30.0161 28.3834 30.0005 28.394 29.9845 28.4042C29.9827 28.4054 29.9808 28.4065 29.979 28.408C29.966 28.4164 29.953 28.4247 29.9396 28.4327C29.9199 28.4448 29.9007 28.4562 29.8806 28.4675C29.7448 28.5449 29.6019 28.6071 29.4561 28.662C29.3184 28.7136 29.1789 28.7587 29.0383 28.7989C28.8368 28.8565 28.6327 28.9043 28.4267 28.946C28.2267 28.987 28.0259 29.0215 27.8244 29.0514C27.6229 29.0814 27.4207 29.1064 27.2181 29.128C27.1517 29.1352 27.0852 29.1416 27.0188 29.1481C26.8856 29.1606 26.7524 29.1712 26.6192 29.1803C26.5524 29.1849 26.4856 29.189 26.4191 29.1928C26.2696 29.2016 26.12 29.208 25.9705 29.2129C25.9434 29.2137 25.9163 29.2148 25.8889 29.2156C25.864 29.2163 25.8391 29.2171 25.8139 29.2179C25.8751 29.1405 25.9364 29.0635 25.9924 28.982C26.0006 28.9718 26.0087 28.9616 26.0165 28.9509C26.1364 28.786 26.2514 28.6181 26.362 28.4471C26.3679 28.4376 26.3987 28.3898 26.408 28.375C26.4781 28.2647 26.5461 28.1532 26.6125 28.0403C26.7208 27.8552 26.8244 27.6676 26.9227 27.4773C27.1105 27.4939 27.2979 27.5133 27.4853 27.5368C27.499 27.5383 27.5127 27.5413 27.5268 27.5436C27.6107 27.5497 27.6938 27.5626 27.7766 27.5751C27.8831 27.591 27.9896 27.6084 28.0957 27.6266C28.2389 27.6513 28.3822 27.6786 28.5243 27.71C28.6011 27.7271 28.6776 27.7445 28.7544 27.7616C28.7551 27.7616 28.7562 27.7616 28.757 27.762C28.7577 27.762 28.7585 27.762 28.7596 27.7624C28.7644 27.7631 28.77 27.7631 28.7752 27.7639C28.7818 27.7646 28.7885 27.7665 28.7937 27.7722C28.9577 27.8151 29.1214 27.8602 29.2821 27.9144C29.2969 27.9193 29.314 27.9208 29.3255 27.9337C29.3674 27.9413 29.4056 27.9591 29.445 27.9739C29.4795 27.9868 29.514 28.0005 29.5481 28.0145C29.6457 28.0539 29.7415 28.0975 29.8342 28.1479C29.871 28.1677 29.907 28.1885 29.9426 28.2105C29.9897 28.2397 30.0357 28.2704 30.0788 28.3057C30.0914 28.3159 30.0951 28.3201 30.0903 28.3261L30.091 28.3258Z" fill="#007FFF"/>
<path fill-rule="evenodd" clip-rule="evenodd" d="M31.1143 25.593C31.1098 25.5023 31.0761 25.4224 31.0245 25.3496C30.9518 25.2461 30.8579 25.1653 30.7562 25.094C30.5829 24.9727 30.3933 24.8836 30.1992 24.804C30.0912 24.7596 29.9817 24.7202 29.8712 24.6838C29.7027 24.6284 29.5316 24.5811 29.3598 24.5378C29.1449 24.484 28.929 24.4374 28.7115 24.3968C28.579 24.3722 28.4462 24.3483 28.313 24.3286C28.3089 24.3286 28.3048 24.3282 28.3007 24.3278C28.2985 24.3278 28.2959 24.3274 28.2937 24.327C28.2889 24.3267 28.2837 24.3259 28.2788 24.3255C28.2677 24.324 28.2562 24.3217 28.2454 24.3191C28.2057 24.3126 28.1664 24.3062 28.1267 24.2994C28.1037 24.2959 28.0807 24.2925 28.0577 24.2895C28.0488 24.288 28.0399 24.2868 28.031 24.2857C27.9393 24.2743 27.8473 24.2633 27.7556 24.2512C27.7289 24.2478 27.7022 24.2455 27.6755 24.2425C27.6487 24.2398 27.622 24.2364 27.5957 24.2311C27.4175 24.2141 27.2394 24.1959 27.0609 24.1811C27.0361 24.1792 27.0112 24.1769 26.9863 24.175C26.8327 24.1625 26.6791 24.1519 26.5251 24.1443C26.4512 24.1409 26.377 24.1367 26.3028 24.1329C26.2468 24.1303 26.1904 24.1272 26.1343 24.125C26.0059 24.12 25.8779 24.117 25.7495 24.1143C25.7017 24.1132 25.6538 24.1124 25.6063 24.1117C25.6063 24.1117 25.6942 23.75 25.7295 23.5673C25.7562 23.4304 25.7792 23.2928 25.7996 23.1548C25.813 23.0622 25.8249 22.9697 25.8352 22.8768C25.846 22.7798 25.8545 22.6824 25.8605 22.5845C25.8668 22.4803 25.8709 22.3756 25.8731 22.2714C25.8757 22.1315 25.8712 21.992 25.8612 21.8524C25.8545 21.7603 25.846 21.6686 25.8345 21.5768C25.8189 21.4513 25.7967 21.3273 25.7673 21.2045C25.744 21.1063 25.7172 21.0085 25.6816 20.9137C25.6798 20.9137 25.6779 20.9137 25.6761 20.9145C25.6742 20.9145 25.6723 20.9152 25.6709 20.9156C25.6649 20.9175 25.6597 20.9205 25.6542 20.9228C25.4983 20.9895 25.351 21.0726 25.2089 21.1651C25.2007 21.1704 25.1918 21.1745 25.1884 21.1848C25.2226 21.4051 25.2385 21.6265 25.2404 21.8494C25.2434 22.1682 25.2204 22.4852 25.1777 22.801C25.1454 23.0387 25.1027 23.2746 25.0508 23.5089C25.0059 23.7121 24.9539 23.9134 24.896 24.1128C24.7561 24.1143 24.6159 24.1189 24.476 24.1234C24.2897 24.1299 24.1034 24.1386 23.9175 24.1507C23.7535 24.1614 23.5891 24.1723 23.4251 24.1868C23.2121 24.2057 22.9994 24.2269 22.7875 24.2535C22.7367 24.3612 22.6873 24.4696 22.6398 24.5788C22.569 24.7418 22.5022 24.9064 22.4395 25.0724C22.4424 25.072 22.445 25.0717 22.448 25.0713C22.6955 25.0356 22.9441 25.0061 23.1928 24.9807C23.264 24.9735 23.3353 24.9647 23.4069 24.9583C23.5835 24.9431 23.7605 24.9329 23.9375 24.9215C24.1676 24.9064 24.398 24.8969 24.6289 24.89H24.6374C24.8337 24.8844 25.03 24.8817 25.2267 24.8813C25.276 24.8813 25.3254 24.8813 25.3751 24.8817C25.4872 24.8821 25.5996 24.8832 25.7117 24.8851C25.839 24.8874 25.9659 24.8923 26.0931 24.8969H26.0965C26.2182 24.9014 26.3399 24.906 26.4616 24.912C26.5551 24.9166 26.6487 24.9234 26.7422 24.9306C26.7622 24.9321 26.7823 24.9336 26.8023 24.9352C26.9426 24.9454 27.0825 24.956 27.2227 24.967C27.2572 24.9697 27.2914 24.9746 27.3259 24.978C27.5114 24.9947 27.6966 25.0159 27.8814 25.0402C27.9642 25.0508 28.0465 25.0622 28.1293 25.0735C28.3033 25.0982 28.477 25.1278 28.6499 25.1585C28.8165 25.1884 28.9828 25.2222 29.1475 25.2605C29.2926 25.2942 29.437 25.331 29.5802 25.3708C29.7684 25.4231 29.9532 25.4842 30.1357 25.5532C30.2935 25.6131 30.446 25.6836 30.5937 25.7658C30.6953 25.8227 30.7918 25.8864 30.8798 25.9638C30.9595 26.0339 31.0293 26.1128 31.0757 26.2113C31.0943 26.2504 31.1028 26.2925 31.1147 26.3334C31.115 26.2519 31.1158 26.1704 31.1161 26.0889V25.7257C31.1161 25.6817 31.1176 25.6373 31.1154 25.5937L31.1143 25.593Z" fill="#FF1100"/>
<path fill-rule="evenodd" clip-rule="evenodd" d="M26.3427 19.7664C26.1594 19.683 25.9757 19.6 25.7924 19.5162C25.7849 19.5128 25.7775 19.5154 25.7708 19.5113C25.7645 19.5128 25.7578 19.5143 25.7552 19.506C25.7478 19.5094 25.7408 19.506 25.7337 19.5033C25.573 19.454 25.4087 19.4389 25.2413 19.4476C25.0198 19.4593 24.8075 19.5147 24.6012 19.5962C24.5362 19.6216 24.4724 19.6497 24.4101 19.6796C24.3945 19.6872 24.3789 19.6948 24.3633 19.7027C24.3451 19.7118 24.3269 19.7209 24.3091 19.7308C24.285 19.7433 24.2613 19.7562 24.2371 19.7695C24.1121 19.8392 23.9907 19.9169 23.8731 20.0004C23.8486 20.0178 23.8241 20.0352 23.8 20.0531L23.7855 20.0637C23.7276 20.1069 23.6709 20.1509 23.6152 20.1964C23.4757 20.3097 23.3417 20.4303 23.2122 20.5565C22.8526 20.9072 22.5331 21.2943 22.2407 21.7046C22.2333 21.7152 22.2259 21.7262 22.2184 21.7368C22.211 21.7474 22.2177 21.7394 22.217 21.7402C22.2162 21.741 22.2151 21.7413 22.2136 21.7417C22.1873 21.78 22.1613 21.8179 22.1349 21.8562C22.0912 21.9199 22.0481 21.9836 22.0058 22.0484C21.9657 22.1099 21.926 22.172 21.8871 22.2342C21.8559 22.2835 21.8255 22.3332 21.7954 22.3832C21.7687 22.4279 21.742 22.4723 21.7156 22.517C21.6785 22.5804 21.6418 22.6441 21.6054 22.7085C21.5872 22.7407 21.5694 22.7726 21.5516 22.8052C21.5497 22.809 21.5471 22.8124 21.5449 22.8162C21.5449 22.8204 21.5434 22.8238 21.542 22.8272C21.5405 22.8295 21.539 22.8321 21.5379 22.8344C21.5212 22.8647 21.5048 22.8954 21.4885 22.9261C21.4269 23.041 21.3668 23.157 21.3089 23.2738C21.2844 23.3231 21.2603 23.3727 21.2366 23.4224C21.1082 23.6908 20.989 23.9634 20.8796 24.2398C20.8213 24.3866 20.766 24.5344 20.7133 24.683C20.6855 24.7619 20.658 24.8411 20.6317 24.9208C20.5831 25.0679 20.5385 25.2161 20.4951 25.3647C20.4773 25.4258 20.4599 25.4872 20.4432 25.5486C20.4428 25.5501 20.4424 25.5516 20.4421 25.5531C20.4157 25.6494 20.3912 25.7461 20.3682 25.8432C20.3471 25.9304 20.3267 26.018 20.3077 26.1059C20.2914 26.181 20.2766 26.2564 20.2617 26.3319C20.2584 26.3497 20.255 26.3675 20.2517 26.3857C20.2502 26.3929 20.2491 26.4001 20.2476 26.4073C20.2472 26.41 20.2465 26.4126 20.2461 26.4157C20.2435 26.4301 20.2406 26.4441 20.238 26.4585C20.2168 26.5764 20.1979 26.6947 20.1816 26.8138C20.1656 26.9286 20.1515 27.0431 20.1396 27.1584C20.137 27.1842 20.1348 27.21 20.1322 27.2357C20.1322 27.2376 20.1318 27.2395 20.1318 27.2414C20.13 27.2611 20.1289 27.2752 20.1274 27.2892C20.1222 27.3533 20.1177 27.4177 20.114 27.4818C20.1103 27.5463 20.1073 27.6107 20.1055 27.6752C20.1055 27.6835 20.1055 27.6918 20.1047 27.7002C20.101 27.8242 20.1003 27.9478 20.104 28.0714C20.1077 28.1881 20.114 28.3045 20.1248 28.4209C20.1352 28.5369 20.1496 28.6526 20.1693 28.7682C20.179 28.8247 20.1894 28.8808 20.2012 28.9365C20.2406 29.1246 20.2936 29.3088 20.3664 29.487C20.3716 29.4995 20.3764 29.5117 20.3819 29.5242C20.3871 29.5363 20.3927 29.5488 20.3979 29.561C20.4105 29.5898 20.4239 29.6182 20.4376 29.6463C20.4606 29.6933 20.4851 29.7392 20.5111 29.7839C20.5823 29.9067 20.6662 30.0209 20.7656 30.124C20.7916 30.1513 20.8187 30.1771 20.8465 30.2017C20.8989 30.2483 20.9545 30.2912 21.0139 30.3295C21.025 30.3367 21.038 30.3408 21.0462 30.3518C21.0473 30.3534 21.0484 30.3553 21.0492 30.3571C21.0547 30.356 21.0588 30.3571 21.0603 30.3632C21.0833 30.3689 21.1018 30.3848 21.123 30.3943C21.2358 30.4455 21.3482 30.4967 21.4611 30.5479C21.5253 30.577 21.5898 30.6055 21.6544 30.6343L21.6626 30.6267C21.6418 30.6134 21.6203 30.6009 21.6002 30.5869C21.5791 30.5721 21.559 30.5566 21.539 30.5406C21.3709 30.4072 21.2391 30.2408 21.1312 30.0523C21.0655 29.9378 21.012 29.8176 20.966 29.694C20.9649 29.691 20.9638 29.6884 20.9627 29.6853C20.9011 29.5181 20.8562 29.346 20.8224 29.1708C20.8042 29.0772 20.7898 28.9828 20.7771 28.888C20.7764 28.8812 20.7753 28.8747 20.7746 28.8679C20.7686 28.8213 20.7634 28.7743 20.7586 28.7276C20.7515 28.6586 20.7463 28.59 20.7426 28.5206C20.7419 28.5036 20.7408 28.4865 20.74 28.4694C20.74 28.4653 20.7397 28.4607 20.7393 28.4566C20.736 28.361 20.7326 28.2655 20.733 28.1699V28.1544C20.733 28.1373 20.733 28.1203 20.7337 28.1032C20.736 28.0281 20.7382 27.9534 20.7412 27.8788C20.7426 27.8412 20.7445 27.8041 20.7467 27.7665C20.7489 27.729 20.7512 27.6918 20.7538 27.6543C20.7634 27.5235 20.7764 27.3935 20.792 27.2634C20.7976 27.216 20.8035 27.169 20.8102 27.1216C20.8172 27.0689 20.825 27.0162 20.8332 26.9639C20.8395 26.9226 20.8462 26.8813 20.8532 26.8399C20.861 26.7929 20.8695 26.7463 20.8781 26.6993C20.8888 26.6401 20.9003 26.5814 20.9122 26.5222C20.926 26.4551 20.9401 26.3876 20.9549 26.3209C20.9683 26.2614 20.982 26.2018 20.9965 26.1423C21.0124 26.0767 21.0287 26.0111 21.0458 25.9459C21.0499 25.9308 21.0543 25.9156 21.0588 25.9004C21.0633 25.8853 21.0677 25.8701 21.0714 25.8549C21.0792 25.8231 21.0855 25.7912 21.0967 25.7602C21.0993 25.7567 21.1033 25.7533 21.1037 25.7495C21.1126 25.6745 21.139 25.6043 21.1616 25.5338C21.1716 25.5023 21.1813 25.4705 21.1909 25.4386C21.2043 25.3943 21.2176 25.3499 21.2314 25.3056C21.2425 25.2692 21.254 25.2328 21.2662 25.1968C21.2711 25.1827 21.2755 25.1683 21.2803 25.1539C21.2866 25.1357 21.293 25.1175 21.2993 25.0993C21.326 25.0235 21.352 24.9473 21.379 24.8715C21.3902 24.8404 21.4017 24.8089 21.4132 24.7778C21.4529 24.6713 21.4937 24.5655 21.536 24.4605C21.5479 24.4305 21.5601 24.401 21.5724 24.3714C21.5824 24.3475 21.5921 24.324 21.6017 24.3001C21.6254 24.244 21.6496 24.1879 21.6737 24.1318C21.6926 24.0878 21.7119 24.0442 21.7316 24.0002C21.7464 23.9665 21.7616 23.9335 21.7769 23.8997C21.8177 23.8103 21.8592 23.7216 21.9026 23.6332C21.9101 23.6177 21.919 23.6029 21.9275 23.5881C21.936 23.5733 21.9446 23.5581 21.952 23.5422C22.0782 23.2689 22.2262 23.0076 22.3787 22.7491C22.3925 22.7259 22.4058 22.7028 22.4196 22.6797C22.4515 22.6259 22.4819 22.5713 22.5179 22.5208C22.5405 22.4894 22.5613 22.4575 22.5821 22.4249C22.6029 22.3927 22.6233 22.3601 22.6444 22.3282C22.6875 22.2645 22.7276 22.1986 22.7702 22.1345C22.7758 22.1262 22.7814 22.1178 22.7869 22.1095C22.8155 22.0674 22.8452 22.0261 22.8741 21.9844V21.9832V21.9821C22.8741 21.9821 22.8764 21.9798 22.8775 21.9791C22.8782 21.9791 22.879 21.9783 22.8797 21.9783C22.9216 21.9207 22.9636 21.8627 23.0055 21.805C23.0074 21.8024 23.0096 21.8001 23.0114 21.7978C23.0126 21.7967 23.0133 21.7956 23.014 21.7948C23.0166 21.7918 23.0192 21.7891 23.0218 21.7861V21.7823C23.0218 21.7811 23.0218 21.78 23.0222 21.7793C23.023 21.777 23.0237 21.7755 23.0248 21.7739C23.0259 21.7724 23.0278 21.7713 23.0293 21.7698C23.0311 21.7686 23.033 21.7675 23.0348 21.7664C23.0359 21.7652 23.0367 21.7641 23.0374 21.7629C23.0538 21.7421 23.0705 21.7212 23.0868 21.7004C23.0886 21.6981 23.0905 21.6955 23.0923 21.6932C23.0923 21.6917 23.0931 21.6905 23.0938 21.689C23.0942 21.6879 23.0949 21.6864 23.0957 21.6852C23.0972 21.683 23.099 21.6807 23.1009 21.6788C23.1009 21.6784 23.1016 21.678 23.102 21.6776C23.109 21.6708 23.1179 21.6651 23.1198 21.6549V21.653C23.1198 21.6511 23.1213 21.6496 23.1228 21.6488C23.1235 21.6488 23.1243 21.6485 23.125 21.6481C23.1298 21.6443 23.1343 21.6405 23.138 21.6359C23.1391 21.6348 23.1398 21.6337 23.1406 21.6329C23.1436 21.6295 23.1462 21.6257 23.1487 21.6219C23.1521 21.617 23.1554 21.6117 23.1588 21.6064C23.1614 21.6026 23.164 21.5984 23.1666 21.5946C23.1684 21.592 23.1703 21.5893 23.1721 21.587C23.1847 21.5711 23.1977 21.5552 23.2103 21.5396C23.2994 21.4286 23.3911 21.3201 23.4853 21.214C23.5592 21.1306 23.6356 21.0498 23.7128 20.9698C23.7262 20.9558 23.7399 20.9417 23.7532 20.9281C23.7785 20.9023 23.8048 20.8784 23.8308 20.8538C23.8412 20.8439 23.8516 20.8345 23.8616 20.8242C23.8638 20.8223 23.8657 20.82 23.8679 20.8181C23.9002 20.7863 23.9332 20.7545 23.9659 20.723C23.9666 20.7222 23.9674 20.7218 23.9681 20.7211C23.9766 20.7131 23.9863 20.7059 23.9952 20.6987C23.9974 20.6968 23.9993 20.6949 24.0015 20.6927C24.0022 20.6919 24.0026 20.6915 24.0034 20.6908C24.0134 20.6801 24.0238 20.6699 24.0338 20.6593C24.0353 20.657 24.0368 20.6555 24.0386 20.6544C24.0405 20.6532 24.0427 20.6525 24.0453 20.6525C24.0483 20.6521 24.0509 20.6506 24.0531 20.6491C24.0546 20.6479 24.0561 20.6464 24.0575 20.6449C24.0586 20.6437 24.0594 20.6422 24.0605 20.6407C24.0624 20.6384 24.0646 20.6358 24.0664 20.6335C24.0928 20.6096 24.1191 20.5861 24.1462 20.563C24.1503 20.5596 24.1544 20.5562 24.1585 20.5524C24.1844 20.53 24.2108 20.508 24.2375 20.486C24.2973 20.4371 24.3589 20.3897 24.4216 20.345C24.4238 20.3439 24.4257 20.3427 24.4279 20.3416H24.4282C24.4301 20.3389 24.4323 20.3366 24.4346 20.3348C24.4487 20.3241 24.4631 20.3131 24.4772 20.3029C24.5058 20.2817 24.5351 20.2612 24.5641 20.2411C24.5785 20.2312 24.5934 20.221 24.6082 20.2115C24.6231 20.2017 24.6379 20.1918 24.6528 20.1823C24.6977 20.1535 24.7429 20.1255 24.7889 20.0986C24.839 20.069 24.8902 20.0405 24.9415 20.0132C25.0958 19.9321 25.2554 19.8635 25.4224 19.8127C25.435 19.8089 25.448 19.8051 25.4606 19.8013C25.5497 19.7759 25.6391 19.7566 25.73 19.7441C25.7816 19.7369 25.8339 19.7319 25.8862 19.7297C25.9256 19.7278 25.9649 19.7274 26.0046 19.7285C26.018 19.7289 26.031 19.7293 26.0443 19.73C26.084 19.7323 26.1234 19.7365 26.1627 19.7422C26.2172 19.7497 26.2711 19.7604 26.3249 19.7744C26.3263 19.774 26.3275 19.7736 26.3289 19.7744C26.3304 19.7744 26.3315 19.7755 26.3323 19.7767C26.3334 19.777 26.3349 19.7774 26.336 19.7778C26.3386 19.7786 26.3408 19.7793 26.3434 19.7805C26.3434 19.7767 26.3438 19.7729 26.3442 19.7691C26.3434 19.7683 26.3427 19.7676 26.3416 19.7672L26.3427 19.7664Z" fill="#F1ECE2"/>
<path fill-rule="evenodd" clip-rule="evenodd" d="M25.7554 19.5056C25.7528 19.4938 25.7417 19.4927 25.7335 19.4889C25.5755 19.4173 25.4174 19.3452 25.2585 19.2743C25.2162 19.2554 25.1754 19.2334 25.1316 19.2182C25.1268 19.2212 25.1216 19.2209 25.1164 19.219C25.0077 19.1826 24.8949 19.1644 24.7813 19.1572C24.6771 19.1507 24.5724 19.1572 24.4689 19.1712C24.3835 19.183 24.2997 19.2011 24.2165 19.2239C24.0551 19.2683 23.9 19.3285 23.7505 19.404C23.6929 19.4332 23.6373 19.4662 23.5805 19.4969C23.5616 19.5071 23.5419 19.5162 23.5237 19.5272C23.3612 19.6262 23.2035 19.7327 23.0539 19.8514C23.0165 19.8809 22.9782 19.9098 22.9433 19.942C22.9207 19.9628 22.8988 19.9841 22.8743 20.0023C22.8699 20.0057 22.8651 20.0091 22.8595 20.0125C22.8554 20.0163 22.8513 20.0197 22.8472 20.0231V20.0239C22.8454 20.0288 22.8435 20.0333 22.8406 20.036C22.8387 20.0375 22.8368 20.0383 22.8346 20.0387H22.8309H22.8302C22.8302 20.0387 22.8279 20.0379 22.8265 20.0375C22.8253 20.0383 22.8242 20.039 22.8235 20.0398C22.8105 20.0493 22.8035 20.0656 22.7916 20.0751C22.7897 20.0766 22.7879 20.0777 22.786 20.0788C22.7548 20.0955 22.7359 20.1255 22.7081 20.146C22.6814 20.1657 22.6591 20.1918 22.6346 20.215C22.5133 20.3291 22.3986 20.45 22.285 20.5721C22.2502 20.6096 22.219 20.6498 22.1856 20.6889C22.1663 20.7112 22.1448 20.731 22.1259 20.7529C22.0743 20.8132 22.0242 20.875 21.9733 20.9357C21.9355 20.9808 21.8999 21.0274 21.8661 21.0756C21.8394 21.1139 21.8075 21.148 21.7789 21.1848C21.6924 21.2981 21.6104 21.4149 21.5284 21.5313C21.4475 21.6462 21.3733 21.7656 21.2965 21.8835C21.2275 21.9893 21.164 22.0989 21.0983 22.2073C21.0742 22.2475 21.0527 22.2892 21.0282 22.3294C20.9863 22.3984 20.9473 22.4693 20.9105 22.5413C20.8875 22.5694 20.8738 22.6035 20.8564 22.635C20.82 22.7009 20.7851 22.7677 20.7536 22.8363C20.7436 22.8583 20.7291 22.8768 20.7187 22.8988C20.6894 22.9599 20.6597 23.0209 20.6289 23.0816C20.5521 23.234 20.4845 23.3906 20.4144 23.5464C20.3383 23.7147 20.2708 23.8872 20.204 24.0597C20.1587 24.1769 20.1131 24.294 20.0771 24.4146C20.0712 24.4343 20.06 24.4521 20.0533 24.4715C20.0185 24.5754 19.9836 24.6789 19.9506 24.7831C19.9198 24.8791 19.8908 24.9757 19.863 25.0724C19.8363 25.1657 19.8107 25.2589 19.7862 25.3526C19.7383 25.5342 19.6945 25.7169 19.657 25.9008C19.6474 25.9497 19.6377 25.9986 19.6285 26.0475C19.5965 26.214 19.5683 26.3816 19.5453 26.5499C19.5238 26.7099 19.506 26.8703 19.4919 27.031C19.4908 27.0458 19.4897 27.0606 19.4886 27.0754C19.4819 27.1633 19.4767 27.2517 19.4733 27.3404C19.4693 27.4416 19.4685 27.5428 19.4678 27.6441C19.4678 27.6922 19.4726 27.7408 19.4722 27.7893C19.4715 27.8632 19.4778 27.9368 19.4819 28.0103C19.4834 28.0372 19.4845 28.0645 19.4871 28.0918C19.4874 28.0964 19.4882 28.1013 19.4886 28.1059C19.4971 28.1768 19.5027 28.248 19.5123 28.3186C19.5216 28.3872 19.5309 28.4558 19.5431 28.5237C19.5609 28.6184 19.5776 28.7132 19.6062 28.8054C19.6151 28.8342 19.6199 28.8645 19.6281 28.8941C19.6452 28.9585 19.6656 29.0222 19.6878 29.0848C19.7201 29.1746 19.7572 29.2626 19.7973 29.349C19.8593 29.4817 19.9361 29.6053 20.0263 29.7198C20.1116 29.8286 20.2092 29.9246 20.3209 30.0049C20.3253 30.0084 20.3302 30.0114 20.335 30.0144C20.3432 30.0197 20.3513 30.025 20.3595 30.0303C20.3639 30.0334 20.3688 30.0364 20.3736 30.0394C20.3892 30.0493 20.4044 30.0595 20.4192 30.0705C20.4192 30.0705 20.4196 30.0705 20.42 30.0709C20.4244 30.0743 20.4289 30.0777 20.4333 30.0815C20.4333 30.0823 20.4341 30.083 20.4344 30.0838C20.437 30.0876 20.4422 30.088 20.4463 30.0899C20.6393 30.1771 20.8319 30.2643 21.0248 30.3515C21.0326 30.3549 21.0401 30.3602 21.0493 30.3579C21.0482 30.356 21.0475 30.3545 21.0464 30.3526C21.0382 30.3416 21.0252 30.3374 21.0141 30.3302C20.9551 30.2919 20.899 30.2491 20.8467 30.2025C20.8189 30.1778 20.7918 30.1517 20.7658 30.1247C20.6664 30.0216 20.5825 29.9071 20.5113 29.7847C20.4853 29.7399 20.4608 29.694 20.4378 29.647C20.4241 29.619 20.4107 29.5905 20.3981 29.5617C20.3925 29.5492 20.3873 29.5371 20.3821 29.5246C20.3769 29.5121 20.3717 29.4999 20.3665 29.4874C20.2938 29.3092 20.2411 29.125 20.2014 28.9369C20.1895 28.8812 20.1791 28.8251 20.1695 28.7686C20.1502 28.6533 20.1357 28.5377 20.125 28.4213C20.1142 28.3053 20.1079 28.1885 20.1042 28.0717C20.1005 27.9481 20.1012 27.8242 20.1049 27.7006C20.1053 27.6922 20.1053 27.6839 20.1057 27.6755C20.1079 27.6111 20.1109 27.5466 20.1142 27.4822C20.1179 27.4181 20.1224 27.3537 20.1276 27.2896C20.1287 27.2756 20.1302 27.2615 20.132 27.2418C20.132 27.2399 20.1324 27.238 20.1324 27.2361C20.1346 27.2103 20.1368 27.1846 20.1398 27.1588C20.1513 27.0435 20.1658 26.9286 20.1817 26.8142C20.1984 26.6951 20.2174 26.5768 20.2381 26.4589C20.2407 26.4445 20.2437 26.4305 20.2463 26.4161C20.2467 26.4134 20.2474 26.4108 20.2478 26.4077C20.2493 26.4005 20.2504 26.3933 20.2519 26.3861C20.2552 26.3679 20.2586 26.3501 20.2619 26.3323C20.2764 26.2568 20.2916 26.1814 20.3079 26.1063C20.3268 26.0183 20.3472 25.9308 20.3684 25.8436C20.3918 25.7465 20.4163 25.6498 20.4422 25.5535C20.4422 25.552 20.443 25.5505 20.4434 25.549C20.4601 25.4876 20.4775 25.4261 20.4953 25.3651C20.5387 25.2165 20.5836 25.0682 20.6319 24.9211C20.6582 24.8415 20.6857 24.7623 20.7135 24.6834C20.7662 24.5344 20.8215 24.3866 20.8797 24.2402C20.9892 23.9638 21.108 23.6912 21.2367 23.4228C21.2605 23.3731 21.2846 23.3235 21.3091 23.2742C21.367 23.1574 21.4271 23.0414 21.4887 22.9265C21.505 22.8958 21.5217 22.8651 21.5381 22.8348C21.5395 22.8325 21.541 22.8298 21.5421 22.8276C21.544 22.8241 21.5455 22.8207 21.5451 22.8166C21.5473 22.8128 21.5499 22.809 21.5518 22.8056C21.5696 22.7733 21.5874 22.7411 21.6056 22.7089C21.642 22.6448 21.6783 22.5811 21.7158 22.5174C21.7421 22.4727 21.7689 22.428 21.7956 22.3836C21.8256 22.3336 21.8561 22.2839 21.8872 22.2346C21.9262 22.1724 21.9659 22.1102 22.006 22.0488C22.0483 21.984 22.0913 21.9203 22.1351 21.8566C22.1611 21.8183 22.1875 21.7804 22.2138 21.7421V21.7398C22.2138 21.7394 22.2142 21.7387 22.2145 21.7383C22.2153 21.7372 22.2168 21.7368 22.2183 21.7368C22.2257 21.7262 22.2327 21.7152 22.2405 21.7046C22.5329 21.2943 22.8524 20.9076 23.212 20.5566C23.3415 20.4303 23.4751 20.3097 23.615 20.1964C23.6707 20.1509 23.7275 20.1069 23.7853 20.0637L23.7998 20.0531C23.8239 20.0352 23.8484 20.0178 23.8729 20.0004C23.9909 19.917 24.1119 19.8392 24.2369 19.7695C24.2607 19.7562 24.2848 19.7433 24.3089 19.7308C24.3271 19.7213 24.3449 19.7118 24.3631 19.7027C24.3787 19.6948 24.3943 19.6872 24.4099 19.6796C24.4726 19.6497 24.536 19.6216 24.601 19.5962C24.8073 19.5151 25.0196 19.4597 25.2411 19.4476C25.4081 19.4385 25.5725 19.4537 25.7335 19.5033C25.7406 19.5056 25.7476 19.509 25.7551 19.506C25.7625 19.5029 25.7551 19.5056 25.7551 19.506L25.7554 19.5056Z" fill="#FDBF41"/>
<path fill-rule="evenodd" clip-rule="evenodd" d="M25.097 19.2026C24.9534 19.137 24.8094 19.0733 24.6665 19.007C24.5029 18.9308 24.3329 18.8838 24.1529 18.8751C24.1077 18.8751 24.062 18.8751 24.0167 18.8754H23.9637C23.8731 18.8804 23.7837 18.894 23.695 18.9134C23.4334 18.9702 23.19 19.0749 22.9565 19.206C22.7217 19.338 22.5035 19.4957 22.296 19.6686C22.2697 19.6906 22.2411 19.7107 22.2181 19.7372C22.2162 19.738 22.2144 19.7395 22.2133 19.7414V19.7437H22.2122H22.211C22.2051 19.7486 22.1992 19.7531 22.1932 19.7581C21.9635 19.959 21.7502 20.177 21.5483 20.4071C21.3086 20.6809 21.0874 20.9698 20.8807 21.27C20.5727 21.7174 20.3 22.1868 20.0569 22.674C19.8929 23.0023 19.7437 23.3378 19.6094 23.6802C19.4695 24.0373 19.3411 24.399 19.2379 24.7695C19.2264 24.8104 19.2123 24.851 19.2008 24.8919C19.1162 25.1971 19.0431 25.505 18.9856 25.8166C18.9366 26.0809 18.8976 26.3463 18.872 26.6139C18.8531 26.8081 18.8401 27.0025 18.8409 27.1978C18.8409 27.2865 18.8412 27.3752 18.8416 27.464C18.8427 27.4761 18.8431 27.4882 18.8434 27.5003C18.8438 27.5193 18.8434 27.5379 18.8427 27.5568C18.8434 27.6649 18.8524 27.7722 18.8624 27.8799C18.8791 28.0554 18.905 28.229 18.9433 28.4008C18.9908 28.6161 19.0557 28.825 19.1481 29.0248C19.2472 29.2387 19.373 29.4332 19.5429 29.5958C19.642 29.6906 19.7511 29.7706 19.8739 29.8294C19.983 29.8817 20.0936 29.9306 20.2042 29.9803C20.2799 30.0144 20.3549 30.0512 20.4321 30.0815C20.4276 30.0781 20.4232 30.0743 20.4187 30.0709C20.4187 30.0709 20.4183 30.0709 20.418 30.0705C20.4031 30.0595 20.3879 30.0493 20.3723 30.0394C20.3675 30.0364 20.363 30.0333 20.3582 30.0303C20.3501 30.025 20.3419 30.0201 20.3337 30.0144C20.3289 30.0114 20.3244 30.0079 20.3196 30.0049C20.2079 29.9242 20.1107 29.8286 20.025 29.7198C19.9348 29.6053 19.858 29.4817 19.796 29.349C19.7556 29.2626 19.7185 29.1746 19.6866 29.0847C19.6643 29.0222 19.6439 28.9585 19.6268 28.894C19.619 28.8649 19.6138 28.8345 19.6049 28.8053C19.5763 28.7132 19.5593 28.6184 19.5418 28.5236C19.5292 28.4558 19.5203 28.3871 19.511 28.3185C19.5014 28.248 19.4954 28.1767 19.4873 28.1058C19.4869 28.1013 19.4862 28.0963 19.4858 28.0918C19.4832 28.0649 19.4821 28.0376 19.4806 28.0103C19.4769 27.9367 19.4706 27.8632 19.471 27.7892C19.471 27.7411 19.4661 27.6926 19.4665 27.644C19.4672 27.5428 19.4684 27.4416 19.4721 27.3404C19.4754 27.252 19.4806 27.1637 19.4873 27.0753C19.4884 27.0606 19.4895 27.0458 19.4906 27.031C19.5047 26.8702 19.5225 26.7099 19.5441 26.5499C19.5671 26.3815 19.5953 26.2139 19.6272 26.0475C19.6365 25.9986 19.6461 25.9497 19.6558 25.9008C19.6929 25.7165 19.737 25.5342 19.7849 25.3526C19.8094 25.2589 19.835 25.1653 19.8617 25.0724C19.8895 24.9753 19.9185 24.879 19.9493 24.7831C19.9827 24.6788 20.0176 24.575 20.0521 24.4715C20.0584 24.4517 20.0699 24.4339 20.0758 24.4146C20.1122 24.294 20.1575 24.1769 20.2027 24.0597C20.2695 23.8872 20.3371 23.7151 20.4131 23.5464C20.4833 23.3909 20.5508 23.234 20.6276 23.0815C20.6581 23.0209 20.6881 22.9598 20.7174 22.8988C20.7278 22.8772 20.7427 22.8582 20.7523 22.8362C20.7838 22.7676 20.8187 22.7009 20.8551 22.6349C20.8725 22.6035 20.8863 22.5693 20.9093 22.5413C20.946 22.4692 20.985 22.3983 21.0269 22.3293C21.0514 22.2895 21.0729 22.2475 21.097 22.2073C21.1624 22.0988 21.2258 21.9896 21.2952 21.8835C21.372 21.7656 21.4462 21.6461 21.5271 21.5313C21.6091 21.4149 21.6911 21.2981 21.7776 21.1847C21.8058 21.1476 21.8377 21.1138 21.8648 21.0756C21.8986 21.0274 21.9342 20.9808 21.9721 20.9357C22.0229 20.8746 22.073 20.8128 22.1246 20.7529C22.1435 20.7309 22.165 20.7112 22.1843 20.6888C22.2177 20.6502 22.2489 20.6096 22.2838 20.5721C22.3973 20.45 22.512 20.329 22.6333 20.2149C22.6578 20.1918 22.6801 20.1656 22.7068 20.1459C22.7346 20.1254 22.7532 20.0955 22.7847 20.0788C22.7866 20.0777 22.7888 20.0765 22.7903 20.075C22.8022 20.0655 22.8092 20.0492 22.8222 20.0398C22.8233 20.039 22.8244 20.0382 22.8252 20.0375C22.8259 20.0329 22.8274 20.0291 22.8296 20.0269C22.8319 20.0242 22.8345 20.0227 22.8382 20.0223C22.8404 20.0223 22.8434 20.0223 22.8463 20.0231C22.8504 20.0197 22.8545 20.0159 22.8586 20.0125C22.8641 20.0087 22.8686 20.0056 22.8734 20.0022C22.8979 19.984 22.9198 19.9632 22.9424 19.9419C22.9773 19.9093 23.0159 19.8809 23.053 19.8513C23.2026 19.7327 23.3603 19.6261 23.5228 19.5272C23.5414 19.5162 23.5607 19.5071 23.5796 19.4968C23.6364 19.4658 23.692 19.4328 23.7496 19.404C23.8991 19.3285 24.0546 19.2682 24.2156 19.2239C24.2988 19.2011 24.3826 19.1833 24.468 19.1712C24.5715 19.1568 24.6762 19.1507 24.7804 19.1571C24.8943 19.1643 25.0068 19.1825 25.1155 19.2189C25.1211 19.2208 25.1259 19.2212 25.1307 19.2182C25.1215 19.2079 25.1074 19.2079 25.0958 19.2026H25.097Z" fill="#FF1100"/>
<path opacity="0.48" fill-rule="evenodd" clip-rule="evenodd" d="M30.0855 28.3307C30.104 28.3159 30.104 28.3144 30.0855 28.2996C30.0424 28.2643 29.9964 28.2336 29.9493 28.2044C29.7919 28.107 29.6238 28.0327 29.4517 27.9682C29.4123 27.9535 29.3741 27.9356 29.3322 27.928C29.3207 27.9148 29.3036 27.9136 29.2888 27.9087C29.1281 27.8541 28.9644 27.8094 28.8004 27.7665C28.7867 27.7654 28.7733 27.7624 28.7614 27.7555C28.6846 27.7385 28.6078 27.721 28.5314 27.704C28.3892 27.6725 28.2464 27.6452 28.1031 27.6206C27.997 27.6024 27.8905 27.5853 27.784 27.569C27.7009 27.5565 27.6178 27.5436 27.5339 27.5375C27.5202 27.5353 27.5064 27.5326 27.4923 27.5307C27.1988 27.4939 26.9049 27.4663 26.6099 27.4454C26.4173 27.4321 26.2247 27.4215 26.0317 27.4139C25.7798 27.4041 25.5274 27.3995 25.2751 27.3995C24.9623 27.3995 24.6498 27.4075 24.3377 27.423C23.9771 27.4409 23.6171 27.4689 23.2583 27.5099C23.1996 27.5167 23.1403 27.5205 23.0824 27.5334C23.0705 27.53 23.059 27.5334 23.0471 27.5345C22.7914 27.5667 22.5369 27.6065 22.2838 27.6555C22.1342 27.6843 21.9854 27.7161 21.8378 27.7521L21.8348 27.7571C21.8348 27.7571 21.7966 28.3189 21.8812 28.8675C22.027 28.9028 22.1736 28.9343 22.3205 28.9623C22.4519 28.9873 22.5836 29.0112 22.7161 29.0306C22.9017 29.0579 23.0876 29.0855 23.2742 29.1053C23.4557 29.1246 23.6368 29.1447 23.8186 29.1583C23.9262 29.1663 24.0335 29.1758 24.1411 29.1822C24.3003 29.1917 24.4598 29.1997 24.619 29.2053C24.7645 29.2107 24.91 29.2148 25.0554 29.2167C25.2881 29.2198 25.5211 29.2186 25.7538 29.2137C25.9779 29.2088 26.2021 29.2 26.4258 29.1871C26.6926 29.172 26.9591 29.1504 27.2252 29.1223C27.6307 29.0795 28.0341 29.0218 28.4338 28.9403C28.783 28.8691 29.1281 28.7819 29.4628 28.656C29.6086 28.6014 29.7515 28.5388 29.8873 28.4615C29.9563 28.4224 30.0231 28.38 30.0855 28.3303V28.3307Z" fill="url(#paint37_linear_701_292086)"/>
<defs>
<linearGradient id="paint0_linear_701_292086" x1="4.36905" y1="0.122934" x2="0.128267" y2="4.37347" gradientUnits="userSpaceOnUse">
<stop stop-color="#0989B9"/>
<stop offset="0.442479" stop-color="#56B9C2"/>
<stop offset="0.518925" stop-color="#008BC1"/>
<stop offset="1" stop-color="#00B8AE"/>
</linearGradient>
<linearGradient id="paint1_linear_701_292086" x1="4.36945" y1="9.12388" x2="0.127899" y2="13.3752" gradientUnits="userSpaceOnUse">
<stop stop-color="#0989B9"/>
<stop offset="0.442479" stop-color="#56B9C2"/>
<stop offset="0.518925" stop-color="#008BC1"/>
<stop offset="1" stop-color="#00B8AE"/>
</linearGradient>
<linearGradient id="paint2_linear_701_292086" x1="4.36949" y1="18.1255" x2="0.127938" y2="22.3768" gradientUnits="userSpaceOnUse">
<stop stop-color="#0989B9"/>
<stop offset="0.442479" stop-color="#56B9C2"/>
<stop offset="0.518925" stop-color="#008BC1"/>
<stop offset="1" stop-color="#00B8AE"/>
</linearGradient>
<linearGradient id="paint3_linear_701_292086" x1="8.87024" y1="4.62309" x2="4.62869" y2="8.87438" gradientUnits="userSpaceOnUse">
<stop stop-color="#0989B9"/>
<stop offset="0.442479" stop-color="#56B9C2"/>
<stop offset="0.518925" stop-color="#008BC1"/>
<stop offset="1" stop-color="#00B8AE"/>
</linearGradient>
<linearGradient id="paint4_linear_701_292086" x1="8.87024" y1="13.6247" x2="4.62869" y2="17.876" gradientUnits="userSpaceOnUse">
<stop stop-color="#0989B9"/>
<stop offset="0.442479" stop-color="#56B9C2"/>
<stop offset="0.518925" stop-color="#008BC1"/>
<stop offset="1" stop-color="#00B8AE"/>
</linearGradient>
<linearGradient id="paint5_linear_701_292086" x1="8.87024" y1="22.6263" x2="4.62869" y2="26.8776" gradientUnits="userSpaceOnUse">
<stop stop-color="#0989B9"/>
<stop offset="0.442479" stop-color="#56B9C2"/>
<stop offset="0.518925" stop-color="#008BC1"/>
<stop offset="1" stop-color="#00B8AE"/>
</linearGradient>
<linearGradient id="paint6_linear_701_292086" x1="13.3704" y1="0.122277" x2="9.12888" y2="4.37357" gradientUnits="userSpaceOnUse">
<stop stop-color="#0989B9"/>
<stop offset="0.442479" stop-color="#56B9C2"/>
<stop offset="0.518925" stop-color="#008BC1"/>
<stop offset="1" stop-color="#00B8AE"/>
</linearGradient>
<linearGradient id="paint7_linear_701_292086" x1="13.3702" y1="9.12388" x2="9.12869" y2="13.3752" gradientUnits="userSpaceOnUse">
<stop stop-color="#0989B9"/>
<stop offset="0.442479" stop-color="#56B9C2"/>
<stop offset="0.518925" stop-color="#008BC1"/>
<stop offset="1" stop-color="#00B8AE"/>
</linearGradient>
<linearGradient id="paint8_linear_701_292086" x1="13.3702" y1="18.1255" x2="9.12869" y2="22.3768" gradientUnits="userSpaceOnUse">
<stop stop-color="#0989B9"/>
<stop offset="0.442479" stop-color="#56B9C2"/>
<stop offset="0.518925" stop-color="#008BC1"/>
<stop offset="1" stop-color="#00B8AE"/>
</linearGradient>
<linearGradient id="paint9_linear_701_292086" x1="17.8712" y1="4.62309" x2="13.6297" y2="8.87438" gradientUnits="userSpaceOnUse">
<stop stop-color="#0989B9"/>
<stop offset="0.442479" stop-color="#56B9C2"/>
<stop offset="0.518925" stop-color="#008BC1"/>
<stop offset="1" stop-color="#00B8AE"/>
</linearGradient>
<linearGradient id="paint10_linear_701_292086" x1="17.8712" y1="13.6247" x2="13.6297" y2="17.876" gradientUnits="userSpaceOnUse">
<stop stop-color="#0989B9"/>
<stop offset="0.442479" stop-color="#56B9C2"/>
<stop offset="0.518925" stop-color="#008BC1"/>
<stop offset="1" stop-color="#00B8AE"/>
</linearGradient>
<linearGradient id="paint11_linear_701_292086" x1="17.8712" y1="22.6263" x2="13.6297" y2="26.8776" gradientUnits="userSpaceOnUse">
<stop stop-color="#0989B9"/>
<stop offset="0.442479" stop-color="#56B9C2"/>
<stop offset="0.518925" stop-color="#008BC1"/>
<stop offset="1" stop-color="#00B8AE"/>
</linearGradient>
<linearGradient id="paint12_linear_701_292086" x1="22.3724" y1="0.122337" x2="18.1308" y2="4.37363" gradientUnits="userSpaceOnUse">
<stop stop-color="#0989B9"/>
<stop offset="0.442479" stop-color="#56B9C2"/>
<stop offset="0.518925" stop-color="#008BC1"/>
<stop offset="1" stop-color="#00B8AE"/>
</linearGradient>
<linearGradient id="paint13_linear_701_292086" x1="22.3722" y1="9.12388" x2="18.1306" y2="13.3752" gradientUnits="userSpaceOnUse">
<stop stop-color="#0989B9"/>
<stop offset="0.442479" stop-color="#56B9C2"/>
<stop offset="0.518925" stop-color="#008BC1"/>
<stop offset="1" stop-color="#00B8AE"/>
</linearGradient>
<linearGradient id="paint14_linear_701_292086" x1="22.3722" y1="18.1255" x2="18.1306" y2="22.3768" gradientUnits="userSpaceOnUse">
<stop stop-color="#0989B9"/>
<stop offset="0.442479" stop-color="#56B9C2"/>
<stop offset="0.518925" stop-color="#008BC1"/>
<stop offset="1" stop-color="#00B8AE"/>
</linearGradient>
<linearGradient id="paint15_linear_701_292086" x1="26.8732" y1="4.62304" x2="22.6316" y2="8.87433" gradientUnits="userSpaceOnUse">
<stop stop-color="#0989B9"/>
<stop offset="0.442479" stop-color="#56B9C2"/>
<stop offset="0.518925" stop-color="#008BC1"/>
<stop offset="1" stop-color="#00B8AE"/>
</linearGradient>
<linearGradient id="paint16_linear_701_292086" x1="26.8732" y1="13.6247" x2="22.6316" y2="17.876" gradientUnits="userSpaceOnUse">
<stop stop-color="#0989B9"/>
<stop offset="0.442479" stop-color="#56B9C2"/>
<stop offset="0.518925" stop-color="#008BC1"/>
<stop offset="1" stop-color="#00B8AE"/>
</linearGradient>
<linearGradient id="paint17_linear_701_292086" x1="26.8724" y1="22.6263" x2="22.6316" y2="26.8768" gradientUnits="userSpaceOnUse">
<stop stop-color="#0989B9"/>
<stop offset="0.442479" stop-color="#56B9C2"/>
<stop offset="0.518925" stop-color="#008BC1"/>
<stop offset="1" stop-color="#00B8AE"/>
</linearGradient>
<linearGradient id="paint18_linear_701_292086" x1="8.86945" y1="0.122271" x2="4.6279" y2="4.37357" gradientUnits="userSpaceOnUse">
<stop stop-color="#B00A03"/>
<stop offset="0.442479" stop-color="#E05175"/>
<stop offset="0.518925" stop-color="#C00700"/>
<stop offset="1" stop-color="#B40134"/>
</linearGradient>
<linearGradient id="paint19_linear_701_292086" x1="8.87024" y1="9.12388" x2="4.62869" y2="13.3752" gradientUnits="userSpaceOnUse">
<stop stop-color="#B00A03"/>
<stop offset="0.442479" stop-color="#E05175"/>
<stop offset="0.518925" stop-color="#C00700"/>
<stop offset="1" stop-color="#B40134"/>
</linearGradient>
<linearGradient id="paint20_linear_701_292086" x1="8.87024" y1="18.1255" x2="4.62869" y2="22.3768" gradientUnits="userSpaceOnUse">
<stop stop-color="#B00A03"/>
<stop offset="0.442479" stop-color="#E05175"/>
<stop offset="0.518925" stop-color="#C00700"/>
<stop offset="1" stop-color="#B40134"/>
</linearGradient>
<linearGradient id="paint21_linear_701_292086" x1="4.36936" y1="4.62309" x2="0.127815" y2="8.87438" gradientUnits="userSpaceOnUse">
<stop stop-color="#B00A03"/>
<stop offset="0.442479" stop-color="#E05175"/>
<stop offset="0.518925" stop-color="#C00700"/>
<stop offset="1" stop-color="#B40134"/>
</linearGradient>
<linearGradient id="paint22_linear_701_292086" x1="4.36902" y1="13.6247" x2="0.127468" y2="17.876" gradientUnits="userSpaceOnUse">
<stop stop-color="#B00A03"/>
<stop offset="0.442479" stop-color="#E05175"/>
<stop offset="0.518925" stop-color="#C00700"/>
<stop offset="1" stop-color="#B40134"/>
</linearGradient>
<linearGradient id="paint23_linear_701_292086" x1="4.36845" y1="22.6263" x2="0.127671" y2="26.8768" gradientUnits="userSpaceOnUse">
<stop stop-color="#B00A03"/>
<stop offset="0.442479" stop-color="#E05175"/>
<stop offset="0.518925" stop-color="#C00700"/>
<stop offset="1" stop-color="#B40134"/>
</linearGradient>
<linearGradient id="paint24_linear_701_292086" x1="17.8712" y1="0.122232" x2="13.6297" y2="4.37353" gradientUnits="userSpaceOnUse">
<stop stop-color="#B00A03"/>
<stop offset="0.442479" stop-color="#E05175"/>
<stop offset="0.518925" stop-color="#C00700"/>
<stop offset="1" stop-color="#B40134"/>
</linearGradient>
<linearGradient id="paint25_linear_701_292086" x1="17.8712" y1="9.12388" x2="13.6297" y2="13.3752" gradientUnits="userSpaceOnUse">
<stop stop-color="#B00A03"/>
<stop offset="0.442479" stop-color="#E05175"/>
<stop offset="0.518925" stop-color="#C00700"/>
<stop offset="1" stop-color="#B40134"/>
</linearGradient>
<linearGradient id="paint26_linear_701_292086" x1="17.8712" y1="18.1255" x2="13.6297" y2="22.3768" gradientUnits="userSpaceOnUse">
<stop stop-color="#B00A03"/>
<stop offset="0.442479" stop-color="#E05175"/>
<stop offset="0.518925" stop-color="#C00700"/>
<stop offset="1" stop-color="#B40134"/>
</linearGradient>
<linearGradient id="paint27_linear_701_292086" x1="13.3702" y1="4.62309" x2="9.12869" y2="8.87438" gradientUnits="userSpaceOnUse">
<stop stop-color="#B00A03"/>
<stop offset="0.442479" stop-color="#E05175"/>
<stop offset="0.518925" stop-color="#C00700"/>
<stop offset="1" stop-color="#B40134"/>
</linearGradient>
<linearGradient id="paint28_linear_701_292086" x1="13.3702" y1="13.6247" x2="9.12869" y2="17.876" gradientUnits="userSpaceOnUse">
<stop stop-color="#B00A03"/>
<stop offset="0.442479" stop-color="#E05175"/>
<stop offset="0.518925" stop-color="#C00700"/>
<stop offset="1" stop-color="#B40134"/>
</linearGradient>
<linearGradient id="paint29_linear_701_292086" x1="13.3702" y1="22.6263" x2="9.12869" y2="26.8776" gradientUnits="userSpaceOnUse">
<stop stop-color="#B00A03"/>
<stop offset="0.442479" stop-color="#E05175"/>
<stop offset="0.518925" stop-color="#C00700"/>
<stop offset="1" stop-color="#B40134"/>
</linearGradient>
<linearGradient id="paint30_linear_701_292086" x1="26.8726" y1="0.122957" x2="22.6318" y2="4.37349" gradientUnits="userSpaceOnUse">
<stop stop-color="#B00A03"/>
<stop offset="0.442479" stop-color="#E05175"/>
<stop offset="0.518925" stop-color="#C00700"/>
<stop offset="1" stop-color="#B40134"/>
</linearGradient>
<linearGradient id="paint31_linear_701_292086" x1="26.8732" y1="9.12386" x2="22.6316" y2="13.3752" gradientUnits="userSpaceOnUse">
<stop stop-color="#B00A03"/>
<stop offset="0.442479" stop-color="#E05175"/>
<stop offset="0.518925" stop-color="#C00700"/>
<stop offset="1" stop-color="#B40134"/>
</linearGradient>
<linearGradient id="paint32_linear_701_292086" x1="26.8732" y1="18.1255" x2="22.6316" y2="22.3768" gradientUnits="userSpaceOnUse">
<stop stop-color="#B00A03"/>
<stop offset="0.442479" stop-color="#E05175"/>
<stop offset="0.518925" stop-color="#C00700"/>
<stop offset="1" stop-color="#B40134"/>
</linearGradient>
<linearGradient id="paint33_linear_701_292086" x1="22.3722" y1="4.62309" x2="18.1306" y2="8.87438" gradientUnits="userSpaceOnUse">
<stop stop-color="#B00A03"/>
<stop offset="0.442479" stop-color="#E05175"/>
<stop offset="0.518925" stop-color="#C00700"/>
<stop offset="1" stop-color="#B40134"/>
</linearGradient>
<linearGradient id="paint34_linear_701_292086" x1="22.3722" y1="13.6247" x2="18.1306" y2="17.876" gradientUnits="userSpaceOnUse">
<stop stop-color="#B00A03"/>
<stop offset="0.442479" stop-color="#E05175"/>
<stop offset="0.518925" stop-color="#C00700"/>
<stop offset="1" stop-color="#B40134"/>
</linearGradient>
<linearGradient id="paint35_linear_701_292086" x1="22.3722" y1="23.47" x2="18.1306" y2="27.7213" gradientUnits="userSpaceOnUse">
<stop stop-color="#B00A03"/>
<stop offset="0.442479" stop-color="#E05175"/>
<stop offset="0.518925" stop-color="#C00700"/>
<stop offset="1" stop-color="#B40134"/>
</linearGradient>
<linearGradient id="paint36_linear_701_292086" x1="21.4516" y1="5.53007" x2="5.54866" y2="21.4696" gradientUnits="userSpaceOnUse">
<stop stop-color="#0989B9"/>
<stop offset="0.442479" stop-color="#56B9C2"/>
<stop offset="0.518925" stop-color="#008BC1"/>
<stop offset="1" stop-color="#00B8AE"/>
</linearGradient>
<linearGradient id="paint37_linear_701_292086" x1="437.35" y1="48.3274" x2="437.102" y2="184.37" gradientUnits="userSpaceOnUse">
<stop offset="0.16" stop-color="#191919"/>
<stop offset="0.97" stop-color="#191919" stop-opacity="0"/>
</linearGradient>
<clipPath id="clip0_701_292086">
<rect width="27" height="27" fill="white"/>
</clipPath>
</defs>
</svg>
