<svg width="32" height="32" viewBox="0 0 32 32" fill="none" xmlns="http://www.w3.org/2000/svg">
<path fill-rule="evenodd" clip-rule="evenodd" d="M32 16C32 13.9059 31.5834 11.8118 30.7821 9.87712C29.9805 7.9424 28.7942 6.16704 27.3136 4.6864C25.833 3.20544 24.0576 2.01952 22.1229 1.21792C20.1882 0.41664 18.0941 0 16 0C13.9059 0 11.8115 0.41664 9.8768 1.21792C7.94208 2.01952 6.16704 3.20544 4.68608 4.6864C3.20544 6.16704 2.0192 7.9424 1.21792 9.87712C0.41632 11.8118 0 13.9059 0 16C0 18.0941 0.41632 20.1882 1.21792 22.1229C2.0192 24.0576 3.20544 25.833 4.68608 27.3139C6.16704 28.7946 7.94208 29.9808 9.8768 30.7821C11.8115 31.5834 13.9059 32 16 32C18.0941 32 20.1882 31.5834 22.1229 30.7821C24.0576 29.9808 25.833 28.7946 27.3136 27.3139C28.7942 25.833 29.9805 24.0576 30.7821 22.1229C31.5834 20.1882 32 18.0941 32 16Z" fill="white"/>
<path fill-rule="evenodd" clip-rule="evenodd" d="M11.8547 3.38381C13.3453 2.89389 14.9382 2.66989 16.5162 2.73037C18.0944 2.79085 19.6579 3.13613 21.113 3.74413C22.5683 4.35213 23.9152 5.22317 25.0675 6.29773C26.5917 7.71949 27.775 9.49773 28.4848 11.4868C29.1949 13.4763 29.4314 15.6766 29.1574 17.7713C28.8838 19.866 28.0998 21.8555 26.9139 23.5662C25.728 25.2769 24.1398 26.7086 22.2746 27.7006C20.4093 28.6923 18.2662 29.244 16.1539 29.276C14.0416 29.308 11.9597 28.8206 10.095 27.8952C8.23073 26.9697 6.58337 25.6065 5.33249 23.9038C4.08161 22.2011 3.22721 20.1588 2.88801 18.075C2.54881 15.9908 2.72481 13.8648 3.37473 11.8814C3.86593 10.3819 4.62817 8.96429 5.6048 7.73581H4.12033V5.28205H9.93696V10.7137H7.48321V9.22957C6.68321 10.2356 6.05857 11.3969 5.65633 12.6257C5.12417 14.2513 4.9808 15.9953 5.25633 17.6971C5.59873 19.8139 6.58881 21.8651 8.06657 23.4459C9.83425 25.3364 12.2995 26.5544 14.8659 26.8209C17.432 27.0875 20.0992 26.403 22.2173 24.9288C24.3354 23.4545 25.905 21.1905 26.5421 18.69C27.1792 16.1896 26.8838 13.4526 25.735 11.1422C24.5862 8.83181 22.5837 6.94861 20.1891 5.95917C17.7946 4.96941 15.0077 4.87405 12.6038 5.66381L11.8547 3.38381Z" fill="url(#paint0_linear_1938_10782)"/>
<path d="M20.1252 10.7373C20.3488 11.2735 20.4651 11.8538 20.4651 12.4342C20.4651 13.0145 20.3488 13.5949 20.1252 14.1311C19.9764 14.4878 19.7801 14.825 19.5436 15.1317C20.1251 15.1328 20.7063 15.2482 21.2436 15.4692C21.7835 15.6912 22.279 16.02 22.6922 16.4304C23.1055 16.8408 23.4365 17.3328 23.6601 17.869C23.8837 18.4051 24 18.9855 24 19.5658C24 20.1462 23.8837 20.7265 23.6601 21.2627C23.4365 21.7989 23.1055 22.2909 22.6922 22.7012C22.279 23.1117 21.7835 23.4404 21.2436 23.6625C20.7037 23.8845 20.1193 24 19.5349 24C18.9505 24 18.3661 23.8845 17.8262 23.6625C17.2862 23.4404 16.7908 23.1117 16.3776 22.7012C16.2427 22.5673 16.1165 22.4246 16 22.2745C15.8835 22.4246 15.7573 22.5673 15.6224 22.7012C15.2092 23.1117 14.7137 23.4404 14.1738 23.6625C13.6339 23.8845 13.0495 24 12.4651 24C11.8807 24 11.2963 23.8845 10.7564 23.6625C10.2165 23.4404 9.72103 23.1117 9.30783 22.7012C8.89454 22.2909 8.5635 21.7989 8.33988 21.2627C8.11627 20.7265 8 20.1462 8 19.5658C8 18.9855 8.11627 18.4051 8.33988 17.869C8.5635 17.3328 8.89454 16.8408 9.30783 16.4304C9.72103 16.02 10.2165 15.6912 10.7564 15.4692C11.2936 15.2482 11.8749 15.1328 12.4564 15.1317C12.2199 14.825 12.0236 14.4878 11.8748 14.1311C11.6512 13.5949 11.5349 13.0145 11.5349 12.4342C11.5349 11.8538 11.6512 11.2735 11.8748 10.7373C12.0984 10.2011 12.4294 9.70911 12.8427 9.29877C13.2559 8.88834 13.7514 8.55959 14.2913 8.33753C14.8312 8.11547 15.4156 8 16 8C16.5844 8 17.1688 8.11547 17.7087 8.33753C18.2486 8.55959 18.7441 8.88834 19.1573 9.29877C19.5706 9.70911 19.9016 10.2011 20.1252 10.7373Z" fill="white" stroke="black" stroke-width="0.525"/>
<path fill-rule="evenodd" clip-rule="evenodd" d="M21.5896 19.0103C21.6727 18.4846 21.2494 18.2025 20.6703 18.0135L20.8581 17.302L20.3994 17.1942L20.2163 17.887C20.0959 17.8586 19.9721 17.8316 19.849 17.8053L20.0327 17.1081L19.5747 17L19.3863 17.7115L19.3236 17.6978C19.2456 17.6807 19.1688 17.6639 19.0936 17.6465L19.0943 17.6439L18.4614 17.4949L18.3397 17.9576L18.3433 17.9584C18.383 17.9671 18.6796 18.0317 18.6724 18.036C18.858 18.0797 18.8922 18.1961 18.8866 18.2879L18.3715 20.2378C18.349 20.2911 18.2912 20.3709 18.1613 20.3406C18.1661 20.347 17.8447 20.2664 17.8278 20.2621L17.6 20.7577L18.1973 20.8986C18.2612 20.9136 18.3245 20.9292 18.387 20.9447C18.433 20.956 18.4787 20.9673 18.5239 20.9782L18.3342 21.698L18.7927 21.8059L18.9805 21.0938C19.1058 21.1259 19.227 21.1555 19.3461 21.1831L19.1589 21.8921L19.6176 22L19.8075 21.2815C20.5893 21.4215 21.178 21.3651 21.4256 20.6967C21.625 20.1587 21.4153 19.8484 21.0037 19.6458C21.3037 19.581 21.529 19.3947 21.5896 19.0103ZM20.5416 20.3979C20.4113 20.8915 19.5947 20.6881 19.2201 20.5947C19.186 20.5863 19.1556 20.5787 19.1297 20.5726L19.3814 19.6188C19.4129 19.6263 19.4515 19.6345 19.4952 19.6437C19.8827 19.7258 20.6743 19.8936 20.5416 20.3979ZM19.572 19.2004C19.8837 19.2791 20.5647 19.4511 20.6832 19.0025C20.8043 18.5433 20.1428 18.4049 19.8196 18.3373C19.7833 18.3297 19.7512 18.323 19.7251 18.3168L19.4971 19.1819C19.5185 19.1869 19.5437 19.1933 19.572 19.2004Z" fill="#0C0C0C"/>
<path fill-rule="evenodd" clip-rule="evenodd" d="M18.4497 9.8143C17.0637 8.54642 14.9397 8.54642 13.5538 9.8143L13.2915 9.55795C14.8209 8.14735 17.1765 8.14735 18.7059 9.55795L18.4497 9.8143ZM18.6863 10.0484L18.9425 9.79208V9.7861C20.3525 11.3162 20.3525 13.6727 18.9425 15.2028L18.6863 14.9464C19.9536 13.5599 19.9536 11.435 18.6863 10.0484ZM13.3137 14.949C12.048 13.5629 12.048 11.4397 13.3137 10.0536L13.0575 9.79721C11.6475 11.3273 11.6475 13.6838 13.0575 15.2139L13.3137 14.949ZM13.5503 15.1857C14.9363 16.4536 17.0603 16.4536 18.4462 15.1857L18.7085 15.4421C17.1791 16.8526 14.8235 16.8526 13.2941 15.4421L13.5503 15.1857ZM16.4703 10.5161C17.1368 10.5786 17.6637 10.7836 17.7223 11.3948C17.7642 11.8419 17.5788 12.1152 17.2793 12.2627C17.7721 12.3808 18.0804 12.6737 18.0189 13.3297C17.9428 14.1449 17.3359 14.3597 16.4654 14.4124V15.2637H15.9492V14.4192H15.5374V15.2676H15.0221V14.4065H13.9868L14.0844 13.7905C14.0844 13.7905 14.4659 13.7964 14.4591 13.7905C14.5076 13.7942 14.5555 13.778 14.5918 13.7456C14.6288 13.7138 14.6513 13.6683 14.6543 13.6197V11.3001C14.6336 11.158 14.5041 11.0579 14.3615 11.0736C14.3674 11.0667 13.9868 11.0736 13.9868 11.0736V10.522H15.0319V9.67461H15.5432V10.5005H15.955V9.67461H16.4703V10.5161ZM15.654 13.7965C16.0758 13.8027 17.0002 13.8162 17.0002 13.2283C17.0002 12.628 16.1165 12.6476 15.6828 12.6572C15.6334 12.6583 15.5898 12.6592 15.554 12.6591V13.7955C15.5826 13.7955 15.6163 13.796 15.654 13.7965ZM16.7611 11.6268C16.7611 12.1623 15.9962 12.1487 15.6427 12.1424H15.6427C15.6095 12.1418 15.5799 12.1413 15.555 12.1413V11.1084C15.5841 11.1084 15.6195 11.1075 15.6596 11.1065C16.02 11.0971 16.7611 11.0778 16.7611 11.6268Z" fill="#0C0C0C"/>
<path fill-rule="evenodd" clip-rule="evenodd" d="M12.5 23C14.433 23 16 21.433 16 19.5C16 17.567 14.433 16 12.5 16C10.567 16 9 17.567 9 19.5C9 21.433 10.567 23 12.5 23ZM12.5 22.5332C14.1753 22.5332 15.5333 21.1751 15.5333 19.4999C15.5333 17.8246 14.1753 16.4666 12.5 16.4666C10.8247 16.4666 9.46666 17.8246 9.46666 19.4999C9.46666 21.1751 10.8247 22.5332 12.5 22.5332Z" fill="#0C0C0C"/>
<path d="M12.2152 20.1844C12.4528 20.2464 12.9708 20.3817 13.0534 20.0534C13.1376 19.7181 12.6355 19.6065 12.3897 19.5519C12.362 19.5458 12.3375 19.5403 12.3175 19.5354L12.1578 20.1697C12.1743 20.1737 12.1935 20.1787 12.2152 20.1844Z" fill="#0C0C0C"/>
<path d="M13.1433 19.1256C13.0681 19.4238 12.6361 19.3095 12.4384 19.2571C12.4205 19.2524 12.4045 19.2482 12.3909 19.2448L12.5355 18.6696C12.5521 18.6737 12.5724 18.6781 12.5954 18.6832C12.8004 18.7281 13.2201 18.8202 13.1433 19.1256Z" fill="#0C0C0C"/>
<path fill-rule="evenodd" clip-rule="evenodd" d="M12.4927 22.2562C14.019 22.2562 15.2562 21.019 15.2562 19.4927C15.2562 17.9664 14.019 16.7292 12.4927 16.7292C10.9664 16.7292 9.72917 17.9664 9.72917 19.4927C9.72917 21.019 10.9664 22.2562 12.4927 22.2562ZM13.1351 18.4678C13.5024 18.5935 13.7709 18.7811 13.7182 19.1307C13.6797 19.3863 13.5369 19.5102 13.3466 19.5533C13.6077 19.688 13.7407 19.8944 13.6142 20.2521C13.4571 20.6967 13.0837 20.7342 12.5878 20.6411L12.4673 21.1189L12.1764 21.0471L12.2951 20.5757C12.2196 20.5573 12.1427 20.5376 12.0632 20.5163L11.9441 20.9898L11.6532 20.918L11.7736 20.4393C11.7449 20.4321 11.7159 20.4246 11.6867 20.4171C11.6471 20.4068 11.6069 20.3964 11.5664 20.3864L11.1875 20.2927L11.332 19.9632C11.3427 19.966 11.5466 20.0196 11.5435 20.0154C11.6259 20.0355 11.6626 19.9825 11.6769 19.947L12.0036 18.6503C12.0072 18.5893 11.9855 18.5119 11.8677 18.4828C11.8723 18.48 11.6841 18.437 11.659 18.4312L11.6567 18.4307L11.7339 18.1229L12.1354 18.2221L12.1349 18.2238C12.1826 18.2353 12.2314 18.2465 12.2808 18.2579L12.3206 18.267L12.4401 17.7939L12.7306 17.8657L12.6141 18.3294C12.6922 18.3469 12.7707 18.3649 12.8471 18.3837L12.9633 17.923L13.2542 17.9947L13.1351 18.4678Z" fill="#0C0C0C"/>
<defs>
<linearGradient id="paint0_linear_1938_10782" x1="2.04343" y1="13.2972" x2="15.2222" y2="29.5766" gradientUnits="userSpaceOnUse">
<stop stop-color="#004CFF"/>
<stop offset="0.252131" stop-color="#00E0FB"/>
<stop offset="0.505709" stop-color="#87FF70"/>
<stop offset="0.755054" stop-color="#F8F500"/>
<stop offset="1" stop-color="#FF1A00"/>
</linearGradient>
</defs>
</svg>
