<svg width="32" height="32" viewBox="0 0 32 32" fill="none" xmlns="http://www.w3.org/2000/svg">
<path d="M0 16C0 7.16344 7.16344 0 16 0C24.8366 0 32 7.16344 32 16C32 24.8366 24.8366 32 16 32C7.16344 32 0 24.8366 0 16Z" fill="white"/>
<path fill-rule="evenodd" clip-rule="evenodd" d="M25 16C25 14.8221 24.7656 13.6442 24.3149 12.5559C23.8642 11.4676 23.1969 10.469 22.3639 9.6361C21.531 8.80306 20.5324 8.1358 19.4441 7.68508C18.3558 7.23436 17.1779 7 16 7C14.8221 7 13.6442 7.23436 12.5559 7.68508C11.4676 8.1358 10.469 8.80306 9.6361 9.6361C8.80306 10.469 8.1358 11.4676 7.68508 12.5559C7.23436 13.6442 7 14.8221 7 16C7 17.1779 7.23436 18.3558 7.68508 19.4441C8.1358 20.5324 8.80306 21.531 9.6361 22.3639C10.469 23.1969 11.4676 23.8642 12.5559 24.3149C13.6442 24.7656 14.8221 25 16 25C17.1779 25 18.3558 24.7656 19.4441 24.3149C20.5324 23.8642 21.531 23.1969 22.3639 22.3639C23.1969 21.531 23.8642 20.5324 24.3149 19.4441C24.7656 18.3558 25 17.1779 25 16Z" fill="white"/>
<path fill-rule="evenodd" clip-rule="evenodd" d="M19.6374 11.81C19.6374 12.4677 18.0404 13.0009 16.0704 13.0009C14.1004 13.0009 12.5035 12.4677 12.5035 11.81C12.5035 11.1523 14.1004 10.6192 16.0704 10.6192C18.0404 10.6192 19.6374 11.1523 19.6374 11.81ZM11.3145 14.7077C11.3145 14.0797 12.4066 13.5368 13.9915 13.2793C14.6004 13.4302 15.3112 13.5169 16.0704 13.5169C16.8296 13.5169 17.5404 13.4302 18.1494 13.2793C19.7342 13.5368 20.8263 14.0797 20.8263 14.7077C20.8263 15.5847 18.697 16.2955 16.0704 16.2955C13.4438 16.2955 11.3145 15.5847 11.3145 14.7077ZM10.1255 18.2803C10.1255 17.5223 11.3983 16.8635 13.2693 16.5292C14.0825 16.7333 15.0423 16.8513 16.0704 16.8513C17.0985 16.8513 18.0583 16.7333 18.8715 16.5292C20.7425 16.8635 22.0153 17.5223 22.0153 18.2803C22.0153 19.3764 19.3537 20.265 16.0704 20.265C12.7871 20.265 10.1255 19.3764 10.1255 18.2803Z" fill="black"/>
<path fill-rule="evenodd" clip-rule="evenodd" d="M24.3149 12.5559C24.7656 13.6442 25 14.8221 25 16C25 17.1779 24.7656 18.3558 24.3149 19.4441C23.8642 20.5324 23.1969 21.531 22.3639 22.3639C21.531 23.1969 20.5324 23.8642 19.4441 24.3149C18.3558 24.7656 17.1779 25 16 25C14.8221 25 13.6442 24.7656 12.5559 24.3149C11.4676 23.8642 10.469 23.1969 9.6361 22.3639C8.80306 21.531 8.1358 20.5324 7.68508 19.4441C7.23436 18.3558 7 17.1779 7 16C7 14.8221 7.23436 13.6442 7.68508 12.5559C8.1358 11.4676 8.80306 10.469 9.6361 9.6361C10.469 8.80306 11.4676 8.1358 12.5559 7.68508C13.6442 7.23436 14.8221 7 16 7C17.1779 7 18.3558 7.23436 19.4441 7.68508C20.5324 8.1358 21.531 8.80306 22.3639 9.6361C23.1969 10.469 23.8642 11.4676 24.3149 12.5559ZM23.4835 12.9002C23.889 13.8798 24.1 14.9398 24.1 16C24.1 17.0602 23.889 18.1202 23.4835 19.0998C23.4294 19.2304 23.3718 19.3595 23.3109 19.487C23.312 19.4498 23.3125 19.4125 23.3125 19.375C23.3125 17.2004 21.5496 15.4375 19.375 15.4375C17.2004 15.4375 15.4375 17.2004 15.4375 19.375C15.4375 21.5496 17.2004 23.3125 19.375 23.3125C19.4125 23.3125 19.4498 23.312 19.487 23.3109C19.3595 23.3718 19.2304 23.4294 19.0998 23.4835C18.1202 23.889 17.0602 24.1 16 24.1C14.9398 24.1 13.8798 23.889 12.9002 23.4835C11.9208 23.0778 11.0221 22.4771 10.2724 21.7276C9.52288 20.9779 8.92222 20.0792 8.5165 19.0998C8.11096 18.1202 7.9 17.0602 7.9 16C7.9 14.9398 8.11096 13.8798 8.5165 12.9002C8.92222 11.9208 9.52288 11.0221 10.2724 10.2724C11.0221 9.52288 11.9208 8.92222 12.9002 8.5165C13.8798 8.11096 14.9398 7.9 16 7.9C17.0602 7.9 18.1202 8.11096 19.0998 8.5165C20.0792 8.92222 20.9779 9.52288 21.7276 10.2724C22.4771 11.0221 23.0778 11.9208 23.4835 12.9002Z" fill="#68686D"/>
<path fill-rule="evenodd" clip-rule="evenodd" d="M19.375 18.6859C20.5166 18.6859 21.4422 18.4509 21.4422 18.1609C21.4422 17.9162 20.7832 17.7106 19.8917 17.6523C20.6294 17.7011 21.1666 17.8516 21.1666 18.0296C21.1666 18.2471 20.3645 18.4234 19.375 18.4234C18.3855 18.4234 17.5834 18.2471 17.5834 18.0296C17.5834 17.8516 18.1206 17.7011 18.8583 17.6523C17.9668 17.7106 17.3078 17.9162 17.3078 18.1609C17.3078 18.4509 18.2334 18.6859 19.375 18.6859ZM19.375 21.0484C20.3645 21.0484 21.1666 20.784 21.1666 20.4578C21.342 20.5446 21.4422 20.6457 21.4422 20.7531C21.4422 21.0793 20.5166 21.3438 19.375 21.3438C18.2334 21.3438 17.3078 21.0793 17.3078 20.7531C17.3078 20.6457 17.408 20.5446 17.5834 20.4578C17.5834 20.784 18.3855 21.0484 19.375 21.0484ZM21.8852 19.053C21.8852 19.4208 20.7613 19.7189 19.375 19.7189C17.9887 19.7189 16.8648 19.4208 16.8648 19.053C16.8648 18.9761 16.914 18.9023 17.0043 18.8336C16.6382 18.9568 16.4219 19.1095 16.4219 19.2749C16.4219 19.6836 17.744 20.0148 19.375 20.0148C21.006 20.0148 22.3281 19.6836 22.3281 19.2749C22.3281 19.1095 22.1118 18.9568 21.7457 18.8336C21.836 18.9023 21.8852 18.9761 21.8852 19.053Z" fill="white"/>
<path fill-rule="evenodd" clip-rule="evenodd" d="M11.8545 3.38369C13.345 2.89377 14.938 2.66977 16.5159 2.73025C18.0941 2.79073 19.6577 3.13601 21.1127 3.74401C22.5681 4.35201 23.9149 5.22305 25.0673 6.29761C26.5914 7.71937 27.7748 9.49761 28.4845 11.4867C29.1946 13.4762 29.4311 15.6765 29.1572 17.7712C28.8836 19.8659 28.0996 21.8554 26.9137 23.5661C25.7277 25.2768 24.1396 26.7085 22.2743 27.7005C20.409 28.6922 18.266 29.2438 16.1537 29.2758C14.0413 29.3078 11.9594 28.8205 10.0948 27.895C8.23047 26.9696 6.58311 25.6064 5.33223 23.9037C4.08135 22.201 3.22695 20.1587 2.88775 18.0749C2.54855 15.9907 2.72455 13.8646 3.37447 11.8813C3.86567 10.3818 4.62791 8.96417 5.60455 7.73569H4.12007V5.28193H9.93671V10.7136H7.48295V9.22945C6.68295 10.2355 6.05831 11.3968 5.65607 12.6256C5.12391 14.2512 4.98055 15.9952 5.25607 17.697C5.59847 19.8138 6.58855 21.865 8.06631 23.4458C9.83399 25.3363 12.2993 26.5542 14.8657 26.8208C17.4317 27.0874 20.0989 26.4029 22.217 24.9286C24.3351 23.4544 25.9047 21.1904 26.5418 18.6899C27.1789 16.1894 26.8836 13.4525 25.7348 11.1421C24.586 8.83169 22.5834 6.94849 20.1889 5.95905C17.7943 4.96929 15.0074 4.87393 12.6036 5.66369L11.8545 3.38369Z" fill="url(#paint0_linear_411_487912)"/>
<defs>
<linearGradient id="paint0_linear_411_487912" x1="3.99976" y1="8.00012" x2="27.5039" y2="23.4938" gradientUnits="userSpaceOnUse">
<stop stop-color="#FEC618"/>
<stop offset="0.494792" stop-color="#F42B70"/>
<stop offset="1" stop-color="#0C73BE"/>
</linearGradient>
</defs>
</svg>
