<svg width="32" height="32" viewBox="0 0 32 32" fill="none" xmlns="http://www.w3.org/2000/svg">
<path fill-rule="evenodd" clip-rule="evenodd" d="M27 13.5C27 11.7331 26.6485 9.96624 25.9724 8.33382C25.2963 6.7014 24.2954 5.20344 23.0459 3.95415C21.7966 2.70459 20.2986 1.7037 18.6662 1.02762C17.0338 0.35154 15.2669 0 13.5 0C11.7331 0 9.96624 0.35154 8.33382 1.02762C6.7014 1.7037 5.20344 2.70459 3.95415 3.95415C2.70459 5.20344 1.7037 6.7014 1.02762 8.33382C0.35154 9.96624 0 11.7331 0 13.5C0 15.2669 0.35154 17.0338 1.02762 18.6662C1.7037 20.2986 2.70459 21.7966 3.95415 23.0459C5.20344 24.2954 6.7014 25.2963 8.33382 25.9724C9.96624 26.6485 11.7331 27 13.5 27C15.2669 27 17.0338 26.6485 18.6662 25.9724C20.2986 25.2963 21.7966 24.2954 23.0459 23.0459C24.2954 21.7966 25.2963 20.2986 25.9724 18.6662C26.6485 17.0338 27 15.2669 27 13.5Z" fill="white"/>
<path fill-rule="evenodd" clip-rule="evenodd" d="M1.6875 13.6196C1.6875 7.60783 6.088 2.63433 11.8125 1.80713V2.66899C6.55579 3.48899 2.53125 8.07951 2.53125 13.6196C2.53125 19.1597 6.55579 23.7503 11.8125 24.5703V25.4321C6.088 24.6049 1.6875 19.6314 1.6875 13.6196ZM24.4688 13.6196C24.4688 19.1597 20.4442 23.7503 15.1875 24.5703V25.4321C20.912 24.6049 25.3125 19.6314 25.3125 13.6196C25.3125 7.60783 20.912 2.63433 15.1875 1.80713V2.66899C20.4442 3.48899 24.4688 8.07951 24.4688 13.6196ZM13.8153 7.43877C14.4565 7.48177 15.0247 7.62421 15.5199 7.8661C16.1335 8.14897 16.6108 8.54498 16.9517 9.05415C17.304 9.56332 17.4858 10.163 17.4972 10.8532H16.679C16.679 10.3327 16.5369 9.87447 16.2528 9.47846C15.9688 9.07112 15.5767 8.75431 15.0767 8.52801C14.5881 8.30172 14.0256 8.18857 13.3892 8.18857C12.4687 8.18857 11.7358 8.40921 11.1903 8.85048C10.6449 9.28045 10.3722 9.85184 10.3722 10.5647C10.3722 11.0286 10.5028 11.402 10.7642 11.6848C11.0369 11.9677 11.3892 12.1997 11.821 12.3807C12.2642 12.5504 12.7472 12.7032 13.2699 12.839C13.7926 12.9747 14.3097 13.1218 14.821 13.2802C15.3437 13.4273 15.821 13.6253 16.2528 13.8743C16.696 14.1119 17.0483 14.4343 17.3097 14.8417C17.5824 15.2377 17.7188 15.7469 17.7188 16.3692C17.7188 17.082 17.5369 17.6873 17.1733 18.1852C16.821 18.6717 16.3381 19.0451 15.7244 19.3054C15.1543 19.541 14.5179 19.6651 13.8153 19.6777V21.2911H13.0142V19.6425C12.4232 19.5776 11.8834 19.4256 11.3949 19.1866C10.7358 18.8584 10.2187 18.3719 9.84375 17.7269C9.46875 17.082 9.28125 16.2843 9.28125 15.3339H10.0994C10.0994 16.4767 10.429 17.3592 11.0881 17.9815C11.7472 18.6038 12.6108 18.915 13.679 18.915C14.6108 18.915 15.3665 18.6944 15.946 18.2531C16.5369 17.8118 16.8324 17.1952 16.8324 16.4031C16.8324 15.8826 16.696 15.464 16.4233 15.1472C16.1619 14.819 15.8097 14.5588 15.3665 14.3665C14.9347 14.1741 14.4574 14.01 13.9347 13.8743C13.4233 13.7272 12.9062 13.5801 12.3835 13.433C11.8608 13.2859 11.3778 13.1049 10.9347 12.8899C10.5028 12.6636 10.1506 12.3694 9.87784 12.0073C9.61648 11.6339 9.4858 11.1587 9.4858 10.5816C9.4858 9.94802 9.64489 9.39359 9.96307 8.91837C10.2813 8.44315 10.7301 8.07542 11.3097 7.81518C11.8058 7.5967 12.3739 7.46992 13.0142 7.43487V5.94824H13.8153V7.43877Z" fill="black"/>
<path fill-rule="evenodd" clip-rule="evenodd" d="M32 25C32 24.0838 31.8177 23.1677 31.4672 22.3212C31.1166 21.4748 30.5976 20.6981 29.9497 20.0503C29.3019 19.4024 28.5252 18.8834 27.6788 18.5328C26.8323 18.1823 25.9162 18 25 18C24.0838 18 23.1677 18.1823 22.3212 18.5328C21.4748 18.8834 20.6981 19.4024 20.0503 20.0503C19.4024 20.6981 18.8834 21.4748 18.5328 22.3212C18.1823 23.1677 18 24.0838 18 25C18 25.9162 18.1823 26.8323 18.5328 27.6788C18.8834 28.5252 19.4024 29.3019 20.0503 29.9497C20.6981 30.5976 21.4748 31.1166 22.3212 31.4672C23.1677 31.8177 24.0838 32 25 32C25.9162 32 26.8323 31.8177 27.6788 31.4672C28.5252 31.1166 29.3019 30.5976 29.9497 29.9497C30.5976 29.3019 31.1166 28.5252 31.4672 27.6788C31.8177 26.8323 32 25.9162 32 25Z" fill="#CF6627"/>
<path d="M25.0397 20.227C25.2314 20.4038 25.2454 20.6982 25.1225 20.9112C25.1199 20.9159 25.1197 20.9207 25.122 20.9255C25.3094 21.3276 25.4675 21.679 25.6868 21.9705C25.9606 22.3345 26.2417 22.6763 26.4798 23.0813C26.5222 23.1535 26.5228 23.2124 26.5131 23.2905C26.5126 23.296 26.514 23.3008 26.5176 23.3049C26.6421 23.4498 26.7899 23.4481 26.9793 23.433C27.2618 23.4103 27.4589 23.4008 27.5707 23.4045C28.2938 23.428 28.8936 23.9004 28.9335 24.6002C28.9538 24.955 28.8995 25.2842 28.7025 25.5819C28.4921 25.8997 28.2065 26.1461 27.8459 26.3212C27.7664 26.3598 27.6867 26.398 27.6066 26.4358C27.2675 26.5964 27.1088 27.0723 27.1966 27.4011C27.2211 27.4922 27.2939 27.694 27.4152 28.0065C27.4322 28.05 27.4391 28.0841 27.436 28.1087C27.421 28.2286 27.2249 28.2829 27.1159 28.2923C27.1132 28.2925 27.1105 28.2936 27.1085 28.2954C27.1064 28.2972 27.1051 28.2996 27.1045 28.3022C27.052 28.5844 26.8975 28.8861 26.643 29.0535C26.5701 29.1014 26.465 29.1462 26.3277 29.1878C25.9577 29.3 25.5796 29.3612 25.1936 29.3715C24.5696 29.3883 23.9767 29.3493 23.3945 29.1549C23.1061 29.0585 22.902 28.8213 22.7992 28.5567C22.6145 28.0811 22.6804 27.5728 22.9082 27.1227C22.9875 26.9662 23.0814 26.7929 23.1414 26.648C23.3657 26.1069 23.4056 25.521 23.2926 24.9511C23.1614 24.2888 22.5967 23.7764 21.9227 23.5861C21.4104 23.4417 20.8632 23.4723 20.3427 23.5205C20.1521 23.5381 20.1493 23.4434 20.2679 23.3465C20.585 23.0876 21.0007 22.96 21.4163 22.9184C21.9213 22.8675 22.3958 22.9271 22.8386 23.1597C23.0169 23.2534 23.122 23.3627 23.2739 23.5173C23.2984 23.5421 23.3224 23.5582 23.3459 23.5655C23.3476 23.566 23.3493 23.5661 23.3511 23.5658C23.3528 23.5655 23.3544 23.5649 23.3557 23.5639C23.3571 23.5629 23.3582 23.5616 23.3589 23.5601C23.3596 23.5586 23.3599 23.557 23.3598 23.5554C23.3519 23.4402 23.3362 23.3272 23.3126 23.2164C23.2989 23.1518 23.3459 23.0919 23.3781 23.0354C23.6142 22.6229 23.943 22.2477 24.2467 21.8315C24.2663 21.8046 24.2832 21.7776 24.2974 21.7505C24.4402 21.4791 24.5769 21.2049 24.7075 20.928C24.7099 20.9227 24.7096 20.9177 24.7068 20.9127C24.5828 20.6973 24.594 20.4053 24.791 20.228C24.793 20.2263 24.7943 20.2241 24.7947 20.2216C24.7951 20.2191 24.7946 20.2166 24.7934 20.2144C24.7391 20.1224 24.7252 20.0248 24.7518 19.9216C24.7732 19.8384 24.8696 19.6993 24.9718 19.7688C25.1195 19.8691 25.1175 20.0764 25.0376 20.2136C25.0346 20.2185 25.0353 20.223 25.0397 20.227ZM28.5999 24.8405C28.5693 24.4362 28.3015 24.0567 27.8835 23.9256C27.3696 23.7644 26.7175 24.0798 26.3578 24.4129C26.3536 24.4168 26.3512 24.4215 26.3509 24.4271C26.3351 24.6655 26.3301 24.9042 26.3359 25.143C26.3503 25.7324 26.5263 26.3368 26.7914 26.8695C26.7944 26.8754 26.7975 26.8756 26.8008 26.8698C26.9861 26.5565 27.2582 26.3165 27.5767 26.1267C27.7089 26.0482 27.9038 25.9706 28.0242 25.9022C28.1473 25.8322 28.2627 25.7267 28.3703 25.5858C28.5438 25.3583 28.6203 25.1099 28.5999 24.8405Z" fill="white"/>
</svg>
