<svg width="200" height="200" viewBox="0 0 200 200" fill="none" xmlns="http://www.w3.org/2000/svg">
<rect width="200" height="200" fill="white"/>
<path d="M88.9453 28.3164L111.602 39.4598L111.602 171.86L88.9453 160.717L88.9453 28.3164Z" fill="#43E188"/>
<path d="M88.9453 28.3164L111.602 39.4598L111.602 171.86L88.9453 160.717L88.9453 28.3164Z" fill="#43E188"/>
<path d="M88.9453 28.3164L66.2886 39.4598L66.2886 171.86L88.9453 160.717L88.9453 28.3164Z" fill="url(#paint0_linear_14354_9)"/>
<path d="M111.609 171.859L134.266 160.716L134.266 28.3157L111.609 39.4591L111.609 171.859Z" fill="url(#paint1_linear_14354_9)"/>
<path d="M111.606 39.46L88.9492 28.3164L111.606 17.1719L134.266 28.3164L111.606 39.46Z" fill="url(#paint2_linear_14354_9)"/>
<path d="M88.9522 160.716L111.609 171.859L88.9521 183.004L66.293 171.859L88.9522 160.716Z" fill="url(#paint3_linear_14354_9)"/>
<defs>
<linearGradient id="paint0_linear_14354_9" x1="77.617" y1="-38.1751" x2="77.617" y2="193.636" gradientUnits="userSpaceOnUse">
<stop stop-color="#F4F4F4" stop-opacity="0"/>
<stop offset="0.854318" stop-color="#43E188"/>
</linearGradient>
<linearGradient id="paint1_linear_14354_9" x1="122.938" y1="235.59" x2="122.938" y2="0.653242" gradientUnits="userSpaceOnUse">
<stop stop-color="#F4F4F4" stop-opacity="0"/>
<stop offset="0.820338" stop-color="#43E188"/>
</linearGradient>
<linearGradient id="paint2_linear_14354_9" x1="111.607" y1="4.60312" x2="111.607" y2="44.734" gradientUnits="userSpaceOnUse">
<stop stop-color="#FAFAFA"/>
<stop offset="1" stop-color="#43E188"/>
</linearGradient>
<linearGradient id="paint3_linear_14354_9" x1="91.1409" y1="193.038" x2="89.5083" y2="160.688" gradientUnits="userSpaceOnUse">
<stop offset="0.0311887" stop-color="#FAFAFA"/>
<stop offset="1" stop-color="#43E188"/>
</linearGradient>
</defs>
</svg>
