<svg width="32" height="32" viewBox="0 0 32 32" fill="none" xmlns="http://www.w3.org/2000/svg">
<mask id="mask0_603_228192" style="mask-type:luminance" maskUnits="userSpaceOnUse" x="0" y="3" width="26" height="26">
<path d="M26 3H0V29H26V3Z" fill="white"/>
</mask>
<g mask="url(#mask0_603_228192)">
<mask id="mask1_603_228192" style="mask-type:alpha" maskUnits="userSpaceOnUse" x="0" y="3" width="26" height="26">
<path d="M26 16C26 8.8203 20.1797 3 13 3C5.8203 3 0 8.8203 0 16C0 23.1797 5.8203 29 13 29C20.1797 29 26 23.1797 26 16Z" fill="#D9D9D9"/>
</mask>
<g mask="url(#mask1_603_228192)">
<path d="M26 16C26 8.8203 20.1797 3 13 3C5.8203 3 0 8.8203 0 16C0 23.1797 5.8203 29 13 29C20.1797 29 26 23.1797 26 16Z" fill="white"/>
<path fill-rule="evenodd" clip-rule="evenodd" d="M22.5977 16C22.5977 21.3006 18.3006 25.5977 13 25.5977C7.69937 25.5977 3.40234 21.3006 3.40234 16C3.40234 10.6994 7.69937 6.40234 13 6.40234C18.3006 6.40234 22.5977 10.6994 22.5977 16ZM24.375 16C24.375 22.2822 19.2822 27.375 13 27.375C6.71775 27.375 1.625 22.2822 1.625 16C1.625 9.71775 6.71775 4.625 13 4.625C19.2822 4.625 24.375 9.71775 24.375 16ZM13.8887 9.35054V8.00195H12.1113V9.31138C11.9781 9.33372 11.8456 9.36171 11.7141 9.39547C10.9142 9.60063 10.1812 10.0103 9.586 10.5839C8.99076 11.1575 8.55347 11.8757 8.31582 12.6685C8.0782 13.4613 8.0481 14.3022 8.22847 15.1101C8.40885 15.9179 8.79365 16.6657 9.34619 17.2807C9.82881 17.818 10.4252 18.2382 11.0902 18.5108C11.1096 18.5905 11.1352 18.669 11.1669 18.7455C11.2881 19.0378 11.4933 19.2877 11.7566 19.4633C12.0198 19.639 12.3293 19.7327 12.6458 19.7324C13.0695 19.7318 13.4756 19.5632 13.7753 19.2636C14.0749 18.9639 14.2435 18.5577 14.2441 18.134C14.2444 17.8176 14.1507 17.5081 13.975 17.2448C13.7994 16.9816 13.5495 16.7764 13.2572 16.6552C12.9649 16.534 12.6432 16.5022 12.3327 16.5639C12.1041 16.6093 11.8892 16.7039 11.7025 16.84C11.3101 16.6688 10.9572 16.4145 10.6683 16.093C10.3203 15.7056 10.0772 15.2337 9.96312 14.7228C9.84904 14.2119 9.86806 13.68 10.0183 13.1788C10.1686 12.6777 10.4447 12.2248 10.8193 11.8636C11.194 11.5026 11.6544 11.2457 12.1557 11.117C12.657 10.9885 13.1827 10.9924 13.6821 11.1286C14.1814 11.2648 14.638 11.5286 15.0072 11.8954C15.3765 12.2621 15.6459 12.7192 15.7886 13.2226L17.4985 12.7377C17.2727 11.9414 16.8462 11.2168 16.2596 10.6342C15.673 10.0517 14.9463 9.6311 14.1496 9.41383C14.0631 9.39023 13.9761 9.36915 13.8887 9.35054ZM12.8223 15.7334C12.4707 15.7334 12.1271 15.6292 11.8348 15.4338C11.5425 15.2386 11.3147 14.961 11.1802 14.6362C11.0457 14.3115 11.0105 13.9541 11.0791 13.6093C11.1477 13.2645 11.3169 12.9478 11.5655 12.6993C11.814 12.4507 12.1307 12.2814 12.4755 12.2129C12.8203 12.1443 13.1777 12.1795 13.5024 12.314C13.8272 12.4485 14.1048 12.6763 14.3 12.9686C14.4222 13.1514 14.5088 13.3543 14.5564 13.5667C15.0096 13.7532 15.4336 14.0064 15.8127 14.3198C16.4522 14.8484 16.9427 15.5307 17.2336 16.3021C17.5245 17.0738 17.6048 17.9064 17.4659 18.7183C17.327 19.53 16.9742 20.2905 16.4447 20.9267C15.9153 21.5626 15.2278 22.0524 14.4505 22.3516C14.2094 22.4443 13.9621 22.5178 13.7109 22.5719V23.998H11.9336V22.6306C11.1324 22.513 10.3719 22.2024 9.72233 21.7243C9.05361 21.2322 8.52434 20.5787 8.18907 19.825L9.81289 19.1026C10.0208 19.5698 10.3514 19.9805 10.7758 20.2928C11.2003 20.6053 11.7035 20.8078 12.237 20.8784C12.7705 20.949 13.3133 20.8847 13.8121 20.6928C14.3108 20.5009 14.7465 20.1887 15.0786 19.7896C15.4107 19.3907 15.6286 18.9182 15.714 18.4185C15.7995 17.9189 15.7504 17.4062 15.5705 16.9291C15.3906 16.4518 15.085 16.0243 14.6803 15.6897C14.4784 15.5228 14.2554 15.3821 14.017 15.2705C13.6908 15.567 13.2652 15.7327 12.8223 15.7334Z" fill="black"/>
</g>
</g>
<g clip-path="url(#clip0_603_228192)">
<mask id="mask2_603_228192" style="mask-type:luminance" maskUnits="userSpaceOnUse" x="18" y="0" width="14" height="14">
<path d="M32 0H18V14H32V0Z" fill="white"/>
</mask>
<g mask="url(#mask2_603_228192)">
<path fill-rule="evenodd" clip-rule="evenodd" d="M30.2017 8.69395e-10C29.4808 -1.37073e-05 28.391 0.162081 27.2263 0.415686C26.0345 0.675169 24.6697 1.05137 23.3724 1.5223C22.0862 1.98917 20.8079 2.57005 19.8305 3.2561C18.8883 3.91741 18.0001 4.83826 18 5.99994C18 6.17338 18.0199 6.33808 18.057 6.49443C18.0199 6.65749 18 6.82602 18 6.99994C18 7.17338 18.0199 7.33808 18.057 7.49443C18.0199 7.65749 18 7.82602 18 7.99994C18 8.17338 18.0199 8.33808 18.057 8.49443C18.0199 8.65749 18 8.82602 18 8.99994C18 9.17338 18.0199 9.33808 18.057 9.49443C18.0199 9.65749 18 9.82602 18 9.99994C17.9999 11.3404 19.1901 12.1594 20.2854 12.6288C21.426 13.1177 22.8746 13.4185 24.2246 13.6114C25.594 13.807 26.9523 13.9035 27.9611 13.9516C28.4674 13.9757 28.89 13.9878 29.1874 13.9939C29.3329 13.9968 29.574 13.9991 29.6609 13.9999L29.6667 14H30.0586C30.8085 14 31.4164 13.479 31.4164 12.8362C31.4164 12.6618 31.37 12.4911 31.2849 12.3365C31.3692 12.1849 31.4164 12.0153 31.4164 11.8362C31.4164 11.6618 31.37 11.4911 31.2849 11.3365C31.3692 11.1849 31.4164 11.0153 31.4164 10.8362C31.4164 10.6618 31.37 10.4911 31.2849 10.3365C31.3692 10.1849 31.4164 10.0153 31.4164 9.83622C31.4164 9.66127 31.3698 9.49011 31.2842 9.33517C31.3689 9.18395 31.4164 9.01478 31.4164 8.83622C31.4164 8.24339 30.8811 7.69405 30.1077 7.67184C29.7591 7.66183 28.9332 7.63155 27.9106 7.55175C29.0093 7.31903 29.9671 7.15386 30.5275 7.06339C31.3824 6.92539 32 6.28686 32 5.54138C32 5.36658 31.966 5.19857 31.9035 5.04193C31.9662 4.88429 32 4.71576 32 4.54138C32 4.36658 31.966 4.19857 31.9035 4.04193C31.9662 3.88429 32 3.71576 32 3.54138C32 3.36658 31.966 3.19857 31.9035 3.04193C31.9662 2.88429 32 2.71576 32 2.54138C32 2.36658 31.966 2.19857 31.9035 2.04193C31.9662 1.88429 32 1.71576 32 1.54138C32 0.690109 31.1949 1.69891e-05 30.2017 8.69395e-10Z" fill="white"/>
<path d="M30.202 1.16675C30.5508 1.16675 30.8336 1.4024 30.8336 1.69309C30.8336 1.95039 30.6153 2.16978 30.3119 2.2174C28.1917 2.55013 20.3337 3.92519 20.3337 6.02786C20.3337 8.26351 28.7234 8.58737 30.0689 8.62494C30.1729 8.62784 30.25 8.69863 30.25 8.78529C30.25 8.87323 30.1644 8.94452 30.0589 8.94452H29.9583H29.6667C29.6667 8.94452 19.1668 8.94453 19.167 6.02786C19.1672 3.28787 27.917 1.16669 30.202 1.16675Z" fill="#0C0D1D"/>
<path d="M30.202 2.13892C30.5508 2.13892 30.8336 2.37457 30.8336 2.66526C30.8336 2.92256 30.6153 3.14195 30.3119 3.18956C28.1917 3.5223 20.3337 4.89736 20.3337 7.00003C20.3337 9.23568 28.7234 9.55954 30.0689 9.59711C30.1729 9.60001 30.25 9.6708 30.25 9.75746C30.25 9.8454 30.1644 9.91669 30.0589 9.91669H29.9583H29.6667C29.6667 9.91669 19.1668 9.9167 19.167 7.00003C19.1672 4.26004 27.917 2.13886 30.202 2.13892Z" fill="#0433FF"/>
<path d="M30.202 3.11108C30.5508 3.11108 30.8336 3.34674 30.8336 3.63743C30.8336 3.89472 30.6153 4.11411 30.3119 4.16173C28.1917 4.49447 20.3337 5.86953 20.3337 7.9722C20.3337 10.2078 28.7234 10.5317 30.0689 10.5693C30.1729 10.5722 30.25 10.643 30.25 10.7296C30.25 10.8176 30.1644 10.8889 30.0589 10.8889H29.9583H29.6667C29.6667 10.8889 19.1668 10.8889 19.167 7.9722C19.1672 5.23221 27.917 3.11102 30.202 3.11108Z" fill="#9CADFF"/>
<path d="M30.202 4.08325C30.5508 4.08325 30.8336 4.31891 30.8336 4.6096C30.8336 4.86689 30.6153 5.08628 30.3119 5.1339C28.1917 5.46664 20.3337 6.8417 20.3337 8.94437C20.3337 11.18 28.7234 11.5039 30.0689 11.5415C30.1729 11.5444 30.25 11.6152 30.25 11.7018C30.25 11.7898 30.1644 11.8611 30.0589 11.8611H29.9583H29.6667C29.6667 11.8611 19.1668 11.8611 19.167 8.94437C19.1672 6.20438 27.917 4.08319 30.202 4.08325Z" fill="#F5F3E6"/>
<path d="M30.202 5.05566C30.5508 5.05566 30.8336 5.29131 30.8336 5.58201C30.8336 5.8393 30.6153 6.05869 30.3119 6.10631C28.1917 6.43904 20.3337 7.81411 20.3337 9.91678C20.3337 12.1525 28.7234 12.4763 30.0689 12.5139C30.1729 12.5168 30.25 12.5876 30.25 12.6742C30.25 12.7622 30.1644 12.8335 30.0589 12.8335H29.9583H29.6667C29.6667 12.8335 19.1668 12.8335 19.167 9.91678C19.1672 7.17679 27.917 5.0556 30.202 5.05566Z" fill="#FF1100"/>
</g>
</g>
<path fill-rule="evenodd" clip-rule="evenodd" d="M32 25C32 24.0838 31.8177 23.1677 31.4672 22.3212C31.1166 21.4748 30.5976 20.6981 29.9497 20.0503C29.3019 19.4024 28.5252 18.8834 27.6788 18.5328C26.8323 18.1823 25.9162 18 25 18C24.0838 18 23.1677 18.1823 22.3212 18.5328C21.4748 18.8834 20.6981 19.4024 20.0503 20.0503C19.4024 20.6981 18.8834 21.4748 18.5328 22.3212C18.1823 23.1677 18 24.0838 18 25C18 25.9162 18.1823 26.8323 18.5328 27.6788C18.8834 28.5252 19.4024 29.3019 20.0503 29.9497C20.6981 30.5976 21.4748 31.1166 22.3212 31.4672C23.1677 31.8177 24.0838 32 25 32C25.9162 32 26.8323 31.8177 27.6788 31.4672C28.5252 31.1166 29.3019 30.5976 29.9497 29.9497C30.5976 29.3019 31.1166 28.5252 31.4672 27.6788C31.8177 26.8323 32 25.9162 32 25Z" fill="#2775CA"/>
<path fill-rule="evenodd" clip-rule="evenodd" d="M23.7182 29.8494C23.7182 30.0204 23.5992 30.0774 23.4265 30.0774C21.2659 29.3858 19.75 27.4214 19.75 25.1111C19.75 22.8008 21.2659 20.8364 23.4265 20.1449C23.5997 20.0894 23.7182 20.2018 23.7182 20.3768C23.7182 20.5109 23.7182 20.6453 23.7182 20.7794C23.7182 20.8973 23.6568 21.0112 23.5416 21.0682C21.8492 21.7027 20.6825 23.2645 20.6825 25.1111C20.6825 26.9616 21.9068 28.5765 23.5416 29.1541C23.6568 29.211 23.7182 29.3289 23.7182 29.4428C23.7182 29.5784 23.7182 29.7139 23.7182 29.8494Z" fill="white"/>
<path fill-rule="evenodd" clip-rule="evenodd" d="M25.4678 28.4055C25.4678 28.5195 25.3488 28.6334 25.2337 28.6334C25.0776 28.6334 24.9216 28.6334 24.7655 28.6334C24.6505 28.6334 24.5315 28.5195 24.5315 28.4055C24.5315 28.1738 24.5315 27.9419 24.5315 27.7101C23.5988 27.5962 23.1345 27.0755 22.958 26.3233C22.958 26.2092 23.0155 26.0953 23.1345 26.0953C23.3084 26.0953 23.4824 26.0953 23.6565 26.0953C23.7755 26.0953 23.833 26.1522 23.8905 26.2662C24.0095 26.6729 24.2397 27.0186 24.9996 27.0186C25.583 27.0186 25.9897 26.7298 25.9897 26.2662C25.9897 25.8065 25.7595 25.6317 24.9421 25.5177C23.7172 25.3469 23.1345 24.9972 23.1345 24.013C23.1345 23.2645 23.7178 22.6869 24.5315 22.5691C24.5315 22.3385 24.5315 22.108 24.5315 21.8775C24.5315 21.7636 24.6505 21.6458 24.7655 21.6458C24.9216 21.6458 25.0776 21.6458 25.2337 21.6458C25.3488 21.6458 25.4678 21.7636 25.4678 21.8775C25.4678 22.108 25.4678 22.3385 25.4678 22.5691C26.1662 22.6869 26.6345 23.0897 26.7496 23.7243C26.7496 23.8421 26.6921 23.956 26.5731 23.956C26.4182 23.956 26.2635 23.956 26.1087 23.956C25.9897 23.956 25.9322 23.8991 25.8746 23.785C25.7595 23.3784 25.4678 23.2075 24.9421 23.2075C24.3587 23.2075 24.0671 23.4962 24.0671 23.8991C24.0671 24.3017 24.2397 24.5335 25.1147 24.6513C26.3436 24.8168 26.9262 25.1681 26.9262 26.1522C26.9262 26.9007 26.3428 27.5392 25.4678 27.7101V28.4055Z" fill="white"/>
<path fill-rule="evenodd" clip-rule="evenodd" d="M26.5738 30.0773C26.4012 30.1381 26.2822 30.0203 26.2822 29.8493C26.2822 29.7138 26.2822 29.5783 26.2822 29.4427C26.2822 29.3288 26.3435 29.211 26.4588 29.154C28.1512 28.5194 29.3178 26.9615 29.3178 25.111C29.3178 23.2644 28.0935 21.6457 26.4588 21.0681C26.3435 21.0111 26.2822 20.8972 26.2822 20.7793C26.2822 20.6452 26.2822 20.5109 26.2822 20.3767C26.2822 20.2017 26.4012 20.1448 26.5738 20.1448C28.6769 20.8363 30.2504 22.8008 30.2504 25.111C30.2504 27.4213 28.7345 29.3857 26.5738 30.0773Z" fill="white"/>
<defs>
<clipPath id="clip0_603_228192">
<rect width="14" height="14" fill="white" transform="translate(18)"/>
</clipPath>
</defs>
</svg>
