<svg fill="none" viewBox="0 0 600 600" xmlns="http://www.w3.org/2000/svg">
	<radialGradient id="a" cx="0" cy="0" gradientTransform="rotate(54.17 -42.31 263.4) scale(497.082)" gradientUnits="userSpaceOnUse" r="1">
		<stop offset="0" stop-color="#e6f2ff" />
		<stop offset="1" stop-color="#79acd9" />
	</radialGradient>
	<path d="M300 600c165.69 0 300-134.31 300-300S465.69 0 300 0 0 134.31 0 300s134.31 300 300 300z" fill="#82c6ff" />
	<path d="M300 600c165.69 0 300-134.31 300-300S465.69 0 300 0 0 134.31 0 300s134.31 300 300 300z" fill="url(#a)" fill-opacity=".35" />
	<g fill="#3c90d6">
		<path d="M185.42 297.21l114.14 67.52V107.87zm114.14-189.34v256.86l114.03-67.52zM185.42 318.93L299.56 479.7v-93.34zm114.14 67.42v93.34L413.7 318.93z" />
		<path d="M299.56 245.37L185.42 297.2l114.14 67.52 114.03-67.52z" />
		<path d="M185.42 297.21l114.14 67.52V107.87zm114.14-189.34v256.86l114.03-67.52zM185.42 318.93L299.56 479.7v-93.34zm114.14 67.42v93.34L413.7 318.93z" />
		<path d="M299.56 245.37L185.42 297.2l114.14 67.52 114.03-67.52z" />
	</g>
	<path transform="matrix(15,0,0,15,155,100)" d="M13.853 7.47333V4.94116H16.2731V7.47333H18.8052V9.89346H16.2731V12.4256H13.853V9.89346H11.3208V7.47333H13.853Z" fill="white" />
</svg>
