<svg width="32" height="32" viewBox="0 0 32 32" fill="none" xmlns="http://www.w3.org/2000/svg">
<rect width="32" height="32" rx="0.96" transform="matrix(-1 0 0 1 32 0)" fill="#4141FC"/>
<path d="M16.0001 25.5676C14.4316 25.5676 12.8619 25.5676 11.2935 25.5676C10.7304 25.5676 10.597 25.4691 10.494 24.9023C10.2805 23.7227 10.0873 22.5405 9.88139 21.3596C9.58143 19.6388 9.27639 17.9192 8.97897 16.1984C8.72985 14.759 8.48962 13.3184 8.24178 11.8777C7.98503 10.4051 7.72447 8.93248 7.469 7.45986C7.4423 7.30249 7.42578 7.14128 7.42578 6.98263C7.42832 6.6551 7.59737 6.44783 7.91767 6.44399C8.95228 6.42992 9.98689 6.43504 11.0215 6.44143C11.3659 6.44399 11.4803 6.71011 11.5413 6.98519C11.6468 7.4637 11.7333 7.94732 11.8184 8.43095C12.0345 9.65664 12.2455 10.8823 12.459 12.108C12.8009 14.0643 13.1403 16.0205 13.486 17.9768C13.589 18.5615 13.6983 19.1449 13.819 19.7258C14.0389 20.7851 14.9045 21.5067 15.9734 21.5362C16.9978 21.5643 17.9397 20.876 18.2066 19.8627C18.4633 18.8903 18.579 17.8898 18.7582 16.9008C19.0721 15.1595 19.3772 13.4169 19.6822 11.6743C19.925 10.2797 20.1614 8.88514 20.4004 7.49057C20.4105 7.43427 20.4143 7.3767 20.4245 7.3204C20.5618 6.51948 20.6635 6.43248 21.4604 6.43248C22.2904 6.43248 23.1203 6.42992 23.9503 6.43376C24.4676 6.43631 24.6799 6.64614 24.6023 7.15024C24.4091 8.40152 24.1905 9.65024 23.977 10.899C23.6821 12.6198 23.3834 14.3406 23.0847 16.0615C22.8331 17.5123 22.5763 18.9632 22.3247 20.4141C22.0743 21.8535 21.8264 23.2928 21.5773 24.7322C21.5633 24.8115 21.5506 24.8895 21.5341 24.9676C21.4337 25.4333 21.2812 25.5638 20.8109 25.5638C19.2081 25.5664 17.6054 25.5638 16.0014 25.5638L16.0001 25.5676Z" fill="white"/>
</svg>
