<svg width="32" height="32" viewBox="0 0 32 32" fill="none" xmlns="http://www.w3.org/2000/svg">
<rect width="32" height="32" rx="16" fill="white"/>
<g clip-path="url(#clip0_429_306617)">
<path d="M25 16C25 20.9706 20.9706 25 16 25C11.0294 25 7 20.9706 7 16C7 11.0294 11.0294 7 16 7C20.9706 7 25 11.0294 25 16Z" fill="white"/>
<path fill-rule="evenodd" clip-rule="evenodd" d="M12.5025 10.6372C12.8037 10.2939 13.0782 10.0009 13.3404 9.75561C8.90805 9.61177 10.1983 12.8406 8.75394 16.1219C7.0907 19.9008 8.94964 21.341 11.7197 21.7897C11.3357 21.333 11.0222 20.8106 10.7836 20.2468C8.98773 17.9683 9.71055 13.8174 12.5025 10.6372Z" fill="#BDBDBF"/>
<path fill-rule="evenodd" clip-rule="evenodd" d="M23.168 14.6624C22.7556 15.833 21.9986 17.1464 20.9286 18.4392C20.0946 19.4465 19.1673 20.2398 18.2102 20.8142C17.1039 21.5365 15.7314 21.9627 14.1968 21.9627C13.3379 21.9627 12.4933 21.9146 11.7197 21.7893C12.1768 22.3324 12.7324 22.7834 13.3786 23.098C17.3859 25.0508 17.6389 21.4231 21.8786 19.5824C24.2595 18.5486 24.2682 16.5279 23.168 14.6624Z" fill="#99999E"/>
<path fill-rule="evenodd" clip-rule="evenodd" d="M18.2083 10.8875C18.7993 10.996 19.3602 11.1919 19.8623 11.4779C21.2081 12.2451 22.434 13.4192 23.1673 14.6625C23.8893 12.6135 23.5531 11.0027 21.9734 10.711C20.2375 10.3911 18.8803 10.2883 17.5761 9.37062C15.9698 8.24024 14.5618 8.61306 13.3398 9.7558C13.4261 9.75845 13.5141 9.76242 13.6047 9.76771C15.2999 9.86831 16.9176 10.201 18.2083 10.8875Z" fill="#BDBDBF"/>
<path fill-rule="evenodd" clip-rule="evenodd" d="M12.5024 10.6372C9.71048 13.8174 8.98766 17.9684 10.7836 20.2468C9.97711 18.3394 10.0331 15.9604 11.1697 14.061C12.6828 11.532 15.7177 10.4294 18.2088 10.8878C16.9181 10.2008 15.3004 9.8686 13.6057 9.76756C13.5146 9.76226 13.4266 9.75873 13.3404 9.75565C13.0781 10.001 12.8036 10.2939 12.5024 10.6372Z" fill="#68686D"/>
<path fill-rule="evenodd" clip-rule="evenodd" d="M19.863 11.4779C19.3609 11.1915 18.8 10.9961 18.209 10.8875C19.9086 11.7916 21.0394 13.3106 21.0267 15.7303C21.0153 17.8295 19.9392 19.6848 18.2103 20.8143C19.1673 20.2399 20.0951 19.4466 20.9287 18.4393C21.9991 17.1465 22.7556 15.8331 23.168 14.6625C22.4347 13.4192 21.2089 12.2447 19.863 11.4779Z" fill="#68686D"/>
<path fill-rule="evenodd" clip-rule="evenodd" d="M17.929 19.6643C16.0101 20.9067 13.4515 20.3526 12.2138 18.4262C10.9761 16.4999 11.5882 14.0194 13.4467 12.6878C15.525 11.1992 18.1903 11.7864 19.1618 13.9259C20.1093 16.0119 19.8474 18.4218 17.929 19.6643ZM18.2087 10.8877C15.7176 10.4297 12.6827 11.5319 11.1696 14.0609C10.0331 15.9603 9.9766 18.3398 10.7835 20.2467C11.0221 20.8106 11.3351 21.3334 11.7195 21.79C12.4931 21.9154 13.3377 21.963 14.1962 21.963C15.7312 21.963 17.1037 21.5368 18.2096 20.8145C19.9389 19.6855 21.0151 17.8297 21.026 15.7304C21.0392 13.3108 19.9079 11.7917 18.2087 10.8877Z" fill="black"/>
</g>
<path fill-rule="evenodd" clip-rule="evenodd" d="M11.8545 3.38361C13.345 2.89369 14.938 2.66969 16.5159 2.73017C18.0941 2.79065 19.6577 3.13593 21.1127 3.74393C22.5681 4.35193 23.9149 5.22297 25.0673 6.29753C26.5914 7.71929 27.7748 9.49753 28.4845 11.4867C29.1946 13.4761 29.4311 15.6764 29.1572 17.7711C28.8836 19.8659 28.0996 21.8553 26.9137 23.566C25.7277 25.2767 24.1396 26.7084 22.2743 27.7004C20.409 28.6921 18.266 29.2438 16.1537 29.2758C14.0413 29.3078 11.9594 28.8204 10.0948 27.895C8.23047 26.9695 6.58311 25.6063 5.33223 23.9036C4.08135 22.2009 3.22695 20.1587 2.88775 18.0748C2.54855 15.9907 2.72455 13.8646 3.37447 11.8812C3.86567 10.3817 4.62791 8.96409 5.60455 7.73561H4.12007V5.28185H9.93671V10.7135H7.48295V9.22937C6.68295 10.2355 6.05831 11.3967 5.65607 12.6255C5.12391 14.2511 4.98055 15.9951 5.25607 17.6969C5.59847 19.8137 6.58855 21.8649 8.06631 23.4457C9.83399 25.3363 12.2993 26.5542 14.8657 26.8207C17.4317 27.0873 20.0989 26.4028 22.217 24.9286C24.3351 23.4543 25.9047 21.1903 26.5418 18.6899C27.1789 16.1894 26.8836 13.4524 25.7348 11.142C24.586 8.83161 22.5834 6.94841 20.1889 5.95897C17.7943 4.96921 15.0074 4.87385 12.6036 5.66361L11.8545 3.38361Z" fill="url(#paint0_linear_429_306617)"/>
<defs>
<linearGradient id="paint0_linear_429_306617" x1="2.04317" y1="13.297" x2="15.2219" y2="29.5764" gradientUnits="userSpaceOnUse">
<stop stop-color="#004CFF"/>
<stop offset="0.252131" stop-color="#00E0FB"/>
<stop offset="0.505709" stop-color="#87FF70"/>
<stop offset="0.755054" stop-color="#F8F500"/>
<stop offset="1" stop-color="#FF1A00"/>
</linearGradient>
<clipPath id="clip0_429_306617">
<rect width="18" height="18" fill="white" transform="translate(7 7)"/>
</clipPath>
</defs>
</svg>
