<svg width="32" height="32" viewBox="0 0 32 32" fill="none" xmlns="http://www.w3.org/2000/svg">
<g clip-path="url(#clip0_699_291753)">
<path d="M32 16C32 24.8366 24.8366 32 16 32C7.16344 32 0 24.8366 0 16C0 7.16344 7.16344 0 16 0C24.8366 0 32 7.16344 32 16Z" fill="#232234"/>
<path fill-rule="evenodd" clip-rule="evenodd" d="M7 23.1338C7 23.6122 7.36357 24 7.81205 24C8.14504 24 8.43687 23.7894 8.56566 23.4759C8.69001 23.7841 8.97734 24 9.31194 24C9.64525 24 9.93733 23.7889 10.0659 23.4749C10.1901 23.7837 10.4776 24 10.8126 24C11.1456 24 11.4374 23.7894 11.5662 23.4759C11.6905 23.7841 11.9779 24 12.3125 24C12.6454 24 12.9373 23.7894 13.0661 23.4759C13.1904 23.7841 13.4777 24 13.8123 24C14.2093 24 14.5478 23.7006 14.6212 23.2845C14.9363 21.5 15.8571 16.7515 17.2713 13.3493C18.2621 16.8816 18.4705 21.7992 18.5067 22.9513C18.5111 23.0938 18.6204 23.1996 18.7541 23.1996C18.8897 23.1996 18.9997 23.0823 18.9997 22.9376L18.9997 22.7996L18.9997 22.3996C18.9997 22.3996 18.9997 16.4407 17.8019 12.1896C17.912 11.9726 18.0246 11.7653 18.1396 11.5692C19.6793 14.9403 19.9637 21.5868 20.0065 22.9513C20.011 23.0938 20.1202 23.1996 20.2539 23.1996C20.3896 23.1996 20.4996 23.0823 20.4996 22.9376L20.4996 22.7996L20.4996 22.3996C20.4996 22.3996 20.4996 14.7988 18.774 10.6416C18.8361 10.5656 18.8988 10.4932 18.962 10.4245C21.1006 13.0924 21.4587 21.4065 21.5072 22.9513C21.5117 23.0938 21.6209 23.1996 21.7546 23.1996C21.8903 23.1996 22.0002 23.0823 22.0002 22.9376L22.0002 22.7996L22.0002 22.3996C22.0002 22.3996 22.0002 13.8317 19.935 9.91395C22.5435 11.7705 22.9548 21.2875 23.0071 22.9513C23.0115 23.0938 23.1208 23.1996 23.2545 23.1996C23.3901 23.1996 23.5001 23.0823 23.5001 22.9376L23.5001 22.7996L23.5001 22.3996C23.5001 22.3996 23.5001 13.8317 21.4349 9.91394C24.0434 11.7705 24.4547 21.2875 24.5069 22.9513C24.5114 23.0938 24.6206 23.1996 24.7543 23.1996C24.89 23.1996 25 23.0823 25 22.9376L25 22.7996L25 22.3996C25 22.3996 25 7.99971 20.5001 8C20.2375 8.00002 19.9786 8.04633 19.724 8.13394C19.4967 8.04639 19.2557 7.99998 19.0002 8C18.7377 8.00002 18.4788 8.04633 18.2241 8.13394C17.9968 8.04639 17.7558 7.99998 17.5003 8C17.2376 8.00002 16.9786 8.04638 16.7238 8.13407C16.4964 8.04643 16.2553 7.99998 15.9997 8C15.7371 8.00002 15.4782 8.04633 15.2236 8.13394C14.9963 8.04639 14.7553 7.99998 14.4998 8C10.2725 8.00028 6.99991 20 7 23.1338Z" fill="url(#paint0_linear_699_291753)"/>
</g>
<defs>
<linearGradient id="paint0_linear_699_291753" x1="7" y1="16" x2="25" y2="16" gradientUnits="userSpaceOnUse">
<stop stop-color="#C93244"/>
<stop offset="0.317708" stop-color="#C1344B"/>
<stop offset="0.682292" stop-color="#5153A9"/>
<stop offset="1" stop-color="#2C5EC8"/>
</linearGradient>
<clipPath id="clip0_699_291753">
<rect width="32" height="32" fill="white"/>
</clipPath>
</defs>
</svg>
