<svg width="19" height="26" viewBox="0 0 19 26" fill="none" xmlns="http://www.w3.org/2000/svg">
  <path fill-rule="evenodd" clip-rule="evenodd"
    d="M15.1717 11.3192C15.1717 14.6114 12.5075 17.2802 9.22109 17.2802C5.93468 17.2802 3.27051 14.6114 3.27051 11.3192C3.27051 6.26905 9.074 -9.91821e-05 9.22109 -9.91821e-05C9.36819 -9.91821e-05 15.1717 6.26905 15.1717 11.3192ZM12.7646 11.3198C12.7646 13.2803 11.1781 14.8696 9.22103 14.8696C7.26395 14.8696 5.67743 13.2803 5.67743 11.3198C5.67743 9.37768 7.23429 7.79984 9.16598 7.77037V11.4291C9.16598 11.4291 11.411 10.5282 12.5076 9.98998C12.6734 10.4007 12.7646 10.8496 12.7646 11.3198Z"
    fill="url(#paint0_linear_4464_5601)" />
  <path
    d="M7.88508 20.8014L17.5231 19.7679C17.6353 20.8229 17.6087 21.891 17.4431 22.94L7.84549 22.3444C7.92649 21.8331 7.94021 21.3145 7.88508 20.8014Z"
    fill="url(#paint1_linear_4464_5601)" />
  <path
    d="M10.4108 17.9809L0.907273 19.8917C1.11623 20.9318 1.46143 21.9427 1.93362 22.8936L10.9107 19.4409C10.6803 18.9774 10.5119 18.4869 10.4108 17.9809Z"
    fill="url(#paint2_linear_4464_5601)" />
  <defs>
    <linearGradient id="paint0_linear_4464_5601" x1="9.15166" y1="0.358334" x2="9.28582" y2="17.1781"
      gradientUnits="userSpaceOnUse">
      <stop stop-color="#FF05FF" />
      <stop offset="0.56" stop-color="#8323FF" />
      <stop offset="0.76" stop-color="#8F00FF" />
      <stop offset="0.985" stop-color="#4E68FF" />
    </linearGradient>
    <linearGradient id="paint1_linear_4464_5601" x1="19.5001" y1="19.4998" x2="9.74669" y2="22.2728"
      gradientUnits="userSpaceOnUse">
      <stop stop-color="#DFB6FF" />
      <stop offset="0.49109" stop-color="#8F00FF" />
      <stop offset="0.995" stop-color="#5263FF" />
    </linearGradient>
    <linearGradient id="paint2_linear_4464_5601" x1="9.74972" y1="19.4995" x2="-0.927001" y2="20.4466"
      gradientUnits="userSpaceOnUse">
      <stop offset="0.015" stop-color="#5066FF" />
      <stop offset="0.538411" stop-color="#8F00FF" />
      <stop offset="1" stop-color="#DFB6FF" />
    </linearGradient>
  </defs>
</svg>