<svg width="240" height="240" viewBox="0 0 240 240" fill="none" xmlns="http://www.w3.org/2000/svg">
<g clip-path="url(#clip0_7589_53303)">
<circle cx="120" cy="120" r="120" fill="white"/>
<path d="M122.681 158.022C122.681 161.072 125.027 165.939 126.2 167.991L65.2148 192.62L60.2305 182.065V170.63L122.681 158.022Z" fill="url(#paint0_linear_7589_53303)"/>
<path d="M108.486 188.832C109.276 185.887 108.27 180.579 107.668 178.293L175.162 170.288L175.162 181.773L174.285 192.818L108.486 188.832Z" fill="url(#paint1_linear_7589_53303)"/>
<path d="M116.524 34C116.524 34 158.158 74.4613 158.158 112.87C158.158 135.864 139.518 154.504 116.524 154.504C93.5302 154.504 74.8902 135.864 74.8901 112.87C74.8901 76.2529 116.45 34.0746 116.524 34ZM116.524 88.2412C111.518 88.2413 106.644 89.843 102.614 92.8115C98.5833 95.7802 95.608 99.9606 94.1235 104.741C92.639 109.522 92.7229 114.652 94.3628 119.382C96.0027 124.111 99.1126 128.192 103.238 131.027C107.363 133.863 112.287 135.304 117.291 135.141C122.294 134.977 127.113 133.217 131.044 130.118C134.976 127.019 137.813 122.744 139.14 117.918C140.468 113.091 140.216 107.966 138.422 103.293L116.524 111.697V88.2412Z" fill="url(#paint2_linear_7589_53303)"/>
</g>
<defs>
<linearGradient id="paint0_linear_7589_53303" x1="49.8133" y1="183.879" x2="122.516" y2="162.956" gradientUnits="userSpaceOnUse">
<stop stop-color="#F803FD"/>
<stop offset="0.44" stop-color="#8C0AFF"/>
<stop offset="1" stop-color="#4B6AF9"/>
</linearGradient>
<linearGradient id="paint1_linear_7589_53303" x1="188.065" y1="182.944" x2="110.074" y2="184.703" gradientUnits="userSpaceOnUse">
<stop stop-color="#F803FD"/>
<stop offset="0.44" stop-color="#8C0AFF"/>
<stop offset="1" stop-color="#4B6AF9"/>
</linearGradient>
<linearGradient id="paint2_linear_7589_53303" x1="116.524" y1="34" x2="116.524" y2="154.504" gradientUnits="userSpaceOnUse">
<stop stop-color="#F803FD"/>
<stop offset="0.44" stop-color="#8C0AFF"/>
<stop offset="1" stop-color="#4B6AF9"/>
</linearGradient>
<clipPath id="clip0_7589_53303">
<rect width="240" height="240" fill="white"/>
</clipPath>
</defs>
</svg>
