<svg viewBox="0 0 50 50" fill="none" xmlns="http://www.w3.org/2000/svg">
    <rect width="50" height="50" rx="25" fill="url(#refinance_svg__paint0_linear_9412_136247)"></rect>
    <path d="M41.252 24.2965C40.909 16.1686 34.6496 9.57855 26.6885 8.7581C25.7648 8.66238 25.0097 9.42811 25.0097 10.3611V14.8653C25.0097 15.7983 25.7698 16.537 26.6807 16.7212C29.8066 17.3544 32.3047 19.7284 33.1285 22.793C33.4619 22.6785 33.8413 22.6087 34.2799 22.607C35.793 22.6142 36.6094 23.4539 37.2454 24.133C37.8403 24.7595 38.315 25.2515 39.3101 25.2662C40.2368 25.2676 40.7112 24.8475 41.252 24.2965Z" fill="#366FFF" />
    <path d="M17.8192 10.3515C18.8448 9.84307 19.9642 10.6527 19.9642 11.8013V22.6516C18.4499 22.6622 17.6422 23.4856 17.0038 24.1552L16.9905 24.1689C16.3945 24.7813 15.921 25.2677 14.9239 25.2662C13.9289 25.2515 13.4542 24.7595 12.8593 24.133C12.2233 23.4539 11.4069 22.6142 9.89374 22.607C9.52547 22.6085 9.19886 22.6579 8.90625 22.7415C9.65723 17.29 13.0877 12.6985 17.8192 10.3515Z" fill="#366FFF" />
    <path d="M26.6865 41.242C25.7628 41.3371 25.0077 40.572 25.0077 39.639V35.1347C25.0077 34.2023 25.7678 33.4631 26.6786 33.279C30.5221 32.5003 33.4165 29.09 33.4165 25.0001C33.4165 24.9629 33.4163 24.9258 33.4158 24.8887C33.6599 24.7898 33.9394 24.7334 34.28 24.7339C35.2751 24.7486 35.7497 25.2406 36.3446 25.8671C36.9807 26.5462 37.7971 27.3859 39.3102 27.3931C40.0885 27.39 40.6807 27.1726 41.1592 26.8712C40.2977 34.4552 34.2627 40.4612 26.6865 41.242Z" fill="#004FA5" />
    <path d="M8.75 25.0281C8.76072 31.4416 12.4528 36.9876 17.8172 39.6486C18.8427 40.157 19.9621 39.3474 19.9621 38.1988V24.7784C18.9753 24.7818 18.5037 25.2664 17.9107 25.8757L17.8973 25.8894C17.2572 26.5609 16.4467 27.3871 14.9241 27.3931C13.411 27.3859 12.5946 26.5462 11.9585 25.8671C11.3636 25.2406 10.889 24.7486 9.89387 24.7339C9.41602 24.7332 9.05844 24.8445 8.75 25.0281Z" fill="#004FA5" />
    <defs>
        <linearGradient id="refinance_svg__paint0_linear_9412_136247" x1="25" y1="0" x2="25" y2="50" gradientUnits="userSpaceOnUse">
            <stop stop-color="#fafafa"></stop>
            <stop offset="1" stop-color="#F1F5F9"></stop>
        </linearGradient>
    </defs>
</svg>