<svg width="32" height="32" viewBox="0 0 32 32" fill="none" xmlns="http://www.w3.org/2000/svg">
<g clip-path="url(#clip0_1301_328114)">
<path d="M27 13.5C27 20.9558 20.9558 27 13.5 27C6.04416 27 0 20.9558 0 13.5C0 6.04416 6.04416 0 13.5 0C20.9558 0 27 6.04416 27 13.5Z" fill="#0E0B31"/>
<path fill-rule="evenodd" clip-rule="evenodd" d="M13.5 26.1562C20.4899 26.1562 26.1562 20.4899 26.1562 13.5C26.1562 6.51015 20.4899 0.84375 13.5 0.84375C6.51015 0.84375 0.84375 6.51015 0.84375 13.5C0.84375 20.4899 6.51015 26.1562 13.5 26.1562ZM13.5 27C20.9558 27 27 20.9558 27 13.5C27 6.04416 20.9558 0 13.5 0C6.04416 0 0 6.04416 0 13.5C0 20.9558 6.04416 27 13.5 27Z" fill="url(#paint0_linear_1301_328114)"/>
<path fill-rule="evenodd" clip-rule="evenodd" d="M19.4038 19.5775C19.4054 19.5887 19.4062 19.6001 19.4062 19.6117C19.4065 19.701 19.3636 19.784 19.2926 19.8308L13.6029 23.5868C13.526 23.6375 13.4292 23.6378 13.3525 23.5872L7.70874 19.878C7.63769 19.8312 7.5945 19.7484 7.59478 19.6591C7.59478 19.6515 7.59508 19.6435 7.59558 19.6359C7.59479 19.6274 7.59478 19.6197 7.59478 19.6114L7.59449 14.9772C7.59449 14.9713 7.59478 14.966 7.59508 14.9607C7.59112 14.8935 7.61163 14.8254 7.65606 14.7727C7.73178 14.6829 7.85579 14.6622 7.95316 14.7229L13.499 18.1687L18.9937 14.7562C19.0026 14.7503 19.0121 14.7456 19.0215 14.7412C19.0618 14.7079 19.1121 14.6882 19.1672 14.6882C19.2988 14.6882 19.406 14.8028 19.406 14.9439L19.4063 19.5416C19.4063 19.554 19.4054 19.5657 19.4038 19.5775ZM8.07229 19.2069L9.71165 18.1465L8.07204 15.7307L8.07229 19.2069ZM9.99336 18.562C9.5386 18.856 8.29279 19.6617 8.29279 19.6617L12.7097 22.5648L9.99336 18.562ZM14.3218 22.5115L18.708 19.6158L17.0133 18.5249L14.3218 22.5115ZM17.294 18.1088L18.9285 19.1609L18.9283 15.688L17.294 18.1088ZM13.379 18.6854L8.69051 15.772L13.4986 22.8577L18.2622 15.8015L13.6187 18.6854C13.5447 18.7313 13.453 18.7313 13.379 18.6854ZM7.8251 13.7333C7.69696 13.7282 7.59426 13.616 7.59425 13.4776L7.59375 7.45397C7.59375 7.43897 7.59534 7.42421 7.59771 7.41005C7.59535 7.39623 7.59375 7.38207 7.59375 7.36766C7.59345 7.27839 7.63668 7.19532 7.70767 7.14877L13.3977 3.41281C13.474 3.36244 13.5705 3.36244 13.6469 3.41252L19.2907 7.10133C19.362 7.14788 19.4052 7.23096 19.4052 7.32022C19.4052 7.32446 19.4049 7.32785 19.4049 7.33141C19.4049 7.33565 19.4052 7.33905 19.4052 7.3432L19.4057 13.4461C19.4057 13.5539 19.343 13.6464 19.2547 13.6838L13.6138 17.0058C13.5423 17.0479 13.4552 17.0479 13.3836 17.0058L7.8251 13.7333ZM8.07145 7.81869L8.07175 12.6657L10.1009 9.12499L8.07145 7.81869ZM18.9277 7.77273L16.8793 9.0976L18.928 12.6718L18.9277 7.77273ZM16.6296 8.66162C17.1548 8.32189 18.7063 7.31845 18.7063 7.31845L14.1545 4.34317L16.6296 8.66162ZM12.8092 4.39886L8.29277 7.3644L10.3507 8.68926L12.8092 4.39886ZM8.22131 13.383L13.4987 16.4899L18.775 13.3827L13.4978 4.17524L8.22131 13.383Z" fill="#C0FC5C"/>
</g>
<g clip-path="url(#clip1_1301_328114)">
<path d="M32 25C32 28.866 28.866 32 25 32C21.134 32 18 28.866 18 25C18 21.134 21.134 18 25 18C28.866 18 32 21.134 32 25Z" fill="#C0FC5C"/>
<path fill-rule="evenodd" clip-rule="evenodd" d="M28.9375 21.0625H21.7188H21.0625H21.0625V21.7473H21.0625L21.0625 23.4592H21.0625V24.144H21.0625V24.144L21.0625 25.856H21.0625V26.5408H28.2812V28.2527H21.0625V28.9375H28.2812V28.9375H28.9375V28.9375V28.2527V26.5408V26.5408V25.856V25.856V24.144V23.4592V23.4592H21.7188L21.7188 21.7473H28.9375V21.0625ZM28.2812 25.856V25.856V24.144H21.7188V24.144V25.856H28.2812Z" fill="black"/>
</g>
<defs>
<linearGradient id="paint0_linear_1301_328114" x1="0" y1="0" x2="27" y2="27" gradientUnits="userSpaceOnUse">
<stop stop-color="#9F28E9"/>
<stop offset="1" stop-color="#0D8BD3"/>
</linearGradient>
<clipPath id="clip0_1301_328114">
<rect width="27" height="27" fill="white"/>
</clipPath>
<clipPath id="clip1_1301_328114">
<rect width="14" height="14" fill="white" transform="translate(18 18)"/>
</clipPath>
</defs>
</svg>
