<svg fill="none" viewBox="0 0 600 600" xmlns="http://www.w3.org/2000/svg">
    <radialGradient id="a" cx="0" cy="0" gradientTransform="rotate(54.17 -42.31 263.4) scale(497.082)" gradientUnits="userSpaceOnUse" r="1">
        <stop offset="0" stop-color="#34492E"/>
        <stop offset="1" stop-color="#1A2C15"/>
    </radialGradient>
    <path d="M300 600c165.69 0 300-134.31 300-300S465.69 0 300 0 0 134.31 0 300s134.31 300 300 300z" fill="url(#a)"/>
    <g transform="matrix(1.15,0,0,1.15,0,0)">
        <path d="M320.534 70.9576C322.717 61.8262 317.085 52.6536 307.954 50.47C298.822 48.2864 289.65 53.9187 287.466 63.0501L279.573 96.0583C222.617 97.8673 177 144.609 177 202.004C177 241.769 209.235 273.004 249 273.004C252.543 273.004 256.04 272.753 259.531 272.503C263.012 272.253 266.487 272.004 270 272.004C290.987 272.004 308 288.017 308 309.004C308 348.768 275.765 381.004 236 381.004C215.013 381.004 198 363.991 198 343.004C198 341.765 198.133 340.557 198.384 339.394C200.459 351.108 210.691 360.004 223 360.004C239.569 360.004 253 346.573 253 330.004C253 309.017 235.987 292.004 215 292.004C186.833 292.004 164 314.837 164 343.004C164 372.068 181.221 397.109 206.015 408.482L198.466 440.05C196.283 449.182 201.915 458.354 211.046 460.538C220.178 462.721 229.35 457.089 231.534 447.958L239.427 414.95C296.383 413.141 342 366.399 342 309.004C342 269.239 309.764 238.004 270 238.004C266.447 238.004 262.942 238.255 259.447 238.506C255.969 238.755 252.499 239.004 249 239.004C228.013 239.004 211 222.991 211 202.004C211 162.24 243.235 130.004 283 130.004C303.987 130.004 321 147.017 321 168.004C321 169.243 320.867 170.451 320.616 171.614C318.541 159.9 308.309 151.004 296 151.004C279.431 151.004 266 164.435 266 181.004C266 201.991 283.013 219.004 304 219.004C332.167 219.004 355 196.171 355 168.004C355 138.94 337.779 113.898 312.985 102.526L320.534 70.9576Z" fill="#D5F6CA"/>
    </g>
</svg>