<svg fill="none" viewBox="0 0 600 600" xmlns="http://www.w3.org/2000/svg">
    <radialGradient id="a" cx="0" cy="0" gradientTransform="rotate(54.2 -42.3 263.4) scale(497.082)" gradientUnits="userSpaceOnUse" r="1">
        <stop offset="0" stop-color="#d6edff"/>
        <stop offset="1" stop-color="#2775c9"/>
    </radialGradient>
    <path d="M300 600a300.2 300.2 0 00294.2-358.5A299.8 299.8 0 0050.6 133.3 300.2 300.2 0 00300 600z" fill="#bcddf8"/>
    <path d="M300 600a300 300 0 100-600 300 300 0 000 600z" fill="url(#a)" fill-opacity=".3"/>
    <path d="M378.1 341.6c0-40.8-24.8-54.5-72.8-61.2-35.5-5-42.3-13.5-42.3-30 0-16.6 12-26.8 35-26.8 20.9 0 33 7.3 37.9 24a8.4 8.4 0 003.2 4.7 8.8 8.8 0 005.3 1.8h18.3c1.3 0 2.4-.1 3.5-.7a8.1 8.1 0 004.7-8.7C365 218 347 202 318.9 197v-28a8.7 8.7 0 00-8.7-8.8h-17.5a8.7 8.7 0 00-8.7 8.7V196c-35 4.9-57 28-57 57.6 0 38.3 23.2 53.2 72 59.8 33.2 5.4 42.6 12.6 42.6 31.4s-16 31.5-38.6 31.5c-30.5 0-40.8-13.3-44.3-30.6a9 9 0 00-3-5 8.6 8.6 0 00-5.5-2h-20c-1.1 0-2.4.2-3.4.6-1.1.6-2 1.3-2.9 2.2a8.1 8.1 0 00-1.8 6.6c5 29.1 23.7 50.5 61.9 55.6v27.6a8.7 8.7 0 008.7 8.8h17.5a8.7 8.7 0 008.7-8.8v-27.8c36.2-5.6 59.2-30.6 59.2-61.9zM241.4 464.4a175 175 0 01-83.3-264.5 174.5 174.5 0 0183.3-64 12.9 12.9 0 007.5-11v-16.4c.2-1.4 0-2.9-.7-4.2a7.6 7.6 0 00-2.7-3.3 8.1 8.1 0 00-8.2-.8 209.8 209.8 0 00-105.7 324c26.3 35.8 63.3 62.5 105.7 76a8.1 8.1 0 008.2-.8 9 9 0 002.7-3.2c.6-1.4.9-2.8.7-4.3v-16.3c0-2.4-.9-4.7-2.2-6.6-1.2-2.2-3-3.7-5.3-4.6zM365.6 100a8.1 8.1 0 00-8.2.8c-1.2 1-2.2 2-2.8 3.3a7.7 7.7 0 00-.7 4.2v16.4a12.6 12.6 0 007.5 11 175 175 0 0183.4 264.5 174.5 174.5 0 01-83.4 64 12 12 0 00-5.5 4.3 12 12 0 00-2 6.7v16.4c-.2 1.4.1 2.9.7 4.2a7.6 7.6 0 002.8 3.3 8.1 8.1 0 008.2.8 209.8 209.8 0 000-399.9z" fill="#2775c9"/>
    <g transform="matrix(1.2,0,0,1.2,350,350)">
        <circle fill="#333335" cx="100" cy="100" r="100"/>
        <path fill="#a6fd57" d="M144.97,83.76c-2.6,2.31-6.97,3.3-10.31,2.28-5.35-1.63-6.13-5.1-9.59-8.43-11.41-10.97-29.76-11.28-41.89-1.34l-32.22,31.98c-1.35-10.29-.24-20.53,3.97-30.04,14.41-32.55,57.09-41.74,83.89-17.95,6.39,5.67,14.93,15.71,6.15,23.51Z"/>
        <path fill="#a6fd57" d="M152.19,104.33c6.79,5.65-1.03,19.99-4.9,25.68-11.35,16.69-32.21,25.44-52.18,22.38,5.36-5.44,10.58-11.07,15.93-16.51,2.5-2.54,9.87-8.19,10.48-11.41,1.2-6.37-6.32-4.33-9.73-5.65-8.38-3.25-6.62-14.75,1.99-16.02,10.8.75,22.72-.9,33.39.01,1.42.12,3.95.62,5.02,1.51Z"/>
        <path fill="white" d="M112.9,96.98c-9.11,1.08-14.83,11.02-11.4,19.51,2.04,5.04,6.12,6.94,10.96,8.42.49.15.8-.31.65.67l-27.69,27.29c-.8-.02-1.19.33-1.15-.69.08-1.78,1.12-4.01,1.3-5.91.57-6.08-2.65-10.95-9.2-10.56-3.34.2-6.81,2.72-9.56,3.09-3.84.52-.1-5.78.23-7.91.95-6.1-3.76-11.24-9.99-10.44-3.05.39-9.49,4.74-11.76,4.48-1.71-.19-.98-1.42-.22-2.37,14.73-12.37,27.68-29.99,42.35-42.04,15.46-12.7,38.63-3.1,41.01,16.45-4.92.42-10.74-.57-15.55,0ZM86.87,88.05c-4.63.97-7.04,12.12-2.7,12.92,5.6,1.03,9.23-14.29,2.7-12.92ZM99.94,88.06c-7.05,1.6-5.97,19.5,1.26,10.73,2.46-2.98,4.28-11.99-1.26-10.73Z"/>
    </g>
</svg>