<svg width="330" height="330" viewBox="0 0 330 330" fill="none" xmlns="http://www.w3.org/2000/svg">
<path d="M54.63 144.82C54.63 134.87 57.91 125.8 63.58 118.62L123.55 178.57C116.24 184.24 107.17 187.51 97.34 187.51C73.65 187.52 54.5 168.37 54.63 144.82ZM233.03 187.39C256.59 187.52 275.74 168.37 275.74 144.69C275.74 134.87 272.46 125.8 266.79 118.49L206.82 178.44C214.01 184.12 223.08 187.39 233.03 187.39ZM165 195.2L34.47 64.72C38.12 60.06 42.03 55.53 46.06 51.24C76.05 19.88 118.25 0.22998 165.13 0.22998C212 0.22998 254.33 19.88 284.19 51.24C288.35 55.4 292.25 60.06 295.53 64.59L165 195.2ZM63.95 63.59L165.12 164.73L266.3 63.59C239.46 36.51 203.68 21.65 165.13 21.65C126.58 21.65 90.91 36.51 63.95 63.59ZM165 329.34C255.84 329.34 329.55 255.66 329.55 164.85C329.8 133.49 321.11 104.39 305.99 79.58L279.4 106.16C288.22 116.74 293.51 130.09 293.51 144.95C293.51 178.33 266.42 205.41 233.03 205.41C218.29 205.41 204.81 200.12 194.22 191.3L165.12 220.39L136.01 191.3C125.43 200.12 112.07 205.41 97.2 205.41C63.81 205.41 36.72 178.33 36.72 144.95C36.72 130.21 42.01 116.74 50.83 106.16L37.22 92.56L24.24 79.59C9.11999 104.53 0.429993 133.62 0.429993 164.86C0.449993 255.78 74.16 329.34 165 329.34Z" fill="#133629"/>
</svg>
