<svg width="32" height="32" viewBox="0 0 32 32" fill="none" xmlns="http://www.w3.org/2000/svg">
<g clip-path="url(#clip0_543_216875)">
<mask id="mask0_543_216875" style="mask-type:luminance" maskUnits="userSpaceOnUse" x="0" y="3" width="26" height="26">
<path d="M26 3H0V29H26V3Z" fill="white"/>
</mask>
<g mask="url(#mask0_543_216875)">
<path d="M13 29C20.1797 29 26 23.1797 26 16C26 8.8203 20.1797 3 13 3C5.8203 3 0 8.8203 0 16C0 23.1797 5.8203 29 13 29Z" fill="url(#paint0_linear_543_216875)"/>
<path d="M9.30002 13.858C9.19426 13.858 9.08807 13.8331 8.99334 13.7858L4.76223 11.6754C4.58664 11.5879 4.45665 11.4289 4.40554 11.2396C4.35443 11.0501 4.38682 10.8474 4.49455 10.6835C5.25155 9.53085 6.21255 8.56038 7.35112 7.7992C8.48596 7.04044 9.74218 6.52623 11.0847 6.27067C11.1269 6.26274 11.1695 6.25854 11.2121 6.25854C11.5585 6.25854 11.8501 6.52006 11.8907 6.86705C11.9323 7.22308 11.6904 7.55421 11.3401 7.62097C9.32976 8.00409 7.50513 9.08957 6.20219 10.6774L6.09711 10.8056L9.23282 12.3696L11.8385 10.4694C12.1791 10.2211 12.5805 10.0898 12.9993 10.0898C13.4181 10.0898 13.8193 10.2211 14.1601 10.4694L16.7653 12.3698L19.9014 10.8058L19.7963 10.6776C18.4934 9.08979 16.6689 8.0043 14.6584 7.62118C14.3082 7.55443 14.0665 7.22351 14.1079 6.8675C14.1484 6.52049 14.4401 6.25877 14.7865 6.25877C14.8289 6.25877 14.8717 6.26274 14.9138 6.27088C16.2563 6.52645 17.5126 7.04066 18.6475 7.79941C19.7858 8.5606 20.7471 9.53108 21.504 10.6838C21.6118 10.8477 21.6442 11.0506 21.5931 11.2398C21.5419 11.4293 21.4119 11.5881 21.2363 11.6756L17.0048 13.786C16.91 13.8331 16.8041 13.8582 16.6981 13.8582C16.5517 13.8582 16.4115 13.8126 16.2932 13.7263L13.3507 11.5798C13.2476 11.5046 13.1262 11.465 12.9995 11.465C12.8729 11.465 12.7514 11.5046 12.6483 11.5798L9.70495 13.7263C9.58665 13.8126 9.44652 13.858 9.30002 13.858Z" fill="white"/>
<path d="M14.1129 25.7382C13.734 25.7382 13.4258 25.43 13.4258 25.0511V19.8116H15.826C16.5075 19.8116 17.062 19.2573 17.062 18.5757V15.1315C17.062 14.8694 17.2079 14.6338 17.4422 14.5166L21.6183 12.4331C21.7148 12.3851 21.8177 12.3606 21.9245 12.3606C22.2138 12.3606 22.4738 12.5432 22.5716 12.8153C22.9684 13.9173 23.1695 15.0755 23.1695 16.2573C23.1695 18.367 22.529 20.3908 21.3175 22.1095C20.2817 23.5791 18.8762 24.7503 17.254 25.4963C17.1643 25.5375 17.0688 25.5584 16.971 25.5584C16.6864 25.5584 16.4277 25.3789 16.3275 25.1116C16.2015 24.7761 16.3571 24.3963 16.6817 24.2467C18.0838 23.6015 19.2984 22.5887 20.1944 21.3177C21.2418 19.8319 21.7954 18.0819 21.7954 16.2573C21.7954 15.556 21.7128 14.8585 21.5498 14.1841L21.5108 14.0228L18.4363 15.5567V18.5763C18.4363 20.0154 17.2655 21.1858 15.8268 21.1858H14.8003V25.0513C14.8003 25.4302 14.4919 25.7382 14.1129 25.7382Z" fill="white"/>
<path d="M11.8892 25.7382C11.7057 25.7382 11.5331 25.6668 11.4034 25.537C11.2737 25.4073 11.2023 25.2348 11.2023 25.0513V21.1858H10.1763C8.73696 21.1858 7.56621 20.015 7.56621 18.5759V15.5567L4.49174 14.0228L4.45275 14.1841C4.28972 14.8585 4.20711 15.556 4.20711 16.2573C4.20711 18.0821 4.76074 19.8319 5.80812 21.3177C6.70413 22.5886 7.91872 23.6015 9.32079 24.2467C9.64465 24.3959 9.80063 24.775 9.67571 25.1099L9.67483 25.1125C9.57481 25.3789 9.31616 25.5584 9.03152 25.5584C8.93347 25.5584 8.8383 25.5375 8.74864 25.4963C7.12625 24.7503 5.7211 23.5791 4.68497 22.1095C3.47346 20.3906 2.83301 18.367 2.83301 16.2573C2.83301 15.0755 3.03416 13.9175 3.43094 12.8153C3.52876 12.5435 3.78895 12.3606 4.078 12.3606C4.18463 12.3606 4.28774 12.3851 4.38423 12.4331L8.56027 14.5166C8.79489 14.6335 8.94053 14.8694 8.94053 15.1315V18.5761C8.94053 19.2573 9.49484 19.8116 10.176 19.8116H12.5768V25.0511C12.5768 25.2346 12.5054 25.407 12.3756 25.5368C12.2458 25.6666 12.0727 25.7382 11.8892 25.7382Z" fill="white"/>
<path d="M7.04167 28.1876C10.4819 28.1876 13.2708 25.3987 13.2708 21.9584C13.2708 18.5181 10.4819 15.7292 7.04167 15.7292C3.60139 15.7292 0.8125 18.5181 0.8125 21.9584C0.8125 25.3987 3.60139 28.1876 7.04167 28.1876Z" fill="#FF3737" stroke="#04111D" stroke-width="0.5"/>
<path d="M4.00289 24.6667H6.11743L6.89951 21.3838L7.65263 24.6667H9.77681L11.1576 19.25H9.38094L8.78231 22.8514L7.95195 19.25H5.92431L5.12292 22.8418L4.51464 19.25H2.63184L4.00289 24.6667Z" fill="white"/>
</g>
</g>
<g clip-path="url(#clip1_543_216875)">
<path d="M32 25C32 21.134 28.866 18 25 18C21.134 18 18 21.134 18 25C18 28.866 21.134 32 25 32C28.866 32 32 28.866 32 25Z" fill="#0052FF"/>
<path fill-rule="evenodd" clip-rule="evenodd" d="M24.6008 20.1328V22.7095C23.7328 22.8386 23.2332 23.4044 23.2332 24.0829C23.2332 24.9503 23.802 25.3107 24.6089 25.4508L25.0983 25.5376C25.5547 25.6176 25.773 25.6777 25.773 26.0113C25.773 26.3316 25.5282 26.5852 25.0057 26.5852C24.4898 26.5852 24.1724 26.3583 24.1724 25.8979H23.1406C23.1406 26.6719 23.716 27.2257 24.6089 27.3459V28.24H25.4158V27.3392C26.2624 27.2057 26.8047 26.6786 26.8047 25.9245C26.8047 25.0104 26.1698 24.6901 25.3893 24.57L24.9197 24.4966C24.5031 24.4299 24.2716 24.3365 24.2716 23.9962C24.2716 23.7293 24.47 23.469 24.9727 23.469C25.4951 23.469 25.7134 23.7226 25.7134 24.0629H26.7452C26.732 23.417 26.2709 22.8575 25.4211 22.7159V20.1392C27.9141 20.3656 29.8672 22.4614 29.8672 25.0135C29.8672 27.7166 27.6758 29.908 24.9727 29.908C22.2695 29.908 20.0781 27.7166 20.0781 25.0135C20.0781 22.4354 22.0713 20.3228 24.6008 20.1328Z" fill="white"/>
</g>
<g clip-path="url(#clip2_543_216875)">
<path d="M32 25C32 21.134 28.866 18 25 18C21.134 18 18 21.134 18 25C18 28.866 21.134 32 25 32C28.866 32 32 28.866 32 25Z" fill="#0052FF"/>
<path fill-rule="evenodd" clip-rule="evenodd" d="M24.6008 20.1328V22.7095C23.7328 22.8386 23.2332 23.4044 23.2332 24.0829C23.2332 24.9503 23.802 25.3107 24.6089 25.4508L25.0983 25.5376C25.5547 25.6176 25.773 25.6777 25.773 26.0113C25.773 26.3316 25.5282 26.5852 25.0057 26.5852C24.4898 26.5852 24.1724 26.3583 24.1724 25.8979H23.1406C23.1406 26.6719 23.716 27.2257 24.6089 27.3459V28.24H25.4158V27.3392C26.2624 27.2057 26.8047 26.6786 26.8047 25.9245C26.8047 25.0104 26.1698 24.6901 25.3893 24.57L24.9197 24.4966C24.5031 24.4299 24.2716 24.3365 24.2716 23.9962C24.2716 23.7293 24.47 23.469 24.9727 23.469C25.4951 23.469 25.7134 23.7226 25.7134 24.0629H26.7452C26.732 23.417 26.2709 22.8575 25.4211 22.7159V20.1392C27.9141 20.3656 29.8672 22.4614 29.8672 25.0135C29.8672 27.7166 27.6758 29.908 24.9727 29.908C22.2695 29.908 20.0781 27.7166 20.0781 25.0135C20.0781 22.4354 22.0713 20.3228 24.6008 20.1328Z" fill="white"/>
</g>
<g clip-path="url(#clip3_543_216875)">
<mask id="mask1_543_216875" style="mask-type:luminance" maskUnits="userSpaceOnUse" x="18" y="0" width="14" height="14">
<path d="M32 0H18V14H32V0Z" fill="white"/>
</mask>
<g mask="url(#mask1_543_216875)">
<path fill-rule="evenodd" clip-rule="evenodd" d="M30.2017 8.69395e-10C29.4808 -1.37073e-05 28.391 0.162081 27.2263 0.415686C26.0345 0.675169 24.6697 1.05137 23.3724 1.5223C22.0862 1.98917 20.8079 2.57005 19.8305 3.2561C18.8883 3.91741 18.0001 4.83826 18 5.99994C18 6.17338 18.0199 6.33808 18.057 6.49443C18.0199 6.65749 18 6.82602 18 6.99994C18 7.17338 18.0199 7.33808 18.057 7.49443C18.0199 7.65749 18 7.82602 18 7.99994C18 8.17338 18.0199 8.33808 18.057 8.49443C18.0199 8.65749 18 8.82602 18 8.99994C18 9.17338 18.0199 9.33808 18.057 9.49443C18.0199 9.65749 18 9.82602 18 9.99994C17.9999 11.3404 19.1901 12.1594 20.2854 12.6288C21.426 13.1177 22.8746 13.4185 24.2246 13.6114C25.594 13.807 26.9523 13.9035 27.9611 13.9516C28.4674 13.9757 28.89 13.9878 29.1874 13.9939C29.3329 13.9968 29.574 13.9991 29.6609 13.9999L29.6667 14H30.0586C30.8085 14 31.4164 13.479 31.4164 12.8362C31.4164 12.6618 31.37 12.4911 31.2849 12.3365C31.3692 12.1849 31.4164 12.0153 31.4164 11.8362C31.4164 11.6618 31.37 11.4911 31.2849 11.3365C31.3692 11.1849 31.4164 11.0153 31.4164 10.8362C31.4164 10.6618 31.37 10.4911 31.2849 10.3365C31.3692 10.1849 31.4164 10.0153 31.4164 9.83622C31.4164 9.66127 31.3698 9.49011 31.2842 9.33517C31.3689 9.18395 31.4164 9.01478 31.4164 8.83622C31.4164 8.24339 30.8811 7.69405 30.1077 7.67184C29.7591 7.66183 28.9332 7.63155 27.9106 7.55175C29.0093 7.31903 29.9671 7.15386 30.5275 7.06339C31.3824 6.92539 32 6.28686 32 5.54138C32 5.36658 31.966 5.19857 31.9035 5.04193C31.9662 4.88429 32 4.71576 32 4.54138C32 4.36658 31.966 4.19857 31.9035 4.04193C31.9662 3.88429 32 3.71576 32 3.54138C32 3.36658 31.966 3.19857 31.9035 3.04193C31.9662 2.88429 32 2.71576 32 2.54138C32 2.36658 31.966 2.19857 31.9035 2.04193C31.9662 1.88429 32 1.71576 32 1.54138C32 0.690109 31.1949 1.69891e-05 30.2017 8.69395e-10Z" fill="white"/>
<path d="M30.202 1.16675C30.5508 1.16675 30.8336 1.4024 30.8336 1.69309C30.8336 1.95039 30.6153 2.16978 30.3119 2.2174C28.1917 2.55013 20.3337 3.92519 20.3337 6.02786C20.3337 8.26351 28.7234 8.58737 30.0689 8.62494C30.1729 8.62784 30.25 8.69863 30.25 8.78529C30.25 8.87323 30.1644 8.94452 30.0589 8.94452H29.9583H29.6667C29.6667 8.94452 19.1668 8.94453 19.167 6.02786C19.1672 3.28787 27.917 1.16669 30.202 1.16675Z" fill="#0C0D1D"/>
<path d="M30.202 2.13892C30.5508 2.13892 30.8336 2.37457 30.8336 2.66526C30.8336 2.92256 30.6153 3.14195 30.3119 3.18956C28.1917 3.5223 20.3337 4.89736 20.3337 7.00003C20.3337 9.23568 28.7234 9.55954 30.0689 9.59711C30.1729 9.60001 30.25 9.6708 30.25 9.75746C30.25 9.8454 30.1644 9.91669 30.0589 9.91669H29.9583H29.6667C29.6667 9.91669 19.1668 9.9167 19.167 7.00003C19.1672 4.26004 27.917 2.13886 30.202 2.13892Z" fill="#0433FF"/>
<path d="M30.202 3.11108C30.5508 3.11108 30.8336 3.34674 30.8336 3.63743C30.8336 3.89472 30.6153 4.11411 30.3119 4.16173C28.1917 4.49447 20.3337 5.86953 20.3337 7.9722C20.3337 10.2078 28.7234 10.5317 30.0689 10.5693C30.1729 10.5722 30.25 10.643 30.25 10.7296C30.25 10.8176 30.1644 10.8889 30.0589 10.8889H29.9583H29.6667C29.6667 10.8889 19.1668 10.8889 19.167 7.9722C19.1672 5.23221 27.917 3.11102 30.202 3.11108Z" fill="#9CADFF"/>
<path d="M30.202 4.08325C30.5508 4.08325 30.8336 4.31891 30.8336 4.6096C30.8336 4.86689 30.6153 5.08628 30.3119 5.1339C28.1917 5.46664 20.3337 6.8417 20.3337 8.94437C20.3337 11.18 28.7234 11.5039 30.0689 11.5415C30.1729 11.5444 30.25 11.6152 30.25 11.7018C30.25 11.7898 30.1644 11.8611 30.0589 11.8611H29.9583H29.6667C29.6667 11.8611 19.1668 11.8611 19.167 8.94437C19.1672 6.20438 27.917 4.08319 30.202 4.08325Z" fill="#F5F3E6"/>
<path d="M30.202 5.05566C30.5508 5.05566 30.8336 5.29131 30.8336 5.58201C30.8336 5.8393 30.6153 6.05869 30.3119 6.10631C28.1917 6.43904 20.3337 7.81411 20.3337 9.91678C20.3337 12.1525 28.7234 12.4763 30.0689 12.5139C30.1729 12.5168 30.25 12.5876 30.25 12.6742C30.25 12.7622 30.1644 12.8335 30.0589 12.8335H29.9583H29.6667C29.6667 12.8335 19.1668 12.8335 19.167 9.91678C19.1672 7.17679 27.917 5.0556 30.202 5.05566Z" fill="#FF1100"/>
</g>
</g>
<defs>
<linearGradient id="paint0_linear_543_216875" x1="24.7325" y1="5.70811" x2="-2.68618" y2="9.09575" gradientUnits="userSpaceOnUse">
<stop offset="1" stop-color="#2E5CFF"/>
</linearGradient>
<clipPath id="clip0_543_216875">
<rect width="26" height="26" fill="white" transform="translate(0 3)"/>
</clipPath>
<clipPath id="clip1_543_216875">
<rect width="14" height="14" fill="white" transform="translate(18 18)"/>
</clipPath>
<clipPath id="clip2_543_216875">
<rect width="14" height="14" fill="white" transform="translate(18 18)"/>
</clipPath>
<clipPath id="clip3_543_216875">
<rect width="14" height="14" fill="white" transform="translate(18)"/>
</clipPath>
</defs>
</svg>
