<svg id="svg" version="1.1" xmlns="http://www.w3.org/2000/svg" xmlns:xlink="http://www.w3.org/1999/xlink" width="400" height="400" viewBox="0, 0, 400,400"><g id="svgg"><path id="path0" d="M189.800 35.200 C 189.664 35.420,188.753 35.600,187.776 35.600 C 186.799 35.600,186.000 35.780,186.000 36.000 C 186.000 36.220,185.406 36.400,184.680 36.400 C 183.301 36.400,181.209 37.183,181.203 37.700 C 181.201 37.865,180.660 38.000,180.000 38.000 C 179.340 38.000,178.800 38.180,178.800 38.400 C 178.800 38.620,178.332 38.800,177.760 38.800 C 177.121 38.800,176.289 39.262,175.600 40.000 C 174.983 40.660,174.298 41.200,174.078 41.200 C 173.512 41.200,168.400 46.200,168.400 46.752 C 168.400 47.003,167.860 47.772,167.200 48.463 C 166.540 49.154,166.000 50.142,166.000 50.659 C 166.000 51.333,165.773 51.600,165.200 51.600 C 164.760 51.600,164.400 51.780,164.400 52.000 C 164.400 52.220,163.961 52.400,163.424 52.400 C 162.887 52.400,162.336 52.580,162.200 52.800 C 162.064 53.020,161.444 53.200,160.822 53.200 C 159.683 53.200,157.458 54.124,157.792 54.459 C 157.891 54.557,157.303 54.683,156.486 54.737 C 155.669 54.791,154.940 55.007,154.867 55.218 C 154.793 55.428,154.478 55.600,154.167 55.600 C 153.855 55.600,153.600 55.780,153.600 56.000 C 153.600 56.220,152.970 56.400,152.200 56.400 C 151.430 56.400,150.800 56.580,150.800 56.800 C 150.800 57.020,150.440 57.200,150.000 57.200 C 149.560 57.200,149.200 57.380,149.200 57.600 C 149.200 57.820,148.761 58.000,148.224 58.000 C 147.687 58.000,147.136 58.180,147.000 58.400 C 146.864 58.620,146.424 58.800,146.022 58.800 C 145.194 58.800,143.120 59.787,143.387 60.054 C 143.483 60.150,143.076 60.269,142.481 60.318 C 141.886 60.367,141.340 60.585,141.267 60.803 C 141.193 61.022,140.880 61.200,140.570 61.200 C 140.260 61.200,139.782 61.560,139.507 62.000 C 139.186 62.515,138.574 62.800,137.792 62.800 C 137.035 62.800,136.359 63.102,136.000 63.600 C 135.683 64.040,135.103 64.400,134.712 64.400 C 134.320 64.400,134.000 64.580,134.000 64.800 C 134.000 65.020,133.706 65.200,133.347 65.200 C 132.988 65.200,132.401 65.515,132.043 65.900 C 131.119 66.893,129.402 67.849,129.835 67.130 C 130.258 66.427,128.955 67.432,127.540 68.900 C 126.956 69.505,126.281 70.000,126.040 70.000 C 125.798 70.000,125.600 70.180,125.600 70.400 C 125.600 70.620,125.370 70.800,125.088 70.800 C 124.807 70.800,124.317 71.160,124.000 71.600 C 123.683 72.040,123.143 72.400,122.800 72.400 C 122.457 72.400,121.917 72.760,121.600 73.200 C 121.283 73.640,120.786 74.000,120.496 74.000 C 120.205 74.000,119.283 74.720,118.446 75.600 C 117.609 76.480,116.723 77.200,116.478 77.200 C 116.233 77.200,114.418 78.820,112.443 80.800 C 110.469 82.780,108.690 84.400,108.490 84.400 C 107.953 84.400,104.400 87.847,104.400 88.369 C 104.400 88.615,103.140 90.094,101.600 91.656 C 100.060 93.217,98.800 94.668,98.800 94.879 C 98.800 95.090,98.080 95.976,97.200 96.847 C 96.320 97.718,95.600 98.629,95.600 98.872 C 95.600 99.115,95.060 99.829,94.400 100.460 C 93.740 101.091,93.200 101.787,93.200 102.007 C 93.200 102.227,92.660 102.972,92.000 103.663 C 91.340 104.354,90.800 105.122,90.800 105.371 C 90.800 105.620,90.440 106.083,90.000 106.400 C 89.560 106.717,89.200 107.297,89.200 107.688 C 89.200 108.080,89.020 108.400,88.800 108.400 C 88.580 108.400,88.400 108.760,88.400 109.200 C 88.400 109.640,88.220 110.000,88.000 110.000 C 87.780 110.000,87.600 110.270,87.600 110.600 C 87.600 110.930,87.420 111.200,87.200 111.200 C 86.980 111.200,86.800 111.388,86.800 111.617 C 86.800 111.846,86.440 112.420,86.000 112.892 C 85.560 113.364,85.200 114.077,85.200 114.475 C 85.200 114.874,85.065 115.201,84.900 115.203 C 84.525 115.207,83.600 117.158,83.600 117.946 C 83.600 118.269,83.483 118.416,83.340 118.273 C 82.984 117.917,82.028 119.236,82.013 120.105 C 81.998 120.910,81.322 122.193,80.300 123.355 C 79.915 123.793,79.600 124.567,79.600 125.075 C 79.600 125.584,79.420 126.000,79.200 126.000 C 78.980 126.000,78.800 126.450,78.800 127.000 C 78.800 127.550,78.620 128.000,78.400 128.000 C 78.180 128.000,78.000 128.360,78.000 128.800 C 78.000 129.240,77.820 129.600,77.600 129.600 C 77.380 129.600,77.200 129.870,77.200 130.200 C 77.200 130.530,77.020 130.800,76.800 130.800 C 76.580 130.800,76.400 131.340,76.400 132.000 C 76.400 132.660,76.220 133.200,76.000 133.200 C 75.780 133.200,75.600 133.920,75.600 134.800 C 75.600 135.680,75.420 136.400,75.200 136.400 C 74.980 136.400,74.800 136.940,74.800 137.600 C 74.800 138.260,74.620 138.800,74.400 138.800 C 74.180 138.800,74.000 139.250,74.000 139.800 C 74.000 140.350,73.820 140.800,73.600 140.800 C 73.380 140.800,73.200 141.340,73.200 142.000 C 73.200 142.660,73.020 143.200,72.800 143.200 C 72.580 143.200,72.400 143.830,72.400 144.600 C 72.400 145.370,72.220 146.000,72.000 146.000 C 71.780 146.000,71.600 146.810,71.600 147.800 C 71.600 148.790,71.420 149.600,71.200 149.600 C 70.980 149.600,70.800 150.140,70.800 150.800 C 70.800 151.460,70.620 152.000,70.400 152.000 C 70.178 152.000,70.000 153.056,70.000 154.367 C 70.000 155.885,69.821 156.806,69.500 156.936 C 69.124 157.089,69.148 157.244,69.600 157.563 C 70.007 157.851,70.039 157.990,69.700 157.994 C 69.412 157.997,69.200 158.510,69.200 159.200 C 69.200 159.860,69.020 160.400,68.800 160.400 C 68.226 160.400,68.306 161.489,68.900 161.767 C 69.300 161.953,69.300 162.047,68.900 162.233 C 68.625 162.362,68.400 163.082,68.400 163.833 C 68.400 164.585,68.220 165.200,68.000 165.200 C 67.780 165.200,67.600 165.650,67.600 166.200 C 67.600 166.750,67.780 167.200,68.000 167.200 C 68.220 167.200,68.400 167.571,68.400 168.024 C 68.400 168.477,68.220 168.736,68.000 168.600 C 67.744 168.442,67.600 169.671,67.600 172.003 C 67.600 174.010,67.402 176.022,67.160 176.475 C 66.840 177.072,66.840 177.222,67.160 177.025 C 67.402 176.875,67.600 176.943,67.600 177.176 C 67.600 177.409,67.420 177.600,67.200 177.600 C 66.956 177.600,66.800 179.467,66.800 182.400 C 66.800 185.333,66.956 187.200,67.200 187.200 C 67.420 187.200,67.600 188.190,67.600 189.400 C 67.600 190.610,67.420 191.600,67.200 191.600 C 66.617 191.600,66.709 194.297,67.300 194.535 C 67.575 194.646,67.395 194.751,66.900 194.768 C 66.277 194.790,66.000 195.046,66.000 195.600 C 66.000 196.040,65.820 196.400,65.600 196.400 C 65.380 196.400,65.200 196.760,65.200 197.200 C 65.200 197.640,65.020 198.000,64.800 198.000 C 64.580 198.000,64.400 198.288,64.400 198.640 C 64.400 198.991,63.860 199.783,63.200 200.400 C 62.540 201.017,62.000 201.737,62.000 202.000 C 62.000 202.263,61.460 202.983,60.800 203.600 C 60.140 204.217,59.600 204.937,59.600 205.200 C 59.600 205.463,59.060 206.183,58.400 206.800 C 57.740 207.417,57.200 208.169,57.200 208.472 C 57.200 208.775,56.840 209.283,56.400 209.600 C 55.960 209.917,55.600 210.457,55.600 210.800 C 55.600 211.143,55.240 211.683,54.800 212.000 C 54.360 212.317,54.000 212.857,54.000 213.200 C 54.000 213.543,53.640 214.083,53.200 214.400 C 52.760 214.717,52.400 215.257,52.400 215.600 C 52.400 215.943,52.040 216.483,51.600 216.800 C 51.160 217.117,50.800 217.657,50.800 218.000 C 50.800 218.343,50.440 218.883,50.000 219.200 C 49.560 219.517,49.200 220.187,49.200 220.688 C 49.200 221.190,49.020 221.600,48.800 221.600 C 48.580 221.600,48.400 221.870,48.400 222.200 C 48.400 222.530,48.220 222.800,48.000 222.800 C 47.780 222.800,47.600 223.261,47.600 223.824 C 47.600 224.404,47.427 224.740,47.200 224.600 C 46.980 224.464,46.800 224.723,46.800 225.176 C 46.800 225.629,46.620 226.000,46.400 226.000 C 46.180 226.000,46.000 226.368,46.000 226.817 C 46.000 227.266,45.640 228.020,45.200 228.492 C 44.760 228.964,44.400 229.693,44.400 230.111 C 44.400 230.530,43.995 231.229,43.500 231.666 C 43.005 232.103,42.825 232.347,43.100 232.207 C 43.949 231.775,43.669 233.364,42.800 233.907 C 42.248 234.252,42.000 234.840,42.000 235.803 C 42.000 236.572,41.820 237.200,41.600 237.200 C 41.380 237.200,41.200 237.560,41.200 238.000 C 41.200 238.440,41.020 238.800,40.800 238.800 C 40.580 238.800,40.400 239.160,40.400 239.600 C 40.400 240.040,40.220 240.400,40.000 240.400 C 39.780 240.400,39.600 241.210,39.600 242.200 C 39.600 243.190,39.420 244.000,39.200 244.000 C 38.980 244.000,38.800 244.619,38.800 245.376 C 38.800 246.133,38.620 246.864,38.400 247.000 C 38.180 247.136,38.000 248.047,38.000 249.024 C 38.000 250.001,37.820 250.800,37.600 250.800 C 37.024 250.800,37.106 251.896,37.700 252.135 C 38.100 252.296,38.100 252.343,37.700 252.368 C 37.389 252.388,37.200 253.004,37.200 254.000 C 37.200 254.880,37.020 255.600,36.800 255.600 C 36.580 255.600,36.400 255.960,36.400 256.400 C 36.400 256.840,36.580 257.200,36.800 257.200 C 37.020 257.200,37.200 257.560,37.200 258.000 C 37.200 258.440,37.020 258.800,36.800 258.800 C 36.571 258.800,36.400 260.000,36.400 261.600 C 36.400 263.200,36.571 264.400,36.800 264.400 C 37.020 264.400,37.200 265.210,37.200 266.200 C 37.200 267.190,37.020 268.000,36.800 268.000 C 36.578 268.000,36.400 269.067,36.400 270.400 C 36.400 271.733,36.578 272.800,36.800 272.800 C 37.020 272.800,37.200 273.160,37.200 273.600 C 37.200 274.040,37.020 274.400,36.800 274.400 C 36.580 274.400,36.400 274.670,36.400 275.000 C 36.400 275.330,36.580 275.600,36.800 275.600 C 37.020 275.600,37.200 276.050,37.200 276.600 C 37.200 277.150,37.380 277.600,37.600 277.600 C 37.820 277.600,38.000 278.146,38.000 278.813 C 38.000 279.599,38.246 280.119,38.700 280.292 C 39.085 280.439,39.749 280.884,40.175 281.280 C 40.602 281.676,41.511 282.000,42.195 282.000 C 42.880 282.000,43.663 282.223,43.937 282.497 C 44.314 282.874,44.503 282.880,44.724 282.522 C 44.884 282.263,45.940 281.995,47.070 281.927 C 48.200 281.858,49.041 281.667,48.939 281.501 C 48.836 281.335,49.174 281.200,49.688 281.200 C 50.203 281.200,50.883 280.840,51.200 280.400 C 51.517 279.960,52.097 279.600,52.488 279.600 C 52.933 279.600,53.200 279.300,53.200 278.800 C 53.200 278.267,53.467 278.000,54.000 278.000 C 54.466 278.000,54.800 277.733,54.800 277.360 C 54.800 277.009,55.340 276.217,56.000 275.600 C 56.660 274.983,57.200 274.191,57.200 273.840 C 57.200 273.488,57.380 273.200,57.600 273.200 C 57.820 273.200,58.000 272.880,58.000 272.488 C 58.000 272.097,58.360 271.517,58.800 271.200 C 59.240 270.883,59.600 270.343,59.600 270.000 C 59.600 269.657,59.960 269.117,60.400 268.800 C 60.841 268.482,61.200 267.765,61.200 267.200 C 61.200 266.635,61.559 265.918,62.000 265.600 C 62.440 265.283,62.800 264.703,62.800 264.312 C 62.800 263.920,62.980 263.600,63.200 263.600 C 63.420 263.600,63.600 263.240,63.600 262.800 C 63.600 262.360,63.780 262.000,64.000 262.000 C 64.220 262.000,64.400 261.680,64.400 261.288 C 64.400 260.897,64.750 260.325,65.177 260.017 C 65.605 259.708,66.076 258.736,66.225 257.852 C 66.588 255.703,67.489 254.760,68.221 255.762 C 68.509 256.155,68.648 256.730,68.530 257.039 C 68.411 257.347,68.514 257.600,68.757 257.600 C 69.007 257.600,69.200 258.297,69.200 259.200 C 69.200 260.080,69.380 260.800,69.600 260.800 C 69.820 260.800,70.000 261.340,70.000 262.000 C 70.000 262.660,70.180 263.200,70.400 263.200 C 70.620 263.200,70.800 263.650,70.800 264.200 C 70.800 264.750,70.980 265.200,71.200 265.200 C 71.420 265.200,71.600 265.740,71.600 266.400 C 71.600 267.060,71.780 267.600,72.000 267.600 C 72.220 267.600,72.400 268.140,72.400 268.800 C 72.400 269.460,72.580 270.000,72.800 270.000 C 73.020 270.000,73.200 270.270,73.200 270.600 C 73.200 270.930,73.380 271.200,73.600 271.200 C 73.820 271.200,74.000 271.706,74.000 272.325 C 74.000 272.943,74.360 273.836,74.800 274.308 C 75.240 274.780,75.600 275.534,75.600 275.983 C 75.600 276.432,75.780 276.800,76.000 276.800 C 76.220 276.800,76.400 277.160,76.400 277.600 C 76.400 278.040,76.580 278.400,76.800 278.400 C 77.020 278.400,77.200 278.760,77.200 279.200 C 77.200 279.640,77.380 280.000,77.600 280.000 C 77.820 280.000,78.000 280.360,78.000 280.800 C 78.000 281.240,78.180 281.600,78.400 281.600 C 78.620 281.600,78.800 281.870,78.800 282.200 C 78.800 282.530,78.980 282.800,79.200 282.800 C 79.420 282.800,79.600 283.160,79.600 283.600 C 79.600 284.040,79.780 284.400,80.000 284.400 C 80.220 284.400,80.400 284.760,80.400 285.200 C 80.400 285.640,80.580 286.000,80.800 286.000 C 81.020 286.000,81.200 286.371,81.200 286.824 C 81.200 287.277,81.380 287.536,81.600 287.400 C 81.820 287.264,82.000 287.489,82.000 287.901 C 82.000 288.312,82.360 289.036,82.800 289.508 C 83.240 289.980,83.600 290.554,83.600 290.783 C 83.600 291.012,83.780 291.200,84.000 291.200 C 84.220 291.200,84.400 291.470,84.400 291.800 C 84.400 292.130,84.580 292.400,84.800 292.400 C 85.020 292.400,85.200 292.720,85.200 293.112 C 85.200 293.503,85.560 294.083,86.000 294.400 C 86.440 294.717,86.800 295.254,86.800 295.592 C 86.800 295.931,87.160 296.432,87.600 296.707 C 88.040 296.982,88.402 297.520,88.404 297.903 C 88.406 298.287,88.946 299.025,89.604 299.545 C 90.262 300.065,90.800 300.747,90.800 301.061 C 90.800 301.375,91.520 302.317,92.400 303.154 C 93.280 303.991,94.000 304.974,94.000 305.338 C 94.000 305.733,94.322 306.000,94.800 306.000 C 95.258 306.000,95.600 306.267,95.600 306.624 C 95.600 306.993,95.788 307.131,96.062 306.962 C 96.343 306.788,96.415 306.852,96.246 307.125 C 95.923 307.649,99.803 311.600,100.641 311.600 C 100.948 311.600,101.200 311.874,101.200 312.210 C 101.200 312.545,101.695 313.008,102.299 313.238 C 103.940 313.862,104.846 314.826,104.579 315.667 C 104.404 316.216,104.553 316.400,105.173 316.400 C 105.628 316.400,106.000 316.580,106.000 316.800 C 106.000 317.020,106.284 317.200,106.631 317.200 C 106.979 317.200,107.954 317.920,108.800 318.800 C 109.646 319.680,110.582 320.400,110.880 320.400 C 111.179 320.400,111.683 320.760,112.000 321.200 C 112.317 321.640,112.814 322.000,113.105 322.000 C 113.396 322.000,114.020 322.360,114.492 322.800 C 114.964 323.240,115.587 323.600,115.875 323.600 C 116.164 323.600,116.400 323.780,116.400 324.000 C 116.400 324.220,116.720 324.400,117.112 324.400 C 117.503 324.400,118.083 324.760,118.400 325.200 C 118.717 325.640,119.297 326.000,119.688 326.000 C 120.080 326.000,120.400 326.180,120.400 326.400 C 120.400 326.620,120.760 326.800,121.200 326.800 C 121.640 326.800,122.000 326.980,122.000 327.200 C 122.000 327.420,122.360 327.600,122.800 327.600 C 123.240 327.600,123.600 327.780,123.600 328.000 C 123.600 328.220,123.960 328.400,124.400 328.400 C 124.840 328.400,125.200 328.580,125.200 328.800 C 125.200 329.040,126.800 329.200,129.200 329.200 C 131.600 329.200,133.200 329.040,133.200 328.800 C 133.200 328.580,133.388 328.400,133.617 328.400 C 134.627 328.400,135.784 326.841,134.963 326.586 C 126.525 323.962,115.891 312.413,109.192 298.600 C 104.339 288.593,102.585 282.427,101.396 271.200 C 100.219 260.094,100.710 230.459,102.175 224.200 C 103.407 218.932,103.822 217.374,104.676 214.800 C 111.360 194.661,126.286 182.517,161.800 168.321 C 167.300 166.123,172.700 163.917,173.800 163.420 C 174.900 162.923,176.475 162.296,177.300 162.027 C 179.991 161.150,178.899 160.862,172.830 160.848 C 155.525 160.809,142.507 151.611,138.347 136.482 C 137.262 132.537,137.138 122.704,138.129 119.200 C 140.618 110.397,143.125 106.203,148.507 101.838 C 153.543 97.754,157.007 96.599,164.200 96.603 L 169.400 96.606 172.964 98.345 C 185.536 104.482,193.875 122.468,191.591 138.523 C 190.734 144.549,188.272 151.210,185.207 155.800 C 184.766 156.460,184.404 157.115,184.403 157.256 C 184.400 157.496,196.095 154.201,201.400 152.467 C 209.380 149.859,213.089 147.794,218.000 143.228 C 222.899 138.673,224.718 138.531,230.272 142.271 C 235.271 145.638,238.914 147.068,250.400 150.169 C 251.610 150.496,253.005 150.883,253.500 151.028 C 254.411 151.297,254.777 150.680,253.994 150.196 C 253.166 149.684,249.437 143.763,247.972 140.633 C 237.108 117.424,244.827 95.277,263.800 95.220 C 278.599 95.176,293.454 110.563,296.219 128.800 C 299.089 147.728,290.789 159.833,274.200 160.914 C 272.698 161.012,273.154 161.293,281.600 165.484 C 312.553 180.844,324.803 192.469,331.247 212.600 C 333.156 218.566,334.106 230.579,333.168 236.893 C 330.271 256.378,327.424 266.824,321.746 278.800 C 313.468 296.260,301.859 310.295,287.000 320.806 C 285.020 322.207,283.226 323.502,283.012 323.684 C 282.426 324.185,284.596 326.000,285.783 326.000 C 286.342 326.000,286.800 326.180,286.800 326.400 C 286.800 326.620,287.124 326.800,287.520 326.800 C 287.916 326.800,288.435 326.995,288.673 327.233 C 289.119 327.679,290.800 326.945,290.800 326.304 C 290.800 326.137,291.160 326.000,291.600 326.000 C 292.040 326.000,292.400 325.820,292.400 325.600 C 292.400 325.380,292.688 325.200,293.040 325.200 C 293.391 325.200,294.183 324.660,294.800 324.000 C 295.417 323.340,296.117 322.800,296.358 322.800 C 296.598 322.800,298.069 321.540,299.628 320.000 C 301.186 318.460,302.740 317.200,303.081 317.200 C 303.559 317.200,303.644 316.920,303.454 315.968 C 303.184 314.622,303.666 313.887,305.119 313.426 C 305.603 313.272,306.000 312.978,306.000 312.773 C 306.000 312.568,306.278 312.400,306.618 312.400 C 307.329 312.400,309.200 310.655,309.200 309.992 C 309.200 309.748,310.100 308.671,311.200 307.600 C 312.300 306.529,313.200 305.370,313.200 305.026 C 313.200 304.667,313.541 304.400,314.000 304.400 C 314.533 304.400,314.800 304.133,314.800 303.600 C 314.800 303.160,314.980 302.800,315.200 302.800 C 315.420 302.800,315.600 302.512,315.600 302.160 C 315.600 301.809,316.140 301.017,316.800 300.400 C 317.460 299.783,318.000 299.031,318.000 298.728 C 318.000 298.425,318.360 297.917,318.800 297.600 C 319.240 297.283,319.600 296.703,319.600 296.312 C 319.600 295.920,319.780 295.600,320.000 295.600 C 320.220 295.600,320.400 295.312,320.400 294.960 C 320.400 294.609,320.940 293.817,321.600 293.200 C 322.260 292.583,322.800 291.791,322.800 291.440 C 322.800 291.088,322.980 290.800,323.200 290.800 C 323.420 290.800,323.600 290.440,323.600 290.000 C 323.600 289.560,323.780 289.200,324.000 289.200 C 324.220 289.200,324.400 288.861,324.400 288.447 C 324.400 288.030,324.757 287.600,325.200 287.484 C 325.783 287.332,326.000 286.938,326.000 286.037 C 326.000 285.357,326.180 284.800,326.400 284.800 C 326.620 284.800,326.800 284.530,326.800 284.200 C 326.800 283.870,326.980 283.600,327.200 283.600 C 327.420 283.600,327.600 283.240,327.600 282.800 C 327.600 282.360,327.780 282.000,328.000 282.000 C 328.220 282.000,328.400 281.640,328.400 281.200 C 328.400 280.760,328.580 280.400,328.800 280.400 C 329.020 280.400,329.200 280.040,329.200 279.600 C 329.200 279.160,329.380 278.800,329.600 278.800 C 329.820 278.800,330.000 278.480,330.000 278.088 C 330.000 277.697,330.360 277.117,330.800 276.800 C 331.263 276.467,331.600 275.765,331.600 275.135 C 331.600 274.537,331.780 273.936,332.000 273.800 C 332.220 273.664,332.400 273.203,332.400 272.776 C 332.400 272.349,332.580 272.000,332.800 272.000 C 333.020 272.000,333.200 271.730,333.200 271.400 C 333.200 271.070,333.380 270.800,333.600 270.800 C 333.820 270.800,334.000 270.260,334.000 269.600 C 334.000 268.940,334.180 268.400,334.400 268.400 C 334.620 268.400,334.800 267.680,334.800 266.800 C 334.800 265.920,334.980 265.200,335.200 265.200 C 335.420 265.200,335.600 264.840,335.600 264.400 C 335.600 263.960,335.780 263.600,336.000 263.600 C 336.220 263.600,336.400 262.959,336.400 262.176 C 336.400 261.204,336.546 260.843,336.861 261.038 C 337.193 261.243,337.258 260.850,337.094 259.625 C 336.869 257.950,337.389 255.600,337.985 255.600 C 338.812 255.600,340.400 257.349,340.400 258.260 C 340.400 258.907,340.968 259.808,342.000 260.800 C 342.880 261.646,343.600 262.531,343.600 262.769 C 343.600 263.006,343.780 263.200,344.000 263.200 C 344.220 263.200,344.400 263.560,344.400 264.000 C 344.400 264.440,344.580 264.800,344.800 264.800 C 345.020 264.800,345.200 265.160,345.200 265.600 C 345.200 266.040,345.380 266.400,345.600 266.400 C 345.820 266.400,346.000 266.771,346.000 267.224 C 346.000 267.677,346.180 267.936,346.400 267.800 C 346.620 267.664,346.800 267.923,346.800 268.376 C 346.800 268.829,346.980 269.200,347.200 269.200 C 347.420 269.200,347.600 269.560,347.600 270.000 C 347.600 270.440,347.780 270.800,348.000 270.800 C 348.220 270.800,348.400 271.160,348.400 271.600 C 348.400 272.040,348.580 272.400,348.800 272.400 C 349.020 272.400,349.200 272.688,349.200 273.040 C 349.200 273.391,349.740 274.183,350.400 274.800 C 351.060 275.417,351.600 276.074,351.600 276.260 C 351.601 276.859,353.473 278.800,354.050 278.800 C 354.357 278.800,354.832 279.160,355.107 279.600 C 355.382 280.040,355.965 280.400,356.403 280.400 C 356.842 280.400,357.200 280.580,357.200 280.800 C 357.200 281.020,357.549 281.200,357.976 281.200 C 358.403 281.200,358.864 281.380,359.000 281.600 C 359.350 282.166,360.694 282.097,360.935 281.500 C 361.096 281.100,361.143 281.100,361.168 281.500 C 361.207 282.117,366.800 282.217,366.800 281.600 C 366.800 281.380,367.094 281.200,367.453 281.200 C 368.281 281.200,369.999 279.232,370.000 278.283 C 370.000 277.889,370.360 277.180,370.800 276.708 C 371.344 276.124,371.600 275.296,371.600 274.125 C 371.600 273.176,371.780 272.400,372.000 272.400 C 372.220 272.400,372.400 271.950,372.400 271.400 C 372.400 270.850,372.220 270.400,372.000 270.400 C 371.780 270.400,371.600 270.130,371.600 269.800 C 371.600 269.470,371.780 269.200,372.000 269.200 C 372.220 269.200,372.400 268.390,372.400 267.400 C 372.400 266.410,372.220 265.600,372.000 265.600 C 371.780 265.600,371.600 265.409,371.600 265.176 C 371.600 264.943,371.780 264.864,372.000 265.000 C 372.261 265.161,372.400 262.871,372.400 258.424 C 372.400 254.141,372.251 251.600,372.000 251.600 C 371.780 251.600,371.600 250.880,371.600 250.000 C 371.600 249.120,371.420 248.400,371.200 248.400 C 370.980 248.400,370.800 247.601,370.800 246.624 C 370.800 245.647,370.620 244.736,370.400 244.600 C 370.180 244.464,370.000 243.643,370.000 242.776 C 370.000 241.909,369.820 241.200,369.600 241.200 C 369.380 241.200,369.200 240.660,369.200 240.000 C 369.200 239.340,369.020 238.800,368.800 238.800 C 368.580 238.800,368.400 238.260,368.400 237.600 C 368.400 236.940,368.220 236.400,368.000 236.400 C 367.780 236.400,367.600 235.860,367.600 235.200 C 367.600 234.540,367.420 234.000,367.200 234.000 C 366.980 234.000,366.800 233.640,366.800 233.200 C 366.800 232.760,366.620 232.400,366.400 232.400 C 366.180 232.400,366.000 232.166,366.000 231.880 C 366.000 231.144,365.059 229.207,364.700 229.203 C 364.535 229.201,364.400 228.784,364.400 228.275 C 364.400 227.767,364.040 226.964,363.600 226.492 C 363.160 226.020,362.800 225.356,362.800 225.017 C 362.800 224.678,362.620 224.400,362.400 224.400 C 362.180 224.400,362.000 224.040,362.000 223.600 C 362.000 223.160,361.820 222.800,361.600 222.800 C 361.380 222.800,361.200 222.528,361.200 222.196 C 361.200 221.864,360.660 221.028,360.000 220.337 C 359.340 219.646,358.800 218.838,358.800 218.541 C 358.800 218.243,358.620 218.000,358.400 218.000 C 358.180 218.000,358.000 217.712,358.000 217.360 C 358.000 217.009,357.460 216.217,356.800 215.600 C 356.140 214.983,355.600 214.288,355.600 214.055 C 355.600 213.822,354.880 212.918,354.000 212.047 C 353.120 211.176,352.400 210.275,352.400 210.045 C 352.400 209.816,352.040 209.435,351.600 209.200 C 351.160 208.965,350.800 208.590,350.800 208.368 C 350.800 207.808,348.941 206.000,348.365 206.000 C 347.865 206.000,346.001 204.018,346.000 203.487 C 346.000 203.008,343.286 200.400,342.790 200.400 C 342.549 200.400,342.481 200.192,342.638 199.938 C 342.810 199.660,342.748 199.585,342.483 199.749 C 342.240 199.899,341.229 199.208,340.232 198.211 C 339.236 197.215,338.146 196.400,337.811 196.400 C 337.467 196.400,337.200 196.051,337.200 195.600 C 337.200 195.150,336.933 194.800,336.591 194.800 C 334.854 194.800,331.600 190.503,331.600 188.209 C 331.600 186.994,331.420 186.000,331.200 186.000 C 330.620 186.000,330.708 184.500,331.300 184.286 C 331.700 184.141,331.700 183.935,331.300 183.258 C 331.005 182.759,330.800 181.011,330.800 179.005 C 330.800 177.002,330.635 175.600,330.400 175.600 C 330.175 175.600,330.000 174.475,330.000 173.024 C 330.000 171.607,329.820 170.336,329.600 170.200 C 329.380 170.064,329.200 169.063,329.200 167.976 C 329.200 166.889,329.020 166.000,328.800 166.000 C 328.576 166.000,328.400 164.893,328.400 163.480 C 328.400 162.094,328.229 160.789,328.019 160.579 C 327.810 160.370,327.594 159.535,327.539 158.725 C 327.485 157.915,327.296 157.341,327.120 157.449 C 326.944 157.558,326.800 157.007,326.800 156.224 C 326.800 155.441,326.620 154.800,326.400 154.800 C 326.180 154.800,326.000 154.026,326.000 153.080 C 326.000 152.134,325.821 151.181,325.602 150.962 C 325.384 150.744,325.165 150.091,325.117 149.511 C 325.070 148.932,324.888 148.545,324.715 148.652 C 324.440 148.822,324.201 147.202,324.363 146.270 C 324.394 146.089,324.235 146.055,324.010 146.194 C 323.656 146.413,323.375 144.951,323.563 143.870 C 323.594 143.689,323.435 143.655,323.210 143.794 C 322.971 143.942,322.800 143.621,322.800 143.024 C 322.800 142.461,322.620 142.000,322.400 142.000 C 322.180 142.000,322.000 141.561,322.000 141.024 C 322.000 140.487,321.820 139.936,321.600 139.800 C 321.380 139.664,321.200 139.203,321.200 138.776 C 321.200 138.349,321.020 138.000,320.800 138.000 C 320.580 138.000,320.400 137.460,320.400 136.800 C 320.400 136.140,320.220 135.600,320.000 135.600 C 319.780 135.600,319.600 135.366,319.600 135.080 C 319.600 134.344,318.659 132.407,318.300 132.403 C 318.135 132.401,318.000 131.860,318.000 131.200 C 318.000 130.540,317.820 130.000,317.600 130.000 C 317.380 130.000,317.200 129.722,317.200 129.383 C 317.200 129.044,316.840 128.380,316.400 127.908 C 315.672 127.127,315.408 126.359,315.563 125.470 C 315.594 125.289,315.435 125.255,315.210 125.394 C 314.984 125.533,314.800 125.367,314.800 125.024 C 314.800 124.681,314.620 124.400,314.400 124.400 C 314.180 124.400,314.000 124.040,314.000 123.600 C 314.000 123.160,313.820 122.800,313.600 122.800 C 313.380 122.800,313.200 122.480,313.200 122.088 C 313.200 121.697,312.840 121.117,312.400 120.800 C 311.960 120.483,311.600 119.903,311.600 119.512 C 311.600 119.120,311.420 118.800,311.200 118.800 C 310.980 118.800,310.800 118.440,310.800 118.000 C 310.800 117.560,310.620 117.200,310.400 117.200 C 310.180 117.200,310.000 116.880,310.000 116.488 C 310.000 116.097,309.640 115.517,309.200 115.200 C 308.760 114.883,308.400 114.369,308.400 114.059 C 308.400 113.748,308.084 113.203,307.697 112.847 C 307.311 112.491,306.740 111.705,306.430 111.100 C 306.119 110.495,305.715 110.000,305.532 110.000 C 305.350 110.000,305.200 109.712,305.200 109.360 C 305.200 109.009,304.660 108.217,304.000 107.600 C 303.340 106.983,302.800 106.191,302.800 105.840 C 302.800 105.488,302.620 105.200,302.400 105.200 C 302.180 105.200,302.000 104.913,302.000 104.563 C 302.000 104.212,301.640 103.831,301.200 103.716 C 300.760 103.601,300.400 103.244,300.400 102.922 C 300.400 102.600,299.680 101.646,298.800 100.800 C 297.920 99.954,297.200 98.979,297.200 98.631 C 297.200 98.284,297.020 98.000,296.800 98.000 C 296.580 98.000,296.400 97.724,296.400 97.387 C 296.400 97.051,296.090 96.656,295.710 96.510 C 294.511 96.050,290.337 91.626,290.640 91.136 C 290.804 90.870,290.748 90.785,290.507 90.934 C 290.277 91.076,288.642 89.799,286.873 88.096 C 285.104 86.393,283.015 84.411,282.231 83.692 C 281.447 82.973,280.849 82.188,280.903 81.947 C 280.956 81.706,280.575 81.438,280.056 81.350 C 278.962 81.166,276.800 79.720,276.800 79.173 C 276.800 78.968,276.607 78.800,276.371 78.800 C 275.826 78.800,274.800 77.786,274.800 77.247 C 274.800 77.022,274.125 76.523,273.300 76.139 C 272.475 75.755,271.509 75.117,271.153 74.720 C 270.797 74.324,270.292 74.000,270.029 74.000 C 269.761 74.000,269.679 73.781,269.841 73.500 C 269.999 73.225,269.984 73.130,269.808 73.289 C 269.483 73.583,267.460 72.616,266.473 71.694 C 266.175 71.416,265.167 70.840,264.231 70.414 C 263.296 69.988,262.299 69.361,262.016 69.020 C 261.734 68.679,261.074 68.400,260.551 68.400 C 260.028 68.400,259.600 68.245,259.600 68.055 C 259.600 67.600,248.404 61.995,247.500 61.998 C 247.115 61.999,246.800 61.820,246.800 61.600 C 246.800 61.380,246.528 61.200,246.195 61.200 C 245.607 61.200,245.182 61.033,243.305 60.062 C 242.813 59.808,242.138 59.600,241.805 59.600 C 241.472 59.600,241.200 59.420,241.200 59.200 C 241.200 58.980,240.660 58.800,240.000 58.800 C 239.340 58.800,238.800 58.620,238.800 58.400 C 238.800 58.180,238.260 58.000,237.600 58.000 C 236.940 58.000,236.400 57.820,236.400 57.600 C 236.400 57.380,235.860 57.200,235.200 57.200 C 234.540 57.200,234.000 57.020,234.000 56.800 C 234.000 56.580,233.381 56.400,232.624 56.400 C 231.867 56.400,231.136 56.220,231.000 56.000 C 230.864 55.780,229.874 55.600,228.800 55.600 C 227.726 55.600,226.736 55.420,226.600 55.200 C 226.464 54.980,225.373 54.800,224.176 54.800 C 222.979 54.800,222.000 54.620,222.000 54.400 C 222.000 54.169,220.741 54.000,219.024 54.000 C 217.387 54.000,215.936 53.820,215.800 53.600 C 215.664 53.380,213.943 53.200,211.976 53.200 C 209.550 53.200,208.400 53.052,208.400 52.741 C 208.400 52.412,207.435 52.349,205.011 52.520 C 203.147 52.652,201.524 52.600,201.403 52.406 C 200.990 51.736,203.186 50.000,204.447 50.000 C 205.112 50.000,205.929 49.728,206.261 49.396 C 206.593 49.064,207.058 48.912,207.294 49.058 C 207.549 49.215,207.607 49.136,207.438 48.862 C 207.272 48.592,207.399 48.400,207.743 48.400 C 208.068 48.400,208.393 48.222,208.467 48.003 C 208.540 47.785,209.082 47.567,209.671 47.519 C 210.260 47.470,210.655 47.288,210.548 47.115 C 210.440 46.942,210.813 46.800,211.376 46.800 C 211.939 46.800,212.400 46.620,212.400 46.400 C 212.400 46.180,212.760 46.000,213.200 46.000 C 213.640 46.000,214.000 45.820,214.000 45.600 C 214.000 45.380,214.463 45.200,215.029 45.200 C 216.186 45.200,217.200 44.373,217.200 43.429 C 217.200 43.083,217.380 42.800,217.600 42.800 C 217.820 42.800,218.000 42.525,218.000 42.189 C 218.000 41.409,214.610 38.000,213.834 38.000 C 213.511 38.000,213.136 37.820,213.000 37.600 C 212.864 37.380,212.313 37.200,211.776 37.200 C 211.239 37.200,210.800 37.020,210.800 36.800 C 210.800 36.580,210.271 36.400,209.624 36.400 C 208.977 36.400,208.336 36.220,208.200 36.000 C 208.064 35.780,207.344 35.600,206.600 35.600 C 205.856 35.600,205.136 35.420,205.000 35.200 C 204.651 34.635,203.312 34.703,203.033 35.300 C 202.847 35.700,202.753 35.700,202.567 35.300 C 202.422 34.989,201.504 34.800,200.143 34.800 C 198.785 34.800,198.047 34.952,198.200 35.200 C 198.340 35.427,198.004 35.600,197.424 35.600 C 196.861 35.600,196.400 35.420,196.400 35.200 C 196.400 34.980,195.399 34.800,194.176 34.800 C 192.796 34.800,192.047 34.952,192.200 35.200 C 192.336 35.420,192.167 35.600,191.824 35.600 C 191.481 35.600,191.200 35.420,191.200 35.200 C 191.200 34.980,190.941 34.800,190.624 34.800 C 190.307 34.800,189.936 34.980,189.800 35.200 M167.400 110.066 C 165.865 110.913,164.330 112.613,163.539 114.342 C 161.555 118.677,161.578 125.082,163.626 139.401 C 165.736 154.153,177.602 152.754,180.371 137.427 C 183.102 122.314,175.244 105.738,167.400 110.066 M259.558 110.932 C 251.830 114.401,253.965 138.701,262.732 147.063 C 267.390 151.505,272.874 150.400,274.433 144.705 C 274.974 142.731,274.679 132.758,274.005 130.200 C 272.099 122.966,271.006 120.253,268.337 116.123 C 266.602 113.438,264.605 111.684,262.400 110.906 C 260.771 110.331,260.901 110.330,259.558 110.932 M170.027 130.850 C 170.707 132.121,169.776 133.677,168.430 133.519 C 167.157 133.370,166.385 131.582,167.180 130.624 C 167.929 129.722,169.489 129.846,170.027 130.850 M260.320 130.480 C 261.616 131.776,260.368 134.335,258.995 133.196 C 258.272 132.596,258.206 130.545,258.900 130.265 C 259.682 129.949,259.808 129.968,260.320 130.480 M227.913 158.295 C 229.076 158.376,230.876 158.376,231.913 158.293 C 232.951 158.211,232.000 158.145,229.800 158.146 C 227.600 158.147,226.751 158.214,227.913 158.295 M339.716 214.057 C 345.921 217.213,353.302 225.611,357.595 234.400 C 358.509 236.270,359.423 238.113,359.628 238.495 C 361.556 242.096,359.305 240.263,356.996 236.351 C 352.919 229.447,348.432 224.263,342.119 219.162 C 336.042 214.252,334.764 211.538,339.716 214.057 M71.999 214.100 C 71.998 214.375,69.909 216.940,67.357 219.800 C 61.168 226.735,57.145 231.788,54.000 236.581 C 51.028 241.109,50.353 240.867,52.842 236.166 C 56.616 229.035,60.841 223.485,67.198 217.304 C 70.824 213.779,72.001 212.993,71.999 214.100 " stroke="none" fill="#0e0a0e" fill-rule="evenodd"></path><path id="path1" d="M223.500 139.882 C 223.995 139.978,224.805 139.978,225.300 139.882 C 225.795 139.787,225.390 139.709,224.400 139.709 C 223.410 139.709,223.005 139.787,223.500 139.882 M220.195 141.300 C 219.322 142.015,217.886 143.289,217.004 144.131 C 215.271 145.785,211.467 148.491,210.243 148.941 C 209.826 149.094,209.593 149.326,209.725 149.458 C 210.155 149.888,213.689 147.534,216.978 144.628 C 218.750 143.062,220.719 141.380,221.354 140.890 C 221.989 140.401,222.345 140.000,222.145 140.000 C 221.946 140.000,221.068 140.585,220.195 141.300 M207.000 150.400 C 206.120 150.807,205.670 151.146,206.000 151.154 C 206.330 151.161,207.230 150.822,208.000 150.400 C 209.781 149.425,209.106 149.425,207.000 150.400 M201.600 152.400 C 201.067 152.745,201.067 152.788,201.600 152.788 C 201.930 152.788,202.470 152.613,202.800 152.400 C 203.333 152.055,203.333 152.012,202.800 152.012 C 202.470 152.012,201.930 152.187,201.600 152.400 M197.800 153.600 C 196.700 154.006,196.070 154.338,196.400 154.338 C 196.730 154.338,197.900 154.006,199.000 153.600 C 200.100 153.194,200.730 152.862,200.400 152.862 C 200.070 152.862,198.900 153.194,197.800 153.600 M193.800 154.800 C 193.296 155.017,193.222 155.144,193.600 155.144 C 193.930 155.144,194.560 154.989,195.000 154.800 C 195.504 154.583,195.578 154.456,195.200 154.456 C 194.870 154.456,194.240 154.611,193.800 154.800 M191.000 155.600 C 190.496 155.817,190.422 155.944,190.800 155.944 C 191.130 155.944,191.760 155.789,192.200 155.600 C 192.704 155.383,192.778 155.256,192.400 155.256 C 192.070 155.256,191.440 155.411,191.000 155.600 M188.200 156.400 C 187.696 156.617,187.622 156.744,188.000 156.744 C 188.330 156.744,188.960 156.589,189.400 156.400 C 189.904 156.183,189.978 156.056,189.600 156.056 C 189.270 156.056,188.640 156.211,188.200 156.400 M185.600 157.089 C 185.270 157.213,184.570 157.474,184.045 157.669 C 183.519 157.863,183.204 158.138,183.345 158.278 C 183.486 158.419,184.006 158.346,184.501 158.115 C 184.995 157.885,185.850 157.506,186.400 157.275 C 187.419 156.846,186.693 156.677,185.600 157.089 M225.800 157.227 C 223.160 157.398,218.750 157.735,216.000 157.977 C 213.250 158.218,208.840 158.603,206.200 158.833 C 203.560 159.063,198.505 159.599,194.966 160.025 C 191.427 160.451,186.342 160.800,183.666 160.800 C 178.140 160.800,177.126 161.391,182.100 161.713 C 193.755 162.468,198.632 164.563,210.136 173.756 C 214.256 177.047,217.001 178.800,218.038 178.800 C 218.296 178.800,218.024 178.419,217.433 177.954 C 215.995 176.823,216.255 176.711,218.619 177.443 C 224.359 179.223,231.321 178.321,234.222 175.422 C 234.674 174.970,235.499 174.240,236.054 173.800 C 236.610 173.360,237.174 172.699,237.308 172.331 C 237.442 171.962,238.507 170.925,239.676 170.024 C 240.844 169.124,243.060 167.287,244.600 165.941 C 246.140 164.596,248.660 162.891,250.200 162.152 C 252.738 160.936,254.336 160.503,258.900 159.796 C 260.410 159.562,261.003 158.812,259.700 158.786 C 259.315 158.778,257.200 158.597,255.000 158.384 C 238.313 156.766,234.966 156.633,225.800 157.227 M231.913 158.293 C 230.876 158.376,229.076 158.376,227.913 158.295 C 226.751 158.214,227.600 158.147,229.800 158.146 C 232.000 158.145,232.951 158.211,231.913 158.293 M215.646 247.562 C 215.621 247.871,215.134 248.735,214.565 249.482 C 213.256 251.197,208.198 258.635,204.962 263.600 C 203.600 265.690,201.915 268.184,201.217 269.142 C 199.336 271.723,199.506 271.818,205.776 271.678 L 211.256 271.556 216.528 263.476 C 219.428 259.031,222.037 254.974,222.328 254.459 C 223.042 253.190,222.509 252.780,221.601 253.900 C 220.688 255.026,220.798 255.037,218.437 253.585 C 217.029 252.718,216.178 252.440,215.474 252.617 C 214.012 252.984,213.885 252.306,215.034 250.250 C 215.599 249.240,215.978 248.095,215.877 247.706 C 215.766 247.282,215.674 247.225,215.646 247.562 M223.200 252.400 C 223.200 252.620,223.560 252.800,224.000 252.800 C 224.440 252.800,224.800 252.620,224.800 252.400 C 224.800 252.180,224.440 252.000,224.000 252.000 C 223.560 252.000,223.200 252.180,223.200 252.400 M225.864 254.100 C 226.035 254.375,226.768 255.590,227.494 256.800 C 228.220 258.010,230.655 261.832,232.907 265.294 L 237.000 271.588 242.514 271.594 L 248.028 271.600 247.556 270.700 C 247.296 270.205,246.299 268.763,245.341 267.496 C 244.384 266.228,243.600 265.013,243.600 264.796 C 243.600 264.578,243.420 264.400,243.200 264.400 C 242.980 264.400,242.800 264.130,242.800 263.800 C 242.800 263.470,242.620 263.200,242.400 263.200 C 242.180 263.200,242.000 262.930,242.000 262.600 C 242.000 262.270,241.820 262.000,241.600 262.000 C 241.380 262.000,241.186 261.685,241.168 261.300 C 241.150 260.892,241.054 260.806,240.937 261.094 C 240.827 261.366,241.111 262.114,241.569 262.756 C 242.026 263.398,242.400 264.079,242.400 264.269 C 242.400 264.459,242.862 265.294,243.426 266.124 C 244.811 268.162,244.627 269.213,243.096 268.006 C 242.489 267.528,242.102 266.958,242.236 266.741 C 242.371 266.524,242.237 266.387,241.940 266.437 C 241.198 266.562,239.200 265.702,239.200 265.257 C 239.200 265.058,238.404 264.694,237.431 264.449 C 236.401 264.190,235.332 263.585,234.873 263.002 C 234.440 262.451,233.715 262.000,233.263 262.000 C 232.386 262.000,230.005 259.736,230.002 258.900 C 230.001 258.625,229.856 258.400,229.681 258.400 C 229.505 258.400,228.674 257.320,227.833 256.000 C 226.992 254.680,226.135 253.600,225.928 253.600 C 225.722 253.600,225.693 253.825,225.864 254.100 M276.200 325.872 C 271.248 327.381,258.715 330.537,248.969 332.728 C 244.112 333.820,239.394 335.093,238.485 335.557 C 237.576 336.021,236.509 336.400,236.114 336.400 C 235.697 336.400,235.168 336.914,234.854 337.623 C 234.165 339.179,234.493 339.517,235.649 338.440 C 237.159 337.033,237.269 337.490,235.972 339.788 C 235.026 341.464,234.766 342.370,234.859 343.658 C 234.936 344.724,234.801 345.400,234.490 345.503 C 233.587 345.804,233.941 346.858,234.900 346.725 C 235.513 346.640,235.802 346.807,235.806 347.249 C 235.815 348.224,237.292 350.000,238.095 350.000 C 238.483 350.000,238.800 350.180,238.800 350.400 C 238.800 350.620,239.160 350.800,239.600 350.800 C 240.040 350.800,240.400 350.980,240.400 351.200 C 240.400 351.420,240.760 351.600,241.200 351.600 C 241.640 351.600,242.000 351.780,242.000 352.000 C 242.000 352.220,242.540 352.400,243.200 352.400 C 243.860 352.400,244.400 352.563,244.400 352.761 C 244.400 353.672,272.863 354.497,273.749 353.611 C 273.982 353.378,276.109 353.200,278.656 353.200 C 281.223 353.200,283.259 353.028,283.400 352.800 C 283.536 352.580,284.796 352.400,286.200 352.400 C 287.604 352.400,288.864 352.220,289.000 352.000 C 289.136 351.780,290.137 351.600,291.224 351.600 C 292.311 351.600,293.200 351.420,293.200 351.200 C 293.200 350.978,294.267 350.800,295.600 350.800 C 296.933 350.800,298.000 350.622,298.000 350.400 C 298.000 350.180,298.720 350.000,299.600 350.000 C 300.480 350.000,301.200 349.820,301.200 349.600 C 301.200 349.380,301.920 349.200,302.800 349.200 C 303.680 349.200,304.400 349.020,304.400 348.800 C 304.400 348.580,305.120 348.400,306.000 348.400 C 306.880 348.400,307.600 348.220,307.600 348.000 C 307.600 347.780,308.320 347.600,309.200 347.600 C 310.080 347.600,310.800 347.420,310.800 347.200 C 310.800 346.980,311.340 346.800,312.000 346.800 C 312.660 346.800,313.200 346.620,313.200 346.400 C 313.200 346.180,313.560 346.000,314.000 346.000 C 314.440 346.000,314.800 345.820,314.800 345.600 C 314.800 345.380,315.340 345.200,316.000 345.200 C 316.660 345.200,317.200 345.020,317.200 344.800 C 317.200 344.580,317.740 344.400,318.400 344.400 C 319.060 344.400,319.600 344.220,319.600 344.000 C 319.600 343.780,319.878 343.600,320.217 343.600 C 320.556 343.600,321.221 343.239,321.695 342.798 C 322.168 342.356,323.151 341.780,323.878 341.517 C 324.605 341.254,325.200 340.876,325.200 340.677 C 325.200 340.478,324.885 340.437,324.500 340.587 C 323.212 341.088,322.999 341.006,323.105 340.047 C 323.259 338.643,318.962 336.000,316.524 336.000 C 315.466 336.000,313.962 335.330,313.530 334.666 C 313.352 334.391,313.045 334.430,312.621 334.783 C 311.952 335.337,310.044 335.247,304.200 334.385 C 302.660 334.158,299.780 333.807,297.800 333.606 C 294.456 333.266,293.300 333.052,289.600 332.089 C 286.144 331.189,282.167 328.134,281.752 326.059 C 281.441 324.505,280.759 324.482,276.200 325.872 M135.761 327.783 C 136.901 328.674,136.177 331.060,134.825 330.865 C 134.080 330.758,133.942 330.871,134.151 331.416 C 134.546 332.447,133.820 333.057,130.089 334.830 C 126.296 336.632,119.385 338.166,104.849 340.431 C 99.919 341.199,95.400 343.750,95.859 345.505 C 96.017 346.108,95.816 346.359,95.017 346.560 C 93.892 346.842,93.987 347.600,95.148 347.600 C 95.534 347.600,96.236 347.960,96.708 348.400 C 97.180 348.840,97.945 349.200,98.407 349.200 C 98.869 349.200,99.158 349.344,99.049 349.520 C 98.941 349.696,99.515 349.884,100.326 349.937 C 101.137 349.991,101.860 350.207,101.933 350.418 C 102.007 350.628,102.772 350.800,103.633 350.800 C 104.495 350.800,105.200 350.980,105.200 351.200 C 105.200 351.420,105.740 351.600,106.400 351.600 C 107.060 351.600,107.600 351.780,107.600 352.000 C 107.600 352.220,108.309 352.400,109.176 352.400 C 110.043 352.400,110.864 352.580,111.000 352.800 C 111.136 353.020,112.227 353.200,113.424 353.200 C 114.621 353.200,115.600 353.380,115.600 353.600 C 115.600 353.829,116.800 354.000,118.400 354.000 C 120.000 354.000,121.200 354.171,121.200 354.400 C 121.200 354.638,122.725 354.800,124.976 354.800 C 127.063 354.800,128.863 354.979,129.000 355.200 C 129.159 355.457,135.804 355.600,147.624 355.600 C 159.608 355.600,166.000 355.461,166.000 355.200 C 166.000 354.980,166.979 354.800,168.176 354.800 C 169.373 354.800,170.464 354.620,170.600 354.400 C 170.736 354.180,171.557 354.000,172.424 354.000 C 173.291 354.000,174.000 353.820,174.000 353.600 C 174.000 353.380,174.439 353.200,174.976 353.200 C 175.513 353.200,176.064 353.020,176.200 352.800 C 176.336 352.580,176.797 352.400,177.224 352.400 C 177.651 352.400,178.000 352.220,178.000 352.000 C 178.000 351.780,178.360 351.600,178.800 351.600 C 179.240 351.600,179.600 351.450,179.600 351.268 C 179.600 351.085,180.091 350.680,180.691 350.368 C 181.291 350.055,182.371 349.200,183.091 348.466 C 184.424 347.107,184.770 346.524,183.938 347.038 C 183.659 347.211,183.585 347.148,183.751 346.879 C 183.902 346.635,184.290 346.536,184.613 346.660 C 184.976 346.800,185.200 346.645,185.200 346.255 C 185.200 345.859,184.977 345.711,184.600 345.855 C 184.112 346.043,184.000 345.681,184.000 343.921 C 184.000 342.240,183.750 341.360,182.879 339.978 C 182.262 339.000,181.620 337.972,181.451 337.693 C 181.248 337.358,181.626 337.416,182.572 337.867 C 183.357 338.242,184.000 338.695,184.000 338.874 C 184.000 339.053,184.193 339.200,184.429 339.200 C 184.665 339.200,184.314 338.539,183.648 337.732 C 182.982 336.924,182.530 336.114,182.642 335.932 C 182.755 335.749,182.664 335.600,182.441 335.600 C 182.217 335.600,179.371 335.153,176.117 334.606 C 172.863 334.059,168.940 333.422,167.400 333.191 C 159.958 332.072,149.692 330.220,141.800 328.573 C 134.353 327.018,134.870 327.086,135.761 327.783 M300.200 332.000 C 300.336 332.220,300.797 332.400,301.224 332.400 C 301.651 332.400,302.000 332.220,302.000 332.000 C 302.000 331.780,301.539 331.600,300.976 331.600 C 300.396 331.600,300.060 331.773,300.200 332.000 M304.895 332.883 C 305.052 333.353,305.809 333.394,308.088 333.058 C 309.549 332.842,309.045 332.591,306.930 332.481 C 305.265 332.394,304.764 332.493,304.895 332.883 M311.200 333.800 C 311.200 334.130,311.470 334.400,311.800 334.400 C 312.130 334.400,312.400 334.130,312.400 333.800 C 312.400 333.470,312.130 333.200,311.800 333.200 C 311.470 333.200,311.200 333.470,311.200 333.800 M314.000 333.813 C 314.000 334.136,314.270 334.400,314.600 334.400 C 314.930 334.400,315.200 334.239,315.200 334.043 C 315.200 333.846,314.930 333.582,314.600 333.455 C 314.235 333.315,314.000 333.455,314.000 333.813 M315.800 334.400 C 315.664 334.620,315.698 334.812,315.876 334.827 C 317.143 334.933,319.176 335.264,320.193 335.529 C 321.605 335.899,322.800 335.715,322.800 335.129 C 322.800 334.888,322.131 334.780,321.200 334.869 C 320.089 334.974,319.600 334.865,319.600 334.511 C 319.600 333.893,316.175 333.793,315.800 334.400 M323.600 335.957 C 323.600 336.153,324.034 336.422,324.565 336.555 C 325.316 336.744,325.589 337.152,325.800 338.400 C 325.949 339.282,326.235 339.902,326.435 339.778 C 327.010 339.423,326.860 336.803,326.229 336.171 C 325.604 335.547,323.600 335.383,323.600 335.957 M186.000 340.600 C 186.000 341.150,186.180 341.600,186.400 341.600 C 186.620 341.600,186.800 341.150,186.800 340.600 C 186.800 340.050,186.620 339.600,186.400 339.600 C 186.180 339.600,186.000 340.050,186.000 340.600 M92.100 342.598 C 91.342 343.459,91.499 344.590,92.493 345.438 C 93.173 346.018,93.260 346.037,92.859 345.518 C 92.569 345.142,92.427 344.680,92.545 344.489 C 93.415 343.081,93.048 341.522,92.100 342.598 M186.110 343.600 C 186.143 344.040,186.301 344.400,186.460 344.400 C 186.620 344.400,186.723 344.040,186.690 343.600 C 186.657 343.160,186.499 342.800,186.340 342.800 C 186.180 342.800,186.077 343.160,186.110 343.600 M181.876 348.181 C 180.964 349.093,180.554 348.935,181.402 347.998 C 181.802 347.556,182.211 347.278,182.312 347.379 C 182.413 347.479,182.217 347.840,181.876 348.181 " stroke="none" fill="#f75c12" fill-rule="evenodd"></path><path id="path2" d="M307.600 43.902 C 307.600 45.052,309.506 46.352,310.391 45.806 C 311.688 45.004,310.815 42.800,309.200 42.800 C 307.720 42.800,307.600 42.883,307.600 43.902 M202.900 51.070 C 201.580 51.991,201.795 52.400,203.600 52.400 C 205.292 52.400,205.964 51.179,204.567 50.643 C 203.812 50.353,203.995 50.306,202.900 51.070 M258.000 96.578 C 244.333 100.428,239.654 118.333,247.281 137.600 C 249.077 142.138,249.037 142.060,251.707 146.200 C 254.173 150.025,254.897 150.601,259.020 152.027 C 264.788 154.022,270.137 156.752,268.345 156.787 C 267.984 156.794,263.934 155.527,259.345 153.971 C 250.591 151.004,248.790 150.430,242.079 148.463 C 237.267 147.053,233.851 145.524,230.414 143.241 C 229.057 142.339,227.463 141.487,226.873 141.347 L 225.800 141.092 226.852 142.246 C 227.430 142.881,228.405 144.210,229.018 145.200 C 233.132 151.846,237.153 153.913,249.200 155.577 C 254.290 156.280,254.788 156.415,253.800 156.818 C 253.296 157.023,254.406 157.163,256.800 157.196 C 260.956 157.253,267.288 158.328,268.068 159.108 C 268.339 159.379,268.389 159.610,268.180 159.622 C 254.904 160.377,249.965 162.648,239.357 172.874 C 227.747 184.068,221.998 184.365,209.801 174.401 C 200.707 166.974,195.009 164.230,186.600 163.230 C 179.466 162.382,176.460 162.725,171.600 164.940 C 170.830 165.291,167.590 166.600,164.400 167.848 C 120.696 184.945,106.063 199.368,101.948 229.400 C 101.213 234.765,101.208 265.562,101.941 271.600 C 104.832 295.410,118.920 319.454,133.496 325.457 C 134.323 325.798,135.540 326.312,136.200 326.600 C 136.860 326.888,138.030 327.229,138.800 327.359 C 139.570 327.488,140.920 327.754,141.800 327.949 C 151.991 330.209,165.575 332.546,175.989 333.830 C 177.192 333.978,179.172 334.433,180.389 334.840 C 181.605 335.247,183.545 335.585,184.700 335.590 C 185.855 335.596,186.800 335.780,186.800 336.000 C 186.800 336.244,188.667 336.400,191.600 336.400 C 194.533 336.400,196.400 336.556,196.400 336.800 C 196.400 337.061,202.773 337.200,214.720 337.200 C 228.841 337.200,233.155 337.315,233.544 337.700 C 233.948 338.101,233.995 338.062,233.782 337.503 C 233.600 337.026,233.750 336.735,234.258 336.579 C 234.666 336.453,236.139 335.816,237.532 335.163 C 238.925 334.510,241.805 333.624,243.932 333.194 C 246.059 332.764,249.510 332.032,251.600 331.567 C 253.690 331.102,256.120 330.566,257.000 330.377 C 260.359 329.655,271.108 326.800,276.000 325.330 C 277.870 324.768,279.933 324.213,280.585 324.097 C 283.053 323.654,293.872 315.370,300.014 309.219 C 319.499 289.705,332.800 257.486,332.800 229.800 C 332.800 201.199,319.148 184.518,280.068 165.371 C 270.705 160.784,270.225 160.306,274.795 160.124 C 290.787 159.487,299.280 145.490,295.214 126.468 C 291.007 106.778,273.035 92.344,258.000 96.578 M158.561 97.394 C 152.010 98.820,144.429 104.916,141.643 111.000 C 132.543 130.869,140.198 151.176,159.400 158.104 C 164.582 159.974,165.962 160.200,172.200 160.200 C 180.839 160.200,183.698 158.507,187.027 151.419 C 199.449 124.971,182.207 92.250,158.561 97.394 M173.117 110.126 C 176.894 111.957,180.372 118.216,180.998 124.308 C 181.507 129.266,181.523 130.353,181.147 134.600 C 179.541 152.769,165.615 156.357,163.025 139.269 C 160.398 121.930,160.942 115.093,165.283 110.926 C 167.564 108.736,169.781 108.509,173.117 110.126 M263.355 110.781 C 273.950 115.322,279.903 145.268,271.120 149.838 C 268.039 151.441,263.879 149.695,260.546 145.400 C 250.626 132.616,252.766 106.242,263.355 110.781 M167.692 130.868 C 167.034 131.526,167.072 132.196,167.800 132.800 C 168.601 133.465,169.687 132.605,169.519 131.439 C 169.380 130.469,168.398 130.162,167.692 130.868 M259.056 131.109 C 258.706 131.675,259.260 133.247,259.751 133.083 C 260.343 132.886,260.331 131.110,259.737 130.912 C 259.482 130.827,259.176 130.916,259.056 131.109 M338.600 215.185 C 339.260 215.905,341.039 217.489,342.552 218.706 C 348.077 223.146,355.639 231.892,356.986 235.400 C 357.155 235.840,357.370 235.996,357.464 235.746 C 357.980 234.381,351.727 225.253,347.226 220.800 C 342.779 216.401,335.175 211.451,338.600 215.185 M66.738 218.500 C 61.937 223.194,56.248 230.459,55.077 233.392 C 54.631 234.510,55.022 234.055,58.507 229.400 C 60.155 227.200,63.369 223.324,65.651 220.787 C 72.285 213.412,72.582 212.787,66.738 218.500 M212.236 216.706 C 212.476 216.868,215.986 221.930,220.036 227.955 C 224.086 233.980,227.670 239.305,228.000 239.789 C 228.330 240.273,228.870 241.090,229.200 241.604 C 230.945 244.323,244.402 264.696,246.433 267.694 C 249.546 272.289,249.799 272.000,242.661 272.000 L 236.522 272.000 233.861 268.003 C 232.397 265.805,231.200 263.853,231.200 263.665 C 231.200 263.478,230.840 262.998,230.400 262.600 C 229.960 262.202,229.600 261.656,229.600 261.387 C 229.600 261.118,229.353 260.693,229.051 260.442 C 228.749 260.191,227.633 258.549,226.571 256.793 C 224.319 253.067,223.999 252.964,222.543 255.500 C 221.944 256.545,220.946 258.056,220.326 258.858 C 219.707 259.659,219.200 260.443,219.200 260.600 C 219.200 260.757,218.705 261.541,218.100 262.344 C 217.495 263.147,216.820 264.098,216.600 264.458 C 215.253 266.665,211.483 272.002,211.263 272.015 C 207.546 272.229,199.404 272.013,199.299 271.698 C 199.224 271.472,201.536 267.712,204.437 263.343 C 207.337 258.974,210.943 253.510,212.450 251.200 C 213.956 248.890,215.731 246.243,216.394 245.317 C 217.820 243.327,217.844 243.145,216.800 242.200 C 216.360 241.802,216.000 241.308,216.000 241.103 C 216.000 240.662,213.534 237.060,213.100 236.867 C 212.935 236.793,212.800 236.575,212.800 236.382 C 212.800 236.189,210.640 232.784,208.000 228.816 C 205.360 224.849,203.200 221.488,203.200 221.349 C 203.200 221.210,202.564 220.211,201.788 219.130 C 201.011 218.048,200.481 216.992,200.611 216.782 C 200.886 216.337,211.585 216.268,212.236 216.706 M247.402 216.803 C 247.656 217.215,235.197 236.443,234.610 236.544 C 234.183 236.618,228.856 229.238,228.573 228.181 C 228.365 227.403,234.573 217.482,235.753 216.706 C 236.447 216.250,247.115 216.338,247.402 216.803 M67.043 256.633 C 66.553 257.909,66.782 258.800,67.600 258.800 C 68.122 258.800,68.400 258.533,68.400 258.033 C 68.400 257.027,67.996 256.000,67.600 256.000 C 67.427 256.000,67.176 256.285,67.043 256.633 M337.534 257.973 C 337.405 259.330,337.467 259.481,337.990 259.073 C 339.769 257.686,340.025 257.049,338.967 256.643 C 337.853 256.215,337.687 256.369,337.534 257.973 M102.075 314.700 C 102.148 315.085,102.611 315.458,103.104 315.528 C 104.178 315.681,104.258 315.284,103.300 314.557 C 102.334 313.824,101.917 313.872,102.075 314.700 M304.300 314.432 C 303.113 315.123,303.399 316.476,304.700 316.327 C 305.564 316.227,305.827 315.964,305.927 315.100 C 306.062 313.924,305.540 313.710,304.300 314.432 M282.800 325.775 C 282.800 327.785,289.108 331.863,290.330 330.642 C 290.919 330.053,290.918 330.000,290.324 330.000 C 289.593 330.000,286.272 328.361,286.067 327.900 C 285.993 327.735,285.665 327.600,285.338 327.600 C 284.558 327.600,283.600 326.623,283.600 325.829 C 283.600 325.483,283.420 325.200,283.200 325.200 C 282.980 325.200,282.800 325.459,282.800 325.775 M318.400 353.187 C 318.400 353.401,318.672 353.471,319.005 353.343 C 319.437 353.177,319.539 353.294,319.362 353.755 C 319.226 354.110,319.314 354.400,319.557 354.400 C 319.801 354.400,320.000 354.040,320.000 353.600 C 320.000 353.067,319.733 352.800,319.200 352.800 C 318.760 352.800,318.400 352.974,318.400 353.187 " stroke="none" fill="#fbfbfb" fill-rule="evenodd"></path><path id="path3" d="M221.354 140.894 C 220.719 141.385,218.609 143.185,216.664 144.892 C 211.149 149.736,209.459 150.438,187.800 156.892 C 186.260 157.351,184.829 157.878,184.620 158.063 C 184.076 158.545,183.103 158.480,183.411 157.983 C 183.553 157.753,182.755 158.127,181.638 158.814 C 180.521 159.502,179.505 160.229,179.380 160.432 C 178.984 161.073,188.301 160.835,194.800 160.038 C 198.210 159.620,203.430 159.072,206.400 158.821 C 209.370 158.570,213.600 158.197,215.800 157.992 C 230.422 156.630,239.976 156.634,251.200 158.007 C 252.850 158.209,255.595 158.486,257.300 158.621 C 260.619 158.886,261.344 159.418,258.900 159.796 C 254.336 160.503,252.738 160.936,250.200 162.152 C 248.660 162.891,246.140 164.596,244.600 165.941 C 243.060 167.287,240.844 169.124,239.676 170.024 C 238.507 170.925,237.442 171.962,237.308 172.331 C 237.174 172.699,236.610 173.360,236.054 173.800 C 235.499 174.240,234.674 174.970,234.222 175.422 C 231.321 178.321,224.359 179.223,218.619 177.443 C 216.255 176.711,215.995 176.823,217.433 177.954 C 218.024 178.419,218.296 178.800,218.038 178.800 C 217.001 178.800,214.256 177.047,210.136 173.756 C 198.568 164.511,193.224 162.239,182.000 161.791 L 178.600 161.656 181.200 162.047 C 197.366 164.478,199.297 165.292,210.083 174.224 C 222.268 184.316,227.741 184.073,239.300 172.930 C 249.267 163.321,254.690 160.531,264.921 159.751 C 267.448 159.558,268.320 159.360,268.009 159.049 C 267.280 158.320,260.817 157.252,256.800 157.196 C 254.406 157.163,253.296 157.023,253.800 156.818 C 254.788 156.415,254.290 156.280,249.200 155.577 C 237.153 153.913,233.132 151.846,229.018 145.200 C 228.405 144.210,227.430 142.881,226.852 142.246 L 225.800 141.092 226.873 141.347 C 227.463 141.487,228.993 142.283,230.273 143.115 C 233.281 145.071,236.340 146.594,236.646 146.288 C 236.778 146.155,236.263 145.786,235.502 145.468 C 234.740 145.150,232.786 144.014,231.158 142.944 C 226.148 139.648,223.640 139.123,221.354 140.894 M249.767 150.347 C 250.018 150.752,254.036 152.270,261.000 154.590 C 267.686 156.817,268.607 157.059,268.263 156.501 C 267.600 155.429,260.714 152.757,255.600 151.587 C 254.390 151.310,252.539 150.848,251.487 150.560 C 250.435 150.271,249.661 150.176,249.767 150.347 M200.800 217.018 C 200.800 217.137,202.301 219.522,204.136 222.318 C 205.971 225.113,209.770 230.899,212.578 235.176 C 218.224 243.775,218.240 243.804,217.611 244.193 C 217.367 244.344,217.277 244.857,217.410 245.334 C 217.581 245.945,217.542 246.040,217.276 245.657 C 216.784 244.947,216.317 245.680,216.636 246.664 C 216.819 247.225,216.782 247.268,216.482 246.847 C 216.073 246.274,216.018 246.337,214.150 249.500 C 213.587 250.455,213.584 250.521,214.128 250.000 C 214.472 249.670,215.034 248.860,215.375 248.200 C 215.861 247.260,215.995 247.173,215.993 247.800 C 215.991 248.240,215.543 249.383,214.996 250.339 C 213.877 252.296,214.021 252.982,215.474 252.617 C 216.178 252.440,217.029 252.718,218.437 253.585 C 220.798 255.037,220.688 255.026,221.601 253.900 C 222.003 253.405,222.462 253.131,222.623 253.290 C 222.783 253.450,222.683 253.859,222.400 254.200 C 222.117 254.541,222.002 254.935,222.143 255.076 C 222.284 255.218,222.400 255.157,222.400 254.942 C 222.400 254.727,222.767 254.157,223.216 253.675 C 223.664 253.194,223.844 252.800,223.616 252.800 C 223.387 252.800,223.200 252.620,223.200 252.400 C 223.200 252.180,223.568 252.000,224.018 252.000 C 224.467 252.000,224.793 252.225,224.741 252.500 C 224.650 252.989,227.899 258.400,228.284 258.400 C 228.480 258.400,227.505 256.648,226.206 254.665 C 225.822 254.079,225.687 253.600,225.906 253.600 C 226.125 253.600,226.992 254.680,227.833 256.000 C 228.674 257.320,229.505 258.400,229.681 258.400 C 229.856 258.400,230.001 258.625,230.002 258.900 C 230.005 259.736,232.386 262.000,233.263 262.000 C 233.715 262.000,234.440 262.451,234.873 263.002 C 235.332 263.585,236.401 264.190,237.431 264.449 C 238.404 264.694,239.200 265.058,239.200 265.257 C 239.200 265.702,241.198 266.562,241.940 266.437 C 242.237 266.387,242.371 266.524,242.236 266.741 C 242.102 266.958,242.489 267.528,243.096 268.006 C 244.627 269.213,244.811 268.162,243.426 266.124 C 242.862 265.294,242.400 264.459,242.400 264.269 C 242.400 264.079,242.026 263.398,241.569 262.756 C 241.111 262.114,240.827 261.366,240.937 261.094 C 241.054 260.806,241.150 260.892,241.168 261.300 C 241.186 261.685,241.380 262.000,241.600 262.000 C 241.820 262.000,242.000 262.270,242.000 262.600 C 242.000 262.930,242.180 263.200,242.400 263.200 C 242.620 263.200,242.800 263.470,242.800 263.800 C 242.800 264.130,242.980 264.400,243.200 264.400 C 243.420 264.400,243.607 264.625,243.616 264.900 C 243.625 265.175,244.195 266.030,244.883 266.800 C 246.788 268.934,245.696 267.243,224.275 234.900 L 212.288 216.800 206.544 216.800 C 203.385 216.800,200.800 216.898,200.800 217.018 M232.262 221.997 C 230.358 224.856,228.800 227.456,228.800 227.776 C 228.800 228.523,233.906 235.767,234.529 235.904 C 234.942 235.995,246.428 219.035,247.048 217.419 C 247.256 216.878,246.556 216.800,241.505 216.800 L 235.725 216.800 232.262 221.997 M230.000 261.400 C 230.681 262.390,231.328 263.200,231.438 263.200 C 231.548 263.200,231.081 262.390,230.400 261.400 C 229.719 260.410,229.072 259.600,228.962 259.600 C 228.852 259.600,229.319 260.410,230.000 261.400 M239.682 271.896 C 241.158 271.973,243.678 271.973,245.282 271.897 C 246.887 271.821,245.680 271.758,242.600 271.758 C 239.520 271.757,238.207 271.819,239.682 271.896 M277.800 324.833 C 275.334 325.630,274.739 325.802,269.600 327.200 C 267.950 327.649,265.970 328.191,265.200 328.405 C 263.457 328.889,253.575 331.211,248.300 332.375 C 247.365 332.582,245.755 332.942,244.723 333.175 C 243.690 333.409,242.445 333.600,241.954 333.600 C 240.935 333.600,235.845 335.978,236.169 336.303 C 236.287 336.420,237.422 336.057,238.692 335.496 C 239.961 334.934,244.420 333.720,248.600 332.797 C 258.035 330.715,267.311 328.413,274.520 326.367 C 281.275 324.449,281.429 324.443,281.752 326.059 C 282.167 328.134,286.144 331.189,289.600 332.089 C 293.300 333.052,294.456 333.266,297.800 333.606 C 299.780 333.807,302.660 334.158,304.200 334.385 C 310.044 335.247,311.952 335.337,312.621 334.783 C 313.045 334.430,313.352 334.391,313.530 334.666 C 313.962 335.330,315.466 336.000,316.524 336.000 C 318.840 336.000,323.267 338.638,323.105 339.922 C 322.988 340.845,323.090 340.882,324.798 340.540 C 326.065 340.287,326.152 340.059,325.749 338.045 C 325.577 337.187,325.210 336.717,324.587 336.561 C 324.086 336.435,323.569 335.942,323.438 335.466 C 323.283 334.902,323.096 334.760,322.900 335.060 C 322.458 335.738,319.321 335.976,319.738 335.300 C 319.840 335.135,319.175 335.012,318.262 335.028 C 316.274 335.061,315.523 334.849,315.836 334.342 C 315.971 334.123,315.638 334.076,315.034 334.227 C 314.243 334.426,314.000 334.335,314.000 333.843 C 314.000 333.467,313.668 333.200,313.200 333.200 C 312.756 333.200,312.400 333.467,312.400 333.800 C 312.400 334.130,312.130 334.400,311.800 334.400 C 311.470 334.400,311.200 334.130,311.200 333.800 C 311.200 333.438,310.830 333.200,310.267 333.200 C 309.753 333.200,309.208 333.075,309.055 332.922 C 308.655 332.522,307.558 332.409,307.795 332.792 C 307.904 332.969,307.346 333.189,306.555 333.281 C 305.693 333.382,305.046 333.264,304.940 332.987 C 304.842 332.733,303.830 332.493,302.691 332.452 C 301.551 332.412,300.444 332.204,300.229 331.989 C 300.015 331.775,298.526 331.600,296.920 331.600 C 294.994 331.600,294.000 331.444,294.000 331.142 C 294.000 330.820,293.219 330.757,291.359 330.931 C 289.375 331.116,288.419 331.024,287.523 330.560 C 285.893 329.717,282.800 326.656,282.800 325.885 C 282.800 324.018,281.298 323.702,277.800 324.833 M138.400 327.834 C 148.534 330.056,164.492 332.927,165.465 332.703 C 165.869 332.610,165.300 332.399,164.200 332.235 C 161.659 331.855,154.018 330.527,151.400 330.011 C 146.218 328.988,141.267 327.940,139.954 327.588 C 139.158 327.375,137.898 327.214,137.154 327.232 C 136.130 327.256,136.433 327.402,138.400 327.834 M135.039 327.894 C 134.643 328.290,134.770 330.734,135.201 331.000 C 135.596 331.245,136.400 329.648,136.400 328.617 C 136.400 328.034,135.420 327.513,135.039 327.894 M133.200 332.000 C 133.200 332.220,132.840 332.400,132.400 332.400 C 131.960 332.400,131.600 332.580,131.600 332.800 C 131.600 333.020,131.060 333.200,130.400 333.200 C 129.467 333.200,129.200 333.378,129.200 334.000 C 129.200 334.458,128.933 334.800,128.576 334.800 C 128.233 334.800,128.064 334.620,128.200 334.400 C 128.336 334.180,128.177 334.000,127.847 334.000 C 127.517 334.000,127.136 334.180,127.000 334.400 C 126.864 334.620,126.043 334.800,125.176 334.800 C 124.309 334.800,123.600 334.963,123.600 335.161 C 123.600 335.500,122.828 335.636,117.500 336.237 C 116.345 336.367,115.229 336.637,115.020 336.837 C 114.811 337.037,113.776 337.200,112.720 337.200 C 111.664 337.200,110.800 337.380,110.800 337.600 C 110.800 337.820,110.091 338.000,109.224 338.000 C 108.357 338.000,107.536 338.180,107.400 338.400 C 107.264 338.620,106.454 338.800,105.600 338.800 C 104.746 338.800,103.936 338.980,103.800 339.200 C 103.664 339.420,102.944 339.600,102.200 339.600 C 101.456 339.600,100.736 339.780,100.600 340.000 C 100.464 340.220,99.643 340.400,98.776 340.400 C 97.909 340.400,97.200 340.580,97.200 340.800 C 97.200 341.020,96.861 341.200,96.446 341.200 C 95.120 341.200,93.065 342.281,92.925 343.053 C 92.553 345.095,92.470 346.063,92.684 345.849 C 92.814 345.719,93.126 345.893,93.376 346.235 C 94.068 347.181,96.138 346.572,95.859 345.505 C 95.400 343.750,99.919 341.199,104.849 340.431 C 118.950 338.233,126.369 336.609,129.866 334.954 C 133.901 333.044,135.595 331.600,133.800 331.600 C 133.470 331.600,133.200 331.780,133.200 332.000 M168.400 333.260 C 173.641 334.245,181.790 335.543,181.919 335.414 C 182.447 334.886,173.772 333.328,168.400 332.987 L 166.200 332.847 168.400 333.260 M182.642 335.932 C 182.530 336.114,182.982 336.924,183.648 337.732 C 184.314 338.539,184.665 339.200,184.429 339.200 C 184.193 339.200,184.000 339.053,184.000 338.874 C 184.000 338.695,183.357 338.242,182.572 337.867 C 181.626 337.416,181.248 337.358,181.451 337.693 C 181.620 337.972,182.262 339.000,182.879 339.978 C 183.743 341.348,184.000 342.244,184.000 343.878 C 184.000 346.075,184.183 346.319,185.200 345.479 C 185.937 344.871,187.026 343.013,186.430 343.382 C 186.193 343.528,186.000 343.457,186.000 343.224 C 186.000 342.991,186.180 342.800,186.400 342.800 C 186.620 342.800,186.800 342.530,186.800 342.200 C 186.800 341.870,186.620 341.600,186.400 341.600 C 186.180 341.600,186.000 340.874,186.000 339.987 C 186.000 338.040,183.331 334.817,182.642 335.932 M234.115 337.100 C 233.972 337.485,233.528 338.091,233.128 338.447 C 232.059 339.397,232.065 344.798,233.136 345.467 C 234.313 346.202,234.990 345.472,234.855 343.611 C 234.766 342.377,235.040 341.440,235.972 339.788 C 237.269 337.490,237.159 337.033,235.649 338.440 C 234.603 339.414,234.005 339.124,234.715 337.987 C 234.982 337.560,235.200 337.028,235.200 336.805 C 235.200 336.132,234.393 336.351,234.115 337.100 M235.056 346.678 C 234.605 347.128,234.781 347.600,235.400 347.600 C 235.730 347.600,236.000 347.431,236.000 347.224 C 236.000 346.719,235.375 346.358,235.056 346.678 M181.402 347.998 C 181.003 348.439,180.807 348.800,180.967 348.800 C 181.388 348.800,182.528 347.595,182.312 347.379 C 182.211 347.278,181.802 347.556,181.402 347.998 " stroke="none" fill="#f69a28" fill-rule="evenodd"></path><path id="path4" d="M196.400 35.200 C 196.400 35.420,196.861 35.600,197.424 35.600 C 198.004 35.600,198.340 35.427,198.200 35.200 C 198.064 34.980,197.603 34.800,197.176 34.800 C 196.749 34.800,196.400 34.980,196.400 35.200 M215.600 38.969 C 215.600 39.424,217.635 41.298,217.872 41.061 C 218.095 40.838,217.615 40.286,216.298 39.251 C 215.914 38.949,215.600 38.822,215.600 38.969 M170.062 43.858 C 169.106 44.848,168.414 45.747,168.523 45.857 C 168.718 46.051,172.400 42.567,172.400 42.189 C 172.400 41.680,171.643 42.221,170.062 43.858 M167.260 47.442 C 166.531 48.266,167.000 48.657,167.781 47.876 C 168.121 47.536,168.400 47.154,168.400 47.029 C 168.400 46.609,167.806 46.824,167.260 47.442 M202.211 51.026 C 201.019 52.217,201.200 52.823,202.724 52.746 C 203.666 52.698,203.688 52.670,202.900 52.518 C 202.405 52.422,202.000 52.198,202.000 52.018 C 202.000 51.434,203.941 50.403,204.579 50.647 C 204.921 50.778,205.200 50.686,205.200 50.443 C 205.200 49.614,203.240 49.996,202.211 51.026 M152.400 56.000 C 152.400 56.220,152.670 56.400,153.000 56.400 C 153.330 56.400,153.600 56.220,153.600 56.000 C 153.600 55.780,153.330 55.600,153.000 55.600 C 152.670 55.600,152.400 55.780,152.400 56.000 M138.000 62.400 C 138.000 62.620,138.270 62.800,138.600 62.800 C 138.930 62.800,139.200 62.620,139.200 62.400 C 139.200 62.180,138.930 62.000,138.600 62.000 C 138.270 62.000,138.000 62.180,138.000 62.400 M126.629 69.029 C 126.205 69.338,125.972 69.705,126.110 69.843 C 126.249 69.982,126.662 69.795,127.029 69.429 C 127.891 68.566,127.625 68.300,126.629 69.029 M123.835 71.003 C 123.195 71.553,122.789 72.122,122.933 72.266 C 123.077 72.410,123.532 72.139,123.944 71.664 C 124.357 71.189,124.898 70.800,125.147 70.800 C 125.396 70.800,125.600 70.620,125.600 70.400 C 125.600 69.755,125.079 69.933,123.835 71.003 M120.860 73.042 C 120.131 73.866,120.600 74.257,121.381 73.476 C 121.721 73.136,122.000 72.754,122.000 72.629 C 122.000 72.209,121.406 72.424,120.860 73.042 M270.800 74.225 C 270.800 74.525,271.873 75.600,272.171 75.600 C 272.680 75.600,272.351 74.962,271.600 74.493 C 271.160 74.218,270.800 74.098,270.800 74.225 M117.418 75.818 C 116.787 76.360,116.378 76.911,116.509 77.043 C 116.640 77.174,117.246 76.819,117.855 76.255 C 119.297 74.917,118.913 74.533,117.418 75.818 M274.800 77.429 C 274.800 77.821,275.922 78.800,276.371 78.800 C 276.607 78.800,276.800 78.968,276.800 79.173 C 276.800 79.660,279.180 81.353,279.465 81.068 C 279.766 80.767,278.043 79.126,276.700 78.432 C 276.095 78.120,275.600 77.715,275.600 77.532 C 275.600 77.350,275.420 77.200,275.200 77.200 C 274.980 77.200,274.800 77.303,274.800 77.429 M110.863 81.460 C 109.468 82.890,108.415 84.148,108.522 84.256 C 108.746 84.480,114.000 79.522,114.000 79.086 C 114.000 78.441,113.274 78.990,110.863 81.460 M280.400 81.810 C 280.730 82.217,281.605 83.101,282.345 83.775 C 283.085 84.449,286.294 87.581,289.477 90.735 C 292.659 93.889,295.351 96.382,295.458 96.275 C 295.710 96.023,282.003 82.381,280.749 81.636 C 279.849 81.101,279.831 81.110,280.400 81.810 M101.291 91.080 C 99.912 92.530,98.882 93.815,99.003 93.936 C 99.208 94.141,104.400 88.994,104.400 88.586 C 104.400 88.026,103.541 88.716,101.291 91.080 M96.861 96.255 C 96.125 97.025,95.633 97.767,95.769 97.902 C 95.998 98.131,98.800 95.446,98.800 94.999 C 98.800 94.507,98.097 94.963,96.861 96.255 M258.554 95.789 C 243.265 99.531,238.394 120.172,247.972 140.633 C 250.814 146.705,254.375 151.372,256.482 151.789 C 257.207 151.933,258.301 152.243,258.913 152.479 C 259.525 152.715,260.121 152.812,260.238 152.695 C 260.355 152.578,259.301 152.099,257.895 151.632 C 254.663 150.556,253.568 149.426,249.915 143.400 C 244.372 134.257,242.019 118.565,244.923 110.107 C 253.717 84.490,288.674 95.862,295.214 126.468 C 299.280 145.490,290.787 159.487,274.795 160.124 C 270.225 160.306,270.705 160.784,280.068 165.371 C 312.367 181.196,324.834 193.035,330.854 213.600 C 336.497 232.874,329.187 267.835,314.796 290.400 C 305.626 304.780,298.522 312.038,282.494 323.404 C 281.586 324.048,281.999 325.200,283.138 325.200 C 283.355 325.200,283.614 325.425,283.712 325.700 C 283.810 325.975,284.031 326.070,284.202 325.910 C 284.373 325.751,284.083 325.268,283.557 324.838 C 282.445 323.930,282.234 324.177,287.000 320.806 C 301.859 310.295,313.468 296.260,321.746 278.800 C 327.424 266.824,330.271 256.378,333.168 236.893 C 334.213 229.862,333.075 217.650,330.787 211.342 C 330.320 210.054,329.787 208.516,329.604 207.925 C 324.913 192.814,309.867 179.511,281.600 165.484 C 273.154 161.293,272.698 161.012,274.200 160.914 C 290.789 159.833,299.089 147.728,296.219 128.800 C 293.059 107.960,274.671 91.844,258.554 95.789 M158.800 96.799 C 158.030 96.995,156.860 97.285,156.200 97.443 C 155.540 97.600,154.440 98.043,153.755 98.427 C 153.070 98.811,152.080 99.367,151.555 99.662 C 147.030 102.210,142.276 107.726,140.231 112.800 C 137.990 118.362,137.507 120.946,137.503 127.400 C 137.490 147.401,151.605 160.800,172.738 160.848 L 178.617 160.862 181.059 159.231 C 182.402 158.334,183.658 157.599,183.850 157.597 C 184.962 157.589,189.151 148.710,190.737 143.000 C 197.340 119.229,178.375 91.794,158.800 96.799 M168.917 97.430 C 185.319 101.681,195.816 126.498,189.385 145.823 C 185.610 157.165,181.983 160.200,172.200 160.200 C 165.962 160.200,164.582 159.974,159.400 158.104 C 140.198 151.176,132.543 130.869,141.643 111.000 C 146.176 101.101,158.816 94.813,168.917 97.430 M94.060 99.851 C 93.543 100.402,93.234 100.967,93.374 101.107 C 93.614 101.347,95.600 99.483,95.600 99.017 C 95.600 98.547,94.956 98.896,94.060 99.851 M297.200 99.025 C 297.200 99.325,298.273 100.400,298.571 100.400 C 299.080 100.400,298.751 99.762,298.000 99.293 C 297.560 99.018,297.200 98.898,297.200 99.025 M91.705 103.108 C 90.390 104.714,90.606 105.122,92.000 103.663 C 92.660 102.972,93.200 102.316,93.200 102.204 C 93.200 101.699,92.525 102.107,91.705 103.108 M89.693 106.000 C 89.418 106.440,89.298 106.800,89.425 106.800 C 89.725 106.800,90.800 105.727,90.800 105.429 C 90.800 104.920,90.162 105.249,89.693 106.000 M168.000 109.277 C 166.165 109.781,164.203 111.705,162.985 114.195 C 160.878 118.505,160.888 125.168,163.025 139.269 C 165.615 156.357,179.541 152.769,181.147 134.600 C 181.523 130.353,181.507 129.266,180.998 124.308 C 180.057 115.153,173.636 107.728,168.000 109.277 M87.300 109.798 C 86.699 110.481,86.648 111.200,87.200 111.200 C 87.420 111.200,87.600 110.930,87.600 110.600 C 87.600 110.270,87.780 110.000,88.000 110.000 C 88.220 110.000,88.400 109.820,88.400 109.600 C 88.400 109.037,87.889 109.129,87.300 109.798 M172.216 110.232 C 184.540 115.382,183.451 149.600,170.963 149.600 C 167.206 149.600,164.558 145.919,163.626 139.401 C 162.134 128.971,161.715 122.219,162.330 118.542 C 163.490 111.617,167.487 108.257,172.216 110.232 M259.000 110.565 C 251.160 114.049,253.532 139.886,262.394 147.522 C 269.778 153.885,275.200 150.240,275.200 138.913 C 275.199 122.689,266.393 107.279,259.000 110.565 M262.400 110.906 C 264.605 111.684,266.602 113.438,268.337 116.123 C 271.006 120.253,272.099 122.966,274.005 130.200 C 274.679 132.758,274.974 142.731,274.433 144.705 C 273.221 149.132,269.128 151.028,265.200 148.983 C 255.012 143.678,250.743 114.889,259.558 110.932 C 260.901 110.330,260.771 110.331,262.400 110.906 M85.696 112.395 C 84.944 113.598,85.102 113.856,86.000 112.892 C 86.847 111.983,86.994 111.600,86.496 111.600 C 86.329 111.600,85.969 111.958,85.696 112.395 M84.400 114.600 C 84.400 114.930,84.580 115.200,84.800 115.200 C 85.020 115.200,85.200 114.930,85.200 114.600 C 85.200 114.270,85.020 114.000,84.800 114.000 C 84.580 114.000,84.400 114.270,84.400 114.600 M78.000 127.400 C 78.000 127.730,78.180 128.000,78.400 128.000 C 78.620 128.000,78.800 127.730,78.800 127.400 C 78.800 127.070,78.620 126.800,78.400 126.800 C 78.180 126.800,78.000 127.070,78.000 127.400 M77.200 129.000 C 77.200 129.330,77.380 129.600,77.600 129.600 C 77.820 129.600,78.000 129.330,78.000 129.000 C 78.000 128.670,77.820 128.400,77.600 128.400 C 77.380 128.400,77.200 128.670,77.200 129.000 M167.180 130.624 C 166.385 131.582,167.157 133.370,168.430 133.519 C 169.776 133.677,170.707 132.121,170.027 130.850 C 169.489 129.846,167.929 129.722,167.180 130.624 M258.900 130.265 C 258.206 130.545,258.272 132.596,258.995 133.196 C 260.368 134.335,261.616 131.776,260.320 130.480 C 259.808 129.968,259.682 129.949,258.900 130.265 M169.519 131.439 C 169.687 132.605,168.601 133.465,167.800 132.800 C 167.072 132.196,167.034 131.526,167.692 130.868 C 168.398 130.162,169.380 130.469,169.519 131.439 M260.200 132.000 C 260.200 132.513,259.998 133.001,259.751 133.083 C 259.260 133.247,258.706 131.675,259.056 131.109 C 259.452 130.469,260.200 131.051,260.200 132.000 M74.800 135.600 C 74.800 136.040,74.980 136.400,75.200 136.400 C 75.420 136.400,75.600 136.040,75.600 135.600 C 75.600 135.160,75.420 134.800,75.200 134.800 C 74.980 134.800,74.800 135.160,74.800 135.600 M74.000 138.000 C 74.000 138.440,74.180 138.800,74.400 138.800 C 74.620 138.800,74.800 138.440,74.800 138.000 C 74.800 137.560,74.620 137.200,74.400 137.200 C 74.180 137.200,74.000 137.560,74.000 138.000 M73.200 140.200 C 73.200 140.530,73.380 140.800,73.600 140.800 C 73.820 140.800,74.000 140.530,74.000 140.200 C 74.000 139.870,73.820 139.600,73.600 139.600 C 73.380 139.600,73.200 139.870,73.200 140.200 M72.400 142.600 C 72.400 142.930,72.580 143.200,72.800 143.200 C 73.020 143.200,73.200 142.930,73.200 142.600 C 73.200 142.270,73.020 142.000,72.800 142.000 C 72.580 142.000,72.400 142.270,72.400 142.600 M240.000 147.547 C 240.000 147.738,241.125 148.205,242.500 148.583 C 243.875 148.962,246.065 149.616,247.367 150.036 C 249.764 150.810,250.436 150.836,249.510 150.120 C 249.025 149.745,244.474 148.373,243.200 148.218 C 242.870 148.178,242.093 147.933,241.474 147.673 C 240.128 147.108,240.000 147.097,240.000 147.547 M71.067 147.867 C 70.652 148.282,70.753 149.600,71.200 149.600 C 71.420 149.600,71.600 149.150,71.600 148.600 C 71.600 147.553,71.508 147.426,71.067 147.867 M69.200 156.200 C 69.200 156.530,69.380 156.800,69.600 156.800 C 69.820 156.800,70.000 156.530,70.000 156.200 C 70.000 155.870,69.820 155.600,69.600 155.600 C 69.380 155.600,69.200 155.870,69.200 156.200 M176.800 162.172 C 176.030 162.457,174.590 163.056,173.600 163.506 C 172.610 163.955,167.300 166.122,161.800 168.320 C 126.282 182.520,111.360 194.661,104.676 214.800 C 103.822 217.374,103.407 218.932,102.175 224.200 C 100.152 232.847,100.284 267.679,102.383 278.800 C 103.200 283.130,103.499 284.259,104.978 288.600 C 110.518 304.863,122.476 320.960,132.400 325.512 C 133.610 326.067,135.005 326.704,135.499 326.928 C 135.994 327.151,136.514 327.219,136.655 327.078 C 136.796 326.938,136.481 326.659,135.955 326.459 C 131.306 324.689,128.628 322.923,124.108 318.644 C 111.965 307.150,104.277 290.832,101.941 271.600 C 101.208 265.562,101.213 234.765,101.948 229.400 C 106.064 199.361,120.597 185.035,164.400 167.840 C 167.590 166.588,171.190 165.141,172.400 164.626 C 177.098 162.624,179.674 162.429,188.800 163.389 L 190.600 163.578 188.887 163.208 C 187.945 163.004,185.368 162.639,183.160 162.396 C 180.952 162.153,178.932 161.887,178.673 161.805 C 178.413 161.723,177.570 161.888,176.800 162.172 M193.000 164.331 C 197.526 165.701,203.662 169.387,209.900 174.483 C 211.495 175.785,212.800 176.761,212.800 176.650 C 212.800 174.625,196.498 164.392,192.400 163.845 C 190.713 163.620,190.751 163.650,193.000 164.331 M67.600 167.776 C 67.600 168.093,67.780 168.464,68.000 168.600 C 68.220 168.736,68.400 168.477,68.400 168.024 C 68.400 167.571,68.220 167.200,68.000 167.200 C 67.780 167.200,67.600 167.459,67.600 167.776 M330.800 185.200 C 330.800 185.640,330.980 186.000,331.200 186.000 C 331.420 186.000,331.600 185.640,331.600 185.200 C 331.600 184.760,331.420 184.400,331.200 184.400 C 330.980 184.400,330.800 184.760,330.800 185.200 M66.800 189.400 C 66.800 190.610,66.980 191.600,67.200 191.600 C 67.420 191.600,67.600 190.610,67.600 189.400 C 67.600 188.190,67.420 187.200,67.200 187.200 C 66.980 187.200,66.800 188.190,66.800 189.400 M63.293 199.600 C 63.018 200.040,62.898 200.400,63.025 200.400 C 63.325 200.400,64.400 199.327,64.400 199.029 C 64.400 198.520,63.762 198.849,63.293 199.600 M60.860 202.642 C 60.131 203.466,60.600 203.857,61.381 203.076 C 61.721 202.736,62.000 202.354,62.000 202.229 C 62.000 201.809,61.406 202.024,60.860 202.642 M346.451 204.298 C 347.486 205.615,348.038 206.095,348.261 205.872 C 348.384 205.749,348.024 205.188,347.461 204.624 C 346.298 203.462,345.622 203.243,346.451 204.298 M58.460 205.842 C 57.731 206.666,58.200 207.057,58.981 206.276 C 59.321 205.936,59.600 205.554,59.600 205.429 C 59.600 205.009,59.006 205.224,58.460 205.842 M54.493 211.600 C 54.218 212.040,54.098 212.400,54.225 212.400 C 54.525 212.400,55.600 211.327,55.600 211.029 C 55.600 210.520,54.962 210.849,54.493 211.600 M52.860 213.842 C 52.131 214.666,52.600 215.057,53.381 214.276 C 53.721 213.936,54.000 213.554,54.000 213.429 C 54.000 213.009,53.406 213.224,52.860 213.842 M336.800 213.728 C 336.800 214.490,338.555 216.283,342.119 219.162 C 348.432 224.263,352.919 229.447,356.996 236.351 C 359.305 240.263,361.556 242.096,359.628 238.495 C 359.423 238.113,358.509 236.270,357.595 234.400 C 353.302 225.611,345.921 217.213,339.716 214.057 C 337.790 213.077,336.800 212.966,336.800 213.728 M67.198 217.304 C 60.841 223.485,56.616 229.035,52.842 236.166 C 50.353 240.867,51.028 241.109,54.000 236.581 C 57.145 231.788,61.168 226.735,67.357 219.800 C 69.909 216.940,71.998 214.375,71.999 214.100 C 72.001 212.993,70.824 213.779,67.198 217.304 M341.193 215.719 C 346.603 218.879,358.366 233.358,357.464 235.746 C 357.370 235.996,357.155 235.840,356.986 235.400 C 355.639 231.892,348.077 223.146,342.552 218.706 C 337.049 214.283,336.439 212.943,341.193 215.719 M70.349 215.487 C 70.047 215.866,67.933 218.251,65.651 220.787 C 63.369 223.324,60.155 227.200,58.507 229.400 C 55.022 234.055,54.631 234.510,55.077 233.392 C 56.248 230.459,61.937 223.194,66.738 218.500 C 70.321 214.998,71.577 213.950,70.349 215.487 M51.293 216.400 C 51.018 216.840,50.898 217.200,51.025 217.200 C 51.325 217.200,52.400 216.127,52.400 215.829 C 52.400 215.320,51.762 215.649,51.293 216.400 M200.578 216.835 C 200.431 217.074,200.521 217.479,200.779 217.735 C 201.136 218.089,201.185 218.036,200.985 217.511 C 200.746 216.883,201.225 216.812,206.462 216.699 L 212.200 216.576 206.524 216.488 C 202.777 216.430,200.756 216.548,200.578 216.835 M241.538 216.699 C 246.775 216.812,247.254 216.883,247.015 217.511 C 246.815 218.036,246.864 218.089,247.221 217.735 C 248.307 216.658,247.123 216.400,241.476 216.488 L 235.800 216.576 241.538 216.699 M245.353 220.100 C 243.976 222.436,243.886 222.635,244.587 221.800 C 245.400 220.832,246.100 219.600,245.838 219.600 C 245.733 219.600,245.515 219.825,245.353 220.100 M203.200 221.333 C 203.200 221.666,208.686 229.985,209.311 230.600 C 209.876 231.156,209.488 230.500,206.468 225.800 C 203.817 221.672,203.200 220.830,203.200 221.333 M228.880 226.480 C 228.616 226.744,228.421 227.329,228.446 227.780 C 228.492 228.583,228.497 228.584,228.689 227.800 C 228.798 227.360,229.069 226.775,229.292 226.500 C 229.810 225.862,229.512 225.848,228.880 226.480 M45.200 227.400 C 45.200 227.730,45.380 228.000,45.600 228.000 C 45.820 228.000,46.000 227.730,46.000 227.400 C 46.000 227.070,45.820 226.800,45.600 226.800 C 45.380 226.800,45.200 227.070,45.200 227.400 M230.799 231.713 C 231.964 233.425,233.113 234.946,233.352 235.094 C 233.848 235.400,230.196 230.112,229.282 229.200 C 228.951 228.870,229.634 230.001,230.799 231.713 M43.600 230.600 C 43.600 230.930,43.780 231.200,44.000 231.200 C 44.220 231.200,44.400 230.930,44.400 230.600 C 44.400 230.270,44.220 230.000,44.000 230.000 C 43.780 230.000,43.600 230.270,43.600 230.600 M43.012 232.517 C 42.841 232.912,42.813 233.347,42.951 233.484 C 43.357 233.890,43.684 233.320,43.497 232.531 C 43.332 231.833,43.310 231.832,43.012 232.517 M210.762 233.000 C 210.990 233.440,211.554 234.250,212.015 234.800 C 212.587 235.482,212.722 235.546,212.438 235.000 C 212.210 234.560,211.646 233.750,211.185 233.200 C 210.613 232.518,210.478 232.454,210.762 233.000 M235.332 235.432 C 235.183 235.820,234.793 235.987,234.322 235.864 C 233.699 235.701,233.642 235.769,234.022 236.227 C 234.280 236.537,234.649 236.693,234.843 236.573 C 235.294 236.295,236.102 234.800,235.802 234.800 C 235.677 234.800,235.466 235.085,235.332 235.432 M41.412 236.117 C 41.241 236.512,41.213 236.947,41.351 237.084 C 41.757 237.490,42.084 236.920,41.897 236.131 C 41.732 235.433,41.710 235.432,41.412 236.117 M227.006 238.912 C 227.392 239.524,227.809 239.924,227.932 239.801 C 228.055 239.678,227.739 239.178,227.230 238.689 L 226.304 237.800 227.006 238.912 M228.985 241.900 C 229.602 242.835,230.177 243.600,230.263 243.600 C 230.596 243.600,229.218 241.313,228.558 240.771 C 228.166 240.448,228.351 240.939,228.985 241.900 M216.000 241.138 C 216.000 241.324,216.388 241.819,216.862 242.238 L 217.724 243.000 217.016 241.900 C 216.286 240.766,216.000 240.551,216.000 241.138 M216.501 245.134 C 215.787 246.160,213.967 248.890,212.457 251.200 C 210.947 253.510,207.337 258.974,204.437 263.343 C 201.536 267.712,199.224 271.472,199.299 271.698 C 199.404 272.013,207.546 272.229,211.263 272.015 C 211.483 272.002,215.253 266.665,216.600 264.458 C 216.820 264.098,217.495 263.147,218.100 262.344 C 218.705 261.541,219.200 260.757,219.200 260.600 C 219.200 260.443,219.707 259.659,220.326 258.858 C 220.946 258.056,221.944 256.545,222.543 255.500 C 223.999 252.964,224.319 253.067,226.571 256.793 C 227.633 258.549,228.777 260.214,229.115 260.493 C 229.857 261.106,225.814 254.513,224.796 253.450 C 223.877 252.490,224.306 251.971,217.066 262.800 L 211.317 271.400 205.807 271.600 C 199.496 271.829,199.328 271.739,201.208 269.142 C 201.902 268.184,205.333 262.990,208.832 257.600 C 212.331 252.210,215.844 246.844,216.638 245.675 C 217.433 244.506,218.019 243.486,217.942 243.409 C 217.864 243.331,217.216 244.108,216.501 245.134 M234.643 250.500 C 235.111 251.306,239.837 258.529,244.074 264.916 C 246.234 268.170,248.000 271.095,248.000 271.416 C 248.000 271.737,248.180 272.000,248.400 272.000 C 249.194 272.000,248.714 271.154,243.144 262.742 C 240.034 258.044,236.866 253.255,236.105 252.100 C 234.902 250.273,233.831 249.101,234.643 250.500 M66.968 255.726 C 66.430 256.342,65.886 258.918,66.354 258.628 C 66.543 258.512,66.805 257.873,66.938 257.208 C 67.159 256.103,68.000 255.463,68.000 256.400 C 68.000 256.620,68.186 256.800,68.414 256.800 C 68.695 256.800,68.690 256.542,68.400 256.000 C 67.911 255.086,67.581 255.023,66.968 255.726 M337.186 257.041 C 336.800 258.213,336.815 258.586,337.266 259.037 C 337.739 259.510,337.798 259.357,337.668 257.996 C 337.580 257.075,337.689 256.400,337.925 256.400 C 338.946 256.400,339.600 256.963,339.600 257.843 C 339.600 258.369,339.780 258.800,340.000 258.800 C 340.803 258.800,340.372 257.236,339.346 256.429 C 337.928 255.314,337.739 255.367,337.186 257.041 M36.400 258.000 C 36.400 258.440,36.580 258.800,36.800 258.800 C 37.020 258.800,37.200 258.440,37.200 258.000 C 37.200 257.560,37.020 257.200,36.800 257.200 C 36.580 257.200,36.400 257.560,36.400 258.000 M68.400 258.600 C 68.400 259.150,68.580 259.600,68.800 259.600 C 69.020 259.600,69.200 259.150,69.200 258.600 C 69.200 258.050,69.020 257.600,68.800 257.600 C 68.580 257.600,68.400 258.050,68.400 258.600 M69.200 261.400 C 69.200 261.730,69.380 262.000,69.600 262.000 C 69.820 262.000,70.000 261.730,70.000 261.400 C 70.000 261.070,69.820 260.800,69.600 260.800 C 69.380 260.800,69.200 261.070,69.200 261.400 M229.600 261.458 C 229.600 261.688,229.960 262.202,230.400 262.600 C 230.840 262.998,231.200 263.478,231.200 263.665 C 231.200 264.173,236.474 272.000,236.816 272.000 C 237.081 272.000,230.816 262.338,229.956 261.420 C 229.733 261.182,229.600 261.196,229.600 261.458 M70.000 263.800 C 70.000 264.130,70.180 264.400,70.400 264.400 C 70.620 264.400,70.800 264.130,70.800 263.800 C 70.800 263.470,70.620 263.200,70.400 263.200 C 70.180 263.200,70.000 263.470,70.000 263.800 M343.600 263.800 C 343.600 264.130,343.780 264.400,344.000 264.400 C 344.220 264.400,344.400 264.130,344.400 263.800 C 344.400 263.470,344.220 263.200,344.000 263.200 C 343.780 263.200,343.600 263.470,343.600 263.800 M335.600 264.367 C 335.600 264.788,335.402 265.199,335.161 265.280 C 334.919 265.360,334.798 265.870,334.890 266.413 C 335.047 267.329,335.081 267.342,335.359 266.600 C 335.524 266.160,335.825 265.487,336.029 265.105 C 336.512 264.201,336.500 263.600,336.000 263.600 C 335.780 263.600,335.600 263.945,335.600 264.367 M36.400 266.200 C 36.400 267.190,36.580 268.000,36.800 268.000 C 37.020 268.000,37.200 267.190,37.200 266.200 C 37.200 265.210,37.020 264.400,36.800 264.400 C 36.580 264.400,36.400 265.210,36.400 266.200 M344.400 265.400 C 344.400 265.730,344.580 266.000,344.800 266.000 C 345.020 266.000,345.200 265.730,345.200 265.400 C 345.200 265.070,345.020 264.800,344.800 264.800 C 344.580 264.800,344.400 265.070,344.400 265.400 M70.800 266.000 C 70.800 266.440,70.980 266.800,71.200 266.800 C 71.420 266.800,71.600 266.440,71.600 266.000 C 71.600 265.560,71.420 265.200,71.200 265.200 C 70.980 265.200,70.800 265.560,70.800 266.000 M345.200 267.000 C 345.200 267.330,345.380 267.600,345.600 267.600 C 345.820 267.600,346.000 267.330,346.000 267.000 C 346.000 266.670,345.820 266.400,345.600 266.400 C 345.380 266.400,345.200 266.670,345.200 267.000 M71.600 268.176 C 71.600 268.493,71.780 268.864,72.000 269.000 C 72.220 269.136,72.400 268.877,72.400 268.424 C 72.400 267.971,72.220 267.600,72.000 267.600 C 71.780 267.600,71.600 267.859,71.600 268.176 M346.286 267.884 C 346.114 268.150,346.202 268.735,346.483 269.184 C 347.024 270.050,347.600 270.265,347.600 269.600 C 347.600 269.380,347.433 269.200,347.228 269.200 C 347.023 269.200,346.798 268.795,346.727 268.300 C 346.642 267.699,346.495 267.561,346.286 267.884 M371.600 269.800 C 371.600 270.130,371.780 270.400,372.000 270.400 C 372.220 270.400,372.400 270.130,372.400 269.800 C 372.400 269.470,372.220 269.200,372.000 269.200 C 371.780 269.200,371.600 269.470,371.600 269.800 M58.460 271.442 C 57.731 272.266,58.200 272.657,58.981 271.876 C 59.321 271.536,59.600 271.154,59.600 271.029 C 59.600 270.609,59.006 270.824,58.460 271.442 M73.200 271.976 C 73.200 272.403,73.380 272.864,73.600 273.000 C 73.827 273.140,74.000 272.804,74.000 272.224 C 74.000 271.661,73.820 271.200,73.600 271.200 C 73.380 271.200,73.200 271.549,73.200 271.976 M332.400 272.600 C 332.400 272.930,332.580 273.200,332.800 273.200 C 333.020 273.200,333.200 272.930,333.200 272.600 C 333.200 272.270,333.020 272.000,332.800 272.000 C 332.580 272.000,332.400 272.270,332.400 272.600 M36.400 273.600 C 36.400 274.040,36.580 274.400,36.800 274.400 C 37.020 274.400,37.200 274.040,37.200 273.600 C 37.200 273.160,37.020 272.800,36.800 272.800 C 36.580 272.800,36.400 273.160,36.400 273.600 M74.000 274.125 C 74.000 274.496,74.180 274.800,74.400 274.800 C 74.620 274.800,74.800 275.160,74.800 275.600 C 74.800 276.040,74.980 276.400,75.200 276.400 C 75.872 276.400,75.646 275.216,74.800 274.308 C 74.122 273.580,74.000 273.552,74.000 274.125 M350.000 275.029 C 350.000 275.453,351.236 276.497,351.467 276.267 C 351.592 276.141,351.417 275.760,351.076 275.419 C 350.441 274.784,350.000 274.624,350.000 275.029 M55.260 276.242 C 54.531 277.066,55.000 277.457,55.781 276.676 C 56.121 276.336,56.400 275.954,56.400 275.829 C 56.400 275.409,55.806 275.624,55.260 276.242 M75.600 277.400 C 75.600 277.730,75.780 278.000,76.000 278.000 C 76.220 278.000,76.400 277.730,76.400 277.400 C 76.400 277.070,76.220 276.800,76.000 276.800 C 75.780 276.800,75.600 277.070,75.600 277.400 M37.200 278.200 C 37.200 278.530,37.380 278.800,37.600 278.800 C 37.820 278.800,38.000 278.530,38.000 278.200 C 38.000 277.870,37.820 277.600,37.600 277.600 C 37.380 277.600,37.200 277.870,37.200 278.200 M76.400 279.000 C 76.400 279.330,76.580 279.600,76.800 279.600 C 77.020 279.600,77.200 279.330,77.200 279.000 C 77.200 278.670,77.020 278.400,76.800 278.400 C 76.580 278.400,76.400 278.670,76.400 279.000 M78.000 282.200 C 78.000 282.530,78.180 282.800,78.400 282.800 C 78.620 282.800,78.800 283.083,78.800 283.429 C 78.800 284.220,79.943 285.397,80.319 284.993 C 80.474 284.827,80.375 284.610,80.100 284.512 C 79.825 284.414,79.600 283.988,79.600 283.567 C 79.600 283.145,79.420 282.800,79.200 282.800 C 78.980 282.800,78.800 282.530,78.800 282.200 C 78.800 281.870,78.620 281.600,78.400 281.600 C 78.180 281.600,78.000 281.870,78.000 282.200 M44.800 282.400 C 44.800 282.620,45.070 282.800,45.400 282.800 C 45.730 282.800,46.000 282.620,46.000 282.400 C 46.000 282.180,45.730 282.000,45.400 282.000 C 45.070 282.000,44.800 282.180,44.800 282.400 M326.000 285.400 C 326.000 285.730,326.180 286.000,326.400 286.000 C 326.620 286.000,326.800 285.730,326.800 285.400 C 326.800 285.070,326.620 284.800,326.400 284.800 C 326.180 284.800,326.000 285.070,326.000 285.400 M83.613 291.500 C 83.640 292.133,84.806 293.326,85.096 293.016 C 85.263 292.837,85.175 292.610,84.900 292.512 C 84.625 292.414,84.400 292.078,84.400 291.767 C 84.400 291.455,84.220 291.200,84.000 291.200 C 83.780 291.200,83.606 291.335,83.613 291.500 M320.860 293.842 C 320.131 294.666,320.600 295.057,321.381 294.276 C 321.721 293.936,322.000 293.554,322.000 293.429 C 322.000 293.009,321.406 293.224,320.860 293.842 M85.200 294.229 C 85.200 294.653,86.436 295.697,86.667 295.467 C 86.792 295.341,86.617 294.960,86.276 294.619 C 85.641 293.984,85.200 293.824,85.200 294.229 M87.478 297.177 C 87.596 297.630,87.852 298.000,88.047 298.000 C 88.586 298.000,88.468 297.354,87.831 296.826 C 87.365 296.439,87.302 296.502,87.478 297.177 M89.200 299.829 C 89.200 299.954,89.479 300.336,89.819 300.676 C 90.589 301.447,91.099 301.043,90.408 300.210 C 89.909 299.608,89.200 299.384,89.200 299.829 M316.060 301.042 C 315.331 301.866,315.800 302.257,316.581 301.476 C 316.921 301.136,317.200 300.754,317.200 300.629 C 317.200 300.209,316.606 300.424,316.060 301.042 M91.600 303.018 C 91.600 303.418,93.645 305.288,93.854 305.079 C 94.104 304.830,92.389 302.800,91.928 302.800 C 91.748 302.800,91.600 302.898,91.600 303.018 M306.000 312.773 C 306.000 312.978,305.603 313.272,305.119 313.426 C 304.089 313.753,303.200 314.561,303.200 315.171 C 303.200 315.407,303.560 315.240,304.000 314.800 C 304.440 314.360,304.993 314.000,305.229 314.000 C 305.678 314.000,306.800 313.021,306.800 312.629 C 306.800 312.503,306.620 312.400,306.400 312.400 C 306.180 312.400,306.000 312.568,306.000 312.773 M102.000 313.600 C 102.000 313.820,102.146 314.000,102.325 314.000 C 102.503 314.000,103.055 314.378,103.551 314.840 C 104.047 315.302,104.576 315.557,104.726 315.406 C 104.877 315.255,104.495 314.697,103.878 314.166 C 102.692 313.145,102.000 312.937,102.000 313.600 M285.200 326.400 C 285.200 326.620,285.560 326.800,286.000 326.800 C 286.440 326.800,286.800 326.620,286.800 326.400 C 286.800 326.180,286.440 326.000,286.000 326.000 C 285.560 326.000,285.200 326.180,285.200 326.400 M290.426 330.569 C 290.039 331.035,290.102 331.098,290.777 330.922 C 291.230 330.804,291.600 330.548,291.600 330.353 C 291.600 329.814,290.954 329.932,290.426 330.569 " stroke="none" fill="#98979d" fill-rule="evenodd"></path></g></svg>