<svg width="240" height="240" viewBox="0 0 240 240" fill="none" xmlns="http://www.w3.org/2000/svg">
<g clip-path="url(#clip0_6308_3032)">
<circle cx="120" cy="120" r="120" fill="black"/>
<path d="M211.926 112.656C226.201 129.6 186.306 136.299 183.122 146.292C179.784 156.757 195.07 177.72 187.053 186.461C177.873 196.476 156.119 179.477 145.775 183.606C135.024 187.889 128.26 228.925 110.69 210.06C104.98 203.932 100.17 187.482 93.7129 184.221C82.0838 178.335 56.1791 199.77 49.5025 183.408C45.7579 174.239 58.7157 155.45 55.3555 146.852C50.3151 133.949 19.2712 134.015 25.0144 115.544C27.6718 107.001 51.3034 102.905 55.048 92.8242C59.0232 82.1065 38.7629 54.8511 56.3438 50.2281C69.2577 46.8349 86.9704 64.7562 97.9077 51.1724C105.035 42.3216 108.636 21.3584 123.681 25.7839C130.906 27.9142 138.033 53.5114 145.259 55.8065C157.492 59.6829 176.588 43.8809 185.999 52.4133C195.904 61.3959 180.212 81.3049 183.177 92.5606C185.483 101.335 206.226 105.848 211.959 112.656H211.926ZM178.235 61.8023C164.564 62.4282 153.582 72.2454 139.79 65.6457C129.731 60.8359 126.151 45.8465 119.486 37.6546C111.019 46.9227 109.449 61.5387 96.6229 66.3924C83.7968 71.2461 73.5843 62.6698 60.7363 61.8023C63.1302 77.3626 74.0455 92.0994 60.0005 105.54C56.6183 108.769 36.9839 118.169 36.5666 119.465C35.9297 121.452 37.2914 120.936 37.9832 121.364C50.8971 129.304 68.3902 133.092 67.2152 152.233C66.9626 156.318 59.748 177.204 60.7363 178.192C74.6056 176.281 87.9587 166.278 101.29 175.524C110.108 181.651 112.403 195.378 120.013 202.351C127.755 188.284 133.608 169.253 153.44 171.691C156.998 172.131 177.06 179.301 178.235 178.181C173.997 161.029 163.894 144.721 181.607 131.588C183.254 130.369 203.514 120.365 202.405 118.905C192.763 113.941 175.106 107.363 172.174 95.866C169.351 84.753 175.852 72.5309 178.246 61.8023H178.235Z" fill="white"/>
<path d="M178.233 61.8025C175.839 72.5311 169.338 84.7532 172.16 95.8662C175.081 107.364 192.75 113.941 202.391 118.905C203.511 120.354 183.24 130.369 181.593 131.588C163.891 144.722 173.983 161.04 178.222 178.181C177.047 179.302 156.984 172.131 153.426 171.692C133.594 169.243 127.741 188.273 119.999 202.351C112.389 195.367 110.094 181.641 101.276 175.524C87.956 166.278 74.5918 176.282 60.7225 178.192C59.7342 177.193 66.9489 156.318 67.2015 152.233C68.3765 133.082 50.8834 129.293 37.9695 121.365C37.2776 120.936 35.905 121.452 36.5529 119.465C36.9702 118.169 56.6046 108.769 59.9868 105.541C74.0318 92.1106 63.1165 77.3629 60.7225 61.8025C73.5706 62.67 83.6623 71.2903 96.6092 66.3926C109.556 61.495 110.995 46.9339 119.472 37.6548C126.138 45.8578 129.707 60.8471 139.776 65.6459C153.569 72.2346 164.561 62.4284 178.222 61.8025H178.233ZM112.104 66.4915C44.3386 74.2442 53.5408 180.191 125.94 172.57C193.573 165.443 185.096 58.1457 112.104 66.4915Z" fill="black"/>
<path d="M112.103 66.4912C185.095 58.1455 193.573 165.443 125.94 172.57C53.5405 180.191 44.3382 74.244 112.103 66.4912ZM121.284 143.997H127.016L128.663 142.36C129.992 136.738 126.994 117.378 129.805 113.853C135.043 107.275 148.078 114.776 150.801 114.073C159.257 111.866 151.405 104.563 144.641 103.63C135.702 102.4 121.35 103.641 120.01 115.039C119.571 118.74 119.636 142.975 121.284 144.008V143.997ZM83.9365 108.044C83.3216 109.021 83.7828 111.24 84.3428 112.316C86.9563 117.29 93.7098 112.448 97.5642 112.25C101.1 112.074 108.512 115.775 109.105 109.505C109.929 100.797 85.9021 104.925 83.9475 108.044H83.9365Z" fill="white"/>
<path d="M121.286 143.997C119.639 142.975 119.573 118.729 120.012 115.028C121.352 103.63 135.704 102.389 144.643 103.619C151.396 104.552 159.259 111.854 150.803 114.062C148.08 114.775 135.045 107.264 129.807 113.842C127.007 117.367 129.994 136.727 128.665 142.349L127.018 143.986H121.286V143.997Z" fill="black"/>
<path d="M83.9406 108.044C85.9063 104.925 109.922 100.807 109.099 109.505C108.506 115.775 101.104 112.074 97.5574 112.25C93.7139 112.436 86.9495 117.29 84.336 112.316C83.7759 111.24 83.3147 109.021 83.9297 108.044H83.9406Z" fill="black"/>
</g>
<defs>
<clipPath id="clip0_6308_3032">
<rect width="240" height="240" fill="white"/>
</clipPath>
</defs>
</svg>
