<svg width="211" height="212" viewBox="0 0 211 212" fill="none" xmlns="http://www.w3.org/2000/svg">
<circle cx="105.422" cy="106.362" r="105.422" fill="#F3F3F4"/>
<path d="M111.772 134.823C93.6155 135.054 79.4863 132.542 69.0007 129.143C66.9448 128.444 62.4579 126.401 60.9577 123.815C60.1275 122.384 60.1176 118.712 60.4061 114.932C60.4875 115.195 60.5823 115.423 60.6918 115.612C62.1891 118.199 66.7035 120.235 68.7735 120.93C79.3322 124.312 93.5731 126.798 111.895 126.528C132.267 126.227 144.772 123.826 152.116 120.981C152.112 121.046 152.108 121.112 152.103 121.177C151.798 125.878 151.502 130.439 139.46 132.581C132.491 133.821 123.435 134.675 111.772 134.823Z" fill="#FF1100"/>
<path d="M111.772 141.45C93.6155 141.681 79.4863 139.169 69.0007 135.77C66.9448 135.071 62.4579 133.028 60.9577 130.442C60.1275 129.011 60.1176 125.339 60.4061 121.559C60.4875 121.822 60.5823 122.05 60.6918 122.239C62.1891 124.826 66.7035 126.862 68.7735 127.557C79.3322 130.939 93.5731 133.425 111.895 133.154C132.267 132.854 144.772 130.453 152.116 127.607C152.112 127.673 152.108 127.739 152.103 127.804C151.798 132.505 151.502 137.066 139.46 139.208C132.491 140.448 123.435 141.302 111.772 141.45Z" fill="#FDBF41"/>
<path d="M156.44 134.691C156.609 138.942 147.051 147.571 107.468 148.075C89.312 148.306 75.1827 145.794 64.6972 142.395C62.6412 141.696 58.1544 139.653 56.6541 137.067C55.8239 135.636 55.8141 131.964 56.1026 128.184C56.1839 128.447 56.2787 128.675 56.3882 128.864C57.8855 131.451 62.3999 133.487 64.47 134.182C75.0286 137.564 89.2695 140.05 107.591 139.779C139.138 139.314 151.819 133.812 155.686 129.423L156.44 134.691Z" fill="#F1ECE2"/>
<path d="M108.864 57.0919C116.168 59.7044 126.979 74.148 111.799 111.022C104.836 127.935 94.8353 139.345 84.8029 146.812C82.7815 148.256 77.4866 151.068 72.4787 150.77C70.5184 150.653 66.8155 149.426 62.5811 147.753C63.5629 148.012 64.3987 148.173 65.0451 148.212C70.053 148.513 75.3478 145.672 77.3693 144.213C87.4017 136.666 97.4021 125.137 104.365 108.045C116.898 77.2796 111.714 61.9655 105.415 56.0742L108.864 57.0919Z" fill="#FF1100"/>
<path d="M115.124 57.5118C122.427 60.1996 133.239 75.0592 118.058 112.995C111.095 130.396 101.095 142.134 91.0626 149.817C89.0411 151.302 83.7463 154.195 78.7384 153.888C76.778 153.768 73.075 152.506 68.8403 150.785C69.8223 151.051 70.6583 151.216 71.3047 151.256C76.3126 151.567 81.6075 148.643 83.6289 147.142C93.6613 139.378 103.662 127.517 110.625 109.932C123.158 78.2811 117.974 62.5258 111.675 56.4648L115.124 57.5118Z" fill="#FDBF41"/>
<path d="M120.602 61.0196C127.905 63.7074 138.716 78.567 123.536 116.503C116.573 133.904 106.573 145.642 96.5401 153.325C94.5187 154.81 89.2238 157.703 84.2159 157.396C82.2555 157.275 78.5525 156.014 74.3179 154.292C75.2999 154.559 76.1358 154.724 76.7822 154.764C81.7902 155.075 87.085 152.151 89.1064 150.65C99.1389 142.886 109.139 131.024 116.102 113.44C128.635 81.7889 123.451 66.0336 117.152 59.9727L120.602 61.0196Z" fill="#F1ECE2"/>
<path d="M62.2314 149.722C54.9281 147.013 44.1168 132.037 59.297 93.8028C66.26 76.2654 76.2605 64.4355 86.2929 56.6922C88.3143 55.1956 93.6092 52.2796 98.6171 52.5892C101.448 52.7643 107.914 55.3387 114.367 58.2429C113.703 58.3119 113.062 58.3824 112.451 58.4498C110.232 58.6942 108.396 58.8965 107.224 58.8254C102.217 58.5214 96.9217 61.3845 94.9003 62.8541C84.8679 70.4572 74.8674 82.0731 67.9044 99.2931C55.2936 130.481 60.6203 145.908 66.9718 151.762L62.2314 149.722Z" fill="#FF1100"/>
<path d="M68.4911 152.726C61.1879 149.987 50.3765 134.849 65.5568 96.1997C72.5198 78.4719 82.5203 66.5136 92.5527 58.6862C94.5741 57.1733 99.8689 54.2258 104.877 54.5387C107.063 54.6753 111.416 56.258 116.257 58.3236C114.449 57.7175 112.946 57.3319 111.919 57.2673C106.911 56.9522 101.616 59.9208 99.5951 61.4446C89.5627 69.328 79.5622 81.372 72.5992 99.2267C57.4189 138.152 68.5813 152.906 75.8845 155.664L82.1444 157.808L68.4911 152.726Z" fill="#FDBF41"/>
<path d="M74.3598 155.339C67.0566 152.572 56.2452 137.27 71.4255 98.206C78.3885 80.2879 88.3889 68.2011 98.4213 60.2896C100.443 58.7605 105.738 55.7812 110.746 56.0975C113.008 56.2405 117.592 57.9492 122.636 60.1443C120.931 59.6 119.511 59.2558 118.53 59.1926C113.522 58.8695 108.268 61.546 106.246 63.1077C96.2138 71.1873 86.2134 83.531 79.2504 101.83C66.2885 135.894 75.2716 152.595 81.7531 158.197L74.3598 155.339Z" fill="#F1ECE2"/>
<path d="M82.7207 107.413C89.0775 106.525 96.8734 105.927 106.384 105.787C124.706 105.516 138.946 108.002 149.505 111.384C151.575 112.079 156.09 114.116 157.587 116.702C157.696 116.891 157.791 117.12 157.873 117.382C158.161 113.603 158.151 109.93 157.321 108.499C155.821 105.913 151.334 103.87 149.278 103.172C138.792 99.7728 124.663 97.2602 106.507 97.4913C98.6101 97.5918 91.9082 98.0158 86.2402 98.6638C85.8572 99.5153 85.4808 100.378 85.1113 101.252C84.2389 103.317 83.442 105.374 82.7207 107.413Z" fill="#FF1100"/>
<path d="M80.1646 115.724C80.9065 112.879 81.8061 109.963 82.8637 107.011C89.2642 106.092 97.1755 105.478 106.898 105.355C125.054 105.123 139.184 107.636 149.669 111.035C151.725 111.733 156.212 113.777 157.712 116.362C158.542 117.793 158.552 121.466 158.264 125.246C158.182 124.983 158.088 124.755 157.978 124.565C156.481 121.979 151.966 119.942 149.896 119.247C139.338 115.866 125.097 113.38 106.775 113.65C95.74 113.813 87.0132 114.592 80.1646 115.724Z" fill="#FDBF41"/>
<path d="M158.723 132.066C158.655 131.877 158.579 131.708 158.495 131.563C156.995 128.977 152.508 126.934 150.452 126.236C139.966 122.837 125.837 120.324 107.681 120.555C95.2076 120.714 85.7158 121.68 78.5703 123.061C79.004 120.542 79.575 117.937 80.2835 115.272C87.1582 114.097 96.0035 113.293 107.29 113.15C125.446 112.918 139.575 115.431 150.061 118.83C152.117 119.528 156.603 121.572 158.104 124.157C158.862 125.465 158.936 128.644 158.723 132.066Z" fill="#F1ECE2"/>
<path opacity="0.3" d="M156.348 137.163C156.526 137.021 156.526 137.006 156.348 136.863C155.934 136.523 155.493 136.227 155.04 135.946C153.53 135.006 151.916 134.289 150.263 133.668C149.885 133.525 149.519 133.353 149.116 133.28C149.006 133.152 148.842 133.141 148.699 133.094C147.157 132.567 145.586 132.136 144.011 131.723C143.879 131.712 143.751 131.683 143.637 131.617C142.9 131.452 142.162 131.284 141.428 131.12C140.064 130.816 138.692 130.553 137.317 130.315C136.298 130.14 135.276 129.975 134.254 129.818C133.456 129.697 132.658 129.573 131.853 129.514C131.721 129.493 131.589 129.467 131.454 129.449C128.636 129.094 125.814 128.827 122.982 128.626C121.133 128.498 119.284 128.396 117.432 128.323C115.013 128.227 112.591 128.184 110.168 128.184C107.165 128.184 104.166 128.26 101.17 128.41C97.7069 128.582 94.2514 128.853 90.8066 129.248C90.2437 129.313 89.6737 129.35 89.118 129.474C89.004 129.441 88.8936 129.474 88.7796 129.485C86.3251 129.796 83.8813 130.18 81.4518 130.652C80.0161 130.929 78.5876 131.237 77.1698 131.584L77.1413 131.631C77.1413 131.631 76.7743 137.05 77.5866 142.34C78.9866 142.68 80.3937 142.984 81.8044 143.254C83.0655 143.496 84.3301 143.726 85.6019 143.913C87.3831 144.176 89.1679 144.443 90.9598 144.633C92.7018 144.819 94.4402 145.013 96.1858 145.145C97.2189 145.221 98.2484 145.313 99.2815 145.375C100.81 145.466 102.342 145.543 103.87 145.598C105.266 145.649 106.663 145.689 108.059 145.708C110.293 145.737 112.53 145.726 114.764 145.678C116.915 145.631 119.067 145.547 121.215 145.423C123.777 145.276 126.334 145.068 128.889 144.797C132.782 144.384 136.655 143.828 140.491 143.042C143.844 142.355 147.157 141.514 150.37 140.3C151.77 139.774 153.142 139.17 154.445 138.425C155.108 138.048 155.749 137.638 156.348 137.16V137.163Z" fill="url(#paint0_linear_488_10314)"/>
<path fill-rule="evenodd" clip-rule="evenodd" d="M77.6857 100.364C62.9683 138.506 72.6817 154.153 79.9431 157.612C79.7502 157.552 84.1007 159.952 88.144 160.147C93.9049 160.368 100.599 157.01 102.62 155.47C103.231 154.984 103.838 154.487 104.441 153.976C147.377 153.947 158.47 144.28 159.004 140.547C159.106 140.082 159.141 139.596 159.131 139.181C159.322 135.871 159.231 132.835 158.495 131.565C156.994 128.979 152.507 126.936 150.452 126.237C139.966 122.838 125.837 120.326 107.681 120.557C95.2074 120.716 85.7156 121.681 78.5701 123.062C79.7437 116.246 81.9224 108.799 85.1112 101.253C95.0511 77.7334 110.069 62.2369 120.59 65.234C120.601 65.2383 120.611 65.2426 120.621 65.247C120.629 65.25 120.636 65.2531 120.643 65.2561C128.393 68.5071 130.569 81.9466 127.103 98.4943C129.623 98.7875 132.032 99.1373 134.332 99.5347C139.825 74.7705 132.84 63.9812 126.902 61.1528C126.902 61.1528 123.03 58.8037 118.099 58.4243C112.351 57.9819 105.645 61.5616 103.623 63.1016C93.5907 71.069 84.6487 82.319 77.6857 100.364ZM156.091 136.756C150.397 140.551 137.828 144.494 113.008 145.403C116.8 140.921 120.348 135.655 123.589 129.352C134.442 130.227 143.429 132.127 150.68 134.449C151.906 134.861 154.153 135.646 156.091 136.756ZM107.559 128.852C110.288 128.812 112.928 128.833 115.478 128.909C106.057 145.71 94.3265 155.808 85.653 153.337L85.6297 153.327L85.5999 153.315C79.7412 150.857 77.0683 142.578 77.6097 131.534C84.8907 130.078 94.6437 129.043 107.559 128.852Z" fill="#007FFF"/>
<defs>
<linearGradient id="paint0_linear_488_10314" x1="119.704" y1="126.235" x2="120.443" y2="142.608" gradientUnits="userSpaceOnUse">
<stop offset="0.16" stop-color="#191919"/>
<stop offset="0.97" stop-color="#191919" stop-opacity="0"/>
</linearGradient>
</defs>
</svg>
