<svg width="240" height="240" viewBox="0 0 240 240" fill="none" xmlns="http://www.w3.org/2000/svg">
<g clip-path="url(#clip0_6304_28334)">
<circle cx="120" cy="120" r="120" fill="#0052FF"/>
<circle cx="120.055" cy="120" r="105" fill="white"/>
<path d="M119.984 32.4248L118.81 36.4159V152.229L119.984 153.401L173.743 121.624L119.984 32.4248Z" fill="#6697FF"/>
<path d="M119.984 32.4248L66.2246 121.624L119.984 153.402V97.1894V32.4248Z" fill="#0052FF"/>
<path d="M119.982 163.58L119.32 164.387V205.642L119.982 207.575L173.773 131.819L119.982 163.58Z" fill="#6697FF"/>
<path d="M119.984 207.574V163.579L66.2246 131.818L119.984 207.574Z" fill="#0052FF"/>
<path d="M119.984 153.401L173.742 121.624L119.984 97.1899V153.401Z" fill="#CCDCFF"/>
<path d="M66.2246 121.624L119.983 153.401V97.1899L66.2246 121.624Z" fill="#6697FF"/>
</g>
<defs>
<clipPath id="clip0_6304_28334">
<rect width="240" height="240" fill="white"/>
</clipPath>
</defs>
</svg>
