<svg width="32" height="32" viewBox="0 0 32 32" fill="none" xmlns="http://www.w3.org/2000/svg">
<path d="M0 16C0 7.16344 7.16344 0 16 0C24.8366 0 32 7.16344 32 16C32 24.8366 24.8366 32 16 32C7.16344 32 0 24.8366 0 16Z" fill="white"/>
<g clip-path="url(#clip0_327_466951)">
<path d="M26 16C26 21.5228 21.5228 26 16 26C10.4772 26 6 21.5228 6 16C6 10.4772 10.4772 6 16 6C21.5228 6 26 10.4772 26 16Z" fill="white"/>
<path fill-rule="evenodd" clip-rule="evenodd" d="M13.5629 11.3107L15.8438 7.25V13.0916L11.1173 15.4569L12.5642 13.0802L9.75 11.2379L10.7032 9.51694L13.5629 11.3107ZM11.1932 15.7788L15.8438 18.8828V13.4514L11.1932 15.7788ZM16.1562 13.4533V18.8828L20.8048 15.78L16.1562 13.4533ZM16.1562 13.0935L20.8845 15.4601L19.4358 13.0802L22.25 11.2379L21.2968 9.51694L18.4371 11.3107L16.1562 7.25V13.0935ZM11 16.651L15.8438 19.8841V24.75L13.3482 20.839L11.1921 22.4144L10.375 21.1295L12.463 19.5778L11 16.651ZM16.1562 19.8841V24.75L18.6518 20.839L20.8079 22.4144L21.625 21.1295L19.537 19.5778L21 16.651L16.1562 19.8841Z" fill="#353E4C"/>
<path d="M22.25 21.3125C22.25 22.8658 20.9908 24.125 19.4375 24.125C17.8842 24.125 16.625 22.8658 16.625 21.3125C16.625 19.7592 17.8842 18.5 19.4375 18.5C20.9908 18.5 22.25 19.7592 22.25 21.3125Z" fill="black"/>
<path d="M20.4706 19.9546C20.4569 20.0853 20.4081 20.1979 20.3572 20.3177C20.2754 20.3072 20.2007 20.2893 20.1231 20.2624C19.8451 20.1683 19.5199 20.1167 19.2451 20.2496C19.1571 20.3053 19.0996 20.3585 19.0536 20.4525C19.0262 20.6015 19.0366 20.705 19.1089 20.8397C19.1883 20.9299 19.271 20.9857 19.3784 21.0369C19.4015 21.0482 19.4015 21.0482 19.425 21.0598C19.5433 21.117 19.6638 21.1683 19.7849 21.2192C20.102 21.3531 20.4083 21.4985 20.5713 21.8213C20.6505 22.0436 20.6438 22.3393 20.5614 22.5589C20.4489 22.7814 20.2712 22.9108 20.0394 22.9958C19.8399 23.0535 19.6509 23.0756 19.4437 23.0738C19.417 23.0736 19.3904 23.0735 19.363 23.0734C19.1462 23.0695 18.9515 23.04 18.7458 22.9731C18.7097 22.9621 18.7097 22.9621 18.6728 22.9508C18.5598 22.912 18.5598 22.912 18.5188 22.8823C18.4827 22.7883 18.5042 22.72 18.5358 22.627C18.5437 22.603 18.5515 22.579 18.5596 22.5543C18.5731 22.5257 18.5731 22.5257 18.5869 22.4965C18.6741 22.4674 18.6939 22.4864 18.7756 22.5248C19.1224 22.6743 19.5202 22.7188 19.8806 22.5873C19.9901 22.5305 20.0567 22.4736 20.1075 22.3603C20.1261 22.2169 20.1357 22.0696 20.0621 21.9404C19.9382 21.7849 19.7802 21.7031 19.5969 21.6355C19.5568 21.62 19.5167 21.6045 19.4766 21.5889C19.4568 21.5813 19.437 21.5737 19.4166 21.5658C19.0832 21.4362 18.753 21.2946 18.5869 20.9532C18.5292 20.7363 18.5242 20.4307 18.6251 20.2284C18.7718 19.9982 18.9799 19.863 19.2418 19.7887C19.6387 19.7093 20.1205 19.7461 20.4706 19.9546Z" fill="white"/>
</g>
<path fill-rule="evenodd" clip-rule="evenodd" d="M11.8545 3.38369C13.345 2.89377 14.938 2.66977 16.5159 2.73025C18.0941 2.79073 19.6577 3.13601 21.1127 3.74401C22.5681 4.35201 23.9149 5.22305 25.0673 6.29761C26.5914 7.71937 27.7748 9.49761 28.4845 11.4867C29.1946 13.4762 29.4311 15.6765 29.1572 17.7712C28.8836 19.8659 28.0996 21.8554 26.9137 23.5661C25.7277 25.2768 24.1396 26.7085 22.2743 27.7005C20.409 28.6922 18.266 29.2438 16.1537 29.2758C14.0413 29.3078 11.9594 28.8205 10.0948 27.895C8.23047 26.9696 6.58311 25.6064 5.33223 23.9037C4.08135 22.201 3.22695 20.1587 2.88775 18.0749C2.54855 15.9907 2.72455 13.8646 3.37447 11.8813C3.86567 10.3818 4.62791 8.96417 5.60455 7.73569H4.12007V5.28193H9.93671V10.7136H7.48295V9.22945C6.68295 10.2355 6.05831 11.3968 5.65607 12.6256C5.12391 14.2512 4.98055 15.9952 5.25607 17.697C5.59847 19.8138 6.58855 21.865 8.06631 23.4458C9.83399 25.3363 12.2993 26.5542 14.8657 26.8208C17.4317 27.0874 20.0989 26.4029 22.217 24.9286C24.3351 23.4544 25.9047 21.1904 26.5418 18.6899C27.1789 16.1894 26.8836 13.4525 25.7348 11.1421C24.586 8.83169 22.5834 6.94849 20.1889 5.95905C17.7943 4.96929 15.0074 4.87393 12.6036 5.66369L11.8545 3.38369Z" fill="url(#paint0_linear_327_466951)"/>
<defs>
<linearGradient id="paint0_linear_327_466951" x1="2.04317" y1="13.2971" x2="15.2219" y2="29.5764" gradientUnits="userSpaceOnUse">
<stop stop-color="#FF1100"/>
<stop offset="0.34375" stop-color="#FDBF41"/>
<stop offset="0.692708" stop-color="#F1ECE2"/>
<stop offset="1" stop-color="#007FFF"/>
</linearGradient>
<clipPath id="clip0_327_466951">
<rect width="20" height="20" fill="white" transform="translate(6 6)"/>
</clipPath>
</defs>
</svg>
