<svg width="128" height="128" viewBox="0 0 128 128" fill="none" xmlns="http://www.w3.org/2000/svg">
<path d="M128 64C128 99.3462 99.3462 128 64 128C28.6538 128 0 99.3462 0 64C0 28.6538 28.6538 0 64 0C99.3462 0 128 28.6538 128 64Z" fill="black"/>
<path d="M98.1966 98.0209H39.0469C36.3088 98.0209 33.8582 95.1466 33.3448 91.3371L26.0923 37.2945C25.7774 34.9481 26.2771 32.8157 27.4613 31.4458C28.2725 30.5141 29.3609 30 30.528 30H91.8305C93.0763 30 94.0894 31.0179 94.0894 32.2774C94.0894 33.5368 93.0798 34.5547 91.8305 34.5547H30.7881C30.6306 34.8446 30.4184 35.583 30.5656 36.6872L37.8181 90.7298C38.0338 92.3275 38.8073 93.304 39.1256 93.473H97.933C98.0905 93.1832 98.3027 92.4448 98.1555 91.3406L91.9469 46.9837C91.7792 45.738 92.6451 44.5924 93.8807 44.4233C95.1128 44.2577 96.2525 45.1273 96.4202 46.3729L102.629 90.7298C102.944 93.0762 102.444 95.2087 101.256 96.5785C100.449 97.5102 99.3603 98.0243 98.1932 98.0243L98.1966 98.0209Z" fill="#EFEFEF"/>
<path d="M77.4886 85.8879H60.9813C57.2677 85.8879 53.7151 82.9756 52.8902 79.2594L48.7352 60.5091C48.434 59.1495 49.2828 57.8004 50.6313 57.4967C51.9798 57.1931 53.318 58.0488 53.6192 59.4083L57.7743 78.1587C58.0858 79.5631 59.6157 80.8432 60.9847 80.8432H77.492C77.7966 80.8432 78.2142 80.7776 78.4675 80.4602C78.6865 80.1842 78.7481 79.7563 78.6386 79.2594L72.1219 49.8572C71.8105 48.4528 70.2805 47.1726 68.9115 47.1726H47.7871C46.4044 47.1726 45.2852 46.0443 45.2852 44.6503C45.2852 43.2563 46.4044 42.1279 47.7871 42.1279H68.9115C72.625 42.1279 76.1777 45.0402 77.0026 48.7565L83.5192 78.1587C83.9608 80.1496 83.5432 82.1406 82.3692 83.614C81.2227 85.0598 79.4429 85.8845 77.492 85.8845L77.4886 85.8879Z" fill="#EFEFEF"/>
<path d="M92.9617 41.7879C94.2603 41.7879 95.313 40.7266 95.313 39.4174C95.313 38.1082 94.2603 37.0469 92.9617 37.0469C91.6631 37.0469 90.6104 38.1082 90.6104 39.4174C90.6104 40.7266 91.6631 41.7879 92.9617 41.7879Z" fill="#EFEFEF"/>
</svg>
