<?xml version="1.0" encoding="UTF-8" standalone="no"?>
<svg
   width="3480"
   height="3480"
   viewBox="0 0 3480 3480"
   fill="none"
   version="1.1"
   id="svg3"
   sodipodi:docname="vtao-off-site.svg"
   xml:space="preserve"
   inkscape:version="1.4.2 (ebf0e940, 2025-05-08)"
   inkscape:export-filename="vtao-solo-32.png"
   inkscape:export-xdpi="3.5311139"
   inkscape:export-ydpi="3.5311139"
   xmlns:inkscape="http://www.inkscape.org/namespaces/inkscape"
   xmlns:sodipodi="http://sodipodi.sourceforge.net/DTD/sodipodi-0.dtd"
   xmlns="http://www.w3.org/2000/svg"
   xmlns:svg="http://www.w3.org/2000/svg"><sodipodi:namedview
     id="namedview3"
     pagecolor="#ffffff"
     bordercolor="#000000"
     borderopacity="0.25"
     inkscape:showpageshadow="2"
     inkscape:pageopacity="0.0"
     inkscape:pagecheckerboard="0"
     inkscape:deskcolor="#d1d1d1"
     inkscape:zoom="0.10672773"
     inkscape:cx="1597.5229"
     inkscape:cy="1597.5229"
     inkscape:window-width="1360"
     inkscape:window-height="702"
     inkscape:window-x="0"
     inkscape:window-y="38"
     inkscape:window-maximized="0"
     inkscape:current-layer="svg3" /><path
     fill-rule="evenodd"
     clip-rule="evenodd"
     d="M1714.45 1299.34C1707.26 1299.38 1700.36 1300.24 1693.72 1301.93C1684.82 1301.23 1683.1 1304.03 1688.54 1310.35C1756.98 1344.25 1808.14 1395.42 1842.04 1463.86C1851.12 1488.1 1856.73 1513.14 1858.88 1538.99C1860.56 1566.61 1861.85 1594.24 1862.77 1621.89C1866.71 1771.71 1869.74 1921.54 1871.84 2071.39C1874.14 2164.3 1878.03 2257.14 1883.5 2349.9C1885.62 2376.84 1889.08 2403.62 1893.86 2430.21C1907.21 2483.98 1937.66 2524.79 1985.18 2552.63C2009.3 2563.11 2033.06 2574.34 2056.43 2586.31C2061.9 2589.83 2066.21 2594.36 2069.38 2599.91C2065.87 2606.86 2060.26 2611.4 2052.54 2613.51C2001.25 2630.72 1948.56 2640.87 1894.51 2643.95C1869.88 2644.04 1845.27 2643.61 1820.67 2642.66C1756.87 2638.32 1700.73 2615.65 1652.27 2574.65C1601.38 2525.32 1574.61 2465.08 1571.96 2393.94C1571.45 2382.06 1570.59 2370.4 1569.37 2358.97C1567.56 2180.2 1565.62 2001.44 1563.54 1822.68C1559.07 1671.57 1555.83 1520.44 1553.82 1369.29C1553.61 1345.11 1553.17 1320.93 1552.53 1296.75C1348.94 1295.46 1145.13 1295.03 941.105 1295.46C941.105 1293.73 941.105 1292 941.105 1290.28C951.763 1194.05 991.919 1112.65 1061.58 1046.1C1074.91 1034.24 1089.59 1024.31 1105.62 1016.3C1107.78 1015.87 1109.94 1015.44 1112.1 1015.01C1245.9 1010.25 1379.76 1008.09 1513.66 1008.53C1832.76 1007.45 2151.86 1007.67 2470.95 1009.18C2466.81 1037.05 2461.41 1064.68 2454.76 1092.08C2426.77 1174.05 2372.58 1231.26 2292.19 1263.72C2272.8 1270.94 2252.93 1276.56 2232.6 1280.56C2167.78 1290.29 2102.58 1295.04 2037 1294.81C1929.47 1295.78 1821.95 1297.29 1714.45 1299.34Z"
     fill="#88DCFD"
     id="path1" /><path
     d="M 3479.9218,1739.9609 A 1739.9609,1739.9609 0 1 1 0,1739.9609 A 1739.9609,1739.9609 0 1 1 3479.9218,1739.9609 Z M 3169.2167,1739.9609 A 1429.2558,1429.2558 0 1 0 310.7051,1739.9609 A 1429.2558,1429.2558 0 1 0 3169.2167,1739.9609 Z"
     style="fill:url(#paint0_linear_256_26)"
     id="path5"
     inkscape:export-filename="vtao-solo-full.png"
     inkscape:export-xdpi="96.002151"
     inkscape:export-ydpi="96.002151" /><defs
     id="defs3"><linearGradient
       id="paint0_linear_256_26"
       x1="1739.95"
       y1="0"
       x2="1739.95"
       y2="3479.91"
       gradientUnits="userSpaceOnUse"><stop
         stop-color="#75E8FF"
         id="stop2" /><stop
         offset="1"
         stop-color="#C1F5FF"
         id="stop3" /></linearGradient></defs><g
     style="fill:none"
     id="g10"
     transform="matrix(0.27089144,0,0,0.27089144,576.85691,1614.1271)"><circle
       cx="1381.24"
       cy="1381.23"
       r="1380.76"
       fill="#88dcfd"
       id="circle1" /><path
       d="M 1272.12,1994.13 844.963,909.508 h 277.177 l 297.27,795.392 h 6.7 l 293.25,-795.392 h 271.82 L 1564.03,1994.13 Z"
       fill="#1c1c1c"
       id="path1-7" /></g></svg>
