<svg width="32" height="32" viewBox="0 0 32 32" fill="none" xmlns="http://www.w3.org/2000/svg">
<rect width="32" height="32" rx="16" fill="white"/>
<g clip-path="url(#clip0_327_466932)">
<path d="M16 25C20.9706 25 25 20.9706 25 16C25 11.0294 20.9706 7 16 7C11.0294 7 7 11.0294 7 16C7 20.9706 11.0294 25 16 25Z" fill="white"/>
<path fill-rule="evenodd" clip-rule="evenodd" d="M13.82 18.8125H11.5V22.1292H13.8455V21.2286H12.4692V20.9087H13.7011V20.0081H12.4692V19.7131H13.82V18.8125ZM15.5429 18.8125H14.5737V20.9041C14.5737 21.1532 14.6245 21.3804 14.7342 21.5787L14.7374 21.5839C14.8502 21.7777 15.0111 21.9282 15.2152 22.0338L15.2174 22.035L15.2218 22.0372C15.4318 22.1402 15.6741 22.1875 15.9418 22.1875C16.2095 22.1875 16.451 22.1402 16.6588 22.0366L16.6597 22.0362C16.8691 21.9303 17.0329 21.7779 17.1441 21.5803C17.2573 21.3817 17.31 21.1539 17.31 20.9041V18.8125H16.3407V20.9208C16.3407 21.0579 16.3017 21.1426 16.2434 21.1998L16.2418 21.2014C16.1898 21.2538 16.1011 21.2952 15.9418 21.2952C15.7836 21.2952 15.6925 21.2547 15.637 21.2008C15.5811 21.1439 15.5429 21.0586 15.5429 20.9208V18.8125ZM17.8742 18.8125L19.4459 18.8168C19.4459 18.8168 20.5 18.8125 20.5 19.7918C20.5 20.4124 20.1615 20.579 20.1615 20.579C20.1615 20.579 20.4151 20.6383 20.4151 20.9749V22.1292H19.4459V21.0294H18.8434V22.1292H17.8742V18.8125ZM18.8434 19.7127V20.1285H19.3103C19.3103 20.1285 19.4786 20.1285 19.4761 19.9182C19.4737 19.7127 19.3103 19.7127 19.3103 19.7127H18.8434Z" fill="black"/>
<path d="M21.0625 14.6877L16.0003 9.8125L10.9375 14.6877L13.4686 17.125L16.0003 14.6877L18.5314 17.125L21.0625 14.6877Z" fill="#99999E"/>
</g>
<path fill-rule="evenodd" clip-rule="evenodd" d="M11.8545 3.38381C13.345 2.89389 14.938 2.66989 16.5159 2.73037C18.0941 2.79085 19.6577 3.13613 21.1127 3.74413C22.5681 4.35213 23.9149 5.22317 25.0673 6.29773C26.5914 7.71949 27.7748 9.49773 28.4845 11.4868C29.1946 13.4763 29.4311 15.6766 29.1572 17.7713C28.8836 19.866 28.0996 21.8555 26.9137 23.5662C25.7277 25.2769 24.1396 26.7086 22.2743 27.7006C20.409 28.6923 18.266 29.244 16.1537 29.276C14.0413 29.308 11.9594 28.8206 10.0948 27.8952C8.23047 26.9697 6.58311 25.6065 5.33223 23.9038C4.08135 22.2011 3.22695 20.1588 2.88775 18.075C2.54855 15.9908 2.72455 13.8648 3.37447 11.8814C3.86567 10.3819 4.62791 8.96429 5.60455 7.73581H4.12007V5.28205H9.93671V10.7137H7.48295V9.22957C6.68295 10.2356 6.05831 11.3969 5.65607 12.6257C5.12391 14.2513 4.98055 15.9953 5.25607 17.6971C5.59847 19.8139 6.58855 21.8651 8.06631 23.4459C9.83399 25.3364 12.2993 26.5544 14.8657 26.8209C17.4317 27.0875 20.0989 26.403 22.217 24.9288C24.3351 23.4545 25.9047 21.1905 26.5418 18.69C27.1789 16.1896 26.8836 13.4526 25.7348 11.1422C24.586 8.83181 22.5834 6.94861 20.1889 5.95917C17.7943 4.96941 15.0074 4.87405 12.6036 5.66381L11.8545 3.38381Z" fill="url(#paint0_linear_327_466932)"/>
<defs>
<linearGradient id="paint0_linear_327_466932" x1="2.04317" y1="13.2972" x2="15.2219" y2="29.5766" gradientUnits="userSpaceOnUse">
<stop stop-color="#FF1100"/>
<stop offset="0.34375" stop-color="#FDBF41"/>
<stop offset="0.692708" stop-color="#F1ECE2"/>
<stop offset="1" stop-color="#007FFF"/>
</linearGradient>
<clipPath id="clip0_327_466932">
<rect width="18" height="18" fill="white" transform="translate(7 7)"/>
</clipPath>
</defs>
</svg>
