<?xml version="1.0" encoding="UTF-8"?>
<svg id="Layer_1" xmlns="http://www.w3.org/2000/svg" viewBox="0 0 512 512">
  <defs>
    <style>
      .cls-1 {
        fill: none;
      }

      .cls-2 {
        fill: #f0fe92;
      }

      .cls-3 {
        fill: #474794;
      }
    </style>
  </defs>
  <path class="cls-1" d="M255.37,0h1.27c141.03,0,255.37,114.62,255.37,256h0c0,141.38-114.33,256-255.37,256h-1.27C114.33,512,0,397.38,0,256h0C0,114.62,114.33,0,255.37,0Z"/>
  <path class="cls-3" d="M255.37,0h1.27c141.03,0,255.37,114.62,255.37,256h0c0,141.38-114.33,256-255.37,256h-1.27C114.33,512,0,397.38,0,256h0C0,114.62,114.33,0,255.37,0Z"/>
  <path class="cls-2" d="M327.94,158.59h-79.13l28.65,28.72h38.62l42.79,42.87v.03l-43.2,43.31h-65.48l-57.6-57.75h-56.38v28.72h44.45l57.6,57.75h89.28l57.55-57.67-.03-28.72-57.11-57.25Z"/>
  <path class="cls-2" d="M127.29,302.18h79.13l-28.65-28.72h-38.62l-43.05-43.15v-.03l42.87-42.97h65.48l57.94,57.41,56.05.34v-29.05h-44.11l-57.6-57.75-89.62.34-57.21,57.36v28.72l57.39,57.51Z"/>
  <path class="cls-2" d="M155.55,331h146.31l59.31,59.48-20.23,20.3-50.95-51.07h-105.8l-28.65-28.72Z"/>
  <path class="cls-2" d="M361.04,349.98l-20.28-20.3,72.7-72.86v-53.18l-73.53-73.71h-129.68l28.65-28.72h112.9l90.31,90.54v76.96l-72.6,72.75-2.54,2.54-5.93,5.97Z"/>
</svg>