<svg version="1.2" xmlns="http://www.w3.org/2000/svg" viewBox="0 0 256 256" width="256" height="256">
	<title>logo trim fullsize</title>
	<style>
		.s0 { fill: #c574e8 } 
		.s1 { fill: #8593e8 } 
		.s2 { fill: #92d0ff } 
		.s3 { fill: #ac8aff } 
	</style>
	<g id="Background">
		<path id="Path 0" class="s0" d="m128.1 0.5c0 0 0 43.5 0 96.6 0 53.1 0 96.7 0 96.8 0.1 0.2 0.1 0.4 0.1 0.4q0.1 0.1 0.2 0c0 0 0.6-0.9 1.3-2 0.8-1 2.1-3 3.1-4.3 0.9-1.4 5.2-7.7 9.7-14.2 4.4-6.4 8.8-12.8 9.7-14.1 0.9-1.3 4.4-6.4 7.8-11.4 3.4-4.9 6.3-9.1 6.5-9.4 0.1-0.2 0.9-1.3 1.6-2.3 0.7-1.1 1.6-2.4 2-3 0.5-0.6 3.4-5 6.6-9.6 3.2-4.7 6.3-9.1 6.8-9.8 0.5-0.8 1.2-1.8 1.6-2.4 0.3-0.5 1.3-1.9 2-3 0.8-1 4.1-5.9 7.5-10.8 3.3-4.9 7.7-11.1 9.6-13.9 1.9-2.8 4.2-6 4.9-7.1 0.8-1.1 2-2.9 2.7-3.9 0.7-1 1.6-2.4 2.2-3.2 0.5-0.7 1.1-1.6 1.3-2 0.3-0.3 0.7-1 1.1-1.5 0.3-0.5 2.5-3.7 4.9-7.1 2.3-3.4 5.1-7.5 6.2-9.2 1.2-1.7 2.1-3.1 2-3.2 0-0.2-0.2-0.4-1.2-0.9-0.6-0.3-1.7-0.8-2.4-1.1-0.7-0.3-2.3-1-3.6-1.6-1.4-0.7-3.5-1.6-4.7-2.2-1.2-0.5-5-2.2-8.4-3.8-3.5-1.6-7.3-3.3-8.5-3.9-1.2-0.6-4.2-1.9-6.6-3.1-2.4-1.1-5.7-2.5-7.2-3.3-1.5-0.7-4-1.8-5.5-2.5-1.5-0.7-3.6-1.6-4.6-2.1-1.1-0.4-4-1.7-6.5-2.8-2.4-1.2-5-2.3-5.6-2.6-0.6-0.3-1.7-0.8-2.4-1.2-0.7-0.3-1.8-0.8-2.3-1.1-0.6-0.2-1.9-0.8-2.9-1.3-1-0.5-2.7-1.3-3.9-1.8-1.1-0.5-4.1-1.8-6.5-2.9-2.4-1.1-5.6-2.6-7-3.2-1.5-0.7-3.3-1.4-4-1.8-0.7-0.3-2.1-0.9-3.1-1.3-1-0.5-2.2-1.1-2.8-1.3-0.6-0.3-1.2-0.6-1.4-0.7-0.2 0-0.3 0-0.3 0.1z"/>
		<path id="Path 1" class="s1" d="m243.6 45.3c-0.2 0.3-0.9 1.2-1.6 2.2-0.6 0.9-1.5 2.1-2 2.8-0.4 0.6-1.1 1.6-1.6 2.3-0.4 0.6-1.7 2.4-2.8 4-1.1 1.6-3 4.4-4.3 6.1-1.2 1.8-3.1 4.6-4.3 6.3-1.2 1.6-2.5 3.6-2.9 4.2-0.5 0.7-4 5.7-7.7 11-3.8 5.4-9.1 12.9-11.7 16.7-2.7 3.8-8.2 11.7-12.2 17.4-4 5.7-7.6 10.8-7.9 11.3-0.3 0.5-0.8 1.2-1.1 1.6-0.3 0.4-0.9 1.2-1.2 1.7-0.4 0.6-1.1 1.6-1.6 2.3-0.5 0.6-1 1.5-1.3 1.8-0.2 0.4-0.6 0.9-0.8 1.3-0.3 0.3-0.6 0.8-0.8 1.1-0.2 0.2-7.7 11-16.7 23.8-9 12.8-16.5 23.5-16.7 23.9-0.3 0.3-0.9 1.2-1.3 1.8-0.5 0.7-1.1 1.5-1.3 1.9-0.3 0.3-0.7 0.9-0.9 1.3-0.3 0.4-0.8 1.1-1.2 1.7-0.4 0.5-2.4 3.4-4.5 6.3-2 3-4 5.8-4.3 6.2-0.3 0.4-1 1.5-1.5 2.2-0.6 0.8-1.1 1.5-1.2 1.6-0.1 0.1-0.1 4.2-0.1 22.7 0 12.4 0 22.6 0.1 22.6 0 0.1 0.2-0.1 0.4-0.4 0.1-0.3 0.9-1.7 1.6-3 0.8-1.4 1.9-3.4 2.5-4.5 0.6-1.2 1.4-2.5 1.7-3.1 0.3-0.5 0.8-1.6 1.2-2.3 0.4-0.8 1.5-2.7 2.4-4.3 0.9-1.7 5.9-10.7 11.1-20.1 5.2-9.4 9.8-17.9 10.4-18.9 0.5-0.9 1.5-2.8 2.3-4.2 0.8-1.4 12.4-22.6 25.9-47 13.4-24.4 25.4-46.1 26.5-48.2 1.2-2.1 4.7-8.4 7.8-14 3.1-5.6 5.9-10.7 6.2-11.4 0.4-0.6 2.2-3.9 4.1-7.2 1.8-3.4 4-7.3 4.7-8.7 0.8-1.4 1.8-3.3 2.4-4.3 0.5-1 1.1-2.1 1.3-2.5 0.3-0.4 1.1-1.9 1.9-3.5 0.9-1.5 1.5-2.8 1.5-2.9q0-0.1-0.1-0.1c0 0-0.2 0.2-0.4 0.5z"/>
		<path id="Path 2" class="s2" d="m12.1 45.1c0 0.2 0.8 1.8 2.5 5 1.4 2.6 4 7.3 5.7 10.3 1.7 3.1 4.1 7.5 5.4 9.8 1.2 2.3 2.7 4.8 3.1 5.7 0.5 0.8 1.6 2.8 2.4 4.3 0.8 1.5 5.2 9.3 9.6 17.3 4.4 8.1 9.4 17.2 11.1 20.2 1.6 3 3.8 6.8 4.7 8.4 0.9 1.7 5.1 9.4 9.3 17.1 4.3 7.8 8.4 15.2 9.1 16.5 0.8 1.3 2.6 4.6 4 7.2 1.5 2.7 6.3 11.5 10.7 19.5 4.5 8.1 8.6 15.5 9.1 16.5 0.6 1 4.2 7.5 8 14.5 3.8 6.9 9.3 16.8 12.1 22 2.8 5.1 5.9 10.8 6.9 12.6 0.9 1.7 1.8 3.3 1.9 3.4 0.1 0.1 0.3 0.2 0.3 0.2 0.1 0 0.1-10.2 0.1-22.7v-22.6c-0.5-0.5-1.2-1.4-1.9-2.4-0.6-1-1.4-2.1-1.7-2.5-0.2-0.3-5.7-8.1-12.1-17.3-6.5-9.2-11.9-16.9-12.1-17.2-0.2-0.3-1.6-2.4-3.2-4.6-1.6-2.2-8.5-12.2-15.5-22.1-6.9-9.9-16.3-23.3-20.8-29.8-4.5-6.5-8.6-12.3-9.1-13-0.4-0.7-1.2-1.7-1.6-2.4-0.5-0.6-3-4.2-5.6-8-2.6-3.7-7-10-9.8-14-2.8-4-6-8.5-7.1-10.1-1.1-1.6-2.6-3.7-3.2-4.5-0.6-0.9-1.4-2-1.7-2.5-0.4-0.5-0.8-1.1-1-1.5-0.3-0.3-0.6-0.8-0.9-1.2-0.2-0.4-1.7-2.4-3.2-4.6-1.6-2.2-3.4-4.8-4.1-5.9-0.7-1-1.3-1.8-1.3-1.8 0 0-0.1 0.1-0.1 0.2z"/>
		<path id="Path 3" class="s3" d="m127.4 0.6c-0.2 0-1.3 0.4-2.4 0.9-1.1 0.5-3.8 1.8-6.1 2.8-2.4 1.1-5.1 2.3-6.1 2.8-1 0.5-3 1.4-4.3 2-1.4 0.6-3.8 1.7-5.4 2.4-1.6 0.7-4 1.8-5.3 2.4-1.3 0.7-3.1 1.5-3.9 1.8-0.8 0.4-2.6 1.2-4 1.9-1.4 0.6-3.6 1.6-4.9 2.1-1.2 0.6-2.7 1.3-3.3 1.6-0.6 0.3-1.3 0.6-1.5 0.7-0.3 0.1-2.7 1.2-5.3 2.4-2.6 1.2-5.8 2.6-7 3.2-1.2 0.6-3 1.4-3.9 1.8-0.9 0.4-3.1 1.4-4.9 2.2-1.8 0.8-4.3 2-5.6 2.5-1.2 0.6-6.2 2.9-11 5.1-4.8 2.2-9.6 4.4-10.8 4.9-1.1 0.6-2.8 1.3-3.7 1.7-1.3 0.7-1.5 0.8-1.6 1.1 0 0.1 0.6 1 1.3 2 0.6 1 1.8 2.6 2.5 3.6 0.7 1 2.8 4.1 4.7 6.8 1.9 2.8 4.2 6.1 5 7.3 0.9 1.3 6.4 9.4 12.4 18 5.9 8.6 14 20.5 18 26.3 4 5.8 7.8 11.2 8.3 12.1 0.6 0.8 1.7 2.5 2.6 3.7 0.8 1.2 2.1 3 2.8 4.1 0.7 1 1.6 2.3 1.9 2.7 0.3 0.4 1.2 1.7 1.9 2.8 0.8 1.2 7.3 10.6 14.5 21.1 7.2 10.5 13.4 19.5 13.8 20 0.4 0.6 1 1.6 1.5 2.2 0.4 0.7 1.9 2.8 3.2 4.7 1.3 1.9 2.6 3.8 2.8 4.1 0.2 0.3 1.2 1.7 2.1 3.1 1 1.4 1.9 2.6 2 2.7 0.1 0.2 0.3 0.2 0.4 0.2 0.2 0 0.2 0 0.1-0.2-0.1-0.2-0.1-32.7-0.1-96.9 0-53.1-0.1-96.6-0.1-96.7-0.1 0-0.3 0-0.6 0z"/>
	</g>
</svg>
