<?xml version="1.0" encoding="UTF-8" standalone="no"?>
<!-- Created with Inkscape (http://www.inkscape.org/) -->

<svg
   version="1.1"
   id="svg1"
   width="1080"
   height="1080"
   viewBox="0 0 1080 1080"
   xmlns="http://www.w3.org/2000/svg"
   xmlns:svg="http://www.w3.org/2000/svg">
  <defs
     id="defs1" />
  <g
     id="g1">
    <path
       style="fill:#000000"
       d="M 506.27205,1077.9274 C 460.85774,1075.0326 412.52655,1065.5519 369,1050.9999 342.39744,1042.106 325.4191,1035.0472 299,1021.8973 259.42641,1002.1998 226.43891,980.64524 191.94452,951.94542 175.936,938.62612 140.37388,903.064 127.05458,887.05548 82.631651,833.66344 50.735393,777.13652 28.901956,713.10824 -25.207677,554.42748 -2.219122,379.32693 91.015265,240 111.45534,209.45491 130.58585,186.32274 158.4543,158.4543 202.22855,114.68004 244.35315,84.302766 299,57.102703 c 26.4191,-13.149912 43.39744,-20.20868 70,-29.102595 111.10113,-37.1439471 230.89887,-37.1439471 342,0 26.60256,8.893915 43.5809,15.952683 70,29.102595 39.57359,19.697461 72.56109,41.252054 107.05548,69.951877 16.00852,13.3193 51.57064,48.88142 64.88994,64.88994 44.42293,53.39204 76.31918,109.91896 98.15258,173.94724 54.1097,158.68076 31.1211,333.78131 -62.11326,473.10824 -20.44008,30.54509 -39.57059,53.67726 -67.43904,81.5457 -43.77425,43.77426 -85.89885,74.15153 -140.5457,101.3516 -26.4191,13.1499 -43.39744,20.2087 -70,29.1026 -65.30048,21.8316 -136.90961,31.2502 -204.72795,26.9275 z M 730,771.45996 c -18.38084,-1.63578 -25.79682,-2.83762 -39.55485,-6.41032 C 618.38125,746.33598 560.01399,691.02524 537.90758,620.5 531.3377,599.54035 529.11892,585.39805 527.94511,557 526.90815,531.91296 524.69543,514.9473 520.38054,499 504.13845,438.97131 463.65964,388.79087 409.20305,361.17638 378.57623,345.64577 351.16067,338.54565 317,337.29752 c -61.96556,-2.26405 -120.17038,21.21975 -163.71226,66.05271 -35.2016,36.24539 -53.967357,76.04015 -60.803301,128.9398 -1.197057,9.26337 -0.600388,41.03734 0.980426,52.20997 11.120605,78.59649 62.770885,144.01002 136.975235,173.47506 16.69476,6.62914 40.76035,12.24984 59.5599,13.91064 5.225,0.4616 109.625,0.84498 232,0.85196 188.47728,0.0108 220.28279,-0.18462 208,-1.2777 z M 291,669.40221 C 261.82056,664.13857 241.26123,653.50925 222.71732,634.09955 201.98091,612.39499 191,585.02545 191,555.04523 c 0,-45.51459 25.64262,-85.61785 67.11104,-104.95699 14.58681,-6.80268 25.10083,-9.19263 43.16704,-9.81235 17.50998,-0.60064 26.33694,0.39956 39.22192,4.44431 10.00899,3.14194 23.96798,10.02946 32.48435,16.02813 15.25147,10.74266 31.28832,30.29452 38.49555,46.93312 14.29845,33.00941 13.44505,66.86371 -2.491,98.81855 -15.18867,30.45619 -41.2586,51.40405 -74.93833,60.21487 -7.75968,2.02998 -12.45707,2.55847 -25.05057,2.8184 -8.525,0.17595 -16.625,0.11698 -18,-0.13106 z m 498.5,91.27706 c 70.29309,-11.45315 130.31132,-55.48476 161.45188,-118.4471 36.56561,-73.93114 28.88307,-160.34766 -20.16692,-226.8462 -9.90004,-13.42178 -30.99802,-34.62821 -44.07572,-44.30227 -35.04283,-25.92248 -73.51753,-40.11545 -116.74638,-43.06667 -17.39203,-1.18734 -448.4308,-1.15534 -439.46286,0.0326 3.3,0.43715 10.9057,1.30596 16.90156,1.93069 13.25224,1.38082 37.69564,7.42842 50.59844,12.5187 52.10387,20.55547 92.66382,57.65036 116.99598,107.00095 8.15405,16.53809 13.99202,33.05469 17.4114,49.25986 3.30463,15.66132 4.36991,25.34808 5.08513,46.24014 0.68061,19.88111 1.72657,29.94503 4.55399,43.81718 8.98646,44.09027 29.38357,80.98595 62.59406,113.22443 35.56632,34.52536 77.58534,53.97587 130.35944,60.34308 7.47962,0.90242 45.86696,-0.2988 54.5,-1.70542 z M 745.51246,659.89328 c -24.64972,-2.59439 -49.60208,-14.82254 -68.02499,-33.3363 -14.53042,-14.60209 -24.58592,-31.9532 -30.20207,-52.11475 -2.57848,-9.25653 -2.7699,-11.25263 -2.7755,-28.94223 -0.005,-16.73782 0.26889,-20.01203 2.3028,-27.5 5.49235,-20.22035 14.3108,-36.38923 27.6873,-50.76544 40.88639,-43.94209 107.75194,-49.58475 155.16876,-13.09439 7.6654,5.89902 20.22252,19.39914 25.44874,27.35983 13.01171,19.81974 18.8825,39.71809 18.8825,64 0,14.51569 -1.83539,26.04106 -6.04735,37.97444 -14.78419,41.88677 -52.93759,71.96082 -97.03376,76.48594 -11.25797,1.15529 -13.85753,1.14842 -25.40643,-0.0671 z M 323.25,327.33772 c -0.6875,-0.27741 -1.8125,-0.27741 -2.5,0 -0.6875,0.27741 -0.125,0.50439 1.25,0.50439 1.375,0 1.9375,-0.22698 1.25,-0.50439 z"
       id="path1" />
    <path
       style="fill:#ffffff;stroke-width:3.61204"
       d="M 259.03936,763.87912 C 186.34977,744.83453 129.57695,692.88996 104.47556,622.46024 87.593796,575.09323 92.053566,509.07092 115.28472,462.44164 182.38697,327.75489 355.5265,297.76844 460.75708,402.60848 c 41.55804,41.4038 59.50764,83.21311 65.05233,151.52381 1.86851,23.01988 5.97157,50.79413 9.11791,61.72055 20.33243,70.60919 80.91534,131.03785 150.00127,149.61927 17.55004,4.72028 -0.74613,5.22676 -190.07909,5.26187 -194.62577,0.0361 -211.36624,-0.45057 -235.81014,-6.85486 z m 99.55605,-104.85095 c 70.63239,-35.29542 86.23729,-129.45757 30.84824,-186.14254 -24.0374,-24.59979 -44.00024,-32.22468 -84.22626,-32.17059 -28.7216,0.0386 -36.84294,1.38873 -49.82831,8.28353 -23.85771,12.66767 -42.86831,31.8161 -53.91027,54.30114 -8.73343,17.78412 -10.03635,24.67856 -10.00742,52.95447 0.0289,28.24876 1.30426,34.92573 9.73331,50.95721 11.88789,22.60997 41.14438,49.58298 61.66,56.84743 8.39432,2.97237 28.41247,5.53263 44.4848,5.68946 25.66434,0.25045 31.90395,-1.05482 51.24591,-10.72011 z"
       id="path2" />
    <path
       style="fill:#ffffff;stroke-width:3.61204"
       d="M 704.84797,754.6077 C 661.25598,744.05589 618.73517,717.13315 588.97101,681.23833 557.59329,643.3976 544.6186,607.82641 539.60284,545.89134 c -4.27242,-52.7563 -15.16801,-87.8405 -37.89701,-122.02979 -27.17832,-40.88204 -67.91554,-72.06234 -112.98728,-86.48057 -20.03631,-6.40952 -17.68906,-6.49258 187.40185,-6.63167 172.83576,-0.11722 211.57012,0.77322 230.79813,5.30566 72.71665,17.14081 135.71551,79.11171 157.66476,155.09214 8.24206,28.53102 8.24206,80.01088 0,108.5419 -22.1357,76.62586 -82.75552,135.8037 -158.95422,155.17309 -26.43789,6.72038 -72.4464,6.60425 -100.7811,-0.2544 z M 807.9433,651.16002 c 24.14479,-11.05385 43.01788,-29.30931 56.23134,-54.39112 8.75765,-16.62383 9.9049,-22.67024 9.74341,-51.35084 -0.21362,-37.93502 -7.60125,-57.23699 -31.22284,-81.57744 -22.52403,-23.20947 -49.23568,-34.00149 -84.16678,-34.00497 -24.2671,-0.002 -32.16078,1.60026 -49.27367,10.00417 -23.98342,11.77793 -47.71807,36.16069 -58.14519,59.73294 -10.32429,23.33977 -10.36607,68.25638 -0.0851,91.49821 13.53289,30.59332 42.037,56.18279 74.36054,66.75686 22.14058,7.24291 58.60636,4.29775 82.5583,-6.66781 z"
       id="path3" />
    <path
       style="fill:#ffffff;stroke-width:3.61204"
       d="M 259.03936,763.87912 C 147.33516,734.61271 77.938929,629.30211 97.295304,518.42826 111.06565,439.55132 169.94138,372.73174 247.42475,348.04249 c 31.09482,-9.90804 86.63628,-10.66799 117.3913,-1.60622 72.25514,21.28951 131.31157,78.4138 151.56594,146.60721 3.24531,10.92642 7.4585,38.55853 9.36262,61.40468 3.87023,46.43554 10.04285,71.32588 25.07117,101.09681 25.76414,51.03849 79.94359,95.33189 134.62139,110.05731 16.86664,4.5424 -3.73359,5.09706 -190.58767,5.1317 -194.62577,0.0361 -211.36624,-0.45057 -235.81014,-6.85486 z M 362.35572,657.43189 c 38.49283,-21.01671 59.77771,-57.82163 59.77771,-103.36512 0,-32.96259 -10.31752,-57.65759 -34.14295,-81.72119 -24.58474,-24.83051 -42.48439,-31.67842 -82.77309,-31.6667 -28.82976,0.008 -36.79404,1.33238 -49.82831,8.28353 -39.94461,21.30239 -62.14001,55.32853 -64.86757,99.4437 -2.96065,47.88518 22.14233,90.43669 65.78752,111.51501 20.06569,9.69065 24.42905,10.43509 54.32642,9.26862 27.65065,-1.07882 35.37919,-2.83579 51.72027,-11.75785 z"
       id="path4" />
    <path
       style="fill:#ffffff;stroke-width:3.61204"
       d="M 706.15385,754.89013 C 665.96852,745.09478 634.84886,727.68507 604.09062,697.7915 564.4833,659.29759 545.34631,614.77331 539.71656,548.01833 535.51654,498.21639 529.42857,474.59565 512.41875,442.1056 487.70178,394.89426 444.10376,357.35985 393.0587,339.34614 l -24.63061,-8.6921 207.69231,-0.0228 c 172.53271,-0.0189 211.60382,0.89923 230.79813,5.42372 72.71665,17.14081 135.71551,79.11171 157.66476,155.09214 8.24206,28.53102 8.24206,80.01088 0,108.5419 -22.1357,76.62586 -82.75552,135.8037 -158.95422,155.17309 -26.03739,6.61859 -72.38388,6.63163 -99.47522,0.028 z m 100.329,-102.96265 c 21.67823,-9.55942 45.67406,-32.75247 57.87713,-55.94086 8.22262,-15.62464 9.50436,-22.4442 9.50436,-50.56856 0,-28.15526 -1.27578,-34.92675 -9.52734,-50.56856 -13.01046,-24.66294 -33.32168,-44.47963 -57.04603,-55.65703 -28.88707,-13.60975 -69.40474,-13.3234 -98.05317,0.69298 -23.95045,11.71786 -47.69339,36.09762 -58.12823,59.68731 -10.32429,23.33977 -10.36607,68.25638 -0.0851,91.49821 8.72452,19.72322 29.05671,43.1453 47.17277,54.34164 30.09416,18.59922 74.78423,21.28794 108.28562,6.51487 z"
       id="path5" />
  </g>
</svg>
