<svg width="48" height="48" viewBox="0 0 48 48" fill="none" xmlns="http://www.w3.org/2000/svg">
<path d="M24 0.5C36.9787 0.5 47.5 11.0213 47.5 24C47.5 36.9787 36.9787 47.5 24 47.5C11.0213 47.5 0.5 36.9787 0.5 24C0.5 11.0213 11.0213 0.5 24 0.5Z" stroke="#E7E5E4" style="stroke:#E7E5E4;stroke:color(display-p3 0.9059 0.8980 0.8941);stroke-opacity:1;"/>
<mask id="mask0_1842_9334" style="mask-type:alpha" maskUnits="userSpaceOnUse" x="4" y="4" width="40" height="40">
<path d="M24 4C35.0457 4 44 12.9543 44 24C44 25.1862 43.8953 26.3481 43.6973 27.4775C42.0216 26.5885 40.1111 26.083 38.082 26.083C31.4547 26.083 26.0822 31.4557 26.082 38.083C26.082 40.1117 26.5878 42.0218 27.4766 43.6973C26.3474 43.8952 25.1859 44 24 44C12.9543 44 4 35.0457 4 24C4 12.9543 12.9543 4 24 4Z" fill="#D9D9D9" style="fill:#D9D9D9;fill:color(display-p3 0.8510 0.8510 0.8510);fill-opacity:1;"/>
</mask>
<g mask="url(#mask0_1842_9334)">
<g clip-path="url(#clip0_1842_9334)">
<path fill-rule="evenodd" clip-rule="evenodd" d="M4.85938 24C4.85938 34.5542 13.4458 43.1406 24 43.1406C34.5542 43.1406 43.1406 34.5542 43.1406 24C43.1406 13.4458 34.5542 4.85938 24 4.85938C13.4458 4.85938 4.85938 13.4458 4.85938 24Z" fill="#F4B728" style="fill:#F4B728;fill:color(display-p3 0.9569 0.7176 0.1569);fill-opacity:1;"/>
<path fill-rule="evenodd" clip-rule="evenodd" d="M17.3601 15.3281H21.9695V11.9688H25.9539V15.25H30.9539C30.9539 15.25 30.9677 17.2506 30.9539 18.1406C30.99 19.3676 30.407 20.0156 30.407 20.0156L22.8289 28.6094H30.8758V32.5938H25.8758L26.1101 36.0312H21.8914V32.6719H17.0476C17.0476 32.6719 16.9597 30.3287 16.9695 29.7031C16.9781 28.56 17.5164 27.9844 17.5164 27.9844L25.0164 19.3906H17.3601V15.3281Z" fill="white" style="fill:white;fill-opacity:1;"/>
</g>
</g>
<rect x="28" y="28" width="20" height="20" rx="10" fill="#1C1917" style="fill:#1C1917;fill:color(display-p3 0.1098 0.0980 0.0902);fill-opacity:1;"/>
<path d="M38.04 43.0498C38.5336 43.05 38.9344 43.455 38.9346 43.9551C38.9346 44.4553 38.5338 44.8601 38.04 44.8604C37.5461 44.8604 37.1445 44.4555 37.1445 43.9551C37.1447 43.4548 37.5462 43.0498 38.04 43.0498ZM35.9453 42.6426C36.4391 42.6427 36.8398 43.0475 36.8398 43.5479C36.8397 44.0481 36.439 44.453 35.9453 44.4531C35.4515 44.4531 35.0499 44.0481 35.0498 43.5479C35.0498 43.0475 35.4514 42.6426 35.9453 42.6426ZM40.1309 42.6172C40.6246 42.6173 41.0253 43.0222 41.0254 43.5225C41.0254 44.0228 40.6247 44.4276 40.1309 44.4277C39.637 44.4277 39.2354 44.0229 39.2354 43.5225C39.2355 43.0222 39.637 42.6172 40.1309 42.6172ZM34.1631 41.457C34.657 41.457 35.0585 41.8619 35.0586 42.3623C35.0586 42.8627 34.657 43.2676 34.1631 43.2676C33.6693 43.2674 33.2686 42.8626 33.2686 42.3623C33.2686 41.862 33.6693 41.4572 34.1631 41.457ZM41.8916 41.3994C42.3853 41.3996 42.7861 41.8044 42.7861 42.3047C42.786 42.8048 42.3852 43.2097 41.8916 43.21C41.3978 43.21 40.9963 42.8049 40.9961 42.3047C40.9961 41.8043 41.3977 41.3994 41.8916 41.3994ZM38.0723 40.6807C38.5661 40.6808 38.9668 41.0856 38.9668 41.5859C38.9668 42.0862 38.5661 42.4911 38.0723 42.4912C37.5784 42.4912 37.1768 42.0863 37.1768 41.5859C37.1768 41.0855 37.5784 40.6807 38.0723 40.6807ZM35.9971 39.8809C36.491 39.8809 36.8926 40.2858 36.8926 40.7861C36.8924 41.2864 36.4908 41.6914 35.9971 41.6914C35.5033 41.6914 35.1017 41.2864 35.1016 40.7861C35.1016 40.2857 35.5032 39.8809 35.9971 39.8809ZM40.124 39.8086C40.6179 39.8086 41.0195 40.2135 41.0195 40.7139C41.0195 41.2143 40.6179 41.6191 40.124 41.6191C39.6301 41.6191 39.2285 41.2142 39.2285 40.7139C39.2286 40.2135 39.6302 39.8086 40.124 39.8086ZM32.9668 39.6709C33.4606 39.6709 33.8621 40.076 33.8623 40.5762C33.8623 41.0766 33.4607 41.4814 32.9668 41.4814C32.473 41.4813 32.0723 41.0765 32.0723 40.5762C32.0725 40.0761 32.4732 39.6711 32.9668 39.6709ZM43.0566 39.5947C43.5505 39.5948 43.9521 39.9996 43.9521 40.5C43.952 41.0003 43.5504 41.4052 43.0566 41.4053C42.5628 41.4053 42.1613 41.0003 42.1611 40.5C42.1611 39.9996 42.5627 39.5947 43.0566 39.5947ZM35.0439 37.8584C35.5379 37.8584 35.9395 38.2633 35.9395 38.7637C35.9393 39.2639 35.5378 39.6689 35.0439 39.6689C34.5503 39.6687 34.1496 39.2638 34.1494 38.7637C34.1494 38.2634 34.5502 37.8586 35.0439 37.8584ZM41 37.7422C41.4939 37.7422 41.8955 38.1471 41.8955 38.6475C41.8953 39.1477 41.4938 39.5527 41 39.5527C40.5064 39.5525 40.1056 39.1476 40.1055 38.6475C40.1055 38.1472 40.5063 37.7424 41 37.7422ZM32.5439 37.5566C33.0378 37.5566 33.4395 37.9615 33.4395 38.4619C33.4395 38.9623 33.0379 39.3672 32.5439 39.3672C32.0503 39.3669 31.6494 38.9621 31.6494 38.4619C31.6494 37.9617 32.0503 37.5569 32.5439 37.5566ZM43.458 37.4766C43.9518 37.4767 44.3525 37.8816 44.3525 38.3818C44.3524 38.882 43.9517 39.2869 43.458 39.2871C42.9642 39.2871 42.5627 38.8821 42.5625 38.3818C42.5625 37.8814 42.9641 37.4766 43.458 37.4766ZM35.0176 35.5586C35.5115 35.5586 35.9131 35.9635 35.9131 36.4639C35.9129 36.9641 35.5114 37.3691 35.0176 37.3691C34.524 37.3689 34.1232 36.964 34.123 36.4639C34.123 35.9636 34.5238 35.5588 35.0176 35.5586ZM41.0107 35.4414C41.5046 35.4414 41.9062 35.8463 41.9062 36.3467C41.9061 36.8469 41.5045 37.252 41.0107 37.252C40.5172 37.2517 40.1164 36.8468 40.1162 36.3467C40.1162 35.8464 40.517 35.4416 41.0107 35.4414ZM32.543 35.3887C33.0367 35.3889 33.4375 35.7937 33.4375 36.2939C33.4373 36.794 33.0365 37.199 32.543 37.1992C32.0492 37.1992 31.6477 36.7942 31.6475 36.2939C31.6475 35.7935 32.0491 35.3887 32.543 35.3887ZM43.458 35.3076C43.9517 35.3078 44.3524 35.7127 44.3525 36.2129C44.3525 36.7132 43.9518 37.118 43.458 37.1182C42.9641 37.1182 42.5625 36.7133 42.5625 36.2129C42.5627 35.7126 42.9642 35.3076 43.458 35.3076ZM35.0176 33.2568C35.5115 33.2568 35.9131 33.6617 35.9131 34.1621C35.913 34.6625 35.5115 35.0674 35.0176 35.0674C34.5239 35.0672 34.1231 34.6623 34.123 34.1621C34.123 33.6618 34.5238 33.257 35.0176 33.2568ZM32.543 33.2197C33.0366 33.22 33.4374 33.6248 33.4375 34.125C33.4375 34.6252 33.0367 35.03 32.543 35.0303C32.0491 35.0303 31.6475 34.6254 31.6475 34.125C31.6475 33.6247 32.0491 33.2197 32.543 33.2197ZM41.0107 33.1396C41.5046 33.1396 41.9062 33.5445 41.9062 34.0449C41.9062 34.5453 41.5046 34.9502 41.0107 34.9502C40.5171 34.95 40.1163 34.5451 40.1162 34.0449C40.1162 33.5447 40.517 33.1399 41.0107 33.1396ZM43.458 33.1396C43.9518 33.1398 44.3525 33.5446 44.3525 34.0449C44.3525 34.5451 43.9517 34.95 43.458 34.9502C42.9641 34.9502 42.5626 34.5453 42.5625 34.0449C42.5625 33.5445 42.9641 33.1396 43.458 33.1396Z" fill="url(#paint0_linear_1842_9334)" stroke="#E7E5E4" style="stroke:#E7E5E4;stroke:color(display-p3 0.9059 0.8980 0.8941);stroke-opacity:1;" stroke-width="0.0916667"/>
<defs>
<linearGradient id="paint0_linear_1842_9334" x1="38.0001" y1="33.0938" x2="38.0001" y2="44.9064" gradientUnits="userSpaceOnUse">
<stop stop-color="#D6D3D1" style="stop-color:#D6D3D1;stop-color:color(display-p3 0.8392 0.8275 0.8196);stop-opacity:1;"/>
<stop offset="1" stop-color="#A8A29E" style="stop-color:#A8A29E;stop-color:color(display-p3 0.6588 0.6353 0.6196);stop-opacity:1;"/>
</linearGradient>
<clipPath id="clip0_1842_9334">
<rect width="40" height="40" fill="white" style="fill:white;fill-opacity:1;" transform="translate(4 4)"/>
</clipPath>
</defs>
</svg>
