<svg width="32" height="32" viewBox="0 0 32 32" fill="none" xmlns="http://www.w3.org/2000/svg">
<circle cx="16" cy="16" r="16" fill="#0158FF"/>
<circle cx="16" cy="16" r="14" fill="#94FE63"/>
<circle cx="16" cy="16" r="12" fill="#F4F605"/>
<circle cx="16" cy="16" r="10" fill="#FB9F01"/>
<circle cx="16" cy="16" r="8" fill="#FF2001"/>
<circle cx="16" cy="16" r="6" fill="#FF2001"/>
<circle cx="16" cy="16" r="4" fill="#FF2001"/>
<path d="M14.0465 17.8235C14.0465 17.7023 14.0317 17.5936 14.002 17.4973C13.9724 17.3975 13.9175 17.3048 13.8374 17.2193C13.7573 17.1337 13.6416 17.0481 13.4903 16.9626C13.342 16.8734 13.1462 16.7807 12.9029 16.6845C12.6181 16.5704 12.3437 16.4421 12.0797 16.2995C11.8157 16.1533 11.5798 15.984 11.3722 15.7914C11.1645 15.5954 10.9999 15.3672 10.8782 15.107C10.7566 14.8431 10.6958 14.5365 10.6958 14.1872C10.6958 13.852 10.7581 13.5508 10.8827 13.2834C11.0073 13.0125 11.1808 12.7825 11.4033 12.5936C11.6288 12.4011 11.8928 12.2549 12.1954 12.1551C12.498 12.0517 12.8287 12 13.1877 12C13.6624 12 14.0806 12.0998 14.4426 12.2995C14.8074 12.4955 15.0922 12.7754 15.2969 13.139C15.5046 13.4991 15.6084 13.9251 15.6084 14.4171H14.0554C14.0554 14.221 14.0213 14.0481 13.9531 13.8984C13.8878 13.7487 13.7884 13.631 13.6549 13.5455C13.5214 13.4599 13.3538 13.4171 13.1521 13.4171C12.9563 13.4171 12.7917 13.4528 12.6582 13.5241C12.5247 13.5954 12.4238 13.6916 12.3556 13.8128C12.2874 13.9305 12.2532 14.0606 12.2532 14.2032C12.2532 14.3209 12.2799 14.4278 12.3333 14.5241C12.3897 14.6168 12.4683 14.7041 12.5692 14.7861C12.673 14.8681 12.7976 14.9465 12.943 15.0214C13.0913 15.0963 13.2574 15.1693 13.4413 15.2406C13.7855 15.3725 14.091 15.5205 14.358 15.6845C14.628 15.8449 14.8549 16.0285 15.0388 16.2353C15.2257 16.4385 15.3666 16.6702 15.4616 16.9305C15.5595 17.1907 15.6084 17.4848 15.6084 17.8128C15.6084 18.1622 15.552 18.4724 15.4393 18.7433C15.3266 19.0143 15.1649 19.2442 14.9543 19.4332C14.7437 19.6185 14.4915 19.7594 14.1978 19.8556C13.9041 19.9519 13.5763 20 13.2144 20C12.8821 20 12.5543 19.9501 12.231 19.8503C11.9106 19.7469 11.6199 19.59 11.3588 19.3797C11.0978 19.1658 10.8886 18.893 10.7314 18.5615C10.5771 18.2264 10.5 17.8289 10.5 17.369H12.0663C12.0663 17.5971 12.0916 17.7897 12.142 17.9465C12.1924 18.1034 12.2666 18.2299 12.3645 18.3262C12.4624 18.4189 12.5825 18.4866 12.7249 18.5294C12.8673 18.5686 13.0305 18.5882 13.2144 18.5882C13.4132 18.5882 13.5734 18.5544 13.695 18.4866C13.8166 18.4153 13.9056 18.3226 13.962 18.2086C14.0183 18.0909 14.0465 17.9626 14.0465 17.8235Z" fill="white"/>
<path d="M19.551 12.107V19.893H17.9891V12.107H19.551ZM21.5 12.107V13.5561H16.0845V12.107H21.5Z" fill="white"/>
</svg>
