<?xml version="1.0" encoding="UTF-8"?>
<svg version="1.1" xmlns="http://www.w3.org/2000/svg" width="128" height="128">
<path d="M0 0 C3.36369822 2.72587121 5.94931337 5.83322138 8.6875 9.1875 C10.04873072 10.34965745 11.4247635 11.49462554 12.8125 12.625 C16.49436757 15.80574382 18.44007156 18.36411002 19.6875 23.1875 C19.92328734 29.30725312 18.53800937 33.34685965 14.6875 38.1875 C13.945 39.13625 13.2025 40.085 12.4375 41.0625 C11.86 41.76375 11.2825 42.465 10.6875 43.1875 C12.1725 44.1775 12.1725 44.1775 13.6875 45.1875 C13.6875 46.1775 13.6875 47.1675 13.6875 48.1875 C14.595 48.414375 15.5025 48.64125 16.4375 48.875 C20.7256147 50.60673863 22.64739786 53.10729573 24.6875 57.1875 C25.40186972 65.35005237 25.08084433 72.15538597 20.6875 79.1875 C20.10355469 80.12529297 20.10355469 80.12529297 19.5078125 81.08203125 C14.96762534 87.24755169 7.58378574 90.86957643 0.29296875 92.83203125 C-9.57859792 94.1788267 -20.58198236 94.51098637 -29.3125 89.1875 C-33.98343826 85.55674648 -38.16979902 81.39936607 -42.3125 77.1875 C-43.02792969 76.46175781 -43.74335937 75.73601562 -44.48046875 74.98828125 C-45.06441406 74.39402344 -45.64835937 73.79976563 -46.25 73.1875 C-51.11047841 68.27925276 -55.6674758 66.01162429 -62.3125 64.1875 C-63.76397903 61.28454195 -63.68489025 59.41488221 -63.3125 56.1875 C-61.25 52.875 -61.25 52.875 -58.3125 50.1875 C-54.5 49.3125 -54.5 49.3125 -51.3125 49.1875 C-51.18875 48.424375 -51.065 47.66125 -50.9375 46.875 C-50.3125 44.1875 -50.3125 44.1875 -48.3125 41.1875 C-49.075625 40.445 -49.83875 39.7025 -50.625 38.9375 C-55.23777731 34.21744879 -56.91541665 31.36823603 -57.37109375 24.78515625 C-57.28072427 20.77877597 -56.43061931 17.59790149 -54.3125 14.1875 C-51.4375 11.5 -51.4375 11.5 -48.3125 9.1875 C-47.508125 8.383125 -46.70375 7.57875 -45.875 6.75 C-33.38633515 -5.73866485 -15.65821078 -11.213869 0 0 Z " fill="#12221B" transform="translate(78.3125,25.8125)"/>
<path d="M0 0 C12.38773655 10.06726717 12.38773655 10.06726717 14 17 C14.0910148 23.12074552 12.86776379 27.13766838 9 32 C8.2575 32.94875 7.515 33.8975 6.75 34.875 C6.1725 35.57625 5.595 36.2775 5 37 C5.99 37.66 6.98 38.32 8 39 C8 39.99 8 40.98 8 42 C8.9075 42.226875 9.815 42.45375 10.75 42.6875 C15.0381147 44.41923863 16.95989786 46.91979573 19 51 C19.89306353 61.20434885 18.57485452 68.62114985 12.3125 76.75 C7.20991428 82.26284386 1.05387644 85.47335337 -6.44921875 85.953125 C-11.63448357 86.04841317 -16.81429505 86.072135 -22 86 C-20.68 83.69 -19.36 81.38 -18 79 C-18.99 78.34 -19.98 77.68 -21 77 C-21.6875 74.375 -21.6875 74.375 -22 72 C-23.65 72 -25.3 72 -27 72 C-27 73.65 -27 75.3 -27 77 C-28.98 77 -30.96 77 -33 77 C-32.67 75.35 -32.34 73.7 -32 72 C-30.02 71.505 -30.02 71.505 -28 71 C-28.66 68.36 -29.32 65.72 -30 63 C-29.34 63 -28.68 63 -28 63 C-28 61.02 -28 59.04 -28 57 C-26.35 57.33 -24.7 57.66 -23 58 C-22.67 56.68 -22.34 55.36 -22 54 C-21.34 54 -20.68 54 -20 54 C-19.67 55.65 -19.34 57.3 -19 59 C-16.525 58.505 -16.525 58.505 -14 58 C-15.32 57.67 -16.64 57.34 -18 57 C-18 55.35 -18 53.7 -18 52 C-15.36 52 -12.72 52 -10 52 C-11.26974972 47.58477891 -11.26974972 47.58477891 -14 44 C-13.625 41.875 -13.625 41.875 -13 40 C-11.35 40 -9.7 40 -8 40 C-7.67 41.32 -7.34 42.64 -7 44 C-6.01 44 -5.02 44 -4 44 C-3.34 43.01 -2.68 42.02 -2 41 C0.38564077 41.57584432 2.66682784 42.22227595 5 43 C5 42.01 5 41.02 5 40 C4.01 40 3.02 40 2 40 C1.0625 37.9375 1.0625 37.9375 1 35 C2.63443954 33.03691981 4.40264448 31.41365526 6.3359375 29.74609375 C8.1701749 27.82143619 8.6028457 26.59285019 9 24 C5.57421051 27.17539556 5.57421051 27.17539556 3 31 C-2.10477099 31.520895 -5.79747008 31.60263447 -10.0625 28.5 C-11.031875 27.675 -12.00125 26.85 -13 26 C-13.33 26.66 -13.66 27.32 -14 28 C-14.66 27.01 -15.32 26.02 -16 25 C-14.35 24.67 -12.7 24.34 -11 24 C-11.06960937 23.25234375 -11.13921875 22.5046875 -11.2109375 21.734375 C-11.37596852 18.73238218 -11.42127207 15.97930557 -11 13 C-8.3125 10.875 -8.3125 10.875 -5 9 C-3.05440516 6.13439519 -1.50485571 3.11624988 0 0 Z " fill="#19231B" transform="translate(84,32)"/>
<path d="M0 0 C0.99 0 1.98 0 3 0 C3.33 0.66 3.66 1.32 4 2 C5.11375 1.79375 6.2275 1.5875 7.375 1.375 C9.169375 1.189375 9.169375 1.189375 11 1 C11.66 1.66 12.32 2.32 13 3 C12.9765625 5.8203125 12.9765625 5.8203125 12.625 9.125 C12.51414063 10.22070312 12.40328125 11.31640625 12.2890625 12.4453125 C12.19367187 13.28835937 12.09828125 14.13140625 12 15 C9.36 15.33 6.72 15.66 4 16 C4.58803797 19.02419525 5.22678118 22.01758453 6 25 C4.68 25.33 3.36 25.66 2 26 C1.8046875 23.94921875 1.609375 21.8984375 1.4140625 19.84765625 C1.27742188 19.23792969 1.14078125 18.62820312 1 18 C0.34 17.67 -0.32 17.34 -1 17 C-1.66 18.32 -2.32 19.64 -3 21 C-3.99 20.67 -4.98 20.34 -6 20 C-6.33 20.99 -6.66 21.98 -7 23 C-7.66 23 -8.32 23 -9 23 C-9 23.99 -9 24.98 -9 26 C-7.02 25.67 -5.04 25.34 -3 25 C-1.515 29.455 -1.515 29.455 0 34 C-0.66 34 -1.32 34 -2 34 C-2 34.99 -2 35.98 -2 37 C-1.01 37 -0.02 37 1 37 C1 36.01 1 35.02 1 34 C2.32 33.34 3.64 32.68 5 32 C5.268125 32.804375 5.53625 33.60875 5.8125 34.4375 C6.4003125 35.7059375 6.4003125 35.7059375 7 37 C7.99 37.33 8.98 37.66 10 38 C9.67 40.64 9.34 43.28 9 46 C10.32 46 11.64 46 13 46 C12.67 45.01 12.34 44.02 12 43 C13.65 43 15.3 43 17 43 C17.495 44.98 17.495 44.98 18 47 C17.01 47.33 16.02 47.66 15 48 C15.0825 48.763125 15.165 49.52625 15.25 50.3125 C15.1675 51.199375 15.085 52.08625 15 53 C13.68212715 54.02028865 12.34789347 55.01971384 11 56 C10.1957792 58.59855733 10.1957792 58.59855733 10 61 C7.03 61 4.06 61 1 61 C0.67 61.66 0.34 62.32 0 63 C-1.485 62.505 -1.485 62.505 -3 62 C-1.6910428 65.12197478 -1.6910428 65.12197478 1 67 C1 67.99 1 68.98 1 70 C-4.25895775 68.84559464 -6.71387198 66.5090517 -10.28125 62.74609375 C-14.67398013 58.28347928 -19.07256097 56.62714013 -25 55 C-26.45147903 52.09704195 -26.37239025 50.22738221 -26 47 C-23.9375 43.6875 -23.9375 43.6875 -21 41 C-17.1875 40.125 -17.1875 40.125 -14 40 C-13.87625 39.236875 -13.7525 38.47375 -13.625 37.6875 C-13 35 -13 35 -11 32 C-11.763125 31.2575 -12.52625 30.515 -13.3125 29.75 C-17.92706017 25.02812448 -19.59086132 22.18155157 -20.06640625 15.6015625 C-19.93175839 10.32653452 -18.26064981 6.44074264 -14.8125 2.5 C-14.214375 2.005 -13.61625 1.51 -13 1 C-10.525 1.99 -10.525 1.99 -8 3 C-8 4.98 -8 6.96 -8 9 C-9.98 9.99 -9.98 9.99 -12 11 C-11.67 12.32 -11.34 13.64 -11 15 C-7.85262818 14.30058404 -4.97411124 13.23921302 -2 12 C-1.67 12.66 -1.34 13.32 -1 14 C-0.01 14.33 0.98 14.66 2 15 C1.28556683 10.9041558 1.28556683 10.9041558 0 7 C-2.42885788 5.61141128 -2.42885788 5.61141128 -5 5 C-5.66 4.01 -6.32 3.02 -7 2 C-4.03 2.495 -4.03 2.495 -1 3 C-0.67 2.01 -0.34 1.02 0 0 Z " fill="#101011" transform="translate(41,35)"/>
<path d="M0 0 C1.134375 0.020625 2.26875 0.04125 3.4375 0.0625 C3.1075 2.7025 2.7775 5.3425 2.4375 8.0625 C1.7775 8.0625 1.1175 8.0625 0.4375 8.0625 C0.1075 10.7025 -0.2225 13.3425 -0.5625 16.0625 C1.0875 16.0625 2.7375 16.0625 4.4375 16.0625 C5.0975 17.7125 5.7575 19.3625 6.4375 21.0625 C7.7575 20.7325 9.0775 20.4025 10.4375 20.0625 C9.9425 17.5875 9.9425 17.5875 9.4375 15.0625 C10.7575 15.0625 12.0775 15.0625 13.4375 15.0625 C13.7675 16.7125 14.0975 18.3625 14.4375 20.0625 C18.17237777 19.5645163 20.24987635 19.18758244 23.4375 17.0625 C23.7675 17.3925 24.0975 17.7225 24.4375 18.0625 C26.77694736 17.77519945 29.1114143 17.44313221 31.4375 17.0625 C31.4375 16.7325 31.4375 16.4025 31.4375 16.0625 C32.19675781 15.99160156 32.95601562 15.92070313 33.73828125 15.84765625 C37.21395142 14.83664365 37.82917856 13.57648768 39.625 10.5 C40.51630306 8.99254548 41.44401258 7.50465915 42.4375 6.0625 C43.0975 6.0625 43.7575 6.0625 44.4375 6.0625 C44.21110988 9.91113203 43.13345362 11.55717506 40.375 14.0625 C37.75577089 16.43330656 37.75577089 16.43330656 37.0625 19.9375 C37.248125 20.989375 37.248125 20.989375 37.4375 22.0625 C38.4275 22.0625 39.4175 22.0625 40.4375 22.0625 C40.4375 23.0525 40.4375 24.0425 40.4375 25.0625 C38.1275 24.7325 35.8175 24.4025 33.4375 24.0625 C32.7775 25.0525 32.1175 26.0425 31.4375 27.0625 C30.1175 26.7325 28.7975 26.4025 27.4375 26.0625 C27.4375 24.7425 27.4375 23.4225 27.4375 22.0625 C25.7875 22.3925 24.1375 22.7225 22.4375 23.0625 C23.01094937 25.92974686 23.2989515 26.9239515 25.4375 29.0625 C25.5625 31.6875 25.5625 31.6875 25.4375 34.0625 C22.7975 34.0625 20.1575 34.0625 17.4375 34.0625 C17.4375 35.7125 17.4375 37.3625 17.4375 39.0625 C19.4175 38.5675 19.4175 38.5675 21.4375 38.0625 C21.4375 38.7225 21.4375 39.3825 21.4375 40.0625 C18.9625 40.5575 18.9625 40.5575 16.4375 41.0625 C16.1075 39.4125 15.7775 37.7625 15.4375 36.0625 C14.7775 36.0625 14.1175 36.0625 13.4375 36.0625 C13.1075 37.3825 12.7775 38.7025 12.4375 40.0625 C10.7875 39.7325 9.1375 39.4025 7.4375 39.0625 C7.4375 41.0425 7.4375 43.0225 7.4375 45.0625 C6.7775 45.0625 6.1175 45.0625 5.4375 45.0625 C6.0975 46.0525 6.7575 47.0425 7.4375 48.0625 C7.5625 50.75 7.5625 50.75 7.4375 53.0625 C6.798125 53.31 6.15875 53.5575 5.5 53.8125 C3.25008459 54.87812433 3.25008459 54.87812433 2.6875 57.1875 C2.605 57.80625 2.5225 58.425 2.4375 59.0625 C4.4175 59.0625 6.3975 59.0625 8.4375 59.0625 C8.4375 57.4125 8.4375 55.7625 8.4375 54.0625 C10.9125 53.5675 10.9125 53.5675 13.4375 53.0625 C13.685 53.990625 13.9325 54.91875 14.1875 55.875 C15.50204245 59.22708325 16.41713384 60.2502803 19.4375 62.0625 C18.7775 62.0625 18.1175 62.0625 17.4375 62.0625 C17.128125 62.701875 16.81875 63.34125 16.5 64 C15.4375 66.0625 15.4375 66.0625 14.4375 67.0625 C20.3775 67.0625 26.3175 67.0625 32.4375 67.0625 C32.4375 67.3925 32.4375 67.7225 32.4375 68.0625 C22.18649649 70.49661859 9.66674424 70.54494658 0.4375 65.0625 C-3.47065779 61.93793275 -7.04576309 58.6268523 -10.5625 55.0625 C-9.5725 54.5675 -9.5725 54.5675 -8.5625 54.0625 C-7.9025 54.3925 -7.2425 54.7225 -6.5625 55.0625 C-6.5625 54.0725 -6.5625 53.0825 -6.5625 52.0625 C-7.5525 51.7325 -8.5425 51.4025 -9.5625 51.0625 C-10.25 49 -10.25 49 -10.5625 47.0625 C-7.56769083 46.1901588 -4.92674089 45.95420234 -1.8125 46 C-1.01328125 46.00902344 -0.2140625 46.01804688 0.609375 46.02734375 C1.21265625 46.03894531 1.8159375 46.05054688 2.4375 46.0625 C2.58899298 42.43364676 2.58899298 42.43364676 1.4375 39.0625 C3.9125 38.5675 3.9125 38.5675 6.4375 38.0625 C6.56125 37.258125 6.685 36.45375 6.8125 35.625 C7.121875 34.3565625 7.121875 34.3565625 7.4375 33.0625 C8.4275 32.5675 8.4275 32.5675 9.4375 32.0625 C9.4375 31.0725 9.4375 30.0825 9.4375 29.0625 C8.1175 29.0625 6.7975 29.0625 5.4375 29.0625 C5.4375 29.7225 5.4375 30.3825 5.4375 31.0625 C4.1175 31.0625 2.7975 31.0625 1.4375 31.0625 C1.7675 28.4225 2.0975 25.7825 2.4375 23.0625 C1.81875 22.98 1.2 22.8975 0.5625 22.8125 C-1.5625 22.0625 -1.5625 22.0625 -2.8125 20 C-3.06 19.360625 -3.3075 18.72125 -3.5625 18.0625 C-4.5525 18.3925 -5.5425 18.7225 -6.5625 19.0625 C-6.5625 20.0525 -6.5625 21.0425 -6.5625 22.0625 C-7.5525 22.0625 -8.5425 22.0625 -9.5625 22.0625 C-9.35625 21.546875 -9.15 21.03125 -8.9375 20.5 C-8.40362974 17.02984329 -9.48573239 14.35614209 -10.5625 11.0625 C-12.5425 11.0625 -14.5225 11.0625 -16.5625 11.0625 C-16.5625 8.0625 -16.5625 8.0625 -15.3125 6.4375 C-13.37995709 4.91907343 -11.92204211 4.61305983 -9.5625 4.0625 C-9.2325 3.4025 -8.9025 2.7425 -8.5625 2.0625 C-7.5725 2.3925 -6.5825 2.7225 -5.5625 3.0625 C-5.5625 5.7025 -5.5625 8.3425 -5.5625 11.0625 C-4.5725 10.7325 -3.5825 10.4025 -2.5625 10.0625 C-2.706875 9.505625 -2.85125 8.94875 -3 8.375 C-3.59209725 5.94082241 -4.16136767 3.53614935 -4.5625 1.0625 C-3.5625 0.0625 -3.5625 0.0625 0 0 Z " fill="#1D1B15" transform="translate(48.5625,49.9375)"/>
<path d="M0 0 C1.65 0 3.3 0 5 0 C5.33 1.32 5.66 2.64 6 4 C6.99 4 7.98 4 9 4 C9.66 3.01 10.32 2.02 11 1 C12.32 1.33 13.64 1.66 15 2 C15 2.99 15 3.98 15 5 C14.34 5.33 13.68 5.66 13 6 C13 7.65 13 9.3 13 11 C11.02 11.99 9.04 12.98 7 14 C7.20625 14.78375 7.4125 15.5675 7.625 16.375 C7.74875 17.24125 7.8725 18.1075 8 19 C5.60236815 21.39763185 4.66726502 21.34280586 1.375 21.625 C0.55773437 21.69976562 -0.25953125 21.77453125 -1.1015625 21.8515625 C-1.72804688 21.90054688 -2.35453125 21.94953125 -3 22 C-2.505 22.45375 -2.01 22.9075 -1.5 23.375 C0 25 0 25 0 27 C-1.65 27 -3.3 27 -5 27 C-3.02 27.66 -1.04 28.32 1 29 C1 29.66 1 30.32 1 31 C2.65 31 4.3 31 6 31 C6 32.65 6 34.3 6 36 C4.35 36 2.7 36 1 36 C0.67 35.01 0.34 34.02 0 33 C-0.33 34.65 -0.66 36.3 -1 38 C0.32 38.66 1.64 39.32 3 40 C2.67 41.32 2.34 42.64 2 44 C0.02 44 -1.96 44 -4 44 C-4.103125 43.21625 -4.20625 42.4325 -4.3125 41.625 C-4.77595022 38.66954819 -4.77595022 38.66954819 -8 37 C-8.6875 34.375 -8.6875 34.375 -9 32 C-10.65 32 -12.3 32 -14 32 C-14 33.65 -14 35.3 -14 37 C-15.98 37 -17.96 37 -20 37 C-19.67 35.35 -19.34 33.7 -19 32 C-17.68 31.67 -16.36 31.34 -15 31 C-15.66 28.36 -16.32 25.72 -17 23 C-16.34 23 -15.68 23 -15 23 C-15 21.02 -15 19.04 -15 17 C-13.35 17.33 -11.7 17.66 -10 18 C-9.67 16.68 -9.34 15.36 -9 14 C-8.34 14 -7.68 14 -7 14 C-6.67 15.65 -6.34 17.3 -6 19 C-4.35 18.67 -2.7 18.34 -1 18 C-2.32 17.67 -3.64 17.34 -5 17 C-5 15.35 -5 13.7 -5 12 C-2.36 12 0.28 12 3 12 C1.73025028 7.58477891 1.73025028 7.58477891 -1 4 C-0.625 1.875 -0.625 1.875 0 0 Z " fill="#3E2517" transform="translate(71,72)"/>
<path d="M0 0 C12.38773655 10.06726717 12.38773655 10.06726717 14 17 C13.85815603 25.14184397 13.85815603 25.14184397 11 28 C10.34 27.67 9.68 27.34 9 27 C9 26.01 9 25.02 9 24 C5.57421051 27.17539556 5.57421051 27.17539556 3 31 C-2.10477099 31.520895 -5.79747008 31.60263447 -10.0625 28.5 C-11.031875 27.675 -12.00125 26.85 -13 26 C-13.33 26.66 -13.66 27.32 -14 28 C-14.66 27.01 -15.32 26.02 -16 25 C-14.35 24.67 -12.7 24.34 -11 24 C-11.10441406 22.87851562 -11.10441406 22.87851562 -11.2109375 21.734375 C-11.37596852 18.73238218 -11.42127207 15.97930557 -11 13 C-8.3125 10.875 -8.3125 10.875 -5 9 C-3.05440516 6.13439519 -1.50485571 3.11624988 0 0 Z " fill="#100F12" transform="translate(84,32)"/>
<path d="M0 0 C0.99 0 1.98 0 3 0 C3.33 0.66 3.66 1.32 4 2 C5.11375 1.79375 6.2275 1.5875 7.375 1.375 C9.169375 1.189375 9.169375 1.189375 11 1 C11.66 1.66 12.32 2.32 13 3 C12.9765625 5.8203125 12.9765625 5.8203125 12.625 9.125 C12.51414063 10.22070312 12.40328125 11.31640625 12.2890625 12.4453125 C12.19367187 13.28835937 12.09828125 14.13140625 12 15 C9.36 15.33 6.72 15.66 4 16 C4.58803797 19.02419525 5.22678118 22.01758453 6 25 C4.68 25.33 3.36 25.66 2 26 C1.8046875 23.94921875 1.609375 21.8984375 1.4140625 19.84765625 C1.27742188 19.23792969 1.14078125 18.62820312 1 18 C0.34 17.67 -0.32 17.34 -1 17 C-1.66 18.32 -2.32 19.64 -3 21 C-3.99 20.67 -4.98 20.34 -6 20 C-6.33 20.99 -6.66 21.98 -7 23 C-7.66 23 -8.32 23 -9 23 C-9 23.99 -9 24.98 -9 26 C-7.02 25.67 -5.04 25.34 -3 25 C-3.33 26.32 -3.66 27.64 -4 29 C-6.4497481 29.87491004 -7.63448293 30.12900603 -10.125 29.25 C-12 28 -12 28 -14 25 C-14 24.01 -14 23.02 -14 22 C-15.65 22.33 -17.3 22.66 -19 23 C-20.13542565 16.32424438 -20.43762588 11.01584529 -17 5 C-14.8125 2.5 -14.8125 2.5 -13 1 C-10.525 1.99 -10.525 1.99 -8 3 C-8 4.98 -8 6.96 -8 9 C-9.98 9.99 -9.98 9.99 -12 11 C-11.67 12.32 -11.34 13.64 -11 15 C-7.85262818 14.30058404 -4.97411124 13.23921302 -2 12 C-1.67 12.66 -1.34 13.32 -1 14 C-0.01 14.33 0.98 14.66 2 15 C1.28556683 10.9041558 1.28556683 10.9041558 0 7 C-2.42885788 5.61141128 -2.42885788 5.61141128 -5 5 C-5.66 4.01 -6.32 3.02 -7 2 C-4.03 2.495 -4.03 2.495 -1 3 C-0.67 2.01 -0.34 1.02 0 0 Z " fill="#281613" transform="translate(41,35)"/>
<path d="M0 0 C2.375 1.625 2.375 1.625 4 4 C4.25 7.25 4.25 7.25 4 10 C5.3921875 9.87625 5.3921875 9.87625 6.8125 9.75 C10 10 10 10 11.9375 11.625 C13.36489363 14.81564458 12.93843266 16.67939213 12 20 C9.64046906 22.35953094 8.22104383 22.49141413 5 23 C5.20625 23.78375 5.4125 24.5675 5.625 25.375 C5.74875 26.24125 5.8725 27.1075 6 28 C5.34 28.66 4.68 29.32 4 30 C1.375 29.625 1.375 29.625 -1 29 C-1.061875 28.21625 -1.12375 27.4325 -1.1875 26.625 C-1.455625 25.75875 -1.72375 24.8925 -2 24 C-3.65204456 23.29788106 -5.31923769 22.63028587 -7 22 C-7.9375 20.125 -7.9375 20.125 -8 18 C-7.0625 15.75 -7.0625 15.75 -6 14 C-6.99 13.67 -7.98 13.34 -9 13 C-10.54586876 9.90826248 -10.29359521 7.40570448 -10 4 C-7.26646839 -0.10029741 -4.80388991 -0.80064832 0 0 Z M0 14 C1 16 1 16 1 16 Z M1 20 C1 20.66 1 21.32 1 22 C1.99 21.67 2.98 21.34 4 21 C3.01 20.67 2.02 20.34 1 20 Z " fill="#271210" transform="translate(99,15)"/>
<path d="M0 0 C1.134375 0.020625 2.26875 0.04125 3.4375 0.0625 C3.1075 2.7025 2.7775 5.3425 2.4375 8.0625 C1.7775 8.0625 1.1175 8.0625 0.4375 8.0625 C0.1075 10.7025 -0.2225 13.3425 -0.5625 16.0625 C1.0875 16.0625 2.7375 16.0625 4.4375 16.0625 C5.0975 17.7125 5.7575 19.3625 6.4375 21.0625 C7.7575 20.7325 9.0775 20.4025 10.4375 20.0625 C9.9425 17.5875 9.9425 17.5875 9.4375 15.0625 C10.7575 15.3925 12.0775 15.7225 13.4375 16.0625 C12.7775 18.0425 12.1175 20.0225 11.4375 22.0625 C14.0775 22.3925 16.7175 22.7225 19.4375 23.0625 C19.4375 24.3825 19.4375 25.7025 19.4375 27.0625 C18.4475 27.5575 18.4475 27.5575 17.4375 28.0625 C17.4375 29.7125 17.4375 31.3625 17.4375 33.0625 C14.9625 33.5575 14.9625 33.5575 12.4375 34.0625 C12.1075 35.3825 11.7775 36.7025 11.4375 38.0625 C10.4475 38.0625 9.4575 38.0625 8.4375 38.0625 C8.7675 35.0925 9.0975 32.1225 9.4375 29.0625 C8.1175 29.0625 6.7975 29.0625 5.4375 29.0625 C5.4375 29.7225 5.4375 30.3825 5.4375 31.0625 C4.1175 31.0625 2.7975 31.0625 1.4375 31.0625 C1.7675 28.4225 2.0975 25.7825 2.4375 23.0625 C1.81875 22.98 1.2 22.8975 0.5625 22.8125 C-1.5625 22.0625 -1.5625 22.0625 -2.8125 20 C-3.06 19.360625 -3.3075 18.72125 -3.5625 18.0625 C-4.5525 18.3925 -5.5425 18.7225 -6.5625 19.0625 C-6.5625 20.0525 -6.5625 21.0425 -6.5625 22.0625 C-7.5525 22.0625 -8.5425 22.0625 -9.5625 22.0625 C-9.35625 21.546875 -9.15 21.03125 -8.9375 20.5 C-8.40362974 17.02984329 -9.48573239 14.35614209 -10.5625 11.0625 C-12.5425 11.0625 -14.5225 11.0625 -16.5625 11.0625 C-16.5625 8.0625 -16.5625 8.0625 -15.3125 6.4375 C-13.37995709 4.91907343 -11.92204211 4.61305983 -9.5625 4.0625 C-9.2325 3.4025 -8.9025 2.7425 -8.5625 2.0625 C-7.5725 2.3925 -6.5825 2.7225 -5.5625 3.0625 C-5.5625 5.7025 -5.5625 8.3425 -5.5625 11.0625 C-4.5725 10.7325 -3.5825 10.4025 -2.5625 10.0625 C-2.706875 9.505625 -2.85125 8.94875 -3 8.375 C-3.59209725 5.94082241 -4.16136767 3.53614935 -4.5625 1.0625 C-3.5625 0.0625 -3.5625 0.0625 0 0 Z " fill="#162B23" transform="translate(48.5625,49.9375)"/>
<path d="M0 0 C0.66 0 1.32 0 2 0 C2 3.63 2 7.26 2 11 C0.02 11.99 0.02 11.99 -2 13 C-0.88625 13.1546875 -0.88625 13.1546875 0.25 13.3125 C3 14 3 14 4.8125 15.5 C8.07658693 17.73823104 11.08227501 17.67352292 15 18 C14 21 14 21 10.75 22.6875 C7.4067786 23.85762749 5.45147725 24.2876231 2 24 C-1.18490007 23.7226499 -1.18490007 23.7226499 -4 26 C-6.6875 25.625 -6.6875 25.625 -9 25 C-9 23.35 -9 21.7 -9 20 C-9.99 20.33 -10.98 20.66 -12 21 C-11.79375 21.61875 -11.5875 22.2375 -11.375 22.875 C-11.25125 23.57625 -11.1275 24.2775 -11 25 C-11.66 25.66 -12.32 26.32 -13 27 C-15.125 26.625 -15.125 26.625 -17 26 C-17.33 24.35 -17.66 22.7 -18 21 C-19.65 21 -21.3 21 -23 21 C-23.125 15.25 -23.125 15.25 -22 13 C-21.34 13 -20.68 13 -20 13 C-20.020625 12.030625 -20.04125 11.06125 -20.0625 10.0625 C-20 7 -20 7 -19 6 C-16.5 5.875 -16.5 5.875 -14 6 C-13 7 -13 7 -12.9375 10.5625 C-12.958125 11.696875 -12.97875 12.83125 -13 14 C-13.66 14 -14.32 14 -15 14 C-14.67 15.32 -14.34 16.64 -14 18 C-10.535 17.505 -10.535 17.505 -7 17 C-7 15.68 -7 14.36 -7 13 C-6.01 12.34 -5.02 11.68 -4 11 C-3.02260454 8.62267515 -3.02260454 8.62267515 -2.375 5.9375 C-1.07827789 1.07827789 -1.07827789 1.07827789 0 0 Z " fill="#1C2A1D" transform="translate(71,45)"/>
<path d="M0 0 C-0.99 0.66 -1.98 1.32 -3 2 C-1.68 2.33 -0.36 2.66 1 3 C1.04125 3.61875 1.0825 4.2375 1.125 4.875 C1.83386113 7.28614923 1.83386113 7.28614923 4.625 8.1875 C8.07583483 9.01825653 11.47708646 9.57725038 15 10 C15.495 11.98 15.495 11.98 16 14 C14.35 14.33 12.7 14.66 11 15 C11 15.99 11 16.98 11 18 C9.125 20.1875 9.125 20.1875 7 22 C6.34 22 5.68 22 5 22 C4.67 24.31 4.34 26.62 4 29 C3.01 29 2.02 29 1 29 C0.80377759 24.78121808 1.19769832 21.82989106 3 18 C2.360625 17.401875 1.72125 16.80375 1.0625 16.1875 C-1 14 -1 14 -2 11 C-4.31 11 -6.62 11 -9 11 C-9.33 8.69 -9.66 6.38 -10 4 C-10.7425 4.309375 -11.485 4.61875 -12.25 4.9375 C-14.50692176 5.8094925 -16.6450153 6.47667007 -19 7 C-19.66 9.31 -20.32 11.62 -21 14 C-24.875 13.125 -24.875 13.125 -26 12 C-26.5625 9.75 -26.5625 9.75 -26 7 C-18.78345657 0.26327994 -9.35660138 -0.29703496 0 0 Z " fill="#2B1613" transform="translate(64,20)"/>
<path d="M0 0 C2.31 0 4.62 0 7 0 C6.67 2.64 6.34 5.28 6 8 C7.32 8 8.64 8 10 8 C9.67 7.01 9.34 6.02 9 5 C10.65 5 12.3 5 14 5 C14.33 6.32 14.66 7.64 15 9 C14.01 9.33 13.02 9.66 12 10 C12.12375 11.1446875 12.12375 11.1446875 12.25 12.3125 C12.1675 13.199375 12.085 14.08625 12 15 C10.68212715 16.02028865 9.34789347 17.01971384 8 18 C7.1957792 20.59855733 7.1957792 20.59855733 7 23 C4.03 23 1.06 23 -2 23 C-2.33 23.66 -2.66 24.32 -3 25 C-3.99 24.67 -4.98 24.34 -6 24 C-6.33 24.66 -6.66 25.32 -7 26 C-8.5625 24.375 -8.5625 24.375 -10 22 C-9.835 21.030625 -9.67 20.06125 -9.5 19.0625 C-8.87112536 15.21064281 -9.85018439 14.1420382 -12 11 C-12.6875 8.6875 -12.6875 8.6875 -13 7 C-9.72085432 7.56536994 -8.06619192 8.3703012 -6 11 C-4.8125 13.6875 -4.8125 13.6875 -4 16 C-1.69 16.33 0.62 16.66 3 17 C3 15.35 3 13.7 3 12 C1.68 12 0.36 12 -1 12 C-2.11658501 7.31034294 -1.80619523 4.46236469 0 0 Z " fill="#2B1613" transform="translate(44,73)"/>
<path d="M0 0 C0.99 0.33 1.98 0.66 3 1 C3 2.98 3 4.96 3 7 C1.35 7.33 -0.3 7.66 -2 8 C-1.67 9.65 -1.34 11.3 -1 13 C-2.98 13.66 -4.96 14.32 -7 15 C-7.33 14.01 -7.66 13.02 -8 12 C-11.11785113 12.64644661 -11.11785113 12.64644661 -12 15 C-13.65 15 -15.3 15 -17 15 C-14.77810176 17.22189824 -12.91517292 17.92598892 -10 19 C-9.67 21.64 -9.34 24.28 -9 27 C-10.32 26.67 -11.64 26.34 -13 26 C-13 25.34 -13 24.68 -13 24 C-13.9075 24.680625 -14.815 25.36125 -15.75 26.0625 C-19 28 -19 28 -21.375 27.75 C-21.91125 27.5025 -22.4475 27.255 -23 27 C-23.625 25.125 -23.625 25.125 -24 23 C-23.34 22.34 -22.68 21.68 -22 21 C-21.01 21 -20.02 21 -19 21 C-19.34227572 18.02934491 -19.34227572 18.02934491 -20 15 C-20.66 14.67 -21.32 14.34 -22 14 C-22 12 -22 12 -19.6875 9.5 C-17 7 -17 7 -14 5 C-13.34 6.65 -12.68 8.3 -12 10 C-11.01 10 -10.02 10 -9 10 C-8.690625 8.329375 -8.690625 8.329375 -8.375 6.625 C-7.92125 5.42875 -7.4675 4.2325 -7 3 C-3.9375 1.625 -3.9375 1.625 -1 1 C-0.67 0.67 -0.34 0.34 0 0 Z " fill="#1A1D19" transform="translate(52,23)"/>
<path d="M0 0 C1.97956441 0.14033111 3.95865141 0.2874123 5.9375 0.4375 C7.03964844 0.51871094 8.14179687 0.59992188 9.27734375 0.68359375 C12 1 12 1 13 2 C13.25 4.375 13.25 4.375 13 7 C12.02149805 8.02104551 11.02019573 9.0206121 10 10 C9.27802838 12.60611077 9.27802838 12.60611077 9 15 C10.65 14.67 12.3 14.34 14 14 C14.35555556 19.33333333 14.35555556 19.33333333 13 21.875 C9.74686316 23.70488947 6.68609891 23.18128355 3 23 C2.01 25.31 1.02 27.62 0 30 C-1.32 30 -2.64 30 -4 30 C-3.67 28.35 -3.34 26.7 -3 25 C-3.66 25 -4.32 25 -5 25 C-5 22.03 -5 19.06 -5 16 C-4.01 15.67 -3.02 15.34 -2 15 C-2 16.32 -2 17.64 -2 19 C-1.34 19 -0.68 19 0 19 C0 17.68 0 16.36 0 15 C1.32 15 2.64 15 4 15 C4 15.99 4 16.98 4 18 C4.66 17.67 5.32 17.34 6 17 C6.46651207 14.87423218 6.46651207 14.87423218 6.625 12.4375 C6.69976562 11.61121094 6.77453125 10.78492187 6.8515625 9.93359375 C6.90054688 9.29550781 6.94953125 8.65742187 7 8 C4.69 7.34 2.38 6.68 0 6 C-1.125 2.25 -1.125 2.25 0 0 Z " fill="#1D1110" transform="translate(87,82)"/>
<path d="M0 0 C9.55487589 -0.73877906 15.96813399 0.6629282 23.765625 6.26953125 C25.1875 7.5 25.1875 7.5 27 10 C27.11405073 14.44797852 24.62053009 17.55587474 22 21 C19.44118121 23.31892953 17.39717866 24.39336095 14 25 C13.34 27.31 12.68 29.62 12 32 C10.02 31.01 8.04 30.02 6 29 C6 26.69 6 24.38 6 22 C4.68 22.33 3.36 22.66 2 23 C1.67 24.98 1.34 26.96 1 29 C-0.32 29 -1.64 29 -3 29 C-3 27.68 -3 26.36 -3 25 C-2.34 24.67 -1.68 24.34 -1 24 C-0.67 23.01 -0.34 22.02 0 21 C1.9375 20.4375 1.9375 20.4375 4 20 C4.66 19.34 5.32 18.68 6 18 C6 18.99 6 19.98 6 21 C6.99 21.33 7.98 21.66 9 22 C8.67 23.98 8.34 25.96 8 28 C8.99 28 9.98 28 11 28 C11.33 25.69 11.66 23.38 12 21 C12.66 21 13.32 21 14 21 C14.66 19.68 15.32 18.36 16 17 C16.66 17 17.32 17 18 17 C18 16.01 18 15.02 18 14 C19.32 13.67 20.64 13.34 22 13 C22 12.01 22 11.02 22 10 C20.989375 9.896875 19.97875 9.79375 18.9375 9.6875 C14.78781792 8.96295233 11.78643737 7.77730734 8 6 C8 4.68 8 3.36 8 2 C5.36 1.67 2.72 1.34 0 1 C0 0.67 0 0.34 0 0 Z " fill="#131F1A" transform="translate(57,21)"/>
<path d="M0 0 C0.68359375 1.765625 0.68359375 1.765625 1 4 C-0.21484375 5.921875 -0.21484375 5.921875 -1.9375 7.75 C-2.50339844 8.36359375 -3.06929688 8.9771875 -3.65234375 9.609375 C-4.09707031 10.06828125 -4.54179688 10.5271875 -5 11 C-4.01 11.66 -3.02 12.32 -2 13 C-2 13.99 -2 14.98 -2 16 C-1.0925 16.226875 -0.185 16.45375 0.75 16.6875 C5.0381147 18.41923863 6.95989786 20.91979573 9 25 C9.12271508 27.14323306 9.17553395 29.29079002 9.1875 31.4375 C9.20167969 32.59121094 9.21585938 33.74492188 9.23046875 34.93359375 C9 38 9 38 7 41 C7 40.01 7 39.02 7 38 C4.525 38.495 4.525 38.495 2 39 C1.8125 36.6875 1.8125 36.6875 2 34 C3 33 4 32 5 31 C5 29.35 5 27.7 5 26 C1.37 25.34 -2.26 24.68 -6 24 C-6 22.35 -6 20.7 -6 19 C-6.66 18.67 -7.32 18.34 -8 18 C-7.01 17.67 -6.02 17.34 -5 17 C-5 16.01 -5 15.02 -5 14 C-5.99 14 -6.98 14 -8 14 C-8.77734375 11.80078125 -8.77734375 11.80078125 -9 9 C-7.12890625 6.54296875 -7.12890625 6.54296875 -4.5625 4.1875 C-3.29599609 3.00220703 -3.29599609 3.00220703 -2.00390625 1.79296875 C-1.34261719 1.20128906 -0.68132812 0.60960937 0 0 Z " fill="#091413" transform="translate(94,58)"/>
<path d="M0 0 C0.33 0.99 0.66 1.98 1 3 C2.0725 2.95875 3.145 2.9175 4.25 2.875 C7.85634221 2.99521141 8.95397423 3.47698711 12 5 C14.68993053 4.69621948 14.68993053 4.69621948 17 4 C17.12375 4.639375 17.2475 5.27875 17.375 5.9375 C17.58125 6.618125 17.7875 7.29875 18 8 C18.66 8.33 19.32 8.66 20 9 C19.01 9.495 19.01 9.495 18 10 C18.52268466 12.76276177 19.10869587 15.3260876 20 18 C20.66 18 21.32 18 22 18 C23.625 19.3125 23.625 19.3125 25 21 C25 21.99 25 22.98 25 24 C19.74104225 22.84559464 17.28612802 20.5090517 13.71875 16.74609375 C9.32601987 12.28347928 4.92743903 10.62714013 -1 9 C-2.35439668 6.29120665 -2.06501451 3.99066732 -2 1 C-1.34 0.67 -0.68 0.34 0 0 Z " fill="#081115" transform="translate(17,81)"/>
<path d="M0 0 C1.65 0 3.3 0 5 0 C5.33 1.32 5.66 2.64 6 4 C6.99 4 7.98 4 9 4 C9.66 3.01 10.32 2.02 11 1 C12.32 1.33 13.64 1.66 15 2 C15 2.99 15 3.98 15 5 C14.01 5.495 14.01 5.495 13 6 C13 7.65 13 9.3 13 11 C11.02 11.99 9.04 12.98 7 14 C7.20625 14.78375 7.4125 15.5675 7.625 16.375 C7.74875 17.24125 7.8725 18.1075 8 19 C4.99382731 22.00617269 2.17618402 21.59585316 -2 22 C-2 20.35 -2 18.7 -2 17 C-2.99 17 -3.98 17 -5 17 C-5 15.35 -5 13.7 -5 12 C-2.36 12 0.28 12 3 12 C1.73025028 7.58477891 1.73025028 7.58477891 -1 4 C-0.625 1.875 -0.625 1.875 0 0 Z " fill="#1D1814" transform="translate(71,72)"/>
<path d="M0 0 C3.29130321 2.22385352 3.92077418 3.69894188 4.9375 7.5625 C5 11 5 11 3.8203125 12.69140625 C1.42320153 14.41465126 -0.13218203 14.40089383 -3.0625 14.375 C-4.37927734 14.38660156 -4.37927734 14.38660156 -5.72265625 14.3984375 C-6.47417969 14.26695313 -7.22570312 14.13546875 -8 14 C-10.48038907 10.2794164 -10.46337203 8.40203429 -10 4 C-7.26646839 -0.10029741 -4.80388991 -0.80064832 0 0 Z " fill="#260C0E" transform="translate(99,15)"/>
<path d="M0 0 C2.64 0 5.28 0 8 0 C6.68212147 5.60098377 2.5906656 8.04638308 -2 11 C-9.63817273 15.31593838 -19.50790326 14.11812808 -28 14 C-26.68 12.68 -25.36 11.36 -24 10 C-23.67 10.33 -23.34 10.66 -23 11 C-21.00041636 11.04080783 -18.99954746 11.04254356 -17 11 C-17 10.01 -17 9.02 -17 8 C-18.32 7.34 -19.64 6.68 -21 6 C-21 4.35 -21 2.7 -21 1 C-20.34 1 -19.68 1 -19 1 C-18.34 1.99 -17.68 2.98 -17 4 C-14.94074861 4.72382467 -14.94074861 4.72382467 -13 5 C-13.33 6.98 -13.66 8.96 -14 11 C-11.55519921 10.81171228 -11.55519921 10.81171228 -9 10 C-7.63979849 8.03241727 -7.63979849 8.03241727 -7 6 C-7 6.66 -7 7.32 -7 8 C-5.06890419 8.04289755 -5.06890419 8.04289755 -3 7 C-1.20728609 3.51202512 -1.20728609 3.51202512 0 0 Z " fill="#0C1113" transform="translate(90,104)"/>
<path d="M0 0 C0.66 0 1.32 0 2 0 C2.33 1.65 2.66 3.3 3 5 C4.65 4.67 6.3 4.34 8 4 C7.67 5.98 7.34 7.96 7 10 C7.66 10.33 8.32 10.66 9 11 C9 11.66 9 12.32 9 13 C7.35 13 5.7 13 4 13 C4 14.65 4 16.3 4 18 C3.01 17.67 2.02 17.34 1 17 C1 16.34 1 15.68 1 15 C-0.98 15.66 -2.96 16.32 -5 17 C-5 15.35 -5 13.7 -5 12 C-5.99 11.67 -6.98 11.34 -8 11 C-8 10.34 -8 9.68 -8 9 C-7.34 9 -6.68 9 -6 9 C-6 7.02 -6 5.04 -6 3 C-4.35 3.33 -2.7 3.66 -1 4 C-0.67 2.68 -0.34 1.36 0 0 Z " fill="#E6730C" transform="translate(62,86)"/>
<path d="M0 0 C2.31 0 4.62 0 7 0 C6.67 2.64 6.34 5.28 6 8 C7.32 8 8.64 8 10 8 C9.67 7.01 9.34 6.02 9 5 C10.65 5 12.3 5 14 5 C14.33 6.32 14.66 7.64 15 9 C14.01 9.33 13.02 9.66 12 10 C12.020625 10.804375 12.04125 11.60875 12.0625 12.4375 C12 15 12 15 11 16 C9.00041636 16.04080783 6.99954746 16.04254356 5 16 C4.67 14.35 4.34 12.7 4 11 C3.67 11 3.34 11 3 11 C1.33178677 10.67449498 -0.33499557 10.34153937 -2 10 C-1.33333333 6.66666667 -0.66666667 3.33333333 0 0 Z " fill="#200F10" transform="translate(44,73)"/>
<path d="M0 0 C2.5 0.125 2.5 0.125 3.5 1.125 C3.54092937 3.45797433 3.54241723 5.79205225 3.5 8.125 C2.84 8.125 2.18 8.125 1.5 8.125 C1.974375 9.1975 2.44875 10.27 2.9375 11.375 C5.24260753 16.80846774 5.24260753 16.80846774 5.5 19.125 C4.84 19.785 4.18 20.445 3.5 21.125 C1.375 20.75 1.375 20.75 -0.5 20.125 C-0.83 18.475 -1.16 16.825 -1.5 15.125 C-3.15 15.125 -4.8 15.125 -6.5 15.125 C-6.625 9.375 -6.625 9.375 -5.5 7.125 C-4.84 7.125 -4.18 7.125 -3.5 7.125 C-3.520625 6.155625 -3.54125 5.18625 -3.5625 4.1875 C-3.48059244 0.17402962 -3.48059244 0.17402962 0 0 Z " fill="#493319" transform="translate(54.5,50.875)"/>
<path d="M0 0 C2.5625 0.1875 2.5625 0.1875 4.5625 2.1875 C4.5625 3.5075 4.5625 4.8275 4.5625 6.1875 C5.2225 6.1875 5.8825 6.1875 6.5625 6.1875 C6.5625 4.5375 6.5625 2.8875 6.5625 1.1875 C8.2125 1.1875 9.8625 1.1875 11.5625 1.1875 C11.8925 2.5075 12.2225 3.8275 12.5625 5.1875 C10.9125 5.5175 9.2625 5.8475 7.5625 6.1875 C7.5625 7.1775 7.5625 8.1675 7.5625 9.1875 C5.6875 11.375 5.6875 11.375 3.5625 13.1875 C2.9025 13.1875 2.2425 13.1875 1.5625 13.1875 C1.2325 15.4975 0.9025 17.8075 0.5625 20.1875 C-0.4275 20.1875 -1.4175 20.1875 -2.4375 20.1875 C-2.63372241 15.96871808 -2.23980168 13.01739106 -0.4375 9.1875 C-0.9325 8.795625 -1.4275 8.40375 -1.9375 8 C-3.4375 6.1875 -3.4375 6.1875 -3.6875 3.5625 C-3.34827488 0.3398614 -3.24023965 0.2492492 0 0 Z " fill="#661911" transform="translate(67.4375,28.8125)"/>
<path d="M0 0 C0.66 0 1.32 0 2 0 C1.77360988 3.84863203 0.69595362 5.49467506 -2.0625 8 C-4.68172911 10.37080656 -4.68172911 10.37080656 -5.375 13.875 C-5.25125 14.57625 -5.1275 15.2775 -5 16 C-4.01 16 -3.02 16 -2 16 C-2 16.99 -2 17.98 -2 19 C-4.31 18.67 -6.62 18.34 -9 18 C-9.66 18.99 -10.32 19.98 -11 21 C-12.32 20.67 -13.64 20.34 -15 20 C-15 18.68 -15 17.36 -15 16 C-16.98 16 -18.96 16 -21 16 C-21 14.68 -21 13.36 -21 12 C-20.01 12 -19.02 12 -18 12 C-15.66435067 11.68330179 -13.3306218 11.35179197 -11 11 C-11 10.67 -11 10.34 -11 10 C-10.24074219 9.92910156 -9.48148438 9.85820313 -8.69921875 9.78515625 C-5.22354858 8.77414365 -4.60832144 7.51398768 -2.8125 4.4375 C-1.92119694 2.93004548 -0.99348742 1.44215915 0 0 Z " fill="#113322" transform="translate(91,56)"/>
<path d="M0 0 C0.66 0.33 1.32 0.66 2 1 C2.12375 1.78375 2.2475 2.5675 2.375 3.375 C2.76817349 6.14830482 2.76817349 6.14830482 5.0625 7.8125 C5.701875 8.204375 6.34125 8.59625 7 9 C6.34 9 5.68 9 5 9 C4.690625 9.639375 4.38125 10.27875 4.0625 10.9375 C3 13 3 13 2 14 C7.94 14 13.88 14 20 14 C20 14.33 20 14.66 20 15 C15.68805834 16.05066804 11.47663221 16.18340146 7.0625 16.1875 C6.37220703 16.19974609 5.68191406 16.21199219 4.97070312 16.22460938 C0.61205142 16.23700365 -3.02151796 15.82827953 -7 14 C-7.33 13.01 -7.66 12.02 -8 11 C-8.99 10.34 -9.98 9.68 -11 9 C-11 8.34 -11 7.68 -11 7 C-9.02 7 -7.04 7 -5 7 C-4.67 7.66 -4.34 8.32 -4 9 C-2.74335022 6.09399739 -2 4.20395416 -2 1 C-1.34 0.67 -0.68 0.34 0 0 Z " fill="#131B1B" transform="translate(61,103)"/>
<path d="M0 0 C0.99 0 1.98 0 3 0 C3.33 0.66 3.66 1.32 4 2 C5.11375 1.79375 6.2275 1.5875 7.375 1.375 C9.169375 1.189375 9.169375 1.189375 11 1 C11.66 1.66 12.32 2.32 13 3 C12.625 5.625 12.625 5.625 12 8 C10.02 8.33 8.04 8.66 6 9 C6 10.32 6 11.64 6 13 C5.01 13 4.02 13 3 13 C2.608125 12.05125 2.21625 11.1025 1.8125 10.125 C-0.25551305 6.55946025 -1.23822801 6.253924 -5 5 C-5.66 4.01 -6.32 3.02 -7 2 C-4.03 2.495 -4.03 2.495 -1 3 C-0.67 2.01 -0.34 1.02 0 0 Z " fill="#691610" transform="translate(41,35)"/>
<path d="M0 0 C2.475 0.99 2.475 0.99 5 2 C5 3.98 5 5.96 5 8 C3.02 8.99 3.02 8.99 1 10 C1.33 11.32 1.66 12.64 2 14 C3.65 13.67 5.3 13.34 7 13 C6.67 14.32 6.34 15.64 6 17 C3.69 17.33 1.38 17.66 -1 18 C-1.12375 17.360625 -1.2475 16.72125 -1.375 16.0625 C-1.58125 15.381875 -1.7875 14.70125 -2 14 C-2.66 13.67 -3.32 13.34 -4 13 C-4 14.98 -4 16.96 -4 19 C-6.46732283 15.29901576 -6.68194709 12.29464299 -6 8 C-4.25364203 4.85655565 -2.53137274 2.53137274 0 0 Z " fill="#130D11" transform="translate(28,36)"/>
<path d="M0 0 C0.598125 0.309375 1.19625 0.61875 1.8125 0.9375 C4.08956772 2.10209704 4.08956772 2.10209704 7 3 C7 2.34 7 1.68 7 1 C7.99 1.33 8.98 1.66 10 2 C9.34 3.65 8.68 5.3 8 7 C9.98 7 11.96 7 14 7 C14 5.35 14 3.7 14 2 C14.66 2 15.32 2 16 2 C17.15837626 6.05431692 16.83691257 8.21812119 15 12 C14.34 10.68 13.68 9.36 13 8 C11.02 8 9.04 8 7 8 C7.66 8.61875 8.32 9.2375 9 9.875 C11 12 11 12 11 14 C6.14329827 13.58269656 3.54863925 11.1999142 0.1875 7.9375 C-0.31458984 7.46505859 -0.81667969 6.99261719 -1.33398438 6.50585938 C-2.56422789 5.34591548 -3.78327065 4.17411185 -5 3 C-4.34 2.67 -3.68 2.34 -3 2 C-2.01 2.33 -1.02 2.66 0 3 C0 2.01 0 1.02 0 0 Z " fill="#1F1917" transform="translate(43,102)"/>
<path d="M0 0 C2.4375 0.5 2.4375 0.5 4.3125 2.125 C5.82526998 5.31862551 5.38507993 7.14702485 4.4375 10.5 C2.4375 12.5 2.4375 12.5 -0.5 12.8125 C-3.5625 12.5 -3.5625 12.5 -5.4375 11.3125 C-6.99573149 8.80201593 -7.05881357 7.40697947 -6.5625 4.5 C-4.54359317 1.7333499 -3.38194377 0.65989147 0 0 Z " fill="#0A110F" transform="translate(106.5625,24.5)"/>
<path d="M0 0 C0.99 0.33 1.98 0.66 3 1 C3 2.98 3 4.96 3 7 C1.35 7.33 -0.3 7.66 -2 8 C-1.67 9.65 -1.34 11.3 -1 13 C-2.98 13.66 -4.96 14.32 -7 15 C-7.33 14.01 -7.66 13.02 -8 12 C-11.11785113 12.64644661 -11.11785113 12.64644661 -12 15 C-14.97 14.505 -14.97 14.505 -18 14 C-18 13.67 -18 13.34 -18 13 C-16.35 13 -14.7 13 -13 13 C-12.67 12.01 -12.34 11.02 -12 10 C-11.01 10 -10.02 10 -9 10 C-8.690625 8.329375 -8.690625 8.329375 -8.375 6.625 C-7.92125 5.42875 -7.4675 4.2325 -7 3 C-3.9375 1.625 -3.9375 1.625 -1 1 C-0.67 0.67 -0.34 0.34 0 0 Z " fill="#1E231B" transform="translate(52,23)"/>
<path d="M0 0 C0.99 0.33 1.98 0.66 3 1 C2.67 3.97 2.34 6.94 2 10 C3.32 10.33 4.64 10.66 6 11 C5.67 12.65 5.34 14.3 5 16 C4.01 16.33 3.02 16.66 2 17 C2 17.99 2 18.98 2 20 C1.01 20 0.02 20 -1 20 C-0.79375 19.484375 -0.5875 18.96875 -0.375 18.4375 C0.15887026 14.96734329 -0.92323239 12.29364209 -2 9 C-3.98 9 -5.96 9 -8 9 C-8 6 -8 6 -6.75 4.375 C-4.81745709 2.85657343 -3.35954211 2.55055983 -1 2 C-0.67 1.34 -0.34 0.68 0 0 Z " fill="#0C3B2C" transform="translate(40,52)"/>
<path d="M0 0 C0.66 1.32 1.32 2.64 2 4 C2.33 3.01 2.66 2.02 3 1 C3.99 1.33 4.98 1.66 6 2 C6.33 2.99 6.66 3.98 7 5 C8.98 4.67 10.96 4.34 13 4 C12.67 5.65 12.34 7.3 12 9 C10.68 9 9.36 9 8 9 C8.99 10.485 8.99 10.485 10 12 C13.58357241 12.25015873 13.58357241 12.25015873 17 12 C16.67 13.32 16.34 14.64 16 16 C13.5502519 16.87491004 12.36551707 17.12900603 9.875 16.25 C8 15 8 15 6 12 C6 11.01 6 10.02 6 9 C4.35 9.33 2.7 9.66 1 10 C0.67 6.7 0.34 3.4 0 0 Z " fill="#741E0F" transform="translate(21,48)"/>
<path d="M0 0 C2.4443896 2.4443896 2.91985673 3.55383944 3 7 C0.625 9.6875 0.625 9.6875 -2 12 C-2.33 12.66 -2.66 13.32 -3 14 C-4.45742463 14.08096803 -5.91612807 14.13917774 -7.375 14.1875 C-8.18710938 14.22230469 -8.99921875 14.25710937 -9.8359375 14.29296875 C-10.55007812 14.19628906 -11.26421875 14.09960938 -12 14 C-12.66 13.01 -13.32 12.02 -14 11 C-13.01 11 -12.02 11 -11 11 C-11 10.34 -11 9.68 -11 9 C-9.21895282 7.39821407 -7.37462722 5.86618074 -5.5 4.375 C-4.4790625 3.55773438 -3.458125 2.74046875 -2.40625 1.8984375 C-1.6121875 1.27195313 -0.818125 0.64546875 0 0 Z " fill="#0C1013" transform="translate(90,49)"/>
<path d="M0 0 C2.5625 0.125 2.5625 0.125 4.5625 1.125 C5.573125 1.125 6.58375 1.125 7.625 1.125 C8.594375 1.125 9.56375 1.125 10.5625 1.125 C10.8925 1.455 11.2225 1.785 11.5625 2.125 C11.47312197 3.65019276 11.31712854 5.17181929 11.125 6.6875 C11.02316406 7.51378906 10.92132813 8.34007813 10.81640625 9.19140625 C10.73261719 9.82949219 10.64882812 10.46757813 10.5625 11.125 C9.5725 11.455 8.5825 11.785 7.5625 12.125 C7.2325 11.135 6.9025 10.145 6.5625 9.125 C3.43602094 6.94613429 3.43602094 6.94613429 0.0625 7.1875 C-2.4375 7.125 -2.4375 7.125 -3.4375 6.125 C-3.5625 3.625 -3.5625 3.625 -3.4375 1.125 C-2.4375 0.125 -2.4375 0.125 0 0 Z " fill="#0E3022" transform="translate(83.4375,87.875)"/>
<path d="M0 0 C1 2 2 4 3 6 C1.68 6 0.36 6 -1 6 C-0.979375 6.721875 -0.95875 7.44375 -0.9375 8.1875 C-0.99829801 10.92341036 -1.42332911 13.33289712 -2 16 C-2 16.66 -2 17.32 -2 18 C-0.68 18 0.64 18 2 18 C2 19.65 2 21.3 2 23 C-1.3125 22.8125 -1.3125 22.8125 -5 22 C-7 19.5625 -7 19.5625 -8 17 C-7.67 16.34 -7.34 15.68 -7 15 C-6.34 15 -5.68 15 -5 15 C-4.67 13.68 -4.34 12.36 -4 11 C-5.65 11 -7.3 11 -9 11 C-9 10.34 -9 9.68 -9 9 C-7.35 9 -5.7 9 -4 9 C-4 8.01 -4 7.02 -4 6 C-5.65 6 -7.3 6 -9 6 C-9 5.67 -9 5.34 -9 5 C-7.02 5 -5.04 5 -3 5 C-3 4.01 -3 3.02 -3 2 C-2.01 1.34 -1.02 0.68 0 0 Z " fill="#1A1A15" transform="translate(45,67)"/>
<path d="M0 0 C0.28875 0.598125 0.5775 1.19625 0.875 1.8125 C2.04742026 4.19327792 2.04742026 4.19327792 4 7 C3.625 9.6875 3.625 9.6875 3 12 C-3.75 14.125 -3.75 14.125 -6 13 C-6 11.68 -6 10.36 -6 9 C-6.99 9 -7.98 9 -9 9 C-9 7.35 -9 5.7 -9 4 C-6.36 3.67 -3.72 3.34 -1 3 C-0.67 2.01 -0.34 1.02 0 0 Z " fill="#631E14" transform="translate(75,80)"/>
<path d="M0 0 C0.66 0 1.32 0 2 0 C2 1.32 2 2.64 2 4 C2.66 4 3.32 4 4 4 C4 2.68 4 1.36 4 0 C5.32 0 6.64 0 8 0 C8.59720137 5.82271337 6.528243 9.9209404 4 15 C2.68 15 1.36 15 0 15 C0.33 13.35 0.66 11.7 1 10 C0.34 10 -0.32 10 -1 10 C-1.02689216 8.52093108 -1.04634621 7.04172517 -1.0625 5.5625 C-1.07410156 4.73878906 -1.08570312 3.91507812 -1.09765625 3.06640625 C-1 1 -1 1 0 0 Z " fill="#2A1611" transform="translate(83,97)"/>
<path d="M0 0 C4 2 4 2 7 4 C9.0492094 4.45139459 9.0492094 4.45139459 11.1875 4.625 C12.445625 4.74875 13.70375 4.8725 15 5 C14 8 14 8 10.75 9.6875 C7.42506872 10.85122595 5.4376816 11.47745578 2 11 C1.01 10.34 0.02 9.68 -1 9 C-0.67 6.03 -0.34 3.06 0 0 Z " fill="#392A18" transform="translate(71,58)"/>
<path d="M0 0 C0.33 1.65 0.66 3.3 1 5 C1.66 3.35 2.32 1.7 3 0 C5.16874252 0.50603992 6.99967627 0.99983813 9 2 C8.34 3.32 7.68 4.64 7 6 C6.01 6 5.02 6 4 6 C4 6.66 4 7.32 4 8 C1.03824877 7.38722388 -0.38058783 6.74627478 -3 5 C-3.33 5.99 -3.66 6.98 -4 8 C-4 7.01 -4 6.02 -4 5 C-4.99 4.67 -5.98 4.34 -7 4 C-7.6875 1.9375 -7.6875 1.9375 -8 0 C-4.94736336 -0.98120464 -3.05263664 -0.98120464 0 0 Z " fill="#11412D" transform="translate(46,97)"/>
<path d="M0 0 C4.21355415 0.72647485 5.94020783 2.5192763 8.38671875 5.9375 C8.81597656 6.618125 9.24523438 7.29875 9.6875 8 C10.12449219 8.680625 10.56148437 9.36125 11.01171875 10.0625 C12 12 12 12 12 15 C10.68 14.67 9.36 14.34 8 14 C7.67 14.66 7.34 15.32 7 16 C5.68 15.67 4.36 15.34 3 15 C3.226875 14.113125 3.45375 13.22625 3.6875 12.3125 C4.0616818 8.34617293 3.19790068 7.21231638 1 4 C0.3125 1.6875 0.3125 1.6875 0 0 Z " fill="#7A140D" transform="translate(31,80)"/>
<path d="M0 0 C-1.52417109 3.04834217 -3.96038723 3.62919424 -7 5 C-9.375 5.6875 -9.375 5.6875 -11 6 C-11.66 8.31 -12.32 10.62 -13 13 C-16.875 12.125 -16.875 12.125 -18 11 C-18.5625 8.75 -18.5625 8.75 -18 6 C-12.43931605 1.24502085 -7.19483151 -0.1635189 0 0 Z " fill="#1B1112" transform="translate(56,21)"/>
<path d="M0 0 C1.05609899 3.16829698 1.13055309 3.98519175 0 7 C-0.495 7.474375 -0.99 7.94875 -1.5 8.4375 C-3.46573078 10.48513623 -3.62668561 12.23747349 -4 15 C-5.98 14.01 -7.96 13.02 -10 12 C-10 9.69 -10 7.38 -10 5 C-11.32 5.33 -12.64 5.66 -14 6 C-14.33 7.98 -14.66 9.96 -15 12 C-16.32 12 -17.64 12 -19 12 C-19 10.68 -19 9.36 -19 8 C-18.34 7.67 -17.68 7.34 -17 7 C-16.67 6.01 -16.34 5.02 -16 4 C-14.0625 3.4375 -14.0625 3.4375 -12 3 C-11.34 2.34 -10.68 1.68 -10 1 C-10 1.99 -10 2.98 -10 4 C-9.01 4.33 -8.02 4.66 -7 5 C-7.33 6.98 -7.66 8.96 -8 11 C-7.01 11 -6.02 11 -5 11 C-4.67 8.69 -4.34 6.38 -4 4 C-3.34 4 -2.68 4 -2 4 C-1.34 2.68 -0.68 1.36 0 0 Z " fill="#181211" transform="translate(73,38)"/>
<path d="M0 0 C3.3 0.66 6.6 1.32 10 2 C10 2.99 10 3.98 10 5 C8.35 5 6.7 5 5 5 C5 5.66 5 6.32 5 7 C6.65 7 8.3 7 10 7 C9.67 8.65 9.34 10.3 9 12 C7.02 11.34 5.04 10.68 3 10 C3 9.34 3 8.68 3 8 C2.34 8 1.68 8 1 8 C-0.0625 6.25 -0.0625 6.25 -1 4 C-0.67 2.68 -0.34 1.36 0 0 Z " fill="#45572C" transform="translate(31,71)"/>
<path d="M0 0 C1.134375 0.020625 2.26875 0.04125 3.4375 0.0625 C3.1075 2.7025 2.7775 5.3425 2.4375 8.0625 C1.7775 8.0625 1.1175 8.0625 0.4375 8.0625 C0.251875 10.0115625 0.251875 10.0115625 0.0625 12 C-0.1484375 14.21484375 -0.1484375 14.21484375 -0.5625 16.0625 C-1.2225 16.3925 -1.8825 16.7225 -2.5625 17.0625 C-2.665625 16.423125 -2.76875 15.78375 -2.875 15.125 C-3.101875 14.444375 -3.32875 13.76375 -3.5625 13.0625 C-4.5525 12.7325 -5.5425 12.4025 -6.5625 12.0625 C-6.5625 10.4125 -6.5625 8.7625 -6.5625 7.0625 C-6.2325 8.3825 -5.9025 9.7025 -5.5625 11.0625 C-4.5725 10.7325 -3.5825 10.4025 -2.5625 10.0625 C-2.706875 9.505625 -2.85125 8.94875 -3 8.375 C-3.59209725 5.94082241 -4.16136767 3.53614935 -4.5625 1.0625 C-3.5625 0.0625 -3.5625 0.0625 0 0 Z " fill="#301F17" transform="translate(48.5625,49.9375)"/>
<path d="M0 0 C1.32 0 2.64 0 4 0 C3.9278125 0.68707031 3.855625 1.37414062 3.78125 2.08203125 C3.6884375 2.98308594 3.595625 3.88414063 3.5 4.8125 C3.4071875 5.70582031 3.314375 6.59914063 3.21875 7.51953125 C2.95607599 10.08305099 2.95607599 10.08305099 3 13 C2.67 12.67 2.34 12.34 2 12 C-1.63194641 11.80850919 -1.63194641 11.80850919 -5 13 C-5.66 11.35 -6.32 9.7 -7 8 C-6.030625 7.608125 -5.06125 7.21625 -4.0625 6.8125 C-0.77823609 5.32405113 -0.77823609 5.32405113 -0.125 2.3125 C-0.08375 1.549375 -0.0425 0.78625 0 0 Z " fill="#17231B" transform="translate(84,77)"/>
<path d="M0 0 C1.98 0.66 3.96 1.32 6 2 C5.67 4.31 5.34 6.62 5 9 C1.37 8.67 -2.26 8.34 -6 8 C-5.34 6.35 -4.68 4.7 -4 3 C-3.01 3 -2.02 3 -1 3 C-0.67 2.01 -0.34 1.02 0 0 Z " fill="#7E150E" transform="translate(24,76)"/>
<path d="M0 0 C1.65 1.65 3.3 3.3 5 5 C5.66 4.34 6.32 3.68 7 3 C7.93402724 8.41735797 8.20808081 11.80451575 6 17 C5.01 16.67 4.02 16.34 3 16 C2.86722656 15.18015625 2.73445313 14.3603125 2.59765625 13.515625 C2.42105469 12.43796875 2.24445313 11.3603125 2.0625 10.25 C1.88847656 9.18265625 1.71445313 8.1153125 1.53515625 7.015625 C1.11295829 4.63652407 0.62797116 2.33084789 0 0 Z " fill="#292117" transform="translate(90,43)"/>
<path d="M0 0 C0.99 0 1.98 0 3 0 C3.99 1.98 4.98 3.96 6 6 C6.99 6 7.98 6 9 6 C9 6.66 9 7.32 9 8 C10.65 8.33 12.3 8.66 14 9 C14 10.32 14 11.64 14 13 C8.64545455 12.65454545 8.64545455 12.65454545 6 12 C4.8125 10.25 4.8125 10.25 4 8 C2.37253306 6.29503463 0.71108689 4.62102968 -1 3 C-0.67 2.01 -0.34 1.02 0 0 Z " fill="#0F3019" transform="translate(24,57)"/>
<path d="M0 0 C2.33944736 0.28730055 4.6739143 0.61936779 7 1 C7.125 3.875 7.125 3.875 7 7 C5 9 5 9 2.4375 9.1875 C0 9 0 9 -1 8 C-1.125 4.5 -1.125 4.5 -1 1 C-0.67 0.67 -0.34 0.34 0 0 Z " fill="#CC1505" transform="translate(93,18)"/>
<path d="M0 0 C-0.82417393 4.4505392 -2.69787334 7.77925626 -6 10.875 C-6.99 11.431875 -6.99 11.431875 -8 12 C-8.99 11.67 -9.98 11.34 -11 11 C-10.26313038 7.85860847 -9.43565659 4.89780131 -8 2 C-5.09020937 0.51541295 -3.22901135 0 0 0 Z " fill="#111A18" transform="translate(83,33)"/>
<path d="M0 0 C2.31 1.98 4.62 3.96 7 6 C6.01 6.495 6.01 6.495 5 7 C5 7.99 5 8.98 5 10 C2.03 9.67 -0.94 9.34 -4 9 C-3.08541782 5.34167128 -1.99523834 3.12298174 0 0 Z " fill="#1A1110" transform="translate(84,32)"/>
<path d="M0 0 C1.65 0 3.3 0 5 0 C5 1.32 5 2.64 5 4 C6.32 4.66 7.64 5.32 9 6 C8.67 7.32 8.34 8.64 8 10 C6.02 10 4.04 10 2 10 C0.68373308 6.38026598 0 3.90432869 0 0 Z " fill="#BA160A" transform="translate(65,106)"/>
<path d="M0 0 C2 1 2 1 3.125 3.8125 C4 7 4 7 4 11 C2.02 11.33 0.04 11.66 -2 12 C-2.79953138 8.71303767 -3.09658936 7.28976808 -2 4 C-2 3.01 -2 2.02 -2 1 C-1.34 0.67 -0.68 0.34 0 0 Z " fill="#097051" transform="translate(61,103)"/>
<path d="M0 0 C0.99 0 1.98 0 3 0 C2.39913761 3.51820741 1.06784372 5.50182456 -1.25 8.1875 C-1.83265625 8.88230469 -2.4153125 9.57710937 -3.015625 10.29296875 C-5.33916603 12.29176291 -6.99226639 12.65255491 -10 13 C-8.60366893 9.81440048 -6.95442507 7.76056155 -4.4375 5.375 C-1.85984611 2.95478041 -1.85984611 2.95478041 0 0 Z " fill="#CF1809" transform="translate(86,46)"/>
<path d="M0 0 C0.66 0.33 1.32 0.66 2 1 C2.05422947 2.4370809 2.09289723 3.87475462 2.125 5.3125 C2.14820312 6.11300781 2.17140625 6.91351563 2.1953125 7.73828125 C2 10 2 10 0 13 C0 12.01 0 11.02 0 10 C-1.65 10.33 -3.3 10.66 -5 11 C-5.39169887 8.33644766 -5.40564529 6.60775627 -3.88671875 4.33203125 C-2.63610683 2.8489112 -1.32135486 1.42045648 0 0 Z " fill="#0A0E0F" transform="translate(101,86)"/>
<path d="M0 0 C1.65 0.33 3.3 0.66 5 1 C5 1.66 5 2.32 5 3 C6.65 3 8.3 3 10 3 C10 4.65 10 6.3 10 8 C8.35 8 6.7 8 5 8 C4.67 7.01 4.34 6.02 4 5 C2.35 5 0.7 5 -1 5 C-0.67 3.35 -0.34 1.7 0 0 Z " fill="#224134" transform="translate(67,100)"/>
<path d="M0 0 C3.473489 -0.31577173 5.37563521 -0.4218681 8.3125 1.5625 C10.52899129 4.76409854 10.92959373 7.12765506 11 11 C9.5625 12.9375 9.5625 12.9375 8 14 C7.34 13.67 6.68 13.34 6 13 C6.33 10.03 6.66 7.06 7 4 C5.35 3.67 3.7 3.34 2 3 C2 2.34 2 1.68 2 1 C1.34 0.67 0.68 0.34 0 0 Z " fill="#281111" transform="translate(93,15)"/>
<path d="M0 0 C3.16115776 1.36983503 3.9927092 1.9890638 6 5 C6 5.99 6 6.98 6 8 C4.35 8.33 2.7 8.66 1 9 C-0.98 6.69 -2.96 4.38 -5 2 C-2.525 2.495 -2.525 2.495 0 3 C0 2.01 0 1.02 0 0 Z " fill="#251F18" transform="translate(43,102)"/>
<path d="M0 0 C0.66 0 1.32 0 2 0 C2.625 3.375 2.625 3.375 3 7 C2.34 7.66 1.68 8.32 1 9 C0.01 8.67 -0.98 8.34 -2 8 C-2.33 8.99 -2.66 9.98 -3 11 C-3.66 11 -4.32 11 -5 11 C-5.33 11.99 -5.66 12.98 -6 14 C-6.66 12.68 -7.32 11.36 -8 10 C-7.06220703 9.87625 -7.06220703 9.87625 -6.10546875 9.75 C-3.85566245 9.20917799 -3.85566245 9.20917799 -2.98828125 7.1875 C-2.76527344 6.465625 -2.54226562 5.74375 -2.3125 5 C-1.04986877 1.04986877 -1.04986877 1.04986877 0 0 Z " fill="#632C12" transform="translate(37,47)"/>
<path d="M0 0 C2.625 0.375 2.625 0.375 5 1 C5.33 2.65 5.66 4.3 6 6 C3 8 3 8 0.8125 7.625 C0.214375 7.41875 -0.38375 7.2125 -1 7 C-1.625 4.625 -1.625 4.625 -2 2 C-1.34 1.34 -0.68 0.68 0 0 Z " fill="#DF5D0C" transform="translate(48,36)"/>
<path d="M0 0 C0.38218767 1.65614657 0.71395102 3.32457024 1 5 C0 6 0 6 -3 6.125 C-6 6 -6 6 -7 5 C-7.04063832 3.33382885 -7.042721 1.66611905 -7 0 C-4.3333581 -1.33332095 -2.83319697 -0.67102033 0 0 Z " fill="#E1670C" transform="translate(78,86)"/>
<path d="M0 0 C2.5625 0.1875 2.5625 0.1875 4.5625 2.1875 C4.02678571 5.72321429 4.02678571 5.72321429 2.5625 7.1875 C0.0625 7.3125 0.0625 7.3125 -2.4375 7.1875 C-3.4375 6.1875 -3.4375 6.1875 -3.5625 3.6875 C-3.39599509 0.35740177 -3.31519894 0.2550153 0 0 Z " fill="#077221" transform="translate(83.4375,87.8125)"/>
<path d="M0 0 C0.36075949 5.41139241 0.36075949 5.41139241 -1.1875 7.9375 C-3 9 -3 9 -5.6875 8.6875 C-6.450625 8.460625 -7.21375 8.23375 -8 8 C-7.65978036 4.82461668 -6.97533396 3.97723135 -4.5625 1.75 C-2 0 -2 0 0 0 Z " fill="#56120F" transform="translate(101,96)"/>
<path d="M0 0 C0 1.98 0 3.96 0 6 C-3.96 7.98 -3.96 7.98 -8 10 C-8.3125 7.8125 -8.3125 7.8125 -8 5 C-3.88888889 0 -3.88888889 0 0 0 Z " fill="#8C2B0F" transform="translate(33,38)"/>
<path d="M0 0 C2.33672984 0.3086247 4.66993089 0.64456573 7 1 C8.32 1 9.64 1 11 1 C10.67 2.32 10.34 3.64 10 5 C6.37 5 2.74 5 -1 5 C-1 1 -1 1 0 0 Z " fill="#124B39" transform="translate(71,67)"/>
<path d="M0 0 C1.67542976 0.28604898 3.34385343 0.61781233 5 1 C4.67 2.65 4.34 4.3 4 6 C3.01 6.33 2.02 6.66 1 7 C1 7.99 1 8.98 1 10 C0.01 10 -0.98 10 -2 10 C-1.85950482 8.52031676 -1.71245174 7.04125484 -1.5625 5.5625 C-1.48128906 4.73878906 -1.40007813 3.91507812 -1.31640625 3.06640625 C-1 1 -1 1 0 0 Z " fill="#095B23" transform="translate(41,62)"/>
<path d="M0 0 C2.5 0.125 2.5 0.125 3.5 1.125 C3.625 3.625 3.625 3.625 3.5 6.125 C2.5 7.125 2.5 7.125 0 7.25 C-2.5 7.125 -2.5 7.125 -3.5 6.125 C-3.625 3.625 -3.625 3.625 -3.5 1.125 C-2.5 0.125 -2.5 0.125 0 0 Z " fill="#EB850C" transform="translate(54.5,50.875)"/>
<path d="M0 0 C2.5 0.125 2.5 0.125 3.5 1.125 C3.625 3.625 3.625 3.625 3.5 6.125 C2.5 7.125 2.5 7.125 0 7.25 C-2.5 7.125 -2.5 7.125 -3.5 6.125 C-3.625 3.625 -3.625 3.625 -3.5 1.125 C-2.5 0.125 -2.5 0.125 0 0 Z " fill="#EB5C0B" transform="translate(67.5,28.875)"/>
<path d="M0 0 C2.625 0.375 2.625 0.375 5 1 C5 2.98 5 4.96 5 7 C3.02 7 1.04 7 -1 7 C-1.625 4.625 -1.625 4.625 -2 2 C-1.34 1.34 -0.68 0.68 0 0 Z " fill="#EE6C0B" transform="translate(50,82)"/>
<path d="M0 0 C2.64 0 5.28 0 8 0 C6.75023244 3.65316671 6.32901247 4.78065836 3 7 C3 6.34 3 5.68 3 5 C1.68 5 0.36 5 -1 5 C-0.67 3.35 -0.34 1.7 0 0 Z " fill="#0F1614" transform="translate(90,104)"/>
<path d="M0 0 C1.76462683 3.08809695 2 4.23312136 2 8 C-4.75 10.125 -4.75 10.125 -7 9 C-7 7 -7 7 -4.625 4.5 C-3.75875 3.675 -2.8925 2.85 -2 2 C-1.34 1.34 -0.68 0.68 0 0 Z " fill="#10241F" transform="translate(37,28)"/>
<path d="M0 0 C2.125 0.375 2.125 0.375 4 1 C4.38218767 2.65614657 4.71395102 4.32457024 5 6 C4 7 4 7 1.4375 7.0625 C0.2309375 7.0315625 0.2309375 7.0315625 -1 7 C-1.625 4.625 -1.625 4.625 -2 2 C-1.34 1.34 -0.68 0.68 0 0 Z " fill="#07551E" transform="translate(104,27)"/>
<path d="M0 0 C1.8125 0.1875 1.8125 0.1875 4 1 C5.98129161 3.52785481 7.08370814 4.99550233 6.8125 8.25 C6 10 6 10 4 11 C3.896875 10.360625 3.79375 9.72125 3.6875 9.0625 C3.460625 8.381875 3.23375 7.70125 3 7 C2.01 6.67 1.02 6.34 0 6 C0 4.02 0 2.04 0 0 Z " fill="#150E0F" transform="translate(96,77)"/>
<path d="M0 0 C2.2109885 0.42793326 3.98119242 0.99059621 6 2 C5.34 3.32 4.68 4.64 4 6 C3.01 6 2.02 6 1 6 C1 6.66 1 7.32 1 8 C0.01 8 -0.98 8 -2 8 C-1.125 1.125 -1.125 1.125 0 0 Z " fill="#105349" transform="translate(49,97)"/>
<path d="M0 0 C1.67542976 0.28604898 3.34385343 0.61781233 5 1 C5.625 2.875 5.625 2.875 6 5 C5.34 5.66 4.68 6.32 4 7 C1.875 6.625 1.875 6.625 0 6 C-0.38218767 4.34385343 -0.71395102 2.67542976 -1 1 C-0.67 0.67 -0.34 0.34 0 0 Z " fill="#C61709" transform="translate(54,65)"/>
<path d="M0 0 C1.32 0.33 2.64 0.66 4 1 C4.625 3.375 4.625 3.375 5 6 C4.34 6.66 3.68 7.32 3 8 C0.375 7.625 0.375 7.625 -2 7 C-2.33 5.35 -2.66 3.7 -3 2 C-2.34 2 -1.68 2 -1 2 C-1 2.99 -1 3.98 -1 5 C-0.01 5 0.98 5 2 5 C2 4.01 2 3.02 2 2 C1.34 2 0.68 2 0 2 C0 1.34 0 0.68 0 0 Z " fill="#230C10" transform="translate(100,37)"/>
<path d="M0 0 C0.33 0.99 0.66 1.98 1 3 C1.99 3.33 2.98 3.66 4 4 C3.34 5.65 2.68 7.3 2 9 C1.67 9 1.34 9 1 9 C1 7.35 1 5.7 1 4 C-0.32 4.33 -1.64 4.66 -3 5 C-3.33 6.98 -3.66 8.96 -4 11 C-5.32 11 -6.64 11 -8 11 C-8 9.68 -8 8.36 -8 7 C-7.34 6.67 -6.68 6.34 -6 6 C-5.67 5.01 -5.34 4.02 -5 3 C-3.67696283 2.6278958 -2.34262065 2.29369827 -1 2 C-0.67 1.34 -0.34 0.68 0 0 Z " fill="#0B1E1D" transform="translate(62,39)"/>
<path d="M0 0 C1.42944945 2.35438733 2.08661261 3.48032433 1.625 6.25 C1.41875 6.8275 1.2125 7.405 1 8 C1.66 8 2.32 8 3 8 C3 8.99 3 9.98 3 11 C2.01 11 1.02 11 0 11 C0 10.01 0 9.02 0 8 C-1.32 7.67 -2.64 7.34 -4 7 C-3.01 7 -2.02 7 -1 7 C-1 6.34 -1 5.68 -1 5 C-2.32 5 -3.64 5 -5 5 C-4.67 3.68 -4.34 2.36 -4 1 C-3.01 1.33 -2.02 1.66 -1 2 C-0.67 1.34 -0.34 0.68 0 0 Z " fill="#792910" transform="translate(99,31)"/>
<path d="M0 0 C1.98 0 3.96 0 6 0 C6.38218767 1.65614657 6.71395102 3.32457024 7 5 C6 6 6 6 3.5 6.125 C1 6 1 6 0 5 C-0.04063832 3.33382885 -0.042721 1.66611905 0 0 Z " fill="#CE1507" transform="translate(56,23)"/>
<path d="M0 0 C1.65 0.33 3.3 0.66 5 1 C5.625 2.875 5.625 2.875 6 5 C5.34 5.66 4.68 6.32 4 7 C1.875 6.625 1.875 6.625 0 6 C-1.125 2.25 -1.125 2.25 0 0 Z " fill="#C21608" transform="translate(87,82)"/>
<path d="M0 0 C-0.33 1.65 -0.66 3.3 -1 5 C-2.65 5 -4.3 5 -6 5 C-6.33 3.35 -6.66 1.7 -7 0 C-4.3333581 -1.33332095 -2.83319697 -0.67102033 0 0 Z " fill="#086246" transform="translate(63,59)"/>
<path d="M0 0 C1.65 0 3.3 0 5 0 C5.33 1.65 5.66 3.3 6 5 C3.625 5.625 3.625 5.625 1 6 C0.34 5.34 -0.32 4.68 -1 4 C-0.625 1.875 -0.625 1.875 0 0 Z " fill="#075E3B" transform="translate(50,30)"/>
<path d="M0 0 C2.31 0.33 4.62 0.66 7 1 C7 2.65 7 4.3 7 6 C4.69 5.67 2.38 5.34 0 5 C0 3.35 0 1.7 0 0 Z " fill="#0F4736" transform="translate(40,84)"/>
<path d="M0 0 C2.0625 0.4375 2.0625 0.4375 4 1 C4.625 2.875 4.625 2.875 5 5 C4.34 5.66 3.68 6.32 3 7 C0.875 6.625 0.875 6.625 -1 6 C-1.042721 4.33388095 -1.04063832 2.66617115 -1 1 C-0.67 0.67 -0.34 0.34 0 0 Z " fill="#C41708" transform="translate(77,78)"/>
<path d="M0 0 C0.66 1.32 1.32 2.64 2 4 C2.94875 3.938125 3.8975 3.87625 4.875 3.8125 C5.90625 3.874375 6.9375 3.93625 8 4 C8.99 5.485 8.99 5.485 10 7 C9.01 8.485 9.01 8.485 8 10 C7.67 9.34 7.34 8.68 7 8 C4.87423218 7.53348793 4.87423218 7.53348793 2.4375 7.375 C1.61121094 7.30023438 0.78492188 7.22546875 -0.06640625 7.1484375 C-0.70449219 7.09945312 -1.34257813 7.05046875 -2 7 C-1.34 4.69 -0.68 2.38 0 0 Z " fill="#0C1314" transform="translate(61,66)"/>
<path d="M0 0 C2.0625 0.4375 2.0625 0.4375 4 1 C3.67 2.98 3.34 4.96 3 7 C1.35 6.67 -0.3 6.34 -2 6 C-1.125 1.125 -1.125 1.125 0 0 Z " fill="#0A734D" transform="translate(64,64)"/>
<path d="M0 0 C1.32 0 2.64 0 4 0 C4 2.31 4 4.62 4 7 C2.35 7 0.7 7 -1 7 C-1.04254356 5.00045254 -1.04080783 2.99958364 -1 1 C-0.67 0.67 -0.34 0.34 0 0 Z " fill="#086744" transform="translate(59,43)"/>
<path d="M0 0 C1.98 0 3.96 0 6 0 C6 1.65 6 3.3 6 5 C4.34385343 5.38218767 2.67542976 5.71395102 1 6 C0 5 0 5 -0.0625 2.4375 C-0.041875 1.633125 -0.02125 0.82875 0 0 Z " fill="#075F3D" transform="translate(56,36)"/>
<path d="M0 0 C1.65 0.33 3.3 0.66 5 1 C5 1.99 5 2.98 5 4 C3.02 4.99 1.04 5.98 -1 7 C-1 6.34 -1 5.68 -1 5 C-2.65 5.33 -4.3 5.66 -6 6 C-5.67 4.68 -5.34 3.36 -5 2 C-5 2.66 -5 3.32 -5 4 C-3.01508358 3.73323796 -3.01508358 3.73323796 -1 3 C-0.67 2.01 -0.34 1.02 0 0 Z " fill="#251412" transform="translate(88,108)"/>
<path d="M0 0 C2.1519437 3.22791555 2.20086443 4.28400809 2 8 C1.01 7.67 0.02 7.34 -1 7 C-0.34 6.01 0.32 5.02 1 4 C-1.97 3.505 -1.97 3.505 -5 3 C-5 4.32 -5 5.64 -5 7 C-5.66 7 -6.32 7 -7 7 C-7.66 5.02 -8.32 3.04 -9 1 C-5.94152152 0.45627049 -3.11227195 0 0 0 Z " fill="#151918" transform="translate(54,95)"/>
<path d="M0 0 C1.65 0 3.3 0 5 0 C5.33 1.32 5.66 2.64 6 4 C5.01 4.33 4.02 4.66 3 5 C3 6.65 3 8.3 3 10 C2.67 10 2.34 10 2 10 C1.9175 9.21625 1.835 8.4325 1.75 7.625 C1.27193661 4.85250896 1.27193661 4.85250896 -1.0625 3.6875 C-1.701875 3.460625 -2.34125 3.23375 -3 3 C-1.68 3 -0.36 3 1 3 C0.67 2.01 0.34 1.02 0 0 Z " fill="#841E10" transform="translate(53,78)"/>
<path d="M0 0 C1.67542976 0.28604898 3.34385343 0.61781233 5 1 C5 2.65 5 4.3 5 6 C3.35 6 1.7 6 0 6 C-0.38218767 4.34385343 -0.71395102 2.67542976 -1 1 C-0.67 0.67 -0.34 0.34 0 0 Z " fill="#0B724E" transform="translate(69,78)"/>
<path d="M0 0 C1.65 0.33 3.3 0.66 5 1 C4.67 2.65 4.34 4.3 4 6 C2.35 5.67 0.7 5.34 -1 5 C-0.67 3.35 -0.34 1.7 0 0 Z " fill="#C2180A" transform="translate(43,78)"/>
<path d="M0 0 C1.65 0.33 3.3 0.66 5 1 C4.67 2.65 4.34 4.3 4 6 C2.35 5.67 0.7 5.34 -1 5 C-0.67 3.35 -0.34 1.7 0 0 Z " fill="#F16D0A" transform="translate(49,59)"/>
<path d="M0 0 C1.65 0.33 3.3 0.66 5 1 C4.67 2.65 4.34 4.3 4 6 C2.35 5.67 0.7 5.34 -1 5 C-0.67 3.35 -0.34 1.7 0 0 Z " fill="#09764C" transform="translate(63,51)"/>
<path d="M0 0 C0.66 0 1.32 0 2 0 C2 3.63 2 7.26 2 11 C1.01 11 0.02 11 -1 11 C-1.02688151 9.35425434 -1.04634123 7.70838587 -1.0625 6.0625 C-1.07410156 5.14597656 -1.08570312 4.22945312 -1.09765625 3.28515625 C-1 1 -1 1 0 0 Z " fill="#D77F10" transform="translate(71,45)"/>
<path d="M0 0 C2.0625 0.4375 2.0625 0.4375 4 1 C3.67 2.65 3.34 4.3 3 6 C1.35 6 -0.3 6 -2 6 C-1.125 1.125 -1.125 1.125 0 0 Z " fill="#0A6A20" transform="translate(78,109)"/>
<path d="M0 0 C2.0625 0.4375 2.0625 0.4375 4 1 C4 2.65 4 4.3 4 6 C2.0625 6.5625 2.0625 6.5625 0 7 C-1 6 -1 6 -1.125 3.5 C-1 1 -1 1 0 0 Z " fill="#097351" transform="translate(76,95)"/>
<path d="M0 0 C0 2.31 0 4.62 0 7 C-1.65 7 -3.3 7 -5 7 C-5.33 5.02 -5.66 3.04 -6 1 C-1.125 0 -1.125 0 0 0 Z " fill="#24392B" transform="translate(56,88)"/>
<path d="M0 0 C0.33 0.66 0.66 1.32 1 2 C1.66 2.33 2.32 2.66 3 3 C2.125 7.75 2.125 7.75 1 10 C0.01 9.67 -0.98 9.34 -2 9 C-2 7.35 -2 5.7 -2 4 C-2.66 3.67 -3.32 3.34 -4 3 C-2.68 2.67 -1.36 2.34 0 2 C0 1.34 0 0.68 0 0 Z " fill="#0C1311" transform="translate(90,73)"/>
<path d="M0 0 C2.5 2.0625 2.5 2.0625 5 5 C5.3125 8.8125 5.3125 8.8125 5 12 C4.01 12 3.02 12 2 12 C1.34 8.04 0.68 4.08 0 0 Z " fill="#C94A0E" transform="translate(90,43)"/>
<path d="M0 0 C0.66 0.33 1.32 0.66 2 1 C3.37342831 1.0689472 4.75002102 1.08467708 6.125 1.0625 C7.40375 1.041875 8.6825 1.02125 10 1 C10 1.99 10 2.98 10 4 C5.71 4 1.42 4 -3 4 C-2.01 2.68 -1.02 1.36 0 0 Z " fill="#0B0911" transform="translate(65,114)"/>
<path d="M0 0 C0.66 0 1.32 0 2 0 C2.33 2.97 2.66 5.94 3 9 C1.68 9 0.36 9 -1 9 C-1.09765625 2.84765625 -1.09765625 2.84765625 -1 1 C-0.67 0.67 -0.34 0.34 0 0 Z " fill="#A72E0F" transform="translate(83,97)"/>
<path d="M0 0 C2.0625 0.4375 2.0625 0.4375 4 1 C4 1.99 4 2.98 4 4 C3.01 4.495 3.01 4.495 2 5 C2 6.65 2 8.3 2 10 C1.34 10 0.68 10 0 10 C-0.19412181 8.52168779 -0.38012131 7.04230684 -0.5625 5.5625 C-0.66691406 4.73878906 -0.77132812 3.91507812 -0.87890625 3.06640625 C-0.91886719 2.38449219 -0.95882812 1.70257813 -1 1 C-0.67 0.67 -0.34 0.34 0 0 Z " fill="#50100E" transform="translate(82,73)"/>
<path d="M0 0 C3.3 0 6.6 0 10 0 C10 0.99 10 1.98 10 3 C6.7 3 3.4 3 0 3 C0 2.01 0 1.02 0 0 Z " fill="#CA610E" transform="translate(58,74)"/>
<path d="M0 0 C2.0625 0.4375 2.0625 0.4375 4 1 C4.33 2.32 4.66 3.64 5 5 C3.35 5.33 1.7 5.66 0 6 C-0.38218767 4.34385343 -0.71395102 2.67542976 -1 1 C-0.67 0.67 -0.34 0.34 0 0 Z " fill="#0A7A57" transform="translate(47,66)"/>
<path d="M0 0 C1.98 0 3.96 0 6 0 C6 1.65 6 3.3 6 5 C4.35 5 2.7 5 1 5 C0.67 3.35 0.34 1.7 0 0 Z " fill="#0A7654" transform="translate(60,78)"/>
<path d="M0 0 C2.475 0.495 2.475 0.495 5 1 C5.33 1.99 5.66 2.98 6 4 C5.67 4.66 5.34 5.32 5 6 C3.68 6 2.36 6 1 6 C0.67 4.02 0.34 2.04 0 0 Z " fill="#0C6340" transform="translate(91,77)"/>
<path d="M0 0 C0 1.65 0 3.3 0 5 C-1.875 5.625 -1.875 5.625 -4 6 C-4.66 5.34 -5.32 4.68 -6 4 C-6 3.01 -6 2.02 -6 1 C-3 0 -3 0 0 0 Z " fill="#06501B" transform="translate(34,45)"/>
<path d="M0 0 C1.32 0.33 2.64 0.66 4 1 C4.33 2.32 4.66 3.64 5 5 C4.01 5 3.02 5 2 5 C1.67 5.99 1.34 6.98 1 8 C1 6.68 1 5.36 1 4 C-0.65 4.33 -2.3 4.66 -4 5 C-3.67 4.34 -3.34 3.68 -3 3 C-2.01 3 -1.02 3 0 3 C0 2.01 0 1.02 0 0 Z " fill="#0D4732" transform="translate(33,41)"/>
<path d="M0 0 C0.66 0 1.32 0 2 0 C2.66 0.99 3.32 1.98 4 3 C6.05925139 3.72382467 6.05925139 3.72382467 8 4 C7.34 5.65 6.68 7.3 6 9 C5.34 8.34 4.68 7.68 4 7 C2.68252676 6.30251417 1.35085807 5.63040043 0 5 C0 3.35 0 1.7 0 0 Z " fill="#1B1212" transform="translate(69,105)"/>
<path d="M0 0 C1.65 0.33 3.3 0.66 5 1 C5 2.32 5 3.64 5 5 C3.02 5 1.04 5 -1 5 C-0.67 3.35 -0.34 1.7 0 0 Z " fill="#CF1607" transform="translate(52,104)"/>
<path d="M0 0 C0 1.98 0 3.96 0 6 C-0.33 5.01 -0.66 4.02 -1 3 C-1.66 3 -2.32 3 -3 3 C-3.33 3.66 -3.66 4.32 -4 5 C-4 4.34 -4 3.68 -4 3 C-4.99 2.67 -5.98 2.34 -7 2 C-7 1.34 -7 0.68 -7 0 C-3.86650268 -1.04449911 -3.01031744 -0.93423645 0 0 Z " fill="#153A32" transform="translate(75,94)"/>
<path d="M0 0 C1.98 0.495 1.98 0.495 4 1 C4 2.65 4 4.3 4 6 C2.35 5.67 0.7 5.34 -1 5 C-0.67 3.35 -0.34 1.7 0 0 Z " fill="#BF1609" transform="translate(96,83)"/>
<path d="M0 0 C1.65 0 3.3 0 5 0 C5.33 1.32 5.66 2.64 6 4 C4.35 4.33 2.7 4.66 1 5 C0.67 3.35 0.34 1.7 0 0 Z " fill="#C21609" transform="translate(74,30)"/>
<path d="M0 0 C1.32 0 2.64 0 4 0 C4 1.98 4 3.96 4 6 C2.68 6.33 1.36 6.66 0 7 C0 4.69 0 2.38 0 0 Z " fill="#A74E13" transform="translate(87,97)"/>
<path d="M0 0 C0.99 0.33 1.98 0.66 3 1 C2.125 5.75 2.125 5.75 1 8 C0.01 7.67 -0.98 7.34 -2 7 C-1.34 4.69 -0.68 2.38 0 0 Z " fill="#0D6747" transform="translate(40,52)"/>
<path d="M0 0 C3.16115776 1.36983503 3.9927092 1.9890638 6 5 C6 5.99 6 6.98 6 8 C2.83884224 6.63016497 2.0072908 6.0109362 0 3 C0 2.01 0 1.02 0 0 Z " fill="#D06F12" transform="translate(43,102)"/>
<path d="M0 0 C0.33 0 0.66 0 1 0 C1.6875 3.3125 1.6875 3.3125 2 7 C0.625 8.75 0.625 8.75 -1 10 C-1.33 10.99 -1.66 11.98 -2 13 C-2.99 12.67 -3.98 12.34 -5 12 C-4.67 11.01 -4.34 10.02 -4 9 C-3.34 8.67 -2.68 8.34 -2 8 C-1.31527335 6.11235097 -1.31527335 6.11235097 -0.875 3.9375 C-0.62363281 2.83728516 -0.62363281 2.83728516 -0.3671875 1.71484375 C-0.24601562 1.14894531 -0.12484375 0.58304687 0 0 Z " fill="#0E0E0F" transform="translate(95,91)"/>
<path d="M0 0 C0.66 0 1.32 0 2 0 C2.66 1.65 3.32 3.3 4 5 C2.68 5.33 1.36 5.66 0 6 C-0.33 5.34 -0.66 4.68 -1 4 C-3.02463255 3.34786708 -3.02463255 3.34786708 -5 3 C-5.33 4.32 -5.66 5.64 -6 7 C-6 5.35 -6 3.7 -6 2 C-4.02 2 -2.04 2 0 2 C0 1.34 0 0.68 0 0 Z " fill="#191612" transform="translate(72,97)"/>
<path d="M0 0 C2.16874252 0.50603992 3.99967627 0.99983813 6 2 C6 3.32 6 4.64 6 6 C3.13275314 5.42655063 2.1385485 5.1385485 0 3 C0 2.01 0 1.02 0 0 Z " fill="#CA1509" transform="translate(31,80)"/>
<path d="M0 0 C1.32 0 2.64 0 4 0 C4 1.65 4 3.3 4 5 C2.35 5 0.7 5 -1 5 C-0.67 3.35 -0.34 1.7 0 0 Z " fill="#EA510A" transform="translate(73,103)"/>
<path d="M0 0 C0.66 0 1.32 0 2 0 C2 1.98 2 3.96 2 6 C0.68 6.33 -0.64 6.66 -2 7 C-2.125 4.625 -2.125 4.625 -2 2 C-1.34 1.34 -0.68 0.68 0 0 Z " fill="#095B1C" transform="translate(98,90)"/>
<path d="M0 0 C1.9375 0.6875 1.9375 0.6875 4 2 C4.75 4.625 4.75 4.625 5 7 C3.68 6.67 2.36 6.34 1 6 C0.67 4.02 0.34 2.04 0 0 Z " fill="#B6150B" transform="translate(38,88)"/>
<path d="M0 0 C1.32 0 2.64 0 4 0 C4 1.65 4 3.3 4 5 C2.35 5 0.7 5 -1 5 C-0.67 3.35 -0.34 1.7 0 0 Z " fill="#094D1E" transform="translate(84,77)"/>
<path d="M0 0 C0.66 0 1.32 0 2 0 C1.25 4.75 1.25 4.75 -1 7 C-1.99 7 -2.98 7 -4 7 C-2.92598892 4.08482708 -2.22189824 2.22189824 0 0 Z " fill="#0A5C1C" transform="translate(91,56)"/>
<path d="M0 0 C2.31 0.33 4.62 0.66 7 1 C7.33 1.99 7.66 2.98 8 4 C5.36 3.67 2.72 3.34 0 3 C0 2.01 0 1.02 0 0 Z " fill="#D74C0E" transform="translate(80,38)"/>
<path d="M0 0 C1.32 0 2.64 0 4 0 C3.67 1.65 3.34 3.3 3 5 C1.68 5 0.36 5 -1 5 C-0.67 3.35 -0.34 1.7 0 0 Z " fill="#C0160A" transform="translate(46,91)"/>
<path d="M0 0 C0.99 0 1.98 0 3 0 C4.0625 2.375 4.0625 2.375 5 5 C4.67 5.66 4.34 6.32 4 7 C3.34 7 2.68 7 2 7 C0.3125 5.1875 0.3125 5.1875 -1 3 C-0.67 2.01 -0.34 1.02 0 0 Z " fill="#280E10" transform="translate(24,57)"/>
<path d="M0 0 C1.32 0 2.64 0 4 0 C3.67 1.65 3.34 3.3 3 5 C1.68 5 0.36 5 -1 5 C-0.67 3.35 -0.34 1.7 0 0 Z " fill="#C3160A" transform="translate(30,52)"/>
<path d="M0 0 C1.98 0.495 1.98 0.495 4 1 C4 2.32 4 3.64 4 5 C2.35 5 0.7 5 -1 5 C-0.67 3.35 -0.34 1.7 0 0 Z " fill="#0B7154" transform="translate(45,50)"/>
<path d="M0 0 C1.98 0.495 1.98 0.495 4 1 C4 2.32 4 3.64 4 5 C2.35 5 0.7 5 -1 5 C-0.67 3.35 -0.34 1.7 0 0 Z " fill="#C8140A" transform="translate(49,45)"/>
<path d="M0 0 C0.99 0 1.98 0 3 0 C2.75 1.875 2.75 1.875 2 4 C-0.0625 5.25 -0.0625 5.25 -2 6 C-2 2 -2 2 0 0 Z " fill="#0C6247" transform="translate(75,39)"/>
<path d="M0 0 C1.98 0 3.96 0 6 0 C6.33 1.32 6.66 2.64 7 4 C4.03 3.505 4.03 3.505 1 3 C0.67 2.01 0.34 1.02 0 0 Z " fill="#0E4135" transform="translate(50,110)"/>
<path d="M0 0 C0.66 1.32 1.32 2.64 2 4 C1.01 4 0.02 4 -1 4 C-1.33 4.66 -1.66 5.32 -2 6 C-2.99 5.67 -3.98 5.34 -5 5 C-5.33 5.66 -5.66 6.32 -6 7 C-6.33 6.01 -6.66 5.02 -7 4 C-6.34 4 -5.68 4 -5 4 C-4.67 3.01 -4.34 2.02 -4 1 C-2.68 1.66 -1.36 2.32 0 3 C0 2.01 0 1.02 0 0 Z " fill="#191613" transform="translate(43,92)"/>
<path d="M0 0 C1.98 0.495 1.98 0.495 4 1 C4 2.32 4 3.64 4 5 C2.35 4.67 0.7 4.34 -1 4 C-0.67 2.68 -0.34 1.36 0 0 Z " fill="#BC170C" transform="translate(71,72)"/>
<path d="M0 0 C0.99 0.495 0.99 0.495 2 1 C2.59355614 3.64860427 2.74209269 6.29197322 3 9 C2.01 9 1.02 9 0 9 C0 6.03 0 3.06 0 0 Z " fill="#0C6146" transform="translate(40,41)"/>
<path d="M0 0 C1.32 0.66 2.64 1.32 4 2 C3.38125 2.0825 2.7625 2.165 2.125 2.25 C-0.18437567 2.81258459 -0.18437567 2.81258459 -1.25 5.0625 C-1.4975 5.701875 -1.745 6.34125 -2 7 C-2.66 6.67 -3.32 6.34 -4 6 C-2.84826645 3.53199953 -1.95216435 1.95216435 0 0 Z " fill="#231212" transform="translate(28,36)"/>
<path d="M0 0 C2.0625 1.625 2.0625 1.625 4 4 C3.875 7.1875 3.875 7.1875 3 10 C2.01 10.495 2.01 10.495 1 11 C0.67 7.37 0.34 3.74 0 0 Z " fill="#051D1A" transform="translate(108,25)"/>
<path d="M0 0 C1.32 0 2.64 0 4 0 C3.67 1.65 3.34 3.3 3 5 C1.68 4.67 0.36 4.34 -1 4 C-0.67 2.68 -0.34 1.36 0 0 Z " fill="#BD170A" transform="translate(40,29)"/>
<path d="M0 0 C1.32 0 2.64 0 4 0 C3.67 1.98 3.34 3.96 3 6 C2.01 6 1.02 6 0 6 C0 4.02 0 2.04 0 0 Z " fill="#C11C0C" transform="translate(65,43)"/>
<path d="M0 0 C1.65 0 3.3 0 5 0 C5 1.32 5 2.64 5 4 C3.35 4 1.7 4 0 4 C0 2.68 0 1.36 0 0 Z " fill="#DD530D" transform="translate(65,106)"/>
<path d="M0 0 C1.98 0.495 1.98 0.495 4 1 C3.34 2.32 2.68 3.64 2 5 C1.01 5 0.02 5 -1 5 C-0.67 3.35 -0.34 1.7 0 0 Z " fill="#0B5F21" transform="translate(90,104)"/>
<path d="M0 0 C0.66 0.33 1.32 0.66 2 1 C1.67 1.33 1.34 1.66 1 2 C1.66 2.66 2.32 3.32 3 4 C2.01 4 1.02 4 0 4 C0 5.32 0 6.64 0 8 C-0.66 8 -1.32 8 -2 8 C-2.6875 5.6875 -2.6875 5.6875 -3 3 C-1.5625 1.1875 -1.5625 1.1875 0 0 Z " fill="#3D2615" transform="translate(87,93)"/>
<path d="M0 0 C1.65 0.33 3.3 0.66 5 1 C4.67 1.99 4.34 2.98 4 4 C2.35 3.67 0.7 3.34 -1 3 C-0.67 2.01 -0.34 1.02 0 0 Z " fill="#0B7651" transform="translate(52,73)"/>
<path d="M0 0 C2.31 0 4.62 0 7 0 C6.67 0.99 6.34 1.98 6 3 C4.02 3 2.04 3 0 3 C0 2.01 0 1.02 0 0 Z " fill="#DF8811" transform="translate(79,63)"/>
<path d="M0 0 C2 1 4 2 6 3 C6 3.99 6 4.98 6 6 C4.125 5.8125 4.125 5.8125 2 5 C0.75 2.4375 0.75 2.4375 0 0 Z " fill="#C3200D" transform="translate(71,58)"/>
<path d="M0 0 C1.5625 1.75 1.5625 1.75 3 4 C2.6875 6.25 2.6875 6.25 2 8 C0.68 7.67 -0.64 7.34 -2 7 C-1.34 5.68 -0.68 4.36 0 3 C-0.66 2.67 -1.32 2.34 -2 2 C-1.34 2 -0.68 2 0 2 C0 1.34 0 0.68 0 0 Z " fill="#371513" transform="translate(89,43)"/>
<path d="M0 0 C1.98 0.495 1.98 0.495 4 1 C3.34 2.32 2.68 3.64 2 5 C1.01 5 0.02 5 -1 5 C-0.67 3.35 -0.34 1.7 0 0 Z " fill="#0E6649" transform="translate(64,37)"/>
<path d="M0 0 C0.99 0 1.98 0 3 0 C3.33 1.65 3.66 3.3 4 5 C2.68 5 1.36 5 0 5 C0 3.35 0 1.7 0 0 Z " fill="#CA180A" transform="translate(41,35)"/>
<path d="M0 0 C0.99 0 1.98 0 3 0 C2.67 1.65 2.34 3.3 2 5 C0.68 4.67 -0.64 4.34 -2 4 C-1.34 2.68 -0.68 1.36 0 0 Z " fill="#D54E0E" transform="translate(46,25)"/>
<path d="M0 0 C0.66 0.33 1.32 0.66 2 1 C2 2.65 2 4.3 2 6 C1.01 6 0.02 6 -1 6 C-1.33 4.35 -1.66 2.7 -2 1 C-1.34 0.67 -0.68 0.34 0 0 Z " fill="#125844" transform="translate(61,103)"/>
<path d="M0 0 C0.99 0 1.98 0 3 0 C3 1.65 3 3.3 3 5 C1.68 5 0.36 5 -1 5 C-0.67 3.35 -0.34 1.7 0 0 Z " fill="#096943" transform="translate(91,89)"/>
<path d="M0 0 C1.65 0 3.3 0 5 0 C5 1.32 5 2.64 5 4 C3.35 3.67 1.7 3.34 0 3 C0 2.01 0 1.02 0 0 Z " fill="#C3160B" transform="translate(44,73)"/>
<path d="M0 0 C1.65 0 3.3 0 5 0 C4.67 1.32 4.34 2.64 4 4 C2.68 4 1.36 4 0 4 C0 2.68 0 1.36 0 0 Z " fill="#0B6641" transform="translate(65,59)"/>
<path d="M0 0 C0.33 0.99 0.66 1.98 1 3 C-1.97 5.475 -1.97 5.475 -5 8 C-5 5 -5 5 -2.5 2.3125 C-1.675 1.549375 -0.85 0.78625 0 0 Z " fill="#C1160B" transform="translate(85,50)"/>
<path d="M0 0 C0.99 0.33 1.98 0.66 3 1 C2.67 2.32 2.34 3.64 2 5 C0.68 4.67 -0.64 4.34 -2 4 C-1.34 2.68 -0.68 1.36 0 0 Z " fill="#0C6844" transform="translate(52,23)"/>
<path d="M0 0 C5.75 -0.125 5.75 -0.125 8 1 C8 1.66 8 2.32 8 3 C5 4 5 4 2 3 C2 2.34 2 1.68 2 1 C1.34 0.67 0.68 0.34 0 0 Z " fill="#531310" transform="translate(93,15)"/>
<path d="M0 0 C1.32 0 2.64 0 4 0 C3.67 1.32 3.34 2.64 3 4 C1.68 4 0.36 4 -1 4 C-0.67 2.68 -0.34 1.36 0 0 Z " fill="#CA1509" transform="translate(84,108)"/>
<path d="M0 0 C0 1.65 0 3.3 0 5 C-1.65 5.33 -3.3 5.66 -5 6 C-5.33 5.01 -5.66 4.02 -6 3 C-1.125 0 -1.125 0 0 0 Z " fill="#0B1612" transform="translate(80,90)"/>
<path d="M0 0 C0.66 0 1.32 0 2 0 C2.66 1.65 3.32 3.3 4 5 C3.01 5 2.02 5 1 5 C0.67 5.66 0.34 6.32 0 7 C-0.66 6.34 -1.32 5.68 -2 5 C-1.34 5 -0.68 5 0 5 C-0.2784375 4.0409375 -0.2784375 4.0409375 -0.5625 3.0625 C-0.7790625 2.0415625 -0.7790625 2.0415625 -1 1 C-0.67 0.67 -0.34 0.34 0 0 Z " fill="#331A14" transform="translate(29,80)"/>
<path d="M0 0 C2.475 0.495 2.475 0.495 5 1 C5 1.99 5 2.98 5 4 C3.35 3.67 1.7 3.34 0 3 C0 2.01 0 1.02 0 0 Z " fill="#BE7114" transform="translate(24,81)"/>
<path d="M0 0 C1.32 0 2.64 0 4 0 C3.67 1.65 3.34 3.3 3 5 C2.01 4.67 1.02 4.34 0 4 C0 2.68 0 1.36 0 0 Z " fill="#0C6F49" transform="translate(37,78)"/>
<path d="M0 0 C2.16874252 0.50603992 3.99967627 0.99983813 6 2 C6 2.66 6 3.32 6 4 C3.03 3.505 3.03 3.505 0 3 C0 2.01 0 1.02 0 0 Z " fill="#D28514" transform="translate(70,64)"/>
<path d="M0 0 C0.99 0.33 1.98 0.66 3 1 C2.67 2.32 2.34 3.64 2 5 C1.01 5 0.02 5 -1 5 C-0.67 3.35 -0.34 1.7 0 0 Z " fill="#C5170C" transform="translate(44,56)"/>
<path d="M0 0 C1.32 0.33 2.64 0.66 4 1 C4 2.32 4 3.64 4 5 C3.01 5 2.02 5 1 5 C0.67 3.35 0.34 1.7 0 0 Z " fill="#BC170A" transform="translate(43,43)"/>
<path d="M0 0 C2.475 0.495 2.475 0.495 5 1 C4.67 1.99 4.34 2.98 4 4 C2.68 3.67 1.36 3.34 0 3 C0 2.01 0 1.02 0 0 Z " fill="#0C543E" transform="translate(65,24)"/>
<path d="M0 0 C1.45792884 -0.05399736 2.91642712 -0.09279177 4.375 -0.125 C5.18710937 -0.14820312 5.99921875 -0.17140625 6.8359375 -0.1953125 C9 0 9 0 11 2 C6.74938644 3.41687119 4.28148375 2.19320039 0 1 C0 0.67 0 0.34 0 0 Z " fill="#09090D" transform="translate(57,21)"/>
</svg>
