<svg width="32" height="32" viewBox="0 0 32 32" fill="none" xmlns="http://www.w3.org/2000/svg">
<path fill-rule="evenodd" clip-rule="evenodd" d="M29 17C29 10.3787 23.6214 5.00012 17 5.00012C10.3787 5.00012 5.00006 10.3787 5.00006 17C5.00006 23.6213 10.3787 28.9999 17 28.9999C23.6214 28.9999 29 23.6213 29 17Z" fill="white"/>
<path fill-rule="evenodd" clip-rule="evenodd" d="M24.7134 26.1924L23.7971 25.1004C19.5063 28.7006 13.1524 28.3306 9.30853 24.2566C5.4647 20.1824 5.4647 13.8176 9.30853 9.74342C13.1524 5.66945 19.5063 5.29937 23.7971 8.89958L24.7134 7.80759C19.8443 3.72186 12.6335 4.14162 8.27149 8.76518C3.9095 13.3885 3.9095 20.6115 8.27149 25.2348C12.6335 29.8584 19.8443 30.2781 24.7134 26.1924Z" fill="url(#paint0_linear)"/>
<path fill-rule="evenodd" clip-rule="evenodd" d="M24.7134 26.1924L23.7971 25.1004C26.1915 23.0911 27.5744 20.1257 27.5744 17C27.5744 13.8743 26.1915 10.9088 23.7971 8.89958L24.7134 7.80759C27.4306 10.0876 29 13.4528 29 17C29 20.5472 27.4306 23.9124 24.7134 26.1924Z" fill="#EDF0F2"/>
<path fill-rule="evenodd" clip-rule="evenodd" d="M15.535 22.407C15.535 22.6025 15.399 22.6676 15.2017 22.6676C12.7325 21.8773 11 19.6322 11 16.9919C11 14.3516 12.7325 12.1066 15.2017 11.3162C15.3997 11.2529 15.535 11.3814 15.535 11.5813C15.535 11.7346 15.535 11.8881 15.535 12.0415C15.535 12.1761 15.4649 12.3063 15.3333 12.3714C13.399 13.0967 12.0657 14.8815 12.0657 16.9919C12.0657 19.1068 13.4649 20.9523 15.3333 21.6124C15.4649 21.6775 15.535 21.8122 15.535 21.9424C15.535 22.0973 15.535 22.2522 15.535 22.407Z" fill="black"/>
<path fill-rule="evenodd" clip-rule="evenodd" d="M17.535 20.7569C17.535 20.8871 17.399 21.0174 17.2675 21.0174C17.0891 21.0174 16.9109 21.0174 16.7325 21.0174C16.601 21.0174 16.465 20.8871 16.465 20.7569C16.465 20.4921 16.465 20.227 16.465 19.9622C15.3991 19.8319 14.8685 19.2369 14.6667 18.3772C14.6667 18.2469 14.7325 18.1166 14.8685 18.1166C15.0672 18.1166 15.2661 18.1166 15.465 18.1166C15.601 18.1166 15.6667 18.1817 15.7325 18.312C15.8685 18.7767 16.1315 19.1718 17 19.1718C17.6667 19.1718 18.1315 18.8419 18.1315 18.312C18.1315 17.7867 17.8685 17.5869 16.9342 17.4565C15.5344 17.2614 14.8685 16.8617 14.8685 15.7369C14.8685 14.8815 15.5351 14.2214 16.465 14.0867C16.465 13.8233 16.465 13.5598 16.465 13.2964C16.465 13.1662 16.601 13.0315 16.7325 13.0315C16.9109 13.0315 17.0891 13.0315 17.2675 13.0315C17.399 13.0315 17.535 13.1662 17.535 13.2964C17.535 13.5598 17.535 13.8233 17.535 14.0867C18.3333 14.2214 18.8685 14.6817 19 15.407C19 15.5416 18.9342 15.6718 18.7982 15.6718C18.6213 15.6718 18.4445 15.6718 18.2675 15.6718C18.1315 15.6718 18.0658 15.6067 18 15.4763C17.8685 15.0117 17.535 14.8164 16.9342 14.8164C16.2675 14.8164 15.9342 15.1464 15.9342 15.6067C15.9342 16.0669 16.1315 16.3318 17.1315 16.4664C18.536 16.6556 19.2018 17.057 19.2018 18.1817C19.2018 19.0372 18.535 19.7668 17.535 19.9622V20.7569Z" fill="black"/>
<path fill-rule="evenodd" clip-rule="evenodd" d="M18.7982 22.6676C18.6009 22.7371 18.4649 22.6024 18.4649 22.407C18.4649 22.2522 18.4649 22.0973 18.4649 21.9423C18.4649 21.8121 18.535 21.6775 18.6667 21.6124C20.6009 20.8871 21.9342 19.1067 21.9342 16.9919C21.9342 14.8815 20.535 13.0315 18.6667 12.3714C18.535 12.3063 18.4649 12.1761 18.4649 12.0414C18.4649 11.8881 18.4649 11.7346 18.4649 11.5812C18.4649 11.3813 18.6009 11.3162 18.7982 11.3162C21.2017 12.1065 23 14.3516 23 16.9919C23 19.6322 21.2675 21.8772 18.7982 22.6676Z" fill="black"/>
<path d="M29.8081 14.9004C29.8081 14.9004 30.6667 11.1024 27.5653 9.46619C27.5653 9.46619 28.8865 11.1366 29.8081 14.9004Z" fill="#69E2DC"/>
<path d="M30.1786 23.5544C32.9243 18.5317 32.4338 12.9355 29.5921 8.31607C31.1631 11.9779 31.1507 15.7006 30.095 19.4511C30.0559 18.1893 29.0589 15.4434 28.293 14.2338V14.2355C28.6075 15.5564 28.6857 16.9537 28.4831 18.377C27.5998 24.5867 21.7369 28.9194 15.3887 28.0557C9.0388 27.1919 4.60827 21.4584 5.49154 15.2505C6.06024 11.2567 8.68692 8.03974 12.1791 6.48258C12.5274 6.32095 12.89 6.17322 13.2685 6.03766C13.4871 5.18259 14.0843 4.67337 14.3846 4.46308C14.3988 4.45265 14.413 4.44223 14.4273 4.43354C14.4308 4.4318 14.4344 4.43006 14.4362 4.42658C14.4593 4.41094 14.4806 4.39704 14.4984 4.38661L14.5019 4.38487C14.5303 4.36749 14.5499 4.35707 14.557 4.35185L14.5623 4.34838C14.2549 4.8211 14.1376 5.29903 14.1696 5.73873C14.1731 5.75785 14.1785 5.77523 14.182 5.79435C15.0706 9.82808 20.3649 5.27992 23.3506 9.00777C23.5976 9.22675 23.5372 9.63517 24.001 9.51178C24.4418 9.42836 24.863 9.28584 25.3943 8.98518L25.3961 8.98344C25.4654 8.94347 25.5365 8.9035 25.6112 8.85831C25.6876 8.81139 25.7676 8.76272 25.8493 8.70885C25.8902 8.68625 25.9417 8.65497 26.0021 8.615C26.5708 8.24308 27.9091 7.14126 27.7456 6.28793C27.7402 6.25664 27.7314 6.2271 27.7225 6.19755C27.6354 5.76828 27.3599 5.29556 26.8872 5.20518C26.7415 5.17564 26.5922 5.16869 26.4447 5.17564C26.1976 5.18781 25.9524 5.23821 25.7125 5.29556C25.6414 5.30251 25.5703 5.30599 25.5028 5.30425C24.8825 5.28861 24.36 4.92711 23.8446 4.55172C23.5016 4.30145 23.1622 4.04597 22.7996 3.88261C22.6663 3.93648 22.4797 4.12071 22.2967 4.21108C22.1865 4.26669 22.0799 4.28755 21.9857 4.22672L21.6107 3.96603C21.4134 3.82873 21.2126 3.6897 21.2126 3.6897C21.1984 3.68101 21.1859 3.67058 21.1753 3.65841C21.1006 3.58194 21.0953 3.4794 21.1362 3.39772C21.1842 3.30387 21.2908 3.23957 21.4188 3.27954L22.6521 3.65494C22.5508 3.48288 22.4104 3.32125 22.2416 3.16657C21.0544 2.09252 18.4313 1.46165 17.7684 1.08973C17.7169 1.04975 17.6671 1.01152 17.6138 0.973285C16.6292 0.264203 15.458 0.00351118 14.2851 3.52884e-05C13.1139 -0.0034406 11.9427 0.250299 10.96 0.568344C10.752 0.636124 10.5548 0.705642 10.3646 0.776897C9.37292 1.14882 8.66026 1.55202 8.47543 1.72582C10.4357 0.992403 11.7064 0.994141 12.3533 1.08451V1.08625C12.6803 1.10885 13.329 1.40603 13.656 1.7206C6.79067 1.4825 0.872604 8.31955 0 15.7093C0 15.7093 0.556263 14.4927 1.24226 13.7506C-0.250585 18.5213 0.909925 23.0938 3.18829 26.6757C3.18829 26.6757 2.58582 25.1064 3.04078 23.4014C6.59695 34.2897 25.8084 35.7426 31.4777 22.4925C31.4812 22.4908 30.7739 23.3267 30.1786 23.5544Z" fill="#69E2DC"/>
<path d="M30.1786 23.5544C32.9243 18.5317 32.4338 12.9355 29.5921 8.31607C31.1631 11.9779 31.1507 15.7006 30.095 19.4511C30.0559 18.1893 29.0589 15.4434 28.293 14.2338V14.2355C28.6075 15.5564 28.6857 16.9537 28.4831 18.377C27.5998 24.5867 21.7369 28.9194 15.3887 28.0557C9.0388 27.1919 4.60827 21.4584 5.49154 15.2505C6.06024 11.2567 8.68692 8.03974 12.1791 6.48258C12.5274 6.32095 12.89 6.17322 13.2685 6.03766C13.4871 5.18259 14.0843 4.67337 14.3846 4.46308C14.3988 4.45265 14.413 4.44223 14.4273 4.43354C14.4308 4.4318 14.4344 4.43006 14.4362 4.42658C14.4593 4.41094 14.4806 4.39704 14.4984 4.38661L14.5019 4.38487C14.5303 4.36749 14.5499 4.35707 14.557 4.35185L14.5623 4.34838C14.2549 4.8211 14.1376 5.29903 14.1696 5.73873C14.1731 5.75785 14.1785 5.77523 14.182 5.79435C15.0706 9.82808 20.3649 5.27992 23.3506 9.00777C23.5976 9.22675 23.5372 9.63517 24.001 9.51178C24.4418 9.42836 24.863 9.28584 25.3943 8.98518L25.3961 8.98344C25.4654 8.94347 25.5365 8.9035 25.6112 8.85831C25.6876 8.81139 25.7676 8.76272 25.8493 8.70885C25.8902 8.68625 25.9417 8.65497 26.0021 8.615C26.5708 8.24308 27.9091 7.14126 27.7456 6.28793C27.7402 6.25664 27.7314 6.2271 27.7225 6.19755C27.6354 5.76828 27.3599 5.29556 26.8872 5.20518C26.7415 5.17564 26.5922 5.16869 26.4447 5.17564C26.1976 5.18781 25.9524 5.23821 25.7125 5.29556C25.6414 5.30251 25.5703 5.30599 25.5028 5.30425C24.8825 5.28861 24.36 4.92711 23.8446 4.55172C23.5016 4.30145 23.1622 4.04597 22.7996 3.88261C22.6663 3.93648 22.4797 4.12071 22.2967 4.21108C22.1865 4.26669 22.0799 4.28755 21.9857 4.22672L21.6107 3.96603C21.4134 3.82873 21.2126 3.6897 21.2126 3.6897C21.1984 3.68101 21.1859 3.67058 21.1753 3.65841C21.1006 3.58194 21.0953 3.4794 21.1362 3.39772C21.1842 3.30387 21.2908 3.23957 21.4188 3.27954L22.6521 3.65494C22.5508 3.48288 22.4104 3.32125 22.2416 3.16657C21.0544 2.09252 18.4313 1.46165 17.7684 1.08973C17.7169 1.04975 17.6671 1.01152 17.6138 0.973285C16.6292 0.264203 15.458 0.00351118 14.2851 3.52884e-05C13.1139 -0.0034406 11.9427 0.250299 10.96 0.568344C10.752 0.636124 10.5548 0.705642 10.3646 0.776897C9.37292 1.14882 8.66026 1.55202 8.47543 1.72582C10.4357 0.992403 11.7064 0.994141 12.3533 1.08451V1.08625C12.6803 1.10885 13.329 1.40603 13.656 1.7206C6.79067 1.4825 0.872604 8.31955 0 15.7093C0 15.7093 0.556263 14.4927 1.24226 13.7506C-0.250585 18.5213 0.909925 23.0938 3.18829 26.6757C3.18829 26.6757 2.58582 25.1064 3.04078 23.4014C6.59695 34.2897 25.8084 35.7426 31.4777 22.4925C31.4812 22.4908 30.7739 23.3267 30.1786 23.5544Z" fill="#69E2DC"/>
<defs>
<linearGradient id="paint0_linear" x1="7.53202" y1="5" x2="7.53202" y2="29" gradientUnits="userSpaceOnUse">
<stop stop-color="#27D3A2"/>
<stop offset="1" stop-color="#9388FD"/>
</linearGradient>
</defs>
</svg>
