<svg width="32" height="32" viewBox="0 0 32 32" fill="none" xmlns="http://www.w3.org/2000/svg">
<circle cx="16" cy="16" r="16" fill="white"/>
<path d="M15.0107 5.22031C15.316 5.07523 15.6494 5 15.9869 5C16.3245 5 16.6578 5.07523 16.9631 5.22031L22.6218 8.21785C22.7644 8.28211 22.8892 8.38071 22.9851 8.50496C23.081 8.62922 23.1452 8.77533 23.172 8.93044H23.1774V23.998C23.1641 24.1673 23.1054 24.3298 23.0075 24.4681C22.9096 24.6063 22.7763 24.7152 22.6218 24.783L16.9643 27.7797C16.659 27.9248 16.3256 28 15.9881 28C15.6505 28 15.3172 27.9248 15.0119 27.7797L9.35436 24.783C9.20161 24.7144 9.0703 24.6051 8.9745 24.467C8.87871 24.3288 8.82207 24.167 8.81065 23.9988C8.81065 23.9731 8.81065 23.9513 8.81065 23.9324V8.93044C8.83372 8.77488 8.89574 8.62782 8.99088 8.50313C9.08601 8.37845 9.21111 8.28026 9.35436 8.21785L15.0107 5.22031ZM22.2866 17.3367L16.9643 20.1567C16.659 20.3018 16.3256 20.377 15.9881 20.377C15.6505 20.377 15.3172 20.3018 15.0119 20.1567L9.69979 17.343V23.9682L15.0119 26.7673C15.275 26.9279 15.5643 27.0402 15.8663 27.0989L15.9882 27.1066C16.3199 27.0736 16.6401 26.9665 16.9256 26.7931L22.2869 23.9433L22.2866 17.3367ZM7.89055 23.6705C7.86406 24.0883 7.93205 24.5068 8.0894 24.8944C8.22443 25.1423 8.42375 25.3486 8.66606 25.4913L8.68339 25.503C8.74958 25.5477 8.82258 25.5947 8.91064 25.6499L9.01518 25.7143L9.33646 25.9087L8.87712 26.6726L8.51749 26.455L8.45699 26.4178C8.35302 26.3534 8.26666 26.2981 8.18627 26.2437C7.32696 25.6625 7.00653 25.0287 7 23.7105V23.6705H7.89055ZM15.5417 13.2985C15.5026 13.3119 15.4646 13.3282 15.428 13.3474L9.77024 16.345L9.75319 16.3544L9.74836 16.3573L9.75717 16.3624L9.76995 16.3696L15.4275 19.3671C15.464 19.3863 15.502 19.4027 15.5411 19.4161L15.5417 13.2985ZM16.4345 13.2985V19.4155C16.4735 19.4021 16.5115 19.3858 16.5481 19.3666L22.2056 16.369L22.2227 16.3596L22.2275 16.3567L22.2187 16.3516L22.2059 16.3444L16.5484 13.3471C16.5117 13.328 16.4736 13.3118 16.4345 13.2985ZM22.2863 9.99976L17.212 12.6884L22.2869 15.377L22.2863 9.99976ZM9.70036 10.0061V15.3707L14.7633 12.6884L9.70036 10.0061ZM16.5484 6.01021C16.3715 5.9331 16.1808 5.89332 15.9881 5.89332C15.7953 5.89332 15.6046 5.9331 15.4277 6.01021L9.77024 9.00803L9.75319 9.01748L9.74836 9.02034L9.75717 9.02549L9.76995 9.03265L15.4275 12.0302C15.6044 12.1073 15.7951 12.1471 15.9878 12.1471C16.1805 12.1471 16.3712 12.1073 16.5481 12.0302L22.2056 9.03265L22.2227 9.0232L22.2275 9.02034L22.2187 9.01518L22.2059 9.00803L16.5484 6.01021ZM23.1229 6.33888L23.4825 6.55675L23.543 6.59397C23.647 6.65839 23.7333 6.71364 23.8137 6.76804C24.673 7.34922 24.9938 7.98308 25 9.3012V9.34128H24.1094C24.1359 8.92339 24.0679 8.5049 23.9106 8.11736C23.7757 7.869 23.5764 7.66226 23.3339 7.51928L23.3166 7.50754C23.2504 7.46288 23.1774 7.41593 23.0894 7.36067L22.9848 7.29626L22.6635 7.10186L23.1229 6.33888Z" fill="#1969FF"/>
</svg>
