<?xml version="1.0" encoding="UTF-8"?>
<svg width="512px" height="512px" viewBox="0 0 512 512" version="1.1" xmlns="http://www.w3.org/2000/svg" xmlns:xlink="http://www.w3.org/1999/xlink">
    <title>SVG/PUNDI AI/Pundi_AI_logo1104_Circular expansion</title>
    <defs>
        <circle id="path-1" cx="256" cy="256" r="256"></circle>
        <linearGradient x1="-0.172782875%" y1="49.9078247%" x2="99.8272171%" y2="50.1227335%" id="linearGradient-3">
            <stop stop-color="#FFFFFF" offset="0%"></stop>
            <stop stop-color="#FBFBFB" offset="13%"></stop>
            <stop stop-color="#A0A6B7" offset="43%"></stop>
            <stop stop-color="#A0A6B7" offset="59%"></stop>
            <stop stop-color="#FBFBFB" offset="86%"></stop>
            <stop stop-color="#FFFFFF" offset="100%"></stop>
        </linearGradient>
        <linearGradient x1="48.4340693%" y1="0.668583353%" x2="80.75647%" y2="95.1300221%" id="linearGradient-4">
            <stop stop-color="#F2F2F2" offset="0%"></stop>
            <stop stop-color="#ECECEC" offset="100%"></stop>
        </linearGradient>
    </defs>
    <g id="PUNDI-AI/Pundi_AI_logo1104_Circular-expansion" stroke="none" stroke-width="1" fill="none" fill-rule="evenodd">
        <g id="Clipped">
            <mask id="mask-2" fill="white">
                <use xlink:href="#path-1"></use>
            </mask>
            <use id="蒙版" fill="#FBFBFB" xlink:href="#path-1"></use>
            <g id="ai山峰" mask="url(#mask-2)" fill="#18263E" fill-rule="nonzero">
                <g transform="translate(161, 100)">
                    <polygon id="路径" points="146.31392 146 123.816477 145.973216 73.4388494 36.493304 22.3632102 146 0 146 66.4990057 0.0267840763 80.3652699 0 80.3652699 0.0267840763"></polygon>
                    <rect id="矩形" x="167.89858" y="27.0920932" width="21.0074574" height="88.4945881"></rect>
                    <rect id="矩形" x="167.81804" y="125.724454" width="21.1819602" height="20.2755458"></rect>
                </g>
            </g>
            <g id="line" mask="url(#mask-2)" fill-rule="nonzero">
                <g transform="translate(-94.9991, 234.8776)" id="椭圆形">
                    <ellipse fill="url(#linearGradient-3)" cx="350.996572" cy="214.380667" rx="326.996807" ry="214.380667"></ellipse>
                    <ellipse fill="#FBFBFB" cx="350.996572" cy="259.355632" rx="350.996572" ry="257.356745"></ellipse>
                </g>
            </g>
            <g id="tag" mask="url(#mask-2)">
                <g transform="translate(323, 0)">
                    <path d="M9.34202547,0 C24.3011168,24.8401465 34.0355053,47.9788182 38.5451911,69.4155201 C44.947481,99.8515292 37.7754026,134.410571 47.5267205,141.187271 C63.3402472,151.408987 109.988134,145.783926 141.534026,158.626646 C162.985033,169.319509 178.807025,183.110462 189,200 L189,0 L9.34202547,0 Z" id="Fill-1" fill="#CCCCCC" opacity="0.15"></path>
                    <path d="M0,0 C15.7368465,22.7031575 25.9771245,43.8513313 30.7213319,63.4440265 C37.4567321,91.2620014 31.4234029,124.982184 41.682104,131.175888 C58.317701,140.518163 102.099545,133.243096 135.286092,144.981689 C157.852446,154.754528 175.75675,172.574978 189,198.443532 L189,0 L0,0 Z" id="Fill-3" fill="url(#linearGradient-4)"></path>
                    <polygon id="Fill-5" fill="#191919" points="57.7842267 73.2671979 51.7260013 79.2965951 66.4809443 93.9833218 72.5391697 87.9534297"></polygon>
                    <polygon id="Fill-7" fill="#191919" points="78.6606312 106.105909 93.4155742 120.792141 99.4737995 114.762249 84.7188565 100.076017"></polygon>
                    <polygon id="Fill-9" fill="#191919" points="70.090585 97.6366426 76.2100549 91.5458775 82.3335081 97.6410967 76.2140383 103.731862"></polygon>
                    <polygon id="Fill-11" fill="#191919" points="78.6606312 87.9533802 84.7188565 93.9832723 99.4737995 79.2970405 93.4155742 73.2671484"></polygon>
                    <polygon id="Fill-13" fill="#191919" points="51.7262503 114.762348 57.7844756 120.79224 72.5394186 106.105513 66.4811933 100.076116"></polygon>
                </g>
            </g>
            <g id="_图层_2-2" mask="url(#mask-2)">
                <g transform="translate(65, 298)" id="编组">
                    <path d="M4.57586445,78 L0,78 L0,0 L34.5253804,0 C50.1061549,0 62.7798064,12.4258675 62.7798064,27.6989635 C62.7798064,42.9720595 50.1061549,55.397927 34.5253804,55.397927 L5.243361,55.397927 L5.243361,78 L4.57586445,78 Z M57.5276625,27.6989635 C57.5276625,15.2643082 47.2078147,5.1408292 34.5253804,5.1408292 L5.243361,5.1408292 L5.243361,50.24831 L34.5165975,50.24831 C47.1990318,50.24831 57.5188797,40.1336187 57.5188797,27.6901758 L57.5276625,27.6989635 Z" id="形状" fill="#18263E" fill-rule="nonzero"></path>
                    <path d="M89.830982,47.2429022 L89.830982,0 L95.074343,0 L95.074343,47.2429022 C95.074343,61.364804 106.790664,72.8591708 121.194537,72.8591708 C135.598409,72.8591708 147.31473,61.364804 147.31473,47.2429022 L147.31473,0 L152.558091,0 L152.558091,47.2429022 C152.558091,64.2032447 138.487967,78 121.185754,78 C103.883541,78 89.8134163,64.2032447 89.8134163,47.2429022 L89.830982,47.2429022 Z" id="路径" fill="#18263E" fill-rule="nonzero"></path>
                    <polygon id="路径" fill="#18263E" fill-rule="nonzero" points="188.840041 78 184.264177 78 184.264177 0 189.182573 0 189.384578 0.272420009 239.947441 68.7904461 239.947441 0 245.190802 0 245.190802 78 240.272407 78 240.070401 77.72758 189.507538 9.20955385 189.507538 78"></polygon>
                    <path d="M306.811272,78 L277.134025,78 L277.134025,0 L306.811272,0 C328.742047,0 346.588797,17.4963948 346.588797,39 C346.588797,60.5036052 328.742047,78 306.811272,78 L306.811272,78 Z M341.345436,39 C341.345436,20.3348355 325.85249,5.1408292 306.811272,5.1408292 L282.386169,5.1408292 L282.386169,72.8503831 L306.811272,72.8503831 C325.85249,72.8503831 341.345436,57.6651645 341.345436,38.9912123 L341.345436,39 Z" id="形状" fill="#18263E" fill-rule="nonzero"></path>
                    <polygon id="路径" fill="#18263E" fill-rule="nonzero" points="380.332503 78 375.756639 78 375.756639 0 381 0 381 78 380.332503 78"></polygon>
                </g>
            </g>
        </g>
    </g>
</svg>