<svg version="1.1" viewBox="0.0 0.0 1080.0 1080.0" fill="none" stroke="none" stroke-linecap="square" stroke-miterlimit="10" xmlns:xlink="http://www.w3.org/1999/xlink" xmlns="http://www.w3.org/2000/svg"><clipPath id="g2e805fad840_0_0.0"><path d="m0 0l1080.0 0l0 1080.0l-1080.0 0l0 -1080.0z" clip-rule="nonzero"/></clipPath><g clip-path="url(#g2e805fad840_0_0.0)"><path fill="#000000" fill-opacity="0.0" d="m0 0l1080.0 0l0 1080.0l-1080.0 0z" fill-rule="evenodd"/><path fill="#ffc680" d="m10.866141 540.0l0 0c0 -292.23254 236.9013 -529.13385 529.13385 -529.13385l0 0c140.33502 0 274.9223 55.74787 374.1541 154.97972c99.23187 99.23184 154.9798 233.81912 154.9798 374.15414l0 0c0 292.23254 -236.90137 529.1339 -529.1339 529.1339l0 0c-292.23254 0 -529.13385 -236.90137 -529.13385 -529.1339z" fill-rule="evenodd"/><path stroke="#595959" stroke-width="1.0" stroke-linejoin="round" stroke-linecap="butt" d="m10.866141 540.0l0 0c0 -292.23254 236.9013 -529.13385 529.13385 -529.13385l0 0c140.33502 0 274.9223 55.74787 374.1541 154.97972c99.23187 99.23184 154.9798 233.81912 154.9798 374.15414l0 0c0 292.23254 -236.90137 529.1339 -529.1339 529.1339l0 0c-292.23254 0 -529.13385 -236.90137 -529.13385 -529.1339z" fill-rule="evenodd"/><path fill="#f3af32" d="m20.31496 540.0l0 0c0 -287.0141 232.67093 -519.68506 519.68506 -519.68506l0 0c137.82904 0 270.01294 54.752377 367.47284 152.21223c97.45984 97.45984 152.21222 229.64377 152.21222 367.4728l0 0c0 287.0141 -232.67096 519.68506 -519.68506 519.68506l0 0c-287.0141 0 -519.68506 -232.67096 -519.68506 -519.68506z" fill-rule="evenodd"/><path stroke="#000000" stroke-width="24.0" stroke-linejoin="round" stroke-linecap="butt" d="m20.31496 540.0l0 0c0 -287.0141 232.67093 -519.68506 519.68506 -519.68506l0 0c137.82904 0 270.01294 54.752377 367.47284 152.21223c97.45984 97.45984 152.21222 229.64377 152.21222 367.4728l0 0c0 287.0141 -232.67096 519.68506 -519.68506 519.68506l0 0c-287.0141 0 -519.68506 -232.67096 -519.68506 -519.68506z" fill-rule="evenodd"/><path fill="#000000" fill-opacity="0.0" d="m453.07846 995.6364l0 0c-246.43205 -47.0094 -407.27112 -289.12115 -359.24408 -540.7716l0 0c23.063393 -120.84683 92.19289 -227.77632 192.18079 -297.2652c99.987915 -69.48887 222.6437 -95.84497 340.9846 -73.27024l0 0c246.43207 47.009438 407.27112 289.12115 359.24408 540.77167l0 0c-48.02704 251.65051 -286.73328 417.54486 -533.1654 370.5354z" fill-rule="evenodd"/><path stroke="#000000" stroke-width="24.0" stroke-linejoin="round" stroke-linecap="butt" stroke-dasharray="192.0,72.0,24.0,72.0" d="m453.07846 995.6364l0 0c-246.43205 -47.0094 -407.27112 -289.12115 -359.24408 -540.7716l0 0c23.063393 -120.84683 92.19289 -227.77632 192.18079 -297.2652c99.987915 -69.48887 222.6437 -95.84497 340.9846 -73.27024l0 0c246.43207 47.009438 407.27112 289.12115 359.24408 540.77167l0 0c-48.02704 251.65051 -286.73328 417.54486 -533.1654 370.5354z" fill-rule="evenodd"/><path fill="#f3af32" d="m150.62993 540.0l0 0c0 -215.04315 174.32692 -389.37006 389.37006 -389.37006l0 0c103.267395 0 202.30518 41.022797 275.32623 114.04384c73.02106 73.02106 114.04382 172.05887 114.04382 275.32623l0 0c0 215.04315 -174.3269 389.37006 -389.37006 389.37006l0 0c-215.04315 0 -389.37006 -174.3269 -389.37006 -389.37006z" fill-rule="evenodd"/><path stroke="#000000" stroke-width="24.0" stroke-linejoin="round" stroke-linecap="butt" d="m150.62993 540.0l0 0c0 -215.04315 174.32692 -389.37006 389.37006 -389.37006l0 0c103.267395 0 202.30518 41.022797 275.32623 114.04384c73.02106 73.02106 114.04382 172.05887 114.04382 275.32623l0 0c0 215.04315 -174.3269 389.37006 -389.37006 389.37006l0 0c-215.04315 0 -389.37006 -174.3269 -389.37006 -389.37006z" fill-rule="evenodd"/><path fill="#000000" fill-opacity="0.0" d="m366.4252 207.10236l347.14963 0l0 665.7953l-347.14963 0z" fill-rule="evenodd"/><path fill="#000000" d="m433.8618 751.0l0 -432.0l99.203156 0q29.328125 0 50.921875 6.40625q21.609375 6.390625 36.0 19.734375q14.406189 13.328125 21.343689 33.859375q6.9375 20.53125 6.9375 48.265625q0 26.671875 -6.671875 46.140625q-6.65625 19.46875 -20.265564 30.671875q-13.59375 11.1875 -34.9375 14.390625q26.140625 5.859375 42.140564 20.0q16.0 14.140625 23.734375 36.28125q7.734375 22.125 7.734375 53.046875q0 27.734375 -6.40625 50.671875q-6.390625 22.9375 -20.0 38.9375q-13.593689 16.0 -34.671814 24.796875q-21.0625 8.796875 -49.859375 8.796875l-115.203156 0zm60.265625 -43.203125l40.546906 0q40.53125 0 54.125 -18.921875q13.59375 -18.9375 13.59375 -61.078125q0 -27.203125 -7.203125 -45.59375q-7.1875 -18.40625 -22.921875 -27.734375q-15.734375 -9.328125 -42.40625 -9.328125l-35.734406 0l0 162.65625zm0 -208.53125l35.734406 0q25.609375 0 40.0 -7.1875q14.40625 -7.203125 20.265625 -23.203125q5.875 -16.0 5.875 -41.609375q0 -29.859375 -9.078125 -43.1875q-9.0625 -13.34375 -28.265625 -16.8125q-19.1875 -3.46875 -50.12503 -3.46875l-14.40625 0l0 135.46875z" fill-rule="nonzero"/></g></svg>