<svg width="240" height="240" viewBox="0 0 240 240" fill="none" xmlns="http://www.w3.org/2000/svg">
<g clip-path="url(#clip0_6_9936)">
<circle cx="120" cy="120" r="120" fill="#E64042"/>
<path d="M157.219 47C158.79 69.2538 151.692 89.5004 138.354 106.983C138.354 109.98 164.288 128.932 163.008 130.779C146.223 141.891 138.413 126.794 126.413 118.008C111.33 129.077 94.9958 134.241 76.3201 135.142V119.245C109.134 120.845 139.242 94.4311 141.336 61.4577H92.2177V86.0241H113.162C113.933 86.0241 124.333 95.5365 123.998 96.8456C123.853 97.4419 114.922 104.511 114.326 104.671C111.039 105.529 109.163 101.922 108.828 101.922H77.76V47H157.234H157.219Z" fill="#EBEDEE"/>
<path d="M86.4122 145.979C87.4303 142.706 104.462 142.953 106.004 145.164C106.964 146.546 107.139 170.109 106.731 173.498C106.499 175.505 101.248 179.098 100.128 181.367C100.419 171.956 93.9319 176.479 86.4122 175.592C87.8521 168.072 84.4631 152.291 86.4122 145.979ZM99.4154 172.712V148.873C99.4154 147.928 96.3173 146.095 95.081 146.706V172.712H99.4154Z" fill="#EBEDEE"/>
<path d="M175.996 145.978C177.552 140.931 186.789 145.018 188.985 148.146C187.894 141.92 191.123 143.928 196.228 143.811V173.425C196.228 173.963 190.657 180.944 188.999 181.366V153.193C188.999 152.916 185.727 149.615 184.665 149.586V175.592H175.996C177.436 168.072 174.047 152.291 175.996 145.978Z" fill="#EBEDEE"/>
<path d="M121.092 145.978C121.848 143.477 127.405 142.706 129.106 145.193C131.172 148.189 128.946 159.752 129.761 164.058H134.095V143.826H141.324V173.439L134.11 181.381C133.426 176.595 136.742 167.112 129.761 166.952V175.621H121.077C122.517 167.999 119.128 152.465 121.077 146.007L121.092 145.978Z" fill="#EBEDEE"/>
<path d="M43.0703 143.811C61.1206 144.698 63.1569 138.168 63.3605 157.614C63.3896 159.723 63.2733 172.363 63.0696 173.105C62.7351 174.283 57.7462 179.505 56.7717 179.912C52.4227 181.73 55.6953 167.927 54.619 166.909H50.2992V175.592H43.0703V143.797V143.811ZM55.8553 163.811C57.1207 161.745 57.7462 143.186 50.3137 146.706V165.469C50.7791 165.978 55.5499 164.305 55.8553 163.796V163.811Z" fill="#EBEDEE"/>
<path d="M144.22 143.811C148.321 144.495 161.79 142.255 163.812 145.164C164.132 153.978 167.986 176.261 157.921 179.926C154.241 181.265 156.903 175.999 154.983 175.505C152.35 174.821 147.318 176.159 144.205 175.607V143.826L144.22 143.811ZM151.434 174.152C153.106 174.734 157.208 173.512 157.208 171.985V148.873C157.208 146.386 151.434 146.386 151.434 148.873V174.152Z" fill="#EBEDEE"/>
<path d="M84.9743 143.811V158.269H77.7455C76.8146 157.338 80.2909 145.76 73.4256 146.706C74.2402 151.317 72.3057 159.273 73.3238 163.258C73.8038 165.091 79.2145 162.662 77.76 166.196C77.1055 167.782 74.2692 166.313 73.6002 167.069C71.2003 169.818 74.9383 175.519 77.7309 172.712C78.72 171.723 74.5747 166.531 84.9598 168.392C86.2688 174.298 80.6836 176.756 78.4582 181.41C80.2327 170.88 66.8513 177.759 64.7278 175.621C63.6078 174.487 65.8913 148.422 64.7278 143.826H84.9598L84.9743 143.811Z" fill="#EBEDEE"/>
<path d="M165.887 145.979C166.716 143.331 172.083 143.651 174.556 143.826C172.112 155.447 181.014 175.49 165.887 179.941C167.531 171.432 163.676 153.12 165.887 145.993V145.979Z" fill="#EBEDEE"/>
</g>
<defs>
<clipPath id="clip0_6_9936">
<rect width="240" height="240" fill="white"/>
</clipPath>
</defs>
</svg>
