<svg width="240" height="240" viewBox="0 0 240 240" fill="none" xmlns="http://www.w3.org/2000/svg">
<g clip-path="url(#clip0_6304_28059)">
<g clip-path="url(#clip1_6304_28059)">
<path d="M120 240C186.5 240 240 186.5 240 120C240 53.4996 186.5 0 120 0C53.4996 0 0 53.4996 0 120C0 186.5 53.4996 240 120 240Z" fill="#E03027"/>
<mask id="mask0_6304_28059" style="mask-type:alpha" maskUnits="userSpaceOnUse" x="0" y="0" width="240" height="240">
<path d="M120 240C186.5 240 240 186.5 240 120C240 53.4996 186.5 0 120 0C53.4996 0 0 53.4996 0 120C0 186.5 53.4996 240 120 240Z" fill="#E03027"/>
</mask>
<g mask="url(#mask0_6304_28059)">
<path d="M106.384 176.88C108.4 175.552 109.104 176.368 107.968 178.464C110 182.208 109.888 191.904 106.384 194.352C111.328 198.08 100.448 208.384 98.72 203.456C99.296 198.128 99.2 192.976 98.448 188C97.168 186.192 96.112 183.536 95.264 180.048C93.792 184.32 91.984 184.336 90.496 180.048C88.64 187.632 88.592 195.04 90.352 202.288L87.312 203.888C90 204.896 89.472 205.952 85.728 207.072C85.952 209.296 85.056 209.776 83.12 209.216C88.032 208.576 95.76 213.376 92.096 218.192L105.52 226.688C109.024 229.12 109.856 231.584 107.984 234.08C110.88 233.584 112.464 235.184 112.752 238.848C114.144 239.296 114.112 239.824 112.752 240.432C112.192 244.544 110.912 245.008 107.984 242.016C105.776 241.04 104.624 241.456 104.8 243.6C107.632 245.296 106.176 246.176 103.216 246.784H98.448C88.224 243.52 78.608 229.392 72.576 220.096C69.584 215.472 69.12 214.08 68.256 208.64C64.528 211.344 63.12 209.712 63.488 205.456C57.76 202.56 62.848 191.952 68.256 197.504C67.808 194.528 70.016 193.072 74.912 193.152L74.32 191.152C64.064 195.632 63.408 187.584 66.672 180.016L69.856 178.432L73.024 175.312C84.16 174.704 95.296 175.216 106.416 176.848L106.384 176.88Z" fill="#CC2427"/>
<path d="M176.32 213.44C177.712 213.888 177.68 214.416 176.32 215.024C177.536 217.2 179.648 218.784 182.672 219.792C187.008 218.608 187.584 219.968 184.256 222.976C188.368 225.424 187.296 227.36 182.672 226.16C182.416 231.584 180.816 232.656 177.904 229.344C176.416 233.52 175.36 237.232 174.72 240.464C177.584 242.256 178.112 244.384 176.304 246.816H163.584L149.936 242.608L149.28 238.864C145.728 239.232 138.256 237.984 138.16 234.096C128.912 233.376 132.752 223.296 139.744 222.976C138.608 220.592 139.664 220.064 142.928 221.392C140.256 217.92 146.672 209.344 150.88 211.856C149.248 208.608 149.92 205.504 154.064 207.088C152.352 203.104 153.376 202.224 157.248 203.904C157.488 199.6 158.56 195.888 160.432 192.784C160.88 191.392 161.408 191.424 162.016 192.784C165.248 194.096 167.328 198.096 168.272 204.784C172.656 207.472 175.344 210.352 176.32 213.456V213.44Z" fill="#FEF2F1"/>
<path d="M25.328 154.624C28.624 152.64 39.008 156.032 38.048 160.976C41.632 164.32 49.328 172.288 47.584 176.864C54.448 182.064 54.864 186.128 48.832 189.008C49.744 196.096 48.272 199.984 44.4 200.704C39.312 201.728 27.488 191.44 30.096 186.4C25.552 187.6 24.56 185.568 26.912 181.632C22.224 183.808 19.568 177.504 22.144 173.68L18.464 174L7.83999 159.376C4.67199 163.024 0.0319907 163.536 -6.04801 160.912C-9.36001 164.576 -12.8 166.272 -14.4 160.96C-14.848 162.352 -15.376 162.32 -15.984 160.96V149.84C-15.312 145.76 -14.192 145.152 -10.432 144.688C1.53599 147.92 13.456 151.216 25.344 154.608L25.328 154.624Z" fill="#9E2121"/>
<path d="M195.392 216.624C204.816 217.776 209.856 223.888 212.88 232.512C217.648 229.968 219.936 236.16 220.832 240.464C220.736 242.208 222.24 244.88 222.416 246.816H212.88C211.776 246 210.704 245.968 209.696 246.816H203.344L198.912 245.36C195.632 240.208 192.336 235.392 189.04 230.912C186.496 228.384 184.912 225.744 184.272 222.96C183.936 222.592 183.824 220.896 182.688 219.776C180.08 218.992 176.8 217.6 176.336 215.008V213.424C178.944 209.504 193.328 212.304 195.408 216.608L195.392 216.624Z" fill="#CA2B29"/>
<path d="M57.12 222.976C58.48 223.456 58.464 223.984 57.12 224.56C61.12 224.288 62.864 225.648 60.304 229.328C66.336 231.072 71.824 240.224 63.776 240.128C63.36 242.608 62.736 244.832 61.904 246.816H38.064C29.664 246.304 32.624 232.4 38.064 229.328C43.472 226.784 49.216 224.288 55.296 221.84L57.136 222.976H57.12Z" fill="#220E0E"/>
<path d="M9.42403 215.024C12.336 213.952 16.048 215.008 20.544 218.208C20.896 212.24 27.552 213.904 30.08 218.208C34.432 215.168 39.424 221.232 34.848 224.56C33.376 227.728 31.792 227.312 29.248 225.52C33.36 232.288 29.616 242.8 23.712 246.816H18.944C12.688 246.336 16.016 239.76 20.112 237.024C20.656 233.424 19.216 230.848 15.76 229.328C15.536 225.664 13.744 228.016 10.384 236.368L7.80803 235.68C5.45603 236.784 3.34402 235.184 1.45602 230.912C-2.28797 229.072 -0.143975 227.616 3.04002 226.144C1.74402 224.416 1.21602 222.304 1.45602 219.792C-3.71198 213.248 3.66403 212.832 9.40803 215.024H9.42403Z" fill="#A72323"/>
<path d="M68.24 208.672C69.248 209.12 72.576 208.208 73.008 208.672C73.376 209.072 70.496 215.248 73.488 219.312C74.272 220.368 76.656 220.768 77.728 222.144C84.352 230.656 90.528 239.424 98.432 246.816H87.312L82.256 244.592L70.112 224.528C66.16 226.56 60.336 228.256 57.12 224.56C56.976 224.16 57.184 223.536 57.12 222.976C54.048 222.096 54.08 220.704 57.12 219.792C56.976 214.992 63.104 205.808 68.24 208.672Z" fill="#BA2626"/>
<path d="M87.312 246.816H65.056C61.648 244.384 62.464 240.048 67.472 233.808C64.4 233.376 62.4 231.648 60.288 229.328C59.76 228.128 57.92 226.928 57.104 224.56C63.184 222.208 70.672 225.344 69.024 216.624L87.312 246.816Z" fill="#8D231E"/>
<path d="M-14.416 232.512C-12.4 225.984 -7.50398 220.448 -3.00798 225.424C0.608015 223.488 2.62402 223.728 3.07202 226.144C2.65602 227.648 1.90402 228.96 1.48802 230.912C-1.15732 238.101 -1.15732 238.101 1.48802 230.912C2.20802 230.4 3.31202 230.208 3.87202 229.36C4.49602 229.472 7.68001 234.864 7.84001 235.68C11.52 235.328 11.408 237.776 7.84001 238.864C12.208 242.624 7.31202 245.904 3.07202 246.816H-14.416C-15.712 242.272 -15.648 237.072 -14.416 232.512Z" fill="#B82426"/>
<path d="M34.864 224.56C36.032 220.096 43.296 218.816 45.984 222.976C47.088 225.792 44.448 227.92 38.032 229.328C38.576 236.336 33.216 240.192 38.032 246.816H23.728C23.6 238.448 30.864 235.808 26.768 227.376C26.176 226.144 23.68 226.144 23.68 225.168C23.552 214.272 30.608 224.144 34.848 224.576L34.864 224.56Z" fill="#A02623"/>
<path d="M146.112 240.464C150.768 240.464 150.56 245.776 146.112 246.816H123.856C121.984 245.312 120.4 243.712 119.088 242.048C110.672 237.92 120.48 235.888 126.336 235.632C132.192 235.376 142.368 236.272 146.096 240.464H146.112Z" fill="#ED5D54"/>
<path d="M15.792 229.328L20.592 227.744C23.024 226.784 23.648 238.08 23.44 238.64C23.264 239.12 17.216 241.2 18.976 246.816H3.08801C3.87201 245.04 7.61601 239.872 7.85601 238.864C10.752 236.336 13.008 233.808 13.744 229.792L15.808 229.328H15.792Z" fill="#A02623"/>
<path d="M177.904 229.328C181.76 231.104 184.4 233.216 185.856 235.68C193.264 235.616 202.336 244.272 192.208 246.8H181.088C179.312 244.384 177.184 242.272 174.736 240.448C171.536 240.896 169.056 241.296 169.952 237.28L174.72 236.48C167.088 229.168 174.864 230.832 177.904 229.328Z" fill="#FBD4D2"/>
<path d="M6.256 146.688C12.112 149.344 18.4 151.312 25.12 152.576L25.328 154.64C21.168 153.536 15.168 153.584 10.656 152.624C2.368 150.848 -6 144.4 -16 149.872V140.336H-14.416C-7.2 138.608 1.648 140.368 6.24 146.688H6.256Z" fill="#F5ACA9"/>
<path d="M203.344 246.816H192.224C196.496 240.192 189.504 240.576 186.336 238.336C185.536 237.76 186 235.792 185.856 235.68C181.504 233.872 182.912 231.168 187.44 230.912C187.824 229.52 188.368 229.568 189.024 230.912C198.208 232.208 197.936 240.432 203.328 246.8L203.344 246.816Z" fill="#FCE7E7"/>
<path d="M60.288 229.328C65.888 230.464 69.472 229.328 72.992 234.896C65.792 237.216 71.504 238.64 71.712 239.008C76.224 246.928 68.352 242.784 64.272 240.432L65.056 246.8H61.872C59.136 240.144 65.248 238.56 65.04 238.064C64.304 236.256 61.776 232.672 60.272 229.312L60.288 229.328Z" fill="#421512"/>
<path d="M112.736 240.464C115.056 236.96 117.184 237.488 119.088 242.048C120.528 242.256 124.176 238.032 123.856 246.816H103.2C103.808 245.968 104.16 244.192 104.784 243.632C102.912 240.576 103.968 240.048 107.968 242.048C109.584 241.328 110.8 240.528 112.736 240.464Z" fill="#4C140C"/>
<path d="M163.6 246.816H146.112V240.464C145.664 239.136 146.72 238.608 149.296 238.88C154.352 241.12 159.536 242.816 163.6 246.832V246.816Z" fill="#BF342C"/>
<path d="M212.88 246.816H209.696L196.992 224.56C204.08 229.936 209.584 238.672 212.864 246.816H212.88Z" fill="#521612"/>
<path d="M181.088 246.816H176.32C174.72 244.608 172.528 242.912 174.736 240.464C175.056 240.416 175.904 238.88 177.2 238.864C181.328 238.832 181.456 243.504 181.104 246.816H181.088Z" fill="#F69A96"/>
<path d="M44.4 200.72C46.384 201.392 48.72 202.512 51.392 204.096C57.472 202.448 61.488 202.912 63.488 205.488C65.392 205.488 67.152 208.192 68.256 208.672C63.904 211.136 61.664 218.16 57.136 219.792C55.584 222.48 48.352 225.536 46.016 222.976C42.272 223.12 38.704 224.944 34.896 224.56C34.464 221.264 31.616 220.032 30.128 218.208C24.784 215.136 18.96 213.024 12.64 211.856L11.568 213.712C3.63203 210.224 -2.36797 210.128 -6.43197 213.44C-5.00797 213.824 -5.03997 214.352 -6.43197 215.024C-8.73597 219.584 -14.16 216.224 -14.384 211.84C-14.384 210.784 -14.384 209.728 -14.384 208.656C-12.16 204.624 -7.93597 202.496 -1.66397 202.304C-1.71197 197.312 9.87202 189.68 14.224 192.768C19.2 187.552 24.496 185.424 30.112 186.416C33.664 190.8 40.048 195.424 44.416 200.72H44.4Z" fill="#E03027"/>
<path d="M65.056 180.064C65.632 185.872 66.688 191.712 68.24 197.552C63.072 199.088 65.168 199.68 63.472 205.504C60.096 205.504 54.992 208.64 48.672 206.784C44.528 205.552 45.392 201.952 44.4 200.736C46.4 197.28 44.624 191.36 46.032 187.648C47.44 183.936 53.84 187.024 47.584 176.896C50.208 176.288 53.056 176.736 56.144 178.24C59.68 177.12 62.656 177.728 65.072 180.08L65.056 180.064Z" fill="#C12226"/>
<path d="M87.312 164.16C89.12 159.904 91.312 161.184 90.496 165.744C87.392 170.832 90.688 173.008 100.384 172.272C104.064 172.592 106.064 174.128 106.4 176.864C94.528 175.344 82.032 179.024 69.84 178.448C61.936 181.232 58.048 179.6 58.144 173.536C53.264 168.784 48.944 158.224 58.704 160.96L60.528 159.696C60.528 159.696 69.456 161.184 87.312 164.144V164.16Z" fill="#FAC4C2"/>
<path d="M53.936 156.224C56.416 157.52 58 159.104 58.704 160.992C51.92 163.792 59.296 168.736 61.008 172.256C61.952 174.176 61.68 178.096 61.968 178.384C62.496 178.928 67.984 178.384 69.84 178.48C69.344 180.048 68.016 179.92 66.656 180.064C66.272 181.472 65.728 181.44 65.072 180.064C56 181.28 54.928 183.424 47.584 176.88C44.464 174.112 35.984 165.136 38.048 160.992C38.192 157.072 41.072 158.176 42.816 160.992C41.76 157.424 49.792 156.88 50.352 157.712C51.008 158.688 46.448 161.056 50.768 156.224C50.608 152.896 53.136 152.944 53.952 156.224H53.936Z" fill="#F8B3B2"/>
<path d="M85.728 207.088C88.032 205.136 94.48 203.568 95.264 207.088C96.48 206.544 97.552 206.768 98.688 207.296C102.464 209.056 114.576 215.872 112.736 219.792C115.776 218.592 116.256 227.84 112.736 226.144C111.504 228.864 108.992 229.04 105.216 226.656L92.08 218.192C91.136 217.28 90.288 215.728 88.848 214.352C85.6 211.264 73.856 207.936 85.728 207.056V207.088Z" fill="#49120E"/>
<path d="M138.176 234.096C143.52 235.264 145.136 237.024 149.296 238.864C149.456 240.352 147.152 240.624 146.112 240.448C137.36 238.992 130.576 238.416 121.456 238.864C117.552 239.056 116.256 237.712 119.088 242.048C117.088 241.776 114.288 240.4 112.736 240.464V238.88C111.488 235.824 112.704 234.448 115.92 235.696C115.472 231.44 118.656 230.384 125.456 232.512C128.928 226.112 134.752 231.024 138.176 234.096Z" fill="#65261E"/>
<path d="M90.496 165.76C92.272 163.008 97.504 164.128 98.448 167.344C109.216 168.16 112.928 171.328 109.568 176.88C109.776 178.512 109.584 179.088 107.984 178.464C107.952 177.36 107.44 177.008 106.4 176.88C96.08 172.64 87.856 180.208 84.144 165.776C86.224 165.888 88.432 165.552 90.496 165.776V165.76Z" fill="#FAD5D3"/>
<path d="M98.432 188.016C103.808 189.68 99.728 200.08 101.616 202.32C104.992 206.32 106.192 195.184 106.368 194.368C107.504 190.224 108.144 190.24 109.552 194.368C115.328 200.112 108.768 206.896 101.6 205.488C100.336 209.552 98.016 210.624 95.248 207.072C92.096 207.28 88.864 206.848 85.712 207.072C85.584 205.872 87.232 204.4 87.296 203.888C88.144 200.128 90.816 199.6 93.648 202.304C93.696 199.584 94.592 198 95.36 200.608L96.208 187.296L98.416 188L98.432 188.016Z" fill="#D94031"/>
<path d="M104.8 243.632C97.376 235.712 84.72 226.72 78.496 218.272C76.912 216.112 75.552 214.944 76.208 211.84C86.896 221.888 96.112 233.312 107.984 242.032C107.392 242.304 104.944 243.504 104.8 243.616V243.632Z" fill="#BA2626"/>
<path d="M66.656 180.064V189.6C71.456 189.632 76.32 185.136 77.824 191.968C79.072 197.632 72.928 196.176 68.256 197.552C62.528 194.032 62.896 185.856 65.072 180.064C65.584 180 66.144 180.128 66.656 180.064Z" fill="#811D19"/>
<path d="M112.736 226.16C114.128 226.608 114.096 227.136 112.736 227.744C114.432 229.872 113.6 230.624 111.152 229.328C113.072 234.48 113.376 239.68 107.968 234.096C104.304 229.552 96.672 222.64 92.08 218.208L112.736 226.16Z" fill="#AC2B26"/>
<path d="M95.264 180.064C98 184.128 96.048 197.664 93.68 202.32C92.656 202.624 91.552 202.864 90.48 202.624C87.76 202.016 89.504 183.68 90.496 180.064C92.08 180.128 93.68 179.968 95.264 180.064Z" fill="#DF3D2F"/>
<path d="M93.664 202.32C91.616 203.184 90.224 204.8 87.312 203.904C88.336 196.688 86.928 186.672 90.496 180.064C91.696 186.784 87.408 198.144 93.68 202.32H93.664Z" fill="#F48884"/>
<path d="M95.2641 180.064C96.3201 180.128 97.3921 179.968 98.4321 180.064C98.2721 182.656 98.7361 185.488 98.4321 188.016C98.4161 188.16 97.1681 187.808 96.8801 190.368C96.4961 193.888 97.5521 198.56 96.9121 201.328C96.4641 203.28 94.4321 202 93.6641 202.32L95.2481 180.064H95.2641Z" fill="#AD2424"/>
<path d="M109.568 194.368H106.384C107.824 187.856 107.312 184.416 107.968 178.48C108 178.208 109.28 177.52 109.552 176.896C114 177.68 114.752 180.208 111.824 184.464C113.008 190.496 112.24 193.808 109.552 194.368H109.568Z" fill="#E35C52"/>
<path d="M115.92 235.696C115.472 235.92 114.4 238.72 112.736 238.88C108.656 240.064 109.488 236 107.968 234.112C113.616 234.768 108.576 232.736 111.152 229.344C114.928 227.904 119.136 232.352 115.92 235.696Z" fill="#DA4535"/>
<path d="M-14.416 10H222.416C221.92 78.304 223.056 146.72 222.416 215.04C216.368 219.632 202.64 220.288 195.392 216.624C191.008 216.624 180.32 214.8 176.32 213.44C163.84 209.232 164.176 204.56 162.016 192.784C164.144 188.368 163.616 183.6 160.432 178.48C157.568 175.264 156.32 166.064 162.016 164.176L164.72 165.216C170.48 164.496 164.64 171.392 162.016 164.176C157.952 162.432 157.936 161.184 162.016 159.408C163.728 157.472 166.048 157.376 168.368 157.824C169.232 163.632 169.824 162.48 170.144 154.368L173.136 146.704C172.016 146.144 170.992 145.424 170.352 144.336C170.064 143.84 173.968 136.592 174.736 135.568L174.352 132.784C178.768 126.992 177.392 121.12 174.736 119.68C171.696 118.752 171.696 117.328 174.736 116.496C178.768 113.2 178.928 109.328 174.736 105.376C173.856 103.472 174.928 101.344 177.92 99.024C175.76 97.472 175.232 95.344 176.336 92.672C172.4 82 169.696 70.96 168.192 59.536C166.592 56.832 159.472 47.968 157.824 51.648L157.264 48.16C152.8 45.12 148.624 45.616 142.96 46.576C140.976 51.008 136.688 49.76 136.608 44.992C137.792 43.856 138.864 42.8 139.792 41.808C136.368 37.616 140.368 40.144 140.128 40.288C135.616 43.136 123.392 36.624 122.304 30.688C118.624 32.128 113.856 31.072 108 27.504C102.416 31.824 95.008 33.424 85.744 32.272L84.448 35.584C74.032 39.856 62.304 46.288 59.376 58.256L54.544 82.064L50.768 83.136C48.464 97.712 49.456 111.472 53.744 124.416L50.768 127.648C50.32 129.04 49.792 129.008 49.184 127.648C44.528 131.84 35.904 132.864 31.696 127.648C30.192 129.232 26.448 128.768 26.928 126.064L12.016 123.408C8.68799 124.768 5.71199 126.176 3.08799 127.648C1.55199 127.296 1.00798 127.808 1.50398 129.232C4.55998 129.504 3.98398 132.992 1.50398 134C4.84798 143.008 -10.16 141.36 -14.384 137.184V10H-14.416Z" fill="#E03027"/>
<path d="M134.992 181.648L138.48 180.768C143.232 187.04 146.24 189.888 153.184 191.952C153.28 196.976 153.568 202.016 154.064 207.088C152.72 209.232 152.736 209.536 150.88 211.856C148.768 213.808 147.536 213.36 145.904 211.328C143.936 222.24 132.656 217.808 133.408 208.672C128.576 205.024 134.08 195.984 139.76 200.72C141.952 197.6 134.752 189.728 130.224 192.768C132.192 198.352 124 197.728 123.872 192.768C123.088 189.536 123.472 187.168 127.056 186.416C128.624 184.144 131.936 180.768 135.008 181.648H134.992Z" fill="#F7ABA8"/>
<path d="M157.248 189.6C159.168 193.632 159.168 198.4 157.248 203.904C156.256 205.792 154.432 206.496 154.064 207.088C146.912 204.816 151.504 193.264 150.896 192.8C150.352 192.384 146.864 193.504 144.896 192.416C144.016 191.92 136.592 183.36 134.992 181.664C133.616 181.152 133.616 180.624 134.992 180.08C132.416 176.096 136.144 174.512 139.76 175.312C142.608 172.256 143.44 172.768 142.944 176.896C146.144 179.824 148.432 180.288 152.48 178.48C151.216 177.536 151.744 176.48 154.064 175.296C154.912 172.912 158.56 169.776 158.912 172.48C159.616 177.872 158.336 184.24 157.232 189.6H157.248Z" fill="#F8BAB6"/>
<path d="M131.808 211.856C134.96 215.824 138.688 217.696 143.008 217.456L142.928 221.392C142.32 222.064 140.336 222.336 139.744 222.976C138.176 225.136 135.632 225.84 132.128 225.12C130.496 229.456 128.272 231.392 125.44 230.928C121.84 233.568 114.704 233.632 115.904 227.744C115.04 227.776 114.352 227.776 114.32 227.616C112.432 219.44 116.352 215.184 124.656 215.008C125.232 211.52 126.464 209.232 130.208 210.24C132.256 208.288 132.544 209.136 131.792 211.824L131.808 211.856Z" fill="#B72626"/>
<path d="M133.408 208.672C138.608 221.632 144.096 215.392 142.944 203.888C150.384 202.128 146.08 208.24 150.88 211.84C147.872 215.616 146.272 217.68 142.928 221.376C137.024 216.24 136.192 221.44 131.808 211.84C130.56 209.984 131.056 207.792 133.392 208.656L133.408 208.672Z" fill="#F5908D"/>
<path d="M139.76 222.976C139.136 223.648 134.72 231.968 135.008 232.48C135.088 232.64 137.648 232.96 138.16 234.096C136.288 233.696 126.816 232.368 125.44 232.512C124.048 232.064 124.08 231.536 125.44 230.928C130.176 221.664 129.088 220.512 139.744 222.976H139.76Z" fill="#912D24"/>
<path d="M160.416 178.464C166.624 178.512 170.544 192.704 162 192.768H160.416C158.144 193.68 157.776 191.52 158.832 189.584C157.664 186.672 157.664 179.952 160.416 178.464Z" fill="#CD2628"/>
<path d="M182.672 226.16C185.136 226.752 186.992 228.352 187.44 230.928L185.856 235.696C183.856 234.272 177.424 235.12 177.904 229.344C179.248 228.672 181.552 227.152 182.672 226.16Z" fill="#BD302C"/>
<path d="M189.04 230.928C188.528 230.848 187.968 230.992 187.456 230.928C182.976 230.304 182.064 232.832 182.688 226.16C183.776 225.2 184.4 224.56 184.272 222.976C185.728 224.576 192.736 223.776 189.04 230.928Z" fill="#811B18"/>
<path d="M160.416 192.784C160.64 198.176 159.488 199.648 157.232 203.904L156.016 202.976C157.28 198.48 157.184 194.192 157.232 189.6C157.68 188.208 158.208 188.24 158.816 189.6C158.816 190.368 160.368 191.952 160.4 192.784H160.416Z" fill="#D3483C"/>
<path d="M182.672 219.792C178.672 220.592 172.032 218.512 176.32 215.024C180.336 214.72 180.912 218.064 182.672 219.792Z" fill="#A44239"/>
<path d="M222.416 215.024C222.384 218.72 222.496 222.448 222.416 226.144C221.968 229.008 219.584 229.456 215.264 227.44C216.08 229.92 215.536 231.344 212.88 232.496C207.264 226.416 201.792 221.76 195.392 216.608C204.112 216.608 213.28 213.68 222.416 215.024Z" fill="#FCDEDC"/>
<path d="M222.416 226.16C222.304 231.616 221.056 236.016 220.832 240.464C217.088 238.816 215.36 235.184 212.88 232.512L211.312 222.976L222.416 226.16Z" fill="#F8ADA9"/>
<path d="M7.83998 159.392L10.256 162.176C2.55998 177.264 5.19999 180.368 18.16 171.504L22.144 173.712C23.776 175.888 24.928 179.184 26.912 181.664C27.904 185.792 22.048 189.04 18.96 186.432C9.51999 193.968 -5.40802 201.152 -14.416 191.2V161.008C-8.25602 161.872 -9.53602 160.224 -9.63202 154.656C-3.80802 160.528 1.00798 158.704 7.83998 159.424V159.392Z" fill="#301210"/>
<path d="M7.84 159.392C9.248 159.536 10.88 158.816 12.224 159.728C12.928 160.208 20.336 171.296 22.144 173.696C15.328 174.8 10.336 181.04 3.072 180.064C1.44 171.856 5.568 166.624 7.84 159.392Z" fill="#DA2E27"/>
<path d="M6.25599 146.688L10.032 144.4C11.696 144.336 32.864 150.384 36.16 151.648C40.512 153.328 48.512 156.992 42.8 160.992C41.456 161.024 38.944 161.296 38.032 160.992C36.64 160.544 29.888 155.84 25.312 154.64C20.032 149.68 10.016 153.184 6.23999 146.688H6.25599Z" fill="#F5B9B7"/>
<path d="M38.032 170.512C35.04 173.264 29.824 165.184 27.392 164.48C23.632 163.392 17.568 165.92 15.792 160.992C19.792 162.304 25.92 158.928 28.992 159.632C30.784 160.048 39.696 168.976 38.032 170.496V170.512Z" fill="#7D1717"/>
<path d="M30.096 186.416C26.176 190.304 18.288 190.56 14.208 192.768C11.904 190.944 13.488 188.816 18.976 186.416C19.696 186.128 24.32 181.92 26.928 181.648C28.272 183.328 29.152 185.232 30.112 186.416H30.096Z" fill="#811B18"/>
<path d="M57.12 219.792C57.184 220.832 57.008 221.936 57.12 222.976C50 224.352 46.128 231.152 38.048 229.328C37.984 228.528 35.808 226.528 36.464 226.16C42.144 228.368 44.4 223.696 46 222.96C49.872 221.216 55.808 220.256 57.12 219.776V219.792Z" fill="#691914"/>
<path d="M-6.46399 215.024L-3.21599 216.304C-4.41599 219.568 -2.84799 220.736 1.48801 219.792C7.08801 222.08 3.66401 224.016 3.07201 226.144C-1.51999 226.08 -4.28799 230.272 -5.66399 224.56C-7.87199 228.432 -10.48 230.496 -14.416 232.496C-14.56 225.632 -14.384 218.704 -14.416 211.84L-6.46399 215.024Z" fill="#CA2928"/>
<path d="M9.424 215.024C1.872 213.712 3.936 216.176 1.472 219.792C0.783999 220.816 -0.144001 222.656 -1.264 222.944C-8.848 224.944 -5.936 220.256 -6.48 215.024C-6.528 214.496 -6.4 213.952 -6.48 213.44C-4.72 208.592 7.584 211.088 9.408 215.024H9.424Z" fill="#EB574D"/>
<path d="M30.096 218.208C26.96 215.824 22.64 218.4 20.56 218.208C15.392 216.784 12.752 214.672 12.608 211.856C15.648 212.048 17.744 208.912 24.656 211.744C30.368 214.096 28.464 216.208 30.096 218.208Z" fill="#F05D53"/>
<path d="M12.608 211.856L20.56 218.208C15.68 217.744 13.472 216.176 9.44 215.024C4.416 213.6 -0.656003 209.424 -6.448 213.44C-6.576 212.56 -8.656 210.672 -8.032 210.272C-1.056 208.816 6.592 211.456 12.624 211.84L12.608 211.856Z" fill="#F59490"/>
<path d="M7.84003 235.696C13.36 232.144 11.184 225.712 15.024 221.408C19.12 220.192 16.128 228.208 15.792 229.344C14.768 232.848 12.304 242.464 7.84003 238.88C8.00003 238.224 7.98403 236.416 7.84003 235.696Z" fill="#7F1E19"/>
<path d="M1.48799 230.928C0.687986 234.64 2.62399 244.976 -4.86401 245.216C-3.96801 240.448 -2.68801 233.856 1.48799 230.928Z" fill="#972521"/>
<path d="M15.792 141.92L15.152 143.184C21.088 143.28 26.064 144.464 30.096 146.688C36.368 146.784 49.12 150.032 50.752 156.224L52.336 159.376C49.072 160.336 46.272 160.928 42.8 160.992C43.488 159.152 39.344 155.12 38.368 154.784C29.136 151.536 15.92 149.392 6.23998 146.688C-0.688016 144.768 -7.61602 142.784 -14.416 140.336V137.152C-8.89602 136.336 -1.16801 139.808 1.47199 133.968C4.51199 136.544 8.73599 137.968 14.16 138.272L15.776 141.904L15.792 141.92Z" fill="#C1322C"/>
<path d="M18.96 186.416L14.192 192.768C8.87998 195.648 4.86398 198.864 -1.69602 202.304C-8.54402 205.776 -12.768 205.248 -14.416 200.72V191.184C-10.128 191.504 -0.0640164 193.392 3.64798 192.832C4.73598 192.672 4.68798 190.192 4.97598 190.096C7.66398 189.248 17.328 187.056 18.96 186.416Z" fill="#691310"/>
<path d="M100.032 145.088C102.624 148.304 101.136 153.344 95.552 160.224L96.848 162.576C99.68 158.512 113.84 155.792 115.92 160.992C117.184 156.16 123.04 161.648 123.872 164.176C123.056 167.056 121.712 166.944 120.688 164.176C119.456 167.648 116.816 168.176 112.736 165.76C110.88 170.336 106.112 170.864 98.432 167.344C95.504 167.312 93.008 166.016 90.48 165.76C89.696 164.992 88.368 164.128 87.296 164.176C83.12 163.568 81.008 161.984 80.944 159.408C76.656 160.192 76.432 159.408 79.36 156.224C75.488 152.432 75.088 149.44 80.944 149.872C86.56 150.112 90.288 149.392 93.2 143.92L96.848 143.52C99.04 139.68 100.912 140.912 100.032 145.104V145.088Z" fill="#57130F"/>
<path d="M80.96 159.392C82.816 159.424 86.384 162.256 87.312 164.16C75.424 164.576 70.976 166.208 58.704 160.976C56.144 159.888 52.976 159.248 53.936 156.208C54.368 154.832 54.896 154.864 55.52 156.208L56.736 154.368C63.712 156.192 70.816 157.12 78.048 157.152L80.944 159.392H80.96Z" fill="#9A2622"/>
<path d="M45.984 148.272C50.64 146.704 54.688 149.152 57.104 153.04C60.4 155.984 59.856 156.448 55.52 156.224C55.04 156.08 54.416 156.368 53.936 156.224C53.072 155.952 51.616 156.496 50.752 156.224C45.248 154.48 37.072 148.768 30.096 146.688C29.536 145.184 31.12 144.656 34.864 145.104C37.168 140.528 45.232 143.872 45.984 148.288V148.272Z" fill="#F1B5B2"/>
<path d="M101.616 205.488C106.848 203.136 108.96 203.664 107.968 207.072L123.712 210.992C125.024 214.848 122.448 216.864 115.984 217.04C115.04 218.416 113.968 219.344 112.736 219.792C108.176 215.056 96.88 214 95.248 207.072C96.08 207.024 98.048 205.488 101.6 205.488H101.616Z" fill="#761414"/>
<path d="M130.224 208.672C131.616 208.96 131.568 209.504 130.224 210.256C129.904 211.904 126.144 214.672 128.64 218.192L115.92 218.224V227.744C115.44 231.904 114.432 231.472 112.736 227.744V226.16C116 224.208 112.64 220.832 112.736 219.808C113.344 212.848 124.592 215.856 120.672 211.888C119.44 210.64 109.904 210.112 107.968 207.104L111.12 204.256C117.968 204.784 124.032 205.92 130.208 208.688L130.224 208.672Z" fill="#8E1D1C"/>
<path d="M115.92 227.744C117.968 228.208 121.744 232 125.456 230.928V232.512C124.96 232.56 116.48 235.408 115.92 235.696L111.152 229.344C111.6 228.752 111.664 227.968 112.736 227.76C113.456 227.616 115.232 227.6 115.92 227.76V227.744Z" fill="#F0AAA8"/>
<path d="M112.736 165.76C120.912 164.816 129.28 178.96 122.272 183.248C119.568 187.728 117.184 185.952 115.92 181.664C112.064 188.72 117.168 199.344 125.84 199.68C126.96 202.288 128.416 204.752 130.224 207.088C131.632 207.488 131.6 208.016 130.224 208.672C122.64 209.488 115.408 207.808 107.968 207.088C106.88 206.976 105.28 205.488 101.616 205.504C107.824 202.928 108.352 200.56 109.568 194.384C110.592 189.152 111.264 181.504 109.568 176.896C106.656 169.056 104.112 172.096 98.448 167.36C104.224 167.44 107.824 166.208 112.752 165.776L112.736 165.76Z" fill="#B22425"/>
<path d="M85.728 32.24C95.6 29.136 102.768 33.792 103.216 43.36C106.016 40.48 107.6 41.536 107.984 46.544C112.144 45.2 111.936 50.048 109.456 52.64C108.56 53.584 88.304 61.648 85.024 59.792C76.96 64.384 71.088 72.304 71.424 81.728L68.224 84.688L71.104 87.824C70.176 90.8 71.328 93.456 74.576 95.808L77.84 92.576C83.616 93.712 89.408 94.8 95.232 95.808L97.008 93.904C102.672 96.24 108.432 97.92 114.304 98.976C117.072 95.536 124.064 95.728 128.608 97.392C129.152 93.92 131.232 95.488 133.376 97.392C140.624 96.464 148.032 96.464 155.632 97.392C156.992 93.056 159.152 92.928 160.4 97.392C160.928 96.032 161.456 96.032 161.984 97.392C164.736 92.064 169.568 97.44 165.168 100.576C167.984 101.872 168.496 104.48 165.168 105.344C167.952 108.544 167.936 108.704 163.584 108.528C165.056 114.128 164 116.768 160.4 116.48C163.152 118 163.632 118.864 160.4 119.664C162.72 121.952 162.032 123.296 158.816 122.848C156.544 125.024 155.984 124.128 157.232 121.264C153.792 122.768 151.136 122.768 149.28 121.264C147.6 124.384 148.128 127.024 150.864 129.216C153.184 127.504 154.08 128.24 152.448 130.8C150.88 139.776 136.368 135.936 130.192 132.384C126.224 132.32 122.512 129.664 119.072 124.432C114.8 125.04 114.448 124.32 117.488 121.248C112.8 118 111.728 115.872 114.304 114.896C109.808 113.856 106.608 118.256 104.672 128.096C101.376 132.432 96.768 137.536 90.96 134.8C86.832 138.464 84.016 138.704 82.512 135.536C78.672 140.32 66.656 133.504 71.392 127.584C72.6613 125.813 72.6613 125.813 71.392 127.584C71.552 131.84 69.536 132.096 66.624 129.168C64.48 129.12 62.896 127.008 61.856 122.816C62.592 127.056 54.496 126.864 52.832 125.04C48.672 120.512 49.936 90.432 50.736 83.088C56.912 67.264 51.52 54.944 66.624 41.2C67.232 40.656 69.312 41.152 70.608 40.224C76.24 36.208 76.48 32.832 85.696 32.224L85.728 32.24Z" fill="#1C0D0C"/>
<path d="M61.888 122.848C63.264 127.68 64.848 129.792 66.656 129.2C68.096 128.416 69.776 127.68 71.424 127.616C70.608 125.504 69.296 123.808 69.84 121.264C76.064 122.4 80.32 127.488 87.312 126.032C84.272 132.24 76.896 127.392 71.424 127.6C73.648 133.376 76.896 133.04 82.544 135.552C85.392 136.688 84.912 139.616 81.104 144.336L80.96 148.256C82.32 148.672 82.288 149.2 80.96 149.84C80.144 151.824 78.384 153.2 79.376 156.192C77.184 157.616 74.432 157.248 71.152 155.088C63.328 155.536 58.64 153.776 57.12 149.824C54.144 151.664 49.824 148.176 52.352 145.056C46.704 146 47.968 131.6 50.768 127.568C49.952 112.208 45.568 96.3998 50.768 83.0718C52.544 91.7598 50.288 113.344 52.576 120.208C53.808 123.92 58.96 122.736 61.888 122.816V122.848Z" fill="#3D1411"/>
<path d="M160.416 119.664C161.712 116.992 171.456 118.432 169.52 123.424C175.904 123.104 175.648 127.504 173.12 132.384C174.656 131.248 175.184 132.32 174.704 135.568C174.016 139.104 173.84 143.472 173.12 146.688C172.24 151.04 170.656 153.68 168.352 154.64C165.664 152.272 163.552 151.744 162 153.056C165.392 155.984 166.528 157.232 162 159.408C160.496 159.968 159.184 159.856 158.112 158.8L156.208 144.448C149.712 143.376 144.224 141.472 139.76 138.752C138.848 139.952 137.792 139.424 136.576 137.168C132.368 141.168 128.784 136.928 130.224 132.4C138.144 132.816 144.16 134.64 152.48 130.816C153.312 128.56 156.64 125.008 158.832 122.864C159.296 121.792 160.032 120.784 160.416 119.68V119.664Z" fill="#F9C9C7"/>
<path d="M26.912 126.016C24.704 127.952 20.832 128.256 15.264 126.928C8.848 126.544 6.176 131.328 12.608 133.968C18.144 129.248 32.192 131.968 38.032 137.152C40.192 135.76 41.776 135.536 43.328 137.472C41.344 132.464 43.296 129.184 49.152 127.616H50.736C50.976 132.176 50.384 141.232 52.32 145.104C53.968 148.864 51.856 149.92 45.968 148.288C43.168 147.28 38.08 146.016 34.848 145.104C27.68 145.68 21.328 144.624 15.776 141.92C10.576 140.736 2.432 138.976 1.472 133.968C1.296 133.056 1.248 129.92 1.472 129.2C-0.608003 126.928 0.303997 126.096 3.056 127.616C9.472 117.248 17.136 123.36 26.896 126.032L26.912 126.016Z" fill="#801818"/>
<path d="M157.248 48.1438C161.728 48.7998 169.248 56.8638 170.64 60.9118C171.776 64.2078 171.328 67.5038 172.288 70.4478C174.432 77.0398 180.56 86.4478 176.32 92.6398C176.32 96.7678 175.248 96.7678 173.136 92.6398C168.352 93.5358 168 87.3918 168.144 83.5998C164.448 82.5598 163.984 80.7998 166.768 78.3358C163.408 75.6638 163.424 71.4878 166.768 68.7998L163.84 67.0078C165.04 64.0958 164.96 61.5198 163.584 59.2638C161.072 60.2398 160.176 59.6798 159.504 57.5198C158.736 60.8158 157.616 62.3518 154.048 60.8478C152.672 63.9358 143.392 56.6718 146.096 54.4958C145.664 52.4478 145.664 50.3358 146.096 48.1438C147.792 44.5918 155.168 44.7838 157.216 48.1438H157.248Z" fill="#BA2827"/>
<path d="M139.76 138.736C144.08 139.872 155.728 139.68 158.464 142.288C161.552 145.232 157.024 154.64 162.016 159.392C161.792 160.896 162.208 162.64 162.016 164.16C161.28 170.064 160.736 171.264 160.432 178.464C160.32 180.848 158.848 184.928 158.848 189.584H157.264C157.328 184.304 157.232 178.976 157.264 173.696C156.96 173.248 155.072 174.912 154.096 175.28C149.776 172.384 152.576 164.464 155.68 160.976L154.08 160.08C154.592 152.512 149.888 147.024 142.96 143.488C141.28 145.984 137.296 140.208 139.776 138.72L139.76 138.736Z" fill="#F6B2B0"/>
<path d="M122.272 30.6558C128.72 33.7598 133.376 39.6958 141.36 38.6238C141.84 38.9438 139.952 41.0078 139.76 41.7918L139.472 43.1838C130.8 43.2478 122.432 43.8398 114.32 44.9758C113.84 46.3038 113.312 46.2878 112.736 44.9758C112.8 48.4798 109.696 49.1518 107.968 46.5598C101.312 43.1998 113.504 31.7758 116.064 30.9758C118.656 32.4958 120.72 32.3838 122.272 30.6558Z" fill="#D72E28"/>
<path d="M122.272 30.656L123.856 38.592L116.688 33.84H114.336C114.944 42.432 107.824 34.88 107.968 46.544C106.128 46.432 104.544 44.4 103.2 43.36C100.352 39.712 100.112 37.456 104.096 34.928C99.504 27.232 111.168 28.88 114.336 32.224C114.656 32.56 105.376 29.44 107.984 27.472C114.448 27.104 116.064 27.664 122.288 30.656H122.272Z" fill="#972420"/>
<path d="M107.968 27.4722L114.32 32.2242L104.784 30.6722C112.496 38.7682 102.064 35.5202 103.2 43.3762C95.728 37.6322 97.36 31.4882 85.712 32.2562C93.168 30.0322 100.32 27.9202 107.968 27.4882V27.4722Z" fill="#521611"/>
<path d="M136.576 44.9601C136.96 45.0081 139.232 46.0481 142.928 46.5441C145.6 43.1521 146.848 43.9361 146.112 48.1281C150.336 50.1441 150.816 52.1121 146.112 54.4801C147.568 56.8801 145.984 57.4081 141.344 56.0641C140.848 57.4241 140.304 57.4241 139.76 56.0641L136.304 54.1441C122.208 53.1361 118.064 50.5921 123.872 46.5281C124.752 41.3921 132.896 43.1521 136.592 44.9441L136.576 44.9601Z" fill="#991F1F"/>
<path d="M49.168 127.616C50.352 130.848 46.128 130.624 45.92 131.84C45.104 136.848 52.784 150.272 38.048 137.152C31.664 135.104 29.552 132.464 31.696 129.2C30.304 128.752 30.336 128.224 31.696 127.616C37.44 128.08 43.408 127.296 49.184 127.616H49.168Z" fill="#B62325"/>
<path d="M165.2 89.472C169.072 89.104 171.184 92.272 171.552 99.008C173.168 96.688 175.28 96.688 177.904 99.008C177.968 99.84 180.352 103.024 179.504 103.76C178.816 104.368 175.104 103.056 174.72 105.36C178.496 107.472 179.536 116.592 174.72 116.48C171.376 116.624 170.448 116.16 171.92 115.04L169.952 106.944C167.808 105.6 166.224 103.488 165.184 100.592C164.496 99.952 166.688 98.192 162 97.408C158.912 92.816 162.544 79.36 165.184 89.456L165.2 89.472Z" fill="#CE2A28"/>
<path d="M26.912 126.016C28.768 126.144 30.656 127.52 31.68 127.6V129.184L30.544 132.736C23.168 130.864 17.184 131.264 12.608 133.952C10.912 134.032 7.488 136.672 4.672 135.536C5.936 120.624 16 125.264 26.912 126.016Z" fill="#6F1111"/>
<path d="M139.76 41.7762C139.696 42.0642 142.64 44.7842 136.576 44.9602C132.944 44.5762 127.024 46.0482 123.856 46.5442C123.28 52.6722 113.264 51.1682 114.32 44.9602C111.376 39.8722 112.848 42.7842 115.744 42.4002C118.64 42.0162 121.584 40.6402 123.408 40.5282C128.976 40.1922 134.048 44.7202 139.744 41.7762H139.76Z" fill="#EB5448"/>
<path d="M174.736 116.48C174.96 117.376 174.56 118.656 174.736 119.664L172.24 122.288C169.856 122.832 162.864 118.288 160.432 116.48C161.472 113.616 162.704 111.024 163.616 108.528C166.224 109.792 168.336 109.792 169.968 108.528C168.576 108.08 168.608 107.552 169.968 106.944C171.456 109.904 173.888 113.12 174.736 116.48Z" fill="#501810"/>
<path d="M142.944 46.5438L147.712 38.5918C145.424 47.7278 156.736 39.1678 157.248 48.1278C155.024 47.8078 149.856 48.6558 146.128 48.1278C145.216 47.9998 143.888 46.6718 142.944 46.5438Z" fill="#F0675D"/>
<path d="M162.016 164.16H168.368C164.96 170.192 169.824 168.656 170.032 169.712C171.936 179.664 160.48 173.648 162.016 164.16Z" fill="#F5918B"/>
<path d="M174.736 105.36C180.576 104.592 179.376 113.856 179.488 118.08C178.16 116.768 174.912 116.672 174.736 116.496C174.544 116.288 176.288 113.424 176.208 111.088C176.144 109.184 174.512 106.768 174.736 105.36Z" fill="#E85D50"/>
<path d="M176.32 92.6401C176.512 92.8001 179.232 96.3681 179.296 96.6081C179.472 97.2001 177.872 98.5281 177.904 98.9921C174.672 101.856 173.552 99.6161 171.552 98.9921C169.808 95.9041 168.432 89.5361 173.136 92.6401C174.032 92.8481 175.952 92.3361 176.32 92.6401Z" fill="#DE4D3B"/>
<path d="M174.736 119.664C175.504 119.904 176.848 119.312 177.84 119.696C180.288 125.856 175.488 131.712 174.736 135.552C174.416 134.544 173.248 133.248 173.152 132.368L174.688 126.432C171.472 125.52 171.296 121.232 174.752 119.648L174.736 119.664Z" fill="#E85D50"/>
<path d="M3.07202 127.616C2.64002 128.304 1.56802 128.944 1.48802 129.2C-10.64 123.968 -4.35198 115.648 3.07202 127.616Z" fill="#5B1E16"/>
<path d="M168.368 156.224C169.712 156.608 169.68 157.136 168.368 157.808C166.912 161.152 164.944 162.192 162.016 159.392C162.304 157.408 161.808 155.088 162.016 153.04C165.024 148.48 166.96 152.272 168.368 156.224Z" fill="#BB3A2E"/>
<path d="M173.136 146.688C171.984 151.808 171.376 157.44 169.936 162.576H168.384C168.336 160.992 168.384 159.408 168.368 157.824C168.368 157.312 168.272 156.72 168.368 156.24C167.44 155.76 167.456 155.232 168.368 154.656C168.672 153.568 172.368 148.608 173.136 146.704V146.688Z" fill="#B02B27"/>
<path d="M119.104 189.6C122.24 186.768 124.16 189.12 123.872 192.784C125.648 193.344 127.808 194.608 130.224 192.784C133.728 188.208 142.288 197.6 139.76 200.736C138.24 201.872 134.288 203.536 133.776 204.352C132.8 205.888 133.664 207.504 133.392 208.688C133.248 209.328 131.712 210.624 131.808 211.872C131.584 211.376 130.592 210.896 130.224 210.288C130.32 209.776 130.144 209.216 130.224 208.704C130.304 208.192 130.176 207.632 130.224 207.12C128.032 204.528 126.144 201.952 124.608 199.408C118.304 198.976 113.392 191.424 115.92 186.448C119.184 183.824 120.24 184.88 119.104 189.632V189.6Z" fill="#F37B75"/>
<path d="M125.456 170.528C127.104 170.864 128.8 172.272 130.56 174.784C134.944 174.16 137.472 175.584 134.992 180.064C134.752 180.432 135.248 181.328 134.992 181.648C132.4 185.056 134.208 187.136 127.04 186.416C124.192 190.096 122.656 189.328 123.856 184.832C124.976 180.624 124.736 176.064 123.12 171.168L125.456 170.528Z" fill="#F39693"/>
<path d="M130.224 192.784C130.4 192.656 129.504 190.048 131.264 189.584C139.52 187.424 137.152 191.52 138.72 193.744C141.104 197.12 145.44 196.48 139.744 200.736C140.288 197.968 133.024 194.416 130.208 192.784H130.224Z" fill="#F69592"/>
<path d="M123.872 184.832C124.704 185.84 125.776 186.288 127.056 186.416C127.328 189.184 126.8 191.952 123.872 192.768C120.08 191.552 121.28 191.584 119.104 189.584C116.416 185.472 117.632 182.768 122.288 184.816C122.736 183.424 123.264 183.456 123.872 184.816V184.832Z" fill="#FBD0CE"/>
<path d="M142.944 153.04C143.04 144.576 147.44 150.96 149.296 156.224C151.008 145.696 157.2 157.232 152.48 162.576C153.792 165.152 153.008 168.56 150.112 172.784L154.064 175.296C153.552 176.944 153.056 177.36 152.48 178.48C148.048 183.248 146.368 181.536 142.944 176.896C142.08 176.544 140.304 175.792 139.76 175.312C135.552 177.376 133.616 174.112 136.576 170.544C132.56 170.032 133.584 167.072 136.576 165.776C139.952 165.984 142.064 162.288 142.928 154.656C141.536 154.256 141.568 153.728 142.928 153.072L142.944 153.04Z" fill="#F39693"/>
<path d="M128.64 168.928C131.36 169.184 134.016 169.712 136.592 170.512C136.848 171.024 139.552 175.088 139.776 175.28C139.44 177.776 135.648 179.072 135.008 180.048C132.208 175.344 126.88 176.64 125.472 170.512C124.08 170.064 124.112 169.536 125.472 168.928C122.992 164.88 130 164.112 128.656 168.928H128.64Z" fill="#F7ABA8"/>
<path d="M152.48 178.464C151.744 179.888 147.6 186.352 146.912 186.384L142.944 176.88C145.776 178.032 149.392 178.464 152.48 178.464Z" fill="#F7ABA8"/>
<path d="M15.792 141.92C21.568 143.248 27.616 143.072 34.864 145.104L30.096 146.688C26.4 145.584 5.40799 143.968 15.792 141.92Z" fill="#F8B9B8"/>
<path d="M117.504 121.248C111.92 120.048 116.528 139.072 117.328 139.728C123.136 138.24 125.84 139.504 125.44 143.504C129.536 141.824 131.328 144.832 128.624 148.272C129.552 152.528 126.336 153.36 123.856 149.856C121.648 150.24 120.144 150.8 119.088 153.04C120.992 155.728 122.48 158.288 123.856 160.992C128.512 152.48 137.936 162.72 125.44 164.176C125.152 165.584 124.608 165.536 123.856 164.176C122.08 162.32 118.336 160.96 115.904 160.992C113.44 158.768 112.384 155.584 112.72 151.456C109.68 149.232 108.624 145.008 109.536 138.736C105.824 138.784 104.88 137.632 108.352 136.24L107.952 129.2C102.304 128.384 109.616 110.08 114.304 114.896C115.6 117.2 116.368 118.928 117.488 121.248H117.504Z" fill="#D5322A"/>
<path d="M106.384 146.688C108.208 144.032 110.32 145.616 112.736 151.456C116.848 153.072 117.568 157.376 115.92 160.992C110.8 161.088 103.888 162.88 96.848 162.576C92.864 158.256 102.416 149.952 106.384 146.688Z" fill="#8F211E"/>
<path d="M79.36 156.224C80 156.896 80.32 158.528 80.944 159.408C79.52 159.376 76.656 161.408 72.4 160.928C68.56 160.48 59.92 157.536 55.52 156.24C55.92 155.184 56.848 154.08 57.104 153.056C54.304 152 54.128 150.688 57.104 149.872C63.072 152.576 72.592 149.184 79.36 156.224Z" fill="#711513"/>
<path d="M98.432 138.736C101.648 140.24 99.808 143.36 96.848 143.504C94.704 149.792 85.36 157.424 80.96 149.856C81.152 149.376 80.752 148.656 80.96 148.272C77.296 140.896 94.848 127.744 98.448 138.736H98.432Z" fill="#6C1411"/>
<path d="M106.384 143.504C110.512 144.064 110.096 145.136 106.384 146.688C106.608 156.656 96.4 155.072 96.848 162.576C95.792 162.528 94.72 162.624 93.68 162.576C92.8 161.408 98.752 147.552 100.032 145.104C96.128 140.24 107.44 136.304 106.384 143.52V143.504Z" fill="#6C1411"/>
<path d="M120.688 164.16C123.264 165.504 124.864 167.088 125.456 168.928V170.512C123.216 177.088 133.536 183.664 123.872 184.816H122.288C120.944 184.432 120.976 183.904 122.288 183.232C123.344 172.912 120.576 170.928 112.752 165.744C115.136 165.536 117.84 164.432 120.704 164.16H120.688Z" fill="#EE5E58"/>
<path d="M109.568 138.736C112.528 142.272 110.672 146.8 106.384 143.504C102.56 140.96 101.952 141.408 100.032 145.088L96.848 143.504C97.392 141.936 97.392 140.16 98.432 138.736C101.008 135.824 103.008 132.816 104.448 129.712L107.968 129.2C109.488 132.016 108.848 136.256 109.552 138.736H109.568Z" fill="#8B221D"/>
<path d="M123.872 164.16C124.4 164.128 124.928 164.16 125.456 164.16C129.104 162.48 131.216 162.48 131.808 164.16C132.224 163.024 132.752 163.056 133.392 164.16C137.52 167.728 131.76 174.096 128.624 168.928C126.608 165.744 126.016 169.008 125.44 168.928C123.248 168.624 121.28 167.52 119.088 167.312L120.672 164.16C121.712 164.064 122.8 164.224 123.856 164.16H123.872Z" fill="#F5BFBB"/>
<path d="M52.352 145.088C52.496 145.392 56.816 149.712 57.12 149.856C56.976 150.864 57.344 152.16 57.12 153.04C52.992 152.864 49.312 149.456 46 148.272L52.352 145.088Z" fill="#A92825"/>
<path d="M115.92 186.416C116.288 189.36 118.752 195.664 121.136 197.104C126.016 200.048 131.088 196.192 130.224 207.088C120.656 206.448 126.384 201.28 123.936 199.888C122.016 198.784 118.832 199.984 117.36 198.144C115.104 195.328 109.632 181.904 115.936 181.664C119.776 183.872 120.08 184.512 115.936 186.432L115.92 186.416Z" fill="#DD3529"/>
<path d="M122.272 183.232C122.208 183.792 122.416 184.432 122.272 184.816C122.16 185.152 118.288 186.864 119.088 189.584C117.984 188.576 117.104 187.312 115.904 186.4C115.712 184.848 116.032 183.2 115.904 181.632C116.896 181.6 120.272 183.872 122.256 183.216L122.272 183.232Z" fill="#F39693"/>
<path d="M131.808 70.3998C129.856 68.6558 124.896 59.1518 126.384 57.6158C130.512 53.3438 150.864 59.3598 152.464 67.2318C157.104 67.8718 163.104 75.5838 158.816 79.9518C159.392 82.0958 160.096 84.1758 162.736 84.4478C161.856 88.4958 161.088 92.8318 160.416 97.4398C159.104 97.1358 157.168 97.6158 155.648 97.4398L134.928 96.0958C126.272 92.4158 125.728 75.9678 131.808 70.4158V70.3998Z" fill="#FCDDDC"/>
<path d="M112.736 44.96C119.456 48.096 115.968 53.68 110.048 56.096C103.216 57.808 99.648 59.264 97.536 66.656C103.152 69.584 108.272 72.56 105.424 79.616C96.24 87.168 93.456 90.336 106.64 92.8C107.632 92.992 107.968 94.4 107.968 95.808C110.272 94.576 114.112 96.416 114.32 98.992C104.368 99.856 102.224 96.528 95.248 95.808C94.064 95.6 93.536 95.072 93.664 94.224H91.584C86.656 84.72 79.904 82.336 71.344 87.04L68.224 84.688C68.528 81.888 67.696 78.864 68.288 76.064C68.88 73.264 70.88 71.952 71.76 69.84C72.368 68.352 71.536 66.352 71.856 65.936C72.32 65.328 83.168 57.088 84.096 56.816C86.256 56.176 89.04 57.408 91.76 56.704C95.04 55.84 108.896 52.048 109.472 50.384C109.92 49.072 108 47.184 107.984 46.56C108.64 46.592 111.024 44.928 112.752 44.976L112.736 44.96Z" fill="#7C1616"/>
<path d="M82.544 135.552C83.008 135.216 91.136 134.16 93.648 133.136C105.936 128.16 105.536 113.888 110.464 111.808C115.392 109.728 113.792 113.904 114.336 114.88C112.992 115.616 110.976 116.608 110.368 118.016C109.632 119.76 108.448 126.512 107.968 129.184C107.6 131.232 105.536 132.8 107.968 137.12C104.8 136.416 101.056 138.72 98.432 138.72C93.84 138.72 91.664 135.6 91.264 135.6C90.448 135.6 81.616 147.04 80.944 148.256C74.256 143.536 77.888 141.968 81.504 138.592C82.464 137.68 82.32 135.712 82.544 135.552Z" fill="#581712"/>
<path d="M117.504 54.4958C120.448 58.5278 123.632 62.7678 127.04 67.2158C128.4 65.2958 129.984 66.3518 131.808 70.3998C133.472 79.6478 125.456 93.6798 139.072 95.7278C144.352 96.5278 150.544 96.8318 155.648 97.4238C148.256 97.5198 140.8 97.2958 133.392 97.4238C125.584 94.0318 114.656 86.0958 122.272 78.3518C125.616 71.5838 122.08 69.1678 115.456 67.9518C110.448 64.3518 108.208 59.7278 114.32 56.1118C112.88 52.8798 115.328 51.6478 117.504 54.5278V54.4958Z" fill="#F58A87"/>
<path d="M93.664 94.2398C90.4 96.9598 83.168 94.2398 79.552 92.0318C79.088 94.2718 77.44 95.5358 74.592 95.8238C71.552 95.8398 69.408 95.9038 66.656 97.4078C67.568 93.1838 67.776 88.9598 68.224 84.6878C85.92 79.0398 85.616 79.8878 93.648 94.2238L93.664 94.2398Z" fill="#65130F"/>
<path d="M117.504 121.248C118.032 122.352 118.544 123.344 119.088 124.432C124.624 128.464 126.912 133.536 127.04 140.32C130.08 143.296 129.616 143.936 125.456 143.504C121.664 140.784 117.776 143.76 114.352 145.088C115.184 138.24 110.128 126.8 111.264 120.528C112.032 116.24 116.352 120.352 117.52 121.248H117.504Z" fill="#F9C8C4"/>
<path d="M174.736 119.664C175.504 124.256 178.352 128.672 173.152 132.384C172.912 130.32 173.344 128.112 173.152 126.032C164.688 129.424 173.456 134.832 171.568 141.92C162.464 138.032 166.176 127.632 166.8 119.664H160.464C160.752 118.832 160.176 117.296 160.464 116.48C165.008 118.528 170.016 118.208 174.768 119.664H174.736Z" fill="#DA3E33"/>
<path d="M122.272 78.3362C122.304 80.0962 120.256 82.0162 121.44 84.6402C123.024 88.1762 131.632 92.8482 133.408 97.4082C131.824 97.4402 130.224 97.3282 128.64 97.4082C124.544 97.2002 121.904 96.1442 120.688 94.2242C116.896 93.8402 116.688 92.3522 119.104 89.4562C111.616 87.6642 116.656 75.4082 119.104 70.3842C123.616 68.0802 124.816 74.8482 122.288 78.3362H122.272Z" fill="#E7453A"/>
<path d="M93.664 94.2399C93.952 94.7359 94.896 95.1839 95.248 95.8239C91.376 95.4239 79.792 95.7759 74.592 95.8239L77.808 87.8879C80.304 86.0639 88.32 98.7839 93.664 94.2399Z" fill="#4A1613"/>
<path d="M150.88 127.616C152.272 128.064 152.256 128.592 150.88 129.2H134.992C138.848 126.096 144.672 123.632 149.296 121.248C154.656 120.384 154.4 125.152 150.88 127.6V127.616Z" fill="#A62423"/>
<path d="M130.224 132.384C129.792 135.248 128.24 135.488 129.248 134.272C129.968 133.392 135.072 142.784 127.04 140.336C124.4 135.056 121.76 129.696 119.088 124.448C123.856 125.776 126.8 129.792 130.208 132.4L130.224 132.384Z" fill="#A72924"/>
<path d="M120.688 94.2398C123.424 94.4958 126.672 95.3438 128.64 97.4238C123.952 97.6638 118.976 98.6078 114.336 99.0078C111.36 99.6318 109.344 96.3678 107.984 95.8238C104.976 90.4478 117.328 91.3598 120.704 94.2398H120.688Z" fill="#95201E"/>
<path d="M158.832 79.9361C165.584 78.4161 174.72 88.6401 165.184 89.4721L162.016 87.8881V97.4241C161.488 97.3441 160.912 97.5361 160.416 97.4241C160.064 92.2721 159.936 84.7841 158.832 79.9361Z" fill="#EA5144"/>
<path d="M66.656 129.2C66.64 129.856 62.928 138.56 61.904 137.152C62.08 132.416 61.6 127.568 61.904 122.848C61.968 121.792 61.792 120.72 61.904 119.68H63.456C63.136 122.416 66.704 127.424 66.656 129.216V129.2Z" fill="#7B1E19"/>
<path d="M149.296 121.248C151.344 120.192 154.336 118.064 156.432 118.048C158.048 117.984 156.976 120.272 157.248 121.248C158.192 124.624 153.456 131.52 150.896 127.6C150.448 125.472 150.848 123.152 149.312 121.248H149.296Z" fill="#CA3029"/>
<path d="M157.232 108.528C154.064 111.632 149.024 102.368 147.712 100.608C150.544 99.52 160.752 105.104 157.232 108.528Z" fill="#992220"/>
<path d="M169.968 108.544V116.496C164.24 115.344 166.016 112.432 163.616 108.544C164.064 107.312 165.088 105.824 165.2 105.36C167.52 104.24 169.84 105.872 169.968 108.544Z" fill="#BF483A"/>
<path d="M169.968 106.944V108.528C167.648 108.512 165.888 107.632 165.2 105.344C165.536 104.064 164.976 102.048 165.2 100.576C165.568 100.928 168.016 100.56 169.168 102.16C170.4 103.888 169.584 106.176 169.968 106.928V106.944Z" fill="#F27874"/>
<path d="M158.832 122.848C157.216 126.608 156.88 128.768 152.48 130.8C152.16 130.176 151.008 129.6 150.896 129.216C150.768 128.752 151.008 128.16 150.896 127.632C155.152 128.08 155.104 123.952 157.248 121.28C157.44 122 158.128 122.624 158.832 122.864V122.848Z" fill="#50231F"/>
<path d="M130.224 132.384C132.768 134.32 131.456 135.008 136.576 137.152L145.216 150.72L142.944 153.056C143.04 153.568 142.896 154.128 142.944 154.64C145.632 160.752 133.904 159.392 133.408 154.64C129.36 156.608 125.472 151.632 128.64 148.288C127.872 146.992 125.552 144.48 125.456 143.52C125.376 142.624 126.912 141.152 127.04 140.336C127.056 140.192 128.496 139.68 128.528 138.112C128.576 134.176 124.176 132.08 130.224 132.4V132.384Z" fill="#781414"/>
<path d="M139.76 138.736C138.944 141.872 141.744 142.096 142.944 143.504C148.56 145.776 155.792 151.248 149.296 156.224C149.2 156.288 149.504 158.08 147.728 157.808C148.224 154.304 145.232 148.672 142.944 153.04C141.616 145.456 138.832 144 136.592 137.152C137.648 137.6 138.784 138.48 139.776 138.736H139.76Z" fill="#A72924"/>
<path d="M162.016 153.04C162.32 150 161.568 142.384 166.784 143.52L168.384 154.64C168.256 155.104 168.48 155.696 168.384 156.224L162.032 153.04H162.016Z" fill="#F6B2B0"/>
<path d="M31.68 129.2C32.16 129.36 36.784 136.032 38.032 137.152C28.768 135.616 22.336 133.472 12.608 133.968C12.96 131.216 8.70401 129.664 13.376 129.2C19.792 128.56 25.568 131.152 31.68 129.2Z" fill="#4B1814"/>
<path d="M146.112 54.4961C146.784 58.3201 152.96 59.4881 154.064 60.8481C157.072 59.7761 158.032 61.0401 158.528 63.7921C159.104 60.4481 160.8 58.9441 163.6 59.2641C163.76 59.4561 166.32 58.4801 166.816 60.3361C167.36 62.3841 166.752 66.2561 166.784 68.8001C163.744 71.4721 163.744 74.6401 166.784 78.3361C167.344 78.8801 172.864 90.9921 173.136 92.6401C173.152 92.7681 171.328 93.0881 171.776 93.9521L174.72 95.0081L171.552 98.9921C170.784 98.7521 169.376 99.4241 168.64 98.8161C168.48 98.6881 169.44 96.3041 168.736 94.7361C168 93.0721 165.232 90.5121 165.2 89.4561C165.2 89.1361 168.24 84.9121 166.784 83.0881C166.464 82.6881 161.344 86.5761 158.848 79.9201C157.68 74.8161 155.952 71.0401 152.496 67.2001C149.024 62.9761 145.328 59.2641 141.376 56.0801L146.144 54.4961H146.112Z" fill="#D32F29"/>
<path d="M154.064 60.8481C158.864 56.4481 154.576 49.4401 162 51.3281L158.848 54.4641C163.12 54.0321 162.832 58.3681 163.6 59.2481L159.632 70.3361C155.68 68.8481 155.2 62.2401 154.064 60.8321V60.8481Z" fill="#972320"/>
<path d="M166.784 68.7998C166.832 71.9838 166.752 75.1518 166.784 78.3358C166.528 78.0798 164.592 78.4798 163.568 77.6318C160.224 74.8638 163.024 70.6878 163.616 67.2158L166.768 68.7998H166.784Z" fill="#EA5144"/>
<path d="M155.648 160.992C155.056 163.696 154.352 165.024 152.464 162.576V154.624C152.256 154.32 149.888 155.808 149.28 156.208C149.648 151.04 145.984 147.136 142.928 143.488C155.984 145.28 155.552 149.04 155.648 160.976V160.992Z" fill="#F37B77"/>
<path d="M154.064 175.296C141.536 180 147.984 167.824 152.48 162.576C152.992 161.968 154.832 161.616 155.664 160.992C155.696 166.288 155.68 170.144 154.08 175.296H154.064Z" fill="#F58B88"/>
<path d="M123.872 46.5438C120.896 56.2398 139.328 47.1838 139.76 56.0798C138.272 57.5838 135.456 56.9278 133.408 56.0798L124.176 55.0238C123.456 58.7838 119.28 57.6318 117.52 54.4958C115.984 54.8158 115.2 55.7758 114.336 56.0798C112.88 61.0398 110.752 62.0958 107.984 59.2638C108.08 61.7278 107.216 63.3118 105.424 64.0158C114.592 74.9278 118.352 80.7678 103.184 87.5678C110.592 85.6478 115.904 86.2878 119.12 89.4558C119.6 90.6878 121.504 91.9038 120.704 94.2238C120.512 94.2078 119.552 95.6318 118.368 95.5838C115.104 95.4078 110.176 92.1918 108 95.8238C104.928 94.6078 96.288 93.6478 95.408 88.4478C94.832 85.0238 114.32 73.7278 93.68 69.5838C93.648 65.9198 98 57.5838 101.184 56.0958C106.912 53.4238 112.752 57.0558 111.2 49.7118L113.584 51.0718L112.768 44.9758C113.312 44.9758 113.968 44.8478 114.352 44.9758C119.36 46.5438 115.232 47.9358 123.888 46.5598L123.872 46.5438Z" fill="#BA2326"/>
<path d="M133.408 56.0798C135.344 56.0158 138 55.8078 139.76 56.0798C140.304 56.1598 140.896 55.9518 141.344 56.0798C144.528 56.9758 152.512 63.1838 152.464 67.1998C146.976 61.1198 134.192 53.0718 127.072 60.0478C130.976 63.1198 131.04 66.0798 131.808 70.3838C129.664 69.9998 128.528 68.2718 127.04 67.1998C117.968 58.6718 119.456 52.2718 133.392 56.0798H133.408Z" fill="#F8AEA9"/>
<path d="M142.944 154.624C142.96 154.816 144.736 155.616 144.512 158.304C144.128 163.104 141.6 170.048 136.592 165.744C134.24 167.696 133.36 166.768 135.008 164.16C136.912 163.456 136.384 162.384 133.424 160.976C128.992 160.048 129.488 156.24 133.424 154.624L142.016 155.84L142.96 154.624H142.944Z" fill="#B12324"/>
<path d="M136.576 165.76C137.008 166.896 136.128 169.632 136.576 170.528C129.44 176.288 131.424 173.344 128.624 168.944C131.84 169.072 133.52 167.328 133.392 164.176C133.808 162.784 134.336 162.816 134.976 164.176C135.2 164.304 136.512 165.648 136.56 165.76H136.576Z" fill="#F8B5B4"/>
<path d="M128.64 148.272C129.536 149.776 133.136 153.616 133.408 154.624C133.68 155.632 133.616 159.744 133.408 160.976C136.112 162.064 135.584 163.12 131.824 164.16C129.904 163.936 127.488 164.112 125.472 164.16C127.216 161.968 130.848 163.632 130.24 160.992C128.208 160.72 125.792 161.312 123.888 160.976C120.976 159.68 120.8 157.28 123.888 156.208C121.36 153.568 118.272 149.664 123.888 149.856C124.24 149.968 127.408 148.144 128.656 148.272H128.64Z" fill="#F6AEAB"/>
<path d="M112.736 151.456C111.648 151.024 108.592 151.936 107.968 151.44C107.84 151.344 109.104 149.616 108.544 148.272C108.096 147.232 106.464 146.928 106.384 146.688C106.24 146.24 106.24 143.904 106.384 143.504C106.528 143.104 110.352 141.488 109.568 138.736C109.616 138.928 111.952 139.536 112.496 141.424C113.536 144.992 110.816 148.256 112.752 151.456H112.736Z" fill="#B02825"/>
<path d="M123.872 149.856C122.096 152.048 123.632 154.048 123.872 156.208C121.76 160.16 120.016 155.744 119.104 153.024C118.992 152.288 115.328 147.808 119.936 146.672C122.608 146.016 123.456 149.712 123.872 149.856Z" fill="#F59591"/>
<path d="M123.872 156.224C124.048 157.776 123.76 159.424 123.872 160.992C117.456 159.84 119.856 157.808 119.104 153.04L123.872 156.224Z" fill="#F2726C"/>
<path d="M133.408 160.992C141.28 159.504 143.296 164.896 134.992 164.176C134.656 164 133.968 164.288 133.408 164.176C132.896 164.08 132.336 164.24 131.824 164.176C131.712 162.96 133.328 161.552 133.408 160.992Z" fill="#6D211A"/>
<path d="M114.336 56.0801C107.52 66.9121 133.808 67.5201 122.288 78.3361C122.24 75.5041 122.96 71.1361 119.104 70.3841C116.272 82.1121 100.352 63.9361 107.984 59.2641C110.416 57.7281 111.552 57.0721 114.336 56.0801Z" fill="#F15952"/>
<path d="M133.408 56.0802C130.24 56.1762 127.04 56.0002 123.872 56.0802L127.04 67.2002C120.768 62.7202 115.52 63.8082 117.504 54.4802C121.984 53.5682 129.872 53.6482 133.392 56.0642L133.408 56.0802Z" fill="#F7A6A5"/>
<path d="M107.968 59.2642C107.072 62.3202 110.352 69.8562 112.672 71.2002C114.144 72.0482 117.184 70.0322 119.088 70.4002C122.704 78.0962 115.872 81.2642 119.088 89.4722L100.016 91.0562C97.552 82.4802 109.264 81.9522 109.648 80.5602C112.88 68.8962 102.128 67.5202 101.904 64.8802C102.688 60.1122 105.84 60.6242 107.968 59.2802V59.2642Z" fill="#D72E28"/>
</g>
</g>
</g>
<defs>
<clipPath id="clip0_6304_28059">
<rect width="240" height="240" fill="white"/>
</clipPath>
<clipPath id="clip1_6304_28059">
<rect width="240" height="240" fill="white"/>
</clipPath>
</defs>
</svg>
