<svg width="32" height="32" viewBox="0 0 32 32" fill="none" xmlns="http://www.w3.org/2000/svg">
<g clip-path="url(#clip0_1182_300347)">
<g clip-path="url(#clip1_1182_300347)">
<path d="M13 29C20.1797 29 26 23.1797 26 16C26 8.8203 20.1797 3 13 3C5.8203 3 0 8.8203 0 16C0 23.1797 5.8203 29 13 29Z" fill="#FF0000"/>
<path fill-rule="evenodd" clip-rule="evenodd" d="M19.4055 10.043C19.5315 9.91707 19.5315 9.72034 19.4055 9.59443C19.2795 9.46852 19.0827 9.46852 18.9567 9.59443L13.311 15.2367V9.86985C13.311 9.69673 13.1693 9.55508 12.9961 9.55508C12.8228 9.55508 12.6811 9.69673 12.6811 9.86985V15.2839L8.97244 11.5775C8.84646 11.4516 8.64961 11.4516 8.52362 11.5775C8.39764 11.7034 8.39764 11.9001 8.52362 12.026L12.2323 15.7324H6.82283C6.64961 15.7324 6.50787 15.8741 6.50787 16.0472C6.50787 16.2203 6.64961 16.362 6.82283 16.362H12.1929L6.59449 21.957C6.4685 22.0829 6.4685 22.2797 6.59449 22.4056C6.72047 22.5315 6.91732 22.5315 7.04331 22.4056L12.689 16.7633V22.1301C12.689 22.3033 12.8307 22.4449 13.0039 22.4449C13.1772 22.4449 13.3189 22.3033 13.3189 22.1301V16.8027L17.0276 20.5091C17.1535 20.635 17.3504 20.635 17.4764 20.5091C17.6024 20.3832 17.6024 20.1864 17.4764 20.0605L13.7677 16.3541H19.185C19.3583 16.3541 19.5 16.2125 19.5 16.0393C19.5 15.8662 19.3583 15.7246 19.185 15.7246H13.7205L19.4055 10.043Z" fill="white"/>
</g>
<g clip-path="url(#clip2_1182_300347)">
<path fill-rule="evenodd" clip-rule="evenodd" d="M20.3524 28.8458C19.7111 27.8582 19.3387 26.68 19.3387 25.4149C19.3387 21.931 22.1629 19.1068 25.6467 19.1068C26.034 19.1068 26.4132 19.1417 26.7812 19.2086C26.0265 18.8543 25.1839 18.6562 24.295 18.6562C21.06 18.6562 18.4375 21.2787 18.4375 24.5137C18.4375 26.2303 19.1759 27.7744 20.3524 28.8458Z" fill="#FF0079"/>
<path fill-rule="evenodd" clip-rule="evenodd" d="M26.8444 19.231C27.41 19.3384 27.9488 19.5214 28.45 19.769C27.3419 18.8035 25.8932 18.2188 24.308 18.2188C20.8242 18.2188 18 21.043 18 24.5268C18 27.0088 19.4335 29.1561 21.5177 30.1857C21.0878 29.8111 20.7091 29.3792 20.3936 28.9019C19.193 27.827 18.4375 26.2651 18.4375 24.5268C18.4375 21.2846 21.0658 18.6563 24.308 18.6563C25.2165 18.6563 26.0767 18.8626 26.8444 19.231Z" fill="black"/>
<path d="M32 25.4375C32 28.9411 29.1598 31.7812 25.6562 31.7812C22.1527 31.7812 19.3125 28.9411 19.3125 25.4375C19.3125 21.9339 22.1527 19.0938 25.6562 19.0938C29.1598 19.0938 32 21.9339 32 25.4375Z" fill="white"/>
<path fill-rule="evenodd" clip-rule="evenodd" d="M25.6562 31.3281C28.9096 31.3281 31.5469 28.6908 31.5469 25.4375C31.5469 22.1842 28.9096 19.5469 25.6562 19.5469C22.4029 19.5469 19.7656 22.1842 19.7656 25.4375C19.7656 28.6908 22.4029 31.3281 25.6562 31.3281ZM25.6562 31.7812C29.1598 31.7812 32 28.9411 32 25.4375C32 21.9339 29.1598 19.0938 25.6562 19.0938C22.1527 19.0938 19.3125 21.9339 19.3125 25.4375C19.3125 28.9411 22.1527 31.7812 25.6562 31.7812Z" fill="black"/>
<path fill-rule="evenodd" clip-rule="evenodd" d="M22.8425 26.7575H23.4662L24.1235 23.9062H23.5846L23.2559 25.4625C23.2347 25.5561 23.2112 25.6787 23.1852 25.8302C23.1593 25.9816 23.1405 26.1081 23.1287 26.2095C23.1157 26.1042 23.0969 25.978 23.0722 25.8311C23.0474 25.6842 23.0268 25.575 23.0103 25.5035L22.634 23.9062H22.1163L21.7399 25.5035C21.7175 25.5893 21.6937 25.7099 21.6684 25.8653C21.643 26.0206 21.6268 26.1354 21.6198 26.2095C21.5939 25.9988 21.552 25.7499 21.4943 25.4625L21.1639 23.9062H20.625L21.2841 26.7575H21.906L22.2541 25.2636C22.2694 25.1973 22.2912 25.0865 22.3195 24.9311C22.3477 24.7757 22.3654 24.6629 22.3725 24.5927C22.3772 24.6499 22.3951 24.7621 22.4264 24.9291C22.4576 25.0962 22.4797 25.2064 22.4926 25.2597L22.8425 26.7575ZM24.4486 26.7575H25.9363V26.2582H24.9963V25.523H25.8709V25.0276H24.9963V24.4016H25.9363V23.9062H24.4486V26.7575ZM27.4717 26.7575H26.924V24.4094H26.2225V23.9062H28.1732V24.4094H27.4717V26.7575ZM30.1416 26.7575H30.6875V23.9062H30.1416V25.0237H29.1185V23.9062H28.5708V26.7575H29.1185V25.5269H30.1416V26.7575Z" fill="black"/>
</g>
<circle cx="25" cy="7" r="7" fill="white"/>
<path fill-rule="evenodd" clip-rule="evenodd" d="M18 6.99957C17.9998 10.8652 21.1331 13.9993 24.9987 14C26.8557 14.0003 28.6367 13.2628 29.9497 11.9497C31.2628 10.6367 32.0003 8.85568 32 6.99872C31.9993 3.13306 28.8652 -0.000235877 24.9996 1.33184e-08C21.1339 0.000235904 18.0002 3.13391 18 6.99957ZM18.5535 6.99872C18.5521 3.43731 21.4373 0.548684 24.9987 0.545854C26.7108 0.544493 28.3531 1.22383 29.564 2.4342C30.7748 3.64456 31.4548 5.28666 31.4541 6.99872C31.4527 10.5601 28.5652 13.4465 25.0038 13.4465C21.4424 13.4465 18.555 10.5601 18.5535 6.99872Z" fill="black"/>
<path fill-rule="evenodd" clip-rule="evenodd" d="M28.4831 3.18127C26.5125 1.3785 23.4924 1.3785 21.5217 3.18127L21.1489 2.81677C23.3235 0.811077 26.6728 0.811077 28.8475 2.81677L28.4831 3.18127ZM28.8195 3.5142L29.1839 3.1497V3.14119C31.1887 5.31674 31.1887 8.6675 29.1839 10.843L28.8195 10.4785C30.6215 8.50709 30.6215 5.48565 28.8195 3.5142ZM21.1805 10.4822C19.3807 8.51126 19.3807 5.49239 21.1805 3.52147L20.8161 3.15697C18.8113 5.33252 18.8113 8.68328 20.8161 10.8588L21.1805 10.4822ZM21.5169 10.8187C23.4875 12.6215 26.5076 12.6215 28.4783 10.8187L28.8511 11.1832C26.6765 13.1889 23.3272 13.1889 21.1525 11.1832L21.5169 10.8187Z" fill="#5A5564"/>
<path fill-rule="evenodd" clip-rule="evenodd" d="M27.601 5.18158C27.5122 4.27328 26.7133 3.96858 25.7028 3.87572V2.625H24.9216V3.8525H24.2973V2.625H23.522V3.88443H21.9375V4.70421C21.9375 4.70421 22.5145 4.69406 22.5056 4.70421C22.7219 4.68088 22.9181 4.82971 22.9495 5.04083V8.48829C22.945 8.56067 22.9108 8.62818 22.8548 8.67547C22.7998 8.72367 22.7271 8.74777 22.6536 8.74221C22.6639 8.75092 22.0854 8.74221 22.0854 8.74221L21.9375 9.65776H23.5072V10.9375H24.2884V9.67662H24.9127V10.9317H25.6954V9.66647C27.0151 9.58811 27.9353 9.26891 28.0507 8.05736C28.1439 7.08232 27.6764 6.64704 26.9293 6.47147C27.3835 6.25238 27.6646 5.84611 27.601 5.18158ZM26.5061 7.90646C26.5061 8.78026 25.1047 8.76018 24.4651 8.75102C24.408 8.7502 24.357 8.74947 24.3135 8.74947V7.06056C24.3678 7.06071 24.4339 7.05927 24.5089 7.05765L24.5089 7.05765C25.1663 7.04339 26.5061 7.01434 26.5061 7.90646ZM24.448 6.29321C24.984 6.30254 26.1437 6.32274 26.1437 5.5269C26.1437 4.71093 25.0201 4.73959 24.4737 4.75353C24.4129 4.75508 24.3592 4.75645 24.315 4.75645V6.29155C24.3529 6.29155 24.3977 6.29233 24.448 6.29321Z" fill="#F7931A"/>
</g>
<defs>
<clipPath id="clip0_1182_300347">
<rect width="32" height="32" fill="white"/>
</clipPath>
<clipPath id="clip1_1182_300347">
<rect width="26" height="26" fill="white" transform="translate(0 3)"/>
</clipPath>
<clipPath id="clip2_1182_300347">
<rect width="14" height="14" fill="white" transform="translate(18 18)"/>
</clipPath>
</defs>
</svg>
