<svg width="256" height="256" viewBox="0 0 256 256" fill="none" xmlns="http://www.w3.org/2000/svg">
<mask id="mask0_4956_89702" style="mask-type:luminance" maskUnits="userSpaceOnUse" x="54" y="55" width="148" height="161">
<path d="M201.578 55.25H54.4219V215.25H201.578V55.25Z" fill="white"/>
</mask>
<g mask="url(#mask0_4956_89702)">
<path d="M201.303 143.814C201.299 143.93 201.293 144.045 201.286 144.162C201.286 144.192 201.285 144.22 201.282 144.247C201.267 144.561 201.25 144.876 201.227 145.191C201.222 145.27 201.218 145.348 201.211 145.426C201.201 145.62 201.185 145.816 201.17 146.009C201.149 146.33 201.123 146.65 201.092 146.967C201.072 147.219 201.051 147.467 201.025 147.719C201.018 147.778 201.014 147.834 201.008 147.894L200.925 148.675C200.914 148.781 200.9 148.889 200.89 148.997C200.861 149.234 200.833 149.473 200.802 149.711C200.778 149.926 200.75 150.141 200.72 150.356C200.678 150.678 200.634 151.001 200.587 151.323C200.562 151.481 200.541 151.639 200.516 151.795C200.487 151.984 200.458 152.173 200.427 152.362C200.39 152.6 200.351 152.836 200.309 153.072C200.294 153.173 200.277 153.276 200.257 153.378C200.217 153.608 200.176 153.836 200.135 154.066C200.098 154.266 200.061 154.464 200.021 154.664C200.012 154.716 200.004 154.766 199.992 154.817C199.96 154.992 199.925 155.169 199.888 155.342C199.842 155.573 199.795 155.805 199.746 156.034C199.683 156.339 199.615 156.642 199.547 156.947C199.481 157.241 199.413 157.534 199.344 157.828C199.266 158.162 199.185 158.494 199.102 158.825C198.964 159.372 198.821 159.919 198.67 160.464C198.654 160.531 198.634 160.597 198.615 160.664C198.542 160.931 198.465 161.198 198.387 161.464C198.386 161.48 198.381 161.495 198.373 161.511C198.291 161.795 198.208 162.078 198.121 162.361C198.032 162.659 197.94 162.956 197.843 163.253C197.75 163.551 197.653 163.847 197.555 164.142C197.554 164.153 197.551 164.162 197.546 164.172C197.457 164.445 197.365 164.717 197.272 164.987C197.159 165.322 197.041 165.655 196.921 165.986C196.865 166.145 196.806 166.306 196.745 166.466C196.705 166.58 196.664 166.692 196.621 166.806C196.509 167.109 196.394 167.409 196.28 167.709C196.194 167.926 196.109 168.145 196.022 168.362C195.884 168.714 195.74 169.062 195.596 169.412C195.466 169.731 195.33 170.047 195.194 170.362C195.094 170.603 194.988 170.841 194.881 171.078C194.881 171.08 194.88 171.083 194.877 171.087C194.656 171.587 194.27 172 193.789 172.244C186.056 176.167 177.426 178.572 168.255 179.056C159.224 179.534 150.531 178.111 142.546 175.126C142.581 175.095 142.614 175.062 142.649 175.028C141.391 174.601 140.155 174.128 138.938 173.609C137.631 173.051 136.352 172.444 135.101 171.786C131.39 169.837 127.923 167.456 124.771 164.705C125.341 164.894 125.919 165.067 126.501 165.219C126.586 165.255 126.671 165.287 126.758 165.32C131.849 167.294 137.233 168.631 142.819 169.244C144.415 169.419 146.028 169.534 147.654 169.589C149.489 169.648 151.342 169.631 153.211 169.533C172.917 168.487 190.116 158.591 201.299 143.814H201.3H201.303Z" fill="url(#paint0_linear_4956_89702)"/>
<path d="M201.578 55.25V126.188C201.578 129.644 200.526 133.012 198.575 135.836C188.869 149.873 172.854 159.042 154.733 159.048C152.993 159.048 151.273 158.964 149.573 158.797C148.848 158.73 148.131 158.644 147.416 158.545C151.804 153.722 154.488 147.267 154.488 140.186V91.725C154.488 91.522 154.489 91.325 154.494 91.122C154.494 91.039 154.495 90.9593 154.498 90.8798C154.5 90.6813 154.508 90.4843 154.515 90.286C154.521 90.1078 154.529 89.928 154.54 89.7515C154.54 89.736 154.541 89.7217 154.541 89.7077C154.546 89.6235 154.551 89.536 154.557 89.4515C154.561 89.3375 154.57 89.2265 154.578 89.1158C154.584 89.014 154.592 88.9125 154.6 88.811C154.615 88.5905 154.635 88.3703 154.656 88.1533C154.667 88.036 154.678 87.9173 154.691 87.8C154.705 87.6828 154.718 87.5673 154.731 87.4485C154.753 87.2485 154.777 87.0485 154.805 86.8485C154.816 86.753 154.829 86.6577 154.845 86.561C154.861 86.428 154.881 86.2937 154.901 86.1625C154.911 86.0952 154.921 86.0298 154.932 85.9625C154.963 85.7625 154.995 85.5625 155.03 85.3625C155.035 85.3408 155.036 85.3187 155.041 85.2952C155.076 85.0905 155.114 84.889 155.152 84.6845C155.157 84.6688 155.159 84.6515 155.163 84.6328C155.198 84.4533 155.234 84.272 155.272 84.0953C155.286 84.0313 155.298 83.9688 155.312 83.9062C155.312 83.9015 155.313 83.9 155.313 83.8952C155.344 83.7485 155.376 83.6048 155.41 83.4593C155.421 83.4155 155.43 83.3688 155.44 83.3235C155.442 83.3235 155.442 83.3173 155.442 83.314C155.499 83.0673 155.56 82.8203 155.621 82.5735C155.673 82.3735 155.725 82.175 155.78 81.975C155.839 81.7547 155.903 81.5328 155.966 81.314C156.024 81.111 156.085 80.9095 156.147 80.7095C156.153 80.6923 156.157 80.6735 156.163 80.6562C156.226 80.4533 156.292 80.25 156.358 80.0485C156.369 80.0173 156.379 79.986 156.39 79.9548C156.456 79.7548 156.525 79.5547 156.595 79.3562C156.667 79.153 156.741 78.9515 156.816 78.7485L156.83 78.7155C156.908 78.5015 156.99 78.2908 157.073 78.0798C157.156 77.8703 157.242 77.6595 157.329 77.45C157.504 77.0312 157.684 76.6188 157.874 76.2093C157.992 75.953 158.112 75.7 158.236 75.4467C158.309 75.2952 158.384 75.1437 158.462 74.9952C158.565 74.7952 158.668 74.5953 158.772 74.397C158.85 74.2485 158.931 74.1015 159.012 73.9548C159.253 73.5093 159.502 73.0735 159.766 72.6423C160.107 72.0688 160.47 71.503 160.849 70.9515C160.973 70.7672 161.101 70.5845 161.23 70.4015C161.486 70.039 161.746 69.6813 162.019 69.328C162.086 69.239 162.154 69.153 162.221 69.0655C162.292 68.9765 162.359 68.8875 162.428 68.8015C162.434 68.7922 162.443 68.7845 162.449 68.772C162.702 68.4563 162.958 68.1453 163.218 67.8375C163.266 67.7813 163.315 67.7265 163.364 67.6687C163.477 67.536 163.592 67.4047 163.708 67.2735C163.892 67.0672 164.074 66.8625 164.263 66.6625C164.405 66.5095 164.548 66.3578 164.692 66.2093C164.816 66.078 164.943 65.9485 165.071 65.8203C165.22 65.6688 165.372 65.5172 165.525 65.3672C165.534 65.361 165.545 65.35 165.555 65.3408C165.629 65.2688 165.701 65.1985 165.776 65.1265C165.848 65.0548 165.922 64.9845 165.998 64.9157C166.009 64.9062 166.018 64.8985 166.029 64.886C166.174 64.75 166.321 64.614 166.47 64.4812C166.646 64.3187 166.825 64.161 167.006 64.0033C167.165 63.8625 167.326 63.725 167.49 63.5875C167.496 63.5813 167.504 63.5765 167.51 63.5718C167.603 63.4923 167.7 63.4125 167.795 63.3345C167.868 63.272 167.945 63.2095 168.02 63.15C168.19 63.0125 168.361 62.8765 168.535 62.7438C168.544 62.7343 168.554 62.728 168.564 62.7217C168.712 62.6047 168.862 62.489 169.012 62.3765C169.241 62.2032 169.472 62.0312 169.706 61.8657C169.83 61.7765 169.957 61.6875 170.083 61.5985C170.118 61.5765 170.153 61.5515 170.187 61.525C170.213 61.5078 170.238 61.4922 170.264 61.4735C170.392 61.3845 170.523 61.2953 170.654 61.2093C170.674 61.1953 170.696 61.1828 170.716 61.1673C170.892 61.0515 171.071 60.9345 171.25 60.8203C171.435 60.7 171.622 60.5828 171.812 60.4673C171.906 60.4093 172.002 60.3515 172.097 60.2938C172.191 60.236 172.284 60.1797 172.381 60.125C172.572 60.011 172.765 59.9 172.958 59.7905C173.152 59.6813 173.345 59.575 173.54 59.4702C173.663 59.4032 173.783 59.339 173.909 59.275C174.001 59.2265 174.093 59.1765 174.186 59.1297C174.332 59.0515 174.479 58.978 174.627 58.9048C174.761 58.8405 174.894 58.775 175.029 58.711C175.153 58.6515 175.28 58.5907 175.406 58.5327C175.658 58.4157 175.911 58.3 176.168 58.1875C176.295 58.1313 176.424 58.0765 176.553 58.0235C176.749 57.939 176.945 57.8595 177.144 57.7783C177.145 57.7783 177.149 57.7765 177.15 57.7765C177.156 57.775 177.165 57.7703 177.172 57.7673C177.191 57.7578 177.213 57.7515 177.233 57.7422C177.466 57.6485 177.7 57.5595 177.934 57.4702C178.061 57.4235 178.187 57.3765 178.316 57.3298C178.604 57.225 178.896 57.125 179.187 57.0298C179.287 56.997 179.386 56.9625 179.486 56.9313C179.616 56.889 179.748 56.847 179.878 56.8063C180.008 56.7658 180.14 56.7265 180.273 56.689C180.537 56.611 180.8 56.536 181.066 56.464C181.181 56.4328 181.299 56.4015 181.417 56.3703C181.468 56.3563 181.517 56.3452 181.567 56.3327C181.667 56.3077 181.768 56.2813 181.868 56.2578C182.001 56.225 182.136 56.1937 182.27 56.1625C182.405 56.1312 182.54 56.1 182.676 56.072C182.846 56.0345 183.016 55.9985 183.186 55.9625C183.526 55.8905 183.866 55.8265 184.211 55.7687C184.383 55.739 184.556 55.711 184.727 55.6842C184.867 55.6625 185.004 55.6405 185.144 55.6203C185.283 55.6 185.421 55.5828 185.56 55.5625C185.732 55.5405 185.91 55.5203 186.08 55.4985C186.202 55.4828 186.323 55.4687 186.446 55.4562C186.456 55.4562 186.47 55.4547 186.481 55.4515C186.605 55.4375 186.729 55.4265 186.853 55.414C186.98 55.403 187.104 55.3922 187.228 55.3812C187.48 55.361 187.729 55.3405 187.98 55.325H187.982C188.302 55.303 188.622 55.2875 188.945 55.2765C189.008 55.275 189.069 55.2717 189.131 55.2702C189.356 55.264 189.579 55.2562 189.806 55.2562C189.95 55.2515 190.094 55.2515 190.238 55.2515H201.575L201.578 55.25Z" fill="url(#paint1_linear_4956_89702)"/>
<path d="M155.312 189.447C155.235 189.447 155.157 189.448 155.08 189.448H154.148C154.069 189.448 153.991 189.447 153.912 189.447C153.683 189.445 153.457 189.441 153.227 189.433C152.999 189.426 152.772 189.419 152.542 189.411C152.316 189.401 152.089 189.394 151.862 189.38C151.668 189.37 151.476 189.359 151.285 189.348C150.903 189.323 150.527 189.295 150.147 189.264C149.981 189.25 149.818 189.234 149.654 189.22C148.248 189.091 146.858 188.905 145.489 188.662C145.293 188.631 145.097 188.595 144.902 188.556C144.706 188.523 144.512 188.484 144.316 188.445C138.483 187.291 132.989 185.172 127.999 182.256C108.648 170.948 99.5611 147.625 101.1 125.581C101.405 121.225 101.511 116.87 101.511 112.486V91.7297C101.511 90.9937 101.489 90.264 101.448 89.539C101.182 84.9532 100.085 80.597 98.3081 76.622C96.9144 73.5032 95.1054 70.622 92.9489 68.0452C89.1689 63.5345 84.3304 59.975 78.8256 57.7687C74.7804 56.1437 70.3724 55.2515 65.7591 55.2515H54.4219V140.144C54.4219 140.212 54.4219 140.284 54.4234 140.353C54.4234 140.591 54.4279 140.826 54.4294 141.067C54.4309 141.216 54.4309 141.366 54.4341 141.514C54.4356 141.698 54.4386 141.881 54.4431 142.066V142.083C54.4539 142.519 54.4691 142.953 54.4891 143.389C54.4891 143.416 54.4906 143.445 54.4906 143.473C54.4999 143.703 54.5106 143.931 54.5229 144.162C54.5229 144.192 54.5244 144.22 54.5274 144.247C54.5429 144.561 54.5596 144.876 54.5826 145.191C54.5871 145.27 54.5919 145.348 54.5979 145.426C54.6086 145.62 54.6239 145.816 54.6391 146.009C54.6606 146.33 54.6866 146.65 54.7174 146.967C54.7374 147.219 54.7586 147.467 54.7849 147.719C54.7894 147.762 54.7939 147.806 54.7986 147.85C54.8231 148.081 54.8461 148.314 54.8706 148.547C54.8874 148.698 54.9026 148.847 54.9211 148.998C54.9501 149.236 54.9776 149.475 55.0084 149.712C55.0329 149.928 55.0604 150.142 55.0911 150.358C55.1324 150.68 55.1769 151.003 55.2244 151.325C55.2489 151.483 55.2704 151.641 55.2949 151.797C55.3239 151.986 55.3529 152.175 55.3836 152.364C55.4204 152.601 55.4601 152.837 55.5016 153.073C55.5169 153.175 55.5336 153.278 55.5536 153.38C55.5934 153.609 55.6349 153.837 55.6761 154.067C55.7129 154.267 55.7496 154.466 55.7896 154.666C55.7986 154.717 55.8064 154.767 55.8186 154.819C55.8509 154.994 55.8861 155.17 55.9229 155.344C55.9686 155.575 56.0161 155.806 56.0651 156.036C56.1281 156.341 56.1954 156.644 56.2644 156.948C56.3301 157.242 56.3976 157.536 56.4666 157.83C56.5446 158.164 56.6259 158.495 56.7086 158.826C56.8464 159.373 56.9904 159.92 57.1404 160.466C57.1574 160.533 57.1771 160.598 57.1956 160.666C57.2691 160.933 57.3456 161.2 57.4239 161.466C57.4239 161.481 57.4299 161.497 57.4376 161.512C57.5204 161.797 57.6029 162.08 57.6904 162.362C57.7791 162.661 57.8711 162.958 57.9676 163.255C58.0609 163.553 58.1574 163.848 58.2554 164.144C58.2554 164.155 58.2601 164.164 58.2646 164.173C58.3534 164.447 58.4454 164.719 58.5389 164.989C58.6521 165.323 58.7701 165.656 58.8896 165.987C58.9461 166.147 59.0044 166.308 59.0656 166.467C59.1056 166.581 59.1469 166.694 59.1899 166.808C59.3016 167.111 59.4164 167.411 59.5314 167.711C59.6171 167.928 59.7014 168.147 59.7886 168.364C59.9266 168.716 60.0704 169.064 60.2144 169.414C60.3446 169.733 60.4809 170.048 60.6174 170.364C60.7169 170.605 60.8226 170.842 60.9296 171.08C61.0524 171.355 61.1734 171.63 61.3004 171.905C61.4244 172.178 61.5516 172.451 61.6801 172.725C61.8089 172.997 61.9391 173.267 62.0709 173.537C62.2011 173.806 62.3326 174.073 62.4659 174.341C62.8826 175.17 63.3114 175.991 63.7541 176.803C63.8874 177.044 64.0206 177.283 64.1524 177.522C64.1539 177.526 64.1569 177.528 64.1584 177.531C64.3009 177.783 64.4434 178.036 64.5874 178.286C64.5919 178.295 64.5981 178.303 64.6026 178.312C64.7511 178.569 64.8999 178.823 65.0514 179.078C65.1694 179.281 65.2919 179.481 65.4129 179.681C65.4941 179.814 65.5736 179.948 65.6564 180.081C65.9199 180.512 66.1879 180.939 66.4636 181.364C66.6229 181.612 66.7869 181.862 66.9491 182.109C66.9781 182.153 67.0059 182.198 67.0364 182.241C67.1744 182.447 67.3106 182.655 67.4499 182.859C67.4899 182.919 67.5311 182.98 67.5726 183.039C67.6154 183.103 67.6614 183.169 67.7074 183.233C67.7686 183.326 67.8344 183.422 67.8986 183.516C67.9416 183.58 67.9861 183.642 68.0319 183.705C68.1776 183.914 68.3246 184.123 68.4731 184.33C68.6079 184.519 68.7426 184.708 68.8836 184.897C69.0596 185.142 69.2389 185.384 69.4196 185.623C69.5331 185.776 69.6464 185.928 69.7611 186.08C69.8654 186.217 69.9681 186.353 70.0736 186.486C70.0784 186.495 70.0844 186.503 70.0906 186.511C70.1226 186.553 70.1564 186.595 70.1886 186.636C70.3279 186.819 70.4719 187.003 70.6174 187.187C70.6189 187.187 70.6221 187.192 70.6236 187.194C70.6389 187.216 70.6556 187.237 70.6756 187.261C70.8411 187.472 71.0096 187.681 71.1764 187.891C71.1964 187.916 71.2179 187.939 71.2376 187.964C71.4216 188.191 71.6069 188.417 71.7921 188.642C71.8336 188.691 71.8749 188.737 71.9164 188.787C71.9821 188.866 72.0464 188.944 72.1109 189.02C72.1811 189.105 72.2501 189.187 72.3206 189.269C72.4064 189.37 72.4951 189.472 72.5826 189.572C72.8091 189.839 73.0374 190.103 73.2734 190.366C73.3239 190.425 73.3729 190.483 73.4264 190.539C73.4479 190.567 73.4739 190.595 73.4984 190.623C73.5046 190.63 73.5121 190.639 73.5184 190.645C73.5596 190.689 73.5996 190.734 73.6409 190.778C73.7021 190.847 73.7634 190.916 73.8246 190.983C73.8614 191.023 73.8966 191.062 73.9366 191.103C73.9931 191.17 74.0544 191.236 74.1156 191.303C74.2199 191.419 74.3271 191.533 74.4344 191.648C74.4741 191.689 74.5079 191.728 74.5461 191.769C74.6656 191.9 74.7881 192.031 74.9106 192.161C74.9934 192.248 75.0761 192.336 75.1619 192.423C75.1909 192.453 75.2169 192.481 75.2431 192.511C75.2781 192.551 75.3149 192.589 75.3549 192.628C75.5201 192.8 75.6841 192.969 75.8496 193.137C75.8864 193.178 75.9261 193.217 75.9644 193.258L75.9706 193.264C75.9706 193.264 75.9751 193.269 75.9766 193.27C76.1314 193.426 76.2861 193.581 76.4409 193.737C76.4974 193.797 76.5541 193.855 76.6109 193.911C77.0381 194.337 77.4669 194.756 77.9034 195.167C78.0336 195.292 78.1669 195.416 78.3001 195.539C78.3829 195.619 78.4656 195.697 78.5514 195.775C78.5529 195.776 78.5559 195.78 78.5606 195.784C78.7811 195.987 79.0016 196.189 79.2206 196.389C79.3126 196.473 79.4061 196.556 79.4979 196.636C79.5331 196.667 79.5684 196.698 79.6021 196.731C79.6956 196.816 79.7921 196.9 79.8854 196.984C79.9161 197.011 79.9466 197.036 79.9774 197.062C80.0141 197.094 80.0539 197.126 80.0906 197.161C80.1336 197.203 80.1796 197.244 80.2254 197.283C80.3374 197.381 80.4506 197.478 80.5609 197.576C80.7876 197.77 81.0144 197.964 81.2441 198.155C81.4049 198.291 81.5671 198.426 81.7296 198.558C81.7954 198.616 81.8629 198.672 81.9316 198.726C82.0496 198.825 82.1676 198.92 82.2856 199.011C82.3974 199.106 82.5106 199.198 82.6256 199.289C82.6976 199.347 82.7696 199.405 82.8431 199.461C83.0024 199.591 83.1616 199.717 83.3209 199.844C83.4189 199.919 83.5169 199.992 83.6151 200.069C83.8784 200.273 84.1449 200.475 84.4114 200.673C84.5201 200.758 84.6321 200.841 84.7409 200.922C84.8679 201.016 84.9919 201.109 85.1176 201.197C85.2309 201.281 85.3441 201.364 85.4576 201.448C85.6996 201.622 85.9401 201.795 86.1821 201.964C86.4226 202.133 86.6614 202.3 86.9019 202.467C87.0719 202.583 87.2419 202.698 87.4134 202.814C87.6234 202.956 87.8361 203.097 88.0476 203.236C88.0629 203.247 88.0799 203.258 88.0981 203.269C88.2284 203.356 88.3616 203.442 88.4949 203.53C88.5499 203.562 88.6021 203.598 88.6541 203.631C88.8134 203.737 88.9744 203.841 89.1366 203.942C89.1719 203.964 89.2086 203.986 89.2454 204.009C89.3341 204.067 89.4214 204.123 89.5119 204.178C89.6251 204.25 89.7386 204.32 89.8519 204.387C89.8626 204.397 89.8734 204.405 89.8886 204.412C90.0786 204.528 90.2684 204.645 90.4599 204.761C90.4859 204.776 90.5151 204.794 90.5426 204.809C90.5749 204.831 90.6101 204.851 90.6469 204.873C90.7296 204.922 90.8154 204.973 90.8996 205.025C90.9869 205.076 91.0741 205.126 91.1614 205.178C91.3054 205.262 91.4494 205.347 91.5934 205.434C91.6454 205.464 91.6976 205.492 91.7496 205.523C92.0221 205.681 92.2919 205.834 92.5676 205.987C92.6044 206.009 92.6411 206.03 92.6794 206.05C92.9719 206.212 93.2629 206.375 93.5584 206.533C93.6964 206.608 93.8356 206.681 93.9766 206.758C94.1054 206.83 94.2354 206.895 94.3671 206.964C94.5174 207.042 94.6704 207.122 94.8221 207.2C95.0334 207.309 95.2479 207.417 95.4594 207.525C95.9019 207.747 96.3461 207.966 96.7934 208.178C96.9924 208.273 97.1916 208.367 97.3921 208.461C97.6081 208.562 97.8256 208.664 98.0446 208.761C98.2086 208.836 98.3724 208.909 98.5379 208.983C98.8106 209.105 99.0831 209.225 99.3574 209.344C99.6254 209.459 99.8964 209.573 100.166 209.686C100.434 209.8 100.705 209.911 100.978 210.02C101.185 210.103 101.394 210.187 101.604 210.269C101.711 210.311 101.82 210.353 101.929 210.395C101.996 210.42 102.064 210.447 102.131 210.473C102.29 210.533 102.447 210.594 102.606 210.653C102.879 210.755 103.153 210.856 103.425 210.956C103.698 211.055 103.972 211.151 104.248 211.247C104.504 211.336 104.756 211.422 105.011 211.508C105.046 211.522 105.078 211.533 105.113 211.544C105.375 211.631 105.637 211.717 105.901 211.801C106.129 211.875 106.358 211.948 106.587 212.019C106.695 212.051 106.804 212.086 106.914 212.119L107.379 212.259C107.521 212.303 107.663 212.347 107.807 212.386C108.003 212.444 108.2 212.5 108.396 212.555C108.648 212.626 108.901 212.695 109.157 212.764C109.212 212.78 109.266 212.795 109.321 212.808C109.572 212.875 109.822 212.941 110.073 213.006C110.37 213.081 110.669 213.155 110.967 213.228C111.22 213.291 111.473 213.35 111.725 213.408C111.853 213.439 111.977 213.467 112.102 213.492C112.323 213.545 112.543 213.594 112.765 213.639C113.066 213.706 113.367 213.769 113.668 213.828C113.968 213.891 114.269 213.948 114.573 214.003C114.734 214.034 114.896 214.062 115.058 214.092C115.106 214.101 115.155 214.109 115.204 214.119C115.296 214.136 115.388 214.151 115.478 214.167C115.596 214.189 115.711 214.209 115.829 214.226C116.014 214.259 116.201 214.291 116.386 214.32C116.547 214.347 116.706 214.372 116.869 214.395C116.882 214.397 116.895 214.4 116.91 214.401C117.039 214.422 117.169 214.442 117.298 214.461C117.592 214.505 117.886 214.548 118.183 214.586C118.212 214.591 118.238 214.595 118.261 214.597C118.509 214.633 118.759 214.664 119.007 214.695C119.094 214.705 119.183 214.716 119.27 214.726C119.528 214.759 119.786 214.789 120.047 214.816C120.35 214.848 120.653 214.88 120.957 214.909C120.967 214.911 120.978 214.911 120.989 214.914C121.289 214.944 121.591 214.97 121.891 214.994C122.199 215.02 122.505 215.042 122.816 215.066C123.125 215.091 123.433 215.109 123.743 215.125C124.052 215.145 124.362 215.161 124.671 215.172C124.827 215.178 124.985 215.186 125.141 215.192C125.83 215.222 126.521 215.239 127.212 215.244C127.474 215.248 127.737 215.25 128.001 215.25C128.31 215.25 128.619 215.25 128.929 215.244C129.548 215.237 130.166 215.222 130.784 215.197C131.092 215.186 131.398 215.172 131.709 215.156C131.986 215.142 132.26 215.126 132.534 215.109C132.796 215.094 133.06 215.076 133.322 215.056C133.553 215.041 133.781 215.023 134.012 215.003C134.08 214.998 134.146 214.994 134.212 214.987C134.38 214.973 134.55 214.958 134.717 214.941C134.87 214.93 135.022 214.914 135.175 214.898C135.245 214.892 135.314 214.884 135.385 214.878C135.44 214.873 135.494 214.867 135.549 214.861C135.667 214.85 135.785 214.836 135.902 214.823C136.007 214.812 136.112 214.801 136.216 214.787C136.321 214.776 136.426 214.766 136.53 214.751C136.797 214.722 137.062 214.689 137.328 214.653C137.858 214.586 138.388 214.511 138.918 214.431C138.958 214.425 138.995 214.42 139.032 214.414C139.174 214.392 139.313 214.37 139.453 214.347C139.612 214.325 139.771 214.298 139.928 214.272C139.934 214.27 139.943 214.27 139.952 214.267C140.194 214.226 140.435 214.187 140.677 214.142C140.882 214.106 141.089 214.069 141.294 214.028C141.401 214.008 141.51 213.987 141.617 213.969C141.741 213.947 141.864 213.922 141.988 213.897C142.806 213.737 143.62 213.561 144.432 213.372C144.731 213.3 145.028 213.23 145.324 213.158C145.916 213.011 146.509 212.858 147.099 212.695C147.335 212.631 147.572 212.564 147.808 212.497C147.973 212.45 148.139 212.401 148.306 212.351C148.315 212.35 148.321 212.347 148.33 212.345C148.526 212.287 148.722 212.23 148.918 212.17C149.216 212.081 149.511 211.987 149.808 211.895C150.078 211.811 150.347 211.723 150.616 211.634C150.853 211.556 151.09 211.476 151.326 211.397C151.398 211.372 151.47 211.348 151.539 211.323C151.75 211.25 151.962 211.176 152.172 211.101C152.29 211.061 152.404 211.019 152.518 210.976C152.869 210.851 153.215 210.723 153.564 210.589C154.007 210.422 154.449 210.251 154.889 210.073C155.085 209.995 155.284 209.916 155.48 209.833C155.676 209.753 155.871 209.67 156.067 209.587C156.263 209.505 156.457 209.423 156.653 209.339C165.419 205.558 173.285 200.15 180.035 193.264C180.232 193.064 180.426 192.864 180.616 192.664C180.781 192.492 180.944 192.322 181.105 192.15C181.166 192.087 181.224 192.023 181.284 191.961C181.639 191.578 181.993 191.194 182.339 190.806C182.394 190.748 182.446 190.689 182.498 190.628C182.557 190.561 182.616 190.495 182.673 190.43C182.815 190.272 182.955 190.111 183.094 189.953C183.258 189.764 183.422 189.575 183.58 189.386C183.601 189.361 183.623 189.334 183.646 189.311C184.032 188.859 184.408 188.406 184.779 187.945C184.914 187.778 185.049 187.609 185.182 187.441C185.249 187.356 185.315 187.272 185.382 187.187C186.13 186.242 186.85 185.281 187.547 184.303C187.691 184.103 187.832 183.9 187.974 183.698C188.313 183.216 188.643 182.726 188.97 182.234C178.639 186.787 167.266 189.348 155.319 189.445L155.312 189.447Z" fill="url(#paint2_linear_4956_89702)"/>
<path d="M155.08 189.448C154.927 189.448 154.772 189.45 154.618 189.45H154.586C154.44 189.45 154.293 189.448 154.147 189.448C154.069 189.448 153.991 189.447 153.912 189.447C150.635 189.405 147.43 189.059 144.319 188.444C139.036 190.301 133.435 191.259 127.73 191.231C114.328 191.159 101.748 185.748 92.3301 175.986C83.0314 166.347 77.9586 153.272 77.9646 139.747L77.9969 79.736C78.0091 66.4687 67.4714 55.7077 54.4691 55.7L54.4219 140.145C54.4219 140.451 54.4279 140.759 54.4324 141.065C54.4371 141.4 54.4371 141.733 54.4431 142.064C54.4494 142.315 54.4601 142.567 54.4691 142.819C54.4831 143.197 54.4936 143.576 54.5106 143.955C54.5199 144.15 54.5351 144.344 54.5459 144.539C54.5704 144.973 54.5934 145.406 54.6239 145.841C54.6331 145.966 54.6454 146.089 54.6546 146.214C54.6944 146.717 54.7326 147.217 54.7831 147.717C54.7879 147.761 54.7939 147.806 54.7986 147.848C55.5354 155.275 57.3456 162.498 60.2099 169.408C62.9899 176.114 66.6674 182.303 71.1781 187.881C71.2899 188.019 71.4046 188.155 71.5181 188.292C71.7846 188.614 72.0479 188.939 72.3206 189.259C72.5319 189.508 72.7494 189.755 72.9654 190.001C73.1416 190.206 73.3161 190.411 73.4969 190.612C73.7849 190.934 74.0789 191.255 74.3731 191.573C74.4864 191.695 74.5951 191.82 74.7084 191.942C75.0439 192.3 75.3839 192.653 75.7271 193.008C75.8036 193.087 75.8801 193.167 75.9551 193.248C76.2706 193.57 76.5924 193.887 76.9126 194.203C77.0211 194.309 77.1254 194.419 77.2356 194.525C77.5021 194.786 77.7749 195.036 78.0429 195.292C78.2114 195.45 78.3736 195.611 78.5421 195.765C78.7276 195.937 78.9144 196.103 79.1029 196.273C79.3601 196.506 79.6174 196.745 79.8761 196.973C79.9436 197.033 80.0141 197.091 80.0814 197.148C85.8481 202.208 92.3071 206.295 99.3466 209.334C107.951 213.047 117.049 215.023 126.415 215.223C126.941 215.234 127.466 215.244 127.995 215.244C137.918 215.244 147.557 213.255 156.641 209.334C165.407 205.553 173.273 200.145 180.023 193.259C181.232 192.026 182.391 190.758 183.505 189.455C183.546 189.406 183.59 189.359 183.632 189.308C183.983 188.894 184.329 188.476 184.672 188.053C184.702 188.016 184.735 187.978 184.765 187.939C186.254 186.1 187.652 184.195 188.957 182.228C178.626 186.781 167.254 189.342 155.307 189.439C155.23 189.439 155.152 189.441 155.076 189.441L155.08 189.447V189.448Z" fill="url(#paint3_linear_4956_89702)"/>
<path d="M183.148 168.951C175.479 173.273 166.66 175.733 157.277 175.734C145.206 175.739 134.065 171.67 125.103 164.805C124.994 164.769 124.886 164.737 124.778 164.703C127.931 167.455 131.397 169.836 135.108 171.784C136.359 172.442 137.64 173.05 138.945 173.608C140.161 174.126 141.397 174.6 142.656 175.026C142.621 175.059 142.588 175.094 142.553 175.125C150.536 178.109 159.231 179.533 168.262 179.055C177.432 178.567 186.063 176.164 193.796 172.242C194.279 171.997 194.665 171.589 194.884 171.086C194.884 171.084 194.885 171.081 194.888 171.076C194.995 170.839 195.1 170.6 195.201 170.361C195.339 170.045 195.473 169.73 195.603 169.411C195.747 169.062 195.891 168.712 196.029 168.361C196.117 168.144 196.201 167.925 196.287 167.708C196.401 167.408 196.518 167.108 196.628 166.805C196.671 166.69 196.714 166.578 196.752 166.464C196.813 166.305 196.872 166.144 196.928 165.984C197.048 165.653 197.166 165.319 197.279 164.986C197.373 164.714 197.464 164.444 197.553 164.17C197.558 164.161 197.559 164.153 197.562 164.14C197.66 163.845 197.757 163.548 197.85 163.251C197.947 162.956 198.037 162.658 198.128 162.359C198.215 162.076 198.298 161.794 198.38 161.509C198.387 161.494 198.391 161.478 198.394 161.462C198.472 161.195 198.549 160.928 198.622 160.662C198.639 160.595 198.659 160.53 198.678 160.462C198.828 159.917 198.972 159.37 199.109 158.823C199.192 158.492 199.273 158.161 199.351 157.826C199.422 157.533 199.489 157.239 199.554 156.945C199.621 156.64 199.688 156.337 199.753 156.033C199.8 155.803 199.849 155.572 199.895 155.34C199.932 155.167 199.967 154.992 199.999 154.815C200.01 154.764 200.019 154.714 200.028 154.662C200.068 154.462 200.105 154.264 200.142 154.064C200.156 153.989 200.168 153.911 200.183 153.834C195.633 160.019 189.829 165.19 183.154 168.948H183.153L183.148 168.951Z" fill="url(#paint4_linear_4956_89702)"/>
</g>
<defs>
<linearGradient id="paint0_linear_4956_89702" x1="129.928" y1="178.878" x2="202.757" y2="154.847" gradientUnits="userSpaceOnUse">
<stop stop-color="#FFE400"/>
<stop offset="1" stop-color="#FFB600"/>
</linearGradient>
<linearGradient id="paint1_linear_4956_89702" x1="149.495" y1="160.197" x2="205.347" y2="59.111" gradientUnits="userSpaceOnUse">
<stop stop-color="#3A86EC"/>
<stop offset="1" stop-color="#1D62FF"/>
</linearGradient>
<linearGradient id="paint2_linear_4956_89702" x1="145.699" y1="213.906" x2="54.9524" y2="58.8985" gradientUnits="userSpaceOnUse">
<stop stop-color="#1F5DE2"/>
<stop offset="1" stop-color="#3BCBFC"/>
</linearGradient>
<linearGradient id="paint3_linear_4956_89702" x1="145.658" y1="213.928" x2="55.2906" y2="59.1382" gradientUnits="userSpaceOnUse">
<stop stop-color="#2E6AF0"/>
<stop offset="1" stop-color="#67D5F5"/>
</linearGradient>
<linearGradient id="paint4_linear_4956_89702" x1="124.777" y1="166.492" x2="200.179" y2="166.492" gradientUnits="userSpaceOnUse">
<stop stop-color="white" stop-opacity="0.19"/>
<stop offset="1" stop-color="#FFE400"/>
</linearGradient>
</defs>
</svg>
