<svg width="32" height="32" viewBox="0 0 32 32" fill="none" xmlns="http://www.w3.org/2000/svg">
<g clip-path="url(#clip0_12_34548)">
<g clip-path="url(#clip1_12_34548)">
<path d="M27 13.5C27 20.9558 20.9558 27 13.5 27C6.04416 27 0 20.9558 0 13.5C0 6.04416 6.04416 0 13.5 0C20.9558 0 27 6.04416 27 13.5Z" fill="url(#paint0_linear_12_34548)"/>
<path fill-rule="evenodd" clip-rule="evenodd" d="M13.9761 3.84387C13.7808 3.49387 13.3075 3.49152 13.1092 3.83947L7.85938 13.0548L7.77752 13.0015L7.85938 13.0548C7.71319 13.3114 7.7907 13.6462 8.03193 13.8002L8.03195 13.8002L13.2289 17.1208L13.2289 17.1208C13.3873 17.222 13.5848 17.2229 13.7444 17.1232L13.7765 15.2784C13.5715 15.3744 13.3338 15.3598 13.1388 15.2354L13.1388 15.2354L9.65215 13.0076C9.31944 12.7951 9.2126 12.3334 9.41418 11.9795L12.9363 5.79693C13.1587 5.40664 13.632 5.33601 13.9457 5.5829L13.9761 3.84387ZM13.9761 3.84387L13.9457 5.5829C14.0177 5.63955 14.0813 5.7129 14.1315 5.80295L14.1315 5.80296L17.5982 12.0195L17.5982 12.0195C17.7965 12.3751 17.6859 12.8354 17.3516 13.0447L17.3516 13.0447L13.8495 15.2387L13.8495 15.2387C13.8258 15.2535 13.8014 15.2668 13.7766 15.2784L13.7444 17.1231L18.9643 13.8531C19.2065 13.7014 19.2869 13.3675 19.1431 13.1096L13.9761 3.84387ZM13.8198 12.7993L13.7807 15.0443L17.2547 12.8679L17.2547 12.8679C17.4971 12.7161 17.5773 12.3823 17.4335 12.1244L17.4335 12.1244L13.9669 5.90791L13.9669 5.9079C13.9586 5.89318 13.9499 5.87907 13.9408 5.86558L13.9032 8.01831C13.9879 8.07756 14.0625 8.15855 14.1197 8.26124L14.1198 8.26125L15.5585 10.8411L15.5585 10.8411C15.7568 11.1968 15.6461 11.6571 15.3119 11.8664L13.8586 12.7768C13.8459 12.7848 13.8329 12.7923 13.8198 12.7993ZM13.8198 12.7994L13.7806 15.0443L13.7526 15.0618C13.5932 15.1616 13.3957 15.1607 13.2372 15.0595L13.2371 15.0594L9.7505 12.8317L9.75048 12.8316C9.50922 12.6776 9.43172 12.3428 9.57791 12.0861L13.1001 5.90352C13.2899 5.5702 13.7323 5.55834 13.9408 5.86557L13.9032 8.0183C13.5901 7.79911 13.1398 7.87745 12.9246 8.25518L11.4629 10.8209C11.2613 11.1748 11.3682 11.6365 11.7009 11.849L13.1479 12.7735L13.1479 12.7735C13.3538 12.905 13.6074 12.9138 13.8198 12.7994ZM13.824 12.5609L15.215 11.6896L15.215 11.6896C15.4574 11.5378 15.5376 11.204 15.3938 10.946L13.9551 8.36617L13.9551 8.36616C13.9382 8.33592 13.9193 8.30827 13.8986 8.28322L13.824 12.5609ZM13.8986 8.2832L13.824 12.561L13.7617 12.6C13.6023 12.6998 13.4048 12.6989 13.2462 12.5976L11.7992 11.6731L11.7992 11.6731C11.558 11.519 11.4805 11.1842 11.6267 10.9275L13.0883 8.36177C13.2694 8.04386 13.6802 8.01838 13.8986 8.2832ZM12.9455 3.73287C13.2189 3.25306 13.8715 3.25637 14.1407 3.73891L14.1407 3.73892L19.3078 13.0047C19.5061 13.3604 19.3952 13.8207 19.0612 14.0299L13.8413 17.3L13.8412 17.3C13.6214 17.4375 13.3491 17.4364 13.1305 17.2967L13.1305 17.2967L7.93362 13.9762C7.60091 13.7637 7.49407 13.302 7.69565 12.9482L12.9455 3.73287ZM10.0396 16.8151C9.57077 16.516 9.05241 17.1133 9.3665 17.5907L13.0501 23.1904C13.2506 23.4949 13.6724 23.497 13.8752 23.1943L17.6061 17.6305C17.9243 17.1561 17.4111 16.5538 16.9396 16.8485L13.9339 18.7267C13.6542 18.9016 13.3076 18.8999 13.0293 18.7224L10.0396 16.8151ZM9.20968 17.7086C8.77659 17.0503 9.49135 16.2267 10.1379 16.6391L13.1275 18.5464C13.3458 18.6856 13.6177 18.6869 13.8371 18.5498L16.8428 16.6716C17.4929 16.2653 18.2007 17.0957 17.7619 17.7499L14.0311 23.3137C13.7512 23.7311 13.1697 23.7282 12.8933 23.3083L9.20968 17.7086ZM12.4301 20.4717C12.129 20.014 12.6259 19.4415 13.0754 19.7282C13.3471 19.9015 13.6855 19.9032 13.9588 19.7325L13.9588 19.7325C14.4106 19.4501 14.9027 20.0274 14.5977 20.4822L13.9222 21.4896L13.9222 21.4896C13.7192 21.7923 13.2975 21.7902 13.0971 21.4857L13.0971 21.4857L12.4301 20.4717ZM13.1736 19.5522C12.5465 19.1522 11.8531 19.9509 12.2732 20.5895L12.9403 21.6036L12.9403 21.6036C13.2166 22.0235 13.7981 22.0264 14.078 21.609L14.7536 20.6016C15.179 19.9672 14.4925 19.1616 13.862 19.5556C13.6491 19.6886 13.3854 19.6873 13.1736 19.5522Z" fill="#D3ECEC"/>
</g>
<g clip-path="url(#clip2_12_34548)">
<path d="M32 25C32 28.866 28.866 32 25 32C21.134 32 18 28.866 18 25C18 21.134 21.134 18 25 18C28.866 18 32 21.134 32 25Z" fill="black"/>
<path fill-rule="evenodd" clip-rule="evenodd" d="M25 31.5625C28.6244 31.5625 31.5625 28.6244 31.5625 25C31.5625 21.3756 28.6244 18.4375 25 18.4375C21.3756 18.4375 18.4375 21.3756 18.4375 25C18.4375 28.6244 21.3756 31.5625 25 31.5625ZM25 32C28.866 32 32 28.866 32 25C32 21.134 28.866 18 25 18C21.134 18 18 21.134 18 25C18 28.866 21.134 32 25 32Z" fill="#363232"/>
<path fill-rule="evenodd" clip-rule="evenodd" d="M20.1875 25C20.1875 22.3421 22.3422 20.1875 24.9999 20.1875C27.658 20.1875 29.8128 22.3421 29.8125 24.9998C29.8125 25.9412 29.5421 26.8193 29.0749 27.5609C28.9462 27.7652 28.8026 27.9591 28.6455 28.1415L25.0063 24.5025L21.8769 27.6314L21.3602 28.148C21.2026 27.9662 21.0586 27.7726 20.9298 27.5685C20.4595 26.8255 20.1875 25.9445 20.1875 25ZM28.5233 26.8752L28.5673 26.7871C28.8434 26.2365 28.9895 25.6184 28.9895 25C28.9895 22.8004 27.1999 21.0109 25.0001 21.0109C22.8003 21.0109 21.011 22.8004 21.011 25C21.011 25.6218 21.1583 26.2425 21.437 26.7954L21.4813 26.883L25.0063 23.3583L28.5233 26.8752ZM25 29.8125C26.1981 29.8125 27.2942 29.3747 28.1367 28.6501L25.0064 25.5199L21.8702 28.6556C22.7115 29.377 23.8019 29.8125 25 29.8125Z" fill="#ABDEAE"/>
</g>
</g>
<defs>
<linearGradient id="paint0_linear_12_34548" x1="21.9375" y1="3.30037e-08" x2="3.79687" y2="27" gradientUnits="userSpaceOnUse">
<stop stop-color="#0D5F5F"/>
<stop offset="0.760196" stop-color="#093C3C"/>
<stop offset="0.99" stop-color="#0C4646"/>
</linearGradient>
<clipPath id="clip0_12_34548">
<rect width="32" height="32" fill="white"/>
</clipPath>
<clipPath id="clip1_12_34548">
<rect width="27" height="27" fill="white"/>
</clipPath>
<clipPath id="clip2_12_34548">
<rect width="14" height="14" fill="white" transform="translate(18 18)"/>
</clipPath>
</defs>
</svg>
