<?xml version="1.0" encoding="UTF-8" standalone="no"?>
<!-- Created with Inkscape (http://www.inkscape.org/) -->

<svg
   version="1.1"
   id="svg1"
   width="548.02667"
   height="396.85333"
   viewBox="0 0 548.02667 396.85333"
   sodipodi:docname="b5d15aaf-e536-4040-8190-f9cbd3e5ba82.ai"
   xmlns:inkscape="http://www.inkscape.org/namespaces/inkscape"
   xmlns:sodipodi="http://sodipodi.sourceforge.net/DTD/sodipodi-0.dtd"
   xmlns="http://www.w3.org/2000/svg"
   xmlns:svg="http://www.w3.org/2000/svg">
  <defs
     id="defs1">
    <clipPath
       clipPathUnits="userSpaceOnUse"
       id="clipPath2">
      <path
         d="M 0,297.64 H 411.02 V 0 H 0 Z"
         transform="translate(-205.17001,-113.39)"
         id="path2" />
    </clipPath>
    <clipPath
       clipPathUnits="userSpaceOnUse"
       id="clipPath4">
      <path
         d="M 0,297.64 H 411.02 V 0 H 0 Z"
         transform="translate(-255.90001,-179.22001)"
         id="path4" />
    </clipPath>
    <clipPath
       clipPathUnits="userSpaceOnUse"
       id="clipPath6">
      <path
         d="M 0,297.64 H 411.02 V 0 H 0 Z"
         transform="translate(-255.88,-217.69001)"
         id="path6" />
    </clipPath>
    <clipPath
       clipPathUnits="userSpaceOnUse"
       id="clipPath8">
      <path
         d="M 0,297.64 H 411.02 V 0 H 0 Z"
         transform="translate(-97.610005,-49.939999)"
         id="path8" />
    </clipPath>
    <clipPath
       clipPathUnits="userSpaceOnUse"
       id="clipPath10">
      <path
         d="M 0,297.64 H 411.02 V 0 H 0 Z"
         transform="translate(-151.85001,-49.399999)"
         id="path10" />
    </clipPath>
    <clipPath
       clipPathUnits="userSpaceOnUse"
       id="clipPath12">
      <path
         d="M 0,297.64 H 411.02 V 0 H 0 Z"
         transform="translate(-171.73,-55.740004)"
         id="path12" />
    </clipPath>
    <clipPath
       clipPathUnits="userSpaceOnUse"
       id="clipPath14">
      <path
         d="M 0,297.64 H 411.02 V 0 H 0 Z"
         transform="translate(-218.08,-49.180001)"
         id="path14" />
    </clipPath>
    <clipPath
       clipPathUnits="userSpaceOnUse"
       id="clipPath16">
      <path
         d="M 0,297.64 H 411.02 V 0 H 0 Z"
         transform="translate(-237.09001,-53.209999)"
         id="path16" />
    </clipPath>
    <clipPath
       clipPathUnits="userSpaceOnUse"
       id="clipPath18">
      <path
         d="M 0,297.64 H 411.02 V 0 H 0 Z"
         transform="translate(-265.83001,-76.789999)"
         id="path18" />
    </clipPath>
    <clipPath
       clipPathUnits="userSpaceOnUse"
       id="clipPath20">
      <path
         d="M 0,297.64 H 411.02 V 0 H 0 Z"
         transform="translate(-280.28001,-55.740004)"
         id="path20" />
    </clipPath>
    <clipPath
       clipPathUnits="userSpaceOnUse"
       id="clipPath22">
      <path
         d="M 0,297.64 H 411.02 V 0 H 0 Z"
         transform="translate(-299.56,-27.750003)"
         id="path22" />
    </clipPath>
  </defs>
  <sodipodi:namedview
     id="namedview1"
     pagecolor="#ffffff"
     bordercolor="#000000"
     borderopacity="0.25"
     inkscape:showpageshadow="2"
     inkscape:pageopacity="0.0"
     inkscape:pagecheckerboard="0"
     inkscape:deskcolor="#d1d1d1">
    <inkscape:page
       x="0"
       y="0"
       inkscape:label="1"
       id="page1"
       width="548.02667"
       height="396.85333"
       margin="3.9866934 118.29333 0 70.626663"
       bleed="0" />
  </sodipodi:namedview>
  <g
     id="layer-MC0"
     inkscape:groupmode="layer"
     inkscape:label="Lager 1">
    <path
       id="path1"
       d="m 0,0 c -50.6,0.03 -91.8,41.45 -91.78,92.27 0.01,50.55 41.2,92.32 92.8,91.98 50.64,-0.34 91.71,-41.74 91.45,-93 C 92.22,41.01 50.77,-0.03 0,0"
       style="fill:#be9fcb;fill-opacity:1;fill-rule:nonzero;stroke:none"
       transform="matrix(1.3333333,0,0,-1.3333333,273.56,245.66667)"
       clip-path="url(#clipPath2)" />
    <path
       id="path3"
       d="m 0,0 c -1.6,-1.51 -2.94,-3.2 -4.67,-4.27 -1.36,-0.84 -1.99,0.98 -2.77,1.78 -3.44,3.51 -6.89,7 -10.17,10.66 -1.43,1.59 -2.2,1.26 -3.4,-0.16 -3.72,-4.41 -7.63,-8.66 -11.28,-13.13 -1.55,-1.9 -2.48,-2.09 -4.19,-0.14 -3.88,4.43 -8.1,8.57 -11.97,13 -1.71,1.96 -2.69,1.65 -4.19,-0.14 -3.8,-4.5 -7.82,-8.82 -11.62,-13.32 -1.31,-1.56 -1.98,-1.51 -3.3,0.02 -3.92,4.56 -8.12,8.89 -12,13.48 -1.56,1.84 -2.47,1.72 -3.93,0.01 -3.19,-3.73 -6.62,-7.25 -9.76,-11.03 -1.44,-1.73 -2.55,-1.26 -3.45,0.11 -0.94,1.43 -4.67,1.85 -2.24,4.65 5.23,6.03 10.67,11.86 15.94,17.85 1.39,1.57 2.14,0.8 3.15,-0.33 4,-4.49 8.11,-8.89 12.05,-13.43 1.36,-1.57 2.16,-1.82 3.62,-0.06 3.77,4.53 7.8,8.84 11.61,13.33 1.36,1.6 2.23,1.66 3.67,0.05 3.85,-4.3 7.97,-8.35 11.77,-12.69 1.88,-2.15 3.02,-2.44 4.97,0 3.51,4.42 7.41,8.52 11.06,12.82 1.12,1.32 1.85,1.54 3.15,0.15 C -12.43,13.28 -6.8,7.45 -1.22,1.58 -0.8,1.15 -0.48,0.64 0,0"
       style="fill:#1d1d1b;fill-opacity:1;fill-rule:nonzero;stroke:none"
       transform="matrix(1.3333333,0,0,-1.3333333,341.2,157.89333)"
       clip-path="url(#clipPath4)" />
    <path
       id="path5"
       d="m 0,0 c -1.46,-1.42 -2.83,-2.96 -4.41,-4.22 -1.37,-1.09 -1.87,0.53 -2.55,1.23 -3.52,3.59 -7.07,7.16 -10.43,10.9 -1.45,1.61 -2.26,1.61 -3.64,-0.05 -3.69,-4.43 -7.67,-8.62 -11.27,-13.11 -1.68,-2.1 -2.61,-1.77 -4.18,-0.01 -3.84,4.3 -7.92,8.38 -11.74,12.7 -1.64,1.86 -2.65,2.28 -4.44,0.08 -3.55,-4.37 -7.49,-8.44 -11.1,-12.77 -1.56,-1.86 -2.54,-2.04 -4.2,-0.07 -3.63,4.32 -7.63,8.32 -11.2,12.69 -1.88,2.3 -2.95,2.06 -4.69,-0.06 -2.96,-3.59 -6.32,-6.86 -9.27,-10.46 -1.59,-1.95 -2.75,-1.15 -3.74,0.19 -0.99,1.34 -4.46,1.8 -1.88,4.66 5.27,5.82 10.52,11.65 15.71,17.54 1.27,1.44 2.04,1.12 3.17,-0.16 3.88,-4.43 7.99,-8.66 11.76,-13.18 1.79,-2.15 2.78,-1.89 4.42,0.07 3.69,4.43 7.66,8.62 11.36,13.04 1.33,1.59 2.08,1.41 3.35,0 3.86,-4.28 8.01,-8.31 11.71,-12.72 2.27,-2.7 3.5,-2.21 5.46,0.27 3.43,4.32 7.22,8.35 10.81,12.54 0.95,1.11 1.67,1.58 2.9,0.26 5.62,-6 11.32,-11.93 16.97,-17.89 C -0.79,1.12 -0.53,0.7 0,0"
       style="fill:#1d1d1b;fill-opacity:1;fill-rule:nonzero;stroke:none"
       transform="matrix(1.3333333,0,0,-1.3333333,341.17333,106.6)"
       clip-path="url(#clipPath6)" />
    <path
       id="path7"
       d="m 0,0 h 17.67 l 7.63,36.52 c 0.25,1.18 0.38,1.79 0.38,1.83 0.21,0.72 0.32,1.36 0.32,1.93 0,0.89 -0.39,1.34 -1.18,1.34 -0.97,0 -2.13,-1.02 -3.49,-3.06 C 19.97,36.52 17.61,32.33 14.24,25.99 13.74,25.02 12.72,23.07 11.18,20.14 9.89,17.81 9.19,16.52 9.09,16.27 L 3.93,6.87 C 1.77,2.97 0.46,0.68 0,0 M 17.29,-1.83 H -1.45 l 0.21,-0.16 c 3.19,-2.44 5.93,-4.94 8.22,-7.52 2.29,-2.58 4.53,-5.66 6.71,-9.24 z m 5.05,0 -5.1,-23.79 H 13.8 c -1.33,4.22 -3.45,8.33 -6.37,12.3 -2.92,3.97 -6.22,7.25 -9.91,9.83 -2.44,-3.8 -5.16,-7.2 -8.16,-10.21 -3,-3.01 -6.2,-5.59 -9.59,-7.73 -3.38,-2.15 -6.9,-3.81 -10.55,-5 -3.65,-1.19 -7.23,-1.77 -10.74,-1.77 -0.97,0 -2,0.09 -3.12,0.27 l 1.72,4.08 c 1.9,-0.21 3.33,-0.32 4.3,-0.32 9.81,0 18.55,3.83 26.21,11.49 1.58,1.58 3.18,3.39 4.81,5.45 1.63,2.06 3.32,4.47 5.08,7.22 3.9,6.12 7.23,11.85 9.99,17.19 l 5.05,9.72 c 3.97,7.63 7.04,12.79 9.18,15.5 2.15,2.7 4.28,4.05 6.39,4.05 0.68,0 1.28,-0.14 1.8,-0.43 0.52,-0.29 0.92,-0.71 1.21,-1.26 0.29,-0.56 0.43,-1.17 0.43,-1.85 0,-0.5 -0.09,-1.24 -0.27,-2.2 -0.18,-1.29 -0.29,-1.99 -0.32,-2.09 L 22.72,0 h 3.81 l -0.38,-1.83 z"
       style="fill:#ffffff;fill-opacity:1;fill-rule:nonzero;stroke:none"
       transform="matrix(1.3333333,0,0,-1.3333333,130.14667,330.26667)"
       clip-path="url(#clipPath8)" />
    <path
       id="path9"
       d="m 0,0 c -1.07,2.61 -2.9,3.92 -5.48,3.92 -1.5,0 -3.07,-0.6 -4.7,-1.8 -1.63,-1.2 -3.02,-2.73 -4.16,-4.59 -1.54,-2.47 -2.78,-5.12 -3.73,-7.95 -0.95,-2.83 -1.42,-5.28 -1.42,-7.36 0,-1.68 0.39,-3.02 1.18,-4 0.79,-0.98 1.84,-1.48 3.17,-1.48 1.68,0 3.54,1.02 5.56,3.06 2.02,2.04 3.88,4.73 5.59,8.06 1.7,3.33 2.89,6.7 3.57,10.1 z M 6.02,6.66 -7.35,-46.41 h -2.85 l 7.47,34.11 c -1.33,-2.76 -3.17,-5.53 -5.53,-8.33 -2.97,-3.54 -5.93,-5.32 -8.86,-5.32 -2.15,0 -3.86,0.78 -5.13,2.34 -1.27,1.56 -1.91,3.57 -1.91,6.04 0,4.94 1.92,9.95 5.75,15.04 2.04,2.69 4.11,4.68 6.2,5.99 2.1,1.31 4.23,1.96 6.42,1.96 2.65,0 4.8,-0.91 6.45,-2.74 l 0.43,1.88 z"
       style="fill:#ffffff;fill-opacity:1;fill-rule:nonzero;stroke:none"
       transform="matrix(1.3333333,0,0,-1.3333333,202.46667,330.98667)"
       clip-path="url(#clipPath10)" />
    <path
       id="path11"
       d="m 0,0 -5.21,-20.79 c -0.47,-1.86 -0.7,-3.44 -0.7,-4.73 0,-1.25 0.39,-2.26 1.18,-3.01 0.79,-0.75 1.81,-1.13 3.06,-1.13 3.04,0 6.21,2.49 9.51,7.47 l 0.21,0.32 c 0.07,0.36 0.12,0.64 0.16,0.86 l 3.38,18.8 5.26,2.2 -4.73,-17.67 c -0.79,-2.9 -1.18,-5.23 -1.18,-6.98 0,-1.15 0.2,-2.08 0.59,-2.79 0.39,-0.72 0.91,-1.07 1.56,-1.07 1.11,0 2.88,1.32 5.32,3.97 l 0.86,-0.75 -0.54,-0.59 c -2.04,-2.4 -3.54,-4.02 -4.51,-4.86 -0.97,-0.84 -1.86,-1.26 -2.69,-1.26 -1.11,0 -2.05,0.56 -2.82,1.69 -0.77,1.13 -1.16,2.53 -1.16,4.22 0,0.54 0.02,1.04 0.05,1.5 -3.72,-4.94 -7.41,-7.41 -11.06,-7.41 -1.83,0 -3.29,0.53 -4.38,1.58 -1.09,1.06 -1.64,2.46 -1.64,4.22 0,1.36 0.2,3.03 0.59,5 l 3.65,19.01 z"
       style="fill:#ffffff;fill-opacity:1;fill-rule:nonzero;stroke:none"
       transform="matrix(1.3333333,0,0,-1.3333333,228.97333,322.53333)"
       clip-path="url(#clipPath12)" />
    <path
       id="path13"
       d="m 0,0 c -0.43,1.36 -1.15,2.43 -2.18,3.2 -1.02,0.77 -2.19,1.15 -3.52,1.15 -1.58,0 -3.24,-0.72 -5,-2.18 -1.75,-1.45 -3.37,-3.46 -4.83,-6.04 -1.15,-2.04 -2.1,-4.3 -2.87,-6.77 -0.77,-2.47 -1.15,-4.51 -1.15,-6.12 0,-1.83 0.35,-3.26 1.05,-4.3 0.7,-1.04 1.69,-1.56 2.98,-1.56 1.65,0 3.37,0.77 5.16,2.31 1.79,1.54 3.56,3.74 5.32,6.61 1.07,1.65 1.92,3.29 2.52,4.94 0.61,1.65 1.29,3.94 2.04,6.88 z M 6.18,6.88 1.13,-12.78 c -0.54,-2.15 -0.81,-3.83 -0.81,-5.05 0,-1.07 0.23,-2.01 0.7,-2.79 0.46,-0.79 1.04,-1.18 1.72,-1.18 1.04,0 2.76,1.27 5.16,3.81 l 0.75,-0.75 -0.59,-0.7 c -1.9,-2.18 -3.36,-3.71 -4.38,-4.59 -1.02,-0.88 -1.91,-1.32 -2.66,-1.32 -1.15,0 -2.14,0.6 -2.98,1.8 -0.84,1.2 -1.26,2.59 -1.26,4.16 0,1.15 0.43,3.74 1.29,7.79 l 0.43,2.04 c -1.33,-3.08 -3.1,-6.03 -5.32,-8.86 -3.72,-4.73 -7.29,-7.09 -10.69,-7.09 -2.04,0 -3.65,0.73 -4.83,2.2 -1.18,1.47 -1.77,3.44 -1.77,5.91 0,3.37 0.96,6.89 2.87,10.58 1.92,3.69 4.3,6.72 7.14,9.1 2.85,2.38 5.61,3.57 8.3,3.57 2.83,0 4.94,-1.04 6.34,-3.12 l 0.59,2.04 z"
       style="fill:#ffffff;fill-opacity:1;fill-rule:nonzero;stroke:none"
       transform="matrix(1.3333333,0,0,-1.3333333,290.77333,331.28)"
       clip-path="url(#clipPath14)" />
    <path
       id="path15"
       d="M 0,0 C 0.14,0.89 0.21,1.65 0.21,2.26 0.21,3.51 0,4.5 -0.41,5.21 -0.82,5.93 -1.35,6.28 -1.99,6.28 -2.35,6.28 -2.66,6.11 -2.93,5.77 -3.2,5.43 -3.33,5.01 -3.33,4.51 -3.33,2.83 -2.22,1.33 0,0 m -7.35,-13.64 c 3.08,3.72 5.14,7.2 6.18,10.42 -2.9,1.61 -4.35,3.92 -4.35,6.93 0,1.43 0.34,2.6 1.02,3.49 0.68,0.89 1.54,1.34 2.58,1.34 1.07,0 1.95,-0.49 2.63,-1.48 0.68,-0.98 1.02,-2.26 1.02,-3.84 0,-1.11 -0.2,-2.35 -0.59,-3.71 0.97,-0.25 1.84,-0.38 2.63,-0.38 2.22,0 4.05,0.64 5.48,1.93 h 2.58 L 11.45,0.31 c -2.58,-4.73 -4.7,-9.37 -6.36,-13.94 -1.67,-4.57 -2.5,-7.98 -2.5,-10.23 0,-0.82 0.21,-1.51 0.64,-2.07 0.43,-0.55 0.95,-0.83 1.56,-0.83 1.47,0 3.83,1.56 7.09,4.67 l 0.86,-0.97 c -1,-1.11 -2.56,-2.49 -4.67,-4.14 -1.9,-1.5 -3.67,-2.26 -5.32,-2.26 -1.4,0 -2.5,0.47 -3.3,1.4 -0.8,0.93 -1.21,2.2 -1.21,3.81 0,2.69 1.04,6.09 3.12,10.21 0.75,1.54 1.72,3.29 2.9,5.26 1.18,1.97 2.67,4.31 4.46,7.04 l 0.54,0.75 C 8.08,-2.06 6.94,-2.82 5.85,-3.27 4.76,-3.72 3.51,-3.94 2.12,-3.94 c -0.64,0 -1.33,0.09 -2.04,0.27 -1.15,-3.51 -3.29,-7.13 -6.45,-10.85 z"
       style="fill:#ffffff;fill-opacity:1;fill-rule:nonzero;stroke:none"
       transform="matrix(1.3333333,0,0,-1.3333333,316.12,325.90667)"
       clip-path="url(#clipPath16)" />
    <path
       id="path17"
       d="m 0,0 c 0.93,0 1.68,-0.29 2.26,-0.86 0.57,-0.57 0.86,-1.33 0.86,-2.26 0,-0.9 -0.3,-1.65 -0.91,-2.26 -0.61,-0.61 -1.34,-0.91 -2.2,-0.91 -0.82,0 -1.56,0.32 -2.2,0.97 -0.64,0.65 -0.97,1.38 -0.97,2.2 0,0.86 0.3,1.59 0.91,2.2 C -1.65,-0.3 -0.9,0 0,0 m -1.56,-21.05 -4.73,-17.67 c -0.79,-2.9 -1.18,-5.23 -1.18,-6.98 0,-1.15 0.2,-2.08 0.59,-2.79 0.39,-0.72 0.91,-1.07 1.56,-1.07 1.11,0 2.88,1.32 5.32,3.97 l 0.86,-0.75 -0.54,-0.59 c -2.04,-2.4 -3.54,-4.02 -4.51,-4.86 -0.97,-0.84 -1.86,-1.26 -2.69,-1.26 -1.11,0 -2.05,0.56 -2.82,1.69 -0.77,1.13 -1.15,2.53 -1.15,4.22 0,1.07 0.21,2.77 0.64,5.1 l 3.38,18.8 z"
       style="fill:#ffffff;fill-opacity:1;fill-rule:nonzero;stroke:none"
       transform="matrix(1.3333333,0,0,-1.3333333,354.44,294.46667)"
       clip-path="url(#clipPath18)" />
    <path
       id="path19"
       d="m 0,0 -5.21,-20.79 c -0.47,-1.86 -0.7,-3.44 -0.7,-4.73 0,-1.25 0.39,-2.26 1.18,-3.01 0.79,-0.75 1.81,-1.13 3.06,-1.13 3.04,0 6.21,2.49 9.51,7.47 l 0.21,0.32 c 0.07,0.36 0.12,0.64 0.16,0.86 l 3.38,18.8 5.26,2.2 -4.73,-17.67 c -0.79,-2.9 -1.18,-5.23 -1.18,-6.98 0,-1.15 0.2,-2.08 0.59,-2.79 0.39,-0.72 0.91,-1.07 1.56,-1.07 1.11,0 2.88,1.32 5.32,3.97 l 0.86,-0.75 -0.54,-0.59 c -2.04,-2.4 -3.54,-4.02 -4.51,-4.86 -0.97,-0.84 -1.86,-1.26 -2.69,-1.26 -1.11,0 -2.05,0.56 -2.82,1.69 -0.77,1.13 -1.16,2.53 -1.16,4.22 0,0.54 0.02,1.04 0.05,1.5 -3.72,-4.94 -7.41,-7.41 -11.06,-7.41 -1.83,0 -3.29,0.53 -4.38,1.58 -1.09,1.06 -1.64,2.46 -1.64,4.22 0,1.36 0.2,3.03 0.59,5 l 3.65,19.01 z"
       style="fill:#ffffff;fill-opacity:1;fill-rule:nonzero;stroke:none"
       transform="matrix(1.3333333,0,0,-1.3333333,373.70667,322.53333)"
       clip-path="url(#clipPath20)" />
    <path
       id="path21"
       d="m 0,0 3.01,3.54 c 1.58,-3.72 4.08,-5.59 7.52,-5.59 1.79,0 3.32,0.58 4.59,1.75 1.27,1.16 1.91,2.51 1.91,4.05 0,1.11 -0.3,2.06 -0.91,2.85 -0.61,0.79 -2.06,2.11 -4.35,3.97 -2.11,1.72 -3.54,3.07 -4.27,4.06 -0.73,0.98 -1.1,2.12 -1.1,3.41 0,1.68 0.49,3.24 1.48,4.67 0.98,1.43 2.3,2.59 3.95,3.46 1.65,0.88 3.38,1.32 5.21,1.32 1.61,0 2.96,-0.4 4.06,-1.21 1.09,-0.8 1.64,-1.83 1.64,-3.09 0,-1.65 -0.7,-2.78 -2.09,-3.38 -0.21,1.68 -0.85,3 -1.91,3.95 -1.06,0.95 -2.41,1.42 -4.06,1.42 -1.47,0 -2.75,-0.47 -3.84,-1.42 C 9.75,22.81 9.2,21.73 9.2,20.51 c 0,-1.5 0.93,-2.99 2.79,-4.46 l 3.12,-2.52 C 18.15,11.13 19.68,8.68 19.68,6.17 19.68,4.31 19.15,2.56 18.1,0.93 17.04,-0.7 15.61,-2 13.8,-2.96 11.99,-3.93 10.08,-4.41 8.08,-4.41 4.87,-4.4 2.18,-2.93 0,0"
       style="fill:#ffffff;fill-opacity:1;fill-rule:nonzero;stroke:none"
       transform="matrix(1.3333333,0,0,-1.3333333,399.41333,359.85333)"
       clip-path="url(#clipPath22)" />
  </g>
</svg>
