<svg width="32" height="32" viewBox="0 0 32 32" fill="none" xmlns="http://www.w3.org/2000/svg">
<path d="M32 16C32 24.8366 24.8366 32 16 32C7.16344 32 0 24.8366 0 16C0 7.16344 7.16344 0 16 0C24.8366 0 32 7.16344 32 16Z" fill="#D8D8D8"/>
<path d="M24 13.8V9.4H21.9975V7.20001H17.9974V5H14V7.20001H10V9.4H8V22.6H10V24.8H13.9974V27H17.9974V24.8H21.9975V22.6H24V18.2H19.9974V20.3944H17.9974V22.5944H14V20.3944H12V11.6H14V9.4H17.9974V11.6H19.9974V13.8H24Z" fill="black"/>
<path fill-rule="evenodd" clip-rule="evenodd" d="M9.99426 7.20825H8.99841V9.39852H9.99426V7.20825ZM8 9.39844H7V16.0001H8V9.39844Z" fill="#60D8A4"/>
<path fill-rule="evenodd" clip-rule="evenodd" d="M13 5H14V7.19355H13V5ZM17 11.5957H18V9.39143H17V11.5957ZM20.063 13.8032H19.0794V11.6043H20.063L20.063 13.8032Z" fill="#1682FE"/>
<path fill-rule="evenodd" clip-rule="evenodd" d="M20 20.3908H19L19 18.2239H20V20.3908ZM17.0181 22.5857H18.0017V20.3983H17.0181L17.0181 22.5857ZM13 27.0034H14V24.7967H13V27.0034Z" fill="#FF5A5A"/>
<path fill-rule="evenodd" clip-rule="evenodd" d="M8 16H7V22.6016H8V16ZM10 24.8062H9V22.607H10V24.8062Z" fill="#F4BB3B"/>
<g clip-path="url(#clip0_144_590580)">
<path d="M32 24C32 27.866 28.866 31 25 31C21.134 31 18 27.866 18 24C18 20.134 21.134 17 25 17C28.866 17 32 20.134 32 24Z" fill="white"/>
<path d="M31.5 24C31.5 27.5899 28.5899 30.5 25 30.5C21.4101 30.5 18.5 27.5899 18.5 24C18.5 20.4101 21.4101 17.5 25 17.5C28.5899 17.5 31.5 20.4101 31.5 24Z" stroke="#BDBDBF" stroke-opacity="0.2"/>
<path fill-rule="evenodd" clip-rule="evenodd" d="M23.25 19.625V20.9375C22.7727 20.9375 21.9375 21.5196 21.9375 22.25C21.9375 22.9804 22.7727 23.5625 23.25 23.5625V24.875C22.375 24.7228 20.625 24.0761 20.625 22.25C20.625 20.4239 22.375 19.7011 23.25 19.625ZM27.1875 24.875H25.875V28.375H29.375V27.0625H27.1875V24.875ZM29.309 20.9906L28.381 20.0625L21.4301 27.0134L22.3581 27.9415L29.309 20.9906Z" fill="#2E2EF5"/>
</g>
<path fill-rule="evenodd" clip-rule="evenodd" d="M25.2238 12.2769C25.9446 12.0075 26.6934 11.8117 27.443 11.6344C28.0423 11.4926 28.6422 11.3627 29.24 11.2085C29.6132 11.1122 29.9854 11.0066 30.3336 10.8409C30.612 10.7085 30.8746 10.5379 31.0907 10.3212C31.3065 10.1044 31.4758 9.84169 31.6024 9.56289C31.7609 9.21439 31.8528 8.84059 31.9164 8.46154C31.9928 8.00699 32.0285 7.54494 31.9731 7.09245C31.9176 6.63996 31.771 6.19684 31.5718 5.78107C31.3727 5.36511 31.121 4.9767 30.8217 4.62932C30.4224 4.16577 29.9386 3.7753 29.4269 3.43242C28.7866 3.00316 28.1028 2.64829 27.4016 2.33257C26.7002 2.01686 25.9813 1.74049 25.2476 1.50647C24.6603 1.31929 24.0637 1.15928 23.4534 1.07028C22.9965 1.00358 22.5319 0.976784 22.071 1.02344C21.6108 1.07009 21.1545 1.19001 20.7422 1.39611C20.3299 1.60222 19.9616 1.89432 19.6478 2.23139C19.3334 2.56884 19.0734 2.95145 18.8571 3.35635C18.6405 3.76162 18.4678 4.18938 18.3363 4.62876C18.2048 5.06832 18.1145 5.51969 18.0607 5.97518C17.989 6.58225 17.9822 7.19644 18.0329 7.80482C18.0964 8.56497 18.2496 9.31631 18.4249 10.0624C18.6005 10.8083 18.7981 11.5494 19.0987 12.2529C19.3391 12.8154 19.6452 13.3543 20.0491 13.8176C20.3012 14.1069 20.5916 14.3668 20.9183 14.5705C21.1796 14.7335 21.4641 14.8603 21.763 14.9319C21.9875 14.9857 22.2201 15.008 22.4514 14.9975C22.6825 14.987 22.9124 14.9435 23.1301 14.8673C23.4197 14.7657 23.6882 14.6059 23.9236 14.4088C24.2184 14.162 24.4616 13.8566 24.6626 13.5293C24.9041 13.1365 25.0847 12.7123 25.2238 12.2769Z" fill="white"/>
<path d="M24.0667 5.46106L23.9619 5.60578L24.0509 6.33761L24.1332 6.16718L24.0667 5.46106Z" fill="#FBF100"/>
<path d="M22.7095 1.97223L22.1509 2.00646L22.4266 2.10497L22.9164 2.07075L22.7095 1.97223Z" fill="#A40000"/>
<path d="M23.9683 4.77557L23.8306 4.89576L23.9615 5.60566L24.0662 5.46094L23.9683 4.77557Z" fill="#FFAE00"/>
<path d="M22.9165 2.0708L22.4268 2.10503L22.7029 2.32284L23.1235 2.28409L22.9165 2.0708Z" fill="#A80000"/>
<path d="M23.8414 4.13031L23.6611 4.22788L23.8306 4.89594L23.9684 4.77575L23.8414 4.13031Z" fill="#FF7300"/>
<path d="M23.1232 2.28406L22.7026 2.3228L22.9715 2.65446L23.3248 2.60679L23.1232 2.28406Z" fill="#B60000"/>
<path d="M23.6889 3.54285L23.4575 3.62039L23.6611 4.22774L23.8414 4.13017L23.6889 3.54285Z" fill="#FF3F00"/>
<path d="M23.3249 2.60681L22.9717 2.65448L23.2257 3.09107L23.5153 3.03033L23.3249 2.60681Z" fill="#D60000"/>
<path d="M23.5152 3.03015L23.2256 3.09089L23.4576 3.62033L23.689 3.54278L23.5152 3.03015Z" fill="#FF1300"/>
<path d="M25.1913 7.75549L24.7068 7.8573L24.6831 8.40347L25.1862 8.27189L25.1913 7.75549Z" fill="#16FFE1"/>
<path d="M25.1959 7.19574L24.7201 7.26388L24.707 7.85732L25.1916 7.75551L25.1959 7.19574Z" fill="#4DFFAA"/>
<path d="M25.1994 6.60712L24.7222 6.63857L24.7202 7.26391L25.196 7.19577L25.1994 6.60712Z" fill="#80FF77"/>
<path d="M25.2011 6.00518L24.7124 5.99792L24.7217 6.63864L25.1989 6.60719L25.2011 6.00518Z" fill="#B7FF40"/>
<path d="M25.2026 5.40613L24.6924 5.35925L24.7127 5.99803L25.2015 6.00529L25.2026 5.40613Z" fill="#EBFF0C"/>
<path d="M25.1731 2.4814L24.2466 2.21484L24.3158 2.30248L25.1797 2.55923L25.1731 2.4814Z" fill="#ED0400"/>
<path d="M25.2028 4.82618L24.6616 4.73993L24.6926 5.35926L25.2028 5.40614L25.2028 4.82618Z" fill="#FFCC00"/>
<path d="M25.1792 2.55942L24.3154 2.30267L24.3844 2.494L25.1853 2.73467L25.1792 2.55942Z" fill="#F10800"/>
<path d="M25.2013 4.28144L24.6206 4.15723L24.6614 4.73989L25.2025 4.82614L25.2013 4.28144Z" fill="#FF9800"/>
<path d="M25.1857 2.73457L24.3848 2.4939L24.4515 2.78412L25.191 3.00282L25.1857 2.73457Z" fill="#FF1300"/>
<path d="M25.1991 3.78701L24.5713 3.62738L24.6208 4.15713L25.2015 4.28134L25.1991 3.78701Z" fill="#FF6C00"/>
<path d="M25.1906 3.0027L24.4512 2.784L24.5139 3.16533L25.1951 3.35676L25.1906 3.0027Z" fill="#FF2900"/>
<path d="M25.1954 3.35702L24.5142 3.16559L24.5711 3.62757L25.1989 3.7872L25.1954 3.35702Z" fill="#FF4700"/>
<path d="M24.7072 7.85754L24.3501 8.01278L24.3062 8.58706L24.6835 8.40371L24.7072 7.85754Z" fill="#13FCE4"/>
<path d="M24.7202 7.26398L24.373 7.38779L24.3501 8.01265L24.7072 7.85742L24.7202 7.26398Z" fill="#49FFAD"/>
<path d="M24.7222 6.63861L24.3501 6.72859L24.373 7.38777L24.7202 7.26395L24.7222 6.63861Z" fill="#80FF77"/>
<path d="M24.713 5.99799L24.3525 6.05245L24.3739 6.72862L24.7223 6.6387L24.713 5.99799Z" fill="#BAFF3C"/>
<path d="M24.6924 5.35931L24.3091 5.37776L24.3523 6.05255L24.7128 5.99809L24.6924 5.35931Z" fill="#F1FC06"/>
<path d="M24.2467 2.21498L23.4146 2.04279L23.5515 2.13752L24.316 2.30262L24.2467 2.21498Z" fill="#D10000"/>
<path d="M24.6616 4.73978L24.2451 4.72272L24.3092 5.37754L24.6926 5.35909L24.6616 4.73978Z" fill="#FFC100"/>
<path d="M24.3163 2.30255L23.5518 2.13745L23.6887 2.34171L24.3852 2.49388L24.3163 2.30255Z" fill="#D60000"/>
<path d="M24.6211 4.15722L24.1621 4.1062L24.2454 4.72282L24.6619 4.73988L24.6211 4.15722Z" fill="#FF8900"/>
<path d="M24.3851 2.49385L23.6885 2.34167L23.8216 2.65033L24.4518 2.78405L24.3851 2.49385Z" fill="#E40000"/>
<path d="M24.5713 3.62749L24.0615 3.5451L24.1618 4.10621L24.6208 4.15723L24.5713 3.62749Z" fill="#FF5D00"/>
<path d="M24.452 2.78429L23.8218 2.65057L23.9473 3.0554L24.5147 3.16563L24.452 2.78429Z" fill="#FF1300"/>
<path d="M24.5147 3.1654L23.9473 3.05518L24.0618 3.54499L24.5715 3.62737L24.5147 3.1654Z" fill="#FF3400"/>
<path d="M25.7773 7.70844L25.1922 7.75578L25.187 8.27218L25.7882 8.19393L25.7773 7.70844Z" fill="#1CFFDB"/>
<path d="M25.7739 7.18365L25.1962 7.19578L25.1919 7.75556L25.777 7.70821L25.7739 7.18365Z" fill="#50FFA7"/>
<path d="M25.7788 6.63371L25.1996 6.60724L25.1963 7.19591L25.7739 7.18378L25.7788 6.63371Z" fill="#80FF77"/>
<path d="M25.7915 6.07253L25.202 6.00513L25.1997 6.60712L25.7789 6.6336L25.7915 6.07253Z" fill="#B4FF43"/>
<path d="M25.812 5.51568L25.2033 5.40619L25.2021 6.00535L25.7917 6.07275L25.812 5.51568Z" fill="#E4FF13"/>
<path d="M25.8393 4.97758L25.2031 4.82605L25.2032 5.406L25.8119 5.51549L25.8393 4.97758Z" fill="#FFD700"/>
<path d="M26.1505 2.83138L25.1733 2.48163L25.18 2.55946L26.1017 2.89739L26.1505 2.83138Z" fill="#FF1E00"/>
<path d="M25.8729 4.47364L25.2017 4.28137L25.2029 4.82609L25.8391 4.97762L25.8729 4.47364Z" fill="#FFA700"/>
<path d="M26.1019 2.89726L25.1802 2.55933L25.1862 2.73458L26.0523 3.05413L26.1019 2.89726Z" fill="#FF1E00"/>
<path d="M25.9122 4.01761L25.1992 3.78711L25.2016 4.28143L25.8729 4.4737L25.9122 4.01761Z" fill="#FF7E00"/>
<path d="M26.0521 3.05417L25.186 2.73462L25.1914 3.00286L26.0031 3.29794L26.0521 3.05417Z" fill="#FF2900"/>
<path d="M25.956 3.62203L25.1958 3.35693L25.1993 3.7871L25.9123 4.0176L25.956 3.62203Z" fill="#FF5900"/>
<path d="M26.0031 3.29776L25.1914 3.00269L25.1959 3.35674L25.9561 3.62184L26.0031 3.29776Z" fill="#FF3B00"/>
<path d="M24.3713 11.5932L25.1576 11.2959L25.0009 11.3792L24.2031 11.6827L24.3713 11.5932Z" fill="#00CCFF"/>
<path d="M24.5253 11.4573L25.3014 11.1697L25.1579 11.296L24.3716 11.5933L24.5253 11.4573Z" fill="#00DCFE"/>
<path d="M24.6602 11.2782L25.4275 11.0033L25.301 11.1696L24.5249 11.4572L24.6602 11.2782Z" fill="#09F0EE"/>
<path d="M24.7734 11.0606L25.5336 10.8013L25.4275 11.0035L24.6602 11.2784L24.7734 11.0606Z" fill="#1CFFDB"/>
<path d="M24.8616 10.8094L25.6165 10.5684L25.5336 10.8013L24.7734 11.0606L24.8616 10.8094Z" fill="#33FFC4"/>
<path d="M24.9225 10.5312L25.6742 10.3103L25.6167 10.5682L24.8618 10.8093L24.9225 10.5312Z" fill="#4DFFAA"/>
<path d="M24.9539 10.2332L25.7045 10.0342L25.674 10.3105L24.9224 10.5313L24.9539 10.2332Z" fill="#63FF94"/>
<path d="M24.9555 9.92287L25.7071 9.74658L25.7046 10.0341L24.9541 10.2332L24.9555 9.92287Z" fill="#7DFF7A"/>
<path d="M24.9263 9.60844L25.6811 9.45532L25.7068 9.74658L24.9552 9.92288L24.9263 9.60844Z" fill="#97FF60"/>
<path d="M24.8677 9.29814L25.6278 9.16797L25.6812 9.4553L24.9264 9.60842L24.8677 9.29814Z" fill="#B1FF46"/>
<path d="M24.7808 9.00016L25.5482 8.89209L25.6279 9.16787L24.8677 9.29804L24.7808 9.00016Z" fill="#C7FF30"/>
<path d="M24.6675 8.72273L25.444 8.63531L25.548 8.89219L24.7805 9.00025L24.6675 8.72273Z" fill="#DEFF19"/>
<path d="M23.646 7.84138L24.4987 7.81982L24.6739 7.84817L23.8348 7.87203L23.646 7.84138Z" fill="#FFCC00"/>
<path d="M24.5312 8.4731L25.3185 8.4043L25.444 8.63537L24.6675 8.72279L24.5312 8.4731Z" fill="#F1FC06"/>
<path d="M23.835 7.87201L24.6741 7.84814L24.8483 7.9233L24.0228 7.95325L23.835 7.87201Z" fill="#FFCC00"/>
<path d="M24.3755 8.25781L25.1747 8.20508L25.3184 8.40414L24.5312 8.47294L24.3755 8.25781Z" fill="#FFEA00"/>
<path d="M24.0225 7.95323L24.8479 7.92328L25.0164 8.0433L24.2044 8.08296L24.0225 7.95323Z" fill="#FFD000"/>
<path d="M24.2046 8.08294L25.0166 8.04327L25.1749 8.20498L24.3757 8.25771L24.2046 8.08294Z" fill="#FFDB00"/>
<path d="M24.353 6.05231L24.1333 6.16701L24.1668 6.87442L24.3744 6.72847L24.353 6.05231Z" fill="#BEFF39"/>
<path d="M24.3094 5.37756L24.0664 5.46092L24.1329 6.16706L24.3526 6.05236L24.3094 5.37756Z" fill="#F8F500"/>
<path d="M23.4148 2.04276L22.7095 1.97223L22.9163 2.07075L23.5517 2.13749L23.4148 2.04276Z" fill="#BB0000"/>
<path d="M24.2456 4.72272L23.9688 4.77555L24.0667 5.46092L24.3097 5.37756L24.2456 4.72272Z" fill="#FFB900"/>
<path d="M23.5514 2.13755L22.916 2.0708L23.1231 2.28409L23.6883 2.3418L23.5514 2.13755Z" fill="#BF0000"/>
<path d="M24.1618 4.10608L23.8413 4.13012L23.9682 4.77555L24.2451 4.72271L24.1618 4.10608Z" fill="#FF7E00"/>
<path d="M23.6888 2.34183L23.1235 2.28412L23.3251 2.60685L23.8219 2.6505L23.6888 2.34183Z" fill="#CD0000"/>
<path d="M24.0621 3.54512L23.6895 3.54297L23.8419 4.13028L24.1624 4.10625L24.0621 3.54512Z" fill="#FF4E00"/>
<path d="M23.822 2.65046L23.3252 2.60681L23.5156 3.03034L23.9476 3.05528L23.822 2.65046Z" fill="#E80000"/>
<path d="M23.9471 3.05534L23.5151 3.0304L23.689 3.54301L24.0616 3.54516L23.9471 3.05534Z" fill="#FF2200"/>
<path d="M23.8859 11.7628L24.5254 11.4573L24.3717 11.5932L23.7192 11.9106L23.8859 11.7628Z" fill="#00D0FF"/>
<path d="M24.0317 11.568L24.6601 11.2783L24.5248 11.4573L23.8853 11.7628L24.0317 11.568Z" fill="#00E4F8"/>
<path d="M24.1546 11.3308L24.7738 11.0604L24.6606 11.2782L24.0322 11.5679L24.1546 11.3308Z" fill="#16FFE1"/>
<path d="M24.2493 11.0574L24.8617 10.8094L24.7735 11.0606L24.1543 11.331L24.2493 11.0574Z" fill="#2CFFCA"/>
<path d="M24.3146 10.7542L24.9226 10.5313L24.8619 10.8095L24.2495 11.0574L24.3146 10.7542Z" fill="#46FFB1"/>
<path d="M24.3478 10.4291L24.954 10.2332L24.9225 10.5312L24.3145 10.7542L24.3478 10.4291Z" fill="#63FF94"/>
<path d="M24.348 10.0905L24.9553 9.92267L24.9539 10.233L24.3477 10.429L24.348 10.0905Z" fill="#7DFF7A"/>
<path d="M24.3154 9.74748L24.9263 9.6084L24.9553 9.92283L24.3481 10.0906L24.3154 9.74748Z" fill="#9AFF5D"/>
<path d="M24.2505 9.4088L24.8677 9.29816L24.9264 9.60843L24.3155 9.74751L24.2505 9.4088Z" fill="#B7FF40"/>
<path d="M24.1548 9.08336L24.7809 9.00012L24.8679 9.298L24.2506 9.40864L24.1548 9.08336Z" fill="#D1FF26"/>
<path d="M24.0308 8.78024L24.6679 8.7226L24.781 9.00011L24.1549 9.08335L24.0308 8.78024Z" fill="#E7FF0F"/>
<path d="M23.8813 8.50747L24.5316 8.4729L24.6678 8.72259L24.0306 8.78024L23.8813 8.50747Z" fill="#FBF100"/>
<path d="M23.7109 8.27253L24.3759 8.25787L24.5316 8.47301L23.8814 8.50758L23.7109 8.27253Z" fill="#FFDB00"/>
<path d="M19.4912 10.3393L19.5997 10.6925L19.4171 9.99802L19.3047 9.63013L19.4912 10.3393Z" fill="#00B4FF"/>
<path d="M19.2069 9.23203L19.3074 9.64312L19.4171 9.99802L19.2975 9.27846L19.1279 8.67731L19.2069 9.23203Z" fill="#16FFE1"/>
<path d="M19.1824 8.89494L19.2976 9.2783L19.2446 8.55126L19.1279 8.15204L19.1824 8.89494Z" fill="#56FFA0"/>
<path d="M19.1279 8.15201L19.2446 8.55123L19.2603 7.83489L19.1435 7.4198L19.1279 8.15201Z" fill="#97FF60"/>
<path d="M19.1436 7.41977L19.2604 7.83486L19.3452 7.14755L19.2295 6.71698L19.1436 7.41977Z" fill="#D4FF23"/>
<path d="M19.2295 6.71695L19.3451 7.14753L19.4977 6.50736L19.3846 6.06207L19.2295 6.71695Z" fill="#FFD700"/>
<path d="M19.3848 6.06215L19.4978 6.50744L19.715 5.93168L19.6058 5.4729L19.3848 6.06215Z" fill="#FF9400"/>
<path d="M19.606 5.47291L19.7151 5.93168L19.992 5.43632L19.888 4.96564L19.606 5.47291Z" fill="#FF5900"/>
<path d="M19.8877 4.96575L19.9917 5.43643L20.3216 5.03571L20.2239 4.55505L19.8877 4.96575Z" fill="#FF2500"/>
<path d="M24.5762 8.30896L24.5872 8.71538L24.6569 9.4618L24.6473 9.072L24.5762 8.30896Z" fill="#C1FF36"/>
<path d="M20.2241 4.5551L20.3218 5.03575L20.6964 4.74155L20.606 4.25323L20.2241 4.5551Z" fill="#DF0000"/>
<path d="M24.4331 7.55322L24.4471 7.97608L24.5875 8.71525L24.5764 8.30884L24.4331 7.55322Z" fill="#FFEA00"/>
<path d="M20.606 4.25311L20.6964 4.74142L21.1059 4.56282L21.0236 4.0694L20.606 4.25311Z" fill="#BB0000"/>
<path d="M24.2207 6.82593L24.239 7.26454L24.4469 7.97617L24.4329 7.55331L24.2207 6.82593Z" fill="#FFA700"/>
<path d="M21.0234 4.06937L21.1057 4.5628L21.5393 4.50575L21.4657 4.00995L21.0234 4.06937Z" fill="#9F0000"/>
<path d="M23.9453 6.14709L23.9692 6.60033L24.2394 7.26457L24.2211 6.82596L23.9453 6.14709Z" fill="#FF6C00"/>
<path d="M21.4658 4.00983L21.5394 4.50562L21.9851 4.57258L21.9205 4.07721L21.4658 4.00983Z" fill="#920000"/>
<path d="M23.6128 5.53589L23.6434 6.00212L23.9689 6.60019L23.945 6.14696L23.6128 5.53589Z" fill="#FF3400"/>
<path d="M21.9204 4.07745L21.985 4.57282L22.4305 4.76258L22.375 4.27054L21.9204 4.07745Z" fill="#960000"/>
<path d="M23.2334 5.00995L23.2716 5.48722L23.6436 6.00215L23.613 5.53591L23.2334 5.00995Z" fill="#F10800"/>
<path d="M22.375 4.27051L22.4305 4.76255L22.8634 5.07025L22.8167 4.58431L22.375 4.27051Z" fill="#A40000"/>
<path d="M22.8169 4.58429L22.8635 5.07023L23.2716 5.4874L23.2334 5.01013L22.8169 4.58429Z" fill="#C40000"/>
<path d="M19.0828 8.48779L19.1824 8.89504L19.1279 8.15214L19.0273 7.73535L19.0828 8.48779Z" fill="#53FFA4"/>
<path d="M19.0273 7.73533L19.1279 8.15212L19.1434 7.41992L19.0426 6.99353L19.0273 7.73533Z" fill="#97FF60"/>
<path d="M19.0425 6.99352L19.1433 7.41991L19.2293 6.71712L19.129 6.28131L19.0425 6.99352Z" fill="#D7FF1F"/>
<path d="M19.1289 6.28117L19.2292 6.71698L19.3843 6.0621L19.2853 5.61731L19.1289 6.28117Z" fill="#FFD300"/>
<path d="M19.2852 5.61741L19.3842 6.0622L19.6053 5.47292L19.5082 5.01978L19.2852 5.61741Z" fill="#FF9100"/>
<path d="M19.5083 5.01982L19.6054 5.47297L19.8874 4.9657L19.793 4.50513L19.5083 5.01982Z" fill="#FF5200"/>
<path d="M19.7935 4.50516L19.8879 4.96573L20.2241 4.55507L20.133 4.0882L19.7935 4.50516Z" fill="#FF1E00"/>
<path d="M20.1323 4.08818L20.2234 4.55505L20.6053 4.25315L20.5181 3.78131L20.1323 4.08818Z" fill="#D60000"/>
<path d="M20.5186 3.78124L20.6057 4.25308L21.0234 4.06936L20.9406 3.59406L20.5186 3.78124Z" fill="#AD0000"/>
<path d="M24.1733 6.38062L24.2209 6.82587L24.4331 7.55325L24.388 7.11727L24.1733 6.38062Z" fill="#FFA300"/>
<path d="M20.9404 3.594L21.0233 4.06931L21.4655 4.00987L21.3873 3.53271L20.9404 3.594Z" fill="#920000"/>
<path d="M23.894 5.69342L23.9447 6.14723L24.2206 6.82606L24.173 6.38081L23.894 5.69342Z" fill="#FF6400"/>
<path d="M21.3872 3.53271L21.4653 4.00987L21.92 4.07728L21.8468 3.59998L21.3872 3.53271Z" fill="#840000"/>
<path d="M23.5581 5.07471L23.6126 5.53603L23.9448 6.14713L23.8941 5.69332L23.5581 5.07471Z" fill="#FF2D00"/>
<path d="M21.8472 3.60004L21.9204 4.07734L22.375 4.27041L22.3067 3.7947L21.8472 3.60004Z" fill="#890000"/>
<path d="M23.1743 4.54242L23.233 5.01004L23.6126 5.53601L23.5582 5.07469L23.1743 4.54242Z" fill="#E40000"/>
<path d="M22.3066 3.79486L22.3749 4.27057L22.8166 4.58434L22.7532 4.1119L22.3066 3.79486Z" fill="#9B0000"/>
<path d="M22.7529 4.11182L22.8163 4.58426L23.2328 5.01013L23.1741 4.54251L22.7529 4.11182Z" fill="#BB0000"/>
<path d="M19.1527 8.82128L19.207 9.23203L19.083 8.4878L19.0283 8.07416L19.1527 8.82128Z" fill="#13FCE4"/>
<path d="M19.4174 9.99799L19.5219 10.3203L19.406 9.62218L19.2979 9.27844L19.4174 9.99799Z" fill="#19FFDE"/>
<path d="M19.2976 9.2784L19.4058 9.62213L19.3547 8.91697L19.2446 8.55133L19.2976 9.2784Z" fill="#56FFA0"/>
<path d="M19.2446 8.55134L19.3547 8.91698L19.3704 8.22248L19.2603 7.83502L19.2446 8.55134Z" fill="#94FF63"/>
<path d="M19.2603 7.83494L19.3703 8.2224L19.4531 7.55634L19.345 7.14764L19.2603 7.83494Z" fill="#D1FF26"/>
<path d="M19.3452 7.14749L19.4533 7.55619L19.6019 6.93611L19.4978 6.50732L19.3452 7.14749Z" fill="#FFDB00"/>
<path d="M19.4976 6.50743L19.6017 6.93621L19.813 6.3788L19.7147 5.93164L19.4976 6.50743Z" fill="#FF9C00"/>
<path d="M19.7148 5.9318L19.8131 6.37896L20.0824 5.89972L19.9917 5.43646L19.7148 5.9318Z" fill="#FF6000"/>
<path d="M19.9917 5.43649L20.0823 5.89975L20.403 5.51238L20.3216 5.03577L19.9917 5.43649Z" fill="#FF3000"/>
<path d="M24.5872 8.71545L24.5444 9.08552L24.6123 9.80897L24.6569 9.46188L24.5872 8.71545Z" fill="#C1FF36"/>
<path d="M20.3213 5.03566L20.4027 5.51227L20.7666 5.22821L20.6959 4.74146L20.3213 5.03566Z" fill="#F10800"/>
<path d="M24.447 7.97626L24.4082 8.36906L24.5446 9.08549L24.5873 8.71543L24.447 7.97626Z" fill="#FBF100"/>
<path d="M20.6963 4.74147L20.767 5.22822L21.1648 5.05624L21.1059 4.56287L20.6963 4.74147Z" fill="#C80000"/>
<path d="M24.2393 7.26453L24.2065 7.67924L24.4085 8.36897L24.4472 7.97616L24.2393 7.26453Z" fill="#FFAE00"/>
<path d="M21.106 4.56291L21.1649 5.05628L21.5859 5.00206L21.5395 4.50586L21.106 4.56291Z" fill="#AD0000"/>
<path d="M23.9688 6.60046L23.9438 7.03555L24.2062 7.67939L24.239 7.26468L23.9688 6.60046Z" fill="#FF7300"/>
<path d="M21.5396 4.50568L21.5859 5.00188L22.0186 5.06773L21.9852 4.57263L21.5396 4.50568Z" fill="#A40000"/>
<path d="M23.6433 6.00226L23.6279 6.45558L23.9439 7.03541L23.9688 6.60032L23.6433 6.00226Z" fill="#FF3F00"/>
<path d="M21.9854 4.57269L22.0187 5.0678L22.4511 5.25253L22.4308 4.76246L21.9854 4.57269Z" fill="#A40000"/>
<path d="M23.2715 5.4873L23.2671 5.95617L23.6281 6.45555L23.6435 6.00223L23.2715 5.4873Z" fill="#FF1300"/>
<path d="M22.4307 4.76257L22.4509 5.25265L22.8711 5.55151L22.8635 5.07025L22.4307 4.76257Z" fill="#B60000"/>
<path d="M22.8633 5.07007L22.8708 5.55133L23.2669 5.95613L23.2714 5.48726L22.8633 5.07007Z" fill="#D10000"/>
<path d="M19.5996 10.6924L19.6986 10.9943L19.5214 10.3202L19.417 9.99792L19.5996 10.6924Z" fill="#00BCFF"/>
<path d="M19.6986 10.9941L19.7756 11.233L19.6052 10.5847L19.5215 10.3201L19.6986 10.9941Z" fill="#00C4FF"/>
<path d="M19.5216 10.3202L19.6053 10.5848L19.4941 9.9135L19.4058 9.62207L19.5216 10.3202Z" fill="#1CFFDB"/>
<path d="M19.4056 9.62203L19.4939 9.91346L19.445 9.23573L19.3545 8.91687L19.4056 9.62203Z" fill="#56FFA0"/>
<path d="M19.3545 8.91691L19.445 9.23576L19.4604 8.56855L19.3702 8.22241L19.3545 8.91691Z" fill="#94FF63"/>
<path d="M19.3701 8.22252L19.4604 8.56865L19.5404 7.92906L19.4529 7.55646L19.3701 8.22252Z" fill="#CEFF29"/>
<path d="M24.403 11.8313L24.3037 12.043L24.1128 12.5878L24.2043 12.3983L24.403 11.8313Z" fill="#00B0FF"/>
<path d="M19.4531 7.55643L19.5406 7.92903L19.684 7.33388L19.6017 6.93634L19.4531 7.55643Z" fill="#FFE200"/>
<path d="M24.5399 11.1998L24.435 11.4363L24.3037 12.0428L24.4031 11.8312L24.5399 11.1998Z" fill="#0CF4EB"/>
<path d="M19.6016 6.93631L19.6838 7.33386L19.8874 6.79919L19.8129 6.37891L19.6016 6.93631Z" fill="#FFA300"/>
<path d="M24.6107 10.5199L24.5027 10.7831L24.4351 11.4363L24.54 11.1998L24.6107 10.5199Z" fill="#46FFB1"/>
<path d="M19.813 6.37886L19.8875 6.79915L20.1468 6.33977L20.0822 5.8996L19.813 6.37886Z" fill="#FF6C00"/>
<path d="M24.6123 9.80902L24.5038 10.1004L24.5024 10.7833L24.6105 10.52L24.6123 9.80902Z" fill="#80FF77"/>
<path d="M20.082 5.89976L20.1466 6.33993L20.4551 5.96894L20.4027 5.51239L20.082 5.89976Z" fill="#FF3B00"/>
<path d="M24.5447 9.08545L24.4385 9.40555L24.5041 10.1003L24.6126 9.8089L24.5447 9.08545Z" fill="#BEFF39"/>
<path d="M20.4028 5.51222L20.4553 5.96877L20.8054 5.69707L20.7668 5.22815L20.4028 5.51222Z" fill="#FF1300"/>
<path d="M24.408 8.36902L24.3066 8.71764L24.4381 9.40555L24.5444 9.08545L24.408 8.36902Z" fill="#F8F500"/>
<path d="M20.7671 5.22814L20.8057 5.69706L21.1883 5.53299L21.1649 5.05615L20.7671 5.22814Z" fill="#DA0000"/>
<path d="M24.2061 7.67926L24.1123 8.05536L24.3067 8.71761L24.408 8.36899L24.2061 7.67926Z" fill="#FFB600"/>
<path d="M21.1646 5.05622L21.188 5.53306L21.5927 5.482L21.5855 5.00201L21.1646 5.05622Z" fill="#C40000"/>
<path d="M23.9437 7.0354L23.8599 7.43716L24.1123 8.05537L24.2061 7.67927L23.9437 7.0354Z" fill="#FF7E00"/>
<path d="M21.5854 5.00189L21.5927 5.48188L22.0087 5.546L22.0181 5.06775L21.5854 5.00189Z" fill="#B60000"/>
<path d="M23.6279 6.45575L23.5562 6.88054L23.86 7.43734L23.9439 7.03558L23.6279 6.45575Z" fill="#FF4A00"/>
<path d="M22.0183 5.06781L22.0088 5.54607L22.4245 5.72417L22.4507 5.25256L22.0183 5.06781Z" fill="#BB0000"/>
<path d="M23.2668 5.95636L23.209 6.40083L23.5561 6.88053L23.6278 6.45574L23.2668 5.95636Z" fill="#FF1E00"/>
<path d="M22.4506 5.25244L22.4243 5.72405L22.8281 6.01155L22.8707 5.55129L22.4506 5.25244Z" fill="#C80000"/>
<path d="M22.8706 5.55151L22.8281 6.01177L23.2089 6.40079L23.2667 5.95631L22.8706 5.55151Z" fill="#E40000"/>
<path d="M23.4745 11.5532L24.3234 11.2601L24.1629 11.1215L23.3013 11.4037L23.4745 11.5532Z" fill="#00C4FF"/>
<path d="M23.3013 11.4039L24.1629 11.1217L24.0142 10.9449L23.1406 11.2132L23.3013 11.4039Z" fill="#00D0FF"/>
<path d="M23.1407 11.2131L24.0143 10.9449L23.8811 10.7344L22.9966 10.9862L23.1407 11.2131Z" fill="#00E0FB"/>
<path d="M22.9965 10.9863L23.881 10.7345L23.7669 10.4956L22.8726 10.7287L22.9965 10.9863Z" fill="#0FF8E7"/>
<path d="M22.744 11.8656L23.4745 11.5533L23.3014 11.4037L22.5552 11.7025L22.744 11.8656Z" fill="#00B4FF"/>
<path d="M22.5552 11.7027L23.3014 11.4039L23.1408 11.2133L22.3799 11.4948L22.5552 11.7027Z" fill="#00C0FF"/>
<path d="M22.9416 11.9801L23.6561 11.6582L23.4747 11.5534L22.7441 11.8657L22.9416 11.9801Z" fill="#00A8FF"/>
<path d="M22.8725 10.7285L23.7668 10.4954L23.6745 10.2341L22.772 10.4466L22.8725 10.7285Z" fill="#23FFD4"/>
<path d="M22.3798 11.4949L23.1406 11.2133L22.9965 10.9863L22.2222 11.2475L22.3798 11.4949Z" fill="#00D4FF"/>
<path d="M23.1427 12.0428L23.8408 11.7155L23.6558 11.6582L22.9414 11.9801L23.1427 12.0428Z" fill="#00A8FF"/>
<path d="M22.2222 11.2475L22.9966 10.9863L22.8727 10.7287L22.0864 10.9668L22.2222 11.2475Z" fill="#06ECF1"/>
<path d="M22.7718 10.4467L23.6744 10.2342L23.6063 9.95685L22.6973 10.1477L22.7718 10.4467Z" fill="#39FFBE"/>
<path d="M23.3426 12.052L24.0247 11.7237L23.8407 11.7154L23.1426 12.0427L23.3426 12.052Z" fill="#00A8FF"/>
<path d="M22.0861 10.9666L22.8724 10.7285L22.7718 10.4467L21.9756 10.6595L22.0861 10.9666Z" fill="#1CFFDB"/>
<path d="M22.6975 10.1477L23.6066 9.95686L23.5646 9.67059L22.6509 9.83894L22.6975 10.1477Z" fill="#53FFA4"/>
<path d="M21.9755 10.6597L22.7717 10.4469L22.6972 10.1478L21.8931 10.3338L21.9755 10.6597Z" fill="#36FFC1"/>
<path d="M22.6507 9.83906L23.5644 9.67072L23.5496 9.38275L22.6333 9.52844L22.6507 9.83906Z" fill="#6DFF8A"/>
<path d="M21.8934 10.3337L22.6975 10.1478L22.6509 9.83905L21.8413 9.99722L21.8934 10.3337Z" fill="#50FFA7"/>
<path d="M22.6333 9.52839L23.5496 9.3827L23.5627 9.1004L22.6458 9.22382L22.6333 9.52839Z" fill="#87FF70"/>
<path d="M21.8411 9.99711L22.6507 9.83894L22.6334 9.52832L21.8208 9.65847L21.8411 9.99711Z" fill="#6AFF8D"/>
<path d="M22.646 9.22382L23.5629 9.10041L23.6034 8.83105L22.6882 8.93317L22.646 9.22382Z" fill="#A0FF56"/>
<path d="M21.8208 9.65842L22.6334 9.52828L22.6459 9.22369L21.8329 9.32629L21.8208 9.65842Z" fill="#87FF70"/>
<path d="M22.688 8.9331L23.6032 8.83098L23.6704 8.5816L22.7589 8.66395L22.688 8.9331Z" fill="#B7FF40"/>
<path d="M21.833 9.32641L22.646 9.22382L22.6881 8.93317L21.8774 9.00938L21.833 9.32641Z" fill="#A4FF53"/>
<path d="M22.7593 8.66405L23.6708 8.58171L23.763 8.35889L22.8572 8.42351L22.7593 8.66405Z" fill="#D1FF26"/>
<path d="M21.8774 9.00937L22.6881 8.93315L22.759 8.664L21.9533 8.71571L21.8774 9.00937Z" fill="#BEFF39"/>
<path d="M22.8569 8.42335L23.7627 8.35873L23.8776 8.1684L22.9795 8.21784L22.8569 8.42335Z" fill="#E4FF13"/>
<path d="M21.9531 8.71578L22.7589 8.66407L22.8569 8.42352L22.0585 8.45325L21.9531 8.71578Z" fill="#D7FF1F"/>
<path d="M22.0586 8.45313L22.8569 8.4234L22.9795 8.2179L22.191 8.22878L22.0586 8.45313Z" fill="#EEFF09"/>
<path d="M22.1909 8.22883L22.9795 8.21796L23.1236 8.05306L22.347 8.04877L22.1909 8.22883Z" fill="#FFEA00"/>
<path d="M22.3472 8.04883L23.1238 8.05312L23.2858 7.93338L22.5229 7.91803L22.3472 8.04883Z" fill="#FFD700"/>
<path d="M21.2956 13.6831L21.2566 13.6534L20.9185 13.361L20.938 13.3738L21.2956 13.6831Z" fill="#0000FF"/>
<path d="M20.9381 13.3738L20.9185 13.361L20.6035 12.9894L20.605 12.9808L20.9381 13.3738Z" fill="#0010FF"/>
<path d="M21.6693 13.9012L21.6098 13.8597L21.2568 13.6535L21.2959 13.6832L21.6693 13.9012Z" fill="#0000F1"/>
<path d="M20.6049 12.9808L20.6034 12.9894L20.3192 12.5476L20.3042 12.5134L20.6049 12.9808Z" fill="#0038FF"/>
<path d="M22.049 14.0226L21.9687 13.9744L21.6094 13.8597L21.6688 13.9012L22.049 14.0226Z" fill="#0000E8"/>
<path d="M20.3042 12.5133L20.3192 12.5474L20.0727 12.0458L20.0435 11.9826L20.3042 12.5133Z" fill="#0064FF"/>
<path d="M22.4272 14.044L22.3261 13.9945L21.9692 13.9744L22.0495 14.0227L22.4272 14.044Z" fill="#0000ED"/>
<path d="M20.0434 11.9827L20.0727 12.0459L19.8701 11.4966L19.8291 11.4014L20.0434 11.9827Z" fill="#0098FF"/>
<path d="M22.7928 13.9642L22.6714 13.919L22.3257 13.9945L22.4267 14.044L22.7928 13.9642Z" fill="#0000FF"/>
<path d="M19.8293 11.4016L19.8704 11.4967L19.717 10.9129L19.667 10.7836L19.8293 11.4016Z" fill="#00D4FF"/>
<path d="M23.1384 13.7844L22.9978 13.749L22.6719 13.9188L22.7932 13.964L23.1384 13.7844Z" fill="#0008FF"/>
<path d="M19.667 10.7835L19.717 10.9127L19.617 10.3087L19.561 10.1439L19.667 10.7835Z" fill="#26FFD1"/>
<path d="M23.4539 13.5088L23.2955 13.4884L22.9976 13.749L23.1382 13.7845L23.4539 13.5088Z" fill="#002CFF"/>
<path d="M19.561 10.1439L19.617 10.3088L19.5734 9.69941L19.5146 9.49841L19.561 10.1439Z" fill="#5AFF9D"/>
<path d="M23.7319 13.1429L23.5576 13.1427L23.2954 13.4884L23.4538 13.5088L23.7319 13.1429Z" fill="#0054FF"/>
<path d="M19.5146 9.49836L19.5734 9.69936L19.5877 9.10002L19.5296 8.86316L19.5146 9.49836Z" fill="#90FF66"/>
<path d="M23.9649 12.6953L23.777 12.7199L23.5576 13.1428L23.7319 13.143L23.9649 12.6953Z" fill="#0088FF"/>
<path d="M19.5293 8.86318L19.5874 9.10004L19.6599 8.5261L19.6058 8.25458L19.5293 8.86318Z" fill="#C7FF30"/>
<path d="M24.1465 12.1763L23.948 12.2299L23.7773 12.7199L23.9652 12.6953L24.1465 12.1763Z" fill="#00C4FF"/>
<path d="M19.6064 8.25459L19.6605 8.52611L19.7899 7.99266L19.7433 7.6886L19.6064 8.25459Z" fill="#FBF100"/>
<path d="M24.2709 11.5986L24.0646 11.6847L23.9478 12.2298L24.1463 12.1762L24.2709 11.5986Z" fill="#16FFE1"/>
<path d="M19.7432 7.68852L19.7898 7.99258L19.9733 7.51395L19.9374 7.18036L19.7432 7.68852Z" fill="#FFB900"/>
<path d="M24.3345 10.9771L24.124 11.0982L24.0645 11.6848L24.2707 11.5988L24.3345 10.9771Z" fill="#4DFFAA"/>
<path d="M19.937 7.1805L19.9729 7.51409L20.2063 7.10343L20.1842 6.7442L19.937 7.1805Z" fill="#FF8600"/>
<path d="M24.3353 10.3271L24.124 10.4853L24.124 11.0982L24.3346 10.977L24.3353 10.3271Z" fill="#80FF77"/>
<path d="M20.1846 6.74415L20.2067 7.10338L20.4843 6.7723L20.4787 6.39209L20.1846 6.74415Z" fill="#FF5D00"/>
<path d="M24.2723 9.66626L24.064 9.86217L24.1241 10.4854L24.3354 10.3273L24.2723 9.66626Z" fill="#B7FF40"/>
<path d="M20.4785 6.39219L20.4842 6.7724L20.7989 6.53054L20.8121 6.1347L20.4785 6.39219Z" fill="#FF3800"/>
<path d="M24.1467 9.01172L23.9448 9.24518L24.064 9.86203L24.2724 9.66612L24.1467 9.01172Z" fill="#EBFF0C"/>
<path d="M20.812 6.13471L20.7988 6.53055L21.1425 6.38522L21.1764 5.97961L20.812 6.13471Z" fill="#FF1A00"/>
<path d="M23.9613 8.38177L23.7695 8.65149L23.945 9.24513L24.1468 9.01167L23.9613 8.38177Z" fill="#FFC800"/>
<path d="M21.1764 5.97948L21.1426 6.38509L21.506 6.34096L21.5618 5.93182L21.1764 5.97948Z" fill="#F10800"/>
<path d="M23.7205 7.79401L23.542 8.0976L23.7693 8.65169L23.9611 8.38197L23.7205 7.79401Z" fill="#FF9400"/>
<path d="M21.5617 5.93182L21.5059 6.34096L21.8793 6.39984L21.9577 5.9936L21.5617 5.93182Z" fill="#E80000"/>
<path d="M23.4308 7.26428L23.2686 7.59843L23.5418 8.09755L23.7203 7.79395L23.4308 7.26428Z" fill="#FF6800"/>
<path d="M21.9578 5.99365L21.8794 6.39989L22.2525 6.56064L22.3535 6.1637L21.9578 5.99365Z" fill="#ED0400"/>
<path d="M23.1006 6.80768L22.957 7.16803L23.2689 7.59817L23.4311 7.26403L23.1006 6.80768Z" fill="#FF4300"/>
<path d="M22.3534 6.16357L22.2524 6.56051L22.615 6.81897L22.7379 6.43747L22.3534 6.16357Z" fill="#FA0F00"/>
<path d="M22.7382 6.4375L22.6152 6.81901L22.9571 7.16815L23.1007 6.80779L22.7382 6.4375Z" fill="#FF2200"/>
<path d="M19.7753 11.2331L19.829 11.4014L19.6667 10.7835L19.605 10.5848L19.7753 11.2331Z" fill="#00CCFF"/>
<path d="M19.6049 10.5849L19.6666 10.7836L19.5607 10.144L19.4937 9.91364L19.6049 10.5849Z" fill="#1FFFD7"/>
<path d="M23.5759 13.4417L23.4539 13.5089L23.1382 13.7846L23.2445 13.731L23.5759 13.4417Z" fill="#0018FF"/>
<path d="M19.4937 9.91364L19.5607 10.144L19.5143 9.49847L19.4448 9.2359L19.4937 9.91364Z" fill="#5AFF9D"/>
<path d="M23.8676 13.0577L23.7317 13.143L23.4536 13.5088L23.5756 13.4416L23.8676 13.0577Z" fill="#0044FF"/>
<path d="M19.4448 9.23569L19.5143 9.49826L19.5293 8.86306L19.4602 8.56848L19.4448 9.23569Z" fill="#94FF63"/>
<path d="M24.1127 12.5878L23.9649 12.6953L23.7319 13.1431L23.8679 13.0578L24.1127 12.5878Z" fill="#007CFF"/>
<path d="M19.4604 8.56842L19.5295 8.86301L19.606 8.25442L19.5405 7.92883L19.4604 8.56842Z" fill="#CAFF2C"/>
<path d="M24.3036 12.0428L24.1462 12.1762L23.9648 12.6952L24.1127 12.5876L24.3036 12.0428Z" fill="#00B8FF"/>
<path d="M19.5405 7.92895L19.6061 8.25454L19.7429 7.68855L19.6838 7.3338L19.5405 7.92895Z" fill="#FFEA00"/>
<path d="M24.4346 11.4362L24.2705 11.5986L24.146 12.1762L24.3033 12.0428L24.4346 11.4362Z" fill="#0FF8E7"/>
<path d="M19.6836 7.33392L19.7427 7.68867L19.9369 7.1805L19.8872 6.79926L19.6836 7.33392Z" fill="#FFAE00"/>
<path d="M24.5022 10.7831L24.3343 10.977L24.2705 11.5987L24.4346 11.4362L24.5022 10.7831Z" fill="#49FFAD"/>
<path d="M19.8872 6.79905L19.9369 7.18029L20.1841 6.744L20.1465 6.33966L19.8872 6.79905Z" fill="#FF7A00"/>
<path d="M24.5038 10.1003L24.3352 10.3271L24.3345 10.977L24.5024 10.7832L24.5038 10.1003Z" fill="#80FF77"/>
<path d="M20.1465 6.33986L20.1841 6.74419L20.4782 6.39214L20.4551 5.96887L20.1465 6.33986Z" fill="#FF4A00"/>
<path d="M24.438 9.40558L24.272 9.66614L24.335 10.3271L24.5036 10.1003L24.438 9.40558Z" fill="#BAFF3C"/>
<path d="M20.4551 5.96879L20.4782 6.39206L20.8118 6.13456L20.8052 5.69708L20.4551 5.96879Z" fill="#FF2500"/>
<path d="M24.3067 8.71753L24.1465 9.01159L24.2722 9.66598L24.4382 9.40542L24.3067 8.71753Z" fill="#F1FC06"/>
<path d="M20.8052 5.69716L20.8117 6.13464L21.1761 5.97955L21.1878 5.53308L20.8052 5.69716Z" fill="#F10800"/>
<path d="M24.1123 8.05548L23.9609 8.38188L24.1464 9.01179L24.3066 8.71773L24.1123 8.05548Z" fill="#FFC100"/>
<path d="M21.188 5.53303L21.1763 5.9795L21.5617 5.93184L21.5927 5.48199L21.188 5.53303Z" fill="#DA0000"/>
<path d="M23.8598 7.43707L23.7202 7.7937L23.9609 8.38168L24.1122 8.05528L23.8598 7.43707Z" fill="#FF8900"/>
<path d="M21.5926 5.48187L21.5615 5.93172L21.9575 5.9935L22.0086 5.54599L21.5926 5.48187Z" fill="#CD0000"/>
<path d="M23.5558 6.88049L23.4307 7.26428L23.7202 7.79392L23.8597 7.43729L23.5558 6.88049Z" fill="#FF5900"/>
<path d="M22.0086 5.54602L21.9575 5.99353L22.3532 6.16355L22.4242 5.72414L22.0086 5.54602Z" fill="#D10000"/>
<path d="M23.2087 6.40082L23.1001 6.80793L23.4306 7.26431L23.5558 6.88052L23.2087 6.40082Z" fill="#FF3000"/>
<path d="M22.424 5.7243L22.353 6.16372L22.7375 6.43762L22.8279 6.01178L22.424 5.7243Z" fill="#DF0000"/>
<path d="M22.8277 6.01154L22.7373 6.43737L23.0998 6.80767L23.2085 6.40056L22.8277 6.01154Z" fill="#FA0F00"/>
<path d="M21.8828 2.02917L21.4146 2.1745L21.7449 2.1442L22.1506 2.00653L21.8828 2.02917Z" fill="#9F0000"/>
<path d="M22.1508 2.00635L21.7451 2.14401L22.0854 2.23842L22.4265 2.10486L22.1508 2.00635Z" fill="#960000"/>
<path d="M23.8308 4.89581L23.8169 5.07769L23.9781 5.80527L23.9617 5.60571L23.8308 4.89581Z" fill="#FFAB00"/>
<path d="M22.4266 2.10492L22.0854 2.23848L22.4262 2.45586L22.7028 2.32273L22.4266 2.10492Z" fill="#960000"/>
<path d="M23.6612 4.22772L23.6079 4.39399L23.8167 5.07765L23.8307 4.89577L23.6612 4.22772Z" fill="#FF6C00"/>
<path d="M22.7029 2.32275L22.4263 2.45589L22.7579 2.79078L22.9718 2.65441L22.7029 2.32275Z" fill="#A80000"/>
<path d="M23.4575 3.62054L23.3569 3.77376L23.6078 4.39414L23.6611 4.22787L23.4575 3.62054Z" fill="#FF3400"/>
<path d="M22.9712 2.65454L22.7573 2.79091L23.0706 3.23428L23.2252 3.09114L22.9712 2.65454Z" fill="#C80000"/>
<path d="M23.2254 3.09119L23.0708 3.23433L23.3569 3.77382L23.4575 3.6206L23.2254 3.09119Z" fill="#F10800"/>
<path d="M19.0279 8.07398L19.0826 8.48762L19.0272 7.73518L18.9722 7.31848L19.0279 8.07398Z" fill="#53FFA4"/>
<path d="M18.9722 7.31859L19.0272 7.73529L19.0425 6.99349L18.9873 6.57361L18.9722 7.31859Z" fill="#97FF60"/>
<path d="M18.9873 6.57363L19.0425 6.99352L19.129 6.28131L19.0737 5.85822L18.9873 6.57363Z" fill="#D7FF1F"/>
<path d="M19.0737 5.85811L19.129 6.2812L19.2854 5.61731L19.2301 5.19104L19.0737 5.85811Z" fill="#FFD000"/>
<path d="M19.23 5.19115L19.2852 5.61742L19.5082 5.01982L19.4532 4.59052L19.23 5.19115Z" fill="#FF8D00"/>
<path d="M19.4531 4.59034L19.5081 5.01965L19.7928 4.50495L19.7382 4.07281L19.4531 4.59034Z" fill="#FF4E00"/>
<path d="M19.7383 4.07307L19.7929 4.50521L20.1325 4.08821L20.0783 3.65356L19.7383 4.07307Z" fill="#FF1A00"/>
<path d="M20.0786 3.65348L20.1328 4.08813L20.5186 3.78127L20.465 3.34448L20.0786 3.65348Z" fill="#D10000"/>
<path d="M24.3423 6.68689L24.433 7.56429L24.5763 8.32448L24.4877 7.45525L24.3423 6.68689Z" fill="#FFE600"/>
<path d="M20.4648 3.34459L20.5184 3.78138L20.9405 3.59419L20.8876 3.1557L20.4648 3.34459Z" fill="#A80000"/>
<path d="M24.127 5.94739L24.1733 6.38068L24.388 7.11737L24.3422 6.68682L24.127 5.94739Z" fill="#FF9F00"/>
<path d="M20.8877 3.1556L20.9406 3.59409L21.3875 3.53281L21.3354 3.09308L20.8877 3.1556Z" fill="#8D0000"/>
<path d="M23.8472 5.25763L23.8942 5.69329L24.1732 6.38068L24.1268 5.94739L23.8472 5.25763Z" fill="#FF6000"/>
<path d="M21.335 3.0932L21.3871 3.53294L21.8467 3.6002L21.7954 3.1598L21.335 3.0932Z" fill="#800000"/>
<path d="M23.5103 4.63721L23.5581 5.07483L23.8941 5.69344L23.847 5.25778L23.5103 4.63721Z" fill="#FF2900"/>
<path d="M21.7959 3.15967L21.8472 3.60007L22.3067 3.79472L22.2563 3.35417L21.7959 3.15967Z" fill="#800000"/>
<path d="M23.1255 4.10345L23.1741 4.54258L23.558 5.07482L23.5102 4.63719L23.1255 4.10345Z" fill="#DF0000"/>
<path d="M22.2563 3.35413L22.3068 3.79467L22.7534 4.11171L22.7038 3.6716L22.2563 3.35413Z" fill="#920000"/>
<path d="M22.7036 3.67169L22.7531 4.1118L23.1743 4.54252L23.1256 4.10339L22.7036 3.67169Z" fill="#B20000"/>
<path d="M24.2441 6.33057L24.3417 6.68693L24.4872 7.45529L24.3843 7.09846L24.2441 6.33057Z" fill="#FFE600"/>
<path d="M21.103 2.32736L20.7368 2.58665L21.1004 2.42046L21.4145 2.17426L21.103 2.32736Z" fill="#B20000"/>
<path d="M21.4148 2.17453L21.1006 2.42074L21.486 2.37959L21.7452 2.14423L21.4148 2.17453Z" fill="#960000"/>
<path d="M21.745 2.14417L21.4858 2.37953L21.8826 2.46563L22.0853 2.23858L21.745 2.14417Z" fill="#890000"/>
<path d="M22.0855 2.23834L21.8828 2.46539L22.2799 2.67716L22.4262 2.45572L22.0855 2.23834Z" fill="#890000"/>
<path d="M23.3569 3.77368L23.3637 3.99527L23.6555 4.62116L23.6078 4.39406L23.3569 3.77368Z" fill="#FF2D00"/>
<path d="M22.4261 2.45599L22.2798 2.67744L22.6662 3.00956L22.7577 2.79089L22.4261 2.45599Z" fill="#9B0000"/>
<path d="M23.0708 3.23419L23.0308 3.45292L23.3637 3.99528L23.3569 3.77369L23.0708 3.23419Z" fill="#E80000"/>
<path d="M22.7576 2.79089L22.666 3.00956L23.0308 3.45299L23.0709 3.23426L22.7576 2.79089Z" fill="#BB0000"/>
<path d="M23.6079 4.39417L23.6556 4.62127L23.8982 5.3129L23.8167 5.07782L23.6079 4.39417Z" fill="#FF6400"/>
<path d="M20.4047 2.87239L20.1494 3.23986L20.5199 2.93874L20.7367 2.58691L20.4047 2.87239Z" fill="#D10000"/>
<path d="M20.7368 2.58686L20.52 2.93869L20.9255 2.7576L21.1004 2.42065L20.7368 2.58686Z" fill="#A80000"/>
<path d="M21.1002 2.42072L20.9253 2.75767L21.3549 2.70271L21.4856 2.37958L21.1002 2.42072Z" fill="#8D0000"/>
<path d="M21.4857 2.37939L21.355 2.70253L21.7969 2.77621L21.8825 2.46551L21.4857 2.37939Z" fill="#800000"/>
<path d="M21.8824 2.46552L21.7969 2.77622L22.239 2.97726L22.2796 2.67728L21.8824 2.46552Z" fill="#840000"/>
<path d="M23.3638 3.99536L23.4443 4.27515L23.7681 4.89876L23.6556 4.62127L23.3638 3.99536Z" fill="#FF2900"/>
<path d="M22.2799 2.67731L22.2393 2.97729L22.6691 3.30057L22.6662 3.00943L22.2799 2.67731Z" fill="#920000"/>
<path d="M23.0308 3.45294L23.0743 3.73731L23.4442 4.2751L23.3637 3.9953L23.0308 3.45294Z" fill="#DF0000"/>
<path d="M22.666 3.00934L22.6689 3.30048L23.0744 3.73715L23.0308 3.45278L22.666 3.00934Z" fill="#B20000"/>
<path d="M20.113 3.26801L19.8237 3.65142L20.1496 3.23972L20.4049 2.87225L20.113 3.26801Z" fill="#FF1A00"/>
<path d="M19.3365 4.75508L19.23 5.19103L19.4532 4.59039L19.5504 4.16144L19.3365 4.75508Z" fill="#FF8D00"/>
<path d="M19.5502 4.16153L19.4531 4.59049L19.7382 4.07299L19.8234 3.65149L19.5502 4.16153Z" fill="#FF4E00"/>
<path d="M19.8235 3.65151L19.7383 4.07301L20.0783 3.65351L20.1494 3.23981L19.8235 3.65151Z" fill="#FF1600"/>
<path d="M20.1492 3.23971L20.0781 3.65341L20.4645 3.34441L20.5197 2.9386L20.1492 3.23971Z" fill="#D10000"/>
<path d="M20.52 2.9386L20.4648 3.34441L20.8875 3.15551L20.9254 2.75751L20.52 2.9386Z" fill="#A40000"/>
<path d="M20.9255 2.75771L20.8877 3.15572L21.3354 3.09322L21.3551 2.70276L20.9255 2.75771Z" fill="#890000"/>
<path d="M23.7681 4.89874L23.8471 5.25777L24.1268 5.94753L24.0372 5.59041L23.7681 4.89874Z" fill="#FF6000"/>
<path d="M21.3551 2.70251L21.3354 3.09298L21.7959 3.15956L21.7971 2.7762L21.3551 2.70251Z" fill="#800000"/>
<path d="M23.4443 4.27515L23.5105 4.63718L23.8473 5.25778L23.7682 4.89876L23.4443 4.27515Z" fill="#FF2900"/>
<path d="M21.7971 2.77618L21.7959 3.15954L22.2563 3.35406L22.2392 2.97723L21.7971 2.77618Z" fill="#800000"/>
<path d="M23.0742 3.73737L23.1255 4.10341L23.5102 4.63715L23.444 4.27512L23.0742 3.73737Z" fill="#DF0000"/>
<path d="M22.2388 2.97736L22.2559 3.35418L22.7034 3.67165L22.6686 3.30063L22.2388 2.97736Z" fill="#920000"/>
<path d="M22.6689 3.30072L22.7038 3.67174L23.1258 4.10344L23.0745 3.73739L22.6689 3.30072Z" fill="#B20000"/>
<path d="M26.4226 7.71362L25.7769 7.70825L25.7878 8.19373L26.447 8.16759L26.4226 7.71362Z" fill="#23FFD4"/>
<path d="M26.4136 7.22523L25.7739 7.18384L25.7771 7.70839L26.4228 7.71375L26.4136 7.22523Z" fill="#53FFA4"/>
<path d="M26.4198 6.7146L25.7787 6.63361L25.7739 7.18367L26.4136 7.22507L26.4198 6.7146Z" fill="#80FF77"/>
<path d="M26.4414 6.1956L25.7915 6.07251L25.7788 6.63359L26.4199 6.71458L26.4414 6.1956Z" fill="#ADFF49"/>
<path d="M26.478 5.68212L25.8118 5.51562L25.7915 6.07269L26.4414 6.19578L26.478 5.68212Z" fill="#DBFF1C"/>
<path d="M26.5282 5.18766L25.8389 4.97772L25.8115 5.51562L26.4777 5.68211L26.5282 5.18766Z" fill="#FFE200"/>
<path d="M27.1263 3.24979L26.1504 2.83124L26.1016 2.89725L27.0308 3.30269L27.1263 3.24979Z" fill="#FF3800"/>
<path d="M26.5915 4.72587L25.8727 4.47369L25.8389 4.97767L26.5282 5.18761L26.5915 4.72587Z" fill="#FFB600"/>
<path d="M27.0306 3.30265L26.1013 2.89722L26.0518 3.05409L26.9342 3.43973L27.0306 3.30265Z" fill="#FF3800"/>
<path d="M26.6662 4.30947L25.9124 4.01752L25.873 4.47361L26.5918 4.72579L26.6662 4.30947Z" fill="#FF9100"/>
<path d="M26.9343 3.43966L26.0519 3.05402L26.0029 3.29776L26.8397 3.65742L26.9343 3.43966Z" fill="#FF4300"/>
<path d="M26.7494 3.94996L25.9559 3.62183L25.9121 4.01741L26.6659 4.30936L26.7494 3.94996Z" fill="#FF6F00"/>
<path d="M26.8399 3.65751L26.0031 3.29785L25.9561 3.62194L26.7496 3.95007L26.8399 3.65751Z" fill="#FF5500"/>
<path d="M27.0791 7.76766L26.4224 7.71381L26.4467 8.16779L27.114 8.19012L27.0791 7.76766Z" fill="#2CFFCA"/>
<path d="M27.0651 7.31514L26.4131 7.22522L26.4223 7.71373L27.0791 7.76759L27.0651 7.31514Z" fill="#56FFA0"/>
<path d="M27.0724 6.84437L26.4193 6.71478L26.4131 7.22523L27.0651 7.31515L27.0724 6.84437Z" fill="#80FF77"/>
<path d="M27.1012 6.36758L26.441 6.1958L26.4194 6.71477L27.0726 6.84436L27.1012 6.36758Z" fill="#AAFF4D"/>
<path d="M27.1505 5.89738L26.4774 5.68207L26.4409 6.19572L27.1011 6.3675L27.1505 5.89738Z" fill="#D4FF23"/>
<path d="M27.2194 5.44662L26.5281 5.18768L26.4775 5.68215L27.1506 5.89746L27.2194 5.44662Z" fill="#FBF100"/>
<path d="M28.1722 3.75927L27.218 3.28217L27.126 3.24982L28.0441 3.72021L28.1722 3.75927Z" fill="#FF5500"/>
<path d="M27.3058 5.02729L26.5911 4.72589L26.5278 5.18765L27.2192 5.44658L27.3058 5.02729Z" fill="#FFC400"/>
<path d="M28.0444 3.72027L27.1263 3.24988L27.0308 3.30279L27.9118 3.75951L28.0444 3.72027Z" fill="#FF4E00"/>
<path d="M27.408 4.65105L26.6657 4.30957L26.5913 4.7259L27.3059 5.0273L27.408 4.65105Z" fill="#FFA300"/>
<path d="M27.9115 3.75958L27.0305 3.30286L26.9341 3.43994L27.778 3.87635L27.9115 3.75958Z" fill="#FF5200"/>
<path d="M27.5231 4.32827L26.7495 3.95026L26.666 4.30966L27.4083 4.65114L27.5231 4.32827Z" fill="#FF8200"/>
<path d="M27.7784 3.87629L26.9345 3.43988L26.8398 3.65763L27.6477 4.06757L27.7784 3.87629Z" fill="#FF5900"/>
<path d="M27.6471 4.0676L26.8393 3.65765L26.749 3.95024L27.5227 4.32825L27.6471 4.0676Z" fill="#FF6C00"/>
<path d="M27.6923 7.8636L27.0796 7.76752L27.1144 8.18997L27.7349 8.25516L27.6923 7.8636Z" fill="#33FFC4"/>
<path d="M27.6747 7.44664L27.0654 7.31525L27.0795 7.7677L27.6922 7.86378L27.6747 7.44664Z" fill="#5AFF9D"/>
<path d="M27.6828 7.01461L27.0728 6.84442L27.0654 7.31522L27.6747 7.44661L27.6828 7.01461Z" fill="#80FF77"/>
<path d="M27.7165 6.57884L27.1014 6.36743L27.0728 6.84421L27.6828 7.0144L27.7165 6.57884Z" fill="#A7FF50"/>
<path d="M27.7753 6.15144L27.1509 5.89752L27.1016 6.36766L27.7167 6.57906L27.7753 6.15144Z" fill="#CEFF29"/>
<path d="M27.8574 5.74311L27.2197 5.44659L27.1509 5.89743L27.7753 6.15135L27.8574 5.74311Z" fill="#F1FC06"/>
<path d="M27.961 5.36515L27.3063 5.02716L27.2197 5.44644L27.8574 5.74295L27.961 5.36515Z" fill="#FFD700"/>
<path d="M29.0026 4.26962L28.1725 3.75917L28.0444 3.72009L28.8479 4.22378L29.0026 4.26962Z" fill="#FF6F00"/>
<path d="M28.083 5.0282L27.4082 4.65106L27.3062 5.02731L27.9608 5.3653L28.083 5.0282Z" fill="#FFB600"/>
<path d="M28.8477 4.22396L28.0442 3.72028L27.9116 3.75952L28.6879 4.24969L28.8477 4.22396Z" fill="#FF6800"/>
<path d="M28.2207 4.74092L27.523 4.32806L27.4082 4.65094L28.083 5.02808L28.2207 4.74092Z" fill="#FF9800"/>
<path d="M28.688 4.24968L27.9118 3.75952L27.7783 3.87629L28.5274 4.34642L28.688 4.24968Z" fill="#FF6C00"/>
<path d="M28.37 4.51178L27.6474 4.06763L27.5229 4.32826L28.2206 4.74112L28.37 4.51178Z" fill="#FF8200"/>
<path d="M28.5273 4.34648L27.7782 3.87634L27.6475 4.06761L28.3701 4.51177L28.5273 4.34648Z" fill="#FF7300"/>
<path d="M28.2052 7.99422L27.6919 7.86359L27.7345 8.25515L28.2529 8.35618L28.2052 7.99422Z" fill="#39FFBE"/>
<path d="M28.1852 7.61077L27.6743 7.44641L27.6919 7.86355L28.2052 7.99418L28.1852 7.61077Z" fill="#5AFF9D"/>
<path d="M28.1937 7.21574L27.6824 7.0144L27.6743 7.4464L28.1852 7.61075L28.1937 7.21574Z" fill="#80FF77"/>
<path d="M28.2308 6.81954L27.7164 6.57898L27.6826 7.01455L28.1939 7.21589L28.2308 6.81954Z" fill="#A4FF53"/>
<path d="M28.2953 6.43233L27.775 6.15137L27.7163 6.57899L28.2307 6.81956L28.2953 6.43233Z" fill="#C7FF30"/>
<path d="M28.3858 6.06444L27.857 5.74304L27.7749 6.15128L28.2952 6.43224L28.3858 6.06444Z" fill="#E7FF0F"/>
<path d="M28.5001 5.72605L27.9605 5.3653L27.8569 5.7431L28.3858 6.0645L28.5001 5.72605Z" fill="#FFE600"/>
<path d="M28.6354 5.42609L28.0827 5.0282L27.9604 5.36529L28.5002 5.72605L28.6354 5.42609Z" fill="#FFC400"/>
<path d="M29.6564 4.79411L29.0023 4.26979L28.8477 4.22394L29.4843 4.74181L29.6564 4.79411Z" fill="#FF8600"/>
<path d="M28.7882 5.17267L28.2207 4.74091L28.083 5.02806L28.6357 5.42595L28.7882 5.17267Z" fill="#FFAB00"/>
<path d="M29.4839 4.74181L28.8473 4.22394L28.6875 4.24965L29.3062 4.7547L29.4839 4.74181Z" fill="#FF8200"/>
<path d="M28.9538 4.97301L28.3702 4.5116L28.2207 4.74095L28.7882 5.17271L28.9538 4.97301Z" fill="#FF9800"/>
<path d="M29.3067 4.75456L28.688 4.24951L28.5273 4.34627L29.1283 4.83233L29.3067 4.75456Z" fill="#FF8200"/>
<path d="M29.1277 4.83255L28.5268 4.3465L28.3696 4.51178L28.9533 4.97319L29.1277 4.83255Z" fill="#FF8900"/>
<path d="M28.569 8.15086L28.2056 7.99414L28.2533 8.35611L28.6196 8.48526L28.569 8.15086Z" fill="#3CFFBA"/>
<path d="M28.5474 7.79888L28.1855 7.61084L28.2055 7.99425L28.5689 8.15098L28.5474 7.79888Z" fill="#5DFF9A"/>
<path d="M28.5559 7.43823L28.194 7.21594L28.1855 7.61097L28.5474 7.79901L28.5559 7.43823Z" fill="#80FF77"/>
<path d="M28.5941 7.07787L28.2308 6.81934L28.1938 7.21567L28.5557 7.43795L28.5941 7.07787Z" fill="#A0FF56"/>
<path d="M28.6616 6.72792L28.2955 6.43213L28.231 6.81936L28.5942 7.07789L28.6616 6.72792Z" fill="#C1FF36"/>
<path d="M28.7564 6.39765L28.386 6.06458L28.2954 6.43236L28.6615 6.72815L28.7564 6.39765Z" fill="#DEFF19"/>
<path d="M28.876 6.09536L28.5001 5.72607L28.3857 6.06452L28.7561 6.3976L28.876 6.09536Z" fill="#FBF100"/>
<path d="M29.0182 5.82953L28.6357 5.42609L28.5005 5.72604L28.8764 6.09533L29.0182 5.82953Z" fill="#FFD700"/>
<path d="M30.2637 5.42899L29.8183 4.90985L29.6562 4.79401L30.0924 5.31335L30.2637 5.42899Z" fill="#FFA700"/>
<path d="M29.1783 5.60729L28.7882 5.17273L28.6357 5.42601L29.0182 5.82945L29.1783 5.60729Z" fill="#FFC100"/>
<path d="M30.0927 5.31338L29.6566 4.79403L29.4844 4.74176L29.911 5.2553L30.0927 5.31338Z" fill="#FF9C00"/>
<path d="M29.3523 5.43475L28.9537 4.97296L28.7881 5.17265L29.1782 5.60721L29.3523 5.43475Z" fill="#FFAE00"/>
<path d="M29.911 5.2553L29.4844 4.74176L29.3066 4.75463L29.7237 5.25644L29.911 5.2553Z" fill="#FF9800"/>
<path d="M29.5361 5.31687L29.1285 4.83246L28.9541 4.97309L29.3527 5.43488L29.5361 5.31687Z" fill="#FF9F00"/>
<path d="M29.724 5.25645L29.3069 4.75464L29.1284 4.83242L29.536 5.31683L29.724 5.25645Z" fill="#FF9800"/>
<path d="M28.742 8.32542L28.5688 8.15112L28.6196 8.4855L28.7939 8.635L28.742 8.32542Z" fill="#43FFB4"/>
<path d="M28.7197 8.00121L28.5474 7.79883L28.5688 8.15092L28.742 8.32521L28.7197 8.00121Z" fill="#60FF97"/>
<path d="M28.7278 7.67119L28.5558 7.43817L28.5474 7.79896L28.7197 8.00134L28.7278 7.67119Z" fill="#7DFF7A"/>
<path d="M28.766 7.34347L28.594 7.07806L28.5557 7.43816L28.7276 7.67118L28.766 7.34347Z" fill="#9DFF5A"/>
<path d="M28.8339 7.02675L28.6617 6.72809L28.5942 7.07804L28.7662 7.34344L28.8339 7.02675Z" fill="#BAFF3C"/>
<path d="M28.9295 6.72938L28.7565 6.39752L28.6616 6.72805L28.8339 7.02671L28.9295 6.72938Z" fill="#D4FF23"/>
<path d="M29.0508 6.45948L28.8767 6.0954L28.7568 6.39764L28.9298 6.7295L29.0508 6.45948Z" fill="#EEFF09"/>
<path d="M30.756 6.29943L30.5576 5.81854L30.4204 5.599L30.6161 6.09055L30.756 6.29943Z" fill="#FFDE00"/>
<path d="M29.1938 6.22395L29.0183 5.82947L28.8765 6.09528L29.0506 6.45936L29.1938 6.22395Z" fill="#FFE600"/>
<path d="M30.6161 6.09045L30.4204 5.5989L30.2642 5.42896L30.457 5.92608L30.6161 6.09045Z" fill="#FFCC00"/>
<path d="M29.3559 6.0295L29.1786 5.60736L29.0186 5.82952L29.1941 6.224L29.3559 6.0295Z" fill="#FFD000"/>
<path d="M30.4569 5.92606L30.264 5.42893L30.0928 5.31329L30.2827 5.81068L30.4569 5.92606Z" fill="#FFB900"/>
<path d="M29.5322 5.88123L29.3528 5.43488L29.1787 5.60732L29.356 6.02946L29.5322 5.88123Z" fill="#FFC100"/>
<path d="M30.2828 5.81072L30.0928 5.31333L29.9111 5.25525L30.0982 5.74752L30.2828 5.81072Z" fill="#FFB200"/>
<path d="M29.7177 5.78327L29.536 5.31683L29.3525 5.43486L29.5319 5.88121L29.7177 5.78327Z" fill="#FFB200"/>
<path d="M30.0985 5.74746L29.9114 5.25519L29.7241 5.25632L29.9084 5.73819L30.0985 5.74746Z" fill="#FFAB00"/>
<path d="M29.9078 5.73822L29.7236 5.25635L29.5356 5.31674L29.7174 5.78317L29.9078 5.73822Z" fill="#FFAE00"/>
<path d="M28.8813 7.04817L28.9296 6.72931L28.834 7.02664L28.7876 7.31709L28.8813 7.04817Z" fill="#CEFF29"/>
<path d="M30.9111 8.72563L30.9799 8.42989L31.0366 8.11011L30.9663 8.43315L30.9111 8.72563Z" fill="#50FFA7"/>
<path d="M30.9663 8.43319L31.0365 8.11015L31.0637 7.78149L30.9923 8.13101L30.9663 8.43319Z" fill="#6AFF8D"/>
<path d="M30.9927 8.13093L31.0641 7.78142L31.0611 7.45233L30.9888 7.82684L30.9927 8.13093Z" fill="#87FF70"/>
<path d="M30.9886 7.82695L31.0609 7.45244L31.0274 7.13147L30.9546 7.52881L30.9886 7.82695Z" fill="#A0FF56"/>
<path d="M30.9549 7.52868L31.0277 7.13134L30.9646 6.8269L30.8916 7.24439L30.9549 7.52868Z" fill="#BEFF39"/>
<path d="M30.8913 7.24435L30.9643 6.82686L30.8731 6.54706L30.8003 6.98139L30.8913 7.24435Z" fill="#D4FF23"/>
<path d="M29.0001 6.80596L29.0506 6.45947L28.9297 6.72948L28.8813 7.04834L29.0001 6.80596Z" fill="#E4FF13"/>
<path d="M30.8005 6.9814L30.8734 6.54706L30.7563 6.29938L30.6841 6.74683L30.8005 6.9814Z" fill="#EBFF0C"/>
<path d="M29.1408 6.59649L29.1938 6.224L29.0505 6.45944L29 6.80592L29.1408 6.59649Z" fill="#F8F500"/>
<path d="M30.6838 6.74703L30.756 6.29958L30.6161 6.0907L30.5449 6.54717L30.6838 6.74703Z" fill="#FEED00"/>
<path d="M29.2999 6.42566L29.3555 6.02942L29.1936 6.22391L29.1406 6.5964L29.2999 6.42566Z" fill="#FFDE00"/>
<path d="M30.5449 6.54706L30.6161 6.09059L30.457 5.92621L30.3872 6.38733L30.5449 6.54706Z" fill="#FFDB00"/>
<path d="M29.4738 6.29825L29.532 5.88123L29.3559 6.02946L29.3003 6.42571L29.4738 6.29825Z" fill="#FFD000"/>
<path d="M30.3872 6.38723L30.457 5.92611L30.2828 5.81073L30.2148 6.27191L30.3872 6.38723Z" fill="#FFCC00"/>
<path d="M29.6568 6.21763L29.7177 5.78333L29.5319 5.88126L29.4736 6.29828L29.6568 6.21763Z" fill="#FFC400"/>
<path d="M30.2147 6.27193L30.2827 5.81076L30.0981 5.74756L30.0322 6.20423L30.2147 6.27193Z" fill="#FFC400"/>
<path d="M29.8447 6.18612L29.9082 5.73846L29.7177 5.78341L29.6567 6.21772L29.8447 6.18612Z" fill="#FFC100"/>
<path d="M30.0324 6.20433L30.0983 5.74766L29.9082 5.7384L29.8447 6.18606L30.0324 6.20433Z" fill="#FFBD00"/>
<path d="M29.9629 9.98152L30.2745 9.80163L30.4396 9.65741L30.1228 9.85522L29.9629 9.98152Z" fill="#00D4FF"/>
<path d="M30.1226 9.85524L30.4394 9.65743L30.5892 9.47272L30.2675 9.69032L30.1226 9.85524Z" fill="#00E4F8"/>
<path d="M30.2676 9.69027L30.5893 9.47267L30.72 9.25201L30.3938 9.4908L30.2676 9.69027Z" fill="#0FF8E7"/>
<path d="M30.394 9.49087L30.7202 9.25208L30.8284 9.00098L30.4984 9.26182L30.394 9.49087Z" fill="#26FFD1"/>
<path d="M30.498 9.2617L30.828 9.00085L30.9109 8.72559L30.5777 9.00882L30.498 9.2617Z" fill="#3CFFBA"/>
<path d="M30.5776 9.00881L30.9108 8.72558L30.966 8.43311L30.6304 8.73849L30.5776 9.00881Z" fill="#53FFA4"/>
<path d="M30.6304 8.73862L30.966 8.43323L30.9921 8.13104L30.6547 8.45785L30.6304 8.73862Z" fill="#6DFF8A"/>
<path d="M30.6547 8.45776L30.992 8.13096L30.9881 7.82684L30.6499 8.17376L30.6547 8.45776Z" fill="#87FF70"/>
<path d="M30.6501 8.17368L30.9883 7.82676L30.9543 7.52863L30.6162 7.89381L30.6501 8.17368Z" fill="#A0FF56"/>
<path d="M30.616 7.89399L30.9541 7.52881L30.8908 7.24451L30.5537 7.62567L30.616 7.89399Z" fill="#B7FF40"/>
<path d="M30.5539 7.62549L30.891 7.24433L30.8 6.98138L30.4648 7.37584L30.5539 7.62549Z" fill="#CEFF29"/>
<path d="M30.4648 7.37584L30.8 6.98139L30.6835 6.74683L30.3511 7.15145L30.4648 7.37584Z" fill="#E4FF13"/>
<path d="M29.0092 6.78485L29.2999 6.4256L29.1407 6.59635L28.8555 6.93607L29.0092 6.78485Z" fill="#FEED00"/>
<path d="M30.3511 7.15161L30.6836 6.74698L30.5447 6.54712L30.2158 6.95853L30.3511 7.15161Z" fill="#F4F802"/>
<path d="M29.1769 6.67479L29.4734 6.29834L29.3 6.42579L29.0093 6.78504L29.1769 6.67479Z" fill="#FFDE00"/>
<path d="M30.2159 6.95856L30.5448 6.54714L30.3871 6.38739L30.0625 6.80204L30.2159 6.95856Z" fill="#FFE600"/>
<path d="M29.3539 6.60861L29.6564 6.21771L29.4733 6.29836L29.1768 6.67481L29.3539 6.60861Z" fill="#FFD300"/>
<path d="M30.0625 6.80193L30.3871 6.38728L30.2147 6.27197L29.895 6.68616L30.0625 6.80193Z" fill="#FFDB00"/>
<path d="M29.536 6.58808L29.8444 6.18591L29.6565 6.21754L29.354 6.60843L29.536 6.58808Z" fill="#FFD000"/>
<path d="M29.8948 6.68607L30.2145 6.27188L30.032 6.20416L29.7178 6.61413L29.8948 6.68607Z" fill="#FFD000"/>
<path d="M29.7181 6.61435L30.0323 6.20438L29.8446 6.1861L29.5361 6.58826L29.7181 6.61435Z" fill="#FFCC00"/>
<path d="M29.2593 10.2436L29.7923 10.0659L29.963 9.98132L29.4227 10.1716L29.2593 10.2436Z" fill="#00D0FF"/>
<path d="M29.4229 10.1717L29.9631 9.9814L30.123 9.8551L29.5757 10.0595L29.4229 10.1717Z" fill="#00DCFE"/>
<path d="M29.5757 10.0595L30.1229 9.8551L30.2679 9.69019L29.7142 9.91005L29.5757 10.0595Z" fill="#06ECF1"/>
<path d="M29.7144 9.91011L30.2681 9.69025L30.3943 9.49078L29.8349 9.72696L29.7144 9.91011Z" fill="#19FFDE"/>
<path d="M29.8345 9.72694L30.394 9.49077L30.4983 9.26172L29.9338 9.51468L29.8345 9.72694Z" fill="#29FFCE"/>
<path d="M29.9341 9.5145L30.4986 9.26155L30.5782 9.00867L30.0096 9.27847L29.9341 9.5145Z" fill="#40FFB7"/>
<path d="M30.0098 9.27875L30.5783 9.00894L30.631 8.73865L30.0595 9.02494L30.0098 9.27875Z" fill="#56FFA0"/>
<path d="M30.0591 9.02472L30.6306 8.73842L30.655 8.45764L30.0815 8.75965L30.0591 9.02472Z" fill="#6DFF8A"/>
<path d="M30.0817 8.75973L30.6551 8.45772L30.6504 8.17371L30.0762 8.49028L30.0817 8.75973Z" fill="#87FF70"/>
<path d="M30.0764 8.49041L30.6506 8.17383L30.6167 7.89398L30.043 8.22359L30.0764 8.49041Z" fill="#9DFF5A"/>
<path d="M30.0425 8.22341L30.6163 7.89381L30.554 7.62549L29.9819 7.96625L30.0425 8.22341Z" fill="#B4FF43"/>
<path d="M29.9822 7.96617L30.5543 7.62541L30.4652 7.37573L29.896 7.72551L29.9822 7.96617Z" fill="#CAFF2C"/>
<path d="M29.8959 7.72576L30.4651 7.37599L30.3514 7.15161L29.7861 7.50798L29.8959 7.72576Z" fill="#DEFF19"/>
<path d="M29.7861 7.50785L30.3513 7.15149L30.216 6.95844L29.6558 7.31876L29.7861 7.50785Z" fill="#EEFF09"/>
<path d="M28.8295 6.94783L29.3544 6.6084L29.1772 6.67462L28.6602 7.00235L28.8295 6.94783Z" fill="#FFDE00"/>
<path d="M29.6558 7.31892L30.216 6.95859L30.0626 6.80206L29.5083 7.16366L29.6558 7.31892Z" fill="#FBF100"/>
<path d="M29.0037 6.93686L29.5364 6.58801L29.3545 6.60837L28.8296 6.9478L29.0037 6.93686Z" fill="#FFDB00"/>
<path d="M29.5084 7.16341L30.0627 6.80182L29.8953 6.68604L29.3477 7.04613L29.5084 7.16341Z" fill="#FFE600"/>
<path d="M29.1777 6.97013L29.7181 6.61431L29.5361 6.5882L29.0034 6.93705L29.1777 6.97013Z" fill="#FFD700"/>
<path d="M29.3475 7.04608L29.8952 6.68598L29.7181 6.61407L29.1777 6.96989L29.3475 7.04608Z" fill="#FFDB00"/>
<path d="M28.5371 10.437L29.259 10.2437L29.4224 10.1716L28.6924 10.3747L28.5371 10.437Z" fill="#00D8FF"/>
<path d="M28.6929 10.3748L29.4228 10.1718L29.5757 10.0596L28.8381 10.2732L28.6929 10.3748Z" fill="#00E4F8"/>
<path d="M28.8379 10.2731L29.5755 10.0595L29.714 9.91003L28.9693 10.1347L28.8379 10.2731Z" fill="#0CF4EB"/>
<path d="M28.9692 10.1347L29.714 9.91002L29.8345 9.72687L29.0834 9.96291L28.9692 10.1347Z" fill="#1CFFDB"/>
<path d="M29.0835 9.96308L29.8346 9.72704L29.934 9.51477L29.1774 9.76213L29.0835 9.96308Z" fill="#2CFFCA"/>
<path d="M29.1772 9.7619L29.9338 9.51453L30.0094 9.2785L29.2484 9.53688L29.1772 9.7619Z" fill="#43FFB4"/>
<path d="M29.248 9.53714L30.009 9.27876L30.0587 9.02496L29.2945 9.29376L29.248 9.53714Z" fill="#56FFA0"/>
<path d="M29.2949 9.29381L30.0591 9.02501L30.0816 8.75995L29.3154 9.03834L29.2949 9.29381Z" fill="#6DFF8A"/>
<path d="M29.3153 9.03802L30.0815 8.75963L30.0759 8.49017L29.3091 8.77707L29.3153 9.03802Z" fill="#83FF73"/>
<path d="M29.3091 8.7771L30.076 8.49021L30.0426 8.22339L29.2764 8.51751L29.3091 8.7771Z" fill="#9AFF5D"/>
<path d="M29.2764 8.51759L30.0426 8.22347L29.982 7.96631L29.2178 8.26615L29.2764 8.51759Z" fill="#B1FF46"/>
<path d="M29.2177 8.26617L29.9819 7.96633L29.8957 7.72565L29.1348 8.02959L29.2177 8.26617Z" fill="#C4FF33"/>
<path d="M29.135 8.02949L29.8959 7.72554L29.7862 7.50775L29.0298 7.81407L29.135 8.02949Z" fill="#D7FF1F"/>
<path d="M28.1174 7.23135L28.8291 6.94806L28.6597 7.00259L27.9565 7.27667L28.1174 7.23135Z" fill="#FFE600"/>
<path d="M29.03 7.81423L29.7864 7.50792L29.656 7.31885L28.9053 7.62571L29.03 7.81423Z" fill="#E7FF0F"/>
<path d="M28.2832 7.22818L29.0035 6.93695L28.8294 6.94787L28.1177 7.23116L28.2832 7.22818Z" fill="#FFE200"/>
<path d="M28.9051 7.62583L29.6558 7.31896L29.5083 7.1637L28.7642 7.46929L28.9051 7.62583Z" fill="#F4F802"/>
<path d="M28.4486 7.26774L29.1773 6.97006L29.003 6.93701L28.2827 7.22824L28.4486 7.26774Z" fill="#FFE200"/>
<path d="M28.7637 7.46915L29.5079 7.16356L29.3471 7.04626L28.6104 7.34879L28.7637 7.46915Z" fill="#FEED00"/>
<path d="M28.611 7.34868L29.3477 7.04616L29.178 6.96997L28.4492 7.26764L28.611 7.34868Z" fill="#FFE200"/>
<path d="M27.6768 10.6493L28.5375 10.437L28.6928 10.3747L27.8237 10.5943L27.6768 10.6493Z" fill="#00DCFE"/>
<path d="M27.8237 10.5945L28.6929 10.3749L28.8381 10.2733L27.961 10.5L27.8237 10.5945Z" fill="#02E8F4"/>
<path d="M27.9609 10.5L28.838 10.2732L28.9694 10.1348L28.085 10.3684L27.9609 10.5Z" fill="#0FF8E7"/>
<path d="M28.085 10.3684L28.9694 10.1348L29.0835 9.96301L28.1925 10.2031L28.085 10.3684Z" fill="#1FFFD7"/>
<path d="M28.1929 10.2029L29.0839 9.96285L29.1778 9.7619L28.2812 10.0078L28.1929 10.2029Z" fill="#30FFC7"/>
<path d="M28.2808 10.0078L29.1774 9.76195L29.2485 9.53693L28.3474 9.78782L28.2808 10.0078Z" fill="#43FFB4"/>
<path d="M28.3477 9.78791L29.2488 9.53701L29.2953 9.29364L28.3909 9.54869L28.3477 9.78791Z" fill="#5AFF9D"/>
<path d="M28.3906 9.54867L29.295 9.29362L29.3155 9.03815L28.4091 9.29635L28.3906 9.54867Z" fill="#6DFF8A"/>
<path d="M28.4091 9.29638L29.3155 9.03817L29.3093 8.77722L28.4023 9.03752L28.4091 9.29638Z" fill="#83FF73"/>
<path d="M28.4026 9.03742L29.3096 8.77712L29.2768 8.51752L28.3706 8.77879L28.4026 9.03742Z" fill="#9AFF5D"/>
<path d="M28.3704 8.77881L29.2767 8.51754L29.2181 8.26611L28.314 8.52723L28.3704 8.77881Z" fill="#B1FF46"/>
<path d="M28.3139 8.52742L29.218 8.2663L29.135 8.02972L28.2344 8.28957L28.3139 8.52742Z" fill="#C4FF33"/>
<path d="M28.2343 8.2896L29.1349 8.02975L29.0297 7.81433L28.1338 8.07181L28.2343 8.2896Z" fill="#D7FF1F"/>
<path d="M27.4248 7.4605L28.2834 7.22815L28.1179 7.23113L27.2681 7.45667L27.4248 7.4605Z" fill="#FFE600"/>
<path d="M28.134 8.07166L29.0299 7.81418L28.9052 7.62567L28.0151 7.87977L28.134 8.07166Z" fill="#E4FF13"/>
<path d="M27.5815 7.50643L28.4489 7.26767L28.283 7.22815L27.4243 7.4605L27.5815 7.50643Z" fill="#FFE600"/>
<path d="M28.0149 7.87981L28.905 7.62572L28.7641 7.46918L27.8809 7.71895L28.0149 7.87981Z" fill="#F1FC06"/>
<path d="M27.7351 7.59346L28.6107 7.34884L28.4489 7.26782L27.5815 7.50659L27.7351 7.59346Z" fill="#FFE600"/>
<path d="M27.8811 7.71885L28.7643 7.46908L28.611 7.34869L27.7354 7.59331L27.8811 7.71885Z" fill="#FEED00"/>
<path d="M26.9719 10.7754L27.8937 10.5521L27.7512 10.627L26.8281 10.8513L26.9719 10.7754Z" fill="#00E4F8"/>
<path d="M27.1042 10.6604L28.025 10.4386L27.894 10.5519L26.9722 10.7752L27.1042 10.6604Z" fill="#0CF4EB"/>
<path d="M27.2208 10.5095L28.141 10.2898L28.0249 10.4387L27.104 10.6605L27.2208 10.5095Z" fill="#19FFDE"/>
<path d="M27.3192 10.326L28.2392 10.1089L28.1409 10.2897L27.2207 10.5094L27.3192 10.326Z" fill="#29FFCE"/>
<path d="M27.3969 10.1147L28.3171 9.9007L28.2393 10.1089L27.3193 10.326L27.3969 10.1147Z" fill="#3CFFBA"/>
<path d="M27.4516 9.88094L28.3722 9.67029L28.3171 9.90062L27.397 10.1147L27.4516 9.88094Z" fill="#53FFA4"/>
<path d="M27.4817 9.63074L28.4032 9.42377L28.3723 9.67033L27.4517 9.88098L27.4817 9.63074Z" fill="#66FF90"/>
<path d="M27.4861 9.37034L28.4088 9.16724L28.4029 9.42366L27.4814 9.63063L27.4861 9.37034Z" fill="#7DFF7A"/>
<path d="M27.4653 9.10681L28.3895 8.90765L28.4089 9.16725L27.4863 9.37036L27.4653 9.10681Z" fill="#94FF63"/>
<path d="M27.4189 8.84702L28.3449 8.65179L28.3893 8.90775L27.4651 9.1069L27.4189 8.84702Z" fill="#AAFF4D"/>
<path d="M27.3486 8.59761L28.2766 8.40619L28.3448 8.65172L27.4188 8.84695L27.3486 8.59761Z" fill="#BEFF39"/>
<path d="M27.2563 8.36559L28.1865 8.17773L28.2767 8.40632L27.3488 8.59774L27.2563 8.36559Z" fill="#D1FF26"/>
<path d="M26.4023 7.62927L27.3459 7.45325L27.5034 7.4782L26.5618 7.65474L26.4023 7.62927Z" fill="#FFE200"/>
<path d="M27.144 8.15666L28.0765 7.97205L28.1865 8.17757L27.2564 8.36543L27.144 8.15666Z" fill="#E1FF16"/>
<path d="M26.5615 7.65499L27.5031 7.47845L27.659 7.54507L26.7196 7.72276L26.5615 7.65499Z" fill="#FFE600"/>
<path d="M27.0151 7.97689L27.9499 7.7951L28.0768 7.97208L27.1444 8.15669L27.0151 7.97689Z" fill="#EEFF09"/>
<path d="M26.7197 7.72262L27.6592 7.54492L27.8093 7.65148L26.8721 7.83094L26.7197 7.72262Z" fill="#FFEA00"/>
<path d="M26.8721 7.83095L27.8092 7.65149L27.9496 7.79517L27.0148 7.97696L26.8721 7.83095Z" fill="#FBF100"/>
<path d="M26.0412 11.023L26.9721 10.7754L26.8283 10.8513L25.8926 11.1017L26.0412 11.023Z" fill="#00E0FB"/>
<path d="M26.1767 10.9037L27.1034 10.6604L26.9714 10.7753L26.0405 11.0229L26.1767 10.9037Z" fill="#09F0EE"/>
<path d="M26.2975 10.7468L27.2208 10.5093L27.104 10.6603L26.1772 10.9036L26.2975 10.7468Z" fill="#16FFE1"/>
<path d="M26.3985 10.5563L27.3192 10.326L27.2206 10.5095L26.2974 10.7469L26.3985 10.5563Z" fill="#29FFCE"/>
<path d="M26.4778 10.3367L27.3967 10.1147L27.3191 10.326L26.3984 10.5563L26.4778 10.3367Z" fill="#3CFFBA"/>
<path d="M26.533 10.0937L27.451 9.88098L27.3964 10.1147L26.4775 10.3367L26.533 10.0937Z" fill="#50FFA7"/>
<path d="M26.5631 9.83357L27.4814 9.63086L27.4513 9.88111L26.5332 10.0938L26.5631 9.83357Z" fill="#66FF90"/>
<path d="M26.5665 9.56282L27.4859 9.37054L27.4812 9.63083L26.563 9.83355L26.5665 9.56282Z" fill="#7DFF7A"/>
<path d="M26.5435 9.28858L27.4649 9.10693L27.4859 9.37048L26.5665 9.56276L26.5435 9.28858Z" fill="#94FF63"/>
<path d="M26.4941 9.0181L27.4186 8.84698L27.4648 9.10687L26.5433 9.28852L26.4941 9.0181Z" fill="#AAFF4D"/>
<path d="M26.4204 8.75857L27.3487 8.5976L27.4189 8.84693L26.4945 9.01805L26.4204 8.75857Z" fill="#C1FF36"/>
<path d="M26.3232 8.51702L27.2561 8.36554L27.3486 8.5977L26.4203 8.75867L26.3232 8.51702Z" fill="#D4FF23"/>
<path d="M25.4341 7.75035L26.4021 7.62939L26.5615 7.65487L25.5995 7.77696L25.4341 7.75035Z" fill="#FFDE00"/>
<path d="M26.2056 8.29972L27.1436 8.1568L27.256 8.36557L26.3231 8.51705L26.2056 8.29972Z" fill="#E4FF13"/>
<path d="M25.5996 7.77694L26.5617 7.65485L26.7197 7.72262L25.7638 7.84758L25.5996 7.77694Z" fill="#FFDE00"/>
<path d="M26.0708 8.11244L27.0146 7.97693L27.1438 8.15672L26.2057 8.29964L26.0708 8.11244Z" fill="#F1FC06"/>
<path d="M25.7637 7.84774L26.7196 7.72278L26.872 7.8311L25.9222 7.96057L25.7637 7.84774Z" fill="#FFE600"/>
<path d="M25.9224 7.96046L26.8721 7.83099L27.0148 7.977L26.0711 8.11251L25.9224 7.96046Z" fill="#FEED00"/>
<path d="M25.0011 11.3793L25.8924 11.1017L25.7352 11.1381L24.835 11.4177L25.0011 11.3793Z" fill="#00CCFF"/>
<path d="M25.1578 11.2958L26.0409 11.0227L25.8923 11.1014L25.001 11.3791L25.1578 11.2958Z" fill="#00D8FF"/>
<path d="M25.3012 11.1695L26.177 10.9035L26.0408 11.0227L25.1577 11.2958L25.3012 11.1695Z" fill="#02E8F4"/>
<path d="M25.4277 11.0033L26.2973 10.7468L26.1771 10.9036L25.3013 11.1696L25.4277 11.0033Z" fill="#13FCE4"/>
<path d="M25.5338 10.8013L26.3985 10.5563L26.2973 10.7469L25.4277 11.0034L25.5338 10.8013Z" fill="#23FFD4"/>
<path d="M25.6166 10.5681L26.4777 10.3365L26.3983 10.5561L25.5337 10.8011L25.6166 10.5681Z" fill="#39FFBE"/>
<path d="M25.6742 10.3103L26.5332 10.0937L26.4778 10.3367L25.6167 10.5683L25.6742 10.3103Z" fill="#50FFA7"/>
<path d="M25.7047 10.0341L26.5633 9.8335L26.5334 10.0937L25.6743 10.3104L25.7047 10.0341Z" fill="#66FF90"/>
<path d="M25.707 9.74659L26.5667 9.56281L26.5631 9.83354L25.7046 10.0341L25.707 9.74659Z" fill="#7DFF7A"/>
<path d="M25.6812 9.45526L26.5435 9.28857L26.5665 9.56275L25.7069 9.74653L25.6812 9.45526Z" fill="#97FF60"/>
<path d="M25.6279 9.16777L26.4945 9.01801L26.5436 9.28841L25.6813 9.4551L25.6279 9.16777Z" fill="#ADFF49"/>
<path d="M25.5483 8.89207L26.4205 8.75861L26.4945 9.01809L25.628 9.16786L25.5483 8.89207Z" fill="#C4FF33"/>
<path d="M25.4443 8.63514L26.3234 8.51691L26.4204 8.75855L25.5483 8.89201L25.4443 8.63514Z" fill="#D7FF1F"/>
<path d="M24.499 7.81996L25.4343 7.75043L25.5997 7.77703L24.6743 7.84831L24.499 7.81996Z" fill="#FFD700"/>
<path d="M25.3188 8.40424L26.2059 8.29974L26.3234 8.51708L25.4444 8.63532L25.3188 8.40424Z" fill="#EBFF0C"/>
<path d="M24.6743 7.84831L25.5997 7.77704L25.7639 7.84767L24.8485 7.92347L24.6743 7.84831Z" fill="#FFD700"/>
<path d="M25.1748 8.20519L26.0707 8.11255L26.2057 8.29975L25.3186 8.40425L25.1748 8.20519Z" fill="#F8F500"/>
<path d="M24.8481 7.92339L25.7635 7.8476L25.9221 7.96043L25.0166 8.04341L24.8481 7.92339Z" fill="#FFDB00"/>
<path d="M25.0171 8.04337L25.9226 7.96039L26.0713 8.11244L25.1753 8.20507L25.0171 8.04337Z" fill="#FFE600"/>
<path d="M22.1562 12.1899L22.7438 11.8658L22.555 11.7027L21.9492 12.011L22.1562 12.1899Z" fill="#00A0FF"/>
<path d="M21.9493 12.011L22.5551 11.7027L22.3797 11.4949L21.7568 11.7832L21.9493 12.011Z" fill="#00B0FF"/>
<path d="M22.3726 12.3153L22.9413 11.98L22.7438 11.8657L22.1562 12.1897L22.3726 12.3153Z" fill="#0094FF"/>
<path d="M21.7567 11.783L22.3795 11.4946L22.222 11.2473L21.5835 11.512L21.7567 11.783Z" fill="#00C4FF"/>
<path d="M22.5928 12.3844L23.1426 12.0428L22.9413 11.9801L22.3726 12.3154L22.5928 12.3844Z" fill="#0094FF"/>
<path d="M21.5836 11.5122L22.222 11.2476L22.0863 10.9669L21.4341 11.2046L21.5836 11.5122Z" fill="#00E0FB"/>
<path d="M22.8115 12.3951L23.3425 12.0523L23.1425 12.0429L22.5928 12.3845L22.8115 12.3951Z" fill="#0094FF"/>
<path d="M21.4341 11.2045L22.0862 10.9667L21.9757 10.6595L21.312 10.8679L21.4341 11.2045Z" fill="#13FCE4"/>
<path d="M23.0233 12.3468L23.5362 12.0078L23.3425 12.0522L22.8115 12.395L23.0233 12.3468Z" fill="#009CFF"/>
<path d="M21.3121 10.8681L21.9758 10.6598L21.8934 10.3339L21.2207 10.5109L21.3121 10.8681Z" fill="#30FFC7"/>
<path d="M23.2228 12.2407L23.7189 11.9106L23.5364 12.0078L23.0234 12.3468L23.2228 12.2407Z" fill="#00ACFF"/>
<path d="M21.2204 10.5106L21.8931 10.3336L21.841 9.99701L21.1621 10.1417L21.2204 10.5106Z" fill="#49FFAD"/>
<path d="M21.1623 10.1419L21.8412 9.99722L21.8208 9.65857L21.1387 9.77063L21.1623 10.1419Z" fill="#6AFF8D"/>
<path d="M21.1387 9.77059L21.8208 9.65854L21.8329 9.32642L21.1506 9.40633L21.1387 9.77059Z" fill="#87FF70"/>
<path d="M21.1504 9.40617L21.8328 9.32625L21.8772 9.00922L21.1978 9.05834L21.1504 9.40617Z" fill="#A7FF50"/>
<path d="M21.1978 9.05854L21.8772 9.00942L21.953 8.71576L21.2795 8.73624L21.1978 9.05854Z" fill="#C4FF33"/>
<path d="M21.2798 8.73605L21.9533 8.71557L22.0587 8.45304L21.3941 8.44781L21.2798 8.73605Z" fill="#DEFF19"/>
<path d="M21.394 8.44795L22.0586 8.45318L22.191 8.22882L21.5381 8.20154L21.394 8.44795Z" fill="#F8F500"/>
<path d="M21.5381 8.20145L22.191 8.22874L22.3471 8.04867L21.7083 8.0036L21.5381 8.20145Z" fill="#FFDB00"/>
<path d="M21.708 8.00377L22.3468 8.04884L22.5226 7.91804L21.9 7.85999L21.708 8.00377Z" fill="#FFC800"/>
<path d="M21.9004 7.8599L22.523 7.91795L22.7138 7.84012L22.1091 7.77429L21.9004 7.8599Z" fill="#FFB900"/>
<path d="M22.1089 7.77434L22.7136 7.84016L22.9145 7.81759L22.3289 7.74945L22.1089 7.77434Z" fill="#FFAE00"/>
<path d="M21.7214 12.5152L22.1567 12.1899L21.9497 12.011L21.4941 12.3188L21.7214 12.5152Z" fill="#008CFF"/>
<path d="M21.4942 12.3187L21.9497 12.0109L21.7573 11.7831L21.2827 12.0687L21.4942 12.3187Z" fill="#009CFF"/>
<path d="M21.9585 12.6531L22.3728 12.3153L22.1565 12.1898L21.7212 12.5151L21.9585 12.6531Z" fill="#0080FF"/>
<path d="M21.2823 12.0688L21.7568 11.7832L21.5836 11.5121L21.0918 11.7714L21.2823 12.0688Z" fill="#00B4FF"/>
<path d="M22.2 12.729L22.5931 12.3842L22.3728 12.3152L21.9585 12.653L22.2 12.729Z" fill="#007CFF"/>
<path d="M21.0919 11.7714L21.5838 11.5122L21.4343 11.2046L20.9272 11.4339L21.0919 11.7714Z" fill="#00D0FF"/>
<path d="M22.44 12.7412L22.812 12.3949L22.5932 12.3843L22.2002 12.7291L22.44 12.7412Z" fill="#007CFF"/>
<path d="M20.9272 11.4339L21.4342 11.2046L21.3122 10.868L20.7925 11.0646L20.9272 11.4339Z" fill="#09F0EE"/>
<path d="M22.672 12.6886L23.0237 12.3466L22.8119 12.3948L22.4399 12.7411L22.672 12.6886Z" fill="#0088FF"/>
<path d="M20.7927 11.0646L21.3124 10.868L21.221 10.5109L20.6914 10.6725L20.7927 11.0646Z" fill="#26FFD1"/>
<path d="M22.8903 12.5727L23.223 12.2405L23.0236 12.3466L22.6719 12.6887L22.8903 12.5727Z" fill="#0098FF"/>
<path d="M20.6915 10.6724L21.2211 10.5108L21.1628 10.1418L20.6265 10.2674L20.6915 10.6724Z" fill="#46FFB1"/>
<path d="M23.0894 12.3959L23.4047 12.079L23.2228 12.2405L22.8901 12.5727L23.0894 12.3959Z" fill="#00ACFF"/>
<path d="M20.6262 10.2676L21.1625 10.142L21.1389 9.77069L20.5991 9.85984L20.6262 10.2676Z" fill="#66FF90"/>
<path d="M20.5991 9.85984L21.1389 9.77069L21.1508 9.40643L20.611 9.4597L20.5991 9.85984Z" fill="#8AFF6D"/>
<path d="M20.6108 9.45964L21.1507 9.40637L21.198 9.05853L20.6616 9.07738L20.6108 9.45964Z" fill="#AAFF4D"/>
<path d="M20.6616 9.07729L21.198 9.05845L21.2798 8.73615L20.7502 8.72296L20.6616 9.07729Z" fill="#CAFF2C"/>
<path d="M20.7505 8.72303L21.28 8.73622L21.3943 8.44798L20.875 8.40601L20.7505 8.72303Z" fill="#E7FF0F"/>
<path d="M20.875 8.40598L21.3943 8.44795L21.5384 8.20154L21.0323 8.13483L20.875 8.40598Z" fill="#FFE600"/>
<path d="M21.0322 8.13463L21.5383 8.20134L21.7085 8.00348L21.2184 7.91681L21.0322 8.13463Z" fill="#FFCC00"/>
<path d="M21.2188 7.91705L21.7089 8.00372L21.9008 7.85994L21.4291 7.75867L21.2188 7.91705Z" fill="#FFB600"/>
<path d="M21.4287 7.75868L21.9005 7.85996L22.1092 7.77435L21.6577 7.66431L21.4287 7.75868Z" fill="#FFA300"/>
<path d="M21.6577 7.66419L22.1093 7.77424L22.3293 7.74936L21.8993 7.63666L21.6577 7.66419Z" fill="#FF9800"/>
<path d="M21.8994 7.63672L22.3294 7.74942L22.5549 7.78614L22.1472 7.67703L21.8994 7.63672Z" fill="#FF9400"/>
<path d="M22.147 7.67694L22.5547 7.78605L22.7795 7.88356L22.3942 7.78421L22.147 7.67694Z" fill="#FF9400"/>
<path d="M21.4326 12.8285L21.7211 12.5152L21.4939 12.3187L21.1836 12.6132L21.4326 12.8285Z" fill="#0074FF"/>
<path d="M21.184 12.6132L21.4943 12.3187L21.2828 12.0687L20.9521 12.3394L21.184 12.6132Z" fill="#0084FF"/>
<path d="M21.6926 12.9799L21.9585 12.6532L21.7212 12.5152L21.4326 12.8286L21.6926 12.9799Z" fill="#0068FF"/>
<path d="M20.9521 12.3393L21.2828 12.0687L21.0923 11.7712L20.7432 12.0136L20.9521 12.3393Z" fill="#00A0FF"/>
<path d="M21.9569 13.0635L22.1999 12.7291L21.9583 12.6531L21.6924 12.9798L21.9569 13.0635Z" fill="#0064FF"/>
<path d="M20.7429 12.0136L21.0921 11.7713L20.9274 11.4338L20.562 11.644L20.7429 12.0136Z" fill="#00C0FF"/>
<path d="M22.2196 13.077L22.4398 12.7411L22.2 12.7291L21.957 13.0634L22.2196 13.077Z" fill="#0064FF"/>
<path d="M20.5623 11.644L20.9277 11.4339L20.793 11.0645L20.4141 11.2395L20.5623 11.644Z" fill="#00E4F8"/>
<path d="M22.4737 13.0201L22.672 12.6887L22.44 12.7412L22.2197 13.0771L22.4737 13.0201Z" fill="#0070FF"/>
<path d="M20.4139 11.2394L20.7928 11.0645L20.6916 10.6724L20.3022 10.8099L20.4139 11.2394Z" fill="#1FFFD7"/>
<path d="M22.7127 12.8938L22.8903 12.573L22.6719 12.6889L22.4736 13.0203L22.7127 12.8938Z" fill="#0080FF"/>
<path d="M20.3022 10.81L20.6915 10.6725L20.6264 10.2675L20.23 10.3662L20.3022 10.81Z" fill="#40FFB7"/>
<path d="M22.931 12.7005L23.0897 12.3961L22.8905 12.5729L22.7129 12.8937L22.931 12.7005Z" fill="#0098FF"/>
<path d="M20.2298 10.3662L20.6263 10.2675L20.5992 9.85974L20.1992 9.91921L20.2298 10.3662Z" fill="#66FF90"/>
<path d="M23.1226 12.445L23.2648 12.1625L23.0899 12.396L22.9312 12.7005L23.1226 12.445Z" fill="#00B4FF"/>
<path d="M20.1992 9.91909L20.5992 9.85962L20.6111 9.45947L20.2113 9.48027L20.1992 9.91909Z" fill="#8AFF6D"/>
<path d="M20.2114 9.48045L20.6112 9.45965L20.662 9.07742L20.2661 9.0611L20.2114 9.48045Z" fill="#ADFF49"/>
<path d="M20.2661 9.06112L20.662 9.07744L20.7506 8.7231L20.3624 8.67218L20.2661 9.06112Z" fill="#D1FF26"/>
<path d="M20.3623 8.6722L20.7506 8.72311L20.875 8.40608L20.4979 8.32404L20.3623 8.6722Z" fill="#F4F802"/>
<path d="M20.498 8.32399L20.8751 8.40603L21.0324 8.13488L20.6698 8.02606L20.498 8.32399Z" fill="#FFD700"/>
<path d="M20.6699 8.02603L21.0325 8.13485L21.2187 7.91703L20.8735 7.78656L20.6699 8.02603Z" fill="#FFB900"/>
<path d="M20.8735 7.78648L21.2187 7.91695L21.429 7.75857L21.1038 7.61224L20.8735 7.78648Z" fill="#FF9F00"/>
<path d="M21.1035 7.61219L21.4287 7.75852L21.6577 7.66414L21.3545 7.50824L21.1035 7.61219Z" fill="#FF8D00"/>
<path d="M21.3545 7.50845L21.6577 7.66435L21.8993 7.63681L21.6195 7.47797L21.3545 7.50845Z" fill="#FF8200"/>
<path d="M21.6196 7.47784L21.8994 7.63669L22.1472 7.677L21.8916 7.52197L21.6196 7.47784Z" fill="#FF7A00"/>
<path d="M21.8916 7.52203L22.1472 7.67707L22.3945 7.78435L22.1631 7.63981L21.8916 7.52203Z" fill="#FF7E00"/>
<path d="M23.2647 12.1624L23.565 11.8659L23.4052 12.0791L23.0898 12.396L23.2647 12.1624Z" fill="#00C8FF"/>
<path d="M21.2182 13.5414L21.2119 13.3573L20.9174 13.1027L20.9014 13.2673L21.2182 13.5414Z" fill="#0028FF"/>
<path d="M20.9017 13.2675L20.9177 13.1028L20.6434 12.7791L20.6064 12.9192L20.9017 13.2675Z" fill="#0040FF"/>
<path d="M21.549 13.7347L21.5193 13.5369L21.2119 13.3575L21.2182 13.5416L21.549 13.7347Z" fill="#0018FF"/>
<path d="M20.6062 12.9192L20.6432 12.7791L20.3957 12.3942L20.3398 12.5051L20.6062 12.9192Z" fill="#0060FF"/>
<path d="M21.8858 13.842L21.8323 13.6363L21.5195 13.5368L21.5492 13.7346L21.8858 13.842Z" fill="#0010FF"/>
<path d="M20.3403 12.5051L20.3961 12.3942L20.1816 11.9573L20.1094 12.0351L20.3403 12.5051Z" fill="#0088FF"/>
<path d="M22.2199 13.8607L22.1425 13.6535L21.832 13.6365L21.8856 13.8421L22.2199 13.8607Z" fill="#0014FF"/>
<path d="M20.1091 12.035L20.1814 11.9572L20.0053 11.4789L19.9194 11.5204L20.1091 12.035Z" fill="#00B4FF"/>
<path d="M22.5436 13.7896L22.4431 13.587L22.1426 13.6534L22.2199 13.8606L22.5436 13.7896Z" fill="#0020FF"/>
<path d="M19.9194 11.5203L20.0052 11.4789L19.8721 10.9709L19.7759 10.9735L19.9194 11.5203Z" fill="#02E8F4"/>
<path d="M22.8488 13.6301L22.7264 13.4384L22.4434 13.5869L22.5438 13.7895L22.8488 13.6301Z" fill="#0038FF"/>
<path d="M19.7756 10.9736L19.8718 10.971L19.7853 10.4457L19.6821 10.408L19.7756 10.9736Z" fill="#30FFC7"/>
<path d="M23.1271 13.386L22.9845 13.2112L22.7261 13.4386L22.8485 13.6304L23.1271 13.386Z" fill="#0054FF"/>
<path d="M19.6823 10.4081L19.7854 10.4458L19.7479 9.91634L19.6416 9.83777L19.6823 10.4081Z" fill="#60FF97"/>
<path d="M23.3719 13.0617L23.2114 12.9096L22.9844 13.2109L23.127 13.3857L23.3719 13.0617Z" fill="#007CFF"/>
<path d="M19.6416 9.83762L19.7479 9.91619L19.7609 9.39598L19.6552 9.27698L19.6416 9.83762Z" fill="#8DFF6A"/>
<path d="M23.5768 12.6658L23.401 12.5417L23.2114 12.9099L23.372 13.0619L23.5768 12.6658Z" fill="#00A8FF"/>
<path d="M19.6553 9.27701L19.7609 9.39601L19.8244 8.89837L19.7233 8.74042L19.6553 9.27701Z" fill="#BEFF39"/>
<path d="M23.7361 12.2069L23.5484 12.1155L23.4014 12.5415L23.5771 12.6656L23.7361 12.2069Z" fill="#00D8FF"/>
<path d="M19.7231 8.74065L19.8242 8.8986L19.9371 8.43658L19.8444 8.24219L19.7231 8.74065Z" fill="#EBFF0C"/>
<path d="M23.8447 11.6969L23.6486 11.642L23.5483 12.1155L23.736 12.207L23.8447 11.6969Z" fill="#23FFD4"/>
<path d="M19.8447 8.24218L19.9374 8.43657L20.0971 8.02256L20.0166 7.79523L19.8447 8.24218Z" fill="#FFD300"/>
<path d="M23.8995 11.1481L23.6988 11.1328L23.6484 11.6419L23.8446 11.6968L23.8995 11.1481Z" fill="#50FFA7"/>
<path d="M20.0166 7.79509L20.0971 8.02242L20.2999 7.66767L20.2351 7.41187L20.0166 7.79509Z" fill="#FFA700"/>
<path d="M23.899 10.5751L23.6978 10.6013L23.699 11.1329L23.8997 11.1482L23.899 10.5751Z" fill="#80FF77"/>
<path d="M20.2349 7.41196L20.2997 7.66776L20.5407 7.38224L20.4945 7.10327L20.2349 7.41196Z" fill="#FF8200"/>
<path d="M23.8421 9.9928L23.6445 10.0616L23.6978 10.6016L23.899 10.5753L23.8421 9.9928Z" fill="#B1FF46"/>
<path d="M20.4946 7.10329L20.5408 7.38225L20.8137 7.17414L20.7889 6.87805L20.4946 7.10329Z" fill="#FF6000"/>
<path d="M23.7299 9.41626L23.54 9.52727L23.6443 10.0614L23.8419 9.99262L23.7299 9.41626Z" fill="#DEFF19"/>
<path d="M20.7886 6.87792L20.8134 7.17401L21.1112 7.04946L21.1098 6.74286L20.7886 6.87792Z" fill="#FF4A00"/>
<path d="M23.5655 8.86176L23.3872 9.01356L23.54 9.52733L23.7299 9.41632L23.5655 8.86176Z" fill="#FFE200"/>
<path d="M21.1099 6.74295L21.1112 7.04956L21.426 7.01249L21.4495 6.70239L21.1099 6.74295Z" fill="#FF3800"/>
<path d="M23.3529 8.34418L23.1899 8.53414L23.3875 9.0135L23.5657 8.86169L23.3529 8.34418Z" fill="#FFB200"/>
<path d="M21.4498 6.70221L21.4263 7.01231L21.7495 7.06419L21.7987 6.75776L21.4498 6.70221Z" fill="#FF3000"/>
<path d="M23.097 7.87805L22.9526 8.10243L23.1897 8.53416L23.3526 8.3442L23.097 7.87805Z" fill="#FF8D00"/>
<path d="M21.7986 6.758L21.7495 7.06443L22.0725 7.20418L22.1472 6.90853L21.7986 6.758Z" fill="#FF3400"/>
<path d="M22.8057 7.47638L22.6826 7.7304L22.9529 8.10254L23.0972 7.87816L22.8057 7.47638Z" fill="#FF6800"/>
<path d="M22.1475 6.90851L22.0728 7.20416L22.3866 7.42818L22.4862 7.15017L22.1475 6.90851Z" fill="#FF3B00"/>
<path d="M22.4859 7.15015L22.3862 7.42816L22.6823 7.7304L22.8054 7.47638L22.4859 7.15015Z" fill="#FF4E00"/>
<path d="M21.2124 13.3577L21.2725 13.1148L21.0009 12.8799L20.918 13.103L21.2124 13.3577Z" fill="#0040FF"/>
<path d="M20.9174 13.1028L21.0004 12.8797L20.7474 12.5811L20.6431 12.7791L20.9174 13.1028Z" fill="#0058FF"/>
<path d="M21.5193 13.5368L21.5555 13.2799L21.272 13.1146L21.2119 13.3575L21.5193 13.5368Z" fill="#0034FF"/>
<path d="M20.6435 12.7791L20.7478 12.5811L20.5196 12.2259L20.396 12.3941L20.6435 12.7791Z" fill="#0074FF"/>
<path d="M21.8323 13.6365L21.8443 13.3716L21.5558 13.2801L21.5195 13.537L21.8323 13.6365Z" fill="#002CFF"/>
<path d="M20.3957 12.3942L20.5193 12.226L20.3216 11.8229L20.1812 11.9573L20.3957 12.3942Z" fill="#009CFF"/>
<path d="M22.1425 13.6533L22.1303 13.3867L21.844 13.3714L21.832 13.6363L22.1425 13.6533Z" fill="#0030FF"/>
<path d="M20.1815 11.9572L20.3219 11.8228L20.1598 11.3816L20.0054 11.479L20.1815 11.9572Z" fill="#00C4FF"/>
<path d="M22.4431 13.5871L22.4074 13.3252L22.1304 13.3868L22.1426 13.6534L22.4431 13.5871Z" fill="#003CFF"/>
<path d="M20.0052 11.479L20.1596 11.3816L20.0372 10.9131L19.8721 10.971L20.0052 11.479Z" fill="#0CF4EB"/>
<path d="M22.7264 13.4385L22.6686 13.1877L22.4077 13.3252L22.4434 13.587L22.7264 13.4385Z" fill="#0050FF"/>
<path d="M19.8722 10.971L20.0373 10.9131L19.9579 10.4288L19.7856 10.4458L19.8722 10.971Z" fill="#36FFC1"/>
<path d="M22.9847 13.2111L22.9065 12.9775L22.6685 13.1878L22.7263 13.4386L22.9847 13.2111Z" fill="#006CFF"/>
<path d="M19.7855 10.4456L19.9578 10.4287L19.9237 9.94077L19.748 9.9162L19.7855 10.4456Z" fill="#60FF97"/>
<path d="M23.2115 12.9097L23.1152 12.6992L22.9062 12.9775L22.9845 13.211L23.2115 12.9097Z" fill="#0090FF"/>
<path d="M19.748 9.9162L19.9237 9.94077L19.9361 9.46156L19.761 9.396L19.748 9.9162Z" fill="#8DFF6A"/>
<path d="M23.4011 12.5416L23.2897 12.3595L23.1152 12.6992L23.2115 12.9097L23.4011 12.5416Z" fill="#00B8FF"/>
<path d="M19.7612 9.39608L19.9363 9.46165L19.9953 9.00345L19.8247 8.89844L19.7612 9.39608Z" fill="#B7FF40"/>
<path d="M23.5485 12.1156L23.4251 11.9667L23.29 12.3596L23.4015 12.5417L23.5485 12.1156Z" fill="#02E8F4"/>
<path d="M19.8247 8.89845L19.9953 9.00346L20.0997 8.57832L19.9376 8.43646L19.8247 8.89845Z" fill="#E1FF16"/>
<path d="M23.6484 11.642L23.5167 11.5301L23.4248 11.9666L23.5482 12.1155L23.6484 11.642Z" fill="#29FFCE"/>
<path d="M19.937 8.43637L20.0991 8.57823L20.2466 8.19745L20.0967 8.02234L19.937 8.43637Z" fill="#FFDE00"/>
<path d="M23.6991 11.1328L23.5631 11.061L23.5171 11.53L23.6487 11.6419L23.6991 11.1328Z" fill="#53FFA4"/>
<path d="M20.0972 8.02253L20.2471 8.19764L20.4342 7.87159L20.3 7.66779L20.0972 8.02253Z" fill="#FFB600"/>
<path d="M23.6978 10.6014L23.5615 10.5718L23.563 11.0612L23.699 11.1329L23.6978 10.6014Z" fill="#80FF77"/>
<path d="M20.2998 7.66766L20.434 7.87147L20.656 7.60923L20.5408 7.38214L20.2998 7.66766Z" fill="#FF9400"/>
<path d="M23.6446 10.0616L23.5122 10.075L23.5615 10.572L23.6978 10.6016L23.6446 10.0616Z" fill="#ADFF49"/>
<path d="M20.541 7.38219L20.6563 7.60928L20.9077 7.41831L20.8139 7.17407L20.541 7.38219Z" fill="#FF7700"/>
<path d="M23.5403 9.52728L23.416 9.58345L23.5122 10.0748L23.6446 10.0614L23.5403 9.52728Z" fill="#D7FF1F"/>
<path d="M20.8135 7.1741L20.9072 7.41835L21.1813 7.30426L21.1113 7.04956L20.8135 7.1741Z" fill="#FF6000"/>
<path d="M23.3872 9.01343L23.2749 9.11087L23.4157 9.58335L23.54 9.52718L23.3872 9.01343Z" fill="#FEED00"/>
<path d="M21.1118 7.04958L21.1819 7.30427L21.4715 7.27059L21.4266 7.01251L21.1118 7.04958Z" fill="#FF5200"/>
<path d="M23.1899 8.53436L23.0933 8.67043L23.2751 9.11117L23.3874 9.01373L23.1899 8.53436Z" fill="#FFC400"/>
<path d="M21.4263 7.01257L21.4712 7.27065L21.7685 7.31868L21.7495 7.06445L21.4263 7.01257Z" fill="#FF4A00"/>
<path d="M22.9527 8.1026L22.875 8.2735L23.0931 8.67041L23.1897 8.53434L22.9527 8.1026Z" fill="#FF9F00"/>
<path d="M21.7495 7.06433L21.7685 7.31856L22.0656 7.44727L22.0725 7.20408L21.7495 7.06433Z" fill="#FF4A00"/>
<path d="M22.6829 7.73041L22.627 7.93133L22.8755 8.27345L22.9532 8.10255L22.6829 7.73041Z" fill="#FF7E00"/>
<path d="M22.0729 7.20416L22.0659 7.44735L22.3545 7.65344L22.3867 7.42819L22.0729 7.20416Z" fill="#FF5500"/>
<path d="M22.3867 7.42816L22.3545 7.65342L22.6268 7.93132L22.6828 7.7304L22.3867 7.42816Z" fill="#FF6800"/>
<path d="M21.2726 13.1146L21.4328 12.8284L21.1839 12.6132L21.001 12.8797L21.2726 13.1146Z" fill="#005CFF"/>
<path d="M21.0011 12.8796L21.1839 12.6131L20.9521 12.3392L20.748 12.5809L21.0011 12.8796Z" fill="#0070FF"/>
<path d="M21.556 13.2799L21.6926 12.9798L21.4327 12.8284L21.2725 13.1146L21.556 13.2799Z" fill="#004CFF"/>
<path d="M20.7482 12.5811L20.9522 12.3394L20.7433 12.0137L20.52 12.2259L20.7482 12.5811Z" fill="#008CFF"/>
<path d="M21.8446 13.3715L21.9573 13.0635L21.6928 12.9799L21.5562 13.28L21.8446 13.3715Z" fill="#0048FF"/>
<path d="M20.5194 12.226L20.7427 12.0138L20.5618 11.6441L20.3218 11.8229L20.5194 12.226Z" fill="#00ACFF"/>
<path d="M22.1306 13.3868L22.2195 13.0772L21.9569 13.0635L21.8442 13.3715L22.1306 13.3868Z" fill="#004CFF"/>
<path d="M20.3218 11.8228L20.5618 11.644L20.4136 11.2395L20.1597 11.3816L20.3218 11.8228Z" fill="#00D4FF"/>
<path d="M22.4079 13.3252L22.4738 13.0203L22.2198 13.0772L22.1309 13.3869L22.4079 13.3252Z" fill="#0054FF"/>
<path d="M20.16 11.3816L20.414 11.2395L20.3022 10.81L20.0376 10.9131L20.16 11.3816Z" fill="#16FFE1"/>
<path d="M22.6686 13.1877L22.7127 12.8937L22.4736 13.0201L22.4077 13.3251L22.6686 13.1877Z" fill="#0068FF"/>
<path d="M20.0374 10.9132L20.3021 10.8101L20.2299 10.3663L19.958 10.4289L20.0374 10.9132Z" fill="#3CFFBA"/>
<path d="M22.907 12.9776L22.9311 12.7006L22.713 12.8938L22.6689 13.1878L22.907 12.9776Z" fill="#0080FF"/>
<path d="M19.9579 10.4288L20.2298 10.3662L20.1992 9.91919L19.9238 9.94088L19.9579 10.4288Z" fill="#63FF94"/>
<path d="M23.1157 12.6993L23.1223 12.4451L22.9309 12.7006L22.9067 12.9776L23.1157 12.6993Z" fill="#00A0FF"/>
<path d="M19.9243 9.94076L20.1997 9.91906L20.2117 9.48025L19.9367 9.46155L19.9243 9.94076Z" fill="#8DFF6A"/>
<path d="M23.2901 12.3595L23.282 12.1334L23.1223 12.445L23.1157 12.6992L23.2901 12.3595Z" fill="#00C8FF"/>
<path d="M19.9365 9.46161L20.2115 9.48031L20.2662 9.06094L19.9955 9.00342L19.9365 9.46161Z" fill="#B4FF43"/>
<path d="M23.4254 11.9665L23.4059 11.7731L23.2822 12.1333L23.2903 12.3594L23.4254 11.9665Z" fill="#0CF4EB"/>
<path d="M19.9951 9.00334L20.2658 9.06087L20.3621 8.67194L20.0995 8.57819L19.9951 9.00334Z" fill="#DBFF1C"/>
<path d="M23.5173 11.5301L23.4898 11.3733L23.4058 11.7732L23.4253 11.9666L23.5173 11.5301Z" fill="#30FFC7"/>
<path d="M20.0996 8.57824L20.3622 8.67199L20.4978 8.32383L20.2471 8.19745L20.0996 8.57824Z" fill="#FEED00"/>
<path d="M23.5632 11.0611L23.5318 10.9438L23.4897 11.3732L23.5172 11.5301L23.5632 11.0611Z" fill="#56FFA0"/>
<path d="M20.2476 8.19763L20.4982 8.32401L20.67 8.02608L20.4347 7.87158L20.2476 8.19763Z" fill="#FFC800"/>
<path d="M23.5674 10.5719L23.5303 10.496L23.532 10.9439L23.5692 11.0612L23.5674 10.5719Z" fill="#80FF77"/>
<path d="M20.4346 7.87137L20.6699 8.02586L20.8735 7.7864L20.6566 7.60913L20.4346 7.87137Z" fill="#FFA700"/>
<path d="M23.5126 10.0748L23.4854 10.0413L23.5305 10.4959L23.5619 10.5718L23.5126 10.0748Z" fill="#A7FF50"/>
<path d="M20.6562 7.6093L20.8732 7.78657L21.1035 7.61233L20.9076 7.41833L20.6562 7.6093Z" fill="#FF8D00"/>
<path d="M23.416 9.58356L23.397 9.59211L23.485 10.0414L23.5122 10.0749L23.416 9.58356Z" fill="#CEFF29"/>
<path d="M20.9077 7.41829L21.1035 7.61228L21.3545 7.50833L21.1819 7.3042L20.9077 7.41829Z" fill="#FF7700"/>
<path d="M23.275 9.11108L23.2681 9.16021L23.3968 9.59211L23.4158 9.58357L23.275 9.11108Z" fill="#F4F802"/>
<path d="M21.1816 7.30413L21.3543 7.50826L21.6193 7.47777L21.4713 7.27045L21.1816 7.30413Z" fill="#FF6C00"/>
<path d="M23.0933 8.6701L23.1019 8.75719L23.2681 9.15996L23.2751 9.11084L23.0933 8.6701Z" fill="#FFD300"/>
<path d="M21.4717 7.27063L21.6197 7.47796L21.8917 7.52208L21.769 7.31865L21.4717 7.27063Z" fill="#FF6400"/>
<path d="M22.8755 8.27338L22.9029 8.3947L23.1023 8.75736L23.0936 8.67028L22.8755 8.27338Z" fill="#FFB200"/>
<path d="M21.769 7.3186L21.8917 7.52203L22.1632 7.63981L22.0661 7.44732L21.769 7.3186Z" fill="#FF6400"/>
<path d="M22.627 7.93121L22.6758 8.08206L22.9029 8.39465L22.8755 8.27333L22.627 7.93121Z" fill="#FF9400"/>
<path d="M22.0659 7.4472L22.163 7.63969L22.4268 7.82809L22.3545 7.65329L22.0659 7.4472Z" fill="#FF6C00"/>
<path d="M22.3545 7.6532L22.4268 7.82799L22.6756 8.08195L22.6268 7.9311L22.3545 7.6532Z" fill="#FF7E00"/>
<path d="M21.2568 13.6536L21.2187 13.5417L20.9019 13.2676L20.9187 13.3611L21.2568 13.6536Z" fill="#000CFF"/>
<path d="M20.9185 13.3611L20.9016 13.2676L20.6064 12.9193L20.6035 12.9895L20.9185 13.3611Z" fill="#0028FF"/>
<path d="M21.6098 13.8596L21.5495 13.7347L21.2188 13.5416L21.2569 13.6534L21.6098 13.8596Z" fill="#0000FF"/>
<path d="M20.6036 12.9895L20.6065 12.9193L20.3402 12.5052L20.3193 12.5476L20.6036 12.9895Z" fill="#004CFF"/>
<path d="M21.969 13.9743L21.8859 13.8421L21.5493 13.7347L21.6097 13.8596L21.969 13.9743Z" fill="#0000FF"/>
<path d="M20.3193 12.5474L20.3401 12.505L20.1091 12.0349L20.0728 12.0458L20.3193 12.5474Z" fill="#0074FF"/>
<path d="M22.3257 13.9943L22.22 13.8605L21.8857 13.8419L21.9688 13.9742L22.3257 13.9943Z" fill="#0000FF"/>
<path d="M20.0727 12.0459L20.109 12.0351L19.9194 11.5205L19.8701 11.4966L20.0727 12.0459Z" fill="#00A8FF"/>
<path d="M22.6716 13.9189L22.5439 13.7896L22.2202 13.8606L22.3259 13.9943L22.6716 13.9189Z" fill="#0008FF"/>
<path d="M19.8701 11.4966L19.9194 11.5205L19.7759 10.9737L19.7168 10.9128L19.8701 11.4966Z" fill="#00E0FB"/>
<path d="M22.9977 13.7489L22.849 13.6301L22.5439 13.7895L22.6717 13.9187L22.9977 13.7489Z" fill="#0020FF"/>
<path d="M19.7167 10.9129L19.7757 10.9737L19.6823 10.4082L19.6167 10.3088L19.7167 10.9129Z" fill="#2CFFCA"/>
<path d="M23.2957 13.4886L23.1277 13.386L22.8491 13.6304L22.9978 13.7492L23.2957 13.4886Z" fill="#0040FF"/>
<path d="M19.6169 10.3086L19.6824 10.408L19.6418 9.83767L19.5732 9.69928L19.6169 10.3086Z" fill="#5DFF9A"/>
<path d="M23.5576 13.1426L23.3724 13.0618L23.1274 13.3858L23.2955 13.4883L23.5576 13.1426Z" fill="#0068FF"/>
<path d="M19.5732 9.6995L19.6418 9.83789L19.6554 9.27725L19.5876 9.10016L19.5732 9.6995Z" fill="#90FF66"/>
<path d="M23.7767 12.7199L23.5769 12.6658L23.3721 13.0619L23.5573 13.1427L23.7767 12.7199Z" fill="#0098FF"/>
<path d="M19.5874 9.10016L19.6552 9.27725L19.7233 8.74068L19.6599 8.52625L19.5874 9.10016Z" fill="#C1FF36"/>
<path d="M23.9476 12.2297L23.7362 12.2069L23.5771 12.6656L23.777 12.7197L23.9476 12.2297Z" fill="#00CCFF"/>
<path d="M19.6602 8.52594L19.7236 8.74037L19.8449 8.24192L19.7896 7.99249L19.6602 8.52594Z" fill="#F4F802"/>
<path d="M24.0647 11.6848L23.845 11.6969L23.7363 12.207L23.9478 12.2299L24.0647 11.6848Z" fill="#1CFFDB"/>
<path d="M19.7896 7.99249L19.8449 8.24192L20.0167 7.79496L19.9731 7.51385L19.7896 7.99249Z" fill="#FFC400"/>
<path d="M24.1239 11.0981L23.8997 11.1482L23.8447 11.6969L24.0644 11.6847L24.1239 11.0981Z" fill="#4DFFAA"/>
<path d="M19.9731 7.51394L20.0168 7.79505L20.2353 7.41184L20.2066 7.10327L19.9731 7.51394Z" fill="#FF9800"/>
<path d="M24.1244 10.4852L23.8994 10.5751L23.9001 11.1482L24.1244 11.0982L24.1244 10.4852Z" fill="#80FF77"/>
<path d="M20.2065 7.10333L20.2352 7.4119L20.4949 7.10321L20.4841 6.77228L20.2065 7.10333Z" fill="#FF6F00"/>
<path d="M24.064 9.86188L23.8423 9.99252L23.8991 10.575L24.1241 10.4851L24.064 9.86188Z" fill="#B4FF43"/>
<path d="M20.4839 6.77213L20.4947 7.10307L20.7889 6.87783L20.7986 6.53027L20.4839 6.77213Z" fill="#FF4A00"/>
<path d="M23.9445 9.24524L23.73 9.41637L23.842 9.99271L24.0636 9.86206L23.9445 9.24524Z" fill="#E4FF13"/>
<path d="M20.7987 6.53029L20.7891 6.87784L21.1103 6.74279L21.1424 6.38495L20.7987 6.53029Z" fill="#FF3000"/>
<path d="M23.7694 8.65167L23.5659 8.8619L23.7304 9.41645L23.9449 9.24532L23.7694 8.65167Z" fill="#FFD300"/>
<path d="M21.1425 6.38519L21.1104 6.74303L21.45 6.70246L21.5059 6.34106L21.1425 6.38519Z" fill="#FF2200"/>
<path d="M23.542 8.09741L23.353 8.34422L23.5659 8.86175L23.7694 8.65152L23.542 8.09741Z" fill="#FFA300"/>
<path d="M21.5061 6.341L21.4502 6.7024L21.7991 6.75794L21.8795 6.39987L21.5061 6.341Z" fill="#FF1A00"/>
<path d="M23.2685 7.59833L23.0972 7.8781L23.3528 8.34425L23.5418 8.09744L23.2685 7.59833Z" fill="#FF7A00"/>
<path d="M21.8792 6.39996L21.7988 6.75803L22.1474 6.90858L22.2523 6.56071L21.8792 6.39996Z" fill="#FF1A00"/>
<path d="M22.9567 7.16803L22.8057 7.47617L23.0972 7.87796L23.2686 7.59818L22.9567 7.16803Z" fill="#FF5500"/>
<path d="M22.2524 6.56061L22.1475 6.90848L22.4862 7.15014L22.6149 6.81909L22.2524 6.56061Z" fill="#FF2500"/>
<path d="M22.615 6.81897L22.4863 7.15002L22.8059 7.47625L22.9569 7.16811L22.615 6.81897Z" fill="#FF3800"/>
<defs>
<clipPath id="clip0_144_590580">
<rect width="14" height="14" fill="white" transform="translate(18 17)"/>
</clipPath>
</defs>
</svg>
