<svg width="32" height="32" viewBox="0 0 32 32" fill="none" xmlns="http://www.w3.org/2000/svg">
<path d="M14.5 29C22.5081 29 29 22.5081 29 14.5C29 6.49187 22.5081 0 14.5 0C6.49188 0 0 6.49187 0 14.5C0 22.5081 6.49188 29 14.5 29Z" fill="black"/>
<path fill-rule="evenodd" clip-rule="evenodd" d="M14.169 16.9225C12.1061 16.7407 10.6045 15.6636 10.5285 13.707H13.289C13.3496 14.3289 13.6531 14.7078 14.1686 14.875V12.4784L14.0208 12.4398C12.4249 12.0245 10.513 11.5269 10.513 9.21718C10.513 7.32121 12.1058 6.19859 14.1686 6.06197V4.83334H15.1395V6.06197C17.2175 6.22887 18.5525 7.2906 18.6888 9.21718H15.9132C15.8526 8.65585 15.5645 8.30689 15.1398 8.15544V10.5064C15.2267 10.5307 15.3149 10.555 15.404 10.5796L15.4041 10.5796C16.9794 11.014 18.8405 11.5271 18.8405 13.7524C18.8405 15.3903 17.5362 16.8316 15.1398 16.9376V18.1663H14.169V16.9225ZM14.169 10.1877V8.07939C13.6077 8.1706 13.2587 8.50407 13.2587 9.09568C13.2587 9.62637 13.6228 9.94508 14.169 10.1877ZM16.1255 13.8433C16.1255 14.4046 15.7462 14.8142 15.1395 14.9202V12.7665C15.7311 12.9939 16.1255 13.2971 16.1255 13.8433Z" fill="white"/>
<path fill-rule="evenodd" clip-rule="evenodd" d="M5.90746 20.0706H23.253V22.6844H5.90746V20.0706Z" fill="white"/>
<path fill-rule="evenodd" clip-rule="evenodd" d="M25.2238 29.2769C25.9446 29.0075 26.6934 28.8117 27.443 28.6344C28.0423 28.4926 28.6422 28.3627 29.24 28.2085C29.6132 28.1122 29.9854 28.0066 30.3336 27.8409C30.612 27.7085 30.8746 27.5379 31.0907 27.3212C31.3065 27.1044 31.4758 26.8417 31.6024 26.5629C31.7609 26.2144 31.8528 25.8406 31.9164 25.4615C31.9928 25.007 32.0285 24.5449 31.9731 24.0925C31.9176 23.64 31.771 23.1968 31.5718 22.7811C31.3727 22.3651 31.121 21.9767 30.8217 21.6293C30.4224 21.1658 29.9386 20.7753 29.4269 20.4324C28.7866 20.0032 28.1028 19.6483 27.4016 19.3326C26.7002 19.0169 25.9813 18.7405 25.2476 18.5065C24.6603 18.3193 24.0637 18.1593 23.4534 18.0703C22.9965 18.0036 22.5319 17.9768 22.071 18.0234C21.6108 18.0701 21.1545 18.19 20.7422 18.3961C20.3299 18.6022 19.9616 18.8943 19.6478 19.2314C19.3334 19.5688 19.0734 19.9514 18.8571 20.3563C18.6405 20.7616 18.4678 21.1894 18.3363 21.6288C18.2048 22.0683 18.1145 22.5197 18.0607 22.9752C17.989 23.5823 17.9822 24.1964 18.0329 24.8048C18.0964 25.565 18.2496 26.3163 18.4249 27.0624C18.6005 27.8083 18.7981 28.5494 19.0987 29.2529C19.3391 29.8154 19.6452 30.3543 20.0491 30.8176C20.3012 31.1069 20.5916 31.3668 20.9183 31.5705C21.1796 31.7335 21.4641 31.8603 21.763 31.9319C21.9875 31.9857 22.2201 32.008 22.4514 31.9975C22.6825 31.987 22.9124 31.9435 23.1301 31.8673C23.4197 31.7657 23.6882 31.6059 23.9236 31.4088C24.2184 31.162 24.4616 30.8566 24.6626 30.5293C24.9041 30.1365 25.0847 29.7123 25.2238 29.2769Z" fill="white"/>
<path fill-rule="evenodd" clip-rule="evenodd" d="M22.0491 31.0226L21.6693 30.9012L21.2958 30.683L20.9177 30.3611L20.6064 29.9895L20.3218 29.5474L20.0729 29.046L19.8383 28.4207L19.5577 27.5515L19.2976 26.5858L19.2127 26.232L19.0854 25.4711L19.0357 25.0742L18.9804 24.3338L18.9947 23.5964L19.0854 22.8686L19.2378 22.191L19.3382 21.7652L19.5577 21.1614L19.8237 20.6686L20.4049 19.8803L20.7368 19.5945L21.1003 19.3368L21.4227 19.1745L21.8826 19.0386L22.7093 18.9813L23.4145 19.0549L24.2468 19.2222L25.1733 19.4939L26.1504 19.8427L27.1264 20.2585L27.2195 20.2901L28.1631 20.7595L28.995 21.2696L29.6408 21.7941L29.8141 21.9184L30.4203 22.607L30.5553 22.8255L30.8731 23.5602L30.9643 23.8425L31.0262 24.1497L31.0522 24.4642V24.8072L31.0274 25.1073L30.9048 25.721L30.8221 25.9936L30.7202 26.232L30.5781 26.4727L30.4203 26.6712L30.256 26.8065L29.7914 27.0596L29.2484 27.2436L28.4651 27.4489L27.7087 27.6341L26.7999 27.8512L26.1363 28.0325L25.8857 28.0928L25.0263 28.366L24.6213 28.5205L24.4451 28.5853L24.3947 28.8313L24.2906 29.1336L24.1978 29.3906L24.0967 29.6102L23.854 30.0686L23.5576 30.4492L23.2368 30.7313L22.7928 30.964L22.4169 31.0373L22.0491 31.0226Z" fill="url(#paint0_linear)"/>
<path d="M24.0664 22.4611L23.9616 22.6058L24.0506 23.3376L24.1329 23.1672L24.0664 22.4611Z" fill="#FBF100"/>
<path d="M22.7094 18.9722L22.1508 19.0065L22.4265 19.105L22.9162 19.0707L22.7094 18.9722Z" fill="#A40000"/>
<path d="M23.9684 21.7756L23.8307 21.8958L23.9616 22.6057L24.0663 22.4609L23.9684 21.7756Z" fill="#FFAE00"/>
<path d="M22.9163 19.0708L22.4265 19.105L22.7027 19.3228L23.1233 19.2841L22.9163 19.0708Z" fill="#A80000"/>
<path d="M23.8415 21.1303L23.6612 21.2279L23.8307 21.8959L23.9684 21.7757L23.8415 21.1303Z" fill="#FF7300"/>
<path d="M23.1231 19.284L22.7025 19.3228L22.9714 19.6544L23.3247 19.6068L23.1231 19.284Z" fill="#B60000"/>
<path d="M23.6889 20.5428L23.4575 20.6204L23.6611 21.2277L23.8414 21.1301L23.6889 20.5428Z" fill="#FF3F00"/>
<path d="M23.3248 19.6068L22.9715 19.6545L23.2255 20.0911L23.5151 20.0303L23.3248 19.6068Z" fill="#D60000"/>
<path d="M23.515 20.0302L23.2254 20.0909L23.4574 20.6204L23.6888 20.5428L23.515 20.0302Z" fill="#FF1300"/>
<path d="M25.1917 24.7556L24.7071 24.8574L24.6835 25.4035L25.1866 25.272L25.1917 24.7556Z" fill="#16FFE1"/>
<path d="M25.1961 24.1958L24.7202 24.2639L24.7072 24.8573L25.1918 24.7555L25.1961 24.1958Z" fill="#4DFFAA"/>
<path d="M25.1996 23.6071L24.7224 23.6386L24.7204 24.2639L25.1962 24.1958L25.1996 23.6071Z" fill="#80FF77"/>
<path d="M25.2016 23.0052L24.7129 22.998L24.7222 23.6387L25.1994 23.6072L25.2016 23.0052Z" fill="#B7FF40"/>
<path d="M25.2028 22.4062L24.6926 22.3593L24.7129 22.9981L25.2017 23.0053L25.2028 22.4062Z" fill="#EBFF0C"/>
<path d="M25.1733 19.4814L24.2468 19.2149L24.3161 19.3025L25.1799 19.5593L25.1733 19.4814Z" fill="#ED0400"/>
<path d="M25.2028 21.8262L24.6617 21.7399L24.6926 22.3593L25.2029 22.4061L25.2028 21.8262Z" fill="#FFCC00"/>
<path d="M25.1797 19.5595L24.3159 19.3027L24.3849 19.494L25.1858 19.7347L25.1797 19.5595Z" fill="#F10800"/>
<path d="M25.2016 21.2815L24.6209 21.1573L24.6617 21.7399L25.2028 21.8262L25.2016 21.2815Z" fill="#FF9800"/>
<path d="M25.1859 19.7346L24.385 19.4939L24.4517 19.7841L25.1912 20.0028L25.1859 19.7346Z" fill="#FF1300"/>
<path d="M25.1993 20.787L24.5715 20.6274L24.621 21.1572L25.2017 21.2814L25.1993 20.787Z" fill="#FF6C00"/>
<path d="M25.1911 20.0027L24.4517 19.784L24.5144 20.1654L25.1956 20.3568L25.1911 20.0027Z" fill="#FF2900"/>
<path d="M25.1958 20.357L24.5146 20.1656L24.5715 20.6276L25.1993 20.7872L25.1958 20.357Z" fill="#FF4700"/>
<path d="M24.7074 24.8575L24.3503 25.0128L24.3064 25.5871L24.6837 25.4037L24.7074 24.8575Z" fill="#13FCE4"/>
<path d="M24.7202 24.264L24.373 24.3878L24.3502 25.0126L24.7072 24.8574L24.7202 24.264Z" fill="#49FFAD"/>
<path d="M24.7223 23.6386L24.3502 23.7286L24.3731 24.3878L24.7203 24.264L24.7223 23.6386Z" fill="#80FF77"/>
<path d="M24.713 22.998L24.3525 23.0524L24.3739 23.7286L24.7222 23.6387L24.713 22.998Z" fill="#BAFF3C"/>
<path d="M24.6925 22.3593L24.3092 22.3778L24.3524 23.0526L24.7129 22.9981L24.6925 22.3593Z" fill="#F1FC06"/>
<path d="M24.2467 19.215L23.4146 19.0428L23.5515 19.1375L24.316 19.3026L24.2467 19.215Z" fill="#D10000"/>
<path d="M24.6616 21.7397L24.2451 21.7227L24.3092 22.3775L24.6925 22.3591L24.6616 21.7397Z" fill="#FFC100"/>
<path d="M24.3162 19.3025L23.5517 19.1374L23.6886 19.3417L24.3851 19.4938L24.3162 19.3025Z" fill="#D60000"/>
<path d="M24.621 21.1572L24.162 21.1062L24.2454 21.7228L24.6618 21.7399L24.621 21.1572Z" fill="#FF8900"/>
<path d="M24.385 19.4938L23.6884 19.3417L23.8215 19.6503L24.4517 19.784L24.385 19.4938Z" fill="#E40000"/>
<path d="M24.5714 20.6275L24.0617 20.5451L24.1619 21.1062L24.6209 21.1572L24.5714 20.6275Z" fill="#FF5D00"/>
<path d="M24.4518 19.7843L23.8216 19.6505L23.9471 20.0554L24.5145 20.1656L24.4518 19.7843Z" fill="#FF1300"/>
<path d="M24.5146 20.1654L23.9472 20.0552L24.0617 20.545L24.5714 20.6274L24.5146 20.1654Z" fill="#FF3400"/>
<path d="M25.777 24.7084L25.1919 24.7558L25.1868 25.2722L25.788 25.1939L25.777 24.7084Z" fill="#1CFFDB"/>
<path d="M25.7738 24.1837L25.1962 24.1958L25.1919 24.7556L25.777 24.7082L25.7738 24.1837Z" fill="#50FFA7"/>
<path d="M25.7788 23.6337L25.1996 23.6072L25.1963 24.1959L25.774 24.1838L25.7788 23.6337Z" fill="#80FF77"/>
<path d="M25.7913 23.0725L25.2017 23.0051L25.1995 23.6071L25.7786 23.6336L25.7913 23.0725Z" fill="#B4FF43"/>
<path d="M25.8117 22.5157L25.203 22.4062L25.2019 23.0054L25.7914 23.0728L25.8117 22.5157Z" fill="#E4FF13"/>
<path d="M25.8392 21.9776L25.2029 21.8261L25.203 22.406L25.8117 22.5155L25.8392 21.9776Z" fill="#FFD700"/>
<path d="M26.1505 19.8314L25.1733 19.4816L25.1799 19.5595L26.1016 19.8974L26.1505 19.8314Z" fill="#FF1E00"/>
<path d="M25.873 21.4736L25.2018 21.2814L25.203 21.8261L25.8392 21.9776L25.873 21.4736Z" fill="#FFA700"/>
<path d="M26.1017 19.8973L25.18 19.5593L25.1861 19.7346L26.0522 20.0541L26.1017 19.8973Z" fill="#FF1E00"/>
<path d="M25.9121 21.0176L25.1991 20.7871L25.2015 21.2815L25.8728 21.4737L25.9121 21.0176Z" fill="#FF7E00"/>
<path d="M26.0522 20.0542L25.1861 19.7346L25.1914 20.0029L26.0032 20.2979L26.0522 20.0542Z" fill="#FF2900"/>
<path d="M25.9559 20.622L25.1956 20.3569L25.1991 20.7871L25.9121 21.0176L25.9559 20.622Z" fill="#FF5900"/>
<path d="M26.0031 20.2978L25.1914 20.0027L25.1959 20.3568L25.9561 20.6219L26.0031 20.2978Z" fill="#FF3B00"/>
<path d="M24.3716 28.5931L25.1579 28.2959L25.0011 28.3792L24.2034 28.6827L24.3716 28.5931Z" fill="#00CCFF"/>
<path d="M24.5253 28.4573L25.3014 28.1696L25.158 28.296L24.3716 28.5932L24.5253 28.4573Z" fill="#00DCFE"/>
<path d="M24.6604 28.2782L25.4277 28.0033L25.3013 28.1695L24.5252 28.4572L24.6604 28.2782Z" fill="#09F0EE"/>
<path d="M24.7736 28.0605L25.5338 27.8013L25.4277 28.0034L24.6604 28.2783L24.7736 28.0605Z" fill="#1CFFDB"/>
<path d="M24.862 27.8094L25.6169 27.5684L25.534 27.8013L24.7738 28.0606L24.862 27.8094Z" fill="#33FFC4"/>
<path d="M24.9227 27.5311L25.6744 27.3103L25.6169 27.5682L24.862 27.8093L24.9227 27.5311Z" fill="#4DFFAA"/>
<path d="M24.9542 27.2332L25.7048 27.0341L25.6743 27.3104L24.9227 27.5313L24.9542 27.2332Z" fill="#63FF94"/>
<path d="M24.9557 26.9228L25.7073 26.7466L25.7048 27.0341L24.9543 27.2331L24.9557 26.9228Z" fill="#7DFF7A"/>
<path d="M24.9265 26.6084L25.6813 26.4553L25.7071 26.7466L24.9555 26.9229L24.9265 26.6084Z" fill="#97FF60"/>
<path d="M24.8678 26.2981L25.628 26.1679L25.6814 26.4552L24.9265 26.6084L24.8678 26.2981Z" fill="#B1FF46"/>
<path d="M24.7809 26.0002L25.5483 25.8921L25.628 26.1679L24.8679 26.298L24.7809 26.0002Z" fill="#C7FF30"/>
<path d="M24.6677 25.7227L25.4443 25.6353L25.5482 25.8922L24.7808 26.0003L24.6677 25.7227Z" fill="#DEFF19"/>
<path d="M23.6462 24.8413L24.4989 24.8198L24.6742 24.8481L23.835 24.872L23.6462 24.8413Z" fill="#FFCC00"/>
<path d="M24.5318 25.473L25.319 25.4042L25.4445 25.6353L24.668 25.7227L24.5318 25.473Z" fill="#F1FC06"/>
<path d="M23.835 24.872L24.6742 24.8481L24.8484 24.9233L24.0229 24.9532L23.835 24.872Z" fill="#FFCC00"/>
<path d="M24.376 25.2578L25.1751 25.205L25.3189 25.4041L24.5317 25.4729L24.376 25.2578Z" fill="#FFEA00"/>
<path d="M24.0229 24.9532L24.8484 24.9232L25.0169 25.0432L24.2048 25.0829L24.0229 24.9532Z" fill="#FFD000"/>
<path d="M24.2047 25.0829L25.0167 25.0433L25.1749 25.205L24.3758 25.2577L24.2047 25.0829Z" fill="#FFDB00"/>
<path d="M24.3526 23.0523L24.1329 23.167L24.1664 23.8744L24.374 23.7285L24.3526 23.0523Z" fill="#BEFF39"/>
<path d="M24.3095 22.3775L24.0665 22.4609L24.133 23.167L24.3527 23.0523L24.3095 22.3775Z" fill="#F8F500"/>
<path d="M23.4146 19.0428L22.7093 18.9722L22.9161 19.0707L23.5515 19.1375L23.4146 19.0428Z" fill="#BB0000"/>
<path d="M24.2453 21.7227L23.9684 21.7756L24.0664 22.4609L24.3094 22.3776L24.2453 21.7227Z" fill="#FFB900"/>
<path d="M23.5514 19.1375L22.916 19.0708L23.1231 19.2841L23.6884 19.3418L23.5514 19.1375Z" fill="#BF0000"/>
<path d="M24.1618 21.106L23.8413 21.1301L23.9683 21.7755L24.2451 21.7227L24.1618 21.106Z" fill="#FF7E00"/>
<path d="M23.6886 19.3418L23.1233 19.2841L23.3249 19.6068L23.8217 19.6505L23.6886 19.3418Z" fill="#CD0000"/>
<path d="M24.0617 20.5452L23.6891 20.543L23.8415 21.1303L24.162 21.1063L24.0617 20.5452Z" fill="#FF4E00"/>
<path d="M23.8216 19.6505L23.3248 19.6068L23.5152 20.0303L23.9472 20.0553L23.8216 19.6505Z" fill="#E80000"/>
<path d="M23.9471 20.0553L23.515 20.0304L23.6889 20.543L24.0616 20.5452L23.9471 20.0553Z" fill="#FF2200"/>
<path d="M23.8858 28.7627L24.5254 28.4572L24.3717 28.5931L23.7192 28.9105L23.8858 28.7627Z" fill="#00D0FF"/>
<path d="M24.032 28.568L24.6604 28.2782L24.5251 28.4573L23.8855 28.7628L24.032 28.568Z" fill="#00E4F8"/>
<path d="M24.1545 28.3307L24.7738 28.0603L24.6605 28.2781L24.0322 28.5679L24.1545 28.3307Z" fill="#16FFE1"/>
<path d="M24.2496 28.0574L24.862 27.8094L24.7738 28.0605L24.1546 28.331L24.2496 28.0574Z" fill="#2CFFCA"/>
<path d="M24.3147 27.7542L24.9227 27.5313L24.862 27.8094L24.2496 28.0574L24.3147 27.7542Z" fill="#46FFB1"/>
<path d="M24.3479 27.4291L24.9542 27.2332L24.9226 27.5312L24.3146 27.7542L24.3479 27.4291Z" fill="#63FF94"/>
<path d="M24.3483 27.0905L24.9555 26.9227L24.9541 27.233L24.3479 27.429L24.3483 27.0905Z" fill="#7DFF7A"/>
<path d="M24.3156 26.7474L24.9265 26.6083L24.9555 26.9228L24.3482 27.0906L24.3156 26.7474Z" fill="#9AFF5D"/>
<path d="M24.2505 26.4087L24.8678 26.2981L24.9265 26.6084L24.3155 26.7474L24.2505 26.4087Z" fill="#B7FF40"/>
<path d="M24.1548 26.0834L24.7809 26.0001L24.8679 26.298L24.2506 26.4086L24.1548 26.0834Z" fill="#D1FF26"/>
<path d="M24.0308 25.7802L24.668 25.7226L24.7811 26.0001L24.155 26.0834L24.0308 25.7802Z" fill="#E7FF0F"/>
<path d="M23.8814 25.5074L24.5317 25.4729L24.6679 25.7226L24.0307 25.7802L23.8814 25.5074Z" fill="#FBF100"/>
<path d="M23.711 25.2725L24.376 25.2578L24.5317 25.473L23.8815 25.5075L23.711 25.2725Z" fill="#FFDB00"/>
<path d="M19.491 27.3393L19.5995 27.6925L19.417 26.998L19.3045 26.6301L19.491 27.3393Z" fill="#00B4FF"/>
<path d="M19.2068 26.232L19.3073 26.6431L19.417 26.998L19.2974 26.2785L19.1279 25.6773L19.2068 26.232Z" fill="#16FFE1"/>
<path d="M19.1823 25.895L19.2975 26.2783L19.2445 25.5513L19.1279 25.1521L19.1823 25.895Z" fill="#56FFA0"/>
<path d="M19.1278 25.152L19.2444 25.5512L19.2601 24.8349L19.1433 24.4198L19.1278 25.152Z" fill="#97FF60"/>
<path d="M19.1435 24.4197L19.2603 24.8348L19.3451 24.1475L19.2295 23.7169L19.1435 24.4197Z" fill="#D4FF23"/>
<path d="M19.2293 23.717L19.3449 24.1475L19.4974 23.5074L19.3844 23.0621L19.2293 23.717Z" fill="#FFD700"/>
<path d="M19.3845 23.0622L19.4976 23.5074L19.7147 22.9317L19.6056 22.4729L19.3845 23.0622Z" fill="#FF9400"/>
<path d="M19.6057 22.4729L19.7148 22.9317L19.9917 22.4363L19.8877 21.9656L19.6057 22.4729Z" fill="#FF5900"/>
<path d="M19.8875 21.9658L19.9915 22.4365L20.3215 22.0357L20.2237 21.5551L19.8875 21.9658Z" fill="#FF2500"/>
<path d="M24.5761 25.3089L24.5872 25.7153L24.6569 26.4618L24.6473 26.072L24.5761 25.3089Z" fill="#C1FF36"/>
<path d="M20.2239 21.5551L20.3216 22.0358L20.6962 21.7416L20.6058 21.2533L20.2239 21.5551Z" fill="#DF0000"/>
<path d="M24.4329 24.5533L24.4468 24.9761L24.5872 25.7153L24.5762 25.3089L24.4329 24.5533Z" fill="#FFEA00"/>
<path d="M20.6058 21.2531L20.6962 21.7415L21.1058 21.5629L21.0235 21.0694L20.6058 21.2531Z" fill="#BB0000"/>
<path d="M24.2208 23.8259L24.239 24.2645L24.4469 24.9761L24.433 24.5533L24.2208 23.8259Z" fill="#FFA700"/>
<path d="M21.0233 21.0694L21.1057 21.5628L21.5392 21.5057L21.4656 21.0099L21.0233 21.0694Z" fill="#9F0000"/>
<path d="M23.945 23.1471L23.9689 23.6003L24.2391 24.2646L24.2209 23.826L23.945 23.1471Z" fill="#FF6C00"/>
<path d="M21.4656 21.0098L21.5393 21.5056L21.985 21.5726L21.9203 21.0772L21.4656 21.0098Z" fill="#920000"/>
<path d="M23.6127 22.5359L23.6433 23.0022L23.9688 23.6002L23.9449 23.147L23.6127 22.5359Z" fill="#FF3400"/>
<path d="M21.9202 21.0775L21.9848 21.5728L22.4303 21.7626L22.3748 21.2705L21.9202 21.0775Z" fill="#960000"/>
<path d="M23.2331 22.01L23.2714 22.4873L23.6433 23.0022L23.6127 22.5359L23.2331 22.01Z" fill="#F10800"/>
<path d="M22.3748 21.2705L22.4303 21.7625L22.8631 22.0702L22.8165 21.5843L22.3748 21.2705Z" fill="#A40000"/>
<path d="M22.8165 21.5843L22.8632 22.0703L23.2712 22.4874L23.233 22.0102L22.8165 21.5843Z" fill="#C40000"/>
<path d="M19.0828 25.4878L19.1824 25.895L19.128 25.1521L19.0274 24.7354L19.0828 25.4878Z" fill="#53FFA4"/>
<path d="M19.0274 24.7353L19.1279 25.1521L19.1435 24.4199L19.0427 23.9935L19.0274 24.7353Z" fill="#97FF60"/>
<path d="M19.0426 23.9935L19.1434 24.4199L19.2293 23.7171L19.129 23.2813L19.0426 23.9935Z" fill="#D7FF1F"/>
<path d="M19.1289 23.2811L19.2292 23.7169L19.3843 23.0621L19.2852 22.6173L19.1289 23.2811Z" fill="#FFD300"/>
<path d="M19.2853 22.6174L19.3844 23.0622L19.6054 22.4729L19.5084 22.0197L19.2853 22.6174Z" fill="#FF9100"/>
<path d="M19.5085 22.0198L19.6056 22.4729L19.8876 21.9657L19.7932 21.5051L19.5085 22.0198Z" fill="#FF5200"/>
<path d="M19.7932 21.5051L19.8876 21.9657L20.2239 21.555L20.1328 21.0881L19.7932 21.5051Z" fill="#FF1E00"/>
<path d="M20.1326 21.0881L20.2236 21.555L20.6056 21.2531L20.5184 20.7812L20.1326 21.0881Z" fill="#D60000"/>
<path d="M20.5186 20.7812L20.6058 21.2531L21.0234 21.0693L20.9406 20.594L20.5186 20.7812Z" fill="#AD0000"/>
<path d="M24.1732 23.3806L24.2207 23.8258L24.4329 24.5532L24.3879 24.1172L24.1732 23.3806Z" fill="#FFA300"/>
<path d="M20.9405 20.594L21.0233 21.0693L21.4655 21.0098L21.3874 20.5327L20.9405 20.594Z" fill="#920000"/>
<path d="M23.8943 22.6934L23.9449 23.1472L24.2208 23.826L24.1733 23.3808L23.8943 22.6934Z" fill="#FF6400"/>
<path d="M21.3874 20.5327L21.4656 21.0099L21.9203 21.0773L21.8471 20.6L21.3874 20.5327Z" fill="#840000"/>
<path d="M23.5582 22.0747L23.6126 22.536L23.9448 23.1471L23.8941 22.6933L23.5582 22.0747Z" fill="#FF2D00"/>
<path d="M21.847 20.6L21.9202 21.0773L22.3748 21.2704L22.3065 20.7947L21.847 20.6Z" fill="#890000"/>
<path d="M23.1745 21.5424L23.2332 22.01L23.6128 22.536L23.5584 22.0747L23.1745 21.5424Z" fill="#E40000"/>
<path d="M22.3065 20.7948L22.3747 21.2705L22.8165 21.5843L22.7531 21.1118L22.3065 20.7948Z" fill="#9B0000"/>
<path d="M22.7532 21.1118L22.8166 21.5843L23.233 22.0101L23.1743 21.5425L22.7532 21.1118Z" fill="#BB0000"/>
<path d="M19.1525 25.8213L19.2068 26.232L19.0828 25.4878L19.0281 25.0742L19.1525 25.8213Z" fill="#13FCE4"/>
<path d="M19.4172 26.998L19.5217 27.3203L19.4058 26.6222L19.2976 26.2784L19.4172 26.998Z" fill="#19FFDE"/>
<path d="M19.2976 26.2785L19.4057 26.6222L19.3547 25.917L19.2446 25.5514L19.2976 26.2785Z" fill="#56FFA0"/>
<path d="M19.2445 25.5514L19.3545 25.917L19.3702 25.2225L19.2602 24.8351L19.2445 25.5514Z" fill="#94FF63"/>
<path d="M19.2602 24.835L19.3703 25.2225L19.4531 24.5564L19.345 24.1477L19.2602 24.835Z" fill="#D1FF26"/>
<path d="M19.3451 24.1475L19.4532 24.5562L19.6018 23.9361L19.4976 23.5074L19.3451 24.1475Z" fill="#FFDB00"/>
<path d="M19.4974 23.5074L19.6015 23.9362L19.8129 23.3788L19.7146 22.9316L19.4974 23.5074Z" fill="#FF9C00"/>
<path d="M19.7148 22.9318L19.813 23.379L20.0823 22.8997L19.9917 22.4365L19.7148 22.9318Z" fill="#FF6000"/>
<path d="M19.9917 22.4365L20.0823 22.8997L20.4029 22.5124L20.3216 22.0358L19.9917 22.4365Z" fill="#FF3000"/>
<path d="M24.5872 25.7155L24.5445 26.0856L24.6123 26.809L24.6569 26.4619L24.5872 25.7155Z" fill="#C1FF36"/>
<path d="M20.3213 22.0357L20.4027 22.5123L20.7667 22.2282L20.696 21.7415L20.3213 22.0357Z" fill="#F10800"/>
<path d="M24.4469 24.9763L24.4081 25.3691L24.5445 26.0856L24.5872 25.7155L24.4469 24.9763Z" fill="#FBF100"/>
<path d="M20.696 21.7415L20.7667 22.2283L21.1645 22.0563L21.1055 21.5629L20.696 21.7415Z" fill="#C80000"/>
<path d="M24.2391 24.2646L24.2064 24.6793L24.4083 25.369L24.447 24.9762L24.2391 24.2646Z" fill="#FFAE00"/>
<path d="M21.1056 21.5629L21.1645 22.0563L21.5855 22.0021L21.5392 21.5059L21.1056 21.5629Z" fill="#AD0000"/>
<path d="M23.9687 23.6005L23.9437 24.0356L24.2061 24.6794L24.2389 24.2647L23.9687 23.6005Z" fill="#FF7300"/>
<path d="M21.5392 21.5057L21.5855 22.0019L22.0182 22.0678L21.9848 21.5727L21.5392 21.5057Z" fill="#A40000"/>
<path d="M23.6433 23.0023L23.628 23.4556L23.9439 24.0355L23.9688 23.6004L23.6433 23.0023Z" fill="#FF3F00"/>
<path d="M21.985 21.5728L22.0183 22.0679L22.4507 22.2526L22.4305 21.7625L21.985 21.5728Z" fill="#A40000"/>
<path d="M23.2713 22.4874L23.2669 22.9562L23.6279 23.4556L23.6433 23.0023L23.2713 22.4874Z" fill="#FF1300"/>
<path d="M22.4305 21.7626L22.4508 22.2527L22.8709 22.5515L22.8633 22.0703L22.4305 21.7626Z" fill="#B60000"/>
<path d="M22.8632 22.0701L22.8707 22.5513L23.2668 22.9561L23.2712 22.4873L22.8632 22.0701Z" fill="#D10000"/>
<path d="M19.5995 27.6924L19.6985 27.9943L19.5214 27.3203L19.417 26.998L19.5995 27.6924Z" fill="#00BCFF"/>
<path d="M19.6987 27.9941L19.7757 28.2329L19.6053 27.5846L19.5216 27.3201L19.6987 27.9941Z" fill="#00C4FF"/>
<path d="M19.5216 27.3202L19.6054 27.5848L19.4941 26.9135L19.4058 26.6221L19.5216 27.3202Z" fill="#1CFFDB"/>
<path d="M19.4055 26.622L19.4938 26.9134L19.445 26.2357L19.3544 25.9168L19.4055 26.622Z" fill="#56FFA0"/>
<path d="M19.3545 25.9169L19.445 26.2358L19.4604 25.5685L19.3701 25.2224L19.3545 25.9169Z" fill="#94FF63"/>
<path d="M19.3702 25.2225L19.4605 25.5687L19.5405 24.9291L19.453 24.5565L19.3702 25.2225Z" fill="#CEFF29"/>
<path d="M24.4028 28.8312L24.3035 29.0429L24.1126 29.5878L24.2041 29.3983L24.4028 28.8312Z" fill="#00B0FF"/>
<path d="M19.4531 24.5564L19.5406 24.929L19.6839 24.3339L19.6017 23.9363L19.4531 24.5564Z" fill="#FFE200"/>
<path d="M24.5399 28.1998L24.435 28.4363L24.3037 29.0428L24.4031 28.8312L24.5399 28.1998Z" fill="#0CF4EB"/>
<path d="M19.6016 23.9363L19.6838 24.3338L19.8874 23.7991L19.8129 23.3788L19.6016 23.9363Z" fill="#FFA300"/>
<path d="M24.6105 27.5199L24.5025 27.7831L24.4349 28.4362L24.5398 28.1998L24.6105 27.5199Z" fill="#46FFB1"/>
<path d="M19.8131 23.3788L19.8876 23.7991L20.1469 23.3397L20.0823 22.8996L19.8131 23.3788Z" fill="#FF6C00"/>
<path d="M24.6123 26.809L24.5038 27.1004L24.5024 27.7832L24.6104 27.52L24.6123 26.809Z" fill="#80FF77"/>
<path d="M20.0821 22.8997L20.1466 23.3399L20.4552 22.9689L20.4028 22.5123L20.0821 22.8997Z" fill="#FF3B00"/>
<path d="M24.5446 26.0854L24.4383 26.4055L24.5039 27.1002L24.6124 26.8088L24.5446 26.0854Z" fill="#BEFF39"/>
<path d="M20.4028 22.5122L20.4552 22.9687L20.8054 22.697L20.7667 22.2281L20.4028 22.5122Z" fill="#FF1300"/>
<path d="M24.4081 25.369L24.3067 25.7176L24.4382 26.4055L24.5445 26.0854L24.4081 25.369Z" fill="#F8F500"/>
<path d="M20.7669 22.2281L20.8055 22.6971L21.1881 22.533L21.1647 22.0562L20.7669 22.2281Z" fill="#DA0000"/>
<path d="M24.2062 24.6792L24.1124 25.0553L24.3068 25.7176L24.4081 25.369L24.2062 24.6792Z" fill="#FFB600"/>
<path d="M21.1646 22.0562L21.188 22.533L21.5928 22.482L21.5855 22.002L21.1646 22.0562Z" fill="#C40000"/>
<path d="M23.9439 24.0354L23.86 24.4372L24.1124 25.0554L24.2062 24.6793L23.9439 24.0354Z" fill="#FF7E00"/>
<path d="M21.5856 22.0019L21.5928 22.4819L22.0088 22.546L22.0182 22.0677L21.5856 22.0019Z" fill="#B60000"/>
<path d="M23.6279 23.4557L23.5561 23.8805L23.86 24.4373L23.9439 24.0355L23.6279 23.4557Z" fill="#FF4A00"/>
<path d="M22.0183 22.0677L22.0088 22.546L22.4244 22.7241L22.4507 22.2525L22.0183 22.0677Z" fill="#BB0000"/>
<path d="M23.267 22.9564L23.2092 23.4008L23.5562 23.8805L23.628 23.4557L23.267 22.9564Z" fill="#FF1E00"/>
<path d="M22.4506 22.2524L22.4244 22.724L22.8282 23.0115L22.8708 22.5513L22.4506 22.2524Z" fill="#C80000"/>
<path d="M22.8708 22.5515L22.8282 23.0118L23.209 23.4008L23.2668 22.9563L22.8708 22.5515Z" fill="#E40000"/>
<path d="M23.4747 28.5532L24.3237 28.2601L24.1631 28.1215L23.3015 28.4037L23.4747 28.5532Z" fill="#00C4FF"/>
<path d="M23.3014 28.4038L24.163 28.1216L24.0143 27.9449L23.1407 28.2132L23.3014 28.4038Z" fill="#00D0FF"/>
<path d="M23.1409 28.2131L24.0145 27.9448L23.8814 27.7344L22.9968 27.9862L23.1409 28.2131Z" fill="#00E0FB"/>
<path d="M22.9968 27.9863L23.8814 27.7345L23.7672 27.4956L22.8729 27.7287L22.9968 27.9863Z" fill="#0FF8E7"/>
<path d="M22.7441 28.8656L23.4747 28.5533L23.3015 28.4037L22.5554 28.7025L22.7441 28.8656Z" fill="#00B4FF"/>
<path d="M22.5554 28.7026L23.3015 28.4039L23.1409 28.2132L22.38 28.4948L22.5554 28.7026Z" fill="#00C0FF"/>
<path d="M22.9417 28.9801L23.6561 28.6582L23.4747 28.5534L22.7442 28.8657L22.9417 28.9801Z" fill="#00A8FF"/>
<path d="M22.8728 27.7285L23.7671 27.4955L23.6748 27.2341L22.7723 27.4467L22.8728 27.7285Z" fill="#23FFD4"/>
<path d="M22.38 28.4949L23.1409 28.2133L22.9968 27.9863L22.2224 28.2475L22.38 28.4949Z" fill="#00D4FF"/>
<path d="M23.143 29.0428L23.8411 28.7155L23.6561 28.6582L22.9417 28.9801L23.143 29.0428Z" fill="#00A8FF"/>
<path d="M22.2225 28.2475L22.9968 27.9863L22.8729 27.7287L22.0867 27.9668L22.2225 28.2475Z" fill="#06ECF1"/>
<path d="M22.7721 27.4468L23.6747 27.2342L23.6066 26.9569L22.6975 27.1477L22.7721 27.4468Z" fill="#39FFBE"/>
<path d="M23.3428 29.052L24.0249 28.7237L23.841 28.7154L23.1428 29.0427L23.3428 29.052Z" fill="#00A8FF"/>
<path d="M22.0865 27.9666L22.8727 27.7285L22.7722 27.4467L21.9759 27.6595L22.0865 27.9666Z" fill="#1CFFDB"/>
<path d="M22.6977 27.1477L23.6068 26.9568L23.5648 26.6706L22.6511 26.8389L22.6977 27.1477Z" fill="#53FFA4"/>
<path d="M21.9759 27.6597L22.7722 27.4469L22.6976 27.1479L21.8935 27.3338L21.9759 27.6597Z" fill="#36FFC1"/>
<path d="M22.651 26.839L23.5647 26.6707L23.55 26.3827L22.6337 26.5284L22.651 26.839Z" fill="#6DFF8A"/>
<path d="M21.8936 27.3337L22.6977 27.1478L22.6511 26.8391L21.8415 26.9972L21.8936 27.3337Z" fill="#50FFA7"/>
<path d="M22.6336 26.5284L23.5499 26.3827L23.5629 26.1004L22.646 26.2238L22.6336 26.5284Z" fill="#87FF70"/>
<path d="M21.8414 26.9971L22.651 26.8389L22.6337 26.5283L21.8211 26.6585L21.8414 26.9971Z" fill="#6AFF8D"/>
<path d="M22.6461 26.2238L23.5629 26.1004L23.6035 25.8311L22.6882 25.9332L22.6461 26.2238Z" fill="#A0FF56"/>
<path d="M21.821 26.6584L22.6336 26.5283L22.6461 26.2237L21.8331 26.3263L21.821 26.6584Z" fill="#87FF70"/>
<path d="M22.6884 25.9331L23.6037 25.831L23.6708 25.5816L22.7593 25.6639L22.6884 25.9331Z" fill="#B7FF40"/>
<path d="M21.8333 26.3264L22.6462 26.2238L22.6884 25.9331L21.8777 26.0094L21.8333 26.3264Z" fill="#A4FF53"/>
<path d="M22.7593 25.6641L23.6708 25.5817L23.763 25.3589L22.8573 25.4235L22.7593 25.6641Z" fill="#D1FF26"/>
<path d="M21.8776 26.0094L22.6883 25.9332L22.7592 25.664L21.9534 25.7157L21.8776 26.0094Z" fill="#BEFF39"/>
<path d="M22.8573 25.4233L23.7631 25.3587L23.878 25.1684L22.9799 25.2178L22.8573 25.4233Z" fill="#E4FF13"/>
<path d="M21.9534 25.7158L22.7592 25.6641L22.8572 25.4235L22.0588 25.4532L21.9534 25.7158Z" fill="#D7FF1F"/>
<path d="M22.0588 25.4531L22.8571 25.4234L22.9797 25.2179L22.1912 25.2287L22.0588 25.4531Z" fill="#EEFF09"/>
<path d="M22.1912 25.2289L22.9798 25.218L23.1239 25.0531L22.3473 25.0488L22.1912 25.2289Z" fill="#FFEA00"/>
<path d="M22.3473 25.0488L23.124 25.0531L23.286 24.9334L22.5231 24.918L22.3473 25.0488Z" fill="#FFD700"/>
<path d="M21.2958 30.683L21.2567 30.6533L20.9186 30.3609L20.9382 30.3737L21.2958 30.683Z" fill="#0000FF"/>
<path d="M20.9381 30.3738L20.9185 30.361L20.6035 29.9894L20.6049 29.9808L20.9381 30.3738Z" fill="#0010FF"/>
<path d="M21.6693 30.9012L21.6098 30.8596L21.2568 30.6535L21.2959 30.6831L21.6693 30.9012Z" fill="#0000F1"/>
<path d="M20.6049 29.9808L20.6035 29.9894L20.3192 29.5475L20.3042 29.5134L20.6049 29.9808Z" fill="#0038FF"/>
<path d="M22.0492 31.0226L21.9689 30.9743L21.6096 30.8596L21.669 30.9012L22.0492 31.0226Z" fill="#0000E8"/>
<path d="M20.3044 29.5132L20.3194 29.5474L20.0729 29.0457L20.0436 28.9826L20.3044 29.5132Z" fill="#0064FF"/>
<path d="M22.427 31.0439L22.3259 30.9944L21.969 30.9744L22.0493 31.0226L22.427 31.0439Z" fill="#0000ED"/>
<path d="M20.0436 28.9827L20.0728 29.0458L19.8703 28.4965L19.8292 28.4014L20.0436 28.9827Z" fill="#0098FF"/>
<path d="M22.7928 30.9642L22.6715 30.919L22.3258 30.9945L22.4268 31.0439L22.7928 30.9642Z" fill="#0000FF"/>
<path d="M19.8291 28.4015L19.8702 28.4967L19.7168 27.9129L19.6668 27.7836L19.8291 28.4015Z" fill="#00D4FF"/>
<path d="M23.1383 30.7844L22.9977 30.749L22.6717 30.9188L22.793 30.964L23.1383 30.7844Z" fill="#0008FF"/>
<path d="M19.6669 27.7834L19.7169 27.9127L19.617 27.3086L19.561 27.1438L19.6669 27.7834Z" fill="#26FFD1"/>
<path d="M23.454 30.5088L23.2955 30.4884L22.9976 30.749L23.1382 30.7845L23.454 30.5088Z" fill="#002CFF"/>
<path d="M19.561 27.1439L19.617 27.3087L19.5734 26.6994L19.5146 26.4984L19.561 27.1439Z" fill="#5AFF9D"/>
<path d="M23.732 30.1429L23.5577 30.1427L23.2956 30.4884L23.454 30.5088L23.732 30.1429Z" fill="#0054FF"/>
<path d="M19.5146 26.4983L19.5734 26.6993L19.5877 26.1L19.5296 25.8631L19.5146 26.4983Z" fill="#90FF66"/>
<path d="M23.9648 29.6953L23.777 29.7199L23.5576 30.1428L23.7319 30.143L23.9648 29.6953Z" fill="#0088FF"/>
<path d="M19.5295 25.8631L19.5876 26.1L19.6601 25.5261L19.606 25.2545L19.5295 25.8631Z" fill="#C7FF30"/>
<path d="M24.1463 29.1763L23.9477 29.2299L23.7771 29.7198L23.965 29.6952L24.1463 29.1763Z" fill="#00C4FF"/>
<path d="M19.6062 25.2546L19.6603 25.5261L19.7897 24.9927L19.743 24.6886L19.6062 25.2546Z" fill="#FBF100"/>
<path d="M24.2709 28.5986L24.0646 28.6847L23.9478 29.2298L24.1464 29.1762L24.2709 28.5986Z" fill="#16FFE1"/>
<path d="M19.743 24.6885L19.7897 24.9926L19.9732 24.5139L19.9373 24.1803L19.743 24.6885Z" fill="#FFB900"/>
<path d="M24.3345 27.977L24.124 28.0982L24.0645 28.6848L24.2707 28.5987L24.3345 27.977Z" fill="#4DFFAA"/>
<path d="M19.9371 24.1805L19.973 24.5141L20.2064 24.1034L20.1842 23.7442L19.9371 24.1805Z" fill="#FF8600"/>
<path d="M24.3354 27.3271L24.1241 27.4853L24.1241 28.0982L24.3347 27.977L24.3354 27.3271Z" fill="#80FF77"/>
<path d="M20.1845 23.7441L20.2067 24.1033L20.4842 23.7723L20.4786 23.3921L20.1845 23.7441Z" fill="#FF5D00"/>
<path d="M24.2724 26.6662L24.064 26.8621L24.1241 27.4854L24.3354 27.3272L24.2724 26.6662Z" fill="#B7FF40"/>
<path d="M20.4786 23.3921L20.4842 23.7723L20.799 23.5305L20.8121 23.1346L20.4786 23.3921Z" fill="#FF3800"/>
<path d="M24.1466 26.0117L23.9448 26.2451L24.0639 26.862L24.2723 26.6661L24.1466 26.0117Z" fill="#EBFF0C"/>
<path d="M20.8121 23.1346L20.7989 23.5305L21.1425 23.3852L21.1764 22.9796L20.8121 23.1346Z" fill="#FF1A00"/>
<path d="M23.9611 25.3817L23.7693 25.6515L23.9447 26.2451L24.1466 26.0116L23.9611 25.3817Z" fill="#FFC800"/>
<path d="M21.1765 22.9795L21.1426 23.3851L21.5061 23.341L21.5619 22.9318L21.1765 22.9795Z" fill="#F10800"/>
<path d="M23.7203 24.7939L23.5419 25.0975L23.7692 25.6516L23.961 25.3819L23.7203 24.7939Z" fill="#FF9400"/>
<path d="M21.5616 22.9318L21.5058 23.3409L21.8792 23.3998L21.9576 22.9936L21.5616 22.9318Z" fill="#E80000"/>
<path d="M23.4309 24.2643L23.2687 24.5984L23.542 25.0975L23.7204 24.7939L23.4309 24.2643Z" fill="#FF6800"/>
<path d="M21.9578 22.9936L21.8794 23.3999L22.2525 23.5606L22.3535 23.1637L21.9578 22.9936Z" fill="#ED0400"/>
<path d="M23.1004 23.8077L22.9568 24.168L23.2687 24.5982L23.4309 24.264L23.1004 23.8077Z" fill="#FF4300"/>
<path d="M22.3535 23.1635L22.2524 23.5605L22.615 23.8189L22.7379 23.4374L22.3535 23.1635Z" fill="#FA0F00"/>
<path d="M22.738 23.4375L22.6151 23.819L22.957 24.1681L23.1005 23.8078L22.738 23.4375Z" fill="#FF2200"/>
<path d="M19.7755 28.2331L19.8292 28.4014L19.6668 27.7835L19.6051 27.5848L19.7755 28.2331Z" fill="#00CCFF"/>
<path d="M19.6054 27.5849L19.6671 27.7836L19.5611 27.144L19.4941 26.9136L19.6054 27.5849Z" fill="#1FFFD7"/>
<path d="M23.576 30.4417L23.454 30.5089L23.1383 30.7846L23.2445 30.731L23.576 30.4417Z" fill="#0018FF"/>
<path d="M19.4939 26.9136L19.561 27.144L19.5146 26.4984L19.4451 26.2359L19.4939 26.9136Z" fill="#5AFF9D"/>
<path d="M23.868 30.0577L23.7321 30.143L23.454 30.5088L23.576 30.4416L23.868 30.0577Z" fill="#0044FF"/>
<path d="M19.4452 26.2357L19.5147 26.4983L19.5297 25.8631L19.4606 25.5685L19.4452 26.2357Z" fill="#94FF63"/>
<path d="M24.1128 29.5878L23.965 29.6953L23.732 30.143L23.868 30.0577L24.1128 29.5878Z" fill="#007CFF"/>
<path d="M19.4607 25.5684L19.5297 25.863L19.6063 25.2544L19.5407 24.9288L19.4607 25.5684Z" fill="#CAFF2C"/>
<path d="M24.3036 29.0428L24.1463 29.1762L23.9649 29.6952L24.1127 29.5876L24.3036 29.0428Z" fill="#00B8FF"/>
<path d="M19.5406 24.9289L19.6062 25.2545L19.743 24.6885L19.6839 24.3338L19.5406 24.9289Z" fill="#FFEA00"/>
<path d="M24.4349 28.4362L24.2708 28.5986L24.1462 29.1762L24.3036 29.0428L24.4349 28.4362Z" fill="#0FF8E7"/>
<path d="M19.6838 24.3339L19.7429 24.6887L19.9372 24.1805L19.8875 23.7993L19.6838 24.3339Z" fill="#FFAE00"/>
<path d="M24.5026 27.7831L24.3347 27.977L24.2709 28.5987L24.435 28.4362L24.5026 27.7831Z" fill="#49FFAD"/>
<path d="M19.8875 23.799L19.9372 24.1803L20.1844 23.744L20.1468 23.3396L19.8875 23.799Z" fill="#FF7A00"/>
<path d="M24.504 27.1003L24.3355 27.3271L24.3347 27.977L24.5026 27.7832L24.504 27.1003Z" fill="#80FF77"/>
<path d="M20.1469 23.3399L20.1845 23.7442L20.4786 23.3921L20.4555 22.9689L20.1469 23.3399Z" fill="#FF4A00"/>
<path d="M24.4384 26.4056L24.2724 26.6661L24.3355 27.3271L24.504 27.1003L24.4384 26.4056Z" fill="#BAFF3C"/>
<path d="M20.4553 22.9688L20.4784 23.3921L20.812 23.1346L20.8054 22.6971L20.4553 22.9688Z" fill="#FF2500"/>
<path d="M24.3068 25.7175L24.1466 26.0116L24.2723 26.666L24.4383 26.4054L24.3068 25.7175Z" fill="#F1FC06"/>
<path d="M20.8054 22.6972L20.8119 23.1346L21.1763 22.9795L21.188 22.5331L20.8054 22.6972Z" fill="#F10800"/>
<path d="M24.1125 25.0555L23.9612 25.3819L24.1467 26.0118L24.3069 25.7177L24.1125 25.0555Z" fill="#FFC100"/>
<path d="M21.1882 22.533L21.1765 22.9795L21.5619 22.9318L21.593 22.482L21.1882 22.533Z" fill="#DA0000"/>
<path d="M23.8601 24.4371L23.7206 24.7937L23.9612 25.3817L24.1126 25.0553L23.8601 24.4371Z" fill="#FF8900"/>
<path d="M21.5929 22.4819L21.5618 22.9317L21.9578 22.9935L22.0088 22.546L21.5929 22.4819Z" fill="#CD0000"/>
<path d="M23.5561 23.8805L23.431 24.2643L23.7205 24.7939L23.86 24.4373L23.5561 23.8805Z" fill="#FF5900"/>
<path d="M22.0089 22.546L21.9579 22.9935L22.3536 23.1636L22.4246 22.7241L22.0089 22.546Z" fill="#D10000"/>
<path d="M23.2089 23.4008L23.1003 23.8079L23.4308 24.2643L23.556 23.8805L23.2089 23.4008Z" fill="#FF3000"/>
<path d="M22.4244 22.7243L22.3533 23.1638L22.7378 23.4376L22.8282 23.0118L22.4244 22.7243Z" fill="#DF0000"/>
<path d="M22.8282 23.0116L22.7378 23.4374L23.1003 23.8077L23.2089 23.4006L22.8282 23.0116Z" fill="#FA0F00"/>
<path d="M21.8829 19.0292L21.4146 19.1745L21.745 19.1442L22.1506 19.0065L21.8829 19.0292Z" fill="#9F0000"/>
<path d="M22.1507 19.0063L21.7451 19.144L22.0853 19.2384L22.4265 19.1049L22.1507 19.0063Z" fill="#960000"/>
<path d="M23.8307 21.8958L23.8167 22.0777L23.9779 22.8053L23.9616 22.6057L23.8307 21.8958Z" fill="#FFAB00"/>
<path d="M22.4264 19.1049L22.0852 19.2385L22.426 19.4558L22.7026 19.3227L22.4264 19.1049Z" fill="#960000"/>
<path d="M23.6611 21.2277L23.6079 21.394L23.8167 22.0776L23.8306 21.8958L23.6611 21.2277Z" fill="#FF6C00"/>
<path d="M22.7027 19.3228L22.4261 19.4559L22.7578 19.7908L22.9716 19.6544L22.7027 19.3228Z" fill="#A80000"/>
<path d="M23.4575 20.6206L23.3569 20.7738L23.6078 21.3942L23.6611 21.2279L23.4575 20.6206Z" fill="#FF3400"/>
<path d="M22.9714 19.6545L22.7576 19.7909L23.0708 20.2343L23.2254 20.0911L22.9714 19.6545Z" fill="#C80000"/>
<path d="M23.2255 20.0912L23.0709 20.2343L23.357 20.7738L23.4576 20.6206L23.2255 20.0912Z" fill="#F10800"/>
<path d="M19.028 25.074L19.0827 25.4876L19.0272 24.7352L18.9722 24.3185L19.028 25.074Z" fill="#53FFA4"/>
<path d="M18.9722 24.3186L19.0272 24.7353L19.0425 23.9935L18.9873 23.5736L18.9722 24.3186Z" fill="#97FF60"/>
<path d="M18.9874 23.5736L19.0426 23.9935L19.1291 23.2813L19.0738 22.8582L18.9874 23.5736Z" fill="#D7FF1F"/>
<path d="M19.0738 22.8581L19.1291 23.2812L19.2854 22.6173L19.2302 22.191L19.0738 22.8581Z" fill="#FFD000"/>
<path d="M19.2301 22.1912L19.2854 22.6174L19.5084 22.0198L19.4534 21.5905L19.2301 22.1912Z" fill="#FF8D00"/>
<path d="M19.4534 21.5904L19.5084 22.0197L19.7931 21.505L19.7384 21.0728L19.4534 21.5904Z" fill="#FF4E00"/>
<path d="M19.7384 21.0731L19.793 21.5052L20.1326 21.0882L20.0784 20.6536L19.7384 21.0731Z" fill="#FF1A00"/>
<path d="M20.0786 20.6535L20.1328 21.0882L20.5186 20.7813L20.465 20.3445L20.0786 20.6535Z" fill="#D10000"/>
<path d="M24.3421 23.6869L24.4328 24.5643L24.5761 25.3245L24.4876 24.4552L24.3421 23.6869Z" fill="#FFE600"/>
<path d="M20.4649 20.3446L20.5185 20.7814L20.9405 20.5942L20.8876 20.1557L20.4649 20.3446Z" fill="#A80000"/>
<path d="M24.1268 22.9474L24.1732 23.3807L24.3878 24.1174L24.342 23.6868L24.1268 22.9474Z" fill="#FF9F00"/>
<path d="M20.8876 20.1556L20.9405 20.5941L21.3875 20.5328L21.3353 20.0931L20.8876 20.1556Z" fill="#8D0000"/>
<path d="M23.8473 22.2576L23.8943 22.6933L24.1733 23.3806L24.1269 22.9474L23.8473 22.2576Z" fill="#FF6000"/>
<path d="M21.3352 20.0932L21.3873 20.5329L21.8469 20.6002L21.7957 20.1598L21.3352 20.0932Z" fill="#800000"/>
<path d="M23.5103 21.6372L23.5581 22.0748L23.8941 22.6934L23.847 22.2578L23.5103 21.6372Z" fill="#FF2900"/>
<path d="M21.7959 20.1596L21.8472 20.6L22.3067 20.7947L22.2563 20.3541L21.7959 20.1596Z" fill="#800000"/>
<path d="M23.1257 21.1034L23.1744 21.5426L23.5583 22.0748L23.5104 21.6372L23.1257 21.1034Z" fill="#DF0000"/>
<path d="M22.2563 20.3541L22.3067 20.7947L22.7533 21.1117L22.7038 20.6716L22.2563 20.3541Z" fill="#920000"/>
<path d="M22.7036 20.6717L22.7531 21.1118L23.1742 21.5426L23.1256 21.1034L22.7036 20.6717Z" fill="#B20000"/>
<path d="M24.2444 23.3306L24.3419 23.6869L24.4874 24.4553L24.3846 24.0985L24.2444 23.3306Z" fill="#FFE600"/>
<path d="M21.103 19.3274L20.7368 19.5867L21.1003 19.4205L21.4145 19.1743L21.103 19.3274Z" fill="#B20000"/>
<path d="M21.4146 19.1745L21.1004 19.4207L21.4858 19.3796L21.745 19.1442L21.4146 19.1745Z" fill="#960000"/>
<path d="M21.7451 19.1442L21.4859 19.3796L21.8826 19.4657L22.0854 19.2386L21.7451 19.1442Z" fill="#890000"/>
<path d="M22.0853 19.2384L21.8826 19.4654L22.2797 19.6772L22.426 19.4558L22.0853 19.2384Z" fill="#890000"/>
<path d="M23.3571 20.7737L23.3639 20.9953L23.6556 21.6212L23.608 21.3941L23.3571 20.7737Z" fill="#FF2D00"/>
<path d="M22.4261 19.456L22.2798 19.6774L22.6662 20.0096L22.7577 19.7909L22.4261 19.456Z" fill="#9B0000"/>
<path d="M23.0709 20.2342L23.0308 20.4529L23.3637 20.9953L23.357 20.7737L23.0709 20.2342Z" fill="#E80000"/>
<path d="M22.7575 19.7909L22.666 20.0096L23.0308 20.453L23.0708 20.2343L22.7575 19.7909Z" fill="#BB0000"/>
<path d="M23.6077 21.3942L23.6554 21.6213L23.898 22.3129L23.8165 22.0778L23.6077 21.3942Z" fill="#FF6400"/>
<path d="M20.4048 19.8724L20.1495 20.2399L20.52 19.9388L20.7368 19.5869L20.4048 19.8724Z" fill="#D10000"/>
<path d="M20.7368 19.5869L20.52 19.9388L20.9255 19.7577L21.1004 19.4207L20.7368 19.5869Z" fill="#A80000"/>
<path d="M21.1004 19.4208L20.9255 19.7577L21.355 19.7027L21.4858 19.3796L21.1004 19.4208Z" fill="#8D0000"/>
<path d="M21.4858 19.3794L21.355 19.7026L21.797 19.7762L21.8825 19.4655L21.4858 19.3794Z" fill="#800000"/>
<path d="M21.8826 19.4655L21.797 19.7763L22.2391 19.9773L22.2797 19.6773L21.8826 19.4655Z" fill="#840000"/>
<path d="M23.3638 20.9954L23.4443 21.2752L23.7682 21.8988L23.6556 21.6213L23.3638 20.9954Z" fill="#FF2900"/>
<path d="M22.2797 19.6774L22.2391 19.9774L22.6689 20.3006L22.666 20.0095L22.2797 19.6774Z" fill="#920000"/>
<path d="M23.031 20.453L23.0745 20.7373L23.4444 21.2751L23.3639 20.9953L23.031 20.453Z" fill="#DF0000"/>
<path d="M22.666 20.0094L22.6688 20.3005L23.0743 20.7372L23.0307 20.4528L22.666 20.0094Z" fill="#B20000"/>
<path d="M20.113 20.268L19.8238 20.6515L20.1497 20.2397L20.4049 19.8723L20.113 20.268Z" fill="#FF1A00"/>
<path d="M19.3367 21.7551L19.2301 22.1911L19.4534 21.5904L19.5505 21.1615L19.3367 21.7551Z" fill="#FF8D00"/>
<path d="M19.5505 21.1616L19.4534 21.5905L19.7384 21.073L19.8236 20.6515L19.5505 21.1616Z" fill="#FF4E00"/>
<path d="M19.8236 20.6515L19.7384 21.073L20.0784 20.6535L20.1495 20.2398L19.8236 20.6515Z" fill="#FF1600"/>
<path d="M20.1495 20.2397L20.0785 20.6534L20.4649 20.3444L20.52 19.9386L20.1495 20.2397Z" fill="#D10000"/>
<path d="M20.52 19.9386L20.4649 20.3444L20.8876 20.1555L20.9255 19.7575L20.52 19.9386Z" fill="#A40000"/>
<path d="M20.9256 19.7577L20.8877 20.1557L21.3355 20.0932L21.3551 19.7028L20.9256 19.7577Z" fill="#890000"/>
<path d="M23.7682 21.8987L23.8473 22.2578L24.1269 22.9475L24.0373 22.5904L23.7682 21.8987Z" fill="#FF6000"/>
<path d="M21.3551 19.7025L21.3354 20.093L21.7958 20.1596L21.797 19.7762L21.3551 19.7025Z" fill="#800000"/>
<path d="M23.4444 21.2751L23.5105 21.6371L23.8473 22.2578L23.7683 21.8987L23.4444 21.2751Z" fill="#FF2900"/>
<path d="M21.7971 19.7762L21.7959 20.1596L22.2563 20.3541L22.2392 19.9773L21.7971 19.7762Z" fill="#800000"/>
<path d="M23.0744 20.7373L23.1257 21.1034L23.5104 21.6371L23.4442 21.2751L23.0744 20.7373Z" fill="#DF0000"/>
<path d="M22.2391 19.9773L22.2563 20.3542L22.7038 20.6716L22.669 20.3006L22.2391 19.9773Z" fill="#920000"/>
<path d="M22.6689 20.3007L22.7037 20.6717L23.1257 21.1034L23.0744 20.7374L22.6689 20.3007Z" fill="#B20000"/>
<path d="M26.4227 24.7136L25.7769 24.7083L25.7879 25.1938L26.447 25.1676L26.4227 24.7136Z" fill="#23FFD4"/>
<path d="M26.4136 24.2253L25.774 24.1839L25.7771 24.7084L26.4229 24.7138L26.4136 24.2253Z" fill="#53FFA4"/>
<path d="M26.4198 23.7146L25.7787 23.6336L25.7739 24.1837L26.4136 24.2251L26.4198 23.7146Z" fill="#80FF77"/>
<path d="M26.4414 23.1956L25.7914 23.0725L25.7787 23.6336L26.4198 23.7146L26.4414 23.1956Z" fill="#ADFF49"/>
<path d="M26.4778 22.6821L25.8117 22.5157L25.7914 23.0727L26.4413 23.1958L26.4778 22.6821Z" fill="#DBFF1C"/>
<path d="M26.5283 22.1877L25.839 21.9778L25.8116 22.5157L26.4777 22.6821L26.5283 22.1877Z" fill="#FFE200"/>
<path d="M27.1264 20.2498L26.1505 19.8313L26.1017 19.8973L27.0309 20.3027L27.1264 20.2498Z" fill="#FF3800"/>
<path d="M26.5916 21.7259L25.8729 21.4737L25.839 21.9777L26.5283 22.1876L26.5916 21.7259Z" fill="#FFB600"/>
<path d="M27.0307 20.3027L26.1015 19.8973L26.0519 20.0541L26.9343 20.4398L27.0307 20.3027Z" fill="#FF3800"/>
<path d="M26.666 21.3095L25.9122 21.0175L25.8729 21.4736L26.5916 21.7258L26.666 21.3095Z" fill="#FF9100"/>
<path d="M26.9344 20.4397L26.052 20.054L26.0031 20.2978L26.8398 20.6575L26.9344 20.4397Z" fill="#FF4300"/>
<path d="M26.7494 20.95L25.9559 20.6219L25.9122 21.0175L26.666 21.3094L26.7494 20.95Z" fill="#FF6F00"/>
<path d="M26.8399 20.6576L26.0031 20.2979L25.9561 20.622L26.7496 20.9501L26.8399 20.6576Z" fill="#FF5500"/>
<path d="M27.0794 24.7677L26.4226 24.7138L26.4469 25.1678L27.1142 25.1901L27.0794 24.7677Z" fill="#2CFFCA"/>
<path d="M27.0654 24.3151L26.4134 24.2252L26.4227 24.7137L27.0794 24.7676L27.0654 24.3151Z" fill="#56FFA0"/>
<path d="M27.0727 23.8444L26.4195 23.7148L26.4133 24.2252L27.0653 24.3151L27.0727 23.8444Z" fill="#80FF77"/>
<path d="M27.1016 23.3676L26.4413 23.1958L26.4198 23.7148L27.0729 23.8444L27.1016 23.3676Z" fill="#AAFF4D"/>
<path d="M27.1509 22.8974L26.4779 22.6821L26.4413 23.1958L27.1016 23.3675L27.1509 22.8974Z" fill="#D4FF23"/>
<path d="M27.2197 22.4466L26.5284 22.1877L26.4778 22.6821L27.1509 22.8974L27.2197 22.4466Z" fill="#FBF100"/>
<path d="M28.1726 20.7593L27.2185 20.2822L27.1264 20.2498L28.0445 20.7202L28.1726 20.7593Z" fill="#FF5500"/>
<path d="M27.3061 22.0273L26.5915 21.7259L26.5282 22.1876L27.2195 22.4466L27.3061 22.0273Z" fill="#FFC400"/>
<path d="M28.0446 20.7202L27.1265 20.2498L27.031 20.3028L27.912 20.7595L28.0446 20.7202Z" fill="#FF4E00"/>
<path d="M27.4082 21.6511L26.6659 21.3096L26.5915 21.7259L27.3062 22.0273L27.4082 21.6511Z" fill="#FFA300"/>
<path d="M27.9118 20.7596L27.0308 20.3028L26.9344 20.4399L27.7783 20.8763L27.9118 20.7596Z" fill="#FF5200"/>
<path d="M27.5232 21.3283L26.7495 20.9503L26.6661 21.3097L27.4083 21.6511L27.5232 21.3283Z" fill="#FF8200"/>
<path d="M27.7784 20.8763L26.9345 20.4399L26.8399 20.6576L27.6477 21.0676L27.7784 20.8763Z" fill="#FF5900"/>
<path d="M27.6474 21.0676L26.8396 20.6577L26.7493 20.9502L27.523 21.3283L27.6474 21.0676Z" fill="#FF6C00"/>
<path d="M27.6921 24.8636L27.0794 24.7675L27.1142 25.19L27.7347 25.2552L27.6921 24.8636Z" fill="#33FFC4"/>
<path d="M27.6746 24.4466L27.0654 24.3152L27.0794 24.7677L27.6922 24.8638L27.6746 24.4466Z" fill="#5AFF9D"/>
<path d="M27.6828 24.0146L27.0728 23.8444L27.0655 24.3152L27.6747 24.4466L27.6828 24.0146Z" fill="#80FF77"/>
<path d="M27.7166 23.5788L27.1015 23.3674L27.0729 23.8442L27.6829 24.0144L27.7166 23.5788Z" fill="#A7FF50"/>
<path d="M27.7753 23.1514L27.1508 22.8975L27.1015 23.3677L27.7166 23.5791L27.7753 23.1514Z" fill="#CEFF29"/>
<path d="M27.8573 22.7431L27.2196 22.4466L27.1507 22.8974L27.7751 23.1513L27.8573 22.7431Z" fill="#F1FC06"/>
<path d="M27.9608 22.3651L27.3062 22.0272L27.2196 22.4464L27.8573 22.743L27.9608 22.3651Z" fill="#FFD700"/>
<path d="M29.0027 21.2696L28.1727 20.7592L28.0446 20.7201L28.848 21.2238L29.0027 21.2696Z" fill="#FF6F00"/>
<path d="M28.0831 22.0282L27.4083 21.651L27.3062 22.0273L27.9609 22.3653L28.0831 22.0282Z" fill="#FFB600"/>
<path d="M28.8478 21.224L28.0443 20.7203L27.9117 20.7595L28.688 21.2497L28.8478 21.224Z" fill="#FF6800"/>
<path d="M28.2208 21.7409L27.5232 21.3281L27.4084 21.6509L28.0831 22.0281L28.2208 21.7409Z" fill="#FF9800"/>
<path d="M28.6882 21.2497L27.912 20.7595L27.7785 20.8763L28.5275 21.3464L28.6882 21.2497Z" fill="#FF6C00"/>
<path d="M28.3702 21.5118L27.6476 21.0676L27.5231 21.3283L28.2207 21.7411L28.3702 21.5118Z" fill="#FF8200"/>
<path d="M28.5274 21.3465L27.7784 20.8763L27.6476 21.0676L28.3702 21.5118L28.5274 21.3465Z" fill="#FF7300"/>
<path d="M28.2056 24.9942L27.6923 24.8636L27.7349 25.2552L28.2533 25.3562L28.2056 24.9942Z" fill="#39FFBE"/>
<path d="M28.1855 24.6108L27.6746 24.4464L27.6921 24.8635L28.2054 24.9942L28.1855 24.6108Z" fill="#5AFF9D"/>
<path d="M28.1939 24.2157L27.6827 24.0144L27.6746 24.4464L28.1854 24.6108L28.1939 24.2157Z" fill="#80FF77"/>
<path d="M28.231 23.8195L27.7166 23.579L27.6828 24.0146L28.1941 24.2159L28.231 23.8195Z" fill="#A4FF53"/>
<path d="M28.2955 23.4323L27.7751 23.1514L27.7165 23.579L28.2309 23.8196L28.2955 23.4323Z" fill="#C7FF30"/>
<path d="M28.3862 23.0644L27.8574 22.743L27.7753 23.1513L28.2956 23.4322L28.3862 23.0644Z" fill="#E7FF0F"/>
<path d="M28.5006 22.7261L27.9609 22.3653L27.8574 22.7431L28.3862 23.0645L28.5006 22.7261Z" fill="#FFE600"/>
<path d="M28.6356 22.4261L28.083 22.0282L27.9607 22.3653L28.5004 22.7261L28.6356 22.4261Z" fill="#FFC400"/>
<path d="M29.6568 21.7941L29.0027 21.2698L28.848 21.2239L29.4846 21.7418L29.6568 21.7941Z" fill="#FF8600"/>
<path d="M28.7882 22.1727L28.2208 21.7409L28.0831 22.0281L28.6358 22.426L28.7882 22.1727Z" fill="#FFAB00"/>
<path d="M29.4844 21.7418L28.8478 21.2239L28.688 21.2497L29.3067 21.7547L29.4844 21.7418Z" fill="#FF8200"/>
<path d="M28.954 21.973L28.3703 21.5116L28.2209 21.7409L28.7883 22.1727L28.954 21.973Z" fill="#FF9800"/>
<path d="M29.3067 21.7545L28.688 21.2495L28.5274 21.3462L29.1283 21.8323L29.3067 21.7545Z" fill="#FF8200"/>
<path d="M29.1282 21.8326L28.5273 21.3465L28.3701 21.5118L28.9537 21.9732L29.1282 21.8326Z" fill="#FF8900"/>
<path d="M28.5688 25.1508L28.2055 24.9941L28.2532 25.3561L28.6195 25.4852L28.5688 25.1508Z" fill="#3CFFBA"/>
<path d="M28.5476 24.7989L28.1857 24.6108L28.2057 24.9943L28.5691 25.151L28.5476 24.7989Z" fill="#5DFF9A"/>
<path d="M28.556 24.4382L28.1942 24.2159L28.1857 24.611L28.5475 24.799L28.556 24.4382Z" fill="#80FF77"/>
<path d="M28.5942 24.0779L28.231 23.8193L28.194 24.2157L28.5559 24.438L28.5942 24.0779Z" fill="#A0FF56"/>
<path d="M28.6616 23.7279L28.2955 23.4321L28.2309 23.8194L28.5942 24.0779L28.6616 23.7279Z" fill="#C1FF36"/>
<path d="M28.7565 23.3976L28.3861 23.0645L28.2955 23.4323L28.6616 23.7281L28.7565 23.3976Z" fill="#DEFF19"/>
<path d="M28.8764 23.0954L28.5005 22.7261L28.3861 23.0645L28.7565 23.3976L28.8764 23.0954Z" fill="#FBF100"/>
<path d="M29.0182 22.8295L28.6357 22.4261L28.5005 22.726L28.8763 23.0953L29.0182 22.8295Z" fill="#FFD700"/>
<path d="M30.264 22.429L29.8186 21.9098L29.6566 21.794L30.0927 22.3133L30.264 22.429Z" fill="#FFA700"/>
<path d="M29.1784 22.6073L28.7882 22.1727L28.6357 22.426L29.0182 22.8294L29.1784 22.6073Z" fill="#FFC100"/>
<path d="M30.093 22.3134L29.6568 21.794L29.4846 21.7418L29.9113 22.2553L30.093 22.3134Z" fill="#FF9C00"/>
<path d="M29.3525 22.4347L28.9539 21.973L28.7883 22.1726L29.1784 22.6072L29.3525 22.4347Z" fill="#FFAE00"/>
<path d="M29.9112 22.2553L29.4846 21.7418L29.3068 21.7546L29.7239 22.2564L29.9112 22.2553Z" fill="#FF9800"/>
<path d="M29.536 22.3168L29.1284 21.8324L28.954 21.9731L29.3526 22.4348L29.536 22.3168Z" fill="#FF9F00"/>
<path d="M29.7239 22.2564L29.3069 21.7546L29.1284 21.8324L29.536 22.3168L29.7239 22.2564Z" fill="#FF9800"/>
<path d="M28.7422 25.3254L28.569 25.1511L28.6197 25.4855L28.7941 25.635L28.7422 25.3254Z" fill="#43FFB4"/>
<path d="M28.7197 25.0011L28.5474 24.7988L28.5688 25.1509L28.742 25.3252L28.7197 25.0011Z" fill="#60FF97"/>
<path d="M28.7279 24.6712L28.5559 24.4381L28.5475 24.7989L28.7198 25.0013L28.7279 24.6712Z" fill="#7DFF7A"/>
<path d="M28.7661 24.3435L28.5942 24.0781L28.5558 24.4382L28.7278 24.6712L28.7661 24.3435Z" fill="#9DFF5A"/>
<path d="M28.8341 24.0267L28.6618 23.7281L28.5944 24.078L28.7663 24.3434L28.8341 24.0267Z" fill="#BAFF3C"/>
<path d="M28.9295 23.7294L28.7565 23.3975L28.6616 23.7281L28.8339 24.0267L28.9295 23.7294Z" fill="#D4FF23"/>
<path d="M29.0506 23.4595L28.8765 23.0954L28.7566 23.3976L28.9296 23.7295L29.0506 23.4595Z" fill="#EEFF09"/>
<path d="M30.7559 23.2994L30.5574 22.8185L30.4203 22.5989L30.616 23.0905L30.7559 23.2994Z" fill="#FFDE00"/>
<path d="M29.1938 23.2239L29.0183 22.8295L28.8764 23.0953L29.0506 23.4594L29.1938 23.2239Z" fill="#FFE600"/>
<path d="M30.6162 23.0905L30.4205 22.5989L30.2642 22.429L30.457 22.9261L30.6162 23.0905Z" fill="#FFCC00"/>
<path d="M29.3558 23.0295L29.1785 22.6073L29.0184 22.8295L29.1939 23.224L29.3558 23.0295Z" fill="#FFD000"/>
<path d="M30.4569 22.926L30.264 22.4289L30.0928 22.3133L30.2827 22.8106L30.4569 22.926Z" fill="#FFB900"/>
<path d="M29.532 22.8812L29.3526 22.4349L29.1785 22.6073L29.3558 23.0295L29.532 22.8812Z" fill="#FFC100"/>
<path d="M30.2827 22.8107L30.0928 22.3133L29.911 22.2552L30.0981 22.7475L30.2827 22.8107Z" fill="#FFB200"/>
<path d="M29.7175 22.7833L29.5358 22.3168L29.3524 22.4349L29.5317 22.8812L29.7175 22.7833Z" fill="#FFB200"/>
<path d="M30.0983 22.7474L29.9112 22.2552L29.7239 22.2563L29.9082 22.7382L30.0983 22.7474Z" fill="#FFAB00"/>
<path d="M29.9081 22.7382L29.7238 22.2563L29.5359 22.3167L29.7176 22.7831L29.9081 22.7382Z" fill="#FFAE00"/>
<path d="M28.8814 24.0481L28.9297 23.7292L28.8341 24.0266L28.7877 24.317L28.8814 24.0481Z" fill="#CEFF29"/>
<path d="M30.9111 25.7256L30.9799 25.4299L31.0366 25.1101L30.9663 25.4332L30.9111 25.7256Z" fill="#50FFA7"/>
<path d="M30.9663 25.4332L31.0365 25.1101L31.0637 24.7815L30.9923 25.131L30.9663 25.4332Z" fill="#6AFF8D"/>
<path d="M30.9925 25.1309L31.0639 24.7814L31.0609 24.4523L30.9886 24.8268L30.9925 25.1309Z" fill="#87FF70"/>
<path d="M30.9885 24.8269L31.0607 24.4524L31.0273 24.1314L30.9545 24.5288L30.9885 24.8269Z" fill="#A0FF56"/>
<path d="M30.9546 24.5287L31.0274 24.1313L30.9644 23.8269L30.8913 24.2444L30.9546 24.5287Z" fill="#BEFF39"/>
<path d="M30.8913 24.2443L30.9643 23.8268L30.8731 23.547L30.8003 23.9814L30.8913 24.2443Z" fill="#D4FF23"/>
<path d="M29.0001 23.806L29.0506 23.4595L28.9296 23.7295L28.8813 24.0483L29.0001 23.806Z" fill="#E4FF13"/>
<path d="M30.8003 23.9814L30.8731 23.547L30.756 23.2993L30.6838 23.7468L30.8003 23.9814Z" fill="#EBFF0C"/>
<path d="M29.1407 23.5964L29.1937 23.2239L29.0504 23.4594L28.9999 23.8059L29.1407 23.5964Z" fill="#F8F500"/>
<path d="M30.6839 23.747L30.7561 23.2995L30.6162 23.0907L30.545 23.5471L30.6839 23.747Z" fill="#FEED00"/>
<path d="M29.3 23.4257L29.3556 23.0294L29.1937 23.2239L29.1408 23.5964L29.3 23.4257Z" fill="#FFDE00"/>
<path d="M30.545 23.547L30.6162 23.0906L30.457 22.9262L30.3873 23.3873L30.545 23.547Z" fill="#FFDB00"/>
<path d="M29.4736 23.2982L29.5319 22.8812L29.3557 23.0294L29.3001 23.4257L29.4736 23.2982Z" fill="#FFD000"/>
<path d="M30.3871 23.3872L30.4569 22.9261L30.2827 22.8107L30.2147 23.2719L30.3871 23.3872Z" fill="#FFCC00"/>
<path d="M29.6568 23.2176L29.7178 22.7833L29.532 22.8812L29.4737 23.2983L29.6568 23.2176Z" fill="#FFC400"/>
<path d="M30.2147 23.2719L30.2827 22.8107L30.0981 22.7475L30.0322 23.2042L30.2147 23.2719Z" fill="#FFC400"/>
<path d="M29.8447 23.1861L29.9082 22.7384L29.7178 22.7834L29.6568 23.2177L29.8447 23.1861Z" fill="#FFC100"/>
<path d="M30.0323 23.2043L30.0982 22.7476L29.9081 22.7384L29.8446 23.186L30.0323 23.2043Z" fill="#FFBD00"/>
<path d="M29.9629 26.9815L30.2745 26.8017L30.4396 26.6574L30.1228 26.8552L29.9629 26.9815Z" fill="#00D4FF"/>
<path d="M30.1228 26.8552L30.4396 26.6574L30.5894 26.4727L30.2677 26.6903L30.1228 26.8552Z" fill="#00E4F8"/>
<path d="M30.2678 26.6902L30.5895 26.4726L30.7202 26.252L30.394 26.4908L30.2678 26.6902Z" fill="#0FF8E7"/>
<path d="M30.3941 26.4909L30.7203 26.2521L30.8285 26.001L30.4985 26.2618L30.3941 26.4909Z" fill="#26FFD1"/>
<path d="M30.4983 26.2617L30.8283 26.0009L30.9111 25.7256L30.5779 26.0088L30.4983 26.2617Z" fill="#3CFFBA"/>
<path d="M30.5779 26.0088L30.9111 25.7256L30.9663 25.4331L30.6307 25.7385L30.5779 26.0088Z" fill="#53FFA4"/>
<path d="M30.6307 25.7386L30.9664 25.4333L30.9924 25.1311L30.6551 25.4579L30.6307 25.7386Z" fill="#6DFF8A"/>
<path d="M30.655 25.4578L30.9923 25.131L30.9883 24.8268L30.6502 25.1738L30.655 25.4578Z" fill="#87FF70"/>
<path d="M30.6503 25.1737L30.9884 24.8268L30.9544 24.5287L30.6164 24.8938L30.6503 25.1737Z" fill="#A0FF56"/>
<path d="M30.6164 24.894L30.9545 24.5288L30.8913 24.2445L30.5542 24.6256L30.6164 24.894Z" fill="#B7FF40"/>
<path d="M30.554 24.6255L30.8911 24.2444L30.8001 23.9814L30.4649 24.3759L30.554 24.6255Z" fill="#CEFF29"/>
<path d="M30.465 24.3758L30.8002 23.9814L30.6838 23.7468L30.3513 24.1515L30.465 24.3758Z" fill="#E4FF13"/>
<path d="M29.0094 23.7849L29.3001 23.4256L29.1409 23.5964L28.8557 23.9361L29.0094 23.7849Z" fill="#FEED00"/>
<path d="M30.3512 24.1516L30.6837 23.747L30.5448 23.5471L30.2159 23.9585L30.3512 24.1516Z" fill="#F4F802"/>
<path d="M29.1772 23.6748L29.4737 23.2983L29.3002 23.4258L29.0095 23.785L29.1772 23.6748Z" fill="#FFDE00"/>
<path d="M30.2161 23.9586L30.545 23.5471L30.3873 23.3874L30.0627 23.802L30.2161 23.9586Z" fill="#FFE600"/>
<path d="M29.3543 23.6086L29.6568 23.2177L29.4736 23.2984L29.1771 23.6748L29.3543 23.6086Z" fill="#FFD300"/>
<path d="M30.0627 23.8019L30.3873 23.3873L30.2149 23.272L29.8952 23.6862L30.0627 23.8019Z" fill="#FFDB00"/>
<path d="M29.536 23.5881L29.8445 23.1859L29.6566 23.2175L29.3541 23.6084L29.536 23.5881Z" fill="#FFD000"/>
<path d="M29.8952 23.686L30.2149 23.2718L30.0324 23.2041L29.7182 23.6141L29.8952 23.686Z" fill="#FFD000"/>
<path d="M29.7181 23.6144L30.0323 23.2044L29.8446 23.1861L29.5362 23.5883L29.7181 23.6144Z" fill="#FFCC00"/>
<path d="M29.2591 27.2436L29.7922 27.0659L29.9628 26.9813L29.4226 27.1716L29.2591 27.2436Z" fill="#00D0FF"/>
<path d="M29.4225 27.1717L29.9628 26.9814L30.1227 26.8551L29.5754 27.0595L29.4225 27.1717Z" fill="#00DCFE"/>
<path d="M29.5754 27.0595L30.1227 26.8551L30.2676 26.6902L29.7139 26.91L29.5754 27.0595Z" fill="#06ECF1"/>
<path d="M29.714 26.9101L30.2677 26.6903L30.394 26.4908L29.8345 26.727L29.714 26.9101Z" fill="#19FFDE"/>
<path d="M29.8345 26.7269L30.394 26.4908L30.4983 26.2617L29.9339 26.5147L29.8345 26.7269Z" fill="#29FFCE"/>
<path d="M29.934 26.5145L30.4985 26.2616L30.5781 26.0087L30.0096 26.2785L29.934 26.5145Z" fill="#40FFB7"/>
<path d="M30.0096 26.2787L30.5781 26.0089L30.6308 25.7386L30.0593 26.0249L30.0096 26.2787Z" fill="#56FFA0"/>
<path d="M30.0592 26.0247L30.6307 25.7384L30.6551 25.4576L30.0816 25.7597L30.0592 26.0247Z" fill="#6DFF8A"/>
<path d="M30.0816 25.7597L30.6551 25.4577L30.6503 25.1737L30.0761 25.4903L30.0816 25.7597Z" fill="#87FF70"/>
<path d="M30.0761 25.4904L30.6503 25.1738L30.6164 24.894L30.0426 25.2236L30.0761 25.4904Z" fill="#9DFF5A"/>
<path d="M30.0425 25.2234L30.6163 24.8938L30.554 24.6255L29.982 24.9662L30.0425 25.2234Z" fill="#B4FF43"/>
<path d="M29.9822 24.9662L30.5542 24.6254L30.4651 24.3758L29.8959 24.7255L29.9822 24.9662Z" fill="#CAFF2C"/>
<path d="M29.8958 24.7258L30.465 24.376L30.3513 24.1516L29.7861 24.508L29.8958 24.7258Z" fill="#DEFF19"/>
<path d="M29.7861 24.5079L30.3513 24.1515L30.216 23.9585L29.6558 24.3188L29.7861 24.5079Z" fill="#EEFF09"/>
<path d="M28.8294 23.9479L29.3543 23.6084L29.1771 23.6747L28.66 24.0024L28.8294 23.9479Z" fill="#FFDE00"/>
<path d="M29.6557 24.3189L30.2159 23.9586L30.0625 23.802L29.5081 24.1636L29.6557 24.3189Z" fill="#FBF100"/>
<path d="M29.0036 23.9369L29.5363 23.588L29.3544 23.6084L28.8295 23.9478L29.0036 23.9369Z" fill="#FFDB00"/>
<path d="M29.5083 24.1634L30.0627 23.8018L29.8952 23.686L29.3476 24.0461L29.5083 24.1634Z" fill="#FFE600"/>
<path d="M29.1777 23.9701L29.7181 23.6143L29.5362 23.5882L29.0035 23.937L29.1777 23.9701Z" fill="#FFD700"/>
<path d="M29.3476 24.0461L29.8952 23.686L29.7182 23.6141L29.1778 23.9699L29.3476 24.0461Z" fill="#FFDB00"/>
<path d="M28.5373 27.437L29.2592 27.2436L29.4226 27.1716L28.6927 27.3747L28.5373 27.437Z" fill="#00D8FF"/>
<path d="M28.6929 27.3748L29.4228 27.1718L29.5757 27.0596L28.8381 27.2732L28.6929 27.3748Z" fill="#00E4F8"/>
<path d="M28.8379 27.2731L29.5755 27.0595L29.714 26.91L28.9693 27.1347L28.8379 27.2731Z" fill="#0CF4EB"/>
<path d="M28.9695 27.1347L29.7142 26.91L29.8347 26.7268L29.0836 26.9629L28.9695 27.1347Z" fill="#1CFFDB"/>
<path d="M29.0835 26.963L29.8347 26.727L29.934 26.5147L29.1774 26.7621L29.0835 26.963Z" fill="#2CFFCA"/>
<path d="M29.1775 26.7619L29.9341 26.5145L30.0096 26.2785L29.2486 26.5369L29.1775 26.7619Z" fill="#43FFB4"/>
<path d="M29.2484 26.5371L30.0094 26.2787L30.0591 26.0249L29.2949 26.2937L29.2484 26.5371Z" fill="#56FFA0"/>
<path d="M29.2951 26.2937L30.0593 26.0249L30.0817 25.7599L29.3155 26.0383L29.2951 26.2937Z" fill="#6DFF8A"/>
<path d="M29.3155 26.038L30.0817 25.7596L30.0762 25.4902L29.3093 25.7771L29.3155 26.038Z" fill="#83FF73"/>
<path d="M29.3093 25.7771L30.0762 25.4902L30.0428 25.2234L29.2766 25.5175L29.3093 25.7771Z" fill="#9AFF5D"/>
<path d="M29.2764 25.5176L30.0426 25.2234L29.982 24.9663L29.2178 25.2661L29.2764 25.5176Z" fill="#B1FF46"/>
<path d="M29.2178 25.2661L29.982 24.9663L29.8957 24.7256L29.1348 25.0296L29.2178 25.2661Z" fill="#C4FF33"/>
<path d="M29.1349 25.0295L29.8958 24.7255L29.7861 24.5078L29.0297 24.8141L29.1349 25.0295Z" fill="#D7FF1F"/>
<path d="M28.1175 24.2313L28.8292 23.948L28.6599 24.0026L27.9567 24.2766L28.1175 24.2313Z" fill="#FFE600"/>
<path d="M29.0299 24.8142L29.7863 24.5079L29.6559 24.3188L28.9052 24.6257L29.0299 24.8142Z" fill="#E7FF0F"/>
<path d="M28.2832 24.2282L29.0036 23.9369L28.8294 23.9478L28.1177 24.2311L28.2832 24.2282Z" fill="#FFE200"/>
<path d="M28.905 24.6258L29.6557 24.3189L29.5082 24.1637L28.7641 24.4693L28.905 24.6258Z" fill="#F4F802"/>
<path d="M28.4489 24.2677L29.1777 23.9701L29.0034 23.937L28.2831 24.2282L28.4489 24.2677Z" fill="#FFE200"/>
<path d="M28.7641 24.4692L29.5082 24.1636L29.3474 24.0463L28.6107 24.3488L28.7641 24.4692Z" fill="#FEED00"/>
<path d="M28.6109 24.3487L29.3476 24.0461L29.1779 23.9699L28.4491 24.2676L28.6109 24.3487Z" fill="#FFE200"/>
<path d="M27.6767 27.6493L28.5374 27.437L28.6927 27.3747L27.8236 27.5943L27.6767 27.6493Z" fill="#00DCFE"/>
<path d="M27.8237 27.5944L28.6929 27.3748L28.8381 27.2733L27.961 27.5L27.8237 27.5944Z" fill="#02E8F4"/>
<path d="M27.9609 27.4999L28.838 27.2732L28.9693 27.1348L28.0849 27.3684L27.9609 27.4999Z" fill="#0FF8E7"/>
<path d="M28.0849 27.3684L28.9693 27.1348L29.0834 26.963L28.1924 27.2031L28.0849 27.3684Z" fill="#1FFFD7"/>
<path d="M28.1925 27.2029L29.0835 26.9628L29.1774 26.7619L28.2808 27.0077L28.1925 27.2029Z" fill="#30FFC7"/>
<path d="M28.2806 27.0078L29.1772 26.7619L29.2484 26.5369L28.3473 26.7878L28.2806 27.0078Z" fill="#43FFB4"/>
<path d="M28.3474 26.7879L29.2486 26.537L29.295 26.2936L28.3906 26.5487L28.3474 26.7879Z" fill="#5AFF9D"/>
<path d="M28.3906 26.5486L29.295 26.2936L29.3155 26.0381L28.4091 26.2963L28.3906 26.5486Z" fill="#6DFF8A"/>
<path d="M28.409 26.2963L29.3154 26.0381L29.3092 25.7772L28.4022 26.0375L28.409 26.2963Z" fill="#83FF73"/>
<path d="M28.4023 26.0374L29.3093 25.7771L29.2765 25.5175L28.3703 25.7788L28.4023 26.0374Z" fill="#9AFF5D"/>
<path d="M28.3702 25.7788L29.2764 25.5175L29.2178 25.2661L28.3137 25.5272L28.3702 25.7788Z" fill="#B1FF46"/>
<path d="M28.3139 25.5274L29.218 25.2662L29.135 25.0297L28.2344 25.2895L28.3139 25.5274Z" fill="#C4FF33"/>
<path d="M28.2342 25.2895L29.1349 25.0297L29.0297 24.8143L28.1338 25.0717L28.2342 25.2895Z" fill="#D7FF1F"/>
<path d="M27.4246 24.4605L28.2833 24.2281L28.1177 24.2311L27.2679 24.4566L27.4246 24.4605Z" fill="#FFE600"/>
<path d="M28.1339 25.0717L29.0298 24.8142L28.9051 24.6257L28.015 24.8798L28.1339 25.0717Z" fill="#E4FF13"/>
<path d="M27.5816 24.5064L28.4489 24.2677L28.2831 24.2281L27.4244 24.4605L27.5816 24.5064Z" fill="#FFE600"/>
<path d="M28.0148 24.8798L28.9049 24.6257L28.764 24.4691L27.8808 24.7189L28.0148 24.8798Z" fill="#F1FC06"/>
<path d="M27.735 24.5934L28.6106 24.3488L28.4489 24.2678L27.5815 24.5065L27.735 24.5934Z" fill="#FFE600"/>
<path d="M27.8809 24.7188L28.7641 24.469L28.6108 24.3487L27.7352 24.5933L27.8809 24.7188Z" fill="#FEED00"/>
<path d="M26.9718 27.7754L27.8935 27.5521L27.751 27.627L26.828 27.8513L26.9718 27.7754Z" fill="#00E4F8"/>
<path d="M27.1039 27.6603L28.0248 27.4386L27.8937 27.5519L26.9719 27.7752L27.1039 27.6603Z" fill="#0CF4EB"/>
<path d="M27.2206 27.5095L28.1409 27.2898L28.0247 27.4387L27.1038 27.6605L27.2206 27.5095Z" fill="#19FFDE"/>
<path d="M27.3192 27.326L28.2392 27.1089L28.141 27.2897L27.2207 27.5094L27.3192 27.326Z" fill="#29FFCE"/>
<path d="M27.3969 27.1147L28.317 26.9007L28.2393 27.1089L27.3193 27.326L27.3969 27.1147Z" fill="#3CFFBA"/>
<path d="M27.4514 26.881L28.372 26.6703L28.3169 26.9007L27.3968 27.1147L27.4514 26.881Z" fill="#53FFA4"/>
<path d="M27.4815 26.6307L28.4029 26.4237L28.372 26.6703L27.4514 26.881L27.4815 26.6307Z" fill="#66FF90"/>
<path d="M27.4861 26.3703L28.4088 26.1672L28.4029 26.4237L27.4814 26.6306L27.4861 26.3703Z" fill="#7DFF7A"/>
<path d="M27.4651 26.1068L28.3893 25.9077L28.4087 26.1673L27.4861 26.3704L27.4651 26.1068Z" fill="#94FF63"/>
<path d="M27.419 25.847L28.3449 25.6518L28.3893 25.9077L27.4652 26.1069L27.419 25.847Z" fill="#AAFF4D"/>
<path d="M27.3487 25.5976L28.2767 25.4062L28.3449 25.6517L27.4189 25.8469L27.3487 25.5976Z" fill="#BEFF39"/>
<path d="M27.2562 25.3656L28.1863 25.1777L28.2766 25.4063L27.3487 25.5977L27.2562 25.3656Z" fill="#D1FF26"/>
<path d="M26.4022 24.6293L27.3458 24.4532L27.5033 24.4782L26.5617 24.6547L26.4022 24.6293Z" fill="#FFE200"/>
<path d="M27.1439 25.1567L28.0763 24.972L28.1863 25.1776L27.2562 25.3654L27.1439 25.1567Z" fill="#E1FF16"/>
<path d="M26.5616 24.655L27.5032 24.4785L27.659 24.5451L26.7196 24.7228L26.5616 24.655Z" fill="#FFE600"/>
<path d="M27.0149 24.9769L27.9497 24.7951L28.0766 24.9721L27.1442 25.1567L27.0149 24.9769Z" fill="#EEFF09"/>
<path d="M26.7197 24.7226L27.6591 24.5449L27.8092 24.6515L26.8721 24.8309L26.7197 24.7226Z" fill="#FFEA00"/>
<path d="M26.872 24.831L27.8091 24.6515L27.9495 24.7952L27.0147 24.977L26.872 24.831Z" fill="#FBF100"/>
<path d="M26.0411 28.023L26.972 27.7754L26.8282 27.8513L25.8925 28.1017L26.0411 28.023Z" fill="#00E0FB"/>
<path d="M26.177 27.9036L27.1037 27.6604L26.9717 27.7752L26.0408 28.0229L26.177 27.9036Z" fill="#09F0EE"/>
<path d="M26.2975 27.7467L27.2208 27.5093L27.104 27.6603L26.1773 27.9035L26.2975 27.7467Z" fill="#16FFE1"/>
<path d="M26.3984 27.5563L27.3191 27.326L27.2206 27.5094L26.2973 27.7469L26.3984 27.5563Z" fill="#29FFCE"/>
<path d="M26.4778 27.3367L27.3967 27.1147L27.3191 27.326L26.3984 27.5562L26.4778 27.3367Z" fill="#3CFFBA"/>
<path d="M26.5332 27.0936L27.4513 26.8809L27.3967 27.1147L26.4778 27.3366L26.5332 27.0936Z" fill="#50FFA7"/>
<path d="M26.5633 26.8335L27.4815 26.6308L27.4514 26.8811L26.5334 27.0938L26.5633 26.8335Z" fill="#66FF90"/>
<path d="M26.5668 26.5628L27.4862 26.3705L27.4815 26.6308L26.5633 26.8335L26.5668 26.5628Z" fill="#7DFF7A"/>
<path d="M26.5438 26.2886L27.4652 26.1069L27.4862 26.3705L26.5668 26.5627L26.5438 26.2886Z" fill="#94FF63"/>
<path d="M26.4944 26.0181L27.4189 25.847L27.4651 26.1068L26.5436 26.2885L26.4944 26.0181Z" fill="#AAFF4D"/>
<path d="M26.4206 25.7586L27.349 25.5976L27.4192 25.8469L26.4947 26.018L26.4206 25.7586Z" fill="#C1FF36"/>
<path d="M26.3235 25.517L27.2563 25.3655L27.3488 25.5976L26.4205 25.7586L26.3235 25.517Z" fill="#D4FF23"/>
<path d="M25.4342 24.7503L26.4022 24.6294L26.5616 24.6548L25.5996 24.7769L25.4342 24.7503Z" fill="#FFDE00"/>
<path d="M26.2059 25.2997L27.144 25.1567L27.2563 25.3655L26.3234 25.517L26.2059 25.2997Z" fill="#E4FF13"/>
<path d="M25.5996 24.7769L26.5616 24.6548L26.7197 24.7226L25.7638 24.8475L25.5996 24.7769Z" fill="#FFDE00"/>
<path d="M26.0711 25.1124L27.0149 24.9769L27.1441 25.1567L26.206 25.2996L26.0711 25.1124Z" fill="#F1FC06"/>
<path d="M25.7639 24.8477L26.7198 24.7227L26.8722 24.8311L25.9224 24.9605L25.7639 24.8477Z" fill="#FFE600"/>
<path d="M25.9223 24.9604L26.872 24.8309L27.0147 24.9769L26.071 25.1125L25.9223 24.9604Z" fill="#FEED00"/>
<path d="M25.0012 28.3793L25.8925 28.1017L25.7353 28.138L24.8351 28.4176L25.0012 28.3793Z" fill="#00CCFF"/>
<path d="M25.1579 28.2958L26.041 28.0227L25.8924 28.1015L25.0011 28.3791L25.1579 28.2958Z" fill="#00D8FF"/>
<path d="M25.3014 28.1695L26.1773 27.9035L26.0411 28.0227L25.158 28.2958L25.3014 28.1695Z" fill="#02E8F4"/>
<path d="M25.4278 28.0033L26.2974 27.7468L26.1771 27.9036L25.3013 28.1696L25.4278 28.0033Z" fill="#13FCE4"/>
<path d="M25.534 27.8013L26.3986 27.5563L26.2975 27.7469L25.4279 28.0034L25.534 27.8013Z" fill="#23FFD4"/>
<path d="M25.6168 27.5681L26.4779 27.3365L26.3985 27.5561L25.5339 27.8011L25.6168 27.5681Z" fill="#39FFBE"/>
<path d="M25.6743 27.3104L26.5333 27.0937L26.4779 27.3367L25.6168 27.5683L25.6743 27.3104Z" fill="#50FFA7"/>
<path d="M25.7046 27.0341L26.5632 26.8335L26.5332 27.0938L25.6742 27.3104L25.7046 27.0341Z" fill="#66FF90"/>
<path d="M25.7073 26.7466L26.5669 26.5628L26.5634 26.8335L25.7048 27.0341L25.7073 26.7466Z" fill="#7DFF7A"/>
<path d="M25.6813 26.4553L26.5436 26.2886L26.5667 26.5627L25.7071 26.7465L25.6813 26.4553Z" fill="#97FF60"/>
<path d="M25.6279 26.1677L26.4944 26.018L26.5436 26.2884L25.6813 26.4551L25.6279 26.1677Z" fill="#ADFF49"/>
<path d="M25.5483 25.8921L26.4204 25.7586L26.4945 26.0181L25.6279 26.1679L25.5483 25.8921Z" fill="#C4FF33"/>
<path d="M25.4444 25.6352L26.3234 25.5169L26.4205 25.7586L25.5483 25.892L25.4444 25.6352Z" fill="#D7FF1F"/>
<path d="M24.4991 24.82L25.4344 24.7504L25.5998 24.777L24.6744 24.8483L24.4991 24.82Z" fill="#FFD700"/>
<path d="M25.3189 25.4043L26.206 25.2998L26.3235 25.5171L25.4445 25.6353L25.3189 25.4043Z" fill="#EBFF0C"/>
<path d="M24.6741 24.8483L25.5996 24.777L25.7637 24.8476L24.8483 24.9234L24.6741 24.8483Z" fill="#FFD700"/>
<path d="M25.1751 25.2052L26.071 25.1125L26.2059 25.2998L25.3189 25.4042L25.1751 25.2052Z" fill="#F8F500"/>
<path d="M24.8483 24.9234L25.7637 24.8476L25.9223 24.9605L25.0168 25.0434L24.8483 24.9234Z" fill="#FFDB00"/>
<path d="M25.017 25.0433L25.9225 24.9604L26.0712 25.1124L25.1752 25.205L25.017 25.0433Z" fill="#FFE600"/>
<path d="M22.1565 29.1898L22.7441 28.8658L22.5553 28.7026L21.9496 29.011L22.1565 29.1898Z" fill="#00A0FF"/>
<path d="M21.9497 29.011L22.5554 28.7026L22.3801 28.4948L21.7572 28.7832L21.9497 29.011Z" fill="#00B0FF"/>
<path d="M22.3727 29.3153L22.9415 28.98L22.744 28.8656L22.1564 29.1897L22.3727 29.3153Z" fill="#0094FF"/>
<path d="M21.7571 28.783L22.3799 28.4946L22.2224 28.2473L21.5839 28.512L21.7571 28.783Z" fill="#00C4FF"/>
<path d="M22.593 29.3843L23.1427 29.0428L22.9415 28.9801L22.3727 29.3153L22.593 29.3843Z" fill="#0094FF"/>
<path d="M21.5838 28.5122L22.2223 28.2475L22.0865 27.9668L21.4343 28.2046L21.5838 28.5122Z" fill="#00E0FB"/>
<path d="M22.8118 29.395L23.3428 29.0522L23.1428 29.0429L22.5931 29.3844L22.8118 29.395Z" fill="#0094FF"/>
<path d="M21.4344 28.2045L22.0866 27.9667L21.9761 27.6595L21.3124 27.8679L21.4344 28.2045Z" fill="#13FCE4"/>
<path d="M23.0236 29.3468L23.5366 29.0078L23.3429 29.0522L22.8119 29.395L23.0236 29.3468Z" fill="#009CFF"/>
<path d="M21.3125 27.8681L21.9761 27.6597L21.8937 27.3338L21.221 27.5109L21.3125 27.8681Z" fill="#30FFC7"/>
<path d="M23.2229 29.2407L23.719 28.9106L23.5365 29.0078L23.0235 29.3468L23.2229 29.2407Z" fill="#00ACFF"/>
<path d="M21.2209 27.5106L21.8935 27.3336L21.8414 26.997L21.1625 27.1417L21.2209 27.5106Z" fill="#49FFAD"/>
<path d="M21.1625 27.1419L21.8414 26.9972L21.821 26.6585L21.1389 26.7706L21.1625 27.1419Z" fill="#6AFF8D"/>
<path d="M21.1389 26.7706L21.821 26.6585L21.8331 26.3264L21.1507 26.4063L21.1389 26.7706Z" fill="#87FF70"/>
<path d="M21.1508 26.4062L21.8332 26.3263L21.8776 26.0092L21.1982 26.0583L21.1508 26.4062Z" fill="#A7FF50"/>
<path d="M21.1981 26.0585L21.8776 26.0094L21.9534 25.7157L21.2799 25.7362L21.1981 26.0585Z" fill="#C4FF33"/>
<path d="M21.2801 25.736L21.9536 25.7155L22.059 25.453L21.3944 25.4478L21.2801 25.736Z" fill="#DEFF19"/>
<path d="M21.3941 25.4479L22.0587 25.4531L22.1911 25.2288L21.5382 25.2015L21.3941 25.4479Z" fill="#F8F500"/>
<path d="M21.5383 25.2014L22.1912 25.2287L22.3473 25.0486L21.7085 25.0036L21.5383 25.2014Z" fill="#FFDB00"/>
<path d="M21.7084 25.0038L22.3472 25.0488L22.523 24.918L21.9004 24.86L21.7084 25.0038Z" fill="#FFC800"/>
<path d="M21.9004 24.8598L22.523 24.9179L22.7138 24.8401L22.1091 24.7742L21.9004 24.8598Z" fill="#FFB900"/>
<path d="M22.1093 24.7743L22.7139 24.8401L22.9148 24.8176L22.3293 24.7494L22.1093 24.7743Z" fill="#FFAE00"/>
<path d="M21.7212 29.5153L22.1565 29.1899L21.9495 29.011L21.494 29.3188L21.7212 29.5153Z" fill="#008CFF"/>
<path d="M21.4939 29.3188L21.9495 29.0109L21.757 28.7832L21.2825 29.0688L21.4939 29.3188Z" fill="#009CFF"/>
<path d="M21.9584 29.6531L22.3727 29.3153L22.1564 29.1898L21.7211 29.5151L21.9584 29.6531Z" fill="#0080FF"/>
<path d="M21.2824 29.0688L21.757 28.7832L21.5838 28.5122L21.0919 28.7714L21.2824 29.0688Z" fill="#00B4FF"/>
<path d="M22.2 29.7291L22.593 29.3842L22.3727 29.3152L21.9584 29.6531L22.2 29.7291Z" fill="#007CFF"/>
<path d="M21.0919 28.7715L21.5837 28.5122L21.4342 28.2047L20.9272 28.4339L21.0919 28.7715Z" fill="#00D0FF"/>
<path d="M22.4398 29.7412L22.8118 29.3949L22.593 29.3843L22.2 29.7292L22.4398 29.7412Z" fill="#007CFF"/>
<path d="M20.9273 28.4339L21.4344 28.2046L21.3123 27.8681L20.7926 28.0646L20.9273 28.4339Z" fill="#09F0EE"/>
<path d="M22.6718 29.6887L23.0235 29.3466L22.8117 29.3948L22.4398 29.7411L22.6718 29.6887Z" fill="#0088FF"/>
<path d="M20.7925 28.0646L21.3122 27.8681L21.2208 27.5109L20.6913 27.6726L20.7925 28.0646Z" fill="#26FFD1"/>
<path d="M22.8903 29.5728L23.223 29.2406L23.0236 29.3466L22.6719 29.6887L22.8903 29.5728Z" fill="#0098FF"/>
<path d="M20.6913 27.6725L21.2209 27.5108L21.1625 27.1419L20.6262 27.2675L20.6913 27.6725Z" fill="#46FFB1"/>
<path d="M23.0896 29.3959L23.4049 29.079L23.223 29.2405L22.8904 29.5727L23.0896 29.3959Z" fill="#00ACFF"/>
<path d="M20.6262 27.2676L21.1625 27.142L21.1389 26.7707L20.5991 26.8599L20.6262 27.2676Z" fill="#66FF90"/>
<path d="M20.5991 26.8599L21.1389 26.7707L21.1508 26.4065L20.611 26.4597L20.5991 26.8599Z" fill="#8AFF6D"/>
<path d="M20.6111 26.4596L21.1509 26.4064L21.1982 26.0585L20.6618 26.0774L20.6111 26.4596Z" fill="#AAFF4D"/>
<path d="M20.6618 26.0773L21.1982 26.0585L21.28 25.7362L20.7504 25.723L20.6618 26.0773Z" fill="#CAFF2C"/>
<path d="M20.7505 25.723L21.28 25.7362L21.3943 25.448L20.875 25.406L20.7505 25.723Z" fill="#E7FF0F"/>
<path d="M20.8748 25.406L21.3941 25.448L21.5382 25.2016L21.0321 25.1349L20.8748 25.406Z" fill="#FFE600"/>
<path d="M21.0321 25.1347L21.5382 25.2014L21.7084 25.0035L21.2183 24.9169L21.0321 25.1347Z" fill="#FFCC00"/>
<path d="M21.2185 24.9171L21.7086 25.0038L21.9006 24.86L21.4288 24.7587L21.2185 24.9171Z" fill="#FFB600"/>
<path d="M21.4286 24.7587L21.9004 24.86L22.1091 24.7744L21.6576 24.6643L21.4286 24.7587Z" fill="#FFA300"/>
<path d="M21.6576 24.6642L22.1092 24.7743L22.3292 24.7494L21.8992 24.6367L21.6576 24.6642Z" fill="#FF9800"/>
<path d="M21.8992 24.6368L22.3292 24.7495L22.5547 24.7862L22.147 24.6771L21.8992 24.6368Z" fill="#FF9400"/>
<path d="M22.1469 24.6769L22.5546 24.7861L22.7795 24.8836L22.3942 24.7842L22.1469 24.6769Z" fill="#FF9400"/>
<path d="M21.4327 29.8285L21.7212 29.5151L21.494 29.3187L21.1837 29.6132L21.4327 29.8285Z" fill="#0074FF"/>
<path d="M21.1838 29.6132L21.4941 29.3187L21.2826 29.0687L20.952 29.3394L21.1838 29.6132Z" fill="#0084FF"/>
<path d="M21.6926 29.9799L21.9585 29.6532L21.7212 29.5152L21.4327 29.8286L21.6926 29.9799Z" fill="#0068FF"/>
<path d="M20.9518 29.3393L21.2825 29.0686L21.092 28.7712L20.7428 29.0135L20.9518 29.3393Z" fill="#00A0FF"/>
<path d="M21.9569 30.0634L22.1999 29.7291L21.9584 29.653L21.6924 29.9798L21.9569 30.0634Z" fill="#0064FF"/>
<path d="M20.7429 29.0136L21.0921 28.7712L20.9274 28.4337L20.562 28.6439L20.7429 29.0136Z" fill="#00C0FF"/>
<path d="M22.2195 30.077L22.4398 29.7411L22.2 29.7291L21.957 30.0634L22.2195 30.077Z" fill="#0064FF"/>
<path d="M20.562 28.644L20.9274 28.4338L20.7927 28.0645L20.4138 28.2394L20.562 28.644Z" fill="#00E4F8"/>
<path d="M22.4737 30.0201L22.6719 29.6887L22.4399 29.7411L22.2196 30.0771L22.4737 30.0201Z" fill="#0070FF"/>
<path d="M20.4138 28.2394L20.7927 28.0645L20.6915 27.6724L20.3021 27.8099L20.4138 28.2394Z" fill="#1FFFD7"/>
<path d="M22.7126 29.8938L22.8902 29.573L22.6718 29.6889L22.4735 30.0203L22.7126 29.8938Z" fill="#0080FF"/>
<path d="M20.3021 27.81L20.6914 27.6725L20.6263 27.2675L20.2298 27.3662L20.3021 27.81Z" fill="#40FFB7"/>
<path d="M22.9308 29.7005L23.0896 29.396L22.8903 29.5728L22.7127 29.8936L22.9308 29.7005Z" fill="#0098FF"/>
<path d="M20.2297 27.3661L20.6262 27.2674L20.5991 26.8597L20.1991 26.9192L20.2297 27.3661Z" fill="#66FF90"/>
<path d="M23.1222 29.445L23.2644 29.1625L23.0895 29.396L22.9308 29.7005L23.1222 29.445Z" fill="#00B4FF"/>
<path d="M20.1991 26.9191L20.5991 26.8596L20.6109 26.4595L20.2111 26.4803L20.1991 26.9191Z" fill="#8AFF6D"/>
<path d="M20.2113 26.4804L20.6112 26.4596L20.6619 26.0774L20.266 26.0611L20.2113 26.4804Z" fill="#ADFF49"/>
<path d="M20.2659 26.0611L20.6618 26.0774L20.7504 25.7231L20.3621 25.6722L20.2659 26.0611Z" fill="#D1FF26"/>
<path d="M20.3622 25.6722L20.7505 25.7231L20.8749 25.406L20.4978 25.324L20.3622 25.6722Z" fill="#F4F802"/>
<path d="M20.4978 25.324L20.875 25.406L21.0322 25.1349L20.6696 25.026L20.4978 25.324Z" fill="#FFD700"/>
<path d="M20.6697 25.026L21.0323 25.1348L21.2185 24.917L20.8733 24.7865L20.6697 25.026Z" fill="#FFB900"/>
<path d="M20.8733 24.7865L21.2185 24.9169L21.4288 24.7585L21.1036 24.6122L20.8733 24.7865Z" fill="#FF9F00"/>
<path d="M21.1036 24.6122L21.4287 24.7585L21.6577 24.6641L21.3545 24.5082L21.1036 24.6122Z" fill="#FF8D00"/>
<path d="M21.3545 24.5085L21.6577 24.6644L21.8993 24.6368L21.6195 24.478L21.3545 24.5085Z" fill="#FF8200"/>
<path d="M21.6194 24.4778L21.8992 24.6367L22.1469 24.677L21.8913 24.5219L21.6194 24.4778Z" fill="#FF7A00"/>
<path d="M21.8913 24.522L22.1469 24.6771L22.3941 24.7843L22.1628 24.6398L21.8913 24.522Z" fill="#FF7E00"/>
<path d="M23.2643 29.1624L23.5646 28.8659L23.4048 29.079L23.0895 29.3959L23.2643 29.1624Z" fill="#00C8FF"/>
<path d="M21.2185 30.5414L21.2122 30.3573L20.9177 30.1027L20.9017 30.2673L21.2185 30.5414Z" fill="#0028FF"/>
<path d="M20.9017 30.2674L20.9177 30.1028L20.6434 29.779L20.6065 29.9192L20.9017 30.2674Z" fill="#0040FF"/>
<path d="M21.5494 30.7347L21.5197 30.5369L21.2123 30.3575L21.2186 30.5416L21.5494 30.7347Z" fill="#0018FF"/>
<path d="M20.6067 29.9192L20.6436 29.7791L20.3961 29.3942L20.3403 29.5051L20.6067 29.9192Z" fill="#0060FF"/>
<path d="M21.8861 30.842L21.8325 30.6363L21.5198 30.5368L21.5495 30.7346L21.8861 30.842Z" fill="#0010FF"/>
<path d="M20.3403 29.5051L20.3961 29.3942L20.1816 28.9573L20.1094 29.0351L20.3403 29.5051Z" fill="#0088FF"/>
<path d="M22.2201 30.8607L22.1428 30.6535L21.8323 30.6365L21.8859 30.8421L22.2201 30.8607Z" fill="#0014FF"/>
<path d="M20.1092 29.035L20.1815 28.9572L20.0054 28.4789L19.9195 28.5203L20.1092 29.035Z" fill="#00B4FF"/>
<path d="M22.544 30.7896L22.4435 30.587L22.143 30.6534L22.2203 30.8606L22.544 30.7896Z" fill="#0020FF"/>
<path d="M19.9196 28.5203L20.0054 28.4789L19.8723 27.9709L19.7761 27.9735L19.9196 28.5203Z" fill="#02E8F4"/>
<path d="M22.8489 30.6301L22.7265 30.4384L22.4434 30.5869L22.5439 30.7895L22.8489 30.6301Z" fill="#0038FF"/>
<path d="M19.776 27.9736L19.8723 27.971L19.7857 27.4457L19.6826 27.408L19.776 27.9736Z" fill="#30FFC7"/>
<path d="M23.1275 30.3859L22.9849 30.2112L22.7265 30.4386L22.8489 30.6303L23.1275 30.3859Z" fill="#0054FF"/>
<path d="M19.6827 27.408L19.7858 27.4457L19.7483 26.9163L19.642 26.8377L19.6827 27.408Z" fill="#60FF97"/>
<path d="M23.3723 30.0617L23.2118 29.9096L22.9847 30.211L23.1273 30.3857L23.3723 30.0617Z" fill="#007CFF"/>
<path d="M19.6418 26.8376L19.7482 26.9162L19.7611 26.3959L19.6554 26.2769L19.6418 26.8376Z" fill="#8DFF6A"/>
<path d="M23.5771 29.6658L23.4014 29.5417L23.2118 29.9098L23.3723 30.0619L23.5771 29.6658Z" fill="#00A8FF"/>
<path d="M19.6555 26.277L19.7612 26.396L19.8247 25.8983L19.7236 25.7404L19.6555 26.277Z" fill="#BEFF39"/>
<path d="M23.7361 29.2069L23.5484 29.1155L23.4014 29.5415L23.5771 29.6656L23.7361 29.2069Z" fill="#00D8FF"/>
<path d="M19.7235 25.7406L19.8246 25.8986L19.9375 25.4366L19.8448 25.2422L19.7235 25.7406Z" fill="#EBFF0C"/>
<path d="M23.845 28.6969L23.6488 28.642L23.5486 29.1155L23.7363 29.207L23.845 28.6969Z" fill="#23FFD4"/>
<path d="M19.8449 25.2422L19.9375 25.4366L20.0973 25.0226L20.0168 24.7952L19.8449 25.2422Z" fill="#FFD300"/>
<path d="M23.8998 28.1481L23.6991 28.1328L23.6487 28.6418L23.8448 28.6967L23.8998 28.1481Z" fill="#50FFA7"/>
<path d="M20.0168 24.7951L20.0972 25.0224L20.3001 24.6677L20.2352 24.4119L20.0168 24.7951Z" fill="#FFA700"/>
<path d="M23.8992 27.5751L23.698 27.6013L23.6992 28.1329L23.8999 28.1482L23.8992 27.5751Z" fill="#80FF77"/>
<path d="M20.2353 24.4119L20.3001 24.6677L20.5411 24.3822L20.4949 24.1032L20.2353 24.4119Z" fill="#FF8200"/>
<path d="M23.8423 26.9928L23.6447 27.0615L23.698 27.6015L23.8992 27.5753L23.8423 26.9928Z" fill="#B1FF46"/>
<path d="M20.4949 24.1033L20.5411 24.3823L20.814 24.1741L20.7892 23.8781L20.4949 24.1033Z" fill="#FF6000"/>
<path d="M23.7303 26.4163L23.5404 26.5273L23.6446 27.0614L23.8423 26.9926L23.7303 26.4163Z" fill="#DEFF19"/>
<path d="M20.789 23.8779L20.8138 24.174L21.1116 24.0495L21.1103 23.7429L20.789 23.8779Z" fill="#FF4A00"/>
<path d="M23.5657 25.8617L23.3875 26.0135L23.5403 26.5273L23.7302 26.4163L23.5657 25.8617Z" fill="#FFE200"/>
<path d="M21.1103 23.743L21.1116 24.0496L21.4264 24.0125L21.4499 23.7024L21.1103 23.743Z" fill="#FF3800"/>
<path d="M23.3531 25.3442L23.1901 25.5341L23.3876 26.0135L23.5659 25.8617L23.3531 25.3442Z" fill="#FFB200"/>
<path d="M21.4502 23.7022L21.4267 24.0123L21.7499 24.0642L21.7991 23.7578L21.4502 23.7022Z" fill="#FF3000"/>
<path d="M23.0974 24.8781L22.9531 25.1024L23.1901 25.5342L23.3531 25.3442L23.0974 24.8781Z" fill="#FF8D00"/>
<path d="M21.7988 23.758L21.7497 24.0644L22.0727 24.2042L22.1474 23.9085L21.7988 23.758Z" fill="#FF3400"/>
<path d="M22.8057 24.4764L22.6826 24.7304L22.9529 25.1025L23.0973 24.8782L22.8057 24.4764Z" fill="#FF6800"/>
<path d="M22.1475 23.9085L22.0727 24.2042L22.3866 24.4282L22.4862 24.1502L22.1475 23.9085Z" fill="#FF3B00"/>
<path d="M22.4862 24.1501L22.3866 24.4281L22.6827 24.7304L22.8057 24.4763L22.4862 24.1501Z" fill="#FF4E00"/>
<path d="M21.2124 30.3576L21.2725 30.1148L21.0009 29.8799L20.9179 30.103L21.2124 30.3576Z" fill="#0040FF"/>
<path d="M20.9177 30.1028L21.0006 29.8797L20.7476 29.581L20.6433 29.779L20.9177 30.1028Z" fill="#0058FF"/>
<path d="M21.5196 30.5368L21.5559 30.2799L21.2724 30.1146L21.2123 30.3575L21.5196 30.5368Z" fill="#0034FF"/>
<path d="M20.6435 29.7791L20.7477 29.5811L20.5196 29.2259L20.396 29.3942L20.6435 29.7791Z" fill="#0074FF"/>
<path d="M21.8324 30.6365L21.8444 30.3716L21.5559 30.2801L21.5196 30.537L21.8324 30.6365Z" fill="#002CFF"/>
<path d="M20.3961 29.3942L20.5197 29.226L20.322 28.8229L20.1815 28.9573L20.3961 29.3942Z" fill="#009CFF"/>
<path d="M22.1428 30.6533L22.1306 30.3867L21.8443 30.3714L21.8323 30.6363L22.1428 30.6533Z" fill="#0030FF"/>
<path d="M20.1816 28.9573L20.322 28.8228L20.1599 28.3816L20.0055 28.479L20.1816 28.9573Z" fill="#00C4FF"/>
<path d="M22.4433 30.5871L22.4077 30.3252L22.1306 30.3869L22.1428 30.6534L22.4433 30.5871Z" fill="#003CFF"/>
<path d="M20.0054 28.479L20.1598 28.3816L20.0373 27.9131L19.8722 27.971L20.0054 28.479Z" fill="#0CF4EB"/>
<path d="M22.7263 30.4385L22.6685 30.1877L22.4076 30.3252L22.4433 30.587L22.7263 30.4385Z" fill="#0050FF"/>
<path d="M19.8723 27.971L20.0374 27.9131L19.958 27.4288L19.7858 27.4457L19.8723 27.971Z" fill="#36FFC1"/>
<path d="M22.9848 30.2111L22.9066 29.9775L22.6686 30.1878L22.7265 30.4386L22.9848 30.2111Z" fill="#006CFF"/>
<path d="M19.7857 27.4456L19.9579 27.4287L19.9238 26.9408L19.7482 26.9162L19.7857 27.4456Z" fill="#60FF97"/>
<path d="M23.2118 29.9097L23.1156 29.6992L22.9066 29.9775L22.9848 30.211L23.2118 29.9097Z" fill="#0090FF"/>
<path d="M19.7483 26.9162L19.9239 26.9408L19.9363 26.4616L19.7613 26.396L19.7483 26.9162Z" fill="#8DFF6A"/>
<path d="M23.4015 29.5416L23.29 29.3595L23.1156 29.6992L23.2119 29.9097L23.4015 29.5416Z" fill="#00B8FF"/>
<path d="M19.7612 26.3961L19.9363 26.4616L19.9952 26.0034L19.8247 25.8984L19.7612 26.3961Z" fill="#B7FF40"/>
<path d="M23.5485 29.1156L23.4251 28.9666L23.29 29.3596L23.4015 29.5417L23.5485 29.1156Z" fill="#02E8F4"/>
<path d="M19.8248 25.8985L19.9953 26.0035L20.0997 25.5783L19.9376 25.4365L19.8248 25.8985Z" fill="#E1FF16"/>
<path d="M23.6486 28.642L23.5169 28.5301L23.425 28.9666L23.5483 29.1156L23.6486 28.642Z" fill="#29FFCE"/>
<path d="M19.9374 25.4364L20.0995 25.5782L20.247 25.1974L20.0971 25.0223L19.9374 25.4364Z" fill="#FFDE00"/>
<path d="M23.6991 28.1328L23.563 28.0611L23.517 28.53L23.6487 28.6419L23.6991 28.1328Z" fill="#53FFA4"/>
<path d="M20.0973 25.0226L20.2472 25.1977L20.4343 24.8716L20.3001 24.6678L20.0973 25.0226Z" fill="#FFB600"/>
<path d="M23.6979 27.6014L23.5616 27.5717L23.5631 28.0611L23.6991 28.1329L23.6979 27.6014Z" fill="#80FF77"/>
<path d="M20.3 24.6677L20.4342 24.8715L20.6563 24.6093L20.541 24.3822L20.3 24.6677Z" fill="#FF9400"/>
<path d="M23.6445 27.0616L23.5121 27.075L23.5615 27.572L23.6978 27.6016L23.6445 27.0616Z" fill="#ADFF49"/>
<path d="M20.541 24.3822L20.6563 24.6093L20.9077 24.4183L20.814 24.1741L20.541 24.3822Z" fill="#FF7700"/>
<path d="M23.5404 26.5273L23.416 26.5834L23.5123 27.0748L23.6446 27.0614L23.5404 26.5273Z" fill="#D7FF1F"/>
<path d="M20.8138 24.1741L20.9076 24.4183L21.1817 24.3043L21.1116 24.0496L20.8138 24.1741Z" fill="#FF6000"/>
<path d="M23.3875 26.0135L23.2752 26.1109L23.416 26.5834L23.5403 26.5272L23.3875 26.0135Z" fill="#FEED00"/>
<path d="M21.1117 24.0496L21.1818 24.3043L21.4714 24.2706L21.4265 24.0125L21.1117 24.0496Z" fill="#FF5200"/>
<path d="M23.1899 25.5343L23.0933 25.6704L23.2752 26.1111L23.3875 26.0137L23.1899 25.5343Z" fill="#FFC400"/>
<path d="M21.4265 24.0126L21.4715 24.2707L21.7688 24.3187L21.7498 24.0645L21.4265 24.0126Z" fill="#FF4A00"/>
<path d="M22.953 25.1026L22.8754 25.2735L23.0935 25.6704L23.1901 25.5343L22.953 25.1026Z" fill="#FF9F00"/>
<path d="M21.7498 24.0643L21.7688 24.3185L22.0658 24.4472L22.0728 24.2041L21.7498 24.0643Z" fill="#FF4A00"/>
<path d="M22.6829 24.7304L22.6269 24.9313L22.8754 25.2734L22.9531 25.1026L22.6829 24.7304Z" fill="#FF7E00"/>
<path d="M22.0728 24.2042L22.0659 24.4474L22.3545 24.6534L22.3866 24.4282L22.0728 24.2042Z" fill="#FF5500"/>
<path d="M22.3867 24.4281L22.3546 24.6534L22.6268 24.9313L22.6828 24.7304L22.3867 24.4281Z" fill="#FF6800"/>
<path d="M21.2725 30.1146L21.4328 29.8285L21.1838 29.6132L21.0009 29.8797L21.2725 30.1146Z" fill="#005CFF"/>
<path d="M21.0009 29.8797L21.1838 29.6132L20.9519 29.3393L20.7479 29.581L21.0009 29.8797Z" fill="#0070FF"/>
<path d="M21.5558 30.2799L21.6925 29.9798L21.4325 29.8285L21.2723 30.1146L21.5558 30.2799Z" fill="#004CFF"/>
<path d="M20.7479 29.5812L20.952 29.3395L20.743 29.0137L20.5197 29.226L20.7479 29.5812Z" fill="#008CFF"/>
<path d="M21.8444 30.3715L21.9571 30.0635L21.6926 29.9799L21.5559 30.28L21.8444 30.3715Z" fill="#0048FF"/>
<path d="M20.5195 29.226L20.7427 29.0138L20.5618 28.6441L20.3218 28.8229L20.5195 29.226Z" fill="#00ACFF"/>
<path d="M22.1306 30.3868L22.2195 30.0772L21.957 30.0636L21.8443 30.3715L22.1306 30.3868Z" fill="#004CFF"/>
<path d="M20.3219 28.8229L20.5619 28.6441L20.4137 28.2396L20.1598 28.3817L20.3219 28.8229Z" fill="#00D4FF"/>
<path d="M22.4077 30.3253L22.4736 30.0203L22.2196 30.0773L22.1307 30.3869L22.4077 30.3253Z" fill="#0054FF"/>
<path d="M20.1597 28.3816L20.4136 28.2395L20.3019 27.81L20.0373 27.9131L20.1597 28.3816Z" fill="#16FFE1"/>
<path d="M22.6686 30.1877L22.7126 29.8937L22.4735 30.0201L22.4077 30.3251L22.6686 30.1877Z" fill="#0068FF"/>
<path d="M20.0375 27.9132L20.3021 27.8101L20.2299 27.3663L19.9581 27.4289L20.0375 27.9132Z" fill="#3CFFBA"/>
<path d="M22.9066 29.9776L22.9308 29.7007L22.7127 29.8938L22.6686 30.1879L22.9066 29.9776Z" fill="#0080FF"/>
<path d="M19.9578 27.4289L20.2297 27.3662L20.1991 26.9193L19.9237 26.9409L19.9578 27.4289Z" fill="#63FF94"/>
<path d="M23.1156 29.6993L23.1222 29.4452L22.9308 29.7006L22.9066 29.9776L23.1156 29.6993Z" fill="#00A0FF"/>
<path d="M19.924 26.9408L20.1993 26.9191L20.2114 26.4803L19.9364 26.4616L19.924 26.9408Z" fill="#8DFF6A"/>
<path d="M23.29 29.3595L23.2819 29.1334L23.1222 29.445L23.1156 29.6992L23.29 29.3595Z" fill="#00C8FF"/>
<path d="M19.9362 26.4617L20.2112 26.4804L20.2659 26.061L19.9952 26.0035L19.9362 26.4617Z" fill="#B4FF43"/>
<path d="M23.4251 28.9665L23.4055 28.7731L23.2819 29.1333L23.29 29.3595L23.4251 28.9665Z" fill="#0CF4EB"/>
<path d="M19.9952 26.0033L20.2659 26.0609L20.3621 25.6719L20.0996 25.5782L19.9952 26.0033Z" fill="#DBFF1C"/>
<path d="M23.517 28.5301L23.4896 28.3733L23.4055 28.7732L23.4251 28.9666L23.517 28.5301Z" fill="#30FFC7"/>
<path d="M20.0996 25.5782L20.3622 25.672L20.4978 25.3238L20.2471 25.1974L20.0996 25.5782Z" fill="#FEED00"/>
<path d="M23.5631 28.0611L23.5317 27.9438L23.4897 28.3732L23.5171 28.5301L23.5631 28.0611Z" fill="#56FFA0"/>
<path d="M20.2473 25.1977L20.4979 25.324L20.6697 25.0261L20.4344 24.8716L20.2473 25.1977Z" fill="#FFC800"/>
<path d="M23.5674 27.5719L23.5303 27.4961L23.532 27.9439L23.5692 28.0613L23.5674 27.5719Z" fill="#80FF77"/>
<path d="M20.4342 24.8714L20.6696 25.0259L20.8732 24.7865L20.6563 24.6092L20.4342 24.8714Z" fill="#FFA700"/>
<path d="M23.5123 27.0748L23.4851 27.0414L23.5303 27.496L23.5617 27.5718L23.5123 27.0748Z" fill="#A7FF50"/>
<path d="M20.6563 24.6093L20.8732 24.7866L21.1035 24.6124L20.9077 24.4184L20.6563 24.6093Z" fill="#FF8D00"/>
<path d="M23.4161 26.5836L23.3971 26.5921L23.4851 27.0414L23.5123 27.0749L23.4161 26.5836Z" fill="#CEFF29"/>
<path d="M20.9078 24.4183L21.1036 24.6123L21.3546 24.5084L21.1819 24.3042L20.9078 24.4183Z" fill="#FF7700"/>
<path d="M23.2752 26.1111L23.2682 26.1603L23.3969 26.5922L23.416 26.5836L23.2752 26.1111Z" fill="#F4F802"/>
<path d="M21.1817 24.3042L21.3544 24.5083L21.6194 24.4778L21.4714 24.2705L21.1817 24.3042Z" fill="#FF6C00"/>
<path d="M23.0934 25.6702L23.102 25.7572L23.2682 26.16L23.2752 26.1109L23.0934 25.6702Z" fill="#FFD300"/>
<path d="M21.4715 24.2706L21.6195 24.478L21.8914 24.5221L21.7688 24.3187L21.4715 24.2706Z" fill="#FF6400"/>
<path d="M22.8754 25.2734L22.9029 25.3947L23.1022 25.7574L23.0935 25.6703L22.8754 25.2734Z" fill="#FFB200"/>
<path d="M21.7688 24.3186L21.8914 24.522L22.1629 24.6398L22.0658 24.4473L21.7688 24.3186Z" fill="#FF6400"/>
<path d="M22.6269 24.9312L22.6757 25.0821L22.9028 25.3947L22.8754 25.2734L22.6269 24.9312Z" fill="#FF9400"/>
<path d="M22.0658 24.4472L22.1629 24.6397L22.4267 24.8281L22.3544 24.6533L22.0658 24.4472Z" fill="#FF6C00"/>
<path d="M22.3544 24.6533L22.4267 24.8281L22.6755 25.082L22.6267 24.9312L22.3544 24.6533Z" fill="#FF7E00"/>
<path d="M21.2567 30.6535L21.2186 30.5417L20.9018 30.2676L20.9187 30.3611L21.2567 30.6535Z" fill="#000CFF"/>
<path d="M20.9186 30.3611L20.9017 30.2676L20.6065 29.9193L20.6036 29.9894L20.9186 30.3611Z" fill="#0028FF"/>
<path d="M21.6098 30.8595L21.5494 30.7346L21.2187 30.5415L21.2568 30.6534L21.6098 30.8595Z" fill="#0000FF"/>
<path d="M20.6035 29.9895L20.6064 29.9193L20.34 29.5052L20.3192 29.5476L20.6035 29.9895Z" fill="#004CFF"/>
<path d="M21.9689 30.9743L21.8859 30.842L21.5493 30.7347L21.6096 30.8596L21.9689 30.9743Z" fill="#0000FF"/>
<path d="M20.3193 29.5473L20.3401 29.5049L20.1092 29.0349L20.0728 29.0457L20.3193 29.5473Z" fill="#0074FF"/>
<path d="M22.3257 30.9942L22.2201 30.8605L21.8858 30.8419L21.9689 30.9741L22.3257 30.9942Z" fill="#0000FF"/>
<path d="M20.0728 29.0459L20.1091 29.0351L19.9195 28.5205L19.8702 28.4966L20.0728 29.0459Z" fill="#00A8FF"/>
<path d="M22.6715 30.9188L22.5438 30.7896L22.2201 30.8605L22.3258 30.9943L22.6715 30.9188Z" fill="#0008FF"/>
<path d="M19.8703 28.4966L19.9195 28.5204L19.776 27.9736L19.717 27.9128L19.8703 28.4966Z" fill="#00E0FB"/>
<path d="M22.9977 30.7489L22.849 30.6301L22.544 30.7894L22.6717 30.9187L22.9977 30.7489Z" fill="#0020FF"/>
<path d="M19.7168 27.9129L19.7759 27.9737L19.6824 27.4081L19.6169 27.3088L19.7168 27.9129Z" fill="#2CFFCA"/>
<path d="M23.2956 30.4885L23.1275 30.3859L22.8489 30.6303L22.9977 30.7491L23.2956 30.4885Z" fill="#0040FF"/>
<path d="M19.6171 27.3086L19.6826 27.4079L19.642 26.8376L19.5734 26.6992L19.6171 27.3086Z" fill="#5DFF9A"/>
<path d="M23.5576 30.1426L23.3723 30.0618L23.1274 30.3858L23.2954 30.4883L23.5576 30.1426Z" fill="#0068FF"/>
<path d="M19.5733 26.6995L19.6418 26.8379L19.6554 26.2772L19.5876 26.1001L19.5733 26.6995Z" fill="#90FF66"/>
<path d="M23.777 29.7199L23.5771 29.6658L23.3723 30.0619L23.5576 30.1427L23.777 29.7199Z" fill="#0098FF"/>
<path d="M19.5876 26.1001L19.6554 26.2772L19.7235 25.7406L19.6601 25.5262L19.5876 26.1001Z" fill="#C1FF36"/>
<path d="M23.9477 29.2297L23.7362 29.2069L23.5772 29.6656L23.7771 29.7197L23.9477 29.2297Z" fill="#00CCFF"/>
<path d="M19.6602 25.5259L19.7236 25.7404L19.8449 25.2419L19.7896 24.9925L19.6602 25.5259Z" fill="#F4F802"/>
<path d="M24.0646 28.6847L23.8449 28.6969L23.7363 29.207L23.9478 29.2298L24.0646 28.6847Z" fill="#1CFFDB"/>
<path d="M19.7895 24.9925L19.8448 25.2419L20.0167 24.7949L19.973 24.5138L19.7895 24.9925Z" fill="#FFC400"/>
<path d="M24.1242 28.0981L23.8999 28.1482L23.845 28.6968L24.0647 28.6847L24.1242 28.0981Z" fill="#4DFFAA"/>
<path d="M19.973 24.5139L20.0166 24.7951L20.2351 24.4118L20.2064 24.1033L19.973 24.5139Z" fill="#FF9800"/>
<path d="M24.1242 27.4852L23.8992 27.5751L23.8999 28.1482L24.1242 28.0981L24.1242 27.4852Z" fill="#80FF77"/>
<path d="M20.2064 24.1033L20.2351 24.4119L20.4947 24.1032L20.484 23.7722L20.2064 24.1033Z" fill="#FF6F00"/>
<path d="M24.0641 26.8618L23.8424 26.9925L23.8992 27.575L24.1242 27.4851L24.0641 26.8618Z" fill="#B4FF43"/>
<path d="M20.4841 23.7721L20.4949 24.1031L20.7892 23.8778L20.7989 23.5303L20.4841 23.7721Z" fill="#FF4A00"/>
<path d="M23.9448 26.2452L23.7303 26.4163L23.8422 26.9926L24.0639 26.862L23.9448 26.2452Z" fill="#E4FF13"/>
<path d="M20.799 23.5303L20.7893 23.8778L21.1105 23.7428L21.1426 23.3849L20.799 23.5303Z" fill="#FF3000"/>
<path d="M23.7694 25.6516L23.5659 25.8619L23.7303 26.4164L23.9448 26.2453L23.7694 25.6516Z" fill="#FFD300"/>
<path d="M21.1424 23.3852L21.1103 23.743L21.4499 23.7025L21.5058 23.3411L21.1424 23.3852Z" fill="#FF2200"/>
<path d="M23.5421 25.0974L23.3531 25.3442L23.566 25.8617L23.7695 25.6515L23.5421 25.0974Z" fill="#FFA300"/>
<path d="M21.5059 23.341L21.45 23.7024L21.7989 23.7579L21.8793 23.3998L21.5059 23.341Z" fill="#FF1A00"/>
<path d="M23.2687 24.5983L23.0974 24.8781L23.353 25.3442L23.542 25.0974L23.2687 24.5983Z" fill="#FF7A00"/>
<path d="M21.8793 23.3999L21.7989 23.758L22.1475 23.9085L22.2524 23.5607L21.8793 23.3999Z" fill="#FF1A00"/>
<path d="M22.9569 24.168L22.8058 24.4762L23.0973 24.878L23.2687 24.5982L22.9569 24.168Z" fill="#FF5500"/>
<path d="M22.2525 23.5606L22.1476 23.9085L22.4863 24.1501L22.615 23.8191L22.2525 23.5606Z" fill="#FF2500"/>
<path d="M22.6149 23.8189L22.4862 24.15L22.8058 24.4762L22.9568 24.1681L22.6149 23.8189Z" fill="#FF3800"/>
<defs>
<linearGradient id="paint0_linear" x1="18.9804" y1="18.9813" x2="18.9804" y2="31.0373" gradientUnits="userSpaceOnUse">
<stop stop-color="#FF1A00"/>
<stop offset="0.244946" stop-color="#F8F500"/>
<stop offset="0.494291" stop-color="#87FF70"/>
<stop offset="0.747869" stop-color="#00E0FB"/>
<stop offset="1" stop-color="#004CFF"/>
</linearGradient>
</defs>
</svg>
