<svg viewBox="0 0 44 44" fill="none" xmlns="http://www.w3.org/2000/svg">
  <path
    d="M20 0C31.0457 0 40 8.9543 40 20C40 22.2529 39.6272 24.4188 38.9404 26.4395C38.0107 26.1539 37.0233 26 36 26C30.4772 26 26 30.4772 26 36C26 37.0233 26.1539 38.0107 26.4395 38.9404C24.4188 39.6272 22.2529 40 20 40C8.9543 40 0 31.0457 0 20C0 8.9543 8.9543 0 20 0Z"
    fill="#A051EA" />
  <path opacity="0.2"
    d="M7.5 7.58316C14.3575 0.678756 25.5145 0.642686 32.4189 7.50016C37.4462 12.4935 38.8299 19.7652 36.5645 26.0158C36.3779 26.0054 36.1901 26.0002 36.001 26.0002C33.2547 26.0002 30.7672 27.1074 28.96 28.8996L7.5 7.58316Z"
    fill="white" />
  <path
    d="M30.187 10.8448C30.1661 11.7009 30.0987 13.5529 29.8726 15.7159C28.9889 13.6589 27.7678 12.0122 26.2085 10.8156L30.187 10.8448Z"
    fill="white" stroke="#FAFBFB" />
  <path
    d="M28 36C28 31.5817 31.5817 28 36 28C40.4183 28 44 31.5817 44 36C44 40.4183 40.4183 44 36 44C31.5817 44 28 40.4183 28 36Z"
    fill="white" />
  <g clip-path="url(#clip0_4080_20974)">
    <path
      d="M32.1867 35.1488L32.0863 35.2979C30.9322 37.0873 31.1831 39.4234 32.7386 40.9145C33.5917 41.8092 34.796 42.2565 36.0003 42.2565C36.0003 42.2565 36.0003 42.2565 32.1867 35.1488Z"
      fill="#00A3FF" />
    <path opacity="0.6"
      d="M36.0001 37.286L32.1865 35.099C36.0001 42.2564 36.0001 42.2564 36.0001 42.2564C36.0001 40.7156 36.0001 38.9262 36.0001 37.286Z"
      fill="#00A3FF" />
    <path opacity="0.6"
      d="M39.8136 35.1488L39.914 35.2979C41.0681 37.0873 40.8172 39.4234 39.2616 40.9145C38.3584 41.8092 37.2043 42.2565 36 42.2565C36 42.2565 36 42.2565 39.8136 35.1488Z"
      fill="#00A3FF" />
    <path opacity="0.2"
      d="M36 37.286L39.8136 35.099C36 42.2564 36 42.2564 36 42.2564C36 40.7156 36 38.9262 36 37.286Z"
      fill="#00A3FF" />
    <path opacity="0.2" d="M36 32.4647V36.1925L39.3118 34.3535L36 32.4647Z" fill="#00A3FF" />
    <path opacity="0.6" d="M36.0003 32.4647L32.6885 34.3535L36.0003 36.1925V32.4647Z" fill="#00A3FF" />
    <path d="M36.0003 29.3334L32.6885 34.3535L36.0003 32.4647V29.3334Z" fill="#00A3FF" />
    <path opacity="0.6" d="M36 32.4647L39.3118 34.3535L36 29.3334V32.4647Z" fill="#00A3FF" />
  </g>
  <path
    d="M19.208 9.95312C23.0113 9.95312 27.907 11.602 29.6279 19.457C30.2659 22.3688 30.523 25.5454 30.627 27.5674C29.7308 28.1396 28.9301 28.8483 28.2588 29.668L25.6416 29.6875C25.6416 29.638 25.5924 24.6603 24.6895 20.54C23.6242 15.6792 21.4248 15.0098 19.208 15.0098C16.4578 15.0102 14.2199 17.2478 14.2197 19.998C14.2197 22.7485 16.4577 24.9869 19.208 24.9873V24.9922C21.9481 24.992 23.2733 23.5728 24.0342 21.6885C24.5097 24.2857 24.6813 27.052 24.7422 28.5586C23.1901 29.5463 21.3357 30.0468 19.208 30.0469V30.0439L18.6924 30.0303C13.392 29.7606 9.16309 25.3643 9.16309 19.998C9.16327 14.459 13.6691 9.95354 19.208 9.95312Z"
    fill="white" />
  <defs>
    <clipPath id="clip0_4080_20974">
      <rect width="9.33333" height="12.9231" fill="white" transform="translate(31.3335 29.3334)" />
    </clipPath>
  </defs>
</svg>