<svg width="33" height="33" viewBox="0 0 33 33" fill="none" xmlns="http://www.w3.org/2000/svg">
<g clip-path="url(#clip0_2346_15006)">
<g clip-path="url(#clip1_2346_15006)">
<mask id="mask0_2346_15006" style="mask-type:luminance" maskUnits="userSpaceOnUse" x="0" y="0" width="33" height="33">
<path d="M32.5 0.5H0.5V32.5H32.5V0.5Z" fill="white"/>
</mask>
<g mask="url(#mask0_2346_15006)">
<path d="M16.5 32.5C25.3366 32.5 32.5 25.3366 32.5 16.5C32.5 7.66344 25.3366 0.5 16.5 0.5C7.66344 0.5 0.5 7.66344 0.5 16.5C0.5 25.3366 7.66344 32.5 16.5 32.5Z" fill="#F1F5F9"/>
<path d="M17.4601 20.7489C14.76 20.7833 12.6588 20.4096 11.0995 19.9042C10.7937 19.8003 10.1265 19.4964 9.90338 19.1119C9.77994 18.8991 9.77846 18.353 9.82138 17.7908C9.83346 17.8299 9.84758 17.8639 9.86386 17.892C10.0865 18.2767 10.7579 18.5796 11.0657 18.6829C12.6359 19.1858 14.7537 19.5555 17.4784 19.5153C20.508 19.4705 22.3676 19.1135 23.4598 18.6904C23.4592 18.7001 23.4585 18.7099 23.4579 18.7196C23.4126 19.4186 23.3685 20.097 21.5776 20.4156C20.5413 20.5999 19.1945 20.7268 17.4601 20.7489Z" fill="#FF1100"/>
<path d="M17.4601 21.7343C14.76 21.7687 12.6588 21.395 11.0995 20.8896C10.7937 20.7857 10.1265 20.4818 9.90338 20.0973C9.77994 19.8845 9.77846 19.3384 9.82138 18.7762C9.83346 18.8153 9.84758 18.8493 9.86386 18.8774C10.0865 19.262 10.7579 19.5649 11.0657 19.6683C12.6359 20.1712 14.7537 20.5409 17.4784 20.5006C20.508 20.4559 22.3676 20.0989 23.4598 19.6758C23.4592 19.6855 23.4585 19.6953 23.4579 19.705C23.4126 20.404 23.3685 21.0824 21.5776 21.4009C20.5413 21.5852 19.1945 21.7122 17.4601 21.7343Z" fill="#FDBF41"/>
<path d="M24.1031 20.7294C24.1282 21.3616 22.7069 22.6448 16.8204 22.7198C14.1204 22.7542 12.0192 22.3805 10.4599 21.875C10.1541 21.7712 9.48685 21.4673 9.26373 21.0828C9.14029 20.87 9.13881 20.3238 9.18173 19.7617C9.19381 19.8008 9.20793 19.8348 9.22421 19.8629C9.44685 20.2475 10.1182 20.5504 10.4261 20.6538C11.9963 21.1566 14.1141 21.5264 16.8387 21.4861C21.5301 21.4168 23.416 20.5988 23.9911 19.9459L24.1031 20.7294Z" fill="#F1ECE2"/>
<path d="M17.0275 9.18932C18.1135 9.57784 19.7213 11.7258 17.4638 17.2094C16.4283 19.7246 14.9411 21.4213 13.4492 22.5319C13.1486 22.7466 12.3612 23.1648 11.6164 23.1204C11.3249 23.103 10.7743 22.9206 10.1445 22.6718C10.2905 22.7103 10.4148 22.7342 10.5109 22.74C11.2557 22.7848 12.0431 22.3622 12.3437 22.1453C13.8357 21.023 15.3229 19.3084 16.3583 16.7666C18.2222 12.1915 17.4513 9.91408 16.5145 9.03796L17.0275 9.18932Z" fill="#FF1100"/>
<path d="M17.9592 9.25175C19.0453 9.65147 20.653 11.8613 18.3955 17.5028C17.3601 20.0906 15.8729 21.8361 14.3809 22.9787C14.0803 23.1995 13.2929 23.6298 12.5481 23.5841C12.2566 23.5662 11.7059 23.3786 11.0762 23.1226C11.2222 23.1622 11.3465 23.1868 11.4427 23.1928C12.1874 23.2389 12.9748 22.8041 13.2755 22.581C14.7674 21.4264 16.2546 19.6624 17.2901 17.0473C19.1539 12.3404 18.383 9.99739 17.4462 9.09607L17.9592 9.25175Z" fill="#FDBF41"/>
<path d="M18.7746 9.77346C19.8607 10.1732 21.4685 12.383 19.211 18.0245C18.1755 20.6123 16.6883 22.3578 15.1964 23.5004C14.8957 23.7212 14.1083 24.1515 13.3636 24.1058C13.072 24.0879 12.5214 23.9003 11.8916 23.6443C12.0376 23.6839 12.162 23.7085 12.2581 23.7145C13.0028 23.7606 13.7902 23.3258 14.0909 23.1027C15.5828 21.948 17.07 20.1841 18.1055 17.569C19.9693 12.8621 19.1984 10.5191 18.2616 9.61774L18.7746 9.77346Z" fill="#F1ECE2"/>
<path d="M19.9563 18.2778C22.2138 12.4274 20.606 10.1357 19.52 9.72119L19.007 9.55975C19.0168 9.56955 19.0266 9.57951 19.0364 9.58963C18.2487 9.46067 17.1694 9.99559 16.1514 11.0196C16.0059 11.1646 16.6434 10.9259 16.8496 10.7205C17.3441 10.3148 18.084 10.1117 18.7794 10.4034C20.3484 11.0615 20.381 14.5278 18.852 18.1456C17.3231 21.7634 14.9863 24.1046 13.4172 23.4464C13.2074 23.3584 12.9881 23.1938 12.8058 23.0672C12.3848 22.6912 12.1949 22.1891 12.1949 20.8935V22.492C12.0844 22.3277 11.9912 22.1436 11.9186 21.9369C11.904 21.5891 11.6713 21.0094 11.5996 21.6181C11.6537 22.946 12.2296 23.7178 13.007 24.1786L13.0034 24.1784C12.9743 24.1765 12.9518 24.1759 12.9324 24.1753C12.8582 24.1732 12.8281 24.1723 12.6372 24.109C13.2468 24.3764 13.5806 24.5008 13.9463 24.5148C14.803 24.5476 15.7985 24.0482 16.0991 23.8192C17.591 22.6344 18.9208 20.9614 19.9563 18.2778Z" fill="#007FFF"/>
<path d="M16.8523 15.3131C19.5523 15.2787 21.6535 15.6524 23.2129 16.1579C23.5186 16.2617 24.1859 16.5656 24.4089 16.9501C24.5324 17.1629 24.5339 17.7091 24.491 18.2712C24.4789 18.2321 24.4648 18.1981 24.4485 18.17C24.2258 17.7854 23.5545 17.4825 23.2466 17.3791C21.6764 16.8763 19.5586 16.5065 16.834 16.5468C13.8043 16.5915 11.9447 16.9485 10.8525 17.3717C10.8532 17.3619 10.8538 17.3522 10.8544 17.3424C10.8998 16.6434 10.9438 15.965 12.7347 15.6465C13.7711 15.4622 15.1179 15.3352 16.8523 15.3131Z" fill="#FF1100"/>
<path d="M16.8523 16.4246C19.5523 16.3902 21.6535 16.7639 23.2129 17.2693C23.5186 17.3732 24.1859 17.677 24.4089 18.0616C24.5324 18.2744 24.5339 18.8205 24.491 19.3826C24.4789 19.3436 24.4648 19.3096 24.4485 19.2815C24.2258 18.8968 23.5545 18.594 23.2466 18.4906C21.6764 17.9877 19.5586 17.618 16.834 17.6582C13.8043 17.703 11.9447 18.06 10.8525 18.4832C10.8532 18.4734 10.8538 18.4636 10.8544 18.4539C10.8998 17.7549 10.9438 17.0765 12.7347 16.758C13.7711 16.5736 15.1179 16.4466 16.8523 16.4246Z" fill="#FDBF41"/>
<path opacity="0.48" d="M24.0901 21.0971C24.1166 21.0759 24.1166 21.0737 24.0901 21.0525C24.0287 21.002 23.963 20.9579 23.8957 20.916C23.6711 20.7763 23.4311 20.6698 23.1853 20.5773C23.1291 20.5561 23.0746 20.5306 23.0147 20.5197C22.9983 20.5006 22.9739 20.499 22.9527 20.492C22.7233 20.4136 22.4897 20.3495 22.2555 20.288C22.2359 20.2864 22.2168 20.2821 22.1999 20.2723C22.0902 20.2478 21.9806 20.2228 21.8714 20.1984C21.6685 20.1532 21.4646 20.1141 21.2601 20.0787C21.1086 20.0526 20.9565 20.0282 20.8045 20.0048C20.6858 19.9868 20.5671 19.9684 20.4474 19.9596C20.4278 19.9564 20.4082 19.9526 20.3881 19.9498C19.969 19.8971 19.5494 19.8574 19.1283 19.8275C18.8533 19.8085 18.5784 19.7933 18.3029 19.7824C17.9432 19.7682 17.5829 19.7617 17.2227 19.7617C16.7761 19.7617 16.33 19.7732 15.8844 19.7954C15.3695 19.821 14.8556 19.8612 14.3433 19.92C14.2596 19.9298 14.1749 19.9352 14.0922 19.9537C14.0753 19.9488 14.0588 19.9537 14.0419 19.9553C13.6769 20.0015 13.3134 20.0586 12.9522 20.1288C12.7387 20.1701 12.5262 20.2157 12.3154 20.2674L12.3111 20.2745C12.3111 20.2745 12.2566 21.0802 12.3774 21.867C12.5856 21.9176 12.7948 21.9627 13.0046 22.003C13.1922 22.0388 13.3802 22.0731 13.5693 22.1008C13.8342 22.14 14.0996 22.1797 14.3661 22.2079C14.6252 22.2357 14.8837 22.2645 15.1433 22.284C15.2969 22.2955 15.45 22.3091 15.6037 22.3183C15.831 22.3319 16.0588 22.3433 16.286 22.3515C16.4937 22.3591 16.7014 22.3651 16.909 22.3678C17.2412 22.3721 17.5739 22.3705 17.9061 22.3634C18.226 22.3564 18.546 22.3439 18.8655 22.3254C19.2464 22.3036 19.6268 22.2726 20.0066 22.2324C20.5857 22.171 21.1615 22.0883 21.7321 21.9714C22.2306 21.8692 22.7233 21.7441 23.2012 21.5636C23.4094 21.4853 23.6133 21.3956 23.8072 21.2847C23.9058 21.2287 24.0011 21.1678 24.0901 21.0966V21.0971Z" fill="url(#paint0_linear_2346_15006)"/>
<path d="M9.56868 19.4584C9.54356 18.8261 10.965 17.5429 16.8514 17.468C19.5514 17.4336 21.6526 17.8072 23.212 18.3127C23.5177 18.4166 24.185 18.7204 24.408 19.1049C24.5315 19.3177 24.533 19.8639 24.4901 20.426C24.478 20.3869 24.4639 20.353 24.4476 20.3248C24.2249 19.9402 23.5536 19.6373 23.2457 19.534C21.6755 19.0311 19.5577 18.6614 16.8331 18.7016C12.1417 18.7709 10.2558 19.589 9.68068 20.2418L9.56868 19.4584Z" fill="#F1ECE2"/>
<path d="M9.56868 20.6177C9.54356 19.9854 10.965 18.7022 16.8514 18.6273C19.5514 18.5929 21.6526 18.9665 23.212 19.472C23.5177 19.5759 24.185 19.8797 24.408 20.2643C24.5193 20.4559 24.5315 20.9183 24.5014 21.419C24.2629 21.0473 23.5474 20.7945 23.2459 20.6932C21.6757 20.1903 19.5579 19.8207 16.8332 19.8609C12.1415 19.9301 10.2557 20.7484 9.68072 21.4012L9.56868 20.6177Z" fill="#007FFF"/>
<path d="M10.0935 22.9646C9.00746 22.5617 7.39966 20.3346 9.65718 14.6487C10.6927 12.0407 12.1799 10.2814 13.6718 9.12991C13.9724 8.90735 14.7598 8.47371 15.5046 8.51975C15.9256 8.54575 16.8872 8.92863 17.8468 9.36051C17.7481 9.37075 17.6527 9.38127 17.5618 9.39127C17.2319 9.42763 16.9588 9.45771 16.7846 9.44711C16.0399 9.40191 15.2525 9.82771 14.9518 10.0463C13.4599 11.177 11.9727 12.9044 10.9372 15.4652C9.06182 20.1032 9.85394 22.3974 10.7985 23.268L10.0935 22.9646Z" fill="#FF1100"/>
<path d="M11.0242 23.4112C9.93812 23.004 8.33032 20.7527 10.5878 15.0051C11.6233 12.3687 13.1105 10.5904 14.6024 9.42638C14.9031 9.20138 15.6905 8.76306 16.4352 8.80958C16.7603 8.8299 17.4077 9.06526 18.1276 9.37246C17.8588 9.2823 17.6351 9.22498 17.4825 9.21538C16.7378 9.1685 15.9504 9.60998 15.6498 9.83658C14.1578 11.0089 12.6706 12.8 11.6351 15.4553C9.37764 21.244 11.0376 23.4381 12.1237 23.8483L13.0546 24.1671L11.0242 23.4112Z" fill="#FDBF41"/>
<path d="M11.8973 23.8C10.8112 23.3884 9.20337 21.1129 11.4609 15.3036C12.4964 12.6389 13.9836 10.8415 15.4755 9.66489C15.7761 9.43749 16.5635 8.99445 17.3083 9.04149C17.6448 9.06273 18.3265 9.31685 19.0765 9.64329C18.8229 9.56233 18.6119 9.51117 18.4659 9.50177C17.7212 9.45373 16.9398 9.85177 16.6392 10.084C15.1472 11.2855 13.6601 13.1212 12.6246 15.8425C10.697 20.9083 12.0329 23.3919 12.9967 24.2251L11.8973 23.8Z" fill="#F1ECE2"/>
<path d="M12.3916 15.6243C10.134 21.4748 11.7418 23.7664 12.8279 24.1809L13.3408 24.3424C13.331 24.3326 13.3212 24.3226 13.3114 24.3125C14.0992 24.4415 15.1785 23.9065 16.1965 22.8825C16.342 22.7376 15.7045 22.9763 15.4983 23.1816C15.0038 23.5874 14.2639 23.7905 13.5685 23.4988C11.9994 22.8406 11.9669 19.3743 13.4958 15.7565C15.0247 12.1388 17.3616 9.79755 18.9307 10.4557C19.1404 10.5437 19.3598 10.7083 19.542 10.8349C19.9631 11.2109 20.153 11.713 20.153 13.0087V11.4101C20.2634 11.5744 20.3566 11.7586 20.4292 11.9653C20.4439 12.3131 20.6766 12.8927 20.7483 12.2841C20.6942 10.9561 20.1183 10.1843 19.3408 9.72355L19.3444 9.72375C19.3736 9.72563 19.396 9.72627 19.4154 9.72683C19.4897 9.72899 19.5198 9.72983 19.7106 9.79311C19.101 9.52575 18.7673 9.40135 18.4015 9.38735C17.5448 9.35451 16.5494 9.85391 16.2488 10.0829C14.7568 11.2678 13.427 12.9408 12.3916 15.6243Z" fill="#007FFF"/>
<path d="M17.3224 22.3326C21.8755 22.2021 23.7749 21.4027 24.3996 20.7516L24.4591 21.2971L24.4876 21.2688C24.5063 21.3308 24.5129 21.4709 24.4845 21.6C24.405 22.1559 22.7506 23.5971 16.342 23.5971C16.108 23.5971 15.8851 23.5944 15.6729 23.5892C16.1503 23.1639 16.5575 22.7461 16.9067 22.3414C17.0437 22.3395 17.1822 22.3366 17.3224 22.3326Z" fill="#007FFF"/>
</g>
</g>
<circle cx="16.5" cy="16.5" r="14.72" stroke="#8050E3" stroke-width="2.56"/>
</g>
<defs>
<linearGradient id="paint0_linear_2346_15006" x1="18.6408" y1="19.4719" x2="18.7507" y2="21.9068" gradientUnits="userSpaceOnUse">
<stop offset="0.16" stop-color="#191919"/>
<stop offset="0.97" stop-color="#191919" stop-opacity="0"/>
</linearGradient>
<clipPath id="clip0_2346_15006">
<rect width="32" height="32" fill="white" transform="translate(0.5 0.5)"/>
</clipPath>
<clipPath id="clip1_2346_15006">
<rect width="32" height="32" fill="white" transform="translate(0.5 0.5)"/>
</clipPath>
</defs>
</svg>
