<svg width="32" height="32" viewBox="0 0 32 32" fill="none" xmlns="http://www.w3.org/2000/svg">
<circle cx="16" cy="16" r="16" fill="url(#paint0_linear)"/>
<circle cx="16" cy="16" r="14" fill="white"/>
<path fill-rule="evenodd" clip-rule="evenodd" d="M21.1403 12.6996C20.9658 10.8791 19.3954 10.2684 17.4091 10.0823V7.57544H15.8736V10.0357H14.6464V7.57544H13.1225V10.0997H10.0079V11.7428C10.0079 11.7428 11.1421 11.7224 11.1247 11.7428C11.5497 11.696 11.9354 11.9943 11.9971 12.4175V19.3272C11.9883 19.4723 11.9211 19.6076 11.811 19.7024C11.7029 19.799 11.56 19.8473 11.4155 19.8361C11.4358 19.8536 10.2987 19.8361 10.2987 19.8361L10.0079 21.6712H13.0935V24.2362H14.629V21.709H15.8562V24.2245H17.3946V21.6886C19.9887 21.5316 21.7975 20.8918 22.0244 18.4635C22.2076 16.5092 21.2886 15.6368 19.82 15.2849C20.7128 14.8458 21.2653 14.0315 21.1403 12.6996ZM18.9883 18.161C18.9883 19.9124 16.2335 19.8721 14.9763 19.8538C14.8641 19.8521 14.7638 19.8507 14.6784 19.8507V16.4656C14.785 16.4659 14.915 16.463 15.0624 16.4598C16.3547 16.4312 18.9883 16.373 18.9883 18.161ZM14.9427 14.9277C15.9962 14.9464 18.2758 14.9868 18.2758 13.3917C18.2758 11.7563 16.0672 11.8137 14.9933 11.8417C14.8737 11.8448 14.7681 11.8475 14.6813 11.8475V14.9243C14.7557 14.9243 14.8438 14.9259 14.9427 14.9277Z" fill="#F7931A"/>
<path fill-rule="evenodd" clip-rule="evenodd" d="M2 15.9991C1.99953 23.7305 8.26612 29.9986 15.9974 30C19.7114 30.0007 23.2734 28.5256 25.8995 25.8995C28.5256 23.2734 30.0007 19.7114 30 15.9974C29.9986 8.26612 23.7305 1.99953 15.9991 2C8.26783 2.00047 2.00047 8.26783 2 15.9991ZM3.1071 15.9974C3.10427 8.87465 8.87465 3.09738 15.9975 3.09172C19.4216 3.089 22.7063 4.44767 25.128 6.86841C27.5497 9.28915 28.9097 12.5733 28.9083 15.9975C28.9055 23.1203 23.1305 28.8929 16.0077 28.8929C8.8849 28.8929 3.10993 23.1203 3.1071 15.9974Z" fill="black"/>
<path d="M24.7767 7.92578L24.0131 8.68941C27.7899 12.8197 27.7899 19.1497 24.0131 23.28L24.7767 24.0436C28.9787 19.4858 28.9787 12.4658 24.7767 7.90796V7.92578Z" fill="#5A5564"/>
<path d="M8.71749 7.99191C12.8478 4.21505 19.1778 4.21505 23.308 7.99191L24.0717 7.22828C19.5138 3.02628 12.4939 3.02628 7.93604 7.22828L8.71749 7.99191Z" fill="#5A5564"/>
<path d="M8.00229 23.2876C4.23008 19.1584 4.23008 12.8338 8.00229 8.70468L7.23865 7.94104C3.03666 12.4989 3.03666 19.5188 7.23865 24.0767L8.00229 23.2876Z" fill="#5A5564"/>
<path d="M23.2979 23.9927C19.1676 27.7695 12.8376 27.7695 8.70736 23.9927L7.94373 24.7563C12.5016 28.9583 19.5215 28.9583 24.0794 24.7563L23.2979 23.9927Z" fill="#5A5564"/>
<defs>
<linearGradient id="paint0_linear" x1="19.008" y1="-4.64" x2="-4.8" y2="15.392" gradientUnits="userSpaceOnUse">
<stop stop-color="#B6509E"/>
<stop offset="1" stop-color="#2EBAC6"/>
</linearGradient>
</defs>
</svg>
