<svg xmlns="http://www.w3.org/2000/svg" viewBox="0 0 1664.3 1664.01"><defs><style>.cls-1{fill:#c3bbaf;}.cls-2{fill:#f6efe5;}.cls-3{fill:#fbfbfb;}.cls-4{fill:#030303;}</style></defs><g id="Layer_2" data-name="Layer 2"><g id="Layer_1-2" data-name="Layer 1"><path class="cls-1" d="M825.41,1664c-230-3.69-432.56-87.66-595.62-258.51C68,1236-8.46,1031.29.74,797.32,9.5,574.67,96,384.11,257.16,230.39,427.15,68.31,632.26-8.55,866.91.75c223.34,8.86,414.33,95.79,568.17,257.61C1596.36,428,1672.83,632.52,1663.54,866.29c-8.83,222.43-95.38,412.65-256.2,566.5C1247,1586.16,1053.6,1661.41,825.41,1664ZM848.52,88.87C689.24,90,556.61,127.47,435.54,204,324.63,274.09,238.2,367.38,176.26,482.93c-55.37,103.29-85,214-86.79,331-3.21,205.37,65.43,384.41,208,532.38,140.53,145.89,314.4,222.56,517,227.29,205.44,4.8,384.62-65.08,532.67-207.55,146.1-140.59,222.83-314.51,227.43-517.2,4.67-205.33-65.35-384.38-208-532.22C1221.25,166.14,1041.36,92.4,848.52,88.87Z"/><path class="cls-2" d="M848.52,88.87c192.84,3.53,372.73,77.27,518,227.77,142.68,147.84,212.7,326.89,208,532.22-4.6,202.69-81.33,376.61-227.43,517.2-148,142.47-327.23,212.35-532.67,207.55-202.61-4.73-376.48-81.4-517-227.29-142.52-148-211.16-327-207.95-532.38,1.82-117,31.42-227.72,86.79-331C238.2,367.38,324.63,274.09,435.54,204,556.61,127.47,689.24,90,848.52,88.87Zm-281.38,432h-5.81q-83,0-166,0c-21.38,0-39.65,14-44.62,34.57a94,94,0,0,0-2.4,21.75c0,32.46,12.61,61.3,27.48,89.09,13.2,24.67,31.42,45.77,51.73,65q26.14,24.69,52.8,48.84c13.17,11.9,25.82,24.12,33,40.78a21.1,21.1,0,0,1,1.76,8c.09,88.28-.14,176.56.27,264.84a247.19,247.19,0,0,0,4.36,47.12c22.45,112.3,118.57,190.51,233.28,190.51,47,0,94,.42,141-.22a285.13,285.13,0,0,0,50.09-4.91c106.87-20.67,187.43-117.78,188-226.67.45-90.61.08-181.23.25-271.84,0-3.77,1.4-7.77,3-11.25,5.67-12.11,14.56-21.69,24.44-30.57,18.07-16.26,36.32-32.36,53.68-49.37,13.41-13.14,26.46-26.85,38-41.58a220.2,220.2,0,0,0,34.25-61.64c7.79-21.6,13.85-43,11.7-66.55-2.51-27.52-20.78-45.91-48.43-45.92H1101.14c0-21.85.43-43-.09-64.14-1-40-19.4-69.73-54.59-88.82-17.18-9.32-35.89-11.23-55.15-11-55.86.55-100,44.64-100.16,100.51,0,19.65,0,39.31,0,59,0,1.44-.14,2.87-.22,4.22H777.13c0-21.93.24-43.57-.07-65.2-.36-26.08-9.68-48.77-27.75-67.55-27.57-28.67-62.2-35.67-99.67-29.06-49.58,8.75-82.47,49.63-82.5,99.93C567.13,479.14,567.14,499.63,567.14,520.84Z"/><path d="M567.14,520.84c0-21.21,0-41.7,0-62.18,0-50.3,32.92-91.18,82.5-99.93,37.47-6.61,72.1.39,99.67,29.06,18.07,18.78,27.39,41.47,27.75,67.55.31,21.63.07,43.27.07,65.2H890.91c.08-1.35.22-2.78.22-4.22,0-19.65,0-39.31,0-59,.15-55.87,44.3-100,100.16-100.51,19.26-.2,38,1.71,55.15,11,35.19,19.09,53.6,48.8,54.59,88.82.52,21.13.09,42.29.09,64.14H1249c27.65,0,45.92,18.4,48.43,45.92,2.15,23.55-3.91,45-11.7,66.55A220.2,220.2,0,0,1,1251.47,695c-11.59,14.73-24.64,28.44-38,41.58-17.36,17-35.61,33.11-53.68,49.37-9.88,8.88-18.77,18.46-24.44,30.57-1.63,3.48-3,7.48-3,11.25-.17,90.61.2,181.23-.25,271.84-.53,108.89-81.09,206-188,226.67a285.13,285.13,0,0,1-50.09,4.91c-47,.64-94,.23-141,.22-114.71,0-210.83-78.21-233.28-190.51a247.19,247.19,0,0,1-4.36-47.12c-.41-88.28-.18-176.56-.27-264.84a21.1,21.1,0,0,0-1.76-8c-7.17-16.66-19.82-28.88-33-40.78q-26.68-24.12-52.8-48.84c-20.31-19.19-38.53-40.29-51.73-65-14.87-27.79-27.49-56.63-27.48-89.09a94,94,0,0,1,2.4-21.75c5-20.58,23.24-34.54,44.62-34.57q83-.11,166,0ZM730.6,620.78H549.71c-11.63,0-21.62,7.81-23.12,19.2a62.09,62.09,0,0,0,.28,19.86c4,20.24,12.79,38.57,26.89,53.61s29.44,28.42,43.76,43c10.82,11,17.69,24.09,17.67,40.22q-.15,148.39,0,296.79a143.26,143.26,0,0,0,1.3,20.92c10,67.92,67,117,135.65,117q70.74,0,141.48-.05a157.34,157.34,0,0,0,20.94-1.2,136.11,136.11,0,0,0,117.57-134.67c0-16.49-.14-33,.11-49.47,0-3.83-1.08-5.4-4.74-6.53a422.83,422.83,0,0,1-98.92-44.91c-71-44.1-125.39-103.18-160.65-179.31-16.91-36.52-28.51-74.69-32.58-114.73C732.68,674.27,732.13,647.78,730.6,620.78ZM1025.25,886A44.83,44.83,0,1,0,980,930.29,44.65,44.65,0,0,0,1025.25,886ZM707.14,520.72c0-18.9-.91-37.42.23-55.8,1.52-24.54-12.67-39.82-38.47-38.25-18.84,1.15-31.69,12.89-31.75,31.72,0,19.48,0,39,0,58.43,0,1.27.16,2.54.25,3.9Zm323.92,0c0-22.42.37-44.53-.15-66.61-.29-12.43-10.3-23.56-22.5-26.09-5.15-1.06-10.58-1-15.87-1-18.58,0-31.31,12.79-31.39,31.36,0,14,0,28,0,41.94v20.44Z"/><path class="cls-2" d="M730.6,620.78c1.53,27,2.08,53.49,4.76,79.77,4.07,40,15.67,78.21,32.58,114.73,35.26,76.13,89.66,135.21,160.65,179.31a422.83,422.83,0,0,0,98.92,44.91c3.66,1.13,4.79,2.7,4.74,6.53-.25,16.49-.07,33-.11,49.47a136.11,136.11,0,0,1-117.57,134.67,157.34,157.34,0,0,1-20.94,1.2q-70.74.15-141.48.05c-68.69,0-125.66-49.09-135.65-117a143.26,143.26,0,0,1-1.3-20.92q-.12-148.4,0-296.79c0-16.13-6.85-29.18-17.67-40.22-14.32-14.61-29.78-28.12-43.76-43s-22.87-33.37-26.89-53.61a62.09,62.09,0,0,1-.28-19.86c1.5-11.39,11.49-19.2,23.12-19.2H730.6Zm17.63,264.86a44.84,44.84,0,1,0-44.9,44.65A44.65,44.65,0,0,0,748.23,885.64Z"/><path class="cls-3" d="M1025.25,886a44.83,44.83,0,1,1-44.16-45.35A44.65,44.65,0,0,1,1025.25,886Z"/><path class="cls-2" d="M707.14,520.72H637.4c-.09-1.36-.25-2.63-.25-3.9,0-19.47,0-39,0-58.43.06-18.83,12.91-30.57,31.75-31.72,25.8-1.57,40,13.71,38.47,38.25C706.23,483.3,707.14,501.82,707.14,520.72Z"/><path class="cls-2" d="M1031.06,520.68H961.14V500.24c0-14,0-28,0-41.94.08-18.57,12.81-31.35,31.39-31.36,5.29,0,10.72,0,15.87,1,12.2,2.53,22.21,13.66,22.5,26.09C1031.43,476.15,1031.06,498.26,1031.06,520.68Z"/><path class="cls-4" d="M748.23,885.64a44.84,44.84,0,1,1-44.52-45A44.66,44.66,0,0,1,748.23,885.64Z"/></g></g></svg>