<svg width="500" height="500" viewBox="0 0 500 500" fill="none" xmlns="http://www.w3.org/2000/svg">
<g filter="url(#filter0_ii_9143_25227)">
<circle cx="250" cy="250" r="250" fill="#FB6E1F"/>
</g>
<path fill-rule="evenodd" clip-rule="evenodd" d="M145.618 183.562H228.836H228.885C260.111 183.562 271.871 206.16 275.137 214.252C278.137 221.685 285.015 227.138 293.268 228.09C294.375 228.259 295.507 228.346 296.661 228.346H335.217C353.088 228.346 358.097 240.052 358.097 240.056C362.024 246.218 362.024 255.153 358.097 261.319C358.097 261.319 358.096 261.321 358.094 261.325C357.959 261.627 352.862 273.029 335.217 273.029H298.119C278.215 272.787 268.703 260.507 259.684 248.861C251.478 238.267 243.679 228.197 228.832 228.197H145.614C133.676 228.197 123.569 237.428 122.953 249.348C122.287 262.225 132.527 272.876 145.261 272.876H234.282C252.154 272.876 257.162 284.582 257.162 284.587C261.09 290.748 261.09 299.684 257.162 305.849L257.16 305.855C257.025 306.157 251.928 317.56 234.282 317.56H145.614C133.676 317.56 123.569 326.79 122.953 338.711C122.287 351.587 132.527 362.239 145.261 362.239H228.832C243.079 362.239 248.981 352.967 255.409 342.871C262.92 331.074 271.148 318.15 294.245 317.579C295.039 317.665 295.845 317.708 296.661 317.708H329.766C344.013 317.708 349.915 308.437 356.343 298.341C364.026 286.274 372.458 273.029 396.784 273.029C410.188 273.029 419.901 262.231 419.079 249.238C418.404 238.56 410.192 228.552 399.451 228.511V228.503C379.276 228.42 369.697 216.054 360.618 204.331C352.412 193.736 344.613 183.667 329.766 183.667H298.045C297.326 183.597 296.596 183.562 295.859 183.562H295.81C274.469 183.562 265.727 170.952 257.53 159.131C250.298 148.7 243.492 138.883 228.832 138.883H145.261C132.532 138.883 122.287 149.534 122.953 162.411C123.569 174.331 133.676 183.562 145.614 183.562H145.618Z" fill="#F4F4F0"/>
<defs>
<filter id="filter0_ii_9143_25227" x="0" y="-10" width="500" height="510" filterUnits="userSpaceOnUse" color-interpolation-filters="sRGB">
<feFlood flood-opacity="0" result="BackgroundImageFix"/>
<feBlend mode="normal" in="SourceGraphic" in2="BackgroundImageFix" result="shape"/>
<feColorMatrix in="SourceAlpha" type="matrix" values="0 0 0 0 0 0 0 0 0 0 0 0 0 0 0 0 0 0 127 0" result="hardAlpha"/>
<feOffset dy="-10"/>
<feGaussianBlur stdDeviation="12.5"/>
<feComposite in2="hardAlpha" operator="arithmetic" k2="-1" k3="1"/>
<feColorMatrix type="matrix" values="0 0 0 0 0 0 0 0 0 0 0 0 0 0 0 0 0 0 0.2 0"/>
<feBlend mode="normal" in2="shape" result="effect1_innerShadow_9143_25227"/>
<feColorMatrix in="SourceAlpha" type="matrix" values="0 0 0 0 0 0 0 0 0 0 0 0 0 0 0 0 0 0 127 0" result="hardAlpha"/>
<feOffset dy="-2"/>
<feGaussianBlur stdDeviation="2.5"/>
<feComposite in2="hardAlpha" operator="arithmetic" k2="-1" k3="1"/>
<feColorMatrix type="matrix" values="0 0 0 0 0 0 0 0 0 0 0 0 0 0 0 0 0 0 0.2 0"/>
<feBlend mode="normal" in2="effect1_innerShadow_9143_25227" result="effect2_innerShadow_9143_25227"/>
</filter>
</defs>
</svg>
