<svg version="1.1" id="Layer_1" xmlns="http://www.w3.org/2000/svg" xmlns:xlink="http://www.w3.org/1999/xlink" x="0px" y="0px"
	 width="100%" viewBox="0 0 256 256" enable-background="new 0 0 256 256" xml:space="preserve">
<path fill="#010101" opacity="1.000000" stroke="none" 
	d="
M257.000000,113.000000 
	C257.000000,123.354225 257.000000,133.708450 256.605499,144.680679 
	C255.196915,159.648468 250.621780,173.047928 244.509766,185.854156 
	C235.861389,203.974777 222.936279,218.864868 207.207108,231.161041 
	C193.804840,241.638168 178.798584,249.183380 162.088699,253.026901 
	C156.389374,254.337845 150.696060,255.674896 145.000000,257.000000 
	C134.645767,257.000000 124.291542,257.000000 113.319305,256.605499 
	C98.351524,255.196884 84.952049,250.621811 72.145851,244.509796 
	C54.025230,235.861389 39.135124,222.936295 26.838947,207.207108 
	C16.361839,193.804840 8.816609,178.798599 4.973082,162.088699 
	C3.662151,156.389374 2.325111,150.696060 1.000000,145.000000 
	C1.000000,134.645767 1.000000,124.291542 1.394501,113.319305 
	C2.803166,98.351524 7.378198,84.952026 13.490230,72.145790 
	C22.138647,54.025185 35.063732,39.135090 50.792904,26.838932 
	C64.195160,16.361828 79.201408,8.816603 95.911301,4.973080 
	C101.610626,3.662152 107.303940,2.325110 113.000000,1.000000 
	C123.354225,1.000000 133.708450,1.000000 144.680679,1.394496 
	C159.648453,2.803178 173.047974,7.378189 185.854218,13.490235 
	C203.974808,22.138660 218.864914,35.063736 231.161057,50.792915 
	C241.638153,64.195175 249.183380,79.201408 253.026917,95.911293 
	C254.337845,101.610619 255.674881,107.303940 257.000000,113.000000 
M198.402328,88.900246 
	C202.716843,84.298096 207.031342,79.695946 212.318527,74.056290 
	C193.272034,74.056290 175.768997,74.056290 158.170288,74.056290 
	C160.224075,61.136478 162.192413,48.754154 164.309647,35.435108 
	C153.403793,43.848476 143.321228,51.683323 133.172775,59.431858 
	C128.098328,63.306290 121.997650,66.335220 122.875778,74.862175 
	C116.432388,74.862175 110.744881,74.456215 105.142944,74.974762 
	C99.381149,75.508102 93.567078,76.471634 88.012749,78.070015 
	C69.238670,83.472649 59.058075,99.103699 61.562405,117.822357 
	C62.802471,127.091286 67.626755,133.950012 76.321564,136.817474 
	C83.153137,139.070496 90.560959,140.395569 97.752563,140.579666 
	C117.231529,141.078293 136.731674,140.745880 156.223419,140.756500 
	C157.887253,140.757401 159.792831,140.365250 161.155762,141.033478 
	C163.004349,141.939774 165.702072,143.659180 165.741318,145.092636 
	C165.795303,147.064026 164.154144,149.825256 162.408737,150.902908 
	C160.489349,152.087967 157.628601,152.022079 155.176697,152.028748 
	C129.854279,152.097794 104.531487,152.041138 79.209213,152.133972 
	C77.382790,152.140656 74.972984,152.462296 73.827499,153.620041 
	C64.399078,163.149384 55.205723,172.911301 45.263180,183.311859 
	C65.731339,183.311859 85.269035,183.311859 105.457344,183.311859 
	C103.373917,196.595520 101.376068,209.333572 99.319252,222.447571 
	C100.351662,221.782043 101.206642,221.339539 101.936638,220.743866 
	C111.478882,212.957489 121.075371,205.235016 130.501358,197.309906 
	C135.049500,193.485947 141.254364,190.850830 140.865417,182.916641 
	C148.669174,182.916641 155.861115,183.382858 162.974670,182.833557 
	C189.577118,180.779343 203.677689,165.809784 202.954086,140.883652 
	C202.686813,131.677032 198.598907,124.391342 190.033890,121.343925 
	C182.817856,118.776466 174.909790,117.222977 167.255875,116.998314 
	C147.281555,116.412010 127.278595,116.809364 107.287086,116.786156 
	C105.463615,116.784035 103.439514,117.032333 101.873695,116.339348 
	C100.318489,115.651070 98.102432,113.845131 98.182106,112.664719 
	C98.312721,110.729485 99.633247,108.122948 101.244713,107.229713 
	C103.254883,106.115479 106.067970,106.205574 108.535553,106.198738 
	C131.692230,106.134567 154.849930,106.243980 178.004837,106.031143 
	C180.292725,106.010109 183.036316,104.684799 184.751831,103.087738 
	C189.375366,98.783447 193.557297,94.004799 198.402328,88.900246 
z"/>
<path fill="#FFFFFF" opacity="1.000000" stroke="none" 
	d="
M112.531342,1.000000 
	C107.303940,2.325110 101.610626,3.662152 95.911301,4.973080 
	C79.201408,8.816603 64.195160,16.361828 50.792904,26.838932 
	C35.063732,39.135090 22.138647,54.025185 13.490230,72.145790 
	C7.378198,84.952026 2.803166,98.351524 1.394501,112.850647 
	C1.000000,75.739716 1.000000,38.479435 1.000000,1.000000 
	C38.020607,1.000000 75.041641,1.000000 112.531342,1.000000 
z"/>
<path fill="#FFFFFF" opacity="1.000000" stroke="none" 
	d="
M257.000000,112.531342 
	C255.674881,107.303940 254.337845,101.610619 253.026917,95.911293 
	C249.183380,79.201408 241.638153,64.195175 231.161057,50.792915 
	C218.864914,35.063736 203.974808,22.138660 185.854218,13.490235 
	C173.047974,7.378189 159.648453,2.803178 145.149338,1.394496 
	C182.260269,1.000000 219.520554,1.000000 257.000000,1.000000 
	C257.000000,38.020607 257.000000,75.041641 257.000000,112.531342 
z"/>
<path fill="#FFFFFF" opacity="1.000000" stroke="none" 
	d="
M1.000000,145.468658 
	C2.325111,150.696060 3.662151,156.389374 4.973082,162.088699 
	C8.816609,178.798599 16.361839,193.804840 26.838947,207.207108 
	C39.135124,222.936295 54.025230,235.861389 72.145851,244.509796 
	C84.952049,250.621811 98.351524,255.196884 112.850647,256.605499 
	C75.739716,257.000000 38.479424,257.000000 1.000000,257.000000 
	C1.000000,219.979401 1.000000,182.958359 1.000000,145.468658 
z"/>
<path fill="#FFFFFF" opacity="1.000000" stroke="none" 
	d="
M145.468658,257.000000 
	C150.696060,255.674896 156.389374,254.337845 162.088699,253.026901 
	C178.798584,249.183380 193.804840,241.638168 207.207108,231.161041 
	C222.936279,218.864868 235.861389,203.974777 244.509766,185.854156 
	C250.621780,173.047928 255.196915,159.648468 256.605499,145.149338 
	C257.000000,182.260284 257.000000,219.520569 257.000000,257.000000 
	C219.979401,257.000000 182.958359,257.000000 145.468658,257.000000 
z"/>
<path fill="#FDFDFD" opacity="1.000000" stroke="none" 
	d="
M198.158417,89.157326 
	C193.557297,94.004799 189.375366,98.783447 184.751831,103.087738 
	C183.036316,104.684799 180.292725,106.010109 178.004837,106.031143 
	C154.849930,106.243980 131.692230,106.134567 108.535553,106.198738 
	C106.067970,106.205574 103.254883,106.115479 101.244713,107.229713 
	C99.633247,108.122948 98.312721,110.729485 98.182106,112.664719 
	C98.102432,113.845131 100.318489,115.651070 101.873695,116.339348 
	C103.439514,117.032333 105.463615,116.784035 107.287086,116.786156 
	C127.278595,116.809364 147.281555,116.412010 167.255875,116.998314 
	C174.909790,117.222977 182.817856,118.776466 190.033890,121.343925 
	C198.598907,124.391342 202.686813,131.677032 202.954086,140.883652 
	C203.677689,165.809784 189.577118,180.779343 162.974670,182.833557 
	C155.861115,183.382858 148.669174,182.916641 140.865417,182.916641 
	C141.254364,190.850830 135.049500,193.485947 130.501358,197.309906 
	C121.075371,205.235016 111.478882,212.957489 101.936638,220.743866 
	C101.206642,221.339539 100.351662,221.782043 99.319252,222.447571 
	C101.376068,209.333572 103.373917,196.595520 105.457344,183.311859 
	C85.269035,183.311859 65.731339,183.311859 45.263180,183.311859 
	C55.205723,172.911301 64.399078,163.149384 73.827499,153.620041 
	C74.972984,152.462296 77.382790,152.140656 79.209213,152.133972 
	C104.531487,152.041138 129.854279,152.097794 155.176697,152.028748 
	C157.628601,152.022079 160.489349,152.087967 162.408737,150.902908 
	C164.154144,149.825256 165.795303,147.064026 165.741318,145.092636 
	C165.702072,143.659180 163.004349,141.939774 161.155762,141.033478 
	C159.792831,140.365250 157.887253,140.757401 156.223419,140.756500 
	C136.731674,140.745880 117.231529,141.078293 97.752563,140.579666 
	C90.560959,140.395569 83.153137,139.070496 76.321564,136.817474 
	C67.626755,133.950012 62.802471,127.091286 61.562405,117.822357 
	C59.058075,99.103699 69.238670,83.472649 88.012749,78.070015 
	C93.567078,76.471634 99.381149,75.508102 105.142944,74.974762 
	C110.744881,74.456215 116.432388,74.862175 122.875778,74.862175 
	C121.997650,66.335220 128.098328,63.306290 133.172775,59.431858 
	C143.321228,51.683323 153.403793,43.848476 164.309647,35.435108 
	C162.192413,48.754154 160.224075,61.136478 158.170288,74.056290 
	C175.768997,74.056290 193.272034,74.056290 212.318527,74.056290 
	C207.031342,79.695946 202.716843,84.298096 198.158417,89.157326 
z"/>
</svg>