<svg width="256" height="256" viewBox="0 0 256 256" fill="none" xmlns="http://www.w3.org/2000/svg">
<rect width="256" height="256" fill="#919FFC"/>
<path d="M118.154 107.023H141.538V130.341H118.154V107.023Z" fill="#242867"/>
<path fill-rule="evenodd" clip-rule="evenodd" d="M173.231 75.1136V85.8523H184V172.682H172.769L172.769 172.677H137.538V196H96.9231V185.261H86.1538V101.193H72V61H112.308V75.1136H173.231ZM80.6154 92.9091H103.692V69.5909H80.6154V92.9091ZM94.7692 107.023V176.678L118 176.517L118.161 153.352H164.615V83.7045H118.154V107.023H94.7692Z" fill="#242867"/>
<path d="M164.615 153.352H118.161L118 176.516L94.7695 176.677V107.021H118.153V83.7031H164.615V153.352ZM118.153 107.021V130.34H141.538V107.021H118.153ZM103.692 92.9082H80.6152V69.5898H103.692V92.9082Z" fill="white"/>
</svg>
