<svg width="496" height="496" viewBox="0 0 496 496" fill="none" xmlns="http://www.w3.org/2000/svg">
<circle cx="248" cy="248" r="229.59" fill="white" stroke="#1B47F7" stroke-width="36.8204"/>
<rect x="97.8799" y="97.8799" width="300.239" height="300.239" stroke="#1B47F7" stroke-width="46.0255"/>
<path d="M234.596 156.961H195.29V196.267H234.596V156.961ZM195.29 156.961H155.985V196.267H195.29V156.961ZM195.29 196.267H155.985V235.572H195.29V196.267ZM195.29 235.572H155.985V274.878H195.29V235.572ZM195.29 274.878H155.985V314.184H195.29V274.878ZM195.29 314.184H155.985V340.699H195.29V314.184Z" fill="#1B47F7"/>
<path d="M260.04 156.961H299.345V196.267H260.04V156.961ZM299.345 156.961H338.651V196.267H299.345V156.961ZM299.345 196.267H338.651V235.572H299.345V196.267ZM299.345 235.572H338.651V274.878H299.345V235.572ZM299.345 274.878H338.651V314.184H299.345V274.878ZM299.345 314.184H338.651V340.699H299.345V314.184Z" fill="#1B47F7"/>
</svg>
