<svg width="32" height="32" viewBox="0 0 32 32" fill="none" xmlns="http://www.w3.org/2000/svg">
<g clip-path="url(#clip0_144_562623)">
<path d="M32 16C32 24.8366 24.8366 32 16 32C7.16344 32 0 24.8366 0 16C0 7.16344 7.16344 0 16 0C24.8366 0 32 7.16344 32 16Z" fill="black"/>
<path fill-rule="evenodd" clip-rule="evenodd" d="M16 15.2037L15.1538 14L7.82051 9H5L5.5641 13.9074L8.57265 16.4074L7.82051 19.463L11.4872 24L13.9316 21.2222L15.1538 22.7963L16 22.287L16.8462 22.7963L18.0684 21.2222L20.5128 24L24.1795 19.463L23.4274 16.4074L26.4359 13.9074L27 9H24.1795L16.8462 14L16 15.2037Z" fill="white"/>
<path fill-rule="evenodd" clip-rule="evenodd" d="M8.57245 16.3612L7.82031 19.4167L11.487 23.9538L13.9314 21.176V17.2871L10.2648 16.0371L8.57245 16.3612ZM23.4272 16.3612L24.1793 19.4167L20.5126 23.9538L18.0682 21.176V17.2871L21.7348 16.0371L23.4272 16.3612Z" fill="#F2F2F2"/>
<path fill-rule="evenodd" clip-rule="evenodd" d="M13.9315 21.2222L7.63232 9L15.1537 14L15.7178 15.2963L13.9315 21.2222ZM18.0682 21.2222L24.3674 9L16.846 14L16.2819 15.2963L18.0682 21.2222Z" fill="#ECECEC"/>
<path fill-rule="evenodd" clip-rule="evenodd" d="M25.2238 11.2769C25.9446 11.0075 26.6934 10.8117 27.443 10.6344C28.0423 10.4926 28.6422 10.3627 29.24 10.2085C29.6132 10.1122 29.9854 10.0066 30.3336 9.84092C30.612 9.70845 30.8746 9.53795 31.0907 9.32116C31.3065 9.10438 31.4758 8.84169 31.6024 8.56289C31.7609 8.21439 31.8528 7.84059 31.9164 7.46154C31.9928 7.00699 32.0285 6.54494 31.9731 6.09245C31.9176 5.63996 31.771 5.19684 31.5718 4.78107C31.3727 4.36511 31.121 3.9767 30.8217 3.62932C30.4224 3.16577 29.9386 2.7753 29.4269 2.43242C28.7866 2.00316 28.1028 1.64829 27.4016 1.33257C26.7002 1.01686 25.9813 0.740493 25.2476 0.506471C24.6603 0.319291 24.0637 0.159279 23.4534 0.07028C22.9965 0.00357722 22.5319 -0.0232163 22.071 0.0234382C21.6108 0.0700926 21.1545 0.190008 20.7422 0.396112C20.3299 0.602216 19.9616 0.894321 19.6478 1.23139C19.3334 1.56884 19.0734 1.95145 18.8571 2.35635C18.6405 2.76162 18.4678 3.18938 18.3363 3.62876C18.2048 4.06832 18.1145 4.51969 18.0607 4.97518C17.989 5.58225 17.9822 6.19644 18.0329 6.80482C18.0964 7.56497 18.2496 8.31631 18.4249 9.06241C18.6005 9.80832 18.7981 10.5494 19.0987 11.2529C19.3391 11.8154 19.6452 12.3543 20.0491 12.8176C20.3012 13.1069 20.5916 13.3668 20.9183 13.5705C21.1796 13.7335 21.4641 13.8603 21.763 13.9319C21.9875 13.9857 22.2201 14.008 22.4514 13.9975C22.6825 13.987 22.9124 13.9435 23.1301 13.8673C23.4197 13.7657 23.6882 13.6059 23.9236 13.4088C24.2184 13.162 24.4616 12.8566 24.6626 12.5293C24.9041 12.1365 25.0847 11.7123 25.2238 11.2769Z" fill="white"/>
<path d="M24.0667 4.46105L23.9619 4.60577L24.0509 5.3376L24.1332 5.16717L24.0667 4.46105Z" fill="#FBF100"/>
<path d="M22.7095 0.97224L22.1509 1.00647L22.4266 1.10498L22.9164 1.07076L22.7095 0.97224Z" fill="#A40000"/>
<path d="M23.9683 3.7756L23.8306 3.89578L23.9615 4.60568L24.0662 4.46097L23.9683 3.7756Z" fill="#FFAE00"/>
<path d="M22.9165 1.07079L22.4268 1.10501L22.7029 1.32282L23.1235 1.28408L22.9165 1.07079Z" fill="#A80000"/>
<path d="M23.8414 3.13031L23.6611 3.22788L23.8306 3.89594L23.9684 3.77575L23.8414 3.13031Z" fill="#FF7300"/>
<path d="M23.1232 1.28404L22.7026 1.32279L22.9715 1.65445L23.3248 1.60677L23.1232 1.28404Z" fill="#B60000"/>
<path d="M23.6889 2.54283L23.4575 2.62038L23.6611 3.22772L23.8414 3.13015L23.6889 2.54283Z" fill="#FF3F00"/>
<path d="M23.3249 1.60683L22.9717 1.65451L23.2257 2.09109L23.5153 2.03035L23.3249 1.60683Z" fill="#D60000"/>
<path d="M23.5152 2.03019L23.2256 2.09093L23.4576 2.62036L23.689 2.54281L23.5152 2.03019Z" fill="#FF1300"/>
<path d="M25.1913 6.75553L24.7068 6.85734L24.6831 7.4035L25.1862 7.27193L25.1913 6.75553Z" fill="#16FFE1"/>
<path d="M25.1959 6.19578L24.7201 6.26392L24.707 6.85736L25.1916 6.75555L25.1959 6.19578Z" fill="#4DFFAA"/>
<path d="M25.1994 5.60713L24.7222 5.63858L24.7202 6.26393L25.196 6.19579L25.1994 5.60713Z" fill="#80FF77"/>
<path d="M25.2011 5.00519L24.7124 4.99794L24.7217 5.63865L25.1989 5.60721L25.2011 5.00519Z" fill="#B7FF40"/>
<path d="M25.2026 4.40615L24.6924 4.35927L24.7127 4.99805L25.2015 5.00531L25.2026 4.40615Z" fill="#EBFF0C"/>
<path d="M25.1731 1.48142L24.2466 1.21486L24.3158 1.3025L25.1797 1.55925L25.1731 1.48142Z" fill="#ED0400"/>
<path d="M25.2028 3.82617L24.6616 3.73992L24.6926 4.35926L25.2028 4.40613L25.2028 3.82617Z" fill="#FFCC00"/>
<path d="M25.1792 1.55944L24.3154 1.30269L24.3844 1.49402L25.1853 1.73469L25.1792 1.55944Z" fill="#F10800"/>
<path d="M25.2013 3.28145L24.6206 3.15724L24.6614 3.7399L25.2025 3.82616L25.2013 3.28145Z" fill="#FF9800"/>
<path d="M25.1857 1.73456L24.3848 1.49389L24.4515 1.7841L25.191 2.00281L25.1857 1.73456Z" fill="#FF1300"/>
<path d="M25.1991 2.78701L24.5713 2.62738L24.6208 3.15714L25.2015 3.28135L25.1991 2.78701Z" fill="#FF6C00"/>
<path d="M25.1906 2.00273L24.4512 1.78402L24.5139 2.16536L25.1951 2.35679L25.1906 2.00273Z" fill="#FF2900"/>
<path d="M25.1954 2.35702L24.5142 2.16558L24.5711 2.62757L25.1989 2.7872L25.1954 2.35702Z" fill="#FF4700"/>
<path d="M24.7072 6.85754L24.3501 7.01277L24.3062 7.58705L24.6835 7.40371L24.7072 6.85754Z" fill="#13FCE4"/>
<path d="M24.7202 6.26398L24.373 6.3878L24.3501 7.01265L24.7072 6.85742L24.7202 6.26398Z" fill="#49FFAD"/>
<path d="M24.7222 5.63864L24.3501 5.72861L24.373 6.3878L24.7202 6.26398L24.7222 5.63864Z" fill="#80FF77"/>
<path d="M24.713 4.99797L24.3525 5.05243L24.3739 5.72861L24.7223 5.63869L24.713 4.99797Z" fill="#BAFF3C"/>
<path d="M24.6924 4.35933L24.3091 4.37778L24.3523 5.05257L24.7128 4.99811L24.6924 4.35933Z" fill="#F1FC06"/>
<path d="M24.2467 1.21498L23.4146 1.04279L23.5515 1.13752L24.316 1.30262L24.2467 1.21498Z" fill="#D10000"/>
<path d="M24.6616 3.73977L24.2451 3.72271L24.3092 4.37753L24.6926 4.35908L24.6616 3.73977Z" fill="#FFC100"/>
<path d="M24.3163 1.30255L23.5518 1.13744L23.6887 1.3417L24.3852 1.49387L24.3163 1.30255Z" fill="#D60000"/>
<path d="M24.6211 3.15719L24.1621 3.10618L24.2454 3.7228L24.6619 3.73986L24.6211 3.15719Z" fill="#FF8900"/>
<path d="M24.3851 1.49385L23.6885 1.34167L23.8216 1.65033L24.4518 1.78405L24.3851 1.49385Z" fill="#E40000"/>
<path d="M24.5713 2.6275L24.0615 2.54512L24.1618 3.10623L24.6208 3.15724L24.5713 2.6275Z" fill="#FF5D00"/>
<path d="M24.452 1.78427L23.8218 1.65055L23.9473 2.05538L24.5147 2.1656L24.452 1.78427Z" fill="#FF1300"/>
<path d="M24.5147 2.16543L23.9473 2.0552L24.0618 2.54502L24.5715 2.6274L24.5147 2.16543Z" fill="#FF3400"/>
<path d="M25.7773 6.70842L25.1922 6.75577L25.187 7.27217L25.7882 7.19392L25.7773 6.70842Z" fill="#1CFFDB"/>
<path d="M25.7739 6.18364L25.1962 6.19577L25.1919 6.75555L25.777 6.7082L25.7739 6.18364Z" fill="#50FFA7"/>
<path d="M25.7788 5.63372L25.1996 5.60724L25.1963 6.19592L25.7739 6.18379L25.7788 5.63372Z" fill="#80FF77"/>
<path d="M25.7915 5.07252L25.202 5.00512L25.1997 5.60712L25.7789 5.63359L25.7915 5.07252Z" fill="#B4FF43"/>
<path d="M25.812 4.51567L25.2033 4.40618L25.2021 5.00534L25.7917 5.07274L25.812 4.51567Z" fill="#E4FF13"/>
<path d="M25.8393 3.97759L25.2031 3.82607L25.2032 4.40601L25.8119 4.51551L25.8393 3.97759Z" fill="#FFD700"/>
<path d="M26.1505 1.83137L25.1733 1.48162L25.18 1.55945L26.1017 1.89738L26.1505 1.83137Z" fill="#FF1E00"/>
<path d="M25.8729 3.47362L25.2017 3.28136L25.2029 3.82608L25.8391 3.9776L25.8729 3.47362Z" fill="#FFA700"/>
<path d="M26.1019 1.89726L25.1802 1.55933L25.1862 1.73458L26.0523 2.05413L26.1019 1.89726Z" fill="#FF1E00"/>
<path d="M25.9122 3.01761L25.1992 2.78712L25.2016 3.28144L25.8729 3.4737L25.9122 3.01761Z" fill="#FF7E00"/>
<path d="M26.0521 2.05417L25.186 1.73462L25.1914 2.00286L26.0031 2.29794L26.0521 2.05417Z" fill="#FF2900"/>
<path d="M25.956 2.62201L25.1958 2.35691L25.1993 2.78708L25.9123 3.01758L25.956 2.62201Z" fill="#FF5900"/>
<path d="M26.0031 2.29777L25.1914 2.0027L25.1959 2.35675L25.9561 2.62185L26.0031 2.29777Z" fill="#FF3B00"/>
<path d="M24.3713 10.5931L25.1576 10.2959L25.0009 10.3792L24.2031 10.6826L24.3713 10.5931Z" fill="#00CCFF"/>
<path d="M24.5253 10.4573L25.3014 10.1696L25.1579 10.2959L24.3716 10.5932L24.5253 10.4573Z" fill="#00DCFE"/>
<path d="M24.6602 10.2781L25.4275 10.0033L25.301 10.1695L24.5249 10.4572L24.6602 10.2781Z" fill="#09F0EE"/>
<path d="M24.7734 10.0605L25.5336 9.80131L25.4275 10.0034L24.6602 10.2783L24.7734 10.0605Z" fill="#1CFFDB"/>
<path d="M24.8616 9.80942L25.6165 9.56834L25.5336 9.80131L24.7734 10.0606L24.8616 9.80942Z" fill="#33FFC4"/>
<path d="M24.9225 9.53115L25.6742 9.3103L25.6167 9.56822L24.8618 9.8093L24.9225 9.53115Z" fill="#4DFFAA"/>
<path d="M24.9539 9.23321L25.7045 9.03414L25.674 9.31043L24.9224 9.53129L24.9539 9.23321Z" fill="#63FF94"/>
<path d="M24.9555 8.92284L25.7071 8.74655L25.7046 9.03408L24.9541 9.23315L24.9555 8.92284Z" fill="#7DFF7A"/>
<path d="M24.9263 8.60844L25.6811 8.45531L25.7068 8.74658L24.9552 8.92287L24.9263 8.60844Z" fill="#97FF60"/>
<path d="M24.8677 8.29808L25.6278 8.16791L25.6812 8.45524L24.9264 8.60836L24.8677 8.29808Z" fill="#B1FF46"/>
<path d="M24.7808 8.00014L25.5482 7.89207L25.6279 8.16786L24.8677 8.29803L24.7808 8.00014Z" fill="#C7FF30"/>
<path d="M24.6675 7.72272L25.444 7.6353L25.548 7.89218L24.7805 8.00024L24.6675 7.72272Z" fill="#DEFF19"/>
<path d="M23.646 6.84135L24.4987 6.81979L24.6739 6.84814L23.8348 6.872L23.646 6.84135Z" fill="#FFCC00"/>
<path d="M24.5312 7.47305L25.3185 7.40425L25.444 7.63532L24.6675 7.72274L24.5312 7.47305Z" fill="#F1FC06"/>
<path d="M23.835 6.87198L24.6741 6.84812L24.8483 6.92327L24.0228 6.95322L23.835 6.87198Z" fill="#FFCC00"/>
<path d="M24.3755 7.25776L25.1747 7.20503L25.3184 7.40409L24.5312 7.47289L24.3755 7.25776Z" fill="#FFEA00"/>
<path d="M24.0225 6.95318L24.8479 6.92323L25.0164 7.04325L24.2044 7.08292L24.0225 6.95318Z" fill="#FFD000"/>
<path d="M24.2046 7.08293L25.0166 7.04327L25.1749 7.20497L24.3757 7.2577L24.2046 7.08293Z" fill="#FFDB00"/>
<path d="M24.353 5.0523L24.1333 5.167L24.1668 5.87441L24.3744 5.72846L24.353 5.0523Z" fill="#BEFF39"/>
<path d="M24.3094 4.37754L24.0664 4.46089L24.1329 5.16704L24.3526 5.05234L24.3094 4.37754Z" fill="#F8F500"/>
<path d="M23.4148 1.04275L22.7095 0.972221L22.9163 1.07074L23.5517 1.13748L23.4148 1.04275Z" fill="#BB0000"/>
<path d="M24.2456 3.72272L23.9688 3.77555L24.0667 4.46092L24.3097 4.37756L24.2456 3.72272Z" fill="#FFB900"/>
<path d="M23.5514 1.13754L22.916 1.07079L23.1231 1.28408L23.6883 1.3418L23.5514 1.13754Z" fill="#BF0000"/>
<path d="M24.1618 3.10604L23.8413 3.13008L23.9682 3.77551L24.2451 3.72268L24.1618 3.10604Z" fill="#FF7E00"/>
<path d="M23.6888 1.34184L23.1235 1.28413L23.3251 1.60686L23.8219 1.65051L23.6888 1.34184Z" fill="#CD0000"/>
<path d="M24.0621 2.54514L23.6895 2.54299L23.8419 3.1303L24.1624 3.10626L24.0621 2.54514Z" fill="#FF4E00"/>
<path d="M23.822 1.65047L23.3252 1.60682L23.5156 2.03034L23.9476 2.05529L23.822 1.65047Z" fill="#E80000"/>
<path d="M23.9471 2.05532L23.5151 2.03038L23.689 2.54299L24.0616 2.54514L23.9471 2.05532Z" fill="#FF2200"/>
<path d="M23.8859 10.7628L24.5254 10.4572L24.3717 10.5931L23.7192 10.9105L23.8859 10.7628Z" fill="#00D0FF"/>
<path d="M24.0317 10.568L24.6601 10.2782L24.5248 10.4573L23.8853 10.7628L24.0317 10.568Z" fill="#00E4F8"/>
<path d="M24.1546 10.3307L24.7738 10.0603L24.6606 10.2781L24.0322 10.5679L24.1546 10.3307Z" fill="#16FFE1"/>
<path d="M24.2493 10.0574L24.8617 9.80942L24.7735 10.0605L24.1543 10.331L24.2493 10.0574Z" fill="#2CFFCA"/>
<path d="M24.3146 9.75423L24.9226 9.5313L24.8619 9.80945L24.2495 10.0574L24.3146 9.75423Z" fill="#46FFB1"/>
<path d="M24.3478 9.42914L24.954 9.23315L24.9225 9.53123L24.3145 9.75417L24.3478 9.42914Z" fill="#63FF94"/>
<path d="M24.348 9.09045L24.9553 8.92267L24.9539 9.23297L24.3477 9.42896L24.348 9.09045Z" fill="#7DFF7A"/>
<path d="M24.3154 8.74744L24.9263 8.60836L24.9553 8.92279L24.3481 9.09058L24.3154 8.74744Z" fill="#9AFF5D"/>
<path d="M24.2505 8.40877L24.8677 8.29813L24.9264 8.6084L24.3155 8.74748L24.2505 8.40877Z" fill="#B7FF40"/>
<path d="M24.1548 8.08337L24.7809 8.00013L24.8679 8.29801L24.2506 8.40865L24.1548 8.08337Z" fill="#D1FF26"/>
<path d="M24.0308 7.78024L24.6679 7.72259L24.781 8.00011L24.1549 8.08335L24.0308 7.78024Z" fill="#E7FF0F"/>
<path d="M23.8813 7.50744L24.5316 7.47287L24.6678 7.72256L24.0306 7.78021L23.8813 7.50744Z" fill="#FBF100"/>
<path d="M23.7109 7.27251L24.3759 7.25785L24.5316 7.47298L23.8814 7.50755L23.7109 7.27251Z" fill="#FFDB00"/>
<path d="M19.4912 9.33927L19.5997 9.69246L19.4171 8.99802L19.3047 8.63012L19.4912 9.33927Z" fill="#00B4FF"/>
<path d="M19.2069 8.23202L19.3074 8.64312L19.4171 8.99801L19.2975 8.27846L19.1279 7.6773L19.2069 8.23202Z" fill="#16FFE1"/>
<path d="M19.1824 7.89496L19.2976 8.27832L19.2446 7.55128L19.1279 7.15206L19.1824 7.89496Z" fill="#56FFA0"/>
<path d="M19.1279 7.15201L19.2446 7.55123L19.2603 6.83489L19.1435 6.4198L19.1279 7.15201Z" fill="#97FF60"/>
<path d="M19.1436 6.41974L19.2604 6.83482L19.3452 6.14752L19.2295 5.71695L19.1436 6.41974Z" fill="#D4FF23"/>
<path d="M19.2295 5.71695L19.3451 6.14752L19.4977 5.50735L19.3846 5.06207L19.2295 5.71695Z" fill="#FFD700"/>
<path d="M19.3848 5.06213L19.4978 5.50741L19.715 4.93166L19.6058 4.47288L19.3848 5.06213Z" fill="#FF9400"/>
<path d="M19.606 4.4729L19.7151 4.93168L19.992 4.43632L19.888 3.96563L19.606 4.4729Z" fill="#FF5900"/>
<path d="M19.8877 3.96575L19.9917 4.43643L20.3216 4.03571L20.2239 3.55505L19.8877 3.96575Z" fill="#FF2500"/>
<path d="M24.5762 7.30892L24.5872 7.71534L24.6569 8.46176L24.6473 8.07196L24.5762 7.30892Z" fill="#C1FF36"/>
<path d="M20.2241 3.55511L20.3218 4.03577L20.6964 3.74156L20.606 3.25325L20.2241 3.55511Z" fill="#DF0000"/>
<path d="M24.4331 6.55324L24.4471 6.9761L24.5875 7.71527L24.5764 7.30886L24.4331 6.55324Z" fill="#FFEA00"/>
<path d="M20.606 3.25313L20.6964 3.74145L21.1059 3.56285L21.0236 3.06942L20.606 3.25313Z" fill="#BB0000"/>
<path d="M24.2207 5.82589L24.239 6.2645L24.4469 6.97614L24.4329 6.55328L24.2207 5.82589Z" fill="#FFA700"/>
<path d="M21.0234 3.06935L21.1057 3.56277L21.5393 3.50572L21.4657 3.00993L21.0234 3.06935Z" fill="#9F0000"/>
<path d="M23.9453 5.14709L23.9692 5.60032L24.2394 6.26456L24.2211 5.82595L23.9453 5.14709Z" fill="#FF6C00"/>
<path d="M21.4658 3.00982L21.5394 3.50562L21.9851 3.57257L21.9205 3.07721L21.4658 3.00982Z" fill="#920000"/>
<path d="M23.6128 4.53591L23.6434 5.00214L23.9689 5.60021L23.945 5.14698L23.6128 4.53591Z" fill="#FF3400"/>
<path d="M21.9204 3.07745L21.985 3.57281L22.4305 3.76257L22.375 3.27053L21.9204 3.07745Z" fill="#960000"/>
<path d="M23.2334 4.00996L23.2716 4.48724L23.6436 5.00216L23.613 4.53593L23.2334 4.00996Z" fill="#F10800"/>
<path d="M22.375 3.27048L22.4305 3.76252L22.8634 4.07022L22.8167 3.58428L22.375 3.27048Z" fill="#A40000"/>
<path d="M22.8169 3.5843L22.8635 4.07025L23.2716 4.48741L23.2334 4.01014L22.8169 3.5843Z" fill="#C40000"/>
<path d="M19.0828 7.48779L19.1824 7.89504L19.1279 7.15214L19.0273 6.73535L19.0828 7.48779Z" fill="#53FFA4"/>
<path d="M19.0273 6.7353L19.1279 7.15209L19.1434 6.41988L19.0426 5.99349L19.0273 6.7353Z" fill="#97FF60"/>
<path d="M19.0425 5.9935L19.1433 6.41988L19.2293 5.71709L19.129 5.28128L19.0425 5.9935Z" fill="#D7FF1F"/>
<path d="M19.1289 5.28117L19.2292 5.71698L19.3843 5.0621L19.2853 4.61731L19.1289 5.28117Z" fill="#FFD300"/>
<path d="M19.2852 4.61739L19.3842 5.06218L19.6053 4.4729L19.5082 4.01976L19.2852 4.61739Z" fill="#FF9100"/>
<path d="M19.5083 4.01978L19.6054 4.47293L19.8874 3.96566L19.793 3.50509L19.5083 4.01978Z" fill="#FF5200"/>
<path d="M19.7935 3.50512L19.8879 3.96569L20.2241 3.55502L20.133 3.08815L19.7935 3.50512Z" fill="#FF1E00"/>
<path d="M20.1323 3.08813L20.2234 3.555L20.6053 3.2531L20.5181 2.78126L20.1323 3.08813Z" fill="#D60000"/>
<path d="M20.5186 2.78123L20.6057 3.25307L21.0234 3.06935L20.9406 2.59404L20.5186 2.78123Z" fill="#AD0000"/>
<path d="M24.1733 5.38058L24.2209 5.82583L24.4331 6.55321L24.388 6.11724L24.1733 5.38058Z" fill="#FFA300"/>
<path d="M20.9404 2.59398L21.0233 3.06929L21.4655 3.00985L21.3873 2.53269L20.9404 2.59398Z" fill="#920000"/>
<path d="M23.894 4.69339L23.9447 5.14719L24.2206 5.82603L24.173 5.38077L23.894 4.69339Z" fill="#FF6400"/>
<path d="M21.3872 2.53271L21.4653 3.00987L21.92 3.07728L21.8468 2.59998L21.3872 2.53271Z" fill="#840000"/>
<path d="M23.5581 4.07469L23.6126 4.53601L23.9448 5.14711L23.8941 4.6933L23.5581 4.07469Z" fill="#FF2D00"/>
<path d="M21.8472 2.60004L21.9204 3.07735L22.375 3.27042L22.3067 2.79471L21.8472 2.60004Z" fill="#890000"/>
<path d="M23.1743 3.5424L23.233 4.01002L23.6126 4.53598L23.5582 4.07466L23.1743 3.5424Z" fill="#E40000"/>
<path d="M22.3066 2.79481L22.3749 3.27052L22.8166 3.58429L22.7532 3.11185L22.3066 2.79481Z" fill="#9B0000"/>
<path d="M22.7529 3.11182L22.8163 3.58427L23.2328 4.01014L23.1741 3.54251L22.7529 3.11182Z" fill="#BB0000"/>
<path d="M19.1527 7.82127L19.207 8.23202L19.083 7.48779L19.0283 7.07415L19.1527 7.82127Z" fill="#13FCE4"/>
<path d="M19.4174 8.99799L19.5219 9.32031L19.406 8.62217L19.2979 8.27843L19.4174 8.99799Z" fill="#19FFDE"/>
<path d="M19.2976 8.27843L19.4058 8.62217L19.3547 7.91701L19.2446 7.55136L19.2976 8.27843Z" fill="#56FFA0"/>
<path d="M19.2446 7.55136L19.3547 7.917L19.3704 7.22251L19.2603 6.83505L19.2446 7.55136Z" fill="#94FF63"/>
<path d="M19.2603 6.83499L19.3703 7.22245L19.4531 6.55639L19.345 6.14769L19.2603 6.83499Z" fill="#D1FF26"/>
<path d="M19.3452 6.14752L19.4533 6.55622L19.6019 5.93613L19.4978 5.50735L19.3452 6.14752Z" fill="#FFDB00"/>
<path d="M19.4976 5.50744L19.6017 5.93622L19.813 5.37882L19.7147 4.93166L19.4976 5.50744Z" fill="#FF9C00"/>
<path d="M19.7148 4.9318L19.8131 5.37896L20.0824 4.89972L19.9917 4.43647L19.7148 4.9318Z" fill="#FF6000"/>
<path d="M19.9917 4.43649L20.0823 4.89975L20.403 4.51238L20.3216 4.03577L19.9917 4.43649Z" fill="#FF3000"/>
<path d="M24.5872 7.7155L24.5444 8.08557L24.6123 8.80902L24.6569 8.46193L24.5872 7.7155Z" fill="#C1FF36"/>
<path d="M20.3213 4.03568L20.4027 4.51229L20.7666 4.22823L20.6959 3.74147L20.3213 4.03568Z" fill="#F10800"/>
<path d="M24.447 6.97631L24.4082 7.36912L24.5446 8.08555L24.5873 7.71548L24.447 6.97631Z" fill="#FBF100"/>
<path d="M20.6963 3.74151L20.767 4.22826L21.1648 4.05628L21.1059 3.56291L20.6963 3.74151Z" fill="#C80000"/>
<path d="M24.2393 6.26455L24.2065 6.67926L24.4085 7.36899L24.4472 6.97619L24.2393 6.26455Z" fill="#FFAE00"/>
<path d="M21.106 3.56292L21.1649 4.05629L21.5859 4.00206L21.5395 3.50586L21.106 3.56292Z" fill="#AD0000"/>
<path d="M23.9688 5.60049L23.9438 6.03557L24.2062 6.67941L24.239 6.2647L23.9688 5.60049Z" fill="#FF7300"/>
<path d="M21.5396 3.5057L21.5859 4.0019L22.0186 4.06776L21.9852 3.57265L21.5396 3.5057Z" fill="#A40000"/>
<path d="M23.6433 5.00231L23.6279 5.45563L23.9439 6.03546L23.9688 5.60037L23.6433 5.00231Z" fill="#FF3F00"/>
<path d="M21.9854 3.57274L22.0187 4.06785L22.4511 4.25258L22.4308 3.7625L21.9854 3.57274Z" fill="#A40000"/>
<path d="M23.2715 4.48735L23.2671 4.95622L23.6281 5.4556L23.6435 5.00228L23.2715 4.48735Z" fill="#FF1300"/>
<path d="M22.4307 3.7626L22.4509 4.25268L22.8711 4.55153L22.8635 4.07027L22.4307 3.7626Z" fill="#B60000"/>
<path d="M22.8633 4.07007L22.8708 4.55133L23.2669 4.95613L23.2714 4.48727L22.8633 4.07007Z" fill="#D10000"/>
<path d="M19.5996 9.69239L19.6986 9.99429L19.5214 9.32028L19.417 8.99796L19.5996 9.69239Z" fill="#00BCFF"/>
<path d="M19.6986 9.99408L19.7756 10.2329L19.6052 9.58465L19.5215 9.32008L19.6986 9.99408Z" fill="#00C4FF"/>
<path d="M19.5216 9.32019L19.6053 9.58476L19.4941 8.9135L19.4058 8.62207L19.5216 9.32019Z" fill="#1CFFDB"/>
<path d="M19.4056 8.62202L19.4939 8.91346L19.445 8.23572L19.3545 7.91686L19.4056 8.62202Z" fill="#56FFA0"/>
<path d="M19.3545 7.91692L19.445 8.23577L19.4604 7.56856L19.3702 7.22242L19.3545 7.91692Z" fill="#94FF63"/>
<path d="M19.3701 7.22251L19.4604 7.56864L19.5404 6.92905L19.4529 6.55645L19.3701 7.22251Z" fill="#CEFF29"/>
<path d="M24.403 10.8312L24.3037 11.0429L24.1128 11.5878L24.2043 11.3983L24.403 10.8312Z" fill="#00B0FF"/>
<path d="M19.4531 6.55642L19.5406 6.92903L19.684 6.33388L19.6017 5.93634L19.4531 6.55642Z" fill="#FFE200"/>
<path d="M24.5399 10.1998L24.435 10.4363L24.3037 11.0428L24.4031 10.8312L24.5399 10.1998Z" fill="#0CF4EB"/>
<path d="M19.6016 5.93627L19.6838 6.33382L19.8874 5.79915L19.8129 5.37887L19.6016 5.93627Z" fill="#FFA300"/>
<path d="M24.6107 9.51987L24.5027 9.78311L24.4351 10.4362L24.54 10.1998L24.6107 9.51987Z" fill="#46FFB1"/>
<path d="M19.813 5.37884L19.8875 5.79913L20.1468 5.33974L20.0822 4.89957L19.813 5.37884Z" fill="#FF6C00"/>
<path d="M24.6123 8.80899L24.5038 9.10036L24.5024 9.78324L24.6105 9.52L24.6123 8.80899Z" fill="#80FF77"/>
<path d="M20.082 4.89972L20.1466 5.33989L20.4551 4.9689L20.4027 4.51235L20.082 4.89972Z" fill="#FF3B00"/>
<path d="M24.5447 8.0854L24.4385 8.40549L24.5041 9.10022L24.6126 8.80885L24.5447 8.0854Z" fill="#BEFF39"/>
<path d="M20.4028 4.5122L20.4553 4.96875L20.8054 4.69705L20.7668 4.22813L20.4028 4.5122Z" fill="#FF1300"/>
<path d="M24.408 7.36903L24.3066 7.71765L24.4381 8.40555L24.5444 8.08546L24.408 7.36903Z" fill="#F8F500"/>
<path d="M20.7671 4.22814L20.8057 4.69706L21.1883 4.53299L21.1649 4.05615L20.7671 4.22814Z" fill="#DA0000"/>
<path d="M24.2061 6.67923L24.1123 7.05534L24.3067 7.71758L24.408 7.36896L24.2061 6.67923Z" fill="#FFB600"/>
<path d="M21.1646 4.0562L21.188 4.53304L21.5927 4.48198L21.5855 4.002L21.1646 4.0562Z" fill="#C40000"/>
<path d="M23.9437 6.0354L23.8599 6.43716L24.1123 7.05537L24.2061 6.67927L23.9437 6.0354Z" fill="#FF7E00"/>
<path d="M21.5854 4.00187L21.5927 4.48186L22.0087 4.54598L22.0181 4.06772L21.5854 4.00187Z" fill="#B60000"/>
<path d="M23.6279 5.45571L23.5562 5.8805L23.86 6.4373L23.9439 6.03554L23.6279 5.45571Z" fill="#FF4A00"/>
<path d="M22.0183 4.06776L22.0088 4.54601L22.4245 4.72411L22.4507 4.2525L22.0183 4.06776Z" fill="#BB0000"/>
<path d="M23.2668 4.95635L23.209 5.40083L23.5561 5.88053L23.6278 5.45573L23.2668 4.95635Z" fill="#FF1E00"/>
<path d="M22.4506 4.25241L22.4243 4.72402L22.8281 5.01151L22.8707 4.55126L22.4506 4.25241Z" fill="#C80000"/>
<path d="M22.8706 4.5515L22.8281 5.01175L23.2089 5.40077L23.2667 4.9563L22.8706 4.5515Z" fill="#E40000"/>
<path d="M23.4745 10.5532L24.3234 10.2601L24.1629 10.1215L23.3013 10.4037L23.4745 10.5532Z" fill="#00C4FF"/>
<path d="M23.3013 10.4038L24.1629 10.1216L24.0142 9.94493L23.1406 10.2132L23.3013 10.4038Z" fill="#00D0FF"/>
<path d="M23.1407 10.2131L24.0143 9.94483L23.8811 9.73441L22.9966 9.98619L23.1407 10.2131Z" fill="#00E0FB"/>
<path d="M22.9965 9.98628L23.881 9.7345L23.7669 9.49563L22.8726 9.72868L22.9965 9.98628Z" fill="#0FF8E7"/>
<path d="M22.744 10.8656L23.4745 10.5533L23.3014 10.4038L22.5552 10.7025L22.744 10.8656Z" fill="#00B4FF"/>
<path d="M22.5552 10.7027L23.3014 10.4039L23.1408 10.2132L22.3799 10.4948L22.5552 10.7027Z" fill="#00C0FF"/>
<path d="M22.9416 10.9801L23.6561 10.6582L23.4747 10.5534L22.7441 10.8657L22.9416 10.9801Z" fill="#00A8FF"/>
<path d="M22.8725 9.72851L23.7668 9.49545L23.6745 9.23409L22.772 9.44666L22.8725 9.72851Z" fill="#23FFD4"/>
<path d="M22.3798 10.4949L23.1406 10.2133L22.9965 9.98634L22.2222 10.2476L22.3798 10.4949Z" fill="#00D4FF"/>
<path d="M23.1427 11.0428L23.8408 10.7155L23.6558 10.6582L22.9414 10.9801L23.1427 11.0428Z" fill="#00A8FF"/>
<path d="M22.2222 10.2475L22.9966 9.98629L22.8727 9.7287L22.0864 9.96681L22.2222 10.2475Z" fill="#06ECF1"/>
<path d="M22.7718 9.44676L23.6744 9.23419L23.6063 8.95688L22.6973 9.14771L22.7718 9.44676Z" fill="#39FFBE"/>
<path d="M23.3426 11.052L24.0247 10.7237L23.8407 10.7154L23.1426 11.0427L23.3426 11.052Z" fill="#00A8FF"/>
<path d="M22.0861 9.96663L22.8724 9.72852L22.7718 9.44668L21.9756 9.6595L22.0861 9.96663Z" fill="#1CFFDB"/>
<path d="M22.6975 9.14767L23.6066 8.95684L23.5646 8.67057L22.6509 8.83892L22.6975 9.14767Z" fill="#53FFA4"/>
<path d="M21.9755 9.65973L22.7717 9.44691L22.6972 9.14785L21.8931 9.33381L21.9755 9.65973Z" fill="#36FFC1"/>
<path d="M22.6507 8.83904L23.5644 8.6707L23.5496 8.38273L22.6333 8.52842L22.6507 8.83904Z" fill="#6DFF8A"/>
<path d="M21.8934 9.33377L22.6975 9.14782L22.6509 8.83907L21.8413 8.99724L21.8934 9.33377Z" fill="#50FFA7"/>
<path d="M22.6333 8.52839L23.5496 8.3827L23.5627 8.1004L22.6458 8.22382L22.6333 8.52839Z" fill="#87FF70"/>
<path d="M21.8411 8.99711L22.6507 8.83894L22.6334 8.52832L21.8208 8.65847L21.8411 8.99711Z" fill="#6AFF8D"/>
<path d="M22.646 8.22381L23.5629 8.10039L23.6034 7.83104L22.6882 7.93316L22.646 8.22381Z" fill="#A0FF56"/>
<path d="M21.8208 8.65844L22.6334 8.52829L22.6459 8.22371L21.8329 8.3263L21.8208 8.65844Z" fill="#87FF70"/>
<path d="M22.688 7.9331L23.6032 7.83098L23.6704 7.5816L22.7589 7.66394L22.688 7.9331Z" fill="#B7FF40"/>
<path d="M21.833 8.3264L22.646 8.22381L22.6881 7.93316L21.8774 8.00937L21.833 8.3264Z" fill="#A4FF53"/>
<path d="M22.7593 7.66406L23.6708 7.58172L23.763 7.35889L22.8572 7.42351L22.7593 7.66406Z" fill="#D1FF26"/>
<path d="M21.8774 8.00939L22.6881 7.93318L22.759 7.66402L21.9533 7.71573L21.8774 8.00939Z" fill="#BEFF39"/>
<path d="M22.8569 7.42334L23.7627 7.35872L23.8776 7.16839L22.9795 7.21784L22.8569 7.42334Z" fill="#E4FF13"/>
<path d="M21.9531 7.71579L22.7589 7.66408L22.8569 7.42354L22.0585 7.45326L21.9531 7.71579Z" fill="#D7FF1F"/>
<path d="M22.0586 7.45311L22.8569 7.42339L22.9795 7.21788L22.191 7.22876L22.0586 7.45311Z" fill="#EEFF09"/>
<path d="M22.1909 7.22887L22.9795 7.21799L23.1236 7.05309L22.347 7.0488L22.1909 7.22887Z" fill="#FFEA00"/>
<path d="M22.3472 7.04883L23.1238 7.05313L23.2858 6.93338L22.5229 6.91803L22.3472 7.04883Z" fill="#FFD700"/>
<path d="M21.2956 12.683L21.2566 12.6534L20.9185 12.3609L20.938 12.3737L21.2956 12.683Z" fill="#0000FF"/>
<path d="M20.9381 12.3738L20.9185 12.361L20.6035 11.9894L20.605 11.9808L20.9381 12.3738Z" fill="#0010FF"/>
<path d="M21.6693 12.9012L21.6098 12.8596L21.2568 12.6535L21.2959 12.6831L21.6693 12.9012Z" fill="#0000F1"/>
<path d="M20.6049 11.9808L20.6034 11.9894L20.3192 11.5475L20.3042 11.5134L20.6049 11.9808Z" fill="#0038FF"/>
<path d="M22.049 13.0226L21.9687 12.9743L21.6094 12.8596L21.6688 12.9012L22.049 13.0226Z" fill="#0000E8"/>
<path d="M20.3042 11.5132L20.3192 11.5474L20.0727 11.0457L20.0435 10.9826L20.3042 11.5132Z" fill="#0064FF"/>
<path d="M22.4272 13.0439L22.3261 12.9945L21.9692 12.9744L22.0495 13.0226L22.4272 13.0439Z" fill="#0000ED"/>
<path d="M20.0434 10.9827L20.0727 11.0458L19.8701 10.4965L19.8291 10.4014L20.0434 10.9827Z" fill="#0098FF"/>
<path d="M22.7928 12.9642L22.6714 12.919L22.3257 12.9944L22.4267 13.0439L22.7928 12.9642Z" fill="#0000FF"/>
<path d="M19.8293 10.4015L19.8704 10.4967L19.717 9.91287L19.667 9.7836L19.8293 10.4015Z" fill="#00D4FF"/>
<path d="M23.1384 12.7844L22.9978 12.749L22.6719 12.9188L22.7932 12.964L23.1384 12.7844Z" fill="#0008FF"/>
<path d="M19.667 9.78341L19.717 9.91269L19.617 9.30864L19.561 9.1438L19.667 9.78341Z" fill="#26FFD1"/>
<path d="M23.4539 12.5087L23.2955 12.4884L22.9976 12.749L23.1382 12.7845L23.4539 12.5087Z" fill="#002CFF"/>
<path d="M19.561 9.14391L19.617 9.30875L19.5734 8.69939L19.5146 8.49839L19.561 9.14391Z" fill="#5AFF9D"/>
<path d="M23.7319 12.1429L23.5576 12.1427L23.2954 12.4884L23.4538 12.5088L23.7319 12.1429Z" fill="#0054FF"/>
<path d="M19.5146 8.49834L19.5734 8.69934L19.5877 8.1L19.5296 7.86314L19.5146 8.49834Z" fill="#90FF66"/>
<path d="M23.9649 11.6953L23.777 11.7199L23.5576 12.1428L23.7319 12.143L23.9649 11.6953Z" fill="#0088FF"/>
<path d="M19.5293 7.86317L19.5874 8.10003L19.6599 7.5261L19.6058 7.25457L19.5293 7.86317Z" fill="#C7FF30"/>
<path d="M24.1465 11.1763L23.948 11.2299L23.7773 11.7198L23.9652 11.6952L24.1465 11.1763Z" fill="#00C4FF"/>
<path d="M19.6064 7.25459L19.6605 7.52611L19.7899 6.99266L19.7433 6.6886L19.6064 7.25459Z" fill="#FBF100"/>
<path d="M24.2709 10.5986L24.0646 10.6847L23.9478 11.2297L24.1463 11.1762L24.2709 10.5986Z" fill="#16FFE1"/>
<path d="M19.7432 6.68849L19.7898 6.99255L19.9733 6.51391L19.9374 6.18032L19.7432 6.68849Z" fill="#FFB900"/>
<path d="M24.3345 9.97704L24.124 10.0982L24.0645 10.6848L24.2707 10.5987L24.3345 9.97704Z" fill="#4DFFAA"/>
<path d="M19.937 6.18046L19.9729 6.51405L20.2063 6.10339L20.1842 5.74416L19.937 6.18046Z" fill="#FF8600"/>
<path d="M24.3353 9.32712L24.124 9.48526L24.124 10.0982L24.3346 9.97702L24.3353 9.32712Z" fill="#80FF77"/>
<path d="M20.1846 5.74411L20.2067 6.10333L20.4843 5.77225L20.4787 5.39205L20.1846 5.74411Z" fill="#FF5D00"/>
<path d="M24.2723 8.66624L24.064 8.86215L24.1241 9.48538L24.3354 9.32725L24.2723 8.66624Z" fill="#B7FF40"/>
<path d="M20.4785 5.39214L20.4842 5.77234L20.7989 5.53049L20.8121 5.13465L20.4785 5.39214Z" fill="#FF3800"/>
<path d="M24.1467 8.0117L23.9448 8.24516L24.064 8.86201L24.2724 8.6661L24.1467 8.0117Z" fill="#EBFF0C"/>
<path d="M20.812 5.13466L20.7988 5.5305L21.1425 5.38517L21.1764 4.97956L20.812 5.13466Z" fill="#FF1A00"/>
<path d="M23.9613 7.38173L23.7695 7.65145L23.945 8.24509L24.1468 8.01163L23.9613 7.38173Z" fill="#FFC800"/>
<path d="M21.1764 4.97947L21.1426 5.38508L21.506 5.34095L21.5618 4.93182L21.1764 4.97947Z" fill="#F10800"/>
<path d="M23.7205 6.79396L23.542 7.09756L23.7693 7.65164L23.9611 7.38192L23.7205 6.79396Z" fill="#FF9400"/>
<path d="M21.5617 4.93179L21.5059 5.34093L21.8793 5.39981L21.9577 4.99356L21.5617 4.93179Z" fill="#E80000"/>
<path d="M23.4308 6.26427L23.2686 6.59841L23.5418 7.09753L23.7203 6.79393L23.4308 6.26427Z" fill="#FF6800"/>
<path d="M21.9578 4.99363L21.8794 5.39987L22.2525 5.56061L22.3535 5.16368L21.9578 4.99363Z" fill="#ED0400"/>
<path d="M23.1006 5.80767L22.957 6.16803L23.2689 6.59817L23.4311 6.26403L23.1006 5.80767Z" fill="#FF4300"/>
<path d="M22.3534 5.16356L22.2524 5.56049L22.615 5.81895L22.7379 5.43745L22.3534 5.16356Z" fill="#FA0F00"/>
<path d="M22.7382 5.4375L22.6152 5.819L22.9571 6.16814L23.1007 5.80779L22.7382 5.4375Z" fill="#FF2200"/>
<path d="M19.7753 10.2331L19.829 10.4014L19.6667 9.78348L19.605 9.58478L19.7753 10.2331Z" fill="#00CCFF"/>
<path d="M19.6049 9.58489L19.6666 9.78359L19.5607 9.14397L19.4937 8.91362L19.6049 9.58489Z" fill="#1FFFD7"/>
<path d="M23.5759 12.4417L23.4539 12.5089L23.1382 12.7846L23.2445 12.731L23.5759 12.4417Z" fill="#0018FF"/>
<path d="M19.4937 8.9136L19.5607 9.14395L19.5143 8.49843L19.4448 8.23586L19.4937 8.9136Z" fill="#5AFF9D"/>
<path d="M23.8676 12.0577L23.7317 12.1429L23.4536 12.5088L23.5756 12.4416L23.8676 12.0577Z" fill="#0044FF"/>
<path d="M19.4448 8.23567L19.5143 8.49824L19.5293 7.86304L19.4602 7.56846L19.4448 8.23567Z" fill="#94FF63"/>
<path d="M24.1127 11.5878L23.9649 11.6953L23.7319 12.143L23.8679 12.0577L24.1127 11.5878Z" fill="#007CFF"/>
<path d="M19.4604 7.56842L19.5295 7.863L19.606 7.25442L19.5405 6.92883L19.4604 7.56842Z" fill="#CAFF2C"/>
<path d="M24.3036 11.0428L24.1462 11.1762L23.9648 11.6951L24.1127 11.5876L24.3036 11.0428Z" fill="#00B8FF"/>
<path d="M19.5405 6.92891L19.6061 7.2545L19.7429 6.68851L19.6838 6.33377L19.5405 6.92891Z" fill="#FFEA00"/>
<path d="M24.4346 10.4362L24.2705 10.5986L24.146 11.1762L24.3033 11.0428L24.4346 10.4362Z" fill="#0FF8E7"/>
<path d="M19.6836 6.33391L19.7427 6.68866L19.9369 6.18049L19.8872 5.79925L19.6836 6.33391Z" fill="#FFAE00"/>
<path d="M24.5022 9.78313L24.3343 9.97697L24.2705 10.5987L24.4346 10.4362L24.5022 9.78313Z" fill="#49FFAD"/>
<path d="M19.8872 5.79902L19.9369 6.18026L20.1841 5.74397L20.1465 5.33963L19.8872 5.79902Z" fill="#FF7A00"/>
<path d="M24.5038 9.10028L24.3352 9.32712L24.3345 9.977L24.5024 9.78317L24.5038 9.10028Z" fill="#80FF77"/>
<path d="M20.1465 5.33983L20.1841 5.74416L20.4782 5.3921L20.4551 4.96884L20.1465 5.33983Z" fill="#FF4A00"/>
<path d="M24.438 8.40558L24.272 8.66614L24.335 9.32715L24.5036 9.10031L24.438 8.40558Z" fill="#BAFF3C"/>
<path d="M20.4551 4.96879L20.4782 5.39205L20.8118 5.13456L20.8052 4.69708L20.4551 4.96879Z" fill="#FF2500"/>
<path d="M24.3067 7.71753L24.1465 8.0116L24.2722 8.66598L24.4382 8.40542L24.3067 7.71753Z" fill="#F1FC06"/>
<path d="M20.8052 4.69715L20.8117 5.13463L21.1761 4.97954L21.1878 4.53307L20.8052 4.69715Z" fill="#F10800"/>
<path d="M24.1123 7.05548L23.9609 7.38188L24.1464 8.01179L24.3066 7.71773L24.1123 7.05548Z" fill="#FFC100"/>
<path d="M21.188 4.533L21.1763 4.97947L21.5617 4.93181L21.5927 4.48196L21.188 4.533Z" fill="#DA0000"/>
<path d="M23.8598 6.43707L23.7202 6.7937L23.9609 7.38168L24.1122 7.05528L23.8598 6.43707Z" fill="#FF8900"/>
<path d="M21.5926 4.48186L21.5615 4.93171L21.9575 4.99348L22.0086 4.54598L21.5926 4.48186Z" fill="#CD0000"/>
<path d="M23.5558 5.88051L23.4307 6.2643L23.7202 6.79393L23.8597 6.43731L23.5558 5.88051Z" fill="#FF5900"/>
<path d="M22.0086 4.54601L21.9575 4.99352L22.3532 5.16355L22.4242 4.72413L22.0086 4.54601Z" fill="#D10000"/>
<path d="M23.2087 5.4008L23.1001 5.80791L23.4306 6.26429L23.5558 5.8805L23.2087 5.4008Z" fill="#FF3000"/>
<path d="M22.424 4.72431L22.353 5.16373L22.7375 5.43763L22.8279 5.01179L22.424 4.72431Z" fill="#DF0000"/>
<path d="M22.8277 5.01155L22.7373 5.43739L23.0998 5.80768L23.2085 5.40057L22.8277 5.01155Z" fill="#FA0F00"/>
<path d="M21.8828 1.02917L21.4146 1.1745L21.7449 1.1442L22.1506 1.00653L21.8828 1.02917Z" fill="#9F0000"/>
<path d="M22.1508 1.00634L21.7451 1.14401L22.0854 1.23842L22.4265 1.10485L22.1508 1.00634Z" fill="#960000"/>
<path d="M23.8308 3.89581L23.8169 4.07769L23.9781 4.80527L23.9617 4.6057L23.8308 3.89581Z" fill="#FFAB00"/>
<path d="M22.4266 1.10488L22.0854 1.23844L22.4262 1.45582L22.7028 1.32269L22.4266 1.10488Z" fill="#960000"/>
<path d="M23.6612 3.2277L23.6079 3.39397L23.8167 4.07763L23.8307 3.89575L23.6612 3.2277Z" fill="#FF6C00"/>
<path d="M22.7029 1.32277L22.4263 1.4559L22.7579 1.79079L22.9718 1.65443L22.7029 1.32277Z" fill="#A80000"/>
<path d="M23.4575 2.62057L23.3569 2.77379L23.6078 3.39416L23.6611 3.22789L23.4575 2.62057Z" fill="#FF3400"/>
<path d="M22.9712 1.65451L22.7573 1.79088L23.0706 2.23426L23.2252 2.09112L22.9712 1.65451Z" fill="#C80000"/>
<path d="M23.2254 2.09115L23.0708 2.23429L23.3569 2.77378L23.4575 2.62056L23.2254 2.09115Z" fill="#F10800"/>
<path d="M19.0279 7.07398L19.0826 7.48762L19.0272 6.73518L18.9722 6.31848L19.0279 7.07398Z" fill="#53FFA4"/>
<path d="M18.9722 6.3186L19.0272 6.7353L19.0425 5.9935L18.9873 5.57362L18.9722 6.3186Z" fill="#97FF60"/>
<path d="M18.9873 5.57362L19.0425 5.9935L19.129 5.28129L19.0737 4.8582L18.9873 5.57362Z" fill="#D7FF1F"/>
<path d="M19.0737 4.8581L19.129 5.28119L19.2854 4.6173L19.2301 4.19103L19.0737 4.8581Z" fill="#FFD000"/>
<path d="M19.23 4.19115L19.2852 4.61742L19.5082 4.01982L19.4532 3.59052L19.23 4.19115Z" fill="#FF8D00"/>
<path d="M19.4531 3.59037L19.5081 4.01968L19.7928 3.50498L19.7382 3.07285L19.4531 3.59037Z" fill="#FF4E00"/>
<path d="M19.7383 3.07311L19.7929 3.50524L20.1325 3.08825L20.0783 2.6536L19.7383 3.07311Z" fill="#FF1A00"/>
<path d="M20.0786 2.65351L20.1328 3.08816L20.5186 2.7813L20.465 2.34451L20.0786 2.65351Z" fill="#D10000"/>
<path d="M24.3423 5.68689L24.433 6.56429L24.5763 7.32448L24.4877 6.45525L24.3423 5.68689Z" fill="#FFE600"/>
<path d="M20.4648 2.34459L20.5184 2.78138L20.9405 2.59419L20.8876 2.1557L20.4648 2.34459Z" fill="#A80000"/>
<path d="M24.127 4.94741L24.1733 5.3807L24.388 6.11738L24.3422 5.68684L24.127 4.94741Z" fill="#FF9F00"/>
<path d="M20.8877 2.1556L20.9406 2.59409L21.3875 2.53282L21.3354 2.09308L20.8877 2.1556Z" fill="#8D0000"/>
<path d="M23.8472 4.25761L23.8942 4.69327L24.1732 5.38066L24.1268 4.94737L23.8472 4.25761Z" fill="#FF6000"/>
<path d="M21.335 2.09319L21.3871 2.53292L21.8467 2.60019L21.7954 2.15979L21.335 2.09319Z" fill="#800000"/>
<path d="M23.5103 3.63718L23.5581 4.07481L23.8941 4.69342L23.847 4.25776L23.5103 3.63718Z" fill="#FF2900"/>
<path d="M21.7959 2.15965L21.8472 2.60004L22.3067 2.79469L22.2563 2.35415L21.7959 2.15965Z" fill="#800000"/>
<path d="M23.1255 3.10345L23.1741 3.54258L23.558 4.07481L23.5102 3.63719L23.1255 3.10345Z" fill="#DF0000"/>
<path d="M22.2563 2.35413L22.3068 2.79467L22.7534 3.11171L22.7038 2.6716L22.2563 2.35413Z" fill="#920000"/>
<path d="M22.7036 2.67171L22.7531 3.11182L23.1743 3.54254L23.1256 3.10341L22.7036 2.67171Z" fill="#B20000"/>
<path d="M24.2441 5.33058L24.3417 5.68695L24.4872 6.45531L24.3843 6.09848L24.2441 5.33058Z" fill="#FFE600"/>
<path d="M21.103 1.32739L20.7368 1.58668L21.1004 1.42049L21.4145 1.17429L21.103 1.32739Z" fill="#B20000"/>
<path d="M21.4148 1.17453L21.1006 1.42073L21.486 1.37958L21.7452 1.14422L21.4148 1.17453Z" fill="#960000"/>
<path d="M21.745 1.14418L21.4858 1.37955L21.8826 1.46564L22.0853 1.2386L21.745 1.14418Z" fill="#890000"/>
<path d="M22.0855 1.23839L21.8828 1.46543L22.2799 1.67721L22.4262 1.45576L22.0855 1.23839Z" fill="#890000"/>
<path d="M23.3569 2.77372L23.3637 2.9953L23.6555 3.62119L23.6078 3.39409L23.3569 2.77372Z" fill="#FF2D00"/>
<path d="M22.4261 1.45599L22.2798 1.67743L22.6662 2.00955L22.7577 1.79089L22.4261 1.45599Z" fill="#9B0000"/>
<path d="M23.0708 2.2342L23.0308 2.45294L23.3637 2.99529L23.3569 2.7737L23.0708 2.2342Z" fill="#E80000"/>
<path d="M22.7576 1.79091L22.666 2.00958L23.0308 2.45301L23.0709 2.23428L22.7576 1.79091Z" fill="#BB0000"/>
<path d="M23.6079 3.39416L23.6556 3.62126L23.8982 4.31289L23.8167 4.07781L23.6079 3.39416Z" fill="#FF6400"/>
<path d="M20.4047 1.8724L20.1494 2.23986L20.5199 1.93875L20.7367 1.58692L20.4047 1.8724Z" fill="#D10000"/>
<path d="M20.7368 1.58689L20.52 1.93872L20.9255 1.75763L21.1004 1.42068L20.7368 1.58689Z" fill="#A80000"/>
<path d="M21.1002 1.42073L20.9253 1.75768L21.3549 1.70272L21.4856 1.37959L21.1002 1.42073Z" fill="#8D0000"/>
<path d="M21.4857 1.37941L21.355 1.70254L21.7969 1.77623L21.8825 1.46552L21.4857 1.37941Z" fill="#800000"/>
<path d="M21.8824 1.46552L21.7969 1.77623L22.239 1.97727L22.2796 1.67728L21.8824 1.46552Z" fill="#840000"/>
<path d="M23.3638 2.99536L23.4443 3.27515L23.7681 3.89876L23.6556 3.62127L23.3638 2.99536Z" fill="#FF2900"/>
<path d="M22.2799 1.67734L22.2393 1.97732L22.6691 2.3006L22.6662 2.00946L22.2799 1.67734Z" fill="#920000"/>
<path d="M23.0308 2.45296L23.0743 2.73733L23.4442 3.27511L23.3637 2.99532L23.0308 2.45296Z" fill="#DF0000"/>
<path d="M22.666 2.00937L22.6689 2.30052L23.0744 2.73719L23.0308 2.45282L22.666 2.00937Z" fill="#B20000"/>
<path d="M20.113 2.26801L19.8237 2.65142L20.1496 2.23972L20.4049 1.87225L20.113 2.26801Z" fill="#FF1A00"/>
<path d="M19.3365 3.75508L19.23 4.19103L19.4532 3.59039L19.5504 3.16144L19.3365 3.75508Z" fill="#FF8D00"/>
<path d="M19.5502 3.16153L19.4531 3.59048L19.7382 3.07299L19.8234 2.65149L19.5502 3.16153Z" fill="#FF4E00"/>
<path d="M19.8235 2.65148L19.7383 3.07299L20.0783 2.65348L20.1494 2.23978L19.8235 2.65148Z" fill="#FF1600"/>
<path d="M20.1492 2.23969L20.0781 2.65339L20.4645 2.34439L20.5197 1.93858L20.1492 2.23969Z" fill="#D10000"/>
<path d="M20.52 1.93858L20.4648 2.34439L20.8875 2.15549L20.9254 1.75748L20.52 1.93858Z" fill="#A40000"/>
<path d="M20.9255 1.75768L20.8877 2.15568L21.3354 2.09319L21.3551 1.70272L20.9255 1.75768Z" fill="#890000"/>
<path d="M23.7681 3.8987L23.8471 4.25773L24.1268 4.94748L24.0372 4.59037L23.7681 3.8987Z" fill="#FF6000"/>
<path d="M21.3551 1.70248L21.3354 2.09295L21.7959 2.15953L21.7971 1.77617L21.3551 1.70248Z" fill="#800000"/>
<path d="M23.4443 3.27509L23.5105 3.63712L23.8473 4.25773L23.7682 3.8987L23.4443 3.27509Z" fill="#FF2900"/>
<path d="M21.7971 1.77617L21.7959 2.15953L22.2563 2.35405L22.2392 1.97722L21.7971 1.77617Z" fill="#800000"/>
<path d="M23.0742 2.7373L23.1255 3.10335L23.5102 3.63709L23.444 3.27506L23.0742 2.7373Z" fill="#DF0000"/>
<path d="M22.2388 1.9773L22.2559 2.35413L22.7034 2.6716L22.6686 2.30058L22.2388 1.9773Z" fill="#920000"/>
<path d="M22.6689 2.30067L22.7038 2.67168L23.1258 3.10339L23.0745 2.73734L22.6689 2.30067Z" fill="#B20000"/>
<path d="M26.4226 6.71362L25.7769 6.70826L25.7878 7.19373L26.447 7.16759L26.4226 6.71362Z" fill="#23FFD4"/>
<path d="M26.4136 6.22526L25.7739 6.18386L25.7771 6.70841L26.4228 6.71378L26.4136 6.22526Z" fill="#53FFA4"/>
<path d="M26.4198 5.71463L25.7787 5.63363L25.7739 6.1837L26.4136 6.22509L26.4198 5.71463Z" fill="#80FF77"/>
<path d="M26.4414 5.19563L25.7915 5.07254L25.7788 5.63362L26.4199 5.71461L26.4414 5.19563Z" fill="#ADFF49"/>
<path d="M26.478 4.68212L25.8118 4.51563L25.7915 5.07269L26.4414 5.19578L26.478 4.68212Z" fill="#DBFF1C"/>
<path d="M26.5282 4.18768L25.8389 3.97774L25.8115 4.51564L26.4777 4.68213L26.5282 4.18768Z" fill="#FFE200"/>
<path d="M27.1263 2.24981L26.1504 1.83125L26.1016 1.89727L27.0308 2.3027L27.1263 2.24981Z" fill="#FF3800"/>
<path d="M26.5915 3.7259L25.8727 3.47372L25.8389 3.9777L26.5282 4.18764L26.5915 3.7259Z" fill="#FFB600"/>
<path d="M27.0306 2.30269L26.1013 1.89725L26.0518 2.05413L26.9342 2.43976L27.0306 2.30269Z" fill="#FF3800"/>
<path d="M26.6662 3.30948L25.9124 3.01753L25.873 3.47362L26.5918 3.7258L26.6662 3.30948Z" fill="#FF9100"/>
<path d="M26.9343 2.43966L26.0519 2.05402L26.0029 2.29777L26.8397 2.65743L26.9343 2.43966Z" fill="#FF4300"/>
<path d="M26.7494 2.94999L25.9559 2.62186L25.9121 3.01744L26.6659 3.30939L26.7494 2.94999Z" fill="#FF6F00"/>
<path d="M26.8399 2.65755L26.0031 2.29789L25.9561 2.62197L26.7496 2.95011L26.8399 2.65755Z" fill="#FF5500"/>
<path d="M27.0791 6.76766L26.4224 6.71381L26.4467 7.1678L27.114 7.19013L27.0791 6.76766Z" fill="#2CFFCA"/>
<path d="M27.0651 6.31513L26.4131 6.22521L26.4223 6.71372L27.0791 6.76757L27.0651 6.31513Z" fill="#56FFA0"/>
<path d="M27.0724 5.84438L26.4193 5.7148L26.4131 6.22525L27.0651 6.31516L27.0724 5.84438Z" fill="#80FF77"/>
<path d="M27.1012 5.36757L26.441 5.19579L26.4194 5.71476L27.0726 5.84435L27.1012 5.36757Z" fill="#AAFF4D"/>
<path d="M27.1505 4.89741L26.4774 4.6821L26.4409 5.19575L27.1011 5.36753L27.1505 4.89741Z" fill="#D4FF23"/>
<path d="M27.2194 4.4466L26.5281 4.18767L26.4775 4.68214L27.1506 4.89744L27.2194 4.4466Z" fill="#FBF100"/>
<path d="M28.1722 2.75927L27.218 2.28217L27.126 2.24982L28.0441 2.72021L28.1722 2.75927Z" fill="#FF5500"/>
<path d="M27.3058 4.02729L26.5911 3.72589L26.5278 4.18765L27.2192 4.44658L27.3058 4.02729Z" fill="#FFC400"/>
<path d="M28.0444 2.72026L27.1263 2.24986L27.0308 2.30277L27.9118 2.7595L28.0444 2.72026Z" fill="#FF4E00"/>
<path d="M27.408 3.65106L26.6657 3.30957L26.5913 3.7259L27.3059 4.0273L27.408 3.65106Z" fill="#FFA300"/>
<path d="M27.9115 2.75956L27.0305 2.30283L26.9341 2.43992L27.778 2.87633L27.9115 2.75956Z" fill="#FF5200"/>
<path d="M27.5231 3.32826L26.7495 2.95025L26.666 3.30965L27.4083 3.65114L27.5231 3.32826Z" fill="#FF8200"/>
<path d="M27.7784 2.87631L26.9345 2.4399L26.8398 2.65764L27.6477 3.06758L27.7784 2.87631Z" fill="#FF5900"/>
<path d="M27.6471 3.06761L26.8393 2.65767L26.749 2.95026L27.5227 3.32827L27.6471 3.06761Z" fill="#FF6C00"/>
<path d="M27.6923 6.8636L27.0796 6.76752L27.1144 7.18997L27.7349 7.25516L27.6923 6.8636Z" fill="#33FFC4"/>
<path d="M27.6747 6.44661L27.0654 6.31522L27.0795 6.76767L27.6922 6.86375L27.6747 6.44661Z" fill="#5AFF9D"/>
<path d="M27.6828 6.01459L27.0728 5.84441L27.0654 6.31521L27.6747 6.4466L27.6828 6.01459Z" fill="#80FF77"/>
<path d="M27.7165 5.57881L27.1014 5.3674L27.0728 5.84419L27.6828 6.01437L27.7165 5.57881Z" fill="#A7FF50"/>
<path d="M27.7753 5.15142L27.1509 4.8975L27.1016 5.36763L27.7167 5.57904L27.7753 5.15142Z" fill="#CEFF29"/>
<path d="M27.8574 4.74309L27.2197 4.44658L27.1509 4.89741L27.7753 5.15133L27.8574 4.74309Z" fill="#F1FC06"/>
<path d="M27.961 4.36511L27.3063 4.02713L27.2197 4.4464L27.8574 4.74292L27.961 4.36511Z" fill="#FFD700"/>
<path d="M29.0026 3.26961L28.1725 2.75916L28.0444 2.72008L28.8479 3.22377L29.0026 3.26961Z" fill="#FF6F00"/>
<path d="M28.083 4.02816L27.4082 3.65102L27.3062 4.02727L27.9608 4.36525L28.083 4.02816Z" fill="#FFB600"/>
<path d="M28.8477 3.22395L28.0442 2.72026L27.9116 2.75951L28.6879 3.24967L28.8477 3.22395Z" fill="#FF6800"/>
<path d="M28.2207 3.74092L27.523 3.32806L27.4082 3.65094L28.083 4.02808L28.2207 3.74092Z" fill="#FF9800"/>
<path d="M28.688 3.24967L27.9118 2.75951L27.7783 2.87627L28.5274 3.34641L28.688 3.24967Z" fill="#FF6C00"/>
<path d="M28.37 3.51177L27.6474 3.06761L27.5229 3.32824L28.2206 3.74111L28.37 3.51177Z" fill="#FF8200"/>
<path d="M28.5273 3.34648L27.7782 2.87634L27.6475 3.06761L28.3701 3.51177L28.5273 3.34648Z" fill="#FF7300"/>
<path d="M28.2052 6.99422L27.6919 6.86359L27.7345 7.25515L28.2529 7.35618L28.2052 6.99422Z" fill="#39FFBE"/>
<path d="M28.1852 6.61075L27.6743 6.44639L27.6919 6.86353L28.2052 6.99416L28.1852 6.61075Z" fill="#5AFF9D"/>
<path d="M28.1937 6.21572L27.6824 6.01439L27.6743 6.44638L28.1852 6.61074L28.1937 6.21572Z" fill="#80FF77"/>
<path d="M28.2308 5.81954L27.7164 5.57898L27.6826 6.01455L28.1939 6.21588L28.2308 5.81954Z" fill="#A4FF53"/>
<path d="M28.2953 5.4323L27.775 5.15134L27.7163 5.57897L28.2307 5.81953L28.2953 5.4323Z" fill="#C7FF30"/>
<path d="M28.3858 5.06444L27.857 4.74304L27.7749 5.15128L28.2952 5.43224L28.3858 5.06444Z" fill="#E7FF0F"/>
<path d="M28.5001 4.72605L27.9605 4.36529L27.8569 4.7431L28.3858 5.0645L28.5001 4.72605Z" fill="#FFE600"/>
<path d="M28.6354 4.42609L28.0827 4.0282L27.9604 4.36529L28.5002 4.72605L28.6354 4.42609Z" fill="#FFC400"/>
<path d="M29.6564 3.7941L29.0023 3.26978L28.8477 3.22393L29.4843 3.7418L29.6564 3.7941Z" fill="#FF8600"/>
<path d="M28.7882 4.17265L28.2207 3.74089L28.083 4.02805L28.6357 4.42594L28.7882 4.17265Z" fill="#FFAB00"/>
<path d="M29.4839 3.74179L28.8473 3.22392L28.6875 3.24963L29.3062 3.75468L29.4839 3.74179Z" fill="#FF8200"/>
<path d="M28.9538 3.97297L28.3702 3.51156L28.2207 3.74091L28.7882 4.17267L28.9538 3.97297Z" fill="#FF9800"/>
<path d="M29.3067 3.75451L28.688 3.24947L28.5273 3.34623L29.1283 3.83229L29.3067 3.75451Z" fill="#FF8200"/>
<path d="M29.1277 3.83253L28.5268 3.34647L28.3696 3.51176L28.9533 3.97317L29.1277 3.83253Z" fill="#FF8900"/>
<path d="M28.569 7.15085L28.2056 6.99413L28.2533 7.3561L28.6196 7.48524L28.569 7.15085Z" fill="#3CFFBA"/>
<path d="M28.5474 6.79887L28.1855 6.61083L28.2055 6.99425L28.5689 7.15097L28.5474 6.79887Z" fill="#5DFF9A"/>
<path d="M28.5559 6.43823L28.194 6.21595L28.1855 6.61098L28.5474 6.79902L28.5559 6.43823Z" fill="#80FF77"/>
<path d="M28.5941 6.07788L28.2308 5.81934L28.1938 6.21567L28.5557 6.43795L28.5941 6.07788Z" fill="#A0FF56"/>
<path d="M28.6616 5.72792L28.2955 5.43213L28.231 5.81936L28.5942 6.07789L28.6616 5.72792Z" fill="#C1FF36"/>
<path d="M28.7564 5.39763L28.386 5.06455L28.2954 5.43233L28.6615 5.72813L28.7564 5.39763Z" fill="#DEFF19"/>
<path d="M28.876 5.09536L28.5001 4.72608L28.3857 5.06453L28.7561 5.3976L28.876 5.09536Z" fill="#FBF100"/>
<path d="M29.0182 4.8295L28.6357 4.42606L28.5005 4.72602L28.8764 5.0953L29.0182 4.8295Z" fill="#FFD700"/>
<path d="M30.2637 4.42898L29.8183 3.90984L29.6562 3.79399L30.0924 4.31334L30.2637 4.42898Z" fill="#FFA700"/>
<path d="M29.1783 4.60728L28.7882 4.17271L28.6357 4.426L29.0182 4.82944L29.1783 4.60728Z" fill="#FFC100"/>
<path d="M30.0927 4.31339L29.6566 3.79404L29.4844 3.74177L29.911 4.25531L30.0927 4.31339Z" fill="#FF9C00"/>
<path d="M29.3523 4.43476L28.9537 3.97297L28.7881 4.17266L29.1782 4.60722L29.3523 4.43476Z" fill="#FFAE00"/>
<path d="M29.911 4.2553L29.4844 3.74176L29.3066 3.75463L29.7237 4.25644L29.911 4.2553Z" fill="#FF9800"/>
<path d="M29.5361 4.31685L29.1285 3.83244L28.9541 3.97308L29.3527 4.43486L29.5361 4.31685Z" fill="#FF9F00"/>
<path d="M29.724 4.25646L29.3069 3.75465L29.1284 3.83243L29.536 4.31684L29.724 4.25646Z" fill="#FF9800"/>
<path d="M28.742 7.32538L28.5688 7.15109L28.6196 7.48546L28.7939 7.63496L28.742 7.32538Z" fill="#43FFB4"/>
<path d="M28.7197 7.00115L28.5474 6.79877L28.5688 7.15086L28.742 7.32516L28.7197 7.00115Z" fill="#60FF97"/>
<path d="M28.7278 6.67114L28.5558 6.43813L28.5474 6.79891L28.7197 7.00129L28.7278 6.67114Z" fill="#7DFF7A"/>
<path d="M28.766 6.34344L28.594 6.07804L28.5557 6.43813L28.7276 6.67115L28.766 6.34344Z" fill="#9DFF5A"/>
<path d="M28.8339 6.02673L28.6617 5.72807L28.5942 6.07802L28.7662 6.34342L28.8339 6.02673Z" fill="#BAFF3C"/>
<path d="M28.9295 5.72937L28.7565 5.39751L28.6616 5.72804L28.8339 6.0267L28.9295 5.72937Z" fill="#D4FF23"/>
<path d="M29.0508 5.45947L28.8767 5.09539L28.7568 5.39763L28.9298 5.72949L29.0508 5.45947Z" fill="#EEFF09"/>
<path d="M30.756 5.29938L30.5576 4.81849L30.4204 4.59895L30.6161 5.0905L30.756 5.29938Z" fill="#FFDE00"/>
<path d="M29.1938 5.22395L29.0183 4.82947L28.8765 5.09528L29.0506 5.45936L29.1938 5.22395Z" fill="#FFE600"/>
<path d="M30.6161 5.09045L30.4204 4.5989L30.2642 4.42895L30.457 4.92608L30.6161 5.09045Z" fill="#FFCC00"/>
<path d="M29.3559 5.02947L29.1786 4.60733L29.0186 4.8295L29.1941 5.22398L29.3559 5.02947Z" fill="#FFD000"/>
<path d="M30.4569 4.92602L30.264 4.42889L30.0928 4.31326L30.2827 4.81064L30.4569 4.92602Z" fill="#FFB900"/>
<path d="M29.5322 4.88122L29.3528 4.43487L29.1787 4.60731L29.356 5.02945L29.5322 4.88122Z" fill="#FFC100"/>
<path d="M30.2828 4.81071L30.0928 4.31333L29.9111 4.25524L30.0982 4.74751L30.2828 4.81071Z" fill="#FFB200"/>
<path d="M29.7177 4.78326L29.536 4.31683L29.3525 4.43485L29.5319 4.8812L29.7177 4.78326Z" fill="#FFB200"/>
<path d="M30.0985 4.74743L29.9114 4.25516L29.7241 4.25629L29.9084 4.73816L30.0985 4.74743Z" fill="#FFAB00"/>
<path d="M29.9078 4.73818L29.7236 4.25631L29.5356 4.3167L29.7174 4.78313L29.9078 4.73818Z" fill="#FFAE00"/>
<path d="M28.8813 6.04811L28.9296 5.72925L28.834 6.02658L28.7876 6.31703L28.8813 6.04811Z" fill="#CEFF29"/>
<path d="M30.9111 7.72562L30.9799 7.42988L31.0366 7.1101L30.9663 7.43315L30.9111 7.72562Z" fill="#50FFA7"/>
<path d="M30.9663 7.43318L31.0365 7.11013L31.0637 6.78148L30.9923 7.13099L30.9663 7.43318Z" fill="#6AFF8D"/>
<path d="M30.9927 7.13091L31.0641 6.78139L31.0611 6.45231L30.9888 6.82682L30.9927 7.13091Z" fill="#87FF70"/>
<path d="M30.9886 6.8269L31.0609 6.45239L31.0274 6.13142L30.9546 6.52876L30.9886 6.8269Z" fill="#A0FF56"/>
<path d="M30.9549 6.52868L31.0277 6.13134L30.9646 5.8269L30.8916 6.24438L30.9549 6.52868Z" fill="#BEFF39"/>
<path d="M30.8913 6.24433L30.9643 5.82685L30.8731 5.54704L30.8003 5.98137L30.8913 6.24433Z" fill="#D4FF23"/>
<path d="M29.0001 5.80595L29.0506 5.45947L28.9297 5.72948L28.8813 6.04833L29.0001 5.80595Z" fill="#E4FF13"/>
<path d="M30.8005 5.98136L30.8734 5.54703L30.7563 5.29934L30.6841 5.74679L30.8005 5.98136Z" fill="#EBFF0C"/>
<path d="M29.1408 5.59644L29.1938 5.22395L29.0505 5.45939L29 5.80587L29.1408 5.59644Z" fill="#F8F500"/>
<path d="M30.6838 5.747L30.756 5.29955L30.6161 5.09068L30.5449 5.54714L30.6838 5.747Z" fill="#FEED00"/>
<path d="M29.2999 5.42566L29.3555 5.02942L29.1936 5.22391L29.1406 5.5964L29.2999 5.42566Z" fill="#FFDE00"/>
<path d="M30.5449 5.54703L30.6161 5.09056L30.457 4.92617L30.3872 5.38729L30.5449 5.54703Z" fill="#FFDB00"/>
<path d="M29.4738 5.29822L29.532 4.8812L29.3559 5.02943L29.3003 5.42568L29.4738 5.29822Z" fill="#FFD000"/>
<path d="M30.3872 5.38722L30.457 4.9261L30.2828 4.81072L30.2148 5.2719L30.3872 5.38722Z" fill="#FFCC00"/>
<path d="M29.6568 5.21759L29.7177 4.78329L29.5319 4.88122L29.4736 5.29825L29.6568 5.21759Z" fill="#FFC400"/>
<path d="M30.2147 5.27192L30.2827 4.81074L30.0981 4.74754L30.0322 5.20421L30.2147 5.27192Z" fill="#FFC400"/>
<path d="M29.8447 5.18609L29.9082 4.73844L29.7177 4.78339L29.6567 5.21769L29.8447 5.18609Z" fill="#FFC100"/>
<path d="M30.0324 5.2043L30.0983 4.74763L29.9082 4.73837L29.8447 5.18603L30.0324 5.2043Z" fill="#FFBD00"/>
<path d="M29.9629 8.98151L30.2745 8.80162L30.4396 8.6574L30.1228 8.85521L29.9629 8.98151Z" fill="#00D4FF"/>
<path d="M30.1226 8.85522L30.4394 8.65742L30.5892 8.4727L30.2675 8.6903L30.1226 8.85522Z" fill="#00E4F8"/>
<path d="M30.2676 8.69022L30.5893 8.47262L30.72 8.25196L30.3938 8.49075L30.2676 8.69022Z" fill="#0FF8E7"/>
<path d="M30.394 8.49082L30.7202 8.25204L30.8284 8.00093L30.4984 8.26177L30.394 8.49082Z" fill="#26FFD1"/>
<path d="M30.498 8.26167L30.828 8.00083L30.9109 7.72556L30.5777 8.00879L30.498 8.26167Z" fill="#3CFFBA"/>
<path d="M30.5776 8.00881L30.9108 7.72558L30.966 7.43311L30.6304 7.7385L30.5776 8.00881Z" fill="#53FFA4"/>
<path d="M30.6304 7.73862L30.966 7.43323L30.9921 7.13105L30.6547 7.45785L30.6304 7.73862Z" fill="#6DFF8A"/>
<path d="M30.6547 7.45774L30.992 7.13093L30.9881 6.82682L30.6499 7.17373L30.6547 7.45774Z" fill="#87FF70"/>
<path d="M30.6501 7.17367L30.9883 6.82676L30.9543 6.52862L30.6162 6.8938L30.6501 7.17367Z" fill="#A0FF56"/>
<path d="M30.616 6.89394L30.9541 6.52876L30.8908 6.24446L30.5537 6.62562L30.616 6.89394Z" fill="#B7FF40"/>
<path d="M30.5539 6.62548L30.891 6.24432L30.8 5.98138L30.4648 6.37583L30.5539 6.62548Z" fill="#CEFF29"/>
<path d="M30.4648 6.3758L30.8 5.98135L30.6835 5.74679L30.3511 6.15142L30.4648 6.3758Z" fill="#E4FF13"/>
<path d="M29.0092 5.78485L29.2999 5.42559L29.1407 5.59634L28.8555 5.93606L29.0092 5.78485Z" fill="#FEED00"/>
<path d="M30.3511 6.15157L30.6836 5.74694L30.5447 5.54708L30.2158 5.9585L30.3511 6.15157Z" fill="#F4F802"/>
<path d="M29.1769 5.67475L29.4734 5.2983L29.3 5.42575L29.0093 5.785L29.1769 5.67475Z" fill="#FFDE00"/>
<path d="M30.2159 5.95852L30.5448 5.54711L30.3871 5.38736L30.0625 5.80201L30.2159 5.95852Z" fill="#FFE600"/>
<path d="M29.3539 5.60858L29.6564 5.21768L29.4733 5.29833L29.1768 5.67478L29.3539 5.60858Z" fill="#FFD300"/>
<path d="M30.0625 5.8019L30.3871 5.38725L30.2147 5.27194L29.895 5.68613L30.0625 5.8019Z" fill="#FFDB00"/>
<path d="M29.536 5.58806L29.8444 5.18589L29.6565 5.21751L29.354 5.60841L29.536 5.58806Z" fill="#FFD000"/>
<path d="M29.8948 5.68603L30.2145 5.27184L30.032 5.20412L29.7178 5.61409L29.8948 5.68603Z" fill="#FFD000"/>
<path d="M29.7181 5.61435L30.0323 5.20438L29.8446 5.1861L29.5361 5.58826L29.7181 5.61435Z" fill="#FFCC00"/>
<path d="M29.2593 9.24361L29.7923 9.06591L29.963 8.98131L29.4227 9.17156L29.2593 9.24361Z" fill="#00D0FF"/>
<path d="M29.4229 9.17166L29.9631 8.9814L30.123 8.8551L29.5757 9.05952L29.4229 9.17166Z" fill="#00DCFE"/>
<path d="M29.5757 9.05953L30.1229 8.8551L30.2679 8.69018L29.7142 8.91004L29.5757 9.05953Z" fill="#06ECF1"/>
<path d="M29.7144 8.91013L30.2681 8.69027L30.3943 8.4908L29.8349 8.72697L29.7144 8.91013Z" fill="#19FFDE"/>
<path d="M29.8345 8.72692L30.394 8.49074L30.4983 8.26169L29.9338 8.51465L29.8345 8.72692Z" fill="#29FFCE"/>
<path d="M29.9341 8.51452L30.4986 8.26156L30.5782 8.00868L30.0096 8.27849L29.9341 8.51452Z" fill="#40FFB7"/>
<path d="M30.0098 8.27872L30.5783 8.00891L30.631 7.73862L30.0595 8.02492L30.0098 8.27872Z" fill="#56FFA0"/>
<path d="M30.0591 8.02471L30.6306 7.73841L30.655 7.45763L30.0815 7.75964L30.0591 8.02471Z" fill="#6DFF8A"/>
<path d="M30.0817 7.75972L30.6551 7.45771L30.6504 7.17369L30.0762 7.49026L30.0817 7.75972Z" fill="#87FF70"/>
<path d="M30.0764 7.49039L30.6506 7.17381L30.6167 6.89396L30.043 7.22357L30.0764 7.49039Z" fill="#9DFF5A"/>
<path d="M30.0425 7.22338L30.6163 6.89377L30.554 6.62545L29.9819 6.96621L30.0425 7.22338Z" fill="#B4FF43"/>
<path d="M29.9822 6.96619L30.5543 6.62543L30.4652 6.37575L29.896 6.72553L29.9822 6.96619Z" fill="#CAFF2C"/>
<path d="M29.8959 6.72576L30.4651 6.37599L30.3514 6.15161L29.7861 6.50798L29.8959 6.72576Z" fill="#DEFF19"/>
<path d="M29.7861 6.50787L30.3513 6.1515L30.216 5.95845L29.6558 6.31877L29.7861 6.50787Z" fill="#EEFF09"/>
<path d="M28.8295 5.94784L29.3544 5.60841L29.1772 5.67463L28.6602 6.00236L28.8295 5.94784Z" fill="#FFDE00"/>
<path d="M29.6558 6.31888L30.216 5.95855L30.0626 5.80202L29.5083 6.16362L29.6558 6.31888Z" fill="#FBF100"/>
<path d="M29.0037 5.93685L29.5364 5.588L29.3545 5.60835L28.8296 5.94779L29.0037 5.93685Z" fill="#FFDB00"/>
<path d="M29.5084 6.1634L30.0627 5.80181L29.8953 5.68603L29.3477 6.04612L29.5084 6.1634Z" fill="#FFE600"/>
<path d="M29.1777 5.97009L29.7181 5.61427L29.5361 5.58816L29.0034 5.93701L29.1777 5.97009Z" fill="#FFD700"/>
<path d="M29.3475 6.04608L29.8952 5.68599L29.7181 5.61408L29.1777 5.9699L29.3475 6.04608Z" fill="#FFDB00"/>
<path d="M28.5371 9.43694L29.259 9.24363L29.4224 9.17159L28.6924 9.37464L28.5371 9.43694Z" fill="#00D8FF"/>
<path d="M28.6929 9.37481L29.4228 9.17175L29.5757 9.05962L28.8381 9.27323L28.6929 9.37481Z" fill="#00E4F8"/>
<path d="M28.8379 9.27308L29.5755 9.05948L29.714 8.90999L28.9693 9.13468L28.8379 9.27308Z" fill="#0CF4EB"/>
<path d="M28.9692 9.13467L29.714 8.90998L29.8345 8.72682L29.0834 8.96287L28.9692 9.13467Z" fill="#1CFFDB"/>
<path d="M29.0835 8.96301L29.8346 8.72697L29.934 8.51471L29.1774 8.76207L29.0835 8.96301Z" fill="#2CFFCA"/>
<path d="M29.1772 8.76189L29.9338 8.51453L30.0094 8.2785L29.2484 8.53687L29.1772 8.76189Z" fill="#43FFB4"/>
<path d="M29.248 8.53707L30.009 8.2787L30.0587 8.0249L29.2945 8.2937L29.248 8.53707Z" fill="#56FFA0"/>
<path d="M29.2949 8.29375L30.0591 8.02495L30.0816 7.75989L29.3154 8.03828L29.2949 8.29375Z" fill="#6DFF8A"/>
<path d="M29.3153 8.038L30.0815 7.75961L30.0759 7.49016L29.3091 7.77705L29.3153 8.038Z" fill="#83FF73"/>
<path d="M29.3091 7.77706L30.076 7.49017L30.0426 7.22335L29.2764 7.51747L29.3091 7.77706Z" fill="#9AFF5D"/>
<path d="M29.2764 7.51756L30.0426 7.22344L29.982 6.96628L29.2178 7.26612L29.2764 7.51756Z" fill="#B1FF46"/>
<path d="M29.2177 7.26615L29.9819 6.96631L29.8957 6.72563L29.1348 7.02957L29.2177 7.26615Z" fill="#C4FF33"/>
<path d="M29.135 7.02948L29.8959 6.72553L29.7862 6.50774L29.0298 6.81406L29.135 7.02948Z" fill="#D7FF1F"/>
<path d="M28.1174 6.23133L28.8291 5.94804L28.6597 6.00257L27.9565 6.27665L28.1174 6.23133Z" fill="#FFE600"/>
<path d="M29.03 6.81419L29.7864 6.50787L29.656 6.31881L28.9053 6.62567L29.03 6.81419Z" fill="#E7FF0F"/>
<path d="M28.2832 6.22815L29.0035 5.93692L28.8294 5.94783L28.1177 6.23112L28.2832 6.22815Z" fill="#FFE200"/>
<path d="M28.9051 6.62578L29.6558 6.31891L29.5083 6.16365L28.7642 6.46924L28.9051 6.62578Z" fill="#F4F802"/>
<path d="M28.4486 6.26773L29.1773 5.97006L29.003 5.937L28.2827 6.22823L28.4486 6.26773Z" fill="#FFE200"/>
<path d="M28.7637 6.46915L29.5079 6.16356L29.3471 6.04626L28.6104 6.34879L28.7637 6.46915Z" fill="#FEED00"/>
<path d="M28.611 6.34865L29.3477 6.04613L29.178 5.96994L28.4492 6.26761L28.611 6.34865Z" fill="#FFE200"/>
<path d="M27.6768 9.64932L28.5375 9.43699L28.6928 9.37469L27.8237 9.59427L27.6768 9.64932Z" fill="#00DCFE"/>
<path d="M27.8237 9.59443L28.6929 9.37485L28.8381 9.27327L27.961 9.50001L27.8237 9.59443Z" fill="#02E8F4"/>
<path d="M27.9609 9.49993L28.838 9.27319L28.9694 9.1348L28.085 9.36841L27.9609 9.49993Z" fill="#0FF8E7"/>
<path d="M28.085 9.36844L28.9694 9.13483L29.0835 8.96302L28.1925 9.20306L28.085 9.36844Z" fill="#1FFFD7"/>
<path d="M28.1929 9.20286L29.0839 8.96281L29.1778 8.76186L28.2812 9.00772L28.1929 9.20286Z" fill="#30FFC7"/>
<path d="M28.2808 9.0078L29.1774 8.76195L29.2485 8.53693L28.3474 8.78782L28.2808 9.0078Z" fill="#43FFB4"/>
<path d="M28.3477 8.78789L29.2488 8.53699L29.2953 8.29362L28.3909 8.54867L28.3477 8.78789Z" fill="#5AFF9D"/>
<path d="M28.3906 8.54862L29.295 8.29357L29.3155 8.0381L28.4091 8.29631L28.3906 8.54862Z" fill="#6DFF8A"/>
<path d="M28.4091 8.29635L29.3155 8.03814L29.3093 7.77719L28.4023 8.03749L28.4091 8.29635Z" fill="#83FF73"/>
<path d="M28.4026 8.03742L29.3096 7.77712L29.2768 7.51751L28.3706 7.77879L28.4026 8.03742Z" fill="#9AFF5D"/>
<path d="M28.3704 7.77878L29.2767 7.51751L29.2181 7.26608L28.314 7.5272L28.3704 7.77878Z" fill="#B1FF46"/>
<path d="M28.3139 7.52738L29.218 7.26626L29.135 7.02968L28.2344 7.28952L28.3139 7.52738Z" fill="#C4FF33"/>
<path d="M28.2343 7.28955L29.1349 7.02971L29.0297 6.81429L28.1338 7.07176L28.2343 7.28955Z" fill="#D7FF1F"/>
<path d="M27.4248 6.46047L28.2834 6.22812L28.1179 6.2311L27.2681 6.45664L27.4248 6.46047Z" fill="#FFE600"/>
<path d="M28.134 7.07166L29.0299 6.81418L28.9052 6.62567L28.0151 6.87977L28.134 7.07166Z" fill="#E4FF13"/>
<path d="M27.5815 6.50642L28.4489 6.26766L28.283 6.22814L27.4243 6.46049L27.5815 6.50642Z" fill="#FFE600"/>
<path d="M28.0149 6.87978L28.905 6.62569L28.7641 6.46915L27.8809 6.71892L28.0149 6.87978Z" fill="#F1FC06"/>
<path d="M27.7351 6.59341L28.6107 6.34879L28.4489 6.26777L27.5815 6.50653L27.7351 6.59341Z" fill="#FFE600"/>
<path d="M27.8811 6.71882L28.7643 6.46905L28.611 6.34867L27.7354 6.59329L27.8811 6.71882Z" fill="#FEED00"/>
<path d="M26.9719 9.77533L27.8937 9.55202L27.7512 9.62698L26.8281 9.85124L26.9719 9.77533Z" fill="#00E4F8"/>
<path d="M27.1042 9.66032L28.025 9.43855L27.894 9.55186L26.9722 9.77516L27.1042 9.66032Z" fill="#0CF4EB"/>
<path d="M27.2208 9.50947L28.141 9.28979L28.0249 9.4387L27.104 9.66047L27.2208 9.50947Z" fill="#19FFDE"/>
<path d="M27.3192 9.32597L28.2392 9.10888L28.1409 9.28971L27.2207 9.50939L27.3192 9.32597Z" fill="#29FFCE"/>
<path d="M27.3969 9.11473L28.3171 8.90067L28.2393 9.10889L27.3193 9.32598L27.3969 9.11473Z" fill="#3CFFBA"/>
<path d="M27.4516 8.88095L28.3722 8.6703L28.3171 8.90063L27.397 9.11469L27.4516 8.88095Z" fill="#53FFA4"/>
<path d="M27.4817 8.6307L28.4032 8.42373L28.3723 8.67029L27.4517 8.88094L27.4817 8.6307Z" fill="#66FF90"/>
<path d="M27.4861 8.37033L28.4088 8.16722L28.4029 8.42365L27.4814 8.63062L27.4861 8.37033Z" fill="#7DFF7A"/>
<path d="M27.4653 8.10678L28.3895 7.90762L28.4089 8.16722L27.4863 8.37033L27.4653 8.10678Z" fill="#94FF63"/>
<path d="M27.4189 7.847L28.3449 7.65177L28.3893 7.90772L27.4651 8.10688L27.4189 7.847Z" fill="#AAFF4D"/>
<path d="M27.3486 7.59761L28.2766 7.40619L28.3448 7.65172L27.4188 7.84695L27.3486 7.59761Z" fill="#BEFF39"/>
<path d="M27.2563 7.36556L28.1865 7.17771L28.2767 7.40629L27.3488 7.59772L27.2563 7.36556Z" fill="#D1FF26"/>
<path d="M26.4023 6.62924L27.3459 6.45322L27.5034 6.47818L26.5618 6.65472L26.4023 6.62924Z" fill="#FFE200"/>
<path d="M27.144 7.15663L28.0765 6.97202L28.1865 7.17754L27.2564 7.3654L27.144 7.15663Z" fill="#E1FF16"/>
<path d="M26.5615 6.65496L27.5031 6.47842L27.659 6.54504L26.7196 6.72273L26.5615 6.65496Z" fill="#FFE600"/>
<path d="M27.0151 6.97688L27.9499 6.7951L28.0768 6.97207L27.1444 7.15668L27.0151 6.97688Z" fill="#EEFF09"/>
<path d="M26.7197 6.72258L27.6592 6.54489L27.8093 6.65144L26.8721 6.8309L26.7197 6.72258Z" fill="#FFEA00"/>
<path d="M26.8721 6.83095L27.8092 6.65149L27.9496 6.79517L27.0148 6.97696L26.8721 6.83095Z" fill="#FBF100"/>
<path d="M26.0412 10.023L26.9721 9.77535L26.8283 9.85126L25.8926 10.1017L26.0412 10.023Z" fill="#00E0FB"/>
<path d="M26.1767 9.90363L27.1034 9.66037L26.9714 9.77522L26.0405 10.0229L26.1767 9.90363Z" fill="#09F0EE"/>
<path d="M26.2975 9.74672L27.2208 9.50929L27.104 9.66029L26.1772 9.90355L26.2975 9.74672Z" fill="#16FFE1"/>
<path d="M26.3985 9.55629L27.3192 9.32602L27.2206 9.50944L26.2974 9.74687L26.3985 9.55629Z" fill="#29FFCE"/>
<path d="M26.4778 9.33666L27.3967 9.11471L27.3191 9.32596L26.3984 9.55623L26.4778 9.33666Z" fill="#3CFFBA"/>
<path d="M26.533 9.09363L27.451 8.88094L27.3964 9.11467L26.4775 9.33663L26.533 9.09363Z" fill="#50FFA7"/>
<path d="M26.5631 8.83355L27.4814 8.63084L27.4513 8.88109L26.5332 9.09378L26.5631 8.83355Z" fill="#66FF90"/>
<path d="M26.5665 8.56278L27.4859 8.37051L27.4812 8.6308L26.563 8.83351L26.5665 8.56278Z" fill="#7DFF7A"/>
<path d="M26.5435 8.28854L27.4649 8.10689L27.4859 8.37044L26.5665 8.56272L26.5435 8.28854Z" fill="#94FF63"/>
<path d="M26.4941 8.01806L27.4186 7.84695L27.4648 8.10683L26.5433 8.28848L26.4941 8.01806Z" fill="#AAFF4D"/>
<path d="M26.4204 7.75856L27.3487 7.59759L27.4189 7.84692L26.4945 8.01804L26.4204 7.75856Z" fill="#C1FF36"/>
<path d="M26.3232 7.51698L27.2561 7.3655L27.3486 7.59765L26.4203 7.75863L26.3232 7.51698Z" fill="#D4FF23"/>
<path d="M25.4341 6.75032L26.4021 6.62936L26.5615 6.65484L25.5995 6.77693L25.4341 6.75032Z" fill="#FFDE00"/>
<path d="M26.2056 7.29967L27.1436 7.15675L27.256 7.36552L26.3231 7.51701L26.2056 7.29967Z" fill="#E4FF13"/>
<path d="M25.5996 6.77691L26.5617 6.65482L26.7197 6.72259L25.7638 6.84755L25.5996 6.77691Z" fill="#FFDE00"/>
<path d="M26.0708 7.11241L27.0146 6.9769L27.1438 7.15669L26.2057 7.29961L26.0708 7.11241Z" fill="#F1FC06"/>
<path d="M25.7637 6.84771L26.7196 6.72276L26.872 6.83108L25.9222 6.96055L25.7637 6.84771Z" fill="#FFE600"/>
<path d="M25.9224 6.96041L26.8721 6.83094L27.0148 6.97694L26.0711 7.11245L25.9224 6.96041Z" fill="#FEED00"/>
<path d="M25.0011 10.3793L25.8924 10.1017L25.7352 10.138L24.835 10.4176L25.0011 10.3793Z" fill="#00CCFF"/>
<path d="M25.1578 10.2958L26.0409 10.0227L25.8923 10.1015L25.001 10.3791L25.1578 10.2958Z" fill="#00D8FF"/>
<path d="M25.3012 10.1695L26.177 9.90353L26.0408 10.0228L25.1577 10.2958L25.3012 10.1695Z" fill="#02E8F4"/>
<path d="M25.4277 10.0033L26.2973 9.7468L26.1771 9.90363L25.3013 10.1696L25.4277 10.0033Z" fill="#13FCE4"/>
<path d="M25.5338 9.80134L26.3985 9.55636L26.2973 9.74694L25.4277 10.0035L25.5338 9.80134Z" fill="#23FFD4"/>
<path d="M25.6166 9.56813L26.4777 9.33656L26.3983 9.55612L25.5337 9.8011L25.6166 9.56813Z" fill="#39FFBE"/>
<path d="M25.6742 9.31037L26.5332 9.09372L26.4778 9.33672L25.6167 9.56829L25.6742 9.31037Z" fill="#50FFA7"/>
<path d="M25.7047 9.03411L26.5633 8.83353L26.5334 9.09375L25.6743 9.3104L25.7047 9.03411Z" fill="#66FF90"/>
<path d="M25.707 8.74658L26.5667 8.5628L26.5631 8.83353L25.7046 9.03411L25.707 8.74658Z" fill="#7DFF7A"/>
<path d="M25.6812 8.45529L26.5435 8.2886L26.5665 8.56277L25.7069 8.74655L25.6812 8.45529Z" fill="#97FF60"/>
<path d="M25.6279 8.16776L26.4945 8.01799L26.5436 8.2884L25.6813 8.45509L25.6279 8.16776Z" fill="#ADFF49"/>
<path d="M25.5483 7.89207L26.4205 7.75861L26.4945 8.01809L25.628 8.16786L25.5483 7.89207Z" fill="#C4FF33"/>
<path d="M25.4443 7.63518L26.3234 7.51694L26.4204 7.75858L25.5483 7.89205L25.4443 7.63518Z" fill="#D7FF1F"/>
<path d="M24.499 6.81997L25.4343 6.75043L25.5997 6.77704L24.6743 6.84832L24.499 6.81997Z" fill="#FFD700"/>
<path d="M25.3188 7.40428L26.2059 7.29978L26.3234 7.51711L25.4444 7.63535L25.3188 7.40428Z" fill="#EBFF0C"/>
<path d="M24.6743 6.84829L25.5997 6.77702L25.7639 6.84765L24.8485 6.92345L24.6743 6.84829Z" fill="#FFD700"/>
<path d="M25.1748 7.20518L26.0707 7.11254L26.2057 7.29974L25.3186 7.40424L25.1748 7.20518Z" fill="#F8F500"/>
<path d="M24.8481 6.92343L25.7635 6.84763L25.9221 6.96047L25.0166 7.04345L24.8481 6.92343Z" fill="#FFDB00"/>
<path d="M25.0171 7.04335L25.9226 6.96037L26.0713 7.11242L25.1753 7.20505L25.0171 7.04335Z" fill="#FFE600"/>
<path d="M22.1562 11.1899L22.7438 10.8658L22.555 10.7027L21.9492 11.011L22.1562 11.1899Z" fill="#00A0FF"/>
<path d="M21.9493 11.011L22.5551 10.7027L22.3797 10.4949L21.7568 10.7832L21.9493 11.011Z" fill="#00B0FF"/>
<path d="M22.3726 11.3153L22.9413 10.98L22.7438 10.8657L22.1562 11.1897L22.3726 11.3153Z" fill="#0094FF"/>
<path d="M21.7567 10.783L22.3795 10.4946L22.222 10.2473L21.5835 10.512L21.7567 10.783Z" fill="#00C4FF"/>
<path d="M22.5928 11.3843L23.1426 11.0428L22.9413 10.9801L22.3726 11.3154L22.5928 11.3843Z" fill="#0094FF"/>
<path d="M21.5836 10.5122L22.222 10.2475L22.0863 9.96684L21.4341 10.2046L21.5836 10.5122Z" fill="#00E0FB"/>
<path d="M22.8115 11.3951L23.3425 11.0522L23.1425 11.0429L22.5928 11.3845L22.8115 11.3951Z" fill="#0094FF"/>
<path d="M21.4341 10.2045L22.0862 9.96668L21.9757 9.65955L21.312 9.86791L21.4341 10.2045Z" fill="#13FCE4"/>
<path d="M23.0233 11.3468L23.5362 11.0078L23.3425 11.0522L22.8115 11.395L23.0233 11.3468Z" fill="#009CFF"/>
<path d="M21.3121 9.8681L21.9758 9.65974L21.8934 9.33383L21.2207 9.51091L21.3121 9.8681Z" fill="#30FFC7"/>
<path d="M23.2228 11.2407L23.7189 10.9106L23.5364 11.0078L23.0234 11.3468L23.2228 11.2407Z" fill="#00ACFF"/>
<path d="M21.2204 9.51063L21.8931 9.33354L21.841 8.997L21.1621 9.14172L21.2204 9.51063Z" fill="#49FFAD"/>
<path d="M21.1623 9.14189L21.8412 8.99718L21.8208 8.65853L21.1387 8.77058L21.1623 9.14189Z" fill="#6AFF8D"/>
<path d="M21.1387 8.77056L21.8208 8.65851L21.8329 8.32639L21.1506 8.4063L21.1387 8.77056Z" fill="#87FF70"/>
<path d="M21.1504 8.40617L21.8328 8.32625L21.8772 8.00921L21.1978 8.05833L21.1504 8.40617Z" fill="#A7FF50"/>
<path d="M21.1978 8.05853L21.8772 8.0094L21.953 7.71575L21.2795 7.73623L21.1978 8.05853Z" fill="#C4FF33"/>
<path d="M21.2798 7.73603L21.9533 7.71555L22.0587 7.45302L21.3941 7.44779L21.2798 7.73603Z" fill="#DEFF19"/>
<path d="M21.394 7.44792L22.0586 7.45315L22.191 7.22879L21.5381 7.20151L21.394 7.44792Z" fill="#F8F500"/>
<path d="M21.5381 7.20142L22.191 7.22871L22.3471 7.04864L21.7083 7.00357L21.5381 7.20142Z" fill="#FFDB00"/>
<path d="M21.708 7.00376L22.3468 7.04883L22.5226 6.91803L21.9 6.85998L21.708 7.00376Z" fill="#FFC800"/>
<path d="M21.9004 6.85985L22.523 6.9179L22.7138 6.84007L22.1091 6.77425L21.9004 6.85985Z" fill="#FFB900"/>
<path d="M22.1089 6.77431L22.7136 6.84014L22.9145 6.81757L22.3289 6.74943L22.1089 6.77431Z" fill="#FFAE00"/>
<path d="M21.7214 11.5152L22.1567 11.1899L21.9497 11.011L21.4941 11.3188L21.7214 11.5152Z" fill="#008CFF"/>
<path d="M21.4942 11.3187L21.9497 11.0109L21.7573 10.7832L21.2827 11.0688L21.4942 11.3187Z" fill="#009CFF"/>
<path d="M21.9585 11.6531L22.3728 11.3153L22.1565 11.1897L21.7212 11.5151L21.9585 11.6531Z" fill="#0080FF"/>
<path d="M21.2823 11.0688L21.7568 10.7832L21.5836 10.5122L21.0918 10.7714L21.2823 11.0688Z" fill="#00B4FF"/>
<path d="M22.2 11.7291L22.5931 11.3842L22.3728 11.3152L21.9585 11.653L22.2 11.7291Z" fill="#007CFF"/>
<path d="M21.0919 10.7714L21.5838 10.5122L21.4343 10.2046L20.9272 10.4339L21.0919 10.7714Z" fill="#00D0FF"/>
<path d="M22.44 11.7412L22.812 11.3949L22.5932 11.3843L22.2002 11.7292L22.44 11.7412Z" fill="#007CFF"/>
<path d="M20.9272 10.4339L21.4342 10.2046L21.3122 9.86804L20.7925 10.0646L20.9272 10.4339Z" fill="#09F0EE"/>
<path d="M22.672 11.6886L23.0237 11.3466L22.8119 11.3948L22.4399 11.7411L22.672 11.6886Z" fill="#0088FF"/>
<path d="M20.7927 10.0646L21.3124 9.86807L21.221 9.51089L20.6914 9.67257L20.7927 10.0646Z" fill="#26FFD1"/>
<path d="M22.8903 11.5728L23.223 11.2406L23.0236 11.3466L22.6719 11.6887L22.8903 11.5728Z" fill="#0098FF"/>
<path d="M20.6915 9.67245L21.2211 9.51078L21.1628 9.14187L20.6265 9.26746L20.6915 9.67245Z" fill="#46FFB1"/>
<path d="M23.0894 11.3959L23.4047 11.079L23.2228 11.2405L22.8901 11.5727L23.0894 11.3959Z" fill="#00ACFF"/>
<path d="M20.6262 9.26759L21.1625 9.142L21.1389 8.7707L20.5991 8.85985L20.6262 9.26759Z" fill="#66FF90"/>
<path d="M20.5991 8.85984L21.1389 8.77069L21.1508 8.40644L20.611 8.4597L20.5991 8.85984Z" fill="#8AFF6D"/>
<path d="M20.6108 8.45962L21.1507 8.40635L21.198 8.05851L20.6616 8.07736L20.6108 8.45962Z" fill="#AAFF4D"/>
<path d="M20.6616 8.07729L21.198 8.05845L21.2798 7.73615L20.7502 7.72296L20.6616 8.07729Z" fill="#CAFF2C"/>
<path d="M20.7505 7.72302L21.28 7.7362L21.3943 7.44796L20.875 7.40599L20.7505 7.72302Z" fill="#E7FF0F"/>
<path d="M20.875 7.40601L21.3943 7.44798L21.5384 7.20156L21.0323 7.13485L20.875 7.40601Z" fill="#FFE600"/>
<path d="M21.0322 7.13465L21.5383 7.20136L21.7085 7.00351L21.2184 6.91684L21.0322 7.13465Z" fill="#FFCC00"/>
<path d="M21.2188 6.91705L21.7089 7.00373L21.9008 6.85995L21.4291 6.75867L21.2188 6.91705Z" fill="#FFB600"/>
<path d="M21.4287 6.75869L21.9005 6.85997L22.1092 6.77437L21.6577 6.66432L21.4287 6.75869Z" fill="#FFA300"/>
<path d="M21.6577 6.6642L22.1093 6.77425L22.3293 6.74937L21.8993 6.63667L21.6577 6.6642Z" fill="#FF9800"/>
<path d="M21.8994 6.63675L22.3294 6.74945L22.5549 6.78617L22.1472 6.67706L21.8994 6.63675Z" fill="#FF9400"/>
<path d="M22.147 6.67692L22.5547 6.78603L22.7795 6.88354L22.3942 6.78419L22.147 6.67692Z" fill="#FF9400"/>
<path d="M21.4326 11.8285L21.7211 11.5151L21.4939 11.3187L21.1836 11.6132L21.4326 11.8285Z" fill="#0074FF"/>
<path d="M21.184 11.6132L21.4943 11.3187L21.2828 11.0687L20.9521 11.3394L21.184 11.6132Z" fill="#0084FF"/>
<path d="M21.6926 11.9799L21.9585 11.6532L21.7212 11.5152L21.4326 11.8286L21.6926 11.9799Z" fill="#0068FF"/>
<path d="M20.9521 11.3393L21.2828 11.0686L21.0923 10.7712L20.7432 11.0135L20.9521 11.3393Z" fill="#00A0FF"/>
<path d="M21.9569 12.0634L22.1999 11.7291L21.9583 11.6531L21.6924 11.9798L21.9569 12.0634Z" fill="#0064FF"/>
<path d="M20.7429 11.0136L21.0921 10.7713L20.9274 10.4337L20.562 10.6439L20.7429 11.0136Z" fill="#00C0FF"/>
<path d="M22.2196 12.077L22.4398 11.7411L22.2 11.7291L21.957 12.0634L22.2196 12.077Z" fill="#0064FF"/>
<path d="M20.5623 10.644L20.9277 10.4338L20.793 10.0645L20.4141 10.2394L20.5623 10.644Z" fill="#00E4F8"/>
<path d="M22.4737 12.0201L22.672 11.6887L22.44 11.7411L22.2197 12.0771L22.4737 12.0201Z" fill="#0070FF"/>
<path d="M20.4139 10.2394L20.7928 10.0644L20.6916 9.67241L20.3022 9.80993L20.4139 10.2394Z" fill="#1FFFD7"/>
<path d="M22.7127 11.8938L22.8903 11.573L22.6719 11.6889L22.4736 12.0203L22.7127 11.8938Z" fill="#0080FF"/>
<path d="M20.3022 9.81L20.6915 9.67248L20.6264 9.26751L20.23 9.36621L20.3022 9.81Z" fill="#40FFB7"/>
<path d="M22.931 11.7005L23.0897 11.396L22.8905 11.5728L22.7129 11.8937L22.931 11.7005Z" fill="#0098FF"/>
<path d="M20.2298 9.36614L20.6263 9.26743L20.5992 8.85969L20.1992 8.91916L20.2298 9.36614Z" fill="#66FF90"/>
<path d="M23.1226 11.445L23.2648 11.1625L23.0899 11.396L22.9312 11.7005L23.1226 11.445Z" fill="#00B4FF"/>
<path d="M20.1992 8.91908L20.5992 8.85961L20.6111 8.45947L20.2113 8.48026L20.1992 8.91908Z" fill="#8AFF6D"/>
<path d="M20.2114 8.48042L20.6112 8.45962L20.662 8.07739L20.2661 8.06107L20.2114 8.48042Z" fill="#ADFF49"/>
<path d="M20.2661 8.06111L20.662 8.07744L20.7506 7.72309L20.3624 7.67218L20.2661 8.06111Z" fill="#D1FF26"/>
<path d="M20.3623 7.67215L20.7506 7.72307L20.875 7.40603L20.4979 7.32399L20.3623 7.67215Z" fill="#F4F802"/>
<path d="M20.498 7.32393L20.8751 7.40598L21.0324 7.13483L20.6698 7.02601L20.498 7.32393Z" fill="#FFD700"/>
<path d="M20.6699 7.026L21.0325 7.13482L21.2187 6.917L20.8735 6.78654L20.6699 7.026Z" fill="#FFB900"/>
<path d="M20.8735 6.78644L21.2187 6.91691L21.429 6.75853L21.1038 6.6122L20.8735 6.78644Z" fill="#FF9F00"/>
<path d="M21.1035 6.61219L21.4287 6.75852L21.6577 6.66414L21.3545 6.50824L21.1035 6.61219Z" fill="#FF8D00"/>
<path d="M21.3545 6.50844L21.6577 6.66434L21.8993 6.63681L21.6195 6.47796L21.3545 6.50844Z" fill="#FF8200"/>
<path d="M21.6196 6.47781L21.8994 6.63666L22.1472 6.67697L21.8916 6.52193L21.6196 6.47781Z" fill="#FF7A00"/>
<path d="M21.8916 6.52203L22.1472 6.67706L22.3945 6.78434L22.1631 6.6398L21.8916 6.52203Z" fill="#FF7E00"/>
<path d="M23.2647 11.1624L23.565 10.8659L23.4052 11.079L23.0898 11.396L23.2647 11.1624Z" fill="#00C8FF"/>
<path d="M21.2182 12.5414L21.2119 12.3573L20.9174 12.1027L20.9014 12.2674L21.2182 12.5414Z" fill="#0028FF"/>
<path d="M20.9017 12.2675L20.9177 12.1028L20.6434 11.779L20.6064 11.9192L20.9017 12.2675Z" fill="#0040FF"/>
<path d="M21.549 12.7347L21.5193 12.5369L21.2119 12.3576L21.2182 12.5416L21.549 12.7347Z" fill="#0018FF"/>
<path d="M20.6062 11.9192L20.6432 11.7791L20.3957 11.3942L20.3398 11.5051L20.6062 11.9192Z" fill="#0060FF"/>
<path d="M21.8858 12.8419L21.8323 12.6363L21.5195 12.5368L21.5492 12.7346L21.8858 12.8419Z" fill="#0010FF"/>
<path d="M20.3403 11.5051L20.3961 11.3942L20.1816 10.9573L20.1094 11.0351L20.3403 11.5051Z" fill="#0088FF"/>
<path d="M22.2199 12.8607L22.1425 12.6535L21.832 12.6365L21.8856 12.8421L22.2199 12.8607Z" fill="#0014FF"/>
<path d="M20.1091 11.035L20.1814 10.9572L20.0053 10.4789L19.9194 10.5203L20.1091 11.035Z" fill="#00B4FF"/>
<path d="M22.5436 12.7896L22.4431 12.587L22.1426 12.6534L22.2199 12.8606L22.5436 12.7896Z" fill="#0020FF"/>
<path d="M19.9194 10.5203L20.0052 10.4789L19.8721 9.97091L19.7759 9.97352L19.9194 10.5203Z" fill="#02E8F4"/>
<path d="M22.8488 12.6301L22.7264 12.4384L22.4434 12.5869L22.5438 12.7895L22.8488 12.6301Z" fill="#0038FF"/>
<path d="M19.7756 9.97357L19.8718 9.97095L19.7853 9.44571L19.6821 9.40801L19.7756 9.97357Z" fill="#30FFC7"/>
<path d="M23.1271 12.3859L22.9845 12.2112L22.7261 12.4386L22.8485 12.6303L23.1271 12.3859Z" fill="#0054FF"/>
<path d="M19.6823 9.40804L19.7854 9.44574L19.7479 8.91631L19.6416 8.83774L19.6823 9.40804Z" fill="#60FF97"/>
<path d="M23.3719 12.0617L23.2114 11.9096L22.9844 12.211L23.127 12.3857L23.3719 12.0617Z" fill="#007CFF"/>
<path d="M19.6416 8.8376L19.7479 8.91617L19.7609 8.39596L19.6552 8.27695L19.6416 8.8376Z" fill="#8DFF6A"/>
<path d="M23.5768 11.6658L23.401 11.5417L23.2114 11.9098L23.372 12.0619L23.5768 11.6658Z" fill="#00A8FF"/>
<path d="M19.6553 8.27699L19.7609 8.39599L19.8244 7.89834L19.7233 7.74039L19.6553 8.27699Z" fill="#BEFF39"/>
<path d="M23.7361 11.2069L23.5484 11.1155L23.4014 11.5415L23.5771 11.6656L23.7361 11.2069Z" fill="#00D8FF"/>
<path d="M19.7231 7.74065L19.8242 7.8986L19.9371 7.43658L19.8444 7.24219L19.7231 7.74065Z" fill="#EBFF0C"/>
<path d="M23.8447 10.6969L23.6486 10.642L23.5483 11.1155L23.736 11.207L23.8447 10.6969Z" fill="#23FFD4"/>
<path d="M19.8447 7.24217L19.9374 7.43656L20.0971 7.02254L20.0166 6.79522L19.8447 7.24217Z" fill="#FFD300"/>
<path d="M23.8995 10.1481L23.6988 10.1328L23.6484 10.6419L23.8446 10.6967L23.8995 10.1481Z" fill="#50FFA7"/>
<path d="M20.0166 6.79512L20.0971 7.02245L20.2999 6.6677L20.2351 6.4119L20.0166 6.79512Z" fill="#FFA700"/>
<path d="M23.899 9.57507L23.6978 9.60134L23.699 10.1329L23.8997 10.1482L23.899 9.57507Z" fill="#80FF77"/>
<path d="M20.2349 6.41194L20.2997 6.66774L20.5407 6.38222L20.4945 6.10325L20.2349 6.41194Z" fill="#FF8200"/>
<path d="M23.8421 8.99278L23.6445 9.06155L23.6978 9.60156L23.899 9.57529L23.8421 8.99278Z" fill="#B1FF46"/>
<path d="M20.4946 6.10331L20.5408 6.38228L20.8137 6.17416L20.7889 5.87807L20.4946 6.10331Z" fill="#FF6000"/>
<path d="M23.7299 8.41628L23.54 8.52729L23.6443 9.06141L23.8419 8.99264L23.7299 8.41628Z" fill="#DEFF19"/>
<path d="M20.7886 5.87791L20.8134 6.17399L21.1112 6.04945L21.1098 5.74284L20.7886 5.87791Z" fill="#FF4A00"/>
<path d="M23.5655 7.86172L23.3872 8.01353L23.54 8.5273L23.7299 8.41629L23.5655 7.86172Z" fill="#FFE200"/>
<path d="M21.1099 5.74296L21.1112 6.04956L21.426 6.0125L21.4495 5.7024L21.1099 5.74296Z" fill="#FF3800"/>
<path d="M23.3529 7.34417L23.1899 7.53413L23.3875 8.01349L23.5657 7.86169L23.3529 7.34417Z" fill="#FFB200"/>
<path d="M21.4498 5.70221L21.4263 6.01231L21.7495 6.06419L21.7987 5.75776L21.4498 5.70221Z" fill="#FF3000"/>
<path d="M23.097 6.87805L22.9526 7.10243L23.1897 7.53416L23.3526 7.3442L23.097 6.87805Z" fill="#FF8D00"/>
<path d="M21.7986 5.75798L21.7495 6.06441L22.0725 6.20416L22.1472 5.90851L21.7986 5.75798Z" fill="#FF3400"/>
<path d="M22.8057 6.47637L22.6826 6.73039L22.9529 7.10253L23.0972 6.87816L22.8057 6.47637Z" fill="#FF6800"/>
<path d="M22.1475 5.90854L22.0728 6.20419L22.3866 6.42821L22.4862 6.1502L22.1475 5.90854Z" fill="#FF3B00"/>
<path d="M22.4859 6.15012L22.3862 6.42813L22.6823 6.73037L22.8054 6.47635L22.4859 6.15012Z" fill="#FF4E00"/>
<path d="M21.2124 12.3576L21.2725 12.1148L21.0009 11.8799L20.918 12.103L21.2124 12.3576Z" fill="#0040FF"/>
<path d="M20.9174 12.1027L21.0004 11.8797L20.7474 11.581L20.6431 11.779L20.9174 12.1027Z" fill="#0058FF"/>
<path d="M21.5193 12.5368L21.5555 12.2799L21.272 12.1146L21.2119 12.3574L21.5193 12.5368Z" fill="#0034FF"/>
<path d="M20.6435 11.7791L20.7478 11.5811L20.5196 11.2259L20.396 11.3941L20.6435 11.7791Z" fill="#0074FF"/>
<path d="M21.8323 12.6365L21.8443 12.3716L21.5558 12.2801L21.5195 12.537L21.8323 12.6365Z" fill="#002CFF"/>
<path d="M20.3957 11.3942L20.5193 11.2259L20.3216 10.8228L20.1812 10.9573L20.3957 11.3942Z" fill="#009CFF"/>
<path d="M22.1425 12.6532L22.1303 12.3867L21.844 12.3714L21.832 12.6363L22.1425 12.6532Z" fill="#0030FF"/>
<path d="M20.1815 10.9572L20.3219 10.8228L20.1598 10.3816L20.0054 10.479L20.1815 10.9572Z" fill="#00C4FF"/>
<path d="M22.4431 12.5871L22.4074 12.3252L22.1304 12.3868L22.1426 12.6534L22.4431 12.5871Z" fill="#003CFF"/>
<path d="M20.0052 10.479L20.1596 10.3816L20.0372 9.91308L19.8721 9.97099L20.0052 10.479Z" fill="#0CF4EB"/>
<path d="M22.7264 12.4385L22.6686 12.1877L22.4077 12.3252L22.4434 12.587L22.7264 12.4385Z" fill="#0050FF"/>
<path d="M19.8722 9.97097L20.0373 9.91306L19.9579 9.42879L19.7856 9.44572L19.8722 9.97097Z" fill="#36FFC1"/>
<path d="M22.9847 12.2111L22.9065 11.9775L22.6685 12.1878L22.7263 12.4386L22.9847 12.2111Z" fill="#006CFF"/>
<path d="M19.7855 9.44561L19.9578 9.42868L19.9237 8.94077L19.748 8.9162L19.7855 9.44561Z" fill="#60FF97"/>
<path d="M23.2115 11.9097L23.1152 11.6992L22.9062 11.9774L22.9845 12.211L23.2115 11.9097Z" fill="#0090FF"/>
<path d="M19.748 8.9162L19.9237 8.94077L19.9361 8.46156L19.761 8.396L19.748 8.9162Z" fill="#8DFF6A"/>
<path d="M23.4011 11.5416L23.2897 11.3595L23.1152 11.6991L23.2115 11.9097L23.4011 11.5416Z" fill="#00B8FF"/>
<path d="M19.7612 8.39605L19.9363 8.46161L19.9953 8.00341L19.8247 7.8984L19.7612 8.39605Z" fill="#B7FF40"/>
<path d="M23.5485 11.1156L23.4251 10.9666L23.29 11.3596L23.4015 11.5417L23.5485 11.1156Z" fill="#02E8F4"/>
<path d="M19.8247 7.89843L19.9953 8.00344L20.0997 7.5783L19.9376 7.43644L19.8247 7.89843Z" fill="#E1FF16"/>
<path d="M23.6484 10.642L23.5167 10.5301L23.4248 10.9666L23.5482 11.1155L23.6484 10.642Z" fill="#29FFCE"/>
<path d="M19.937 7.43636L20.0991 7.57822L20.2466 7.19743L20.0967 7.02232L19.937 7.43636Z" fill="#FFDE00"/>
<path d="M23.6991 10.1328L23.5631 10.061L23.5171 10.53L23.6487 10.6419L23.6991 10.1328Z" fill="#53FFA4"/>
<path d="M20.0972 7.02254L20.2471 7.19765L20.4342 6.8716L20.3 6.66779L20.0972 7.02254Z" fill="#FFB600"/>
<path d="M23.6978 9.60137L23.5615 9.57174L23.563 10.0611L23.699 10.1329L23.6978 9.60137Z" fill="#80FF77"/>
<path d="M20.2998 6.66768L20.434 6.87148L20.656 6.60924L20.5408 6.38215L20.2998 6.66768Z" fill="#FF9400"/>
<path d="M23.6446 9.06155L23.5122 9.07496L23.5615 9.57194L23.6978 9.60157L23.6446 9.06155Z" fill="#ADFF49"/>
<path d="M20.541 6.38217L20.6563 6.60926L20.9077 6.41829L20.8139 6.17405L20.541 6.38217Z" fill="#FF7700"/>
<path d="M23.5403 8.52724L23.416 8.58341L23.5122 9.07475L23.6446 9.06134L23.5403 8.52724Z" fill="#D7FF1F"/>
<path d="M20.8135 6.17411L20.9072 6.41835L21.1813 6.30426L21.1113 6.04956L20.8135 6.17411Z" fill="#FF6000"/>
<path d="M23.3872 8.01344L23.2749 8.11088L23.4157 8.58336L23.54 8.5272L23.3872 8.01344Z" fill="#FEED00"/>
<path d="M21.1118 6.04956L21.1819 6.30425L21.4715 6.27057L21.4266 6.01249L21.1118 6.04956Z" fill="#FF5200"/>
<path d="M23.1899 7.53431L23.0933 7.67038L23.2751 8.11112L23.3874 8.01368L23.1899 7.53431Z" fill="#FFC400"/>
<path d="M21.4263 6.01257L21.4712 6.27065L21.7685 6.31867L21.7495 6.06444L21.4263 6.01257Z" fill="#FF4A00"/>
<path d="M22.9527 7.10258L22.875 7.27348L23.0931 7.67039L23.1897 7.53433L22.9527 7.10258Z" fill="#FF9F00"/>
<path d="M21.7495 6.06429L21.7685 6.31852L22.0656 6.44723L22.0725 6.20404L21.7495 6.06429Z" fill="#FF4A00"/>
<path d="M22.6829 6.73038L22.627 6.93131L22.8755 7.27343L22.9532 7.10253L22.6829 6.73038Z" fill="#FF7E00"/>
<path d="M22.0729 6.20416L22.0659 6.44735L22.3545 6.65344L22.3867 6.42818L22.0729 6.20416Z" fill="#FF5500"/>
<path d="M22.3867 6.42812L22.3545 6.65337L22.6268 6.93128L22.6828 6.73036L22.3867 6.42812Z" fill="#FF6800"/>
<path d="M21.2726 12.1146L21.4328 11.8285L21.1839 11.6132L21.001 11.8797L21.2726 12.1146Z" fill="#005CFF"/>
<path d="M21.0011 11.8796L21.1839 11.6131L20.9521 11.3393L20.748 11.581L21.0011 11.8796Z" fill="#0070FF"/>
<path d="M21.556 12.2799L21.6926 11.9798L21.4327 11.8284L21.2725 12.1146L21.556 12.2799Z" fill="#004CFF"/>
<path d="M20.7482 11.5811L20.9522 11.3394L20.7433 11.0137L20.52 11.2259L20.7482 11.5811Z" fill="#008CFF"/>
<path d="M21.8446 12.3715L21.9573 12.0635L21.6928 11.9799L21.5562 12.28L21.8446 12.3715Z" fill="#0048FF"/>
<path d="M20.5194 11.226L20.7427 11.0138L20.5618 10.6441L20.3218 10.8229L20.5194 11.226Z" fill="#00ACFF"/>
<path d="M22.1306 12.3868L22.2195 12.0772L21.9569 12.0635L21.8442 12.3715L22.1306 12.3868Z" fill="#004CFF"/>
<path d="M20.3218 10.8229L20.5618 10.6441L20.4136 10.2395L20.1597 10.3817L20.3218 10.8229Z" fill="#00D4FF"/>
<path d="M22.4079 12.3253L22.4738 12.0203L22.2198 12.0773L22.1309 12.3869L22.4079 12.3253Z" fill="#0054FF"/>
<path d="M20.16 10.3816L20.414 10.2395L20.3022 9.81L20.0376 9.9131L20.16 10.3816Z" fill="#16FFE1"/>
<path d="M22.6686 12.1877L22.7127 11.8937L22.4736 12.0201L22.4077 12.3251L22.6686 12.1877Z" fill="#0068FF"/>
<path d="M20.0374 9.91317L20.3021 9.81007L20.2299 9.36629L19.958 9.42892L20.0374 9.91317Z" fill="#3CFFBA"/>
<path d="M22.907 11.9776L22.9311 11.7006L22.713 11.8938L22.6689 12.1879L22.907 11.9776Z" fill="#0080FF"/>
<path d="M19.9579 9.42885L20.2298 9.36621L20.1992 8.91922L19.9238 8.94092L19.9579 9.42885Z" fill="#63FF94"/>
<path d="M23.1157 11.6993L23.1223 11.4452L22.9309 11.7006L22.9067 11.9776L23.1157 11.6993Z" fill="#00A0FF"/>
<path d="M19.9243 8.94076L20.1997 8.91907L20.2117 8.48026L19.9367 8.46156L19.9243 8.94076Z" fill="#8DFF6A"/>
<path d="M23.2901 11.3595L23.282 11.1334L23.1223 11.445L23.1157 11.6992L23.2901 11.3595Z" fill="#00C8FF"/>
<path d="M19.9365 8.46164L20.2115 8.48035L20.2662 8.06098L19.9955 8.00346L19.9365 8.46164Z" fill="#B4FF43"/>
<path d="M23.4254 10.9665L23.4059 10.7731L23.2822 11.1333L23.2903 11.3594L23.4254 10.9665Z" fill="#0CF4EB"/>
<path d="M19.9951 8.00333L20.2658 8.06086L20.3621 7.67192L20.0995 7.57817L19.9951 8.00333Z" fill="#DBFF1C"/>
<path d="M23.5173 10.5301L23.4898 10.3733L23.4058 10.7732L23.4253 10.9666L23.5173 10.5301Z" fill="#30FFC7"/>
<path d="M20.0996 7.57825L20.3622 7.672L20.4978 7.32384L20.2471 7.19746L20.0996 7.57825Z" fill="#FEED00"/>
<path d="M23.5632 10.0611L23.5318 9.94381L23.4897 10.3732L23.5172 10.5301L23.5632 10.0611Z" fill="#56FFA0"/>
<path d="M20.2476 7.19766L20.4982 7.32404L20.67 7.0261L20.4347 6.8716L20.2476 7.19766Z" fill="#FFC800"/>
<path d="M23.5674 9.57189L23.5303 9.49605L23.532 9.94393L23.5692 10.0613L23.5674 9.57189Z" fill="#80FF77"/>
<path d="M20.4346 6.8714L20.6699 7.0259L20.8735 6.78644L20.6566 6.60917L20.4346 6.8714Z" fill="#FFA700"/>
<path d="M23.5126 9.07485L23.4854 9.04135L23.5305 9.49597L23.5619 9.57181L23.5126 9.07485Z" fill="#A7FF50"/>
<path d="M20.6562 6.60931L20.8732 6.78657L21.1035 6.61233L20.9076 6.41834L20.6562 6.60931Z" fill="#FF8D00"/>
<path d="M23.416 8.58359L23.397 8.59214L23.485 9.04144L23.5122 9.07494L23.416 8.58359Z" fill="#CEFF29"/>
<path d="M20.9077 6.41829L21.1035 6.61228L21.3545 6.50833L21.1819 6.3042L20.9077 6.41829Z" fill="#FF7700"/>
<path d="M23.275 8.11111L23.2681 8.16024L23.3968 8.59214L23.4158 8.58359L23.275 8.11111Z" fill="#F4F802"/>
<path d="M21.1816 6.30415L21.3543 6.50828L21.6193 6.47779L21.4713 6.27046L21.1816 6.30415Z" fill="#FF6C00"/>
<path d="M23.0933 7.67014L23.1019 7.75722L23.2681 8.15999L23.2751 8.11087L23.0933 7.67014Z" fill="#FFD300"/>
<path d="M21.4717 6.27063L21.6197 6.47795L21.8917 6.52207L21.769 6.31865L21.4717 6.27063Z" fill="#FF6400"/>
<path d="M22.8755 7.27338L22.9029 7.3947L23.1023 7.75736L23.0936 7.67028L22.8755 7.27338Z" fill="#FFB200"/>
<path d="M21.769 6.3186L21.8917 6.52202L22.1632 6.6398L22.0661 6.44731L21.769 6.3186Z" fill="#FF6400"/>
<path d="M22.627 6.93123L22.6758 7.08207L22.9029 7.39466L22.8755 7.27334L22.627 6.93123Z" fill="#FF9400"/>
<path d="M22.0659 6.44719L22.163 6.63968L22.4268 6.82807L22.3545 6.65328L22.0659 6.44719Z" fill="#FF6C00"/>
<path d="M22.3545 6.65323L22.4268 6.82803L22.6756 7.08198L22.6268 6.93114L22.3545 6.65323Z" fill="#FF7E00"/>
<path d="M21.2568 12.6535L21.2187 12.5417L20.9019 12.2676L20.9187 12.3611L21.2568 12.6535Z" fill="#000CFF"/>
<path d="M20.9185 12.3611L20.9016 12.2676L20.6064 11.9193L20.6035 11.9895L20.9185 12.3611Z" fill="#0028FF"/>
<path d="M21.6098 12.8596L21.5495 12.7347L21.2188 12.5416L21.2569 12.6534L21.6098 12.8596Z" fill="#0000FF"/>
<path d="M20.6036 11.9895L20.6065 11.9193L20.3402 11.5052L20.3193 11.5476L20.6036 11.9895Z" fill="#004CFF"/>
<path d="M21.969 12.9743L21.8859 12.842L21.5493 12.7347L21.6097 12.8596L21.969 12.9743Z" fill="#0000FF"/>
<path d="M20.3193 11.5473L20.3401 11.5049L20.1091 11.0349L20.0728 11.0457L20.3193 11.5473Z" fill="#0074FF"/>
<path d="M22.3257 12.9942L22.22 12.8605L21.8857 12.8419L21.9688 12.9742L22.3257 12.9942Z" fill="#0000FF"/>
<path d="M20.0727 11.046L20.109 11.0351L19.9194 10.5205L19.8701 10.4967L20.0727 11.046Z" fill="#00A8FF"/>
<path d="M22.6716 12.9188L22.5439 12.7896L22.2202 12.8606L22.3259 12.9943L22.6716 12.9188Z" fill="#0008FF"/>
<path d="M19.8701 10.4966L19.9194 10.5204L19.7759 9.97363L19.7168 9.9128L19.8701 10.4966Z" fill="#00E0FB"/>
<path d="M22.9977 12.7489L22.849 12.6301L22.5439 12.7895L22.6717 12.9187L22.9977 12.7489Z" fill="#0020FF"/>
<path d="M19.7167 9.91289L19.7757 9.97371L19.6823 9.40815L19.6167 9.30884L19.7167 9.91289Z" fill="#2CFFCA"/>
<path d="M23.2957 12.4885L23.1277 12.386L22.8491 12.6304L22.9978 12.7492L23.2957 12.4885Z" fill="#0040FF"/>
<path d="M19.6169 9.30863L19.6824 9.40795L19.6418 8.83766L19.5732 8.69926L19.6169 9.30863Z" fill="#5DFF9A"/>
<path d="M23.5576 12.1426L23.3724 12.0618L23.1274 12.3858L23.2955 12.4883L23.5576 12.1426Z" fill="#0068FF"/>
<path d="M19.5732 8.69947L19.6418 8.83786L19.6554 8.27722L19.5876 8.10013L19.5732 8.69947Z" fill="#90FF66"/>
<path d="M23.7767 11.7199L23.5769 11.6658L23.3721 12.0619L23.5573 12.1427L23.7767 11.7199Z" fill="#0098FF"/>
<path d="M19.5874 8.10014L19.6552 8.27722L19.7233 7.74065L19.6599 7.52622L19.5874 8.10014Z" fill="#C1FF36"/>
<path d="M23.9476 11.2298L23.7362 11.2069L23.5771 11.6656L23.777 11.7197L23.9476 11.2298Z" fill="#00CCFF"/>
<path d="M19.6602 7.52593L19.7236 7.74037L19.8449 7.24191L19.7896 6.99249L19.6602 7.52593Z" fill="#F4F802"/>
<path d="M24.0647 10.6847L23.845 10.6969L23.7363 11.207L23.9478 11.2298L24.0647 10.6847Z" fill="#1CFFDB"/>
<path d="M19.7896 6.99248L19.8449 7.24191L20.0167 6.79495L19.9731 6.51384L19.7896 6.99248Z" fill="#FFC400"/>
<path d="M24.1239 10.0981L23.8997 10.1482L23.8447 10.6968L24.0644 10.6847L24.1239 10.0981Z" fill="#4DFFAA"/>
<path d="M19.9731 6.51394L20.0168 6.79505L20.2353 6.41184L20.2066 6.10327L19.9731 6.51394Z" fill="#FF9800"/>
<path d="M24.1244 9.4852L23.8994 9.57511L23.9001 10.1482L24.1244 10.0981L24.1244 9.4852Z" fill="#80FF77"/>
<path d="M20.2065 6.10331L20.2352 6.41188L20.4949 6.10319L20.4841 5.77225L20.2065 6.10331Z" fill="#FF6F00"/>
<path d="M24.064 8.86188L23.8423 8.99252L23.8991 9.57501L24.1241 9.48509L24.064 8.86188Z" fill="#B4FF43"/>
<path d="M20.4839 5.77214L20.4947 6.10307L20.7889 5.87783L20.7986 5.53028L20.4839 5.77214Z" fill="#FF4A00"/>
<path d="M23.9445 8.2452L23.73 8.41633L23.842 8.99267L24.0636 8.86203L23.9445 8.2452Z" fill="#E4FF13"/>
<path d="M20.7987 5.53027L20.7891 5.87782L21.1103 5.74277L21.1424 5.38493L20.7987 5.53027Z" fill="#FF3000"/>
<path d="M23.7694 7.65165L23.5659 7.86188L23.7304 8.41642L23.9449 8.24529L23.7694 7.65165Z" fill="#FFD300"/>
<path d="M21.1425 5.3852L21.1104 5.74304L21.45 5.70247L21.5059 5.34107L21.1425 5.3852Z" fill="#FF2200"/>
<path d="M23.542 7.09739L23.353 7.3442L23.5659 7.86173L23.7694 7.65149L23.542 7.09739Z" fill="#FFA300"/>
<path d="M21.5061 5.34099L21.4502 5.70238L21.7991 5.75793L21.8795 5.39986L21.5061 5.34099Z" fill="#FF1A00"/>
<path d="M23.2685 6.59832L23.0972 6.87809L23.3528 7.34424L23.5418 7.09743L23.2685 6.59832Z" fill="#FF7A00"/>
<path d="M21.8792 5.39994L21.7988 5.75801L22.1474 5.90855L22.2523 5.56068L21.8792 5.39994Z" fill="#FF1A00"/>
<path d="M22.9567 6.16805L22.8057 6.47618L23.0972 6.87797L23.2686 6.5982L22.9567 6.16805Z" fill="#FF5500"/>
<path d="M22.2524 5.56061L22.1475 5.90848L22.4862 6.15014L22.6149 5.81909L22.2524 5.56061Z" fill="#FF2500"/>
<path d="M22.615 5.81895L22.4863 6.15L22.8059 6.47623L22.9569 6.16809L22.615 5.81895Z" fill="#FF3800"/>
<path fill-rule="evenodd" clip-rule="evenodd" d="M32 25C32 24.0838 31.8177 23.1677 31.4672 22.3212C31.1166 21.4748 30.5976 20.6981 29.9497 20.0503C29.3019 19.4024 28.5252 18.8834 27.6788 18.5328C26.8323 18.1823 25.9162 18 25 18C24.0838 18 23.1677 18.1823 22.3212 18.5328C21.4748 18.8834 20.6981 19.4024 20.0503 20.0503C19.4024 20.6981 18.8834 21.4748 18.5328 22.3212C18.1823 23.1677 18 24.0838 18 25C18 25.9162 18.1823 26.8323 18.5328 27.6788C18.8834 28.5252 19.4024 29.3019 20.0503 29.9497C20.6981 30.5976 21.4748 31.1166 22.3212 31.4672C23.1677 31.8177 24.0838 32 25 32C25.9162 32 26.8323 31.8177 27.6788 31.4672C28.5252 31.1166 29.3019 30.5976 29.9497 29.9497C30.5976 29.3019 31.1166 28.5252 31.4672 27.6788C31.8177 26.8323 32 25.9162 32 25Z" fill="white"/>
<path fill-rule="evenodd" clip-rule="evenodd" d="M21.9375 24.8746L24.9988 19.75L28.0608 24.8746L24.9988 26.7003L21.9375 24.8746ZM24.9988 29.8125L21.9375 25.4605L24.9988 27.2852L28.0625 25.4605L24.9988 29.8125Z" fill="black"/>
</g>
<defs>
<clipPath id="clip0_144_562623">
<rect width="32" height="32" fill="white"/>
</clipPath>
</defs>
</svg>
