<svg width="32" height="32" viewBox="0 0 32 32" fill="none" xmlns="http://www.w3.org/2000/svg">
<path fill-rule="evenodd" clip-rule="evenodd" d="M27 13.5C27 11.7331 26.6485 9.96624 25.9724 8.33382C25.2963 6.7014 24.2954 5.20344 23.0459 3.95415C21.7966 2.70459 20.2986 1.7037 18.6662 1.02762C17.0338 0.35154 15.2669 0 13.5 0C11.7331 0 9.96624 0.35154 8.33382 1.02762C6.7014 1.7037 5.20344 2.70459 3.95415 3.95415C2.70459 5.20344 1.7037 6.7014 1.02762 8.33382C0.35154 9.96624 0 11.7331 0 13.5C0 15.2669 0.35154 17.0338 1.02762 18.6662C1.7037 20.2986 2.70459 21.7966 3.95415 23.0459C5.20344 24.2954 6.7014 25.2963 8.33382 25.9724C9.96624 26.6485 11.7331 27 13.5 27C15.2669 27 17.0338 26.6485 18.6662 25.9724C20.2986 25.2963 21.7966 24.2954 23.0459 23.0459C24.2954 21.7966 25.2963 20.2986 25.9724 18.6662C26.6485 17.0338 27 15.2669 27 13.5Z" fill="#54AE94"/>
<path fill-rule="evenodd" clip-rule="evenodd" d="M7.61025 6.75H13.8374H20.0646V9.76064H15.4909V11.4576L15.5048 11.4582C17.3758 11.5434 19.0153 11.7679 20.2076 12.088C20.804 12.248 21.2883 12.4297 21.6459 12.6462C21.8248 12.7543 21.9735 12.8712 22.0861 13.0106C22.1988 13.1504 22.2749 13.3212 22.2749 13.5037C22.2749 13.6862 22.1988 13.857 22.0861 13.9967C21.9735 14.1362 21.8248 14.2531 21.6459 14.3612C21.2883 14.5777 20.804 14.7594 20.2079 14.9194C19.0153 15.2395 17.3758 15.4639 15.5048 15.5492L15.4919 15.5498V21.6H13.8374H12.1829V15.5498L12.17 15.5492C10.299 15.4639 8.65949 15.2395 7.46693 14.9194C6.87078 14.7594 6.38649 14.5777 6.02886 14.3612C5.85004 14.2531 5.70134 14.1362 5.58867 13.9967C5.476 13.857 5.3999 13.6862 5.3999 13.5037C5.3999 13.3212 5.476 13.1504 5.58867 13.0106C5.70134 12.8712 5.85004 12.7543 6.02886 12.6462C6.38649 12.4297 6.87078 12.248 7.46719 12.088C8.65949 11.7679 10.299 11.5434 12.17 11.4582L12.1839 11.4576V9.76064H7.61025V6.75ZM12.1893 14.5764L13.8374 14.6128L15.4855 14.5764C17.1164 14.5047 18.5404 14.3272 19.5459 14.0873C20.0487 13.9673 20.4475 13.8304 20.7072 13.6915C20.8374 13.6222 20.9318 13.5518 20.9871 13.4912C21.0425 13.4304 21.0579 13.3865 21.0579 13.3491C21.0579 13.3116 21.0425 13.2678 20.9871 13.207C20.9318 13.1464 20.8374 13.076 20.7075 13.0067C20.4477 12.8677 20.049 12.7309 19.5464 12.6108C18.5423 12.3715 17.1209 12.1943 15.4925 12.1223V13.8169L15.4599 13.8198C15.4177 13.8235 15.2679 13.8363 14.998 13.8477C14.863 13.8533 14.6979 13.8589 14.5016 13.8629C14.4034 13.8647 14.2975 13.8663 14.1832 13.8674C14.1262 13.8679 14.0673 13.8684 14.006 13.8687H13.8374H13.6688C13.6075 13.8684 13.5486 13.8679 13.4916 13.8674C13.3773 13.8663 13.2714 13.8647 13.1732 13.8629C12.9769 13.8589 12.8118 13.8533 12.6768 13.8477C12.4069 13.8363 12.2571 13.8235 12.2149 13.8198L12.1823 13.8169V12.1223C10.5539 12.1943 9.13248 12.3715 8.12842 12.6108C7.62585 12.7309 7.22707 12.8677 6.96731 13.0067C6.83743 13.076 6.74305 13.1464 6.68766 13.207C6.63226 13.2678 6.61694 13.3116 6.61694 13.3491C6.61694 13.3865 6.63226 13.4304 6.68766 13.4912C6.74305 13.5518 6.83743 13.6222 6.96758 13.6915C7.22734 13.8304 7.62611 13.9673 8.12895 14.0873C9.13437 14.3272 10.5585 14.5047 12.1893 14.5764Z" fill="white"/>
<path d="M32 25C32 28.866 28.866 32 25 32C21.134 32 18 28.866 18 25C18 21.134 21.134 18 25 18C28.866 18 32 21.134 32 25Z" fill="#99999E"/>
<path fill-rule="evenodd" clip-rule="evenodd" d="M25.6917 23.1302C25.5569 22.7317 25.4363 22.375 25 22.375C24.5637 22.375 24.4431 22.7317 24.3083 23.1302C24.2162 23.4029 24.1173 23.6952 23.9063 23.9062C23.6952 24.1173 23.4029 24.2161 23.1302 24.3083C22.7317 24.4431 22.375 24.5637 22.375 25C22.375 25.4363 22.7317 25.5569 23.1302 25.6917C23.4029 25.7839 23.6952 25.8827 23.9063 26.0938C24.1173 26.3048 24.2162 26.5971 24.3083 26.8698C24.4431 27.2683 24.5637 27.625 25 27.625C25.4363 27.625 25.5569 27.2683 25.6917 26.8698C25.7839 26.5971 25.8827 26.3048 26.0938 26.0938C26.3048 25.8827 26.5971 25.7839 26.8698 25.6917C27.2683 25.5569 27.625 25.4363 27.625 25C27.625 24.5637 27.2683 24.4431 26.8698 24.3083C26.5971 24.2161 26.3048 24.1173 26.0938 23.9062C25.8827 23.6952 25.7839 23.4029 25.6917 23.1302Z" fill="white"/>
<path fill-rule="evenodd" clip-rule="evenodd" d="M25 18.001C21.1302 18.0009 17.9921 21.1449 18 25.0147C18.0079 28.8765 21.1381 31.9998 25 31.9998C28.8618 31.9997 31.9919 28.8765 31.9997 25.0147C32.0076 21.145 28.8697 18.001 25 18.001ZM24.125 20.1873C24.125 20.1873 24.125 21.4998 22.8125 22.8123C21.5 24.1248 20.1875 24.1248 20.1875 24.1248C20.1875 24.1248 20.1875 22.8123 21.5 21.4998C22.8125 20.1873 24.125 20.1873 24.125 20.1873ZM25.875 20.1873C25.875 20.1873 27.3426 20.1873 28.5 21.4998C29.8125 22.9882 29.8125 24.1248 29.8125 24.1248C29.8125 24.1248 28.7625 24.1248 27.1875 22.8123C25.875 21.7185 25.875 20.1873 25.875 20.1873ZM25 22.3748C25.7348 22.3748 25.5741 23.3864 26.0937 23.906C26.6133 24.4257 27.625 24.2649 27.625 24.9998C27.625 25.7347 26.6133 25.5739 26.0937 26.0935C25.5741 26.6132 25.7348 27.6248 25 27.6248C24.2651 27.6248 24.4258 26.6132 23.9062 26.0935C23.3866 25.5739 22.375 25.7347 22.375 24.9998C22.375 24.2649 23.3866 24.4257 23.9062 23.906C24.4258 23.3864 24.2651 22.3748 25 22.3748ZM20.1875 25.8748C20.1875 25.8748 21.5 25.8748 22.8125 27.1873C24.125 28.4998 24.125 29.8123 24.125 29.8123C24.125 29.8123 22.8125 29.8123 21.5 28.4998C20.1875 27.1873 20.1875 25.8748 20.1875 25.8748ZM29.8125 25.8748C29.8125 25.8748 29.8125 27.1873 28.5 28.4998C27.1875 29.8123 25.875 29.8123 25.875 29.8123C25.875 29.8123 25.875 28.4998 27.1875 27.1873C28.5 25.8748 29.8125 25.8748 29.8125 25.8748Z" fill="black"/>
</svg>
