<?xml version="1.0" encoding="UTF-8"?>
<svg id="AQLA_Token" xmlns="http://www.w3.org/2000/svg" xmlns:xlink="http://www.w3.org/1999/xlink" viewBox="0 0 500 500">
  <defs>
    <style>
      .cls-1 {
        fill: url(#linear-gradient-2);
      }

      .cls-2 {
        fill: #1e1e1e;
      }

      .cls-3 {
        fill: url(#linear-gradient-4);
      }

      .cls-4 {
        fill: url(#linear-gradient-3);
      }

      .cls-5 {
        fill: url(#linear-gradient);
      }
    </style>
    <linearGradient id="linear-gradient" x1="-50.6" y1="252.91" x2="507.3" y2="252.91" gradientTransform="translate(0 502.78) scale(1 -1)" gradientUnits="userSpaceOnUse">
      <stop offset="0" stop-color="#2af599"/>
      <stop offset="1" stop-color="#08b4e6"/>
    </linearGradient>
    <linearGradient id="linear-gradient-2" x1="71.77" y1="991.74" x2="427.93" y2="991.74" gradientTransform="translate(0 -840.49)" gradientUnits="userSpaceOnUse">
      <stop offset="0" stop-color="#2af599"/>
      <stop offset="1" stop-color="#08b4e6"/>
    </linearGradient>
    <linearGradient id="linear-gradient-3" y1="1193.25" y2="1193.25" xlink:href="#linear-gradient-2"/>
    <linearGradient id="linear-gradient-4" x1="71.77" y1="1090.63" x2="427.93" y2="1090.63" xlink:href="#linear-gradient-2"/>
  </defs>
  <g id="Border">
    <circle class="cls-5" cx="250.14" cy="249.87" r="250"/>
  </g>
  <g id="Contents">
    <g>
      <path class="cls-2" d="M249.84,15.82C120.43,15.82,15.52,120.73,15.52,250.14s104.91,234.32,234.32,234.32,234.32-104.91,234.32-234.32S379.26,15.82,249.84,15.82ZM265.21,417.86v-.02h-.02c-7.91,7.68-20.56,7.81-28.6,0-35.28-34.25-126.29-122.44-159.65-154.88-6.9-6.67-6.9-17.75,0-24.41L236.01,82.52c8.03-7.79,20.69-7.91,28.72-.1l156.96,152.28c8.24,8.03,8.37,21.27.1,29.4-35.04,34.5-122.21,120.08-156.58,153.77Z"/>
      <path class="cls-2" d="M312.44,334.89l-24.87-24.76c-8.03-7.91-8.03-21.02,0-29.05l16.63-16.63c8.03-8.01,8.03-21.02,0-29.05l-16.5-16.4c-8.03-8.01-8.03-21.02,0-29.05l24.54-24.41c8.16-8.14,8.16-21.24-.1-29.28l-51.66-50.19c-5.53-5.43-14.45-5.43-20,0l-51.43,49.96c-8.24,8.03-8.24,21.14-.1,29.28l24.87,24.76c8.03,7.91,8.03,21.02,0,29.05l-16.63,16.63c-8.03,8.01-8.03,21.02,0,29.05l16.5,16.4c8.03,8.01,8.03,21.02,0,29.05l-24.54,24.41c-8.16,8.14-8.16,21.24.1,29.28l49.86,48.49c6.56,6.44,17.06,6.44,23.63,0l49.62-48.15c8.24-8.03,8.36-21.14.1-29.4ZM203.46,157.81c-3.27-3.27-3.27-8.7,0-12.09l42.05-42.05c2.94-2.84,7.58-2.84,10.52,0h0s41.5,41.5,41.5,41.5c3.27,3.27,3.27,8.7,0,12.09l-41.27,41.27c-3.27,3.27-8.7,3.27-12.09,0l-40.71-40.71ZM297.99,358.39l-40.81,40.81c-3.85,3.85-9.94,3.85-13.79,0l-40.25-40.25v.02c-3.04-3.04-3.04-8.03,0-11.08l42.18-42.18c3.04-3.04,8.03-3.04,11.08,0l41.6,41.6c3.04,3.04,3.04,8.03,0,11.08Z"/>
      <path class="cls-1" d="M256.26,198.52l41.27-41.27c3.27-3.4,3.27-8.82,0-12.09l-41.5-41.5h0c-2.94-2.84-7.58-2.84-10.52,0l-42.05,42.05c-3.27,3.4-3.27,8.82,0,12.09l40.71,40.71c3.4,3.27,8.82,3.27,12.09,0Z"/>
      <path class="cls-2" d="M256.39,305.72c-3.04-3.04-8.03-3.04-11.08,0l-42.18,42.18c-3.04,3.04-3.04,8.03,0,11.08v-.02s40.25,40.25,40.25,40.25c3.85,3.85,9.94,3.85,13.79,0l40.81-40.81c3.04-3.04,3.04-8.03,0-11.08l-41.6-41.6Z"/>
      <path class="cls-4" d="M256.39,305.72c-3.04-3.04-8.03-3.04-11.08,0l-42.18,42.18c-3.04,3.04-3.04,8.03,0,11.08v-.02s40.25,40.25,40.25,40.25c3.85,3.85,9.94,3.85,13.79,0l40.81-40.81c3.04-3.04,3.04-8.03,0-11.08l-41.6-41.6Z"/>
      <path class="cls-3" d="M421.69,234.69l-156.96-152.28c-8.03-7.81-20.69-7.68-28.72.1L76.94,238.54c-6.9,6.67-6.9,17.75,0,24.41,33.36,32.45,124.36,120.64,159.65,154.88,8.03,7.81,20.69,7.68,28.6,0h.02v.02c34.37-33.69,121.55-119.27,156.58-153.77,8.26-8.14,8.14-21.37-.1-29.4ZM312.36,364.27v.02h-.02s0,0,0,0l-49.62,48.15c-6.56,6.44-17.06,6.44-23.63,0l-49.86-48.49c-8.26-8.03-8.26-21.14-.1-29.28l24.54-24.41c8.03-8.03,8.03-21.04,0-29.05l-16.5-16.4c-8.03-8.03-8.03-21.04,0-29.05l16.63-16.63c8.03-8.03,8.03-21.14,0-29.05l-24.87-24.76c-8.14-8.14-8.14-21.24.1-29.28l51.43-49.96c5.55-5.43,14.47-5.43,20,0l51.66,50.19c8.26,8.03,8.26,21.14.1,29.28l-24.54,24.41c-8.03,8.03-8.03,21.04,0,29.05l16.5,16.4c8.03,8.03,8.03,21.04,0,29.05l-16.63,16.63c-8.03,8.03-8.03,21.14,0,29.05l24.87,24.76c8.26,8.26,8.14,21.36-.1,29.4h.02Z"/>
    </g>
  </g>
</svg>