<?xml version="1.0" encoding="UTF-8" standalone="no"?>
<svg
   width="16"
   height="16"
   viewBox="0 0 16 16"
   fill="none"
   version="1.1"
   id="svg6"
   xmlns="http://www.w3.org/2000/svg"
   xmlns:svg="http://www.w3.org/2000/svg">
  <g
     clip-path="url(#clip0_1126_15595)"
     id="g3">
    <path
       d="M 14.6927,12.1331 V 4.3994 L 13.7366,3.84699 V 11.5807 L 8,14.8952 2.26344,11.5807 V 3.84699 L 1.30734,4.3994 v 7.7337 L 8,16 Z"
       fill="#000000"
       id="path1" />
    <path
       d="M 2.2634,2.76205 5.13168,1.10482 h 5.73652 l 2.8683,1.65723 V 10.4958 L 7.99996,13.8102 2.2634,10.4958 Z"
       fill="#000000"
       id="path2" />
    <path
       fill-rule="evenodd"
       clip-rule="evenodd"
       d="M 2.26341,1.65723 5.13169,0 h 5.73661 l 2.8682,1.65723 V 2.76205 L 10.8683,1.10482 H 5.13169 L 2.26341,2.76205 Z M 14.6927,3.31446 V 11.0482 L 8,14.9151 1.30734,11.0482 V 3.31446 L 2.26344,2.76205 V 10.4958 L 8,13.8102 13.7366,10.4958 V 2.76205 Z M 6.08784,3.86688 5.13174,3.31447 V 6.62893 L 8.00002,8.28616 10.8683,6.62893 V 3.31447 L 9.91221,3.86688 V 6.07652 L 8.00002,7.18134 6.08784,6.07652 Z m 3.8244,4.41921 V 9.39091 L 7.04395,11.0481 V 9.94332 Z"
       fill="url(#paint0_linear_1126_15595)"
       id="path3"
       style="fill:url(#paint0_linear_1126_15595)" />
  </g>
  <defs
     id="defs6">
    <linearGradient
       id="paint0_linear_1126_15595"
       x1="1.51184"
       y1="2.66607"
       x2="6.6599302"
       y2="15.6437"
       gradientUnits="userSpaceOnUse">
      <stop
         stop-color="#FFE600"
         id="stop3" />
      <stop
         offset="0.21875"
         stop-color="#FDFF85"
         id="stop4" />
      <stop
         offset="0.479167"
         stop-color="#66F6FF"
         id="stop5" />
      <stop
         offset="1"
         stop-color="#CD9BFF"
         id="stop6" />
    </linearGradient>
    <clipPath
       id="clip0_1126_15595">
      <rect
         width="16"
         height="16"
         fill="#ffffff"
         id="rect6"
         x="0"
         y="0" />
    </clipPath>
  </defs>
</svg>
