<svg width="211" height="212" viewBox="0 0 211 212" fill="none" xmlns="http://www.w3.org/2000/svg">
<circle cx="105.512" cy="105.719" r="105.422" fill="#F3F3F4"/>
<path d="M130.547 129.737C112.391 129.968 98.2621 127.456 87.7766 124.057C85.7207 123.358 81.2338 121.315 79.7336 118.729C78.9034 117.299 78.8935 113.626 79.182 109.846C79.2633 110.109 79.3581 110.337 79.4677 110.526C80.965 113.113 85.4794 115.149 87.5494 115.844C98.1081 119.226 112.349 121.712 130.671 121.442C151.043 121.141 163.548 118.74 170.892 115.895C170.888 115.96 170.884 116.026 170.879 116.091C170.574 120.792 170.278 125.354 158.236 127.495C151.267 128.735 142.21 129.589 130.547 129.737Z" fill="#FF1100"/>
<path d="M130.547 136.364C112.391 136.595 98.2621 134.083 87.7766 130.684C85.7207 129.985 81.2338 127.942 79.7336 125.356C78.9034 123.925 78.8935 120.253 79.182 116.473C79.2633 116.736 79.3581 116.964 79.4677 117.153C80.965 119.74 85.4794 121.776 87.5494 122.471C98.1081 125.853 112.349 128.339 130.671 128.069C151.043 127.768 163.548 125.367 170.892 122.522C170.888 122.587 170.884 122.653 170.879 122.718C170.574 127.419 170.278 131.98 158.236 134.122C151.267 135.362 142.21 136.216 130.547 136.364Z" fill="#FDBF41"/>
<path d="M175.216 129.605C175.384 133.856 165.826 142.485 126.244 142.989C108.088 143.22 93.9586 140.708 83.473 137.309C81.4171 136.61 76.9302 134.567 75.43 131.981C74.5998 130.55 74.59 126.878 74.8784 123.098C74.9598 123.361 75.0546 123.589 75.1641 123.778C76.6614 126.365 81.1758 128.401 83.2459 129.096C93.8045 132.478 108.045 134.964 126.367 134.694C157.913 134.228 170.595 128.726 174.462 124.337L175.216 129.605Z" fill="#F1ECE2"/>
<path d="M127.64 52.006C134.944 54.6185 145.755 69.062 130.575 105.936C123.612 122.85 113.611 134.259 103.579 141.727C101.557 143.17 96.2625 145.982 91.2546 145.684C89.2943 145.567 85.5914 144.34 81.3569 142.667C82.3388 142.926 83.1746 143.087 83.8209 143.126C88.8289 143.428 94.1237 140.586 96.1451 139.127C106.178 131.58 116.178 120.051 123.141 102.959C135.674 72.1936 130.49 56.8795 124.191 50.9883L127.64 52.006Z" fill="#FF1100"/>
<path d="M133.9 52.4259C141.203 55.1137 152.015 69.9732 136.834 107.909C129.871 125.31 119.871 137.048 109.838 144.731C107.817 146.216 102.522 149.109 97.5142 148.802C95.5539 148.682 91.8509 147.42 87.6162 145.699C88.5982 145.965 89.4341 146.13 90.0806 146.17C95.0885 146.481 100.383 143.557 102.405 142.056C112.437 134.292 122.438 122.431 129.401 104.846C141.934 73.1951 136.75 57.4399 130.451 51.3789L133.9 52.4259Z" fill="#FDBF41"/>
<path d="M139.378 55.9337C146.681 58.6215 157.492 73.481 142.312 111.417C135.349 128.818 125.348 140.556 115.316 148.239C113.295 149.724 108 152.617 102.992 152.31C101.031 152.189 97.3284 150.928 93.0938 149.206C94.0757 149.473 94.9117 149.638 95.5581 149.678C100.566 149.989 105.861 147.065 107.882 145.564C117.915 137.8 127.915 125.939 134.878 108.354C147.411 76.7029 142.227 60.9477 135.928 54.8867L139.378 55.9337Z" fill="#F1ECE2"/>
<path d="M81.0073 144.636C73.704 141.927 62.8926 126.951 78.0729 88.7168C85.0359 71.1795 95.0364 59.3496 105.069 51.6063C107.09 50.1096 112.385 47.1937 117.393 47.5033C120.224 47.6783 126.69 50.2528 133.143 53.157C132.479 53.2259 131.838 53.2965 131.227 53.3639C129.008 53.6083 127.172 53.8105 126 53.7394C120.992 53.4354 115.698 56.2986 113.676 57.7682C103.644 65.3713 93.6433 76.9871 86.6803 94.2071C74.0695 125.395 79.3961 140.822 85.7477 146.676L81.0073 144.636Z" fill="#FF1100"/>
<path d="M87.267 147.64C79.9638 144.902 69.1524 129.763 84.3327 91.1138C91.2957 73.386 101.296 61.4276 111.329 53.6003C113.35 52.0874 118.645 49.1398 123.653 49.4528C125.839 49.5894 130.192 51.1721 135.033 53.2377C133.225 52.6315 131.721 52.246 130.695 52.1814C125.687 51.8662 120.392 54.8349 118.371 56.3587C108.339 64.242 98.3381 76.286 91.3751 94.1407C76.1948 133.066 87.3571 147.821 94.6604 150.578L100.92 152.722L87.267 147.64Z" fill="#FDBF41"/>
<path d="M93.1357 150.253C85.8324 147.486 75.0211 132.184 90.2013 93.1201C97.1643 75.2019 107.165 63.1151 117.197 55.2037C119.219 53.6745 124.513 50.6953 129.521 51.0116C131.784 51.1545 136.368 52.8633 141.412 55.0584C139.707 54.514 138.287 54.1699 137.306 54.1066C132.298 53.7836 127.044 56.4601 125.022 58.0218C114.99 66.1013 104.989 78.445 98.0262 96.744C85.0644 130.808 94.0475 147.509 100.529 153.111L93.1357 150.253Z" fill="#F1ECE2"/>
<path d="M101.497 102.327C107.853 101.44 115.649 100.841 125.16 100.701C143.481 100.43 157.722 102.917 168.281 106.298C170.351 106.993 174.865 109.03 176.363 111.616C176.472 111.805 176.567 112.034 176.648 112.297C176.937 108.517 176.927 104.844 176.097 103.413C174.597 100.827 170.11 98.7842 168.054 98.0858C157.568 94.6869 143.439 92.1743 125.283 92.4054C117.386 92.5059 110.684 92.9298 105.016 93.5779C104.633 94.4293 104.257 95.2924 103.887 96.1666C103.015 98.231 102.218 100.288 101.497 102.327Z" fill="#FF1100"/>
<path d="M98.9404 110.639C99.6824 107.793 100.582 104.877 101.64 101.925C108.04 101.006 115.951 100.392 125.674 100.269C143.83 100.038 157.96 102.55 168.445 105.949C170.501 106.648 174.988 108.691 176.488 111.276C177.318 112.707 177.328 116.38 177.04 120.16C176.958 119.897 176.864 119.669 176.754 119.479C175.257 116.893 170.742 114.856 168.672 114.161C158.114 110.78 143.873 108.294 125.551 108.564C114.516 108.727 105.789 109.506 98.9404 110.639Z" fill="#FDBF41"/>
<path d="M177.499 126.98C177.431 126.791 177.355 126.623 177.271 126.477C175.77 123.891 171.284 121.848 169.228 121.15C158.742 117.751 144.613 115.238 126.457 115.469C113.984 115.628 104.492 116.594 97.3462 117.975C97.7799 115.456 98.3509 112.851 99.0593 110.186C105.934 109.011 114.779 108.207 126.066 108.064C144.222 107.832 158.351 110.345 168.836 113.744C170.892 114.442 175.379 116.486 176.88 119.071C177.638 120.379 177.712 123.558 177.499 126.98Z" fill="#F1ECE2"/>
<path opacity="0.3" d="M175.124 132.077C175.302 131.935 175.302 131.92 175.124 131.777C174.71 131.437 174.269 131.141 173.816 130.86C172.306 129.92 170.692 129.203 169.039 128.582C168.661 128.439 168.294 128.268 167.892 128.194C167.781 128.066 167.618 128.055 167.475 128.008C165.933 127.481 164.362 127.05 162.787 126.637C162.655 126.626 162.527 126.597 162.413 126.531C161.675 126.366 160.938 126.198 160.204 126.034C158.84 125.73 157.468 125.467 156.093 125.229C155.074 125.054 154.052 124.889 153.03 124.732C152.232 124.611 151.434 124.487 150.628 124.429C150.497 124.407 150.365 124.381 150.229 124.363C147.412 124.008 144.59 123.741 141.758 123.54C139.909 123.412 138.06 123.31 136.208 123.237C133.789 123.142 131.367 123.098 128.944 123.098C125.941 123.098 122.941 123.174 119.945 123.324C116.483 123.496 113.027 123.767 109.582 124.162C109.02 124.227 108.45 124.264 107.894 124.388C107.78 124.355 107.669 124.388 107.555 124.399C105.101 124.71 102.657 125.094 100.228 125.566C98.792 125.843 97.3635 126.151 95.9456 126.498L95.9171 126.545C95.9171 126.545 95.5502 131.964 96.3624 137.254C97.7625 137.594 99.1696 137.898 100.58 138.168C101.841 138.41 103.106 138.64 104.378 138.827C106.159 139.09 107.944 139.357 109.736 139.547C111.478 139.733 113.216 139.927 114.962 140.059C115.995 140.135 117.024 140.227 118.057 140.289C119.586 140.38 121.118 140.457 122.646 140.512C124.042 140.563 125.439 140.603 126.835 140.622C129.069 140.651 131.306 140.64 133.54 140.593C135.691 140.545 137.843 140.461 139.991 140.337C142.552 140.19 145.11 139.982 147.665 139.711C151.558 139.298 155.431 138.742 159.267 137.956C162.62 137.269 165.933 136.428 169.146 135.214C170.546 134.688 171.917 134.085 173.221 133.339C173.884 132.962 174.525 132.553 175.124 132.074V132.077Z" fill="url(#paint0_linear_488_10038)"/>
<path fill-rule="evenodd" clip-rule="evenodd" d="M96.4616 95.2782C81.7441 133.42 91.4576 149.067 98.719 152.526C98.526 152.467 102.877 154.866 106.92 155.061C112.681 155.282 119.374 151.924 121.396 150.384C122.007 149.898 122.614 149.401 123.217 148.89C166.153 148.861 177.246 139.194 177.78 135.461C177.882 134.996 177.916 134.51 177.907 134.095C178.098 130.785 178.007 127.749 177.27 126.479C175.77 123.893 171.283 121.85 169.227 121.151C158.742 117.752 144.613 115.24 126.457 115.471C113.983 115.63 104.491 116.595 97.346 117.977C98.5196 111.16 100.698 103.713 103.887 96.1673C113.827 72.6474 128.845 57.151 139.366 60.1481C139.376 60.1524 139.387 60.1567 139.397 60.161C139.405 60.1641 139.412 60.1671 139.419 60.1702C147.169 63.4211 149.345 76.8607 145.879 93.4084C148.399 93.7016 150.808 94.0514 153.108 94.4488C158.601 69.6846 151.616 58.8953 145.678 56.0668C145.678 56.0668 141.805 53.7178 136.875 53.3383C131.127 52.896 124.42 56.4756 122.399 58.0156C112.367 65.9831 103.425 77.2331 96.4616 95.2782ZM174.867 131.67C169.173 135.465 156.604 139.409 131.784 140.317C135.576 135.835 139.124 130.569 142.365 124.266C153.218 125.141 162.205 127.041 169.456 129.363C170.682 129.775 172.929 130.561 174.867 131.67ZM126.334 123.766C129.064 123.726 131.704 123.747 134.254 123.823C124.832 140.624 113.102 150.722 104.429 148.251L104.406 148.242L104.376 148.229C98.5171 145.772 95.8442 137.492 96.3856 126.448C103.667 124.992 113.42 123.957 126.334 123.766Z" fill="#007FFF"/>
<circle cx="68.1406" cy="105.609" r="41.8711" fill="#FF1100"/>
<path d="M58.8109 97.1543L63.0296 110.416H63.1915L67.4188 97.1543H71.5097L65.4927 114.609H60.737L54.7114 97.1543H58.8109Z" fill="#F3F3F4"/>
<path d="M81.1021 97.1543V114.609H77.4117V100.657H77.3094L73.3123 103.163V99.8901L77.6333 97.1543H81.1021Z" fill="#F3F3F4"/>
<defs>
<linearGradient id="paint0_linear_488_10038" x1="138.48" y1="121.149" x2="139.219" y2="137.522" gradientUnits="userSpaceOnUse">
<stop offset="0.16" stop-color="#191919"/>
<stop offset="0.97" stop-color="#191919" stop-opacity="0"/>
</linearGradient>
</defs>
</svg>
