<svg width="128" height="128" viewBox="0 0 128 128" fill="none" xmlns="http://www.w3.org/2000/svg">
<g filter="url(#filter0_ii_878_10535)">
<circle cx="64" cy="64" r="64" fill="#F4F4F0"/>
</g>
<mask id="mask0_878_10535" style="mask-type:alpha" maskUnits="userSpaceOnUse" x="0" y="0" width="128" height="128">
<circle cx="64" cy="64" r="64" fill="#D9D9D9"/>
</mask>
<g mask="url(#mask0_878_10535)">
<rect width="128" height="128" fill="url(#paint0_linear_878_10535)" fill-opacity="0.25"/>
<path d="M84.1392 11.0153H84.628L84.7196 11.1072L84.8113 11.1992C85.0251 11.4596 85.2084 11.7354 85.2084 12.0878C85.2084 12.6547 84.7807 13.2522 84.5058 13.7272C83.0852 15.9947 81.8479 18.3695 80.6717 20.775C80.1829 21.7862 79.7552 22.828 79.3733 23.8852C78.8845 25.356 78.4568 26.8116 77.8305 28.2364C80.8092 28.7727 83.7267 29.7532 86.3999 31.1934C90.0048 33.1699 93.0904 35.8664 95.901 38.8388C97.0008 40.0491 98.009 41.3514 98.956 42.6997C100.193 44.5842 101.232 46.622 102.103 48.7057C102.454 49.5024 102.668 50.3604 103.065 51.1417C104.165 50.6361 105.234 50.0846 106.364 49.6556C108.518 48.7669 110.748 47.9243 113.101 47.7404C114.124 47.7251 115.148 47.6638 116.171 47.7404C116.874 47.8323 117.714 48.2154 117.775 49.0121C117.851 49.5943 117.424 50.0233 116.889 50.1612C115.468 50.345 114.048 50.2071 112.643 50.4523C111.405 50.6515 110.183 50.8353 108.977 51.1724C107.128 51.5401 105.326 52.2142 103.676 53.1335C103.951 53.8689 104.088 54.6197 104.272 55.3704C104.547 56.3969 104.608 57.4541 104.944 58.4653C107.48 57.9444 110.214 57.8984 112.795 57.9138C114.644 57.9444 116.538 58.0057 118.31 58.6492C118.829 58.8637 119.44 59.2927 119.486 59.9055C119.593 60.4877 119.043 61.0699 118.478 61.0699C116.981 61.1925 115.346 60.7482 113.849 60.5797C113.086 60.5184 112.306 60.4877 111.543 60.4111C110.214 60.1813 108.808 60.2885 107.464 60.2579C106.701 60.2273 105.983 60.3958 105.234 60.4877C105.204 62.0505 105.54 63.5213 105.341 65.0841C105.173 66.2945 105.387 67.4589 105.127 68.6693C105.005 70.1708 104.929 71.6569 104.654 73.1584C104.47 74.905 103.997 76.6364 103.569 78.337C103.096 80.528 102.301 82.5963 101.568 84.7107C102.393 85.2929 103.401 85.584 104.333 85.9977C107.877 87.3766 111.054 89.828 113.956 92.2487C116.018 93.9341 117.958 95.8033 119.654 97.8716C121.502 100.078 123.427 102.407 124.878 104.904C126.008 106.835 126.696 108.934 127.154 111.125C127.261 111.691 127.307 112.274 127.352 112.856C127.383 113.438 127.536 113.99 127.521 114.572C127.521 115.491 127.566 116.426 127.475 117.33C127.337 118.065 127.322 118.785 127.139 119.49C126.879 120.471 126.528 121.436 126.253 122.416C126.039 123.152 125.779 123.826 125.29 124.423C124.847 124.423 124.404 124.515 124.023 124.286C123.717 123.948 123.717 123.519 123.87 123.106C124.328 121.834 124.664 120.532 125.092 119.245C125.535 117.82 125.413 116.181 125.428 114.71C125.458 111.906 124.71 109.087 123.488 106.574C122.037 103.908 119.929 101.411 117.989 99.082C116.858 97.6878 115.53 96.4314 114.231 95.1751C113.223 94.2865 112.184 93.4438 111.146 92.6011C109.756 91.5746 108.534 90.5174 107.067 89.6594C106.212 89.1538 105.341 88.6023 104.409 88.2346C103.508 88.8014 102.79 89.7054 102.072 90.4715C101.431 91.1609 100.896 91.9423 100.331 92.6931C100.086 92.8003 99.8114 92.9382 99.5365 92.9229C99.2921 92.8463 99.0477 92.6624 98.8186 92.5398C98.788 92.2947 98.7575 92.0496 98.7116 91.8044C99.1393 90.9617 99.6892 90.1957 100.331 89.5062C100.972 88.7555 101.66 88.0507 102.393 87.3919C101.538 86.8403 100.59 86.4726 99.7503 85.8904C99.4754 85.6759 99.1241 85.6299 99.2615 85.1856C100.041 82.7342 101.003 80.4207 101.568 77.8927C101.874 76.5138 102.24 75.1655 102.5 73.7713C102.744 71.9787 102.973 70.1708 103.08 68.3475C103.325 66.2485 103.233 64.1035 103.233 62.0045C103.203 61.6981 103.264 61.0546 102.989 60.8861C102.515 60.8708 102.011 61.024 101.538 61.1312C101.538 61.79 101.66 62.4335 101.706 63.077C101.797 65.1454 101.736 67.1831 101.232 69.2055C100.911 70.6611 100.316 71.994 99.6587 73.3423C98.8338 74.7212 98.0701 76.0541 96.9244 77.2032C96.1454 77.9693 95.4122 78.7354 94.5721 79.4248C94.3735 79.624 94.0833 79.7925 94.0985 80.1143C94.0527 81.5698 94.1749 83.0713 94.0222 84.5268C93.9152 85.4308 93.8541 86.3041 93.6556 87.1927C93.4723 88.0813 93.3653 88.9547 92.9529 89.782C92.5863 90.5021 92.3572 91.3907 91.6087 91.8044C90.9671 92.1721 90.1423 92.2487 89.4244 92.2181C87.9732 92.1415 86.7359 91.3907 85.6361 90.4868C84.6127 89.6135 83.5893 88.7708 82.8255 87.6524C82.4589 87.1008 82.1076 86.5339 81.7104 85.9977C80.5801 86.2888 79.5566 86.8097 78.411 87.0548C76.9751 87.3459 75.4629 87.7596 74.0117 87.7136C72.2857 87.7136 70.4985 87.6064 68.8335 87.1774C67.3671 86.7944 65.9465 86.3807 64.5564 85.7678C63.0595 85.0937 61.5625 84.4502 60.1725 83.5616C58.0645 82.198 55.8955 80.7884 53.5889 79.7619C52.4891 79.3023 51.374 78.9192 50.1673 79.1337C48.762 79.4095 47.4178 79.9151 45.9972 80.1602C44.6988 80.4054 43.3699 80.5126 42.0409 80.4207C41.3841 80.2981 40.7425 80.1143 40.101 79.9151C39.0164 79.3789 38.0083 78.6894 37.1529 77.8161C36.16 76.8202 35.1977 75.7784 34.3728 74.6293C33.8534 73.9092 33.4868 73.1278 33.0591 72.377C32.662 72.4843 32.2954 72.6528 31.9288 72.8367C30.3096 73.6487 28.6141 74.3075 26.9033 74.905C26.8269 75.6251 26.8574 76.3452 26.7963 77.0653C26.7352 77.2645 26.6436 77.4331 26.5367 77.6016C25.8951 78.3677 25.559 79.3023 24.9175 80.053C24.3676 80.7425 24.0315 81.4932 23.5886 82.2439C22.9776 83.2705 22.611 84.4962 22.2138 85.6146C21.8166 86.8097 21.3278 87.9894 21.0223 89.2151C20.5488 90.8545 20.1364 92.5092 19.7239 94.1486C19.3879 95.7267 18.8991 97.2894 18.6089 98.8828C18.4867 99.5263 18.3186 100.139 18.2423 100.783C18.1048 101.763 18.0437 102.805 17.7687 103.74C17.6771 104.092 17.4174 104.23 17.1425 104.444C16.8675 104.353 16.6078 104.276 16.3329 104.184C16.0885 103.464 16.1496 102.744 16.1954 102.008C16.3176 99.2812 17.1119 96.4927 17.7229 93.8268C18.2117 91.8657 18.6852 89.9046 19.2351 87.9588C19.724 86.3807 20.3655 84.8639 20.8543 83.2858C19.1435 83.8986 17.5396 84.9864 16.0732 86.0589C14.5915 87.0548 13.1098 88.1886 11.9184 89.5215C11.4754 89.9505 11.0324 90.3949 10.6352 90.8698C9.96314 91.6818 9.24522 92.4326 8.63421 93.2906C7.09142 95.3589 5.71666 97.5499 4.37245 99.7562C3.50176 101.212 2.64637 102.637 1.95899 104.184C1.27161 105.747 0.568951 107.356 0.125973 109.026C-0.378107 110.895 -1.01966 112.917 -0.958558 114.878C-0.958558 115.752 -0.805806 116.61 -0.729431 117.483C-0.63778 118.555 -0.317013 119.505 -0.0726115 120.562C0.217616 121.926 0.798078 123.228 1.50073 124.423C2.95187 126.66 4.81544 128.606 6.9234 130.245C8.03849 130.996 9.2605 131.747 10.5742 132.069C11.8573 132.544 13.2015 132.636 14.561 132.605C15.5997 132.574 16.6537 132.237 17.6313 131.854C18.5172 131.502 19.0977 130.858 19.7545 130.2C20.0142 129.924 20.2433 129.694 20.2433 129.28C20.2891 128.162 20.2433 127.013 20.1364 125.894C20.1058 125.481 19.8156 125.159 19.6018 124.822C19.0977 124.102 18.838 123.336 18.5019 122.539C18.059 121.466 17.6007 120.471 17.2647 119.367C17.005 118.525 16.8217 117.667 16.6078 116.809C16.0427 114.771 15.676 112.687 15.5691 110.588C15.508 109.363 15.7371 108.137 15.8135 106.896C15.8746 106.482 15.8441 105.793 16.2412 105.532C16.5009 105.41 16.8217 105.379 17.0966 105.333C17.5702 106.191 17.3869 107.034 17.341 107.984C17.0203 110.389 17.4785 112.703 18.0742 115.031C18.3797 116.318 18.7769 117.59 19.174 118.862C19.6323 120.256 20.228 121.543 20.839 122.861C21.1598 123.55 21.3737 124.286 21.7555 124.96C22.1527 125.649 22.0611 126.354 22.1985 127.12C22.3513 128.621 22.1374 130.169 22.4124 131.701C22.504 133.233 22.5804 134.75 22.8553 136.251C22.9928 137.247 23.0845 138.243 23.3136 139.224C23.5275 140.143 23.5427 141.124 23.8482 142.012C23.9399 142.349 24.2607 142.533 24.5203 142.732C25.7882 143.606 27.0255 144.571 28.4002 145.26C30.8137 146.532 33.3494 147.589 35.9461 148.417C38.0847 148.983 40.2079 149.734 42.377 150.148C44.2558 150.577 46.1652 150.883 48.0593 151.159C49.2508 151.42 50.4728 151.481 51.649 151.757C52.1683 151.879 52.6877 151.925 53.207 151.986C53.8944 152.063 54.5818 152.155 55.2692 152.277C56.5065 152.461 57.7743 152.553 59.0116 152.691C59.8364 152.814 60.6307 152.798 61.4556 152.814C63.7927 152.829 66.1451 152.86 68.4822 152.814C69.1084 152.814 69.7194 152.676 70.361 152.645C71.9191 152.599 73.4771 152.446 75.0352 152.308C76.2878 152.109 77.525 151.925 78.7929 151.864C80.244 151.695 81.7104 151.542 83.1616 151.358C84.6127 151.052 86.0791 150.975 87.5302 150.653C89.241 150.362 90.9366 149.949 92.6169 149.474C94.1749 149.152 95.7024 148.662 97.1994 148.156C97.9632 147.865 98.7269 147.605 99.4754 147.298C99.6892 147.191 99.9947 147.13 100.056 146.854C100.346 146.103 100.514 145.322 100.667 144.525C100.927 143.284 101.263 142.089 101.293 140.817C100.743 140.817 100.209 140.802 99.674 140.725C99.1393 140.618 98.62 140.465 98.1006 140.312C97.3063 140.082 96.5578 139.622 95.8552 139.193C95.2289 138.688 94.6943 138.105 94.1291 137.554C93.5639 137.002 93.0598 136.435 92.739 135.715C92.2044 134.566 92.2197 133.248 92.2503 132.023C92.2808 130.828 92.6168 129.786 92.8918 128.637C93.1515 127.61 93.4417 126.599 93.8694 125.634C94.4499 124.316 95.0609 122.968 95.8399 121.742C96.0538 121.39 96.2523 121.037 96.4509 120.67C95.9774 119.75 95.4122 118.908 94.9998 117.958C94.1444 115.997 93.5639 113.79 93.5945 111.645C93.5945 110.374 93.5792 109.087 93.6403 107.815C93.793 106.482 93.8847 105.165 94.1902 103.847C94.6637 100.446 95.9316 97.1209 97.4591 94.072C97.6424 93.7502 97.8868 93.4898 98.1464 93.2293C98.5894 93.2293 98.9866 93.1374 99.2157 93.6123C99.4143 94.1639 99.2004 94.8534 98.9866 95.3743C98.5283 96.2323 98.1617 97.0903 97.8715 98.0095C97.3063 99.8174 96.6037 101.487 96.344 103.372C96.2218 104.337 95.9774 105.302 95.8552 106.268C95.6413 108.259 95.5649 110.267 95.6413 112.258C95.8093 114.587 96.5578 116.824 97.7493 118.816C98.5283 118.142 99.0477 117.238 99.7962 116.533C101.354 114.832 103.203 113.484 105.127 112.212C106.181 111.508 107.327 111.033 108.518 110.573C109.511 110.19 110.535 110.037 111.589 109.914C112.184 109.853 112.917 109.868 113.422 110.251C113.666 110.42 113.681 110.711 113.605 110.987C113.452 111.324 113.147 111.492 112.826 111.645L112.688 111.676C111.253 111.661 109.801 112.197 108.488 112.718C103.875 114.924 100.086 118.586 97.5049 122.983C96.955 123.964 96.4204 124.944 95.9468 125.956C95.3205 127.288 94.954 128.805 94.5874 130.245C94.2513 131.578 94.1291 133.049 94.4346 134.398C94.6026 135.133 95.0914 135.577 95.5955 136.098C96.2829 136.772 96.8481 137.492 97.7035 137.952C98.8644 138.611 100.163 138.841 101.492 138.779C102.637 138.703 103.752 138.749 104.868 138.473C106.471 138.151 107.877 137.446 109.297 136.68C111.512 135.47 113.635 134.091 115.728 132.682C117.103 131.793 118.355 130.736 119.532 129.587C120.708 128.438 121.533 126.814 122.602 125.618C122.907 125.235 123.305 125.22 123.748 125.144C123.977 125.358 124.374 125.588 124.359 125.94C124.45 126.568 123.992 126.967 123.671 127.442C122.816 128.53 122.128 129.786 121.197 130.797C119.761 132.283 118.126 133.586 116.4 134.704C114.705 135.853 112.994 136.941 111.222 137.967C109.786 138.841 108.259 139.53 106.67 140.112C105.555 140.495 104.394 140.664 103.233 140.802C103.034 141.69 103.05 142.594 102.836 143.483C102.653 144.356 102.546 145.245 102.332 146.103C101.507 149.795 99.7962 153.427 98.0395 156.751C96.787 158.973 95.4733 161.179 93.9611 163.232C93.0445 164.55 92.128 165.852 91.0435 167.032C90.4172 167.783 89.7604 168.503 89.1036 169.238C87.3469 171.123 85.3612 172.808 83.4365 174.524C84.8724 174.509 86.3082 174.447 87.7441 174.524C88.6453 174.693 89.6077 174.953 90.3103 175.566C90.8144 176.025 91.2726 176.638 91.2268 177.358C91.2268 177.818 91.2879 178.416 91.0435 178.814C90.7227 179.488 90.0354 179.994 89.4855 180.484C90.4325 180.76 91.3796 180.944 92.2961 181.327C93.4875 181.848 94.6026 182.46 95.3053 183.594C96.1912 184.912 95.8705 186.704 94.7554 187.777C93.7625 188.696 92.3419 189.248 91.0741 189.677C90.6005 189.861 90.1117 189.983 89.6076 190.06C90.7991 190.765 92.1281 191.5 92.9071 192.695C93.4112 193.43 93.5028 194.442 92.9835 195.192C92.2197 196.326 90.9519 196.832 89.7451 197.337C88.9203 197.705 87.9885 197.843 87.1025 197.966C85.6972 198.011 84.2461 198.011 82.8408 197.966C81.466 197.736 80.0913 197.705 78.7165 197.521C77.0362 197.276 75.356 197.199 73.691 196.908C72.1329 196.755 70.6207 196.433 69.139 195.928C66.2062 195.1 63.3039 194.166 60.5085 192.894C59.0574 192.205 57.6826 191.577 56.4148 190.596C56.0329 190.55 55.6358 190.565 55.2844 190.749C53.7569 191.439 52.3516 192.297 50.7783 192.864C49.2049 193.492 47.4025 193.706 45.7528 194.105C44.8974 194.288 43.9961 194.35 43.1407 194.518C42.1937 194.717 41.2008 194.779 40.2537 195.009C38.6498 195.407 36.8321 195.315 35.1977 195.346C32.4634 195.407 29.7597 195.162 27.1477 194.334C25.3452 193.859 23.7108 192.802 22.8859 191.071C22.4582 190.228 22.4582 189.171 22.9776 188.359C23.5733 187.317 24.5509 186.919 25.3147 186.092C23.9552 185.295 22.3513 184.33 21.5111 182.951C20.9001 182.077 20.9154 180.775 21.6333 179.963C22.1374 179.366 22.9165 178.86 23.6802 178.676C24.6731 178.37 25.8187 178.569 26.8727 178.492C26.5061 178.109 26.109 177.757 25.7423 177.374C24.9022 176.531 24.3065 175.505 24.1385 174.309C24.0468 173.605 24.3065 172.915 24.7647 172.394C25.3299 171.843 26.2006 171.567 26.9644 171.582C28.0794 171.582 29.2098 171.552 30.3249 171.613C31.5774 171.827 32.7842 172.18 33.9756 172.624C35.2282 173.084 36.4808 173.574 37.6569 174.218C35.6406 171.72 33.6243 169.162 31.8982 166.434C30.9359 164.872 29.9583 163.339 29.1487 161.685C28.1406 159.831 27.2546 157.931 26.3686 156.031C25.4827 154.024 24.5967 152.017 23.9093 149.918C23.2678 148.11 22.8248 146.226 22.336 144.372C21.8778 142.61 21.5417 140.817 21.2056 139.04C21.0834 138.121 20.9612 137.217 20.7932 136.313C20.6557 135.041 20.5335 133.754 20.4572 132.467C19.8767 132.881 19.3726 133.294 18.7158 133.57C17.2036 134.214 15.6302 134.673 13.9805 134.689C11.4907 134.535 9.09246 133.984 6.95395 132.62C5.12093 131.456 3.44067 130.016 2.05063 128.346C1.10358 127.181 0.171802 126.017 -0.500304 124.669C-1.21823 123.198 -1.66122 121.696 -2.13475 120.149C-2.42498 119.092 -2.69994 118.08 -2.73049 116.977C-2.74576 116.272 -2.99016 115.721 -2.82213 115.031C-2.73048 114.664 -2.7152 114.311 -2.7152 113.928C-2.7152 112.81 -2.56246 111.707 -2.2875 110.619C-1.66122 107.478 -0.500315 104.582 0.920272 101.733C1.80623 100.017 2.87549 98.3772 3.88365 96.7379C4.84598 95.1751 5.85415 93.643 6.98451 92.1874C8.48147 90.2416 10.0548 88.3418 11.8878 86.7024C12.7738 85.9517 13.7208 85.2469 14.6526 84.5575C16.6995 83.1632 18.6547 81.8303 21.0223 81.0029C21.5875 80.7884 22.1221 80.6965 22.4582 80.1449C23.115 79.0724 23.8482 78.0766 24.5814 77.0653C24.9633 76.5444 24.9175 76.0082 24.9481 75.3953C23.8788 75.3953 22.8554 75.6098 21.8014 75.5179C20.5641 75.3953 19.4032 74.6906 18.8533 73.5568C18.4103 72.5456 18.3797 71.3352 18.7922 70.324C19.3726 68.8225 20.4266 67.4742 21.4959 66.2945C22.8859 64.6858 24.3523 63.1383 25.9104 61.6981C26.613 60.978 27.4226 60.3652 28.1558 59.6604C28.3086 59.4918 28.5072 59.3846 28.4461 59.1088C27.9114 55.8454 28.6141 52.4287 30.1569 49.5177C30.5082 48.7823 31.0123 48.1388 31.272 47.388C28.0947 45.1205 24.5203 43.8795 20.7627 42.9755C20.1517 42.8529 19.4948 42.7763 18.9144 42.5159C18.563 42.3473 18.2575 42.0409 18.3034 41.6119C18.227 41.0297 18.8533 40.6313 19.3421 40.5394C20.7474 40.3556 22.0305 40.7233 23.3594 41.1216C25.5743 41.8724 27.6976 42.8989 29.6833 44.1246C30.5693 44.6762 31.3789 45.335 32.219 45.9478C32.8147 45.2584 33.3035 44.4923 33.9298 43.8335C34.0978 43.619 34.327 43.4658 34.2964 43.1594C34.2659 42.5772 33.7312 42.0562 33.5174 41.5047C32.6009 39.5129 31.3025 37.7663 29.943 36.0503C28.9501 34.8246 27.774 34.0279 26.613 32.9554C26.0631 32.4345 25.3757 32.0361 24.8869 31.4692C24.5662 31.1322 24.4592 30.4274 24.8869 30.1363C25.2383 29.7686 25.7882 29.8145 26.2312 29.9371C27.4532 30.4121 28.553 31.1475 29.4695 32.0974C31.2719 33.9053 32.7995 36.0043 34.0215 38.2412C34.6936 39.4976 35.1671 40.8152 35.7323 42.1175C36.7099 41.6579 37.657 41.2136 38.7109 40.9531C38.9248 40.1257 39.0775 39.2218 39.4594 38.471C39.9482 37.4292 40.5592 36.464 41.4146 35.6979C42.3006 34.8705 43.4004 34.319 44.5155 33.9053C44.9737 33.7215 45.4625 33.7061 45.9513 33.6908C46.5776 32.3119 47.5705 30.8104 48.9453 30.0903C49.9229 29.5234 50.931 29.1097 52.0614 28.9872C52.9321 28.9565 53.8028 28.9412 54.6582 28.9872C55.8344 29.171 56.9647 29.5387 58.034 30.075C58.5686 29.8145 59.1491 29.5387 59.7295 29.4315C60.8904 29.2323 62.0055 28.8953 63.1664 28.6961C64.3884 28.3896 65.641 28.2977 66.8783 28.0985C67.8712 28.0219 68.864 28.0985 69.8569 28.0373C69.3987 26.5511 69.0932 25.1109 68.4669 23.6707C67.9017 22.445 67.0005 21.3419 66.1603 20.2847C65.5035 19.5033 64.8925 18.7066 64.0829 18.0784C63.0595 17.1898 62.0055 16.3624 60.8599 15.6577C60.3863 15.3512 59.9128 15.1214 59.5309 14.6924C59.2102 14.4013 59.256 13.8191 59.3629 13.4361C59.592 13.1756 59.9434 12.8998 60.2947 12.8845C61.3334 12.7619 62.4485 13.2675 63.2886 13.8191C64.9842 15.0295 66.3284 16.5923 67.5351 18.2776C68.4058 19.6106 69.1543 21.0201 69.8264 22.445C70.7887 24.5287 71.3233 26.735 71.6747 29.0025C71.3844 29.3702 71.2317 29.8145 70.6818 29.7992C69.3528 29.8452 68.0239 29.7992 66.6797 29.9371C64.3884 30.2895 62.0972 30.8411 59.8364 31.4233C60.6002 32.1587 61.2723 32.9247 61.8069 33.844C62.4026 34.9012 62.8304 35.9737 63.0442 37.1687C63.2122 38.2872 63.1359 39.4363 63.1359 40.5701C63.1359 41.52 62.9831 42.4546 62.7845 43.3892C62.5707 44.3544 62.1888 45.2431 61.9291 46.193C62.9831 46.9131 63.9149 47.7251 64.6023 48.8129C64.9536 49.3492 65.198 49.916 65.4729 50.5136C65.7785 49.3032 66.1451 48.1388 66.6339 46.9897C66.9852 46.0398 67.5351 45.2431 68.0086 44.3697C69.3528 42.0409 70.7429 39.8959 72.7592 38.088C73.5993 37.3986 74.5006 36.7551 75.4171 36.1575C77.2654 35.1923 79.0984 34.4262 81.2216 34.3649C82.9172 34.2883 84.6585 34.7173 86.2471 35.2842C87.9732 35.8971 89.3021 37.1534 90.3714 38.6243C90.9366 39.4056 91.3643 40.3249 91.7156 41.2136C91.96 41.903 92.0211 42.7916 92.4488 43.3892C93.2737 43.619 94.0833 43.8335 94.8165 44.2778C95.4122 44.8907 95.9774 45.4576 96.3745 46.2236C96.6189 46.6986 96.7564 47.1889 96.8939 47.6945C96.8786 48.5678 96.8939 49.487 96.6189 50.3297C96.3134 51.3103 95.8093 52.1376 95.3358 53.0416C96.0843 53.3327 96.8328 53.6544 97.5507 54.0068C97.9631 53.823 98.3908 53.6544 98.7727 53.4246C99.5518 52.9497 100.377 52.5513 101.156 52.0763C100.652 50.0386 99.6587 48.0622 98.6658 46.2083C98.2381 45.4116 97.8562 44.6149 97.3369 43.8641C96.68 42.8223 95.9316 41.8264 95.0914 40.9225C94.068 39.85 93.1057 38.7009 92.0059 37.705C90.6005 36.4486 89.1952 35.1923 87.6372 34.1351C83.8031 31.6071 79.358 29.9984 74.7755 29.5847C74.195 29.4928 73.5993 29.5081 73.0341 29.4162C72.5148 29.2936 72.7592 28.7114 72.7439 28.3284C72.973 28.1445 73.1563 27.9453 73.4618 27.9147C74.4089 27.8228 75.3865 27.9453 76.3336 27.9453C76.4863 26.5664 77.1126 25.402 77.4792 24.0844C77.7542 23.2877 77.9069 22.4756 78.136 21.6789C78.7012 19.488 79.4344 17.297 80.4579 15.2746C81.0078 14.1102 81.5271 13.0071 82.352 12.0112C82.8408 11.475 83.406 11.0306 84.1544 11L84.1392 11.0153Z" fill="black"/>
<path d="M72.7052 28.2393C72.7052 28.6074 72.4747 29.2055 72.9971 29.3283C73.581 29.4203 74.165 29.4049 74.7489 29.497C79.3435 29.9111 83.8305 31.5216 87.6875 34.0523C89.2549 35.1107 90.6686 36.3837 92.0824 37.6261C93.1887 38.623 94.1568 39.7581 95.1864 40.847C95.4322 41.798 96.0469 42.3962 96.6001 43.2398C96.8613 43.6079 96.9843 43.7306 97.4606 43.7766C97.9677 44.5282 98.3673 45.3257 98.7975 46.1233C99.7963 47.9639 100.795 49.9578 101.302 51.9977C100.519 52.4732 99.6888 52.8873 98.9051 53.3475C98.736 53.2248 98.4902 53.1481 98.4287 52.9334C98.229 52.2738 98.1829 51.5683 98.0292 50.8934C97.7526 49.7584 97.5682 48.6541 96.9843 47.6264C96.846 47.1203 96.7077 46.6141 96.4618 46.154C96.0623 45.3871 95.4937 44.8196 94.8944 44.2061C94.0954 42.933 93.0812 41.8747 91.775 41.1385C91.4062 40.2335 90.9913 39.3286 90.4228 38.5464C89.3471 37.0893 88.0102 35.8162 86.2738 35.2027C84.6757 34.6352 82.9239 34.2057 81.2182 34.2824C79.0823 34.3438 77.2383 35.0953 75.3789 36.0769C74.4877 36.0463 73.6118 36.0616 72.7359 36.1997C71.0763 36.4911 69.5089 36.0463 67.8032 36.1076C66.451 36.0003 65.1756 35.8315 63.9616 35.172C63.1933 34.7425 62.425 34.2517 61.6874 33.7763C61.1495 32.8406 60.4734 32.0891 59.7051 31.3529C61.9793 30.77 64.2689 30.2332 66.5893 29.8651C67.9262 29.7424 69.2631 29.7731 70.6153 29.727C71.1531 29.727 71.3222 29.2976 71.6141 28.9295C71.8446 28.8988 72.0905 28.8835 72.321 28.8681C72.4593 28.6687 72.5822 28.454 72.7205 28.2546L72.7052 28.2393Z" fill="#63B2B7"/>
<path d="M53.0472 30.8709C54.8419 30.7935 56.6974 31.3046 58.0967 32.4817C59.4808 33.5349 60.3933 35.0528 60.9105 36.7256C61.1842 37.6239 61.2146 38.5532 61.1994 39.4825C58.7659 39.3586 56.4237 39.6064 53.9902 39.2502C52.089 39.0488 50.2334 38.5997 48.4843 37.7943C47.587 37.3606 46.6592 37.0508 45.8379 36.4313C46.2942 35.6569 46.6288 34.6501 47.3436 34.1235C48.2258 33.38 48.6821 32.4817 49.6859 31.9086C50.6897 31.351 51.876 30.8709 53.032 30.8864L53.0472 30.8709Z" fill="#8F75BA"/>
<path d="M61.9492 33.8584C62.6876 34.3184 63.4259 34.7932 64.1793 35.2086C65.3697 35.8467 66.6203 35.995 67.9464 36.1137C69.0162 36.3808 70.1162 36.2473 71.186 36.455C71.8792 36.5589 71.834 37.5975 71.2162 37.7756C70.2367 38.0723 69.0765 37.9685 68.0669 37.9388C66.9067 37.8498 65.6711 37.8794 64.5862 37.4788C64.119 37.3156 63.6519 37.1821 63.1697 37.093C62.9588 35.9357 62.5519 34.897 61.9492 33.8732V33.8584Z" fill="#316B8B"/>
<path d="M67.9079 36.1558C69.6038 36.0935 71.1622 36.5454 72.8123 36.2493C73.6832 36.0935 74.554 36.0935 75.4402 36.1247C74.5235 36.7323 73.622 37.3867 72.7817 38.0878C70.765 39.9263 69.3746 42.1076 68.0301 44.4758C67.5565 45.3639 67.0064 46.1897 66.655 47.1401C66.1661 48.3086 65.7994 49.4928 65.4939 50.7236C65.2188 50.1316 64.9897 49.5551 64.623 48.9942C63.9354 47.888 62.9882 47.0622 61.9492 46.3299C62.209 45.3639 62.5909 44.4603 62.8048 43.4787C63.0035 42.5283 63.1715 41.5934 63.1562 40.6119C63.1562 39.4745 63.2173 38.2904 63.0646 37.153C63.5535 37.2465 64.0271 37.3867 64.5008 37.5581C65.6008 37.9788 66.8536 37.9632 68.0301 38.0411C69.069 38.0722 70.2302 38.1813 71.2233 37.8697C71.8497 37.6827 71.8956 36.5921 71.1928 36.483C70.108 36.2649 68.9926 36.4051 67.9079 36.1247V36.1558Z" fill="#428297"/>
<path d="M43.5876 36.1238C43.253 37.6983 42.6904 39.211 42.4318 40.8009C42.3558 40.9707 42.2798 41.1405 42.2037 41.2949C41.8387 41.372 41.3673 41.372 41.0327 41.5727C40.6982 41.9277 40.4853 42.4371 40.2572 42.8539C40.1507 41.6653 40.2267 40.5076 40.6982 39.3962C41.2761 37.9916 42.1581 36.7104 43.5876 36.1084V36.1238Z" fill="#8F75BA"/>
<path d="M45.5828 36.4824C46.4178 37.0839 47.3457 37.3696 48.2736 37.8057C50.0521 38.5876 51.9387 39.0237 53.8718 39.2192C56.3462 39.565 58.7278 39.3244 61.2021 39.4447C61.2021 39.8056 61.1712 40.1816 61.1557 40.5424C59.965 40.6477 58.7587 40.5876 57.5679 40.5876C55.9596 40.5876 54.3822 40.4071 52.7738 40.2567C51.4748 40.0763 50.1913 39.8357 48.9386 39.4447C47.6086 39.0087 46.3251 38.7079 45.0879 38.0463C45.1961 37.5049 45.3353 36.9786 45.5982 36.4824H45.5828Z" fill="#5F559A"/>
<path d="M80.9644 36.5013C82.922 36.4091 84.8174 36.6395 86.5576 37.546C88.1268 38.4525 89.3697 39.9735 90.0222 41.6481C90.8146 43.8298 91.3895 45.9961 91.1098 48.3314C89.2143 48.5465 87.2412 48.5004 85.3457 48.316C83.7609 48.0549 82.1762 47.8705 80.607 47.5171C78.7426 47.1791 76.9248 46.4878 75.1226 45.8886C73.6 45.274 72.0308 44.6748 70.5703 43.9374C70.6946 43.7069 70.8189 43.4611 70.9587 43.2306C71.2539 43.5686 71.5647 43.8913 71.9531 44.1217C73.4291 45.0435 74.9827 45.5813 76.6141 46.1497C78.059 46.626 79.5661 46.9333 81.042 47.2406C82.8443 47.5632 84.6931 47.6554 86.5109 47.4557C87.3965 47.3635 88.2511 47.2713 89.09 46.9487C89.6028 45.3355 89.5406 43.5533 88.8725 41.9861C88.3132 40.7417 87.3965 39.6355 86.2158 38.9287C85.0039 38.222 83.7299 37.6843 82.316 37.5614C80.203 37.377 78.1833 37.8533 76.2878 38.7597C74.7963 39.3436 73.6155 40.3268 72.4036 41.3562C73.3825 40.1118 74.5788 39.067 75.946 38.2527C77.422 37.3463 79.1932 36.5013 80.9644 36.5166V36.5013Z" fill="#5F559A"/>
<path d="M82.2337 37.6452C83.6393 37.7846 84.9058 38.3111 86.1105 39.0235C87.2998 39.7359 88.1956 40.851 88.7516 42.1054C89.4157 43.6851 89.4775 45.4816 88.9678 47.1077C88.1338 47.4329 87.2843 47.5103 86.4039 47.6187C84.5968 47.8201 82.7434 47.7272 80.9673 47.4019C79.4845 47.0922 77.9863 46.7825 76.5654 46.3024C74.9437 45.7293 73.3991 45.1873 71.9319 44.2581C71.5457 44.0103 71.2523 43.6851 70.9434 43.3599C71.3913 42.7094 71.8855 42.0744 72.3952 41.4705C73.5999 40.4328 74.7738 39.4572 76.2565 38.8532C78.1408 37.9549 80.1487 37.4594 82.2492 37.6452H82.2337Z" fill="#8F75BA"/>
<path d="M44.6258 39.8555C45.1433 40.0211 45.6303 40.2619 46.1326 40.4576C48.096 41.2253 50.1203 41.7221 52.175 42.1285C52.1903 42.8812 52.1446 43.7242 52.3425 44.4618C52.5251 45.1393 52.7078 45.8016 53.073 46.4037C53.4383 47.0209 53.9406 47.4725 54.4581 47.9543C53.6666 48.737 52.8295 49.4446 52.175 50.3628C51.9163 50.5435 51.6728 50.7843 51.3227 50.7091C50.1355 50.5284 48.994 49.8811 48.1264 49.0682C47.0458 48.1048 46.3152 46.8855 45.7216 45.5758C45.2955 44.5823 44.5193 44.0403 44.367 42.9414C44.3214 41.9479 44.2909 40.8189 44.641 39.8705L44.6258 39.8555Z" fill="#F3D4B4"/>
<path d="M42.5285 40.6045C42.3004 42.1583 42.2841 43.8072 42.6589 45.3292C42.9359 46.5659 43.5061 47.6599 43.9623 48.849C43.6039 48.516 43.278 48.1672 42.9847 47.7867C42.333 46.9306 41.6487 46.2012 41.1925 45.2182C40.8177 44.4255 40.3778 43.5852 40.2148 42.7132C40.4592 42.2692 40.6873 41.746 41.0458 41.3972C41.388 41.207 41.8931 41.1911 42.3004 41.1118C42.3819 40.9374 42.4633 40.763 42.5448 40.6045H42.5285Z" fill="#5F559A"/>
<path d="M95.3199 40.9795C96.1555 41.9008 96.8999 42.9157 97.5532 43.9775C97.0822 43.9306 96.9759 43.8057 96.7024 43.431C96.1707 42.5722 95.5478 41.9632 95.3047 40.9951L95.3199 40.9795Z" fill="#8EA8AA"/>
<path d="M91.9297 41.3535C93.1998 42.073 94.1745 43.1073 94.9277 44.3515C94.204 43.9168 93.4361 43.7069 92.6386 43.4821C92.2251 42.8975 92.166 42.0281 91.9297 41.3535Z" fill="#428297"/>
<path d="M53.7135 42.1045C55.1654 42.2584 56.6174 42.4431 58.0851 42.4277C58.2587 43.3666 58.2903 44.5057 57.8169 45.3676C57.4381 46.0756 56.6647 46.5528 55.8598 46.599C55.197 46.6452 54.6604 46.0449 54.3448 45.5369C53.6819 44.4595 53.6661 43.3051 53.7292 42.1045H53.7135Z" fill="#FF785B"/>
<path d="M59.7518 42.5144C60.1102 42.4659 60.4687 42.4821 60.8271 42.4821C60.6968 43.386 60.3872 44.2738 60.0776 45.1132C59.9147 45.549 59.654 45.9041 59.3281 46.227C59.4585 45.6782 59.654 45.1293 59.7355 44.5644C59.8332 43.8703 59.7355 43.1923 59.7518 42.4982V42.5144Z" fill="#8F8A84"/>
<path d="M59.7107 42.4954C59.9586 42.4954 60.2066 42.4954 60.4546 42.4795C60.3306 43.0536 60.2531 43.5798 59.7727 43.9785C59.7107 43.4841 59.6952 43.0057 59.7107 42.5114V42.4954Z" fill="#ECCFAF"/>
<path d="M44.3398 42.8535C44.4859 43.9916 45.2311 44.5685 45.6401 45.5819C46.2099 46.9382 46.8966 48.1855 47.9485 49.1989C48.7813 50.0407 49.8771 50.7111 51.0167 50.8982C51.3527 50.9606 51.5865 50.7267 51.8348 50.5396C51.2504 51.3036 50.7537 52.1299 50.2569 52.9718C49.8479 52.8626 49.5118 52.6911 49.1612 52.4417C47.0427 50.9294 45.684 48.6064 44.9242 46.034C44.6613 44.9738 44.3691 43.976 44.3398 42.8691V42.8535Z" fill="#A19B95"/>
<path d="M38.689 43.2295C39.0538 44.0657 39.2362 44.9476 39.6466 45.7686C40.3154 47.2282 41.2882 48.4141 42.2914 49.6608C42.9298 50.4667 43.7506 50.9076 44.6018 51.4549C45.073 51.759 45.5746 51.9871 46.061 52.2607C46.6538 52.5952 47.0794 53.0514 47.6114 53.4619C48.2346 53.9484 48.9946 54.3133 49.6786 54.7238C49.481 55.4232 49.0858 56.2746 49.2682 56.9892C49.4202 57.7646 50.773 57.8559 51.0314 57.1261C51.3354 56.3811 51.4418 55.5752 51.7914 54.8302C52.521 53.2794 53.5545 51.8654 54.6945 50.6035C55.9257 49.3872 57.4001 48.3381 59.0721 47.8363C59.5585 47.6995 60.1361 47.4866 60.6225 47.6539C61.8081 48.0036 62.7657 49.1287 63.3281 50.193C63.3737 50.4819 63.4041 50.7707 63.4497 51.0596C62.6745 50.938 61.8233 50.6795 61.0633 50.9228C60.2729 51.166 59.5433 51.7286 58.9657 52.3064C57.7649 53.5531 56.9137 55.0431 56.3057 56.6395C55.9561 57.6582 55.3785 58.4336 55.6065 59.5739C55.7281 60.395 55.0745 61.0335 54.6489 61.6721C54.0561 62.5539 53.2809 63.2077 52.5057 63.9071C52.0041 64.3936 51.4721 64.8346 50.8641 65.1843C49.8762 65.7468 48.949 66.4918 47.8242 66.7047C47.2162 66.8263 46.4714 66.9327 45.8634 66.7047C45.0882 66.3854 44.5106 65.686 44.085 64.9866C43.4922 63.9679 42.9754 62.9188 42.565 61.8241C42.185 60.8511 41.9418 59.8476 41.5314 58.8745C40.8474 57.1413 39.753 55.4992 38.6435 54.0092C38.3091 53.5075 38.0507 53.021 37.5187 52.7017C36.6675 52.1847 35.6795 51.835 34.7371 51.5309C33.8251 51.2269 32.9131 51.166 31.9707 51.0596C32.0467 50.7707 32.1075 50.4819 32.1987 50.2082C33.0499 48.7182 33.9315 47.1978 35.0107 45.8446C35.9683 44.6739 37.1387 43.5792 38.6587 43.2295H38.689Z" fill="#403D9B"/>
<path d="M69.5794 45.4785C70.6367 45.9069 71.6465 46.3965 72.7038 46.8401C74.6289 47.651 76.6171 48.3241 78.6369 48.8749C79.3312 49.0279 80.0254 49.2115 80.7197 49.4256C80.6882 50.3742 80.6566 51.338 80.7197 52.2865C80.8618 53.3116 81.1616 54.2907 81.8243 55.1321C81.9505 55.3463 82.0768 55.5758 82.1872 55.79C81.4141 56.4632 80.5304 56.9374 79.631 57.427C78.2897 58.1154 76.838 58.6509 75.3389 58.8804C73.619 59.1252 71.8517 58.8804 70.3684 57.9625C69.5321 57.4576 69.0114 56.6008 68.4591 55.8359C67.7648 54.8262 67.0863 53.5258 67.2125 52.2865C67.2441 51.7205 67.3072 51.1697 67.3703 50.6037C67.7648 48.8749 68.5853 46.9625 69.5794 45.4785Z" fill="#F3D4B4"/>
<path d="M92.7731 45.4785C94.2284 45.7945 95.3452 47.1034 95.2944 48.4425C95.396 49.9019 94.4822 51.3613 93.653 52.5649C92.9423 52.61 92.2654 52.61 91.5547 52.5649C91.7578 51.6923 92.1977 50.8798 92.3839 50.0072C92.5531 49.2549 92.7731 48.4876 92.79 47.7203C92.8069 46.9831 92.7562 46.2458 92.79 45.5086L92.7731 45.4785Z" fill="#5F559A"/>
<path d="M96.9702 47.7401C97.6032 48.7152 97.803 49.7631 98.1028 50.84C98.2694 51.4804 98.3027 52.1498 98.5359 52.7756C98.6025 52.9939 98.8523 53.0521 99.0522 53.1685C98.6191 53.3869 98.1694 53.5469 97.7197 53.7216C96.9369 53.3869 96.1208 53.0812 95.3047 52.8047C95.821 51.9461 96.3706 51.1747 96.7038 50.2288C96.9869 49.4283 96.9703 48.5551 97.0036 47.7256L96.9702 47.7401Z" fill="#428297"/>
<path d="M82.3745 49.6006C83.2949 49.6974 84.1862 49.9232 85.1066 50.0684C85.6326 50.1329 86.1585 50.1329 86.6845 50.2136C86.6114 50.6169 86.5968 51.004 86.3631 51.3589C85.9832 51.9397 85.5011 52.4559 85.0774 53.0044C84.5222 53.6496 84.1569 54.3271 83.2657 54.4723C82.7398 53.9077 82.4622 53.1495 82.3307 52.3591C82.1846 51.4719 82.0823 50.4878 82.3745 49.6167V49.6006Z" fill="#FF785B"/>
<path d="M31.8506 50.0072C31.7588 50.3168 31.6975 50.6263 31.621 50.9196C32.5702 51.05 33.5042 51.1152 34.4075 51.4247C35.3568 51.7506 36.352 52.1091 37.2094 52.6793C37.7453 53.0378 38.0056 53.5429 38.3424 54.0806C37.9137 53.6569 37.2706 53.0052 36.6429 53.0704C36.0611 53.217 35.5405 53.7384 35.0659 54.0969C34.7444 53.771 34.4228 53.4777 33.9635 53.3636C33.1674 53.1681 32.3099 52.9726 31.4832 53.0215C31.0545 53.0378 30.7942 53.3148 30.4727 53.5592C30.7483 52.2883 31.2535 51.1152 31.8353 49.9746L31.8506 50.0072Z" fill="#1F2576"/>
<path d="M63.148 49.9746C63.6514 50.9307 63.8439 51.9339 64.1993 52.9527C63.4145 52.9997 62.6741 52.8116 61.8893 52.7019C61.4155 52.6235 61.0157 52.9527 60.6751 53.2662C59.6978 54.191 58.9574 55.4292 58.4391 56.6988C58.0985 57.4982 57.8468 58.3446 57.4766 59.144C57.2989 59.5045 57.0768 59.9277 56.677 60.0531C56.3068 60.2098 55.9366 59.865 55.6256 59.6769C55.4183 58.5014 55.9662 57.7177 56.3068 56.6518C56.8991 54.9903 57.7283 53.4543 58.8981 52.1847C59.4608 51.589 60.1716 51.0091 60.9416 50.7583C61.682 50.5075 62.5112 50.7583 63.2664 50.8994C63.222 50.6016 63.1924 50.3038 63.148 50.006V49.9746Z" fill="#1F2576"/>
<path d="M86.8202 50.3654H87.06C86.8351 51.5186 86.5353 52.6086 85.9208 53.5722C85.591 54.0777 85.1113 54.5832 84.5567 54.7886C84.092 54.9465 83.7172 54.757 83.3125 54.52C84.2119 54.3779 84.5867 53.7144 85.1713 53.0825C85.606 52.5454 86.1006 52.0557 86.4904 51.4712C86.7152 51.1395 86.7302 50.7445 86.8202 50.3496V50.3654Z" fill="#A8574A"/>
<path d="M88.6225 50.0831C89.2315 49.9301 89.8092 49.9641 90.4338 50.0321C90.2933 51.0354 89.8873 52.0727 89.3564 52.9229C88.9973 53.484 88.3883 53.5691 87.8105 53.7221C87.9823 52.8379 88.3258 52.0387 88.4351 51.1544C88.482 50.7973 88.5288 50.4402 88.6069 50.1001L88.6225 50.0831Z" fill="#A19B95"/>
<path d="M67.6561 50.7379C67.595 51.3035 67.5338 51.8537 67.5032 52.4192C67.3808 53.6573 68.0385 54.9564 68.7116 55.9652C69.2469 56.7294 69.7517 57.5853 70.5624 58.0897C72.0002 59.0068 73.7133 59.2513 75.3806 59.0068C76.8337 58.7775 78.2409 58.2426 79.541 57.5548C80.4129 57.0657 81.2695 56.5918 82.019 55.9193C81.8966 55.7054 81.7895 55.4761 81.6672 55.2621C82.0802 55.6289 82.5085 55.9652 82.9367 56.3014C81.9425 56.9587 80.8718 57.4172 79.8011 57.9674C78.0421 58.8845 76.1148 59.664 74.1722 60.0767C73.025 60.2601 71.8931 60.4435 70.7306 60.4282C70.3023 60.4129 70.027 60.6422 69.6752 60.8409C69.6293 60.4741 69.4916 60.1225 69.3081 59.8016C68.9563 59.236 68.5127 58.7317 68.2527 58.105C67.7632 56.974 67.1973 55.7971 67.1973 54.5437C67.2279 53.2446 67.3043 51.976 67.6714 50.7227L67.6561 50.7379Z" fill="#A19B95"/>
<path d="M62.0294 53.0284C62.8282 53.1504 63.5963 53.3333 64.4258 53.2723C64.6255 53.8212 64.7791 54.3701 64.9174 54.9342C65.1171 55.7881 65.5165 56.5656 65.7776 57.4042C66.1002 58.4257 66.6071 59.3558 67.1755 60.2706C67.4059 60.6213 67.6978 61.0329 68.0665 61.2311C68.4659 61.4293 69.0803 61.3379 69.28 60.911C69.4029 60.5298 69.3261 60.1639 69.2032 59.7827C69.3876 60.1029 69.5258 60.4536 69.5719 60.8195C69.6487 61.2159 69.5719 61.6733 69.9867 61.902C70.6933 62.2679 71.6918 62.1307 72.4599 62.1154C74.6873 62.0087 76.6536 61.3226 78.7274 60.5908C79.0961 60.4993 79.4647 60.4383 79.818 60.3773C79.603 60.6975 79.3265 61.0482 79.219 61.4293C79.1729 61.7495 79.265 62.1459 79.603 62.2832C80.0178 62.4204 80.5247 62.2832 80.9241 62.2069C80.5554 62.4509 80.1406 62.5119 79.7259 62.6338C79.2958 62.6796 79.3418 63.3962 79.3265 63.7011C79.3572 64.7074 80.1714 65.3477 81.047 65.6832C81.6921 65.9119 82.3066 65.7899 82.9364 65.5764C81.4771 66.3235 80.0331 67.1316 78.6506 68.0159C78.0207 68.4276 77.3602 68.7935 76.6843 69.1137C75.0713 69.8608 73.5813 70.6384 71.8608 71.0805C70.4475 71.4769 69.0035 71.4312 67.5442 71.3245C64.9481 71.111 62.5978 69.9065 60.5393 68.3513C59.8634 67.833 59.3104 67.2536 58.7113 66.659C58.0201 65.9576 57.3442 65.2715 56.7911 64.4482C56.5454 64.0975 56.3149 63.7011 56.0231 63.3809C55.6698 62.8473 54.702 63.2894 54.702 63.8536C54.6405 64.4939 55.086 65.1343 55.424 65.6527C56.5761 67.2841 57.9433 68.7325 59.4794 70.0132C61.1231 71.2787 62.905 72.3155 64.9174 72.8796C66.2845 73.3065 67.6671 73.3523 69.0957 73.459C70.4782 73.459 71.8915 73.2913 73.2126 72.8339C74.1343 72.5442 74.9945 72.102 75.9162 71.8123C76.3924 73.4895 76.8994 75.1514 77.3756 76.8133C77.8364 78.4599 78.6813 79.8931 79.4033 81.5245C79.7873 82.4241 80.2942 83.2626 80.7244 84.1317C80.1406 84.4824 79.5723 84.6958 78.9117 84.8178C77.5292 85.0922 76.3617 85.5344 74.9484 85.5649C72.6442 85.5801 70.4782 85.6564 68.2508 84.955C65.7776 84.1774 63.3659 83.1254 61.1384 81.8142C59.6945 80.8994 58.2505 79.9998 56.7911 79.1308C56.6068 78.9631 56.4378 78.7649 56.2688 78.5819C56.8987 78.155 57.5592 77.8043 58.0508 77.2402C59.0032 76.1577 59.5869 74.7702 59.4026 73.3218C59.3104 72.5899 59.1261 71.6446 58.5731 71.0958C58.2505 70.7756 57.8972 70.8366 57.4824 70.8518C57.3595 71.2025 57.2827 71.5532 57.2981 71.9191C57.1905 71.4007 57.0984 70.928 56.6682 70.5621C56.0845 70.059 55.3932 69.6321 54.6866 69.3119C53.7342 68.9002 52.6435 68.7478 51.6143 68.7325C50.6312 68.7173 49.7556 68.9765 48.7878 69.0984C47.2209 69.2814 45.654 69.2966 44.0872 69.3271C41.5679 69.3729 39.1561 70.3487 37.0055 71.5989C36.3757 71.9343 35.7919 72.3155 35.2696 72.8034C34.9931 72.3917 34.7781 71.9648 34.5938 71.5074C34.9931 71.2635 35.3772 71.0348 35.7919 70.8366C37.3588 70.0895 38.8796 69.2966 40.3236 68.3209C40.6923 68.0922 41.1685 67.7415 41.6293 67.772C42.2591 67.8177 42.889 68.0007 43.5034 68.1684C44.5173 68.4581 45.3007 68.9612 46.3914 68.946C48.0197 69.0374 49.4944 68.4733 50.8462 67.6043C51.8754 66.9334 53.0736 66.2168 53.8571 65.2563C54.1489 64.9208 54.149 64.3872 53.8264 64.067C53.4116 63.7468 52.874 63.9603 52.4285 64.1128C53.2119 63.4114 53.9953 62.7406 54.5944 61.8715C55.0246 61.2311 55.6698 60.5908 55.5622 59.7674C55.8848 59.9352 56.2688 60.2706 56.6529 60.1334C57.0676 60.0114 57.2981 59.5997 57.4824 59.2491C57.8664 58.4867 58.1276 57.6634 58.4809 56.8706C59.0186 55.6356 59.7713 54.4311 60.8005 53.5315C61.1538 53.2419 61.5686 52.9064 62.0601 52.9827L62.0294 53.0284Z" fill="#2A2C80"/>
<path d="M31.5258 52.9798C32.3205 52.9311 33.1446 53.1095 33.9098 53.3202C34.3513 53.4175 34.6604 53.7093 34.9694 54.0498C34.057 54.8279 33.0857 55.5251 32.1439 56.2546C31.4669 56.7896 30.893 57.4219 30.1425 57.8434C29.9806 56.3357 30.2896 54.9901 30.5545 53.531C30.8636 53.2716 31.1137 53.0122 31.5258 52.996V52.9798Z" fill="#2A2C80"/>
<path d="M101.846 53.7207C102.278 55.1762 102.53 56.7162 102.753 58.2394C102.768 58.561 102.887 58.8317 102.664 59.0856C102.099 59.2887 101.504 59.3564 100.909 59.3395C100.567 58.4763 100.27 57.444 99.7199 56.7332C99.4969 56.4285 99.2738 56.1239 99.0508 55.8193C99.1251 55.5993 99.1846 55.3792 99.259 55.1423C100.151 54.7192 100.969 54.1438 101.846 53.7207Z" fill="#63B2B7"/>
<path d="M91.9318 54.8649C92.6735 54.8199 93.4304 54.8499 94.1722 54.9997C95.2773 55.2545 96.1402 55.824 97.0939 56.4085C97.4269 56.6333 97.7902 56.6184 98.1687 56.6184C98.1687 56.6933 98.1687 56.7682 98.1838 56.8432C98.2141 57.3527 98.2292 57.8473 98.4714 58.3269C99.077 59.6008 99.4706 60.9946 99.6674 62.3884C99.9701 64.8763 99.7582 67.4391 98.9559 69.822C98.6228 70.7363 98.1838 71.6055 97.7297 72.4598C96.9576 73.8836 95.9282 75.1425 94.7929 76.2815C94.5355 76.5363 94.2328 76.7461 93.93 76.9559C93.5364 74.8277 92.946 72.7295 92.3708 70.6313C92.068 69.4474 91.4019 68.4882 91.2505 67.3042C91.6896 67.0944 92.174 66.8995 92.5676 66.5998C93.1428 66.1202 93.2639 65.176 92.6887 64.6515C91.9923 64.037 90.9478 63.8871 90.0546 63.7522C89.0858 63.6024 88.1775 63.7073 87.2238 63.8422C87.6779 63.7223 88.1321 63.5874 88.6014 63.5574C89.434 63.4975 90.2211 63.6923 91.0386 63.7223C91.5987 63.7672 92.1437 63.3326 92.4919 62.9429C93.0671 62.3135 93.1277 61.3993 92.9914 60.6049C92.8249 59.6608 92.0529 58.8664 91.0537 58.8065C91.2505 58.6566 91.4625 58.4918 91.5836 58.2819C91.7047 57.9222 91.523 57.4427 91.1446 57.3078C90.5542 57.083 89.8124 57.1429 89.1918 57.1579C87.9656 57.1879 86.7545 57.3827 85.5586 57.5925C85.9673 57.2928 86.3458 56.9631 86.7545 56.6633C87.3297 56.3186 87.9201 56.0039 88.5559 55.7791C89.6459 55.3894 90.751 54.9398 91.9166 54.8798L91.9318 54.8649Z" fill="#2A2C80"/>
<path d="M36.7902 55.5938C37.569 56.4162 38.1646 57.4367 38.7143 58.4115C38.3478 58.8532 37.966 59.2645 37.4927 59.6148C35.9809 60.7114 34.4386 61.7624 32.8962 62.7981C30.3614 64.5802 27.9486 66.5907 25.9024 68.9211C25.2457 69.6827 24.4975 70.6118 24.3142 71.617C24.1921 72.2567 24.3753 72.8051 24.5586 73.4143C23.6271 73.5971 22.6956 73.5971 21.7641 73.5666C21.2907 73.5666 20.802 73.262 20.5577 72.866C20.2676 72.3177 20.3134 71.6932 20.5119 71.1296C21.0616 69.7436 22.0084 68.6469 22.9857 67.535C23.8256 66.545 24.7265 65.6007 25.6122 64.6716C27.4141 62.8895 29.3077 61.2598 31.2165 59.5996C32.7741 58.2592 34.4538 57.1778 36.0878 55.9288C36.2863 55.807 36.5459 55.5481 36.7902 55.609V55.5938Z" fill="#C9CFCC"/>
<path d="M99.3157 55.2197C99.2377 55.427 99.1752 55.6343 99.0971 55.8576C99.3313 56.1446 99.5656 56.4317 99.7998 56.7187C99.3001 56.4636 98.8473 56.5593 98.3164 56.6868C98.3164 56.6071 98.3164 56.5274 98.3008 56.4476C98.5818 55.9852 98.8629 55.5387 99.3157 55.2357V55.2197Z" fill="#346472"/>
<path d="M86.692 56.3457C86.283 56.6667 85.9042 57.0198 85.4952 57.3408C86.7071 57.1 87.9039 56.9074 89.131 56.8753C89.7521 56.8593 90.4944 56.7951 91.0852 57.0358C91.464 57.1963 91.6306 57.6939 91.5245 58.079C91.3882 58.3037 91.1913 58.4803 90.9943 58.6408C89.4037 58.9939 87.8585 58.7692 86.3133 59.3148C85.0559 59.7482 83.8136 60.2457 82.6472 60.8877C82.0109 61.2247 81.5261 61.7383 80.9808 62.2037C80.5717 62.3 80.0718 62.4124 79.6779 62.284C79.3447 62.1395 79.2538 61.7383 79.2992 61.3852C79.4053 60.984 79.6779 60.6148 79.89 60.2778C79.5265 60.358 79.1629 60.4222 78.8145 60.5025C80.6172 59.5716 82.4502 58.721 84.2075 57.7099C85.0407 57.2284 85.8739 56.779 86.7223 56.3457H86.692Z" fill="#1F2576"/>
<path d="M38.8505 58.2178C39.7067 59.6179 40.0492 61.1549 40.6563 62.6463C40.9832 63.4529 41.4346 64.2138 41.7148 65.0508C39.551 66.7248 36.9981 68.064 34.523 69.2358C32.6239 70.3011 30.6314 71.1533 28.6233 71.9903C27.2534 72.5686 25.868 73.0404 24.3892 73.2078C24.2179 72.599 24.0156 72.0512 24.1401 71.412C24.3425 70.4076 25.1052 69.4793 25.759 68.7184C27.845 66.39 30.3045 64.3812 32.8885 62.6006C34.4608 61.5658 36.033 60.5157 37.5741 59.42C38.0566 59.0852 38.4458 58.6591 38.8194 58.2178H38.8505Z" fill="#8597A9"/>
<path d="M91.0079 58.5928C92.0147 58.6549 92.8202 59.4788 92.9906 60.4581C93.13 61.2819 93.0681 62.2301 92.4794 62.8829C92.1232 63.2871 91.5655 63.7378 90.9924 63.6912C90.1559 63.6601 89.3504 63.4581 88.4985 63.5202C88.0028 63.5513 87.5536 63.6912 87.0889 63.8156C85.5708 64.1575 84.2077 64.8104 82.8291 65.4788C82.194 65.6964 81.5743 65.8207 80.9238 65.5876C80.0408 65.2456 79.2044 64.6083 79.1889 63.5669C79.1889 63.256 79.1424 62.5254 79.5916 62.4788C80.0098 62.3544 80.4281 62.2923 80.7999 62.0435C81.3575 61.5928 81.8532 61.0954 82.5038 60.7689C83.6965 60.1472 84.9822 59.6653 86.2524 59.2456C87.8479 58.7171 89.4124 58.9503 91.0389 58.5928H91.0079Z" fill="#403D9B"/>
<path d="M103.277 60.8455C103.562 61.0135 103.499 61.6704 103.531 61.9607C103.531 64.0689 103.626 66.1924 103.372 68.2854C103.246 70.0881 103.024 71.8907 102.771 73.6934C102.502 75.0684 102.122 76.428 101.805 77.803C101.204 80.3237 100.222 82.6152 99.4148 85.0748C99.2723 85.5179 99.6206 85.5637 99.9214 85.7776C99.1773 85.9456 98.8291 86.465 98.3383 86.9692C97.8476 87.5344 97.3093 88.0386 96.8027 88.5733C96.8344 87.6414 96.9769 86.74 97.151 85.8387C97.4043 84.0971 97.6576 82.3555 97.9584 80.6292C98.5283 78.1696 99.209 75.7253 99.8264 73.2657C100.507 71.9366 101.125 70.6075 101.457 69.1409C101.995 67.1243 102.059 65.0925 101.948 63.0301C101.9 62.3732 101.774 61.7468 101.774 61.0899C102.248 60.9829 102.771 60.8149 103.277 60.8455Z" fill="#63B2B7"/>
<path d="M87.9371 65.7129C88.5158 66.5534 88.8964 67.5314 89.3076 68.4635C90.4648 71.2753 91.1348 74.194 91.6982 77.1738C91.9114 78.8853 91.9418 80.5968 91.9266 82.3083C91.9266 83.6836 91.9114 85.1201 91.6525 86.4801C91.4393 87.3511 91.3175 88.2833 90.9673 89.1085C90.815 89.5211 90.6323 89.8726 90.1907 89.9948C89.6882 90.1171 89.1096 90.1018 88.6376 89.8878C87.4956 89.4141 86.5667 88.5125 85.6531 87.7026C84.2675 86.4648 83.3539 84.7686 82.4098 83.1794C81.9225 82.3542 81.5419 81.4831 81.1155 80.6121C79.9735 78.3352 79.0294 75.9666 78.3442 73.5063C78.1158 72.6353 77.7047 71.7337 77.6895 70.8474C78.0092 70.4959 78.5117 70.282 78.8924 70.0222C79.136 70.2056 79.3644 70.3737 79.471 70.664C79.9583 71.7948 80.3085 73.002 80.7044 74.1787C80.9632 74.9275 81.2525 75.661 81.4962 76.4098C82.0748 78.4422 83.0798 80.3676 84.1152 82.2014C85.3333 84.2491 86.7038 86.312 88.3178 88.0694C88.8964 88.6501 89.3685 89.2307 90.1755 89.5058C90.3582 88.4208 90.3278 87.3664 90.3278 86.2662C90.3278 84.6616 90.2821 83.0418 90.1298 81.4373C89.6578 77.8768 88.6833 74.4079 87.4499 71.046C86.9322 69.5179 86.2926 68.0509 85.7445 66.5381C86.2622 66.2477 86.7951 65.9727 87.3585 65.7893C87.5413 65.7587 87.724 65.7282 87.9067 65.7129H87.9371Z" fill="#C9CFCC"/>
<path d="M87.4132 65.7129C86.8409 65.9138 86.2997 66.1765 85.7738 66.4701C86.3151 68 86.9801 69.4836 87.506 71.0289C88.7432 74.4287 89.7484 77.9521 90.2278 81.5374C90.398 83.16 90.4444 84.7826 90.4289 86.4207C90.4289 87.5179 90.4598 88.5997 90.2742 89.6969C89.4546 89.4187 88.9752 88.8315 88.3875 88.2442C86.7482 86.4671 85.3563 84.3808 84.119 82.31C83.0519 80.4556 82.0467 78.5085 81.459 76.4531C81.2116 75.6959 80.9177 74.9541 80.6548 74.1969C80.2527 73.007 79.897 71.7861 79.4021 70.6426C79.2784 70.349 79.0464 70.179 78.8145 69.9935C79.5568 69.5454 80.2991 69.0818 81.0415 68.6336C82.4643 67.7682 83.9489 67.0728 85.4645 66.3774C86.0831 66.0838 86.7327 65.852 87.4132 65.7283V65.7129Z" fill="#8597A9"/>
<path d="M51.5989 68.7132C52.6225 68.7281 53.7072 68.8771 54.6544 69.2792C55.3571 69.592 56.0446 70.0091 56.6252 70.5006C57.0529 70.8581 57.1446 71.3198 57.2515 71.8262C57.4043 72.7944 57.6182 73.703 57.2515 74.6563C56.946 75.3712 56.396 76.0266 55.6627 76.3543C54.9141 76.7117 54.2113 77.1288 53.4322 77.4118C52.378 77.0841 51.4003 76.7564 50.2545 76.9203C49.1392 77.0841 48.0545 77.4267 46.9851 77.7544C45.5796 78.2012 44.0824 78.4097 42.5852 78.4544C41.6533 78.4544 40.813 78.231 40.0186 77.7395C37.9867 76.4585 36.6729 74.6116 35.3438 72.6901C35.8632 72.1986 36.4437 71.8411 37.0701 71.5134C39.2089 70.307 41.6075 69.3388 44.113 69.2941C45.6865 69.2643 47.2296 69.2643 48.7878 69.0707C49.7503 68.9515 50.6211 68.6834 51.5989 68.7132Z" fill="#403D9B"/>
<path d="M57.6259 70.9649C58.0667 70.9649 58.4423 70.9042 58.7851 71.2077C59.3729 71.7388 59.5688 72.6948 59.6667 73.4231C59.8627 74.8647 59.2423 76.2455 58.23 77.3229C57.7076 77.8843 57.0055 78.2333 56.3361 78.6582C56.5157 78.8403 56.6953 79.0224 56.8912 79.2045C55.7484 78.6278 54.5565 78.0967 53.332 77.7174C54.1647 77.4291 54.9157 77.0042 55.7157 76.64C56.4831 76.3062 57.0871 75.6234 57.4137 74.9102C57.8218 73.939 57.5769 73.0134 57.4137 72.0271C57.4137 71.6629 57.479 71.3139 57.6096 70.9649H57.6259Z" fill="#1F2576"/>
<path d="M33.0669 72.458C33.5011 73.2197 33.8733 73.9966 34.4005 74.6974C35.2379 75.8247 36.2148 76.8606 37.2228 77.866C38.0912 78.7343 39.0991 79.4351 40.2156 79.953C39.3472 79.7702 38.6649 79.2675 37.8896 78.8866C35.455 77.7898 32.9429 76.9063 30.3377 76.2817C29.2833 76.0532 28.1668 75.6419 27.0813 75.6419C26.7866 75.9922 26.8332 76.6778 26.7246 77.1195C26.7866 76.4035 26.7556 75.6876 26.8332 74.9716C28.5699 74.3775 30.2912 73.7224 31.9349 72.915C32.3071 72.7322 32.6793 72.5646 33.0824 72.458H33.0669Z" fill="#428297"/>
<path d="M99.8011 73.207C99.2183 75.6706 98.5435 78.1036 97.9914 80.5825C97.7 82.3116 97.4546 84.056 97.2092 85.8004C97.0405 86.7032 96.9025 87.6213 96.8718 88.5395C96.197 89.1056 95.5376 89.6259 94.9548 90.2686C94.142 91.1561 93.3598 92.0436 92.4243 92.7934C91.1054 93.8339 90.0932 95.1651 88.7896 96.2057C86.4431 98.0878 83.9893 99.8016 81.2441 101.072C77.9928 102.571 74.6188 103.872 71.1528 104.805C68.1162 105.555 65.0489 106.106 61.9356 106.381C58.991 106.657 56.0004 106.565 53.0559 106.427C52.6878 106.397 52.335 106.351 51.9823 106.274C52.3657 106.305 52.7338 106.274 53.1172 106.228C53.5466 105.494 53.792 104.683 54.2061 103.933C54.7429 102.938 55.4637 102.082 55.9084 101.041C57.212 99.5109 58.715 98.1184 60.2333 96.8024C60.8927 96.221 61.5829 95.7007 62.1963 95.058C61.5215 94.6449 60.9541 94.8591 60.3253 95.2417C59.1751 95.9914 58.0402 96.8024 57.0126 97.7205C55.3103 99.2048 53.6233 100.812 52.243 102.602C51.3075 103.688 50.464 104.821 49.6665 106.014C48.4243 105.754 47.1974 105.494 45.9705 105.173C45.541 105.065 45.127 104.943 44.7129 104.805C44.9583 104.836 45.219 104.851 45.4644 104.866C45.9091 104.132 46.1545 103.321 46.5072 102.556C47.3661 100.659 48.3016 98.7917 49.3751 97.0014C50.6941 94.8132 52.0283 92.5332 53.6847 90.5746C53.976 90.2074 54.3134 89.8095 54.4668 89.3811C54.5742 89.075 54.4821 88.6007 54.1447 88.4783C53.884 88.417 53.5926 88.4782 53.3319 88.5242C53.7767 88.2181 54.1907 87.8968 54.5742 87.5142C54.8809 87.6366 55.2336 87.7591 55.5864 87.7591C56.0004 87.6979 56.3072 87.2541 56.3225 86.8563C56.3072 86.5043 56.0004 86.183 55.7397 85.9841C55.1876 85.5556 54.5128 85.2343 53.8994 84.9129C51.8903 83.8724 49.8506 82.8472 47.8722 81.7454C47.136 81.3323 46.3845 80.9498 45.6944 80.4601C45.7711 80.3224 45.8478 80.1847 45.9091 80.0469C47.3354 79.8021 48.685 79.2972 50.0959 79.0217C51.3229 78.8075 52.4271 79.19 53.5313 79.6491C55.8317 80.6743 58.0095 82.0821 60.1413 83.4439C61.5369 84.3315 63.0398 84.9741 64.5428 85.6474C65.9384 86.2595 67.3647 86.6726 68.837 87.0552C70.5086 87.4989 72.303 87.5907 74.036 87.5907C75.4929 87.6213 77.0113 87.2082 78.4529 86.9328C79.6031 86.7032 80.6306 86.1677 81.7655 85.8769C82.1643 86.4125 82.517 86.9787 82.8851 87.5295C83.6672 88.6466 84.6794 89.4882 85.707 90.3604C86.8112 91.2632 88.0534 92.0283 89.5104 92.0895C90.2312 92.1048 91.0747 92.0436 91.7035 91.6763C92.4396 91.2632 92.685 90.3757 93.0531 89.6565C93.4672 88.8302 93.5745 87.9733 93.7585 87.0705C93.9426 86.183 94.0039 85.2955 94.1266 84.408C94.28 82.9543 94.142 81.4547 94.2033 80.001C94.2033 79.695 94.4794 79.5114 94.6787 79.3125C95.5222 78.6239 96.2584 77.8588 97.0405 77.0937C98.1908 75.9461 98.9576 74.6148 99.7857 73.2376L99.8011 73.207Z" fill="#428297"/>
<path d="M26.9912 75.4725C28.0604 75.4725 29.1602 75.8903 30.1989 76.1224C32.7652 76.7569 35.2397 77.6543 37.6379 78.7685C38.4017 79.1553 39.0738 79.666 39.9292 79.8517C40.5707 80.0373 41.2123 80.2385 41.8691 80.3623C42.5718 80.5789 43.1828 80.9658 43.7785 81.3836C46.7572 83.4881 49.8733 85.0974 53.0658 86.8305C53.5393 87.0935 53.9976 87.3875 54.4558 87.666C54.0739 88.0529 53.6615 88.3779 53.2185 88.6873C52.8825 88.9194 52.6075 89.2135 52.3326 89.5384C51.5536 90.4669 50.8051 91.4108 50.133 92.4166C48.1778 95.3257 46.3447 98.2812 44.8936 101.5C44.4201 102.552 43.9313 103.604 43.5494 104.687C41.9302 103.836 40.3416 103.248 38.8752 102.119C37.7143 101.283 36.7978 100.231 35.7744 99.2252C35.0717 98.5288 34.4607 97.7706 33.865 96.9969C32.9026 95.728 31.9709 94.4437 31.1766 93.051C30.4739 91.7976 29.7865 90.6061 29.2977 89.2599C28.87 88.0374 28.3965 86.8769 28.1062 85.6235C27.816 84.401 27.3883 83.2869 27.205 82.049C27.0981 81.2443 26.9301 80.4706 26.7926 79.666C26.7009 78.9387 26.5635 78.2114 26.3496 77.4996C26.4565 77.3294 26.5482 77.1592 26.6093 76.958C26.7315 76.5093 26.6704 75.8284 26.9606 75.457L26.9912 75.4725Z" fill="#63B2B7"/>
<path d="M26.3779 77.7061C26.5914 78.4108 26.7134 79.1309 26.8202 79.851C26.9422 80.6324 27.1253 81.4138 27.232 82.2105C27.3998 83.4362 27.8421 84.5393 28.1319 85.7497C28.4217 87.006 28.8945 88.1551 29.3216 89.3501C29.8097 90.6831 30.4808 91.8628 31.1976 93.1038C31.9908 94.4827 32.9212 95.7544 33.8821 97.0107C34.4769 97.7921 35.1022 98.5428 35.7886 99.217C36.8105 100.213 37.7257 101.255 38.8848 102.082C40.3491 103.2 41.9201 103.783 43.5521 104.625C43.186 105.928 42.5912 107.23 42.3929 108.578C42.3014 109.16 42.4387 109.482 42.7742 109.942C42.6979 110.83 42.4539 111.673 42.4081 112.546C42.3624 113.619 42.4081 114.691 42.5912 115.749C42.7894 117.035 42.8352 118.215 43.1708 119.426C43.308 119.931 43.4911 120.421 43.6283 120.927C43.8114 121.586 43.8571 122.291 43.9944 122.965C44.2689 123.271 44.4825 123.562 44.94 123.516C45.5044 123.578 45.9467 123.026 45.9467 122.505C45.9924 121.218 46.1602 119.962 46.511 118.736C46.7703 117.327 47.2432 116.009 47.7312 114.676C48.3718 113.052 49.2107 111.428 49.6378 109.727C49.8513 109.068 50.1563 108.425 50.4461 107.797C50.3851 108.256 50.4004 108.731 50.3394 109.191C50.0496 110.968 49.6378 112.73 49.4395 114.507C49.1955 116.315 48.8294 118.2 48.8446 120.054C48.8446 121.341 48.8447 122.612 48.9514 123.884C49.0277 125.876 49.1039 127.868 49.1497 129.859C49.1497 130.717 49.5158 131.483 50.0496 132.142C50.2021 132.311 50.3546 132.479 50.5072 132.663C50.4004 132.786 50.2784 132.924 50.1869 133.061C50.0191 133.307 49.8513 133.552 49.8208 133.858C49.653 135.206 49.9276 136.616 49.9733 137.995C50.0496 139.588 50.3241 141.151 50.4461 142.744C50.5682 144.154 50.8427 145.533 50.98 146.927C51.1478 148.566 51.3766 150.175 51.8341 151.769C51.7121 151.815 51.6053 151.86 51.4833 151.906C50.2936 151.631 49.0887 151.569 47.899 151.309C45.9925 151.033 44.0859 150.727 42.2251 150.298C40.0593 149.884 37.9392 149.133 35.8039 148.566C33.2109 147.739 30.6791 146.697 28.2692 145.41C26.8965 144.721 25.661 143.756 24.3951 142.882C24.1358 142.683 23.8002 142.499 23.724 142.162C23.4342 141.274 23.4037 140.293 23.1901 139.374C22.9613 138.393 22.8851 137.397 22.7326 136.401C22.4733 134.9 22.3818 133.368 22.2902 131.851C22.0157 130.319 22.2445 128.771 22.0767 127.27C21.9547 126.504 22.0462 125.784 21.6344 125.11C21.2531 124.436 21.0396 123.716 20.7193 123.011C20.1092 121.678 19.5143 120.391 19.0567 119.012C18.6602 117.74 18.2484 116.469 17.9586 115.182C17.3485 112.853 16.8909 110.555 17.2265 108.134C17.2722 107.184 17.4705 106.357 16.9824 105.483C16.9824 105.192 16.9977 104.886 17.0282 104.595C17.2875 104.38 17.562 104.242 17.6535 103.89C17.9281 102.94 17.9891 101.898 18.1264 100.933C18.2026 100.289 18.3704 99.6766 18.4924 99.0331C18.7822 97.4397 19.2703 95.877 19.6058 94.2989C20.0329 92.6442 20.4295 90.9895 20.9023 89.3655C21.2073 88.1398 21.6954 86.96 22.092 85.765C22.4885 84.6465 22.8698 83.4208 23.4647 82.3943C23.907 81.6436 24.2426 80.8929 24.7916 80.2034C25.4322 79.4373 25.7525 78.5028 26.4084 77.752L26.3779 77.7061Z" fill="#F3D4B4"/>
<path d="M45.7504 80.343C45.6725 80.4765 45.6102 80.6101 45.5323 80.7437C46.2334 81.2186 46.9969 81.5897 47.7448 81.9904C49.7548 83.0738 51.8271 84.0534 53.8682 85.0626C54.4915 85.3743 55.1771 85.6859 55.738 86.1015C56.0029 86.3093 56.3145 86.6209 56.3301 86.9475C56.3301 87.3333 56.0029 87.7637 55.5822 87.8231C55.2394 87.8231 54.881 87.7044 54.5538 87.5857C54.0864 87.3185 53.6189 87.0217 53.1359 86.7842C49.8794 85.1219 46.7009 83.5784 43.6625 81.56C43.0548 81.1444 42.4316 80.7734 41.7148 80.5804C43.0548 80.6695 44.426 80.5804 45.7504 80.3281V80.343Z" fill="#316B8B"/>
<path d="M20.7288 83.3271C20.242 84.9097 19.5878 86.4307 19.1162 88.0132C18.5686 89.9645 18.0969 91.9311 17.6101 93.8977C17.0016 96.5557 16.2105 99.3673 16.0888 102.102C16.0432 102.855 15.9823 103.562 16.2257 104.284C16.4996 104.376 16.7582 104.453 17.032 104.545C17.0016 104.837 16.9712 105.144 16.9864 105.436C16.6973 105.498 16.3931 105.528 16.1345 105.636C15.7389 105.897 15.7693 106.588 15.7085 107.003C15.6324 108.248 15.4042 109.462 15.4651 110.706C15.5868 112.826 15.9367 114.9 16.4996 116.944C16.7126 117.804 16.8951 118.665 17.1537 119.51C17.4884 120.616 17.9448 121.615 18.386 122.69C18.7207 123.489 18.9945 124.257 19.4813 124.979C19.6943 125.317 19.9834 125.64 20.0138 126.055C20.1203 127.176 20.1811 128.313 20.1203 129.45C20.1203 129.85 19.8921 130.096 19.6335 130.372C18.9793 131.033 18.386 131.678 17.5188 132.032C16.5604 132.416 15.4955 132.738 14.461 132.784C13.107 132.83 11.7683 132.723 10.4904 132.247C10.1405 132.078 9.82102 131.878 9.48633 131.693C10.0644 131.171 10.749 130.649 11.2054 130.019C11.7987 129.189 12.1334 128.175 12.179 127.161C12.2399 125.502 12.1791 123.858 11.9204 122.214C11.7835 120.846 11.5705 119.51 11.3423 118.158C11.175 116.544 10.8859 114.947 10.7947 113.318C10.7034 111.782 10.3383 110.276 10.2774 108.724C10.1709 106.865 9.86665 105.037 9.89708 103.178C9.89708 101.411 9.83622 99.6439 9.98835 97.877C10.2013 96.1562 10.3991 94.4047 10.8251 92.73C11.0685 91.6545 11.5553 90.6558 11.8291 89.5804C13.031 88.2283 14.4914 87.1067 15.9671 86.1081C17.4276 85.0479 19.0249 83.9571 20.7288 83.3271Z" fill="#428297"/>
<path d="M99.8918 85.9502C100.697 86.5036 101.604 86.8531 102.424 87.3774C101.721 88.0036 101.077 88.6734 100.448 89.387C99.8333 90.0423 99.3064 90.7705 98.8966 91.5714C98.5307 91.353 98.1501 91.1054 97.7695 90.9015C97.4622 90.7268 97.1255 90.5812 96.8621 90.3627C96.7011 89.8239 96.906 89.154 97.0231 88.6152C97.4915 88.1055 97.9891 87.6249 98.4428 87.0861C98.8966 86.6055 99.2186 86.1104 99.9065 85.9502H99.8918Z" fill="#F3D4B4"/>
<path d="M104.653 88.2126C105.583 88.5794 106.453 89.1296 107.307 89.6339C108.772 90.4898 109.993 91.5444 111.381 92.5684C112.418 93.409 113.471 94.2497 114.463 95.1361C115.744 96.3741 117.087 97.6427 118.216 99.0335C120.153 101.357 122.259 103.848 123.708 106.507C124.929 109.014 125.676 111.826 125.646 114.623C125.646 116.09 125.753 117.726 125.31 119.147C124.898 120.431 124.547 121.73 124.09 122.998C123.937 123.411 123.937 123.839 124.242 124.175C124.639 124.405 125.081 124.328 125.508 124.313C125.081 124.481 124.639 124.496 124.196 124.512C124.105 124.68 124.029 124.848 123.952 125.031C123.51 125.108 123.113 125.138 122.808 125.505C121.74 126.697 120.916 128.317 119.741 129.464C118.567 130.61 117.316 131.664 115.943 132.551C113.852 133.957 111.732 135.333 109.52 136.54C107.643 136.464 105.706 135.959 104.21 134.752C103.234 133.957 102.364 132.933 101.861 131.756C101.495 130.9 101.22 130.014 100.991 129.112C100.762 128.195 100.686 127.263 100.9 126.33C101.403 124.252 102.105 122.234 103.158 120.37C104.119 118.627 105.233 116.717 106.758 115.418C107.963 114.348 109.23 113.385 110.588 112.529C111.305 112.055 112.022 111.75 112.876 111.612L113.013 111.581C113.242 111.536 113.502 111.49 113.715 111.368C113.959 111.016 113.975 110.466 113.975 110.038C113.959 109.029 113.486 108.25 113.059 107.378C112.601 106.446 112.067 105.575 111.533 104.688C110.496 103.053 109.23 101.555 108.009 100.058C106.072 97.7802 104.104 95.6558 101.693 93.8523C101.22 93.4702 100.701 93.2868 100.549 92.6449C101.113 91.8959 101.647 91.1165 102.288 90.4287C103.005 89.6492 103.722 88.7475 104.622 88.1973L104.653 88.2126Z" fill="#63B2B7"/>
<path d="M54.0892 88.6001C54.4265 88.7231 54.5185 89.1996 54.4112 89.507C54.2579 89.9528 53.9052 90.3525 53.6292 90.706C51.9885 92.6736 50.6392 94.964 49.3206 97.1621C48.2319 98.9606 47.3119 100.836 46.4532 102.742C46.1006 103.526 45.8553 104.325 45.4106 105.063C45.1653 105.048 44.9046 105.032 44.6593 105.002C44.2913 104.879 43.9386 104.694 43.5859 104.541C43.9693 103.449 44.4599 102.419 44.9352 101.374C46.3766 98.1767 48.2319 95.2407 50.1946 92.3508C50.8692 91.3516 51.6205 90.414 52.4025 89.4916C52.6632 89.1842 52.9545 88.8922 53.2919 88.6462C53.5525 88.6001 53.8439 88.5386 54.1045 88.6001H54.0892Z" fill="#316B8B"/>
<path d="M96.7734 88.6354C96.6515 89.2011 96.4534 89.9044 96.6058 90.4701C96.8953 90.6994 97.2305 90.8523 97.5505 91.0358C97.1238 90.8982 96.5144 90.73 96.103 90.9746C95.7983 91.1122 95.844 91.4945 95.9049 91.7697C96.1792 92.4424 97.0781 92.8246 97.4591 93.4056C97.4895 93.6044 97.4895 93.8032 97.4895 94.0019C95.9659 97.0445 94.7012 100.378 94.2289 103.756C93.9241 105.056 93.8327 106.386 93.6804 107.716C93.6042 108.985 93.6194 110.27 93.6347 111.539C93.6042 113.695 94.1832 115.881 95.0364 117.838C95.4326 118.786 96.0116 119.627 96.4839 120.544C96.3011 120.911 96.103 121.263 95.8744 121.614C95.1126 122.822 94.5031 124.183 93.9089 125.498C93.4823 126.461 93.208 127.47 92.9338 128.495C92.6595 129.641 92.3243 130.681 92.2938 131.874C92.2633 133.112 92.2481 134.427 92.7814 135.558C93.1014 136.277 93.6042 136.843 94.1679 137.393C94.7317 137.959 95.265 138.54 95.8897 139.029C96.3468 139.472 96.8343 139.824 96.7125 140.543C96.362 143.019 95.5849 145.405 94.8079 147.774C94.686 148.08 94.5488 148.554 94.1984 148.692C93.6956 148.921 93.1623 149.089 92.6443 149.288C90.9682 149.762 89.277 150.175 87.5705 150.465C86.123 150.786 84.6603 150.863 83.2128 151.169C81.7653 151.352 80.3026 151.49 78.8551 151.673C77.5904 151.734 76.3563 151.918 75.1069 152.117C73.5527 152.254 71.9986 152.392 70.4444 152.453C69.8197 152.483 69.2103 152.621 68.5703 152.621C66.2391 152.682 63.8927 152.652 61.5615 152.621C60.7387 152.621 59.9464 152.621 59.1236 152.499C57.8742 152.361 56.6248 152.269 55.3906 152.086C54.705 151.964 54.0193 151.872 53.3337 151.795C53.6079 151.352 53.9279 150.985 53.8822 150.435C53.7908 149.471 53.547 148.539 53.3946 147.576C52.9375 144.564 52.4195 141.475 52.1604 138.417C52.0538 137.148 51.8252 135.91 51.8557 134.61C51.8405 134.075 51.9014 133.402 51.6729 132.913C51.4291 132.562 50.8348 132.73 50.4692 132.76C50.5758 132.623 50.6825 132.5 50.7891 132.363C50.6368 132.195 50.4844 132.026 50.332 131.843C50.5606 131.904 50.7891 131.965 51.0177 131.996C51.3681 131.981 51.6729 131.705 51.7186 131.338C51.7947 130.788 51.6424 130.176 51.551 129.626C51.2919 128.219 51.3986 126.736 51.3224 125.284C51.231 123.296 51.1243 121.324 51.17 119.321C51.231 117.349 51.5662 115.468 51.8252 113.511C51.9928 112.456 52.1604 111.401 52.328 110.331C52.5413 109.016 52.907 107.747 53.1965 106.447C56.122 106.585 59.0931 106.677 62.0186 106.402C65.1116 106.126 68.1742 105.576 71.1758 104.827C74.6193 103.894 77.9713 102.595 81.2015 101.096C83.9136 99.8271 86.3668 98.13 88.698 96.2342C89.9931 95.1945 90.9987 93.8643 92.3091 92.8246C93.2537 92.0755 94.0308 91.1887 94.8231 90.3019C95.4021 89.6598 96.0573 89.1399 96.7277 88.5742L96.7734 88.6354Z" fill="#A19B95"/>
<path d="M11.7447 89.3232C11.4759 90.4001 11.013 91.4001 10.7591 92.477C10.3559 94.1538 10.1468 95.9076 9.93773 97.6306C9.78839 99.3844 9.86306 101.169 9.84813 102.938C9.81826 104.815 10.1319 106.63 10.2215 108.492C10.2961 110.046 10.6396 111.538 10.7292 113.092C10.8188 114.722 11.1026 116.307 11.2669 117.938C11.4759 119.291 11.685 120.63 11.8344 121.999C12.0733 123.645 12.148 125.291 12.0882 126.953C12.0434 127.983 11.7149 128.983 11.1324 129.814C10.6844 130.445 10.0124 130.952 9.44492 131.491C9.77346 131.691 10.0871 131.891 10.4306 132.045C9.14623 131.722 7.95151 130.968 6.86133 130.214C8.17552 130.076 9.37025 129.168 9.89294 127.906C10.2065 127.06 10.0871 125.983 10.102 125.091C10.1468 123.183 9.77346 121.245 9.51959 119.322C9.38518 118.322 9.28064 117.322 9.14624 116.307C8.96703 114.938 8.98196 113.553 8.78782 112.184C8.62354 110.999 8.47419 109.815 8.38459 108.615C8.26512 106.415 8.08592 104.215 7.96645 102C7.92164 100.954 8.07099 99.969 8.10086 98.9383C8.14566 97.2768 8.29499 95.6307 8.65341 94.0154C8.72808 93.6462 8.68327 93.4462 8.519 93.1077C9.11636 92.2308 9.81825 91.4924 10.4753 90.677C10.8636 90.2001 11.2967 89.754 11.7298 89.3232H11.7447Z" fill="#316B8B"/>
<path d="M97.7588 91.0199C98.1586 91.249 98.5432 91.5271 98.9431 91.7725C98.9738 92.0343 99.02 92.2961 99.0507 92.5579C98.82 92.8033 98.6201 93.0487 98.3894 93.2942C98.1279 93.5723 97.8818 93.8504 97.6972 94.194C97.6972 93.9813 97.6972 93.7523 97.6665 93.5559C97.282 92.9342 96.3745 92.5252 96.0976 91.8053C96.0361 91.5108 95.99 91.1017 96.2976 90.9545C96.7129 90.6927 97.3281 90.8727 97.7588 91.0199Z" fill="#777F89"/>
<path d="M98.9551 92.6963C99.1985 92.8162 99.4268 92.9811 99.6702 93.0711C99.9441 93.0861 100.218 92.9512 100.461 92.8462C100.614 93.4759 101.131 93.6558 101.603 94.0306C104.007 95.7996 105.97 97.8835 107.902 100.117C109.119 101.586 110.382 103.056 111.417 104.66C111.341 104.93 111.295 105.259 111.128 105.499C110.839 105.799 110.367 105.904 109.987 105.724C109.606 105.544 109.302 105.155 109.043 104.84C106.959 101.991 104.646 99.2777 102.029 96.909C101.268 96.2793 100.522 95.5148 99.655 95.035C99.4724 95.17 99.305 95.3199 99.1377 95.4698C99.3507 94.9601 99.5637 94.2854 99.3659 93.7457C99.1377 93.281 98.742 93.3859 98.3008 93.3709C98.529 93.161 98.7421 92.9212 98.9551 92.6963Z" fill="#316B8B"/>
<path d="M8.54155 93.4453C8.71559 93.7683 8.76306 93.9837 8.68395 94.3528C8.32005 95.9679 8.14603 97.6137 8.09856 99.2749C8.06692 100.305 7.9087 101.305 7.95616 102.336C8.08274 104.535 8.2726 106.735 8.39917 108.95C8.47828 110.15 8.63649 111.334 8.82635 112.518C9.03203 113.887 9.01621 115.272 9.20607 116.641C9.34846 117.64 9.45921 118.64 9.6016 119.655C9.85475 121.578 10.2503 123.516 10.2186 125.423C10.2028 126.316 10.3452 127.392 9.99714 128.238C9.45921 129.5 8.19348 130.392 6.78537 130.546C4.61782 128.9 2.6876 126.946 1.16874 124.701C0.44095 123.501 -0.160255 122.193 -0.460864 120.824C-0.714008 119.748 -1.04627 118.794 -1.1412 117.733C-1.2203 116.856 -1.37852 115.995 -1.37852 115.118C-1.4418 113.149 -0.793127 111.134 -0.255196 109.242C0.187806 107.581 0.931416 105.966 1.64338 104.382C2.33953 102.813 3.24136 101.382 4.14319 99.9363C5.53548 97.7214 6.95942 95.5372 8.55739 93.4453H8.54155Z" fill="#63B2B7"/>
<path d="M61.9531 95.1533C61.3576 95.7831 60.6877 96.3055 60.0476 96.9046C58.5589 98.2257 57.1149 99.6237 55.8496 101.16C54.6586 102.205 53.7654 103.51 52.6787 104.662C52.2172 105.154 51.8599 105.707 51.5027 106.275C51.19 106.721 50.8923 107.151 50.669 107.658C50.3862 108.288 50.0884 108.933 49.88 109.594C49.4632 111.299 48.6593 112.927 48.0192 114.556C47.5428 115.892 47.0813 117.213 46.8283 118.627C46.4859 119.871 46.3221 121.131 46.2775 122.406C46.2775 122.928 45.8457 123.481 45.2949 123.42C44.8483 123.45 44.6399 123.158 44.372 122.867C44.2082 120.747 44.6995 118.842 45.1907 116.814C45.5182 115.6 45.8904 114.417 46.3817 113.265C47.3939 110.853 48.4658 108.426 49.7907 106.168C50.5648 104.97 51.3687 103.833 52.2917 102.742C53.6314 100.945 55.269 99.3318 56.9214 97.8417C57.9188 96.9199 59.0204 96.1057 60.1369 95.353C60.7324 94.9689 61.2981 94.7539 61.9531 95.1687V95.1533Z" fill="black"/>
<path d="M99.5632 94.9434C100.44 95.435 101.166 96.2032 101.921 96.8639C104.522 99.2915 106.819 102.072 108.891 104.992C109.148 105.33 109.45 105.714 109.828 105.898C110.206 106.083 110.674 105.975 110.962 105.668C111.128 105.422 111.173 105.084 111.249 104.807C111.778 105.699 112.307 106.574 112.761 107.512C113.184 108.387 113.637 109.171 113.668 110.185C113.668 110.615 113.668 111.153 113.411 111.522C113.214 111.645 112.942 111.691 112.715 111.737C113.033 111.583 113.335 111.414 113.486 111.076C113.562 110.8 113.547 110.508 113.305 110.339C112.806 109.954 112.095 109.939 111.491 110.001C110.448 110.123 109.435 110.277 108.452 110.661C107.273 111.122 106.154 111.598 105.096 112.305C103.191 113.58 101.377 114.933 99.8202 116.638C99.0794 117.345 98.5655 118.251 97.7945 118.927C96.6153 116.93 95.8746 114.687 95.7083 112.351C95.6327 110.339 95.7083 108.341 95.9199 106.344C96.0409 105.376 96.2827 104.423 96.4037 103.44C96.6758 101.55 97.3561 99.8754 97.9154 98.0624C98.2026 97.1405 98.5655 96.2647 99.019 95.4197C99.1853 95.266 99.3516 95.1124 99.533 94.9741L99.5632 94.9434Z" fill="#428297"/>
<path d="M55.9425 100.939C55.4959 102.071 54.7567 102.973 54.233 104.039C53.8172 104.842 53.5708 105.711 53.1396 106.498C52.7546 106.547 52.385 106.58 52 106.547C51.8152 106.498 51.6457 106.449 51.4609 106.4C51.8306 105.793 52.2002 105.203 52.6776 104.678C53.8018 103.448 54.7105 102.055 55.9579 100.939H55.9425Z" fill="#316B8B"/>
<path d="M43.6069 104.703C43.9591 104.854 44.282 105.035 44.6342 105.156C45.0304 105.292 45.4267 105.413 45.8376 105.519C45.6762 105.549 45.5147 105.58 45.3386 105.625C44.825 106.653 44.6342 107.878 44.2966 108.981C44.1939 109.284 44.0618 109.647 43.7976 109.828C43.5041 109.919 43.1666 109.904 42.8584 109.934C42.5355 109.48 42.4034 109.163 42.4915 108.588C42.6823 107.258 43.2547 105.988 43.6069 104.688V104.703Z" fill="#777F89"/>
<path d="M45.4098 105.542C45.5768 105.497 45.7438 105.467 45.926 105.437C47.1406 105.754 48.3553 106.01 49.5851 106.267C48.2338 108.486 47.1255 110.856 46.1082 113.241C45.6072 114.373 45.2124 115.535 44.8936 116.728C44.3925 118.72 43.8915 120.592 44.0585 122.675C43.9219 121.996 43.8763 121.316 43.6941 120.667C43.5575 120.169 43.3601 119.686 43.2386 119.188C42.9046 117.996 42.8591 116.833 42.6617 115.565C42.4947 114.524 42.4339 113.467 42.4795 112.41C42.525 111.535 42.768 110.705 42.8439 109.844C43.1627 109.829 43.5119 109.844 43.8156 109.739C44.0889 109.557 44.2407 109.18 44.3318 108.893C44.681 107.791 44.8784 106.569 45.4098 105.542Z" fill="#A19B95"/>
<path d="M51.3351 106.562C51.5204 106.607 51.6902 106.652 51.8755 106.697C52.2306 106.773 52.5857 106.818 52.9562 106.848C52.6629 108.13 52.2924 109.381 52.0762 110.678C51.9064 111.718 51.7211 112.759 51.5667 113.814C51.3042 115.744 50.9646 117.599 50.9028 119.544C50.8565 121.52 50.9646 123.465 51.0572 125.425C51.1344 126.857 51.0263 128.32 51.2888 129.707C51.3814 130.25 51.5358 130.838 51.4586 131.396C51.4123 131.743 51.1035 132.014 50.7484 132.044C50.5169 132.029 50.2853 131.954 50.0537 131.894C49.5133 131.245 49.1428 130.491 49.1428 129.647C49.1119 127.687 49.0192 125.727 48.9421 123.766C48.834 122.515 48.834 121.263 48.834 119.997C48.834 118.172 49.1891 116.317 49.4361 114.538C49.6214 112.774 50.0382 111.04 50.347 109.306C50.4088 108.853 50.3933 108.386 50.4551 107.934C50.6867 107.436 50.9955 107.014 51.3197 106.577L51.3351 106.562Z" fill="#777F89"/>
<path d="M112.889 111.823C112.036 111.96 111.321 112.25 110.605 112.738C109.25 113.592 107.986 114.552 106.783 115.62C105.261 116.916 104.149 118.822 103.19 120.56C102.139 122.42 101.439 124.433 100.937 126.506C100.723 127.436 100.8 128.366 101.028 129.281C101.256 130.181 101.53 131.065 101.896 131.919C102.398 133.078 103.251 134.114 104.241 134.907C105.718 136.112 107.666 136.615 109.539 136.691C108.123 137.454 106.722 138.17 105.124 138.475C104.012 138.75 102.901 138.704 101.759 138.78C100.449 138.841 99.14 138.612 97.9828 137.957C97.1302 137.499 96.5668 136.783 95.8817 136.112C95.3792 135.593 94.892 135.151 94.7245 134.419C94.4352 133.062 94.5418 131.614 94.8767 130.287C95.2269 128.869 95.5924 127.36 96.2319 126.018C96.7039 125.012 97.2368 124.036 97.7849 123.06C100.358 118.669 104.134 115.04 108.732 112.845C110.042 112.326 111.488 111.793 112.919 111.808L112.889 111.823Z" fill="#428297"/>
</g>
<defs>
<filter id="filter0_ii_878_10535" x="0" y="-10" width="128" height="138" filterUnits="userSpaceOnUse" color-interpolation-filters="sRGB">
<feFlood flood-opacity="0" result="BackgroundImageFix"/>
<feBlend mode="normal" in="SourceGraphic" in2="BackgroundImageFix" result="shape"/>
<feColorMatrix in="SourceAlpha" type="matrix" values="0 0 0 0 0 0 0 0 0 0 0 0 0 0 0 0 0 0 127 0" result="hardAlpha"/>
<feOffset dy="-10"/>
<feGaussianBlur stdDeviation="12.5"/>
<feComposite in2="hardAlpha" operator="arithmetic" k2="-1" k3="1"/>
<feColorMatrix type="matrix" values="0 0 0 0 0 0 0 0 0 0 0 0 0 0 0 0 0 0 0.15 0"/>
<feBlend mode="normal" in2="shape" result="effect1_innerShadow_878_10535"/>
<feColorMatrix in="SourceAlpha" type="matrix" values="0 0 0 0 0 0 0 0 0 0 0 0 0 0 0 0 0 0 127 0" result="hardAlpha"/>
<feOffset dy="-2"/>
<feGaussianBlur stdDeviation="2.5"/>
<feComposite in2="hardAlpha" operator="arithmetic" k2="-1" k3="1"/>
<feColorMatrix type="matrix" values="0 0 0 0 0 0 0 0 0 0 0 0 0 0 0 0 0 0 0.15 0"/>
<feBlend mode="normal" in2="effect1_innerShadow_878_10535" result="effect2_innerShadow_878_10535"/>
</filter>
<linearGradient id="paint0_linear_878_10535" x1="64" y1="0" x2="64" y2="128" gradientUnits="userSpaceOnUse">
<stop stop-color="#5D5DF7" stop-opacity="0.5"/>
<stop offset="1" stop-color="#5D5DF7"/>
</linearGradient>
</defs>
</svg>
