<svg width="240" height="240" viewBox="0 0 240 240" fill="none" xmlns="http://www.w3.org/2000/svg">
<circle cx="120" cy="120" r="120" fill="white"/>
<path d="M112.721 125.846C135.802 125.36 166.764 126.778 188.692 133.811C197.111 136.512 215.153 143.487 208.353 155.383C205.122 161.037 192.584 166.697 186.542 169.624C169.283 177.972 153.41 180.186 134.455 181.417C110.383 182.984 84.9585 183.062 61.4893 176.579C48.0256 172.862 38.046 169.345 31.0713 156.393C22.6265 140.702 46.5361 134.511 57.0597 131.849C74.3572 127.471 94.828 126.221 112.721 125.846ZM187.733 167.182C190.24 166.761 201.968 159.903 204.027 158.019C216.021 147.068 199.39 139.284 190.428 136.182C171.932 129.783 149.518 128.067 130.006 127.348C104.024 126.383 72.382 128.106 47.7082 136.104C42.1194 137.917 31.8808 142.334 31.2008 149.004C30.728 153.615 32.4312 155.344 34.4 159.094C34.5165 159.547 35.2224 159.515 35.3066 159.592C35.4167 159.696 35.5203 159.8 35.6239 159.91C36.278 162.52 39.5031 165.447 41.6531 167.008C52.5523 174.908 78.3011 179.085 91.7584 180.147C119.696 182.356 155.411 181.087 181.504 170.582C181.996 170.382 182.527 170.498 182.358 169.715C183.699 169.19 185.072 168.342 186.471 167.817C186.93 167.642 187.623 168.244 187.416 167.182C187.52 167.163 187.63 167.202 187.733 167.182Z" fill="#EDF4FE"/>
<path d="M93.332 57.7566C97.1658 58.1192 100.495 60.0815 100.067 64.4593C99.8145 67.0691 97.8717 67.6261 97.6062 68.3514C97.3731 68.986 98.1761 68.8306 98.6618 69.1803C102.217 71.706 101.861 77.2042 98.338 79.5226C97.8523 79.8464 95.6634 80.8437 95.2295 80.8437H83.3718V58.2293C83.3718 58.1969 83.8122 57.7566 83.8446 57.7566C86.8171 57.7566 90.4631 57.4846 93.332 57.7566ZM86.5386 67.5613H93.6558C96.3045 67.5613 97.9235 63.3389 95.5598 61.5451C95.1129 61.2083 93.4615 60.5996 93.0211 60.5996H86.5386V67.5548V67.5613ZM86.5386 78.0007H94.6013C94.6855 78.0007 95.9354 77.4438 96.1361 77.3207C98.0854 76.1097 98.5064 72.6256 96.6477 71.2073C96.2397 70.8965 93.7465 70.0934 93.332 70.0934H86.5321V78.0007H86.5386Z" fill="#030303"/>
<path d="M119.424 78.6289C119.547 78.739 119.761 80.9473 118.634 81.161C116.853 81.4978 114.586 81.1546 114.677 78.9462C110.455 84.4574 99.7822 80.2155 104.102 73.5841C106.511 69.8862 113.349 71.4988 114.211 69.7761C115.862 66.4798 109.626 65.1976 107.819 67.3282C106.588 68.7723 108.195 70.0222 104.251 69.4523C103.979 64.0707 109.185 63.1123 113.505 63.8376C119.994 64.9256 116.736 73.5776 117.578 78.1043C117.74 78.9398 119.282 78.48 119.431 78.6224L119.424 78.6289ZM114.366 72.6256C112.229 73.6488 106.828 72.9105 106.53 76.0191C106.135 80.1896 113.563 79.1599 114.301 75.8766C114.528 74.8663 114.289 73.6618 114.366 72.6256Z" fill="#060707"/>
<path d="M151.998 73.5711H139.979C139.914 77.3013 142.466 79.6132 146.215 78.3893C148.035 77.7935 148.521 75.5009 148.715 75.4491C149.427 75.2548 150.846 75.6175 151.681 75.4685C151.273 80.9797 144.052 83.2528 139.824 80.209C134.461 76.3493 135.737 65.0421 142.744 63.8376C149.188 62.7366 152.627 67.5613 151.998 73.5646V73.5711ZM148.838 71.0454C148.443 64.6665 140.342 64.8867 139.985 71.0454H148.838Z" fill="#060707"/>
<path d="M131.703 101.476C143.839 100.861 142.239 122.99 129.086 119.091C121.794 116.928 122.222 101.956 131.703 101.476ZM135.129 105.304C134.131 104.339 132.37 104.086 131.042 104.319C125.868 105.245 125.648 117.407 132.46 116.831C137.156 116.436 137.784 107.881 135.135 105.304H135.129Z" fill="#060707"/>
<path d="M104.244 107.091C103.687 106.994 101.252 107.234 101.097 107.078C101.039 107.02 101.123 106.178 100.631 105.492C99.3159 103.665 94.4135 103.814 94.407 106.308C94.407 109.507 102.91 108.186 104.458 112.097C107.897 120.762 90.0422 122.724 90.9553 113.425C91.5252 113.535 93.5198 113.243 93.7659 113.464C93.8695 113.554 94.1092 115.283 94.8992 115.963C96.9521 117.731 102.93 116.546 101.479 113.502C100.507 111.463 91.9526 111.968 91.2921 107.875C89.9904 99.8186 104.348 99.294 104.238 107.104L104.244 107.091Z" fill="#060707"/>
<path d="M133.976 69.1479C130.207 69.7243 131.664 68.5133 130.356 67.231C128.944 65.8451 124.482 65.7998 124.482 68.3514C124.482 69.9121 125.505 70.0546 126.768 70.495C129.3 71.3692 133.917 71.4081 134.526 74.7497C136.132 83.4859 120.344 84.1335 120.687 75.4686C121.244 75.5657 123.679 75.3261 123.841 75.4815C123.912 75.5528 123.828 76.3687 123.996 76.7379C125.706 80.4357 132.817 78.8685 131.275 75.475C130.187 73.0724 120.596 74.5878 121.069 68.4485C121.581 61.8753 134.539 61.9466 133.969 69.1479H133.976Z" fill="#060707"/>
<path d="M117.209 104.565C117.086 104.442 115.117 104.695 114.994 104.565C114.904 104.475 114.904 102.124 114.994 102.033C115.124 101.904 117.08 102.163 117.209 102.033C117.481 101.761 116.542 98.0182 118.174 96.5158C118.886 95.8617 122.513 94.8708 122.85 95.9135C122.953 96.2243 122.992 98.4651 122.902 98.5557C122.746 98.7111 121.134 98.3485 120.732 98.601C120.266 98.8925 120.369 101.386 120.369 102.04H122.902V104.572H120.369V118.8H117.209C116.827 117.051 117.714 105.071 117.209 104.565Z" fill="#060707"/>
<path d="M142.828 102.033C143.366 102.124 145.872 101.91 145.995 102.033C146.183 102.221 145.723 103.626 146.151 103.931C147.653 102.098 148.896 101.353 151.37 101.716C151.286 102.247 151.487 104.773 151.37 104.883C151.228 105.019 148.819 104.74 147.582 105.679C147.122 106.029 145.995 108.108 145.995 108.516V118.793H142.835V102.033H142.828Z" fill="#090C10"/>
<path d="M88.1188 118.793H84.9585V102.033C85.5543 102.053 88.1188 101.813 88.1188 102.506V118.793Z" fill="#030303"/>
<path d="M87.8014 96.0236H84.9519V99.1903H87.8014V96.0236Z" fill="#030303"/>
<path d="M187.733 167.182C188.368 165.933 189.508 166.069 190.376 165.557C192.778 164.139 194.805 162.61 197.221 161.173C198.218 160.583 199.546 160.143 200.673 159.405C205.109 156.497 209.81 151.005 205.433 145.844C204.733 145.015 204.416 145.125 203.859 144.73C201.21 140.916 193.73 138.267 189.236 136.739C180.092 133.63 168.765 130.871 159.265 130.813C159.051 130.813 158.844 130.813 158.63 130.813C158.604 130.638 158.682 130.217 158.63 130.178C158.468 130.055 155.217 130.204 154.518 130.178C154.311 130.172 154.097 130.178 153.883 130.178C153.035 130.165 152.569 130.152 151.668 130.178C151.351 130.185 151.034 130.159 150.723 130.178C151.034 129.194 149.415 129.531 148.508 129.544C147.983 129.55 147.452 129.544 146.928 129.544C144.176 128.592 141.145 128.443 138.25 128.268C137.479 128.223 136.152 128.074 135.543 128.598C133.84 128.507 131.534 128.469 129.851 128.598C130.045 127.232 128.743 128.255 128.27 128.281C125.058 128.482 120.745 128.456 117.52 128.281C117.481 128.281 117.157 127.996 116.756 127.957C114.58 127.743 115.182 128.475 114.994 128.598C114.807 128.721 111.187 128.637 110.565 128.598C110.183 128.572 109.127 127.581 109.302 128.915C108.803 128.864 108.233 128.922 107.722 128.915C107.689 128.624 107.89 128.365 107.521 128.274C106.886 128.125 104.056 128.015 104.555 128.915C97.1011 128.896 90.6186 129.751 83.3654 130.496C83.1582 130.515 82.938 130.476 82.7308 130.496C82.3422 130.534 81.2283 130.418 80.5159 130.496L80.354 130.185C79.6158 130.12 79.4603 130.068 79.564 130.813C75.0178 131.337 70.3615 131.661 65.8477 132.438C59.7084 133.494 53.8994 135.657 47.9349 137.14C44.8847 137.898 40.889 138.753 39.0822 141.57C37.4113 142.58 36.7313 143.124 35.2872 144.419C34.0956 145.481 33.856 145.067 33.0141 147.048C32.2888 148.758 32.373 149.134 32.4377 150.74C32.5154 152.683 32.373 154.198 33.7006 155.798C33.448 157.332 35.1188 158.122 35.2807 159.593C35.1965 159.508 34.4906 159.547 34.3741 159.094C32.4053 155.344 30.7021 153.615 31.1749 149.004C31.8549 142.334 42.0935 137.917 47.6824 136.104C72.3626 128.106 103.998 126.39 129.98 127.348C149.499 128.074 171.906 129.79 190.402 136.182C199.371 139.284 215.995 147.061 204.001 158.019C201.942 159.897 190.207 166.761 187.708 167.182H187.733Z" fill="#DAE8FE"/>
<path d="M51.1146 170.343C51.4319 170.459 51.7493 170.55 52.0666 170.66C54.4044 171.476 58.1929 173.289 60.6085 173.503C60.8157 173.522 61.0554 173.471 61.2432 173.503C63.8465 174.261 67.784 175.932 70.4132 176.035C70.7241 176.048 71.0544 176.055 71.3652 176.035C71.5207 176.443 71.9675 176.34 72.3107 176.353C72.6216 176.365 72.9454 176.365 73.2562 176.353C76.7339 177.311 80.4058 177.706 84.0065 177.933C84.2137 177.946 84.4274 177.933 84.6411 177.933C84.7707 178.425 85.8068 178.405 85.904 177.933C86.3314 177.991 86.7459 178.192 87.1668 178.25C87.4582 178.664 88.2548 178.775 88.4296 178.25C89.2715 178.367 90.1199 178.457 90.9618 178.567C91.3892 178.626 91.7713 178.833 92.5419 178.885C93.1701 178.924 93.8112 178.839 94.4394 178.885C94.4847 179.357 95.3461 179.357 95.3914 178.885C96.5312 178.949 97.4702 179.098 98.5517 179.202C101.162 179.442 103.739 179.584 106.459 179.519C106.899 179.506 107.463 179.215 108.039 179.202C107.864 180.154 108.525 179.817 109.134 179.837C110.604 179.888 114.606 180.109 115.759 179.837C116.115 179.752 115.908 179.493 115.946 179.196C116.471 179.202 117.002 179.189 117.527 179.196C121.283 179.254 125.201 179.642 129.086 179.513C129.695 179.493 130.356 179.837 130.181 178.878C130.375 178.917 130.615 178.846 130.815 178.878C131.683 179.021 134.189 179.888 133.976 178.561C134.546 178.58 135.122 178.865 135.556 178.878C137.117 178.911 138.347 178.652 139.668 178.561C139.875 178.548 140.096 178.58 140.303 178.561C141.086 178.49 141.624 178.321 142.2 178.244C142.608 178.192 143.055 178.282 143.463 178.244C145.374 178.062 144.402 177.855 144.726 177.609C144.765 177.583 145.497 177.583 145.678 177.609C149.428 178.205 155.735 177.084 159.666 176.255C159.828 176.223 161.395 175.737 161.473 175.685C161.583 175.608 161.473 175.252 161.492 175.077C161.7 175.077 161.939 175.044 162.127 175.077C162.16 175.077 162.354 175.537 162.755 175.394V174.449C163.073 174.429 163.39 174.449 163.707 174.449C163.513 175.388 164.517 175.439 164.342 174.449C164.549 174.449 164.763 174.461 164.977 174.449C165.158 174.442 165.404 174.494 165.929 174.449C166.136 174.429 166.356 174.468 166.563 174.449C166.861 174.416 167.114 174.144 167.198 174.131C167.399 174.105 167.632 174.164 167.833 174.131C172.774 173.315 177.715 171.534 182.378 169.702C182.54 170.485 182.009 170.369 181.523 170.569C155.437 181.08 119.715 182.343 91.7777 180.135C78.3205 179.072 52.5717 174.895 41.6725 166.995C39.5225 165.434 36.2974 162.513 35.6433 159.897C42.1582 166.593 42.0935 167.059 51.1405 170.336L51.1146 170.343Z" fill="#DAE8FE"/>
<path d="M146.941 129.55C147.465 129.55 147.996 129.557 148.521 129.55C148.184 130.502 149.868 130.237 150.736 130.185C151.047 130.165 151.37 130.191 151.681 130.185C152.083 130.709 153.495 130.709 153.896 130.185C154.11 130.185 154.317 130.178 154.531 130.185C154.557 130.36 154.479 130.781 154.531 130.819C154.693 130.942 158.002 130.819 158.643 130.819C158.857 130.819 159.064 130.819 159.278 130.819C161.525 131.584 163.934 131.473 166.291 131.869C178.628 133.947 193.685 137.503 203.865 144.736C204.597 145.786 206.002 147.657 206.255 148.829C206.98 152.223 205.62 154.12 203.399 156.445L197.221 161.179C194.805 162.617 192.778 164.145 190.376 165.563C189.514 166.075 188.368 165.939 187.733 167.189C187.63 167.208 187.52 167.169 187.416 167.189C187.222 167.228 186.969 167.15 186.782 167.189C186.503 167.247 186.108 167.124 185.836 167.189C185.719 166.502 187.235 166.062 187.772 165.803C190.836 164.333 193.206 162.682 195.958 160.706C196.392 160.396 196.962 160.402 196.904 159.599C199.63 158.356 199.857 158.2 201.955 156.27C204.908 153.55 207.505 151.834 204.876 147.359C203.503 145.028 198.672 141.9 196.178 140.877C185.875 136.654 171.964 133.313 160.851 132.4C161.188 131.363 159.038 131.609 158.319 132.082C158.118 132.056 157.885 132.115 157.685 132.082C157.853 130.748 156.804 131.739 156.422 131.765C155.696 131.817 154.939 131.765 154.207 131.765C154.382 130.761 153.702 131.201 153.106 131.143C148.858 130.722 144.402 129.9 140.296 129.55C142.006 128.747 144.402 129.79 146.209 129.854C146.682 129.867 146.902 129.55 146.941 129.55Z" fill="#C0D9FE"/>
<path d="M33.7199 155.798C39.2699 162.481 41.0767 166.107 50.1691 169.566C50.6613 169.753 51.2959 169.475 51.1081 170.349C42.0676 167.072 42.1323 166.613 35.6109 159.91C35.5073 159.8 35.4037 159.696 35.2936 159.593C35.1317 158.122 33.4609 157.332 33.7134 155.798H33.7199Z" fill="#CEE1FE"/>
<path d="M186.788 167.182L186.47 167.817C185.072 168.342 183.705 169.19 182.358 169.715C177.695 171.547 172.748 173.328 167.813 174.144V173.51C167.981 173.516 168.422 173.535 168.448 173.51L169.082 173.192C169.497 173.205 176.025 171.146 176.983 170.815C179.632 169.896 183.304 167.752 185.842 167.189C186.121 167.124 186.516 167.247 186.788 167.189V167.182Z" fill="#CEE1FE"/>
<path d="M187.416 167.182C187.617 168.238 186.924 167.642 186.47 167.817L186.788 167.182C186.976 167.144 187.228 167.221 187.422 167.182H187.416Z" fill="#DAE8FE"/>
<path d="M86.5386 78.0007V70.0934H93.3384C93.7529 70.0934 96.2462 70.8965 96.6542 71.2073C98.5128 72.6256 98.0919 76.1097 96.1426 77.3207C95.9418 77.4438 94.6919 78.0007 94.6077 78.0007H86.545H86.5386Z" fill="#F8F8F8"/>
<path d="M86.5386 67.5613V60.606H93.0211C93.4615 60.606 95.1129 61.2148 95.5597 61.5515C97.9235 63.3389 96.3045 67.5678 93.6558 67.5678H86.5386V67.5613Z" fill="#F8F8F8"/>
<path d="M114.366 72.6255C114.288 73.6682 114.528 74.8663 114.301 75.8765C113.563 79.1599 106.129 80.1896 106.53 76.019C106.828 72.9105 112.235 73.6488 114.366 72.6255Z" fill="#F8F8F8"/>
<path d="M148.838 71.0454H139.985C140.342 64.8867 148.443 64.6665 148.838 71.0454Z" fill="#F8F8F8"/>
<path d="M135.128 105.304C137.784 107.881 137.149 116.436 132.454 116.831C125.641 117.408 125.861 105.245 131.036 104.319C132.363 104.08 134.131 104.339 135.122 105.304H135.128Z" fill="#FBFBFB"/>
<path d="M35.3001 155.163C35.747 157.3 37.4308 160.195 39.4124 161.173C43.2981 166.761 52.9798 169.721 59.4105 171.69C75.0825 176.488 94.4395 178.088 110.882 178.25V178.885C110.26 178.898 109.049 179.183 108.033 179.202C107.456 179.215 106.893 179.506 106.453 179.519C106.627 178.567 105.967 178.904 105.358 178.885C103.215 178.813 100.585 178.671 98.5453 179.202C97.4638 179.105 96.5247 178.949 95.385 178.885C94.977 178.865 94.5431 178.891 94.433 178.885C93.8048 178.839 93.1637 178.923 92.5355 178.885C92.8463 177.965 91.4864 178.017 90.9553 178.567C90.1134 178.457 89.2716 178.367 88.4232 178.25C87.6072 178.133 87.2316 178.256 87.1604 178.25C86.7329 178.192 86.3185 177.991 85.8975 177.933C84.965 177.803 85.0233 177.946 84.6347 177.933C84.4275 177.933 84.2138 177.946 84.0001 177.933C84.1749 176.909 83.482 177.389 82.8926 177.317C79.7259 176.909 76.3065 176.21 73.2498 176.352C72.939 176.365 72.6152 176.365 72.3043 176.352C72.4662 175.064 71.6114 176.022 71.3588 176.035C71.0479 176.055 70.7177 176.048 70.4068 176.035C70.5817 175.213 69.9988 175.388 69.4678 175.252C66.6637 174.52 63.8725 174.002 61.2367 173.503C61.0489 173.471 60.8093 173.522 60.6021 173.503C60.7834 172.719 59.281 172.499 58.7693 172.331C57.0208 171.754 55.2529 171.223 53.4978 170.647C53.0639 170.505 52.4422 169.941 52.0666 170.66C51.7493 170.55 51.432 170.459 51.1147 170.343C51.3025 169.468 50.6613 169.747 50.1756 169.559C41.0832 166.107 39.2764 162.481 33.7265 155.791C32.3989 154.191 32.5413 152.676 32.4636 150.733L33.0983 150.416C33.1436 150.979 33.163 151.99 33.3314 152.534C33.5516 153.259 34.7497 154.567 35.3131 155.156L35.3001 155.163Z" fill="#C0D9FE"/>
<path d="M117.526 128.598C120.913 128.579 124.793 128.786 128.277 128.915C128.594 128.928 128.911 128.902 129.222 128.915C132.382 129.045 136.43 129.278 139.662 129.55C139.869 129.569 140.089 129.531 140.296 129.55C144.402 129.9 148.858 130.722 153.106 131.143C153.708 131.201 154.382 130.761 154.207 131.765C150.12 131.797 146.869 131.085 142.977 130.819C123.465 129.498 103.914 130.126 84.4791 131.765C80.4057 132.108 75.7041 133.028 71.6695 133.028C71.4881 132.03 72.1617 132.49 72.7575 132.387C75.7041 131.881 78.683 131.558 81.6361 131.117C82.2254 131.027 82.9184 131.519 82.7371 130.496C82.9443 130.476 83.1645 130.515 83.3717 130.496C84.2913 131.014 85.9816 130.897 87.0242 130.826C90.1003 130.619 93.4679 129.744 96.5051 129.55C100.766 129.278 105.39 129.375 109.626 129.233C109.943 129.22 110.26 129.246 110.578 129.233C112.061 129.187 113.641 128.98 115.007 128.915C115.914 128.877 116.769 128.605 117.539 128.598H117.526Z" fill="#A7CAFE"/>
<path d="M82.737 130.496C82.9184 131.512 82.2254 131.027 81.6361 131.117C78.683 131.558 75.6975 131.881 72.7574 132.387C72.1681 132.49 71.4881 132.024 71.6694 133.028C71.3586 133.028 71.0283 133.054 70.7239 133.028C70.4196 133.002 69.2733 131.998 69.4611 133.345C69.2539 133.339 69.0272 133.371 68.8265 133.345C68.4832 133.293 67.732 132.393 67.881 133.662C67.6737 133.662 67.46 133.669 67.2463 133.662C62.998 133.475 55.965 135.787 51.6779 137.237C51.1663 137.412 50.6417 137.289 50.8036 138.086C45.9725 139.465 38.8618 141.596 35.3064 145.358V144.406C36.7506 143.117 37.4305 142.567 39.1014 141.557C42.0026 139.808 44.1527 139.258 47.0863 137.988C47.5656 137.781 48.1225 137.943 47.9541 137.134C53.9186 135.651 59.7276 133.488 65.8669 132.432C70.3742 131.655 75.037 131.331 79.5832 130.806C80.0689 130.748 80.4445 130.502 80.5352 130.489C81.2475 130.411 82.3614 130.528 82.75 130.489L82.737 130.496Z" fill="#C0D9FE"/>
<path d="M203.865 144.73C204.422 145.125 204.74 145.021 205.439 145.844C209.817 151.005 205.109 156.497 200.679 159.405C199.552 160.143 198.225 160.583 197.227 161.173L203.406 156.439C205.627 154.114 206.987 152.216 206.261 148.823C206.009 147.651 204.604 145.779 203.872 144.73C193.691 137.496 178.635 133.941 166.298 131.862C163.94 131.467 161.531 131.577 159.284 130.813C168.785 130.871 180.105 133.63 189.255 136.739C193.75 138.267 201.23 140.916 203.878 144.73H203.865Z" fill="#CEE1FE"/>
<path d="M104.561 128.915C105.61 128.915 106.673 128.902 107.722 128.915C108.24 128.922 108.803 128.864 109.302 128.915C109.444 128.928 109.587 129.084 109.619 129.233C105.384 129.382 100.76 129.278 96.4987 129.55C93.4679 129.744 90.0939 130.619 87.0177 130.826C85.9751 130.897 84.2913 131.014 83.3652 130.496C90.6119 129.751 97.1009 128.896 104.555 128.915H104.561Z" fill="#C0D9FE"/>
<path d="M146.941 129.55C146.902 129.55 146.682 129.867 146.209 129.854C144.409 129.796 142.006 128.754 140.296 129.55C140.089 129.531 139.875 129.57 139.662 129.55C139.934 128.417 137.408 129.013 136.313 128.928C135.906 128.896 135.588 128.605 135.549 128.598C136.158 128.074 137.486 128.223 138.256 128.268C141.158 128.443 144.188 128.598 146.934 129.544L146.941 129.55Z" fill="#CEE1FE"/>
<path d="M129.863 128.598C131.547 128.469 133.853 128.507 135.556 128.598C135.601 128.598 135.919 128.896 136.32 128.928C137.408 129.013 139.94 128.417 139.668 129.55C136.437 129.285 132.389 129.045 129.229 128.915C129.313 128.605 129.591 128.618 129.863 128.598Z" fill="#C0D9FE"/>
<path d="M47.9543 137.14C48.1227 137.95 47.5658 137.788 47.0865 137.995C44.1464 139.264 41.9964 139.815 39.1016 141.563C40.9149 138.746 44.9041 137.891 47.9543 137.134V137.14Z" fill="#CEE1FE"/>
<path d="M128.283 128.281V128.915C124.799 128.786 120.92 128.579 117.533 128.598V128.281C120.758 128.456 125.071 128.482 128.283 128.281Z" fill="#C0D9FE"/>
<path d="M35.3 144.413V145.365C34.238 146.491 33.9336 147.553 33.3767 148.92C33.0529 149.704 32.9363 148.441 33.0852 150.429L32.4506 150.746C32.3858 149.14 32.3016 148.765 33.027 147.055C33.8688 145.067 34.1085 145.488 35.3 144.426V144.413Z" fill="#CEE1FE"/>
<path d="M114.994 128.598V128.915C113.634 128.98 112.048 129.187 110.565 129.233V128.598C111.18 128.637 114.807 128.721 114.994 128.598Z" fill="#C0D9FE"/>
<path d="M154.531 130.178C155.23 130.204 158.481 130.055 158.643 130.178C158.695 130.217 158.611 130.632 158.643 130.813C158.002 130.813 154.693 130.936 154.531 130.813C154.479 130.774 154.563 130.36 154.531 130.178Z" fill="#CEE1FE"/>
<path d="M117.527 128.281V128.598C116.756 128.598 115.901 128.87 114.994 128.915V128.598C115.182 128.475 114.58 127.743 116.756 127.957C117.164 127.996 117.481 128.281 117.52 128.281H117.527Z" fill="#CEE1FE"/>
<path d="M104.561 128.915C104.063 128.015 106.886 128.125 107.527 128.274C107.897 128.358 107.696 128.618 107.728 128.915C106.679 128.902 105.617 128.915 104.568 128.915H104.561Z" fill="#CEE1FE"/>
<path d="M148.521 129.55C149.428 129.537 151.047 129.194 150.736 130.185C149.868 130.243 148.184 130.502 148.521 129.55Z" fill="#CEE1FE"/>
<path d="M153.896 130.178C153.494 130.703 152.083 130.703 151.681 130.178C152.581 130.152 153.048 130.165 153.896 130.178Z" fill="#CEE1FE"/>
<path d="M128.283 128.281C128.762 128.248 130.058 127.232 129.863 128.598C129.598 128.618 129.313 128.605 129.229 128.915C128.911 128.902 128.594 128.928 128.283 128.915V128.281Z" fill="#CEE1FE"/>
<path d="M110.571 128.598V129.233C110.254 129.246 109.937 129.22 109.619 129.233C109.587 129.084 109.444 128.928 109.302 128.915C109.134 127.581 110.189 128.572 110.565 128.598H110.571Z" fill="#CEE1FE"/>
<path d="M80.5288 130.496C80.4446 130.509 80.069 130.755 79.5768 130.813C79.4732 130.068 79.6221 130.113 80.3669 130.185L80.5288 130.496Z" fill="#CEE1FE"/>
<path d="M196.903 159.592C196.962 160.395 196.392 160.389 195.958 160.7C193.212 162.675 190.835 164.326 187.772 165.797C187.235 166.056 185.719 166.496 185.836 167.182C183.297 167.752 179.625 169.889 176.977 170.809C176.018 171.139 169.49 173.199 169.076 173.186C169.043 173.186 168.635 172.681 168.448 172.868C168.376 172.94 168.519 173.419 168.448 173.497C168.428 173.522 167.981 173.503 167.813 173.497C167.489 173.484 167.658 173.451 167.178 173.497C166.971 173.516 166.718 173.451 166.544 173.497C165.469 173.769 166.077 174.002 165.909 174.131C165.818 174.202 165.151 174.066 164.957 174.449C164.75 174.461 164.536 174.449 164.322 174.449C164.109 174.449 163.901 174.449 163.688 174.449C163.37 174.449 163.053 174.429 162.742 174.449C162.535 174.461 162.308 174.423 162.108 174.449C161.92 174.474 161.531 174.39 161.473 174.449C161.415 174.507 161.499 174.889 161.473 175.083C161.156 175.083 160.838 175.083 160.521 175.083C160.476 174.61 159.614 174.61 159.569 175.083C159.426 175.064 158.96 175.064 158.934 175.083C158.138 175.122 157.471 174.766 157.671 175.718C157.464 175.718 157.25 175.718 157.037 175.718C156.758 175.718 156.525 175.698 156.091 175.718C155.884 175.724 155.664 175.692 155.457 175.718C154.628 175.821 153.643 175.316 153.876 176.352C153.669 176.34 153.456 176.352 153.242 176.352C152.97 176.352 153.177 176.184 152.296 176.352C150.412 176.702 150.405 176.754 148.501 176.67C147.672 176.631 146.662 176.385 146.921 177.304C146.5 177.304 146.079 177.292 145.658 177.304C145.438 177.311 145.535 177.123 144.706 177.304C144.285 177.395 143.864 177.531 143.444 177.622C143.398 177.428 143.204 177.201 143.126 176.987C154.854 175.75 172.599 172.052 182.87 166.289C184.21 165.538 185.376 164.301 186.548 163.64C189.385 162.04 193.814 160.991 196.89 159.592H196.903Z" fill="#A7CAFE"/>
<path d="M159.589 175.09C160.411 175.219 160.223 175.09 160.541 175.09C160.858 175.09 161.175 175.09 161.493 175.09C161.467 175.258 161.583 175.614 161.473 175.698C161.395 175.757 159.835 176.236 159.666 176.268C155.742 177.097 149.428 178.218 145.678 177.622V177.305C146.099 177.292 146.52 177.305 146.941 177.305C147.789 177.292 148.767 177.628 148.521 176.67C150.425 176.754 150.431 176.709 152.316 176.353C152.361 176.825 153.223 176.825 153.261 176.353C153.469 176.353 153.689 176.34 153.896 176.353C154.719 176.404 155.742 176.625 155.476 175.718C155.683 175.692 155.904 175.724 156.111 175.718C156.156 176.191 157.018 176.191 157.056 175.718C157.264 175.718 157.477 175.718 157.691 175.718C159.498 175.75 158.714 175.31 158.954 175.083C158.98 175.064 159.446 175.064 159.589 175.083V175.09Z" fill="#CEE1FE"/>
<path d="M123.536 178.567C123.983 178.567 125.136 178.878 126.068 178.885C127.435 178.891 128.277 178.723 129.546 178.567C129.637 178.898 129.922 178.833 130.181 178.885C130.355 179.837 129.695 179.5 129.086 179.519C125.2 179.649 121.289 179.26 117.526 179.202V178.885C119.379 178.924 121.626 178.561 123.536 178.567Z" fill="#CEE1FE"/>
<path d="M73.2498 176.353C76.3065 176.21 79.7258 176.903 82.8926 177.317C83.4819 177.395 84.1749 176.916 84 177.933C80.3928 177.706 76.7274 177.305 73.2498 176.353Z" fill="#CEE1FE"/>
<path d="M61.2366 173.503C63.8723 173.995 66.6635 174.52 69.4676 175.252C69.9987 175.388 70.5815 175.213 70.4067 176.035C67.7774 175.938 63.8399 174.267 61.2366 173.503Z" fill="#CEE1FE"/>
<path d="M52.0665 170.66C52.4486 169.948 53.0638 170.505 53.4977 170.647C55.2527 171.223 57.0207 171.755 58.7692 172.331C59.2809 172.499 60.7833 172.719 60.602 173.503C58.1929 173.289 54.4044 171.476 52.0601 170.66H52.0665Z" fill="#CEE1FE"/>
<path d="M115.946 179.202C115.907 179.493 116.115 179.759 115.759 179.843C114.606 180.115 110.604 179.888 109.134 179.843C108.525 179.824 107.864 180.167 108.039 179.208C109.056 179.189 110.267 178.904 110.889 178.891C112.229 178.865 114.34 179.183 115.946 179.208V179.202Z" fill="#CEE1FE"/>
<path d="M98.5518 179.202C100.592 178.671 103.221 178.813 105.365 178.885C105.973 178.904 106.634 178.561 106.459 179.519C103.739 179.584 101.162 179.442 98.5518 179.202Z" fill="#CEE1FE"/>
<path d="M138.716 178.25C139.046 178.295 139.519 178.133 139.668 178.567C138.347 178.652 137.117 178.917 135.556 178.885V178.25C136.67 178.276 137.369 178.075 138.716 178.25Z" fill="#CEE1FE"/>
<path d="M133.658 178.567C133.762 178.567 133.872 178.567 133.976 178.567C134.189 179.895 131.677 179.027 130.815 178.885V178.567C131.761 178.567 132.719 178.528 133.665 178.567H133.658Z" fill="#CEE1FE"/>
<path d="M142.194 177.615V178.25C141.618 178.321 141.08 178.496 140.296 178.567V177.622C140.925 177.596 141.566 177.641 142.194 177.622V177.615Z" fill="#CEE1FE"/>
<path d="M143.146 176.987C143.217 177.194 143.418 177.421 143.463 177.622C143.502 177.81 143.437 178.056 143.463 178.256C143.049 178.295 142.602 178.205 142.2 178.256V176.994C142.511 176.974 142.841 177.026 143.146 176.994V176.987Z" fill="#C0D9FE"/>
<path d="M135.556 178.25V178.885C135.122 178.872 134.545 178.587 133.976 178.567C133.872 178.567 133.762 178.567 133.658 178.567C133.425 177.169 135.07 178.244 135.556 178.25Z" fill="#C0D9FE"/>
<path d="M140.296 177.615V178.561C140.089 178.58 139.875 178.548 139.662 178.561C139.513 178.127 139.046 178.289 138.71 178.244C138.47 177.259 139.441 177.648 140.29 177.609L140.296 177.615Z" fill="#C0D9FE"/>
<path d="M117.527 178.885V179.202C117.002 179.196 116.471 179.208 115.946 179.202C115.972 179.001 115.921 178.775 115.946 178.574C116.503 178.269 117.358 178.885 117.527 178.891V178.885Z" fill="#C0D9FE"/>
<path d="M144.726 177.305V177.622C144.402 177.861 145.367 178.075 143.463 178.256C143.437 178.056 143.502 177.81 143.463 177.622C143.891 177.531 144.305 177.395 144.726 177.305Z" fill="#CEE1FE"/>
<path d="M90.9617 178.567C91.4992 178.017 92.8527 177.965 92.5418 178.885C91.7712 178.833 91.3891 178.626 90.9617 178.567Z" fill="#CEE1FE"/>
<path d="M85.904 177.933C85.8003 178.405 84.7706 178.425 84.6411 177.933C85.0297 177.946 84.9779 177.803 85.904 177.933Z" fill="#CEE1FE"/>
<path d="M130.809 178.567V178.885C130.608 178.852 130.368 178.924 130.174 178.885C129.915 178.833 129.63 178.898 129.54 178.567C130.414 178.464 130.31 178.567 130.802 178.567H130.809Z" fill="#C0D9FE"/>
<path d="M88.4296 178.25C88.2482 178.775 87.4582 178.664 87.1667 178.25C87.238 178.256 87.6136 178.133 88.4296 178.25Z" fill="#CEE1FE"/>
<path d="M167.813 173.503V174.138C167.612 174.17 167.386 174.112 167.178 174.138V173.503C167.658 173.458 167.489 173.49 167.813 173.503Z" fill="#C0D9FE"/>
<path d="M166.544 173.503V174.455C166.337 174.474 166.116 174.436 165.909 174.455V174.138C166.078 174.008 165.462 173.775 166.544 173.503Z" fill="#C0D9FE"/>
<path d="M167.178 173.503V174.138C167.094 174.151 166.842 174.423 166.544 174.455V173.503C166.712 173.458 166.971 173.522 167.178 173.503Z" fill="#CEE1FE"/>
<path d="M162.749 174.455V175.401C162.341 175.543 162.153 175.09 162.114 175.083V174.449C162.315 174.423 162.541 174.462 162.749 174.449V174.455Z" fill="#CEE1FE"/>
<path d="M71.3586 176.035C71.6112 176.022 72.466 175.064 72.3041 176.353C71.9544 176.34 71.5076 176.45 71.3586 176.035Z" fill="#CEE1FE"/>
<path d="M95.3914 178.885C95.3461 179.357 94.4848 179.357 94.4395 178.885C94.5431 178.891 94.9834 178.865 95.3914 178.885Z" fill="#CEE1FE"/>
<path d="M165.916 174.138V174.455C165.398 174.5 165.145 174.449 164.964 174.455C165.151 174.073 165.825 174.209 165.916 174.138Z" fill="#CEE1FE"/>
<path d="M145.671 177.305V177.622C145.497 177.596 144.758 177.596 144.719 177.622V177.305C145.542 177.123 145.451 177.311 145.671 177.305Z" fill="#C0D9FE"/>
<path d="M164.329 174.455C164.504 175.446 163.5 175.394 163.694 174.455C163.908 174.455 164.115 174.455 164.329 174.455Z" fill="#CEE1FE"/>
<path d="M162.121 174.455V175.09C161.933 175.057 161.693 175.09 161.486 175.09C161.512 174.902 161.428 174.52 161.486 174.455C161.544 174.39 161.926 174.481 162.121 174.455Z" fill="#C0D9FE"/>
<path d="M154.213 131.758C154.945 131.758 155.703 131.81 156.428 131.758C156.655 132.27 157.302 132.017 157.691 132.076C157.892 132.108 158.118 132.05 158.326 132.076C159.09 132.173 159.97 132.322 160.858 132.393C171.971 133.3 185.881 136.648 196.185 140.87C198.678 141.893 203.509 145.021 204.882 147.353C207.518 151.834 204.914 153.55 201.961 156.264C199.863 158.194 199.636 158.349 196.91 159.592C193.834 160.991 189.404 162.04 186.568 163.64C185.395 164.301 184.23 165.538 182.889 166.289C172.618 172.052 154.874 175.75 143.146 176.987C142.835 177.02 142.511 176.968 142.2 176.987C136.877 177.369 131.418 177.706 126.068 177.939C125.226 177.978 124.378 177.907 123.536 177.939C119.43 178.101 114.975 178.295 110.888 178.256C94.4457 178.095 75.0888 176.495 59.4168 171.696C52.986 169.727 43.3043 166.761 39.4187 161.179C38.1105 159.301 37.7544 157.119 36.0965 155.474C35.8569 155.234 35.3712 155.234 35.3064 155.169C34.7365 154.58 33.5449 153.272 33.3247 152.547C33.1628 152.003 33.1369 150.992 33.0916 150.429C32.9427 148.441 33.0592 149.704 33.383 148.92C33.94 147.56 34.2443 146.491 35.3064 145.365C38.8618 141.602 45.9725 139.471 50.8036 138.092C53.4005 137.354 56.1658 136.376 58.7044 135.715C61.5215 134.99 64.6106 134.977 67.2463 133.662C67.4535 133.669 67.6673 133.662 67.881 133.662C68.2307 133.669 68.6775 133.74 68.8265 133.345C69.0208 133.371 69.2539 133.339 69.4611 133.345C69.9403 133.364 70.3548 133.397 70.724 133.028C71.0348 133.054 71.3586 133.028 71.6695 133.028C75.704 133.028 80.4056 132.108 84.4791 131.765C103.914 130.12 123.465 129.492 142.977 130.819C146.869 131.085 150.12 131.797 154.207 131.765L154.213 131.758ZM55.2268 138.72C53.2321 139.258 51.2116 139.724 49.217 140.3C47.19 140.89 46.6007 141.136 44.7874 141.88C42.0286 143.02 38.6999 144.238 36.5498 146.453C34.73 148.331 35.0474 149.121 35.2999 151.368C35.3064 151.446 35.0603 151.685 35.0798 151.899C35.1963 153.479 35.9087 152.734 36.2519 152.948C36.3361 153 36.6081 154.528 37.5147 154.211C37.9227 152.093 39.5418 150.481 40.3642 148.518C40.7981 148.136 40.9212 148.065 41.3162 147.573C43.1619 146.738 44.8133 144.898 46.5877 143.836C48.2456 142.845 50.2078 142.308 51.7491 141.252C56.6903 139.491 61.6704 137.898 66.8513 136.907C96.544 131.221 125.226 131.163 155.165 134.614C161.81 135.379 167.107 136.59 173.505 138.409C177.229 139.471 180.046 140.268 183.627 141.887C186.211 143.053 188.646 144.503 191.217 145.682C192.526 147.158 194.999 149.399 195.563 151.297C195.809 152.126 195.725 153.453 195.964 154.217C194.844 154.088 195.511 155.532 195.161 156.419C194.935 156.983 193.898 158.271 193.445 158.809C195.103 158.66 196.463 157.753 197.868 157.067C198.212 156.898 198.749 157.015 199.436 156.581C199.682 156.426 203.218 153.142 203.379 152.929C205.581 150.008 202.965 147.314 200.718 145.52C197.829 143.208 191.988 141.246 188.381 139.989C185.279 138.908 181.736 137.898 178.576 137.14C175.222 136.337 171.316 135.482 167.826 134.925C163.552 134.245 159.452 134.051 155.178 133.662C139.752 132.244 126.638 131.648 111.076 132.095C91.1689 132.665 74.5383 133.507 55.2462 138.72H55.2268ZM64.7142 140.3C60.8868 141.188 57.9467 142.114 54.2748 143.461C50.8036 144.736 48.4269 145.397 45.3184 147.625C44.2045 148.421 41.2514 150.811 40.8305 152.016C40.7593 152.223 40.688 154.722 40.7333 154.917C41.3356 157.423 44.47 159.113 46.6848 159.903C49.4825 160.901 54.9936 163.025 57.7524 163.064C57.9596 163.064 58.1798 163.083 58.3871 163.064C58.7562 163.51 59.2484 163.303 59.6499 163.381C60.1615 163.478 60.7249 163.582 61.2301 163.698C61.2624 163.705 61.3984 163.912 61.8647 164.016C62.4799 164.158 63.1405 164.223 63.7622 164.333C63.7946 164.333 63.8593 164.56 64.3968 164.65C83.6113 167.94 103.486 169.753 123.076 169.093C133.587 168.737 144.136 168.717 154.654 167.461C158.772 166.969 162.166 166.075 166.55 165.92C166.9 165.907 167.347 166.017 167.502 165.602C167.813 165.628 168.137 165.602 168.448 165.602C171.893 165.557 177.3 163.938 180.784 163.07C184.489 162.144 187.066 162.403 188.692 158.323C189.028 157.481 189.637 155.674 189.644 154.846C189.644 153.55 188.478 152.618 187.746 151.685C187.656 151.569 187.526 151.478 187.429 151.368C186.613 150.422 187.021 150.688 185.849 149.788C185.104 149.218 184.418 148.726 183.634 148.208C182.637 147.547 182.073 146.997 180.791 146.31C179.684 145.714 178.46 145.248 177.313 144.73C175.435 143.882 173.564 143.195 171.621 142.515C170.002 141.952 169.905 141.906 168.143 141.563C168.04 141.544 167.813 141.298 167.509 141.246C166.647 141.097 165.559 141.084 164.659 140.928C164.238 140.138 162.949 139.983 162.14 139.808C159.355 139.219 156.46 138.681 153.656 138.17C138.8 135.476 125.246 135.029 110.092 135.217C95.0739 135.404 79.4083 136.881 64.7206 140.287L64.7142 140.3ZM171.291 140.3C169.438 139.173 166.44 138.247 163.96 137.665C161.181 137.017 158.338 136.602 155.476 136.505L158.559 137.684C162.904 138.17 166.971 139.581 171.284 140.294C173.648 141.725 177.469 142.839 180.137 144.089C181.056 144.523 181.996 144.704 182.669 145.041C183.479 145.436 187.863 148.777 188.523 149.464C189.87 150.856 191.8 153.809 191.522 155.798C191.399 156.646 190.285 157.76 190.732 158.647C191.392 158.394 192.415 157.449 192.804 156.911C193.141 156.439 192.992 156.05 193.102 155.798C193.121 155.752 193.555 155.655 193.665 155.266C194.054 153.874 194.015 152.268 193.309 150.999C191.289 147.366 187.105 145.792 183.615 144.095C181.995 143.312 180.81 142.832 179.185 142.198C175.429 140.728 175.001 140.916 171.278 140.3H171.291ZM47.0022 164.016C46.0567 162.824 44.3599 162.856 43.7318 161.283L40.0469 158.33C39.7943 158.641 41.2255 160.868 41.491 161.153C42.4819 162.235 44.5089 163.595 45.7393 164.339C62.8102 174.695 95.7539 176.417 115.461 176.346C128.121 176.301 146.481 175.841 158.526 172.603C158.921 172.499 159.906 172.441 159.906 171.936C156.337 171.327 152.983 172.901 149.622 173.192C116.989 176.042 84.7835 176.061 53.3293 166.399C51.4577 165.822 48.6536 164.288 47.0022 164.029V164.016ZM59.6564 166.23C78.2427 171.612 95.2034 172.648 114.541 172.855C121.451 172.933 128.613 173.14 135.556 172.551C146.908 171.593 157.678 170.278 168.765 167.804C170.727 167.37 172.89 167.526 174.775 166.379C172.832 166.094 170.526 167.267 168.765 167.487C166.524 167.765 163.636 167.526 161.337 167.804C153.54 168.763 145.62 170.362 137.771 170.647C127.713 171.016 116.451 170.777 106.29 170.634C91.3696 170.427 74.2858 168.355 59.6564 165.272C57.6358 164.845 55.3563 164.391 53.3293 163.854C51.5095 163.374 49.8646 162.306 47.9541 162.118C48.8414 162.882 50.551 163.543 51.6649 163.938C54.21 164.845 57.0336 165.466 59.6564 166.224V166.23ZM167.496 170.349L165.52 170.427L161.803 171.606C162.956 171.612 164.232 171.45 165.352 171.204C165.87 171.094 167.23 170.809 167.496 170.343V170.349Z" fill="#0769FE"/>
<path d="M158.326 132.076C159.038 131.603 161.195 131.357 160.858 132.393C159.977 132.322 159.09 132.173 158.326 132.076Z" fill="#A7CAFE"/>
<path d="M156.428 131.758C156.817 131.732 157.859 130.742 157.691 132.076C157.302 132.017 156.648 132.27 156.428 131.758Z" fill="#A7CAFE"/>
<path d="M169.076 173.192L168.441 173.51C168.512 173.425 168.37 172.953 168.441 172.881C168.629 172.694 169.037 173.192 169.069 173.199L169.076 173.192Z" fill="#C0D9FE"/>
<path d="M123.536 177.933V178.567C121.626 178.554 119.379 178.917 117.526 178.885C117.358 178.885 116.497 178.263 115.946 178.567C115.92 178.775 115.972 178.995 115.946 179.196C114.34 179.17 112.229 178.852 110.888 178.878V178.244C114.975 178.282 119.43 178.088 123.536 177.926V177.933Z" fill="#A7CAFE"/>
<path d="M39.4123 161.173C37.4307 160.195 35.7469 157.306 35.3 155.163C35.3648 155.228 35.8505 155.234 36.0901 155.467C37.748 157.112 38.1042 159.288 39.4123 161.173Z" fill="#98C1FE"/>
<path d="M67.2465 133.656C64.6108 134.971 61.5217 134.983 58.7046 135.709C56.166 136.363 53.3943 137.341 50.8038 138.086C50.6419 137.289 51.1665 137.412 51.6781 137.237C55.9717 135.787 62.9982 133.475 67.2465 133.662V133.656Z" fill="#A7CAFE"/>
<path d="M70.7239 133.028C70.3548 133.397 69.9338 133.364 69.4611 133.345C69.2733 131.998 70.4196 133.002 70.7239 133.028Z" fill="#A7CAFE"/>
<path d="M68.8267 133.345C68.6777 133.74 68.2244 133.669 67.8812 133.662C67.7387 132.393 68.4834 133.3 68.8267 133.345Z" fill="#A7CAFE"/>
<path d="M155.476 175.718C155.742 176.625 154.719 176.398 153.896 176.353C153.663 175.316 154.647 175.822 155.476 175.718Z" fill="#C0D9FE"/>
<path d="M148.521 176.67C148.767 177.628 147.783 177.292 146.941 177.304C146.682 176.391 147.692 176.631 148.521 176.67Z" fill="#C0D9FE"/>
<path d="M158.954 175.09C158.708 175.31 159.498 175.75 157.691 175.724C157.497 174.772 158.157 175.129 158.954 175.09Z" fill="#C0D9FE"/>
<path d="M160.534 175.09C160.217 175.09 160.411 175.219 159.582 175.09C159.627 174.617 160.489 174.617 160.534 175.09Z" fill="#C0D9FE"/>
<path d="M157.056 175.718C157.011 176.191 156.15 176.191 156.111 175.718C156.545 175.698 156.784 175.718 157.056 175.718Z" fill="#C0D9FE"/>
<path d="M153.261 176.353C153.216 176.825 152.355 176.825 152.316 176.353C153.197 176.184 152.996 176.353 153.261 176.353Z" fill="#C0D9FE"/>
<path d="M142.194 176.987V177.622C141.566 177.641 140.924 177.596 140.296 177.622C139.448 177.661 138.476 177.272 138.716 178.256C137.369 178.082 136.663 178.282 135.556 178.256C135.07 178.244 133.425 177.175 133.658 178.574C132.719 178.535 131.754 178.574 130.809 178.574C130.317 178.574 130.42 178.47 129.546 178.574C128.27 178.723 127.435 178.898 126.068 178.891V177.946C131.411 177.719 136.87 177.376 142.2 176.994L142.194 176.987Z" fill="#A7CAFE"/>
<path d="M126.069 177.933V178.878C125.136 178.878 123.983 178.567 123.536 178.561V177.926C124.378 177.894 125.227 177.965 126.069 177.926V177.933Z" fill="#C0D9FE"/>
<path d="M53.3294 145.675C53.284 145.857 53.3682 146.116 53.3294 146.31C50.6159 147.217 43.2915 150.83 43.965 154.224C44.7097 158.012 53.828 160.486 57.1114 161.341C74.4931 165.855 95.3913 167.849 113.311 167.934C121.432 167.972 129.54 167.351 137.596 167.169C149.045 166.904 172.21 164.773 182.332 160.039C184.482 159.036 187.306 157.041 187.125 154.379C186.963 152.074 183.258 149.147 181.095 148.525C181.095 148.221 181.128 147.871 181.095 147.579L183.628 148.214C184.411 148.732 185.098 149.224 185.842 149.794C185.927 150.61 186.613 151.297 187.423 151.374C187.52 151.484 187.649 151.575 187.74 151.692C188.478 154.088 188.245 155.415 187.423 157.701C186.6 158.647 186.347 158.809 185.208 159.282C184.845 159.431 184.398 159.327 184.256 159.916C178.952 161.995 175.131 163.575 169.439 164.883C168.882 165.013 168.253 164.721 168.441 165.609C168.13 165.609 167.8 165.635 167.496 165.609C167.224 165.589 166.388 164.637 166.544 165.926C162.159 166.081 158.766 166.975 154.647 167.467C144.13 168.724 133.581 168.743 123.07 169.099C103.48 169.766 83.6114 167.947 64.3905 164.657C64.4941 163.918 64.2868 163.782 63.7558 164.339C63.1341 164.229 62.4735 164.165 61.8583 164.022C61.9619 163.284 61.7547 163.148 61.2237 163.705C60.7185 163.588 60.1551 163.485 59.6435 163.387C59.8248 162.047 58.711 163.038 58.3807 163.07C58.1734 163.09 57.9533 163.07 57.746 163.07C57.9274 162.228 57.3251 162.442 56.8005 162.293C52.74 161.121 46.6072 159.657 43.9779 156.121C40.4355 151.368 48.414 147.262 52.0341 145.818C52.3709 145.682 53.1286 145.047 53.3164 145.675H53.3294Z" fill="#C0D9FE"/>
<path d="M47.0023 164.016C48.6537 164.275 51.4579 165.809 53.3294 166.386C84.7836 176.055 116.989 176.035 149.622 173.179C152.976 172.888 156.338 171.314 159.906 171.923C159.906 172.428 158.921 172.486 158.526 172.59C146.481 175.828 128.121 176.288 115.461 176.333C95.7605 176.404 62.8104 174.682 45.7395 164.326C46.0957 164.126 46.6008 163.944 47.0023 164.009V164.016Z" fill="#89B8FE"/>
<path d="M137.764 170.66C137.991 171.975 135.323 171.243 135.549 172.558C128.6 173.147 121.444 172.933 114.534 172.862C95.197 172.648 78.2427 171.618 59.6499 166.237V165.285C74.2793 168.361 91.3631 170.433 106.284 170.647C116.445 170.79 127.707 171.029 137.764 170.66Z" fill="#98C1FE"/>
<path d="M171.608 142.515C171.226 142.768 170.973 143.15 170.663 143.461C170.436 143.687 170.274 143.752 170.028 144.095C169.73 144.516 168.448 146.647 168.765 146.938C171.291 146.893 173.829 147.01 176.355 146.938C176.88 146.925 177.411 146.951 177.935 146.938C177.566 146.407 177.715 145.87 177.618 145.358C177.579 145.17 177.372 144.931 177.301 144.723C178.447 145.242 179.671 145.714 180.778 146.304C180.655 146.763 181.057 147.262 181.096 147.566C181.134 147.871 181.096 148.208 181.096 148.512V149.464C180.739 149.334 179.451 149.483 178.881 149.464C175.623 149.341 172.333 149.555 169.076 149.464C168.195 153.79 173.914 156.419 176.672 153.427C178.214 151.756 176.472 151.076 180.144 151.361C180.351 151.381 180.577 151.329 180.778 151.361C179.502 158.861 168.772 159.618 166.22 152.482C165.268 149.814 165.411 147.696 166.233 145.041C166.421 144.432 166.596 143.687 166.868 143.143C166.926 143.027 167.541 142.36 167.82 141.88C167.878 141.777 168.059 141.686 168.137 141.563C169.898 141.906 169.996 141.945 171.615 142.515H171.608Z" fill="#090C10"/>
<path d="M164.646 140.935C163.293 140.702 161.894 140.52 160.534 140.3C158.617 139.996 157.419 139.355 155.159 139.666C155.334 138.662 154.654 139.109 154.058 139.044C140.309 137.574 128.199 136.033 114.191 136.175C100.954 136.311 86.189 137.03 73.5671 140.3C72.4662 140.585 71.579 139.115 69.7722 140.618C69.5779 140.78 66.5665 141.175 65.9772 141.252C65.7181 140.993 64.8633 140.935 64.7144 140.3C79.402 136.894 95.0611 135.411 110.086 135.23C125.24 135.042 138.794 135.489 153.65 138.183C156.454 138.688 159.349 139.225 162.134 139.821C162.943 139.996 164.232 140.145 164.653 140.941L164.646 140.935Z" fill="#98C1FE"/>
<path d="M155.159 133.656V134.608C125.22 131.163 96.544 131.221 66.8448 136.9C61.6639 137.891 56.6839 139.484 51.7426 141.246C51.7685 141.226 51.652 140.851 51.9499 140.598C52.9018 139.776 55.0389 139.97 55.2203 138.72C74.5124 133.5 91.143 132.665 111.05 132.095C126.612 131.648 139.733 132.244 155.152 133.662L155.159 133.656Z" fill="#78AEFE"/>
<path d="M197.856 157.06C197.499 155.927 196.308 155.344 195.958 154.211C195.718 153.447 195.803 152.119 195.557 151.29C195 149.393 192.519 147.146 191.211 145.675C191.153 145.611 191.211 145.255 191.036 145.06C189.78 143.668 185.978 141.971 188.362 139.983C191.969 141.239 197.81 143.202 200.699 145.514C202.939 147.307 205.556 150.008 203.36 152.922C203.198 153.136 199.662 156.413 199.416 156.575C198.73 157.009 198.192 156.892 197.849 157.06H197.856ZM193.141 144.128C192.474 145.067 195.116 148.149 195.589 149.056C196.806 151.407 197.273 156.199 200.55 153.583C205.834 149.36 197.603 143.007 193.147 144.128H193.141Z" fill="#C0D9FE"/>
<path d="M168.759 167.5V167.817C157.672 170.284 146.908 171.599 135.549 172.564C135.323 171.249 137.991 171.981 137.764 170.667C145.613 170.382 153.533 168.782 161.33 167.824C163.629 167.539 166.518 167.778 168.759 167.506V167.5Z" fill="#89B8FE"/>
<path d="M193.108 155.798H191.528C191.807 153.809 189.877 150.856 188.53 149.464C187.869 148.777 183.479 145.442 182.676 145.041L183.628 144.089C187.118 145.786 191.302 147.359 193.322 150.992C194.028 152.262 194.067 153.868 193.678 155.26C193.568 155.649 193.134 155.739 193.115 155.791L193.108 155.798Z" fill="#98C1FE"/>
<path d="M64.7143 140.3C64.8697 140.928 65.7181 140.993 65.9771 141.252C66.4304 141.699 66.4369 142.709 67.2399 142.515C67.1946 142.638 67.2075 143.292 67.2399 143.461C66.6765 144.296 65.5173 143.933 64.7078 144.413C64.6625 144.315 64.4746 144.218 64.3905 144.095C63.7105 143.15 63.7299 143.305 62.8103 142.832C62.4671 142.658 62.4023 142.301 61.6899 142.204C59.5205 141.913 58.0245 142.943 57.1179 144.73C56.8653 145.235 56.535 145.727 56.4832 146.31C55.4535 146.55 54.3785 146.822 53.3229 146.945C53.3553 146.744 53.284 146.504 53.3229 146.31C53.3617 146.116 53.2776 145.857 53.3229 145.675C53.3812 145.455 53.8021 144.821 53.9575 144.413C54.0676 144.108 54.0676 143.746 54.2749 143.461C57.9468 142.114 60.8869 141.188 64.7143 140.3Z" fill="#090C10"/>
<path d="M44.7939 141.88C43.9974 143.616 42.1387 144.892 40.8371 146.304C39.218 148.059 37.8904 150.779 35.3065 151.368C35.0539 149.121 34.7366 148.331 36.5564 146.453C38.7 144.238 42.0351 143.02 44.7939 141.88Z" fill="#A7CAFE"/>
<path d="M188.368 139.983C185.985 141.965 189.786 143.668 191.043 145.06C191.218 145.255 191.153 145.611 191.218 145.675C188.647 144.497 186.212 143.046 183.628 141.88C182.689 139.808 179.496 139.29 178.57 137.134C181.73 137.885 185.273 138.902 188.375 139.983H188.368Z" fill="#A7CAFE"/>
<path d="M53.9639 144.413C53.8085 144.821 53.3876 145.455 53.3293 145.675C53.1415 145.047 52.3903 145.682 52.047 145.818C48.4269 147.262 40.4484 151.368 43.9908 156.121C46.6201 159.657 52.7529 161.121 56.8134 162.293C57.338 162.442 57.9338 162.235 57.7589 163.07C54.9936 163.025 49.489 160.907 46.6913 159.91L42.4366 155.467C40.416 150.422 48.55 146.187 52.2737 144.769C52.8501 144.549 53.3034 144.29 53.9704 144.406L53.9639 144.413Z" fill="#A7CAFE"/>
<path d="M178.563 137.14C179.489 139.29 182.689 139.808 183.621 141.887C180.04 140.268 177.229 139.471 173.499 138.409C173.667 137.6 173.111 137.755 172.631 137.548C171.252 136.952 169.827 136.557 168.428 136.026C167.677 135.741 167.71 135.787 167.8 134.925C171.297 135.482 175.196 136.337 178.55 137.14H178.563Z" fill="#98C1FE"/>
<path d="M53.9641 144.413C53.3035 144.29 52.8437 144.555 52.2673 144.775C48.5436 146.194 40.4097 150.429 42.4302 155.474L46.685 159.916C44.4637 159.126 41.3357 157.436 40.7335 154.93C40.6881 154.742 40.7594 152.242 40.8306 152.028C41.2451 150.817 44.1982 148.434 45.3185 147.638C48.4335 145.41 50.8037 144.743 54.2749 143.474C54.0677 143.752 54.0741 144.121 53.9576 144.426L53.9641 144.413Z" fill="#89B8FE"/>
<path d="M189.631 154.846C189.631 155.675 189.016 157.481 188.679 158.323C186.348 159.936 184.217 161.05 181.639 162.209C181.167 162.423 180.603 162.254 180.772 163.07C177.288 163.938 171.887 165.557 168.435 165.602C168.247 164.709 168.875 165 169.432 164.877C175.125 163.569 178.945 161.989 184.249 159.91C184.696 159.735 185.402 160.337 185.201 159.275C186.341 158.802 186.594 158.634 187.416 157.695C187.753 157.306 188.025 157.125 188.375 156.601C188.86 155.875 188.711 154.645 189.631 154.846Z" fill="#98C1FE"/>
<path d="M167.813 134.925C167.722 135.787 167.69 135.741 168.441 136.026C169.834 136.551 171.265 136.946 172.644 137.548C173.123 137.755 173.68 137.6 173.512 138.409C167.114 136.59 161.81 135.379 155.172 134.614V133.662C159.453 134.057 163.552 134.245 167.82 134.925H167.813Z" fill="#89B8FE"/>
<path d="M49.2169 140.3C49.3724 141 48.8284 140.974 48.4333 141.246C45.4349 143.299 43.518 144.788 41.3097 147.579C40.9211 148.072 40.7981 148.143 40.3577 148.525C39.3669 149.399 38.0781 150.526 37.029 151.685C36.6728 152.08 36.2389 152.333 36.2454 152.955C35.9022 152.741 35.1898 153.486 35.0732 151.905C35.0603 151.692 35.3064 151.452 35.2934 151.374C37.8709 150.785 39.205 148.065 40.824 146.31C42.1257 144.898 43.9843 143.623 44.7809 141.887C46.5941 141.136 47.177 140.896 49.2105 140.307L49.2169 140.3Z" fill="#98C1FE"/>
<path d="M55.227 138.72C55.0456 139.97 52.9021 139.782 51.9566 140.598C51.6587 140.857 51.7817 141.226 51.7493 141.246C50.208 142.301 48.2458 142.839 46.5879 143.83C44.807 144.892 43.1556 146.731 41.3164 147.566C43.5247 144.782 45.4417 143.286 48.4401 141.233C48.8351 140.961 49.3791 140.993 49.2237 140.287C51.2118 139.711 53.2388 139.245 55.2334 138.707L55.227 138.72Z" fill="#89B8FE"/>
<path d="M171.291 140.3C166.971 139.588 162.911 138.176 158.565 137.69L155.483 136.512C158.345 136.609 161.182 137.023 163.966 137.671C166.44 138.247 169.439 139.18 171.297 140.307L171.291 140.3Z" fill="#78AEFE"/>
<path d="M179.198 142.198L180.144 144.095C177.469 142.845 173.655 141.732 171.291 140.3C175.015 140.916 175.435 140.728 179.198 142.198Z" fill="#090C10"/>
<path d="M164.646 140.935C165.547 141.09 166.628 141.103 167.496 141.252L167.813 141.887C167.535 142.366 166.919 143.04 166.861 143.15L162.121 142.204C161.732 141.46 160.923 141.058 160.541 140.307C161.9 140.521 163.299 140.702 164.653 140.941L164.646 140.935Z" fill="#C0D9FE"/>
<path d="M188.685 158.323C187.06 162.403 184.482 162.144 180.778 163.07C180.61 162.254 181.173 162.423 181.646 162.209C184.223 161.05 186.36 159.936 188.685 158.323Z" fill="#78AEFE"/>
<path d="M45.7395 164.333C44.5091 163.588 42.4886 162.228 41.4912 161.147C41.2257 160.862 39.7945 158.634 40.0471 158.323L43.732 161.276C44.3601 162.85 46.0569 162.818 47.0024 164.009C46.6008 163.944 46.0957 164.119 45.7395 164.326V164.333Z" fill="#78AEFE"/>
<path d="M59.6566 165.285V166.237C57.0402 165.479 54.2167 164.858 51.6651 163.951C50.5512 163.556 48.8416 162.895 47.9543 162.131C49.8648 162.325 51.5097 163.387 53.3295 163.867C55.3565 164.404 57.636 164.864 59.6566 165.285Z" fill="#78AEFE"/>
<path d="M195.958 154.217C196.308 155.344 197.499 155.933 197.856 157.067C196.45 157.753 195.09 158.66 193.432 158.809C193.886 158.271 194.922 156.983 195.149 156.419C195.505 155.538 194.831 154.088 195.952 154.217H195.958Z" fill="#98C1FE"/>
<path d="M177.301 144.73C177.372 144.937 177.579 145.17 177.618 145.365C175.228 145.326 173.091 143.597 170.663 143.467C170.98 143.156 171.232 142.768 171.608 142.522C173.551 143.202 175.422 143.888 177.301 144.736V144.73Z" fill="#A7CAFE"/>
<path d="M183.621 144.095L182.669 145.047C181.996 144.717 181.063 144.529 180.137 144.095L179.191 142.198C180.817 142.832 182.002 143.312 183.621 144.095Z" fill="#89B8FE"/>
<path d="M40.3643 148.525C39.5419 150.487 37.9228 152.1 37.5149 154.217C36.6082 154.535 36.3362 153.006 36.252 152.955C36.2455 152.326 36.6794 152.08 37.0356 151.685C38.0783 150.526 39.367 149.399 40.3643 148.525Z" fill="#89B8FE"/>
<path d="M189.631 154.846C188.711 154.645 188.86 155.869 188.374 156.601C188.025 157.119 187.753 157.306 187.416 157.695C188.238 155.409 188.465 154.081 187.733 151.685C188.465 152.618 189.637 153.55 189.631 154.846Z" fill="#A7CAFE"/>
<path d="M193.108 155.798C192.998 156.05 193.147 156.439 192.811 156.911C192.422 157.455 191.399 158.394 190.738 158.647C190.291 157.76 191.405 156.646 191.528 155.798H193.108Z" fill="#78AEFE"/>
<path d="M168.759 167.5C170.527 167.28 172.826 166.107 174.768 166.392C172.884 167.539 170.714 167.377 168.759 167.817V167.5Z" fill="#78AEFE"/>
<path d="M167.496 170.349C167.23 170.816 165.87 171.094 165.352 171.211C164.232 171.45 162.956 171.619 161.803 171.612L165.52 170.433L167.496 170.356V170.349Z" fill="#78AEFE"/>
<path d="M183.621 148.208L181.089 147.573C181.05 147.262 180.649 146.763 180.772 146.31C182.06 146.997 182.617 147.547 183.615 148.208H183.621Z" fill="#A7CAFE"/>
<path d="M187.416 151.368C186.607 151.29 185.92 150.604 185.836 149.788C187.008 150.688 186.6 150.422 187.416 151.368Z" fill="#A7CAFE"/>
<path d="M58.3872 163.07C58.7175 163.038 59.8314 162.047 59.65 163.387C59.242 163.31 58.7499 163.517 58.3872 163.07Z" fill="#A7CAFE"/>
<path d="M167.496 165.602C167.34 166.017 166.893 165.907 166.544 165.92C166.388 164.631 167.217 165.583 167.496 165.602Z" fill="#98C1FE"/>
<path d="M61.2366 163.705C61.7676 163.148 61.9748 163.284 61.8712 164.022C61.4114 163.918 61.2754 163.711 61.2366 163.705Z" fill="#A7CAFE"/>
<path d="M63.7688 164.333C64.2998 163.776 64.5071 163.912 64.4035 164.65C63.8724 164.56 63.8077 164.339 63.7688 164.333Z" fill="#A7CAFE"/>
<path d="M168.124 141.563C168.046 141.686 167.871 141.77 167.807 141.881L167.489 141.246C167.787 141.298 168.02 141.544 168.124 141.563Z" fill="#98C1FE"/>
<path d="M53.3294 146.31C53.2905 146.498 53.3618 146.744 53.3294 146.945C53.284 147.23 53.0185 147.528 53.012 147.579C50.9915 148.072 45.5452 151.18 45.1501 153.188C44.5155 156.458 52.3385 158.893 54.7671 159.58C74.2535 165.084 101.835 167.079 122.124 166.567C137.758 166.172 154.349 165.525 169.782 162.675C172.722 162.131 182.831 159.295 184.735 157.391C186.866 155.267 185.797 153.531 183.938 151.841C183.582 151.517 181.264 149.535 181.089 149.47V148.518C183.252 149.14 186.956 152.067 187.118 154.373C187.306 157.034 184.482 159.029 182.326 160.033C172.204 164.76 149.039 166.897 137.589 167.163C129.533 167.351 121.425 167.966 113.304 167.927C95.3849 167.843 74.4802 165.848 57.1049 161.335C53.8216 160.48 44.7033 157.999 43.9585 154.217C43.2915 150.817 50.6094 147.21 53.3229 146.304L53.3294 146.31Z" fill="#DAE8FE"/>
<path d="M185.201 159.275C185.408 160.337 184.696 159.735 184.249 159.91C184.392 159.32 184.832 159.431 185.201 159.275Z" fill="#A7CAFE"/>
<path d="M129.229 140.3C129.941 140.346 133.179 140.177 133.341 140.3C133.393 140.339 133.309 140.754 133.341 140.935C127.118 145.617 130.109 160.551 140.924 156.898C146.772 154.917 147.543 144.451 143.146 140.935C145.069 140.598 147.226 141.304 149.156 141.57C149.156 146.627 149.156 151.698 149.156 156.749H152.005V146.155C152.005 145.164 153.54 143.15 154.537 142.832C155.755 142.45 157.956 142.133 158.87 143.24C158.986 143.383 159.595 144.801 159.595 144.892V156.749H162.762C162.38 152.799 163.273 147.929 162.762 144.102L166.239 145.054C165.423 147.709 165.274 149.827 166.226 152.495C168.778 159.631 179.509 158.874 180.785 151.374C183.09 151.737 185.609 154.982 183.161 157.073C180.81 159.074 170.624 161.218 167.263 161.736C149.168 164.508 129.967 165.194 111.698 165.304C96.5052 165.395 64.1379 162.416 50.4087 156.678C43.1166 153.628 48.3169 150.643 53.025 149.166C53.0444 149.535 53.2516 150.299 53.3423 150.746C47.8312 152.734 47.3455 154.023 53.2775 155.713C54.3331 156.018 55.7967 156.024 56.1918 156.121C59.0801 156.827 59.8507 158.129 63.4644 157.073C63.4449 158.161 66.0159 158.433 66.8643 158.576C78.4435 160.564 92.1403 162.125 103.778 162.779C105.442 162.869 114.852 162.448 115.331 162.766C115.357 162.785 115.202 163.316 115.538 163.4C116.911 163.763 119.722 163.387 120.713 162.209C121.846 160.862 123.666 155.603 124.423 153.667C126.14 149.263 127.493 144.698 129.248 140.307L129.229 140.3Z" fill="#FBFCFD"/>
<path d="M53.0119 147.573C52.986 148.085 52.986 148.641 53.0119 149.153C48.3038 150.63 43.1036 153.622 50.3956 156.665C64.1249 162.403 96.4986 165.389 111.685 165.291C129.954 165.181 149.155 164.495 167.25 161.723C170.604 161.211 180.797 159.061 183.148 157.06C185.603 154.969 183.077 151.731 180.772 151.361C180.577 151.329 180.344 151.381 180.137 151.361L178.874 149.464C179.444 149.483 180.726 149.334 181.089 149.464C181.264 149.529 183.582 151.51 183.938 151.834C185.797 153.518 186.865 155.254 184.735 157.384C182.831 159.282 172.715 162.125 169.782 162.669C154.349 165.512 137.751 166.159 122.124 166.561C101.841 167.072 74.2534 165.078 54.767 159.573C52.3384 158.887 44.5154 156.452 45.15 153.181C45.5386 151.167 50.9914 148.065 53.0119 147.573Z" fill="#EDF4FE"/>
<path d="M178.881 149.47L180.143 151.368C176.471 151.076 178.214 151.756 176.672 153.434C173.913 156.426 168.189 153.803 169.076 149.47C172.333 149.561 175.623 149.347 178.881 149.47Z" fill="#FBFBFB"/>
<path d="M170.021 144.095C171.906 144.575 173.713 145.287 175.481 146.083C175.947 146.297 176.517 146.129 176.349 146.945C173.829 147.016 171.284 146.893 168.759 146.945C168.441 146.653 169.724 144.523 170.021 144.102V144.095Z" fill="#EDF4FE"/>
<path d="M177.611 145.358C177.709 145.863 177.56 146.401 177.929 146.938C177.404 146.958 176.873 146.925 176.349 146.938C176.517 146.122 175.954 146.291 175.481 146.077C173.713 145.28 171.906 144.568 170.021 144.089C170.261 143.746 170.423 143.681 170.656 143.454C173.085 143.584 175.228 145.313 177.611 145.352V145.358Z" fill="#C0D9FE"/>
<path d="M166.861 143.15C166.589 143.694 166.414 144.439 166.226 145.047L162.749 144.095C162.736 143.998 162.166 142.295 162.114 142.198L166.854 143.143L166.861 143.15Z" fill="#DAE8FE"/>
<path d="M73.5671 140.3C86.189 137.036 100.954 136.311 114.191 136.175C128.199 136.033 140.309 137.574 154.058 139.044C154.654 139.109 155.334 138.662 155.159 139.666C155.081 139.679 153.954 139.951 153.896 139.983C152.996 139.348 152.128 139.957 151.681 139.983C151.364 140.002 151.047 139.983 150.736 139.983C150.917 138.966 150.224 139.452 149.635 139.361C128.549 136.194 104.426 136.318 83.2618 139.076C80.0173 139.497 76.8505 140.423 73.5736 140.618V140.3H73.5671Z" fill="#C0D9FE"/>
<path d="M160.534 140.3C160.922 141.052 161.725 141.453 162.114 142.198C162.166 142.295 162.736 143.998 162.749 144.095C163.26 147.923 162.367 152.799 162.749 156.75H159.582V144.885C159.582 144.795 158.973 143.383 158.857 143.234C157.943 142.133 155.735 142.444 154.524 142.826C154.822 141.945 153.125 142.017 152.309 141.881C152.16 141.537 153.766 140.048 153.889 139.983C153.948 139.951 155.081 139.679 155.152 139.666C157.419 139.355 158.611 139.996 160.527 140.3H160.534Z" fill="#090C10"/>
<path d="M73.5671 140.3V140.618C73.4181 141.026 73.8326 141.369 73.8844 141.563C73.9492 141.835 73.8067 142.269 73.8844 142.515L71.0349 142.832C70.9831 142.696 70.5751 142.269 70.4003 141.887C70.2254 141.505 70.3226 140.896 69.7656 140.624C71.5724 139.122 72.4597 140.592 73.5606 140.307L73.5671 140.3Z" fill="#090C10"/>
<path d="M69.7721 140.618C70.3291 140.89 70.2255 141.492 70.4068 141.881C69.7333 141.835 67.4796 141.842 67.2465 142.515C66.437 142.709 66.4305 141.693 65.9836 141.252C66.573 141.175 69.5843 140.786 69.7786 140.618H69.7721Z" fill="#C0D9FE"/>
<path d="M193.141 144.128C197.596 143.007 205.828 149.36 200.543 153.583C197.273 156.193 196.8 151.407 195.582 149.056C195.116 148.149 192.474 145.067 193.134 144.128H193.141ZM197.966 152.203C199.533 153.855 201.411 151.582 201.275 150.021C201.106 148.11 196.347 144.516 195.945 146.789C195.809 147.573 197.402 151.607 197.966 152.203Z" fill="#CEE1FE"/>
<path d="M67.5573 143.778C68.1531 145.727 68.8202 147.32 68.5093 149.47H56.4897C55.8421 153.894 61.3015 156.49 64.2545 153.285C65.6793 151.737 64.9345 150.895 68.192 151.374C68.0042 153.952 65.8865 156.354 63.4515 157.067C59.8379 158.122 59.0672 156.821 56.1789 156.115C54.534 154.457 53.8087 153.032 53.3294 150.74C53.2388 150.293 53.0315 149.529 53.0121 149.16C52.9862 148.648 52.9862 148.091 53.0121 147.579C53.0121 147.534 53.2841 147.236 53.3294 146.945C54.385 146.822 55.4601 146.55 56.4897 146.31C56.4703 146.517 56.4962 146.731 56.4897 146.938H65.3425C65.5174 146.776 64.8957 144.782 64.7143 144.413C65.5174 143.933 66.6831 144.296 67.2465 143.461C67.2659 143.545 67.5314 143.668 67.5638 143.778H67.5573Z" fill="#060707"/>
<path d="M64.3969 144.095C64.4811 144.212 64.6624 144.315 64.7143 144.413C64.9021 144.788 65.5173 146.776 65.3424 146.938H56.4897C56.4961 146.731 56.4767 146.517 56.4897 146.31C59.1708 145.695 61.7223 144.723 64.3969 144.095Z" fill="#F8F8F8"/>
<path d="M64.397 144.095C61.7224 144.723 59.1773 145.688 56.4897 146.31C56.5351 145.727 56.8654 145.229 57.1244 144.73L62.8168 142.832C63.7364 143.305 63.7235 143.15 64.397 144.095Z" fill="#DAE8FE"/>
<path d="M62.8167 142.832L57.1243 144.73C58.0309 142.943 59.5269 141.913 61.6964 142.204C62.4087 142.301 62.4735 142.651 62.8167 142.832Z" fill="#A7CAFE"/>
<path d="M70.4067 141.881C70.5815 142.263 70.9895 142.69 71.0414 142.826C71.0996 142.988 70.9831 143.299 71.0414 143.461L67.5637 143.778C67.5313 143.668 67.2658 143.545 67.2464 143.461C67.214 143.286 67.2011 142.638 67.2464 142.515C67.4795 141.842 69.7332 141.835 70.4067 141.881Z" fill="#DAE8FE"/>
<path d="M105.196 140.3V156.75H108.039V146.472C108.039 146.025 109.159 144.031 109.632 143.642C110.966 142.548 113.278 142.981 113.414 142.839C113.531 142.722 113.33 140.501 113.414 139.989C113.621 139.996 113.835 139.989 114.049 139.989L119.761 156.924C119.346 159.573 118.44 161.762 115.318 160.551V162.766C114.832 162.448 105.429 162.869 103.765 162.779C92.1338 162.125 78.437 160.564 66.8513 158.576C66.003 158.433 63.432 158.161 63.4514 157.073C65.8864 156.361 68.0041 153.958 68.1919 151.381C64.9409 150.902 65.6792 151.744 64.2544 153.291C61.3013 156.497 55.842 153.9 56.4896 149.477H68.5092C68.8265 147.327 68.153 145.734 67.5572 143.784L71.0349 143.467C72.6344 147.877 74.3765 152.242 75.8142 156.711L79.0652 156.769C80.7554 151.698 83.2875 146.608 84.9519 141.57H89.0642C86.273 144.154 85.8715 150.345 87.6265 153.602C90.8321 159.567 100.65 158.245 101.712 151.374C100.844 151.51 99.536 151.174 98.7653 151.361C98.4091 151.446 98.0594 154.114 95.5273 154.515C91.8424 155.098 89.8866 153.091 90.0097 149.477H101.55C102.437 149.477 101.673 145.436 101.492 144.788C101.084 143.331 99.8533 141.382 98.5451 140.618C99.523 140.281 101.142 140.009 102.165 139.97C103.344 139.925 104.322 140.294 105.183 140.3H105.196Z" fill="#FBFBFB"/>
<path d="M143.146 140.935C147.537 144.451 146.772 154.917 140.924 156.898C130.116 160.557 127.124 145.617 133.341 140.935C135.627 139.219 140.918 139.154 143.146 140.935ZM137.052 142.276C132.596 143.079 132.013 152.346 135.964 154.282C143.897 158.181 145.833 140.689 137.052 142.276Z" fill="#060707"/>
<path d="M117.209 139.983L121.322 152.948L125.745 139.983C126.943 140.028 128.173 140.236 129.222 140.3C127.467 144.691 126.114 149.257 124.398 153.66C123.646 155.597 121.82 160.855 120.687 162.202C119.696 163.381 116.885 163.757 115.513 163.394C115.176 163.303 115.331 162.772 115.305 162.759V160.544C118.427 161.762 119.333 159.567 119.754 156.918L114.042 139.983C115.092 139.996 116.154 139.983 117.203 139.983H117.209Z" fill="#060707"/>
<path d="M149.156 139.983V141.563C147.226 141.298 145.069 140.592 143.146 140.929C140.925 139.148 135.627 139.212 133.341 140.929C133.315 140.754 133.393 140.333 133.341 140.294C133.179 140.171 129.935 140.339 129.229 140.294C128.173 140.229 126.949 140.028 125.751 139.977C122.869 139.86 119.994 139.977 117.216 139.977C116.167 139.977 115.105 139.989 114.055 139.977C113.842 139.977 113.634 139.983 113.421 139.977C113.375 139.977 113.058 139.646 112.644 139.633C110.571 139.569 109.509 140.818 108.201 142.185C107.787 141.829 108.214 140.145 108.046 139.97C107.657 139.581 105.468 140.287 105.196 140.287C104.335 140.287 103.357 139.912 102.178 139.957C101.155 139.996 99.5296 140.268 98.5582 140.605C96.4405 139.374 93.3774 139.31 91.1626 140.326C90.9229 140.436 89.155 141.473 89.0708 141.55H84.9585C85.101 141.11 85.0492 140.443 85.2758 139.97C102.606 137.762 121.406 137.302 138.878 138.707C142.317 138.986 145.691 139.892 149.162 139.97L149.156 139.983Z" fill="#EDF4FE"/>
<path d="M151.998 141.88C152.102 141.893 152.212 141.861 152.316 141.88C153.132 142.023 154.828 141.952 154.531 142.826C153.533 143.143 151.998 145.151 151.998 146.148V156.743H149.149C149.149 151.692 149.149 146.621 149.149 141.563C150.075 141.693 150.988 141.725 151.998 141.88Z" fill="#030303"/>
<path d="M53.3293 150.74C53.8021 153.032 54.5274 154.463 56.1788 156.115C55.7837 156.018 54.3266 156.005 53.2645 155.707C47.3325 154.017 47.8247 152.728 53.3293 150.74Z" fill="#FEFEFE"/>
<path d="M73.5669 140.618C76.8438 140.423 80.0106 139.497 83.2551 139.076C104.425 136.318 128.542 136.195 149.628 139.361C150.217 139.452 150.91 138.96 150.729 139.983C150.205 139.996 149.673 139.996 149.149 139.983C145.678 139.905 142.304 138.999 138.865 138.72C121.393 137.315 102.593 137.775 85.2627 139.983C84.1099 140.132 83.0543 140.113 81.785 140.3C79.1493 140.682 76.52 141.201 73.8778 141.563C73.826 141.369 73.4115 141.026 73.5604 140.618H73.5669Z" fill="#CEE1FE"/>
<path d="M150.736 139.983C151.053 139.983 151.37 140.002 151.681 139.983L151.998 141.881C150.988 141.725 150.081 141.693 149.149 141.563V139.983C149.673 139.996 150.205 139.996 150.729 139.983H150.736Z" fill="#090C10"/>
<path d="M153.896 139.983C153.773 140.048 152.16 141.537 152.316 141.88C152.212 141.861 152.102 141.893 151.998 141.88L151.681 139.983C152.128 139.957 152.996 139.348 153.896 139.983Z" fill="#CEE1FE"/>
<path d="M85.2693 139.983C85.0491 140.456 85.1009 141.123 84.9519 141.563C83.2941 146.602 80.7554 151.692 79.0652 156.763L75.8142 156.704C74.3765 152.236 72.6345 147.864 71.0349 143.461C70.9766 143.299 71.0932 142.988 71.0349 142.826L73.8844 142.509C74.0074 142.897 74.5061 143.098 74.519 143.143C74.6097 143.428 74.519 143.953 74.6615 144.406C75.5811 147.262 76.6043 150.092 77.5174 152.942C78.8903 149.386 80.4446 145.527 81.4743 141.874C81.6103 141.401 81.5714 140.786 81.7916 140.294C83.0609 140.113 84.1165 140.126 85.2693 139.977V139.983Z" fill="#060707"/>
<path d="M81.7915 140.3C81.5778 140.792 81.6102 141.408 81.4742 141.88C79.2076 142.204 76.6107 142.269 74.5189 143.143C74.5059 143.098 74.0073 142.897 73.8842 142.509C73.8065 142.269 73.949 141.829 73.8842 141.557C76.5265 141.194 79.1557 140.676 81.7915 140.294V140.3Z" fill="#EDF4FE"/>
<path d="M197.965 152.203C197.402 151.608 195.809 147.573 195.945 146.789C196.34 144.523 201.106 148.11 201.275 150.021C201.411 151.582 199.533 153.848 197.965 152.203Z" fill="#DAE8FE"/>
<path d="M98.5518 140.618C99.8664 141.382 101.09 143.325 101.498 144.788C101.68 145.436 102.444 149.477 101.557 149.477H90.0163C89.8868 153.091 91.8426 155.098 95.5339 154.515C98.0596 154.114 98.4158 151.446 98.7719 151.361C99.5426 151.174 100.851 151.517 101.719 151.374C100.656 158.245 90.8323 159.567 87.6331 153.602C85.8781 150.345 86.2796 144.154 89.0708 141.57C89.1615 141.485 90.923 140.456 91.1626 140.346C93.3709 139.329 96.4406 139.394 98.5582 140.624L98.5518 140.618ZM98.8691 146.945C98.4352 140.637 90.2041 140.741 90.0163 146.945H98.8691Z" fill="#060707"/>
<path d="M113.414 139.983C113.33 140.488 113.531 142.716 113.414 142.832C113.272 142.975 110.966 142.541 109.632 143.635C109.16 144.024 108.039 146.019 108.039 146.466V156.743H105.19V140.3C105.455 140.3 107.644 139.588 108.039 139.983C108.208 140.151 107.78 141.842 108.195 142.198C109.503 140.825 110.565 139.581 112.637 139.646C113.045 139.659 113.369 139.983 113.414 139.989V139.983Z" fill="#030303"/>
<path d="M137.052 142.276C145.833 140.689 143.897 158.181 135.964 154.282C132.013 152.339 132.596 143.079 137.052 142.276Z" fill="#FBFBFB"/>
<path d="M125.751 139.983L121.328 152.948L117.216 139.983C120 139.983 122.869 139.866 125.751 139.983Z" fill="#F8F8F8"/>
<path d="M81.4743 141.88C80.4446 145.533 78.8968 149.393 77.5174 152.948C76.6043 150.099 75.5811 147.262 74.6615 144.413C74.5126 143.959 74.6097 143.435 74.519 143.15C76.6108 142.276 79.2142 142.204 81.4743 141.887V141.88Z" fill="#F8F8F8"/>
<path d="M98.8689 146.945H90.0161C90.2039 140.741 98.435 140.637 98.8689 146.945Z" fill="#F8F8F8"/>
</svg>
