<?xml version="1.0" encoding="UTF-8"?>
<!DOCTYPE svg PUBLIC "-//W3C//DTD SVG 1.1//EN" "http://www.w3.org/Graphics/SVG/1.1/DTD/svg11.dtd">
<svg xmlns="http://www.w3.org/2000/svg" version="1.1" width="250px" height="250px" style="shape-rendering:geometricPrecision; text-rendering:geometricPrecision; image-rendering:optimizeQuality; fill-rule:evenodd; clip-rule:evenodd" xmlns:xlink="http://www.w3.org/1999/xlink">
<g><path style="opacity:1" fill="#1c1c1c" d="M -0.5,-0.5 C 82.8333,-0.5 166.167,-0.5 249.5,-0.5C 249.5,82.8333 249.5,166.167 249.5,249.5C 166.167,249.5 82.8333,249.5 -0.5,249.5C -0.5,166.167 -0.5,82.8333 -0.5,-0.5 Z"/></g>
<g><path style="opacity:1" fill="#fcfcfc" d="M 54.5,47.5 C 85.664,46.336 116.997,46.1693 148.5,47C 161.662,48.1569 173.162,52.9902 183,61.5C 190.897,74.0832 191.563,87.0832 185,100.5C 179.131,108.687 171.298,114.187 161.5,117C 156.585,118.416 151.585,119.416 146.5,120C 158.294,120.731 169.294,124.064 179.5,130C 192.52,139.224 197.353,151.724 194,167.5C 190.578,181.257 182.411,191.091 169.5,197C 163.589,198.978 157.589,200.645 151.5,202C 119.167,202.667 86.8333,202.667 54.5,202C 60.0541,196.446 65.5541,190.946 71,185.5C 71.6667,144.833 71.6667,104.167 71,63.5C 65.6846,58.0186 60.1846,52.6853 54.5,47.5 Z"/></g>
<g><path style="opacity:1" fill="#1d1d1d" d="M 112.5,50.5 C 135.823,48.6539 147.49,59.4872 147.5,83C 147.882,93.3057 145.382,102.806 140,111.5C 131.76,118.298 122.26,120.964 111.5,119.5C 111.178,96.425 111.511,73.425 112.5,50.5 Z"/></g>
<g><path style="opacity:1" fill="#1d1d1d" d="M 111.5,123.5 C 125.141,120.882 136.641,124.548 146,134.5C 147.608,137.382 148.941,140.382 150,143.5C 153.309,159.119 151.643,174.119 145,188.5C 135.726,197.559 124.726,200.559 112,197.5C 111.5,172.836 111.333,148.169 111.5,123.5 Z"/></g>
</svg>
