<svg width="240" height="240" viewBox="0 0 240 240" fill="none" xmlns="http://www.w3.org/2000/svg">
<g clip-path="url(#clip0_6308_2935)">
<circle cx="120" cy="120" r="120" fill="#FCFDFE"/>
<path d="M123.18 26C165.254 26 199.362 60.1077 199.362 102.182C199.362 141.731 169.226 174.239 130.668 177.999C130.891 175.267 130.842 172.519 130.532 169.793C128.317 150.443 113.064 135.168 93.7195 132.932V32.0129L93.6814 31.9259C102.752 28.1113 112.721 26 123.18 26Z" fill="#DEDEDE"/>
<path d="M84.1885 132.921V36.8014L84.1504 36.7416C87.2085 34.9132 90.3918 33.3025 93.6731 31.9258L93.7112 32.0128V132.932C113.056 135.168 128.314 150.443 130.523 169.793C130.839 172.519 130.882 175.267 130.659 177.999C128.2 178.238 125.702 178.358 123.177 178.363C96.7312 178.363 73.4305 164.89 59.7722 144.43C66.3946 138.009 74.965 133.96 84.134 132.926H84.1885V132.921Z" fill="#152E51"/>
<path d="M130.668 177.999C129.079 197.534 113.875 213.87 93.665 216.182C70.6744 218.811 49.904 202.307 47.2757 179.316C45.7358 165.864 50.7474 153.169 59.7804 144.43C73.4387 164.89 96.7394 178.364 123.185 178.364C125.71 178.358 128.202 178.239 130.668 177.999Z" fill="#1E4480"/>
<path d="M84.192 36.8016V132.921H84.1375C74.9685 133.955 66.4035 137.998 59.7757 144.425C51.7059 132.333 47.0044 117.81 47.0044 102.182C47.0044 74.3755 61.9034 50.0409 84.1593 36.7417L84.192 36.8016Z" fill="#DEDEDE"/>
</g>
<defs>
<clipPath id="clip0_6308_2935">
<rect width="240" height="240" fill="white"/>
</clipPath>
</defs>
</svg>
