<svg width="128" height="128" viewBox="0 0 128 128" fill="none" xmlns="http://www.w3.org/2000/svg" xmlns:xlink="http://www.w3.org/1999/xlink">
<g clip-path="url(#clip0_51_234)">
<mask id="mask0_51_234" style="mask-type:luminance" maskUnits="userSpaceOnUse" x="0" y="0" width="128" height="128">
<path d="M99.0291 0H28.9709C12.9707 0 0 12.9707 0 28.9709V99.0291C0 115.029 12.9707 128 28.9709 128H99.0291C115.029 128 128 115.029 128 99.0291V28.9709C128 12.9707 115.029 0 99.0291 0Z" fill="white"/>
</mask>
<g mask="url(#mask0_51_234)">
<g filter="url(#filter0_dii_51_234)">
<path d="M99.0291 0H28.9709C12.9707 0 0 12.9707 0 28.9709V99.0291C0 115.029 12.9707 128 28.9709 128H99.0291C115.029 128 128 115.029 128 99.0291V28.9709C128 12.9707 115.029 0 99.0291 0Z" fill="url(#paint0_radial_51_234)"/>
<path d="M99.0291 0H28.9709C12.9707 0 0 12.9707 0 28.9709V99.0291C0 115.029 12.9707 128 28.9709 128H99.0291C115.029 128 128 115.029 128 99.0291V28.9709C128 12.9707 115.029 0 99.0291 0Z" fill="url(#pattern0_51_234)" fill-opacity="0.1"/>
<path d="M99.0294 0.388184H28.9712C13.1855 0.388184 0.388672 13.185 0.388672 28.9707V99.029C0.388672 114.815 13.1855 127.611 28.9712 127.611H99.0294C114.815 127.611 127.612 114.815 127.612 99.029V28.9707C127.612 13.185 114.815 0.388184 99.0294 0.388184Z" stroke="url(#paint1_linear_51_234)" stroke-width="0.776699"/>
</g>
<path opacity="0.704567" fill-rule="evenodd" clip-rule="evenodd" d="M64.0776 119.52C94.5781 119.52 119.304 94.4893 119.304 63.6118C119.304 32.7343 94.5781 7.70312 64.0776 7.70312C33.5771 7.70312 8.85156 32.7343 8.85156 63.6118C8.85156 94.4893 33.5771 119.52 64.0776 119.52Z" stroke="black" stroke-opacity="0.5" stroke-width="0.31068" stroke-dasharray="0.62 0.62"/>
<path opacity="0.704567" fill-rule="evenodd" clip-rule="evenodd" d="M64.0778 88.2114C77.4979 88.2114 88.3773 77.1977 88.3773 63.6115C88.3773 50.0255 77.4979 39.0117 64.0778 39.0117C50.6575 39.0117 39.7783 50.0255 39.7783 63.6115C39.7783 77.1977 50.6575 88.2114 64.0778 88.2114Z" stroke="black" stroke-opacity="0.5" stroke-width="0.31068"/>
<path fill-rule="evenodd" clip-rule="evenodd" d="M64.1542 101.075C84.5799 101.075 101.138 84.3022 101.138 63.6116C101.138 42.9209 84.5799 26.1479 64.1542 26.1479C43.7284 26.1479 27.1699 42.9209 27.1699 63.6116C27.1699 84.3022 43.7284 101.075 64.1542 101.075Z" stroke="black" stroke-opacity="0.5" stroke-width="0.31068"/>
<path opacity="0.704567" fill-rule="evenodd" clip-rule="evenodd" d="M64.0776 107.192C87.8305 107.192 107.086 87.6804 107.086 63.6119C107.086 39.5432 87.8305 20.0317 64.0776 20.0317C40.3248 20.0317 21.0693 39.5432 21.0693 63.6119C21.0693 87.6804 40.3248 107.192 64.0776 107.192Z" stroke="black" stroke-opacity="0.5" stroke-width="0.31068" stroke-dasharray="0.62 0.62"/>
<path d="M39.7783 0V127.223" stroke="black" stroke-opacity="0.5" stroke-width="0.31068"/>
<path d="M88.377 0V127.223" stroke="black" stroke-opacity="0.5" stroke-width="0.31068"/>
<path d="M126.913 39.0117H1.24316" stroke="black" stroke-opacity="0.5" stroke-width="0.31068"/>
<path d="M126.913 88.2114H1.24316" stroke="black" stroke-opacity="0.5" stroke-width="0.31068"/>
<path d="M119.146 7.83398L9.00977 119.389" stroke="black" stroke-opacity="0.5" stroke-width="0.31068" stroke-dasharray="0.62 0.62"/>
<path d="M8.85449 7.67725L119.146 119.389" stroke="black" stroke-opacity="0.5" stroke-width="0.31068" stroke-dasharray="0.62 0.62"/>
<g filter="url(#filter1_i_51_234)">
<path d="M94.7262 102.526C94.7559 102.563 94.81 102.569 94.8469 102.539C100.804 97.7123 105.582 91.571 108.81 84.5891C112.05 77.5809 113.642 69.9149 113.462 62.1873C113.282 54.4597 111.335 46.8786 107.772 40.034C104.223 33.2149 99.1649 27.3098 92.9894 22.7744C92.9512 22.7463 92.8974 22.7548 92.8695 22.7935L91.2107 25.0931C91.1828 25.1318 91.1915 25.186 91.2298 25.2141C97.0327 29.477 101.786 35.0268 105.121 41.435C108.471 47.8691 110.301 54.9951 110.47 62.2591C110.639 69.5231 109.143 76.7293 106.097 83.3168C103.063 89.8784 98.5735 95.6502 92.9756 100.187C92.9386 100.217 92.9327 100.271 92.9623 100.309L94.7262 102.526Z" fill="#2E2E2E"/>
</g>
<g filter="url(#filter2_i_51_234)">
<path d="M89.0773 20.3439C89.1011 20.3032 89.0878 20.2506 89.0472 20.2266C82.9504 16.6173 76.1549 14.367 69.1191 13.6281C62.0549 12.8861 54.9142 13.6851 48.1831 15.9705C41.4519 18.256 35.2881 21.9742 30.1114 26.8724C24.9552 31.751 20.8987 37.6859 18.2154 44.2763C18.1975 44.3202 18.2185 44.3702 18.262 44.3882L20.8513 45.4506C20.895 45.4686 20.9445 45.4475 20.9625 45.4036C23.4848 39.2106 27.2973 33.6334 32.1428 29.0487C37.009 24.4444 42.803 20.9493 49.1302 18.8009C55.4575 16.6526 62.1697 15.9017 68.81 16.599C75.4222 17.2935 81.8084 19.4078 87.5381 22.7991C87.5786 22.823 87.6308 22.8095 87.6547 22.7688L89.0773 20.3439Z" fill="#2E2E2E"/>
</g>
<g filter="url(#filter3_i_51_234)">
<path d="M16.285 50.6025C16.239 50.5903 16.1918 50.6178 16.1797 50.6639C15.05 54.9548 14.4938 59.3771 14.5257 63.8142C14.5261 63.8619 14.565 63.9001 14.6127 63.8998L17.4442 63.8732C17.4919 63.8729 17.5301 63.8338 17.5298 63.7862C17.5001 59.6188 18.0225 55.4654 19.0832 51.435C19.0953 51.3889 19.0678 51.3416 19.0218 51.3294L16.285 50.6025Z" fill="#2E2E2E"/>
</g>
<g filter="url(#filter4_i_51_234)">
<path d="M15.1244 70.1302C15.0779 70.1367 15.0452 70.1801 15.0516 70.2273C15.9489 76.9265 18.1729 83.372 21.5899 89.175C25.0215 95.0024 29.5847 100.061 35.0021 104.042C40.4194 108.023 46.578 110.844 53.1037 112.333C59.6015 113.817 66.3282 113.949 72.8784 112.722C72.9245 112.713 72.955 112.668 72.9465 112.622L72.4366 109.836C72.4281 109.79 72.3835 109.759 72.3374 109.767C66.1819 110.919 59.8606 110.795 53.7542 109.401C47.6202 108.001 41.8311 105.349 36.7388 101.607C31.6464 97.8644 27.3569 93.1099 24.1312 87.6319C20.9202 82.1787 18.8298 76.1218 17.986 69.8263C17.9796 69.779 17.9369 69.7459 17.8903 69.7522L15.1244 70.1302Z" fill="#2E2E2E"/>
</g>
<g filter="url(#filter5_i_51_234)">
<path d="M77.9482 111.54C77.9614 111.586 78.0088 111.613 78.0537 111.599C82.36 110.277 86.4725 108.352 90.2768 105.877C90.3165 105.852 90.3285 105.797 90.3035 105.756L88.817 103.309C88.792 103.268 88.7395 103.256 88.6997 103.282C85.1263 105.606 81.2638 107.414 77.2192 108.656C77.1742 108.669 77.1484 108.718 77.1617 108.765L77.9482 111.54Z" fill="#2E2E2E"/>
</g>
<g filter="url(#filter6_i_51_234)">
<path d="M99.607 88.4659C85.9692 108.383 58.972 113.332 39.307 99.5192C19.6419 85.7069 14.7557 58.3637 28.3933 38.4466C42.0311 18.5296 69.0282 13.5809 88.6933 27.3934C108.358 41.2058 113.245 68.5488 99.607 88.4659ZM34.8426 42.9765C23.675 59.2861 27.6761 81.6767 43.7794 92.9875C59.8827 104.298 81.9902 100.246 93.1578 83.936C104.325 67.6264 100.324 45.2357 84.2209 33.9251C68.1178 22.6144 46.0101 26.6667 34.8426 42.9765Z" fill="#2E2E2E"/>
</g>
</g>
</g>
<defs>
<filter id="filter0_dii_51_234" x="-1.5534" y="-0.466726" width="131.107" height="131.574" filterUnits="userSpaceOnUse" color-interpolation-filters="sRGB">
<feFlood flood-opacity="0" result="BackgroundImageFix"/>
<feColorMatrix in="SourceAlpha" type="matrix" values="0 0 0 0 0 0 0 0 0 0 0 0 0 0 0 0 0 0 127 0" result="hardAlpha"/>
<feOffset dy="1.5534"/>
<feGaussianBlur stdDeviation="0.776699"/>
<feComposite in2="hardAlpha" operator="out"/>
<feColorMatrix type="matrix" values="0 0 0 0 0 0 0 0 0 0 0 0 0 0 0 0 0 0 0.3 0"/>
<feBlend mode="normal" in2="BackgroundImageFix" result="effect1_dropShadow_51_234"/>
<feBlend mode="normal" in="SourceGraphic" in2="effect1_dropShadow_51_234" result="shape"/>
<feColorMatrix in="SourceAlpha" type="matrix" values="0 0 0 0 0 0 0 0 0 0 0 0 0 0 0 0 0 0 127 0" result="hardAlpha"/>
<feOffset dy="0.7456"/>
<feGaussianBlur stdDeviation="0.14912"/>
<feComposite in2="hardAlpha" operator="arithmetic" k2="-1" k3="1"/>
<feColorMatrix type="matrix" values="0 0 0 0 0.309804 0 0 0 0 0.313726 0 0 0 0 0.32549 0 0 0 1 0"/>
<feBlend mode="normal" in2="shape" result="effect2_innerShadow_51_234"/>
<feColorMatrix in="SourceAlpha" type="matrix" values="0 0 0 0 0 0 0 0 0 0 0 0 0 0 0 0 0 0 127 0" result="hardAlpha"/>
<feOffset dy="-0.466726"/>
<feGaussianBlur stdDeviation="0.311152"/>
<feComposite in2="hardAlpha" operator="arithmetic" k2="-1" k3="1"/>
<feColorMatrix type="matrix" values="0 0 0 0 0 0 0 0 0 0 0 0 0 0 0 0 0 0 0.25 0"/>
<feBlend mode="normal" in2="effect2_innerShadow_51_234" result="effect3_innerShadow_51_234"/>
</filter>
<pattern id="pattern0_51_234" patternContentUnits="objectBoundingBox" width="1" height="1">
<use xlink:href="#image0_51_234" transform="scale(0.000488281)"/>
</pattern>
<filter id="filter1_i_51_234" x="91.1943" y="22.7578" width="22.2812" height="80.2668" filterUnits="userSpaceOnUse" color-interpolation-filters="sRGB">
<feFlood flood-opacity="0" result="BackgroundImageFix"/>
<feBlend mode="normal" in="SourceGraphic" in2="BackgroundImageFix" result="shape"/>
<feColorMatrix in="SourceAlpha" type="matrix" values="0 0 0 0 0 0 0 0 0 0 0 0 0 0 0 0 0 0 127 0" result="hardAlpha"/>
<feOffset dy="0.466019"/>
<feGaussianBlur stdDeviation="0.466019"/>
<feComposite in2="hardAlpha" operator="arithmetic" k2="-1" k3="1"/>
<feColorMatrix type="matrix" values="0 0 0 0 0 0 0 0 0 0 0 0 0 0 0 0 0 0 1 0"/>
<feBlend mode="normal" in2="shape" result="effect1_innerShadow_51_234"/>
</filter>
<filter id="filter2_i_51_234" x="18.209" y="13.3594" width="70.8799" height="32.5637" filterUnits="userSpaceOnUse" color-interpolation-filters="sRGB">
<feFlood flood-opacity="0" result="BackgroundImageFix"/>
<feBlend mode="normal" in="SourceGraphic" in2="BackgroundImageFix" result="shape"/>
<feColorMatrix in="SourceAlpha" type="matrix" values="0 0 0 0 0 0 0 0 0 0 0 0 0 0 0 0 0 0 127 0" result="hardAlpha"/>
<feOffset dy="0.466019"/>
<feGaussianBlur stdDeviation="0.466019"/>
<feComposite in2="hardAlpha" operator="arithmetic" k2="-1" k3="1"/>
<feColorMatrix type="matrix" values="0 0 0 0 0 0 0 0 0 0 0 0 0 0 0 0 0 0 1 0"/>
<feBlend mode="normal" in2="shape" result="effect1_innerShadow_51_234"/>
</filter>
<filter id="filter3_i_51_234" x="14.5244" y="50.5996" width="4.56152" height="13.7663" filterUnits="userSpaceOnUse" color-interpolation-filters="sRGB">
<feFlood flood-opacity="0" result="BackgroundImageFix"/>
<feBlend mode="normal" in="SourceGraphic" in2="BackgroundImageFix" result="shape"/>
<feColorMatrix in="SourceAlpha" type="matrix" values="0 0 0 0 0 0 0 0 0 0 0 0 0 0 0 0 0 0 127 0" result="hardAlpha"/>
<feOffset dy="0.466019"/>
<feGaussianBlur stdDeviation="0.466019"/>
<feComposite in2="hardAlpha" operator="arithmetic" k2="-1" k3="1"/>
<feColorMatrix type="matrix" values="0 0 0 0 0 0 0 0 0 0 0 0 0 0 0 0 0 0 1 0"/>
<feBlend mode="normal" in2="shape" result="effect1_innerShadow_51_234"/>
</filter>
<filter id="filter4_i_51_234" x="15.0508" y="69.7515" width="57.8975" height="44.2678" filterUnits="userSpaceOnUse" color-interpolation-filters="sRGB">
<feFlood flood-opacity="0" result="BackgroundImageFix"/>
<feBlend mode="normal" in="SourceGraphic" in2="BackgroundImageFix" result="shape"/>
<feColorMatrix in="SourceAlpha" type="matrix" values="0 0 0 0 0 0 0 0 0 0 0 0 0 0 0 0 0 0 127 0" result="hardAlpha"/>
<feOffset dy="0.466019"/>
<feGaussianBlur stdDeviation="0.466019"/>
<feComposite in2="hardAlpha" operator="arithmetic" k2="-1" k3="1"/>
<feColorMatrix type="matrix" values="0 0 0 0 0 0 0 0 0 0 0 0 0 0 0 0 0 0 1 0"/>
<feBlend mode="normal" in2="shape" result="effect1_innerShadow_51_234"/>
</filter>
<filter id="filter5_i_51_234" x="77.1582" y="103.268" width="13.1582" height="8.80098" filterUnits="userSpaceOnUse" color-interpolation-filters="sRGB">
<feFlood flood-opacity="0" result="BackgroundImageFix"/>
<feBlend mode="normal" in="SourceGraphic" in2="BackgroundImageFix" result="shape"/>
<feColorMatrix in="SourceAlpha" type="matrix" values="0 0 0 0 0 0 0 0 0 0 0 0 0 0 0 0 0 0 127 0" result="hardAlpha"/>
<feOffset dy="0.466019"/>
<feGaussianBlur stdDeviation="0.466019"/>
<feComposite in2="hardAlpha" operator="arithmetic" k2="-1" k3="1"/>
<feColorMatrix type="matrix" values="0 0 0 0 0 0 0 0 0 0 0 0 0 0 0 0 0 0 1 0"/>
<feBlend mode="normal" in2="shape" result="effect1_innerShadow_51_234"/>
</filter>
<filter id="filter6_i_51_234" x="20.665" y="19.5659" width="86.6699" height="88.2468" filterUnits="userSpaceOnUse" color-interpolation-filters="sRGB">
<feFlood flood-opacity="0" result="BackgroundImageFix"/>
<feBlend mode="normal" in="SourceGraphic" in2="BackgroundImageFix" result="shape"/>
<feColorMatrix in="SourceAlpha" type="matrix" values="0 0 0 0 0 0 0 0 0 0 0 0 0 0 0 0 0 0 127 0" result="hardAlpha"/>
<feOffset dy="0.466019"/>
<feGaussianBlur stdDeviation="0.466019"/>
<feComposite in2="hardAlpha" operator="arithmetic" k2="-1" k3="1"/>
<feColorMatrix type="matrix" values="0 0 0 0 0 0 0 0 0 0 0 0 0 0 0 0 0 0 1 0"/>
<feBlend mode="normal" in2="shape" result="effect1_innerShadow_51_234"/>
</filter>
<radialGradient id="paint0_radial_51_234" cx="0" cy="0" r="1" gradientUnits="userSpaceOnUse" gradientTransform="translate(64 -0.404318) rotate(90) scale(128.809)">
<stop stop-color="white"/>
<stop offset="1" stop-color="#736961"/>
</radialGradient>
<linearGradient id="paint1_linear_51_234" x1="83.4891" y1="-0.000162744" x2="48.8424" y2="128" gradientUnits="userSpaceOnUse">
<stop offset="0.010423" stop-color="#646568"/>
<stop offset="0.121053" stop-color="#4A4A4D"/>
<stop offset="0.641132" stop-color="#545457"/>
<stop offset="0.809627" stop-color="#48494C"/>
<stop offset="1" stop-color="#47484B"/>
</linearGradient>
<clipPath id="clip0_51_234">
<rect width="128" height="128" fill="white"/>
</clipPath>

</defs>
</svg>
