<?xml version="1.0" encoding="UTF-8" standalone="no"?>
<svg
   width="1024"
   height="1024"
   viewBox="0 0 1024 1024"
   version="1.1"
   id="svg3"
   sodipodi:docname="Round_Logo_SVG_new.svg"
   xml:space="preserve"
   inkscape:version="1.2.1 (9c6d41e410, 2022-07-14)"
   xmlns:inkscape="http://www.inkscape.org/namespaces/inkscape"
   xmlns:sodipodi="http://sodipodi.sourceforge.net/DTD/sodipodi-0.dtd"
   xmlns:xlink="http://www.w3.org/1999/xlink"
   xmlns="http://www.w3.org/2000/svg"
   xmlns:svg="http://www.w3.org/2000/svg"><defs
     id="defs7"><path
       id="SVGID_1_"
       d="M1250,2500C559.6,2500,0,1940.4,0,1250C0,559.6,559.6,0,1250,0c690.4,0,1250,559.6,1250,1250      C2500,1940.4,1940.4,2500,1250,2500z" /></defs><sodipodi:namedview
     id="namedview5"
     pagecolor="#ffffff"
     bordercolor="#000000"
     borderopacity="0.25"
     inkscape:showpageshadow="2"
     inkscape:pageopacity="0.0"
     inkscape:pagecheckerboard="0"
     inkscape:deskcolor="#d1d1d1"
     showgrid="false"
     inkscape:zoom="1.0029297"
     inkscape:cx="272.20253"
     inkscape:cy="449.18403"
     inkscape:window-width="3840"
     inkscape:window-height="2081"
     inkscape:window-x="-9"
     inkscape:window-y="-9"
     inkscape:window-maximized="1"
     inkscape:current-layer="svg3" /><g
     id="g6526"
     transform="matrix(0.40789646,0,0,0.40902452,1.7059024,2.6250293)">
		<g
   id="g6524">
			<defs
   id="defs6260">
				<path
   id="path6536"
   d="M 1250,2500 C 559.6,2500 0,1940.4 0,1250 0,559.6 559.6,0 1250,0 c 690.4,0 1250,559.6 1250,1250 0,690.4 -559.6,1250 -1250,1250 z" />
			</defs>
			<clipPath
   id="SVGID_00000137130877621503601290000017679510272143242652_">
				<use
   xlink:href="#SVGID_1_"
   style="overflow:visible"
   id="use6262" />
			</clipPath>
			<g
   clip-path="url(#SVGID_00000137130877621503601290000017679510272143242652_)"
   id="g6522">
				<polygon
   class="st1"
   points="1250,1250 -518,1239.1 -516.4,1174.1 "
   id="polygon6265" />
				<polygon
   id="_1"
   class="st2"
   points="1250,1250 -516.7,1184.9 -514,1130.7 " />
				<polygon
   id="_2"
   class="st3"
   points="1250,1250 -514.6,1141.6 -510.6,1087.5 " />
				<polygon
   id="_3"
   class="st4"
   points="1250,1250 -511.4,1098.3 -506.1,1044.3 " />
				<polygon
   id="_4"
   class="st5"
   points="1250,1250 -507.1,1055.1 -500.5,1001.3 " />
				<polygon
   id="_5"
   class="st6"
   points="1250,1250 -501.8,1012.1 -493.9,958.4 " />
				<polygon
   id="_6"
   class="st7"
   points="1250,1250 -495.4,969.1 -486.2,915.7 " />
				<polygon
   id="_7"
   class="st8"
   points="1250,1250 -488,926.4 -477.5,873.2 " />
				<polygon
   id="_8"
   class="st9"
   points="1250,1250 -479.6,883.9 -467.7,830.9 " />
				<polygon
   id="_9"
   class="st10"
   points="1250,1250 -470.1,841.5 -456.9,788.9 " />
				<polygon
   id="_10"
   class="st11"
   points="1250,1250 -459.5,799.4 -445.1,747.1 " />
				<polygon
   id="_11"
   class="st12"
   points="1250,1250 -448,757.6 -432.2,705.7 " />
				<polygon
   id="_12"
   class="st13"
   points="1250,1250 -435.4,716.1 -418.3,664.6 " />
				<polygon
   id="_13"
   class="st14"
   points="1250,1250 -421.8,674.9 -403.5,623.8 " />
				<polygon
   id="_14"
   class="st15"
   points="1250,1250 -407.1,634 -387.6,583.4 " />
				<polygon
   id="_15"
   class="st16"
   points="1250,1250 -391.5,593.5 -370.8,543.4 " />
				<polygon
   id="_16"
   class="st17"
   points="1250,1250 -374.9,553.4 -352.9,503.9 " />
				<polygon
   id="_17"
   class="st18"
   points="1250,1250 -357.3,513.8 -334.1,464.8 " />
				<polygon
   id="_18"
   class="st19"
   points="1250,1250 -338.8,474.6 -314.4,426.1 " />
				<polygon
   id="_19"
   class="st20"
   points="1250,1250 -319.3,435.8 -293.7,388 " />
				<polygon
   id="_20"
   class="st21"
   points="1250,1250 -298.8,397.6 -272.1,350.3 " />
				<polygon
   id="_21"
   class="st22"
   points="1250,1250 -277.4,359.8 -249.5,313.3 " />
				<polygon
   id="_22"
   class="st23"
   points="1250,1250 -255.1,322.6 -226.1,276.7 " />
				<polygon
   id="_23"
   class="st24"
   points="1250,1250 -231.9,285.9 -201.7,240.8 " />
				<polygon
   id="_24"
   class="st25"
   points="1250,1250 -207.8,249.8 -176.6,205.5 " />
				<polygon
   id="_25"
   class="st26"
   points="1250,1250 -182.8,214.4 -150.5,170.8 " />
				<polygon
   id="_26"
   class="st27"
   points="1250,1250 -157,179.5 -123.6,136.7 " />
				<polygon
   id="_27"
   class="st28"
   points="1250,1250 -130.3,145.3 -95.9,103.4 " />
				<polygon
   id="_28"
   class="st29"
   points="1250,1250 -102.7,111.8 -67.3,70.7 " />
				<polygon
   id="_29"
   class="st30"
   points="1250,1250 -74.4,78.9 -38,38.7 " />
				<polygon
   id="_30"
   class="st31"
   points="1250,1250 -45.3,46.8 -7.9,7.5 " />
				<polygon
   id="_31"
   class="st32"
   points="1250,1250 -15.4,15.4 23,-23 " />
				<polygon
   id="_32"
   class="st33"
   points="1250,1250 15.4,-15.4 54.6,-52.7 " />
				<polygon
   id="_33"
   class="st34"
   points="1250,1250 46.8,-45.3 87,-81.7 " />
				<polygon
   id="_34"
   class="st35"
   points="1250,1250 78.9,-74.4 120,-109.8 " />
				<polygon
   id="_35"
   class="st36"
   points="1250,1250 111.8,-102.7 153.7,-137.1 " />
				<polygon
   id="_36"
   class="st37"
   points="1250,1250 145.3,-130.3 188.1,-163.6 " />
				<polygon
   id="_37"
   class="st38"
   points="1250,1250 179.5,-157 223.1,-189.3 " />
				<polygon
   id="_38"
   class="st39"
   points="1250,1250 214.4,-182.8 258.7,-214 " />
				<polygon
   id="_39"
   class="st40"
   points="1250,1250 249.8,-207.8 294.9,-237.9 " />
				<polygon
   id="_40"
   class="st41"
   points="1250,1250 285.9,-231.9 331.8,-260.9 " />
				<polygon
   id="_41"
   class="st42"
   points="1250,1250 322.6,-255.1 369.1,-283 " />
				<polygon
   id="_42"
   class="st43"
   points="1250,1250 359.8,-277.4 407,-304.1 " />
				<polygon
   id="_43"
   class="st44"
   points="1250,1250 397.6,-298.8 445.4,-324.4 " />
				<polygon
   id="_44"
   class="st45"
   points="1250,1250 435.8,-319.3 484.3,-343.6 " />
				<polygon
   id="_45"
   class="st46"
   points="1250,1250 474.6,-338.8 523.6,-361.9 " />
				<polygon
   id="_46"
   class="st47"
   points="1250,1250 513.8,-357.3 563.4,-379.3 " />
				<polygon
   id="_47"
   class="st48"
   points="1250,1250 553.4,-374.9 603.6,-395.7 " />
				<polygon
   id="_48"
   class="st49"
   points="1250,1250 593.5,-391.5 644.2,-411 " />
				<polygon
   id="_49"
   class="st50"
   points="1250,1250 634,-407.1 685.1,-425.4 " />
				<polygon
   id="_50"
   class="st51"
   points="1250,1250 674.9,-421.8 726.4,-438.7 " />
				<polygon
   id="_51"
   class="st52"
   points="1250,1250 716.1,-435.4 768,-451.1 " />
				<polygon
   id="_52"
   class="st53"
   points="1250,1250 757.6,-448 809.9,-462.4 " />
				<polygon
   id="_53"
   class="st54"
   points="1250,1250 799.4,-459.5 852,-472.7 " />
				<polygon
   id="_54"
   class="st55"
   points="1250,1250 841.5,-470.1 894.4,-481.9 " />
				<polygon
   id="_55"
   class="st56"
   points="1250,1250 883.9,-479.6 937,-490.1 " />
				<polygon
   id="_56"
   class="st57"
   points="1250,1250 926.4,-488 979.8,-497.3 " />
				<polygon
   id="_57"
   class="st58"
   points="1250,1250 969.1,-495.4 1022.8,-503.4 " />
				<polygon
   id="_58"
   class="st59"
   points="1250,1250 1012.1,-501.8 1065.9,-508.4 " />
				<polygon
   id="_59"
   class="st60"
   points="1250,1250 1055.1,-507.1 1109.1,-512.4 " />
				<polygon
   id="_60"
   class="st61"
   points="1250,1250 1098.3,-511.4 1152.4,-515.4 " />
				<polygon
   id="_61"
   class="st62"
   points="1250,1250 1141.6,-514.6 1195.8,-517.2 " />
				<polygon
   id="_62"
   class="st63"
   points="1250,1250 1184.9,-516.7 1239.1,-518 " />
				<polygon
   id="_63"
   class="st64"
   points="1250,1250 1228.3,-517.8 1282.5,-517.8 " />
				<polygon
   id="_64"
   class="st65"
   points="1250,1250 1271.7,-517.8 1325.9,-516.4 " />
				<polygon
   id="_65"
   class="st66"
   points="1250,1250 1315.1,-516.7 1369.2,-514 " />
				<polygon
   id="_66"
   class="st67"
   points="1250,1250 1358.4,-514.6 1412.5,-510.6 " />
				<polygon
   id="_67"
   class="st68"
   points="1250,1250 1401.7,-511.4 1455.7,-506.1 " />
				<polygon
   id="_68"
   class="st69"
   points="1250,1250 1444.8,-507.1 1498.7,-500.5 " />
				<polygon
   id="_69"
   class="st70"
   points="1250,1250 1487.9,-501.8 1541.6,-493.9 " />
				<polygon
   id="_70"
   class="st71"
   points="1250,1250 1530.8,-495.4 1584.3,-486.2 " />
				<polygon
   id="_71"
   class="st72"
   points="1250,1250 1573.6,-488 1626.8,-477.5 " />
				<polygon
   id="_72"
   class="st73"
   points="1250,1250 1616.1,-479.6 1669.1,-467.7 " />
				<polygon
   id="_73"
   class="st74"
   points="1250,1250 1658.5,-470.1 1711.1,-456.9 " />
				<polygon
   id="_74"
   class="st75"
   points="1250,1250 1700.6,-459.5 1752.8,-445.1 " />
				<polygon
   id="_75"
   class="st76"
   points="1250,1250 1742.4,-448 1794.3,-432.2 " />
				<polygon
   id="_76"
   class="st77"
   points="1250,1250 1783.9,-435.4 1835.4,-418.3 " />
				<polygon
   id="_77"
   class="st78"
   points="1250,1250 1825.1,-421.8 1876.2,-403.5 " />
				<polygon
   id="_78"
   class="st79"
   points="1250,1250 1866,-407.1 1916.6,-387.6 " />
				<polygon
   id="_79"
   class="st80"
   points="1250,1250 1906.4,-391.5 1956.6,-370.8 " />
				<polygon
   id="_80"
   class="st81"
   points="1250,1250 1946.5,-374.9 1996.1,-352.9 " />
				<polygon
   id="_81"
   class="st82"
   points="1250,1250 1986.2,-357.3 2035.2,-334.1 " />
				<polygon
   id="_82"
   class="st83"
   points="1250,1250 2025.4,-338.8 2073.9,-314.4 " />
				<polygon
   id="_83"
   class="st84"
   points="1250,1250 2064.2,-319.3 2112,-293.7 " />
				<polygon
   id="_84"
   class="st85"
   points="1250,1250 2102.4,-298.8 2149.7,-272.1 " />
				<polygon
   id="_85"
   class="st86"
   points="1250,1250 2140.2,-277.4 2186.7,-249.5 " />
				<polygon
   id="_86"
   class="st87"
   points="1250,1250 2177.4,-255.1 2223.2,-226.1 " />
				<polygon
   id="_87"
   class="st88"
   points="1250,1250 2214.1,-231.9 2259.2,-201.7 " />
				<polygon
   id="_88"
   class="st89"
   points="1250,1250 2250.2,-207.8 2294.5,-176.6 " />
				<polygon
   id="_89"
   class="st90"
   points="1250,1250 2285.6,-182.8 2329.2,-150.5 " />
				<polygon
   id="_90"
   class="st91"
   points="1250,1250 2320.5,-157 2363.2,-123.6 " />
				<polygon
   id="_91"
   class="st92"
   points="1250,1250 2354.7,-130.3 2396.6,-95.9 " />
				<polygon
   id="_92"
   class="st93"
   points="1250,1250 2388.2,-102.7 2429.3,-67.3 " />
				<polygon
   id="_93"
   class="st94"
   points="1250,1250 2421.1,-74.4 2461.3,-38 " />
				<polygon
   id="_94"
   class="st95"
   points="1250,1250 2453.2,-45.3 2492.5,-7.9 " />
				<polygon
   id="_95"
   class="st96"
   points="1250,1250 2484.6,-15.4 2523,23 " />
				<polygon
   id="_96"
   class="st97"
   points="1250,1250 2515.3,15.4 2552.7,54.6 " />
				<polygon
   id="_97"
   class="st98"
   points="1250,1250 2545.3,46.8 2581.7,87 " />
				<polygon
   id="_98"
   class="st99"
   points="1250,1250 2574.4,78.9 2609.8,120 " />
				<polygon
   id="_99"
   class="st100"
   points="1250,1250 2602.7,111.8 2637.1,153.7 " />
				<polygon
   id="_100"
   class="st101"
   points="1250,1250 2630.3,145.3 2663.6,188.1 " />
				<polygon
   id="_101"
   class="st102"
   points="1250,1250 2657,179.5 2689.3,223.1 " />
				<polygon
   id="_102"
   class="st103"
   points="1250,1250 2682.8,214.4 2714,258.7 " />
				<polygon
   id="_103"
   class="st104"
   points="1250,1250 2707.8,249.8 2737.9,294.9 " />
				<polygon
   id="_104"
   class="st105"
   points="1250,1250 2731.9,285.9 2760.9,331.8 " />
				<polygon
   id="_105"
   class="st106"
   points="1250,1250 2755.1,322.6 2783,369.1 " />
				<polygon
   id="_106"
   class="st107"
   points="1250,1250 2777.4,359.8 2804.1,407 " />
				<polygon
   id="_107"
   class="st108"
   points="1250,1250 2798.8,397.6 2824.3,445.4 " />
				<polygon
   id="_108"
   class="st109"
   points="1250,1250 2819.2,435.8 2843.6,484.3 " />
				<polygon
   id="_109"
   class="st110"
   points="1250,1250 2838.8,474.6 2861.9,523.6 " />
				<polygon
   id="_110"
   class="st111"
   points="1250,1250 2857.3,513.8 2879.3,563.4 " />
				<polygon
   id="_111"
   class="st112"
   points="1250,1250 2874.9,553.4 2895.6,603.6 " />
				<polygon
   id="_112"
   class="st113"
   points="1250,1250 2891.5,593.5 2911,644.2 " />
				<polygon
   id="_113"
   class="st114"
   points="1250,1250 2907.1,634 2925.4,685.1 " />
				<polygon
   id="_114"
   class="st115"
   points="1250,1250 2921.7,674.9 2938.7,726.4 " />
				<polygon
   id="_115"
   class="st116"
   points="1250,1250 2935.3,716.1 2951.1,768 " />
				<polygon
   id="_116"
   class="st117"
   points="1250,1250 2947.9,757.6 2962.4,809.9 " />
				<polygon
   id="_117"
   class="st118"
   points="1250,1250 2959.5,799.4 2972.7,852 " />
				<polygon
   id="_118"
   class="st119"
   points="1250,1250 2970.1,841.5 2981.9,894.4 " />
				<polygon
   id="_119"
   class="st120"
   points="1250,1250 2979.5,883.9 2990.1,937 " />
				<polygon
   id="_120"
   class="st121"
   points="1250,1250 2988,926.4 2997.3,979.8 " />
				<polygon
   id="_121"
   class="st122"
   points="1250,1250 2995.4,969.1 3003.4,1022.8 " />
				<polygon
   id="_122"
   class="st123"
   points="1250,1250 3001.8,1012.1 3008.4,1065.9 " />
				<polygon
   id="_123"
   class="st124"
   points="1250,1250 3007.1,1055.1 3012.4,1109.1 " />
				<polygon
   id="_124"
   class="st125"
   points="1250,1250 3011.4,1098.3 3015.4,1152.4 " />
				<polygon
   id="_125"
   class="st126"
   points="1250,1250 3014.6,1141.6 3017.2,1195.8 " />
				<polygon
   id="_126"
   class="st127"
   points="1250,1250 3016.7,1184.9 3018,1239.1 " />
				<polygon
   id="_127"
   class="st128"
   points="1250,1250 3017.7,1228.3 3017.7,1282.5 " />
				<polygon
   id="_128"
   class="st129"
   points="1250,1250 3017.7,1271.7 3016.4,1325.9 " />
				<polygon
   id="_129"
   class="st130"
   points="1250,1250 3016.7,1315.1 3014,1369.2 " />
				<polygon
   id="_130"
   class="st131"
   points="1250,1250 3014.6,1358.4 3010.6,1412.5 " />
				<polygon
   id="_131"
   class="st132"
   points="1250,1250 3011.4,1401.7 3006.1,1455.7 " />
				<polygon
   id="_132"
   class="st133"
   points="1250,1250 3007.1,1444.8 3000.5,1498.7 " />
				<polygon
   id="_133"
   class="st134"
   points="1250,1250 3001.8,1487.9 2993.8,1541.6 " />
				<polygon
   id="_134"
   class="st135"
   points="1250,1250 2995.4,1530.8 2986.2,1584.3 " />
				<polygon
   id="_135"
   class="st136"
   points="1250,1250 2988,1573.6 2977.4,1626.8 " />
				<polygon
   id="_136"
   class="st137"
   points="1250,1250 2979.5,1616.1 2967.7,1669.1 " />
				<polygon
   id="_137"
   class="st138"
   points="1250,1250 2970.1,1658.5 2956.9,1711.1 " />
				<polygon
   id="_138"
   class="st139"
   points="1250,1250 2959.5,1700.6 2945.1,1752.8 " />
				<polygon
   id="_139"
   class="st140"
   points="1250,1250 2947.9,1742.4 2932.2,1794.3 " />
				<polygon
   id="_140"
   class="st141"
   points="1250,1250 2935.3,1783.9 2918.3,1835.4 " />
				<polygon
   id="_141"
   class="st142"
   points="1250,1250 2921.7,1825.1 2903.5,1876.2 " />
				<polygon
   id="_142"
   class="st143"
   points="1250,1250 2907.1,1866 2887.6,1916.6 " />
				<polygon
   id="_143"
   class="st144"
   points="1250,1250 2891.5,1906.4 2870.7,1956.6 " />
				<polygon
   id="_144"
   class="st145"
   points="1250,1250 2874.9,1946.5 2852.9,1996.1 " />
				<polygon
   id="_145"
   class="st146"
   points="1250,1250 2857.3,1986.2 2834.1,2035.2 " />
				<polygon
   id="_146"
   class="st147"
   points="1250,1250 2838.8,2025.4 2814.4,2073.9 " />
				<polygon
   id="_147"
   class="st148"
   points="1250,1250 2819.2,2064.2 2793.7,2112 " />
				<polygon
   id="_148"
   class="st149"
   points="1250,1250 2798.8,2102.4 2772.1,2149.7 " />
				<polygon
   id="_149"
   class="st150"
   points="1250,1250 2777.4,2140.2 2749.5,2186.7 " />
				<polygon
   id="_150"
   class="st151"
   points="1250,1250 2755.1,2177.4 2726.1,2223.2 " />
				<polygon
   id="_151"
   class="st152"
   points="1250,1250 2731.9,2214.1 2701.7,2259.2 " />
				<polygon
   id="_152"
   class="st153"
   points="1250,1250 2707.8,2250.2 2676.6,2294.5 " />
				<polygon
   id="_153"
   class="st154"
   points="1250,1250 2682.8,2285.6 2650.5,2329.2 " />
				<polygon
   id="_154"
   class="st155"
   points="1250,1250 2657,2320.5 2623.6,2363.2 " />
				<polygon
   id="_155"
   class="st156"
   points="1250,1250 2630.3,2354.7 2595.9,2396.6 " />
				<polygon
   id="_156"
   class="st157"
   points="1250,1250 2602.7,2388.2 2567.3,2429.3 " />
				<polygon
   id="_157"
   class="st158"
   points="1250,1250 2574.4,2421.1 2538,2461.3 " />
				<polygon
   id="_158"
   class="st159"
   points="1250,1250 2545.3,2453.2 2507.9,2492.5 " />
				<polygon
   id="_159"
   class="st160"
   points="1250,1250 2515.3,2484.6 2477,2523 " />
				<polygon
   id="_160"
   class="st161"
   points="1250,1250 2484.6,2515.3 2445.4,2552.7 " />
				<polygon
   id="_161"
   class="st162"
   points="1250,1250 2453.2,2545.3 2413,2581.7 " />
				<polygon
   id="_162"
   class="st163"
   points="1250,1250 2421.1,2574.4 2380,2609.8 " />
				<polygon
   id="_163"
   class="st164"
   points="1250,1250 2388.2,2602.7 2346.3,2637.1 " />
				<polygon
   id="_164"
   class="st165"
   points="1250,1250 2354.7,2630.3 2311.9,2663.6 " />
				<polygon
   id="_165"
   class="st166"
   points="1250,1250 2320.5,2657 2276.9,2689.3 " />
				<polygon
   id="_166"
   class="st167"
   points="1250,1250 2285.6,2682.8 2241.3,2714 " />
				<polygon
   id="_167"
   class="st168"
   points="1250,1250 2250.2,2707.8 2205,2737.9 " />
				<polygon
   id="_168"
   class="st169"
   points="1250,1250 2214.1,2731.9 2168.2,2760.9 " />
				<polygon
   id="_169"
   class="st170"
   points="1250,1250 2177.4,2755.1 2130.9,2783 " />
				<polygon
   id="_170"
   class="st171"
   points="1250,1250 2140.2,2777.4 2093,2804.1 " />
				<polygon
   id="_171"
   class="st172"
   points="1250,1250 2102.4,2798.8 2054.6,2824.3 " />
				<polygon
   id="_172"
   class="st173"
   points="1250,1250 2064.2,2819.2 2015.7,2843.6 " />
				<polygon
   id="_173"
   class="st174"
   points="1250,1250 2025.4,2838.8 1976.4,2861.9 " />
				<polygon
   id="_174"
   class="st175"
   points="1250,1250 1986.2,2857.3 1936.6,2879.3 " />
				<polygon
   id="_175"
   class="st176"
   points="1250,1250 1946.5,2874.9 1896.4,2895.6 " />
				<polygon
   id="_176"
   class="st177"
   points="1250,1250 1906.4,2891.5 1855.8,2911 " />
				<polygon
   id="_177"
   class="st178"
   points="1250,1250 1866,2907.1 1814.9,2925.4 " />
				<polygon
   id="_178"
   class="st179"
   points="1250,1250 1825.1,2921.7 1773.6,2938.7 " />
				<polygon
   id="_179"
   class="st180"
   points="1250,1250 1783.9,2935.3 1732,2951.1 " />
				<polygon
   id="_180"
   class="st181"
   points="1250,1250 1742.4,2947.9 1690.1,2962.4 " />
				<polygon
   id="_181"
   class="st182"
   points="1250,1250 1700.6,2959.5 1647.9,2972.7 " />
				<polygon
   id="_182"
   class="st183"
   points="1250,1250 1658.5,2970.1 1605.6,2981.9 " />
				<polygon
   id="_183"
   class="st184"
   points="1250,1250 1616.1,2979.5 1562.9,2990.1 " />
				<polygon
   id="_184"
   class="st185"
   points="1250,1250 1573.6,2988 1520.2,2997.3 " />
				<polygon
   id="_185"
   class="st186"
   points="1250,1250 1530.8,2995.4 1477.2,3003.4 " />
				<polygon
   id="_186"
   class="st187"
   points="1250,1250 1487.9,3001.8 1434.1,3008.4 " />
				<polygon
   id="_187"
   class="st188"
   points="1250,1250 1444.8,3007.1 1390.9,3012.4 " />
				<polygon
   id="_188"
   class="st189"
   points="1250,1250 1401.7,3011.4 1347.6,3015.4 " />
				<polygon
   id="_189"
   class="st190"
   points="1250,1250 1358.4,3014.6 1304.2,3017.2 " />
				<polygon
   id="_190"
   class="st191"
   points="1250,1250 1315.1,3016.7 1260.8,3018 " />
				<polygon
   id="_191"
   class="st192"
   points="1250,1250 1271.7,3017.7 1217.4,3017.7 " />
				<polygon
   id="_192"
   class="st193"
   points="1250,1250 1228.3,3017.7 1174.1,3016.4 " />
				<polygon
   id="_193"
   class="st194"
   points="1250,1250 1184.9,3016.7 1130.7,3014 " />
				<polygon
   id="_194"
   class="st195"
   points="1250,1250 1141.6,3014.6 1087.5,3010.6 " />
				<polygon
   id="_195"
   class="st196"
   points="1250,1250 1098.3,3011.4 1044.3,3006.1 " />
				<polygon
   id="_196"
   class="st197"
   points="1250,1250 1055.1,3007.1 1001.3,3000.5 " />
				<polygon
   id="_197"
   class="st198"
   points="1250,1250 1012.1,3001.8 958.4,2993.8 " />
				<polygon
   id="_198"
   class="st199"
   points="1250,1250 969.1,2995.4 915.7,2986.2 " />
				<polygon
   id="_199"
   class="st200"
   points="1250,1250 926.4,2988 873.2,2977.4 " />
				<polygon
   id="_200"
   class="st201"
   points="1250,1250 883.9,2979.5 830.9,2967.7 " />
				<polygon
   id="_201"
   class="st202"
   points="1250,1250 841.5,2970.1 788.9,2956.9 " />
				<polygon
   id="_202"
   class="st203"
   points="1250,1250 799.4,2959.5 747.1,2945.1 " />
				<polygon
   id="_203"
   class="st204"
   points="1250,1250 757.6,2947.9 705.7,2932.2 " />
				<polygon
   id="_204"
   class="st205"
   points="1250,1250 716.1,2935.3 664.6,2918.3 " />
				<polygon
   id="_205"
   class="st206"
   points="1250,1250 674.9,2921.7 623.8,2903.5 " />
				<polygon
   id="_206"
   class="st207"
   points="1250,1250 634,2907.1 583.4,2887.6 " />
				<polygon
   id="_207"
   class="st208"
   points="1250,1250 593.5,2891.5 543.4,2870.7 " />
				<polygon
   id="_208"
   class="st209"
   points="1250,1250 553.4,2874.9 503.9,2852.9 " />
				<polygon
   id="_209"
   class="st210"
   points="1250,1250 513.8,2857.3 464.8,2834.1 " />
				<polygon
   id="_210"
   class="st211"
   points="1250,1250 474.6,2838.8 426.1,2814.4 " />
				<polygon
   id="_211"
   class="st212"
   points="1250,1250 435.8,2819.2 388,2793.7 " />
				<polygon
   id="_212"
   class="st213"
   points="1250,1250 397.6,2798.8 350.3,2772.1 " />
				<polygon
   id="_213"
   class="st214"
   points="1250,1250 359.8,2777.4 313.3,2749.5 " />
				<polygon
   id="_214"
   class="st215"
   points="1250,1250 322.6,2755.1 276.7,2726.1 " />
				<polygon
   id="_215"
   class="st216"
   points="1250,1250 285.9,2731.9 240.8,2701.7 " />
				<polygon
   id="_216"
   class="st217"
   points="1250,1250 249.8,2707.8 205.5,2676.6 " />
				<polygon
   id="_217"
   class="st218"
   points="1250,1250 214.4,2682.8 170.8,2650.5 " />
				<polygon
   id="_218"
   class="st219"
   points="1250,1250 179.5,2657 136.7,2623.6 " />
				<polygon
   id="_219"
   class="st220"
   points="1250,1250 145.3,2630.3 103.4,2595.9 " />
				<polygon
   id="_220"
   class="st221"
   points="1250,1250 111.8,2602.7 70.7,2567.3 " />
				<polygon
   id="_221"
   class="st222"
   points="1250,1250 78.9,2574.4 38.7,2538 " />
				<polygon
   id="_222"
   class="st223"
   points="1250,1250 46.8,2545.3 7.5,2507.9 " />
				<polygon
   id="_223"
   class="st224"
   points="1250,1250 15.4,2515.3 -23,2477 " />
				<polygon
   id="_224"
   class="st225"
   points="1250,1250 -15.4,2484.6 -52.7,2445.4 " />
				<polygon
   id="_225"
   class="st226"
   points="1250,1250 -45.3,2453.2 -81.7,2413 " />
				<polygon
   id="_226"
   class="st227"
   points="1250,1250 -74.4,2421.1 -109.8,2380 " />
				<polygon
   id="_227"
   class="st228"
   points="1250,1250 -102.7,2388.2 -137.1,2346.3 " />
				<polygon
   id="_228"
   class="st229"
   points="1250,1250 -130.3,2354.7 -163.6,2311.9 " />
				<polygon
   id="_229"
   class="st230"
   points="1250,1250 -157,2320.5 -189.3,2276.9 " />
				<polygon
   id="_230"
   class="st231"
   points="1250,1250 -182.8,2285.6 -214,2241.3 " />
				<polygon
   id="_231"
   class="st232"
   points="1250,1250 -207.8,2250.2 -237.9,2205 " />
				<polygon
   id="_232"
   class="st233"
   points="1250,1250 -231.9,2214.1 -260.9,2168.2 " />
				<polygon
   id="_233"
   class="st234"
   points="1250,1250 -255.1,2177.4 -283,2130.9 " />
				<polygon
   id="_234"
   class="st235"
   points="1250,1250 -277.4,2140.2 -304.1,2093 " />
				<polygon
   id="_235"
   class="st236"
   points="1250,1250 -298.8,2102.4 -324.4,2054.6 " />
				<polygon
   id="_236"
   class="st237"
   points="1250,1250 -319.3,2064.2 -343.6,2015.7 " />
				<polygon
   id="_237"
   class="st238"
   points="1250,1250 -338.8,2025.4 -361.9,1976.4 " />
				<polygon
   id="_238"
   class="st239"
   points="1250,1250 -357.3,1986.2 -379.3,1936.6 " />
				<polygon
   id="_239"
   class="st240"
   points="1250,1250 -374.9,1946.5 -395.7,1896.4 " />
				<polygon
   id="_240"
   class="st241"
   points="1250,1250 -391.5,1906.4 -411,1855.8 " />
				<polygon
   id="_241"
   class="st242"
   points="1250,1250 -407.1,1866 -425.4,1814.9 " />
				<polygon
   id="_242"
   class="st243"
   points="1250,1250 -421.8,1825.1 -438.7,1773.6 " />
				<polygon
   id="_243"
   class="st244"
   points="1250,1250 -435.4,1783.9 -451.1,1732 " />
				<polygon
   id="_244"
   class="st245"
   points="1250,1250 -448,1742.4 -462.4,1690.1 " />
				<polygon
   id="_245"
   class="st246"
   points="1250,1250 -459.5,1700.6 -472.7,1647.9 " />
				<polygon
   id="_246"
   class="st247"
   points="1250,1250 -470.1,1658.5 -481.9,1605.6 " />
				<polygon
   id="_247"
   class="st248"
   points="1250,1250 -479.6,1616.1 -490.1,1562.9 " />
				<polygon
   id="_248"
   class="st249"
   points="1250,1250 -488,1573.6 -497.3,1520.2 " />
				<polygon
   id="_249"
   class="st250"
   points="1250,1250 -495.4,1530.8 -503.4,1477.2 " />
				<polygon
   id="_250"
   class="st251"
   points="1250,1250 -501.8,1487.9 -508.4,1434.1 " />
				<polygon
   id="_251"
   class="st252"
   points="1250,1250 -507.1,1444.8 -512.4,1390.9 " />
				<polygon
   id="_252"
   class="st253"
   points="1250,1250 -511.4,1401.7 -515.4,1347.6 " />
				<polygon
   id="_253"
   class="st254"
   points="1250,1250 -514.6,1358.4 -517.2,1304.2 " />
				<polygon
   id="_254"
   class="st255"
   points="1250,1250 -516.7,1315.1 -518,1260.8 " />
				<polygon
   id="_255"
   class="st256"
   points="1250,1250 -517.8,1271.7 -517.8,1228.3 " />
			</g>
		</g>
	</g><g
     id="g7066"
     transform="matrix(1.2783624,0,0,1.2217345,-153.00772,-104.83001)"><path
       style="fill:#000000;fill-opacity:1;fill-rule:nonzero;stroke:none;stroke-width:1;stroke-dasharray:none;stroke-opacity:1"
       d="m 397.236,772.3455 c -5.4793,-2.7009 -5.6368,-8.7746 -0.3965,-15.2954 4.1753,-5.1956 6.9649,-6.5715 16.1605,-7.9703 10.6518,-1.6204 10.5542,-1.562 13.1481,-7.8648 2.2863,-5.5555 2.3512,-6.5244 2.3254,-34.715 -0.021,-23.2328 -0.3559,-30.4915 -1.6827,-36.5 -2.0944,-9.4847 -3.4137,-13.0418 -4.0799,-11 -0.2691,0.825 -1.7196,5.4445 -3.2233,10.2655 -1.5521,4.9766 -4.6487,11.7584 -7.1637,15.6894 l -4.4299,6.9239 1.5809,7.6535 c 2.4293,11.7609 0.145,20.0905 -6.4294,23.4445 -5.0819,2.5926 -5.9579,3.9074 -8.0674,12.1082 -3.6316,14.1184 -8.4645,16.1627 -38.5673,16.314 C 335.073,751.5063 331,750.7661 331,746.7814 c 0,-4.989 6.9356,-12.5383 14.6568,-15.9538 2.3421,-1.036 7.8474,-2.1604 12.234,-2.4987 7.9491,-0.613 7.9854,-0.6287 10.9084,-4.722 8.7415,-12.2414 11.2061,-22.1608 11.185,-45.0169 -0.028,-30.4122 -2.9554,-52.6857 -8.3119,-63.2447 C 370.3205,612.6804 365.9766,606.9 362.0193,602.5 343.3666,581.7607 338.9265,572.2814 333.9321,542.5359 330.506,522.1308 329.2937,516.925 324.438,501.7685 322.5471,495.8662 321,489.4421 321,487.4928 v -3.5442 l -3.0929,1.5995 c -1.7011,0.8796 -3.1998,1.4537 -3.3303,1.2756 -0.1306,-0.178 -0.7953,-2.908 -1.4772,-6.0666 -1.421,-6.5822 -6.678,-14.2873 -13.35,-19.5674 -2.3373,-1.8497 -9.0417,-6.2504 -14.8986,-9.7793 -12.1029,-7.2923 -16.5561,-11.714 -17.4542,-17.3304 -0.4325,-2.7047 -1.5153,-4.5308 -3.6008,-6.0727 -3.4538,-2.5535 -6.7423,-9.1439 -6.774,-13.5758 -0.032,-4.4965 2.6033,-12.6002 5.4732,-16.8293 2.4026,-3.5405 2.5048,-4.314 2.5048,-18.9651 0,-16.0233 0.5611,-19.2879 5.6542,-32.8999 l 2.5305,-6.7629 -3.0942,-3.524 c -4.448,-5.066 -7.3408,-11.3155 -11.5493,-24.9503 -2.0371,-6.6 -6.4144,-18.075 -9.7273,-25.5 -7.48583,-16.7776 -9.77159,-25.4039 -10.52003,-39.70231 -0.4947,-9.45087 -0.32539,-11.60064 1.08293,-13.75 3.02517,-4.61701 7.2758,-2.96568 24.1232,9.37165 12.5829,9.21446 15.7864,11.20266 27.6043,17.13206 5.7176,2.8687 12.8945,6.9122 15.9485,8.9856 8.2516,5.6018 16.6301,15.0987 18.3052,20.7485 1.0687,3.6046 1.8385,4.6657 3.2699,4.5071 23.1449,-2.5641 48.6652,-1.4434 59.7189,2.6225 1.1843,0.4356 3.3354,1.0776 4.7803,1.4267 2.5465,0.6151 2.6405,0.4738 3.0619,-4.6036 0.9086,-10.948 6.0834,-18.3382 23.3809,-33.3903 5.9517,-5.1792 7.9143,-7.7584 12.4095,-16.30866 6.0345,-11.47821 10.4013,-15.91555 18.7288,-19.03124 13.0741,-4.89165 14.7688,-2.61819 18.2572,24.492 1.0615,8.25 3.144,19.05 4.6276,24 1.4837,4.95 3.7535,12.5259 5.0442,16.8354 5.8396,19.4984 5.7254,33.9962 -0.3632,46.0819 -3.6622,7.2694 -11.3342,14.8455 -18.7111,18.4771 -6.2555,3.0796 -6.3928,3.2334 -7.0313,7.8759 -2.2416,16.2987 12.3614,47.4745 30.2823,64.6492 17.99,17.2411 34.883,21.9893 89.1861,25.0683 33.6634,1.9088 55.5479,3.9022 72,6.5583 34.5462,5.5774 59.8045,13.769 78.6244,25.499 3.9312,2.4502 7.6852,4.4549 8.3422,4.4549 2.3808,0 12.1789,-7.3427 16.9678,-12.7158 14.4329,-16.1934 17.59,-33.7805 13.0656,-72.7842 -2.4437,-21.0659 -2.5872,-37.146 -0.398,-44.5685 2.3507,-7.9698 5.398,-10.8562 5.398,-5.113 0,4.6597 2.7422,12.4576 8.4049,23.9005 14.1776,28.6495 18.726,43.4474 18.8358,61.281 0.08,12.9971 -1.8134,24.5205 -6.3626,38.7221 -5.2854,16.4997 -14.4201,34.177 -22.9612,44.4336 l -3.877,4.6557 2.8693,6.3443 c 5.2629,11.6367 7.2496,19.6544 7.8258,31.5832 0.8637,17.8782 -1.3493,27.664 -12.1916,53.9103 -5.5695,13.4823 -7.503,22.0682 -7.526,33.4193 -0.021,10.2854 1.6061,16.2401 7.6788,28.1038 5.751,11.2353 5.9925,16.2264 1.4165,29.2736 -1.7418,4.9663 -3.5833,12.8805 -4.1395,17.7906 -0.773,6.8234 -1.7082,10.0961 -4.0924,14.3207 -3.0278,5.3649 -3.076,5.6594 -2.3756,14.509 0.8952,11.3098 0.5728,11.7293 -12.3702,16.0966 -8.3048,2.8023 -10.9539,3.2427 -19.1881,3.19 -10.8295,-0.069 -18.3991,-2.0764 -21.9043,-5.8075 -3.1165,-3.3173 -2.1211,-8.8385 2.5035,-13.8864 4.2544,-4.644 8.8976,-6.6589 15.3451,-6.6589 3.8248,0 5.6322,-0.5695 7.922,-2.4963 8.2801,-6.9672 9.2926,-27.416 1.9521,-39.4219 C 721.3368,701.1099 712.1395,691 710.9547,691 c -0.4154,0 -1.2792,2.1842 -1.9196,4.8537 -0.6879,2.8674 -3.5541,8.3658 -7.0038,13.4357 -7.4572,10.9595 -10.1189,17.9657 -10.9075,28.7106 l -0.6238,8.5 -5.4953,1.8218 c -7.4087,2.456 -18.8601,3.6663 -34.5047,3.6468 -14.8205,-0.019 -19.701,-0.8694 -23.0533,-4.0186 -2.2281,-2.0933 -2.2754,-2.3806 -0.8467,-5.1433 2.6726,-5.1684 8.4033,-10.6426 12.9649,-12.3846 3.6595,-1.3976 6.2698,-1.5721 14.8838,-0.9951 12.1547,0.8142 13.6226,0.3122 16.6979,-5.7104 2.303,-4.5102 3.564,-15.132 2.4786,-20.8776 -0.3575,-1.892 -3.4745,-7.0225 -7.1929,-11.839 -19.2859,-24.9815 -27.4,-42.3629 -30.414,-65.1502 -2.2789,-17.229 -5.7439,-23.2912 -14.741,-25.7897 -11.0868,-3.0788 -22.9817,-0.052 -38.2773,9.7387 -8.5907,5.4992 -27.5966,14.7158 -37.5,18.185 -12.7867,4.4792 -26.7616,7.7024 -43.5,10.0328 -19.0626,2.654 -25.7749,3.9941 -26.8473,5.3601 -0.4851,0.6178 -1.1479,6.5233 -1.4729,13.1233 -0.6632,13.4699 -2.5572,24.8154 -6.3071,37.7822 -2.4232,8.3791 -2.4835,9.1931 -1.3156,17.7393 1.4034,10.2695 0.8534,17.1317 -1.8656,23.2784 -1.9778,4.4712 -8.3418,11.2583 -11.5262,12.2927 -1.4237,0.4624 -1.6834,1.1911 -1.1591,3.2517 2.0805,8.177 2.1844,12.1354 0.3956,15.0768 -2.3012,3.784 -4.1873,4.7457 -12.9012,6.5788 -10.1978,2.1451 -37.3028,2.045 -41.7646,-0.1544 z M 442,770.5637 c 9.2562,-2.5116 10.7047,-5.5885 8.5073,-18.0702 -0.6879,-3.9076 -0.5815,-4.1049 4.3165,-8 9.4178,-7.4893 11.6829,-14.7153 9.9268,-31.6672 -1.0656,-10.287 -1.01,-10.9936 1.5349,-19.5 3.2956,-11.0155 5.398,-23.895 6.2884,-38.5241 0.3783,-6.2162 1.1084,-11.8337 1.6223,-12.4833 1.2064,-1.5251 7.6113,-2.8708 25.6816,-5.3959 37.2392,-5.2039 51.2258,-10.2004 87.5789,-31.2862 9.9163,-5.7517 16.2986,-7.6429 25.6972,-7.6148 10.7841,0.032 17.9886,3.9266 20.7504,11.2167 0.5707,1.5063 1.9618,8.245 3.0913,14.9749 4.4939,26.7759 10.7108,40.2182 30.4169,65.769 7.8499,10.1781 9.3651,15.2145 7.5646,25.1439 -2.4218,13.3552 -7.6742,18.2102 -17.2975,15.9889 -13.1178,-3.0279 -22.499,0.404 -28.7615,10.5219 -4.5534,7.3565 0.089,8.7176 27.6504,8.1063 16.2326,-0.36 22.2223,-0.8636 26.6815,-2.2432 l 5.75,-1.7791 v -4.2007 c 0,-5.4303 3.2634,-18.1514 6.0772,-23.6897 1.2102,-2.382 4.2439,-7.2016 6.7416,-10.7102 2.4977,-3.5086 5.1324,-8.6582 5.8549,-11.4437 0.7226,-2.7854 1.7294,-5.4801 2.2374,-5.9881 1.2356,-1.2356 10.1651,7.1821 13.9595,13.1595 7.9959,12.5958 8.1193,32.5354 0.2558,41.3361 -2.399,2.685 -3.8869,3.2794 -11.0688,4.4223 -9.2389,1.4701 -12.2359,2.9977 -15.1016,7.6975 -6.0545,9.9296 1.2863,15.6957 19.9821,15.6957 8.1178,0 11.12,-0.4845 18.5358,-2.9912 12.0712,-4.0803 12.8547,-4.8979 11.9587,-12.4795 -1.1121,-9.4096 -0.7043,-12.3861 2.4664,-18.0044 2.1816,-3.8656 3.129,-7.1564 3.635,-12.6266 0.3764,-4.069 2.2102,-12.0735 4.0752,-17.7876 4.6992,-14.3979 4.5594,-18.3344 -1.037,-29.2023 -6.1944,-12.0292 -7.8621,-18.4503 -7.7614,-29.884 0.1034,-11.7401 2.3701,-20.909 9.1596,-37.0505 7.0033,-16.6498 10.0143,-27.6434 10.7257,-39.1615 0.9354,-15.143 -1.0546,-24.4199 -9.7456,-45.4316 -1.232,-2.9783 -1.1066,-3.3395 2.7766,-8 12.4857,-14.9848 23.9991,-41.271 27.882,-63.6572 2.1319,-12.291 1.4522,-30.217 -1.5619,-41.1903 -2.4823,-9.0373 -7.8059,-21.9452 -15.1973,-36.8482 C 767.8731,365.6343 765,357.8292 765,353.6434 c 0,-4.4572 -1.6251,-2.1873 -3.4484,4.8167 -2.1121,8.1131 -1.9496,19.2265 0.6047,41.3573 2.9208,25.3065 2.9148,40.2465 -0.02,50.6475 -2.8427,10.0734 -6.9633,17.8202 -13.2015,24.8193 -4.483,5.0298 -13.0292,11.5259 -17.077,12.9804 -0.9923,0.3565 -4.5549,-1.2287 -9,-4.0049 -23.3657,-14.5928 -55.658,-23.9032 -99.3574,-28.6463 -13.3111,-1.4448 -23.6926,-2.1917 -65,-4.6769 -38.5177,-2.3173 -57.6834,-8.027 -74.097,-22.0743 -19.9969,-17.1142 -36.4161,-52.5469 -32.7782,-70.736 0.5249,-2.6247 1.6386,-3.6228 6.9715,-6.2482 7.3912,-3.6387 15.0141,-11.2022 18.7799,-18.6336 5.578,-11.0077 5.6549,-25.9118 0.2271,-44.026 -1.272,-4.2451 -3.5307,-11.7684 -5.0193,-16.7184 -1.4886,-4.95 -3.5837,-15.525 -4.6556,-23.5 -2.5875,-19.24993 -2.7985,-20.25722 -5.0029,-23.88205 -2.2331,-3.67207 -3.9226,-3.83925 -11.2173,-1.10995 -8.3275,3.11569 -12.6943,7.55303 -18.7288,19.03124 -4.4952,8.55026 -6.4578,11.12946 -12.4095,16.30866 -17.3077,15.061 -22.1224,21.9163 -23.2817,33.1491 -0.3133,3.0352 -1.0673,5.503 -1.6813,5.503 -0.6123,0 -4.1445,-0.8669 -7.8494,-1.9264 -14.25,-4.0751 -26.5552,-4.6568 -58.6412,-2.7723 -3.2209,0.1891 -3.4505,-0.028 -4.77,-4.5158 -1.6608,-5.6486 -10.0246,-15.1349 -18.2935,-20.7485 -3.054,-2.0734 -10.2309,-6.1169 -15.9485,-8.9856 -11.8863,-5.9638 -14.9152,-7.8517 -28.2346,-17.59894 -5.2967,-3.87615 -11.7387,-8.15115 -14.3157,-9.5 l -4.68531,-2.45246 -1.93435,2.36078 c -2.22556,2.71621 -2.5119,9.31574 -0.89548,20.63922 1.62657,11.3946 3.51196,17.4613 9.82164,31.6036 3.2873,7.368 7.6436,18.7964 9.6807,25.3964 4.2139,13.6523 7.101,19.884 11.5712,24.9752 3.5083,3.9958 3.5015,4.1709 -0.6073,15.5248 -3.1119,8.5992 -4.9478,24.9485 -4.1712,37.1464 0.4704,7.3883 0.3731,7.8154 -2.8847,12.6529 -6.8664,10.1961 -6.6874,19.4193 0.5101,26.2731 2.431,2.3149 3.9957,4.8744 4.4454,7.2714 1.0488,5.5907 5.5331,9.8564 18.788,17.8718 17.524,10.5972 25.7779,19.6663 27.4877,30.2026 0.6565,4.0452 0.9834,4.206 4.1047,2.0198 2.5797,-1.8069 2.7075,-1.6018 3.7263,5.9771 0.3634,2.7033 1.906,8.3283 3.4282,12.5 3.649,10.001 6.4864,22.1615 9.5863,41.0849 1.3964,8.525 3.2369,17.9481 4.0898,20.9403 3.3497,11.7507 10.8131,23.6465 23.8786,38.0597 12.2466,13.5097 15.6444,25.1794 17.5689,60.3399 1.6554,30.2455 -0.4246,44.6176 -8.3619,57.7797 -5.3545,8.8792 -5.4106,8.9151 -15.3768,9.85 -4.9928,0.4683 -10.4773,1.5752 -12.1877,2.4597 -6.2299,3.2216 -13.1368,10.7925 -13.1368,14.3997 0,2.6608 6.339,3.3642 27.1991,3.0181 19.597,-0.3251 21.6626,-0.5314 25.8227,-2.579 5.2029,-2.5608 7.2162,-5.5418 8.9612,-13.2681 1.613,-7.1424 3.2003,-9.5427 7.894,-11.9373 2.3523,-1.2 4.4843,-3.3042 5.4854,-5.4139 2.0208,-4.2585 2.1322,-13.6875 0.2362,-19.9874 l -1.4014,-4.6565 4.0428,-6.2524 c 4.977,-7.6975 7.2842,-12.9864 9.6675,-22.1622 1.0691,-4.116 2.3764,-7.0903 3.1165,-7.0903 1.7657,0 3.7703,6.2789 5.5869,17.5 1.0524,6.5011 1.5885,17.5496 1.6981,35 0.1528,24.3354 0.057,25.7564 -2.0954,31.114 -1.2405,3.0877 -3.0476,6.3308 -4.0158,7.207 -0.9681,0.8761 -5.1212,2.0864 -9.229,2.6895 -9.273,1.3614 -12.0433,2.4139 -15.2983,5.8122 -3.1879,3.3282 -5.9442,9.7395 -5.198,12.0906 0.6147,1.9367 3.6405,3.7382 7.5275,4.4817 5.1832,0.9914 34.5527,-0.3532 40,-1.8313 z"
       id="path5184"
       sodipodi:nodetypes="sssscsssscsssssssssssssscccssssscssscssssssscscscsssssscsssssssssssssssscsssssssssscssssssssscscssssssssscsssssssssssscsssssscscsssssssscssssssssssssssssssssssssssscsscsscssssscssscssssssssccssscssscsscssscscsssssssssssscssssssssssscc" /><path
       style="fill:#ffffff;fill-opacity:1;fill-rule:nonzero;stroke:none;stroke-width:0.997079;stroke-dasharray:none;stroke-opacity:1"
       d="m 399.06553,770.82432 c -4.06021,-1.86382 -4.81258,-3.72821 -3.13698,-7.77349 3.05159,-7.36719 7.75122,-10.67721 17.36064,-12.22736 10.07817,-1.62577 11.3212,-2.30711 14.21148,-7.78971 l 2.73886,-5.1954 -0.0824,-30.4109 c -0.0742,-27.37833 -0.29623,-31.34332 -2.227,-39.76119 -3.4883,-15.20849 -5.12123,-15.34236 -9.67619,-0.79326 -1.51545,4.84052 -4.96084,12.46817 -7.65642,16.95034 l -4.90106,8.14939 1.29158,4.48685 c 1.83972,6.39104 1.60278,17.09848 -0.44763,20.22779 -0.90986,1.38862 -3.57744,3.80754 -5.92795,5.37537 -3.85056,2.56839 -4.54061,3.67506 -6.97021,11.17857 -4.71448,14.5601 -6.23525,15.30257 -32.49488,15.86471 -22.87059,0.48961 -28.12307,-0.0513 -28.12307,-2.8963 0,-2.97195 8.55197,-11.53858 13.30356,-13.32635 2.27993,-0.85782 7.47171,-1.96799 11.5373,-2.46706 4.55177,-0.55874 8.38283,-1.64529 9.97079,-2.82787 3.22656,-2.40287 10.16227,-15.8677 11.92566,-23.15223 3.24021,-13.38525 2.23176,-54.76657 -1.81613,-74.52407 -2.3615,-11.52633 -6.18151,-18.84827 -15.9901,-30.64875 -10.51617,-12.65176 -15.74224,-20.4423 -19.06263,-28.41683 -2.58957,-6.21934 -3.54673,-10.43045 -9.29607,-40.89915 -1.39699,-7.40331 -4.28206,-19.06913 -6.41128,-25.92405 -2.12922,-6.85492 -4.18828,-14.63819 -4.5757,-17.29614 -0.56394,-3.86897 -1.03728,-4.73823 -2.37372,-4.35914 -0.91813,0.26044 -2.27589,0.6404 -3.01725,0.84434 -0.88575,0.24367 -1.7694,-1.23864 -2.57712,-4.3231 -2.54758,-9.72856 -8.51984,-15.80491 -29.03201,-29.53804 -12.35599,-8.27247 -13.05796,-8.92833 -16.39834,-15.32137 -1.91938,-3.67342 -4.80161,-8.30481 -6.40495,-10.29199 -2.18212,-2.70451 -3.02692,-4.96067 -3.3596,-8.97226 -0.39855,-4.80604 -0.0318,-6.11107 3.55317,-12.64305 l 3.99759,-7.28382 -0.0426,-12.46128 c -0.0479,-13.98651 1.37083,-23.96586 4.8694,-34.25209 3.02095,-8.88196 2.98163,-10.05149 -0.48613,-14.45907 -4.19001,-5.32556 -6.54253,-10.41646 -11.49542,-24.87635 -2.43984,-7.12306 -7.12623,-19.39093 -10.4142,-27.26194 -6.79208,-16.25946 -9.27084,-26.43992 -9.48345,-38.94922 -0.12134,-7.13956 0.1694,-9.00253 1.63387,-10.46933 1.71153,-1.71425 1.9464,-1.68965 5.98247,0.62668 2.31055,1.32604 9.81421,6.33837 16.6748,11.1385 6.86059,4.80014 17.85338,11.60012 24.42843,15.11107 6.57505,3.51095 13.97372,7.65647 16.44149,9.21228 6.92971,4.36883 15.49223,13.82148 17.99947,19.87063 l 2.21561,5.34557 24.54095,-0.13653 c 23.75418,-0.13215 24.88939,-0.0481 35.40897,2.62221 5.97739,1.5173 11.03867,2.58807 11.24726,2.37947 0.20859,-0.20859 0.79922,-2.95961 1.31251,-6.11337 1.59298,-9.78767 4.37603,-14.01922 18.37595,-27.94013 10.29053,-10.23244 13.87547,-14.53678 17.02392,-20.44012 5.45705,-10.23198 12.52528,-17.23639 19.66432,-19.48677 3.04997,-0.96142 6.24353,-1.48015 7.09679,-1.15272 2.91281,1.11775 4.47778,6.25352 7.07776,23.2272 1.42989,9.33486 3.70966,20.98429 5.06617,25.88762 7.75194,28.02078 8.52175,31.70049 8.52865,40.76694 0.009,11.32886 -1.83674,17.61367 -7.38016,25.13506 -4.4979,6.1028 -8.00122,9.11712 -15.85603,13.64278 -2.59478,1.49502 -5.17472,3.57201 -5.73321,4.61554 -1.59971,2.9891 -1.19104,11.99061 0.91894,20.24054 7.78009,30.41985 29.32302,56.79379 53.80219,65.86736 14.58867,5.40752 30.07489,7.59275 71.88955,10.14425 74.46522,4.5438 108.36892,11.95576 142.8644,31.23277 11.14123,6.22602 10.38367,6.27536 20.48014,-1.33403 7.39185,-5.571 12.82348,-12.41325 17.08743,-21.52508 6.5163,-13.92504 7.36102,-27.08877 3.93429,-61.31024 -2.20361,-22.00657 -2.14333,-36.67742 0.17988,-43.77984 1.15393,-3.52774 1.34583,-3.70045 1.66167,-1.49562 0.69194,4.83018 2.57346,9.6466 10.71166,27.42016 4.51992,9.87136 9.59578,21.98586 11.27968,26.92113 3.62072,10.61179 5.59746,26.36976 4.68063,37.31262 -1.89693,22.64117 -13.87541,53.33741 -27.82059,71.29349 -2.52335,3.24912 -4.58791,6.45707 -4.58791,7.12877 0,0.6717 1.53124,5.1923 3.40277,10.04578 5.49242,14.24367 6.88029,20.71855 6.91394,32.25585 0.0394,13.5226 -1.98583,22.43118 -9.49229,41.75416 -8.09372,20.83468 -9.79939,27.96101 -9.79257,40.91361 0.007,12.53656 0.69185,15.42099 6.77221,28.50652 5.52687,11.89439 5.79812,16.33349 1.7927,29.33879 -1.42291,4.62006 -3.28526,12.42399 -4.13856,17.34205 -0.85329,4.91807 -2.64823,11.10635 -3.98876,13.75173 -2.09753,4.1393 -2.43731,6.18738 -2.43731,14.69165 0,7.15754 -0.37712,10.19483 -1.36793,11.01713 -0.75237,0.62442 -4.67836,2.3555 -8.72444,3.84688 -6.5363,2.40927 -8.74611,2.71318 -19.81999,2.72585 -10.01796,0.0115 -13.17004,-0.33754 -16.06438,-1.77868 -4.80027,-2.39013 -6.3068,-5.7247 -4.50099,-9.96253 2.33914,-5.48949 5.54466,-7.54246 15.00483,-9.60976 12.22971,-2.67254 15.51876,-6.03799 17.41634,-17.82093 1.24083,-7.70479 -0.12475,-17.79525 -3.36658,-24.87636 -2.71745,-5.93569 -12.8597,-17.19941 -15.48695,-17.19941 -1.17303,0 -2.3646,1.79755 -3.8005,5.7332 -1.15044,3.15326 -4.54536,9.59947 -7.54427,14.3249 -6.43369,10.1377 -9.48564,18.61322 -10.28188,28.5537 l -0.57938,7.23303 -5.09043,1.56403 c -3.60788,1.10851 -11.18863,1.72406 -26.02908,2.11352 -22.33889,0.58624 -29.41383,-0.23675 -29.41383,-3.42153 0,-2.9235 5.21324,-9.28761 9.8192,-11.98688 4.89962,-2.87137 11.01929,-3.42555 21.09024,-1.90987 4.87772,0.7341 5.86971,0.56682 8.97371,-1.51317 4.26729,-2.85954 7.89241,-12.34298 7.9316,-20.74935 0.0326,-7.00728 -2.58381,-12.55482 -11.69922,-24.80518 -15.74311,-21.15744 -21.30125,-33.5217 -26.12097,-58.10694 -1.6497,-8.41508 -3.92672,-17.13927 -5.06003,-19.38709 -3.02652,-6.0028 -8.35265,-8.65177 -18.46251,-9.18241 -11.22548,-0.58918 -16.77855,1.252 -35.95848,11.92247 -31.69044,17.63051 -40.39038,20.40018 -88.45323,28.15953 -8.14025,1.31417 -15.2698,2.85876 -15.84345,3.43241 -0.57364,0.57365 -1.6615,7.46375 -2.41744,15.31133 -1.46255,15.18293 -3.31519,25.88653 -6.439,37.20115 -1.65209,5.98396 -1.83294,8.83998 -1.2679,20.02188 0.86031,17.02497 -0.25737,20.75247 -8.63558,28.80004 l -5.96328,5.72795 0.64895,7.78161 c 0.61493,7.37348 0.51965,7.91093 -1.81666,10.24724 -3.443,3.44299 -10.2372,4.6488 -29.6106,5.25515 -13.41697,0.41994 -17.17066,0.23492 -19.80951,-0.97644 z"
       id="path5978" /></g><style
     type="text/css"
     id="style6257">
	.st0{clip-path:url(#SVGID_00000165206057370772089280000013047202933105835397_);}
	.st1{fill-rule:evenodd;clip-rule:evenodd;fill:#FEFEFF;}
	.st2{fill-rule:evenodd;clip-rule:evenodd;fill:#FDFEFF;}
	.st3{fill-rule:evenodd;clip-rule:evenodd;fill:#FCFDFF;}
	.st4{fill-rule:evenodd;clip-rule:evenodd;fill:#FBFCFF;}
	.st5{fill-rule:evenodd;clip-rule:evenodd;fill:#FAFCFF;}
	.st6{fill-rule:evenodd;clip-rule:evenodd;fill:#F9FBFF;}
	.st7{fill-rule:evenodd;clip-rule:evenodd;fill:#F8FAFF;}
	.st8{fill-rule:evenodd;clip-rule:evenodd;fill:#F7FAFF;}
	.st9{fill-rule:evenodd;clip-rule:evenodd;fill:#F6F9FF;}
	.st10{fill-rule:evenodd;clip-rule:evenodd;fill:#F5F8FF;}
	.st11{fill-rule:evenodd;clip-rule:evenodd;fill:#F4F8FF;}
	.st12{fill-rule:evenodd;clip-rule:evenodd;fill:#F3F7FF;}
	.st13{fill-rule:evenodd;clip-rule:evenodd;fill:#F2F6FF;}
	.st14{fill-rule:evenodd;clip-rule:evenodd;fill:#F1F6FF;}
	.st15{fill-rule:evenodd;clip-rule:evenodd;fill:#F0F5FF;}
	.st16{fill-rule:evenodd;clip-rule:evenodd;fill:#EFF4FF;}
	.st17{fill-rule:evenodd;clip-rule:evenodd;fill:#EEF3FF;}
	.st18{fill-rule:evenodd;clip-rule:evenodd;fill:#EDF3FF;}
	.st19{fill-rule:evenodd;clip-rule:evenodd;fill:#ECF2FF;}
	.st20{fill-rule:evenodd;clip-rule:evenodd;fill:#EBF1FF;}
	.st21{fill-rule:evenodd;clip-rule:evenodd;fill:#EAF1FF;}
	.st22{fill-rule:evenodd;clip-rule:evenodd;fill:#E9F0FF;}
	.st23{fill-rule:evenodd;clip-rule:evenodd;fill:#E8EFFF;}
	.st24{fill-rule:evenodd;clip-rule:evenodd;fill:#E7EFFF;}
	.st25{fill-rule:evenodd;clip-rule:evenodd;fill:#E6EEFF;}
	.st26{fill-rule:evenodd;clip-rule:evenodd;fill:#E5EDFF;}
	.st27{fill-rule:evenodd;clip-rule:evenodd;fill:#E4EDFF;}
	.st28{fill-rule:evenodd;clip-rule:evenodd;fill:#E3ECFF;}
	.st29{fill-rule:evenodd;clip-rule:evenodd;fill:#E2EBFF;}
	.st30{fill-rule:evenodd;clip-rule:evenodd;fill:#E1EBFF;}
	.st31{fill-rule:evenodd;clip-rule:evenodd;fill:#E0EAFF;}
	.st32{fill-rule:evenodd;clip-rule:evenodd;fill:#DFE9FF;}
	.st33{fill-rule:evenodd;clip-rule:evenodd;fill:#DEE9FF;}
	.st34{fill-rule:evenodd;clip-rule:evenodd;fill:#DDE8FF;}
	.st35{fill-rule:evenodd;clip-rule:evenodd;fill:#DCE7FF;}
	.st36{fill-rule:evenodd;clip-rule:evenodd;fill:#DBE7FF;}
	.st37{fill-rule:evenodd;clip-rule:evenodd;fill:#DAE6FF;}
	.st38{fill-rule:evenodd;clip-rule:evenodd;fill:#D9E5FF;}
	.st39{fill-rule:evenodd;clip-rule:evenodd;fill:#D8E5FF;}
	.st40{fill-rule:evenodd;clip-rule:evenodd;fill:#D7E4FF;}
	.st41{fill-rule:evenodd;clip-rule:evenodd;fill:#D6E3FF;}
	.st42{fill-rule:evenodd;clip-rule:evenodd;fill:#D5E3FF;}
	.st43{fill-rule:evenodd;clip-rule:evenodd;fill:#D4E2FF;}
	.st44{fill-rule:evenodd;clip-rule:evenodd;fill:#D3E1FF;}
	.st45{fill-rule:evenodd;clip-rule:evenodd;fill:#D2E0FF;}
	.st46{fill-rule:evenodd;clip-rule:evenodd;fill:#D1E0FF;}
	.st47{fill-rule:evenodd;clip-rule:evenodd;fill:#D0DFFF;}
	.st48{fill-rule:evenodd;clip-rule:evenodd;fill:#CFDEFF;}
	.st49{fill-rule:evenodd;clip-rule:evenodd;fill:#CEDEFF;}
	.st50{fill-rule:evenodd;clip-rule:evenodd;fill:#CDDDFF;}
	.st51{fill-rule:evenodd;clip-rule:evenodd;fill:#CCDCFF;}
	.st52{fill-rule:evenodd;clip-rule:evenodd;fill:#CBDCFF;}
	.st53{fill-rule:evenodd;clip-rule:evenodd;fill:#CADBFF;}
	.st54{fill-rule:evenodd;clip-rule:evenodd;fill:#C9DAFF;}
	.st55{fill-rule:evenodd;clip-rule:evenodd;fill:#C8DAFF;}
	.st56{fill-rule:evenodd;clip-rule:evenodd;fill:#C7D9FF;}
	.st57{fill-rule:evenodd;clip-rule:evenodd;fill:#C6D8FF;}
	.st58{fill-rule:evenodd;clip-rule:evenodd;fill:#C5D8FF;}
	.st59{fill-rule:evenodd;clip-rule:evenodd;fill:#C4D7FF;}
	.st60{fill-rule:evenodd;clip-rule:evenodd;fill:#C3D6FF;}
	.st61{fill-rule:evenodd;clip-rule:evenodd;fill:#C2D6FF;}
	.st62{fill-rule:evenodd;clip-rule:evenodd;fill:#C1D5FF;}
	.st63{fill-rule:evenodd;clip-rule:evenodd;fill:#C0D4FF;}
	.st64{fill-rule:evenodd;clip-rule:evenodd;fill:#BFD4FF;}
	.st65{fill-rule:evenodd;clip-rule:evenodd;fill:#BED3FF;}
	.st66{fill-rule:evenodd;clip-rule:evenodd;fill:#BDD2FF;}
	.st67{fill-rule:evenodd;clip-rule:evenodd;fill:#BCD2FF;}
	.st68{fill-rule:evenodd;clip-rule:evenodd;fill:#BBD1FF;}
	.st69{fill-rule:evenodd;clip-rule:evenodd;fill:#BAD0FF;}
	.st70{fill-rule:evenodd;clip-rule:evenodd;fill:#B9D0FF;}
	.st71{fill-rule:evenodd;clip-rule:evenodd;fill:#B8CFFF;}
	.st72{fill-rule:evenodd;clip-rule:evenodd;fill:#B7CEFF;}
	.st73{fill-rule:evenodd;clip-rule:evenodd;fill:#B6CDFF;}
	.st74{fill-rule:evenodd;clip-rule:evenodd;fill:#B5CDFF;}
	.st75{fill-rule:evenodd;clip-rule:evenodd;fill:#B4CCFF;}
	.st76{fill-rule:evenodd;clip-rule:evenodd;fill:#B3CBFF;}
	.st77{fill-rule:evenodd;clip-rule:evenodd;fill:#B2CBFF;}
	.st78{fill-rule:evenodd;clip-rule:evenodd;fill:#B1CAFF;}
	.st79{fill-rule:evenodd;clip-rule:evenodd;fill:#B0C9FF;}
	.st80{fill-rule:evenodd;clip-rule:evenodd;fill:#AFC9FF;}
	.st81{fill-rule:evenodd;clip-rule:evenodd;fill:#AEC8FF;}
	.st82{fill-rule:evenodd;clip-rule:evenodd;fill:#ADC7FF;}
	.st83{fill-rule:evenodd;clip-rule:evenodd;fill:#ACC7FF;}
	.st84{fill-rule:evenodd;clip-rule:evenodd;fill:#ABC6FF;}
	.st85{fill-rule:evenodd;clip-rule:evenodd;fill:#AAC5FF;}
	.st86{fill-rule:evenodd;clip-rule:evenodd;fill:#A9C5FF;}
	.st87{fill-rule:evenodd;clip-rule:evenodd;fill:#A8C4FF;}
	.st88{fill-rule:evenodd;clip-rule:evenodd;fill:#A7C3FF;}
	.st89{fill-rule:evenodd;clip-rule:evenodd;fill:#A6C3FF;}
	.st90{fill-rule:evenodd;clip-rule:evenodd;fill:#A5C2FF;}
	.st91{fill-rule:evenodd;clip-rule:evenodd;fill:#A4C1FF;}
	.st92{fill-rule:evenodd;clip-rule:evenodd;fill:#A3C1FF;}
	.st93{fill-rule:evenodd;clip-rule:evenodd;fill:#A2C0FF;}
	.st94{fill-rule:evenodd;clip-rule:evenodd;fill:#A1BFFF;}
	.st95{fill-rule:evenodd;clip-rule:evenodd;fill:#A0BFFF;}
	.st96{fill-rule:evenodd;clip-rule:evenodd;fill:#9FBEFF;}
	.st97{fill-rule:evenodd;clip-rule:evenodd;fill:#9EBDFF;}
	.st98{fill-rule:evenodd;clip-rule:evenodd;fill:#9DBDFF;}
	.st99{fill-rule:evenodd;clip-rule:evenodd;fill:#9CBCFF;}
	.st100{fill-rule:evenodd;clip-rule:evenodd;fill:#9BBBFF;}
	.st101{fill-rule:evenodd;clip-rule:evenodd;fill:#9ABAFF;}
	.st102{fill-rule:evenodd;clip-rule:evenodd;fill:#99BAFF;}
	.st103{fill-rule:evenodd;clip-rule:evenodd;fill:#98B9FF;}
	.st104{fill-rule:evenodd;clip-rule:evenodd;fill:#97B8FF;}
	.st105{fill-rule:evenodd;clip-rule:evenodd;fill:#96B8FF;}
	.st106{fill-rule:evenodd;clip-rule:evenodd;fill:#95B7FF;}
	.st107{fill-rule:evenodd;clip-rule:evenodd;fill:#94B6FF;}
	.st108{fill-rule:evenodd;clip-rule:evenodd;fill:#93B6FF;}
	.st109{fill-rule:evenodd;clip-rule:evenodd;fill:#92B5FF;}
	.st110{fill-rule:evenodd;clip-rule:evenodd;fill:#91B4FF;}
	.st111{fill-rule:evenodd;clip-rule:evenodd;fill:#90B4FF;}
	.st112{fill-rule:evenodd;clip-rule:evenodd;fill:#8FB3FF;}
	.st113{fill-rule:evenodd;clip-rule:evenodd;fill:#8EB2FF;}
	.st114{fill-rule:evenodd;clip-rule:evenodd;fill:#8DB2FF;}
	.st115{fill-rule:evenodd;clip-rule:evenodd;fill:#8CB1FF;}
	.st116{fill-rule:evenodd;clip-rule:evenodd;fill:#8BB0FF;}
	.st117{fill-rule:evenodd;clip-rule:evenodd;fill:#8AB0FF;}
	.st118{fill-rule:evenodd;clip-rule:evenodd;fill:#89AFFF;}
	.st119{fill-rule:evenodd;clip-rule:evenodd;fill:#88AEFF;}
	.st120{fill-rule:evenodd;clip-rule:evenodd;fill:#87AEFF;}
	.st121{fill-rule:evenodd;clip-rule:evenodd;fill:#86ADFF;}
	.st122{fill-rule:evenodd;clip-rule:evenodd;fill:#85ACFF;}
	.st123{fill-rule:evenodd;clip-rule:evenodd;fill:#84ACFF;}
	.st124{fill-rule:evenodd;clip-rule:evenodd;fill:#83ABFF;}
	.st125{fill-rule:evenodd;clip-rule:evenodd;fill:#82AAFF;}
	.st126{fill-rule:evenodd;clip-rule:evenodd;fill:#81AAFF;}
	.st127{fill-rule:evenodd;clip-rule:evenodd;fill:#80A9FF;}
	.st128{fill-rule:evenodd;clip-rule:evenodd;fill:#7FA8FF;}
	.st129{fill-rule:evenodd;clip-rule:evenodd;fill:#7EA7FF;}
	.st130{fill-rule:evenodd;clip-rule:evenodd;fill:#7DA7FF;}
	.st131{fill-rule:evenodd;clip-rule:evenodd;fill:#7CA6FF;}
	.st132{fill-rule:evenodd;clip-rule:evenodd;fill:#7BA5FF;}
	.st133{fill-rule:evenodd;clip-rule:evenodd;fill:#7AA5FF;}
	.st134{fill-rule:evenodd;clip-rule:evenodd;fill:#79A4FF;}
	.st135{fill-rule:evenodd;clip-rule:evenodd;fill:#78A3FF;}
	.st136{fill-rule:evenodd;clip-rule:evenodd;fill:#77A3FF;}
	.st137{fill-rule:evenodd;clip-rule:evenodd;fill:#76A2FF;}
	.st138{fill-rule:evenodd;clip-rule:evenodd;fill:#75A1FF;}
	.st139{fill-rule:evenodd;clip-rule:evenodd;fill:#74A1FF;}
	.st140{fill-rule:evenodd;clip-rule:evenodd;fill:#73A0FF;}
	.st141{fill-rule:evenodd;clip-rule:evenodd;fill:#729FFF;}
	.st142{fill-rule:evenodd;clip-rule:evenodd;fill:#719FFF;}
	.st143{fill-rule:evenodd;clip-rule:evenodd;fill:#709EFF;}
	.st144{fill-rule:evenodd;clip-rule:evenodd;fill:#6F9DFF;}
	.st145{fill-rule:evenodd;clip-rule:evenodd;fill:#6E9DFF;}
	.st146{fill-rule:evenodd;clip-rule:evenodd;fill:#6D9CFF;}
	.st147{fill-rule:evenodd;clip-rule:evenodd;fill:#6C9BFF;}
	.st148{fill-rule:evenodd;clip-rule:evenodd;fill:#6B9BFF;}
	.st149{fill-rule:evenodd;clip-rule:evenodd;fill:#6A9AFF;}
	.st150{fill-rule:evenodd;clip-rule:evenodd;fill:#6999FF;}
	.st151{fill-rule:evenodd;clip-rule:evenodd;fill:#6899FF;}
	.st152{fill-rule:evenodd;clip-rule:evenodd;fill:#6798FF;}
	.st153{fill-rule:evenodd;clip-rule:evenodd;fill:#6697FF;}
	.st154{fill-rule:evenodd;clip-rule:evenodd;fill:#6597FF;}
	.st155{fill-rule:evenodd;clip-rule:evenodd;fill:#6496FF;}
	.st156{fill-rule:evenodd;clip-rule:evenodd;fill:#6395FF;}
	.st157{fill-rule:evenodd;clip-rule:evenodd;fill:#6294FF;}
	.st158{fill-rule:evenodd;clip-rule:evenodd;fill:#6194FF;}
	.st159{fill-rule:evenodd;clip-rule:evenodd;fill:#6093FF;}
	.st160{fill-rule:evenodd;clip-rule:evenodd;fill:#5F92FF;}
	.st161{fill-rule:evenodd;clip-rule:evenodd;fill:#5E92FF;}
	.st162{fill-rule:evenodd;clip-rule:evenodd;fill:#5D91FF;}
	.st163{fill-rule:evenodd;clip-rule:evenodd;fill:#5C90FF;}
	.st164{fill-rule:evenodd;clip-rule:evenodd;fill:#5B90FF;}
	.st165{fill-rule:evenodd;clip-rule:evenodd;fill:#5A8FFF;}
	.st166{fill-rule:evenodd;clip-rule:evenodd;fill:#598EFF;}
	.st167{fill-rule:evenodd;clip-rule:evenodd;fill:#588EFF;}
	.st168{fill-rule:evenodd;clip-rule:evenodd;fill:#578DFF;}
	.st169{fill-rule:evenodd;clip-rule:evenodd;fill:#568CFF;}
	.st170{fill-rule:evenodd;clip-rule:evenodd;fill:#558CFF;}
	.st171{fill-rule:evenodd;clip-rule:evenodd;fill:#548BFF;}
	.st172{fill-rule:evenodd;clip-rule:evenodd;fill:#538AFF;}
	.st173{fill-rule:evenodd;clip-rule:evenodd;fill:#528AFF;}
	.st174{fill-rule:evenodd;clip-rule:evenodd;fill:#5189FF;}
	.st175{fill-rule:evenodd;clip-rule:evenodd;fill:#5088FF;}
	.st176{fill-rule:evenodd;clip-rule:evenodd;fill:#4F88FF;}
	.st177{fill-rule:evenodd;clip-rule:evenodd;fill:#4E87FF;}
	.st178{fill-rule:evenodd;clip-rule:evenodd;fill:#4D86FF;}
	.st179{fill-rule:evenodd;clip-rule:evenodd;fill:#4C86FF;}
	.st180{fill-rule:evenodd;clip-rule:evenodd;fill:#4B85FF;}
	.st181{fill-rule:evenodd;clip-rule:evenodd;fill:#4A84FF;}
	.st182{fill-rule:evenodd;clip-rule:evenodd;fill:#4984FF;}
	.st183{fill-rule:evenodd;clip-rule:evenodd;fill:#4883FF;}
	.st184{fill-rule:evenodd;clip-rule:evenodd;fill:#4782FF;}
	.st185{fill-rule:evenodd;clip-rule:evenodd;fill:#4681FF;}
	.st186{fill-rule:evenodd;clip-rule:evenodd;fill:#4581FF;}
	.st187{fill-rule:evenodd;clip-rule:evenodd;fill:#4480FF;}
	.st188{fill-rule:evenodd;clip-rule:evenodd;fill:#437FFF;}
	.st189{fill-rule:evenodd;clip-rule:evenodd;fill:#427FFF;}
	.st190{fill-rule:evenodd;clip-rule:evenodd;fill:#417EFF;}
	.st191{fill-rule:evenodd;clip-rule:evenodd;fill:#407DFF;}
	.st192{fill-rule:evenodd;clip-rule:evenodd;fill:#3F7DFF;}
	.st193{fill-rule:evenodd;clip-rule:evenodd;fill:#3E7CFF;}
	.st194{fill-rule:evenodd;clip-rule:evenodd;fill:#3D7BFF;}
	.st195{fill-rule:evenodd;clip-rule:evenodd;fill:#3C7BFF;}
	.st196{fill-rule:evenodd;clip-rule:evenodd;fill:#3B7AFF;}
	.st197{fill-rule:evenodd;clip-rule:evenodd;fill:#3A79FF;}
	.st198{fill-rule:evenodd;clip-rule:evenodd;fill:#3979FF;}
	.st199{fill-rule:evenodd;clip-rule:evenodd;fill:#3878FF;}
	.st200{fill-rule:evenodd;clip-rule:evenodd;fill:#3777FF;}
	.st201{fill-rule:evenodd;clip-rule:evenodd;fill:#3677FF;}
	.st202{fill-rule:evenodd;clip-rule:evenodd;fill:#3576FF;}
	.st203{fill-rule:evenodd;clip-rule:evenodd;fill:#3475FF;}
	.st204{fill-rule:evenodd;clip-rule:evenodd;fill:#3375FF;}
	.st205{fill-rule:evenodd;clip-rule:evenodd;fill:#3274FF;}
	.st206{fill-rule:evenodd;clip-rule:evenodd;fill:#3173FF;}
	.st207{fill-rule:evenodd;clip-rule:evenodd;fill:#3073FF;}
	.st208{fill-rule:evenodd;clip-rule:evenodd;fill:#2F72FF;}
	.st209{fill-rule:evenodd;clip-rule:evenodd;fill:#2E71FF;}
	.st210{fill-rule:evenodd;clip-rule:evenodd;fill:#2D71FF;}
	.st211{fill-rule:evenodd;clip-rule:evenodd;fill:#2C70FF;}
	.st212{fill-rule:evenodd;clip-rule:evenodd;fill:#2B6FFF;}
	.st213{fill-rule:evenodd;clip-rule:evenodd;fill:#2A6EFF;}
	.st214{fill-rule:evenodd;clip-rule:evenodd;fill:#296EFF;}
	.st215{fill-rule:evenodd;clip-rule:evenodd;fill:#286DFF;}
	.st216{fill-rule:evenodd;clip-rule:evenodd;fill:#276CFF;}
	.st217{fill-rule:evenodd;clip-rule:evenodd;fill:#266CFF;}
	.st218{fill-rule:evenodd;clip-rule:evenodd;fill:#256BFF;}
	.st219{fill-rule:evenodd;clip-rule:evenodd;fill:#246AFF;}
	.st220{fill-rule:evenodd;clip-rule:evenodd;fill:#236AFF;}
	.st221{fill-rule:evenodd;clip-rule:evenodd;fill:#2269FF;}
	.st222{fill-rule:evenodd;clip-rule:evenodd;fill:#2168FF;}
	.st223{fill-rule:evenodd;clip-rule:evenodd;fill:#2068FF;}
	.st224{fill-rule:evenodd;clip-rule:evenodd;fill:#1F67FF;}
	.st225{fill-rule:evenodd;clip-rule:evenodd;fill:#1E66FF;}
	.st226{fill-rule:evenodd;clip-rule:evenodd;fill:#1D66FF;}
	.st227{fill-rule:evenodd;clip-rule:evenodd;fill:#1C65FF;}
	.st228{fill-rule:evenodd;clip-rule:evenodd;fill:#1B64FF;}
	.st229{fill-rule:evenodd;clip-rule:evenodd;fill:#1A64FF;}
	.st230{fill-rule:evenodd;clip-rule:evenodd;fill:#1963FF;}
	.st231{fill-rule:evenodd;clip-rule:evenodd;fill:#1862FF;}
	.st232{fill-rule:evenodd;clip-rule:evenodd;fill:#1762FF;}
	.st233{fill-rule:evenodd;clip-rule:evenodd;fill:#1661FF;}
	.st234{fill-rule:evenodd;clip-rule:evenodd;fill:#1560FF;}
	.st235{fill-rule:evenodd;clip-rule:evenodd;fill:#1460FF;}
	.st236{fill-rule:evenodd;clip-rule:evenodd;fill:#135FFF;}
	.st237{fill-rule:evenodd;clip-rule:evenodd;fill:#125EFF;}
	.st238{fill-rule:evenodd;clip-rule:evenodd;fill:#115EFF;}
	.st239{fill-rule:evenodd;clip-rule:evenodd;fill:#105DFF;}
	.st240{fill-rule:evenodd;clip-rule:evenodd;fill:#0F5CFF;}
	.st241{fill-rule:evenodd;clip-rule:evenodd;fill:#0E5BFF;}
	.st242{fill-rule:evenodd;clip-rule:evenodd;fill:#0D5BFF;}
	.st243{fill-rule:evenodd;clip-rule:evenodd;fill:#0C5AFF;}
	.st244{fill-rule:evenodd;clip-rule:evenodd;fill:#0B59FF;}
	.st245{fill-rule:evenodd;clip-rule:evenodd;fill:#0A59FF;}
	.st246{fill-rule:evenodd;clip-rule:evenodd;fill:#0958FF;}
	.st247{fill-rule:evenodd;clip-rule:evenodd;fill:#0857FF;}
	.st248{fill-rule:evenodd;clip-rule:evenodd;fill:#0757FF;}
	.st249{fill-rule:evenodd;clip-rule:evenodd;fill:#0656FF;}
	.st250{fill-rule:evenodd;clip-rule:evenodd;fill:#0555FF;}
	.st251{fill-rule:evenodd;clip-rule:evenodd;fill:#0455FF;}
	.st252{fill-rule:evenodd;clip-rule:evenodd;fill:#0354FF;}
	.st253{fill-rule:evenodd;clip-rule:evenodd;fill:#0253FF;}
	.st254{fill-rule:evenodd;clip-rule:evenodd;fill:#0153FF;}
	.st255{fill-rule:evenodd;clip-rule:evenodd;fill:#0052FF;}
	.st256{fill-rule:evenodd;clip-rule:evenodd;fill:#FFFFFF;}
</style><g
     id="Layer_x0020_1"
     transform="translate(-663.68915,-758.65563)">
	
</g></svg>
