<svg width="56" height="56" viewBox="0 0 56 56" fill="none" xmlns="http://www.w3.org/2000/svg">
<g clip-path="url(#clip0_322_304)">
<path d="M49.084 46.4217C53.7988 41.0264 56.4545 33.8304 55.9354 26.1174C54.8951 10.6894 41.5456 -0.975796 26.1176 0.0645112C18.4046 0.583588 11.6308 4.18051 6.91602 9.57805L49.084 46.4239V46.4217Z" fill="#34C53A"/>
<path d="M11.1307 13.2547C11.1307 13.2547 11.1286 13.2569 11.1264 13.259L6.91351 9.57812C2.20089 14.9735 -0.454801 22.1674 0.0642764 29.8824C1.10458 45.3104 14.4541 56.9757 29.8821 55.9354C37.5972 55.4163 44.3689 51.8172 49.0837 46.4218L11.1307 13.2547Z" fill="#0D89EB"/>
<path d="M51.0992 26.4363C50.2398 13.6791 39.1992 4.03199 26.442 4.89137C20.0623 5.32214 14.4623 8.2966 10.5638 12.7572C6.66534 17.22 4.46842 23.1689 4.89919 29.5486C5.75857 42.3058 16.7992 51.9529 29.5564 51.0935C35.9361 50.6628 41.5361 47.6883 45.4346 43.2277C49.333 38.7649 51.53 32.816 51.0992 26.4363Z" fill="white"/>
<path d="M16.4902 17.9631V18.801V20.4745V21.3124H18.5838V20.4745H37.417V21.3124H39.5105V20.4745V17.9631H16.4902Z" fill="black"/>
<path d="M20.0488 26.2209V26.7529V29.2643V29.7791H22.1402V29.2643H34.0704V29.7791H36.1617V26.2209H34.0704V26.7529H22.1402V26.2209H20.0488Z" fill="black"/>
<path d="M39.5105 34.7051H37.417V35.5429H18.5838V34.7051H16.4902V35.5429V37.2165V38.0543H39.5105V35.5429V34.7051Z" fill="black"/>
</g>
<defs>
<clipPath id="clip0_322_304">
<rect width="56" height="56" fill="white"/>
</clipPath>
</defs>
</svg>
