<svg xmlns="http://www.w3.org/2000/svg" width="600" height="600" viewBox="0 0 600 600" fill="none">
    <path d="M300 600C465.685 600 600 465.685 600 300C600 134.315 465.685 0 300 0C134.315 0 0 134.315 0 300C0 465.685 134.315 600 300 600Z" fill="url(#paint0_radial_440_36)"/>
    <g transform="matrix(10,0,0,10,110,110)">
        <path d="M1.25524 22.84C1.25524 22.84 1.21965 22.5166 1.25524 22.0022C1.55777 17.5219 6.28253 14.7321 10.4616 16.4666C12.3064 17.2338 14.6525 18.6743 17.2833 21.3642C17.2833 21.3642 26.2019 30.5893 32.5312 27.2673C32.5312 27.2673 37.861 25.0037 36.8793 17.4249C36.031 10.8633 31.6503 5.20129 25.4634 2.71423C23.2923 1.84111 20.7475 1.27667 17.8883 1.42072C12.6386 1.68824 7.75364 4.30759 4.63049 8.49973C2.27849 11.66 0.273509 16.3784 1.25524 22.84Z" stroke="#595FEA" stroke-width="2" stroke-miterlimit="10"/>
        <path d="M17.2829 21.3642C17.2829 21.3642 10.7518 20.1266 8.53923 26.1561C7.43886 29.1547 8.87735 32.5178 11.1938 34.7315C11.9412 35.4458 12.8221 36.0691 13.8216 36.3983C13.8216 36.3983 4.32757 34.5521 1.25781 22.8371" stroke="#595FEA" stroke-width="2" stroke-miterlimit="10"/>
        <path d="M2.07617 13.2328C2.07617 13.2328 10.7338 5.96271 19.7888 16.3754C19.7888 16.3754 30.0599 27.8788 36.8787 17.4573" stroke="#595FEA" stroke-width="2" stroke-miterlimit="10"/>
        <path d="M6.59766 6.30966C6.59766 6.30966 15.8425 3.47571 22.1511 10.3254C23.0083 11.2544 23.99 12.0658 25.0666 12.7331C27.6263 14.3147 31.6956 15.6935 35.1983 11.8129" stroke="#595FEA" stroke-width="2" stroke-miterlimit="10"/>
        <path d="M9.95783 34.8197C9.95783 34.8197 1.26462 23.9131 11.6425 17.0251" stroke="#595FEA" stroke-width="2" stroke-miterlimit="10"/>
    </g>
    <defs>
        <radialGradient id="paint0_radial_440_36" cx="0" cy="0" r="1" gradientUnits="userSpaceOnUse" gradientTransform="translate(196 143.5) rotate(54.1675) scale(497.082)">
            <stop stop-color="white"/>
            <stop stop-color="#595FEA" offset="1"/>
        </radialGradient>
    </defs>
</svg>