<svg id="svg" version="1.1" xmlns="http://www.w3.org/2000/svg" style="display: block;" viewBox="0 0 414 414"><path d="M0 0 C136.62 0 273.24 0 414 0 C414 136.62 414 273.24 414 414 C277.38 414 140.76 414 0 414 C0 277.38 0 140.76 0 0 Z " transform="translate(0,0)" style="fill: #F9BF4A;"/><path d="M0 0 C136.62 0 273.24 0 414 0 C414 136.62 414 273.24 414 414 C277.38 414 140.76 414 0 414 C0 277.38 0 140.76 0 0 Z M172 33 C171.27844727 33.13921875 170.55689453 33.2784375 169.81347656 33.421875 C152.18116815 36.88264612 135.77143714 43.48718217 120 52 C118.97777344 52.54140625 117.95554687 53.0828125 116.90234375 53.640625 C105.77470402 59.81099858 95.69914953 67.80226681 86 76 C86.41421969 80.83256305 88.46413986 82.82679218 92 86 C90.63107063 89.09703328 89.07882641 91.11761608 86.625 93.4375 C83.83854727 96.13669429 81.34766619 98.90108063 79 102 C78.01 100.35 77.02 98.7 76 97 C70.32969726 97.50453747 66.21035485 99.06565214 61.203125 101.7109375 C60.48767517 102.0797403 59.77222534 102.44854309 59.03509521 102.82852173 C57.53338225 103.60538651 56.03424175 104.38724236 54.53759766 105.17382812 C52.24872421 106.37566989 49.95143159 107.56002371 47.65234375 108.7421875 C46.18957817 109.50159185 44.72732024 110.261975 43.265625 111.0234375 C42.23903778 111.55328751 42.23903778 111.55328751 41.19171143 112.09384155 C36.61190225 114.4411856 36.61190225 114.4411856 33 118 C32.8081264 120.50746015 32.8081264 120.50746015 34 123 C36.49984477 125.3346026 36.49984477 125.3346026 39.5625 127.3125 C40.57441406 128.00988281 41.58632813 128.70726562 42.62890625 129.42578125 C43.41136719 129.94527344 44.19382812 130.46476562 45 131 C44.55269531 132.09054688 44.10539062 133.18109375 43.64453125 134.3046875 C34.12174127 157.89235292 29.35577044 180.96775581 29.4375 206.4375 C29.43765106 207.34598694 29.43780212 208.25447388 29.43795776 209.19049072 C29.49066013 225.41607532 31.30630888 240.39147062 36 256 C36.41693115 257.40113037 36.41693115 257.40113037 36.84228516 258.83056641 C50.8553812 304.56399232 82.36899647 342.63542557 124.26611328 365.55200195 C149.59618573 378.97185355 178.00942849 386.18862223 206.63671875 386.18530273 C208.73198017 386.18748126 210.82670673 386.20567417 212.921875 386.22460938 C221.44447404 386.26112851 229.61131003 385.59393259 238 384 C239.41539062 383.74246948 239.41539062 383.74246948 240.859375 383.47973633 C260.56762238 379.76535625 278.36574555 373.49855534 296 364 C296.60682617 363.67918457 297.21365234 363.35836914 297.83886719 363.02783203 C309.68564325 356.73363288 319.96010407 348.87246617 330 340 C329.30621489 336.73988358 328.54106009 335.20961747 326 333 C327.58117437 329.26109044 329.89703399 326.67293837 332.6875 323.75 C333.93080078 322.41195312 333.93080078 322.41195312 335.19921875 321.046875 C338.77098528 318.43654633 340.63703569 318.97273147 345 319 C348.2619775 317.84587049 351.26027945 316.2454104 354.3125 314.625 C355.17391602 314.1810791 356.03533203 313.7371582 356.92285156 313.27978516 C365.71913488 308.71143429 374.38076376 303.89256164 383 299 C383.46092705 296.68309759 383.46092705 296.68309759 383 294 C380.59414208 291.64391863 380.59414208 291.64391863 377.5 289.6875 C376.4790625 288.99011719 375.458125 288.29273438 374.40625 287.57421875 C373.6121875 287.05472656 372.818125 286.53523438 372 286 C372.59257423 281.87865579 373.52159713 278.16271897 374.92578125 274.24609375 C375.31056641 273.14201172 375.69535156 272.03792969 376.09179688 270.90039062 C376.88593672 268.6475747 377.68762759 266.39740159 378.49804688 264.15039062 C384.62069671 246.45258189 386.74196748 228.90828844 386.5625 210.25 C386.55611008 208.81598343 386.55611008 208.81598343 386.54959106 207.35299683 C386.45510899 192.05885002 385.34631536 177.74710496 381 163 C380.74299316 162.0939502 380.48598633 161.18790039 380.22119141 160.25439453 C366.57600809 113.07003747 334.70720748 74.65526378 291.93310547 50.95825195 C255.35923459 31.35299985 212.72406441 24.73766249 172 33 Z " transform="translate(0,0)" style="fill: #FAB425;"/><path d="M0 0 C65.01 0 130.02 0 197 0 C197 0.33 197 0.66 197 1 C195.98353394 1.09704224 195.98353394 1.09704224 194.9465332 1.19604492 C179.62198443 2.70123836 164.83011626 4.80967231 150 9 C148.88915039 9.30647461 148.88915039 9.30647461 147.75585938 9.61914062 C108.91871527 20.59106923 72.95966748 45.49831617 48 77 C47.21753906 77.95390625 46.43507812 78.9078125 45.62890625 79.890625 C19.87451633 112.03210362 3.03505401 154.52214893 2.796875 195.92578125 C2.78981537 196.74692917 2.78275574 197.56807709 2.77548218 198.41410828 C2.5038009 222.87089517 2.5038009 222.87089517 6 247 C6.28206299 248.34843994 6.28206299 248.34843994 6.56982422 249.72412109 C14.18067227 285.84083442 30.88213609 318.72540125 55.9921875 345.78125 C57.39350678 347.32978959 58.73517893 348.93349309 60.02734375 350.57421875 C61.80230757 352.75689704 63.54583211 354.50308247 65.6875 356.3125 C67.80240946 358.11094491 69.8978811 359.90410786 71.921875 361.8046875 C90.08990893 378.77560292 112.86230246 391.2791521 136 400 C136.95302002 400.36448242 136.95302002 400.36448242 137.92529297 400.73632812 C145.79824415 403.70056075 153.81808906 405.78513739 162 407.6875 C162.86536377 407.89012451 163.73072754 408.09274902 164.62231445 408.30151367 C179.05120441 411.51493458 193.15258342 412.41009738 207.875 412.375 C208.77596405 412.37412384 209.6769281 412.37324768 210.60519409 412.37234497 C267.93633986 412.18900001 318.54346544 388.30046567 358.8125 348.19921875 C389.14213521 316.32665152 408.15535784 273.55024069 413 230 C413.33 230 413.66 230 414 230 C414 290.72 414 351.44 414 414 C277.38 414 140.76 414 0 414 C0 277.38 0 140.76 0 0 Z " transform="translate(0,0)" style="fill: #000000;"/><path d="M0 0 C64.35 0 128.7 0 195 0 C195 60.39 195 120.78 195 183 C194.67 183 194.34 183 194 183 C193.86537354 182.11985229 193.86537354 182.11985229 193.72802734 181.22192383 C185.22625866 126.69096544 158.98430316 75.42370061 113.77978516 42.28369141 C80.09285733 17.98659038 41.61980982 3.40913071 0 1 C0 0.67 0 0.34 0 0 Z " transform="translate(219,0)" style="fill: #000000;"/><path d="M0 0 C1.75752788 1.75752788 1.1660325 4.07967122 1.18994141 6.42407227 C1.18913574 7.21225342 1.18833008 8.00043457 1.1875 8.8125 C1.18669434 9.62968506 1.18588867 10.44687012 1.18505859 11.28881836 C1.11083839 19.22965206 0.65523035 27.14050345 0.125 35.0625 C0.04660889 36.30555908 -0.03178223 37.54861816 -0.11254883 38.8293457 C-0.23859497 40.57090942 -0.23859497 40.57090942 -0.3671875 42.34765625 C-0.44050293 43.38929932 -0.51381836 44.43094238 -0.58935547 45.50415039 C-1 48 -1 48 -3 50 C-7.99122527 50.61516502 -10.42585791 49.48853996 -14.375 46.5 C-15.24898437 45.8503125 -16.12296875 45.200625 -17.0234375 44.53125 C-17.67570312 44.0259375 -18.32796875 43.520625 -19 43 C-33.99398651 91.13858827 -36.57491654 139.17458857 -12.89306641 185.14892578 C-5.32958815 199.52972429 4.19575684 211.91868626 15 224 C15.71671875 224.80308594 16.4334375 225.60617187 17.171875 226.43359375 C42.89850701 253.60610237 83.60765317 272.21285325 121.11326599 273.26394653 C124.78430561 273.32700029 128.45354619 273.33093936 132.125 273.3125 C132.89790375 273.31034485 133.6708075 273.3081897 134.46713257 273.30596924 C146.21285142 273.25345507 157.53972797 272.78031711 169 270 C169.90024902 269.78537109 170.80049805 269.57074219 171.72802734 269.34960938 C182.23357225 266.78891587 192.3780694 264.02462226 202 259 C203.07894531 258.48824219 204.15789062 257.97648437 205.26953125 257.44921875 C217.05031214 251.79911987 227.83908992 245.08225648 237.9140625 236.7265625 C238.94660156 235.87191406 238.94660156 235.87191406 240 235 C241.00160156 234.11441406 241.00160156 234.11441406 242.0234375 233.2109375 C244 232 244 232 246.04296875 232.10546875 C248.38519907 233.17606904 249.63258703 234.36580184 251.3125 236.3125 C251.84488281 236.90675781 252.37726563 237.50101563 252.92578125 238.11328125 C254 240 254 240 253.98828125 241.94140625 C245.36555887 259.90257104 210.69479663 272.95700774 193.37109375 279.2109375 C185.79514963 281.81780315 178.05567348 283.75815953 170.24023438 285.49902344 C168.74887075 285.83253239 167.26045831 286.17952878 165.77539062 286.54003906 C155.14171584 289.07031312 144.52023799 289.23916594 133.625 289.25 C132.91923828 289.25100708 132.21347656 289.25201416 131.48632812 289.25305176 C119.77089704 289.24178692 108.47431072 288.46422855 97 286 C95.95900146 285.7831958 95.95900146 285.7831958 94.89697266 285.56201172 C78.30233623 282.01863109 62.92051779 276.01365624 48 268 C47.10933838 267.53255371 47.10933838 267.53255371 46.20068359 267.05566406 C30.82636175 258.95489231 17.29325826 248.22672359 5 236 C4.24275635 235.24879883 4.24275635 235.24879883 3.47021484 234.48242188 C-26.16307358 204.68741085 -46.30569016 160.19690034 -46.50875854 117.88870239 C-46.50161566 116.12261873 -46.4875433 114.35654954 -46.46655273 112.59057617 C-46.43746275 109.93409857 -46.44604217 107.27961831 -46.45898438 104.62304688 C-46.44111074 89.18644665 -44.67927678 74.06249538 -40.1875 59.25 C-39.93468262 58.38802002 -39.68186523 57.52604004 -39.42138672 56.63793945 C-37.09045932 48.89044232 -34.2150654 41.42201268 -31 34 C-31.78246094 33.48050781 -32.56492187 32.96101563 -33.37109375 32.42578125 C-34.38300781 31.72839844 -35.39492188 31.03101563 -36.4375 30.3125 C-37.44683594 29.62800781 -38.45617188 28.94351563 -39.49609375 28.23828125 C-42.25387196 25.77305986 -42.75270995 24.62057996 -43 21 C-39.07599357 17.62928225 -35.03275753 15.24667329 -30.46875 12.890625 C-29.75521362 12.51895203 -29.04167725 12.14727905 -28.30651855 11.76434326 C-26.8053009 10.98500221 -25.30254321 10.20862123 -23.79833984 9.43505859 C-21.50134216 8.25069204 -19.2135618 7.04971044 -16.92578125 5.84765625 C-15.46146936 5.09011687 -13.99664249 4.33357193 -12.53125 3.578125 C-11.85090698 3.21881897 -11.17056396 2.85951294 -10.46960449 2.48931885 C-6.86227279 0.65565017 -4.07413561 -0.55729306 0 0 Z " transform="translate(76,97)" style="fill: #FEFDFA;"/><path d="M0 0 C33.33984835 29.31863301 56.52774757 71.7978771 60.49383545 116.36499023 C60.86622147 122.72187426 60.87421691 129.07204021 60.8125 135.4375 C60.80561157 136.87542908 60.80561157 136.87542908 60.79858398 138.34240723 C60.65229688 160.61045183 56.34906728 179.68266064 48.921875 200.6328125 C47.64675002 204.28356842 46.69194486 207.76448168 46.25 211.625 C47.0440625 212.14449219 47.838125 212.66398437 48.65625 213.19921875 C49.6771875 213.89660156 50.698125 214.59398437 51.75 215.3125 C52.7709375 215.99699219 53.791875 216.68148438 54.84375 217.38671875 C57.25 219.625 57.25 219.625 57.40039062 222.26489258 C57.32594727 223.43314575 57.32594727 223.43314575 57.25 224.625 C36.33470272 236.17005901 36.33470272 236.17005901 26.1875 241.375 C25.55263672 241.70951172 24.91777344 242.04402344 24.26367188 242.38867188 C20.80009157 244.13738506 18.14366329 245.11081487 14.25 244.625 C12.39396089 242.76896089 13.07561594 239.7966595 13.0625 237.3125 C13.08086399 229.17338508 13.54571615 221.05816505 14.0625 212.9375 C14.13251221 211.70797607 14.20252441 210.47845215 14.2746582 209.21166992 C14.35546631 208.04482666 14.43627441 206.8779834 14.51953125 205.67578125 C14.58760986 204.63075439 14.65568848 203.58572754 14.72583008 202.5090332 C15.30623063 199.31561369 16.42680565 197.28496007 18.25 194.625 C22.31225548 195.20323096 25.09762346 196.51617737 28.5625 198.6875 C29.44550781 199.23535156 30.32851563 199.78320312 31.23828125 200.34765625 C31.90214844 200.76917969 32.56601562 201.19070313 33.25 201.625 C33.43175781 201.01914062 33.61351562 200.41328125 33.80078125 199.7890625 C34.05214844 198.95117188 34.30351562 198.11328125 34.5625 197.25 C34.83707031 196.33347656 35.11164063 195.41695312 35.39453125 194.47265625 C35.93068489 192.68792564 36.46935326 190.90394645 37.01171875 189.12109375 C38.87302785 182.98566747 40.61844462 176.82561069 42.25 170.625 C42.4365918 169.91972168 42.62318359 169.21444336 42.81542969 168.48779297 C52.60313339 129.268601 42.95940987 84.75948259 22.97070312 50.42773438 C6.57869428 23.68021918 -16.02935756 2.99402079 -43.75 -11.375 C-44.3471582 -11.68920898 -44.94431641 -12.00341797 -45.55957031 -12.32714844 C-83.20265991 -31.88986333 -127.41484668 -34.26310255 -167.75 -22.375 C-190.22270972 -15.16784309 -209.9468046 -4.24640893 -227.6640625 11.32421875 C-229.75 12.625 -229.75 12.625 -231.81640625 12.5390625 C-234.12692775 11.44681597 -235.39474774 10.24510622 -237.0625 8.3125 C-237.59488281 7.71824219 -238.12726563 7.12398437 -238.67578125 6.51171875 C-239.75 4.625 -239.75 4.625 -239.80078125 2.71484375 C-238.17383026 -0.52091379 -235.4596562 -2.36859675 -232.625 -4.5 C-231.99972412 -4.97864502 -231.37444824 -5.45729004 -230.73022461 -5.95043945 C-208.5784443 -22.70701589 -185.00559589 -34.42372006 -157.75 -40.375 C-156.93917969 -40.57609375 -156.12835938 -40.7771875 -155.29296875 -40.984375 C-153.11988479 -41.51655883 -150.94882971 -41.9617971 -148.75 -42.375 C-147.79609375 -42.560625 -146.8421875 -42.74625 -145.859375 -42.9375 C-93.47213677 -51.5491008 -39.91768274 -34.07193245 0 0 Z " transform="translate(325.75,74.375)" style="fill: #FEFDFB;"/><path d="M0 0 C46.0989011 0 46.0989011 0 58.9375 11.77734375 C70.03883668 23.47681279 70.45175774 36.57400246 70.28125 51.80859375 C70.08029267 58.53564032 69.13954999 63.96713924 66 70 C65.62617188 70.73734375 65.25234375 71.4746875 64.8671875 72.234375 C58.51217827 83.42929191 49.99587675 88.00137442 38 92 C25.46 92 12.92 92 0 92 C0 61.64 0 31.28 0 0 Z " transform="translate(78,169)" style="fill: #FEFEFD;"/><path d="M0 0 C5.94 0 11.88 0 18 0 C23.97711667 15.20918128 29.6951381 30.51109393 35.38757324 45.82836914 C37.34029196 51.08238173 39.29475366 56.33574517 41.25017929 61.58875084 C41.92038773 63.39004198 42.5896225 65.19169531 43.25881958 66.99336243 C45.80378499 73.83388934 48.40645749 80.64717389 51.08395386 87.4370575 C52 90 52 90 52 92 C45.4 92 38.8 92 32 92 C31.01 89.23625 30.02 86.4725 29 83.625 C28.68675781 82.75568848 28.37351563 81.88637695 28.05078125 80.99072266 C27.80714844 80.3054248 27.56351563 79.62012695 27.3125 78.9140625 C27.06113281 78.2123291 26.80976563 77.5105957 26.55078125 76.78759766 C26 75 26 75 26 73 C14.78 73 3.56 73 -8 73 C-8.99 76.96 -9.98 80.92 -11 85 C-11.99 87.31 -12.98 89.62 -14 92 C-20.6 92 -27.2 92 -34 92 C-33.06428838 88.25715351 -31.8652203 84.86361135 -30.4921875 81.26171875 C-27.87102363 74.34234568 -25.30214785 67.40501319 -22.7578125 60.45703125 C-22.38251404 59.43318329 -22.00721558 58.40933533 -21.62054443 57.35446167 C-20.06742263 53.11682194 -18.51517156 48.87886497 -16.96435547 44.64038086 C-12.86179164 33.43069282 -8.7367092 22.23106961 -4.4921875 11.07421875 C-3.98523849 9.7404998 -3.98523849 9.7404998 -3.4680481 8.37983704 C-1.12806274 2.25612547 -1.12806274 2.25612547 0 0 Z " transform="translate(183,169)" style="fill: #FEFEFC;"/><path d="M0 0 C5.61 0 11.22 0 17 0 C17 8.25 17 16.5 17 25 C24.59 25 32.18 25 40 25 C40 30.28 40 35.56 40 41 C32.41 41 24.82 41 17 41 C17 49.58 17 58.16 17 67 C11.39 67 5.78 67 0 67 C0 58.42 0 49.84 0 41 C-7.59 41 -15.18 41 -23 41 C-23 35.72 -23 30.44 -23 25 C-15.41 25 -7.82 25 0 25 C0 16.75 0 8.5 0 0 Z " transform="translate(304,185)" style="fill: #FEFEFC;"/><path d="M0 0 C19.45528455 0 19.45528455 0 24.703125 4.44140625 C31.591488 11.64743647 32.4945745 20.36489657 32.375 29.9375 C32.38660156 30.86240234 32.39820313 31.78730469 32.41015625 32.74023438 C32.37382062 41.38205764 30.88217871 50.3438504 25 57 C17.24405974 63.73730294 10.83483379 62 0 62 C0 41.54 0 21.08 0 0 Z " transform="translate(97,184)" style="fill: #F8D184;"/><path d="M0 0 C6.27 0 12.54 0 19 0 C19 30.36 19 60.72 19 92 C12.73 92 6.46 92 0 92 C0 61.64 0 31.28 0 0 Z " transform="translate(249,169)" style="fill: #FEFEFD;"/><path d="M0 0 C0.66 0 1.32 0 2 0 C3.43167734 4.33920078 4.85560443 8.68083956 6.27246094 13.02490234 C6.75537205 14.50183252 7.2403805 15.97807866 7.72753906 17.45361328 C8.42807895 19.57667804 9.12099814 21.7021019 9.8125 23.828125 C10.03123779 24.48556702 10.24997559 25.14300903 10.4753418 25.82037354 C11.53461388 29.10251849 12 31.49923368 12 35 C4.74 35 -2.52 35 -10 35 C-9.27547605 29.92833232 -8.49279465 25.95685126 -6.93359375 21.19140625 C-6.3293457 19.33032227 -6.3293457 19.33032227 -5.71289062 17.43164062 C-5.2878857 16.14188579 -4.86275394 14.85217275 -4.4375 13.5625 C-4.0079364 12.24561454 -3.57889516 10.92855858 -3.15039062 9.61132812 C-2.10537803 6.40584005 -1.05510089 3.20217873 0 0 Z " transform="translate(191,192)" style="fill: #FAB62D;"/><path d="M0 0 C3.8849238 1.24872551 5.28270263 3.62841175 7.1171875 7.16015625 C10.31085684 13.81598925 10.21187814 19.72551716 10 27 C7.8296858 24.29943641 6.37741813 21.83904159 5.17578125 18.59375 C4.86962891 17.76746094 4.56347656 16.94117188 4.24804688 16.08984375 C3.93931641 15.23519531 3.63058594 14.38054687 3.3125 13.5 C2.99216797 12.64535156 2.67183594 11.79070312 2.34179688 10.91015625 C0.89696683 6.96074876 0 4.27711478 0 0 Z " transform="translate(119,188)" style="fill: #FAB935;"/></svg>