<svg xmlns="http://www.w3.org/2000/svg" width="600" height="600" viewBox="0 0 600 600" fill="none">
    <path d="M300 600C465.685 600 600 465.685 600 300C600 134.315 465.685 0 300 0C134.315 0 0 134.315 0 300C0 465.685 134.315 600 300 600Z" fill="white"/>
    <path d="M300 600C465.685 600 600 465.685 600 300C600 134.315 465.685 0 300 0C134.315 0 0 134.315 0 300C0 465.685 134.315 600 300 600Z" fill="url(#paint0_radial_440_36)"/>
    <g transform="matrix(10,0,0,10,160,160)">
        <mask height="24" id="mask0_19312_176056" maskUnits="userSpaceOnUse" width="24" x="0" y="4">
        <path clip-rule="evenodd" d="M23.9902 15.5111C22.8003 16.1446 21.4421 16.5035 20 16.5035C15.3036 16.5035 11.4965 12.6964 11.4965 8C11.4965 6.55792 11.8554 5.19969 12.4889 4.00978C12.3267 4.00328 12.1637 4 12 4H0V28H24V16C24 15.8363 23.9967 15.6733 23.9902 15.5111Z" fill="#FEFFFF" fill-rule="evenodd"/>
        </mask>
        <g mask="url(#mask0_19312_176056)">
            <path d="M11.8146 10.1778C11.8134 10.1681 11.8134 10.1582 11.8146 10.1484V10.1394L11.8213 10.1214L11.8291 10.1123C11.8322 10.1076 11.8355 10.1031 11.8391 10.0988L11.8492 10.0909C11.8531 10.0871 11.8572 10.0837 11.8615 10.0807L14.9527 8.33342C14.9697 8.3235 14.989 8.31831 15.0086 8.31831C15.0283 8.31831 15.0475 8.3235 15.0645 8.33342C15.0814 8.34327 15.0955 8.35741 15.1053 8.37445C15.1151 8.39149 15.1203 8.41082 15.1204 8.43054V11.8562L16.9573 12.8942V6.62791C16.9585 6.46915 16.9166 6.31308 16.8362 6.17668C16.7558 6.04028 16.6399 5.92875 16.5012 5.85422C16.3724 5.78203 16.2275 5.74414 16.0802 5.74414C15.9329 5.74414 15.7881 5.78203 15.6593 5.85422L11.0331 8.47008C10.7104 8.65253 10.4418 8.91854 10.2547 9.24074C10.0677 9.56293 9.96893 9.92966 9.96875 10.3032V16.967L11.8056 15.9279L11.8146 10.1778Z" fill="#00C6A8" opacity="0.6"/>
            <path d="M20.2206 11.2417C20.238 11.2516 20.2525 11.2661 20.2625 11.2836C20.2725 11.301 20.2777 11.3209 20.2776 11.3411C20.2775 11.3611 20.2722 11.3808 20.2622 11.398C20.2522 11.4153 20.2378 11.4296 20.2206 11.4394L17.3038 13.0884L19.1361 14.123L22.6981 12.1091C22.8342 12.0338 22.9477 11.9226 23.0264 11.7874C23.1051 11.6522 23.1462 11.498 23.1452 11.3411C23.1464 11.1841 23.1054 11.0296 23.0267 10.8942C22.9479 10.7588 22.8344 10.6474 22.6981 10.572L18.0908 7.9674C17.8137 7.81058 17.5047 7.72018 17.1875 7.70312V9.5272L20.2206 11.2417Z" fill="#00C6A8"/>
            <path d="M6.88672 17.748V18.7204L9.75434 17.0996V10.3093C9.75422 9.89517 9.86335 9.48854 10.0705 9.1312C10.2776 8.77387 10.5752 8.47875 10.9327 8.27622L15.5589 5.66152C15.6772 5.59457 15.8069 5.55053 15.9412 5.53164L13.4325 4.11303C13.4075 4.0985 13.3817 4.0853 13.3554 4.07348C13.2319 4.01791 13.0973 3.99242 12.9623 3.99909C12.8273 4.00576 12.6959 4.04444 12.5784 4.11192L7.95213 6.72662C7.62929 6.9092 7.3604 7.17535 7.17315 7.49773C6.98589 7.82011 6.88704 8.18706 6.88672 8.56085V17.7457V17.748Z" fill="#00C6A8"/>
            <path d="M14.9637 12.0235L12.0391 10.3711V13.6036L18.0762 17.0168C18.4337 17.2194 18.7313 17.5145 18.9384 17.8718C19.1455 18.2292 19.2547 18.6358 19.2545 19.0499V24.2104C19.2544 24.3623 19.2236 24.5126 19.164 24.652L21.6862 23.2255C21.8191 23.1489 21.9295 23.0379 22.0059 22.9039C22.0824 22.7699 22.1221 22.6178 22.121 22.4632V17.3026C22.1211 16.9292 22.0226 16.5624 21.8357 16.2402C21.6489 15.918 21.3803 15.652 21.0578 15.4695L19.0868 14.3558L14.9637 12.0235Z" fill="#00C6A8"/>
            <path d="M17.1298 18.8152C17.1338 18.8179 17.1375 18.821 17.141 18.8242C17.1477 18.8286 17.1537 18.8339 17.1589 18.84L17.1701 18.857C17.1743 18.8629 17.1777 18.8694 17.1801 18.8762C17.1806 18.8841 17.1806 18.892 17.1801 18.8999C17.1806 18.9044 17.1806 18.909 17.1801 18.9135V22.408C17.18 22.4277 17.1748 22.4471 17.165 22.4641C17.1552 22.4812 17.1411 22.4953 17.1242 22.5052C17.1075 22.5159 17.0881 22.5214 17.0683 22.521C17.0491 22.5209 17.0303 22.5158 17.0136 22.5063L13.9771 20.7906L12.1459 21.8252L17.719 24.9764C17.8513 25.0524 18.0012 25.0917 18.1534 25.0901C18.3056 25.0885 18.4547 25.0461 18.5855 24.9674C18.7175 24.8905 18.8269 24.7797 18.9027 24.6462C18.9785 24.5126 19.018 24.3612 19.017 24.2072V19.0467C19.0168 18.6732 18.9181 18.3065 18.731 17.9843C18.544 17.6621 18.2753 17.3961 17.9527 17.2136L12.0273 13.8613V15.9351L17.1298 18.8152Z" fill="#00C6A8" opacity="0.6"/>
            <path d="M2.99878 8.75477C2.86958 8.68097 2.72341 8.64299 2.575 8.64458C2.42659 8.64617 2.28125 8.68727 2.15363 8.76381C2.02549 8.83895 1.91925 8.94695 1.84564 9.07684C1.77203 9.20674 1.73365 9.35397 1.73439 9.50365V14.6992C1.73473 15.0374 1.81563 15.3705 1.97026 15.6705L3.5712 14.7669V11.339C3.57101 11.3192 3.576 11.2997 3.58561 11.2825C3.59523 11.2653 3.60915 11.2508 3.62601 11.2407C3.643 11.2308 3.66228 11.2256 3.68191 11.2256C3.70153 11.2256 3.72081 11.2308 3.73781 11.2407L6.66132 12.8943V10.824L2.99878 8.75477Z" fill="#00C6A8" opacity="0.6"/>
            <path d="M6.92568 7.4805L6.08833 7.00726C5.95808 6.93259 5.81043 6.89439 5.66068 6.89657C5.51093 6.89876 5.36449 6.94123 5.23642 7.01967L2.74219 8.42924C2.87108 8.44825 2.99537 8.49115 3.10886 8.55575L6.66294 10.5639V8.56138C6.66267 8.18491 6.75283 7.81402 6.92568 7.4805Z" fill="#00C6A8"/>
            <path d="M22.8145 12.3062L19.3711 14.2523L21.1665 15.2688C21.4892 15.4516 21.7634 15.7105 21.9659 16.0233L22.7049 15.6053C22.8411 15.53 22.9545 15.4188 23.0333 15.2836C23.112 15.1484 23.153 14.9942 23.1521 14.8373V12.0137C23.0601 12.133 22.9453 12.2325 22.8145 12.3062Z" fill="#00C6A8" opacity="0.6"/>
            <path d="M9.97657 27.1191C9.97579 27.2727 10.0152 27.4238 10.0908 27.5571C10.1664 27.6903 10.2754 27.8011 10.407 27.8781C10.538 27.9568 10.6872 27.9991 10.8396 28.0007C10.992 28.0023 11.142 27.9631 11.2745 27.8871L13.9309 26.3849L15.9008 25.2724C16.1874 25.1098 16.4318 24.8811 16.6141 24.6049L15.0165 23.7013L11.98 25.4181H11.9722C11.9722 25.4181 11.9666 25.4181 11.9632 25.4181C11.9513 25.4235 11.9383 25.4262 11.9252 25.426C11.9118 25.4261 11.8985 25.4234 11.8861 25.4181H11.8771C11.8561 25.4086 11.8388 25.3924 11.828 25.3718C11.828 25.3718 11.828 25.3718 11.828 25.3661C11.8251 25.3592 11.8228 25.352 11.8212 25.3447C11.8202 25.3376 11.8202 25.3303 11.8212 25.3232C11.8212 25.3232 11.8212 25.3232 11.8212 25.3164V22.0195L9.98443 23.0575L9.97657 27.1191Z" fill="#00C6A8" opacity="0.6"/>
            <path d="M1.15217 17.9341L5.75938 20.5387C6.07022 20.7126 6.41972 20.8038 6.77506 20.8038C7.1304 20.8038 7.47991 20.7126 7.79075 20.5387L13.7597 17.1627L11.9284 16.127L6.83375 19.0071C6.82858 19.0103 6.82292 19.0126 6.81699 19.0139H6.80803C6.79838 19.015 6.78865 19.015 6.77899 19.0139C6.76971 19.015 6.76033 19.015 6.75104 19.0139H6.73985C6.73472 19.0123 6.72984 19.01 6.72533 19.0071L3.63635 17.2598C3.61909 17.25 3.60467 17.2358 3.59465 17.2185C3.58463 17.2012 3.57934 17.1816 3.57931 17.1616C3.57934 17.1416 3.58463 17.1219 3.59465 17.1046C3.60467 17.0874 3.61909 17.0731 3.63635 17.0633L6.66943 15.3488V13.2773L3.74701 14.9297L1.16222 16.3902C1.02603 16.4658 0.912628 16.5772 0.833916 16.7126C0.755205 16.8479 0.714109 17.0023 0.715021 17.1593C0.711864 17.3163 0.75084 17.4712 0.827802 17.6076C0.904765 17.7441 1.01686 17.8569 1.15217 17.9341Z" fill="#00C6A8"/>
            <path d="M11.8701 21.727L16.8485 18.9124L13.9864 17.2949L7.89905 20.7353C7.55533 20.9292 7.16805 21.0308 6.77435 21.0301C6.38067 21.0306 5.99343 20.9291 5.64965 20.7353L1.04244 18.1307C0.911836 18.0572 0.797657 17.9573 0.707046 17.8371V20.6608C0.706134 20.8178 0.747175 20.9721 0.825887 21.1075C0.904598 21.2429 1.01806 21.3542 1.15424 21.4299L5.76145 24.0344C6.07229 24.2084 6.42179 24.2996 6.77713 24.2996C7.13247 24.2996 7.48198 24.2084 7.79282 24.0344L11.8712 21.7281L11.8701 21.727Z" fill="#00C6A8" opacity="0.6"/>
            <path d="M9.75434 23.1816L7.89962 24.2298C7.58894 24.405 7.24216 24.5047 6.88672 24.5212V25.3705C6.88687 25.5273 6.92838 25.6812 7.00698 25.8164C7.08558 25.9516 7.19844 26.0632 7.33391 26.1397L9.84605 27.5594C9.78651 27.4203 9.75569 27.2705 9.75548 27.1189L9.75434 23.1816Z" fill="#00C6A8"/>
        </g>
        <circle cx="20" cy="8" fill="#00C6A8" r="8"/>
        <path d="M17.0234 12.1433V3.41602H20.2962C20.9666 3.41602 21.5291 3.53249 21.9837 3.76545C22.4411 3.9984 22.7862 4.32511 23.0192 4.74556C23.255 5.16317 23.3729 5.65039 23.3729 6.20721C23.3729 6.76687 23.2536 7.25266 23.0149 7.6646C22.7791 8.07369 22.4311 8.39045 21.9709 8.61488C21.5107 8.83647 20.9453 8.94727 20.2749 8.94727H17.9439V7.63477H20.0618C20.4538 7.63477 20.7749 7.58079 21.0249 7.47283C21.2749 7.36204 21.4595 7.20153 21.5788 6.9913C21.701 6.77823 21.7621 6.51687 21.7621 6.20721C21.7621 5.89755 21.701 5.63335 21.5788 5.4146C21.4567 5.193 21.2706 5.02539 21.0206 4.91175C20.7706 4.79528 20.4482 4.73704 20.0533 4.73704H18.6044V12.1433H17.0234ZM21.532 8.18874L23.6925 12.1433H21.9283L19.8061 8.18874H21.532Z" fill="#162826"/>
    </g>

    <defs>
        <radialGradient id="paint0_radial_440_36" cx="0" cy="0" r="1" gradientUnits="userSpaceOnUse" gradientTransform="translate(196 143.5) rotate(54.1675) scale(497.082)">
            <stop stop-color="white"/>
            <stop stop-color="#00C6A888" offset="1"/>
        </radialGradient>
    </defs>
</svg>