<svg width="85" height="85" viewBox="0 0 85 85" fill="none" xmlns="http://www.w3.org/2000/svg">
<circle cx="42.2494" cy="42.2494" r="42.2494" fill="#141414"/>
<path d="M72.25 52.9995V70.7995H56.85H48.95L33.45 50.7995L33.25 70.7995H12.25V52.8995L21.45 43.6995V43.5995H36.65L52.05 64.2995V43.5995H62.95V43.6995L72.25 52.9995Z" fill="url(#paint0_linear_13654_7277)"/>
<path d="M72.2492 13.6995V34.3995L62.95 43.6995V43.5995L42.4492 22.9995L51.6492 13.6995H72.2492Z" fill="url(#paint1_linear_13654_7277)"/>
<path d="M42.4492 22.9995L21.45 43.5995V43.6995L12.25 34.3995V13.6995H33.25L42.4492 22.9995Z" fill="url(#paint2_linear_13654_7277)"/>
<defs>
<linearGradient id="paint0_linear_13654_7277" x1="42.25" y1="77.5421" x2="42.25" y2="-37.7401" gradientUnits="userSpaceOnUse">
<stop stop-color="#6C92C2"/>
<stop offset="0.0146074" stop-color="#7095C5"/>
<stop offset="0.1195" stop-color="#87A9D4"/>
<stop offset="0.2393" stop-color="#99B8DF"/>
<stop offset="0.3834" stop-color="#A6C2E8"/>
<stop offset="0.5744" stop-color="#ADC8ED"/>
<stop offset="1" stop-color="#AFCAEE"/>
</linearGradient>
<linearGradient id="paint1_linear_13654_7277" x1="42.2701" y1="120.407" x2="42.2701" y2="15.7442" gradientUnits="userSpaceOnUse">
<stop stop-color="#6C92C2"/>
<stop offset="0.4213" stop-color="#90B0D9"/>
<stop offset="0.7766" stop-color="#A7C3E8"/>
<stop offset="1" stop-color="#AFCAEE"/>
</linearGradient>
<linearGradient id="paint2_linear_13654_7277" x1="42.1805" y1="118.21" x2="42.1805" y2="17.2084" gradientUnits="userSpaceOnUse">
<stop stop-color="#6C92C2"/>
<stop offset="0.3209" stop-color="#88AAD5"/>
<stop offset="0.7066" stop-color="#A4C1E7"/>
<stop offset="0.9299" stop-color="#AFCAEE"/>
</linearGradient>
</defs>
</svg>
