<svg width="32" height="32" viewBox="0 0 32 32" fill="none" xmlns="http://www.w3.org/2000/svg">
<g clip-path="url(#clip0_621_285292)">
<path d="M16 32C24.8366 32 32 24.8366 32 16C32 7.16344 24.8366 0 16 0C7.16344 0 0 7.16344 0 16C0 24.8366 7.16344 32 16 32Z" fill="#F5F0FD"/>
<path d="M15.7216 10.4624C15.3825 10.6564 15.1629 11.0363 15.1473 11.4559L15.1347 14.4877L15.0904 16.5273L15.0778 19.5591C15.0791 19.9494 14.8595 20.3293 14.5035 20.5526L12.4349 21.7755C12.0958 21.9696 11.6655 21.9942 11.3251 21.7979L9.31099 20.6364C8.97058 20.4402 8.75987 20.0849 8.77547 19.6653L8.81302 17.3102C8.81173 16.9198 9.03132 16.5399 9.38734 16.3166L11.4106 15.1066C11.7497 14.9125 12.18 14.8879 12.5204 15.0842L13.8254 15.8367L13.8412 13.7808L12.5363 13.0283C12.1959 12.832 11.7825 12.8274 11.4265 13.0507L7.64543 15.2732C7.3063 15.4673 7.0867 15.8472 7.07112 16.2667L7.00081 20.707C6.9852 21.1265 7.1959 21.4818 7.53632 21.6781L11.3092 23.8538C11.6496 24.0501 12.0631 24.0547 12.4191 23.8314L16.2339 21.5505C16.573 21.3564 16.7926 20.9765 16.8082 20.557L16.8492 17.5415L16.8651 15.4856L16.9061 12.4701C16.9049 12.0798 17.1244 11.6999 17.4804 11.4766L19.5037 10.2666C19.8429 10.0725 20.2731 10.0479 20.6136 10.2442L22.6277 11.4056C22.9681 11.6019 23.1788 11.9572 23.1632 12.3768L23.154 14.7483C23.1553 15.1386 22.9357 15.5185 22.5797 15.7418L20.5564 16.9518C20.2173 17.1459 19.787 17.1705 19.4466 16.9742L18.1417 16.2217L18.1258 18.2776L19.4307 19.0301C19.7711 19.2264 20.1845 19.231 20.5405 19.0077L24.3554 16.7268C24.6945 16.5327 24.9141 16.1528 24.9297 15.7333L25 11.293C24.9987 10.9027 24.8049 10.5182 24.4645 10.3219L20.6916 8.14622C20.3512 7.94993 19.9378 7.94532 19.5817 8.16859L15.7216 10.4624Z" fill="url(#paint0_linear_621_285292)"/>
</g>
<defs>
<linearGradient id="paint0_linear_621_285292" x1="25" y1="10.8571" x2="6.86485" y2="20.8988" gradientUnits="userSpaceOnUse">
<stop stop-color="#7B3FE4"/>
<stop offset="1" stop-color="#A726C1"/>
</linearGradient>
<clipPath id="clip0_621_285292">
<rect width="32" height="32" fill="white"/>
</clipPath>
</defs>
</svg>
