<svg width="32" height="32" viewBox="0 0 32 32" fill="none" xmlns="http://www.w3.org/2000/svg">
<path fill-rule="evenodd" clip-rule="evenodd" d="M32 16C32 13.9059 31.5834 11.8118 30.7821 9.87712C29.9808 7.9424 28.7946 6.16704 27.3136 4.6864C25.833 3.20544 24.0576 2.0192 22.1229 1.21792C20.1882 0.41664 18.0941 0 16 0C13.9059 0 11.8118 0.41664 9.87712 1.21792C7.9424 2.0192 6.16704 3.20544 4.6864 4.6864C3.20544 6.16704 2.0192 7.9424 1.21792 9.87712C0.41664 11.8118 0 13.9059 0 16C0 18.0941 0.41664 20.1882 1.21792 22.1229C2.0192 24.0576 3.20544 25.833 4.6864 27.3136C6.16704 28.7946 7.9424 29.9808 9.87712 30.7821C11.8118 31.5834 13.9059 32 16 32C18.0941 32 20.1882 31.5834 22.1229 30.7821C24.0576 29.9808 25.833 28.7946 27.3136 27.3136C28.7946 25.833 29.9808 24.0576 30.7821 22.1229C31.5834 20.1882 32 18.0941 32 16Z" fill="#E21212"/>
<path fill-rule="evenodd" clip-rule="evenodd" d="M12.8012 8H12.4472L12.2177 8.28477L6.42297 15.4751L6 16L6.42297 16.5248L12.2177 23.7152L12.4472 24H12.8012H23.2336H24V23.1904V18.6193H22.4673V22.3807H14.4772L19.2674 16.5296L19.701 16L19.2674 15.4704L14.4772 9.61927H22.4673V13.3807H24V8.80963V8H23.2336H12.8012ZM12.8057 10.0529L8.013 16L12.8057 21.947L17.6745 16L12.8057 10.0529Z" fill="white"/>
</svg>
