<?xml version="1.0" standalone="no"?>
<!DOCTYPE svg PUBLIC "-//W3C//DTD SVG 20010904//EN"
 "http://www.w3.org/TR/2001/REC-SVG-20010904/DTD/svg10.dtd">
<svg version="1.0" xmlns="http://www.w3.org/2000/svg"
 width="128.000000pt" height="128.000000pt" viewBox="0 0 128.000000 128.000000"
 preserveAspectRatio="xMidYMid meet">

<g transform="translate(0.000000,128.000000) scale(0.100000,-0.100000)"
fill="#000000" stroke="none">
<path d="M538 1270 c-134 -24 -283 -102 -363 -191 -250 -278 -223 -703 60
-932 145 -117 337 -169 505 -137 29 6 71 15 92 21 38 10 39 11 32 47 -3 20
-19 75 -35 122 -16 47 -32 93 -36 104 -5 16 -3 17 14 7 11 -5 24 -7 28 -3 5 4
5 1 1 -5 -4 -7 -3 -13 1 -13 13 0 34 -87 40 -168 7 -83 3 -82 92 -29 127 76
230 205 277 350 24 70 28 98 27 197 0 97 -4 128 -26 196 -46 140 -131 252
-254 334 -127 85 -314 126 -455 100z m294 -235 c38 -7 46 -19 67 -98 10 -39 8
-43 -29 -48 -8 -1 -28 4 -45 11 -16 7 -65 12 -109 12 -57 0 -75 3 -67 11 15
15 14 42 -1 68 -11 18 -10 23 12 40 25 21 71 22 172 4z m-22 -227 c0 -14 -8
-18 -33 -18 -31 0 -57 14 -57 32 0 4 13 8 29 8 17 0 33 5 37 11 8 14 24 -8 24
-33z m67 14 c11 -15 23 -37 27 -48 6 -19 2 -21 -39 -22 -31 0 -43 3 -39 11 5
9 3 9 -6 0 -17 -16 -5 -43 19 -43 11 0 23 -5 27 -12 5 -8 10 -6 15 8 7 16 8
15 8 -7 1 -25 -3 -27 -61 -36 l-63 -10 47 -2 c47 -1 80 -21 36 -21 -13 0 -29
-4 -37 -9 -11 -7 -6 -12 20 -18 43 -12 50 -38 13 -47 -31 -8 -80 9 -88 30 -3
8 -1 14 4 14 23 0 7 19 -35 41 -48 25 -57 41 -42 76 7 16 4 30 -12 57 -21 33
-21 35 -3 45 20 11 36 4 45 -21 3 -9 25 -22 49 -28 40 -11 44 -11 65 15 13 14
23 33 23 41 0 20 3 18 27 -14z m-397 -1 c0 -6 -5 -13 -11 -17 -7 -4 0 -17 17
-35 l28 -29 -27 13 c-28 13 -36 30 -29 60 4 18 22 24 22 8z m35 -94 c19 -4 19
-5 -1 -6 -12 0 -28 7 -35 17 -12 15 -12 16 1 6 8 -7 24 -14 35 -17z m208 -284
c2 -10 -2 -25 -9 -33 -18 -22 -47 -93 -35 -86 5 4 15 -2 20 -12 12 -23 54
-219 49 -233 -2 -5 -26 37 -55 94 l-51 103 29 92 c29 90 43 110 52 75z m217 7
c0 -5 -4 -10 -10 -10 -5 0 -10 5 -10 10 0 6 5 10 10 10 6 0 10 -4 10 -10z
m-141 -50 c1 -9 -5 -6 -15 8 -8 12 -12 27 -8 34 8 12 22 -13 23 -42z"/>
<path d="M705 770 c3 -6 20 -10 37 -10 38 0 34 5 -10 13 -21 4 -31 3 -27 -3z"/>
</g>
</svg>
