<svg width="32" height="32" viewBox="0 0 32 32" fill="none" xmlns="http://www.w3.org/2000/svg">
<g clip-path="url(#clip0_683_162445)">
<path d="M7.99902 16C12.417 16.0002 15.9988 19.582 15.999 24V32H-0.000976562L-0.00195312 24C-0.00174357 19.5819 3.58086 16 7.99902 16ZM31.999 32H23.999C19.5807 32 15.999 28.4183 15.999 24C15.9992 19.5819 19.5809 16 23.999 16H31.999V32ZM7.99902 0C12.4171 0.000246866 15.999 3.58188 15.999 8C15.999 12.4181 12.4171 15.9998 7.99902 16H-0.000976562V0H7.99902ZM31.999 8C31.999 12.4183 28.4173 15.9999 23.999 16C19.5807 16 15.999 12.4183 15.999 8V0H31.999V8Z" fill="#4AC6FF"/>
</g>
<defs>
<clipPath id="clip0_683_162445">
<rect width="32" height="32" rx="16" fill="white"/>
</clipPath>
</defs>
</svg>
