<svg width="32" height="32" viewBox="0 0 32 32" fill="none" xmlns="http://www.w3.org/2000/svg">
<rect width="32" height="32" rx="16" fill="white"/>
<path d="M15.8875 7.69226L7 13.0329V18.3736L15.8875 13.0329V7.69226Z" fill="#BDBDBF"/>
<path d="M15.8877 7.69226L25.0002 13.0329V18.3736L15.8877 13.0329V7.69226Z" fill="#99999E"/>
<path d="M15.8875 24.3075L7 19.0209V13.7341L15.8875 19.0209V24.3075Z" fill="#68686D"/>
<path d="M15.8877 24.3075L25.0002 19.0209V13.7341L15.8877 19.0209V24.3075Z" fill="black"/>
<path fill-rule="evenodd" clip-rule="evenodd" d="M11.8545 3.38369C13.345 2.89377 14.938 2.66977 16.5159 2.73025C18.0941 2.79073 19.6577 3.13601 21.1127 3.74401C22.5681 4.35201 23.9149 5.22305 25.0673 6.29761C26.5914 7.71937 27.7748 9.49761 28.4845 11.4867C29.1946 13.4762 29.4311 15.6765 29.1572 17.7712C28.8836 19.8659 28.0996 21.8554 26.9137 23.5661C25.7277 25.2768 24.1396 26.7085 22.2743 27.7005C20.409 28.6922 18.266 29.2438 16.1537 29.2758C14.0413 29.3078 11.9594 28.8205 10.0948 27.895C8.23047 26.9696 6.58311 25.6064 5.33223 23.9037C4.08135 22.201 3.22695 20.1587 2.88775 18.0749C2.54855 15.9907 2.72455 13.8646 3.37447 11.8813C3.86567 10.3818 4.62791 8.96417 5.60455 7.73569H4.12007V5.28193H9.93671V10.7136H7.48295V9.22945C6.68295 10.2355 6.05831 11.3968 5.65607 12.6256C5.12391 14.2512 4.98055 15.9952 5.25607 17.697C5.59847 19.8138 6.58855 21.865 8.06631 23.4458C9.83399 25.3363 12.2993 26.5542 14.8657 26.8208C17.4317 27.0874 20.0989 26.4029 22.217 24.9286C24.3351 23.4544 25.9047 21.1904 26.5418 18.6899C27.1789 16.1894 26.8836 13.4525 25.7348 11.1421C24.586 8.83169 22.5834 6.94849 20.1889 5.95905C17.7943 4.96929 15.0074 4.87393 12.6036 5.66369L11.8545 3.38369Z" fill="url(#paint0_linear_327_466929)"/>
<defs>
<linearGradient id="paint0_linear_327_466929" x1="2.04317" y1="13.2971" x2="15.2219" y2="29.5764" gradientUnits="userSpaceOnUse">
<stop stop-color="#FF1100"/>
<stop offset="0.34375" stop-color="#FDBF41"/>
<stop offset="0.692708" stop-color="#F1ECE2"/>
<stop offset="1" stop-color="#007FFF"/>
</linearGradient>
</defs>
</svg>
