<?xml version="1.0" encoding="UTF-8" standalone="no"?>
<!DOCTYPE svg PUBLIC "-//W3C//DTD SVG 1.1//EN" "http://www.w3.org/Graphics/SVG/1.1/DTD/svg11.dtd">
<svg width="100%" height="100%" viewBox="0 0 24 24" version="1.1" xmlns="http://www.w3.org/2000/svg" xmlns:xlink="http://www.w3.org/1999/xlink" xml:space="preserve" xmlns:serif="http://www.serif.com/" style="fill-rule:evenodd;clip-rule:evenodd;stroke-linejoin:round;stroke-miterlimit:2;">
<g clip-path="url(#clip0_620_100732)">
<path fill-rule="evenodd" clip-rule="evenodd" d="M1.06982 0L6.12248 0V1.34489C6.12248 2.0805 6.14477 2.67492 6.18192 2.66006C7.34849 2.07306 8.21785 1.67926 8.68596 1.52322C10.5658 0.913932 13.0699 0.87678 14.9795 1.44149C16.8222 1.97647 18.2637 2.83839 19.6458 4.22786C21.5479 6.13003 22.6476 8.49288 22.878 11.1604L22.93 11.7399L18.3009 11.7399L18.4198 11.517C18.5832 11.205 18.5609 11.0043 18.3454 10.9077C18.1151 10.8037 17.8476 10.9077 17.2383 11.361C15.7374 12.4681 15.0389 12.795 15.0389 12.3864C15.0389 12.1783 15.0909 12.104 16.1906 10.7368C17.2309 9.43653 17.3795 9.23591 17.4315 9.013C17.4835 8.82724 17.3126 8.54489 17.1492 8.54489C16.8222 8.54489 16.2204 9.00557 14.9275 10.2316C14.4817 10.6625 14.0358 11.0638 13.9467 11.1232C13.7683 11.2421 13.6272 11.1975 13.6272 11.0341C13.6272 10.9375 14.5782 9.33251 15.1355 8.50774C15.8934 7.3709 16.0643 6.9548 15.8786 6.69474C15.6036 6.30093 15.0909 6.613 14.2736 7.67554C12.208 10.343 12.1634 10.395 11.985 10.2836C11.8587 10.2093 11.9182 10.031 12.52 8.67121C13.5529 6.33808 13.6643 5.78823 13.1293 5.73622C12.8395 5.7065 12.7801 5.7808 11.7993 7.39319C10.12 10.1647 9.74107 10.6848 9.34726 10.8037C9.15407 10.8632 9.07234 10.7666 8.9163 10.2836C8.61909 9.36966 7.88348 8.47059 7.43023 8.47059C6.96954 8.47059 6.93239 8.65635 7.17016 9.73375C7.38564 10.7071 7.46738 11.3461 7.41537 11.5616L7.37078 11.7399L1.06982 11.7399L1.06982 0ZM2.97943 13.2111C3.98996 13.1963 5.42402 13.1963 6.15963 13.2111C7.69772 13.2334 7.68286 13.226 7.68286 13.8947C7.68286 15.2396 8.55221 16.5548 9.82281 17.1492C10.3281 17.3796 10.4841 17.4167 11.1454 17.4464C12.0742 17.491 12.4977 17.3647 13.0996 16.8817C13.6495 16.4359 13.9021 16.1536 14.5114 15.3065C14.9943 14.6378 15.7225 13.8799 16.317 13.4266C16.6142 13.1963 16.3764 13.2037 21.0055 13.2186L22.9151 13.226L22.9003 18.5907L22.878 23.9628L20.3739 23.9851L17.8625 24V22.5882C17.8625 21.8155 17.8476 21.1765 17.8328 21.1765C17.8179 21.1765 17.5727 21.3102 17.2978 21.4737C15.5739 22.4842 13.1219 23.0043 11.0265 22.8111C8.02466 22.5362 5.34972 21.0947 3.4847 18.7467C2.28841 17.2384 1.44134 15.3288 1.18871 13.5827L1.1367 13.226L2.97943 13.2111Z" fill="#F2A900"/>
</g>
<defs>
<clipPath id="clip0_620_100732">
<rect width="24" height="24" fill="white"/>
</clipPath>
</defs>
</svg>