<svg width="480" height="480" viewBox="0 0 480 480" fill="none" xmlns="http://www.w3.org/2000/svg"><mask id="mask0-903349" maskUnits="userSpaceOnUse" x="0" y="0" width="480" height="480"><circle cx="240" cy="240" r="240" fill="url(#paint0_linear-392836)"/></mask><g mask="url(#mask0-903349)"><circle cx="240" cy="240" r="240" fill="#31D8A4"/><circle cx="240" cy="240" r="208" fill="#fff"/></g><circle cx="240" cy="240" r="184" fill="#0E052F"/><path d="M264 326.8c-9.6 0-18.48-1.36-26.64-4.08-8.16-2.88-15.44-6.96-21.84-12.24-6.24-5.28-11.52-11.6-15.84-18.96-4.16-7.52-7.12-15.84-8.88-24.96H168v-17.52h20.88c-.16-1.12-.24-2.32-.24-3.6v-9.12c.16-1.76.24-3.2.24-4.32H168v-17.52h22.56c1.76-9.44 4.8-17.92 9.12-25.44 4.48-7.52 9.92-13.84 16.32-18.96 6.56-5.28 14-9.28 22.32-12 8.32-2.72 17.28-4.08 26.88-4.08 11.04 0 20.24 1.44 27.6 4.32 7.36 2.88 13.6 6.48 18.72 10.8l-12 23.04c-5.44-4.16-10.88-7.04-16.32-8.64-5.28-1.6-11.2-2.4-17.76-2.4-11.68 0-21.44 2.88-29.28 8.64-7.84 5.76-12.88 14-15.12 24.72h69.84l-8.4 17.52h-63.36c0 1.44-.08 2.88-.24 4.32v8.4c.16 1.44.24 2.88.24 4.32h58.56l-8.4 17.52h-48.24c2.24 10.56 7.2 18.72 14.88 24.48 7.84 5.76 17.52 8.64 29.04 8.64 7.2 0 13.44-.88 18.72-2.64 5.44-1.92 10.08-4.32 13.92-7.2l13.92 21.84c-5.76 4.96-12.56 8.72-20.4 11.28-7.68 2.56-16.72 3.84-27.12 3.84z" fill="#fff"/><defs><linearGradient id="paint0_linear-392836" x1="240" y1="0" x2="240" y2="701.818" gradientUnits="userSpaceOnUse"><stop stop-color="#08021E"/><stop offset="1" stop-color="#1F0777"/></linearGradient></defs></svg>