<svg width="240" height="240" viewBox="0 0 240 240" fill="none" xmlns="http://www.w3.org/2000/svg">
<g clip-path="url(#clip0_6_641)">
<path d="M240 120C240 186.274 186.274 240 120 240C53.7258 240 0 186.274 0 120C0 53.7258 53.7258 0 120 0C186.274 0 240 53.7258 240 120Z" fill="black"/>
<path d="M68.4157 156.567C74.2598 154.392 98.7112 131.085 110.206 119.702C89.2766 96.5986 55.2778 67.039 40.8945 55.1472C42.1177 61.6707 79.4578 101.582 97.9749 120.722C88.1898 129.692 74.1916 148.356 68.4157 156.567Z" fill="#4AB1C0"/>
<path d="M171.718 83.3475C165.874 85.522 141.423 108.83 129.927 120.212C150.857 143.316 184.856 172.875 199.239 184.767C198.016 178.244 160.676 138.333 142.159 119.193C151.944 110.223 165.942 91.5584 171.718 83.3475Z" fill="#4AB1C0"/>
<path d="M83.4573 68.306C85.6318 74.1502 108.94 98.6015 120.322 110.097C143.426 89.167 172.985 55.1681 184.877 40.7849C178.353 42.0081 138.442 79.3482 119.302 97.8653C110.333 88.0802 91.6683 74.082 83.4573 68.306Z" fill="#4AB1C0"/>
<path d="M156.676 171.608C154.502 165.764 131.194 141.313 119.812 129.818C96.7082 150.747 67.1486 184.746 55.2568 199.129C61.7803 197.906 101.691 160.566 120.831 142.049C129.801 151.834 148.466 165.832 156.676 171.608Z" fill="#4AB1C0"/>
</g>
<defs>
<clipPath id="clip0_6_641">
<rect width="240" height="240" fill="white"/>
</clipPath>
</defs>
</svg>
