<svg width="40" height="40" viewBox="0 0 40 40" fill="none" xmlns="http://www.w3.org/2000/svg">
    <rect height="40" width="40" x="0" y="0" fill="black"/>
    <path d="M29.5617 26.5352H11.25V28.9247H29.5617V26.5352Z" fill="white"/>
    <path d="M29.5617 10H11.25V12.3896H29.5617V10Z" fill="white"/>
    <path d="M29.5617 13.2441H11.25V14.6048H29.5617V13.2441Z" fill="white"/>
    <path d="M29.5617 24.3652H11.25V25.7259H29.5617V24.3652Z" fill="white"/>
    <path d="M14.1677 15.4277H11.25V23.529H14.1677V15.4277Z" fill="white"/>
    <path d="M18.0158 15.4277H15.0981V23.529H18.0158V15.4277Z" fill="white"/>
    <path d="M21.8649 15.4277H18.9473V23.529H21.8649V15.4277Z" fill="white"/>
    <path d="M25.7131 15.4277H22.7954V23.529H25.7131V15.4277Z" fill="white"/>
    <path d="M29.5622 15.4277H26.6445V23.529H29.5622V15.4277Z" fill="white"/>
</svg>

