<svg viewBox="0 0 16 16" fill="none" xmlns="http://www.w3.org/2000/svg">
    <rect x="11" y="2" width="2" height="2" transform="rotate(90 11 2)" fill="currentColor" />
    <rect x="8" y="6" width="2" height="2" transform="rotate(90 8 6)" fill="currentColor" />
    <rect x="9" y="4" width="2" height="2" transform="rotate(90 9 4)" fill="currentColor" />
    <rect x="10" y="4" width="2" height="2" transform="rotate(90 10 4)" fill="currentColor" />
    <rect x="6" y="7" width="2" height="2" transform="rotate(90 6 7)" fill="currentColor" />
    <rect width="2" height="2" transform="matrix(4.37114e-08 -1 -1 -4.37114e-08 11 14)" fill="currentColor" />
    <rect width="2" height="2" transform="matrix(4.37114e-08 -1 -1 -4.37114e-08 8 10)" fill="currentColor" />
    <rect width="2" height="2" transform="matrix(4.37114e-08 -1 -1 -4.37114e-08 9 12)" fill="currentColor" />
    <rect width="2" height="2" transform="matrix(4.37114e-08 -1 -1 -4.37114e-08 10 12)" fill="currentColor" />
</svg>