<svg viewBox="0 0 16 16" fill="none" xmlns="http://www.w3.org/2000/svg">
    <rect width="10" height="2" transform="matrix(-1 0 0 1 13 12)" fill="currentColor" />
    <rect x="2" y="11" width="2" height="2" fill="currentColor" />
    <rect width="2" height="2" transform="matrix(-1 0 0 1 14 11)" fill="currentColor" />
    <rect x="5" y="7" width="2" height="2" fill="currentColor" />
    <rect x="4" y="6" width="2" height="2" fill="currentColor" />
    <rect x="7" y="8" width="2" height="2" fill="currentColor" />
    <rect x="7" y="6" width="2" height="2" fill="currentColor" />
    <rect x="7" y="4" width="2" height="2" fill="currentColor" />
    <rect x="7" y="2" width="2" height="2" fill="currentColor" />
    <rect width="2" height="2" transform="matrix(-1 0 0 1 11 7)" fill="currentColor" />
    <rect width="2" height="2" transform="matrix(-1 0 0 1 12 6)" fill="currentColor" />
</svg>