<svg viewBox="0 0 24 24" fill="none" xmlns="http://www.w3.org/2000/svg">
<rect width="3.69231" height="3.69231" transform="matrix(1 0 0 -1 8.38464 6.69238)" fill="#EBEBEB"/>
<rect width="3.69231" height="3.69231" transform="matrix(1 0 0 -1 1 11.001)" fill="#EBEBEB"/>
<rect width="3.69231" height="3.69231" transform="matrix(1 0 0 -1 3.46155 8.53906)" fill="#EBEBEB"/>
<rect width="3.69231" height="3.69231" transform="matrix(1 0 0 -1 5.9231 7.30859)" fill="#EBEBEB"/>
<rect width="3.69231" height="3.69231" transform="matrix(1 0 0 -1 14.5385 7.30859)" fill="#EBEBEB"/>
<rect width="3.69231" height="3.69231" transform="matrix(1 0 0 -1 17 8.53906)" fill="#EBEBEB"/>
<rect width="3.69231" height="3.69231" transform="matrix(1 0 0 -1 1 12.8467)" fill="#EBEBEB"/>
<rect x="15.7693" y="6.69238" width="3.69231" height="3.69231" transform="rotate(-180 15.7693 6.69238)" fill="#EBEBEB"/>
<rect x="23.1538" y="11.001" width="3.69231" height="3.69231" transform="rotate(-180 23.1538 11.001)" fill="#EBEBEB"/>
<rect x="23.1538" y="12.8467" width="3.69231" height="3.69231" transform="rotate(-180 23.1538 12.8467)" fill="#EBEBEB"/>
</svg>
