<svg viewBox="0 0 24 24" fill="none" xmlns="http://www.w3.org/2000/svg">
    <rect x="6" y="4.5" width="3" height="3" fill="currentColor" />
    <rect x="6" y="7.5" width="3" height="3" fill="currentColor" />
    <rect x="7.5" y="6" width="3" height="3" fill="currentColor" />
    <rect x="4.5" y="6" width="3" height="3" fill="currentColor" />
    <rect x="6" y="13.5" width="3" height="3" fill="currentColor" />
    <rect x="6" y="16.5" width="3" height="3" fill="currentColor" />
    <rect x="7.5" y="15" width="3" height="3" fill="currentColor" />
    <rect x="4.5" y="15" width="3" height="3" fill="currentColor" />
    <rect x="15" y="4.5" width="3" height="3" fill="currentColor" />
    <rect x="15" y="7.5" width="3" height="3" fill="currentColor" />
    <rect x="16.5" y="6" width="3" height="3" fill="currentColor" />
    <rect x="13.5" y="6" width="3" height="3" fill="currentColor" />
    <rect x="15" y="13.5" width="3" height="3" fill="currentColor" />
    <rect x="15" y="16.5" width="3" height="3" fill="currentColor" />
    <rect x="16.5" y="15" width="3" height="3" fill="currentColor" />
    <rect x="13.5" y="15" width="3" height="3" fill="currentColor" />
</svg>