<svg viewBox="0 0 16 16" fill="none" xmlns="http://www.w3.org/2000/svg">
    <g opacity="0.2">
        <rect x="2" y="10" width="2" height="2" fill="currentColor" />
        <rect x="6" y="13" width="2" height="2" fill="currentColor" />
        <rect x="4" y="12" width="2" height="2" fill="currentColor" />
        <rect x="4" y="11" width="2" height="2" fill="currentColor" />
        <rect x="7" y="14" width="2" height="2" fill="currentColor" />
        <rect width="2" height="2" transform="matrix(-1 0 0 1 14 10)" fill="currentColor" />
        <rect width="2" height="2" transform="matrix(-1 0 0 1 10 13)" fill="currentColor" />
        <rect width="2" height="2" transform="matrix(-1 0 0 1 12 12)" fill="currentColor" />
        <rect width="2" height="2" transform="matrix(-1 0 0 1 12 11)" fill="currentColor" />
        <rect width="2" height="2" transform="matrix(1 0 0 -1 2 6)" fill="currentColor" />
        <rect width="2" height="2" transform="matrix(1 0 0 -1 6 3)" fill="currentColor" />
        <rect width="2" height="2" transform="matrix(1 0 0 -1 4 4)" fill="currentColor" />
        <rect width="2" height="2" transform="matrix(1 0 0 -1 4 5)" fill="currentColor" />
        <rect width="2" height="2" transform="matrix(1 0 0 -1 7 2)" fill="currentColor" />
        <rect x="14" y="6" width="2" height="2" transform="rotate(180 14 6)" fill="currentColor" />
        <rect x="10" y="3" width="2" height="2" transform="rotate(180 10 3)" fill="currentColor" />
        <rect x="12" y="4" width="2" height="2" transform="rotate(180 12 4)" fill="currentColor" />
        <rect x="12" y="5" width="2" height="2" transform="rotate(180 12 5)" fill="currentColor" />
    </g>
</svg>