<?xml version="1.0" encoding="UTF-8"?>
<svg version="1.1" xmlns="http://www.w3.org/2000/svg" width="1000" height="1000">
<path d="M0 0 C1.2450531 -0.00705963 2.4901062 -0.01411926 3.77288818 -0.02139282 C7.76918293 -0.03890542 11.76539361 -0.0460851 15.76171875 -0.046875 C16.78488253 -0.04731686 16.78488253 -0.04731686 17.82871628 -0.04776764 C38.84179306 -0.04923297 59.60662345 0.22105513 80.44921875 3.203125 C81.1508313 3.30258423 81.85244385 3.40204346 82.57531738 3.5045166 C114.25056942 8.0270629 145.07014492 15.06522869 175.44921875 25.203125 C176.52510254 25.56132324 177.60098633 25.91952148 178.70947266 26.28857422 C219.94777088 40.18733739 259.77625433 60.2277879 295.44921875 85.203125 C296.02881348 85.60692383 296.6084082 86.01072266 297.20556641 86.42675781 C309.70234751 95.15240144 321.75514167 104.42610973 333.44921875 114.203125 C333.97064453 114.63818359 334.49207031 115.07324219 335.02929688 115.52148438 C351.82192576 129.57812414 368.65949506 144.55673091 382.828125 161.3046875 C384.73015525 163.53212533 386.71529595 165.67335471 388.69921875 167.828125 C393.7300462 173.41039222 398.32310223 179.28614955 402.91308594 185.22998047 C404.51533648 187.28805244 406.14007464 189.32669582 407.76953125 191.36328125 C429.07978178 218.12743978 446.17295278 247.66049984 461.44921875 278.203125 C461.87396484 279.0394043 462.29871094 279.87568359 462.73632812 280.73730469 C492.59214036 339.67377825 509.40127122 409.72929939 509.65234375 475.75390625 C509.65940338 476.99895935 509.66646301 478.24401245 509.67373657 479.52679443 C509.69124917 483.52308918 509.69842885 487.51929986 509.69921875 491.515625 C509.69966061 492.53878878 509.69966061 492.53878878 509.70011139 493.58262253 C509.70157672 514.59569931 509.43128862 535.3605297 506.44921875 556.203125 C506.34975952 556.90473755 506.25030029 557.6063501 506.14782715 558.32922363 C495.30179107 634.29327206 468.63377671 708.09309939 424.44921875 771.203125 C424.04541992 771.78271973 423.64162109 772.36231445 423.22558594 772.95947266 C414.49994231 785.45625376 405.22623402 797.50904792 395.44921875 809.203125 C395.01416016 809.72455078 394.57910156 810.24597656 394.13085938 810.78320312 C380.07421961 827.57583201 365.09561284 844.41340131 348.34765625 858.58203125 C346.12021842 860.4840615 343.97898904 862.4692022 341.82421875 864.453125 C336.24195153 869.48395245 330.3661942 874.07700848 324.42236328 878.66699219 C322.36429131 880.26924273 320.32564793 881.89398089 318.2890625 883.5234375 C291.52490397 904.83368803 261.99184391 921.92685903 231.44921875 937.203125 C230.61293945 937.62787109 229.77666016 938.05261719 228.91503906 938.49023438 C169.9785655 968.34604661 99.92304436 985.15517747 33.8984375 985.40625 C32.6533844 985.41330963 31.4083313 985.42036926 30.12554932 985.42764282 C26.12925457 985.44515542 22.13304389 985.4523351 18.13671875 985.453125 C17.11355497 985.45356686 17.11355497 985.45356686 16.06972122 985.45401764 C-4.94335556 985.45548297 -25.70818595 985.18519487 -46.55078125 982.203125 C-47.2523938 982.10366577 -47.95400635 982.00420654 -48.67687988 981.9017334 C-80.35213192 977.3791871 -111.17170742 970.34102131 -141.55078125 960.203125 C-142.62666504 959.84492676 -143.70254883 959.48672852 -144.81103516 959.11767578 C-186.04933338 945.21891261 -225.87781683 925.1784621 -261.55078125 900.203125 C-262.13037598 899.79932617 -262.7099707 899.39552734 -263.30712891 898.97949219 C-275.80391001 890.25384856 -287.85670417 880.98014027 -299.55078125 871.203125 C-300.07220703 870.76806641 -300.59363281 870.33300781 -301.13085938 869.88476562 C-317.92348826 855.82812586 -334.76105756 840.84951909 -348.9296875 824.1015625 C-350.83171775 821.87412467 -352.81685845 819.73289529 -354.80078125 817.578125 C-359.8316087 811.99585778 -364.42466473 806.12010045 -369.01464844 800.17626953 C-370.61689898 798.11819756 -372.24163714 796.07955418 -373.87109375 794.04296875 C-395.18134428 767.27881022 -412.27451528 737.74575016 -427.55078125 707.203125 C-427.97552734 706.3668457 -428.40027344 705.53056641 -428.83789062 704.66894531 C-458.69370286 645.73247175 -475.50283372 575.67695061 -475.75390625 509.65234375 C-475.76096588 508.40729065 -475.76802551 507.16223755 -475.77529907 505.87945557 C-475.79281167 501.88316082 -475.79999135 497.88695014 -475.80078125 493.890625 C-475.80107582 493.20851582 -475.80137039 492.52640663 -475.80167389 491.82362747 C-475.80313922 470.81055069 -475.53285112 450.0457203 -472.55078125 429.203125 C-472.45132202 428.50151245 -472.35186279 427.7998999 -472.24938965 427.07702637 C-461.40335357 351.11297794 -434.73533921 277.31315061 -390.55078125 214.203125 C-390.14698242 213.62353027 -389.74318359 213.04393555 -389.32714844 212.44677734 C-380.60150481 199.94999624 -371.32779652 187.89720208 -361.55078125 176.203125 C-361.11572266 175.68169922 -360.68066406 175.16027344 -360.23242188 174.62304688 C-346.17578211 157.83041799 -331.19717534 140.99284869 -314.44921875 126.82421875 C-312.22178092 124.9221885 -310.08055154 122.9370478 -307.92578125 120.953125 C-302.34351403 115.92229755 -296.4677567 111.32924152 -290.52392578 106.73925781 C-288.46585381 105.13700727 -286.42721043 103.51226911 -284.390625 101.8828125 C-257.62646647 80.57256197 -228.09340641 63.47939097 -197.55078125 48.203125 C-196.71450195 47.77837891 -195.87822266 47.35363281 -195.01660156 46.91601562 C-136.080128 17.06020339 -66.02460686 0.25107253 0 0 Z " fill="#EBEBEB" transform="translate(483.55078125,7.796875)"/>
<path d="M0 0 C30.36 0 60.72 0 92 0 C95.77995284 10.70986638 99.53857625 21.41332533 103.125 32.1875 C103.47464813 33.23635376 103.47464813 33.23635376 103.83135986 34.30639648 C107.69665675 45.91618994 111.41590445 57.56810751 115.07873535 69.24310303 C120.35931534 86.0650891 125.75637448 102.84916638 131.17066193 119.628479 C131.86719294 121.78829176 132.56275025 123.94841566 133.25799561 126.10864258 C134.5832497 130.22568194 135.91142313 134.34176975 137.2421875 138.45703125 C137.45265087 139.10819035 137.66311424 139.75934944 137.87995529 140.43024063 C140.57721188 148.7637655 143.33371283 157.06878632 146.38253784 165.28120422 C147.38919991 168.02817802 148 170.04102461 148 173 C136.48247223 173.18535052 124.96529907 173.32750175 113.44658375 173.41449738 C108.09788659 173.4562515 102.75020957 173.51288353 97.40209961 173.60351562 C92.24082611 173.6904342 87.08053369 173.73827244 81.91858482 173.75901794 C79.94926185 173.77380143 77.9799927 173.80267178 76.01108742 173.84584045 C73.25206119 173.90392734 70.49708802 173.91191369 67.73754883 173.90820312 C66.92330948 173.93696533 66.10907013 173.96572754 65.27015686 173.99536133 C62.92432768 173.96122517 61.19105425 173.84676933 59 173 C55.33958164 169.04571801 53.38964108 164.04566032 51.76171875 158.96875 C51.41689453 157.91171875 51.07207031 156.8546875 50.71679688 155.765625 C50.37712891 154.68796875 50.03746094 153.6103125 49.6875 152.5 C49.32849609 151.39140625 48.96949219 150.2828125 48.59960938 149.140625 C47.72334348 146.43004249 46.8571111 143.71668759 46 141 C42.70307418 147.90513054 40.27537186 154.95226188 38 162.25 C37.64897217 163.36101074 37.29794434 164.47202148 36.9362793 165.61669922 C35.20355866 171.11191047 33.49588322 176.61449657 31.8125 182.125 C29.65471053 189.11921414 27.31462927 196.05611218 25 203 C157.66 203.33 290.32 203.66 427 204 C423.6246561 216.37626097 423.6246561 216.37626097 422.1940918 220.82836914 C421.87333176 221.8305397 421.55257172 222.83271027 421.22209167 223.86524963 C420.88454361 224.91131882 420.54699554 225.957388 420.19921875 227.03515625 C419.84036087 228.15329208 419.48150299 229.27142792 419.11177063 230.42344666 C418.35567571 232.77769765 417.59843072 235.13157956 416.84008789 237.48510742 C415.6987279 241.02765093 414.56096051 244.57133186 413.42382812 248.11523438 C412.68250444 250.42194339 411.94097438 252.72858609 411.19921875 255.03515625 C410.70200569 256.5830056 410.70200569 256.5830056 410.19474792 258.16212463 C407.19555207 267.46475857 404.09140649 276.72578053 401 286 C329.39 286 257.78 286 184 286 C187.63 296.89 191.26 307.78 195 319 C199 332 199 332 200.18334961 335.85766602 C202.71808938 344.04982498 205.37125292 352.19907065 208.06640625 360.33984375 C208.43003265 361.44035065 208.79365906 362.54085754 209.16830444 363.67471313 C211.43314912 370.5291198 211.43314912 370.5291198 213.7097168 377.37963867 C221.10287241 399.58127388 221.10287241 399.58127388 223.58984375 410.06640625 C223.7567421 410.76877914 223.92364044 411.47115204 224.09559631 412.19480896 C224.44943781 413.78578953 224.73348056 415.39208508 225 417 C223.20011601 418.79988399 220.75000124 418.11993004 218.35444641 418.12442017 C217.13956795 418.11902725 217.13956795 418.11902725 215.90014648 418.11352539 C215.05143982 418.11367142 214.20273315 418.11381744 213.32830811 418.1139679 C210.50921109 418.11326848 207.69017929 418.10547478 204.87109375 418.09765625 C202.92196183 418.09579217 200.97282945 418.09436822 199.0236969 418.09336853 C193.88293168 418.08954255 188.74219453 418.07971159 183.60144043 418.06866455 C178.35994852 418.05845215 173.1184521 418.05387128 167.87695312 418.04882812 C157.58462306 418.03808939 147.29231386 418.02101201 137 418 C123.47120128 377.48174895 123.47120128 377.48174895 117.625 359.5625 C117.32171783 358.63447571 117.01843567 357.70645142 116.70596313 356.75030518 C111.09286921 339.55881436 105.68801952 322.30531695 100.39111328 305.01391602 C100.11009262 304.10079147 99.82907196 303.18766693 99.53953552 302.24687195 C99.01605424 300.54541709 98.49540607 298.84308689 97.97816467 297.13972473 C97.74584641 296.38575912 97.51352814 295.63179352 97.27416992 294.85498047 C97.07514572 294.20318817 96.87612152 293.55139587 96.67106628 292.87985229 C95.89818818 290.59558245 95.89818818 290.59558245 94 287 C61.99 287 29.98 287 -3 287 C-3.66 289.97 -4.32 292.94 -5 296 C-5.49865502 297.75359846 -6.02245264 299.50052115 -6.5859375 301.234375 C-6.87460693 302.13075684 -7.16327637 303.02713867 -7.46069336 303.95068359 C-7.76241455 304.87445801 -8.06413574 305.79823242 -8.375 306.75 C-9.00962201 308.71598211 -9.64374026 310.6821269 -10.27734375 312.6484375 C-10.57882324 313.58139648 -10.88030273 314.51435547 -11.19091797 315.47558594 C-12.1386616 318.43263759 -13.04376158 321.40121565 -13.9375 324.375 C-16.17000587 331.70071191 -18.64102144 338.94743093 -21.07568359 346.20776367 C-23.11959288 352.31610257 -25.08365358 358.43772988 -26.94140625 364.60546875 C-28.3929317 369.25999131 -29.94865221 373.87794736 -31.5 378.5 C-33.73688577 385.16893971 -35.92795777 391.84291733 -37.95898438 398.578125 C-39.15840815 402.52069621 -40.38553663 406.45412212 -41.6171875 410.38671875 C-41.84720459 411.12192749 -42.07722168 411.85713623 -42.31420898 412.61462402 C-42.87589355 414.40982626 -43.43791223 416.20492396 -44 418 C-55.42185391 418.11572958 -66.8435689 418.20463193 -78.26588917 418.25906086 C-83.5694782 418.28518104 -88.87266684 418.32062349 -94.17602539 418.37719727 C-99.29184097 418.43143036 -104.40727087 418.46140228 -109.52335167 418.47438622 C-111.47748578 418.48364175 -113.43159822 418.50171537 -115.38556862 418.52865028 C-118.11794663 418.56482535 -120.84872081 418.56995026 -123.58129883 418.56762695 C-124.39337799 418.58560333 -125.20545715 418.60357971 -126.04214478 418.62210083 C-128.29841614 418.60127258 -128.29841614 418.60127258 -132 418 C-135.03372828 414.38643306 -136.1611884 409.94157714 -137.5390625 405.4765625 C-137.77715637 404.72316589 -138.01525024 403.96976929 -138.26055908 403.19354248 C-139.05517216 400.67267687 -139.84018124 398.14893053 -140.625 395.625 C-141.18854029 393.82880555 -141.75251633 392.03274776 -142.31689453 390.23681641 C-144.22256164 384.16137993 -146.112169 378.08099843 -148 372 C-148.3513501 370.86908936 -148.7027002 369.73817871 -149.06469727 368.57299805 C-156.01829192 346.18767065 -162.96360309 323.79938993 -169.74899292 301.36239624 C-170.01632233 300.48048615 -170.28365173 299.59857605 -170.55908203 298.68994141 C-170.79015656 297.92565826 -171.02123108 297.16137512 -171.25930786 296.37393188 C-172.13409392 293.57022654 -173.07123661 290.78629016 -174 288 C-240.825 287.505 -240.825 287.505 -309 287 C-315.27854938 268.16435185 -315.27854938 268.16435185 -318.03833008 258.56860352 C-319.86663476 252.25614967 -321.96160682 246.03858196 -324.0625 239.8125 C-326.59151262 232.31384004 -329.02634597 224.83044158 -331.11328125 217.1953125 C-332.33938804 212.77700697 -333.68243046 208.39189847 -335 204 C-245.9 204 -156.8 204 -65 204 C-64.67 201.69 -64.34 199.38 -64 197 C-63.36000931 194.6960335 -62.66578044 192.40663108 -61.92578125 190.1328125 C-61.72141449 189.50048706 -61.51704773 188.86816162 -61.30648804 188.2166748 C-60.64762348 186.18417654 -59.98031561 184.1545729 -59.3125 182.125 C-58.85428537 180.71803002 -58.39636033 179.3109657 -57.9387207 177.90380859 C-55.39847697 170.11919616 -52.77057193 162.37177712 -49.97998047 154.6730957 C-48.02678288 149.23025026 -46.40993983 143.71777797 -44.82299805 138.16064453 C-43.21960746 132.59801851 -41.30305107 127.18689628 -39.30737305 121.75219727 C-38.01672544 118.04800247 -36.89965844 114.31786833 -35.828125 110.546875 C-32.89899254 100.42792582 -29.59677002 90.43560331 -26.29882812 80.43206787 C-21.08512154 64.61406316 -15.87741053 48.79831352 -11.09082031 32.84472656 C-7.7274274 21.75825631 -3.81962453 10.98142052 0 0 Z " fill="#D01D2C" transform="translate(454,291)"/>
<path d="M0 0 C1.2450531 -0.00705963 2.4901062 -0.01411926 3.77288818 -0.02139282 C7.76918293 -0.03890542 11.76539361 -0.0460851 15.76171875 -0.046875 C16.78488253 -0.04731686 16.78488253 -0.04731686 17.82871628 -0.04776764 C38.84179306 -0.04923297 59.60662345 0.22105513 80.44921875 3.203125 C81.1508313 3.30258423 81.85244385 3.40204346 82.57531738 3.5045166 C114.25056942 8.0270629 145.07014492 15.06522869 175.44921875 25.203125 C176.52510254 25.56132324 177.60098633 25.91952148 178.70947266 26.28857422 C219.94777088 40.18733739 259.77625433 60.2277879 295.44921875 85.203125 C296.02881348 85.60692383 296.6084082 86.01072266 297.20556641 86.42675781 C309.70234751 95.15240144 321.75514167 104.42610973 333.44921875 114.203125 C333.97064453 114.63818359 334.49207031 115.07324219 335.02929688 115.52148438 C351.82192576 129.57812414 368.65949506 144.55673091 382.828125 161.3046875 C384.73015525 163.53212533 386.71529595 165.67335471 388.69921875 167.828125 C393.7300462 173.41039222 398.32310223 179.28614955 402.91308594 185.22998047 C404.51533648 187.28805244 406.14007464 189.32669582 407.76953125 191.36328125 C429.07978178 218.12743978 446.17295278 247.66049984 461.44921875 278.203125 C461.87396484 279.0394043 462.29871094 279.87568359 462.73632812 280.73730469 C492.59214036 339.67377825 509.40127122 409.72929939 509.65234375 475.75390625 C509.65940338 476.99895935 509.66646301 478.24401245 509.67373657 479.52679443 C509.69124917 483.52308918 509.69842885 487.51929986 509.69921875 491.515625 C509.69966061 492.53878878 509.69966061 492.53878878 509.70011139 493.58262253 C509.70157672 514.59569931 509.43128862 535.3605297 506.44921875 556.203125 C506.34975952 556.90473755 506.25030029 557.6063501 506.14782715 558.32922363 C495.30179107 634.29327206 468.63377671 708.09309939 424.44921875 771.203125 C424.04541992 771.78271973 423.64162109 772.36231445 423.22558594 772.95947266 C414.49994231 785.45625376 405.22623402 797.50904792 395.44921875 809.203125 C395.01416016 809.72455078 394.57910156 810.24597656 394.13085938 810.78320312 C380.07421961 827.57583201 365.09561284 844.41340131 348.34765625 858.58203125 C346.12021842 860.4840615 343.97898904 862.4692022 341.82421875 864.453125 C336.24195153 869.48395245 330.3661942 874.07700848 324.42236328 878.66699219 C322.36429131 880.26924273 320.32564793 881.89398089 318.2890625 883.5234375 C291.52490397 904.83368803 261.99184391 921.92685903 231.44921875 937.203125 C230.61293945 937.62787109 229.77666016 938.05261719 228.91503906 938.49023438 C169.9785655 968.34604661 99.92304436 985.15517747 33.8984375 985.40625 C32.6533844 985.41330963 31.4083313 985.42036926 30.12554932 985.42764282 C26.12925457 985.44515542 22.13304389 985.4523351 18.13671875 985.453125 C17.11355497 985.45356686 17.11355497 985.45356686 16.06972122 985.45401764 C-4.94335556 985.45548297 -25.70818595 985.18519487 -46.55078125 982.203125 C-47.2523938 982.10366577 -47.95400635 982.00420654 -48.67687988 981.9017334 C-80.35213192 977.3791871 -111.17170742 970.34102131 -141.55078125 960.203125 C-142.62666504 959.84492676 -143.70254883 959.48672852 -144.81103516 959.11767578 C-186.04933338 945.21891261 -225.87781683 925.1784621 -261.55078125 900.203125 C-262.13037598 899.79932617 -262.7099707 899.39552734 -263.30712891 898.97949219 C-275.80391001 890.25384856 -287.85670417 880.98014027 -299.55078125 871.203125 C-300.07220703 870.76806641 -300.59363281 870.33300781 -301.13085938 869.88476562 C-317.92348826 855.82812586 -334.76105756 840.84951909 -348.9296875 824.1015625 C-350.83171775 821.87412467 -352.81685845 819.73289529 -354.80078125 817.578125 C-359.8316087 811.99585778 -364.42466473 806.12010045 -369.01464844 800.17626953 C-370.61689898 798.11819756 -372.24163714 796.07955418 -373.87109375 794.04296875 C-395.18134428 767.27881022 -412.27451528 737.74575016 -427.55078125 707.203125 C-427.97552734 706.3668457 -428.40027344 705.53056641 -428.83789062 704.66894531 C-458.69370286 645.73247175 -475.50283372 575.67695061 -475.75390625 509.65234375 C-475.76096588 508.40729065 -475.76802551 507.16223755 -475.77529907 505.87945557 C-475.79281167 501.88316082 -475.79999135 497.88695014 -475.80078125 493.890625 C-475.80107582 493.20851582 -475.80137039 492.52640663 -475.80167389 491.82362747 C-475.80313922 470.81055069 -475.53285112 450.0457203 -472.55078125 429.203125 C-472.45132202 428.50151245 -472.35186279 427.7998999 -472.24938965 427.07702637 C-461.40335357 351.11297794 -434.73533921 277.31315061 -390.55078125 214.203125 C-390.14698242 213.62353027 -389.74318359 213.04393555 -389.32714844 212.44677734 C-380.60150481 199.94999624 -371.32779652 187.89720208 -361.55078125 176.203125 C-361.11572266 175.68169922 -360.68066406 175.16027344 -360.23242188 174.62304688 C-346.17578211 157.83041799 -331.19717534 140.99284869 -314.44921875 126.82421875 C-312.22178092 124.9221885 -310.08055154 122.9370478 -307.92578125 120.953125 C-302.34351403 115.92229755 -296.4677567 111.32924152 -290.52392578 106.73925781 C-288.46585381 105.13700727 -286.42721043 103.51226911 -284.390625 101.8828125 C-257.62646647 80.57256197 -228.09340641 63.47939097 -197.55078125 48.203125 C-196.71450195 47.77837891 -195.87822266 47.35363281 -195.01660156 46.91601562 C-136.080128 17.06020339 -66.02460686 0.25107253 0 0 Z M-122.55078125 40.203125 C-123.56253418 40.52619629 -124.57428711 40.84926758 -125.61669922 41.18212891 C-177.87479425 58.09951065 -227.05446276 83.63604323 -270.55078125 117.203125 C-271.17500977 117.68168945 -271.79923828 118.16025391 -272.44238281 118.65332031 C-279.30827252 123.92399545 -285.96663964 129.31378481 -292.34375 135.17578125 C-294.2790741 136.95353914 -296.24481141 138.67888752 -298.23828125 140.390625 C-310.32294531 150.93100136 -322.34766145 161.95946158 -332.78125 174.15234375 C-334.78864148 176.47879083 -336.85544763 178.74505186 -338.92578125 181.015625 C-343.65332025 186.26756328 -348.1470516 191.67853295 -352.55078125 197.203125 C-353.06801758 197.84781738 -353.58525391 198.49250977 -354.11816406 199.15673828 C-362.8924019 210.12326836 -370.9966926 221.36440984 -378.55078125 233.203125 C-379.07526855 234.02151855 -379.59975586 234.83991211 -380.14013672 235.68310547 C-388.55471874 248.86991063 -396.26866826 262.36139983 -403.55078125 276.203125 C-404.00662598 277.05890137 -404.4624707 277.91467773 -404.93212891 278.79638672 C-428.81723764 323.84203439 -445.09714178 374.63734654 -451.55078125 425.203125 C-451.69209473 426.2972168 -451.8334082 427.39130859 -451.97900391 428.51855469 C-454.68706031 449.84867796 -455.78769908 470.83931446 -455.80078125 492.328125 C-455.80178833 493.48063751 -455.80279541 494.63315002 -455.80383301 495.82058716 C-455.79320934 513.83816484 -454.99602363 531.33941457 -452.55078125 549.203125 C-452.24399101 551.67031235 -451.93935817 554.13776879 -451.63671875 556.60546875 C-445.87000488 602.27225133 -432.81055603 646.40275287 -413.55078125 688.203125 C-413.09477539 689.19876465 -412.63876953 690.1944043 -412.16894531 691.22021484 C-395.88860152 726.55761172 -375.78233541 760.47223775 -350.55078125 790.203125 C-349.68027315 791.24679869 -348.81051776 792.29110053 -347.94140625 793.3359375 C-342.12545406 800.30181968 -336.11357733 807.05292172 -329.93896484 813.70166016 C-328.51626197 815.24046119 -327.10438979 816.7885616 -325.6953125 818.33984375 C-318.72222047 826.01299736 -311.67712708 833.46725745 -303.8046875 840.23046875 C-301.59141203 842.16756427 -299.42917007 844.15354513 -297.27368164 846.15454102 C-291.22735244 851.76054285 -285.02915491 857.09596605 -278.55078125 862.203125 C-277.94669434 862.67975586 -277.34260742 863.15638672 -276.72021484 863.64746094 C-247.09284275 886.92348809 -215.01745626 906.3104554 -180.84033203 922.13183594 C-178.85414092 923.06118192 -176.88521203 924.01579528 -174.921875 924.9921875 C-161.88304019 931.36807196 -148.16278897 936.20831251 -134.55078125 941.203125 C-133.77702148 941.48961914 -133.00326172 941.77611328 -132.20605469 942.07128906 C-103.92622457 952.4506652 -73.12208295 958.74261803 -43.22851562 961.91503906 C-40.71315785 962.1856556 -38.2024975 962.48164531 -35.69140625 962.7890625 C30.2660678 970.77665066 100.81634631 964.33339599 163.57421875 942.578125 C164.46274536 942.27221436 165.35127197 941.96630371 166.26672363 941.65112305 C181.28923284 936.46742715 196.01035328 930.86653104 210.44921875 924.203125 C211.61308105 923.66719727 212.77694336 923.13126953 213.97607422 922.57910156 C243.8016104 908.7710704 272.69277933 892.82043918 298.67480469 872.58056641 C300.39375205 871.24618267 302.12545142 869.93075531 303.86328125 868.62109375 C315.43487001 859.87572193 326.33330714 850.44870523 336.95654297 840.58251953 C338.468358 839.18543825 339.99016479 837.80012962 341.515625 836.41796875 C349.93087478 828.78612462 358.16873488 821.02365647 365.5546875 812.375 C367.42322562 810.23292331 369.35219628 808.15601595 371.29541016 806.08178711 C377.3033698 799.64647869 382.78284087 792.89800057 388.13476562 785.91162109 C389.36837264 784.30820693 390.61916103 782.7180531 391.87109375 781.12890625 C404.7744458 764.66237365 416.15383455 747.40865159 426.44921875 729.203125 C426.95694824 728.30867676 427.46467773 727.41422852 427.98779297 726.49267578 C468.15843045 655.35206401 489.73290359 577.28178201 489.63671875 495.515625 C489.63578217 494.48166595 489.63484558 493.44770691 489.63388062 492.38241577 C489.54137162 445.06383925 483.90734771 398.40225285 469.44921875 353.203125 C469.12614746 352.19137207 468.80307617 351.17961914 468.47021484 350.13720703 C454.03525164 305.54734732 433.34390446 262.63723996 406.44921875 224.203125 C406.0507373 223.62884766 405.65225586 223.05457031 405.24169922 222.46289062 C393.00702759 204.85890723 379.40629644 188.39199558 364.82421875 172.69140625 C363.43994269 171.19308471 362.06791148 169.684436 360.69921875 168.171875 C352.71805744 159.36214592 344.57907597 150.71687984 335.51953125 142.99609375 C333.06647765 140.87165676 330.70218728 138.66123863 328.32421875 136.453125 C322.51898659 131.16106254 316.4127205 126.32769783 310.18701172 121.54248047 C308.53950989 120.27271438 306.90127841 118.99200546 305.265625 117.70703125 C288.77630201 104.84083041 271.52409238 93.72927802 253.44921875 83.203125 C252.66498535 82.74196289 251.88075195 82.28080078 251.07275391 81.80566406 C226.39215249 67.34609378 200.27919021 55.98137313 173.44921875 46.203125 C172.38171387 45.81012207 171.31420898 45.41711914 170.21435547 45.01220703 C138.36586073 33.34241282 105.54197635 26.44260317 71.88671875 22.515625 C70.86570068 22.39630615 69.84468262 22.2769873 68.79272461 22.15405273 C52.80517296 20.3753717 36.9564279 19.99772881 20.88671875 20.015625 C19.25725815 20.01702988 19.25725815 20.01702988 17.59487915 20.01846313 C-30.07659551 20.10735915 -77.00306944 25.63349229 -122.55078125 40.203125 Z " fill="#010101" transform="translate(483.55078125,7.796875)"/>
<path d="M0 0 C132.99 0 265.98 0 403 0 C399.6246561 12.37626097 399.6246561 12.37626097 398.1940918 16.82836914 C397.87333176 17.8305397 397.55257172 18.83271027 397.22209167 19.86524963 C396.71576958 21.43435341 396.71576958 21.43435341 396.19921875 23.03515625 C395.84036087 24.15329208 395.48150299 25.27142792 395.11177063 26.42344666 C394.35567571 28.77769765 393.59843072 31.13157956 392.84008789 33.48510742 C391.6987279 37.02765093 390.56096051 40.57133186 389.42382812 44.11523438 C388.68250444 46.42194339 387.94097438 48.72858609 387.19921875 51.03515625 C386.86774338 52.06705582 386.53626801 53.09895538 386.19474792 54.16212463 C383.19555207 63.46475857 380.09140649 72.72578053 377 82 C305.39 82 233.78 82 160 82 C165.445 98.335 165.445 98.335 171 115 C175 128 175 128 176.18334961 131.85766602 C178.71808938 140.04982498 181.37125292 148.19907065 184.06640625 156.33984375 C184.43003265 157.44035065 184.79365906 158.54085754 185.16830444 159.67471313 C187.43314912 166.5291198 187.43314912 166.5291198 189.7097168 173.37963867 C197.10287241 195.58127388 197.10287241 195.58127388 199.58984375 206.06640625 C199.7567421 206.76877914 199.92364044 207.47115204 200.09559631 208.19480896 C200.44943781 209.78578953 200.73348056 211.39208508 201 213 C199.20011601 214.79988399 196.75000124 214.11993004 194.35444641 214.12442017 C193.54452744 214.12082489 192.73460846 214.11722961 191.90014648 214.11352539 C191.05143982 214.11367142 190.20273315 214.11381744 189.32830811 214.1139679 C186.50921109 214.11326848 183.69017929 214.10547478 180.87109375 214.09765625 C178.92196183 214.09579217 176.97282945 214.09436822 175.0236969 214.09336853 C169.88293168 214.08954255 164.74219453 214.07971159 159.60144043 214.06866455 C154.35994852 214.05845215 149.1184521 214.05387128 143.87695312 214.04882812 C133.58462306 214.03808939 123.29231386 214.02101201 113 214 C99.47120128 173.48174895 99.47120128 173.48174895 93.625 155.5625 C93.32171783 154.63447571 93.01843567 153.70645142 92.70596313 152.75030518 C87.09286921 135.55881436 81.68801952 118.30531695 76.39111328 101.01391602 C76.11009262 100.10079147 75.82907196 99.18766693 75.53953552 98.24687195 C75.01605424 96.54541709 74.49540607 94.84308689 73.97816467 93.13972473 C73.74584641 92.38575912 73.51352814 91.63179352 73.27416992 90.85498047 C73.07514572 90.20318817 72.87612152 89.55139587 72.67106628 88.87985229 C71.89818818 86.59558245 71.89818818 86.59558245 70 83 C38.32 83 6.64 83 -26 83 C-23.75262442 71.76312208 -23.75262442 71.76312208 -21.79296875 66.27734375 C-21.37362061 65.08778076 -20.95427246 63.89821777 -20.5222168 62.67260742 C-20.08176025 61.44002197 -19.64130371 60.20743652 -19.1875 58.9375 C-15.9033166 49.61766286 -12.77432804 40.29300998 -10.078125 30.78515625 C-8.91845642 26.71371112 -7.6944348 22.66723711 -6.4375 18.625 C-6.06496094 17.42101562 -5.69242187 16.21703125 -5.30859375 14.9765625 C-3.65297221 9.94544988 -1.81005067 4.97763934 0 0 Z " fill="#015094" transform="translate(478,495)"/>
<path d="M0 0 C29.7 0 59.4 0 90 0 C101 33 101 33 105 46 C105.8218568 48.50379629 106.65294319 51.00461642 107.5 53.5 C109.4142445 59.18474835 111.22588773 64.89443239 112.97265625 70.6328125 C114.11122514 74.36454779 115.27174787 78.08919374 116.4375 81.8125 C116.64906738 82.48837158 116.86063477 83.16424316 117.07861328 83.8605957 C117.50825953 85.23308583 117.93794709 86.60556303 118.36767578 87.97802734 C119.17247697 90.55152675 119.97355149 93.12618412 120.77514648 95.70068359 C125.56990002 111.08214365 130.44987598 126.43127774 135.57446289 141.70629883 C137.82782575 148.4393702 139.96995565 155.19578099 142 162 C142.33837891 163.08861328 142.33837891 163.08861328 142.68359375 164.19921875 C143.64179702 167.3513771 144 169.64131609 144 173 C69.42 173 -5.16 173 -82 173 C-83.98 166.4 -85.96 159.8 -88 153 C-89.88213077 147.71871026 -89.88213077 147.71871026 -91.796875 142.44921875 C-93.33964145 138.02628767 -94.62546653 133.5422038 -95.90551758 129.03857422 C-98.1099787 121.39518866 -100.69588004 113.88138368 -103.3215332 106.37353516 C-103.6537085 105.40335449 -103.98588379 104.43317383 -104.328125 103.43359375 C-104.6262207 102.57822021 -104.92431641 101.72284668 -105.23144531 100.84155273 C-106.18745243 97.30693811 -106.54583212 93.63334305 -107 90 C-62.45 90 -17.9 90 28 90 C24.535 79.605 24.535 79.605 21 69 C19.50894577 63.99431795 18.02737803 58.99004508 16.57519531 53.97363281 C14.18161608 45.76068949 11.58870488 37.63684454 8.75390625 29.56640625 C8.35268555 28.42292725 7.95146484 27.27944824 7.53808594 26.10131836 C6.73926548 23.83550073 5.93422429 21.57186368 5.12207031 19.31079102 C4.74791992 18.25174561 4.37376953 17.1927002 3.98828125 16.1015625 C3.65352783 15.16650879 3.31877441 14.23145508 2.97387695 13.26806641 C1.67947602 8.92440862 0.88888082 4.44440408 0 0 Z " fill="#CE1F2D" transform="translate(195,291)"/>
<path d="M0 0 C29.7 0 59.4 0 90 0 C86.62627273 12.37033332 86.62627273 12.37033332 84.90283203 17.56274414 C84.51878204 18.72508072 84.13473206 19.8874173 83.73904419 21.0849762 C83.33273773 22.30603561 82.92643127 23.52709503 82.5078125 24.78515625 C82.07530405 26.09382635 81.64317323 27.4026213 81.21139526 28.71153259 C79.39870219 34.20423146 77.57897941 39.69459391 75.75732422 45.18432617 C74.63498721 48.56750093 73.5169633 51.95207936 72.40121078 55.33743095 C71.78368498 57.20683387 71.16137083 59.07465297 70.53884888 60.94239807 C67.36433393 70.5744191 64.7240808 80.19330913 62 90 C106.88 90 151.76 90 198 90 C194.62361745 101.25460849 194.62361745 101.25460849 193.40942383 105.14477539 C193.13516068 106.02432388 192.86089752 106.90387238 192.57832336 107.81007385 C192.14703377 109.18992714 192.14703377 109.18992714 191.70703125 110.59765625 C191.39730881 111.58962509 191.08758636 112.58159393 190.76847839 113.60362244 C190.11408914 115.69881061 189.45940609 117.79390704 188.80444336 119.88891602 C187.83147538 123.00179091 186.86001182 126.1151324 185.88867188 129.22851562 C185.24488435 131.28909146 184.60100665 133.34963912 183.95703125 135.41015625 C183.67962601 136.29969498 183.40222076 137.1892337 183.1164093 138.10572815 C179.47063758 149.75653774 175.72088398 161.37223758 172 173 C97.42 173 22.84 173 -54 173 C-52.87655586 165.13589105 -52.87655586 165.13589105 -51.546875 161.5390625 C-51.25683594 160.73597656 -50.96679688 159.93289063 -50.66796875 159.10546875 C-50.36503906 158.28691406 -50.06210937 157.46835937 -49.75 156.625 C-47.53250853 150.60893569 -45.54663448 144.56301376 -43.76953125 138.40234375 C-40.7637172 128.00692246 -37.40772182 117.72802705 -34.0708313 107.43508911 C-25.91359803 82.26094076 -17.96256662 57.02542717 -10.1002655 31.7578125 C-9.47384318 29.74472229 -8.84715132 27.73171614 -8.22042847 25.71871948 C-7.45581827 23.26184396 -6.69210027 20.80469051 -5.92947388 18.34719849 C-5.58673431 17.24528168 -5.24399475 16.14336487 -4.89086914 15.00805664 C-4.59652481 14.05999649 -4.30218048 13.11193634 -3.99891663 12.13514709 C-2.70595677 8.0771314 -1.34681983 4.04045949 0 0 Z " fill="#035193" transform="translate(715,291)"/>
<path d="M0 0 C88.77 0 177.54 0 269 0 C266.75060406 10.12228175 266.75060406 10.12228175 265.56713867 13.59155273 C265.17113716 14.76469276 265.17113716 14.76469276 264.76713562 15.96153259 C264.48691055 16.77731277 264.20668549 17.59309296 263.91796875 18.43359375 C263.62191238 19.31040298 263.32585602 20.18721222 263.02082825 21.09059143 C261.77043084 24.79348054 260.50945414 28.49273834 259.2487793 32.19213867 C255.61519839 42.87549581 252.15000843 53.55072506 249.23168945 64.45336914 C247.5521022 70.65335992 245.76466147 76.82368485 244 83 C172.06 83 100.12 83 26 83 C19.72145062 64.16435185 19.72145062 64.16435185 16.96166992 54.56860352 C15.13336524 48.25614967 13.03839318 42.03858196 10.9375 35.8125 C8.40848738 28.31384004 5.97365403 20.83044158 3.88671875 13.1953125 C2.66061196 8.77700697 1.31756954 4.39189847 0 0 Z " fill="#025194" transform="translate(119,495)"/>
<path d="M0 0 C44.88 0 89.76 0 136 0 C133.74965914 10.12653389 133.74965914 10.12653389 132.52294922 14.04711914 C132.24861053 14.92997086 131.97427185 15.81282257 131.69161987 16.72242737 C131.25258835 18.11472816 131.25258835 18.11472816 130.8046875 19.53515625 C130.49355011 20.53091171 130.18241272 21.52666718 129.86184692 22.55259705 C129.20296332 24.6584224 128.54227517 26.7636839 127.87988281 28.8684082 C126.89463477 32.00008948 125.9155692 35.13364841 124.9375 38.26757812 C124.28943656 40.33605473 123.64100916 42.40441735 122.9921875 44.47265625 C122.7116452 45.37049332 122.43110291 46.26833038 122.14205933 47.19337463 C118.573295 58.51276366 114.75466218 69.73601347 111 81 C66.12 81 21.24 81 -25 81 C-22.42776711 70.71106844 -19.84768087 61.13713809 -16.4375 51.1875 C-10.73114972 34.19962962 -5.37309149 17.0962002 0 0 Z " fill="#000000" transform="translate(776,382)"/>
<path d="M0 0 C44.88 0 89.76 0 136 0 C141.28 16.5 146.56 33 152 50 C156.17105509 62.44608142 156.17105509 62.44608142 160.42773438 74.86083984 C161 77 161 77 161 81 C116.12 81 71.24 81 25 81 C13.16866438 45.50599315 13.16866438 45.50599315 10.25390625 35.19140625 C8.30499929 28.48037288 5.96622882 21.88200064 3.67700195 15.28100586 C3.34531006 14.3091333 3.01361816 13.33726074 2.671875 12.3359375 C2.3737793 11.47532715 2.07568359 10.6147168 1.76855469 9.72802734 C1 7 1 7 0 0 Z " fill="#000000" transform="translate(88,382)"/>
<path d="M0 0 C0.66 0 1.32 0 2 0 C10.27881295 22.88026364 17.79589392 46.02959867 25.07873535 69.24310303 C30.35931534 86.0650891 35.75637448 102.84916638 41.17066193 119.628479 C41.86719294 121.78829176 42.56275025 123.94841566 43.25799561 126.10864258 C44.5832497 130.22568194 45.91142313 134.34176975 47.2421875 138.45703125 C47.45265087 139.10819035 47.66311424 139.75934944 47.87995529 140.43024063 C50.57721188 148.7637655 53.33371283 157.06878632 56.38253784 165.28120422 C57.38919991 168.02817802 58 170.04102461 58 173 C46.48247223 173.18535052 34.96529907 173.32750175 23.44658375 173.41449738 C18.09788659 173.4562515 12.75020957 173.51288353 7.40209961 173.60351562 C2.24082611 173.6904342 -2.91946631 173.73827244 -8.08141518 173.75901794 C-10.05073815 173.77380143 -12.0200073 173.80267178 -13.98891258 173.84584045 C-16.74793881 173.90392734 -19.50291198 173.91191369 -22.26245117 173.90820312 C-23.07669052 173.93696533 -23.89092987 173.96572754 -24.72984314 173.99536133 C-27.07597537 173.96122076 -28.8088585 173.84748196 -31 173 C-36.03759284 167.54031254 -38.08444733 159.96418398 -40.375 153.0625 C-40.74238281 152.02931641 -41.10976563 150.99613281 -41.48828125 149.93164062 C-41.82988281 148.91392578 -42.17148437 147.89621094 -42.5234375 146.84765625 C-42.83200684 145.94023682 -43.14057617 145.03281738 -43.45849609 144.09790039 C-44.75978552 136.65332804 -42.52928588 129.71992138 -40.1484375 122.7109375 C-39.85783447 121.83084518 -39.56723145 120.95075287 -39.26782227 120.04399109 C-38.63980274 118.14500775 -38.00781965 116.24733147 -37.37225342 114.3508606 C-35.64761958 109.2044557 -33.95152949 104.0486106 -32.25 98.89453125 C-31.89714935 97.82873337 -31.54429871 96.76293549 -31.18075562 95.6648407 C-27.80921598 85.46719858 -24.54948765 75.23531504 -21.30502319 64.99667358 C-14.41508749 43.25929382 -7.28347895 21.60846082 0 0 Z " fill="#04325A" transform="translate(544,291)"/>
<path d="M0 0 C27.06 0 54.12 0 82 0 C80.22068098 6.52416974 78.44696154 13.02761014 76.5 19.5 C76.25717285 20.30896729 76.0143457 21.11793457 75.76416016 21.95141602 C72.58435049 32.47019604 69.2661133 42.9464962 65.95898438 53.42578125 C65.73114258 54.14788284 65.50330078 54.86998444 65.26855469 55.6139679 C64.81265251 57.05883007 64.35659727 58.50364396 63.90039062 59.94841003 C62.63760923 63.95382362 61.3988015 67.9654029 60.1796875 71.984375 C56.86054927 82.80996284 53.27359731 93.55222577 49.75 104.3125 C48.99729245 106.61389848 48.24468741 108.91533049 47.4921875 111.21679688 C45.66264079 116.81158529 43.83182632 122.40595757 42 128 C41.34 128 40.68 128 40 128 C39.82049805 127.43643799 39.64099609 126.87287598 39.45605469 126.29223633 C38.55499705 123.46535034 37.65257738 120.63890114 36.75 117.8125 C36.39357422 116.69520508 36.03714844 115.57791016 35.66992188 114.42675781 C33.5929449 107.93049395 31.49350467 101.44255894 29.359375 94.96484375 C21.35949911 70.63496371 13.91789109 46.1474987 6.58618164 21.60858154 C4.42828747 14.39333504 2.21498268 7.1986937 0 0 Z " fill="#7D0B13" transform="translate(280,578)"/>
<path d="M0 0 C71.61 0 143.22 0 217 0 C217 0.33 217 0.66 217 1 C213.60590895 1.76446286 210.48343783 2.12357974 207.00708008 2.11523438 C205.9861174 2.11463013 204.96515472 2.11402588 203.91325378 2.11340332 C202.20242363 2.10367493 202.20242363 2.10367493 200.45703125 2.09375 C199.21701859 2.09016479 197.97700592 2.08657959 196.69941711 2.08288574 C175.86216866 2.00940752 155.02506458 1.75441181 134.18896484 1.53643799 C128.28809698 1.47503062 122.38721183 1.41533074 116.48632812 1.35546875 C104.99086832 1.23860972 93.49542826 1.11991927 82 1 C81.89042969 1.54527344 81.78085937 2.09054687 81.66796875 2.65234375 C81.43013672 3.78349609 81.43013672 3.78349609 81.1875 4.9375 C80.96126953 6.03384766 80.96126953 6.03384766 80.73046875 7.15234375 C79.70170789 11.1628607 78.30929733 15.072108 77 19 C60.83 19 44.66 19 28 19 C29.32 26.59 30.64 34.18 32 42 C32.9026294 48.62269164 33.77044371 55.23963427 34.5625 61.875 C34.77465297 63.61537599 34.98730687 65.35569097 35.20043945 67.09594727 C35.71491727 71.30786165 36.22286617 75.52052607 36.72790527 79.73358154 C37.12019317 83.00115142 37.51727221 86.26813008 37.9140625 89.53515625 C38.82738793 97.08219637 39.73385421 104.62981088 40.58984375 112.18359375 C40.68112549 112.98224854 40.77240723 113.78090332 40.86645508 114.60375977 C41.03203597 116.05833863 41.19488921 117.51323218 41.35424805 118.96850586 C41.67709245 121.80552386 42.09287305 124.27861915 43 127 C42.67 127.99 42.34 128.98 42 130 C41.34 130 40.68 130 40 130 C39.73622559 128.92862793 39.47245117 127.85725586 39.20068359 126.75341797 C35.65220464 112.66095454 31.1930483 98.91484562 26.625 85.125 C25.88751525 82.88428092 25.15053406 80.64339604 24.4140625 78.40234375 C21.63383579 69.95221378 18.84463173 61.50522276 16.01123047 53.07275391 C13.1210654 44.46813512 10.25105769 35.88913211 7.875 27.125 C5.7767607 19.57176587 3.45615187 12.14270113 0.8828125 4.73828125 C0 2 0 2 0 0 Z " fill="#A2A3A7" transform="translate(638,577)"/>
<path d="M0 0 C0.66 0 1.32 0 2 0 C3.00981089 2.72588833 4.00803308 5.45512264 5 8.1875 C5.28617188 8.95642578 5.57234375 9.72535156 5.8671875 10.51757812 C8.241143 17.10247849 8.72882961 20.54370429 5.73095703 27.07910156 C4.40724519 30.5577137 4.28885497 34.19379873 3.9375 37.875 C2.60039208 49.47082878 -0.14371114 60.68829131 -2.9375 72 C-3.26308395 73.32375641 -3.26308395 73.32375641 -3.59524536 74.67425537 C-5.88897288 83.96713534 -8.31068622 93.20121197 -10.98364258 102.39306641 C-13.11237882 109.9477023 -14.97833575 117.5719387 -16.875 125.1875 C-17.09210632 126.05608643 -17.30921265 126.92467285 -17.53289795 127.81958008 C-21.27963507 142.82581856 -24.78258437 157.87053373 -28 173 C-31.81347656 172.25683594 -31.81347656 172.25683594 -33.4921875 169.9453125 C-36.62997623 163.5456417 -39.1854568 157.07128063 -41.4375 150.3125 C-41.70868652 149.52955566 -41.97987305 148.74661133 -42.25927734 147.93994141 C-42.62400146 146.78824463 -42.62400146 146.78824463 -42.99609375 145.61328125 C-43.32371704 144.60454956 -43.32371704 144.60454956 -43.65795898 143.57543945 C-44.61883692 136.34039211 -42.45223981 129.49310529 -40.1484375 122.7109375 C-39.85783447 121.83084518 -39.56723145 120.95075287 -39.26782227 120.04399109 C-38.63980274 118.14500775 -38.00781965 116.24733147 -37.37225342 114.3508606 C-35.64761958 109.2044557 -33.95152949 104.0486106 -32.25 98.89453125 C-31.89714935 97.82873337 -31.54429871 96.76293549 -31.18075562 95.6648407 C-27.80921598 85.46719858 -24.54948765 75.23531504 -21.30502319 64.99667358 C-14.41508749 43.25929382 -7.28347895 21.60846082 0 0 Z " fill="#022340" transform="translate(544,291)"/>
<path d="M0 0 C15.51 0 31.02 0 47 0 C46.34805525 10.43111606 45.5407584 20.56114325 44.125 30.875 C43.7612837 33.59725592 43.40209286 36.32010369 43.04296875 39.04296875 C42.95348465 39.71812027 42.86400055 40.39327179 42.77180481 41.08888245 C41.9322137 47.4482045 41.16842914 53.81488077 40.4375 60.1875 C40.25900513 61.73763794 40.25900513 61.73763794 40.0769043 63.3190918 C39.42250667 69.07395464 38.80718314 74.8317661 38.21875 80.59375 C38.08799072 81.86065674 37.95723145 83.12756348 37.82250977 84.43286133 C37.57237287 86.8722116 37.32775496 89.31213638 37.08959961 91.75268555 C36.51226761 97.38772484 35.81241182 102.62499328 34 108 C31.84689398 104.77034097 30.93680538 102.03003521 29.77734375 98.328125 C29.55989502 97.63812408 29.34244629 96.94812317 29.1184082 96.23721313 C28.38650961 93.90965669 27.66186028 91.5799126 26.9375 89.25 C26.41961841 87.59513152 25.90146319 85.94034864 25.38305664 84.28564453 C23.91428456 79.59073582 22.45328861 74.8934346 20.99365234 70.19567871 C19.93765461 66.79949139 18.8791834 63.40408163 17.8203125 60.00878906 C15.90207317 53.85637443 13.98839264 47.7025575 12.07791138 41.54772949 C11.32219978 39.11393731 10.56559847 36.68042121 9.80807495 34.24719238 C8.73196054 30.78822567 7.66033065 27.32789938 6.58984375 23.8671875 C6.27152588 22.84654205 5.95320801 21.82589661 5.62524414 20.77432251 C3.49903703 13.87826831 1.75615975 7.02463901 0 0 Z " fill="#D01D2C" transform="translate(286,596)"/>
<path d="M0 0 C7.92 0 15.84 0 24 0 C21.75060406 10.12228175 21.75060406 10.12228175 20.56713867 13.59155273 C20.30313766 14.37364609 20.03913666 15.15573944 19.76713562 15.96153259 C19.34679802 17.18520287 19.34679802 17.18520287 18.91796875 18.43359375 C18.62191238 19.31040298 18.32585602 20.18721222 18.02082825 21.09059143 C16.77043084 24.79348054 15.50945414 28.49273834 14.2487793 32.19213867 C10.61519839 42.87549581 7.15000843 53.55072506 4.23168945 64.45336914 C2.5521022 70.65335992 0.76466147 76.82368485 -1 83 C-26.41 83 -51.82 83 -78 83 C-78 82.67 -78 82.34 -78 82 C-60.18 82 -42.36 82 -24 82 C-23.01 78.37 -22.02 74.74 -21 71 C-20.06127742 67.82971411 -19.11277452 64.66502171 -18.14453125 61.50390625 C-17.60237649 59.72243682 -17.06030609 57.94094171 -16.51831055 56.15942383 C-16.23933929 55.24432037 -15.96036804 54.32921692 -15.67294312 53.38638306 C-10.26523642 35.63886316 -5.03188622 17.85826285 0 0 Z " fill="#083259" transform="translate(364,495)"/>
<path d="M0 0 C7.26 0 14.52 0 22 0 C20.87482744 9.00138051 20.87482744 9.00138051 19.9753418 11.91699219 C19.67254555 12.91488518 19.67254555 12.91488518 19.3636322 13.93293762 C19.14437576 14.63053696 18.92511932 15.32813629 18.69921875 16.046875 C18.35021263 17.18336739 18.35021263 17.18336739 17.99415588 18.34281921 C17.23247338 20.81417529 16.46045111 23.28214727 15.6875 25.75 C15.15383993 27.4700927 14.62031314 29.19022674 14.08691406 30.91040039 C8.65308515 48.36033618 2.86338807 65.69052991 -3 83 C-10.59 83 -18.18 83 -26 83 C-23.75262442 71.76312208 -23.75262442 71.76312208 -21.79296875 66.27734375 C-21.37362061 65.08778076 -20.95427246 63.89821777 -20.5222168 62.67260742 C-20.08176025 61.44002197 -19.64130371 60.20743652 -19.1875 58.9375 C-15.9033166 49.61766286 -12.77432804 40.29300998 -10.078125 30.78515625 C-7.11592187 20.38524744 -3.79747629 10.12660344 0 0 Z " fill="#06325A" transform="translate(478,495)"/>
<path d="M0 0 C29.04 0 58.08 0 88 0 C93 14 93 14 93 19 C63.96 19.33 34.92 19.66 5 20 C0 5 0 5 0 0 Z " fill="#02325B" transform="translate(550,577)"/>
</svg>
