<svg xmlns="http://www.w3.org/2000/svg" width="600" height="600" viewBox="0 0 600 600" fill="none">
    <path d="M300 600C465.685 600 600 465.685 600 300C600 134.315 465.685 0 300 0C134.315 0 0 134.315 0 300C0 465.685 134.315 600 300 600Z" fill="url(#paint0_radial_440_36)"/>
    <g transform="matrix(10,0,0,10,0,0)" fill="none">
        <path xmlns="http://www.w3.org/2000/svg" d="M27.2755 41.055C25.5937 41.055 24.1681 40.662 23.0005 39.8748C21.8323 39.0876 21.0097 38.0148 20.5333 36.6564C20.0563 35.298 20.0125 33.7674 20.4013 32.0634C20.7901 30.36 21.4993 28.8348 22.5301 27.4866C23.5597 26.139 24.7903 25.0716 26.2207 24.2844C27.6505 23.4972 29.1535 23.1042 30.7279 23.1042C31.9999 23.1042 33.1147 23.3682 34.0729 23.8968C35.0299 24.4254 35.7721 25.1418 36.2983 26.0478L38.2921 17.3148C38.4055 16.8192 38.6527 16.4202 39.0343 16.1178C39.4153 15.816 39.8437 15.6648 40.3183 15.6648C40.7929 15.6648 41.1787 15.816 41.4115 16.1178C41.6443 16.4202 41.7043 16.8192 41.5909 17.3148L38.2231 32.064C37.8343 33.768 37.0909 35.2986 35.9941 36.657C34.8961 38.0154 33.5893 39.0882 32.0731 39.8754C30.5563 40.6626 28.9573 41.0556 27.2755 41.0556V41.055ZM27.9403 38.1444C29.0401 38.1444 30.0811 37.881 31.0645 37.3518C32.0473 36.8238 32.8927 36.096 33.6007 35.1684C34.3081 34.2414 34.7923 33.207 35.0533 32.0634C35.3191 30.8994 35.3077 29.8644 35.0185 28.9584C34.7293 28.053 34.2133 27.336 33.4723 26.8074C32.7301 26.2794 31.8091 26.0148 30.7099 26.0148C29.6107 26.0148 28.5961 26.2788 27.6019 26.8074C26.6077 27.336 25.7539 28.053 25.0405 28.9584C24.3265 29.8644 23.8375 30.8994 23.5711 32.0634C23.3101 33.207 23.3269 34.242 23.6221 35.1684C23.9167 36.0954 24.4411 36.8238 25.1935 37.3518C25.9459 37.8804 26.8609 38.1444 27.9397 38.1444H27.9403Z" fill="white"/>
    </g>
    <defs>
        <radialGradient id="paint0_radial_440_36" cx="0" cy="0" r="1" gradientUnits="userSpaceOnUse" gradientTransform="translate(196 143.5) rotate(54.1675) scale(497.082)">
            <stop stop-color="#C000FF"/>
            <stop stop-color="#9900FF" offset="1"/>
        </radialGradient>
    </defs>
</svg>