<svg viewBox="0 0 600 600" fill="none" xmlns="http://www.w3.org/2000/svg">
    <g transform="matrix(1.1718,0,0,1.1718,0,0)">
        <path d="M0 256C0 114.615 114.615 0 256 0C397.385 0 512 114.615 512 256C512 397.385 397.385 512 256 512C114.615 512 0 397.385 0 256Z" fill="url(#background)"/>
        <path d="M0 256C0 114.615 114.615 0 256 0C397.385 0 512 114.615 512 256C512 397.385 397.385 512 256 512C114.615 512 0 397.385 0 256Z" stroke="white" style="stroke:white;stroke-opacity:1;"/>
        <path d="M245.221 45.127C243.669 46.5521 242.154 48.0055 240.573 49.3834C216.636 70.3221 192.69 91.2576 168.734 112.19C147.984 130.329 127.24 148.468 106.502 166.607C106.102 166.976 105.826 167.461 105.711 167.994C103.296 180.955 100.9 193.919 98.5228 206.886C95.7565 221.917 92.9933 236.957 90.2333 252.007C87.4168 267.384 84.5941 282.757 81.7651 298.128C79.256 311.831 76.7312 325.538 74.1907 339.247C72.8107 346.797 71.4338 354.316 70.0601 361.803L69.8719 362.662C68.8369 360.774 67.9901 359.189 67.0491 357.641C66.7091 357.109 66.4789 356.515 66.3722 355.892C66.2655 355.27 66.2846 354.632 66.4281 354.017C69.2885 338.728 72.1113 323.433 74.8964 308.132C77.5686 293.573 80.2377 279.014 82.9036 264.455C85.6573 249.487 88.4079 234.519 91.1554 219.551L98.0147 182.207C100.216 170.177 102.412 158.138 104.601 146.09C104.756 145.513 105.085 144.999 105.542 144.617C120.885 131.197 136.228 117.786 151.572 104.385L201.817 60.463C206.126 56.688 210.417 52.913 214.754 49.138C215.285 48.6582 215.935 48.332 216.636 48.1942C225.342 46.6172 234.144 45.624 242.982 45.2214C243.299 45.1804 243.614 45.1173 243.923 45.0327L245.221 45.127Z" fill="#F7FAFD" style="fill:#F7FAFD;fill:color(display-p3 0.9686 0.9804 0.9922);fill-opacity:1;"/>
        <path d="M211.756 465.201C206.769 463.956 201.932 462.719 197.077 461.549C196.287 461.351 196.183 461.011 196.315 460.284C200.907 435.388 205.483 410.492 210.043 385.596C211.615 376.998 213.176 368.401 214.804 359.822C214.974 359.182 215.339 358.611 215.849 358.189C227.767 347.714 239.723 337.254 251.716 326.81L299.703 284.888C320.56 266.642 341.417 248.396 362.274 230.151L441.01 161.332C441.179 161.181 441.358 161.058 441.64 160.851C441.866 161.228 442.083 161.549 442.261 161.898C446.52 170.478 450.222 179.323 453.345 188.38C453.509 188.724 453.539 189.117 453.432 189.483C453.324 189.849 453.086 190.162 452.762 190.362C424.064 215.415 395.379 240.485 366.706 265.569L293.766 329.348C271.353 348.941 248.941 368.542 226.528 388.153C226.117 388.514 225.83 388.997 225.709 389.531C223.627 400.712 221.566 411.898 219.528 423.091L212.414 461.879C212.188 462.889 212 463.956 211.756 465.201Z" fill="#F7FAFD" style="fill:#F7FAFD;fill:color(display-p3 0.9686 0.9804 0.9922);fill-opacity:1;"/>
        <path d="M237.878 468.673L220.095 466.691C220.49 464.492 220.848 462.51 221.215 460.519C224.037 445.104 226.86 429.69 229.683 414.275C230.821 408.056 231.95 401.827 233.136 395.608C233.271 394.967 233.599 394.384 234.077 393.937C262.116 369.4 290.168 344.862 318.232 320.325L456.096 199.77C456.237 199.647 456.387 199.553 456.679 199.326C457.29 201.638 457.911 203.837 458.457 206.046C460.685 215.083 462.338 224.252 463.406 233.5C463.517 234.021 463.479 234.564 463.296 235.065C463.113 235.566 462.792 236.005 462.371 236.331C440.348 255.533 418.327 274.782 396.31 294.079L259.265 413.935C255.012 417.654 250.75 421.353 246.525 425.1C246.099 425.498 245.807 426.019 245.688 426.591C243.179 440.219 240.67 453.85 238.16 467.484C238.095 467.729 238.01 468.05 237.878 468.673Z" fill="#F7FAFD" style="fill:#F7FAFD;fill:color(display-p3 0.9686 0.9804 0.9922);fill-opacity:1;"/>
        <path d="M186.247 458.291L172.745 453.28C173.469 449.278 174.166 445.428 174.871 441.577L181.815 403.827C184.726 388.01 187.636 372.193 190.547 356.375C192.51 345.679 194.483 334.984 196.465 324.288C196.584 323.716 196.877 323.195 197.303 322.797C217.068 305.482 236.846 288.18 256.637 270.89L419.961 128.063C420.131 127.912 420.309 127.77 420.601 127.534C426.25 134.84 431.408 142.514 436.041 150.505L265.011 300.014C245.91 316.719 226.804 333.411 207.69 350.09C206.447 351.09 205.617 352.515 205.357 354.091C202.139 371.966 198.865 389.825 195.534 407.668C192.711 423.039 189.888 438.416 187.066 453.799C186.821 455.233 186.548 456.677 186.247 458.291Z" fill="#F7FAFD" style="fill:#F7FAFD;fill:color(display-p3 0.9686 0.9804 0.9922);fill-opacity:1;"/>
        <path d="M464.312 244.279C464.425 247.365 464.557 250.14 464.623 252.914C464.853 263.888 464.224 274.863 462.741 285.738C462.544 287.267 462.337 288.796 462.045 290.315C461.929 290.815 461.663 291.266 461.283 291.608C450.694 300.895 440.096 310.165 429.489 319.42L322.046 413.371C303.566 429.478 285.112 445.6 266.682 461.738C266.057 462.27 265.654 463.018 265.553 463.833C265.28 465.504 264.951 467.155 264.612 468.967H244.533C245.323 464.626 246.076 460.474 246.848 456.264C248.391 447.859 249.959 439.453 251.552 431.047C251.659 430.51 251.929 430.019 252.324 429.641C271.726 412.654 291.134 395.666 310.548 378.679L462.751 245.676L464.312 244.279Z" fill="#F7FAFD" style="fill:#F7FAFD;fill:color(display-p3 0.9686 0.9804 0.9922);fill-opacity:1;"/>
        <path d="M161.225 448.175C157.564 446.212 153.989 444.306 150.442 442.352C150.3 442.211 150.192 442.039 150.126 441.849C150.061 441.659 150.04 441.457 150.065 441.257C151.627 432.575 153.236 423.911 154.826 415.248L162.354 374.006C165.007 359.535 167.667 345.048 170.333 330.546C172.842 316.704 175.376 302.885 177.935 289.087C178.028 288.274 178.416 287.525 179.027 286.982C196.496 271.744 213.96 256.487 231.417 241.21L393.424 99.6667L394.365 98.8739L412.242 116.947L410.981 118.108L250.884 258.066C229.557 276.721 208.208 295.372 186.836 314.021C186.158 314.603 185.719 315.417 185.604 316.305C181.275 340.018 176.928 363.728 172.563 387.435L161.45 447.628C161.387 447.815 161.312 447.998 161.225 448.175Z" fill="#F7FAFD" style="fill:#F7FAFD;fill:color(display-p3 0.9686 0.9804 0.9922);fill-opacity:1;"/>
        <path d="M362.357 75.1295L382.21 88.7761L323.572 140.05C304.076 157.088 284.574 174.142 265.066 191.211L211.085 238.399C196.288 251.334 181.497 264.273 166.712 277.215C166.174 277.705 165.797 278.347 165.63 279.055C163.164 292.268 160.731 305.48 158.328 318.693L150.058 363.71C147.398 378.275 144.732 392.834 142.06 407.387L137.289 433.396C137.211 433.697 137.117 433.993 137.007 434.284C133.977 432.141 131.023 430.074 128.097 427.96C127.978 427.816 127.893 427.647 127.848 427.466C127.802 427.285 127.797 427.096 127.833 426.913C129.433 418.016 131.051 409.123 132.688 400.233C134.689 389.336 136.69 378.442 138.691 367.551C141.069 354.621 143.446 341.695 145.823 328.772C148.333 315.063 150.842 301.353 153.351 287.643C155.477 276.042 157.61 264.446 159.749 252.857C159.903 252.286 160.233 251.777 160.69 251.403C171.981 241.475 183.316 231.563 194.695 221.666L360.663 76.6206L362.357 75.1295Z" fill="#F7FAFD" style="fill:#F7FAFD;fill:color(display-p3 0.9686 0.9804 0.9922);fill-opacity:1;"/>
        <path d="M269.614 468.408C269.585 467.692 269.721 466.979 270.011 466.324C270.302 465.67 270.739 465.091 271.288 464.633C295.263 443.726 319.216 422.8 343.146 401.855L459.199 300.411L460.507 299.307C459.999 301.657 459.566 303.695 459.114 305.715C453.564 329.374 443.972 351.891 430.764 372.268C430.338 372.931 429.822 373.532 429.231 374.052C406.26 394.185 383.279 414.281 360.29 434.339C355.209 438.774 350.128 443.204 345.047 447.627C344.3 448.307 343.464 448.881 342.563 449.335C325.267 457.478 306.92 463.151 288.056 466.19C282.278 467.134 276.435 467.681 270.62 468.399C270.285 468.421 269.949 468.425 269.614 468.408Z" fill="#F7FAFD" style="fill:#F7FAFD;fill:color(display-p3 0.9686 0.9804 0.9922);fill-opacity:1;"/>
        <path d="M345.667 66.2936L160.711 228.015C155.95 232.18 151.192 236.348 146.437 240.519C146.057 240.862 145.791 241.313 145.675 241.812C141.61 263.833 137.558 285.838 133.518 307.828C129.002 332.435 124.489 357.035 119.979 381.629C117.909 392.898 115.845 404.163 113.787 415.425C113.734 415.683 113.668 415.938 113.59 416.189C113.307 415.982 113.072 415.84 112.875 415.661C110.993 413.981 109.28 412.216 107.37 410.64C106.911 410.28 106.574 409.787 106.406 409.228C106.238 408.669 106.246 408.071 106.429 407.516C110.607 384.992 114.753 362.465 118.868 339.934C122.594 319.675 126.323 299.413 130.056 279.147C133.017 262.99 135.974 246.833 138.929 230.676C139.747 226.193 140.566 221.711 141.422 217.237C141.53 216.772 141.776 216.351 142.128 216.029C165.613 195.474 189.108 174.932 212.612 154.402L275.183 99.6646C291.109 85.7474 307.036 71.8208 322.962 57.8847C323.194 57.6274 323.502 57.4517 323.841 57.3838C324.18 57.3158 324.532 57.359 324.844 57.5072C331.933 60.0695 338.884 63.0023 345.667 66.2936Z" fill="#F7FAFD" style="fill:#F7FAFD;fill:color(display-p3 0.9686 0.9804 0.9922);fill-opacity:1;"/>
        <path d="M91.0387 393.174C89.1569 390.833 87.4915 388.729 85.8637 386.567C85.6372 386.149 85.5767 385.66 85.6943 385.199C86.8987 378.489 88.1407 371.779 89.3733 365.078C91.7569 352.149 94.1312 339.219 96.496 326.29C98.9299 312.989 101.37 299.689 103.816 286.388L110.506 249.941C112.877 237.049 115.252 224.151 117.629 211.247C119.385 201.664 121.136 192.063 122.879 182.443C123.015 181.446 123.515 180.535 124.281 179.886C145.722 161.181 167.153 142.46 188.574 123.723L236.777 81.5753C249.894 70.1118 263.01 58.639 276.126 47.1567C276.36 46.8973 276.655 46.6997 276.983 46.5812C277.311 46.4627 277.663 46.427 278.008 46.4772C285.592 47.8173 293.176 49.1417 300.76 50.4504C300.942 50.4941 301.118 50.5574 301.287 50.6391C300.976 50.9317 300.722 51.196 300.459 51.4319L170.038 165.475C155.673 178.058 141.299 190.61 126.916 203.13C126.169 203.75 125.677 204.623 125.533 205.584C122.447 222.572 119.335 239.537 116.199 256.481C113.15 273.103 110.114 289.726 107.091 306.349C103.377 326.614 99.6481 346.876 95.9033 367.136C94.3664 375.472 92.839 383.808 91.321 392.145C91.2551 392.409 91.1704 392.645 91.0387 393.174Z" fill="#F7FAFD" style="fill:#F7FAFD;fill:color(display-p3 0.9686 0.9804 0.9922);fill-opacity:1;"/>
        <path d="M50.9223 318.872C50.2393 316.902 49.7169 314.879 49.3604 312.823C49.2005 311.266 49.7556 309.633 50.0473 308.038C53.1147 291.296 56.1883 274.551 59.2683 257.802C62.2416 241.658 65.2117 225.507 68.1788 209.35C71.1458 193.193 74.1222 176.967 77.1081 160.671C78.7703 151.555 80.4483 142.432 82.142 133.303C82.2864 132.62 82.5752 131.976 82.9888 131.415C101.821 105.738 126.175 84.6423 154.244 69.6938C154.611 69.4956 154.988 69.3163 155.355 69.137C155.452 69.1289 155.549 69.1289 155.646 69.137C155.119 69.6089 154.705 70.0147 154.235 70.4016C131.735 90.0757 109.234 109.747 86.7336 129.414C86.1262 129.906 85.7209 130.605 85.5951 131.377C82.1263 150.422 78.6292 169.464 75.1039 188.503C71.5786 207.541 68.0909 226.599 64.6409 245.675C61.2975 263.921 57.9447 282.148 54.5825 300.356C53.4973 306.245 52.4184 312.134 51.3458 318.023C51.2893 318.306 51.2046 318.589 51.1388 318.863L50.9223 318.872Z" fill="#F7FAFD" style="fill:#F7FAFD;fill:color(display-p3 0.9686 0.9804 0.9922);fill-opacity:1;"/>
        <path d="M356.289 442.024C378.156 422.916 400.019 403.802 421.88 384.681C404.365 408.288 381.996 427.844 356.289 442.024Z" fill="#F7FAFD" style="fill:#F7FAFD;fill:color(display-p3 0.9686 0.9804 0.9922);fill-opacity:1;"/>
    </g>
    <defs>
		<radialGradient id="background" cx="0" cy="0" r="1" gradientUnits="userSpaceOnUse" gradientTransform="translate(196 143.514) rotate(54.1676) scale(497.082 497.082)">
			<stop offset="0.230743" stop-color="#0EA5E9" />
			<stop offset="1" stop-color="#085A7B" />
		</radialGradient>
	</defs>
</svg>