<svg width="128" height="128" viewBox="0 0 128 128" fill="none" xmlns="http://www.w3.org/2000/svg">
<g clip-path="url(#clip0_8528_2248)">
<path d="M126.084 79.4824C117.535 113.768 82.8057 134.634 48.5121 126.084C14.2325 117.536 -6.63578 82.8083 1.91712 48.5247C10.462 14.235 45.1918 -6.63274 79.4754 1.91517C113.767 10.4631 134.633 45.1947 126.084 79.4824Z" fill="url(#paint0_linear_8528_2248)"/>
<path fill-rule="evenodd" clip-rule="evenodd" d="M74.7813 29.4091C75.3531 27.2749 77.5468 26.0084 79.6809 26.5803C81.8151 27.1521 83.0816 29.3458 82.5098 31.48L80.8152 37.8042L81.8661 38.0858C89.4327 40.1132 93.9231 47.8908 91.8956 55.4574L91.8015 55.8087C90.2207 61.7084 85.0522 65.6887 79.2723 66.0313L79.271 66.0363L79.179 66.0368L79.1721 66.0369L79.1437 66.0384C78.7229 66.0729 78.6443 66.6785 79.0639 66.8091L79.0633 66.8114C86.3456 69.6951 90.4688 77.6445 88.3926 85.3932C86.1571 93.7359 77.5819 98.6868 69.2393 96.4514L66.7833 95.7933L65.0892 102.116C64.5174 104.25 62.3237 105.517 60.1895 104.945C58.0554 104.373 56.7888 102.179 57.3607 100.045L59.0548 93.7225L52.0282 91.8397L50.3342 98.1618C49.7624 100.296 47.5687 101.563 45.4345 100.991C43.3004 100.419 42.0338 98.2252 42.6057 96.091L44.2997 89.7689L37.2713 87.8856L37.2714 87.8853L33.4084 86.8502C31.0802 86.2264 29.6986 83.8333 30.3224 81.5051C30.9462 79.1769 33.3393 77.7953 35.6675 78.4191L39.5305 79.4542L50.4497 38.7033L46.9405 37.763C44.6123 37.1392 43.2306 34.7461 43.8545 32.4179C44.4783 30.0897 46.8714 28.7081 49.1996 29.3319L52.7125 30.2732L52.7123 30.274L58.3318 31.7798L60.0263 25.4557C60.5981 23.3216 62.7918 22.055 64.926 22.6269C67.0601 23.1987 68.3266 25.3924 67.7548 27.5266L66.0603 33.8506L73.0867 35.7333L74.7813 29.4091ZM55.8073 56.4138C55.0723 53.6705 56.7003 50.8507 59.4436 50.1157L73.8334 46.2599C76.5767 45.5249 79.3965 47.1529 80.1315 49.8962C80.8666 52.6395 79.2386 55.4593 76.4953 56.1943L62.1055 60.0501C59.3622 60.7851 56.5424 59.1571 55.8073 56.4138ZM49.227 79.6829C48.4919 76.9396 50.1199 74.1198 52.8632 73.3847L67.253 69.529C69.9963 68.7939 72.8161 70.4219 73.5512 73.1652C74.2862 75.9085 72.6582 78.7283 69.9149 79.4634L55.5251 83.3191C52.7818 84.0542 49.962 82.4262 49.227 79.6829Z" fill="white"/>
</g>
<defs>
<linearGradient id="paint0_linear_8528_2248" x1="64" y1="0" x2="64" y2="128" gradientUnits="userSpaceOnUse">
<stop stop-color="#FEDF70"/>
<stop offset="1" stop-color="#D88528"/>
</linearGradient>
<clipPath id="clip0_8528_2248">
<rect width="128" height="128" fill="white"/>
</clipPath>
</defs>
</svg>
