<svg viewBox="0 0 256 256" xmlns="http://www.w3.org/2000/svg"><desc>Symbol: JLP | Address: 0x9120b1e694b2f652556b812d18a70d78f699b497</desc><g transform="scale(.25)"><defs><linearGradient id="c" x1="693.714" x2="599.827" y1="169.45" y2="234.288" gradientUnits="userSpaceOnUse"><stop class="stop0" offset="0" stop-color="#EEFB92"/><stop class="stop1" offset="1" stop-color="#C1F7AF"/></linearGradient><linearGradient id="b" x1="600.474" x2="510.117" y1="636.556" y2="786.659" gradientUnits="userSpaceOnUse"><stop class="stop0" offset="0" stop-color="#D8FD9B"/><stop class="stop1" offset="1" stop-color="#AAE8AD"/></linearGradient><linearGradient id="a" x1="501.964" x2="389.955" y1="745.857" y2="932.877" gradientUnits="userSpaceOnUse"><stop class="stop0" offset="0" stop-color="#A5F9AC"/><stop class="stop1" offset="1" stop-color="#7AEAD1"/></linearGradient></defs><path fill="#15202D" d="M476.728 0h76.635c-1.083 2.4018-1.782 3.4925-3.556 5.4402-.721 3.7147-1.069 2.8748-.003 6.1784 1.957 1.3127 11.692 1.5983 13.967 1.45 2.441.0209 8.927.2361 11.007-.1018 6.601.1702 16.682 1.0217 22.706.813 22.737 3.924 45.618 1.746 67.994 7.4096 5.726 1.4491 12.753 8.2199 17.259 9.6014 14.73 4.5157 21.712 3.8116 32.985 14.4231 2.823 2.6584 26.612 5.8009 30.857 9.4747 11.091 6.3252 21.584 13.9312 32.339 20.8766 4.642 2.998 13.007 5.332 16.62 8.2014 12.408 9.856 25.276 18.2874 38.339 27.1944 2.146 1.463 4.884 5.71 6.966 7.475 19.67 17.866 39.049 30.507 54.965 52.372 7.599 10.44 20.056 20.919 27.018 32.437 11.549 18.1 25.563 35.152 36.019 53.652 6.538 11.569 12.642 25.377 19.207 37.362 5.113 9.765 9.927 19.554 14.67 29.488 2.325 4.872 4.304 22.737 6.223 25.733 13.835 21.6 10.575 38.249 14.005 62.968.32 4.667 1.49 21.133 2.91 25.293-.53 8.465.37 27.641.77 36.835l1.08.646c2.44-1.165 3.67-1.749 6.29-2.569v122.779l-2.79-4.051c-9.94.649-9.98 56.36-13.1 66.079-5.42 16.851-12.042 33.131-18.842 49.461-.653 1.697-7.837 11.134-9.025 12.758-.324 5.076-.749 11.871-2.933 16.539-9.66 20.648-22.61 39.859-33.609 59.836-1.472 2.673-4.237 5.665-6.015 8.24-13.126 19.008-27.63 36.412-42.645 53.942-6.094 7.115-12.109 14.505-18.553 21.315-1.956 2.046-6.638 3.346-9.388 5.035-4.183 5.482-26.324 25.335-31.655 28.554-5.3 8.83-67.692 48.976-78.283 50.57-5.701 1.75-7.122 3.894-11.921 7.345-8.833 6.351-15.125 7.875-25.557 9.575-3.642 3.265-10.672 9.869-14.371 12.419-4.049 1.167-16.478 2.279-18.256 3.14-27.712 13.421-44.22 14.411-74.747 17.181-4.545.87-13.03 1.32-15.964 3.24-1.038 3.84 1.339 5.11 4.163 7.39H428.937c1.31-1.03 3.357-1.88 4.909-2.61l6.669-.38c9.083.54 34.709-.11 42.819-2.6-7.922-1.38-24.445-2.29-32.59-2.6-5.825-1.34-13.264-1.41-19.336-1.7-24.517-3.86-47.858-2.52-73.434-7.69-19.289-18.991-30.376-5.49-43.623-23.479-29.268-6.043-33.105-9.516-59.691-25.588-3.467-2.095-4.501-7.133-8.943-8.389-6.217-1.812-12.449-3.576-18.693-5.292-1.154-3.37-2.334-7.949-3.358-11.464-16.898-2.962-17.209-9.647-28.95-17.793l-.698-.477c-1.075-.601-.609-.263-1.387-.936-25.105-21.736-44.611-32.719-62.78-61.58-11.982-5.973-38.1213-46.464-46.8317-59.335-3.6983-5.465-3.2399-17.7-11.7665-16.495-2.6772-2.253-22.6382-45.93-25.0348-51.447-1.924-4.429-7.5661-9.347-9.3455-14.699-3.2541-9.79-4.0215-19.774-6.9535-29.746-1.6976-5.773-8.7115-15.973-9.4545-20.729-3.4591-22.145-5.8606-46.522-8.484-68.884 1.0656-6.418-.2775-32.134-2.378-37.897l-1.2303.352c-2.7342 7.236.6952 20.997-4.0701 33.138l-.1565.39c1.8369 11.155-2.9724 27.865-2.6539 34.765L0 622.995V486.946c.6134-2.945 1.5076-6.724 3.7165-8.748 2.3736-.238 3.6667-.401 6.0802-.268 4.1928-4.333 2.4959-26.919 1.7256-33.586.6786-2.966 1.29-4.751 2.2892-7.596.3884-2.665.4295-6.423.5421-9.215 1.1561-15.391 2.2911-36.288 4.7507-51.544 2.2209-13.775 13.3943-37.095 17.6293-51.604.909-3.114 7.7148-11.631 9.0489-15.276 3.4014-9.291 5.0655-17.973 9.3124-27.005a392.9 392.9 0 0 1 29.5681-51.895c2.1701-3.252 8.037-7.427 9.7643-9.999 3.1889-4.747 6.3207-11.273 9.6447-16.143 7.047-10.326 16.844-19.591 25.225-29.098 7.31-8.292 14.317-18.143 21.563-25.895 4.051-4.334 14.045-11.607 19.036-16.151 8.97-8.166 18.166-16.659 27.347-24.522 5.961-5.106 15.273-9.1266 21.568-13.6289 9.097-6.5061 18.784-15.0114 28.68-20.3198 16.513-9.2313 35.097-17.4675 51.678-26.3391 17.992-9.6267 25.758-15.1554 46.698-17.0559 2.451-.2225 18.848-9.3698 23.938-10.7832 15.386-4.2721 32.381-2.1256 47.253-5.6008l.875-.2119c3.864-.2392 8.573-.9067 12.487-1.3528l8.049-.2271c6.768.151 19.116-.3786 24.823.0821 5.86 1.9202 22.525 1.1233 13.148-10.5199z"/><path fill="#7BEEC7" d="M129.851 851.422c19.596-3.273 26.527-14.395 40.885-15.863 39.948-4.087 82.576-3.651 122.559.04 17.983 2.553 36.227 7.836 53.733 12.234 7.44 1.869 27.956 3.617 32.524 8.111 12.119 11.925 25.397 8.061 38.765 14.878 22.041 11.24 44.506 22.293 66.438 33.788 35.904 22.183 77.15 49.86 108.006 78.774 1.465 1.373 2.39 6.217 2.797 8.293 4.829 1.334 11.979 3.08 16.471 4.862.227 5.771.454 11.041.281 16.831-4.545.87-13.03 1.32-15.964 3.24-1.038 3.84 1.339 5.11 4.163 7.39H428.937c1.31-1.03 3.357-1.88 4.909-2.61l6.669-.38c9.083.54 34.709-.11 42.819-2.6-7.922-1.38-24.445-2.29-32.59-2.6-5.825-1.34-13.264-1.41-19.336-1.7-24.517-3.86-47.858-2.52-73.434-7.69-19.289-18.991-30.376-5.49-43.623-23.479-29.268-6.043-33.105-9.516-59.691-25.588-3.467-2.095-4.501-7.133-8.943-8.389-6.217-1.812-12.449-3.576-18.693-5.292-1.154-3.37-2.334-7.949-3.358-11.464-16.898-2.962-17.209-9.647-28.95-17.793l-.698-.477c-1.075-.601-.609-.263-1.387-.936-25.105-21.736-44.611-32.719-62.78-61.58"/><path fill="#151F2A" d="M194.018 913.938c23.331-.291 46.178-.759 69.662.271 28.575 1.253 55.177 12.642 82.817 19.107 2.552.597 7.26 1.738 9.407 2.972l-.088.492c-.345 2.037-.358 2.219-.149 4.244 5.961 3.255 24.299 4.612 34.914 9.317 28.922 12.82 61.268 36.2 90.014 46.776.754 3.603 1.664 7.563 2.207 11.163 6.22 1.64 25.905 4.79 28.555 8.3.328 3.01-1.196 4.85-2.789 7.42h-79.631c1.31-1.03 3.357-1.88 4.909-2.61l6.669-.38c9.083.54 34.709-.11 42.819-2.6-7.922-1.38-24.445-2.29-32.59-2.6-5.825-1.34-13.264-1.41-19.336-1.7-24.517-3.86-47.858-2.52-73.434-7.69-19.289-18.991-30.376-5.49-43.623-23.479-29.268-6.043-33.105-9.516-59.691-25.588-3.467-2.095-4.501-7.133-8.943-8.389-6.217-1.812-12.449-3.576-18.693-5.292-1.154-3.37-2.334-7.949-3.358-11.464-16.898-2.962-17.209-9.647-28.95-17.793z"/><path fill="url(#a)" d="M705.313 993.049c-4.071.267-5.735.471-9.731-.245-3.006-2.496-4.83-9.415-7.331-13.096-13.855-22.269-32.44-37.294-51.108-54.487-54.848-50.723-117.57-88.363-185.089-119.721-11.674-5.422-25.224-6.398-36.517-14.633-3.702-2.7-36.172-8.531-42.831-10.001-.863-2.393-1.377-3.489-2.574-5.736-9.6-5.772-42.099-5.327-54.501-6.962-9.713-1.28-14.128-7.566-21.142-8.756-28.113-4.773-67.712-6.113-95.863-2.778-17.208 2.039-63.328 17.554-79.367 16.699-2.708-1.213-3.673-3.08-4.939-5.653-6.514-13.235 19.513-33.51 28.458-41.429 5.856-5.128 15.971-7.828 19.825-14.512 3.531-6.361 19.73-4.428 24.862-6.848 36.457-17.187 69.36-14.185 109.541-13.898a197.81 197.81 0 0 1 57.239 11.845c41.035 6.431 77.62 18.058 115.784 34.079 4.138 1.737 15.949 4.894 15.672 6.489-2.548 14.72 11.237 6.111 22.546 10.433 10.583 4.044 31.756 16.363 42.325 22.649 1.092.667 1.183 4.486 1.188 5.766 8.486 2.456 16.367 3.241 25.444 5.807l3.055 10.214c16.248 5.986 26.447 11.387 40.091 21.788 46.181 35.205 88.441 71.729 125.012 117.2 3.824 4.754 10.248 10.685 14.735 15.266-1.818 4.449-2.908 6.435-2.935 11.181-5.701 1.75-7.122 3.894-11.921 7.345-8.833 6.351-15.125 7.875-25.557 9.575-3.642 3.265-10.672 9.869-14.371 12.419"/><path fill="#7BEEC7" d="M297.006 690.993a197.81 197.81 0 0 1 57.239 11.845c-16.008 2.854-24.707 1.88-40.669.281-6.262-6.461-10.46-5.24-16.57-12.126"/><path fill="url(#b)" d="M331.159 563.048c11.92-.148 23.93-.675 35.74 1.307 17.483 2.935 34.883 6.618 52.212 10.349 10.753 2.314 21.781 3.02 32.531 5.339 10.793 2.541 22.107 7.191 32.864 10.305 9.179 2.657 18.236 4.937 27.414 7.457 6.057 1.664 8.844 6.128 15.485 8.233 7.859 2.49 25.392 4.68 31.333 9.324.613 2.131.977 3.612 1.381 5.791 11.06 4.976 26.93 5.302 31.526 13.419 5.56 6.123 17.915 7.34 25.564 10.689 5.118 2.241 5.719 5.679 8.64 7.005 15.465 7.019 31.193 18.69 46.629 24.835l4.094 9.391c30.035 12.007 36.287 25.154 60.125 38.634l3.854 10.65c3.661 1.522 8.288 3.288 11.789 4.953 1.531 2.776 3.378 5.937 4.762 8.737 1.323.739 7.36 4.155 8.022 4.994 10.326 13.082 34.628 30.619 41.459 44.753l8.092 4.089c1 1.878 2.595 5.06 3.854 6.669 12.604 16.113 29.279 34.801 33.582 55.481 4.602.59 10.07 1.443 14.618 1.819-.083 6.152-.194 11.17.371 17.315-4.183 5.482-26.324 25.335-31.655 28.554-1.235-4.34-1.245-8.228-1.468-12.703l-13.412-1.765c-2.139-12-9.894-17.747-18.221-27.843a745.02 745.02 0 0 0-119.882-113.947c-11.252-8.385-25.984-14.416-37.462-22.763-2.413-1.755-3.314-4.698-4.283-7.484-20.458-10.482-36.341-18.995-56.242-30.91-13.393-8.018-33.824-16.359-47.997-23.833-5.476-2.887-12.617-7.087-17.844-9.54-8.729-4.097-21.524-5.94-30.73-9.242-3.002-1.077-3.683-5.682-6.428-6.501-8.166-2.439-17.047-5.062-25.254-7.239-15.211-4.033-32.565-10.789-47.511-14.306-14.822-3.488-39.2-11.767-53.321-13.488-24.019-2.927-54.375-1.746-78.429-2.498-15.698-.49-57.181 2.793-69.106-2.099-1.499-2.724-1.647-3.074-1.3-6.15 4.342-7.696 16.679-6.046 24.177-11.502 2.2-4.661.286-2.216.179-8.154 3.52-1.491 24.126-4.274 29.731-5.19 5.409.322 18.945.663 23.654-.45l.675-.165c8.175-1.932 16.085-7.991 23.029-10.754 1.744-.694 18.48-.989 23.159-1.566"/><path fill="#6B9E78" d="M260.642 575.983c3.478-1.432 7.934-5.384 12.621-7.231 15.981-6.298 41.135-6.812 57.896-5.704-4.679.577-21.415.872-23.159 1.566-6.944 2.763-14.854 8.822-23.029 10.754l-.675.165c-4.709 1.113-18.245.772-23.654.45"/><path fill="url(#c)" d="M369.94 143.212c1.292-3.406 1.802-5.926 4.937-7.68 17.519-2.348 12.3 70.544 12.639 83.132 1.066 39.533-.742 79.801.412 119.27 25.645-1.378 66.321-.679 92.215 1.448 3.032 3.146 11.223 13.327 13.199 14.518 10.074-10.483-1.673-174.48 6.724-200.533l-1.013 116.429c.012 25.833.454 51.729-1.381 77.509-.595 8.356-4.994 7.652-11.314 6.53-4.38 4.111-2.295 41.253-2.358 49.172 5.898.003 22.089-.557 27.039-2.369 2.345-6.451 2.007-44.869 2.004-60.257-.013-59.723.044-124.526-.266-184.756.391-.387.782-.773 1.173-1.159.316-4.417-.327-5.785 1.829-8.919 11.637-2.105 38.78-1.132 51.149-1.271 36.702-.412 68.521-.263 105.094 2.915l1.532 12.139c14.353 2.657 16.287 2.313 18.966 17.079 3.799.638 8.014 1.256 11.735 2.086.953 3.711 3.086 11.152 3.678 14.601 10.802 19.226 16.306 33.647 12.793 57.502-.196 1.336-1.156 3.173-2.001 4.254-8.617 2.635-7.728 1.958-10.775 10.288-1.14 4.728-4.097 19.958-7.762 21.419-8.64 3.442-9.153 5.567-12.18 15.679-.198.664-.393 1.33-.585 1.996-8.592 1.539-23.011 3.684-31.064 5.631.838 3.324 2.1 6.511.953 9.625-6.828 3.049-68.219 1.479-81.366 2.628l1.929 80.602c-8.898.067-59.461 1.098-63.213-1.67-.83-3.252-.794-4.208-.816-7.432l-1.173 8.521c-2.393 1.514-24.428 2.527-28.439 2.306-1.354-2.061-1.177-3.784-1.329-6.289-.348 1.268-.63 3.64-1.736 4.282-2.867 1.665-144.359.909-158.807-.201l-9.823.005c-3.236-.264-3.747.216-6.122-1.517-1.075-10.884-.316-34.537-.312-46.679l.008-92.308c-.242-15.104.2-30.069-.188-45.288.82-15.05.223-36.506-.05-51.886.188-5.581-1.081-13.33 1.113-17.232 3.564-2.209 3.948-1.477 8.765-1.656l6.742-.624c11.492-1.232 23.334.551 34.901-1.313 4.099-.66 8.405-.892 12.544-.527"/><path fill="#38EBF4" d="M369.94 143.212c1.292-3.406 1.802-5.926 4.937-7.68 17.519-2.348 12.3 70.544 12.639 83.132 1.066 39.533-.742 79.801.412 119.27 25.645-1.378 66.321-.679 92.215 1.448 3.032 3.146 11.223 13.327 13.199 14.518 10.074-10.483-1.673-174.48 6.724-200.533l-1.013 116.429c.012 25.833.454 51.729-1.381 77.509-.595 8.356-4.994 7.652-11.314 6.53-4.38 4.111-2.295 41.253-2.358 49.172 5.898.003 22.089-.557 27.039-2.369 2.345-6.451 2.007-44.869 2.004-60.257-.013-59.723.044-124.526-.266-184.756.391-.387.782-.773 1.173-1.159.946 8.379.805 19.413.949 28.052l-.083 137.726c0 17.662.833 57.398-.97 73.374l-1.173 8.521c-2.393 1.514-24.428 2.527-28.439 2.306-1.354-2.061-1.177-3.784-1.329-6.289-.348 1.268-.63 3.64-1.736 4.282-2.867 1.665-144.359.909-158.807-.201l-9.823.005c-3.236-.264-3.747.216-6.122-1.517-1.075-10.884-.316-34.537-.312-46.679l.008-92.308c-.242-15.104.2-30.069-.188-45.288.82-15.05.223-36.506-.05-51.886.188-5.581-1.081-13.33 1.113-17.232 3.564-2.209 3.948-1.477 8.765-1.656l6.742-.624c11.492-1.232 23.334.551 34.901-1.313 4.099-.66 8.405-.892 12.544-.527"/><path d="M369.94 143.212c1.292-3.406 1.802-5.926 4.937-7.68 17.519-2.348 12.3 70.544 12.639 83.132 1.066 39.533-.742 79.801.412 119.27 25.645-1.378 66.321-.679 92.215 1.448 3.032 3.146 11.223 13.327 13.199 14.518 10.074-10.483-1.673-174.48 6.724-200.533l-1.013 116.429c.012 25.833.454 51.729-1.381 77.509-.595 8.356-4.994 7.652-11.314 6.53-4.38 4.111-2.295 41.253-2.358 49.172 5.898.003 22.089-.557 27.039-2.369 2.345-6.451 2.007-44.869 2.004-60.257-.013-59.723.044-124.526-.266-184.756.391-.387.782-.773 1.173-1.159.946 8.379.805 19.413.949 28.052l-.083 137.726c0 17.662.833 57.398-.97 73.374l-1.173 8.521c-2.393 1.514-24.428 2.527-28.439 2.306-1.354-2.061-1.177-3.784-1.329-6.289-.463-14.705-.797-29.413-.999-44.123-27.405.691-54.758.78-82.167.867-5.594.018-24.127 2.565-28.018.629-3.463-7.392-1.187-49.947-1.787-62.168.264-5.793.232-12.205.142-18.044-.681-43.833 1.135-88.331-.136-132.105"/><path fill="#5DF7FB" d="M322.495 145.052c11.492-1.232 23.334.551 34.901-1.313 4.099-.66 8.405-.892 12.544-.527 1.271 43.774-.545 88.272.136 132.105.09 5.839.122 12.251-.142 18.044-6.042-7.096.439-76.325-2.426-95.258-.164 1.83-.328 1.821-1.408 3.246l-3.281.345c-7.782-2.633-6.266-9.703-9.983-13.325l-1.915 3.864c1.053 7.227.768 74.044-.948 79.029-2.212-34.957-.151-70.828-1.15-105.852-.053-1.859-.385-2.198-1.765-3.182l-2.443 1.418c-10.803 8.213-13.119 1.719-22.532 2.624l-1.173-3.667c-.925-7.624-2.132-10.918 1.585-17.551"/><path fill="#17809B" d="M306.113 261.738c1.806-3.11 5.984-9.659 5.842-13.059-.091-2.191-.176-1.695.6-4.025 2.581 1.088-.722 5.873 1.931 8.976l1.633-2.063.894-.073 1.891 7.42c.414-.488 1.378-12.46 1.603-14.452.072 10.456.16 20.938.161 31.395.003 36.454-6.782 69.244-1.559 105.911l-9.722 7.131c-.745 3.65-1.457 6.29-1.265 10.029 1.749 2.598 1.004 1.719 4.417 3.314-3.236-.264-3.747.216-6.122-1.517-1.075-10.884-.316-34.537-.312-46.679z"/><path fill="#268491" d="m315.753 145.676 6.742-.624c-3.717 6.633-2.51 9.927-1.585 17.551l1.173 3.667c-.9 15.376.43 30.686-.301 45.197-1.478 10.99-1.376 21.92-1.275 32.995-.225 1.992-1.189 13.964-1.603 14.452l-1.891-7.42-.894.073-1.633 2.063c-2.653-3.103.65-7.888-1.931-8.976-.776 2.33-.691 1.834-.6 4.025.142 3.4-4.036 9.949-5.842 13.059-.242-15.104.2-30.069-.188-45.288.82-15.05.223-36.506-.05-51.886.188-5.581-1.081-13.33 1.113-17.232 3.564-2.209 3.948-1.477 8.765-1.656"/><path fill="#19A2A4" d="m315.753 145.676 6.742-.624c-3.717 6.633-2.51 9.927-1.585 17.551-8.893-2.798-15.909-10.314-5.157-16.927"/><path fill="#1290B7" d="M320.507 244.462c-.101-11.075-.203-22.005 1.275-32.995 1.332 55.711-.364 112.454-.075 168.252.043 8.411-6.635 14.914.655 22.518l-9.823.005c-3.413-1.595-2.668-.716-4.417-3.314-.192-3.739.52-6.379 1.265-10.029l9.722-7.131c-5.223-36.667 1.562-69.457 1.559-105.911-.001-10.457-.089-20.939-.161-31.395"/><path fill="#19A2A4" d="m344.615 163.646 2.443-1.418c1.38.984 1.712 1.323 1.765 3.182.999 35.024-1.062 70.895 1.15 105.852l-.074.923c-.891 11.756.541 25.031-.627 36.511-.265-14.368-.306-24.939-2.022-39.259-1.635 7.43-1.391 13.2-1.407 20.792-.886-5.506-1.143-24.989-1.497-31.618.276-31.654.366-63.31.269-94.965"/><path fill="#5DF7FB" d="M344.346 258.611c.354 6.629.611 26.112 1.497 31.618.396 4.445-.334 11.773-.409 16.77-.257 16.944-.925 33.746-2.745 50.6-.69 6.389-6.34 20.937-2.267 25.88 11.94.032 24.023-1.02 35.871-.386l.093.525c-7.841.838-40.189 5.9-45.344.754-2.381-10.86 7.603-5.864 7.267-20.213-.441-18.809 3.526-39.126 4.831-57.896 1.071-15.41 1.003-32.107 1.206-47.652"/><path fill="#7BEEC7" d="M514.899 182.518c4.258-9.485-1.479-29.646 3.844-34.869 5.541-.49 19.502-1.414 24.528.127-3.418 10.6 32.832 15.34 41.131 31.806-4.002 1.332-4.564.778-6.736 3.554l.385.838-1.181 10.213c.055 26.851-.583 52.261-.766 78.736 10.37 1.755 25.639 1.169 36.516 1.098l-4.966 1.658c9.009.532 24.274-1.831 34.401.386 6.824 7.903 13.297 19.221 13.194 29.851-1.527 2.875-2.439 4.55-3.564 7.632 2.188.169 1.567.077 3.827-1.068l.847-2.615c.838 3.324 2.1 6.511.953 9.625-6.828 3.049-68.219 1.479-81.366 2.628l1.929 80.602c-8.898.067-59.461 1.098-63.213-1.67-.83-3.252-.794-4.208-.816-7.432 1.803-15.976.97-55.712.97-73.374z"/><path fill="#151F2A" d="M576.87 194.187c4.683-3.988 17.94-1.895 24.465-1.639 10.579.333 21.162.524 31.745.572 30.145 8.851 26.329 38.524 23.849 63.58-5.173.659-10.574 1.435-15.747 1.91l-.594 14.21-27.968 1.201c-10.877.071-26.146.657-36.516-1.098.183-26.475.821-51.885.766-78.736"/><path fill="#9BC67B" d="M707.933 193.096c10.802 19.226 16.306 33.647 12.793 57.502-.196 1.336-1.156 3.173-2.001 4.254-8.617 2.635-7.728 1.958-10.775 10.288 1.267-21.947-1.113-50.125-.017-72.044m-129.882-9.122c6.487-3.08 34.869-4.932 42.34-2.143 4.968 1.855 8.55 9.217 12.689 11.289-10.583-.048-21.166-.239-31.745-.572-6.525-.256-19.782-2.349-24.465 1.639z"/><path fill="#E1FA96" d="M895.019 771.482c-2.585.408-3.796.485-6.665.612-5.368.238-6.308-10.432-8.644-13.742-9.944-14.09-27.961-31.949-39.869-44.367-14.714-15.345-30.536-24.858-46.063-39.425-3.869-3.63-11.589-12.949-11.78-13.083-29.761-20.811-57.099-38.807-87.682-58.785-15.071-9.845-39.91-22.534-55.957-31.688.037.021-2.706-3.732-2.602-3.688-8.212-3.509-21.15-6.397-29.339-9.122-2.393-4.281 1.629-3.42-.141-8.977-5.289-2.263-24.549-1.933-32.762-5.116-5.719-.896-10.158-9.651-15.215-10.566-23.857-4.317-46.3-15.6-69.278-21.553-26.002-6.737-52.117-12.79-78.354-18.359-3.221-.683-10.595-2.598-12.17-5.206 1.688-1.41 28.256-5.812 31.915-6.051 92.72-6.055 179.455-5.302 264.207 37.552 1.393.704.787 5.503.752 7.076 3.725 1.439 19.845 3.319 25.626 4.692l2.621 11.458c2.34.702 12.744 3.832 14.19 4.818 11.618 7.914 17.375 12.382 30.429 18.283 3.697 7.015 23.477 26.416 31.209 30.636 5.776 10.551 6.391 10.593 17.028 16.543.444.96 3.289 7.09 3.63 7.398 9.489 8.588 18.032 20.658 24.67 31.49 16.729 27.3 37.607 53.376 40.622 86.065l10.991-2.855a210.94 210.94 0 0 1 2.424 35.529c-.971.076-2.978.145-3.793.431"/><path d="M305.925 216.45c-1.663 6.412-1.013 34.235-.955 41.914.266 33.75.173 67.502-.281 101.249-.078 10.035.84 32.599-.533 40.911-2.551 1.724-8.139 3.638-10.979 2.45-3.706-7.785-2.409-56.718-2.43-69.069l-.027-98.969c.209-22.224-.001-44.275-.56-66.495-.173-6.833-1.143-26.445 7.921-26.586 2.953 2.016 3.979 3.203 6.432 5.762.147 6.234.08 10.797 1.362 16.947.273 15.38.87 36.836.05 51.886"/><path fill="#4D5C44" d="M898.812 771.051c7.508 1.843 15.724-3.341 14.943 9.627-.154 2.558-1.632 3.368-3.344 4.794-13.956 3.76-10.277-9.853-12.435-13.075l-2.957-.915c.815-.286 2.822-.355 3.793-.431"/><path fill="#101C29" d="M903.942 198.179c4.122 1.412 4.743 2.337 5.548 6.276-.756 3.769-1.862 4.603-4.519 7.378-2.699-2.201-3.57-3.204-4.68-6.461.723-4.719.36-3.222 3.651-7.193m-84.944-78.231c3.145.192 4.44.136 7.444 1.363 1.743 3.126 1.062 2.707.349 7.102-5.836-.15-6.989-3.576-7.793-8.465m-696.693 80.79c1.667-.942 3.779-.43 4.83 1.17s.682 3.742-.845 4.897c-1.082.82-2.531.968-3.757.386a3.64 3.64 0 0 1-2.074-3.157 3.639 3.639 0 0 1 1.846-3.296"/><path fill="#101C29" fill-opacity=".9529" d="M422.767 0h53.961l-.288 2.4437c9.377 11.6432-7.288 12.4401-13.148 10.5199l.041-2.089c-3.838-1.674-9.143-1.7715-13.421-2.1154-4.094-1.3687-9.622-2.5955-13.931-3.805l-1.79-.856c-2.404.2623-2.909.6114-5.072 1.7673l-.627.3414C425.097 4.8001 425.234 3.65 422.767 0"/><path fill="#101C29" fill-opacity=".9294" d="M553.363 0h52.563c-3.991 2.1212-8.073 4.3623-12.09 6.4025-10.536-.043-9.079.7703-17.971 2.724l-.556.0159c-5.274.1004-6.037-1.3677-10.437.427-.521 1.2318-1.041 2.1672-1.101 3.4992-2.275.1483-12.01-.1373-13.967-1.45-1.066-3.3036-.718-2.4637.003-6.1784 1.774-1.9477 2.473-3.0384 3.556-5.4402"/><path fill="#151F2A" d="M0 412.803c3.8588 4.245 2.5524 16.68 4.9101 24.334-.1036 4.489-.497 7.804 1.32 11.952l.9554 4.653c-.3035 2.397-.6244 18.775-.5437 21.876.9374.7 2.2002 1.713 3.1549 2.312-2.4135-.133-3.7066.03-6.0802.268C1.5076 480.222.6134 484.001 0 486.946z"/><path fill="#151F2A" fill-opacity=".9294" d="M1015.86 437.741c2.26 6.146 1.44 6.807 8.14 8.197v26.715c-2.62.82-3.85 1.404-6.29 2.569l-1.08-.646c-.4-9.194-1.3-28.37-.77-36.835"/><path fill="#101C29" fill-opacity=".349" d="M1012.95 412.448c3.21 10.547 2.12 5.375 11.05 9.96v23.53c-6.7-1.39-5.88-2.051-8.14-8.197-1.42-4.16-2.59-20.626-2.91-25.293"/><path fill="#151F2A" fill-opacity=".7529" d="m4.1456 586.07.1565-.39c4.7653-12.141 1.3358-25.902 4.0701-33.138l1.2303-.352c2.1005 5.763 3.4436 31.479 2.378 37.897l-2.2628-.663c.1698-2.478.312-4.959.4267-7.44l-.9023-.236c-1.2745 1.716-3.3368 3.024-5.0965 4.322"/><path fill-opacity=".0275" d="M421.115 0h1.652c2.467 3.6499 2.33 4.8001 5.725 6.207l.627-.3415c2.163-1.1559 2.668-1.505 5.072-1.7673l1.79.856c-.547 2.3903-.724 2.6194-2.561 4.2536 1.268 1.2513 2.401 1.285 4.156 1.6634-2.616.9283-4.456 1.5144-7.156 2.2374-3.914.4461-8.623 1.1136-12.487 1.3528l.12-2.1657c1.543-2.1126 2.518-9.397 3.062-12.2957"/><path fill="#101C29" fill-opacity=".7176" d="M7.1855 453.742c.682 1.292 1.093 1.347 2.3624 2.09 1.8588-2.733 1.597-7.604 1.9744-11.488.7703 6.667 2.4672 29.253-1.7256 33.586-.9547-.599-2.2175-1.612-3.155-2.312-.0806-3.101.2403-19.479.5438-21.876"/><path fill="#101C29" fill-opacity=".3765" d="M575.865 9.1266c8.892-1.9538 7.435-2.7671 17.971-2.7241-2.377 2.0874-4.248 2.9211-4.817 5.4877 3.27 1.1019 5.083 1.3447 8.465 1.8896-6.024.2087-16.105-.6428-22.706-.813z"/><path fill="#151F2A" fill-opacity=".6392" d="M450.744 1015.81c8.145.31 24.668 1.22 32.59 2.6-8.11 2.49-33.736 3.14-42.819 2.6 4.217-1.16 10.152-.8 15.582-2.11l.13-1.29z"/><path fill="#151F2A" fill-opacity=".1922" d="M435.981 4.9542c4.309 1.2095 9.837 2.4363 13.931 3.805l.178.4392c.586 1.427.368 1.2882 1.41 2.3881-2.021.7746-8.52.415-13.031 1.295l-8.049.2271c2.7-.723 4.54-1.3091 7.156-2.2374-1.755-.3784-2.888-.4121-4.156-1.6634 1.837-1.6342 2.014-1.8633 2.561-4.2536"/><path fill="#101C29" fill-opacity=".3333" d="M431.408 1014.11c6.072.29 13.511.36 19.336 1.7l5.483 1.8-.13 1.29c-5.43 1.31-11.365.95-15.582 2.11l-6.669.38c2.753-1.39 4.359-2.08 6.763-4.11-1.709-1.83-6.336-2.46-9.201-3.17"/><path fill-opacity=".2549" d="M14.3536 427.533c-.1126 2.792-.1537 6.55-.5421 9.215l-2.5748-3.004-1.4524.113c-.5093 5.57.5191 9.718-1.3022 14.648l-2.252.584c-1.817-4.148-1.4236-7.463-1.32-11.952 3.3226-2.087 1.3766-3.943 7.9858-6.305z"/><path fill="#151F2A" fill-opacity=".4196" d="m6.2301 449.089 2.252-.584c1.8213-4.93.793-9.078 1.3022-14.648l1.4524-.113 2.5748 3.004c-.9992 2.845-1.6106 4.63-2.2892 7.596-.3774 3.884-.1156 8.755-1.9744 11.488-1.2694-.743-1.6804-.798-2.3624-2.09z"/><path fill="#101C29" fill-opacity=".6471" d="M449.912 8.7592c4.278.3439 9.583.4414 13.421 2.1154l-.041 2.089c-5.707-.4607-18.055.0689-24.823-.0821 4.511-.88 11.01-.5204 13.031-1.295-1.042-1.0999-.824-.9611-1.41-2.3881z"/><path fill="#101C29" fill-opacity=".7765" d="M563.771 13.0686c.06-1.332.58-2.2674 1.101-3.4993 4.4-1.7946 5.163-.3265 10.437-.427l.556-.0158-1.087 3.8403c-2.08.3379-8.566.1227-11.007.1018"/><path fill-opacity=".9686" d="M416.005 0h5.11c-.544 2.8988-1.519 10.1831-3.062 12.2957-2.068-5.1518-1.965-6.5728-2.048-12.2957"/></g></svg>