<svg width="32" height="32" viewBox="0 0 32 32" fill="none" xmlns="http://www.w3.org/2000/svg">
<path d="M26 16C26 23.1797 20.1797 29 13 29C5.8203 29 0 23.1797 0 16C0 8.8203 5.8203 3 13 3C20.1797 3 26 8.8203 26 16Z" fill="#292D34"/>
<path fill-rule="evenodd" clip-rule="evenodd" d="M21.1558 13.1853C21.0054 11.5872 19.6523 11.051 17.9408 10.8877V9.5H16.6178V10.8468H15.5603V9.5H14.2473V10.903H11.6889V12.3454C11.6889 12.3454 12.5409 12.3275 12.5258 12.3454C12.8921 12.3044 13.2244 12.5662 13.2776 12.9377V19.0036C13.27 19.1309 13.2121 19.2497 13.1172 19.3329C13.024 19.4177 12.901 19.4601 12.7764 19.4504C12.794 19.4657 11.6889 19.4504 11.6889 19.4504V21.0613H14.2223V22.5H15.5453V21.0945H16.6028V22.4898H17.9283V21.0766C20.1635 20.9387 21.7221 20.3771 21.9175 18.2453C22.0754 16.5297 21.2836 15.7638 20.0181 15.4549C20.7874 15.0694 21.2635 14.3546 21.1558 13.1853ZM19.3015 17.98C19.3015 19.5175 16.9278 19.4822 15.8446 19.4661C15.7479 19.4646 15.6614 19.4633 15.5879 19.4633V16.4917C15.6798 16.4919 15.7918 16.4894 15.9188 16.4865C17.0323 16.4614 19.3015 16.4103 19.3015 17.98ZM15.8157 15.1416C16.7233 15.158 18.6875 15.1936 18.6875 13.7933C18.6875 12.3576 16.7846 12.408 15.8592 12.4325C15.7561 12.4352 15.6652 12.4376 15.5904 12.4376V15.1387C15.6545 15.1387 15.7304 15.1401 15.8157 15.1416Z" fill="white"/>
<path fill-rule="evenodd" clip-rule="evenodd" d="M8.85045 12.2628H6.45647V14.7003H4.0625V17.1378H6.45647V19.5753H8.85045V17.1378H11.2444V14.7003H8.85045V12.2628ZM8.85045 14.7003V17.1378H6.45647V14.7003H8.85045Z" fill="white"/>
<g clip-path="url(#clip0_532_216669)">
<path fill-rule="evenodd" clip-rule="evenodd" d="M20.3524 28.8458C19.7111 27.8582 19.3387 26.68 19.3387 25.4149C19.3387 21.931 22.1629 19.1068 25.6467 19.1068C26.034 19.1068 26.4132 19.1417 26.7812 19.2086C26.0265 18.8543 25.1839 18.6562 24.295 18.6562C21.06 18.6562 18.4375 21.2787 18.4375 24.5137C18.4375 26.2303 19.1759 27.7744 20.3524 28.8458Z" fill="#FF0079"/>
<path fill-rule="evenodd" clip-rule="evenodd" d="M26.8444 19.231C27.41 19.3384 27.9488 19.5214 28.45 19.769C27.3419 18.8035 25.8932 18.2188 24.308 18.2188C20.8242 18.2188 18 21.043 18 24.5268C18 27.0088 19.4335 29.1561 21.5177 30.1857C21.0878 29.8111 20.7091 29.3792 20.3936 28.9019C19.193 27.827 18.4375 26.2651 18.4375 24.5268C18.4375 21.2846 21.0658 18.6563 24.308 18.6563C25.2165 18.6563 26.0767 18.8626 26.8444 19.231Z" fill="black"/>
<path d="M32 25.4375C32 28.9411 29.1598 31.7812 25.6562 31.7812C22.1527 31.7812 19.3125 28.9411 19.3125 25.4375C19.3125 21.9339 22.1527 19.0938 25.6562 19.0938C29.1598 19.0938 32 21.9339 32 25.4375Z" fill="white"/>
<path fill-rule="evenodd" clip-rule="evenodd" d="M25.6562 31.3281C28.9096 31.3281 31.5469 28.6908 31.5469 25.4375C31.5469 22.1842 28.9096 19.5469 25.6562 19.5469C22.4029 19.5469 19.7656 22.1842 19.7656 25.4375C19.7656 28.6908 22.4029 31.3281 25.6562 31.3281ZM25.6562 31.7812C29.1598 31.7812 32 28.9411 32 25.4375C32 21.9339 29.1598 19.0938 25.6562 19.0938C22.1527 19.0938 19.3125 21.9339 19.3125 25.4375C19.3125 28.9411 22.1527 31.7812 25.6562 31.7812Z" fill="black"/>
<path fill-rule="evenodd" clip-rule="evenodd" d="M22.8425 26.7575H23.4662L24.1235 23.9062H23.5846L23.2559 25.4625C23.2347 25.5561 23.2112 25.6787 23.1852 25.8301C23.1593 25.9816 23.1405 26.1081 23.1287 26.2095C23.1157 26.1042 23.0969 25.978 23.0722 25.8311C23.0474 25.6842 23.0268 25.575 23.0103 25.5035L22.634 23.9062H22.1163L21.7399 25.5035C21.7175 25.5893 21.6937 25.7099 21.6684 25.8653C21.643 26.0206 21.6268 26.1354 21.6198 26.2095C21.5939 25.9988 21.552 25.7499 21.4943 25.4625L21.1639 23.9062H20.625L21.2841 26.7575H21.906L22.2541 25.2636C22.2694 25.1973 22.2912 25.0865 22.3195 24.9311C22.3477 24.7757 22.3654 24.6629 22.3725 24.5927C22.3772 24.6499 22.3951 24.7621 22.4264 24.9291C22.4576 25.0962 22.4797 25.2064 22.4926 25.2597L22.8425 26.7575ZM24.4486 26.7575H25.9363V26.2582H24.9963V25.523H25.8709V25.0276H24.9963V24.4016H25.9363V23.9062H24.4486V26.7575ZM27.4717 26.7575H26.924V24.4094H26.2225V23.9062H28.1732V24.4094H27.4717V26.7575ZM30.1416 26.7575H30.6875V23.9062H30.1416V25.0237H29.1185V23.9062H28.5708V26.7575H29.1185V25.5269H30.1416V26.7575Z" fill="black"/>
</g>
<g clip-path="url(#clip1_532_216669)">
<mask id="mask0_532_216669" style="mask-type:luminance" maskUnits="userSpaceOnUse" x="18" y="0" width="14" height="14">
<path d="M32 0H18V14H32V0Z" fill="white"/>
</mask>
<g mask="url(#mask0_532_216669)">
<path fill-rule="evenodd" clip-rule="evenodd" d="M30.2017 8.69395e-10C29.4808 -1.37073e-05 28.391 0.162081 27.2263 0.415686C26.0345 0.675169 24.6697 1.05137 23.3724 1.5223C22.0862 1.98917 20.8079 2.57005 19.8305 3.2561C18.8883 3.91741 18.0001 4.83826 18 5.99994C18 6.17338 18.0199 6.33808 18.057 6.49443C18.0199 6.65749 18 6.82602 18 6.99994C18 7.17338 18.0199 7.33808 18.057 7.49443C18.0199 7.65749 18 7.82602 18 7.99994C18 8.17338 18.0199 8.33808 18.057 8.49443C18.0199 8.65749 18 8.82602 18 8.99994C18 9.17338 18.0199 9.33808 18.057 9.49443C18.0199 9.65749 18 9.82602 18 9.99994C17.9999 11.3404 19.1901 12.1594 20.2854 12.6288C21.426 13.1177 22.8746 13.4185 24.2246 13.6114C25.594 13.807 26.9523 13.9035 27.9611 13.9516C28.4674 13.9757 28.89 13.9878 29.1874 13.9939C29.3329 13.9968 29.574 13.9991 29.6609 13.9999L29.6667 14H30.0586C30.8085 14 31.4164 13.479 31.4164 12.8362C31.4164 12.6618 31.37 12.4911 31.2849 12.3365C31.3692 12.1849 31.4164 12.0153 31.4164 11.8362C31.4164 11.6618 31.37 11.4911 31.2849 11.3365C31.3692 11.1849 31.4164 11.0153 31.4164 10.8362C31.4164 10.6618 31.37 10.4911 31.2849 10.3365C31.3692 10.1849 31.4164 10.0153 31.4164 9.83622C31.4164 9.66127 31.3698 9.49011 31.2842 9.33517C31.3689 9.18395 31.4164 9.01478 31.4164 8.83622C31.4164 8.24339 30.8811 7.69405 30.1077 7.67184C29.7591 7.66183 28.9332 7.63155 27.9106 7.55175C29.0093 7.31903 29.9671 7.15386 30.5275 7.06339C31.3824 6.92539 32 6.28686 32 5.54138C32 5.36658 31.966 5.19857 31.9035 5.04193C31.9662 4.88429 32 4.71576 32 4.54138C32 4.36658 31.966 4.19857 31.9035 4.04193C31.9662 3.88429 32 3.71576 32 3.54138C32 3.36658 31.966 3.19857 31.9035 3.04193C31.9662 2.88429 32 2.71576 32 2.54138C32 2.36658 31.966 2.19857 31.9035 2.04193C31.9662 1.88429 32 1.71576 32 1.54138C32 0.690109 31.1949 1.69891e-05 30.2017 8.69395e-10Z" fill="white"/>
<path d="M30.202 1.16675C30.5508 1.16675 30.8336 1.4024 30.8336 1.69309C30.8336 1.95039 30.6153 2.16978 30.3119 2.2174C28.1917 2.55013 20.3337 3.92519 20.3337 6.02786C20.3337 8.26351 28.7234 8.58737 30.0689 8.62494C30.1729 8.62784 30.25 8.69863 30.25 8.78529C30.25 8.87323 30.1644 8.94452 30.0589 8.94452H29.9583H29.6667C29.6667 8.94452 19.1668 8.94453 19.167 6.02786C19.1672 3.28787 27.917 1.16669 30.202 1.16675Z" fill="#0C0D1D"/>
<path d="M30.202 2.13892C30.5508 2.13892 30.8336 2.37457 30.8336 2.66526C30.8336 2.92256 30.6153 3.14195 30.3119 3.18956C28.1917 3.5223 20.3337 4.89736 20.3337 7.00003C20.3337 9.23568 28.7234 9.55954 30.0689 9.59711C30.1729 9.60001 30.25 9.6708 30.25 9.75746C30.25 9.8454 30.1644 9.91669 30.0589 9.91669H29.9583H29.6667C29.6667 9.91669 19.1668 9.9167 19.167 7.00003C19.1672 4.26004 27.917 2.13886 30.202 2.13892Z" fill="#0433FF"/>
<path d="M30.202 3.11108C30.5508 3.11108 30.8336 3.34674 30.8336 3.63743C30.8336 3.89472 30.6153 4.11411 30.3119 4.16173C28.1917 4.49447 20.3337 5.86953 20.3337 7.9722C20.3337 10.2078 28.7234 10.5317 30.0689 10.5693C30.1729 10.5722 30.25 10.643 30.25 10.7296C30.25 10.8176 30.1644 10.8889 30.0589 10.8889H29.9583H29.6667C29.6667 10.8889 19.1668 10.8889 19.167 7.9722C19.1672 5.23221 27.917 3.11102 30.202 3.11108Z" fill="#9CADFF"/>
<path d="M30.202 4.08325C30.5508 4.08325 30.8336 4.31891 30.8336 4.6096C30.8336 4.86689 30.6153 5.08628 30.3119 5.1339C28.1917 5.46664 20.3337 6.8417 20.3337 8.94437C20.3337 11.18 28.7234 11.5039 30.0689 11.5415C30.1729 11.5444 30.25 11.6152 30.25 11.7018C30.25 11.7898 30.1644 11.8611 30.0589 11.8611H29.9583H29.6667C29.6667 11.8611 19.1668 11.8611 19.167 8.94437C19.1672 6.20438 27.917 4.08319 30.202 4.08325Z" fill="#F5F3E6"/>
<path d="M30.202 5.05566C30.5508 5.05566 30.8336 5.29131 30.8336 5.58201C30.8336 5.8393 30.6153 6.05869 30.3119 6.10631C28.1917 6.43904 20.3337 7.81411 20.3337 9.91678C20.3337 12.1525 28.7234 12.4763 30.0689 12.5139C30.1729 12.5168 30.25 12.5876 30.25 12.6742C30.25 12.7622 30.1644 12.8335 30.0589 12.8335H29.9583H29.6667C29.6667 12.8335 19.1668 12.8335 19.167 9.91678C19.1672 7.17679 27.917 5.0556 30.202 5.05566Z" fill="#FF1100"/>
</g>
</g>
<defs>
<clipPath id="clip0_532_216669">
<rect width="14" height="14" fill="white" transform="translate(18 18)"/>
</clipPath>
<clipPath id="clip1_532_216669">
<rect width="14" height="14" fill="white" transform="translate(18)"/>
</clipPath>
</defs>
</svg>
