<svg width="128" height="128" viewBox="0 0 128 128" fill="none" xmlns="http://www.w3.org/2000/svg">
<path d="M64 128C99.3462 128 128 99.3462 128 64C128 28.6538 99.3462 0 64 0C28.6538 0 0 28.6538 0 64C0 99.3462 28.6538 128 64 128Z" fill="#0080FF"/>
<path d="M82.9575 23.4024L69.4548 53.7148L68.9375 54.8751L60.1206 74.6684L59.5916 75.8546L53.0495 90.5412H32.9141L39.4562 75.8546L39.9852 74.6684L55.008 40.9444L55.5241 39.7841L62.8221 23.4024H82.9575Z" fill="#10FFD1"/>
<path d="M88.5967 75.8546L82.0534 90.5412L81.5256 91.7273L79.7187 95.7831H30.5781L32.3862 91.7273H53.8194L54.3484 90.5412L60.8906 75.8546H88.5967Z" fill="#F794FF"/>
<path d="M74.2195 74.6684L78.6914 64.6289L79.2087 63.4686L93.6355 31.0813L94.1527 29.921L93.2546 29.0228L86.4479 22.2162H62.0522L61.5244 23.4024L54.6261 38.886L54.11 40.0463L38.6863 74.6684L38.1585 75.8546L31.6152 90.5412L31.0873 91.7273L29.2805 95.7831L29.2734 95.7984L28.7573 96.9587L28.7679 96.9693L29.6555 97.8568L36.3963 104.598L37.5824 105.784H89.3164L89.8442 104.598L93.2428 96.9693L93.7707 95.7831L95.5776 91.7273L96.1066 90.5412L98.7258 84.6621L99.2418 83.5018L90.4191 74.679L74.2195 74.6684ZM39.4563 75.8546L39.9853 74.6684L55.0081 40.9444L55.5242 39.7841L62.8222 23.4024H82.9576L69.4549 53.7148L68.9376 54.8751L60.1208 74.6684L59.5917 75.8546L53.0496 90.5412H32.9142L39.4563 75.8546ZM32.3864 91.7273H53.8196L54.3486 90.5412L60.8908 75.8546H88.5969L82.0536 90.5412L81.5258 91.7273L79.7189 95.7831H30.5783L32.3864 91.7273Z" fill="black"/>
</svg>
