<!-- by TradingView --><svg width="56" height="56" viewBox="0 0 56 56" xmlns="http://www.w3.org/2000/svg"><path fill="#F60" d="M0 0h56v56H0z"/><path d="M13.14 36.45c-.2-.05-.47-.2-.7-.38-1.98-1.94.54-4.2 3.47-5.52v-3.73c.7.42 1.04.46 1.09.54l2.22-2.27-.74-1.9c6.54-2.32 9.18-3.2 14.5-4.12l-.95-.88 1.57-.93c3.58 1.22 6.92 1.53 6.35 4.58.15-2.05-2.36-2.84-6.24-3.96l-.72.46 1.42 1.2a85.6 85.6 0 0 0-14.94 4.03l.62 1.69-2.31 2.33c.39.11 4.44 1.51 8.7-1.51.02-.03.09-.04.09-.1-.15-.2-.42-.41-.77-.75a2.06 2.06 0 0 1 1.87 2.36h-.56c.06-.36-.03-.78-.18-1.05a10.9 10.9 0 0 1-10.32 1.65v2.9c-1.6.55-4.4 2.33-4.38 4.04.1.8.52 1.1.91 1.32z" fill="#010101"/><path d="M26.43 35.7c-3.52 1.84-6.87 3.29-12.1 3.5-6.75-.14-7.8-4.72-4.59-9.51 3.01-4.83 7.81-9.2 15.46-11.95A27.73 27.73 0 0 1 33.79 16c4.52-.04 8.9 1.4 8.6 5.79-.14 3.38-4.93 8.17-7.42 11.59-1.1 1.48-1.27 2.44.56 2.38 6.66-.45 10.64-1.9 16.22-4.34-3.75 2.6-21.32 11.64-21.43 4.85.03-.84.44-1.75 1.07-2.71a31.2 31.2 0 0 1 2.4-3.03c1.33-1.56 4.64-5.28 5.76-7.54 1.87-4.22-2.34-4.44-5.95-5.76l-1.57.93.94.89c-5.3.9-7.94 1.8-14.48 4.1l.74 1.92-2.22 2.26c-.04-.06-.39-.11-1.1-.53v3.73c-2.92 1.31-5.44 3.59-3.46 5.52.22.18.5.34.7.39h-.02c3.6 2.09 13.32-.74 13.3-.74z" fill="#fff"/></svg>