<svg width="32" height="32" viewBox="0 0 32 32" fill="none" xmlns="http://www.w3.org/2000/svg">
<path d="M16 32C24.8366 32 32 24.8366 32 16C32 7.16344 24.8366 0 16 0C7.16344 0 0 7.16344 0 16C0 24.8366 7.16344 32 16 32Z" fill="white"/>
<path d="M16.118 11.9765L12.74 13.9205V17.8125L16.118 19.7643L19.4959 17.8125V13.9205L16.118 11.9765Z" fill="#1552EF"/>
<path d="M6.50204 22.0253L15.859 27.4284L18.978 22.0253H6.50204Z" fill="#1552EF"/>
<path d="M6.39384 10.1252L9.3621 15.2732L15.3025 4.98097L6.39384 10.1252Z" fill="#1552EF"/>
<path d="M13.258 9.71936H25.1272L16.2302 4.57129L13.258 9.71936Z" fill="#1552EF"/>
<path d="M20.0137 10.3146L25.9502 20.6068V10.3146H20.0137Z" fill="#1552EF"/>
<path d="M22.8661 16.4676L16.9335 26.7598L25.8344 21.6156L22.8661 16.4676Z" fill="#1552EF"/>
<path d="M6.28564 21.4262H12.2222L6.28564 11.134V21.4262Z" fill="#1552EF"/>
</svg>
