<?xml version="1.0" encoding="UTF-8"?>
<!-- Generator: visioncortex VTracer 0.6.12 -->
<svg version="1.1" xmlns="http://www.w3.org/2000/svg" width="675" height="675">
<path d="M0 0 C222.75 0 445.5 0 675 0 C675 222.75 675 445.5 675 675 C452.25 675 229.5 675 0 675 C0 452.25 0 229.5 0 0 Z " fill="#5A5BF1" transform="translate(0,0)"/>
<path d="M0 0 C222.75 0 445.5 0 675 0 C675 222.75 675 445.5 675 675 C452.25 675 229.5 675 0 675 C0 452.25 0 229.5 0 0 Z M150 81 C148.864535 81.871427 147.727747 82.741134 146.589844 83.609375 C139.729539 88.875285 133.217277 94.375123 126.914062 100.296875 C124.691648 102.358417 122.444721 104.341469 120.144531 106.3125 C115.851432 110.053485 111.941553 114.085834 108.0625 118.25 C107.361572 119.000154 106.660645 119.750308 105.938477 120.523193 C100.70582 126.161581 95.702801 131.909073 91 138 C90.784163 138.274248 90.784163 138.274248 89.691895 139.662109 C37.45574 206.167564 14.484511 291.400056 23.517334 375.202393 C26.030265 395.834658 30.673572 416.209231 37 436 C37.263936 436.827578 37.527871 437.655156 37.799805 438.507812 C41.980983 451.416015 47.091384 463.790322 53 476 C53.466479 476.965669 53.932959 477.931338 54.413574 478.92627 C72.696784 516.33819 98.615981 550.533828 130 578 C130.492583 578.437314 130.985166 578.874629 131.492676 579.325195 C181.681864 623.790059 248.06058 652.168162 315 657 C315.359165 657.027473 315.359165 657.027473 317.176758 657.166504 C400.216945 663.310245 484.893781 637.240187 548.375 582.875 C550.602149 580.937187 552.806563 578.975853 555 577 C555.282224 576.745974 555.282224 576.745974 556.710449 575.460449 C576.642416 557.437523 594.31594 537.546302 609 515 C609.411694 514.373354 609.823389 513.746709 610.247559 513.101074 C638.514805 469.854986 654.734795 422.154505 661 371 C661.104575 370.177981 661.20915 369.355962 661.316895 368.509033 C670.111721 288.419472 645.139132 205.344809 596 142 C595.332266 141.137617 594.664531 140.275234 593.976562 139.386719 C589.931427 134.246359 585.689882 129.331377 581.28125 124.5 C579.018276 122.020029 576.790975 119.510958 574.5625 117 C567.507826 109.171033 560.094471 101.75191 552 95 C551.730828 94.773931 551.730828 94.773931 550.368652 93.629883 C471.208827 27.363433 365.212978 1.48474 150 81 Z " fill="#F0F0FD" transform="translate(0,0)"/>
<path d="M0 0 C1.010378 0.002221 2.020757 0.004441 3.061752 0.006729 C3.64032 0.00679 3.64032 0.00679 6.568222 0.007095 C7.18103 0.009653 7.18103 0.009653 10.282211 0.022598 C11.401722 0.023605 12.521232 0.024612 13.674667 0.02565 C17.87589 0.030901 22.077099 0.044862 26.278305 0.057755 C35.66268 0.07838 45.047055 0.099005 54.715805 0.120255 C54.715805 27.840255 54.715805 55.560255 54.715805 84.120255 C58.345805 82.470255 61.975805 80.820255 65.715805 79.120255 C68.64132 78.124976 71.499753 77.199413 74.465805 76.370255 C75.168344 76.162715 75.870883 75.955176 76.594711 75.741348 C101.779166 68.499065 130.839521 72.654131 153.715805 85.120255 C176.164226 97.899199 193.395078 117.280917 202.590805 141.495255 C202.864811 142.200291 203.138818 142.905328 203.421127 143.631729 C209.012611 159.261165 209.132095 175.270407 209.008774 191.655411 C209.003164 193.873135 208.998901 196.090864 208.995911 198.308594 C208.98457 204.087088 208.955198 209.865349 208.921799 215.643753 C208.885405 222.608245 208.871885 229.572816 208.854439 236.537376 C208.825552 247.065164 208.76799 257.592441 208.715805 268.120255 C189.575805 268.120255 170.435805 268.120255 150.715805 268.120255 C150.702914 264.652676 150.702914 264.652676 150.63768 247.10463 C150.612493 242.693135 150.586146 238.281708 150.555649 233.870255 C150.507424 226.878716 150.463338 219.887334 150.444809 212.895645 C150.429589 207.254438 150.395049 201.613642 150.347496 195.972618 C150.332737 193.827854 150.324767 191.683031 150.323921 189.538216 C150.310281 172.28715 148.854195 158.163185 136.614243 144.831192 C125.33773 134.192221 112.808763 131.413512 97.750961 131.745255 C84.719801 132.428153 75.217844 139.243361 66.465805 148.370255 C54.63551 162.274386 55.400636 179.313748 55.301743 196.538223 C55.283006 198.607592 55.263431 200.676954 55.243057 202.746307 C55.19199 208.159771 55.152229 213.573259 55.114914 218.986832 C55.074714 224.524205 55.023695 230.061479 54.973618 235.59877 C54.877159 246.439194 54.792659 257.279675 54.715805 268.120255 C47.098766 268.288522 39.481583 268.448405 31.864243 268.602432 C29.272405 268.655834 26.680606 268.711162 24.088852 268.768448 C20.36563 268.85041 16.642324 268.925466 12.91893 268.999161 C12.338661 269.012678 12.338661 269.012678 9.402145 269.081085 C8.321327 269.101181 7.240508 269.121278 6.126938 269.141983 C5.651727 269.151976 5.651727 269.151976 3.246872 269.202545 C0.889121 269.125889 -1.020099 268.728571 -3.284195 268.120255 C-3.30706 234.123056 -3.324693 200.125859 -3.33526 166.128654 C-3.336511 162.119262 -3.337805 158.109871 -3.339127 154.100479 C-3.339389 153.302247 -3.339651 152.504015 -3.339921 151.681595 C-3.344278 138.739515 -3.352166 125.79744 -3.361348 112.855363 C-3.370684 99.585623 -3.37625 86.315885 -3.378283 73.046142 C-3.379659 64.851319 -3.38401 56.656508 -3.392111 48.461688 C-3.397999 42.188639 -3.398654 35.915599 -3.397303 29.642548 C-3.397579 27.061263 -3.399587 24.479977 -3.4034 21.898695 C-3.40833 18.391399 -3.407196 14.884158 -3.404449 11.376862 C-3.407362 10.340891 -3.410275 9.304921 -3.413276 8.237557 C-3.411285 7.3055 -3.409294 6.373442 -3.407243 5.41314 C-3.407622 4.602437 -3.408002 3.791734 -3.408393 2.956465 C-3.220531 0.179011 -2.77812 0.146258 0 0 Z " fill="#F0F0FD" transform="translate(243.28419494628906,237.87974548339844)"/>
<path d="M0 0 C0.428571 0.0022 0.428571 0.0022 2.597403 0.013332 C3.578384 0.016036 4.559366 0.01874 5.570074 0.021526 C6.655651 0.029759 7.741228 0.037992 8.859701 0.046474 C9.428064 0.048869 9.428064 0.048869 12.304327 0.060986 C16.090255 0.078771 19.876074 0.104506 23.661947 0.131435 C26.292593 0.148126 28.923239 0.164788 31.553885 0.181423 C36.378935 0.212908 41.203945 0.248049 46.028947 0.286075 C53.099627 0.341794 60.17023 0.38496 67.241057 0.416756 C73.38299 0.445223 79.524714 0.489833 85.666506 0.540058 C88.266534 0.559149 90.866603 0.573498 93.466684 0.582859 C119.50143 0.685896 119.50143 0.685896 132.060385 4.11581 C132.436957 4.211682 132.436957 4.211682 134.342642 4.69685 C150.301437 9.018714 163.657411 17.401894 176.060385 28.11581 C176.808041 28.760342 177.555697 29.404873 178.32601 30.068935 C193.502916 44.258726 203.570478 63.998052 208.060385 84.11581 C208.283393 85.047803 208.5064 85.979795 208.736166 86.940029 C213.516891 110.258259 208.983341 135.330196 198.060385 156.24081 C197.740456 156.856499 197.420526 157.472187 197.090902 158.106533 C194.874513 162.152491 192.415422 165.028711 189.060385 168.11581 C188.17351 167.16706 187.286635 166.21831 186.372885 165.24081 C173.551519 152.522016 157.886483 143.457465 141.060385 137.11581 C141.447104 136.544756 141.833822 135.973701 142.23226 135.385342 C150.14101 123.071966 153.259495 110.148427 150.365072 95.627529 C146.786889 82.833271 140.341314 72.498473 128.685385 65.86581 C117.633666 60.196324 107.4289 58.98186 95.146322 58.910488 C94.082015 58.900589 93.017707 58.890689 91.921148 58.880489 C88.425916 58.849065 84.93067 58.824193 81.435385 58.799404 C79.003008 58.778818 76.570635 58.757821 74.138266 58.736431 C67.753142 58.681381 61.367987 58.631897 54.982809 58.583584 C48.460462 58.533244 41.938161 58.477623 35.415854 58.422451 C22.630736 58.315078 9.84558 58.213408 -2.939615 58.11581 C-2.962744 50.701211 -2.980533 43.286619 -2.991427 35.871991 C-2.996655 32.429407 -3.003751 28.986847 -3.015055 25.544277 C-3.027958 21.59026 -3.032844 17.636253 -3.037271 13.682217 C-3.042433 12.440573 -3.047594 11.198928 -3.052912 9.919659 C-3.052987 8.778551 -3.053063 7.637444 -3.053141 6.461758 C-3.055361 5.451379 -3.057582 4.441001 -3.05987 3.400005 C-2.909687 0.54733 -2.850096 0.170173 0 0 Z " fill="#F0F0FD" transform="translate(242.9396152496338,167.8841896057129)"/>
<path d="M0 0 C-1.32 0.66 -2.64 1.32 -4 2 C-4 1.34 -4 0.68 -4 0 C-5.215586 -0.256523 -6.431172 -0.513047 -7.683594 -0.777344 C-15.026582 -2.408002 -22.251824 -4.497593 -29.494141 -6.521484 C-35.343334 -8.12601 -40.954763 -9.45985 -47 -10 C-46.67 -9.67 -46.67 -9.67 -45 -8 C-46.65 -7.67 -48.3 -7.34 -50 -7 C-50.165 -7.495 -50.165 -7.495 -51 -10 C-59.183712 -15.455808 -72.035554 -14.347929 -81.571533 -14.658447 C-82.030238 -14.674198 -82.030238 -14.674198 -84.351562 -14.753906 C-85.17479 -14.777834 -85.998018 -14.801763 -86.846191 -14.826416 C-89 -15 -89 -15 -92 -16 C-96.534765 -16.208225 -101.072346 -16.185795 -105.611328 -16.185303 C-107.832235 -16.187458 -110.05262 -16.205533 -112.273438 -16.224609 C-120.069929 -16.254095 -127.451188 -15.873674 -135.141846 -14.394287 C-139.821009 -13.748789 -144.351244 -14.310605 -149 -15 C-145.696042 -16.941415 -142.954825 -17.362459 -139.152344 -17.632812 C-137.999922 -17.716924 -136.8475 -17.801035 -135.660156 -17.887695 C-134.43168 -17.966006 -133.203203 -18.044316 -131.9375 -18.125 C-130.669062 -18.208467 -129.400625 -18.291934 -128.09375 -18.37793 C-85.686657 -21.014919 -39.397347 -17.028911 0 0 Z M-152 -15 C-155.228131 -11.771869 -159.854324 -11.841358 -164.234375 -11.144531 C-169.8 -10.2 -169.8 -10.2 -172 -8 C-172.99 -8.33 -173.98 -8.66 -175 -9 C-178.957748 -8.68338 -182.470563 -7.891423 -186.1875 -6.5625 C-191.661086 -4.630646 -197.271386 -3.823912 -203 -3 C-203 -2.34 -203 -1.68 -203 -1 C-206.3 -0.34 -209.6 0.32 -213 1 C-213 1.99 -213 2.98 -213 4 C-213.9075 3.896875 -214.815 3.79375 -215.75 3.6875 C-220.730625 3.636469 -224.878693 5.873514 -229.328125 7.90625 C-232 9 -232 9 -235 9 C-234.67 9.99 -234.34 10.98 -234 12 C-234.886875 11.979375 -235.77375 11.95875 -236.6875 11.9375 C-239.621696 11.992862 -242.154937 12.330573 -245 13 C-242.617366 10.26718 -240.325518 9.103284 -236.976562 7.765625 C-235.966582 7.359893 -234.956602 6.95416 -233.916016 6.536133 C-232.82998 6.111709 -231.743945 5.687285 -230.625 5.25 C-230.062646 5.028765 -230.062646 5.028765 -227.216797 3.90918 C-176.29339 -15.916732 -176.29339 -15.916732 -152 -15 Z M-85 -15 C-82 -14 -82 -14 -82 -14 Z M-178 -7 C-176.35 -7 -174.7 -7 -173 -7 C-173 -6.67 -173 -6.34 -173 -6 C-174.65 -6 -176.3 -6 -178 -6 C-178 -6.33 -178 -6.66 -178 -7 Z M3.125 1.0625 C7.725771 2.17559 11.75826 3.932032 16 6 C15.34 6.66 14.68 7.32 14 8 C12.68 8 11.36 8 10 8 C10 7.01 10 6.02 10 5 C7.36 5.33 4.72 5.66 2 6 C2 5.01 2 4.02 2 3 C0.35 3.33 -1.3 3.66 -3 4 C-1.10779 1.217338 -0.300698 0.993986 3.125 1.0625 Z M-208.375 2.875 C-207.59125 2.91625 -206.8075 2.9575 -206 3 C-207.25 4.5625 -207.25 4.5625 -209 6 C-211.1875 5.6875 -211.1875 5.6875 -213 5 C-211 3 -211 3 -208.375 2.875 Z M16 7 C20.859632 7.607454 24.740552 9.72759 29 12 C26 13 26 13 23.519531 12.003906 C22.626211 11.528242 21.732891 11.052578 20.8125 10.5625 C19.911445 10.089414 19.010391 9.616328 18.082031 9.128906 C17.394961 8.756367 16.707891 8.383828 16 8 C16 7.67 16 7.34 16 7 Z M-245 14 C-249.75 17 -249.75 17 -252 17 C-252.33 17.99 -252.66 18.98 -253 20 C-254.65 20 -256.3 20 -258 20 C-258.33 20.66 -258.66 21.32 -259 22 C-261.5625 22.625 -261.5625 22.625 -264 23 C-260.974677 19.65392 -257.96429 17.6984 -253.9375 15.6875 C-252.894648 15.155117 -251.851797 14.622734 -250.777344 14.074219 C-248 13 -248 13 -245 14 Z M29 13 C32.687548 13.498317 34.604907 14.100676 37 17 C34.69 16.67 32.38 16.34 30 16 C29.67 15.01 29.34 14.02 29 13 Z M29 17 C32 18 32 18 32 18 Z M37 17 C38.32 17.33 39.64 17.66 41 18 C40.34 18.33 40.34 18.33 37 20 C37 19.01 37 18.02 37 17 Z M41 19 C44.740451 19.577618 47.444528 20.610472 50.6875 22.546875 C51.551172 23.0625 52.414844 23.578125 53.304688 24.109375 C54.194141 24.650781 55.083594 25.192188 56 25.75 C56.889453 26.275937 57.778906 26.801875 58.695312 27.34375 C63.383219 30.170488 67.356992 32.901616 71 37 C70.01 37 69.02 37 68 37 C68 37.66 68 38.32 68 39 C67.34 38.67 66.68 38.34 66 38 C66.33 37.01 66.66 36.02 67 35 C66.278125 34.71125 65.55625 34.4225 64.8125 34.125 C62.208333 33.083333 59.604167 32.041667 57 31 C57 30.34 57 29.68 57 29 C56.46375 28.731875 55.9275 28.46375 55.375 28.1875 C47 24 47 24 44.8125 22.8125 C43 22 43 22 40 22 C40.33 21.01 40.66 20.02 41 19 Z M-267 23 C-266.01 23.33 -265.02 23.66 -264 24 C-264.313242 24.19916 -264.313242 24.19916 -265.898438 25.207031 C-266.715703 25.736836 -267.532969 26.266641 -268.375 26.8125 C-269.187109 27.33457 -269.999219 27.856641 -270.835938 28.394531 C-273 30 -273 30 -275 33 C-277 33.8125 -277 33.8125 -279 34 C-279.66 33.34 -280.32 32.68 -281 32 C-280.240742 31.517891 -279.481484 31.035781 -278.699219 30.539062 C-277.705352 29.907422 -276.711484 29.275781 -275.6875 28.625 C-274.701367 27.998516 -273.715234 27.372031 -272.699219 26.726562 C-270.787121 25.503484 -268.888597 24.259064 -267 23 Z M49 27 C46.625 27.625 46.625 27.625 44 28 C43.34 27.34 42.68 26.68 42 26 C45.485819 24.797994 45.679923 24.786616 49 27 Z M-283 33 C-282.34 33.33 -281.68 33.66 -281 34 C-286 39 -286 39 -288 40 C-288 40.66 -288 41.32 -288 42 C-289.32 42 -290.64 42 -292 42 C-294.020548 43.641695 -296.020431 45.309118 -298 47 C-300.375 47.8125 -300.375 47.8125 -302 48 C-298.742519 43.340459 -294.958691 40.691627 -290.25 37.6875 C-289.901309 37.460303 -289.901309 37.460303 -288.136719 36.310547 C-286.429314 35.199565 -284.71531 34.098737 -283 33 Z M-278 34 C-275 35 -275 35 -275 35 Z M60 36 C60.33 36.66 60.66 37.32 61 38 C60.34 37.67 59.68 37.34 59 37 C59.33 36.67 59.66 36.34 60 36 Z M71 37 C75.32039 38.477398 78.556362 40.690465 82.1875 43.4375 C83.23293 44.219961 84.278359 45.002422 85.355469 45.808594 C88 48 88 48 90 51 C89.01 51.33 88.02 51.66 87 52 C86.67 51.01 86.34 50.02 86 49 C82.4375 47.8125 82.4375 47.8125 79 47 C79 46.01 79 45.02 79 44 C77.515 43.67 77.515 43.67 70 42 C70.33 40.35 70.66 38.7 71 37 Z M-286 38 C-284 39 -284 39 -284 39 Z M-286 40 C-284 41 -284 41 -284 41 Z M-304 48 C-303.34 48.33 -302.68 48.66 -302 49 C-304.166875 51.275219 -306.456205 53.157942 -309 55 C-309.66 54.67 -310.32 54.34 -311 54 C-308.69 52.02 -306.38 50.04 -304 48 Z M79 48 C79.33 48.66 79.66 49.32 80 50 C79.34 49.67 78.68 49.34 78 49 C78.33 48.67 78.66 48.34 79 48 Z M-302 49 C-301.01 49.99 -300.02 50.98 -299 52 C-299.99 51.67 -300.98 51.34 -302 51 C-302 50.34 -302 49.68 -302 49 Z M-303 51 C-302.34 51.66 -301.68 52.32 -301 53 C-301.66 53 -302.32 53 -303 53 C-303 52.34 -303 51.68 -303 51 Z M90 51 C95.412875 52.51057 98.804497 56.214142 102.75 60 C103.434492 60.641953 104.118984 61.283906 104.824219 61.945312 C109.852267 66.704535 109.852267 66.704535 111 69 C107.504514 68.611613 105.915828 67.102505 103.554688 64.609375 C101.577883 62.563035 99.526642 60.619101 97.4375 58.6875 C96.693711 57.990117 95.949922 57.292734 95.183594 56.574219 C93 55 93 55 89 55 C89.33 53.68 89.66 52.36 90 51 Z M-311 55 C-311 55.66 -311 56.32 -311 57 C-312.626264 58.382324 -314.2925 59.719375 -316 61 C-316.66 60.67 -317.32 60.34 -318 60 C-313.25 55 -313.25 55 -311 55 Z M92 56 C94 57 94 57 94 57 Z M-320 61 C-319.01 61.33 -318.02 61.66 -317 62 C-317.33 62.165 -317.33 62.165 -319 63 C-319.33 63.66 -319.66 64.32 -320 65 C-320.99 65.66 -321.98 66.32 -323 67 C-323 64 -323 64 -321.5 62.3125 C-321.2525 62.095938 -321.2525 62.095938 -320 61 Z M-325 66 C-325 66.99 -325 67.98 -325 69 C-325.66 69.33 -325.66 69.33 -329 71 C-327.68 69.35 -326.36 67.7 -325 66 Z M111 69 C111.66 69.66 112.32 70.32 113 71 C112.34 71 111.68 71 111 71 C111 70.34 111 69.68 111 69 Z M113 71 C113.66 71 114.32 71 115 71 C114.67 71.66 114.34 72.32 114 73 C113.67 72.34 113.34 71.68 113 71 Z M-333 73 C-332.34 73 -331.68 73 -331 73 C-331.33 73.99 -331.66 74.98 -332 76 C-332.33 75.01 -332.66 74.02 -333 73 Z M115 73 C115.66 73 116.32 73 117 73 C117 73.66 117 74.32 117 75 C116.34 75 115.68 75 115 75 C115 74.34 115 73.68 115 73 Z M-334 75 C-333.34 75.66 -332.68 76.32 -332 77 C-333.3125 79 -333.3125 79 -335 81 C-335.99 81 -336.98 81 -338 81 C-338.33 81.99 -338.66 82.98 -339 84 C-339.33 83.01 -339.66 82.02 -340 81 C-338.02 79.02 -336.04 77.04 -334 75 Z M119 77 C119.99 77.33 120.98 77.66 122 78 C122 78.66 122 79.32 122 80 C121.01 79.67 120.02 79.34 119 79 C119 78.34 119 77.68 119 77 Z M122 80 C129.266707 86.080306 135.622047 92.32699 141.4375 99.8125 C141.887141 100.388147 142.336782 100.963794 142.800049 101.556885 C146 105.752514 146 105.752514 146 108 C145.01 108.33 144.02 108.66 143 109 C142.34 107.02 141.68 105.04 141 103 C139.68 103.99 138.36 104.98 137 106 C136.173616 103.107657 136 101.112576 136 98 C134.68 97.67 133.36 97.34 132 97 C132 95.68 132 94.36 132 93 C131.01 92.67 130.02 92.34 129 92 C128.896875 91.4225 128.79375 90.845 128.6875 90.25 C127.619431 86.754502 124.753267 85.284626 122 83 C122 82.01 122 81.02 122 80 Z M-341 82 C-340.67 82.66 -340.34 83.32 -340 84 C-340.66 83.67 -341.32 83.34 -342 83 C-341.67 82.67 -341.34 82.34 -341 82 Z M119 84 C119.66 84 120.32 84 121 84 C120.67 84.66 120.34 85.32 120 86 C119.67 85.34 119.34 84.68 119 84 Z M-344 85 C-343.34 85.66 -342.68 86.32 -342 87 C-343.65 88.65 -345.3 90.3 -347 92 C-347.66 91.67 -348.32 91.34 -349 91 C-347.35 89.02 -345.7 87.04 -344 85 Z M-351 93 C-350.67 93.99 -350.34 94.98 -350 96 C-350.99 96.99 -351.98 97.98 -353 99 C-353.33 98.34 -353.66 97.68 -354 97 C-353.01 95.68 -352.02 94.36 -351 93 Z M-355 98 C-354.34 98.66 -353.68 99.32 -353 100 C-353.66 100 -354.32 100 -355 100 C-355.33 100.99 -355.66 101.98 -356 103 C-356.66 103 -357.32 103 -358 103 C-356.125 99.125 -356.125 99.125 -355 98 Z M134 98 C136 99 136 99 136 99 Z M-360 104 C-359.67 104.99 -359.34 105.98 -359 107 C-360.8125 110.1875 -360.8125 110.1875 -363 113 C-363.66 113 -364.32 113 -365 113 C-365 113.66 -365 114.32 -365 115 C-365.66 115 -366.32 115 -367 115 C-367.268125 115.78375 -367.53625 116.5675 -367.8125 117.375 C-369 120 -369 120 -372 122 C-370.517246 117.62466 -368.240055 114.402768 -365.4375 110.75 C-365.231572 110.479297 -365.231572 110.479297 -364.189453 109.109375 C-361.215526 105.215526 -361.215526 105.215526 -360 104 Z M144 109 C146 110 146 110 146 110 Z M147 109 C147.66 109.33 148.32 109.66 149 110 C148.67 110.66 148.34 111.32 148 112 C147.34 111.34 146.68 110.68 146 110 C146.33 109.67 146.66 109.34 147 109 Z M149 112 C154.11907 116.639157 158.347316 122.14483 162 128 C162 128.99 162 129.98 162 131 C160.0625 130.3125 160.0625 130.3125 158 129 C157.25 126.375 157.25 126.375 157 124 C155.68 123.67 154.36 123.34 153 123 C153 121.68 153 120.36 153 119 C151.5 117.375 151.5 117.375 150 116 C150 115.34 150 114.68 150 114 C149.34 113.67 148.68 113.34 148 113 C148.33 112.67 148.66 112.34 149 112 Z M-364 115 C-363.67 115.99 -363.34 116.98 -363 118 C-363.33 118.165 -363.33 118.165 -365 119 C-365.66 119.99 -366.32 120.98 -367 122 C-367.33 120.68 -367.66 119.36 -368 118 C-366.68 117.67 -365.36 117.34 -364 117 C-364 116.34 -364 115.68 -364 115 Z M-373 122 C-373 124.621137 -373.312924 126.509351 -374 129 C-374.66 128.67 -375.32 128.34 -376 128 C-374.125 123.125 -374.125 123.125 -373 122 Z M-377 128 C-377 131 -377 131 -377 131 Z M-379 131 C-378.67 131.66 -378.34 132.32 -378 133 C-378.99 133.99 -379.98 134.98 -381 136 C-380.34 134.35 -379.68 132.7 -379 131 Z M162 131 C164.5625 133.25 164.5625 133.25 167 136 C166.8125 138.3125 166.8125 138.3125 166 140 C164.477005 137.062795 163.198997 134.083135 162 131 Z M-382 136 C-381.312924 138.490649 -381 140.378863 -381 143 C-381.99 143.33 -382.98 143.66 -384 144 C-387.762145 149.53313 -390.549787 155.474041 -392 162 C-392.66 162 -393.32 162 -394 162 C-394.33 163.98 -394.66 165.96 -395 168 C-395.66 167.34 -396.32 166.68 -397 166 C-396.640305 162.072732 -395.162644 159.012741 -393.347656 155.550781 C-392.818496 154.538223 -392.289336 153.525664 -391.744141 152.482422 C-391.189199 151.436348 -390.634258 150.390273 -390.0625 149.3125 C-389.511426 148.254824 -388.960352 147.197148 -388.392578 146.107422 C-384.272206 138.272206 -384.272206 138.272206 -382 136 Z M167 139 C168.32 140.32 169.64 141.64 171 143 C170.67 143.99 170.34 144.98 170 146 C168.5 144.75 168.5 144.75 167 143 C167 141.68 167 140.36 167 139 Z M167 146 C169 148 169 148 169 151 C169.99 151 170.98 151 172 151 C171.67 151.66 171.34 152.32 171 153 C168.4375 153.625 168.4375 153.625 166 154 C166 150.887424 166.173616 148.892343 167 146 Z M171 146 C174.091691 148.529565 174.909313 151.224546 176 155 C172.908309 152.470435 172.090687 149.775454 171 146 Z M176 155 C180.220315 158.739199 181.962818 163.894717 184.25 168.9375 C184.721797 169.939746 185.193594 170.941992 185.679688 171.974609 C186.120547 172.940762 186.561406 173.906914 187.015625 174.902344 C187.420713 175.783982 187.825801 176.66562 188.243164 177.573975 C189.067847 180.217482 188.950057 181.440123 188 184 C187.54625 183.175 187.0925 182.35 186.625 181.5 C186.08875 180.675 185.5525 179.85 185 179 C184.34 179 183.68 179 183 179 C182.896875 178.236875 182.79375 177.47375 182.6875 176.6875 C181.75867 171.705591 180.378836 166.87362 179 162 C178.34 162 177.68 162 177 162 C177 161.01 177 160.02 177 159 C176.34 159 175.68 159 175 159 C175.33 157.68 175.66 156.36 176 155 Z M-391 157 C-390.67 157.165 -390.67 157.165 -389 158 C-389.33 158.165 -389.33 158.165 -391 159 C-391 158.34 -391 157.68 -391 157 Z M174 160 C174.66 160 175.32 160 176 160 C176 160.66 176 161.32 176 162 C175.34 162 174.68 162 174 162 C174 161.34 174 160.68 174 160 Z M176 162 C176.66 162.33 177.32 162.66 178 163 C177.67 163.99 177.34 164.98 177 166 C176.34 165.67 175.68 165.34 175 165 C175.33 164.01 175.66 163.02 176 162 Z M-398 166 C-396.25901 169.481979 -397.129638 173.2993 -398 177 C-399.875 179.1875 -399.875 179.1875 -402 181 C-403.754276 183.988766 -404.903773 186.381399 -405.4375 189.8125 C-405.940701 192.663972 -406.599071 194.48514 -407.8125 197.0625 C-411.089699 204.143164 -413.796551 211.772174 -414.625 219.5625 C-415.116732 224.07004 -416.520648 226.280971 -419 230 C-418.536122 223.285656 -417.456332 217.164932 -415.4375 210.75 C-415.176465 209.90373 -414.91543 209.057461 -414.646484 208.185547 C-410.119501 193.760404 -405.379703 179.249921 -398 166 Z M-397 168 C-396.67 168 -396.34 168 -396 168 C-396 169.98 -396 171.96 -396 174 C-396.33 174 -396.66 174 -397 174 C-397 172.02 -397 170.04 -397 168 Z M189 184 C192.690237 185.845119 193.159097 190.708574 194.427246 194.432373 C194.869619 195.766934 195.310501 197.10199 195.75 198.4375 C195.973431 199.112375 196.196862 199.787249 196.427063 200.482574 C207.207151 233.21761 212.228646 266.715665 212.25 301.125 C212.250675 302.103539 212.251349 303.082079 212.252045 304.090271 C212.23509 319.601099 211.587278 334.67574 209 350 C208.828394 351.051714 208.656787 352.103428 208.47998 353.187012 C202.683072 387.963279 192.712888 427.857448 172 457 C171.34 456.67 170.68 456.34 170 456 C170.268125 455.484375 170.53625 454.96875 170.8125 454.4375 C172.323494 451.335986 173.655727 448.177372 175 445 C175.66 445 176.32 445 177 445 C176.9175 444.278125 176.835 443.55625 176.75 442.8125 C177.077358 439.129723 178.636716 437.780334 181 435 C182.3125 432.3125 182.3125 432.3125 183 430 C182.67 429.34 182.34 428.68 182 428 C182.99 428 183.98 428 185 428 C184.742188 427.618438 184.742188 427.618438 183.4375 425.6875 C183.200312 425.244062 183.200312 425.244062 182 423 C182.33 422.01 182.66 421.02 183 420 C183.66 420.99 184.32 421.98 185 423 C185.799531 419.713038 186.096589 418.289768 185 415 C185.66 415 186.32 415 187 415 C187.165 415.33 187.165 415.33 188 417 C188.33 415.35 188.66 413.7 189 412 C189.33 412 189.66 412 190 412 C190.061875 411.62875 190.061875 411.62875 190.375 409.75 C190.970497 407.129813 191.752286 405.356793 193 403 C195.707562 397.176041 197.476072 391.24477 199.1875 385.0625 C199.460137 384.09248 199.732773 383.122461 200.013672 382.123047 C200.680037 379.749853 201.342028 377.375532 202 375 C200.68 375 199.36 375 198 375 C198.33 372.69 198.66 370.38 199 368 C199.154688 368.319687 199.154688 368.319687 199.9375 369.9375 C201 372 201 372 202 373 C202.030293 372.680957 202.030293 372.680957 202.183594 371.066406 C202.267383 370.240117 202.351172 369.413828 202.4375 368.5625 C202.518711 367.738789 202.599922 366.915078 202.683594 366.066406 C203 364 203 364 204 363 C204.853815 359.706714 205.400408 356.347361 206 353 C206.189492 352.020312 206.378984 351.040625 206.574219 350.03125 C208.07089 341.284743 208.155463 332.764603 208.01416 323.907471 C208.000464 322.957029 207.986768 322.006587 207.972656 321.027344 C207.963673 320.603202 207.963673 320.603202 207.918213 318.456787 C208.004204 315.873707 208.426394 313.516167 209 311 C209.33 311 209.66 311 210 311 C210.33 304.73 210.66 298.46 211 292 C210.34 292 209.68 292 209 292 C209.011602 291.056406 209.023203 290.112813 209.035156 289.140625 C209.106603 278.974712 208.74641 269.04186 207 259 C206.87119 257.479485 206.746688 255.958602 206.625 254.4375 C206.137892 249.338083 205.033254 244.491321 203.824219 239.519531 C202.643805 234.478998 201.700023 229.400124 200.746094 224.3125 C200.080381 221.356875 199.220121 218.76491 198 216 C197.67 216.165 197.67 216.165 196 217 C196.226875 216.21625 196.45375 215.4325 196.6875 214.625 C197.163745 209.100561 195.48831 203.947665 192.996094 199.011719 C191.852377 196.701859 191.112287 194.406293 190.375 191.9375 C190.114609 191.080273 189.854219 190.223047 189.585938 189.339844 C189 187 189 187 189 184 Z M198 220 C198.66 220.33 199.32 220.66 200 221 C200 221.66 200 222.32 200 223 C199.01 222.67 198.02 222.34 197 222 C197.33 221.34 197.66 220.68 198 220 Z M-420 230 C-419.67 230 -419.34 230 -419 230 C-419.384477 237.29495 -419.871548 243.98863 -422 251 C-423.814415 260.995243 -424.53427 271.021696 -425.060303 281.150146 C-425.187565 283.563727 -425.330561 285.976042 -425.474609 288.388672 C-426.683665 309.949006 -426.683665 309.949006 -424 318 C-423.984537 319.483542 -424.031642 320.968296 -424.121094 322.449219 C-424.145264 322.872998 -424.145264 322.872998 -424.267578 325.017578 C-424.323652 325.898652 -424.379727 326.779727 -424.4375 327.6875 C-424.489707 328.580176 -424.541914 329.472852 -424.595703 330.392578 C-424.725282 332.595416 -424.860242 334.797789 -425 337 C-424.34 337 -423.68 337 -423 337 C-422.835 336.67 -422.835 336.67 -422 335 C-422 337.071648 -422.012503 339.14332 -422.035156 341.214844 C-422.04418 342.44332 -422.053203 343.671797 -422.0625 344.9375 C-422.074102 346.163398 -422.085703 347.389297 -422.097656 348.652344 C-422.017979 351.383688 -421.721867 353.411428 -421 356 C-420.961117 358.333009 -420.955137 360.667098 -421 363 C-420.34 363 -419.68 363 -419 363 C-418.4375 364.9375 -418.4375 364.9375 -418 367 C-418.33 367.33 -418.66 367.66 -419 368 C-418.60327 369.930359 -418.131331 371.84545 -417.625 373.75 C-416.068467 379.656098 -416.068467 379.656098 -415.488281 382.570312 C-414.972287 385.1379 -414.303669 387.613474 -413.5625 390.125 C-413.316289 390.973203 -413.070078 391.821406 -412.816406 392.695312 C-412 395 -412 395 -410 398 C-410.33 398.99 -410.66 399.98 -411 401 C-410.34 401 -409.68 401 -409 401 C-408.261674 405.324481 -407.60825 409.655355 -407 414 C-410.465293 410.534707 -411.289594 405.599504 -412.75 401 C-413.103445 399.888022 -413.45689 398.776045 -413.821045 397.630371 C-419.459129 379.474951 -423.622488 360.865302 -426 342 C-426.051482 341.615134 -426.051482 341.615134 -426.312012 339.66748 C-430.326087 308.626566 -434.275809 258.551618 -420 230 Z M201 231 C201.33 232.32 201.66 233.64 202 235 C201.67 235.165 201.67 235.165 200 236 C200.33 234.35 200.66 232.7 201 231 Z M201 236 C203 237 203 237 203 237 Z M197 380 C197.495 380.33 197.495 380.33 200 382 C199.01 383.98 198.02 385.96 197 388 C196.67 388 196.34 388 196 388 C196.33 385.36 196.66 382.72 197 380 Z M-412 392 C-411.34 392 -410.68 392 -410 392 C-410.33 393.32 -410.66 394.64 -411 396 C-411.33 394.68 -411.66 393.36 -412 392 Z M-406 412 C-405.67 412.165 -405.67 412.165 -404 413 C-404.33 413.165 -404.33 413.165 -406 414 C-406 413.34 -406 412.68 -406 412 Z M182 412 C183.32 412.33 184.64 412.66 186 413 C185.67 413.66 185.34 414.32 185 415 C184.01 415 183.02 415 182 415 C182 414.01 182 413.02 182 412 Z M-407 414 C-404.401913 415.592376 -403.16692 416.365704 -402.375 419.375 C-402.25125 420.24125 -402.1275 421.1075 -402 422 C-400.356164 426.821918 -400.356164 426.821918 -398 428 C-398.33 429.65 -398.66 431.3 -399 433 C-402.264525 431.367738 -402.862547 427.87476 -404.125 424.625 C-404.402148 423.939219 -404.679297 423.253438 -404.964844 422.546875 C-406.145074 419.558508 -407 417.241024 -407 414 Z M-399 433 C-398.34 434.32 -397.68 435.64 -397 437 C-397.66 436.67 -398.32 436.34 -399 436 C-399 435.01 -399 434.02 -399 433 Z M-397 437 C-394.476054 440.124886 -392.602981 443.313144 -391 447 C-391.33 447.66 -391.66 448.32 -392 449 C-392.841142 447.567055 -393.672657 446.128456 -394.5 444.6875 C-394.732031 444.287246 -394.732031 444.287246 -395.90625 442.261719 C-397 440 -397 440 -397 437 Z M175 437 C175.66 437.66 176.32 438.32 177 439 C176.34 439 175.68 439 175 439 C175 438.34 175 437.68 175 437 Z M-391 442 C-390.67 442.99 -390.34 443.98 -390 445 C-390.66 445 -391.32 445 -392 445 C-391.67 444.01 -391.34 443.02 -391 442 Z M-391 449 C-390.34 450.32 -389.68 451.64 -389 453 C-389.66 452.67 -390.32 452.34 -391 452 C-391 451.01 -391 450.02 -391 449 Z M-389 453 C-387.624371 454.289652 -386.292336 455.626893 -385 457 C-385 457.66 -385 458.32 -385 459 C-384.01 459.33 -383.02 459.66 -382 460 C-382.33 460.66 -382.66 461.32 -383 462 C-386 461 -386 461 -387.6875 458.625 C-389 456 -389 456 -389 453 Z M170 457 C170.33 457.99 170.66 458.98 171 460 C169.68 461.32 168.36 462.64 167 464 C167 462.68 167 461.36 167 460 C167.66 460 168.32 460 169 460 C169.33 459.01 169.66 458.02 170 457 Z M-384 462 C-383.01 462.99 -382.02 463.98 -381 465 C-381.33 465.66 -381.66 466.32 -382 467 C-382.66 466.34 -383.32 465.68 -384 465 C-384 464.01 -384 463.02 -384 462 Z M167 464 C166.45773 467.795889 164.798724 469.47212 162 472 C161.34 470.68 160.68 469.36 160 468 C164.75 464 164.75 464 167 464 Z M-381 467 C-377.001759 470.665054 -374.398314 474.111129 -372 479 C-372.33 479.66 -372.66 480.32 -373 481 C-374.153309 479.422104 -375.297379 477.837452 -376.4375 476.25 C-377.075586 475.368281 -377.713672 474.486562 -378.371094 473.578125 C-379.827508 471.273009 -380.559318 469.656504 -381 467 Z M159 469 C160.5625 470.25 160.5625 470.25 162 472 C161.577309 475.170185 160.334568 477.220576 158.4375 479.75 C158.20998 480.056797 158.20998 480.056797 157.058594 481.609375 C156.709258 482.068281 156.359922 482.527187 156 483 C155.67 482.01 155.34 481.02 155 480 C156.06547 477.869061 157.291597 476.634124 159 475 C158.67 474.01 158.34 473.02 158 472 C158.33 471.01 158.66 470.02 159 469 Z M-373 476 C-371 477 -371 477 -371 477 Z M148 479 C148.66 479 149.32 479 150 479 C149.67 480.32 149.34 481.64 149 483 C148.67 481.68 148.34 480.36 148 479 Z M-372 481 C-370.35 482.65 -368.7 484.3 -367 486 C-367.99 486 -368.98 486 -370 486 C-370.66 484.35 -371.32 482.7 -372 481 Z M152 484 C152.66 484 153.32 484 154 484 C152.498689 488.520895 149.970255 491.982526 147.0625 495.6875 C146.841104 495.977861 146.841104 495.977861 145.720703 497.447266 C143.621022 500.154008 141.874226 502.083849 139 504 C138.67 503.01 138.34 502.02 138 501 C138.309375 500.95875 138.309375 500.95875 139.875 500.75 C142 500 142 500 142.976562 498.21875 C143.314297 497.486562 143.652031 496.754375 144 496 C144.813203 494.571683 145.646741 493.154756 146.5 491.75 C146.922812 491.043594 147.345625 490.337188 147.78125 489.609375 C147.982344 489.343828 147.982344 489.343828 149 488 C149.66 488 150.32 488 151 488 C151.33 486.68 151.66 485.36 152 484 Z M-363 486 C-362.67 487.32 -362.34 488.64 -362 490 C-362.66 489.67 -363.32 489.34 -364 489 C-363.67 488.01 -363.34 487.02 -363 486 Z M-368 487 C-367.505 487.33 -367.505 487.33 -365 489 C-365.33 489.66 -365.66 490.32 -366 491 C-366.66 489.68 -367.32 488.36 -368 487 Z M-362 490 C-361.01 490.66 -360.02 491.32 -359 492 C-359.66 493.32 -360.32 494.64 -361 496 C-362.32 495.01 -363.64 494.02 -365 493 C-364.67 492.34 -364.34 491.68 -364 491 C-363.67 491.33 -363.34 491.66 -363 492 C-362.67 491.34 -362.34 490.68 -362 490 Z M-361 496 C-360.505 496.33 -360.505 496.33 -358 498 C-358.99 498 -359.98 498 -361 498 C-361 497.34 -361 496.68 -361 496 Z M138 497 C138.66 497 139.32 497 140 497 C140 497.99 140 498.98 140 500 C139.01 500.33 138.02 500.66 137 501 C137.33 499.68 137.66 498.36 138 497 Z M-358 500 C-357.01 500.33 -356.02 500.66 -355 501 C-355 501.66 -355 502.32 -355 503 C-353.68 502.67 -352.36 502.34 -351 502 C-349.875 507.75 -349.875 507.75 -351 510 C-352.172606 508.713723 -353.337928 507.420802 -354.5 506.125 C-355.149688 505.405703 -355.799375 504.686406 -356.46875 503.945312 C-358 502 -358 502 -358 500 Z M135 505 C135.99 505 136.98 505 138 505 C136.630165 508.161158 136.010936 508.992709 133 511 C132.34 510.34 131.68 509.68 131 509 C131.66 508.525625 132.32 508.05125 133 507.5625 C133.66 507.046875 134.32 506.53125 135 506 C135 505.67 135 505.34 135 505 Z M-347 508 C-346.01 508 -345.02 508 -344 508 C-344 508.66 -344 509.32 -344 510 C-344.66 510 -345.32 510 -346 510 C-346.33 510.66 -346.66 511.32 -347 512 C-347.33 511.34 -347.66 510.68 -348 510 C-347.67 509.34 -347.34 508.68 -347 508 Z M132 511 C132 514 132 514 129.8125 516.480469 C128.884375 517.373789 127.95625 518.267109 127 519.1875 C126.071875 520.088555 125.14375 520.989609 124.1875 521.917969 C123.826563 522.261504 123.826563 522.261504 122 524 C122 519.976989 123.324229 518.957431 126 516 C127.949436 514.255017 129.950587 512.630215 132 511 Z M-347 513 C-346.01 513.66 -346.01 513.66 -341 517 C-341.33 517.99 -341.66 518.98 -342 520 C-343.70884 518.376602 -345.374467 516.706809 -347 515 C-347 514.34 -347 513.68 -347 513 Z M-341 520 C-335.42626 522.477218 -331.318031 526.385412 -327.5 531.0625 C-325 534 -325 534 -323 535 C-323 535.66 -323 536.32 -323 537 C-322.34 537 -321.68 537 -321 537 C-321 537.66 -321 538.32 -321 539 C-320.38125 539.103125 -319.7625 539.20625 -319.125 539.3125 C-317 540 -317 540 -315 543 C-319 543 -319 543 -321.078125 541.277344 C-321.794844 540.505195 -322.511562 539.733047 -323.25 538.9375 C-326.15305 535.895983 -329.058396 532.988251 -332.25 530.25 C-335.312355 527.61025 -338.269872 524.986077 -341 522 C-341 521.34 -341 520.68 -341 520 Z M119 524 C119.66 524 120.32 524 121 524 C120.67 524.99 120.34 525.98 120 527 C119.34 526.67 118.68 526.34 118 526 C118.33 525.34 118.66 524.68 119 524 Z M114 525 C116 526 116 526 116 526 Z M-330 526 C-328 527 -328 527 -328 527 Z M116 528 C116 528.99 116 529.98 116 531 C115.34 530.67 114.68 530.34 114 530 C114.66 529.34 115.32 528.68 116 528 Z M111 531 C111.66 531.66 112.32 532.32 113 533 C112.01 533.66 111.02 534.32 110 535 C109.67 534.34 109.34 533.68 109 533 C109.66 533 110.32 533 111 533 C111 532.34 111 531.68 111 531 Z M107 535 C107.66 535.66 108.32 536.32 109 537 C104.353668 541.972179 100.10819 545.945905 94 549 C94 548.34 94 547.68 94 547 C94.66 547 95.32 547 96 547 C96.33 546.01 96.66 545.02 97 544 C99.33203 541.357032 100.616733 540.127756 104 539 C105.6875 536.9375 105.6875 536.9375 107 535 Z M-308 543 C-307.34 543.66 -306.68 544.32 -306 545 C-306.66 545 -307.32 545 -308 545 C-308 544.34 -308 543.68 -308 543 Z M-316 544 C-312.560724 545.241961 -309.747922 546.557403 -307 549 C-307 549.66 -307 550.32 -307 551 C-311.418896 549.649782 -313.343453 547.738843 -316 544 Z M-310 545 C-309.34 545 -308.68 545 -308 545 C-308.33 545.99 -308.66 546.98 -309 548 C-309.33 547.01 -309.66 546.02 -310 545 Z M91 547 C91 547.66 91 548.32 91 549 C91.99 549.33 92.98 549.66 94 550 C85.738041 557.667426 85.738041 557.667426 81 559 C81 558.34 81 557.68 81 557 C82.636042 555.629262 84.306781 554.299447 86 553 C87.017387 552.017695 88.025961 551.025304 89 550 C88.34 549.34 87.68 548.68 87 548 C89 547 89 547 91 547 Z M-300 550 C-297.625 549.8125 -297.625 549.8125 -295 550 C-294.34 550.99 -293.68 551.98 -293 553 C-296 554 -296 554 -298.1875 553.0625 C-298.785625 552.711875 -299.38375 552.36125 -300 552 C-300 551.34 -300 550.68 -300 550 Z M-303 551 C-302.34 551.99 -301.68 552.98 -301 554 C-302.32 554 -303.64 554 -305 554 C-304.34 553.01 -303.68 552.02 -303 551 Z M-301 554 C-295.125 557.625 -295.125 557.625 -294 561 C-297.914029 559.730585 -299.790729 558.488323 -302 555 C-301.67 554.67 -301.34 554.34 -301 554 Z M78 556 C80 557 80 557 80 557 Z M76 557 C76.66 557 77.32 557 78 557 C77.67 557.66 77.34 558.32 77 559 C76.67 558.34 76.34 557.68 76 557 Z M70 558 C72 559 72 559 72 559 Z M79 558 C79.66 558.66 80.32 559.32 81 560 C80.34 560.33 80.34 560.33 77 562 C77 561.34 77 560.68 77 560 C77.66 560 78.32 560 79 560 C79 559.34 79 558.68 79 558 Z M72 559 C74 560 74 560 74 560 Z M74 560 C74.66 560 75.32 560 76 560 C76.33 560.99 76.66 561.98 77 563 C63.764398 572.860883 63.764398 572.860883 59 575 C56.5625 574.25 56.5625 574.25 55 573 C55.928125 572.649375 56.85625 572.29875 57.8125 571.9375 C63.20188 569.624604 68.337212 566.549527 73 563 C73.33 562.01 73.66 561.02 74 560 Z M-294 561 C-293.01 561.33 -292.02 561.66 -291 562 C-291.99 562 -292.98 562 -294 562 C-294 561.67 -294 561.34 -294 561 Z M-291 563 C-288.69 563.66 -286.38 564.32 -284 565 C-284 565.99 -284 566.98 -284 568 C-287.653167 566.750232 -288.780658 566.329012 -291 563 Z M-283 565 C-281 566 -281 566 -281 566 Z M-283 567 C-282.67 567.66 -282.34 568.32 -282 569 C-281.01 569.33 -280.02 569.66 -279 570 C-279.99 570.33 -280.98 570.66 -282 571 C-282.66 570.01 -283.32 569.02 -284 568 C-283.67 567.67 -283.34 567.34 -283 567 Z M-281 567 C-279 568 -279 568 -279 568 Z M-279 571 C-278.01 571.33 -277.02 571.66 -276 572 C-276.99 572 -277.98 572 -279 572 C-279 571.67 -279 571.34 -279 571 Z M-276 573 C-272.757914 573.350496 -271.384723 573.562212 -269.1875 576.0625 C-268.795625 576.701875 -268.40375 577.34125 -268 578 C-273.75 576.375 -273.75 576.375 -276 573 Z M-268 573 C-266 574 -266 574 -266 574 Z M-270 574 C-269.01 574.33 -268.02 574.66 -267 575 C-267.99 575 -268.98 575 -270 575 C-270 574.67 -270 574.34 -270 574 Z M55 575 C57 576 57 576 57 576 Z M55 577 C53.594477 578.036123 52.175083 579.053449 50.75 580.0625 C50.355547 580.346738 50.355547 580.346738 48.359375 581.785156 C46 583 46 583 43.703125 582.683594 C43.141094 582.458008 42.579063 582.232422 42 582 C44.635391 578.977052 46.268177 577.200892 50.1875 576.125 C53 576 53 576 55 577 Z M-267 577 C-266.175 577.33 -266.175 577.33 -262 579 C-262 579.66 -262 580.32 -262 581 C-261.01 580.67 -260.02 580.34 -259 580 C-258.34 580.66 -257.68 581.32 -257 582 C-255.417541 582.873853 -253.809675 583.702289 -252.1875 584.5 C-251.33543 584.922812 -250.483359 585.345625 -249.605469 585.78125 C-247.101444 586.952548 -244.576868 588.000712 -242 589 C-242 589.66 -242 590.32 -242 591 C-240.35 590.67 -238.7 590.34 -237 590 C-237.33 590.99 -237.66 591.98 -238 593 C-236.68 593.66 -235.36 594.32 -234 595 C-237.571064 594.402379 -240.534866 593.444418 -243.800781 591.890625 C-244.696035 591.465234 -245.591289 591.039844 -246.513672 590.601562 C-247.437285 590.155547 -248.360898 589.709531 -249.3125 589.25 C-250.224512 588.819453 -251.136523 588.388906 -252.076172 587.945312 C-257.633999 585.28393 -262.837462 582.365031 -268 579 C-267.67 578.34 -267.34 577.68 -267 577 Z M32 579 C34 580 34 580 34 580 Z M35 581 C35.33 581.66 35.66 582.32 36 583 C36.99 583.33 37.98 583.66 39 584 C37.35 583.67 35.7 583.34 34 583 C34.33 582.34 34.66 581.68 35 581 Z M41 583 C43 584 43 584 43 584 Z M31 584 C31.99 584 32.98 584 34 584 C34 584.66 34 585.32 34 586 C33.01 586 32.02 586 31 586 C31 585.34 31 584.68 31 584 Z M39 584 C41 585 41 585 41 585 Z M37.25 585.3125 C37.53875 585.425938 37.53875 585.425938 39 586 C36.6875 587.5625 36.6875 587.5625 34 589 C33.01 588.67 32.02 588.34 31 588 C34.446154 584.923077 34.446154 584.923077 37.25 585.3125 Z M24 589 C26 590 26 590 26 590 Z M31 590 C29.447072 590.871449 27.882146 591.721537 26.3125 592.5625 C25.877441 592.800332 25.877441 592.800332 23.675781 594.003906 C20.616712 595.142684 19.08137 594.927187 16 594 C18.988788 592.007475 20.578862 591.667539 24 591 C24.70125 590.62875 25.4025 590.2575 26.125 589.875 C28 589 28 589 31 590 Z M-226 594 C-224.35 594 -222.7 594 -221 594 C-221.33 594.66 -221.66 595.32 -222 596 C-224.0625 596.625 -224.0625 596.625 -226 597 C-226 596.01 -226 595.02 -226 594 Z M15 594 C15.99 594.66 16.98 595.32 18 596 C-17.566932 612.940825 -58.681246 621.081897 -98 622 C-98.687231 622.020464 -99.374463 622.040928 -100.08252 622.062012 C-126.01379 622.767585 -152.879408 620.667076 -178 614 C-178 613.67 -178 613.34 -178 613 C-176.68 612.835 -176.68 612.835 -170 612 C-170 612.66 -170 613.32 -170 614 C-169.4225 613.814375 -168.845 613.62875 -168.25 613.4375 C-165.706149 612.942862 -164.486532 613.360606 -162 614 C-161.401875 613.989687 -161.401875 613.989687 -158.375 613.9375 C-155 614 -155 614 -153 616 C-148.524747 616.258188 -144.391457 615.85687 -140 615 C-140.165 615.495 -140.165 615.495 -141 618 C-126.048782 618.861879 -111.161401 619.127037 -96.1875 619.0625 C-94.115235 619.057465 -92.04297 619.052906 -89.970703 619.048828 C-84.980438 619.038003 -79.990233 619.020853 -75 619 C-74.67 618.34 -74.34 617.68 -74 617 C-72.109375 616.65625 -72.109375 616.65625 -69.75 616.5 C-67.017267 616.316595 -65.054229 616.02273 -62.511719 614.957031 C-59.70388 613.887171 -58.035877 613.950524 -55.0625 614.1875 C-45.876033 614.406225 -37.012301 611.691753 -28.169678 609.458984 C-26 609 -26 609 -23 609 C-22.67 608.34 -22.34 607.68 -22 607 C-20.02 607 -18.04 607 -16 607 C-16 606.34 -16 605.68 -16 605 C-16.33 604.835 -16.33 604.835 -18 604 C-17.01 604 -16.02 604 -15 604 C-15 604.66 -15 605.32 -15 606 C-14.468906 605.783437 -13.937813 605.566875 -13.390625 605.34375 C-12.684219 605.065313 -11.977813 604.786875 -11.25 604.5 C-10.553906 604.221563 -9.857813 603.943125 -9.140625 603.65625 C-7 603 -7 603 -3 603 C-2.67 602.01 -2.34 601.02 -2 600 C0.502821 599.169666 2.876265 598.512181 5.4375 597.9375 C12.754076 596.245924 12.754076 596.245924 15 594 Z M-234 595 C-228.349794 595.601086 -223.338355 597.075287 -218 599 C-218 599.66 -218 600.32 -218 601 C-217.405742 601.097969 -216.811484 601.195938 -216.199219 601.296875 C-210.301239 602.360896 -204.922503 603.997459 -199.347656 606.195312 C-197 607 -197 607 -194 607 C-194 607.66 -194 608.32 -194 609 C-200.472393 608.427355 -206.178502 606.855353 -212.3125 604.75 C-213.234421 604.438611 -214.156343 604.127222 -215.106201 603.806396 C-221.600705 601.575897 -227.871391 599.114539 -234 596 C-234 595.67 -234 595.34 -234 595 Z M-194 606 C-192 607 -192 607 -192 607 Z M-194 609 C-188.237169 608.54504 -183.394317 610.209001 -178 612 C-178 612.33 -178 612.66 -178 613 C-183.604615 612.5791 -188.720865 612.083869 -194 610 C-194 609.67 -194 609.34 -194 609 Z " fill="#5959EA" transform="translate(450,36)"/>
<path d="M0 0 C0.496609 -0.005023 0.496609 -0.005023 3.00975 -0.030441 C3.559495 -0.033357 3.559495 -0.033357 6.341537 -0.048111 C7.493068 -0.057895 8.644599 -0.067679 9.831024 -0.077759 C13.671024 -0.107843 17.510988 -0.129155 21.351059 -0.147964 C22.666159 -0.154536 23.981259 -0.161108 25.33621 -0.167879 C30.880381 -0.194319 36.424552 -0.217297 41.968766 -0.232375 C49.863904 -0.254105 57.758347 -0.295633 65.653207 -0.365813 C71.225526 -0.413617 76.797662 -0.437385 82.370179 -0.444572 C85.683553 -0.449457 88.995536 -0.467016 92.308794 -0.504316 C111.159812 -0.7048 128.814477 0.922287 146.409653 8.160629 C146.409653 8.820629 146.409653 9.480629 146.409653 10.160629 C147.729653 9.830629 149.049653 9.500629 150.409653 9.160629 C150.409653 10.150629 150.409653 11.140629 150.409653 12.160629 C145.043861 11.249457 140.08967 9.342701 134.979965 7.512192 C119.347049 2.676119 104.165763 2.688085 87.913559 2.648911 C85.266971 2.63204 82.620414 2.614028 79.973846 2.594513 C73.75887 2.551153 67.543919 2.52242 61.328838 2.49919 C53.545147 2.469293 45.761597 2.419431 37.978012 2.369614 C24.121936 2.281017 10.265934 2.222175 -3.590347 2.160629 C-3.920347 21.300629 -4.250347 40.440629 -4.590347 60.160629 C-4.920347 60.160629 -5.250347 60.160629 -5.590347 60.160629 C-5.613475 52.485263 -5.631265 44.8099 -5.642159 37.134507 C-5.647387 33.570855 -5.654483 30.007227 -5.665787 26.443588 C-5.678689 22.350568 -5.683576 18.257573 -5.688004 14.164536 C-5.693165 12.879144 -5.698326 11.593752 -5.703644 10.269409 C-5.703719 9.08826 -5.703795 7.907112 -5.703873 6.69017 C-5.706093 5.644262 -5.708314 4.598354 -5.710602 3.520752 C-5.499202 -0.628184 -3.68958 0.029221 0 0 Z M142.409653 5.160629 C143.069653 5.820629 143.729653 6.480629 144.409653 7.160629 C143.749653 7.160629 143.089653 7.160629 142.409653 7.160629 C142.409653 6.500629 142.409653 5.840629 142.409653 5.160629 Z M150.409653 10.160629 C153.409653 11.160629 153.409653 11.160629 153.409653 11.160629 Z M150.409653 12.160629 C153.049653 12.160629 155.689653 12.160629 158.409653 12.160629 C158.409653 13.150629 158.409653 14.140629 158.409653 15.160629 C159.523403 15.779379 160.637153 16.398129 161.784653 17.035629 C164.048715 18.293442 165.555804 19.306781 167.409653 21.160629 C162.767422 21.160629 160.414034 19.63666 156.659653 17.223129 C156.057661 16.849946 155.455668 16.476762 154.835434 16.09227 C153.33772 15.149831 151.870549 14.15919 150.409653 13.160629 C150.409653 12.830629 150.409653 12.500629 150.409653 12.160629 Z M159.409653 14.160629 C160.399653 14.490629 161.389653 14.820629 162.409653 15.160629 C161.419653 15.160629 160.429653 15.160629 159.409653 15.160629 C159.409653 14.830629 159.409653 14.500629 159.409653 14.160629 Z M166.409653 22.160629 C170.284653 23.910629 170.284653 23.910629 171.409653 26.160629 C167.534653 24.410629 167.534653 24.410629 166.409653 22.160629 Z M173.409653 25.160629 C174.399653 25.490629 175.389653 25.820629 176.409653 26.160629 C176.409653 27.480629 176.409653 28.800629 176.409653 30.160629 C177.234653 30.490629 177.234653 30.490629 181.409653 32.160629 C181.409653 33.150629 181.409653 34.140629 181.409653 35.160629 C182.007778 35.387504 182.605903 35.614379 183.222153 35.848129 C185.97051 37.497144 186.801771 39.434222 188.409653 42.160629 C189.399653 42.490629 190.389653 42.820629 191.409653 43.160629 C191.739653 45.470629 192.069653 47.780629 192.409653 50.160629 C189.022724 46.868773 185.969806 43.483711 183.034653 39.785629 C179.401623 35.288462 175.616079 31.123596 171.409653 27.160629 C172.069653 26.500629 172.729653 25.840629 173.409653 25.160629 Z M189.409653 41.160629 C191.409653 42.160629 191.409653 42.160629 191.409653 42.160629 Z M194.409653 48.160629 C194.739653 49.150629 195.069653 50.140629 195.409653 51.160629 C194.749653 51.820629 194.089653 52.480629 193.409653 53.160629 C193.409653 49.160629 193.409653 49.160629 194.409653 48.160629 Z M199.409653 51.160629 C198.749653 53.140629 198.089653 55.120629 197.409653 57.160629 C198.069653 57.490629 198.729653 57.820629 199.409653 58.160629 C199.742986 60.160629 200.076319 62.160629 200.409653 64.160629 C201.069653 64.490629 201.729653 64.820629 202.409653 65.160629 C203.261215 67.227036 203.261215 67.227036 204.034653 69.723129 C204.295043 70.549418 204.555434 71.375707 204.823715 72.227036 C205.017075 72.865121 205.210434 73.503207 205.409653 74.160629 C206.069653 73.830629 206.729653 73.500629 207.409653 73.160629 C207.312973 73.500942 207.312973 73.500942 206.823715 75.223129 C206.310213 78.866088 206.944857 81.585719 207.784653 85.160629 C208.060512 86.356879 208.336371 87.553129 208.62059 88.785629 C208.880981 89.899379 209.141371 91.013129 209.409653 92.160629 C210.247248 95.783211 210.517061 99.076695 210.472153 102.793442 C210.464418 103.846606 210.456684 104.89977 210.448715 105.984848 C210.44227 106.529477 210.44227 106.529477 210.409653 109.285629 C210.384162 111.45485 210.363123 113.62413 210.347153 115.793442 C210.335551 116.751376 210.32395 117.709311 210.311996 118.696274 C210.409653 121.160629 210.409653 121.160629 211.409653 124.160629 C210.749653 124.160629 210.089653 124.160629 209.409653 124.160629 C209.409653 125.810629 209.409653 127.460629 209.409653 129.160629 C208.749653 129.160629 208.089653 129.160629 207.409653 129.160629 C207.409653 132.790629 207.409653 136.420629 207.409653 140.160629 C207.079653 140.325629 207.079653 140.325629 205.409653 141.160629 C205.019211 142.478371 204.700102 143.817302 204.409653 145.160629 C202.695367 150.874915 202.695367 150.874915 200.409653 153.160629 C200.100278 154.171254 199.790903 155.181879 199.472153 156.223129 C199.121528 157.192504 198.770903 158.161879 198.409653 159.160629 C197.914653 159.325629 197.914653 159.325629 195.409653 160.160629 C196.048712 156.010591 197.458719 152.647324 199.222153 148.848129 C209.96753 124.783399 210.684502 96.241092 201.472153 71.598129 C199.854693 67.419229 198.079052 63.368381 195.972153 59.410629 C194.409653 56.160629 194.409653 56.160629 194.686996 54.020004 C195.692997 51.431592 196.696518 51.160629 199.409653 51.160629 Z M-4.590347 60.160629 C10.45724 60.066896 25.504806 59.996509 40.552624 59.953381 C47.540711 59.932817 54.528616 59.904816 61.516586 59.858871 C68.266352 59.814515 75.015929 59.791459 81.765831 59.78112 C84.334907 59.773757 86.903974 59.759377 89.472969 59.737709 C93.084574 59.708472 96.695409 59.704682 100.307114 59.706528 C100.83256 59.699337 100.83256 59.699337 103.491638 59.662949 C111.550086 59.707217 120.578696 60.663991 126.753002 66.29948 C127.299697 66.91366 127.846392 67.527839 128.409653 68.160629 C127.089653 68.160629 125.769653 68.160629 124.409653 68.160629 C124.409653 67.500629 124.409653 66.840629 124.409653 66.160629 C122.099653 65.830629 119.789653 65.500629 117.409653 65.160629 C117.409653 64.500629 117.409653 63.840629 117.409653 63.160629 C104.719109 62.291224 92.081892 62.002626 79.362778 62.030258 C76.35752 62.035724 73.352406 62.03022 70.347153 62.023911 C68.430486 62.02457 66.513819 62.025847 64.597153 62.027817 C63.701496 62.025793 62.805839 62.023768 61.883041 62.021683 C55.639701 62.045605 55.639701 62.045605 53.409653 63.160629 C51.79152 63.255913 50.169503 63.288579 48.548569 63.290024 C47.537345 63.293176 46.52612 63.296328 45.484253 63.299576 C44.388424 63.297552 43.292595 63.295527 42.163559 63.293442 C41.041506 63.294398 39.919452 63.295355 38.763397 63.296341 C36.386937 63.297022 34.010475 63.29517 31.634018 63.291 C27.990828 63.285657 24.347761 63.290944 20.704575 63.297348 C18.399236 63.296687 16.093897 63.295406 13.788559 63.293442 C12.694754 63.295466 11.600949 63.29749 10.473999 63.299576 C9.459623 63.296424 8.445246 63.293271 7.400131 63.290024 C6.506816 63.289228 5.613501 63.288433 4.693115 63.287613 C2.409653 63.160629 2.409653 63.160629 -0.590347 62.160629 C-1.580347 62.490629 -2.570347 62.820629 -3.590347 63.160629 C-3.920347 62.170629 -4.250347 61.180629 -4.590347 60.160629 Z M128.409653 68.160629 C129.399653 68.490629 130.389653 68.820629 131.409653 69.160629 C130.419653 69.160629 129.429653 69.160629 128.409653 69.160629 C128.409653 68.830629 128.409653 68.500629 128.409653 68.160629 Z M-5.590347 70.160629 C14.869653 70.160629 35.329653 70.160629 56.409653 70.160629 C56.449762 90.045686 56.449762 90.045686 56.458481 98.500473 C56.464466 104.277012 56.471559 110.053536 56.485092 115.830063 C56.495931 120.485482 56.501932 125.140884 56.50453 129.796314 C56.506382 131.575377 56.509999 133.354439 56.515383 135.133495 C56.522607 137.61896 56.523643 140.104355 56.523178 142.589828 C56.526773 143.330697 56.530369 144.071566 56.534073 144.834885 C56.523705 149.932525 56.523705 149.932525 55.409653 152.160629 C56.420278 151.541879 57.430903 150.923129 58.472153 150.285629 C63.478326 147.423514 68.767841 146.186413 74.409653 145.160629 C74.079653 143.840629 73.749653 142.520629 73.409653 141.160629 C77.369653 142.150629 81.329653 143.140629 85.409653 144.160629 C82.407149 145.661881 80.016445 146.662543 76.854965 147.562973 C75.992582 147.813696 75.1302 148.064418 74.241684 148.322739 C72.44525 148.837302 70.648378 149.350337 68.851059 149.861801 C64.082502 151.25115 59.825944 152.84173 55.409653 155.160629 C54.749653 155.160629 54.089653 155.160629 53.409653 155.160629 C53.409653 127.440629 53.409653 99.720629 53.409653 71.160629 C44.004653 71.325629 44.004653 71.325629 -3.590347 72.160629 C-3.920347 160.600629 -4.250347 249.040629 -4.590347 340.160629 C-4.920347 340.160629 -5.250347 340.160629 -5.590347 340.160629 C-5.740654 306.05308 -5.885683 271.945513 -6.023595 237.837911 C-6.039867 233.814787 -6.056182 229.791663 -6.072525 225.768539 C-6.074151 225.368059 -6.074151 225.368059 -6.082382 223.341387 C-6.135217 210.357941 -6.191608 197.374512 -6.249305 184.391086 C-6.308392 171.077284 -6.363677 157.76347 -6.415403 144.449638 C-6.447463 136.228703 -6.482519 128.007791 -6.521359 119.786884 C-6.547679 114.155977 -6.57032 108.525062 -6.590018 102.894128 C-6.601508 99.641283 -6.61521 96.388473 -6.632177 93.135651 C-6.650285 89.615585 -6.662268 86.095551 -6.672638 82.575455 C-6.679442 81.538506 -6.686246 80.501558 -6.693255 79.433187 C-6.694002 78.964421 -6.694002 78.964421 -6.697778 76.59218 C-6.701195 75.778819 -6.704613 74.965458 -6.708134 74.12745 C-6.590347 72.160629 -6.590347 72.160629 -5.590347 70.160629 Z M131.409653 70.160629 C134.980697 72.040126 136.957096 73.331161 138.409653 77.160629 C137.419653 77.160629 136.429653 77.160629 135.409653 77.160629 C135.079653 76.170629 134.749653 75.180629 134.409653 74.160629 C132.347153 73.473129 132.347153 73.473129 130.409653 73.160629 C130.739653 72.170629 131.069653 71.180629 131.409653 70.160629 Z M138.409653 77.160629 C140.059653 78.480629 141.709653 79.800629 143.409653 81.160629 C143.079653 82.150629 142.749653 83.140629 142.409653 84.160629 C140.187754 81.938731 139.483664 80.075802 138.409653 77.160629 Z M140.409653 85.160629 C140.739653 85.325629 140.739653 85.325629 142.409653 86.160629 C142.079653 86.325629 142.079653 86.325629 140.409653 87.160629 C140.409653 86.500629 140.409653 85.840629 140.409653 85.160629 Z M144.409653 86.160629 C146.443999 87.575826 147.313757 88.710451 147.831528 91.141098 C148.072392 93.142399 148.24498 95.151624 148.409653 97.160629 C147.089653 96.500629 145.769653 95.840629 144.409653 95.160629 C144.409653 93.840629 144.409653 92.520629 144.409653 91.160629 C143.749653 91.160629 143.089653 91.160629 142.409653 91.160629 C143.284653 87.285629 143.284653 87.285629 144.409653 86.160629 Z M148.409653 97.160629 C151.868288 102.348582 151.022072 109.093572 150.409653 115.160629 C149.038245 121.925767 147.709025 127.495846 142.409653 132.160629 C142.698403 131.356254 142.987153 130.551879 143.284653 129.723129 C144.593224 125.579319 145.52183 121.410843 146.409653 117.160629 C147.069653 117.160629 147.729653 117.160629 148.409653 117.160629 C148.242075 116.470981 148.074496 115.781332 147.90184 115.070786 C146.447845 108.362161 146.466412 103.746055 148.409653 97.160629 Z M141.409653 132.160629 C141.739653 133.150629 142.069653 134.140629 142.409653 135.160629 C141.749653 135.820629 141.089653 136.480629 140.409653 137.160629 C141.318442 137.561528 142.227231 137.962426 143.163559 138.375473 C150.168934 141.521357 156.979697 144.88231 163.597153 148.785629 C164.21985 149.145197 164.842548 149.504765 165.484116 149.875229 C169.273795 152.161504 171.857528 154.550924 174.409653 158.160629 C174.079653 158.325629 174.079653 158.325629 172.409653 159.160629 C172.244653 158.830629 172.244653 158.830629 171.409653 157.160629 C170.419653 156.830629 169.429653 156.500629 168.409653 156.160629 C168.409653 155.500629 168.409653 154.840629 168.409653 154.160629 C165.472448 152.637634 162.492788 151.359626 159.409653 150.160629 C159.409653 149.500629 159.409653 148.840629 159.409653 148.160629 C158.089653 148.160629 156.769653 148.160629 155.409653 148.160629 C155.409653 147.500629 155.409653 146.840629 155.409653 146.160629 C147.929653 143.610629 147.929653 143.610629 145.409653 143.160629 C145.079653 143.325629 145.079653 143.325629 143.409653 144.160629 C143.079653 142.840629 142.749653 141.520629 142.409653 140.160629 C141.089653 140.160629 139.769653 140.160629 138.409653 140.160629 C138.040422 135.606783 138.040422 135.606783 139.909653 133.348129 C140.404653 132.956254 140.899653 132.564379 141.409653 132.160629 Z M90.409653 140.160629 C90.739653 140.820629 91.069653 141.480629 91.409653 142.160629 C91.913032 142.107133 91.913032 142.107133 94.460434 141.836411 C102.649962 141.091639 110.33581 141.109299 118.472153 142.410629 C119.244059 142.532204 120.015966 142.653779 120.811264 142.779037 C133.208377 144.959353 133.208377 144.959353 137.409653 149.160629 C132.510472 148.670711 127.886252 147.811585 123.097153 146.660629 C115.244511 144.957431 107.566939 144.611073 99.534653 144.473129 C98.153113 144.439833 96.771601 144.405333 95.390121 144.369614 C92.063381 144.28819 88.736869 144.218703 85.409653 144.160629 C85.409653 143.500629 85.409653 142.840629 85.409653 142.160629 C87.059653 142.160629 88.709653 142.160629 90.409653 142.160629 C90.409653 141.500629 90.409653 140.840629 90.409653 140.160629 Z M142.409653 146.160629 C144.409653 147.160629 144.409653 147.160629 144.409653 147.160629 Z M144.409653 147.160629 C146.409653 148.160629 146.409653 148.160629 146.409653 148.160629 Z M137.409653 149.160629 C141.974195 149.704027 145.38247 150.955267 149.409653 153.160629 C145.768045 154.374499 145.077998 153.828099 141.722153 152.223129 C141.318032 152.032993 141.318032 152.032993 139.272934 151.070786 C138.658051 150.770434 138.043168 150.470082 137.409653 150.160629 C137.409653 149.830629 137.409653 149.500629 137.409653 149.160629 Z M157.409653 150.160629 C159.409653 151.160629 159.409653 151.160629 159.409653 151.160629 Z M150.409653 151.160629 C150.739653 151.820629 151.069653 152.480629 151.409653 153.160629 C150.749653 152.830629 150.089653 152.500629 149.409653 152.160629 C149.739653 151.830629 150.069653 151.500629 150.409653 151.160629 Z M156.409653 153.160629 C158.409653 154.160629 158.409653 154.160629 158.409653 154.160629 Z M149.409653 154.160629 C151.430107 154.762467 153.430763 155.43369 155.409653 156.160629 C155.739653 156.820629 156.069653 157.480629 156.409653 158.160629 C153.140111 157.596915 151.583894 156.661007 149.409653 154.160629 Z M158.409653 154.160629 C160.409653 155.160629 160.409653 155.160629 160.409653 155.160629 Z M156.409653 158.160629 C157.729653 158.490629 159.049653 158.820629 160.409653 159.160629 C159.089653 159.160629 157.769653 159.160629 156.409653 159.160629 C156.409653 158.830629 156.409653 158.500629 156.409653 158.160629 Z M174.409653 158.160629 C178.204866 159.651606 180.02008 161.917638 182.409653 165.160629 C180.097153 165.035629 180.097153 165.035629 177.409653 164.160629 C175.597153 161.098129 175.597153 161.098129 174.409653 158.160629 Z M159.409653 160.160629 C160.729653 160.160629 162.049653 160.160629 163.409653 160.160629 C164.069653 161.480629 164.729653 162.800629 165.409653 164.160629 C160.534653 162.410629 160.534653 162.410629 159.409653 160.160629 Z M165.409653 160.160629 C166.399653 161.150629 167.389653 162.140629 168.409653 163.160629 C167.089653 162.830629 165.769653 162.500629 164.409653 162.160629 C164.739653 161.500629 165.069653 160.840629 165.409653 160.160629 Z M194.409653 160.160629 C194.739653 160.820629 195.069653 161.480629 195.409653 162.160629 C194.089653 163.480629 192.769653 164.800629 191.409653 166.160629 C193.284653 161.285629 193.284653 161.285629 194.409653 160.160629 Z M167.409653 164.160629 C169.909653 165.473129 169.909653 165.473129 172.409653 167.160629 C172.409653 168.150629 172.409653 169.140629 172.409653 170.160629 C169.248495 168.790794 168.416944 168.171565 166.409653 165.160629 C166.739653 164.830629 167.069653 164.500629 167.409653 164.160629 Z M182.409653 165.160629 C183.069653 165.490629 183.069653 165.490629 186.409653 167.160629 C186.079653 168.150629 185.749653 169.140629 185.409653 170.160629 C184.749653 170.160629 184.089653 170.160629 183.409653 170.160629 C183.244653 169.335629 183.244653 169.335629 182.409653 165.160629 Z M190.409653 166.160629 C191.069653 167.150629 191.729653 168.140629 192.409653 169.160629 C191.409653 170.160629 191.409653 170.160629 188.847153 170.223129 C188.444965 170.212817 188.444965 170.212817 186.409653 170.160629 C187.729653 168.840629 189.049653 167.520629 190.409653 166.160629 Z M173.409653 169.160629 C174.069653 169.160629 174.729653 169.160629 175.409653 169.160629 C175.409653 170.150629 175.409653 171.140629 175.409653 172.160629 C176.069653 172.160629 176.729653 172.160629 177.409653 172.160629 C177.409653 172.820629 177.409653 173.480629 177.409653 174.160629 C178.069653 174.160629 178.729653 174.160629 179.409653 174.160629 C181.034653 175.660629 181.034653 175.660629 182.409653 177.160629 C182.079653 178.150629 181.749653 179.140629 181.409653 180.160629 C178.439653 177.190629 175.469653 174.220629 172.409653 171.160629 C172.739653 170.500629 173.069653 169.840629 173.409653 169.160629 Z M183.409653 181.160629 C184.069653 181.490629 184.069653 181.490629 187.409653 183.160629 C187.079653 184.150629 186.749653 185.140629 186.409653 186.160629 C184.909653 184.785629 184.909653 184.785629 183.409653 183.160629 C183.409653 182.500629 183.409653 181.840629 183.409653 181.160629 Z M187.409653 186.160629 C187.739653 186.325629 187.739653 186.325629 189.409653 187.160629 C189.079653 187.820629 188.749653 188.480629 188.409653 189.160629 C188.079653 188.170629 187.749653 187.180629 187.409653 186.160629 Z M189.409653 189.160629 C190.399653 189.160629 191.389653 189.160629 192.409653 189.160629 C192.079653 190.150629 191.749653 191.140629 191.409653 192.160629 C190.749653 191.830629 190.089653 191.500629 189.409653 191.160629 C189.409653 190.500629 189.409653 189.840629 189.409653 189.160629 Z M191.409653 192.160629 C191.904653 192.490629 191.904653 192.490629 194.409653 194.160629 C194.409653 194.820629 194.409653 195.480629 194.409653 196.160629 C195.729653 195.500629 197.049653 194.840629 198.409653 194.160629 C198.409653 197.460629 198.409653 200.760629 198.409653 204.160629 C199.069653 204.490629 199.729653 204.820629 200.409653 205.160629 C200.079653 206.480629 199.749653 207.800629 199.409653 209.160629 C198.071265 206.704928 196.73879 204.24633 195.409653 201.785629 C195.02809 201.086957 194.646528 200.388286 194.253403 199.668442 C191.409653 194.387192 191.409653 194.387192 191.409653 192.160629 Z M101.097153 201.910629 C101.970493 201.890004 102.843832 201.869379 103.743637 201.848129 C109.667344 201.812737 113.987616 202.762057 119.409653 205.160629 C113.94678 206.981587 109.71462 205.928952 104.409653 204.160629 C98.072712 203.814978 98.072712 203.814978 95.483871 205.164536 C93.031546 206.342206 91.361866 206.365106 88.659653 206.285629 C87.860434 206.267582 87.061215 206.249536 86.237778 206.230942 C85.634496 206.207739 85.031215 206.184536 84.409653 206.160629 C84.079653 206.820629 83.749653 207.480629 83.409653 208.160629 C82.089653 207.830629 80.769653 207.500629 79.409653 207.160629 C80.846368 206.513053 82.284057 205.867635 83.722153 205.223129 C84.522661 204.863481 85.323168 204.503832 86.147934 204.133286 C91.259212 201.935171 95.616236 201.942288 101.097153 201.910629 Z M200.409653 205.160629 C201.069653 205.160629 201.729653 205.160629 202.409653 205.160629 C202.079653 205.820629 201.749653 206.480629 201.409653 207.160629 C201.079653 206.500629 200.749653 205.840629 200.409653 205.160629 Z M121.972153 206.285629 C124.522393 207.2011 125.702137 208.093636 127.409653 210.160629 C125.429653 210.490629 123.449653 210.820629 121.409653 211.160629 C121.409653 210.500629 121.409653 209.840629 121.409653 209.160629 C119.429653 209.160629 117.449653 209.160629 115.409653 209.160629 C117.722579 207.019031 118.757488 206.128816 121.972153 206.285629 Z M79.409653 208.160629 C78.409653 211.160629 78.409653 211.160629 76.722153 212.035629 C75.959028 212.406879 75.195903 212.778129 74.409653 213.160629 C68.653445 217.449568 68.653445 217.449568 67.659653 220.348129 C67.577153 220.946254 67.494653 221.544379 67.409653 222.160629 C66.749653 222.820629 66.089653 223.480629 65.409653 224.160629 C64.419653 224.160629 63.429653 224.160629 62.409653 224.160629 C62.120903 224.944379 61.832153 225.728129 61.534653 226.535629 C60.409653 229.160629 60.409653 229.160629 58.409653 231.160629 C58.921411 222.972499 66.731546 216.395567 72.409653 211.160629 C75.893524 208.160629 75.893524 208.160629 79.409653 208.160629 Z M84.409653 208.160629 C85.729653 208.490629 87.049653 208.820629 88.409653 209.160629 C88.409653 209.820629 88.409653 210.480629 88.409653 211.160629 C87.089653 210.500629 85.769653 209.840629 84.409653 209.160629 C84.409653 208.830629 84.409653 208.500629 84.409653 208.160629 Z M200.409653 209.160629 C211.613581 220.364558 209.511894 245.164139 209.525748 259.822855 C209.522877 262.693274 209.515191 265.563657 209.507309 268.434067 C209.50544 270.4543 209.504018 272.474533 209.503021 274.494766 C209.499236 279.765216 209.489441 285.035637 209.478317 290.306076 C209.468016 295.702902 209.463505 301.099733 209.458481 306.496567 C209.447815 317.051267 209.430788 327.605946 209.409653 338.160629 C210.069653 338.490629 210.729653 338.820629 211.409653 339.160629 C211.409653 339.820629 211.409653 340.480629 211.409653 341.160629 C210.089653 341.160629 208.769653 341.160629 207.409653 341.160629 C207.079653 341.820629 206.749653 342.480629 206.409653 343.160629 C206.409653 342.500629 206.409653 341.840629 206.409653 341.160629 C205.851791 341.325181 205.293929 341.489733 204.719162 341.659271 C202.205669 342.204911 200.027763 342.241977 197.457504 342.182358 C196.47679 342.162262 195.496075 342.142165 194.485641 342.12146 C193.434471 342.094425 192.383301 342.06739 191.300278 342.039536 C190.218331 342.015925 189.136385 341.992314 188.021652 341.967987 C184.567516 341.891442 181.113609 341.807378 177.659653 341.723129 C175.317216 341.669899 172.974768 341.617159 170.632309 341.564926 C164.891282 341.435839 159.150425 341.300579 153.409653 341.160629 C153.409653 342.150629 153.409653 343.140629 153.409653 344.160629 C152.749653 344.160629 152.089653 344.160629 151.409653 344.160629 C151.409653 343.170629 151.409653 342.180629 151.409653 341.160629 C150.419653 341.160629 149.429653 341.160629 148.409653 341.160629 C147.218365 336.919567 147.292304 332.809416 147.327866 328.435776 C147.330932 327.555532 147.333999 326.675289 147.337158 325.768372 C147.344308 323.857539 147.353695 321.946714 147.365053 320.035902 C147.382469 317.00391 147.392752 313.971971 147.40097 310.939941 C147.425392 302.319036 147.460797 293.698201 147.5056 285.077377 C147.532519 279.801346 147.549475 274.525357 147.560469 269.249269 C147.566644 267.245972 147.576605 265.242682 147.590548 263.239424 C147.74572 240.729387 147.74572 240.729387 145.409653 234.160629 C144.749653 233.830629 144.089653 233.500629 143.409653 233.160629 C143.409653 231.510629 143.409653 229.860629 143.409653 228.160629 C142.749653 228.160629 142.089653 228.160629 141.409653 228.160629 C141.244653 227.335629 141.244653 227.335629 140.409653 223.160629 C145.831622 227.420748 147.993967 234.602216 149.409653 241.160629 C149.494727 242.55911 149.531703 243.961042 149.529907 245.362106 C149.531282 246.192192 149.532657 247.022278 149.534073 247.877518 C149.530478 248.779509 149.526882 249.6815 149.523178 250.610825 C149.523324 251.567259 149.52347 252.523693 149.523621 253.509109 C149.522924 256.669014 149.515144 259.82886 149.507309 262.988754 C149.505444 265.180221 149.50402 267.371689 149.503021 269.563156 C149.499204 275.330237 149.48938 281.097293 149.478317 286.864365 C149.466288 293.784363 149.461697 300.704369 149.455864 307.624374 C149.446168 318.136477 149.427006 328.648524 149.409653 339.160629 C168.549653 339.160629 187.689653 339.160629 207.409653 339.160629 C207.280413 314.885887 207.280413 314.885887 207.200668 304.443832 C207.146587 297.351812 207.095469 290.259867 207.063217 283.167709 C207.036981 277.442249 206.996438 271.717044 206.946466 265.991743 C206.929934 263.820406 206.918336 261.649024 206.912039 259.477633 C206.860625 243.36085 205.851446 228.449476 200.409653 213.160629 C200.409653 211.840629 200.409653 210.520629 200.409653 209.160629 Z M127.409653 210.160629 C132.579198 211.570505 136.163066 215.02385 139.409653 219.160629 C140.112778 221.387192 140.112778 221.387192 140.409653 223.160629 C138.034653 222.473129 138.034653 222.473129 135.409653 221.160629 C135.120903 220.376879 134.832153 219.593129 134.534653 218.785629 C132.844643 214.842273 130.188413 214.05001 126.409653 212.160629 C126.739653 211.500629 127.069653 210.840629 127.409653 210.160629 Z M123.409653 215.160629 C124.069653 215.820629 124.729653 216.480629 125.409653 217.160629 C124.749653 217.160629 124.089653 217.160629 123.409653 217.160629 C123.409653 216.500629 123.409653 215.840629 123.409653 215.160629 Z M126.409653 216.160629 C128.409653 217.160629 128.409653 217.160629 128.409653 217.160629 Z M62.409653 226.160629 C62.739653 227.480629 63.069653 228.800629 63.409653 230.160629 C62.749653 230.160629 62.089653 230.160629 61.409653 230.160629 C61.739653 228.840629 62.069653 227.520629 62.409653 226.160629 Z M57.409653 231.160629 C57.739653 231.160629 58.069653 231.160629 58.409653 231.160629 C58.337465 232.208637 58.265278 233.256645 58.190903 234.336411 C58.0971 235.715313 58.003353 237.09422 57.909653 238.473129 C57.885805 238.818276 57.885805 238.818276 57.765121 240.564926 C57.570858 243.437253 57.409653 246.280767 57.409653 249.160629 C56.749653 249.160629 56.089653 249.160629 55.409653 249.160629 C55.517106 259.669971 55.629729 270.179244 55.748992 280.688458 C55.804204 285.568075 55.857622 290.447698 55.906967 295.327377 C55.954635 300.034723 56.006979 304.741996 56.062593 309.449255 C56.083006 311.247008 56.101721 313.044781 56.118727 314.842569 C56.142795 317.356622 56.172847 319.870537 56.20433 322.384506 C56.210086 323.13113 56.215841 323.877754 56.221771 324.647003 C56.266038 327.747759 56.421559 330.196349 57.409653 333.160629 C56.749653 333.160629 56.089653 333.160629 55.409653 333.160629 C55.615903 333.758754 55.822153 334.356879 56.034653 334.973129 C56.409653 337.160629 56.409653 337.160629 54.409653 340.160629 C54.340072 327.130065 54.2868 314.099545 54.254216 301.068832 C54.238576 295.017822 54.217367 288.966938 54.183334 282.916 C54.150683 277.073998 54.132787 271.232117 54.125021 265.39003 C54.119488 263.163753 54.108683 260.937483 54.092463 258.711258 C54.070612 255.587465 54.067689 252.464174 54.069077 249.340317 C54.058291 248.424654 54.047505 247.508992 54.036392 246.565582 C54.06421 240.758936 55.06914 236.484813 57.409653 231.160629 Z M141.409653 231.160629 C142.069653 231.820629 142.729653 232.480629 143.409653 233.160629 C142.749653 233.160629 142.089653 233.160629 141.409653 233.160629 C141.409653 232.500629 141.409653 231.840629 141.409653 231.160629 Z M-4.590347 340.160629 C14.879653 340.160629 34.349653 340.160629 54.409653 340.160629 C53.749653 341.480629 53.089653 342.800629 52.409653 344.160629 C52.409653 343.500629 52.409653 342.840629 52.409653 342.160629 C44.755851 342.13534 37.102061 342.117788 29.448227 342.105698 C26.842754 342.100659 24.237284 342.093828 21.631821 342.08519 C17.893695 342.073104 14.155607 342.067396 10.417465 342.062973 C9.832034 342.060392 9.832034 342.060392 6.8694 342.047333 C5.78843 342.047257 4.707461 342.047182 3.593735 342.047104 C2.638872 342.044883 1.684009 342.042663 0.700211 342.040375 C-1.590347 342.160629 -1.590347 342.160629 -3.590347 343.160629 C-3.920347 342.170629 -4.250347 341.180629 -4.590347 340.160629 Z " fill="#5959EA" transform="translate(244.59034729003906,166.83937072753906)"/>
<path d="M0 0 C0.496609 -0.005023 0.496609 -0.005023 3.00975 -0.030441 C3.559495 -0.033357 3.559495 -0.033357 6.341537 -0.048111 C7.493068 -0.057895 8.644599 -0.067679 9.831024 -0.077759 C13.671024 -0.107843 17.510988 -0.129155 21.351059 -0.147964 C22.666159 -0.154536 23.981259 -0.161108 25.33621 -0.167879 C30.880381 -0.194319 36.424552 -0.217297 41.968766 -0.232375 C49.863904 -0.254105 57.758347 -0.295633 65.653207 -0.365813 C71.225526 -0.413617 76.797662 -0.437385 82.370179 -0.444572 C85.683553 -0.449457 88.995536 -0.467016 92.308794 -0.504316 C111.159812 -0.7048 128.814477 0.922287 146.409653 8.160629 C146.409653 8.820629 146.409653 9.480629 146.409653 10.160629 C147.729653 9.830629 149.049653 9.500629 150.409653 9.160629 C150.409653 10.150629 150.409653 11.140629 150.409653 12.160629 C145.043861 11.249457 140.08967 9.342701 134.979965 7.512192 C119.347049 2.676119 104.165763 2.688085 87.913559 2.648911 C85.266971 2.63204 82.620414 2.614028 79.973846 2.594513 C73.75887 2.551153 67.543919 2.52242 61.328838 2.49919 C53.545147 2.469293 45.761597 2.419431 37.978012 2.369614 C24.121936 2.281017 10.265934 2.222175 -3.590347 2.160629 C-3.920347 21.300629 -4.250347 40.440629 -4.590347 60.160629 C-4.920347 60.160629 -5.250347 60.160629 -5.590347 60.160629 C-5.613475 52.485263 -5.631265 44.8099 -5.642159 37.134507 C-5.647387 33.570855 -5.654483 30.007227 -5.665787 26.443588 C-5.678689 22.350568 -5.683576 18.257573 -5.688004 14.164536 C-5.693165 12.879144 -5.698326 11.593752 -5.703644 10.269409 C-5.703719 9.08826 -5.703795 7.907112 -5.703873 6.69017 C-5.706093 5.644262 -5.708314 4.598354 -5.710602 3.520752 C-5.499202 -0.628184 -3.68958 0.029221 0 0 Z M142.409653 5.160629 C143.069653 5.820629 143.729653 6.480629 144.409653 7.160629 C143.749653 7.160629 143.089653 7.160629 142.409653 7.160629 C142.409653 6.500629 142.409653 5.840629 142.409653 5.160629 Z M150.409653 10.160629 C153.409653 11.160629 153.409653 11.160629 153.409653 11.160629 Z M150.409653 12.160629 C153.049653 12.160629 155.689653 12.160629 158.409653 12.160629 C158.409653 13.150629 158.409653 14.140629 158.409653 15.160629 C159.523403 15.779379 160.637153 16.398129 161.784653 17.035629 C164.048715 18.293442 165.555804 19.306781 167.409653 21.160629 C162.767422 21.160629 160.414034 19.63666 156.659653 17.223129 C156.057661 16.849946 155.455668 16.476762 154.835434 16.09227 C153.33772 15.149831 151.870549 14.15919 150.409653 13.160629 C150.409653 12.830629 150.409653 12.500629 150.409653 12.160629 Z M159.409653 14.160629 C160.399653 14.490629 161.389653 14.820629 162.409653 15.160629 C161.419653 15.160629 160.429653 15.160629 159.409653 15.160629 C159.409653 14.830629 159.409653 14.500629 159.409653 14.160629 Z M166.409653 22.160629 C170.284653 23.910629 170.284653 23.910629 171.409653 26.160629 C167.534653 24.410629 167.534653 24.410629 166.409653 22.160629 Z M-4.590347 60.160629 C10.45724 60.066896 25.504806 59.996509 40.552624 59.953381 C47.540711 59.932817 54.528616 59.904816 61.516586 59.858871 C68.266352 59.814515 75.015929 59.791459 81.765831 59.78112 C84.334907 59.773757 86.903974 59.759377 89.472969 59.737709 C93.084574 59.708472 96.695409 59.704682 100.307114 59.706528 C100.83256 59.699337 100.83256 59.699337 103.491638 59.662949 C111.550086 59.707217 120.578696 60.663991 126.753002 66.29948 C127.299697 66.91366 127.846392 67.527839 128.409653 68.160629 C127.089653 68.160629 125.769653 68.160629 124.409653 68.160629 C124.409653 67.500629 124.409653 66.840629 124.409653 66.160629 C122.099653 65.830629 119.789653 65.500629 117.409653 65.160629 C117.409653 64.500629 117.409653 63.840629 117.409653 63.160629 C104.719109 62.291224 92.081892 62.002626 79.362778 62.030258 C76.35752 62.035724 73.352406 62.03022 70.347153 62.023911 C68.430486 62.02457 66.513819 62.025847 64.597153 62.027817 C63.701496 62.025793 62.805839 62.023768 61.883041 62.021683 C55.639701 62.045605 55.639701 62.045605 53.409653 63.160629 C51.79152 63.255913 50.169503 63.288579 48.548569 63.290024 C47.537345 63.293176 46.52612 63.296328 45.484253 63.299576 C44.388424 63.297552 43.292595 63.295527 42.163559 63.293442 C41.041506 63.294398 39.919452 63.295355 38.763397 63.296341 C36.386937 63.297022 34.010475 63.29517 31.634018 63.291 C27.990828 63.285657 24.347761 63.290944 20.704575 63.297348 C18.399236 63.296687 16.093897 63.295406 13.788559 63.293442 C12.694754 63.295466 11.600949 63.29749 10.473999 63.299576 C9.459623 63.296424 8.445246 63.293271 7.400131 63.290024 C6.506816 63.289228 5.613501 63.288433 4.693115 63.287613 C2.409653 63.160629 2.409653 63.160629 -0.590347 62.160629 C-1.580347 62.490629 -2.570347 62.820629 -3.590347 63.160629 C-3.920347 62.170629 -4.250347 61.180629 -4.590347 60.160629 Z M128.409653 68.160629 C129.399653 68.490629 130.389653 68.820629 131.409653 69.160629 C130.419653 69.160629 129.429653 69.160629 128.409653 69.160629 C128.409653 68.830629 128.409653 68.500629 128.409653 68.160629 Z M131.409653 70.160629 C134.980697 72.040126 136.957096 73.331161 138.409653 77.160629 C137.419653 77.160629 136.429653 77.160629 135.409653 77.160629 C135.079653 76.170629 134.749653 75.180629 134.409653 74.160629 C132.347153 73.473129 132.347153 73.473129 130.409653 73.160629 C130.739653 72.170629 131.069653 71.180629 131.409653 70.160629 Z M138.409653 77.160629 C140.059653 78.480629 141.709653 79.800629 143.409653 81.160629 C143.079653 82.150629 142.749653 83.140629 142.409653 84.160629 C140.187754 81.938731 139.483664 80.075802 138.409653 77.160629 Z M140.409653 85.160629 C140.739653 85.325629 140.739653 85.325629 142.409653 86.160629 C142.079653 86.325629 142.079653 86.325629 140.409653 87.160629 C140.409653 86.500629 140.409653 85.840629 140.409653 85.160629 Z M144.409653 86.160629 C146.443999 87.575826 147.313757 88.710451 147.831528 91.141098 C148.072392 93.142399 148.24498 95.151624 148.409653 97.160629 C147.089653 96.500629 145.769653 95.840629 144.409653 95.160629 C144.409653 93.840629 144.409653 92.520629 144.409653 91.160629 C143.749653 91.160629 143.089653 91.160629 142.409653 91.160629 C143.284653 87.285629 143.284653 87.285629 144.409653 86.160629 Z M148.409653 97.160629 C151.868288 102.348582 151.022072 109.093572 150.409653 115.160629 C149.038245 121.925767 147.709025 127.495846 142.409653 132.160629 C142.698403 131.356254 142.987153 130.551879 143.284653 129.723129 C144.593224 125.579319 145.52183 121.410843 146.409653 117.160629 C147.069653 117.160629 147.729653 117.160629 148.409653 117.160629 C148.242075 116.470981 148.074496 115.781332 147.90184 115.070786 C146.447845 108.362161 146.466412 103.746055 148.409653 97.160629 Z M141.409653 132.160629 C141.739653 133.150629 142.069653 134.140629 142.409653 135.160629 C141.749653 135.820629 141.089653 136.480629 140.409653 137.160629 C141.446059 137.642739 142.482465 138.124848 143.550278 138.621567 C144.920083 139.259558 146.289874 139.897581 147.659653 140.535629 C148.341567 140.852739 149.023481 141.169848 149.726059 141.496567 C152.9754 143.010823 156.216038 144.530898 159.409653 146.160629 C159.409653 146.820629 159.409653 147.480629 159.409653 148.160629 C158.089653 148.160629 156.769653 148.160629 155.409653 148.160629 C155.409653 147.500629 155.409653 146.840629 155.409653 146.160629 C147.929653 143.610629 147.929653 143.610629 145.409653 143.160629 C145.079653 143.325629 145.079653 143.325629 143.409653 144.160629 C143.079653 142.840629 142.749653 141.520629 142.409653 140.160629 C141.089653 140.160629 139.769653 140.160629 138.409653 140.160629 C138.040422 135.606783 138.040422 135.606783 139.909653 133.348129 C140.404653 132.956254 140.899653 132.564379 141.409653 132.160629 Z M142.409653 146.160629 C144.409653 147.160629 144.409653 147.160629 144.409653 147.160629 Z M144.409653 147.160629 C146.409653 148.160629 146.409653 148.160629 146.409653 148.160629 Z " fill="#5959EA" transform="translate(244.59034729003906,166.83937072753906)"/>
<path d="M0 0 C0.496609 -0.005023 0.496609 -0.005023 3.00975 -0.030441 C3.559495 -0.033357 3.559495 -0.033357 6.341537 -0.048111 C7.493068 -0.057895 8.644599 -0.067679 9.831024 -0.077759 C13.671024 -0.107843 17.510988 -0.129155 21.351059 -0.147964 C22.666159 -0.154536 23.981259 -0.161108 25.33621 -0.167879 C30.880381 -0.194319 36.424552 -0.217297 41.968766 -0.232375 C49.863904 -0.254105 57.758347 -0.295633 65.653207 -0.365813 C71.225526 -0.413617 76.797662 -0.437385 82.370179 -0.444572 C85.683553 -0.449457 88.995536 -0.467016 92.308794 -0.504316 C111.159812 -0.7048 128.814477 0.922287 146.409653 8.160629 C146.409653 8.820629 146.409653 9.480629 146.409653 10.160629 C147.729653 9.830629 149.049653 9.500629 150.409653 9.160629 C150.409653 10.150629 150.409653 11.140629 150.409653 12.160629 C145.043861 11.249457 140.08967 9.342701 134.979965 7.512192 C119.347049 2.676119 104.165763 2.688085 87.913559 2.648911 C85.266971 2.63204 82.620414 2.614028 79.973846 2.594513 C73.75887 2.551153 67.543919 2.52242 61.328838 2.49919 C53.545147 2.469293 45.761597 2.419431 37.978012 2.369614 C24.121936 2.281017 10.265934 2.222175 -3.590347 2.160629 C-3.920347 21.300629 -4.250347 40.440629 -4.590347 60.160629 C-4.920347 60.160629 -5.250347 60.160629 -5.590347 60.160629 C-5.613475 52.485263 -5.631265 44.8099 -5.642159 37.134507 C-5.647387 33.570855 -5.654483 30.007227 -5.665787 26.443588 C-5.678689 22.350568 -5.683576 18.257573 -5.688004 14.164536 C-5.693165 12.879144 -5.698326 11.593752 -5.703644 10.269409 C-5.703719 9.08826 -5.703795 7.907112 -5.703873 6.69017 C-5.706093 5.644262 -5.708314 4.598354 -5.710602 3.520752 C-5.499202 -0.628184 -3.68958 0.029221 0 0 Z M142.409653 5.160629 C143.069653 5.820629 143.729653 6.480629 144.409653 7.160629 C143.749653 7.160629 143.089653 7.160629 142.409653 7.160629 C142.409653 6.500629 142.409653 5.840629 142.409653 5.160629 Z M150.409653 10.160629 C153.409653 11.160629 153.409653 11.160629 153.409653 11.160629 Z M150.409653 12.160629 C153.049653 12.160629 155.689653 12.160629 158.409653 12.160629 C158.409653 13.150629 158.409653 14.140629 158.409653 15.160629 C159.523403 15.779379 160.637153 16.398129 161.784653 17.035629 C164.048715 18.293442 165.555804 19.306781 167.409653 21.160629 C162.767422 21.160629 160.414034 19.63666 156.659653 17.223129 C156.057661 16.849946 155.455668 16.476762 154.835434 16.09227 C153.33772 15.149831 151.870549 14.15919 150.409653 13.160629 C150.409653 12.830629 150.409653 12.500629 150.409653 12.160629 Z M159.409653 14.160629 C160.399653 14.490629 161.389653 14.820629 162.409653 15.160629 C161.419653 15.160629 160.429653 15.160629 159.409653 15.160629 C159.409653 14.830629 159.409653 14.500629 159.409653 14.160629 Z M166.409653 22.160629 C170.284653 23.910629 170.284653 23.910629 171.409653 26.160629 C167.534653 24.410629 167.534653 24.410629 166.409653 22.160629 Z M-4.590347 60.160629 C-2.610347 60.160629 -0.630347 60.160629 1.409653 60.160629 C0.089653 61.150629 -1.230347 62.140629 -2.590347 63.160629 C-3.250347 62.170629 -3.910347 61.180629 -4.590347 60.160629 Z " fill="#5959EC" transform="translate(244.59034729003906,166.83937072753906)"/>
<path d="M0 0 C2 1 2 1 2 1 Z M-1 1 C-0.67 1.165 -0.67 1.165 1 2 C1 2.66 1 3.32 1 4 C-56.86437 26.857908 -118.466513 35.367024 -180 24 C-180 23.34 -180 22.68 -180 22 C-176.986758 20.493379 -174.317136 20.822296 -171 21 C-170.34 21.66 -169.68 22.32 -169 23 C-164.524747 23.258188 -160.391457 22.85687 -156 22 C-156.33 22.99 -156.66 23.98 -157 25 C-142.048782 25.861879 -127.161401 26.127037 -112.1875 26.0625 C-110.115235 26.057465 -108.04297 26.052906 -105.970703 26.048828 C-100.980438 26.038003 -95.990233 26.020853 -91 26 C-90.67 25.34 -90.34 24.68 -90 24 C-88.109375 23.65625 -88.109375 23.65625 -85.75 23.5 C-83.017267 23.316595 -81.054229 23.02273 -78.511719 21.957031 C-75.70388 20.887171 -74.035877 20.950524 -71.0625 21.1875 C-61.876033 21.406225 -53.012301 18.691753 -44.169678 16.458984 C-42 16 -42 16 -39 16 C-38.67 15.34 -38.34 14.68 -38 14 C-36.02 14 -34.04 14 -32 14 C-32 13.34 -32 12.68 -32 12 C-32.33 11.835 -32.33 11.835 -34 11 C-33.01 11 -32.02 11 -31 11 C-31 11.66 -31 12.32 -31 13 C-30.468906 12.783437 -29.937813 12.566875 -29.390625 12.34375 C-28.684219 12.065313 -27.977813 11.786875 -27.25 11.5 C-26.553906 11.221563 -25.857813 10.943125 -25.140625 10.65625 C-23 10 -23 10 -19 10 C-18.67 9.01 -18.34 8.02 -18 7 C-15.497179 6.169666 -13.123735 5.512181 -10.5625 4.9375 C-3.245924 3.245924 -3.245924 3.245924 -1 1 Z " fill="#5959EB" transform="translate(466,629)"/>
<path d="M0 0 C0 0.66 0 1.32 0 2 C-8.599892 0.185177 -17.0314 -2.156541 -25.494141 -4.521484 C-31.343334 -6.12601 -36.954763 -7.45985 -43 -8 C-42.67 -7.67 -42.67 -7.67 -41 -6 C-42.65 -5.67 -44.3 -5.34 -46 -5 C-46.165 -5.495 -46.165 -5.495 -47 -8 C-55.183712 -13.455808 -68.035554 -12.347929 -77.571533 -12.658447 C-78.030238 -12.674198 -78.030238 -12.674198 -80.351562 -12.753906 C-81.17479 -12.777834 -81.998018 -12.801763 -82.846191 -12.826416 C-85 -13 -85 -13 -88 -14 C-92.534765 -14.208225 -97.072346 -14.185795 -101.611328 -14.185303 C-103.832235 -14.187458 -106.05262 -14.205533 -108.273438 -14.224609 C-116.069929 -14.254095 -123.451188 -13.873674 -131.141846 -12.394287 C-135.821009 -11.748789 -140.351244 -12.310605 -145 -13 C-141.696042 -14.941415 -138.954825 -15.362459 -135.152344 -15.632812 C-133.999922 -15.716924 -132.8475 -15.801035 -131.660156 -15.887695 C-130.43168 -15.966006 -129.203203 -16.044316 -127.9375 -16.125 C-126.669062 -16.208467 -125.400625 -16.291934 -124.09375 -16.37793 C-82.048744 -18.992403 -39.928026 -13.558706 0 0 Z M-81 -13 C-78 -12 -78 -12 -78 -12 Z " fill="#5959EB" transform="translate(446,34)"/>
<path d="M0 0 C0.66 0 1.32 0 2 0 C2 31.35 2 62.7 2 95 C21.14 95 40.28 95 60 95 C60 95.33 60 95.66 60 96 C56.582002 96.771618 53.435618 97.122573 49.934326 97.113525 C48.953687 97.11345 47.973048 97.113374 46.962692 97.113297 C45.916684 97.108135 44.870675 97.102974 43.792969 97.097656 C43.252703 97.096949 43.252703 97.096949 40.518631 97.093369 C37.074892 97.087781 33.631219 97.07523 30.1875 97.0625 C27.84961 97.057483 25.51172 97.052921 23.173828 97.048828 C17.449196 97.037815 11.724603 97.021089 6 97 C6 97.99 6 98.98 6 100 C5.34 100 4.68 100 4 100 C4 99.01 4 98.02 4 97 C3.01 97 2.02 97 1 97 C0.228574 94.259946 -0.124097 91.83181 -0.120255 88.988342 C-0.121629 88.200327 -0.123004 87.412312 -0.12442 86.600418 C-0.120825 85.745181 -0.11723 84.889943 -0.113525 84.008789 C-0.113671 83.101123 -0.113817 82.193457 -0.113968 81.258286 C-0.113272 78.260708 -0.105493 75.263192 -0.097656 72.265625 C-0.095791 70.186259 -0.094368 68.106893 -0.093369 66.027527 C-0.089552 60.556364 -0.079728 55.085227 -0.068665 49.614075 C-0.058433 44.030481 -0.053867 38.446882 -0.048828 32.863281 C-0.038105 21.908842 -0.021039 10.954423 0 0 Z " fill="#5959EC" transform="translate(392,411)"/>
<path d="M0 0 C0.33 0 0.66 0 1 0 C1.640146 3.393145 2.258848 6.789923 2.875 10.1875 C3.049023 11.108535 3.223047 12.02957 3.402344 12.978516 C6.392131 29.643814 7.338093 46.378737 7.260742 63.284424 C7.249988 66.065488 7.260742 68.845908 7.273438 71.626953 C7.281506 83.862202 6.445061 95.852766 5 108 C4.34 107.67 3.68 107.34 3 107 C2.970924 102.604181 2.953176 98.208386 2.9375 93.8125 C2.929121 92.566621 2.920742 91.320742 2.912109 90.037109 C2.908887 88.835059 2.905664 87.633008 2.902344 86.394531 C2.897107 85.289563 2.89187 84.184595 2.886475 83.046143 C2.990981 80.242006 3.35902 77.725827 4 75 C4.33 75 4.66 75 5 75 C5.33 68.73 5.66 62.46 6 56 C5.34 56 4.68 56 4 56 C4.011602 55.056406 4.023203 54.112813 4.035156 53.140625 C4.106603 42.974712 3.74641 33.04186 2 23 C1.847285 21.417316 1.702254 19.833881 1.5625 18.25 C1.149915 13.779205 0.328484 9.497574 -0.695312 5.128906 C-1 3 -1 3 0 0 Z " fill="#5959EB" transform="translate(655,272)"/>
<path d="M0 0 C0.66 0.66 1.32 1.32 2 2 C1.68677 3.670561 1.346656 5.336053 1 7 C0.779888 11.850332 0.787217 16.292109 2 21 C2.038883 23.333009 2.044863 25.667098 2 28 C2.66 28 3.32 28 4 28 C4.5625 29.9375 4.5625 29.9375 5 32 C4.835 32.165 4.835 32.165 4 33 C4.39673 34.930359 4.868669 36.84545 5.375 38.75 C6.360435 42.489127 7.267754 46.203396 8 50 C8.349615 51.605165 8.703594 53.209387 9.0625 54.8125 C9.239102 55.602695 9.415703 56.392891 9.597656 57.207031 C9.664043 57.502871 9.664043 57.502871 10 59 C9.34 59 8.68 59 8 59 C4.368787 45.271197 0.868786 31.584018 -1.4375 17.5625 C-1.519194 17.066211 -1.519194 17.066211 -1.932617 14.554688 C-2.596774 10.312369 -3.076772 6.302596 -3 2 C-2.01 2 -1.02 2 0 2 C0 1.34 0 0.68 0 0 Z " fill="#5959EB" transform="translate(27,371)"/>
<path d="M0 0 C0.746448 -0.000806 1.492896 -0.001611 2.261963 -0.002441 C6.310008 0.039809 10.152879 0.409263 14.125 1.1875 C14.125 1.5175 14.125 1.8475 14.125 2.1875 C13.193411 2.207319 12.261821 2.227139 11.302002 2.247559 C7.781109 2.326562 4.260569 2.413273 0.73999 2.504883 C-0.771657 2.54271 -2.283379 2.577635 -3.795166 2.609375 C-12.347036 2.791028 -20.589347 3.217466 -29.023438 4.808594 C-33.700146 5.430019 -38.230745 4.876227 -42.875 4.1875 C-39.571042 2.246085 -36.829825 1.825041 -33.027344 1.554688 C-31.873149 1.470657 -30.718955 1.386626 -29.529785 1.300049 C-28.916433 1.260853 -28.916433 1.260853 -25.8125 1.0625 C-24.560015 0.978308 -23.307529 0.894116 -22.01709 0.807373 C-14.677556 0.343185 -7.354771 0.007443 0 0 Z " fill="#5959EC" transform="translate(343.875,16.8125)"/>
<path d="M0 0 C0.33 0.66 0.66 1.32 1 2 C1.503379 1.946504 1.503379 1.946504 4.050781 1.675781 C12.359963 0.921582 20.120703 0.983371 28.375 2.3125 C29.188801 2.442454 30.002603 2.572407 30.841064 2.706299 C34.462646 3.345086 36.905914 3.937276 40 6 C39.67 6.66 39.34 7.32 39 8 C38.17355 7.791414 37.3471 7.582827 36.495605 7.36792 C27.292227 5.200797 18.587163 4.475 9.125 4.3125 C7.74346 4.279204 6.361948 4.244704 4.980469 4.208984 C1.653728 4.127561 -1.672784 4.058074 -5 4 C-5 3.34 -5 2.68 -5 2 C-3.35 2 -1.7 2 0 2 C0 1.34 0 0.68 0 0 Z " fill="#5959EB" transform="translate(335,307)"/>
<path d="M0 0 C0.33 0 0.66 0 1 0 C0.512037 6.14834 -0.35987 12.128678 -1.5 18.1875 C-2.774299 25.016048 -3.39401 31.651945 -3.75 38.59375 C-4.085565 43.165819 -4.92161 47.550333 -6 52 C-6.33 52 -6.66 52 -7 52 C-6.728615 40.221871 -5.713928 28.668684 -4.0625 17 C-3.892666 15.777646 -3.722832 14.555293 -3.547852 13.295898 C-3.378662 12.146377 -3.209473 10.996855 -3.035156 9.8125 C-2.884417 8.787695 -2.733677 7.762891 -2.578369 6.707031 C-2.034074 4.159482 -1.286019 2.25045 0 0 Z " fill="#5959EB" transform="translate(29,274)"/>
<path d="M0 0 C0.66 0.33 1.32 0.66 2 1 C2 1.66 2 2.32 2 3 C3.32 2.67 4.64 2.34 6 2 C7.125 7.75 7.125 7.75 6 10 C3.69 7.36 1.38 4.72 -1 2 C-0.67 1.34 -0.34 0.68 0 0 Z M10 8 C10.99 8 11.98 8 13 8 C13 8.66 13 9.32 13 10 C12.34 10 11.68 10 11 10 C10.67 10.66 10.34 11.32 10 12 C9.67 11.34 9.34 10.68 9 10 C9.33 9.34 9.66 8.68 10 8 Z M10 13 C10.99 13.66 10.99 13.66 16 17 C15.67 17.99 15.34 18.98 15 20 C13.29116 18.376602 11.625533 16.706809 10 15 C10 14.34 10 13.68 10 13 Z " fill="#5959EB" transform="translate(93,536)"/>
<path d="M0 0 C0.33 0.66 0.66 1.32 1 2 C-0.32 3.32 -1.64 4.64 -3 6 C-1.125 1.125 -1.125 1.125 0 0 Z M-4 6 C-3.67 6.99 -3.34 7.98 -3 9 C-3.66 9.66 -4.32 10.32 -5 11 C-3.963594 11.482109 -2.927188 11.964219 -1.859375 12.460938 C-0.48957 13.098929 0.880221 13.736951 2.25 14.375 C2.931914 14.692109 3.613828 15.009219 4.316406 15.335938 C7.565747 16.850193 10.806385 18.370269 14 20 C14 20.66 14 21.32 14 22 C12.68 22 11.36 22 10 22 C10 21.34 10 20.68 10 20 C2.52 17.45 2.52 17.45 0 17 C-0.33 17.165 -0.33 17.165 -2 18 C-2.33 16.68 -2.66 15.36 -3 14 C-4.32 14 -5.64 14 -7 14 C-7.369231 9.446154 -7.369231 9.446154 -5.5 7.1875 C-5.005 6.795625 -4.51 6.40375 -4 6 Z M-3 20 C-1 21 -1 21 -1 21 Z M-1 21 C1 22 1 22 1 22 Z " fill="#5959EB" transform="translate(390,293)"/>
<path d="M0 0 C0.99 0.33 1.98 0.66 3 1 C3.949219 3.066406 3.949219 3.066406 4.6875 5.5625 C4.938867 6.388789 5.190234 7.215078 5.449219 8.066406 C5.630977 8.704492 5.812734 9.342578 6 10 C6.66 9.67 7.32 9.34 8 9 C7.805352 9.680625 7.610703 10.36125 7.410156 11.0625 C6.899925 14.71673 7.569879 17.421544 8.4375 21 C9.425246 25.11044 10.200507 28.765298 10 33 C9.34 33 8.68 33 8 33 C7.841445 31.935234 7.682891 30.870469 7.519531 29.773438 C6.134534 20.995015 4.213533 12.946866 0.988281 4.660156 C0 2 0 2 0 0 Z " fill="#5959EB" transform="translate(444,231)"/>
</svg>
