<svg fill="none" viewBox="0 0 600 600" height="600" width="600" xmlns="http://www.w3.org/2000/svg">
 <radialGradient id="a" cx="0" cy="0" gradientTransform="rotate(54.2 -42.3 263.4) scale(497.082)" gradientUnits="userSpaceOnUse" r="1">
  <stop offset="0" stop-color="#59d4c1" />
  <stop offset="1" stop-color="#05d395" />
 </radialGradient>
 <path d="M300 600a300.2 300.2 0 00294.2-358.5A299.8 299.8 0 0050.6 133.3 300.2 300.2 0 00300 600z" fill="#ffffff" />
 <path d="M300 600a300 300 0 100-600 300 300 0 000 600z" fill="url(#a)" fill-opacity=".75" />
 <g transform="matrix(25,0,0,25,125,137.5)" fill="#2a302f">
  <path d="M11.7368 0L7.34576 1.17005e-06C3.84113 2.01159e-06 1.00006 2.81003 1.00002 6.27641L1 7.92335C1 7.96564 1.03466 7.99993 1.07742 7.99993L1.96286 7.99994C2.00562 7.99994 2.04029 7.96565 2.04029 7.92336L2.0403 6.27642C2.04034 3.3783 4.41566 1.02893 7.34576 1.02893L13.2721 1.02893C13.3314 1.02893 13.3684 0.965833 13.3369 0.916181C12.9996 0.385307 12.4945 0.000458848 11.7381 4.10013e-07C11.7377 1.36688e-07 11.7372 0 11.7368 0Z" />
  <path d="M13.9009 2.53269C13.8946 2.49611 13.8625 2.4695 13.8249 2.4695L7.34596 2.4695C5.16273 2.4695 3.39288 4.22003 3.39287 6.37943L3.39287 7.92342C3.39287 7.96571 3.42753 8 3.47029 8L4.12346 8C4.2945 8 4.43316 7.86286 4.43316 7.69369L4.43316 6.37943C4.43316 4.7883 5.73727 3.49843 7.34596 3.49843L13.9229 3.49843C13.9671 3.49843 14.0024 3.46186 13.9999 3.41819C13.9855 3.16974 13.9571 2.86153 13.9009 2.53269Z" />
  <path d="M2.26323 13L6.65424 13C10.1589 13 12.9999 10.19 13 6.72359L13 5.07665C13 5.03436 12.9653 5.00007 12.9226 5.00007L12.0371 5.00006C11.9944 5.00006 11.9597 5.03435 11.9597 5.07664L11.9597 6.72358C11.9597 9.6217 9.58434 11.9711 6.65424 11.9711H0.727907C0.66862 11.9711 0.631594 12.0342 0.663137 12.0838C1.00039 12.6147 1.50547 12.9995 2.26187 13C2.26233 13 2.26278 13 2.26323 13Z" />
  <path d="M0.0991269 10.4673C0.105378 10.5039 0.137542 10.5305 0.175054 10.5305L6.65404 10.5305C8.83727 10.5305 10.6071 8.77997 10.6071 6.62057L10.6071 5.07658C10.6071 5.03429 10.5725 5 10.5297 5L9.87654 5C9.7055 5 9.56684 5.13714 9.56684 5.30631L9.56684 6.62057C9.56684 8.2117 8.26273 9.50157 6.65404 9.50157L0.077096 9.50157C0.0328721 9.50157 -0.00240024 9.53814 0.000127915 9.58181C0.0145109 9.83026 0.0429395 10.1385 0.0991269 10.4673Z" />
 </g>
</svg>