<svg  width="600" height="600" xmlns="http://www.w3.org/2000/svg" ><path  d="
 M 136 0 C 142 14, 136, 30, 139, 46
 C 140 52, 139, 57, 137, 61
 C 127 67, 128, 77, 121, 82
 C 119 85, 120, 87, 119, 89
 C 99 113, 76, 130, 57, 154
 C 53 158, 51, 163, 53, 169
 C 39 180, 24, 190, 14, 202
 C 10 214, 4, 224, 1, 237
 C 0 310, 0, 383, 0, 456
 C 10 458, 18, 462, 29, 461
 C 47 461, 52, 444, 68, 443
 C 69 441, 66, 440, 67, 439
 C 69 435, 73, 436, 73, 434
 C 65 435, 67, 427, 62, 427
 C 56 422, 52, 418, 49, 414
 C 53 410, 52, 406, 56, 405
 C 65 404, 72, 404, 78, 406
 C 72 399, 69, 394, 65, 388
 C 63 380, 56, 379, 59, 371
 C 61 367, 64, 367, 66, 366
 C 71 365, 74, 367, 77, 368
 C 84 373, 90, 379, 95, 383
 C 92 372, 85, 361, 86, 348
 C 92 343, 95, 342, 100, 344
 C 104 348, 108, 349, 110, 353
 L 112 352 L 113 351 L 113 350
 L 113 347 C 112 344, 105, 346, 107, 340
 C 113 334, 117, 326, 121, 320
 C 125 316, 125, 314, 122, 311
 C 128 306, 129, 302, 130, 297
 C 126 281, 123, 265, 120, 250
 C 121 236, 117, 225, 119, 214
 C 122 212, 124, 212, 124, 213
 C 132 225, 141, 232, 151, 240
 C 159 245, 166, 251, 174, 252
 C 173 243, 169, 232, 168, 224
 C 177 225, 183, 230, 186, 237
 C 193 241, 199, 242, 206, 241
 C 208 237, 211, 233, 216, 231
 C 226 228, 235, 228, 243, 225
 C 246 223, 246, 218, 251, 218
 C 256 218, 259, 217, 263, 218
 C 270 213, 271, 207, 277, 204
 C 280 192, 280, 180, 279, 170
 C 274 170, 272, 172, 271, 175
 C 262 181, 268, 193, 260, 197
 C 250 199, 245, 207, 236, 206
 C 233 203, 227, 195, 224, 192
 C 221 198, 221, 203, 220, 208
 C 213 210, 208, 210, 204, 211
 C 197 214, 197, 220, 195, 223
 C 188 222, 184, 227, 180, 222
 C 180 219, 182, 219, 181, 217
 C 178 214, 174, 212, 176, 207
 C 178 201, 181, 196, 179, 190
 C 177 184, 175, 180, 173, 176
 C 171 171, 167, 172, 163, 171
 C 162 161, 162, 153, 164, 142
 C 173 129, 173, 113, 183, 101
 C 187 95, 179, 91, 183, 86
 C 190 80, 194, 71, 202, 66
 C 203 59, 205, 55, 207, 52
 C 211 51, 213, 49, 216, 50
 C 218 51, 219, 52, 220, 53
 C 231 54, 236, 61, 245, 59
 C 250 65, 255, 67, 260, 70
 C 273 86, 286, 101, 297, 117
 C 314 126, 331, 135, 346, 149
 C 354 148, 357, 151, 361, 153
 C 371 148, 377, 143, 384, 137
 C 389 127, 390, 118, 395, 111
 C 397 98, 397, 87, 395, 77
 C 391 -57, 224, 24, 142, -4" fill="rgb(229,181,254)" />
<path  d="
 M 475 329 C 462 341, 461, 360, 447, 372
 C 439 370, 442, 360, 433, 357
 C 430 356, 429, 356, 428, 356
 C 421 368, 422, 380, 420, 391
 C 414 390, 409, 391, 405, 394
 C 400 406, 401, 418, 397, 428
 C 392 434, 390, 440, 383, 440
 C 381 444, 382, 447, 380, 448
 C 370 447, 363, 450, 353, 449
 C 349 450, 352, 452, 349, 452
 C 345 453, 342, 453, 339, 454
 C 336 457, 337, 460, 336, 462
 C 329 451, 316, 461, 311, 455
 C 308 458, 309, 461, 307, 463
 C 299 462, 292, 457, 284, 455
 C 274 459, 267, 463, 260, 466
 C 251 461, 253, 453, 251, 446
 C 241 453, 230, 448, 223, 455
 C 217 454, 214, 450, 214, 447
 C 199 443, 192, 431, 179, 428
 C 177 424, 178, 421, 177, 420
 C 183 407, 190, 398, 192, 387
 C 189 383, 186, 382, 184, 381
 C 177 386, 171, 391, 167, 398
 C 164 400, 160, 400, 159, 399
 C 153 393, 152, 387, 150, 381
 C 150 367, 149, 356, 148, 344
 C 146 340, 144, 339, 143, 337
 C 140 342, 137, 344, 137, 348
 C 132 360, 133, 372, 130, 383
 C 125 384, 123, 382, 120, 380
 C 116 373, 115, 368, 111, 363
 C 109 359, 105, 357, 104, 355
 C 101 352, 99, 349, 96, 348
 L 95 350
 L 94 352 C 94 354, 94, 356, 93, 357
 C 94 356, 93, 353, 94, 351
 C 97 350, 97, 352, 99, 352
 C 103 354, 98, 355, 99, 357
 C 101 361, 104, 364, 105, 366
 C 105 365, 105, 364, 106, 363
 L 107 361 L 108 359 L 110 362
 L 110 363 C 112 367, 110, 370, 107, 370
 C 110 375, 109, 367, 113, 369
 C 115 374, 116, 375, 120, 377
 C 119 381, 121, 382, 120, 384
 C 123 385, 126, 384, 128, 385
 C 124 387, 123, 388, 122, 389
 C 120 392, 122, 396, 120, 399
 C 112 398, 107, 401, 104, 405
 C 104 412, 106, 414, 104, 421
 C 95 420, 87, 424, 80, 421
 C 88 424, 95, 426, 100, 429
 C 103 426, 104, 425, 103, 422
 C 112 416, 118, 407, 120, 399
 C 126 397, 129, 395, 132, 393
 C 138 390, 141, 396, 145, 392
 C 146 387, 143, 384, 143, 380
 C 137 380, 137, 384, 132, 385
 C 132 372, 136, 361, 136, 349
 C 142 349, 142, 354, 141, 358
 C 143 354, 142, 351, 143, 348
 L 144 346 L 144 344 L 146 345
 L 147 346 C 148 359, 149, 372, 148, 386
 C 154 391, 153, 398, 159, 401
 C 169 400, 172, 389, 179, 387
 C 181 388, 183, 388, 183, 390
 C 187 390, 182, 387, 186, 386
 L 187 384 L 188 384 L 190 385
 L 190 386 C 186 404, 174, 419, 170, 437
 C 161 444, 155, 451, 149, 457
 C 141 464, 133, 466, 124, 466
 C 117 464, 114, 461, 109, 458
 C 98 448, 92, 438, 83, 431
 C 76 430, 76, 424, 71, 424
 C 76 429, 83, 430, 87, 436
 C 98 450, 109, 461, 118, 474
 C 123 481, 131, 479, 136, 482
 C 142 488, 146, 490, 150, 494
 C 153 501, 157, 505, 159, 510
 C 157 516, 158, 518, 159, 521
 C 162 527, 167, 528, 169, 532
 C 170 537, 170, 539, 169, 540
 C 168 545, 167, 548, 166, 551
 C 156 553, 150, 556, 143, 551
 C 140 555, 142, 556, 142, 559
 C 158 567, 176, 568, 192, 573
 C 192 574, 197, 576, 193, 578
 C 191 582, 188, 581, 186, 582
 C 188 584, 191, 583, 192, 586
 C 195 592, 191, 594, 190, 597
 C 261 598, 347, 599, 423, 598
 C 429 591, 420, 590, 421, 585
 C 427 582, 434, 582, 438, 578
 C 435 577, 433, 576, 429, 577
 C 424 575, 422, 572, 419, 570
 C 415 560, 415, 550, 414, 541
 C 410 540, 408, 538, 406, 537
 C 404 532, 405, 527, 403, 524
 C 409 508, 413, 493, 420, 480
 C 422 476, 423, 474, 425, 473
 C 439 471, 448, 463, 459, 459
 C 473 443, 484, 428, 494, 413
 C 526 396, 538, 375, 490, 391
 C 493 381, 493, 379, 496, 377
 C 503 368, 507, 359, 513, 353
 C 513 349, 515, 347, 514, 344
 C 508 342, 507, 348, 504, 348
 C 495 354, 487, 362, 480, 368
 C 477 368, 476, 368, 475, 368
 C 475 358, 478, 351, 480, 343
 C 480 337, 481, 333, 479, 330
 L 478 328 L 477 328 L 477 329" fill="rgb(26,23,83)" />
<path  d="
 M 503 0 C 493 14, 484, 26, 475, 39
 C 470 52, 480, 60, 476, 72
 C 488 88, 493, 108, 503, 123
 C 503 140, 513, 152, 512, 168
 C 513 173, 511, 176, 509, 179
 C 509 191, 511, 201, 508, 213
 C 507 225, 498, 233, 498, 246
 C 506 277, 511, 304, 518, 334
 C 511 335, 510, 340, 505, 340
 C 501 343, 499, 345, 497, 346
 C 491 350, 488, 354, 484, 358
 C 483 350, 484, 343, 487, 336
 C 486 331, 484, 329, 483, 326
 C 480 322, 477, 322, 476, 324
 C 473 327, 468, 328, 467, 330
 C 469 328, 471, 326, 473, 324
 C 478 324, 480, 321, 482, 325
 C 485 329, 485, 332, 486, 335
 C 484 344, 484, 351, 481, 357
 L 483 359
 L 485 358 C 490 352, 497, 346, 504, 342
 C 509 339, 514, 337, 518, 341
 C 521 344, 521, 348, 520, 351
 C 512 363, 506, 371, 498, 381
 C 507 383, 515, 380, 522, 378
 C 529 379, 532, 383, 531, 387
 C 523 402, 506, 404, 499, 418
 C 498 428, 490, 433, 489, 441
 C 483 448, 481, 455, 478, 461
 C 469 472, 453, 468, 449, 480
 C 442 476, 437, 485, 434, 479
 C 431 485, 432, 488, 437, 489
 C 460 487, 482, 484, 501, 479
 C 529 472, 555, 465, 580, 457
 C 588 457, 593, 458, 597, 461
 C 599 424, 599, 388, 598, 352
 C 594 348, 592, 344, 591, 340
 C 593 334, 594, 330, 597, 328
 C 599 309, 598, 291, 599, 273
 C 590 268, 587, 259, 582, 254
 C 582 245, 584, 237, 584, 230
 C 589 224, 593, 220, 597, 217
 C 573 138, 665, -56, 497, 7" fill="rgb(153,86,232)" />
<path  d="
 M 365 0 C 366 7, 374, 12, 375, 19
 C 375 24, 375, 27, 376, 30
 C 382 39, 389, 47, 390, 57
 C 395 71, 399, 85, 397, 100
 C 399 114, 388, 121, 388, 132
 C 380 142, 372, 148, 364, 154
 C 357 151, 352, 150, 346, 150
 C 330 135, 314, 128, 297, 120
 C 286 101, 272, 87, 259, 73
 C 254 68, 250, 66, 247, 61
 C 236 62, 231, 55, 223, 55
 C 219 53, 218, 52, 217, 51
 C 213 50, 211, 52, 208, 51
 C 205 56, 205, 60, 204, 64
 C 194 72, 191, 80, 185, 86
 C 180 91, 188, 95, 185, 99
 C 174 113, 174, 129, 166, 141
 C 163 153, 163, 161, 167, 168
 C 169 169, 172, 174, 173, 174
 C 176 180, 178, 184, 181, 188
 C 182 196, 179, 201, 177, 205
 C 175 212, 180, 213, 183, 215
 C 183 219, 181, 219, 181, 220
 C 185 225, 188, 221, 192, 223
 C 195 218, 198, 214, 201, 211
 C 208 209, 213, 209, 218, 208
 C 220 202, 219, 197, 221, 192
 C 229 194, 232, 203, 237, 204
 C 245 206, 250, 198, 259, 198
 C 267 193, 261, 181, 269, 177
 C 271 172, 273, 169, 277, 169
 C 282 171, 280, 175, 281, 178
 C 281 188, 280, 195, 278, 201
 C 272 207, 270, 214, 264, 218
 C 259 219, 256, 218, 253, 219
 C 247 219, 247, 223, 245, 225
 C 235 229, 226, 229, 217, 231
 C 210 234, 210, 239, 208, 242
 C 199 243, 193, 242, 189, 238
 C 182 231, 178, 226, 170, 224
 C 170 232, 174, 244, 177, 251
 C 166 252, 159, 246, 153, 242
 C 141 233, 132, 226, 126, 215
 C 124 213, 122, 213, 121, 214
 C 118 226, 122, 236, 120, 248
 C 124 265, 127, 281, 132, 295
 C 130 302, 129, 306, 124, 309
 C 126 314, 126, 316, 123, 319
 C 118 327, 114, 334, 109, 340
 C 106 345, 113, 343, 114, 348
 C 113 351, 112, 354, 109, 353
 C 111 354, 113, 356, 114, 357
 C 115 354, 115, 351, 119, 350
 C 119 342, 122, 339, 118, 335
 C 121 330, 120, 328, 122, 326
 C 125 321, 128, 317, 132, 316
 C 130 313, 128, 314, 127, 311
 C 129 306, 133, 303, 134, 299
 C 129 280, 125, 263, 123, 245
 C 121 235, 119, 225, 121, 216
 C 131 225, 137, 233, 148, 240
 L 150 242 L 151 243
 L 153 243 C 159 247, 165, 252, 172, 253
 L 174 253 L 175 253 L 177 254
 L 178 251 C 178 245, 173, 239, 174, 233
 C 184 235, 187, 245, 197, 243
 C 202 244, 205, 243, 209, 244
 C 215 242, 216, 239, 220, 235
 C 229 238, 237, 232, 245, 237
 C 247 231, 248, 226, 251, 222
 C 257 220, 262, 223, 264, 226
 C 271 220, 272, 210, 282, 209
 C 283 205, 279, 201, 284, 200
 C 298 198, 305, 212, 318, 211
 C 327 214, 332, 210, 338, 210
 C 343 212, 340, 215, 342, 215
 C 357 218, 366, 226, 377, 230
 C 384 233, 385, 238, 390, 240
 C 396 240, 399, 245, 402, 246
 C 408 247, 411, 246, 413, 245
 C 422 242, 428, 237, 433, 232
 C 440 223, 445, 219, 450, 212
 C 447 205, 448, 199, 442, 198
 C 443 192, 442, 184, 448, 180
 C 446 173, 450, 166, 445, 162
 C 441 131, 447, 129, 443, 100
 C 440 81, 430, 67, 428, 49
 C 426 37, 426, 27, 424, 17
 C 425 13, 427, 11, 428, 11
 C 425 -9, 386, 5, 369, -1" fill="rgb(207,152,252)" />
<path  d="
 M 387 290 C 386 291, 385, 290, 384, 291
 C 369 294, 360, 305, 348, 310
 C 340 312, 338, 303, 334, 301
 C 332 306, 328, 310, 329, 317
 C 331 332, 340, 342, 341, 356
 C 345 361, 346, 365, 348, 368
 C 351 368, 354, 367, 356, 368
 C 359 374, 364, 375, 365, 379
 C 374 377, 379, 373, 386, 369
 C 391 361, 393, 354, 394, 347
 C 396 336, 392, 329, 390, 322
 C 387 315, 383, 311, 380, 306
 C 384 303, 390, 303, 393, 305
 C 400 307, 403, 312, 406, 315
 C 408 321, 414, 324, 412, 330
 C 413 338, 413, 345, 413, 352
 C 414 361, 410, 365, 408, 370
 C 402 376, 398, 380, 392, 382
 C 384 385, 375, 384, 369, 384
 C 374 389, 381, 388, 386, 390
 C 391 394, 393, 398, 392, 403
 C 390 406, 387, 405, 386, 406
 C 383 411, 379, 412, 378, 416
 C 374 414, 372, 413, 371, 412
 C 363 409, 358, 416, 355, 411
 C 349 404, 343, 398, 336, 395
 C 324 391, 311, 391, 300, 392
 C 293 396, 286, 395, 280, 397
 C 274 401, 270, 405, 266, 408
 C 263 415, 260, 419, 260, 425
 C 253 424, 253, 420, 251, 417
 C 248 422, 246, 425, 241, 425
 C 236 424, 232, 424, 227, 425
 C 225 421, 225, 417, 223, 416
 C 218 419, 216, 420, 214, 422
 C 205 418, 193, 420, 185, 418
 C 186 408, 190, 401, 192, 393
 C 196 390, 198, 394, 200, 392
 C 193 384, 182, 379, 177, 370
 C 170 357, 172, 344, 172, 330
 C 176 324, 178, 318, 184, 314
 C 193 309, 201, 308, 209, 310
 C 213 312, 214, 313, 213, 315
 C 211 320, 207, 324, 207, 328
 C 206 337, 205, 344, 206, 352
 C 206 359, 211, 362, 211, 368
 C 216 374, 220, 379, 225, 382
 C 235 383, 242, 384, 249, 386
 C 257 379, 261, 374, 267, 371
 C 272 367, 270, 361, 273, 357
 C 275 355, 278, 358, 277, 354
 C 276 352, 279, 350, 276, 349
 C 279 337, 279, 327, 279, 316
 C 280 311, 277, 310, 275, 309
 C 268 310, 265, 312, 260, 311
 C 247 305, 237, 296, 224, 295
 C 214 295, 206, 295, 198, 295
 C 190 297, 185, 300, 179, 302
 C 172 316, 170, 329, 168, 342
 C 169 350, 169, 355, 169, 360
 C 172 368, 173, 375, 180, 380
 C 174 387, 169, 391, 166, 397
 C 159 398, 156, 392, 154, 390
 C 150 375, 152, 360, 149, 348
 L 149 346 L 149 345
 L 147 343 C 148 340, 146, 339, 144, 338
 C 140 337, 139, 340, 138, 341
 L 136 343 L 137 345 L 136 346
 L 136 348 C 131 358, 132, 370, 129, 381
 C 117 376, 115, 362, 105, 355
 C 102 353, 101, 348, 99, 348
 C 92 348, 91, 354, 93, 357
 C 94 364, 94, 370, 98, 373
 C 96 369, 92, 365, 94, 359
 C 92 354, 92, 349, 95, 347
 C 100 349, 102, 353, 104, 353
 C 112 362, 116, 370, 121, 377
 C 123 381, 125, 383, 127, 383
 C 131 370, 132, 358, 136, 348
 C 137 342, 139, 339, 141, 336
 C 145 339, 147, 340, 148, 342
 C 150 356, 151, 367, 151, 378
 C 152 383, 152, 385, 153, 388
 C 153 392, 157, 394, 158, 396
 C 160 399, 162, 398, 163, 399
 C 170 391, 177, 385, 182, 381
 C 187 381, 189, 382, 192, 384
 C 191 398, 184, 407, 179, 417
 C 178 422, 178, 425, 180, 426
 C 193 431, 199, 443, 211, 445
 C 216 448, 216, 453, 221, 454
 C 230 447, 241, 452, 248, 445
 C 256 451, 250, 460, 259, 463
 C 267 462, 274, 458, 282, 455
 C 293 456, 298, 461, 306, 462
 C 309 460, 306, 456, 310, 455
 C 315 460, 329, 450, 333, 463
 C 335 458, 337, 457, 338, 455
 C 342 452, 345, 452, 347, 453
 C 349 450, 351, 450, 351, 448
 C 363 449, 370, 446, 379, 450
 C 382 447, 379, 443, 381, 442
 C 388 439, 392, 434, 396, 431
 C 400 418, 399, 406, 403, 396
 C 406 394, 407, 391, 408, 391
 C 413 390, 415, 390, 418, 391
 C 421 380, 420, 368, 426, 358
 C 428 355, 430, 356, 431, 355
 C 441 359, 440, 368, 445, 373
 C 460 359, 461, 340, 474, 329
 C 478 327, 482, 327, 480, 331
 C 483 344, 477, 352, 476, 362
 C 475 364, 475, 365, 475, 366
 L 476 367 L 477 367 L 479 368
 L 480 367 C 487 361, 495, 353, 502, 348
 C 507 347, 508, 341, 513, 343
 C 517 346, 514, 349, 514, 351
 C 508 359, 504, 368, 498, 374
 C 495 378, 494, 380, 495, 383
 L 495 385
 L 495 387 C 497 389, 500, 387, 502, 388
 C 510 385, 516, 383, 523, 384
 C 527 384, 528, 385, 527, 388
 C 517 399, 505, 402, 496, 411
 C 484 429, 474, 444, 461, 459
 C 448 466, 436, 471, 423, 473
 C 416 489, 412, 503, 406, 516
 C 404 524, 407, 529, 405, 536
 C 409 538, 411, 538, 414, 539
 C 416 550, 416, 560, 419, 568
 C 423 571, 425, 575, 427, 576
 C 433 575, 435, 577, 438, 577
 C 435 582, 428, 584, 424, 583
 C 421 590, 430, 592, 425, 598
 C 475 598, 525, 599, 574, 599
 C 580 590, 590, 589, 597, 582
 C 599 555, 598, 527, 599, 501
 C 586 502, 572, 499, 562, 504
 C 555 512, 545, 512, 539, 517
 C 534 521, 537, 523, 536, 526
 C 538 527, 541, 528, 540, 531
 L 539 532 L 538 533 L 538 535
 L 535 536 C 528 536, 518, 532, 510, 536
 C 510 540, 510, 541, 508, 546
 C 505 544, 505, 548, 504, 547
 C 501 543, 502, 540, 499, 540
 C 495 539, 494, 540, 494, 542
 C 494 539, 486, 539, 491, 536
 C 466 540, 447, 539, 424, 542
 C 416 537, 412, 530, 408, 524
 C 416 509, 419, 491, 425, 476
 C 439 473, 449, 467, 460, 463
 C 476 448, 484, 430, 495, 414
 C 505 402, 517, 399, 527, 391
 C 527 387, 529, 384, 527, 384
 L 525 384
 L 523 384 C 516 383, 510, 385, 505, 387
 C 500 388, 496, 388, 495, 384
 C 499 372, 507, 364, 513, 354
 C 515 350, 517, 348, 516, 344
 L 516 344 L 515 343
 L 513 342 C 509 343, 506, 344, 504, 347
 C 494 353, 487, 360, 480, 367
 L 478 366 L 476 365 L 477 364
 L 476 361 C 479 352, 483, 343, 481, 332
 C 481 328, 479, 327, 475, 328
 C 463 338, 460, 352, 452, 362
 C 442 364, 440, 353, 430, 353
 C 424 354, 426, 359, 422, 360
 C 420 366, 420, 369, 419, 372
 C 414 364, 419, 357, 420, 349
 C 416 329, 412, 312, 406, 296
 C 401 292, 397, 292, 394, 290
 C 390 289, 389, 289, 388, 289" fill="rgb(47,43,114)" />
<path  d="
 M 263 238 C 262 246, 256, 250, 251, 255
 C 248 260, 252, 261, 253, 264
 C 246 267, 240, 260, 234, 262
 C 231 267, 235, 267, 237, 269
 C 229 269, 227, 264, 222, 262
 C 199 261, 182, 259, 160, 260
 C 122 237, 134, 275, 148, 294
 C 151 297, 155, 299, 158, 300
 C 166 300, 169, 296, 174, 293
 C 177 294, 179, 294, 179, 296
 C 176 298, 173, 299, 171, 300
 C 169 315, 169, 327, 166, 343
 C 167 350, 167, 355, 167, 360
 C 169 369, 172, 375, 177, 381
 C 170 387, 167, 394, 162, 397
 C 159 393, 157, 391, 155, 390
 L 155 388 L 155 387
 L 154 384 C 152 373, 153, 359, 150, 348
 C 150 343, 148, 341, 147, 339
 L 146 338 L 145 337
 L 143 336
 L 140 336 C 138 337, 137, 340, 136, 341
 C 131 354, 130, 366, 129, 378
 C 125 378, 123, 379, 122, 378
 C 117 369, 113, 362, 108, 355
 C 113 362, 117, 369, 121, 376
 C 122 380, 125, 380, 126, 379
 C 130 367, 131, 355, 136, 344
 C 138 340, 139, 338, 141, 337
 L 143 336
 L 144 337 C 148 339, 149, 342, 150, 345
 C 152 360, 152, 372, 153, 385
 L 155 387 L 155 388
 L 155 390 C 156 392, 158, 394, 159, 396
 L 161 396 L 162 396 L 164 397
 L 166 396 C 168 391, 174, 387, 177, 382
 C 172 375, 171, 368, 168, 362
 C 168 355, 168, 350, 168, 345
 C 168 330, 173, 320, 173, 307
 C 180 299, 188, 297, 195, 294
 C 206 294, 214, 294, 222, 294
 C 237 295, 247, 304, 259, 309
 C 265 311, 268, 309, 272, 308
 C 277 309, 281, 311, 281, 314
 C 280 327, 280, 337, 277, 348
 C 280 350, 277, 352, 279, 352
 L 278 354 L 278 355 L 279 357
 L 277 358 L 276 356 L 275 357
 L 274 357 C 271 361, 273, 367, 270, 370
 C 261 374, 257, 381, 251, 385
 C 243 387, 239, 383, 232, 385
 C 234 385, 236, 384, 238, 385
 C 233 388, 232, 393, 228, 391
 C 217 393, 206, 394, 199, 388
 C 193 384, 188, 379, 184, 377
 C 177 369, 175, 361, 173, 353
 C 173 345, 173, 340, 173, 335
 C 176 326, 178, 320, 184, 315
 C 187 312, 189, 311, 192, 312
 C 198 311, 202, 311, 207, 311
 L 208 311 L 210 311 L 211 313
 L 212 315 C 212 317, 211, 318, 210, 320
 C 210 317, 213, 316, 213, 314
 C 211 310, 210, 311, 209, 311
 C 202 308, 198, 310, 194, 311
 C 189 311, 187, 312, 185, 313
 C 181 316, 182, 318, 179, 319
 C 176 323, 177, 328, 174, 329
 L 172 330 L 172 331 L 173 333
 L 173 335 C 173 340, 173, 345, 173, 351
 C 174 354, 173, 356, 174, 357
 C 177 364, 177, 370, 182, 374
 C 191 377, 193, 389, 200, 390
 C 199 395, 197, 392, 195, 392
 C 191 400, 188, 406, 186, 412
 C 185 414, 184, 417, 185, 417
 C 196 419, 206, 417, 211, 422
 C 216 419, 218, 418, 221, 416
 C 226 416, 226, 420, 227, 422
 C 232 423, 236, 423, 239, 425
 C 247 425, 245, 419, 249, 416
 C 254 420, 254, 423, 258, 424
 C 258 418, 263, 415, 265, 411
 C 270 405, 273, 400, 277, 396
 C 286 394, 293, 395, 297, 391
 C 311 390, 324, 390, 333, 393
 C 344 397, 349, 403, 354, 409
 C 358 415, 363, 408, 369, 411
 C 372 412, 374, 413, 376, 414
 C 379 411, 383, 410, 383, 405
 C 387 404, 388, 404, 390, 405
 C 392 399, 391, 395, 388, 392
 C 381 389, 374, 389, 369, 386
 C 374 382, 384, 385, 390, 382
 C 394 381, 395, 380, 396, 379
 C 401 376, 403, 374, 405, 371
 C 408 366, 410, 363, 411, 359
 C 411 356, 411, 355, 411, 354
 C 413 347, 413, 341, 413, 336
 C 413 330, 411, 329, 412, 325
 C 409 323, 409, 321, 408, 319
 C 405 314, 403, 313, 401, 309
 C 397 308, 397, 306, 396, 307
 C 391 304, 388, 305, 385, 304
 C 388 305, 391, 304, 393, 306
 C 396 309, 398, 306, 398, 308
 C 403 312, 405, 315, 406, 318
 C 408 324, 413, 328, 411, 334
 C 413 343, 413, 350, 411, 357
 C 409 367, 405, 372, 398, 377
 C 391 382, 382, 382, 377, 382
 C 376 377, 377, 376, 380, 375
 C 385 371, 388, 366, 391, 362
 L 392 360
 L 392 357 C 393 354, 394, 350, 396, 347
 C 396 339, 396, 334, 393, 330
 C 396 334, 396, 339, 395, 345
 C 394 350, 393, 354, 392, 357
 L 392 360
 L 390 361 C 388 366, 386, 370, 381, 373
 C 374 374, 374, 382, 367, 380
 C 364 376, 359, 375, 358, 370
 C 354 368, 351, 369, 350, 368
 C 345 365, 344, 361, 341, 358
 C 339 342, 330, 332, 328, 319
 C 327 310, 332, 305, 334, 300
 C 338 302, 341, 311, 346, 311
 C 360 304, 369, 293, 382, 291
 C 386 289, 388, 288, 392, 289
 C 397 291, 401, 291, 405, 294
 C 412 312, 417, 329, 419, 347
 C 421 356, 415, 364, 419, 371
 C 419 368, 419, 365, 420, 362
 C 425 359, 424, 353, 429, 353
 C 440 352, 442, 363, 450, 363
 C 459 351, 462, 337, 474, 328
 C 478 326, 481, 326, 482, 330
 C 484 344, 478, 354, 477, 365
 C 487 359, 494, 352, 502, 347
 C 507 343, 512, 339, 516, 342
 C 518 347, 517, 350, 515, 352
 C 508 363, 501, 372, 495, 381
 C 496 387, 499, 387, 503, 386
 C 511 384, 517, 382, 525, 383
 C 529 383, 528, 387, 529, 388
 C 518 400, 506, 402, 498, 413
 C 485 430, 477, 449, 462, 462
 C 449 467, 440, 475, 427, 474
 C 424 488, 416, 498, 415, 510
 C 413 515, 411, 514, 410, 517
 C 408 521, 408, 523, 411, 525
 C 415 532, 417, 538, 423, 540
 C 447 538, 466, 539, 488, 534
 C 491 538, 490, 538, 494, 539
 C 493 538, 496, 538, 497, 539
 C 502 539, 503, 541, 502, 545
 C 505 547, 505, 543, 506, 545
 C 512 540, 505, 540, 507, 535
 C 518 531, 528, 535, 535, 535
 C 543 527, 528, 526, 537, 518
 C 544 511, 554, 511, 559, 504
 C 572 498, 586, 501, 597, 498
 C 598 491, 598, 485, 598, 479
 C 593 479, 588, 479, 583, 479
 C 533 492, 483, 501, 434, 512
 C 429 514, 426, 514, 424, 511
 C 422 507, 420, 505, 420, 503
 C 422 498, 424, 496, 426, 495
 C 425 489, 425, 483, 427, 480
 C 433 475, 439, 476, 444, 474
 C 453 466, 465, 468, 470, 458
 C 482 444, 490, 429, 497, 414
 C 506 403, 519, 399, 528, 391
 L 529 389
 L 530 387 C 529 384, 528, 384, 526, 383
 L 525 383 L 524 383
 L 522 382 C 516 383, 511, 383, 506, 385
 C 501 385, 498, 386, 497, 383
 C 501 372, 508, 363, 515, 355
 C 518 352, 515, 350, 517, 349
 C 519 345, 517, 345, 518, 342
 C 511 339, 507, 342, 504, 345
 C 494 351, 488, 359, 480, 364
 C 478 354, 484, 344, 482, 331
 C 481 328, 480, 327, 480, 325
 L 477 326 L 476 326 L 476 327
 L 473 327 C 465 336, 459, 344, 455, 354
 C 453 342, 444, 335, 446, 325
 C 440 315, 436, 305, 430, 298
 C 429 278, 437, 263, 437, 246
 C 427 250, 421, 257, 411, 257
 C 398 257, 387, 267, 376, 258
 C 372 265, 372, 273, 367, 278
 C 366 276, 363, 275, 361, 274
 C 355 272, 355, 277, 354, 278
 C 350 279, 348, 278, 348, 276
 C 348 271, 351, 269, 350, 264
 C 351 260, 346, 261, 348, 257
 C 349 253, 351, 251, 353, 250
 C 349 248, 348, 252, 345, 252
 C 337 249, 331, 247, 326, 244
 C 318 242, 316, 248, 312, 250
 C 306 249, 300, 255, 297, 248
 C 292 253, 287, 255, 284, 259
 C 278 255, 281, 249, 276, 246
 C 274 243, 271, 244, 270, 243
 C 267 242, 266, 241, 266, 239" fill="rgb(88,60,168)" />
<path  d="
 M 430 0 C 431 3, 430, 6, 431, 10
 C 429 13, 426, 12, 427, 15
 C 427 27, 427, 37, 428, 47
 C 431 67, 441, 81, 444, 98
 C 448 129, 442, 131, 445, 161
 C 451 166, 447, 173, 450, 178
 C 443 183, 446, 188, 443, 192
 C 442 197, 450, 201, 449, 210
 C 444 220, 438, 228, 430, 237
 C 425 242, 420, 243, 415, 245
 C 411 247, 408, 248, 404, 247
 C 399 246, 396, 241, 391, 243
 C 387 239, 383, 236, 382, 232
 C 367 228, 357, 219, 345, 217
 C 341 215, 340, 214, 341, 212
 C 332 211, 327, 215, 319, 213
 C 305 213, 298, 199, 286, 200
 C 281 202, 284, 206, 284, 207
 C 273 210, 271, 221, 265, 226
 C 262 224, 257, 221, 253, 222
 C 249 228, 247, 232, 246, 236
 C 237 233, 229, 239, 222, 235
 C 217 240, 215, 243, 210, 244
 C 205 244, 202, 245, 199, 246
 C 188 246, 183, 236, 177, 234
 C 175 240, 178, 246, 179, 251
 C 177 255, 176, 254, 175, 255
 C 164 253, 157, 247, 149, 243
 C 138 234, 130, 227, 124, 216
 C 121 227, 122, 235, 123, 243
 C 125 248, 124, 253, 125, 256
 C 127 271, 131, 283, 135, 295
 C 133 302, 130, 306, 128, 311
 C 130 312, 131, 315, 133, 315
 C 129 317, 126, 321, 123, 323
 C 117 335, 125, 347, 115, 356
 C 111 357, 106, 351, 102, 347
 L 100 345 L 99 345 L 99 346
 L 96 344 L 95 344 L 95 345
 L 92 345 C 91 346, 89, 349, 88, 350
 C 89 355, 88, 359, 91, 361
 C 89 359, 88, 356, 89, 352
 C 90 349, 91, 347, 92, 345
 L 94 344 L 95 344 L 97 345
 L 99 345 C 108 352, 115, 362, 122, 369
 C 130 359, 127, 346, 136, 337
 C 139 334, 140, 332, 142, 331
 C 148 335, 151, 336, 151, 341
 C 157 343, 157, 337, 161, 336
 C 156 331, 160, 325, 157, 321
 C 158 318, 157, 316, 158, 315
 C 153 313, 150, 316, 146, 318
 C 143 317, 142, 318, 142, 317
 C 140 313, 142, 313, 142, 311
 C 140 307, 137, 310, 135, 308
 C 136 303, 138, 300, 137, 296
 C 132 282, 129, 270, 126, 258
 C 125 244, 123, 231, 122, 220
 C 131 227, 137, 236, 146, 241
 C 157 249, 167, 255, 178, 256
 C 182 252, 178, 247, 178, 243
 C 185 244, 188, 247, 192, 249
 C 200 249, 205, 251, 212, 250
 C 221 249, 228, 246, 233, 242
 C 239 242, 242, 242, 245, 244
 C 250 238, 250, 230, 253, 224
 C 259 225, 262, 229, 265, 230
 C 273 228, 275, 224, 278, 220
 C 282 225, 284, 227, 288, 229
 C 289 230, 290, 230, 291, 230
 C 296 226, 300, 222, 305, 221
 C 300 222, 294, 222, 290, 218
 C 291 212, 286, 208, 291, 206
 C 299 208, 305, 211, 311, 214
 C 330 217, 339, 223, 357, 226
 C 374 231, 384, 246, 399, 250
 C 410 251, 416, 246, 424, 243
 C 433 237, 439, 227, 446, 223
 C 444 245, 438, 268, 434, 291
 C 438 296, 441, 298, 443, 301
 C 443 308, 451, 309, 450, 315
 C 454 318, 459, 319, 460, 323
 C 461 327, 463, 331, 461, 334
 C 467 333, 468, 327, 473, 324
 C 478 321, 480, 321, 482, 325
 C 485 329, 487, 331, 487, 333
 C 486 342, 484, 349, 484, 357
 C 490 350, 494, 346, 503, 341
 C 510 340, 512, 332, 518, 337
 C 511 306, 505, 278, 496, 248
 C 497 233, 506, 225, 505, 213
 C 510 201, 508, 191, 507, 179
 C 511 176, 512, 172, 513, 170
 C 512 152, 502, 140, 503, 125
 C 492 108, 487, 88, 476, 74
 C 475 66, 477, 59, 473, 55
 C 472 46, 474, 41, 476, 36
 C 532 -9, 472, -1, 431, 0" fill="rgb(180,122,244)" />
<path  d="
 M 0 0 C 0 78, 0, 156, 0, 235
 C 3 223, 10, 214, 12, 204
 C 23 190, 38, 180, 51, 171
 C 50 163, 52, 158, 56, 155
 C 74 130, 98, 112, 115, 89
 C 119 87, 118, 85, 119, 84
 C 127 78, 126, 67, 136, 64
 C 138 57, 139, 52, 140, 48
 C 161 -37, 45, 17, 5, -3" fill="rgb(250,218,254)" />
<path  d="
 M 316 221 C 306 225, 300, 234, 289, 236
 C 284 234, 282, 232, 280, 231
 C 273 229, 270, 233, 266, 233
 C 261 230, 258, 229, 255, 227
 C 252 229, 254, 234, 253, 237
 C 250 242, 250, 246, 246, 249
 C 244 247, 242, 250, 241, 247
 C 236 253, 228, 251, 223, 256
 C 208 255, 196, 254, 185, 251
 C 185 253, 185, 255, 182, 256
 C 178 257, 176, 257, 173, 257
 C 161 255, 153, 249, 145, 243
 C 138 238, 132, 234, 127, 229
 C 127 237, 126, 246, 128, 254
 C 131 267, 134, 278, 138, 288
 C 139 299, 148, 303, 150, 309
 C 154 308, 161, 305, 163, 309
 C 164 317, 162, 327, 166, 332
 C 160 341, 161, 349, 160, 356
 C 161 361, 163, 363, 164, 366
 C 165 370, 163, 372, 164, 376
 C 166 376, 167, 379, 170, 379
 C 170 382, 170, 383, 170, 384
 C 165 388, 162, 385, 156, 385
 C 154 372, 155, 359, 153, 348
 C 150 344, 150, 340, 149, 336
 C 145 334, 144, 333, 142, 333
 C 138 335, 137, 336, 136, 337
 L 136 340 L 134 340 L 135 342
 L 134 344 C 126 352, 133, 365, 126, 374
 C 118 367, 113, 358, 105, 352
 L 103 349 L 102 348 L 102 348
 L 99 347 C 98 347, 97, 345, 95, 346
 C 91 347, 91, 350, 89, 352
 L 89 354 L 89 355 L 90 357
 L 91 358 C 92 370, 97, 379, 102, 389
 C 94 387, 89, 381, 83, 375
 C 79 374, 79, 372, 77, 371
 C 73 369, 71, 368, 67, 369
 L 66 370
 L 64 371 C 61 374, 63, 378, 64, 381
 L 65 383 L 66 384
 L 67 385 C 72 395, 81, 402, 88, 410
 C 78 413, 71, 406, 60, 408
 L 59 408
 L 56 408 C 55 410, 54, 411, 54, 413
 C 61 427, 76, 428, 83, 437
 C 89 452, 90, 465, 100, 475
 C 109 485, 120, 488, 130, 492
 C 133 500, 133, 506, 134, 512
 C 129 516, 130, 523, 124, 523
 C 94 524, 65, 528, 38, 526
 C 24 527, 13, 525, 1, 524
 C 0 549, 0, 571, 0, 595
 C 26 600, 57, 597, 85, 599
 C 86 595, 87, 594, 88, 593
 C 95 590, 101, 590, 106, 587
 C 109 579, 97, 580, 101, 573
 C 103 570, 105, 569, 107, 568
 C 108 566, 106, 566, 106, 564
 C 109 559, 114, 559, 115, 554
 C 123 549, 129, 553, 135, 552
 C 137 548, 140, 547, 141, 545
 C 144 541, 148, 543, 150, 542
 C 152 540, 155, 539, 155, 538
 C 154 534, 152, 534, 150, 533
 C 150 526, 144, 523, 147, 519
 C 143 518, 140, 516, 139, 514
 C 137 505, 136, 499, 135, 493
 C 126 485, 115, 486, 108, 478
 C 97 465, 93, 451, 86, 438
 C 75 428, 63, 427, 55, 415
 C 55 412, 56, 409, 58, 408
 C 70 408, 79, 412, 88, 414
 C 83 402, 71, 394, 66, 382
 C 63 378, 62, 372, 65, 370
 C 73 369, 77, 371, 80, 375
 C 87 381, 94, 386, 99, 391
 L 101 393 L 102 392
 L 102 390 C 97 378, 92, 367, 90, 355
 C 91 351, 91, 348, 94, 347
 C 99 346, 101, 348, 103, 351
 C 112 359, 118, 367, 123, 375
 C 124 377, 125, 377, 126, 377
 C 129 365, 130, 354, 135, 344
 C 137 339, 139, 335, 142, 334
 C 148 337, 151, 341, 151, 345
 C 155 360, 152, 375, 155, 388
 C 159 391, 160, 395, 161, 396
 C 167 392, 171, 387, 175, 384
 C 171 375, 168, 369, 166, 362
 C 164 338, 170, 320, 168, 302
 C 172 297, 175, 297, 178, 296
 C 178 293, 176, 296, 175, 293
 C 169 297, 166, 301, 160, 301
 C 155 300, 151, 298, 148, 296
 C 141 284, 137, 273, 132, 263
 C 132 259, 132, 257, 131, 254
 C 142 250, 149, 259, 158, 260
 C 182 258, 199, 260, 221, 261
 C 227 264, 230, 268, 234, 269
 C 231 269, 231, 264, 232, 262
 C 240 260, 246, 265, 250, 266
 C 251 261, 247, 260, 249, 255
 C 255 250, 261, 245, 262, 239
 C 266 239, 267, 241, 268, 243
 C 272 242, 275, 242, 276, 244
 C 282 248, 280, 254, 282, 257
 C 287 254, 292, 252, 296, 249
 C 300 254, 306, 248, 309, 250
 C 316 247, 318, 241, 324, 243
 C 331 246, 337, 248, 342, 251
 C 348 251, 349, 247, 353, 249
 C 354 253, 349, 252, 350, 256
 C 347 260, 352, 260, 352, 263
 C 352 269, 349, 271, 348, 274
 C 349 278, 351, 277, 351, 277
 C 354 275, 356, 271, 359, 271
 C 363 274, 366, 275, 367, 278
 C 372 272, 370, 263, 374, 258
 C 387 266, 398, 256, 409, 257
 C 421 256, 427, 249, 435, 245
 C 439 247, 439, 250, 438, 253
 C 437 269, 429, 281, 429, 295
 C 437 305, 441, 315, 446, 323
 C 445 335, 454, 342, 454, 352
 C 457 345, 462, 340, 466, 334
 C 471 330, 473, 325, 477, 325
 C 481 326, 482, 328, 483, 329
 C 485 343, 480, 353, 478, 363
 C 488 358, 493, 351, 501, 346
 C 506 342, 510, 338, 514, 341
 C 519 342, 519, 345, 520, 347
 C 512 360, 504, 370, 497, 381
 C 504 387, 513, 380, 522, 381
 C 527 381, 530, 383, 531, 386
 C 523 401, 507, 402, 500, 414
 C 490 429, 482, 444, 472, 458
 C 465 469, 452, 467, 446, 474
 C 439 476, 434, 476, 429, 477
 C 426 483, 426, 489, 427, 493
 C 425 496, 423, 498, 422, 500
 C 421 505, 423, 507, 424, 509
 C 427 513, 430, 512, 433, 512
 C 477 500, 523, 495, 564, 481
 C 577 479, 586, 476, 598, 478
 C 602 463, 595, 457, 582, 458
 C 555 466, 529, 473, 504, 481
 C 482 485, 460, 488, 438, 491
 C 435 489, 433, 489, 433, 487
 C 430 484, 433, 482, 431, 479
 C 437 484, 442, 475, 447, 480
 C 454 467, 469, 471, 475, 460
 C 480 454, 483, 448, 487, 443
 C 489 433, 497, 428, 496, 419
 C 505 404, 522, 401, 530, 390
 C 531 384, 528, 380, 525, 380
 C 514 381, 506, 385, 497, 383
 C 505 371, 511, 362, 518, 353
 L 519 351 L 520 350
 L 520 347 C 519 346, 520, 344, 519, 342
 L 518 342 L 517 341
 L 515 340 C 512 338, 508, 341, 506, 341
 L 503 342 L 504 344 L 503 345
 L 501 345 C 494 349, 489, 356, 483, 360
 C 483 351, 482, 342, 485, 335
 L 484 333 L 484 332
 L 483 330 C 482 328, 482, 326, 481, 324
 C 473 324, 470, 329, 467, 333
 C 464 336, 462, 338, 461, 341
 C 458 341, 457, 342, 457, 341
 C 454 334, 449, 330, 453, 325
 C 442 316, 442, 303, 433, 296
 C 435 272, 440, 251, 444, 230
 C 438 234, 432, 238, 428, 243
 C 421 246, 417, 249, 411, 251
 C 405 254, 400, 253, 395, 254
 C 389 247, 377, 251, 376, 240
 C 365 233, 352, 235, 345, 227
 C 339 229, 336, 235, 330, 235
 C 326 230, 328, 225, 322, 223
 C 320 221, 319, 221, 318, 222" fill="rgb(122,86,191)" />
<path  d="
 M 207 518
 L 208 518 C 209 521, 209, 523, 211, 526
 C 216 527, 219, 527, 220, 525
 C 237 531, 250, 534, 264, 538
 C 273 532, 281, 541, 291, 532
 C 294 533, 295, 534, 297, 536
 C 304 532, 307, 529, 313, 526
 C 318 528, 319, 534, 323, 534
 C 330 529, 338, 528, 343, 525
 C 352 523, 356, 530, 361, 526
 C 365 523, 367, 521, 369, 519
 C 374 517, 377, 516, 380, 516
 C 384 520, 387, 519, 388, 521
 C 386 529, 380, 530, 374, 531
 C 369 539, 363, 543, 360, 548
 C 365 550, 364, 547, 365, 546
 C 371 550, 376, 551, 380, 552
 C 385 550, 387, 548, 389, 548
 C 396 552, 402, 549, 407, 552
 C 395 558, 381, 559, 370, 565
 C 363 571, 353, 571, 346, 576
 C 337 577, 334, 573, 329, 577
 C 316 573, 306, 567, 294, 568
 C 258 568, 219, 565, 182, 567
 C 166 568, 143, 557, 172, 556
 C 178 555, 183, 558, 190, 556
 C 194 556, 196, 553, 198, 552
 C 202 554, 206, 556, 209, 555
 C 204 548, 200, 541, 195, 535
 C 189 533, 184, 532, 180, 531
 C 177 527, 178, 523, 175, 522
 C 177 517, 183, 518, 190, 517
 C 193 522, 197, 523, 200, 523
 C 204 522, 204, 520, 205, 519" fill="rgb(15,18,60)" />
<path  d="
 M 207 518 C 206 519, 205, 522, 202, 523
 C 197 524, 193, 523, 191, 520
 C 183 519, 178, 518, 176, 521
 C 178 523, 178, 526, 179, 529
 C 184 531, 189, 532, 193, 533
 C 201 541, 205, 548, 211, 554
 C 206 557, 202, 555, 200, 551
 C 196 554, 194, 557, 191, 556
 C 183 559, 178, 556, 172, 555
 C 145 558, 168, 565, 180, 564
 C 219 564, 258, 567, 292, 566
 C 306 566, 316, 572, 326, 575
 C 334 572, 337, 576, 344, 576
 C 353 571, 362, 570, 367, 564
 C 381 559, 394, 557, 407, 555
 C 401 551, 395, 553, 392, 549
 C 387 549, 385, 551, 383, 552
 C 373 554, 367, 544, 362, 551
 C 359 543, 367, 542, 368, 536
 C 374 527, 384, 531, 387, 522
 C 386 520, 383, 521, 383, 518
 C 377 517, 374, 518, 371, 519
 C 367 522, 365, 524, 363, 526
 C 356 531, 352, 524, 345, 526
 C 338 529, 330, 530, 326, 535
 C 319 535, 318, 529, 314, 527
 C 307 530, 304, 534, 298, 535
 C 295 535, 294, 534, 293, 533
 C 283 541, 274, 534, 269, 539
 C 252 534, 238, 533, 222, 527
 C 219 528, 216, 528, 213, 527
 C 209 525, 208, 522, 207, 520" fill="rgb(14,17,59)" />
<path  d="
 M 475 329 C 477 328, 482, 334, 480, 338
 C 474 344, 478, 352, 475, 357
 C 471 360, 472, 364, 471, 367
 C 469 365, 466, 364, 467, 363
 C 463 366, 461, 370, 462, 376
 C 466 378, 467, 373, 471, 375
 C 478 384, 485, 391, 489, 399
 C 494 400, 494, 398, 495, 397
 C 495 393, 494, 392, 493, 391
 C 505 390, 514, 390, 520, 385
 C 524 387, 523, 388, 524, 390
 C 515 397, 506, 401, 497, 407
 C 488 420, 480, 433, 466, 442
 C 461 447, 454, 444, 450, 448
 C 445 455, 442, 458, 438, 462
 C 431 467, 425, 467, 420, 469
 C 413 464, 408, 459, 408, 453
 C 407 439, 410, 428, 408, 416
 C 411 412, 411, 409, 412, 406
 C 414 402, 419, 407, 419, 405
 C 424 390, 423, 375, 427, 363
 C 433 358, 431, 371, 438, 366
 C 440 371, 439, 374, 440, 377
 C 443 378, 444, 379, 445, 378
 C 458 366, 462, 348, 470, 337
 C 473 335, 475, 336, 474, 340
 C 476 336, 474, 334, 475, 331" fill="rgb(12,9,70)" />
<path  d="
 M 144 345 C 142 349, 144, 354, 143, 358
 C 139 357, 142, 351, 139, 349
 C 137 361, 133, 372, 132, 383
 C 137 383, 136, 379, 140, 379
 L 141 377 L 143 377 L 144 379
 L 144 381 C 145 385, 148, 388, 148, 392
 C 141 397, 138, 391, 133, 393
 C 129 396, 126, 398, 123, 399
 C 121 406, 116, 407, 115, 413
 C 110 416, 110, 421, 105, 420
 C 105 414, 103, 412, 102, 405
 C 107 401, 111, 396, 118, 399
 C 119 395, 119, 392, 120, 390
 C 123 388, 124, 386, 127, 387
 C 124 386, 122, 385, 121, 386
 C 121 376, 114, 378, 114, 370
 C 110 369, 110, 372, 111, 373
 L 109 374 L 108 373
 L 106 370 C 108 368, 111, 368, 109, 363
 C 105 362, 108, 366, 106, 368
 C 104 364, 100, 362, 98, 360
 C 97 356, 99, 356, 99, 354
 C 98 352, 97, 353, 97, 352
 C 93 355, 95, 359, 96, 362
 C 99 377, 106, 384, 108, 396
 C 105 400, 102, 400, 99, 399
 C 94 390, 86, 387, 81, 382
 C 77 379, 79, 387, 75, 384
 C 74 379, 78, 380, 77, 377
 C 72 377, 70, 376, 69, 372
 C 64 378, 72, 381, 71, 385
 C 79 394, 84, 402, 93, 408
 C 95 412, 94, 414, 95, 415
 C 88 420, 80, 417, 77, 422
 C 72 421, 71, 420, 70, 419
 C 69 415, 72, 416, 74, 415
 C 68 415, 64, 413, 58, 414
 C 64 420, 73, 425, 81, 429
 C 93 437, 97, 448, 109, 456
 C 114 460, 117, 463, 122, 465
 C 133 465, 141, 463, 147, 457
 C 155 451, 160, 444, 167, 438
 C 172 419, 184, 405, 189, 389
 C 190 385, 188, 386, 187, 385
 C 185 388, 189, 391, 184, 392
 C 180 390, 183, 388, 180, 387
 C 172 390, 169, 401, 160, 404
 C 152 399, 153, 392, 149, 387
 C 148 372, 147, 359, 146, 346" fill="rgb(14,7,69)" />
<path  d="
 M 476 329 C 475 333, 477, 335, 477, 338
 C 472 340, 475, 336, 471, 336
 C 466 343, 463, 351, 459, 360
 C 454 367, 452, 372, 446, 378
 C 444 380, 443, 379, 442, 380
 C 437 376, 440, 371, 437, 369
 C 430 371, 433, 361, 429, 361
 C 424 376, 425, 392, 419, 405
 C 416 405, 415, 406, 415, 405
 C 412 409, 412, 412, 410, 414
 C 411 428, 408, 439, 409, 451
 C 409 458, 413, 463, 417, 467
 C 425 466, 431, 466, 436, 463
 C 441 457, 446, 454, 449, 449
 C 454 443, 461, 446, 465, 443
 C 480 432, 487, 419, 496, 408
 C 506 400, 515, 397, 521, 390
 L 522 389 L 522 388 L 523 388
 L 520 386 C 514 391, 505, 391, 495, 390
 C 497 392, 494, 394, 496, 394
 C 495 398, 494, 401, 491, 400
 C 484 392, 478, 384, 472, 376
 C 467 375, 465, 379, 461, 377
 C 460 370, 462, 366, 464, 362
 C 468 362, 467, 364, 470, 365
 C 477 359, 474, 348, 478, 340
 C 481 334, 478, 333, 476, 331" fill="rgb(11,8,69)" />
<path  d="
 M 199 296 C 202 294, 206, 296, 208, 295
 C 218 296, 224, 298, 231, 299
 C 245 305, 255, 313, 267, 318
 C 272 327, 268, 333, 271, 343
 C 268 353, 265, 360, 262, 368
 C 256 372, 255, 379, 249, 379
 C 252 373, 258, 369, 257, 361
 C 253 361, 249, 372, 242, 370
 C 237 372, 234, 372, 233, 370
 C 228 367, 226, 365, 223, 362
 C 218 357, 218, 353, 216, 349
 C 216 342, 221, 339, 218, 333
 C 215 330, 211, 331, 210, 328
 C 209 320, 216, 317, 214, 310
 C 207 307, 200, 309, 194, 308
 C 187 311, 182, 312, 181, 316
 L 178 317 L 177 317 L 177 318
 L 175 316 C 175 306, 186, 301, 192, 298
 C 196 298, 196, 296, 197, 296" fill="rgb(22,25,75)" />
<path  d="
 M 68 392 C 72 395, 74, 401, 80, 404
 C 72 405, 65, 405, 57, 406
 C 53 408, 53, 411, 50, 413
 L 52 416
 L 54 416 C 53 422, 60, 421, 60, 425
 C 67 426, 66, 434, 73, 431
 C 74 437, 70, 436, 68, 437
 C 67 440, 70, 441, 70, 443
 C 52 445, 47, 463, 30, 461
 C 18 463, 10, 459, 1, 457
 C 0 471, 0, 484, 0, 496
 C 20 499, 34, 496, 53, 496
 C 70 497, 76, 483, 89, 481
 C 81 479, 88, 465, 80, 457
 C 79 449, 76, 444, 81, 438
 C 77 436, 77, 433, 75, 432
 C 66 428, 57, 424, 53, 417
 C 53 411, 53, 409, 55, 406
 C 64 406, 72, 404, 78, 408
 C 78 409, 78, 407, 79, 406
 C 85 408, 86, 411, 84, 411
 C 79 405, 75, 399, 70, 393" fill="rgb(206,153,250)" />
<path  d="
 M 201 297 C 199 298, 196, 297, 195, 299
 C 186 301, 172, 310, 178, 317
 C 182 311, 188, 310, 191, 308
 C 200 308, 207, 306, 213, 308
 C 216 311, 215, 313, 216, 314
 C 212 319, 211, 322, 211, 326
 C 212 330, 217, 329, 218, 331
 C 222 339, 217, 342, 216, 346
 C 219 356, 224, 363, 231, 368
 C 234 371, 237, 371, 240, 370
 C 250 372, 252, 360, 256, 359
 C 259 363, 257, 365, 258, 368
 C 253 371, 253, 376, 248, 376
 C 255 378, 255, 372, 260, 370
 C 264 360, 267, 353, 269, 345
 C 268 333, 269, 328, 270, 320
 C 255 314, 245, 306, 233, 301
 C 224 299, 218, 297, 211, 297
 C 207 297, 205, 297, 202, 296" fill="rgb(20,23,71)" />
<path  d="
 M 67 428 C 71 431, 78, 431, 80, 437
 C 77 444, 80, 449, 80, 456
 C 89 466, 82, 477, 93, 479
 C 76 483, 71, 498, 54, 495
 C 34 497, 20, 500, 0, 498
 C 0 505, 0, 510, 0, 515
 C 15 516, 26, 516, 40, 517
 C 70 519, 95, 510, 124, 510
 C 128 511, 128, 509, 129, 508
 C 130 500, 130, 494, 125, 492
 C 118 495, 116, 488, 110, 490
 C 106 484, 101, 483, 98, 478
 C 93 472, 90, 468, 89, 462
 C 83 453, 85, 446, 83, 438
 C 78 433, 75, 431, 69, 429" fill="rgb(179,127,235)" />
<path  d="
 M 384 292 C 392 290, 401, 294, 404, 300
 C 405 305, 406, 307, 405, 311
 C 405 306, 397, 309, 396, 304
 C 389 304, 383, 302, 380, 305
 C 381 310, 383, 314, 387, 314
 C 390 322, 381, 322, 384, 327
 C 387 328, 391, 325, 392, 329
 C 393 339, 390, 347, 392, 357
 C 385 352, 392, 343, 386, 337
 C 385 346, 382, 355, 376, 362
 C 370 366, 362, 366, 358, 366
 C 350 360, 344, 355, 343, 348
 C 341 335, 335, 327, 333, 317
 C 339 313, 342, 318, 346, 315
 C 357 307, 365, 301, 374, 295
 C 379 294, 381, 294, 383, 293" fill="rgb(21,29,77)" />
<path  d="
 M 66 370 C 65 372, 64, 373, 64, 375
 C 66 379, 65, 380, 67, 381
 C 73 395, 85, 402, 91, 412
 C 89 416, 87, 416, 86, 417
 C 78 412, 70, 412, 64, 409
 L 61 409 L 60 409 L 60 410
 L 57 410 C 57 412, 54, 414, 56, 414
 C 66 427, 79, 428, 88, 437
 C 96 451, 105, 461, 110, 473
 C 118 483, 128, 482, 136, 488
 C 141 502, 152, 512, 153, 526
 C 157 529, 160, 530, 162, 534
 C 163 537, 163, 538, 164, 540
 C 160 545, 156, 547, 152, 549
 C 148 550, 146, 547, 143, 547
 C 138 556, 135, 565, 134, 571
 C 135 577, 139, 577, 138, 582
 C 131 586, 124, 595, 117, 597
 C 142 599, 165, 599, 188, 598
 C 190 594, 194, 592, 192, 587
 C 189 585, 188, 584, 186, 583
 C 189 581, 195, 579, 193, 574
 C 176 568, 157, 569, 141, 561
 C 140 556, 139, 554, 142, 551
 C 150 555, 156, 552, 163, 550
 C 167 545, 169, 540, 168, 534
 C 166 528, 161, 527, 159, 523
 C 157 518, 156, 516, 158, 512
 C 152 500, 146, 491, 138, 484
 C 131 480, 123, 482, 120, 475
 C 110 462, 98, 451, 90, 439
 L 87 437 L 88 436 L 87 436
 L 85 434 C 76 427, 64, 425, 58, 416
 C 54 412, 59, 409, 61, 411
 C 70 412, 77, 411, 82, 416
 C 87 417, 89, 416, 90, 415
 C 85 402, 74, 395, 68, 382
 C 65 380, 66, 379, 66, 378
 C 65 372, 66, 369, 71, 371
 C 78 375, 85, 379, 88, 384
 C 83 379, 79, 374, 72, 371
 L 70 370 L 69 370 L 69 371" fill="rgb(66,60,117)" />
<path  d="
 M 386 293 C 383 294, 380, 295, 377, 296
 C 365 302, 357, 308, 349, 316
 C 342 319, 340, 314, 335, 316
 C 336 327, 342, 335, 342, 347
 C 345 355, 350, 360, 356, 363
 C 362 366, 368, 364, 374, 364
 C 382 354, 384, 345, 384, 335
 C 393 341, 388, 349, 390, 357
 C 389 347, 392, 339, 392, 331
 C 390 326, 386, 331, 385, 329
 C 380 322, 389, 321, 386, 317
 C 381 314, 380, 309, 377, 307
 C 382 301, 388, 303, 393, 302
 C 397 308, 405, 305, 405, 309
 C 405 300, 398, 291, 387, 293" fill="rgb(19,26,72)" />
<path  d="
 M 195 300 C 201 299, 207, 300, 212, 299
 C 229 302, 241, 307, 252, 315
 C 258 319, 262, 320, 264, 325
 C 265 335, 266, 339, 264, 348
 C 254 353, 253, 360, 247, 368
 C 241 370, 236, 370, 232, 369
 C 226 363, 219, 357, 219, 350
 C 218 342, 222, 338, 220, 332
 C 224 329, 223, 327, 226, 326
 C 223 322, 221, 318, 216, 317
 C 216 313, 218, 313, 218, 311
 C 211 306, 203, 306, 195, 307
 C 188 307, 186, 310, 183, 312
 C 183 304, 190, 303, 194, 301" fill="rgb(16,21,61)" />
<path  d="
 M 314 394
 L 316 392 C 322 396, 330, 397, 338, 397
 C 350 405, 360, 423, 341, 427
 C 318 426, 298, 424, 278, 430
 C 271 428, 265, 427, 264, 422
 C 265 417, 265, 414, 266, 412
 C 272 406, 276, 402, 281, 399
 C 293 399, 300, 391, 312, 394" fill="rgb(14,12,47)" />
<path  d="
 M 193 312 C 182 312, 177, 324, 175, 332
 C 172 347, 174, 357, 179, 367
 C 182 378, 192, 379, 197, 386
 C 201 389, 204, 389, 206, 391
 C 216 391, 224, 393, 230, 390
 C 234 389, 235, 386, 236, 386
 C 230 385, 225, 385, 222, 380
 C 212 373, 208, 366, 205, 358
 C 203 347, 204, 340, 205, 332
 C 205 323, 210, 320, 211, 315
 C 205 310, 199, 312, 195, 311" fill="rgb(149,159,201)" />
<path  d="
 M 196 300 C 193 304, 185, 303, 183, 310
 C 185 308, 188, 306, 194, 307
 C 204 305, 212, 305, 219, 309
 C 219 313, 217, 313, 218, 315
 C 222 317, 223, 322, 226, 324
 C 225 326, 225, 329, 223, 331
 C 223 338, 219, 342, 219, 347
 C 220 357, 226, 362, 231, 366
 C 236 369, 241, 369, 244, 367
 C 252 360, 254, 352, 263, 350
 C 265 339, 264, 335, 263, 326
 C 261 320, 258, 319, 254, 317
 C 241 308, 229, 303, 215, 301
 C 208 301, 203, 301, 198, 300" fill="rgb(15,20,59)" />
<path  d="
 M 315 395 C 302 392, 293, 399, 283, 398
 C 276 402, 272, 407, 269, 411
 C 266 414, 266, 417, 264, 419
 C 266 426, 272, 427, 275, 428
 C 298 423, 318, 425, 339, 427
 C 359 423, 349, 405, 339, 400
 C 330 398, 323, 397, 317, 393" fill="rgb(11,9,41)" />
<path  d="
 M 292 207 C 287 208, 292, 213, 290, 216
 C 288 218, 285, 220, 284, 222
 C 290 224, 290, 221, 290, 219
 C 297 221, 301, 221, 307, 220
 C 301 223, 296, 226, 293, 230
 C 290 231, 289, 231, 288, 231
 C 286 227, 280, 227, 281, 222
 C 276 225, 273, 229, 267, 229
 C 262 230, 259, 226, 256, 225
 C 252 232, 250, 238, 246, 244
 C 242 243, 239, 243, 236, 242
 C 228 247, 221, 250, 214, 252
 C 205 252, 200, 250, 195, 250
 C 188 248, 185, 245, 180, 244
 C 180 247, 182, 250, 182, 254
 C 179 257, 176, 256, 173, 256
 C 163 253, 155, 249, 148, 243
 C 137 237, 131, 229, 124, 222
 C 124 232, 125, 243, 127, 254
 C 130 267, 132, 278, 136, 288
 C 136 292, 138, 293, 137, 295
 C 139 300, 137, 303, 136, 306
 C 139 307, 141, 307, 142, 310
 C 143 313, 141, 313, 142, 315
 L 142 316 L 143 316 L 145 317
 L 146 317 C 150 316, 152, 313, 156, 312
 C 157 320, 160, 321, 159, 329
 L 159 330 L 161 330 L 162 332
 L 163 334 C 161 337, 157, 342, 153, 343
 C 157 345, 154, 350, 154, 354
 C 154 351, 154, 349, 157, 347
 C 160 354, 156, 362, 162, 366
 C 161 374, 159, 379, 156, 383
 C 162 384, 165, 387, 168, 385
 C 169 383, 169, 382, 169, 381
 C 166 379, 165, 376, 162, 378
 C 162 372, 164, 370, 165, 368
 C 162 363, 160, 361, 160, 359
 C 160 349, 159, 341, 164, 335
 C 161 327, 163, 317, 162, 312
 C 159 307, 154, 309, 152, 311
 C 148 304, 138, 299, 138, 290
 C 133 278, 130, 267, 127, 257
 C 125 245, 126, 237, 127, 228
 C 132 234, 138, 237, 143, 241
 L 145 243 L 146 244
 L 147 244 C 154 250, 163, 253, 171, 256
 C 176 256, 178, 256, 180, 256
 C 184 254, 183, 251, 184, 250
 C 196 253, 208, 254, 220, 255
 C 228 250, 236, 252, 239, 246
 C 242 249, 244, 246, 244, 248
 C 250 245, 249, 241, 252, 240
 C 253 234, 252, 229, 254, 226
 C 258 228, 261, 229, 264, 231
 C 270 232, 273, 228, 278, 230
 C 282 231, 284, 233, 287, 234
 C 299 233, 305, 225, 315, 221
 C 318 221, 320, 220, 322, 221
 C 327 224, 328, 229, 329, 233
 C 336 234, 338, 228, 342, 226
 C 352 234, 364, 232, 374, 238
 C 377 249, 389, 246, 393, 251
 C 400 252, 405, 253, 409, 251
 C 417 248, 421, 245, 427, 244
 C 432 237, 438, 233, 442, 227
 C 445 230, 444, 233, 445, 234
 C 440 256, 435, 274, 432, 293
 C 446 310, 453, 325, 458, 342
 C 462 338, 463, 336, 465, 335
 C 463 334, 462, 336, 461, 336
 C 462 331, 460, 327, 461, 325
 C 458 320, 454, 318, 451, 316
 C 450 309, 442, 308, 444, 303
 C 440 297, 437, 296, 434, 294
 C 437 273, 441, 255, 445, 237
 C 454 209, 433, 238, 426, 242
 C 416 247, 410, 252, 402, 252
 C 384 247, 374, 232, 358, 228
 C 339 224, 330, 218, 312, 217
 C 305 212, 299, 209, 294, 207" fill="rgb(148,106,217)" />
<path  d="
 M 383 295 C 390 292, 399, 296, 401, 302
 C 391 303, 384, 301, 376, 304
 C 379 310, 379, 314, 385, 315
 C 377 329, 388, 344, 376, 356
 C 373 358, 374, 365, 369, 363
 C 364 365, 361, 364, 358, 363
 C 355 351, 346, 354, 344, 343
 C 342 336, 342, 331, 341, 325
 C 354 316, 364, 303, 378, 298
 L 380 297 L 380 295 L 382 296" fill="rgb(16,24,64)" />
<path  d="
 M 300 397
 L 302 396 C 313 394, 325, 399, 336, 399
 C 342 403, 346, 407, 349, 413
 C 349 415, 349, 416, 349, 417
 C 346 421, 344, 424, 341, 425
 C 316 422, 296, 425, 274, 427
 C 259 421, 271, 408, 277, 404
 C 283 395, 292, 402, 297, 397" fill="rgb(7,6,35)" />
<path  d="
 M 186 314 C 193 312, 200, 316, 207, 314
 C 204 322, 205, 330, 203, 336
 C 202 346, 204, 353, 205, 359
 C 210 371, 216, 385, 226, 386
 C 216 384, 209, 389, 203, 386
 C 193 378, 184, 377, 180, 366
 C 178 355, 173, 348, 175, 337
 C 177 327, 180, 322, 185, 316" fill="rgb(156,169,208)" />
<path  d="
 M 79 432 C 84 435, 88, 439, 90, 445
 C 94 456, 100, 464, 103, 474
 C 113 484, 125, 484, 135, 491
 C 137 499, 138, 505, 140, 511
 C 141 516, 144, 517, 146, 516
 C 145 523, 151, 526, 150, 530
 C 153 533, 154, 534, 156, 534
 C 155 548, 138, 539, 138, 552
 C 130 555, 125, 550, 118, 554
 C 115 558, 111, 560, 107, 562
 C 107 566, 109, 566, 108, 567
 C 106 569, 105, 571, 103, 572
 C 98 580, 111, 579, 108, 585
 C 102 591, 95, 591, 89, 592
 C 87 594, 88, 596, 87, 597
 C 97 598, 107, 599, 115, 598
 C 123 594, 130, 587, 138, 583
 C 138 577, 134, 577, 132, 574
 C 134 565, 137, 556, 140, 548
 C 145 546, 147, 549, 150, 550
 C 156 546, 159, 545, 161, 541
 C 162 538, 162, 537, 163, 536
 C 159 530, 156, 530, 153, 528
 C 151 512, 140, 502, 137, 489
 C 128 483, 117, 483, 111, 475
 C 105 464, 99, 456, 92, 447
 C 89 441, 86, 436, 81, 434" fill="rgb(94,78,153)" />
<path  d="
 M 300 396 C 294 404, 285, 395, 279, 404
 C 272 409, 261, 420, 272, 425
 C 296 424, 316, 421, 338, 425
 C 344 424, 345, 420, 348, 420
 C 348 416, 348, 415, 348, 414
 C 345 408, 342, 404, 337, 401
 C 325 400, 314, 394, 302, 397" fill="rgb(5,4,30)" />
<path  d="
 M 385 296 C 384 298, 380, 295, 379, 297
 C 364 304, 355, 316, 343, 324
 C 343 331, 343, 336, 344, 341
 C 347 353, 356, 350, 357, 361
 C 361 363, 364, 364, 368, 363
 C 373 363, 373, 359, 376, 358
 C 387 344, 376, 329, 384, 317
 C 379 314, 378, 310, 375, 306
 L 375 304 L 376 303 L 378 303
 L 379 302 C 387 301, 391, 301, 399, 302
 C 398 297, 392, 294, 386, 296" fill="rgb(16,24,61)" />
<path  d="
 M 187 314 C 182 320, 178, 327, 177, 336
 C 174 348, 179, 355, 180, 364
 C 184 376, 193, 377, 201, 384
 C 209 388, 216, 383, 223, 387
 C 218 388, 218, 381, 215, 379
 C 209 373, 207, 367, 204, 362
 C 203 353, 201, 346, 202, 338
 C 204 330, 203, 322, 208, 317
 C 200 316, 196, 314, 189, 315" fill="rgb(159,172,210)" />
<path  d="
 M 451 222 C 451 221, 455, 221, 455, 224
 C 456 236, 458, 247, 458, 258
 C 460 264, 463, 268, 465, 272
 C 466 285, 472, 296, 466, 307
 C 456 298, 445, 295, 437, 286
 C 437 280, 440, 277, 442, 273
 C 441 270, 440, 268, 441, 264
 C 446 251, 447, 237, 451, 225" fill="rgb(196,139,251)" />
<path  d="
 M 85 440 C 85 447, 85, 454, 89, 460
 C 91 468, 94, 472, 98, 476
 C 101 483, 107, 483, 108, 488
 C 117 491, 121, 490, 128, 492
 C 132 499, 131, 506, 128, 510
 C 107 509, 88, 516, 69, 517
 C 44 518, 24, 518, 1, 516
 C 0 519, 0, 521, 0, 523
 C 13 524, 24, 526, 36, 526
 C 65 527, 94, 523, 122, 522
 C 129 522, 128, 516, 132, 515
 C 139 487, 111, 490, 100, 478
 C 90 466, 87, 455, 85, 443" fill="rgb(152,102,215)" />
<path  d="
 M 383 306
 L 383 306 C 383 312, 389, 313, 390, 319
 C 394 329, 398, 336, 396, 347
 C 394 355, 393, 361, 388, 366
 C 385 372, 383, 375, 378, 376
 C 377 380, 376, 381, 380, 380
 C 387 381, 392, 380, 397, 378
 C 404 372, 408, 366, 410, 360
 C 412 349, 412, 338, 410, 330
 C 407 322, 407, 316, 401, 313
 C 396 307, 391, 304, 384, 306" fill="rgb(136,156,201)" />
<path  d="
 M 452 223 C 448 236, 447, 250, 443, 263
 C 441 268, 442, 270, 445, 272
 C 441 276, 438, 280, 437, 283
 C 446 294, 457, 297, 463, 307
 C 470 295, 465, 284, 465, 274
 C 462 268, 459, 264, 459, 259
 C 457 246, 455, 234, 454, 222" fill="rgb(197,140,252)" />
<path  d="
 M 386 308 C 389 306, 393, 309, 395, 310
 C 401 312, 401, 317, 404, 319
 C 406 327, 411, 333, 409, 341
 C 410 351, 408, 358, 405, 365
 C 402 371, 398, 373, 395, 376
 C 390 378, 385, 377, 381, 377
 C 387 375, 389, 368, 391, 364
 C 393 359, 396, 355, 397, 351
 C 397 342, 398, 336, 396, 331
 C 393 322, 391, 315, 386, 311" fill="rgb(146,169,210)" />
<path  d="
 M 386 309 C 390 314, 395, 321, 396, 329
 C 399 336, 398, 342, 398, 349
 C 397 355, 394, 359, 394, 364
 C 390 368, 388, 375, 382, 377
 C 386 376, 390, 376, 393, 376
 C 398 372, 401, 371, 403, 367
 C 407 358, 409, 351, 409, 342
 C 410 333, 405, 327, 404, 321
 C 401 317, 401, 314, 397, 312
 C 393 310, 392, 308, 389, 309" fill="rgb(151,174,213)" />
<path  d="
 M 186 315 C 195 311, 193, 325, 203, 321
 C 201 333, 198, 341, 199, 352
 C 194 351, 195, 348, 194, 346
 C 193 348, 190, 347, 189, 348
 C 186 344, 183, 344, 179, 345
 C 179 338, 179, 334, 179, 330
 C 182 327, 183, 328, 185, 329
 C 188 325, 179, 321, 187, 317" fill="rgb(171,185,218)" />
<path  d="
 M 596 219 C 594 223, 588, 224, 587, 229
 C 585 237, 583, 245, 583, 251
 C 588 259, 590, 268, 597, 271
 C 598 252, 599, 234, 598, 218" fill="rgb(173,110,244)" />
<path  d="
 M 508 347 C 511 344, 515, 349, 513, 351
 C 504 361, 498, 374, 490, 382
 C 487 377, 482, 375, 477, 374
 C 486 365, 494, 355, 503, 349
 L 504 347 L 505 347 L 507 348" fill="rgb(16,9,76)" />
<path  d="
 M 188 316 C 182 320, 188, 324, 185, 329
 C 183 330, 183, 329, 180, 328
 C 180 334, 180, 338, 180, 343
 C 183 343, 187, 344, 188, 346
 C 191 346, 191, 346, 192, 344
 C 195 347, 195, 349, 196, 351
 C 197 340, 201, 332, 203, 324
 C 199 323, 196, 322, 194, 321
 C 192 318, 193, 317, 192, 317
 C 190 317, 191, 319, 190, 321
 C 187 319, 187, 318, 187, 317" fill="rgb(172,186,219)" />
<path  d="
 M 510 348 C 508 349, 506, 348, 505, 349
 C 494 356, 487, 366, 478, 372
 C 483 374, 488, 377, 488, 382
 C 497 372, 504, 361, 511, 352
 C 512 350, 513, 348, 512, 347" fill="rgb(13,8,73)" />
<path  d="
 M 272 177 C 278 176, 275, 183, 276, 186
 C 272 193, 273, 200, 270, 205
 C 267 208, 266, 210, 264, 211
 C 261 215, 258, 213, 256, 214
 C 252 212, 252, 210, 251, 208
 C 256 204, 260, 201, 265, 198
 C 267 190, 268, 184, 272, 180" fill="rgb(236,209,252)" />
<path  d="
 M 323 194
 L 325 192 C 327 193, 328, 196, 329, 197
 C 331 197, 331, 195, 333, 195
 C 337 196, 343, 193, 346, 195
 C 342 202, 337, 207, 331, 209
 C 321 207, 313, 203, 321, 194" fill="rgb(214,176,251)" />
<path  d="
 M 172 454 C 176 451, 177, 458, 176, 460
 C 173 467, 171, 471, 171, 477
 C 169 482, 164, 482, 162, 484
 C 157 478, 160, 474, 161, 470
 C 163 463, 168, 459, 170, 454" fill="rgb(19,13,77)" />
<path  d="
 M 150 403 C 155 401, 159, 405, 162, 408
 C 165 413, 166, 415, 166, 417
 L 165 419 L 164 420 L 164 422
 L 161 422 C 158 424, 154, 426, 151, 422
 C 144 416, 150, 410, 148, 405" fill="rgb(28,14,89)" />
<path  d="
 M 366 283
 L 366 282 C 386 279, 385, 290, 369, 292
 C 364 295, 362, 292, 359, 291
 C 354 294, 352, 298, 350, 299
 L 348 299 L 347 297 L 346 298
 L 346 296 C 347 292, 351, 291, 352, 287
 C 357 285, 362, 286, 364, 284" fill="rgb(103,74,185)" />
<path  d="
 M 219 215 C 238 213, 225, 222, 218, 226
 C 211 228, 205, 231, 199, 228
 C 201 224, 203, 222, 205, 219
 C 211 217, 215, 218, 218, 216" fill="rgb(234,211,252)" />
<path  d="
 M 230 326 C 234 325, 241, 324, 244, 327
 C 246 333, 246, 338, 244, 342
 C 238 342, 234, 344, 233, 340
 C 230 337, 229, 336, 228, 335
 C 228 332, 227, 329, 228, 327" fill="rgb(78,87,111)" />
<path  d="
 M 274 178 C 271 183, 267, 189, 267, 196
 C 262 202, 257, 203, 253, 208
 C 254 209, 251, 211, 253, 211
 C 257 213, 259, 212, 261, 213
 C 265 211, 266, 208, 267, 207
 C 272 196, 274, 188, 275, 179" fill="rgb(238,212,253)" />
<path  d="
 M 361 320 C 366 318, 370, 321, 375, 321
 C 378 327, 376, 332, 374, 336
 C 370 338, 367, 337, 366, 338
 C 362 335, 362, 333, 360, 333
 C 358 328, 361, 325, 362, 323" fill="rgb(73,85,108)" />
<path  d="
 M 389 310 C 395 312, 401, 318, 403, 325
 C 404 336, 403, 345, 402, 355
 C 397 346, 400, 335, 397, 327
 C 393 321, 394, 316, 389, 313" fill="rgb(163,188,222)" />
<path  d="
 M 151 403 C 149 407, 146, 416, 151, 420
 C 155 425, 159, 422, 161, 421
 C 167 418, 164, 413, 163, 410
 C 159 406, 156, 405, 154, 403" fill="rgb(30,16,91)" />
<path  d="
 M 324 193 C 315 200, 320, 207, 329, 208
 C 336 207, 342, 201, 346, 198
 C 341 195, 337, 196, 335, 194
 C 331 197, 331, 199, 329, 199
 C 329 196, 325, 196, 325, 194" fill="rgb(214,178,251)" />
<path  d="
 M 439 389 C 443 387, 447, 390, 451, 389
 C 452 394, 452, 397, 453, 400
 C 449 402, 450, 406, 448, 406
 C 442 405, 438, 402, 436, 400
 C 434 395, 437, 394, 438, 392" fill="rgb(24,16,87)" />
<path  d="
 M 174 455 C 169 455, 167, 460, 164, 463
 C 161 470, 159, 477, 160, 482
 C 164 482, 165, 481, 167, 480
 C 169 470, 176, 464, 176, 456" fill="rgb(19,13,76)" />
<path  d="
 M 367 282 C 365 288, 358, 285, 354, 287
 C 351 292, 348, 292, 347, 296
 L 347 297 L 348 298
 L 350 298 C 352 297, 354, 293, 357, 292
 C 362 291, 364, 294, 369, 292
 C 382 288, 386, 281, 367, 283" fill="rgb(104,74,186)" />
<path  d="
 M 66 371 M 66 372 M 67 374
 L 66 375 C 66 379, 68, 382, 71, 385
 C 77 398, 87, 403, 93, 413
 C 90 417, 87, 418, 84, 417
 C 80 416, 79, 413, 75, 414
 C 71 412, 66, 413, 64, 411
 C 60 412, 57, 410, 57, 412
 C 63 412, 68, 414, 74, 413
 C 74 417, 71, 416, 69, 417
 C 71 420, 73, 419, 74, 420
 C 80 422, 79, 416, 83, 418
 C 87 417, 89, 417, 91, 417
 C 93 415, 94, 412, 93, 410
 C 83 402, 78, 394, 72, 387
 C 71 381, 66, 379, 65, 376
 L 66 373 L 66 372 L 68 372
 L 70 372 C 71 376, 73, 376, 77, 375
 C 80 379, 76, 380, 75, 381
 C 78 382, 77, 378, 81, 380
 C 86 386, 95, 390, 98, 397
 C 101 398, 104, 399, 106, 398
 C 107 395, 107, 393, 106, 390
 C 106 390, 105, 396, 100, 395
 C 93 388, 87, 384, 80, 378
 L 79 377
 L 77 374 C 73 376, 73, 370, 69, 372" fill="rgb(35,23,88)" />
<path  d="
 M 362 321 C 364 325, 358, 327, 360, 331
 C 362 334, 364, 334, 364, 336
 C 367 336, 370, 337, 372, 336
 C 375 331, 377, 327, 374, 324
 C 370 322, 368, 320, 365, 320" fill="rgb(88,99,119)" />
<path  d="
 M 222 216 C 218 220, 212, 217, 208, 220
 C 203 222, 201, 224, 199, 226
 C 206 230, 211, 227, 216, 226
 C 221 220, 237, 216, 223, 215" fill="rgb(236,213,252)" />
<path  d="
 M 440 389 C 439 392, 436, 394, 437, 398
 C 439 402, 443, 404, 445, 405
 C 449 405, 449, 402, 451, 402
 C 451 397, 451, 394, 452, 392
 C 447 391, 446, 389, 442, 390" fill="rgb(25,17,88)" />
<path  d="
 M 136 527 C 140 525, 146, 528, 145, 532
 C 144 539, 138, 542, 138, 547
 C 133 543, 131, 543, 130, 539
 C 131 534, 136, 533, 136, 530" fill="rgb(153,121,210)" />
<path  d="
 M 366 321 C 368 320, 375, 322, 375, 326
 C 375 331, 373, 333, 370, 335
 C 365 338, 363, 334, 362, 332
 C 363 327, 362, 325, 364, 323" fill="rgb(100,111,129)" />
<path  d="
 M 261 247 C 267 244, 269, 250, 274, 252
 C 277 257, 275, 261, 274, 264
 C 270 261, 266, 260, 263, 256
 C 262 253, 261, 251, 262, 250" fill="rgb(109,70,187)" />
<path  d="
 M 390 311 C 393 315, 394, 320, 397, 325
 C 401 335, 399, 345, 400, 354
 C 402 345, 404, 336, 404, 327
 C 400 320, 398, 314, 391, 313" fill="rgb(167,192,226)" />
<path  d="
 M 94 420 C 99 419, 110, 421, 102, 429
 C 94 427, 88, 425, 81, 424
 C 82 418, 89, 424, 93, 420" fill="rgb(22,11,82)" />
<path  d="
 M 216 356 C 219 359, 225, 367, 231, 371
 L 231 374 L 230 375
 L 228 376 C 222 374, 219, 370, 217, 365
 C 215 362, 214, 361, 215, 358" fill="rgb(48,87,175)" />
<path  d="
 M 367 322 C 363 323, 364, 327, 362, 329
 C 364 334, 365, 336, 369, 335
 C 372 333, 374, 331, 375, 329
 C 374 324, 371, 322, 369, 323" fill="rgb(117,127,144)" />
<path  d="
 M 235 327 C 232 328, 230, 333, 232, 336
 C 235 340, 238, 339, 241, 339
 C 243 337, 244, 335, 243, 332
 C 241 329, 240, 327, 237, 327" fill="rgb(125,133,150)" />
<path  d="
 M 597 588 C 593 592, 584, 592, 580, 597
 C 587 599, 592, 599, 598, 599
 C 599 594, 598, 591, 599, 588" fill="rgb(113,121,163)" />
<path  d="
 M 263 248 C 262 250, 262, 252, 262, 254
 C 266 260, 271, 260, 273, 263
 C 275 261, 275, 257, 273, 255
 C 269 251, 268, 248, 265, 247" fill="rgb(110,71,188)" />
<path  d="
 M 235 327 C 236 326, 240, 328, 241, 329
 C 245 333, 243, 336, 242, 337
 C 238 338, 235, 340, 233, 338
 C 230 334, 233, 332, 232, 330" fill="rgb(133,140,157)" />
<path  d="
 M 201 394 C 212 393, 222, 394, 233, 394
 C 222 396, 212, 399, 203, 396" fill="rgb(74,56,148)" />
<path  d="
 M 364 323 C 368 321, 374, 324, 373, 328
 C 372 332, 371, 334, 369, 335
 C 365 334, 364, 332, 363, 331
 C 364 328, 363, 327, 364, 326" fill="rgb(127,136,152)" />
<path  d="
 M 117 301
 L 118 299 C 130 298, 120, 307, 116, 308
 C 112 309, 108, 310, 108, 307
 C 110 303, 113, 303, 114, 300" fill="rgb(235,205,253)" />
<path  d="
 M 597 330 C 595 332, 593, 334, 592, 337
 C 593 344, 594, 347, 597, 351
 C 599 343, 599, 336, 599, 330" fill="rgb(170,105,243)" />
<path  d="
 M 156 347 C 155 357, 155, 370, 156, 380
 C 158 376, 161, 373, 161, 370
 C 156 363, 158, 355, 157, 349" fill="rgb(160,126,222)" />
<path  d="
 M 310 200
 L 311 200 C 314 201, 315, 203, 314, 207
 C 312 208, 311, 208, 310, 209
 C 302 206, 299, 199, 308, 200" fill="rgb(213,177,250)" />
<path  d="
 M 216 356 C 214 358, 216, 362, 217, 363
 C 220 370, 223, 374, 228, 375
 C 229 368, 220, 364, 217, 359" fill="rgb(51,92,182)" />
<path  d="
 M 388 225 C 390 224, 393, 225, 394, 224
 C 398 227, 397, 229, 398, 230
 C 395 234, 393, 233, 392, 234
 C 387 232, 387, 230, 388, 227" fill="rgb(213,174,253)" />
<path  d="
 M 139 529 C 138 531, 136, 532, 135, 534
 C 135 539, 132, 541, 136, 543
 C 138 539, 148, 534, 142, 529" fill="rgb(161,130,216)" />
<path  d="
 M 385 218 M 386 217
 L 387 217 C 390 223, 386, 225, 381, 226
 C 380 224, 376, 224, 376, 223
 C 378 220, 380, 218, 382, 218" fill="rgb(214,171,251)" />
<path  d="
 M 518 338 C 522 335, 526, 341, 524, 344
 C 525 349, 525, 351, 524, 354
 C 520 350, 521, 344, 520, 340" fill="rgb(166,105,240)" />
<path  d="
 M 207 330 C 210 336, 210, 349, 210, 355
 C 206 349, 207, 341, 206, 334" fill="rgb(28,52,118)" />
<path  d="
 M 118 301 C 114 301, 112, 304, 109, 305
 C 109 310, 112, 308, 113, 309
 C 118 307, 128, 300, 119, 300" fill="rgb(236,207,253)" />
<path  d="
 M 225 379 C 232 377, 238, 381, 246, 379
 C 240 383, 232, 383, 226, 382" fill="rgb(28,46,119)" />
<path  d="
 M 236 329 C 233 330, 233, 332, 234, 335
 C 236 338, 238, 337, 239, 338
 C 243 336, 243, 333, 242, 332
 C 240 328, 238, 331, 237, 328" fill="rgb(162,168,181)" />
<path  d="
 M 366 323 C 365 325, 364, 326, 364, 328
 C 364 332, 366, 334, 367, 334
 C 371 333, 373, 330, 372, 329
 C 372 324, 369, 325, 368, 324" fill="rgb(153,160,173)" />
<path  d="
 M 170 336 C 173 340, 170, 352, 172, 358
 C 168 353, 169, 346, 168, 340" fill="rgb(54,36,120)" />
<path  d="
 M 210 333 C 213 331, 219, 333, 217, 337
 C 217 341, 213, 341, 213, 342
 C 210 341, 210, 338, 211, 335" fill="rgb(64,89,155)" />
<path  d="
 M 311 200 C 309 201, 305, 200, 304, 202
 C 305 208, 318, 211, 312, 201" fill="rgb(215,180,251)" />
<path  d="
 M 431 228 C 438 230, 428, 233, 429, 235
 C 426 238, 423, 237, 422, 239
 C 422 232, 428, 234, 429, 229" fill="rgb(215,170,248)" />
<path  d="
 M 235 330 M 236 329
 L 237 330 C 239 331, 241, 332, 242, 334
 C 240 337, 239, 338, 237, 338
 C 233 335, 234, 333, 233, 332" fill="rgb(169,175,187)" />
<path  d="
 M 597 584 C 590 590, 581, 591, 575, 598
 C 581 592, 596, 591, 599, 584" fill="rgb(87,94,145)" />
<path  d="
 M 389 225 C 388 227, 389, 229, 388, 230
 C 391 235, 392, 231, 395, 233
 C 396 230, 396, 229, 397, 228
 C 394 225, 393, 225, 392, 226" fill="rgb(214,175,253)" />
<path  d="
 M 384 362 C 391 364, 382, 368, 381, 371
 C 378 373, 375, 375, 373, 372
 C 378 370, 382, 366, 385, 365" fill="rgb(21,48,123)" />
<path  d="
 M 102 328 C 109 326, 104, 335, 101, 336
 C 97 336, 96, 337, 96, 336
 C 98 334, 98, 330, 100, 330" fill="rgb(233,204,253)" />
<path  d="
 M 164 243 C 170 238, 170, 248, 174, 249
 C 173 250, 172, 250, 171, 251
 C 170 245, 165, 247, 164, 244" fill="rgb(233,202,253)" />
<path  d="
 M 386 218 C 383 221, 379, 219, 376, 221
 C 378 223, 379, 224, 381, 224
 C 385 223, 390, 224, 386, 218" fill="rgb(215,173,251)" />
<path  d="
 M 365 326 C 368 322, 371, 327, 371, 329
 C 371 333, 369, 330, 368, 332
 C 365 331, 364, 330, 365, 327" fill="rgb(168,175,185)" />
<path  d="
 M 237 373 C 250 374, 238, 382, 231, 377
 C 232 374, 234, 375, 235, 374" fill="rgb(43,78,168)" />
<path  d="
 M 202 395 C 210 398, 221, 396, 230, 395
 C 222 395, 215, 394, 204, 395" fill="rgb(70,52,144)" />
<path  d="
 M 287 219 C 288 216, 294, 218, 291, 221
 C 289 224, 288, 225, 285, 224
 C 284 222, 283, 221, 285, 221" fill="rgb(157,113,221)" />
<path  d="
 M 232 327 C 226 328, 228, 336, 233, 338
 C 235 343, 239, 341, 241, 342
 C 243 338, 245, 336, 244, 333
 C 245 336, 244, 338, 243, 340
 C 239 340, 238, 340, 237, 341
 C 234 338, 231, 337, 231, 336
 C 231 331, 231, 328, 233, 326" fill="rgb(35,47,77)" /></svg>