<svg width="32" height="32" viewBox="0 0 32 32" fill="none" xmlns="http://www.w3.org/2000/svg">
<path fill-rule="evenodd" clip-rule="evenodd" d="M21.7742 8.27419C21.7742 9.18407 21.627 10.0595 21.3557 10.8784C24.6363 11.9773 27 15.0754 27 18.7258C27 23.2956 23.2958 27 18.7258 27C16.744 27 14.9247 26.3032 13.5 25.1413C12.0753 26.3032 10.256 27 8.27419 27C3.70416 27 0 23.2956 0 18.7258C0 15.0754 2.36369 11.9773 5.64428 10.8784C5.37295 10.0595 5.22581 9.18407 5.22581 8.27419C5.22581 3.70438 8.92997 0 13.5 0C18.07 0 21.7742 3.70438 21.7742 8.27419Z" fill="white"/>
<path fill-rule="evenodd" clip-rule="evenodd" d="M20.0318 8.2742C20.0318 7.41926 19.8617 6.56432 19.5346 5.77444C19.2074 4.98456 18.7231 4.25974 18.1185 3.65524C17.514 3.05062 16.7892 2.56631 15.9993 2.23918C15.2094 1.91204 14.3545 1.74194 13.4995 1.74194C12.6446 1.74194 11.7897 1.91204 10.9998 2.23918C10.2099 2.56631 9.48508 3.05062 8.88058 3.65524C8.27596 4.25974 7.79166 4.98456 7.46452 5.77444C7.13739 6.56432 6.96729 7.41926 6.96729 8.2742C6.96729 9.12914 7.13739 9.98409 7.46452 10.774C7.79166 11.5638 8.27596 12.2887 8.88058 12.8932C9.48508 13.4978 10.2099 13.9821 10.9998 14.3092C11.7897 14.6364 12.6446 14.8065 13.4995 14.8065C14.3545 14.8065 15.2094 14.6364 15.9993 14.3092C16.7892 13.9821 17.514 13.4978 18.1185 12.8932C18.7231 12.2887 19.2074 11.5638 19.5346 10.774C19.8617 9.98409 20.0318 9.12914 20.0318 8.2742Z" fill="#F4B731"/>
<path fill-rule="evenodd" clip-rule="evenodd" d="M10.3888 9.67892V11.9141L10.3876 11.9149V11.919C11.3322 11.9061 12.2767 11.9061 13.221 11.919C13.5418 11.9234 13.8622 11.903 14.1764 11.8422C14.5083 11.7779 14.8333 11.6801 15.1401 11.5393C15.2728 11.4784 15.4001 11.4048 15.5286 11.3307C15.5623 11.3112 15.596 11.2917 15.63 11.2724C15.7823 11.165 15.9284 11.049 16.0669 10.925C16.4466 10.5849 16.7406 10.1609 16.9243 9.68798C16.9367 9.63494 16.9891 9.60079 17.0428 9.61114H17.8144C17.8758 9.61114 17.8962 9.5907 17.8962 9.52202V9.03281C17.9003 8.98586 17.9003 8.93851 17.8962 8.89156C17.8962 8.87928 17.8993 8.86705 17.9025 8.85485C17.9088 8.83053 17.9151 8.80633 17.8962 8.78213H17.2514C17.1736 8.78213 17.1736 8.77411 17.1736 8.70542C17.1959 8.45914 17.1869 8.21259 17.1736 7.96579C17.1695 7.89309 17.186 7.89309 17.2431 7.89309H17.8064C17.872 7.89309 17.8935 7.87667 17.8965 7.81212C17.9067 7.5908 17.9067 7.36987 17.8965 7.14906C17.8945 7.10534 17.8934 7.0831 17.8818 7.07179C17.8697 7.06007 17.8463 7.06007 17.7986 7.06007H17.0677C17.0108 7.06964 16.9562 7.03161 16.9457 6.97508C16.862 6.75829 16.7572 6.54952 16.6268 6.35653C16.4975 6.16508 16.3548 5.98218 16.1901 5.81907C15.9752 5.60654 15.7348 5.42041 15.4716 5.2692C15.0762 5.04205 14.6439 4.88269 14.1937 4.80043C13.9754 4.76046 13.7548 4.7276 13.5323 4.7276H10.4705C10.3888 4.7276 10.3888 4.7439 10.3888 4.80857V6.98737C10.3888 7.06421 10.3723 7.06421 10.3112 7.06421H9.43349C9.36816 7.06421 9.36816 7.07598 9.36816 7.12061V7.83191C9.36816 7.89659 9.38841 7.89659 9.43754 7.89659H10.3236C10.3888 7.89659 10.3888 7.90849 10.3888 7.95699V8.71693C10.3888 8.78575 10.3681 8.78575 10.3153 8.78575H9.36816V9.55371C9.36816 9.61839 9.38841 9.61839 9.43754 9.61839H10.3236C10.3888 9.61839 10.3888 9.62615 10.3888 9.67892ZM16.2226 8.78135H13.7406H11.3071C11.2574 8.78135 11.233 8.78135 11.221 8.76914C11.2093 8.75734 11.2093 8.73413 11.2093 8.68848V7.96902C11.2093 7.91224 11.2257 7.89219 11.2867 7.89219H16.2268C16.2801 7.89219 16.3044 7.91224 16.3044 7.96074C16.3246 8.21104 16.3184 8.46211 16.3044 8.71267C16.3006 8.78135 16.2756 8.78135 16.2226 8.78135ZM16.0271 7.05127C16.0342 7.0329 16.0342 7.01298 16.0271 6.99488C15.9857 6.90549 15.9366 6.82025 15.8796 6.74018C15.7938 6.60333 15.6926 6.47734 15.5775 6.36416C15.5231 6.29573 15.4601 6.23442 15.3896 6.18229C15.0362 5.88452 14.616 5.67381 14.1647 5.56787C13.9373 5.51458 13.7041 5.4931 13.4706 5.49504C12.7399 5.50125 12.0092 5.50125 11.2783 5.49504C11.2171 5.49453 11.209 5.51923 11.209 5.57188V7.00678C11.209 7.06731 11.209 7.08361 11.2866 7.08361H15.9978L15.9978 7.08361C15.9999 7.08319 16.0385 7.07554 16.0469 7.05127H16.0271ZM15.8184 9.62227C15.8877 9.61463 15.9578 9.61463 16.0271 9.62227V9.62265C16.0591 9.63859 16.0325 9.69601 16.0307 9.69981L16.0307 9.69988C15.7797 10.1864 15.3816 10.583 14.8916 10.8352H14.8631C14.7688 10.8908 14.6677 10.9339 14.5654 10.9726C14.2808 11.0801 13.9824 11.1453 13.6789 11.1667C13.5811 11.1873 13.4811 11.1943 13.3812 11.1869H11.2909C11.2093 11.1869 11.2093 11.1705 11.2093 11.1059V9.70298C11.2093 9.62227 11.2299 9.62227 11.2909 9.62227H15.8184Z" fill="white"/>
<path fill-rule="evenodd" clip-rule="evenodd" d="M14.8062 18.7258C14.8062 17.8709 14.6361 17.0159 14.309 16.226C13.9818 15.4362 13.4975 14.7113 12.8929 14.1068C12.2884 13.5022 11.5636 13.0179 10.7737 12.6908C9.98384 12.3636 9.1289 12.1935 8.27396 12.1935C7.41901 12.1935 6.56407 12.3636 5.77419 12.6908C4.98431 13.0179 4.25949 13.5022 3.655 14.1068C3.05037 14.7113 2.56607 15.4362 2.23893 16.226C1.9118 17.0159 1.7417 17.8709 1.7417 18.7258C1.7417 19.5807 1.9118 20.4357 2.23893 21.2256C2.56607 22.0154 3.05037 22.7403 3.655 23.3448C4.25949 23.9494 4.98431 24.4337 5.77419 24.7608C6.56407 25.088 7.41901 25.2581 8.27396 25.2581C9.1289 25.2581 9.98384 25.088 10.7737 24.7608C11.5636 24.4337 12.2884 23.9494 12.8929 23.3448C13.4975 22.7403 13.9818 22.0154 14.309 21.2256C14.6361 20.4357 14.8062 19.5807 14.8062 18.7258Z" fill="#54AE94"/>
<path fill-rule="evenodd" clip-rule="evenodd" d="M5.42401 15.4597H8.43715H11.4503V16.9164H9.23721V17.7376L9.24398 17.7378C10.1493 17.7791 10.9426 17.8877 11.5195 18.0426C11.8081 18.12 12.0424 18.2079 12.2155 18.3127C12.302 18.365 12.374 18.4215 12.4285 18.489C12.483 18.5566 12.5198 18.6393 12.5198 18.7276C12.5198 18.8159 12.483 18.8986 12.4285 18.9662C12.374 19.0337 12.302 19.0902 12.2155 19.1425C12.0424 19.2473 11.8081 19.3352 11.5196 19.4126C10.9426 19.5675 10.1493 19.6761 9.24398 19.7174L9.23773 19.7176V22.6452H8.43715H7.63657V19.7176L7.63033 19.7174C6.72501 19.6761 5.93171 19.5675 5.35466 19.4126C5.06621 19.3352 4.83187 19.2473 4.65882 19.1425C4.5723 19.0902 4.50035 19.0337 4.44583 18.9662C4.39131 18.8986 4.35449 18.8159 4.35449 18.7276C4.35449 18.6393 4.39131 18.5566 4.44583 18.489C4.50035 18.4215 4.5723 18.365 4.65882 18.3127C4.83187 18.2079 5.06621 18.12 5.35479 18.0426C5.93171 17.8877 6.72501 17.7791 7.63033 17.7378L7.63709 17.7376V16.9164H5.42401V15.4597ZM7.6397 19.2467L8.43715 19.2643L9.23461 19.2467C10.0237 19.2119 10.7128 19.1261 11.1993 19.01C11.4426 18.9519 11.6356 18.8857 11.7613 18.8185C11.8242 18.7849 11.8699 18.7509 11.8967 18.7216C11.9235 18.6921 11.9309 18.6709 11.9309 18.6528C11.9309 18.6347 11.9235 18.6135 11.8967 18.584C11.8699 18.5547 11.8242 18.5207 11.7614 18.4871C11.6357 18.4199 11.4427 18.3537 11.1996 18.2956C10.7137 18.1798 10.026 18.094 9.23799 18.0592V18.8792L9.22225 18.8806C9.20182 18.8824 9.12935 18.8885 8.99872 18.8941C8.9334 18.8968 8.85351 18.8995 8.75853 18.9014C8.71104 18.9023 8.65977 18.9031 8.60448 18.9036C8.57689 18.9038 8.5484 18.9041 8.51873 18.9042H8.43715H8.35557C8.32591 18.9041 8.29741 18.9038 8.26983 18.9036C8.21453 18.9031 8.16327 18.9023 8.11578 18.9014C8.02079 18.8995 7.94091 18.8968 7.87559 18.8941C7.74496 18.8885 7.67248 18.8824 7.65206 18.8806L7.63631 18.8792V18.0592C6.84835 18.094 6.16058 18.1798 5.67474 18.2956C5.43156 18.3537 5.2386 18.4199 5.11292 18.4871C5.05007 18.5207 5.0044 18.5547 4.9776 18.584C4.9508 18.6135 4.94338 18.6347 4.94338 18.6528C4.94338 18.6709 4.9508 18.6921 4.9776 18.7216C5.0044 18.7509 5.05007 18.7849 5.11305 18.8185C5.23873 18.8857 5.43169 18.9519 5.675 19.01C6.16149 19.1261 6.85056 19.2119 7.6397 19.2467Z" fill="white"/>
<path fill-rule="evenodd" clip-rule="evenodd" d="M25.2579 18.7258C25.2579 17.8709 25.0878 17.0159 24.7606 16.226C24.4335 15.4362 23.9492 14.7113 23.3446 14.1068C22.7401 13.5022 22.0153 13.0179 21.2254 12.6908C20.4355 12.3636 19.5806 12.1935 18.7256 12.1935C17.8707 12.1935 17.0157 12.3636 16.2259 12.6908C15.436 13.0179 14.7112 13.5022 14.1067 14.1068C13.502 14.7113 13.0177 15.4362 12.6906 16.226C12.3635 17.0159 12.1934 17.8709 12.1934 18.7258C12.1934 19.5807 12.3635 20.4357 12.6906 21.2256C13.0177 22.0154 13.502 22.7403 14.1067 23.3448C14.7112 23.9494 15.436 24.4337 16.2259 24.7608C17.0157 25.088 17.8707 25.2581 18.7256 25.2581C19.5806 25.2581 20.4355 25.088 21.2254 24.7608C22.0153 24.4337 22.7401 23.9494 23.3446 23.3448C23.9492 22.7403 24.4335 22.0154 24.7606 21.2256C25.0878 20.4357 25.2579 19.5807 25.2579 18.7258Z" fill="#2775CA"/>
<path fill-rule="evenodd" clip-rule="evenodd" d="M17.5297 23.251C17.5297 23.4107 17.4186 23.4638 17.2575 23.4638C15.2413 22.8185 13.8267 20.9853 13.8267 18.8294C13.8267 16.6735 15.2413 14.8403 17.2575 14.195C17.4191 14.1433 17.5297 14.2482 17.5297 14.4114V14.7872C17.5297 14.8971 17.4724 15.0034 17.3649 15.0566C15.7856 15.6488 14.6969 17.1062 14.6969 18.8294C14.6969 20.5563 15.8394 22.0632 17.3649 22.6022C17.4724 22.6554 17.5297 22.7653 17.5297 22.8716V23.251ZM19.1628 21.9037C19.1628 22.01 19.0517 22.1163 18.9443 22.1163H18.5074C18.4 22.1163 18.289 22.01 18.289 21.9037V21.2547C17.4186 21.1484 16.9854 20.6625 16.8207 19.9606C16.8207 19.8541 16.8744 19.7478 16.9854 19.7478H17.4725C17.5835 19.7478 17.6372 19.8009 17.6909 19.9073C17.802 20.2868 18.0167 20.6094 18.7259 20.6094C19.2703 20.6094 19.6498 20.3399 19.6498 19.9073C19.6498 19.4783 19.435 19.3152 18.6722 19.2088C17.5292 19.0494 16.9854 18.723 16.9854 17.8046C16.9854 17.1062 17.5297 16.5671 18.289 16.4572V15.8119C18.289 15.7055 18.4 15.5956 18.5074 15.5956H18.9443C19.0517 15.5956 19.1628 15.7055 19.1628 15.8119V16.4572C19.8145 16.5671 20.2516 16.943 20.3589 17.5352C20.3589 17.6452 20.3052 17.7515 20.1942 17.7515H19.7608C19.6498 17.7515 19.5961 17.6983 19.5424 17.5919C19.435 17.2125 19.1628 17.053 18.6722 17.053C18.1278 17.053 17.8556 17.3224 17.8556 17.6983C17.8556 18.0741 18.0167 18.2904 18.8333 18.4003C19.9801 18.5548 20.5237 18.8825 20.5237 19.8009C20.5237 20.4994 19.9793 21.0952 19.1628 21.2547V21.9037ZM19.922 23.251C19.922 23.4106 20.0331 23.5206 20.1942 23.4638C22.2104 22.8184 23.6251 20.9853 23.6251 18.8294C23.6251 16.6735 22.1567 14.8403 20.1942 14.195C20.0331 14.195 19.922 14.2481 19.922 14.4114V14.7871C19.922 14.8971 19.9793 15.0034 20.0868 15.0566C21.6123 15.5956 22.7548 17.1061 22.7548 18.8294C22.7548 20.5562 21.6662 22.01 20.0868 22.6022C19.9793 22.6553 19.922 22.7653 19.922 22.8716V23.251Z" fill="white"/>
<path fill-rule="evenodd" clip-rule="evenodd" d="M32 25C32 24.0838 31.8177 23.1677 31.4672 22.3212C31.1166 21.4748 30.5976 20.6981 29.9497 20.0503C29.3019 19.4024 28.5252 18.8834 27.6788 18.5328C26.8323 18.1823 25.9162 18 25 18C24.0838 18 23.1677 18.1823 22.3212 18.5328C21.4748 18.8834 20.6981 19.4024 20.0503 20.0503C19.4024 20.6981 18.8834 21.4748 18.5328 22.3212C18.1823 23.1677 18 24.0838 18 25C18 25.9162 18.1823 26.8323 18.5328 27.6788C18.8834 28.5252 19.4024 29.3019 20.0503 29.9497C20.6981 30.5976 21.4748 31.1166 22.3212 31.4672C23.1677 31.8177 24.0838 32 25 32C25.9162 32 26.8323 31.8177 27.6788 31.4672C28.5252 31.1166 29.3019 30.5976 29.9497 29.9497C30.5976 29.3019 31.1166 28.5252 31.4672 27.6788C31.8177 26.8323 32 25.9162 32 25Z" fill="white"/>
<path fill-rule="evenodd" clip-rule="evenodd" d="M31.4672 22.3212C31.8177 23.1677 32 24.0838 32 25C32 25.9162 31.8177 26.8323 31.4672 27.6788C31.1166 28.5252 30.5976 29.3019 29.9497 29.9497C29.3019 30.5976 28.5252 31.1166 27.6788 31.4672C26.8323 31.8177 25.9162 32 25 32C24.0838 32 23.1677 31.8177 22.3212 31.4672C21.4748 31.1166 20.6981 30.5976 20.0503 29.9497C19.4024 29.3019 18.8834 28.5252 18.5328 27.6788C18.1823 26.8323 18 25.9162 18 25C18 24.0838 18.1823 23.1677 18.5328 22.3212C18.8834 21.4748 19.4024 20.6981 20.0503 20.0503C20.6981 19.4024 21.4748 18.8834 22.3212 18.5328C23.1677 18.1823 24.0838 18 25 18C25.9162 18 26.8323 18.1823 27.6788 18.5328C28.5252 18.8834 29.3019 19.4024 29.9497 20.0503C30.5976 20.6981 31.1166 21.4748 31.4672 22.3212ZM30.8205 22.5891C31.1359 23.3509 31.3 24.1754 31.3 25C31.3 25.8246 31.1359 26.6491 30.8205 27.4109C30.5049 28.1727 30.0378 28.8717 29.4548 29.4548C28.8717 30.0378 28.1727 30.5049 27.4109 30.8205C26.6491 31.1359 25.8246 31.3 25 31.3C24.1754 31.3 23.3509 31.1359 22.5891 30.8205C21.8273 30.5049 21.1283 30.0378 20.5452 29.4548C19.9622 28.8717 19.4951 28.1727 19.1795 27.4109C18.8641 26.6491 18.7 25.8246 18.7 25C18.7 24.1754 18.8641 23.3509 19.1795 22.5891C19.4951 21.8273 19.9622 21.1283 20.5452 20.5452C21.1283 19.9622 21.8273 19.4951 22.5891 19.1795C23.3509 18.8641 24.1754 18.7 25 18.7C25.8246 18.7 26.6491 18.8641 27.4109 19.1795C28.1727 19.4951 28.8717 19.9622 29.4548 20.5452C30.0378 21.1283 30.5049 21.8273 30.8205 22.5891Z" fill="black"/>
<path fill-rule="evenodd" clip-rule="evenodd" d="M25.0545 22.6673C26.5867 22.6673 27.8288 22.2526 27.8288 21.7411C27.8288 21.2296 26.5867 20.8149 25.0545 20.8149C23.5223 20.8149 22.2802 21.2296 22.2802 21.7411C22.2802 22.2526 23.5223 22.6673 25.0545 22.6673ZM23.4375 22.8839C22.2049 23.0842 21.3554 23.5064 21.3554 23.9949C21.3554 24.6769 23.0116 25.2298 25.0545 25.2298C27.0974 25.2298 28.7536 24.6769 28.7536 23.9949C28.7536 23.5064 27.9041 23.0842 26.6715 22.8839C26.1979 23.0013 25.645 23.0687 25.0545 23.0687C24.464 23.0687 23.9111 23.0013 23.4375 22.8839ZM22.8759 25.4116C21.4206 25.6716 20.4307 26.184 20.4307 26.7735C20.4307 27.6261 22.5008 28.3172 25.0545 28.3172C27.6082 28.3172 29.6783 27.6261 29.6783 26.7735C29.6783 26.184 28.6883 25.6716 27.2331 25.4116C26.6007 25.5703 25.8541 25.6621 25.0545 25.6621C24.2549 25.6621 23.5083 25.5703 22.8759 25.4116Z" fill="black"/>
</svg>
