<svg width="240" height="240" viewBox="0 0 240 240" fill="none" xmlns="http://www.w3.org/2000/svg">
<g clip-path="url(#clip0_3965_20426)">
<path d="M120 240C186.5 240 240 186.5 240 120C240 53.4996 186.5 0 120 0C53.4996 0 0 53.4996 0 120C0 186.5 53.4996 240 120 240Z" fill="black"/>
<path fill-rule="evenodd" clip-rule="evenodd" d="M119.5 57.7017L65.1152 89.1009V151.899L119.5 183.298L173.885 151.899V89.1009L119.5 57.7017ZM184.885 82.75L119.5 45L54.1152 82.75V158.25L119.5 196L184.885 158.25V82.75Z" fill="#FF1249"/>
<path fill-rule="evenodd" clip-rule="evenodd" d="M65.8297 80.8918L180.998 149.413L173.839 161.444L58.6713 92.9233L65.8297 80.8918Z" fill="#FF1249"/>
<path fill-rule="evenodd" clip-rule="evenodd" d="M57.5605 147.903L174.561 81.9033L181.439 94.097L64.439 160.097L57.5605 147.903Z" fill="#FF1249"/>
<path fill-rule="evenodd" clip-rule="evenodd" d="M111.956 188.076L113.713 54.0771L127.712 54.2606L125.955 188.259L111.956 188.076Z" fill="#FF1249"/>
</g>
<defs>
<clipPath id="clip0_3965_20426">
<rect width="240" height="240" fill="white"/>
</clipPath>
</defs>
</svg>
