<?xml version="1.0" encoding="UTF-8"?>
<!DOCTYPE svg PUBLIC "-//W3C//DTD SVG 1.1//EN" "http://www.w3.org/Graphics/SVG/1.1/DTD/svg11.dtd">
<svg xmlns="http://www.w3.org/2000/svg" version="1.1" width="1200px" height="1200px" style="shape-rendering:geometricPrecision; text-rendering:geometricPrecision; image-rendering:optimizeQuality; fill-rule:evenodd; clip-rule:evenodd" xmlns:xlink="http://www.w3.org/1999/xlink">
<g><path style="opacity:1" fill="#f6dda8" d="M 567.5,117.5 C 719.047,111.065 847.214,162.065 952,270.5C 1043.09,372.423 1085.43,492.09 1079,629.5C 1065.11,788.192 992.94,912.358 862.5,1002C 742.087,1077.18 612.753,1097.85 474.5,1064C 329.645,1022.8 224.811,934.304 160,798.5C 116.275,699.248 105.941,596.581 129,490.5C 161.764,357.472 236.264,255.305 352.5,184C 419.163,145.388 490.829,123.222 567.5,117.5 Z"/></g>
<g><path style="opacity:1" fill="#5383ec" d="M 573.5,153.5 C 727.458,148.51 853.291,205.177 951,323.5C 1028.72,426.123 1058.38,541.789 1040,670.5C 1019.28,787.756 961.779,882.922 867.5,956C 757.214,1035.34 634.714,1061.5 500,1034.5C 367.046,1000.65 267.713,923.319 202,802.5C 148.296,692.294 139.296,578.294 175,460.5C 224.788,320.379 319.621,225.212 459.5,175C 496.687,162.971 534.687,155.804 573.5,153.5 Z"/></g>
<g><path style="opacity:1" fill="#edbb51" d="M 564.5,161.5 C 712.845,153.746 836.012,205.08 934,315.5C 1022.39,423.941 1054.06,547.607 1029,686.5C 999.071,818.739 925.237,918.239 807.5,985C 689.96,1045.13 568.627,1053.13 443.5,1009C 335.214,965.386 255.047,891.219 203,786.5C 150.602,668.647 147.935,549.647 195,429.5C 237.879,331.953 306.379,258.119 400.5,208C 452.399,182.721 507.065,167.221 564.5,161.5 Z"/></g>
<g><path style="opacity:1" fill="#5584ec" d="M 581.5,187.5 C 724.258,185.191 839.758,239.524 928,350.5C 1008.74,462.944 1030.41,586.278 993,720.5C 949.838,849.334 864.672,938.167 737.5,987C 617.657,1026.47 502.657,1015.81 392.5,955C 280.461,886.457 213.628,787.29 192,657.5C 175.66,516.486 217.827,396.652 318.5,298C 392.644,229.954 480.311,193.12 581.5,187.5 Z"/></g>
<g><path style="opacity:1" fill="#f6dda8" d="M 583.5,195.5 C 712.989,193.771 820.656,240.771 906.5,336.5C 990.591,440.003 1019.42,557.67 993,689.5C 959.556,819.28 882.056,912.447 760.5,969C 642.02,1017.37 525.687,1013.04 411.5,956C 292.96,889.771 222.46,789.604 200,655.5C 184.3,513.869 227.8,394.702 330.5,298C 402.661,234.648 486.994,200.482 583.5,195.5 Z"/></g>
<g><path style="opacity:1" fill="#5584ec" d="M 470.5,308.5 C 485.809,306.346 496.309,312.346 502,326.5C 515.57,376.576 548.07,404.576 599.5,410.5C 652.571,405.422 685.571,377.089 698.5,325.5C 705.2,310.801 716.534,305.301 732.5,309C 739.706,310.868 745.206,315.034 749,321.5C 768.913,370.061 768.246,418.395 747,466.5C 729.255,501.578 702.422,527.078 666.5,543C 659.346,545.94 652.013,548.274 644.5,550C 643.978,550.561 643.645,551.228 643.5,552C 698.62,649.076 754.12,745.909 810,842.5C 811.333,845.167 812.667,847.833 814,850.5C 814.667,857.833 814.667,865.167 814,872.5C 810.312,881.858 803.479,887.025 793.5,888C 663.5,888.667 533.5,888.667 403.5,888C 394.604,886.105 388.437,880.938 385,872.5C 383.058,861.509 384.725,851.175 390,841.5C 440.454,753.269 491.454,665.269 543,577.5C 547.702,568.002 552.535,558.668 557.5,549.5C 534.343,544.392 513.676,534.226 495.5,519C 449.761,478.15 430.594,426.984 438,365.5C 440.754,351.152 444.754,337.152 450,323.5C 454.807,315.498 461.641,310.498 470.5,308.5 Z"/></g>
<g><path style="opacity:1" fill="#edbb51" d="M 472.5,316.5 C 482.292,315.311 489.459,318.978 494,327.5C 503.53,369.362 528.364,397.862 568.5,413C 578.97,416.023 589.637,417.856 600.5,418.5C 647.598,414.894 680.764,391.56 700,348.5C 702.644,341.256 704.977,333.923 707,326.5C 712.273,317.458 720.106,314.292 730.5,317C 734.813,318.306 738.313,320.806 741,324.5C 747.554,338.153 751.888,352.487 754,367.5C 760.286,414.68 748.62,457.013 719,494.5C 701.809,513.693 681.309,528.193 657.5,538C 648.526,540.66 639.526,543.16 630.5,545.5C 687.467,646.095 744.967,746.428 803,846.5C 806.442,854.416 807.442,862.749 806,871.5C 803.051,876.728 798.551,879.561 792.5,880C 663.5,880.667 534.5,880.667 405.5,880C 399.732,878.874 395.565,875.707 393,870.5C 391.337,861.542 392.67,853.208 397,845.5C 447.874,756.092 499.541,667.092 552,578.5C 557.309,567.215 563.142,556.215 569.5,545.5C 516.856,533.357 479.356,502.69 457,453.5C 445.929,425.843 442.262,397.176 446,367.5C 448.547,353.407 452.547,339.74 458,326.5C 461.147,320.489 465.981,317.156 472.5,316.5 Z"/></g>
<g><path style="opacity:1" fill="#5584ec" d="M 476.5,381.5 C 477.675,381.281 478.675,381.614 479.5,382.5C 502.695,420.949 536.695,443.116 581.5,449C 642.15,454.565 688.983,432.065 722,381.5C 723.913,385.259 724.747,389.259 724.5,393.5C 716.979,460.857 679.979,501.357 613.5,515C 581.967,517.706 553.3,510.039 527.5,492C 491.794,464.073 474.794,427.239 476.5,381.5 Z"/></g>
<g><path style="opacity:1" fill="#52edbc" d="M 713.5,406.5 C 714.139,407.097 714.472,407.93 714.5,409C 703.47,460.363 672.47,492.363 621.5,505C 600.331,509.939 579.665,508.272 559.5,500C 519.697,483.209 495.363,453.709 486.5,411.5C 486.667,410.167 486.833,408.833 487,407.5C 516.418,441.12 553.585,457.787 598.5,457.5C 645.049,458.72 683.382,441.72 713.5,406.5 Z"/></g>
<g><path style="opacity:1" fill="#5583eb" d="M 598.5,562.5 C 600.803,564.978 602.969,567.645 605,570.5C 654.185,656.882 703.852,742.882 754,828.5C 756.581,834.078 759.581,839.411 763,844.5C 763.788,846.165 764.122,847.831 764,849.5C 653.904,850.499 543.737,850.832 433.5,850.5C 459.084,802.006 486.251,754.339 515,707.5C 541.591,658.523 569.424,610.19 598.5,562.5 Z"/></g>
<g><path style="opacity:1" fill="#ed6e51" d="M 598.5,577.5 C 629.637,629.085 659.803,681.418 689,734.5C 710.302,770.274 731.469,806.107 752.5,842C 650.498,842.833 548.498,842.667 446.5,841.5C 497.747,753.652 548.413,665.652 598.5,577.5 Z"/></g>
</svg>
