<?xml version="1.0" encoding="UTF-8"?>
<!DOCTYPE svg PUBLIC "-//W3C//DTD SVG 1.1//EN" "http://www.w3.org/Graphics/SVG/1.1/DTD/svg11.dtd">
<svg xmlns="http://www.w3.org/2000/svg" version="1.1" width="976px" height="976px" style="shape-rendering:geometricPrecision; text-rendering:geometricPrecision; image-rendering:optimizeQuality; fill-rule:evenodd; clip-rule:evenodd" xmlns:xlink="http://www.w3.org/1999/xlink">
<g><path style="opacity:1" fill="#f6dda8" d="M 457.5,6.5 C 612.613,1.00373 742.78,54.6704 848,167.5C 944.926,281.659 983.259,413.326 963,562.5C 938.029,705.348 865.196,816.181 744.5,895C 625.985,966.751 499.319,986.084 364.5,953C 218.926,911.824 113.759,822.991 49,686.5C 5.40815,587.915 -4.92519,485.915 18,380.5C 46.204,262.82 108.704,168.32 205.5,97C 281.102,43.7415 365.102,13.5748 457.5,6.5 Z"/></g>
<g><path style="opacity:1" fill="#5383ec" d="M 462.5,42.5 C 616.458,37.5103 742.291,94.177 840,212.5C 917.716,315.123 947.382,430.789 929,559.5C 908.279,676.756 850.779,771.922 756.5,845C 646.214,924.336 523.714,950.503 389,923.5C 256.046,889.653 156.713,812.319 91,691.5C 37.2963,581.294 28.2963,467.294 64,349.5C 113.788,209.379 208.621,114.212 348.5,64C 385.698,51.9694 423.698,44.8027 462.5,42.5 Z"/></g>
<g><path style="opacity:1" fill="#edbb51" d="M 453.5,50.5 C 601.845,42.7463 725.012,94.0797 823,204.5C 911.389,312.941 943.055,436.607 918,575.5C 888.096,707.719 814.263,807.219 696.5,874C 578.96,934.134 457.627,942.134 332.5,898C 224.214,854.386 144.047,780.219 92,675.5C 39.6016,557.647 36.9349,438.647 84,318.5C 126.879,220.953 195.379,147.119 289.5,97C 341.399,71.7207 396.065,56.2207 453.5,50.5 Z"/></g>
<g><path style="opacity:1" fill="#5584ec" d="M 470.5,76.5 C 613.258,74.1911 728.758,128.524 817,239.5C 897.725,351.818 919.392,475.152 882,609.5C 838.867,738.306 753.701,827.139 626.5,876C 506.657,915.472 391.657,904.806 281.5,844C 169.461,775.457 102.628,676.29 81,546.5C 64.6601,405.486 106.827,285.652 207.5,187C 281.644,118.954 369.311,82.1204 470.5,76.5 Z"/></g>
<g><path style="opacity:1" fill="#f6dda8" d="M 472.5,84.5 C 602.034,82.7958 709.7,129.796 795.5,225.5C 879.595,329.023 908.428,446.69 882,578.5C 848.556,708.28 771.056,801.447 649.5,858C 531.02,906.371 414.687,902.038 300.5,845C 181.96,778.771 111.46,678.604 89,544.5C 73.2998,402.869 116.8,283.702 219.5,187C 291.661,123.648 375.994,89.4815 472.5,84.5 Z"/></g>
<g><path style="opacity:1" fill="#5584ec" d="M 359.5,197.5 C 374.809,195.346 385.309,201.346 391,215.5C 404.57,265.576 437.07,293.576 488.5,299.5C 543.891,293.278 577.725,262.945 590,208.5C 598.177,198.341 608.677,194.841 621.5,198C 628.706,199.868 634.206,204.034 638,210.5C 657.913,259.055 657.247,307.388 636,355.5C 618.283,390.55 591.449,416.05 555.5,432C 548.346,434.94 541.013,437.274 533.5,439C 532.978,439.561 532.645,440.228 532.5,441C 587.596,538.021 643.096,634.854 699,731.5C 700.333,734.167 701.667,736.833 703,739.5C 703.667,746.833 703.667,754.167 703,761.5C 699.312,770.858 692.479,776.025 682.5,777C 552.5,777.667 422.5,777.667 292.5,777C 283.604,775.105 277.437,769.938 274,761.5C 272.058,750.509 273.725,740.175 279,730.5C 329.44,642.301 380.44,554.301 432,466.5C 436.702,457.002 441.535,447.668 446.5,438.5C 423.343,433.392 402.676,423.226 384.5,408C 338.761,367.15 319.594,315.984 327,254.5C 329.754,240.152 333.754,226.152 339,212.5C 343.807,204.498 350.641,199.498 359.5,197.5 Z"/></g>
<g><path style="opacity:1" fill="#edbb51" d="M 361.5,205.5 C 371.292,204.311 378.459,207.978 383,216.5C 387.045,235.923 395.379,253.256 408,268.5C 452.019,313.846 500.519,319.346 553.5,285C 575.689,266.799 589.855,243.632 596,215.5C 601.273,206.458 609.106,203.292 619.5,206C 623.813,207.306 627.313,209.806 630,213.5C 636.554,227.153 640.888,241.487 643,256.5C 649.286,303.68 637.62,346.013 608,383.5C 590.809,402.693 570.309,417.193 546.5,427C 537.526,429.66 528.526,432.16 519.5,434.5C 576.467,535.095 633.967,635.428 692,735.5C 695.442,743.416 696.442,751.749 695,760.5C 692.051,765.728 687.551,768.561 681.5,769C 552.5,769.667 423.5,769.667 294.5,769C 288.732,767.874 284.565,764.707 282,759.5C 280.337,750.542 281.67,742.208 286,734.5C 336.86,645.124 388.527,556.124 441,467.5C 446.309,456.215 452.142,445.215 458.5,434.5C 405.856,422.357 368.356,391.69 346,342.5C 334.929,314.843 331.262,286.176 335,256.5C 337.547,242.407 341.547,228.74 347,215.5C 350.147,209.489 354.981,206.156 361.5,205.5 Z"/></g>
<g><path style="opacity:1" fill="#5584ec" d="M 365.5,270.5 C 366.675,270.281 367.675,270.614 368.5,271.5C 391.695,309.949 425.695,332.116 470.5,338C 531.15,343.565 577.983,321.065 611,270.5C 612.913,274.259 613.747,278.259 613.5,282.5C 605.979,349.857 568.979,390.357 502.5,404C 470.967,406.706 442.3,399.039 416.5,381C 380.794,353.073 363.794,316.239 365.5,270.5 Z"/></g>
<g><path style="opacity:1" fill="#52edbc" d="M 602.5,295.5 C 603.139,296.097 603.472,296.93 603.5,298C 592.47,349.363 561.47,381.363 510.5,394C 489.331,398.939 468.665,397.272 448.5,389C 408.697,372.209 384.363,342.709 375.5,300.5C 375.667,299.167 375.833,297.833 376,296.5C 405.418,330.12 442.585,346.787 487.5,346.5C 534.049,347.72 572.382,330.72 602.5,295.5 Z"/></g>
<g><path style="opacity:1" fill="#5483ec" d="M 487.5,451.5 C 489.803,453.978 491.969,456.645 494,459.5C 543.185,545.882 592.852,631.882 643,717.5C 645.581,723.078 648.581,728.411 652,733.5C 652.788,735.165 653.122,736.831 653,738.5C 542.904,739.499 432.737,739.832 322.5,739.5C 327.463,727.022 333.963,715.355 342,704.5C 361.634,667.898 382.3,631.898 404,596.5C 430.591,547.523 458.424,499.19 487.5,451.5 Z"/></g>
<g><path style="opacity:1" fill="#ed6e51" d="M 487.5,466.5 C 518.637,518.085 548.803,570.418 578,623.5C 599.302,659.274 620.469,695.107 641.5,731C 539.498,731.833 437.498,731.667 335.5,730.5C 386.765,642.635 437.432,554.635 487.5,466.5 Z"/></g>
</svg>
