<svg width="32" height="32" viewBox="0 0 32 32" fill="none" xmlns="http://www.w3.org/2000/svg">
<path fill-rule="evenodd" clip-rule="evenodd" d="M29 17C29 10.3787 23.6214 5.00012 17 5.00012C10.3787 5.00012 5.00006 10.3787 5.00006 17C5.00006 23.6213 10.3787 28.9999 17 28.9999C23.6214 28.9999 29 23.6213 29 17Z" fill="white"/>
<path fill-rule="evenodd" clip-rule="evenodd" d="M24.7134 26.1924L23.7971 25.1004C19.5063 28.7006 13.1524 28.3306 9.30853 24.2566C5.4647 20.1824 5.4647 13.8176 9.30853 9.74342C13.1524 5.66945 19.5063 5.29937 23.7971 8.89958L24.7134 7.80759C19.8443 3.72186 12.6335 4.14162 8.27149 8.76518C3.9095 13.3885 3.9095 20.6115 8.27149 25.2348C12.6335 29.8584 19.8443 30.2781 24.7134 26.1924Z" fill="url(#paint0_linear)"/>
<path fill-rule="evenodd" clip-rule="evenodd" d="M24.7134 26.1924L23.7971 25.1004C26.1915 23.0911 27.5744 20.1257 27.5744 17C27.5744 13.8743 26.1915 10.9088 23.7971 8.89958L24.7134 7.80759C27.4306 10.0876 29 13.4528 29 17C29 20.5472 27.4306 23.9124 24.7134 26.1924Z" fill="#EDF0F2"/>
<path fill-rule="evenodd" clip-rule="evenodd" d="M13.6651 18.9023V21.454L13.6638 21.4549V21.4596C14.7421 21.4448 15.8204 21.4448 16.8984 21.4596C17.2645 21.4646 17.6304 21.4413 17.9891 21.3719C18.3679 21.2985 18.739 21.1869 19.0892 21.0261C19.2407 20.9566 19.3861 20.8726 19.5327 20.7879L19.5327 20.7879C19.5712 20.7657 19.6097 20.7435 19.6485 20.7214C19.8224 20.5989 19.9891 20.4664 20.1472 20.3248C20.5808 19.9366 20.9163 19.4525 21.126 18.9127C21.1402 18.8521 21.2 18.8131 21.2613 18.8249H22.1421C22.2122 18.8249 22.2355 18.8016 22.2355 18.7232V18.1647C22.2403 18.1111 22.2403 18.0571 22.2355 18.0035C22.2355 17.9895 22.2391 17.9755 22.2428 17.9616C22.25 17.9338 22.2572 17.9062 22.2355 17.8785H21.4995C21.4106 17.8785 21.4106 17.8694 21.4106 17.791C21.4361 17.5098 21.4258 17.2284 21.4106 16.9466C21.406 16.8636 21.4248 16.8636 21.4899 16.8636H22.133C22.2079 16.8636 22.2325 16.8449 22.236 16.7712C22.2476 16.5185 22.2476 16.2663 22.236 16.0143C22.2336 15.9643 22.2324 15.939 22.2191 15.926C22.2053 15.9127 22.1786 15.9127 22.1241 15.9127H21.2898C21.2248 15.9236 21.1624 15.8802 21.1505 15.8156C21.0549 15.5682 20.9353 15.3298 20.7864 15.1095C20.6388 14.891 20.4759 14.6822 20.2878 14.4959C20.0425 14.2533 19.7681 14.0408 19.4677 13.8682C19.0162 13.6089 18.5227 13.427 18.0088 13.3331C17.7595 13.2874 17.5078 13.2499 17.2538 13.2499H13.7585C13.6651 13.2499 13.6651 13.2685 13.6651 13.3424V15.8297C13.6651 15.9174 13.6463 15.9174 13.5765 15.9174H12.5746C12.5 15.9174 12.5 15.9308 12.5 15.9818V16.7938C12.5 16.8676 12.5231 16.8676 12.5792 16.8676H13.5907C13.6651 16.8676 13.6651 16.8812 13.6651 16.9366V17.8041C13.6651 17.8827 13.6415 17.8827 13.5813 17.8827H12.5V18.7594C12.5 18.8332 12.5231 18.8332 12.5792 18.8332H13.5907C13.6651 18.8332 13.6651 18.8421 13.6651 18.9023ZM20.325 17.8777H17.4916H14.7135C14.6567 17.8777 14.6288 17.8777 14.6151 17.8637C14.6019 17.8502 14.6019 17.8237 14.6019 17.7716V16.9503C14.6019 16.8855 14.6205 16.8626 14.6902 16.8626H20.3298C20.3906 16.8626 20.4184 16.8855 20.4184 16.9409C20.4415 17.2266 20.4343 17.5132 20.4184 17.7992C20.414 17.8777 20.3855 17.8777 20.325 17.8777ZM20.1018 15.9026C20.1099 15.8817 20.1099 15.8589 20.1018 15.8382C20.0546 15.7362 19.9985 15.6389 19.9334 15.5475C19.8355 15.3913 19.7199 15.2474 19.5885 15.1182C19.5264 15.0401 19.4545 14.9701 19.374 14.9106C18.9706 14.5707 18.4909 14.3301 17.9756 14.2092C17.7161 14.1483 17.4499 14.1238 17.1832 14.126C16.3491 14.1331 15.5149 14.1331 14.6806 14.126C14.6106 14.1255 14.6014 14.1537 14.6014 14.2138V15.8518C14.6014 15.9209 14.6014 15.9395 14.69 15.9395H20.0683L20.0683 15.9395C20.0707 15.9391 20.1148 15.9303 20.1244 15.9026H20.1018ZM19.8635 18.8377C19.9427 18.8289 20.0227 18.8289 20.1019 18.8377V18.8381C20.1383 18.8563 20.108 18.9218 20.1059 18.9262L20.1059 18.9263C19.8194 19.4816 19.365 19.9344 18.8055 20.2223H18.773C18.6653 20.2858 18.5499 20.335 18.4331 20.3791C18.1083 20.5019 17.7676 20.5763 17.4212 20.6008C17.3095 20.6243 17.1954 20.6322 17.0813 20.6238H14.695C14.6019 20.6238 14.6019 20.6051 14.6019 20.5314V18.9298C14.6019 18.8377 14.6253 18.8377 14.695 18.8377H19.8635Z" fill="black"/>
<path d="M29.8081 14.9004C29.8081 14.9004 30.6667 11.1024 27.5653 9.46619C27.5653 9.46619 28.8865 11.1366 29.8081 14.9004Z" fill="#69E2DC"/>
<path d="M30.1786 23.5544C32.9243 18.5317 32.4338 12.9355 29.5921 8.31607C31.1631 11.9779 31.1507 15.7006 30.095 19.4511C30.0559 18.1893 29.0589 15.4434 28.293 14.2338V14.2355C28.6075 15.5564 28.6857 16.9537 28.4831 18.377C27.5998 24.5867 21.7369 28.9194 15.3887 28.0557C9.0388 27.1919 4.60827 21.4584 5.49154 15.2505C6.06024 11.2567 8.68692 8.03974 12.1791 6.48258C12.5274 6.32095 12.89 6.17322 13.2685 6.03766C13.4871 5.18259 14.0843 4.67337 14.3846 4.46308C14.3988 4.45265 14.413 4.44223 14.4273 4.43354C14.4308 4.4318 14.4344 4.43006 14.4362 4.42658C14.4593 4.41094 14.4806 4.39704 14.4984 4.38661L14.5019 4.38487C14.5303 4.36749 14.5499 4.35707 14.557 4.35185L14.5623 4.34838C14.2549 4.8211 14.1376 5.29903 14.1696 5.73873C14.1731 5.75785 14.1785 5.77523 14.182 5.79435C15.0706 9.82808 20.3649 5.27992 23.3506 9.00777C23.5976 9.22675 23.5372 9.63517 24.001 9.51178C24.4418 9.42836 24.863 9.28584 25.3943 8.98518L25.3961 8.98344C25.4654 8.94347 25.5365 8.9035 25.6112 8.85831C25.6876 8.81139 25.7676 8.76272 25.8493 8.70885C25.8902 8.68625 25.9417 8.65497 26.0021 8.615C26.5708 8.24308 27.9091 7.14126 27.7456 6.28793C27.7402 6.25664 27.7314 6.2271 27.7225 6.19755C27.6354 5.76828 27.3599 5.29556 26.8872 5.20518C26.7415 5.17564 26.5922 5.16869 26.4447 5.17564C26.1976 5.18781 25.9524 5.23821 25.7125 5.29556C25.6414 5.30251 25.5703 5.30599 25.5028 5.30425C24.8825 5.28861 24.36 4.92711 23.8446 4.55172C23.5016 4.30145 23.1622 4.04597 22.7996 3.88261C22.6663 3.93648 22.4797 4.12071 22.2967 4.21108C22.1865 4.26669 22.0799 4.28755 21.9857 4.22672L21.6107 3.96603C21.4134 3.82873 21.2126 3.6897 21.2126 3.6897C21.1984 3.68101 21.1859 3.67058 21.1753 3.65841C21.1006 3.58194 21.0953 3.4794 21.1362 3.39772C21.1842 3.30387 21.2908 3.23957 21.4188 3.27954L22.6521 3.65494C22.5508 3.48288 22.4104 3.32125 22.2416 3.16657C21.0544 2.09252 18.4313 1.46165 17.7684 1.08973C17.7169 1.04975 17.6671 1.01152 17.6138 0.973285C16.6292 0.264203 15.458 0.00351118 14.2851 3.52884e-05C13.1139 -0.0034406 11.9427 0.250299 10.96 0.568344C10.752 0.636124 10.5548 0.705642 10.3646 0.776897C9.37292 1.14882 8.66026 1.55202 8.47543 1.72582C10.4357 0.992403 11.7064 0.994141 12.3533 1.08451V1.08625C12.6803 1.10885 13.329 1.40603 13.656 1.7206C6.79067 1.4825 0.872604 8.31955 0 15.7093C0 15.7093 0.556263 14.4927 1.24226 13.7506C-0.250585 18.5213 0.909925 23.0938 3.18829 26.6757C3.18829 26.6757 2.58582 25.1064 3.04078 23.4014C6.59695 34.2897 25.8084 35.7426 31.4777 22.4925C31.4812 22.4908 30.7739 23.3267 30.1786 23.5544Z" fill="#69E2DC"/>
<path d="M30.1786 23.5544C32.9243 18.5317 32.4338 12.9355 29.5921 8.31607C31.1631 11.9779 31.1507 15.7006 30.095 19.4511C30.0559 18.1893 29.0589 15.4434 28.293 14.2338V14.2355C28.6075 15.5564 28.6857 16.9537 28.4831 18.377C27.5998 24.5867 21.7369 28.9194 15.3887 28.0557C9.0388 27.1919 4.60827 21.4584 5.49154 15.2505C6.06024 11.2567 8.68692 8.03974 12.1791 6.48258C12.5274 6.32095 12.89 6.17322 13.2685 6.03766C13.4871 5.18259 14.0843 4.67337 14.3846 4.46308C14.3988 4.45265 14.413 4.44223 14.4273 4.43354C14.4308 4.4318 14.4344 4.43006 14.4362 4.42658C14.4593 4.41094 14.4806 4.39704 14.4984 4.38661L14.5019 4.38487C14.5303 4.36749 14.5499 4.35707 14.557 4.35185L14.5623 4.34838C14.2549 4.8211 14.1376 5.29903 14.1696 5.73873C14.1731 5.75785 14.1785 5.77523 14.182 5.79435C15.0706 9.82808 20.3649 5.27992 23.3506 9.00777C23.5976 9.22675 23.5372 9.63517 24.001 9.51178C24.4418 9.42836 24.863 9.28584 25.3943 8.98518L25.3961 8.98344C25.4654 8.94347 25.5365 8.9035 25.6112 8.85831C25.6876 8.81139 25.7676 8.76272 25.8493 8.70885C25.8902 8.68625 25.9417 8.65497 26.0021 8.615C26.5708 8.24308 27.9091 7.14126 27.7456 6.28793C27.7402 6.25664 27.7314 6.2271 27.7225 6.19755C27.6354 5.76828 27.3599 5.29556 26.8872 5.20518C26.7415 5.17564 26.5922 5.16869 26.4447 5.17564C26.1976 5.18781 25.9524 5.23821 25.7125 5.29556C25.6414 5.30251 25.5703 5.30599 25.5028 5.30425C24.8825 5.28861 24.36 4.92711 23.8446 4.55172C23.5016 4.30145 23.1622 4.04597 22.7996 3.88261C22.6663 3.93648 22.4797 4.12071 22.2967 4.21108C22.1865 4.26669 22.0799 4.28755 21.9857 4.22672L21.6107 3.96603C21.4134 3.82873 21.2126 3.6897 21.2126 3.6897C21.1984 3.68101 21.1859 3.67058 21.1753 3.65841C21.1006 3.58194 21.0953 3.4794 21.1362 3.39772C21.1842 3.30387 21.2908 3.23957 21.4188 3.27954L22.6521 3.65494C22.5508 3.48288 22.4104 3.32125 22.2416 3.16657C21.0544 2.09252 18.4313 1.46165 17.7684 1.08973C17.7169 1.04975 17.6671 1.01152 17.6138 0.973285C16.6292 0.264203 15.458 0.00351118 14.2851 3.52884e-05C13.1139 -0.0034406 11.9427 0.250299 10.96 0.568344C10.752 0.636124 10.5548 0.705642 10.3646 0.776897C9.37292 1.14882 8.66026 1.55202 8.47543 1.72582C10.4357 0.992403 11.7064 0.994141 12.3533 1.08451V1.08625C12.6803 1.10885 13.329 1.40603 13.656 1.7206C6.79067 1.4825 0.872604 8.31955 0 15.7093C0 15.7093 0.556263 14.4927 1.24226 13.7506C-0.250585 18.5213 0.909925 23.0938 3.18829 26.6757C3.18829 26.6757 2.58582 25.1064 3.04078 23.4014C6.59695 34.2897 25.8084 35.7426 31.4777 22.4925C31.4812 22.4908 30.7739 23.3267 30.1786 23.5544Z" fill="#69E2DC"/>
<defs>
<linearGradient id="paint0_linear" x1="7.53202" y1="5" x2="7.53202" y2="29" gradientUnits="userSpaceOnUse">
<stop stop-color="#27D3A2"/>
<stop offset="1" stop-color="#9388FD"/>
</linearGradient>
</defs>
</svg>
