<svg xmlns="http://www.w3.org/2000/svg" fill="none" viewBox="0 0 358 359"><path fill="#fff" d="M179 358a178 178 0 1 0 0-357 178 178 0 0 0 0 357z"/><path fill="#141414" d="M324 75c20 27 32 59 34 92v16l-1 7c0 16-4 31-9 46v1l-12 1-1-1-3 1h-1c-2 1-4 2-6 0l-2-1c0-4-1-8-4-12-2 0-3-1-1-2-2 0-1-2 1-2h4c2 0 3-1 4-3l-1-5v-6l-1-6v-5l-1-5-1-1v-8h-1v-9l1-1-1 1c-1 0-2-5 0-6v-3h9l4-1h4l4-1 1-1c3 1 3-3 1-4v-10l-1-4h-8l-9 2-1-1-4 1-2 1a630 630 0 0 1-43 4h-1l-3 1-1 2 1 4c1 1 2 5 1 6l1 6 4 1 4-1v-1h7c2-2 10-1 11 1l1 11v6l1 2v9l1 1 1 15-1 1c-1 3-3 0-4-1l-16-8-9-5c-2 0-2 0-3-2-3 3-2-3-2-5a204 204 0 0 1-1-11l-2-16 1-1h-1v-6c-2-1-2-5 0-7h-8l-4 1h-9c-2-1 2-4 3-2l6-7h1l3-5h2l1-1c1 1 2 0 3-2v-13l2-4v-3l1-1v-2l3-11 1-1 1-2v-1l1-3 1-2c-1-1-1-4 1-5l2-8h2l7-2v1h5v5l1 1v10l1 7-1 1h1v9l1 4v3l1 5v7l1 4 20-3a1205 1205 0 0 1-2-35h-1v-7h-1v-9l1-1c-1 3-3-3-1-4l1-1h10z"/><path fill="#08090A" d="M114 218v1c2 3 2 6 2 9 3 0 4 1 3 4l9 18c4 2 7 8 6 12 2 0 6 1 5 3v1l-5 8c-2 3-1 1-2 1 1 1-1 6-3 6l-1 4h-1l-1 2v10l1 6v5l1 2h1l7 13 4 4 11 7h3c6 2 13 2 19 0l1 1 3-1h2l2-1 5-2 6-4 8-5 6-6c1-2 3 0 1 1 2 2 3 5 2 7l1 1 1 4v8c2 0 2 1 0 1l2 3-1 1 1 1v7c2 1 2 4 1 5l-10 1-1-5-1-2-1-1-1 4-1 1v4l-8 1h-23c-21-1-43-7-63-16-2-2 6-2 7-1l4-1v-1h7v-5l-1-9h-1v-10l1-1c0 2-1 1-2 0l1-4-1-6v-2l-1-8-1-10 1-1c-1 3-2 0-1-2v-5l-1-3v-6l-1-3h-1c-4-3-5-2-8 0l-9 1h-6l-3 1-4-1c-2 2-5 2-8 1-4 2-9 1-13 0l-4-2-4-5v-3h4c-5-4-1-6 4-4 1 0 3-1 3-3 6-1 6 6 0 5l10 4c2 0 2-1 1-2-2-6-6-10-10-14-1-1 0-1 1-2 2-1 13 10 15 12l1-2-3-11c-1-2 1-3 2-2l3 4c2 0 3 1 4 4 1 0 3 4 1 4h2l5-1h4l5-1h1l6-2-1-4-1-1v-7c-2-2-1-7-1-10l1-1c-1-1-1-6 1-4z"/><path fill="#8B8B8B" d="M186 1h-13 13z"/><path fill="#838484" d="M1 185H0v-11h1v11z"/><path fill="#696869" d="M358 190h-1l1-7v7z"/><path fill="#ECD18B" d="m346 242-6 15-1 1-6 1c1 2 0 4-1 4l1 1v7l-2 2c-2 1-3-3-3-4 3-3 1-5-1-1-4 2-7 4-9 7 0 4-1 5-4 8 2 3 1 4-1 4v1c-1 0-2-8-1-9v-7l-2-2c1-4 1-7-1-9-3 0-5-1-4-5-5 1-7-3-5-7l6-5c5 0 10 0 15 2 5-3 8-4 13-4 3-1 11-3 12-1 2 2 0 0 0 1z"/><path fill="#E9D59C" d="m348 238-2 4-6-1-5 2-8 1-6 3-7-2h-8l-2 2c-2 2-3 0-4 4 0 7 5 3 6 5 1 1-2 3 0 3h2v1h3v2l1 1v8l1 1-1 2 1 3v2c0 2-2 2-2 0-1 0-1 0 0 0l-1-1v-7l-1-1v-8h-12c-3 1-8 1-11-1-3-1-3-2-3-3v-9l7-6c4 0 8 0 12-2a590 590 0 0 1 46-3z"/><path fill="#8C8C8B" d="m238 315 5 1 5 3c2 0 4 1 4 3l3 3c3 1 5 3 6 5 3 3-1 4-3 2l-7-1c-4 0-3 0-6 2h-2l-1 2h-1l-3 3h-3l-1 1h-4c-1 0-1-2-3-1-3 1-1 1-2 2l1 2h-2l-3-1c-1 1-2 1-4-1h-3c-1 2-2 1-3-2v-2c-1-2-1-6 2-4l5-3c2-1 7 0 9 1h1c2-2 4-3 7-3 2 2 2 1 1-1-2 0-1-2 1-2-3 1-2-9-2-9h3z"/><path fill="#E9D69B" d="M255 272v-6c-2-3-2-17 1-19 2-2 9-1 11-1l8-1 2 4v6l1 4 1 17 1 1v11l1 3v7c-1 2-3-2-1-3l-3-3v-5c1-3 0-4-2-6 1-4 1-7-1-11 0-6-2-8-7-11-1-4-4-4-2 1l-2 2-5 15c-2 3-13 2-17 1l-1-1c3 2-1 3-3 2-3 3-9 1-6-3h1c1 2 2 2 3 1h5v-1h10c3 0 4-1 4-4h1z"/><path fill="#E9CA7A" d="m313 287 1-2-1-3 3-3v-3c1-4 4-5 7-7l4-3v-2l3 2c1 2-1 2-1 3l2 4c-6 9-10 16-17 24l-1-1c-1-1-2-8 0-9z"/><path fill="#E4D39A" d="M243 203c1-2 2-2 3 0l5 1c1-1 1 0 1 1 2 1 2 2 1 4 2 3 2 5 0 6l3 6c2 1 2 3-1 3 0 3 2 3 6 2 3 0 4 1 5 2l1-1 2-5 1-6v-4l1-1h1v1h1l1 3v14l-6 1c-4-1-7 0-9 1h-8v-8c-2-1-2-3-1-4v-9l-1-3-1-1h-8l-4-1h-1c-1 0-1-1 1-1l4-1 3-1z"/><path fill="#272728" d="M281 216c-1-4 3-2 3 1l5 4 6 9c0-2 2-1 2 0 2 1 3 2 3 4 3 2 3 3 3 6 2 1 0 1-1 1 0 1-2 2-3 1h-3l-1-1c-2-2-1-8-3-9h-3c-3-2-2-3-3-5l-4-4c-1-1-3 0-2-3s1 0 1-1v-3z"/><path fill="#E9DAAD" d="M348 236v2l-6 1h-10l-30 3-5 2-7-1-7 7v8l3 3c4 2 7 1 11 1 0 2-1 1-2 1h-6l-1 1h-5v-2l-1-1v-8h-1l1-10 7-1h7l3-1h3l6-1 4-1h7l2-1h13l1-1 7-1h6z"/><path fill="#484848" d="m212 342 3-1c1-1 3 0 4 1h5l2 1c2 0 2 1 2 3 5 2 1 5-2 5l-2 1-11 3v-4h-1v-9z"/><path fill="#E3DBB4" d="m207 250 2 1h9c2 0 1 0 1-1h7v-1h3v1l1 1v9l1 10v5c-1 2-2-4-2-5-2-5-2-9-2-14v-2c-1-1-14 0-16 1l-1 13-1 1c1 2 1 4-1 2l-1-3-1-1c1-4 0-8-1-12l1-1c-1-1 0-3 1-4z"/><path fill="#ECE2B8" d="M200 192c0-2 2-2 2 0v8l1 3c1 1 1 4-1 4l2 1 2 12c2 1 2 4 0 5l-1 6c1 2 8 3 9 3 2-2 5-2 8-2 1 0 3-1 3-3l1-1v-7h1v7c1 1 2 0 1 3 2 2-1 3-2 3h-6l-1 1h-8v1h-5l-1 1c0 2 0 1-1 0s-2-4-1-6v-4l-1-3 1-5c0 1-2 1-3-1v-8l1-1v-6c-3-1-2-8-2-11h1z"/><path fill="#9A9999" d="m308 280 2 2v10c1 3 2 5 1 8l-9 9c-2 1-2-1-2-2l2-3 3-8 1-8 1-1v-5l1-2z"/><path fill="#EEEADE" d="M268 229c0 2-1 1-2 1h-6c-2 0 0 1-1 1h-8l1 6c-3 3-6-7-6-9l1-5-1-3c0-1 2-1 1-2-2-1-1 1-2 1-1 1-1 0-1-1-1-1 1-1 1-2 0 0 0-2 1-1l2 3 1-1 1 1v4l1 1v7h7l2-1h8z"/><path fill="#E0D9C1" d="m252 262 1-2c1-4-1-5-1-7l1-1v-4h-1c0-3 2-2 4-2s0-1 1-1h10c4 0 1-1 2-1h7v3l1 1v7l-1-2v-5h-1c0-1 1-2-1-3-3-1-3 1-4 1h-9c-2 0-3 2-5 1 1 2 0 3-1 5v12c0 2 1 1 1 1v4l-1 2c-1 2-2-1-2-2v-8l-1 1z"/><path fill="#D9C190" d="M258 297c2-2 3 1 1 2l1 1c0 3 0 4 2 7l1 14 4-1h4l7-1c1-2 4-5 5-2l1 2v1l-3 1c-1 1-3 2-5 1l-1 1-1 1-10 1-1-1h-1l-2-1-1-1c1-2 0-4-1-6v-11c-2-2-1-6 0-8z"/><path fill="#DBD7D3" d="M284 320v1h-3c0 3 1 6-2 7 0-2-2-3-2-3 0-2 2-2-2-2v3c1 1 2 1 1 3l-5 4-1-1c-2 1-3-1-3-4-1 3-2 4-3 2v-6c4-1 7-2 12-1v-2h5v-1h3z"/><path fill="#4B4B49" d="M198 216c1-1 2 3 1 3l1 3 1 2h1l1 5c1-1 1 1 1 2l1 6 1 3v2l1 3v1l1 5-1 3c-3 3-3-3-2-5-1-1-2-3-1-5-1-1-2-4-1-6l-3-8-3-6v-9c1-1 1 0 1 1z"/><path fill="#D8D7D6" d="m282 291 6 3c1 0 5 0 5 2 0 3-4 3-6 4h-5v-9z"/><path fill="#585858" d="M227 343h2l3 1 3 1h1l3 1 2 1-16 5 1-4 1 2 2-1c1-2-1-2-1-2l-1-4h1-1z"/><path fill="#D3D1D0" d="m228 231 3 1 3 3 3 1 1 3v1c0 1 5 1 4 3l-4-1c-1-2-4-1-6-4-2-2 0-1 0-1h-2l-2-3h-3l2-1 1-2z"/><path fill="#CCC6C2" d="m252 261 2 3v6l1 2v2l-2 2h-4v-4c1-3 3-7 3-11z"/><path fill="#ADADAD" d="M264 330h1c1-1 0-6 1-4v1l2 2v2c1 1 4-1 3 2l-12 6c-1-1 1-1 1-2v-1l1-1c0-2 1-3 2-3l1-2z"/><path fill="#252219" d="m340 257-6 12h-1l-1-6v-4h-1c-1-1 2-1 3-1l1-1h4c1 0 0-2 1 0z"/><path fill="#958C79" d="M308 271c1-2 2 0 2 2v6l1 1 1 7v11l-1 2v-3h-1c-1-1 0 0 1-2l-1-3v-10c-1-2-2 0-2 0v-11z"/><path fill="#35322F" d="m241 206 5-1c3-1 1-2 2 0v1l1 3 1 1v1c1 2 0 6-2 4l-1-3c-1-1-5-3-6-6z"/><path fill="#3C3736" d="M274 206c-3-3 2-6 2 0l4 4v4l-3 1h-1c-2 2-4-1-2-3-2-1-2-4 0-5v-1z"/><path fill="#DCCB94" d="M312 279v6l1 2 1 9-2 2c1-2 0-3-1-4v-15h1z"/><path fill="#F1E6B7" d="M235 205h1c2 1 1 1 0 2h-9v14c-1 3-4-1-1-2-1 0-2-1-1-2-3-1-3-4 0-5-1-6 0-9 7-7h3z"/><path fill="#B9AF8B" d="M307 263v-2h3v9l1 1v8c-2 0-1-1-1-2v-5c0-2 0-1-2-1v-5l-1-4z"/><path fill="#CACBCA" d="M262 330c1-2 1 0 1 2l-2 2h-3v-1h-5l-3-2h5l1 1h5v-2z"/><path fill="#E7E0BC" d="M282 291v9l1 13c0 2-1 1-2 0v-22h1z"/><path fill="#E9E4C9" d="M289 242c0 2-1 1-2 1h-4l-1 10c-1 1-1 0-1-1v-10h8z"/><path fill="#F5F2D5" d="M236 205c1 0 5 0 4 1l-1 1c-2 1-1-1-2-1l-2 1h-7l2-1h4c2 0 2 1 2-1z"/><path fill="#EEE2BA" d="M274 212v2h1v1l-1 5c-2 0 1-3-2-3-1-1 2 0 1-1 0-2-1 0-1-1v-3h1z"/><path fill="#7C7257" d="M332 264c3-1 0 3 2 5l-2 2v-7z"/><path fill="#555456" d="M280 212h2l1 1c1 0 3 2 2 3h-2c-1-1-2-3-2-1-1 1-1 0-1-1v-2z"/><path fill="#EEE2BA" d="m274 221 1 2v5h-1v-4c0-1-1 1-1-2 0-2 0-2 1-1z"/><path fill="#8F836B" d="M250 211v5c0 1 0 0 0 0l-2-1v-1c2 1 1-1 1-3z"/><path fill="#EFE5C7" d="M231 270h1v6l3 1c0 2-1 1-3 1v-2h-1v-6z"/><path fill="#E9E4C9" d="m295 240 1 1v1h-5c-1-2 5 1 4-1v-1z"/><path fill="#DBD7D3" d="M283 313h1v6l-1-2v-4z"/><path fill="#817F81" d="M280 213v1h-4c0-2 2-1 4-1z"/><path fill="#868685" d="M236 345c2 0 4-1 3 1-1 0-3 1-3-1z"/><path fill="#BDBCBB" d="m203 351 1 1v4h-1v-5z"/><path fill="#7F807E" d="M206 246c2 0 1 3 1 4h-1v-4z"/><path fill="#858286" d="M205 241c2 0 1 3 1 4-1 1-1-2-1-4z"/><path fill="#696A69" d="M211 338c2 0 1 2 1 2 1 1 2-1 2-2 1 3 1 2 4 2 2 1 0 2 2 1 2 0 1-2 2-1s0 2 1 1l1-1v2h2l2 1h-1c-2 0-3 1-3-1-3 0-2 1-2 1l-1-1c-1-1-1 1-1 1-2 1-2-2-3-2l-1 1h-4l-1-4z"/><path fill="#868685" d="m232 344 3 1c-2 0-3 1-3-1z"/><path fill="#B5B5B4" d="M229 343c2 0 3-1 3 1-1 0-3 1-3-1z"/><path fill="#949392" d="M205 237v2c-1 1-1-1-1-2h1z"/><path fill="#171718" d="M173 1h13c20 1 40 5 59 12-1 3-2 0-4 0h-8l-2-1h-14l-4 1h-5l-3 1-4 1-3 1-10 3-7 5-7 4-3 3c0 2-2 3-3 5h-1l-2 3-2 5-2 3-2 7-1 6-1 7-1 1c0 1 1 6-1 7h-11l-3 1-4 1-9 4-7 6-6 6h-1l-1 3c-3 9-4 17-3 27l1 6 1 3 2 4c2 1 3 3 3 5s3 5 5 6c1-2 6 1 4 2 1 2 2 3 4 2 1-1 4 0 4 2 2 2 5 4 8 2 0-1 0-1 0 0h8c0-2 0-2 1 0 1 1 0 2-2 2 1 1-6 7-6 7h-12c-3 2-6 2-9 2-6-2-12-3-19-3-6 1-11 1-17-1l-12 3c-7 0-11 4-14 9l-2 1c2 0 1 1 0 1h-1v1H47v1l-4 1h-4l-8-1c-2 0-4 0-5-2v-6c-2-1-3-2-3-4l11-5v-3c0-2 2-1 2 0 2 0 1 4 1 6v3l3-1 1-1v-12c-2-1-2-7 0-8v-7h4l5-1 1-1h11l5-1 2-2v-6l-1-4v-3l-1-3-1-1-4 1h-6v1h-3c0 2-8 3-9 2l-1-1h-4l-1-2v-3l-1-3c-1-1 0-2 1-4h1l4-1h5l3-1 1-1h5c1-1 5-2 6 0a82 82 0 0 0 9-2V86c-2 1-3 0-4-1l-4 1v1h-9a449 449 0 0 1 17-17h1c-1-1 1-3 2-3v-1l4-9c1-3 1-1 1-1l1-2 3-4 1-3 1-3v-4l-1-2-1-1c0-2-2-1-2-2l-3-4 14-8c25-14 52-21 80-22z"/><path fill="#211E20" d="M149 92c1 0 5 0 5 2v12c1 3 1 0 1 1l-1 1h-3l-2 1h-3l1 1 1 6v8h1l1-1h4c3-1 7-1 7 3 3 3 3 7-2 7 0 2-5 3-6 1l-2 1c-1 2-3 2-5 0l-3-1c-4 1-8-3-10-7-2-2-3-6-3-10-2-1-2-5-1-7l1-3 1-3 1-2h-1c0-1 9-10 11-8 0-3 7-2 7-2-1 1-1 0 0 0z"/><path fill="#F4E18F" d="m314 62 7 9c0 2-1 2-3 1v3c1 2-4 1-5 1v26c3 0 3 6 0 7l-1 2c2 1 2 3 0 3l-1 1h-3c0 7-2 8-6 3-1 1-3 4-4 1-1 0-2-1-1-3l-1-1-1-11-1-1-1-12 1-5 1-1c1 1 2 0 3-2-3 0-2-2 0-4l2-2c0-5 5-10 6-3h4c1-1 0-2-1-3 1-2 0-4-2-5v-1s6-6 7-3z"/><path fill="#C4C3C3" d="M226 26h5l1-1h12c2 0 1 1 1 2l1-1h3l-2 1c3 0 2 1 3 2l4 1 1 1h4l1 2c3-1 4 0 4 1 1 0 4 2 2 4h-7c0 1-1 2-3 2h-2c1 2-1 2-2 1-1 2-2 2-3 2-2 2-6 3-8 1h-5l-1-1c-3 0-7 0-8-4h-1c-2 2-5 1-6-2 0 2-2 3-4 2l-2 4-3 1c1 2-3 3-5 2-1 2-5 3-6 1-1-1 0-2 1-1l3-3c5 0 8-3 1-3 0 2-3 2-4 1h-2c0 2-1 2-2 0v1c-2-2-3-2-4-1h-3c1 2-1 2-2 1-3-1-3-2-2-3h2l5-2 6-2 1 1c1 1 3 0 3-2l4-1-1-2 7-3h9l4-1c-1 0-2-1-1-2z"/><path fill="#151516" d="m310 58-1 1c-3-1-6 0-9 1-2-1-4-1-6 1l-6-1-2 1h-11l-2-5c-2 0-2-1-2-3v-3h2l2-2 4-1 6-8 1-2v-1l24 21v1z"/><path fill="#F7E7A1" d="m311 60 3 2c-3 0-3 3-6 3l1 2c0 1 0 2 2 1 1 2-1 2-1 4h2l-1 2c-1 3-2 0-4 1 0 0 1 3-1 2-1-4-1-8-5-2s0 2 0 2l-4 5c1 2 1-1 2 0l1 2c-2 0-2 3-5 3l-1-1-1-2-1 1-1-2v-4h-8l-1-1c-1-1 0-2 1-2 3-1 5-4 4-7-2-3 1-4 4-4 1-3 5-4 8-4l1-1c-1-1 4-1 5-2l6 1z"/><path fill="#DCDDDD" d="M174 36c0-2 1-1 2-1v-1h2c1-1 0-2 2-3l2 1 2 1 1 1 2-3 5-1 5-1c2 0 0 0 0-1 2 0 4 2 6 1l3-3h1c2-1 3 1 5 1 2-1 3-3 5-3 5-1 4 2 6 3l2-1 2 1c2 0 5-1 4 2l-1-1h-3l-1 1h-2l-1 1-2-1c-1-1-3 1-4 1l-1 1h-2c-1 0 0 2-2 1-3 0 2-1 2-2l3-1h-4l-4 2h-2c0 2 1 1 1 1 1 3-2 2-3 2-2 0-3 3-3 3l-2-1 1-2s-3 3-3-1h-2l-6 4c-1 1-4 3-4 1l-2-1c-2 1-5 1-6-1h-4z"/><path fill="#9B9B9B" d="M176 36h1c4 0 1 4 0 3h-1c-1 1-1 1 0 0s3 0 1 1l1 1 6 2 1 1c-3 5-6 10-4 16 2-3 3 3 1 3v5c-1 1-3-1-3-2-1 2-2 3-3 1h-1c1 1-4 3-2-2 1-2 1-3-1-1-1 1-3 2-4 1v-4c-1-2 0-4 2-6 0-4 3-7 4-1l2-4v-1c2-1 1-2-1-2 0-2-1-3-2-2 0 3-2 4-3 2h2c1 2-1 6-3 4-3-1-1-7 1-4-2-1-1-5 0-6-2-1 1-4 3-4l1-1h2z"/><path fill="#F5EFBB" d="M151 75c4 1 3 1 3 5l1 2-1 5v4h-5v2h-5l-1 2-5 1-6 6c-1 2-1 2-2 0-3-5 5-13 11-11l6-5-2-5c-2 0-4 0-5-2s4-3 5-3h6v-1z"/><path fill="#CBCBCB" d="M164 51v-3h1l-1-1c-1-2 1-1 1-1l3-6v-3h2l1-2c2-2 0 2 2 1v1l-3 3 1 2-1 1v4h-1v3c1 1 2-1 2-2l-1-2c3 1 1-2 2-2h2s-1-3 2-2l-1 1c1 1 0 5 2 3h1c1 1-1 3-1 3v2h-1l-1 4c-2 0-2-2-2-4-3 1-2 3-2 5l-2 2-1 3c2 3-3 2-4 0s0-4 1-4l-1-6z"/><path fill="#D6D7D7" d="M245 56c-2 0-2-3 1-3 1-2 3-2 4 0 4-1 4 1 3 4l1 3 1-1 4 2h2l1-2 4-4h1l1 6 1 1c1 3-1 2-3 3 1 2 3 4 2 6-2 0-2-1-3-3l-4-2-2-1c-1 2-2 1-2-1h-7v-1c-1 0-2-1-1-3h-1c0 2-3 4-4 2-1 2-3 1-2-1v-1l1-1 2-3z"/><path fill="#C3C3C0" d="m157 87 2 2 1 1c-1 2-1 3 1 5 0 4 1 9 3 13v1h1c0 1-2 4-3 3l1 3c1 2 1 2 0 0v-3c2 0 8 6 5 8l-1 1c1 2 0 4-2 3-1 1-1 2-2 0-1 3-2 0-2-1l-2-1-2-4v-13l1-2c-1-1-4-1-1-2V89l-1-1 1-1z"/><path fill="#9B9B9B" d="M172 64h1l1 5c-1 1-2 2-1 3 2 1 1 2-1 2l-1 1c0 2-3 2-4 0h-1c3 1 1 2-1 2v1c2 0 2 2 1 3 2 0 2 1 0 3 1 0 2 2 0 2 0 2-2 3-3 2l-1 1v2l-1 1-2-3-2-2-1-1c0-2 1-1 1-1 1-1 0-1-1-1l1-1 1-3 1-1c1-1-1-1 1-2l2-3c0-2 1-2 2-2 1-3 2-3 3-2 0-2 3-6 5-5v-1z"/><path fill="#F1ECBF" d="M154 109v1h1l2 8v5h-3v1h-7v-8l-1-1v-6h8v-1z"/><path fill="#F1EFE1" d="M154 109c2 0 3 2 3 3l1 1v5c0 2 1 0 1 1v2c0 1 2 0 3 2v1h1l2 2v4c2 1 7 3 5 6-3 3-1 1-2 0l-1-1c1 3-1 5-3 7l-3 3c0 2-1 2-1 0-2 0-1-1 0-1 0-3 1-5 4-7l-4-4h-1l2-1h1v-3l-1-3-1-1c-1-2-3-2-5-2h-4 6c1-5-3-9-2-13l-1-1z"/><path fill="#C7C7C7" d="M268 75c2 1 1 1 1 3 2 1 0-2 2-2v1l3 2v4s1-2 1 2l-2 2v8c2 0-1 3-2 3l-1 4v5c0 3-1 4-2 3l-2 1V97h1l1-1c0-2 0-3 1-1v-3c0 3-3 0-1-2l-1-1v-4l-1-2 1-7h1v-1z"/><path fill="#F0EBD0" d="m310 58 1 2c-3 0-8-1-11 1h-4l-7 2-4 1c-4 0-4 1-3 5v9c2 1 1 1-2 2h-2v-5l1-1-1-9-1-2-1-2c2 1 1 0 2-1h9c2 0 0 0 1-1h7l1-1h8c3-1 0 0 1-1h5v1z"/><path fill="#B6B6B6" d="M164 51h1v5c1 1 2 0 1 1 0 2 0 1-1 1v3c2 1 0-3 2-2s0 3 0 3c2 1 1 0 1-1 3 0 0 3 0 4l1 1-3 4c-2 0 0 1 0 1h-2l-1-4-1-1-1 4c0 1-2 1-1-1v-4s-2 0-1-3 1-1 1-1l3-7 1-3z"/><path fill="#F5F1D2" d="M151 74v1c-3 0-5 2-8 1l-3 3-1 1h-6l-4 3c-2 2-4 4-7 4 0 2-1 3-3 4 0 1 0 2-2 3-1 3-4 2-2-1 0-3 2-2 3-4l2-3 2-1 3-3h2v-2l4-1c4-1 5-3 10-3l3-1h7v-1z"/><path fill="#DADBDB" d="M259 31h4c1 0 1 2 3 1v3h4l1 1h4l-4 2-4 5c-1 1-1 0-1-1l-2 1h-2v3h-1v-4l2-1 2-3h1v-2h-4l1-2c-2 0-5 1-4-3z"/><path fill="#EAEAEA" d="m276 88-1 5-1 2-1 3v3h-1l-3 12-1 2-1 1h-1v-5l1-4 2 2v-8c0-2 1 0 1-1v-4l2 1c-1-3 1-1 1-3-1 0-1-6 1-6h2z"/><path fill="#A1A0A0" d="m262 46 2 3v2l1 1 1 3c1 4 0 2-1 3l-3 1c0 1-2 0-1-1v-6l1-2-2-3v-1c0-2 1-2 1 0z"/><path fill="#D6D7D7" d="m163 67 1 5-1 2-2 1c0 2 1 2-1 2 1-2-2 0-2-1l1-1v-6c1-2 1 0 1 0h1c1-3 2-3 2-2z"/><path fill="#F5E9AA" d="m321 71 3 4h-6c-2 0-4 1-4-1 3 1 2-1 3-3h4z"/><path fill="#898989" d="M259 65c4-1 4 3 7 2l2 4v2l-1 1c-1 2-2-1-1-2h-1v-1l-3-3c-1 1-1 1-1-1 0 0-1 0 0 0-2 0-4 0-2-2z"/><path fill="#9B9B9A" d="m275 85-1 2 1 1-1 2v5c-2 0-2 0-2-2v-7l4-2h-1z"/><path fill="#5D5E5D" d="M271 53h1v2l2 1 1 5h-1l-3-5c0-2-1-1-1-1l1-2z"/><path fill="#6B6B6B" d="m181 24-2 2c-1 0-3 3-5 2 3-3 5-3 7-4z"/><path fill="#848484" d="M166 39v2c-1 1-2-1-2 3l-2 3 1-6c1-2 2-2 3-2h-1z"/><path fill="#909091" d="M171 31c1 2-1 4-2 4h-1l2-4h1z"/><path fill="#7D7D7E" d="M217 12c1 1-2 0-3 1-1-2 2-1 3-1z"/><path fill="#999898" d="M286 37v2h-1v-3l1 1z"/><path fill="#F1EFE1" d="M157 105v3c-1 1-1-1-1-2l1-1z"/><path fill="#ADADAD" d="m202 14-1 1h-3l3-1z"/><path fill="#606161" d="M208 13c1 1-1 0-3 1 0-2 2-1 3-1z"/><path fill="#BCBCBC" d="M268 73v2c-1 2-3-1-1-1 0-1 0-2 1-1z"/><path fill="#2D2D2C" d="M223 137h3c3 2-2 2-4 2l-1 2c-9 1 2 4 5 3 15-6 13 5 6 14-2 2 3 1 2-2l9-5c2-2 8-5 8-1 1 3-1 1-1 1-1 1-4 0-4 2s-1 2-2 0v4c2 0 2 1 0 2 0 1 0 2-2 1l-1-2-4 4c-1 5-4 7-9 7 0 4-2 4-4 0h1c0 2 1 8-1 9 1 1-1 2-1 0l-1-6v-14l-1 1c-1 2-3-1-1-2l-1-1c-3 0-3 0 0 1l1 1h-10l-1-4-5-4c-4-4-5-6-1-7h4c2-2 4-5 7-5h9v-1z"/><path fill="#757575" d="m272 198 2 1 5 2h1v1l4 2 14 7 3 1c2 1 1 3 3 2l1 1 1 8 2 1 5-1c0-2 4-2 5 0 0 2 2 1 2 1v1c3 4 4 7 4 12 0 0 2 0 1 1h-3v1h-3c-2-1 2-2 3-1-2 0-3-1-4-3h-1l1 3v1h-6l-4 1-6 1 1-2 2-1c1-2 1-4-2-5l-1-2c-3 0-4-2-4-5-4 1-6-2-5-5-3-1-6-6 0-4-1 1-1 1 0 0s1-1-2-2l-1-1c-1 3-4-2-4-3h-4c0-1-1-2-2-1 1-2 5 2 3 3l-2-1h-1v-2h-1l-4-4v-3c-2 0-1 2-1 3 0 2-1 1-2 0v-8z"/><path fill="#1D1D1D" d="M240 135c2-1 4 1 5 3l4 1c3-1 6-2 8-1s1 2 0 2c1 1-1 5-1 4v1c-2 2-4 6-7 6l1-2c-4-1-4 1-6 3l-9 5c-2 2 0 3-3 3-5 0 0-4 1-5l3-9c1-3-4-3-6-2l-4 1c-1 0-9 0-9-2-1-3 3-2 4-3v-2h4s2 1 1-1l1-1h12v-1h1z"/><path fill="#F1E1A4" d="M336 144h5l-1 1c0-2 3-2 4 0 0 3 1 3 1 2 2 0 1 1 1 2v8l1 1v4h-4l-4 1h-3l-5 1h-9l1-1v-1h8l6-2 5-2c2-2 2-4 0-3l-2-9c1 2 0 3-3 1-1 3-3 3-5 1h-2c-1 1-3 1-3-1-2 2-5 2-6 0v1c-3 1-8 3-10 1-3 1-6 2-9 1l-5 1c-1 2-5 4-7 1-1 2-3 3-3 0-2 1-4 2-7 1-1 1-5 5-4 7 3 1 3 3 0 3 2 0 3 1 3 4h11c1-2 9-2 11-1s3 3 3 5l-1 8 1 2v4c2 2 3 3 3 6 1 1 1 2-1 4l1 9v11l-1 1c1 1 2 3 1 5 2 0 3 2 1 3h-2c-2 0-1-7-1-9l-1-16c-1-4-1-1-1-1v-10l-1-2v-9l-1-2v-7h-9c-3 0 0 1-1 1h-8l-3 1h-5v-7l-1-6v-6l4-1h5l1-1c3 0 7 1 9-1l30-3 4-1 10-1-1 1z"/><path fill="#F2E3A2" d="M312 114c1-3 0-1-2-2-3 0 2-2 2-2v-1l2-2v-4l-2-1V84c0-1-5-2-1-4 1 1-1 4 1 3v-3l-1-3 1-2 1 1v4h1v10l1 1v6l1 5 2 29c0 1 2 0 1 1l-2 1h-5l-11 2h-4l-1-3v-4l1-6v-1c3-3 3 2 2 4l2 1c-1 2 2 9 4 4l2-1c1-3 4-2 6-1v-3c-1-1 0-3 1-3 1-2 0-3-1-4l-1-4z"/><path fill="#EDDEA9" d="M263 152h4v7l1 1v5l1 16 1 1 1 11v5h1v13h-1c-1-1-3-5-1-6l-2-6v-8c1-2-1-4-2-4-1-2 0-4 1-5-1-3-3-7-1-9l-1-9v-3l-3-3c0-2 0-2-2-2h-2l-8 1c-2-1-2 0-1 4-2 2-2 8-1 11 2 1 1 11 1 12-2 1-6 2-7 0v-1l3-1v-11l-1-1v-17h2l3 1 4-1h2l4-1h4z"/><path fill="#F0E3A3" d="M322 164c2 0 2 1 0 1v7h1v10l1 1v9l1 4v5h1v12h1v8h-4l-4 1c-3-1 2-4 3-4l2 1v-2c1-2 0-5-1-8-1 2-6 0-4-2-4-2-1-5 2-5-1-1 0-2 1-4-3 0-4-1-2-3v-1l1-21c-2-1-2-3-1-5v-3c-1-1 1-3 2-2v1z"/><path fill="#F1EBBC" d="M292 85v-5l1-1 1 7v7l2 1-2 1 1 1v6l1 2v10c1 3 1 1 2 1v13h-2v-4l-1-5v-3l-1-4v-9h-1V93h-1v-9z"/><path fill="#EBD18C" d="M323 209c2 1 1 2 1 3l1 1v4h-1l1 3c-1 1-2-2-3-2-1 2-1 1-2 1-3 3 1 2 3 2 0 2-3 1-4 1l-1 1h-4l-1 1h-5c1-3-1-1-2-2v-7c1-2 3 1 3 2l2 1c2-1 4 0 6 1 1-1 4-3 5-1h-1c0-4 2-2 3-1-1 0-2-2 0-2-1-2-2-4 0-6h-1z"/><path fill="silver" d="M262 109v1l1 5h1c0 2 1 2 2 1h1v3l-1 5c0 1 1 2-1 1v-1l-1 2v7h-2v-1l-1-11v-1l-1-4v-5c-1-2 0-5 1-2z"/><path fill="#DDDCCC" d="M262 133c2 0 1-1 1-2v-5c1-2 2-1 1-3 2 0 1 1 1 2v14h-4c-1 1-3 1-2-1l1-2 2-3z"/><path fill="#EBE7BB" d="M336 143h5c2 0 1 0 1-1h3v8h-1c1-1-2-6-2-6l-2 1v-1c-1 0-4 1-4-1z"/><path fill="#F6F2BE" d="M300 61c-2 2-3 0-4 1-2 0-3 1-3 2l-2 2c0 1-5 0-3 2 1 2 0 0 0 0 1 3 0 6-2 8-2 1-3 0-4 2l8-1c1 2-3 0-2 2l-4 1h-4c0-2 2-1 2-1v-1h-2v-6l1-4c0-1-2-3 0-5h4l4-2h6l1-1h5l-1 1z"/><path fill="#6E6E6D" d="M259 138c0 2 1 1 3 1 0 2-3 1-4 2v2l-2 1c-2 0 0-1 0-1l1-3 2-2z"/><path fill="silver" d="M265 126v10c-1 1-1 0-1-1v-7l1-2z"/><path fill="#554C3B" d="M274 153v4c-3 1-2-2-2-4h2z"/><path fill="#867F61" d="M335 237c1 2-2 2-4 2-1-3 2-2 4-2z"/><path fill="#A8A283" d="M325 201h1v6h-1v-6z"/><path fill="#B3A77C" d="M267 159h1v6h-1v-6z"/><path fill="#979279" d="M296 132c2-1 1 2 1 3h-1v-3z"/><path fill="#B3A588" d="M253 153c1 2-2 2-3 1-2 1-2-1 0-1h3z"/><path fill="#EBD18C" d="M326 213h1v5h-1v-5z"/><path fill="#F4E18F" d="M295 119h1v5h-1v-5z"/><path fill="#71684F" d="M250 153v1h-4v-1h3z"/><path fill="#746947" d="M315 97c2 0 1 4 1 5-1 1-1-3-1-5z"/><path fill="#928971" d="M324 191c2 0 1 4 1 5-1 1-1-3-1-5z"/><path fill="#969697" d="M274 98c-1 2 1 4-2 3 0-1-1-3 2-3z"/><path fill="#8D825C" d="M335 163c1 2-2 1-4 1l4-1z"/><path fill="#817A5D" d="M343 162c1 2-2 1-4 1l4-1z"/><path fill="#9C9777" d="M294 112c2 0 1 3 1 4-1 1-1-2-1-4z"/><path fill="#8C8466" d="M283 169c1 2-2 1-4 1l4-1z"/><path fill="#7F755D" d="M259 152c1 2-2 1-4 1 0-2 3-1 4-1z"/><path fill="#68685A" d="M263 152c0-2 3-1 4-1v1h-4z"/><path fill="#847E64" d="M277 150c1 2-3 1-3 1v2h-2c0-3 1-1 2-2v-1h3z"/><path fill="#675E47" d="M326 145c1 1-2 0-3 1-1-2 2-1 3-1z"/><path fill="#656666" d="M268 115c0 2 1 4-1 4v-3l1-1z"/><path fill="#F0D67D" d="M325 164c1 2-1 1-3 1v2c-1 1 0-1-1-2h1v-1h3z"/><path fill="#6D6C6C" d="M275 93c0 1 1 3-1 2l1-2z"/><path fill="#0A0B0B" d="m161 145 1 1c0 5 1 10 6 14l-1 1h1c2 3-11 2-13 2l-2-1-3 1-7 3-1-1-2 2v1c-5 2-9 4-13 9h-1c0 2-1 5-3 4l-1 1h-10l1 19c0 2-1 2-2 1v-1l-1-7v-3l-1-7c-1 0-2-4-1-5v-8l-6-1h-4v1h-5v1h-8v8c1 0 2 1 2 3v13h1v7l1 11 1 1v8l-1 1c0-2 1-1 2 1 1 1 0 8-1 8l-1 1c-2-1 0 3 0 2l1-1 1-1v10c-2 1-2-2-3-2l-2-1c-1-1-3-5-4-4l3 13c-1 5-3 1-5-1l-8-7c-2-1-6-3-3 0 4 4 6 5 9 11 1 2 3 5 0 6l-4-1-5-3c-2-1-3 0-3-2 5 1 6-3 1-4-1 5-4 2-8 2-1 2 1 3 2 4 1 2-4 1-5 1-1 1 3 4 4 4l1 2c1 1 3 0 3 3h15c3 1 0 1 1 1l4-2c3-2 4 1 5 1l2-2h13c6 1 3-1 5-2 2-2 5 0 6 2l-9 1v1H94v3h1v7l1 2-1 5h1v4c2 4 2 10 1 14h1l1 8v8h-1c-2 4-4 5-8 4l-6 1s4 10 6 9l1 2c3-1 6 2 3 4l-26-17v-1h4l1-1h6c2-2 4-2 7-1v-8c-1-1-2-6 0-7l-1-4v-1h-6c-2-1 0-2 2-3h4c4-4 11 1 3 4l6 2c-2-3-3-6-2-10l-4-2c-3 1-6 2-9 1l-6 2v4c3 0 5 0 5 2v2h-4l-5 1-1 1-10 1-1-1h-1c1-2 0-4-1-5v-6c1-2 2-2 3 0l4-1v-1h5l1-1h8l1 1c-2 0-2-1-1-1 1-1 6-2 7 0l4-1h1c0-1 1-2 2-1-1-2 0-4 1-5l-1-4c-2-2-2-5 0-6l-1-3h-1l-9 2h-5l-7 1-1 1h-7l-1-1c3 1-3 3-5 1h-2l-4 1h-4l-4 1h-3l-4 1-1 5h-1l-4-6 2-2c4-1 0-7-2-7-2-2-1-8 0-10l-1-3c-4 0-4-2-4-5v-6l-1-7c-6-5-8-8-4-16l1-2c-2-6-1-12 2-17 1-3 1-4-1-6l-1-5-5 5c-7-3-12-11-11-19l-1-1 1-6h6-3v-1h7l3-1h1l1-1 9-2 8-2c3-1 0 0 1 1h1v3c-2 1-1-1-2-1l-6 3c-2 1-4 1-3 3 0 2 1 1 2 2v7l12 1c3 0 0 0 1 1h-8l-5 1h-1l-3 1 1 1 1 12v6c0 4 0 8 2 11l-1 7 1 2v9l1 1 1 10c1 2 0 4-1 5h1v7l1 1c-1 3 1 4 4 3l1 1v-1h13v-1h3c-1-1 0-2 1-2l-1-5v-4l-1-5v-10c3-1 7-1 7 3 2 0 3 0 4 2l11 5c-1-3 0-5 3-4v-1c-5-5 4-5 6-1h2c-1-1-1-2 1-3l-6-5v-9h3l4 6c0-1 1-3 3-3l-2-3 1-11c-3-2-3-5-2-8l-2-2c-1 5-8 3-9 0v-1l1-1h4l3-1v-8l1-1h-1v-9h-7l-1-2c1-2 9-3 11-2-1-4 2-5 4-3 4-1 4-2-2-2l-17 2c2 1 2 3 1 4 2 1 3 2 1 3v1h-5a100 100 0 0 1-8 1l-2-1c4-2 5-7 9-9 6-3 12-1 17-2 6-1 2-2 3-2l4 1h19l9 1 6 2 7-2 12-1 6-5v-2c1-1 2 1 2-1v-1l3-3 2-3c0-2 1-3 4-2h2z"/><path fill="#08090A" d="M1 171c2 1 1 4 1 6l4 9 6 5c1 0 6-6 7-5v6l2 1v4l-2 5-2 7c0 2 2 3 1 6-1 4-4 8-1 13 3 4 5 3 5 5v3l1 3c0 3-3 13 3 10l1 3 1 1-1 2-1 7 3 2 3 5-5 4c-16-27-25-57-26-88v-14z"/><path fill="#D3D1D3" d="M38 120h1v1c2 0 3 4 1 5-3 7-3 12-3 19l-1 1v8c1 1 2 2 0 2l-2 2v1l-1 1-4 1c-5 2-8 2-13 2h-1c1-2-3 0-4-1v-2H8l3-4 2-4 3-6c2-6-8-1-8-6l5-1 7-4 1-2h-2c-1-4 3-2 5-2s0-1 0-2h3l1-2h5l-4-1v-1h4c1 1 4 0 3-1-1 0-1-1 1-2v-2h1z"/><path fill="#9A999A" d="M28 84c2-1 4 1 5 2 3-1 5 0 5 1l3 1c2 1 1 1 0 2 0 4 0 12-4 13h-1l-1-1c0 5-4 2-5-1v4l-1 1h-3c1-2 0-4-1-6l1-1v-2h1l3 4-1-1v-5l-1-3-3 1c-1 2-2-1-1-2h2l-2-1 4-6z"/><path fill="#49484A" d="m22 109 1 1c2 0 2 0 2 2-3 3-1 4 2 5 1 2 3 1 4-1 0-2 0-3 2-4-1-3 2-4 3-1l1 1-1 7h-1c0 1 0 2-2 2 0 2-2 3-4 4v1l-6-1h-5l-1-1c-3-1 1-2 3-1l-2-3v-7c-1-2-1-3 1-4l2-1h1z"/><path fill="#6E6E6F" d="M26 98v1l-1 2 2 3c0 3 0 4 2 3l1-2c2 1 2 3 0 4l-1 2c2-1 3 1 2 2 2 7-8 2-6-2l-3-2h-2s1 2-2 2l1 1c1 2 0 2-1 3h-1c-2 0-1-2 0-3l-1-1 1-6 6-12h1l2 6v-1z"/><path fill="#E9EAEB" d="m52 56 1 1c3-1 4 1 2 6 0 4 8 4 11 4h1l5-3v-2h1l3 2c0 2-1 3-2 1 0 2-1 3-3 2 0 2-2 2-4 2 0 2-2 2-4 1l-5 1h-5c-2 1-3 0-4-4-2 0-4-2-4-6l3-3 2-1c1-2 2-2 2-1z"/><path fill="#D6D6D6" d="m74 35 2-1v1l3 5v1c1 1 4 0 4-1l1 4h-1c0 4 0 4-2 7s1 1 0 1h-1v2h1c0 2 1 2-1 2v-2l-1 3c0 2-1 3-3 2l-3 3h-1c-1 1-3-2-1-3-1-1 3-5 4-5 0-1 0-3 2-3l2-5c-1 2-4 0-2-2v-1l-1-1c1-2 1-2-1-3-2 0-2-2-1-4z"/><path fill="#626162" d="M17 111c-1 1-2 5 0 4h1v3l1 1v2c1 1 5 1 3 2h-5v1H9l8-19v7-1z"/><path fill="#202121" d="M70 38h1c0 3 1 4 2 5 2 1 1 2-2 2l-2 4-1 1c1 1 1 1-2 1 0 2-1 3-5 1h-3c-1 2-3 2-3 0l3-4 7-4c-1-1 0-1 1-1l2-1c1-3 0-2 3-4h-1z"/><path fill="#6C6C6D" d="M32 79h6c2 1 1 4 1 5l1 2 9 1h1c2 1 1 2-1 2-2 1-6 1-8-1h-4v-2h-5c-1 0 0 0 0 0l-4-2 3-5z"/><path fill="#C1C1C1" d="M44 63h1c0 3 1 5 4 5 0 2 1 3 3 3 1 2 2 2 3 0h2c2 0 2 2 0 3 3 2-1 3-3 2 0 2-1 1-2 0-3 0-5-1-5-3l-2-1-2-2v-6l1-1z"/><path fill="#D6D6D6" d="M45 62c3 0 1 2 2 3l3 1 1 5 2-1 3 1-2 2c-3 1-3-2-4-1-1 0 0 2-1 0v-1s-2-1-1-3c-4 2-2 0-3-1h-1v-4l1-2v1z"/><path fill="#9B9B9B" d="M43 64v6h3v1l1 1c2 0 1 2 1 2h1c2 2 2 1 4 1 2 1 0 2 1 1v1l1 2c-4 0-6-1-9-3-2-1-3-1-4-4v-8h1z"/><path fill="#969696" d="M42 73v1c1 3 1 4-2 4h-1c1 1 0 2-1 1h-1c0 1 1 3-1 3 1-3-1-2-2-2-2 0-2-2-3-1l1-1 3-1c0-4 2-5 5-3l1-1h1z"/><path fill="#8A8A8A" d="M74 35v4h2l2 2-1 2h-4c-2 0-3-3-2-6l3-2z"/><path fill="#C6C5C6" d="M42 73v1h-1c0 4-1 1-2 1-4-1-2 0-3 2s-3 2-4 1c1-2 5-8 7-7 3 1 0 2 2 2v-6l1-2v7z"/><path fill="#818182" d="m24 90 2 1h-2l1 2c4 1 4 2 1 4v1c-3 0-1-4-3-5l1-3z"/><path fill="#B6B6B7" d="M55 52h3v1c2 1-4 5-5 2v-2l2-1z"/><path fill="#555556" d="M71 38v2c1 1 2-2 3-1 2 1-2 2-2 3l1 1h-3v-5h1z"/><path fill="#4A4A4A" d="M65 44v1c-2 3-3 1-4 3h-3l5-4h2z"/><path fill="#909091" d="m53 55-1 1-1 2h-3l5-5v2z"/><path fill="#08090A" d="M5 165c2 0 5-1 5 1H6l-2-1h1z"/><path fill="#8A8A8B" d="m66 43-1 1h-2l3-3v2z"/><path fill="#8E8E8F" d="M15 163h1v2l-5-1c0-2 3-1 4-1z"/><path fill="#656666" d="M86 44v2l-1 1 1-3z"/><path fill="#E1BE62" d="m79 269 4-1h6v7l1 6-2 3-7 1c-3 0-7 1-9-2 0-1 0-1 0 0v1l-5 3-9 2c-3-1-4 1-3 3v4c-2 1-2 4-2 5l-1 1h4c3 2 0 6-3 4l-17-19 3-1c-2-1-7-3-3-5h5l5 2 2-2-3-3c-1-3-3 0-4 2-2 1-3 0-4-3h-2l-2 1c-2-1-1-5 1-3l3-2h9c1-1 3-2 5-1 1-1 2-2 4-1h2c2-1 7-2 8 1l6-2c2-2 6-2 8-1z"/><path fill="#DCB45A" d="M56 302h3c4-2 8-2 13-2 2-1 12-2 13-1 0 0 1 7-1 8 1 1 0 3-2 4l4 1v2l-7 2c0 2-6 2-7 0 1 0 2 1 1 2h-5c1 0 1 0 0 0v1l-15-13c3-1 3 0 3-4z"/><path fill="#08090A" d="M98 317c1-2 1-1 2 2v8l1 3v10l-6-4c1-2-2-3-4-2 0-3-2-2-3-3l-4-7-1-4h11c2 0 2-3 4-3z"/><path fill="#F0D379" d="m34 277 2-1 2 1c1 0 1 3 2 2 2-2 3-4 6-3-1 3 1 1 2 1v2c0 1 2 1 1 2 0 1-2 1-2 3-1 1-1-1-2-1h-2l-1-1-4 1-2-1c0 3 1 2 2 2l1 1c1 1 2-1 1 2l-3-1c-1-1-3-2-3-4-1-1-2-4 0-5h-1z"/><path fill="#E0C38D" d="M99 299c1 1 2 4 0 4l1 4c2 2 2 3 1 5 2 1 5 3 1 4v1c1 2 0 3-1 4l1 3c1 1 2 2 1 3 3 1 3 4 0 4v4c2 1 1 4-1 5l-1-1c1-1-1-2-1-3v-7l-1-2v-10c-1-2-1 0-1 0v-10c0-2-1-1-1-1v-6l1-1h1z"/><path fill="#DCBD7A" d="M103 333c0-2 2-1 2 1l1 1h8c1-2 6-1 4 1v2l3 1c0 2-3 1-5 1l-4 1h-6v1l-4-2c0-2 2-1 1-3 0-2-1 0-1-1l1-3z"/><path fill="#D8C69D" d="M36 272c2 1 0 2-1 2l-1 1-1 2v5l-3-3 1-7h5z"/><path fill="#8C764F" d="M72 318c1 2-3 0-4 2v-2h4z"/><path fill="#EACD84" d="M134 273h2l4-5 15-3c3-4 5-5 9-2 3 0 12 1 12 5 0 0-5 6-6 5l-1 1h-8l-1 2c-4 1-9 5-11 9l-1 1-1 9v2l1 6 1 1c0 2 0 3 1 2s2 0 3 1c1 3 5 7 8 7h9l5-1h3c1 0 1 0 0 0 2 3-2 4-4 4-3 2-7 2-11 1l-4-1-9-5c-2 0-3-1-3-3-2 1-5 0-4-3l1-4c-2 0-4-3-3-5-4 1-3-5 0-6l1-2c-2 0-2-2 0-3-1-1-1-2-1 0-3 2-7 3-10 3v1c2 0 2 0 0 1h-3c-2-1-1-6 1-7v-3l3-6 2-1v-1z"/><path fill="#F3EAB7" d="m108 180 1 4 1 1v9l1 7v1l1 1 1 12c0 4 0 0-1 1h1v16c0 3 1 0 1 1v8l1 4v2h-6v1h-6l-8 1h-3l-1-4v-8c0-2 1-2-1-2v-10c0-2-1-1-1-1v-9h-1v-11c-1-2 0-8 1-5h1c1 1 1 7-1 8h1l4 6v1c-3 3-3 9 0 11l-1 4c4 2 4 4 3 8l1 6c0 3 1 4 2 4 2-2 6-3 8-1l1-1c-1-3 1-3 3-3v-4c-5-3-6-8-2-12l1-2-1-21-2-2 1-11-2-2 1-6c-1-1 0-4 1-2z"/><path fill="#ECDDAF" d="m148 259 4-2c3-1 6-1 8-3h9c1-2 4-1 6 0l12 2v1l2 1c1-1 2 0 3 1 3 1 6 2 8 5 4 0 5 3 1 5 0 2-1 3-2 3v3l-3 3c0 4-3 6-5 2l-12-3h-17l-3 1-4 2c0 1-2 4-4 3-2 6-2 11-2 17h-1v3h1c2 0 2 3 1 3 1 2-1 1-1 0l-1-3-1-2-1-4v-2h1v-4c0-2 0-1 1-1v-4l1-2 1-1 9-8c4-1 2-2 2-2h9c2-1 5-2 6 1 3-1 5 0 7 1l9 2 1 1c0-2 1-3 3-3-1-2 0-5 1-7 0-3 0-4-2-3-3-3-5-4-9-3-6-4-14-4-21-3-6 0-11 1-15 3-1 0-2 0-2 2-2 0-2 1-3 2-4 1-7 3-9 7h-1v1c-1 1-3 3-2 1l6-9v-1l4-3 5-3z"/><path fill="#4B4B4B" d="M114 218c-3-3 2-6 3-1h1c1 1 2 5 1 6l4 5-1 2 1-2 1-1c3 4 6 7 10 9l-1 1v1c1 1 2 1 1 2l3 3c0 2 0 3 2 4l5 8c1 2 1 10-3 6-4 2-5 2-5-2-2-2-3-3-3-6-2-1-3-3-3-5-3 0-5 0-3-3h-1c0-3-1-5-3-6 0-3-1-6-3-8v-2c-3 0-4-2-3-4l-1-1-2-4v-2z"/><path fill="#E2C98F" d="m178 288 3 1 17-2c5-2 5 1 4 5 0-2 1-2 2-3h1s1 9-1 9l1 5 1 1 1 12h-1c0 2-3 4-4 5-1 2 1 1-2 2h-2c-2-1 0-3 1-3 0-3 2-6 5-6l-1-2c0-3 0-6-3-6-1-1 0-3 1-3-2-2-2-5-1-9l-4-2c-2 1-3 0-5-1l-1 1-12-1-1-1c-1 1-1 2-3 2 0 3-3 4-8 2l2 9 14-1v1c1-1 4 0 2 1 1-3 3 3 3 4s-3 6-4 5c-1 2-4 4-5 0v-1c3-2 6-3 5-7l1-1-3 1v1h-9l-1-1 1 2c0 1-6 1-7-1l-1-3h-1v-6l-1-6 1-1 3-1 1-1 9-1 1 1z"/><path fill="#3D3837" d="M207 268c2 0 1 2 1 3l1 1a243 243 0 0 1 1 24h1v4c1 3 2 6 0 9-1 2-3-1-3-3 1-2 0-5-1-7l1 13v1c2 2 1 7-1 4l-1-1v-4l-1-9-1-5v-7c0-3 1-2-1-2v-4h-5c-2-1-3-5-2-6v-3l2-1v-3h1c3-3 4-2 4 0h3l1-4z"/><path fill="#383836" d="M114 219c3 1 2 4 2 4h1l1 3 3 2v2l1 1 1 4v3h2l1 2 1 1v3l1 2-1 1c5-1 3 1 5 3l2 2v4l3 2v3l5-2c2 1 0 2 1 2v-6l-3-3-2-5-2-2v-2c0-1-3-2-2-4h1c1 0 6 5 6 7 3 3 5 6 6 10l1 3v1l-4 1v1l-5 3-3-2c-5 0-2-1-3-5l-3-6-3-2-9-18v-3l-3-1v-4l-1-5z"/><path fill="#E6CC94" d="M198 323h1l-3 3c-5 2-10 6-15 7l-2 1h-1l-4 1-5 1h-8l-7-1h-3l-7-5-4-3h3l5 2c3 0 6 1 7 3 2 0 4 0 4 2 1-2 3-2 3 0 1-3 6-5 5 0 1-2 2-3 3 0 0-2 2-2 4-2l7-1 4-2c2-2 3-2 4-1 1-2 2-3 5-4 2-2 3-2 4-1z"/><path fill="#E3C781" d="m128 291 1 1c2-2 3 2 1 2 1 1 1 1-1 2v1c0 1 0 7 1 4 4-1 3 4 3 7v3h1c2-2 4 0 3 2 5-1 5 4-1 3 3 3 2 6 0 7 1-2 6 3 5 4h-2c-2-1-3-1-3-4l-3-2-2-4-3-7-1-2-1-11 1-6h1z"/><path fill="#797673" d="M209 324c-2-4 3-4 3 1l1 1c-2 2-2 3 0 2h3c4 0 8 0 12-2v1l5-1h3c2 0 1 2 1 3-2 1-2-1-2-1h-4c-1 1 1 1 1 1 0 2-2 4-2 3l1-2c-1-1-2 1-2 1-3 1-4-1-6-2v2c-1 1-1-1-1-1h-4v3c-2 0-1-2-1-2-3-1-3 4-6 1v4c-2 1-1 0-1-1v-6l-1-5z"/><path fill="#E3C991" d="M120 302v2h1v10h1v11h1v14h-6v-3h2v1c0 2 4-5 1-3l-1-1c-1-1-1-3 1-3l-1-4c-2-1-2-7 0-6l1-4h-1v-8c-3 0-3-3 0-3-1-2 0-3 1-3 0-2 0-2 1 0h-1z"/><path fill="#DDC796" d="M118 267v6l1 3v7c1 2 1 0 1 0v11h1v8h-1c-2 0-3-4-1-5-1-1-2-1 0-2l-2-2v-7c-2 0-2-2-2-4 2-1 2-2 0-2l1-8v-5h2z"/><path fill="#625F5E" d="M208 313c-1-1 0-2 2-1l2 9h1v4c2 0 2 3 0 3 0 0 1 2-2 1-1-2 1-3 1-3l-1-1c0-1 0-4-2-2v1c-2 1-1-2-1-4 0-1-2-1-1-3h1v-4z"/><path fill="#383836" d="m112 215 1-9c4-1 4 4 4 7h2v2l-1 2c-3 1 0-2-4-2v3c-2 0-1 3-1 4h-1v-7z"/><path fill="#E9D4A3" d="m129 281 1 4h-2v6h-1v6h-1v-10l1-2 1-4h1z"/><path fill="#EADAAA" d="M116 263v4c0 2-2 1-2-1h-8v-2c2 1 2-1 3-1h7z"/><path fill="#E8C578" d="M120 304h1v6h-1v-6z"/><path fill="#918470" d="M116 264h1v3h-1v-3z"/><path fill="#AEA78A" d="M108 247v1h-5v-1h5z"/><path fill="#978A67" d="M123 335c2-1 1 3 1 4h-1v-4z"/><path fill="#918D77" d="M114 240c2 0 1 4 1 5-2 1-1-3-1-5z"/><path fill="#615934" d="M116 340c1 2-2 1-4 1l4-1z"/><path fill="#4F4B48" d="M94 249c1 2 0 2-2 1v-1h2z"/><path fill="#6F5C42" d="m178 335-4 1c0-2 2-1 3-1z"/><path fill="#6D5839" d="M181 333c1 2 0 1-2 1 0-2 1-1 2-1z"/><path fill="#705D4F" d="M127 285c0 1 1 3-1 2l1-2z"/><path fill="#E7C980" d="m118 273 1 2c-2 1-1-1-1-2z"/><path fill="#685937" d="M127 308c2 0 1 1 1 2 0 0-1 1-1-2z"/><path fill="#DCCB94" d="M312 277v-3 3z"/><path fill="#fff" d="m239 303 4 1c2-1 6-2 8 0h4c2 0 3 1 3 2 2 2 1 7 1 10 0 2 1 0 1 1v5l2 1h1v1c2 1 1 4 1 6l-1 2-1-2h-1c-2 0-1-1-2-2l-5-2-2-2-2-1s1-2-1-3h-2l-1-2-5-1-4-2c-1 0-1 0 0 0-2 0-3-2-3-4v-8h5z"/><path fill="#E0C382" d="M229 301c-1-3 3-2 3 0l2-1v3l1 3v7l2 2h1c-2 0-2 0-2 2v6c0 1 2 0 2 2-1 2-1 0-2 1h-1l-2 1h-5c-1 0-2-2-1-3l2-2-1-2 3-2 1-3v-1l-1-2c-2-1-2-2-1-4v-2c-2-1-2-4-1-5z"/><path fill="#E8CB80" d="M236 281c-1-1 1-2 2-2 5 0 26 0 28-3 0-6 6-3 5 1h1c1-2 4-4 4 0v4c2 1 2 3 1 5 1 3 2 6-1 7l4 2 1 3v5c0 2 1 1 1 1v9h1v2l-1 1h-6l-3 1h-3c-2-2-4-1-5 3l-2 1c-2-1-1-7-1-9l-1-6-2-2v-5l1-1c2-1 0-2-5-2 0-2 0-2-1 0h-13v-2l-4-2c0 2-1 3-2 1l-3 2c2 2 2 5 0 6-1 0-1-3-3 0h-1c-2-1-2 1-2 3-2 1-2 1 0 1 2 4-3 4-5 3-3 1-4 2-6-1s0-1 0-1l2-4a366 366 0 0 1 11-11l3 2c0-2 0-3 2-3v-5c0-2 0-4 3-4h-1z"/><path fill="#E9D594" d="m209 269 1-14c2-2 5-2 6-2h10c4 1 2 7 2 10l2 9c0 5 0 2 1 2v2c0 3 0 3 3 4 3 0 2-2 2-2h4v-1l10 1c3 1 7 1 8-2l4-13c2-4 0-2 0-2l2-1c0-1-2-4 1-5s2 2 3 3l5 5c2 3 2 4 2 7l1 4v6l2 3v4l1 1c0 2-3 6 1 5v2c-2 1-3-1-3-1h-2l2-4-1-4 1-2-3-3c0-1 3-5 1-5-2-1-2 3-4 2-3 0 0-2-1-2 0-1-2-3-3-2 0 2 1 3-2 4-6 2-15 2-22 2l-7 1c-2 1-4 2-7 1-2 2-4 1-3-2-3 0-3-2-1-4-6-6-9 2-10 7-3 2-3 3 0 4 2 2 0 6-2 4-1 0-2-1-2-3l-1-1-1-17v-1z"/><path fill="#EECE7A" d="M238 185c2 1 1 3-1 3 2 1 2 3-1 3h-2c-1 5-7 4-5-1l-2-4 5-1 1 1 2-1h2z"/><path fill="#EECE7A" d="M242 184c2 0 6 1 6-2v-8l-1-1v-11c0-2 1-1 1-1 1-2-1-2-1-3l1-1-1-2 3 1 2-1h8c2 0 0 1 1 1s2-2 4-1c1 1-1 0-1 1-1 3 1 2 1 3v1c1 1 2 0 1 2 0 2-1 0-1 1l1 1v5c1 2 2 3 1 5l-1 1 1 5 1 1c1 3-1 3-2 5h2c-1 2 1 2 1 3v11c1 3 1 0 1 1v3c0 1 2 0 1 2 0 2-1 1-1 1l1 4v6l-1 5c1 2 1 0 1 0 1 2-2 1-2 2-1 2 1 5-2 5s-1-1-2-1c-2-1-1 0-2 1l-1-1c-2-1-8 1-8-3 1-3 2-2 2-2v-1l-2-5c0-2-2 0-1-2l1-3c-1-3-1-1-1-1l-1-2v-1c1-1 1 1 1-1-1-2-2-1-2-1v-2l-6-2c1-1 0-1-1-1l-1-3h-5v-1c-2 0-3-1-3-3-2-1-2-2-1-3h1c3 1 5-3 4-5l1-1 3-1h-1z"/><path fill="#F4E99E" d="M221 197c1-1 4 1 4 2 1-2 5-1 5 1-1 3 2 4 3 3l3 1-1 1h-9l-1 8h-1c-1 3 1 2 1 3v3c-1 2-3 1-3-1-1-2-1-3-2-1l-4 1-1 3c-4 0-5 1-4 4-2 1-3 3-4 6l5 1c1 0 5 0 2 2h-6c-2 0-3-2-3-2v-7l1-2c2-3 0-1-1-2v-2l-2-12h1l1-1c1 0 12-1 12-3l-3-3 2-3h5z"/><path fill="#F1D985" d="m220 178 2 5c0 2 1 3 4 3h1l2 3 1 1-1 1c0 1 2 3 3 2l1-1 1-1c0 2 1 1 2 3l1 2h2v2s3-2 3 0c1-2 3 0 2 2l2-1v3h5v1c-1 3-1 0-2 0h-2l-4-1c0-1-2-2-5-1 1 2-1 4-3 2-3 0-4-2-1-4 0-1-1-1-3 1-2-2-4-2-6-1l-4-2h-5l-1 3-3 1-3 3c-1 2-2 2-3 1-3 0-4-3-3-5v-11l1-1 2 1 3-2 4 3c0 1-2 4-4 2-1 3 2 1 4 0 1-2 3-2 4-1l2-4c-5 1-6-1-2-4 0-3 1-5 3-5z"/><path fill="#F1D985" d="M242 184v1h-3l1 2c0 2-2 6-4 5l-2-1c0-1 4 0 3-1 0-1-2-1-1-3 2-1 2 1 1-2h2c-2-1 2-2 3-1z"/><path fill="#F1E090" d="M226 199c-1-4 5 0 5 0 2-1 2-3 5 0-1 2-3 1-3 3 1 2 2 1 3 2l1-2v-2c1 0 8-1 6 3l-3 2h-5s1-2-1-1l-3 1v-1c-1-1-2 0-2-2v-2l-3-1h-1z"/><path fill="#BDAE8F" d="M274 206v6h-2v-6h2z"/><path fill="#877D63" d="M248 206c2 0 1 2 1 4-2 1-1-2-1-4z"/><path fill="#808283" d="m280 210 2-1 1 1 1-1 2 1h1c2 1 0 1 0 1-1 1 1 2 1 2v1h2l1 1c3 1 4 2 2 2 0 3-3-2-3 1 2 1 2 3 5 2l-2 3h2c1 1-2 1-1 2h4v2l1 1v1s3 0 4 2l1 2h2v2h1l-1 3c0 1 2 0 1 1h-4c-1 1 0-1-1-2l-2-3-1-2c-1-2-3-1-3-1v-2h-1l-6-8-2-2-2-3c-1-1-2-1-2-3s-1-1-1-1c-1-1 0-2-2-2z"/><path fill="#4E4F50" d="M289 221c3 2 2 2 2 3l4 4v1l-3-3c-1-1-3-3-3-5z"/><path fill="#515254" d="M286 216c1 2 3 2 3 5l-3-2-2-3h2z"/><path fill="#E9D59C" d="M299 241c1 2-2 1-3 1v-1h3z"/><path fill="#575654" d="M318 240c1-2-1-1-2-1v-3c0-1-2-2-1-4l3 2 1 1 1 2c1 1 2-1 2 2-2 0-3-1-3 1h-1z"/><path fill="#808283" d="M312 240c1 1-2 0-4 1 0-2 3-1 4-1z"/><path fill="#242323" d="M200 230c3 1 1 2 1 4l2 3v6l1 1v4c1 1 2 0 1 2l-1 1 1 1c1 1-1 3 1 2l1 5v14c-1-1-2 1-4 1-1-1 0-4-1-3l-1 1h-1l-1 2v-2l1-3c1-1 3-1 3-3s-3-1-4-2l-1-1-1-1-1-1h-1l-3-2c-2-1 1-2 2-2 3-4 3-8 1-13l1-9c0-3 1-8 4-5z"/><path fill="#DFD2A7" d="M211 288c1 1 1 3-1 3 1-1-1-1-1-2v-9l-1-9c1 1 1 0 1-2 2 2 1 7 1 10l1 9z"/><path fill="#F1E090" d="M214 234c1-2-2-1-3-1v-1l-5-1 2-6 2-1v-2c1-2 4-2 5-2 0 0-2-2 1-3 3-2 4 0 4-1l-4-2c-1-2 2-2 2-3l-1-2 2-1v2c1 1 5-3 4 1s-3 0-3 2 2 2 2 3l1 2c1 1-1 2 2 1v2h1v8l-1 1c1 1 2 0 1 1l-3 1v1h-6l-3 1z"/><path fill="#FEFEFD" d="M190 182c0-3 1-3 5 0 2 0 4 2 4 3v1c1 1 3 5 1 6v9c1 3 1 0 2 1v7c-1 1-2 1-3-1-1 2-2 2-3-1l-2-3v-9c0-1-1-2-3-2-1 1-4 2-4 0-1 2-3-3-2-4-1-1 0-2 1-2-1-1-1-1 1-1l2-3 1-1h-1z"/><path fill="#E4CB8D" d="M200 172c2-1 5 1 2 4 2 2 2 4 2 7v14l1 2-1 3c-1 4 1 1 2 4l-1 1h-2v-5l-1-1v-8c-1-3 0-1-2-1l-1-6c-1-1-2-5 0-6v-3c0-1-1-7 1-5z"/><path fill="#EBE9E4" d="m196 207 1 2 2-2 3 2v9h1v9h1c1 0 1 5-1 4l-1-3v-4l-2-2-1-3-1-4-1-5-1-3z"/><path fill="#EDD189" d="M232 301v-5h-1c0-2 1-2 2-2l2-2c1 1 0 2 1 1l1-1c1 0 3 3 5 0l-1 4c3-3 8 0 11 0 2 0 3-5 5-4l-2 4c3 0 8-1 7 2l-3 1v-2h-5l-1 1c-5-1-10 0-15 1-2-2-2-1-3 1h-1l-2 1z"/><path fill="#DFBD70" d="M263 321c3-2 1-7 6-6s0 1 1 1v-1l3 1 3-1-2-2c3-1 2 0 2 2 2 1 2-1 3-1 0 2 2 0 4 1v2c-3-1-4 3-5 3h-5l-2 1-3-1v1h-5z"/><path fill="#D0D1CC" d="m245 299 7 2c2-3 7-2 4 2l2 1v2c-2-2-5-1-7-1-3 0-1-1-2-1h-8c-3 0-2 1-2-1 4-1 5-1 4-3-2-1 1-3 2-1z"/><path fill="#EFE8DE" d="M258 297v7c-1 1-2-1-3-1 0 0 2-2 1-3s-2 1-2 1l-2 1c-2 0 0 0-1-1l-4-1c-2 0-2 1-2-1v-1h8l1-1h4z"/><path fill="#DBD7D3" d="M260 323c1 0 3-1 2 1 0 0 1 1-2 1v-2z"/><path fill="#393837" d="m197 224 1 2c1 3 3 3 2 4-4-1-3 2-3 4l-1 9 1 9-2 5c0 2 2 1 1 2s-2-1-3-1l-2 1-4-1c-2-1 0-1 0-1v-1h2l1-1c-1-5 0-11 1-17-1 0-2-2 0-4-2 1-6 4-7 2h-1l-1-1c5-3 10-6 13-10 0-1 1-3 2-1z"/><path fill="#EFE6BB" d="m195 218-1-3c-3-3 1-5 2-1h1v10l-2 2c-3 4-5 5-9 7s-1 2-1 2l-2 1c-2 3-7 5-11 6l-1-1v-2l2-1c0-2 1-2 2-1l1-1h1l3-1c-1-2 1-2 2-1v-1l5-3c2-1 5-2 5-5 2-1 3-3 2-6l1-1z"/><path fill="#8E8770" d="m197 210 1 5h-1v7l-1-9v-1c-1-2 0-4 1-2z"/><path fill="#A6A4A2" d="M202 224h1v4h-1v-4z"/><path fill="#949698" d="m199 219 1 1v2h-1v-3z"/><path fill="#8D8E8F" d="M200 222h1v2h-1v-2z"/><path fill="#F6EDAD" d="M91 85c-1-2 6-1 7-1l1 14v-3h1v18l1 2a253 253 0 0 0 2 22v9c1 2 2 5 1 7 0 3-1 4-2 4h-7c-1 2-6 2-8 0-2-1-3-14-3-17l-1-1-1-24c-2-3-2-11 2-12 7 1 10-2 0-2-3-2-3-4-2-8-5-5 3-8 8-7l1-1z"/><path fill="#F7EBAA" d="M140 79c3 0 4 2 6-1l4-1c2 2-3 1-4 3-1 3 0 3 1 4l2 2-1 1h-2l-3 4-1 1h-4c-2 0-7 4-7 6l-1 4c1 1 0 5-1 5v11c-2 1-1 3 1 4l3 5c3 1 4 5 5 6l5 2 3 1h5l2-1 6-2 1 1c1 1-1 2-2 3l-9 2c-2-2-5-2-8-2-2 0-4 1-5-1s-4-8-7-5c-2 0-4 2-4 5-2 1-3 3-2 4s2 4-1 4c0 1-1 1-3-2-1-3-2-4-5-6l-1-4c-2-5-3-9-3-14 0-8 1-15 4-22v-2h1s0 2 1 1v-1l2-2 1-1 2-2v-2l4-1 3-4h2v-1h2l1-1h7v-1z"/><path fill="#F5EDB0" d="m60 88 1-1c3 2 7 4 10 4 1 4 1 10-4 11l-4 1-6 1c-2 0-3 0-5-2l-4 3c1 1 0 1-1 2h-3l-1-1c-3 0-6-1-3-4 0-3 1-6 3-7-1-3 6-6 8-6 2-1 6-2 9 0v-1z"/><path fill="#F2EDCB" d="M66 116c2 0 1 1 1 1h1v10h1v8h-2l-5 1-12 1-5 1h-4v14c0 2 1 0 1 1v9c1 2 2 1 1 3h-2l-3 1-1 1h-2v-3l1-1v-6l-1-3 1-2c1-3-1-4-1-6l1-2v-9l3-9c1-4 2-1 1-2l-1-3 1-1h3l10-1c1-2 2-2 3 0v-1l4-1h2l4-1z"/><path fill="#F7F2CF" d="M100 101c0 4 1 3 1 3v10l1 1v7l1 1v12h1v10l1 1c-1 1 0 2 1 3v4c1 2 1 6-2 5h-6l-3 1h-4l-4 1h-2v-1h-1v-19h1l1 7 1 8c1 2 5 3 7 2 2 0 1 0 1-1l2 1 2-1h3v-1l1-1v-6l-1-2v-9c0-2-1 0-1-1 0-5 1-8-1-13s1-6 0-9c0-2-1 0-1-1v-10l1-2z"/><path fill="#EDDFA6" d="M78 173h2l1 2v6c0 2-1 2-1 0h-1c-2 0-3-1-3-3-2 1-3 0-4-1h-2l-3 1c-1 2-3 2-4 0h-3c0 2-2 2-4 1-3 2-6 2-9 1h-2c-1 2-3 3-5 1l-5 2c-2-2-5-1-5 2l-5 1 1 8h-1v1l-1 2-1-2v-7l-1-2v-6h1l2-1h2l5-1h15l5-1v-1h6l1-1h3v-1h10l3-1h3z"/><path fill="#F3EECB" d="M91 85c0 2 0 1-1 1l-6 1-2 2c-2 3 0 3 0 4v5c2 3 9 1 9 4 0 4-7 1-8 2-2 1-2 6-2 7l1 4 1 12 1 12h-2l-1-11v-4l-1-4v-5l-1-5v-6c-2 0-1-1-1-2V91c-1-3-1-7 3-6 3-1 7-2 10 0z"/><path fill="#F2EBC0" d="m114 96-1 5c-2 4-2 6-2 11v4l1 9 2 7 1 3 3 2 4 6v1h1c1-1 4 2 4 2l3 3 2-1 8 3h6l1 1c0-2 6-1 4 1v1h-8l-1-1h-4c0 2-4 1-4 0l-4-2c-1 1-3-1-4-2 0-2-2-1-4-3-1 0-5-3-4-5-2-1-1-2-2-3l-2-1-2-5-1-3-1-5c0-2-1 0-1-1-1-6 0-17 2-22l2-5c0-2 1-2 1 0v-1z"/><path fill="#F4F1CF" d="M68 85h4v10c0 2 1 0 1 1v7h-5l-5 1h-5l-1 1h-9l3-4 5 2c2 1 3 0 5-1h5c1 0 0 0 0 0l2-1 2-3v-6h-3l-7-4-3-1v-1h7l4-1z"/><path fill="#F5F4EB" d="M53 86c1-1 2 0 2 1h2l3 1-9 2-3 1-4 2v2l-2 2-2 6c-1 2-1 0-1 0l1 2c2 1 4-1 4 2h-1l-4 1h-1c-1 3-2-4-1-5l1-1 2-6v-6l1-2h9v-1l3-1z"/><path fill="#F4F0D4" d="M77 85h6v-1h8v-1h7v1h1v15h-1v-6l-1-2v-6H83c-3 1-1 1-1 2h-3v7l-1 3v-1l-1-5v-7z"/><path fill="#C2C2C2" d="M59 73c-2-2 4-4 4 0 2 0 3 0 4-2l3-1c1-3 3-4 3 0-3 4-6 5-10 8l-5 5c-3 3-3 2-3 4l-2-1v-1l3-3 6-5-2-4h-1z"/><path fill="#D6D6D6" d="m74 65 1 2-2 3c-1 0-1-3-2-2v2c-1 2-2 1-4 2-2 0-1 1-1 2h-3s0-3-2-2l-2 1c1 2-1 3-1 1-2 1-2 0-2-1 0-2 1 0 1-1v-1c1-3 2 0 3 0l2-1c1 0 3 1 4-1s-1-1 2-1h1l5-3z"/><path fill="#EDEDED" d="M80 54v2l-5 11-1-2h1c1-1 0-1-1-1l-1-2c0-2 1-1 2-2s0-2 3-1c-1-2 1-3 1-3l1-2z"/><path fill="#0A0B0B" d="M106 142c0-1-1-3 1-3-1 2 1 5 1 7v7c0 1 1 2-1 3h-1v-7c-2-1-2-3 0-4-2 0-2-2 0-3h-1z"/><path fill="#969597" d="M37 103v4l1 1c1 1-1 2-1 2l1 1v8h-2v-16h1z"/><path fill="#0A0B0B" d="m138 153 4 1v1l-1 1c-2 0-8-1-7-3h4zm-20-12 4 5c1 3-3-1-3-1-1-1-4-3-1-4zm-14-6v-6h1l1 8h-2v-2z"/><path fill="#C9C599" d="M142 153h7c2 0 1 0 1 2h-8v-2z"/><path fill="#0A0B0B" d="m126 149 4 2c1 2-1 1-2 1l-2-2v-1z"/><path fill="#A39B84" d="M70 127v6h-2v-6h1z"/><path fill="#95928B" d="m106 153 1 3v2h-4l2-1 1-4z"/><path fill="#B7AD8A" d="M52 177v1l-5 1v-2h5z"/><path fill="#736F5B" d="M142 153v1c-2 1-5 1-4-1h4z"/><path fill="#706854" d="M47 177v2h-4c-1-3 3-2 4-2z"/><path fill="#F6EDAD" d="M98 84h1v6c-2-1 0-4-1-6z"/><path fill="#A9A58B" d="M60 117c1 2-2 1-4 1v-1h4z"/><path fill="#F6EDAD" d="M83 140v6h-1v-7l1 1z"/><path fill="#827F6A" d="M41 138v6c-1 1-1 0-1-1v-5h1z"/><path fill="#878275" d="M41 165c1 2-2 2-4 2 0-3 2-2 4-2z"/><path fill="#83836D" d="M102 122h1v6h-1v-6z"/><path fill="#948C75" d="M51 105c1 2-2 1-4 1l1-1h3z"/><path fill="#C2BCA2" d="M80 121c2-1 1 2 1 3 0 2-1 2-1 0v-4z"/><path fill="#534B3D" d="M68 123c2 0 1 2 1 4h-1v-4z"/><path fill="#7B7561" d="M82 124v4c-3 1-2-2-2-4h1z"/><path fill="#F2EDCB" d="M38 114v6h-1c1-2-1-6 1-6z"/><path fill="#847B5F" d="M58 176v1h-6v-1h6z"/><path fill="#97937C" d="M68 103c1 2-3 1-5 1l5-1z"/><path fill="#F6EDAD" d="M79 110c2 0 1 4 1 5-2 1-1-3-1-5z"/><path fill="#666151" d="M67 135c1 2-3 1-5 1l5-1z"/><path fill="#6B6753" d="M50 137c1 2-3 1-5 1l5-1z"/><path fill="#646058" d="M83 155c2-1 1 3 1 4h-1v-4z"/><path fill="#F4F0D4" d="M79 104v-3h1c0 1 1 4-1 4v-1z"/><path fill="#5E5B43" d="M56 117v1h-3c0-2 1-1 3-1z"/><path fill="#A59F87" d="M77 91c2 0 1 3 1 5-2 0-1-3-1-5z"/><path fill="#6E6A5B" d="M106 143v2c0 2-2 2-2 0v-2h1z"/><path fill="#868167" d="M91 159c1 2-2 1-4 1l4-1z"/><path fill="#9D987C" d="M98 158c1 2-2 1-4 1l4-1z"/><path fill="#0A0B0B" d="m148 156-4 1c-1-2 3-1 4-1z"/><path fill="#847E6D" d="M66 116c1 2-2 1-4 1l4-1z"/><path fill="#5B594C" d="M77 85v3c-2 1-1-2-1-4h1z"/><path fill="#848777" d="M68 85c1 2-2 1-4 1l4-1z"/><path fill="#8A8579" d="M43 107c1 1-2 1-4 1 0-2 3-1 4-1z"/><path fill="#9E9988" d="M43 120c1 1-2 0-4 1v-1h4z"/><path fill="#A7A189" d="M61 175h1c1 2-2 1-4 1v-1h3z"/><path fill="#847E6D" d="M67 117h1v3c-2 1-1-2-1-3z"/><path fill="#867F6D" d="M144 74c1 2-1 1-3 1l3-1z"/><path fill="#898382" d="M34 157c0-3 1-1 2-1v1h-2z"/><path fill="#615E4C" d="M114 93v2h-1v-2h1z"/><path fill="#A9A488" d="M111 129h1v3l-1-3z"/><path fill="#5D5C5B" d="M38 117c2 0 1 1 1 2h-1v-2z"/><path fill="#F6F1D1" d="m132 102-1 2-1 2-1 5v5h1l2 9c2 4 2 0 1 2 0 2-1 1-2 0l-1-3-1-3h-1c-3-2 0-3 0-4v-10l1-1 1-4h2z"/><path fill="#909082" d="m151 109-5 1v-1h5z"/><path fill="#F1EFE1" d="M148 124v-2h2l-1 2h-1z"/><path fill="#F1E1A2" d="M143 134c2 1 4 0 3 1h-2l-1-1zm11 0c0 2-2 1-3 1l2-1z"/><path fill="#9D9B81" d="M131 104c0 1 1 3-1 3l1-3z"/><path fill="#F3D682" d="M312 114c4 2 1 2 2 3 0 2 1 1 1 1v4l-1 1c-1 2 1 1 1 1 1 1-1 1-1 2v3c-2 1-3-2-5-1l-2 2-2 1v2h-4v-2l-1-1v-4c-3 1-1-1-1-3 0-3 0-1-1-1v-2c2 1 3-4 4-3l4 4 2-6 1-1 1-1 2 1z"/><path fill="#D0D0D0" d="m200 48 5-2h5c0-1-1-2 2-4s2 0 2 0v-2l2-2c1 0 4 2 3-2l4 2-1 1h3l1-1 1 1s0-2 1-1c3 1-1 1 1 3s5 3 4 0c-1 1-4-2-3-3l3 1 1-1c2 0 7 0 7 2-2 1-7-1-7 2l2 1h3l2 1c-1 2-1 2-2 0v1l-3 1h-1l-3 1c1 0 2 2 1 3s-3 0-5-1l-13-1c-1-2-3-1-5 0l-7 3-4-1c-1-1-1-2 1-2z"/><path fill="#929292" d="m254 40 1-1c1 0 2 1 3-1v-1h4l1 1h3s2-1 1 1c-3-1-1 0-2 1 0 2-1 1-2 1l-2 2-1 3-4 1c-1 1-3 2-5 1s-6-1-8 1l-9-2 1-1h1v-1l3-1h2l7-1c2-1 1-2 2-1 1-1-2-1-1-2l3 1c3 0 4 1 4 2 2 0 1-1-1-2l-1-1z"/><path fill="#9B9B9B" d="m199 41 2-1h3l1-1h4v1c1 0 4 0 1 2l-4 2h-1l-1 1h-1l-1 1c-1 1-1-1-2 1l-6 3-3 3h-3c0 1-1 3-2 1-1 1-2 0-1-1l1-3c1-4 5-4 8-4l6-4-1-1z"/><path fill="#717172" d="M190 41h11l-1 3c-3 0-2 1-2 1l-2 1-1 1h-3l-1 1h-2l-2 3-2 2-1 1c-1-1 0-6 1-7-1 0 0-2 1-1v-3c-1-1 1-2 2-1l3-1h-1z"/><path fill="#DBDBDB" d="M249 31v1h-3v2c2 0 4 0 5-2 0 4-5 2-7 3-3 0-5 2-5 2h-5l2-3s2-1 1-2-1 1-1-1h13z"/><path fill="#ACACAD" d="M190 37c0-3 1-2 2-2l1-1h1l1-2h4v3l1-1h3l-3 2-9 3h-3c-1 0-1-1 2-3z"/><path fill="#656566" d="M254 40c2 0 2 2 4 1 2 0 0-1 1-1 1 1-1 4-2 4h-2v2h-4v-2c2 0 2-2 4-1 1-2-2 0-2-1v-1l1-1z"/><path fill="#ACACAD" d="M186 39v1c1 1 2-1 2 2l-2 1c0 1-2 2-2 0-3-2-1-4 2-4z"/><path fill="#9B9B9B" d="M193 41c0-1 0-2 2-2l2 2s1 1-2 1l-2-1z"/><path fill="#848485" d="M190 37v1l-2 1h-2v-2c2 1 2-1 4-1h-1z"/><path fill="#9B9B9B" d="m190 41 1-1 1 1v1l-2-1z"/><path fill="#ACACAD" d="M176 36h3l1 1c1-1 0-2 1-1 1 0 1 2 2-1l2 1 1 1v1l-3 2c0 2-5 2-5 0l-2-1c-1 2-2 4-2 0h2v-1l2-1c1-1-2 0-2-2z"/><path fill="#C7C6C7" d="m200 48-1 1v1l-8 4-1-1v5c-4 1-3 3-3 6 0 2-1 3-2 1l-1 1c2 2 1 6-2 4V60h-1v-1c0-2 2-2 2 0h1c0-2 0-5 2-5h1s-1-2 2-1h1c1-2 4-2 3-4l3 1v-1l4-1z"/><path fill="#848585" d="m186 43 1 2-1 1c-1 0-2 1-1 2v3l-1 1c0 2 1 1 1 1l1 1-2 4v2c-1 1-1-1-1-1h-2v1h-1v-5l-1-2h1v-2l4-8h2z"/><path fill="#848485" d="M182 63v7h-1c-1-2 1-2 0 0s-6 4-7 2c-3-1-1-2 1-3l1-2h1v-2c1 0 3 1 3-1 1 0-1 4 1 3 1 0-1-4 1-4z"/><path fill="#BBB" d="m172 64 1-2c0-1-1-4 1-3v3l1 2h-1v2l-1 1c1 1 3-2 3 0l-1 2-2 2c0 1 2 0 1 1 0 2 0 2-1 0-4-1 0-2 0-3 1-2-1-1-2-1-1-1 1-1 1-1v-3z"/><path fill="#848586" d="M186 38v1c-1 1-1 2-3 1 0 2 2 1 2 1 1 1-1 1-1 2l-3-1h-4v-2h6l3-1v-1z"/><path fill="#7D7D7D" d="m172 64-4 4-2 1c0-2 1-2 2-3v-1l2-1h2z"/><path fill="#CECECE" d="M238 50c1-2 4 0 4 1 4-2 7-1 10 0h8l1 1 2 4-1 2-5-3h-1c-1-2-1 3-1 4l-1 1h-1c-1-1 1-3-3-1 0-4 2-2 2-3v-3h-4c-1 1-1 2-4 1l1 2c0 2-1 3-2 3-1 1-2 0-2-4-1 1-1 0-1-1-2-1-3-3-2-3v-1z"/><path fill="#B3B3B3" d="m241 55 1 1c1 1-1 2 1 3l2-3v3c-1 1 0 0-2-1v2h-1v1c-2 1-4 2-6 0l-3-1h-10l1-2v-1 1c-2-1-3 0-4 1s-5 2-5 0v-1l4-3c2-1 9 0 5 2h9v1h6c0-2 1-3 2-3z"/><path fill="#464646" d="M245 64c-2-1 0-2 1-1 2-2 4-1 2 0l9 1 2 1v1h2v1c-1 2-6 1-8-1l-6-1c1 2 2 5 0 6 0 2-1 2-1 0l-2-3v-1c-2-1-1-3 1-3z"/><path fill="#898989" d="m257 55 3 1h1v2l1 1v3h-3l-4-3c0-1 1-6 2-4z"/><path fill="#B1B0B0" d="M242 62c1 2 2 0 2 0 2-1 1 1 2 1l1-2 1-6 2 2c1 2-2 2-2 2l2 1v3l-2 1c0-3-1 0-1 0h-2v1c-1 1-5 1-4-2-1-1 1-3 2-1h-1z"/><path fill="#757575" d="M236 62c2-1 5 1 4-2l2 1v1h-1v2h4l-1 3c-1 1-2 2-3 1h-2c0 2 0 2-1 0l1-3-3-2v-1z"/><path fill="#B5B5B5" d="M254 60c0-3 0-10 3-5-2 0 0 1-1 2 0 2-2 1 1 3l2 2-5-2z"/><path fill="#808180" d="M250 63h7v1h-9v-1h1z"/><path fill="#DCDDDD" d="M168 120c3 0 5 3 5 5 0-4 5-3 6-1 2 2 3 4 2 6h1c-1 3 0 7 2 10 2 6-5 11-9 5-3 2-5 3-6-2l-2-2c-1-1 0-5 1-5 4-4-3-4-4-5v-5l-1-2c3 0-1-1 0-3l3 2c1-2-1-1-1-3 2 1 2 0 3-1v1z"/><path fill="#777677" d="M159 89h2c1 1-1 2 1 2v6l3 9 3 3v1c1 1 1 1-1 1l-1 1c-2 2-4-1-1-2l-1-2-1-1-2-6c0-3-1-1-1-1v-5c0-2-2-2-2-2 0-2 2-2 1-4z"/><path fill="#979897" d="m163 115-2-1v-1l-1-2 1-1c0-1-2-1-1-2 1-2 3 3 3 3l1-3c1 1 2 0 1 2 0 2 0 0 0 0-1 1 1 2 1 2 2-1 3 2 2 3 1 0 3 3 2 4l-2 1-1-4-3-2v-1c-1-1-1 2-1 2z"/><path fill="#808381" d="M163 115c2 1 4 2 3 4l-2-1-1-3z"/><path fill="#F1F2F3" d="m199 50 6-1 5-2 4-1 2 2h12l5 1h1c3 2 7 6 2 7l-3 3-8-1h-1v-2h-4l-1 2h-1l-2 1c0 2-1 2-2 1l-1 1-5 2-2 2v3l-2 1 2 2 2 1h5l1 1c2-2 7-1 8 1 1-1 2 0 2 2 2-2 6 0 4 2h-7l-5 1c1 3 5 5 7 3v-1l3-1 1-1 3-3c0-2 1-3 3-2l1-1 1-1h1c2 0 3-2 4-4l1-1h3v1h1c-1 3-1 7 2 10l-2 7-1 2c1 1 0 2-3 2h-5v1c0 1-1 4-3 3l-1 2c-1 1-2-2-1-3-2 0 0-4 2-4 2-2 0-4-2-1 3 1-1 3-2 3l-2 3c0 2-1 4-3 4 0 1-1 2-2 1l-6 5c-4 6-9 0-3-3-2-2-3-4-1-6-2-3-3-6-6-7-5 0-7-2-8-7-4-1-5-3-4-6l-3 11c1 2 2 4 1 6l-4 5c5 10-5 9-9 3-1 2-3 0-2-1v-8c2-1 3 0 2 4 3-2 3-7 1-10l1-2c3-1 1-4-1-2h-1c1 2 0 3-3 3v2s-5 3-5 1h-5c1-1-1-1-1-1l1-2 1-1 5-2 3-1v-1l3-1 3-2v-6h3v-3l1-1h1c1-3-2-5 2-7s1-1 1-1l1-4 3-1 6-3v1z"/><path fill="#DDDDDE" d="m181 71 1 1c1-1 0-2 1-1l-1 2-1 2c-2 2-4 2-6 2 0 2-4 2-5 0 0 2-3 3-4 1h-1l-3-1c2 1 2-1 2-1h2v-1h5l2-1c4-1 5-2 7-4 3-2 1 0 1 1z"/><path fill="#AFB0AF" d="m166 78 1-1c2 1 0 2 1 1l2-1 1 1 1 2c0 3 0 1-2 2v1c-1 0-2-1-4 1 1-3-1-2-3-2v-2h2v-2h1z"/><path fill="#858684" d="M162 89v-2h-1l-1-1c-1 0-2 1-1-1s1 0 0 0c0-1-2 0 0-2 1-1 3 2 2 2 2 0 0-2 3-1 1 1-1 0-1 1s1 3 2 2l2-1h1c0 2-1 3-3 3-1 1-2 2-3 0z"/><path fill="#CBCBC9" d="m171 86 1 2c3 1-2 3-3 2l-4 1h-1c0 2-1 2-2 0v-2c2 1 2-1 2-1 3 0 3 0 4-2s1 0 1 0h2z"/><path fill="#696969" d="m174 73 2-1 4-2v-2c1-1 1 1 1 2v1l-2 1-8 3c0-3 1-1 2-2 1 0 0 0 0 0h1v-1z"/><path fill="#6F7070" d="M166 75c-2 0 1-2 2-1l-1 1h-1z"/><path fill="#F1E1A2" d="M122 144c2-2 0-3 0-4-1-4 1-3 2-4l1-5 4-1c2-1 1-3 4 0l2 2 1 1c1 0 0 3 2 3l3-1 7 1 1 1c2 1 7-2 9-2l2-2 2 1 3 3-4 3v4l-1 1c-1 0 0 0 0 0-2 2-3 1-4 1v2l-1 1-1 2-3 2c1-1-3-1-4-1-3-2 2-3 3-4 1 0 3-6 0-5-2 1-4 0-4-2l-2-3c-4 2-9 1-11-3-4 1-7 8-2 11v3l-2-1c-3 0-5-2-7-4z"/><path fill="#FDFDFC" d="m161 145 2-3c1-2 3-2 3-4 1-2-1-4 2-4v2l-1 5v1l5 8c3 1 2 4 0 3h-1v4l-1 4c2 2-1 4-2 1l-1-1-4-6-2-3v-7z"/><path fill="#696A6A" d="m253 100 2 2 2-1c-2-1-1-6 2-4 2-2 3-2 4 1h2c2 0 2 3 1 4v13h-2l-1-1-1-5v-1l-1-1c-1-7-1-3-1 1h-1c0 2-1 1-2 0 0 2-1 2-3 0l-1 1c3 1 1 5-2 5-1 1-2-2-2-3-2-1-4-1-4-3-1-1-2-4 0-4h1c1 1 4 1 4-1-1-3 2-4 3-3z"/><path fill="#636464" d="M265 72c2 0 1 0 1 1h1c1 1-1 2 1 2l-1 8v4c0 2 0 1-1 0l-1-2 1-1c-2-1-2-2 0-3l-1-2-3-3 3-3v-2z"/><path fill="#D7D7D7" d="m266 87 1 2h1c1 0-1 4 1 3v3h-1s1 2-1 2v-3 2c-2 3-3-3-4-5l1-2c-1-3 0-4 2-2z"/><path fill="#A8A7A7" d="M264 85c1-2 2 0 1 1l1 1h1v2c0 1 1 2-1 1v-3h-2v3l-1 1h1c1 0 0 5 2 4 0-1-1-3 1-3v10h-1l-1-4c-2 0-4-6-2-7-1 2-6 0-3-2h2v-2c-2 1 1-4 2-3z"/><path fill="#7F7F7F" d="M269 92V82l2-2v5l-1 1v9h-1v-3z"/><path fill="#999" d="M266 105v11l-2 3v-4h2v-8c0-3-1-2 1-2h-1z"/><path fill="#8B8C8C" d="M161 70v-9c2 0 1 1 1 2h3c2 2-2 1-2 1v3s-2 0-1 3h-1z"/><path fill="#B5B5B6" d="M263 41v1c-1 1-2-1-1 4h-2v-1l-1-1 1-1v-2h4-1z"/><path fill="#7C7D7D" d="m260 46 3 5v1c-1 1 0-1-1-1l-1 1-1-1-1-1h-6c-3-1-4-2-2-3l5-1h4z"/><path fill="#131414" d="M247 72v-4c0-1-2-3-1-4s2 1 2 1h6l3 2h5l1 1c0 2 1 2 2 2v3c-1 2-5 0-3-1v1h-10l-1-1 1 1c2-1 8 0 5 2h-3l3 1h5l3 3v1c1 1 2 0 1 2 0 2-1 0-1 1s3 2 0 2h-1l-1-1-6-1v-1c-1 1-3 0-3-2h-2c0-2 0-2-1-1h-2l-1-3c-1-1-2-3-1-4v-1z"/><path fill="#383938" d="M262 68h1v1c1 1 2-1 2 3l-1-1c-1-1-2 1-2-3z"/><path fill="#565758" d="M167 111c1-1 2 0 3 1 1 0 3 2 1 2l1-1 6 1c2 0 1 0 0 0-2 0-9 0-7-3h5l3 1c2-2 4 2 1 2l2 3c2 1 2 1 2 3 2-1 5 2 5 4l5 3 6 1c2 0 3 1 4 4l11 2h13v1c0 1-1 2-3 2h-11c-3-1-5-1-6 1h-1l-13-7c-1-2-1-2-2 1-2 1-2 2 1 4 1 4 4 8 7 11v1l2 3 5 4v2c2 1 2 1 0 1 0 2-4 2-4 1-2 0-2-1 0-3l-5-4-2-2-3-4-3-10c-1 2-3 1-3-1l-5-10c-2 0-3-3-2-4h-1c0-2-1-4-3-3-3 0-6-1-8-3l-2-3 1-1z"/><path fill="#3D3E3D" d="M200 148c-3-2-5-7-8-10-2-4 0-1 0-2l-2-2-1-2h-1c-1-3 2 0 3-1l1-3c2 0 2 2 3 3l7 2 5 4 2-2 5 1h7c3 0 2 0 2 1l-9 1-4 3-3 2c-1 1-6 0-6 2l3 3 5 5c1 2 2 3 1 4h-3l-1-3-6-6z"/><path fill="#383938" d="M240 157c2 3 0 7-3 9v1c2 2 3 5 0 6l-1 6v2c2 1 2 2 1 2 0 2-1 2-1 0l-3 1c-1 2-5 2-7 2-3 0-4-1-4-3l-1-6 1-6 1 2v5l1-1v-8l2 1c1 2 1-1 2-1l3-1c4-1 4-4 5-7l4-3v-1z"/><path fill="#E7D19B" d="M220 157c0 1 0 2 1 1l1 1v19c0 2 1 0 1 1v6h4l6-1 3-1h6v1l-3 1h-4c0 2-1 2-2 1h-6c-2 0-4 1-6-1l-1-7-1-1c1-2 1-5-1-6l1-9c-2 0-3-1-3-2l-7 2h-6c1 1 0 5-2 6v4l-1 1h-1c-1 3 1 4 1 5l-1 2c0 1-2 1-2-1v-12c-2-1-1-4 0-6v-1l5-1h5v-1h11c2 0 1 0 1-1h1z"/><path fill="#221D1C" d="m244 158 1 4v8l1 1v11h-1l-4 1v-7l-1-1v-10l2-6 2-1z"/><path fill="#464746" d="m240 157 2-2v4l-1 4v13l-2 1c0 4-1 5-3 3l-1-1 1-4v-2c0-1 2-1 2-3 0-1-3-3-2-5l2-2 2-6z"/><path fill="#1D1D1D" d="M221 158v-2l2-3-1 3 1 2v9c0 3 0 2-1 2l-1-1v-10z"/><path fill="#3D3E3D" d="M227 135h12c3 0 0 0 0 0 1 2 0 1-1 1l-12 1h-2l3-2z"/><path fill="#1D1D1D" d="M217 153c-3 1-5 0-5-3 2 0 5 0 5 3zm3 4h-6c2-2 6-4 6 0z"/><path fill="#72716F" d="M210 157h1c1 2-2 1-4 1v-1h3z"/><path fill="#464746" d="M244 153v3c-2 1-1-2-1-3h1z"/><path fill="#575859" d="m290 215 4 1 2 1c0 3-2 1-3 0l-3-2v-1z"/><path fill="#808283" d="M311 236v2h-3l1-1 2-1z"/><path fill="#393A39" d="M250 117c0-2 2 0 1 1l4 6c3 1 5 2 4 5l3 1v2l-2 1c2 1 2 3 0 3l-1 2-1 2h-1l-1-1c-1 1 0 2-1 1v-2c-3 1-6 2-10 1-3-1 0-3-5-4-2-1 2-2 4-2 3-2 5 0 5 3l4-1c3 1 4 0 1-5h-1l-2-1c-1-4-3-5-6-5v-3c1-1 2-3 4-2l1-2z"/><path fill="#565656" d="m244 132 1-4c0-2 6-1 3 2 2 3 4 2 6 0h1l2 4-2 3-2-2-3 2c-1 0-1 2-2 1s1-5-2-5c-2 0-1 1-1 1h-3l-2 1h-13v-1h12c0-2 4-3 4-2h1v-1z"/><path fill="#F2DC86" d="M321 147c3 1 4 7 0 7l-1 2c3 4-3 6-5 4 0 1-2 2-3 1 1 2-1 3-2 4l-2 2c1-1 7-7 7-2 1 4-3 4-4 5-2 0-5-1-3-3v1h-1c0 1-3 2-2 3 4 1 6 4 3 7l1 6c1-3 3-3 4 0 3 1 3 4 0 3l1 1c2 3 3 3 3 1 0-3 0-5 2-7l-2-5c-2 0-2-2-1-3l1-5c-3-2 0-6 3-4v5l1 2v15l-1 6 1 3c0 1-2-1-1 1h2c1 2-1 3-1 4 0 0 2 0 1 1s-4 1-4 3l2 1c-3 3 1 2 3 3v5l-3 1c1 2-3 4-3 4-3 0-5-2-3-4-3 1-7-3-3-4l2-2c0-3-1-6 3-6l1-1c-3-1-2-3 0-5l-3-4c-1 1-2 3-4 2l-1 3c1 3 0 4-3 5l-1-1v-7l2-4h-1l-1-4-2-2v-6h-1v-10l-2-3h-9l-2 1h-10c-2 1 0 2-1 1l-1-4h-2c0-1 0-3 2-2 1-2-1-1-2-1v-5l4-4h6c2 0 1-2 2-1 0 5 2-2 4 0-2 2 2 1 3 1l3-2h3v-1h8l2-1 2 1 9-2z"/><path fill="#F0D67D" d="M321 147h4l2-1c1 0 0 2 2 1l2-1v2c2-2 3 0 3 0 2 0 3-1 2-3l3 2v-2h1l1 2 1 7 2-1c1 2-1 4-1 6v1c-1 1-1-1-1-1-3 0-3 1-5 2h-3l-1 1c-3 1-7-1-11 1s-2 2-2 2c-2 0-4 0-3 3 1 1 1-1 1-1l1 1-2 2v3l-1 3c3-1 2 1 2 2l2 4c0 2-2 2-2 3s2 8-3 6c-4-3-1-2-2-3h-1c-3-1 0-2 2-2 1-2-2-1-2-1s1-3-1-2c-2 0-1 3-3 2s0-6 0-6c-1-1-1 1-1 1-2 1-4-1-2-2h2v-1l1-1c-1-1-2 0-1-1 3 1 1-2 0-3-1 0-3 0-3-3l2-2h2c0 1 1 2 2 1l4-4c-3-1-3 2-5 3h-1v-3l3-1c1-2 0-2-1-2l2-2 1 1c2 1 0-1 1-2l3-2c1 0 1 3-2 2 0 2 4 1 4 1v-4l1-1v-1l3-1-2-5zm-14 57 2-4-1-1 2-6 2 2 1-2v-2h1l2 4c1 1 3 2 2 3l-2 2c1 2 3 0 2 2 0 2-1 1-1 1v2c-1 0-3-2-3 1s2 3-2 6l-2 1 3 1 1-1s3-2 4-1c0 1-5 4-4 5 1 2 1-2 2-1v2c3-1 4-1 2-4 2 0 4 1 4-2l1 2 1 3c-2 1-1 0-1-1-2-1-1 2-1 2-5 0-4 2-4 2-1 1-2-1-2-1l-4-1-1 1-3-1c0-1 0-3-2-3v-9l1-3v1z"/><path fill="#696561" d="M241 176v6h4v1h-7l-2-2v-1h1c1-1-1-5 4-4z"/><path fill="#7A7B7B" d="M260 110v4l2 1v9c-1 2-3 1-3 0v-7c-2-1-2-6 0-7h1z"/><path fill="#9A9994" d="m262 120 1 2v10c-1 4 0 4-3 4v-3l2-2v-1c-2-2-2-4 0-6v-4z"/><path fill="#9E9E9E" d="M259 109v-7h3v7c-2-1-2 1-2 1h-1v-1z"/><path fill="#949493" d="m262 109 1 2c0 1 2 1 1 2l-1 1c0 1 2 0 1 1h-1l-1-5v-1z"/><path fill="#F1DD91" d="m87 175 2-2 13-1h1l5 3v1l-1 5v7l1 2v11c0 3 1 1 1 2l1 18 1 2c0 3-4 7-3 8l2 5 2 1v5h-3l1 3c-2-1-3 1-3 1l-2-1-4 1-1 1h-4c2-3-2-8-1-11v-3c0-2-3-4-3-4l1-4c0-1-2-1-2-3v-6l2-4-2-2-2-4v-8h-1v6h-1v-8l1-1-2-17 1-3z"/><path fill="#EED883" d="M166 164h2c2-1 5-1 5 1 1 1 1 2-1 4 2 1 2 3-1 3l-1 2c2 1 3 2 1 4 3 1 5 3 1 4-1 2-2 1-2-1h-11l-12 3-3 1c0 1-1 2-2 1h-2c0 2-1 2-3 2 0 2-1 2-2 1-2 2-4 1-3-1-2 2-5 1-6-1 2 3 2 5-1 6-2 5-6 0-1-3-2-1-2-2-2-3l-1-3c-1-1 1-2 2-3l3-4c3 2 4 1 4-1l2-2 6-5c3-2 5-3 8-2 6-4 13-4 20-4v1z"/><path fill="#08090A" d="M74 194c2 1 6 4 7 1s0-2 2-1c3 0 1 1 2 1l1 1-1 3c0 5 2 5 2 6 1 3-1 5-1 9 1 4 2 2 2 3 1 4-1 2-2 3l1 5c1 1 3 0 2 3-3 0-2-2-3-3l-6-8c-2-3-1-1-2-1-2-1-2-7-1-9 0-3-5-2-6-1h-4l-5 1c-1 0-9 2-10 1h-4l-1-2-1-3v-5c-1 0-1-3 1-3h16-1c1-1 7-3 7-1h5z"/><path fill="#2E2E2C" d="M78 219c2 0 1 1 1 2v3l2 1 1 1 2 3c1 1 0 1-1 2v3l-1-1h-2l-1-2-5-1 2 3v2c-3 0-5-1-4 3 1 1 6 3 6 5l-5-2c-4-4-8-5-13-7-4-2 0-1-2-2h-2s0-3-2-3h-4v-1c2-1 4-2 7-1l3-2c1 0 4 0 4 2v-1l5-1 1-1h4l3-1 1-4z"/><path fill="#1F1B1B" d="M123 181c0 2-1 2-2 3l1 1-4 13h-1v8c2 1 2 4 0 4v3s0 2-1 1 0-8-3-8v8c0 2 1 2-1 2l-1-14c2 0 1-1 1-2l-1-12v-7l8-1c1 1 2 2 4 1z"/><path fill="#08090A" d="m78 297-1-1h-4c-2-1 0-2 0-3v-3l7-3 4 1 5-1 4 2c1 3 0 7 2 9l1 2c-2 1-3 0-5-1h-2c-3-2 1-2 1-3 2-1 1-3-1-3l-4 2c-2 1-5-1-6 2h-1z"/><path fill="#F4EDBB" d="M71 205h6v2l1 9v8h-2l-1 1h-5v1l-6 1h-6l-1 1h-8 1v11l1 4v4h1v5l-1 2h-3v1h-9c-6 2-6-3 1-2l8-1c3 0 2-4 0-5v-1c1-3 2-8 1-11-1 0-1 0 0 0v-7h1c-3-1-1-3 1-2 1-2 2-2 3-2 3 1 5 1 7-1l8-1c2-2 3-3 5-3v-9l-1-2H61l-1 1h-5c0 2-8 1-8 1-1-1-1-2 1-2l3-1 11-1 5-1h5-1z"/><path fill="#E7C980" d="M106 264v1h7l2-1v3h1v2l-2 2c0 2-1 3-2 2-1 2-4 6-5 3-1 1-2 0-2-1-3-2-2-5 2-4l-3-2c0 2-1 3-4 2v2c-2 0-3 1-3 2 2 1 2 3 0 3 2 2 2 6 0 7h-1l-1-2v-6c0-2-1 0-1-1v-11h6l1-1h5z"/><path fill="#DCBF82" d="m89 266 1 1v8l1 4v6h-3l-4 1h-7v1h-9v1h-6l-3 1h-3l-1 3c-1 1 0-1-1-2 0 0-1 1-1-1 1 1 2-1 3-2h5l1-1h5l1-1 5-2c-1 1-3-2-2-2 1-1 2 1 2 2h1l1-1 1 2h5l1-1 2 1 1-1h3v-2l1-1v-3l-2-1 1-2v-6h-3l-6 1-4-1h-1l2-1h7c2 0 1-1 1-1h5z"/><path fill="#08090A" d="M72 173c0-2-3-1-5-1l3-1c1-1 0-4-2-3-2-2 12-2 12-2l7-2c2 0 7 0 7 2-1 2-5 2-5 2-1 0-1-2-2-1l-1 1c0 2 3 0 2 2l-9 1c-4 0-4 0-4 2h-3z"/><path fill="#F4EBBC" d="m25 195 1 1 1 12 1 1c2 8 2 17 2 25 2 1 2 3 0 4l1 11v3l1 2c1 0 4 1 2 2l-3 1c-1 1-2-1-2-1v-5h-1v-7l-1-14c0-4-1-1-1-1v-10c0-3-1-1-1-2v-8c0-3-1-1-1-2v-10c0-3 0-2 1-2z"/><path fill="#E6C684" d="M85 297h1v4l1 8v3h-5l-1 1h-2c-1 0-1 3-3 2v-4c1-1 1 1 1 1 2 1 3-1 3-1l2-1 1-1-1-3s3-1 2-3c-1-1-1 1-1 1-1 0-4 1-4-1l5-1v-3h-5l-6 2H62l-2 1c-1 1-1 2-2 1 0-1 1-1-2-1h-2c-1 1 2 1 1 2h-2c1-2 0-1-1-3l4-1h1l7-1h5l5-1h8l2-1h1z"/><path fill="#EDE1AB" d="M167 161c1 0 2 0 1 1 1 1 0 2-1 2l-17 1-4 3h-4l-3 1 1 1h-3l-1 1-3 2v2c-1 1-3 1-2 2l1 2c-2 1-1-1-1-1-2 1-1 2-3 0s-2 1-1-1c2-4 7-7 11-9l2-2h1l2-1 8-2 3-1h12c4 0 2 1 2-1h-1z"/><path fill="#EFE4AA" d="M48 235c2 0 1 1 1 2v6l-1 3c0 2 2 1 2 2v5h-2l-8 1h-5c-1 2 4 1 4 1 1 2-3 1-5 1 1-1-3 0-3-1v-3l1-1c3 0 9 0 12-2 4-1 1-4 1-5 2 0 3-1 2-3h1v-6z"/><path fill="#EFE7B3" d="m82 181 1 1v9c0 2 0 1 1 1 1 1-3 0-3 1l-1 1h-6l-4 1h-6l-1 1h-8v1c-3 0-6-2-7-1-3 0-2-3 0-2 1-2 2-2 4 0l1 1 1-1c4 0 8 0 11-2h8c0-1 1-2 3-1 0-2 1-3 3-4v-5h3v-1z"/><path fill="#E4CA91" d="M74 268c2 0 6 0 5 1h-5l-2 2c-1 1-3 0-5 2 0-2-1 0-3 0v-2h-5l-1 1h-4v-1l-2 2c-3 1-3-1-3-1-1 1-2 5-3 1h-9s0 2-3 2c-3-3 2-1 2-2v-1h3l4-1h4l4-1h7v-1h9v-1h7z"/><path fill="#08090A" d="M58 267c-3 2-6-4-8-4h-3l-2-4 3-1c3-1 9 5 10 9z"/><path fill="#D7BF88" d="M87 309v8h-6l-2 1H68v-1h4v-1h7v-1h4c1-1 3 0 3-2l-1-2c0-1 0-2 2-2z"/><path fill="#E5DCA9" d="M102 170h6v5l-6-2c-2 0 0-1-1-1l-4 1h-8c0 1 1 3-2 2l-2-2v-1h1l7-1h6l3-1z"/><path fill="#F0E6B9" d="M85 173h3l-1 2v5l1 15c0 5 1 2-1 1l-1-4c0-4 1-8-1-12v-7z"/><path fill="#EBD08C" d="m55 293 1 1v6l-1 1h-3v-1c-1 0-4 2-3-2l1 2 2-2 1-2 1-1 1-2z"/><path fill="#E5CB9B" d="M97 285c2 1 2 4 2 6 4 1 1 4 0 4 1 2 0 3-1 4l-1 2-1-14v-2h1z"/><path fill="#08090A" d="M64 247h-5l-3-3-4 2 2-4c3 0 9 3 10 5zm26-13v1c0 1 1 4-1 4-1-2-2-5-1-7l2 2zm5 74c-3-1-2 1-4 2-1-2 1-3 2-5l2 3z"/><path fill="#171718" d="M85 172v8l-1-1v-7h1z"/><path fill="#E5DCA9" d="M108 176v3l-1 2c-1 1-1-1-1-1l2-4z"/><path fill="#1F1B1B" d="M109 184h1v8h-1v-8z"/><path fill="#887355" d="M88 285c1 2-3 1-5 1 0-2 3-1 5-1z"/><path fill="#B3AB87" d="M28 244h1v8h-1v-8z"/><path fill="#171718" d="M94 171v1h-8l7-1z"/><path fill="#1F1B1B" d="M111 201h-1v-7c2 2 1 5 1 7z"/><path fill="#6A6246" d="M56 296c3-1 1 2 1 4h-1v-4z"/><path fill="#08090A" d="M38 270c-1 1-4 0-4-2 1-1 5 1 4 2z"/><path fill="#171718" d="M82 182c-1 1 0 0-1-1v-5c2 0 1 5 1 6zm-15-8c1 2-3 1-5 1h-1v-1h6z"/><path fill="#EFE4AA" d="M51 247h1v5h-1v-5z"/><path fill="#5D4E37" d="M79 297h2c2 0 2 1 1 1h-4v-1h1z"/><path fill="#171718" d="M32 179v1h-5c0-2 3-1 5-1z"/><path fill="#EFE4AA" d="M50 238c2 0 1 4 1 5-1 1-1-3-1-5z"/><path fill="#B1A689" d="M50 228v4c-2 1 0-3-1-4h1z"/><path fill="#645541" d="M74 299c1 1-3 0-5 1 0-2 4-1 5-1z"/><path fill="#9E8E55" d="M56 289v5l-1-1v-1c0-2-1-3 1-3z"/><path fill="#918A75" d="M74 193v1h-5l5-1z"/><path fill="#A7A17C" d="M82 173v3h-2v-3h1z"/><path fill="#A29276" d="M85 297h1v4c-2 1 0-2-1-4zm-1 0c1 2-1 1-3 1v-1h3z"/><path fill="#897A5B" d="M43 271c1 2-2 1-4 1l4-1z"/><path fill="#8B775C" d="M51 270c1 2-2 1-4 1l4-1z"/><path fill="#957F49" d="M90 276c2-1 1 2 1 3-2 1-1-2-1-3z"/><path fill="#EAC46D" d="M95 283c2-1 1 1 1 2v2l-1-4z"/><path fill="#757159" d="M102 170c1 2-2 1-4 1v-1h4z"/><path fill="#836F4E" d="M62 288c1 2-2 1-4 1l4-1z"/><path fill="#171718" d="M72 173h3c1 2-2 1-4 1l1-1z"/><path fill="#7F7765" d="M51 254v1h-4v-1h4z"/><path fill="#171718" d="M98 170v1h-4l4-1z"/><path fill="#776F56" d="M142 165c1 2 0 1-2 1v-1h2z"/><path fill="#08090A" d="m89 230-2 1c-1-2 1-4 2-1z"/><path fill="#958C71" d="M154 162c0 2-2 1-4 1l3-1z"/><path fill="#171718" d="m78 173 3-1v1h-3z"/><path fill="#EFE4AA" d="M47 254v1h-3l3-1z"/><path fill="#676550" d="M25 180c1 1-1 0-3 1v-1h3z"/><path fill="#171718" d="M37 179h-3 3z"/><path fill="#6F675B" d="M94 265v3c-1 1 0-1-1-3h1z"/><path fill="#947D6D" d="M89 266h1v3c-2 1-1-1-1-3z"/><path fill="#08090A" d="m70 291-1 2v-2h1z"/><path fill="#1F1E20" d="M29 125s-5 1-4-1h4l1-1h2v-3h2v-4l1 2 1 1 1 1c2 1 1 2 0 4h-1c1 2-2 2-2 1h-5z"/><path fill="#fff" d="M36 124c3 0 0 2 0 2-1 0-3 1-2-1l2-1z"/><path fill="#B4B3B5" d="M25 93c0-2 2-1 2-1v-3h-1l3-2v7l1 1v6c-2 0-2 1-2-1l-2-3v-1s2 0 1-1c-3 0-1-1-2-2z"/><path fill="#818182" d="M30 101h2v2h1l1 1v-3h2v6h-3c0 2-2 3-3 1v-7z"/><path fill="#636364" d="M22 109c0-1 0-3 2-2l-1 3h3c-2 4 0 4 3 6 2-1 0-2 0-3s2-1 1-2c-1 0-4 3-3 0l1-1 2-1h2v-2h4v5c-4-3-2-1-2 1s-2 0-2 1v3l-1 1v1l-3 1-1-2c-2-1-5-1-4-4 0-3 4-3 0-3l-1-2h-1z"/><path fill="#818182" d="m26 99 1 2v5c0 2 2 0 2 1v1l-4-1 1-1c1-2-4-5 0-6v-1z"/><path fill="#49484A" d="M17 115v1c-1 1-3-4 0-5v4z"/><path fill="#FCFDFD" d="m59 53 5 1 1 1h2c1-1 4 1 2 3 2 0 3 0 2 1v2l1 1v2l-5 3h-6l-6-1c-3-3 1-6 0-9 0 0-4 2-3-1l1-1 4-1c2-1 0-1 0-1h2z"/><path fill="#EDEDED" d="M72 64c-1 3-2 2-4 2l-1 1c1-2 3-2 5-3z"/><path fill="#ADADAD" d="M79 46h1l-2 6h-2c0 1 2 4-2 3l-2 5-2-2-1-3v-3c3 0 4 0 2-3-2-2 0 0 0-1h1c1-1 4-2 6-1l1-1z"/><path fill="#8A8A8A" d="M77 44v2h2c0 3-1 1-3 2l-4 1c-3-2-2-5 2-4 0-1 2-2 3-1z"/><path fill="#545455" d="M77 43v1c-2-1-2 2-2 2h-4l1 3h-3c1-2-2-1-1-2h1l2-3c1 0 2 1 2-1h4z"/><path fill="#7B7B7C" d="M70 49h1l2 1c0 1 2 0 1 1-2 0-2 2-5 1l2 4-1 2v-2l-3-1v-1c-3-2 0-3 2-4l-1-1h2z"/><path fill="#454545" d="M68 50c1-1 4 1 3 1h-5c-1 1 3 2 2 3h-1l-1 1-7-2h-2v-1l5-1 1 1c3 1 2-1 3-1 1-1 2 0 2-2z"/><path fill="#292A29" d="M39 78h3l6 1h4c2 0 1 1 0 2v3l-2 3H39v-1l-1-2v-5l1-1z"/><path fill="#989898" d="m59 73 4 3v1c-3 2-3 6-7 6h-2c0-2 2-4 3-4l-3-2v-1l3-1 2-1v-1z"/><path fill="#78797A" d="M42 73c3-1 2 1 2 1l2 1 3 2c1 1 2-2 3-1s-2 1-1 2h3v-1l4 1c1 1-2 2-2 2l-1 3h1l-3 3c-2-1-1-5 0-6l-1-1h-4l-2-1c-2 2-4-1-4-3v-2z"/><path fill="#464646" d="m42 74 2 3c2 1 1-1 2-1 2 1 2 3 2 3h-6l-3-1v-1c2-1 3 1 3-3z"/><path fill="#E1BE62" d="M36 277c0 2 0 2-2 2l2-2z"/><path fill="#E2BC5F" d="M116 272v1l-2 4c1 4 1 6-1 7v2l3 2 2 7v2h-1v9l-1 4c2 1 1 3-1 4 1 1 3 2 5 1v7l-2-2v4h2v2c0 1 2 0 1 1l-1 1c0 2 2 1 1 3-2 0-2 0-2 2 2 0 0 3-1 3h-1v-1c-2 0-2 0-2 2-2 1-1-1-2-1l-3-1c-2 0-3 2-5 1v-1h-1c-1 0 0-3-2-2v-3c0-1 3 1 2-1-1-1-4-1-3-2s1 1 1-1-1-1-1-1v-4l1-4c0-1 3-3 4-1 1 1 1 1 0 0-3-1-4-2-1-5-2 0-6-3-5-5l-1-3v-4c-1 0-1-2 1-2-2-1-2-3 0-3 1-3 1-5 5-5l1-1c-1-2-2-4 1-4 3-4 0-5-4-5-3-1-1-5 2-3h3l2-2-1-3c1-1 3 2 4 1s-2-1-1-2l4-1v3z"/><path fill="#EAC46D" d="M97 285v-5l-1-3 2-1c-3 1-2-2 0-4h1v-2h4s-1-3 2-2 0 2 1 1c1 0 2-5 4 0h-3c0 2 2 1 2 2 0 2-3 1-5 1 0 3 3 2 3 3 1 0-2 1 0 1-1 1-1 2-2 1-2 0-2-3-2 1 2 0 5 0 6 2v2l1 1h-2v2s-3-1-2 1l1 1-1 2v1l-4 1v2l-1 1 2 2-4-1c0 2 1 1 2 1v2l1 1c1 2-3 2-2-1l-1 1h-1v-5c0-2 4 0 1-3l-1 1v-3l-1-4z"/><path fill="#E6C276" d="M99 303c3 0 1 1 2 2l2 1c1 3-2 1-2 1-1 1 1 1 1 1v2l2-1c-1 3 2 1 2 1 1 1-1 4-2 4h2v2h2v2c0 1 2 0 1 1-1-1-2 2-4 1-1-1 3-2 2-3l-1-1c-1 0-4 1-3 2h1c1 1-1 1-1 1 0 1 1 3-2 2v-3s-2 0-1-1 2 0 1-1-1 1-1-1c7 0 0-2 0-2l1-4-2-1v-5z"/><path fill="#E6BC61" d="M131 289c2-2 8 2 5 4-2 0-2 2 1 4-1 3 0 3 1 1 3-1 5 3 4 5l1 3 2 2h3v3h2l9 4 1 1h3l1 1h10c1-1 3-1 3 1l6-1 3 3c0-4 4-3 4 1l1 1c4 2 1 4-1 4v2h-2l-2 2h-2l-3 2h-5l-1 1h-3l-1 2c-2 0-1-2-2-2v2h-3c-1-1 2-3 0-4l-3 2v2c-2 0-1-2-2-2s1 2-2 2 0-2-1-2h-3l-2-2-7-1-4-3-4-3h-2l1-3c1-3-1-2-2-5-1 0 0 2-2 1-1-1 2-3 2-2 1 0 0 0 0 0h5c1 0-2-3-3-1-2 0-1-2-1-2-1-1-1 0-1 1l-3-2c0-2 2-2-2-2l2-2c-1-2 2-4-1-5-1 1-1 2-3 2v-6l2-1v-3c1-1 2-2 1-3v-2z"/><path fill="#0B0A0B" d="m154 280 5-3h2l1-1h18l11 3c4 2 1 3 3 2 3-1 1-2 1-3h1c2 0 1 1 1 2v3c0 1 2 1 1 2v1l-3 1h-5l-3 1h-5l-4 1h-1l-11 1-3 1v5l1 1v6l1 3h6v-1h10s0-2 3-1v5h-1v1l-5 3-3 1h-3l-1 1h-10v-1h-2l-5-4-2-3-2-1-1-3h-1v-7s-2 0-1-1h1v-5l2-5v-2h1c2-1 2 0 1 3l4 9c1 1 1 0 2-1l-2-13-2-1z"/><path fill="#E9C578" d="M177 290c4 0 8 2 12 1 3 0 1-1 1-1l4 1h2c2 0 2 1 2 2l2 1v7c1 1 3 2 2 3 0 1-3 0-2 1 3 0 2 1 2 2l1 1v4l1 3-4 2v3c0 1-3 1-2 3l-3 2-3 2-2 1-2-2h3l1-2c-2 0-2-3-4-3l2-2c-1 1-2-1-3-1l-1 4c-1 2-1 0-1-1-1-1-3-2-3-4-1 2-3 1-4 1l-3 2v-1h-3c-1-1 4 0 4-1 1-1-2-1-2-1 1-2 4-1 4-3 2 0 1 0 1 1l3-3h2l1-2c1-1 2-1 1-3 0-2-2 0 0-3h-2l-2-1 4-9h-1c-2 2-3 1-5-1-2 9-8 2-3-2l-1-1z"/><path fill="#E6D08F" d="m134 273 6-7 3-1h1v-2c1 0 2 1 3-1v-1h3v-1c13-3 21-4 34-1l2 2h6l3 3h2l1 5-1 1-1 3v3h-1c-1 1-1 3-3 3l-1-1-9-2c-3 0 0-1-1-1h-6c-2-1 0-2 0-2h-5l3-3c1-2 3-2 2-3l-5-2h-6c-1-1-2-3-4-3l-5 4-9 2c-2 1-6 0-7 2s1 0 1 1c-2 0-3 3-3 4-2 1-1-2-2-2h-1z"/><path fill="#E9C771" d="M131 289h-1v-3c2 0 1 1 2 2h4v-1l2-1c2-1 2-2 2-3 1 0 3 2 2 3 0 2-3 3 0 2l1 2h-2c2 3 0 2-1 3l-1 3c4 1 1-3 4-3 2 2-2 4-1 5 0 3 2 2 3 4 1 1 0 0-1 1l-1 4-1-2-1-1-2-2h3l-2-3-2 2-3-1 1-1c1-2-4-3-2-6s2 0 2-1-3-3-4-2l-1-1z"/><path fill="#E9C771" d="m131 290 1 4h-2l1-2c-2-1-1 1-2 1l-1-2v-1h4-1z"/><path fill="#0B0B0C" d="M183 236h1v3c3 6 5 11 6 17 0 2-2 1-3 1-3-2-9-1-12-2l-4-1-2 1h-9c-3 1-1 1-1 1-4 1-8 1-11 3l-2-1c3 0 1-1 1-1l-4-7-3-4c-1-1 1-2-2-2 1-2 0-2-1-3l-3-1c-1 0-3-2 0-3 1 0 5 2 5 4l3 1c1-2 4 0 6 1l2 1c4-2 10-2 13 0l3-1 1-1 5-1 8-3 4-2h-1z"/><path fill="#343232" d="M154 280c2 1 3 0 4 2l1 12-1 2c-3 2-3-2-4-4l-2-4-1-1 1-3c0-1 1-1-1-1l3-3z"/><path fill="#94886A" d="M148 300c2 0 1 2 1 3h-1v-3z"/><path fill="#F0E8BD" d="m121 184 1 3-1 3-1 17c2 1 2 2 0 3 2 1 2 3 1 4 1 5 3 9 6 14 1 0 2 1 2 3 2 0 4 1 5 3 3 1 4 2 5 4l8 2v1a128 128 0 0 0 19-1h5v1l-6 1-2 1h-13l-3-1-6-1-2-1-6-3-5-4-5-6-1 1-2-6-2-6v-3l-1-3v-12c0-5 2-10 4-14z"/><path fill="#1F1B1B" d="m118 215 2 7c1 1 1 3-1 1l-1-4-1-2 1-2z"/><path fill="#383836" d="m120 222 3 5-1 2v-1l-3-5c2 0 1 0 1-1z"/><path fill="#DFBB6F" d="M177 290c0 2-2 5-1 6 2 1 3-2 2-4 3-1 3 2 4 2l3-1c3 0 1 2 1 3l-1 5-3 2-6 1h-9c0-4-2-7-1-11 1 0 6 2 7 0 1-1-1-2 4-3h-1z"/><path fill="#E9D8AD" d="M199 285h4v10c0 2 0 2-1 1v-3l-1-1v-4h-5l-1 1h-7c-2 0 0 0-1 1h-8l-2-1h1l4-1h5l3-1h5v-1l4-1z"/><path fill="#989263" d="M204 298c2 0 1 4 1 5-1 1-1-3-1-5z"/><path fill="#958468" d="M164 303c2 0 1 1 1 3h-1v-3z"/><path fill="#867A65" d="M166 289c1 2-2 1-3 1v-1h3z"/><path fill="#E9C578" d="m202 300 1 1c-1 0-2 1-1-1l1-1h-1zm1-3c1 1 1 2-1 2s1-3 1-2z"/><path fill="#4E4A4A" d="M208 313c-1 1-1 0-1-1 0-8 0-14-2-21s0-2 0-3c5 1 3 7 3 10l1 3c1 3-1 7 2 8l1 3c2 0 2 5 0 5v4c-2 0-1-3-1-4l-2-5-1 1z"/><path fill="#EBDBA3" d="M213 290c1 1 0 3-1 3l1 2c4 1 3 5 0 6 1 1 2 2 0 3 2 0 2 2 1 2l-1 3c3 1 1 6-1 3h-1v-16l-1-5 1-4 1 3h1z"/><path fill="#70664F" d="M198 285h1c1 2-2 2-4 2 0-3 1-2 3-2z"/><path fill="#DFD2A7" d="M211 296h-1v-5l1 5z"/><path fill="#EDD189" d="M211 296v4c-2 1-1-2-1-4h1z"/><path fill="#E9C771" d="m130 296 2-1 3 3c-2 2-4-3-4 0s-1 0-1-1v-1z"/><path fill="#EBD191" d="M215 309c2 0 2 2 1 4 3 2 3 4 2 5 4 3 1 5-2 7 0 2 4 1 5 0h3c1-2 3-2 3-1 0 2 2 1 2 1 1 1-1 1-1 2l-3 1h-12v-3l-1-8v-5c2 1 1-1 1-3s1-1 2 0z"/><path fill="#E8C578" d="m120 316-1 2-2-2h-2v-1c-1-1-1 2-1 2-1 1-7 0-4-2-2-1 0-1 0-2 2-2 0 2 3 2 0-2 0-1 2-2l1-1-1-2c0-2 1-1 1-1 1-1-1-1-1-1-1-1 1-1 1-1v-2c1-2 2-1 1-4s-1-1-1-1v-4c1-1 1 1 2 1l1 5v4l-2 1c4 0 2 2 2 4s1 0 1 1l-1 1 1 3z"/><path fill="#DCBD7A" d="M119 333h3v3l-2 2c-2 1-2 0-2-2l1-3z"/><path fill="#E7C980" d="M116 272v7c0 2 2-1 2 3-1 0-3-1-2 3 1 3 1 0 2 0v6l1 4c-2 0 0-3-3-2s0 2-1 1c-1-2 1-2 1-2 1-3 0-4-3-6 0 3 1 3-2 2l1-5 2-1-1-5c1-3 2-2 2-2l1-3z"/><path fill="#978967" d="M212 317c2 0 1 0 1 1v7c-2 1-1-2-1-4v-4z"/><path fill="#878368" d="m118 210 1 3h-1v-3z"/><path fill="#A9A8A2" d="M234 300c1-1 4-2 5-1 2-1 4-1 4 1h1c0 4-2 3-5 3h-5v-3z"/><path fill="#E3C16C" d="M215 306c1 3 4 2 6 0l1 2h1c2 1 3-1 3-2-1-1-3 1-2-1l2-1-1-1 2-3c1-1 1 1 2 1l1 3 1 1v4c-1 2 1 1 1 1v3c1 1 3 1 2 2-3-1-1 4-2 4h-1c-1 0-1 2-2 1-1 1 1 1 1 3s-2 1-2 1h-2v2c-1 1-2-1-3-1l-1 1-2 1h-4v-3l3-3s-2 0 0-1c-3-1 0-2-1-3l-2-3s-2 1-1-1h1v-4c-3 0-2-5 0-3h-1z"/><path fill="#EDD189" d="M213 290c5-1 0-3-1-4s1-3 2-4l2-5c3-4 1-2 1-3 1 0 4-2 5-1 2 2 6 3 2 5 0 2 3 0 4 0 0 1-3 4-1 4 2 1 1-1 2-1h7l-2 1v9h-2c0 1 1 3-1 3-3 1-3-2-4-3-2 0-1 1-2 2s-2 0-2 2c1 3 3-2 4-1v3l-2 1-1-2c-2 0-4 4-5 6l-1 1c-1 1 1 3-2 3h-1c-1 2 0 2 1 3h-2v-9c2-1 3-2 2-3l-4-4 1-3z"/><path fill="#F1E090" d="m206 205 3-3c1 3 2-1 3-1l3-2 1-3h4c1 0 1-2 2-1l-1 2h-5c0 1 1 2-1 2s1 2 1 2v1l2 1h1c1 1 2 2 4 1v2h-4s1-2-2-2c-3 1-1 1-1 1l-8 2h-4c0-3 1-1 2-2z"/><path fill="#E7C471" d="M200 172v-5c0-1 3-1 2-2-2-1-2 1-2 1l-1-2h4l-1-2c0-2 5-2 6-2 1 1 0 2 1 1l1-1 6-1c2 1 0 2 2 1 2 0 1-1 1-1v12l1 1v6l-2 5-2 3h5c1 1-4 4-3 6 2 1 4-3 4-3 1 1-1 2-1 3s2 0 1 2l-2-1h-1c-1 1 1 2-1 2 0-5-1-1-2 0h-1c-1-1 3-3 1-3-3 0-1 1-2 1l-2 1-2 2v-1h-2v-2l-1-1h2s0-2 1-1l1 1 1-3c-2 1-2-1-2-1l-1 1h-2v2c-2 0-2-3-3-3l-1 1-1-3 1-2s-3-1 1-1c0-4-1-2-4-2v-1h3l-1-4 1-2-3-1v-1z"/><path fill="#0C0D0C" d="m164 182 4 1h1c1-1 9 2 10 2l6 3v1l1 2v2h1v2h-12c-10 2-8-3-1-2 3-2 4-3 1-3v-2h-3l-18 2 4 4c3 3 0 3-3 3v1c-1 2-4 2-4 0l-8-4-1-1v-3c0-4 9-8 13-8h9z"/><path fill="#EFE3AE" d="m142 186 2-2 7-2 3-1c2 0 0 0 1-1h14c4-1 2 0 2 1l1 1 2-1 5 2 4 2c2 0 3 1 3 2l-1 2-2-2-10-3-5-1-4-1-13 1c-5 1-1 1-1 1-2 1-6 3-7 5l-1 3c1 1 0 2-1 2-2 3-1 14 0 17l5 6-1 1 1 2 6 3 7 1v1c-2 1-13 3-12-1-5-2-7-6-8-11-2-1-3-3-2-7-5-3-4-10 1-13l1-2 2-2c-1-2-2-5 1-3z"/><path fill="#EDEAE2" d="M175 162c-3-5 3-5 6-2v-1c-2-2 4-2 3 0 2 0 4 2 3 3 2 0 4 1 4 3h1l5 6c2 2 1 5 1 7s0 2 1 1v7l-1-2-3-2c-1 1-4-3-4-1l-1 1-2 3c-2 2 1 2-1 1-1-1 1-7 3-4-2 0-1-4 1-4-1-2 0-3 1-4h-1l-6-6c-1 2-2 1-2-1-2 0-2 0-3-2-4 1-5 0-5-3z"/><path fill="#EAD28E" d="M185 169h2l5 4h1c1 1-1 2-2 2v3l-2 2v2h-1v2l-1 2-1 1-3-1-5-3c-2-1-1-4 2-5 1 1 2 0 2-2 2 0 3-1 4-3-2 0-2-4-1-5v1z"/><path fill="#E5D8AF" d="M187 192c3 3 3 1 3 0h4v2l1 1v10l1 2h-2c-1 0-2-3-1-4 0-7-2-10-7-7-1 1-10 0-7-2l7-1c2 0 1 1 1-1z"/><path fill="#B8B090" d="m196 207 1 3-1 2c-2 2-3-4-1-5h1z"/><path fill="#DAC8A3" d="m234 300 1-2v-1l4 1c3-2 10-1 15-1 0 2 0 1-1 1h-8c-2 0 0 1 0 1l-2 1h-5l-4 1v-1z"/><path fill="#E8CB80" d="M238 293v2c-1-1-2-1-1-2h1z"/><path fill="#4A494B" d="m184 236 5-2c2-1 1-2 1-2 2 0 1 3 1 4s-3 1 1 1l-1 8v12l-2-1h-1v-2l-4-14c-2-3-1 0-1 0l1-4z"/><path fill="#EFDC91" d="M194 207h1l1 5v2l-2-2 1 3v4c-3 0-5 2-3 5 0 3-7 7-10 8v2l-2 1-2 1h-2l-1 1c-2 0-1 1-1 1 0 1-1 2-3 2l-1-2-1 3h-1l-6-1c-3 3-5 1-7-2h-6c-2 0-7-6-7-7-1-2 3-3 5-1l14 6 1-1c1-4 2-5 5-4 0-4 3-3 6-2l1-6c-1-1-2-2-1-3l3-3 2-1c6-1 5-2 1-3-1-5 4-2 6-1l1-1c1-5 3-6 8-4h1-1z"/><path fill="#F5E79C" d="M195 218v5l-1 1v1h-2v2l-3 3-7 4c-3-3 0-2 1-3l6-5c3-2 1-4 1-5 1-2 3-4 5-2v-1zm-17 18 1-2c-3 0-5-2-5-4l4 1 2 4v1h-3zm-7 4v1h-2c-2-4 1-5 2-1zm5-4v1h-1c0-1-2-1-1-3l2 2z"/><path fill="#F5ECAF" d="M66 119v6l1 2v6h-3l-1 1c-3 1-7 0-10-1 1 4-2 2-4 2s0 1-1 1h-7l-1 1c-1 1 0 2-2 1-1-1 3-7 3-9h1l2-7c1-2 4 0 6-1l10-2h6z"/><path fill="#A09D89" d="M106 145v4c-3 1-2-2-2-4h1z"/><path fill="#F1DA8F" d="M25 194c2-2 5 1 6 3 2 0 2 1 2 5 3 0 5 0 7 2 2-1 4-1 4 1h-1l1-9c1-2 2 0 3 2v1c-1 2-1 6 1 9v1l-1 1h7l1-1h5c2-2 2 1 2 2-1 3-2 4-5 2 2 3 2 5 1 6l1 1c5 3 0 5-4 3l-2 1c-2 0-3 0-4 2l-1 1-3 4c3 1 3 5 1 8l2 2v2l-2 2v2l-1 1v2l-2 1c-3 1-6 2-10 1h-2l-1-2v-10c0-3-1-1-1-2l1-1-1-2v-6l-2-19-1-1v-8l-1-5v-2z"/><path fill="#EDD07E" d="m25 194-1-5v-4h2l1-1h2v-1c1-2 5-2 5-1 1 1 3-1 4-1h3l2 1c2-1 0-2 2-2h8c3-1 1-2 4-1 3 0 0 1 1 1l1-1h1c3 3 3 5 1 8 3 9-4 6-8 2 0 0-3 2-2 3 2 0 4 1 2 2h-3l-1-1c-1 1 0 2-3 1l1 1-1 3h-1s1-2-1-2v9h-3c-1 1-1 3-3 2l1-2c0-1-5-3-7-2-1 0-3 3-2-1 3 1 2-4 1-4 0-1-1 1-2-1v-2l-4-1z"/><path fill="#F1DB86" d="m60 179 2-2c3-1 1 2 4 2 2-1 0-2 0-2l4-1 1 1c1 0 0-2 2-1s0 1 0 2l4-1v3h3v8l-2 1-2 2-2 1-1 1h-8l-1 1-6 1h-5c0-2-2-2-3-3-2-2 2-3 2-3v-4c2-1 1 2 1 2 0 2 5 5 6 5 2 1 0-4 0-4l2-5c0-2-2-2-1-4v-1z"/><path fill="#F2DD94" d="M130 149c2-2-2-4-3-5-1-3 3-11 7-10 4 2 0 2 1 2l3 2h6l3 2v3c1 0 5-2 6 1 1 2-2 5-2 5h-1l-1 1c-1 1-2 0-2 2h-7c-2 0-1-1-1-1l-8-2h-1z"/><path fill="#5A5A5B" d="M52 79c4 0 1 2 1 2v6s0-1 0 0h-3v-2l1-1v-4c0-1 2 0 1-1z"/><path fill="#B5B5B5" d="m235 46 1 1 8 1 1-1h5c1 0 2-1 2 1h-1c-1 2 4 2 6 2h2l1 1h-5c-2 1 0 2-3 1l-6-1-4 1-2-1-1-1c-1 2-3 1-5-1h-1l-1-2-3-1h6z"/><path fill="#C4C3C3" d="M222 41c-2 0-6 1-5-1s5-1 5 1zm17 3c1 2-1 2-3 2 0-2 2-2 3-2z"/><path fill="#B8B7B8" d="m185 48-1-2c0-2 2-1 1-2l1 2-1 1z"/><path fill="#A9A9AA" d="M181 59v-7c1-2 2-1 1-2h1v9h-2z"/><path fill="#848485" d="M184 66v-3c2 0 1 1 1 2 0 0 0 2-1 1z"/><path fill="#D6D7D7" d="m234 50 4 1 3 2v2l-1 2-1 3c-1 1-1-1-1-1h-5l2-3 2-2-4-5h1z"/><path fill="#959595" d="M224 58v2c-2-1-3 0-3 1 1 1 2 2 1 3v1h-3c-2-1-5-1-4 1l-1 1c0 2-3 5-5 4s0-4 1-4v-4c-2 0-1-2 1-2h2l2-1h4l2-2h3z"/><path fill="#5C5C5C" d="m224 59 1 1c3 0 11-2 11 2v1c-1 2-5 0-3-2v1h-9l-1-1 1 3c2 1 0 4-1 2-1 0-2-1-1-2-1-1-1-2-3-2l-2-1c4 1 4-2 4-2h3z"/><path fill="#D7D8D8" d="M244 68h2v4l1 3 1 7-1 1c1-1 4 0 3 2 2 0 2 2 1 2-2 2-7 3-7 0v-2l-3-3 3 1 1 1 1-5-1-1-2-7 1-3z"/><path fill="#7B7B7B" d="m247 72 1 4 1 3h2v3c2-1 2 1 2 3 3 3-2 3-3 0l-3-2v-8h-1v-3h1z"/><path fill="#131414" d="m224 64-1-4h10l1 2h2l2 1c2 1 1-1 2-1 1 3-1 4-2 6l-3 4v1l-1 1h-3l-5-3-1-1c-1 1-2 0-1-2v-4z"/><path fill="#A4A3A3" d="M239 68c1 1-1 4-2 4l-2 1v-1l3-4h2-1z"/><path fill="#CFCFCF" d="M181 130c2-3 2 2 2 4 3 4 5 7 4 12 2 3 4 8 2 12-3 3-3 3-5 1-1 0-3-2-3 0-1 1-4-1-3-3h-3c-2 0-3-1-4-3v-1s3 1 2-1l-2-1-2-4-2-3v-2c1-1 3 2 3 2 1 2-1 3 2 2s2-2 4-1 1 3 4 2c4-1 3-3 3-5l-2-4v-7z"/><path fill="#B7B7B7" d="M179 124h1c2 1 5 3 4 6l6 14v2l1 3c3 2 7 9 2 11-1 3-3 4-6 2l-3-3c2 0 4-2 4-3l1-4-3-7v-4l-4-7v-4h-1l-2-5v-1z"/><path fill="#C0C1C1" d="M170 119c1-1 2-1 1 1h6c2 1 5 3 3 4l-2-1h-4s0 4-1 3c-2 0-1-2-2-3l-3-3 2-1z"/><path fill="#EFEFEF" d="M180 83c2 0 0 4 0 4h-3c2 2-2 3-3 2v1c2 1 1 3 0 4-1 4 0 7 4 8v6l-3 2c-2 1-5 0-7-1h-2l-1-2-1-1-1-2-1-7v-3l2-3c0-2 2-1 3-1l1-1h4v-1c-1-2 4-4 5-4 0-1 2-3 3-2v1z"/><path fill="#C9C8C8" d="m174 95 2 4v1c1-1 3 0 2 1l1 1-1 5c3-1 3 5 2 5l-4-1h-5c-1 1-3 0-3-1v-1c2-2 4 2 5 1 2 0 2-2 3-2h1v-6l-3-1s0-4-3-3l2-1v-2h1z"/><path fill="#A2A2A1" d="M164 91c5 0 1 1 0 2l-1 2 1 1v1h1v2l2 2v3c-2 0-2-3-2-3s-2 1-1-1l-2-3-1-4 1-2h2z"/><path fill="#292A2A" d="m168 110 3 1 1 1h3v1c3 1 5-1 4 2-1 1 0-1-1-1h-7v-1h-2l-2-2 1-1z"/><path fill="#6C6D6E" d="M168 115c1 1 2-2 2-1v2l3 1c6 1 5-1 7 4-1 1-2 1-3-1h-6l-1-1-2-4z"/><path fill="#DBDBDB" d="M179 99c2 1 3 3 5 3 8 2 3-3 4-6l3-7c1-2-1-3-1-5l1-5 2-6h2s1-2 1 0c-2 0-2 4-1 5s3 0 4 2l1 4c1 2 5 2 7 2 2 1 0 1 0 1l2 1 3 6v3c0 1 2 2 1 4s-3 1-2 3 3-1 4-2l2-1c2-2 2-4 5-3v1l-5 6c0 2-1 3-3 5l3 1h1c0-2 1-3 2-2 3-5 6-5 8 0 2-1 3 0 3 1s-1 2-2 0h-5l-5 3-2 3-1 1c-1 5-5 11-9 4-5 3-13-2-15-6-1-2-2-5-4-6-4-1-6-2-7-6-1 1-1 1-1-1l-1-1v-2z"/><path fill="#0F0F0F" d="M236 90h2l2 1c2-1 5-2 6 0 2-1 4 0 4 2v1c1 2 2 5 0 6 0 3-1 6-4 4h-1c-1 0-2-1-2-4h-3c-1 0-2-1-1-2h-3c-1 2-8 1-5-1l-1-1c2 0 3-1 3-3 1-1 1-3 3-3z"/><path fill="#D4D4D4" d="m179 80 4-3c-2 2 0 2 0 2 1 3-2 3-2 4l1 3c1 3 0 10-4 9v-5h-1l1-2-1-1v-1h2v-1l1-2-1-1v-2z"/><path fill="#282828" d="M221 70h2l1 1h1c1 0 7 1 4 3 0 2-1 2-2 0h-2l-1-2-2 2-2-1-7-1c-1-1 1-2 2-2h3c0-2 3-2 3 0z"/><path fill="#585858" d="M231 87c1-3 5-1 2 1l-2 3v1c0 1-1 3 1 3 0-3 1-1 1-2v4s-2-1-2 1h-2l-5 3c-1 1-2 0-1-1-1-1 0-2 1-2 1-1 3-3 3-5l2-3 2-2c1 0 0 0 0 0v-1z"/><path fill="#B5B5B5" d="M224 97v1l-1 1-3 6-2 4c1 0 1 2-1 1l-1 1c-6-1-1-3 0-5v-2l4-3 2-3 2-1z"/><path fill="#B7B7B7" d="m224 73 3 1h2l2-1h3v1h-3v2l-4 3-1-1h-2l3-1-1-2-1 1c-3 1-1-1-2-2h-1l2-2z"/><path fill="#D5D6D6" d="M221 78v1c-1 1-1 2 1 2l1 1c-1 5-11-2-8-4h6z"/><path fill="#6F706F" d="M210 63h1v3c0 2-2 1-2 5v1h-1v-1c-3 0-4-2-2-3v-2l3-3h1z"/><path fill="#ABAAAA" d="m244 87 1 1c3 1 3-1 5-1 4 1 2 6-1 3h-6l-5 1v-1h-2v-1c2 0 2-1 2 1l2-1 4-1v-1z"/><path fill="#CACAC9" d="M174 89h3l1 1v6c-2 2-3 1-4-1v-4s-3 1-3-1l3-1z"/><path fill="#797978" d="M176 84c2-2 3-1 1 1 0 0 1 0 0 0l-2 1-3 2c-1 0-2 1-2-1h1v-1l5-3v1z"/><path fill="#9B9B9B" d="m215 68 3 2c1 1 0 0-1 1-2 0-3 0-3 2h-5v-1l5-3 1-1z"/><path fill="#ABABAB" d="m181 75-2 3-2 1h-2v1h-3c-2-2 2-3 3-1v-3h4l2-1z"/><path fill="#909090" d="M174 95h1c0-1-1-3 1-3 0 1-1 5 1 4v1l-1 3c-2 0-1 0-1-2l-1-3z"/><path fill="#969696" d="M224 78h1c3 2-3 2-4 1l4 1c1 2 0 2-2 2h-4v-3h2v-1h3z"/><path fill="#B5B4B4" d="M208 63h1l-2 3c0 1 1 2-1 2v3c1 0 3-1 2 1l-3-1c-1-1-2 1-2-3h3l-1-2c0-2 1-1 2-2h1v-1z"/><path fill="#A6A6A6" d="M231 87c0-4 5-3 4 0s-2 1-2 1v-1l-2 1v-1z"/><path fill="#C2C2C2" d="M214 61c-1 1-4 0-4 2h-2c0-3 3-3 5-3z"/><path fill="#474847" d="m178 97 1 2v2h-1l-2-1c0-2-1-3 1-3h1z"/><path fill="#A5A6A5" d="M179 80c2 0 1 1 1 3l-2 2c0-2-1-1-2-1l2-2h1v-2z"/><path fill="#464646" d="M226 78c1 0 2 0 1 1 0 1 1 1-1 1h-5v-1c2 0 5 1 4-1z"/><path fill="#99999A" d="M229 90c0 2 1 2-2 3v2c0 1-2 3-3 2v-1l4-3 1-3z"/><path fill="#959596" d="m231 92 1 3-2 1v-3l1-1z"/><path fill="#5C5D5D" d="M238 89v1h-2v-1h2z"/><path fill="#6E6F6F" d="M175 77v2c-2 0-3-1-3 1h-5c0-2 4 1 3-3h5z"/><path fill="#E1CC97" d="M171 161h1c1 2 2 2 3 1h1v2h4l1 2 2 1c1 0 0 0 0 0 0 2-1 3-3 1l-2-1c-1 2-6 2-4-1h-1l-2-1h-3l-2-1 2-2h2v-1h1z"/><path fill="#7F7F7F" d="M171 153c3-1 2 1 2 1l2 1 2 1 1 2c-2 1-5 0-6-1v4h-2v-6l1-2z"/><path fill="#575858" d="m251 114 2-2v-2c0-1-3-1-2-2l4-1s0 2 1 1-1-4 2-3c0 0-1 4 1 3v7l1 1v7c0 2 0 1 1 1v6l-2 1-1-5h-1l-1-1h-3v-1l-1-2-2-3c1-2 1-1 1 0 1-1 2 0 2 1 3 3 4 2 1-1-2-1-2-3-3-5z"/><path fill="#1B1C1C" d="m239 107 4 1h2l4 2 2 4 3 4 3 3-2 2c-1 1-1-1-1-1l-2-2-1-1-3-4-4-3-1 1c-7-1-13-1-19 3 0 1-3 2-4 1-1 2-4 1-2-1l1-1 2-2c0-1 1-2 2-1h4v-1h1l1-1h2c0-2 1-2 2-1l5-2h1z"/><path fill="#828383" d="M260 89c-3-2 5-2 2 0h-2c0 3 2 2 3 2v4l2 3-1 1c-2 1-3-1-3-2-2-1-1 1-1 1 0 1-2-2-3-1v3l1 1c1 2-1 1-2 1s-1 3-2 2c1-2-1-2-1-2v-2c-1-1-3-4-2-6-2-2 2-5 2-1 2 1 3 0 1-2-2-3 5-4 6-2z"/><path fill="#CCC" d="M245 104v2c0 1 5 2 0 2-4 1-4 0-6-1s0-2 2-1v-1c-4 0-4-4-1-5l3-1 2 4v1z"/><path fill="#4C4D4C" d="M251 95c0 4 2 2 2 4v1l-1 1h-1v4h-4l-1-1 4-1v-3l1-1v-4c0-2 0-2 1 0h-1z"/><path fill="#404040" d="M265 101c1 1-1 4-1 4v5c-1 2 1 0-1 0 1-1-1-1-1-2v-5h1v-2h2z"/><path fill="#383938" d="m254 75 3-1c-3-1-6 1-6-2h11l1 1h2c0 3-2 1-3 3h-1v1l-7-1v-1z"/><path fill="#929292" d="m251 48 2 1h4v-1l2 2h-7c-2 0 0-1-1-1h-8l1-1 7-1z"/><path fill="#9B9A9A" d="M251 79v-1l2 1h1c2 1 0 2 3 2 3 2 3 3 2 3v2c-1 2-5 0-6-2-2 0 0-1-1-1 0-1-3 1-2-3 1-3 1 0 1-1z"/><path fill="#737474" d="M254 75h4l4 1 1 3c1 0 3 2 0 1-3 0-3-3-3-3h-2l-1-1h-4l1-1z"/><path fill="#7F8080" d="M259 85c0-3 3-2 4-1h1v1c-1-1 0 0-1 1l-1 1h-3v-3z"/><path fill="#626363" d="m257 82 3 1h3v1c-1-1 0 1-1 1-1-1 0-3-2-1l-1 1c0-2-1-1-2-1v-2z"/><path fill="#4B4C4C" d="M248 76c2 0 2 1 1 3 0 2 1 3-1 3v-6z"/><path fill="#888989" d="m171 120 1-1c1-1 1 0 1 1l3-1c1-1 2 1 2 2h2v2c1 2 3 1 3 1v3h2v2l3 6v1h1l4 10c2 1 2 2 2 3 2 1 3 4 4 6l1 3 2 1h-5v-2l-3-5c-2-2-4-4-4-6-2-1 0-1-1-2l-2-4-4-10v-2l-4-4v-2h-2c-2-1-5 0-6-2-1-1 0 0 0 0z"/><path fill="#9B9B9B" d="m180 102 1 1 1 3c2 1 4 3 4 6l3 6c2 0 5 5 2 5l1-1 10 2c4 0 5 1 6 5 1 2 2 3 4 3h1c2 1 2 1 0 1-1 1-4 2-4 0-4 0-6-2-6-5-3 0-6 0-9-2-1 1-4-1-3-3-1 1-4-2-5-3 0-2-1-3-3-5-1 2-2 1-3-1v-2s-5 1-4-1h3v-3l-1-1 1-1 1-4z"/><path fill="#818282" d="m194 126 4 1c2 0 6-1 6 1l1 2 4 3h23l7-1v2h-11l-5 1h-7l-1-1h-6c-2 0 0-1-1-1h-3l-1-1c-2-1-1-3-1-3h-3l-6-2 1-1h-1z"/><path fill="#72716F" d="m190 136 1 2c2 3 2 7 5 9 2 2 1-1 0 2 3 0 2 1 2 2l5 3v1l1 1c0 2-2 1-1 3h-1c-4-1-2-1-2-3-1-2-1 0-2-1 0-1 1-1-1-3l-1-2h-1v-2l-2-1-2-8c0-2-2-1-1-3h-1z"/><path fill="#707171" d="M180 114c1 0 1 2 2 1l1-2c1-2 1 1 1 2l2 1c2 6 1 4 5 7l3 3v1l-6-3v-1l-2-2c-2-1 0 2-2 1 1-1-1-1-1-2v-1h-2v-2l-1-3z"/><path fill="#4E4E4B" d="m200 148 3 3h1v2s5-1 3 4h-3l2-1c-1-3-6-5-6-8z"/><path fill="#464746" d="M236 181h2v2h-1c1-1-1 0-1-2z"/><path fill="#8A8564" d="M236 183c0 2-1 1-3 1l3-1z"/><path fill="#9C9B98" d="M190 145c2 1 1 1 2 3 0 2 3 3 3 3l2 5c1 2 2 0 1 2l-1 1v2l-1 3c-2 2-3 2-5 1h-1l-3-3h1l4-1v-1l2-2c1-2-1-3-1-5-2-2-3-5-3-7v-1z"/><path fill="#817E77" d="M197 161v5l1 1v3c0 1 1 2-1 1h-1l-6-6 2-1 1 1 3-2c0-1-1-2 1-2z"/><path fill="#F1D985" d="m235 185-1 4c-2 1 0-2-1-3l2-1z"/><path fill="#141515" d="M238 113h6c2 0 6 2 5 4 1 4-1 2-2 3 0 0 0 2-2 2l-1-1h-8l-1-1-2-1-2-3v-2l3-1h4z"/><path fill="#6C6D6D" d="M245 121v2h2l2 1 2 2v2h2l1 2c1 2-3 3-4 3l-3-3 1-2h-3v3l-1 1-1-4c-1-1-1-2 1-3v-4l1 1v-1z"/><path fill="#878787" d="M244 112c2 1 4 1 5 3 3 1 2 3 2 4h-1v-2c-2 0-2-1-2-2h-1l-1-1h-6c-1 0-2 1-2-1h6v-1z"/><path fill="#575858" d="M262 132c-1 1 0 2-2 1 0-1 0-2 2-1z"/><path fill="#909090" d="M244 121v5l-1 1 1 1v5h-2l-3 1h-7c-3-2 3-3 3-2h1c1-2 2-4 5-5v-2l2-2v-2h1z"/><path fill="#F0D67D" d="m320 151-2 2v1l-3 1 3-4h2z"/><path fill="#F3EAB7" d="M106 181c0 1-1 3-2 1s1-2 1-1z"/><path fill="#F5E79C" d="m122 187 2 2c1 3-2 2-2 5 2 1 2-1 2-1 1-1 3-1 2-4s-3-2 0-3 1 2 3 2 2-2 4-1c0 0-2 3 1 2 2-1 0-1 0-1l2 1c0-3 3-2 3-2l-1-4c3 0 2 2 2 2l2 1h-2l1 2c1 3 0 2-1 3v1l-1 2-4 3v5c0 3 2 4 2 4v5c1 2 3 1 3 2 1 3 1 5 3 7l4 3 1 2h9l1-1 1-1h8c0-1 0-2 2-2l4-2 1 2c0 2 2 0 1 4l1-3h2v-3c0-1 4-2 5 0 1 3-2 4-3 5l-1 5c-2 0-1-2-1-3h-4v4c-3 0-4-2-7-1 0 2 2 2 2 3 1 2-1 3-3 3 1-1 1-4-1-4s-1 4-3 5c-3 2-2 0-4-1l-12-4c-4-2-2-3-3-1 0 2 1 2 2 3l3 3c2 1 5-2 8 1 3 2 2 4 4 4 2-1 1-2 3-2l5 2c-2-1-3 0-4 1h-17l-1-1-8-2v-2l-4-2-3-2-3-2v-1l-2-2c-3-4-4-8-5-13-2-5-2 0-1-2 0-1 1 1 1-1s-2-1-1-2l1-2-1-1c-1-5 0-13 1-17s1-3 2-3h-1z"/><path fill="#E5C675" d="M173 166h1c1 1-1 3 3 2s0-1 1-1l3 1h1l1-1 2 1v4l2 1-3 4-1-1-2 4c-1 1 0-1-1-1-2 0-2 2-3 3h2l-1 1h-3v-1h-3c0-1 2-1 1-2l-4-1s3-2 2-4c-1-1-3 0-3-2s1 0 1 0l1-2c1 0 4 1 1-2-2 1-2 3-4 1-3-1-1 0-1-1h3v-1h2l2-3v1z"/><path fill="#F4EDBB" d="M46 199v4l1 2 1 2h-1c-2 0-2-4-2-6 1-2 0-2 2-2h-1z"/><path fill="#8D8A80" d="m71 205 2-1h4v3c-1 1 0-1-1-2h-5z"/><path fill="#978E72" d="M67 205c1 2-3 1-5 1l5-1z"/><path fill="#B5A684" d="M51 207c1 2-2 1-4 1v-1h4z"/><path fill="#A7997B" d="M46 202c2 0 1 2 1 3-1 1-1-1-1-3z"/><path fill="#898367" d="M70 225v2h-6v-2h6z"/><path fill="#696152" d="M118 198v8c-2 0-2 1-2-1v-6l1-1z"/><path fill="#F5E69B" d="M60 208h13l2 2v9c-1 2-2 0-2 1l-4 3-8 1-2 1h-7v1h-2l-1 1-1 1v12c-6-1-1-3-1-6-2-2-1-3-4-2 0-3 1-2 2-3l2-4c2 1 1 0 2-1l2-1 1-2 2-1c2 2-2 2-2 3 1 1 2-1 3-1l5 1v-2h-2c-1 0-3-3-1-3l1-1-2-5c2 0 3 2 4 1l1-4-1-1z"/><path fill="#EFE4AA" d="M48 228v7l-1-2v-5h1z"/><path fill="#C9C8C9" d="m59 53 8 1v1l-2 1-2-2c-1 0-4 1-4-1z"/><path fill="#E9C771" d="M137 303c-1 1-3 0-2-2s3 2 2 2z"/><path fill="#E3C781" d="m139 316-2 2v-2h2z"/><path fill="#605A4C" d="M182 288c1 1-2 0-3 1-1-2 2-1 3-1z"/><path fill="#6F634A" d="M190 287c1 1-2 0-3 1 0-2 2-1 3-1z"/><path fill="#AAA48A" d="m147 242 3 1c-1 0-3 1-3-1z"/><path fill="#797456" d="M166 242c0 2-2 1-3 1l2-1z"/><path fill="#8C816E" d="M139 240c1 0 3 0 2 1h-2v-1z"/><path fill="#E9D594" d="m212 293 2-1c0 3 2 3 2 3l1 4-2 1v2l-2 2v-2s-2 1-1-1c1-3 3-1 2-4 0-3-2-1-2-1v-3z"/><path fill="#0C0C0C" d="M142 192c2 1 2 3 0 4 0 2 8 7 10 8l2-1h1v4c2 1 2 5 0 6h8l4-1h4c2 0 2 1 2 2l1 2c1 1-1 3-1 2-1 2-6 5-8 3l-2 1c-1 1-2 2-4 1-2 1-7 0-10-1s-4-3-4-4c-2-1-3-4-4-6s-1 0-1 0c-1-2-2-14-1-16 0-3 1-1 1-1v-2s1 1 2-1z"/><path fill="#EFDC91" d="M179 194c0 2 1 1 2 1h6l1-1c4 0 4 0 5 4v6c-1 2-3 0-3-2l-1-1c1 4-2 5-7 5l-6 2c-1 1-2 2-3 1 0 3-6 3-7 1l-5-1c-3 2-7-1-4-4-1-2-3-5-1-7l11-1-2-1c-2-1 2-2 3-2h11z"/><path fill="#383938" d="M154 197c1-2 2-1 4-1 1-1 0-1-1-1l-4-4c-1-1-2-1-1-2h2c6-2 12-1 18-2l3-1c3 0 1 1 1 1 1 1-2 1-1 2h2c1 4 0 2-2 3v1h-5l-1 1h6c0 2-1 1-2 1h-6l-2 1-8 2-3-1z"/><path fill="#EEE4AF" d="M166 196h5c-1 2-4 1-7 1l-1 1c-2 1-8-1-6 4l1 3-1 3 3 1 2-2c1 3 3 2 4 2l2 1c3 1 3 0 5-1 3-1 9 8 3 8l-3 2v-1l1-1v-3l-3-2h-4l-4 1h-4c0 2-3 1-4 0v-5l-1-5v-6h11v-1z"/><path fill="#3D3C39" d="m142 192 8 3c2 1 0 1 0 1h2c0 1-1 3 2 2v5l-3 2-6-4-4-5c1-2 2-2 1-4z"/><path fill="#867B5D" d="M164 182c2 0 5 0 4 1-1 0-4 1-4-1z"/><path fill="#F0EABF" d="m173 219-4 3h-1l-1 2h-9l-9-1c-4-1-1-1-2-2h-2s-2-3 0-3l7 4h3c1 0 0 2 3 1s0-1 1-1h4l2-1c3 0 6-2 8-3v1z"/><path fill="#A9A8A8" d="M172 157h3l1 1c1 0 2 0 1-1l4 2 1 2c-2 1-2 0-3-1l-3-2-1 4c-1 2-3-2-3-2v-4 1z"/><path fill="#F5E79C" d="m173 209 2-2h3l4-3c4-1 8 3 6-4l3 1c1 1-1 3 2 2l1 4-1 1c-1 0-2-3-5-1-2 1-1 6-4 6-2 0-2-2-3-2-2 0-3 1-1 1s4 1 3 3-6 2-7 2l2-1c0-3-2-6-5-7z"/><path fill="#D0D0D0" d="M214 67v-3l4-1 1 1 1-1c1 1 0 2 2 1l1 2h-1c-1 2-4 1-5 0l-2 1h-1z"/><path fill="#4C4C4C" d="M214 67h1v1l-1 1c-1 2-3 2-5 3v-1c3 0 3-2 3-3l3-1h-1z"/><path fill="#4D4E4E" d="M224 64c1 1 2 0 2 3-1 3-2 0-2 1h-1l-1-2h1l1-2z"/><path fill="#666767" d="M250 85h1c1 0 2 4 2-1l6 2c2 0 2 2 4 1l1 1-1 1-3-1v1h-5c-1 1 1 2 1 3v2c0 1 2 0 1 2l-2-1c-2-1-3 1-3-3l-1 3h-1v-2l-1-3c4 1 2-1 1-3v-3z"/><path fill="#585959" d="m226 70 3 1c1 1 2 1 2 3l-2 1c1-3 0-2-1-3h-4v-1l1-1z"/><path fill="#5F6060" d="M238 68v2l-3 2 1-4h2z"/><path fill="#A0A09F" d="m224 68 1 2c1 1 0 1-1 1h-3v-1l2-2h1z"/><path fill="#686867" d="M178 87c4 0 0 2 0 3-2 0-4 1-4-1l1-1c2 0 2 1 3-1z"/><path fill="#C9C8C8" d="M176 104c0 2 0 3-2 3-2-1 0-1 0-1 0-1-2-1-1-2h3z"/><path fill="#6F6F6E" d="m179 101 1 1v1c-2 1 1 4-1 4v-6h1-1z"/><path fill="#BCBBBC" d="m181 103 4 4 4 1c3 2 3 6 4 8 2 2 9 5 12 5l3-1c2 1 3 4 4 3l1-1 2-3v-1c1-2-1-2 2-2l1 1v2l4 1c1 0 2 1 1 2 2 1-1 3-2 1 0 1-1 2-3 1l-4 4c-2 2 7 3 8 3l1 2-9-1h-2c-3 0-4-2-3-5l-1-2-15-3-4-4-3-6-2-3c-1-2-2-1-3-2v-4z"/><path fill="#F4F4F5" d="m224 100 1-1c2-1 3-4 6-1l1 1h7l1 1v4h2v2c1 1 2 0 1 2-1 0-3-3-3 0h-2l-5 1-2 1-2-1-4-3c-2 0-3 3-4 3l-2 1v1c0 1-2 1-2-1l1-1v-1l6-8z"/><path fill="#C1C0C0" d="M206 88h2c2 2 5 7 1 7-5 0-3-2-4-2h-3l-1-2-2-1c-1-3 3-1 4-1 1-1 2-2 3-1z"/><path fill="#939392" d="m219 113 1-2h2c1-1 1-2 4-2 3 1 0 2 3 1 1 2-1 1-2 1v1h-4l-2 1h-2z"/><path fill="#A2A1A1" d="M219 113c2 0 1 1 0 2 0 0 0 2-1 1 0 2 0 1-1 0v-2l2-1z"/><path fill="#464646" d="m238 90 3-1h4l2 1 1-1c2 0 1 1 1 1l1 3-2-2h-2c-1 0 0-2-1-1l-1 1-1-1c-2 1-1 2-3 2l-2-2z"/><path fill="#939493" d="m236 98 3-1v1h-3z"/><path fill="#E2E1E2" d="M217 67c1-1 5 0 6 1v2h-8v-2l2-1z"/><path fill="#686969" d="M224 73h2c1 1 2 0 1 1h-3v-1z"/><path fill="#7F7F7F" d="M223 99c0 1 0 2 1 1l-5 7-1 2c-2-1 0-2 0-3l3-4 2-2v-1z"/><path fill="#6A675E" d="m172 157 1 3 1 1c1 1-1 1 1 1 0 2-1 2-2 1l-2-2v-5h1v1z"/><path fill="#EBECEC" d="M244 112v1h-10l-3 1-2 2c-1 2-2 3-4 3 1 1-2 3-3 1l-3 1-1-1c-1-1-1-2 2-3l3-1 1-1c6-4 12-4 20-3z"/><path fill="#737474" d="M218 116s0 2 2 1v2s-2-1-2 1c0-1-2 1-2-2l1-2h1z"/><path fill="#CCC" d="M238 108c1 1 0 0-2 1l-3 1c0-2 1-1 2-1v-1h3v-1z"/><path fill="#5A5A5B" d="M227 111v1h-4v-1h4zm-6 2-2 2v-2h2z"/><path fill="#ADADAD" d="m186 112 5 7 2 2c3 2 14 2 15 4 2 1 1 5 1 6 1 2 2 0 2 2-5-1-4-7-6-7l-3-1-5-1-2-1v1c-1 1 0-1-1-1h-3v-3h-3v-4c0-1-3-2-2-4zm42 19c3-3 9-5 8 1v1h-23v-1h8c2 0 1 1 1-1h7-1z"/><path fill="#EDEEEF" d="m235 119 8 2v1l-2 2c-2 2-4 2-7 2l-6 4h-1c-4 3-13-3-6-7 3 0 2 0 2-1h1l3-1h1l4-1c-1-2 2-2 3-1z"/><path fill="#888989" d="M231 116c2 0 2 2 2 3 1 0 2-1 2 1-1 0-3-1-4 1l-4 1-3 1h-1l-1-2 3-2 3-1c1 0 3 0 3-2z"/><path fill="#B3B3B3" d="M231 114v4h-3c-1 1-2 3-3 1l2-2c1-1 2-3 4-3z"/><path fill="#A3A2A2" d="M234 113c0 2-1 1-3 1v-1h3z"/><path fill="#CBCBCB" d="M241 124v1c1 2 3 1 0 3l-5 3c-2 1-1-2-1-2h-3l-4 2c0-2 4-5 6-6h4l3-1z"/><path fill="#C0BFC0" d="M243 122v3h-2v-3h2z"/><path fill="#F1DA8F" d="m62 213 1 3c-3 0-4-4-1-3zm3-2v2h-2l2-2z"/><path fill="#5F533B" d="M171 212h4v4h-1l-2-1v-2l-1-1z"/><path fill="#706D5D" d="M159 213c1 2-2 1-3 1-1 1-1 0-1-1h4z"/><path fill="#817B64" d="M154 203c2-1 1 3 1 4-1 1 0-2-1-4 0-1 0 0 0 0z"/><path fill="#8D856A" d="M167 212c1 2-2 1-4 1 0-2 3-1 4-1z"/><path fill="#9C977F" d="M166 221c0 2-2 1-3 1l2-1z"/><path fill="#797979" d="m222 66 1 2-6-1v-1h5z"/><path fill="#959595" d="M217 66v1c0 1 1 1-2 1v-1l2-1z"/><path fill="#D7D7D7" d="m221 123-2 4c1 1 2 3 4 3l4 1v1h-5c-2 0-9 0-9-3 0-2 1-1 2-2l2-4h4z"/><path fill="#BCBBBC" d="M231 121v1h-4c0-2 3-1 4-1zm-5 0c1 2-1 1-2 1l2-1z"/></svg>