<svg width="2000" height="2002" viewBox="0 0 2000 2002" fill="none" xmlns="http://www.w3.org/2000/svg">
<path d="M2000 1000.41C2000 1552.69 1552.28 2000.41 1000 2000.41C447.716 2000.41 0 1552.69 0 1000.41C0 448.126 447.716 0.413086 1000 0.413086C1552.28 0.413086 2000 448.126 2000 1000.41Z" fill="black"/>
<path d="M627.327 326.172L877.669 393.312L946.913 545.792C962.267 576.538 978.245 616.07 978.245 672.544V1058.76C978.245 1103.63 976.805 1128.85 948.481 1190.85L779.601 1562.32L492.913 1672.76L814.379 963.07C825.345 941.422 815.945 923.224 797.147 923.224H681.217L549.309 1212.81L262.309 1323.25L489.465 823.454C505.759 786.746 515.785 778.902 562.155 778.902H793.699C806.755 779.112 829.419 771.876 815.633 741.254C801.847 710.632 684.351 451.774 627.327 326.172Z" fill="white"/>
<path d="M1374.61 326.172L1124.27 393.312L1055.02 545.792C1039.67 576.538 1023.69 616.07 1023.69 672.544V1058.76C1023.69 1103.63 1025.13 1128.85 1053.46 1190.85L1222.34 1562.32L1509.02 1672.76L1187.56 963.07C1176.59 941.422 1185.99 923.224 1204.79 923.224H1320.72L1452.63 1212.81L1739.63 1323.25L1512.47 823.454C1496.18 786.746 1486.15 778.902 1439.78 778.902H1208.24C1195.18 779.112 1172.52 771.876 1186.3 741.254C1200.09 710.632 1317.58 451.774 1374.61 326.172Z" fill="white"/>
</svg>
