<svg width="32" height="32" viewBox="0 0 32 32" fill="none" xmlns="http://www.w3.org/2000/svg">
<path fill-rule="evenodd" clip-rule="evenodd" d="M32 15.9999C32 13.9058 31.5834 11.8117 30.7821 9.877C29.9805 7.94228 28.7942 6.16692 27.3136 4.68628C25.833 3.20532 24.0576 2.0194 22.1229 1.2178C20.1882 0.416518 18.0941 -0.00012207 16 -0.00012207C13.9059 -0.00012207 11.8115 0.416518 9.8768 1.2178C7.94208 2.0194 6.16704 3.20532 4.68608 4.68628C3.20544 6.16692 2.0192 7.94228 1.21792 9.877C0.41632 11.8117 0 13.9058 0 15.9999C0 18.094 0.41632 20.188 1.21792 22.1228C2.0192 24.0575 3.20544 25.8328 4.68608 27.3138C6.16704 28.7944 7.94208 29.9807 9.8768 30.782C11.8115 31.5832 13.9059 31.9999 16 31.9999C18.0941 31.9999 20.1882 31.5832 22.1229 30.782C24.0576 29.9807 25.833 28.7944 27.3136 27.3138C28.7942 25.8328 29.9805 24.0575 30.7821 22.1228C31.5834 20.188 32 18.094 32 15.9999Z" fill="white"/>
<path fill-rule="evenodd" clip-rule="evenodd" d="M11.8547 3.38356C13.3453 2.89364 14.9382 2.66964 16.5161 2.73012C18.0944 2.7906 19.6579 3.13588 21.1129 3.74388C22.5683 4.35188 23.9152 5.22292 25.0675 6.29748C26.5917 7.71924 27.775 9.49748 28.4848 11.4866C29.1949 13.476 29.4314 15.6764 29.1574 17.7711C28.8838 19.8658 28.0998 21.8552 26.9139 23.566C25.728 25.2767 24.1398 26.7084 22.2745 27.7004C20.4093 28.692 18.2662 29.2437 16.1539 29.2757C14.0416 29.3077 11.9597 28.8204 10.095 27.8949C8.23071 26.9695 6.58335 25.6063 5.33247 23.9036C4.08159 22.2008 3.22719 20.1586 2.88799 18.0748C2.54879 15.9906 2.72479 13.8645 3.37471 11.8812C3.86591 10.3816 4.62815 8.96404 5.60479 7.73556H4.12031V5.2818H9.93695V10.7135H7.48319V9.22932C6.68319 10.2354 6.05855 11.3967 5.65631 12.6255C5.12415 14.2511 4.98079 15.9951 5.25631 17.6968C5.59871 19.8136 6.58879 21.8648 8.06655 23.4456C9.83423 25.3362 12.2995 26.5541 14.8659 26.8207C17.432 27.0872 20.0992 26.4028 22.2173 24.9285C24.3354 23.4543 25.905 21.1903 26.5421 18.6898C27.1792 16.1893 26.8838 13.4524 25.735 11.142C24.5862 8.83156 22.5837 6.94836 20.1891 5.95892C17.7945 4.96916 15.0077 4.87381 12.6038 5.66356L11.8547 3.38356Z" fill="#0657F9"/>
<path fill-rule="evenodd" clip-rule="evenodd" d="M17.5403 16.2223C17.271 16.2353 17.0012 16.2446 16.7314 16.2517C16.7507 16.375 16.7686 16.4985 16.7853 16.6223C16.8213 16.8916 16.8517 17.1614 16.8774 17.432C16.8948 17.6133 16.9105 17.7947 16.9235 17.9765C16.936 18.1556 16.9451 18.335 16.9505 18.5147C16.9617 18.9033 16.9554 19.2925 16.9389 19.6809C16.924 20.036 16.9007 20.3906 16.8723 20.745C18.0239 20.2308 18.9018 20.0364 19.5568 19.8913L19.5663 19.8892C20.6237 19.6547 21.0969 19.5466 21.5118 19.4422C21.9265 19.3378 22.2825 19.2371 22.5786 19.116C22.8746 18.9952 23.1106 18.8538 23.2961 18.6796C23.4816 18.5053 23.6169 18.298 23.7365 18.0027C23.8559 17.7074 23.9595 17.3241 24.0188 16.9004C24.0781 16.4767 24.0933 16.0126 24.0482 15.6442C24.0031 15.2761 23.898 15.0041 23.7799 14.7299C23.662 14.4557 23.5314 14.1792 23.3351 13.8832C23.139 13.5872 22.8776 13.2718 22.508 12.9314C22.1384 12.591 21.6606 12.2258 21.0962 11.8781C20.5321 11.5301 19.8814 11.1995 19.0744 10.8518C18.2677 10.5038 17.3043 10.1386 16.4682 9.89086C15.632 9.64286 14.9228 9.51224 14.3016 9.48577C13.6801 9.45955 13.1466 9.53773 12.6841 9.72103C12.2219 9.90434 11.8303 10.1928 11.4902 10.5239C11.1498 10.8547 10.8606 11.2282 10.6195 11.6399C10.3783 12.0516 10.1852 12.5015 10.0409 13.0076C9.89654 13.5136 9.80121 14.0756 9.75416 15.0134C9.70686 15.9515 9.70784 17.2653 9.93232 18.5134C10.1568 19.7615 10.6045 20.9437 11.0613 21.7588C11.5179 22.5741 11.9833 23.0221 12.3705 23.3142C12.7574 23.6063 13.0662 23.7426 13.3755 23.8122C13.6847 23.8815 13.9942 23.8847 14.2805 23.8051C14.5667 23.7254 14.8297 23.5632 15.0573 23.3534C15.285 23.1439 15.4771 22.8868 15.6501 22.5879C15.8229 22.2889 15.9761 21.9477 16.0986 21.5993C16.164 21.4128 16.2207 21.2243 16.2692 21.0322C16.3076 20.879 16.3405 20.7244 16.3684 20.569C16.4005 20.3887 16.4255 20.2068 16.4439 20.0245C16.462 19.8446 16.4738 19.6642 16.4816 19.4839C16.4895 19.3023 16.4934 19.1207 16.4946 18.9389C16.4978 18.5134 16.4888 18.0875 16.4667 17.6626C16.4569 17.4722 16.4439 17.2817 16.4272 17.0918C16.403 16.8137 16.3699 16.5363 16.3287 16.2601C16.2932 16.0226 16.2523 15.7856 16.2059 15.5499C16.1236 15.1308 16.0244 14.7137 15.8935 14.3074C15.856 14.1912 15.8158 14.0763 15.7746 13.9616C15.7396 13.8641 15.7041 13.7666 15.6685 13.6691C15.6441 13.6023 15.6197 13.5354 15.5955 13.4685C15.5739 13.4051 15.5538 13.3409 15.5377 13.2759C15.5225 13.2142 15.51 13.1512 15.5078 13.0875C15.5073 13.0703 15.5075 13.0532 15.509 13.036C15.5102 13.0189 15.5129 13.0017 15.5173 12.985C15.5215 12.9684 15.5276 12.9522 15.5355 12.937C15.5433 12.9223 15.5531 12.9083 15.5644 12.8958C15.5886 12.8689 15.6195 12.8476 15.6511 12.8292C15.697 12.8025 15.7472 12.7831 15.7987 12.7694C15.9094 12.7402 16.0266 12.7358 16.1413 12.7397C16.2594 12.7439 16.3772 12.7574 16.4941 12.7743C16.6716 12.7998 16.848 12.8338 17.0235 12.8711C17.2021 12.9088 17.3803 12.9505 17.5575 12.9946C17.8278 13.062 18.0964 13.1355 18.3628 13.2169C18.7794 13.3445 19.1898 13.4953 19.5888 13.6705C19.8621 13.7903 20.1311 13.9209 20.3929 14.0643C20.5693 14.1611 20.7428 14.2635 20.9099 14.3755C21.0227 14.451 21.133 14.5307 21.2366 14.6181C21.3062 14.677 21.3731 14.7397 21.4314 14.8095C21.4479 14.8291 21.4633 14.8495 21.478 14.8703C21.4925 14.8914 21.5059 14.9132 21.5177 14.9357C21.5295 14.9585 21.5398 14.9823 21.5471 15.0068C21.5545 15.0311 21.5591 15.0566 21.5599 15.0818C21.5606 15.1066 21.5576 15.1318 21.5513 15.1558C21.5447 15.1793 21.5349 15.2019 21.5226 15.223C21.4956 15.2688 21.4574 15.3082 21.417 15.3428C21.3557 15.3952 21.2869 15.4386 21.2168 15.4781C21.1501 15.5156 21.0812 15.5499 21.0109 15.5798C20.9408 15.6094 20.8695 15.6356 20.7977 15.6606C20.7239 15.6861 20.6499 15.7104 20.5759 15.7339C20.4647 15.7692 20.3529 15.8033 20.2409 15.8368C20.1289 15.8702 20.0164 15.9035 19.9032 15.9329C19.7358 15.9763 19.5663 16.0118 19.3959 16.0417C19.2222 16.0719 19.0477 16.0966 18.8725 16.1174C18.6951 16.1385 18.5171 16.1559 18.3392 16.1709C18.0733 16.1929 17.8069 16.2093 17.5403 16.2223ZM12.9985 16.7975C13.1224 16.7551 13.2583 16.7503 13.3809 16.7709C13.5036 16.7914 13.6129 16.8376 13.738 16.9159C13.8631 16.9944 14.0042 17.1049 14.1623 17.318C14.3205 17.5311 14.4959 17.8469 14.6244 18.1732C14.7532 18.4996 14.8353 18.8364 14.8781 19.2032C14.921 19.5699 14.9247 19.9665 14.891 20.2948C14.8576 20.6228 14.7866 20.8828 14.7015 21.0817C14.6163 21.2806 14.5169 21.4186 14.3921 21.5285C14.267 21.6386 14.1167 21.7207 13.9407 21.7442C13.7647 21.768 13.5634 21.7331 13.3917 21.6672C13.2197 21.6013 13.0776 21.5042 12.9349 21.355C12.7921 21.2057 12.6488 21.0042 12.5202 20.7603C12.3915 20.5162 12.2773 20.2297 12.2046 19.9383C12.1318 19.647 12.1001 19.3508 12.0843 19.0738C12.0685 18.797 12.0685 18.5397 12.1074 18.2691C12.1462 17.9982 12.224 17.7141 12.3211 17.5004C12.4183 17.2867 12.5348 17.1436 12.6488 17.0319C12.7629 16.9202 12.8747 16.8401 12.9985 16.7975Z" fill="black"/>
</svg>
