<svg width="241" height="240" viewBox="0 0 241 240" fill="none" xmlns="http://www.w3.org/2000/svg">
<g clip-path="url(#clip0_55_682)">
<circle cx="120.75" cy="120" r="120" fill="#262626"/>
<path d="M120.75 213C172.288 213 213.75 171.538 213.75 120C213.75 68.4622 172.288 27 120.75 27C69.2122 27 27.75 68.4622 27.75 120C27.75 171.538 69.2122 213 120.75 213Z" fill="white"/>
<path d="M175.59 69.4535L170.81 74.2331C182.223 86.716 188.552 103.018 188.552 119.932C188.552 136.846 182.223 153.147 170.81 165.63L175.59 170.41C188.277 156.642 195.32 138.605 195.32 119.882C195.32 101.16 188.277 83.1226 175.59 69.3545V69.4535Z" fill="#5A5564"/>
<path d="M74.9919 69.87C87.474 58.4554 103.776 52.1254 120.69 52.1254C137.605 52.1254 153.907 58.4554 166.389 69.87L171.169 65.0903C157.4 52.3964 139.358 45.3489 120.631 45.3489C101.903 45.3489 83.8616 52.3964 70.0927 65.0903L74.9919 69.87Z" fill="#5A5564"/>
<path d="M70.5127 165.699C59.1109 153.22 52.7888 136.927 52.7888 120.024C52.7888 103.121 59.1109 86.8284 70.5127 74.3494L65.733 69.5697C53.0391 83.3386 45.9916 101.38 45.9916 120.108C45.9916 138.835 53.0391 156.877 65.733 170.646L70.5127 165.699Z" fill="#5A5564"/>
<path d="M166.341 170.099C153.859 181.514 137.557 187.844 120.643 187.844C103.728 187.844 87.4261 181.514 74.944 170.099L70.1643 174.879C83.9332 187.573 101.975 194.62 120.702 194.62C139.43 194.62 157.471 187.573 171.24 174.879L166.341 170.099Z" fill="#5A5564"/>
<path d="M150.841 104.038C149.886 94.0585 141.282 90.723 130.385 89.6988V75.9436H121.959V89.4325H115.236V75.9436H106.882V89.7841H89.8121V98.7835C89.8121 98.7835 96.0291 98.6708 95.9335 98.7835C97.0539 98.6612 98.178 98.9781 99.0694 99.6677C99.9609 100.357 100.55 101.366 100.713 102.481V140.377C100.661 141.17 100.295 141.91 99.6971 142.433C99.0991 142.957 98.3176 143.222 97.5244 143.169C97.6371 143.265 91.4031 143.169 91.4031 143.169L89.8087 153.231H106.725V167.293H115.131V153.435H121.86V167.228H130.296V153.326C144.519 152.462 154.436 148.956 155.679 135.641C156.683 124.928 151.644 120.142 143.593 118.23C148.499 115.806 151.528 111.34 150.841 104.038ZM139.029 133.982C139.029 144.443 121.109 143.248 115.4 143.248V124.689C121.122 124.703 139.029 123.061 139.029 133.982ZM135.137 107.834C135.137 117.393 120.18 116.236 115.428 116.236V99.3673C120.18 99.3673 135.137 97.8685 135.137 107.834Z" fill="#F09242"/>
<path d="M120.627 207.107C72.52 207.097 33.5352 168.088 33.5352 119.985C33.5352 71.8809 72.5508 32.8926 120.658 32.8926C168.765 32.8926 207.74 71.8877 207.75 119.985C207.76 168.082 168.765 207.097 120.658 207.107H120.627ZM120.627 39.6865C76.296 39.7207 40.3974 75.6841 40.4247 120.015C40.452 164.347 76.4223 200.245 120.754 200.218C165.085 200.191 200.939 164.275 200.956 119.988C200.973 75.7012 165.051 39.7207 120.723 39.6865H120.627Z" fill="#282138"/>
<g filter="url(#filter0_d_55_682)">
<circle cx="167.75" cy="175" r="40" fill="white"/>
<path d="M168 215.25C190.091 215.25 208 197.341 208 175.25C208 153.158 190.091 135.25 168 135.25C145.908 135.25 128 153.158 128 175.25C128 197.341 145.908 215.25 168 215.25Z" fill="#0A0A0A"/>
<path d="M177.056 179.719C180.649 177.636 183.065 173.746 183.065 169.291V164.18C183.065 155.91 176.364 149.205 168.094 149.205C159.825 149.205 153.12 155.91 153.12 164.18V169.657H162.248V170.013C161.14 170.289 160.092 170.718 159.13 171.281C155.536 173.364 153.12 177.254 153.12 181.709V186.82C153.12 195.089 159.822 201.795 168.091 201.795C176.36 201.795 183.065 195.089 183.065 186.82V181.343H173.938V180.987C175.046 180.711 176.094 180.282 177.056 179.719ZM171.016 188.647C171.016 190.261 169.708 191.569 168.094 191.569C166.481 191.569 165.173 190.261 165.173 188.647V162.353C165.173 160.739 166.481 159.431 168.094 159.431C169.708 159.431 171.016 160.739 171.016 162.353V188.647Z" fill="white"/>
</g>
</g>
<defs>
<filter id="filter0_d_55_682" x="115.75" y="135" width="104.25" height="104.25" filterUnits="userSpaceOnUse" color-interpolation-filters="sRGB">
<feFlood flood-opacity="0" result="BackgroundImageFix"/>
<feColorMatrix in="SourceAlpha" type="matrix" values="0 0 0 0 0 0 0 0 0 0 0 0 0 0 0 0 0 0 127 0" result="hardAlpha"/>
<feOffset dy="12"/>
<feGaussianBlur stdDeviation="6"/>
<feComposite in2="hardAlpha" operator="out"/>
<feColorMatrix type="matrix" values="0 0 0 0 0 0 0 0 0 0 0 0 0 0 0 0 0 0 0.15 0"/>
<feBlend mode="normal" in2="BackgroundImageFix" result="effect1_dropShadow_55_682"/>
<feBlend mode="normal" in="SourceGraphic" in2="effect1_dropShadow_55_682" result="shape"/>
</filter>
<clipPath id="clip0_55_682">
<rect width="240" height="240" fill="white" transform="translate(0.75)"/>
</clipPath>
</defs>
</svg>
