<svg width="320" height="320" viewBox="0 0 320 320" fill="none" xmlns="http://www.w3.org/2000/svg">
<rect width="320" height="320" rx="160" fill="black"/>
<path d="M160.01 254.436L119.637 180.307L89.0176 236.031L47.0757 142.451L92.2851 88.5291L119.707 138.888L160.01 65.5547L200.303 138.897L227.725 88.539L272.924 142.461L230.982 236.041L200.363 180.317L159.99 254.446L160.01 254.436ZM130.999 159.622L160.01 212.887L189.021 159.622L160.01 106.825L130.999 159.622ZM70.3061 145.696L90.8251 191.476L108.345 159.582L88.7792 123.658L70.3061 145.696ZM211.665 159.582L229.185 191.476L249.704 145.696L231.231 123.658L211.665 159.582Z" fill="#11F10C"/>
</svg>
