<svg xmlns="http://www.w3.org/2000/svg" viewBox="0 0 600 600">
    <circle cx="300" cy="300" r="300" fill="white" stroke="#D3B15A" stroke-width="10" />

    <g transform="matrix(8,0,0,8,94.5,140)">
        <path fill="#D3B15A" d="M38.644 18.51c-.788-.357-1.707-1.128-5.837-1.558l1.59 3.174c-.437.089-.919.163-1.43.237a47 47 0 0 1-4.29.4l-2.947-6.54h-.073l-1.08 2.432-.628 1.424-1.196 2.685a46 46 0 0 1-4.261-.4c-.511-.075-.992-.15-1.43-.238l.817-1.646.744-1.513c-4.115.43-5.034 1.201-5.808 1.557-.627.282-1.094.593-1.386.92.7.786 2.495 1.483 4.961 1.987.584.119 1.212.237 1.883.326a56.267 56.267 0 0 0 7.457.504c1.24 0 2.422-.03 3.56-.103 1.372-.09 2.67-.208 3.853-.386a50 50 0 0 0 1.882-.326c2.481-.505 4.261-1.202 5.006-2.017-.292-.327-.76-.638-1.387-.92"/>
        <path fill="#D3B15A" d="M51.136 16.107 42.51.994A1.99 1.99 0 0 0 40.804 0H11.195c-.686 0-1.328.356-1.678.95L.295 16.076a2 2 0 0 0 .291 2.462L24.3 42.12c.773.757 1.999.757 2.772 0l23.743-23.61a1.98 1.98 0 0 0 .32-2.403m-10.799 5.31c-.015.681-1.561 1.556-4.188 2.283l2.233 4.464h-6.406l-1.547-3.41c-.526.058-1.066.103-1.62.147 0 0-2.408.119-3.181.119-1.591 0-3.167-.119-4.655-.297l-1.533 3.441h-6.406l2.277-4.583c-2.554-.741-4.218-1.601-4.232-2.18v-3.574c0-.134.043-.267.102-.4.219-.445.773-.875 1.605-1.261 1.532-.712 4.013-1.276 7.02-1.602L25.67 2.788l5.896 11.776c3.035.326 5.516.89 7.063 1.602.831.386 1.386.8 1.605 1.26.058.134.087.268.102.416z"/>
    </g>
    <circle cx="300" cy="300" r="295" fill="url(#a)" fill-opacity=".3" stroke="#D3B15A" stroke-width="10" />
    <defs>
        <radialGradient id="a" cx="0" cy="0" gradientTransform="rotate(54.2 -42.3 263.4) scale(497.082)" gradientUnits="userSpaceOnUse" r="1">
            <stop offset="0" stop-color="white"/>
            <stop offset="1" stop-color="#ffd607"/>
        </radialGradient>
    </defs>
</svg>