<svg width="32" height="32" viewBox="0 0 32 32" fill="none" xmlns="http://www.w3.org/2000/svg">
<path d="M0 16C0 7.16344 7.16344 0 16 0V0C24.8366 0 32 7.16344 32 16V16C32 24.8366 24.8366 32 16 32V32C7.16344 32 0 24.8366 0 16V16Z" fill="white"/>
<rect x="7" y="7" width="18" height="18" rx="9" fill="black"/>
<path d="M12.2525 9.8125L10.9375 11.1196L12.7636 12.9348C12.6661 13.1792 12.6174 13.4429 12.6174 13.7258C12.6174 14.7266 13.2286 15.5134 14.4511 16.0858C14.8269 16.263 15.3107 16.4462 15.9026 16.6357C16.4944 16.8252 16.9069 17.0085 17.1402 17.1856C17.3778 17.3627 17.4966 17.6098 17.4966 17.927C17.4966 18.207 17.3864 18.4253 17.1661 18.5819C16.9501 18.7342 16.6542 18.8104 16.2784 18.8104C15.6909 18.8104 15.2654 18.6972 15.0019 18.4707C14.7427 18.24 14.6131 17.8837 14.6131 17.4018H12.3323C12.3323 17.9949 12.4878 18.5201 12.7988 18.9772C12.8061 18.9877 12.8134 18.9981 12.8208 19.0084L10.9375 20.8804L12.2525 22.1875L14.3428 20.1097C14.9273 20.3309 15.5725 20.4415 16.2784 20.4415C16.8507 20.4415 17.3587 20.379 17.8022 20.2539L19.7475 22.1875L21.0625 20.8804L19.3891 19.217C19.6436 18.852 19.7709 18.4179 19.7709 17.9146C19.7709 16.9302 19.2612 16.1579 18.2417 15.5978C17.8227 15.3671 17.287 15.1529 16.6348 14.9552C15.9825 14.7534 15.5267 14.5598 15.2676 14.3745C15.0084 14.185 14.8787 13.9749 14.8787 13.7443C14.8787 13.4807 14.9954 13.2645 15.2287 13.0956C15.4662 12.9226 15.7881 12.8361 16.1942 12.8361C16.5959 12.8361 16.9134 12.937 17.1466 13.1389C17.3843 13.3406 17.503 13.6248 17.503 13.9914H19.7709C19.7709 13.5248 19.6628 13.103 19.4465 12.726L21.0625 11.1196L19.7475 9.8125L18.0232 11.5265C17.4983 11.3081 16.9059 11.1989 16.246 11.1989C15.5505 11.1989 14.9241 11.306 14.3669 11.5202C14.2702 11.5566 14.1773 11.5956 14.0882 11.6373L12.2525 9.8125Z" fill="white"/>
<path fill-rule="evenodd" clip-rule="evenodd" d="M11.855 3.38363C13.3455 2.89371 14.9385 2.66971 16.5164 2.73019C18.0946 2.79067 19.6582 3.13595 21.1132 3.74395C22.5686 4.35195 23.9154 5.22299 25.0678 6.29755C26.5919 7.71931 27.7753 9.49755 28.485 11.4867C29.1951 13.4761 29.4316 15.6764 29.1577 17.7711C28.8841 19.8659 28.1001 21.8553 26.9142 23.566C25.7282 25.2767 24.1401 26.7084 22.2748 27.7004C20.4095 28.6921 18.2665 29.2438 16.1542 29.2758C14.0418 29.3078 11.9599 28.8204 10.0953 27.895C8.23095 26.9695 6.58359 25.6063 5.33271 23.9036C4.08183 22.2009 3.22743 20.1587 2.88823 18.0748C2.54903 15.9907 2.72503 13.8646 3.37495 11.8812C3.86615 10.3817 4.62839 8.96411 5.60503 7.73563H4.12055V5.28187H9.93719V10.7135H7.48343V9.22939C6.68343 10.2355 6.05879 11.3967 5.65655 12.6255C5.12439 14.2511 4.98103 15.9951 5.25655 17.6969C5.59895 19.8137 6.58903 21.8649 8.06679 23.4457C9.83447 25.3363 12.2998 26.5542 14.8662 26.8207C17.4322 27.0873 20.0994 26.4028 22.2175 24.9286C24.3356 23.4543 25.9052 21.1903 26.5423 18.6899C27.1794 16.1894 26.8841 13.4524 25.7353 11.142C24.5865 8.83163 22.5839 6.94843 20.1894 5.95899C17.7948 4.96923 15.0079 4.87387 12.6041 5.66363L11.855 3.38363Z" fill="url(#paint0_linear_144_580094)"/>
<rect x="18" y="18" width="14" height="14" rx="7" fill="black"/>
<path d="M22.0852 20.1875L21.0625 21.2041L22.4828 22.6159C22.407 22.806 22.3691 23.0111 22.3691 23.2312C22.3691 24.0096 22.8445 24.6215 23.7953 25.0668C24.0876 25.2045 24.4639 25.3471 24.9242 25.4944C25.3845 25.6418 25.7054 25.7844 25.8868 25.9221C26.0716 26.0599 26.164 26.2521 26.164 26.4987C26.164 26.7166 26.0783 26.8863 25.907 27.0081C25.739 27.1266 25.5088 27.1859 25.2165 27.1859C24.7596 27.1859 24.4286 27.0978 24.2237 26.9216C24.0221 26.7422 23.9213 26.4651 23.9213 26.0903H22.1473C22.1473 26.5516 22.2683 26.9601 22.5102 27.3156C22.5158 27.3238 22.5215 27.3318 22.5273 27.3399L21.0625 28.7959L22.0852 29.8125L23.7111 28.1964C24.1656 28.3684 24.6675 28.4545 25.2165 28.4545C25.6617 28.4545 26.0567 28.4059 26.4017 28.3086L27.9148 29.8125L28.9375 28.7959L27.636 27.5021C27.8339 27.2182 27.9329 26.8806 27.9329 26.4891C27.9329 25.7235 27.5365 25.1228 26.7436 24.6871C26.4177 24.5078 26.001 24.3412 25.4937 24.1874C24.9864 24.0304 24.6319 23.8799 24.4303 23.7357C24.2287 23.5883 24.1279 23.425 24.1279 23.2456C24.1279 23.0406 24.2187 22.8724 24.4001 22.741C24.5849 22.6065 24.8352 22.5392 25.151 22.5392C25.4635 22.5392 25.7104 22.6177 25.8918 22.7747C26.0766 22.9316 26.169 23.1527 26.169 23.4378H27.9329C27.9329 23.0748 27.8488 22.7468 27.6806 22.4535L28.9375 21.2041L27.9148 20.1875L26.5736 21.5206C26.1654 21.3507 25.7046 21.2658 25.1913 21.2658C24.6504 21.2658 24.1632 21.3491 23.7298 21.5157C23.6546 21.544 23.5824 21.5744 23.5131 21.6068L22.0852 20.1875Z" fill="white"/>
<path d="M32 28.9375C32 30.6289 30.6289 32 28.9375 32C27.2461 32 25.875 30.6289 25.875 28.9375C25.875 27.2461 27.2461 25.875 28.9375 25.875C30.6289 25.875 32 27.2461 32 28.9375Z" fill="#D8D8D8"/>
<path d="M30.4687 28.5164V27.6742H30.0855V27.2531H29.3198V26.832H28.5547V27.2531H27.7891V27.6742H27.4062V30.2008H27.7891V30.6219H28.5542V31.043H29.3198V30.6219H30.0855V30.2008H30.4687V29.3586H29.7026V29.7786H29.3198V30.1997H28.5547V29.7786H28.1719V28.0953H28.5547V27.6742H29.3198V28.0953H29.7026V28.5164H30.4687Z" fill="#303033"/>
<path fill-rule="evenodd" clip-rule="evenodd" d="M27.788 27.2547H27.5974V27.6739H27.788V27.2547ZM27.4062 27.6739H27.2148V28.9375H27.4062V27.6739Z" fill="#68686D"/>
<path fill-rule="evenodd" clip-rule="evenodd" d="M28.3633 26.832H28.5547V27.2519H28.3633V26.832ZM29.1289 28.0945H29.3203V27.6726H29.1289V28.0945ZM29.7152 28.517H29.5269V28.0961H29.7152L29.7152 28.517Z" fill="#99999E"/>
<path fill-rule="evenodd" clip-rule="evenodd" d="M29.7031 29.7779H29.5117L29.5117 29.3632H29.7031V29.7779ZM29.1324 30.198H29.3206V29.7794H29.1324L29.1324 30.198ZM28.3633 31.0436H28.5547V30.6212H28.3633V31.0436Z" fill="#BDBDBF"/>
<path fill-rule="evenodd" clip-rule="evenodd" d="M27.4062 28.9375H27.2148V30.2011H27.4062V28.9375ZM27.7891 30.6231H27.5977V30.2021H27.7891V30.6231Z" fill="#99999E"/>
<defs>
<linearGradient id="paint0_linear_144_580094" x1="2.04365" y1="13.2971" x2="15.2224" y2="29.5764" gradientUnits="userSpaceOnUse">
<stop stop-color="#004CFF"/>
<stop offset="0.252131" stop-color="#00E0FB"/>
<stop offset="0.505709" stop-color="#87FF70"/>
<stop offset="0.755054" stop-color="#F8F500"/>
<stop offset="1" stop-color="#FF1A00"/>
</linearGradient>
</defs>
</svg>
