<svg width="240" height="240" viewBox="0 0 240 240" fill="none" xmlns="http://www.w3.org/2000/svg">
<g clip-path="url(#clip0_6308_3020)">
<circle cx="120" cy="120" r="120" fill="#170659"/>
<path d="M193.197 65.0026H160.534C152.184 65.0026 145.017 68.5138 139.034 75.4894L104.198 119.92L81.7633 148.492C81.3014 149.066 80.7184 149.531 80.0559 149.854C79.3934 150.177 78.6677 150.35 77.9307 150.361H46.927C46.8113 150.347 46.694 150.364 46.5872 150.41C46.4804 150.457 46.3879 150.531 46.3194 150.625C46.1886 150.797 46.12 151.009 46.1246 151.225V173.257C46.1453 173.428 46.2127 173.589 46.3194 173.724C46.391 173.815 46.4839 173.887 46.5899 173.933C46.6959 173.979 46.8117 173.998 46.927 173.989H79.6211C87.9718 173.989 95.1385 170.454 101.121 163.409L120.128 139.212L139.136 163.409C145.079 170.454 152.184 173.997 160.534 173.997H193.174C193.289 174.008 193.405 173.989 193.511 173.941C193.616 173.894 193.707 173.819 193.774 173.724C193.905 173.552 193.973 173.341 193.969 173.125V151.326C193.984 151.077 193.915 150.83 193.774 150.625C193.702 150.534 193.609 150.463 193.503 150.417C193.397 150.37 193.282 150.351 193.166 150.361H162.163C161.454 150.364 160.754 150.21 160.113 149.91C159.472 149.61 158.905 149.17 158.455 148.624L135.513 119.414L158.361 90.4138C158.814 89.8276 159.396 89.3539 160.062 89.0298C160.728 88.7057 161.461 88.5399 162.202 88.5453H193.205C193.32 88.557 193.437 88.5379 193.542 88.4901C193.647 88.4422 193.738 88.3672 193.805 88.2729C193.936 88.1007 194.004 87.8895 194 87.6734V65.6255C193.981 65.4705 193.913 65.3258 193.805 65.2128C193.723 65.1388 193.627 65.0826 193.523 65.0477C193.418 65.0129 193.307 65.0002 193.197 65.0104V65.0026ZM79.6912 65.0026H46.927C46.8018 64.9925 46.6759 65.0118 46.5596 65.0592C46.4432 65.1065 46.3396 65.1805 46.2571 65.2751C46.0956 65.4332 46.0032 65.6487 46 65.8746V87.6734C46 87.9069 46.0935 88.1094 46.2571 88.2729C46.4404 88.4402 46.6788 88.5344 46.927 88.5376H77.9307C79.4341 88.5376 80.8441 89.2071 81.7711 90.406L93.5416 105.463L109.059 85.7349L101.09 75.5906C95.0762 68.5449 87.9407 65.0026 79.6912 65.0026Z" fill="#00D1FF"/>
</g>
<defs>
<clipPath id="clip0_6308_3020">
<rect width="240" height="240" fill="white"/>
</clipPath>
</defs>
</svg>
