<svg width="251" height="251" viewBox="0 0 251 251" fill="none" xmlns="http://www.w3.org/2000/svg">
<path d="M0.199951 250.6C0.199951 168.7 0.199951 86.6999 0.199951 4.79993C0.199951 1.39993 0.899957 0.699951 4.29996 0.699951C84.9 0.799951 165.5 0.799951 246.1 0.699951C249.5 0.699951 250.2 1.39993 250.2 4.79993C250.1 85.3999 250.1 166 250.2 246.6C250.2 250 249.5 250.7 246.1 250.7C164.2 250.6 82.2 250.7 0.299957 250.7L0.199951 250.6Z" fill="#4790CD"/>
<path d="M117.2 73.5999C118.2 72.7999 118.7 70.7999 120.5 72.4999C121.2 74.1999 121.9 75.7998 124.2 74.8998C126.2 74.6998 128.1 75.4999 130 75.6999C131.5 75.0999 133 74.3999 134.2 73.0999C136 71.1999 138.2 70.2998 140.8 70.2998C141.7 71.5998 142.7 72.6999 144.3 71.1999C145.4 70.4999 146.3 69.2999 147.8 69.4999C148.2 69.5999 148.7 69.7998 149.1 69.8998C150.7 72.3998 152.3 70.6998 154 69.8998C156.1 69.5998 158.1 69.0998 159.9 67.7998C161.4 66.7998 163.1 66.1998 164.9 67.2998C166.2 69.7998 164.3 71.3999 163.1 72.9999C161.9 74.5999 160.4 75.8999 159.3 77.5999C158.9 77.9999 158.5 78.1998 158 78.2998C158.4 78.8998 158.8 78.4998 159.2 78.2998C163.7 76.7998 168.2 75.1999 173 74.4999C175.1 74.1999 177.4 73.6998 178.5 76.3998C178.5 78.5998 176.9 79.3998 175.4 80.3998C179.5 80.9998 180.1 81.9998 178.2 84.7998C177.2 86.2998 175.5 87.1999 174.6 88.6999C177 89.7999 179.4 88.8999 181.8 89.0999C184 89.2999 186.8 88.5998 187.8 91.3998C188.8 93.7998 185.6 94.3999 185 96.1999C184.4 97.4999 183 98.2999 182.8 99.6999C184.7 101 186.9 100.8 189 101C191.6 101.5 193.8 102.7 195.6 104.7C196.6 107.3 201 107 200.7 110.6C200.5 111.6 200 112.3 199.2 112.8C199.1 112.8 198.9 113 198.7 112.9C198.2 112.7 198 112.9 198.3 113.2C203.6 118.3 207.7 124.2 211.3 130.6C212 131.9 212.4 133.4 213 134.7C213.6 135.9 214.1 137.5 212.7 138.3C211.2 139.3 210.3 138 209.5 136.9C209.5 136.9 209.2 136.9 209.1 136.9C209.1 137 209.2 137.1 209.3 137.3C209.3 138.1 209.6 138.9 209.7 139.6C209.4 141.5 210.6 143.4 209.5 145.3C209.3 145.6 209 145.9 208.6 146.1C207.6 146.7 207.3 147.6 207.4 148.7C207.1 151.8 206.4 154.9 206.1 158.1C206 159.7 205.2 161.6 203.2 161.6C201.5 161.6 200.8 160 200.5 158.5C199.8 155.3 197.4 152.8 197.7 149.5C197.2 157.2 196.3 164.6 191.5 171C191.2 171.7 190.8 172.3 190.2 172.7C186.1 171.6 188.8 169 188.5 167.4C187.3 169.4 188.7 172.5 187.3 175C185.9 177.5 184.7 180.1 183.2 182.4C181.6 184.9 180.8 187.9 178.7 190.2C177.9 190.9 177.1 191.3 176 191.2C172.8 190 174.5 187.3 174.3 185.5C171.3 190.9 166.6 195 162.1 199.4C159.5 201.9 158 200.8 157.8 197.2C155.8 199.8 153.6 201.9 150.9 203.6C149.7 204.4 148.2 205.7 146.9 204.3C145.6 203 146.7 201.5 147.5 200.4C146.4 201.6 145.1 202.8 143.3 201.9C141.5 201 141.9 199.1 142 197.4C142.2 194.8 142.4 192.2 143.3 190C141.3 197.3 135.3 202.1 131.1 208.3C128.7 210.2 126.8 212.6 124.6 214.7C122.5 216.2 121.1 219.2 117.7 218.2C115.1 216.6 113.8 213.8 113.7 211.1C113.5 206.3 112.2 201.6 111.8 196.6C111.7 198.1 111.2 199.3 110.7 200.4C109.9 202.2 111.1 205.7 108.2 205.6C104.9 205.5 101.1 206.6 98.5 202.6C95.5 198 92.5 193.6 90.7 187.7C90.7 192.2 90.7 196 91.1 199.8C91.3 201.6 91.8 203.9 89.6 204.5C87.6 205.1 86.4 203.2 85.4 201.7C82.6 197.4 79.8 193.1 77.4 187.5C77.9 191.3 79.3 193.6 79.8 196.2C80 197.4 80.3 198.7 79.1 199.4C77.6 200.2 76.6 199 75.8 198C75.1 197.1 74.4 196.2 73.8 195.2C70.8 190.1 69.3 184.1 63.8 180.7C63 180.2 63.2 178.8 62.6 178C63.8 180.7 63.9 183.5 63.9 186.4C63.9 187.3 63.8 188.2 63 188.5C62 189 61.1 188.4 60.3 187.7C57.1 184.5 54.9 180.7 53.3 176.4C52 173 50.5 169.8 46 168.9C42.9 168.2 45.2 165.4 45.7 163.6C42.2 165.5 39.2 168.9 34.5 168.2C34.1 167.9 33.8 167.6 33.7 167.1C34.4 164.2 37.2 162.8 38.4 160.2C39.3 158.1 39.6 155.8 41 153.9C41.9 152.2 42.4 150.2 43.9 148.9C41.4 149.7 40.4 153.6 36.9 152.6C36 148.8 38.2 145.8 39.4 142.6C39.6 139.6 40.2 136.7 42.1 132.9C39.1 137.3 37 140.7 34.8 144.1C33.9 145.5 33.3 147.7 30.8 146.6C30 142.2 32.5 138.7 34.2 135C35.5 132.6 36.7 130.2 32 131.4C28.9 130.2 29.3 127.8 30.5 125.7C33 121.1 36.5 117.1 40.6 114.2C43.3 112.3 47.4 112.2 50.7 110.6C52.2 109.9 53.7 109.2 54.6 107.8C56.3 106.4 55.1 104.7 55 103.2C54.8 101.4 54.5 99.5999 55.7 97.9999C60.1 97.9999 59.7 102.4 61.8 104.4C61.7 103.5 61.6 102.6 61.6 101.6C61.4 96.4999 60.7 91.2998 62.5 86.2998C66.7 84.8998 67.3 88.1999 68.5 90.5999C68.4 89.3999 68.7 88.2998 69.7 87.2998C70.3 86.5998 70.8 85.8998 71.5 85.2998C72.6 84.1998 74.2 84.6998 75.4 83.8998C76.2 80.3998 72.1 78.2998 72.9 74.7998C73.2 74.4998 73.7 74.1999 74.1 74.0999C75.7 73.9999 76.9 74.6999 78 75.6999C80.2 77.3999 81.7 79.8999 84.5 80.6999C84 77.4999 84.7 75.3998 88.6 76.3998C89.5 76.5998 90.1 76.0999 90.8 75.5999C93.4 73.1999 96.1 72.3999 99 75.0999C100.2 76.1999 101.4 75.4998 102.6 74.8998C104.6 73.7998 106.8 73.5999 108.8 72.4999C110.1 72.6999 111.1 73.6998 112.5 73.2998C114.1 73.4998 115.5 75.2998 117.3 73.7998L117.2 73.5999Z" fill="#D8C7A8"/>
<path d="M181.1 99.2999C181.1 97.1999 183.5 97.2999 184.2 95.7999C185.7 93.4999 188.8 93.4 190.3 91.6C185.2 88.2 178.9 90.1 173.1 88.7C173.5 85.4 177.5 85.1 178.4 82.1C175.6 81.4 173 82.1 170 82.6C172.2 79.5 176 79.2999 178 76.7999C178.7 73.9999 176.3 74.4999 175.3 74.8999C171.9 76.1999 168.1 75.1999 164.6 76.8999C163.1 77.5999 160.8 78.4 158.9 77C157 76.2 158.5 75.5 159.1 75C161.5 72.9 163.5 70.6 164.7 67.7C164.2 66.7 164.2 65.7 164.3 64.6C164.4 64.2 164.6 63.7999 164.9 63.4999C170.7 58.2999 176.4 52.9999 184.9 52.3999C185.9 52.3999 186.8 51.2 187.8 50.6C191.2 50.2 194.5 47.7999 198.1 49.7999C205.5 62.2999 208.8 75.3999 204.7 89.8999C203 95.9999 201.1 102.2 203.7 108.6C200.2 109.2 197.7 107.4 195.2 105.3C193.7 103.1 190.3 104 189 101.6C187 98.9 183.1 101.8 181.1 99.1V99.2999Z" fill="#2A1911"/>
<path d="M77.1998 76.0999C76.1998 75.5999 75.0998 75.0999 74.0998 74.6999C74.0998 72.3999 75.7998 72.8999 77.1998 72.7999C72.1998 70.1999 67.0998 67.5999 62.0998 63.8999C60.0998 71.4999 61.2998 78.6999 60.8998 84.4999C60.5998 83.1999 60.8998 80.6999 62.4998 78.6999C63.8998 76.8999 65.6998 75.7999 66.7998 79.0999C66.7998 79.5999 66.6998 79.9999 66.4998 80.4999C65.2998 81.8999 66.0998 84.3999 63.9998 85.3999C62.0998 90.9999 63.9998 96.8999 63.0998 102.6C60.0998 102.7 59.8998 99.7999 58.3998 98.2999C57.7998 97.6999 57.4998 95.5999 56.1998 97.6999C56.3998 101 56.7998 104.3 56.7998 107.6C56.7998 109.9 55.5998 107.5 54.9998 107.9C53.7998 108.9 52.3998 109.3 50.8998 108.9C49.7998 108.5 48.5998 108.1 48.9998 106.5C47.3998 93.7999 48.2998 81.1999 50.1998 68.5999C50.3998 67.2999 50.7998 65.9999 51.0998 64.7999C52.1998 60.6999 51.3998 56.4999 52.3998 52.3999C52.7998 50.7999 52.6998 49.1999 54.3998 48.3999C61.8998 51.2999 69.3998 54.2999 76.4998 58.0999C82.0998 61.0999 84.9998 66.6999 86.3998 72.8999C85.9998 71.3999 84.4998 70.0999 86.1998 68.3999C90.4998 68.9999 91.7998 71.6999 91.2998 75.6999C90.8998 76.8999 92.5998 77.9999 91.5998 79.3999C89.2998 79.0999 88.0998 76.4999 85.4998 76.5999C85.6998 78.1999 85.9998 79.8999 86.1998 81.4999C82.4998 80.8999 80.2998 77.7999 77.2998 75.9999L77.1998 76.0999Z" fill="#281712"/>
<path d="M86.3 68.4C86.1 71.1 88.9 72.9 88.6 76C85.9 74.9 85 72.7 84.1 70.4C81.6 63.2 76.6 58.5 69.3 56.3C64.1 54.7 59.1 52.5 55 48.8C56.5 47 57.9 48.2 59.3 48.9C61.1 49.8 63.2 50.1 65 51C66.3 51.6 67.6 52.2 69 52.8C75.1 56 81.8 57.9 87.7 61.6C89.8 62.9 91.8 64.2 92.9 66.6C93 67.4 92.9 68.1 92.5 68.8C90.3 71.1 88.3 68.8 86.3 68.4Z" fill="#492B21"/>
<path d="M111.1 215.6C109.4 219.7 107.9 216.8 106.7 215.4C103.5 211.6 100.1 208.1 95.4 205.4C95.3 209.4 98 211.9 98.7 215.9C85.8 211.9 76.7 203.8 69 193.6C69.2 193.4 69.4 193.3 69.6 193.1C70.1 192.9 70.5 192.9 71 193C75.2 194.9 77 199.3 80.8 201.9C84.9 204.6 88.9 207.6 92.1 209.6C93.4 210.5 93.3 210.4 93.1 209.9C91.9 207.2 89.8 203.8 92.3 201.7C95.1 199.3 97.8 202.8 100 204.4C103.9 207.2 107.3 210.6 110.2 214.6C110.5 215 110.8 215.3 111.1 215.7V215.6Z" fill="#1C3247"/>
<path d="M50.9999 107.8C52.3999 107.8 53.6999 107.9 55.0999 108C55.0999 110.4 53.5999 110.9 51.6999 112C46.4999 114.7 39.6999 114.5 36.0999 120.3C34.8999 122.3 33.0999 123.9 31.8999 125.9C30.9999 127.3 29.6999 129.1 32.1999 130.5C31.7999 132.3 30.3999 132.8 28.7999 133.1C27.0999 132.4 27.4999 131.1 27.8999 129.8C28.9999 126.5 30.5999 123.4 32.0999 120.3C33.8999 118.6 36.2999 117.5 37.5999 115.2C40.9999 110.8 45.3999 108.3 50.9999 107.9V107.8Z" fill="#EBE9DC"/>
<path d="M176 190.6C176.7 190.2 177.3 189.9 178 189.5C179.9 189.8 180.8 191 181.4 192.7C182.4 195.3 183.3 197.9 181.4 200.5C177.9 200.7 180.6 197.5 179.1 196.5C178.7 195.3 178.8 193.8 177.6 192.8C170.7 203.2 162.8 212.5 150.9 217.9C150.1 215.4 151.2 213.5 151.2 211.6C151.6 211.3 152 211.3 152.4 211.6C153.2 211.9 152.4 213.3 153.6 213.3C161 207 168.5 200.7 173.7 192.3C174.3 191.4 175.2 191 176.1 190.6H176Z" fill="#18293E"/>
<path d="M64.1999 198.4C58.3999 192.6 54.6999 185.4 50.4999 178.2C48.3999 180.2 47.9999 183 46.9999 185.5C45.9999 185.8 45.5999 185.2 45.1999 184.5C44.2999 180.3 46.5999 176.8 47.8999 173.2C48.6999 171 50.9999 171 51.5999 172.8C54.3999 181.7 61.1999 188.1 65.4999 196C65.6999 196.4 65.6999 197 65.6999 197.5C65.3999 198.2 65.1999 199 64.0999 198.6L64.1999 198.4Z" fill="#212E3C"/>
<path d="M64.9999 50.9999C61.1999 52.4999 58.6999 48.0999 54.9999 48.6999C53.4999 52.1999 52.6999 55.8999 52.0999 59.5999C51.7999 61.2999 52.3999 63.1999 50.8999 64.6999C50.9999 59.6999 51.0999 54.7998 51.2999 49.7998C51.3999 46.4998 52.8999 44.5999 56.2999 46.5999C59.0999 48.1999 62.7999 47.7999 64.8999 50.8999L64.9999 50.9999Z" fill="#1A2133"/>
<path d="M92.1 66.6998C89 62.5998 84.3 60.7998 79.8 58.7998C76.1 57.0998 72 55.9998 69 52.7998C78.6 55.2998 87.8 58.5998 94.3 66.5998C93.6 67.2998 92.8 67.2998 92.1 66.5998V66.6998Z" fill="#1A2133"/>
<path d="M39 160.4C37.9 162.9 36.2 164.9 34.3 166.7C33.9 167.7 32 169.1 35 169.1C36.3 169.1 37.6 169.1 38.8 169.6C41.7 170.5 42.8 173 43.5 175.6C43.8 177.3 43.8 178.9 42.6 180.3C38.9 180.9 41.7 177.4 40.3 176.5C40.8 173.3 39.6 172.2 36.2 172.4C33.6 172.6 29.7 173.8 28.6 170.8C27.7 168.5 31.5 167.2 33 165.3C34.6 163.2 36.3 161.2 38 159.2C38.8 159.1 38.9 159.7 39.1 160.2L39 160.4Z" fill="#264460"/>
<path d="M203 113.9C211 121.4 216 130.7 218.1 141.4C218.6 142.7 219 143.9 217.6 144.8C215.4 144.4 215.4 142.4 215.1 141C213.2 132.6 209.1 125.5 203.8 118.9C203.1 118 202.3 117.1 202.2 115.9C202.2 115.1 202.4 114.3 203 113.8V113.9Z" fill="#1A2E47"/>
<path d="M34.9 134.5C33.3 138.5 31.3 142.4 30.7 146.7C31.3 148 33.1 148.1 33.5 149.6C33.5 150.1 33.5 150.5 33.2 150.9C31.9 152.6 30.7 154.2 29.4 155.9C28.9 155.6 28.5 155.2 28 154.9C27.5 147.1 30.1 140.1 33.9 133.4C34.6 133.4 34.7 134 34.8 134.5H34.9Z" fill="#1F3856"/>
<path d="M189.9 172.5L190.1 170.7C192.7 169.7 193.7 170.3 193.7 173.6C193.7 178.2 193.3 182.8 193.3 187.4C192.9 188.5 192.7 189.8 191 189.3C190.7 188.7 190.5 188 190.2 187.4C189.8 187.8 189.4 188.2 189 188.5C187.4 188.8 187.1 187.5 186.6 186.5C186.6 181.6 186.4 176.6 189.8 172.5H189.9Z" fill="#332E28"/>
<path d="M111.1 215.6C110.7 215.6 110.4 215.4 110 215.3C108.2 212.8 109 210.6 110.7 208.5C112.4 207.9 113.1 209 113.8 210.2C116.2 216 115.3 222.2 115.6 228.3C115.6 228.8 115.3 229.2 114.9 229.5C112.6 231.7 111.7 231.1 111.7 228.1C111.7 223.9 113.3 219.6 111 215.6H111.1Z" fill="#282B32"/>
<path d="M128 217.6C127.6 217.9 127.3 218.2 126.9 218.5C126.6 219 126.2 219.1 125.7 218.6C124.5 214.2 129.1 212.8 130.3 209.7C131.9 207.8 133 205.6 134.2 203.4C134.8 202.4 135.5 201.3 136.9 201.7C137.9 202.1 138.3 203.3 138 204.2C136.9 208.8 137.2 213.8 133.8 217.6C133.1 218 132.5 218 131.8 217.6C130.5 216.4 129.3 216.5 128 217.6Z" fill="#2F312E"/>
<path d="M131.9 216.2C132.2 216.6 132.6 216.9 132.9 217.3C137.1 215.4 141.2 213.2 145 210.6C146.5 209.6 148 208.4 149.9 208.5C151.6 208.9 153.2 209.4 152 211.6C151.7 211.6 151.4 211.6 151.1 211.6C149 210.1 148.2 212.4 147.1 213.2C142.8 216.3 138 218.4 133.1 220.1C131.8 220.5 130 221.6 130.3 218.7C130.5 217.7 130.3 216.4 131.9 216.3V216.2Z" fill="#173249"/>
<path d="M33.2999 150.9C33.2999 150.4 33.1999 149.9 33.0999 149.4C33.2999 145.2 36.3998 143.4 39.4998 141.6C40.1998 141.2 41.5998 141 41.1998 142.7C39.2998 145.8 37.8999 149.1 36.7999 152.6C37.3999 154.6 37.1999 156.3 34.7999 156.9C33.4999 156.4 33.3999 155.5 34.0999 154.4C34.3999 153.5 34.6998 152.6 34.8998 151.7C35.5998 148.8 33.7998 151.1 33.1998 150.9H33.2999Z" fill="#2D373C"/>
<path d="M199.2 166.8C199.3 174.7 197.7 182.2 195 189.5C194.5 189.9 194 189.8 193.6 189.3C192.5 183.4 194.6 177.9 195.6 172.3C197 170.6 195.4 166.8 199.3 166.8H199.2Z" fill="#182F4C"/>
<path d="M92.0999 66.7C92.7999 66.7 93.5998 66.7 94.2998 66.7C95.0998 67.5 95.9998 68.1999 96.7998 68.9999C99.5998 71.9999 102.4 74.2999 106.3 70.3999C106.6 70.0999 107.5 69.5 107.8 70.7C107.3 73.5 105 74.3999 102.8 75.3999C98.0998 75.0999 94.4999 72.9999 92.0999 68.8999V66.7999V66.7Z" fill="#1C2F40"/>
<path d="M165 63.5C165.1 64 165.2 64.5 165.3 65C162 67.8 157.9 69 154 70.7C152.5 71.1 151.9 73.7 150 72.9C148.7 72.4 149.4 70.9 149.2 69.8C154.8 68.6 159.2 64.3 165 63.5Z" fill="#1F2E3A"/>
<path d="M199.2 166.8C197 168.2 198.9 171 197.2 172.6C195.3 169.9 194.8 159.4 196.6 157.1C198 155.3 199.7 156.2 200 157.7C200.5 160.5 202.5 162.7 202.6 165.6C202.6 166.6 202 167.3 201 167.6C200.4 167.3 199.8 167 199.2 166.7V166.8Z" fill="#25394C"/>
<path d="M32.1001 120.2C32.5001 123.7 29.4 126 29 129.2C28.9 130.3 27.4001 131.4 29.1001 132.4C29.7001 132.7 30.1001 133.1 30.1001 133.8C28.9001 135.2 27.6 136.3 25.3 137C26.3 130.5 27.9 124.9 32 120.3L32.1001 120.2Z" fill="#4E6380"/>
<path d="M206.2 147.4C206.2 146.4 206 145.1 206.5 144.6C207.2 143.9 207.8 145 208.2 145.7C210.4 148.7 211.5 152.1 211.8 155.8C211.6 156.3 211.3 156.7 210.8 157C210 156.6 209.2 156.3 209.2 157.7C208.7 158.1 208.2 158.1 207.7 157.7C204.7 154.6 207.4 150.7 206.3 147.4H206.2Z" fill="#3E362F"/>
<path d="M30.2 133.7C29.9 133.2 29.5 132.8 29.2 132.3C30.2 131.6 31.2 131 32.2 130.3C34.4 129.4 36.5 128.4 38.7 127.5L39.3999 128.1C37.8999 130.2 36.3999 132.3 34.8999 134.4C34.5999 134 34.3 133.7 34 133.3C32.5 130.4 31.5 133.8 30.2 133.6V133.7Z" fill="#2C3A43"/>
<path d="M141.2 71.3001C138.1 70.2001 136.3 72.7001 133.9 73.7001C133.6 73.3001 133.6 72.9001 133.9 72.5001C136.7 70.3001 139.3 68.0001 143.3 69.7001C145 70.4001 146 68.2001 147.5 68.0001C149.9 67.7001 148.1 68.8001 147.9 69.4001C147 70.2001 146.2 70.9001 145.3 71.7001C143.9 72.4001 142.5 72.7001 141.2 71.3001Z" fill="#254C77"/>
<path d="M195.2 105.5C198 106.6 200.8 107.7 203.7 108.7C204.5 109 206.4 108.8 204.7 110.5C203.2 111.6 201.7 112.1 200.1 110.8C199.8 108.4 197.6 108.5 196 107.8C194.7 107.3 193.8 106.8 195.2 105.5Z" fill="#D2CFC7"/>
<path d="M208 157.5C208.4 157.5 208.7 157.6 209.1 157.7C209.4 164.3 208.8 170.7 206.3 176.8C204.6 175.8 204.5 174.2 204.5 172.5C205.8 169.2 205 165.7 205.9 162.3C206.4 160.6 206.3 158.7 208 157.5Z" fill="#193A52"/>
<path d="M209 139.7C209.2 139 206.6 138.1 209 137.5C213 138.8 215.8 141.3 216.4 145.7C216.1 146.4 215.9 147.2 214.9 146.4C213.9 146.1 213.9 143.3 212.1 145.3C212.6 146.3 212.1 146.7 211.2 146.9C209.4 144.8 209.2 142.3 209 139.7Z" fill="#2D383E"/>
<path d="M215 146.4C215.3 146.1 215.7 145.7 216 145.4C216.3 144.9 216.5 144.3 217.3 144.5C217.6 143.5 217.8 142.5 218.1 141.4C219.6 144.8 219.5 148.4 219.9 152.5C216.9 151 216.4 148.3 215 146.3V146.4Z" fill="#224571"/>
<path d="M125.8 218.2C126.2 218.2 126.5 218.3 126.9 218.4C123.6 222.9 120.3 227.4 114.9 229.6C114.7 229.4 114.6 229.2 114.5 228.9C117.1 224.1 120.4 220 125.8 218.3V218.2Z" fill="#172E4C"/>
<path d="M50.9999 107.8C45.9999 109.3 41.4999 111.6 37.5999 115.1C37.4999 111.2 41.0999 110.8 43.2999 109.3C44.9999 108.1 47.1999 107.4 49.0999 106.6C49.6999 107 50.3999 107.4 50.9999 107.9V107.8Z" fill="#264259"/>
<path d="M64.1998 198.4C64.4998 198 64.7999 197.6 65.0999 197.3C65.3999 195.9 64.6998 194.5 65.3998 193.2C66.8998 191.2 68.3998 190.3 69.3998 193.6L68.9998 193.8C65.3998 196.5 69.2998 199.4 68.4998 202.5C66.1998 202 65.0999 200.3 64.0999 198.5L64.1998 198.4Z" fill="#203A5D"/>
<path d="M188 186.4C188.4 187.1 188.7 187.8 189.1 188.6C188.4 192.7 185.6 195.9 183.9 199.5C183 199.7 182.6 199.1 182.3 198.4C181.9 196 183.3 194.1 183.9 192C185.2 190.1 184.9 187 188 186.4Z" fill="#1C3242"/>
<path d="M211.2 146.7C211.5 146.2 211.8 145.8 212.2 145.3C213.8 150.1 213.4 155 213.2 160.1C211.2 159.5 211 158.3 210.9 156.9C210.9 156.3 211.1 155.6 211.2 155C211.6 152.5 210.1 150.2 210.5 147.7C210.6 147.2 210.9 146.9 211.3 146.6L211.2 146.7Z" fill="#1E3858"/>
<path d="M198.1 49.8999C194.7 49.9999 191.4 51.6999 187.8 50.6999C189.6 49.0999 191.8 48.4999 194 47.9999C195.5 47.6999 197.8 46.9999 198.1 49.8999Z" fill="#1D263C"/>
<path d="M133.8 72.5C133.8 72.9 133.8 73.3 133.8 73.7C132.7 75 132.1 76.7 129.9 76.6C128 75.3 126.3 73.9 124.9 72.1C124.6 71.7 124.7 71.3 124.9 70.9C126.5 70.4 127.9 70.7 128.8 72.1C130.3 74.4 132 73.7 133.7 72.5H133.8Z" fill="#2F4051"/>
<path d="M205.1 172.4C205.5 173.9 205.9 175.3 206.3 176.8C205.6 178.7 205.1 177.6 204.7 176.6C203.4 173.6 202.2 170.7 201 167.7C201.3 167.4 201.6 167 201.9 166.7C205.1 167.4 206.3 169.3 205.1 172.5V172.4Z" fill="#19304B"/>
<path d="M182.9 198.6C183.2 198.9 183.5 199.2 183.8 199.6C182.9 201.4 182.2 203.4 179.4 204.6C179.3 201.7 179.2 199.2 179 196.7C180.3 197.6 179.4 199.7 181 200.4C181.7 199.9 181.2 198.2 182.8 198.7L182.9 198.6Z" fill="#1E375F"/>
<path d="M45.9998 184.5C46.2998 184.8 46.6998 185.1 46.9998 185.5C46.6998 187.6 46.1999 189.7 44.7999 191.4C42.8999 190.7 42.5999 189.1 42.0999 187.6C42.6999 186.9 42.7998 185.9 43.4998 185.2C44.1998 184.6 44.9998 184.1 45.9998 184.5Z" fill="#23466F"/>
<path d="M34.1 154.4C34.3 155.1 34.1 156 35 156.3C35.5 156.2 36 156.1 36.5 156.1C37.8 156.3 39.1 156.6 39.2 158.2C39.2 158.7 38.6 158.7 38.1 158.5C36.3 159.1 34.5 159.7 32.4 160.5C31.9 158 33 156.2 34.2 154.4H34.1Z" fill="#285174"/>
<path d="M44.1999 185.9C44.1999 187.2 43.3999 187.7 42.1999 187.6C40.3999 184.2 39.8999 180.5 40.2999 176.7C41.6999 177.6 40.7999 179.5 41.8999 180.6C44.2999 181.7 43.7999 184 44.1999 185.9Z" fill="#112943"/>
<path d="M193.9 189.2C194.3 189.3 194.6 189.4 195 189.5C195 189.7 195 189.8 195 190C194.5 191.5 194.2 194 192.6 193.8C190.3 193.5 191.1 191 191.1 189.4C191.6 188.8 192.1 188.3 192.5 187.7C193.7 187.7 193.4 188.8 193.9 189.3V189.2Z" fill="#2A4D7E"/>
<path d="M38.0999 158.6C38.5999 157 36.3999 158 36.3999 156.9C39.0999 153.2 39.8999 152.9 42.1999 154.7C41.0999 156.6 39.9999 158.6 38.8999 160.5C38.4999 160.2 38.1999 159.8 37.7999 159.5C37.8999 159.2 37.9999 158.9 37.9999 158.6H38.0999Z" fill="#373537"/>
<path d="M200.1 110.9C201.6 110.9 203.2 110.7 204.7 110.6C205.8 112.6 202 112 203 113.9C203 114.5 203 115.1 203 115.6C200.6 116.1 199.8 114.5 199.1 112.7C198.8 111.7 199.7 111.4 200.2 110.9H200.1Z" fill="#142020"/>
<path d="M125 70.8998L125.2 71.8998C126.3 73.6998 125.9 74.8998 124 75.6998C119.6 78.0998 120.7 74.5998 120.5 72.3998C123.4 75.9998 123.7 71.7998 125 70.7998V70.8998Z" fill="#1D313B"/>
<path d="M103.1 74.7998C104.7 73.3998 106.2 71.9999 107.8 70.5999C108.3 70.7999 108.8 70.9999 109.3 71.1999C109.6 71.8999 109.6 72.3998 108.9 72.7998C107.3 74.3998 105.3 75.0999 103.2 75.6999C102.9 75.4999 102.9 75.2999 103 75.0999C103 74.8999 103.2 74.7998 103.3 74.7998H103.1Z" fill="#D3D4D0"/>
<path d="M117.2 73.5999C115.3 76.7999 113.6 75.5999 111.9 73.3999C111.7 73.1999 111.6 72.9998 111.6 72.7998C111.6 72.5998 111.8 72.4999 111.8 72.4999C114.1 70.2999 115 74.7999 117.1 73.4999L117.2 73.5999Z" fill="#182936"/>
<path d="M131.9 216.2C131.4 217 130.8 217.8 130.3 218.6C129.5 218.2 128.8 217.9 128 217.5C128.8 216.6 129.5 215.4 130.6 214.8C132.5 213.6 132.1 215.2 131.9 216.2Z" fill="#3E6D90"/>
<path d="M111.9 72.6001C111.9 72.9001 111.9 73.2 111.9 73.4C110.7 73.8 109.2 75.9001 108.8 72.7001C108.9 72.2001 109.1 71.6001 109.2 71.1001C111.3 69.3001 110.6 72.7 111.9 72.5V72.6001Z" fill="#313433"/>
<path d="M81.0998 151.7C81.3998 151 81.6998 150.4 81.9998 149.7C81.2998 148.3 79.8998 147.1 81.4998 145.5C81.4998 144.8 83.8998 145.5 82.4998 143.9C82.7998 141.3 82.7998 138.8 80.4998 136.8C78.8998 135.4 78.3998 133.5 80.8998 132.1C82.7998 132.1 84.6998 132.1 86.5998 131.6C94.0998 134.2 101.3 133.7 108.3 130C110.3 130.3 112.1 129.8 113.9 128.8C120.1 125.4 126.2 125.3 131.8 130.2C134.3 132.3 137.7 132.4 139.8 134.3C136.8 132.8 134.8 130.2 135.5 126.4C135.9 124.1 136.7 121.4 140.1 122C139.7 127.7 141.8 132.1 147.7 133.1C152.6 134 157.5 133.3 162 130.4C163.5 129.4 164.6 127.2 167 127.8C168.8 130.1 167.3 131.9 165.7 133.3C163 135.8 159.8 137.4 156 138C156.6 138.5 157.5 138.1 158.1 138.5C159 138.9 160.4 139.8 159.8 140.5C158.2 142.3 161.7 146.1 157.2 146.5C155.6 146.6 155.9 149.3 153.9 148.9C152.9 147.9 151.8 147 150.8 146C147.2 145.7 144.6 143.2 141.6 141.5C140.8 141 139.8 140.3 138.9 140.9C137.9 141.5 138.4 142.7 138.5 143.7C138.6 145.3 140.3 147.2 138 148.6C137.5 148.7 137.1 148.7 136.6 148.6C133.8 145.5 132.4 149.5 130.3 149.8C130.3 153.2 132.8 155.8 132.8 159.2C131.5 161.6 135.1 164.1 132.8 166.6C131.4 165.4 129.9 164.3 128.5 163.1C126.6 161.9 124.6 160.8 123.5 158.6C122.4 156.9 121.5 155.2 120.5 153.1C118.7 154.2 118 156.1 116.8 157.5C113.7 161 110.3 164.2 105.7 165.7C98.9999 169.9 92.2998 174.4 84.5998 176.7C90.3998 172.7 97.1999 170.2 102.2 165C103.6 161.2 107.5 159.7 110 157C113.8 153 113.7 151.5 108.8 148.6C107.2 147.6 107.3 146.3 107.1 144.8C106.3 140.3 103.7 138.9 99.3998 140.4C96.8998 141.3 94.4998 142.1 91.8998 142.8C87.3998 145.4 84.7998 150 80.9998 153.4C80.4998 152.9 80.4998 152.4 80.9998 151.9L81.0998 151.7Z" fill="#2A201C"/>
<path d="M44.2 185.9C40.7 185.3 42.9 182.2 41.9 180.6C41.9 178.9 41.9001 177.1 42.0001 175.4C41.3001 173.6 42.9 170.3 38.9 170.5C37.8 170.1 36.7001 170.3 35.6001 170.1C34.1001 169.9 33.1 169.3 34.4 167.7C39.7 166.1 44.2001 162.9 48.8001 159.1C49.3001 162.9 46.4 165 45.7 167.9C48.1 168.9 47.8001 165.5 49.0001 165.6C54.1001 172.9 56.1 181.5 62.7 188.3C62.1 183.1 61.7001 178.6 61.1001 173.6C67.4001 181.9 74.0001 189.4 78.1001 198.7C77.8001 193.7 74.5001 189.4 75.6001 183.2C81.7001 189.8 83.6001 198.2 90.2001 204.7C88.9001 197 89.0001 190.3 90.0001 183.3C93.9001 190.9 96.5001 199.4 103.7 205.3C104.1 203.7 104.4 202.5 104.7 201.2C106.8 201.6 106.2 204.8 108.8 204.7C108.8 200.2 110.7 196 112 190.7C115.3 200.1 113.2 209.7 118 217.7C118 218.6 117.9 219.6 118.5 220.9C121.1 218.9 123.3 216.9 124.1 213.7C125.8 211.4 127.8 209.4 130.1 207.6C131.2 208.4 131 209.8 131.6 210.8C129.7 213.3 127.8 215.8 125.9 218.4C122 221.8 118.9 226.1 114.6 229C112.7 229.7 113.3 228.4 113.5 227.6C114.6 222 114.5 216.4 113 210.8C112.467 208.933 111.9 208.267 111.3 208.8C110.9 211 110.5 213.2 110.1 215.5C106.6 214 105 210.6 102.3 208.3C99.4 205.8 96.4001 203.6 92.6001 201.9C92.6001 206 94.1001 209.2 96.1001 213.1C85.0001 209.1 77.7001 201.5 70.6001 193.5C69.1001 192.8 68.6001 191.2 67.5001 190.1C66.8001 191.1 67.2001 192.6 66.0001 193.4C65.5001 194.7 66.9 196.4 65.2 197.4C59.6 189.4 53.4001 181.8 50.0001 172.3C49.8001 176.9 46.2001 180.2 46.1001 184.6C45.5001 185.1 44.9001 185.5 44.3001 186L44.2 185.9Z" fill="#AC9D81"/>
<path d="M154.1 148.6C153.2 144.2 156.4 144.4 159.1 144.4C159 142.1 156.9 143 155.9 142C156.9 141.5 157.9 140.9 159.7 140C156.4 139.6 154.1 138.8 151.8 137.1C158.1 135.7 164.8 135.1 167 127.6C167 127.4 167 127.2 166.8 126.9C166.3 125.2 167.3 123.7 167.4 122C167.9 115.9 168 115.9 173.6 118.8C174 119 174.4 119.1 174.9 119.2C177.7 125.5 183.2 129.8 187.3 135.1C189.7 138.2 188.8 141.4 189.1 144.4C189.3 146 185.3 146.5 184 149.2C183 151.3 179.4 152.7 176.7 153.4C171.2 154.8 165.4 156.1 160.1 152.4C159.8 152.2 159.3 152.4 158.8 152.6C156.8 152.6 156.5 150.1 154.8 149.6C154.5 149.3 154.2 148.9 153.9 148.6H154.1Z" fill="#6E554A"/>
<path d="M131.5 210.7C127.1 211.5 130.9 208.4 130 207.5C135.4 200.4 141 193.5 145.1 185.2C144.4 190.5 143.6 195.6 143.3 201C147.2 200.7 147.5 196.7 150.5 195.2C151.1 198.7 148.1 200.8 147.4 203.9C152.5 201.3 155.9 197.3 159.1 192.9C160.9 195.5 158.2 197.5 159.5 199.9C165.3 194.1 171.2 188.6 175.3 181.1C177.2 184.6 174.6 187.7 176 190.6C170.7 201.1 163 209.2 152.6 214.8C152.6 212.3 152.1 209.7 152.3 207.4C151.5 208.4 150.2 208.9 148.9 209.5C144.7 212.8 140.4 216.1 135.2 217.8C134.4 218.1 133.4 219 132.9 217.4C135.3 212.6 134.6 207.1 137.1 202.3C134.2 204.6 134.1 208.4 131.5 210.8V210.7Z" fill="#AD9C7E"/>
<path d="M73.0999 120.6C75.0999 118.2 76.8999 115.6 80.0999 114.5C80.8999 114.2 81.7998 113.7 81.9998 113C82.9998 108.5 85.8998 106.8 90.2998 107.3C95.9998 101.3 100.7 106.9 105.6 108.7C108 109.5 109.9 111.3 110.5 113.9C110.9 115.7 112.4 116 113.6 116.9C115.3 121.7 110.6 120.6 108.8 122.2C108.6 122.4 108.3 122.7 108.2 123C105.4 131.5 102.2 134 94.5999 133.7C87.4999 133.4 83.8999 129.9 82.0999 121.6C82.0999 121.2 82.0998 120.9 81.6998 120.8C81.5998 120.8 81.3998 120.9 81.1998 121C80.7998 121.1 80.4999 121.2 80.0999 121.1C78.3999 120.5 76.8999 121.3 75.2999 121.7C74.4999 121.9 72.8998 122.9 73.1998 120.6H73.0999Z" fill="#171718"/>
<path d="M112.9 117.6C109.6 117.6 109.7 117.6 109.1 113.9C108.9 113 107.7 112.1 106.8 111.4C103.3 108.8 97.9999 106.8 91.4999 105.8C92.8999 107.1 93.9999 108 95.4999 109.3C91.2999 109.3 87.4999 108.2 83.7999 110C84.7999 110.6 85.6999 111.2 86.7999 111.9C84.6999 113.8 82.1999 114 79.8999 114.5C75.8999 110.1 79.0999 107.8 82.4999 105.5C83.5999 104.7 85.3999 104.6 84.8999 102C84.5999 100.4 87.5999 100.4 89.3999 100.4C96.0999 100.5 102.8 100.7 108.3 105.1C112.7 108.6 115.5 104.8 117.8 102.7C122.7 98.1998 125.2 92.1998 126.1 85.4998C126.2 84.5998 126.7 83.6998 127.5 82.7998C127.6 92.0998 129.9 100.7 135 108.5C135 108.7 135 109 135.1 109.2C135.3 110.2 135.1 111.2 134.7 112.1C134 113.6 133.4 115.6 131.5 115.6C129.4 115.6 129.4 113.4 129.1 111.9C127.9 107.2 124.6 102.9 126.3 98.4998C125.9 102.9 125.5 108.4 121.7 112.7C120.6 114 119.3 116.5 117.1 113.7C117 113.5 116.8 113.6 116.6 114.2C116.1 116.2 114.7 117.2 112.8 117.7L112.9 117.6Z" fill="#AD9C7F"/>
<path d="M73.1 120.6C75.2 121.4 76.2 119.4 77.5 118.6C80.2 117 80 118.9 80.1 120.5C82.2 123.8 81.7999 127.8 83.3999 131.2C83.8999 132.4 82.7 133.3 81.2 132.7C79.7 133.8 79.7999 135.1 81.3999 135.7C86.6999 137.8 85.1 141.1 83.1 144.5C81.8 145.2 80.6999 144.1 79.3999 144.1C78.7999 143.9 79.2999 144.9 79.3999 144.2C79.3999 144 79.9 144.1 80.2 144.2C81 144.5 81.7 144.8 82.1 145.5C80.2 146.7 84.3999 148.2 81.8999 149.4C75.3999 151.2 69.6 149.6 64 146.1C62.9 145.4 62.7 144.4 62.7 143.2C62.8 138.7 62.8999 134.5 66.3999 130.7C69.0999 127.8 70.7 123.9 72.8 120.4L73.1 120.6Z" fill="#6C5549"/>
<path d="M92.0999 142.6C94.7999 139.5 98.8999 138.4 102.5 137.3C106.2 136.1 109.9 142.3 108.5 147.1C111.1 146.7 114.3 144.6 113.8 150.3C113.5 153.5 114.9 154 113 156.2C110 159.7 106.4 162.6 102.3 164.9C101.4 162.3 99.6999 165.4 98.5999 164.3C99.4999 162 100.4 159.6 101.6 156.3C97.6999 158.5 94.7 160.1 91.2 162.1C92 156.1 98.6999 153.6 98.2999 147.6C95.9999 147.6 95.0999 150.3 92.4999 149.7C93.2999 147 96.9999 146 96.8999 142.4C95.2999 142.6 93.6999 144.4 92.0999 142.8V142.6Z" fill="#6E5851"/>
<path d="M65.6999 79.5999C63.9999 78.3999 63.8999 78.3998 63.2999 79.9998C61.9999 83.6998 61.8999 87.6999 61.3999 91.5999C58.2999 81.3999 58.5999 71.0999 60.7999 59.5999C66.1999 66.9999 75.5999 67.8998 81.0999 74.8998C78.1999 76.0998 76.3999 72.1999 74.0999 74.6999L73.7999 74.9998H73.3999C72.3999 76.6998 74.0999 77.5999 74.6999 78.6999C75.5999 80.5999 75.0999 81.3998 73.2999 81.7998C72.5999 81.7998 71.9999 81.7999 71.3999 81.5999C69.3999 81.2999 66.5999 83.2999 65.6999 79.6999V79.5999Z" fill="#80513D"/>
<path d="M193.9 189.2C193.4 188.7 193 188.1 192.5 187.6C190.9 183 191.4 178.3 191.8 173.6C191.8 172.8 193.6 169.9 190.1 170.7C195.2 163.9 195.4 155.6 197.3 147.4C200.1 151.8 201.5 156.3 202.9 161.2C205.1 158.9 204.9 156.5 205.1 154.2C205.3 151.9 205.8 149.6 206.2 147.4C206.8 150.8 207.4 154.1 208 157.5C207.6 161.3 207.3 165.1 206.9 168.8C206.8 170.2 207 171.9 205 172.4C204.7 170.1 203.3 168.3 201.8 166.6C200 163.6 198.3 160.5 198.8 156.7C198.2 156.7 197.7 156.8 197.1 156.9C197.1 162.1 197.1 167.4 197.1 172.6C196 178.1 194.9 183.7 193.8 189.2H193.9Z" fill="#AB9C83"/>
<path d="M105.9 165.4C109.3 162.5 112.7 159.5 116.1 156.6C117.4 160.3 117.4 160.4 120.3 157.3C122.2 155.2 123.5 157.3 125 157.8C126.3 159.4 127.5 161.1 128.8 162.7C126.5 163.5 125.7 165.1 124.6 167.3C122.7 171.3 119.5 174.6 120.2 179.8C117.3 178 118.8 175.1 117.4 173.3C115.5 173.2 116.6 176.1 115 175.8C113.3 175.5 113.3 173.6 113 172.2C112 168.5 110.4 165.4 105.9 165.4Z" fill="#AD9C7D"/>
<path d="M130 148.7C133.3 148.1 131.4 145.2 132.5 143.3C134.6 143.8 135.6 145.7 137.1 147.1C139 149.3 141.1 151.3 143.9 152.4C146.8 153.8 148.8 156 150.6 158.5C152 160.6 153.4 162.7 155.2 165.4C149.7 164.3 145.8 161.5 141.4 159.1C144.3 161.7 142.2 165.3 143.5 168.3C138.6 167.1 137.5 162 134 159.6C133.1 159.9 132.8 159.4 132.7 158.7C132.7 155.2 128.7 152.7 130 148.8V148.7Z" fill="#6E574E"/>
<path d="M135.2 108.5C138.9 111 140.7 108.9 143 106C145 103.5 147.9 101.6 150.8 100.4C153.1 100.2 148.6 104.3 152.7 102.8C159.1 100.5 164.5 104.9 167.8 108.1C170.4 110.5 174.3 114.4 175 119.2C175 119.4 175 119.6 175 119.8C171.1 117.7 166.3 116.8 163.2 114.2C160.3 111.8 157.9 110.8 154.4 110C148.6 108.8 144.5 109.8 140.6 115.8C136.9 117 135.1 116.2 134.7 112.8C134.5 111.5 134.5 110.1 134.9 108.8C135 108.6 135.2 108.5 135.3 108.3L135.2 108.5Z" fill="#AD9C82"/>
<path d="M150.6 158.5C147.4 157.9 145.9 155 143.2 153.6C141.2 151.9 138.5 150.7 138 147.7C137.7 144.5 134.7 140 137 138.4C140.2 136.2 143.3 140.5 146.3 142.3C148 143.3 149.8 144 151 145.7C148.7 146.2 150.6 148.2 150.6 148.2C153.4 150.5 150.9 154 152.6 156.6C154.6 159.6 149.9 156.5 150.6 158.5Z" fill="#6E5750"/>
<path d="M188 186.4C187.1 188.5 186.2 190.5 185.3 192.6C183.6 194.6 181.9 194.7 180.2 192.6C179.5 191.5 178.8 190.5 178.1 189.4C178.7 184.9 181.9 181.5 184 177.7C186.2 173.9 187.4 170 188.3 165.5C190.1 167.7 188.1 170.5 189.9 172.4C190.2 177.2 188.1 181.6 188 186.3V186.4Z" fill="#AD9D7F"/>
<path d="M199 112.7C200.3 113.7 201.6 114.7 202.9 115.6C210.2 124 215 133.6 217.3 144.5C217.3 145.4 216.8 145.7 216 145.4C214.2 142.3 211.7 139.8 209 137.5C208.3 136.1 205.7 136.2 206.3 133.5C209 134.1 209.9 137.1 212.8 138.1C209.1 126.9 201.6 118.9 194.4 110.2C196.9 110 197.3 112.4 198.9 112.6L199 112.7Z" fill="#EDEADC"/>
<path d="M41.1999 142.7C37.4999 143.7 35.7999 147.1 33.0999 149.4C31.0999 149.6 29.6999 149.2 30.7999 146.7C33.8999 143.7 35.2999 139.5 37.6999 136C39.5999 133.2 41.9999 131.3 44.5999 129.2C43.3999 133.7 40.9999 137.9 41.2999 142.7H41.1999Z" fill="#AC9D7C"/>
<path d="M173.1 88.5999C180.6 85.8999 187.3 89.2999 195.7 91.0999C191 92.9999 187.6 94.3999 184.2 95.7999C182.2 92.2999 187.2 94.1999 186.8 91.2999C182.7 90.1999 178.3 90.4999 173.7 91.2999C172.7 91.4999 171.1 92.1999 170.8 90.6999C170.5 89.3999 172.3 89.2999 173.1 88.5999Z" fill="#F1E9D7"/>
<path d="M103.1 74.7999C103.1 75.0999 103.1 75.3999 103.1 75.6999C101.8 76.5999 100.9 79.3999 98.8999 76.9999C96.5999 74.0999 94 74.4999 91.2 75.7999C89.5 73.3999 88.9 70.1999 86.2 68.3999C88.2 67.2999 89.9999 69.1999 91.9999 68.7999C95.9999 70.2999 98.6999 74.0999 103.1 74.7999Z" fill="#DDD2C2"/>
<path d="M159 76.9998C166.1 74.5998 173.3 73.9998 182 74.2998C179.9 75.5998 179 76.1998 178 76.7998C174.1 74.6998 170.3 76.7998 166.7 77.6998C162.8 78.7998 158.9 79.9998 154.9 80.3998C154.2 76.3998 156.6 76.6998 159 76.9998Z" fill="#E1D5C6"/>
<path d="M42.2999 154.7C40.2999 155.4 38.3998 156.1 36.4998 156.9C35.9998 156.7 35.5999 156.6 35.0999 156.4C35.6999 155.2 36.2998 153.9 36.8998 152.7C39.8998 149.7 43.3998 147.4 47.9998 144.3C45.6998 148.5 43.9999 151.6 42.2999 154.7Z" fill="#B09F88"/>
<path d="M56.2 97.7998C55.6 96.2998 54.9 94.8998 54 92.7998C58.8 95.1998 60.7 99.0998 63.1 102.7C64 105 63.6 107 61.8 109.4C60.3 105 58.3 101.4 56.3 97.7998H56.2Z" fill="#EEE3D5"/>
<path d="M124 213.6C125.4 213.9 126.2 214.5 125.1 215.9C123.7 217.7 122.4 219.6 120.8 221.2C119.7 222.2 118.6 225.1 116.8 223.2C115.4 221.7 115 218.9 118 217.6C120.8 217.4 121.8 214.6 124 213.6Z" fill="#AD9C7E"/>
<path d="M63.8999 85.3998C63.9999 83.4998 63.5999 81.4998 64.8999 79.7998C67.9999 81.7998 70.6999 83.9998 70.9999 88.0998C66.9999 90.0998 72.7999 92.6998 70.1999 94.9998C68.0999 91.7998 65.9999 88.5998 63.8999 85.3998Z" fill="#E9DAC3"/>
<path d="M137.9 169.5C145 175.2 154.2 177 161.4 182.4C152.8 179.6 144.7 175.7 137.9 169.5Z" fill="#4F422E"/>
<path d="M71.1 88C68.2 85.9 67.4 82.2 65 79.7C65.2 79.6 65.5 79.5 65.8 79.5C67.1 79.3 68.7 82.7 69.6 79C69.8 78.2 70.8 77.8 71.4 78.8C71.7 79.2 71.3 80 71.2 80.6C72.6 82 73.4 83.6 72.3 85.5C72.1 86.4 72.6 87.6 71.1 87.9V88Z" fill="#48372C"/>
<path d="M154 70.7998C156.7 66.8998 161.5 66.9999 165.3 65.0999C166.7 64.8999 167.7 64.8999 166.2 66.5999C165.8 66.9999 165.3 67.3999 164.9 67.6999C162.6 67.6999 160.9 69.0998 159 69.9998C157.5 70.6998 156 72.3998 154.1 70.7998H154Z" fill="#DFE2D9"/>
<path d="M181.1 99.2998C184.1 98.7998 186.9 99.2998 189.8 100.1C190.6 100.3 190.6 100.5 189 101.8C186.3 104 183.4 101.5 180.5 101.9C180 101.9 180.9 100.2 181 99.2998H181.1Z" fill="#EBE1D2"/>
<path d="M72.6 80.7999C76.2 78.3999 71.7 77.0999 71.8 75.0999C71.8 74.3999 70.9 73.3999 72.4 73.4999C72.8 73.4999 73.1 74.4999 73.4 74.9999C74.9 77.9999 76.6 80.8999 77.7 84.0999C78.5 86.4999 77 85.3999 76.1 84.6999C74.2 84.0999 72.5 83.1999 72.6 80.7999Z" fill="#402F23"/>
<path d="M77.2 76.0999C80.6 77.2999 83.7 78.7999 86.1 81.5999C86.1 82.6999 85.8999 83.7998 85.7999 84.8998C83.6999 80.9998 79.1 79.7999 77.2 76.0999Z" fill="#E8DDC7"/>
<path d="M133 158.7C133.3 159 133.6 159.3 133.9 159.6C134.5 161 135.2 162.3 135.6 163.7C135.9 164.7 137.5 165.7 136.3 166.8C135.2 167.8 134 166.8 132.9 166.2C132.9 163.7 129.9 161.5 131.9 158.7C132.3 158.4 132.6 158.4 133 158.7Z" fill="#67534A"/>
<path d="M124 75.7C124.3 74.4 125.6 73.4 125.2 71.9C128.6 71.6 128.5 74.9 130 76.6C130 77.2 130.9 77.8 129.9 78.2C128.7 75.6 125.7 77.2 124 75.7Z" fill="#D6D2C6"/>
<path d="M211.1 147.5C212.2 150 212.8 152.5 211.1 155C209.3 152.1 208.3 149 208.3 145.6C208.6 145.6 208.8 145.6 209.1 145.6C210.4 145.5 209.9 147.5 211.2 147.5H211.1Z" fill="#A5A39F"/>
<path d="M72.5999 80.7999C73.5999 82.2999 75.5999 82.8 76.0999 84.7C75.4999 88 73.0998 83.3999 72.1998 85.5999C71.7998 83.9999 71.4999 82.3 71.0999 80.7C71.5999 80.7 71.9998 80.7 72.4998 80.7L72.5999 80.7999Z" fill="#E8D8CA"/>
<path d="M34.2999 167.6C35.2999 171.3 38.4999 168.9 40.4999 169.8C40.0999 171.2 39.1999 171.3 38.0999 170.8H30.8999C31.3999 168.7 32.6999 167.7 34.1999 166.8C34.1999 167.1 34.1999 167.4 34.1999 167.6H34.2999Z" fill="#979E9B"/>
<path d="M211.1 147.5C210.567 148.167 209.867 147.533 209 145.6C209.5 143.6 206.9 141.6 209 139.6C210.6 141.7 210.3 144.3 211.2 146.6C211.2 146.9 211.2 147.2 211.1 147.5Z" fill="#DDD9C9"/>
<path d="M155 149.7C157.2 149.5 157.6 151.7 159 152.7C160.2 154.8 162.5 156.3 161.7 159.5C159.4 156.1 157.2 152.9 155 149.7Z" fill="#392A20"/>
<path d="M141.2 71.2998C142.6 71.3998 143.9 71.5998 145.3 71.6998C143.6 72.9998 141.8 74.3998 139.8 75.9998C139.3 73.7998 140.4 72.5998 141.2 71.2998Z" fill="#2F3433"/>
<path d="M81.1 151.7C81.1 152.2 81.1 152.7 81.1 153.2C80 155.3 78.5 157 75.7 158.9C77.2 155.5 79.1 153.6 81 151.7H81.1Z" fill="#65593F"/>
<path d="M178.5 85.0999C179.9 83.3999 181.2 81.9999 182.4 80.4999C181.6 78.6999 179.8 80.1999 178.8 78.8999C180.9 76.3999 184.3 75.6999 187 73.4999C182.9 70.6999 178.4 72.0999 173 71.1999C179.1 68.4999 184.1 66.2999 189.6 63.8999C190.2 68.9999 191.3 73.5999 191.1 78.2999C190.9 85.4999 189.4 86.8999 182.2 85.6999C181.5 85.5999 180.9 85.6999 180.2 85.4999C179.8 85.4999 179.3 85.1999 178.5 84.8999V85.0999Z" fill="#7E5142"/>
<path d="M65.9 193.2C65.9 190.7 66.5001 188.1 66.1001 185.3C67.5001 188 69 190.6 70.4 193.3C70 193.3 69.7 193.3 69.3 193.4C68.2 191.5 67 192.6 65.8 193.2H65.9Z" fill="#36372D"/>
<path d="M148.9 209.5C150.8 207.5 152.7 205.6 154.6 203.6C155 203.8 155.3 204.1 155.7 204.3C152.3 207.2 153.3 211.2 152.6 214.8C151.4 213.9 152.4 212.6 152 211.6C151.8 209.7 150.3 209.6 148.9 209.5Z" fill="#44413D"/>
<path d="M180.2 192.7C181.9 193 183.6 193.7 185.3 192.7C184.5 194.7 183.8 196.6 183 198.6C182.4 199.2 181.8 199.7 181.2 200.3C181.2 197.7 181.1 195.2 180.2 192.7Z" fill="#9B9795"/>
<path d="M38.0999 170.8C38.8999 170.5 39.6998 170.2 40.4998 169.8C46.0998 170.3 41.2998 173.6 41.8998 175.4C41.1998 173.4 40.4999 171.4 38.0999 170.8Z" fill="#2B2C30"/>
<path d="M111.2 208.7C111.2 206.5 110.5 204.2 111.9 201.6C113.8 204.7 112.9 207.7 112.9 210.6C112.3 209.9 111.7 209.3 111.2 208.6V208.7Z" fill="#544329"/>
<path d="M134.8 109C136.2 111.5 134.6 116.4 140.1 115.7C142.4 117.3 142 119.3 140.7 121.3C140.5 121.4 140.3 121.6 140.1 121.7C135.2 126.5 135.5 129.3 140.8 133.2C142.2 134.2 144.3 134.5 144.6 137.8C139.8 135 134.4 134.9 130.6 131C126.5 126.9 119 126.8 113.3 131C111.5 132.3 110.1 133.6 109 130.6C108.5 127.3 106.9 124.2 107 120.8C108.4 118.6 112.5 121.6 112.9 117.7C114.8 115.4 116.3 112.9 117.7 108.9C118 111.5 118.2 112.7 118.4 114C125.5 109 123.2 100.2 126.6 93.2C127.2 101 130.2 107.7 131.7 115.2C132.8 113 133.8 111.1 134.8 109.1V109Z" fill="#362723"/>
<path d="M122.2 129.6C124.8 129.6 127.3 129.8 128.6 132.4C129.3 133.8 128.8 136.2 127.4 136.1C122.9 135.6 124.1 145.3 118.1 141C115.6 139.3 113.2 136.8 114.3 133.5C115.4 130 118.8 129.5 122.1 129.5L122.2 129.6Z" fill="#432826"/>
<path d="M107 120.7C108.1 123.9 112.2 126.5 109 130.5C101.8 136.2 94.0999 135.5 86.1999 132.4C81.0999 129.7 80.0999 127.3 80.9999 120.6C81.3999 119 81.9998 117.5 83.2998 116.3C84.2998 117 83.6999 117.8 83.5999 118.5C83.1999 122.9 83.3999 127.2 87.5999 130C91.9999 132.9 96.5998 132.8 101.4 130.9C106.2 129 105.6 124.3 107 120.7Z" fill="#3C98AB"/>
<path d="M167 127.7C161.8 134.8 150.2 136.8 142.5 132.7C136.9 129.7 138.3 125.9 140.1 121.7C142.4 119 143 121.6 143.8 123C145 125.1 145.4 127.7 147.7 129.1C153.2 132.5 160.7 129.7 162.7 123.6C163 122.6 163.2 121.7 163.4 120.7C163.8 119.1 163.4 116.4 166 116.8C168.2 117.1 167.9 119.6 168 121.4C168 123.5 167.7 125.7 167 127.7Z" fill="#3C95AB"/>
<path d="M124.9 157.8C121 156.9 120.1 159.3 119.9 163.9C118.8 159.7 117.3 160.2 115.7 162.2C114.8 160.1 116.3 158.4 116 156.7C117.5 154.3 119 151.8 120.7 149C122.3 152.3 123.6 155.1 124.9 157.9V157.8Z" fill="#6B5850"/>
<path d="M81 120.6C80.7 125.4 82.2 129.5 86.2 132.4C84.7 134.2 83 133.9 81.2 132.7C82.4 132.4 82.8 131.6 82 130.6C79.5 127.6 80 124 80.1 120.5C80.4 120.5 80.7 120.5 81 120.5V120.6Z" fill="#1E424C"/>
<path d="M133 158.7C132.6 158.7 132.3 158.7 131.9 158.7C130.2 155.5 128.8 152.1 128.4 148.5C128.2 146.3 129.3 148.8 129.9 148.7C129.7 152.4 133.8 154.8 133 158.7Z" fill="#98837E"/>
<path d="M82.2 145.8C80.4 145.2 78.5 144.6 76.7 144C76.8 143.6 76.9 143.2 77 142.9C79 143.5 81.1 144.1 83.1 144.6C84.1 146 82.6 145.5 82.2 145.8Z" fill="#907D72"/>
<path d="M138 147.7C139.7 149.7 141.4 151.7 143.2 153.6C139.9 152.6 137.6 150.7 137.1 147.1C137.4 147.3 137.7 147.5 138 147.6V147.7Z" fill="#998179"/>
<path d="M167 127.7C167.2 124.1 168.6 120.3 165 116.4C165 118.4 165 119.5 165 120.6C164.7 127.6 161.2 131.6 154.8 132.3C147.9 133 143.6 130 142.2 123C141.9 121.4 141.5 121 140.1 121.8C140.1 119.8 140.9 117.8 140.1 115.8C139 113.7 140 112.4 141.7 111.4C146.3 108.7 151 106.4 156.5 105.8C156.2 107.6 153.8 107.5 153.7 109.4C157.2 109.2 160.8 108.4 164.5 110.1C163.4 110.8 162.5 111.4 161.2 112.2C166.2 114.6 171.8 115.3 175 120C172.5 121.5 171.4 118.5 169 118.2C169 121.6 169.2 125 167.1 127.9L167 127.7Z" fill="#171718"/>
<path d="M162 119.4C161.8 120.5 161.2 121.2 160.1 121.3C159.1 121.3 158.5 120.7 158.5 119.8C158.5 118.8 158.8 117.8 160 117.6C161.2 117.5 161.7 118.3 162 119.3V119.4Z" fill="#B2B8B9"/>
</svg>
