<svg width="33" height="32" viewBox="0 0 33 32" fill="none" xmlns="http://www.w3.org/2000/svg">
<path d="M14 29C21.1797 29 27 23.1797 27 16C27 8.8203 21.1797 3 14 3C6.8203 3 1 8.8203 1 16C1 23.1797 6.8203 29 14 29Z" fill="white" stroke="#EB4747" stroke-width="0.32874" stroke-miterlimit="10"/>
<mask id="mask0_663_254173" style="mask-type:luminance" maskUnits="userSpaceOnUse" x="2" y="4" width="24" height="24">
<path d="M14.0001 27.1506C20.1584 27.1506 25.1506 22.1584 25.1506 16.0001C25.1506 9.84186 20.1584 4.84961 14.0001 4.84961C7.84186 4.84961 2.84961 9.84186 2.84961 16.0001C2.84961 22.1584 7.84186 27.1506 14.0001 27.1506Z" fill="white"/>
</mask>
<g mask="url(#mask0_663_254173)">
<path d="M7.03815 27.3515C7.0037 27.3515 6.9712 27.3367 6.94855 27.3108C6.92592 27.2849 6.91541 27.2507 6.92 27.2166C7.00765 26.5476 7.19146 25.8577 7.4514 25.2209C7.75798 24.4702 8.15613 23.8206 8.63536 23.2902C8.97936 22.9088 9.36471 22.5924 9.78024 22.3495L9.91121 22.273L9.80586 22.1637C9.59216 21.9421 9.41919 21.6927 9.29185 21.4222C9.10672 21.029 9.01284 20.5823 9.01284 20.0949C9.01284 19.2746 9.25277 18.4546 9.70639 17.7243C9.77565 17.6124 9.85114 17.5011 9.93091 17.3934L9.95357 17.3629L9.95422 17.3249C9.96636 16.7357 9.98571 16.1393 10.0028 15.6131L10.0077 15.4598C10.013 15.2957 10.0186 15.1283 10.0238 14.9609L10.0281 14.824L9.89186 14.8385C9.8029 14.848 9.71426 14.8526 9.62829 14.8526C9.05877 14.8526 8.53853 14.6287 8.16368 14.222C7.8059 13.8344 7.60895 13.32 7.60895 12.7739C7.60895 12.7121 7.61159 12.6508 7.61651 12.5914V12.5881C7.64276 12.2828 7.73272 11.9868 7.87713 11.7307C8.00678 11.5006 8.17615 11.307 8.37966 11.1553L8.43317 11.1156L8.42726 11.0493C8.41871 10.9535 8.41447 10.8589 8.41447 10.7683C8.41447 10.3928 8.48502 10.0259 8.62389 9.67697C8.75943 9.33625 8.95374 9.02967 9.20125 8.7651C9.72018 8.2104 10.4154 7.90514 11.1588 7.90514C11.4825 7.90514 11.8012 7.96453 12.1058 8.08172C12.3392 8.17132 12.5624 8.29474 12.7692 8.44836L12.8736 8.52582L12.9418 8.41523C13.209 7.98292 13.5494 7.64256 13.9531 7.40293C14.4081 7.13346 14.9326 6.99658 15.5129 6.99658C16.0213 6.99658 16.4976 7.11441 16.8905 7.33762C17.2522 7.54309 17.5345 7.83816 17.7068 8.19134L17.7508 8.28162L17.8473 8.25373C18.016 8.20513 18.19 8.18051 18.3643 8.18051C18.7171 8.18051 19.0752 8.27867 19.3999 8.46444C19.7265 8.65123 20.0015 8.91709 20.1955 9.23318L20.1991 9.2391C20.4033 9.5739 20.5113 9.95989 20.5113 10.3554C20.5113 10.8829 20.3186 11.4399 19.9831 11.883C19.7376 12.2073 19.2952 12.6268 18.5826 12.7847L18.4848 12.8063L18.489 12.9065C18.4976 13.1041 18.5061 13.3023 18.5146 13.4956V13.5026C18.5304 13.8528 18.5465 14.2152 18.5599 14.5713C18.5707 14.8562 18.5793 15.1175 18.5855 15.3699L18.5872 15.4375L18.6459 15.471C19.0043 15.6745 19.3188 15.9955 19.5555 16.3992L19.5755 16.4334L19.6119 16.4488C19.8286 16.54 20.0317 16.6569 20.2155 16.7957C20.3098 16.8673 20.3636 16.9809 20.36 17.1L20.359 17.1361L20.378 17.1666C20.4184 17.232 20.4397 17.3094 20.4397 17.3912C20.4397 17.4135 20.4381 17.4371 20.4351 17.4607L20.4335 17.4732L20.4345 17.4857C20.4364 17.5211 20.4237 17.555 20.399 17.5789C20.274 17.7013 20.1358 17.81 19.9881 17.9025L19.9549 17.9232L19.9405 17.9597C19.7911 18.3378 19.5597 18.6362 19.2535 18.8462L19.1393 18.9247L19.2335 19.0261C19.3506 19.1522 19.4484 19.2861 19.5236 19.4239C19.6565 19.6675 19.7242 19.9288 19.7242 20.2012V20.2183L19.7232 20.2865L19.7816 20.322C19.7967 20.3312 19.8118 20.3417 19.8259 20.3535C19.9723 20.4746 20.0015 20.7087 19.8939 20.898C19.8187 21.0303 19.7035 21.1344 19.5417 21.2164L19.4557 21.2601L19.48 21.3533C19.4819 21.3615 19.4839 21.3697 19.4855 21.3779C19.5085 21.5007 19.4681 21.6408 19.3805 21.7429C19.2922 21.846 19.1747 21.9064 19.0713 21.9517C18.8717 22.04 18.6574 22.1046 18.4158 22.1493L18.3735 22.1572L18.3459 22.1903C18.08 22.508 17.698 22.7923 17.2404 23.0122L17.011 23.1225L17.2424 23.2285C17.8033 23.4852 18.234 24.0074 18.5231 24.7811C18.7661 25.431 18.9085 26.2548 18.9472 27.2297C18.9485 27.2619 18.9364 27.2937 18.9141 27.317C18.8918 27.3403 18.8603 27.3538 18.8281 27.3538H7.03883L7.03815 27.3515Z" fill="white"/>
<path d="M20.4794 17.1023C20.4843 16.9487 20.4147 16.7958 20.2877 16.6993C20.0957 16.5539 19.8843 16.4327 19.6585 16.3376C19.41 15.9135 19.0825 15.5803 18.705 15.366C18.6987 15.1135 18.6902 14.8503 18.6794 14.566C18.6659 14.2073 18.6495 13.8423 18.6341 13.4898C18.6255 13.2964 18.6167 13.0982 18.6085 12.9009C19.35 12.7368 19.8138 12.3045 20.0786 11.9549C20.4299 11.4915 20.6311 10.9082 20.6311 10.3551C20.6311 9.93726 20.5172 9.52992 20.3015 9.17641C20.3002 9.17445 20.2989 9.17214 20.2979 9.17018C20.0934 8.83702 19.8036 8.55702 19.4596 8.3601C19.1172 8.16414 18.7385 8.0604 18.3649 8.0604C18.1788 8.0604 17.9943 8.08665 17.8148 8.1382C17.6313 7.76204 17.3359 7.45186 16.9499 7.23293C16.539 6.99956 16.0423 6.87646 15.5132 6.87646C14.9112 6.87646 14.366 7.01891 13.8927 7.29955C13.4713 7.54934 13.1184 7.90252 12.8407 8.35155C12.625 8.19136 12.3933 8.06335 12.1491 7.96915C11.8307 7.84673 11.4976 7.7847 11.1592 7.7847C10.3822 7.7847 9.65615 8.1034 9.11456 8.68243C8.8569 8.9578 8.65471 9.27717 8.51323 9.63167C8.36847 9.99469 8.29529 10.3768 8.29529 10.7674C8.29529 10.8619 8.29988 10.9597 8.3084 11.0592C8.09113 11.2213 7.91157 11.4268 7.7734 11.6717C7.62042 11.9425 7.52525 12.2556 7.498 12.577C7.498 12.5782 7.498 12.5796 7.498 12.5809C7.49276 12.6436 7.49012 12.7086 7.49012 12.7736C7.49012 13.3496 7.69823 13.8928 8.07635 14.3028C8.47418 14.7341 9.0256 14.9717 9.62857 14.9717C9.71917 14.9717 9.81141 14.9668 9.90462 14.957C9.89938 15.1303 9.89347 15.3036 9.88823 15.473L9.88395 15.6092C9.86688 16.1376 9.84751 16.7337 9.83536 17.3222C9.75363 17.4329 9.67649 17.5464 9.60527 17.6613C9.13985 18.4107 8.89366 19.2523 8.89366 20.0949C8.89366 20.6003 8.99147 21.0638 9.18414 21.4731C9.31742 21.7564 9.49728 22.0154 9.72017 22.2468C9.29412 22.4959 8.89925 22.8199 8.54704 23.2105C8.05864 23.7514 7.65294 24.4125 7.34109 25.1763C7.07719 25.8223 6.89075 26.5227 6.80182 27.2015C6.79295 27.2698 6.81362 27.3384 6.85893 27.3899C6.90422 27.4415 6.96953 27.4713 7.03846 27.4713H18.8277C18.8927 27.4713 18.9548 27.4447 18.9997 27.3981C19.0447 27.3512 19.0687 27.2882 19.066 27.2232C19.027 26.2355 18.8816 25.3995 18.6344 24.7374C18.3337 23.9323 17.8824 23.3884 17.2916 23.1179C17.7672 22.8891 18.1578 22.5987 18.4371 22.2652C18.6879 22.2189 18.9118 22.1513 19.1189 22.0597C19.2341 22.0091 19.3667 21.9405 19.4707 21.8191C19.5814 21.6901 19.6319 21.5119 19.6027 21.3543C19.6007 21.3431 19.5981 21.332 19.5955 21.3212C19.7475 21.244 19.8978 21.1304 19.9976 20.9552C20.1335 20.7162 20.0924 20.4169 19.9021 20.2596C19.8833 20.2442 19.864 20.2304 19.8436 20.2183C19.8436 20.2121 19.8436 20.2058 19.8436 20.1999C19.8436 19.9074 19.7714 19.6268 19.6286 19.3655C19.5482 19.2181 19.4452 19.077 19.3211 18.9437C19.645 18.7218 19.8939 18.4021 20.0517 18.0027C20.2066 17.9058 20.3514 17.792 20.4827 17.6633C20.5319 17.615 20.5582 17.5477 20.5539 17.4785C20.5539 17.4775 20.5539 17.4765 20.5539 17.4755C20.5579 17.4467 20.5598 17.4181 20.5598 17.3902C20.5598 17.2852 20.5323 17.1867 20.4804 17.1027L20.4794 17.1023ZM17.0927 18.9299C17.309 19.0399 17.5259 19.1469 17.7393 19.2601C17.9533 19.3737 18.163 19.4939 18.3629 19.6281C18.4073 19.6567 18.4503 19.592 18.4076 19.5621C18.1099 19.3616 17.7925 19.1948 17.4731 19.0327C17.6182 19.0635 17.7656 19.0849 17.9139 19.0941C18.1565 19.1088 18.4063 19.0904 18.6423 19.0301C18.6712 19.0245 18.7148 19.0087 18.7434 19.0005C18.8001 18.9841 18.8569 18.9611 18.9121 18.9382C19.1202 19.1138 19.3014 19.3245 19.4202 19.57C19.4757 19.6846 19.5101 19.7981 19.5315 19.9022C19.5787 20.1326 19.4448 20.3617 19.2226 20.4385C19.2039 20.4451 19.1878 20.451 19.1753 20.4556C17.8 20.9824 16.2671 20.8383 14.8784 20.432C14.3814 20.2915 13.8953 20.0949 13.3826 20.0049C13.2086 19.9757 13.0137 19.9678 12.8532 20.0568C12.7317 20.1231 12.629 20.2475 12.6214 20.3919C12.6142 20.5334 12.6933 20.663 12.777 20.7668C13.3761 21.4452 14.9953 21.8503 15.8818 22.0032C16.1779 22.0544 16.4631 22.0866 16.7106 22.1069C17.0841 22.1375 17.2227 22.6177 16.9207 22.8399C16.8895 22.8629 16.8573 22.8852 16.8245 22.9069C16.5137 23.1127 16.1569 23.2364 15.7873 23.288C15.5444 23.3214 15.3051 23.3355 15.0773 23.3286C15.054 23.3276 15.0346 23.347 15.0359 23.371C15.0373 23.392 15.056 23.4074 15.077 23.4081C15.2283 23.412 15.3789 23.4058 15.529 23.392C15.5382 23.391 15.5473 23.39 15.5569 23.389C15.9783 23.3437 16.3578 23.6536 16.388 24.0764C16.3916 24.1256 16.3938 24.1752 16.3952 24.225C16.3978 24.3865 16.4152 24.5562 16.3617 24.7115C16.1897 25.1812 15.567 25.3023 15.1255 25.3706C14.5459 25.4487 13.9541 25.4477 13.3691 25.4461C13.2894 25.4445 13.2018 25.4399 13.1233 25.4271C12.7255 25.37 12.4524 25.1691 12.2742 24.811C12.2384 24.7391 12.2046 24.659 12.1767 24.5835C12.0835 24.3255 12.0172 24.0586 11.9403 23.7954C11.8553 23.5036 12.1028 23.2236 12.4028 23.2705C12.542 23.2925 12.6815 23.3096 12.82 23.3224C12.8413 23.3247 12.8607 23.3093 12.863 23.288C12.8653 23.2666 12.8469 23.2469 12.8259 23.2443C12.2633 23.1832 10.4022 22.4047 9.88787 21.0172C9.60395 20.2514 9.33022 16.8148 12.5972 15.709C12.3881 15.854 12.1885 16.0261 12.0027 16.2236C11.9893 16.2381 11.9863 16.2611 11.9985 16.2768C12.0139 16.2968 12.0428 16.2975 12.0592 16.2801C12.691 15.6075 13.4795 15.237 14.2797 15.237C15.2273 15.237 16.0515 15.7631 16.5603 16.6861C16.237 16.4944 15.9097 16.4009 15.5641 16.4009C15.1147 16.4009 14.6746 16.5584 14.2492 16.7108C13.812 16.8673 13.3593 17.0295 12.885 17.0295C12.6923 17.0295 12.4974 17.0111 12.3142 16.9927C12.2909 16.9904 12.2705 17.0085 12.2705 17.0324C12.2705 17.0531 12.2876 17.0702 12.3083 17.0721C12.4928 17.0908 12.6894 17.1092 12.885 17.1092C13.3734 17.1092 13.8323 16.9448 14.2761 16.7863C14.7146 16.6293 15.1288 16.481 15.5644 16.481C15.9386 16.481 16.2914 16.5962 16.6427 16.8329C16.6459 16.8351 16.6495 16.8365 16.6532 16.8378C16.7566 16.974 16.8363 17.1296 16.8373 17.3029C16.8357 17.3258 16.833 17.3488 16.8301 17.3718C16.7126 17.2497 16.5908 17.1296 16.4529 17.0255C16.3147 16.9185 16.1726 16.8489 16.0223 16.8063C16.017 16.8033 16.0108 16.8013 16.0049 16.8013C15.8539 16.7606 15.6954 16.7465 15.5237 16.7501C15.3839 16.7508 15.244 16.7642 15.1062 16.7875C14.8426 16.8315 14.5905 16.9215 14.3417 17.0177C14.3378 17.0186 14.3345 17.0199 14.3309 17.0219C14.1517 17.0915 13.9744 17.1637 13.7955 17.2238C13.4512 17.3429 13.0911 17.4043 12.7265 17.3945C12.7025 17.3938 12.6832 17.4148 12.6868 17.4398C12.6897 17.4591 12.7078 17.4729 12.7271 17.4732C12.8039 17.4746 12.8811 17.4732 12.9582 17.4696C13.0386 17.4657 13.1171 17.4946 13.1758 17.5497C13.3977 17.7568 13.6531 17.9295 13.9327 18.0496C14.112 18.1271 14.3 18.1819 14.4917 18.2147C14.498 18.2187 14.5052 18.2206 14.5121 18.2206C14.515 18.2206 14.518 18.2203 14.5209 18.2197C15.0133 18.2981 15.5296 18.2344 15.9891 18.045C16.0505 18.0194 16.1112 17.9912 16.1703 17.9603C16.1746 17.959 16.1789 17.9564 16.1828 17.9538C16.4208 17.8294 16.6387 17.6679 16.834 17.4851C17.1176 17.7224 17.4295 17.9068 17.7465 18.0296C17.7501 18.0316 17.7537 18.0332 17.758 18.0339C18.0488 18.1452 18.3439 18.2042 18.6259 18.2042C18.9078 18.2042 19.197 18.1569 19.4589 18.0667C19.4635 18.0657 19.4678 18.0644 19.4717 18.0621C19.5781 18.0247 19.6808 17.9804 19.78 17.9292C19.7688 17.9571 19.7563 17.9912 19.7419 18.0168C19.7163 18.0719 19.6795 18.1442 19.6473 18.1954C19.6208 18.2456 19.5673 18.3165 19.5351 18.3634C19.4914 18.4146 19.4511 18.4688 19.4022 18.5147C19.3884 18.5282 19.3631 18.5554 19.349 18.5686C19.3378 18.5784 19.2653 18.6401 19.2531 18.6506C19.2 18.69 19.1448 18.732 19.0871 18.7648C19.0618 18.7793 19.0263 18.8029 18.9994 18.8147C18.9708 18.8295 18.9397 18.8446 18.9078 18.859C18.9075 18.859 18.9072 18.859 18.9072 18.859C18.8606 18.8801 18.8123 18.8998 18.7683 18.9155C18.7335 18.9263 18.6823 18.9424 18.6475 18.9532C18.4099 19.0156 18.1634 19.0373 17.9182 19.0209C17.6471 19.0035 17.3792 18.9444 17.1212 18.8578C17.1002 18.8508 17.0766 18.8623 17.07 18.8856C17.0651 18.904 17.0753 18.9231 17.092 18.9319L17.0927 18.9299ZM19.5814 21.007C19.4448 21.1039 19.2801 21.1537 19.1179 21.1977C19.1156 21.1984 19.1133 21.1994 19.111 21.2004C19.1021 21.2027 19.0933 21.2053 19.0844 21.2086C18.1634 21.4078 17.2056 21.3615 16.2717 21.2758C15.3346 21.1899 14.3956 21.0123 13.5323 20.6279C13.4804 20.6082 13.4568 20.6795 13.5008 20.6998C14.3755 21.0776 15.3205 21.2555 16.2645 21.3467C17.2069 21.436 18.168 21.4823 19.1018 21.2864C19.1018 21.2864 19.1028 21.286 19.1034 21.286C19.1048 21.2857 19.1061 21.285 19.1074 21.2847C19.108 21.2847 19.1087 21.2847 19.1094 21.2841C19.1655 21.2614 19.2347 21.2742 19.2791 21.3162C19.3687 21.396 19.3309 21.5575 19.2551 21.6415C19.1724 21.7341 19.0578 21.784 18.9419 21.8319C18.4657 22.0255 17.9428 22.0663 17.4327 22.0636C16.9174 22.062 16.4024 22.0137 15.8943 21.9284C14.9516 21.7561 13.7877 21.4702 13.0137 20.8948C12.7554 20.6923 12.5138 20.3447 12.8886 20.1218C13.0337 20.0424 13.2093 20.0519 13.3701 20.0785C13.8792 20.1681 14.3591 20.363 14.8574 20.5042C16.4063 20.9542 17.9212 21.0573 19.4419 20.4425C19.4885 20.4287 19.537 20.4224 19.5824 20.4247C19.5843 20.4254 19.5863 20.4257 19.5882 20.426C19.5912 20.426 19.5942 20.426 19.5971 20.426C19.6966 20.4359 19.7793 20.491 19.7963 20.6105C19.8203 20.7664 19.713 20.9151 19.5807 21.008L19.5814 21.007ZM16.7142 26.335C16.7136 26.3136 16.6958 26.2969 16.6745 26.2969H16.6742C16.6541 26.2969 16.6341 26.2969 16.6141 26.2969C16.2918 26.2969 16.0144 26.2818 15.721 26.2657C15.3806 26.2473 15.0291 26.2283 14.5564 26.2283C14.2278 26.2283 13.8937 26.2348 13.5704 26.2411C13.2474 26.2473 12.9136 26.2539 12.5857 26.2539C12.4816 26.2539 12.3802 26.2532 12.2847 26.2519H12.284C12.263 26.2519 12.2456 26.268 12.2443 26.289C12.2253 26.5788 12.2042 26.8864 12.1734 27.1926C11.4493 27.1926 11.3315 27.1926 10.7006 27.1926C10.7531 26.8972 10.7909 26.5992 10.8109 26.3002C10.8828 25.1763 10.829 23.4353 10.0346 22.5317C9.99095 22.4818 10.0051 22.4043 10.0638 22.3738L10.0658 22.3728C10.1016 22.3544 10.1442 22.3587 10.1761 22.3836C10.5375 22.6663 10.9652 22.8796 11.4214 23.0329C11.532 23.07 11.6207 23.1537 11.6689 23.2604C11.7752 23.4977 11.8494 23.7504 11.9197 24.0038C12.008 24.318 12.0877 24.6445 12.2505 24.9314C12.4393 25.2643 12.7373 25.4533 13.1128 25.5052C13.1949 25.5183 13.2861 25.5232 13.3691 25.5249C13.96 25.5262 14.5502 25.5272 15.138 25.4477C15.6123 25.3746 16.2521 25.2449 16.4362 24.7355C16.493 24.569 16.4756 24.3934 16.472 24.2214C16.47 24.1305 16.4497 23.973 16.4273 23.8282C16.4004 23.6529 16.5022 23.4826 16.6702 23.4248C16.6722 23.4242 16.6742 23.4235 16.6765 23.4228C16.8632 23.3579 17.0677 23.4514 17.1406 23.6352C17.2361 23.8758 17.3379 24.186 17.4133 24.5536C17.5575 25.2551 17.6011 25.9785 17.545 26.6921C17.5305 26.8592 17.5092 27.0252 17.4892 27.193H16.7057C16.7155 27.0036 16.7204 26.8263 16.7204 26.6517C16.7204 26.5447 16.7185 26.438 16.7149 26.3346L16.7142 26.335ZM16.6404 26.652C16.6404 26.8267 16.6354 27.0039 16.6256 27.1933C15.2976 27.1933 14.4107 27.1933 12.2535 27.1933C12.2827 26.9018 12.3034 26.6094 12.3214 26.3327C12.4061 26.3336 12.4951 26.334 12.5857 26.334C12.9142 26.334 13.2487 26.3278 13.572 26.3212C13.895 26.3149 14.2288 26.3084 14.5564 26.3084C15.0268 26.3084 15.3773 26.3274 15.7164 26.3458C16.0111 26.3615 16.2895 26.377 16.6141 26.377H16.6361C16.639 26.4672 16.6404 26.5595 16.6404 26.652ZM9.39588 27.193C8.50995 27.193 7.82524 26.4134 7.94146 25.5351C8.02023 24.9396 8.20864 24.3075 8.56018 23.7967C8.86509 23.3539 9.22583 22.9226 9.67061 22.6101C9.78712 22.5281 9.94762 22.5543 10.031 22.6705C10.3779 23.1553 10.9189 24.2379 10.6258 27.1933H9.3962L9.39588 27.193ZM17.5627 27.1933C17.5811 27.0292 17.6008 26.8641 17.6136 26.6983C17.676 25.8039 17.6073 24.8454 17.3339 23.969C17.264 23.7445 17.5378 23.5761 17.7065 23.7399C17.778 23.8092 17.844 23.8837 17.9054 23.9621C18.5852 24.8743 18.7332 26.0835 18.7864 27.1933H17.5627ZM8.58217 11.2085C8.59528 11.2003 8.60219 11.1852 8.60023 11.1698C8.58249 11.0323 8.5733 10.8967 8.5733 10.7674C8.5733 10.0587 8.83755 9.38583 9.31742 8.87279C9.80582 8.35055 10.4597 8.06335 11.1588 8.06335C11.79 8.06335 12.3858 8.29903 12.8821 8.7451C12.8913 8.75333 12.9037 8.75693 12.9159 8.75461C12.928 8.75233 12.9382 8.74478 12.9438 8.73362C13.2149 8.2091 13.5818 7.80701 14.0345 7.53883C14.4645 7.2838 14.9621 7.1548 15.5132 7.1548C16.7257 7.1548 17.3983 7.79978 17.6306 8.41589C17.2479 8.58459 16.8875 8.88886 16.554 9.32708C16.5422 9.34283 16.5416 9.36581 16.5553 9.38024C16.5727 9.39863 16.6016 9.39631 16.6161 9.37696C17.1403 8.68799 17.7288 8.33876 18.3646 8.33876C19.0585 8.33876 19.8351 8.7963 20.1387 9.45146C20.4079 10.0325 20.2736 11.717 19.2758 11.717C19.0043 11.717 18.7883 11.584 18.6167 11.3818C18.4427 11.177 18.3511 10.9141 18.3508 10.6453V10.6308C18.3508 10.5619 18.3508 10.493 18.3515 10.424C18.3515 10.4021 18.3337 10.3843 18.3117 10.3843C18.2898 10.3843 18.272 10.4021 18.272 10.424C18.2714 10.493 18.2714 10.5619 18.2714 10.6308C18.2714 11.5847 18.3144 12.5546 18.3561 13.4931C18.3708 13.8315 18.3862 14.1755 18.3997 14.5211C18.1105 14.4367 17.8243 14.3698 17.5269 14.3166C17.5039 14.3123 17.482 14.329 17.4803 14.353C17.4787 14.3737 17.4948 14.3918 17.5151 14.3954C17.8181 14.4492 18.1086 14.5181 18.403 14.6048C18.4086 14.7541 18.4138 14.9035 18.4184 15.0525C18.424 15.235 18.2556 15.3735 18.0777 15.3325C17.9375 15.3003 17.7935 15.2836 17.6461 15.2836C17.0973 15.2836 16.5498 15.5124 16.1007 15.9285C15.6064 15.4296 14.9765 15.1562 14.2813 15.1562C13.766 15.1562 13.2559 15.3052 12.7875 15.5859C12.1087 15.7454 11.4716 16.0608 10.9245 16.4905C10.7666 16.6146 10.5335 16.5046 10.5279 16.3037C10.5257 16.2135 10.524 16.1232 10.524 16.0336C10.524 15.8055 10.5352 15.6043 10.5555 15.4254C11.3768 15.0023 12.2758 14.6868 13.2359 14.4869C13.2572 14.4824 13.271 14.4613 13.2668 14.4397C13.2622 14.4183 13.2411 14.4045 13.2195 14.4088C12.2715 14.6068 11.382 14.9159 10.5677 15.3298C10.8027 13.6365 11.9259 14.1022 12.3313 12.9971C12.4665 13.0132 12.5994 13.0214 12.7284 13.0214C13.5093 13.0214 14.1494 12.724 14.581 12.1607C15.0149 12.3232 15.4459 12.4092 15.829 12.4092C16.6952 12.4092 17.3215 11.9855 17.6398 11.1836C17.6471 11.1652 17.6412 11.1429 17.6241 11.133C17.6024 11.1202 17.5755 11.1304 17.5667 11.1524C17.1813 12.1253 16.409 12.3294 15.8293 12.3294C15.4479 12.3294 15.0166 12.2418 14.582 12.0757C14.5653 12.0695 14.5466 12.0751 14.5357 12.0892C14.1195 12.6472 13.4946 12.9419 12.7288 12.9419C12.4783 12.9419 12.2134 12.9108 11.9417 12.849C11.9243 12.8451 11.9065 12.8533 11.898 12.8687C11.5199 13.5561 10.9471 13.9197 10.2421 13.9197C9.81633 13.9197 9.34333 13.7839 8.87332 13.5268C8.8559 13.5173 8.83327 13.5203 8.82112 13.536C8.8057 13.5561 8.81193 13.584 8.83327 13.5955C9.23897 13.8177 9.64795 13.9513 10.0294 13.9884C10.0868 13.9939 10.1308 14.0422 10.1291 14.0996V14.1016C10.1275 14.1571 10.0851 14.2027 10.03 14.2079C9.58724 14.2493 7.94146 14.2962 7.76913 12.7588C7.69659 12.1102 8.077 11.5272 8.58316 11.2079L8.58217 11.2085ZM19.1589 16.3825C18.3324 16.1728 17.4153 16.309 16.6824 16.7449C16.534 16.4557 16.3564 16.2017 16.1546 15.9867C16.5888 15.5846 17.117 15.3637 17.6448 15.3637C17.9284 15.3637 18.1992 15.4257 18.4526 15.5478C18.4532 15.5478 18.4539 15.5485 18.4549 15.5485C18.5139 15.577 18.572 15.6092 18.6295 15.6443C18.8668 15.7904 19.0775 15.9883 19.258 16.2342C19.3106 16.3057 19.2446 16.4039 19.1586 16.3822L19.1589 16.3825ZM16.151 16.9766C16.1405 16.9586 16.1592 16.9379 16.1779 16.9468C16.1779 16.9468 16.1782 16.9468 16.1785 16.9468C16.405 17.0567 16.5872 17.2326 16.7621 17.4135C16.7704 17.422 16.77 17.4355 16.7618 17.4434C16.6171 17.5825 16.4562 17.7033 16.2839 17.8048C16.2678 17.8143 16.2481 17.7992 16.2534 17.7808C16.279 17.6895 16.2918 17.5953 16.2918 17.4989C16.2918 17.3141 16.2425 17.1338 16.151 16.9763V16.9766ZM15.437 17.6167C15.437 17.6748 15.3898 17.7217 15.3317 17.7217C15.2736 17.7217 15.2263 17.6748 15.2263 17.6167C15.2263 17.5586 15.2736 17.5113 15.3317 17.5113C15.3898 17.5113 15.437 17.5586 15.437 17.6167ZM15.0281 17.3252C15.0281 17.4119 14.9578 17.4824 14.8712 17.4824C14.7845 17.4824 14.7139 17.4119 14.7139 17.3252C14.7139 17.2386 14.7845 17.1683 14.8712 17.1683C14.9578 17.1683 15.0281 17.2386 15.0281 17.3252ZM14.3381 18.004C14.3627 18.0483 14.3223 18.1005 14.2735 18.087C14.1681 18.0578 14.0647 18.0217 13.9636 17.9774C13.7164 17.8707 13.4886 17.7217 13.2871 17.5431C13.2441 17.5051 13.2631 17.4345 13.3193 17.4234C13.4597 17.3951 13.6774 17.3469 13.8215 17.297C13.937 17.2566 14.0519 17.2129 14.1661 17.1686C14.2091 17.1522 14.2534 17.1906 14.2419 17.2353C14.2193 17.3209 14.2078 17.4092 14.2078 17.4995C14.2078 17.6781 14.2531 17.851 14.3381 18.0043V18.004ZM17.6306 17.7667C17.6461 17.8241 17.5867 17.873 17.5335 17.8468C17.3385 17.7503 17.1478 17.6301 16.967 17.4883C16.9335 17.4621 16.9355 17.4109 16.9709 17.3876C17.0999 17.3029 17.3792 17.1279 17.5693 17.0492C17.6257 17.0259 17.6815 17.0813 17.6602 17.1384C17.6172 17.2527 17.5949 17.3744 17.5949 17.4995C17.5949 17.5901 17.607 17.68 17.6306 17.7667ZM18.0761 17.3252C18.0761 17.2386 18.1466 17.1683 18.2333 17.1683C18.3199 17.1683 18.3902 17.2386 18.3902 17.3252C18.3902 17.4119 18.3199 17.4824 18.2333 17.4824C18.1466 17.4824 18.0761 17.4119 18.0761 17.3252ZM18.574 17.1023C18.5159 17.1023 18.4687 17.0554 18.4687 16.9973C18.4687 16.9392 18.5159 16.8919 18.574 16.8919C18.6321 16.8919 18.679 16.9392 18.679 16.9973C18.679 17.0554 18.6321 17.1023 18.574 17.1023ZM18.7844 17.7217C18.7844 17.7798 18.7371 17.8271 18.679 17.8271C18.6209 17.8271 18.574 17.7798 18.574 17.7217C18.574 17.6636 18.6209 17.6167 18.679 17.6167C18.7371 17.6167 18.7844 17.6636 18.7844 17.7217ZM19.6345 17.9091C19.6014 17.9239 19.5673 17.8914 19.58 17.8573C19.6224 17.7437 19.6444 17.6226 19.6444 17.4992C19.6444 17.384 19.625 17.2704 19.5876 17.1627C19.5758 17.1286 19.6103 17.0968 19.6431 17.1119C19.866 17.2146 20.0524 17.339 20.2165 17.465C20.2365 17.4805 20.2378 17.5107 20.2191 17.5274C20.0448 17.6846 19.8479 17.8123 19.6345 17.9088V17.9091ZM19.4878 16.9635C19.4829 16.9602 19.4776 16.9586 19.4721 16.9576C19.1849 16.8538 18.8294 16.778 18.3958 16.778C17.9018 16.778 17.3047 17.037 16.9161 17.3163C16.9164 17.3131 16.9168 17.3095 16.9171 17.3062C16.9171 17.3049 16.9174 17.3039 16.9174 17.3025C16.9174 17.1214 16.8373 16.95 16.7316 16.8076C17.7042 16.2312 19.0109 16.1898 19.97 16.8151C20.0189 16.8456 20.0744 16.887 20.1207 16.9208C20.1906 16.9737 20.2204 17.0725 20.1893 17.1545V17.1555C20.1886 17.1571 20.1879 17.1614 20.1866 17.1693C20.1866 17.1857 20.1965 17.1995 20.2106 17.2057C20.2615 17.2549 20.2858 17.3258 20.2821 17.3964C20.2821 17.4023 20.2815 17.4079 20.2812 17.4138C20.1213 17.2881 19.8643 17.1017 19.4878 16.9632V16.9635Z" fill="#EB4747"/>
<path d="M16.1926 18.2103C15.8309 18.3669 15.4649 18.443 15.0733 18.443C14.6132 18.443 14.1283 18.339 13.5474 18.1155C13.527 18.1076 13.5037 18.1178 13.4958 18.1384C13.4879 18.1591 13.4981 18.1821 13.5188 18.19C14.109 18.4171 14.603 18.5231 15.0733 18.5231C15.4758 18.5231 15.8522 18.445 16.2241 18.2839C16.2442 18.275 16.2537 18.2517 16.2448 18.2317C16.236 18.2116 16.2127 18.2021 16.1926 18.211V18.2103Z" fill="#EB4747"/>
<path d="M15.9694 18.6418C15.5542 18.9264 15.1108 19.0478 14.4858 19.0478C14.4448 19.0478 14.4014 19.0472 14.3571 19.0462C14.3571 19.0462 14.3565 19.0462 14.3561 19.0462C14.3345 19.0462 14.3167 19.0633 14.3164 19.0849C14.3158 19.1069 14.3332 19.125 14.3552 19.1256C14.3998 19.1266 14.4438 19.1273 14.4854 19.1273C15.1275 19.1273 15.5844 19.0019 16.014 18.7074C16.0321 18.695 16.0367 18.6704 16.0242 18.652C16.0118 18.6339 15.9871 18.6293 15.9688 18.6418H15.9694Z" fill="#EB4747"/>
<path d="M12.7729 19.4351C12.7391 19.4305 12.705 19.4282 12.6709 19.4282C12.2126 19.4282 11.8105 19.8438 11.8105 20.3174C11.8105 20.4625 11.8427 20.6141 11.9117 20.7947C11.9175 20.8104 11.9326 20.8203 11.9487 20.8203C11.9533 20.8203 11.9583 20.8193 11.9629 20.8176C11.9835 20.8097 11.9937 20.7868 11.9858 20.7664C11.9205 20.5951 11.89 20.4523 11.89 20.3174C11.89 19.8861 12.255 19.5076 12.6709 19.5076C12.7014 19.5076 12.7319 19.5096 12.7621 19.5139C12.7838 19.5168 12.8038 19.5017 12.8071 19.4797C12.81 19.4581 12.7949 19.4381 12.7729 19.4348V19.4351Z" fill="#EB4747"/>
<path d="M16.7555 13.648C16.7555 13.4789 16.5976 13.3657 16.4499 13.3657C16.3623 13.3657 16.2855 13.4034 16.2323 13.4707C16.1676 13.4018 16.0895 13.3519 16.0039 13.3243C16.0016 13.3227 15.9989 13.3214 15.9963 13.3201C15.9943 13.3194 15.9927 13.3188 15.9904 13.3181C15.9901 13.3181 15.9898 13.3181 15.9894 13.3178C15.7048 13.2324 15.3632 13.2144 15.051 13.2685C14.8783 13.2984 14.7323 13.367 14.6256 13.4678C14.5734 13.4126 14.5042 13.3824 14.4254 13.3824C14.2777 13.3824 14.1195 13.496 14.1195 13.6647C14.1195 13.7153 14.1336 13.7665 14.1611 13.8177C14.107 13.8813 14.0801 13.9499 14.0801 14.0264C14.0801 14.2168 14.215 14.355 14.4008 14.355C14.4631 14.355 14.5238 14.3386 14.5757 14.309C14.7257 14.4715 14.9968 14.5575 15.3635 14.5575C15.5568 14.5575 15.694 14.547 15.8811 14.5309C15.9874 14.5303 16.1427 14.4873 16.2842 14.288C16.2848 14.287 16.2855 14.2857 16.2865 14.2847C16.3403 14.3189 16.4063 14.3383 16.4736 14.3383C16.6594 14.3383 16.7942 14.2001 16.7942 14.0097C16.7942 13.9329 16.7677 13.8643 16.7135 13.8009C16.7411 13.75 16.7552 13.6988 16.7552 13.6483L16.7555 13.648ZM14.4011 14.2752C14.259 14.2752 14.1598 14.1728 14.1598 14.0261C14.1598 13.9755 14.1752 13.9302 14.2077 13.8869C14.215 13.8961 14.2222 13.905 14.2301 13.9138C14.2379 13.9227 14.2488 13.927 14.2596 13.927C14.2691 13.927 14.2786 13.9237 14.2862 13.9168C14.3026 13.902 14.3039 13.8771 14.2891 13.8607C14.2721 13.8416 14.2567 13.8216 14.2439 13.8016C14.2143 13.7546 14.1992 13.7087 14.1992 13.665C14.1992 13.5439 14.3161 13.4622 14.4254 13.4622C14.4828 13.4622 14.5334 13.4848 14.5711 13.5262C14.4812 13.6358 14.4359 13.7687 14.4359 13.9227C14.4359 14.0474 14.4664 14.1561 14.5261 14.246C14.4887 14.2654 14.4457 14.2755 14.4011 14.2755V14.2752ZM15.3638 14.4777C15.1117 14.4777 14.7769 14.4351 14.6144 14.2319C14.5488 14.1498 14.5153 14.0458 14.5153 13.9224C14.5153 13.7766 14.5613 13.6526 14.6522 13.5538C14.7487 13.4484 14.8912 13.3768 15.0645 13.347C15.2634 13.3125 15.4747 13.3086 15.6743 13.3335C15.4632 13.4202 15.3415 13.6598 15.3415 13.8932C15.3415 14.1397 15.4738 14.3638 15.6556 14.4689C15.563 14.4748 15.4738 14.4781 15.3641 14.4781L15.3638 14.4777ZM16.2198 14.2417C16.1224 14.3789 16.0045 14.4512 15.8791 14.4512C15.6395 14.4512 15.4209 14.1849 15.4209 13.8928C15.4209 13.6404 15.5808 13.3791 15.8486 13.3791C15.889 13.3791 15.9287 13.3847 15.9665 13.3955C16.0515 13.4198 16.1279 13.4704 16.1896 13.5423C16.1719 13.5836 16.1624 13.6289 16.1624 13.6745C16.1624 13.6782 16.1624 13.6821 16.1624 13.6857C16.0734 13.6867 16.0583 13.6864 16.0301 13.686C16.0052 13.6857 15.9701 13.685 15.868 13.685C15.7577 13.685 15.6398 13.7763 15.6398 13.9122C15.6398 14.0346 15.7295 14.1301 15.844 14.1301C15.8578 14.1301 15.8732 14.1301 15.8919 14.1301C15.9225 14.1301 15.9619 14.1305 16.0186 14.1305C16.0587 14.1305 16.1076 14.1305 16.1686 14.1298C16.1795 14.1676 16.1988 14.202 16.2258 14.2319C16.2238 14.2349 16.2218 14.2378 16.2198 14.2407V14.2417ZM16.7151 14.0093C16.7151 14.1557 16.616 14.2582 16.4742 14.2582C16.4099 14.2582 16.3475 14.2361 16.3029 14.1978C16.2681 14.1676 16.2461 14.1282 16.2395 14.0842C16.2382 14.0753 16.2376 14.0658 16.2376 14.0553C16.2376 14.0304 16.2421 14.0038 16.251 13.9765C16.2579 13.9555 16.2464 13.9332 16.2254 13.9263C16.2044 13.9194 16.1821 13.9309 16.1752 13.9519C16.1644 13.9857 16.1585 14.0192 16.1581 14.0514C16.0183 14.0523 15.9435 14.0517 15.8926 14.0514C15.8735 14.0514 15.8581 14.0514 15.844 14.0514C15.7731 14.0514 15.7193 13.9919 15.7193 13.9129C15.7193 13.8259 15.7977 13.7655 15.868 13.7655C15.9694 13.7655 16.0042 13.7661 16.0288 13.7665C16.0623 13.7671 16.0774 13.7671 16.2064 13.7655C16.2179 13.7655 16.2287 13.7602 16.2363 13.7514C16.2438 13.7425 16.2471 13.731 16.2451 13.7195C16.2428 13.7044 16.2415 13.6896 16.2415 13.6752C16.2415 13.6332 16.2517 13.5918 16.271 13.5554C16.3081 13.4855 16.3731 13.4454 16.4493 13.4454C16.5586 13.4454 16.6754 13.5269 16.6754 13.6483C16.6754 13.6923 16.6603 13.7379 16.6308 13.7848C16.6183 13.8049 16.6029 13.8249 16.5855 13.8442C16.5707 13.8607 16.5724 13.8859 16.5888 13.9004C16.6052 13.9151 16.6305 13.9135 16.6449 13.8971C16.6528 13.8882 16.66 13.8794 16.6672 13.8705C16.6994 13.9138 16.7148 13.9591 16.7148 14.0097L16.7151 14.0093Z" fill="#EB4747"/>
<path d="M16.8222 13.1704C16.4325 12.9663 15.9156 12.854 15.3664 12.854C14.8173 12.854 14.3003 12.9663 13.9107 13.1704C13.5129 13.3789 13.2939 13.6588 13.2939 13.9585C13.2939 14.2582 13.5129 14.5385 13.9107 14.7466C14.3003 14.9508 14.8173 15.063 15.3664 15.063C15.9156 15.063 16.4325 14.9508 16.8222 14.7466C17.22 14.5382 17.4389 14.2582 17.4389 13.9585C17.4389 13.6588 17.22 13.3785 16.8222 13.1704ZM15.3664 14.9839C14.2675 14.9839 13.3737 14.5241 13.3737 13.9589C13.3737 13.3936 14.2678 12.9338 15.3664 12.9338C16.465 12.9338 17.3592 13.3936 17.3592 13.9589C17.3592 14.5241 16.465 14.9839 15.3664 14.9839Z" fill="#EB4747"/>
</g>
<path d="M13.9969 27.162C20.1566 27.162 25.15 22.1686 25.15 16.0089C25.15 9.84916 20.1566 4.85571 13.9969 4.85571C7.83717 4.85571 2.84375 9.84916 2.84375 16.0089C2.84375 22.1686 7.83717 27.162 13.9969 27.162Z" stroke="#EB4747" stroke-width="0.117093" stroke-miterlimit="10"/>
<g clip-path="url(#clip0_663_254173)">
<mask id="mask1_663_254173" style="mask-type:luminance" maskUnits="userSpaceOnUse" x="19" y="0" width="14" height="14">
<path d="M33 0H19V14H33V0Z" fill="white"/>
</mask>
<g mask="url(#mask1_663_254173)">
<path fill-rule="evenodd" clip-rule="evenodd" d="M31.2017 8.69395e-10C30.4808 -1.37073e-05 29.391 0.162081 28.2263 0.415686C27.0345 0.675169 25.6697 1.05137 24.3724 1.5223C23.0862 1.98917 21.8079 2.57005 20.8305 3.2561C19.8883 3.91741 19.0001 4.83826 19 5.99994C19 6.17338 19.0199 6.33808 19.057 6.49443C19.0199 6.65749 19 6.82602 19 6.99994C19 7.17338 19.0199 7.33808 19.057 7.49443C19.0199 7.65749 19 7.82602 19 7.99994C19 8.17338 19.0199 8.33808 19.057 8.49443C19.0199 8.65749 19 8.82602 19 8.99994C19 9.17338 19.0199 9.33808 19.057 9.49443C19.0199 9.65749 19 9.82602 19 9.99994C18.9999 11.3404 20.1901 12.1594 21.2854 12.6288C22.426 13.1177 23.8746 13.4185 25.2246 13.6114C26.594 13.807 27.9523 13.9035 28.9611 13.9516C29.4674 13.9757 29.89 13.9878 30.1874 13.9939C30.3329 13.9968 30.574 13.9991 30.6609 13.9999L30.6667 14H31.0586C31.8085 14 32.4164 13.479 32.4164 12.8362C32.4164 12.6618 32.37 12.4911 32.2849 12.3365C32.3692 12.1849 32.4164 12.0153 32.4164 11.8362C32.4164 11.6618 32.37 11.4911 32.2849 11.3365C32.3692 11.1849 32.4164 11.0153 32.4164 10.8362C32.4164 10.6618 32.37 10.4911 32.2849 10.3365C32.3692 10.1849 32.4164 10.0153 32.4164 9.83622C32.4164 9.66127 32.3698 9.49011 32.2842 9.33517C32.3689 9.18395 32.4164 9.01478 32.4164 8.83622C32.4164 8.24339 31.8811 7.69405 31.1077 7.67184C30.7591 7.66183 29.9332 7.63155 28.9106 7.55175C30.0093 7.31903 30.9671 7.15386 31.5275 7.06339C32.3824 6.92539 33 6.28686 33 5.54138C33 5.36658 32.966 5.19857 32.9035 5.04193C32.9662 4.88429 33 4.71576 33 4.54138C33 4.36658 32.966 4.19857 32.9035 4.04193C32.9662 3.88429 33 3.71576 33 3.54138C33 3.36658 32.966 3.19857 32.9035 3.04193C32.9662 2.88429 33 2.71576 33 2.54138C33 2.36658 32.966 2.19857 32.9035 2.04193C32.9662 1.88429 33 1.71576 33 1.54138C33 0.690109 32.1949 1.69891e-05 31.2017 8.69395e-10Z" fill="white"/>
<path d="M31.202 1.16675C31.5508 1.16675 31.8336 1.4024 31.8336 1.69309C31.8336 1.95039 31.6153 2.16978 31.3119 2.2174C29.1917 2.55013 21.3337 3.92519 21.3337 6.02786C21.3337 8.26351 29.7234 8.58737 31.0689 8.62494C31.1729 8.62784 31.25 8.69863 31.25 8.78529C31.25 8.87323 31.1644 8.94452 31.0589 8.94452H30.9583H30.6667C30.6667 8.94452 20.1668 8.94453 20.167 6.02786C20.1672 3.28787 28.917 1.16669 31.202 1.16675Z" fill="#0C0D1D"/>
<path d="M31.202 2.13892C31.5508 2.13892 31.8336 2.37457 31.8336 2.66526C31.8336 2.92256 31.6153 3.14195 31.3119 3.18956C29.1917 3.5223 21.3337 4.89736 21.3337 7.00003C21.3337 9.23568 29.7234 9.55954 31.0689 9.59711C31.1729 9.60001 31.25 9.6708 31.25 9.75746C31.25 9.8454 31.1644 9.91669 31.0589 9.91669H30.9583H30.6667C30.6667 9.91669 20.1668 9.9167 20.167 7.00003C20.1672 4.26004 28.917 2.13886 31.202 2.13892Z" fill="#0433FF"/>
<path d="M31.202 3.11108C31.5508 3.11108 31.8336 3.34674 31.8336 3.63743C31.8336 3.89472 31.6153 4.11411 31.3119 4.16173C29.1917 4.49447 21.3337 5.86953 21.3337 7.9722C21.3337 10.2078 29.7234 10.5317 31.0689 10.5693C31.1729 10.5722 31.25 10.643 31.25 10.7296C31.25 10.8176 31.1644 10.8889 31.0589 10.8889H30.9583H30.6667C30.6667 10.8889 20.1668 10.8889 20.167 7.9722C20.1672 5.23221 28.917 3.11102 31.202 3.11108Z" fill="#9CADFF"/>
<path d="M31.202 4.08325C31.5508 4.08325 31.8336 4.31891 31.8336 4.6096C31.8336 4.86689 31.6153 5.08628 31.3119 5.1339C29.1917 5.46664 21.3337 6.8417 21.3337 8.94437C21.3337 11.18 29.7234 11.5039 31.0689 11.5415C31.1729 11.5444 31.25 11.6152 31.25 11.7018C31.25 11.7898 31.1644 11.8611 31.0589 11.8611H30.9583H30.6667C30.6667 11.8611 20.1668 11.8611 20.167 8.94437C20.1672 6.20438 28.917 4.08319 31.202 4.08325Z" fill="#F5F3E6"/>
<path d="M31.202 5.05566C31.5508 5.05566 31.8336 5.29131 31.8336 5.58201C31.8336 5.8393 31.6153 6.05869 31.3119 6.10631C29.1917 6.43904 21.3337 7.81411 21.3337 9.91678C21.3337 12.1525 29.7234 12.4763 31.0689 12.5139C31.1729 12.5168 31.25 12.5876 31.25 12.6742C31.25 12.7622 31.1644 12.8335 31.0589 12.8335H30.9583H30.6667C30.6667 12.8335 20.1668 12.8335 20.167 9.91678C20.1672 7.17679 28.917 5.0556 31.202 5.05566Z" fill="#FF1100"/>
</g>
</g>
<path d="M26 31.9118C22.1823 31.9118 19.0882 28.8251 19.0882 25.0174V24.9826C19.0882 21.1757 22.1823 18.0882 26 18.0882C29.8177 18.0882 32.9118 21.1749 32.9118 24.9826V25.0174C32.9118 28.8251 29.8177 31.9118 26 31.9118Z" fill="white" stroke="#0000FF" stroke-width="0.1764"/>
<path d="M27.1885 28.4579C27.1909 28.4532 27.1933 28.4484 27.1957 28.4445C27.2234 28.3701 27.294 28.3535 27.3566 28.3322C27.5366 28.2705 27.6904 28.1669 27.8323 28.0428C27.8798 28.0064 27.9226 27.9645 27.9623 27.9202C28.0558 27.8174 28.1042 27.7051 28.082 27.5588C28.0304 27.2251 27.9781 26.8922 27.9385 26.5569C27.8996 26.2287 27.8608 25.9005 27.837 25.5708C27.8148 25.2695 27.7942 24.969 27.7831 24.6669C27.7744 24.4471 27.7704 24.2264 27.7577 24.0066C27.7466 23.8152 27.7443 23.6231 27.7133 23.4333C27.6959 23.325 27.6785 23.3139 27.573 23.3526C27.42 23.408 27.2797 23.4863 27.1457 23.5772C26.9705 23.6958 26.8207 23.8421 26.6828 24.0003C26.6788 24.0058 26.674 24.0114 26.6701 24.0161C26.6677 24.0185 26.6653 24.0208 26.6637 24.0232C26.655 24.0319 26.6455 24.0406 26.6376 24.0493C26.632 24.0564 26.6273 24.0628 26.6217 24.0699C26.6186 24.0746 26.6154 24.0794 26.6114 24.0833C26.6043 24.092 26.5964 24.1007 26.59 24.1094C26.571 24.1379 26.5472 24.164 26.529 24.1932C26.5226 24.2027 26.5163 24.2122 26.5107 24.2217C26.4973 24.2391 26.4854 24.2581 26.4759 24.2778C26.4663 24.2945 26.4545 24.3103 26.4457 24.3277C26.4338 24.3498 26.4196 24.3704 26.4069 24.3917C26.3982 24.406 26.391 24.4218 26.3839 24.4368C26.3815 24.4423 26.3791 24.4479 26.376 24.4526C26.3435 24.504 26.3133 24.557 26.2927 24.6147C26.2911 24.6203 26.2888 24.6258 26.2856 24.6321C26.2816 24.6408 26.2777 24.6495 26.2737 24.6574C26.2674 24.6732 26.2602 24.6883 26.2547 24.7041C26.1136 25.0378 26.0192 25.3849 25.9851 25.7447C25.9614 25.9899 25.9447 26.2358 25.9606 26.4833C25.974 26.6897 25.982 26.8969 25.9915 27.1041C25.9939 27.1618 26.0097 27.218 26.0058 27.2757C26.0058 27.3524 26.0002 27.4299 26.0113 27.5066C26.0176 27.5525 26.0216 27.6126 25.9748 27.6308C25.9241 27.6505 25.9027 27.592 25.8813 27.5556C25.7893 27.3999 25.7346 27.2306 25.695 27.0559C25.6244 26.7467 25.5999 26.4335 25.6094 26.1164C25.6118 26.046 25.6276 25.9764 25.6221 25.9053C25.6197 25.857 25.6371 25.8104 25.6355 25.7621C25.6355 25.755 25.6355 25.7471 25.6363 25.74C25.6363 25.7329 25.6371 25.725 25.6379 25.7179C25.6704 25.4719 25.714 25.2284 25.7854 24.9903C25.8266 24.867 25.8631 24.742 25.9186 24.6234C26.0113 24.406 26.1199 24.1964 26.2523 24.0003C26.3577 23.8437 26.4782 23.7006 26.6162 23.5725C26.6622 23.5298 26.6756 23.4863 26.6574 23.4254C26.617 23.2917 26.5845 23.1573 26.4782 23.0553C26.3966 22.9778 26.3015 22.9319 26.1921 22.913C26.0977 22.8964 26.0232 22.9327 25.9622 23.0015C25.9019 23.0695 25.8535 23.1462 25.806 23.2229C25.7584 23.2996 25.7109 23.3771 25.6427 23.4388C25.5396 23.5313 25.4239 23.5669 25.2875 23.5306C25.2209 23.5132 25.1567 23.4871 25.0957 23.457C24.9443 23.3827 24.8032 23.4507 24.7033 23.5598C24.5804 23.6942 24.5685 23.8564 24.5891 24.0256C24.5931 24.0564 24.6026 24.0857 24.605 24.1165C24.6058 24.1339 24.6042 24.1521 24.6129 24.1687C24.6184 24.1766 24.6216 24.1608 24.6153 24.1671C24.6153 24.1671 24.6129 24.1663 24.6105 24.1632C24.6058 24.1561 24.6058 24.1474 24.6058 24.1387C24.6327 23.9149 24.8103 23.7488 25.037 23.7362C25.0814 23.7338 25.1258 23.7314 25.1694 23.7393C25.2059 23.7456 25.2368 23.7623 25.2503 23.7994C25.2629 23.8358 25.2423 23.8627 25.2186 23.8872C25.1694 23.9394 25.1076 23.9734 25.0473 24.0114C24.9633 24.0651 24.8911 24.1292 24.8816 24.2367C24.8761 24.3008 24.8904 24.364 24.8904 24.4273C24.8904 24.4653 24.9237 24.4605 24.9498 24.4629C25.0814 24.4748 25.2138 24.4795 25.3446 24.5008C25.4405 24.5167 25.5349 24.5412 25.6268 24.5736C25.6712 24.5886 25.714 24.6052 25.7537 24.6297C25.7743 24.6424 25.7973 24.6566 25.7909 24.6859C25.7854 24.7136 25.7616 24.7254 25.7378 24.7294C25.6617 24.742 25.5848 24.7499 25.5079 24.7523C25.2003 24.7634 24.8919 24.7681 24.5851 24.8037C24.4417 24.8148 24.3005 24.8401 24.1594 24.8694C24.1277 24.8757 24.1071 24.8947 24.1063 24.9279C24.1055 25.0267 24.0921 25.1271 24.138 25.2205C24.1682 25.2782 24.2205 25.2877 24.2776 25.2821C24.3037 25.279 24.3291 25.2719 24.3552 25.2679C24.4821 25.241 24.6073 25.222 24.7294 25.2908C24.8087 25.3351 24.8642 25.3976 24.8967 25.4798C24.9355 25.5795 24.9562 25.6823 24.9554 25.7898C24.953 26.0057 24.9569 26.2216 24.9831 26.4359C24.9958 26.5403 25.0307 26.6375 25.0838 26.7277C25.0965 26.749 25.1092 26.7823 25.1393 26.7751C25.1654 26.7688 25.1631 26.7348 25.1654 26.7127C25.1805 26.5893 25.1639 26.4667 25.1488 26.3442C25.1314 26.1987 25.1504 26.0626 25.2408 25.9424C25.3042 25.8918 25.3359 25.9037 25.3644 25.9891C25.3636 26.1552 25.3977 26.3181 25.4128 26.4825C25.4255 26.6194 25.4318 26.7562 25.3834 26.8882C25.3652 26.9388 25.3406 26.9847 25.2978 27.0195C25.1916 27.1057 25.0624 27.097 24.9506 26.9902C24.8166 26.8629 24.7556 26.6976 24.7207 26.5221C24.6858 26.3465 24.6779 26.1678 24.6787 25.9891C24.6787 25.8784 24.6747 25.7685 24.6502 25.6601C24.6272 25.5605 24.5994 25.5423 24.4972 25.5455C24.448 25.5471 24.4004 25.5565 24.3521 25.5637C23.9478 25.6222 23.8106 25.3043 23.8471 25.0512C23.8511 25.0259 23.8725 24.9919 23.8503 24.9769C23.8257 24.9603 23.7979 24.9903 23.7734 25.0022C23.7345 25.0204 23.7052 25.0504 23.6774 25.0829C23.6394 25.1271 23.6505 25.1778 23.6568 25.2276C23.6671 25.3003 23.6949 25.3675 23.7171 25.4363C23.7726 25.6 23.8558 25.7511 23.9414 25.9005C24.379 26.6621 24.8602 27.3975 25.3327 28.1377C25.3811 28.2136 25.4397 28.2839 25.4905 28.3583C25.5904 28.5054 25.7346 28.5607 25.9043 28.5694C25.9931 28.5742 26.0803 28.5583 26.1683 28.5496C26.3284 28.5338 26.4885 28.5149 26.6503 28.5172C26.705 28.518 26.7613 28.522 26.8056 28.5615C26.8104 28.5647 26.8152 28.5686 26.8183 28.5726C26.8374 28.5892 26.8278 28.605 26.8159 28.6184C26.7858 28.6509 26.7525 28.6809 26.7113 28.6983C26.5131 28.7821 26.3118 28.8549 26.0985 28.8857C25.9233 28.9118 25.7497 28.8936 25.5816 28.8351C25.477 28.7987 25.3898 28.7371 25.3153 28.6556C25.2455 28.5789 25.1845 28.4951 25.125 28.4097C24.9657 28.1811 24.8135 27.9487 24.6692 27.7106C24.494 27.422 24.3132 27.1365 24.1301 26.8526C23.9208 26.5276 23.7226 26.1963 23.5458 25.8523C23.4642 25.6933 23.3921 25.5297 23.3508 25.3541C23.3191 25.2189 23.3041 25.0837 23.3667 24.9524C23.3762 24.9326 23.3707 24.9192 23.3548 24.9065C23.3445 24.8986 23.335 24.8891 23.3255 24.8796C23.0956 24.6653 22.9204 24.4123 22.8054 24.1213C22.7174 23.8983 22.6897 23.6689 22.7579 23.4341C22.7816 23.3503 22.8189 23.2736 22.8736 23.2048C23.0012 23.0458 23.1875 22.9936 23.3794 23.0632C23.3913 23.0679 23.4039 23.0727 23.4198 23.0782C23.4285 23.0521 23.4119 23.0339 23.4047 23.0158C23.3263 22.8189 23.2589 22.618 23.2161 22.41C23.197 22.3167 23.1867 22.2226 23.1947 22.1269C23.2081 21.9688 23.2827 21.8501 23.4309 21.7869C23.595 21.7173 23.7678 21.6801 23.9446 21.6619C24.0033 21.6556 24.0572 21.6778 24.1127 21.6928C24.1856 21.7125 24.2562 21.7371 24.3251 21.7671C24.4393 21.8169 24.4972 21.9055 24.5114 22.0273C24.5241 22.1372 24.5241 22.2471 24.5265 22.3578C24.5281 22.4369 24.5328 22.5168 24.536 22.5959C24.5368 22.6148 24.5392 22.6291 24.5645 22.6306C24.6351 22.633 24.7056 22.6401 24.7762 22.6409C24.861 22.6417 24.8991 22.6117 24.9252 22.5286C24.9522 22.444 24.9593 22.3555 24.9744 22.2685C24.991 22.172 25.0188 22.0795 25.0711 21.9956C25.175 21.8296 25.328 21.7687 25.5182 21.7837C25.5444 21.7861 25.5705 21.79 25.5975 21.7924C25.5991 21.7924 25.6007 21.79 25.607 21.7861C25.6022 21.7205 25.6062 21.6532 25.6252 21.5876C25.6522 21.4967 25.6974 21.4176 25.7727 21.3575C25.8924 21.261 26.0462 21.2555 26.173 21.3417C26.215 21.3701 26.2523 21.4049 26.2888 21.4405C26.311 21.4627 26.3324 21.484 26.3554 21.5054C26.3998 21.5465 26.4489 21.5504 26.502 21.522C26.5488 21.4967 26.59 21.4627 26.6304 21.4287C26.6962 21.3725 26.7605 21.3156 26.8318 21.2665C26.9238 21.2025 27.0221 21.1543 27.1331 21.1353C27.225 21.1203 27.3138 21.1297 27.397 21.1748C27.5381 21.2523 27.6039 21.3986 27.5738 21.5694C27.5619 21.6366 27.5413 21.7023 27.5191 21.7671C27.5025 21.8154 27.4874 21.8636 27.4787 21.9134C27.4723 21.9506 27.4716 21.9877 27.4787 22.0249C27.489 22.0834 27.5191 22.1261 27.5746 22.1506C27.6269 22.1744 27.68 22.1973 27.7316 22.2226C28.013 22.361 28.1446 22.6694 28.0503 22.9683C28.0352 23.0173 28.0146 23.0632 27.9797 23.102C27.9654 23.1178 27.9575 23.1312 27.9702 23.1541C28.0312 23.268 28.0439 23.3938 28.0566 23.5187C28.0788 23.7409 28.0875 23.9631 28.0939 24.1861C28.1066 24.6448 28.1295 25.1034 28.1652 25.5613C28.1977 25.9725 28.2461 26.3829 28.3032 26.791C28.3364 27.029 28.3697 27.267 28.4078 27.505C28.4466 27.7446 28.3808 27.9502 28.2152 28.1258C28.0138 28.3385 27.7839 28.5109 27.5088 28.6177C27.4779 28.6295 27.4462 28.6382 27.4137 28.6461C27.3653 28.658 27.317 28.654 27.2702 28.6366C27.1885 28.6066 27.1608 28.5512 27.183 28.4642C27.1854 28.4658 27.1878 28.4619 27.1885 28.4579Z" fill="#0000FF"/>
<path d="M26.8066 28.5639C26.6409 28.5133 26.4728 28.5465 26.3064 28.556C26.1962 28.5623 26.0868 28.5789 25.9766 28.5892C25.91 28.5955 25.8442 28.5852 25.7784 28.5734C25.6618 28.552 25.5691 28.4935 25.4993 28.3986C25.4462 28.3251 25.3915 28.2531 25.34 28.1788C25.1196 27.8633 24.9246 27.5327 24.7208 27.2061C24.5528 26.9365 24.3784 26.67 24.2111 26.3995C24.0423 26.1251 23.8789 25.8468 23.7442 25.5534C23.7283 25.5194 23.7109 25.4862 23.7037 25.449C23.7022 25.3778 23.6641 25.3154 23.6546 25.245C23.6467 25.1872 23.6419 25.1319 23.6594 25.0757C23.7117 24.9975 23.7981 24.9722 23.875 24.9326C23.8948 24.9532 23.8829 24.9698 23.8797 24.9856C23.8607 25.0678 23.856 25.1509 23.871 25.2347C23.9075 25.4276 24.0415 25.5455 24.2381 25.5534C24.3031 25.5558 24.3657 25.5455 24.4291 25.5352C24.4688 25.5289 24.5076 25.5249 24.548 25.5241C24.5988 25.5233 24.6313 25.5486 24.6503 25.5937C24.6685 25.6388 24.6772 25.6862 24.6836 25.7353C24.6963 25.8365 24.6963 25.9377 24.6986 26.0389C24.7026 26.1955 24.7074 26.3521 24.7367 26.5063C24.7652 26.6557 24.8136 26.7957 24.9079 26.9175C24.946 26.9673 24.9912 27.0092 25.0483 27.0361C25.1537 27.0859 25.2623 27.0567 25.3273 26.9602C25.3772 26.8866 25.3931 26.802 25.3994 26.7158C25.4082 26.6027 25.3963 26.4912 25.3812 26.3797C25.3638 26.2509 25.3439 26.122 25.3471 25.9915C25.3558 25.963 25.3606 25.9314 25.386 25.9124C25.4058 25.8982 25.4074 25.8879 25.3836 25.8776C25.4272 25.846 25.4779 25.8341 25.5302 25.8246C25.5865 25.8649 25.6024 25.891 25.6167 25.9654C25.6198 25.9417 25.5968 25.9084 25.6381 25.899C25.6373 25.9361 25.6396 25.9741 25.6365 26.0112C25.6198 26.2097 25.623 26.4082 25.6412 26.6059C25.6618 26.8329 25.7015 27.0559 25.7736 27.2725C25.8093 27.3801 25.8561 27.4821 25.9163 27.5778C25.929 27.5976 25.9409 27.6284 25.9678 27.6229C25.998 27.6165 25.9893 27.5817 25.99 27.5604C25.9916 27.4987 25.9877 27.437 25.9869 27.3753C25.9861 27.3421 25.9869 27.3097 25.9869 27.2765C26.0233 27.286 26.0162 27.3168 26.0162 27.3405C26.0162 27.4845 26.0812 27.6086 26.1415 27.7328C26.1573 27.766 26.1843 27.7945 26.2033 27.8269C26.3174 28.0262 26.503 28.087 26.7178 28.0926C26.8993 28.0973 27.0793 28.0815 27.2584 28.057C27.329 28.0475 27.3996 28.0523 27.4701 28.0538C27.4836 28.0538 27.5026 28.0546 27.5074 28.0649C27.5327 28.1266 27.574 28.0934 27.6104 28.0839C27.6643 28.0704 27.7182 28.0594 27.7721 28.0499C27.7936 28.0459 27.8158 28.0388 27.834 28.0586C27.7 28.178 27.5533 28.2768 27.3821 28.3354C27.3124 28.3591 27.2473 28.3875 27.1958 28.4413C27.1808 28.4302 27.1665 28.4405 27.1522 28.4445C27.042 28.4793 26.9318 28.5141 26.8216 28.5497C26.8161 28.5544 26.8113 28.5599 26.8066 28.5639Z" fill="white"/>
<path d="M27.1884 28.458C27.1908 28.4643 27.1884 28.4675 27.182 28.4691C27.1789 28.462 27.1812 28.458 27.1884 28.458Z" fill="white"/>
<path d="M26.8193 28.5758C26.8114 28.5758 26.8066 28.5726 26.8066 28.5647C26.8154 28.5631 26.8177 28.5687 26.8193 28.5758Z" fill="white"/>
<path d="M27.8329 28.0609C27.7235 28.0728 27.6173 28.1029 27.5119 28.1321C27.5015 28.1353 27.492 28.1408 27.4809 28.1321C27.4817 28.1092 27.5174 28.1139 27.515 28.0886C27.5103 28.0807 27.5039 28.0744 27.4944 28.0744C27.4088 28.0752 27.3232 28.0681 27.2368 28.0807C27.1781 28.0894 27.1187 28.095 27.06 28.1013C26.9363 28.1131 26.8134 28.1147 26.6898 28.1123C26.5875 28.11 26.4876 28.0886 26.3957 28.0451C26.3425 28.0198 26.2934 27.9858 26.2585 27.9344C26.2284 27.8886 26.1935 27.8459 26.1602 27.8016C26.0801 27.6956 26.0476 27.5691 26.0032 27.4473C25.9921 27.4157 26.0001 27.3817 25.9969 27.3485C25.9945 27.3247 26.0048 27.2994 25.985 27.2789C25.9604 26.9958 25.9438 26.7119 25.9359 26.428C25.9192 25.8452 25.9921 25.2766 26.2205 24.7341C26.2284 24.7159 26.2324 24.6962 26.2466 24.6819C26.2633 24.6748 26.2633 24.6574 26.2688 24.6432C26.2696 24.6377 26.2712 24.6321 26.2728 24.6274L26.272 24.6282C26.3029 24.5736 26.3243 24.5143 26.3608 24.4629C26.3655 24.4526 26.375 24.4447 26.3758 24.4321C26.3822 24.4226 26.3869 24.4123 26.3917 24.402C26.4076 24.3822 26.4194 24.3601 26.4305 24.3372C26.4472 24.3174 26.4583 24.2952 26.4694 24.2731C26.4805 24.2605 26.4876 24.2454 26.4963 24.2312C26.5106 24.2201 26.5154 24.2035 26.5249 24.1893C26.5399 24.1648 26.5598 24.1434 26.574 24.1181C26.5772 24.1102 26.5827 24.1039 26.5883 24.0983C26.5962 24.0904 26.6018 24.0817 26.6042 24.0715L26.6034 24.0722C26.6113 24.0683 26.6145 24.0596 26.6208 24.0541C26.6319 24.0446 26.639 24.0319 26.6462 24.0201L26.6454 24.0208C26.6525 24.0161 26.6581 24.0098 26.6596 24.0011C26.8063 23.816 26.9807 23.661 27.1781 23.5321C27.2875 23.461 27.4017 23.3969 27.5237 23.3495C27.565 23.3337 27.607 23.3194 27.6514 23.3139C27.6958 23.3076 27.6997 23.3099 27.7124 23.3534C27.733 23.4214 27.7402 23.4918 27.7465 23.5622C27.7687 23.8263 27.7782 24.0912 27.7861 24.3553C27.7996 24.81 27.8258 25.2632 27.8646 25.7163C27.9138 26.2817 27.9875 26.8431 28.0771 27.403C28.0874 27.4663 28.0945 27.5295 28.1025 27.5936C28.1136 27.6845 28.0969 27.7692 28.0438 27.8451C27.9859 27.9281 27.917 28.0016 27.8329 28.0609Z" fill="white"/>
<path d="M24.5905 24.1252C24.5564 24.0066 24.5485 23.8864 24.577 23.7662C24.6158 23.6001 24.7157 23.4839 24.8774 23.4238C24.9448 23.3985 25.0114 23.408 25.0772 23.4349C25.1525 23.4657 25.2255 23.5021 25.3063 23.5203C25.4268 23.5471 25.5291 23.5139 25.6195 23.4372C25.6916 23.3763 25.74 23.2965 25.7875 23.2174C25.8295 23.147 25.8755 23.0798 25.9255 23.0149C26.0047 22.9137 26.103 22.8702 26.2346 22.9058C26.4241 22.9572 26.5525 23.0719 26.6199 23.2546C26.6461 23.3249 26.6635 23.3977 26.6833 23.4704C26.6929 23.5044 26.6841 23.5282 26.6588 23.5527C26.5597 23.6476 26.4661 23.7464 26.3805 23.854C26.2671 23.9963 26.172 24.1497 26.0856 24.3087C26.0293 24.413 25.977 24.5198 25.9318 24.6297C25.8731 24.5799 25.8026 24.576 25.7312 24.5839C25.6916 24.5878 25.6528 24.5886 25.6131 24.5894C25.5124 24.557 25.4102 24.5293 25.3055 24.5166C25.2485 24.5095 25.1922 24.4992 25.1351 24.4985C25.0598 24.4969 24.9861 24.4795 24.9107 24.4842C24.8925 24.485 24.8727 24.4842 24.8719 24.4597C24.8711 24.3893 24.8616 24.3189 24.8616 24.2486C24.8616 24.1473 24.9211 24.0762 25.0011 24.0216C25.0487 23.9892 25.0978 23.9591 25.1462 23.9283C25.1747 23.9101 25.1985 23.888 25.2207 23.8635C25.2548 23.8255 25.2469 23.7907 25.2017 23.7678C25.1922 23.763 25.1811 23.7583 25.1708 23.7567C25.0106 23.7425 24.8624 23.7694 24.7427 23.888C24.669 23.9607 24.6317 24.0509 24.6174 24.1521C24.5897 24.16 24.6016 24.1315 24.5905 24.1252Z" fill="white"/>
<path d="M27.7342 22.9864C27.7294 22.9991 27.7191 23.0007 27.7072 23.0007C27.5716 22.9991 27.4472 23.0442 27.3259 23.0979C27.2086 23.1501 27.0984 23.2142 26.9921 23.2854C26.9755 23.2964 26.9588 23.3059 26.9422 23.317C26.9232 23.3162 26.9129 23.3028 26.901 23.2909C26.8827 23.2442 26.8653 23.1968 26.8471 23.1501C26.7305 22.8615 26.5173 22.6946 26.2105 22.6456C26.174 22.6401 26.1368 22.6409 26.0955 22.6385C26.1257 22.4645 26.0741 22.3087 26.0075 22.1561C25.9631 22.0549 25.895 21.9727 25.8078 21.9054C25.7872 21.8896 25.7713 21.8762 25.7737 21.8469C25.78 21.7504 25.7998 21.6595 25.8569 21.5796C25.8744 21.5559 25.895 21.5369 25.9195 21.5219C25.9584 21.4974 25.9988 21.4958 26.0377 21.5219C26.0575 21.5354 26.0773 21.5504 26.0947 21.567C26.1241 21.5939 26.1518 21.6223 26.1796 21.6508C26.2501 21.7236 26.3349 21.7655 26.4372 21.7686C26.4927 21.8066 26.5522 21.8169 26.6187 21.8082C26.7646 21.7884 26.8915 21.7251 27.0127 21.6461C27.092 21.5939 27.1285 21.6105 27.1499 21.7046C27.1602 21.7504 27.1562 21.7963 27.1451 21.8422C27.1285 21.9086 27.111 21.9742 27.0984 22.0415C27.0698 22.1949 27.1729 22.3941 27.3156 22.4598C27.3727 22.4859 27.4107 22.4614 27.4099 22.3973C27.4099 22.3783 27.4012 22.3578 27.4163 22.3404C27.4892 22.3752 27.5637 22.4084 27.6351 22.4455C27.685 22.4724 27.7334 22.5041 27.7516 22.5634C27.6668 22.5839 27.6533 22.5997 27.6485 22.6931C27.6446 22.7998 27.681 22.8955 27.7342 22.9864Z" fill="white"/>
<path d="M25.4657 22.0448C25.5846 22.0392 25.6663 22.1041 25.7313 22.1918C25.7892 22.2693 25.8161 22.3611 25.8367 22.4544C25.8526 22.5279 25.8684 22.6015 25.9033 22.6679C25.9144 22.6885 25.9152 22.7027 25.8922 22.7169C25.7979 22.7754 25.7329 22.8624 25.671 22.9518C25.6235 23.0206 25.5807 23.0925 25.5339 23.1621C25.4562 23.2784 25.4118 23.291 25.2842 23.2365C25.2192 23.2088 25.1557 23.1764 25.0868 23.1598C24.9108 23.1179 24.7522 23.1613 24.6111 23.2657C24.4383 23.3938 24.3321 23.5639 24.3083 23.7805C24.302 23.8383 24.3004 23.8359 24.2441 23.8509C24.0689 23.8968 23.9167 23.9798 23.8049 24.1285C23.7003 24.2669 23.6788 24.4211 23.7058 24.5863C23.7082 24.599 23.709 24.6132 23.7137 24.6251C23.7256 24.6543 23.7137 24.6686 23.6868 24.6804C23.6234 24.7081 23.5647 24.7429 23.5108 24.7848C23.4878 24.803 23.4735 24.7998 23.4577 24.7769C23.3039 24.5531 23.1517 24.3278 23.0565 24.0707C23.0343 24.0114 23.0106 23.9513 23.0098 23.8865C23.0478 23.8912 23.0454 23.926 23.0542 23.9505C23.1144 24.1063 23.1826 24.259 23.2634 24.4052C23.2785 24.4329 23.2936 24.4812 23.3269 24.4701C23.3617 24.4582 23.3491 24.41 23.3459 24.3752C23.3427 24.3364 23.3213 24.2993 23.3356 24.259C23.3586 24.2376 23.3808 24.2566 23.403 24.2605C23.418 24.2637 23.4347 24.2669 23.445 24.2518C23.4553 24.2376 23.4497 24.2218 23.4418 24.2083C23.4109 24.1577 23.3816 24.1063 23.3316 24.0715C23.3086 24.0557 23.2825 24.0415 23.2738 24.0114C23.2254 23.8248 23.1667 23.6406 23.1429 23.4484C23.139 23.4152 23.1184 23.3875 23.1136 23.3543C23.1659 23.2989 23.2278 23.3037 23.2896 23.3298C23.3388 23.3503 23.3776 23.3883 23.4157 23.4255C23.4886 23.4958 23.5528 23.5749 23.6313 23.6398C23.7106 23.7054 23.7978 23.7536 23.9016 23.771C24.0744 23.8003 24.2243 23.7149 24.2829 23.5496C24.3123 23.4674 24.3186 23.382 24.3218 23.2958C24.3241 23.2072 24.3352 23.121 24.363 23.0364C24.401 22.9209 24.4692 22.8703 24.5905 22.8822C24.6412 22.8877 24.6912 22.8909 24.7419 22.8933C24.8466 22.8988 24.9433 22.8775 25.0289 22.8142C25.1375 22.8482 25.2318 22.8126 25.3064 22.7051C25.3872 22.588 25.4197 22.4536 25.434 22.3144C25.4411 22.2425 25.453 22.1705 25.4491 22.0977C25.4475 22.0803 25.4514 22.0614 25.4657 22.0448Z" fill="white"/>
<path d="M25.6122 24.5886C25.7081 24.5546 25.8048 24.5538 25.9023 24.583C25.9253 24.5901 25.9324 24.6068 25.9316 24.6289C25.8904 24.7285 25.8532 24.829 25.8207 24.9318C25.8151 24.9507 25.8064 24.9681 25.7985 24.9863C25.7604 25.0654 25.743 25.1532 25.7017 25.2307C25.6914 25.2497 25.6843 25.2797 25.6597 25.275C25.6296 25.2694 25.6352 25.237 25.6352 25.2141C25.6344 25.1461 25.6359 25.0773 25.6201 25.01C25.6161 24.9934 25.6153 24.9713 25.5923 24.9705C25.5749 24.9697 25.5662 24.9871 25.5622 25.0014C25.5178 25.1469 25.4671 25.2924 25.5194 25.4466C25.5369 25.4964 25.5234 25.5264 25.4774 25.5478C25.4267 25.5707 25.3839 25.6063 25.341 25.6411C25.2594 25.7083 25.2602 25.7328 25.3474 25.7937C25.345 25.8293 25.3395 25.8657 25.3831 25.8831C25.3934 25.8854 25.4045 25.8878 25.4179 25.8902C25.3934 25.925 25.3696 25.9582 25.3458 25.9914C25.3434 25.9851 25.3418 25.9788 25.3395 25.9724C25.3157 25.9131 25.3054 25.9107 25.2491 25.9511C25.2166 25.9669 25.2142 25.9361 25.2023 25.9202C25.192 25.9068 25.1896 25.8815 25.1682 25.8854C25.1444 25.8894 25.1444 25.9147 25.1405 25.9337C25.1199 26.0381 25.1159 26.1432 25.1111 26.2492C25.1096 26.2864 25.1104 26.3243 25.0969 26.3599C25.0921 26.3718 25.0882 26.3876 25.0723 26.3876C25.0596 26.3876 25.0549 26.3749 25.0509 26.3654C25.0287 26.3061 25.0017 26.2484 25.0287 26.1812C25.0596 26.1037 25.0509 26.0199 25.0469 25.9384C25.0406 25.7977 25.0303 25.6569 24.9954 25.5193C24.9573 25.3714 24.8789 25.2568 24.7449 25.1769C24.6648 25.1287 24.5824 25.0891 24.4999 25.0456C24.3771 24.9808 24.3739 24.9436 24.4698 24.8456C24.4991 24.8155 24.5332 24.7989 24.5721 24.7894C24.6521 24.7712 24.7338 24.7689 24.8147 24.7641C25.0279 24.7515 25.2419 24.7428 25.4552 24.7356C25.5345 24.7325 25.6137 24.7246 25.6922 24.719C25.701 24.7183 25.7105 24.7183 25.7184 24.7151C25.739 24.7072 25.7739 24.7151 25.7763 24.6835C25.7778 24.6597 25.7493 24.651 25.7303 24.6415C25.693 24.6234 25.6526 24.6068 25.6122 24.5886Z" fill="white"/>
<path d="M23.4385 22.2083C23.4393 22.081 23.4686 22.0383 23.5717 22.0043C23.6826 21.9671 23.7968 21.9418 23.9133 21.926C23.9633 21.9196 23.9664 21.9212 23.9704 21.971C23.9783 22.0675 23.9831 22.1648 23.9886 22.2613C24.0005 22.4977 24.0354 22.7302 24.1091 22.9564C24.1171 22.9809 24.1147 23.0038 24.1084 23.0275C24.0854 23.1153 24.0751 23.2047 24.0719 23.2956C24.0703 23.3399 24.0655 23.3834 24.056 23.4269C24.037 23.5107 23.9958 23.5321 23.9149 23.4988C23.8578 23.4759 23.8174 23.4411 23.7968 23.3763C23.7405 23.1999 23.6589 23.0331 23.6018 22.8567C23.5455 22.6851 23.4876 22.5135 23.4559 22.3348C23.4464 22.2874 23.4424 22.2383 23.4385 22.2083Z" fill="white"/>
<path d="M24.5751 24.7896C24.5124 24.8251 24.4649 24.8757 24.4229 24.9327C24.4078 24.9525 24.4118 24.9635 24.4284 24.9762C24.4768 25.011 24.5251 25.045 24.5822 25.0655C24.6876 25.1035 24.778 25.1683 24.8613 25.2395C24.9604 25.3241 25.004 25.4435 25.0285 25.5693C25.061 25.7409 25.0713 25.9133 25.069 26.0872C25.0682 26.1276 25.0571 26.1655 25.0444 26.2027C25.0325 26.2351 25.0293 26.2644 25.0476 26.2968C25.061 26.3213 25.0658 26.3498 25.0761 26.3806C25.0912 26.3403 25.0959 26.3023 25.0959 26.2628C25.0959 26.1552 25.1078 26.0477 25.1229 25.9417C25.126 25.918 25.134 25.8943 25.1435 25.8729C25.157 25.8421 25.1792 25.8397 25.1966 25.8682C25.2093 25.8887 25.2188 25.9109 25.2275 25.9338C25.2323 25.9457 25.2394 25.9512 25.2513 25.9536C25.1673 26.0769 25.1482 26.213 25.1681 26.3585C25.1823 26.4636 25.1942 26.5688 25.1879 26.6748C25.1855 26.7191 25.1784 26.7626 25.1641 26.8045C25.1562 26.8282 25.1435 26.8313 25.1252 26.8147C25.0951 26.7879 25.0729 26.7546 25.0539 26.7198C24.9857 26.5949 24.9588 26.4597 24.9493 26.3197C24.9366 26.137 24.9429 25.9536 24.9358 25.7701C24.9318 25.6752 24.9175 25.5811 24.8819 25.4926C24.8335 25.3739 24.7455 25.2988 24.6195 25.2711C24.5632 25.2585 24.5053 25.2616 24.4474 25.2711C24.4149 25.2767 24.3824 25.2822 24.3499 25.2877C24.2714 25.2877 24.1914 25.2957 24.1256 25.2387C24.0978 25.2 24.0907 25.1533 24.0883 25.1082C24.0852 25.0426 24.0883 24.977 24.0883 24.9113C24.0883 24.8844 24.097 24.8647 24.1264 24.8583C24.2754 24.8283 24.4237 24.7982 24.5751 24.7896Z" fill="white"/>
<path d="M27.4165 22.3396C27.4196 22.3547 27.4236 22.3697 27.4268 22.3847C27.4355 22.4219 27.4291 22.4551 27.3974 22.4796C27.3633 22.5057 27.3285 22.4923 27.2991 22.4733C27.2587 22.4464 27.2199 22.4171 27.1881 22.3792C27.1017 22.2748 27.0486 22.1601 27.0843 22.0202C27.1009 21.9545 27.116 21.8873 27.1319 21.8209C27.143 21.7726 27.143 21.7252 27.1247 21.6778C27.1223 21.6714 27.12 21.6651 27.1176 21.6596C27.0986 21.6192 27.0898 21.6161 27.0526 21.639C27.0114 21.6643 26.9709 21.692 26.9297 21.7165C26.8219 21.7813 26.7046 21.8177 26.5801 21.832C26.5397 21.8367 26.5016 21.8233 26.4644 21.809C26.4469 21.8019 26.4334 21.7908 26.4358 21.7695C26.523 21.7655 26.5983 21.7315 26.6681 21.6825C26.726 21.6422 26.7791 21.5955 26.8322 21.5489C26.8869 21.5006 26.9479 21.4611 27.0098 21.4215C27.0621 21.3875 27.1208 21.3662 27.1842 21.363C27.2856 21.3583 27.3483 21.4271 27.3308 21.5188C27.3189 21.5821 27.2991 21.6422 27.2793 21.7031C27.2539 21.7806 27.2309 21.8588 27.2286 21.9411C27.223 22.1064 27.2738 22.2447 27.4165 22.3396Z" fill="white"/>
<path d="M25.3458 25.804C25.3188 25.7874 25.2816 25.7953 25.2689 25.7462C25.2586 25.7059 25.2625 25.6814 25.2903 25.6616C25.3537 25.615 25.4092 25.5564 25.4853 25.5272C25.517 25.5153 25.5218 25.4979 25.5075 25.4655C25.475 25.3935 25.4742 25.3184 25.4877 25.2401C25.4972 25.1864 25.5051 25.1318 25.5194 25.0788C25.5257 25.0535 25.5352 25.029 25.5432 25.0037C25.5519 24.9729 25.5685 24.9373 25.601 24.9412C25.6359 24.9452 25.6335 24.9855 25.6407 25.0163C25.6589 25.0986 25.6486 25.1832 25.6541 25.2654C25.6756 25.2702 25.6756 25.2544 25.6803 25.2425C25.7073 25.1777 25.7334 25.112 25.7628 25.048C25.7723 25.0266 25.7786 25.0013 25.8008 24.9871C25.777 25.0875 25.7517 25.1872 25.7295 25.2876C25.7009 25.4141 25.6795 25.5414 25.6645 25.6703C25.6621 25.6901 25.6565 25.7091 25.6526 25.728C25.6446 25.7367 25.6375 25.7462 25.6264 25.7518C25.6042 25.7605 25.5891 25.7818 25.5646 25.7866C25.5083 25.7652 25.4544 25.7787 25.3997 25.7961C25.3822 25.8008 25.3664 25.8206 25.3458 25.804Z" fill="white"/>
<path d="M23.3439 24.2549C23.3502 24.2913 23.3542 24.3292 23.3629 24.3648C23.3724 24.4051 23.3669 24.4439 23.3558 24.4818C23.347 24.5127 23.3344 24.5158 23.309 24.4945C23.2749 24.4652 23.2527 24.4265 23.2329 24.387C23.1536 24.2288 23.0775 24.0706 23.022 23.9022C23.0204 23.8967 23.0141 23.8919 23.0101 23.8864C22.9776 23.7551 22.9808 23.6254 23.0236 23.4973C23.0418 23.4435 23.0656 23.3914 23.114 23.355C23.156 23.3771 23.1592 23.4206 23.1639 23.4578C23.1845 23.631 23.2345 23.797 23.2813 23.9639C23.2868 23.9837 23.2892 24.0026 23.2892 24.0224C23.2107 24.0706 23.2067 24.1244 23.2749 24.1869C23.2987 24.209 23.336 24.2169 23.3439 24.2549Z" fill="white"/>
<path d="M24.314 24.0737C24.3426 24.156 24.3608 24.2414 24.3996 24.3212C24.421 24.3647 24.4456 24.4059 24.4694 24.4486C24.4765 24.462 24.4892 24.4723 24.4868 24.4952C24.2926 24.5181 24.0968 24.5395 23.9018 24.6012C23.8955 24.4082 23.9597 24.2588 24.119 24.1568C24.1705 24.1235 24.2268 24.0975 24.2855 24.0769C24.2958 24.0801 24.3045 24.0785 24.314 24.0737Z" fill="white"/>
<path d="M25.4663 22.0446C25.4687 22.2059 25.4607 22.3665 25.4132 22.5215C25.3854 22.6148 25.3474 22.7041 25.2744 22.7737C25.2277 22.818 25.173 22.8449 25.1103 22.8512C25.0794 22.8544 25.0422 22.8591 25.0303 22.8156C25.1286 22.735 25.1666 22.6243 25.188 22.5041C25.2007 22.4305 25.2134 22.3562 25.2277 22.2834C25.2372 22.236 25.2554 22.1909 25.2776 22.1474C25.3172 22.0715 25.3783 22.0335 25.4663 22.0446Z" fill="white"/>
<path d="M27.7344 22.9864C27.7209 22.9848 27.709 22.9793 27.7019 22.9666C27.6488 22.8607 27.6115 22.7515 27.6416 22.6305C27.663 22.5443 27.671 22.5396 27.7518 22.5625C27.8113 22.6558 27.8176 22.7563 27.7907 22.8599C27.7796 22.9057 27.7574 22.9461 27.7344 22.9864Z" fill="white"/>
<path d="M24.2575 21.9568C24.2979 21.9694 24.3074 22.0027 24.3122 22.039C24.3193 22.1007 24.3241 22.1616 24.3241 22.2241C24.3233 22.3451 24.3241 22.4668 24.3249 22.5878C24.29 22.5855 24.2947 22.5546 24.286 22.5341C24.2852 22.5127 24.2717 22.4961 24.2694 22.4755C24.2646 22.4653 24.2678 22.4534 24.2607 22.4431C24.2377 22.2881 24.2337 22.1315 24.2266 21.9758C24.2266 21.9702 24.2289 21.9655 24.2329 21.9615C24.2408 21.9584 24.2496 21.96 24.2575 21.9568Z" fill="white"/>
<path d="M25.5702 25.7828C25.5757 25.7527 25.6011 25.7472 25.6241 25.7393C25.6265 25.74 25.6296 25.7408 25.632 25.7408C25.64 25.744 25.6463 25.7487 25.6503 25.7559C25.6542 25.8049 25.6431 25.8523 25.6392 25.9006C25.6146 25.9227 25.6352 25.9551 25.6201 25.9828C25.5948 25.9283 25.571 25.8753 25.5313 25.8318C25.5298 25.8041 25.548 25.7922 25.5702 25.7828Z" fill="white"/>
<path d="M23.6594 25.0764C23.6554 25.1871 23.6689 25.2955 23.7077 25.3998C23.7141 25.4172 23.7172 25.4338 23.7038 25.4497C23.6697 25.3738 23.6475 25.2947 23.6364 25.2124C23.6308 25.1658 23.6205 25.116 23.6594 25.0764Z" fill="white"/>
<path d="M24.125 25.2378C24.1979 25.2639 24.2748 25.271 24.3493 25.2868C24.3129 25.2955 24.2764 25.305 24.2384 25.3018C24.1916 25.2987 24.1456 25.29 24.125 25.2378Z" fill="white"/>
<path d="M24.2955 22.5239C24.3058 22.5445 24.3074 22.5698 24.324 22.588C24.328 22.6157 24.332 22.6441 24.3351 22.6726C24.3367 22.6845 24.3288 22.6932 24.3177 22.6971C24.3018 22.7019 24.2995 22.6908 24.2971 22.6797C24.2907 22.6481 24.2796 22.6164 24.282 22.5832C24.2836 22.5627 24.2614 22.5366 24.2955 22.5239Z" fill="white"/>
<path d="M26.3694 24.4581C26.3377 24.5151 26.3186 24.5791 26.2734 24.6281C26.2933 24.5601 26.3273 24.4985 26.367 24.4399C26.3749 24.4447 26.3757 24.451 26.3694 24.4581Z" fill="white"/>
<path d="M26.5828 24.1126C26.5733 24.1443 26.5559 24.1704 26.5305 24.1925C26.525 24.1972 26.5202 24.1964 26.5146 24.1917C26.5313 24.1569 26.5543 24.1261 26.5804 24.0984C26.5828 24.1008 26.5844 24.1031 26.5868 24.1055C26.586 24.1079 26.5844 24.1103 26.5828 24.1126Z" fill="white"/>
<path d="M24.2963 22.5238C24.278 22.5396 24.2883 22.5626 24.2828 22.5823C24.2693 22.5602 24.2717 22.5357 24.2693 22.512C24.2646 22.4985 24.2606 22.4851 24.2725 22.4724C24.2899 22.4851 24.2891 22.5064 24.2963 22.5238Z" fill="white"/>
<path d="M26.4362 24.3387C26.4307 24.3656 26.4212 24.3893 26.3966 24.4051C26.3902 24.3996 26.3902 24.394 26.395 24.3877C26.4045 24.3632 26.4164 24.3403 26.4346 24.3213C26.4418 24.326 26.4426 24.3324 26.4362 24.3387Z" fill="white"/>
<path d="M26.436 24.3388C26.4352 24.3324 26.4344 24.3269 26.4336 24.3206C26.4384 24.3008 26.4502 24.2858 26.4629 24.2708C26.4677 24.2652 26.4724 24.2652 26.4772 24.2708C26.4709 24.2984 26.4605 24.3229 26.436 24.3388Z" fill="white"/>
<path d="M26.9004 23.2917C26.9178 23.2941 26.9345 23.2989 26.9416 23.3178C26.9329 23.3258 26.925 23.3368 26.9107 23.3305C26.9083 23.3265 26.9051 23.3234 26.9028 23.3194C26.902 23.3099 26.9012 23.3004 26.9004 23.2917Z" fill="white"/>
<path d="M26.4772 24.2715C26.4724 24.2715 26.4676 24.2715 26.4629 24.2715C26.4708 24.2502 26.4819 24.2304 26.5002 24.2146C26.5073 24.2201 26.5089 24.2265 26.5025 24.2336C26.5009 24.251 26.4922 24.2636 26.4772 24.2715Z" fill="white"/>
<path d="M24.5902 24.1252C24.5989 24.1339 24.6076 24.1426 24.6156 24.1513C24.6156 24.1616 24.6195 24.1727 24.6092 24.1814C24.5918 24.1664 24.5886 24.1466 24.5902 24.1252Z" fill="white"/>
<path d="M24.2729 22.4726C24.2721 22.4861 24.2705 22.4987 24.2697 22.5122C24.257 22.4908 24.2578 22.4671 24.2602 22.4434C24.2705 22.4505 24.2721 22.4615 24.2729 22.4726Z" fill="white"/>
<path d="M26.5024 24.2336C26.5016 24.2272 26.5008 24.2209 26.5 24.2146C26.5016 24.2043 26.5071 24.198 26.5151 24.1917C26.5206 24.1917 26.5254 24.1924 26.5309 24.1924C26.5277 24.2106 26.5182 24.2241 26.5024 24.2336Z" fill="white"/>
<path d="M26.2766 24.6423C26.2726 24.6597 26.2758 24.6819 26.248 24.6819C26.2488 24.6668 26.256 24.6542 26.2647 24.6431C26.2679 24.6376 26.2718 24.6384 26.2766 24.6423Z" fill="white"/>
<path d="M26.6479 24.0186C26.6487 24.0375 26.64 24.051 26.6225 24.0589C26.6178 24.0565 26.6162 24.0541 26.6178 24.051C26.6194 24.0478 26.6202 24.047 26.6217 24.047C26.6273 24.0352 26.6344 24.0241 26.6479 24.0186Z" fill="white"/>
<path d="M26.3947 24.3877C26.3955 24.3932 26.3955 24.3996 26.3963 24.4051C26.3955 24.4154 26.3931 24.4241 26.3836 24.4304C26.3796 24.4367 26.3749 24.4367 26.3701 24.4312C26.3741 24.4138 26.3812 24.3996 26.3947 24.3877Z" fill="white"/>
<path d="M24.2328 21.964C24.2304 21.968 24.228 21.9719 24.2264 21.9759C24.2201 21.9648 24.2145 21.9521 24.228 21.9426C24.236 21.9371 24.2439 21.9426 24.2478 21.9513C24.2463 21.9593 24.2383 21.96 24.2328 21.964Z" fill="white"/>
<path d="M26.6054 24.0698C26.6086 24.0817 26.6062 24.092 26.5951 24.0983C26.592 24.1015 26.5888 24.103 26.584 24.1022L26.5801 24.0975C26.5856 24.0856 26.592 24.0746 26.6054 24.0698Z" fill="#BCC1B1"/>
<path d="M24.3137 24.0737C24.3058 24.0895 24.2955 24.084 24.2852 24.0769C24.2947 24.0761 24.3042 24.0753 24.3137 24.0737Z" fill="white"/>
<path d="M26.3706 24.4312C26.3753 24.4312 26.3793 24.4312 26.384 24.4304C26.3832 24.4415 26.3801 24.4518 26.3698 24.4581C26.369 24.4518 26.3682 24.4462 26.3674 24.4399C26.3666 24.436 26.3682 24.4328 26.3706 24.4312Z" fill="white"/>
<path d="M25.624 25.7392C25.6312 25.7305 25.6415 25.7281 25.6518 25.7273C25.651 25.732 25.651 25.7368 25.6502 25.7407C25.643 25.7494 25.6351 25.7486 25.6264 25.7423L25.624 25.7392Z" fill="white"/>
<path d="M25.627 25.7423C25.6349 25.7415 25.6428 25.7415 25.6507 25.7407C25.6507 25.7455 25.6499 25.751 25.6499 25.7557C25.6404 25.7542 25.6293 25.755 25.627 25.7423Z" fill="white"/>
<path d="M26.6221 24.0469C26.6229 24.0508 26.6229 24.0548 26.6229 24.0587C26.6189 24.0659 26.6142 24.0698 26.6055 24.0706C26.6055 24.0587 26.6118 24.0516 26.6221 24.0469Z" fill="#BCC1B1"/>
<path d="M24.2324 21.9641C24.2372 21.9601 24.2419 21.9554 24.2467 21.9514C24.2499 21.953 24.253 21.9554 24.2562 21.9577C24.2499 21.9625 24.2427 21.968 24.2324 21.9641Z" fill="white"/>
<path d="M26.2765 24.6423C26.2725 24.6423 26.2686 24.6423 26.2638 24.6423C26.263 24.6344 26.2654 24.6288 26.2741 24.6265C26.2749 24.632 26.2757 24.6367 26.2765 24.6423Z" fill="white"/>
<path d="M26.6617 23.9995C26.6601 24.0082 26.6562 24.0153 26.6475 24.0193C26.6475 24.0098 26.6538 24.0035 26.6617 23.9995Z" fill="white"/>
<path d="M26.9028 23.3186C26.9084 23.3202 26.9107 23.3241 26.9107 23.3297C26.9036 23.3297 26.9012 23.3249 26.9028 23.3186Z" fill="white"/>
<path d="M25.5695 25.7826C25.5632 25.804 25.5433 25.815 25.5307 25.8316C25.4855 25.8585 25.4347 25.8728 25.384 25.8846C25.3777 25.8838 25.3713 25.8846 25.365 25.883C25.315 25.872 25.3119 25.8649 25.3356 25.819C25.3388 25.8135 25.3428 25.8087 25.3459 25.8032C25.3959 25.766 25.4546 25.7621 25.5132 25.7565C25.537 25.7549 25.5552 25.7644 25.5695 25.7826Z" fill="#0000FF"/>
<path d="M25.6835 27.9978C25.6922 28.0002 25.6994 28.0065 25.701 28.0152C25.7026 28.0231 25.697 28.0279 25.6907 28.0231C25.6843 28.0184 25.6804 28.0105 25.6748 28.0041C25.6772 28.0018 25.6804 27.9994 25.6835 27.9978Z" fill="white"/>
<path d="M26.5854 24.1031C26.5886 24.1007 26.5925 24.0999 26.5965 24.0991C26.5917 24.1039 26.5878 24.1086 26.583 24.1126C26.583 24.1094 26.5838 24.1062 26.5854 24.1031Z" fill="white"/>
<path d="M25.5191 23.8729C25.4779 23.8737 25.4422 23.8634 25.4089 23.8445C25.382 23.8286 25.3677 23.8049 25.3733 23.7725C25.3788 23.7432 25.4034 23.7337 25.4272 23.7306C25.5049 23.7187 25.5762 23.7393 25.6388 23.7867C25.6737 23.8136 25.669 23.8381 25.6261 23.8532C25.5913 23.8658 25.5548 23.8745 25.5191 23.8729Z" fill="#0000FF"/>
<path d="M26.9906 22.4195C27.035 22.4179 27.0628 22.4456 27.0509 22.482C27.0208 22.5745 26.97 22.6536 26.8789 22.6963C26.8297 22.7192 26.779 22.6923 26.7679 22.6393C26.7623 22.6132 26.7631 22.5864 26.7766 22.5626C26.8242 22.4764 26.9082 22.4448 26.9906 22.4195Z" fill="#0000FF"/>
<path d="M26.6055 22.3855C26.6102 22.3199 26.6182 22.2574 26.6483 22.1989C26.6649 22.1657 26.6911 22.142 26.7252 22.1293C26.7815 22.1088 26.8251 22.1404 26.8187 22.1997C26.8084 22.2986 26.7585 22.3776 26.6855 22.4425C26.6713 22.4559 26.6522 22.467 26.6316 22.4583C26.6071 22.448 26.6055 22.4251 26.6055 22.4029C26.6055 22.3974 26.6055 22.3911 26.6055 22.3855Z" fill="#0000FF"/>
<path d="M23.3392 23.7781C23.3392 23.767 23.3384 23.756 23.3392 23.7449C23.3408 23.7227 23.3416 23.699 23.3678 23.6903C23.3915 23.6816 23.4137 23.6911 23.4288 23.7069C23.5327 23.8145 23.6 23.9418 23.623 24.0897C23.6302 24.1371 23.5969 24.1561 23.5564 24.1284C23.4312 24.0454 23.344 23.9362 23.3392 23.7781Z" fill="#0000FF"/>
<path d="M23.3438 24.2549C23.3145 24.2351 23.2844 24.2169 23.2574 24.1956C23.2289 24.1734 23.2098 24.1434 23.2083 24.1054C23.2051 24.0509 23.2313 24.0248 23.2907 24.0232C23.3605 24.0651 23.4152 24.1205 23.4532 24.1924C23.4604 24.2059 23.4683 24.2201 23.4715 24.2343C23.4802 24.2699 23.4612 24.2913 23.4239 24.2834C23.3961 24.2778 23.37 24.2644 23.3438 24.2549Z" fill="#0000FF"/>
<path d="M23.7791 23.0204C23.7791 23.0512 23.7799 23.0821 23.7783 23.1129C23.7783 23.1232 23.7735 23.1351 23.7601 23.1366C23.7498 23.1374 23.745 23.1287 23.741 23.1208C23.6998 23.0497 23.6729 22.9729 23.6499 22.8947C23.6126 22.7681 23.5754 22.6416 23.5413 22.5151C23.5191 22.4328 23.4969 22.3498 23.5016 22.2628C23.5024 22.2541 23.5016 22.2454 23.5024 22.2367C23.504 22.2122 23.5096 22.1853 23.5325 22.1743C23.5579 22.1624 23.5777 22.1845 23.5952 22.2004C23.6427 22.2431 23.6689 22.3008 23.6855 22.3593C23.7133 22.4581 23.7331 22.5594 23.7418 22.6622C23.7498 22.7492 23.7672 22.8354 23.7775 22.9223C23.7815 22.9548 23.7783 22.988 23.7783 23.0212C23.7783 23.0204 23.7791 23.0204 23.7791 23.0204Z" fill="white"/>
<path d="M25.986 30.9911C29.3028 30.9911 31.9915 28.3023 31.9915 24.9855C31.9915 21.6688 29.3028 18.98 25.986 18.98C22.6692 18.98 19.9805 21.6688 19.9805 24.9855C19.9805 28.3023 22.6692 30.9911 25.986 30.9911Z" stroke="#0000FF" stroke-width="0.0630503" stroke-miterlimit="10"/>
<defs>
<clipPath id="clip0_663_254173">
<rect width="14" height="14" fill="white" transform="translate(19)"/>
</clipPath>
</defs>
</svg>
