<svg width="32" height="32" viewBox="0 0 32 32" fill="none" xmlns="http://www.w3.org/2000/svg">
<path fill-rule="evenodd" clip-rule="evenodd" d="M7.18656 28.145L6.29932 27.8616L5.42707 27.352L4.54397 26.6001L3.81692 25.7321L3.15207 24.6995L2.57071 23.5285L2.02277 22.0682L1.36758 20.038L0.759971 17.7823L0.561575 16.9562L0.264397 15.179L0.148224 14.2518L0.019104 12.5225L0.0525352 10.8004L0.264397 9.10044L0.620225 7.51793L0.854908 6.52344L1.36758 5.11318L1.98886 3.9622L3.34626 2.12099L4.12139 1.45333L4.97051 0.851425L5.72334 0.472434L6.79761 0.155057L8.7284 0.0212402L10.3756 0.192985L12.3196 0.583727L14.4833 1.21836L16.7656 2.03317L19.0451 3.00436L19.2626 3.07802L21.4665 4.17441L23.4096 5.36581L24.9178 6.59083L25.3225 6.88115L26.7383 8.4894L27.0537 8.99991L27.796 10.7158L28.0091 11.3751L28.1537 12.0926L28.2142 12.8272V13.6283L28.1565 14.3293L27.8702 15.7625L27.677 16.3993L27.4388 16.9562L27.107 17.5183L26.7383 17.9819L26.3548 18.2979L25.2697 18.8891L24.0012 19.3189L22.1717 19.7983L20.4051 20.2308L18.2826 20.7381L16.7326 21.1615L16.1474 21.3023L14.14 21.9403L13.1941 22.3012L12.7825 22.4525L12.6648 23.027L12.4217 23.7332L12.2051 24.3333L11.9688 24.8464L11.4021 25.917L10.7096 26.8059L9.96049 27.4648L8.92357 28.0083L8.04561 28.1794L7.18656 28.145Z" fill="url(#paint0_linear_545_15082)"/>
<path d="M11.8981 8.14856L11.6534 8.48657L11.8611 10.1959L12.0534 9.7978L11.8981 8.14856Z" fill="#FBF100"/>
<path d="M8.72869 0L7.42386 0.0799467L8.06795 0.310041L9.21176 0.230101L8.72869 0Z" fill="#A40000"/>
<path d="M11.6691 6.54761L11.3475 6.82832L11.6532 8.48638L11.8979 8.14837L11.6691 6.54761Z" fill="#FFAE00"/>
<path d="M9.21183 0.230103L8.06802 0.310042L8.71308 0.818765L9.69545 0.728269L9.21183 0.230103Z" fill="#A80000"/>
<path d="M11.3727 5.04041L10.9516 5.26829L11.3475 6.82862L11.6691 6.54791L11.3727 5.04041Z" fill="#FF7300"/>
<path d="M9.69499 0.728271L8.71262 0.818767L9.34063 1.5934L10.1657 1.48205L9.69499 0.728271Z" fill="#B60000"/>
<path d="M11.0163 3.66833L10.4759 3.84946L10.9513 5.26798L11.3724 5.04009L11.0163 3.66833Z" fill="#FF3F00"/>
<path d="M10.1659 1.48218L9.34076 1.59352L9.93409 2.61322L10.6105 2.47136L10.1659 1.48218Z" fill="#D60000"/>
<path d="M10.6102 2.47095L9.93378 2.61281L10.4757 3.84937L11.0162 3.66825L10.6102 2.47095Z" fill="#FF1300"/>
<path d="M14.5264 13.5077L13.3946 13.7455L13.3394 15.0211L14.5144 14.7138L14.5264 13.5077Z" fill="#16FFE1"/>
<path d="M14.5366 12.2003L13.4253 12.3595L13.3948 13.7455L14.5266 13.5077L14.5366 12.2003Z" fill="#4DFFAA"/>
<path d="M14.5448 10.8254L13.4303 10.8989L13.4257 12.3595L14.537 12.2003L14.5448 10.8254Z" fill="#80FF77"/>
<path d="M14.5496 9.41954L13.4081 9.40259L13.4297 10.8991L14.5443 10.8256L14.5496 9.41954Z" fill="#B7FF40"/>
<path d="M14.5523 8.02037L13.3606 7.91089L13.4081 9.40284L14.5496 9.41979L14.5523 8.02037Z" fill="#EBFF0C"/>
<path d="M14.4835 1.18934L12.3195 0.566772L12.4813 0.771462L14.4989 1.37113L14.4835 1.18934Z" fill="#ED0400"/>
<path d="M14.5523 6.6658L13.2884 6.46436L13.3607 7.91089L14.5524 8.02037L14.5523 6.6658Z" fill="#FFCC00"/>
<path d="M14.4985 1.37152L12.4809 0.771851L12.642 1.21872L14.5127 1.78084L14.4985 1.37152Z" fill="#F10800"/>
<path d="M14.5496 5.3935L13.1933 5.10339L13.2885 6.46428L14.5524 6.66573L14.5496 5.3935Z" fill="#FF9800"/>
<path d="M14.5128 1.78063L12.6422 1.21851L12.7981 1.89635L14.5252 2.40716L14.5128 1.78063Z" fill="#FF1300"/>
<path d="M14.5441 4.23867L13.0778 3.86584L13.1934 5.10315L14.5497 5.39326L14.5441 4.23867Z" fill="#FF6C00"/>
<path d="M14.5251 2.40693L12.7979 1.89612L12.9444 2.78677L14.5355 3.23388L14.5251 2.40693Z" fill="#FF2900"/>
<path d="M14.536 3.23447L12.9449 2.78735L13.0777 3.86638L14.5441 4.2392L14.536 3.23447Z" fill="#FF4700"/>
<path d="M13.3952 13.7458L12.5613 14.1084L12.4585 15.4497L13.3399 15.0215L13.3952 13.7458Z" fill="#13FCE4"/>
<path d="M13.4252 12.3595L12.6142 12.6487L12.5608 14.1081L13.3948 13.7455L13.4252 12.3595Z" fill="#49FFAD"/>
<path d="M13.43 10.8989L12.5608 11.1091L12.6144 12.6487L13.4254 12.3595L13.43 10.8989Z" fill="#80FF77"/>
<path d="M13.4081 9.40259L12.5663 9.52979L12.6162 11.1091L13.4298 10.8991L13.4081 9.40259Z" fill="#BAFF3C"/>
<path d="M13.3604 7.91101L12.4651 7.9541L12.5661 9.53015L13.408 9.40296L13.3604 7.91101Z" fill="#F1FC06"/>
<path d="M12.3192 0.566985L10.3756 0.164795L10.6954 0.386061L12.481 0.771681L12.3192 0.566985Z" fill="#D10000"/>
<path d="M13.2882 6.46392L12.3155 6.42407L12.4652 7.95349L13.3605 7.9104L13.2882 6.46392Z" fill="#FFC100"/>
<path d="M12.4814 0.771485L10.6958 0.385864L11.0156 0.862932L12.6425 1.21835L12.4814 0.771485Z" fill="#D60000"/>
<path d="M13.1935 5.10328L12.1215 4.98413L12.316 6.42432L13.2888 6.46417L13.1935 5.10328Z" fill="#FF8900"/>
<path d="M12.6422 1.21833L11.0153 0.862915L11.3261 1.58382L12.7981 1.89613L12.6422 1.21833Z" fill="#E40000"/>
<path d="M13.0776 3.86612L11.887 3.67371L12.1212 4.98424L13.1933 5.10339L13.0776 3.86612Z" fill="#FF5D00"/>
<path d="M12.7983 1.89666L11.3263 1.58435L11.6195 2.52987L12.9447 2.78732L12.7983 1.89666Z" fill="#FF1300"/>
<path d="M12.9448 2.78687L11.6196 2.52942L11.887 3.67344L13.0776 3.86586L12.9448 2.78687Z" fill="#FF3400"/>
<path d="M15.8934 13.3977L14.5268 13.5083L14.5147 14.7144L15.919 14.5316L15.8934 13.3977Z" fill="#1CFFDB"/>
<path d="M15.8859 12.172L14.5367 12.2003L14.5267 13.5078L15.8933 13.3972L15.8859 12.172Z" fill="#50FFA7"/>
<path d="M15.8975 10.8875L14.5448 10.8257L14.537 12.2006L15.8862 12.1723L15.8975 10.8875Z" fill="#80FF77"/>
<path d="M15.9268 9.57686L14.5498 9.41943L14.5445 10.8255L15.8972 10.8873L15.9268 9.57686Z" fill="#B4FF43"/>
<path d="M15.9745 8.27624L14.5527 8.02051L14.5501 9.41993L15.9271 9.57735L15.9745 8.27624Z" fill="#E4FF13"/>
<path d="M16.0385 7.01944L14.5526 6.66553L14.5527 8.02006L15.9745 8.2758L16.0385 7.01944Z" fill="#FFD700"/>
<path d="M16.7656 2.0067L14.4833 1.18982L14.4988 1.37161L16.6515 2.16088L16.7656 2.0067Z" fill="#FF1E00"/>
<path d="M16.1176 5.84237L14.5498 5.39331L14.5526 6.66557L16.0386 7.01949L16.1176 5.84237Z" fill="#FFA700"/>
<path d="M16.6518 2.16061L14.4991 1.37134L14.5132 1.78066L16.536 2.527L16.6518 2.16061Z" fill="#FF1E00"/>
<path d="M16.2089 4.77737L14.5436 4.23901L14.5492 5.39357L16.117 5.84262L16.2089 4.77737Z" fill="#FF7E00"/>
<path d="M16.536 2.52711L14.5132 1.78076L14.5256 2.40728L16.4216 3.09646L16.536 2.52711Z" fill="#FF2900"/>
<path d="M16.3111 3.85329L14.5355 3.23413L14.5436 4.23885L16.2088 4.7772L16.3111 3.85329Z" fill="#FF5900"/>
<path d="M16.4215 3.09604L14.5256 2.40686L14.536 3.2338L16.3116 3.85296L16.4215 3.09604Z" fill="#FF3B00"/>
<path d="M12.6109 22.4708L14.4475 21.7765L14.0813 21.9711L12.2181 22.6799L12.6109 22.4708Z" fill="#00CCFF"/>
<path d="M12.97 22.1536L14.7827 21.4817L14.4476 21.7767L12.611 22.471L12.97 22.1536Z" fill="#00DCFE"/>
<path d="M13.2855 21.7351L15.0777 21.093L14.7823 21.4813L12.9696 22.1532L13.2855 21.7351Z" fill="#09F0EE"/>
<path d="M13.5499 21.2269L15.3254 20.6215L15.0776 21.0936L13.2855 21.7356L13.5499 21.2269Z" fill="#1CFFDB"/>
<path d="M13.7564 20.6403L15.5196 20.0773L15.3259 20.6214L13.5504 21.2269L13.7564 20.6403Z" fill="#33FFC4"/>
<path d="M13.8981 19.9904L15.6538 19.4746L15.5195 20.077L13.7563 20.6401L13.8981 19.9904Z" fill="#4DFFAA"/>
<path d="M13.9717 19.2945L15.7247 18.8296L15.6536 19.4749L13.898 19.9907L13.9717 19.2945Z" fill="#63FF94"/>
<path d="M13.9751 18.5697L15.7305 18.158L15.7248 18.8295L13.9719 19.2945L13.9751 18.5697Z" fill="#7DFF7A"/>
<path d="M13.907 17.8353L15.67 17.4777L15.7301 18.1579L13.9747 18.5697L13.907 17.8353Z" fill="#97FF60"/>
<path d="M13.77 17.1104L15.5455 16.8064L15.6701 17.4775L13.9071 17.8351L13.77 17.1104Z" fill="#B1FF46"/>
<path d="M13.567 16.4146L15.3594 16.1622L15.5455 16.8064L13.7701 17.1104L13.567 16.4146Z" fill="#C7FF30"/>
<path d="M13.3026 15.7667L15.1163 15.5625L15.3591 16.1625L13.5666 16.4149L13.3026 15.7667Z" fill="#DEFF19"/>
<path d="M10.9168 13.7081L12.9083 13.6577L13.3177 13.7239L11.3577 13.7797L10.9168 13.7081Z" fill="#FFCC00"/>
<path d="M12.985 15.1835L14.8237 15.0228L15.1168 15.5625L13.3031 15.7667L12.985 15.1835Z" fill="#F1FC06"/>
<path d="M11.3577 13.7796L13.3177 13.7239L13.7245 13.8994L11.7965 13.9694L11.3577 13.7796Z" fill="#FFCC00"/>
<path d="M12.6211 14.6807L14.4876 14.5575L14.8235 15.0224L12.9848 15.1831L12.6211 14.6807Z" fill="#FFEA00"/>
<path d="M11.7965 13.9692L13.7246 13.8993L14.118 14.1796L12.2214 14.2723L11.7965 13.9692Z" fill="#FFD000"/>
<path d="M12.2211 14.2723L14.1177 14.1797L14.4873 14.5574L12.6207 14.6805L12.2211 14.2723Z" fill="#FFDB00"/>
<path d="M12.5666 9.52954L12.0534 9.79744L12.1316 11.4497L12.6165 11.1088L12.5666 9.52954Z" fill="#BEFF39"/>
<path d="M12.4657 7.95349L11.8982 8.14818L12.0535 9.79747L12.5667 9.52957L12.4657 7.95349Z" fill="#F8F500"/>
<path d="M10.3757 0.164733L8.72839 0L9.21148 0.230101L10.6955 0.385992L10.3757 0.164733Z" fill="#BB0000"/>
<path d="M12.3158 6.42407L11.6692 6.54747L11.898 8.14823L12.4655 7.95353L12.3158 6.42407Z" fill="#FFB900"/>
<path d="M10.6953 0.386116L9.21127 0.230225L9.69491 0.728391L11.0151 0.863184L10.6953 0.386116Z" fill="#BF0000"/>
<path d="M12.1209 4.98376L11.3724 5.03991L11.6688 6.54739L12.3155 6.42399L12.1209 4.98376Z" fill="#FF7E00"/>
<path d="M11.0156 0.863308L9.69537 0.728516L10.1661 1.48229L11.3265 1.58424L11.0156 0.863308Z" fill="#CD0000"/>
<path d="M11.8872 3.67373L11.0168 3.6687L11.3729 5.04045L12.1214 4.9843L11.8872 3.67373Z" fill="#FF4E00"/>
<path d="M11.3263 1.58413L10.166 1.48218L10.6106 2.47137L11.6196 2.52964L11.3263 1.58413Z" fill="#E80000"/>
<path d="M11.6194 2.5297L10.6104 2.47144L11.0164 3.66871L11.8868 3.67374L11.6194 2.5297Z" fill="#FF2200"/>
<path d="M11.4763 22.8671L12.9701 22.1534L12.6111 22.4709L11.0871 23.2122L11.4763 22.8671Z" fill="#00D0FF"/>
<path d="M11.8177 22.4121L13.2853 21.7354L12.9694 22.1535L11.4756 22.8671L11.8177 22.4121Z" fill="#00E4F8"/>
<path d="M12.1039 21.858L13.5502 21.2264L13.2857 21.7351L11.8181 22.4119L12.1039 21.858Z" fill="#16FFE1"/>
<path d="M12.326 21.2195L13.7563 20.6404L13.5503 21.2269L12.104 21.8585L12.326 21.2195Z" fill="#2CFFCA"/>
<path d="M12.478 20.5115L13.898 19.9908L13.7562 20.6405L12.3259 21.2196L12.478 20.5115Z" fill="#46FFB1"/>
<path d="M12.5557 19.7522L13.9717 19.2944L13.898 19.9906L12.4779 20.5113L12.5557 19.7522Z" fill="#63FF94"/>
<path d="M12.5564 18.9612L13.9747 18.5693L13.9714 19.2941L12.5555 19.7518L12.5564 18.9612Z" fill="#7DFF7A"/>
<path d="M12.48 18.16L13.9069 17.8352L13.9746 18.5696L12.5563 18.9615L12.48 18.16Z" fill="#9AFF5D"/>
<path d="M12.3281 17.369L13.7697 17.1106L13.9068 17.8353L12.4799 18.1601L12.3281 17.369Z" fill="#B7FF40"/>
<path d="M12.1046 16.609L13.5669 16.4146L13.77 17.1103L12.3284 17.3687L12.1046 16.609Z" fill="#D1FF26"/>
<path d="M11.8149 15.901L13.3032 15.7664L13.5672 16.4145L12.1049 16.609L11.8149 15.901Z" fill="#E7FF0F"/>
<path d="M11.4661 15.2638L12.9848 15.1831L13.3029 15.7663L11.8147 15.9009L11.4661 15.2638Z" fill="#FBF100"/>
<path d="M11.0681 14.7151L12.6212 14.6809L12.9849 15.1834L11.4661 15.2641L11.0681 14.7151Z" fill="#FFDB00"/>
<path d="M1.21164 19.5423L1.46508 20.3672L1.03867 18.7453L0.776093 17.886L1.21164 19.5423Z" fill="#00B4FF"/>
<path d="M0.547921 16.9561L0.782685 17.9163L1.0388 18.7452L0.759531 17.0646L0.363495 15.6605L0.547921 16.9561Z" fill="#16FFE1"/>
<path d="M0.490694 16.1689L0.759687 17.0642L0.635957 15.3661L0.363495 14.4337L0.490694 16.1689Z" fill="#56FFA0"/>
<path d="M0.363251 14.4337L0.635713 15.3661L0.672367 13.693L0.399523 12.7235L0.363251 14.4337Z" fill="#97FF60"/>
<path d="M0.400055 12.7234L0.672899 13.6928L0.870914 12.0876L0.60087 11.0819L0.400055 12.7234Z" fill="#D4FF23"/>
<path d="M0.600403 11.0819L0.870446 12.0876L1.22672 10.5924L0.962659 9.55237L0.600403 11.0819Z" fill="#FFD700"/>
<path d="M0.962921 9.55242L1.22698 10.5924L1.73422 9.24768L1.47926 8.17615L0.962921 9.55242Z" fill="#FF9400"/>
<path d="M1.47946 8.17625L1.73442 9.24778L2.38113 8.0908L2.13821 6.99146L1.47946 8.17625Z" fill="#FF5900"/>
<path d="M2.13773 6.9917L2.38065 8.09104L3.15123 7.1551L2.92302 6.03247L2.13773 6.9917Z" fill="#FF2500"/>
<path d="M13.0886 14.8002L13.1144 15.7494L13.2772 17.4928L13.2548 16.5824L13.0886 14.8002Z" fill="#C1FF36"/>
<path d="M2.92343 6.03268L3.15163 7.15531L4.02661 6.46815L3.81544 5.32764L2.92343 6.03268Z" fill="#DF0000"/>
<path d="M12.754 13.0352L12.7866 14.0228L13.1145 15.7492L13.0886 14.8L12.754 13.0352Z" fill="#FFEA00"/>
<path d="M3.81546 5.32728L4.02663 6.46779L4.98324 6.05065L4.791 4.89819L3.81546 5.32728Z" fill="#BB0000"/>
<path d="M12.2586 11.3363L12.3012 12.3607L12.7868 14.0228L12.7542 13.0352L12.2586 11.3363Z" fill="#FFA700"/>
<path d="M4.79059 4.89806L4.98283 6.05052L5.99546 5.91727L5.8235 4.75928L4.79059 4.89806Z" fill="#9F0000"/>
<path d="M11.6146 9.75085L11.6703 10.8094L12.3015 12.3608L12.2588 11.3364L11.6146 9.75085Z" fill="#FF6C00"/>
<path d="M5.82367 4.75903L5.99563 5.91703L7.03661 6.0734L6.8857 4.91642L5.82367 4.75903Z" fill="#920000"/>
<path d="M10.8384 8.32336L10.9098 9.41231L11.6701 10.8092L11.6144 9.75059L10.8384 8.32336Z" fill="#FF3400"/>
<path d="M6.88538 4.91699L7.03628 6.07397L8.07678 6.51718L7.94709 5.36796L6.88538 4.91699Z" fill="#960000"/>
<path d="M9.95187 7.09497L10.0412 8.2097L10.9099 9.41238L10.8384 8.32343L9.95187 7.09497Z" fill="#F10800"/>
<path d="M7.94705 5.3678L8.07674 6.51702L9.08774 7.23569L8.97878 6.10072L7.94705 5.3678Z" fill="#A40000"/>
<path d="M8.97876 6.10083L9.08772 7.23581L10.0409 8.21015L9.95152 7.09542L8.97876 6.10083Z" fill="#C40000"/>
<path d="M0.25833 15.2179L0.490935 16.1691L0.363736 14.4339L0.128876 13.4604L0.25833 15.2179Z" fill="#53FFA4"/>
<path d="M0.128845 13.4604L0.363706 14.4338L0.39998 12.7237L0.164541 11.7278L0.128845 13.4604Z" fill="#97FF60"/>
<path d="M0.164276 11.7278L0.399716 12.7237L0.600524 11.0822L0.366243 10.0643L0.164276 11.7278Z" fill="#D7FF1F"/>
<path d="M0.365997 10.0641L0.600278 11.082L0.962542 9.55242L0.73117 8.51355L0.365997 10.0641Z" fill="#FFD300"/>
<path d="M0.731232 8.51376L0.962603 9.55263L1.47894 8.17629L1.2522 7.11792L0.731232 8.51376Z" fill="#FF9100"/>
<path d="M1.25256 7.11791L1.4793 8.17628L2.13804 6.99149L1.91757 5.91577L1.25256 7.11791Z" fill="#FF5200"/>
<path d="M1.91763 5.91589L2.13811 6.99161L2.92341 6.03245L2.7107 4.94202L1.91763 5.91589Z" fill="#FF1E00"/>
<path d="M2.71014 4.94194L2.92285 6.03237L3.81486 5.32726L3.61125 4.22522L2.71014 4.94194Z" fill="#D60000"/>
<path d="M3.61172 4.22516L3.81534 5.32721L4.79083 4.89811L4.59738 3.78796L3.61172 4.22516Z" fill="#AD0000"/>
<path d="M12.1475 10.2963L12.2585 11.3362L12.7541 13.0351L12.6489 12.0168L12.1475 10.2963Z" fill="#FFA300"/>
<path d="M4.59708 3.78779L4.79053 4.89794L5.82339 4.75911L5.64091 3.64465L4.59708 3.78779Z" fill="#920000"/>
<path d="M11.496 8.69128L11.6144 9.75121L12.2586 11.3367L12.1477 10.2968L11.496 8.69128Z" fill="#FF6400"/>
<path d="M5.64105 3.64465L5.82354 4.75911L6.88557 4.91656L6.71454 3.80176L5.64105 3.64465Z" fill="#840000"/>
<path d="M10.711 7.24622L10.8382 8.32369L11.6141 9.75099L11.4957 8.69106L10.711 7.24622Z" fill="#FF2D00"/>
<path d="M6.71432 3.802L6.88535 4.9168L7.94705 5.36775L7.78762 4.25666L6.71432 3.802Z" fill="#890000"/>
<path d="M9.81491 6.00293L9.95209 7.09512L10.8386 8.32358L10.7114 7.2461L9.81491 6.00293Z" fill="#E40000"/>
<path d="M7.7876 4.25684L7.94703 5.36792L8.97874 6.10077L8.83071 4.99731L7.7876 4.25684Z" fill="#9B0000"/>
<path d="M8.8309 4.99731L8.97893 6.10077L9.9517 7.09543L9.81452 6.00325L8.8309 4.99731Z" fill="#BB0000"/>
<path d="M0.421173 15.9968L0.547909 16.9562L0.25839 15.2179L0.130646 14.2518L0.421173 15.9968Z" fill="#13FCE4"/>
<path d="M1.03925 18.7452L1.28321 19.498L1.01263 17.8674L0.759979 17.0646L1.03925 18.7452Z" fill="#19FFDE"/>
<path d="M0.759839 17.0646L1.01249 17.8674L0.893191 16.2205L0.636108 15.3665L0.759839 17.0646Z" fill="#56FFA0"/>
<path d="M0.635834 15.3664L0.892916 16.2204L0.92952 14.5983L0.672486 13.6934L0.635834 15.3664Z" fill="#94FF63"/>
<path d="M0.672638 13.6932L0.929672 14.5981L1.12305 13.0425L0.870646 12.0879L0.672638 13.6932Z" fill="#D1FF26"/>
<path d="M0.870941 12.0876L1.12335 13.0422L1.47042 11.5939L1.22722 10.5924L0.870941 12.0876Z" fill="#FFDB00"/>
<path d="M1.22665 10.5925L1.46986 11.594L1.96345 10.2921L1.7339 9.24768L1.22665 10.5925Z" fill="#FF9C00"/>
<path d="M1.73431 9.2481L1.96386 10.2925L2.59272 9.17318L2.38102 8.09119L1.73431 9.2481Z" fill="#FF6000"/>
<path d="M2.38101 8.09121L2.59272 9.17321L3.34163 8.26845L3.15155 7.15527L2.38101 8.09121Z" fill="#FF3000"/>
<path d="M13.1145 15.7498L13.0147 16.6141L13.1731 18.3038L13.2773 17.4931L13.1145 15.7498Z" fill="#C1FF36"/>
<path d="M3.15106 7.15505L3.34114 8.26822L4.19124 7.60476L4.02607 6.4679L3.15106 7.15505Z" fill="#F10800"/>
<path d="M12.7867 14.0233L12.6962 14.9408L13.0148 16.6141L13.1146 15.7497L12.7867 14.0233Z" fill="#FBF100"/>
<path d="M4.02603 6.46792L4.19121 7.60479L5.12029 7.20311L4.98263 6.05078L4.02603 6.46792Z" fill="#C80000"/>
<path d="M12.3015 12.3608L12.225 13.3294L12.6966 14.9404L12.7871 14.0229L12.3015 12.3608Z" fill="#FFAE00"/>
<path d="M4.98279 6.05086L5.12045 7.20319L6.1037 7.07654L5.99542 5.9176L4.98279 6.05086Z" fill="#AD0000"/>
<path d="M11.6698 10.8099L11.6116 11.8261L12.2245 13.3299L12.301 12.3613L11.6698 10.8099Z" fill="#FF7300"/>
<path d="M5.99539 5.91724L6.10367 7.07618L7.11426 7.23L7.03637 6.07362L5.99539 5.91724Z" fill="#A40000"/>
<path d="M10.91 9.41272L10.8741 10.4715L11.612 11.8258L11.6702 10.8096L10.91 9.41272Z" fill="#FF3F00"/>
<path d="M7.03665 6.07385L7.11454 7.23023L8.12451 7.6617L8.07714 6.51707L7.03665 6.07385Z" fill="#A40000"/>
<path d="M10.0412 8.20996L10.0308 9.30505L10.8739 10.4714L10.9098 9.41264L10.0412 8.20996Z" fill="#FF1300"/>
<path d="M8.07721 6.51721L8.12458 7.66184L9.1058 8.35987L9.08815 7.23582L8.07721 6.51721Z" fill="#B60000"/>
<path d="M9.0878 7.23535L9.10544 8.3594L10.0305 9.30485L10.0409 8.20976L9.0878 7.23535Z" fill="#D10000"/>
<path d="M1.46517 20.3671L1.69644 21.0722L1.28271 19.4979L1.03876 18.7451L1.46517 20.3671Z" fill="#00BCFF"/>
<path d="M1.69686 21.0718L1.87655 21.6297L1.4787 20.1155L1.28314 19.4976L1.69686 21.0718Z" fill="#00C4FF"/>
<path d="M1.28321 19.4977L1.47876 20.1157L1.21889 18.5479L1.01263 17.8672L1.28321 19.4977Z" fill="#1CFFDB"/>
<path d="M1.012 17.8671L1.21826 18.5478L1.10415 16.9648L0.8927 16.2201L1.012 17.8671Z" fill="#56FFA0"/>
<path d="M0.892761 16.2202L1.10421 16.965L1.14023 15.4066L0.929366 14.5981L0.892761 16.2202Z" fill="#94FF63"/>
<path d="M0.929535 14.5984L1.14039 15.4068L1.3273 13.913L1.12292 13.0427L0.929535 14.5984Z" fill="#CEFF29"/>
<path d="M12.6838 23.027L12.4518 23.5214L12.006 24.794L12.2197 24.3513L12.6838 23.027Z" fill="#00B0FF"/>
<path d="M1.12308 13.0426L1.32746 13.9129L1.6622 12.5229L1.47015 11.5944L1.12308 13.0426Z" fill="#FFE200"/>
<path d="M13.0041 21.5522L12.759 22.1045L12.4524 23.5212L12.6844 23.0268L13.0041 21.5522Z" fill="#0CF4EB"/>
<path d="M1.46994 11.5943L1.66199 12.5228L2.13757 11.274L1.96354 10.2924L1.46994 11.5943Z" fill="#FFA300"/>
<path d="M13.169 19.9641L12.9167 20.5789L12.7588 22.1044L13.0039 21.5521L13.169 19.9641Z" fill="#46FFB1"/>
<path d="M1.96399 10.2922L2.13802 11.2739L2.74354 10.2009L2.59285 9.17285L1.96399 10.2922Z" fill="#FF6C00"/>
<path d="M13.1731 18.3038L12.9197 18.9844L12.9165 20.5793L13.1688 19.9645L13.1731 18.3038Z" fill="#80FF77"/>
<path d="M2.59229 9.17319L2.74298 10.2013L3.46375 9.33477L3.3412 8.26843L2.59229 9.17319Z" fill="#FF3B00"/>
<path d="M13.015 16.6138L12.7668 17.3614L12.92 18.984L13.1734 18.3035L13.015 16.6138Z" fill="#BEFF39"/>
<path d="M3.34119 8.26809L3.46373 9.33443L4.28153 8.69984L4.19126 7.60461L3.34119 8.26809Z" fill="#FF1300"/>
<path d="M12.6961 14.9406L12.4594 15.7548L12.7665 17.3615L13.0147 16.6139L12.6961 14.9406Z" fill="#F8F500"/>
<path d="M4.19162 7.60469L4.2819 8.69992L5.17541 8.31672L5.12067 7.203L4.19162 7.60469Z" fill="#DA0000"/>
<path d="M12.2245 13.3295L12.0054 14.2079L12.4594 15.7547L12.6961 14.9404L12.2245 13.3295Z" fill="#FFB600"/>
<path d="M5.12045 7.20302L5.17519 8.31674L6.12056 8.19749L6.10366 7.07642L5.12045 7.20302Z" fill="#C40000"/>
<path d="M11.6119 11.8257L11.416 12.7641L12.0056 14.208L12.2247 13.3295L11.6119 11.8257Z" fill="#FF7E00"/>
<path d="M6.10376 7.07617L6.12066 8.19725L7.0922 8.34701L7.11435 7.22998L6.10376 7.07617Z" fill="#B60000"/>
<path d="M10.8739 10.4718L10.7063 11.464L11.416 12.7644L11.6119 11.8261L10.8739 10.4718Z" fill="#FF4A00"/>
<path d="M7.11434 7.2301L7.09219 8.34713L8.06305 8.7631L8.12432 7.6616L7.11434 7.2301Z" fill="#BB0000"/>
<path d="M10.031 9.30554L9.89584 10.3437L10.7065 11.4641L10.8741 10.4719L10.031 9.30554Z" fill="#FF1E00"/>
<path d="M8.12423 7.66138L8.06296 8.76288L9.00615 9.43436L9.10545 8.35939L8.12423 7.66138Z" fill="#C80000"/>
<path d="M9.10553 8.35986L9.00623 9.43484L9.89551 10.3434L10.0306 9.30532L9.10553 8.35986Z" fill="#E40000"/>
<path d="M10.5161 22.3777L12.499 21.693L12.124 21.3693L10.1116 22.0284L10.5161 22.3777Z" fill="#00C4FF"/>
<path d="M10.1113 22.0288L12.1238 21.3697L11.7765 20.9569L9.73611 21.5835L10.1113 22.0288Z" fill="#00D0FF"/>
<path d="M9.73654 21.5833L11.7769 20.9567L11.466 20.4652L9.39999 21.0533L9.73654 21.5833Z" fill="#00E0FB"/>
<path d="M9.39993 21.0534L11.4659 20.4654L11.1993 19.9075L9.1105 20.4518L9.39993 21.0534Z" fill="#0FF8E7"/>
<path d="M8.80979 23.1073L10.5161 22.3779L10.1117 22.0286L8.36887 22.7264L8.80979 23.1073Z" fill="#00B4FF"/>
<path d="M8.36887 22.7267L10.1117 22.0289L9.73643 21.5836L7.95929 22.2413L8.36887 22.7267Z" fill="#00C0FF"/>
<path d="M9.27113 23.3746L10.9398 22.6228L10.5162 22.3781L8.80988 23.1075L9.27113 23.3746Z" fill="#00A8FF"/>
<path d="M9.11031 20.4514L11.1991 19.9071L10.9835 19.2966L8.87549 19.7931L9.11031 20.4514Z" fill="#23FFD4"/>
<path d="M7.95933 22.2413L9.73648 21.5836L9.3999 21.0536L7.59128 21.6637L7.95933 22.2413Z" fill="#00D4FF"/>
<path d="M9.74134 23.5211L11.372 22.7566L10.9399 22.6228L9.27124 23.3746L9.74134 23.5211Z" fill="#00A8FF"/>
<path d="M7.59137 21.6637L9.39999 21.0536L9.11059 20.4519L7.27423 21.008L7.59137 21.6637Z" fill="#06ECF1"/>
<path d="M8.87519 19.7934L10.9832 19.2969L10.8242 18.6492L8.70099 19.0949L8.87519 19.7934Z" fill="#39FFBE"/>
<path d="M10.2081 23.5426L11.8013 22.7757L11.3716 22.7563L9.74097 23.5208L10.2081 23.5426Z" fill="#00A8FF"/>
<path d="M7.27381 21.0076L9.11017 20.4515L8.87533 19.7932L7.01559 20.2903L7.27381 21.0076Z" fill="#1CFFDB"/>
<path d="M8.70143 19.0948L10.8247 18.6491L10.7266 17.9805L8.59256 18.3737L8.70143 19.0948Z" fill="#53FFA4"/>
<path d="M7.01554 20.2908L8.87528 19.7937L8.70109 19.0952L6.82303 19.5295L7.01554 20.2908Z" fill="#36FFC1"/>
<path d="M8.59241 18.374L10.7265 17.9808L10.6921 17.3082L8.55188 17.6485L8.59241 18.374Z" fill="#6DFF8A"/>
<path d="M6.82337 19.5295L8.70143 19.0951L8.59254 18.374L6.7016 18.7435L6.82337 19.5295Z" fill="#50FFA7"/>
<path d="M8.55151 17.6484L10.6917 17.3082L10.7221 16.6488L8.58068 16.9371L8.55151 17.6484Z" fill="#87FF70"/>
<path d="M6.70139 18.7431L8.59234 18.3737L8.5518 17.6482L6.6539 17.9522L6.70139 18.7431Z" fill="#6AFF8D"/>
<path d="M8.58081 16.937L10.7223 16.6488L10.817 16.0197L8.67927 16.2582L8.58081 16.937Z" fill="#A0FF56"/>
<path d="M6.65369 17.9521L8.55158 17.6482L8.58075 16.9368L6.68197 17.1764L6.65369 17.9521Z" fill="#87FF70"/>
<path d="M8.67963 16.258L10.8173 16.0195L10.9742 15.437L8.84525 15.6293L8.67963 16.258Z" fill="#B7FF40"/>
<path d="M6.68231 17.1767L8.58109 16.937L8.67958 16.2582L6.78611 16.4362L6.68231 17.1767Z" fill="#A4FF53"/>
<path d="M8.84521 15.6296L10.9742 15.4373L11.1895 14.9169L9.07403 15.0678L8.84521 15.6296Z" fill="#D1FF26"/>
<path d="M6.78589 16.4362L8.67935 16.2582L8.84497 15.6295L6.96296 15.7503L6.78589 16.4362Z" fill="#BEFF39"/>
<path d="M9.07419 15.0674L11.1897 14.9165L11.4581 14.4719L9.36052 14.5874L9.07419 15.0674Z" fill="#E4FF13"/>
<path d="M6.96307 15.7505L8.84509 15.6297L9.0739 15.0679L7.20926 15.1373L6.96307 15.7505Z" fill="#D7FF1F"/>
<path d="M7.20908 15.1369L9.07372 15.0675L9.36007 14.5875L7.51833 14.6129L7.20908 15.1369Z" fill="#EEFF09"/>
<path d="M7.51843 14.6132L9.36018 14.5878L9.69686 14.2027L7.88292 14.1926L7.51843 14.6132Z" fill="#FFEA00"/>
<path d="M7.88303 14.1927L9.69697 14.2027L10.0753 13.9231L8.29349 13.8872L7.88303 14.1927Z" fill="#FFD700"/>
<path d="M5.42706 27.352L5.3358 27.2828L4.54614 26.5997L4.5919 26.6296L5.42706 27.352Z" fill="#0000FF"/>
<path d="M4.59163 26.6298L4.54588 26.5999L3.81012 25.7319L3.81348 25.7118L4.59163 26.6298Z" fill="#0010FF"/>
<path d="M6.29933 27.8615L6.16047 27.7644L5.33606 27.283L5.42732 27.3522L6.29933 27.8615Z" fill="#0000F1"/>
<path d="M3.8134 25.7119L3.81004 25.732L3.14609 24.6999L3.11115 24.6202L3.8134 25.7119Z" fill="#0038FF"/>
<path d="M7.18657 28.145L6.99908 28.0324L6.15988 27.7645L6.29874 27.8616L7.18657 28.145Z" fill="#0000E8"/>
<path d="M3.11153 24.6198L3.14648 24.6995L2.57072 23.5279L2.50244 23.3804L3.11153 24.6198Z" fill="#0064FF"/>
<path d="M8.06903 28.195L7.833 28.0794L6.99945 28.0325L7.18694 28.1451L8.06903 28.195Z" fill="#0000ED"/>
<path d="M2.5023 23.3806L2.57058 23.5281L2.09751 22.2451L2.00168 22.0229L2.5023 23.3806Z" fill="#0098FF"/>
<path d="M8.92359 28.0087L8.64019 27.9031L7.83267 28.0794L8.06871 28.1949L8.92359 28.0087Z" fill="#0000FF"/>
<path d="M2.00145 22.0233L2.09729 22.2455L1.73916 20.882L1.62228 20.5801L2.00145 22.0233Z" fill="#00D4FF"/>
<path d="M9.7304 27.5888L9.40197 27.506L8.64066 27.9026L8.92406 28.0082L9.7304 27.5888Z" fill="#0008FF"/>
<path d="M1.62257 20.5796L1.73944 20.8815L1.50598 19.4707L1.37515 19.0857L1.62257 20.5796Z" fill="#26FFD1"/>
<path d="M10.4677 26.9449L10.0977 26.8973L9.40189 27.5061L9.73032 27.5889L10.4677 26.9449Z" fill="#002CFF"/>
<path d="M1.37521 19.0859L1.50603 19.471L1.40412 18.0477L1.26691 17.5782L1.37521 19.0859Z" fill="#5AFF9D"/>
<path d="M11.1172 26.0905L10.71 26.09L10.0977 26.8975L10.4677 26.9451L11.1172 26.0905Z" fill="#0054FF"/>
<path d="M1.26685 17.5782L1.40406 18.0477L1.43751 16.6478L1.30177 16.0946L1.26685 17.5782Z" fill="#90FF66"/>
<path d="M11.6609 25.045L11.2222 25.1025L10.7098 26.0902L11.1169 26.0907L11.6609 25.045Z" fill="#0088FF"/>
<path d="M1.30161 16.0947L1.43734 16.6479L1.60665 15.3074L1.48037 14.6732L1.30161 16.0947Z" fill="#C7FF30"/>
<path d="M12.0848 23.8329L11.621 23.958L11.2225 25.1024L11.6612 25.0449L12.0848 23.8329Z" fill="#00C4FF"/>
<path d="M1.48083 14.6732L1.60711 15.3074L1.90933 14.0615L1.80044 13.3513L1.48083 14.6732Z" fill="#FBF100"/>
<path d="M12.3758 22.4836L11.8941 22.6846L11.6211 23.9577L12.0849 23.8326L12.3758 22.4836Z" fill="#16FFE1"/>
<path d="M1.80042 13.3511L1.90931 14.0612L2.33798 12.9433L2.2541 12.1642L1.80042 13.3511Z" fill="#FFB900"/>
<path d="M12.5243 21.0319L12.0326 21.3149L11.8936 22.6849L12.3753 22.4839L12.5243 21.0319Z" fill="#4DFFAA"/>
<path d="M2.25357 12.1644L2.33745 12.9436L2.88261 11.9844L2.83088 11.1454L2.25357 12.1644Z" fill="#FF8600"/>
<path d="M12.5264 19.5139L12.0329 19.8833L12.0329 21.3149L12.5247 21.0318L12.5264 19.5139Z" fill="#80FF77"/>
<path d="M2.83145 11.1453L2.88318 11.9843L3.53152 11.211L3.51833 10.323L2.83145 11.1453Z" fill="#FF5D00"/>
<path d="M12.3792 17.9703L11.8925 18.4279L12.0329 19.8836L12.5264 19.5142L12.3792 17.9703Z" fill="#B7FF40"/>
<path d="M3.51834 10.3232L3.53153 11.2112L4.2666 10.6463L4.29741 9.7218L3.51834 10.3232Z" fill="#FF3800"/>
<path d="M12.0855 16.4415L11.6141 16.9868L11.8924 18.4275L12.3791 17.97L12.0855 16.4415Z" fill="#EBFF0C"/>
<path d="M4.29722 9.72187L4.26642 10.6464L5.06909 10.307L5.14818 9.35962L4.29722 9.72187Z" fill="#FF1A00"/>
<path d="M11.6521 14.9702L11.2042 15.6002L11.614 16.9867L12.0854 16.4414L11.6521 14.9702Z" fill="#FFC800"/>
<path d="M5.14836 9.35936L5.06927 10.3067L5.91815 10.2036L6.0485 9.24805L5.14836 9.35936Z" fill="#F10800"/>
<path d="M11.0899 13.5974L10.6731 14.3065L11.204 15.6006L11.652 14.9707L11.0899 13.5974Z" fill="#FF9400"/>
<path d="M6.04786 9.24805L5.91751 10.2036L6.78963 10.3412L6.97276 9.39232L6.04786 9.24805Z" fill="#E80000"/>
<path d="M10.4139 12.3602L10.035 13.1407L10.6732 14.3064L11.09 13.5973L10.4139 12.3602Z" fill="#FF6800"/>
<path d="M6.97326 9.39246L6.79013 10.3413L7.66156 10.7167L7.89747 9.78962L6.97326 9.39246Z" fill="#ED0400"/>
<path d="M9.64181 11.2938L9.30655 12.1355L10.0349 13.1401L10.4138 12.3597L9.64181 11.2938Z" fill="#FF4300"/>
<path d="M7.89731 9.78931L7.66141 10.7164L8.5081 11.3201L8.79522 10.429L7.89731 9.78931Z" fill="#FA0F00"/>
<path d="M8.79545 10.4292L8.50833 11.3203L9.30685 12.1357L9.64211 11.2941L8.79545 10.4292Z" fill="#FF2200"/>
<path d="M1.87604 21.6298L2.00146 22.023L1.62229 20.5797L1.47818 20.1156L1.87604 21.6298Z" fill="#00CCFF"/>
<path d="M1.47877 20.1159L1.62287 20.58L1.37546 19.0861L1.2189 18.5481L1.47877 20.1159Z" fill="#1FFFD7"/>
<path d="M10.7526 26.7883L10.4677 26.9453L9.73026 27.5893L9.97847 27.464L10.7526 26.7883Z" fill="#0018FF"/>
<path d="M1.21846 18.548L1.37502 19.086L1.26671 17.5784L1.10434 16.9651L1.21846 18.548Z" fill="#5AFF9D"/>
<path d="M11.4347 25.8914L11.1172 26.0905L10.4678 26.9451L10.7526 26.7881L11.4347 25.8914Z" fill="#0044FF"/>
<path d="M1.10464 16.9646L1.26702 17.5779L1.30194 16.0943L1.14067 15.4062L1.10464 16.9646Z" fill="#94FF63"/>
<path d="M12.0064 24.7939L11.6611 25.045L11.117 26.0907L11.4345 25.8915L12.0064 24.7939Z" fill="#007CFF"/>
<path d="M1.14078 15.4062L1.30205 16.0942L1.48082 14.6728L1.32768 13.9124L1.14078 15.4062Z" fill="#CAFF2C"/>
<path d="M12.4521 23.521L12.0846 23.8326L11.661 25.0447L12.0063 24.7936L12.4521 23.521Z" fill="#00B8FF"/>
<path d="M1.32748 13.9125L1.48062 14.673L1.80022 13.351L1.66222 12.5225L1.32748 13.9125Z" fill="#FFEA00"/>
<path d="M12.7587 22.1042L12.3754 22.4836L12.0846 23.8326L12.4521 23.5209L12.7587 22.1042Z" fill="#0FF8E7"/>
<path d="M1.66208 12.5228L1.80008 13.3514L2.25377 12.1645L2.13766 11.274L1.66208 12.5228Z" fill="#FFAE00"/>
<path d="M12.9168 20.579L12.5247 21.0317L12.3756 22.4838L12.7589 22.1044L12.9168 20.579Z" fill="#49FFAD"/>
<path d="M2.13773 11.2735L2.25384 12.164L2.83115 11.1449L2.74325 10.2006L2.13773 11.2735Z" fill="#FF7A00"/>
<path d="M12.9203 18.984L12.5266 19.5138L12.5249 21.0317L12.917 20.579L12.9203 18.984Z" fill="#80FF77"/>
<path d="M2.74353 10.2011L2.83143 11.1455L3.51833 10.3232L3.46432 9.33459L2.74353 10.2011Z" fill="#FF4A00"/>
<path d="M12.7669 17.3615L12.3792 17.97L12.5265 19.5139L12.9201 18.9841L12.7669 17.3615Z" fill="#BAFF3C"/>
<path d="M3.46384 9.33444L3.51784 10.323L4.29694 9.72162L4.28168 8.69983L3.46384 9.33444Z" fill="#FF2500"/>
<path d="M12.4596 15.7544L12.0854 16.4412L12.379 17.9696L12.7667 17.361L12.4596 15.7544Z" fill="#F1FC06"/>
<path d="M4.28156 8.7L4.29682 9.7218L5.14781 9.35956L5.17513 8.31677L4.28156 8.7Z" fill="#F10800"/>
<path d="M12.0057 14.2081L11.6523 14.9705L12.0856 16.4417L12.4598 15.7549L12.0057 14.2081Z" fill="#FFC100"/>
<path d="M5.1756 8.3166L5.14828 9.35938L6.04841 9.24807L6.12098 8.19739L5.1756 8.3166Z" fill="#DA0000"/>
<path d="M11.4163 12.7638L11.0904 13.5967L11.6525 14.97L12.0059 14.2077L11.4163 12.7638Z" fill="#FF8900"/>
<path d="M6.12079 8.19714L6.04822 9.24782L6.97314 9.39211L7.09235 8.34689L6.12079 8.19714Z" fill="#CD0000"/>
<path d="M10.7062 11.4639L10.4139 12.3603L11.09 13.5973L11.4159 12.7643L10.7062 11.4639Z" fill="#FF5900"/>
<path d="M7.09253 8.34692L6.97333 9.39214L7.89757 9.78925L8.06343 8.76294L7.09253 8.34692Z" fill="#D10000"/>
<path d="M9.89531 10.3435L9.64157 11.2944L10.4136 12.3603L10.7059 11.4639L9.89531 10.3435Z" fill="#FF3000"/>
<path d="M8.06289 8.76343L7.89703 9.78974L8.79497 10.4295L9.00613 9.43487L8.06289 8.76343Z" fill="#DF0000"/>
<path d="M9.00601 9.43433L8.79486 10.4289L9.64156 11.2938L9.8953 10.3429L9.00601 9.43433Z" fill="#FA0F00"/>
<path d="M6.79813 0.133082L5.70441 0.472516L6.47608 0.401735L7.42349 0.0802002L6.79813 0.133082Z" fill="#9F0000"/>
<path d="M7.4237 0.0797119L6.47629 0.401247L7.27099 0.621756L8.0678 0.309806L7.4237 0.0797119Z" fill="#960000"/>
<path d="M11.3475 6.82849L11.3149 7.25329L11.6913 8.95265L11.6532 8.48654L11.3475 6.82849Z" fill="#FFAB00"/>
<path d="M8.06766 0.309814L7.27084 0.621765L8.06664 1.12948L8.71272 0.818537L8.06766 0.309814Z" fill="#960000"/>
<path d="M10.9515 5.26794L10.8271 5.65628L11.3149 7.25305L11.3475 6.82826L10.9515 5.26794Z" fill="#FF6C00"/>
<path d="M8.71298 0.818726L8.06689 1.12967L8.84156 1.91186L9.34103 1.59336L8.71298 0.818726Z" fill="#A80000"/>
<path d="M10.4759 3.84998L10.241 4.20784L10.827 5.6568L10.9514 5.26846L10.4759 3.84998Z" fill="#FF3400"/>
<path d="M9.34059 1.59363L8.84113 1.91213L9.57279 2.94769L9.9339 2.61337L9.34059 1.59363Z" fill="#C80000"/>
<path d="M9.93413 2.6134L9.57303 2.94772L10.2412 4.20777L10.4761 3.84991L9.93413 2.6134Z" fill="#F10800"/>
<path d="M0.130197 14.2514L0.257941 15.2175L0.128487 13.4601L0 12.4868L0.130197 14.2514Z" fill="#53FFA4"/>
<path d="M6.10352e-05 12.4871L0.128548 13.4603L0.164247 11.7278L0.0353034 10.7471L6.10352e-05 12.4871Z" fill="#97FF60"/>
<path d="M0.0354614 10.7471L0.164405 11.7278L0.366378 10.0644L0.237278 9.07617L0.0354614 10.7471Z" fill="#D7FF1F"/>
<path d="M0.237183 9.07598L0.366283 10.0642L0.731456 8.51355L0.602519 7.51794L0.237183 9.07598Z" fill="#FFD000"/>
<path d="M0.602448 7.51822L0.731384 8.51382L1.25236 7.11805L1.1239 6.11536L0.602448 7.51822Z" fill="#FF8D00"/>
<path d="M1.12375 6.115L1.2522 7.11769L1.91721 5.91556L1.78956 4.90625L1.12375 6.115Z" fill="#FF4E00"/>
<path d="M1.78952 4.90694L1.91718 5.91624L2.71024 4.9423L2.58369 3.92712L1.78952 4.90694Z" fill="#FF1A00"/>
<path d="M2.58408 3.92691L2.71063 4.94209L3.61177 4.22537L3.4866 3.2052L2.58408 3.92691Z" fill="#D10000"/>
<path d="M12.5421 11.0117L12.754 13.061L13.0886 14.8365L12.8818 12.8063L12.5421 11.0117Z" fill="#FFE600"/>
<path d="M3.48633 3.20534L3.6115 4.22551L4.59721 3.78831L4.47365 2.76416L3.48633 3.20534Z" fill="#A80000"/>
<path d="M12.0392 9.28455L12.1475 10.2966L12.6489 12.0172L12.5419 11.0116L12.0392 9.28455Z" fill="#FF9F00"/>
<path d="M4.47372 2.76394L4.59728 3.7881L5.64112 3.64498L5.51938 2.61792L4.47372 2.76394Z" fill="#8D0000"/>
<path d="M11.3863 7.67346L11.4963 8.691L12.1479 10.2965L12.0395 9.28448L11.3863 7.67346Z" fill="#FF6000"/>
<path d="M5.51907 2.61816L5.64082 3.64522L6.7143 3.80233L6.59451 2.77372L5.51907 2.61816Z" fill="#800000"/>
<path d="M10.5992 6.22437L10.711 7.24649L11.4957 8.69134L11.3858 7.6738L10.5992 6.22437Z" fill="#FF2900"/>
<path d="M6.59506 2.77344L6.71485 3.80205L7.7882 4.25667L7.67045 3.22773L6.59506 2.77344Z" fill="#800000"/>
<path d="M9.70111 4.97778L9.81476 6.00342L10.7113 7.24653L10.5996 6.2244L9.70111 4.97778Z" fill="#DF0000"/>
<path d="M7.67041 3.22766L7.78816 4.25661L8.83125 4.99708L8.71557 3.96915L7.67041 3.22766Z" fill="#920000"/>
<path d="M8.71506 3.96936L8.83073 4.99729L9.81433 6.00329L9.70069 4.97765L8.71506 3.96936Z" fill="#B20000"/>
<path d="M12.3138 10.1796L12.5416 11.0119L12.8814 12.8065L12.6412 11.9731L12.3138 10.1796Z" fill="#FFE600"/>
<path d="M4.97665 0.829528L4.12137 1.43512L4.97045 1.04696L5.7043 0.471924L4.97665 0.829528Z" fill="#B20000"/>
<path d="M5.70443 0.472521L4.97058 1.04756L5.8707 0.951459L6.47611 0.401733L5.70443 0.472521Z" fill="#960000"/>
<path d="M6.4765 0.401611L5.87109 0.951337L6.79772 1.15242L7.27118 0.622128L6.4765 0.401611Z" fill="#890000"/>
<path d="M7.27106 0.621582L6.79761 1.15188L7.72512 1.64651L8.06684 1.12929L7.27106 0.621582Z" fill="#890000"/>
<path d="M10.2415 4.20764L10.2573 4.72518L10.9388 6.18703L10.8275 5.65661L10.2415 4.20764Z" fill="#FF2D00"/>
<path d="M8.067 1.12988L7.72528 1.6471L8.62772 2.42281L8.84162 1.91208L8.067 1.12988Z" fill="#9B0000"/>
<path d="M9.57301 2.94751L9.4794 3.45839L10.257 4.72511L10.2412 4.20758L9.57301 2.94751Z" fill="#E80000"/>
<path d="M8.84113 1.91211L8.62723 2.42283L9.47924 3.45853L9.57285 2.94765L8.84113 1.91211Z" fill="#BB0000"/>
<path d="M10.8269 5.65674L10.9382 6.18716L11.505 7.80256L11.3146 7.25349L10.8269 5.65674Z" fill="#FF6400"/>
<path d="M3.34592 2.10244L2.74969 2.9607L3.61499 2.25741L4.12138 1.43567L3.34592 2.10244Z" fill="#D10000"/>
<path d="M4.1214 1.43568L3.61502 2.25742L4.56196 1.83447L4.97049 1.04749L4.1214 1.43568Z" fill="#A80000"/>
<path d="M4.97048 1.04751L4.56195 1.83449L5.56524 1.70613L5.87063 0.951416L4.97048 1.04751Z" fill="#8D0000"/>
<path d="M5.8707 0.95105L5.56531 1.70577L6.59749 1.87787L6.79733 1.15218L5.8707 0.95105Z" fill="#800000"/>
<path d="M6.79746 1.15222L6.59763 1.87792L7.63015 2.34747L7.72499 1.64682L6.79746 1.15222Z" fill="#840000"/>
<path d="M10.2571 4.72534L10.4451 5.37883L11.2016 6.83535L10.9387 6.18724L10.2571 4.72534Z" fill="#FF2900"/>
<path d="M7.7249 1.64697L7.63007 2.34763L8.63397 3.10268L8.62733 2.42268L7.7249 1.64697Z" fill="#920000"/>
<path d="M9.47964 3.4585L9.58143 4.12268L10.4452 5.37874L10.2572 4.72525L9.47964 3.4585Z" fill="#DF0000"/>
<path d="M8.62714 2.42236L8.63378 3.10237L9.58092 4.12227L9.47913 3.45809L8.62714 2.42236Z" fill="#B20000"/>
<path d="M2.66449 3.0265L1.98886 3.92201L2.75004 2.96043L3.34626 2.10217L2.66449 3.0265Z" fill="#FF1A00"/>
<path d="M0.851173 6.49969L0.602295 7.5179L1.12375 6.11504L1.35059 5.11316L0.851173 6.49969Z" fill="#FF8D00"/>
<path d="M1.35068 5.11339L1.12384 6.11527L1.78965 4.90659L1.9886 3.92212L1.35068 5.11339Z" fill="#FF4E00"/>
<path d="M1.98851 3.92204L1.78955 4.9065L2.58371 3.92669L2.74967 2.96045L1.98851 3.92204Z" fill="#FF1600"/>
<path d="M2.74967 2.96025L2.58371 3.92649L3.48622 3.20478L3.61498 2.25696L2.74967 2.96025Z" fill="#D10000"/>
<path d="M3.61512 2.25696L3.48636 3.20477L4.47364 2.76358L4.56203 1.83398L3.61512 2.25696Z" fill="#A40000"/>
<path d="M4.56233 1.83452L4.47394 2.76412L5.51962 2.61816L5.5656 1.70618L4.56233 1.83452Z" fill="#890000"/>
<path d="M11.2017 6.83508L11.3863 7.67363L12.0395 9.28464L11.8302 8.45055L11.2017 6.83508Z" fill="#FF6000"/>
<path d="M5.56543 1.70557L5.51944 2.61755L6.5949 2.77305L6.59766 1.87768L5.56543 1.70557Z" fill="#800000"/>
<path d="M10.4453 5.37854L10.5998 6.22411L11.3863 7.67361L11.2017 6.83506L10.4453 5.37854Z" fill="#FF2900"/>
<path d="M6.59782 1.87769L6.59506 2.77306L7.67045 3.22738L7.63038 2.34726L6.59782 1.87769Z" fill="#800000"/>
<path d="M9.58118 4.12256L9.70098 4.97751L10.5995 6.22412L10.4449 5.37855L9.58118 4.12256Z" fill="#DF0000"/>
<path d="M7.63019 2.34741L7.67026 3.22753L8.71546 3.96902L8.63416 3.10247L7.63019 2.34741Z" fill="#920000"/>
<path d="M8.63397 3.10266L8.71528 3.96922L9.70092 4.97751L9.58111 4.12256L8.63397 3.10266Z" fill="#B20000"/>
<path d="M17.4015 13.4097L15.8932 13.3972L15.9188 14.5311L17.4583 14.4701L17.4015 13.4097Z" fill="#23FFD4"/>
<path d="M17.3803 12.269L15.8863 12.1724L15.8937 13.3975L17.4019 13.41L17.3803 12.269Z" fill="#53FFA4"/>
<path d="M17.3946 11.0765L15.8974 10.8873L15.8862 12.1721L17.3802 12.2688L17.3946 11.0765Z" fill="#80FF77"/>
<path d="M17.4451 9.86428L15.9271 9.57678L15.8974 10.8872L17.3947 11.0764L17.4451 9.86428Z" fill="#ADFF49"/>
<path d="M17.5302 8.66486L15.9744 8.276L15.9269 9.57708L17.4449 9.86458L17.5302 8.66486Z" fill="#DBFF1C"/>
<path d="M17.6481 7.51012L16.0382 7.01978L15.9742 8.27611L17.5301 8.66497L17.6481 7.51012Z" fill="#FFE200"/>
<path d="M19.0451 2.98393L16.7657 2.00635L16.6517 2.16053L18.822 3.10747L19.0451 2.98393Z" fill="#FF3800"/>
<path d="M17.796 6.43152L16.1173 5.84253L16.0382 7.01963L17.6482 7.50997L17.796 6.43152Z" fill="#FFB600"/>
<path d="M18.8216 3.10746L16.6512 2.16052L16.5354 2.52691L18.5964 3.42762L18.8216 3.10746Z" fill="#FF3800"/>
<path d="M17.9698 5.45899L16.2092 4.7771L16.1173 5.84236L17.7961 6.43135L17.9698 5.45899Z" fill="#FF9100"/>
<path d="M18.5967 3.42732L16.5357 2.52661L16.4213 3.09591L18.3757 3.93594L18.5967 3.42732Z" fill="#FF4300"/>
<path d="M18.1647 4.6193L16.3113 3.85291L16.2091 4.77683L17.9697 5.45872L18.1647 4.6193Z" fill="#FF6F00"/>
<path d="M18.3759 3.93622L16.4216 3.09619L16.3117 3.85314L18.165 4.61953L18.3759 3.93622Z" fill="#FF5500"/>
<path d="M18.9354 13.5361L17.4014 13.4103L17.4582 14.4706L19.0167 14.5228L18.9354 13.5361Z" fill="#2CFFCA"/>
<path d="M18.9027 12.4791L17.3799 12.269L17.4015 13.41L18.9355 13.5358L18.9027 12.4791Z" fill="#56FFA0"/>
<path d="M18.9197 11.3796L17.3942 11.0769L17.3797 12.2691L18.9026 12.4791L18.9197 11.3796Z" fill="#80FF77"/>
<path d="M18.9872 10.266L17.4451 9.86475L17.3947 11.0769L18.9203 11.3795L18.9872 10.266Z" fill="#AAFF4D"/>
<path d="M19.1023 9.1678L17.5304 8.66492L17.4451 9.86462L18.9871 10.2658L19.1023 9.1678Z" fill="#D4FF23"/>
<path d="M19.2632 8.11491L17.6485 7.51013L17.5304 8.66502L19.1024 9.1679L19.2632 8.11491Z" fill="#FBF100"/>
<path d="M21.4888 4.1739L19.2603 3.05958L19.0453 2.98401L21.1896 4.08268L21.4888 4.1739Z" fill="#FF5500"/>
<path d="M19.4649 7.13548L17.7958 6.43152L17.6479 7.51001L19.2626 8.11478L19.4649 7.13548Z" fill="#FFC400"/>
<path d="M21.1896 4.0828L19.0453 2.98413L18.8222 3.10771L20.88 4.17445L21.1896 4.0828Z" fill="#FF4E00"/>
<path d="M19.7034 6.25681L17.9697 5.45923L17.796 6.43162L19.465 7.13558L19.7034 6.25681Z" fill="#FFA300"/>
<path d="M20.8796 4.17453L18.8218 3.10779L18.5966 3.42796L20.5678 4.44725L20.8796 4.17453Z" fill="#FF5200"/>
<path d="M19.9719 5.50288L18.1649 4.62L17.97 5.45942L19.7036 6.257L19.9719 5.50288Z" fill="#FF8200"/>
<path d="M20.5681 4.44727L18.597 3.42798L18.3759 3.93655L20.2627 4.89402L20.5681 4.44727Z" fill="#FF5900"/>
<path d="M20.2622 4.89412L18.3754 3.93665L18.1645 4.62002L19.9714 5.50291L20.2622 4.89412Z" fill="#FF6C00"/>
<path d="M20.3664 13.7601L18.9352 13.5356L19.0166 14.5223L20.4658 14.6746L20.3664 13.7601Z" fill="#33FFC4"/>
<path d="M20.3255 12.7861L18.9026 12.4792L18.9353 13.536L20.3665 13.7604L20.3255 12.7861Z" fill="#5AFF9D"/>
<path d="M20.3446 11.7771L18.9198 11.3796L18.9027 12.4793L20.3256 12.7861L20.3446 11.7771Z" fill="#80FF77"/>
<path d="M20.4236 10.7594L18.9869 10.2656L18.92 11.3792L20.3448 11.7767L20.4236 10.7594Z" fill="#A7FF50"/>
<path d="M20.5606 9.76103L19.1022 9.16797L18.9869 10.266L20.4236 10.7598L20.5606 9.76103Z" fill="#CEFF29"/>
<path d="M20.7521 8.80742L19.2627 8.11487L19.1019 9.16784L20.5603 9.76091L20.7521 8.80742Z" fill="#F1FC06"/>
<path d="M20.994 7.92454L19.465 7.13513L19.2627 8.1144L20.7522 8.80696L20.994 7.92454Z" fill="#FFD700"/>
<path d="M23.4275 5.36588L21.4888 4.17366L21.1896 4.0824L23.0662 5.25882L23.4275 5.36588Z" fill="#FF6F00"/>
<path d="M21.2795 7.13758L19.7035 6.25671L19.4651 7.13549L20.9941 7.9249L21.2795 7.13758Z" fill="#FFB600"/>
<path d="M23.0656 5.25919L21.189 4.08276L20.8793 4.17443L22.6923 5.31927L23.0656 5.25919Z" fill="#FF6800"/>
<path d="M21.6012 6.46673L19.9718 5.50244L19.7036 6.25655L21.2796 7.13742L21.6012 6.46673Z" fill="#FF9800"/>
<path d="M22.6928 5.31927L20.8799 4.17444L20.5681 4.44716L22.3176 5.54522L22.6928 5.31927Z" fill="#FF6C00"/>
<path d="M21.9501 5.93143L20.2623 4.89404L19.9716 5.50279L21.601 6.46707L21.9501 5.93143Z" fill="#FF8200"/>
<path d="M22.3174 5.54545L20.5679 4.44739L20.2625 4.89412L21.9502 5.93151L22.3174 5.54545Z" fill="#FF7300"/>
<path d="M21.5657 14.0651L20.3669 13.76L20.4663 14.6746L21.6772 14.9105L21.5657 14.0651Z" fill="#39FFBE"/>
<path d="M21.5187 13.1695L20.3255 12.7856L20.3665 13.7599L21.5654 14.065L21.5187 13.1695Z" fill="#5AFF9D"/>
<path d="M21.5385 12.2469L20.3444 11.7766L20.3254 12.7856L21.5187 13.1695L21.5385 12.2469Z" fill="#80FF77"/>
<path d="M21.625 11.3215L20.4235 10.7596L20.3447 11.777L21.5388 12.2472L21.625 11.3215Z" fill="#A4FF53"/>
<path d="M21.7756 10.4171L20.5603 9.76086L20.4234 10.7596L21.6249 11.3215L21.7756 10.4171Z" fill="#C7FF30"/>
<path d="M21.9876 9.55792L20.7525 8.80725L20.5607 9.76074L21.776 10.417L21.9876 9.55792Z" fill="#E7FF0F"/>
<path d="M22.2547 8.76752L20.9942 7.92493L20.7524 8.80734L21.9875 9.55801L22.2547 8.76752Z" fill="#FFE600"/>
<path d="M22.5702 8.06702L21.2794 7.1377L20.9939 7.92501L22.2544 8.76761L22.5702 8.06702Z" fill="#FFC400"/>
<path d="M24.9553 6.59085L23.4275 5.36624L23.0663 5.25916L24.5531 6.46872L24.9553 6.59085Z" fill="#FF8600"/>
<path d="M22.9266 7.4751L21.6012 6.46667L21.2796 7.13736L22.5705 8.06669L22.9266 7.4751Z" fill="#FFAB00"/>
<path d="M24.5525 6.46872L23.0657 5.25916L22.6924 5.31921L24.1374 6.49881L24.5525 6.46872Z" fill="#FF8200"/>
<path d="M23.3137 7.00871L21.9505 5.93103L21.6014 6.4667L22.9268 7.47513L23.3137 7.00871Z" fill="#FF9800"/>
<path d="M24.1375 6.49844L22.6925 5.31885L22.3172 5.54484L23.7207 6.68009L24.1375 6.49844Z" fill="#FF8200"/>
<path d="M23.7205 6.68066L22.317 5.54541L21.9498 5.93145L23.3131 7.00913L23.7205 6.68066Z" fill="#FF8900"/>
<path d="M22.4142 14.431L21.5654 14.0649L21.6769 14.9104L22.5326 15.212L22.4142 14.431Z" fill="#3CFFBA"/>
<path d="M22.3644 13.6089L21.5192 13.1697L21.5659 14.0652L22.4146 14.4312L22.3644 13.6089Z" fill="#5DFF9A"/>
<path d="M22.3842 12.7666L21.5391 12.2474L21.5192 13.1701L22.3644 13.6093L22.3842 12.7666Z" fill="#80FF77"/>
<path d="M22.4735 11.9249L21.625 11.321L21.5387 12.2467L22.3839 12.7659L22.4735 11.9249Z" fill="#A0FF56"/>
<path d="M22.6309 11.1076L21.7757 10.4167L21.6249 11.3212L22.4734 11.925L22.6309 11.1076Z" fill="#C1FF36"/>
<path d="M22.8523 10.336L21.9873 9.55811L21.7757 10.4171L22.6308 11.108L22.8523 10.336Z" fill="#DEFF19"/>
<path d="M23.1324 9.63008L22.2545 8.76758L21.9873 9.55807L22.8524 10.336L23.1324 9.63008Z" fill="#FBF100"/>
<path d="M23.4636 9.00918L22.5702 8.06689L22.2544 8.76748L23.1323 9.62999L23.4636 9.00918Z" fill="#FFD700"/>
<path d="M26.3734 8.07367L25.3332 6.86114L24.9547 6.59058L25.9733 7.80358L26.3734 8.07367Z" fill="#FFA700"/>
<path d="M23.8377 8.49019L22.9265 7.47522L22.5704 8.0668L23.4637 9.00908L23.8377 8.49019Z" fill="#FFC100"/>
<path d="M25.974 7.80372L24.9553 6.59072L24.5531 6.46863L25.5497 7.66806L25.974 7.80372Z" fill="#FF9C00"/>
<path d="M24.2445 8.08722L23.3136 7.00867L22.9267 7.47506L23.8379 8.49003L24.2445 8.08722Z" fill="#FFAE00"/>
<path d="M25.5495 7.66806L24.553 6.46863L24.1378 6.49869L25.112 7.67072L25.5495 7.66806Z" fill="#FF9800"/>
<path d="M24.6732 7.81182L23.7211 6.68042L23.3138 7.00889L24.2447 8.08745L24.6732 7.81182Z" fill="#FF9F00"/>
<path d="M25.112 7.67081L24.1379 6.49878L23.721 6.68044L24.6731 7.81184L25.112 7.67081Z" fill="#FF9800"/>
<path d="M22.819 14.8386L22.4145 14.4315L22.5329 15.2125L22.9401 15.5617L22.819 14.8386Z" fill="#43FFB4"/>
<path d="M22.7665 14.0813L22.3639 13.6086L22.4141 14.431L22.8185 14.8381L22.7665 14.0813Z" fill="#60FF97"/>
<path d="M22.7856 13.3106L22.3839 12.7664L22.3642 13.609L22.7667 14.0817L22.7856 13.3106Z" fill="#7DFF7A"/>
<path d="M22.8748 12.5452L22.4732 11.9253L22.3836 12.7663L22.7853 13.3106L22.8748 12.5452Z" fill="#9DFF5A"/>
<path d="M23.0336 11.8055L22.6312 11.1079L22.4737 11.9253L22.8753 12.5451L23.0336 11.8055Z" fill="#BAFF3C"/>
<path d="M23.2564 11.1109L22.8523 10.3358L22.6308 11.1078L23.0332 11.8054L23.2564 11.1109Z" fill="#D4FF23"/>
<path d="M23.5392 10.4805L23.1326 9.63013L22.8526 10.336L23.2567 11.1111L23.5392 10.4805Z" fill="#EEFF09"/>
<path d="M27.5223 10.1066L27.0587 8.98348L26.7383 8.4707L27.1955 9.61878L27.5223 10.1066Z" fill="#FFDE00"/>
<path d="M23.8738 9.93052L23.4638 9.00916L23.1325 9.63L23.5392 10.4804L23.8738 9.93052Z" fill="#FFE600"/>
<path d="M27.1959 9.61861L26.7387 8.47054L26.3738 8.07361L26.8242 9.23471L27.1959 9.61861Z" fill="#FFCC00"/>
<path d="M24.252 9.47619L23.8379 8.49023L23.464 9.00912L23.874 9.93048L24.252 9.47619Z" fill="#FFD000"/>
<path d="M26.8238 9.23465L26.3734 8.07355L25.9734 7.80347L26.417 8.96517L26.8238 9.23465Z" fill="#FFB900"/>
<path d="M24.6636 9.13004L24.2447 8.08752L23.838 8.4903L24.2521 9.47625L24.6636 9.13004Z" fill="#FFC100"/>
<path d="M26.417 8.96534L25.9734 7.80363L25.549 7.66797L25.9859 8.81773L26.417 8.96534Z" fill="#FFB200"/>
<path d="M25.097 8.90119L24.6726 7.81177L24.2441 8.08743L24.663 9.12994L25.097 8.90119Z" fill="#FFB200"/>
<path d="M25.9863 8.81749L25.5495 7.66772L25.1119 7.67038L25.5424 8.79584L25.9863 8.81749Z" fill="#FFAB00"/>
<path d="M25.542 8.79587L25.1116 7.67041L24.6727 7.81145L25.0971 8.90087L25.542 8.79587Z" fill="#FFAE00"/>
<path d="M23.144 11.8554L23.2568 11.1107L23.0336 11.8052L22.9252 12.4835L23.144 11.8554Z" fill="#CEFF29"/>
<path d="M27.8848 15.7733L28.0454 15.0826L28.1777 14.3357L28.0137 15.0902L27.8848 15.7733Z" fill="#50FFA7"/>
<path d="M28.0136 15.0904L28.1776 14.3358L28.2412 13.5682L28.0744 14.3846L28.0136 15.0904Z" fill="#6AFF8D"/>
<path d="M28.0749 14.3843L28.2417 13.5679L28.2345 12.7993L28.0657 13.674L28.0749 14.3843Z" fill="#87FF70"/>
<path d="M28.0654 13.6743L28.2342 12.7996L28.1562 12.0499L27.986 12.978L28.0654 13.6743Z" fill="#A0FF56"/>
<path d="M27.9863 12.9777L28.1565 12.0497L28.0092 11.3386L27.8386 12.3137L27.9863 12.9777Z" fill="#BEFF39"/>
<path d="M27.8385 12.3137L28.009 11.3386L27.796 10.6851L27.6259 11.6995L27.8385 12.3137Z" fill="#D4FF23"/>
<path d="M23.4213 11.2897L23.5393 10.4805L23.2568 11.1111L23.1439 11.8558L23.4213 11.2897Z" fill="#E4FF13"/>
<path d="M27.6258 11.6994L27.796 10.685L27.5226 10.1064L27.3539 11.1515L27.6258 11.6994Z" fill="#EBFF0C"/>
<path d="M23.7498 10.8004L23.8735 9.93042L23.5388 10.4803L23.4208 11.2896L23.7498 10.8004Z" fill="#F8F500"/>
<path d="M27.3539 11.1521L27.5226 10.107L27.1959 9.61914L27.0295 10.6853L27.3539 11.1521Z" fill="#FEED00"/>
<path d="M24.1218 10.4016L24.2517 9.47607L23.8736 9.93033L23.7499 10.8003L24.1218 10.4016Z" fill="#FFDE00"/>
<path d="M27.0296 10.6849L27.1959 9.6188L26.8242 9.23486L26.6612 10.3119L27.0296 10.6849Z" fill="#FFDB00"/>
<path d="M24.5273 10.1039L24.6634 9.12988L24.252 9.47611L24.1221 10.4016L24.5273 10.1039Z" fill="#FFD000"/>
<path d="M26.6609 10.3117L26.8239 9.2347L26.4171 8.96521L26.2583 10.0423L26.6609 10.3117Z" fill="#FFCC00"/>
<path d="M24.9553 9.91549L25.0976 8.90112L24.6636 9.12987L24.5275 10.1039L24.9553 9.91549Z" fill="#FFC400"/>
<path d="M26.2582 10.0424L26.417 8.96524L25.9859 8.81763L25.832 9.88424L26.2582 10.0424Z" fill="#FFC400"/>
<path d="M25.3941 9.84194L25.5425 8.79639L25.0975 8.90137L24.9552 9.91574L25.3941 9.84194Z" fill="#FFC100"/>
<path d="M25.8323 9.8845L25.9862 8.81789L25.5422 8.79626L25.3939 9.84181L25.8323 9.8845Z" fill="#FFBD00"/>
<path d="M25.6701 18.7067L26.398 18.2865L26.7835 17.9497L26.0435 18.4117L25.6701 18.7067Z" fill="#00D4FF"/>
<path d="M26.0435 18.4117L26.7835 17.9497L27.1334 17.5183L26.3821 18.0265L26.0435 18.4117Z" fill="#00E4F8"/>
<path d="M26.3822 18.0264L27.1336 17.5182L27.4388 17.0028L26.6771 17.5605L26.3822 18.0264Z" fill="#0FF8E7"/>
<path d="M26.6773 17.5606L27.439 17.0029L27.6917 16.4164L26.921 17.0256L26.6773 17.5606Z" fill="#26FFD1"/>
<path d="M26.9206 17.0255L27.6913 16.4162L27.8847 15.7733L27.1065 16.4348L26.9206 17.0255Z" fill="#3CFFBA"/>
<path d="M27.1066 16.4348L27.8848 15.7733L28.0138 15.0902L27.2297 15.8035L27.1066 16.4348Z" fill="#53FFA4"/>
<path d="M27.2299 15.8038L28.014 15.0906L28.0748 14.3848L27.2869 15.1481L27.2299 15.8038Z" fill="#6DFF8A"/>
<path d="M27.2865 15.1478L28.0744 14.3845L28.0652 13.6742L27.2754 14.4845L27.2865 15.1478Z" fill="#87FF70"/>
<path d="M27.2756 14.4843L28.0654 13.674L27.986 12.9777L27.1964 13.8306L27.2756 14.4843Z" fill="#A0FF56"/>
<path d="M27.1966 13.8309L27.9861 12.978L27.8384 12.314L27.0511 13.2042L27.1966 13.8309Z" fill="#B7FF40"/>
<path d="M27.0507 13.2039L27.838 12.3136L27.6255 11.6995L26.8426 12.6208L27.0507 13.2039Z" fill="#CEFF29"/>
<path d="M26.8429 12.6207L27.6258 11.6995L27.3538 11.1516L26.5773 12.0967L26.8429 12.6207Z" fill="#E4FF13"/>
<path d="M23.4431 11.2405L24.1221 10.4014L23.7502 10.8002L23.084 11.5936L23.4431 11.2405Z" fill="#FEED00"/>
<path d="M26.5771 12.097L27.3536 11.152L27.0292 10.6852L26.2611 11.6461L26.5771 12.097Z" fill="#F4F802"/>
<path d="M23.835 10.9834L24.5275 10.1041L24.1223 10.4018L23.4434 11.2409L23.835 10.9834Z" fill="#FFDE00"/>
<path d="M26.2616 11.6462L27.0297 10.6853L26.6614 10.3121L25.9033 11.2806L26.2616 11.6462Z" fill="#FFE600"/>
<path d="M24.2486 10.8288L24.9551 9.91577L24.5274 10.1041L23.8348 10.9834L24.2486 10.8288Z" fill="#FFD300"/>
<path d="M25.9032 11.2804L26.6613 10.3119L26.2586 10.0426L25.5121 11.01L25.9032 11.2804Z" fill="#FFDB00"/>
<path d="M24.6732 10.7809L25.3936 9.84155L24.9547 9.91541L24.2481 10.8284L24.6732 10.7809Z" fill="#FFD000"/>
<path d="M25.512 11.0097L26.2586 10.0423L25.8324 9.88416L25.0985 10.8417L25.512 11.0097Z" fill="#FFD000"/>
<path d="M25.0984 10.8423L25.8323 9.88475L25.3939 9.84204L24.6735 10.7814L25.0984 10.8423Z" fill="#FFCC00"/>
<path d="M24.0265 19.3189L25.2714 18.9039L25.67 18.7063L24.4081 19.1507L24.0265 19.3189Z" fill="#00D0FF"/>
<path d="M24.4081 19.1509L25.67 18.7065L26.0433 18.4115L24.7651 18.889L24.4081 19.1509Z" fill="#00DCFE"/>
<path d="M24.7651 18.8889L26.0433 18.4114L26.3819 18.0262L25.0886 18.5398L24.7651 18.8889Z" fill="#06ECF1"/>
<path d="M25.0888 18.5401L26.3821 18.0266L26.677 17.5607L25.3703 18.1123L25.0888 18.5401Z" fill="#19FFDE"/>
<path d="M25.3703 18.1121L26.677 17.5605L26.9207 17.0255L25.6023 17.6163L25.3703 18.1121Z" fill="#29FFCE"/>
<path d="M25.6026 17.616L26.921 17.0252L27.107 16.4346L25.7791 17.0647L25.6026 17.616Z" fill="#40FFB7"/>
<path d="M25.7791 17.0653L27.107 16.4351L27.2301 15.8038L25.8953 16.4725L25.7791 17.0653Z" fill="#56FFA0"/>
<path d="M25.895 16.4719L27.2298 15.8033L27.2867 15.1475L25.9474 15.8528L25.895 16.4719Z" fill="#6DFF8A"/>
<path d="M25.9474 15.8531L27.2868 15.1477L27.2757 14.4844L25.9346 15.2238L25.9474 15.8531Z" fill="#87FF70"/>
<path d="M25.9345 15.2241L27.2756 14.4847L27.1964 13.8311L25.8563 14.6009L25.9345 15.2241Z" fill="#9DFF5A"/>
<path d="M25.8561 14.6004L27.1962 13.8306L27.0507 13.2039L25.7146 13.9997L25.8561 14.6004Z" fill="#B4FF43"/>
<path d="M25.7151 13.9997L27.0512 13.2038L26.843 12.6206L25.5136 13.4376L25.7151 13.9997Z" fill="#CAFF2C"/>
<path d="M25.5134 13.4382L26.8428 12.6212L26.5773 12.0972L25.2571 12.9295L25.5134 13.4382Z" fill="#DEFF19"/>
<path d="M25.2571 12.9292L26.5773 12.0969L26.2612 11.646L24.9528 12.4876L25.2571 12.9292Z" fill="#EEFF09"/>
<path d="M23.0227 11.6212L24.2486 10.8284L23.8348 10.983L22.6271 11.7485L23.0227 11.6212Z" fill="#FFDE00"/>
<path d="M24.9525 12.4878L26.261 11.6462L25.9027 11.2806L24.608 12.1252L24.9525 12.4878Z" fill="#FBF100"/>
<path d="M23.4295 11.5955L24.6737 10.7808L24.2487 10.8283L23.0228 11.6211L23.4295 11.5955Z" fill="#FFDB00"/>
<path d="M24.6084 12.1247L25.9031 11.2802L25.512 11.0098L24.2329 11.8508L24.6084 12.1247Z" fill="#FFE600"/>
<path d="M23.8363 11.6732L25.0984 10.8421L24.6735 10.7811L23.4293 11.5959L23.8363 11.6732Z" fill="#FFD700"/>
<path d="M24.2329 11.8507L25.512 11.0096L25.0985 10.8417L23.8364 11.6727L24.2329 11.8507Z" fill="#FFDB00"/>
<path d="M22.3405 19.7704L24.0265 19.3189L24.4081 19.1506L22.7033 19.6249L22.3405 19.7704Z" fill="#00D8FF"/>
<path d="M22.7038 19.6253L24.4086 19.1511L24.7657 18.8892L23.0429 19.3881L22.7038 19.6253Z" fill="#00E4F8"/>
<path d="M23.0424 19.3877L24.7653 18.8888L25.0888 18.5397L23.3493 19.0645L23.0424 19.3877Z" fill="#0CF4EB"/>
<path d="M23.3498 19.0644L25.0892 18.5396L25.3707 18.1118L23.6164 18.6631L23.3498 19.0644Z" fill="#1CFFDB"/>
<path d="M23.6162 18.6635L25.3705 18.1122L25.6026 17.6165L23.8355 18.1942L23.6162 18.6635Z" fill="#2CFFCA"/>
<path d="M23.8356 18.1937L25.6027 17.616L25.7792 17.0647L24.0018 17.6682L23.8356 18.1937Z" fill="#43FFB4"/>
<path d="M24.0012 17.6687L25.7786 17.0652L25.8947 16.4724L24.1097 17.1002L24.0012 17.6687Z" fill="#56FFA0"/>
<path d="M24.1103 17.1004L25.8952 16.4726L25.9476 15.8535L24.1581 16.5037L24.1103 17.1004Z" fill="#6DFF8A"/>
<path d="M24.158 16.5031L25.9475 15.8529L25.9346 15.2235L24.1435 15.8936L24.158 16.5031Z" fill="#83FF73"/>
<path d="M24.1437 15.8936L25.9348 15.2235L25.8567 14.6003L24.0671 15.2873L24.1437 15.8936Z" fill="#9AFF5D"/>
<path d="M24.0667 15.2875L25.8562 14.6005L25.7147 13.9999L23.9297 14.7002L24.0667 15.2875Z" fill="#B1FF46"/>
<path d="M23.9297 14.7003L25.7146 14L25.5131 13.4379L23.7359 14.1478L23.9297 14.7003Z" fill="#C4FF33"/>
<path d="M23.7361 14.1475L25.5133 13.4376L25.2571 12.929L23.4904 13.6444L23.7361 14.1475Z" fill="#D7FF1F"/>
<path d="M21.36 12.2834L23.0223 11.6217L22.6267 11.7491L20.9843 12.3892L21.36 12.2834Z" fill="#FFE600"/>
<path d="M23.4908 13.6447L25.2575 12.9293L24.9531 12.4877L23.1996 13.2044L23.4908 13.6447Z" fill="#E7FF0F"/>
<path d="M21.747 12.2759L23.4294 11.5957L23.0227 11.6212L21.3604 12.2829L21.747 12.2759Z" fill="#FFE200"/>
<path d="M23.1992 13.2046L24.9527 12.4879L24.6082 12.1252L22.8701 12.839L23.1992 13.2046Z" fill="#F4F802"/>
<path d="M22.1341 12.3684L23.8361 11.6731L23.4291 11.5959L21.7466 12.2762L22.1341 12.3684Z" fill="#FFE200"/>
<path d="M22.87 12.8388L24.6081 12.125L24.2326 11.8511L22.5118 12.5577L22.87 12.8388Z" fill="#FEED00"/>
<path d="M22.5123 12.5574L24.2331 11.8508L23.8365 11.6729L22.1345 12.3681L22.5123 12.5574Z" fill="#FFE200"/>
<path d="M20.3303 20.2666L22.3406 19.7706L22.7034 19.6251L20.6734 20.138L20.3303 20.2666Z" fill="#00DCFE"/>
<path d="M20.6737 20.1383L22.7037 19.6254L23.0428 19.3882L20.9943 19.9178L20.6737 20.1383Z" fill="#02E8F4"/>
<path d="M20.994 19.9176L23.0426 19.3881L23.3494 19.0648L21.2837 19.6105L20.994 19.9176Z" fill="#0FF8E7"/>
<path d="M21.2837 19.6105L23.3494 19.0649L23.616 18.6636L21.5349 19.2242L21.2837 19.6105Z" fill="#1FFFD7"/>
<path d="M21.5351 19.2237L23.6162 18.6631L23.8355 18.1937L21.7413 18.768L21.5351 19.2237Z" fill="#30FFC7"/>
<path d="M21.7409 18.7681L23.8351 18.1939L24.0012 17.6683L21.8965 18.2543L21.7409 18.7681Z" fill="#43FFB4"/>
<path d="M21.8969 18.2545L24.0017 17.6685L24.1102 17.1001L21.9978 17.6958L21.8969 18.2545Z" fill="#5AFF9D"/>
<path d="M21.9978 17.6957L24.1101 17.1L24.1579 16.5033L22.041 17.1064L21.9978 17.6957Z" fill="#6DFF8A"/>
<path d="M22.0407 17.1065L24.1577 16.5034L24.1433 15.8939L22.0248 16.5019L22.0407 17.1065Z" fill="#83FF73"/>
<path d="M22.0251 16.5017L24.1435 15.8937L24.0669 15.2874L21.9503 15.8976L22.0251 16.5017Z" fill="#9AFF5D"/>
<path d="M21.9501 15.8977L24.0667 15.2874L23.9299 14.7002L21.8182 15.3101L21.9501 15.8977Z" fill="#B1FF46"/>
<path d="M21.8186 15.3105L23.9302 14.7006L23.7365 14.1481L21.6329 14.755L21.8186 15.3105Z" fill="#C4FF33"/>
<path d="M21.6326 14.7549L23.7361 14.148L23.4904 13.6449L21.3979 14.2463L21.6326 14.7549Z" fill="#D7FF1F"/>
<path d="M19.7415 12.8186L21.7471 12.2759L21.3605 12.2828L19.3755 12.8096L19.7415 12.8186Z" fill="#FFE600"/>
<path d="M21.3981 14.2461L23.4907 13.6448L23.1994 13.2045L21.1205 13.7979L21.3981 14.2461Z" fill="#E4FF13"/>
<path d="M20.1081 12.9258L22.1339 12.3682L21.7466 12.2759L19.741 12.8186L20.1081 12.9258Z" fill="#FFE600"/>
<path d="M21.1201 13.798L23.199 13.2045L22.8699 12.8389L20.8069 13.4222L21.1201 13.798Z" fill="#F1FC06"/>
<path d="M20.4666 13.1291L22.5117 12.5578L22.1338 12.3685L20.108 12.9262L20.4666 13.1291Z" fill="#FFE600"/>
<path d="M20.8073 13.4219L22.8703 12.8385L22.512 12.5574L20.4669 13.1287L20.8073 13.4219Z" fill="#FEED00"/>
<path d="M18.6839 20.5608L20.8369 20.0392L20.504 20.2143L18.3481 20.7381L18.6839 20.5608Z" fill="#00E4F8"/>
<path d="M18.9926 20.292L21.1434 19.774L20.8373 20.0387L18.6843 20.5603L18.9926 20.292Z" fill="#0CF4EB"/>
<path d="M19.2652 19.9397L21.4145 19.4266L21.1432 19.7744L18.9924 20.2924L19.2652 19.9397Z" fill="#19FFDE"/>
<path d="M19.4955 19.5112L21.6443 19.0042L21.4148 19.4265L19.2654 19.9396L19.4955 19.5112Z" fill="#29FFCE"/>
<path d="M19.6768 19.0178L21.8258 18.5178L21.6443 19.0041L19.4955 19.5112L19.6768 19.0178Z" fill="#3CFFBA"/>
<path d="M19.8042 18.4717L21.9544 17.9797L21.8257 18.5177L19.6766 19.0177L19.8042 18.4717Z" fill="#53FFA4"/>
<path d="M19.8744 17.8872L22.0266 17.4038L21.9543 17.9797L19.8042 18.4717L19.8744 17.8872Z" fill="#66FF90"/>
<path d="M19.8853 17.2792L22.0402 16.8048L22.0265 17.4037L19.8743 17.8871L19.8853 17.2792Z" fill="#7DFF7A"/>
<path d="M19.8362 16.6636L21.9947 16.1985L22.0402 16.8048L19.8852 17.2792L19.8362 16.6636Z" fill="#94FF63"/>
<path d="M19.7286 16.0568L21.8912 15.6008L21.9949 16.1986L19.8364 16.6638L19.7286 16.0568Z" fill="#AAFF4D"/>
<path d="M19.5643 15.4743L21.7317 15.0272L21.891 15.6007L19.7283 16.0567L19.5643 15.4743Z" fill="#BEFF39"/>
<path d="M19.3483 14.9324L21.5207 14.4937L21.7316 15.0275L19.5642 15.4746L19.3483 14.9324Z" fill="#D1FF26"/>
<path d="M17.3537 13.2126L19.5575 12.8015L19.9253 12.8598L17.7261 13.2721L17.3537 13.2126Z" fill="#FFE200"/>
<path d="M19.086 14.4444L21.2637 14.0132L21.5207 14.4932L19.3483 14.932L19.086 14.4444Z" fill="#E1FF16"/>
<path d="M17.7258 13.2727L19.925 12.8604L20.2891 13.0159L18.0949 13.431L17.7258 13.2727Z" fill="#FFE600"/>
<path d="M18.7848 14.0246L20.968 13.6L21.2644 14.0133L19.0866 14.4445L18.7848 14.0246Z" fill="#EEFF09"/>
<path d="M18.0951 13.4307L20.2893 13.0156L20.6399 13.2645L18.4511 13.6837L18.0951 13.4307Z" fill="#FFEA00"/>
<path d="M18.4509 13.6837L20.6397 13.2645L20.9675 13.6001L18.7842 14.0247L18.4509 13.6837Z" fill="#FBF100"/>
<path d="M16.5101 21.1392L18.6843 20.5608L18.3485 20.7381L16.1631 21.323L16.5101 21.1392Z" fill="#00E0FB"/>
<path d="M16.8277 20.8605L18.9921 20.2924L18.6838 20.5606L16.5096 21.139L16.8277 20.8605Z" fill="#09F0EE"/>
<path d="M17.1091 20.494L19.2655 19.9395L18.9928 20.2921L16.8283 20.8603L17.1091 20.494Z" fill="#16FFE1"/>
<path d="M17.3449 20.0492L19.4951 19.5114L19.265 19.9398L17.1086 20.4943L17.3449 20.0492Z" fill="#29FFCE"/>
<path d="M17.5302 19.5362L19.6764 19.0178L19.4951 19.5112L17.3449 20.0491L17.5302 19.5362Z" fill="#3CFFBA"/>
<path d="M17.6597 18.9686L19.8039 18.4718L19.6764 19.0177L17.5302 19.5361L17.6597 18.9686Z" fill="#50FFA7"/>
<path d="M17.7299 18.3612L19.8746 17.8877L19.8043 18.4722L17.66 18.969L17.7299 18.3612Z" fill="#66FF90"/>
<path d="M17.7381 17.7287L19.8854 17.2797L19.8744 17.8876L17.7298 18.3611L17.7381 17.7287Z" fill="#7DFF7A"/>
<path d="M17.6843 17.0882L19.8365 16.6639L19.8854 17.2795L17.7381 17.7286L17.6843 17.0882Z" fill="#94FF63"/>
<path d="M17.5691 16.4566L19.7283 16.0569L19.8361 16.6639L17.6839 17.0881L17.5691 16.4566Z" fill="#AAFF4D"/>
<path d="M17.3967 15.8505L19.5649 15.4745L19.7289 16.0568L17.5696 16.4565L17.3967 15.8505Z" fill="#C1FF36"/>
<path d="M17.1698 15.2862L19.3486 14.9324L19.5646 15.4746L17.3964 15.8506L17.1698 15.2862Z" fill="#D4FF23"/>
<path d="M15.0927 13.4955L17.3536 13.213L17.726 13.2725L15.479 13.5577L15.0927 13.4955Z" fill="#FFDE00"/>
<path d="M16.8951 14.7786L19.0861 14.4448L19.3485 14.9324L17.1696 15.2862L16.8951 14.7786Z" fill="#E4FF13"/>
<path d="M15.4791 13.5576L17.7261 13.2725L18.0952 13.4308L15.8626 13.7226L15.4791 13.5576Z" fill="#FFDE00"/>
<path d="M16.5803 14.3413L18.7846 14.0248L19.0864 14.4447L16.8955 14.7785L16.5803 14.3413Z" fill="#F1FC06"/>
<path d="M15.8627 13.723L18.0954 13.4312L18.4513 13.6841L16.2331 13.9865L15.8627 13.723Z" fill="#FFE600"/>
<path d="M16.2328 13.9862L18.451 13.6838L18.7843 14.0249L16.5801 14.3414L16.2328 13.9862Z" fill="#FEED00"/>
<path d="M14.0814 21.9714L16.1632 21.323L15.796 21.4079L13.6935 22.061L14.0814 21.9714Z" fill="#00CCFF"/>
<path d="M14.4473 21.7763L16.5099 21.1385L16.1629 21.3224L14.0811 21.9709L14.4473 21.7763Z" fill="#00D8FF"/>
<path d="M14.7826 21.4814L16.8282 20.8602L16.5101 21.1387L14.4475 21.7764L14.7826 21.4814Z" fill="#02E8F4"/>
<path d="M15.0777 21.0933L17.1088 20.4941L16.8279 20.8604L14.7823 21.4816L15.0777 21.0933Z" fill="#13FCE4"/>
<path d="M15.3257 20.6215L17.3452 20.0493L17.109 20.4944L15.0779 21.0936L15.3257 20.6215Z" fill="#23FFD4"/>
<path d="M15.5193 20.0768L17.5304 19.5359L17.3451 20.0487L15.3256 20.6209L15.5193 20.0768Z" fill="#39FFBE"/>
<path d="M15.6535 19.4748L17.6599 18.9688L17.5304 19.5363L15.5193 20.0772L15.6535 19.4748Z" fill="#50FFA7"/>
<path d="M15.7244 18.8296L17.7296 18.3611L17.6597 18.9689L15.6533 19.4749L15.7244 18.8296Z" fill="#66FF90"/>
<path d="M15.7305 18.158L17.7383 17.7288L17.7301 18.3611L15.7249 18.8296L15.7305 18.158Z" fill="#7DFF7A"/>
<path d="M15.6699 17.4776L17.684 17.0883L17.7378 17.7286L15.73 18.1579L15.6699 17.4776Z" fill="#97FF60"/>
<path d="M15.5452 16.8061L17.5691 16.4563L17.6839 17.0879L15.6698 17.4772L15.5452 16.8061Z" fill="#ADFF49"/>
<path d="M15.3591 16.1622L17.3962 15.8505L17.5691 16.4565L15.5452 16.8063L15.3591 16.1622Z" fill="#C4FF33"/>
<path d="M15.1165 15.5622L17.1697 15.286L17.3963 15.8504L15.3593 16.1621L15.1165 15.5622Z" fill="#D7FF1F"/>
<path d="M12.9087 13.6581L15.0931 13.4957L15.4794 13.5579L13.318 13.7243L12.9087 13.6581Z" fill="#FFD700"/>
<path d="M14.8235 15.0229L16.8954 14.7788L17.1699 15.2864L15.1167 15.5626L14.8235 15.0229Z" fill="#EBFF0C"/>
<path d="M13.3175 13.7243L15.4789 13.5579L15.8624 13.7228L13.7244 13.8999L13.3175 13.7243Z" fill="#FFD700"/>
<path d="M14.4876 14.5578L16.5802 14.3414L16.8953 14.7787L14.8234 15.0227L14.4876 14.5578Z" fill="#F8F500"/>
<path d="M13.7244 13.8998L15.8624 13.7228L16.2327 13.9863L14.1179 14.1801L13.7244 13.8998Z" fill="#FFDB00"/>
<path d="M14.1182 14.1799L16.2331 13.9861L16.5804 14.3412L14.4878 14.5576L14.1182 14.1799Z" fill="#FFE600"/>
<path d="M7.43735 23.8646L8.80971 23.1077L8.36877 22.7267L6.95395 23.4468L7.43735 23.8646Z" fill="#00A0FF"/>
<path d="M6.95419 23.4468L8.36901 22.7267L7.95939 22.2413L6.50464 22.9149L6.95419 23.4468Z" fill="#00B0FF"/>
<path d="M7.94229 24.1576L9.2707 23.3745L8.80944 23.1074L7.43707 23.8644L7.94229 24.1576Z" fill="#0094FF"/>
<path d="M6.50442 22.9144L7.95917 22.2408L7.59115 21.6632L6.09995 22.2814L6.50442 22.9144Z" fill="#00C4FF"/>
<path d="M8.45679 24.3188L9.74077 23.5211L9.2707 23.3746L7.94229 24.1577L8.45679 24.3188Z" fill="#0094FF"/>
<path d="M6.09967 22.2818L7.59088 21.6637L7.27372 21.0081L5.75049 21.5634L6.09967 22.2818Z" fill="#00E0FB"/>
<path d="M8.96787 24.3439L10.208 23.5432L9.74092 23.5214L8.45694 24.3191L8.96787 24.3439Z" fill="#0094FF"/>
<path d="M5.75074 21.5631L7.27398 21.0077L7.01578 20.2904L5.4657 20.7771L5.75074 21.5631Z" fill="#13FCE4"/>
<path d="M9.46258 24.2311L10.6606 23.4393L10.2082 23.543L8.96805 24.3437L9.46258 24.2311Z" fill="#009CFF"/>
<path d="M5.4659 20.7774L7.01599 20.2907L6.82345 19.5295L5.25238 19.9431L5.4659 20.7774Z" fill="#30FFC7"/>
<path d="M9.92802 23.9834L11.0866 23.2124L10.6604 23.4394L9.46231 24.2312L9.92802 23.9834Z" fill="#00ACFF"/>
<path d="M5.25195 19.9426L6.82302 19.529L6.70128 18.7429L5.11569 19.0809L5.25195 19.9426Z" fill="#49FFAD"/>
<path d="M5.11567 19.0814L6.70126 18.7434L6.65374 17.9524L5.06052 18.2141L5.11567 19.0814Z" fill="#6AFF8D"/>
<path d="M5.06046 18.2141L6.65368 17.9523L6.68197 17.1766L5.08821 17.3633L5.06046 18.2141Z" fill="#87FF70"/>
<path d="M5.08838 17.3629L6.68214 17.1763L6.78596 16.4358L5.199 16.5505L5.08838 17.3629Z" fill="#A7FF50"/>
<path d="M5.19879 16.551L6.78574 16.4362L6.96282 15.7504L5.38977 15.7982L5.19879 16.551Z" fill="#C4FF33"/>
<path d="M5.39029 15.7977L6.96334 15.7499L7.2095 15.1367L5.65724 15.1245L5.39029 15.7977Z" fill="#DEFF19"/>
<path d="M5.65671 15.1248L7.20897 15.1371L7.5182 14.613L5.99312 14.5493L5.65671 15.1248Z" fill="#F8F500"/>
<path d="M5.99335 14.5491L7.51842 14.6129L7.88293 14.1923L6.39083 14.087L5.99335 14.5491Z" fill="#FFDB00"/>
<path d="M6.39066 14.0874L7.88275 14.1927L8.2932 13.8872L6.83906 13.7516L6.39066 14.0874Z" fill="#FFC800"/>
<path d="M6.83902 13.7513L8.29316 13.8869L8.73886 13.7051L7.32657 13.5514L6.83902 13.7513Z" fill="#FFB900"/>
<path d="M7.32693 13.5515L8.73923 13.7053L9.20847 13.6526L7.84087 13.4934L7.32693 13.5515Z" fill="#FFAE00"/>
<path d="M6.42061 24.6245L7.43732 23.8646L6.95393 23.4468L5.88992 24.1657L6.42061 24.6245Z" fill="#008CFF"/>
<path d="M5.88977 24.1656L6.95378 23.4466L6.50425 22.9147L5.39587 23.5817L5.88977 24.1656Z" fill="#009CFF"/>
<path d="M6.97461 24.9465L7.94227 24.1575L7.43704 23.8643L6.42032 24.6242L6.97461 24.9465Z" fill="#0080FF"/>
<path d="M5.39573 23.5817L6.5041 22.9146L6.09965 22.2816L4.95087 22.8871L5.39573 23.5817Z" fill="#00B4FF"/>
<path d="M7.53888 25.124L8.45685 24.3185L7.94235 24.1573L6.9747 24.9464L7.53888 25.124Z" fill="#007CFF"/>
<path d="M4.95074 22.8872L6.09952 22.2818L5.75032 21.5634L4.5661 22.0989L4.95074 22.8872Z" fill="#00D0FF"/>
<path d="M8.09901 25.1524L8.96786 24.3435L8.45692 24.3187L7.53894 25.1242L8.09901 25.1524Z" fill="#007CFF"/>
<path d="M4.5664 22.0989L5.75062 21.5633L5.46557 20.7772L4.25171 21.2362L4.5664 22.0989Z" fill="#09F0EE"/>
<path d="M8.64077 25.0295L9.46226 24.2306L8.96769 24.3432L8.09885 25.1521L8.64077 25.0295Z" fill="#0088FF"/>
<path d="M4.25159 21.2363L5.46545 20.7773L5.25194 19.9431L4.01505 20.3207L4.25159 21.2363Z" fill="#26FFD1"/>
<path d="M9.15118 24.7588L9.92817 23.9829L9.46247 24.2306L8.64099 25.0296L9.15118 24.7588Z" fill="#0098FF"/>
<path d="M4.0151 20.3204L5.25199 19.9428L5.11573 19.0812L3.8631 19.3745L4.0151 20.3204Z" fill="#46FFB1"/>
<path d="M9.61659 24.3458L10.3532 23.6056L9.92826 23.9828L9.15128 24.7587L9.61659 24.3458Z" fill="#00ACFF"/>
<path d="M3.86314 19.3748L5.11577 19.0815L5.06061 18.2142L3.79987 18.4225L3.86314 19.3748Z" fill="#66FF90"/>
<path d="M3.79977 18.4225L5.06052 18.2143L5.08832 17.3635L3.82751 17.4879L3.79977 18.4225Z" fill="#8AFF6D"/>
<path d="M3.82773 17.4877L5.08854 17.3633L5.1991 16.5509L3.94633 16.5949L3.82773 17.4877Z" fill="#AAFF4D"/>
<path d="M3.94629 16.5948L5.19906 16.5508L5.39005 15.798L4.15329 15.7672L3.94629 16.5948Z" fill="#CAFF2C"/>
<path d="M4.15344 15.7673L5.3902 15.7981L5.65716 15.1249L4.44419 15.0269L4.15344 15.7673Z" fill="#E7FF0F"/>
<path d="M4.44376 15.0269L5.65673 15.1249L5.99317 14.5494L4.81107 14.3936L4.44376 15.0269Z" fill="#FFE600"/>
<path d="M4.81104 14.3931L5.99314 14.549L6.39063 14.0868L5.24587 13.8844L4.81104 14.3931Z" fill="#FFCC00"/>
<path d="M5.24649 13.8848L6.39125 14.0872L6.83962 13.7514L5.73772 13.5149L5.24649 13.8848Z" fill="#FFB600"/>
<path d="M5.73712 13.515L6.83902 13.7515L7.32659 13.5516L6.27192 13.2946L5.73712 13.515Z" fill="#FFA300"/>
<path d="M6.27206 13.2943L7.32674 13.5513L7.84067 13.4932L6.83636 13.23L6.27206 13.2943Z" fill="#FF9800"/>
<path d="M6.8363 13.2302L7.84062 13.4935L8.36723 13.5792L7.41497 13.3244L6.8363 13.2302Z" fill="#FF9400"/>
<path d="M7.41486 13.324L8.36711 13.5788L8.89227 13.8066L7.99235 13.5745L7.41486 13.324Z" fill="#FF9400"/>
<path d="M5.74667 25.3562L6.42063 24.6243L5.88995 24.1655L5.16516 24.8534L5.74667 25.3562Z" fill="#0074FF"/>
<path d="M5.16538 24.8533L5.89016 24.1654L5.39625 23.5815L4.6239 24.2137L5.16538 24.8533Z" fill="#0084FF"/>
<path d="M6.35382 25.7098L6.97496 24.9467L6.42066 24.6244L5.7467 25.3563L6.35382 25.7098Z" fill="#0068FF"/>
<path d="M4.62362 24.2135L5.39598 23.5814L4.95111 22.8867L4.13556 23.4527L4.62362 24.2135Z" fill="#00A0FF"/>
<path d="M6.97121 25.9049L7.53875 25.124L6.97456 24.9464L6.35342 25.7096L6.97121 25.9049Z" fill="#0064FF"/>
<path d="M4.13573 23.4528L4.95129 22.8868L4.56664 22.0985L3.7132 22.5894L4.13573 23.4528Z" fill="#00C0FF"/>
<path d="M7.58451 25.9366L8.09895 25.1521L7.53889 25.1239L6.97134 25.9048L7.58451 25.9366Z" fill="#0064FF"/>
<path d="M3.71322 22.5896L4.56666 22.0987L4.252 21.2361L3.367 21.6448L3.71322 22.5896Z" fill="#00E4F8"/>
<path d="M8.17805 25.8037L8.64116 25.0297L8.09922 25.1522L7.58478 25.9367L8.17805 25.8037Z" fill="#0070FF"/>
<path d="M3.36705 21.6447L4.25205 21.2361L4.01552 20.3204L3.1062 20.6416L3.36705 21.6447Z" fill="#1FFFD7"/>
<path d="M8.73616 25.5088L9.15096 24.7594L8.64081 25.0302L8.1777 25.8042L8.73616 25.5088Z" fill="#0080FF"/>
<path d="M3.10605 20.6417L4.01537 20.3205L3.86333 19.3746L2.93738 19.6052L3.10605 20.6417Z" fill="#40FFB7"/>
<path d="M9.24587 25.0572L9.6166 24.3461L9.15128 24.759L8.73648 25.5084L9.24587 25.0572Z" fill="#0098FF"/>
<path d="M2.93706 19.605L3.863 19.3745L3.79976 18.4221L2.86557 18.561L2.93706 19.605Z" fill="#66FF90"/>
<path d="M9.6929 24.4605L10.025 23.8005L9.61652 24.346L9.24579 25.0571L9.6929 24.4605Z" fill="#00B4FF"/>
<path d="M2.86551 18.5609L3.7997 18.422L3.82743 17.4874L2.89365 17.536L2.86551 18.5609Z" fill="#8AFF6D"/>
<path d="M2.89413 17.5363L3.82792 17.4878L3.94651 16.595L3.02186 16.5569L2.89413 17.5363Z" fill="#ADFF49"/>
<path d="M3.02155 16.557L3.9462 16.5951L4.15323 15.7675L3.24636 15.6486L3.02155 16.557Z" fill="#D1FF26"/>
<path d="M3.24643 15.6485L4.1533 15.7674L4.444 15.0269L3.56323 14.8353L3.24643 15.6485Z" fill="#F4F802"/>
<path d="M3.56332 14.8352L4.44409 15.0269L4.81145 14.3936L3.96455 14.1394L3.56332 14.8352Z" fill="#FFD700"/>
<path d="M3.96469 14.1394L4.81159 14.3935L5.24643 13.8848L4.44028 13.5801L3.96469 14.1394Z" fill="#FFB900"/>
<path d="M4.44034 13.5798L5.24649 13.8845L5.7377 13.5146L4.97822 13.1729L4.44034 13.5798Z" fill="#FF9F00"/>
<path d="M4.978 13.1728L5.73747 13.5146L6.27227 13.2942L5.56411 12.9301L4.978 13.1728Z" fill="#FF8D00"/>
<path d="M5.56403 12.9306L6.27218 13.2947L6.83645 13.2304L6.18301 12.8594L5.56403 12.9306Z" fill="#FF8200"/>
<path d="M6.18277 12.859L6.83622 13.23L7.41489 13.3242L6.81793 12.9621L6.18277 12.859Z" fill="#FF7A00"/>
<path d="M6.8179 12.9623L7.41486 13.3244L7.99238 13.5749L7.45214 13.2374L6.8179 12.9623Z" fill="#FF7E00"/>
<path d="M10.0248 23.8005L10.7261 23.1079L10.3529 23.6057L9.61636 24.346L10.0248 23.8005Z" fill="#00C8FF"/>
<path d="M5.24651 27.0213L5.23175 26.5914L4.54403 25.9966L4.5065 26.3812L5.24651 27.0213Z" fill="#0028FF"/>
<path d="M4.50644 26.3815L4.54397 25.9969L3.90321 25.2407L3.81693 25.568L4.50644 26.3815Z" fill="#0040FF"/>
<path d="M6.01925 27.4729L5.94986 27.0108L5.23203 26.5919L5.24678 27.0218L6.01925 27.4729Z" fill="#0018FF"/>
<path d="M3.8175 25.5682L3.90379 25.2409L3.32572 24.3418L3.19534 24.6009L3.8175 25.5682Z" fill="#0060FF"/>
<path d="M6.80563 27.7232L6.68051 27.2429L5.95007 27.0105L6.01946 27.4726L6.80563 27.7232Z" fill="#0010FF"/>
<path d="M3.19534 24.601L3.32572 24.3419L2.82471 23.3214L2.65594 23.5031L3.19534 24.601Z" fill="#0088FF"/>
<path d="M7.58592 27.7671L7.40528 27.2831L6.68008 27.2434L6.8052 27.7237L7.58592 27.7671Z" fill="#0014FF"/>
<path d="M2.65563 23.5028L2.82439 23.3211L2.41309 22.2041L2.21259 22.3008L2.65563 23.5028Z" fill="#00B4FF"/>
<path d="M8.34232 27.601L8.10765 27.1278L7.40576 27.2827L7.5864 27.7668L8.34232 27.601Z" fill="#0020FF"/>
<path d="M2.2127 22.3008L2.41321 22.2041L2.10228 21.0176L1.8775 21.0237L2.2127 22.3008Z" fill="#02E8F4"/>
<path d="M9.05442 27.2286L8.76851 26.7808L8.10739 27.1275L8.34206 27.6008L9.05442 27.2286Z" fill="#0038FF"/>
<path d="M1.87744 21.0238L2.10221 21.0177L1.90004 19.7909L1.65915 19.7029L1.87744 21.0238Z" fill="#30FFC7"/>
<path d="M9.70519 26.6582L9.37212 26.25L8.76862 26.7813L9.05452 27.229L9.70519 26.6582Z" fill="#0054FF"/>
<path d="M1.65937 19.7029L1.90026 19.7909L1.81272 18.5544L1.56439 18.3708L1.65937 19.7029Z" fill="#60FF97"/>
<path d="M10.2769 25.9008L9.902 25.5457L9.37177 26.2494L9.70484 26.6576L10.2769 25.9008Z" fill="#007CFF"/>
<path d="M1.56396 18.3706L1.8123 18.5541L1.84255 17.3391L1.59577 17.0612L1.56396 18.3706Z" fill="#8DFF6A"/>
<path d="M10.7553 24.9762L10.3449 24.6864L9.90204 25.5462L10.277 25.9014L10.7553 24.9762Z" fill="#00A8FF"/>
<path d="M1.59598 17.0613L1.84276 17.3392L1.99105 16.1769L1.75496 15.808L1.59598 17.0613Z" fill="#BEFF39"/>
<path d="M11.1267 23.9044L10.6883 23.6908L10.3449 24.6859L10.7553 24.9758L11.1267 23.9044Z" fill="#00D8FF"/>
<path d="M1.75476 15.8085L1.99085 16.1774L2.25444 15.0983L2.03805 14.6443L1.75476 15.8085Z" fill="#EBFF0C"/>
<path d="M11.3809 22.7132L10.9228 22.585L10.6887 23.691L11.1271 23.9046L11.3809 22.7132Z" fill="#23FFD4"/>
<path d="M2.03827 14.6443L2.25466 15.0983L2.62773 14.1313L2.43973 13.6003L2.03827 14.6443Z" fill="#FFD300"/>
<path d="M11.509 21.4314L11.0402 21.3956L10.9225 22.5846L11.3806 22.7128L11.509 21.4314Z" fill="#50FFA7"/>
<path d="M2.43964 13.6001L2.62763 14.1311L3.10138 13.3025L2.94986 12.7051L2.43964 13.6001Z" fill="#FFA700"/>
<path d="M11.5076 20.093L11.0377 20.1544L11.0405 21.3958L11.5093 21.4316L11.5076 20.093Z" fill="#80FF77"/>
<path d="M2.95004 12.7051L3.10157 13.3026L3.66433 12.6357L3.55652 11.9841L2.95004 12.7051Z" fill="#FF8200"/>
<path d="M11.3748 18.733L10.9132 18.8937L11.0376 20.1549L11.5076 20.0936L11.3748 18.733Z" fill="#B1FF46"/>
<path d="M3.55652 11.9843L3.66432 12.6359L4.30178 12.1498L4.24385 11.4583L3.55652 11.9843Z" fill="#FF6000"/>
<path d="M11.1131 17.3865L10.6695 17.6458L10.913 18.8933L11.3746 18.7326L11.1131 17.3865Z" fill="#DEFF19"/>
<path d="M4.24341 11.4578L4.30134 12.1493L4.99689 11.8584L4.99368 11.1423L4.24341 11.4578Z" fill="#FF4A00"/>
<path d="M10.7287 16.0913L10.3124 16.4459L10.6693 17.6458L11.1129 17.3866L10.7287 16.0913Z" fill="#FFE200"/>
<path d="M4.99368 11.1427L4.99689 11.8588L5.7321 11.7723L5.78699 11.048L4.99368 11.1427Z" fill="#FF3800"/>
<path d="M10.232 14.8824L9.85138 15.3261L10.3127 16.4457L10.7291 16.0912L10.232 14.8824Z" fill="#FFB200"/>
<path d="M5.78758 11.0475L5.7327 11.7718L6.48774 11.8929L6.60245 11.1772L5.78758 11.0475Z" fill="#FF3000"/>
<path d="M9.635 13.7938L9.29779 14.3179L9.85146 15.3262L10.232 14.8826L9.635 13.7938Z" fill="#FF8D00"/>
<path d="M6.6019 11.1777L6.48718 11.8934L7.24154 12.2199L7.41611 11.5293L6.6019 11.1777Z" fill="#FF3400"/>
<path d="M8.95356 12.8556L8.66611 13.4489L9.29729 14.3181L9.6345 13.794L8.95356 12.8556Z" fill="#FF6800"/>
<path d="M7.4162 11.5294L7.24164 12.22L7.97467 12.7432L8.20738 12.0939L7.4162 11.5294Z" fill="#FF3B00"/>
<path d="M8.20738 12.0936L7.97467 12.743L8.6662 13.4489L8.95366 12.8556L8.20738 12.0936Z" fill="#FF4E00"/>
<path d="M5.23218 26.5921L5.37255 26.0249L4.73821 25.4763L4.54446 25.9973L5.23218 26.5921Z" fill="#0040FF"/>
<path d="M4.54391 25.9968L4.73765 25.4758L4.14671 24.7782L3.90314 25.2406L4.54391 25.9968Z" fill="#0058FF"/>
<path d="M5.94973 27.0105L6.03442 26.4105L5.37224 26.0244L5.23187 26.5916L5.94973 27.0105Z" fill="#0034FF"/>
<path d="M3.90337 25.2408L4.14695 24.7784L3.61401 23.9487L3.32532 24.3417L3.90337 25.2408Z" fill="#0074FF"/>
<path d="M6.68027 27.2433L6.70824 26.6247L6.03448 26.4109L5.9498 27.0109L6.68027 27.2433Z" fill="#002CFF"/>
<path d="M3.32551 24.3419L3.6142 23.9489L3.15253 23.0074L2.82449 23.3215L3.32551 24.3419Z" fill="#009CFF"/>
<path d="M7.40531 27.2825L7.37686 26.6599L6.70812 26.6241L6.68015 27.2428L7.40531 27.2825Z" fill="#0030FF"/>
<path d="M2.82463 23.3213L3.15266 23.0073L2.77395 21.9768L2.41333 22.2043L2.82463 23.3213Z" fill="#00C4FF"/>
<path d="M8.1072 27.128L8.02396 26.5164L7.37683 26.6603L7.40528 27.2829L8.1072 27.128Z" fill="#003CFF"/>
<path d="M2.41304 22.2043L2.77366 21.9768L2.48772 20.8826L2.10211 21.0178L2.41304 22.2043Z" fill="#0CF4EB"/>
<path d="M8.76819 26.7811L8.63311 26.1953L8.02383 26.5163L8.10707 27.1279L8.76819 26.7811Z" fill="#0050FF"/>
<path d="M2.10232 21.0177L2.48793 20.8824L2.30245 19.7513L1.90015 19.7909L2.10232 21.0177Z" fill="#36FFC1"/>
<path d="M9.37197 26.2499L9.1893 25.7043L8.63339 26.1954L8.76848 26.7811L9.37197 26.2499Z" fill="#006CFF"/>
<path d="M1.89991 19.7907L2.30222 19.7511L2.22256 18.6116L1.81238 18.5542L1.89991 19.7907Z" fill="#60FF97"/>
<path d="M9.90212 25.5459L9.67733 25.0542L9.18921 25.7041L9.37188 26.2496L9.90212 25.5459Z" fill="#0090FF"/>
<path d="M1.81268 18.5542L2.22287 18.6116L2.25184 17.4924L1.84294 17.3392L1.81268 18.5542Z" fill="#8DFF6A"/>
<path d="M10.3451 24.6861L10.0848 24.2607L9.6774 25.0541L9.90219 25.5458L10.3451 24.6861Z" fill="#00B8FF"/>
<path d="M1.84265 17.3393L2.25156 17.4924L2.3893 16.4223L1.99095 16.177L1.84265 17.3393Z" fill="#B7FF40"/>
<path d="M10.6885 23.6912L10.4004 23.3433L10.0848 24.261L10.3451 24.6864L10.6885 23.6912Z" fill="#02E8F4"/>
<path d="M1.99121 16.1771L2.38956 16.4223L2.63343 15.4294L2.2548 15.098L1.99121 16.1771Z" fill="#E1FF16"/>
<path d="M10.9222 22.5849L10.6147 22.3236L10.4 23.343L10.6881 23.691L10.9222 22.5849Z" fill="#29FFCE"/>
<path d="M2.25427 15.0978L2.6329 15.4291L2.97743 14.5397L2.62734 14.1307L2.25427 15.0978Z" fill="#FFDE00"/>
<path d="M11.0402 21.3958L10.7225 21.2281L10.615 22.3234L10.9225 22.5848L11.0402 21.3958Z" fill="#53FFA4"/>
<path d="M2.62769 14.1313L2.97778 14.5403L3.41478 13.7787L3.10143 13.3027L2.62769 14.1313Z" fill="#FFB600"/>
<path d="M11.0374 20.1545L10.7191 20.0853L10.7226 21.2283L11.0403 21.3959L11.0374 20.1545Z" fill="#80FF77"/>
<path d="M3.10129 13.3025L3.41464 13.7785L3.9333 13.166L3.66405 12.6356L3.10129 13.3025Z" fill="#FF9400"/>
<path d="M10.9127 18.8937L10.6035 18.925L10.7188 20.0858L11.0371 20.155L10.9127 18.8937Z" fill="#ADFF49"/>
<path d="M3.66418 12.6356L3.93344 13.166L4.52055 12.72L4.30164 12.1495L3.66418 12.6356Z" fill="#FF7700"/>
<path d="M10.6694 17.6458L10.3791 17.7769L10.6038 18.9245L10.913 18.8932L10.6694 17.6458Z" fill="#D7FF1F"/>
<path d="M4.30133 12.1497L4.52024 12.7201L5.16052 12.4536L4.9969 11.8588L4.30133 12.1497Z" fill="#FF6000"/>
<path d="M10.3124 16.4457L10.0501 16.6733L10.3789 17.7768L10.6693 17.6456L10.3124 16.4457Z" fill="#FEED00"/>
<path d="M4.99707 11.8588L5.1607 12.4537L5.83719 12.375L5.73228 11.7722L4.99707 11.8588Z" fill="#FF5200"/>
<path d="M9.85104 15.3267L9.6254 15.6445L10.0501 16.6739L10.3124 16.4463L9.85104 15.3267Z" fill="#FFC400"/>
<path d="M5.73236 11.7723L5.83727 12.3751L6.5318 12.4873L6.48741 11.8935L5.73236 11.7723Z" fill="#FF4A00"/>
<path d="M9.29769 14.3182L9.1163 14.7174L9.62572 15.6444L9.85136 15.3266L9.29769 14.3182Z" fill="#FF9F00"/>
<path d="M6.4874 11.8932L6.53178 12.487L7.22556 12.7876L7.24178 12.2196L6.4874 11.8932Z" fill="#FF4A00"/>
<path d="M8.66667 13.449L8.53592 13.9183L9.11647 14.7173L9.29786 14.3182L8.66667 13.449Z" fill="#FF7E00"/>
<path d="M7.24177 12.2198L7.22556 12.7879L7.89962 13.2692L7.97478 12.7431L7.24177 12.2198Z" fill="#FF5500"/>
<path d="M7.975 12.7429L7.89984 13.269L8.53581 13.9181L8.66657 13.4488L7.975 12.7429Z" fill="#FF6800"/>
<path d="M5.37259 26.0245L5.74686 25.3562L5.16538 24.8534L4.73825 25.4759L5.37259 26.0245Z" fill="#005CFF"/>
<path d="M4.73815 25.4758L5.16528 24.8533L4.62378 24.2136L4.14722 24.7782L4.73815 25.4758Z" fill="#0070FF"/>
<path d="M6.03424 26.4105L6.35345 25.7096L5.74634 25.3561L5.37207 26.0244L6.03424 26.4105Z" fill="#004CFF"/>
<path d="M4.14732 24.7784L4.62389 24.2139L4.13578 23.4531L3.61438 23.9488L4.14732 24.7784Z" fill="#008CFF"/>
<path d="M6.70819 26.6244L6.97142 25.9052L6.35363 25.7098L6.03442 26.4107L6.70819 26.6244Z" fill="#0048FF"/>
<path d="M3.61374 23.949L4.13514 23.4533L3.71263 22.59L3.15207 23.0075L3.61374 23.949Z" fill="#00ACFF"/>
<path d="M7.37669 26.6602L7.58434 25.937L6.97118 25.9052L6.70795 26.6244L7.37669 26.6602Z" fill="#004CFF"/>
<path d="M3.15243 23.0074L3.71299 22.5899L3.36679 21.645L2.77371 21.977L3.15243 23.0074Z" fill="#00D4FF"/>
<path d="M8.02407 26.5165L8.17787 25.8042L7.5846 25.9372L7.37695 26.6604L8.02407 26.5165Z" fill="#0054FF"/>
<path d="M2.77353 21.9768L3.36661 21.6448L3.10571 20.6417L2.48758 20.8825L2.77353 21.9768Z" fill="#16FFE1"/>
<path d="M8.6333 26.1952L8.73626 25.5084L8.17781 25.8038L8.02402 26.5161L8.6333 26.1952Z" fill="#0068FF"/>
<path d="M2.488 20.8828L3.10612 20.642L2.93751 19.6055L2.30252 19.7518L2.488 20.8828Z" fill="#3CFFBA"/>
<path d="M9.18936 25.7045L9.24581 25.0576L8.73642 25.5088L8.63345 26.1956L9.18936 25.7045Z" fill="#0080FF"/>
<path d="M2.30197 19.7516L2.93697 19.6053L2.86548 18.5613L2.22232 18.612L2.30197 19.7516Z" fill="#63FF94"/>
<path d="M9.67726 25.0546L9.69271 24.4609L9.2456 25.0576L9.18915 25.7045L9.67726 25.0546Z" fill="#00A0FF"/>
<path d="M2.22293 18.6116L2.86609 18.5609L2.8942 17.536L2.25191 17.4923L2.22293 18.6116Z" fill="#8DFF6A"/>
<path d="M10.0848 24.2608L10.0658 23.7327L9.69285 24.4605L9.6774 25.0542L10.0848 24.2608Z" fill="#00C8FF"/>
<path d="M2.25156 17.4925L2.89385 17.5362L3.02158 16.5567L2.38929 16.4224L2.25156 17.4925Z" fill="#B4FF43"/>
<path d="M10.4003 23.3429L10.3546 22.8911L10.0658 23.7325L10.0847 24.2606L10.4003 23.3429Z" fill="#0CF4EB"/>
<path d="M2.38919 16.4221L3.02148 16.5564L3.24629 15.648L2.63306 15.4291L2.38919 16.4221Z" fill="#DBFF1C"/>
<path d="M10.6149 22.3237L10.5508 21.9574L10.3545 22.8914L10.4002 23.3431L10.6149 22.3237Z" fill="#30FFC7"/>
<path d="M2.63315 15.4292L3.24638 15.6481L3.56318 14.835L2.97767 14.5398L2.63315 15.4292Z" fill="#FEED00"/>
<path d="M10.7226 21.2284L10.6492 20.9543L10.551 21.9573L10.6151 22.3237L10.7226 21.2284Z" fill="#56FFA0"/>
<path d="M2.97797 14.5403L3.56347 14.8355L3.96466 14.1397L3.41498 13.7788L2.97797 14.5403Z" fill="#FFC800"/>
<path d="M10.7303 20.0857L10.6459 19.9086L10.6498 20.9547L10.7343 21.2287L10.7303 20.0857Z" fill="#80FF77"/>
<path d="M3.41476 13.7784L3.96445 14.1392L4.44005 13.5799L3.93343 13.1659L3.41476 13.7784Z" fill="#FFA700"/>
<path d="M10.604 18.9248L10.5405 18.8466L10.646 19.9084L10.7193 20.0855L10.604 18.9248Z" fill="#A7FF50"/>
<path d="M3.93335 13.1661L4.43997 13.5801L4.97785 13.1732L4.52046 12.7201L3.93335 13.1661Z" fill="#FF8D00"/>
<path d="M10.3792 17.7773L10.3347 17.7973L10.5403 18.8467L10.6039 18.9249L10.3792 17.7773Z" fill="#CEFF29"/>
<path d="M4.52075 12.7201L4.97814 13.1732L5.5643 12.9304L5.16103 12.4536L4.52075 12.7201Z" fill="#FF7700"/>
<path d="M10.05 16.6738L10.0337 16.7886L10.3344 17.7973L10.3789 17.7774L10.05 16.6738Z" fill="#F4F802"/>
<path d="M5.16064 12.4534L5.56392 12.9302L6.18287 12.859L5.83713 12.3748L5.16064 12.4534Z" fill="#FF6C00"/>
<path d="M9.62549 15.6439L9.6457 15.8473L10.0339 16.788L10.0502 16.6733L9.62549 15.6439Z" fill="#FFD300"/>
<path d="M5.83731 12.3751L6.18305 12.8594L6.81822 12.9624L6.53185 12.4873L5.83731 12.3751Z" fill="#FF6400"/>
<path d="M9.11642 14.7172L9.18049 15.0005L9.64606 15.8476L9.62585 15.6442L9.11642 14.7172Z" fill="#FFB200"/>
<path d="M6.53171 12.4872L6.81808 12.9623L7.45231 13.2374L7.22547 12.7878L6.53171 12.4872Z" fill="#FF6400"/>
<path d="M8.53583 13.9181L8.64992 14.2704L9.18044 15.0005L9.11637 14.7171L8.53583 13.9181Z" fill="#FF9400"/>
<path d="M7.2254 12.7875L7.45225 13.2371L8.06834 13.6771L7.89947 13.2688L7.2254 12.7875Z" fill="#FF6C00"/>
<path d="M7.89938 13.2688L8.06825 13.6771L8.64944 14.2702L8.53536 13.9179L7.89938 13.2688Z" fill="#FF7E00"/>
<path d="M5.33575 27.2831L5.2467 27.0218L4.50671 26.3817L4.54613 26.6L5.33575 27.2831Z" fill="#000CFF"/>
<path d="M4.54597 26.6001L4.50656 26.3817L3.81708 25.5682L3.81024 25.7321L4.54597 26.6001Z" fill="#0028FF"/>
<path d="M6.1603 27.7644L6.01934 27.4726L5.24686 27.0216L5.33591 27.2829L6.1603 27.7644Z" fill="#0000FF"/>
<path d="M3.81 25.732L3.81684 25.5682L3.19468 24.601L3.14606 24.7L3.81 25.732Z" fill="#004CFF"/>
<path d="M6.99915 28.0323L6.8052 27.7234L6.01901 27.4728L6.15997 27.7645L6.99915 28.0323Z" fill="#0000FF"/>
<path d="M3.14625 24.6994L3.19488 24.6004L2.65548 23.5026L2.5705 23.5279L3.14625 24.6994Z" fill="#0074FF"/>
<path d="M7.83258 28.0788L7.58575 27.7665L6.80508 27.723L6.99904 28.0319L7.83258 28.0788Z" fill="#0000FF"/>
<path d="M2.57045 23.5285L2.65544 23.5031L2.2124 22.3011L2.09738 22.2455L2.57045 23.5285Z" fill="#00A8FF"/>
<path d="M8.64008 27.9027L8.34171 27.6008L7.58578 27.7666L7.83262 28.079L8.64008 27.9027Z" fill="#0008FF"/>
<path d="M2.09751 22.2454L2.21253 22.301L1.87733 21.0239L1.73938 20.8818L2.09751 22.2454Z" fill="#00E0FB"/>
<path d="M9.40193 27.5059L9.05461 27.2284L8.34222 27.6006L8.64059 27.9025L9.40193 27.5059Z" fill="#0020FF"/>
<path d="M1.73909 20.882L1.87703 21.0241L1.65874 19.7032L1.50562 19.4712L1.73909 20.882Z" fill="#2CFFCA"/>
<path d="M10.0977 26.8978L9.7052 26.6582L9.05453 27.2291L9.40186 27.5065L10.0977 26.8978Z" fill="#0040FF"/>
<path d="M1.50603 19.4706L1.65916 19.7026L1.56418 18.3706L1.40411 18.0474L1.50603 19.4706Z" fill="#5DFF9A"/>
<path d="M10.7096 26.0898L10.2769 25.901L9.70483 26.6577L10.0973 26.8973L10.7096 26.0898Z" fill="#0068FF"/>
<path d="M1.40381 18.0479L1.56387 18.3711L1.59569 17.0617L1.43726 16.6481L1.40381 18.0479Z" fill="#90FF66"/>
<path d="M11.2221 25.1024L10.7552 24.9761L10.2769 25.9012L10.7096 26.09L11.2221 25.1024Z" fill="#0098FF"/>
<path d="M1.43719 16.6481L1.59562 17.0617L1.75461 15.8085L1.6065 15.3076L1.43719 16.6481Z" fill="#C1FF36"/>
<path d="M11.6207 23.9576L11.1268 23.9043L10.7554 24.9757L11.2222 25.102L11.6207 23.9576Z" fill="#00CCFF"/>
<path d="M1.60687 15.307L1.75498 15.8078L2.03827 14.6436L1.90909 14.061L1.60687 15.307Z" fill="#F4F802"/>
<path d="M11.894 22.6847L11.3809 22.7131L11.1271 23.9045L11.621 23.9578L11.894 22.6847Z" fill="#1CFFDB"/>
<path d="M1.90875 14.061L2.03793 14.6436L2.43939 13.5997L2.33743 12.9431L1.90875 14.061Z" fill="#FFC400"/>
<path d="M12.033 21.3146L11.5092 21.4315L11.3809 22.713L11.894 22.6845L12.033 21.3146Z" fill="#4DFFAA"/>
<path d="M2.3374 12.9433L2.43936 13.5999L2.94959 12.7048L2.88257 11.9841L2.3374 12.9433Z" fill="#FF9800"/>
<path d="M12.033 19.8831L11.5076 20.0931L11.5092 21.4316L12.033 21.3147L12.033 19.8831Z" fill="#80FF77"/>
<path d="M2.88254 11.9843L2.94956 12.705L3.55603 11.984L3.53087 11.2111L2.88254 11.9843Z" fill="#FF6F00"/>
<path d="M11.8926 18.4272L11.3748 18.7324L11.5076 20.0928L12.033 19.8828L11.8926 18.4272Z" fill="#B4FF43"/>
<path d="M3.53128 11.2108L3.55644 11.9837L4.24375 11.4576L4.26633 10.6459L3.53128 11.2108Z" fill="#FF4A00"/>
<path d="M11.6139 16.9869L11.1129 17.3866L11.3745 18.7327L11.8922 18.4276L11.6139 16.9869Z" fill="#E4FF13"/>
<path d="M4.26658 10.6459L4.24399 11.4576L4.99426 11.1422L5.06923 10.3064L4.26658 10.6459Z" fill="#FF3000"/>
<path d="M11.2044 15.6006L10.729 16.0916L11.1132 17.3868L11.6142 16.9871L11.2044 15.6006Z" fill="#FFD300"/>
<path d="M5.06862 10.307L4.99365 11.1428L5.78692 11.0481L5.91748 10.204L5.06862 10.307Z" fill="#FF2200"/>
<path d="M10.6735 14.306L10.2321 14.8825L10.7292 16.0912L11.2045 15.6002L10.6735 14.306Z" fill="#FFA300"/>
<path d="M5.9177 10.2037L5.78714 11.0478L6.60201 11.1775L6.78981 10.3412L5.9177 10.2037Z" fill="#FF1A00"/>
<path d="M10.035 13.1404L9.6348 13.7938L10.2318 14.8826L10.6733 14.3061L10.035 13.1404Z" fill="#FF7A00"/>
<path d="M6.78997 10.3414L6.60217 11.1777L7.41636 11.5294L7.66139 10.7169L6.78997 10.3414Z" fill="#FF1A00"/>
<path d="M9.30654 12.1354L8.95374 12.8551L9.63468 13.7935L10.0349 13.1401L9.30654 12.1354Z" fill="#FF5500"/>
<path d="M7.66152 10.7167L7.4165 11.5292L8.20766 12.0936L8.50823 11.3204L7.66152 10.7167Z" fill="#FF2500"/>
<path d="M8.50787 11.3201L8.20731 12.0933L8.95363 12.8552L9.30643 12.1355L8.50787 11.3201Z" fill="#FF3800"/>
<mask id="path-811-outside-1_545_15082" maskUnits="userSpaceOnUse" x="8.25" y="8.34998" width="24" height="24" fill="black">
<rect fill="white" x="8.25" y="8.34998" width="24" height="24"/>
<path fill-rule="evenodd" clip-rule="evenodd" d="M24.7624 19C25.5386 17.9888 26 16.7233 26 15.35C26 12.0363 23.3137 9.34998 20 9.34998C16.6863 9.34998 14 12.0363 14 15.35C14 16.7233 14.4614 17.9888 15.2376 19C11.9296 19.0067 9.25 21.6904 9.25 25C9.25 28.3137 11.9363 31 15.25 31C17.1831 31 18.9027 30.0858 20 28.6662C21.0973 30.0858 22.8169 31 24.75 31C28.0637 31 30.75 28.3137 30.75 25C30.75 21.6904 28.0704 19.0067 24.7624 19Z"/>
</mask>
<path fill-rule="evenodd" clip-rule="evenodd" d="M24.7624 19C25.5386 17.9888 26 16.7233 26 15.35C26 12.0363 23.3137 9.34998 20 9.34998C16.6863 9.34998 14 12.0363 14 15.35C14 16.7233 14.4614 17.9888 15.2376 19C11.9296 19.0067 9.25 21.6904 9.25 25C9.25 28.3137 11.9363 31 15.25 31C17.1831 31 18.9027 30.0858 20 28.6662C21.0973 30.0858 22.8169 31 24.75 31C28.0637 31 30.75 28.3137 30.75 25C30.75 21.6904 28.0704 19.0067 24.7624 19Z" fill="white"/>
<path d="M24.7624 19L23.9692 18.3911L22.7374 19.9959L24.7604 20L24.7624 19ZM15.2376 19L15.2396 20L17.2626 19.9959L16.0308 18.3911L15.2376 19ZM20 28.6662L20.7912 28.0546L20 27.031L19.2088 28.0546L20 28.6662ZM25 15.35C25 16.4955 24.616 17.5484 23.9692 18.3911L25.5557 19.6089C26.4613 18.4291 27 16.951 27 15.35H25ZM20 10.35C22.7614 10.35 25 12.5886 25 15.35H27C27 11.484 23.866 8.34998 20 8.34998V10.35ZM15 15.35C15 12.5886 17.2386 10.35 20 10.35V8.34998C16.134 8.34998 13 11.484 13 15.35H15ZM16.0308 18.3911C15.384 17.5484 15 16.4955 15 15.35H13C13 16.951 13.5387 18.4291 14.4443 19.6089L16.0308 18.3911ZM10.25 25C10.25 22.242 12.483 20.0056 15.2396 20L15.2355 18C11.3762 18.0079 8.25 21.1388 8.25 25H10.25ZM15.25 30C12.4886 30 10.25 27.7614 10.25 25H8.25C8.25 28.866 11.384 32 15.25 32V30ZM19.2088 28.0546C18.2927 29.2398 16.8604 30 15.25 30V32C17.5058 32 19.5127 30.9318 20.7912 29.2778L19.2088 28.0546ZM24.75 30C23.1396 30 21.7073 29.2398 20.7912 28.0546L19.2088 29.2778C20.4873 30.9318 22.4942 32 24.75 32V30ZM29.75 25C29.75 27.7614 27.5114 30 24.75 30V32C28.616 32 31.75 28.866 31.75 25H29.75ZM24.7604 20C27.517 20.0056 29.75 22.242 29.75 25H31.75C31.75 21.1388 28.6238 18.0079 24.7645 18L24.7604 20Z" fill="white" mask="url(#path-811-outside-1_545_15082)"/>
<circle cx="25" cy="25" r="6" fill="#22996E"/>
<path d="M25.3924 21.4816C25.2175 21.1728 24.7825 21.1728 24.6076 21.4816L23.9997 22.5552C23.8581 22.8052 24.0387 23.115 24.326 23.115H25.674C25.9613 23.115 26.1419 22.8052 26.0003 22.5552L25.3924 21.4816Z" fill="white"/>
<path d="M27.0597 24.4259C26.9266 24.1908 26.6773 24.0455 26.4071 24.0455H23.5929C23.3227 24.0455 23.0734 24.1908 22.9403 24.4259L21.312 27.3011C21.1364 27.6113 21.3546 28 21.7044 28H28.2956C28.6454 28 28.8636 27.6113 28.688 27.3011L27.0597 24.4259Z" fill="white"/>
<mask id="mask0_545_15082" style="mask-type:alpha" maskUnits="userSpaceOnUse" x="14" y="9" width="12" height="13">
<path fill-rule="evenodd" clip-rule="evenodd" d="M26 15.35C26 14.5647 25.8438 13.7794 25.5433 13.0539C25.2428 12.3284 24.798 11.6626 24.2426 11.1074C23.6874 10.552 23.0216 10.1072 22.2961 9.8067C21.5706 9.50622 20.7853 9.34998 20 9.34998C19.2147 9.34998 18.4294 9.50622 17.7039 9.8067C16.9784 10.1072 16.3126 10.552 15.7574 11.1074C15.202 11.6626 14.7572 12.3284 14.4567 13.0539C14.1562 13.7794 14 14.5647 14 15.35C14 16.1353 14.1562 16.9205 14.4567 17.6461C14.7572 18.3716 15.202 19.0373 15.7574 19.5926C16.3126 20.1479 16.9784 20.5928 17.7039 20.8933C18.4294 21.1937 19.2147 21.35 20 21.35C20.7853 21.35 21.5706 21.1937 22.2961 20.8933C23.0216 20.5928 23.6874 20.1479 24.2426 19.5926C24.798 19.0373 25.2428 18.3716 25.5433 17.6461C25.8438 16.9205 26 16.1353 26 15.35Z" fill="#F4BD9E"/>
</mask>
<g mask="url(#mask0_545_15082)">
<path fill-rule="evenodd" clip-rule="evenodd" d="M26 15.35C26 14.5647 25.8438 13.7794 25.5433 13.0539C25.2428 12.3284 24.798 11.6626 24.2426 11.1074C23.6874 10.552 23.0216 10.1072 22.2961 9.8067C21.5706 9.50622 20.7853 9.34998 20 9.34998C19.2147 9.34998 18.4294 9.50622 17.7039 9.8067C16.9784 10.1072 16.3126 10.552 15.7574 11.1074C15.202 11.6626 14.7572 12.3284 14.4567 13.0539C14.1562 13.7794 14 14.5647 14 15.35C14 16.1353 14.1562 16.9205 14.4567 17.6461C14.7572 18.3716 15.202 19.0373 15.7574 19.5926C16.3126 20.1479 16.9784 20.5928 17.7039 20.8933C18.4294 21.1937 19.2147 21.35 20 21.35C20.7853 21.35 21.5706 21.1937 22.2961 20.8933C23.0216 20.5928 23.6874 20.1479 24.2426 19.5926C24.798 19.0373 25.2428 18.3716 25.5433 17.6461C25.8438 16.9205 26 16.1353 26 15.35Z" fill="#F4BD9E"/>
<path fill-rule="evenodd" clip-rule="evenodd" d="M25.625 15.35C25.625 14.6138 25.4785 13.8776 25.1968 13.1974C24.9151 12.5172 24.4981 11.8931 23.9774 11.3725C23.4569 10.8519 22.8328 10.4349 22.1526 10.1532C21.4724 9.87145 20.7362 9.72498 20 9.72498C19.2638 9.72498 18.5276 9.87145 17.8474 10.1532C17.1672 10.4349 16.5431 10.8519 16.0226 11.3725C15.5019 11.8931 15.0849 12.5172 14.8032 13.1974C14.5215 13.8776 14.375 14.6138 14.375 15.35C14.375 16.0862 14.5215 16.8224 14.8032 17.5026C15.0849 18.1827 15.5019 18.8069 16.0226 19.3274C16.5431 19.8481 17.1672 20.2651 17.8474 20.5468C18.5276 20.8285 19.2638 20.975 20 20.975C20.7362 20.975 21.4724 20.8285 22.1526 20.5468C22.8328 20.2651 23.4569 19.8481 23.9774 19.3274C24.4981 18.8069 24.9151 18.1827 25.1968 17.5026C25.4785 16.8224 25.625 16.0862 25.625 15.35Z" fill="#292732"/>
<path d="M20.375 8.97498H19.625V10.7477L15.875 13.475V17.225L19.625 19.9522V21.725H20.375V19.9522L24.125 17.225V13.475L20.375 10.7477V8.97498Z" fill="#F4BD9E"/>
<path d="M23 15.35C23 14.0866 22.219 13.0056 21.1135 12.5634C21.0351 12.0186 20.5665 11.6 20 11.6C19.4335 11.6 18.9649 12.0186 18.8865 12.5634C17.781 13.0056 17 14.0866 17 15.35C17 16.6134 17.781 17.6944 18.8865 18.1365C18.9649 18.6813 19.4335 19.1 20 19.1C20.5665 19.1 21.0351 18.6813 21.1135 18.1365C22.219 17.6944 23 16.6134 23 15.35Z" fill="#292732"/>
<path fill-rule="evenodd" clip-rule="evenodd" d="M20.3974 17.8038C20.3974 17.8894 20.3075 17.975 20.2205 17.975C20.1025 17.975 19.9845 17.975 19.8665 17.975C19.7795 17.975 19.6896 17.8894 19.6896 17.8038C19.6896 17.6296 19.6896 17.4554 19.6896 17.2813C18.9844 17.1957 18.6335 16.8045 18.5 16.2393C18.5 16.1536 18.5435 16.068 18.6335 16.068C18.7649 16.068 18.8965 16.068 19.028 16.068C19.118 16.068 19.1615 16.1108 19.205 16.1964C19.295 16.502 19.469 16.7617 20.0435 16.7617C20.4845 16.7617 20.792 16.5448 20.792 16.1964C20.792 15.8511 20.618 15.7197 20 15.634C19.074 15.5057 18.6335 15.243 18.6335 14.5035C18.6335 13.9412 19.0744 13.5072 19.6896 13.4187C19.6896 13.2455 19.6896 13.0723 19.6896 12.8991C19.6896 12.8135 19.7795 12.725 19.8665 12.725C19.9845 12.725 20.1025 12.725 20.2205 12.725C20.3075 12.725 20.3974 12.8135 20.3974 12.8991C20.3974 13.0723 20.3974 13.2455 20.3974 13.4187C20.9255 13.5072 21.2795 13.8098 21.3665 14.2866C21.3665 14.3751 21.323 14.4607 21.2331 14.4607C21.116 14.4607 20.999 14.4607 20.882 14.4607C20.792 14.4607 20.7485 14.4179 20.705 14.3322C20.618 14.0268 20.3974 13.8984 20 13.8984C19.559 13.8984 19.3385 14.1153 19.3385 14.4179C19.3385 14.7205 19.469 14.8946 20.1305 14.9831C21.0596 15.1075 21.5 15.3714 21.5 16.1108C21.5 16.6732 21.059 17.1529 20.3974 17.2813V17.8038Z" fill="#F4BD9E"/>
</g>
<path fill-rule="evenodd" clip-rule="evenodd" d="M21 25C21 21.6893 18.3107 19 15 19C11.6893 19 9 21.6893 9 25C9 28.3107 11.6893 31 15 31C18.3107 31 21 28.3107 21 25Z" fill="white" stroke="black" stroke-width="0.2"/>
<path fill-rule="evenodd" clip-rule="evenodd" d="M13.2819 27.6621C14.3278 28.3372 15.6722 28.3372 16.7181 27.6621L17.806 28.75L18.75 27.806L17.6621 26.7181C18.3372 25.6722 18.3372 24.3278 17.6621 23.2819L18.75 22.194L17.806 21.25L16.7181 22.3379C15.6722 21.6628 14.3278 21.6628 13.2819 22.3379L12.194 21.25L11.25 22.194L12.3379 23.2819C11.6628 24.3278 11.6628 25.6722 12.3379 26.7181L11.25 27.806L12.194 28.75L13.2819 27.6621ZM15 23.0839C16.0573 23.0839 16.9161 23.9428 16.9161 25C16.9161 26.0573 16.0573 26.9161 15 26.9161C13.9428 26.9161 13.0839 26.0573 13.0839 25C13.0839 23.9428 13.9428 23.0839 15 23.0839Z" fill="black"/>
<defs>
<linearGradient id="paint0_linear_545_15082" x1="0.019104" y1="0.0212402" x2="0.019104" y2="28.1794" gradientUnits="userSpaceOnUse">
<stop stop-color="#FF1A00"/>
<stop offset="0.244946" stop-color="#F8F500"/>
<stop offset="0.494291" stop-color="#87FF70"/>
<stop offset="0.747869" stop-color="#00E0FB"/>
<stop offset="1" stop-color="#004CFF"/>
</linearGradient>
</defs>
</svg>
