<svg width="32" height="32" viewBox="0 0 32 32" fill="none" xmlns="http://www.w3.org/2000/svg">
<path d="M0 16C0 7.16344 7.16344 0 16 0C24.8366 0 32 7.16344 32 16C32 24.8366 24.8366 32 16 32C7.16344 32 0 24.8366 0 16Z" fill="white"/>
<path d="M25 16C25 20.9706 20.9706 25 16 25C11.0294 25 7 20.9706 7 16C7 11.0294 11.0294 7 16 7C20.9706 7 25 11.0294 25 16Z" fill="url(#paint0_linear_406_420922)"/>
<path fill-rule="evenodd" clip-rule="evenodd" d="M16.8627 9.8125H15.0907V11.9998H13.8782V12.0015C12.5565 12.0504 11.5 13.1352 11.5 14.4663C11.5 15.8285 12.6065 16.9328 13.9715 16.9328H15.0907V19.1201H11.7798V20.5162H15.0907V22.75H16.8627V20.5162H18.0493C18.0524 20.5163 18.0555 20.5164 18.0586 20.5163H18.0624L18.0751 20.5162C19.4186 20.4914 20.5 19.3964 20.5 18.0497C20.5 16.6875 19.3935 15.5832 18.0285 15.5832H16.8627V13.3959H20.1736V11.9998H16.8627V9.8125ZM16.8627 16.9328V15.5832H15.1373V13.3494H14.2979V13.3516C13.7253 13.3885 13.272 13.8734 13.272 14.4663C13.272 15.0592 13.7253 15.5441 14.2979 15.5809V15.5832H15.1373V16.9328H16.8627ZM16.8627 16.9328V19.1666H17.7021V19.1643C18.2747 19.1275 18.728 18.6426 18.728 18.0497C18.728 17.4568 18.2747 16.9719 17.7021 16.9351V16.9328H16.8627Z" fill="white"/>
<path fill-rule="evenodd" clip-rule="evenodd" d="M11.855 3.38363C13.3455 2.89371 14.9385 2.66971 16.5164 2.73019C18.0946 2.79067 19.6582 3.13595 21.1132 3.74395C22.5686 4.35195 23.9154 5.22299 25.0678 6.29755C26.5919 7.71931 27.7753 9.49755 28.485 11.4867C29.1951 13.4761 29.4316 15.6764 29.1577 17.7711C28.8841 19.8659 28.1001 21.8553 26.9142 23.566C25.7282 25.2767 24.1401 26.7084 22.2748 27.7004C20.4095 28.6921 18.2665 29.2438 16.1542 29.2758C14.0418 29.3078 11.9599 28.8204 10.0953 27.895C8.23095 26.9695 6.58359 25.6063 5.33271 23.9036C4.08183 22.2009 3.22743 20.1587 2.88823 18.0748C2.54903 15.9907 2.72503 13.8646 3.37495 11.8812C3.86615 10.3817 4.62839 8.96411 5.60503 7.73563H4.12055V5.28187H9.93719V10.7135H7.48343V9.22939C6.68343 10.2355 6.05879 11.3967 5.65655 12.6255C5.12439 14.2511 4.98103 15.9951 5.25655 17.6969C5.59895 19.8137 6.58903 21.8649 8.06679 23.4457C9.83447 25.3363 12.2998 26.5542 14.8662 26.8207C17.4322 27.0873 20.0994 26.4028 22.2175 24.9286C24.3356 23.4543 25.9052 21.1903 26.5423 18.6899C27.1794 16.1894 26.8841 13.4524 25.7353 11.142C24.5865 8.83163 22.5839 6.94843 20.1894 5.95899C17.7948 4.96923 15.0079 4.87387 12.6041 5.66363L11.855 3.38363Z" fill="url(#paint1_linear_406_420922)"/>
<defs>
<linearGradient id="paint0_linear_406_420922" x1="8.96875" y1="21.625" x2="23.5938" y2="10.9375" gradientUnits="userSpaceOnUse">
<stop stop-color="#272727"/>
<stop offset="1" stop-color="#B4B4B4"/>
</linearGradient>
<linearGradient id="paint1_linear_406_420922" x1="2.04365" y1="13.2971" x2="15.2224" y2="29.5764" gradientUnits="userSpaceOnUse">
<stop stop-color="#004CFF"/>
<stop offset="0.252131" stop-color="#00E0FB"/>
<stop offset="0.505709" stop-color="#87FF70"/>
<stop offset="0.755054" stop-color="#F8F500"/>
<stop offset="1" stop-color="#FF1A00"/>
</linearGradient>
</defs>
</svg>
