<svg xmlns="http://www.w3.org/2000/svg" viewBox="0 0 600 600">
    <circle class="cls-1" cx="300" cy="300" r="300" fill="url(#background)"/>
    <g transform="matrix(0.0234375,0,0,0.0234375,150,150)">
        <path fill="rgb(29,176,230)" d="M6748 7238 c-1 -2 -6 -94 -12 -206 l-11 -203 -39 36 c-64 61 -127 85 -226 85 -68 0 -95 -5 -135 -24 -54 -25 -162 -129 -200 -193 l-24 -38 6 258 6 257 -40 0 c-37 0 -43 -4 -63 -37 -25 -43 -87 -219 -130 -369 -16 -55 -38 -124 -49 -153 -25 -61 -67 -244 -77 -329 -3 -34 -9 -62 -11 -62 -3 0 -18 11 -35 25 -16 13 -51 32 -78 42 l-50 18 0 65 c-1 64 -12 115 -84 390 -20 74 -36 138 -36 143 0 4 -17 7 -39 7 -48 0 -51 -8 -51 -150 0 -58 -7 -181 -15 -275 -8 -93 -15 -176 -15 -182 0 -7 -28 -27 -62 -44 -72 -36 -163 -119 -223 -204 -166 -234 -223 -569 -154 -908 20 -98 63 -223 100 -285 19 -32 19 -34 0 -70 -39 -78 -61 -175 -61 -276 0 -54 5 -106 10 -117 16 -30 62 -23 150 21 44 22 82 40 85 40 3 0 -15 -31 -40 -68 -47 -71 -85 -173 -85 -229 0 -31 2 -33 38 -33 34 0 46 9 137 101 165 166 362 317 653 499 104 65 174 52 296 -54 59 -51 198 -227 211 -266 5 -16 15 -20 49 -20 41 0 45 2 81 58 109 164 207 269 290 308 62 29 84 30 138 3 160 -82 634 -483 713 -604 14 -22 23 -26 58 -23 l41 3 -1 50 c-2 60 -32 148 -73 216 -17 27 -31 51 -31 54 0 2 38 -16 85 -40 89 -47 143 -57 165 -31 8 11 11 58 8 163 -3 137 -5 152 -31 208 l-28 61 36 77 c19 43 47 124 62 180 26 97 27 114 28 332 0 211 -2 236 -23 310 -50 171 -124 309 -226 422 -26 29 -42 54 -36 58 14 9 13 310 -1 337 -7 12 -11 60 -10 110 l2 88 -35 0 c-40 0 -64 -24 -89 -92 -26 -68 -67 -255 -67 -303 0 -39 -2 -43 -21 -38 -19 5 -20 12 -17 107 2 55 2 181 0 279 l-2 178 -37 -3 c-32 -3 -41 -9 -55 -38 -27 -55 -78 -233 -103 -358 -8 -40 -22 -86 -30 -102 -8 -16 -15 -40 -15 -55 0 -14 -5 -25 -10 -25 -6 0 -28 -11 -49 -25 l-39 -24 -12 67 c-6 37 -20 92 -30 122 -10 30 -39 125 -64 210 -26 85 -51 164 -55 175 -5 12 -23 72 -41 135 -18 63 -45 143 -61 176 -16 34 -29 67 -29 73 0 9 -76 17 -82 9z m-1112 -978 c131 -64 189 -175 189 -360 0 -121 -20 -195 -88 -320 -64 -119 -123 -195 -241 -310 -135 -132 -403 -360 -422 -360 -18 0 -66 96 -98 196 -115 360 -37 795 184 1028 149 157 321 203 476 126z m1849 14 c115 -31 228 -134 318 -287 53 -92 79 -155 110 -272 30 -110 32 -406 3 -535 -21 -95 -69 -235 -92 -265 -17 -23 -8 -29 -154 100 -351 311 -385 344 -478 470 -191 260 -215 578 -52 723 94 84 204 105 345 66z"/>
        <path fill="url(#squid_gradient)" d="M7558 11302 c-125 -109 -299 -217 -593 -370 -509 -264 -631 -336 -860 -507 -402 -299 -753 -731 -905 -1114 -50 -126 -94 -295 -111 -427 -15 -110 -16 -461 -2 -564 5 -36 6 -76 3 -90 l-6 -24 -17 24 c-19 27 -49 121 -79 245 -52 218 -23 607 58 768 25 51 30 77 15 77 -12 0 -138 -169 -190 -255 -59 -97 -119 -224 -156 -329 -17 -49 -36 -91 -42 -93 -37 -13 -161 346 -198 573 -17 102 -19 355 -5 459 25 178 102 392 194 539 55 89 169 213 247 271 31 23 84 52 118 65 33 12 58 26 55 31 -7 12 -150 11 -237 -2 -226 -33 -413 -131 -597 -311 -256 -250 -424 -558 -489 -898 -42 -216 -46 -270 -46 -565 0 -270 2 -297 24 -390 74 -315 176 -504 460 -858 76 -94 164 -210 196 -257 62 -93 159 -286 150 -300 -3 -4 -47 -19 -98 -31 -128 -32 -330 -32 -467 0 -250 58 -442 163 -597 324 -69 72 -143 167 -143 183 0 4 -16 31 -35 62 -92 149 -147 392 -147 642 0 292 33 526 98 693 39 102 57 131 128 206 50 52 50 53 21 47 -47 -11 -187 -80 -257 -127 -82 -56 -272 -245 -333 -334 -68 -97 -166 -293 -199 -397 -194 -611 -45 -1368 367 -1856 134 -159 327 -287 544 -361 204 -70 507 -108 786 -98 86 3 157 2 157 -2 0 -14 -34 -37 -120 -81 -47 -24 -96 -51 -110 -60 -57 -39 -276 -153 -372 -193 -250 -105 -440 -142 -683 -134 -159 6 -247 23 -380 74 -331 126 -640 523 -764 983 -79 288 -65 721 29 961 19 48 19 49 0 49 -10 0 -21 -4 -25 -10 -3 -5 -34 -24 -68 -42 -96 -51 -287 -245 -377 -383 -158 -243 -262 -528 -301 -820 -18 -141 -6 -413 25 -553 86 -388 235 -645 552 -953 334 -323 719 -524 1121 -584 347 -51 921 28 1281 177 97 40 104 36 97 -49 -17 -196 -66 -350 -151 -478 -136 -203 -359 -334 -597 -351 -105 -7 -201 5 -273 37 -26 11 -49 17 -52 14 -10 -9 51 -65 123 -113 165 -108 364 -162 603 -162 415 0 716 126 922 385 31 39 59 65 68 63 22 -4 100 -124 108 -165 10 -52 -4 -84 -59 -138 -86 -84 -228 -119 -364 -91 -67 13 -54 -7 45 -71 84 -56 276 -133 329 -133 60 0 67 -24 23 -80 -150 -190 -569 -241 -842 -104 -38 19 -68 30 -68 24 0 -22 55 -117 106 -185 144 -193 369 -309 719 -372 76 -14 150 -18 305 -18 193 1 214 3 360 34 99 21 189 47 250 72 241 103 489 252 704 426 136 111 145 117 153 110 24 -24 -265 -321 -397 -409 -121 -80 -210 -127 -304 -160 -44 -15 -80 -32 -79 -37 1 -4 24 -41 51 -82 61 -92 216 -241 308 -295 73 -43 254 -124 278 -124 7 0 31 -7 52 -16 63 -27 267 -53 408 -54 146 0 268 13 371 41 262 71 392 144 570 323 96 97 117 124 162 212 29 55 55 121 59 145 l6 44 -46 -52 c-49 -54 -181 -148 -251 -178 -83 -36 -182 -56 -295 -62 -96 -4 -130 -2 -204 16 -120 29 -176 54 -176 80 0 11 14 55 31 98 78 199 259 396 584 638 227 169 413 346 511 485 l60 85 43 -3 c64 -6 261 -74 326 -113 70 -42 117 -92 108 -116 -18 -50 -146 -165 -210 -189 -24 -9 -43 -23 -43 -30 0 -11 23 -14 108 -14 333 0 688 142 891 356 96 101 126 163 125 264 -1 57 -7 90 -28 139 -33 81 -34 109 -3 115 12 3 74 15 137 27 498 94 925 323 1295 694 230 230 306 358 362 610 25 111 25 475 1 585 -24 108 -81 275 -93 273 -5 -2 -13 -44 -16 -95 -6 -107 -26 -180 -76 -293 -86 -192 -205 -339 -383 -473 -316 -238 -830 -342 -1296 -263 -65 12 -135 25 -154 31 -19 5 -58 10 -86 10 -84 0 -270 36 -389 75 -199 66 -394 170 -560 299 -91 72 -265 249 -265 271 0 26 27 16 92 -33 191 -146 434 -281 660 -366 154 -58 486 -136 577 -136 114 0 422 86 635 177 287 122 619 351 771 531 42 50 56 82 37 82 -5 0 -40 -11 -80 -24 -90 -31 -410 -102 -522 -115 -106 -14 -510 -14 -544 -1 -14 5 -26 14 -26 19 0 12 6 13 239 41 224 28 417 70 473 103 61 37 196 159 271 247 192 224 355 546 434 860 45 179 59 265 74 452 18 223 6 332 -52 464 -111 252 -281 433 -522 555 -65 32 -123 57 -127 54 -5 -3 6 -40 25 -81 73 -159 106 -319 106 -504 1 -238 -39 -402 -161 -670 -96 -211 -202 -370 -345 -514 -121 -122 -207 -185 -350 -256 -243 -121 -481 -148 -848 -95 -207 30 -193 34 -347 -76 -129 -92 -281 -241 -389 -381 -74 -97 -111 -129 -111 -96 0 6 19 45 41 87 132 242 318 444 484 528 68 35 183 74 409 139 248 71 264 78 371 148 177 116 353 316 431 491 61 135 66 151 85 248 35 178 19 403 -42 617 -33 115 -141 345 -189 401 l-30 34 12 -34 c24 -74 -10 -340 -62 -484 -61 -164 -141 -288 -271 -413 -100 -96 -181 -153 -291 -207 -84 -41 -139 -60 -336 -118 -165 -48 -288 -112 -391 -205 -44 -41 -65 -54 -73 -46 -26 26 60 567 114 716 43 121 72 152 208 227 269 148 458 329 584 562 147 270 165 585 47 815 -36 70 -112 157 -189 214 -75 56 -156 97 -168 85 -4 -3 11 -26 32 -51 22 -24 52 -75 68 -113 41 -94 49 -248 17 -351 -38 -126 -150 -273 -266 -351 -78 -52 -134 -75 -343 -142 -240 -76 -357 -167 -488 -379 -77 -124 -111 -188 -139 -262 -31 -84 -38 -80 -78 44 -58 180 -97 372 -97 474 0 136 31 185 154 242 123 57 223 127 327 231 184 183 280 359 349 636 20 80 24 315 7 430 -38 259 -130 459 -283 617 -82 84 -242 193 -259 176 -3 -3 10 -34 29 -69 39 -73 58 -135 81 -264 21 -115 22 -358 1 -475 -41 -230 -145 -431 -300 -577 -107 -103 -202 -161 -570 -354 -88 -46 -197 -110 -243 -143 -98 -69 -209 -183 -276 -283 l-48 -72 21 -128 c11 -70 28 -156 36 -191 24 -107 16 -152 -18 -99 -29 43 -107 253 -132 352 -68 274 -64 680 8 893 63 184 159 325 389 570 256 274 431 493 577 726 53 84 160 286 160 301 0 13 -22 3 -52 -23z m668 -2734 c-176 -191 -322 -384 -413 -548 -94 -170 -180 -424 -208 -620 -26 -171 -45 -223 -62 -163 -14 49 -7 273 11 368 50 256 161 498 315 685 77 95 202 219 298 296 173 141 200 133 59 -18z m-1426 -1369 c0 -6 13 -39 29 -73 16 -33 43 -113 61 -176 18 -63 36 -123 41 -135 4 -11 29 -90 55 -175 25 -85 55 -182 66 -214 11 -33 21 -73 22 -90 2 -17 6 -44 11 -59 6 -23 -1 -46 -38 -120 -52 -102 -78 -219 -59 -253 10 -16 11 -13 12 21 0 56 35 178 64 224 51 80 178 160 267 169 243 24 494 -224 601 -593 21 -72 23 -100 22 -280 0 -185 -2 -208 -27 -302 -31 -117 -89 -250 -112 -259 -10 -4 -38 14 -81 52 -36 33 -105 92 -152 133 -85 72 -86 73 -32 17 30 -32 98 -94 150 -138 154 -129 190 -201 190 -377 0 -80 -4 -112 -14 -120 -11 -9 -50 7 -180 75 -92 47 -170 83 -173 80 -3 -3 7 -21 23 -41 84 -103 106 -134 134 -190 38 -74 62 -162 48 -171 -6 -4 -22 9 -36 27 -87 113 -323 325 -537 481 -164 120 -199 138 -267 138 -121 0 -239 -100 -393 -332 -40 -61 -59 -71 -70 -38 -13 39 -152 215 -211 266 -101 88 -158 108 -257 93 -51 -8 -72 -20 -282 -158 -174 -114 -305 -220 -452 -364 -67 -67 -125 -119 -127 -116 -3 3 3 33 14 68 23 76 101 198 170 266 90 89 66 87 -135 -9 -179 -86 -175 -86 -175 29 0 74 19 151 57 235 22 48 43 70 165 170 143 117 320 276 327 294 2 5 -43 -32 -100 -84 -57 -51 -147 -128 -199 -170 -52 -42 -101 -84 -109 -93 -7 -10 -22 -17 -31 -17 -62 0 -156 273 -175 505 -18 226 53 492 180 670 63 88 151 168 236 211 69 36 80 39 159 39 102 0 164 -25 249 -101 92 -82 141 -232 127 -383 -5 -51 -4 -62 5 -48 7 12 10 61 7 140 -4 120 -5 124 -47 211 -41 85 -43 92 -37 152 9 85 51 271 77 335 11 29 33 98 49 153 65 227 136 406 161 406 4 0 6 -116 4 -257 -3 -142 -1 -264 4 -272 14 -22 38 -6 71 46 47 74 149 173 205 199 121 57 279 1 360 -128 16 -26 44 -38 46 -20 0 4 2 84 5 177 6 185 9 266 12 278 3 11 22 8 22 -4z m-1370 -286 c0 -5 16 -69 36 -143 70 -266 83 -326 84 -373 0 -54 1 -53 -88 -60 -91 -7 -90 -9 -76 169 7 82 13 199 14 259 0 114 6 155 21 155 5 0 9 -3 9 -7z m2001 -215 c3 -211 0 -331 -9 -339 -9 -9 -154 -29 -163 -23 -4 2 1 23 11 47 10 23 21 62 25 87 6 41 14 72 61 240 23 82 57 160 69 160 2 0 4 -78 6 -172z m225 -38 c-5 -62 -3 -87 9 -110 11 -21 15 -62 15 -154 0 -69 -4 -127 -9 -130 -5 -3 -37 9 -72 27 -53 26 -65 37 -67 60 -4 35 44 247 70 307 18 42 45 80 56 80 3 0 2 -36 -2 -80z m-2606 -71 c0 -6 -31 -45 -70 -87 -235 -260 -488 -658 -645 -1014 -47 -106 -60 -123 -72 -92 -8 21 23 171 59 284 62 195 139 342 260 504 143 190 468 471 468 405z"></path>
    </g>
    <defs>
        <radialGradient id="squid_gradient" cx="50%" cy="50%" r="50%" fx="50%" fy="50%">
            <stop offset="0%" style="stop-color:rgb(29,176,230); stop-opacity:1" />
            <stop offset="75%" style="stop-color:rgb(8,75,129); stop-opacity:1" />
        </radialGradient>
        <radialGradient id="background" cx="0" cy="0" r="1" gradientUnits="userSpaceOnUse" gradientTransform="translate(196 143.5) rotate(54.1675) scale(497.082)">
            <stop stop-color="white"/>
            <stop stop-color="#0080B0" offset="1"/>
        </radialGradient>
    </defs>
</svg>