<svg width="256" height="256" viewBox="0 0 256 256" fill="none" xmlns="http://www.w3.org/2000/svg">
<g clip-path="url(#clip0_446_70)">
<path d="M128 256C198.692 256 256 198.692 256 128C256 57.3076 198.692 0 128 0C57.3076 0 0 57.3076 0 128C0 198.692 57.3076 256 128 256Z" fill="#0A0711"/>
<g clip-path="url(#clip1_446_70)">
<path d="M55.5265 133.994L75.5689 148.378C77.9859 150.179 81.4417 149.464 83.1731 146.942C84.8975 144.419 84.212 140.825 81.788 139.032L61.7456 124.291L61.3993 123.934V123.219L61.7456 122.862L81.788 108.121C84.2049 106.32 84.8975 102.726 83.1731 100.211C82.1343 98.7747 80.4099 97.6886 78.6784 97.6886C77.6396 97.6886 76.6078 98.0458 75.5689 98.7747L55.5265 113.144C52.0707 115.295 50 118.896 50 123.212C50 128.242 52.0707 131.843 55.5265 133.994Z" fill="#74FAD1"/>
<path d="M176.954 88.3496C173.498 89.55 171.972 92.744 172.728 96.3309C172.728 96.7311 182.707 132.665 162.367 157.031C160.064 159.825 160.445 163.819 163.138 166.22C164.283 167.42 165.823 167.813 167.364 167.813C168.905 167.813 170.82 167.013 171.965 165.412C196.912 135.466 185.399 94.3374 185.018 92.7368C183.873 89.1427 180.417 87.1491 176.961 88.3424H176.954V88.3496Z" fill="#74FAD1"/>
<path d="M103.661 96.3309C104.806 92.7368 102.89 89.5428 99.4346 88.3496C95.9788 87.1563 92.9117 89.1498 91.7597 92.744C91.3781 94.3374 79.8657 135.473 104.813 165.42C105.958 167.013 107.88 167.82 109.413 167.82C110.947 167.82 112.481 167.413 113.64 166.227C116.325 163.826 116.325 159.839 114.41 157.038C93.689 132.679 103.661 96.7454 103.661 96.3381V96.3309Z" fill="#74FAD1"/>
<path d="M149.71 156.231H126.297C122.841 156.231 120.155 159.024 120.155 162.619C120.155 166.213 122.841 169.007 126.297 169.007H150.092C153.548 169.007 156.233 166.213 156.233 162.619C155.852 159.024 153.166 156.231 149.71 156.231Z" fill="#74FAD1"/>
</g>
</g>
<defs>
<clipPath id="clip0_446_70">
<rect width="256" height="256" fill="white"/>
</clipPath>
<clipPath id="clip1_446_70">
<rect width="138" height="81" fill="white" transform="translate(50 88)"/>
</clipPath>
</defs>
</svg>
