<svg width="32" height="32" viewBox="0 0 32 32" fill="none" xmlns="http://www.w3.org/2000/svg">
<g clip-path="url(#clip0_1_100)">
<path d="M16 32C24.8571 32 32 24.8571 32 16C32 7.14286 24.8571 0 16 0C7.14286 0 0 7.14286 0 16C0 24.8571 7.14286 32 16 32Z" fill="#0098EA"/>
<path d="M21.4858 8.91428H10.5143C8.51433 8.91428 7.25718 11.0857 8.22861 12.8571L14.9715 24.5714C15.4286 25.3143 16.5143 25.3143 16.9715 24.5714L23.7143 12.8571C24.7429 11.0857 23.4858 8.91428 21.4858 8.91428ZM15.0286 21.0286L13.5429 18.1714L10 11.8286C9.77147 11.4286 10.0572 10.9143 10.5715 10.9143H15.0286V21.0286ZM22 11.8286L18.4572 18.1714L16.9715 21.0286V10.9143H21.4286C21.9429 10.9143 22.2286 11.4286 22 11.8286Z" fill="white"/>
</g>
<defs>
<clipPath id="clip0_1_100">
<rect width="32" height="32" fill="white"/>
</clipPath>
</defs>
</svg>
