<svg xmlns="http://www.w3.org/2000/svg" width="691" height="691" viewBox="0 0 691 691" version="1.1">
	<path d="M 341.728 0.722 C 343.503 0.943, 346.653 0.946, 348.728 0.730 C 350.802 0.513, 349.350 0.333, 345.500 0.328 C 341.650 0.324, 339.952 0.501, 341.728 0.722 M 368.250 1.689 C 369.212 1.941, 370.788 1.941, 371.750 1.689 C 372.712 1.438, 371.925 1.232, 370 1.232 C 368.075 1.232, 367.288 1.438, 368.250 1.689 M 380.813 2.683 C 381.534 2.972, 382.397 2.936, 382.729 2.604 C 383.061 2.272, 382.471 2.036, 381.417 2.079 C 380.252 2.127, 380.015 2.364, 380.813 2.683 M 389.813 3.683 C 390.534 3.972, 391.397 3.936, 391.729 3.604 C 392.061 3.272, 391.471 3.036, 390.417 3.079 C 389.252 3.127, 389.015 3.364, 389.813 3.683 M 395.813 4.683 C 396.534 4.972, 397.397 4.936, 397.729 4.604 C 398.061 4.272, 397.471 4.036, 396.417 4.079 C 395.252 4.127, 395.015 4.364, 395.813 4.683 M 402.813 5.683 C 403.534 5.972, 404.397 5.936, 404.729 5.604 C 405.061 5.272, 404.471 5.036, 403.417 5.079 C 402.252 5.127, 402.015 5.364, 402.813 5.683 M 407.813 6.683 C 408.534 6.972, 409.397 6.936, 409.729 6.604 C 410.061 6.272, 409.471 6.036, 408.417 6.079 C 407.252 6.127, 407.015 6.364, 407.813 6.683 M 412.813 7.683 C 413.534 7.972, 414.397 7.936, 414.729 7.604 C 415.061 7.272, 414.471 7.036, 413.417 7.079 C 412.252 7.127, 412.015 7.364, 412.813 7.683 M 417.813 8.683 C 418.534 8.972, 419.397 8.936, 419.729 8.604 C 420.061 8.272, 419.471 8.036, 418.417 8.079 C 417.252 8.127, 417.015 8.364, 417.813 8.683 M 338.242 114.822 C 334.480 116.828, 332.522 119.561, 324.500 134 C 321.291 139.775, 287.916 198.373, 250.333 264.218 C 174.477 397.116, 178.750 388.483, 185.290 395.619 L 188.580 399.209 367.040 450.102 C 465.193 478.092, 547.210 500.995, 549.300 500.997 C 553.756 501.001, 557.523 499.235, 561 495.514 C 562.956 493.421, 563.486 491.823, 563.438 488.169 C 563.381 483.942, 560.392 478.200, 531.851 427.500 C 493.057 358.587, 378.708 154.819, 367.708 135 C 359.077 119.450, 357.011 116.596, 352.800 114.405 C 349.147 112.505, 342.214 112.703, 338.242 114.822 M 2.195 310.500 C 2.215 312.150, 2.439 312.704, 2.693 311.731 C 2.947 310.758, 2.930 309.408, 2.656 308.731 C 2.382 308.054, 2.175 308.850, 2.195 310.500 M 0.742 334 C -2.016 394.067, 13.514 459.391, 43.176 512.500 C 108.076 628.699, 231.387 697.131, 362.971 689.973 C 372.518 689.454, 381.943 688.718, 383.915 688.338 C 385.887 687.958, 388.251 687.696, 389.169 687.755 C 390.087 687.815, 391.074 687.250, 391.362 686.500 C 391.715 685.579, 391.262 685.257, 389.963 685.507 C 388.906 685.711, 388.144 685.567, 388.270 685.189 C 388.397 684.810, 388.050 684.387, 387.500 684.250 C 386.950 684.112, 386.500 684.450, 386.500 685 C 386.500 685.550, 386.163 686, 385.750 686 C 385.337 686, 384.720 686, 384.378 686 C 384.035 686, 384.324 685.314, 385.020 684.476 C 386.819 682.309, 385.320 681.320, 382.705 682.949 C 380.764 684.157, 380.649 684.141, 381.741 682.819 C 383.377 680.839, 382.448 680.053, 379.165 680.638 C 376.590 681.096, 376.568 681.061, 378.500 679.588 C 380.482 678.077, 380.481 678.063, 378.309 678.032 C 377.104 678.014, 375.835 677.543, 375.490 676.984 C 375.144 676.425, 374.366 676.274, 373.761 676.648 C 373.054 677.085, 372.887 676.737, 373.294 675.676 C 373.643 674.767, 373.607 674.097, 373.214 674.187 C 372.821 674.276, 371.230 673.734, 369.678 672.981 C 367.750 672.047, 366.642 671.948, 366.178 672.670 C 365.776 673.298, 364.687 673.405, 363.500 672.934 C 361.582 672.173, 361.590 672.138, 363.691 672.070 C 367.403 671.951, 367.259 670.139, 363.481 669.430 C 361.515 669.062, 360.126 668.541, 360.393 668.273 C 361.313 667.354, 358.510 665.251, 357.091 665.795 C 356.186 666.143, 355.934 665.916, 356.395 665.170 C 356.807 664.503, 356.552 664, 355.800 664 C 355.074 664, 353.898 663.066, 353.185 661.924 C 352.078 660.152, 351.648 660.042, 350.252 661.174 C 349.198 662.028, 348.872 662.073, 349.336 661.300 C 349.764 660.588, 349.183 659.633, 347.907 658.950 C 346.165 658.018, 345.904 658.056, 346.526 659.150 C 346.949 659.893, 345.765 658.871, 343.897 656.880 C 340.986 653.778, 340.108 653.372, 337.763 654.040 C 335.335 654.732, 335.135 654.617, 335.989 653.020 C 336.736 651.625, 336.540 651.113, 335.118 650.741 C 334.109 650.477, 332.542 650.677, 331.634 651.185 C 329.781 652.222, 327.659 651.361, 328.543 649.931 C 328.859 649.419, 329.654 649.007, 330.309 649.015 C 331.025 649.025, 330.901 649.418, 330 650 C 329.099 650.582, 328.975 650.975, 329.691 650.985 C 331.428 651.007, 332.004 649.619, 330.949 647.952 C 330.444 647.154, 330.024 646.907, 330.015 647.405 C 330.007 647.903, 329.106 647.501, 328.013 646.512 C 326.921 645.523, 324.747 644.666, 323.182 644.607 C 321.617 644.548, 320.336 643.957, 320.335 643.294 C 320.334 642.631, 320.778 642.363, 321.321 642.698 C 321.893 643.052, 321.991 642.795, 321.554 642.088 C 321.139 641.416, 320.557 641.109, 320.261 641.406 C 319.796 641.871, 318.036 640.672, 312.283 635.976 C 311.614 635.430, 309.926 634.889, 308.533 634.773 C 307.140 634.658, 306 634.243, 306 633.850 C 306 633.457, 304.569 632.117, 302.819 630.871 C 301.070 629.626, 299.912 629.049, 300.246 629.589 C 300.580 630.129, 299.986 630.571, 298.927 630.571 C 296.844 630.571, 296.183 629.015, 298.250 628.978 C 298.938 628.966, 298.375 628.090, 297 627.032 C 295.427 625.821, 294.148 625.459, 293.550 626.054 C 293.028 626.574, 292.128 626.993, 291.550 626.985 C 290.973 626.976, 291.175 626.526, 292 625.985 C 293.305 625.128, 293.312 624.879, 292.048 624.066 C 291.249 623.552, 290.160 623.401, 289.628 623.730 C 289.096 624.059, 288.912 623.672, 289.220 622.869 C 289.814 621.321, 286.499 620.868, 284.417 622.213 C 283.815 622.601, 283.333 622.265, 283.333 621.456 C 283.333 620.655, 283.798 620, 284.366 620 C 284.933 620, 282.574 618.165, 279.122 615.922 C 275.671 613.680, 272.183 612.100, 271.372 612.411 C 270.542 612.729, 270.164 612.544, 270.507 611.989 C 270.843 611.445, 270.615 611, 270 611 C 269.385 611, 269.196 610.492, 269.580 609.870 C 269.996 609.197, 269.743 608.919, 268.952 609.183 C 268.222 609.426, 266.793 608.793, 265.776 607.776 C 264.759 606.759, 263.544 606.164, 263.077 606.453 C 262.609 606.742, 261.671 606.308, 260.991 605.489 C 260.311 604.670, 259.109 604, 258.319 604 C 257.528 604, 257.141 603.581, 257.457 603.069 C 257.774 602.557, 257.506 601.813, 256.862 601.415 C 256.218 601.017, 255.956 601.120, 256.281 601.645 C 256.605 602.170, 256.021 603.131, 254.982 603.779 C 253.581 604.654, 252.912 604.666, 252.392 603.825 C 251.978 603.155, 252.136 602.966, 252.776 603.362 C 254.443 604.392, 254.961 602.709, 253.662 600.487 C 252.150 597.901, 249.493 597.236, 250.430 599.679 C 251.303 601.954, 250.048 600.699, 248.519 597.768 C 247.869 596.520, 246.811 595.612, 246.168 595.750 C 245.526 595.887, 245 595.498, 245 594.883 C 245 594.231, 243.958 593.966, 242.491 594.246 C 240.588 594.610, 240.229 594.429, 241.004 593.496 C 242.222 592.028, 239.698 589.451, 238.044 590.473 C 237.470 590.828, 237 590.566, 237 589.892 C 237 589.218, 236.719 588.947, 236.377 589.290 C 236.034 589.633, 234.238 588.758, 232.387 587.346 C 230.535 585.934, 228.416 585.010, 227.677 585.294 C 226.938 585.577, 226.333 585.177, 226.333 584.405 C 226.333 583.632, 226.803 583, 227.378 583 C 228.479 583, 221.219 579.034, 219.500 578.697 C 218.950 578.588, 218.624 579.096, 218.775 579.824 C 218.931 580.576, 218.569 580.852, 217.938 580.461 C 217.326 580.084, 217.028 579, 217.276 578.054 C 217.544 577.029, 217.157 576.333, 216.320 576.333 C 215.533 576.333, 215.148 576.943, 215.446 577.719 C 215.738 578.481, 215.532 578.829, 214.989 578.493 C 214.445 578.157, 214 577.009, 214 575.941 C 214 574.537, 213.308 574, 211.500 574 C 209.861 574, 209 573.441, 209 572.378 C 209 571.119, 208.694 571.009, 207.633 571.890 C 206.593 572.753, 205.967 572.665, 205.019 571.523 C 204.334 570.698, 203.262 570.328, 202.637 570.703 C 202.012 571.077, 202.175 570.544, 203 569.519 C 204.392 567.788, 204.332 567.696, 202.171 568.254 C 200.418 568.706, 199.977 568.501, 200.390 567.427 C 200.691 566.642, 200.501 566, 199.969 566 C 199.436 566, 199 566.536, 199 567.191 C 199 567.846, 198.394 567.553, 197.653 566.540 C 196.719 565.263, 196.087 565.051, 195.594 565.849 C 194.600 567.456, 193.323 567.284, 192.618 565.448 C 192.291 564.594, 192.437 564.152, 192.942 564.464 C 193.448 564.777, 194.125 564.606, 194.447 564.085 C 195.397 562.548, 193.040 561.722, 191.456 563.036 C 189.404 564.740, 186.430 562.392, 188.096 560.384 C 188.976 559.323, 188.609 558.802, 186.388 557.958 C 184.026 557.060, 183.337 557.181, 182.214 558.691 C 180.996 560.329, 180.929 560.250, 181.515 557.859 C 182.165 555.207, 180.685 553.083, 179.510 554.984 C 179.165 555.543, 178.403 556, 177.819 556 C 177.155 556, 177.230 555.427, 178.019 554.477 C 179.091 553.185, 178.996 553.058, 177.391 553.636 C 176.351 554.012, 175.810 553.974, 176.190 553.553 C 177.025 552.626, 174.814 550.020, 173.743 550.668 C 173.327 550.920, 172.719 550.431, 172.393 549.582 C 171.938 548.396, 171.354 548.275, 169.886 549.061 C 168.833 549.625, 168.079 549.729, 168.211 549.293 C 168.643 547.862, 163.355 543.042, 160.901 542.630 C 159.501 542.395, 158.639 541.658, 158.833 540.863 C 159.017 540.113, 158.845 539.822, 158.452 540.215 C 158.059 540.608, 156.796 540.270, 155.646 539.465 C 154.496 538.659, 152.530 538, 151.277 538 C 150.025 538, 149 537.523, 149 536.941 C 149 536.359, 149.419 536.141, 149.931 536.457 C 150.443 536.774, 151.151 536.564, 151.505 535.992 C 151.859 535.419, 151.778 535.015, 151.324 535.094 C 149.158 535.470, 146.940 534.906, 147.435 534.105 C 148.147 532.953, 145.158 531.784, 143.740 532.661 C 143.042 533.092, 142.901 532.700, 143.342 531.550 C 143.941 529.990, 143.565 529.839, 140.262 530.315 C 138.193 530.612, 137.287 530.631, 138.250 530.355 C 140.817 529.619, 140.387 528.115, 137.750 528.605 C 136.513 528.834, 136.049 528.759, 136.721 528.438 C 137.675 527.980, 137.678 527.571, 136.733 526.560 C 135.750 525.507, 135.290 525.568, 134.260 526.883 C 133.115 528.347, 133.053 528.334, 133.605 526.750 C 134.011 525.582, 133.707 525, 132.690 525 C 131.852 525, 130.938 524.438, 130.659 523.750 C 130.277 522.807, 129.877 522.869, 129.034 524 C 128.094 525.262, 127.963 525.183, 128.208 523.500 C 128.441 521.905, 128.016 521.568, 126.110 521.837 C 124.320 522.089, 123.864 521.796, 124.297 520.669 C 124.901 519.094, 122.527 517.514, 120.150 517.909 C 119.407 518.033, 119.067 517.701, 119.394 517.172 C 119.721 516.643, 119.293 515.943, 118.442 515.616 C 117.498 515.254, 117.152 515.437, 117.553 516.085 C 117.914 516.670, 117.291 516.574, 116.169 515.874 C 115.047 515.173, 114.352 514.240, 114.624 513.800 C 114.896 513.360, 114.416 513, 113.559 513 C 112.702 513, 112 512.523, 112 511.941 C 112 511.359, 111.520 511.179, 110.933 511.541 C 110.347 511.904, 109.287 511.407, 108.578 510.438 C 107.823 509.405, 106.629 508.928, 105.696 509.287 C 104.582 509.714, 104.269 509.461, 104.658 508.449 C 104.964 507.652, 104.749 507, 104.180 507 C 103.612 507, 102.918 507.788, 102.638 508.750 C 102.323 509.836, 102.200 509.602, 102.315 508.133 C 102.435 506.594, 101.640 505.194, 100.043 504.133 C 98.015 502.786, 97.743 502.762, 98.485 504 C 99.260 505.294, 99.152 505.312, 97.692 504.128 C 96.218 502.932, 95.990 502.996, 95.921 504.628 C 95.874 505.739, 95.633 505.979, 95.327 505.216 C 95.043 504.510, 95.380 503.247, 96.075 502.410 C 97.108 501.165, 97.080 500.943, 95.923 501.194 C 95.144 501.362, 93.940 502.175, 93.248 503 C 92.211 504.235, 92.159 504.020, 92.954 501.790 C 93.882 499.187, 93.820 499.118, 91.395 500.040 C 88.202 501.254, 86.718 501.265, 87.457 500.069 C 87.774 499.557, 87.595 498.868, 87.060 498.537 C 86.525 498.206, 86.371 497.197, 86.717 496.294 C 87.180 495.090, 86.928 494.814, 85.772 495.257 C 84.722 495.660, 84.018 495.175, 83.658 493.801 C 83.314 492.486, 82.581 491.947, 81.633 492.311 C 80.815 492.624, 79.608 492.233, 78.951 491.441 C 78.293 490.648, 77.023 490.032, 76.128 490.070 C 74.875 490.124, 74.961 490.339, 76.500 491 C 77.971 491.632, 78.081 491.878, 76.917 491.930 C 74.553 492.035, 73.867 490.883, 75.226 489.092 C 75.890 488.216, 76.063 487.810, 75.611 488.190 C 75.158 488.569, 73.850 488.007, 72.705 486.940 C 71.560 485.873, 70.033 485, 69.311 485 C 68.590 485, 68 484.523, 68 483.941 C 68 483.359, 67.572 483.147, 67.049 483.470 C 66.525 483.793, 64.726 482.808, 63.050 481.279 C 60.710 479.145, 59.087 475.706, 56.058 466.466 C 51.297 451.943, 46.699 433.880, 44.486 421 C 43.588 415.775, 42.590 410.825, 42.268 410 C 41.946 409.175, 41.754 408.163, 41.841 407.750 C 41.929 407.337, 41.325 407, 40.500 407 C 39.675 407, 39 406.550, 39 406 C 39 405.450, 38.564 405, 38.031 405 C 37.499 405, 37.316 405.788, 37.626 406.750 C 38.047 408.061, 37.949 408.165, 37.233 407.165 C 36.707 406.430, 35.989 405.868, 35.638 405.915 C 33.769 406.165, 32.933 405.917, 33.352 405.239 C 34.071 404.076, 31.362 400.846, 29.842 401.053 C 29.104 401.154, 27.657 401.184, 26.628 401.118 C 25.079 401.021, 24.971 400.740, 26 399.500 C 27.020 398.271, 26.951 398, 25.622 398 C 24.527 398, 23.990 397.107, 23.968 395.250 C 23.933 392.247, 21.945 389, 20.140 389 C 19.513 389, 19 388.523, 19 387.941 C 19 387.359, 19.408 387.134, 19.906 387.442 C 20.405 387.750, 20.293 386.880, 19.656 385.509 C 19.020 384.138, 18.163 383.012, 17.750 383.008 C 17.337 383.004, 16.990 382.212, 16.978 381.250 C 16.966 380.288, 16.076 378.375, 15 377 C 13.924 375.625, 13.034 373.488, 13.022 372.250 C 13.010 371.012, 12.550 370, 12 370 C 11.450 370, 11 368.875, 11 367.500 C 11 366.125, 10.600 365, 10.111 365 C 9.622 365, 9.243 364.438, 9.269 363.750 C 9.421 359.649, 8.875 356.959, 8 357.500 C 7.426 357.854, 6.985 356.920, 6.965 355.309 C 6.945 353.764, 6.330 351.419, 5.598 350.098 C 4.866 348.777, 4.504 346.788, 4.794 345.679 C 5.201 344.125, 4.948 343.806, 3.693 344.288 C 2.797 344.631, 1.798 344.482, 1.473 343.956 C 1.148 343.430, 1.610 343, 2.500 343 C 3.559 343, 3.839 342.568, 3.309 341.750 C 2.864 341.063, 2.275 335.325, 2 329 L 1.500 317.500 0.742 334 M 164 427.722 C 158.372 429.836, 156.806 432.328, 130.828 480.500 C 124.953 491.394, 126.177 499.484, 134.283 503.330 C 138.589 505.373, 142.622 505.428, 152.162 503.573 C 228.109 488.805, 263.286 481.695, 266.739 480.414 C 274.509 477.534, 277.769 470.231, 274.353 463.358 C 273.334 461.307, 271.375 458.829, 270 457.852 C 266.750 455.541, 172.599 426.976, 168.573 427.079 C 166.883 427.122, 164.825 427.412, 164 427.722 M 63.559 485.468 C 65.881 487.224, 67 487.378, 67 485.941 C 67 485.359, 66.550 485.160, 66 485.500 C 65.450 485.840, 65 485.641, 65 485.059 C 65 484.477, 64.239 484, 63.309 484 C 61.834 484, 61.866 484.188, 63.559 485.468 M 80.415 495.138 C 79.983 495.836, 80.123 496.042, 80.760 495.648 C 81.348 495.285, 82.057 495.553, 82.336 496.244 C 82.698 497.143, 82.865 497.161, 82.921 496.309 C 83.035 494.588, 81.265 493.761, 80.415 495.138 M 87 497.383 C 87 497.594, 87.901 498.002, 89.001 498.290 C 90.102 498.578, 90.751 498.405, 90.442 497.907 C 89.904 497.036, 87 496.594, 87 497.383 M 139 532.393 C 139 532.609, 139.698 533.054, 140.552 533.382 C 141.442 533.723, 141.843 533.555, 141.493 532.989 C 140.906 532.038, 139 531.583, 139 532.393 M 145 534.941 C 145 535.459, 145.445 536.157, 145.989 536.493 C 146.555 536.843, 146.723 536.442, 146.382 535.552 C 145.717 533.820, 145 533.503, 145 534.941 M 155 542.393 C 155 542.609, 155.698 543.054, 156.552 543.382 C 157.442 543.723, 157.843 543.555, 157.493 542.989 C 156.906 542.038, 155 541.583, 155 542.393 M 162.564 545.293 C 162.940 546.279, 163.499 546.834, 163.807 546.526 C 164.115 546.219, 163.808 545.412, 163.124 544.733 C 162.136 543.753, 162.022 543.868, 162.564 545.293 M 189 562 C 189 562.550, 189.477 563, 190.059 563 C 190.641 563, 190.840 562.550, 190.500 562 C 190.160 561.450, 189.684 561, 189.441 561 C 189.198 561, 189 561.450, 189 562 M 210.510 576.016 C 210.856 576.575, 211.557 576.774, 212.069 576.457 C 213.456 575.600, 213.198 575, 211.441 575 C 210.584 575, 210.165 575.457, 210.510 576.016 M 219.500 582 C 219.160 582.550, 219.610 583, 220.500 583 C 221.390 583, 221.840 582.550, 221.500 582 C 221.160 581.450, 220.710 581, 220.500 581 C 220.290 581, 219.840 581.450, 219.500 582 M 223.500 583 C 223.840 583.550, 224.316 584, 224.559 584 C 224.802 584, 225 583.550, 225 583 C 225 582.450, 224.523 582, 223.941 582 C 223.359 582, 223.160 582.450, 223.500 583 M 229.031 586.500 C 229.031 587.050, 229.467 588.175, 230 589 C 230.533 589.825, 230.969 590.050, 230.969 589.500 C 230.969 588.950, 230.533 587.825, 230 587 C 229.467 586.175, 229.031 585.950, 229.031 586.500 M 238.500 592 C 238.840 592.550, 239.316 593, 239.559 593 C 239.802 593, 240 592.550, 240 592 C 240 591.450, 239.523 591, 238.941 591 C 238.359 591, 238.160 591.450, 238.500 592 M 245.603 598.167 C 245.886 598.625, 246.541 599, 247.059 599 C 247.577 599, 248 598.625, 248 598.167 C 248 597.708, 247.345 597.333, 246.544 597.333 C 245.743 597.333, 245.320 597.708, 245.603 598.167 M 258.510 607.016 C 258.856 607.575, 259.557 607.774, 260.069 607.457 C 261.456 606.600, 261.198 606, 259.441 606 C 258.584 606, 258.165 606.457, 258.510 607.016 M 271.543 613.931 C 271.226 614.443, 271.494 615.187, 272.138 615.585 C 272.836 616.017, 273.042 615.877, 272.648 615.240 C 272.285 614.652, 272.553 613.943, 273.244 613.664 C 274.143 613.302, 274.161 613.135, 273.309 613.079 C 272.654 613.036, 271.859 613.419, 271.543 613.931 M 277.636 617.494 C 277.952 618.316, 278.620 618.735, 279.121 618.425 C 280.170 617.777, 279.328 616, 277.972 616 C 277.472 616, 277.321 616.672, 277.636 617.494 M 302 633.059 C 302 633.641, 302.450 633.840, 303 633.500 C 303.550 633.160, 304 632.684, 304 632.441 C 304 632.198, 303.550 632, 303 632 C 302.450 632, 302 632.477, 302 633.059 M 304.333 635.316 C 304.333 636.022, 305.158 636.662, 306.167 636.738 C 307.175 636.814, 308 636.379, 308 635.771 C 308 635.164, 307.704 634.963, 307.342 635.325 C 306.980 635.687, 306.155 635.544, 305.509 635.007 C 304.712 634.346, 304.333 634.445, 304.333 635.316 M 332.507 652.989 C 332.157 653.555, 332.558 653.723, 333.448 653.382 C 335.180 652.717, 335.497 652, 334.059 652 C 333.541 652, 332.843 652.445, 332.507 652.989 M 348.733 664.124 C 349.412 664.808, 350.219 665.115, 350.526 664.807 C 350.834 664.499, 350.279 663.940, 349.293 663.564 C 347.868 663.022, 347.753 663.136, 348.733 664.124 M 368.500 675 C 368.840 675.550, 369.316 676, 369.559 676 C 369.802 676, 370 675.550, 370 675 C 370 674.450, 369.523 674, 368.941 674 C 368.359 674, 368.160 674.450, 368.500 675" stroke="none" fill="black" fill-rule="evenodd"/>
</svg>