<svg width="32" height="32" viewBox="0 0 32 32" fill="none" xmlns="http://www.w3.org/2000/svg">
<g clip-path="url(#clip0_14160_9003)">
<path d="M16 32C24.8366 32 32 24.8366 32 16C32 7.16344 24.8366 0 16 0C7.16344 0 0 7.16344 0 16C0 24.8366 7.16344 32 16 32Z" fill="white"/>
<path d="M16.0026 23.5202C20.1568 23.5202 23.5243 20.1534 23.5243 16.0003C23.5243 11.8472 20.1568 8.48047 16.0026 8.48047C11.8485 8.48047 8.48096 11.8472 8.48096 16.0003C8.48096 20.1534 11.8485 23.5202 16.0026 23.5202Z" fill="white"/>
<path d="M20.2549 14.8886C20.4313 13.701 19.5257 13.0601 18.2848 12.6309L18.6847 11.0199L17.7026 10.773L17.3086 12.3428C17.0498 12.2781 16.7852 12.2193 16.5205 12.1605L16.9145 10.579L15.9324 10.332L15.5325 11.943C15.3208 11.896 15.1091 11.8489 14.9033 11.796L13.5507 11.455L13.2919 12.5016C13.2919 12.5016 14.0211 12.6662 14.0035 12.6779C14.4034 12.7779 14.474 13.0425 14.4622 13.2482L13.3625 17.6637C13.3154 17.7872 13.1919 17.9636 12.9155 17.8989C12.9273 17.9107 12.2039 17.7225 12.2039 17.7225L11.7158 18.8455L12.992 19.163C13.2272 19.2218 13.4625 19.2865 13.6918 19.3453L13.286 20.9739L14.2681 21.2208L14.668 19.6098C14.9386 19.6804 15.1973 19.7509 15.4502 19.8156L15.0503 21.4207L16.0324 21.6677L16.4382 20.039C18.1143 20.3565 19.3728 20.2272 19.9021 18.7162C20.3314 17.4991 19.8785 16.7936 19.0023 16.335C19.6433 16.188 20.1255 15.7647 20.2549 14.8945V14.8886ZM18.0143 18.0341C17.7085 19.2512 15.656 18.5927 14.9915 18.4281L15.5325 16.2703C16.1971 16.4349 18.3318 16.7642 18.0143 18.0341ZM18.3201 14.871C18.0437 15.9822 16.3382 15.4178 15.7795 15.2767L16.2676 13.3188C16.8205 13.454 18.6082 13.7127 18.3201 14.871Z" fill="black"/>
<path d="M23.9419 23.9206C25.5709 21.6452 26.159 18.7466 25.5121 15.995C25.2886 15.0308 24.9122 14.0901 24.3712 13.2023C23.6655 12.0264 22.7422 11.0504 21.6954 10.3037C20.2369 9.25717 18.5256 8.64571 16.7613 8.49872C16.6907 8.49872 16.626 8.48696 16.5555 8.48696C16.4731 8.48696 16.3908 8.48696 16.3085 8.4752C16.2085 8.46344 16.1026 8.46344 16.0027 8.46344C15.9027 8.46344 15.7851 8.46344 15.6733 8.4752C15.6204 8.4752 15.5734 8.4752 15.5145 8.4752C15.4263 8.4752 15.3381 8.48696 15.2499 8.49284C13.5209 8.66334 11.9154 9.4218 10.6746 10.6682C9.33371 12.0088 8.56919 13.7491 8.4751 15.6188C8.54567 13.7197 9.17493 11.8618 10.2982 10.3037C11.0509 9.25129 12.0213 8.32821 13.2034 7.62268C14.0914 7.08765 15.0323 6.71136 15.9909 6.48206C18.7491 5.83532 21.6601 6.42327 23.936 8.06364C24.9828 8.81621 25.9002 9.78632 26.6059 10.9622C29.2465 15.3483 28.035 20.9808 23.9419 23.9147V23.9206Z" fill="url(#paint0_linear_14160_9003)"/>
<path d="M23.9424 23.9199C23.1896 24.9723 22.2134 25.8954 21.0372 26.601C16.6442 29.2408 11.0044 28.0238 8.06982 23.9317C10.3457 25.5721 13.2509 26.16 16.0091 25.5074C16.9676 25.284 17.9086 24.9077 18.7966 24.3668C19.9728 23.6612 20.949 22.7381 21.7018 21.6857C22.825 20.1277 23.4484 18.2697 23.5249 16.3707C23.5249 16.2472 23.5366 16.1296 23.5366 16.012V15.9885C23.5366 15.8592 23.5366 15.7416 23.5249 15.6122C23.4249 13.7484 22.6604 12.0081 21.3254 10.6676C20.0845 9.42702 18.4849 8.66857 16.7559 8.49219C18.5202 8.63329 20.2316 9.25064 21.69 10.2972C22.7427 11.0439 23.6601 12.0199 24.3658 13.1958C24.901 14.0836 25.2774 15.0243 25.5067 15.9885C26.1536 18.7401 25.5714 21.6387 23.9365 23.914L23.9424 23.9199Z" fill="url(#paint1_linear_14160_9003)"/>
<path d="M23.5245 16.376C23.454 18.2751 22.8247 20.133 21.7015 21.6911C20.9487 22.7435 19.9725 23.6666 18.7963 24.3721C17.9083 24.9071 16.9673 25.2834 16.0087 25.5127C13.2565 26.1595 10.3454 25.5774 8.0695 23.937C7.01682 23.1903 6.10528 22.2143 5.39957 21.0385C2.75316 16.6406 3.97639 11.0022 8.06362 8.07422C6.42873 10.3496 5.84064 13.254 6.49342 16.0056C6.71689 16.9699 7.09327 17.9106 7.63431 18.7984C8.34002 19.9743 9.26333 20.9503 10.3101 21.697C11.8686 22.8199 13.7269 23.4432 15.6265 23.5196C15.75 23.5196 15.8676 23.5313 15.9852 23.5313H16.0087C16.1381 23.5313 16.2557 23.5313 16.3851 23.5196C16.5027 23.5196 16.6203 23.5078 16.7321 23.4961C18.467 23.3314 20.0783 22.5789 21.331 21.3265C22.6659 19.986 23.4363 18.2457 23.5304 16.376H23.5245Z" fill="url(#paint2_linear_14160_9003)"/>
<path d="M23.9363 8.07522C21.6604 6.43485 18.7552 5.84102 15.9912 6.49364C15.0326 6.71706 14.0917 7.09335 13.2037 7.63426C12.0216 8.3398 11.0513 9.26287 10.2985 10.3153C9.17525 11.8734 8.55187 13.7313 8.47542 15.6303C8.47542 15.7538 8.46366 15.8714 8.46366 15.989V16.0125C8.46366 16.1419 8.46366 16.2594 8.47542 16.3888C8.47542 16.5064 8.48718 16.624 8.49894 16.7357C8.66361 18.4701 9.41636 20.0752 10.6749 21.3334C12.0098 22.6681 13.7506 23.4324 15.6207 23.5265C13.7271 23.4559 11.8628 22.8268 10.3044 21.7038C9.2517 20.9571 8.33428 19.9811 7.62857 18.8053C7.0934 17.9175 6.71702 16.9767 6.48767 16.0125C5.84077 13.2609 6.42298 10.3565 8.05787 8.0811C8.80475 7.02868 9.78098 6.11148 10.9572 5.40594C15.3561 2.7543 21.0076 3.97723 23.9363 8.07522Z" fill="url(#paint3_linear_14160_9003)"/>
</g>
<defs>
<linearGradient id="paint0_linear_14160_9003" x1="8.4751" y1="15.0778" x2="27.9997" y2="15.0778" gradientUnits="userSpaceOnUse">
<stop offset="0.33" stop-color="#3FB0FF"/>
<stop offset="0.72" stop-color="#9236EA"/>
<stop offset="1" stop-color="#F29A6B"/>
</linearGradient>
<linearGradient id="paint1_linear_14160_9003" x1="8.06982" y1="18.2521" x2="25.7714" y2="18.2521" gradientUnits="userSpaceOnUse">
<stop stop-color="#F29A6B"/>
<stop offset="0.6" stop-color="#9236EA"/>
<stop offset="1" stop-color="#3FB0FF"/>
</linearGradient>
<linearGradient id="paint2_linear_14160_9003" x1="3.99991" y1="16.9228" x2="23.5245" y2="16.9228" gradientUnits="userSpaceOnUse">
<stop stop-color="#F29A6B"/>
<stop offset="0.28" stop-color="#9236EA"/>
<stop offset="0.67" stop-color="#3FB0FF"/>
</linearGradient>
<linearGradient id="paint3_linear_14160_9003" x1="6.23479" y1="13.7607" x2="23.9363" y2="13.7607" gradientUnits="userSpaceOnUse">
<stop offset="0.01" stop-color="#3FB0FF"/>
<stop offset="0.4" stop-color="#9236EA"/>
<stop offset="1" stop-color="#F29A6B"/>
</linearGradient>
<clipPath id="clip0_14160_9003">
<rect width="32" height="32" fill="white"/>
</clipPath>
</defs>
</svg>
