<?xml version="1.0" encoding="UTF-8" standalone="no"?>
<!DOCTYPE svg PUBLIC "-//W3C//DTD SVG 1.1//EN" "http://www.w3.org/Graphics/SVG/1.1/DTD/svg11.dtd">
<svg xmlns="http://www.w3.org/2000/svg" version="1.1" viewBox="0 0 256 256" width="256.0pt" height="256.0pt">
<path d="M 0.00 0.00 L 256.00 0.00 L 256.00 256.00 L 0.00 256.00 L 0.00 0.00 Z" fill="#000000" />
<path d="M 122.95 105.30 C 130.28 105.14 137.38 105.04 144.59 106.59 C 147.04 107.15 149.39 108.20 151.50 109.57 C 154.71 111.75 157.01 115.68 159.76 118.27 C 161.38 119.86 164.21 120.16 166.25 119.31 C 174.03 116.00 181.03 111.11 188.68 107.69 C 192.90 105.75 197.40 105.67 201.94 106.15 C 204.47 106.51 206.68 107.87 207.64 110.32 C 209.75 116.07 207.77 122.75 210.80 128.25 C 212.13 131.20 214.73 134.52 212.87 137.81 C 211.09 141.33 208.70 144.99 205.54 147.41 C 201.04 149.42 198.55 146.09 195.84 143.15 C 192.79 139.28 188.51 139.28 184.01 139.22 C 177.00 139.37 169.70 138.82 162.78 139.96 C 156.29 141.06 151.83 146.58 145.40 148.41 C 139.96 149.95 133.61 149.70 127.99 149.81 C 122.06 150.01 115.53 149.85 109.83 148.04 C 105.29 146.53 100.86 142.61 96.12 142.20 C 92.96 142.92 90.04 148.09 86.00 148.02 C 83.34 148.14 81.66 145.70 79.93 144.04 C 78.03 141.89 75.99 140.17 73.06 139.67 C 64.44 138.34 54.93 140.38 46.42 138.34 C 40.76 136.10 40.98 127.59 44.76 123.75 C 48.01 120.67 52.28 118.45 56.12 116.17 C 61.42 113.21 66.79 109.71 72.37 107.40 C 77.23 105.36 82.58 105.99 87.68 106.40 C 91.27 109.61 92.75 113.80 95.35 117.71 C 98.69 114.94 101.70 111.62 105.32 109.23 C 110.88 105.87 116.65 105.63 122.95 105.30 Z" fill="#f85951" />
<path d="M 123.20 114.01 C 129.54 113.44 138.13 113.47 143.32 117.73 C 147.07 121.05 147.59 127.27 146.54 131.86 C 145.64 135.79 142.82 138.65 139.04 139.94 C 133.34 141.80 126.86 141.69 120.98 140.86 C 116.37 140.31 111.86 137.40 110.05 133.04 C 108.48 127.81 108.84 121.91 112.84 117.85 C 115.58 114.86 119.41 114.65 123.20 114.01 Z" fill="#000000" />
<path d="M 73.02 117.77 C 74.33 117.54 76.60 117.01 77.57 118.21 C 81.21 121.07 79.59 127.77 75.69 129.64 C 71.73 130.96 67.41 130.94 63.49 129.45 C 61.75 128.89 61.78 127.26 60.99 125.79 C 64.63 122.32 68.01 119.14 73.02 117.77 Z" fill="#000000" />
<path d="M 187.52 118.60 C 189.27 117.79 192.17 116.78 193.90 118.01 C 196.79 119.55 196.85 123.96 195.51 126.50 C 192.97 131.11 186.47 131.20 182.01 130.06 C 180.19 129.42 177.53 128.70 178.29 126.17 C 179.78 122.68 184.25 120.23 187.52 118.60 Z" fill="#000000" />
</svg>