<svg viewBox="0 0 600 600" fill="none" xmlns="http://www.w3.org/2000/svg">
    <circle cx="300" cy="300" r="300" fill="white"/>
    <g transform="matrix(1.82002022245,0,0,1.71913202934,-65,-45)">
        <g id="f-logo-1">
            <g id="Layer1">
                <linearGradient id="linearGradient1" x1="35.363636" y1="145.090909" x2="339.090909" y2="145.090909" gradientUnits="userSpaceOnUse">
                    <stop offset="1e-05" stop-color="#1b75ba" stop-opacity="1"/>
                    <stop offset="0.17" stop-color="#2967b2" stop-opacity="1"/>
                    <stop offset="0.72" stop-color="#543d99" stop-opacity="1"/>
                    <stop offset="1" stop-color="#652d8f" stop-opacity="1"/>
                </linearGradient>
                <path id="path1" fill="url(#linearGradient1)" stroke="none" d="M 338.636353 95.909088 C 304.818176 51.909088 260.727264 25.909088 191.72728 25.909088 C 109.909096 25.909088 35.363636 101.181824 35.363636 181.545456 C 35.363636 237.454559 67.090912 264.272705 102.090904 264.272705 C 129.893814 265.148621 155.60939 249.583939 167.72728 224.545456 C 168.16951 223.707687 168.145325 222.700424 167.663376 221.884842 C 167.181442 221.06929 166.310806 220.56221 165.363647 220.545456 L 118.181816 220.545456 C 116.309525 220.496155 114.817535 218.963852 114.818184 217.090897 L 114.818184 182.909103 C 114.817535 181.036148 116.309525 179.503845 118.181816 179.454544 L 181.818176 179.454544 C 184.390915 179.445633 186.712677 177.909714 187.727264 175.545456 C 215.545441 111.909088 264.818176 98.090912 293.090912 95.818176 C 307.607056 94.651642 322.21637 95.817932 336.363647 99.272705 C 337.266144 99.603973 338.278259 99.277039 338.816498 98.480438 C 339.354736 97.683868 339.280426 96.622894 338.636353 95.909088 Z"/>
            </g>
        </g>
        <g id="x-logo-2">
            <g id="g1">
                <linearGradient id="linearGradient2" x1="73.038164" y1="275.106532" x2="392.394819" y2="275.106532" gradientUnits="userSpaceOnUse" gradientTransform="matrix(0.836072 -0.548619 0.548619 0.836072 -112.750057 172.734729)">
                    <stop offset="1e-05" stop-color="#d81c5c" stop-opacity="1"/>
                    <stop offset="1" stop-color="#ed4036" stop-opacity="1"/>
                </linearGradient>
                <path id="path2" fill="url(#linearGradient2)" stroke="none" d="M 61.741951 305.684631 C 96.066559 349.861969 140.634644 375.089233 209.336365 374.919891 C 291.034424 374.226563 365.494629 298.464233 365.024689 217.953613 C 364.633789 161.959198 332.889709 135.098236 297.569916 135.485229 C 269.739258 134.841766 244.126038 150.604095 232.159195 175.738815 C 231.736221 176.59549 231.798355 177.612076 232.322495 178.410858 C 232.846649 179.209641 233.754501 179.671265 234.708755 179.624222 L 281.679535 179.373764 C 283.570953 179.364639 285.114685 180.884659 285.134888 182.775986 L 285.400482 217.063736 C 285.409546 217.975494 285.046143 218.851501 284.394287 219.489075 C 283.742432 220.126663 282.858612 220.470612 281.947266 220.441345 L 218.425095 220.880478 C 215.865585 220.898087 213.554199 222.41478 212.519287 224.755783 C 185.088669 288.667664 135.773926 302.795807 107.450043 305.373413 C 92.939285 306.603302 78.325226 305.49585 64.165573 302.093262 C 63.201771 301.738312 62.120163 302.087341 61.545639 302.93869 C 60.971092 303.790039 61.052128 304.923676 61.741951 305.684631 Z"/>
            </g>
        </g>
    </g>
    <g transform="matrix(0.33,0,0,0.33,360,380)">
        <path d="M300 600.014C465.684 600.014 600 465.698 600 300.014C600 134.328 465.684 0.0136719 300 0.0136719C134.315 0.0136719 0 134.328 0 300.014C0 465.698 134.315 600.014 300 600.014Z" fill="url(#paint0_radial_7863_57676)" />
        <path d="M347.902 193.05H323.586V229.749H347.902V193.05Z" fill="#1682FE" />
        <path d="M278.116 125H253.8V161.699H278.116V125Z" fill="#1682FE" />
        <path d="M208.33 159.997H184.015V196.696H208.33V159.997Z" fill="#60D8A4" />
        <path d="M173.559 299.5H149V404.249H173.559V299.5Z" fill="#F4BB3B" />
        <path d="M173.559 194.751H149V299.5H173.559V194.751Z" fill="#60D8A4" />
        <path d="M382.673 228.047H358.357V264.746H382.673V228.047Z" fill="#1682FE" />
        <path d="M382.673 334.254H358.357V370.953H382.673V334.254Z" fill="#FF5A5A" />
        <path d="M347.902 369.251H323.586V405.95H347.902V369.251Z" fill="#FF5A5A" />
        <path d="M278.116 437.302H253.8V474H278.116V437.302Z" fill="#FF5A5A" />
        <path d="M208.33 402.304H184.015V439.003H208.33V402.304Z" fill="#F4BB3B" />
        <path d="M451 264.503V194.751H415.986V159.997H346.2V125H276.414V159.997H206.628V194.994H171.613V404.249H206.628V439.246H276.414V474.243H346.2V439.246H415.986V404.249H451V334.254H381.214V369.251H346.2V404.249H276.414V369.251H241.642V229.749H276.657V194.751H346.443V229.749H381.457V264.746H451V264.503Z" fill="#3A3A3A" />
    </g>
    <defs>
        <radialGradient id="paint0_radial_7863_57676" cx="0" cy="0" r="1" gradientUnits="userSpaceOnUse" gradientTransform="translate(196 143.514) rotate(54.1676) scale(497.082 497.082)">
            <stop offset="0.230743" stop-color="white" />
            <stop offset="1" stop-color="#DFDFDF" />
        </radialGradient>
    </defs>
</svg>