<svg fill="none" viewBox="0 0 600 600" xmlns="http://www.w3.org/2000/svg">
    <radialGradient id="a" cx="0" cy="0" gradientTransform="rotate(54.2 -42.3 263.4) scale(497.082)" gradientUnits="userSpaceOnUse" r="1">
        <stop offset="0" stop-color="#8c84fc"/>
        <stop offset="1" stop-color="#b6a6fc"/>
    </radialGradient>
    <circle cx="300" cy="300" r="300" fill="url(#a)" />
    <g transform="matrix(0.6,0,0,0.6,120,120)">
        <path fill="#5552fd" d="m99.7 150 .2.2.1.3v49q0 .4-.4.4-24.8.4-49.6-.2v-49.1q0-.6.6-.6h49.1Z M500 150h49.5a.5.5 0 0 1 .5.5V200h-50v-50Z M49.7 200c.2.2.3.4.3.7v198.7q0 .5.6.5l49.4-.1.3.4c-.2.3-.3.4-.3.7v48.9l-.3.2H50.5a.5.5 0 0 1-.5-.5v-49a.5.5-90 0 0-.5-.6L0 399.7V200.2l49.7-.2Z M550 200h49c.7 0 .5.1 1 .3v199.5l-50 .2V200Z M200 0h199.6c.2.6.4.6.4 1.4V50H199.7l.4-50ZM199.8 50l.2 49.4q0 .5-.5.5-24.7.4-49.5-.2V50.6q0-.6.6-.6h49.2Z M400 50h49.5a.5.5 0 0 1 .5.5V100h-50V50ZM149.8 100l.1 49q0 1 1 1h49v49.5a.5.5 0 0 0 .6.5h49a.5.5 0 0 1 .5.5v49a.5.5 0 0 1-.5.5h-49a.6.6 0 0 0-.5.6V450h-49.5q-.5 0-.5.5v48.9q0 .5.5.5l49.5-.1.3.4c-1.3 1.7-.3 43.9-.3 49.4a.4.4 0 0 0 .5.4h199q.5 0 .5-.5v-49q0-.5.5-.5H450v49.5a.5.5 0 0 1-.5.5h-49q-.5 0-.5.5l-.3 49.5H200.2l-.1-49.2a.8.8 0 0 0-.9-.8h-48.7a.5.5 0 0 1-.5-.5v-49a.5.5 0 0 0-.5-.5h-49a.6.6 0 0 1-.6-.6l-.2-49.4.3-.3q24.7.6 49.3.2.6 0 .6-.6V150.5q0-.5-.4-.5h-49l-.3-.1q0-.2-.2-.2v-49.1q0-.6.6-.6h49.2Z M450 100h49.5a.5.5 0 0 1 .5.5V150h-49.4q-.6 0-.6.5v298.8q0 .7.7.7h48.7q.6 0 .6-.7v-48.8q0-.5.5-.5H550v49.5a.5.5 0 0 1-.5.5h-49q-.5 0-.5.5v49a.5.5 90 0 1-.5.5H450v-49.4q0-.5-.5-.5l-49.5.1V250.4a.3.3 0 0 0-.3-.4h-49.2a.5.5 0 0 0-.5.5v49a.5.5 0 0 1-.5.5h-99q-.5 0-.5-.5v-49a.5.5 0 0 1 .5-.5h99a.5.5 0 0 0 .5-.5v-49q0-.5.5-.5h49a.5.5 0 0 0 .5-.5V150h49.3q.7 0 .7-.7V100Z"/>
        <path fill="#9695f8" d="m100 149.7.2.2.3.1h49q.5 0 .5.5V200h-49.6a.4.4 0 0 0-.4.4v199.3l-49.4.2q-.6 0-.6-.5V200.7c0-.3-.1-.5-.3-.7l.3-.3q24.8.6 49.6.2.4 0 .4-.5v-48.9l-.1-.3q-.2 0-.2-.2l.3-.3Z M500 150v50h-50v-49.5q0-.5.6-.5H500Z M500 200h50v200h-49.5q-.5 0-.5.5v48.8q0 .7-.6.7h-48.7q-.6 0-.6-.7v-49.1l49.2-.1a.7.7 0 0 0 .7-.7V200Z M150 399.5v49.8q0 .6-.7.6-24.6.4-49.3-.1v-48.9c0-.3.1-.4.3-.6l48.6-.3.7-.1.4-.4ZM200 450v49.8l-49.5.1q-.5 0-.5-.5v-48.9q0-.5.5-.5H200ZM450 500h-49.5q-.5 0-.5.5v49q0 .5-.5.5h-199a.4.4 0 0 1-.5-.4c0-5.5-1-47.7.3-49.4q.2.1.5-.1l.2-.1h198.5a.5.5 0 0 0 .5-.5v-49.3l49.5-.1q.5 0 .5.5V500Z M199.8 50H400v50H200.4a.4.4 0 0 0-.4.4V150h-49q-1 0-1-1l-.3-49 .3-.3q24.8.6 49.5.2.5 0 .5-.5l-.3-49.4Z M400 100h50v49.3q0 .7-.7.7H400v-50Z"/>
        <path fill="#fed955" d="M400 100v99.5a.5.5 0 0 1-.5.5h-49q-.5 0-.5.5v49a.5.5 0 0 1-.5.5h-99a.5.5 0 0 0-.5.5v49q0 .5.5.5h99a.5.5 0 0 0 .5-.5v-49a.5.5 0 0 1 .5-.5h49.2a.3.3 0 0 1 .3.3v249.2a.5.5 0 0 1-.5.5H200.8q-.3.3-.5.3l-.3-.6V250.6a.6.6 0 0 1 .6-.6h48.9a.5.5 0 0 0 .5-.5v-49a.5.5 0 0 0-.5-.5h-49a.5.5 0 0 1-.5-.5v-99.1a.4.4 0 0 1 .4-.4H400Z M150 200v199.5l-.4.4q-.3.2-.7.2l-48.6.1-.3-.4V200.3a.4.4 0 0 1 .4-.4H150Z M450 200h50v199.4a.7.7 0 0 1-.7.7h-49.2V200Z"/>
    </g>
</svg>