
          <svg viewBox="0 0 600 600" xmlns="http://www.w3.org/2000/svg" fill="none">
            <defs>
              <radialGradient id="stake_dao_gradient" cx="30%" cy="30%" r="70%">
                <stop stop-color="#144368"/>
                <stop stop-color="#0d2c45" offset="1"/>
              </radialGradient>
              
            </defs>
            <circle cx="300" cy="300" r="300" fill="url(#stake_dao_gradient)"/>
            <g transform="translate(0, 0) scale(1.25)"><path xmlns="http://www.w3.org/2000/svg" fill="rgb(239,240,236)" stroke="rgb(239,240,236)" stroke-width="0" opacity="0.996078431372549" d="M238.5 28L243.5 28L260.5 35L303.5 57L408.5 115L443.5 135L447 138.5L455 157.5L453.5 157L304.5 76L260.5 54L246.5 48L240.5 47L172.5 79L25.5 158L25 156.5L38.5 129L157.5 66Q196 45 238.5 28Z"/><path xmlns="http://www.w3.org/2000/svg" fill="rgb(239,240,236)" stroke="rgb(239,240,236)" stroke-width="0" opacity="0.996078431372549" d="M207.5 82L230.5 82L234 85.5L234 108.5L230.5 112L207.5 112L204 108.5L204 85.5L207.5 82Z"/><path xmlns="http://www.w3.org/2000/svg" fill="rgb(239,240,236)" stroke="rgb(239,240,236)" stroke-width="0" opacity="0.996078431372549" d="M249.5 82L272.5 82L276 85.5L276 108.5L272.5 112L249.5 112L246 108.5L246 85.5L249.5 82Z"/><path xmlns="http://www.w3.org/2000/svg" fill="rgb(239,240,236)" stroke="rgb(239,240,236)" stroke-width="0" opacity="0.996078431372549" d="M207.5 120L230.5 120L234 123.5L234 146.5L230.5 150L207.5 150L204 146.5L204 123.5L207.5 120Z"/><path xmlns="http://www.w3.org/2000/svg" fill="rgb(239,240,236)" stroke="rgb(239,240,236)" stroke-width="0" opacity="0.996078431372549" d="M249.5 120L272.5 120L276 123.5L276 146.5L272.5 150L249.5 150L246 146.5L246 123.5L249.5 120Z"/><path xmlns="http://www.w3.org/2000/svg" fill="rgb(239,240,236)" stroke="rgb(239,240,236)" stroke-width="0" opacity="0.996078431372549" d="M76 186L94 186L94 200L76 200L76 186Z"/><path xmlns="http://www.w3.org/2000/svg" fill="rgb(239,240,236)" stroke="rgb(239,240,236)" stroke-width="0" opacity="0.996078431372549" d="M107 187L169.5 187L177 194.5L177 233.5L170 241.5L177 248.5L177 264L161 264L161 256.5L145.5 241L123 241L123 264L107 264L107 187Z M123 203L123 225L161 225L161 203L123 203Z"/><path xmlns="http://www.w3.org/2000/svg" fill="rgb(239,240,236)" stroke="rgb(239,240,236)" stroke-width="0" opacity="0.996078431372549" d="M187 187L252.5 187L253 187.5L253 203L203.5 203L203 203.5L203 218L249 218L249 234L203.5 234L203 234.5L203 248L252.5 248L253 248.5L253 264L187 264L187 187Z"/><path xmlns="http://www.w3.org/2000/svg" fill="rgb(239,240,236)" stroke="rgb(239,240,236)" stroke-width="0" opacity="0.996078431372549" d="M262 187L327.5 187L328 187.5L328 203L278.5 203L278 203.5L278 216.5L279.5 218L325 218L325 232.5L323.5 234L278.5 234L278 234.5L278 248L327.5 248L328 248.5L328 264L262 264L262 187Z"/><path xmlns="http://www.w3.org/2000/svg" fill="rgb(239,240,236)" stroke="rgb(239,240,236)" stroke-width="0" opacity="0.996078431372549" d="M334 187L403.5 187L404 187.5L404 203L377 203L377 263.5L376.5 264L361 264L361 203L335.5 203L334 201.5L334 187Z"/><path xmlns="http://www.w3.org/2000/svg" fill="rgb(239,240,236)" stroke="rgb(239,240,236)" stroke-width="0" opacity="0.996078431372549" d="M76 208L93.5 208L94 208.5L94 264L76.5 264L76 263.5L76 208Z"/><path xmlns="http://www.w3.org/2000/svg" fill="rgb(239,240,236)" stroke="rgb(239,240,236)" stroke-width="0" opacity="0.996078431372549" d="M69 304L139 304L139 380L205 380L205 304L274 304L274 380L340 380L340 304L410 304L410 379.5L408.5 381L379 381L379 423.5Q348.5 448 306.5 461L268.5 469L221.5 470L188.5 465L161.5 457Q125.4 443.4 98 422L98 381L70.5 381L69 379.5L69 304Z"/></g>
          </svg>
        