<svg id="svg" version="1.1" xmlns="http://www.w3.org/2000/svg" style="display: block;" viewBox="0 0 1924 1833"><path d="M0 0 C634.92 0 1269.84 0 1924 0 C1924 604.89 1924 1209.78 1924 1833 C1289.08 1833 654.16 1833 0 1833 C0 1228.11 0 623.22 0 0 Z " transform="translate(0,0)" style="fill: #000000;"/><path d="M0 0 C9.65421155 4.45751299 17.8747939 12.27034457 26 19 C28.59944315 21.13081704 31.20502498 23.25402198 33.8125 25.375 C34.49731445 25.93219727 35.18212891 26.48939453 35.88769531 27.06347656 C40.20361547 30.56622288 44.55419062 34.01961878 48.9375 37.4375 C54.93991739 42.1185764 60.81343653 46.94545432 66.67456055 51.80175781 C71.14798615 55.49977612 75.66816111 59.12492066 80.25 62.6875 C85.40387985 66.69680739 90.41807038 70.8421616 95.38330078 75.08227539 C99.37340044 78.48602728 103.4343961 81.78398786 107.54296875 85.04296875 C112.06784881 88.64704651 116.52793103 92.3307709 121 96 C122.83310162 97.50028317 124.66643427 99.00028408 126.5 100.5 C127.87285156 101.62341797 127.87285156 101.62341797 129.2734375 102.76953125 C131.02817784 104.20499935 132.78335155 105.63993796 134.5390625 107.07421875 C137.36123066 109.38055255 140.18142931 111.68927237 143 114 C143.63744141 114.52255371 144.27488281 115.04510742 144.93164062 115.58349609 C152.82381497 122.05737201 160.69222462 128.55439345 168.46826172 135.16748047 C172.66328182 138.73028404 176.91914278 142.21325575 181.1875 145.6875 C184.8809391 148.7243277 188.52298486 151.81960955 192.16625977 154.91625977 C195.55954109 157.7954532 198.98267786 160.63204237 202.4375 163.4375 C207.86000153 167.85262824 213.16127455 172.40012477 218.4609375 176.9609375 C221.79165251 179.82597089 225.14238379 182.6665794 228.5 185.5 C234.77349064 190.7976355 241.00885643 196.13895177 247.23828125 201.48828125 C248.9804974 202.98326495 250.72432664 204.47634266 252.46875 205.96875 C275.06722679 225.30523007 275.06722679 225.30523007 283.25 232.75 C286.45740789 235.66295733 289.73897059 238.42220501 293.125 241.125 C298.72851799 245.65245123 303.94940933 250.54350093 309.16650391 255.50830078 C313.03083951 259.18190111 316.96675886 262.74066028 320.99291992 266.23583984 C324.42020012 269.24831116 327.74236394 272.37041156 331.0625 275.5 C331.79202881 276.18634521 332.52155762 276.87269043 333.27319336 277.57983398 C338.90039191 282.90039311 344.40736106 288.33096992 349.82641602 293.86328125 C352.66088049 296.74026876 355.53487174 299.49275283 358.61108398 302.11108398 C363.52916435 306.39396881 368.10030966 310.99314754 372.6875 315.625 C374.04041138 316.98359131 374.04041138 316.98359131 375.4206543 318.36962891 C378.76605444 321.72921306 382.10688392 325.09331262 385.4473877 328.45776367 C388.732918 331.76634351 392.02233791 335.07102481 395.3125 338.375 C396.16481201 339.23561035 397.01712402 340.0962207 397.89526367 340.98291016 C402.18241252 345.28744679 406.54108772 349.4137526 411.14819336 353.37304688 C414.10645138 355.97210178 416.86274969 358.75827392 419.625 361.5625 C420.51179443 362.45497437 420.51179443 362.45497437 421.41650391 363.36547852 C423.90591073 365.87099056 426.38921013 368.38252265 428.87304688 370.89355469 C430.70489754 372.74366619 432.53988307 374.59062912 434.375 376.4375 C434.9210791 376.99187744 435.4671582 377.54625488 436.02978516 378.11743164 C438.89998598 381.00538182 441.83460374 383.7578107 444.91796875 386.41796875 C449.11915003 390.05306546 453.03459922 393.92428207 456.9375 397.875 C458.02405884 398.96723877 458.02405884 398.96723877 459.13256836 400.08154297 C462.19542424 403.16056951 465.25222311 406.24558323 468.30957031 409.33007812 C470.55844117 411.59715458 472.81040238 413.86112966 475.0625 416.125 C475.73982178 416.81062012 476.41714355 417.49624023 477.11499023 418.20263672 C480.28236346 421.38600087 483.48444047 424.46303042 486.890625 427.390625 C491.72818265 431.56533433 496.19319593 436.08693817 500.6875 440.625 C502.04041138 441.98359131 502.04041138 441.98359131 503.4206543 443.36962891 C506.76605444 446.72921306 510.10688392 450.09331262 513.4473877 453.45776367 C516.732918 456.76634351 520.02233791 460.07102481 523.3125 463.375 C524.16481201 464.23561035 525.01712402 465.0962207 525.89526367 465.98291016 C529.41022573 469.51212817 532.91669657 472.98603727 536.71289062 476.21289062 C542.5341076 481.21913722 547.86038798 486.75081978 553.2686615 492.1934967 C555.31897573 494.25671313 557.37251866 496.31666812 559.42687988 498.37585449 C564.52571466 503.48797449 569.61906133 508.60555109 574.71258545 513.72296143 C579.02775217 518.05793946 583.34501626 522.39080842 587.6650238 526.72096252 C589.67659187 528.73895718 591.68509595 530.75996659 593.69348145 532.78112793 C594.94068646 534.03196937 596.18803429 535.28266844 597.43554688 536.53320312 C597.98331284 537.08613541 598.5310788 537.63906769 599.09544373 538.20875549 C601.8590365 540.97271618 604.67996674 543.61094122 607.6507864 546.15162754 C612.25621797 550.16723469 616.57422809 554.43505041 620.88734436 558.76036072 C621.74678679 559.61824316 622.60622923 560.4761256 623.49171537 561.36000448 C625.85626788 563.7212777 628.21858353 566.08474756 630.57993948 568.44921482 C633.13507586 571.00662528 635.69310238 573.56114223 638.25074768 576.11604309 C643.25263809 581.11349826 648.2518351 586.11363928 653.2500561 591.11476415 C657.31404222 595.18101313 661.37900879 599.24627956 665.44466972 603.31085396 C666.0243906 603.89042161 666.60411149 604.46998925 667.20139967 605.06711956 C668.37927505 606.2446752 669.55715266 607.4222286 670.73503249 608.59977979 C681.76725298 619.62915207 692.79641222 630.66158143 703.82451903 641.6950667 C713.27719264 651.15220774 722.73248495 660.60672394 732.18969727 670.05932617 C743.18502031 681.04929182 754.17871173 692.04088545 765.16982263 703.0350638 C766.34292835 704.20848805 767.51603614 705.38191022 768.68914604 706.55533028 C769.26626431 707.13260282 769.84338258 707.70987537 770.43798928 708.30464102 C774.49549393 712.36300732 778.55415415 716.42021573 782.6132679 720.47697258 C787.56321646 725.42411001 792.51136596 730.37303857 797.45725209 735.32423752 C799.97838283 737.84798756 802.50029016 740.3709478 805.02439117 742.89172745 C807.76553374 745.6293177 810.50276166 748.37080122 813.23963928 751.11265564 C814.42651772 752.296188 814.42651772 752.296188 815.63737351 753.5036301 C819.73255626 757.61323414 823.66782489 761.80051307 827.43638891 766.21256644 C830.17645393 769.34485695 833.14394684 772.24689828 836.10546875 775.16796875 C836.75195877 775.81067215 837.39844879 776.45337555 838.06452942 777.11555481 C840.10307158 779.14202101 842.1448537 781.16517132 844.1875 783.1875 C846.89225271 785.86555793 849.59360204 788.54698328 852.29296875 791.23046875 C852.90657761 791.83577927 853.52018646 792.44108978 854.15238953 793.06474304 C857.33338019 796.227546 860.27647435 799.42177101 863 803 C861.61370756 806.12324544 860.00488429 808.24190707 857.5859375 810.64453125 C856.90660156 811.32193359 856.22726562 811.99933594 855.52734375 812.69726562 C854.81707031 813.39529297 854.10679687 814.09332031 853.375 814.8125 C852.68792969 815.49892578 852.00085938 816.18535156 851.29296875 816.89257812 C847.24573947 820.90563755 843.08195039 824.72429574 838.76806641 828.44799805 C836.57679213 830.37149025 834.52982807 832.40771568 832.5 834.5 C829.77170593 837.26560408 827.01483166 839.91287031 824.0625 842.4375 C820.8896408 845.15619248 817.93661618 848.02751675 815 851 C811.45767801 854.58558699 807.82444339 857.94891662 803.99609375 861.22265625 C800.93333273 863.94977223 798.09776507 866.89404637 795.21875 869.8125 C792.59228878 872.40196881 789.83023542 874.78836964 787.03125 877.1875 C783.96025683 879.92777083 781.11213124 882.87946902 778.22265625 885.80859375 C775.5729856 888.42101068 772.78827197 890.83302621 769.96484375 893.25390625 C767.26621639 895.65209001 764.75685425 898.21611524 762.25 900.8125 C760.30182685 902.70655723 758.31285673 904.48950195 756.26171875 906.26953125 C752.00549682 909.96678577 747.90173672 913.80740708 743.8125 917.6875 C736.59019153 924.51220678 729.31955937 931.27986712 722 938 C720.96091147 938.95570086 719.921849 939.91143007 718.8828125 940.8671875 C713.47454046 945.83752893 708.03795156 950.7746351 702.5703125 955.6796875 C699.65571526 958.31079807 696.76462591 960.96654417 693.875 963.625 C690.00637105 967.18258341 686.09665736 970.68289695 682.125 974.125 C679.38176582 976.54550075 676.69115432 979.02200642 674 981.5 C670.09018405 985.10012756 666.14133532 988.64417605 662.125 992.125 C659.38176506 994.54550142 656.69118757 997.02204178 654 999.5 C650.04410817 1003.14167889 646.05438376 1006.734995 641.9921875 1010.2578125 C639.63979365 1012.31500399 637.31965034 1014.40596915 635 1016.5 C631.38323655 1019.76390848 627.73610392 1022.98790949 624.0625 1026.1875 C621.69035571 1028.27211164 619.34443935 1030.38428644 617 1032.5 C613.38323655 1035.76390848 609.73610392 1038.98790949 606.0625 1042.1875 C603.69035571 1044.27211164 601.34443935 1046.38428644 599 1048.5 C593.66437363 1053.31014801 588.28413119 1058.05980237 582.8125 1062.71484375 C575.97278765 1068.53879498 569.25478985 1074.45905144 562.65625 1080.5546875 C558.12489323 1084.72620123 553.47169491 1088.74679494 548.78515625 1092.7421875 C542.24046748 1098.32537706 535.77825765 1103.96677348 529.43359375 1109.77734375 C523.29306255 1115.38562987 516.9519358 1120.76446747 510.63232422 1126.16870117 C506.81490967 1129.43549791 503.0153891 1132.72186936 499.22631836 1136.02148438 C493.46895116 1141.03338306 487.66438065 1145.96239942 481.73046875 1150.765625 C479.23413225 1152.8084068 476.7735851 1154.88526564 474.32104492 1156.97998047 C467.59816944 1162.72120159 460.71537671 1168.22255091 453.73535156 1173.64697266 C452.06531597 1174.94907413 450.402384 1176.25960394 448.7421875 1177.57421875 C428.38494552 1193.68644932 407.67046646 1209.25861683 386.125 1223.75 C385.0836792 1224.45447266 384.0423584 1225.15894531 382.96948242 1225.88476562 C381.99213135 1226.53638672 381.01478027 1227.18800781 380.0078125 1227.859375 C378.70287842 1228.73287598 378.70287842 1228.73287598 377.37158203 1229.62402344 C375.18987084 1230.88983817 373.46466403 1231.55628914 371 1232 C372.38863291 1222.83278964 379.2553934 1214.97772848 384.5 1207.5625 C385.10312012 1206.7063208 385.70624023 1205.8501416 386.32763672 1204.96801758 C396.02157538 1191.25902395 405.99228116 1177.82289907 416.56640625 1164.78076172 C418.97056545 1161.7943964 421.32708482 1158.77096836 423.6875 1155.75 C428.37492015 1149.76361609 433.16436771 1143.86746703 438 1138 C439.39639307 1136.29212417 440.79221168 1134.58377851 442.1875 1132.875 C443.79099204 1130.9161092 445.39504239 1128.95768918 447 1127 C447.52255371 1126.36255859 448.04510742 1125.72511719 448.58349609 1125.06835938 C455.0580168 1117.17539897 461.5549961 1109.30556989 468.16967773 1101.52954102 C470.96538136 1098.23838317 473.71500629 1094.91438742 476.4375 1091.5625 C482.33822109 1084.31784243 488.46151221 1077.26509997 494.56152344 1070.18847656 C496.10460467 1068.39741743 497.64652886 1066.60537486 499.1875 1064.8125 C499.93797607 1063.93936157 499.93797607 1063.93936157 500.70361328 1063.04858398 C503.75151122 1059.4906972 506.73820676 1055.89053384 509.6875 1052.25 C513.23862066 1047.87348373 516.95797398 1043.6916854 520.75390625 1039.52734375 C523.06187598 1036.93037607 525.25555863 1034.26595987 527.4375 1031.5625 C531.30058217 1026.78571491 535.37911435 1022.26053118 539.5390625 1017.7421875 C541.91039895 1015.09984117 544.15252997 1012.39305833 546.375 1009.625 C550.24218863 1004.8285929 554.34980716 1000.3295854 558.55810547 995.83642578 C561.67539336 992.48918215 564.63566482 989.07004094 567.5 985.5 C571.32122972 980.73730789 575.39196832 976.28401882 579.56298828 971.83154297 C582.63993614 968.52804738 585.5566507 965.15579447 588.375 961.625 C592.60978848 956.34306383 597.19871525 951.46123122 601.84716797 946.54736328 C605.21456839 942.9691027 608.43367257 939.3443508 611.5 935.5 C616.27600677 929.51657579 621.52279415 924.01224279 626.76953125 918.4453125 C629.71032579 915.32224078 632.56399177 912.13727908 635.36328125 908.88671875 C637.37873772 906.56341213 639.43848462 904.28251535 641.5 902 C644.18983431 899.01937279 646.86310364 896.02754767 649.5 893 C654.37143203 887.41020011 659.3589515 881.92465102 664.328125 876.421875 C668.31704577 871.99878599 672.27567907 867.55384995 676.1875 863.0625 C679.0326929 859.8248667 681.92853836 856.6331371 684.81640625 853.43359375 C686.70848685 851.32488854 688.57905758 849.20080199 690.4375 847.0625 C694.08937053 842.86835635 697.84266184 838.76905708 701.58984375 834.66015625 C704.1681692 831.81438699 706.69974997 828.93282391 709.21484375 826.03125 C711.31936703 823.63660644 713.47401891 821.29046779 715.625 818.9375 C722.0690782 812.63240568 722.0690782 812.63240568 724.97485352 804.68505859 C723.60716179 800.91799784 721.0966126 798.58274107 718.27734375 795.8515625 C717.69843887 795.27594574 717.119534 794.70032898 716.52308655 794.10726929 C714.67039222 792.27029592 712.80402617 790.44790561 710.9375 788.625 C709.70812165 787.40712025 708.47959675 786.18837836 707.25195312 784.96875 C706.05284372 783.78308467 704.85299606 782.59816541 703.65234375 781.4140625 C703.10617905 780.87528473 702.56001434 780.33650696 701.99729919 779.78140259 C699.29453771 777.14327451 696.55063532 774.60554285 693.66531372 772.16828918 C687.13658196 766.4685547 681.10421103 760.24353805 674.98413086 754.11352539 C673.5758138 752.70656512 672.16728448 751.29981729 670.75856018 749.89326477 C666.95056408 746.08981003 663.14571697 742.28321992 659.34158015 738.47590566 C655.35052357 734.48230841 651.35701754 730.49116173 647.36390686 726.49961853 C640.65999451 719.7975229 633.95818742 713.09332753 627.25756836 706.38793945 C619.52276052 698.64768996 611.78435694 690.91104939 604.04407591 683.17627341 C597.38553838 676.52228118 590.72896076 669.866333 584.07400233 663.20876116 C580.10496775 659.23817161 576.13527027 655.26825115 572.16380119 651.30009651 C568.42933717 647.5685318 564.69734829 643.83450886 560.96721458 640.09861565 C559.6019558 638.7320403 558.23585591 637.36630464 556.86883163 636.00149536 C544.60814716 623.75883908 544.60814716 623.75883908 539.31275272 617.53748226 C537.66162249 615.60369579 535.90915805 613.79534115 534.10351562 612.00585938 C533.42591187 611.33155884 532.74830811 610.6572583 532.0501709 609.96252441 C531.342677 609.26332886 530.63518311 608.5641333 529.90625 607.84375 C529.15589478 607.0971814 528.40553955 606.35061279 527.63244629 605.5814209 C525.2574008 603.21847975 522.87913183 600.8588263 520.5 598.5 C517.36160783 595.38839354 514.22667255 592.27336245 511.09375 589.15625 C510.3862561 588.45705444 509.67876221 587.75785889 508.9498291 587.03747559 C504.99295684 583.09989251 501.24516328 579.05240163 497.60021973 574.82507324 C495.41956415 572.3380047 493.1045664 570.00956471 490.75 567.6875 C490.28819336 567.22947998 489.82638672 566.77145996 489.35058594 566.29956055 C487.90287278 564.86383825 486.45191143 563.43147568 485 562 C479.38192414 556.46099894 473.83516546 550.92538093 468.703125 544.92578125 C465.47849771 541.27958572 461.97130106 537.90920265 458.5 534.5 C453.70072774 529.78658234 449.08486349 525.01956419 444.69726562 519.91992188 C441.94095937 516.80202883 438.9724772 513.9099074 436 511 C431.74424556 506.79323266 427.63598044 502.55950092 423.76953125 497.98828125 C421.00138165 494.87793214 418.01106059 491.99073015 415.04833984 489.06787109 C411.79950089 485.84585434 408.7753355 482.50632868 405.80859375 479.02734375 C402.82716225 475.68530714 399.59906354 472.5918241 396.4140625 469.4453125 C393.71248706 466.70876521 391.20921265 463.85020634 388.7109375 460.9296875 C386.25548723 458.16029838 383.60903661 455.59964876 380.97265625 453.00390625 C378.42662171 450.41753849 376.07978443 447.6846472 373.71484375 444.93359375 C371.4995262 442.43568444 369.1310183 440.11975011 366.75 437.78125 C364.29365151 435.28103815 362.03690632 432.62319484 359.75 429.96875 C357.55043299 427.49423711 355.20701229 425.19366457 352.84472656 422.87597656 C351.06115551 421.06219149 349.39302694 419.1936727 347.734375 417.265625 C344.16948899 413.16562925 340.48207846 409.19755077 336.75 405.25 C331.35141264 399.51587336 325.99428807 393.74931694 320.68359375 387.93359375 C317.75899823 384.73654683 314.81784098 381.55523418 311.875 378.375 C307.65874807 373.81560374 303.48816306 369.21867472 299.34375 364.59375 C296.5853156 361.5410826 293.79494486 358.51920623 291 355.5 C285.95045512 350.04375904 280.9598326 344.53802802 276 339 C274.50043381 337.332943 273.00042947 335.66628005 271.5 334 C253.5 314 253.5 314 251.2578125 311.5078125 C249.73291756 309.81407106 248.20684598 308.12138831 246.6796875 306.4296875 C241.13885259 300.28781288 235.64535063 294.11298251 230.28515625 287.8125 C225.38425634 282.05735158 220.45818358 276.35092834 215.3125 270.8125 C211.10970691 266.28801899 207.18310786 261.59186263 203.3125 256.78125 C200.80028744 253.75980516 198.17595912 250.87561617 195.5 248 C191.19000895 243.36754339 187.14938604 238.57877484 183.1796875 233.6484375 C181.02242601 231.02724881 178.78689 228.50845719 176.5 226 C172.67829137 221.80270966 169.08525811 217.46289769 165.515625 213.05078125 C162.57074948 209.47943376 159.54279913 205.9878836 156.5 202.5 C152.00599436 197.3457376 147.61562043 192.12811936 143.3125 186.8125 C140.57011898 183.47717174 137.75802253 180.20673207 134.9375 176.9375 C130.93953367 172.29774669 127.0369656 167.60615628 123.23828125 162.80078125 C120.30191132 159.12647542 117.30724657 155.50177715 114.3125 151.875 C105.15073107 140.7688578 96.02521722 129.63987761 87.16552734 118.29052734 C83.6459809 113.7926922 80.05101486 109.36004214 76.4375 104.9375 C71.73835811 99.17956065 67.1476756 93.35927059 62.640625 87.44921875 C60.14565866 84.17912654 57.61351238 80.93887031 55.07983398 77.69873047 C48.82426226 69.69498612 42.68483198 61.61334994 36.61328125 53.46923828 C32.42012207 47.8569731 28.14171232 42.32022678 23.8125 36.8125 C17.23149935 28.4225127 11.03217124 19.79131326 5 11 C4.60554687 10.43458496 4.21109375 9.86916992 3.8046875 9.28662109 C1.66599145 6.17500929 0.44502568 3.78271827 0 0 Z " transform="translate(0,106)" style="fill: #00A0B8;"/><path d="M0 0 C9.17080495 4.45502396 16.20123448 13.04462346 23.32739258 20.19702148 C25.058947 21.933936 26.79578359 23.66543889 28.53320312 25.39648438 C33.59042356 30.45098504 38.53563627 35.51648878 43.17749023 40.95922852 C47.39329105 45.67990889 51.9957579 50.05614033 56.5 54.5 C62.31126888 60.23336486 68.06957959 65.94218499 73.37695312 72.15429688 C76.25644625 75.42881072 79.38802392 78.44856665 82.5 81.5 C86.91085229 85.86372895 91.19763958 90.23440974 95.19921875 94.98046875 C98.18072479 98.3241534 101.40553982 101.42510375 104.59179688 104.57226562 C107.99151605 107.94632654 111.18793625 111.42523895 114.29296875 115.07421875 C116.98856326 118.11524413 119.91271052 120.92067377 122.8046875 123.7734375 C125.44006743 126.44633174 127.87766489 129.25368303 130.3203125 132.1015625 C132.49286935 134.55705699 134.81843603 136.83128437 137.15771484 139.12646484 C138.930399 140.92921838 140.5869598 142.78590002 142.234375 144.703125 C145.963721 148.99226712 149.83770991 153.12806338 153.75 157.25 C160.23261102 164.10889065 166.64160097 171.02596173 173 178 C173.93314024 179.01734324 174.86674345 180.03426201 175.80078125 181.05078125 C180.79170577 186.48266408 185.75370991 191.93872323 190.6796875 197.4296875 C193.31079832 200.344285 195.96656359 203.23535594 198.625 206.125 C202.20334141 210.01668343 205.72831613 213.94681069 209.19140625 217.94140625 C211.4301125 220.4895665 213.71410212 222.99410593 216 225.5 C219.45643771 229.29009082 222.86843854 233.11056033 226.23046875 236.984375 C228.25114956 239.28607764 230.31312618 241.54764379 232.375 243.8125 C235.46636801 247.23229328 238.42459032 250.71958524 241.3125 254.3125 C245.20191158 259.1250529 249.3274325 263.6459852 253.5534668 268.15893555 C257.49790439 272.39494858 261.16480701 276.80634808 264.7890625 281.3203125 C267.1093495 284.13253315 269.53071134 286.81797263 272 289.5 C276.01851651 293.87036819 279.79787076 298.37474475 283.52734375 302.9921875 C286.41680589 306.50701506 289.38688094 309.9440512 292.375 313.375 C300.63249199 322.86156435 308.75902459 332.44125622 316.6953125 342.19921875 C319.22033245 345.26775994 321.79492333 348.29033154 324.375 351.3125 C328.67933672 356.36228051 332.80347505 361.52996034 336.87451172 366.76879883 C339.99106333 370.76212259 343.20533349 374.65271371 346.5 378.5 C350.70978471 383.4198599 354.75427422 388.44380492 358.72998047 393.55419922 C362.2972822 398.13171029 365.94921487 402.6343279 369.625 407.125 C374.02726662 412.51737814 378.30431795 417.97314404 382.4453125 423.5703125 C385.13106041 427.1948544 387.87602783 430.77348675 390.6171875 434.35620117 C398.31471065 444.41835259 405.89144048 454.56059794 413.37158203 464.78515625 C414.98523472 466.97991745 416.6132137 469.16326682 418.24609375 471.34375 C418.75422607 472.0258252 419.2623584 472.70790039 419.78588867 473.41064453 C420.72842109 474.67521278 421.67489712 475.93685615 422.6262207 477.19482422 C424.96133403 480.34107269 426.74599254 483.27977786 428 487 C422.08561846 487.49038842 419.42673883 486.45742802 414.75 482.875 C414.15993164 482.43196533 413.56986328 481.98893066 412.96191406 481.5324707 C411.66377449 480.55719746 410.37068302 479.57517807 409.08203125 478.58740234 C406.13169004 476.33797475 403.14030591 474.14593315 400.14990234 471.95019531 C397.71338962 470.16061018 395.28246519 468.36360176 392.8515625 466.56640625 C389.02924079 463.7479958 385.18243425 460.96620555 381.32226562 458.19995117 C366.12559446 447.30731499 351.30842205 435.90823605 336.65039062 424.30322266 C334.91150198 422.93011799 333.16738309 421.56389727 331.421875 420.19921875 C325.21766666 415.34691972 319.05851615 410.45081418 312.9765625 405.4453125 C309.32938479 402.44907464 305.66506461 399.47430964 302 396.5 C296.51302484 392.04492292 291.03264361 387.58208493 285.56640625 383.1015625 C283.82654795 381.67683835 282.08427984 380.25505291 280.33984375 378.8359375 C274.78509369 374.31221299 269.29247584 369.72329875 263.83422852 365.08422852 C260.4408462 362.20479732 257.01750083 359.36810273 253.5625 356.5625 C248.69791376 352.60427044 243.93937822 348.53350939 239.18945312 344.43945312 C235.68783649 341.42768013 232.15222407 338.46948309 228.5625 335.5625 C222.87451891 330.94205788 217.35435149 326.13930778 211.828125 321.328125 C208.21265671 318.18058385 204.57915822 315.05467748 200.9375 311.9375 C200.36338379 311.44588379 199.78926758 310.95426758 199.19775391 310.44775391 C197.46546992 308.96481751 195.7328057 307.48232673 194 306 C186.18347943 299.31336608 178.38325815 292.60914524 170.61669922 285.86450195 C166.32413626 282.13933392 162.01021954 278.44009765 157.6875 274.75 C153.67652499 271.32559051 149.71344895 267.86273272 145.8125 264.3125 C142.47772886 261.28287132 139.06712361 258.39391908 135.5625 255.5625 C130.78715598 251.70058325 126.26332315 247.62325776 121.74609375 243.46484375 C119.08124834 241.07292703 116.35168175 238.80745116 113.5625 236.5625 C109.02683557 232.90428985 104.7429883 229.05257035 100.48071289 225.08618164 C97.24806025 222.09573 93.93303234 219.26220993 90.5 216.5 C85.98222187 212.86500611 81.72181484 209.0328971 77.48046875 205.0859375 C74.24788253 202.09558642 70.93294134 199.26213671 67.5 196.5 C62.98222187 192.86500611 58.72181484 189.0328971 54.48046875 185.0859375 C51.24788253 182.09558642 47.93294134 179.26213671 44.5 176.5 C40.52368693 173.30066764 36.73347288 169.97400373 33 166.5 C27.52820643 161.41244161 21.86686527 156.63173574 16 152 C15.28328125 151.41476562 14.5665625 150.82953125 13.828125 150.2265625 C12.04622171 148.72786498 12.04622171 148.72786498 9.75 149.375 C3.31142272 153.17961385 -1.79848293 158.74875063 -7.01171875 164.04296875 C-8.88551042 165.88730986 -10.81313471 167.60632066 -12.8125 169.3125 C-16.20195605 172.22250451 -19.36451453 175.32159942 -22.5 178.5 C-26.16846498 182.21846961 -29.9314922 185.73668187 -33.90625 189.125 C-36.53985556 191.48345274 -39.01826218 193.9844568 -41.5 196.5 C-44.55337951 199.59491502 -47.62323685 202.61934277 -50.9375 205.4375 C-54.47679074 208.45352804 -57.73494745 211.69447578 -61 215 C-64.85121937 218.89895683 -68.76421729 222.60824297 -72.94140625 226.16015625 C-76.07153162 228.95766867 -78.98685658 231.96624506 -81.93383789 234.95336914 C-85.13385771 238.17998653 -88.45072272 241.17930461 -91.90625 244.125 C-95.04443273 246.93531289 -97.9720669 249.95118637 -100.92919922 252.94873047 C-104.17364737 256.22020631 -107.53617507 259.26963506 -111.0390625 262.2578125 C-114.09229171 264.97044244 -116.9140315 267.90600453 -119.78125 270.8125 C-122.40771122 273.40196881 -125.16976458 275.78836964 -127.96875 278.1875 C-131.03974317 280.92777083 -133.88786876 283.87946902 -136.77734375 286.80859375 C-139.4270144 289.42101068 -142.21172803 291.83302621 -145.03515625 294.25390625 C-147.73378361 296.65209001 -150.24314575 299.21611524 -152.75 301.8125 C-154.69817315 303.70655723 -156.68714327 305.48950195 -158.73828125 307.26953125 C-162.99450248 310.96678516 -167.09827587 314.80739472 -171.1875 318.6875 C-177.89880842 325.02970111 -184.6505677 331.32383634 -191.44824219 337.57324219 C-194.09274568 340.00472086 -196.7343409 342.43934734 -199.375 344.875 C-199.90569092 345.36444092 -200.43638184 345.85388184 -200.9831543 346.3581543 C-205.19128226 350.24359819 -209.3786678 354.15092531 -213.5625 358.0625 C-219.02745856 363.17110874 -224.52199183 368.24500725 -230.04296875 373.29296875 C-233.18333159 376.16490659 -236.31138814 379.05006534 -239.4375 381.9375 C-239.97777832 382.43652832 -240.51805664 382.93555664 -241.07470703 383.44970703 C-242.16948306 384.46104672 -243.2642095 385.47244008 -244.35888672 386.48388672 C-247.07177586 388.99014104 -249.78594859 391.49500446 -252.5 394 C-253.58333957 394.99999324 -254.66667291 395.99999324 -255.75 397 C-257.91666667 399 -260.08333333 401 -262.25 403 C-262.78633057 403.49508057 -263.32266113 403.99016113 -263.87524414 404.50024414 C-264.95773871 405.49945738 -266.04025821 406.49864362 -267.12280273 407.49780273 C-269.84417508 410.00961835 -272.56510195 412.52191333 -275.28515625 415.03515625 C-281.00632222 420.32042386 -286.73604232 425.5960005 -292.48071289 430.85571289 C-296.16227511 434.2280118 -299.8330747 437.61179586 -303.5 441 C-308.14988581 445.29645031 -312.81103067 449.58028402 -317.48046875 453.85546875 C-321.16209057 457.22787299 -324.83296954 460.61174008 -328.5 464 C-334.15582079 469.22534952 -339.82793199 474.43261672 -345.50732422 479.63232422 C-347.02814876 481.02579152 -348.54747324 482.42087751 -350.06640625 483.81640625 C-354.67073948 488.04523476 -359.28276595 492.26403086 -363.9375 496.4375 C-368.90238091 500.89397711 -373.80134952 505.41948062 -378.69921875 509.94921875 C-386.23404146 516.91721378 -393.80842392 523.83919208 -401.4453125 530.6953125 C-406.32594032 535.09832536 -411.15992041 539.55252509 -416 544 C-422.44825678 549.92520426 -428.91104123 555.83177011 -435.4296875 561.6796875 C-438.34428447 564.31079783 -441.23539224 566.96652475 -444.125 569.625 C-447.36213091 572.6022264 -450.61137856 575.55952966 -453.9375 578.4375 C-457.5295869 581.54964209 -461.01550137 584.7687396 -464.5 588 C-468.60586307 591.80712755 -472.74128024 595.5631327 -476.9765625 599.2265625 C-479.51501171 601.45138092 -482.00641776 603.72503319 -484.5 606 C-488.28662998 609.45328153 -492.1047632 612.86099051 -495.97265625 616.22265625 C-498.33489173 618.29359487 -500.66795853 620.39512848 -503 622.5 C-506.62023723 625.76704335 -510.26983565 628.99520776 -513.94921875 632.1953125 C-516.26088797 634.22958141 -518.5353143 636.3022231 -520.8125 638.375 C-524.23229328 641.46636801 -527.71958524 644.42459032 -531.3125 647.3125 C-536.12665588 651.20320708 -540.64924334 655.33000466 -545.16333008 659.55786133 C-549.35293609 663.45968389 -553.72154714 667.07310178 -558.1875 670.65625 C-561.39849934 673.33208278 -564.45027636 676.14359707 -567.5 679 C-572.26088994 683.45874444 -577.1646782 687.6379783 -582.25390625 691.72265625 C-585.26319147 694.21826547 -588.13937022 696.83766805 -591 699.5 C-595.60998943 703.78960407 -600.37783516 707.80411122 -605.28515625 711.75390625 C-608.10673495 714.0883059 -610.80590712 716.51990598 -613.5 719 C-617.94727112 723.09351091 -622.54717463 726.92442499 -627.25 730.71875 C-630.08099578 733.06718968 -632.79383598 735.50909902 -635.5 738 C-639.87036819 742.01851651 -644.37474475 745.79787076 -648.9921875 749.52734375 C-652.50701633 752.41680693 -655.94402254 755.38691229 -659.375 758.375 C-668.63724922 766.43586962 -677.94120432 774.42631593 -687.5625 782.05859375 C-690.10112942 784.08054699 -692.6153333 786.12972269 -695.125 788.1875 C-697.08327567 789.79173713 -699.0415804 791.39593859 -701 793 C-701.90975586 793.74540039 -701.90975586 793.74540039 -702.83789062 794.50585938 C-711.77980533 801.82521328 -720.80734487 808.99881849 -730 816 C-732.00066539 817.54080307 -734.00064653 819.08249495 -736 820.625 C-737.66334139 821.9030726 -739.32744738 823.18014443 -740.99169922 824.45703125 C-742.47101756 825.59358509 -743.9490131 826.73186118 -745.42626953 827.87109375 C-765.82748192 843.59742134 -765.82748192 843.59742134 -776 850 C-777.485 848.515 -777.485 848.515 -779 847 C-773.8168234 839.32253023 -768.19371225 832.05631602 -762.43505859 824.81005859 C-760.58621844 822.47809179 -758.75155328 820.13519693 -756.91699219 817.79199219 C-752.14370061 811.69718369 -747.32291279 805.64191055 -742.47851562 799.60351562 C-739.14533403 795.44456517 -735.84535671 791.26123912 -732.5625 787.0625 C-726.47892412 779.2905162 -720.24572518 771.64187676 -714 764 C-713.17242188 762.98679687 -712.34484375 761.97359375 -711.4921875 760.9296875 C-710.0285373 759.13964841 -708.56374475 757.3505426 -707.09765625 755.5625 C-705.68482406 753.83658209 -704.27604291 752.10734098 -702.87109375 750.375 C-698.1516251 744.5664232 -693.32717264 738.86110538 -688.44213867 733.19213867 C-685.41080704 729.66739047 -682.43029214 726.10978017 -679.5 722.5 C-674.62697689 716.50310849 -669.59187859 710.65162831 -664.54833984 704.79833984 C-662.02707065 701.8699783 -659.51387757 698.93470651 -657 696 C-656.00004023 694.83329885 -655.00004019 693.66663221 -654 692.5 C-653.505 691.9225 -653.01 691.345 -652.5 690.75 C-651 689 -649.5 687.25 -648 685.5 C-647.5047583 684.92217773 -647.0095166 684.34435547 -646.49926758 683.74902344 C-645.5018699 682.58547402 -644.50431197 681.42206196 -643.5065918 680.25878906 C-640.96542699 677.29554935 -638.42731801 674.3297803 -635.89453125 671.359375 C-630.67121648 665.2390109 -625.40343861 659.17401797 -620 653.2109375 C-616.01910066 648.81017768 -612.13027993 644.3321373 -608.28515625 639.8125 C-602.46540141 632.97771593 -596.55122299 626.26300847 -590.45703125 619.671875 C-587.83469739 616.82024327 -585.28011681 613.91869929 -582.7421875 610.9921875 C-580.68499601 608.63979365 -578.59403085 606.31965034 -576.5 604 C-573.81016569 601.01937279 -571.13689636 598.02754767 -568.5 595 C-564.38917573 590.28297123 -560.1925774 585.64430291 -556 581 C-554.49971321 579.33359149 -552.99971128 577.66692647 -551.5 576 C-542.5 566 -542.5 566 -540.2421875 563.4921875 C-538.76707382 561.85260121 -537.29308348 560.21200345 -535.8203125 558.5703125 C-531.69902273 553.97969436 -527.55129287 549.41550032 -523.375 544.875 C-520.39781719 541.63782784 -517.44047144 538.38862271 -514.5625 535.0625 C-510.97995191 530.93011239 -507.26032872 526.9290721 -503.54321289 522.91821289 C-500.50258406 519.63497817 -497.48587504 516.33332232 -494.5 513 C-490.52469946 508.56379505 -486.48792332 504.18745602 -482.44140625 499.81640625 C-479.43589278 496.56616903 -476.45440391 493.2969435 -473.5 490 C-469.0626021 485.04997852 -464.55320912 480.16891213 -460.0390625 475.2890625 C-457.18333529 472.20125079 -454.33978427 469.10247073 -451.5 466 C-446.18529123 460.19579116 -440.8482194 454.41243211 -435.50732422 448.63232422 C-434.02589866 447.02804639 -432.54591008 445.42245634 -431.06640625 443.81640625 C-425.1381037 437.38297957 -419.18323733 430.97523699 -413.20922852 424.58422852 C-409.47845856 420.5908222 -405.7639654 416.58306799 -402.0625 412.5625 C-395.72623871 405.68364534 -389.32606127 398.86528839 -382.92333984 392.04833984 C-380.40286061 389.36405186 -377.88452184 386.67776188 -375.36645508 383.99121094 C-374.12562316 382.66744048 -372.88457616 381.3438716 -371.64331055 380.02050781 C-368.41481948 376.57825144 -365.18945855 373.13313395 -361.96875 369.68359375 C-361.30423828 368.97267578 -360.63972656 368.26175781 -359.95507812 367.52929688 C-358.69758168 366.18386361 -357.44099582 364.8375784 -356.18554688 363.49023438 C-352.72793899 359.79310505 -349.20783631 356.17721973 -345.59643555 352.62988281 C-343.92034179 350.91867285 -342.36202715 349.13854805 -340.8125 347.3125 C-337.70384631 343.69860237 -334.38884686 340.34713798 -331 337 C-327.73615796 333.77603385 -324.53169747 330.56482021 -321.5625 327.0625 C-317.91441827 322.76905738 -313.90792489 318.8527289 -309.88110352 314.91821289 C-306.99018699 312.07317693 -304.24141383 309.1676817 -301.59375 306.09375 C-297.30654835 301.13237046 -292.63915147 296.58859301 -287.9609375 292 C-284.7140534 288.7907246 -281.56808977 285.55863129 -278.59375 282.09375 C-273.72388542 276.43984827 -268.3419987 271.29710141 -263.02734375 266.06640625 C-259.45903988 262.53246807 -255.94609504 259.01107733 -252.6875 255.1875 C-247.12802377 248.71112989 -240.89316457 242.83938639 -234.82470703 236.84521484 C-233.1830727 235.22187975 -231.54461981 233.5953788 -229.90625 231.96875 C-229.4174939 231.48829224 -228.92873779 231.00783447 -228.4251709 230.51281738 C-225.72559955 227.83192504 -223.17351513 225.07551796 -220.69140625 222.19140625 C-216.68329477 217.56581932 -212.3800118 213.27211808 -208.03125 208.96875 C-207.1921106 208.13339722 -206.35297119 207.29804443 -205.48840332 206.43737793 C-201.9314548 202.89663871 -198.3685388 199.36192676 -194.80615234 195.82666016 C-192.19159836 193.2302794 -189.58011816 190.63083434 -186.96875 188.03125 C-186.17376099 187.24455933 -185.37877197 186.45786865 -184.55969238 185.64733887 C-183.80200562 184.89295532 -183.04431885 184.13857178 -182.26367188 183.36132812 C-181.27941223 182.38492371 -181.27941223 182.38492371 -180.27526855 181.38879395 C-178.40328684 179.42340899 -176.63419672 177.42499057 -174.8671875 175.3671875 C-170.42997894 170.26716721 -165.65287382 165.52851241 -160.86132812 160.76367188 C-159.85666376 159.76093102 -158.85223003 158.75795904 -157.8480072 157.754776 C-155.69966324 155.60957229 -153.549781 153.46592696 -151.39866638 151.32350159 C-147.99089539 147.9293536 -144.58703182 144.53130463 -141.18371582 141.13269043 C-133.34553859 133.30651066 -125.5023374 125.48537216 -117.65908051 117.66428375 C-110.46541684 110.49084821 -103.27284235 103.31632931 -96.0843215 96.13773966 C-92.70740172 92.76577431 -89.32806584 89.39625564 -85.94680023 86.02864838 C-83.83729073 83.9266462 -81.72989826 81.82253108 -79.62304878 79.71786308 C-78.19364329 78.2911943 -76.76171948 76.86705003 -75.32969666 75.44300842 C-70.89979115 71.01346346 -66.62577879 66.52455452 -62.5443325 61.77213478 C-60.28716782 59.18201896 -57.89577021 56.76851822 -55.46704102 54.33764648 C-54.96192993 53.83078308 -54.45681885 53.32391968 -53.93640137 52.80169678 C-52.294712 51.1556684 -50.64946584 49.51325228 -49.00390625 47.87109375 C-47.84465727 46.71116945 -46.68555663 45.55109688 -45.52659607 44.3908844 C-43.10846178 41.9712839 -40.6885492 39.55348029 -38.26733398 37.13696289 C-35.18323528 34.05856078 -32.10364906 30.97568977 -29.02539158 27.89144802 C-26.63612967 25.49855131 -24.24446486 23.10806762 -21.85209465 20.71827888 C-20.71640839 19.58325383 -19.58144814 18.44750181 -18.44726753 17.31097221 C-12.47591515 11.32996515 -6.48301279 5.43443631 0 0 Z " transform="translate(977,983)" style="fill: #00A6B8;"/><path d="M0 0 C0.66 0.66 1.32 1.32 2 2 C-0.53547888 7.25535621 -3.23006955 12.17134967 -6.5 17 C-6.93086914 17.64026123 -7.36173828 18.28052246 -7.80566406 18.94018555 C-16.19934309 31.28321355 -25.4982994 42.98267377 -34.6796875 54.7421875 C-37.55145483 58.4208706 -40.40724612 62.11136371 -43.25 65.8125 C-44.0440625 66.84632813 -44.838125 67.88015625 -45.65625 68.9453125 C-46.4296875 69.95335937 -47.203125 70.96140625 -48 72 C-55.95524708 82.36833869 -63.96289036 92.69499309 -72 103 C-72.49145508 103.63083496 -72.98291016 104.26166992 -73.48925781 104.91162109 C-79.29408589 112.35782838 -85.18987184 119.72249878 -91.16210938 127.03515625 C-94.68510498 131.35636319 -98.14169549 135.7226596 -101.5625 140.125 C-105.79714261 145.56501194 -110.21603661 150.81860002 -114.72851562 156.02954102 C-118.2395294 160.08929374 -121.61737553 164.23360804 -124.9453125 168.4453125 C-127.85134827 172.05852047 -130.85895582 175.58221737 -133.86352539 179.11352539 C-136.78017061 182.54590964 -139.65700688 186.0060174 -142.5 189.5 C-146.24852646 194.1053325 -150.07084246 198.64204444 -153.91625977 203.16625977 C-156.7954532 206.55954109 -159.63204237 209.98267786 -162.4375 213.4375 C-166.39572956 218.30208624 -170.46649061 223.06062178 -174.56054688 227.81054688 C-177.57231987 231.31216351 -180.53051691 234.84777593 -183.4375 238.4375 C-187.57764224 243.53941756 -191.87545383 248.49154918 -196.1940918 253.44189453 C-199.44731974 257.18017347 -202.63253025 260.95926379 -205.75 264.8125 C-209.27669369 269.16938253 -212.97502089 273.32675904 -216.75 277.46875 C-219.07862053 280.0884481 -221.29562947 282.7751531 -223.5 285.5 C-227.1126583 289.96564707 -230.88893545 294.23284615 -234.7578125 298.4765625 C-237.04515904 301.05082358 -239.21548271 303.69289489 -241.375 306.375 C-245.05636689 310.92860712 -248.92774473 315.23582516 -252.91357422 319.51904297 C-255.90412641 322.75176204 -258.73771685 326.06687666 -261.5 329.5 C-265.1356405 334.01858176 -268.96836402 338.27983329 -272.91625977 342.52172852 C-275.88715628 345.7329905 -278.69961077 349.02627815 -281.4375 352.4375 C-285.28174639 357.21701922 -289.37089045 361.69320344 -293.56054688 366.16601562 C-296.65765465 369.49137277 -299.59614376 372.88710807 -302.4375 376.4375 C-307.02312295 382.15073515 -311.99745542 387.45201937 -317.00390625 392.79296875 C-320.43086294 396.44986591 -323.74248987 400.19163743 -327 404 C-328.46738676 405.71186205 -329.93503623 407.42349842 -331.40283203 409.13500977 C-332.46141125 410.37109761 -333.51839823 411.60855095 -334.57373047 412.84741211 C-337.89059619 416.73602426 -341.27349753 420.54604484 -344.79296875 424.25390625 C-346.36876418 426.53345498 -346.73528001 428.24503687 -347 431 C-345.98697807 432.95998377 -345.98697807 432.95998377 -344.23242188 434.63867188 C-343.58007568 435.32823975 -342.92772949 436.01780762 -342.25561523 436.72827148 C-341.51126221 437.47794189 -340.76690918 438.2276123 -340 439 C-339.20601807 439.813479 -338.41203613 440.62695801 -337.59399414 441.46508789 C-335.33311331 443.75961469 -333.05720815 446.03763539 -330.76963806 448.30552673 C-329.24406023 449.81812332 -327.72181914 451.33401202 -326.20031738 452.85070801 C-322.96971047 456.06999112 -319.73516777 459.28530112 -316.5 462.5 C-312.74548873 466.2307565 -308.99269387 469.96320751 -305.24412537 473.69993591 C-303.75796311 475.17970556 -302.26878004 476.65638565 -300.77941895 478.13293457 C-296.25202947 482.64403061 -291.88216063 487.20113671 -287.72277832 492.05236816 C-284.40338957 495.80499677 -280.81029281 499.29042209 -277.25 502.8125 C-276.02458496 504.03223511 -276.02458496 504.03223511 -274.77441406 505.27661133 C-272.18537329 507.85353297 -269.59311263 510.42717625 -267 513 C-263.58037281 516.39287153 -260.16417851 519.78914657 -256.75 523.1875 C-255.97688477 523.95231689 -255.20376953 524.71713379 -254.40722656 525.50512695 C-250.31182358 529.58219098 -246.41455277 533.75227741 -242.64428711 538.13085938 C-240.10572587 541.01656462 -237.39409901 543.71106662 -234.65625 546.40625 C-234.08346313 546.97525024 -233.51067627 547.54425049 -232.92053223 548.13049316 C-231.11614749 549.92282982 -229.3085264 551.71184316 -227.5 553.5 C-214.03782399 566.81055054 -214.03782399 566.81055054 -208.77148438 573.00585938 C-204.73885559 577.54534558 -200.32270393 581.73813842 -196 586 C-190.40254818 591.51866731 -184.87871718 597.03427051 -179.765625 603.01171875 C-176.20219201 607.02452272 -172.32330384 610.7370959 -168.5 614.5 C-163.37969207 619.53941839 -158.40458376 624.60091753 -153.72460938 630.05273438 C-150.64601385 633.52879296 -147.31357479 636.74990366 -144 640 C-139.36127607 644.54985949 -134.92443506 649.17014285 -130.68359375 654.09375 C-128.0882582 657.03232019 -125.30294582 659.76130509 -122.5 662.5 C-118.44295803 666.50655128 -114.560008 670.5588933 -110.87109375 674.91015625 C-107.8591824 678.27419085 -104.61576911 681.40400774 -101.40429688 684.57617188 C-98.0492277 687.90598332 -94.90266971 691.3394031 -91.83984375 694.94140625 C-89.04370984 698.0699892 -86.03673816 700.98397609 -83.05102539 703.92944336 C-79.77962934 707.17380774 -76.73028962 710.53626336 -73.7421875 714.0390625 C-71.02955756 717.09229171 -68.09399547 719.9140315 -65.1875 722.78125 C-62.59803119 725.40771122 -60.21163036 728.16976458 -57.8125 730.96875 C-55.07222917 734.03974317 -52.12053098 736.88786876 -49.19140625 739.77734375 C-46.57898932 742.4270144 -44.16697379 745.21172803 -41.74609375 748.03515625 C-39.2764064 750.81424514 -36.62096678 753.38860496 -33.97265625 755.99609375 C-31.42662171 758.58246151 -29.07978443 761.3153528 -26.71484375 764.06640625 C-24.52850803 766.53163673 -22.19379642 768.81928637 -19.84277344 771.12597656 C-18.06866494 772.93017063 -16.41059622 774.78838669 -14.76171875 776.70703125 C-11.05284026 780.97248649 -7.20268209 785.08770732 -3.3125 789.1875 C2.01123146 794.82042259 7.30835219 800.4746562 12.5546875 806.1796875 C16.41031201 810.36967511 20.29642463 814.53043924 24.1875 818.6875 C28.71255874 823.52454771 33.18081453 828.40389687 37.59375 833.34375 C40.69220233 836.76411946 43.84517196 840.13168108 47 843.5 C51.63069553 848.44472415 56.21211132 853.42507623 60.7265625 858.4765625 C63.45837593 861.50878154 66.22714409 864.50535027 69 867.5 C73.27982958 872.12345083 77.51758751 876.78092494 81.72265625 881.47265625 C84.2980981 884.33082242 86.89689696 887.16706617 89.5 890 C94.3694781 895.30119633 99.19324024 900.6419273 104 906 C105.49971128 907.66692647 106.99971321 909.33359149 108.5 911 C135.5 941 135.5 941 137.7421875 943.4921875 C139.26708244 945.18592894 140.79315402 946.87861169 142.3203125 948.5703125 C146.31243726 952.9954813 150.27325892 957.44337135 154.1875 961.9375 C156.27211164 964.30964429 158.38428644 966.65556065 160.5 969 C163.76704335 972.62023723 166.99520776 976.26983565 170.1953125 979.94921875 C172.22958141 982.26088797 174.3022231 984.5353143 176.375 986.8125 C179.46636801 990.23229328 182.42459032 993.71958524 185.3125 997.3125 C189.20255931 1002.12585437 193.32871834 1006.6476145 197.55566406 1011.16113281 C201.47878593 1015.37393141 205.11896414 1019.76395352 208.72265625 1024.25390625 C211.21827478 1027.26320269 213.83784189 1030.13920076 216.5 1033 C220.7127971 1037.5325086 224.68029651 1042.20925191 228.5625 1047.02734375 C231.43720071 1050.53318869 234.39732001 1053.95661642 237.375 1057.375 C245.62834238 1066.85661838 253.74923543 1076.43242351 261.68359375 1086.18359375 C264.27787554 1089.33785542 266.91620617 1092.45190436 269.5625 1095.5625 C273.38149403 1100.05678004 277.12155463 1104.60007507 280.78515625 1109.22265625 C283.04777732 1112.05991124 285.33626061 1114.87457838 287.62988281 1117.68676758 C293.72579602 1125.16160253 299.73398374 1132.69788688 305.67041016 1140.29980469 C307.43100265 1142.5511389 309.19937494 1144.7962995 310.96777344 1147.04150391 C312.8120662 1149.38470665 314.65199111 1151.73132188 316.49169922 1154.078125 C317.53890684 1155.41247566 318.58750945 1156.74573224 319.63720703 1158.078125 C327.8949123 1168.56350126 335.89336995 1179.19485602 343.62255859 1190.07617188 C344.84074743 1191.77757706 346.08454 1193.46058654 347.33203125 1195.140625 C348.28142578 1196.43226563 348.28142578 1196.43226563 349.25 1197.75 C350.03117187 1198.79414063 350.03117187 1198.79414063 350.828125 1199.859375 C352.29174754 1202.53292551 352.63921306 1204.99344218 353 1208 C347.71421196 1206.35412588 343.67952307 1203.03002706 339.3125 1199.75 C338.05771851 1198.81607422 338.05771851 1198.81607422 336.77758789 1197.86328125 C328.84697236 1191.93674665 321.03166801 1185.86518042 313.24267578 1179.75439453 C310.97887706 1177.983476 308.7076026 1176.22262785 306.43359375 1174.46484375 C297.08352549 1167.23375132 287.85583842 1159.87161206 278.70556641 1152.38964844 C276.37881824 1150.49387824 274.03469693 1148.62036479 271.6875 1146.75 C267.3550597 1143.2941906 263.06169072 1139.79255129 258.77734375 1136.27734375 C256.95978656 1134.78699798 255.13957252 1133.29988506 253.31640625 1131.81640625 C247.76829932 1127.29900714 242.2827803 1122.71580621 236.83203125 1118.08203125 C233.4618766 1115.2217818 230.0599159 1112.40758766 226.625 1109.625 C221.5055232 1105.46076085 216.53049722 1101.14373063 211.55834961 1096.80615234 C207.82001389 1093.55281311 204.04082601 1090.3675424 200.1875 1087.25 C195.82773656 1083.72097435 191.66760006 1080.02030415 187.5234375 1076.2421875 C184.94917642 1073.95484096 182.30710511 1071.78451729 179.625 1069.625 C175.07139288 1065.94363311 170.76417484 1062.07225527 166.48095703 1058.08642578 C163.24823796 1055.09587359 159.93312334 1052.26228315 156.5 1049.5 C151.98061455 1045.86371286 147.71851914 1042.03037427 143.47607422 1038.08154297 C140.28675885 1035.13068108 137.01635132 1032.34007012 133.625 1029.625 C127.89972931 1025.01826989 122.57819937 1020.03187133 117.22265625 1015.0078125 C114.18205669 1012.1577443 111.07651576 1009.39511189 107.921875 1006.671875 C105.58894926 1004.64241927 103.29488755 1002.572353 101 1000.5 C98.01937279 997.81016569 95.02754767 995.13689636 92 992.5 C88.10209515 989.10505061 84.26652943 985.64334116 80.4296875 982.1796875 C78.3439382 980.30854906 76.24182372 978.46075169 74.125 976.625 C70.15747276 973.17148439 66.2915236 969.6099606 62.42236328 966.04736328 C59.64541318 963.49474237 56.85036687 960.97031795 54 958.5 C50.12027047 955.13542128 46.34142491 951.66411092 42.5625 948.1875 C39.39220211 945.27210044 36.20605243 942.37616922 33 939.5 C28.79315673 935.72462783 24.62325147 931.91019552 20.4609375 928.0859375 C17.32332914 925.20577393 14.16979059 922.34468386 11 919.5 C5.80938114 914.84005144 0.66887157 910.12641725 -4.46777344 905.40722656 C-6.97677114 903.10291446 -9.48852172 900.80160772 -12 898.5 C-13.00130883 897.58203861 -14.00261091 896.66406986 -15.00390625 895.74609375 C-16.99031882 893.92516169 -18.97734387 892.10490144 -20.96484375 890.28515625 C-27.78140292 884.04271754 -34.57904083 877.78011158 -41.36767578 871.50732422 C-42.97195361 870.02589866 -44.57754366 868.54591008 -46.18359375 867.06640625 C-52.61702043 861.1381037 -59.02476301 855.18323733 -65.41577148 849.20922852 C-69.40917758 845.47845876 -73.41690745 841.76393853 -77.4375 838.0625 C-83.64779864 832.34274022 -89.80558974 826.56783742 -95.9609375 820.7890625 C-99.80029251 817.18518303 -103.64877788 813.59118972 -107.5 810 C-113.98685537 803.94975169 -120.46115225 797.88623403 -126.9296875 791.81640625 C-129.72317034 789.19556958 -132.52048337 786.57889924 -135.3203125 783.96484375 C-136.0306665 783.300896 -136.74102051 782.63694824 -137.47290039 781.95288086 C-138.81753944 780.69621913 -140.16301323 779.44044968 -141.50952148 778.18579102 C-144.63479887 775.26296074 -147.71147168 772.30620697 -150.7265625 769.26953125 C-153.01194167 766.96843509 -155.32438495 764.77122615 -157.8125 762.6875 C-161.02333755 759.92381971 -164.02267165 757.01380404 -167 754 C-169.89591958 751.06881809 -172.80242571 748.23596826 -175.9375 745.5625 C-179.28925142 742.69827606 -182.40555739 739.63665155 -185.5 736.5 C-188.53284488 733.42595499 -191.57939378 730.42000781 -194.875 727.625 C-199.18629664 723.95241398 -203.12637923 719.92931549 -207.08154297 715.88134766 C-209.92666389 712.99035192 -212.83223017 710.24148974 -215.90625 707.59375 C-220.86762954 703.30654835 -225.41140699 698.63915147 -230 693.9609375 C-233.21950866 690.70370022 -236.46324901 687.54829194 -239.9375 684.5625 C-245.35165903 679.89913255 -250.28263712 674.76373426 -255.2890625 669.671875 C-258.71500013 666.21061843 -262.13996369 662.82061308 -265.84375 659.65625 C-271.90042455 654.45110791 -277.40446837 648.65118104 -283.00927734 642.97021484 C-284.49359897 641.4675623 -285.98111204 639.96811835 -287.46875 638.46875 C-288.33951172 637.58638672 -289.21027344 636.70402344 -290.10742188 635.79492188 C-292.29069261 633.63619759 -294.56738315 631.61637873 -296.890625 629.609375 C-300.86445594 626.16345206 -304.5884588 622.52413767 -308.28125 618.78125 C-308.93903442 618.11967896 -309.59681885 617.45810791 -310.27453613 616.77648926 C-313.05066558 613.98421856 -315.82071537 611.18594584 -318.59130859 608.38818359 C-320.6316708 606.32959102 -322.67514331 604.27412097 -324.71875 602.21875 C-325.33045044 601.59875122 -325.94215088 600.97875244 -326.5723877 600.33996582 C-329.51084527 597.38517352 -332.48762668 594.54680464 -335.65820312 591.84179688 C-341.02641206 587.20140406 -345.97610953 582.13503889 -350.97229004 577.10287476 C-352.78735566 575.27487821 -354.60567301 573.45017044 -356.42480469 571.6262207 C-360.93931916 567.09843857 -365.44833337 562.56519193 -369.95751953 558.03210449 C-373.77945616 554.19033661 -377.60350376 550.35069298 -381.43029785 546.51376343 C-383.20920255 544.72844455 -384.98503396 542.94010861 -386.76074219 541.15161133 C-393.15270682 534.69702954 -393.15270682 534.69702954 -399.88842773 528.60717773 C-406.46015993 522.9961123 -412.43442647 516.70874707 -418.53515625 510.59765625 C-419.94170304 509.19178434 -421.34839815 507.7860608 -422.75523376 506.38047791 C-425.69269764 503.44448232 -428.62836082 500.50670131 -431.56274414 497.56762695 C-435.3070206 493.81765377 -439.05576934 490.07218869 -442.80588627 486.32805729 C-445.7083344 483.42923828 -448.60837735 480.52802245 -451.50771904 477.62609673 C-452.88835895 476.24479405 -454.26973012 474.86422185 -455.65187263 473.48442268 C-468.41974862 460.73345127 -468.41974862 460.73345127 -473.704422 454.51573181 C-475.34040094 452.60175571 -477.08687137 450.82969637 -478.89453125 449.078125 C-479.53970703 448.44519531 -480.18488281 447.81226563 -480.84960938 447.16015625 C-482.17604537 445.86935585 -483.5042174 444.58033736 -484.83398438 443.29296875 C-485.47271484 442.66519531 -486.11144531 442.03742188 -486.76953125 441.390625 C-487.34292236 440.83407227 -487.91631348 440.27751953 -488.50708008 439.70410156 C-490.0803015 437.90833941 -491.030337 436.17247225 -492 434 C-487.37651925 428.68085663 -482.75587219 423.6482291 -477.36328125 419.109375 C-473.49753039 415.65895274 -469.89822742 411.9393239 -466.2746582 408.23730469 C-463.29938616 405.2183348 -460.27484124 402.32937986 -457.0625 399.5625 C-452.82969114 395.90874592 -448.91370627 391.99014584 -445 388 C-441.11716293 384.04132627 -437.23659338 380.14941662 -433.03125 376.53125 C-428.62796818 372.73857952 -424.57013076 368.64426794 -420.5 364.5 C-415.78658234 359.70072774 -411.01956419 355.08486349 -405.91992188 350.69726562 C-402.80202883 347.94095937 -399.9099074 344.9724772 -397 342 C-392.79323266 337.74424556 -388.55950092 333.63598044 -383.98828125 329.76953125 C-380.87947651 327.00275611 -377.99361177 324.01404421 -375.07226562 321.05273438 C-371.80587352 317.75908448 -368.42079478 314.68495522 -364.89453125 311.67578125 C-362.21538454 309.30597931 -359.73358347 306.75978288 -357.25 304.1875 C-355.30309774 302.29467836 -353.31553052 300.51310243 -351.265625 298.734375 C-346.98570902 295.01666815 -342.86134272 291.15223501 -338.75 287.25 C-331.89110935 280.76738898 -324.97403827 274.35839903 -318 268 C-316.98265676 267.06685976 -315.96573799 266.13325655 -314.94921875 265.19921875 C-307.86888356 258.69348043 -300.73665668 252.24771147 -293.578125 245.828125 C-288.98551805 241.70355443 -284.41826276 237.5537195 -279.875 233.375 C-275.98326682 229.79671143 -272.05319075 226.27168512 -268.05859375 222.80859375 C-265.5104335 220.5698875 -263.00589407 218.28589788 -260.5 216 C-256.71337002 212.54671847 -252.8952368 209.13900949 -249.02734375 205.77734375 C-246.66510827 203.70640513 -244.33204147 201.60487152 -242 199.5 C-238.37976277 196.23295665 -234.73016435 193.00479224 -231.05078125 189.8046875 C-228.73911203 187.77041859 -226.4646857 185.6977769 -224.1875 183.625 C-220.78916448 180.55253227 -217.32409477 177.61557378 -213.75 174.75 C-208.67737158 170.65177478 -203.94092006 166.26890849 -199.19677734 161.80224609 C-194.85741148 157.73862191 -190.35276795 153.95837434 -185.7109375 150.2421875 C-182.71095469 147.76093371 -179.8484797 145.15134044 -177 142.5 C-172.41245234 138.23076595 -167.6655672 134.24241039 -162.78125 130.3125 C-159.75979145 127.80027604 -156.87577314 125.17580369 -154 122.5 C-149.46264823 118.28275255 -144.78101211 114.31119073 -139.95703125 110.42578125 C-136.53678766 107.62000679 -133.20553296 104.72357474 -129.875 101.8125 C-121.72260247 94.70340904 -113.38092018 87.83696501 -105 81 C-104.31228516 80.43748535 -103.62457031 79.8749707 -102.91601562 79.29541016 C-94.25801162 72.21401799 -85.53316382 65.22712565 -76.71777344 58.34277344 C-73.80728372 56.06766067 -70.90405504 53.7833163 -68 51.5 C-66.83336721 50.58329022 -65.66670056 49.66662352 -64.5 48.75 C-63.9225 48.29625 -63.345 47.8425 -62.75 47.375 C-57.5 43.25 -57.5 43.25 -55.75048828 41.87548828 C-54.58205848 40.95736646 -53.41376452 40.03907174 -52.24560547 39.12060547 C-49.35699494 36.84977631 -46.46620452 34.58185054 -43.5703125 32.3203125 C-42.42167842 31.42212634 -41.27324182 30.52368757 -40.125 29.625 C-39.55265625 29.17713135 -38.9803125 28.7292627 -38.390625 28.26782227 C-34.56413324 25.26136895 -30.79022134 22.19657693 -27.03149414 19.10595703 C-21.20041977 14.31692179 -15.32029271 9.64887616 -9.1875 5.25 C-8.60677734 4.83161865 -8.02605469 4.4132373 -7.42773438 3.98217773 C-4.95515651 2.2366766 -2.89134872 0.96378291 0 0 Z " transform="translate(1571,475)" style="fill: #33ABBF;"/><path d="M0 0 C-0.35270861 5.40474081 -3.51327602 8.49739955 -6.875 12.4375 C-8.06878592 13.86889365 -9.26147608 15.30120179 -10.453125 16.734375 C-11.05189453 17.45044922 -11.65066406 18.16652344 -12.26757812 18.90429688 C-14.78464989 21.94918753 -17.20574051 25.06477729 -19.625 28.1875 C-23.65721051 33.36360002 -27.82638256 38.40180959 -32.08862305 43.38964844 C-34.76645101 46.52695699 -37.38154155 49.70030469 -39.9375 52.9375 C-43.67251891 57.652196 -47.57956349 62.20411224 -51.50756836 66.75756836 C-54.55683607 70.2983283 -57.5552621 73.87118506 -60.5 77.5 C-64.43146765 82.34311233 -68.47879398 87.07624181 -72.55200195 91.79980469 C-75.65439525 95.40565003 -78.6946578 99.05203792 -81.6875 102.75 C-85.23745321 107.12507747 -88.95563821 111.30549192 -92.75 115.46875 C-95.07862053 118.0884481 -97.29562947 120.7751531 -99.5 123.5 C-103.11149134 127.96420457 -106.88660694 132.23002114 -110.75390625 136.47265625 C-113.06187598 139.06962393 -115.25555863 141.73404013 -117.4375 144.4375 C-121.29825137 149.211403 -125.37437075 153.73388428 -129.53125 158.25 C-131.94378104 160.93737634 -134.2325621 163.68965444 -136.5 166.5 C-140.33951802 171.25883923 -144.39859679 175.76062975 -148.5390625 180.2578125 C-150.91039895 182.90015883 -153.15252997 185.60694167 -155.375 188.375 C-159.24283546 193.17220935 -163.35109495 197.67204207 -167.56030273 202.16577148 C-170.65750846 205.49119755 -173.59607067 208.88701675 -176.4375 212.4375 C-180.46575518 217.46002506 -184.79477046 222.12743667 -189.20507812 226.81054688 C-192.42769343 230.25126217 -195.495015 233.74980464 -198.4375 237.4375 C-203.2404638 243.43898526 -208.50523283 248.96923577 -213.7734375 254.55859375 C-216.69174676 257.65773486 -219.5196099 260.82075898 -222.296875 264.046875 C-224.49365905 266.56612276 -226.74689619 269.03102996 -229 271.5 C-231.84524228 274.61907011 -234.6719958 277.74755391 -237.4375 280.9375 C-240.86768576 284.88667367 -244.41003518 288.73022305 -247.95288086 292.57788086 C-250.50540453 295.3547637 -253.02975746 298.14972015 -255.5 301 C-258.86457872 304.87972953 -262.33588908 308.65857509 -265.8125 312.4375 C-268.72789956 315.60779789 -271.62383078 318.79394757 -274.5 322 C-278.27537217 326.20684327 -282.08980448 330.37674853 -285.9140625 334.5390625 C-288.79422607 337.67667086 -291.65531614 340.83020941 -294.5 344 C-299.15994856 349.19061886 -303.87358275 354.33112843 -308.59277344 359.46777344 C-310.89708552 361.97677112 -313.19841091 364.48850468 -315.5 367 C-316.41665192 368.00001352 -317.3333186 369.00001351 -318.25 370 C-318.930625 370.7425 -318.930625 370.7425 -319.625 371.5 C-321 373 -322.375 374.5 -323.75 376 C-324.43050415 376.74237915 -324.43050415 376.74237915 -325.12475586 377.49975586 C-326.04220685 378.50059668 -326.95968736 379.50141045 -327.87719727 380.50219727 C-330.15710551 382.98911261 -332.43651293 385.47648315 -334.71484375 387.96484375 C-340.95728246 394.78140292 -347.21988842 401.57904083 -353.49267578 408.36767578 C-354.97410134 409.97195361 -356.45408992 411.57754366 -357.93359375 413.18359375 C-364.9971681 420.84922404 -372.10002403 428.47744242 -379.21777344 436.09277344 C-382.14668656 439.2271117 -385.07322136 442.36366876 -388 445.5 C-389.16796296 446.75130749 -390.33593171 448.00260957 -391.50390625 449.25390625 C-393.82470607 451.74043125 -396.14497648 454.22744869 -398.46484375 456.71484375 C-401.36593599 459.82522587 -404.26843485 462.93428997 -407.171875 466.04248047 C-408.43528136 467.39531063 -409.69827597 468.74852541 -410.9609375 470.10205078 C-412.95190043 472.23584787 -414.94453847 474.36806966 -416.9375 476.5 C-417.54005615 477.14638428 -418.1426123 477.79276855 -418.76342773 478.45874023 C-421.70597076 481.60329036 -424.68207389 484.69987708 -427.73828125 487.734375 C-430.01629515 489.99681871 -432.19094231 492.28365617 -434.25 494.75 C-437.18279679 498.15838545 -440.3007406 501.34398114 -443.5 504.5 C-446.55318068 507.51230127 -449.54072473 510.53548975 -452.3125 513.8125 C-456.19856683 518.37604095 -460.48287377 522.53585856 -464.76293945 526.72583008 C-467.77168003 529.69059187 -470.65071319 532.70352893 -473.40625 535.90625 C-477.88801443 541.09829406 -482.79326217 545.84168324 -487.68359375 550.64453125 C-491.01696799 553.94173868 -494.26611828 557.24680711 -497.3125 560.8125 C-502.53082732 566.8776873 -508.3380889 572.39388216 -514.02978516 578.00927734 C-515.5324377 579.49359897 -517.03188165 580.98111204 -518.53125 582.46875 C-519.85479492 583.77489258 -519.85479492 583.77489258 -521.20507812 585.10742188 C-523.3061844 587.23222484 -525.26666622 589.44571291 -527.21289062 591.71289062 C-531.5890891 596.75833066 -536.32020509 601.42622013 -541.0625 606.125 C-542.02251375 607.0805937 -542.98222453 608.03649184 -543.94165039 608.99267578 C-547.46770473 612.50550592 -550.9992429 616.01280573 -554.53063965 619.52026367 C-557.52691208 622.49665517 -560.52102231 625.47519157 -563.51242065 628.45648193 C-564.8988534 629.83653133 -566.28837298 631.21347744 -567.67797852 632.59033203 C-571.31693596 636.21527639 -574.91251799 639.82524616 -578.24243164 643.73803711 C-583.85441861 650.2698948 -590.09302888 656.23633909 -596.18359375 662.31640625 C-597.5670454 663.70053281 -598.95034868 665.08480768 -600.33351135 666.46922302 C-603.22242862 669.35960842 -606.11313076 672.2481934 -609.00512695 675.13549805 C-612.69456608 678.81924045 -616.37949676 682.50745488 -620.06309414 686.1970377 C-622.91558982 689.05316293 -625.77048277 691.90688238 -628.62608528 694.75990105 C-629.98505921 696.11821232 -631.34330299 697.47725453 -632.70077324 698.83706856 C-644.89354359 711.0462724 -644.89354359 711.0462724 -651.1363678 716.35874939 C-655.09735147 719.84708087 -658.7568667 723.65727488 -662.46875 727.40625 C-663.34849487 728.28978149 -664.22823975 729.17331299 -665.13464355 730.08361816 C-667.92554506 732.88665133 -670.71329232 735.69279916 -673.5 738.5 C-677.17398738 742.2010055 -680.85165602 745.89831822 -684.53125 749.59375 C-685.36168823 750.43248657 -686.19212646 751.27122314 -687.04772949 752.13537598 C-691.30736452 756.41272258 -695.64379346 760.51078178 -700.22106934 764.44592285 C-702.69574369 766.60780298 -705.00574787 768.91096052 -707.3125 771.25 C-707.77052002 771.71180664 -708.22854004 772.17361328 -708.70043945 772.64941406 C-710.13616175 774.09712722 -711.56852432 775.54808857 -713 777 C-718.55933611 782.6387012 -724.11497327 788.20839109 -730.13671875 793.359375 C-733.41570581 796.24653342 -736.44264581 799.38197768 -739.5 802.5 C-743.87679674 806.92411346 -748.24673703 811.24728086 -753.03125 815.234375 C-754.70248249 816.73317874 -756.23676821 818.26518247 -757.78125 819.890625 C-758.27206055 820.40270508 -758.76287109 820.91478516 -759.26855469 821.44238281 C-760.23873602 822.46244822 -761.19824976 823.49279243 -762.14550781 824.53417969 C-763.484375 825.9375 -763.484375 825.9375 -766 828 C-770.104384 827.80930232 -772.38537048 825.12137278 -775.2578125 822.421875 C-775.80559357 821.90711609 -776.35337463 821.39235718 -776.91775513 820.86199951 C-786.00885826 812.23838348 -794.82636705 803.32297883 -803.67675781 794.45361328 C-806.35255899 791.77207905 -809.03287765 789.09511204 -811.71452141 786.41942215 C-813.80802391 784.32955541 -815.8991118 782.23728563 -817.98950577 780.14431 C-818.97660431 779.15655242 -819.96442374 778.16951462 -820.95302963 777.18326569 C-825.98971436 772.15597511 -830.92545106 767.10215864 -835.53909302 761.68109131 C-837.88650017 758.97988869 -840.43691427 756.49455403 -843 754 C-846.92330195 750.18159917 -850.5876815 746.22459812 -854.16992188 742.08398438 C-857.27096102 738.552705 -860.51509573 735.15825196 -863.75 731.75 C-870.23261102 724.89110935 -876.64160097 717.97403827 -883 711 C-883.93314024 709.98265676 -884.86674345 708.96573799 -885.80078125 707.94921875 C-891.57276544 701.66744399 -897.3020928 695.34909659 -903 689 C-903.763125 688.154375 -904.52625 687.30875 -905.3125 686.4375 C-908.71400617 682.66826344 -912.10574868 678.89362388 -915.4375 675.0625 C-918.24822525 671.83440488 -921.115799 668.66261557 -924 665.5 C-927.45643771 661.70990918 -930.86843854 657.88943967 -934.23046875 654.015625 C-936.25114956 651.71392236 -938.31312618 649.45235621 -940.375 647.1875 C-943.44746773 643.78916448 -946.38442622 640.32409477 -949.25 636.75 C-953.34822522 631.67737158 -957.73109151 626.94092006 -962.19775391 622.19677734 C-966.26137809 617.85741148 -970.04162566 613.35276795 -973.7578125 608.7109375 C-976.23906709 605.71095373 -978.84867605 602.84849592 -981.5 600 C-985.78963052 595.39003752 -989.80411347 590.62216205 -993.75390625 585.71484375 C-996.0883059 582.89326505 -998.51990598 580.19409288 -1001 577.5 C-1005.11378909 573.0301488 -1008.97087297 568.40955107 -1012.78515625 563.68359375 C-1014.95632827 561.05291443 -1017.20241357 558.52057576 -1019.5 556 C-1023.32170863 551.80270966 -1026.91474189 547.46289769 -1030.484375 543.05078125 C-1033.42925052 539.47943376 -1036.45720087 535.9878836 -1039.5 532.5 C-1043.99520733 527.34435937 -1048.38623664 522.12488576 -1052.69140625 516.80859375 C-1055.41344372 513.49701179 -1058.20149959 510.24696119 -1061 507 C-1066.09972754 501.07892597 -1071.07852737 495.07041937 -1076 489 C-1081.31611031 482.48575119 -1086.65321391 475.98907342 -1092 469.5 C-1097.34637927 463.01059684 -1102.6858477 456.51584503 -1108 450 C-1108.48291504 449.40896484 -1108.96583008 448.81792969 -1109.46337891 448.20898438 C-1115.66072527 440.62195314 -1121.81257928 433.00618486 -1127.83984375 425.28320312 C-1131.29330917 420.86933594 -1134.82494642 416.5238709 -1138.375 412.1875 C-1143.46931651 405.95539733 -1148.40352823 399.61664429 -1153.27172852 393.20678711 C-1156.5777748 388.85426551 -1159.92061646 384.53588804 -1163.3125 380.25 C-1168.01533908 374.29354001 -1172.64245831 368.28042005 -1177.25 362.25 C-1178.24253784 360.95497559 -1178.24253784 360.95497559 -1179.25512695 359.63378906 C-1181.18590708 357.10071395 -1183.09369112 354.55152112 -1185 352 C-1186.02770508 350.6687207 -1186.02770508 350.6687207 -1187.07617188 349.31054688 C-1187.72650391 348.43978516 -1188.37683594 347.56902344 -1189.046875 346.671875 C-1189.63823242 345.89424805 -1190.22958984 345.11662109 -1190.83886719 344.31542969 C-1192.28406135 341.43354965 -1191.93679295 340.02152476 -1191 337 C-1184.34934759 340.02232647 -1178.92188377 343.87677081 -1173.1875 348.375 C-1171.31741617 349.821619 -1169.44630173 351.26690655 -1167.57421875 352.7109375 C-1166.17115479 353.7952002 -1166.17115479 353.7952002 -1164.73974609 354.90136719 C-1160.70288146 357.99358679 -1156.6057146 361.00015362 -1152.5 364 C-1143.13965649 370.85871228 -1133.91183385 377.88482798 -1124.69677734 384.93701172 C-1120.11438444 388.44246347 -1115.52617128 391.94027285 -1110.9375 395.4375 C-1109.61226318 396.44780273 -1109.61226318 396.44780273 -1108.26025391 397.47851562 C-1103.68700087 400.96240367 -1099.10435142 404.43232463 -1094.5 407.875 C-1082.19990578 417.07408455 -1070.11101149 426.55434625 -1058 436 C-1057.36916504 436.49145508 -1056.73833008 436.98291016 -1056.08837891 437.48925781 C-1048.64297453 443.29345996 -1041.279612 449.18919395 -1033.96704102 455.15991211 C-1029.62225862 458.70144859 -1025.23537841 462.18168526 -1020.8125 465.625 C-1015.7276314 469.58753274 -1010.7844991 473.68599532 -1005.8894043 477.87988281 C-1002.04869023 481.15484734 -998.11593836 484.28563745 -994.125 487.375 C-988.37960785 491.83034811 -982.86903427 496.51144397 -977.39941406 501.29980469 C-972.91964956 505.2187223 -968.35830279 509.01723383 -963.734375 512.765625 C-958.98812993 516.64398526 -954.32799505 520.62412869 -949.65722656 524.59277344 C-946.94134234 526.89895444 -944.22042227 529.19917592 -941.5 531.5 C-940.41535225 532.41795418 -939.33071684 533.33592293 -938.24609375 534.25390625 C-936.09348214 536.07544632 -933.93975381 537.89565329 -931.78515625 539.71484375 C-900.672184 565.99326614 -900.672184 565.99326614 -887.75 577.75 C-884.49989987 580.7007488 -881.17382667 583.50297627 -877.75 586.25 C-871.99053574 590.90658812 -866.62051301 595.92834177 -861.22265625 600.9921875 C-858.17938059 603.8447641 -855.07055866 606.6092621 -851.9140625 609.3359375 C-847.891701 612.83292933 -843.95620434 616.42859365 -840 620 C-838.33359149 621.50028679 -836.66692647 623.00028872 -835 624.5 C-825 633.5 -825 633.5 -822.4921875 635.7578125 C-820.85260121 637.23292618 -819.21200345 638.70691652 -817.5703125 640.1796875 C-808.94985036 647.91882444 -800.40115794 655.7303906 -791.96069336 663.6652832 C-789.9052555 665.59657194 -787.84553132 667.52319974 -785.78515625 669.44921875 C-783.48386276 671.60118948 -781.19900166 673.76736416 -778.93359375 675.95703125 C-778.06863281 676.77558594 -777.20367188 677.59414063 -776.3125 678.4375 C-775.58675781 679.13746094 -774.86101562 679.83742188 -774.11328125 680.55859375 C-771.38598788 682.4187994 -770.26362032 682.48181419 -767 682 C-764.84622926 680.39475798 -763.06939683 678.86095232 -761.17578125 676.98828125 C-760.61748123 676.45439285 -760.05918121 675.92050446 -759.48396301 675.37043762 C-757.64009778 673.59582853 -755.81805143 671.80102991 -754 670 C-753.37268982 669.38106873 -752.74537964 668.76213745 -752.09906006 668.12445068 C-747.4314908 663.50884993 -742.80569504 658.85242777 -738.1875 654.1875 C-735.49651114 651.46963645 -732.80201217 648.75532015 -730.10546875 646.04296875 C-729.211446 645.13649849 -729.211446 645.13649849 -728.29936218 644.2117157 C-725.31347087 641.2087626 -722.27313424 638.33177249 -719.06567383 635.56567383 C-714.79077101 631.87044936 -710.81417957 627.92380225 -706.84375 623.90625 C-705.72389709 622.78071716 -705.72389709 622.78071716 -704.5814209 621.63244629 C-702.21847975 619.2574008 -699.8588263 616.87913183 -697.5 614.5 C-694.38839354 611.36160783 -691.27336245 608.22667255 -688.15625 605.09375 C-687.10745667 604.03250916 -687.10745667 604.03250916 -686.03747559 602.9498291 C-682.12593141 599.01912329 -678.10456659 595.30166498 -673.90563965 591.68078613 C-670.93323409 589.05910577 -668.1552638 586.26001331 -665.375 583.4375 C-664.78380371 582.84251709 -664.19260742 582.24753418 -663.58349609 581.63452148 C-661.719835 579.75880343 -659.85949158 577.87985097 -658 576 C-644.09865977 561.94645532 -644.09865977 561.94645532 -637.9453125 556.72265625 C-633.59201888 552.86763118 -629.58053363 548.63907787 -625.5 544.5 C-620.10547267 539.02807629 -614.71828999 533.65749911 -608.88085938 528.65820312 C-605.59737481 525.76341766 -602.56327811 522.62405585 -599.5 519.5 C-595.13627105 515.08914771 -590.76559026 510.80236042 -586.01953125 506.80078125 C-582.6743046 503.81790023 -579.5720071 500.59148071 -576.42333984 497.40380859 C-573.09369665 494.04890096 -569.66041869 490.90251818 -566.05859375 487.83984375 C-562.9300108 485.04370984 -560.01602391 482.03673816 -557.07055664 479.05102539 C-553.82619226 475.77962934 -550.46373664 472.73028962 -546.9609375 469.7421875 C-543.90908012 467.03077636 -541.08855234 464.09662853 -538.22265625 461.19140625 C-535.5729856 458.57898932 -532.78827197 456.16697379 -529.96484375 453.74609375 C-527.18575486 451.2764064 -524.61139504 448.62096678 -522.00390625 445.97265625 C-519.41753849 443.42662171 -516.6846472 441.07978443 -513.93359375 438.71484375 C-511.43568444 436.4995262 -509.11975011 434.1310183 -506.78125 431.75 C-504.28103815 429.29365151 -501.62319484 427.03690632 -498.96875 424.75 C-496.49423711 422.55043299 -494.19366457 420.20701229 -491.87597656 417.84472656 C-490.06219149 416.06115551 -488.1936727 414.39302694 -486.265625 412.734375 C-482.16562925 409.16948899 -478.19755077 405.48207846 -474.25 401.75 C-468.5131955 396.34889148 -462.7435355 390.98969752 -456.92578125 385.67578125 C-453.77455371 382.79381748 -450.63601237 379.89849191 -447.5 377 C-438.89845508 369.054592 -430.27748092 361.13363672 -421.5625 353.3125 C-418.69399555 350.72384964 -415.84527019 348.11410892 -413 345.5 C-407.69876925 340.63055896 -402.35807317 335.80676017 -397 331 C-395.33307353 329.50028872 -393.66640851 328.00028679 -392 326.5 C-382 317.5 -382 317.5 -379.5078125 315.2578125 C-377.81407106 313.73291756 -376.12138831 312.20684598 -374.4296875 310.6796875 C-370.66262885 307.28127068 -366.89084414 303.8918339 -363.0625 300.5625 C-359.83440488 297.75177475 -356.66261557 294.884201 -353.5 292 C-348.01542578 287.00311022 -342.46731169 282.09686934 -336.81640625 277.2890625 C-331.06028355 272.38650018 -325.35223355 267.45946072 -319.8125 262.3125 C-316.16586624 258.92475627 -312.44382599 255.68102204 -308.5625 252.5625 C-304.37762447 249.19653536 -300.41687569 245.66822171 -296.5 242 C-291.71683601 237.52084173 -286.79185052 233.31548578 -281.6796875 229.2109375 C-278.86746685 226.8906505 -276.18202737 224.46928866 -273.5 222 C-269.05272888 217.90648909 -264.45282537 214.07557501 -259.75 210.28125 C-256.91900422 207.93281032 -254.20616402 205.49090098 -251.5 203 C-247.12963181 198.98148349 -242.62525525 195.20212924 -238.0078125 191.47265625 C-234.49298748 188.5831962 -231.05589149 185.61318174 -227.625 182.625 C-221.3272634 177.14133777 -214.9790197 171.72294029 -208.59277344 166.34277344 C-206.4359746 164.52450341 -204.28265233 162.70214383 -202.12963867 160.87939453 C-201.04423419 159.96066265 -199.95845997 159.04236741 -198.87231445 158.12451172 C-196.17007473 155.84052889 -193.47281043 153.55113535 -190.78515625 151.25 C-184.73353688 146.07981813 -178.58875713 141.07560325 -172.30102539 136.1953125 C-168.09602677 132.91177424 -164.02843738 129.49716539 -160 126 C-154.84600936 121.52571978 -149.572389 117.25655836 -144.1796875 113.07421875 C-140.20128787 109.97694118 -136.32894284 106.77979259 -132.5 103.5 C-127.60360085 99.30922135 -122.59924952 95.29163558 -117.51171875 91.3359375 C-112.77263747 87.63841255 -108.12832474 83.83494218 -103.5 80 C-97.83411068 75.30694514 -92.11428183 70.70210849 -86.30859375 66.18359375 C-81.63900827 62.53514769 -77.06363521 58.77981058 -72.5 55 C-66.80694554 50.28562843 -61.06236987 45.65440196 -55.23388672 41.10888672 C-50.82368412 37.66337668 -46.46515706 34.15827238 -42.125 30.625 C-41.45936035 30.08311035 -40.7937207 29.5412207 -40.10791016 28.98291016 C-37.38436625 26.76350742 -34.66266593 24.54186663 -31.94287109 22.31787109 C-4.64674702 0 -4.64674702 0 0 0 Z " transform="translate(1745,0)" style="fill: #4AB1C0;"/></svg>