<svg width="400" height="400" viewBox="0 0 400 400" fill="none" xmlns="http://www.w3.org/2000/svg">
<g clip-path="url(#clip0_5178_1208)">
<path d="M200 400C310.457 400 400 310.457 400 200C400 89.543 310.457 0 200 0C89.543 0 0 89.543 0 200C0 310.457 89.543 400 200 400Z" fill="#50EDD3"/>
<path fill-rule="evenodd" clip-rule="evenodd" d="M200.211 149.73C206.849 158.092 212.267 165.951 218.354 174.662C222.159 180.11 227.71 185.929 231.709 191.418C236.079 197.414 240.232 203.449 244.707 209.373C277.186 251.719 309.164 294.449 340.631 337.553L340.256 338.012C337.677 337.537 320.453 337.697 317.094 337.695L275.99 337.74C268.332 337.746 259.774 337.928 252.182 337.592C244.957 329.056 239.182 320.095 232.449 311.24L211.9 283.998C208.09 278.903 204.304 274.15 200.754 268.842C186.031 284.772 175.172 303.214 161.217 319.834C156.555 325.386 153.223 332.149 147.803 337.287C146.209 337.512 144.681 337.679 143.068 337.689C115.139 337.873 87.1542 337.419 59.2285 337.793C70.4458 321.816 82.9371 306.658 94.1543 290.672C99.3796 282.911 105.97 275.989 111.453 268.461C118.16 257.885 126.078 248.781 133.398 238.75C151.973 213.299 171.741 188.618 189.758 162.773C192.967 158.17 197.015 154.294 200.211 149.73ZM200.307 190.609C187.362 206.686 175.707 223.652 163.145 239.965C156.241 247.934 150.532 256.618 144.4 265.145C136.421 276.241 127.256 286.272 119.727 297.771C116.373 302.893 111.829 307.911 108.324 313.02C117.539 313.35 126.761 313.427 135.98 313.254C142.491 305.772 147.681 297.059 153.842 289.264C167.816 271.582 180.806 253.216 194.555 235.377C195.088 234.685 200.382 227.893 200.246 227.941C204.249 233.815 208.561 239.261 212.826 244.928L237.549 277.568C245.932 288.678 255.158 302.714 264.549 313.064C272.11 313.858 284.832 313.186 292.604 312.859C282.738 302.192 275.311 290.26 266.562 278.701C262.625 273.499 258.487 268.602 254.578 263.48L212.6 207.498C211.012 205.351 201.327 191.045 200.307 190.609Z" fill="#0A0A0C"/>
<path d="M191.835 48.2695C225.503 46.2469 258.865 55.6534 286.518 74.964C319.115 98.0015 341.256 133.017 348.091 172.344C353.211 201.297 349.795 227.252 339.153 254.544C335.611 263.627 332.566 270.55 326.885 278.664C321.724 271.097 314.918 265.11 310.743 256.861C318.52 240.629 323.137 230 324.978 211.551C328.423 178.132 318.496 144.709 297.368 118.589C275.305 91.9732 243.518 75.2808 209.082 72.2264C190.517 71.5478 174.658 73.2551 157.291 79.995C136.56 88.0404 122.276 96.8172 107.493 113.588C96.2947 126.294 93.2805 129.628 86.0098 145.58C73.1475 173.989 71.2311 206.147 80.6276 235.882C83.0465 243.721 86.2859 249.677 89.0554 257.096C86.1126 263.764 78.1746 273.181 73.2355 278.803C44.2501 233.599 42.2321 173.064 68.0316 125.624C73.2018 116.116 82.3989 104.688 89.4773 96.1216C97.8089 86.0387 112.041 76.1083 122.877 68.6434C143.623 56.3072 167.923 49.7368 191.835 48.2695Z" fill="#0A0A0C"/>
<path d="M193.071 95.187C204.595 93.843 222.106 96.4426 233.116 100.019C240.334 102.363 244.457 104.7 250.758 108.239C266.266 116.337 275.444 126.446 285.246 140.258C300.839 162.231 305.416 187.303 301.956 213.812C300.905 221.862 298.453 230.027 295.867 237.935C291.537 231.905 279.879 217.712 277.185 212.563C277.371 211.477 277.524 210.387 277.646 209.293C280.079 188.818 275.668 166.276 262.65 150.078C248.313 132.24 231.121 122.607 208.544 119.918C202.781 119.428 196.986 119.457 191.228 120.002C169.621 122.056 152.507 132.12 139.109 148.716C122.214 169.646 119.983 187.302 122.452 213.192C120.935 216.238 117.484 220.313 115.433 223.21C112.022 228.028 108.566 232.928 104.913 237.562C100.469 226.714 98.1543 220.385 97.1946 208.644C94.961 185.059 99.686 166.985 111.097 146.429C122.867 125.224 140.216 111.454 162.183 101.711C171.247 97.6908 183.143 95.9245 193.071 95.187Z" fill="#0A0A0C"/>
</g>
<defs>
<clipPath id="clip0_5178_1208">
<rect width="400" height="400" fill="white"/>
</clipPath>
</defs>
</svg>
