<svg width="1000" height="1000" viewBox="0 0 1000 1000" fill="none" xmlns="http://www.w3.org/2000/svg">
<g clip-path="url(#clip0_4_2)">
<rect width="1000" height="1000" rx="500" fill="white"/>
<g clip-path="url(#clip1_4_2)">
<mask id="mask0_4_2" style="mask-type:luminance" maskUnits="userSpaceOnUse" x="-30" y="0" width="1071" height="1071">
<path d="M1040.01 535C1040.01 239.528 800.484 0 505.012 0C209.54 0 -29.9882 239.528 -29.9882 535C-29.9882 830.472 209.54 1070 505.012 1070C800.484 1070 1040.01 830.472 1040.01 535Z" fill="white"/>
</mask>
<g mask="url(#mask0_4_2)">
<path d="M493.772 -41.6992C167.485 -41.6992 -96.8691 222.91 -96.8691 549.513C-96.8691 867.042 0.222656 928.745 148.597 1030.58C154.716 1034.78 163.164 1031.45 164.732 1024.2L216.831 783.182C217.162 781.652 217.144 780.066 216.778 778.545L191.722 674.261C190.147 667.708 195.114 661.405 201.855 661.405H805.327C812.068 661.405 817.036 667.708 815.46 674.261L790.404 778.546C790.039 780.068 790.021 781.651 790.35 783.181L841.708 1021.12C842.298 1023.86 845.741 1025.58 845.741 1022.79V792.791C845.741 787.035 850.407 782.369 856.163 782.369H1027.67C1031.85 782.369 1035.63 779.875 1037.23 776.01C1065.84 706.623 1082.9 630.204 1082.9 549.513C1084.41 222.91 820.061 -41.6992 493.772 -41.6992ZM750.793 594.874H179.594C174.751 594.874 170.546 591.538 169.446 586.823L152.774 515.432C151.247 508.894 156.209 502.639 162.923 502.639H274.889C280.645 502.639 285.311 497.973 285.311 492.217V333.127C285.311 327.372 280.645 322.705 274.889 322.705H244.119C233.687 322.705 229.725 309.079 238.531 303.486L500.27 137.248C503.68 135.082 508.035 135.082 511.445 137.248L773.183 303.486C781.989 309.079 778.027 322.705 767.595 322.705H736.826C731.07 322.705 726.404 327.372 726.404 333.127V492.217C726.404 497.973 731.07 502.639 736.826 502.639H844.743C851.44 502.639 856.398 508.864 854.901 515.39L838.533 586.781C837.447 591.517 833.233 594.874 828.374 594.874H750.793Z" fill="#0D1137"/>
<path d="M632.607 332.305C632.607 326.523 628.382 321.836 623.17 321.836H390.381C385.169 321.836 380.943 326.523 380.943 332.305V365.653C380.943 371.435 385.169 376.123 390.381 376.123H476.89C482.102 376.123 486.328 380.81 486.328 386.592V432.348C486.328 438.13 482.102 442.818 476.89 442.818H390.381C385.169 442.818 380.943 447.505 380.943 453.287V492.838C380.943 498.62 385.169 503.308 390.381 503.308H623.17C628.382 503.308 632.607 498.62 632.607 492.838V332.305Z" fill="#0D1137"/>
<path d="M310.464 981.059L304.159 1009.88C302.549 1017.24 309.044 1023.83 316.428 1022.32L676.514 948.71L680.414 947.851C686.007 946.619 689.559 941.104 688.366 935.501L654.066 774.539C653.04 769.728 648.792 766.289 643.873 766.289H364.085C359.156 766.289 354.899 769.744 353.885 774.567L310.464 981.059Z" fill="#0D1137"/>
<path d="M1013.44 756.875C973.229 849.712 909.404 929.939 829.537 989.979V756.875H1013.44Z" fill="#0D1137"/>
</g>
</g>
</g>
<rect x="22.5" y="22.5" width="955" height="955" rx="477.5" stroke="white" stroke-width="45"/>
<defs>
<clipPath id="clip0_4_2">
<rect width="1000" height="1000" rx="500" fill="white"/>
</clipPath>
<clipPath id="clip1_4_2">
<rect width="1000" height="1000" fill="white"/>
</clipPath>
</defs>
</svg>
