<svg width="32" height="32" viewBox="0 0 32 32" fill="none" xmlns="http://www.w3.org/2000/svg">
<rect width="32" height="32" rx="16" fill="white"/>
<path d="M25 16C25 20.9706 20.9706 25 16 25C11.0294 25 7 20.9706 7 16C7 11.0294 11.0294 7 16 7C20.9706 7 25 11.0294 25 16Z" fill="black"/>
<path fill-rule="evenodd" clip-rule="evenodd" d="M12.7386 13.6245C12.8562 13.6245 12.955 13.6705 13.0352 13.7623L13.9488 14.8801L15.1507 13.4139L14.5337 12.6607C14.0689 12.1371 13.5159 11.875 12.8749 11.875H10.3347C10.3134 11.875 10.2959 11.8818 10.2828 11.8953C10.2694 11.9088 10.2627 11.9236 10.2627 11.9398V13.5598C10.2627 13.5759 10.2694 13.591 10.2828 13.6043C10.2959 13.6178 10.3134 13.6245 10.3347 13.6245H12.7386ZM19.1414 11.875C18.495 11.875 17.9394 12.1342 17.4747 12.6526L14.774 15.9573L13.0352 18.0794C12.9496 18.1714 12.8508 18.2172 12.7386 18.2172H10.3347C10.3134 18.2172 10.2972 18.2239 10.2866 18.2374C10.2759 18.251 10.2707 18.2658 10.2707 18.2819V19.9019C10.2707 19.9238 10.2759 19.9412 10.2866 19.9547C10.2972 19.9683 10.3134 19.975 10.3347 19.975H12.867C13.5133 19.975 14.0689 19.7132 14.5337 19.1893L16.0083 17.3911L17.4826 19.1893C17.942 19.7132 18.495 19.975 19.1414 19.975H21.6736C21.695 19.975 21.711 19.9683 21.7217 19.9547C21.7323 19.9414 21.7377 19.9264 21.7377 19.9102V18.2902C21.7377 18.2688 21.7323 18.2512 21.7217 18.2377C21.711 18.2242 21.695 18.2174 21.6736 18.2174H19.2697C19.1574 18.2174 19.0614 18.1742 18.9811 18.0877L17.2023 15.9169L18.9732 13.7623C19.0534 13.6705 19.1522 13.6245 19.2697 13.6245H21.6736C21.695 13.6245 21.711 13.6178 21.7217 13.6043C21.7323 13.591 21.7377 13.5759 21.7377 13.5598V11.9398C21.7377 11.9182 21.7323 11.902 21.7217 11.8911C21.711 11.8804 21.695 11.875 21.6736 11.875H19.1414Z" fill="white"/>
<path fill-rule="evenodd" clip-rule="evenodd" d="M11.8545 3.38369C13.345 2.89377 14.938 2.66977 16.5159 2.73025C18.0941 2.79073 19.6577 3.13601 21.1127 3.74401C22.5681 4.35201 23.9149 5.22305 25.0673 6.29761C26.5914 7.71937 27.7748 9.49761 28.4845 11.4867C29.1946 13.4762 29.4311 15.6765 29.1572 17.7712C28.8836 19.8659 28.0996 21.8554 26.9137 23.5661C25.7277 25.2768 24.1396 26.7085 22.2743 27.7005C20.409 28.6922 18.266 29.2438 16.1537 29.2758C14.0413 29.3078 11.9594 28.8205 10.0948 27.895C8.23047 26.9696 6.58311 25.6064 5.33223 23.9037C4.08135 22.201 3.22695 20.1587 2.88775 18.0749C2.54855 15.9907 2.72455 13.8646 3.37447 11.8813C3.86567 10.3818 4.62791 8.96417 5.60455 7.73569H4.12007V5.28193H9.93671V10.7136H7.48295V9.22945C6.68295 10.2355 6.05831 11.3968 5.65607 12.6256C5.12391 14.2512 4.98055 15.9952 5.25607 17.697C5.59847 19.8138 6.58855 21.865 8.06631 23.4458C9.83399 25.3363 12.2993 26.5542 14.8657 26.8208C17.4317 27.0874 20.0989 26.4029 22.217 24.9286C24.3351 23.4544 25.9047 21.1904 26.5418 18.6899C27.1789 16.1894 26.8836 13.4525 25.7348 11.1421C24.586 8.83169 22.5834 6.94849 20.1889 5.95905C17.7943 4.96929 15.0074 4.87393 12.6036 5.66369L11.8545 3.38369Z" fill="url(#paint0_linear_327_466922)"/>
<defs>
<linearGradient id="paint0_linear_327_466922" x1="2.04317" y1="13.2971" x2="15.2219" y2="29.5764" gradientUnits="userSpaceOnUse">
<stop stop-color="#FF1100"/>
<stop offset="0.34375" stop-color="#FDBF41"/>
<stop offset="0.692708" stop-color="#F1ECE2"/>
<stop offset="1" stop-color="#007FFF"/>
</linearGradient>
</defs>
</svg>
