<svg data-name="Layer 2" version="1.1" viewBox="0 0 200 200" xmlns="http://www.w3.org/2000/svg"><defs><style>.psg-cls-1 {
        fill: none;
      }

      .psg-cls-2 {
        fill: #004070;
      }

      .psg-cls-3 {
        fill: #ceab5d;
      }

      .psg-cls-4 {
        fill: #fff;
      }

      .psg-cls-5 {
        fill: #ef3e42;
      }

      .psg-cls-6 {
        fill: #e30613;
      }

      .psg-cls-7 {
        fill: #00385b;
      }</style></defs><g transform="scale(.4)" data-name="Layer 1"><circle class="psg-cls-2" cx="250" cy="250" r="250"/><path class="psg-cls-7" d="m413.87 73.93c-2.33-2.17-7.1-1.05-10.59 2.43l-146.97 146.97c-3.48 3.49-9.15 3.49-12.63 0l-146.97-146.97c-3.49-3.48-8.26-4.61-10.59-2.43-2.34 2.17-1.34 6.8 2.14 10.3l155.42 155.41c3.48 3.49 9.15 3.49 12.63 0l155.42-155.41c3.48-3.49 4.48-8.13 2.14-10.3z"/><path class="psg-cls-7" d="m400.88 62.67c-2.25-1.81-6.92-0.41-10.42 3.09l-134.15 134.15c-3.48 3.49-9.15 3.49-12.63 0l-134.15-134.15c-3.49-3.49-8.17-4.9-10.42-3.09-2.24 1.8-1.19 6.14 2.3 9.64l142.27 142.27c3.48 3.49 9.15 3.49 12.63 0l142.28-142.27c3.48-3.49 4.54-7.83 2.29-9.64z"/><path class="psg-cls-7" d="m387.02 52.29c-2.13-1.47-6.7 0.2-10.19 3.69l-120.52 120.51c-3.48 3.49-9.15 3.49-12.63 0l-120.52-120.52c-3.49-3.49-8.07-5.16-10.19-3.69-2.13 1.48-0.99 5.54 2.49 9.03l128.21 128.21c3.48 3.49 9.15 3.49 12.63 0l128.23-128.2c3.49-3.49 4.62-7.56 2.49-9.03z"/><path class="psg-cls-7" d="m372.25 42.81c-1.98-1.17-6.43 0.74-9.92 4.24l-106.02 106.01c-3.48 3.49-9.15 3.49-12.63 0l-106.02-106.01c-3.49-3.49-7.94-5.41-9.92-4.24s-0.74 4.99 2.75 8.47l113.19 113.19c3.48 3.48 9.15 3.48 12.63 0l113.19-113.19c3.49-3.48 4.73-7.3 2.75-8.47z"/><path class="psg-cls-7" d="m356.54 34.28c-1.81-0.89-6.12 1.24-9.61 4.73l-90.63 90.62c-3.48 3.49-9.15 3.49-12.63 0l-90.63-90.62c-3.48-3.49-7.8-5.62-9.61-4.73s-0.43 4.48 3.06 7.96l97.17 97.17c3.48 3.48 9.15 3.48 12.63 0l97.17-97.17c3.48-3.48 4.87-7.07 3.06-7.96z"/><path class="psg-cls-7" d="m339.8 26.79c-1.6-0.65-5.74 1.68-9.23 5.17l-74.25 74.25c-3.48 3.49-9.15 3.49-12.63 0l-74.26-74.25c-3.48-3.49-7.62-5.82-9.23-5.17s-0.08 4.02 3.42 7.51l80.07 80.06c3.48 3.49 9.15 3.49 12.63 0l80.07-80.06c3.49-3.49 5.02-6.86 3.42-7.51z"/><path class="psg-cls-7" d="m321.94 20.41c-1.37-0.43-5.32 2.07-8.81 5.56l-56.81 56.81c-3.49 3.49-9.16 3.49-12.64 0l-56.81-56.81c-3.49-3.49-7.44-5.99-8.81-5.56-1.37 0.44 0.35 3.63 3.85 7.11l61.78 61.78c3.48 3.49 9.15 3.49 12.64 0l61.77-61.78c3.49-3.48 5.21-6.68 3.85-7.11z"/><path class="psg-cls-7" d="m302.82 15.29c-1.1-0.25-4.83 2.4-8.32 5.88l-38.18 38.19c-3.49 3.48-9.16 3.48-12.64 0l-38.19-38.19c-3.48-3.48-7.22-6.13-8.32-5.88-1.1 0.24 0.83 3.27 4.32 6.77l42.19 42.19c3.48 3.49 9.15 3.49 12.64 0l42.18-42.19c3.49-3.49 5.43-6.53 4.32-6.77z"/><path class="psg-cls-7" d="m282.26 11.61c-0.79-0.11-4.26 2.64-7.74 6.13l-18.2 18.2c-3.49 3.48-9.16 3.48-12.64 0l-18.2-18.2c-3.49-3.49-6.96-6.24-7.75-6.13s1.4 3.03 4.89 6.53l21.06 21.06c3.48 3.49 9.15 3.49 12.64 0l21.05-21.06c3.49-3.49 5.69-6.41 4.89-6.53z"/><path class="psg-cls-7" d="m259.96 9.67c-0.44-0.01-2.84 2.03-5.38 4.57-2.53 2.53-6.64 2.53-9.18 0-2.54-2.54-4.94-4.58-5.38-4.57-0.44 0.02 1.62 2.44 4.59 5.41s7.79 2.97 10.75 0c2.97-2.97 5.02-5.38 4.59-5.41z"/><path class="psg-cls-7" d="m414.39 425.63c2.33-2.18 1.34-6.82-2.16-10.31l-155.92-155.93c-3.49-3.48-9.16-3.48-12.64 0l-155.93 155.93c-3.49 3.49-4.48 8.13-2.16 10.31 2.33 2.18 7.08 1.07 10.57-2.43l147.51-147.51c3.48-3.48 9.15-3.48 12.64 0l147.5 147.51c3.49 3.49 8.25 4.6 10.57 2.43z"/><path class="psg-cls-7" d="m401.45 436.92c2.24-1.82 1.19-6.16-2.31-9.65l-142.82-142.82c-3.49-3.49-9.16-3.49-12.64 0l-142.83 142.82c-3.48 3.49-4.54 7.83-2.31 9.65 2.24 1.82 6.92 0.41 10.41-3.07l134.73-134.73c3.48-3.48 9.15-3.48 12.64 0l134.73 134.73c3.48 3.49 8.16 4.9 10.4 3.08z"/><path class="psg-cls-7" d="m387.62 447.34c2.12-1.48 0.98-5.55-2.51-9.04l-128.79-128.79c-3.49-3.49-9.16-3.49-12.64 0l-128.8 128.79c-3.49 3.49-4.63 7.56-2.51 9.04 2.12 1.49 6.69-0.18 10.18-3.66l121.12-121.12c3.48-3.49 9.15-3.49 12.64 0l121.12 121.12c3.49 3.48 8.07 5.15 10.18 3.66z"/><path class="psg-cls-7" d="m372.89 456.85c1.98-1.18 0.73-4.99-2.76-8.48l-113.81-113.82c-3.49-3.49-9.16-3.49-12.64 0l-113.82 113.82c-3.49 3.48-4.74 7.3-2.76 8.48 1.97 1.18 6.42-0.72 9.91-4.21l106.67-106.67c3.48-3.49 9.15-3.49 12.64 0l106.67 106.67c3.48 3.49 7.94 5.39 9.91 4.21z"/><path class="psg-cls-7" d="m357.22 465.42c1.8-0.9 0.42-4.48-3.07-7.98l-97.83-97.84c-3.49-3.49-9.16-3.49-12.64 0l-97.84 97.84c-3.49 3.49-4.87 7.07-3.07 7.98 1.8 0.9 6.11-1.22 9.59-4.72l91.32-91.31c3.48-3.49 9.15-3.49 12.64 0l91.31 91.31c3.49 3.49 7.79 5.62 9.59 4.72z"/><path class="psg-cls-7" d="m340.52 472.96c1.61-0.65 0.07-4.02-3.42-7.51l-80.79-80.79c-3.48-3.48-9.15-3.48-12.63 0l-80.79 80.79c-3.49 3.49-5.03 6.86-3.42 7.51 1.6 0.65 5.74-1.67 9.22-5.16l74.99-74.98c3.48-3.49 9.15-3.49 12.63 0l74.99 74.98c3.49 3.49 7.62 5.81 9.22 5.16z"/><path class="psg-cls-7" d="m322.71 479.38c1.37-0.43-0.36-3.63-3.85-7.11l-62.55-62.55c-3.48-3.48-9.15-3.48-12.63 0l-62.54 62.55c-3.49 3.48-5.22 6.68-3.85 7.11 1.37 0.44 5.31-2.05 8.8-5.54l57.6-57.6c3.48-3.49 9.15-3.49 12.63 0l57.6 57.6c3.49 3.48 7.44 5.98 8.8 5.54z"/><path class="psg-cls-7" d="m303.65 484.57c1.1-0.25-0.83-3.29-4.33-6.78l-43.01-43c-3.48-3.49-9.15-3.49-12.63 0l-43.01 43c-3.49 3.49-5.43 6.53-4.33 6.78s4.82-2.39 8.31-5.88l39.02-39.02c3.48-3.49 9.15-3.49 12.63 0l39.02 39.02c3.49 3.49 7.22 6.13 8.31 5.88z"/><path class="psg-cls-7" d="m283.15 488.31c0.79-0.11-1.4-3.03-4.89-6.53l-21.95-21.94c-3.48-3.49-9.15-3.49-12.63 0l-21.95 21.94c-3.49 3.49-5.68 6.41-4.89 6.53 0.79 0.11 4.26-2.64 7.75-6.12l19.09-19.09c3.48-3.49 9.15-3.49 12.63 0l19.09 19.09c3.49 3.48 6.96 6.23 7.75 6.12z"/><path class="psg-cls-7" d="m260.94 490.33c0.44-0.01-1.84-2.65-5.08-5.9-3.24-3.24-8.49-3.24-11.73 0s-5.51 5.88-5.08 5.9c0.44 0.02 3.06-2.25 5.87-5.05 2.8-2.81 7.35-2.81 10.15 0 2.81 2.8 5.43 5.06 5.87 5.05z"/><path class="psg-cls-7" d="m425.6 414.42c2.18-2.33 1.07-7.08-2.43-10.57l-147.5-147.51c-3.49-3.48-3.49-9.15 0-12.64l147.5-147.5c3.49-3.49 4.6-8.25 2.43-10.57-2.18-2.33-6.82-1.34-10.31 2.16l-155.92 155.92c-3.49 3.49-3.49 9.15 0 12.64l155.92 155.93c3.49 3.49 8.13 4.48 10.31 2.16z"/><path class="psg-cls-7" d="m436.89 401.47c1.82-2.24 0.41-6.92-3.07-10.41l-134.73-134.73c-3.49-3.48-3.49-9.15 0-12.64l134.73-134.72c3.48-3.49 4.89-8.17 3.07-10.41s-6.16-1.19-9.65 2.31l-142.82 142.82c-3.49 3.49-3.49 9.15 0 12.64l142.82 142.83c3.49 3.48 7.83 4.54 9.65 2.31z"/><path class="psg-cls-7" d="m447.31 387.65c1.49-2.12-0.18-6.69-3.67-10.18l-121.12-121.12c-3.49-3.48-3.49-9.15 0-12.64l121.12-121.12c3.48-3.49 5.15-8.07 3.67-10.18-1.48-2.12-5.55-0.98-9.04 2.51l-128.79 128.79c-3.49 3.49-3.49 9.15 0 12.64l128.79 128.8c3.49 3.49 7.56 4.63 9.04 2.51z"/><path class="psg-cls-7" d="m456.83 372.92c1.18-1.97-0.72-6.42-4.21-9.91l-106.67-106.67c-3.49-3.48-3.49-9.15 0-12.64l106.67-106.67c3.49-3.48 5.39-7.94 4.21-9.91-1.18-1.98-4.99-0.73-8.48 2.76l-113.82 113.81c-3.49 3.49-3.49 9.15 0 12.64l113.82 113.82c3.48 3.49 7.3 4.74 8.48 2.76z"/><path class="psg-cls-7" d="m465.4 357.25c0.9-1.8-1.22-6.11-4.72-9.59l-91.31-91.32c-3.49-3.48-3.49-9.15 0-12.64l91.31-91.31c3.49-3.49 5.62-7.79 4.72-9.59s-4.48-0.42-7.98 3.07l-97.84 97.83c-3.48 3.49-3.48 9.15 0 12.64l97.84 97.84c3.49 3.49 7.07 4.87 7.98 3.07z"/><path class="psg-cls-7" d="m472.94 340.55c0.65-1.6-1.67-5.74-5.17-9.22l-74.98-74.99c-3.49-3.48-3.49-9.15 0-12.64l74.98-74.98c3.49-3.49 5.81-7.62 5.17-9.22-0.65-1.61-4.03-0.07-7.52 3.42l-80.79 80.78c-3.48 3.49-3.48 9.15 0 12.64l80.79 80.79c3.49 3.49 6.86 5.02 7.52 3.42z"/><path class="psg-cls-7" d="m479.37 322.74c0.43-1.37-2.06-5.31-5.55-8.8l-57.6-57.6c-3.49-3.48-3.49-9.15 0-12.64l57.6-57.59c3.49-3.49 5.98-7.44 5.55-8.8-0.44-1.37-3.64 0.36-7.12 3.85l-62.54 62.54c-3.49 3.49-3.49 9.15 0 12.64l62.54 62.54c3.48 3.49 6.68 5.22 7.12 3.85z"/><path class="psg-cls-7" d="m484.54 303.68c0.25-1.1-2.39-4.82-5.87-8.31l-39.02-39.02c-3.49-3.48-3.49-9.15 0-12.64l39.02-39.02c3.48-3.49 6.12-7.22 5.87-8.31-0.25-1.1-3.29 0.83-6.78 4.33l-43 43c-3.49 3.49-3.49 9.15 0 12.64l43 43.01c3.49 3.49 6.53 5.43 6.78 4.33z"/><path class="psg-cls-7" d="m488.28 283.18c0.11-0.79-2.64-4.26-6.12-7.75l-19.09-19.09c-3.49-3.48-3.49-9.15 0-12.64l19.09-19.08c3.48-3.49 6.23-6.96 6.12-7.75s-3.03 1.4-6.53 4.89l-21.94 21.94c-3.49 3.49-3.49 9.15 0 12.64l21.94 21.95c3.49 3.49 6.41 5.68 6.53 4.89z"/><path class="psg-cls-7" d="m490.31 260.96c0.02-0.44-2.25-3.06-5.05-5.87-2.8-2.8-2.8-7.35 0-10.15 2.81-2.81 5.07-5.43 5.05-5.87s-2.66 1.84-5.9 5.08-3.24 8.49 0 11.73 5.88 5.51 5.9 5.08z"/><path class="psg-cls-7" d="m74.39 85.62c-2.18 2.32-1.07 7.08 2.43 10.57l147.51 147.5c3.49 3.49 3.49 9.15 0 12.64l-147.51 147.51c-3.49 3.49-4.6 8.25-2.43 10.57 2.18 2.33 6.82 1.34 10.31-2.16l155.93-155.93c3.48-3.48 3.48-9.15 0-12.64l-155.93-155.9c-3.49-3.49-8.13-4.48-10.31-2.16z"/><path class="psg-cls-7" d="m63.1 98.57c-1.82 2.24-0.41 6.92 3.08 10.4l134.73 134.73c3.48 3.49 3.48 9.15 0 12.64l-134.73 134.73c-3.48 3.49-4.89 8.17-3.07 10.41 1.82 2.23 6.16 1.18 9.65-2.31l142.82-142.83c3.49-3.48 3.49-9.15 0-12.64l-142.83-142.82c-3.49-3.49-7.83-4.54-9.65-2.31z"/><path class="psg-cls-7" d="m52.68 112.4c-1.49 2.12 0.18 6.69 3.67 10.18l121.13 121.12c3.49 3.48 3.49 9.15 0 12.64l-121.12 121.12c-3.48 3.49-5.15 8.07-3.66 10.18 1.48 2.12 5.55 0.98 9.04-2.51l128.79-128.79c3.49-3.49 3.49-9.15 0-12.64l-128.81-128.79c-3.49-3.49-7.56-4.63-9.04-2.51z"/><path class="psg-cls-7" d="m43.17 127.13c-1.18 1.97 0.72 6.42 4.21 9.91l106.67 106.67c3.49 3.49 3.49 9.15 0 12.64l-106.67 106.67c-3.49 3.48-5.39 7.94-4.21 9.91 1.18 1.98 4.99 0.73 8.48-2.76l113.82-113.82c3.49-3.48 3.49-9.15 0-12.64l-113.82-113.81c-3.48-3.49-7.3-4.74-8.48-2.76z"/><path class="psg-cls-7" d="m34.6 142.8c-0.9 1.8 1.22 6.1 4.72 9.59l91.31 91.31c3.49 3.49 3.49 9.15 0 12.64l-91.31 91.32c-3.49 3.48-5.62 7.79-4.72 9.59s4.48 0.42 7.98-3.07l97.84-97.84c3.49-3.48 3.49-9.15 0-12.64l-97.84-97.83c-3.49-3.49-7.07-4.87-7.98-3.07z"/><path class="psg-cls-7" d="m27.06 159.49c-0.65 1.6 1.67 5.73 5.16 9.22l74.98 74.98c3.49 3.49 3.49 9.15 0 12.64l-74.98 74.99c-3.49 3.48-5.81 7.62-5.16 9.22 0.65 1.61 4.02 0.07 7.51-3.42l80.79-80.79c3.48-3.48 3.48-9.15 0-12.64l-80.79-80.78c-3.49-3.49-6.86-5.03-7.51-3.42z"/><path class="psg-cls-7" d="m20.63 177.31c-0.44 1.37 2.05 5.31 5.54 8.8l57.6 57.59c3.49 3.49 3.49 9.15 0 12.64l-57.6 57.6c-3.49 3.49-5.98 7.44-5.54 8.8 0.43 1.37 3.63-0.36 7.12-3.85l62.54-62.54c3.48-3.48 3.48-9.15 0-12.64l-62.54-62.54c-3.49-3.48-6.69-5.21-7.12-3.85z"/><path class="psg-cls-7" d="m15.45 196.37c-0.25 1.1 2.39 4.82 5.88 8.31l39.02 39.02c3.49 3.49 3.49 9.15 0 12.64l-39.02 39.02c-3.49 3.49-6.13 7.21-5.88 8.31s3.29-0.83 6.78-4.33l43-43.01c3.49-3.48 3.49-9.15 0-12.64l-43-43c-3.49-3.49-6.53-5.43-6.78-4.33z"/><path class="psg-cls-7" d="m11.71 216.87c-0.11 0.79 2.64 4.26 6.12 7.75l19.09 19.08c3.49 3.49 3.49 9.15 0 12.64l-19.09 19.09c-3.48 3.49-6.23 6.96-6.12 7.75s3.03-1.4 6.53-4.89l21.94-21.95c3.49-3.48 3.49-9.15 0-12.64l-21.94-21.94c-3.49-3.49-6.41-5.68-6.53-4.89z"/><path class="psg-cls-7" d="m9.69 239.08c-0.01 0.43 2.25 3.06 5.05 5.87 2.81 2.8 2.81 7.35 0 10.15-2.8 2.81-5.06 5.43-5.05 5.87 0.02 0.44 2.65-1.84 5.9-5.08 3.24-3.24 3.24-8.49 0-11.73s-5.88-5.51-5.9-5.08z"/><path class="psg-cls-4" d="m105.38 405.68 17.72-21.27c0.52-0.63 1.19-0.69 1.81-0.17l17.16 14.29c0.63 0.52 0.69 1.19 0.17 1.81l-3.02 3.62c-0.52 0.62-1.19 0.69-1.81 0.16l-12.32-10.26-2.85 3.42 7.41 6.17c0.63 0.52 0.69 1.19 0.17 1.81l-2.58 3.1c-0.52 0.63-1.19 0.69-1.81 0.17l-7.41-6.17-6.8 8.17c-0.52 0.63-1.19 0.69-1.81 0.17l-3.85-3.21c-0.63-0.52-0.69-1.19-0.17-1.81z"/><path class="psg-cls-4" d="m149.32 437.36 0.58-3.99-12.64-7.51-3.23 2.42c-0.55 0.42-1.17 0.45-1.79 0.08l-4.94-2.93c-0.85-0.5-0.87-1.22-0.08-1.79l25.05-17.42c0.61-0.44 1.17-0.45 1.79-0.08l5.12 3.04c0.63 0.37 0.88 0.87 0.79 1.61l-3.31 30.33c-0.13 0.97-0.77 1.29-1.61 0.79l-4.94-2.93c-0.63-0.37-0.89-0.93-0.79-1.61zm1.55-10.59 1.78-12.4-10.04 7.5 8.25 4.9z"/><path class="psg-cls-4" d="m166.6 445.71 9.07-26.16c0.27-0.77 0.87-1.06 1.64-0.79l4.66 1.61c0.65 0.22 1.01 0.62 1.25 1.25l7.34 21.37 5.66-16.32c0.27-0.77 0.87-1.06 1.64-0.79l4.78 1.66c0.77 0.27 1.06 0.87 0.79 1.64l-9.07 26.16c-0.27 0.77-0.87 1.06-1.64 0.79l-4.66-1.61c-0.65-0.22-1.01-0.62-1.25-1.25l-7.36-21.29-5.63 16.24c-0.27 0.77-0.87 1.06-1.64 0.79l-4.78-1.66c-0.77-0.27-1.06-0.87-0.79-1.64z"/><path class="psg-cls-4" d="m230.54 461.33 1.57-21.58-8.16-0.59c-0.81-0.06-1.25-0.56-1.19-1.38l0.35-4.74c0.06-0.81 0.56-1.25 1.38-1.19l23.98 1.75c0.81 0.06 1.25 0.56 1.19 1.38l-0.35 4.74c-0.06 0.81-0.56 1.25-1.38 1.19l-8.16-0.59-1.57 21.58c-0.06 0.81-0.56 1.25-1.38 1.19l-5.09-0.37c-0.81-0.06-1.25-0.56-1.19-1.38z"/><path class="psg-cls-4" d="m256.82 453.54-1.03-9.33c-0.68-6.13 2.13-10.76 8.95-11.51l11.2-1.24c6.82-0.75 10.57 3.15 11.24 9.28l1.03 9.33c0.67 6.09-2.14 10.71-8.95 11.47l-11.21 1.24c-6.82 0.75-10.57-3.15-11.24-9.24zm21.64 0.76c1.49-0.17 2.48-0.58 2.2-3.13l-1.09-9.84c-0.29-2.6-1.21-2.8-2.83-2.62l-11.2 1.24c-1.62 0.18-2.48 0.58-2.19 3.17l1.09 9.84c0.28 2.56 1.34 2.74 2.83 2.58l11.21-1.24z"/><path class="psg-cls-4" d="m301.28 456.4-8.41-26.38c-0.25-0.78 0.06-1.37 0.83-1.62l4.82-1.54c0.78-0.25 1.37 0.06 1.62 0.83l3.24 10.17 4.25-1.35 4.36-13.13c0.2-0.65 0.62-1.01 1.28-1.22l5.84-1.86c1.02-0.33 1.57 0.26 1.22 1.28l-5.7 15.99 13.93 9.82c0.87 0.62 0.77 1.42-0.25 1.75l-5.84 1.86c-0.65 0.21-1.21 0.16-1.75-0.25l-11.08-7.94-4.25 1.35 3.16 9.92c0.25 0.78-0.06 1.37-0.83 1.62l-4.82 1.54c-0.78 0.25-1.37-0.06-1.62-0.83z"/><path class="psg-cls-4" d="m339.34 442.9-13.08-24.4c-0.38-0.72-0.19-1.36 0.53-1.74l20.28-10.87c0.72-0.38 1.36-0.19 1.74 0.53l2.23 4.15c0.38 0.72 0.19 1.36-0.53 1.74l-14.73 7.9 2.11 3.93 8.95-4.8c0.72-0.38 1.36-0.19 1.74 0.53l1.9 3.55c0.38 0.72 0.19 1.36-0.53 1.74l-8.95 4.8 2.19 4.08 14.73-7.9c0.72-0.38 1.36-0.19 1.74 0.53l2.23 4.15c0.38 0.72 0.19 1.36-0.53 1.74l-20.28 10.87c-0.72 0.38-1.36 0.19-1.74-0.53z"/><path class="psg-cls-4" d="m371.66 424.47-17.38-21.55c-0.51-0.63-0.44-1.3 0.19-1.81l3.84-3.09c0.53-0.43 1.06-0.53 1.72-0.39l22 5.1-10.84-13.44c-0.51-0.63-0.44-1.3 0.19-1.81l3.94-3.17c0.63-0.51 1.3-0.44 1.81 0.19l17.38 21.55c0.51 0.63 0.44 1.3-0.19 1.81l-3.84 3.09c-0.53 0.43-1.06 0.53-1.72 0.4l-21.95-5.03 10.79 13.38c0.51 0.63 0.44 1.3-0.19 1.81l-3.94 3.17c-0.63 0.51-1.3 0.44-1.81-0.19z"/><path class="psg-cls-4" d="m211.91 60.66c1.59 5.61-0.26 9.74-7.23 11.72l-1.28 0.36 0.48 1.69c0.22 0.78-0.1 1.37-0.89 1.59l-4.58 1.3c-0.78 0.22-1.37-0.1-1.59-0.89l-0.48-1.69h-0.04c-6.23 1.78-10.18-0.39-12.15-5.76-0.28-0.81 0.09-1.41 0.87-1.63l4.91-1.39c0.74-0.21 1.19 0.11 1.62 0.83 0.6 1.03 1.49 1.31 2.77 0.95l8.29-2.35c1.81-0.52 2.46-1.23 2.04-2.72-0.43-1.53-1.23-1.83-2.96-1.48l-9.52 1.94c-6.45 1.3-9.59-0.35-11.15-5.84-1.58-5.57 0.23-9.69 7.07-11.67l-0.5-1.77c-0.22-0.78 0.1-1.37 0.89-1.59l4.58-1.3c0.78-0.22 1.37 0.1 1.59 0.89l0.5 1.77 0.87-0.25c6.23-1.77 10.18 0.41 12.15 5.77 0.27 0.81-0.09 1.41-0.87 1.63l-4.91 1.39c-0.74 0.21-1.19-0.11-1.62-0.83-0.6-1.03-1.49-1.32-2.77-0.95l-7.67 2.18c-1.81 0.51-2.46 1.23-2.04 2.72 0.42 1.48 1.22 1.79 2.95 1.44l9.52-1.94c6.4-1.33 9.61 0.43 11.16 5.88z"/><path class="psg-cls-4" d="m217.21 67.9-2.82-27.54c-0.08-0.81 0.34-1.33 1.15-1.41l15.52-1.59c8.44-0.86 12.13 2.81 12.88 10.1l0.13 1.24c0.75 7.29-2.14 11.46-10.59 12.33l-9.21 0.94 0.53 5.16c0.08 0.81-0.34 1.33-1.15 1.41l-5.03 0.52c-0.81 0.08-1.33-0.34-1.41-1.15zm14.85-13.97c2.98-0.31 4.77-0.92 4.4-4.54l-0.11-1.11c-0.37-3.62-2.12-3.92-5.24-3.6l-8.53 0.87 0.95 9.25z"/><path class="psg-cls-4" d="m249.75 57.4c0.02-0.86 0.57-1.29 1.38-1.23l5.09 0.37c0.77 0.06 1.08 0.51 1.23 1.34 0.22 1.18 0.95 1.74 2.27 1.84l8.59 0.63c1.88 0.14 2.73-0.32 2.84-1.86 0.12-1.58-0.53-2.14-2.27-2.4l-9.61-1.43c-6.5-0.99-8.89-3.61-8.47-9.3 0.42-5.81 3.58-9.06 10.8-8.54l8.04 0.58c6.45 0.47 9.43 3.87 9.44 9.58-0.02 0.86-0.57 1.29-1.38 1.23l-5.09-0.37c-0.77-0.06-1.08-0.51-1.23-1.34-0.22-1.18-0.95-1.74-2.27-1.84l-7.95-0.58c-1.88-0.14-2.73 0.32-2.84 1.85-0.11 1.54 0.53 2.1 2.28 2.36l9.61 1.43c6.46 0.94 8.88 3.7 8.47 9.34-0.42 5.81-3.58 9.06-10.8 8.54l-8.68-0.63c-6.45-0.47-9.43-3.87-9.44-9.58z"/><path class="psg-cls-4" d="m283.81 58.72 2.35-9.09c1.55-5.97 5.82-9.3 12.45-7.58l9.67 2.5c6.14 1.59 8.46 5.78 7.57 11.12-0.17 0.84-0.79 1.17-1.58 0.96l-4.9-1.27c-0.79-0.2-1.05-0.72-0.96-1.58 0.06-1.44-0.67-1.86-1.96-2.19l-9.67-2.5c-1.58-0.41-2.52-0.34-3.18 2.19l-2.48 9.58c-0.64 2.49 0.28 3.04 1.73 3.41l9.67 2.5c1.45 0.38 2.52 0.34 3.17-2.15l0.25-0.95-5.31-1.38c-0.79-0.2-1.13-0.78-0.92-1.57l1-3.86c0.2-0.79 0.78-1.13 1.57-0.92l11.45 2.96c0.79 0.2 1.13 0.78 0.92 1.57l-1.5 5.81c-1.54 5.93-5.81 9.25-12.44 7.54l-9.67-2.5c-6.64-1.72-8.76-6.69-7.22-12.63z"/><path class="psg-cls-5" d="m250 12.6c32.05 0 63.14 6.27 92.4 18.65 28.27 11.96 53.66 29.08 75.46 50.88s38.93 47.2 50.88 75.46c12.38 29.26 18.65 60.35 18.65 92.4s-6.27 63.14-18.65 92.4c-11.96 28.27-29.08 53.66-50.88 75.46s-47.2 38.93-75.46 50.88c-29.26 12.38-60.35 18.65-92.4 18.65s-63.14-6.27-92.4-18.65c-28.27-11.96-53.66-29.08-75.46-50.88s-38.93-47.2-50.88-75.46c-12.38-29.26-18.65-60.35-18.65-92.4s6.27-63.14 18.65-92.4c11.96-28.27 29.08-53.66 50.88-75.46s47.2-38.93 75.46-50.88c29.26-12.38 60.35-18.65 92.4-18.65m0-12.6c-138.07 0-250 111.93-250 250s111.93 250 250 250 250-111.93 250-250-111.93-250-250-250z"/><path class="psg-cls-4" d="m97.58 378.99c-2.56 2.17-6.41 1.81-8.5-0.81-28.94-36.31-44.81-81.58-44.81-128.18 0-64.98 30.84-126.19 82.79-164.97 2.68-2 6.5-1.37 8.42 1.37 1.85 2.64 1.25 6.27-1.33 8.2-48.93 36.54-77.98 94.2-77.98 155.4 0 43.9 14.94 86.55 42.2 120.74 2.01 2.52 1.66 6.17-0.8 8.25z"/><path class="psg-cls-4" d="m402.55 378.83c-2.46-2.08-2.81-5.73-0.81-8.25 27.17-34.17 42.07-76.76 42.07-120.58 0-61.18-29.02-118.82-77.92-155.36-2.58-1.93-3.18-5.55-1.33-8.2 1.92-2.74 5.74-3.37 8.42-1.37 51.92 38.78 82.73 99.98 82.73 164.92 0 46.52-15.82 91.73-44.67 128.01-2.08 2.62-5.94 2.98-8.49 0.82z"/><path class="psg-cls-2" d="m250 98.57c-83.5 0-151.43 67.93-151.43 151.43s67.93 151.43 151.43 151.43 151.43-67.93 151.43-151.43-67.93-151.43-151.43-151.43z"/><path class="psg-cls-4" d="m249.79 115.01c74.58 0 135.04 60.46 135.04 135.03s-60.46 135.04-135.04 135.04-135.03-60.46-135.03-135.04 60.46-135.03 135.03-135.03m0-5.57c-37.56 0-72.86 14.62-99.42 41.18s-41.18 61.86-41.18 99.42 14.63 72.86 41.18 99.42c26.56 26.56 61.86 41.18 99.42 41.18s72.86-14.62 99.42-41.18 41.18-61.87 41.18-99.42-14.62-72.86-41.18-99.42-61.86-41.18-99.42-41.18z"/><path class="psg-cls-1" d="m175.01 154.29-9.47 10.4 8.49 7.74 9.47-10.4c2.13-2.34 1.96-5.98-0.38-8.11s-5.98-1.96-8.11 0.38z"/><path class="psg-cls-1" d="m268 136.35c0-3.17-2.57-5.74-5.74-5.74h-12.93v11.48h12.93c3.17 0 5.74-2.57 5.74-5.74z"/><path class="psg-cls-1" d="m183.12 153.92c-2.34-2.13-5.98-1.96-8.11 0.38l-9.47 10.4 8.49 7.74 9.47-10.4c2.13-2.34 1.96-5.98-0.38-8.11z"/><path class="psg-cls-1" d="m268 136.35c0-3.17-2.57-5.74-5.74-5.74h-12.93v11.48h12.93c3.17 0 5.74-2.57 5.74-5.74z"/><path class="psg-cls-4" d="m287.83 167.26 13.36-32.14c-2.19-0.98-4.41-1.89-6.67-2.75l-13.35 32.12c2.26 0.84 4.48 1.76 6.66 2.77z"/><path class="psg-cls-4" d="m249.33 158.77v-10.52h8.81l7.6 12.02c3.01 0.54 5.97 1.23 8.87 2.06l-9.11-14.52c5.22-1.39 9.53-5.99 9.53-11.45 0-6.56-6.21-11.9-12.77-11.9h-19.96v34.61c2.32-0.18 4.66-0.29 7.02-0.29zm0-28.16h12.93c3.17 0 5.74 2.58 5.74 5.74s-2.57 5.74-5.74 5.74h-12.93z"/><path class="psg-cls-4" d="m186.44 183.75-7.88-7.18 9.76-10.74c4.42-4.85 4.42-12.64-0.43-17.06s-12.74-3.81-17.16 1.03l-14.49 15.95 25.25 23.01c1.58-1.74 3.24-3.39 4.95-5zm-20.91-19.06 9.47-10.4c2.13-2.34 5.77-2.51 8.11-0.38s2.51 5.77 0.38 8.11l-9.47 10.4-8.49-7.74z"/><path class="psg-cls-4" d="m318.28 154.58c5.21-1.22 14.78 8.28 16.61 14.72 1.52-1.16 4.9-3.64 4.9-3.64-4.04-11.51-20.15-23.03-27.8-15.82-4.54 4.29-1.97 10.89 2 15.06l3.84 4.05c3.93 4.13 7.35 8.25 4.2 10.85-3.36 2.78-12.76-4.18-18.4-16.13l-5.06 3.82c1.21 3.14 3.93 7.7 7.59 11.55 4.15 4.37 8.67 7.21 12.72 8.01 3.18 0.63 6.35 0.15 8.44-1.79 5.21-4.84 3.32-11.89-4.88-20.51l-3.4-3.57c-3.77-3.97-2.23-6.24-0.77-6.58z"/><path class="psg-cls-4" d="m211.39 130.23c-2.47 0.79-4.91 1.66-7.32 2.6l-2.6 39.43c2.33-1.43 4.74-2.76 7.21-3.98l0.37-9.19c4.76-2.1 9.71-3.83 14.83-5.18l6.06 6.95c2.66-0.57 5.37-1.03 8.11-1.37l-26.65-29.26zm-2.09 22.53 0.6-14.87 9.79 11.23c-3.54 1.04-7.01 2.25-10.39 3.64z"/><path class="psg-cls-1" d="m260.81 173.94c3.4 49.71 24.11 85.74 58.19 111.31 5.26-10.45 8.24-22.24 8.24-34.74 0-39.01-28.88-71.26-66.43-76.57z"/><path class="psg-cls-1" d="m238.98 173.94c-37.55 5.3-66.44 37.56-66.44 76.57 0 12.5 2.98 24.29 8.25 34.74 34.08-25.57 54.8-61.6 58.2-111.32z"/><path class="psg-cls-2" d="m249.89 275.17c-18.07 0-32.72 13.91-32.72 31.08 0 6.05 1.82 11.69 4.97 16.46 8.62 3.31 17.97 5.15 27.75 5.15s19.14-1.84 27.75-5.15c3.14-4.77 4.97-10.41 4.97-16.46 0-17.16-14.65-31.08-32.72-31.08z"/><path class="psg-cls-6" d="m278.48 252.06h-57.22c-9.48 15.74-21.73 29.31-36.04 40.86 6.19 9.42 14.37 17.4 23.95 23.35-0.36-2.04-0.55-4.13-0.55-6.27 0-21.32 18.48-38.59 41.27-38.59s41.27 17.28 41.27 38.59c0 2.13-0.19 4.23-0.55 6.27 9.58-5.94 17.75-13.92 23.94-23.32-14.33-11.56-26.58-25.14-36.07-40.89z"/><path class="psg-cls-6" d="m276.7 249.04c-12.09-21.22-19.25-46.26-19.78-75.55-2.32-0.21-4.66-0.33-7.03-0.33s-4.75 0.13-7.08 0.34c-0.53 29.29-7.69 54.34-19.78 75.55h53.68z"/><path class="psg-cls-4" d="m249.89 167.59c-45.72 0-82.92 37.2-82.92 82.92s37.2 82.92 82.92 82.92 82.92-37.19 82.92-82.92-37.2-82.92-82.92-82.92zm0 5.57c2.37 0 4.72 0.12 7.03 0.33 0.53 29.29 7.69 54.34 19.78 75.55h-53.68c12.09-21.21 19.25-46.26 19.78-75.55 2.33-0.21 4.69-0.34 7.08-0.34zm-77.35 77.35c0-39.02 28.89-71.27 66.44-76.57-3.4 49.71-24.11 85.75-58.2 111.32-5.26-10.45-8.25-22.24-8.25-34.74zm105.1 72.2c-8.62 3.32-17.97 5.15-27.75 5.15s-19.14-1.84-27.75-5.15c-3.15-4.77-4.97-10.41-4.97-16.46 0-17.16 14.65-31.08 32.72-31.08s32.72 13.91 32.72 31.08c0 6.05-1.82 11.69-4.97 16.46zm12.97-6.44c0.36-2.04 0.55-4.13 0.55-6.27 0-21.32-18.47-38.59-41.27-38.59s-41.27 17.28-41.27 38.59c0 2.13 0.19 4.23 0.55 6.27-9.58-5.95-17.76-13.93-23.95-23.35 14.31-11.56 26.56-25.13 36.04-40.86h57.22c9.49 15.75 21.74 29.33 36.07 40.89-6.18 9.4-14.36 17.38-23.94 23.32zm-29.8-142.33c37.54 5.31 66.43 37.56 66.43 76.57 0 12.5-2.98 24.29-8.24 34.74-34.08-25.57-54.79-61.6-58.19-111.31z"/><path class="psg-cls-3" d="m252.64 315.47c-0.9-0.55-1.59-1.43-1.84-2.49-0.11-0.4-0.48-0.7-0.91-0.7s-0.81 0.3-0.92 0.7c-0.25 1.06-0.93 1.94-1.84 2.49-0.16 0.1-0.18 0.17-0.11 0.3 0.55 1.09 1.48 2.44 2.61 3.35 0.16 0.13 0.22 0.14 0.26 0.14s0.09 0 0.25-0.14c1.14-0.91 2.06-2.26 2.61-3.35 0.06-0.13 0.05-0.2-0.12-0.3z"/><path class="psg-cls-3" d="m255.28 298.11c0-3.16-4.13-13.02-5.38-13.02-0.09 0-0.19 0.05-0.31 0.14-1.51 1.22-5.08 9.94-5.08 12.88 0 2.36 4.76 8.57 4.76 11.94 0 0.35 0.28 0.63 0.63 0.63s0.63-0.28 0.63-0.63v-0.02c0.02-3.38 4.76-9.57 4.76-11.92z"/><path class="psg-cls-3" d="m247.2 309.76c-2.23-5.89-6.09-9.11-10.09-9.11-3.03 0-5.48 2.45-5.48 5.48s2.46 5.48 5.48 5.48c0.9 0 1.85-0.43 2.31-0.95 0.79-0.9 0.64-1.78 0.56-1.96-0.09-0.22-0.29-0.17-0.37-0.16s-0.23 0.03-0.32 0.03c-1.02 0-1.84-0.82-1.84-1.83s0.82-1.83 1.84-1.83c1.8 0 4.98 1.73 6.69 5.43v0.01s0.01 0.02 0.01 0.03c0.11 0.22 0.35 0.37 0.61 0.37 0.38 0 0.68-0.31 0.67-0.69 0-0.1-0.03-0.2-0.07-0.28z"/><path class="psg-cls-3" d="m262.49 300.65c-4 0-7.86 3.22-10.09 9.11-0.04 0.09-0.06 0.18-0.07 0.28 0 0.37 0.3 0.68 0.67 0.69 0.27 0 0.49-0.15 0.61-0.37 0 0 0-0.02 0.01-0.03v-0.01c1.71-3.7 4.89-5.43 6.69-5.43 1.01 0 1.84 0.82 1.84 1.83s-0.82 1.83-1.84 1.83c-0.1 0-0.24-0.01-0.33-0.03-0.09-0.01-0.28-0.06-0.37 0.16-0.08 0.18-0.23 1.06 0.56 1.96 0.46 0.52 1.41 0.95 2.31 0.95 3.03 0 5.48-2.45 5.48-5.48s-2.45-5.48-5.48-5.48z"/><path class="psg-cls-4" d="m180.8 342.68-1.66-1.25 1.41-4.63-4.41-3.75-4.39 2.09-1.49-1.37 12.95-6.12 1.58 1.34-3.99 13.68zm1.68-12.62-4.48 2.12 3.11 2.64z"/><path class="psg-cls-4" d="m193.61 335.53-7.27 11.02-1.56-1.03 7.26-11.02 1.56 1.03z"/><path class="psg-cls-4" d="m199.3 339.16 2.25 12.31h0.03s4.58-8.71 4.58-8.71l1.65 0.87-6.02 11.5-1.64-0.75-2.26-12.45h-0.03s-4.66 8.84-4.66 8.84l-1.6-0.93 6.06-11.54 1.65 0.87z"/><path class="psg-cls-4" d="m221.73 348.75-0.62 1.76-4.29-1.5-3.69 10.59-1.76-0.62 3.69-10.58-4.29-1.5 0.61-1.76 10.36 3.6z"/><path class="psg-cls-4" d="m250.23 358.43 5.95 0.1-0.06 3.44c-0.04 2.33-2.62 3.85-5.87 3.79-3.46-0.06-7.03-2.49-6.96-6.89 0.06-3.7 3.06-6.69 7.21-6.62 3.09 0.05 4.69 1.7 5.44 2.44l-1.32 1.31c-0.63-0.63-1.61-1.84-3.96-1.88-3.44-0.06-5.47 2.16-5.51 4.87-0.04 2.54 1.93 4.85 5.21 4.91 2.25 0.04 3.87-0.98 3.89-2.08l0.03-1.45-4.08-0.07z"/><path class="psg-cls-4" d="m270.44 350.59 0.27 1.85-8.66 1.24 0.48 3.37 4.37-0.63 0.26 1.85-4.37 0.63 0.56 3.92 8.99-1.29 0.26 1.85-10.83 1.55-1.84-12.84 10.51-1.51z"/><path class="psg-cls-4" d="m282.22 347.32c1.99-0.6 4.19-0.16 4.96 2.37 0.81 2.7-0.74 4.09-1.76 4.48l4.05 4.37-1.96 0.7-4.03-4.42-4.62 1.39 1.56 5.21-1.79 0.51-3.74-12.42 7.32-2.2zm-4.99 3.45 1.1 3.66 5.53-1.67c1.34-0.4 1.89-1.33 1.53-2.54-0.42-1.41-1.6-1.43-2.63-1.12l-5.53 1.66z"/><path class="psg-cls-4" d="m322.43 339.85-1.63 1.3-4.01-2.46-4.72 3.36 0.91 4.7-1.66 1.06-2.74-13.95 1.69-1.2zm-11.69-4.69 0.95 4.86 3.33-2.37z"/><path class="psg-cls-4" d="m318.38 326.2 8.85 9.53-1.4 1.24-8.83-9.5 1.37-1.27z"/><path class="psg-cls-4" d="m323.53 321.12 12.48 0.86 0.02-0.02-7.33-6.59 1.25-1.39 9.64 8.67-1.12 1.39-12.62-0.86-0.02 0.03 7.42 6.68-1.31 1.34-9.67-8.71 1.25-1.39z"/><polygon class="psg-cls-4" points="292.01 343.42 290.34 344.27 296.01 355.94 297.7 355.18 293.78 346.89 293.81 346.87 301.34 351.98 301.63 342.88 301.66 342.86 306.08 350.93 307.7 350.02 301.56 338.55 299.89 339.4 299.61 348.59"/><path class="psg-cls-4" d="m175.9 321.83c-1.06-3.96-5.08-7.84-8.11-7.84-0.68 0-1.28 0.2-1.8 0.58-0.61 0.45-0.98 1.06-1.08 1.8-0.17 1.16 0.3 2.62 1.26 3.9l1.38 1.85c1.07 1.43 2.1 2.93 1.89 4.11-0.08 0.47-0.35 0.86-0.8 1.14-0.24 0.16-0.52 0.23-0.84 0.23-1.88 0-5.05-3.34-6.61-8.14l-0.03-0.09-1.36 1.28-0.03 0.03v0.03c0.31 1.2 1.13 3.13 2.5 4.97 1.44 1.93 3.09 3.26 4.63 3.76 0.5 0.16 0.98 0.24 1.45 0.24 0.68 0 1.27-0.17 1.73-0.51 0.75-0.55 1.2-1.25 1.32-2.07 0.23-1.53-0.58-3.55-2.41-6l-1.22-1.63c-0.97-1.3-0.93-2.15-0.73-2.63 0.18-0.42 0.57-0.71 1.01-0.77h0.21c2.23 0 5.38 3.69 6.2 6.56l0.02 0.07 0.06-0.04c0.46-0.27 1-0.57 1.33-0.76l0.04-0.02v-0.04z"/><path class="psg-cls-4" d="m232.91 358.98-4.62-1.02 0.42-1.87 4.61 1.04-0.42 1.84z"/></g></svg>
