<svg width="32" height="32" viewBox="0 0 32 32" fill="none" xmlns="http://www.w3.org/2000/svg">
<circle cx="16" cy="16" r="16" fill="url(#paint0_linear_819_5388)"/>
<path d="M8.71531 17.0518L9.23317 15.0093H9.63496L8.91844 17.4245H8.65728L8.71531 17.0518ZM8.2979 15.0093L8.83808 17.0629L8.88049 17.4245H8.62156L7.89612 15.0093H8.2979Z" fill="white"/>
<path d="M12.125 17.4692C11.9807 17.4692 11.8505 17.4476 11.7344 17.4044C11.6183 17.3613 11.5194 17.2958 11.4375 17.208C11.3557 17.1187 11.2932 17.0064 11.25 16.871C11.2069 16.7355 11.1853 16.5756 11.1853 16.391V16.1187C11.1853 15.9059 11.2098 15.7259 11.2589 15.5785C11.3095 15.4312 11.3772 15.3129 11.4621 15.2236C11.5469 15.1329 11.6429 15.0674 11.75 15.0272C11.8572 14.9855 11.9673 14.9647 12.0804 14.9647C12.2322 14.9647 12.3616 14.9893 12.4688 15.0384C12.5759 15.0875 12.663 15.1604 12.7299 15.2571C12.7969 15.3538 12.846 15.4729 12.8772 15.6143C12.91 15.7556 12.9264 15.9186 12.9264 16.1031V16.333H11.4174V15.996H12.5313V15.9402C12.5253 15.8152 12.5082 15.705 12.4799 15.6098C12.4531 15.5146 12.4085 15.4402 12.346 15.3866C12.2835 15.3315 12.195 15.304 12.0804 15.304C12.0075 15.304 11.9397 15.3166 11.8772 15.3419C11.8162 15.3657 11.7634 15.4082 11.7188 15.4692C11.6756 15.5287 11.6414 15.6113 11.6161 15.7169C11.5923 15.8226 11.5804 15.9565 11.5804 16.1187V16.391C11.5804 16.5205 11.5923 16.6321 11.6161 16.7259C11.6414 16.8181 11.6778 16.8948 11.7255 16.9558C11.7746 17.0153 11.8341 17.0599 11.904 17.0897C11.9755 17.118 12.0566 17.1321 12.1473 17.1321C12.2798 17.1321 12.3892 17.1068 12.4755 17.0562C12.5618 17.0041 12.6369 16.9379 12.7009 16.8576L12.9085 17.1053C12.8653 17.1663 12.8088 17.2251 12.7389 17.2817C12.6704 17.3367 12.5856 17.3821 12.4844 17.4178C12.3847 17.4521 12.2649 17.4692 12.125 17.4692Z" fill="white"/>
<path d="M15.441 17.4245H14.8874L14.8919 17.0741H15.441C15.6359 17.0741 15.7944 17.0369 15.9164 16.9625C16.0384 16.8866 16.1285 16.775 16.1865 16.6277C16.2445 16.4788 16.2736 16.2951 16.2736 16.0763V15.5205C16.2736 15.3479 16.2572 15.1991 16.2244 15.0741C16.1917 14.9491 16.1426 14.8464 16.0771 14.766C16.0116 14.6857 15.9291 14.6262 15.8294 14.5875C15.7297 14.5473 15.6128 14.5272 15.4789 14.5272H14.8762V14.1745H15.4789C15.6619 14.1745 15.8271 14.2035 15.9744 14.2616C16.1218 14.3181 16.2483 14.4037 16.3539 14.5183C16.4596 14.6314 16.5399 14.772 16.595 14.9402C16.6515 15.1083 16.6798 15.3032 16.6798 15.525V16.0763C16.6798 16.298 16.6515 16.493 16.595 16.6611C16.5399 16.8293 16.4588 16.9699 16.3517 17.083C16.2445 17.1961 16.1143 17.2817 15.9611 17.3397C15.8093 17.3963 15.6359 17.4245 15.441 17.4245ZM15.1151 14.1745V17.4245H14.7044V14.1745H15.1151Z" fill="white"/>
<path d="M19.5672 14.4625L18.6788 17.4245H18.2591L19.306 14.1745H19.5694L19.5672 14.4625ZM20.2859 17.4245L19.3975 14.4625L19.3931 14.1745H19.6587L20.7056 17.4245H20.2859ZM20.2859 16.2214V16.5741H18.719V16.2214H20.2859Z" fill="white"/>
<path d="M24.4858 15.5183V16.083C24.4858 16.3122 24.4605 16.5138 24.4099 16.6879C24.3608 16.8605 24.2886 17.0049 24.1934 17.121C24.0982 17.237 23.9836 17.3241 23.8496 17.3821C23.7157 17.4402 23.5647 17.4692 23.3965 17.4692C23.2343 17.4692 23.0863 17.4402 22.9523 17.3821C22.8184 17.3241 22.7031 17.237 22.6063 17.121C22.5096 17.0049 22.4345 16.8605 22.3809 16.6879C22.3288 16.5138 22.3028 16.3122 22.3028 16.083V15.5183C22.3028 15.2891 22.3288 15.0882 22.3809 14.9156C22.433 14.7415 22.5074 14.5964 22.6041 14.4803C22.7008 14.3643 22.8162 14.2772 22.9501 14.2192C23.084 14.1596 23.2321 14.1299 23.3943 14.1299C23.5624 14.1299 23.7135 14.1596 23.8474 14.2192C23.9828 14.2772 24.0974 14.3643 24.1912 14.4803C24.2864 14.5964 24.3593 14.7415 24.4099 14.9156C24.4605 15.0882 24.4858 15.2891 24.4858 15.5183ZM24.0796 16.083V15.5138C24.0796 15.3352 24.0647 15.182 24.0349 15.054C24.0052 14.9245 23.9613 14.8189 23.9032 14.737C23.8452 14.6552 23.7738 14.5949 23.6889 14.5562C23.6041 14.516 23.5059 14.496 23.3943 14.496C23.2886 14.496 23.1934 14.516 23.1086 14.5562C23.0252 14.5949 22.9538 14.6552 22.8943 14.737C22.8348 14.8189 22.7886 14.9245 22.7559 15.054C22.7246 15.182 22.709 15.3352 22.709 15.5138V16.083C22.709 16.2631 22.7246 16.4178 22.7559 16.5473C22.7886 16.6753 22.8348 16.7809 22.8943 16.8643C22.9553 16.9461 23.0282 17.0071 23.113 17.0473C23.1979 17.086 23.2924 17.1053 23.3965 17.1053C23.5081 17.1053 23.6063 17.086 23.6912 17.0473C23.7775 17.0071 23.8489 16.9461 23.9055 16.8643C23.9635 16.7809 24.0066 16.6753 24.0349 16.5473C24.0647 16.4178 24.0796 16.2631 24.0796 16.083Z" fill="white"/>
<defs>
<linearGradient id="paint0_linear_819_5388" x1="16" y1="0" x2="16" y2="32" gradientUnits="userSpaceOnUse">
<stop stop-color="#00FEDA"/>
<stop offset="1" stop-color="#00C1D6"/>
</linearGradient>
</defs>
</svg>
