<svg xmlns="http://www.w3.org/2000/svg" width="24" height="24" viewBox="0 0 24 24" fill="none">
  <path d="M0.000244141 12.0001C0.000244141 5.37274 5.37274 0.000244141 12.0001 0.000244141C18.6274 0.000244141 23.9999 5.37274 23.9999 12.0001C23.9999 18.6274 18.6274 23.9999 12.0001 23.9999C5.37274 23.9999 0.000244141 18.6274 0.000244141 12.0001Z" fill="#FC7A4A"/>
  <path fill-rule="evenodd" clip-rule="evenodd" d="M13.4415 13.0376V13.0361C13.359 13.0421 12.9337 13.0676 11.985 13.0676C11.2275 13.0676 10.6943 13.0451 10.5068 13.0361V13.0384C7.5908 12.9101 5.41434 12.4024 5.41434 11.7949C5.41434 11.1882 7.5908 10.6804 10.5068 10.5499V12.5329C10.6973 12.5464 11.2432 12.5786 11.9977 12.5786C12.903 12.5786 13.3567 12.5411 13.4415 12.5336V10.5514C16.3514 10.6812 18.5226 11.1889 18.5226 11.7949C18.5226 12.4024 16.3514 12.9086 13.4415 13.0376ZM13.4415 10.3452V8.5707H17.5019V5.86475H6.44632V8.5707H10.5068V10.3444C7.20681 10.4959 4.7251 11.1499 4.7251 11.9329C4.7251 12.7159 7.20681 13.3691 10.5068 13.5214V19.2078H13.4415V13.5199C16.7362 13.3684 19.2119 12.7151 19.2119 11.9329C19.2119 11.1507 16.7362 10.4974 13.4415 10.3452Z" fill="white"/>
</svg>