<svg width="56" height="56" viewBox="0 0 56 56" fill="none" xmlns="http://www.w3.org/2000/svg">
<path d="M0.0648749 5.6875C4.00958 5.6875 7.95429 5.6875 12.0185 5.6875C12.044 9.00391 12.044 9.00391 12.0517 10.0487C12.0542 10.3594 12.0542 10.3594 12.0568 10.6701C12.0579 10.8079 12.0589 10.9456 12.0598 11.0833C12.0613 11.2927 12.063 11.5021 12.0649 11.7115C12.0652 11.7722 12.0655 11.8329 12.0659 11.8955C12.0793 13.2381 12.4932 14.4969 13.423 15.498C13.958 16.0089 14.6363 16.3176 15.3787 16.3146C15.4528 16.3149 15.5269 16.3152 15.6033 16.3155C15.8141 16.3086 16.0162 16.2773 16.2242 16.2422C17.4871 16.0384 18.6869 16.1339 19.8321 16.7082C19.8911 16.7359 19.95 16.7637 20.0107 16.7922C21.5188 17.5142 22.4961 18.8264 23.0893 20.3512C23.1113 20.419 23.1332 20.4868 23.1558 20.5567C23.1787 20.6219 23.1787 20.6219 23.2021 20.6885C23.4077 21.3625 23.3551 22.081 23.3518 22.7784C23.3411 23.7467 23.3411 23.7467 23.6806 24.6384C23.7099 24.6928 23.7392 24.7471 23.7693 24.8031C24.3426 25.8352 25.3829 26.5377 26.4795 26.9125C26.5332 26.9311 26.5869 26.9497 26.6422 26.9688C27.5224 27.2208 28.5824 27.179 29.4534 26.9125C29.534 26.8892 29.534 26.8892 29.6162 26.8654C30.3451 26.6288 30.9533 26.2233 31.4942 25.688C31.5362 25.6489 31.5781 25.6098 31.6213 25.5696C32.2146 25.0054 32.6673 24.2541 32.6906 23.4197C32.6905 23.183 32.6839 22.947 32.675 22.7105C32.6695 22.5204 32.6651 22.3302 32.6614 22.14C32.66 22.0713 32.66 22.0713 32.6586 22.0013C32.6392 20.3731 33.3877 18.9826 34.4863 17.8307C35.1145 17.2256 35.8164 16.7956 36.6256 16.4749C36.6652 16.4591 36.7048 16.4432 36.7456 16.4268C37.7466 16.0439 38.8983 16.092 39.9406 16.2731C40.8246 16.4026 41.6099 16.2494 42.34 15.7169C42.6091 15.4836 42.6091 15.4836 42.8065 15.1921C42.845 15.1921 42.8835 15.1921 42.9231 15.1921C42.9363 15.1536 42.9496 15.1151 42.9632 15.0755C43.0397 14.9006 43.0397 14.9006 43.1673 14.7111C43.3245 14.4659 43.4353 14.2067 43.5463 13.9384C43.5636 13.8969 43.581 13.8554 43.5989 13.8127C43.8924 13.0881 43.922 12.3667 43.9264 11.5923C43.927 11.5269 43.9275 11.4615 43.9281 11.3941C43.93 11.185 43.9314 10.976 43.9328 10.7669C43.9339 10.6368 43.935 10.5066 43.9361 10.3765C43.9401 9.89712 43.9436 9.41771 43.9472 8.93831C43.9556 7.86554 43.964 6.79278 43.9727 5.6875C47.9174 5.6875 51.8621 5.6875 55.9264 5.6875C55.9336 7.43195 55.9336 7.43195 55.9409 9.21164C55.9431 9.57706 55.9452 9.94247 55.9474 10.319C55.9484 10.7697 55.9484 10.7697 55.9486 10.9817C55.949 11.1277 55.9498 11.2738 55.951 11.4199C55.9647 13.1926 55.6279 14.6387 54.3856 15.9739C53.9197 16.4445 53.3845 16.7958 52.7776 17.0581C52.6892 17.0974 52.6892 17.0974 52.599 17.1375C51.6729 17.538 50.7397 17.6961 49.7345 17.7286C48.9922 17.7533 48.2619 17.829 47.588 18.166C47.5245 18.1977 47.4611 18.2294 47.3957 18.2621C46.2606 18.8569 45.4529 19.8472 45.066 21.071C44.7829 22.0558 44.8174 23.0865 45.1389 24.0553C45.1571 24.1102 45.1753 24.1651 45.194 24.2216C45.6171 25.3698 46.5074 26.2678 47.5825 26.8255C48.3231 27.158 49.0938 27.2239 49.8949 27.2551C50.8919 27.3036 51.8881 27.4188 52.7776 27.9038C52.8474 27.9385 52.9174 27.9731 52.9874 28.0075C54.2386 28.633 55.2077 29.6607 55.6697 30.9923C55.7403 31.2057 55.808 31.419 55.868 31.6357C55.8796 31.6762 55.8911 31.7167 55.9029 31.7584C55.999 32.1348 56.0025 32.5025 55.9993 32.8894C55.9989 32.9562 55.9985 33.023 55.9981 33.0919C55.9808 34.5162 55.675 35.8741 54.7602 37.0003C54.7025 37.0748 54.7025 37.0748 54.6438 37.1508C54.4705 37.3599 54.267 37.525 54.0604 37.7C54.0063 37.7493 53.9522 37.7986 53.8964 37.8494C53.4361 38.2268 52.8651 38.4355 52.3111 38.6329C52.2649 38.6497 52.2187 38.6665 52.171 38.6837C51.5299 38.9075 50.8808 39.0208 50.2083 39.1031C49.1877 39.2223 49.1877 39.2223 48.2002 39.493C48.1577 39.5085 48.1151 39.524 48.0712 39.5399C47.2263 39.8553 46.4475 40.3672 45.9553 41.1403C45.9182 41.1916 45.9182 41.1916 45.8803 41.2439C45.6319 41.6033 45.5083 42.0113 45.3722 42.4231C45.3337 42.5386 45.2952 42.654 45.2555 42.773C45.0214 45.1925 45.0481 47.6311 45.0223 50.0618C41.0968 50.0618 37.1714 50.0618 33.1269 50.0618C33.1179 48.3823 33.1179 48.3823 33.1087 46.6689C33.1061 46.3178 33.1034 45.9666 33.1007 45.6049C33.0994 45.17 33.0994 45.17 33.0991 44.9652C33.0987 44.8247 33.0977 44.6843 33.0962 44.5439C33.0845 43.389 33.1588 42.295 33.7101 41.2569C33.7321 41.209 33.7541 41.1612 33.7768 41.1118C33.9607 40.7162 34.202 40.377 34.4681 40.0324C34.4939 39.9981 34.5198 39.9639 34.5464 39.9285C35.2954 38.9771 36.398 38.4565 37.5585 38.2248C37.6333 38.209 37.6333 38.209 37.7095 38.1929C38.129 38.1126 38.5374 38.0984 38.9626 38.098C39.8592 38.0971 40.6415 38.0293 41.4654 37.6417C41.504 37.624 41.5427 37.6063 41.5825 37.5881C42.3028 37.2486 42.9598 36.6824 43.3896 36.009C43.4321 35.9459 43.4321 35.9459 43.4755 35.8816C44.0074 35.0532 44.2291 34.201 44.2242 33.2246C44.2237 33.1242 44.2237 33.1242 44.2233 33.0217C44.2054 31.7241 43.709 30.6168 42.8295 29.6688C41.6696 28.6006 40.2681 28.2738 38.7357 28.2828C38.6871 28.283 38.6384 28.2831 38.5883 28.2833C37.2837 28.2906 36.1995 28.5429 35.2252 29.4695C34.2731 30.5004 34.0259 31.6413 34.0313 32.9906C34.0328 34.425 33.5692 35.6515 32.6605 36.767C32.6136 36.8271 32.5667 36.8873 32.5183 36.9492C31.721 37.8438 30.6514 38.422 29.5117 38.7496C29.4605 38.7649 29.4093 38.7802 29.3565 38.796C28.9059 38.9212 28.484 38.9541 28.0175 38.95C27.9461 38.9496 27.8747 38.9491 27.8011 38.9487C26.2624 38.9209 24.8063 38.2906 23.7075 37.2037C23.5775 37.0613 23.4533 36.9159 23.3308 36.767C23.29 36.7196 23.2493 36.6722 23.2073 36.6233C22.2612 35.4933 21.9514 34.1664 21.9654 32.731C21.9731 31.5585 21.6638 30.3998 20.8234 29.5365C19.8174 28.5963 18.6932 28.279 17.3373 28.286C17.1907 28.2865 17.0442 28.2848 16.8976 28.2829C15.549 28.2772 14.2312 28.6842 13.2216 29.6126C12.2368 30.6352 11.7752 31.7825 11.7744 33.1955C11.7736 33.2613 11.7729 33.3272 11.7722 33.395C11.7699 34.6924 12.3271 35.848 13.2319 36.7666C13.7702 37.2875 14.4118 37.6182 15.109 37.8749C15.1508 37.8911 15.1927 37.9073 15.2358 37.9241C15.6426 38.0658 16.0356 38.0747 16.4636 38.0779C18.1963 38.0939 19.8835 38.3243 21.1617 39.6135C21.2645 39.7323 21.3653 39.8524 21.4648 39.9741C21.5065 40.0245 21.5481 40.075 21.591 40.1269C22.1232 40.8008 22.4709 41.535 22.6894 42.3648C22.7049 42.423 22.7205 42.4812 22.7365 42.5412C22.8473 42.9833 22.8887 43.3911 22.8842 43.8459C22.8842 43.9148 22.8842 43.9836 22.8842 44.0546C22.8841 44.2747 22.8828 44.4947 22.8814 44.7148C22.8811 44.8518 22.8809 44.9888 22.8808 45.1258C22.8799 45.6305 22.8775 46.1351 22.8752 46.6397C22.8716 47.769 22.868 48.8983 22.8643 50.0618C18.9388 50.0618 15.0134 50.0618 10.9689 50.0618C10.9497 48.253 10.9305 46.4442 10.9106 44.5806C10.6687 42.1708 10.6687 42.1708 9.29024 40.3016C8.51667 39.696 7.46796 39.2711 6.48264 39.1814C4.32564 38.9837 2.50288 38.4627 1.0393 36.7893C0.370876 35.9403 0.0344052 34.7454 0.00656439 33.6766C0.00537113 33.6317 0.00417787 33.5868 0.00294846 33.5405C-0.0341062 31.9196 0.269582 30.4083 1.39873 29.1866C1.86545 28.7 2.38187 28.3292 2.9804 28.0204C3.0326 27.9911 3.0326 27.9911 3.08586 27.9612C3.95598 27.4897 4.96358 27.3102 5.94032 27.2711C7.4784 27.206 8.81639 26.8572 9.90842 25.6953C10.8146 24.6334 11.1761 23.3702 11.0983 21.9932C10.9962 20.7624 10.3662 19.6059 9.42804 18.8085C8.51689 18.0937 7.55544 17.7825 6.40673 17.7416C5.27395 17.7 4.18554 17.5514 3.15533 17.0581C3.11824 17.0403 3.08114 17.0226 3.04293 17.0043C2.49467 16.7339 2.06987 16.3757 1.63926 15.9502C1.59611 15.9112 1.55297 15.8723 1.50852 15.8322C0.6878 15.0753 0.131009 13.7875 0.052293 12.6832C0.032504 12.1869 0.0380375 11.6905 0.0420974 11.194C0.0424411 11.0526 0.0426786 10.9112 0.0428092 10.7697C0.0440229 10.2504 0.0472792 9.73101 0.0502973 9.21164C0.0551079 8.04868 0.0599185 6.88571 0.0648749 5.6875Z" fill="#FFD935"/>
</svg>
