<svg width="24" height="24" viewBox="0 0 24 24" fill="none" xmlns="http://www.w3.org/2000/svg">
<path d="M0 12C0 5.37258 5.37258 0 12 0C18.6274 0 24 5.37258 24 12C24 18.6274 18.6274 24 12 24C5.37258 24 0 18.6274 0 12Z" fill="#0EA5E9" style="fill:#0EA5E9;fill:color(display-p3 0.0549 0.6471 0.9137);fill-opacity:1;"/>
<path d="M11.4261 2.09425C11.3537 2.16071 11.2831 2.22849 11.2094 2.29275C10.093 3.26926 8.97626 4.24562 7.85904 5.22184C6.89131 6.06778 5.92388 6.91372 4.95674 7.75966C4.93809 7.77689 4.92521 7.79949 4.91988 7.82436C4.80725 8.42881 4.6955 9.03341 4.58462 9.63815C4.45561 10.3391 4.32675 11.0406 4.19803 11.7424C4.06668 12.4596 3.93503 13.1765 3.8031 13.8934C3.68608 14.5324 3.56833 15.1717 3.44985 15.811C3.38549 16.1631 3.32128 16.5138 3.25722 16.863L3.24844 16.903C3.20017 16.815 3.16068 16.741 3.1168 16.6689C3.10094 16.6441 3.0902 16.6163 3.08523 16.5873C3.08025 16.5583 3.08114 16.5285 3.08783 16.4999C3.22123 15.7868 3.35288 15.0735 3.48276 14.3599C3.60739 13.6809 3.73186 13.002 3.85619 12.323C3.98462 11.6249 4.1129 10.9269 4.24103 10.2288L4.56093 8.4872C4.66361 7.92618 4.766 7.36471 4.8681 6.80281C4.87532 6.77593 4.89065 6.75195 4.91198 6.73414C5.62753 6.10827 6.34309 5.48284 7.05865 4.85785L9.40191 2.80946C9.60288 2.63341 9.80298 2.45736 10.0053 2.2813C10.03 2.25893 10.0603 2.24372 10.093 2.23729C10.4991 2.16374 10.9095 2.11742 11.3217 2.09865C11.3365 2.09674 11.3512 2.09379 11.3656 2.08984L11.4261 2.09425Z" fill="#F7FAFD" style="fill:#F7FAFD;fill:color(display-p3 0.9686 0.9804 0.9922);fill-opacity:1;"/>
<path d="M9.86543 21.6851C9.63286 21.627 9.40731 21.5694 9.18088 21.5148C9.14402 21.5056 9.1392 21.4897 9.14534 21.4558C9.35948 20.2947 9.57289 19.1337 9.78557 17.9726C9.85885 17.5716 9.93169 17.1707 10.0076 16.7706C10.0155 16.7407 10.0326 16.7141 10.0563 16.6944C10.6121 16.2059 11.1697 15.7181 11.7291 15.231L13.967 13.2759C14.9397 12.425 15.9124 11.5741 16.8851 10.7231L20.5571 7.51367C20.565 7.50663 20.5733 7.50091 20.5865 7.49122C20.597 7.50883 20.6071 7.52379 20.6155 7.54008C20.8141 7.94018 20.9867 8.35271 21.1324 8.7751C21.14 8.79116 21.1414 8.80948 21.1364 8.82653C21.1314 8.84359 21.1203 8.85819 21.1052 8.86752C19.7668 10.0359 18.429 11.2051 17.0918 12.375L13.6901 15.3494C12.6449 16.2631 11.5996 17.1773 10.5544 18.0919C10.5352 18.1087 10.5218 18.1312 10.5162 18.1561C10.4191 18.6775 10.323 19.1992 10.2279 19.7212L9.89615 21.5302C9.88562 21.5773 9.87684 21.627 9.86543 21.6851Z" fill="#F7FAFD" style="fill:#F7FAFD;fill:color(display-p3 0.9686 0.9804 0.9922);fill-opacity:1;"/>
<path d="M11.0837 21.847L10.2543 21.7546C10.2728 21.6521 10.2894 21.5596 10.3066 21.4668C10.4382 20.7479 10.5698 20.029 10.7015 19.3101C10.7546 19.0201 10.8072 18.7296 10.8625 18.4395C10.8688 18.4096 10.8841 18.3824 10.9064 18.3616C12.2141 17.2173 13.5223 16.0729 14.8312 14.9286L21.2606 9.30628C21.2672 9.30056 21.2742 9.29615 21.2878 9.28559C21.3164 9.39342 21.3453 9.49598 21.3708 9.59897C21.4747 10.0204 21.5518 10.4481 21.6016 10.8793C21.6068 10.9037 21.605 10.929 21.5964 10.9523C21.5879 10.9757 21.573 10.9961 21.5533 11.0114C20.5262 11.9069 19.4992 12.8046 18.4724 13.7045L12.0811 19.2943C11.8828 19.4677 11.684 19.6402 11.487 19.8149C11.4671 19.8335 11.4535 19.8578 11.4479 19.8845C11.3309 20.52 11.2139 21.1557 11.0969 21.7916C11.0938 21.803 11.0898 21.818 11.0837 21.847Z" fill="#F7FAFD" style="fill:#F7FAFD;fill:color(display-p3 0.9686 0.9804 0.9922);fill-opacity:1;"/>
<path d="M8.67579 21.3629L8.04609 21.1291C8.07988 20.9425 8.11235 20.7629 8.14526 20.5834L8.46911 18.8228C8.60485 18.0852 8.74058 17.3475 8.87632 16.6098C8.96789 16.111 9.05989 15.6122 9.15234 15.1134C9.15789 15.0867 9.17153 15.0624 9.19139 15.0438C10.1132 14.2363 11.0356 13.4294 11.9585 12.6231L19.5755 5.9621C19.5834 5.95506 19.5917 5.94846 19.6053 5.93746C19.8687 6.27815 20.1093 6.63603 20.3254 7.00874L12.3491 13.9814C11.4583 14.7604 10.5672 15.5388 9.67584 16.3167C9.61788 16.3633 9.57912 16.4298 9.56702 16.5033C9.41694 17.3369 9.26424 18.1698 9.1089 19.002C8.97725 19.7188 8.84561 20.4359 8.71396 21.1534C8.70255 21.2203 8.68983 21.2876 8.67579 21.3629Z" fill="#F7FAFD" style="fill:#F7FAFD;fill:color(display-p3 0.9686 0.9804 0.9922);fill-opacity:1;"/>
<path d="M21.6439 11.382C21.6491 11.526 21.6553 11.6554 21.6583 11.7848C21.6691 12.2965 21.6397 12.8084 21.5706 13.3155C21.5614 13.3869 21.5517 13.4582 21.5381 13.529C21.5327 13.5523 21.5203 13.5734 21.5026 13.5893C21.0087 14.0224 20.5145 14.4548 20.0198 14.8864L15.009 19.2679C14.1472 20.0191 13.2865 20.771 12.427 21.5236C12.3979 21.5484 12.3791 21.5833 12.3744 21.6213C12.3616 21.6992 12.3463 21.7763 12.3305 21.8608H11.3941C11.4309 21.6583 11.466 21.4646 11.502 21.2683C11.574 20.8763 11.6471 20.4843 11.7214 20.0923C11.7264 20.0673 11.739 20.0444 11.7574 20.0267C12.6622 19.2345 13.5674 18.4422 14.4728 17.65L21.571 11.4472L21.6439 11.382Z" fill="#F7FAFD" style="fill:#F7FAFD;fill:color(display-p3 0.9686 0.9804 0.9922);fill-opacity:1;"/>
<path d="M7.50882 20.8911C7.33813 20.7995 7.17138 20.7106 7.00595 20.6195C6.99932 20.6129 6.99429 20.6049 6.99125 20.596C6.98821 20.5872 6.98723 20.5778 6.98839 20.5685C7.06124 20.1635 7.13627 19.7595 7.21043 19.3555L7.56148 17.4321C7.68523 16.7572 7.80927 16.0816 7.9336 15.4052C8.05061 14.7597 8.1688 14.1152 8.28816 13.4717C8.29246 13.4338 8.31059 13.3989 8.33906 13.3736C9.15379 12.6629 9.96822 11.9514 10.7824 11.2389L18.3378 4.63779L18.3817 4.60082L19.2155 5.44368L19.1567 5.49782L11.6903 12.025C10.6956 12.895 9.69996 13.7649 8.70327 14.6346C8.67165 14.6617 8.65117 14.6997 8.64579 14.7411C8.44393 15.847 8.2412 16.9528 8.03759 18.0584L7.51936 20.8656C7.51641 20.8743 7.51289 20.8828 7.50882 20.8911Z" fill="#F7FAFD" style="fill:#F7FAFD;fill:color(display-p3 0.9686 0.9804 0.9922);fill-opacity:1;"/>
<path d="M16.889 3.49346L17.8149 4.1299L15.0802 6.52115C14.171 7.31574 13.2614 8.11106 12.3516 8.90712L9.83417 11.1078C9.14407 11.7111 8.45425 12.3145 7.76473 12.9181C7.73967 12.9409 7.72208 12.9708 7.71427 13.0039C7.5993 13.6201 7.48579 14.2363 7.37375 14.8525L6.98803 16.9519C6.864 17.6312 6.73967 18.3102 6.61504 18.9888L6.39256 20.2019C6.38891 20.2159 6.38451 20.2297 6.3794 20.2432C6.2381 20.1433 6.10032 20.0469 5.96384 19.9483C5.95833 19.9416 5.95436 19.9337 5.95224 19.9253C5.95011 19.9168 5.94988 19.908 5.95156 19.8995C6.02616 19.4846 6.10163 19.0698 6.17799 18.6552C6.27131 18.147 6.36463 17.6389 6.45795 17.131C6.56882 16.528 6.67969 15.9252 6.79057 15.3225C6.90758 14.6832 7.0246 14.0438 7.14162 13.4044C7.24079 12.8633 7.34025 12.3226 7.44001 11.7821C7.44722 11.7554 7.46256 11.7317 7.48389 11.7143C8.01047 11.2513 8.53909 10.789 9.06976 10.3274L16.81 3.563L16.889 3.49346Z" fill="#F7FAFD" style="fill:#F7FAFD;fill:color(display-p3 0.9686 0.9804 0.9922);fill-opacity:1;"/>
<path d="M12.5637 21.8347C12.5624 21.8013 12.5687 21.768 12.5823 21.7375C12.5958 21.707 12.6162 21.68 12.6418 21.6586C13.7599 20.6836 14.877 19.7077 15.9931 18.7309L21.4054 13.9999L21.4664 13.9484C21.4427 14.0579 21.4225 14.153 21.4014 14.2472C21.1426 15.3506 20.6952 16.4007 20.0793 17.351C20.0594 17.382 20.0353 17.41 20.0077 17.4342C18.9365 18.3732 17.8647 19.3104 16.7926 20.2458C16.5556 20.4527 16.3187 20.6592 16.0817 20.8655C16.0469 20.8972 16.0079 20.924 15.9658 20.9452C15.1592 21.3249 14.3036 21.5895 13.4238 21.7313C13.1544 21.7753 12.8819 21.8008 12.6107 21.8342C12.5951 21.8353 12.5794 21.8355 12.5637 21.8347Z" fill="#F7FAFD" style="fill:#F7FAFD;fill:color(display-p3 0.9686 0.9804 0.9922);fill-opacity:1;"/>
<path d="M16.1106 3.08138L7.48487 10.6235C7.26283 10.8178 7.04094 11.0122 6.81919 11.2067C6.80146 11.2227 6.78905 11.2437 6.78365 11.267C6.59408 12.294 6.4051 13.3202 6.2167 14.3457C6.00607 15.4933 5.79559 16.6406 5.58525 17.7876C5.48871 18.3131 5.39246 18.8385 5.29651 19.3637C5.29404 19.3758 5.29097 19.3877 5.28729 19.3994C5.27413 19.3897 5.26316 19.3831 5.25395 19.3747C5.16618 19.2964 5.08632 19.2141 4.99724 19.1406C4.97583 19.1238 4.96012 19.1008 4.95227 19.0747C4.94441 19.0486 4.94479 19.0207 4.95336 18.9949C5.14819 17.9444 5.34156 16.8938 5.53347 15.8431C5.70724 14.8983 5.88115 13.9533 6.05522 13.0082C6.1933 12.2547 6.33123 11.5012 6.46902 10.7476C6.50719 10.5386 6.54537 10.3295 6.5853 10.1209C6.59034 10.0992 6.60181 10.0796 6.61821 10.0646C7.71349 9.10594 8.80921 8.14792 9.90536 7.19048L12.8235 4.6377C13.5662 3.98865 14.309 3.33915 15.0518 2.68922C15.0626 2.67722 15.0769 2.66903 15.0927 2.66586C15.1085 2.66269 15.1249 2.66471 15.1395 2.67162C15.4701 2.79111 15.7943 2.92789 16.1106 3.08138Z" fill="#F7FAFD" style="fill:#F7FAFD;fill:color(display-p3 0.9686 0.9804 0.9922);fill-opacity:1;"/>
<path d="M4.23559 18.326C4.14783 18.2168 4.07016 18.1187 3.99424 18.0179C3.98368 17.9984 3.98086 17.9756 3.98634 17.9541C4.04251 17.6411 4.10044 17.3282 4.15792 17.0157C4.26909 16.4127 4.37981 15.8097 4.4901 15.2068C4.60361 14.5865 4.71741 13.9662 4.8315 13.3459L5.14349 11.6461C5.25407 11.0448 5.3648 10.4433 5.47567 9.84152C5.55759 9.39464 5.63921 8.94688 5.72053 8.49823C5.72686 8.45173 5.75016 8.40923 5.78592 8.37895C6.78582 7.50661 7.78529 6.63353 8.78432 5.75971L11.0324 3.79407C11.6441 3.25945 12.2558 2.7244 12.8675 2.1889C12.8784 2.1768 12.8921 2.16759 12.9074 2.16206C12.9227 2.15653 12.9391 2.15487 12.9552 2.15721C13.3089 2.21971 13.6626 2.28148 14.0163 2.34251C14.0248 2.34455 14.033 2.3475 14.0409 2.35131C14.0264 2.36495 14.0145 2.37728 14.0022 2.38828L7.91986 7.70687C7.24994 8.29371 6.57958 8.87909 5.90878 9.46301C5.87396 9.49188 5.85099 9.53263 5.84428 9.57744C5.70035 10.3697 5.55525 11.1609 5.40897 11.9511C5.2668 12.7263 5.12521 13.5015 4.9842 14.2768C4.81102 15.2219 4.6371 16.1668 4.46246 17.1117C4.39078 17.5005 4.31955 17.8892 4.24875 18.278C4.24568 18.2903 4.24173 18.3013 4.23559 18.326Z" fill="#F7FAFD" style="fill:#F7FAFD;fill:color(display-p3 0.9686 0.9804 0.9922);fill-opacity:1;"/>
<path d="M2.36469 14.8608C2.33284 14.7689 2.30848 14.6746 2.29185 14.5787C2.28439 14.5061 2.31028 14.4299 2.32388 14.3556C2.46694 13.5748 2.61028 12.7938 2.75392 12.0127C2.89259 11.2598 3.0311 10.5066 3.16948 9.75307C3.30785 8.99956 3.44666 8.24282 3.58591 7.48286C3.66343 7.05769 3.74169 6.63222 3.82067 6.20647C3.82741 6.17463 3.84088 6.14461 3.86017 6.11844C4.73843 4.92093 5.87422 3.93711 7.1833 3.23996C7.20041 3.23072 7.21796 3.22235 7.23508 3.21399C7.2396 3.21362 7.24415 3.21362 7.24868 3.21399C7.2241 3.236 7.2048 3.25492 7.18286 3.27297C6.13351 4.1905 5.08416 5.10789 4.03482 6.02513C4.00649 6.04805 3.98758 6.08065 3.98172 6.11668C3.81994 7.00487 3.65685 7.89292 3.49244 8.78081C3.32803 9.66871 3.16538 10.5575 3.00448 11.4471C2.84856 12.2981 2.69219 13.1481 2.53539 13.9973C2.48478 14.2719 2.43447 14.5466 2.38444 14.8212C2.38181 14.8344 2.37786 14.8476 2.37479 14.8604L2.36469 14.8608Z" fill="#F7FAFD" style="fill:#F7FAFD;fill:color(display-p3 0.9686 0.9804 0.9922);fill-opacity:1;"/>
<path d="M16.606 20.6042C17.6258 19.7131 18.6454 18.8217 19.6649 17.9299C18.8481 19.0309 17.8049 19.9429 16.606 20.6042Z" fill="#F7FAFD" style="fill:#F7FAFD;fill:color(display-p3 0.9686 0.9804 0.9922);fill-opacity:1;"/>
</svg>
