<svg width="32" height="32" viewBox="0 0 32 32" fill="none" xmlns="http://www.w3.org/2000/svg">
<rect width="32" height="32" rx="16" fill="white"/>
<path fill-rule="evenodd" clip-rule="evenodd" d="M25 16C25 11.034 20.966 7 16 7C11.034 7 7 11.034 7 16C7 20.966 11.034 25 16 25C20.966 25 25 20.966 25 16Z" fill="black"/>
<path fill-rule="evenodd" clip-rule="evenodd" d="M12.612 14.4879L16.0003 9.29224V12.5448L12.612 14.4879ZM11.9575 15.4846C11.9932 15.4297 12.029 15.3748 12.0648 15.3199L15.9958 22.7076C14.7695 22.7073 13.543 22.249 12.6075 21.3322C11.0174 19.774 10.7472 17.342 11.9575 15.4846Z" fill="#BDBDBF"/>
<path fill-rule="evenodd" clip-rule="evenodd" d="M19.3886 14.4879L16.0003 9.29224V12.5448L19.3886 14.4879ZM12.612 14.4876L16.0003 12.5502V16.4228L12.612 14.4876ZM12.0649 15.3199L16.0003 17.565V22.7076L12.0649 15.3199ZM19.9358 15.3199C19.9716 15.3748 20.0074 15.4297 20.0431 15.4846C21.2534 17.342 20.9832 19.774 19.3931 21.3322C18.4576 22.249 17.2311 22.7073 16.0048 22.7076L19.9358 15.3199Z" fill="#99999E"/>
<path fill-rule="evenodd" clip-rule="evenodd" d="M19.3883 14.4876L16 12.5503V16.4228L19.3883 14.4876ZM19.9353 15.3199L16 17.5651V22.7077L19.9353 15.3199Z" fill="#68686D"/>
<path fill-rule="evenodd" clip-rule="evenodd" d="M11.8545 3.38381C13.345 2.89389 14.938 2.66989 16.5159 2.73037C18.0941 2.79085 19.6577 3.13613 21.1127 3.74413C22.5681 4.35213 23.9149 5.22317 25.0673 6.29773C26.5914 7.71949 27.7748 9.49773 28.4845 11.4868C29.1946 13.4763 29.4311 15.6766 29.1572 17.7713C28.8836 19.866 28.0996 21.8555 26.9137 23.5662C25.7277 25.2769 24.1396 26.7086 22.2743 27.7006C20.409 28.6923 18.266 29.244 16.1537 29.276C14.0413 29.308 11.9594 28.8206 10.0948 27.8952C8.23047 26.9697 6.58311 25.6065 5.33223 23.9038C4.08135 22.2011 3.22695 20.1588 2.88775 18.075C2.54855 15.9908 2.72455 13.8648 3.37447 11.8814C3.86567 10.3819 4.62791 8.96429 5.60455 7.73581H4.12007V5.28205H9.93671V10.7137H7.48295V9.22957C6.68295 10.2356 6.05831 11.3969 5.65607 12.6257C5.12391 14.2513 4.98055 15.9953 5.25607 17.6971C5.59847 19.8139 6.58855 21.8651 8.06631 23.4459C9.83399 25.3364 12.2993 26.5544 14.8657 26.8209C17.4317 27.0875 20.0989 26.403 22.217 24.9288C24.3351 23.4545 25.9047 21.1905 26.5418 18.69C27.1789 16.1896 26.8836 13.4526 25.7348 11.1422C24.586 8.83181 22.5834 6.94861 20.1889 5.95917C17.7943 4.96941 15.0074 4.87405 12.6036 5.66381L11.8545 3.38381Z" fill="url(#paint0_linear_327_466958)"/>
<defs>
<linearGradient id="paint0_linear_327_466958" x1="2.04317" y1="13.2972" x2="15.2219" y2="29.5766" gradientUnits="userSpaceOnUse">
<stop stop-color="#FF1100"/>
<stop offset="0.34375" stop-color="#FDBF41"/>
<stop offset="0.692708" stop-color="#F1ECE2"/>
<stop offset="1" stop-color="#007FFF"/>
</linearGradient>
</defs>
</svg>
