<?xml version="1.0" encoding="UTF-8"?>
<svg id="Layer_2" data-name="Layer 2" xmlns="http://www.w3.org/2000/svg" viewBox="0 0 1525.71 1526.04">
  <defs>
    <style>
      .cls-1 {
        fill: #80858c;
        isolation: isolate;
      }

      .cls-1, .cls-2, .cls-3, .cls-4 {
        stroke-width: 0px;
      }

      .cls-2 {
        fill: #081019;
      }

      .cls-3 {
        fill: #fefffe;
      }

      .cls-4 {
        fill: #fafbfa;
      }
    </style>
  </defs>
  <g id="Layer_2-2" data-name="Layer 2">
    <g>
      <circle class="cls-2" cx="761.94" cy="759.31" r="698.41"/>
      <g id="Layer_1-2" data-name="Layer 1-2">
        <g>
          <g>
            <path class="cls-1" d="m1516.22,884.02c-.11.95-.43,1.92-.31,2.84.92,6.79-.47,13.37-1.65,19.98-3.15,17.72-7.21,35.25-11.83,52.65-5.91,22.29-12.93,44.21-20.87,65.86-12.01,32.74-26.39,64.41-42.79,95.17-15.16,28.42-32.08,55.77-50.72,82.05-10.84,15.29-22.17,30.2-34.07,44.68-7.78,9.46-15.84,18.68-24.04,27.79-13.19,14.66-27.05,28.64-41.3,42.23-15.82,15.09-32.36,29.36-49.48,42.98-20.12,16.02-41.06,30.88-62.63,44.89-28.84,18.73-58.9,35.28-90.06,49.79-29.63,13.79-60.03,25.61-91.19,35.44-123.77,39.04-257.04,46.19-384.31,20.77-38.9-7.77-77.32-18.48-114.48-32.4-18.21-6.82-36.16-14.26-53.83-22.39-25.34-11.65-49.85-24.83-73.74-39.19-24.31-14.61-47.66-30.65-70.13-47.94-15.42-11.87-30.4-24.26-44.89-37.26-18.98-17.02-37.03-34.95-54.32-53.65-14.67-15.87-28.55-32.44-41.78-49.55-14.4-18.63-27.96-37.86-40.63-57.7-20.2-31.62-37.92-64.58-53.3-98.81-11.32-25.21-21.22-50.96-29.68-77.25-7.27-22.62-13.42-45.55-18.55-68.76-3.01-13.59-5.58-27.26-7.89-40.98-1.4-8.27-2.34-16.63-3.43-24.95-.79-5.94-1.74-11.88-2.19-17.85C1.41,832.85.02,823.33,0,813.7c-.02-6.03.4-11.98,1.8-17.85.58-1.04,1.19-2.05,1.72-3.11,3.53-7.04,9.26-11.44,16.73-13.52,25.85-7.22,47.4,6.9,69.16,22.13,5.28,3.91,10.49,7.91,15.58,12.07,2.22,1.82,4.51,3.58,6.76,5.36,3.01,2.37,6,4.79,9.04,7.12,7.04,5.39,14.28,10.53,21.11,16.19,7.57,6.28,15.69,11.85,23.27,18.12,7.2,5.95,14.86,11.34,22.25,17.06,7.02,5.42,14.17,10.67,21.11,16.2,9.19,7.31,18.68,14.24,28.02,21.36,7.05,5.39,14.16,10.69,21.11,16.2,7.7,6.1,15.73,11.78,23.41,17.92,8.8,7.03,17.93,13.64,26.89,20.47,12.39,9.43,24.37,20.53,32.2,34.16,9.54,16.76,11.08,34.8,3.64,53.97-4.21,15.3-19.84,28-34.05,33.5-20.69,8-42.39,3.22-60.74-8.14-10.2-6.32-19.89-13.41-29.37-20.75-9.29-7.18-18.73-14.17-27.87-21.57-7.82-6.33-15.9-12.36-23.95-18.39-4.61-3.45-9.44-6.59-14.1-9.96-2.79-2.01-5.98-3.04-9.19-4.01-1.47-.44-2.85.08-3.97,1.13-1.09,1.01-1.86,2.22-1.86,3.76,0,1.19-.11,2.45.2,3.58.99,3.7,1.9,7.45,3.3,11.01,2.01,5.13,4.26,10.19,6.69,15.14,5.93,12.07,12.01,24.07,18.05,36.09.86,1.71,1.74,3.43,2.69,5.09,2.75,4.78,5.69,9.46,8.29,14.31,4.78,8.89,10.33,17.3,15.7,25.82,7.66,12.19,15.91,23.98,24.49,35.54,6.57,8.85,13.36,17.55,20.11,26.27,2.34,3.03,4.74,6.04,7.36,8.84,4.76,5.08,8.72,10.86,13.83,15.63.69.65,1.14,1.53,1.76,2.28,1.07,1.29,2.1,2.62,3.28,3.82,8.42,8.57,16.76,17.22,25.33,25.64,8.56,8.41,16.62,17.35,26.16,24.71,6.47,6.45,13.66,12.04,20.64,17.9,5.51,4.63,11.09,9.17,16.79,13.55,6.46,4.97,12.83,10.08,19.57,14.66,7.93,5.39,15.76,10.92,23.83,16.12,11.9,7.67,23.86,15.21,36.19,22.18,9.41,5.32,18.98,10.31,28.5,15.4,6.76,3.61,13.88,6.57,20.78,9.93,8.2,3.99,16.57,7.6,25,11.08,15.3,6.33,30.76,12.2,46.47,17.42,11.15,3.7,22.28,7.52,33.65,10.48,127.47,33.23,264.9,33.97,391.37-6.52,1.95-.62,3.9-1.26,5.85-1.92,11.37-3.82,22.77-7.56,33.93-11.95,9.59-3.78,19.17-7.6,28.62-11.75,9.67-4.25,19.17-8.85,28.76-13.25,6.1-2.8,12.03-5.97,17.86-9.34,6.02-3.48,12.28-6.53,18.37-9.91,8.61-4.79,16.96-9.99,25.27-15.23,13.79-8.71,27.25-17.93,40.5-27.46,4.28-3.08,8.45-6.32,12.61-9.56,4.35-3.38,8.66-6.83,12.94-10.3,3.54-2.87,7.12-5.7,10.49-8.75,5.5-5,11.54-9.41,16.63-14.87.49-.52,1.12-.91,1.67-1.37,1.83-1.55,3.76-2.99,5.45-4.67,12.26-12.2,24.48-24.45,36.7-36.69,1.19-1.19,2.5-2.31,3.43-3.69,2.3-3.42,5.34-6.16,8.05-9.2s5.3-6.18,7.94-9.29c3.42-4.02,6.94-7.95,10.23-12.07,4.49-5.62,8.81-11.36,13.17-17.09,6.83-8.96,13.48-18.06,19.87-27.35,8.17-11.86,15.86-24.03,23.25-36.37,4.81-8.02,9.45-16.16,13.77-24.46,6.43-12.35,12.52-24.89,18.73-37.36.86-1.72,1.71-3.44,2.46-5.21,2.06-4.85,3.97-9.78,6.12-14.59,4.97-11.19,9.27-22.63,13.39-34.15,4.22-11.78,8.11-23.68,11.81-35.63,3.54-11.44,6.09-23.51,10.38-34.65,3.55-9.24,7.69-18.34,13.43-26.41,7.7-10.83,18.28-18.94,31.01-22.93,5.79-1.82,11.69-2.75,17.75-2.12,6.38.67,11.37,3.6,14.44,9.4.89,1.7,1.74,3.43,2.6,5.14h.02Z"/>
            <path class="cls-1" d="m11.74,634.35c-.3-5.76-.78-11.51-.19-17.27.25-2.38.57-4.76,1.04-7.11,4.09-20.73,9.23-41.2,15.17-61.47,4.79-16.36,10.13-32.53,16.09-48.51,10.32-27.69,22.11-54.75,35.57-81.07,20.93-40.94,45.28-79.73,73.08-116.36,11.77-15.5,24.01-30.62,37-45.1,15.06-16.82,30.7-33.11,47.42-48.32,6.39-5.82,12.73-11.71,19.16-17.48,16.27-14.61,33.32-28.27,50.82-41.38,20.58-15.41,41.88-29.77,63.95-42.96,23.1-13.81,46.76-26.52,71.21-37.82,29.45-13.61,59.6-25.37,90.56-35.06,124.72-39.03,259.54-44.67,387.42-18.12,36.68,7.61,72.84,17.84,107.95,30.9,22.96,8.54,45.4,18.22,67.41,28.96,23.54,11.49,46.37,24.23,68.77,37.79,22.82,13.82,44.78,28.91,65.98,45.09,12.6,9.61,24.85,19.66,36.87,30.01,17.67,15.22,34.46,31.37,50.63,48.15,16.18,16.79,31.44,34.37,45.92,52.64,14.63,18.46,28.39,37.52,41.24,57.26,20.08,30.85,37.66,63.07,53.05,96.5,13.27,28.81,24.58,58.39,34.1,88.65,7.63,24.27,14.12,48.85,19.3,73.78,3.32,15.97,6.29,32.01,8.69,48.15,2.67,17.9,5.19,35.73,5.74,53.84.48,15.91-6.21,31.81-23.86,33.5-13.66,1.31-26.94-3.38-38.76-9.93-9.7-5.37-18.57-12.1-27.4-18.81-1.56,0-5.58-4.24-6.9-5.24-2.63-2-5.26-3.99-7.89-5.99-5.26-3.99-10.52-7.99-15.78-11.98-10.13-7.69-20.25-15.42-30.29-23.22-5.48-4.27-11.07-8.41-16.61-12.6-5.92-4.49-12.02-8.76-17.72-13.52-7.55-6.31-15.65-11.89-23.28-18.09-9.29-7.56-19.06-14.52-28.51-21.89-9.08-7.07-18.26-14-27.33-21.08-10.02-7.81-20.32-15.24-30.24-23.19-1.87-1.5-3.75-2.98-5.67-4.41-3.47-2.58-6.6-5.57-9.98-8.24-6.62-5.26-12.4-11.24-17.62-17.88-5.73-7.31-9.73-15.43-12.01-24.34-1.18-4.61-2.26-9.3-2.06-14.18.17-4.07-.12-8.17,1.3-12.1,1.73-12.39,8-22.46,16.29-31.41,2.1-2.26,4.76-4,7.16-5.99,9.08-7.5,23.52-11.71,34.76-12.02,5.36-.15,10.53.78,15.67,1.83,5.63,1.16,11.05,3.07,16.26,5.66,6.48,3.21,12.68,6.85,18.5,11.1,11.43,8.33,22.72,16.85,34.04,25.33,5.76,4.31,11.44,8.71,17.15,13.07,4.38,3.34,8.88,6.55,13.11,10.08,5.36,4.46,10.92,8.62,16.82,12.32,3.04,1.91,6.31,3.44,9.52,5.07,1.54.78,3.24.8,4.94.59,1.61-.2,3.16-1.69,3.34-3.31.3-2.64.37-5.27-.5-7.84-1.07-3.18-2.1-6.38-3.28-9.52-4.22-11.26-10.29-21.67-14.98-32.71-1.31-3.07-3.34-5.82-4.85-8.82-5.29-10.51-10.86-20.86-17-30.9-4.76-7.78-9.43-15.6-14.35-23.26-5.32-8.27-10.92-16.34-16.56-24.41-9.21-13.18-19.14-25.79-29.18-38.32-5.39-6.72-11.13-13.19-16.77-19.72-4.86-5.62-10.48-10.56-14.99-16.51-11.83-11.59-22.95-23.89-35.61-34.64-5.3-4.49-10.11-9.54-15.53-13.93-4.66-3.76-8.97-7.96-13.62-11.74-6.13-5-12.37-9.86-18.67-14.64-8.21-6.23-16.33-12.59-24.9-18.33-15.94-10.68-31.83-21.41-48.48-31.03-10.59-6.13-21.29-12.06-32.11-17.78-13.79-7.3-28-13.73-42.31-19.96-13.2-5.76-26.6-10.98-40.11-15.93-13.06-4.78-26.33-8.93-39.69-12.85-3.68-1.07-7.37-2.12-11.08-3.07-123.16-31.79-257.83-31.01-379.94,7.18-5.03,1.57-10.17,2.88-15.09,4.74-5.16,1.95-10.38,3.75-15.6,5.51-2.04.69-4.07,1.44-6.06,2.26-11.54,4.73-23.22,9.1-34.63,14.15-7.9,3.49-15.76,7.06-23.58,10.71-8.69,4.07-17.19,8.53-25.61,13.16-8.62,4.75-17.24,9.47-25.73,14.44-8.07,4.73-16,9.7-23.86,14.75-13.53,8.68-26.61,17.99-39.51,27.57-10.4,7.72-20.55,15.75-30.47,24.05-4.95,4.15-10.19,8.02-14.62,12.79-.81.87-1.8,1.58-2.71,2.36-2,1.71-4.12,3.31-5.98,5.16-12.45,12.34-24.94,24.67-37.23,37.17-5.71,5.81-11.02,12.02-16.51,18.05-.32.35-.65.71-.89,1.13-1.46,2.53-3.61,4.48-5.55,6.6-.97,1.07-1.99,2.1-2.88,3.22-6.36,8.11-12.74,16.21-19,24.38-6.42,8.37-12.56,16.95-18.56,25.63-8.46,12.24-16.17,24.96-23.76,37.75-6.73,11.35-13.11,22.91-18.93,34.76-5.82,11.85-12.02,23.5-17.24,35.65-3.12,7.27-6.42,14.46-9.33,21.83-1.59,4.01-3.14,8.04-4.65,12.08-2.52,6.73-5.12,13.45-7.48,20.24-5.02,14.48-9.28,29.2-13.78,43.84-4.58,14.91-8.52,29-17.74,41.84-7.28,10.14-16.6,17.68-28.36,22.08-7.51,2.81-15.24,3.93-23.19,2.73-6.75-1.02-11.95-4.47-15.39-10.47-.82-1.43-1-3.23-2.46-4.28l.04-.03Z"/>
          </g>
          <g>
            <path class="cls-3" d="m496.09,882.67c0-38.73-.14-77.46.13-116.2.05-7.61-1.97-14.12-5.98-20.32-5.27-8.14-11.75-15.21-18.85-21.74-8.66-7.99-17.44-15.85-26.03-23.91-11.04-10.36-22.16-20.67-32.88-31.37-17.01-16.97-30.33-36.58-40.48-58.39-7.23-15.55-13.16-31.44-15.28-48.57-1.31-10.57-1.18-21.09,1.53-31.46,5.19-19.87,23.14-27.94,36.76-27.89,44.72.14,89.43.05,134.15.05,1.92,0,3.85.04,5.77-.02,4.31-.12,4.81-.55,4.83-5.13.06-13.71-.08-27.42.06-41.14.09-8.89.34-17.81,2.46-26.52,8.07-33.2,28.72-54.15,61.69-62.76,11.21-2.93,22.78-3.82,34.31-2.78,21.92,1.98,40.57,10.99,55.55,27.31,11.2,12.19,18.37,26.36,20.81,42.79.46,3.08.74,6.21.76,9.32.1,17.08.08,34.16.14,51.24.02,7.48.06,7.51,7.72,7.51,27.17.02,54.34,0,81.5,0,1.68,0,3.37-.05,5.04-.15,1.4-.08,2.22-1.04,2.37-2.29.23-1.9.23-3.84.23-5.76.02-13.71-.04-27.42.03-41.14.04-7.7.55-15.4,2.37-22.91,8.05-33.13,28.72-54.18,61.45-63.17,11.89-3.27,24.1-3.82,36.42-1.97,4.97.74,9.99,1.22,14.85,2.57,27.1,7.51,54.65,31.6,59.37,65.88.62,4.55,1.19,9.05,1.21,13.61.04,13.23.07,26.46.1,39.69,0,3.61-.08,7.22.02,10.83.11,4.33.65,4.79,5.15,4.92,1.92.05,3.85.02,5.77.02,38.23,0,76.45.05,114.68-.04,5.38,0,10.5.9,15.48,2.79,11.11,4.22,18.05,12.38,21.8,23.46,3.37,10.02,3.82,20.38,2.25,30.66-5.82,37.84-21.8,70.9-47.12,99.61-16.75,18.99-35.22,36.15-54.03,53.01-5.55,4.97-11.14,9.9-16.6,14.97-6.91,6.41-12.9,13.58-17.37,21.95-2.32,4.34-3.52,8.92-3.52,13.82v5.05c0,48.84.05,97.68-.02,146.51-.04,25.74-.38,51.47-.46,77.22-.08,24.88-5.36,48.68-15.05,71.49-10.47,24.64-25.28,46.44-44.54,65.03-26.92,25.97-58.55,43.38-95.3,51.05-14.62,3.06-29.47,4.61-44.37,4.7-41.11.25-82.23.67-123.33.03-41.72-.65-79.96-13.1-113.8-37.81-36.62-26.73-60.91-62.2-73.54-105.75-3.22-11.1-5.42-22.41-6.59-33.86-1-9.79-1.23-19.69-1.28-29.54-.15-31.51-.05-63.03-.05-94.55h-.26Zm83.28-16.23c0,39.21.02,78.43,0,117.64,0,9.87.75,19.63,3.19,29.26,6.69,26.37,20.79,47.82,42.26,64.44,21.35,16.51,45.94,23.67,72.53,23.89,38.22.33,76.45.12,114.68.04,9.84-.02,19.72-.73,29.28-3.03,35.19-8.47,61.43-28.75,78.04-60.99,8.25-16.01,12.41-33.17,12.27-51.3-.1-12.51.05-25.02-.04-37.53-.05-7.33,2.17-8.71-8.75-12.13-30.93-9.7-59.78-23.77-86.9-41.48-30-19.6-56.71-42.95-79.61-70.54-26.21-31.59-45.79-66.98-59.5-105.67-6.99-19.73-11.77-40.02-14.46-60.73-1.54-11.89-2.29-23.9-2.87-35.88-.46-9.36-.73-18.72-1.29-28.09-.59-9.71.05-8.92-9.23-8.93-46.64,0-93.28,0-139.92,0-1.92,0-3.87-.17-5.76.08-9.11,1.22-16.36,6.32-18.33,15.85-1.25,6.05-1.2,12.54.11,18.66,4,18.76,12.42,35.24,26.33,48.69,10.02,9.69,20.03,19.41,29.97,29.2,2.73,2.69,5.35,5.54,7.75,8.53,5.38,6.69,8.81,14.22,9.61,22.92.35,3.84.64,7.66.64,11.51v125.58h0Zm346.58-57.36c-.23-20.32-16.3-38.48-38.57-38.45-19.33.02-38.29,14.09-38.59,38.42-.28,22.45,17.36,38.96,38.92,38.74,23.28-.25,38.03-18.8,38.24-38.71h0Z"/>
            <path class="cls-4" d="m654.34,846.39c-17.89.95-37.4-14.34-37.3-37.43.08-17.37,12.74-36.73,37.2-36.95,20.8-.19,36.68,15.25,37.23,36.84.53,20.84-16.19,37.54-37.12,37.54Z"/>
          </g>
        </g>
      </g>
    </g>
  </g>
</svg>