<svg xmlns="http://www.w3.org/2000/svg" viewBox="0 0 200 200" fill="none">
  <defs>
    <linearGradient id="linear-gradient" x1="8" y1="93.17" x2="194.14" y2="106.78" gradientUnits="userSpaceOnUse">
      <stop offset="0" stop-color="#ff9902"/>
      <stop offset="1" stop-color="#fdb908"/>
    </linearGradient>
  </defs>
  <circle cx="100" cy="100" r="100" style="fill: url(#linear-gradient);"/>
  <path d="M90.04,30.22c3.06,1.29,10.39,2.62,13.93,3.23-1.68,5.05-2.28,10.55-3.79,15.69,3.31.48,6.83,1.49,10.04,2.41,1.09-5.33,2.56-10.6,3.5-15.96,4.45,1.44,9.35,2.25,13.93,3.23-1.53,5.28-2.54,10.82-3.75,16.19,5.58,1.96,11.52,5.54,15.32,10.07,3.6,4.29,5.67,9.82,5.16,15.45-.59,6.5-3.53,11.22-8.46,15.32,5.7,3.35,10.93,7.86,14.42,13.52,3.76,6.1,5.26,12.85,3.56,19.88-1.74,7.2-6.04,13.5-12.41,17.36-12.65,7.68-25.28,4.23-38.49,1-.94,5-2.23,11.58-3.78,16.36-.66.34-.98.1-1.68-.09-3.98-1.04-8.14-2.03-12.2-2.7,1.65-5.4,2.66-11.14,3.9-16.65-3.32-.45-6.69-1.49-9.94-2.33-1.29,5.57-2.45,11.17-3.8,16.73l-13.79-3.15c1.45-5.65,2.66-11.36,3.94-17.05-2.17-.99-4.38-1.98-6.48-3.14-6.03-3.34-10.78-8.09-12.69-14.85-.1-.36-.19-.72-.27-1.09-.08-.37-.15-.73-.22-1.1-.06-.37-.12-.74-.16-1.11-.04-.37-.08-.74-.11-1.12-.03-.37-.04-.75-.05-1.12,0-.37,0-.75,0-1.12.01-.37.03-.75.06-1.12.03-.37.07-.74.12-1.11.05-.37.1-.74.17-1.11.07-.37.14-.73.23-1.1.08-.36.18-.73.28-1.09s.21-.72.33-1.07c.12-.35.25-.7.39-1.05.14-.35.28-.69.44-1.03.15-.34.32-.68.49-1.01.17-.33.35-.66.54-.98,6.04-10.64,17.78-13.71,28.69-16.76.5-3.31,1.47-6.67,2.21-9.94,1.26-5.59,2.45-11.22,3.87-16.77-6.52-1.91-13.44-3.23-20.1-4.56,1.11-4.58,2.24-9.19,3.09-13.82,6.69,1.39,13.43,2.87,20.06,4.54,1.22-5.25,2.63-10.58,3.52-15.89Z" style="fill: #fefefe;"/>
  <path d="M73.57,102.36c.4.78-4.17,19.45-4.67,22.28-1.88-.89-3.64-1.87-5.36-3.03-1.51-1.1-2.87-2.75-3.5-4.53-.67-1.9-.43-3.94.43-5.74,2.41-5.07,8.16-7.25,13.1-8.99Z" style="fill: #fdaf05;"/>
  <path d="M97.13,62.86c6.81,1.73,13.9,2.75,20.55,5.02,4.16,1.42,9.88,3.8,11.89,8.03.1.22.2.44.28.67.08.23.15.46.21.7.06.24.1.47.14.71.03.24.06.48.07.72,0,.24,0,.48,0,.73-.02.24-.04.48-.08.72-.04.24-.09.48-.15.71-.06.23-.14.46-.23.69-.9,2.38-2.83,3.65-5.05,4.61-9.04,3.06-23.09.14-32.71-.42,1.78-7.61,3.47-15.25,5.09-22.9Z" style="fill: #fdaf05;"/>
  <path d="M88.88,100.33c10.92.1,21.49.5,31.91,4.13,7.15,2.49,15.1,6.96,18.5,14.04,1.45,3.02,1.6,5.94.46,9.09-1.41,3.92-4.13,6.38-7.83,8.12-2.86,1.21-6.01,1.63-9.1,1.48-4.64-.23-9.3-1.57-13.81-2.6-8.84-2.01-17.72-4.34-26.63-5.95,2.16-9.43,4.08-18.94,6.51-28.3Z" style="fill: #fdaf05;"/>
</svg>